<svg xmlns="http://www.w3.org/2000/svg" xml:space="preserve" width="1369.7943" height="500" viewBox="0 0 1369.7943 500"><path d="M-10.432 348.391v-8.768c-5.13-.993-23.076-2.813-29.031-2.813h-12.904v36.811h11.084v-27.708l5.129.082c7.197.08 19.356 1.322 25.722 2.396m-28.95-48.057v28.205h42.02v-28.205h-42.02m11.003 19.275v-10.34h20.014v10.34h-20.014m31.185 39.538h10.42v-9.265H2.807V331.6H-8.116v44.419H2.806ZM50.2 330.526H20.753v8.935h70.145v-8.935H61.7v-5.788h16.542v-25.645H67.24v16.629H32.582v9.016H50.2v5.788m-16.543 44.089h10.922v-6.123h22.33v6.123h10.923v-30.44H33.657v30.44m10.922-14.972v-6.538h22.33v6.538zM116.128 328.29v20.517h10.34v-20.516h6.867v20.516h10.34v-20.516h25.477v-9.18H99.585v9.18h16.543m40.78 4.967H146.4c1.16 8.682 1.986 21.834 1.82 29.776h-36.558v9.184h47.56c.168-10.178-.993-28.54-2.315-38.96zM195.705 324.322H178.17v8.85h69.73v-8.85h-17.704v-16.71h-11.247v16.71h-11.915v-16.71h-11.328v16.71m28.119 35.731v4.633h-33.248v8.855h44.667V351.7H202.07v-4.88h34.662v-8.936h-46.157v22.168zM286.113 370.48h16.96v-8.607h5.538v14.232h10.923v-42.188H308.61v6.532h-8.352v8.44h8.352v4.55h-8.433v8.105h-4.47c2.067-2.646 3.39-5.874 3.39-9.427 0-9.68-8.433-17.374-18.94-17.374-10.507 0-18.859 7.774-18.859 17.374 0 3.553 1.323 6.781 3.31 9.427h-7.527v8.935h17.37v8.104h11.661v-8.104m2.236-18.033c0 4.632-4.136 8.768-8.191 8.768-4.055 0-8.19-4.136-8.19-8.768 0-4.551 4.135-8.687 8.19-8.687s8.19 4.136 8.19 8.687m-11.667-21.094h11.004v-6.285h20.1v6.285h11.003v-31.018h-42.107v31.018m31.104-15.053h-20.1v-7.03h20.1zM384.712 343.182v-8.52c-6.036-1.075-24.15-2.646-32.67-2.646h-12.246v25.23h21.673v7.278h-21.673v8.85h32.838V348.72h-21.672v-7.688h6.041c6.372 0 20.598 1.155 27.709 2.149m-30.354-24.815v8.93h43.344V299.59h-11.004v18.778h-32.34m32.837 49.218v8.52h10.917V330.11h-10.917v15.555h-12.158v8.682h12.158v4.551h-12.158v8.687zM433.514 362.618H419.87v9.351h38.712v-9.35H444.6c.334-5.373 1.409-10.918 3.395-14.805 2.317-4.552 7.608-10.09 14.476-14.313l-6.042-7.278c-3.061 1.657-6.285 3.973-9.178 6.619-3.23 2.894-6.042 5.955-8.024 8.6-1.57-2.396-4.384-5.538-7.445-8.433-3.39-3.228-7.197-6.122-10.091-7.78l-6.538 7.197c6.122 3.974 12.823 10.507 15.468 15.803 2.236 4.217 2.813 9.508 2.894 14.39m32.265-52.027v65.427h10.998v-65.427zM510.943 332.923h-2.155l-16.704-.081v8.52h13.81c9.93 0 29.447 1.242 36.477 2.068v-8.353c-4.05-.583-12.072-1.16-20.263-1.738v-10.01h-11.165v9.594m5.62 43.344c10.345 0 19.194-7.445 19.194-16.543 0-9.178-8.849-16.624-19.194-16.624-10.253 0-19.107 7.526-19.107 16.624 0 9.098 8.854 16.543 19.107 16.543m0-24.07c4.136 0 7.942 3.473 7.942 7.527 0 4.303-3.39 7.445-7.942 7.445-4.384 0-7.855-3.142-7.855-7.445 0-4.054 3.806-7.526 7.855-7.526m-5.54-31.185h11.004v-11.495h33.83v-9.184h-44.833v20.679m33.415 3.142h-15.55v8.11h15.55v43.754h10.922V317.95H544.44zM600.444 370.48h16.953v-8.607h5.545v14.232h10.917v-42.188h-10.917v6.532h-8.358v8.44h8.358v4.55h-8.44v8.105h-4.464c2.068-2.646 3.39-5.874 3.39-9.427 0-9.68-8.438-17.374-18.94-17.374-10.506 0-18.864 7.774-18.864 17.374 0 3.553 1.328 6.781 3.31 9.427h-7.527v8.935h17.37v8.104h11.667v-8.104m2.23-18.033c0 4.632-4.136 8.768-8.186 8.768-4.054 0-8.19-4.136-8.19-8.768 0-4.551 4.136-8.687 8.19-8.687 4.05 0 8.186 4.136 8.186 8.687m-11.663-21.094h11.004v-6.285h20.1v6.285h10.998v-31.018h-42.102v31.018m31.105-15.053h-20.101v-7.03h20.1zM680.76 370.23h14.643v-8.935h-6.949a14.938 14.938 0 0 0 4.055-10.258c0-7.359-4.632-13.643-11.58-15.96v-4.222c7.358.416 14.388 1.075 18.442 1.49v-8.687c-5.788-.826-24.069-2.068-33.582-2.149l-14.642-.08v8.849h11.748c2.23 0 4.714.08 7.278.08v4.303c-7.445 1.82-12.823 8.601-12.823 16.376 0 3.893 1.49 7.532 3.888 10.258h-7.278v8.936h15.55v8.104h11.25v-8.104m1.653-18.945c0 4.302-3.801 8.109-7.527 8.109-3.72 0-7.526-3.807-7.526-8.11 0-4.216 3.807-8.023 7.526-8.023 3.726 0 7.527 3.807 7.527 8.024m19.275-40.445v65.097h10.836V310.84ZM-49.824 259.647v-.664c0-3.1 1.965-4.082 3.828-4.082 2.31 0 4.087.982 4.087 3.703 0 5.065-10.258 4.492-10.258 11.36 0 4.055 2.882 6.204 6.71 6.204 4.18 0 6.523-2.025 6.334-6.679h-3.04c.033 2.505-.761 4.147-3.515 4.147-1.739 0-3.515-.886-3.515-3.353 0-5.032 10.259-4.303 10.259-11.554 0-4.81-3.326-6.36-7.09-6.36-6.743-.065-6.743 5.096-6.678 7.278zM-36.753 260.597c0 4.686.54 8.547 6.079 8.547 5.54 0 6.074-3.861 6.074-8.547 0-7.057-2.688-8.072-6.074-8.072-3.39 0-6.08 1.015-6.08 8.072m9.433 1.107c0 4.367-1.36 5.318-3.353 5.318-1.998 0-3.358-.95-3.358-5.318 0-5.189.664-7.057 3.358-7.057 2.69 0 3.353 1.868 3.353 7.057zM-13.52 268.825h2.596V256.17c0-1.113.06-2.22.157-3.327h-2.754v1.933h-.097c-.853-1.457-2.37-2.251-4.05-2.251-2.785 0-4.302 1.393-4.302 4.114v12.186h2.591V257.75c0-1.933.89-3.228 2.727-3.228 1.393 0 3.131 1.042 3.131 3.704zM-7.539 268.825v3.072l2.597 1.171v-4.243h3.477v-1.96h-3.477v-9.778c0-1.015 0-2.31 2.37-2.31.19 0 .605.059 1.172.124v-1.993c-.853-.065-1.706-.254-2.564-.254-2.468 0-3.575 1.01-3.575 2.846v11.365h-2.63v1.96zM8.065 252.843v10.826c0 1.96-.632 3.353-2.85 3.353-2.593 0-3.257-2.09-3.257-4.779v-9.4H-.638v22.85h2.596v-8.925h.125c1.041 1.868 2.246 2.376 4.335 2.376 2.721 0 4.244-1.36 4.244-4.968v-11.333zM13.13 260.251h6.964v2.435H13.13ZM38.7 275.692v-22.849h-3.985l-9.022 19.815h-.065v-19.815h-2.591v22.85h4.113l8.893-19.556h.065v19.555zM47.754 252.525c3.385 0 6.073 1.015 6.073 8.072 0 4.686-.534 8.547-6.073 8.547-5.54 0-6.08-3.861-6.08-8.547 0-7.057 2.694-8.072 6.08-8.072m0 2.122c-2.689 0-3.353 1.868-3.353 7.057 0 4.367 1.36 5.318 3.353 5.318 1.992 0 3.352-.95 3.352-5.318 0-5.189-.664-7.057-3.352-7.057zM59.054 268.825h-2.597v-15.982h2.597v9.433c0 2.154.723 4.336 3.607 4.336.475 0 .917-.098 1.392-.157v2.689c-2.532 0-3.86-.287-4.94-2.722h-.06z" style="fill:#656263;fill-opacity:1;fill-rule:nonzero;stroke:none;stroke-width:5.52868" transform="matrix(1.33333 0 0 -1.33333 418.417 734.772)"/><path d="M62.98 268.825v-1.96h2.623V255.5c0-1.836 1.107-2.846 3.574-2.846.859 0 1.712.19 2.565.254v1.993c-.567-.065-.977-.125-1.172-.125-2.37 0-2.37 1.296-2.37 2.311v9.778h3.482v1.96H68.2v4.243l-2.597-1.171v-3.072zM83.803 252.843v11.333c0 3.607-1.522 4.968-4.243 4.968-2.09 0-3.288-.508-4.336-2.376H75.1v8.924h-2.597v-22.849H75.1v9.4c0 2.689.664 4.779 3.261 4.779 2.214 0 2.846-1.393 2.846-3.353v-10.826zM92.507 252.843v22.85h2.91V265.66h.097l7.974 10.031h3.294l-8.293-10.317 8.763-12.532h-3.731l-8.007 11.932h-.097v-11.932zM113.871 252.525c3.385 0 6.074 1.015 6.074 8.072 0 4.686-.535 8.547-6.074 8.547-5.54 0-6.08-3.861-6.08-8.547 0-7.057 2.69-8.072 6.08-8.072m0 2.122c-2.694 0-3.358 1.868-3.358 7.057 0 4.367 1.36 5.318 3.358 5.318 1.992 0 3.353-.95 3.353-5.318 0-5.189-.664-7.057-3.353-7.057zM125.166 266.422h.065c1.074 2.435 2.408 2.722 4.94 2.722v-2.69c-.475.06-.918.158-1.393.158-2.883 0-3.612-2.182-3.612-4.336v-9.433h-2.592v15.982h2.592zM133.966 259.998c0-4.466 1.204-5.351 3.229-5.351 1.77 0 2.69 1.425 2.786 3.04h2.846c-.028-3.548-2.214-5.162-5.567-5.162-3.39 0-6.08 1.015-6.08 8.072 0 4.686.54 8.547 6.08 8.547 4.557 0 5.696-2.5 5.696-7.786v-1.36h-8.99m6.237 1.96c0 4.654-1.296 5.226-3.197 5.226-1.646 0-3.007-.794-3.04-5.226zM153.905 255.154h-.064c-.789-1.835-2.025-2.629-4.017-2.629-3.386 0-4.368 2.187-4.368 5.253 0 4.843 4.746 5.065 8.385 4.973.064 2.122.096 4.433-2.69 4.433-1.738 0-2.655-1.172-2.499-2.851h-2.818c.13 3.574 2.03 4.81 5.415 4.81 4.114 0 5.189-2.121 5.189-4.81v-7.694c0-1.263.129-2.559.318-3.796h-2.85v2.311m-5.853 2.435c0-1.55.756-2.942 2.5-2.942 1.582 0 3.542.982 3.288 6.138-2.468-.027-5.788.195-5.788-3.196zM165.648 252.843v22.85h11.776v-2.533h-8.865v-7.342h8.228v-2.533h-8.228v-7.91h9.054v-2.532z" style="fill:#656263;fill-opacity:1;fill-rule:nonzero;stroke:none;stroke-width:5.52868" transform="matrix(1.33333 0 0 -1.33333 418.417 734.772)"/><path d="M191.16 252.843h-3.418l-3.704 6.55-3.45-6.55h-3.072l4.972 8.358-4.562 7.624h3.326l3.04-5.729 3.228 5.729h3.132l-4.779-7.624zM203.123 263.701c.157 3.575-1.71 5.443-4.907 5.443-5.54 0-6.08-3.861-6.08-8.547 0-7.057 2.694-8.072 6.08-8.072 1.77 0 5.13 1.14 5.032 5.636h-2.721c.091-2.883-1.712-3.514-2.311-3.514-2.689 0-3.353 1.868-3.353 7.057 0 4.367 1.36 5.318 3.353 5.318.983 0 2.278-.697 2.213-3.32zM214.99 252.843v10.826c0 1.96-.63 3.353-2.85 3.353-2.592 0-3.261-2.09-3.261-4.779v-9.4h-2.591v22.85h2.59v-8.925h.13c1.043 1.868 2.246 2.376 4.336 2.376 2.722 0 4.244-1.36 4.244-4.968v-11.333zM228.79 252.843h2.847a25.397 25.397 0 0 0-.314 3.796v7.694c0 2.689-1.08 4.81-5.194 4.81-3.385 0-5.286-1.236-5.41-4.81h2.819c-.162 1.68.755 2.85 2.5 2.85 2.786 0 2.753-2.31 2.688-4.432-3.639.092-8.385-.13-8.385-4.973 0-3.066.977-5.253 4.363-5.253 1.998 0 3.228.794 4.022 2.63h.065v-2.312m-.065 7.942c.254-5.156-1.711-6.138-3.293-6.138-1.739 0-2.5 1.393-2.5 2.942 0 3.391 3.326 3.17 5.793 3.196zM246.068 252.843v11.08c0 3.163-.853 5.22-4.27 5.22-2.058 0-3.262-.572-4.271-2.375h-.13v2.057h-2.753c.097-1.107.162-2.213.162-3.32v-12.662h2.591v9.465c0 2.182.41 4.714 3.261 4.714 2.214 0 2.819-1.393 2.819-3.1v-11.079zM257.498 268.825h2.591v-17.596c0-3.574-2.37-4.432-5.884-4.432-2.657 0-5.065 1.333-4.844 4.276h2.91c.034-1.49 1.016-2.311 2.441-2.311 1.804 0 2.786 1.106 2.786 2.753v3.321h-.097c-.664-1.263-2.122-1.993-3.515-1.993-4.335 0-5.188 3.737-5.188 8.483 0 7.342 3.703 7.818 5 7.818 1.678 0 3.006-.73 3.735-2.279h.065v1.96m-3.04-1.836c-2.942 0-3.04-3.542-3.04-5.663 0-5.13 1.172-6.328 3.105-6.328 3.132 0 3.034 3.698 3.034 5.917 0 2.37.162 6.074-3.099 6.074zM265.818 259.998c0-4.466 1.204-5.351 3.229-5.351 1.776 0 2.694 1.425 2.786 3.04h2.85c-.033-3.548-2.219-5.162-5.571-5.162-3.386 0-6.08 1.015-6.08 8.072 0 4.686.54 8.547 6.08 8.547 4.556 0 5.696-2.5 5.696-7.786v-1.36h-8.99m6.236 1.96c0 4.654-1.296 5.226-3.196 5.226-1.647 0-3.008-.794-3.04-5.226zM282.248 252.525c-3.45 0-5.605 1.523-5.507 5.194h2.942c0-.918.033-3.072 2.657-3.072 1.554 0 2.753.793 2.753 2.44 0 2.845-7.975 2.91-7.975 7.688 0 1.68 1.015 4.369 5.507 4.369 2.851 0 5.286-1.36 5.065-4.525h-2.878c.028 1.674-.859 2.565-2.505 2.565-1.388 0-2.468-.762-2.468-2.155 0-2.818 7.975-2.753 7.975-7.629 0-3.514-2.403-4.875-5.566-4.875zM300.885 275.692h3.704l7.44-22.849h-3.261l-1.647 5.443h-8.827l-1.712-5.443h-2.942l7.245 22.85m1.776-2.69h-.064l-3.575-12.185h7.31zM321.871 252.843v11.08c0 1.706-.599 3.099-2.818 3.099-2.845 0-3.261-2.532-3.261-4.714v-9.465H313.2v12.662c0 1.107-.065 2.213-.162 3.32h2.753v-2.057h.13c1.01 1.803 2.214 2.376 4.27 2.376 3.418 0 4.277-2.058 4.277-5.222v-11.079zM335.893 275.692h2.597v-22.849h-2.597v1.901h-.065c-.885-1.49-1.992-2.219-3.671-2.219-2.565 0-5.156 1.015-5.156 8.04 0 3.99.124 8.579 5.285 8.579 1.518 0 2.624-.665 3.51-1.933h.097v8.481m-3.007-8.67c-2.786 0-3.164-2.214-3.164-6.49 0-2.403 0-5.885 3.26-5.885 2.911 0 2.911 3.606 2.911 6.835 0 2.122-.13 5.54-3.007 5.54zM357.479 269.397c.033 1.296-.065 2.597-.664 3.32-.605.73-1.966.983-2.565.983-2.408 0-3.358-1.458-3.45-1.77-.097-.254-.664-.826-.664-4.746v-6.112c0-5.6 1.836-6.269 4.081-6.269.886 0 3.575.319 3.607 4.784h3.007c.13-7.218-4.967-7.218-6.457-7.218-2.845 0-7.213.189-7.213 9.054v6.452c0 6.457 2.845 8.293 7.343 8.293 4.524 0 6.263-2.338 5.982-6.77zM368.773 252.525c3.391 0 6.08 1.015 6.08 8.072 0 4.686-.54 8.547-6.08 8.547-5.533 0-6.074-3.861-6.074-8.547 0-7.057 2.69-8.072 6.074-8.072m0 2.122c-2.688 0-3.352 1.868-3.352 7.057 0 4.367 1.36 5.318 3.352 5.318 1.998 0 3.359-.95 3.359-5.318 0-5.189-.664-7.057-3.359-7.057zM376.942 260.597c0 4.686.54 8.547 6.074 8.547 5.54 0 6.08-3.861 6.08-8.547 0-7.057-2.689-8.072-6.08-8.072-3.385 0-6.074 1.015-6.074 8.072m9.432 1.107c0 4.367-1.36 5.318-3.358 5.318-1.992 0-3.352-.95-3.352-5.318 0-5.189.664-7.057 3.352-7.057 2.694 0 3.358 1.868 3.358 7.057zM394.446 266.93h.06c.885 1.484 1.998 2.214 3.671 2.214 2.565 0 5.162-1.015 5.162-8.04 0-3.99-.13-8.579-5.286-8.579-1.517 0-2.63.664-3.515 1.933h-.092v-7.661h-2.597v22.028h2.597v-1.895m6.171-5.826c0 2.408 0 5.918-3.26 5.918-3.197 0-2.91-4.428-2.91-6.868 0-2.122.124-5.507 3.006-5.507 2.781 0 3.164 2.187 3.164 6.457zM408.403 259.998c0-4.466 1.204-5.351 3.229-5.351 1.77 0 2.688 1.425 2.786 3.04h2.845c-.033-3.548-2.214-5.162-5.572-5.162-3.385 0-6.074 1.015-6.074 8.072 0 4.686.54 8.547 6.074 8.547 4.562 0 5.702-2.5 5.702-7.786v-1.36h-8.99m6.236 1.96c0 4.654-1.301 5.226-3.196 5.226-1.647 0-3.007-.794-3.04-5.226zM422.802 266.422h.065c1.075 2.435 2.403 2.722 4.935 2.722v-2.69c-.475.06-.918.158-1.393.158-2.878 0-3.607-2.182-3.607-4.336v-9.433h-2.596v15.982h2.596zM437.3 255.154h-.066c-.788-1.835-2.025-2.629-4.017-2.629-3.39 0-4.367 2.187-4.367 5.253 0 4.843 4.745 5.065 8.384 4.973.065 2.122.097 4.433-2.689 4.433-1.744 0-2.661-1.172-2.5-2.851h-2.818c.125 3.574 2.025 4.81 5.41 4.81 4.114 0 5.194-2.121 5.194-4.81v-7.694c0-1.263.124-2.559.313-3.796H437.3v2.311m-5.858 2.435c0-1.55.761-2.942 2.5-2.942 1.587 0 3.547.982 3.293 6.138-2.467-.027-5.793.195-5.793-3.196zM443.594 268.825v3.072l2.597 1.171v-4.243h3.483v-1.96h-3.483v-9.778c0-1.015 0-2.31 2.376-2.31.189 0 .6.059 1.172.124v-1.993c-.859-.065-1.712-.254-2.565-.254-2.468 0-3.58 1.01-3.58 2.846v11.365h-2.624v1.96zM450.305 275.692h2.91v-2.78h-2.91v2.78m2.754-22.849h-2.592v15.982h2.592zM455.527 260.597c0 4.686.54 8.547 6.079 8.547 5.54 0 6.074-3.861 6.074-8.547 0-7.057-2.689-8.072-6.074-8.072s-6.08 1.015-6.08 8.072m9.433 1.107c0 4.367-1.361 5.318-3.353 5.318-1.993 0-3.359-.95-3.359-5.318 0-5.189.67-7.057 3.359-7.057s3.353 1.868 3.353 7.057zM478.888 252.843v11.08c0 1.706-.604 3.099-2.818 3.099-2.851 0-3.261-2.532-3.261-4.714v-9.465h-2.597v12.662c0 1.107-.06 2.213-.157 3.32h2.754v-2.057h.13c1.01 1.803 2.213 2.376 4.27 2.376 3.418 0 4.27-2.058 4.27-5.222v-11.079zM492.402 259.647v-.664c0-3.1 1.96-4.082 3.828-4.082 2.31 0 4.082.982 4.082 3.703 0 5.065-10.253 4.492-10.253 11.36 0 4.055 2.878 6.204 6.711 6.204 4.174 0 6.517-2.025 6.328-6.679h-3.04c.033 2.505-.756 4.147-3.51 4.147-1.743 0-3.514-.886-3.514-3.353 0-5.032 10.253-4.303 10.253-11.554 0-4.81-3.32-6.36-7.09-6.36-6.743-.065-6.743 5.096-6.678 7.278zM514.457 268.825h2.598V256.17c0-1.113.064-2.22.156-3.327h-2.754v1.933h-.091c-.853-1.457-2.376-2.251-4.05-2.251-2.786 0-4.308 1.393-4.308 4.114v12.186h2.597V257.75c0-1.933.885-3.228 2.72-3.228 1.394 0 3.132 1.042 3.132 3.704zM522.972 266.93h.065c.885 1.484 1.992 2.214 3.671 2.214 2.565 0 5.161-1.015 5.161-8.04 0-3.99-.129-8.579-5.285-8.579-1.523 0-2.63.664-3.515 1.933h-.097v-7.661h-2.592v22.028h2.592v-1.895m6.171-5.826c0 2.408 0 5.918-3.256 5.918-3.196 0-2.915-4.428-2.915-6.868 0-2.122.13-5.507 3.007-5.507 2.786 0 3.164 2.187 3.164 6.457zM537.215 266.93h.065c.885 1.484 1.992 2.214 3.67 2.214 2.566 0 5.162-1.015 5.162-8.04 0-3.99-.129-8.579-5.285-8.579-1.523 0-2.63.664-3.515 1.933h-.097v-7.661h-2.592v22.028h2.592v-1.895m6.171-5.826c0 2.408 0 5.918-3.256 5.918-3.196 0-2.915-4.428-2.915-6.868 0-2.122.13-5.507 3.007-5.507 2.786 0 3.164 2.187 3.164 6.457zM548.197 260.597c0 4.686.54 8.547 6.08 8.547 5.538 0 6.073-3.861 6.073-8.547 0-7.057-2.689-8.072-6.074-8.072s-6.08 1.015-6.08 8.072m9.433 1.107c0 4.367-1.361 5.318-3.353 5.318-1.992 0-3.353-.95-3.353-5.318 0-5.189.664-7.057 3.353-7.057s3.353 1.868 3.353 7.057zM565.576 266.422h.065c1.075 2.435 2.403 2.722 4.935 2.722v-2.69c-.475.06-.918.158-1.393.158-2.878 0-3.607-2.182-3.607-4.336v-9.433h-2.597v15.982h2.597z" style="fill:#656263;fill-opacity:1;fill-rule:nonzero;stroke:none;stroke-width:5.52868" transform="matrix(1.33333 0 0 -1.33333 418.417 734.772)"/><path d="M572.125 268.825v3.072l2.597 1.171v-4.243h3.483v-1.96h-3.483v-9.778c0-1.015 0-2.31 2.376-2.31.189 0 .6.059 1.166.124v-1.993c-.853-.065-1.706-.254-2.559-.254-2.473 0-3.58 1.01-3.58 2.846v11.365h-2.624v1.96zM589.943 275.692h3.703l7.44-22.849h-3.261l-1.647 5.443h-8.827l-1.712-5.443h-2.942l7.246 22.85m1.776-2.69h-.065l-3.574-12.185h7.31zM612.543 257.4c0 4.876-7.974 4.811-7.974 7.63 0 1.392 1.074 2.154 2.467 2.154 1.647 0 2.532-.891 2.5-2.565h2.883c.221 3.164-2.22 4.525-5.064 4.525-4.498 0-5.507-2.69-5.507-4.369 0-4.777 7.974-4.843 7.974-7.688 0-1.647-1.204-2.44-2.754-2.44-2.63 0-2.661 2.154-2.661 3.072h-2.943c-.092-3.671 2.057-5.194 5.507-5.194 3.164 0 5.572 1.36 5.572 4.875zM619.443 252.525c-3.45 0-5.604 1.523-5.507 5.194h2.942c0-.918.034-3.072 2.657-3.072 1.555 0 2.753.793 2.753 2.44 0 2.845-7.974 2.91-7.974 7.688 0 1.68 1.015 4.369 5.507 4.369 2.85 0 5.286-1.36 5.065-4.525h-2.878c.033 1.674-.859 2.565-2.5 2.565-1.393 0-2.473-.762-2.473-2.155 0-2.818 7.98-2.753 7.98-7.629 0-3.514-2.408-4.875-5.572-4.875zM632.828 252.525c3.39 0 6.079 1.015 6.079 8.072 0 4.686-.54 8.547-6.08 8.547-5.534 0-6.073-3.861-6.073-8.547 0-7.057 2.688-8.072 6.074-8.072m0 2.122c-2.689 0-3.354 1.868-3.354 7.057 0 4.367 1.361 5.318 3.354 5.318 1.997 0 3.358-.95 3.358-5.318 0-5.189-.664-7.057-3.358-7.057zM652.486 263.701c.156 3.575-1.712 5.443-4.908 5.443-5.54 0-6.074-3.861-6.074-8.547 0-7.057 2.689-8.072 6.074-8.072 1.77 0 5.13 1.14 5.032 5.636h-2.721c.097-2.883-1.712-3.514-2.31-3.514-2.69 0-3.354 1.868-3.354 7.057 0 4.367 1.36 5.318 3.353 5.318.983 0 2.278-.697 2.213-3.32zM655.46 275.692h2.91v-2.78h-2.91v2.78m2.754-22.849h-2.597v15.982h2.597zM669.352 255.154h-.064c-.789-1.835-2.025-2.629-4.017-2.629-3.386 0-4.368 2.187-4.368 5.253 0 4.843 4.746 5.065 8.385 4.973.064 2.122.097 4.433-2.689 4.433-1.739 0-2.657-1.172-2.5-2.851h-2.818c.13 3.574 2.025 4.81 5.415 4.81 4.114 0 5.188-2.121 5.188-4.81v-7.694c0-1.263.13-2.559.32-3.796h-2.852v2.311m-5.852 2.435c0-1.55.756-2.942 2.5-2.942 1.581 0 3.541.982 3.288 6.138-2.468-.027-5.788.195-5.788-3.196zM675.653 268.825v3.072l2.592 1.171v-4.243h3.482v-1.96h-3.482v-9.778c0-1.015 0-2.31 2.375-2.31.19 0 .6.059 1.172.124v-1.993c-.853-.065-1.711-.254-2.564-.254-2.468 0-3.575 1.01-3.575 2.846v11.365h-2.63v1.96zM682.359 275.692h2.915v-2.78h-2.915v2.78m2.753-22.849h-2.591v15.982h2.591zM687.585 260.597c0 4.686.535 8.547 6.074 8.547 5.54 0 6.08-3.861 6.08-8.547 0-7.057-2.695-8.072-6.08-8.072-3.385 0-6.074 1.015-6.074 8.072m9.427 1.107c0 4.367-1.36 5.318-3.353 5.318-1.992 0-3.352-.95-3.352-5.318 0-5.189.664-7.057 3.352-7.057 2.689 0 3.353 1.868 3.353 7.057zM710.942 252.843v11.08c0 1.706-.605 3.099-2.819 3.099-2.85 0-3.26-2.532-3.26-4.714v-9.465h-2.592v12.662c0 1.107-.065 2.213-.162 3.32h2.753v-2.057h.13c1.01 1.803 2.213 2.376 4.27 2.376 3.418 0 4.271-2.058 4.271-5.222v-11.079z" style="fill:#656263;fill-opacity:1;fill-rule:nonzero;stroke:none;stroke-width:5.52868" transform="matrix(1.33333 0 0 -1.33333 418.417 734.772)"/><path d="M-226.688 333.895a5.864 5.864 0 0 0-2.64-7.861 5.882 5.882 0 0 0-7.867 2.645 5.873 5.873 0 0 0 2.65 7.862c2.9 1.446 6.415.248 7.857-2.646z" style="fill:#1ab5f1;fill-opacity:1;fill-rule:nonzero;stroke:none;stroke-width:5.52868" transform="matrix(1.33333 0 0 -1.33333 418.417 734.772)"/><path d="M-230.835 324.187c1.523-3.067.28-6.77-2.78-8.282a6.17 6.17 0 0 0-8.282 2.775c-1.517 3.067-.27 6.77 2.786 8.283 3.05 1.511 6.764.27 8.276-2.776z" style="fill:#1ab5f1;fill-opacity:1;fill-rule:nonzero;stroke:none;stroke-width:5.52868" transform="matrix(1.33333 0 0 -1.33333 418.417 734.772)"/><path d="M-235.321 313.81c1.517-3.045.27-6.76-2.786-8.282-3.056-1.512-6.765-.27-8.282 2.775-1.517 3.067-.27 6.781 2.786 8.293a6.175 6.175 0 0 0 8.282-2.786z" style="fill:#1ab5f1;fill-opacity:1;fill-rule:nonzero;stroke:none;stroke-width:5.52868" transform="matrix(1.33333 0 0 -1.33333 418.417 734.772)"/><path d="M-239.82 303.606c1.437-2.905.26-6.414-2.639-7.85-2.9-1.447-6.425-.27-7.861 2.634-1.442 2.894-.259 6.425 2.64 7.862 2.9 1.446 6.42.248 7.86-2.646zM-225.338 309.89a5.934 5.934 0 0 0-2.42-8.033c-2.882-1.555-6.484-.465-8.033 2.43a5.918 5.918 0 0 0 2.419 8.022 5.923 5.923 0 0 0 8.034-2.418z" style="fill:#1ab5f1;fill-opacity:1;fill-rule:nonzero;stroke:none;stroke-width:5.52868" transform="matrix(1.33333 0 0 -1.33333 418.417 734.772)"/><path d="M-229.841 299.351a5.94 5.94 0 0 0-2.424-8.044 5.939 5.939 0 0 0-8.035 2.43c-1.544 2.872-.464 6.467 2.425 8.023 2.883 1.544 6.484.464 8.034-2.409zM-221.014 320.17a5.78 5.78 0 0 0-2.359-7.829c-2.813-1.511-6.323-.463-7.83 2.344a5.796 5.796 0 0 0 2.355 7.85c2.813 1.501 6.323.454 7.834-2.364z" style="fill:#1ab5f1;fill-opacity:1;fill-rule:nonzero;stroke:none;stroke-width:5.52868" transform="matrix(1.33333 0 0 -1.33333 418.417 734.772)"/><path d="M-216.668 330.418c1.572-2.775.59-6.306-2.191-7.883-2.786-1.577-6.312-.583-7.883 2.203a5.775 5.775 0 0 0 2.192 7.872 5.778 5.778 0 0 0 7.882-2.192zM-202.646 329.5a5.004 5.004 0 0 0-5.08-4.935 5.011 5.011 0 0 0 .135 10.02 5.024 5.024 0 0 0 4.945-5.085zM-205.772 317.222a5.018 5.018 0 0 0-5.075-4.945 5.022 5.022 0 0 0-4.946 5.086 5.004 5.004 0 0 0 5.08 4.935 5.007 5.007 0 0 0 4.94-5.076zM-210.453 305.085a4.998 4.998 0 0 0-5.075-4.934 5.01 5.01 0 0 0-4.946 5.075 5.007 5.007 0 0 0 5.08 4.934 5.004 5.004 0 0 0 4.941-5.075zM-215.253 293.963a5.008 5.008 0 0 0-5.075-4.945 5.019 5.019 0 0 0-4.946 5.075 5.016 5.016 0 0 0 5.08 4.945 5.004 5.004 0 0 0 4.941-5.075zM-184.98 337.318a2.229 2.229 0 0 0-2.262-2.203 2.232 2.232 0 0 0-2.209 2.257 2.232 2.232 0 0 0 2.268 2.214 2.24 2.24 0 0 0 2.203-2.268zM-184.813 324.824a2.25 2.25 0 0 0-2.267-2.213 2.237 2.237 0 0 0-2.203 2.267 2.24 2.24 0 0 0 2.262 2.214 2.238 2.238 0 0 0 2.208-2.268zM-187.037 312.46a2.233 2.233 0 0 0-2.268-2.202 2.233 2.233 0 0 0-2.203 2.267 2.246 2.246 0 0 0 2.268 2.214 2.243 2.243 0 0 0 2.203-2.279zM-190.849 302.213a2.238 2.238 0 0 0-2.262-2.214 2.245 2.245 0 0 0-2.208 2.268 2.246 2.246 0 0 0 2.267 2.214 2.237 2.237 0 0 0 2.203-2.268zM-193.214 332.178a3.193 3.193 0 0 0-3.364-3.045 3.203 3.203 0 0 0-3.05 3.358c.092 1.771 1.598 3.142 3.37 3.045 1.775-.075 3.13-1.598 3.044-3.358zM-193.505 320.105c-.082-1.77-1.593-3.131-3.37-3.044a3.202 3.202 0 0 0-3.045 3.358 3.201 3.201 0 0 0 3.37 3.045 3.196 3.196 0 0 0 3.045-3.359zM-196.918 308.357a3.19 3.19 0 0 0-3.369-3.045 3.205 3.205 0 0 0-3.044 3.358c.091 1.771 1.597 3.142 3.368 3.046a3.206 3.206 0 0 0 3.045-3.359zM-201.41 297.375a3.21 3.21 0 0 0-3.374-3.034c-1.766.075-3.131 1.587-3.045 3.358a3.23 3.23 0 0 0 3.37 3.056 3.232 3.232 0 0 0 3.05-3.38z" style="fill:#1ab5f1;fill-opacity:1;fill-rule:nonzero;stroke:none;stroke-width:5.52868" transform="matrix(1.33333 0 0 -1.33333 418.417 734.772)"/><path d="M-197.981 349.38a5.865 5.865 0 0 0 2.635 7.86c2.904 1.437 6.43.25 7.866-2.645a5.863 5.863 0 0 0-2.646-7.861c-2.899-1.447-6.413-.259-7.855 2.646z" style="fill:#3748a4;fill-opacity:1;fill-rule:nonzero;stroke:none;stroke-width:5.52868" transform="matrix(1.33333 0 0 -1.33333 418.417 734.772)"/><path d="M-194.05 359.292a6.186 6.186 0 0 0 2.785 8.293 6.179 6.179 0 0 0 8.277-2.786 6.18 6.18 0 0 0-2.786-8.282c-3.05-1.522-6.76-.27-8.276 2.775z" style="fill:#3748a4;fill-opacity:1;fill-rule:nonzero;stroke:none;stroke-width:5.52868" transform="matrix(1.33333 0 0 -1.33333 418.417 734.772)"/><path d="M-189.558 369.67a6.174 6.174 0 0 0 2.78 8.281c3.061 1.513 6.77.27 8.282-2.785a6.164 6.164 0 0 0-2.78-8.272 6.178 6.178 0 0 0-8.282 2.775z" style="fill:#3748a4;fill-opacity:1;fill-rule:nonzero;stroke:none;stroke-width:5.52868" transform="matrix(1.33333 0 0 -1.33333 418.417 734.772)"/><path d="M-185.066 379.874a5.866 5.866 0 0 0 2.64 7.861c2.899 1.447 6.419.259 7.86-2.646 1.442-2.894.26-6.414-2.634-7.86-2.91-1.437-6.425-.26-7.866 2.645zM-199.542 373.59a5.944 5.944 0 0 0 2.414 8.044c2.888 1.533 6.484.464 8.033-2.43a5.931 5.931 0 1 0-10.447-5.615z" style="fill:#3748a4;fill-opacity:1;fill-rule:nonzero;stroke:none;stroke-width:5.52868" transform="matrix(1.33333 0 0 -1.33333 418.417 734.772)"/><path d="M-195.044 384.15a5.921 5.921 0 0 0 2.419 8.023 5.934 5.934 0 0 0 8.04-2.408c1.549-2.894.469-6.5-2.42-8.034a5.928 5.928 0 0 0-8.039 2.419zM-203.872 363.31a5.793 5.793 0 0 0 2.36 7.839 5.777 5.777 0 0 0 7.829-2.365 5.774 5.774 0 0 0-2.349-7.829 5.797 5.797 0 0 0-7.84 2.354z" style="fill:#3748a4;fill-opacity:1;fill-rule:nonzero;stroke:none;stroke-width:5.52868" transform="matrix(1.33333 0 0 -1.33333 418.417 734.772)"/><path d="M-208.223 353.062a5.788 5.788 0 0 0 2.202 7.883 5.78 5.78 0 0 0 7.883-2.192 5.791 5.791 0 0 0-2.197-7.883c-2.78-1.577-6.312-.584-7.888 2.192zM-222.023 355.048a5.003 5.003 0 0 0 5.075 4.935c2.77-.044 4.983-2.31 4.945-5.075a5.02 5.02 0 0 0-5.08-4.945 5.023 5.023 0 0 0-4.94 5.085zM-219.33 366.689a5.026 5.026 0 0 0 5.081 4.945 5.025 5.025 0 0 0 4.946-5.085 5.007 5.007 0 0 0-5.08-4.935 5.008 5.008 0 0 0-4.946 5.075zM-214.864 377.757a5.005 5.005 0 0 0 5.075 4.935 4.998 4.998 0 0 0 4.945-5.065 5.012 5.012 0 0 0-5.08-4.956 5.024 5.024 0 0 0-4.94 5.086zM-210.064 389.516a5.023 5.023 0 0 0 5.08 4.946 5.008 5.008 0 0 0 4.946-5.075 5 5 0 0 0-5.08-4.935 5.009 5.009 0 0 0-4.946 5.064zM-240.548 345.32a2.247 2.247 0 0 0 2.268 2.202 2.241 2.241 0 0 0 2.208-2.267c-.022-1.231-1.03-2.235-2.268-2.203a2.238 2.238 0 0 0-2.208 2.268zM-241.136 357.38a2.222 2.222 0 0 0 2.262 2.204 2.222 2.222 0 0 0 2.208-2.257 2.235 2.235 0 0 0-2.267-2.213 2.233 2.233 0 0 0-2.203 2.267zM-239.344 369.313a2.249 2.249 0 0 0 2.268 2.214 2.255 2.255 0 0 0 2.208-2.279 2.233 2.233 0 0 0-2.267-2.202 2.23 2.23 0 0 0-2.209 2.267zM-234.468 380.424a2.26 2.26 0 0 0 2.267 2.214 2.255 2.255 0 0 0 2.209-2.278 2.233 2.233 0 0 0-2.268-2.203 2.231 2.231 0 0 0-2.208 2.267zM-231.666 351.313a3.184 3.184 0 0 0 3.364 3.034 3.199 3.199 0 0 0 3.044-3.358 3.201 3.201 0 0 0-3.368-3.046 3.2 3.2 0 0 0-3.04 3.37zM-230.527 362.532a3.19 3.19 0 0 0 3.37 3.034 3.196 3.196 0 0 0 3.044-3.358 3.199 3.199 0 0 0-3.363-3.045 3.199 3.199 0 0 0-3.051 3.369zM-227.33 374.064a3.214 3.214 0 0 0 3.374 3.045 3.21 3.21 0 0 0 3.045-3.369 3.215 3.215 0 0 0-3.37-3.045 3.217 3.217 0 0 0-3.05 3.37zM-223.038 386.104a3.196 3.196 0 0 0 3.363 3.045 3.214 3.214 0 0 0 3.051-3.369c-.092-1.77-1.598-3.142-3.37-3.045a3.204 3.204 0 0 0-3.044 3.37z" style="fill:#3748a4;fill-opacity:1;fill-rule:nonzero;stroke:none;stroke-width:5.52868" transform="matrix(1.33333 0 0 -1.33333 418.417 734.772)"/><path d="M-246.681 295.486s-25.943 5.442-38.43 24.34c-12.494 18.896-6.404 35.244 2.882 55.74 5.885 12.99-.96 38.43-28.189 29.78-1.296-.41-5.053 9.719-2.559 23.703 1.464 8.217 7.057 17.752 13.039 23.486 12.396 11.878 35.056 16.586 51.443 20.192 22.968 5.065 36.887 6.836 57.97 17.71 41 21.132 48.263 60.642 48.263 60.642l30.17-11.878s1.857-12.461-2.349-41.951c-2.262-15.884-9.475-31.951-18.567-45.244-9.93-14.502-23.88-25.203-39.549-32.935-11.867-5.842-21.823-9.47-34.084-14.361-11.992-4.784-23.535-10.971-32.67-20.182-2.49-2.505-6.129-7.408-8.077-10.356-4.59-6.964-6.101-17.644-2.009-25.225 3.65-6.748 10.723-10.56 18.093-11.813" style="fill:#1ab5f1;fill-opacity:1;fill-rule:nonzero;stroke:none;stroke-width:5.52868" transform="matrix(1.33333 0 0 -1.33333 418.417 734.772)"/><path d="m-185.493 367.477 7.996 20.258c81.45-28.615 72.386-137.3 72.386-137.3-20.215-54.573-127.263-71.743-154.188-74.356l-4.675 12.008c.01-.023 46.124 29.89 34.737 89.809-.086.431-.847 6.619-1.425 6.694 47.901-6.306 66.576 29.264 55.73 49.975-4.665 8.897-11.533 10.884-18.368 12.169z" style="fill:#3748a4;fill-opacity:1;fill-rule:nonzero;stroke:none;stroke-width:5.52868" transform="matrix(1.33333 0 0 -1.33333 418.417 734.772)"/></svg>