<svg xmlns="http://www.w3.org/2000/svg" width="283.397pt" height="62.195988pt" viewBox="0 0 283.39701 62.195988"><path fill="#33abd8" d="M29.852 34.043c5.39.224 10.832.833 16.227 1.81a103.164 103.164 0 0 1 16.039-2.581c.053-.765.08-1.479.08-2.171 0-.465-.015-.926-.034-1.38a81.012 81.012 0 0 0-4.765-.136c-6.888 0-16.993.81-27.547 4.458"/><path fill="#f2bf24" d="M.004 30.815c0 .094-.004.188-.004.285 0 1.884.178 3.739.506 5.562 5.113-1.212 12.94-2.567 22.782-2.706-8.22-2.56-18.044-3.07-23.284-3.141"/><path fill="#eb8a2c" d="M30.233 35.415c-.503-.023-1.001-.032-1.504-.045-.578-.019-1.158-.044-1.736-.053-.213-.002-.431-.018-.646-.018-11.172-.132-20.013 1.367-25.574 2.686H.765c.026.112.063.224.09.335.11.47.236.937.372 1.412l.089.292a97.487 97.487 0 0 1 8.612-.37c1.686 0 3.41.042 5.122.123 1.282.062 2.569.143 3.861.247.721.059 1.441.136 2.163.205.693.073 1.38.144 2.079.224 2.119.254 4.247.554 6.366.922a103.542 103.542 0 0 1 13.36-4.691 116.737 116.737 0 0 0-12.646-1.269"/><path fill="#a8be3e" d="M31.949 41.818a123.11 123.11 0 0 1 24.375 7.472 31.004 31.004 0 0 0 5.669-14.656 102.302 102.302 0 0 0-15.734 2.562 103.902 103.902 0 0 0-14.31 4.622"/><path fill="#6da849" d="M1.732 41.34a31.046 31.046 0 0 0 3.521 7.056 31.547 31.547 0 0 0 4.272 5.087A30.932 30.932 0 0 0 31.1 62.196c9.605 0 18.443-4.288 24.385-11.799-8.418-3.535-17.159-6.113-25.999-7.66a114.604 114.604 0 0 0-14.496-1.615c-4.59-.213-9.136-.133-13.258.218"/><path fill="#1592c9" d="M59.587 18.628a18.916 18.916 0 0 0-.389-.858l-.121-.259a32.77 32.77 0 0 0-.941-1.778c-.043-.076-.089-.152-.131-.227a31.61 31.61 0 0 0-2.293-3.408c-.028-.035-.058-.071-.086-.108a30.46 30.46 0 0 0-1.328-1.594c-.115-.128-.24-.248-.358-.376-.14-.152-.286-.301-.428-.45-.45-.464-.914-.917-1.398-1.356-.214-.199-.428-.399-.65-.59a32.901 32.901 0 0 0-2.277-1.797c-.191-.137-.375-.284-.569-.419-.009-.004-.23-.147-.623-.376-3.481-2.263-7.428-3.87-11.685-4.589l-.04-.009c-.015-.003-.031-.003-.045-.007a33.326 33.326 0 0 0-2.423-.303c-.092-.009-.186-.014-.28-.021-.8-.061-1.607-.103-2.42-.103h-.022c-.559 0-1.114.018-1.666.047-.162.009-.323.026-.482.037-.401.027-.8.057-1.197.101-.178.018-.355.045-.533.068a32.66 32.66 0 0 0-1.136.158c-.171.029-.343.063-.516.093-.38.068-.759.143-1.137.226-.16.034-.323.073-.483.111-.39.091-.777.19-1.162.299a32.72 32.72 0 0 0-1.659.509c-.105.037-.21.072-.316.108-.475.166-.945.345-1.411.534-.033.016-.067.028-.103.042a31.07 31.07 0 0 0-12.308 9.191c-.255.31-.504.637-.745.966a8.16 8.16 0 0 0-1.339 4.497c0 1.809.593 3.54 1.72 5.001a8.281 8.281 0 0 0 3.246 2.558c.585.232 1.195.412 1.834.542.919.186 1.85.276 2.854.276l.33-.003c.042-.003 6.638-.442 10.517-6.079.194-.31 5.213-8.134 14.159-8.134 3.68 0 7.494 1.351 11.339 4.024.327.234 7.674 5.478 9.103 13.221 1.216.044 1.769.097 2.004.142-.07-1.503-.446-5.389-2.406-9.907"/><path fill="#69696b" d="M250.535 10.108v16.261h-15.729v-4.068h9.579a1.921 1.921 0 0 0 1.923-1.921v-8.345a1.928 1.928 0 0 0-1.923-1.929h-13.422v3.854h11.501v4.491h-9.58a1.923 1.923 0 0 0-1.921 1.929v7.912c0 1.063.856 1.923 1.921 1.923h17.651v9.841h3.854V10.108zM213.002 20.379h3.846v-8.347a1.923 1.923 0 0 0-1.922-1.925h-15.225v3.851h13.301zM206.003 31.5h-3.845v6.632a1.92 1.92 0 0 0 1.917 1.924h19.628V36.21h-17.7z"/><path fill="#69696b" d="M226.604 10.108h-6.759v15.404h-9.493V21.73h-3.847v3.782h-6.858v3.853h22.127c1.066 0 1.93-.867 1.93-1.929V13.959h2.9zM144.885 31.5h-3.846v6.632c0 1.061.862 1.924 1.924 1.924h19.617V36.21h-17.695zM144.473 17.685a2.926 2.926 0 0 1 2.926-2.924 2.928 2.928 0 0 1 2.924 2.924 2.925 2.925 0 0 1-5.85 0m21.102-7.577h-6.754v15.404h-9.497v-1.363c2.791-.837 4.852-3.403 4.852-6.464a6.72 6.72 0 0 0-1.129-3.727h3.128v-3.85h-6.851V8.186h-3.855v1.922h-6.853v3.85h3.135a6.712 6.712 0 0 0-1.13 3.727c0 3.058 2.055 5.626 4.848 6.461v1.366h-7.708v3.853h22.982a1.929 1.929 0 0 0 1.927-1.93V13.958h2.905zM102.238 27.862v-3.845H76.52v3.845h10.937v2.353H77.372v3.854h20.159v6.062h3.851v-7.992a1.926 1.926 0 0 0-1.927-1.924h-8.153v-2.353zM89.377 17.331c2.237 2.215 6.179 5.257 11.146 5.562V19.02c-4.109-.357-7.485-3.401-9.042-5.062h9.042v-3.851h-9.22V8.186h-3.846v1.921h-9.223v3.851h9.048c-1.547 1.659-4.913 4.705-9.051 5.062v3.873c4.966-.303 8.912-3.347 11.146-5.562M113.047 31.5h-3.851v6.632c0 1.061.863 1.924 1.925 1.924h19.74V36.21h-17.814zM133.631 10.108H127.053v15.855c-1.29-.472-2.532-1.24-3.014-1.581a1.147 1.147 0 0 0-.144-.098c-6.154-3.637-7.155-9.795-7.246-12.756-.014-.402-.006-.737 0-1.002v-.418h-3.892V11.381c-.005 2.715-.733 9.126-7.114 12.903l1.962 3.314c3.667-2.167 5.858-4.956 7.163-7.677 1.293 2.704 3.468 5.467 7.09 7.632.644.454 3.944 2.664 7.077 2.664h.062a1.922 1.922 0 0 0 1.905-1.925V13.959h2.729zM185.516 36.917a3.567 3.567 0 0 1-3.568-3.559 3.571 3.571 0 0 1 3.568-3.572 3.573 3.573 0 0 1 3.563 3.572 3.568 3.568 0 0 1-3.563 3.559m8.445-26.809H183.2l-.004-.003h-13.139v3.855h10.819c-.831 3.015-3.372 8.465-10.888 10.021v3.848c10.549-2.154 14.014-9.15 14.899-13.87h5.225v4.524h-4.596v3.847h4.596v5.253c-1.266-1.013-2.852-1.643-4.596-1.643-4.09 0-7.419 3.324-7.419 7.418 0 4.088 3.329 7.412 7.419 7.412s7.416-3.324 7.416-7.412c0-1.965-.782-3.74-2.028-5.066h3.057zM265.702 31.5h-3.848v6.632c0 1.061.861 1.924 1.925 1.924h19.617V36.21h-17.694zM268.403 13.958a2.928 2.928 0 0 1 2.92 2.924 2.926 2.926 0 0 1-2.92 2.923 2.925 2.925 0 0 1-2.926-2.923 2.927 2.927 0 0 1 2.926-2.924m0 9.698c3.733 0 6.771-3.042 6.771-6.774 0-3.738-3.038-6.775-6.771-6.775a6.778 6.778 0 0 0-6.773 6.775c0 3.732 3.035 6.774 6.773 6.774M276.142 29.298v3.845h5.327a1.926 1.926 0 0 0 1.928-1.923V10.108h-3.857v19.19z"/><path fill="#69696b" d="M268.318 29.36v3.783h3.846V29.36h3.978v-3.853h-17.623v3.853zM81.861 52.069h-4.357v-7.061h.753v6.388h3.604zM83.764 52.069h-.713v-4.872h.713zm.049-6.258h-.802v-.802h.802zM88.983 47.197l-1.794 4.872h-.634l-1.782-4.872h.77l1.325 3.91 1.343-3.91zM93.003 49.287c0-.198-.009-.343-.025-.436a1.981 1.981 0 0 0-.124-.376 1.132 1.132 0 0 0-.446-.535 1.248 1.248 0 0 0-.693-.198c-.257 0-.486.066-.688.198a1.21 1.21 0 0 0-.451.535 1.859 1.859 0 0 0-.114.376 2.548 2.548 0 0 0-.034.436zm.713.535h-3.288c0 .531.124.944.371 1.236.248.292.602.437 1.064.437.278 0 .509-.04.694-.121.184-.081.38-.222.585-.423l.484.425a2.736 2.736 0 0 1-.787.575c-.261.119-.593.178-.995.178-.667 0-1.182-.198-1.545-.594-.39-.429-.584-1.063-.584-1.901 0-.786.177-1.398.529-1.837.354-.439.844-.659 1.471-.659.627 0 1.117.21 1.471.629.353.419.53.995.53 1.728zM98.747 50.649c0 .467-.179.831-.535 1.09-.357.261-.839.39-1.446.39-.422 0-.795-.054-1.119-.162a2.355 2.355 0 0 1-.881-.535l.475-.471c.185.194.402.335.653.423.251.088.539.131.862.131.416 0 .736-.07.961-.211.224-.141.337-.356.337-.645 0-.427-.272-.663-.813-.709l-.802-.069c-.468 0-.829-.116-1.08-.348-.251-.231-.376-.552-.376-.964 0-.443.165-.793.495-1.048.331-.255.763-.383 1.298-.383.74 0 1.324.175 1.753.525l-.466.465c-.337-.257-.769-.386-1.297-.386-.357 0-.627.07-.812.21-.185.139-.277.339-.277.598 0 .225.065.402.198.528.132.126.35.189.653.189l.782.07c.462.039.818.159 1.065.36.248.201.372.518.372.952M102.015 52.069h-.505c-.402 0-.711-.122-.926-.366-.215-.244-.322-.558-.322-.941v-2.991h-.613v-.545h.613v-1.525h.713v1.525h1.04v.545h-1.04v2.971c0 .475.222.713.664.713h.376zM106.441 49.633c0-.343-.02-.617-.059-.822-.059-.297-.169-.525-.327-.683a1.208 1.208 0 0 0-.891-.357c-.35 0-.644.119-.881.357a1.205 1.205 0 0 0-.318.629c-.052.26-.079.552-.079.876 0 .356.025.655.075.896a1.194 1.194 0 0 0 1.203.966c.356 0 .654-.119.891-.357.158-.158.268-.386.327-.683.039-.198.059-.472.059-.822m.714 0c0 .429-.037.782-.11 1.06a1.94 1.94 0 0 1-.485.881 1.893 1.893 0 0 1-.609.411 2.027 2.027 0 0 1-.787.144 2.05 2.05 0 0 1-.783-.144 1.85 1.85 0 0 1-1.084-1.228 4.369 4.369 0 0 1-.124-1.124c0-.429.041-.801.124-1.114a1.84 1.84 0 0 1 1.08-1.238c.227-.096.49-.144.787-.144a1.882 1.882 0 0 1 1.396.555c.232.237.393.528.485.871.073.271.11.628.11 1.07M112.176 51.406c-.251.271-.495.459-.732.564-.238.106-.529.159-.872.159-.633 0-1.145-.208-1.535-.624-.416-.449-.624-1.073-.624-1.871 0-.806.204-1.43.615-1.872.388-.416.904-.624 1.544-.624.35 0 .64.051.872.153.23.103.475.293.732.57l-.485.455c-.185-.204-.36-.346-.525-.426a1.365 1.365 0 0 0-.594-.118c-.496 0-.872.185-1.129.554-.211.297-.317.733-.317 1.308 0 .31.024.564.07.762.045.198.128.38.247.545.257.369.633.554 1.129.554.238 0 .436-.039.594-.119.158-.079.333-.224.525-.435zM117.623 52.069l-.883.001-1.541-2.5-.953 1.084v1.415h-.713v-7.061h.713v4.724l2.198-2.535h.892l-1.654 1.861zM125.813 52.069h-4.378v-7.061h4.378v.674h-3.625v2.495h3.09v.674h-3.09v2.545h3.625zM131.08 52.069h-.713v-3c0-.423-.105-.745-.317-.966-.211-.221-.505-.332-.881-.332s-.672.111-.887.332c-.214.221-.321.543-.321.966v3h-.713v-4.872h.713v.535c.349-.396.806-.595 1.366-.595.528 0 .944.152 1.248.456.337.33.505.782.505 1.356zM136.241 47.197l-1.794 4.872h-.634l-1.782-4.872h.77l1.325 3.91 1.343-3.91zM137.953 52.069h-.713v-4.872h.713zm.049-6.258h-.802v-.802h.802zM142.993 47.593l-.525.535a1.3 1.3 0 0 0-.381-.278 1.181 1.181 0 0 0-.461-.079c-.35 0-.632.124-.847.371-.214.248-.321.56-.321.936v2.991h-.713v-4.872h.713v.594c.132-.198.321-.357.569-.475.247-.119.513-.179.797-.179.251 0 .464.032.639.095.175.062.351.183.53.361M146.924 49.633c0-.343-.02-.617-.059-.822-.059-.297-.169-.525-.327-.683a1.208 1.208 0 0 0-.891-.357c-.35 0-.644.119-.881.357a1.205 1.205 0 0 0-.318.629c-.052.26-.079.552-.079.876 0 .356.025.655.075.896a1.194 1.194 0 0 0 1.203.966c.356 0 .654-.119.891-.357.158-.158.268-.386.327-.683.039-.198.059-.472.059-.822m.714 0c0 .429-.037.782-.11 1.06a1.94 1.94 0 0 1-.485.881 1.893 1.893 0 0 1-.609.411 2.027 2.027 0 0 1-.787.144 2.05 2.05 0 0 1-.783-.144 1.85 1.85 0 0 1-1.084-1.228 4.369 4.369 0 0 1-.124-1.124c0-.429.041-.801.124-1.114a1.84 1.84 0 0 1 1.08-1.238c.227-.096.49-.144.787-.144a1.882 1.882 0 0 1 1.396.555c.232.237.393.528.485.871.073.271.11.628.11 1.07M152.995 52.069h-.713v-3c0-.423-.105-.745-.317-.966-.211-.221-.505-.332-.881-.332s-.672.111-.887.332c-.214.221-.321.543-.321.966v3h-.713v-4.872h.713v.535c.349-.396.806-.595 1.366-.595.528 0 .944.152 1.248.456.337.33.505.782.505 1.356zM161.7 52.069h-.713v-3c0-.423-.106-.745-.317-.966-.211-.221-.505-.332-.881-.332-.363 0-.657.109-.882.327-.225.218-.337.515-.337.891v3.08h-.713v-3c0-.423-.105-.745-.316-.966-.212-.221-.506-.332-.882-.332s-.673.112-.892.337c-.217.224-.326.544-.326.961v3h-.713v-4.872h.713v.535c.35-.396.809-.595 1.376-.595.694 0 1.193.271 1.496.812.383-.541.917-.812 1.604-.812.258 0 .494.04.708.119.215.08.398.192.55.337.349.336.525.789.525 1.356zM166.454 49.287c0-.198-.009-.343-.025-.436a1.981 1.981 0 0 0-.124-.376 1.132 1.132 0 0 0-.446-.535 1.248 1.248 0 0 0-.693-.198c-.257 0-.486.066-.688.198a1.21 1.21 0 0 0-.451.535 1.859 1.859 0 0 0-.114.376 2.548 2.548 0 0 0-.034.436zm.713.535h-3.288c0 .531.124.944.371 1.236.248.292.602.437 1.064.437.278 0 .509-.04.694-.121.184-.081.38-.222.585-.423l.484.425a2.736 2.736 0 0 1-.787.575c-.261.119-.593.178-.995.178-.667 0-1.182-.198-1.545-.594-.39-.429-.584-1.063-.584-1.901 0-.786.177-1.398.529-1.837.354-.439.844-.659 1.471-.659.627 0 1.117.21 1.471.629.353.419.53.995.53 1.728zM172.515 52.069h-.713v-3c0-.423-.105-.745-.317-.966-.211-.221-.505-.332-.881-.332s-.672.111-.887.332c-.214.221-.321.543-.321.966v3h-.713v-4.872h.713v.535c.349-.396.806-.595 1.366-.595.528 0 .944.152 1.248.456.337.33.505.782.505 1.356zM176.119 52.069h-.505c-.402 0-.711-.122-.926-.366-.215-.244-.322-.558-.322-.941v-2.991h-.613v-.545h.613v-1.525h.713v1.525h1.04v.545h-1.04v2.971c0 .475.222.713.664.713h.376zM180.299 50.346v-.525h-1.367c-.726 0-1.089.287-1.089.862 0 .554.373.831 1.119.831.251 0 .459-.019.624-.059.165-.04.325-.133.481-.282.154-.149.232-.424.232-.827m.713 1.723h-.713v-.465a1.725 1.725 0 0 1-.604.406c-.211.079-.479.119-.802.119-.344 0-.619-.033-.827-.099a1.303 1.303 0 0 1-.55-.347c-.244-.244-.366-.574-.366-.99 0-.436.145-.779.435-1.03.291-.251.707-.377 1.248-.377h1.466v-.465c0-.363-.097-.632-.29-.807-.193-.175-.509-.263-.948-.263-.321 0-.567.04-.737.119-.17.08-.331.225-.481.436l-.505-.446c.211-.277.447-.467.708-.569.261-.102.599-.153 1.015-.153 1.3 0 1.951.541 1.951 1.624zM184.478 52.069h-.515c-.409 0-.717-.117-.925-.352-.208-.234-.313-.55-.313-.947v-5.762h.714v5.733c0 .245.047.425.143.54.095.116.266.174.51.174h.386zM194.321 52.069h-.752v-5.361l-1.932 4.252-.648.002-1.956-4.243v5.35h-.753v-7.061h.753l2.298 5.011 2.238-5.011h.752zM198.996 50.346v-.525h-1.367c-.726 0-1.089.287-1.089.862 0 .554.373.831 1.119.831.251 0 .459-.019.624-.059.165-.04.325-.133.481-.282.154-.149.232-.424.232-.827m.713 1.723h-.713v-.465a1.725 1.725 0 0 1-.604.406c-.211.079-.479.119-.802.119-.344 0-.619-.033-.827-.099a1.303 1.303 0 0 1-.55-.347c-.244-.244-.366-.574-.366-.99 0-.436.145-.779.435-1.03.291-.251.707-.377 1.248-.377h1.466v-.465c0-.363-.097-.632-.29-.807-.193-.175-.509-.263-.948-.263-.321 0-.567.04-.737.119-.17.08-.331.225-.481.436l-.505-.446c.211-.277.447-.467.708-.569.261-.102.599-.153 1.015-.153 1.3 0 1.951.541 1.951 1.624zM205.274 52.069h-.713v-3c0-.423-.105-.745-.317-.966-.211-.221-.505-.332-.881-.332s-.672.111-.887.332c-.214.221-.321.543-.321.966v3h-.713v-4.872h.713v.535c.349-.396.806-.595 1.366-.595.528 0 .944.152 1.248.456.337.33.505.782.505 1.356zM209.771 50.346v-.525h-1.367c-.726 0-1.089.287-1.089.862 0 .554.373.831 1.119.831.251 0 .459-.019.624-.059.165-.04.325-.133.481-.282.154-.149.232-.424.232-.827m.713 1.723h-.713v-.465a1.725 1.725 0 0 1-.604.406c-.211.079-.479.119-.802.119-.344 0-.619-.033-.827-.099a1.303 1.303 0 0 1-.55-.347c-.244-.244-.366-.574-.366-.99 0-.436.145-.779.435-1.03.291-.251.707-.377 1.248-.377h1.466v-.465c0-.363-.097-.632-.29-.807-.193-.175-.509-.263-.948-.263-.321 0-.567.04-.737.119-.17.08-.331.225-.481.436l-.505-.446c.211-.277.447-.467.708-.569.261-.102.599-.153 1.015-.153 1.3 0 1.951.541 1.951 1.624zM215.099 49.599c0-.562-.066-.98-.198-1.251-.192-.384-.529-.576-1.011-.576-.475 0-.809.189-1 .566-.145.291-.218.712-.218 1.261 0 .556.07.973.208 1.251.192.384.529.576 1.01.576.482 0 .815-.189 1.001-.566.139-.278.208-.699.208-1.261m.713 2.619c0 .614-.182 1.116-.545 1.506-.363.389-.858.584-1.485.584-.364 0-.662-.048-.897-.144-.234-.096-.486-.266-.758-.51l.466-.455c.192.168.37.289.535.363.165.075.376.112.634.112.448 0 .788-.144 1.02-.432.211-.262.317-.612.317-1.05v-.756a1.544 1.544 0 0 1-.609.487 1.963 1.963 0 0 1-.758.137c-.237 0-.459-.04-.663-.119a1.547 1.547 0 0 1-.516-.317 1.793 1.793 0 0 1-.465-.857 4.875 4.875 0 0 1-.129-1.173c0-.462.041-.858.123-1.188.083-.33.24-.611.47-.842.125-.126.294-.228.508-.307.214-.079.439-.119.677-.119.296 0 .549.044.759.134.211.089.412.256.603.5v-.574h.713zM220.614 49.287c0-.198-.009-.343-.025-.436a1.981 1.981 0 0 0-.124-.376 1.132 1.132 0 0 0-.446-.535 1.248 1.248 0 0 0-.693-.198c-.257 0-.486.066-.688.198a1.21 1.21 0 0 0-.451.535 1.859 1.859 0 0 0-.114.376 2.548 2.548 0 0 0-.034.436zm.713.535h-3.288c0 .531.124.944.371 1.236.248.292.602.437 1.064.437.278 0 .509-.04.694-.121.184-.081.38-.222.585-.423l.484.425a2.736 2.736 0 0 1-.787.575c-.261.119-.593.178-.995.178-.667 0-1.182-.198-1.545-.594-.39-.429-.584-1.063-.584-1.901 0-.786.177-1.398.529-1.837.354-.439.844-.659 1.471-.659.627 0 1.117.21 1.471.629.353.419.53.995.53 1.728zM229.815 52.069h-.713v-3c0-.423-.106-.745-.317-.966-.211-.221-.505-.332-.881-.332-.363 0-.657.109-.882.327-.225.218-.337.515-.337.891v3.08h-.713v-3c0-.423-.105-.745-.316-.966-.212-.221-.506-.332-.882-.332s-.673.112-.892.337c-.217.224-.326.544-.326.961v3h-.713v-4.872h.713v.535c.35-.396.809-.595 1.376-.595.694 0 1.193.271 1.496.812.383-.541.917-.812 1.604-.812.258 0 .494.04.708.119.215.08.398.192.55.337.349.336.525.789.525 1.356zM234.568 49.287c0-.198-.009-.343-.025-.436a1.981 1.981 0 0 0-.124-.376 1.132 1.132 0 0 0-.446-.535 1.248 1.248 0 0 0-.693-.198c-.257 0-.486.066-.688.198a1.21 1.21 0 0 0-.451.535 1.859 1.859 0 0 0-.114.376 2.548 2.548 0 0 0-.034.436zm.713.535h-3.288c0 .531.124.944.371 1.236.248.292.602.437 1.064.437.278 0 .509-.04.694-.121.184-.081.38-.222.585-.423l.484.425a2.736 2.736 0 0 1-.787.575c-.261.119-.593.178-.995.178-.667 0-1.182-.198-1.545-.594-.39-.429-.584-1.063-.584-1.901 0-.786.177-1.398.529-1.837.354-.439.844-.659 1.471-.659.627 0 1.117.21 1.471.629.353.419.53.995.53 1.728zM240.629 52.069h-.713v-3c0-.423-.105-.745-.317-.966-.211-.221-.505-.332-.881-.332s-.672.111-.887.332c-.214.221-.321.543-.321.966v3h-.713v-4.872h.713v.535c.349-.396.806-.595 1.366-.595.528 0 .944.152 1.248.456.337.33.505.782.505 1.356zM244.233 52.069h-.505c-.402 0-.711-.122-.926-.366-.215-.244-.322-.558-.322-.941v-2.991h-.613v-.545h.613v-1.525h.713v1.525h1.04v.545h-1.04v2.971c0 .475.222.713.664.713h.376zM248.997 52.069h-.753v-7.061h.753zM254.741 52.069h-.713v-3c0-.423-.105-.745-.317-.966-.211-.221-.505-.332-.881-.332s-.672.111-.887.332c-.214.221-.321.543-.321.966v3h-.713v-4.872h.713v.535c.349-.396.806-.595 1.366-.595.528 0 .944.152 1.248.456.337.33.505.782.505 1.356zM259.99 50.649c0 .467-.179.831-.535 1.09-.357.261-.839.39-1.446.39-.422 0-.795-.054-1.119-.162a2.355 2.355 0 0 1-.881-.535l.475-.471c.185.194.402.335.653.423.251.088.539.131.862.131.416 0 .736-.07.961-.211.224-.141.337-.356.337-.645 0-.427-.272-.663-.813-.709l-.802-.069c-.468 0-.829-.116-1.08-.348-.251-.231-.376-.552-.376-.964 0-.443.165-.793.495-1.048.331-.255.763-.383 1.298-.383.74 0 1.324.175 1.753.525l-.466.465c-.337-.257-.769-.386-1.297-.386-.357 0-.627.07-.812.21-.185.139-.277.339-.277.598 0 .225.065.402.198.528.132.126.35.189.653.189l.782.07c.462.039.818.159 1.065.36.248.201.372.518.372.952M263.258 52.069h-.505c-.402 0-.711-.122-.926-.366-.215-.244-.322-.558-.322-.941v-2.991h-.613v-.545h.613v-1.525h.713v1.525h1.04v.545h-1.04v2.971c0 .475.222.713.664.713h.376zM265.388 52.069h-.713v-4.872h.713zm.049-6.258h-.802v-.802h.802zM269.051 52.069h-.505c-.402 0-.711-.122-.926-.366-.215-.244-.322-.558-.322-.941v-2.991h-.613v-.545h.613v-1.525h.713v1.525h1.04v.545h-1.04v2.971c0 .475.222.713.664.713h.376zM274.25 52.069h-.713v-.544c-.349.402-.806.604-1.372.604-.533 0-.951-.152-1.254-.456-.329-.324-.493-.779-.493-1.367v-3.109h.713v3c0 .423.104.745.312.966.207.221.5.332.876.332s.674-.113.892-.337c.218-.224.326-.545.326-.961v-3h.713zM277.904 52.069h-.505c-.402 0-.711-.122-.926-.366-.215-.244-.322-.558-.322-.941v-2.991h-.613v-.545h.613v-1.525h.713v1.525h1.04v.545h-1.04v2.971c0 .475.222.713.664.713h.376zM282.342 49.287c0-.198-.009-.343-.025-.436a1.981 1.981 0 0 0-.124-.376 1.132 1.132 0 0 0-.446-.535 1.248 1.248 0 0 0-.693-.198c-.257 0-.486.066-.688.198a1.21 1.21 0 0 0-.451.535 1.859 1.859 0 0 0-.114.376 2.548 2.548 0 0 0-.034.436zm.713.535h-3.288c0 .531.124.944.371 1.236.248.292.602.437 1.064.437.278 0 .509-.04.694-.121.184-.081.38-.222.585-.423l.484.425a2.736 2.736 0 0 1-.787.575c-.261.119-.593.178-.995.178-.667 0-1.182-.198-1.545-.594-.39-.429-.584-1.063-.584-1.901 0-.786.177-1.398.529-1.837.354-.439.844-.659 1.471-.659.627 0 1.117.21 1.471.629.353.419.53.995.53 1.728z"/></svg>