<svg xmlns="http://www.w3.org/2000/svg" xml:space="preserve" width="1083.4583" height="600" viewBox="0 0 1083.4582 599.99999"><defs><linearGradient id="a" x1="0" x2="1" y1="0" y2="0" gradientTransform="matrix(41.06777 0 0 -41.06777 584.016 610.776)" gradientUnits="userSpaceOnUse" spreadMethod="pad"><stop offset="0" style="stop-opacity:1;stop-color:#faa619"/><stop offset="0.252747" style="stop-opacity:1;stop-color:#f5821f"/><stop offset="0.752747" style="stop-opacity:1;stop-color:#e22a26"/><stop offset="1" style="stop-opacity:1;stop-color:#e22a26"/></linearGradient><linearGradient id="b" x1="0" x2="1" y1="0" y2="0" gradientTransform="matrix(31.10903 0 0 -31.10903 584.74 683.804)" gradientUnits="userSpaceOnUse" spreadMethod="pad"><stop offset="0" style="stop-opacity:1;stop-color:#faa619"/><stop offset="0.252747" style="stop-opacity:1;stop-color:#f5821f"/><stop offset="0.752747" style="stop-opacity:1;stop-color:#e22a26"/><stop offset="1" style="stop-opacity:1;stop-color:#e22a26"/></linearGradient><linearGradient id="c" x1="0" x2="1" y1="0" y2="0" gradientTransform="scale(133.40019 -133.40019) rotate(69.837 4.212 -1.718)" gradientUnits="userSpaceOnUse" spreadMethod="pad"><stop offset="0" style="stop-opacity:1;stop-color:#faa619"/><stop offset="0.252747" style="stop-opacity:1;stop-color:#f5821f"/><stop offset="0.752747" style="stop-opacity:1;stop-color:#e22a26"/><stop offset="1" style="stop-opacity:1;stop-color:#e22a26"/></linearGradient><linearGradient id="d" x1="0" x2="1" y1="0" y2="0" gradientTransform="scale(133.39617 -133.39617) rotate(69.837 4.228 -1.707)" gradientUnits="userSpaceOnUse" spreadMethod="pad"><stop offset="0" style="stop-opacity:1;stop-color:#faa619"/><stop offset="0.252747" style="stop-opacity:1;stop-color:#f5821f"/><stop offset="0.752747" style="stop-opacity:1;stop-color:#e22a26"/><stop offset="1" style="stop-opacity:1;stop-color:#e22a26"/></linearGradient><radialGradient id="e" cx="0" cy="0" r="1" fx="0" fy="0" gradientTransform="matrix(58.47146 0 0 -58.47146 135.33 715.527)" gradientUnits="userSpaceOnUse" spreadMethod="pad"><stop offset="0" style="stop-opacity:1;stop-color:#faa619"/><stop offset="0.252747" style="stop-opacity:1;stop-color:#f5821f"/><stop offset="0.752747" style="stop-opacity:1;stop-color:#e22a26"/><stop offset="1" style="stop-opacity:1;stop-color:#e22a26"/></radialGradient></defs><path d="M587.94 663.344c-2.043 0-3.925-1.258-3.925-3.774v-9.007c0-.499.435-.867 1.15-.836 3.508.135 13.787-1.226 13.787-21.69v-69.829h20.377c3.86 0 5.755 2.736 5.755 5.863v63.967c-.009 19.501-15.79 35.297-35.301 35.306z" style="fill:url(#a);stroke:none;stroke-width:4.4924" transform="matrix(1.7051 0 0 -1.7051 -171.051 1248.942)"/><path d="M590.358 694.561c-8.235-7.61-4.987-24.542-4.987-24.542s16.622-4.573 24.861 3.024c8.23 7.619 4.982 24.537 4.982 24.537s-4.964 1.375-10.813 1.37c-4.847 0-10.305-.938-14.043-4.389" style="fill:url(#b);stroke:none;stroke-width:4.4924" transform="matrix(1.7051 0 0 -1.7051 -171.051 1248.942)"/><path d="M486.035 558.379h57.458c26.491.26 38.302 9.479 38.473 28.953-.108 15.692-8.895 25.117-28.222 29.452l-33.158 7.08c-7.71 1.573-12.65 5.22-12.66 10.998-.045 3.1 1.1 5.849 3.401 7.543 2.282 1.707 5.368 2.403 9.196 2.412h50.607c5.274.26 6.824 1.806 7.084 7.067v10.615c0 .35-.044.562-.08.66-.027.01-.09.01-.153.01h-58.797c-24.636-.266-35.602-9.578-35.809-29.628.09-14.564 8.99-23.648 28.684-28.127l33.797-7.507c7.29-1.478 12.04-4.937 12.048-10.458 0-.211-.009-.431-.036-.66.14-.683.216-1.344.225-2.008.045-2.606-1.307-4.978-3.594-6.24-2.255-1.29-5.23-1.793-9.012-1.806h-52.61c-5.818-.27-7.494-1.87-7.74-6.851V559.25c.25-1.123-.243-.61.898-.871M455.491 596.3c.01-8.148-1.325-13.679-5.925-16.931-4.56-3.136-11.209-3.702-21.41-3.733-10.342.031-16.95.943-21.344 4.299-4.42 3.468-5.602 9.003-5.593 16.63 0 1.146.036 3.869.036 5.266-.1 8.082 3.135 13.14 8.275 15.494 5.044 2.359 11.5 2.48 18.625 2.507 7.538-.027 14.115-.148 19.21-2.655 5.18-2.53 8.22-7.844 8.126-16.406zm10.98 35.217c-8.352 5.256-21.177 6.698-38.316 6.685-17.017.013-29.726-1.43-38.006-6.685-8.252-5.198-12.79-14.192-13.445-30.823a77.537 77.537 0 0 1-.054-3.036c0-.526 0-.98.018-1.312.49-17.682 4.995-27.26 13.225-32.745 8.289-5.517 21.065-7.009 38.262-6.995 17.359-.014 30.279 1.5 38.621 7.067 8.311 5.52 12.826 15.17 13.284 32.906 0 .288.018.67.018 1.079 0 .956-.018 2.17-.054 3.045-.664 16.622-5.238 25.598-13.553 30.814M297.788 644.136h28.733c6.056 0 11.092-.445 14.933-2.503 3.89-2.035 6.137-6.047 6.056-11.613v-2.686c.063-5.337-1.833-9.403-5.634-11.572-3.715-2.18-8.773-2.75-15.355-2.768h-28.733zm0-49.952h34.924c27.56.27 40.018 10.957 40.234 33.828-.23 23.352-12.696 34.237-40.234 34.493h-51.95c-4.825-.256-6.15-1.595-6.425-6.41v-97.71h.018l16.357-.005c5.355.265 6.838 1.689 7.076 6.415zM660.089 645.693l28.482.004c6.649-.013 11.783-.916 15.467-2.965 3.706-2.017 5.818-5.562 5.764-9.744v-43.707c.027-3.814-1.757-7.133-4.86-9.258-3.438-2.507-10.468-2.826-16.371-2.938h-28.482zm-23.194-80.706c.215-4.412 1.518-6.433 6.325-6.622l18.625-.148h32.835c37.997.3 39.956 19.663 40.261 30.104 0 2.129-.107 3.836-.125 5.027.018 16.37.08 30.027.071 36.703-.184 22.632-12.641 33.22-40.207 33.495h-51.029c-5.148-.274-6.523-1.613-6.756-6.123z" style="fill:#6d6f71;fill-opacity:1;fill-rule:nonzero;stroke:none;stroke-width:4.4924" transform="matrix(1.7051 0 0 -1.7051 -171.051 1248.942)"/><path d="M183.939 683.07c-2.637-6.582.566-14.057 7.143-16.698 13.055-5.248 23.59-16.03 27.902-30.495a47.572 47.572 0 0 0 1.981-13.553c-.009-20.418-13.338-39.363-33.962-45.482a47.792 47.792 0 0 0-13.554-1.976c-20.427.013-39.367 13.342-45.476 33.953a47.225 47.225 0 0 0-1.968 13.496c-.01 9.833 3.109 19.37 8.661 27.282 4.075 5.804 2.669 13.805-3.135 17.884-5.81 4.075-13.815 2.664-17.885-3.14-8.522-12.134-13.32-26.775-13.329-42.026 0-6.9.989-13.904 3.042-20.814 9.474-31.766 38.527-52.323 70.09-52.314 6.91 0 13.94.97 20.88 3.042 31.767 9.483 52.328 38.535 52.32 70.095a73.11 73.11 0 0 1-3.05 20.871c-6.627 22.274-23.007 39.048-42.962 47.022-1.563.625-3.18.921-4.766.921-5.095 0-9.92-3.05-11.932-8.068" style="fill:url(#c);stroke:none;stroke-width:4.4924" transform="matrix(1.7051 0 0 -1.7051 -171.051 1248.942)"/><path d="M209.685 654.894c-.265-.41-.211-1.002-.494-1.398l.031-.12.126.035.027-.117c.202.014.409.032.62.045l.027-.112.238.063.031-.117.23.072c.067-.072.125-.14.188-.207l.346.103c-.058.638.153.998.04 1.645-.355.049-.93.098-1.217.287-.216-.135-.103-.013-.193-.18m13.41-2.902.026-.116c-.202-.14-.314-.072-.422.005-.094.062-.189.13-.337.027l.027-.117c-.355-.198-.26-.355-.445-.62l.027-.126.117.036c.288-.193 1.006-.306 1.456-.22l-.04.112.116.031c-.09.522.054.638-.099 1.231-.256-.103-.287-.112-.426-.242m-21.586-1.16c.053-.565-.113-1.001-.23-1.455l.072-.229c-.328-.508-.642-1.02-.961-1.536l.036-.113-.23-.062.064-.234 1.289.36c.764-.055 2.435-.418 2.821-1.092l.117.031c-.126.728-.243 1.451-.36 2.165l.117.036-.067.238.117.027-.099.355c.067.054.135.126.198.176a2.5 2.5 0 0 1 .125.92c-.35-.098-.57-.157-.844-.112l-.036.117-.62-.045-.027.117-.242-.072c-.059.072-.113.14-.18.202l-.234-.063-.027.113c-.247.103-.418.157-.705.157h-.094m12.718-2.723c-.216-.345.004-.314-.059-.646a2.535 2.535 0 0 1-.206-.185l.071-.224-.125-.045.076-.225c-.103-.117-.198-.229-.287-.337-.01-.126-.014-.256-.018-.382l-.167-.3-.238-.063c-.099-.234-.202-.481-.3-.72.53.073 1.055.14 1.585.19l.027-.108.234.067.031-.121.355.103c.054-.058.121-.13.18-.198l.238.068c.05-.077.117-.14.175-.211l.23.063c.116-.086.228-.185.336-.275l.09.149c.206.382-.068.525-.036.993l.117.035-.063.23.117.035-.13.463c.067.068.13.126.202.193l-.063.225c.112.454.251.265.112.916-.62-.152-1.078.014-1.518.185-.324.12-.634.242-.993.242zm-20.19-3.414-.112-.036.068-.229-.121-.031.062-.23a10.24 10.24 0 0 1-.283-.336l.059-.23-.103-.035c-.176-.373-.445-.674-.445-1.123 1.81.359 3.652-.638 4.55-1.878l.162-.58.126.032c.157-.71.315-1.416.472-2.13l-.117-.04.076-.23-.125-.04c.022-.193.031-.413.049-.61-.067-.064-.135-.117-.202-.185l.058-.229c-.058-.054-.13-.126-.193-.18l.058-.238c-.12-.153-.238-.328-.363-.48l.031-.113-.234-.076c-.009-.081-.03-.166-.049-.252-.103-.08-.211-.148-.314-.224l.04-.117-.247-.063.04-.117c-.148-.08-.292-.166-.444-.242l.044-.122-.471-.139.036-.108-.598-.162.045-.125c-.485-.086-.961-.185-1.433-.27l-.036.117c-.287-.036-.566-.076-.844-.112-.059.062-.122.134-.185.197l-.36-.094c-.053.067-.116.126-.17.193l-.233-.067c-.059.067-.122.139-.198.206-.328.158-.665.31-1.006.472.413-1.348.161-2.138-.144-3.06l.067-.242c-.323-.507-.633-1.024-.957-1.518l.117.027.036-.117.818.229.027-.112.471.126.036-.113c.202.01.41.032.611.04l.032-.116.242.076.027-.126.23.068c.166-.121.323-.247.48-.364.288-.14.57-.26.867-.39l.063-.235.274-.053c.22-.203 1.271-1.788 1.262-2.287l-.112-.027.126-.472-.108-.027.166-.593-.116-.027c-.014-.256-.036-.512-.036-.768l-.117-.027.058-.233c-.121-.158-.238-.328-.36-.477-.008-.139-.017-.265-.026-.395l-.315-.207c-.044-.139-.09-.278-.13-.422l-.242-.067.04-.117-.234-.058.027-.117-.341-.108c-.023-.081-.04-.17-.054-.256l-.584-.166.027-.113c-.71-.166-1.424-.323-2.13-.485l-.03.121-.23-.067-.04.121-.35-.098c-.064.053-.127.13-.185.197l-.234-.067c-.058.067-.12.144-.17.197l-.243-.053a1.112 1.112 0 0 0-.175.202c-.243.09-.485.188-.714.292l-.068.233c-.094.023-.18.04-.27.054l-.062.234c-.09.013-.184.031-.274.05l-.31.664c-1.2 1.658-.777 4.048.355 5.014l-.032.125a56.24 56.24 0 0 0-1.559-.319l-.018.113-.593-.162c-.067.063-.12.14-.188.198a9.776 9.776 0 0 1-.607-.05c-.063.077-.121.144-.175.211l-.238-.067c-.067.058-.126.13-.193.202l-.23-.072-.03.122c-.127.005-.257.009-.387.027-.031-.647-.054-1.294-.09-1.923l-.117-.04.068-.23a3.744 3.744 0 0 1-.198-.18l.063-.233-.112-.036c-.149-.328-.36-.57-.35-.98l1.787-.12.036-.122c.14-.004.256-.004.386-.013.059-.072.126-.144.18-.198l.234.054c.112-.09.21-.184.328-.283l.121.036.063-.234.418-.135c.08-.148.161-.283.247-.44.085-.009.18-.031.265-.045.103-.229.211-.44.314-.665 1.56-2.147.436-4.797-.975-5.939l-.35-.103c-.35-.256-1.28-.84-2.03-.822l-.036.117-.468-.135-.031.121-.234-.072-.036.117-.35-.094-.036.121-.22-.067-.04.112-.234-.063c-.058.063-.126.13-.184.202l-.234-.071c-.206.161-.422.3-.629.462-.134.036-.274.086-.418.126l-.062.243c-.095.009-.18.027-.27.04l-.063.234-.117-.023-.063.225-.116-.032-.108.35c-.301.41-.993 1.232-.962 2.112l.113.045-.13.463.12.031-.103.342.122.04-.108.346c.072.067.14.135.202.189 0 .166-.009.332-.009.498l.112.032c.117.27.167.449.158.8-.764-.216-1.636-.257-2.238-.122-.422.09-.462.287-1.064.207a9.43 9.43 0 0 0 .045-.616l-.113-.045.104-.341c-.077-.063-.14-.121-.207-.18l.067-.234-.116-.031.071-.234c-.098-.112-.193-.224-.292-.332l.072-.23-.125-.035c-.108-.256-.18-.36-.18-.683 1.6.162 3.198-.728 4.061-1.887l.162-.58.117.023.49-1.738-.118-.045.126-.463-.117-.027.063-.238-.112-.027.099-.355c-.059-.058-.14-.121-.202-.184.009-.162.013-.328.013-.49l-.121-.044c-.108-.252-.175-.346-.18-.674l-.238-.068.067-.233c-.404-.243-.476-.593-.768-.84l-.35-.113c-.01-.08-.036-.17-.05-.265l-.58-.157.028-.121-1.361-.508-.036.121-.467-.134-.036.116-.575-.166-.193.207-.346-.104a7.791 7.791 0 0 1-.176.198c-.17 0-.341 0-.512-.009l-.031.117c-.247.103-.346.184-.665.184-.193.283-.297.324-.526.476l-.117-.018c-.08.144-.161.283-.247.427-.09.018-.184.032-.265.05l-.094.35-.121-.023-.068.225-.125-.022-.126.449-.113-.032c-.525.85-.494 2.943-.336 3.437l.125.036c.104.274.162.44.144.79-.647-.175-1.482-.161-1.99-.053l-.04.117-.23-.063-.04.116-.23-.067a5.344 5.344 0 0 0-.327.288c-.14 0-.256.013-.386.013l.027-.112c-.194-.306.013-.306-.063-.652-.072-.063-.135-.125-.203-.175l.095-.364a8.368 8.368 0 0 0-.193-.175l.058-.23c-.094-.111-.184-.224-.283-.336-.18-.386-.368-.773-.553-1.164a3.555 3.555 0 0 1-.314-.215l.067-.238c1.573.48 2.628.188 3.545-.512.189-.077.377-.149.557-.216.144-.207.283-.431.431-.633l.13.03.059-.233.121.036.126-.476c1.366-2.075.184-4.618-1.074-5.584l-.462-.126.035-.126-.354-.094.026-.117c-.354-.229-1.496-.386-1.779-.373l-.031.113-.467-.126-.036.117c-.256.009-.508.022-.764.04a2.54 2.54 0 0 0-.18.198l-.233-.072c-.216.153-.422.305-.643.454-.125.045-.27.09-.404.139l-.076.225c-.081.022-.171.035-.26.049-.082.153-.167.296-.243.431l-.122-.022-.067.22-.112-.023c-1.28 1.685-.859 4.425.256 5.36l-.032.117c-1.428-.423-2.803-.292-3.796.076-.063.058-.126.126-.193.193-.337.175-.692.44-1.123.44.427-1.478-.045-2.376-.584-3.306-.04-.153-.09-.279-.135-.436l-.234-.05-.045-.273a8.362 8.362 0 0 1-.435-.247c-.018-.081-.032-.175-.045-.265l-.48-.126.04-.121-.355-.095.04-.117-1.986-.561-.04.112-.341-.09-.027.113-.364-.095-.027.117-.234-.072-.036.117-.229-.063c-.058.063-.121.135-.184.198l-.234-.063c-.058.063-.125.13-.188.202l-.23-.063c-.058.063-.12.13-.184.193-.184.077-.372.149-.561.225l-.063.225c-.094.013-.18.04-.274.058-.063.103-.144.207-.202.32l-.121-.037c-.333.337-1.353 2.04-1.326 2.893l.122.04-.104.36.117.036-.126.458.122.032-.077.238.117.031-.063.23c.063.058.144.13.198.175.103.318.134.575.13.925-.288-.045-.575-.076-.854-.121l-.031.12-.472-.13c-.067.064-.121.135-.175.194-.216-.004-.418-.023-.62-.036-.058.067-.121.126-.184.202l-.238-.076c-.059.076-.117.139-.184.206l-.23-.067-.03.121c-.127.045-.28.081-.414.13.126-1.212-.602-3.158-1.6-3.724l.068-.233c.593.126 1.195.242 1.783.373l.036-.108.23.054.035-.113.346.1.036-.109c.126-.009.252-.018.386-.022.054-.068.113-.14.176-.193l.229.054c.067-.054.13-.13.188-.194.19-.072.378-.148.566-.215l.068-.243c.09-.018.17-.031.26-.058l.072-.22c.09-.023.167-.045.256-.054l.113-.355.108.036.067-.23.117.032.126-.467.12.022c.392-.615.486-2.26.37-2.664a3.41 3.41 0 0 1-.198-.18l.098-.345c-.175-.26-.364-.517-.534-.782-.072-.189-.144-.377-.22-.566l-.35-.09c-.019-.099-.028-.189-.055-.283l-.229-.058.023-.122-.777-.337.035-.112c-.894-.566-2.82-.373-3.346-.202a9.075 9.075 0 0 1-.634.458c-.094.018-.18.032-.27.054l-.053.234a1.6 1.6 0 0 1-.27.045l-.072.238c-.09.013-.18.036-.27.054l-.094.346-.116-.032-.068.234-.117-.036c-1.195 1.604-.525 4.443.584 5.076l-.058.234c-1.465-.436-2.556-.557-3.58-.252-.063.068-.122.14-.18.202l-.238-.063c-.068.063-.122.13-.184.203l-1.016.467c.05-.485.113-.975.162-1.465-.067-.063-.135-.126-.202-.18l.103-.35c-.067-.063-.14-.121-.202-.184.004-.166.009-.332.018-.512a4.85 4.85 0 0 1-.287-.32l-.387-.857-.238-.077c-.018-.08-.027-.17-.05-.265l-.233-.067.036-.112c-.144-.081-.288-.162-.431-.247l.022-.122-.458-.13.04-.112-.359-.1.036-.111-1.635-.468-.036.122-.854-.122a1.595 1.595 0 0 1-.18.203l-.34-.108c-.064.08-.136.143-.194.21l-.23-.062-.327.292-.243-.076c-.058.076-.121.139-.17.206-.387.193-.724.288-.97.737l-.109-.036c.63-2.084.355-3.392-.606-4.573-.018-.09-.04-.184-.045-.274-.108-.072-.225-.135-.328-.202l.032-.13a6.455 6.455 0 0 1-.31-.216l.053-.234c2.21 1.114 4.556-.067 5.616-1.563l.26-.948.122.05c.099-.522.202-1.043.296-1.555l-.098-.04.053-.225-.116-.036.103-.355a7.451 7.451 0 0 1-.211-.18c.018-.161.018-.328.022-.49-.067-.067-.134-.125-.197-.184l.058-.238a6.132 6.132 0 0 0-.368-.476c-.014-.094-.032-.175-.05-.274l-.229-.067c-.04-.135-.099-.274-.14-.414l-.228-.067.031-.112-.233-.063.027-.121c-.18-.086-.36-.19-.548-.283l.04-.117-.7-.198c-.167-.099-.648-.413-1.016-.409l-.04.126-.692-.211-.032.121-.355-.09-.036.117c-.251.004-.512.014-.772.027l-.036.121-.225-.072-.031.126c-.297.113-.454.265-.827.265l.027-.121-.117-.031.265-.93-.12-.04.066-.225-.116-.036.103-.35-.121-.041c-.01-.247-.027-.503-.036-.768l-.108-.014.067-.233-.125-.036c-.086-.216-.095-.256-.095-.54.189.019.4.037.607.06l.036-.127.355.104c.053-.072.116-.144.18-.207l.237.063.023-.117.229.067c.072-.067.117-.134.184-.193l.238.059.032-.113c.251-.107.355-.188.683-.188l.067-.234.229.063.072-.23.225.073c.035.629.062 1.262.09 1.91.076.062.134.116.201.183l-.053.23.444.642c.045.13.09.27.135.4l.234.071c.018.095.04.171.054.266l.229.062c.018.095.027.176.054.27l.35.099c.018.09.036.175.05.256.601.265 1.203.512 1.796.764l.04-.108.58.157.036-.117.584.162c.063-.067.117-.135.184-.202l.342.099.031-.113c.176 0 .342.014.512.014l.023-.113c.22-.08.26-.094.535-.094l.062-.242.234.067c.126-.126.234-.112.301-.17l.067-.234c.135-.045.279-.09.414-.13.085-.149.166-.297.247-.44l.121.035c.086-.153.162-.288.247-.422l.122.027.12-.485.131.049c.157-.463.333-.912.499-1.37l-.113-.027.162-.589-.117-.036c.027-.372.036-.74.063-1.118a2.4 2.4 0 0 0-.197-.175c0-.171.009-.337.009-.504a1.09 1.09 0 0 0-.203-.175l-.462-1.015c.943.252 1.82.117 2.529-.054l.234.072c.062-.072.12-.13.184-.207l.229.068c.067-.068.121-.135.18-.202l1.02-.468.067-.238c.13-.04.274-.08.413-.13l.094-.355.234.072-.454 1.63.117.037-.067.229.112.036c.027.377.036.763.058 1.15.1.108.194.215.283.328.135.283.26.566.387.867l.233.063.059.265c.139.09.283.175.431.251l-.032.121c.248.194 1.937.998 2.498.948l.032-.112.229.058.036-.107.35.098.036-.125c.157.009.333.009.499.022l.031-.112.23.063c.166-.126.327-.252.489-.369l.234.059.296-.166.068-.239c.08-.013.175-.018.26-.049l.072-.225c.08-.022.18-.035.265-.053l.099-.36c.085-.004.175-.027.265-.05l.13-.453.117.027c.314-.467.624-1.545.593-2.098l-.126-.031.135-.481c-.067-.045-.135-.117-.198-.175l.1-.346c-.068-.059-.136-.112-.203-.189l.067-.229a17.607 17.607 0 0 1-.453-.633c-.068-.189-.149-.373-.216-.562l-.234-.067c-.022-.095-.036-.18-.054-.274l-.35-.1c-.013-.085-.031-.17-.05-.26l-.471-.121.036-.135-.234-.063.036-.103-1.635-.463-.032.117-.35-.103-.031.126-.468-.14c-.067.063-.125.14-.188.202l-.346-.103c-.108.099-.225.193-.333.288l-.229-.068c-.067.068-.121.135-.188.207-.239.099-.472.198-.715.292l-.063.242c-.143.04-.278.086-.417.135.31-1.024.395-1.68.305-2.435l.099-.35a7.145 7.145 0 0 1-.198-.18l.099-.341a1.877 1.877 0 0 0-.202-.184 5.245 5.245 0 0 0-.023-.391l-.107-.023c-.01-.13-.018-.274-.023-.39.597-.01 1.173-.01 1.766-.01l.035-.112c.13-.018.256-.018.382-.027.063-.072.117-.126.171-.193l.238.067c.063-.062.117-.139.189-.202.229-.067.458-.13.678-.188-.198 1.985 1.033 3.513 2.637 4.528.387.23 1.815.494 2.13.467l.031-.126.238.068.032-.126.35.117.036-.117.233.054.027-.112.23.058c.067-.058.13-.117.188-.189l.23.072c.565-.355 1.122-.705 1.675-1.042l.072-.238.112.027.103-.346c.284-.364 1.137-1.361 1.115-2.192l-.108-.045c.054-.315.099-.638.144-.957l-.113-.036-.04-.768-.121-.032.071-.242-.116-.027.067-.238-.121-.014a4.309 4.309 0 0 0-.14-.427c.14-.018.261-.018.387-.022l.04-.112.58.157.027-.122.242.077.036-.117.346.09c.063-.058.117-.13.18-.202l.35.103c.059-.067.122-.14.184-.198.122-.004.261-.018.387-.018l.036-.125c.242-.104.35-.18.67-.18.152-.26.107-.207.336-.288l.023-.112.125.032-.036.121.117.036c-.031.27-.076.566-.108.84l.108.04-.05.234.109.031-.104.35c.072.064.135.113.202.185l-.058.234c.058.058.126.12.189.17l-.063.238c.072.054.14.117.206.185.09.242.207.476.297.71l.243.062c.009.09.031.189.04.265l.247.068c.018.103.023.18.045.274l.35.094-.04.121.238.068-.036.117.355.094-.036.117.701.202-.032.112c.477.292 1.254.211 1.582.198l.463.126.04-.113.234.063.031-.121.346.099c.067-.063.121-.14.18-.198l.247.058c.098-.085.22-.175.323-.274l.23.068.04-.117c.139-.054.278-.094.413-.14l.058-.228c.203-.077.382-.14.566-.225.22-.314.44-.638.652-.952l.117.036.098-.342.113.023.597-2.103-.121-.036c-.014-.355.121-.683.031-.993a7.809 7.809 0 0 1-.197-.175l.094-.36c-.094-.107-.193-.215-.283-.332-.004-.125-.014-.256-.014-.381.45.04.894.085 1.344.134l.036-.116.238.058.027-.108.36.094c.048-.071.102-.134.174-.197.126-.014.252-.023.382-.027l.032-.117.229.067c.063-.067.13-.134.188-.206.126 0 .252 0 .382-.01l-.04.109.121.035c-.018.212-.031.418-.045.616l.121.04-.067.234.117.036-.072.224.121.032-.067.233c.094.117.184.23.283.328l-.063.247c.063.054.135.113.207.167.283.561.691 1.293 1.298 1.63l-.036.126-1.748-.494-.035.112-.23-.067-.031.121-.36-.094-.026.112c-.162 0-.328-.009-.494-.009-.068.059-.13.126-.19.193l-.233-.062c-.054.062-.121.13-.18.206-.282.121-.566.256-.858.387-.085.134-.17.283-.251.422l-.27.054-.134.471-.108-.04-.077.238-.112-.031-.557 1.985.126.027-.077.238.122.023-.045.624.112.036-.063.23c.086.112.184.22.279.336l-.063.23.117.035c.04.144.09.27.13.414l.238.067c.045.14.085.278.13.409.149.094.297.184.432.251l-.027.126.238.054-.036.121c.346.149.674.27 1.02.414 1.895 1.145 5.058-.638 5.166-2.71l.265-.925-.117-.04.063-.234-.117-.031.099-.342-.126-.035.077-.234c-.27-.54-.54-1.074-.805-1.613l-.238-.067.032-.122c-.207-.229-.166.005-.283-.323l2.21.62.04-.112.225.058.036-.108.476.13.032-.12c.17.003.332.003.498.017l.027-.126.234.081a1.46 1.46 0 0 1 .189-.21l.233.071c.054-.072.126-.135.18-.207.355-.18.593-.381 1.092-.319l-.23.814.122.031-.063.234.112.036-.05.61.122.036-.063.238c.063.059.13.122.202.176l-.072.238.117.036c.09.206.099.251.108.525.31.198.382.405.566.66l-.031.122.233.067c.01.09.036.185.05.274l.355.095c.009.085.022.175.049.26l.463.135-.032.117.35.099-.035.117 1.98.552.032-.121.355.099.032-.1.467.122c.067-.072.126-.126.189-.193.161 0 .323.004.49.013.067-.071.12-.139.183-.206l.238.058c.504-.31 1.025-.633 1.528-.948l.094-.346.234.063c-.369 1.231-.562 2.152-.355 3.06l.117.022-.059.225c.122.166.238.328.369.48l-.068.243.117.031c.04.14.085.27.14.423l.228.063c.05.139.081.265.135.413l.238.063c.01.09.036.18.05.27l.346.09c.018.094.022.183.058.269.283.247 1.873.988 2.493.957l.036-.113c.238.023.48.045.733.081l.031-.117.23.068.035-.117.355.094c.054-.072.117-.139.18-.202l.233.063c.108-.094.22-.189.328-.278l.238.062.032-.112c.09-.022.175-.036.256-.05.36-.269.202-.422.754-.422-.494 1.636-.139 2.75.454 3.783.04.135.085.265.135.413l.23.059c.022.094.04.18.048.274.153.08.292.162.44.242.01.095.037.176.046.27l.355.094-.036.117.238.067-.032.113c.683.242 1.37.471 2.062.714l.036-.121.584.161.036-.116.225.072.031-.122.355.1.036-.113.225.063.04-.122.234.072c.062-.072.12-.13.18-.202l.233.067c.162-.058 1.091-.768 1.2-.669l-.032.117c.157.35-.207 1.038-.157 1.469l.107.027-.067.238.121.036.04.76c.068.057.126.116.203.174l-.077.243.54.786.053.256.234.067c.018.081.036.176.054.266l.229.058c.018.094.032.193.058.278l.337.1c.018.08.036.179.063.255l.454.14-.027.116.35.1-.031.12 1.743.481.036-.117c.274.04.566.081.849.117l.036-.126c.256 0 .516-.018.759-.031l.04-.117.23.077c.112-.1.224-.198.336-.293l.234.068c.054-.018.494-.431.611-.337l-.05.112c.216.427-.13.724-.094 1.236l.122.036-.063.238.112.031-.103.35c.21.598.422 1.2.629 1.81.247.414.584.432.584 1.039l-1.173-.328-.027.126-.233-.068-.032.117c-.202-.023-.413-.027-.62-.05-.058.068-.121.135-.175.203l-.234-.068c-.053.068-.12.14-.184.207l-.233-.067c-.162.125-.324.247-.481.363l-.121-.027-.063.225c-.09.023-.184.04-.265.058l-.068.225c-.094.023-.17.04-.27.058-.089.19-.188.36-.273.549l-.117-.032-.067.234-.117-.036-.238.822-.108-.031-.17.575.12.035-.229.823.122.04-.104.332.122.036c.009.265.018.508.031.773l.112.032-.063.229.535.79c.054.126.099.27.144.405l.229.072c.009.08.031.17.05.26l.345.099c.014.094.04.18.054.265.256.121.526.243.782.36 1.006.642 2.525.583 3.315.291.265-.184.521-.355.786-.53.14-.04.274-.094.414-.139l.076-.234c.076-.013.166-.031.26-.054l.063-.233.117.031.059-.22.116.018.104-.346c.215-.3.773-1.172.759-1.801l-.112-.04.121-.459-.108-.04.095-.342-.122-.031.072-.243-.121-.022.099-.36c-.1-.098-.185-.215-.288-.319l.068-.224c-.068-.072-.13-.13-.194-.198-.134-.287-.26-.575-.39-.862a5.597 5.597 0 0 0 1.958.175l.36.094c.062-.067.12-.135.18-.202l.35.094.036-.103c.103-.045.705-.22.804-.162l-.036.117.117.031-.081.737.112.036c.014.252.018.508.04.768l.113.032-.063.233c.09.113.189.22.283.324l-.072.242c.13.158.252.32.373.481l-.032.108c-.471.031-.943.072-1.42.112a3.572 3.572 0 0 1-.179.198l-.234-.067-.026.12c-.216.095-.261.104-.535.104l-.058.234-.243-.068c-.148.238-.18.265-.36.4l-.12-.027-.073.23c-.085.017-.175.03-.251.053l-.081.225-.112-.036-.248.45-.112-.037-.103.342-.121-.036-.153.593-.117-.036c-.377.597-.328 1.523-.296 1.94-.032.239-.059.486-.081.724.107.714.52 1.294.858 1.882.045.14.085.274.13.409l.234.067-.036.126.242.059-.036.112c.216.148.427.287.638.436.306.26 1.294.957 2.004.939l.022-.117.355.099.036-.113.58.166.036-.12c.251-.01.507-.023.763-.041l.04-.108.234.058c.104-.09.216-.188.328-.283l.23.063.03-.112c.145-.045.284-.09.419-.144l-.063.238c.17.328-.072.598-.036.998l.121.035-.067.243.13.031-.108.346.113.027-.059.238c.068.054.135.126.193.18l-.063.23c.063.062.135.12.203.188l-.068.238c.063.054.13.108.198.18.13.283.26.57.382.867l.233.063-.143.085-.027.112-.701-.197-.036.12-.472-.134-.036.117c-.247.018-.507.018-.759.036l-.032.117-.238-.063c-.103.09-.215.197-.332.283l-.234-.063c-.157.112-.314.242-.476.373l-.117-.032-.067.22c-.135.045-.279.095-.418.144l-.063.234-.117-.032c-.139.207-.292.418-.43.625l-.118-.027-.125.467-.117-.036-.198.701-.121-.036-.198.706.117.035-.198.697.117.036-.126.462.122.036c.004.252.018.512.031.76l.112.035-.058.238.117.032c.08.216.094.252.094.526l.234.058-.063.243c.449.43.728.916 1.258 1.352l-.036.126-.818-.23c-.22-.341-1.986-.372-2.318-.278-.054.076-.117.14-.175.207-.166 0-.337-.014-.512-.014-.1.085-.216.189-.324.283-.242.099-.476.207-.714.301l-.067.23c-.095.017-.176.035-.261.053-.153.216-.292.427-.436.643l-.112-.036c-.108.22-.216.44-.32.665l-.111-.032-.463 1.635.121.027-.108.35.126.036-.126.468c.059.063.126.121.19.188l-.1.346c.077.054.135.122.202.18l-.062.234.116.027c.09.215.1.26.104.539l.229.058-.068.243c.238.134.27.18.4.359l-.022.112.22.072c.027.09.04.175.063.265.292.283 1.994 1.335 2.785 1.29l.027-.113.234.063.035-.112.463.13.036-.126c.166.01.332.01.494.018l.032-.116.242.062c.054-.062.122-.13.18-.202l.234.063c.363-.117.314-.373.862-.382l-.26.94.116.03-.063.234.113.036-.166.575c.071.072.143.117.202.189l-.095.341c.068.068.13.122.198.193l-.067.23.121.035-.067.234.112.036c.072.184.022.22-.01.49-.426.018-.84.022-1.257.022-.067.068-.126.135-.193.202l-.238-.067c-.054.067-.117.135-.171.198l-.238-.063-.036.112c-.382.18-.566.39-1.092.323.44-2.205-1.612-5.04-4.303-4.851l-.468-.13-.031.107-.346-.099-.04.122-.234-.063-.036.117-.229-.068c-.058.068-.121.135-.18.202l-.233-.067c-.113.09-.22.189-.333.283-.287.135-.566.265-.853.386-.086.135-.18.283-.256.436l-.27.05-.094.34-.121-.017-.063.225-.117-.027-.126.462c-.503.755-.606 1.092-.566 1.981l-.126.472.113.036.04.773.112.022-.063.225c.09.121.18.224.288.332l-.067.243.112.031c.072.193.144.378.224.566l.23.068c.044.134.094.274.13.417-.921-.283-1.559-.233-2.233-.13l-.346-.099a7.265 7.265 0 0 0-.18.203l-.233-.063-.036.107-.23-.062-.04.12c-.125 0-.247.005-.372.019l-.068.224-.238-.058c-.112.085-.22.184-.323.283l-.126-.036-.063.247-.117-.045c-.206.135-.108.149-.418.14l.328-1.173-.116-.031.062-.23-.116-.03.134-.468c-.063-.063-.139-.126-.202-.18l.099-.355c-.063-.067-.13-.121-.198-.184l.068-.229c-.153-.216-.306-.427-.454-.638-.072-.184-.144-.373-.225-.561l-.233-.063a1.793 1.793 0 0 0-.05-.27l-.435-.247.04-.117-.36-.094.041-.126-.35-.085.031-.122-2.102-.593-.032.113-.35-.099-.032.117-.229-.068-.04.126-.346-.103c-.063.063-.121.135-.189.206l-.229-.062-.031.116c-.13 0-.256.004-.382.014l-.063.233-.234-.076c-.116.103-.229.198-.332.292l-.121-.036-.068.238a5.312 5.312 0 0 1-.26.05l-.072.233-.256.054-.104.346-.12-.027-.068.23-.108-.032c-.418.512-.917 2.264-.822 2.92l.112.031-.058.234.112.031-.099.346c.063.063.135.13.202.184l-.067.225c.126.17.247.328.368.49l-.063.238c.158.364.418.099.418.741-1.85-.561-2.758-.198-4.065.126-.036-.48-.072-.953-.104-1.424m9.223-7.732c.148.202.306.427.454.634.018.09.036.17.05.26l.242.077c.013.076.031.166.045.265l.552.283c.306.265 1.308.849 2.031.822l.036-.121.355.098.022-.12.243.067.031-.117.225.072.036-.122.233.072c.059-.072.126-.135.19-.202l.233.067.036-.12c.18-.073.373-.145.557-.221l.063-.23c.139-.044.287-.089.422-.138l.094-.35c.09-.014.184-.046.265-.05l.135-.467c.184-.26.642-.75.624-1.335l-.116-.022.103-.36-.121-.035.13-.463-.112-.036.067-.23-.117-.035.063-.238c-.067-.054-.13-.126-.211-.175l.076-.238a9.324 9.324 0 0 1-.283-.333l-.305-.71-.234-.067.036-.117c-.588-.58-1.334-.907-2.44-1.195l-.03.117-.728-.076-.036.112-.238-.059c-.054.063-.122.14-.18.194l-.238-.054c-.099.08-.216.18-.324.283-.13 0-.26.009-.386.009l-.072.233c-.135.05-.278.1-.409.14-.085.143-.17.287-.247.435-.094.01-.18.032-.27.054l-.13.454-.12-.027-.095.35-.117-.027c-.508.773-.256 2.507-.09 2.992m-4.277-2.713.04-.112.347.098c.584-.085 1.1-.413 1.58-.687.136-.045.275-.099.419-.144.08-.134.161-.287.247-.43.09-.019.18-.032.265-.05l.13-.472.117.04.072-.229.112.027.458-1.635-.112-.027.063-.238-.121-.032.13-.467a1.559 1.559 0 0 0-.202-.18l.072-.242c-.072-.054-.126-.117-.202-.18l.062-.233c-.062-.063-.13-.113-.193-.18-.103-.238-.197-.476-.305-.719l-.23-.058a2.465 2.465 0 0 1-.053-.274l-.23-.063.023-.108-.346-.112.032-.113-.234-.063.04-.116-1.99-.553-.035.108-.23-.063-.035.121-.346-.103-.036.121-.238-.067c-.059.054-.113.121-.18.198l-.23-.068c-.058.068-.12.13-.183.202-.288.13-.566.26-.863.391-.085.144-.166.288-.252.436-.09.004-.175.036-.265.05-.534.565-.974 2.264-.844 3.036.045.364.31.602.31 1.087l.238.077-.072.224c.252.153.265.185.404.364l-.031.13c.211.135.427.28.638.423l-.036.117c.346.139.67.27 1.02.408l-.036.122.58.157.035-.108zm13.064-2.996c.059-.072.122-.135.184-.207l.355.108c.054-.072.117-.14.176-.202.381-.13.512-.01.745-.427l.243.067c.283-.516 1.213-1.177 1.195-2.053l-.108-.027.126-.476c-.023-.377-.193-.741-.175-1.173l-.225-.067.058-.238c-.085-.112-.188-.216-.283-.328l.032-.112-.225-.072c-.022-.09-.04-.18-.054-.265l-.355-.1c-.013-.084-.031-.17-.049-.264l-.58-.157.027-.126c-.548-.112-1.105-.225-1.666-.342-.059.077-.113.13-.175.198-.108.027-.185.005-.256-.009-.081-.022-.153-.045-.248.004a4.087 4.087 0 0 0-.18.202l-.233-.076-.292.166-.08.234c-.131.05-.27.085-.405.139-.085.144-.17.287-.26.431l-.108-.031-.1.355-.116-.036c-1.01 1.496-.108 3.998 1.402 4.416.085.166.682.418 1.006.418l.04-.117zm-10.858-7.961c.22.265.05.099.14.418l.112.022-.059.238.113.032c.067.18.148.377.215.557l.238.076c.018.086.032.176.05.26.184.095.368.185.539.293l-.023.112.36.095-.04.116c.4.252 1.868.171 2.115.086.207-.144.418-.288.634-.45.085-.022.17-.03.26-.044l.072-.234.112.031.063-.233.122.031.098-.35.113.036.161-.589.126.04c.086-.193-.058-.233-.058-.269l.162-.584c-.045-.755-.522-1.882-1.106-2.327l-1.491-.548c-.202.13-.732.112-1.029.094l-.777.535c-.08.009-.17.031-.27.045l-.067.238-.108-.036-.067.229-.113-.027c-.435.58-.44 1.433-.597 2.107m12.39-1.056.225.068-.054.224c.39.247.62.67.993.917l.593.175-.04.108c.754.454 1.882.265 2.344.153l.238.067c.975-.292 2.579-1.514 2.588-2.92l.238-.813-.126-.036.063-.243-.117-.031.104-.35-.202-.176c.004-.17.009-.337.009-.494a12.53 12.53 0 0 0-.45-.638l-.054-.26-.224-.072a1.51 1.51 0 0 1-.05-.265l-.238-.068.036-.116-.35-.104.031-.112-.238-.063.036-.121-1.478-.54-.04.117-.697-.202-.036.122-.233-.068-.032.117c-.251.009-.507.027-.763.04a4.02 4.02 0 0 0-.328.283l-.234-.063-.31.158-.063.238c-.14.05-.283.094-.409.135l-.067.238-.121-.036-.059.229-.121-.027-.103.35-.117-.036-.094.355-.117-.031c-.67 1.029-.333 3.414.067 3.792m-20.05-5.257c-.476 1.631.077 2.498 1.065 3.32l-.027.117.234.063-.031.117 1.752.485c1.58-.112 3.382-1.608 2.938-3.693 0-.17.009-.346.009-.512-.077-.054-.135-.112-.203-.18-.125-.292-.26-.575-.386-.867l-.233-.058.027-.108c-.194-.215-.252-.08-.396-.377-.418-.162-.835-.31-1.258-.48l-.022.12-.701-.197-.036.117-.238-.059c-.323.059-.548.234-.943.23l-.063.228-.234-.063c-.076.104-.144.216-.22.328l-.117-.04-.067.23a9.75 9.75 0 0 0-.26.058l-.1.35-.12-.036-.064.238-.126-.031zm16.02 1.222.027-.116c.26-.01.508-.023.769-.036.157-.113.319-.243.485-.369.085-.004.18-.031.26-.04.274-.225.391-.54.701-.692l.472-1.253-.112-.032.157-.588-.113-.032.014-.498c-.067-.063-.13-.113-.202-.189l.067-.225c-.067-.058-.13-.12-.202-.18-.076-.192-.135-.377-.216-.565-.139-.081-.287-.162-.435-.247-.014-.09-.027-.18-.045-.279l-.467-.121c-.162-.252-.85-.373-1.258-.476l-.027.112-.472-.13-.023.12c-.57-.026-1.356.437-1.738.774-.189.17-.063.256-.36.4-.161.417-.318.83-.476 1.248l.108.032-.153.588.104.032-.054.233.108.036-.063.234a6.5 6.5 0 0 1 .202.18l-.068.229c.122.161.248.323.373.485.014.094.032.18.05.265.135.085.292.166.431.247l-.031.117.233.067-.031.117.458.13c.162.094.651.422 1.015.413l.036-.116zm-22.893-7.69c-.094.004-.18.026-.27.049l-.103.355c-.615.826-.395 1.217-.62 2.214.225.261.04.113.14.418l.107.032-.058.224c.072.068.135.126.198.18.099.247.206.485.31.723.143.081.283.167.426.252.023.085.04.166.054.26l.463.13-.027.118.575.166-.022.112c.395.243 1.833.189 2.116.094l.027-.12c.256-.109.346-.185.678-.185.148-.243.184-.252.364-.404l.117.035c.08-.143.166-.287.242-.435l.122.036.103-.346.117.036.058-.234.126.027c.242-.35.292-1.186.27-1.433.026-.243.058-.49.085-.741-.063-.063-.135-.104-.202-.176l.067-.229c-.072-.063-.135-.125-.198-.188l.059-.23-.113-.03c-.049-.14-.094-.284-.139-.414l-.233-.072a2.431 2.431 0 0 0-.054-.26l-.23-.068c-.017-.09-.026-.18-.049-.27-.22-.107-.445-.202-.665-.319l.027-.112-1.392-.395-.036.121-.238-.067-.032.112-.341-.094-.032.117-.242-.068-.032.121-.233-.067-.036.121c-.211.081-.247.1-.526.095-.17.296-.292.314-.521.485l-.112-.036zm13.805-2.543c-.382.197-.624.683-.992.853l-.405 1.402.122.027c0 .166-.01.337-.014.508.067.058.135.125.202.17.01.14.01.265.014.391l.233.067-.063.23c.212.152.427.283.638.43l-.031.127 1.514.422c.36-.108.732-.22 1.105-.328.314-.193.503-.607.84-.773.67-2.165.13-3.28-2.067-3.85-.314.207-.759.149-1.096.324m-20.61-3.275c-.562.292-1.088.44-1.362 1.249-.377.224-.629 1.478-.562 1.985l.122.04c-.01.162-.014.333-.018.5.067.062.143.107.202.18l-.059.233c.122.152.243.323.364.476l-.036.117.239.067c.013.09.035.184.049.27l.238.067-.045.121c.373.346.903.503 1.581.679l.584.17.027-.112.346.094.032-.12c.166.008.341.013.503.017.058-.067.126-.13.184-.193l.23.058c.157-.125.327-.247.48-.364.09-.022.175-.04.274-.058a5.11 5.11 0 0 1 .247-.431c.086-.014.175-.036.265-.05.108-.224.207-.444.306-.674.134-.175.516-.835.485-1.244l-.121-.031c.031-.252.058-.499.08-.737-.292-.341-.26-.948-.516-1.28l-.238-.059.036-.121c-.108-.081-.212-.148-.32-.225-.017-.085-.03-.18-.049-.26l-.467-.126.032-.112-.23-.068.027-.117-1.397-.39c-.22.125-.278.094-.373.067a.56.56 0 0 0-.274-.014l-.031.13-.243-.071c-.049.067-.12.135-.18.211l-.228-.076c-.068.076-.122.139-.185.202m-22.516.341.117.036-.13.467c.067.05.13.108.202.184l-.099.346c.135.167.243.32.373.486l-.063.233.167.292.229.063c.04.144.085.279.125.422l.243.063-.027.113.225.067-.032.121.355.095-.036.116.355.095-.04.117 1.63.467.045-.122.225.059.036-.104.35.095.023-.117.242.067.036-.12.234.071c.058-.072.126-.14.184-.202l.234.072c.054-.072.117-.144.17-.207.194-.076.391-.144.575-.216l.063-.242c.086-.01.18-.032.27-.045.08-.148.162-.292.242-.44l.117.04.1-.36.116.046.063-.238.112.026.499-1.743-.117-.027.072-.242-.126-.036.103-.346-.116-.031.067-.243-.117-.023.063-.238-.198-.184.072-.233a6.733 6.733 0 0 1-.296-.328c-.036-.14-.09-.274-.126-.414l-.238-.072a6.183 6.183 0 0 1-.05-.251l-.354-.112a5.294 5.294 0 0 0-.05-.261c-.39-.355-1.338-.642-2.03-.827l-.04.113c-.275-.036-.558-.077-.845-.113-.171.14-.175.126-.22.113-.032-.005-.077-.01-.194.027l-.035.108-.23-.054c-.116.094-.233.188-.341.278-.234.099-.463.202-.705.306l-.072.229c-.095.022-.17.031-.27.058l-.063.23c-.08.026-.175.035-.274.053-.108.26-.22.526-.332.782l-.121-.036c-.225.346-.364 1.402-.346 1.671m34.268-.058c.112.188.143.651.121.912.162.21.31.417.458.633l-.036.112.234.063-.036.122.234.063-.027.12.346.1-.032.12c.67.423 2.323.095 2.56-.165l.068-.234c.333-.144.171-.225.396-.517l.121.032.094-.346.117.032c.243-.396.058-1.236.076-1.618-.175-.26-.359-.516-.534-.777l.031-.117-.229-.067c-.35-.333-.642-.544-1.294-.741l-.04.12-.732-.084c-.063.053-.122.12-.189.193l-.234-.059-.031.113c-.135.049-.27.094-.409.134l-.067.239c-.086.013-.18.035-.27.044l-.09.35-.121-.03-.076.238-.113-.036zm11.437-1.694-.067.234.121.022-.063.238.113.036c.08.211.103.256.098.53.283.171.324.292.486.512l-.027.122c.287.332 1.77 1.401 2.628 1.374l.036-.116c.247.018.49.044.732.071l.031-.112c.171 0 .333.004.504.004.107-.076.224-.184.332-.27l.238.064.027-.122c.14-.04.279-.085.418-.13l.067-.238c.135-.045.274-.09.418-.135.076-.144.162-.292.243-.431l.116.036.104-.355.112.027.094-.35.117.03.427-1.5-.108-.045c-.031-.35.112-.682.027-.992a1.587 1.587 0 0 1-.198-.185l.054-.229c-.054-.067-.13-.117-.193-.184l.063-.238-.166-.292-.23-.072a47.613 47.613 0 0 0-.224-.557l-.346-.103c-.018-.095-.036-.189-.058-.265-.243-.22-1.523-.85-2.026-.827l-.036.117c-.243-.027-.494-.05-.737-.077l-.031.117c-.171-.018-.333-.018-.5-.018-.058.063-.12.14-.179.198l-.233-.059a1.452 1.452 0 0 0-.18.194c-.243.103-.476.202-.714.31l-.072.229c-.09.013-.176.04-.27.04-.067.157-.162.301-.247.445l-.117-.036-.094.346-.121-.023-.122.463-.116-.027c-.432.67-.225 1.806-.13 2.228m-62.185 3.042.032-.126.238.067.031-.112.35.099c.064-.068.122-.135.18-.198l.23.068.04-.13c.216-.086.256-.1.53-.095.202-.314.4-.386.67-.575l.12.04c.212-.328.423-.642.639-.957l.116.032.194-.705.116.04.167-.584-.117-.031.198-.701-.126-.032c.027-.206.04-.409.05-.62l-.118-.036.068-.224-.108-.04.063-.234c-.18-.256-.364-.512-.54-.777-.08-.19-.147-.369-.22-.566l-.228-.068.027-.112-.23-.068.032-.116-.346-.095c-.023-.094-.045-.184-.059-.274l-.813-.233.027-.104c-.471-.107-.948-.184-1.424-.278l-.031.117-.234-.068-.036.122-.35-.113a1.77 1.77 0 0 1-.184.211l-.238-.067c-.1.094-.22.184-.328.283l-.234-.067-.292.175-.072.229c-.13.04-.274.085-.409.135l-.072.238c-.09.013-.175.031-.26.054l-.108.341-.108-.04-.072.238-.112-.027-.198.683-.112-.023-.319 1.55.117.04-.063.234.117.031-.094.346c.067.059.13.122.197.185a16.91 16.91 0 0 1-.018.503c.126.161.247.314.373.48.014.086.032.167.05.265l.233.059c.018.094.036.184.045.278l.238.063c.018.086.04.17.05.265l.354.095-.036.116.239.068-.04.13c.493.17.996.355 1.482.526l.036-.113zm33.051-.656.032-.117.768-.04c.21-.149.426-.301.633-.45.09-.018.175-.04.27-.049l.063-.234c.09-.027.175-.04.265-.058l.094-.346.126.032.063-.234.116.031.23-.817c.363-1.28.148-1.667-.315-2.471l-.135-.422c-.143-.086-.287-.162-.435-.247l.04-.117-.234-.068.032-.116c-.53-.185-1.065-.382-1.604-.58l-.031.121-.468-.125-.035.107c-.162 0-.328 0-.5-.004l-.03.113-.234-.059c-.211.144-.423.297-.634.445-.09.018-.166.031-.265.05l-.063.238c-.094.013-.184.035-.265.044l-.098.346-.117-.031-.063.238-.121-.032-.49 1.748.117.031-.068.239.113.027-.095.35c.063.067.13.121.202.189l-.071.229.202.175c.103.247.202.485.305.728.207.139.418.287.634.427l-.036.112.471.13c.171.117.733.463 1.132.445l.036-.108zm-20.45-2.48.028-.121.238.063.027-.108.35.09c.063-.068.126-.126.184-.198l.234.072c.054-.067.112-.144.18-.207.193-.076.381-.152.566-.215l.072-.23c.08-.026.17-.044.26-.058l.094-.346.117.027.068-.233.116.035c.185-.49.364-.983.544-1.473l-.108-.04.121-.472-.107-.036.063-.23-.122-.03.095-.356c-.068-.058-.13-.112-.194-.18l.063-.237c-.063-.054-.13-.117-.202-.18-.48-.916-1.051-1.46-2.507-1.837l-.027.12c-.251-.03-.49-.048-.736-.08l-.032.121-.229-.072-.036.113-.233-.063-.19.202c-.336.153-.673.305-1.01.472-.08.148-.162.287-.251.435l-.117-.044-.095.359-.116-.027-.135.463-.103-.036c-.243.364-.248 1.716-.18 1.968l.112.035-.067.234c.143.207.296.413.453.629.04.135.09.274.13.409l.234.067c.014.094.04.18.054.27.189.094.364.193.553.283l-.032.117 1.366.507.032-.121zm32.17-5.175-.857.382-.063.233c-.638.333-.53 1.415-.562 1.981.184.26.355.517.544.773l-.04.126c.3.341.956.521 1.572.687l.031-.112.346.099c.063-.077.121-.135.184-.198.427-.135.647-.072.899-.503.436-.193.813-1.074.728-1.69-.14-.979-.764-1.639-2.094-1.971l-.031.116a27.327 27.327 0 0 1-.62-.045zm9.848-.512c.099 1.374.872 2.875 2.579 3.369l.813.225c1.738-.072 3.859-1.308 3.576-3.77l.054-.624c-.063-.058-.13-.121-.198-.175l.067-.243c-.067-.058-.134-.121-.202-.17-.094-.243-.202-.481-.305-.72l-.234-.067a4.551 4.551 0 0 1-.045-.265l-.233-.072.031-.112-.355-.094.036-.117-.234-.072.04-.117-1.765-.498c-.22.143-.274.116-.377.09-.058-.014-.135-.032-.27-.01l-.022.117-.238-.072c-.063.072-.121.14-.189.202l-.229-.062c-.063.062-.117.125-.184.202-.234.094-.476.202-.705.296l-.072.243c-.086.004-.18.027-.265.04l-.077.243-.103-.032-.103.355-.122-.036-.063.225-.112-.04zm-32.13.04c.18.27.036.247.117.521l.112.04-.071.23c.09.112.202.215.283.341.112.23.202.472.305.7.427.46 1.334.639 2.156.868.158-.112.23-.103.31-.094.059.004.117.013.216-.018.063-.068.13-.135.184-.189l.234.063c.26-.18.521-.364.777-.535l.067-.233c.086-.014.18-.04.274-.054l.167-.584.107.031c.1-.48.185-.957.279-1.428l-.121-.045.072-.23-.117-.035.063-.225c-.207-.31-.41-.62-.62-.93l.031-.126-.543-.274.031-.121-.588-.153.035-.13-.471-.126-.027.117-.71-.202-.022.121c-.167 0-.342-.013-.495-.013l-.049.116c-.211.081-.243.1-.53.1l-.058.233-.234-.063c-.067.108-.144.211-.216.319l-.117-.027a8.816 8.816 0 0 0-.278.543l-.117-.026zm-21.352-2.875.121.045-.072.224.117.036-.135.463c.072.072.135.121.212.193-.014.166-.014.328-.023.499.103.108.193.22.283.337.005.117.014.247.023.373l.229.054c.05.152.094.292.139.426.14.086.283.162.44.247.01.09.027.176.045.256l.463.13-.036.122c.22.17 1.2.602 1.604.58l.027-.104.354.081.036-.108.477.13c.058-.062.107-.13.175-.202l.233.072.023-.125.242.071c.113-.09.216-.193.333-.283l.234.068.296-.18.063-.22c.103-.031.18-.031.278-.05.077-.148.162-.3.243-.435.09-.023.17-.032.26-.059l.13-.458.118.032.072-.243.112.04.436-1.518-.13-.036.103-.341-.113-.04.1-.351-.118-.036.059-.238-.113-.018.068-.243a1.973 1.973 0 0 1-.202-.188l.072-.23-.207-.175c-.076-.18-.153-.377-.225-.566l-.229-.058c-.009-.103-.031-.184-.05-.274-.138-.086-.287-.166-.435-.247l.027-.122-.35-.103.04-.112-.23-.068.028-.12-1.748-.482c-.215.13-.274.104-.373.077a.513.513 0 0 0-.278-.014l-.031.122-.234-.063-.036.121-.238-.076c-.045.072-.117.139-.18.202l-.224-.063c-.072.063-.122.135-.194.202-.18.063-.372.14-.557.216l-.067.238c-.09.018-.184.031-.27.045l-.058.229-.126-.027-.058.238-.117-.036-.319.665-.112-.032zm36.105-1.671c-.053.067-.12.134-.18.193-.705.377-.952.67-1.257 1.797.189.283.108.615.238.939.067.166.467.422.566.665.427.134 1.15.417 1.438.278.292.023.912-.166 1.096-.319.193-.153.08-.265.364-.395l.363-1.294c-.247-.382-.21-.804-.552-1.159l.031-.121-.35-.09.031-.121-.224-.072.018-.113-.93-.26c-.202.121-.288.09-.382.067a.57.57 0 0 0-.13-.018c-.04 0-.081.004-.14.023m11.42-2.97c-.099.014-.18.04-.265.063l-.072.225c-.09.018-.175.036-.265.058l-.099.337c-.166.23-.637.85-.62 1.339l.108.036-.108.849c.04.323.239.557.234.948l.23.072-.06.233c.239.144.257.171.396.36l-.031.116.238.068c.013.094.027.18.05.26l.345.104-.031.121.238.063-.036.117 1.63.453.04-.112.23.063.036-.112.341.094.04-.117c.167.01.333.018.5.018.22-.148.417-.305.633-.445.09-.022.166-.044.265-.062l.063-.23c.09-.022.184-.035.265-.044l.067-.239.117.023.094-.346.122.031.058-.233.117.04.431-1.518-.121-.036.103-.346-.112-.027.094-.364a2.394 2.394 0 0 1-.198-.175l.063-.23-.112-.035c-.094-.216-.103-.252-.103-.54l-.238-.062.076-.238c-.112-.059-.22-.14-.323-.216l.026-.103-.229-.068.032-.13-.23-.063.037-.103c-.342-.148-.688-.283-1.02-.427l.027-.108c-.176-.094-.97-.076-1.11-.067l-.355-.094-.036.112-.229-.058-.036.116-.233-.063c-.063.063-.122.117-.185.19l-.224-.073c-.162.13-.324.252-.485.382l-.117-.022zm-34.304 1.946.126.03-.17.59.125.03c-.005.172-.013.333-.022.5l.116.03-.062.234c.062.063.139.126.202.18l.382.863.233.076-.036.103c.211.216.265.077.405.378.92.3 1.801.728 2.641.476.058-.063.112-.135.175-.189l.23.063c.062-.067.125-.14.188-.202.189-.072.382-.144.562-.225l.072-.229c.09-.013.17-.027.256-.05l.103-.345.117.022.067-.233.112.04c.203-.283.495-1.747.414-1.9.063-.863-.768-2.075-1.424-2.538l-1.757-.494c-.346.22-.696.076-1.065.202-.157.117-.314.238-.485.364l-.112-.027-.063.233-.27.04-.062.234-.113-.022c-.085.14-.17.292-.256.427l-.117-.032zm13.406-2.4.116.019-.139.476.126.031-.068.234.113.036c-.01.18-.01.337-.01.507.064.059.127.113.198.18.063.18.144.377.216.557l.346.103.054.261.58.166c.197.315.84.265 1.289.364.161-.14.166-.13.21-.117.032.01.082.014.208-.022l.035-.117.225.063c.355-.117 1.563-1.244 1.563-1.94l-.116-.041.166-.584-.121-.036.067-.225-.112-.036.058-.233-.121-.036c0-.126-.004-.247-.014-.386-.283-.171-.323-.283-.485-.513l.036-.116-.234-.063.032-.117c-.458-.386-1.51-.683-2.103-.593l-.035.13-.23-.076-.035.112c-.13.01-.252.01-.382.018l-.059.225-.238-.059c-.067.108-.144.211-.22.324l-.112-.027-.063.229-.117-.04-.072.238-.108-.027-.13.458-.121-.027zm11.779-1.603c.067.067.13.126.202.188l-.072.234.121.027c0 .126 0 .265.018.386l.23.068-.064.233c.584.346 1.326 1.604 2.458 1.564l.027-.108.36.094.03-.108.463.122.032-.122.238.077.036-.126.229.072c.058-.072.117-.14.184-.198l.234.059.18-.202c.188-.068.372-.14.556-.212l.072-.238a1.79 1.79 0 0 0 .26-.054l.073-.229.108.027.072-.229.12.04.131-.476.112.027c.35-.494.517-1.45.445-2.008l-.121-.031.063-.243-.108-.027c.005-.166.013-.328.013-.494-.12-.162-.247-.319-.368-.485-.076-.193-.144-.386-.22-.566l-.23-.068c-.017-.085-.03-.161-.053-.26l-.238-.068.036-.116-.35-.108.04-.099-.472-.14.031-.116c-.786-.49-1.734-.243-2.228-.13l-.233-.068c-.068.068-.13.144-.19.211l-.233-.062c-.108.094-.22.188-.328.274l-.121-.032-.063.238c-.144.045-.27.086-.418.135-.08.14-.161.288-.247.436l-.112-.04c-.575.696-.93 2.17-.705 2.95m-16.932.652.027-.112.35.099.036-.117c.162.009.332.009.503.009.059-.058.121-.13.184-.193l.23.063c.157-.122.323-.247.485-.373.139-.04.274-.081.404-.13l.076-.234c.086-.027.171-.04.26-.054.086-.144.163-.296.248-.431l.121.04c.225-.525.458-1.051.692-1.572l-.108-.04.22-.814c-.134-1.725-1.042-2.902-3.014-3.603l-.031.095-.809-.216-.04.121-.239-.071-.026.107-.355-.103-.032.126-.233-.059c-.054.063-.126.126-.176.198l-.233-.067c-.068.067-.122.139-.184.193l-.715.31-.072.224c-.08.023-.17.036-.26.054l-.063.238-.121-.035-.104.35-.117-.04-.062.242-.113-.031-.197.714-.122-.05-.193.706.108.031-.184.692.112.045-.099.337.117.05c0 .161-.004.318-.013.494.067.049.134.116.202.175l-.068.229c.068.072.135.13.202.193.1.234.194.467.306.714l.225.063c.013.09.04.171.049.265.148.081.296.171.436.26l-.027.104c.557.243 1.114.49 1.684.719l.032-.103zm63.311 54.713.122.023.035-.112.463.139.032-.117.238.063c.323-.063.557-.243.948-.243-.054.665.229 1.11.125 1.802-.377-.063-.629.036-.894.139-.21.08-.422.162-.705.162.032-.697-.386-1.16-.364-1.856m-39.811-2.632-.108-.032c-.059-.17.076-.79.031-.997l-.126-.045.077-.224c-.077-.059-.135-.122-.207-.18l.072-.243c-.072-.054-.14-.121-.202-.18l.063-.229-.121-.035c-.1-.252-.117-.283-.072-.647.53.098.898-.014 1.253-.126.265-.085.53-.175.858-.166l.058-.23.239.063c.215-.287.341-.43.745-.426-.08.669-.143 1.599.027 2.147.063.063.126.13.202.184l-.067.23.117.03c.004.14.013.257.018.396l.238.063c-.027.341.072.301.054.647-.953-.274-1.299-.166-1.99-.063l-.355-.094c-.059.063-.117.134-.171.197l-.238-.063-.036.122c-.13 0-.252.004-.386.004zm45.189-3.037.04-.117-.117-.036.027-.112.234.058-.068.234zm-52.584-2.448-.135-1.294c-.067-.072-.134-.126-.197-.184.005-.167.005-.337.018-.5.66-.08 1.563-.318 2.075-.677.234.354-.009.337.036.763l.126.04c0 .248.013.508.027.76l.108.036-.054.229.107.036c.014.121.018.251.023.382l.121.036c-.031.247-.103.134-.188.197l-.027.117c-.248-.027-.49-.05-.742-.08l-.027.111-.355-.094c-.27.04-.368.144-.646.144-.077 0-.162-.004-.27-.023m44.106-1.446c-.134-.288.077-.66.027-.997l-.103-.04.058-.23-.116-.031.098-.35c-.067-.06-.134-.127-.197-.176l.058-.243-.197-.18.067-.233a7.84 7.84 0 0 1-.207-.189c-.067-.188-.139-.368-.215-.561l-.234-.054c-.018-.094-.027-.189-.045-.279l-.238-.067c-.013-.09-.036-.18-.05-.26l-.35-.104c-.013-.085-.036-.175-.054-.27l-.462-.13.031-.112c1.218.4 2.565 1.033 3.68.786.058-.067.125-.13.184-.207.17.01.337.01.507.023.256-.175.521-.36.777-.54.283.441-.049.832-.018 1.385l.117.035-.094.35.117.023-.1.36c.064.054.136.117.203.184l-.063.23.112.026-.062.238c.062.063.13.121.197.175l-.013.508-.113-.031-.035.112c-.212-.014-.418-.032-.62-.045l-.032.121-.355-.103c-.054.063-.117.135-.17.202l-.364-.099c-.108.095-.212.18-.324.283l-.242-.067-1.079.71zm-51.433-4.272c-.211-.297-.324-.778-.292-1.209.413-.099.808-.189 1.222-.296l-.04.116c.26.328.103.764.318 1.106-.125.224-.009.103-.18.202-.354.063-.705.13-1.06.206zm56.658-4.461-.112-.027.099-.355c-.059-.068-.135-.117-.198-.184.004-.167.009-.328.009-.5l-.112-.03c-.113-.248-.18-.36-.19-.683-.296-.171-.25-.108-.25-.445.525.067 1.055.126 1.58.184l.032-.108.234.063.027-.108.355.086c.328-.117.651-.23.983-.355l-.026.126.112.027c-.018.247-.059.49-.077.727l.113.04-.063.234.108.032-.059.233c.068.068.13.122.202.185l-.103.346.112.035c.117.288.126.342.036.764a13.737 13.737 0 0 1-.606-.045l-.036.117-.23-.072c-.062.072-.125.135-.183.202-.167 0-.337-.009-.499-.009-.067.063-.121.13-.189.198-.346.189-.687.44-1.127.445.027-.378.04-.755.058-1.123m-64.542-.652c-.108-.49-.373-.912-.333-1.482.292.022.503-.04.715-.1.242-.071.48-.143.849-.084a93.8 93.8 0 0 0 .072 1.531 2.055 2.055 0 0 0-.665.063c-.175.036-.35.077-.557.077-.027 0-.054 0-.081-.004m-8.136-4.681-.103-.027.09-.35a2.422 2.422 0 0 1-.19-.185c-.022-.256-.03-.508-.044-.768l-.23-.054c.014-.494-.25-.472-.242-.957.472-.036.948-.072 1.41-.103.064-.072.131-.13.194-.198l.23.059.03-.113c.216-.09.257-.103.535-.103l.063-.238.234.067.063-.229.238.068c-.297 1.14.098 1.972.058 2.906-.508.027-1.02.059-1.527.077l-.036.116c-.126.014-.256.014-.387.018-.053.068-.12.144-.17.202-.252 0-.14-.107-.216-.188m-20.184-2.52c-.027-.306-.027-.62-.117-.921-.067-.059-.144-.122-.198-.18l.054-.23a.774.774 0 0 0-.202-.179c-.004-.14-.009-.265-.009-.386l-.126-.04c-.08-.212-.094-.252-.094-.526.508-.036 1.02-.05 1.527-.077.063-.063.122-.134.184-.193l.23.054c.13-.04.948-.687 1.055-.588l-.036.125c.176.36-.161.885-.13 1.344l.121.031-.067.238.117.031-.099.35c.05.347.202.419.112.913-.503.031-1.015.058-1.518.076a1.044 1.044 0 0 0-.189.207 8.967 8.967 0 0 0-.615-.05m90.414-5.808-.121-.027.063-.238-.108-.027a5.109 5.109 0 0 0-.027-.387c.166-.058.022.014.157-.085.382.108.674.198.961.148l.04-.121.351.103.036-.125.225.071.04-.12c.189-.055.22-.005.49.017.004.126.013.256.027.378l.112.04-.063.243.112.022-.103.35c.072.059.144.117.202.185l-.058.233.112.04c.063.194.014.306-.05.607a1.826 1.826 0 0 0-1.024.094c-.058.063-.125.126-.18.203l-.237-.077-.036.117c-.288.13-.459.27-.831.278a5.893 5.893 0 0 0-.09-1.922m-97.926 1.172c-.206-.319 0-.3-.072-.647-.062-.067-.134-.125-.193-.184l.086-.355c-.059-.058-.13-.112-.198-.18.014-.161.014-.327.018-.503l-.121-.022c-.095-.26-.184-.364-.184-.683.53-.063 1.042-.135 1.567-.193l.032-.117c.292-.135.458-.27.83-.27.284-.485.562-.296.85-.777l.23.081c-.342 1.141-.333 1.51-.154 2.34l-.067.239.121.027-.076.233c.072.063.144.126.202.185l-.058.233.116.036c0 .117.01.252.014.387-1.006-.279-2.179-.01-2.853.319zm16.874-1.806.238.068-.04.117c-.212-.13-.1-.01-.198-.185m-23.221-3.63a2.741 2.741 0 0 1-.822.014c-.068-.553-.297-.925-.185-1.568.355-.054.706-.121 1.065-.193.404-.14.153-.36.827-.274.036.467.08.948.103 1.41.072.068.135.13.207.19l-.135.466c-.458-.125-.76-.085-1.06-.044m5.148-6.86-.031.107-.769.04c-.058.068-.12.131-.18.198-.166 0-.336 0-.494-.009.14-.754-.076-1.365-.215-1.958l.058-.23c-.063-.049-.13-.116-.197-.175l.067-.238-.108-.036a5.134 5.134 0 0 1-.027-.372c.71.076 2.453-.346 2.759-.867.13-.01.256-.01.39-.023l-.035.121c.009.427.022.845.022 1.263l.117.036c-.004.166-.018.337-.023.494.104.117.198.233.297.332l-.068.238c.068.063.13.113.194.185.247.471.476.894.907 1.262l-.036.117c-.92-.283-1.914-.593-2.628-.485m97.157-.257c-.022-.345-.054-.687-.08-1.033-.072-.058-.13-.117-.212-.18.018-.206.04-.404.05-.615.382.018.754.036 1.118.058.068-.062.122-.139.185-.202l.467.14c-.023.58.292.88.188 1.558-.332-.027-.575.054-.813.14-.215.076-.426.148-.692.148-.067 0-.134-.004-.21-.014m-8.083-6.181-.116-.032.072-.233-.117-.032c-.068-.188-.023-.22.013-.494.53.126.935.054 1.326-.018.341-.067.673-.125 1.087-.063.009.13.018.261.018.387l.121.031-.099.346c.068.058.13.121.193.189.09.395.203.808.288 1.204-1.11-.198-2.013.593-2.875.826.21-.71.21-1.568.09-2.111m-7.62-2.898.036-.117c-.188-.372.081-.646.059-1.123-.126-.61-.243-1.235-.36-1.85.283.04.566.071.85.107l.03-.116.243.067.032-.112c.198.004.409.027.611.04l.031-.117.23.077.04-.126.225.067.04-.121c.13 0 .247-.004.382-.014-.153.867.409 1.761.543 2.548-.62-.149-.862.027-1.298.139l-.233-.068c-.059.068-.126.135-.18.194l-.238-.059c-.113.036-.831.593-1.011.598-.014 0-.027-.004-.032-.014m-7.897-4.618.364-1.28-.117-.018.063-.243-.117-.036.13-.467c-.067-.058-.13-.117-.197-.175l.098-.364a1.867 1.867 0 0 1-.202-.18l.072-.224-.117-.04c-.067-.185-.036-.212.01-.486.588-.018 1.18-.018 1.76-.018l.036-.121.234.067c.058-.067.117-.13.184-.211.13 0 .256-.004.377-.004l-.022.121c.274.35.004.149.099.53.067.054.134.117.197.176l-.103.359c.076.072.135.117.207.175.134.422.13.804.435 1.141l-.035.108c-1.124-.099-2.593.467-3.24 1.227zm-64.987-1.779-.117-.027.072-.238-.122-.023c.018-.206.032-.408.045-.62-.054-.067-.13-.12-.202-.184l.077-.238c-.032-.08-.13-.13-.176-.292l.126.032.023-.122.624.045.036-.108.22.063.036-.121.238.08.036-.13.234.068.027-.121.238.063c.063-.063.112-.13.184-.194.251-.134.516-.22.826-.278l-.013.512.112.027-.094.35.198.185-.095.354c.068.059.126.113.198.176l-.063.238.112.031c.09.216.104.247.104.526l.238.072-.063.233c.314.18.341.243.328.602-.876-.27-1.42-.117-2.026.059-.175-.005-.333-.014-.503-.018a7.025 7.025 0 0 1-.337.283l-.225-.068-.036.126a3.093 3.093 0 0 0-.409.126c.05-.48.104-.98.149-1.47m57.058-2.704.161-.584.122.023c.224-.216.099-.728.112-.845l.198-.696-.117-.036.063-.234-.117-.03.099-.351-.108-.036.063-.23-.126-.03.072-.23-.121-.04.067-.234-.117-.04c-.058-.18-.013-.22.01-.49.633.157 1.104.072 1.567-.013.422-.077.836-.153 1.357-.05.022.382.031.764.05 1.15.067.05.138.113.201.18l-.063.225.122.04c.144.35.292.463.224.948-1.2-.121-3.041.642-3.603 1.63zm-51.766-3.984.031-.117c-.26-.409.068-.427-.009-.885a1.823 1.823 0 0 1-.189-.184c-.027-.382-.044-.769-.062-1.15.363.027.628-.045.889-.122.306-.09.606-.18 1.06-.09.04.436.189.746.166 1.186l.234.068c0 .454.126.4.306.71l-.036.121-.113-.027-.036.108-.467-.126-.031.121c-.166-.018-.328-.018-.499-.022l-.036.112c-.166-.009-.332-.009-.49-.009-.071.063-.13.13-.188.202-.126.01-.256.01-.382.01l-.036.12zm45.032-2.071.031-.117-.112-.036.224-.822c-.022-.593-.274-1.2-.238-1.829.503-.013 1.02-.044 1.532-.067l.027-.112.238.063.036-.122c.189-.058.23-.013.494.01.045.323.162.669.243.96l-.063.234c.058.068.13.117.189.175.009.135.013.257.027.391l.112.032c.09.211.103.247.108.53-.432.004-.845.004-1.272.027-.063.058-.12.126-.184.193l-.229-.067c-.063.076-.117.139-.175.202l-.243-.063c-.072.027-.552.431-.714.431a.042.042 0 0 1-.031-.013m-32.454-.575c.252-.894-.058-1.393-.026-2.143l.107.04.036-.126.476.135c.054-.067.117-.135.167-.202l.238.067.04-.116.23.072.035-.122c.189-.063.22-.013.503.018.059.35.135.71.207 1.065l.108.031c.085.216.099.252.099.53l.233.063c0 .13.018.266.027.387l-.117-.032-.035.126c-.288-.05-.571-.085-.85-.126l-.035.126c-.167-.009-.324-.009-.49-.018-.063.063-.126.13-.198.193l-.224-.063-.036.117a.463.463 0 0 1-.171.036c-.08 0-.157-.027-.323-.058m12.556-2.116c-.175-.364.135-.786.099-1.245l-.117-.027.067-.229-.121-.04.099-.36c-.063-.053-.135-.107-.198-.166-.036-.242.067-.323.014-.503l.12.032.028-.122c.206.023.413.04.62.045l.036-.108.224.063.04-.117.225.063.04-.116c.126-.004.257-.004.378-.014.058-.072.13-.135.184-.207l.117.04-.031.113c.242.297.116.589.242.944.059.062.13.13.193.184l-.062.242c.062.054.13.108.197.176.126.283.18.539.121.92-1.001-.188-1.73.22-2.425.566z" style="fill:url(#d);stroke:none;stroke-width:4.4924" transform="matrix(1.7051 0 0 -1.7051 -171.051 1248.942)"/><path d="M119.972 732.266s-10.665-28.028 1.168-43.563c11.837-15.525 41.694-12.682 41.694-12.682s10.67 28.046-1.164 43.572c-8.648 11.352-26.923 12.88-36.137 12.88-3.396 0-5.561-.207-5.561-.207" style="fill:url(#e);stroke:none;stroke-width:4.4924" transform="matrix(1.7051 0 0 -1.7051 -171.051 1248.942)"/><path d="M106.562 404.183h2.467c3.598 0 5.983 1.253 5.983 5.62 0 5.61-4.07 5.61-6.334 5.61h-2.116zm-2.426 13.576h5.122c5.134 0 8.338-2.255 8.338-7.956 0-6.11-4.106-7.96-7.629-7.96h-3.405v-12.279h-2.426zM130.437 399.863c0 1.662 0 8.406-5.05 8.406-5.053 0-5.053-6.744-5.053-8.406 0-1.657 0-8.41 5.054-8.41 5.05 0 5.05 6.753 5.05 8.41m-12.521 0c0 5.167 1.64 10.589 7.47 10.589 5.832 0 7.476-5.422 7.476-10.589 0-5.17-1.644-10.593-7.475-10.593-5.831 0-7.471 5.422-7.471 10.593M144.013 407.41c-1.132.453-2.116.857-3.405.857-2.345 0-3.405-1.82-3.405-3.28 0-1.89.705-2.295 3.405-3.827 2.74-1.545 4.852-2.592 4.852-5.903 0-3.715-2.547-5.988-5.912-5.988-2.462 0-3.873.53-5.045.975l.314 2.628c.665-.485 2.705-1.415 4.538-1.415 2.147 0 3.674 1.693 3.674 3.553 0 1.977-1.208 2.79-3.553 3.998-3.37 1.739-4.7 2.83-4.7 5.742 0 3.881 3.213 5.7 5.868 5.7 1.33 0 2.938-.363 3.684-.606zM151.447 415.014v-4.847h4.066v-2.183h-4.066v-13.42c0-1.648.274-3.108 2.188-3.108 1.056 0 1.456.252 1.878.445v-2.34c-.544-.207-1.564-.288-2.62-.288-2.933 0-3.714 2.345-3.714 4.65v14.06h-2.974v2.184h2.974v4.12zM167.684 399.947c-4.695 0-8.648 0-8.648-4.686 0-1.752 1.253-3.805 3.684-3.805 1.046 0 4.964.445 4.964 6.06zm2.111-5.782c0-1.536.121-3.068.234-4.605h-2.03l-.163 2.947h-.072c-1.374-2.264-3.018-3.234-5.602-3.234-3.086 0-5.548 2.628-5.548 5.988 0 6.577 6.761 6.707 9.623 6.707h1.447c0 2.584 0 6.299-4.147 6.299-2.66 0-4.775-1.95-5.009-2.143l-.35 2.507c1.878 1.046 3.284 1.82 5.48 1.82 6.137-.001 6.137-5.338 6.137-6.83z" style="fill:#58595b;fill-opacity:1;fill-rule:nonzero;stroke:none;stroke-width:4.4924" transform="matrix(1.7051 0 0 -1.7051 -171.051 1248.942)"/><path d="M173.867 419.86h2.269v-30.297h-2.269Z" style="fill:#58595b;fill-opacity:1;fill-rule:nonzero;stroke:none;stroke-width:4.49239" transform="matrix(1.7051 0 0 -1.7051 -171.051 1248.942)"/><path d="M187.987 393.511c1.878-1.73 4.11-1.891 4.811-1.891 4.38 0 4.933 4.038 4.933 5.09 0 3.266-1.878 4.604-5.162 6.868-3.796 2.664-4.932 4.439-4.932 7.642 0 6.258 5.516 6.824 7.116 6.824 2.192 0 3.679-.651 4.303-.89l-.116-2.825c-1.052.647-2.305 1.374-4.345 1.374-1.563 0-4.375-.853-4.375-4.124 0-2.785 1.406-3.877 3.755-5.66 4.852-3.675 6.34-4.964 6.34-8.85 0-4.722-3.136-7.799-7.323-7.799-1.68 0-3.756.413-5.162 1.339zM213.621 399.947c-4.699 0-8.652 0-8.652-4.686 0-1.752 1.253-3.805 3.68-3.805 1.055 0 4.972.445 4.972 6.06zm2.112-5.782c0-1.536.116-3.068.229-4.605h-2.03l-.158 2.947h-.081c-1.37-2.264-3.005-3.234-5.598-3.234-3.09 0-5.552 2.628-5.552 5.988 0 6.577 6.77 6.707 9.623 6.707h1.455c0 2.584 0 6.299-4.15 6.299-2.665 0-4.776-1.95-5.01-2.143l-.35 2.507c1.878 1.046 3.284 1.82 5.476 1.82 6.146-.001 6.146-5.338 6.146-6.83zM217.368 410.167h2.435l4.73-17.939h.081l4.888 17.939h2.273l-5.836-20.603h-2.74z" style="fill:#58595b;fill-opacity:1;fill-rule:nonzero;stroke:none;stroke-width:4.4924" transform="matrix(1.7051 0 0 -1.7051 -171.051 1248.942)"/><path d="M233.692 410.165h2.265v-20.602h-2.265zm-.238 8.199h2.736v-3.634h-2.736z" style="fill:#58595b;fill-opacity:1;fill-rule:nonzero;stroke:none;stroke-width:4.49239" transform="matrix(1.7051 0 0 -1.7051 -171.051 1248.942)"/><path d="M240.106 403.777c0 2.142-.121 4.24-.157 6.388h2.111c.077-.93.117-1.532.158-3.028h.072c.471.88 1.77 3.315 5.09 3.315 5.52 0 5.52-5.705 5.52-7.075v-13.814h-2.273v13.9c0 1.414 0 4.806-3.715 4.806-2.78 0-4.542-2.713-4.542-5.903v-12.803h-2.264zM262.794 391.455c3.756 0 4.897 3.432 4.897 8.653 0 4.191-1.056 8.158-4.928 8.158-4.538 0-4.538-6.703-4.538-8.4 0-4.772 1.168-8.41 4.57-8.41m-.266 18.998c2.502 0 4.066-1.177 5.234-3.32h.085v3.032h2.112a132.92 132.92 0 0 1-.158-6.837V390.04c0-5.822-2.151-9.452-7.47-9.452-2.161 0-3.172.32-5.674 1.132l.148 2.628c1.927-1.132 4.196-1.581 5.48-1.581 4.929 0 5.248 4.69 5.248 6.797v2.821h-.077c-1.172-2.062-2.664-3.113-5.05-3.113-5.008 0-6.612 5.899-6.612 9.816 0 2.88.234 11.366 6.734 11.366M281.85 407.41c-1.128.453-2.116.857-3.406.857-2.345 0-3.4-1.82-3.4-3.28 0-1.89.705-2.295 3.4-3.827 2.74-1.545 4.852-2.592 4.852-5.903 0-3.715-2.538-5.988-5.903-5.988-2.47 0-3.877.53-5.045.975l.31 2.628c.665-.485 2.7-1.415 4.537-1.415 2.152 0 3.68 1.693 3.68 3.553 0 1.977-1.213 2.79-3.563 3.998-3.37 1.739-4.694 2.83-4.694 5.742 0 3.881 3.203 5.7 5.871 5.7 1.33 0 2.934-.363 3.675-.606zM301.964 415.705c-2.502 0-3.517-2.062-3.517-3.643 0-1.775.975-3.27 2.457-5.454 1.334.845 4.192 2.669 4.192 5.737 0 1.096-.513 3.36-3.132 3.36m-1.765-11.76c-2.848-2.103-4.223-3.725-4.223-7 0-1.168.777-5.328 5.13-5.328 2.188 0 4.3 1.334 5.472 3.113zm7.637-7.193c.939 1.936 1.64 5.247 1.837 8.724h2.269c-.157-1.783-.584-6.833-2.74-10.746l3.993-5.166h-3.086l-2.273 3.387c-.32-.687-2.43-3.679-6.891-3.679-5.634 0-7.4 3.922-7.4 8.131 0 3.832 2.242 6.46 5.405 8.199-1.487 1.85-2.934 3.913-2.934 6.622 0 2.021 1.407 5.822 6.106 5.822 3.517 0 5.395-2.835 5.395-5.378 0-3.917-2.543-5.934-5.315-7.794z" style="fill:#58595b;fill-opacity:1;fill-rule:nonzero;stroke:none;stroke-width:4.4924" transform="matrix(1.7051 0 0 -1.7051 -171.051 1248.942)"/><path d="M323.599 417.757h2.426v-28.194h-2.426z" style="fill:#58595b;fill-opacity:1;fill-rule:nonzero;stroke:none;stroke-width:4.49239" transform="matrix(1.7051 0 0 -1.7051 -171.051 1248.942)"/><path d="M330.446 403.777c0 2.142-.117 4.24-.158 6.388h2.116c.077-.93.113-1.532.158-3.028h.076c.467.88 1.766 3.315 5.085 3.315 5.517 0 5.517-5.705 5.517-7.075v-13.814h-2.264v13.9c0 1.414 0 4.806-3.72 4.806-2.785 0-4.542-2.713-4.542-5.903v-12.803h-2.268zM355.448 407.41c-1.137.453-2.12.857-3.405.857-2.346 0-3.406-1.82-3.406-3.28 0-1.89.706-2.295 3.406-3.827 2.735-1.545 4.847-2.592 4.847-5.903 0-3.715-2.538-5.988-5.903-5.988-2.467 0-3.873.53-5.045.975l.31 2.628c.665-.485 2.704-1.415 4.533-1.415 2.151 0 3.683 1.693 3.683 3.553 0 1.977-1.217 2.79-3.562 3.998-3.37 1.739-4.704 2.83-4.704 5.742 0 3.881 3.221 5.7 5.88 5.7 1.326 0 2.93-.363 3.676-.606zM372.386 395.94c0-2.135.122-4.233.158-6.376h-2.112c-.08.921-.121 1.532-.153 3.015h-.076c-.238-.872-1.77-3.307-5.09-3.307-4.344 0-5.521 3.235-5.521 6.505v14.39h2.273v-13.904c0-1.411 0-4.807 3.71-4.807 2.786 0 4.543 2.709 4.543 5.903v12.808h2.268zM376.344 403.777c0 2.142-.122 4.24-.157 6.388h2.11c.037-1.213.118-2.426.154-3.275h.076c1.451 2.956 3.14 3.562 5.32 3.562v-2.51c-3.595 0-5.24-1.627-5.24-5.41v-12.97h-2.263zM395.173 399.947c-4.699 0-8.652 0-8.652-4.686 0-1.752 1.253-3.805 3.684-3.805 1.05 0 4.968.445 4.968 6.06zm2.112-5.782c0-1.536.112-3.068.229-4.605h-2.03l-.158 2.947h-.085c-1.37-2.264-3.015-3.234-5.589-3.234-3.086 0-5.553 2.628-5.553 5.988 0 6.577 6.766 6.707 9.628 6.707h1.446c0 2.584 0 6.299-4.155 6.299-2.66 0-4.771-1.95-5.005-2.143l-.35 2.507c1.873 1.046 3.28 1.82 5.476 1.82 6.146-.001 6.146-5.338 6.146-6.83zM401.157 403.777c0 2.142-.126 4.24-.162 6.388h2.12c.068-.93.113-1.532.158-3.028h.076c.463.88 1.757 3.315 5.081 3.315 5.517 0 5.517-5.705 5.517-7.075v-13.814h-2.269v13.9c0 1.414 0 4.806-3.72 4.806-2.776 0-4.532-2.713-4.532-5.903v-12.803h-2.269zM428.695 407.058c-.903.755-2.426 1.047-3.603 1.047-3.046 0-5.822-2.188-5.822-7.633 0-7.556 4.025-8.854 6.177-8.854.903 0 2.709.283 3.37 1.096l.197-2.673c-.98-.45-2.47-.768-3.877-.768-4.263 0-8.297 3.396-8.297 10.503 0 6.303 2.709 10.674 8.252 10.674 1.617 0 2.781-.319 3.724-.728zM440.983 401.272c0 5.462-2.233 6.994-4.065 6.994-3.1 0-4.542-4.321-4.542-6.994zm-8.607-2.184c0-7.632 4.744-7.632 5.633-7.632 1.294 0 3.172.647 4.308 1.693l.113-2.704c-.94-.526-2.269-1.173-4.65-1.173-7.835 0-7.835 8.531-7.835 10.593 0 7.754 3.724 10.585 7.085 10.585 5.786 0 6.375-6.344 6.375-11.362zM457.225 391.9h2.506c6.06 0 9.385 4.686 9.385 11.753 0 4.412-.66 11.761-9.82 11.761h-2.071zm-2.43 25.86h3.566c9.066 0 13.343-4.565 13.343-13.694 0-8.207-3.877-14.506-12.687-14.506h-4.223zM484.688 401.272c0 5.462-2.224 6.994-4.066 6.994-3.095 0-4.546-4.321-4.546-6.994zm-8.612-2.184c0-7.632 4.735-7.632 5.638-7.632 1.294 0 3.172.647 4.304 1.693l.112-2.704c-.934-.526-2.264-1.173-4.65-1.173-7.83 0-7.83 8.531-7.83 10.593 0 7.754 3.72 10.585 7.08 10.585 5.79 0 6.388-6.344 6.388-11.362zM487.78 410.167h2.417l4.744-17.939h.072l4.897 17.939h2.264l-5.83-20.603h-2.741zM513.875 401.272c0 5.462-2.228 6.994-4.075 6.994-3.081 0-4.528-4.321-4.528-6.994zm-8.603-2.184c0-7.632 4.73-7.632 5.634-7.632 1.293 0 3.171.647 4.299 1.693l.121-2.704c-.943-.526-2.269-1.173-4.654-1.173-7.835 0-7.835 8.531-7.835 10.593 0 7.754 3.724 10.585 7.094 10.585 5.781 0 6.366-6.344 6.366-11.362z" style="fill:#58595b;fill-opacity:1;fill-rule:nonzero;stroke:none;stroke-width:4.4924" transform="matrix(1.7051 0 0 -1.7051 -171.051 1248.942)"/><path d="M519.396 419.86h2.264v-30.297h-2.264z" style="fill:#58595b;fill-opacity:1;fill-rule:nonzero;stroke:none;stroke-width:4.49239" transform="matrix(1.7051 0 0 -1.7051 -171.051 1248.942)"/><path d="M537.276 399.863c0 1.662 0 8.406-5.045 8.406-5.05 0-5.05-6.744-5.05-8.406 0-1.657 0-8.41 5.05-8.41 5.045 0 5.045 6.753 5.045 8.41m-12.516 0c0 5.167 1.644 10.589 7.471 10.589 5.831 0 7.466-5.422 7.466-10.589 0-5.17-1.635-10.593-7.466-10.593-5.827 0-7.47 5.422-7.47 10.593M549.477 408.267c-3.873 0-4.929-3.967-4.929-8.158 0-2.75 0-8.653 4.888-8.653 3.41 0 4.582 3.635 4.582 8.405 0 1.703 0 8.406-4.541 8.406m-7.04-4.937c0 3.239-.081 5.05-.162 6.837h2.116v-3.032h.081c1.325 2.143 2.974 3.315 5.243 3.315 6.491 0 6.725-8.482 6.725-9.906 0-5.849-1.842-11.276-6.6-11.276-2.394 0-4.12 1.052-5.058 2.88h-.08v-11.316h-2.265zM559.343 403.777c0 2.142-.121 4.24-.166 6.388h2.125c.072-.93.108-1.532.153-3.028h.067c.638 1.496 2.076 3.315 4.632 3.315 3.28 0 4.106-2.147 4.568-3.315.598.97 2.071 3.315 4.978 3.315 4.02 0 5.157-3.481 5.157-6.716v-14.173h-2.268v13.9c0 1.414 0 4.806-3.244 4.806-2.821-.036-4.115-2.583-4.115-5.499v-13.207h-2.26v14.34c0 2.663-1.136 4.366-3.018 4.366-2.584 0-4.34-2.713-4.34-5.903v-12.803h-2.269zM594.795 401.272c0 5.462-2.237 6.994-4.083 6.994-3.082 0-4.529-4.321-4.529-6.994zm-8.611-2.184c0-7.632 4.73-7.632 5.633-7.632 1.294 0 3.172.647 4.3 1.693l.116-2.704c-.934-.526-2.264-1.173-4.659-1.173-7.82 0-7.82 8.531-7.82 10.593 0 7.754 3.719 10.585 7.08 10.585 5.79 0 6.378-6.344 6.378-11.362zM600.104 403.777c0 2.142-.108 4.24-.153 6.388h2.112c.08-.93.117-1.532.162-3.028h.067c.476.88 1.765 3.315 5.09 3.315 5.517 0 5.517-5.705 5.517-7.075v-13.814h-2.26v13.9c0 1.414 0 4.806-3.724 4.806-2.781 0-4.542-2.713-4.542-5.903v-12.803h-2.269zM620.144 415.014v-4.847h4.066v-2.183h-4.066v-13.42c0-1.648.279-3.108 2.188-3.108 1.056 0 1.451.252 1.878.445v-2.34c-.553-.207-1.563-.288-2.628-.288-2.925 0-3.71 2.345-3.71 4.65v14.06h-2.975v2.184h2.974v4.12z" style="fill:#58595b;fill-opacity:1;fill-rule:nonzero;stroke:none;stroke-width:4.4924" transform="matrix(1.7051 0 0 -1.7051 -171.051 1248.942)"/><path d="M634.855 417.757h2.43v-28.194h-2.43z" style="fill:#58595b;fill-opacity:1;fill-rule:nonzero;stroke:none;stroke-width:4.49239" transform="matrix(1.7051 0 0 -1.7051 -171.051 1248.942)"/><path d="M641.702 403.777c0 2.142-.13 4.24-.161 6.388h2.116c.076-.93.112-1.532.157-3.028h.076c.467.88 1.757 3.315 5.081 3.315 5.526 0 5.526-5.705 5.526-7.075v-13.814h-2.273v13.9c0 1.414 0 4.806-3.725 4.806-2.771 0-4.528-2.713-4.528-5.903v-12.803h-2.269zM666.696 407.41c-1.128.453-2.112.857-3.4.857-2.341 0-3.406-1.82-3.406-3.28 0-1.89.71-2.295 3.405-3.827 2.74-1.545 4.856-2.592 4.856-5.903 0-3.715-2.547-5.988-5.907-5.988-2.475 0-3.877.53-5.05.975l.31 2.628c.674-.485 2.71-1.415 4.542-1.415 2.152 0 3.675 1.693 3.675 3.553 0 1.977-1.204 2.79-3.553 3.998-3.37 1.739-4.708 2.83-4.708 5.742 0 3.881 3.225 5.7 5.876 5.7 1.33 0 2.933-.363 3.683-.606zM674.132 415.014v-4.847h4.075v-2.183h-4.075v-13.42c0-1.648.279-3.108 2.188-3.108 1.056 0 1.456.252 1.887.445v-2.34c-.548-.207-1.564-.288-2.628-.288-2.93 0-3.715 2.345-3.715 4.65v14.06h-2.97v2.184h2.97v4.12z" style="fill:#58595b;fill-opacity:1;fill-rule:nonzero;stroke:none;stroke-width:4.4924" transform="matrix(1.7051 0 0 -1.7051 -171.051 1248.942)"/><path d="M680.552 410.165h2.278v-20.602h-2.278zm-.238 8.199h2.745v-3.634h-2.745z" style="fill:#58595b;fill-opacity:1;fill-rule:nonzero;stroke:none;stroke-width:4.49239" transform="matrix(1.7051 0 0 -1.7051 -171.051 1248.942)"/><path d="M690.255 415.014v-4.847h4.075v-2.183h-4.075v-13.42c0-1.648.274-3.108 2.197-3.108 1.051 0 1.437.252 1.878.445v-2.34c-.553-.207-1.568-.288-2.62-.288-2.946 0-3.724 2.345-3.724 4.65v14.06h-2.978v2.184h2.978v4.12zM709.269 395.94c0-2.135.116-4.233.161-6.376h-2.12c-.072.921-.117 1.532-.144 3.015h-.085c-.243-.872-1.761-3.307-5.094-3.307-4.331 0-5.504 3.235-5.504 6.505v14.39h2.265v-13.904c0-1.411 0-4.807 3.715-4.807 2.776 0 4.542 2.709 4.542 5.903v12.808h2.264zM716.507 415.014v-4.847h4.066v-2.183h-4.066v-13.42c0-1.648.274-3.108 2.184-3.108 1.064 0 1.46.252 1.882.445v-2.34c-.544-.207-1.559-.288-2.62-.288-2.937 0-3.714 2.345-3.714 4.65v14.06h-2.97v2.184h2.97v4.12zM732.713 401.272c0 5.462-2.233 6.994-4.074 6.994-3.087 0-4.542-4.321-4.542-6.994zm-8.616-2.184c0-7.632 4.74-7.632 5.633-7.632 1.294 0 3.172.647 4.313 1.693l.103-2.704c-.934-.526-2.26-1.173-4.65-1.173-7.83 0-7.83 8.531-7.83 10.593 0 7.754 3.72 10.585 7.09 10.585 5.79 0 6.379-6.344 6.379-11.362z" style="fill:#58595b;fill-opacity:1;fill-rule:nonzero;stroke:none;stroke-width:4.4924" transform="matrix(1.7051 0 0 -1.7051 -171.051 1248.942)"/><path d="M398.626 441.705c-.027-.323-.108-.377-.207-.377h-34.506c-.01 0-.117.045-.14.265v.004c.006.027.006.05 0 .054V455.6c.014.112.032.153.059.166h34.726c.068-.04.023 0 .068-.117zm4.505 24.444h-.062c-.018 0-.036 0-.059-.004h-43.338c-2.22.004-4.151-.652-5.57-2-1.447-1.352-2.144-3.27-2.144-5.48 0-.01 0-.063.01-.099v-19.43c-.01.014-.01-.027-.01-.036 0-2.196.652-4.115 1.99-5.606 1.443-1.68 3.505-2.53 5.89-2.53v.005l43.293-.004h.027c2.143 0 4.048.894 5.342 2.583 1.186 1.41 1.824 3.198 1.833 5.193v20.009c0 2.044-.679 3.846-2.026 5.18-1.272 1.456-3.104 2.22-5.175 2.22m7.969 18.05v25.651l-.009.04c.009 2.05-.705 3.923-2.075 5.419-1.429 1.585-3.32 2.452-5.418 2.443H356.27l-.013-.009c-2.184-.107-3.94-1.868-4.007-4.065l-.01-.005V506.8h46.973c.068 0 .108-.009.135-.009.045-.08.14-.381.14-.84V484.2h-53.133a4.212 4.212 0 0 1-4.182-4.039v-.103l.009-.207-.009-6.123h75.28c2.313-.009 4.123 1.725 4.28 3.913l.014.01v6.55zM652.403 441.879h-50.19a.39.39 0 0 0-.377.4v2.992c.054.453.045.364.378.435h41.393c2.102 0 3.93.67 5.18 2.359 1.145 1.51 1.72 3.1 1.72 5.108v9.214c0 2.084-.575 3.935-1.738 5.409-1.335 1.635-3.222 2.506-5.378 2.497l-.063-.004h-47.3c-2.404 0-4.273-1.89-4.273-4.204v-6.079h47.17c.275-.067.203.04.257-.26v-3.778c-.036-.346-.072-.35-.306-.391h-40.643c.036-.01.01 0-.067 0-2.147.004-4.007-.665-5.35-2.017-1.37-1.37-2.017-3.042-2.017-5.301 0-.014 0-.077.009-.108l-.01-8.127v-.027c0-2.197.603-4.124 1.842-5.66 1.398-1.775 3.46-2.691 5.89-2.691h49.938l.022.027a4.21 4.21 0 0 1 3.93 4.196l-.017.175zm10.27 51.2v6.325h-12.74c-.405.027-.518.153-.571.553v18.693h-7.166l.063-.01c-2.435.023-4.313-1.873-4.313-4.204V473.14h7.471l.027.023a4.172 4.172 0 0 1 3.89 3.855l.028.013v.238l-.01.234.01 10.58c.054.691.157.74.368.754h8.652v-.005c2.413-.013 4.29 1.878 4.29 4.205zm-68.339-1.496c.014.162.031.18.225.202h19.353c.058 0 .184-.108.184-.189v-6.15c0-.202-.193-.337-.256-.337h-19.196c-.148.014-.31.117-.31.243v6.213l-.377.018zm-3.37-17.148h26.704c2.385 0 4.42.966 5.736 2.8 1.25 1.549 1.824 3.611 1.824 6.046v33.136h-6.855c-2.413.009-4.29-1.882-4.29-4.21l.013-.044v-9.439l-.013-.009c-.018-.256-.072-.256-.171-.265h-19.17c-.228.009-.408.153-.408.297v13.67h-6.94c-2.409.009-4.286-1.882-4.286-4.21l.009-.139-.01-29.25c0-2.394.62-4.438 1.982-5.948 1.388-1.608 3.445-2.399 5.867-2.426zM575.076 518.627h-6.937l-.018-.004a4.208 4.208 0 0 1-4.002-4.21l.005-.112v-20.508h-6.753l.013 24.834h-7.008a4.207 4.207 0 0 1-4.182-3.715h-.027v-.44l.009-.171-.009-83.137h7.287l.013.023a4.19 4.19 0 0 1 3.936 4.191l-.018.13v47.826h6.738V431.21h6.945l.036.018a4.194 4.194 0 0 1 3.94 3.828l.032.035v.301-.049l-.01.112h.01zm-39.52-4.295-.045-.004h-24.856l-.01-.004a4.22 4.22 0 0 1-4.011-4.061l-.01-.01v-6.868h23.581c.108 0 .19-.014.23-.018.062-.14.148-.436.139-.885 0 0-.01-.036 0-.09-.445-7.31-3.365-14.883-8.841-22.736-5.553-8.055-12.282-14.124-20.248-18.289l-.678-.359-.503-.252.876-1.02 4.488-5.098h.054c.746-.786 1.806-1.321 3-1.321.8 0 1.506.283 2.117.638.018 0 .107 0 .283.112 8.854 6.523 15.93 13.976 21.208 22.332 6.101 9.587 9.434 19.744 9.947 30.458 0 .135.009.243.009.378 0 1.765-.522 3.378-1.56 4.694-1.262 1.59-3.095 2.404-5.17 2.404M330.235 487.05l.004 22.8v.026c0 2.067-.723 3.936-2.075 5.436-1.429 1.586-3.302 2.44-5.405 2.435h-.018a.18.18 0 0 1-.067 0h-46.99c-2.418 0-4.313-1.878-4.313-4.21l.03-.139-.017-6.599h46.964c.067-.004.112-.013.148-.013.036-.09.121-.36.117-.769 0 0-.018-.076.035-.229l-.027-18.724-53.275-.014-.009-.004a4.205 4.205 0 0 1-4.003-3.975l-.013-.014v-.144l.009-.207-.01-6.222h32.975c.094 0 .076 0 .094.01v-10.347l-21.091-.004h-.004a4.22 4.22 0 0 1-4.192-4.223l.018-.125-.013-6.5h48.85c.292 0 .53-.023.683-.06.022 0 .04-.013.067-.017l.014-.01c.031-.098.08-.314.08-.642 0 0-.008-.13.046-.202l-.032-23.32h7.314c2.25 0 4.034 1.644 4.263 3.751h.036v22.974l-.009.036c0 2.435-.633 4.484-1.972 5.998-1.438 1.577-3.522 2.345-5.984 2.345h-.05c-.003-.004-.013-.004-.017-.004h-16.78l.004 10.35c0-.009 0 0 .09-.009h30.903l-.035-.004c2.412 0 4.29 1.874 4.299 4.2v6.37zM255.86 518.655h-6.774v.004c-2.39.01-4.282-1.882-4.282-4.218l.023-.112-.01-83.137h7.243v.04c2.062.23 3.598 1.825 3.769 3.806l.031.018v.314l-.009-.063-.004.117h.014zm-22.736 0-.004.004c-2.408.01-4.281-1.882-4.281-4.218l.013-.135-.009-27.457s-.004-.018-.004-.09c-.009-.436-.04-.44-.09-.616-.031-.018-.125-.031-.368-.044h-5.225c-2.408.009-4.299-1.874-4.299-4.205l.01-.09-.01-5.89h9.524c.341 0 .355-.072.368-.054.045-.031.104-.094.095-.507v-11.209l-.957.458c-5.476 2.718-9.51 6.362-12.188 10.989-2.201 3.84-3.289 7.83-3.289 12.022v1.518c.014.04.036.175.27.189h9.623c2.385 0 4.236 1.846 4.277 4.128l-.014.184.014 6.245h-36.465.063c-2.422 0-4.3-1.882-4.3-4.21l.018-.125-.013-6.222h14.497c.166.004.265-.014.328-.023.05-.004.067-.022.085-.022.014-.023.014-.086.014-.162v-1.6c0-4.613-1.609-9.173-4.937-13.724-3.558-4.856-8.249-8.562-14.116-11.168l-.781-.346-.58-.251 5.71-5.97h.01a4.192 4.192 0 0 1 2.874-1.16c.836 0 1.564.31 2.188.692.009-.009.09.014.243.09a63.977 63.977 0 0 1 8.44 7.049c2.746 2.803 4.956 5.606 6.64 8.44 1.515-2.65 3.186-5.004 5.023-7.057 2-2.26 4.39-4.447 7.17-6.55.234-.139.328-.126.39-.148a3.776 3.776 0 0 1 2.018-.606c1.217 0 2.287.548 3.046 1.365l.072.014 4.627 5.543v-32.534h7.075l.01.027c2.147.162 3.755 1.788 3.926 3.819l.031.018v.251l-.009.207.01 83.141zm-6.545-25.175v-.049zm-31.95 10.463h20.395l-.063.009.14.004v-.004a.14.14 0 0 1 .035.004l-.044-.014h.274l.013.027a4.214 4.214 0 0 1 3.89 4.196l-.026.162.009 6.667h-20.355c-2.39 0-4.277-1.878-4.277-4.205l.009-.036zM127.689 504.011c1.94 1.667 4.825 2.821 8.126 2.817h10.872c3.297.004 6.177-1.15 8.122-2.817 1.946-1.685 2.907-3.684 2.911-5.8-.004-2.12-.965-4.106-2.91-5.804-1.946-1.662-4.83-2.821-8.123-2.812h-10.872c-3.301-.009-6.186 1.15-8.126 2.812-1.95 1.698-2.907 3.684-2.916 5.804.01 2.116.966 4.115 2.916 5.8m8.126-25.472h10.872c11.568.018 21.936 8.1 22.09 19.672-.154 11.577-10.522 19.655-22.09 19.673h-10.872c-11.576-.018-21.95-8.096-22.102-19.673.157-11.572 10.526-19.654 22.102-19.672m45.082-4.313H105.67c-2.408 0-4.272-1.886-4.272-4.204l.032-.225-.004-6.433h32.605c.315-.014.562-.13.562-.36v-31.833h7.538-.031.009c2.417 0 4.299 1.887 4.299 4.21l-.027.148.014 27.278-.342.031h.337c0 .234.256.49.476.526h30.036l.027.04a4.19 4.19 0 0 1 3.945 3.931l.022.014v.148l-.009.14h.01zM686.807 508.284h8.814a7.915 7.915 0 0 0 7.92-7.88c-.018-4.326-3.536-7.857-7.92-7.861h-8.814c-4.394.005-7.911 3.535-7.925 7.862.014 4.34 3.531 7.875 7.925 7.88m0-26.802h8.814c10.458.009 18.976 8.454 18.985 18.922-.01 10.462-8.527 18.93-18.985 18.93h-8.814c-10.477 0-18.976-8.468-18.985-18.93.009-10.463 8.508-18.913 18.985-18.922m22.942-16.73a4.217 4.217 0 0 1-4.218-4.21v-6.356h16.357c.215-.023.296-.1.332-.458v-5.122h7.485l.045.059c2.075.161 3.737 1.823 3.858 3.917l.027.027v66.052h-7.106c-2.413.009-4.3-1.874-4.3-4.192l-.009-.009v-49.51c-.054-.225.027-.158-.157-.198zm-23.22-11.483h7.043v-.018c2.408-.004 4.295 1.887 4.295 4.219l-.014.152v8.963c0 .265.378.566.423.566h17.313l.018.022a4.202 4.202 0 0 1 3.967 4.192l-.018.125.018 6.519H667.18c-2.327 0-4.137-1.752-4.25-3.958l-.017-.022v-6.878h22.92c.462-.027.696-.225.696-.544zm-2.404 5.44h-7.305l-.009-.003c-2.318-.077-4.12-1.932-4.128-4.219l.018-.148-.01-13.99c0-2.434.589-4.555 1.829-6.23 1.397-1.928 3.634-2.893 6.307-2.893h50.661-.058l.206.013-.072-.013h.279l.018.013a4.202 4.202 0 0 1 3.85 3.904l.027.027v6.716h-50.576c-.624 0-1.037.431-1.037.818zm25.678 6.043h.036z" style="fill:#231f20;fill-opacity:1;fill-rule:nonzero;stroke:none;stroke-width:4.4924" transform="matrix(1.7051 0 0 -1.7051 -171.051 1248.942)"/><path d="M457.769 509.276h9.564c5.332-.032 9.043-3.904 9.043-7.88 0-3.967-3.702-7.84-9.043-7.862h-9.564c-5.35.023-9.044 3.895-9.053 7.862.01 3.985 3.711 7.848 9.053 7.88m0-26.802h9.564c10.75.018 20.036 8.104 20.108 18.922-.072 10.827-9.349 18.918-20.108 18.936h-9.564c-10.764-.018-20.032-8.11-20.104-18.936.072-10.818 9.34-18.904 20.104-18.922m18.517-39.928c-1.923-1.514-4.905-2.633-8.31-2.628h-10.863c-3.401-.004-6.384 1.114-8.298 2.628-1.95 1.558-2.736 3.23-2.745 4.86.01 1.622.795 3.293 2.745 4.852 1.914 1.519 4.897 2.637 8.298 2.628h10.862c3.406.01 6.388-1.11 8.311-2.628 1.941-1.559 2.732-3.23 2.732-4.852 0-1.63-.791-3.302-2.732-4.86M452 469.832h21.955c.022 0 .045 0 .08-.009l-.026-4.65c-1.937.455-3.936.774-6.034.774h-10.862c-1.761 0-3.455-.23-5.113-.553zm-24.416 10.571a4.188 4.188 0 0 1-4.182-3.953l-.027-.027v-.22l.009.063v-.198l-.01-6.236h17.395v-5.166l.018-.022c.045-1.397.787-2.548 1.815-3.289-.197-.144-.422-.251-.624-.404-4.057-3.15-6.972-7.983-6.954-13.545-.018-5.566 2.897-10.4 6.954-13.549 4.079-3.185 9.384-4.982 15.135-4.995h10.862c5.755.013 11.056 1.81 15.144 4.995 4.061 3.15 6.968 7.983 6.959 13.55.009 5.56-2.898 10.395-6.959 13.544-.022.027-.058.036-.094.058 1.28.656 2.197 1.923 2.296 3.437l.04.031v5.355h13.585v.014a4.202 4.202 0 0 1 3.971 3.913l.01.009v6.635z" style="fill:#231f20;fill-opacity:1;fill-rule:nonzero;stroke:none;stroke-width:4.4924" transform="matrix(1.7051 0 0 -1.7051 -171.051 1248.942)"/></svg>