<svg xmlns="http://www.w3.org/2000/svg" width="911.30719pt" height="149.99998pt" viewBox="0 0 911.30718 149.99997"><g transform="translate(-130.075 -266.326) scale(1.41876)"><clipPath id="a"><path d="M0 0h841.89v595.28H0Z"/></clipPath><g clip-path="url(#a)"><path fill="#a14a00" d="M251.51 235.92c0 .852-.291 1.578-.875 2.178-.585.6-1.302.9-2.154.9h-3.078v-21.735h6.108Zm-6.107 12.216v-3.362h-21.12v-4.073h27.228v11.506h-21.355v3.6h22.302v4.072H226.84c-.821 0-1.491-.26-2.013-.78-.52-.522-.78-1.194-.78-2.014v-8.949zm-22.871-20.267c0 1.99.529 3.482 1.586 4.475 1.058.994 2.345 1.492 3.859 1.492 1.515 0 2.794-.505 3.836-1.515 1.042-1.01 1.562-2.494 1.562-4.452 0-1.956-.52-3.439-1.562-4.45-1.042-1.01-2.321-1.516-3.836-1.516-1.514 0-2.801.506-3.86 1.516-1.056 1.011-1.585 2.494-1.585 4.45m-5.682.048c0-1.61.3-3.038.9-4.285a9.874 9.874 0 0 1 2.415-3.196c1.01-.852 2.194-1.507 3.55-1.965a13.232 13.232 0 0 1 4.262-.687c1.484 0 2.896.23 4.239.687a11.422 11.422 0 0 1 3.574 1.965 9.888 9.888 0 0 1 2.415 3.196c.6 1.247.9 2.675.9 4.285 0 1.61-.3 3.038-.9 4.285a9.398 9.398 0 0 1-2.415 3.15 10.92 10.92 0 0 1-3.574 2.011 13.038 13.038 0 0 1-4.24.688c-1.483 0-2.903-.23-4.26-.688-1.357-.457-2.541-1.128-3.551-2.01a9.385 9.385 0 0 1-2.415-3.15c-.6-1.248-.9-2.676-.9-4.286M292.232 217.263h-5.635v42.616h2.84c.79 0 1.453-.301 1.99-.9.536-.6.805-1.325.805-2.178zm-19.51 13.969h5.542v28.647h2.65c.853 0 1.57-.301 2.155-.9.584-.6.876-1.31.876-2.13v-39.586h-5.681v9.896h-5.541zm-16.003-12.548h18.467v4.072h-6.014v3.03c0 2.083.276 3.987.829 5.706.552 1.72 1.238 3.259 2.06 4.617.82 1.358 1.696 2.517 2.628 3.48.93.964 1.759 1.729 2.486 2.297l-2.984 3.55c-.663-.378-1.405-.954-2.225-1.728a24.836 24.836 0 0 1-2.368-2.58 23.66 23.66 0 0 1-2.107-2.841c-.615-.978-1.034-1.863-1.255-2.652-.253.916-.671 1.879-1.254 2.889a21.076 21.076 0 0 1-2.013 2.887 30.423 30.423 0 0 1-2.367 2.558c-.822.789-1.595 1.437-2.32 1.942l-2.984-3.551c.915-.663 1.847-1.493 2.794-2.487.947-.994 1.815-2.186 2.604-3.575.758-1.356 1.38-2.904 1.87-4.64.49-1.735.735-3.694.735-5.872v-3.03h-6.582zM330.112 237.671c0 .822-.292 1.532-.876 2.131-.584.6-1.302.9-2.154.9h-3.078v-23.439h6.108v8.523h6.156v4.072h-6.156Zm-18.372 12.501c0 .978.15 1.863.45 2.651.3.79.717 1.468 1.255 2.036a5.045 5.045 0 0 0 1.799 1.302 5.532 5.532 0 0 0 2.225.451c.789 0 1.539-.15 2.249-.45a5.007 5.007 0 0 0 1.824-1.303 6.518 6.518 0 0 0 1.207-2.036c.3-.788.45-1.673.45-2.65 0-.979-.15-1.863-.45-2.652a6.546 6.546 0 0 0-1.207-2.037 5.005 5.005 0 0 0-1.824-1.3 5.703 5.703 0 0 0-2.25-.45c-.788 0-1.53.148-2.224.45a5.042 5.042 0 0 0-1.8 1.3 6.057 6.057 0 0 0-1.254 2.037c-.3.79-.45 1.673-.45 2.651m-5.92.048c0-1.61.316-3.062.948-4.358a10.697 10.697 0 0 1 2.557-3.36c1.042-.916 2.265-1.626 3.67-2.132a13.149 13.149 0 0 1 4.474-.757c1.579 0 3.079.253 4.499.757 1.42.506 2.667 1.216 3.74 2.131a11.066 11.066 0 0 1 2.51 3.361c.63 1.296.947 2.747.947 4.358 0 1.61-.316 3.061-.947 4.356a11.066 11.066 0 0 1-2.51 3.361c-1.073.915-2.32 1.626-3.74 2.13-1.42.506-2.92.758-4.5.758-1.577 0-3.068-.252-4.473-.758-1.405-.504-2.628-1.215-3.67-2.13a10.697 10.697 0 0 1-2.557-3.36c-.632-1.296-.947-2.748-.947-4.357m-8.902-14.49a32.997 32.997 0 0 0 5.399-1.68c1.735-.712 3.282-1.587 4.64-2.629 1.325-1.01 2.39-2.186 3.196-3.527.805-1.342 1.208-2.849 1.208-4.523v-.615H297.44v-4.072h19.887v4.735c0 2.4-.576 4.522-1.73 6.37a17.48 17.48 0 0 1-4.38 4.758 24.748 24.748 0 0 1-5.894 3.29c-2.13.837-4.175 1.461-6.131 1.87z"/><path fill="#a14a00" d="M371.78 217.263h-5.635v42.616h2.84c.79 0 1.453-.301 1.99-.9.536-.6.805-1.325.805-2.178zm-19.51 13.969h5.542v28.647h2.65c.853 0 1.57-.301 2.155-.9.584-.6.876-1.31.876-2.13v-39.586h-5.681v9.896h-5.541zm-16.003-12.548h18.467v4.072h-6.014v3.03c0 2.083.276 3.987.829 5.706.552 1.72 1.238 3.259 2.06 4.617.82 1.358 1.696 2.517 2.628 3.48.93.964 1.759 1.729 2.486 2.297l-2.984 3.55c-.663-.378-1.405-.954-2.225-1.728a24.836 24.836 0 0 1-2.368-2.58 23.66 23.66 0 0 1-2.107-2.841c-.615-.978-1.034-1.863-1.255-2.652-.253.916-.671 1.879-1.254 2.889a21.076 21.076 0 0 1-2.013 2.887 30.423 30.423 0 0 1-2.367 2.558c-.822.789-1.595 1.437-2.32 1.942l-2.984-3.551c.915-.663 1.847-1.493 2.794-2.487.947-.994 1.815-2.186 2.604-3.575.758-1.356 1.38-2.904 1.87-4.64.49-1.735.735-3.694.735-5.872v-3.03h-6.582zM389.11 251.64c0 .82.134 1.603.402 2.344a5.623 5.623 0 0 0 1.207 1.966c.537.535 1.2.969 1.99 1.3.788.332 1.704.498 2.746.498s1.948-.166 2.722-.497a6.237 6.237 0 0 0 1.966-1.301 6.037 6.037 0 0 0 1.16-1.966 6.864 6.864 0 0 0 .402-2.343c0-.821-.135-1.603-.402-2.345a6.032 6.032 0 0 0-1.16-1.965 5.835 5.835 0 0 0-1.966-1.35c-.774-.33-1.68-.496-2.722-.496s-1.958.166-2.746.497c-.79.332-1.453.78-1.99 1.349a5.618 5.618 0 0 0-1.207 1.965 6.851 6.851 0 0 0-.402 2.345m-6.014.047c0-1.358.252-2.62.758-3.79.505-1.166 1.278-2.193 2.32-3.076 1.01-.853 2.289-1.532 3.835-2.036 1.547-.505 3.363-.758 5.446-.758 2.083 0 3.89.253 5.422.758 1.53.504 2.817 1.183 3.859 2.036 1.009.883 1.767 1.91 2.272 3.077.505 1.169.758 2.43.758 3.789a9.324 9.324 0 0 1-.758 3.74c-.505 1.167-1.263 2.194-2.272 3.077-1.042.853-2.33 1.532-3.86 2.036-1.531.505-3.338.758-5.421.758s-3.9-.253-5.446-.758c-1.546-.504-2.825-1.183-3.835-2.036-1.042-.883-1.815-1.91-2.32-3.077a9.307 9.307 0 0 1-.758-3.74m27.038-19.462h-11.65v3.409h16.668v4.072h-39.395v-4.072h16.62v-3.41h-8.523c-.852 0-1.58-.3-2.178-.898a2.966 2.966 0 0 1-.9-2.178v-11.886h28.883v4.072h-22.727v6.82h23.202zM434.755 242.785h9.518v-25.522h6.108v28.6c0 .853-.292 1.578-.876 2.18-.584.598-1.302.897-2.154.897h-3.078v-2.083h-9.518Zm-12.453-16.289c0 .663.142 1.225.427 1.681.284.46.677.83 1.183 1.113a6.225 6.225 0 0 0 1.729.64 9.885 9.885 0 0 0 2.107.211c1.515 0 2.793-.29 3.835-.875 1.04-.584 1.563-1.507 1.563-2.77 0-1.262-.522-2.186-1.563-2.77-1.042-.584-2.32-.876-3.835-.876-.758 0-1.461.072-2.107.213a6.256 6.256 0 0 0-1.73.64 3.611 3.611 0 0 0-1.182 1.16c-.285.457-.427 1.003-.427 1.633m28.553 28.837v4.071h-25.806a2.966 2.966 0 0 1-2.18-.899c-.598-.6-.898-1.31-.898-2.13v-9.044h6.156v8.002zm-34.187-28.837c0-1.262.299-2.374.899-3.338.599-.963 1.405-1.775 2.416-2.438 1.009-.664 2.184-1.16 3.527-1.492a17.58 17.58 0 0 1 4.238-.497c1.515 0 2.943.165 4.285.497 1.34.331 2.517.828 3.528 1.492 1.009.663 1.814 1.475 2.414 2.438.599.964.9 2.076.9 3.338 0 1.263-.301 2.384-.9 3.362-.6.98-1.405 1.8-2.414 2.463-1.011.662-2.187 1.16-3.528 1.491-1.342.332-2.77.496-4.285.496a17.58 17.58 0 0 1-4.238-.496c-1.343-.33-2.518-.829-3.527-1.49-1.011-.664-1.817-1.484-2.416-2.464-.6-.978-.9-2.099-.9-3.362m-.851 13.685v-4.073h25.853v4.073h-11.46v2.131c0 .852-.292 1.578-.875 2.178-.585.6-1.303.9-2.154.9h-3.078v-5.209zM490.156 256.801c0 .853-.294 1.578-.877 2.179-.584.598-1.303.899-2.154.899h-3.078v-42.616h6.11Zm-25.144-15.39h4.688v-18.655h-4.688zm-9.423-22.727h23.534v4.072h-3.788v18.655h4.26v4.026h-24.479v-4.026h4.262v-18.655h-3.789zM530.876 256.801c0 .853-.268 1.578-.805 2.179-.537.598-1.2.899-1.989.899h-2.841v-27.18h-2.65v24.15c0 .82-.292 1.53-.877 2.131-.584.598-1.302.899-2.154.899h-2.652v-42.616h5.683v11.364h2.65v-11.364h5.635Zm-25.616-14.727c.536 0 1.017-.188 1.444-.568.427-.378.796-.899 1.112-1.562.285-.663.505-1.436.664-2.32.158-.884.236-1.814.236-2.794 0-.978-.078-1.909-.236-2.794-.159-.883-.379-1.656-.664-2.319-.316-.663-.685-1.191-1.112-1.587-.427-.393-.908-.592-1.444-.592-.537 0-1.018.199-1.445.592-.426.396-.781.924-1.065 1.587-.316.663-.553 1.436-.71 2.319a15.787 15.787 0 0 0-.236 2.794c0 .98.077 1.91.236 2.794.157.884.394 1.657.71 2.32.284.663.639 1.184 1.065 1.562.427.38.908.568 1.445.568m-10.369-15.909v-4.12h7.623v-4.782h5.729v4.782h7.245v4.12h-3.268a14.096 14.096 0 0 1 1.706 3.718c.409 1.373.614 2.848.614 4.426a17.3 17.3 0 0 1-.614 4.664c-.411 1.468-.995 2.739-1.753 3.812a8.665 8.665 0 0 1-2.911 2.605c-1.153.632-2.487.946-4.002.946-1.516 0-2.858-.314-4.025-.946a8.156 8.156 0 0 1-2.888-2.605c-.789-1.073-1.39-2.344-1.8-3.812a17.3 17.3 0 0 1-.615-4.664c0-1.578.197-3.053.592-4.426a12.764 12.764 0 0 1 1.728-3.718zM568.757 233.173h6.154v-4.072h-6.154v-11.838h-6.11v42.616h3.079c.852 0 1.57-.3 2.154-.899.585-.6.877-1.327.877-2.179zm-33.62-14.489h21.78v4.072H549.2v3.03c0 2.021.26 3.852.782 5.493.52 1.642 1.208 3.124 2.059 4.451a17.624 17.624 0 0 0 2.936 3.504 27.6 27.6 0 0 0 3.457 2.7l-2.984 3.503c-.568-.315-1.301-.82-2.202-1.515a28.268 28.268 0 0 1-2.721-2.416 24.71 24.71 0 0 1-2.628-2.864c-.805-1.026-1.413-2.028-1.824-3.007-.411 1.137-1.017 2.25-1.823 3.338a26.549 26.549 0 0 1-2.58 3.008 33.11 33.11 0 0 1-2.77 2.414c-.9.695-1.633 1.201-2.202 1.516l-2.983-3.505a24.324 24.324 0 0 0 3.456-2.77 18.943 18.943 0 0 0 2.937-3.62c.852-1.359 1.538-2.89 2.059-4.595.522-1.704.78-3.582.78-5.635v-3.03h-7.811z"/><path fill="#a14a00" d="M609.477 217.263h-6.108v42.616h3.08c.85 0 1.569-.301 2.153-.9.584-.6.876-1.325.876-2.178zm-34.565 1.42h21.781v4.073h-7.719v3.03c0 2.02.261 3.852.782 5.494.521 1.64 1.207 3.124 2.06 4.45a17.586 17.586 0 0 0 2.935 3.504 27.663 27.663 0 0 0 3.456 2.699l-2.982 3.504c-.568-.315-1.302-.82-2.202-1.515a28.161 28.161 0 0 1-2.723-2.416 24.98 24.98 0 0 1-2.628-2.864c-.804-1.025-1.413-2.027-1.822-3.007-.41 1.137-1.019 2.25-1.823 3.338a26.549 26.549 0 0 1-2.58 3.008 33.122 33.122 0 0 1-2.772 2.414c-.899.695-1.633 1.2-2.2 1.516l-2.983-3.504a24.382 24.382 0 0 0 3.455-2.771 18.905 18.905 0 0 0 2.937-3.621c.852-1.357 1.538-2.89 2.06-4.594.52-1.704.781-3.582.781-5.635v-3.03h-7.813zM633.626 242.785h9.517v-25.522h6.109v28.6c0 .853-.293 1.578-.877 2.18-.584.598-1.302.897-2.153.897h-3.079v-2.083h-9.517Zm-12.453-16.289c0 .663.141 1.225.426 1.681.285.46.678.83 1.184 1.113a6.218 6.218 0 0 0 1.728.64 9.882 9.882 0 0 0 2.106.211c1.516 0 2.794-.29 3.837-.875 1.041-.584 1.563-1.507 1.563-2.77 0-1.262-.522-2.186-1.563-2.77-1.043-.584-2.321-.876-3.837-.876-.757 0-1.46.072-2.106.213a6.249 6.249 0 0 0-1.728.64 3.624 3.624 0 0 0-1.184 1.16c-.285.457-.426 1.003-.426 1.633m28.553 28.837v4.071H623.92c-.854 0-1.58-.299-2.179-.899-.6-.6-.9-1.31-.9-2.13v-9.044h6.156v8.002zm-34.188-28.837c0-1.262.3-2.374.9-3.338.599-.963 1.405-1.775 2.414-2.438 1.011-.664 2.187-1.16 3.528-1.492a17.584 17.584 0 0 1 4.237-.497c1.516 0 2.945.165 4.286.497 1.342.331 2.517.828 3.528 1.492 1.009.663 1.815 1.475 2.415 2.438.599.964.899 2.076.899 3.338 0 1.263-.3 2.384-.899 3.362-.6.98-1.406 1.8-2.415 2.463-1.011.662-2.186 1.16-3.528 1.491-1.341.332-2.77.496-4.286.496-1.483 0-2.895-.164-4.237-.496-1.341-.33-2.517-.829-3.528-1.49-1.009-.664-1.815-1.484-2.414-2.464-.6-.978-.9-2.099-.9-3.362m-.851 13.685v-4.073h25.852v4.073H629.08v2.131c0 .852-.292 1.578-.876 2.178-.584.6-1.302.9-2.153.9h-3.079v-5.209zM689.972 217.263h-5.635v11.364h-3.125v-11.364h-5.681v42.616h2.652c.85 0 1.569-.301 2.153-.9.584-.6.876-1.31.876-2.13v-24.15h3.125v27.18h2.84c.79 0 1.453-.301 1.99-.9.537-.6.805-1.325.805-2.178zm-35.512 1.42h18.466v4.073h-6.014v3.03c0 2.083.277 3.987.83 5.706.55 1.72 1.239 3.259 2.059 4.617.82 1.358 1.697 2.517 2.628 3.48.93.964 1.76 1.729 2.485 2.297l-2.982 3.55c-.663-.378-1.405-.954-2.226-1.728a24.829 24.829 0 0 1-2.367-2.58 23.447 23.447 0 0 1-2.107-2.841c-.616-.978-1.034-1.863-1.255-2.652-.253.916-.671 1.879-1.254 2.889a21.172 21.172 0 0 1-2.014 2.887 30.59 30.59 0 0 1-2.367 2.558c-.82.789-1.594 1.437-2.32 1.942l-2.983-3.551c.915-.663 1.846-1.493 2.794-2.487.947-.994 1.815-2.186 2.604-3.575.758-1.356 1.38-2.904 1.87-4.64.49-1.735.734-3.694.734-5.872v-3.03h-6.581zM728.326 255.333v4.071h-24.858c-.853 0-1.58-.299-2.178-.899-.602-.6-.9-1.31-.9-2.13V244.49h6.156v10.843Zm-.473-9.47c0 .853-.292 1.578-.876 2.18-.585.6-1.3.897-2.155.897h-3.077v-10.322h-23.534c-.82 0-1.53-.3-2.13-.899a2.965 2.965 0 0 1-.9-2.179v-16.383h19.887v4.072h-13.73v11.318h20.407v-17.284h6.108v10.418h6.155v4.072h-6.155zM144.545 187.717c-29.149 0-52.863 23.717-52.863 52.864 0 29.152 23.714 52.862 52.863 52.862 29.15 0 52.861-23.71 52.861-52.862 0-29.147-23.712-52.864-52.86-52.864"/><path fill="#004a42" d="M144.545 289.636c-27.048 0-49.05-22.006-49.05-49.055s22.002-49.052 49.05-49.052 49.051 22.003 49.051 49.052-22.003 49.055-49.05 49.055"/><path fill="#fff" d="M108.125 252.458c-.109-.047-.173-.229-.153-.353l.194-1.055-2.827-1.422 2.575 8.661 1.187-5.403zm.446 5.831 5.852-3.222-4.759-2.007zm5.913-3.9-4.84-7.473-1.073 5.048Zm-6.21-3.906-2.818-1.375 3.684-2.325ZM173.798 258.767c-4.995-.721-8.65 1.387-8.804 1.48a.222.222 0 0 0-.09.279.234.234 0 0 0 .169.134.289.289 0 0 0 .095-.01c1.237-.36 2.462-.456 3.635-.287 4.16.597 6.476 4.385 6.5 4.424a.226.226 0 0 0 .157.105.33.33 0 0 0 .088-.006l6.419-1.814a.224.224 0 0 0 .085-.383c-2.544-2.183-5.321-3.502-8.254-3.922m11.84-3.314c-3.14-1.821-6.21-2.96-9.12-3.378-5.703-.825-9.988 1.21-13.08 3.075-4.726 2.847-11.933 6.765-20.297 5.85-.228-.03-.457-.055-.685-.088-7.162-1.028-12.954-5.915-16.391-8.692-.515-.412-.975-.787-1.375-1.095-2.67-2.045-6.516-2.885-7.804-3.118.93-.87 2.97-3.622 7.036-3.794 3.502-.148 9.202 1.533 10.44 2.068a2.507 2.507 0 0 0 .31.1.222.222 0 0 0 .1-.432l-.264-.085c-.44-.172-1.143-.554-2.033-1.037-2.297-1.241-5.041-2.62-7.855-3.026a6.386 6.386 0 0 0-.388-.047c-4.211-.406-7.398 2.77-8.928 4.293l-.031.032c-1.455 1.447-3.358 3.242-3.377 3.26a.23.23 0 0 0-.056.24.22.22 0 0 0 .172.143h.02s.882.04 2.105.216c1.503.218 3.66.659 5.39 1.523 1.87.94 3.483 2.399 5.925 4.607 1.9 1.714 4.264 3.85 7.618 6.526 2.66 2.129 6.065 2.805 9.797 3.297 5.37.703 11.588-1.06 15.633-3.767 5.188-3.47 10.303-6.872 14.804-7.732 1.445-.28 3.432-.241 5.9.116 3.264.469 6.234 1.34 6.265 1.347a.094.094 0 0 0 .026.01.226.226 0 0 0 .235-.137.218.218 0 0 0-.092-.275m-45.134-6.45c.646-3.812 2.4-9.515 5.982-12.89 5.376-5.063 12.166-7.325 18.76-8.51 5.443-.976 9.554-2.66 10.809-3.39-.586 2.01-4.08 12.226-8.433 17.113-5.817 6.528-16.246 11.139-16.36 11.196a.227.227 0 0 0-.12.259.186.186 0 0 0 .156.137c.02 0 .042 0 .06-.01 4.467-1.184 17.322-6.225 23.125-15.208 4.912-7.604 7.83-18.768 8.557-21.765.112-.472-.366-.778-.823-.472-1.752 1.17-6.39 4.097-10.87 5.36-4.98 1.406-21.005 5.488-26.721 13.484-3.667 5.132-4.557 11.495-4.742 15.259-.093 1.935.299 1.302.62-.562m-30.272-34.7c0-.036.022-.073.06-.091 0 0 .028-.005.043-.005.028.005.049.01.066.028.03.028 3.342 3.434 10.524 4.706 7.152 1.26 17.606 8.092 18.422 17.22.007.055-.03.099-.082.109-.07-.01-.102-.035-.114-.07-.102-.272-2.298-6.913-7.345-9.725-4.154-2.321-9.655-3.7-11.86-4.114-.537-.106-.932-.178-1.151-.242-.034-.01-2.582-.508-4.073-1.437l-.194-.121.044.225c.243 1.297 1.936 6.475 4.099 8.856 1.18 1.3 2.126 2.289 3.166 3.202 1.41 1.23 2.486 2.474 3.383 3.917l.11.17c.159.26.305.492.383.639-.177-.112-.493-.345-.87-.618a95.773 95.773 0 0 0-5.893-4.013c-6.482-4.096-8.688-15.253-8.718-18.635"/></g></g></svg>