<svg xmlns="http://www.w3.org/2000/svg" xml:space="preserve" width="1092.3807" height="300" viewBox="0 0 1092.3807 299.99999"><path d="M300.89 609.299h-66.714v1.955h66.714z" style="fill:#c8c7c7;fill-opacity:1;fill-rule:nonzero;stroke:none" transform="matrix(2.4187 0 0 -2.4187 -183.882 1682.295)"/><path d="M240.12 650.585c0-1.473.585-2.73 1.756-3.772 1.17-1.043 2.672-1.562 4.506-1.562 1.861 0 3.368.52 4.528 1.562 1.157 1.042 1.737 2.3 1.737 3.772 0 1.45-.58 2.694-1.737 3.736-1.16 1.042-2.667 1.562-4.528 1.562-1.81 0-3.307-.52-4.488-1.562-1.183-1.042-1.774-2.286-1.774-3.736m6.262 8.005c2.994 0 5.672-.71 8.04-2.134 2.364-1.424 3.547-3.38 3.547-5.87s-1.189-4.453-3.566-5.89c-2.378-1.434-5.05-2.152-8.02-2.152-2.969 0-5.644.718-8.02 2.152-2.378 1.437-3.567 3.4-3.567 5.89 0 2.49 1.183 4.446 3.55 5.87 2.365 1.423 5.045 2.134 8.036 2.134m2.534-21.535v-9.87c0-.789-.253-1.5-.76-2.135-.507-.634-1.12-.953-1.844-.953h-1.594c-.313 0-.543.071-.689.21-.144.14-.218.375-.218.704v12.044H232.95c-.65 0-1.037.044-1.158.133-.12.09-.276.248-.47.478l-1.16 1.638c-.217.431-.217.763 0 .99.217.23.507.244.87.04.627-.306 1.184-.492 1.664-.554.484-.063 1.124-.094 1.921-.094h26.577c1.087 0 1.627-.439 1.627-1.314 0-.878-.54-1.317-1.627-1.317zM291.933 659.163l5.178-.763c.386-.052.603-.173.65-.363.05-.191.073-.324.073-.4V627.07c0-.787-.23-1.48-.686-2.077-.46-.6-1.051-.896-1.775-.896h-.976c-.317 0-.544.07-.691.209-.143.14-.216.376-.216.705v30.3c0 .789-.157 1.34-.47 1.659-.314.316-.7.604-1.16.857-.554.355-.771.679-.651.972.12.292.364.413.724.363m-4.925-16.542h-3.475a.914.914 0 0 0-.436.096.688.688 0 0 0-.288.285l-1.16 1.638a1.535 1.535 0 0 0-.271.629c-.037.217.03.414.198.59.267.28.67.294 1.215.04.543-.253 1.066-.382 1.576-.382h2.64v9.453c0 .786-.156 1.335-.47 1.638-.313.305-.7.585-1.157.839-.483.279-.708.59-.672.935.037.342.286.475.743.4l5.178-.764c.387-.052.604-.172.654-.362.046-.19.07-.325.07-.4v-29.804c0-.786-.23-1.481-.687-2.077-.46-.598-1.05-.896-1.774-.896h-.977c-.314 0-.544.07-.69.209-.144.14-.217.376-.217.705zm-9.703-1.64c-.99-1.702-2.088-3.181-3.295-4.44-1.207-1.256-2.343-2.18-3.404-2.761-.603-.332-1.081-.371-1.43-.116-.351.254-.26.685.27 1.296a23.908 23.908 0 0 1 4.329 7.3c1 2.68 1.61 5.24 1.829 7.678h-3.441c-.556 0-.912.058-1.068.173a3.092 3.092 0 0 0-.525.514l-1.304 1.905c-.24.433-.248.737-.018.914.229.178.5.19.815.039.557-.28 1.079-.457 1.575-.532.494-.077 1.199-.116 2.119-.116h1.99c-.023 1.043-.132 1.85-.326 2.42a2.995 2.995 0 0 1-.94 1.392c-.243.204-.374.475-.4.82-.023.342.183.499.617.476.072 0 .663-.063 1.774-.191 1.109-.128 2.293-.253 3.547-.381.313-.026.533-.094.653-.21.12-.114.167-.287.144-.514l-.107-3.812h3.548c.917 0 1.377-.483 1.377-1.447 0-.967-.46-1.45-1.377-1.45h-3.765a20.577 20.577 0 0 0-.708-3.297 23.632 23.632 0 0 0-1.176-3.106c.484-.661.923-1.176 1.323-1.544.397-.37.788-.716 1.175-1.048.483-.405.943-.705 1.377-.896.433-.188.7-.4.797-.627.65-.966 1.12-1.9 1.41-2.803.29-.901.23-1.62-.18-2.153-.313-.382-.723-.595-1.23-.648-.507-.05-1.074.165-1.704.648-.747.612-1.471 1.48-2.171 2.613-.7 1.128-1.4 2.432-2.1 3.905M324.375 642.81v-5.906h8.509c.266 0 .455-.057.561-.172.111-.115.165-.311.165-.59v-7.815c0-1.244-.266-2.26-.797-3.049-.533-.787-1.233-1.18-2.1-1.18h-1.377c-.314 0-.557.07-.724.209-.17.14-.253.375-.253.704v9.3h-16.438c-.557 0-.912.058-1.068.17a3.31 3.31 0 0 0-.526.515l-1.16 1.565c-.167.33-.175.601-.016.818.158.217.379.274.669.172.604-.253 1.117-.426 1.539-.514a6.95 6.95 0 0 1 1.429-.134h6.265v5.907h-10.426c-.653 0-1.04.044-1.16.133-.12.09-.278.25-.471.478l-1.123 1.754c-.217.43-.217.76 0 .99.217.228.507.24.87.04.627-.307 1.115-.498 1.466-.573.35-.076 1.045-.115 2.082-.115h17.345c.193.862.354 2.095.488 3.696.133 1.602.186 3.355.162 5.26h-15.678c-.58.025-.948.075-1.105.153-.156.077-.332.228-.525.458l-1.194 1.562c-.217.431-.222.755-.018.972.206.214.488.222.851.018.627-.305 1.134-.475 1.521-.514.386-.037 1.097-.058 2.136-.058h18.466c.507-.024.844-.227 1.014-.608a2.35 2.35 0 0 0 .181-1.22c-.194-2.16-.544-4.051-1.051-5.68-.507-1.625-1.111-2.974-1.811-4.039h5.072c1.084 0 1.626-.452 1.626-1.353s-.542-1.353-1.626-1.353zM353.123 650.625c0-.408.086-.692.254-.857.169-.167.459-.248.869-.248h10.464c.41 0 .694.088.851.266.157.178.236.47.236.875v4.881h-12.674zm17.852-1.181c0-.763-.212-1.33-.632-1.698-.424-.369-1.166-.552-2.229-.552h-17.126c-1.11 0-1.883.191-2.317.573-.436.381-.652.938-.652 1.677v4.611c0 .559-.084.995-.254 1.314a2.353 2.353 0 0 1-.651.781c-.313.204-.63.382-.943.533-.314.154-.47.306-.47.46 0 .151.031.311.091.476.06.164.212.248.452.248h24.007c.267 0 .452-.058.561-.173.108-.115.163-.311.163-.59zm-14.195-8.005h-11.079c-.65 0-1.037.044-1.157.133-.123.089-.28.249-.471.476l-1.233 1.601c-.217.432-.217.763 0 .991.22.23.507.242.87.039.627-.306 1.134-.484 1.52-.533.387-.053 1.098-.076 2.138-.076h27.154c1.087 0 1.63-.439 1.63-1.317 0-.875-.543-1.314-1.63-1.314h-12.31v-3.125h7.966c.266 0 .452-.057.561-.172.11-.115.162-.311.162-.59v-5.604c0-.457-.148-.852-.452-1.181-.3-.329-.658-.496-1.068-.496h-15.569v-2.02c0-.227.048-.405.144-.533.097-.128.277-.217.544-.266h15.824c.844 0 1.267-.421 1.267-1.26 0-.838-.423-1.256-1.267-1.256h-17.671c-1.858 0-3.017.363-3.474 1.086-.46.724-.691 1.607-.691 2.65v.99c0 .966-.373 1.531-1.12 1.695-.75.165-1.124.453-1.124.857 0 .256.061.413.181.478a.938.938 0 0 0 .436.095h18.682v3.012h-15.931c-.556 0-.949.049-1.176.151a1.77 1.77 0 0 0-.634.497l-1.158 1.714c-.193.253-.211.514-.055.78.157.269.379.325.669.173.556-.23 1.045-.418 1.469-.572.419-.152 1.005-.228 1.754-.228h6.299zM387.559 654.282c-.483 0-.88.026-1.193.08-.317.048-.58.213-.797.492l-1.268 1.907a.885.885 0 0 0-.11.742c.074.267.314.298.724.097.604-.282 1.165-.452 1.685-.515.518-.065 1.226-.096 2.116-.096h19.446c.266 0 .439-.076.525-.228.083-.154.125-.357.125-.61v-6.746c0-.484-.125-.852-.38-1.105-.252-.254-.61-.382-1.067-.382h-15.858v-2.477c0-.407.125-.692.378-.857.254-.167.575-.248.959-.248h15.608c.917 0 1.369-.439 1.358-1.317-.013-.875-.465-1.314-1.358-1.314H389.26c-.82.05-1.567.337-2.244.857-.677.523-1.027 1.327-1.051 2.422v2.628c0 .865-.36 1.393-1.087 1.584-.723.19-1.084.462-1.084.817 0 .23.053.37.162.421.11.05.249.076.415.076h19.012v3.772zm6.626-18.408v-8.728c0-.786-.24-1.5-.724-2.135-.483-.634-1.087-.953-1.81-.953h-1.447c-.314 0-.544.07-.691.211-.143.14-.217.374-.217.706v10.9h-6.082c-.652 0-1.04.044-1.16.133-.12.088-.276.248-.47.475l-1.157 1.641c-.217.43-.217.76 0 .99.217.23.507.24.867.04.627-.307 1.123-.492 1.487-.555.36-.063 1.06-.094 2.097-.094h27.338c1.087 0 1.63-.439 1.63-1.317 0-.875-.543-1.314-1.63-1.314h-7.17v-8.728c0-.786-.24-1.5-.722-2.135-.484-.634-1.087-.953-1.811-.953h-1.447c-.317 0-.543.07-.69.211-.143.14-.216.374-.216.706v10.9zM448.025 627.185c0-.789-.242-1.5-.724-2.134-.483-.635-1.087-.954-1.81-.954h-1.376c-.314 0-.544.071-.688.21-.146.14-.216.376-.216.705v30.34c0 .785-.327 1.357-.98 1.712-.65.356-1.18.648-1.592.878-.339.204-.454.463-.344.782.11.315.282.462.525.44l6.481-.764c.385-.052.604-.173.651-.363.05-.19.073-.325.073-.4zm-18.14 15.398a33.164 33.164 0 0 0-4.019-5.128c-1.497-1.562-3.018-2.788-4.562-3.676-.603-.358-1.08-.394-1.43-.115-.35.28-.26.711.27 1.296 2.244 2.388 4.068 5.176 5.47 8.365 1.4 3.19 2.22 6.194 2.46 9.014h-4.599c-.554 0-.91.057-1.068.172a3.221 3.221 0 0 0-.526.515l-1.303 1.828c-.24.432-.245.737-.016.915.228.177.5.19.813.04.556-.28 1.082-.458 1.576-.534.496-.076 1.201-.115 2.118-.115h13.761c.917 0 1.374-.47 1.374-1.41s-.457-1.41-1.374-1.41h-5.035a20.49 20.49 0 0 0-.852-3.508 26.415 26.415 0 0 0-1.502-3.58 46.78 46.78 0 0 1 1.648-1.718c.688-.684 1.323-1.206 1.903-1.562.674-.43 1.222-.698 1.645-.799.423-.102.792-.369 1.106-.802.964-1.218 1.63-2.38 1.99-3.485.363-1.106.327-1.913-.106-2.422-.29-.329-.719-.507-1.287-.533-.569-.026-1.165.204-1.794.687-1.038.786-2.23 2.038-3.584 3.754-1.35 1.714-2.377 3.117-3.078 4.211M480.938 636.562h-5.829c-.169 0-.303.03-.397.094a1.85 1.85 0 0 0-.327.285l-1.196 1.6a1.549 1.549 0 0 0-.272.67.717.717 0 0 0 .202.627c.263.28.673.287 1.23.02.554-.269 1.087-.402 1.594-.402h4.995v15.895c0 .786-.324 1.358-.978 1.713-.65.355-1.183.648-1.593.878-.337.204-.45.462-.342.781.107.316.282.463.525.44l6.7-.764c.382-.052.6-.172.65-.363a2.05 2.05 0 0 0 .072-.4v-21.305c0-.789-.243-1.499-.723-2.134-.484-.635-1.087-.954-1.81-.954h-1.595c-.313 0-.543.071-.689.212-.144.138-.217.374-.217.703zm-16.582 15.892c0-1.016.351-1.842 1.051-2.476.7-.636 1.46-.954 2.28-.954.844 0 1.617.318 2.317.954.701.634 1.051 1.46 1.051 2.476s-.35 1.85-1.05 2.498c-.7.648-1.474.97-2.318.97-.82 0-1.58-.322-2.28-.97-.7-.648-1.05-1.482-1.05-2.498m-1.704-17.266 6.302-.342c.024 0 .144-.045.36-.134.22-.088.327-.337.327-.742v-3.811c.024-.84.157-1.437.4-1.792.24-.356.83-.534 1.774-.534h12.89c1.085 0 1.628-.412 1.628-1.238 0-.825-.543-1.241-1.627-1.241h-16.258c-.654 0-1.414.23-2.281.687-.871.458-1.304 1.398-1.304 2.822v3.164c0 .608-.314 1.053-.944 1.332-.627.28-1.084.496-1.374.648-.41.204-.556.457-.435.763.122.306.303.444.543.418m5.034 23.288c2.29 0 4.235-.551 5.829-1.656 1.593-1.108 2.39-2.561 2.39-4.366 0-1.78-.797-3.226-2.39-4.345-1.594-1.118-3.538-1.677-5.83-1.677-2.27 0-4.205.559-5.811 1.677-1.605 1.119-2.407 2.566-2.407 4.345 0 1.829.802 3.292 2.407 4.384 1.606 1.092 3.542 1.638 5.812 1.638m-2.787-16.618h-5.542c-.556 0-.941.057-1.157.172a2.078 2.078 0 0 0-.617.515l-1.123 1.6c-.168.33-.168.623 0 .876.17.254.423.28.76.076.557-.28 1.05-.457 1.487-.533.433-.076 1.11-.115 2.027-.115h9.993c2.728 0 4.574.045 5.539.136.966.086 1.967.233 3.007.436.554.128.862.02.922-.324.06-.342-.115-.653-.526-.932-.893-.585-1.943-1.048-3.15-1.392-1.207-.343-3.004-.515-5.395-.515h-1.267v-2.743c0-.79-.24-1.437-.724-1.944-.483-.51-1.087-.763-1.81-.763h-1.521c-.313 0-.543.07-.686.209-.147.14-.217.376-.217.705zM499.44 637.4l6.662-.536c.024 0 .147-.044.363-.133.217-.089.327-.337.327-.742v-5.909c.023-.836.156-1.435.397-1.79.24-.355.833-.533 1.773-.533h12.53c.988 0 1.484-.413 1.484-1.24 0-.826-.496-1.239-1.484-1.239h-16.257c-.653 0-1.414.23-2.28.687-.87.457-1.305 1.397-1.305 2.82v5.451c0 .61-.316 1.053-.943 1.332-.627.28-1.084.497-1.374.648-.414.204-.557.457-.437.763.12.306.304.444.544.421m17.958 4.992c-.844-.713-2.056-1.227-3.637-1.544-1.583-.319-3.638-.49-6.173-.514h-7.822c-1.52 0-2.43.44-2.732 1.314-.303.877-.455 1.557-.455 2.04v8.156c0 .56-.083.996-.253 1.315a2.363 2.363 0 0 1-.65.781 5.287 5.287 0 0 1-.852.533c-.3.154-.452.305-.452.457 0 .154.036.311.107.478.072.164.22.248.436.248h16.474c.894 0 1.346-.415 1.36-1.24.01-.827-.443-1.239-1.36-1.239h-9.775v-8.804c.047-.71.211-1.155.488-1.333.276-.178.646-.256 1.106-.23h3.474c2.487-.026 4.621.058 6.408.25 1.788.19 3.224.74 4.308 1.657v10.634c0 .786-.323 1.358-.977 1.713-.65.356-1.183.648-1.593.878-.337.204-.452.462-.343.781.107.316.282.463.525.44l6.7-.763c.383-.053.602-.173.65-.364.05-.19.072-.324.072-.4v-6.554l4.092.305c.747.05 1.13-.49 1.142-1.619.01-1.132-.369-1.699-1.142-1.699h-4.092v-11.014c0-.786-.242-1.5-.723-2.134-.483-.635-1.086-.952-1.81-.952h-1.594c-.313 0-.544.07-.687.21-.147.138-.22.373-.22.705z" style="fill:#231f20;fill-opacity:1;fill-rule:nonzero;stroke:none" transform="matrix(2.4187 0 0 -2.4187 -183.882 1682.295)"/><path d="M172.296 685.217c-.32.217-.658.42-.979.627-32.302-14.813-73.073-39.52-90.95-75.113a61.662 61.662 0 0 1 2.675-5.848c5.27 14.17 24.3 49.287 89.254 80.334m.868-.588c-31.983-17.075-71.28-46.722-81.43-92.339 11.356-12.749 27.894-20.785 46.307-20.785 13.391 0 25.775 4.258 35.914 11.471h-.02c.158.11 1.055.713 1.84 1.341 14.76 11.333 24.284 29.152 24.284 49.203 0 21.211-10.654 39.925-26.895 51.11m-2.757 1.796c-.337.207-.682.403-1.02.596-32.279-12.929-72.758-33.64-92.806-61.697a62.817 62.817 0 0 1 1.204-6.458c4.61 8.43 25.242 39.172 92.622 67.56m-1.909 1.113a61.745 61.745 0 0 1-30.457 8c-34.245 0-62.016-27.769-62.016-62.02 0-1.178.042-2.348.104-3.509 6.808 9.14 29.893 33.982 92.37 57.53" style="fill:#ed1c24;fill-opacity:1;fill-rule:nonzero;stroke:none" transform="matrix(2.4187 0 0 -2.4187 -183.882 1682.295)"/><path d="M108.746 610.204v-8.438c.316-.019.556-.028.72-.028 1.17 0 2.07.348 2.703 1.043.633.696.95 1.774.95 3.233 0 1.45-.317 2.51-.95 3.182-.633.672-1.577 1.008-2.833 1.008zm0-9.563v-5.406c0-1.06.064-1.727.193-2.003.128-.274.357-.494.686-.658.33-.164.932-.245 1.81-.245v-.5h-9.877v.5c.896 0 1.504.084 1.823.253.32.168.543.388.672.658.13.27.193.935.193 1.995v12.688c0 1.06-.064 1.727-.193 2.003-.129.273-.355.493-.679.657-.324.164-.929.246-1.816.246v.5h8.494c2.798 0 4.805-.499 6.022-1.498 1.217-.999 1.825-2.247 1.825-3.745 0-1.268-.393-2.353-1.18-3.255-.787-.903-1.87-1.518-3.252-1.844-.93-.23-2.505-.346-4.72-.346M130.278 610.704c-1.78 0-3.136-.91-4.064-2.73-.757-1.498-1.135-3.645-1.135-6.445 0-3.326.584-5.785 1.752-7.376.814-1.112 1.953-1.668 3.418-1.668.987 0 1.81.24 2.471.72.842.612 1.498 1.593 1.967 2.94.47 1.346.704 3.103.704 5.27 0 2.58-.239 4.508-.718 5.788-.479 1.28-1.089 2.183-1.832 2.71-.742.527-1.596.791-2.563.791m-.172.906c3.103.115 5.624-.79 7.564-2.714 1.94-1.923 2.91-4.332 2.91-7.222 0-2.469-.724-4.643-2.17-6.518-1.916-2.489-4.622-3.733-8.117-3.733-3.506 0-6.217 1.186-8.132 3.561-1.513 1.875-2.27 4.101-2.27 6.676 0 2.891.984 5.301 2.952 7.23 1.97 1.928 4.39 2.835 7.263 2.72M160.2 598.673l-.718-6.844H142.17v.5h.648c.566 0 1.022.103 1.367.306.25.137.442.369.577.7.105.234.158.847.158 1.838v12.813c0 1.01-.053 1.642-.16 1.895-.104.253-.318.475-.64.664-.321.19-.755.284-1.302.284h-.648v.5h10.406v-.5h-.85c-.567 0-1.024-.102-1.37-.305-.25-.137-.447-.371-.59-.702-.106-.232-.16-.845-.16-1.836v-12.418c0-.998.058-1.632.173-1.905.114-.273.338-.477.672-.61.238-.087.815-.13 1.73-.13h1.617c1.029 0 1.888.182 2.574.546.687.364 1.28.939 1.78 1.725.5.787.976 1.946 1.424 3.479zM173.017 598.423l-2.92 6.702-3-6.702zm.463-1.063h-6.86l-.845-1.891c-.268-.637-.402-1.162-.402-1.577 0-.55.22-.955.66-1.216.258-.154.895-.27 1.91-.347v-.5h-6.476v.5c.698.106 1.273.398 1.723.874.45.477 1.005 1.46 1.665 2.953l6.959 15.548h.272l7.014-15.977c.669-1.524 1.22-2.483 1.65-2.877.326-.3.786-.473 1.379-.521v-.5h-9.381v.5h.388c.756 0 1.287.107 1.593.322.21.154.316.377.316.669 0 .175-.028.355-.086.54-.02.087-.163.45-.431 1.093z" style="fill:#f8f8f8;fill-opacity:1;fill-rule:nonzero;stroke:none" transform="matrix(2.4187 0 0 -2.4187 -183.882 1682.295)"/><path d="m313.99 612.918 4.095-5.159c.581-.727 1.082-1.219 1.502-1.478.304-.184.628-.276.967-.276v-.313h-6.083v.313c.387.035.636.096.748.182a.391.391 0 0 1 .168.322c0 .242-.264.699-.794 1.37l-2.674 3.37-.44-.353v-3.204c0-.611.035-.992.104-1.142.068-.151.201-.278.396-.385.196-.107.508-.16.938-.16v-.313h-5.907v.313h.391c.341 0 .615.06.824.182.151.08.266.218.347.416.063.137.095.501.095 1.089v7.719c0 .6-.032.975-.096 1.125-.062.151-.19.281-.385.394-.194.112-.456.169-.785.169h-.39v.312h5.843v-.312c-.4 0-.705-.058-.913-.173a.828.828 0 0 1-.356-.407c-.07-.145-.106-.514-.106-1.108v-3.652l4.348 3.506c.604.495.906.89.906 1.187 0 .221-.123.397-.37.525-.128.063-.44.104-.942.122v.312h4.558v-.312c-.41-.03-.73-.103-.964-.222-.233-.118-.77-.52-1.61-1.203zM324.45 613.411a.985.985 0 0 1-.744-.332c-.207-.223-.344-.659-.409-1.313-.066-.652-.098-1.56-.098-2.722 0-.615.04-1.19.12-1.725.062-.409.195-.72.4-.932.204-.213.436-.32.698-.32.255 0 .468.073.638.216.221.195.37.47.442.82.113.546.171 1.651.171 3.314 0 .977-.054 1.65-.162 2.015-.109.365-.267.631-.477.797-.147.121-.34.182-.579.182m-.038.594c.698 0 1.35-.182 1.95-.543a3.468 3.468 0 0 0 1.37-1.54 5.09 5.09 0 0 0 .467-2.187c0-1.142-.289-2.097-.867-2.867-.698-.93-1.663-1.395-2.894-1.395-1.209 0-2.138.424-2.79 1.274-.654.85-.98 1.834-.98 2.953 0 1.154.333 2.16 1.001 3.018.666.857 1.581 1.287 2.743 1.287M332.403 613.755l.008-1.818c.531.833.997 1.385 1.397 1.658.4.273.786.41 1.158.41.322 0 .58-.1.773-.297.192-.197.29-.476.29-.836 0-.385-.096-.681-.284-.893a.888.888 0 0 0-.686-.318c-.302 0-.564.096-.785.286a4.779 4.779 0 0 1-.393.32.39.39 0 0 1-.197.05.704.704 0 0 1-.465-.19c-.232-.194-.407-.474-.525-.835a5.937 5.937 0 0 1-.27-1.843l.008-1.856.002-.494c0-.324.02-.533.061-.623a.678.678 0 0 1 .31-.338c.135-.072.367-.115.692-.133v-.313h-4.375v.313c.354.029.593.125.718.29.125.165.188.599.188 1.304v4.437c0 .466-.023.763-.07.89a.704.704 0 0 1-.252.359c-.11.075-.305.128-.584.157v.313zM340.984 610.599c0 .914-.052 1.543-.153 1.883-.102.342-.26.599-.476.776-.122.103-.285.154-.489.154-.303 0-.55-.145-.742-.435-.344-.506-.515-1.2-.515-2.08v-.298zm2.125-.563h-4.469c.052-1.07.34-1.914.863-2.535.401-.476.883-.715 1.447-.715.35 0 .666.098.95.292.284.195.59.546.915 1.052l.294-.22c-.439-.885-.925-1.514-1.457-1.883-.532-.368-1.147-.553-1.847-.553-1.203 0-2.113.459-2.732 1.377-.496.74-.745 1.658-.745 2.756 0 1.342.365 2.41 1.096 3.206.732.795 1.588 1.192 2.572 1.192.821 0 1.533-.334 2.137-1.001.604-.667.93-1.656.976-2.968M348.228 607.536v2.662c-.702-.41-1.225-.848-1.566-1.314-.227-.313-.34-.627-.34-.945 0-.265.095-.499.287-.7.144-.156.348-.234.609-.234.29 0 .627.177 1.01.531m0-.625c-.99-.896-1.88-1.344-2.666-1.344-.463 0-.85.151-1.155.453-.307.303-.46.682-.46 1.137 0 .615.265 1.17.799 1.662.532.492 1.693 1.147 3.482 1.965v.815c0 .612-.033.998-.102 1.156-.066.16-.195.298-.382.416a1.167 1.167 0 0 1-.633.178c-.381 0-.694-.084-.936-.252-.15-.105-.224-.227-.224-.366 0-.12.08-.27.242-.45.219-.249.328-.489.328-.72a.97.97 0 0 0-.314-.726c-.211-.199-.486-.299-.826-.299-.362 0-.667.11-.911.33-.245.22-.367.477-.367.772 0 .416.164.812.494 1.191.33.38.789.67 1.379.872a5.64 5.64 0 0 0 1.84.304c.767 0 1.377-.163 1.825-.49.448-.326.739-.68.872-1.06.08-.243.12-.8.12-1.672v-3.143c0-.37.015-.602.044-.698a.417.417 0 0 1 .13-.212.312.312 0 0 1 .202-.069c.15 0 .303.105.459.318l.26-.207c-.288-.422-.586-.728-.895-.919a1.959 1.959 0 0 0-1.05-.286c-.46 0-.821.112-1.08.334-.26.223-.417.56-.475 1.01M360.493 616.755v-5.094c.19-.011.334-.017.432-.017.704 0 1.246.21 1.627.63.38.42.571 1.07.571 1.952 0 .875-.19 1.515-.57 1.92-.382.406-.95.609-1.706.609zm0-5.75v-3.25c0-.64.04-1.041.118-1.206a.86.86 0 0 1 .423-.396c.203-.1.574-.148 1.115-.148v-.313h-6.03v.313c.55 0 .925.05 1.122.152a.903.903 0 0 1 .414.397c.078.162.12.562.12 1.2v7.595c0 .638-.042 1.04-.12 1.205a.865.865 0 0 1-.419.397c-.2.098-.573.148-1.118.148v.312h5.135c1.691 0 2.906-.3 3.641-.898.736-.598 1.104-1.347 1.104-2.244 0-.76-.237-1.41-.71-1.952-.473-.541-1.125-.91-1.956-1.105-.56-.14-1.507-.207-2.839-.207M370.603 613.411a.987.987 0 0 1-.746-.332c-.207-.223-.343-.659-.408-1.313-.066-.652-.098-1.56-.098-2.722 0-.615.039-1.19.119-1.725.063-.409.195-.72.4-.932.204-.213.437-.32.698-.32a.96.96 0 0 1 .639.216c.22.195.369.47.443.82.113.546.17 1.651.17 3.314 0 .977-.055 1.65-.162 2.015-.108.365-.267.631-.477.797-.147.121-.34.182-.578.182m-.04.594a3.72 3.72 0 0 0 1.95-.543 3.455 3.455 0 0 0 1.369-1.54 5.075 5.075 0 0 0 .469-2.187c0-1.142-.29-2.097-.867-2.867-.7-.93-1.664-1.395-2.895-1.395-1.207 0-2.138.424-2.791 1.274-.652.85-.978 1.834-.978 2.953 0 1.154.334 2.16 1 3.018.668.857 1.582 1.287 2.744 1.287M380.306 613.974l.125-2.75h-.313c-.346.817-.705 1.376-1.077 1.676-.372.299-.742.449-1.111.449a.835.835 0 0 1-.597-.236.74.74 0 0 1-.246-.546c0-.156.057-.304.172-.447.184-.236.697-.638 1.542-1.21.844-.57 1.4-1.053 1.667-1.452.267-.398.4-.843.4-1.336 0-.447-.111-.886-.333-1.316a2.345 2.345 0 0 0-.941-.988 2.68 2.68 0 0 0-1.343-.344c-.382 0-.892.124-1.531.37-.17.066-.287.099-.35.099-.19 0-.345-.147-.47-.438h-.313l-.125 2.906h.313c.256-.76.607-1.331 1.052-1.71.448-.381.87-.571 1.268-.571.273 0 .496.084.67.254.173.168.26.373.26.614 0 .275-.086.513-.26.714-.172.2-.557.504-1.153.91-.88.609-1.448 1.073-1.706 1.394-.38.47-.57.989-.57 1.556 0 .619.213 1.179.638 1.68.424.502 1.037.753 1.84.753.433 0 .852-.111 1.257-.334.153-.09.279-.135.376-.135.102 0 .185.022.248.066.062.044.162.168.298.372zM384.988 616.724v-2.97h1.906v-.843h-1.906v-4.986c0-.467.021-.768.063-.904a.652.652 0 0 1 .223-.328.491.491 0 0 1 .295-.125c.363 0 .71.28 1.035.843l.26-.19c-.462-1.102-1.209-1.653-2.244-1.653-.506 0-.934.142-1.283.427-.35.286-.573.605-.67.957-.057.196-.085.726-.085 1.59v4.369h-1.094v.303a11.234 11.234 0 0 1 1.868 1.616 9.925 9.925 0 0 1 1.345 1.894zM391.772 607.536v2.662c-.702-.41-1.225-.848-1.567-1.314-.227-.313-.34-.627-.34-.945 0-.265.095-.499.287-.7.145-.156.348-.234.61-.234.29 0 .625.177 1.01.531m0-.625c-.99-.896-1.88-1.344-2.667-1.344-.464 0-.849.151-1.155.453-.307.303-.46.682-.46 1.137 0 .615.266 1.17.8 1.662.531.492 1.692 1.147 3.481 1.965v.815c0 .612-.034.998-.1 1.156a.94.94 0 0 1-.382.416 1.17 1.17 0 0 1-.634.178c-.382 0-.693-.084-.935-.252-.15-.105-.225-.227-.225-.366 0-.12.08-.27.242-.45.22-.249.328-.489.328-.72a.965.965 0 0 0-.316-.726c-.209-.199-.485-.299-.825-.299-.362 0-.665.11-.91.33-.245.22-.367.477-.367.772 0 .416.165.812.494 1.191.329.38.79.67 1.38.872.59.202 1.202.304 1.838.304.769 0 1.378-.163 1.826-.49.448-.326.738-.68.87-1.06.083-.243.123-.8.123-1.672v-3.143c0-.37.015-.602.044-.698a.422.422 0 0 1 .129-.212.317.317 0 0 1 .202-.069c.15 0 .304.105.46.318l.259-.207c-.288-.422-.587-.728-.895-.919a1.959 1.959 0 0 0-1.05-.286c-.46 0-.821.112-1.08.334-.26.223-.417.56-.475 1.01M398.945 617.411v-10.03c0-.575.067-.943.204-1.103.135-.159.4-.25.796-.273v-.313h-4.406v.313c.37.011.642.116.821.313.12.134.18.488.18 1.062v8.343c0 .573-.07.94-.207 1.1-.137.16-.402.252-.794.275v.313zM415.008 609.817l-.438-4.125h-10.406v.312h.39c.342 0 .616.061.824.182.15.08.266.22.348.416.062.138.094.501.094 1.09v7.72c0 .598-.032.973-.095 1.124-.064.15-.193.281-.386.393-.193.113-.455.17-.785.17h-.39v.312h6.25v-.313h-.51c-.34 0-.614-.06-.821-.18a.824.824 0 0 1-.355-.417c-.063-.139-.095-.502-.095-1.09v-7.47c0-.6.034-.983.103-1.147.069-.165.204-.288.405-.368.143-.052.49-.078 1.042-.078h.972c.62 0 1.137.11 1.549.33.414.22.77.567 1.073 1.04.3.474.585 1.173.856 2.1zM419.698 613.411a.987.987 0 0 1-.746-.332c-.207-.223-.343-.659-.408-1.313-.066-.652-.098-1.56-.098-2.722 0-.615.04-1.19.12-1.725.062-.409.194-.72.4-.932.203-.213.436-.32.697-.32a.96.96 0 0 1 .64.216c.22.195.368.47.442.82.113.546.17 1.651.17 3.314 0 .977-.055 1.65-.162 2.015-.108.365-.267.631-.477.797-.147.121-.34.182-.578.182m-.039.594a3.72 3.72 0 0 0 1.95-.543 3.455 3.455 0 0 0 1.368-1.54 5.075 5.075 0 0 0 .47-2.187c0-1.142-.29-2.097-.868-2.867-.699-.93-1.664-1.395-2.895-1.395-1.207 0-2.138.424-2.79 1.274-.653.85-.979 1.834-.979 2.953 0 1.154.334 2.16 1 3.018.668.857 1.582 1.287 2.744 1.287M427.991 613.442c-.332 0-.612-.168-.842-.502-.228-.335-.343-1.028-.343-2.08 0-.853.113-1.438.34-1.754.226-.318.493-.477.802-.477.344 0 .63.158.858.472.23.315.344.927.344 1.836 0 1.024-.129 1.722-.386 2.093a.876.876 0 0 1-.773.412m-.506-8.938c-.595 0-.988-.048-1.18-.146-.333-.18-.499-.42-.499-.727 0-.293.172-.56.516-.799.344-.24.991-.359 1.941-.359.81 0 1.447.108 1.911.321.463.212.695.512.695.898a.52.52 0 0 1-.132.363c-.156.173-.394.291-.712.354-.317.064-1.165.095-2.54.095m1.996 9.157h2.732v-.938h-1.55c.283-.282.48-.539.592-.768.138-.312.208-.636.208-.976 0-.576-.16-1.076-.482-1.498-.32-.424-.758-.754-1.308-.993-.553-.239-1.042-.359-1.47-.359-.034 0-.382.014-1.04.043a.909.909 0 0 1-.654-.252.808.808 0 0 1-.265-.605c0-.206.08-.375.238-.506.16-.132.418-.197.777-.197l1.5.017c1.213 0 2.048-.132 2.505-.398.653-.369.98-.936.98-1.704 0-.49-.15-.936-.45-1.337-.3-.4-.696-.696-1.186-.887-.744-.282-1.6-.424-2.57-.424-.727 0-1.39.071-1.99.211-.6.143-1.03.338-1.289.588-.26.251-.39.514-.39.791 0 .264.1.502.295.712.196.21.563.388 1.1.532-.743.368-1.114.88-1.114 1.536 0 .396.153.781.457 1.156.305.373.788.698 1.448.974-.769.282-1.326.653-1.669 1.114a2.585 2.585 0 0 0-.517 1.595c0 .79.322 1.471.967 2.05.644.577 1.473.867 2.487.867.535 0 1.088-.116 1.658-.344M434.772 617.661c.373 0 .688-.13.946-.39.258-.262.387-.576.387-.942 0-.367-.13-.68-.392-.938a1.29 1.29 0 0 0-.94-.386c-.367 0-.68.13-.937.386a1.28 1.28 0 0 0-.386.938c0 .366.129.68.386.941.258.261.57.391.937.391m1.208-3.906v-6.375c0-.574.067-.942.204-1.102.135-.159.4-.25.796-.273v-.313h-4.406v.313c.369.011.642.116.82.313.12.134.18.488.18 1.062v4.687c0 .574-.07.942-.206 1.101-.137.16-.402.251-.794.274v.313zM442.445 613.974l.125-2.75h-.313c-.346.817-.706 1.376-1.077 1.676-.372.299-.742.449-1.11.449a.833.833 0 0 1-.597-.236.737.737 0 0 1-.247-.546c0-.156.058-.304.173-.447.184-.236.697-.638 1.541-1.21.844-.57 1.4-1.053 1.666-1.452.268-.398.402-.843.402-1.336 0-.447-.112-.886-.334-1.316a2.345 2.345 0 0 0-.94-.988 2.673 2.673 0 0 0-1.343-.344c-.383 0-.892.124-1.53.37-.173.066-.29.099-.353.099-.187 0-.344-.147-.469-.438h-.313l-.125 2.906h.313c.256-.76.606-1.331 1.053-1.71.446-.381.87-.571 1.267-.571.273 0 .495.084.67.254a.822.822 0 0 1 .26.614c0 .275-.087.513-.259.714-.172.2-.557.504-1.154.91-.879.609-1.448 1.073-1.705 1.394-.38.47-.57.989-.57 1.556 0 .619.212 1.179.636 1.68.425.502 1.04.753 1.842.753.432 0 .851-.111 1.256-.334.154-.09.28-.135.376-.135.102 0 .184.022.247.066.062.044.163.168.3.372zM447.128 616.724v-2.97h1.906v-.843h-1.906v-4.986c0-.467.02-.768.063-.904a.658.658 0 0 1 .223-.328.489.489 0 0 1 .294-.125c.365 0 .71.28 1.035.843l.26-.19c-.461-1.102-1.21-1.653-2.243-1.653-.506 0-.934.142-1.283.427-.35.286-.574.605-.67.957-.057.196-.085.726-.085 1.59v4.369h-1.094v.303a11.184 11.184 0 0 1 1.867 1.616 9.885 9.885 0 0 1 1.346 1.894zM451.392 617.661c.373 0 .688-.13.946-.39.258-.262.387-.576.387-.942 0-.367-.13-.68-.392-.938a1.29 1.29 0 0 0-.941-.386c-.367 0-.68.13-.937.386a1.28 1.28 0 0 0-.386.938c0 .366.129.68.386.941.258.261.57.391.937.391m1.208-3.906v-6.375c0-.574.067-.942.204-1.102.135-.159.4-.25.796-.273v-.313h-4.406v.313c.369.011.642.116.82.313.12.134.18.488.18 1.062v4.687c0 .574-.07.942-.206 1.101-.137.16-.402.251-.794.274v.313zM460.577 607.79l.268-.205c-.38-.713-.854-1.242-1.422-1.59a3.4 3.4 0 0 0-1.809-.521c-1.078 0-1.938.404-2.584 1.213-.644.81-.967 1.783-.967 2.919 0 1.096.295 2.06.885 2.893.711 1.004 1.69 1.506 2.94 1.506.836 0 1.502-.211 1.997-.632.494-.421.741-.892.741-1.411 0-.329-.1-.592-.3-.787-.202-.197-.466-.295-.79-.295-.345 0-.629.113-.852.34-.224.225-.363.629-.415 1.209-.035.365-.119.619-.253.765a.62.62 0 0 1-.47.217c-.28 0-.519-.146-.717-.439-.303-.443-.453-1.119-.453-2.033 0-.757.121-1.483.364-2.174.243-.692.575-1.207 1-1.546.317-.247.692-.37 1.127-.37.283 0 .552.065.808.197.254.131.554.379.902.744M466.558 613.974l.125-2.75h-.313c-.346.817-.705 1.376-1.077 1.676-.372.299-.742.449-1.111.449a.835.835 0 0 1-.597-.236.74.74 0 0 1-.246-.546c0-.156.057-.304.172-.447.184-.236.697-.638 1.542-1.21.844-.57 1.4-1.053 1.667-1.452.267-.398.4-.843.4-1.336 0-.447-.111-.886-.333-1.316a2.345 2.345 0 0 0-.941-.988 2.68 2.68 0 0 0-1.343-.344c-.382 0-.892.124-1.531.37-.17.066-.287.099-.35.099-.19 0-.345-.147-.47-.438h-.313l-.125 2.906h.313c.256-.76.607-1.331 1.052-1.71.448-.381.87-.571 1.268-.571.273 0 .496.084.67.254.173.168.26.373.26.614 0 .275-.086.513-.26.714-.172.2-.557.504-1.153.91-.88.609-1.448 1.073-1.706 1.394-.38.47-.57.989-.57 1.556 0 .619.213 1.179.638 1.68.424.502 1.037.753 1.84.753.433 0 .852-.111 1.257-.334.153-.09.279-.135.376-.135.102 0 .185.022.248.066.062.044.162.168.298.372zM478.549 609.661l-1.748 4.04-1.806-4.04zm.27-.625h-4.103l-.511-1.144c-.161-.382-.241-.699-.241-.948 0-.33.132-.574.397-.73.155-.093.539-.162 1.148-.209v-.313h-3.894v.313c.42.063.766.238 1.037.525.27.287.604.88 1 1.778l4.18 9.353h.165l4.21-9.612c.404-.916.736-1.493.994-1.732.196-.179.472-.283.829-.312v-.313h-5.65v.313h.233c.455 0 .775.064.958.191a.47.47 0 0 1 .19.402c0 .104-.017.212-.051.323-.012.052-.098.27-.26.654zM488.155 613.442c-.332 0-.612-.168-.842-.502-.228-.335-.343-1.028-.343-2.08 0-.853.113-1.438.34-1.754.226-.318.493-.477.802-.477.344 0 .63.158.858.472.23.315.344.927.344 1.836 0 1.024-.129 1.722-.386 2.093a.876.876 0 0 1-.773.412m-.506-8.938c-.595 0-.988-.048-1.18-.146-.333-.18-.499-.42-.499-.727 0-.293.172-.56.516-.799.344-.24.991-.359 1.941-.359.81 0 1.447.108 1.911.321.463.212.695.512.695.898a.52.52 0 0 1-.132.363c-.156.173-.394.291-.712.354-.317.064-1.165.095-2.54.095m1.996 9.157h2.732v-.938h-1.55c.283-.282.48-.539.592-.768.138-.312.208-.636.208-.976 0-.576-.16-1.076-.482-1.498-.32-.424-.758-.754-1.308-.993-.553-.239-1.042-.359-1.47-.359-.034 0-.382.014-1.04.043a.909.909 0 0 1-.654-.252.808.808 0 0 1-.265-.605c0-.206.08-.375.238-.506.16-.132.418-.197.777-.197l1.5.017c1.213 0 2.048-.132 2.505-.398.653-.369.98-.936.98-1.704 0-.49-.15-.936-.45-1.337-.3-.4-.696-.696-1.186-.887-.744-.282-1.6-.424-2.57-.424-.727 0-1.39.071-1.99.211-.6.143-1.03.338-1.289.588-.26.251-.39.514-.39.791 0 .264.1.502.295.712.196.21.563.388 1.1.532-.743.368-1.114.88-1.114 1.536 0 .396.153.781.457 1.156.305.373.788.698 1.448.974-.769.282-1.326.653-1.669 1.114a2.585 2.585 0 0 0-.517 1.595c0 .79.322 1.471.967 2.05.644.577 1.473.867 2.487.867.535 0 1.088-.116 1.658-.344M497.706 610.599c0 .914-.05 1.543-.152 1.883-.103.342-.262.599-.477.776-.122.103-.285.154-.488.154-.303 0-.55-.145-.742-.435-.344-.506-.516-1.2-.516-2.08v-.298zm2.125-.563h-4.469c.053-1.07.34-1.914.864-2.535.4-.476.882-.715 1.447-.715.347 0 .664.098.95.292.284.195.59.546.915 1.052l.293-.22c-.439-.885-.926-1.514-1.457-1.883-.53-.368-1.147-.553-1.847-.553-1.202 0-2.113.459-2.73 1.377-.499.74-.747 1.658-.747 2.756 0 1.342.365 2.41 1.096 3.206.732.795 1.59 1.192 2.572 1.192.82 0 1.533-.334 2.137-1.001.605-.667.93-1.656.976-2.968M503.763 613.755v-1.031c.416.447.814.772 1.195.976.38.203.79.305 1.229.305.525 0 .96-.146 1.307-.437.347-.291.578-.653.693-1.084.092-.33.139-.96.139-1.894v-3.148c0-.616.056-1 .168-1.15.113-.152.348-.247.707-.287v-.313h-4.094v.313c.312.04.535.166.672.377.093.143.14.496.14 1.06v3.604c0 .664-.026 1.084-.078 1.257a.778.778 0 0 1-.267.403.67.67 0 0 1-.415.143c-.5 0-.965-.355-1.396-1.063v-4.344c0-.6.057-.978.172-1.138.115-.16.328-.26.64-.3v-.312h-4.093v.313c.34.034.583.143.727.325.099.125.148.496.148 1.112v4.563c0 .61-.057.992-.17 1.143-.112.15-.348.248-.705.294v.313zM516.536 607.79l.268-.205c-.38-.713-.854-1.242-1.422-1.59a3.4 3.4 0 0 0-1.809-.521c-1.078 0-1.938.404-2.584 1.213-.644.81-.967 1.783-.967 2.919 0 1.096.295 2.06.885 2.893.711 1.004 1.69 1.506 2.94 1.506.836 0 1.502-.211 1.997-.632.494-.421.741-.892.741-1.411 0-.329-.1-.592-.3-.787-.202-.197-.466-.295-.79-.295-.345 0-.629.113-.852.34-.224.225-.363.629-.415 1.209-.035.365-.119.619-.253.765a.62.62 0 0 1-.47.217c-.28 0-.519-.146-.717-.439-.303-.443-.453-1.119-.453-2.033 0-.757.121-1.483.364-2.174.243-.692.575-1.207 1-1.546.317-.247.692-.37 1.127-.37.283 0 .552.065.808.197.254.131.554.379.902.744M521.151 605.364l-2.602 5.972c-.392.907-.68 1.465-.869 1.673a1.467 1.467 0 0 1-.677.433v.313h4.308v-.313c-.28-.012-.48-.066-.596-.164a.45.45 0 0 1-.172-.354c0-.219.143-.652.432-1.296l1.373-3.153.936 2.428c.34.872.51 1.48.51 1.82a.658.658 0 0 1-.213.511c-.14.127-.39.196-.746.208v.313h2.701v-.313a1.014 1.014 0 0 1-.649-.308c-.167-.176-.445-.776-.838-1.798l-2.304-5.988c-.582-1.488-1.014-2.404-1.297-2.748-.397-.48-.895-.72-1.494-.72-.479 0-.866.135-1.162.406a1.279 1.279 0 0 0-.445.978c0 .332.103.606.307.822a.996.996 0 0 0 .757.325c.287 0 .52-.09.695-.273.176-.18.267-.462.273-.842.004-.215.025-.354.062-.416a.272.272 0 0 1 .212-.094c.136 0 .281.083.434.248.226.24.493.79.8 1.644z" style="fill:#656263;fill-opacity:1;fill-rule:nonzero;stroke:none" transform="matrix(2.4187 0 0 -2.4187 -183.882 1682.295)"/><path d="M356.56 400.015c-.468.31-.944.607-1.417.905-46.721-21.427-105.702-57.166-131.563-108.652a90.991 90.991 0 0 1 3.864-8.464c7.623 20.499 35.158 71.298 129.116 116.21m1.26-.853c-46.27-24.701-103.115-67.584-117.795-133.573 16.432-18.437 40.349-30.062 66.988-30.062 19.366 0 37.284 6.154 51.947 16.59h-.032a44.75 44.75 0 0 1 2.663 1.935c21.352 16.404 35.13 42.178 35.13 71.183 0 30.68-15.411 57.753-38.901 73.927m-3.992 2.605c-.491.295-.986.576-1.476.86-46.696-18.708-105.245-48.667-134.243-89.25a87.837 87.837 0 0 1 1.736-9.341c6.67 12.198 36.515 56.659 133.983 97.73m-2.76 1.607a89.31 89.31 0 0 1-44.055 11.574c-49.548 0-89.71-40.17-89.71-89.712 0-1.707.053-3.402.148-5.081 9.848 13.216 43.245 49.162 133.618 83.219" style="fill:#ed1c24;fill-opacity:1;fill-rule:nonzero;stroke:none" transform="matrix(1.33333 0 0 -1.33333 17.488 1034.355)"/><path d="M264.641 291.55V279.3c.457-.027.803-.041 1.04-.041 1.69 0 2.992.505 3.907 1.516.914 1.009 1.372 2.574 1.372 4.693 0 2.104-.458 3.644-1.372 4.619-.915.976-2.28 1.464-4.094 1.464zm0-13.812v-7.875c0-1.528.096-2.49.287-2.885.192-.397.531-.712 1.022-.948.49-.237 1.386-.354 2.691-.354v-.75h-14.5v.75c1.333 0 2.237.12 2.713.364.474.243.808.56 1 .948.191.389.287 1.347.287 2.875v18.313c0 1.527-.096 2.489-.287 2.886-.192.395-.528.71-1.01.947-.483.236-1.385.355-2.703.355v.75h12.316c4.057 0 6.967-.72 8.732-2.156 1.764-1.436 2.646-3.232 2.646-5.386 0-1.825-.567-3.385-1.7-4.684-1.136-1.3-2.698-2.183-4.689-2.652-1.342-.332-3.61-.498-6.805-.498M295.817 292.176c-2.59 0-4.562-1.315-5.913-3.946-1.1-2.16-1.65-5.261-1.65-9.304 0-4.805.85-8.355 2.55-10.653 1.182-1.607 2.84-2.41 4.97-2.41 1.436 0 2.633.346 3.594 1.039 1.226.885 2.18 2.3 2.863 4.247.682 1.945 1.024 4.482 1.024 7.61 0 3.726-.35 6.512-1.045 8.36-.698 1.848-1.584 3.153-2.664 3.914-1.08.762-2.323 1.143-3.729 1.143m-.25 1.313c4.5.166 8.156-1.143 10.97-3.924 2.811-2.782 4.218-6.262 4.218-10.442 0-3.571-1.049-6.713-3.147-9.425-2.777-3.598-6.7-5.397-11.77-5.397-5.085 0-9.015 1.716-11.792 5.148-2.195 2.712-3.292 5.93-3.292 9.654 0 4.178 1.427 7.662 4.281 10.45 2.854 2.79 6.365 4.102 10.532 3.936M339.089 274.863l-1.063-9.938h-25v.75h.943c.823 0 1.486.145 1.989.438.363.194.643.527.838 1 .153.333.23 1.208.23 2.625v18.563c0 1.444-.077 2.346-.23 2.708-.154.361-.465.676-.933.948-.467.27-1.1.406-1.894.406h-.943v.75h15.063v-.75h-1.235c-.825 0-1.487-.146-1.99-.437-.362-.196-.648-.529-.857-1-.154-.334-.231-1.209-.231-2.625v-17.983c0-1.443.083-2.363.249-2.759.166-.395.49-.69.974-.884.345-.125 1.18-.187 2.506-.187h2.34c1.492 0 2.735.265 3.729.795.994.53 1.854 1.368 2.578 2.513.725 1.144 1.413 2.834 2.062 5.067zM357.642 274.55l-4.226 9.715-4.35-9.714zm.68-1.562h-9.957l-1.235-2.756c-.388-.924-.582-1.687-.582-2.288 0-.8.319-1.387.956-1.764.374-.225 1.295-.393 2.764-.504v-.75h-9.371v.75c1.01.152 1.842.576 2.493 1.269.65.69 1.455 2.12 2.41 4.289l10.082 22.505h.395l10.17-23.131c.969-2.211 1.766-3.603 2.389-4.176.47-.435 1.136-.688 1.995-.756v-.75h-13.564v.75h.562c1.093 0 1.863.154 2.306.466.305.226.457.552.457.975 0 .254-.042.515-.125.785-.027.127-.235.656-.623 1.588z" style="fill:#f8f8f8;fill-opacity:1;fill-rule:nonzero;stroke:none" transform="matrix(1.33333 0 0 -1.33333 17.488 1034.355)"/><path d="M205.847 153.059h-85.125v2.49h85.125z" style="fill:#c8c7c7;fill-opacity:1;fill-rule:nonzero;stroke:none" transform="matrix(1.33333 0 0 -1.33333 17.488 1034.355)"/><path d="M130.006 206.643c0-1.881.747-3.486 2.24-4.814 1.495-1.331 3.412-1.995 5.754-1.995 2.37 0 4.296.664 5.774 1.995 1.48 1.328 2.218 2.933 2.218 4.814 0 1.848-.738 3.438-2.218 4.766-1.478 1.33-3.404 1.994-5.774 1.994-2.311 0-4.221-.664-5.73-1.994-1.51-1.328-2.264-2.918-2.264-4.766M138 216.858c3.818 0 7.237-.908 10.256-2.725 3.019-1.816 4.528-4.312 4.528-7.49s-1.518-5.682-4.551-7.516c-3.035-1.83-6.446-2.746-10.233-2.746-3.79 0-7.202.916-10.235 2.746-3.033 1.834-4.551 4.338-4.551 7.516s1.509 5.674 4.527 7.49c3.019 1.817 6.439 2.725 10.259 2.725m3.234-27.481V176.78c0-1.002-.325-1.91-.972-2.723-.646-.81-1.431-1.217-2.355-1.217h-2.034c-.4 0-.693.092-.878.27-.184.178-.276.478-.276.898v15.369h-13.861c-.833 0-1.326.057-1.48.17-.154.116-.352.317-.6.61l-1.478 2.09c-.277.552-.277.972 0 1.265.278.29.647.307 1.109.047.8-.39 1.509-.625 2.125-.705.616-.08 1.433-.12 2.449-.12h33.914c1.385 0 2.078-.56 2.078-1.68 0-1.116-.693-1.677-2.078-1.677zM196.123 217.586l6.607-.973c.493-.066.768-.218.831-.463a2.48 2.48 0 0 0 .094-.51v-39.005c0-1.006-.294-1.89-.878-2.653-.586-.76-1.341-1.142-2.265-1.142h-1.247c-.401 0-.693.092-.878.269-.186.178-.277.479-.277.899v38.666c0 1.004-.201 1.709-.6 2.115a6.527 6.527 0 0 1-1.48 1.096c-.708.453-.986.867-.832 1.238.154.373.463.527.925.463m-6.285-21.107h-4.434c-.217 0-.401.039-.555.12a.91.91 0 0 0-.37.364l-1.478 2.094c-.186.258-.3.525-.347.802-.047.274.037.526.254.752.339.356.855.373 1.548.05.693-.325 1.364-.487 2.01-.487h3.372v12.062c0 1.004-.2 1.702-.6 2.092a7.012 7.012 0 0 1-1.478 1.069c-.616.357-.901.753-.855 1.19.047.44.362.61.946.513l6.607-.975c.493-.064.771-.217.833-.461.061-.242.092-.412.092-.512V177.12c0-1.004-.292-1.89-.878-2.65-.586-.762-1.34-1.143-2.264-1.143h-1.247c-.4 0-.694.09-.878.266-.185.179-.278.478-.278.9zm-12.382-2.092c-1.262-2.172-2.665-4.061-4.204-5.666-1.541-1.606-2.988-2.781-4.343-3.526-.77-.423-1.379-.47-1.826-.146-.445.324-.331.875.346 1.652a30.51 30.51 0 0 1 5.522 9.315c1.279 3.42 2.057 6.687 2.334 9.8h-4.389c-.71 0-1.165.073-1.363.217a4.139 4.139 0 0 0-.67.658l-1.665 2.432c-.308.55-.315.94-.021 1.168.292.225.637.242 1.039.049.707-.358 1.378-.584 2.01-.682.63-.095 1.532-.146 2.702-.146h2.542c-.033 1.33-.17 2.359-.416 3.088-.247.73-.646 1.32-1.202 1.775-.308.26-.478.607-.509 1.047-.03.437.231.639.787.607.091 0 .847-.08 2.264-.244 1.416-.16 2.926-.324 4.527-.484.4-.033.678-.123.832-.268.154-.146.215-.365.184-.658l-.138-4.863h4.528c1.171 0 1.755-.617 1.755-1.848 0-1.232-.584-1.848-1.755-1.848h-4.805a26.259 26.259 0 0 0-.901-4.207 30.026 30.026 0 0 0-1.502-3.964c.616-.842 1.179-1.5 1.688-1.97a45.804 45.804 0 0 1 1.501-1.337c.615-.52 1.201-.9 1.756-1.143.554-.242.892-.511 1.016-.802.831-1.233 1.433-2.426 1.802-3.577.369-1.148.292-2.064-.231-2.748-.402-.484-.924-.76-1.571-.824-.647-.066-1.371.209-2.172.824-.954.78-1.879 1.89-2.771 3.334-.894 1.442-1.788 3.104-2.681 4.985M237.522 196.72v-7.536h10.858c.339 0 .578-.074.715-.22.14-.147.208-.397.208-.753v-9.97c0-1.59-.338-2.887-1.015-3.891-.678-1.006-1.572-1.51-2.681-1.51h-1.755c-.4 0-.708.092-.925.27-.215.177-.322.478-.322.898v11.867h-20.978c-.707 0-1.162.075-1.361.219a3.977 3.977 0 0 0-.67.658l-1.48 1.994c-.215.42-.224.768-.022 1.045.199.276.484.348.855.217.769-.324 1.425-.541 1.964-.654a8.764 8.764 0 0 1 1.823-.17h7.994v7.537h-13.306c-.833 0-1.325.057-1.479.172-.154.11-.355.314-.601.607l-1.431 2.237c-.278.55-.278.972 0 1.265.276.29.647.307 1.107.049.801-.39 1.426-.633 1.872-.73.446-.098 1.332-.147 2.657-.147h22.131c.247 1.102.455 2.676.624 4.717.17 2.045.238 4.28.207 6.713h-20.006c-.738.033-1.209.097-1.408.193-.2.1-.425.293-.67.584l-1.525 1.994c-.277.553-.284.965-.023 1.24.262.276.623.286 1.086.026.801-.39 1.448-.607 1.94-.658.493-.05 1.401-.071 2.727-.071h23.564c.647-.035 1.077-.293 1.294-.78a2.976 2.976 0 0 0 .231-1.556c-.247-2.755-.694-5.171-1.341-7.246-.646-2.076-1.417-3.795-2.311-5.156h6.47c1.385 0 2.078-.574 2.078-1.726 0-1.151-.693-1.727-2.078-1.727zM274.207 206.691c0-.52.107-.883.322-1.094.216-.213.586-.316 1.11-.316h13.354c.523 0 .885.113 1.086.34.198.226.298.6.298 1.12v6.223h-16.17zm22.778-1.508c0-.972-.27-1.695-.809-2.164-.538-.47-1.486-.705-2.84-.705H271.48c-1.417 0-2.402.242-2.956.731-.555.484-.833 1.197-.833 2.138v5.885c0 .713-.108 1.271-.322 1.678a3.042 3.042 0 0 1-.83.996c-.403.26-.804.488-1.204.681-.399.196-.6.39-.6.584 0 .196.038.397.115.608.077.211.27.316.58.316h30.631c.338 0 .578-.072.716-.219.138-.146.208-.396.208-.753zm-18.11-10.215h-14.14c-.83 0-1.326.06-1.478.172-.156.113-.355.317-.602.608l-1.568 2.043c-.278.55-.278.972 0 1.265.276.291.646.307 1.107.047.8-.389 1.448-.615 1.942-.68.49-.066 1.4-.097 2.725-.097h34.654c1.385 0 2.078-.56 2.078-1.678 0-1.119-.693-1.68-2.078-1.68h-15.71v-3.986h10.165c.338 0 .576-.072.717-.219.138-.146.207-.398.207-.756v-7.146c0-.584-.193-1.088-.578-1.51-.385-.42-.838-.633-1.364-.633h-19.866v-2.578c0-.289.06-.517.185-.679.12-.163.353-.274.693-.34h20.19c1.079 0 1.619-.535 1.619-1.604 0-1.072-.54-1.605-1.62-1.605h-22.545c-2.374 0-3.852.461-4.436 1.384-.586.924-.878 2.051-.878 3.381v1.264c0 1.232-.478 1.953-1.433 2.164-.955.211-1.431.576-1.431 1.096 0 .322.075.525.23.607.154.08.339.121.554.121h23.842v3.844h-20.33c-.708 0-1.21.064-1.502.193-.293.13-.562.34-.808.633l-1.48 2.188c-.245.324-.268.656-.068.996.199.342.486.414.855.22.708-.29 1.33-.535 1.87-.73.54-.193 1.287-.29 2.24-.29h8.042zM318.147 211.361c-.618 0-1.125.031-1.526.096-.4.064-.74.275-1.016.633l-1.619 2.433c-.185.29-.23.606-.138.947.093.34.4.38.925.121.77-.357 1.485-.576 2.147-.658.663-.08 1.565-.12 2.705-.12h24.81c.34 0 .561-.097.67-.29.107-.195.161-.455.161-.78v-8.609c0-.617-.16-1.086-.485-1.41-.322-.324-.778-.486-1.362-.486h-20.237v-3.16c0-.52.161-.885.484-1.096.324-.21.733-.314 1.225-.314h19.913c1.17 0 1.75-.56 1.733-1.68-.016-1.117-.593-1.678-1.733-1.678h-24.486c-1.049.065-2.003.43-2.865 1.094-.864.664-1.31 1.695-1.34 3.09v3.355c0 1.102-.462 1.776-1.387 2.018-.925.244-1.387.592-1.387 1.045 0 .293.071.47.208.535.14.064.318.098.533.098h24.257v4.816zm8.454-23.492v-11.137a4.397 4.397 0 0 0-.924-2.725c-.616-.808-1.384-1.216-2.31-1.216h-1.849c-.398 0-.692.09-.877.27-.184.177-.278.478-.278.9v13.908h-7.761c-.831 0-1.325.056-1.48.17-.155.113-.354.316-.6.607l-1.478 2.094c-.278.55-.278.973 0 1.262.278.293.647.308 1.109.05.8-.39 1.43-.625 1.892-.705.463-.082 1.357-.123 2.681-.123h34.883c1.387 0 2.08-.558 2.08-1.677 0-1.12-.693-1.678-2.08-1.678h-9.148v-11.137a4.396 4.396 0 0 0-.923-2.725c-.617-.808-1.387-1.216-2.31-1.216h-1.849c-.4 0-.693.09-.878.27-.184.177-.278.478-.278.9v13.908zM395.307 176.78a4.4 4.4 0 0 0-.924-2.724c-.616-.81-1.386-1.216-2.31-1.216h-1.755c-.402 0-.694.091-.878.27-.185.177-.278.478-.278.898v38.714c0 1.004-.416 1.735-1.247 2.19-.833.453-1.51.824-2.033 1.117-.431.26-.577.592-.44.998.138.404.363.592.67.56l8.27-.974c.493-.066.77-.219.832-.463.063-.242.093-.414.093-.51zm-23.148 19.65a42.4 42.4 0 0 0-5.127-6.542c-1.911-1.996-3.853-3.56-5.824-4.693-.77-.455-1.377-.504-1.823-.146-.448.355-.332.908.346 1.652 2.864 3.047 5.189 6.607 6.975 10.676 1.788 4.068 2.835 7.904 3.143 11.502h-5.867c-.71 0-1.164.074-1.363.22a3.89 3.89 0 0 0-.67.657l-1.664 2.334c-.31.55-.316.94-.022 1.168.292.224.638.242 1.039.048.707-.359 1.377-.584 2.01-.68.63-.099 1.532-.148 2.702-.148h17.557c1.172 0 1.756-.599 1.756-1.799s-.584-1.8-1.756-1.8h-6.421a26.375 26.375 0 0 0-1.086-4.473 34.104 34.104 0 0 0-1.918-4.572 56.288 56.288 0 0 1 2.102-2.19c.878-.875 1.687-1.539 2.426-1.994.862-.553 1.563-.892 2.102-1.02.539-.13 1.009-.47 1.41-1.023 1.23-1.555 2.078-3.037 2.54-4.449.463-1.41.416-2.44-.138-3.09-.37-.42-.917-.648-1.64-.68-.724-.033-1.486.26-2.287.875-1.326 1.006-2.85 2.602-4.574 4.791-1.726 2.19-3.035 3.98-3.928 5.375M437.306 188.746h-7.44c-.215 0-.385.04-.507.12a2.47 2.47 0 0 0-.415.364l-1.525 2.043c-.186.26-.301.543-.347.852a.915.915 0 0 0 .254.803c.338.355.862.365 1.57.025.709-.342 1.388-.512 2.034-.512h6.376v20.282c0 1.003-.417 1.734-1.248 2.19-.831.452-1.51.823-2.032 1.116-.432.26-.578.592-.44.998.139.405.362.592.669.56l8.55-.974c.49-.066.769-.219.83-.463.062-.242.092-.414.092-.509v-27.188a4.408 4.408 0 0 0-.922-2.725c-.618-.81-1.387-1.214-2.311-1.214h-2.034c-.4 0-.691.087-.878.267-.184.178-.276.48-.276.9zm-21.161 20.28c0-1.298.446-2.35 1.34-3.163.892-.808 1.863-1.215 2.91-1.215 1.078 0 2.063.407 2.957 1.215.894.813 1.34 1.865 1.34 3.162s-.446 2.36-1.34 3.186c-.894.828-1.88 1.24-2.956 1.24-1.048 0-2.02-.412-2.911-1.24-.894-.826-1.34-1.889-1.34-3.186m-2.172-22.03 8.039-.438c.03 0 .185-.057.462-.17.278-.116.416-.43.416-.95v-4.863c.03-1.07.2-1.83.509-2.285.307-.453 1.062-.682 2.264-.682h16.449c1.384 0 2.078-.527 2.078-1.58 0-1.052-.694-1.582-2.078-1.582h-20.746c-.832 0-1.803.293-2.912.877-1.11.584-1.663 1.783-1.663 3.598v4.037c0 .777-.401 1.346-1.202 1.701a33.85 33.85 0 0 0-1.756.828c-.522.258-.707.582-.553.973.154.39.385.566.693.535m6.423 29.715c2.926 0 5.405-.703 7.438-2.115 2.033-1.41 3.05-3.266 3.05-5.569 0-2.269-1.017-4.117-3.05-5.545-2.033-1.425-4.512-2.138-7.438-2.138-2.897 0-5.367.713-7.417 2.138-2.048 1.428-3.072 3.276-3.072 5.545 0 2.336 1.024 4.198 3.072 5.594 2.05 1.395 4.52 2.09 7.417 2.09m-3.558-21.203h-7.07c-.71 0-1.201.072-1.478.22a2.694 2.694 0 0 0-.786.655l-1.431 2.043c-.217.42-.217.793 0 1.117.214.324.537.357.968.1.71-.36 1.34-.584 1.896-.684.554-.096 1.416-.145 2.588-.145h12.752c3.48 0 5.837.055 7.069.17 1.23.114 2.51.3 3.834.56.709.163 1.102.024 1.179-.415.077-.436-.147-.834-.67-1.192-1.14-.744-2.48-1.335-4.021-1.775-1.541-.435-3.834-.654-6.883-.654h-1.618v-3.504c0-1.004-.307-1.83-.924-2.479-.617-.648-1.386-.972-2.31-.972h-1.94c-.401 0-.693.09-.88.265-.184.18-.275.48-.275.903zM460.915 189.815l8.501-.68c.03 0 .185-.058.462-.17.278-.115.416-.43.416-.95v-7.536c.03-1.073.2-1.835.509-2.288.308-.455 1.062-.68 2.264-.68h15.987c1.262 0 1.893-.527 1.893-1.582 0-1.054-.631-1.58-1.893-1.58h-20.747c-.831 0-1.802.291-2.912.875-1.108.582-1.662 1.783-1.662 3.6v6.955c0 .777-.401 1.344-1.202 1.701-.801.357-1.385.633-1.756.826-.523.26-.708.584-.553.973.154.39.385.568.693.535m22.918 6.371c-1.079-.908-2.627-1.564-4.645-1.969-2.018-.406-4.643-.625-7.877-.658h-9.98c-1.94 0-3.104.562-3.488 1.68-.386 1.118-.579 1.985-.579 2.602v10.409c0 .71-.108 1.27-.323 1.677a3.025 3.025 0 0 1-.831.998 7.195 7.195 0 0 1-1.086.68c-.386.192-.578.388-.578.581 0 .195.046.4.14.61.091.21.275.317.554.317h21.021c1.14 0 1.718-.527 1.734-1.58.015-1.056-.562-1.58-1.734-1.58h-12.475v-11.238c.062-.908.271-1.474.625-1.7.354-.227.823-.327 1.409-.294h4.436c3.171-.033 5.898.073 8.178.317 2.279.244 4.112.95 5.499 2.115v13.57c0 1.004-.418 1.735-1.249 2.19-.831.453-1.509.824-2.033 1.117-.431.26-.577.592-.44.998.14.404.363.592.67.558l8.55-.972c.491-.067.769-.219.831-.463a2.5 2.5 0 0 0 .092-.51v-8.365l5.222.39c.953.063 1.439-.626 1.455-2.068.014-1.443-.47-2.164-1.455-2.164h-5.222v-14.057a4.402 4.402 0 0 0-.923-2.724c-.618-.808-1.387-1.214-2.312-1.214h-2.033c-.399 0-.693.088-.878.268-.184.177-.275.478-.275.9z" style="fill:#231f20;fill-opacity:1;fill-rule:nonzero;stroke:none" transform="matrix(1.33333 0 0 -1.33333 17.488 1034.355)"/><path d="m218.944 157.06 5.32-6.688c.754-.939 1.404-1.578 1.95-1.912a2.38 2.38 0 0 1 1.253-.359v-.406h-7.893v.406c.5.045.823.125.97.236a.513.513 0 0 1 .217.416c0 .315-.343.907-1.03 1.776l-3.475 4.367-.57-.457v-4.15c0-.793.045-1.286.135-1.48.09-.194.262-.362.516-.499.254-.139.663-.209 1.224-.209v-.406h-7.656v.406h.5c.438 0 .79.078 1.058.236.192.104.34.284.444.54.082.18.123.65.123 1.412v10c0 .777-.04 1.263-.123 1.46-.08.192-.246.364-.495.508-.248.147-.584.22-1.007.22h-.5v.405h7.562v-.406c-.518 0-.913-.074-1.183-.223-.196-.105-.35-.28-.463-.527-.09-.187-.135-.666-.135-1.437v-4.73l5.647 4.544c.784.641 1.176 1.152 1.176 1.537 0 .285-.16.512-.48.678-.166.084-.573.137-1.222.158v.406h5.914v-.406c-.53-.037-.946-.133-1.249-.287-.302-.152-.999-.672-2.089-1.557zM232.518 157.695c-.377 0-.701-.143-.971-.43-.27-.289-.448-.855-.533-1.703-.085-.847-.127-2.025-.127-3.533 0-.799.05-1.547.155-2.24.08-.532.255-.934.52-1.21.268-.277.57-.415.912-.415.333 0 .61.093.832.281.289.254.48.607.577 1.064.148.71.222 2.143.222 4.301 0 1.268-.07 2.141-.211 2.614-.14.474-.348.82-.621 1.037-.192.156-.444.234-.755.234m-.05.781c.907 0 1.75-.234 2.532-.705.78-.47 1.373-1.139 1.779-2.004.405-.865.608-1.812.608-2.842 0-1.486-.376-2.728-1.127-3.728-.907-1.209-2.16-1.815-3.76-1.815-1.567 0-2.775.553-3.623 1.66-.848 1.102-1.272 2.382-1.272 3.84 0 1.5.434 2.805 1.3 3.92.866 1.118 2.053 1.674 3.563 1.674M242.862 158.164l.01-2.37c.693 1.081 1.301 1.798 1.823 2.151.522.356 1.025.532 1.511.532.417 0 .75-.129 1-.387s.375-.623.375-1.094c0-.5-.122-.89-.366-1.166-.245-.277-.539-.416-.884-.416-.398 0-.743.127-1.036.383a6.838 6.838 0 0 1-.518.426.492.492 0 0 1-.259.066c-.212 0-.413-.082-.604-.246-.3-.252-.527-.613-.68-1.084-.235-.723-.35-1.52-.35-2.39l.007-2.409.002-.62c0-.427.027-.7.08-.819a.895.895 0 0 1 .4-.446c.176-.093.474-.15.895-.174v-.406h-5.656v.406c.452.038.758.165.917.377.16.213.24.774.24 1.686v5.781c0 .602-.03.985-.09 1.15-.074.21-.182.364-.322.462-.14.097-.39.164-.745.201v.406zM253.98 154.04c0 1.21-.067 2.04-.201 2.49-.134.45-.343.792-.626 1.027-.161.134-.376.201-.644.201-.398 0-.723-.192-.976-.574-.452-.668-.678-1.586-.678-2.75v-.395zm2.75-.72h-5.844c.069-1.396.445-2.502 1.129-3.314.525-.623 1.156-.936 1.894-.936.456 0 .87.125 1.242.375.373.248.772.698 1.198 1.344l.381-.28c-.571-1.138-1.202-1.943-1.894-2.415-.691-.473-1.491-.71-2.399-.71-1.563 0-2.747.596-3.55 1.79-.647.963-.97 2.158-.97 3.584 0 1.746.476 3.135 1.426 4.168.95 1.035 2.064 1.551 3.342 1.551 1.066 0 1.992-.434 2.777-1.299.785-.868 1.207-2.153 1.268-3.858M263.356 150.07v3.5c-.909-.533-1.586-1.104-2.029-1.713-.293-.404-.44-.814-.44-1.226 0-.346.124-.649.372-.913.188-.203.451-.304.789-.304.376 0 .812.218 1.308.656m0-.813c-1.279-1.144-2.427-1.718-3.444-1.718-.599 0-1.096.197-1.493.59-.396.394-.594.886-.594 1.478 0 .801.343 1.522 1.032 2.162.688.641 2.187 1.494 4.499 2.557v1.051c0 .79-.043 1.287-.129 1.492-.086.203-.249.383-.488.535a1.476 1.476 0 0 1-.808.23c-.486 0-.886-.109-1.2-.326-.194-.134-.291-.29-.291-.468 0-.159.105-.352.314-.582.284-.323.426-.63.426-.93 0-.365-.137-.676-.409-.934-.273-.258-.629-.386-1.07-.386-.47 0-.864.142-1.181.425-.318.283-.477.614-.477.994 0 .536.213 1.047.639 1.536.426.488 1.02.863 1.782 1.123.762.261 1.554.39 2.375.39.994 0 1.78-.21 2.359-.633.579-.42.954-.878 1.126-1.37.105-.315.157-1.036.157-2.163v-4.066c0-.479.019-.779.056-.903a.55.55 0 0 1 .167-.275.387.387 0 0 1 .246-.09c.196 0 .397.135.601.406l.336-.263c-.373-.553-.759-.955-1.158-1.205a2.523 2.523 0 0 0-1.359-.375c-.597 0-1.063.142-1.399.427-.336.284-.541.715-.615 1.291M279.269 162.04v-6.595c.248-.013.437-.02.564-.02.918 0 1.625.27 2.123.813.496.545.745 1.387.745 2.528 0 1.132-.25 1.96-.745 2.486-.498.525-1.24.787-2.224.787zm0-7.439v-4.25c0-.82.05-1.337.152-1.55.102-.213.283-.38.543-.508.26-.127.737-.192 1.43-.192v-.406h-7.75v.406c.708 0 1.188.067 1.44.198.253.13.43.3.532.508.102.21.153.724.153 1.544v9.875c0 .823-.051 1.338-.153 1.551-.101.213-.281.383-.536.51-.257.127-.735.19-1.436.19v.406h6.624c2.182 0 3.747-.387 4.696-1.16.95-.774 1.424-1.74 1.424-2.903 0-.982-.306-1.822-.918-2.52-.612-.7-1.455-1.177-2.53-1.429-.723-.18-1.947-.27-3.671-.27M292.38 157.695c-.377 0-.7-.143-.97-.43-.27-.289-.449-.855-.534-1.703-.085-.847-.127-2.025-.127-3.533 0-.799.051-1.547.155-2.24.081-.532.255-.934.521-1.21.267-.277.57-.415.911-.415.333 0 .61.093.832.281.29.254.481.607.577 1.064.148.71.222 2.143.222 4.301 0 1.268-.07 2.141-.21 2.614-.14.474-.349.82-.622 1.037-.192.156-.444.234-.755.234m-.05.781c.907 0 1.751-.234 2.532-.705.78-.47 1.373-1.139 1.78-2.004.404-.865.607-1.812.607-2.842 0-1.486-.375-2.728-1.127-3.728-.907-1.209-2.16-1.815-3.759-1.815-1.568 0-2.776.553-3.624 1.66-.848 1.102-1.272 2.382-1.272 3.84 0 1.5.434 2.805 1.3 3.92.866 1.118 2.053 1.674 3.563 1.674M305.007 158.445l.156-3.563h-.406c-.451 1.06-.917 1.782-1.4 2.17-.483.387-.963.58-1.443.58-.303 0-.56-.1-.774-.306a.957.957 0 0 1-.321-.71c0-.202.075-.396.223-.583.238-.307.905-.83 2-1.572 1.096-.743 1.817-1.373 2.163-1.89.347-.52.52-1.1.52-1.74 0-.583-.144-1.154-.432-1.714a3.05 3.05 0 0 0-1.22-1.287 3.468 3.468 0 0 0-1.738-.448c-.496 0-1.156.16-1.984.471-.221.082-.373.123-.453.123-.245 0-.448-.187-.61-.562h-.406l-.188 3.75h.407c.332-.979.787-1.713 1.367-2.203.579-.489 1.127-.735 1.644-.735.354 0 .644.112.87.33.224.221.337.49.337.801 0 .358-.112.668-.335.93-.224.26-.723.656-1.497 1.185-1.14.791-1.876 1.395-2.212 1.813-.492.611-.737 1.287-.737 2.025 0 .805.276 1.535.828 2.188.553.652 1.352.978 2.398.978.563 0 1.108-.14 1.636-.422.199-.113.363-.172.488-.172.134 0 .24.03.322.086.082.055.212.215.39.477zM311.003 162.008v-3.844h2.5v-1.094h-2.5v-6.484c0-.607.027-1 .084-1.176a.843.843 0 0 1 .299-.425c.142-.11.274-.165.394-.165.489 0 .952.366 1.387 1.094l.336-.244c-.605-1.42-1.588-2.131-2.947-2.131-.664 0-1.228.186-1.687.557-.46.369-.753.783-.88 1.24-.074.254-.111.943-.111 2.067v5.667h-1.375v.393c.94.664 1.74 1.36 2.4 2.094.66.73 1.238 1.549 1.73 2.45zM319.837 150.07v3.5c-.91-.533-1.586-1.104-2.03-1.713-.292-.404-.44-.814-.44-1.226 0-.346.125-.649.373-.913.188-.203.45-.304.789-.304.376 0 .812.218 1.308.656m0-.813c-1.28-1.144-2.428-1.718-3.444-1.718-.6 0-1.096.197-1.493.59-.396.394-.594.886-.594 1.478 0 .801.343 1.522 1.032 2.162.688.641 2.187 1.494 4.499 2.557v1.051c0 .79-.043 1.287-.13 1.492-.085.203-.248.383-.487.535a1.476 1.476 0 0 1-.808.23c-.486 0-.886-.109-1.2-.326-.193-.134-.291-.29-.291-.468 0-.159.105-.352.314-.582.284-.323.426-.63.426-.93 0-.365-.137-.676-.41-.934-.271-.258-.63-.386-1.068-.386-.471 0-.866.142-1.182.425-.318.283-.477.614-.477.994 0 .536.213 1.047.639 1.536.426.488 1.02.863 1.78 1.123.763.261 1.556.39 2.377.39.994 0 1.78-.21 2.359-.633.579-.42.955-.878 1.127-1.37.103-.315.156-1.036.156-2.163v-4.066c0-.479.019-.779.056-.903a.543.543 0 0 1 .167-.275.387.387 0 0 1 .246-.09c.196 0 .396.135.6.406l.337-.263c-.373-.553-.76-.955-1.158-1.205a2.52 2.52 0 0 0-1.36-.375c-.596 0-1.062.142-1.398.427-.336.284-.541.715-.615 1.291M329.157 162.883v-13c0-.744.087-1.22.261-1.426.174-.207.513-.324 1.02-.355v-.407h-5.687v.407c.472.015.824.15 1.052.406.153.174.23.63.23 1.375v10.812c0 .743-.089 1.217-.265 1.424-.175.209-.514.328-1.017.358v.406zM349.969 153.04l-.563-5.345h-13.468v.406h.5c.438 0 .79.08 1.057.237.193.103.34.283.446.54.08.18.122.65.122 1.411v10c0 .777-.041 1.264-.122 1.46-.082.192-.247.364-.496.51-.248.145-.584.218-1.006.218h-.501v.406h8.093v-.406h-.662c-.442 0-.797-.079-1.067-.235-.193-.105-.348-.285-.46-.539-.082-.18-.123-.65-.123-1.414v-9.686c0-.777.044-1.273.134-1.486.09-.213.263-.37.525-.476.186-.067.635-.102 1.35-.102h1.262c.804 0 1.473.143 2.009.428.536.285 1 .734 1.39 1.35.392.615.76 1.523 1.11 2.722zM356.062 157.695c-.377 0-.701-.143-.971-.43-.27-.289-.447-.855-.533-1.703-.084-.847-.127-2.025-.127-3.533 0-.799.052-1.547.155-2.24.08-.532.254-.934.521-1.21.266-.277.57-.415.911-.415.332 0 .61.093.832.281.288.254.481.607.576 1.064.15.71.223 2.143.223 4.301 0 1.268-.07 2.141-.21 2.614-.142.474-.349.82-.622 1.037-.193.156-.445.234-.756.234m-.048.781c.906 0 1.75-.234 2.53-.705.782-.47 1.374-1.139 1.78-2.004.405-.865.608-1.812.608-2.842 0-1.486-.375-2.728-1.127-3.728-.906-1.209-2.16-1.815-3.758-1.815-1.57 0-2.777.553-3.625 1.66-.847 1.102-1.271 2.382-1.271 3.84 0 1.5.433 2.805 1.299 3.92.867 1.118 2.054 1.674 3.564 1.674M366.892 157.758c-.434 0-.801-.217-1.1-.65-.298-.436-.448-1.336-.448-2.704 0-1.105.148-1.865.443-2.277.295-.412.645-.62 1.049-.62.449 0 .823.206 1.122.614.299.408.449 1.203.449 2.385 0 1.328-.17 2.234-.505 2.719a1.15 1.15 0 0 1-1.01.533m-.652-11.625c-.772 0-1.282-.063-1.532-.188-.43-.226-.645-.537-.645-.925 0-.375.223-.717.669-1.022.445-.304 1.284-.46 2.515-.46 1.05 0 1.876.138 2.477.409.6.274.9.657.9 1.149 0 .183-.055.34-.17.465-.203.22-.511.37-.922.45-.412.083-1.51.122-3.292.122m2.59 11.906h3.514v-1.22h-1.995c.363-.364.617-.698.758-.997.18-.404.268-.826.268-1.267 0-.748-.208-1.397-.622-1.947-.414-.55-.978-.98-1.691-1.29-.715-.31-1.348-.466-1.9-.466-.045 0-.493.019-1.344.056-.338 0-.621-.111-.85-.332a1.063 1.063 0 0 1-.343-.793c0-.27.103-.49.31-.664.205-.172.54-.257 1.006-.257l1.945.02c1.574 0 2.657-.17 3.25-.511.847-.476 1.27-1.21 1.27-2.2 0-.63-.194-1.204-.583-1.722a3.435 3.435 0 0 0-1.538-1.144c-.967-.363-2.08-.547-3.336-.547-.944 0-1.805.092-2.582.273-.78.182-1.336.434-1.674.756-.336.323-.505.66-.505 1.016 0 .342.128.646.385.916.256.27.735.5 1.434.684-.963.48-1.444 1.146-1.444 2 0 .517.197 1.017.592 1.505.394.487 1.019.91 1.876 1.27-1 .365-1.725.846-2.172 1.443-.447.598-.671 1.287-.671 2.073 0 1.02.419 1.908 1.257 2.658.838.75 1.915 1.125 3.232 1.125.695 0 1.413-.145 2.154-.438M375.581 163.227c.486 0 .896-.17 1.234-.51a1.69 1.69 0 0 0 .505-1.228c0-.481-.17-.89-.51-1.225a1.681 1.681 0 0 0-1.229-.506c-.48 0-.888.168-1.225.506a1.663 1.663 0 0 0-.504 1.225c0 .478.167.886.504 1.228.337.34.745.51 1.225.51m1.583-5.063v-8.281c0-.744.087-1.22.261-1.426.174-.207.513-.324 1.02-.355v-.406h-5.687v.406c.472.016.823.15 1.052.406.152.174.23.63.23 1.375v6.094c0 .744-.089 1.22-.264 1.428-.175.205-.515.324-1.018.353v.406zM385.607 158.445l.156-3.563h-.406c-.45 1.06-.917 1.782-1.399 2.17-.483.387-.964.58-1.444.58-.303 0-.56-.1-.773-.306a.955.955 0 0 1-.322-.71c0-.202.075-.396.224-.583.238-.307.904-.83 2-1.572 1.096-.743 1.817-1.373 2.162-1.89.348-.52.521-1.1.521-1.74 0-.583-.144-1.154-.433-1.714a3.039 3.039 0 0 0-1.219-1.287 3.462 3.462 0 0 0-1.739-.448c-.495 0-1.156.16-1.983.471-.222.082-.373.123-.454.123-.245 0-.448-.187-.61-.562h-.406l-.188 3.75h.407c.332-.979.788-1.713 1.367-2.203.58-.489 1.128-.735 1.644-.735.355 0 .644.112.87.33.225.221.337.49.337.801 0 .358-.112.668-.334.93-.225.26-.723.656-1.498 1.185-1.139.791-1.876 1.395-2.21 1.813-.494.611-.739 1.287-.739 2.025 0 .805.277 1.535.83 2.188.551.652 1.351.978 2.396.978.564 0 1.11-.14 1.636-.422.2-.113.363-.172.49-.172.132 0 .24.03.321.086.082.055.211.215.39.477zM391.604 162.008v-3.844h2.5v-1.094h-2.5v-6.484c0-.607.027-1 .084-1.176a.843.843 0 0 1 .3-.425c.141-.11.273-.165.393-.165.49 0 .952.366 1.387 1.094l.336-.244c-.605-1.42-1.588-2.131-2.947-2.131-.664 0-1.227.186-1.686.557-.46.369-.754.783-.88 1.24-.074.254-.111.943-.111 2.067v5.667h-1.375v.393c.94.664 1.74 1.36 2.4 2.094.66.73 1.238 1.549 1.73 2.45zM397.136 163.227c.486 0 .898-.17 1.234-.51.338-.342.506-.75.506-1.228 0-.481-.17-.89-.511-1.225a1.68 1.68 0 0 0-1.23-.506c-.478 0-.886.168-1.223.506a1.664 1.664 0 0 0-.505 1.225c0 .478.168.886.505 1.228.337.34.745.51 1.224.51m1.584-5.063v-8.281c0-.744.087-1.22.26-1.426.175-.207.514-.324 1.02-.355v-.406h-5.686v.406c.472.016.824.15 1.052.406.153.174.229.63.229 1.375v6.094c0 .744-.088 1.22-.264 1.428-.175.205-.514.324-1.017.353v.406zM409.097 150.398l.348-.27c-.494-.925-1.11-1.615-1.847-2.068a4.437 4.437 0 0 0-2.353-.678c-1.398 0-2.517.528-3.355 1.578-.84 1.053-1.258 2.32-1.258 3.797 0 1.424.383 2.678 1.15 3.76.923 1.307 2.198 1.96 3.82 1.96 1.089 0 1.955-.272 2.598-.815.642-.543.963-1.15.963-1.82 0-.424-.13-.764-.39-1.016-.26-.254-.6-.38-1.022-.38-.443 0-.81.145-1.101.434-.29.291-.47.81-.535 1.553-.046.47-.156.797-.33.983a.805.805 0 0 1-.608.28c-.361 0-.67-.19-.926-.57-.392-.576-.588-1.457-.588-2.644 0-.984.157-1.928.47-2.826.316-.9.746-1.57 1.293-2.01.41-.322.898-.482 1.46-.482.366 0 .715.086 1.043.257.33.172.719.498 1.168.977M416.883 158.445l.156-3.563h-.406c-.45 1.06-.917 1.782-1.4 2.17-.482.387-.963.58-1.443.58-.303 0-.56-.1-.773-.306a.955.955 0 0 1-.322-.71c0-.202.075-.396.224-.583.238-.307.904-.83 2-1.572 1.096-.743 1.817-1.373 2.162-1.89.348-.52.52-1.1.52-1.74 0-.583-.143-1.154-.432-1.714a3.039 3.039 0 0 0-1.22-1.287 3.462 3.462 0 0 0-1.738-.448c-.495 0-1.156.16-1.983.471-.222.082-.373.123-.454.123-.245 0-.448-.187-.61-.562h-.406l-.188 3.75h.407c.332-.979.788-1.713 1.367-2.203.579-.489 1.128-.735 1.644-.735.355 0 .644.112.87.33.225.221.337.49.337.801 0 .358-.112.668-.334.93-.225.26-.723.656-1.498 1.185-1.14.791-1.876 1.395-2.211 1.813-.493.611-.738 1.287-.738 2.025 0 .805.277 1.535.829 2.188.552.652 1.352.978 2.397.978.564 0 1.109-.14 1.636-.422.2-.113.363-.172.489-.172.133 0 .24.03.322.086.082.055.21.215.39.477zM432.435 152.883l-2.261 5.193-2.33-5.193zm.368-.844h-5.337l-.666-1.484c-.21-.496-.312-.908-.312-1.233 0-.43.17-.746.514-.95.202-.12.699-.21 1.49-.27v-.407h-5.05v.407c.545.084.993.31 1.344.683.35.373.784 1.143 1.299 2.309l5.443 12.133h.213l5.485-12.47c.522-1.19.95-1.938 1.287-2.247.254-.234.613-.37 1.076-.408v-.407h-7.347v.407h.302c.59 0 1.004.084 1.243.25a.61.61 0 0 1 .247.52c0 .136-.023.277-.068.419-.014.069-.127.352-.336.85zM444.929 157.758c-.434 0-.801-.217-1.1-.65-.298-.436-.448-1.336-.448-2.704 0-1.105.148-1.865.443-2.277.295-.412.645-.62 1.049-.62.449 0 .823.206 1.122.614.299.408.449 1.203.449 2.385 0 1.328-.17 2.234-.505 2.719a1.15 1.15 0 0 1-1.01.533m-.652-11.625c-.772 0-1.282-.063-1.532-.188-.43-.226-.645-.537-.645-.925 0-.375.223-.717.669-1.022.445-.304 1.284-.46 2.515-.46 1.05 0 1.876.138 2.477.409.6.274.9.657.9 1.149 0 .183-.055.34-.17.465-.203.22-.511.37-.922.45-.412.083-1.51.122-3.292.122m2.59 11.906h3.514v-1.22h-1.995c.363-.364.617-.698.758-.997.18-.404.268-.826.268-1.267 0-.748-.208-1.397-.622-1.947-.414-.55-.978-.98-1.691-1.29-.715-.31-1.348-.466-1.9-.466-.045 0-.493.019-1.344.056-.338 0-.621-.111-.85-.332a1.063 1.063 0 0 1-.343-.793c0-.27.103-.49.31-.664.205-.172.54-.257 1.006-.257l1.945.02c1.574 0 2.657-.17 3.25-.511.847-.476 1.27-1.21 1.27-2.2 0-.63-.194-1.204-.583-1.722a3.435 3.435 0 0 0-1.538-1.144c-.967-.363-2.08-.547-3.336-.547-.944 0-1.805.092-2.582.273-.78.182-1.336.434-1.674.756-.336.323-.505.66-.505 1.016 0 .342.128.646.385.916.256.27.735.5 1.434.684-.963.48-1.444 1.146-1.444 2 0 .517.197 1.017.592 1.505.394.487 1.019.91 1.876 1.27-1 .365-1.725.846-2.172 1.443-.447.598-.671 1.287-.671 2.073 0 1.02.419 1.908 1.257 2.658.838.75 1.915 1.125 3.232 1.125.695 0 1.413-.145 2.154-.438M457.264 154.04c0 1.21-.067 2.04-.201 2.49-.134.45-.343.792-.626 1.027-.161.134-.375.201-.644.201-.398 0-.723-.192-.976-.574-.452-.668-.678-1.586-.678-2.75v-.395zm2.75-.72h-5.844c.069-1.396.445-2.502 1.129-3.314.525-.623 1.155-.936 1.894-.936.456 0 .87.125 1.242.375.373.248.772.698 1.198 1.344l.38-.28c-.57-1.138-1.201-1.943-1.893-2.415-.691-.473-1.491-.71-2.4-.71-1.562 0-2.746.596-3.55 1.79-.645.963-.97 2.158-.97 3.584 0 1.746.477 3.135 1.426 4.168.95 1.035 2.065 1.551 3.342 1.551 1.067 0 1.992-.434 2.777-1.299.786-.868 1.208-2.153 1.269-3.858M465.108 158.164v-1.344c.538.578 1.053 1 1.547 1.262a3.315 3.315 0 0 0 1.592.395c.68 0 1.243-.188 1.691-.565a2.71 2.71 0 0 0 .897-1.406c.12-.426.18-1.242.18-2.45v-4.08c0-.802.072-1.302.216-1.5.145-.197.447-.322.908-.375v-.406h-5.28v.406c.395.053.68.217.851.493.12.185.18.646.18 1.382v4.668c0 .86-.035 1.401-.102 1.625a1.005 1.005 0 0 1-.344.524.86.86 0 0 1-.534.183c-.646 0-1.247-.457-1.802-1.375v-5.625c0-.78.072-1.275.22-1.484.143-.207.415-.338.811-.39v-.407h-5.28v.406c.436.045.75.188.935.426.126.162.19.647.19 1.45v5.906c0 .8-.073 1.295-.218 1.492-.145.195-.448.322-.908.383v.406zM481.68 150.398l.349-.27c-.494-.925-1.11-1.615-1.847-2.068a4.437 4.437 0 0 0-2.353-.678c-1.398 0-2.517.528-3.355 1.578-.84 1.053-1.258 2.32-1.258 3.797 0 1.424.383 2.678 1.15 3.76.923 1.307 2.198 1.96 3.82 1.96 1.089 0 1.955-.272 2.598-.815.642-.543.963-1.15.963-1.82 0-.424-.13-.764-.39-1.016-.26-.254-.6-.38-1.022-.38-.443 0-.81.145-1.101.434-.29.291-.47.81-.535 1.553-.046.47-.156.797-.33.983a.805.805 0 0 1-.608.28c-.361 0-.67-.19-.926-.57-.392-.576-.588-1.457-.588-2.644 0-.984.157-1.928.47-2.826.316-.9.746-1.57 1.293-2.01.41-.322.898-.482 1.46-.482.366 0 .715.086 1.043.257.33.172.719.498 1.168.977M487.665 147.266l-3.381 7.76c-.508 1.178-.884 1.9-1.127 2.172a1.895 1.895 0 0 1-.879.56v.406h5.582v-.406c-.367-.013-.624-.086-.773-.213a.58.58 0 0 1-.225-.46c0-.284.188-.844.561-1.682l1.793-4.116 1.224 3.174c.441 1.133.661 1.92.661 2.364 0 .277-.092.5-.274.664-.183.166-.506.256-.969.269v.406h3.495v-.406a1.308 1.308 0 0 1-.84-.398c-.217-.23-.578-1.006-1.086-2.334l-2.996-7.768c-.754-1.93-1.315-3.117-1.68-3.564-.516-.623-1.161-.936-1.938-.936-.619 0-1.121.178-1.505.53-.385.357-.577.785-.577 1.285 0 .43.131.79.397 1.074.264.283.59.424.976.424.373 0 .672-.118.9-.356.227-.236.345-.603.352-1.101.006-.282.038-.463.094-.545a.318.318 0 0 1 .264-.123c.18 0 .369.109.57.324.297.31.647 1.023 1.049 2.135z" style="fill:#656263;fill-opacity:1;fill-rule:nonzero;stroke:none" transform="matrix(1.33333 0 0 -1.33333 17.488 1034.355)"/></svg>