<svg xmlns="http://www.w3.org/2000/svg" width="673.28217pt" height="150pt" viewBox="0 0 673.28213 150"><defs><clipPath id="a"><path d="M0 822.047h1207.559V0H0Z"/></clipPath><clipPath id="b"><path d="M0 822.047h1207.559V0H0Z"/></clipPath><clipPath id="c"><path d="M0 822.047h1207.559V0H0Z"/></clipPath><clipPath id="d"><path d="M0 822.047h1207.559V0H0Z"/></clipPath><clipPath id="e"><path d="M0 822.047h1207.559V0H0Z"/></clipPath><clipPath id="f"><path d="M0 822.047h1207.559V0H0Z"/></clipPath><clipPath id="g"><path d="M0 822.047h1207.559V0H0Z"/></clipPath></defs><path fill="#ee372c" d="m193.94 793.79-43.005-31.316c-1.204-1.034-3.154-1.82-5.404-2.289l43.355 54.524zm-5.399 22.338-44.705-56.225c-2.431-.317-5.082-.272-7.484.192L29.485 777.533c-3.985.774-6.178 2.504-5.884 4.318v80.35s0 2.318 2.877 4.624l47.9 41.043s1.424.956 2.6 1.487l97.997-37.086zm-110.128 9.078v-.22l.47.124zm122.892-24.854c-.023-.684-.39-1.374-1.165-2.046l-5.194-3.782-5.161 21.321 11.554 14.533v-30.032ZM79.533 909.615c1.164-.057 3.38-.277 7.28-1.035l83.25-16.024 4.584-18.942zm96.742-37.844 25.064-9.485v-30.06l-11.893-14.962zm-4.974 20.547 24.102-4.635s5.642-1.34 5.936-4.087V863.52l-25.392 9.609z" style="stroke-width:5.6525" transform="translate(-23.575 -759.7)"/><path fill="#fff" d="M78.416 824.987v.22l.475-.095-.475-.125m122.925 7.236v-1.843l-11.554-14.533 5.155-21.321-1-.735-5.06 20.914-43.348-54.518a22.607 22.607 0 0 0-1.696-.283l44.7 56.22-13.566 56.14-97.998 37.087c.662.3 1.238.463 1.442.254 0 0 .305.046 1.113.012l95.12-35.995-4.584 18.936 1.244-.237 4.64-19.196 25.392-9.61v-1.226l-25.07 9.485 13.177-54.507z" style="stroke-width:5.6525" transform="translate(-23.575 -759.7)"/><path fill="#fff" d="M58.741 814.362h9.332c8.96 0 13.165 3.03 13.165 9.643 0 5.946-4.33 9.48-11.65 9.48h-3.024v10.275h-7.823Zm7.823 13.566h2.018c2.69 0 4.833-.973 4.833-4.048 0-2.99-2.142-3.962-4.833-3.962h-2.018zM98.48 813.853c9.665 0 14.718 5.766 14.718 15.21 0 9.35-5.138 15.206-14.719 15.206-9.586 0-14.73-5.856-14.73-15.205 0-9.446 5.053-15.211 14.73-15.211m0 24.605c4.748 0 6.642-4.55 6.642-9.394 0-5.104-1.894-9.395-6.642-9.395-4.753 0-6.647 4.29-6.647 9.395 0 4.844 1.894 9.394 6.647 9.394M117.65 836.518c2.018 1.097 4.833 1.94 8.077 1.94 2.476 0 4.833-.515 4.833-2.867 0-5.477-13.882-2.023-13.882-12.723 0-7.077 6.901-9.016 12.786-9.016 2.82 0 5.59.424 7.568 1.096l-.497 6.071c-2.024-.927-4.296-1.35-6.523-1.35-1.979 0-5.251.163-5.251 2.735 0 4.76 13.877 1.56 13.877 12.17 0 7.63-6.4 9.694-12.91 9.694-2.742 0-6.145-.418-8.757-1.266zM152.001 814.362h9.593l11.31 29.398h-8.575l-2.187-6.274h-11.023l-2.311 6.274h-7.948zm4.794 6.06h-.08l-3.781 11.502h7.354z" style="stroke-width:5.6525" transform="translate(-23.575 -759.7)"/><path fill="#959799" d="M233.131 863.47h3.697v7.953l6.67-7.953h4.55l-7.591 8.721 7.902 9.78h-4.839l-6.636-8.587h-.056v8.586h-3.697z" style="stroke-width:5.6525" transform="translate(-23.575 -759.7)"/><g fill="#959799" clip-path="url(#a)" transform="matrix(5.6525 0 0 5.6525 -240.344 -4080.033)"><path d="M84.622 740.112c1.025 0 1.6.693 1.6 1.683 0 .988-.565 1.701-1.6 1.701-1.048 0-1.6-.699-1.6-1.7 0-1.005.562-1.684 1.6-1.684m0 2.868c.67 0 .918-.596.918-1.185 0-.577-.266-1.167-.918-1.167-.65 0-.916.59-.916 1.168 0 .589.248 1.185.916 1.185M87.235 740.168h.706c.702 0 1.539-.022 1.539.887a.75.75 0 0 1-.674.759v.009c.178.015.28.192.347.337l.523 1.28h-.73l-.392-1.022c-.093-.243-.178-.336-.454-.336h-.211v1.359h-.654Zm.654 1.398h.216c.323 0 .693-.048.693-.455 0-.394-.367-.427-.693-.427h-.216Z"/></g><path fill="#959799" d="M295.446 863.47h10.892v2.916h-7.19v4.562h6.586v2.916h-6.586v5.19h7.247v2.916h-10.949ZM318.086 863.478h4.177l7.252 18.49h-4.103l-1.589-4.234h-7.478l-1.617 4.233h-3.832Zm2.04 3.702h-.056l-2.668 7.631h5.387z" style="stroke-width:5.6525" transform="translate(-23.575 -759.7)"/><g fill="#959799" clip-path="url(#b)" transform="matrix(5.6525 0 0 5.6525 -240.344 -4080.033)"><path d="M98.312 740.168h.827c.71 0 1.362.208 1.362.989 0 .765-.558 1.04-1.259 1.04h-.276v1.244h-.654Zm.654 1.515h.23c.327 0 .621-.108.621-.488s-.285-.511-.621-.511h-.23zM102.878 740.112c1.024 0 1.6.693 1.6 1.683 0 .988-.566 1.701-1.6 1.701-1.048 0-1.6-.699-1.6-1.7 0-1.005.562-1.684 1.6-1.684m0 2.868c.67 0 .918-.596.918-1.185 0-.577-.269-1.167-.918-1.167-.65 0-.917.59-.917 1.168 0 .589.248 1.185.917 1.185M107.3 740.769a1.69 1.69 0 0 0-.664-.141c-.225 0-.515.099-.515.455 0 .567 1.432.328 1.432 1.425 0 .716-.567.989-1.227.989-.355 0-.513-.048-.836-.127l.06-.591c.226.122.482.202.739.202.249 0 .58-.126.58-.422 0-.623-1.43-.366-1.43-1.448 0-.731.565-.998 1.14-.998.28 0 .544.037.78.118z"/></g><path fill="#959799" d="M400.54 866.388h-5.284v-2.917h14.272v2.917h-5.285v15.584h-3.702zM417.712 863.478h4.172l7.246 18.49h-4.098l-1.583-4.234h-7.49l-1.616 4.233h-3.827zm2.03 3.702h-.052l-2.668 7.631h5.387zM434.157 863.47h3.708v15.583h7.167v2.917h-10.875z" style="stroke-width:5.6525" transform="translate(-23.575 -759.7)"/><g clip-path="url(#c)" transform="matrix(5.6525 0 0 5.6525 -240.344 -4080.033)"><path fill="#959799" d="M120.553 740.769a1.696 1.696 0 0 0-.666-.141c-.224 0-.513.099-.513.455 0 .567 1.431.328 1.431 1.425 0 .716-.566.989-1.226.989-.354 0-.513-.048-.838-.127l.062-.591c.224.122.481.202.739.202.248 0 .581-.126.581-.422 0-.623-1.432-.366-1.432-1.448 0-.731.566-.998 1.142-.998.28 0 .542.037.781.118z"/></g><path fill="#959799" d="M472.089 863.47h10.898v2.916h-7.19v4.562h6.58v2.916h-6.58v5.19h7.24v2.916H472.09z" style="stroke-width:5.6525" transform="translate(-23.575 -759.7)"/><g clip-path="url(#d)" transform="matrix(5.6525 0 0 5.6525 -240.344 -4080.033)"><path fill="#959799" d="M124.881 740.168h.708c.702 0 1.538-.022 1.538.887a.749.749 0 0 1-.673.759v.009c.178.015.281.192.346.337l.523 1.28h-.729l-.393-1.022c-.093-.243-.178-.336-.453-.336h-.21v1.359h-.657Zm.656 1.398h.215c.323 0 .693-.048.693-.455 0-.394-.365-.427-.693-.427h-.215Z"/></g><path fill="#959799" d="M505.896 863.47h3.968l4.731 14.52h.051l4.68-14.52h3.675l-6.213 18.5h-4.55zM527.74 881.972h3.708v-18.5h-3.708z" style="stroke-width:5.6525" transform="translate(-23.575 -759.7)"/><g clip-path="url(#e)" transform="matrix(5.6525 0 0 5.6525 -240.344 -4080.033)"><path fill="#959799" d="M135.915 743.394a3.37 3.37 0 0 1-.744.103c-1.057 0-1.79-.53-1.79-1.636 0-1.12.682-1.748 1.79-1.748.216 0 .501.042.74.136l-.047.553a1.357 1.357 0 0 0-.707-.174c-.672 0-1.094.515-1.094 1.185 0 .666.412 1.168 1.108 1.168.258 0 .563-.056.716-.137z"/></g><path fill="#959799" d="M556.867 863.47h10.898v2.916h-7.196v4.562h6.586v2.916h-6.586v5.19h7.247v2.916h-10.949zM584.216 863.478h4.182l7.241 18.49h-4.098l-1.588-4.234h-7.484l-1.617 4.233h-3.82zm2.04 3.702h-.056l-2.674 7.631h5.398z" style="stroke-width:5.6525" transform="translate(-23.575 -759.7)"/><g clip-path="url(#f)" transform="matrix(5.6525 0 0 5.6525 -240.344 -4080.033)"><path fill="#959799" d="M147.165 740.802a2.126 2.126 0 0 0-.843-.174c-.762 0-1.182.515-1.182 1.185 0 .666.411 1.167 1.108 1.167.178 0 .318-.018.431-.046v-.852h-.694v-.517h1.32v1.762c-.345.095-.707.17-1.057.17-1.057 0-1.79-.53-1.79-1.636 0-1.12.682-1.748 1.79-1.748.38 0 .678.05.96.136z"/></g><path fill="#959799" d="M622.416 863.47h10.887v2.916h-7.185v4.562h6.591v2.916h-6.59v5.19h7.24v2.916h-10.943zM639.579 863.47h4.55l7.037 13.831h.04V863.47h3.55v18.5h-4.517l-7.06-13.832h-.056v13.832h-3.545z" style="stroke-width:5.6525" transform="translate(-23.575 -759.7)"/><g clip-path="url(#g)" transform="matrix(5.6525 0 0 5.6525 -240.344 -4080.033)"><path fill="#959799" d="M157.755 743.394a3.377 3.377 0 0 1-.743.103c-1.058 0-1.793-.53-1.793-1.636 0-1.12.683-1.748 1.793-1.748.215 0 .5.042.738.136l-.046.553a1.353 1.353 0 0 0-.706-.174c-.674 0-1.096.515-1.096 1.185 0 .666.412 1.168 1.11 1.168.257 0 .561-.056.714-.137z"/></g><path fill="#959799" d="m685.21 874.655-6.744-11.187h4.336l4.369 7.767 4.437-7.767h3.912l-6.608 11.187v7.314h-3.702z" style="stroke-width:5.6525" transform="translate(-23.575 -759.7)"/><path fill="#505153" d="M228.833 807.76v-5.414h12.504V796.5h6.772v5.845h12.503v5.415zm15.974 22.057c-4.013 0-7.246-.933-9.7-2.781-2.435-1.849-3.668-4.217-3.668-7.083 0-2.837 1.216-5.183 3.646-7.037 2.43-1.86 5.692-2.787 9.773-2.787 4.087 0 7.349.921 9.79 2.77 2.437 1.848 3.652 4.2 3.652 7.054 0 2.855-1.221 5.212-3.669 7.071-2.441 1.854-5.72 2.793-9.824 2.793m-7.93 17.715v-15.353h6.772v9.666h27.985v5.687zm7.981-31.835c-2.114 0-3.753.384-4.9 1.147-1.16.763-1.741 1.803-1.741 3.11 0 1.327.565 2.384 1.695 3.176 1.125.791 2.776 1.181 4.946 1.181 2.21 0 3.878-.39 5.02-1.164 1.136-.78 1.701-1.849 1.701-3.194 0-1.328-.582-2.368-1.74-3.12-1.17-.763-2.827-1.136-4.98-1.136m25.328 4.313v14.945h-6.692v-37.73h6.692v17.104h7.93v5.68zM317.77 849.174v-14.437h-28.037V829h14.058v-7.507h-20.276v-5.686h33.746c.265-4.217.401-8.134.401-11.74h-26.59v-5.687h33.367c0 4.618-.226 10.43-.678 17.427h7.88v5.686h-21.13V829h14.036v20.174zM362.246 831.588v17.585h-6.777v-17.585h-20.643v-5.737h48.12v5.737zm-3.363-9.83c-5.32 0-9.53-1.096-12.64-3.29-3.097-2.187-4.651-5.092-4.651-8.721 0-3.522 1.549-6.348 4.646-8.479 3.092-2.142 7.275-3.205 12.538-3.205 5.375 0 9.603 1.057 12.684 3.171 3.07 2.12 4.612 4.957 4.612 8.513 0 3.612-1.532 6.517-4.573 8.716-3.046 2.193-7.252 3.295-12.616 3.295m-.107-18.314c-3.386 0-5.947.566-7.688 1.68-1.735 1.13-2.606 2.661-2.606 4.623 0 1.939.87 3.47 2.617 4.595 1.753 1.12 4.308 1.68 7.677 1.68 3.329 0 5.884-.56 7.647-1.668 1.77-1.114 2.651-2.646 2.651-4.607 0-1.962-.881-3.493-2.65-4.624-1.764-1.113-4.32-1.679-7.648-1.679M420.83 826.743c-2.164.532-5.635.803-10.406.803h-21.852v-5.545h6.313l-.61-14.193h6.664l.35 14.193h5.585l.357-14.193h6.534l-.537 14.114c2.905 0 5.268-.18 7.094-.543zm-30.941-27.041h28.285v5.522h-28.285zm9.038 47.662v-16.607h6.738v10.926h27.725v5.68zm18.919-27.41v-5.194h7.823v-2.747h-7.823v-5.195h7.823v-9.592h6.67v37.567h-6.67v-14.838zM468.768 836.275c-5.5-3.787-9.456-8.055-11.876-12.797-2.78 5.46-6.771 10.022-11.966 13.68l-5.217-4.517c3.973-2.046 7.28-5.11 9.892-9.186 2.622-4.075 3.922-8.258 3.922-12.548v-10.203h6.727v10.033c0 4.223 1.294 8.293 3.872 12.204 2.583 3.912 5.709 6.659 9.377 8.213zm14.194-13.413v26.312h-6.699v-51.952h6.699v19.96h8.122v5.68zM522.948 813.814c-.673 2.996-2.25 5.416-4.691 7.27-2.454 1.854-5.348 2.775-8.694 2.775-3.895 0-7.134-1.232-9.722-3.702-2.59-2.47-3.89-5.574-3.89-9.304 0-3.703 1.295-6.806 3.873-9.321 2.583-2.51 5.822-3.77 9.739-3.77 3.33 0 6.235.943 8.722 2.814 2.481 1.877 4.053 4.375 4.72 7.507h9.083v-10.859h6.614v27.901h-6.614v-11.31Zm-13.385-10.423c-2.114 0-3.815.69-5.087 2.07-1.266 1.384-1.905 3.181-1.905 5.392 0 2.204.627 4.007 1.888 5.398 1.266 1.39 2.962 2.086 5.104 2.086 2.148 0 3.855-.696 5.132-2.098 1.267-1.401 1.905-3.199 1.905-5.386 0-2.194-.644-3.985-1.922-5.376-1.277-1.385-2.984-2.086-5.115-2.086m-4.358 44.678v-20.734h6.608v5.302h20.275v-5.302h6.568v20.734zm26.883-9.807h-20.275v4.29h20.275zM577.52 827.897c-4.894-2.408-8.76-5.659-11.587-9.774-.916 1.956-2.566 4.115-4.968 6.478-2.408 2.357-4.658 4.042-6.75 5.042l-4.787-4.731c3.617-1.385 6.681-3.629 9.18-6.738 2.504-3.097 3.753-6.246 3.753-9.422v-2.99h-10.672v-5.602h27.855v5.601h-10.412v2.776c0 3.131 1.193 5.969 3.578 8.546 2.386 2.578 5.41 4.471 9.084 5.675zm-18.41 19.523v-17.364h6.772v11.678h27.715v5.686zm27.308-50.194h6.613v37.16h-6.613zM686.23 824.423c-3.945.271-7.885.486-11.83.65v10.825h-6.557v-10.56c-5.896.233-10.797.351-14.702.351l-.944-5.844c12.656 0 23.848-.328 33.587-.995zm-16.963-7.19c-3.996 0-7.23-.87-9.71-2.611-2.488-1.741-3.731-4.048-3.731-6.919 0-2.871 1.266-5.178 3.775-6.896 2.521-1.724 5.743-2.589 9.666-2.589 4.036 0 7.275.854 9.722 2.55 2.448 1.695 3.675 4.007 3.675 6.935 0 2.888-1.255 5.195-3.76 6.936-2.498 1.73-5.708 2.594-9.637 2.594m-9.406 30.298v-16.054h6.721v10.367h30.275v5.687zm9.406-44.084c-2.057 0-3.697.412-4.906 1.243-1.204.825-1.815 1.826-1.815 3.013 0 1.22.588 2.244 1.775 3.07 1.182.825 2.838 1.237 4.946 1.237 2.08 0 3.725-.424 4.93-1.272 1.192-.842 1.791-1.854 1.791-3.035 0-1.277-.57-2.306-1.73-3.086-1.158-.786-2.82-1.17-4.99-1.17m19.546 33.253v-3.742h-10.028v-5.223h10.028v-30.512h6.777V836.7zM598.933 824.424h48.125v5.387h-48.125zm4.296-18.88v-5.166h16.398v-3.985h6.675v3.985h16.45v5.166zm19.767 43.304c-11.814 0-17.715-2.787-17.715-8.371 0-5.641 5.901-8.456 17.715-8.456 11.808 0 17.71 2.815 17.71 8.456 0 5.584-5.902 8.371-17.71 8.371m0-26.985c-11.531 0-17.297-2.453-17.297-7.376 0-4.958 5.766-7.433 17.297-7.433 11.48 0 17.234 2.475 17.234 7.433 0 4.923-5.754 7.376-17.234 7.376m0 15.25c-7.156 0-10.729 1.12-10.729 3.364 0 2.153 3.573 3.233 10.729 3.233 7.15 0 10.723-1.08 10.723-3.233 0-2.244-3.573-3.363-10.723-3.363m0-25.318c-6.942 0-10.412.893-10.412 2.69 0 .933.82 1.606 2.453 2.019 1.622.418 4.285.621 7.959.621 3.668 0 6.314-.203 7.93-.621 1.606-.413 2.414-1.086 2.414-2.018 0-1.798-3.454-2.691-10.344-2.691" style="stroke-width:5.6525" transform="translate(-23.575 -759.7)"/></svg>