<svg xmlns="http://www.w3.org/2000/svg" xml:space="preserve" width="377.95374" height="233.14133" viewBox="0 0 377.95373 233.14133"><path d="M436.038 349.04c0 6.576 5.33 11.909 11.905 11.909 6.575 0 11.906-5.333 11.906-11.908 0-6.575-5.331-11.905-11.906-11.905s-11.905 5.33-11.905 11.905" style="fill:#ff4e00;fill-opacity:1;fill-rule:nonzero;stroke:none" transform="matrix(1.33333 0 0 -1.33333 -372.283 513.616)"/><path d="M467.765 360.948h17.028v-78.34h-17.028zM529.163 282.609c-17.347 0-28.18 6.449-33.056 19.7l17.597 3.163c2.822-6.293 8.52-9.48 16.954-9.48 10.75 0 12.358 4.968 12.358 7.93 0 2.732-1.2 4.987-3.465 6.513-1.802 1.205-4.702 2.197-8.86 3.04-13.642 2.612-22.391 5.93-26.007 9.869-3.584 3.898-5.33 8.365-5.33 13.646 0 6.885 2.542 12.453 7.763 17.017 5.275 4.604 13.113 6.942 23.3 6.942 14.205 0 23.688-5.011 28.944-15.307l-15.204-4.601c-2.902 5.046-7.82 7.602-14.64 7.602-9.66 0-11.1-5.01-11.1-7.995 0-2.46 1.11-4.57 3.13-5.938 1.578-1.07 4.185-1.965 8.204-2.826 9.587-2.025 16.443-3.827 20.379-5.347 3.552-1.377 6.569-3.775 8.968-7.14 2.375-3.33 3.58-7.344 3.58-11.925 0-7.372-2.912-13.184-8.908-17.771-6.147-4.705-14.426-7.092-24.607-7.092M439.896 329.227h-.468v-.028h-31.242v31.75h-17.028v-78.34h17.028v32.731h22.961c4.572 0 8.281-3.634 8.281-8.118v-24.614h17.03v30.383c0 8.967-7.414 16.236-16.562 16.236M322.881 360.948h-17.028v-78.34h17.028zM353.272 330.639l26.575 30.31h-19.98l-26.578-30.31-7.969-8.858 7.97-8.862 26.577-30.31h19.98l-26.575 30.31-7.975 8.678z" style="fill:#00a1e0;fill-opacity:1;fill-rule:nonzero;stroke:none" transform="matrix(1.33333 0 0 -1.33333 -372.283 513.616)"/><path d="M463.319 258.346h-149.33c-19.177 0-34.776 15.6-34.776 34.776v57.313c0 19.177 15.599 34.777 34.776 34.777h119.955c8.52 0 15.45-6.931 15.45-15.451a1.468 1.468 0 1 0-2.937 0c0 6.899-5.614 12.513-12.513 12.513H313.989c-17.556 0-31.839-14.282-31.839-31.84v-57.312c0-17.555 14.283-31.838 31.839-31.838h149.33c6.899 0 12.513 5.614 12.513 12.513 0 .812.657 1.468 1.468 1.468.813 0 1.469-.656 1.469-1.468 0-8.52-6.93-15.451-15.45-15.451" style="fill:#00a1e0;fill-opacity:1;fill-rule:nonzero;stroke:none" transform="matrix(1.33333 0 0 -1.33333 -372.283 513.616)"/><path d="M284.882 238.61c.274-.156.452-.373.53-.647.08-.276.032-.561-.146-.858-2.029-3.325-3.042-7.184-3.042-11.573v-1.033c0-4.37 1.013-8.228 3.042-11.575.178-.275.225-.554.146-.84a1.073 1.073 0 0 0-.53-.664 1.227 1.227 0 0 0-.87-.15c-.307.06-.576.247-.813.563-1.319 1.674-2.313 3.596-2.983 5.772-.669 2.174-1.004 4.522-1.004 7.04v.74c0 2.519.335 4.866 1.004 7.04.67 2.176 1.664 4.1 2.983 5.773.237.314.506.502.812.56.304.06.594.01.871-.147M308.295 238.109c.354 0 .674-.094.96-.28.284-.188.428-.477.428-.87v-23.206c0-.395-.144-.685-.428-.872a1.717 1.717 0 0 0-.96-.281c-.335 0-.645.094-.93.28-.286.188-.428.478-.428.873v12.783h-3.16v-11.544c0-.394-.142-.684-.428-.872a1.725 1.725 0 0 0-1.89 0c-.284.188-.427.478-.427.872v21.67c0 .395.143.685.428.872.285.187.595.28.93.28.354 0 .675-.093.959-.28.286-.187.429-.477.429-.871v-7.617h3.159v7.913c0 .393.142.682.428.87.285.186.595.28.93.28m-8.902-2.628c.169-.255.25-.55.25-.885 0-.335-.081-.63-.25-.885-.166-.257-.427-.383-.783-.383h-3.777v-2.835c0-.612.027-1.156.087-1.64.06-.481.157-.94.296-1.372.138-.433.319-.841.546-1.226.225-.383.506-.772.842-1.166a26.719 26.719 0 0 1 1.52-1.727c.502-.522.939-.98 1.313-1.373.255-.276.374-.595.355-.96a1.378 1.378 0 0 0-.415-.93 1.467 1.467 0 0 0-.898-.397c-.345-.03-.656.093-.931.369a32.62 32.62 0 0 0-1.033 1.092l-1.358 1.476c-.65.748-1.088 1.332-1.315 1.756-.225.423-.368.792-.428 1.108h-.03c-.038-.336-.182-.724-.428-1.166-.246-.443-.693-1.04-1.344-1.787a69.211 69.211 0 0 0-2.833-3.01c-.276-.277-.595-.395-.96-.356a1.453 1.453 0 0 0-.901.414 1.633 1.633 0 0 0-.442.945c-.04.354.078.677.355.974.57.57 1.137 1.152 1.697 1.742a40.403 40.403 0 0 1 1.638 1.83c.335.394.616.783.842 1.166.226.385.408.793.546 1.226.138.432.236.89.296 1.372.059.484.089 1.028.089 1.64v2.835h-4.017c-.374 0-.646.126-.811.383-.168.255-.252.55-.252.885 0 .335.084.63.252.885.165.256.437.385.81.385h10.689c.356 0 .617-.13.783-.385M313.637 238.61c.296.158.593.208.886.149.296-.06.56-.247.798-.561 1.318-1.672 2.312-3.597 2.982-5.772.67-2.175 1.004-4.522 1.004-7.041v-.74c0-2.518-.335-4.866-1.004-7.04-.67-2.176-1.664-4.098-2.982-5.772-.238-.316-.502-.502-.798-.562a1.293 1.293 0 0 0-.886.149 1.068 1.068 0 0 0-.529.664c-.08.286-.032.565.146.84 2.028 3.347 3.042 7.206 3.042 11.575v1.033c0 4.389-1.014 8.248-3.042 11.573-.178.297-.226.582-.146.858.077.274.255.49.53.648M345.288 230.551h2.806c.452 0 .787-.157 1.004-.472.216-.316.324-.7.324-1.152 0-.453-.108-.837-.324-1.151-.217-.315-.552-.473-1.004-.473h-2.806v-7.883c0-.552-.191-.955-.574-1.211a2.272 2.272 0 0 0-1.286-.383 2.31 2.31 0 0 0-1.313.383c-.383.256-.576.659-.576 1.211v17.242c0 .552.193.955.576 1.211.384.256.82.384 1.313.384.473 0 .9-.128 1.286-.384.383-.256.574-.659.574-1.211zm-13.344-6.85c1.064 0 1.846.202 2.348.605.5.404.75.911.75 1.521 0 .61-.25 1.117-.75 1.52-.502.404-1.284.606-2.348.606-1.062 0-1.844-.202-2.346-.606-.502-.403-.755-.91-.755-1.52s.253-1.117.755-1.521c.502-.403 1.284-.605 2.346-.605m-1.624-12.606c-.944 0-1.598.176-1.964.531-.364.354-.545.994-.545 1.918v4.459c0 .551.19.954.576 1.21.382.256.83.385 1.34.385a2.32 2.32 0 0 0 1.317-.385c.383-.256.575-.659.575-1.21v-3.012c0-.452.226-.678.679-.678h12.31c.454 0 .789-.158 1.004-.474.219-.313.326-.698.326-1.15 0-.433-.107-.807-.326-1.122-.215-.315-.55-.472-1.003-.472zm1.624 19.751c2.027 0 3.616-.447 4.768-1.344 1.15-.895 1.726-2.121 1.726-3.675 0-1.555-.575-2.78-1.726-3.676-1.152-.896-2.741-1.343-4.768-1.343-2.03 0-3.617.447-4.768 1.343-1.151.896-1.728 2.121-1.728 3.676 0 1.554.577 2.78 1.728 3.675 1.15.897 2.739 1.344 4.768 1.344m-6.82 1.24c-.453 0-.788.158-1.003.473-.22.314-.326.688-.326 1.122 0 .432.107.808.326 1.122.215.314.55.473 1.003.473h4.93v1.446c0 .55.19.953.575 1.211a2.32 2.32 0 0 0 1.315.383c.49 0 .929-.127 1.313-.383.385-.258.576-.661.576-1.211v-1.446h4.636c.452 0 .787-.159 1.003-.473.216-.314.324-.69.324-1.122 0-.434-.108-.808-.324-1.122-.216-.315-.551-.473-1.003-.473zM355.091 233.916c-.454 0-.789.157-1.004.473-.218.314-.325.7-.325 1.151 0 .453.107.837.325 1.151.215.316.55.473 1.004.473h14.703c.944 0 1.6-.176 1.964-.53.363-.356.546-.995.546-1.92v-2.007a18.5 18.5 0 0 0-.119-2.053 28.59 28.59 0 0 0-.296-2.008 17.87 17.87 0 0 0-.854-3.115l-3.339.71c.573 2.105.858 4.181.858 6.23v.767c0 .452-.228.678-.68.678zm-.118-16.71c-.454 0-.789.157-1.004.472-.219.314-.324.688-.324 1.122 0 .413.105.777.324 1.093.215.314.55.471 1.004.471h15.116c.946 0 1.6-.177 1.964-.53.362-.355.547-.995.547-1.92v-5.875c0-.552-.194-.955-.577-1.21a2.314 2.314 0 0 0-1.314-.385c-.492 0-.93.128-1.313.384-.384.256-.577.66-.577 1.211v4.487c0 .453-.226.68-.678.68zm6.465 1.445v5.67h-9.3c-.454 0-.787.158-1.004.473a1.875 1.875 0 0 0-.326 1.093c0 .431.11.805.326 1.12.217.315.55.473 1.004.473h22.321c.452 0 .787-.158 1.004-.473.216-.315.325-.689.325-1.12 0-.415-.109-.779-.325-1.093-.217-.315-.552-.473-1.004-.473h-9.3v-5.67zM395.008 225.916c.452 0 .68.227.68.678v2.805h-11.044v-2.805c0-.45.227-.678.68-.678zm-11.633-3.159c-.944 0-1.598.176-1.964.531-.364.355-.545.993-.545 1.92v10.215c0 .532.197.93.59 1.195.394.266.826.4 1.3.4a2.28 2.28 0 0 0 1.3-.4c.391-.265.588-.663.588-1.195v-2.864h11.044v2.864c0 .532.196.93.59 1.195.393.266.827.4 1.298.4.473 0 .905-.134 1.3-.4.393-.265.59-.663.59-1.195v-10.216c0-.926-.182-1.564-.546-1.919-.364-.355-1.019-.53-1.964-.53zm-4.37-7.883c-.452 0-.787.157-1.004.472-.217.313-.324.69-.324 1.121 0 .432.107.807.324 1.122.217.314.552.473 1.004.473h9.271v6.495h3.78v-6.495h9.27c.453 0 .787-.159 1.004-.473.217-.315.324-.69.324-1.122 0-.432-.107-.808-.324-1.12-.217-.316-.55-.473-1.004-.473zM423.587 228.307h-6.525v3.188h6.525v5.167c0 .552.191.956.575 1.21a2.32 2.32 0 0 0 1.316.385c.47 0 .9-.128 1.284-.384.383-.255.575-.66.575-1.211v-16.947c0-.55-.192-.954-.575-1.21a2.262 2.262 0 0 0-1.284-.385c-.493 0-.93.128-1.316.385-.384.256-.575.66-.575 1.21zm-11.633-17.212c-.944 0-1.599.176-1.963.53-.364.355-.547.995-.547 1.919v5.58c0 .552.193.955.576 1.21.383.257.833.385 1.343.385a2.32 2.32 0 0 0 1.316-.384c.383-.256.573-.66.573-1.211v-4.132c0-.453.228-.68.68-.68h12.726c.452 0 .786-.156 1.004-.473.215-.313.324-.698.324-1.15 0-.433-.109-.807-.324-1.122-.218-.315-.552-.472-1.004-.472zm-4.843 22.203c-.452 0-.787.155-1.003.472-.216.314-.325.688-.325 1.122 0 .452.11.835.325 1.15.216.315.551.472 1.003.472h8.711c.945 0 1.6-.176 1.962-.531.366-.354.547-.992.547-1.918v-2.45c0-1.064-.116-1.975-.353-2.733-.238-.758-.72-1.49-1.447-2.2-.729-.708-1.77-1.456-3.13-2.243-1.358-.787-3.16-1.741-5.404-2.863a1.39 1.39 0 0 0-.692-.163 1.848 1.848 0 0 0-1.21.517 1.479 1.479 0 0 0-.37.53 2.353 2.353 0 0 0-.206 1.242c.037.452.303.796.797 1.033 1.318.65 2.435 1.215 3.35 1.697.915.48 1.68.915 2.288 1.3.61.384 1.092.728 1.447 1.033.353.305.62.609.797.915.177.306.286.62.327.944.038.327.058.695.058 1.109v.886c0 .45-.226.679-.68.679zM450.81 236.662c0 .552.19.955.575 1.211.384.256.821.384 1.314.384.472 0 .901-.128 1.284-.384.384-.256.577-.659.577-1.21v-22.617c0-.55-.193-.953-.577-1.21a2.269 2.269 0 0 0-1.284-.384c-.493 0-.93.128-1.314.383-.385.258-.575.661-.575 1.211zm-10.246-3.07c-1.3 0-2.253-.325-2.864-.974-.612-.65-.915-1.487-.915-2.51 0-1.023.303-1.86.915-2.51.611-.649 1.564-.974 2.864-.974 1.301 0 2.254.325 2.865.974.608.65.913 1.487.913 2.51 0 1.023-.305 1.86-.913 2.51-.61.65-1.564.974-2.865.974m0-10.098c-1.222 0-2.287.162-3.204.487-.915.325-1.677.784-2.288 1.374a5.791 5.791 0 0 0-1.387 2.096c-.314.806-.473 1.692-.473 2.657 0 .963.16 1.85.473 2.658a5.825 5.825 0 0 0 1.387 2.096c.611.59 1.373 1.047 2.288 1.371.917.326 1.982.49 3.204.49 1.2 0 2.264-.164 3.19-.49.925-.324 1.692-.782 2.303-1.37a5.904 5.904 0 0 0 1.387-2.097c.314-.808.471-1.695.471-2.658 0-.965-.157-1.85-.47-2.657a5.869 5.869 0 0 0-1.388-2.096c-.61-.59-1.378-1.049-2.304-1.374-.925-.325-1.989-.487-3.189-.487m7.942-5.935a79.109 79.109 0 0 0-3.277-.25 135.66 135.66 0 0 0-3.795-.163 501.63 501.63 0 0 0-4.118-.103 207.753 207.753 0 0 0-4.25-.045c-.453 0-.788.157-1.005.474-.217.313-.324.698-.324 1.15 0 .434.107.808.324 1.122.217.315.552.473 1.004.473 2.518 0 5.053.03 7.602.09 2.55.057 5.075.195 7.575.412.452.04.792-.078 1.017-.355.227-.275.36-.629.398-1.062a2.07 2.07 0 0 0-.206-1.166c-.177-.345-.493-.536-.945-.577M477.412 236.722c.944 0 1.599-.178 1.962-.532.363-.354.547-.994.547-1.918v-3.9c0-.923-.184-1.563-.547-1.917-.363-.355-1.018-.531-1.962-.531h-11.457c-.454 0-.678-.227-.678-.68v-1.21c0-.453.224-.678.678-.678h13.228c.45 0 .787-.16 1.002-.473.217-.316.325-.69.325-1.122 0-.434-.108-.808-.325-1.122-.215-.315-.551-.473-1.002-.473h-15.12c-.943 0-1.597.177-1.961.532-.365.354-.547.993-.547 1.919v3.927c0 .924.182 1.565.547 1.918.364.355 1.018.532 1.962.532h11.457c.454 0 .678.226.678.68v1.18c0 .453-.224.679-.678.679h-12.696c-.453 0-.787.158-1.004.472-.216.315-.325.689-.325 1.122 0 .434.109.808.325 1.122.217.316.55.473 1.004.473zm-17.805-21.848c-.452 0-.787.158-1.004.472-.216.314-.324.689-.324 1.12 0 .415.108.778.324 1.094.217.314.552.474 1.004.474h5.698v5.638h3.572v-5.638h3.898v5.638h3.574v-5.638h5.58c.45 0 .787-.16 1.003-.474.216-.316.324-.68.324-1.093 0-.432-.108-.807-.324-1.121-.216-.314-.552-.472-1.003-.472zM504.19 228.515h-3.455c-.454 0-.787.157-1.004.472-.217.315-.326.688-.326 1.122 0 .452.11.836.326 1.15.217.315.55.474 1.004.474h3.455v4.929c0 .552.19.956.575 1.21.385.257.821.385 1.314.385.472 0 .901-.128 1.284-.384.384-.255.577-.66.577-1.211v-13.08c0-.55-.193-.954-.577-1.21a2.269 2.269 0 0 0-1.284-.383c-.493 0-.929.128-1.314.383-.385.256-.575.66-.575 1.21zm.087-12.432c0 .808-.399 1.462-1.195 1.964s-2.12.753-3.97.753c-1.87 0-3.199-.251-3.986-.753-.79-.502-1.182-1.156-1.182-1.964 0-.806.392-1.462 1.182-1.964.787-.5 2.115-.751 3.985-.751 1.85 0 3.175.25 3.971.75.796.503 1.195 1.159 1.195 1.965m-14.083 0c0 1.91.792 3.342 2.377 4.297 1.585.954 3.765 1.43 6.54 1.43s4.954-.476 6.541-1.43c1.584-.955 2.375-2.387 2.375-4.297 0-1.927-.79-3.364-2.375-4.31-1.587-.945-3.766-1.417-6.54-1.417-2.776 0-4.956.472-6.54 1.417-1.586.946-2.378 2.383-2.378 4.31m5.345 17.48v-1.033c0-.907.136-1.663.413-2.275.275-.61.73-1.18 1.36-1.711a58.76 58.76 0 0 1 1.813-1.432c.561-.424 1.038-.783 1.433-1.078.412-.316.63-.678.65-1.093.018-.413-.11-.808-.384-1.18a2.252 2.252 0 0 0-.427-.43 1.726 1.726 0 0 0-.548-.28 1.516 1.516 0 0 0-.634-.043 1.631 1.631 0 0 0-.695.28c-.314.216-.719.517-1.209.9-.493.385-1.035.812-1.624 1.284-.71.572-1.197 1.015-1.462 1.33-.265.315-.438.609-.517.885h-.029c-.079-.335-.266-.68-.56-1.033-.297-.354-.799-.817-1.506-1.387a104.43 104.43 0 0 0-1.699-1.33 41.585 41.585 0 0 0-1.668-1.21c-.433-.316-.867-.39-1.3-.221-.433.167-.757.407-.974.724a1.987 1.987 0 0 0-.384 1.195c0 .443.227.83.68 1.166.628.453 1.244.905 1.844 1.359a60.8 60.8 0 0 1 1.877 1.475c.63.532 1.081 1.103 1.357 1.714.276.608.413 1.366.413 2.272v1.152h-4.339c-.455 0-.789.157-1.003.472-.219.315-.327.689-.327 1.122 0 .433.108.807.327 1.122.214.315.548.472 1.003.472h12.163c.452 0 .79-.157 1.003-.472.217-.315.327-.69.327-1.122 0-.433-.11-.807-.327-1.122-.214-.315-.55-.472-1.003-.472zM529.344 225.916c.452 0 .68.227.68.678v2.805H518.98v-2.805c0-.45.227-.678.68-.678zm-11.633-3.159c-.944 0-1.598.176-1.963.531-.365.355-.546.993-.546 1.92v10.215c0 .532.197.93.59 1.195.394.266.827.4 1.3.4.472 0 .904-.134 1.3-.4.391-.265.588-.663.588-1.195v-2.864h11.044v2.864c0 .532.196.93.59 1.195.393.266.827.4 1.298.4.473 0 .905-.134 1.301-.4.393-.265.59-.663.59-1.195v-10.216c0-.926-.182-1.564-.547-1.919-.364-.355-1.019-.53-1.964-.53zm-4.37-7.883c-.45 0-.787.157-1.003.472-.217.313-.324.69-.324 1.121 0 .432.107.807.324 1.122.216.314.552.473 1.003.473h9.271v6.495h3.781v-6.495h9.27c.452 0 .786-.159 1.003-.473.217-.315.324-.69.324-1.122 0-.432-.107-.808-.324-1.12-.217-.316-.55-.473-1.004-.473zM558.277 219.45h-3.984c-.434 0-.753.147-.959.442-.209.294-.312.65-.312 1.063 0 .413.103.768.312 1.063.206.294.525.443.959.443h3.984v14.201c0 .552.193.955.577 1.211.384.256.821.384 1.314.384.472 0 .899-.128 1.284-.384.384-.256.575-.659.575-1.21v-17.834c0-.552-.191-.955-.575-1.21a2.273 2.273 0 0 0-1.284-.384c-.493 0-.93.128-1.314.383-.384.256-.577.66-.577 1.211zm-10.096 11.101c1.259 0 2.185.192 2.775.575.591.384.884.91.884 1.581 0 .668-.293 1.195-.884 1.578-.59.384-1.516.577-2.775.577-1.26 0-2.185-.193-2.775-.577-.591-.383-.887-.91-.887-1.578 0-.67.296-1.197.887-1.58.59-.384 1.515-.576 2.775-.576m13.166-16.328c.454 0 .789-.157 1.004-.47.219-.317.326-.69.326-1.123 0-.434-.107-.808-.326-1.122-.215-.316-.55-.473-1.004-.473h-15.44c-.945 0-1.6.176-1.963.531-.363.355-.548.994-.548 1.92v3.454c0 .55.193.954.577 1.21.384.255.832.385 1.344.385.492 0 .929-.13 1.314-.385.384-.256.575-.66.575-1.21v-2.038c0-.452.227-.679.679-.679zm-13.166 13.374c-2.403 0-4.203.463-5.403 1.39-1.202.924-1.802 2.164-1.802 3.72 0 1.554.6 2.794 1.802 3.72 1.2.924 3 1.386 5.403 1.386 2.401 0 4.202-.462 5.402-1.386 1.2-.926 1.801-2.166 1.801-3.72 0-1.556-.601-2.796-1.801-3.72-1.2-.927-3.001-1.39-5.402-1.39m-7.677-4.545c-.452 0-.783.152-.988.458-.208.303-.312.672-.312 1.106 0 .434.104.801.312 1.106.205.306.536.458.988.458 2.381 0 4.881.04 7.5.12 2.618.077 5.177.264 7.677.56.451.06.796-.05 1.032-.325.237-.276.374-.63.415-1.064a1.895 1.895 0 0 0-.208-1.106c-.176-.324-.493-.518-.945-.575a57.667 57.667 0 0 0-2.864-.31 92.049 92.049 0 0 0-3.306-.22v-2.866c0-.512-.183-.88-.547-1.106-.365-.228-.812-.34-1.343-.34-.513 0-.95.112-1.314.34-.365.225-.546.594-.546 1.106v2.716c-.944-.04-1.88-.058-2.805-.058z" style="fill:#595757;fill-opacity:1;fill-rule:nonzero;stroke:none" transform="matrix(1.33333 0 0 -1.33333 -372.283 513.616)"/></svg>