<svg xmlns="http://www.w3.org/2000/svg" xml:space="preserve" width="300mm" height="62.847103mm" viewBox="0 0 300 62.847104"><path d="M297.649 58.435a.76.76 0 0 0-.36.089 1 1 0 0 0-.293.24 1.6 1.6 0 0 0-.219.341q-.092.192-.123.407l1.877.009a1.3 1.3 0 0 0-.222-.726.9.9 0 0 0-.271-.257.73.73 0 0 0-.39-.103m2.083 1.879a.4.4 0 0 1-.052.171q-.041.06-.153.059l-2.895-.016q.06.622.387.918.329.299.78.32.425.02.746-.081.319-.097.617-.282.128-.083.174-.046.048.037.047.196l-.005.694q0 .102-.023.137a.5.5 0 0 1-.107.101q-.27.184-.68.275-.413.09-.81.087-1.11-.007-1.75-.722-.639-.714-.63-2.029.002-.49.133-.98.133-.488.42-.88.289-.39.708-.635.416-.24.99-.24.584.004.984.22.401.213.652.576.255.362.362.838.11.48.105 1.014z" style="fill:#1e4b82;fill-opacity:1;fill-rule:nonzero;stroke:none;stroke-width:1.78281"/><defs><linearGradient id="a" x1="0" x2="1" y1="0" y2="0" gradientTransform="scale(-23.5261 23.5261)rotate(36.529 -4.017 -3.22)" gradientUnits="userSpaceOnUse" spreadMethod="pad"><stop offset="0" style="stop-opacity:1;stop-color:#7592b4"/><stop offset="1" style="stop-opacity:1;stop-color:#223a71"/></linearGradient><linearGradient id="b" x1="0" x2="1" y1="0" y2="0" gradientTransform="scale(12.17245 -12.17245)rotate(-69.829 1.845 -7.381)" gradientUnits="userSpaceOnUse" spreadMethod="pad"><stop offset="0" style="stop-opacity:1;stop-color:#7592b4"/><stop offset="1" style="stop-opacity:1;stop-color:#223a71"/></linearGradient><linearGradient id="c" x1="0" x2="1" y1="0" y2="0" gradientTransform="scale(12.17128 -12.17128)rotate(-69.829 2.695 -7.974)" gradientUnits="userSpaceOnUse" spreadMethod="pad"><stop offset="0" style="stop-opacity:1;stop-color:#7592b4"/><stop offset="1" style="stop-opacity:1;stop-color:#223a71"/></linearGradient></defs><path d="M107.764 6.904a4.18 4.18 0 0 0-1.228 2.968 4.18 4.18 0 0 0 1.228 2.967 4.16 4.16 0 0 0 2.969 1.228 4.14 4.14 0 0 0 2.963-1.228 4.16 4.16 0 0 0 1.233-2.967 4.16 4.16 0 0 0-1.233-2.968 4.14 4.14 0 0 0-2.963-1.228 4.16 4.16 0 0 0-2.969 1.227m2.969 12.84a9.84 9.84 0 0 1-6.978-2.896 9.83 9.83 0 0 1-2.894-6.976 9.84 9.84 0 0 1 2.894-6.98A9.84 9.84 0 0 1 110.733 0a9.84 9.84 0 0 1 6.977 2.892 9.85 9.85 0 0 1 2.892 6.98 9.85 9.85 0 0 1-2.892 6.98 9.86 9.86 0 0 1-6.97 2.89z" style="fill:#c93627;fill-opacity:1;fill-rule:nonzero;stroke:none;stroke-width:1.78281"/><path d="M58.09 38.215a11 11 0 0 1 1.082 4.753c0 6.14-4.997 11.135-11.137 11.135-4.34 0-8.096-2.5-9.932-6.126l-7.442 3.635c3.184 6.376 9.774 10.769 17.374 10.769 10.702 0 19.413-8.711 19.413-19.413a19.34 19.34 0 0 0-1.91-8.396z" style="fill:url(#a);stroke:none;stroke-width:1.78281"/><path d="M99.178 41.466v19.663h8.267V37.643z" style="fill:url(#b);stroke:none;stroke-width:1.78281"/><path d="M36.897 42.968c0-6.142 4.996-11.138 11.138-11.138 4.437 0 8.268 2.616 10.055 6.383l7.448-3.639c-3.136-6.514-9.805-11.021-17.503-11.021-10.704 0-19.413 8.71-19.413 19.415 0 3.103.736 6.038 2.04 8.644l7.44-3.635a11.05 11.05 0 0 1-1.205-5.01m76.451-18.581v8.044l8.267-3.792v-4.252zm-5.902-.002h-8.267v14.605l8.267-3.828v-.027z" style="fill:#c93627;fill-opacity:1;fill-rule:nonzero;stroke:none;stroke-width:1.78281"/><path d="M113.348 34.909v26.218l.002.004h8.265V31.087z" style="fill:url(#c);stroke:none;stroke-width:1.78281"/><path d="M28.076 24.386h-8.474L7.005 41.149V24.386H0v36.743h7.005v-9.92l3.984-5.06 10.481 14.98h8.841l-14.294-20.63z" style="fill:#194174;fill-opacity:1;fill-rule:nonzero;stroke:none;stroke-width:1.78281"/><path d="M91.533 43.25c-1.177-1.024-3.1-2.156-5.729-3.36-4.788-2.189-7.218-4.282-7.218-6.223 0-1.178.392-2.104 1.205-2.835.804-.724 1.972-1.089 3.46-1.089 2.605 0 5.122.802 7.477 2.38l.394.262 2.347-6.236-.202-.152c-2.166-1.62-5.582-2.442-10.15-2.442-3.531 0-6.474.972-8.74 2.88-2.277 1.921-3.434 4.369-3.434 7.28 0 1.553.294 2.988.87 4.27a9.6 9.6 0 0 0 2.48 3.343c1.073.94 3.073 2.09 6.122 3.519 2.927 1.378 4.878 2.622 5.798 3.71.9 1.064 1.36 2.193 1.36 3.353 0 2.455-1.874 3.648-5.732 3.648-2.555 0-5.195-.886-7.851-2.63l-.371-.242-2.842 6.463.253.15c2.972 1.79 6.352 2.697 10.04 2.697 4.251 0 7.697-.991 10.247-2.944 2.565-1.968 3.869-4.514 3.869-7.566 0-1.681-.316-3.232-.935-4.605a10.55 10.55 0 0 0-2.718-3.631" style="fill:#1a457e;fill-opacity:1;fill-rule:nonzero;stroke:none;stroke-width:1.78281"/><path d="M163.061 35.217a.44.44 0 0 1-.275.09h-3.5v7.467q0 .332-.336.333h-2.306q-.336 0-.337-.333V24.477q0-.339.337-.339h2.306q.336 0 .337.339v8.342h3.5a.4.4 0 0 1 .274.103q.115.107.116.234v1.841q-.001.127-.116.22m-15.484-1.49q-1.22 0-2.02.673c-.536.448-.804.995-.804 1.631q0 .986.804 1.683.8.705 2.02.703c.826 0 1.507-.232 2.032-.703.525-.465.792-1.025.792-1.683 0-.636-.267-1.183-.792-1.63-.525-.45-1.206-.673-2.032-.673m12.594 14.537a.53.53 0 0 1-.26.078h-13.685c-.776 0-1.304-.139-1.575-.415q-.418-.414-.417-1.426v-4.013q0-.135.132-.26.129-.132.255-.133h2.204c.117 0 .22.045.296.132a.4.4 0 0 1 .12.26v2.953q-.001.256.103.337.098.078.365.078h12.202c.083 0 .172.032.26.104a.29.29 0 0 1 .126.233v1.838a.25.25 0 0 1-.126.234m-9.007-21.355a.41.41 0 0 1-.323.13h-6.764a.42.42 0 0 1-.244-.103.33.33 0 0 1-.144-.285v-1.528q-.002-.21.144-.312a.43.43 0 0 1 .244-.102h6.764q.181-.002.309.129.134.129.134.31v1.48a.4.4 0 0 1-.12.281m-3.587 4.511q1.165 0 2.2.36c.69.244 1.293.569 1.804.986a4.7 4.7 0 0 1 1.202 1.465c.294.56.444 1.163.444 1.8q-.002.985-.444 1.827a4.7 4.7 0 0 1-1.202 1.463 6 6 0 0 1-1.804.988 6.7 6.7 0 0 1-2.23.362q-1.162 0-2.175-.362a6 6 0 0 1-1.774-.988 4.65 4.65 0 0 1-1.205-1.463 3.9 3.9 0 0 1-.442-1.828c0-.636.15-1.239.442-1.799a4.7 4.7 0 0 1 1.205-1.465 6 6 0 0 1 1.792-.986 6.6 6.6 0 0 1 2.187-.36m6.928-1.025a.37.37 0 0 1-.267.116h-13.735a.4.4 0 0 1-.285-.127.43.43 0 0 1-.132-.314v-1.53c0-.083.051-.17.142-.256a.45.45 0 0 1 .3-.132h13.71a.37.37 0 0 1 .267.12.37.37 0 0 1 .118.269v1.554a.4.4 0 0 1-.118.3m29.168-3.925q-.002.597-.041 1.387a38 38 0 0 1-.351 3.509 27 27 0 0 1-.309 1.815h3.808c.09 0 .173.048.26.143q.13.143.13.272v1.685q0 .128-.13.259c-.087.087-.17.128-.26.128h-10.003v3.86h5.056c.704 0 1.17.12 1.387.363q.322.365.324 1.505v6.97c0 .09-.04.168-.12.249a.34.34 0 0 1-.245.116h-2.255a.36.36 0 0 1-.27-.116c-.078-.08-.119-.159-.119-.25v-5.96q0-.256-.105-.333-.096-.08-.387-.079h-12.75a.42.42 0 0 1-.254-.09q-.134-.09-.134-.222v-1.841q0-.157.134-.234a.5.5 0 0 1 .253-.078h6.508v-3.86h-9.588a.32.32 0 0 1-.262-.128.42.42 0 0 1-.102-.259v-1.685q0-.415.364-.415h16.011q.236-1.27.39-2.63c.106-.909.154-1.877.154-2.916 0-.24-.059-.394-.178-.453-.125-.06-.304-.091-.546-.091h-12.077a.43.43 0 0 1-.258-.102q-.128-.105-.127-.233v-1.789q-.001-.156.127-.233a.5.5 0 0 1 .258-.08h13.995c.557 0 .974.146 1.268.43q.442.429.444 1.386m8.156 7.514c-.244-.259-.361-.708-.361-1.346v-6.454q-.002-.955.385-1.346c.251-.26.68-.39 1.273-.39h12.312q.325.001.324.337v1.583a.4.4 0 0 1-.09.246.29.29 0 0 1-.234.116h-10.984c-.145 0-.228.012-.26.037q-.044.041-.045.271v1.271h10.937a.36.36 0 0 1 .236.104q.116.105.116.233v1.528a.3.3 0 0 1-.116.248.4.4 0 0 1-.236.089h-10.937v1.216q-.001.288.034.339.037.051.29.053h11.06c.265 0 .391.112.391.335v1.505c0 .274-.126.413-.392.413h-5.555v2.256h8.818q.115 0 .233.116.117.113.118.246v1.554q-.001.157-.118.286-.118.129-.233.13h-20.31q-.332-.001-.333-.416v-1.554q0-.363.333-.362h8.812v-2.256h-4.171q-.937 0-1.297-.39m39.931 14.798h-2.255q-.332 0-.332-.335V24.478c0-.229.118-.34.366-.34h2.22c.23 0 .34.111.34.34v23.968c0 .223-.11.335-.34.335m-19.065-6.008a1 1 0 0 1-.42.153c-.135.02-.249-.035-.333-.153l-1.035-1.428c-.11-.157-.127-.3-.066-.428a.9.9 0 0 1 .22-.301 17.8 17.8 0 0 0 3.174-2.473 18 18 0 0 0 2.41-2.876c.664-.991 1.182-1.991 1.543-2.991.361-1.004.56-1.933.599-2.8q.02-.543-.107-.737-.132-.195-.676-.197h-5.728q-.36.001-.36-.335v-1.763c0-.087.037-.162.12-.233a.37.37 0 0 1 .24-.106h7.541c.747 0 1.252.147 1.531.43.277.285.41.765.39 1.437q-.027.52-.067 1.04c-.028.345-.062.679-.114 1.008h2.774v-5.104q0-.337.357-.337h2.13c.221 0 .337.113.337.337v22.622c0 .245-.116.364-.337.364h-2.13q-.358.001-.357-.364v-9.354h-3.706a.38.38 0 0 1-.252-.102c-.075-.073-.112-.148-.112-.235v-1.712q0-.127.112-.219a.4.4 0 0 1 .252-.09h3.706v-3.423h-3.293q-.986 3.135-3.134 5.78-2.15 2.646-5.21 4.589m23.771-4.266q-.236-.01-.372-.297l-.703-1.27a.56.56 0 0 1-.052-.438.47.47 0 0 1 .288-.34 16 16 0 0 0 2.469-1.515 17 17 0 0 0 2.112-1.852 14 14 0 0 0 1.644-2.048 9.6 9.6 0 0 0 1.072-2.125.9.9 0 0 0 .082-.412q-.007-.184-.384-.184h-5.783c-.096 0-.168-.04-.23-.13a.47.47 0 0 1-.102-.284v-1.71a.36.36 0 0 1 .109-.26.36.36 0 0 1 .246-.103h7.372q1.023.001 1.528.414.494.415.383 1.27c-.03.188-.077.39-.132.596q-.075.312-.15.544c-.203.62-.447 1.232-.736 1.827a19 19 0 0 1-.963 1.75c.282.31.589.62.935.932.335.312.69.61 1.046.893.358.287.711.546 1.072.779q.53.348 1.003.583.466.259.207.726l-.718 1.397q-.257.443-.73.182a8.5 8.5 0 0 1-.975-.624 22 22 0 0 1-2.251-1.85q-.571-.531-1.061-1.1a22 22 0 0 1-2.683 2.512c-.98.779-2.04 1.469-3.17 2.071a.7.7 0 0 1-.373.066" style="fill:#1e4b82;fill-opacity:1;fill-rule:nonzero;stroke:none;stroke-width:1.78281"/><path d="M246.564 32.093v-1.814q-.001-.129.101-.221.106-.09.223-.09h3.662v-5.49q-.002-.34.3-.339h2.078c.2 0 .304.11.304.339v13.755c0 .244-.104.364-.304.364h-2.078q-.301.001-.3-.364v-5.83h-3.662a.34.34 0 0 1-.223-.089.28.28 0 0 1-.101-.223m26.685-.464h-10.417v2.8q0 .438.465.437h9.484c.307 0 .468-.144.468-.437zm6.35 12.779q-.133.127-.262.128h-22.565a.32.32 0 0 1-.264-.128.42.42 0 0 1-.103-.26v-1.685c0-.106.033-.198.103-.286a.32.32 0 0 1 .264-.128h9.79v-4.746h-4.741q-1.14.001-1.558-.388-.41-.39-.412-1.452v-9.896c0-.09.037-.16.105-.221a.34.34 0 0 1 .233-.091h2.277q.134 0 .246.09c.079.062.12.133.12.222v3.651h10.417v-3.678c0-.085.032-.166.101-.233a.33.33 0 0 1 .235-.104h2.306a.32.32 0 0 1 .231.104c.07.067.107.148.107.233v10.025q0 .859-.415 1.296-.414.443-1.53.442h-4.742v4.746h9.795q.13.001.262.14.125.144.126.274v1.684q-.002.13-.126.26m16.333-7.688a.7.7 0 0 1-.223.17c-.435.087-.92.162-1.445.22-.534.061-1.07.118-1.637.168-.556.054-1.114.104-1.663.145q-.828.062-1.55.087v3.735a.4.4 0 0 1-.107.273.33.33 0 0 1-.246.118h-1.94a.33.33 0 0 1-.242-.118.42.42 0 0 1-.107-.273v-3.526c-.462.016-.943.032-1.431.04-.487.008-.968.024-1.43.038-.47.018-.911.027-1.332.027q-.63 0-1.1-.027-.136 0-.23-.128a.47.47 0 0 1-.093-.285v-1.608a.42.42 0 0 1 .093-.274.29.29 0 0 1 .23-.116q1.611 0 3.516-.038a141 141 0 0 0 3.786-.13c1.26-.06 2.471-.135 3.64-.233a39 39 0 0 0 3.03-.352.34.34 0 0 1 .248.054.33.33 0 0 1 .153.232l.159 1.478c.02.137-.011.246-.079.322m3.962 11.498a.4.4 0 0 1-.218.077h-13.225c-.72 0-1.193-.137-1.435-.414-.238-.278-.364-.75-.364-1.428v-3.703q0-.132.11-.247.103-.116.216-.116h2.011c.093 0 .171.039.243.116a.35.35 0 0 1 .103.247v2.643c0 .173.029.287.098.337q.087.077.346.078h11.897q.114.001.219.103.105.105.105.232v1.842q0 .154-.105.233m-8.756-17.974a2.4 2.4 0 0 1-.61.78 3.03 3.03 0 0 1-1.964.709q-.565 0-1.08-.193a2.9 2.9 0 0 1-.883-.515 2.4 2.4 0 0 1-.594-.781 2.23 2.23 0 0 1 0-1.968q.218-.452.594-.78.37-.32.882-.516a3 3 0 0 1 1.08-.195q.577 0 1.081.195c.339.13.63.303.884.517.257.217.459.48.61.779q.22.453.221.971c0 .364-.076.697-.22.997m2.411-2.862a4.6 4.6 0 0 0-1.107-1.49 5.5 5.5 0 0 0-1.706-1.013 6.1 6.1 0 0 0-2.173-.374q-1.199.002-2.177.374a5.5 5.5 0 0 0-1.686 1.013 4.3 4.3 0 0 0-1.095 1.49 4.3 4.3 0 0 0-.389 1.814q0 1.01.389 1.891a4.25 4.25 0 0 0 1.095 1.516c.47.426 1.037.759 1.686 1.01.653.254 1.376.377 2.177.377q1.185.002 2.173-.377c.662-.251 1.232-.584 1.706-1.01a4.5 4.5 0 0 0 1.107-1.516 4.6 4.6 0 0 0 .396-1.891 4.3 4.3 0 0 0-.396-1.814" style="fill:#1e4b82;fill-opacity:1;fill-rule:nonzero;stroke:none;stroke-width:1.78281"/><path d="M299.179 43.496h-2.07q-.302 0-.303-.362v-2.359h-3.988c-.082 0-.151-.035-.224-.103a.32.32 0 0 1-.106-.234v-1.633q-.001-.127.106-.219a.33.33 0 0 1 .224-.093h3.988V24.477q0-.339.303-.339h2.07q.308 0 .309.339v18.657q-.001.361-.309.362m-97.408 2.227c-.16.332-.38.612-.663.85a3.5 3.5 0 0 1-.967.563 3.2 3.2 0 0 1-1.178.212q-.61 0-1.172-.212a3.3 3.3 0 0 1-.964-.564 2.7 2.7 0 0 1-.649-.848 2.46 2.46 0 0 1-.239-1.084q0-.566.24-1.063.242-.49.648-.845a3.3 3.3 0 0 1 2.136-.776q.63 0 1.178.21.549.21.967.566.423.354.663.845.24.497.24 1.063 0 .592-.24 1.084m2.633-3.119a5.05 5.05 0 0 0-1.212-1.627 5.9 5.9 0 0 0-1.853-1.1q-1.08-.411-2.376-.41-1.298-.001-2.362.41a6 6 0 0 0-1.846 1.1 4.8 4.8 0 0 0-1.19 1.627 4.75 4.75 0 0 0-.425 1.974c0 .735.145 1.423.424 2.063.28.642.673 1.19 1.191 1.65.516.46 1.138.831 1.846 1.104q1.065.407 2.362.408 1.296 0 2.376-.408a5.9 5.9 0 0 0 1.853-1.103c.518-.46.918-1.01 1.212-1.651.282-.64.431-1.328.431-2.063 0-.695-.15-1.353-.431-1.974m45.134 2.481a2.7 2.7 0 0 1-.669.853c-.28.241-.604.427-.973.57a3.3 3.3 0 0 1-1.191.215 3.3 3.3 0 0 1-1.182-.216 3.1 3.1 0 0 1-.976-.569 2.7 2.7 0 0 1-.654-.853 2.5 2.5 0 0 1-.244-1.097c0-.381.082-.733.244-1.07a2.8 2.8 0 0 1 .654-.852c.275-.24.596-.426.976-.57q.564-.214 1.182-.214a3.34 3.34 0 0 1 2.164.784c.282.237.501.524.669.852.162.337.242.689.242 1.07q0 .596-.242 1.097m2.647-3.145a4.9 4.9 0 0 0-1.214-1.642 6.1 6.1 0 0 0-1.874-1.113c-.722-.273-1.524-.41-2.392-.41q-1.315 0-2.388.41c-.713.28-1.337.65-1.855 1.113a4.85 4.85 0 0 0-1.63 3.635q-.001 1.113.424 2.077a4.8 4.8 0 0 0 1.206 1.667 6 6 0 0 0 1.855 1.11q1.073.412 2.388.412c.868 0 1.67-.137 2.392-.412a6 6 0 0 0 1.874-1.11 4.9 4.9 0 0 0 1.214-1.667 4.9 4.9 0 0 0 .437-2.077c0-.704-.143-1.37-.437-1.993M146.356 61.89c-.068 0-.114-.007-.129-.02a.4.4 0 0 1-.092-.12l-1.844-2.85-.503.553-.01 2.248q-.002.109-.05.146-.045.038-.137.036l-.888-.004q-.102-.003-.145-.037-.041-.04-.039-.148l.036-6.752q0-.186.187-.185l.888.003q.184.003.183.188l-.016 2.74 2.19-2.774q.045-.048.075-.073.029-.03.11-.029l1.038.007q.323 0 .126.23l-2.3 2.874 2.505 3.78q.136.192-.12.192zm4.278-4.223q-.306 0-.539.141a1.2 1.2 0 0 0-.385.373q-.153.23-.234.526-.08.294-.082.61-.002.313.075.61.078.296.23.532c.098.159.228.287.378.383q.233.144.539.145.312.001.545-.14.234-.143.387-.377a1.8 1.8 0 0 0 .23-.532 2.55 2.55 0 0 0 .009-1.21 1.9 1.9 0 0 0-.226-.533 1.2 1.2 0 0 0-.382-.382 1 1 0 0 0-.545-.146m1.857 3.544q-.344.432-.822.648-.477.213-1.059.21a2.4 2.4 0 0 1-1.068-.228 2.3 2.3 0 0 1-.764-.6 2.6 2.6 0 0 1-.462-.876 3.5 3.5 0 0 1-.153-1.056c.002-.369.058-.72.158-1.052a2.5 2.5 0 0 1 .47-.872q.31-.374.773-.588.463-.215 1.077-.212a2.46 2.46 0 0 1 1.07.228q.46.225.768.6.306.378.463.873.156.495.152 1.05a3.4 3.4 0 0 1-.159 1.03 2.6 2.6 0 0 1-.444.845m4.097-3.328a1.1 1.1 0 0 0-.323-.088.6.6 0 0 0-.258.021.75.75 0 0 0-.359.239q-.133.165-.207.387a2 2 0 0 0-.089.462q-.02.24-.021.463l-.013 2.386q-.003.11-.032.153-.034.04-.135.039l-.888-.004q-.101-.001-.13-.037-.029-.037-.027-.166l.02-3.664q.003-.296-.005-.62a15 15 0 0 1-.005-.537q0-.118.037-.157.036-.036.14-.035l.887.005q.138 0 .137.148l-.002.353q.12-.177.309-.342a.8.8 0 0 1 .388-.202q.193-.034.384-.021.19.015.292.09.044.039.059.07a.3.3 0 0 1 .014.105l-.005.804q0 .104-.037.148-.036.048-.13 0m2.821-.196a.76.76 0 0 0-.36.09 1 1 0 0 0-.293.24 1.6 1.6 0 0 0-.219.34q-.092.193-.123.407l1.877.009a1.3 1.3 0 0 0-.222-.726.9.9 0 0 0-.271-.256.73.73 0 0 0-.39-.104m2.083 1.88a.4.4 0 0 1-.051.17q-.042.06-.154.06l-2.895-.017q.061.622.387.918.326.299.78.32.425.02.746-.08.319-.099.617-.282.128-.084.174-.047.048.038.047.195l-.004.693q-.003.102-.025.14a.5.5 0 0 1-.107.1q-.27.186-.68.273-.413.091-.809.09-1.112-.007-1.75-.722-.64-.715-.632-2.03.003-.49.134-.98.133-.486.42-.88c.197-.26.429-.471.709-.635q.416-.24.99-.24.584.004.983.22.403.214.653.576.255.36.362.838.11.48.105 1.014zm3.634-.102q-.525.006-.869.075-.344.067-.552.186a.64.64 0 0 0-.284.287.9.9 0 0 0-.076.369q-.002.295.174.458.175.164.489.164a.98.98 0 0 0 .8-.36q.305-.364.318-1.179m.115 2.555q-.082-.002-.105-.021-.024-.016-.025-.11l.004-.398q-.157.248-.515.424a1.6 1.6 0 0 1-.708.171 2.6 2.6 0 0 1-.73-.11 1.35 1.35 0 0 1-.576-.337 1.6 1.6 0 0 1-.353-.548 1.9 1.9 0 0 1-.125-.727q.003-.48.233-.866.236-.388.62-.603a2.9 2.9 0 0 1 .913-.31 5 5 0 0 1 1.165-.054q-.052-.73-.624-.807a1.7 1.7 0 0 0-.375.005q-.191.03-.37.087a3 3 0 0 0-.646.298q-.193.127-.276.126-.084.001-.084-.185l.005-.767q0-.12.023-.17.024-.052.134-.106.279-.139.654-.257.377-.117.884-.114c.63.002 1.095.166 1.407.487q.466.484.462 1.492l-.013 2.11-.002.263.002.292.01.282q.002.135.014.235.016.184-.022.204a.3.3 0 0 1-.128.017zm8.245-.483a1.8 1.8 0 0 1-.64.436q-.398.169-.815.204-.221.026-.504.005a6 6 0 0 1-.55-.063 7 7 0 0 1-.491-.094 2 2 0 0 1-.332-.1.3.3 0 0 1-.128-.088q-.027-.041-.01-.153l.097-.897q.01-.094.043-.11.034-.018.144.028.176.075.401.136a4 4 0 0 0 .924.139q.227.01.413-.034.39-.09.555-.301.17-.214.171-.61a.6.6 0 0 0-.036-.196 1 1 0 0 0-.137-.244 2 2 0 0 0-.273-.286 3.5 3.5 0 0 0-.436-.315 12 12 0 0 1-.863-.588 3.7 3.7 0 0 1-.58-.535 1.9 1.9 0 0 1-.33-.542 1.7 1.7 0 0 1-.101-.612q.001-.417.173-.772.174-.355.476-.617.3-.262.713-.406c.267-.098.563-.146.877-.144q.47.002.808.073.337.073.56.174.12.058.133.093a.4.4 0 0 1-.004.14l-.182.784q-.02.085-.066.103-.047.017-.185-.03a3.6 3.6 0 0 0-.799-.17q-.365-.03-.633.06a.9.9 0 0 0-.424.29.8.8 0 0 0-.155.502q-.001.222.198.455.196.233.638.503.564.354.936.635.376.278.594.543.221.266.312.539.09.274.089.606a2.05 2.05 0 0 1-.157.804q-.154.36-.424.654m4.215.467a2.4 2.4 0 0 1-.444.143q-.26.057-.592.046a1.3 1.3 0 0 1-.62-.175 1.1 1.1 0 0 1-.405-.394 1.7 1.7 0 0 1-.153-.608 11 11 0 0 1-.023-.873l.012-2.184-.656-.004c-.12 0-.176-.062-.176-.185l.005-.769q-.001-.184.176-.183l.656.003.007-1.23q0-.184.186-.184l.852.006q.173 0 .173.185l-.005 1.23.784.006q.111 0 .144.042.033.04.033.143l-.005.767q0 .1-.033.144-.033.04-.144.04l-.784-.004-.013 2.072-.002.542q-.002.207.016.272c.022.116.077.191.155.223q.12.047.259.029.14-.017.267-.065.131-.044.205-.08c.052-.025.086-.026.11-.005q.039.034.049.136l.077.693q.01.084-.01.134-.018.052-.101.087m3.453-2.45q-.525.006-.869.073-.344.069-.552.187a.64.64 0 0 0-.284.285.9.9 0 0 0-.076.371q-.002.295.174.458.175.164.489.164a.98.98 0 0 0 .8-.36q.306-.365.318-1.178m.115 2.554q-.082-.003-.105-.021-.024-.016-.025-.11l.004-.398q-.157.249-.515.424a1.6 1.6 0 0 1-.708.171 2.6 2.6 0 0 1-.73-.11 1.4 1.4 0 0 1-.576-.337 1.7 1.7 0 0 1-.353-.547 1.9 1.9 0 0 1-.125-.728q.002-.48.233-.868.236-.386.62-.603.385-.212.913-.308a5 5 0 0 1 1.165-.054q-.052-.73-.624-.809a1.8 1.8 0 0 0-.746.094q-.18.06-.347.136-.168.078-.298.162-.193.128-.276.127-.084 0-.084-.186l.005-.768q0-.12.023-.17.024-.05.134-.106.28-.137.654-.255.377-.118.884-.114.943.003 1.407.486.466.484.462 1.492l-.013 2.11-.002.263.002.293.01.281q.002.135.014.236.016.184-.022.203a.3.3 0 0 1-.128.018zm4.831-.058a2.3 2.3 0 0 1-1.036.187 1.3 1.3 0 0 1-.62-.172 1.05 1.05 0 0 1-.405-.396 1.7 1.7 0 0 1-.153-.606 11 11 0 0 1-.024-.874l.013-2.184-.656-.004q-.178 0-.177-.185l.005-.769q-.001-.184.177-.183l.656.003.007-1.23q0-.185.185-.183l.853.003q.172.002.172.187l-.007 1.23.787.004c.075 0 .12.014.144.043q.032.04.032.143l-.005.768q0 .102-.032.143-.034.041-.144.04l-.785-.003-.012 2.071-.002.54q-.002.209.016.275c.021.116.077.19.157.223q.117.045.256.028a1.8 1.8 0 0 0 .472-.146q.078-.038.111-.004.038.032.047.134l.08.693a.3.3 0 0 1-.01.136q-.02.05-.102.087m.802.07q-.082 0-.115-.037-.031-.038-.03-.148l.026-4.82q0-.11.027-.147.03-.038.12-.036l.916.004q.094.003.126.037.031.038.032.148l-.025 4.82q-.003.11-.035.147-.033.038-.125.036zm.505-5.972a.68.68 0 0 1-.508-.216.72.72 0 0 1-.2-.519q0-.305.202-.522a.67.67 0 0 1 .513-.214q.315.003.517.22.203.22.202.523a.72.72 0 0 1-.207.517.68.68 0 0 1-.519.21m4.074 5.803a1.4 1.4 0 0 1-.547.257 3 3 0 0 1-.647.078q-.175 0-.38-.025a6 6 0 0 1-.389-.057 4 4 0 0 1-.34-.08 2 2 0 0 1-.24-.085.4.4 0 0 1-.133-.079q-.034-.032-.025-.134l.079-.675q.008-.11.046-.138.038-.03.14.01.286.103.596.18.308.074.642.076.332.003.49-.164a.57.57 0 0 0 .16-.415q.001-.177-.16-.348a2.3 2.3 0 0 0-.381-.32q-.223-.15-.453-.277a9 9 0 0 1-.369-.21 1.7 1.7 0 0 1-.508-.478 1.1 1.1 0 0 1-.207-.681q.004-.416.146-.717a1.43 1.43 0 0 1 .931-.775q.31-.093.635-.09a3.2 3.2 0 0 1 .715.088q.17.038.319.084.148.048.23.085.092.046.107.084.013.036.004.11l-.088.703q-.018.11-.064.125-.047.013-.148-.032a2.2 2.2 0 0 0-1.027-.221q-.295.008-.433.142a.52.52 0 0 0-.134.375q0 .1.12.25.119.147.424.315.285.16.515.305c.155.098.271.17.35.228.223.173.388.347.504.52q.167.26.166.696a1.7 1.7 0 0 1-.162.732q-.159.33-.483.558m4.134.153a2.3 2.3 0 0 1-1.036.187 1.26 1.26 0 0 1-.62-.173 1.05 1.05 0 0 1-.405-.396 1.7 1.7 0 0 1-.153-.606 11 11 0 0 1-.023-.874l.012-2.184-.656-.004q-.178 0-.176-.185l.005-.768q-.001-.184.176-.184l.656.004.007-1.23q0-.186.186-.184l.852.004q.173.001.173.187l-.005 1.23.784.004q.111.001.145.043.032.04.032.143l-.005.768q0 .102-.032.143-.034.043-.145.04l-.784-.003-.013 2.071-.002.54q-.003.209.017.275.031.174.156.223.118.045.257.028a1.8 1.8 0 0 0 .472-.146q.077-.038.111-.004.038.032.046.134l.08.693a.3.3 0 0 1-.01.136q-.019.05-.102.087m.803.069c-.054 0-.095-.012-.112-.037q-.036-.038-.034-.148l.026-4.819q0-.112.027-.148.029-.038.121-.036l.915.004q.094.003.127.038.031.038.032.148l-.025 4.819c0 .075-.015.123-.036.148q-.031.038-.125.035zm.504-5.972a.68.68 0 0 1-.508-.216.72.72 0 0 1-.2-.519q0-.304.202-.522a.67.67 0 0 1 .514-.214q.315.002.517.221t.201.522a.72.72 0 0 1-.207.517.68.68 0 0 1-.519.21m5.194 5.967q-.101.045-.253.082a3.2 3.2 0 0 1-.708.084 3 3 0 0 1-.37-.016 2.8 2.8 0 0 1-1.031-.275 2.3 2.3 0 0 1-.75-.58 2.5 2.5 0 0 1-.459-.84 3.4 3.4 0 0 1-.151-1.047q.002-.592.192-1.09.186-.497.524-.857.343-.359.819-.554a2.7 2.7 0 0 1 1.06-.195c.18.002.373.015.587.041q.318.038.587.132c.057.02.087.041.098.066q.014.038.002.14l-.097.71q-.017.111-.058.149-.044.037-.18-.011a2 2 0 0 0-.473-.109 3 3 0 0 0-.49-.026q-.638.014-.986.452-.35.438-.353 1.16-.004.693.32 1.12.326.428.919.496c.196.032.394.038.586.016q.292-.03.514-.103.15-.046.182-.022.03.023.039.125l.052.713a.3.3 0 0 1-.015.152q-.024.04-.107.087m3.667-2.477q-.525.006-.868.073a1.9 1.9 0 0 0-.553.187.63.63 0 0 0-.283.285.9.9 0 0 0-.077.371q-.002.295.175.458.174.165.488.164a.98.98 0 0 0 .8-.36c.207-.244.309-.634.318-1.178m.116 2.555q-.083-.003-.105-.022-.025-.016-.025-.11l.004-.398q-.158.249-.516.424a1.6 1.6 0 0 1-.707.172 2.6 2.6 0 0 1-.731-.111 1.4 1.4 0 0 1-.576-.337 1.7 1.7 0 0 1-.353-.547 1.9 1.9 0 0 1-.125-.728 1.67 1.67 0 0 1 .854-1.47q.385-.214.913-.309a5 5 0 0 1 1.164-.053q-.052-.731-.624-.81a1.8 1.8 0 0 0-.745.095 3 3 0 0 0-.646.297q-.192.128-.276.127-.083 0-.084-.185l.005-.769q0-.119.023-.17.024-.05.134-.106a5 5 0 0 1 .654-.255q.377-.118.885-.114.944.004 1.406.486.466.484.462 1.493l-.012 2.109-.002.264.002.292.009.282q.003.133.014.235.016.184-.022.203a.3.3 0 0 1-.128.018zm2.302-.017q-.083-.001-.114-.037-.033-.038-.032-.148l.037-7.224q0-.111.03-.148t.12-.036l.916.006q.096-.001.125.035.031.039.032.15l-.039 7.222q0 .113-.034.148-.031.038-.125.038zm4.838.035q-.1 0-.144-.037-.041-.038-.041-.148l.037-6.752q0-.185.186-.185l.89.005q.182 0 .183.187l-.037 6.752q0 .11-.043.146-.04.037-.143.037zm3.443-.166q-.003.111-.038.148-.038.038-.14.035l-.86-.004q-.11-.002-.148-.048t-.036-.148l.02-3.615q.002-.352.009-.713a4 4 0 0 0-.022-.546q-.016-.102.02-.128.037-.03.168-.029l.877.005q.102 0 .13.02.027.018.028.102l-.002.35q.194-.2.505-.37.31-.169.633-.17.927.006 1.353.537.429.53.423 1.537l-.016 3.052q-.003.11-.04.148-.035.035-.139.036l-.859-.005q-.183 0-.184-.195l.015-2.857q.007-1.119-.669-1.122-.47-.004-.742.3-.269.305-.272.83zm6.934-6.39q-.003.092-.043.106c-.028.007-.068.002-.116-.025a1 1 0 0 0-.239-.075 1 1 0 0 0-.258-.001q-.243.036-.328.35-.02.074-.027.222-.012.147-.01.332l-.005.463.776.004q.111.001.143.043.034.042.033.142l-.005.769q.001.102-.035.144c-.018.027-.068.041-.141.041l-.776-.005-.021 3.914q-.003.108-.043.148-.042.035-.134.035l-.86-.005q-.102 0-.14-.037-.038-.04-.035-.148l.021-3.913-.647-.004q-.177 0-.177-.186l.005-.768q0-.184.177-.184l.647.004.004-.397q0-.389.062-.767.064-.38.227-.67.164-.29.446-.46.284-.17.727-.186.187-.008.408.022c.148.017.253.044.323.075q.065.027.082.06a.2.2 0 0 1 .009.107zm2.946 2.374a1 1 0 0 0-.539.14 1.2 1.2 0 0 0-.385.373q-.152.23-.235.526a2.4 2.4 0 0 0-.08.61q-.003.313.075.61.077.297.228.533c.1.159.23.285.38.381q.233.145.538.147.313.001.546-.14.233-.143.386-.377a1.8 1.8 0 0 0 .23-.532 2.55 2.55 0 0 0 .008-1.21 1.9 1.9 0 0 0-.223-.535 1.3 1.3 0 0 0-.384-.38 1 1 0 0 0-.545-.146m1.858 3.542a2.2 2.2 0 0 1-.822.65 2.5 2.5 0 0 1-1.06.21 2.4 2.4 0 0 1-1.067-.228 2.25 2.25 0 0 1-.765-.601 2.6 2.6 0 0 1-.462-.876 3.66 3.66 0 0 1 .005-2.11c.106-.33.26-.623.47-.87.206-.248.467-.444.773-.587q.464-.216 1.077-.212.608.003 1.07.228c.306.148.565.35.768.6q.306.375.464.873.156.495.151 1.05a3.4 3.4 0 0 1-.158 1.03 2.6 2.6 0 0 1-.444.843m4.096-3.326a1.1 1.1 0 0 0-.323-.088.6.6 0 0 0-.258.021.75.75 0 0 0-.358.239q-.136.165-.207.387a2 2 0 0 0-.09.462q-.019.24-.02.463l-.013 2.386q-.003.11-.032.153-.035.04-.136.04l-.888-.006q-.1.001-.13-.036-.028-.04-.027-.167l.02-3.664q.003-.294-.005-.619a15 15 0 0 1-.005-.536q0-.12.037-.157t.14-.036l.887.005q.139 0 .138.148l-.002.353q.12-.176.308-.342a.77.77 0 0 1 .389-.202q.192-.035.383-.02t.292.088q.044.038.06.072a.3.3 0 0 1 .013.105l-.005.804q0 .103-.037.148-.036.048-.13 0m6.786 4.106q-.101 0-.148-.041-.046-.044-.045-.153l.014-3.11q.003-.369-.198-.597a.66.66 0 0 0-.508-.228.8.8 0 0 0-.417.103.9.9 0 0 0-.314.291q-.132.183-.205.424a1.8 1.8 0 0 0-.067.498l-.015 2.619q-.004.182-.178.183l-.87-.005q-.102 0-.148-.04-.046-.043-.045-.156l.016-3.107q.004-.435-.169-.63-.167-.194-.492-.196-.443-.003-.704.296-.26.3-.262.715l-.016 2.924q-.003.11-.038.148-.039.037-.139.036l-.861-.005q-.111 0-.148-.047-.036-.046-.034-.148l.018-3.615.004-.7a6 6 0 0 0-.014-.53q-.019-.102.021-.145.044-.04.182-.04l.86.004q.102 0 .128.02.029.018.028.101l-.002.378q.205-.21.496-.37c.196-.107.39-.16.59-.16q.444.005.834.236.394.235.603.624.12-.176.281-.331.155-.158.34-.277.178-.118.388-.192.208-.072.43-.072.415.003.757.125.342.123.587.355.243.233.376.57c.085.227.132.484.13.772l-.018 3.293q-.003.112-.043.148-.042.038-.144.036zm5.108-2.507q-.525.008-.868.074a1.9 1.9 0 0 0-.553.187.63.63 0 0 0-.284.285.9.9 0 0 0-.076.371q-.002.295.174.458.175.164.489.164a.99.99 0 0 0 .8-.36c.207-.244.309-.634.318-1.178m.116 2.553q-.083 0-.106-.02-.024-.016-.025-.11l.004-.398q-.159.249-.515.423a1.6 1.6 0 0 1-.708.173 2.6 2.6 0 0 1-.73-.11 1.4 1.4 0 0 1-.576-.338 1.7 1.7 0 0 1-.353-.547 1.9 1.9 0 0 1-.125-.728q.003-.48.233-.868.236-.386.62-.602.385-.214.914-.309.526-.095 1.164-.053-.052-.731-.624-.81a1.7 1.7 0 0 0-.375.007q-.191.028-.37.088-.182.06-.348.135c-.112.054-.21.105-.298.162q-.192.128-.276.127-.083-.002-.084-.185l.005-.769q0-.12.023-.171.023-.049.134-.105a5 5 0 0 1 .654-.255q.377-.117.885-.114.942.004 1.406.487.466.484.462 1.492l-.013 2.107-.002.264a15 15 0 0 0 .011.576q.003.133.015.235.016.184-.022.203a.3.3 0 0 1-.128.018zm4.83-.057a2.4 2.4 0 0 1-.444.142q-.26.059-.592.047a1.3 1.3 0 0 1-.62-.175 1.1 1.1 0 0 1-.405-.394 1.7 1.7 0 0 1-.153-.608 11 11 0 0 1-.023-.874l.012-2.182-.656-.005q-.178 0-.177-.185l.005-.769q0-.184.177-.183l.656.004.007-1.229q0-.185.185-.185l.853.005q.174 0 .174.186l-.007 1.23.785.005q.111 0 .144.043.032.04.032.142l-.005.767q0 .102-.032.144-.034.04-.144.041l-.785-.005-.012 2.072-.002.542q-.002.207.016.273c.021.116.077.19.159.223a.5.5 0 0 0 .255.028q.14-.017.267-.064.13-.044.205-.08.079-.038.11-.005.038.032.05.135l.079.694q.006.083-.013.133-.018.052-.101.088m.803.067q-.083 0-.115-.037-.032-.036-.032-.148l.027-4.819q0-.109.027-.148.029-.035.121-.036l.915.005q.094 0 .126.038.031.036.032.148l-.023 4.819q-.006.11-.037.148-.032.036-.125.035zm.504-5.972a.67.67 0 0 1-.508-.216.72.72 0 0 1-.2-.518q0-.304.202-.521a.67.67 0 0 1 .513-.216q.316.004.517.221.203.22.202.524a.72.72 0 0 1-.207.517.68.68 0 0 1-.519.209m3.892 1.743a1 1 0 0 0-.539.14 1.2 1.2 0 0 0-.385.373q-.152.23-.233.526c-.056.196-.08.4-.082.61q-.003.312.075.61.077.297.23.532.149.239.377.382.234.143.539.146.312.002.545-.139.234-.143.387-.378a1.8 1.8 0 0 0 .23-.531 2.55 2.55 0 0 0 .01-1.21 1.9 1.9 0 0 0-.227-.536 1.25 1.25 0 0 0-.382-.38 1 1 0 0 0-.545-.145m1.857 3.542a2.2 2.2 0 0 1-.821.649c-.32.143-.67.212-1.06.21a2.4 2.4 0 0 1-1.067-.228 2.25 2.25 0 0 1-.765-.6 2.6 2.6 0 0 1-.46-.876 3.66 3.66 0 0 1 .005-2.11c.105-.33.259-.623.467-.87a2.2 2.2 0 0 1 .774-.587q.463-.216 1.077-.213a2.4 2.4 0 0 1 1.068.229q.464.223.77.599.306.377.463.873.155.496.152 1.05a3.4 3.4 0 0 1-.159 1.03 2.6 2.6 0 0 1-.444.844m2.83.552q-.004.112-.038.148-.038.037-.14.036l-.86-.005q-.11.001-.148-.046-.037-.046-.036-.148l.02-3.618q.002-.35.009-.71a4 4 0 0 0-.021-.546q-.017-.103.02-.13.036-.027.167-.027l.877.005q.103 0 .13.02.028.018.029.101l-.002.351q.193-.201.504-.37.31-.171.635-.17.925.006 1.351.535.429.53.423 1.538l-.016 3.053q-.003.11-.04.148-.035.035-.139.035l-.859-.005c-.121 0-.185-.066-.184-.194l.015-2.86q.007-1.117-.669-1.121-.47-.003-.741.301-.268.304-.273.831zm6.99.222q-.102 0-.145-.037-.041-.038-.04-.148l.037-6.751q0-.185.185-.186l.89.005q.182.002.183.188l-.035 6.751q-.002.11-.045.148-.04.037-.143.036zm3.442-.165q-.003.112-.038.148-.038.035-.14.036l-.86-.005q-.11 0-.148-.047-.038-.046-.035-.148l.02-3.617q.001-.35.008-.711a4 4 0 0 0-.021-.546q-.016-.103.02-.13t.167-.027l.877.005q.103 0 .13.02.028.018.029.102l-.002.35q.194-.202.504-.37.31-.171.633-.17.927.007 1.353.535.429.53.423 1.539l-.016 3.052q-.002.11-.04.148-.034.035-.138.036l-.86-.005c-.12 0-.185-.066-.183-.194l.014-2.86q.008-1.117-.669-1.121-.47-.003-.741.3-.27.303-.273.832zm6.704.026a1.4 1.4 0 0 1-.547.257 3 3 0 0 1-.647.078q-.175-.001-.38-.023a6 6 0 0 1-.389-.059 3 3 0 0 1-.58-.164.4.4 0 0 1-.133-.08q-.034-.032-.025-.133l.079-.676q.008-.11.046-.137t.14.009q.286.105.596.18.308.076.642.076.332.003.49-.164a.57.57 0 0 0 .16-.415q.001-.175-.158-.348a2.4 2.4 0 0 0-.383-.32 6 6 0 0 0-.453-.275 9 9 0 0 1-.369-.212 1.7 1.7 0 0 1-.508-.478 1.1 1.1 0 0 1-.207-.681q.004-.417.146-.715.146-.302.382-.494.239-.193.55-.283c.204-.061.418-.091.634-.09q.165.001.355.026.189.023.36.062.17.037.319.084.148.05.23.085.095.046.107.084.013.036.004.11l-.088.703q-.018.112-.064.125-.047.013-.148-.032a2.16 2.16 0 0 0-1.027-.22q-.296.008-.431.141a.5.5 0 0 0-.136.375q0 .102.12.25.119.149.424.317a11 11 0 0 1 .865.53c.223.176.388.35.504.522q.167.258.166.695a1.64 1.64 0 0 1-.164.733 1.4 1.4 0 0 1-.481.558m4.134.152a2.4 2.4 0 0 1-1.036.189 1.3 1.3 0 0 1-.62-.175 1.07 1.07 0 0 1-.405-.396 1.7 1.7 0 0 1-.153-.606 11 11 0 0 1-.023-.874l.012-2.184-.656-.004q-.178 0-.176-.185l.005-.768q-.001-.184.176-.184l.656.004.007-1.23q0-.184.186-.184l.852.006q.173 0 .173.185l-.005 1.23.784.005q.111 0 .145.041.032.044.032.144l-.005.767q0 .102-.032.143-.034.043-.145.043l-.784-.005-.013 2.071-.002.542q-.002.207.016.273c.022.116.077.19.157.223q.118.046.257.028.141-.017.267-.064.132-.043.205-.082.077-.035.111-.004.037.032.048.134l.077.695q.013.083-.01.134-.018.05-.1.087m.802.069c-.054 0-.095-.012-.114-.037q-.034-.038-.032-.148l.026-4.819q0-.112.027-.148.03-.037.121-.036l.915.005c.06 0 .105.013.126.038q.031.037.033.148l-.025 4.819q-.004.11-.036.148-.032.035-.125.035zm.504-5.972a.67.67 0 0 1-.508-.216.72.72 0 0 1-.2-.519q0-.303.202-.52a.67.67 0 0 1 .514-.216q.315.002.517.221.202.22.201.524a.72.72 0 0 1-.207.516.68.68 0 0 1-.519.21m4.287 5.934a2.3 2.3 0 0 1-1.036.187 1.26 1.26 0 0 1-.62-.173 1.07 1.07 0 0 1-.405-.396 1.7 1.7 0 0 1-.153-.606 11 11 0 0 1-.023-.873l.012-2.184-.656-.004c-.12 0-.176-.063-.176-.186l.005-.768q-.001-.184.176-.184l.656.004.007-1.23q0-.185.186-.183l.852.003q.173.002.173.187l-.005 1.23.784.005q.11.001.145.042.032.04.032.143l-.005.768q0 .102-.032.143-.034.043-.145.041l-.784-.004-.013 2.072-.002.54q-.002.208.016.274c.022.116.077.191.157.223q.118.046.257.029.141-.018.267-.064.131-.046.205-.082.078-.037.11-.004.039.031.049.133l.077.696q.008.083-.01.133t-.1.088m3.986.105q-.101 0-.133-.028-.035-.03-.034-.102l.002-.353a1 1 0 0 1-.218.236q-.135.105-.292.178a2 2 0 0 1-.325.117q-.166.049-.312.045-.91-.004-1.358-.542-.452-.54-.446-1.53l.018-3.07q-.002-.101.037-.148.037-.044.138-.044l.852.004q.11 0 .148.062a.26.26 0 0 1 .035.143l-.014 2.904q-.003.323.046.531.05.21.143.336a.5.5 0 0 0 .225.176.8.8 0 0 0 .301.052.89.89 0 0 0 .69-.314q.284-.319.287-.993l.016-2.692q-.002-.102.037-.148.037-.046.138-.046l.86.005q.112-.001.145.066.03.064.03.147l-.02 3.709q0 .277.008.58.005.298.005.53a.4.4 0 0 1-.023.157q-.023.037-.154.036zm4.976-.056a2.3 2.3 0 0 1-1.036.187 1.3 1.3 0 0 1-.62-.173 1.07 1.07 0 0 1-.405-.396 1.7 1.7 0 0 1-.153-.606 11 11 0 0 1-.023-.874l.012-2.184-.656-.004q-.178 0-.176-.185l.005-.768q-.001-.184.176-.184l.656.004.007-1.23q0-.186.186-.184l.852.004q.173.001.173.187l-.005 1.23.784.004q.11 0 .145.043.031.04.032.143l-.005.768q0 .102-.032.143-.034.041-.145.04l-.784-.003-.013 2.071-.002.54q-.003.209.016.275c.022.116.077.19.157.223q.118.045.257.028.14-.017.267-.064.131-.045.205-.082.077-.038.11-.004.04.032.047.134l.08.693a.3.3 0 0 1-.01.136q-.02.05-.102.087" style="fill:#1e4b82;fill-opacity:1;fill-rule:nonzero;stroke:none;stroke-width:1.78281"/></svg>