<svg xmlns="http://www.w3.org/2000/svg" width="720.34167pt" height="337.5pt" viewBox="0 0 720.34165 337.49999"><path fill="#a7a9ac" d="M-46.445 539.95c.739-6.586 1.047-12.313.902-17.213h-50.355v8.47h40.083c.135 3.148-.117 7.328-.749 12.57-.637 5.231-1.47 9.528-2.486 12.898H-111.2v8.048h35.854v14.712h-21.45v8.162h42.183v21.633h7.343a2.43 2.43 0 0 0 2.43-2.437v-27.358H-64.97v-14.712h35.54v-8.048h-19.837c1.143-4.562 2.076-10.143 2.822-16.726M53.29 606.797v-86.99h-9.765v89.423h7.334c1.34 0 2.43-1.087 2.43-2.434M19.045 553.548c-1.685-3.09-2.89-6.447-3.629-10.115-.733-3.672-1.106-7.698-1.106-12.143v-7.648H4.145v7.855c0 4.161-.332 7.96-.976 11.369a33.612 33.612 0 0 1-3.259 9.573c-1.67 3.228-3.924 6.346-6.74 9.37-2.84 3.019-6.382 6.078-10.682 9.167l6.14 6.022c1.752-1.118 3.723-2.612 5.953-4.463a95.462 95.462 0 0 0 6.14-5.6 58.129 58.129 0 0 0 4.974-5.628c1.515-1.956 2.738-3.865 3.675-5.741a36.86 36.86 0 0 0 3.634 5.741 54.548 54.548 0 0 0 4.935 5.628 58.91 58.91 0 0 0 5.689 5.033c1.98 1.555 3.875 2.862 5.692 3.937l5.739-6.241c-3.82-2.541-7.026-5.11-9.62-7.654-2.587-2.557-4.722-5.379-6.394-8.462M97.843 546.302c.764 1.743 1.83 3.542 3.237 5.372a44.907 44.907 0 0 0 4.735 5.295 53.423 53.423 0 0 0 5.184 4.177c1.842 1.321 3.702 2.338 5.59 3.077l5.335-6.552c-3.012-1.55-5.707-3.317-8.067-5.338a31.396 31.396 0 0 1-5.932-6.74c-1.617-2.479-2.822-5.211-3.681-8.153-.823-2.96-1.263-6.148-1.263-9.564v-6.163H92.524v5.464c0 3.548-.438 6.792-1.263 9.764a34.053 34.053 0 0 1-3.58 8.255c-1.875 2.942-4.198 5.646-6.995 8.101-2.781 2.455-5.957 4.76-9.518 6.888l5.739 6.351a54.676 54.676 0 0 0 6.607-4.189 60.151 60.151 0 0 0 6.293-5.283 48.796 48.796 0 0 0 4.879-5.42c1.448-1.877 2.495-3.672 3.157-5.342M141.96 591.001v-19.926H94.233v7.64h37.268v7.358H94.234v23.262h49.65v-7.947h-39.082v-7.96h34.727a2.423 2.423 0 0 0 2.43-2.427M143.078 563.697v-43.98h-9.675v12.676H116.89v8.347h16.513v25.39h7.245a2.428 2.428 0 0 0 2.43-2.433M218.435 571.28v-7.955c-8.735 1.133-18.173 1.71-30.814 1.903v-20.45h-9.552v20.65h-15.925v7.947l27.618-.234c6.505-.08 22.652-1.004 28.673-1.86M232.435 519.807h-9.663v65.267h7.233c1.34 0 2.43-1.087 2.43-2.43v-27.818h12.503v-8.147h-12.503zM192.566 582.856h-9.783v26.376h50.969v-8.366h-41.186z" style="stroke-width:3.08024" transform="translate(295.434 -271.835)"/><path fill="#a7a9ac" d="M197.475 557.763h9.783c.998-8.397 1.925-25.354 1.925-35.438h-39.996v8.467h29.715c.07 3.894-.284 19.744-1.427 26.97M282.29 567.55l-10.27.102v-14.197h24.56a2.433 2.433 0 0 0 2.43-2.427v-26.68h-36.88v8.356h27.103v12.99H262.04v30.21h16.316c4.16 0 9.588-.222 16.319-.705 6.708-.462 12.32-1.09 16.815-1.922v-8.049c-5.43.866-10.713 1.472-15.814 1.759-5.104.311-9.568.493-13.387.564M327.086 606.797v-86.99h-9.77v89.423h7.34a2.434 2.434 0 0 0 2.43-2.434M379.997 568.164c6.913-.493 12.152-1.04 15.716-1.725v-7.86c-4.657.668-9.777 1.182-15.426 1.527-5.637.32-10.534.527-14.693.592l-8.27.09v-28.595h27.894v-8.44H347.56v45.218l16.417-.117c3.755 0 9.108-.23 16.02-.69M424.907 551.554v-8.455h-12.795v-23.382h-9.657v65.753h7.227a2.43 2.43 0 0 0 2.43-2.427v-31.489zM373.241 581.547h-9.764v27.682h50.054v-8.366h-40.29ZM-264.815 531.466c2.54-2.612 5.6-3.902 9.185-3.902 3.6 0 6.678 1.29 9.247 3.902 2.547 2.557 3.825 5.668 3.825 9.297 0 3.625-1.278 6.714-3.825 9.317-2.57 2.585-5.646 3.869-9.247 3.869-3.586 0-6.644-1.284-9.185-3.869-2.55-2.603-3.83-5.692-3.83-9.317 0-3.629 1.28-6.74 3.83-9.297m9.065 31.138c6.317 0 11.686-2.128 16.106-6.388 4.436-4.272 6.647-9.425 6.647-15.453 0-6.035-2.211-11.197-6.647-15.463-4.42-4.279-9.789-6.398-16.106-6.398-6.312 0-11.696 2.12-16.107 6.398-4.432 4.266-6.665 9.428-6.665 15.463 0 6.028 2.233 11.18 6.665 15.453 4.411 4.26 9.795 6.388 16.107 6.388M-295.434 576.506h34.945v32.724h7.935a2.43 2.43 0 0 0 2.43-2.433v-30.291h34.446v-8.15h-79.756zM-137.497 609.23h7.032c1.34 0 2.43-1.09 2.43-2.433V519.91h-9.462zM-155.929 543.186h-12.502v8.162h12.502v55.562h6.632a2.427 2.427 0 0 0 2.433-2.428V521.31h-9.065z" style="stroke-width:3.08024" transform="translate(295.434 -271.835)"/><path fill="#a7a9ac" d="M-168.928 562.058c-2.067-2.865-3.687-5.72-4.83-8.603-1.075-2.83-1.783-5.699-2.113-8.622-.339-2.929-.493-5.908-.493-9.01v-.394h13.48v-8.073h-13.48v-9.653h-9.872v9.653h-13.602v8.073h13.796v.598c0 2.747-.148 5.504-.45 8.249a35.83 35.83 0 0 1-1.968 8.273c-1.14 3.22-2.908 6.466-5.289 9.768-2.38 3.27-5.766 6.696-10.124 10.266l6.246 5.736c1.756-1.263 3.49-2.76 5.25-4.491a66.715 66.715 0 0 0 4.928-5.388 69.044 69.044 0 0 0 3.72-4.873c1.143-1.654 2.046-3.2 2.726-4.69.734 1.678 1.673 3.384 2.816 5.1a60.984 60.984 0 0 0 3.72 4.993 60.68 60.68 0 0 0 4.276 4.405 48.663 48.663 0 0 0 4.3 3.625l5.53-5.923c-3.63-3.154-6.485-6.176-8.567-9.02" style="stroke-width:3.08024" transform="translate(295.434 -271.835)"/><path fill="#ed1c24" d="M-18.248 432.544c-5.714 6.419-15.18 10.33-28.77 10.358-13.608-.027-23.064-3.94-28.781-10.358-5.69-6.463-8.665-15.617-8.739-30.187v-.073c.074-14.582 3.05-23.734 8.739-30.184 5.717-6.419 15.173-10.337 28.782-10.359 13.59.022 23.055 3.94 28.77 10.36 5.698 6.45 8.667 15.6 8.753 30.182v.065c-.086 14.579-3.055 23.733-8.754 30.196m28.84-82.806c-13.553-12.112-33.02-17.616-57.61-17.705-24.598.089-44.062 5.593-57.612 17.705-13.553 12.093-20.046 30.288-20.03 52.58-.016 22.291 6.477 40.489 20.03 52.588 13.55 12.105 33.014 17.616 57.613 17.7 24.59-.084 44.056-5.595 57.61-17.7 13.552-12.099 20.04-30.297 20.02-52.589.02-22.291-6.468-40.486-20.02-52.58M370.624 345.978h-.006c-3.061-6.727-9.823-11.418-17.699-11.449h-24.528c-7.876.031-14.643 4.722-17.711 11.45l-.012-.013-54.283 123.84h41.666l42.603-97.837 42.593 97.838h41.66z" style="stroke-width:3.08024" transform="translate(295.434 -271.835)"/><path fill="#f36f21" d="M90.9 334.536v-.006H71.07c-10.732.07-19.412 8.794-19.412 19.544v115.73h39.243v-77.418a4.124 4.124 0 0 1 4.12-4.115c1.27 0 2.4.588 3.152 1.5l.006-.01 36.735 43.601V380.79l-35.993-42.52a10.86 10.86 0 0 0-8.02-3.733" style="stroke-width:3.08024" transform="translate(295.434 -271.835)"/><path fill="#ed1c24" d="M-183.36 388.205c0 16.67-6.842 26.444-28.53 26.444-3.66 0-26.709-.003-42.513-.009v-52.9c15.804 0 38.854-.006 42.513-.006 21.688 0 28.53 9.764 28.53 26.44v.013zm24.669-42.023c-10.31-9.678-25.12-14.142-43.807-14.142l-70.704.016c-11.221 0-20.308 9.105-20.308 20.326v120.206h39.107v-28.26c18.595.005 48.692.005 51.905.005 18.688 0 33.497-4.463 43.807-14.141 10.297-9.65 15.235-24.202 15.222-42.005.013-17.807-4.925-32.349-15.222-42.005M234.895 309.43l-56.017 24.282c-2.045.933-3.471 2.976-3.471 5.369v72.881l18.706-22.193c2.69-3.182 7.26-.96 7.26 2.619v77.415h39.255V313.22c0-2.67-2.785-5.06-5.733-3.788" style="stroke-width:3.08024" transform="translate(295.434 -271.835)"/><path fill="#a7a9ac" d="M201.374 392.386V275.963c0-3.265-3.416-4.716-5.307-3.91l-46.481 19.948a5.887 5.887 0 0 0-3.447 5.354v149.327l47.975-56.914c2.689-3.182 7.26-.96 7.26 2.618" style="stroke-width:3.08024" transform="translate(295.434 -271.835)"/><path fill="#9e0a0e" d="M178.88 333.712c-2.046.933-3.472 2.975-3.472 5.368v72.882l18.703-22.193c2.69-3.182 7.264-.961 7.264 2.618V323.96z" style="stroke-width:3.08024" transform="translate(295.434 -271.835)"/></svg>