<svg xmlns="http://www.w3.org/2000/svg" width="639.82092mm" height="400mm" viewBox="0 0 639.82092 400"><path d="M0 0a3.086 3.086 0 0 1-2.262-.939c-.625-.625-.939-1.415-.939-2.362 0-.947.314-1.744.939-2.386.629-.645 1.381-.967 2.262-.967.879 0 1.643.322 2.285.967.645.642.965 1.439.965 2.386 0 .947-.32 1.737-.965 2.362C1.643-.312.879 0 0 0" style="fill:#ec1c24;fill-opacity:1;fill-rule:nonzero;stroke:none" transform="matrix(3.87665 0 0 -3.87665 138.695 249.173)"/><path d="M0 0a8.432 8.432 0 0 0-1.803-2.691 8.419 8.419 0 0 0-2.693-1.803 8.355 8.355 0 0 0-3.326-.662c-1.186 0-2.287.22-3.303.662a8.501 8.501 0 0 0-2.666 1.803A8.487 8.487 0 0 0-15.596 0a8.423 8.423 0 0 0-.66 3.328c0 1.151.221 2.242.66 3.277a8.491 8.491 0 0 0 1.805 2.692 8.552 8.552 0 0 0 2.666 1.803c1.016.439 2.117.66 3.303.66a8.468 8.468 0 0 0 6.019-2.463A8.437 8.437 0 0 0 0 6.605a8.302 8.302 0 0 0 .66-3.277A8.423 8.423 0 0 0 0 0m-16.682 19.391h5.914v5.689h4.573v10.16h-9.145v5.233H-.811V23.1h-4.574v-3.709H.527v-5.182h-17.209ZM.986 53.375h-20.543a2.851 2.851 0 0 1-2.843-2.844v-62.433a2.852 2.852 0 0 1 2.843-2.846H.986a2.852 2.852 0 0 1 2.844 2.846v62.433a2.851 2.851 0 0 1-2.844 2.844" style="fill:#ec1c24;fill-opacity:1;fill-rule:nonzero;stroke:none" transform="matrix(3.87665 0 0 -3.87665 169.02 274.871)"/><path d="M0 0a8.396 8.396 0 0 0 3.328.662C4.852.662 6.25.297 7.52-.432a8.336 8.336 0 0 0 3.023-2.92v.965h5.588V3.15h5.383v-31.556a8.228 8.228 0 0 0 1.502-.61v39.889a2.854 2.854 0 0 1-2.846 2.844H-.371a2.852 2.852 0 0 1-2.846-2.844V-2.346c.158.188.324.371.5.545A8.795 8.795 0 0 0 0 0" style="fill:#ec1c24;fill-opacity:1;fill-rule:nonzero;stroke:none" transform="matrix(3.87665 0 0 -3.87665 219.567 121.13)"/><path d="M0 0a3.078 3.078 0 0 1-2.26-.939c-.629-.625-.941-1.415-.941-2.362 0-.947.312-1.744.941-2.386.627-.645 1.379-.967 2.26-.967.881 0 1.643.322 2.285.967.645.642.967 1.439.967 2.386 0 .947-.322 1.737-.967 2.362C1.643-.312.881 0 0 0" style="fill:#ec1c24;fill-opacity:1;fill-rule:nonzero;stroke:none" transform="matrix(3.87665 0 0 -3.87665 292.731 249.173)"/><path d="M0 0h-4.318l.05-.406c0-.373-.025-.711-.076-1.016a15.198 15.198 0 0 0-.179-.914H0Z" style="fill:#ec1c24;fill-opacity:1;fill-rule:nonzero;stroke:none" transform="matrix(3.87665 0 0 -3.87665 282.1 150.077)"/><path d="M0 0c-.881 0-1.643-.324-2.285-.967-.643-.642-.965-1.455-.965-2.437 0-.948.322-1.744.965-2.389.642-.643 1.404-.965 2.285-.965.881 0 1.643.322 2.287.965.643.645.965 1.441.965 2.389 0 .982-.322 1.795-.965 2.437C1.643-.324.881 0 0 0" style="fill:#ec1c24;fill-opacity:1;fill-rule:nonzero;stroke:none" transform="matrix(3.87665 0 0 -3.87665 232.469 138.454)"/><path d="M0 0c-1.186 0-2.285.221-3.301.66a8.555 8.555 0 0 0-2.668 1.805 8.457 8.457 0 0 0-1.802 2.691 8.371 8.371 0 0 0-.661 3.328c0 1.862.524 3.504 1.575 4.928 1.048 1.422 2.421 2.42 4.115 2.996v13.524H-8.33v2.439a8.993 8.993 0 0 0-3.049-2.871c-1.254-.729-2.642-1.092-4.166-1.092a8.43 8.43 0 0 0-3.328.66 8.55 8.55 0 0 0-2.717 1.828 8.367 8.367 0 0 0-.5.551V-6.746a2.853 2.853 0 0 1 2.846-2.846H1.297a2.855 2.855 0 0 1 2.846 2.846v7.807A9.475 9.475 0 0 0 3.328.66 8.426 8.426 0 0 0 0 0" style="fill:#ec1c24;fill-opacity:1;fill-rule:nonzero;stroke:none" transform="matrix(3.87665 0 0 -3.87665 292.731 294.86)"/><path d="M0 0h2.336v-5.689h1.625V0H5.84L2.996 6.146Z" style="fill:#ec1c24;fill-opacity:1;fill-rule:nonzero;stroke:none" transform="matrix(3.87665 0 0 -3.87665 380.584 177.645)"/><path d="M0 0h-18.309v5.182h3.719v3.199l-3.607 1.678 8.992 17.421 8.941-17.371-3.353-1.625V5.182H0Zm-1.344 39.166h-20.543a2.851 2.851 0 0 1-2.843-2.844v-62.433a2.852 2.852 0 0 1 2.843-2.846h20.543a2.853 2.853 0 0 1 2.846 2.846v62.433a2.853 2.853 0 0 1-2.846 2.844" style="fill:#ec1c24;fill-opacity:1;fill-rule:nonzero;stroke:none" transform="matrix(3.87665 0 0 -3.87665 427.884 219.788)"/><path d="M472.62 232.544h9.685v-26.59h-9.684z" style="fill:#ec1c24;fill-opacity:1;fill-rule:nonzero;stroke:none;stroke-width:3.87667" transform="translate(7.893 -67.5)"/><path d="M0 0c-1.187 0-2.287.221-3.303.66a8.578 8.578 0 0 0-2.668 1.805 8.457 8.457 0 0 0-1.802 2.691 8.406 8.406 0 0 0-.661 3.328c0 1.862.524 3.504 1.575 4.928 1.048 1.422 2.42 2.42 4.115 2.996v31.557h5.385V16.408a8.284 8.284 0 0 0 1.502-.609v39.889a2.853 2.853 0 0 1-2.846 2.843h-20.541a2.852 2.852 0 0 1-2.846-2.843V45.629h15.533v-5.283h-2.48v-6.86h2.531v-5.23H-22.09V-6.746a2.853 2.853 0 0 1 2.846-2.846H1.297a2.855 2.855 0 0 1 2.846 2.846v7.808A8.973 8.973 0 0 0 3.326.66 8.417 8.417 0 0 0 0 0" style="fill:#ec1c24;fill-opacity:1;fill-rule:nonzero;stroke:none" transform="matrix(3.87665 0 0 -3.87665 542.555 294.86)"/><path d="M0 0a3.087 3.087 0 0 1-2.264-.939c-.625-.625-.937-1.415-.937-2.362 0-.947.312-1.744.937-2.386.629-.645 1.381-.967 2.264-.967.879 0 1.641.322 2.283.967.645.642.967 1.439.967 2.386 0 .947-.322 1.737-.967 2.362C1.641-.312.879 0 0 0" style="fill:#ec1c24;fill-opacity:1;fill-rule:nonzero;stroke:none" transform="matrix(3.87665 0 0 -3.87665 542.555 249.173)"/><path d="M455.09 205.954h-6.063v26.59h6.064z" style="fill:#ec1c24;fill-opacity:1;fill-rule:nonzero;stroke:none;stroke-width:3.87667" transform="translate(7.893 -67.5)"/><path d="M0 0h-5.914v3.709h4.572v17.373h-14.527V15.85h9.142V5.689h-4.57V0h-5.914v-5.182H0Z" style="fill:#fff;fill-opacity:1;fill-rule:nonzero;stroke:none" transform="matrix(3.87665 0 0 -3.87665 171.071 199.7)"/><path d="M0 0c-.643-.643-1.404-.965-2.285-.965-.881 0-1.633.322-2.262.965-.625.645-.939 1.441-.939 2.389 0 .947.314 1.734.939 2.361a3.086 3.086 0 0 0 2.262.939c.881 0 1.642-.312 2.285-.939.645-.627.965-1.414.965-2.361C.965 1.441.645.645 0 0m3.734 8.355a8.392 8.392 0 0 1-2.693 1.805 8.388 8.388 0 0 1-3.326.66c-1.186 0-2.287-.22-3.303-.66a8.456 8.456 0 0 1-4.471-4.494 8.304 8.304 0 0 1-.658-3.277c0-1.186.219-2.295.658-3.328a8.491 8.491 0 0 1 1.805-2.692 8.518 8.518 0 0 1 2.666-1.803c1.016-.441 2.117-.662 3.303-.662 1.185 0 2.295.221 3.326.662a8.435 8.435 0 0 1 2.693 1.803A8.437 8.437 0 0 1 5.537-.939a8.403 8.403 0 0 1 .662 3.328 8.29 8.29 0 0 1-.662 3.277 8.401 8.401 0 0 1-1.803 2.689" style="fill:#fff;fill-opacity:1;fill-rule:nonzero;stroke:none" transform="matrix(3.87665 0 0 -3.87665 147.554 271.23)"/><path d="M0 0c-.645-.643-1.406-.965-2.287-.965-.883 0-1.633.322-2.26.965-.629.645-.941 1.441-.941 2.389 0 .947.312 1.734.941 2.361a3.075 3.075 0 0 0 2.26.939c.881 0 1.642-.312 2.287-.939.643-.627.965-1.414.965-2.361C.965 1.441.643.645 0 0m-9.553 28.916c.071.303.129.609.18.914.051.305.076.643.076 1.016l-.051.406h4.319v-2.336zm-5.992-.457c-.644-.645-1.408-.967-2.287-.967-.881 0-1.643.322-2.285.967-.643.643-.965 1.437-.965 2.387 0 .982.322 1.795.965 2.437.642.643 1.404.967 2.285.967.879 0 1.643-.324 2.287-.967.643-.642.965-1.455.965-2.437 0-.95-.322-1.744-.965-2.387m15.9-18.146v31.556h-5.384v-5.537h-5.588v-.965a8.347 8.347 0 0 1-3.024 2.92c-1.269.731-2.668 1.094-4.191 1.094a8.376 8.376 0 0 1-3.326-.662 8.756 8.756 0 0 1-2.719-1.803 7.547 7.547 0 0 1-.5-.543V25.352a8.12 8.12 0 0 1 .5-.551 8.505 8.505 0 0 1 2.719-1.828 8.358 8.358 0 0 1 3.326-.661c1.523 0 2.912.364 4.166 1.092a9.025 9.025 0 0 1 3.049 2.869v-2.437h5.588V10.313c-1.696-.577-3.067-1.575-4.116-2.997-1.05-1.423-1.574-3.066-1.574-4.927 0-1.186.219-2.295.658-3.328a8.491 8.491 0 0 1 1.805-2.692 8.527 8.527 0 0 1 2.668-1.803c1.016-.441 2.115-.662 3.301-.662a8.39 8.39 0 0 1 4.142 1.061V9.703a8.34 8.34 0 0 1-1.5.61" style="fill:#fff;fill-opacity:1;fill-rule:nonzero;stroke:none" transform="matrix(3.87665 0 0 -3.87665 301.598 271.23)"/><path d="M0 0v-5.689h-1.625V0h-2.336l2.996 6.146L1.881 0Zm4.623-2.387L7.977-.762-.965 16.609-9.957-.812-6.35-2.49v-3.199h-3.718v-5.182H8.24v5.182H4.623Z" style="fill:#fff;fill-opacity:1;fill-rule:nonzero;stroke:none" transform="matrix(3.87665 0 0 -3.87665 395.94 177.645)"/><path d="M482.305 232.544h-9.684v-26.59h9.684zm27.136 0h-9.804v-26.59h9.606v-20.48h-60.216v20.48h6.064v26.59h-6.064v20.278h60.414z" style="fill:#fff;fill-opacity:1;fill-rule:nonzero;stroke:none;stroke-width:3.87667" transform="translate(7.893 -67.5)"/><path d="M0 0c-.643-.643-1.404-.965-2.283-.965-.883 0-1.635.322-2.262.965-.627.645-.939 1.441-.939 2.389 0 .947.312 1.734.939 2.361a3.08 3.08 0 0 0 2.262.939c.879 0 1.64-.312 2.283-.939.645-.627.967-1.414.967-2.361C.967 1.441.645.645 0 0m.357 10.313v31.556h-5.386V10.313c-1.694-.577-3.065-1.575-4.114-2.997-1.048-1.423-1.574-3.066-1.574-4.927a8.453 8.453 0 0 1 2.463-6.02 8.527 8.527 0 0 1 2.668-1.803 8.232 8.232 0 0 1 3.303-.662c1.183 0 2.293.223 3.326.662.283.12.553.254.816.401V9.703a8.3 8.3 0 0 1-1.502.61" style="fill:#fff;fill-opacity:1;fill-rule:nonzero;stroke:none" transform="matrix(3.87665 0 0 -3.87665 551.406 271.23)"/></svg>