<svg xmlns="http://www.w3.org/2000/svg" width="1116.5903mm" height="400mm" viewBox="0 0 1116.5903 400"><path d="M-34.495 328.176c-.405 0-2.282-.139-3.894-.828-3.078-1.28-4.107-2.256-9.619-7.374-2.554-2.354-15.233-15.453-17.708-18.129 2.102-2.297 12.759-12.528 14.308-14.01 2.96-2.838 4.35-4.405 6.943-5.546 1.256-.571 2.59-.876 3.489-.876.55 0 1.064-.183 1.064-.523 0-.378-.547-.517-1.39-.517-1.646 0-5.984.139-6.265.139-1.55 0-3.377-.14-4.72-.14-.623 0-1.182.13-1.197.518.021.45.562.432.843.559.402.174.562.32.591.982.071.754-1.573 2.566-3.415 4.417-2.161 2.348-12.354 12.72-14.84 15.34v-3.146c0-10.204 0-12.028.124-14.098.18-2.277.535-3.019 2.081-3.338.787-.136 1.148-.193 1.565-.193.346 0 .92-.162.925-.452 0-.61-.766-.588-1.449-.588-1.98 0-5.603.139-6.153.139-.355 0-4.045-.14-7.002-.14-.677 0-1.452-.02-1.463.59.017.289.594.451.943.451.553 0 1.68.074 2.123.184 2.025.497 2.303 1.156 2.492 3.347.134 2.07.134 3.894.134 14.098v11.5c0 6.271 0 11.443-.323 14.136-.263 1.925-.609 3.087-1.564 3.241-.577.127-1.354.257-1.88.257-.533 0-.94.201-.94.447.011.609.777.591 1.466.591 1.97 0 5.591-.142 6.076-.142.488 0 4.12.142 7.333.142.73 0 1.428.119 1.455-.591 0-.24-.408-.447-.926-.447-.544 0-1.593-.13-2.495-.266-1.706-.245-1.97-1.307-2.197-3.223-.325-2.702-.325-7.874-.325-14.145v-5.645c3.814 4.53 16.688 18.418 19.586 20.813 2.788 2.2 4.548 3.025 8.131 3.368 1.464.136 2.336.136 4.164.136h3.335c1.073 0 1.798.175 1.848-.591-.11-.757-.775-.426-1.254-.447" style="fill:#007079;fill-opacity:1;fill-rule:nonzero;stroke:none;stroke-width:2.95687" transform="matrix(2.09564 0 0 2.09564 171.166 -292.74)"/><path d="m-22.2 311.076 5.015-14.636c.027-.086.054-.157.08-.22.024.063.056.14.083.223l5.414 14.633zm27.857 17.268c-.55 0-1.369-.056-2.17-.307-1.103-.314-2.646-1.03-4.71-5.849-3.487-8.276-12.475-30.763-13.339-32.845-.686-1.65-.902-2.114-1.597-2.182-.736.086-.901.594-1.6 2.354l-12.995 33.82c-1.038 2.733-2.102 4.61-4.518 4.903-.44.05-1.239.106-1.617.106-.35 0-.852-.13-.878.382.05.683.757.482 1.457.482 2.7 0 5.86-.11 6.467-.11.6 0 3.072.11 4.47.11.5 0 1.198.044 1.216-.482 0-.34-.514-.382-.934-.382h-.565c-.887-.011-1.816-.443-1.824-1.233 0-.922.278-2.2.783-3.53l3.439-9.654c.106-.196.118-.193.237-.201h12.294c.19.032.062-.036.201.136l5.308 13.374c.083.21.115.402.115.54 0 .34-.168.456-.24.474-.505.083-.647.195-.64.423.144.514.874.328 2.06.381 3.968.103 8.146.154 9.007.154.597-.024 1.41.156 1.505-.482 0-.308-.618-.382-.932-.382M329.886 311.076l5.021-14.636c.027-.086.056-.157.083-.22.024.063.05.14.083.223l5.414 14.633zm27.863 17.268c-.55 0-1.372-.056-2.173-.307-1.094-.314-2.64-1.03-4.705-5.849-3.489-8.276-12.475-30.763-13.338-32.845-.686-1.65-.905-2.114-1.6-2.182-.736.086-.899.594-1.6 2.354l-12.995 33.82c-1.035 2.733-2.105 4.61-4.518 4.903-.435.05-1.245.106-1.617.106-.343 0-.849-.13-.879.382.054.683.757.482 1.458.482 2.7 0 5.867-.11 6.47-.11.597 0 3.072.11 4.462.11.508 0 1.2.044 1.22-.482 0-.34-.514-.382-.93-.382h-.571c-.884-.011-1.813-.443-1.822-1.233 0-.922.281-2.2.781-3.53l3.436-9.654c.115-.196.118-.193.242-.201h12.3c.181.032.06-.036.196.136l5.308 13.374c.082.21.118.402.118.54 0 .34-.169.456-.243.474-.505.083-.647.195-.644.423.142.514.875.328 2.06.381 3.969.103 8.15.154 9.013.154.598-.024 1.408.156 1.502-.482 0-.308-.612-.382-.931-.382M51.773 288.513c-2.244 0-4.075.115-4.628.115-.576 0-3.208-.115-5.665-.115-.565.02-1.357-.074-1.434.435 0 .269.278.428.78.428.412 0 1.66.057 2.59.263 1.453.397 1.772 1.269 1.86 4.84l.577 26.781c-2.259-2.41-7.581-8.344-12.457-13.56-8.389-8.983-16.508-17.963-17.315-18.87-.592-.527-1.233-1.665-2.206-1.665-.929.156-.867.99-.905 3.072l-.047 31.21c.014 5.003-.361 6.369-1.387 6.584-.769.255-1.733.314-2.138.314-.612 0-.784.195-.784.378.01.45.604.491 1.219.491 2.457 0 4.775-.118 5.224-.118.462 0 2.665.118 5.784.118 1.12 0 1.304-.204 1.322-.49 0-.184-.175-.38-.784-.38-.467 0-1.653-.058-2.628-.313-1.207-.337-1.76-1.505-1.872-5.993l-.68-25.14c2.312 2.59 7.886 8.774 13.587 14.918 5.79 6.224 13.513 14.214 14.145 14.793 2.904 2.86 3.478 3.49 4.255 3.572.867 0 .855-.7.887-4.213l.104-31.92c.038-3.33.189-4.169 1.744-4.506.636-.166.967-.166 1.233-.166.456 0 .938-.07.944-.428-.054-.485-.81-.435-1.325-.435M256.392 288.513c-2.247 0-4.078.115-4.63.115-.574 0-3.206-.115-5.666-.115-.568.02-1.357-.074-1.434.435 0 .269.284.428.79.428.402 0 1.65.057 2.584.263 1.452.397 1.768 1.269 1.86 4.84l.573 26.781c-2.259-2.41-7.581-8.344-12.46-13.56-8.389-8.983-16.508-17.963-17.31-18.87-.594-.527-1.232-1.665-2.205-1.665-.932.156-.864.99-.905 3.072l-.05 31.21c.014 5.003-.352 6.369-1.381 6.584-.766.255-1.736.314-2.144.314-.612 0-.78.195-.78.378.005.45.6.491 1.22.491 2.455 0 4.77-.118 5.22-.118.458 0 2.664.118 5.783.118 1.127 0 1.31-.204 1.322-.49 0-.184-.178-.38-.784-.38-.464 0-1.653-.058-2.631-.313-1.204-.337-1.757-1.505-1.87-5.993l-.676-25.14c2.318 2.59 7.886 8.774 13.59 14.918 5.783 6.224 13.51 14.214 14.14 14.793 2.909 2.86 3.48 3.49 4.254 3.572.867 0 .858-.7.893-4.213l.098-31.92c.044-3.33.192-4.169 1.75-4.506.633-.166.961-.166 1.227-.166.45 0 .935-.07.95-.428-.057-.485-.81-.435-1.328-.435M402.564 288.513c-2.245 0-4.072.115-4.625.115-.576 0-3.208-.115-5.671-.115-.565.02-1.354-.074-1.434.435 0 .269.284.428.786.428.408 0 1.65.057 2.585.263 1.454.397 1.774 1.269 1.862 4.84l.574 26.781c-2.256-2.41-7.578-8.344-12.457-13.56-8.389-8.983-16.508-17.963-17.31-18.87-.597-.527-1.233-1.665-2.209-1.665-.931.156-.863.99-.898 3.072l-.057 31.21c.012 5.003-.354 6.369-1.38 6.584-.77.255-1.74.314-2.141.314-.612 0-.787.195-.787.378.01.45.603.491 1.221.491 2.455 0 4.776-.118 5.225-.118.461 0 2.661.118 5.784.118 1.123 0 1.304-.204 1.319-.49 0-.184-.175-.38-.781-.38-.467 0-1.656-.058-2.632-.313-1.206-.337-1.756-1.505-1.868-5.993l-.68-25.14c2.315 2.59 7.885 8.774 13.586 14.918 5.787 6.224 13.513 14.214 14.149 14.793 2.9 2.86 3.474 3.49 4.249 3.572.87 0 .86-.7.89-4.213l.104-31.92c.038-3.33.192-4.169 1.747-4.506.63-.166.958-.166 1.23-.166.45 0 .934-.07.943-.428-.05-.485-.81-.435-1.324-.435M98.455 309.266c-1.644 0-5.095.16-5.334.16-.249 0-3.705-.16-6.157-.16-.57 0-1.215.118-1.22.49.011.243.493.376.783.376.461-.009 1.401.056 1.768.154 2.04.627 2.114.79 2.194 5.275v9.26c-.015.838-.305 1.257-.91 1.603-1.296.763-4.126 1.115-6.048 1.106-4.937-.009-9.79-1.6-14.027-5.739-1.845-1.783-5.674-7.28-5.671-14.832-.003-6.295 2.215-11.156 5.263-13.566 4.057-3.205 8.034-3.518 11.44-3.518 6.946-.018 11.275 2.335 12.51 4.249.77 1.227 1.036 2.72 1.092 3.435.065.408.023 1.08.426 1.136.431-.01.544-.674.544-1.487 0-5.453.378-6.896.384-7.736.041-.37-.056-.828-.668-.83-1.363-.06-2.978-.284-4.072-.539-1.064-.224-4.938-.943-8.415-.943-4.217 0-9.68.382-14.678 3.486-4.944 3.114-9.255 9.377-9.255 18.218.003 6.916 3.193 12.818 6.597 15.783 6.162 5.376 13.986 5.908 18.149 5.914 3.202-.006 8.134-.603 11.712-2.49.787-.425.929-.884.887-3.25v-6.102c0-2.289 0-3.915.113-5.645.15-1.895.443-2.516 1.73-2.782.653-.116.954-.16 1.3-.16.284 0 .772-.133.787-.375-.009-.373-.65-.491-1.224-.491M162.74 288.513c-1.701 0-4.07.112-4.41.112-.458 0-2.776-.112-5.555-.112-.612 0-1.251.068-1.272.432.006.343.435.44.831.44 2.504.06 2.73.52 2.759 1.286 0 .678-.045 1.387-.592 3.398-1.818 6.659-6.493 21.446-8.178 27.09l-10.6-30.227c-.71-1.83-.846-2.635-1.692-2.795-.695.095-.858.556-1.682 2.738l-11.242 30.231c-1.343-4.76-6.302-22.285-7.059-25.508-.54-2.38-1.029-4.332-1.023-4.927 0-.582.308-.896.518-1.002.53-.269 1.546-.296 1.978-.284.26 0 .887-.092.887-.44-.032-.432-.408-.432-1.277-.432-2.732 0-5.204.112-5.666.112-.567 0-3.64-.112-6.478-.112-.509 0-1.124.038-1.156.432 0 .298.508.44.783.44.346-.012 1.771.06 2.375.293 1.31.523 1.895 1.153 2.785 4.033l9.693 32.298c1.12 3.658 1.26 4.42 2.247 4.554.993-.068 1.248-.879 2.114-3.117 1.878-4.852 8.8-23.342 11.106-29.489l10.408 29.545c.793 2.079 1.017 2.957 1.964 3.06 1.034-.133 1.167-.93 2.616-4.917 2.126-6.109 7.632-23.427 10.024-30.343 1.017-3.007 1.934-5.195 3.333-5.668.508-.19 1.552-.26 1.732-.249.444 0 .834-.195.834-.49-.056-.477-.642-.376-1.106-.382M187.489 327.801c4.796-.041 14.663-2.667 14.69-18.335-.018-12.934-7.807-19.75-16.219-19.761-8.93.032-15.526 5.783-15.553 17.578.012 12.558 7.487 20.51 17.082 20.518m-1.142-40.64c12.399.022 21.73 7.896 21.751 20.773-.02 12.366-8.758 22.608-22.082 22.629-15.139-.02-21.46-11.822-21.472-21.757.014-8.962 6.54-21.644 21.803-21.644M314.221 320.192c-.426 0-.615.71-.656 1.21-.163 1.147-.807 2.761-1.606 3.71-1.369 1.695-4.104 1.822-7.587 1.81-5.092.01-12.54-.485-13.424-1.38-.964-.843-1.358-5.104-1.322-14.679v-11.818c0-10.207 0-12.029.13-14.099.186-2.285.509-3.004 2.209-3.34a14.899 14.899 0 0 1 2.087-.193c.346 0 .923-.16.935-.45-.003-.449-.784-.603-1.46-.603-1.967 0-6.565.207-6.86.207-.302 0-4.256-.207-7.2-.207-.687 0-1.462.154-1.462.603.012.29.592.45.938.45.553 0 1.676.077 2.12.183 2.022.488 2.303 1.156 2.495 3.35.136 2.07.136 3.892.136 14.099v11.496c0 6.272 0 11.437-.328 14.14-.26 1.922-.603 3.087-1.573 3.238-.567.13-1.342.25-1.869.25-.523 0-.937.365-.937.46 0 .449.769.579 1.464.579 1.966 0 5.653-.19 6.215-.19 3.755 0 13.78.385 23.197.385.278.006.523.018.766.018 2.732 0 2.679.112 3.045-1.372.547-1.987.997-5.654.997-6.455 0-.627-.03-1.39-.45-1.402M445.542 310.01c.018 4.936-1.529 10.099-4.249 12.763-3.146 3.146-7.747 4.98-12.73 4.98-6.398.008-8.406-1.175-8.973-2.032-.323-.382-.5-2.638-.539-3.96-.059-1.017-.106-6.04-.106-11.806v-6.763c0-4.187 0-9.749.047-11.59.042-.55.06-.565.45-.781.269-.163 2.368-.364 3.406-.352 6.46.009 12.534.763 17.564 6.047 2.185 2.306 5.13 6.673 5.13 13.495m.21-15.772c-5.787-5.973-14.205-5.736-19.823-5.745-.822 0-1.579.017-2.262.017-3.279 0-6.724.065-7.357.065-.245 0-3.693-.065-6.159-.065-.57 0-1.212-.017-1.212.494.015.37.473.37.79.37.455 0 1.39.062 1.753.16 1.688.408 1.93.96 2.087 2.794.107 1.72.107 3.229.107 11.738v9.59c0 5.227 0 9.53-.272 11.777-.207 1.597-.5 2.57-1.301 2.7-.476.106-1.12.21-1.564.21-.45 0-.787.177-.787.378.01.497.65.49 1.224.49 1.641 0 5.089-.064 5.334-.064.491 0 7.39.55 12.1.55h.024c9.337 0 14.34-3.28 16.727-5.784 3.104-3.27 5.978-8.634 5.978-15.592 0-6.582-2.605-11.197-5.387-14.083M292.634 199.278l-4.255-10.588c-65.489 0-71.302-27.606-103.644-27.606-32.34 0-38.15 27.606-103.636 27.606l-4.26 10.588c68.226 0 75.231-35.095 107.896-35.095 32.667 0 39.669 35.095 107.899 35.095M263.796 160.962l-2.215-7.052c-51.145 0-54.812-14.22-76.846-14.22-22.038 0-25.701 14.22-76.843 14.22l-2.221 7.052c49.578 0 53.827-18.383 79.064-18.383 25.24 0 29.492 18.383 79.06 18.383" style="fill:#007079;fill-opacity:1;fill-rule:nonzero;stroke:none;stroke-width:2.95687" transform="matrix(2.09564 0 0 2.09564 171.166 -292.74)"/><path d="m277.012 178.522-2.611-7.927c-56.683-.009-60.9-20.343-89.667-20.343-28.77 0-32.987 20.334-89.661 20.343l-2.62 7.927c58.584 0 63.23-25.34 92.28-25.352 29.052.012 33.697 25.352 92.279 25.352M326.202 238.003c-90.566 0-99.913-51.508-141.469-51.508-41.553 0-50.902 51.508-141.465 51.508L37.39 251.7c96.633 0 107.692-61.59 147.343-61.59 39.655 0 50.717 61.59 147.338 61.59z" style="fill:#007079;fill-opacity:1;fill-rule:nonzero;stroke:none;stroke-width:2.95687" transform="matrix(2.09564 0 0 2.09564 171.166 -292.74)"/><path d="m309.93 222.265-4.255-10.967c-77.346 0-84.129-38.094-120.942-38.094-36.807 0-43.59 38.094-120.942 38.094l-4.249 10.967c80.41 0 87.988-45.314 125.191-45.314 37.207 0 44.785 45.314 125.197 45.314" style="fill:#007079;fill-opacity:1;fill-rule:nonzero;stroke:none;stroke-width:2.95687" transform="matrix(2.09564 0 0 2.09564 171.166 -292.74)"/></svg>