<svg xmlns="http://www.w3.org/2000/svg" width="1146.199mm" height="200mm" viewBox="0 0 1146.199 200"><defs><linearGradient id="a" x1="0" x2="1" y1="0" y2="0" gradientTransform="rotate(-90 15.071 248.788) scale(200.75976)" gradientUnits="userSpaceOnUse" spreadMethod="pad"><stop offset="0" style="stop-opacity:1;stop-color:#004299"/><stop offset="0.229996" style="stop-opacity:1;stop-color:#004299"/><stop offset="0.89412462" style="stop-opacity:1;stop-color:#00a1e9"/><stop offset="1" style="stop-opacity:1;stop-color:#00a1e9"/></linearGradient></defs><path d="M-283.66 165.298c0 55.233 44.72 100 99.883 100l-.003-52.82c-8.858-12.023-14.281-27.993-14.281-45.523 0-11.582 2.36-22.486 6.507-32.017h.009c4.677-10.11 6.43-25.957 6.43-42.818l-.081-26.82c-54.509.758-98.464 45.236-98.464 99.998" style="fill:url(#a);stroke:none;stroke-width:2.92176" transform="translate(283.663 -65.301) scale(1.00001)"/><path d="M-182.364 65.3c54.508.76 98.46 45.235 98.46 99.997 0 55.233-44.71 100.001-99.873 100.001l-.003-52.82c8.856-12.02 14.284-27.993 14.284-45.521 0-11.585-2.364-22.489-6.516-32.02h-.003c-4.677-10.106-6.44-25.956-6.44-42.815z" style="fill:#004299;fill-opacity:1;fill-rule:nonzero;stroke:none;stroke-width:2.92176" transform="translate(283.663 -65.301) scale(1.00001)"/><path d="M14.034 140.296c-6.083 0-11.018-4.93-11.018-11.01 0-6.083 4.935-11.012 11.018-11.012 6.077 0 11.012 4.93 11.012 11.012 0 6.08-4.935 11.01-11.012 11.01m61.798-19.176v-14.167c.003-.07.024-.132.024-.196 0-4.38-3.685-7.924-8.228-7.924-.123 0-.24.026-.357.032H-.349v-6.997h-17.002v22.082h8.636c-2.445 4.026-3.877 8.736-3.877 13.79 0 14.72 11.936 26.653 26.65 26.653 14.72 0 26.649-11.932 26.649-26.652 0-5.01-1.406-9.674-3.813-13.68h21.928v52.773H.76v-10.159h-16.298v17.02h.03v.02c0 4.867 3.29 8.815 7.347 8.815H75.832V136.2H87.73v-15.08zM195.436 159.944c-.012-4.48-3.448-8.102-7.772-8.4v-.068H158.92v-11.23h35.844v-33.212c.003-.114.04-.231.04-.345 0-4-3.93-7.24-8.776-7.24H104.41v15.023h73.997v11.237h-75.314v14.536h36.665v11.231h-36.341v14.533h75.492v15.693h16.526zM264.742 105.24c-.015-3.745-3.574-6.79-7.97-6.79-.018 0-.045.009-.07.012v-.012h-44.76v14.375h36.14v24.093c-4.59 26.45-28.376 24.303-37.793 24.797v15.035c47.736 2.808 54.178-29.24 54.453-39.832zM312.334 98.293h-21.589c-.21-.018-.409-.062-.622-.062-4.473 0-8.108 3.539-8.108 7.9 0 .027.006.056.006.086h-.044v74.99h16.187V112.88h14.17zM369.856 120.089c5.12 7.766 21.805 13.381 31.877 13.381h12.721v-15.196h-14.04c-15.698-.163-21.638-10.243-21.638-15.526 0-5.288-.166-7.433-.166-7.433H360.6v7.763c-.33 9.58-13.536 15.363-21.96 15.363-8.432 0-13.884.16-13.884.16v14.87h13.212c11.237 0 26.591-5.78 31.888-13.382m-45.76 56.825h91.836v-14.869h-91.836zM503.926 180.129h16.195V96.39h-16.195zm-25.811-81.68c-.025 0-.041.008-.075.008v-.009h-44.758v14.375h36.136v24.093c-4.59 26.45-28.373 24.306-37.796 24.8v15.032c47.748 2.808 54.184-29.24 54.46-39.832v-31.675c-.017-3.748-3.58-6.793-7.969-6.793M634.806 132.643v-11.23h-96.634v11.23h39.476v4.129h-36.166v10.737h75.268v4.955h-75.612v18.516c-.012.198-.05.391-.05.593 0 4.651 3.503 8.423 7.818 8.423v.059h84.246v-11.898h-75.264v-5.452h75.092v-18.91h-.012c-.055-3.888-3.208-7.023-7.094-7.023H595.92v-4.129zm-47.905-25.106c4.295 6.112 13.043 9.253 26.757 9.253h18.992v-13.712H609.2c-11.24-.99-13.388-12.388-13.388-12.388l-18.164-.041c0 6.773-8.096 12.43-14.042 12.43h-22.793v13.544s13.543 0 22.626-.163c9.093-.167 19.667-2.811 23.462-8.923M698.092 172.28c-7.562 0-13.686-6.132-13.686-13.7 0-7.564 6.124-13.696 13.686-13.696 7.55 0 13.685 6.132 13.685 13.697 0 7.567-6.136 13.7-13.685 13.7m37.45-75.7H651.87v15.196h77.295v17.51h-27.523V116.95h-18.716v12.338h-34.36v13.437h22.237c-3.395 4.474-5.387 9.826-5.387 15.591 0 15.678 14.65 28.394 32.723 28.394 18.071 0 32.721-12.716 32.721-28.394 0-5.765-1.993-11.117-5.388-15.59h20.003v-37.387c0-6.305-5.353-8.757-9.931-8.757M862.526 98.49h-23.8v.037c-.06-.003-.1-.017-.144-.017-4.12 0-7.453 4.193-7.47 9.379v48.36c-12.839.082-29.397-12.192-30.615-37.614V99.302H783.01v13.492c-.017.243-.035.447-.043.693-1.616 30.862-12.225 38.815-29.732 43.11l1.978 16.02c17.674-2.477 27.426-9.25 36.67-24.613 6.844 14.17 21.555 25.27 39.228 25.738v8.158h17.326v-69.48h14.089zM-12.059 228.716V197.8h5.949v13.717l12.075-13.717h7.991L2.827 209.83l11.693 18.886H6.842l-8.123-14.536-4.83 5.192v9.344zM22.454 213.234c0 3.527.772 6.197 2.314 8.02 1.54 1.815 3.498 2.726 5.867 2.726 2.376 0 4.324-.905 5.838-2.708 1.522-1.803 2.285-4.511 2.285-8.126 0-3.567-.745-6.22-2.22-7.979-1.482-1.753-3.448-2.632-5.903-2.632-2.451 0-4.426.894-5.925 2.667-1.505 1.774-2.256 4.453-2.256 8.032m-6.086.22c0-3.168.447-5.815 1.341-7.96.67-1.58 1.581-3 2.732-4.25 1.157-1.26 2.422-2.192 3.799-2.8 1.829-.82 3.941-1.224 6.325-1.224 4.327 0 7.792 1.42 10.387 4.254 2.6 2.831 3.898 6.773 3.898 11.827 0 5.008-1.292 8.92-3.869 11.752-2.58 2.825-6.022 4.242-10.328 4.242-4.371 0-7.845-1.402-10.42-4.22-2.573-2.816-3.865-6.696-3.865-11.622M55.465 210.892h4.374c2.834 0 4.608-.126 5.315-.383a3.204 3.204 0 0 0 1.65-1.309c.407-.62.602-1.397.602-2.326 0-1.043-.26-1.884-.788-2.527-.526-.64-1.268-1.04-2.224-1.213-.482-.073-1.92-.108-4.315-.108h-4.614zm-5.951 17.825v-30.915h12.46c3.136 0 5.412.272 6.832.833 1.42.555 2.562 1.54 3.407 2.96.856 1.423 1.282 3.044 1.282 4.87 0 2.32-.642 4.24-1.934 5.744-1.285 1.514-3.217 2.466-5.785 2.855 1.277.792 2.335 1.654 3.167 2.6.83.938 1.955 2.615 3.366 5.02l3.576 6.033h-7.09l-4.255-6.731c-1.522-2.408-2.562-3.921-3.12-4.544-.561-.628-1.157-1.057-1.783-1.288-.622-.234-1.612-.348-2.974-.348h-1.198v12.911zM79.16 228.716V197.8h21.732v5.224H85.106v6.84H99.77v5.227H85.106v8.394h16.344v5.23zM122.13 216.475l-4.093-11.48-3.97 11.48zm10.872 12.24h-6.407l-2.524-7.015h-11.816l-2.425 7.015h-6.29l11.386-30.915h6.281zM159.741 217.363v-5.221h12.742v12.382c-1.245 1.262-3.044 2.375-5.397 3.33-2.357.962-4.742 1.441-7.16 1.441-3.069 0-5.742-.678-8.024-2.042-2.285-1.359-4.003-3.305-5.148-5.838-1.145-2.53-1.724-5.285-1.724-8.268 0-3.226.646-6.095 1.923-8.608 1.28-2.51 3.155-4.435 5.63-5.773 1.882-1.034 4.222-1.549 7.02-1.549 3.65 0 6.499.807 8.544 2.41 2.048 1.608 3.369 3.828 3.96 6.66l-5.906 1.162c-.412-1.516-1.192-2.717-2.331-3.593-1.14-.88-2.572-1.321-4.28-1.321-2.59 0-4.65.87-6.171 2.609-1.534 1.744-2.297 4.327-2.297 7.751 0 3.694.78 6.472 2.332 8.313 1.557 1.85 3.587 2.773 6.106 2.773 1.245 0 2.498-.258 3.749-.775 1.247-.523 2.325-1.148 3.22-1.887v-3.956zM193.581 216.475l-4.09-11.48-3.971 11.48zm10.88 12.24h-6.413l-2.53-7.015h-11.81l-2.425 7.015h-6.287l11.377-30.915h6.285zM206.135 218.664l5.765-.582c.342 2.043 1.04 3.547 2.095 4.503 1.052.964 2.48 1.437 4.26 1.437 1.899 0 3.328-.426 4.286-1.28.964-.85 1.443-1.852 1.443-2.988 0-.737-.204-1.362-.61-1.879-.395-.511-1.108-.958-2.11-1.341-.692-.248-2.25-.707-4.704-1.356-3.146-.833-5.352-1.855-6.617-3.07-1.789-1.707-2.683-3.784-2.683-6.239 0-1.58.418-3.059 1.265-4.429.845-1.379 2.054-2.428 3.644-3.144 1.58-.718 3.5-1.078 5.738-1.078 3.658 0 6.422.856 8.266 2.568 1.852 1.713 2.816 4 2.913 6.86l-5.949.223c-.248-1.59-.783-2.73-1.604-3.43-.824-.69-2.057-1.038-3.693-1.038-1.7 0-3.021.371-3.982 1.116-.617.48-.927 1.122-.927 1.926 0 .73.29 1.35.871 1.876.74.666 2.542 1.352 5.408 2.071 2.852.719 4.97 1.467 6.343 2.238a8.407 8.407 0 0 1 3.217 3.147c.777 1.338 1.163 2.977 1.163 4.94 0 1.78-.47 3.44-1.4 4.991-.926 1.549-2.25 2.7-3.952 3.454-1.704.753-3.825 1.136-6.364 1.136-3.705 0-6.542-.909-8.526-2.717-1.984-1.815-3.17-4.447-3.556-7.915M253.026 228.716v-25.691h-8.677V197.8h23.286v5.224h-8.666v25.69zM271.493 228.716V197.8h21.734v5.224h-15.783v6.84h14.667v5.227h-14.667v8.394h16.341v5.23zM317.704 217.363l5.759 1.878c-.88 3.39-2.358 5.9-4.406 7.544-2.066 1.645-4.672 2.466-7.833 2.466-3.918 0-7.13-1.405-9.65-4.219-2.525-2.807-3.779-6.652-3.779-11.523 0-5.151 1.263-9.163 3.793-12.011 2.536-2.852 5.867-4.28 9.99-4.28 3.602 0 6.532 1.112 8.78 3.345 1.34 1.317 2.34 3.214 3.011 5.683l-5.852 1.47c-.356-1.602-1.08-2.861-2.191-3.79-1.113-.93-2.46-1.391-4.05-1.391-2.194 0-3.982.83-5.344 2.478-1.358 1.656-2.048 4.33-2.048 8.029 0 3.932.672 6.725 2.02 8.394 1.34 1.662 3.087 2.5 5.25 2.5 1.574 0 2.95-.531 4.081-1.589 1.151-1.052 1.972-2.714 2.47-4.984M328.512 228.716V197.8h5.952v12.146h11.608V197.8h5.958v30.915h-5.958v-13.54h-11.608v13.54zM358.164 228.716V197.8h5.741l12.149 20.776v-20.776h5.484v30.915h-5.928l-11.968-20.376v20.376zM392.683 213.234c0 3.527.77 6.197 2.305 8.02 1.54 1.815 3.497 2.726 5.873 2.726 2.366 0 4.318-.905 5.831-2.708 1.523-1.803 2.288-4.511 2.288-8.126 0-3.567-.742-6.22-2.226-7.979-1.476-1.753-3.445-2.632-5.893-2.632-2.455 0-4.436.894-5.935 2.667-1.501 1.774-2.243 4.453-2.243 8.032m-6.09.22c0-3.168.445-5.815 1.342-7.96.657-1.58 1.575-3 2.729-4.25 1.157-1.26 2.419-2.192 3.798-2.8 1.826-.82 3.938-1.224 6.323-1.224 4.333 0 7.789 1.42 10.386 4.254 2.598 2.831 3.892 6.773 3.892 11.827 0 5.008-1.288 8.92-3.862 11.752-2.574 2.825-6.022 4.242-10.329 4.242-4.37 0-7.842-1.402-10.416-4.22-2.574-2.816-3.862-6.696-3.862-11.622M419.869 228.716v-30.693h5.951v25.463h14.711v5.23zM449.68 213.234c0 3.527.77 6.197 2.316 8.02 1.534 1.815 3.492 2.726 5.867 2.726 2.373 0 4.313-.905 5.832-2.708 1.534-1.803 2.276-4.511 2.276-8.126 0-3.567-.73-6.22-2.209-7.979-1.487-1.753-3.444-2.632-5.899-2.632-2.454 0-4.435.894-5.925 2.667-1.51 1.774-2.258 4.453-2.258 8.032m-6.084.22c0-3.168.439-5.815 1.336-7.96.678-1.58 1.58-3 2.737-4.25 1.149-1.26 2.423-2.192 3.79-2.8 1.826-.82 3.938-1.224 6.334-1.224 4.327 0 7.778 1.42 10.387 4.254 2.598 2.831 3.892 6.773 3.892 11.827 0 5.008-1.289 8.92-3.869 11.752-2.58 2.825-6.021 4.242-10.334 4.242-4.359 0-7.836-1.402-10.41-4.22-2.58-2.816-3.863-6.696-3.863-11.622M490.413 217.363v-5.221h12.742v12.382c-1.242 1.262-3.042 2.375-5.397 3.33-2.358.962-4.736 1.441-7.152 1.441-3.068 0-5.75-.678-8.035-2.042-2.282-1.359-4-3.305-5.151-5.838-1.143-2.53-1.718-5.285-1.718-8.268 0-3.226.646-6.095 1.934-8.608 1.271-2.51 3.15-4.435 5.616-5.773 1.887-1.034 4.227-1.549 7.035-1.549 3.64 0 6.484.807 8.538 2.41 2.048 1.608 3.366 3.828 3.959 6.66l-5.9 1.162c-.423-1.516-1.191-2.717-2.34-3.593-1.142-.88-2.562-1.321-4.274-1.321-2.592 0-4.652.87-6.186 2.609-1.519 1.744-2.293 4.327-2.293 7.751 0 3.694.78 6.472 2.328 8.313 1.558 1.85 3.594 2.773 6.122 2.773 1.233 0 2.483-.258 3.74-.775 1.253-.523 2.328-1.148 3.228-1.887v-3.956zM516.355 228.716v-13.014l-10.758-17.901h6.95l6.914 12.245 6.755-12.245h6.83l-10.751 17.948v12.967zM567.52 217.523l5.759 1.872c-.885 3.393-2.352 5.9-4.406 7.55-2.06 1.642-4.67 2.463-7.83 2.463-3.916 0-7.132-1.402-9.651-4.213-2.521-2.81-3.778-6.656-3.778-11.53 0-5.153 1.257-9.159 3.79-12.01 2.53-2.852 5.86-4.28 9.992-4.28 3.608 0 6.53 1.115 8.777 3.345 1.341 1.314 2.34 3.21 3.012 5.682l-5.852 1.473c-.35-1.601-1.081-2.863-2.191-3.792-1.108-.93-2.46-1.391-4.041-1.391-2.209 0-3.985.827-5.353 2.475-1.364 1.656-2.045 4.332-2.045 8.034 0 3.93.67 6.72 2.022 8.389 1.341 1.668 3.088 2.5 5.239 2.5 1.586 0 2.95-.531 4.096-1.586 1.142-1.049 1.963-2.717 2.46-4.981M583.207 213.394c0 3.524.772 6.194 2.311 8.02 1.54 1.815 3.498 2.723 5.861 2.723 2.379 0 4.325-.908 5.844-2.705 1.528-1.806 2.294-4.514 2.294-8.126 0-3.567-.748-6.226-2.239-7.982-1.47-1.75-3.438-2.633-5.899-2.633-2.442 0-4.423.895-5.922 2.668-1.502 1.776-2.25 4.453-2.25 8.035m-6.089.213c0-3.164.444-5.808 1.341-7.956.664-1.578 1.581-3 2.735-4.254 1.151-1.256 2.42-2.185 3.793-2.796 1.82-.818 3.938-1.227 6.322-1.227 4.333 0 7.79 1.42 10.387 4.263 2.603 2.825 3.904 6.77 3.904 11.821 0 5.005-1.289 8.926-3.875 11.749-2.58 2.828-6.01 4.245-10.328 4.245-4.365 0-7.836-1.403-10.41-4.22-2.586-2.813-3.869-6.693-3.869-11.625M616.214 211.043h4.371c2.837 0 4.616-.12 5.312-.377a3.246 3.246 0 0 0 1.662-1.31c.4-.624.593-1.399.593-2.328 0-1.04-.263-1.884-.783-2.521-.523-.646-1.265-1.046-2.223-1.216-.48-.076-1.926-.108-4.316-.108h-4.616zm-5.946 17.831v-30.918h12.459c3.132 0 5.408.278 6.828.839 1.417.552 2.556 1.54 3.412 2.96.85 1.417 1.28 3.041 1.28 4.867 0 2.317-.64 4.237-1.934 5.744-1.291 1.51-3.22 2.463-5.788 2.858 1.28.786 2.329 1.653 3.167 2.594.833.944 1.952 2.621 3.363 5.023l3.582 6.033h-7.091l-4.254-6.734c-1.522-2.402-2.562-3.916-3.126-4.544-.553-.625-1.146-1.055-1.774-1.282-.622-.24-1.621-.348-2.98-.348h-1.198v12.908zM645.854 203.182v8.806h3.24c2.34 0 3.898-.163 4.692-.485.78-.333 1.397-.835 1.844-1.53.45-.69.678-1.49.678-2.408 0-1.131-.324-2.057-.947-2.794a4.062 4.062 0 0 0-2.381-1.373c-.707-.149-2.127-.216-4.257-.216zm-5.94 25.691v-30.915h9.501c3.606 0 5.958.158 7.054.465 1.677.461 3.082 1.472 4.221 3.024 1.137 1.557 1.7 3.564 1.7 6.015 0 1.905-.33 3.5-.98 4.795-.65 1.289-1.485 2.308-2.487 3.047-1.011.734-2.028 1.228-3.065 1.47-1.417.292-3.465.435-6.147.435h-3.857v11.664zM672.155 213.394c0 3.524.772 6.194 2.317 8.02 1.534 1.815 3.498 2.723 5.873 2.723 2.355 0 4.307-.908 5.838-2.705 1.516-1.806 2.276-4.514 2.276-8.126 0-3.567-.742-6.226-2.22-7.982-1.482-1.75-3.445-2.633-5.894-2.633-2.46 0-4.435.895-5.937 2.668-1.499 1.776-2.253 4.453-2.253 8.035m-6.083.213c0-3.164.444-5.808 1.341-7.956.667-1.578 1.581-3 2.738-4.254 1.148-1.256 2.416-2.185 3.79-2.796 1.837-.818 3.944-1.227 6.328-1.227 4.327 0 7.784 1.42 10.381 4.263 2.592 2.825 3.892 6.77 3.892 11.821 0 5.005-1.289 8.926-3.857 11.749-2.586 2.828-6.022 4.245-10.334 4.245-4.365 0-7.836-1.403-10.41-4.22-2.586-2.813-3.869-6.693-3.869-11.625M705.168 211.043h4.37c2.832 0 4.605-.12 5.312-.377a3.2 3.2 0 0 0 1.663-1.31c.403-.624.599-1.399.599-2.328 0-1.04-.269-1.884-.789-2.521-.529-.646-1.277-1.046-2.223-1.216-.485-.076-1.926-.108-4.322-.108h-4.61zm-5.952 17.831v-30.918h12.459c3.143 0 5.414.278 6.84.839 1.416.552 2.55 1.54 3.406 2.96.85 1.417 1.274 3.041 1.274 4.867 0 2.317-.652 4.237-1.934 5.744-1.286 1.51-3.226 2.463-5.782 2.858 1.274.786 2.328 1.653 3.167 2.594.827.944 1.952 2.621 3.369 5.023l3.57 6.033h-7.091l-4.254-6.734c-1.522-2.402-2.565-3.916-3.12-4.544-.553-.625-1.146-1.055-1.768-1.282-.634-.24-1.622-.348-2.98-.348h-1.204v12.908zM744.452 216.632l-4.09-11.482-3.974 11.482zm10.877 12.24h-6.41l-2.527-7.013h-11.819l-2.419 7.013h-6.3l11.396-30.916h6.278zM762.062 228.873v-25.691h-8.669v-5.224h23.278v5.224h-8.669v25.69zM780.341 197.957h5.958v30.915h-5.958zM796.81 213.394c0 3.524.77 6.194 2.304 8.02 1.546 1.815 3.498 2.723 5.873 2.723 2.373 0 4.313-.908 5.838-2.705 1.516-1.806 2.282-4.514 2.282-8.126 0-3.567-.748-6.226-2.215-7.982-1.487-1.75-3.45-2.633-5.905-2.633-2.454 0-4.435.895-5.928 2.668-1.502 1.776-2.25 4.453-2.25 8.035m-6.095.213c0-3.164.45-5.808 1.342-7.956.674-1.578 1.586-3 2.74-4.254 1.151-1.256 2.413-2.185 3.793-2.796 1.826-.818 3.932-1.227 6.334-1.227 4.321 0 7.778 1.42 10.375 4.263 2.598 2.825 3.898 6.77 3.898 11.821 0 5.005-1.283 8.926-3.863 11.749-2.586 2.828-6.022 4.245-10.334 4.245-4.365 0-7.842-1.403-10.422-4.22-2.574-2.813-3.863-6.693-3.863-11.625M823.87 228.873v-30.915h5.74l12.15 20.776v-20.776h5.478v30.915h-5.923l-11.967-20.377v20.377z" style="fill:#221e1f;fill-opacity:1;fill-rule:nonzero;stroke:none;stroke-width:2.92176" transform="translate(283.663 -65.301) scale(1.00001)"/></svg>