<svg xmlns="http://www.w3.org/2000/svg" width="374.98975pt" height="375pt" viewBox="0 0 374.98975 375"><path fill="#006333" d="M1110.22 257.957c0 103.524-83.942 187.504-187.531 187.504-103.503 0-187.459-83.98-187.459-187.504 0-103.537 83.956-187.496 187.459-187.496 103.589 0 187.53 83.959 187.53 187.496" style="stroke-width:3.43363" transform="translate(-735.23 -70.46)"/><path fill="#c9cbcc" d="M1065.885 258.496c0 79.928-64.79 144.714-144.762 144.714-79.942 0-144.765-64.786-144.765-144.714 0-79.948 64.823-144.748 144.765-144.748 79.973 0 144.762 64.8 144.762 144.748" style="stroke-width:3.43363" transform="translate(-735.23 -70.46)"/><path fill="#fff" d="m792.417 349.106 2.067 2.723-5.497 4.151 9.363.99 2.74 3.587-9.617-1.304-3.465 11.664-2.695-3.592 2.695-8.484-2.359-.31-4.457 3.359-2.073-2.737 13.298-10.047" style="stroke-width:3.43363" transform="translate(-735.23 -70.46)"/><path fill="#fff" d="M798.663 376.623c1.294-.12 2.62-.783 4.024-2.04 1.408-1.246 2.19-2.544 2.359-3.828.226-1.28-.1-2.448-1.037-3.44-.934-1.023-2.053-1.535-3.355-1.429-1.305.083-2.675.766-4.038 2.02-1.38 1.266-2.183 2.56-2.386 3.842-.165 1.3.172 2.468 1.106 3.474.934.993 2.053 1.477 3.327 1.401m-.395 3.286c-1.813-.048-3.52-.934-5.116-2.709-1.58-1.748-2.373-3.54-2.25-5.353.045-2.297 1.161-4.498 3.376-6.49 2.29-2.06 4.526-2.997 6.805-2.77 1.78.055 3.496.958 5.113 2.709 1.593 1.792 2.366 3.554 2.232 5.353 0 2.293-1.116 4.474-3.382 6.52-2.208 1.995-4.488 2.915-6.778 2.74M811.741 375.854l-3.042 3.31 2.771 2.51c.56.498.99.852 1.422.948.72.185 1.383-.038 2.005-.714.67-.739.89-1.446.67-2.153-.145-.395-.481-.804-.976-1.274zm6.967 3.063c.289.584.409 1.198.375 1.899a4.947 4.947 0 0 1-.347 1.59 4.731 4.731 0 0 1-.934 1.53 5.015 5.015 0 0 1-2.03 1.295c-.817.306-1.644.234-2.558-.137.368.759.481 1.442.306 2.074-.137.649-.604 1.394-1.377 2.26l-.738.803c-.543.573-.865.982-1 1.226-.236.357-.26.752-.192 1.153l-.25.268-2.86-2.54c.175-.396.312-.66.46-.842.24-.398.504-.8.855-1.17l1.037-1.158c.69-.766 1.026-1.415 1.013-1.937-.01-.5-.385-1.095-1.11-1.734l-2.503-2.29-4.402 4.821-2.544-2.304 11.256-12.31 5.885 5.384c.834.804 1.397 1.487 1.658 2.119M829.4 390.588l-6.994-5.374-2.142 2.802 6.4 4.938-1.775 2.3-6.41-4.917-2.63 3.348 7.35 5.662-1.86 2.373-10.006-7.73 10.19-13.215 9.69 7.512-1.812 2.3M829.747 399.728l3.602 2.29 1.762-6.654zm5.83-8.611 3.324 2.135-4.1 17.213-3.169-2.067.924-3.475-5.168-3.344-2.798 2.294-3.056-1.971 14.044-10.785M847.983 401.833l-4.872 9.752 2.874 1.414c1.466.735 2.864.515 4.172-.635.707-.646 1.342-1.525 1.881-2.6.735-1.49 1.123-2.815 1.034-3.89-.086-1.023-.814-1.888-2.222-2.616zm6.823.587c.876.838 1.397 1.93 1.59 3.142.161.996.096 1.991-.11 2.963-.271.958-.563 1.81-.958 2.593-.989 1.977-2.256 3.457-3.719 4.463-2.005 1.295-4.158 1.415-6.383.268l-6.431-3.197 7.427-14.902 6.441 3.18c.93.48 1.645.996 2.143 1.49M869.1 411.23l-8.144-3.25-1.309 3.275 7.496 2.98-1.04 2.7-7.578-2.985-1.566 3.98 8.587 3.4-1.112 2.804-11.747-4.69 6.178-15.479 11.351 4.526-1.116 2.74" style="stroke-width:3.43363" transform="translate(-735.23 -70.46)"/><path fill="#fff" d="m879.933 411.475 3.434 1.054-10.339 14.256-3.135-.972-.515-17.57 3.599 1.086-.313 13.16 7.27-11.014" style="stroke-width:3.43363" transform="translate(-735.23 -70.46)"/><path fill="#fff" d="m894.155 417.834-8.611-1.882-.776 3.458 7.907 1.737-.635 2.843-7.887-1.778-.95 4.202 9.016 2.002-.639 2.943-12.316-2.733 3.581-16.32 11.949 2.664-.639 2.864M895.34 415.042l3.444.464-1.913 13.563 8.248 1.17-.419 2.953-11.712-1.655 2.352-16.495M916.48 429.913c.852-.954 1.326-2.383 1.43-4.254.15-1.871-.183-3.334-.952-4.399-.752-1.06-1.785-1.655-3.186-1.71-1.384-.106-2.486.35-3.352 1.322-.9.979-1.376 2.387-1.528 4.234-.079 1.91.244 3.386 1.024 4.45.769 1.058 1.844 1.617 3.203 1.703 1.363.1 2.469-.357 3.362-1.346m2.015 2.644c-1.325 1.257-3.18 1.789-5.562 1.645-2.38-.12-4.145-.89-5.343-2.26-1.583-1.675-2.328-4.027-2.129-7.018.182-3.032 1.157-5.277 2.936-6.695 1.315-1.233 3.176-1.79 5.556-1.652 2.383.13 4.15.896 5.36 2.256 1.582 1.651 2.273 3.983 2.121 7.018-.181 2.998-1.164 5.23-2.939 6.706M930.46 420.656c-.42-.36-1.083-.529-1.862-.505l-3.155.096.157 4.907 3.142-.086c.77-.03 1.405-.25 1.824-.67.439-.387.61-1.05.61-1.908-.034-.862-.298-1.45-.717-1.834m2.833 5.937c-.951.824-2.321 1.298-4.162 1.322l-3.454.106.161 6.006-3.45.075-.488-16.629 7.17-.213c1.627-.051 2.966.337 3.969 1.14 1.033.828 1.538 2.177 1.583 3.966.051 1.992-.357 3.389-1.33 4.227M945.505 415.794l4.969-.597 2.012 16.574-3.224.402-1.33-11.215c-.064-.302-.113-.769-.16-1.36-.073-.57-.145-1.03-.172-1.342l-1.436 14.277-3.378.391-4.78-13.514c.041.322.083.78.158 1.356.059.563.137 1.023.165 1.353l1.356 11.2-3.22.388-1.989-16.567 5.003-.608 4.584 12.643 1.442-13.38M963.597 415.337l-8.639 1.855.721 3.464 7.956-1.71.583 2.826-7.904 1.717.9 4.172 9.013-1.954.646 2.963-12.358 2.64-3.516-16.285 11.963-2.6.635 2.912M963.223 412.388l3.495-1.064 9.731 9.167-3.427-11.121 3.139-.938 4.875 15.946-3.327 1.003-9.957-9.305 3.454 11.286-3.108.975-4.875-15.949" style="stroke-width:3.43363" transform="translate(-735.23 -70.46)"/><path fill="#fff" d="m988.038 403.667 1.078 2.767-4.64 1.84 5.076 12.753-3.286 1.274-5.055-12.742-4.621 1.85-1.113-2.74 12.56-5.002M1001.429 415.612l-3.09 1.525-7.352-15.005 3.125-1.484 7.317 14.964M994.757 400.453l3.214-1.813 11.427 6.922-5.683-10.133 2.843-1.569 8.138 14.52-3.025 1.71-11.708-7.01 5.758 10.355-2.823 1.583-8.14-14.565M1015.572 401.644c.518.584 1.047.92 1.49 1.05.865.238 1.871-.016 3.032-.792.683-.491 1.195-.934 1.562-1.377.611-.852.656-1.645.134-2.448-.302-.436-.78-.667-1.336-.636-.549.021-1.352.244-2.352.636l-1.703.683c-1.703.666-2.96 1.006-3.763.992-1.336 0-2.462-.683-3.4-2.036-.837-1.236-1.067-2.579-.737-3.997.374-1.435 1.435-2.74 3.224-3.959 1.462-.985 2.973-1.459 4.536-1.39 1.548.068 2.843.827 3.893 2.256l-2.802 1.843c-.576-.745-1.352-1.088-2.273-.968-.618.059-1.287.36-1.964.828-.752.504-1.287 1.054-1.524 1.668-.254.588-.186 1.15.168 1.697.357.532.817.7 1.442.673.388-.059 1.12-.296 2.201-.673l2.816-1.065c1.232-.487 2.266-.693 3.066-.632 1.26.097 2.318.746 3.159 1.982.862 1.246 1.05 2.647.656 4.15-.416 1.45-1.511 2.803-3.286 4.063-1.83 1.215-3.527 1.754-5.15 1.645-1.57-.107-2.871-.914-3.798-2.322l2.709-1.87" style="stroke-width:3.43363" transform="translate(-735.23 -70.46)"/><path fill="#fff" d="m1027.026 378.797 1.851 2.3-3.887 3.104 8.481 10.754-2.688 2.184-8.55-10.737-3.938 3.094-1.824-2.328 10.555-8.371" style="stroke-width:3.43363" transform="translate(-735.23 -70.46)"/><path fill="#fff" d="m1040.026 389.352-2.544 2.293-11.012-12.532 2.59-2.308 10.966 12.547" style="stroke-width:3.43363" transform="translate(-735.23 -70.46)"/><path fill="#fff" d="m1038.381 367.95 2.074 2.112-3.602 3.478 9.563 9.858-2.548 2.441-9.525-9.847-3.601 3.488-2.05-2.15 9.69-9.38" style="stroke-width:3.43363" transform="translate(-735.23 -70.46)"/><path fill="#fff" d="m1037.925 368.465 2.307-2.685 7.726 6.768c.8.79 1.535 1.232 2.132 1.376.972.3 1.906-.082 2.857-1.15.934-1.026 1.202-2.032.766-2.963-.234-.553-.766-1.209-1.625-1.97l-7.684-6.79 2.335-2.63 7.705 6.755c1.329 1.208 2.211 2.317 2.54 3.385.69 1.954.12 4.01-1.802 6.205-1.933 2.153-3.945 2.997-5.916 2.616-1.12-.268-2.366-.992-3.695-2.16l-7.646-6.757" style="stroke-width:3.43363" transform="translate(-735.23 -70.46)"/><path fill="#fff" d="m1054.444 348.104 2.352 1.799-2.99 3.962 10.973 8.22-2.095 2.823-10.977-8.227-3.011 3.997-2.349-1.752 8.097-10.822" style="stroke-width:3.43363" transform="translate(-735.23 -70.46)"/><path fill="#fff" d="m1063.114 339.832-4.715 7.434 2.984 1.912 4.354-6.843 2.441 1.57-4.34 6.829 3.602 2.28 4.941-7.777 2.53 1.596-6.78 10.686-14.03-8.945 6.544-10.321 2.469 1.579" style="stroke-width:3.43363" transform="translate(-735.23 -70.46)"/><path fill="#a7a9ac" d="M880.153 206.594h-76.381V313.4h76.381L826.4 259.925l53.753-53.331" style="stroke-width:3.43363" transform="translate(-735.23 -70.46)"/><path fill="#006333" d="m947.03 153.568 106.112 106.106L947.03 365.739 840.924 259.674 947.03 153.568" style="stroke-width:3.43363" transform="translate(-735.23 -70.46)"/><path fill="#c9cbcc" d="M864.643 246.534h5.635v12.041l10.15-12.042h6.898l-11.53 13.234 12.028 14.82h-7.383l-10.094-12.994h-.07v12.993h-5.634v-28.053M891.463 274.59h7.681c8.63 0 16.255-2.87 16.255-14.013 0-11.163-7.626-14.04-16.255-14.04h-7.68zm5.604-23.651h3.193c4.698 0 9.271 3.516 9.271 9.638 0 6.095-4.573 9.618-9.27 9.618h-3.194v-19.256M920.055 274.59h5.631v-28.053h-5.63zM943.716 258.046a9.95 9.95 0 0 0-3.835-.786c-1.277 0-2.932.543-2.932 2.6 0 3.237 8.196 1.878 8.196 8.161 0 4.107-3.242 5.673-7.026 5.673-2.056 0-2.956-.285-4.793-.752l.36-3.38c1.26.729 2.748 1.155 4.2 1.155 1.449 0 3.327-.725 3.327-2.4 0-3.589-8.162-2.126-8.162-8.306 0-4.169 3.214-5.731 6.504-5.731 1.614 0 3.135.233 4.484.714l-.323 3.052M962.206 273.062c-1.38.347-2.856.632-4.292.632-6.067 0-10.294-3.043-10.294-9.385 0-6.427 3.97-10.03 10.294-10.03 1.257 0 2.898.269 4.285.787l-.284 3.176c-1.436-.8-2.7-.982-4.038-.982-3.932 0-6.287 2.957-6.287 6.785 0 3.818 2.355 6.672 6.324 6.672 1.494 0 3.235-.323 4.138-.76l.154 3.105M964.957 273.357h3.725v-8.196h7.544v8.196h3.77v-18.734h-3.77v7.582h-7.544v-7.582h-3.725v18.734M983.45 263.939c0 5.727 3.139 9.755 9.14 9.755 5.954 0 9.189-4.1 9.189-9.755 0-5.642-3.265-9.66-9.188-9.66-5.954 0-9.14 3.905-9.14 9.66m3.883 0c0-3.29 1.583-6.679 5.257-6.679 3.735 0 5.25 3.39 5.25 6.679 0 3.375-1.415 6.778-5.25 6.778-3.808 0-5.257-3.403-5.257-6.778M1004.333 263.939c0 5.727 3.118 9.755 9.134 9.755 5.957 0 9.195-4.1 9.195-9.755 0-5.642-3.32-9.66-9.195-9.66-5.933 0-9.133 3.905-9.133 9.66m3.883 0c0-3.29 1.528-6.679 5.25-6.679 3.736 0 5.257 3.39 5.257 6.679 0 3.375-1.401 6.778-5.257 6.778-3.822 0-5.25-3.403-5.25-6.778M1026.096 254.623h3.77v15.77h7.242v2.964h-11.012v-18.734" style="stroke-width:3.43363" transform="translate(-735.23 -70.46)"/><path fill="#fff" d="m746.64 262.328.051-3.42 6.871.114-6.754-6.548.059-4.502 6.767 6.957 9.934-7.046-.096 4.484-7.355 5.037 1.658 1.697 5.614.061-.048 3.451-16.701-.285" style="stroke-width:3.43363" transform="translate(-735.23 -70.46)"/><path fill="#fff" d="m750.221 243.495 10.854 1.164.336-3.218c.165-1.637-.542-2.846-2.067-3.674-.837-.443-1.909-.724-3.104-.879-1.689-.178-3.025-.03-3.962.395-.986.443-1.535 1.436-1.727 3.015zm-1.82-6.607a5.571 5.571 0 0 1 2.397-2.61c.862-.48 1.816-.8 2.788-.909.982-.1 1.92-.12 2.771-.01 2.19.233 4.035.875 5.473 1.916 1.916 1.397 2.781 3.375 2.483 5.885l-.721 7.128-16.622-1.751.796-7.121c.127-1.037.313-1.872.635-2.528M765.824 230.818l-.588 3.413-16.436-2.733.57-3.437 16.454 2.757M762.325 221.983c.765.093 1.366.014 1.795-.196.79-.398 1.367-1.277 1.738-2.626.206-.814.268-1.484.23-2.05-.079-1.023-.6-1.693-1.514-1.92-.515-.147-.982 0-1.415.42-.395.384-.851 1.095-1.329 2.05l-.817 1.637c-.824 1.631-1.535 2.699-2.125 3.238-1.02.9-2.315 1.154-3.915.745-1.459-.36-2.54-1.167-3.21-2.513-.673-1.302-.762-2.991-.265-5.055.47-1.706 1.26-3.086 2.483-4.058 1.212-.979 2.664-1.315 4.42-.93l-.846 3.24c-.982-.164-1.771.1-2.362.797-.443.478-.731 1.103-.937 1.916-.251.896-.251 1.652-.007 2.263.213.597.638 1.013 1.277 1.15.58.172 1.047 0 1.49-.456.258-.289.677-.941 1.216-1.958l1.36-2.674c.61-1.182 1.236-2.02 1.878-2.534 1.006-.79 2.228-.965 3.674-.594 1.473.384 2.554 1.25 3.272 2.644.66 1.376.741 3.134.223 5.188-.546 2.15-1.442 3.701-2.72 4.663-1.246.995-2.722 1.28-4.408.844l.814-3.23M756.323 206.594c-.835-1.71-.934-3.55-.247-5.532.872-2.613 2.43-4.223 4.6-4.82 1.199-.327 2.329-.354 3.31-.066l-1.146 3.29c-.828-.076-1.466.02-1.985.226-.91.337-1.528 1.071-1.93 2.235-.418 1.168-.23 2.263.491 3.286.708.993 1.958 1.81 3.743 2.438 1.74.601 3.224.711 4.333.316 1.103-.432 1.889-1.195 2.26-2.283.38-1.116.343-2.122-.234-2.974-.299-.456-.793-.968-1.545-1.445l1.15-3.262c1.614.865 2.757 2.06 3.42 3.602.683 1.535.721 3.21.083 5.002-.77 2.263-2.122 3.76-4.032 4.55-1.891.742-4.12.707-6.657-.161-2.771-.962-4.632-2.428-5.614-4.402M774.63 199.517l-15.166-6.891 1.405-3.16 5.782 2.645 2.706-5.917-5.796-2.64 1.438-3.156 15.184 6.902-1.4 3.142-6.803-3.066-2.695 5.892 6.798 3.093-1.452 3.156M782.405 175.207c-.505-1.199-1.57-2.273-3.18-3.18-1.62-.927-3.094-1.315-4.378-1.13-1.29.213-2.263.914-2.953 2.088-.697 1.216-.796 2.41-.326 3.647.484 1.212 1.514 2.293 3.149 3.224 1.64.917 3.093 1.294 4.402 1.102 1.284-.227 2.255-.937 2.963-2.136.693-1.188.78-2.396.323-3.615m3.261-.615c.516 1.738.172 3.65-1.02 5.714-1.187 2.07-2.667 3.323-4.418 3.784-2.225.662-4.646.27-7.218-1.237-2.64-1.503-4.21-3.392-4.704-5.61-.501-1.734-.161-3.647 1.034-5.7 1.164-2.08 2.647-3.344 4.388-3.78 2.18-.697 4.563-.296 7.22 1.222 2.62 1.507 4.176 3.348 4.718 5.607M791.38 161.87c-.395-1.222-1.336-2.417-2.843-3.481-1.549-1.099-2.95-1.617-4.254-1.549-1.326.052-2.37.663-3.163 1.776-.793 1.136-.992 2.331-.659 3.595.33 1.26 1.288 2.444 2.833 3.53 1.487 1.08 2.901 1.593 4.24 1.514 1.315-.076 2.335-.694 3.173-1.813.766-1.1 1.01-2.318.673-3.571m3.307-.282c.305 1.768-.234 3.63-1.58 5.576-1.39 1.947-2.973 3.053-4.776 3.317-2.28.443-4.622-.196-7.06-1.943-2.489-1.755-3.893-3.801-4.144-6.06-.326-1.783.227-3.644 1.61-5.587 1.391-1.91 2.936-2.998 4.77-3.31 2.197-.474 4.536.178 7.056 1.96 2.424 1.731 3.815 3.75 4.124 6.047M784.949 149.393l2.266-2.63 10.431 8.855 5.405-6.345 2.27 1.947-7.675 8.979-12.697-10.806M812.916 138.247c-.141-1.308-.8-2.626-2.088-4.017-1.298-1.343-2.606-2.119-3.863-2.318-1.322-.175-2.448.2-3.444 1.133-1.033.948-1.476 2.057-1.36 3.39.114 1.277.794 2.626 2.054 3.996 1.315 1.387 2.63 2.14 3.925 2.318 1.267.189 2.424-.213 3.42-1.126 1.009-.965 1.476-2.085 1.356-3.376m3.323.364c-.034 1.817-.923 3.516-2.65 5.147-1.755 1.645-3.506 2.407-5.316 2.304-2.341 0-4.522-1.081-6.565-3.265-2.063-2.232-3.045-4.46-2.87-6.758.024-1.81.913-3.512 2.647-5.143 1.724-1.631 3.52-2.41 5.36-2.338 2.218-.024 4.402 1.091 6.524 3.306 2.053 2.184 3.018 4.42 2.87 6.747M809.07 124.75l9.364-7.352 1.799 2.308-6.606 5.236 2.348 3.001 5.84-4.58 1.766 2.28-5.803 4.573 4.34 5.487-2.726 2.16-10.322-13.113M832.244 112.406c-.553-.062-1.212.113-1.882.553l-2.668 1.644 2.63 4.165 2.661-1.686c.711-.418 1.102-.91 1.233-1.497.196-.56 0-1.225-.46-1.96-.44-.725-.951-1.137-1.514-1.22m5.445 3.675c-.408 1.212-1.35 2.297-2.894 3.258l-2.936 1.858 3.217 5.064-2.942 1.875-8.876-14.115 6.046-3.829c1.405-.882 2.737-1.205 4.014-1.013 1.295.2 2.394 1.05 3.369 2.586 1.05 1.679 1.394 3.124 1.002 4.316M835.615 106.308l3.139-1.594 4.69 9.09c.525 1.02 1.013 1.706 1.507 2.073.804.639 1.81.639 3.08-.027 1.254-.656 1.848-1.49 1.807-2.52 0-.58-.251-1.388-.783-2.4l-4.68-9.124 3.138-1.583 4.677 9.079c.82 1.586 1.212 2.946 1.188 4.065-.117 2.084-1.408 3.79-3.987 5.1-2.554 1.307-4.714 1.407-6.493.277-.89-.621-1.789-1.723-2.603-3.317l-4.68-9.12M856.447 106.555l1.672 4.14 3.77-1.527c.646-.285 1.127-.57 1.436-.903.532-.604.597-1.384.192-2.352-.281-.824-.841-1.223-1.603-1.257-.467-.014-.996.12-1.655.371zm-2.42-5.988 1.394 3.416 3.756-1.528c.652-.244 1.14-.614 1.442-1.03.337-.402.37-.934.1-1.6-.282-.731-.773-1.088-1.398-1.095-.525.027-1.195.189-1.916.49zm7.959-4.395c.769.46 1.311 1.133 1.692 2.046.395.951.433 1.796.203 2.575-.144.43-.395.886-.851 1.35.927-.02 1.689.195 2.365.662.66.467 1.15 1.14 1.49 2.016.382.906.488 1.847.313 2.73a4.17 4.17 0 0 1-.618 1.675c-.299.57-.78 1.078-1.39 1.47-.636.412-1.333.786-2.099 1.071l-6.994 2.836-6.218-15.468 7.45-3.022c1.9-.724 3.469-.697 4.657.059M864.434 93.428l3.324-1.03 4.062 13.082 7.959-2.479.875 2.87-11.265 3.503-4.955-15.946" style="stroke-width:3.43363" transform="translate(-735.23 -70.46)"/><path fill="#fff" d="m883.848 105.181-3.348.866-4.103-16.162 3.344-.845 4.107 16.141M883.535 89.885c1.044-1.607 2.603-2.593 4.653-3.012 2.73-.511 4.872 0 6.493 1.576.9.886 1.462 1.827 1.727 2.84l-3.444.666c-.371-.77-.756-1.28-1.174-1.62-.76-.588-1.731-.783-2.922-.55-1.206.23-2.085.927-2.603 2.064-.495 1.13-.594 2.616-.244 4.45.395 1.847 1.01 3.141 1.916 3.92.93.777 1.954 1.038 3.094.818 1.177-.189 1.97-.783 2.462-1.676.274-.5.432-1.174.498-2.074l3.402-.635c.028 1.84-.456 3.43-1.428 4.773-.992 1.35-2.462 2.218-4.316 2.558-2.328.46-4.275.048-5.93-1.209-1.62-1.24-2.678-3.21-3.193-5.868-.55-2.856-.203-5.202 1.01-7.021M910.554 87.862c-.47-.347-1.116-.508-1.892-.408l-3.148.226.391 4.903 3.139-.254c.772-.061 1.376-.305 1.771-.72.423-.464.59-1.096.553-1.982-.082-.827-.333-1.452-.814-1.765m3.094 5.786c-.934.872-2.266 1.404-4.072 1.528l-3.454.268.436 5.96-3.437.275-1.278-16.636 7.163-.532c1.648-.137 2.987.227 4.014.979 1.033.796 1.624 2.077 1.792 3.883.13 1.954-.25 3.392-1.164 4.275M926.895 96.845c.851-1.003 1.233-2.459 1.27-4.344.021-1.837-.33-3.313-1.143-4.35-.783-1.02-1.868-1.57-3.245-1.59-1.39-.024-2.472.463-3.313 1.473-.859 1.006-1.302 2.462-1.302 4.34-.054 1.868.323 3.32 1.12 4.354.827 1.047 1.93 1.559 3.3 1.586 1.373.007 2.492-.48 3.313-1.47m2.146 2.552c-1.295 1.28-3.118 1.916-5.484 1.854-2.417-.02-4.202-.7-5.462-2.03-1.662-1.603-2.497-3.92-2.431-6.918.072-3.05.954-5.319 2.654-6.84 1.287-1.287 3.104-1.895 5.49-1.847 2.417.034 4.203.738 5.442 2.015 1.645 1.59 2.445 3.884 2.421 6.947-.062 2.977-.927 5.257-2.63 6.819M933.336 84.45l3.506.346-1.363 13.611 8.285.824-.295 2.98-11.774-1.188 1.641-16.574" style="stroke-width:3.43363" transform="translate(-735.23 -70.46)"/><path fill="#fff" d="m946.71 102.84-3.42-.515 2.514-16.506 3.427.54-2.52 16.48M952.307 88.58c1.607-1.064 3.42-1.36 5.477-.948 2.706.584 4.488 1.892 5.356 3.976.495 1.15.601 2.253.495 3.262l-3.43-.707c-.038-.841-.182-1.476-.464-1.967-.474-.814-1.284-1.374-2.472-1.624-1.216-.237-2.273.027-3.21.903-.91.827-1.532 2.176-1.927 4.013-.398 1.817-.33 3.27.223 4.35.574 1.072 1.401 1.735 2.534 1.965 1.164.223 2.122.027 2.926-.608.432-.347.851-.934 1.236-1.72l3.358.748c-.66 1.693-1.69 2.967-3.142 3.829-1.428.858-3.09 1.099-4.948.697-2.324-.484-3.99-1.641-5.002-3.423-1.017-1.796-1.195-4.021-.677-6.634.601-2.864 1.834-4.893 3.667-6.112M975.611 92.762l3.763 1.16-8.364 8.307-1.837 5.988-3.334-1.037 1.817-5.964-2.47-11.647 3.905 1.195 1.202 7.973 5.318-5.975M983.752 106.854l3.911 1.672.642-6.854zm4.286-9.45 3.636 1.539-1.154 17.666-3.44-1.5.319-3.565-5.624-2.434-2.4 2.719-3.348-1.442 12.01-12.983" style="stroke-width:3.43363" transform="translate(-735.23 -70.46)"/><path fill="#fff" d="m998.057 101.806 3.193 1.741.299 13.354 5.555-10.212 2.844 1.528-7.942 14.682-3.05-1.665-.37-13.635-5.607 10.428-2.837-1.58 7.915-14.64M1013.26 113.797l-5.994 9.054 2.647 1.789c1.408.913 2.795.858 4.251-.12.766-.54 1.497-1.33 2.174-2.342.94-1.428 1.449-2.654 1.497-3.712.057-1.047-.57-2.012-1.913-2.89zm6.72 1.428c.79.965 1.154 2.074 1.192 3.32.041 1.023-.12 1.999-.508 2.891-.343.965-.773 1.755-1.24 2.493-1.236 1.84-2.637 3.163-4.233 3.945-2.16 1.058-4.265.89-6.384-.5l-6.002-3.977 9.268-13.896 5.981 3.99c.852.58 1.49 1.143 1.927 1.734M1040.466 131.256l3.711 3.345-11.173 12.381-2.434-2.183 7.571-8.365c.227-.23.515-.566.903-1.013.419-.429.7-.786.934-.978l-11.709 8.258-2.537-2.27 7.083-12.481c-.22.223-.528.584-.937 1.002-.384.443-.693.787-.913 1.034l-7.52 8.354-2.434-2.163 11.166-12.375 3.79 3.386-6.537 11.767 11.036-7.699" style="stroke-width:3.43363" transform="translate(-735.23 -70.46)"/><path fill="#fff" d="m1041.3 146.852 2.908 3.176 3.42-5.992zm7.904-6.782 2.637 2.892-8.375 15.568-2.558-2.788 1.807-3.146-4.131-4.515-3.341 1.45-2.414-2.68 16.375-6.78" style="stroke-width:3.43363" transform="translate(-735.23 -70.46)"/><path fill="#fff" d="m1056.477 148.232 2.19 2.933-5.305 12.268 9.271-6.987 1.991 2.578-13.34 10.06-2.073-2.801 5.346-12.53-9.477 7.136-1.957-2.596 13.354-10.06" style="stroke-width:3.43363" transform="translate(-735.23 -70.46)"/><path fill="#fff" d="m1059.512 170.331 2.263 3.64 4.47-5.226zm8.948-5.26 2.07 3.368-11.083 13.78-1.954-3.194 2.3-2.74-3.196-5.247-3.53.866-1.916-3.084 17.309-3.75M1074.54 186.909c.914-.728 1.316-1.655 1.268-2.792a4.948 4.948 0 0 0-.495-1.875c-.604-1.198-1.555-1.95-2.808-2.3-1.295-.295-2.87-.041-4.698.879-1.843.9-2.922 1.97-3.286 3.172-.333 1.237-.254 2.373.289 3.424.498 1.078 1.25 1.754 2.16 2.136.94.377 1.933.377 2.977.075l-1.703-3.447 2.468-1.254 3.118 6.26-8.045 3.938-1.006-2.053 1.703-1.257c-.975-.237-1.779-.518-2.294-.903-.934-.546-1.665-1.432-2.255-2.637-.972-1.981-1.106-3.942-.36-5.882.751-2.015 2.279-3.605 4.672-4.762 2.441-1.219 4.69-1.497 6.802-.893 2.132.608 3.708 1.995 4.794 4.196.971 1.895 1.215 3.667.824 5.302-.395 1.637-1.267 2.87-2.613 3.735l-1.511-3.062M1083.334 202.583l-3.165-8.234-3.307 1.257 2.919 7.571-2.716 1.044-2.898-7.564-4.018 1.538 3.362 8.608-2.812 1.085-4.574-11.794 15.558-5.996 4.433 11.417-2.782 1.068M1089.865 214.333l1.377 4.831-16.063 4.508-.885-3.117 10.877-3.073c.31-.08.732-.2 1.302-.347.563-.158.992-.271 1.329-.35l-14.34.731-.899-3.265 12.608-6.806c-.295.086-.752.23-1.308.381-.577.182-.985.296-1.322.371l-10.857 3.05-.872-3.125 16.097-4.52 1.339 4.9-11.815 6.473 13.432-.642M1090.933 234.138l-1.57-8.697-3.488.638 1.442 7.95-2.836.542-1.449-7.973-4.206.766 1.638 9.088-2.956.515-2.256-12.419 16.412-2.977 2.191 12.028-2.922.54M1094.137 235.724l.398 3.64-11.019 7.67 11.568-1.098.31 3.259-16.582 1.538-.346-3.468 11.173-7.85-11.812 1.096-.295-3.228 16.605-1.559M1095.572 263.65l-2.956.031-.042-4.979-13.734.1-.014-3.475 13.72-.137-.044-5.03 2.942-.018.127 13.508" style="stroke-width:3.43363" transform="translate(-735.23 -70.46)"/></svg>