<svg xmlns="http://www.w3.org/2000/svg" width="1022.3952pt" height="150pt" fill-rule="evenodd" viewBox="0 0 1022.3952 150"><path d="m105.218 414.884 13.387 7.967c1.022.675 1.837 1.624 1.937 2.96.123 1.631-1.072 3.232-2.443 4.423-10.21 8.865-25.341 15.922-44.125 17.73 0 0 .404.627 1.497 1.126 2.68 1.495 8.288 3.577 10.579 4.177 1.332.481 3.845 1.229 8.01-.243 0 0 20.989-6.556 34.709-15.41 1.228-.703 1.827-.676 1.964-.006.147.721-.472 1.584-.914 1.971-7.121 4.654-19.584 11.513-34.558 15.938 0 0 2.156 2.136 7.769.784 7.027-1.695 16.924-6.559 32.5-15.799 0 0 1.725-1.048 2.016-3.918v-1.309a.235.235 0 0 0 .023-.013l-.023-26.817s.857-7.304-5.468-7.564c0 0-15.395-.039-27.74 7.957-1.129.652-1.425 1.933-1.401 2.907.046 1.88 1.976 2.898 2.281 3.139z" style="fill:#33b540;fill-opacity:1;stroke:none" transform="translate(-137.526 -847.012) scale(2.18284)"/><path d="m94.78 429.858-10.529-7.696c-1.022-.678-1.834-1.624-1.936-2.961-.123-1.631 1.073-3.232 2.444-4.422 10.21-8.863 23.071-16.153 41.857-17.961 0 0-.404-.627-1.5-1.124-2.679-1.499-8.286-3.577-10.578-4.177-1.332-.484-4.799-.968-8.964.506 0 0-19.199 5.002-33.753 14.917-1.228.701-1.83.673-1.966.005-.147-.722.472-1.585.914-1.974 7.12-4.654 19.585-11.28 34.558-15.706 0 0-2.154-2.138-7.77-.784-6.993 1.689-16.807 6.491-32.497 15.799 0 0-1.727 1.047-2.018 3.915v1.313l-.023.011.023 26.819s-.857 7.305 5.468 7.563c0 0 14.755.038 27.1-7.957 1.13-.654 1.411-1.933 1.402-2.906-.019-1.774-1.747-2.741-2.232-3.18z" style="fill:#ed1c24;fill-opacity:1;stroke:none" transform="translate(-137.526 -847.012) scale(2.18284)"/><path d="M179.781 411.388v33.652h5.082v-22.388h3.523v-5.016h-3.523v-6.248h-5.082zm-27.154 0v5.014h14.296v19.623h4.927v-24.637h-19.223zM204.932 408.873v3.244h-12.773v4.558h8.895l-8.849 5.257 3.931 2.201 11.531-7.224s11.199 7.067 11.455 7.23l4.103-2.063-8.893-5.401h8.909v-4.558h-12.846v-3.244h-5.463zm-13.473 17.728v5.089h13.396v3.815h-12.696v4.439h25.856v5.721h5.226v-10.16h-12.924v-3.815h13.473v-5.089h-32.331zM234.417 412.687c-1.64 1.671-2.471 3.705-2.471 6.041 0 2.306.831 4.31 2.469 5.954 1.644 1.675 3.662 2.52 6.004 2.52 2.315 0 4.333-.846 6.002-2.52 1.637-1.642 2.47-3.647 2.47-5.954 0-2.338-.834-4.37-2.472-6.041-1.668-1.673-3.686-2.52-6-2.52s-4.335.847-6.002 2.52zm3.626 8.378-.012-.012a3.306 3.306 0 0 1-.926-2.325c0-.942.312-1.751.926-2.408.671-.67 1.473-1.004 2.388-1.004.912 0 1.7.336 2.342 1.001.694.652 1.05 1.467 1.05 2.411 0 .888-.356 1.675-1.062 2.338a3.21 3.21 0 0 1-2.33.953c-.911 0-1.71-.321-2.376-.954zm17.292-9.638v17.74h-26.133v5.091h7.696v10.831h4.926v-10.831h13.511v10.808h5.008v-33.639h-5.008zM292.34 411.388v4.422h-2.678v-4.422h-5.003v16.392h5.003v-7.339h2.678v7.339h5.007v-16.392h-5.007zm-21.283.015c-.15.283-6.633 12.567-6.879 13.036.419.215 3.871 2.003 4.287 2.217.241-.463 4.816-9.312 4.816-9.312s4.58 8.857 4.819 9.314c.414-.209 3.974-2.005 4.401-2.223-.251-.472-6.805-12.754-6.955-13.032h-4.489zm9.426 20.812c-1.613 1.676-2.43 3.716-2.43 6.064 0 2.343.817 4.372 2.43 6.023 1.639 1.65 3.657 2.486 5.998 2.486 2.317 0 4.322-.836 5.96-2.486 1.668-1.657 2.512-3.683 2.512-6.023 0-2.345-.846-4.385-2.512-6.064-1.641-1.653-3.645-2.489-5.96-2.489s-4.334.836-5.998 2.489zm3.496 8.6-.003-.008c-.672-.716-1.01-1.568-1.01-2.528 0-.99.341-1.843 1.011-2.535.699-.694 1.542-1.042 2.504-1.042.961 0 1.805.348 2.502 1.039.672.694 1.013 1.545 1.013 2.538a3.6 3.6 0 0 1-1.005 2.528c-.702.696-1.545 1.047-2.51 1.047-.966 0-1.807-.351-2.502-1.039zM317.978 411.388v2.595h-9.685v-2.595h-5.003v15.765h19.689v-15.765h-5.001zm-9.685 10.399v-3.173h9.685v3.448h-9.685zm22.167-10.393v16.375h5.081v-7.018h3.521v-4.938h-3.521v-4.419h-5.081zm-11.099 20.825c-1.615 1.678-2.432 3.718-2.432 6.062 0 2.346.817 4.374 2.432 6.027 1.635 1.65 3.653 2.487 6 2.487 2.317 0 4.321-.837 5.958-2.49 1.667-1.657 2.513-3.684 2.513-6.024 0-2.341-.846-4.38-2.513-6.062-1.637-1.65-3.641-2.487-5.958-2.487-2.32 0-4.339.837-6 2.487zm3.496 8.599-.006-.008c-.67-.716-1.008-1.567-1.008-2.529 0-.988.34-1.839 1.01-2.533.704-.693 1.544-1.042 2.508-1.042.955 0 1.796.349 2.499 1.038.673.698 1.015 1.549 1.015 2.537 0 .96-.34 1.813-1.005 2.529-.709.699-1.552 1.047-2.509 1.047-.964 0-1.807-.348-2.504-1.039zM344.71 413.706l-.002.003c-1.716 1.723-2.585 3.842-2.585 6.296s.869 4.588 2.587 6.339c1.682 1.751 3.78 2.638 6.232 2.638 2.425 0 4.521-.887 6.231-2.638 1.743-1.753 2.627-3.885 2.627-6.339 0-2.451-.882-4.569-2.626-6.295-1.709-1.727-3.807-2.601-6.232-2.601-2.452 0-4.55.874-6.232 2.597zm3.532 8.98-.004-.003c-.726-.778-1.094-1.679-1.094-2.678 0-1.078.371-2.007 1.098-2.756.773-.73 1.681-1.098 2.7-1.098 1.05 0 1.955.368 2.689 1.093.738.757 1.11 1.683 1.11 2.761 0 1.027-.372 1.929-1.107 2.681-.756.778-1.662 1.172-2.692 1.172-1.031 0-1.939-.394-2.7-1.172zm21.9-10.83v2.151h-5.912v4.631h5.912v2.684h-5.912v4.71h5.912v2.352h5.005v-16.528h-5.005zm-27.496 19.858v5.128h27.496v8.884h5.005v-14.012h-32.501zM409.05 411.388v33.644h5.008v-33.644h-5.008zm-27.895 0v5.014h5.805s-6.053 14.569-6.241 15.016c.38.202 3.841 2.05 4.295 2.294.223-.54 6.676-16.004 6.676-16.004s6.641 15.926 6.859 16.446l4.407-2.152-6.538-15.6h5.81v-5.014h-21.073zM425.455 411.69c-1.458 1.436-2.2 3.187-2.2 5.204 0 1.992.742 3.715 2.2 5.126 1.492 1.439 3.318 2.172 5.428 2.172 2.08 0 3.876-.73 5.342-2.172 1.519-1.441 2.289-3.162 2.289-5.126 0-2.016-.77-3.767-2.286-5.202-1.466-1.416-3.262-2.134-5.345-2.134-2.11 0-3.936.718-5.428 2.132zm2.209 5.165c0-.836.309-1.565.916-2.168.613-.577 1.386-.868 2.303-.868.797 0 1.524.289 2.162.859.615.616.923 1.347.923 2.177 0 .804-.308 1.52-.911 2.128-.646.603-1.373.905-2.174.905-.918 0-1.693-.303-2.298-.902a2.837 2.837 0 0 1-.921-2.131zm20.291-5.489v20.406h-3.85v4.277h8.855v-24.683h-5.005zm-27.863 14.163v4.786h9.597v3.488h4.855v-3.488h6.886v-4.786h-21.338zm.619 7.751v11.668h32.249v-5.014h-27.167v-6.654h-5.082zM486.581 411.388v2.352h-21.403v-2.352h-5.566v14.378h13.203v3.143h-13.893v4.556h33.512v-4.556H478.5v-3.143h13.365v-14.378h-5.284zm-21.403 9.166v-2.104h21.403v2.377h-21.403zm-5.599 15.308v9.111h32.223v-5.014h-27.217v-4.097h-5.006zM525.351 411.388v3.649h-21.628v-3.649h-5.086v17.202h31.796v-17.202h-5.082zm-21.628 11.836v-3.4h21.628v3.673h-21.628zm-5.892 10.033v5.011h14.096v8.017h5.399v-8.017h14.055v-5.011h-33.55zM155.627 401.695c0 .568.089.987.261 1.249.176.267.599.402 1.278.402.276 0 .567-.038.884-.113.31-.075.57-.195.77-.367.177-.15.333-.343.47-.58.128-.229.24-.449.324-.655a.285.285 0 0 1 .063-.12.14.14 0 0 1 .109-.055c.072 0 .118.019.126.055a.433.433 0 0 1 .018.137c0 .255-.026.509-.08.762a4.64 4.64 0 0 0-.097.774c-.01.196-.024.337-.045.43-.023.088-.138.133-.346.133-.722 0-1.459-.012-2.218-.033-.76-.02-1.498-.029-2.218-.029-.251 0-.497.009-.72.029a7.91 7.91 0 0 1-.723.033.385.385 0 0 1-.183-.039c-.047-.026-.074-.077-.074-.152 0-.105.047-.17.133-.188.093-.01.175-.022.249-.022.53 0 .821-.087.883-.259.057-.17.087-.489.087-.956v-6.051c0-.455-.032-.772-.095-.951-.064-.174-.361-.264-.89-.264-.063 0-.141-.006-.234-.015-.086-.013-.133-.072-.133-.178 0-.084.027-.143.074-.169a.343.343 0 0 1 .183-.038c.284 0 .551.009.808.031a9.914 9.914 0 0 0 1.628 0c.258-.022.539-.031.834-.031.061 0 .122.009.176.038.056.026.079.085.079.169 0 .106-.048.165-.145.178a2.736 2.736 0 0 1-.252.015c-.518 0-.813.09-.884.264-.068.179-.1.496-.1.951zM162.208 402.176c0 .322.025.593.078.817.055.226.279.359.687.402.081.011.172.021.272.033.104.012.153.063.153.162 0 .06-.02.104-.051.124a.25.25 0 0 1-.139.033c-.235 0-.468-.008-.705-.033a8.485 8.485 0 0 0-1.423 0 6.965 6.965 0 0 1-.712.033.308.308 0 0 1-.15-.033c-.048-.02-.07-.057-.07-.108 0-.118.048-.184.154-.185.107-.005.195-.015.272-.026.402-.043.628-.176.682-.402.054-.224.082-.495.082-.817v-2.775c0-.105-.007-.271-.022-.495-.006-.225-.052-.375-.141-.449-.042-.053-.125-.088-.246-.106a3.147 3.147 0 0 0-.257-.022h-.21a.297.297 0 0 1-.117-.023c-.041-.019-.056-.043-.056-.09 0-.082.036-.147.116-.176.078-.03.156-.058.228-.079.184-.052.391-.157.637-.322.245-.161.425-.308.545-.448a.695.695 0 0 1 .106-.123.254.254 0 0 1 .16-.055c.075 0 .115.025.119.07.007.049.008.104.008.154zm-1.178-7.184c0-.181.065-.344.192-.496a.618.618 0 0 1 .493-.221c.202 0 .358.067.467.214a.752.752 0 0 1 .167.471.848.848 0 0 1-.167.529c-.109.151-.276.226-.496.226a.583.583 0 0 1-.476-.207.786.786 0 0 1-.18-.516zM168.974 398.524c.047-.086.087-.192.127-.315a.997.997 0 0 0 .07-.31c0-.15-.07-.252-.197-.313a.92.92 0 0 0-.394-.09c-.064 0-.146-.006-.247-.023-.102-.019-.15-.064-.15-.136 0-.075.02-.116.06-.13a.981.981 0 0 1 .161-.015h2.359c.039 0 .056.039.056.115 0 .082-.046.135-.14.147-.1.019-.179.03-.243.042-.359.043-.621.23-.792.556-.17.326-.321.625-.444.888l-2.16 4.6c-.01.012-.041.072-.09.168-.046.103-.101.153-.166.153-.042 0-.07-.014-.09-.046-.012-.034-.029-.064-.036-.096l-.097-.179-2.19-5.192a3.066 3.066 0 0 0-.31-.619c-.099-.143-.311-.221-.628-.233a.751.751 0 0 1-.184-.023c-.068-.019-.104-.064-.104-.136 0-.085.028-.134.078-.137.047-.004.094-.008.148-.008h2.731c.073 0 .139.008.196.015.062.014.092.061.092.145 0 .099-.055.144-.168.144h-.247c-.138 0-.275.031-.423.098-.141.065-.205.168-.194.318.004.088.041.209.094.363.054.155.1.281.141.376l1.572 3.766zM177.186 399.663c.084 0 .133-.029.159-.09.021-.06.03-.12.03-.184 0-.233-.05-.498-.155-.784a2.18 2.18 0 0 0-.387-.686 2.239 2.239 0 0 0-.977-.7 3.243 3.243 0 0 0-1.181-.218 4.52 4.52 0 0 0-1.469.239 3.651 3.651 0 0 0-1.246.74c-.4.34-.686.712-.848 1.114-.168.401-.247.85-.247 1.355 0 .929.326 1.727.978 2.399.646.667 1.472.999 2.467.999.466 0 .889-.063 1.272-.193a3.71 3.71 0 0 0 1.114-.624c.05-.041.16-.142.328-.296.174-.155.257-.281.257-.38 0-.021-.011-.045-.032-.07-.023-.027-.051-.04-.096-.04-.097 0-.302.16-.628.481-.321.32-.854.482-1.595.482-.953 0-1.694-.263-2.231-.778-.534-.52-.804-1.288-.804-2.319 0-.232.044-.372.128-.395.087-.036.242-.052.476-.052zm-4.64-.371c-.072 0-.179 0-.307-.006-.134-.007-.198-.066-.198-.181 0-.132.054-.29.168-.477.106-.186.196-.318.259-.393.244-.289.539-.521.89-.706a2.324 2.324 0 0 1 1.093-.271c.245 0 .484.028.718.094a1.377 1.377 0 0 1 .881.757c.08.158.121.321.121.483a.496.496 0 0 1-.16.39 1.067 1.067 0 0 1-.396.202 5.009 5.009 0 0 1-.948.093c-.406.012-.732.015-.973.015zM178.011 402.885c0 .116.003.221.017.31.011.094.079.166.209.221.24.129.549.232.934.308.384.084.703.123.968.123.647 0 1.288-.177 1.922-.534.634-.362.954-.871.954-1.535 0-1.218-.632-1.867-1.891-1.946-1.258-.082-1.891-.555-1.891-1.418 0-.345.158-.624.469-.845.315-.217.622-.329.93-.329.816 0 1.279.233 1.391.702.107.462.259.698.452.698.126 0 .182-.114.166-.33-.013-.222-.023-.352-.023-.391 0-.123.008-.25.016-.39.01-.14-.049-.235-.178-.289-.176-.085-.433-.147-.767-.182a7.424 7.424 0 0 0-.787-.057c-.317 0-.629.033-.929.094a2.207 2.207 0 0 0-.851.389 2.11 2.11 0 0 0-.584.559 1.254 1.254 0 0 0-.222.721c0 .61.269 1.039.806 1.282a15.14 15.14 0 0 0 1.51.593c.357.12.693.281.993.482.302.202.453.515.453.93 0 .483-.194.86-.591 1.133a2.142 2.142 0 0 1-1.252.407c-1.03 0-1.549-.339-1.556-1.021-.011-.673-.155-1.016-.43-1.016-.074 0-.123.041-.142.12-.02.082-.038.153-.046.219zM185.153 401.57c0 .457.047.865.141 1.211.094.348.372.524.828.524.276 0 .508-.091.707-.26.197-.172.322-.258.385-.258.027 0 .047.016.064.041.024.03.034.053.034.072 0 .075-.039.154-.113.232a1.343 1.343 0 0 1-.186.173 2.378 2.378 0 0 1-.645.403 1.865 1.865 0 0 1-.751.153 1.49 1.49 0 0 1-.558-.102 1.246 1.246 0 0 1-.462-.346c-.191-.233-.291-.528-.301-.876a28.042 28.042 0 0 1-.018-.967v-3.799c0-.151-.041-.232-.121-.244a3.422 3.422 0 0 0-.338-.014c-.042 0-.134.004-.269.008-.144.006-.207-.043-.207-.137 0-.053.021-.098.063-.126.044-.032.081-.066.126-.1.329-.202.598-.41.793-.63.201-.22.389-.505.558-.858a.656.656 0 0 1 .063-.09c.024-.027.05-.04.08-.04.051 0 .089.018.102.048a.293.293 0 0 1 .025.131v1.042c0 .105.014.181.041.222.023.044.089.07.199.082h1.568c.075 0 .119.018.128.056.01.034.016.086.016.152 0 .16-.032.24-.104.24H185.708c-.17 0-.307.004-.402.008-.104.006-.153.111-.153.313zM187.503 400.37c0-.45.088-.887.27-1.306.179-.424.43-.785.762-1.084.36-.341.775-.591 1.247-.747a4.706 4.706 0 0 1 1.467-.232 4.7 4.7 0 0 1 1.359.199c.44.137.838.353 1.198.65.37.3.659.674.865 1.123.209.447.31.914.31 1.397 0 1.003-.369 1.832-1.109 2.492-.743.659-1.615.985-2.623.985-1.012 0-1.894-.326-2.637-.985-.74-.66-1.109-1.489-1.109-2.492zm6.494.096c0-.75-.241-1.469-.721-2.156-.485-.69-1.164-1.037-2.044-1.037-.837 0-1.505.319-2.008.947-.504.63-.754 1.32-.754 2.068 0 .737.257 1.471.773 2.195.511.728 1.196 1.092 2.055 1.092.814 0 1.471-.345 1.959-1.035.496-.688.74-1.382.74-2.074zM201.274 398.876c-.233 0-.469-.269-.702-.809-.231-.54-.654-.809-1.268-.809-.268 0-.539.06-.81.176a2.81 2.81 0 0 0-.717.433 4.118 4.118 0 0 0-.888 1.024c-.244.398-.369.903-.369 1.527 0 .779.294 1.454.872 2.028.576.571 1.279.859 2.115.859.332 0 .641-.053.937-.157a1.99 1.99 0 0 0 .795-.507c.023-.017.059-.049.106-.092a.21.21 0 0 1 .136-.066c.018 0 .039.015.064.04.016.029.026.05.026.073 0 .075-.057.173-.181.289a6.533 6.533 0 0 1-.26.24 3.21 3.21 0 0 1-1.025.551 4.02 4.02 0 0 1-1.17.171 3.304 3.304 0 0 1-2.387-.969c-.666-.648-.994-1.422-.994-2.318 0-1.005.404-1.847 1.211-2.532.802-.685 1.707-1.027 2.712-1.027.288 0 .608.037.967.112.361.074.657.197.893.371.095.074.14.175.132.305-.003.13-.009.247-.009.351 0 .042.006.177.009.398.008.226-.06.338-.195.338zM203.95 402.182c0 .319.024.593.073.815.048.227.273.364.687.405.078.011.162.019.26.03.106.011.152.064.152.159 0 .066-.014.109-.046.128a.223.223 0 0 1-.125.035c-.245 0-.484-.015-.724-.035a8.96 8.96 0 0 0-.706-.034c-.234 0-.469.015-.709.034-.235.02-.477.035-.722.035a.356.356 0 0 1-.134-.035.115.115 0 0 1-.073-.107c0-.122.053-.184.155-.19.098-.006.191-.009.277-.02.402-.041.627-.178.671-.405.046-.222.072-.496.072-.815v-6.733a6.09 6.09 0 0 0-.052-.792c-.037-.263-.244-.395-.612-.395h-.239c-.095 0-.14-.055-.14-.16 0-.055.023-.093.069-.114a.762.762 0 0 1 .134-.046c.213-.042.436-.102.664-.171.236-.067.435-.163.605-.278.043-.033.097-.071.161-.112a.286.286 0 0 1 .158-.064c.088 0 .128.024.134.079.008.053.01.108.01.159v6.446c0 .034 0 .086.008.158.007.075.028.116.068.116.023 0 .055-.01.098-.026a.257.257 0 0 0 .08-.04l2.32-1.73c.082-.075.207-.188.372-.329.163-.143.247-.27.247-.378 0-.109-.065-.169-.183-.19a1.635 1.635 0 0 0-.312-.034 2.735 2.735 0 0 0-.341-.015c-.154 0-.228-.067-.228-.194 0-.083.037-.13.117-.136.082-.003.15-.007.215-.007h2.827c.055 0 .082.041.082.128 0 .076-.032.123-.095.142a.597.597 0 0 1-.212.036c-.379.009-.69.094-.925.253-.239.164-.505.349-.802.562l-1.144.897a1.874 1.874 0 0 1-.223.18c-.107.071-.162.146-.162.221 0 .042.013.078.037.103.018.03.047.057.076.09l2.272 2.839c.169.204.328.379.466.53.146.146.36.225.643.225.069 0 .131.014.203.049.069.031.103.089.103.174 0 .06-.03.099-.082.114a.993.993 0 0 1-.155.015c-.233 0-.435-.015-.612-.035a5.799 5.799 0 0 0-.627-.034c-.225 0-.457.015-.693.034-.24.02-.473.035-.705.035-.057 0-.107-.003-.159-.009-.052-.006-.082-.039-.082-.106 0-.075.03-.13.082-.177a.273.273 0 0 1 .177-.06c.11 0 .241-.009.374-.026.142-.015.211-.1.211-.247 0-.088-.05-.196-.143-.329-.096-.137-.173-.234-.222-.299l-1.527-1.907c-.042-.053-.108-.134-.19-.248-.088-.113-.17-.169-.253-.169a.406.406 0 0 0-.208.082 1.537 1.537 0 0 0-.189.13c-.19.137-.34.271-.448.395-.105.13-.156.32-.156.564zM216.14 399.498c0-.236.035-.386.103-.447.071-.067.224-.097.471-.097h4.508c.247 0 .394.028.446.091.052.06.079.208.079.453v2.644c0 .473-.031.795-.099.971-.061.176-.355.267-.885.267-.077 0-.158.006-.246.015-.09.011-.134.065-.134.161 0 .083.022.138.079.158a.462.462 0 0 0 .172.033c.296 0 .577-.012.835-.033.258-.02.53-.029.819-.029.283 0 .551.009.799.029.248.021.518.033.803.033a.502.502 0 0 0 .188-.033c.044-.02.066-.075.066-.158 0-.096-.046-.15-.146-.161a2.593 2.593 0 0 0-.234-.015c-.517-.013-.81-.103-.882-.267-.071-.165-.103-.488-.103-.971v-6.062c0-.455.032-.772.095-.951.062-.174.359-.264.89-.264.062 0 .141-.006.234-.015.1-.013.146-.072.146-.178 0-.084-.022-.143-.066-.169a.381.381 0 0 0-.188-.038 9.65 9.65 0 0 0-.817.031 10.222 10.222 0 0 1-1.623 0 9.277 9.277 0 0 0-.816-.031.352.352 0 0 0-.183.038c-.046.026-.068.085-.068.169 0 .106.044.165.134.178.088.009.169.015.246.015.53 0 .824.09.885.264.068.179.099.496.099.951v1.911c0 .244-.027.398-.088.457-.059.059-.204.087-.437.087h-4.542c-.236 0-.38-.028-.445-.079-.063-.052-.095-.211-.095-.465v-1.911c0-.455.035-.772.103-.951.071-.174.365-.264.881-.264.074 0 .159-.006.256-.015.097-.013.14-.072.14-.178 0-.084-.023-.143-.078-.169a.351.351 0 0 0-.173-.038c-.294 0-.577.009-.834.031a10.177 10.177 0 0 1-1.621 0 9.197 9.197 0 0 0-.806-.031.335.335 0 0 0-.179.038c-.049.026-.07.085-.07.169 0 .106.046.165.135.178.091.009.166.015.23.015.53 0 .824.09.888.264.065.179.093.496.093.951v6.062c0 .473-.028.795-.093.971-.064.176-.358.267-.888.267-.064 0-.139.006-.23.015-.089.011-.135.065-.135.161 0 .083.021.138.07.158a.437.437 0 0 0 .179.033c.29 0 .563-.012.82-.033.261-.02.534-.029.817-.029.286 0 .555.009.805.029.248.021.525.033.819.033a.467.467 0 0 0 .173-.033c.055-.02.078-.075.078-.158 0-.096-.043-.15-.14-.161a2.857 2.857 0 0 0-.256-.015c-.516-.013-.81-.103-.881-.267-.068-.165-.103-.488-.103-.971zM230.966 399.663c.088 0 .14-.029.159-.09a.502.502 0 0 0 .031-.184c0-.233-.05-.498-.159-.784a2.12 2.12 0 0 0-.383-.686 2.238 2.238 0 0 0-.975-.7 3.272 3.272 0 0 0-1.185-.218 4.53 4.53 0 0 0-1.467.239 3.69 3.69 0 0 0-1.246.74c-.402.34-.683.712-.853 1.114a3.6 3.6 0 0 0-.243 1.355c0 .929.329 1.727.977 2.399.653.667 1.47.999 2.467.999.465 0 .888-.063 1.271-.193.38-.129.755-.335 1.116-.624.05-.041.161-.142.331-.296.173-.155.254-.281.254-.38a.094.094 0 0 0-.033-.07c-.023-.027-.048-.04-.093-.04-.097 0-.305.16-.625.481-.327.32-.859.482-1.598.482-.953 0-1.693-.263-2.232-.778-.534-.52-.803-1.288-.803-2.319 0-.232.043-.372.127-.395.081-.036.248-.052.476-.052zm-4.64-.371c-.075 0-.176 0-.306-.006-.135-.007-.201-.066-.201-.181 0-.132.057-.29.167-.477.111-.186.2-.318.264-.393.243-.289.539-.521.888-.706a2.331 2.331 0 0 1 1.094-.271c.247 0 .484.028.717.094.233.066.431.186.602.353.106.11.198.241.282.404.078.158.114.321.114.483 0 .169-.052.299-.158.39a1.011 1.011 0 0 1-.395.202 4.924 4.924 0 0 1-.944.093c-.41.012-.737.015-.977.015zM235.39 399.999c.271-.13.436-.229.485-.299.046-.066.069-.239.069-.516v-.579c0-.365-.069-.677-.213-.942-.143-.257-.446-.39-.914-.39-.455 0-.814.115-1.07.335a2.771 2.771 0 0 0-.664.899 2.655 2.655 0 0 1-.155.32.513.513 0 0 1-.269.225 3.392 3.392 0 0 1-.31.12.981.981 0 0 1-.329.072.322.322 0 0 1-.152-.03c-.034-.023-.052-.072-.052-.147 0-.198.074-.405.212-.601.143-.197.284-.348.422-.454.361-.31.783-.558 1.252-.739a4.013 4.013 0 0 1 2.193-.205c.257.042.467.141.637.301.18.15.274.318.285.504.008.194.018.384.018.587v3.497c0 .161.017.394.065.703.04.313.195.465.458.465.19 0 .332-.06.431-.183.093-.121.182-.185.251-.185.022 0 .043.012.065.04a.134.134 0 0 1 .037.088c0 .075-.052.156-.151.24-.092.086-.168.152-.218.212a4.066 4.066 0 0 1-.495.294 1.285 1.285 0 0 1-.57.139c-.371 0-.58-.176-.627-.521-.047-.352-.133-.524-.244-.524-.064 0-.351.19-.844.561-.498.374-1.082.561-1.747.561-.348 0-.675-.102-.972-.302-.294-.205-.44-.495-.44-.871 0-.509.265-.937.805-1.263a20.31 20.31 0 0 1 1.43-.803zm-1.237.915a4.547 4.547 0 0 0-.884.536c-.289.22-.435.512-.435.873 0 .292.124.501.375.644.249.135.513.208.8.208.264 0 .547-.052.847-.163.301-.105.539-.249.709-.432.179-.182.29-.35.321-.505.04-.154.058-.353.058-.6v-.979l.008-.214c.005-.123-.035-.187-.115-.187a.234.234 0 0 0-.078.024c-.033.017-.064.028-.086.04zM240.535 393.572c0-.055-.003-.111-.005-.167-.006-.057-.053-.088-.14-.088a.302.302 0 0 0-.159.064 2 2 0 0 0-.153.112 2.45 2.45 0 0 1-.613.278 6.85 6.85 0 0 1-.66.171.866.866 0 0 0-.139.046c-.059.021-.083.059-.083.114 0 .105.049.16.152.16h.244c.37 0 .574.132.61.395.041.258.057.525.057.792v6.733a4.1 4.1 0 0 1-.07.815c-.052.227-.28.364-.69.405-.075.011-.165.014-.266.02-.1.006-.145.068-.145.19 0 .048.02.088.068.107a.36.36 0 0 0 .134.035c.243 0 .485-.015.723-.035.239-.019.472-.034.709-.034.231 0 .467.015.705.034.238.02.48.035.724.035a.24.24 0 0 0 .129-.035c.026-.019.045-.062.045-.128 0-.095-.051-.148-.15-.159-.099-.011-.193-.019-.262-.03-.414-.041-.646-.178-.694-.405a3.95 3.95 0 0 1-.071-.815zM243.665 401.57c0 .457.048.865.144 1.211.094.348.369.524.823.524.276 0 .513-.091.71-.26.197-.172.326-.258.388-.258.022 0 .043.016.063.041.022.03.033.053.033.072 0 .075-.037.154-.115.232a1.468 1.468 0 0 1-.186.173 2.342 2.342 0 0 1-.644.403 1.875 1.875 0 0 1-.753.153 1.51 1.51 0 0 1-.559-.102 1.259 1.259 0 0 1-.458-.346c-.194-.233-.296-.528-.302-.876a30.97 30.97 0 0 1-.019-.967v-3.799c0-.151-.037-.232-.116-.244a3.571 3.571 0 0 0-.345-.014c-.041 0-.133.004-.268.008-.139.006-.206-.043-.206-.137 0-.053.022-.098.064-.126.044-.032.083-.066.125-.1.329-.202.597-.41.794-.63.203-.22.388-.505.557-.858.02-.032.041-.063.062-.09.025-.027.05-.04.081-.04.056 0 .088.018.103.048a.31.31 0 0 1 .024.131v1.042c0 .105.016.181.041.222.024.044.094.07.2.082h1.571c.074 0 .114.018.127.056a.542.542 0 0 1 .015.152c0 .16-.034.24-.103.24H244.223a9.79 9.79 0 0 0-.405.008c-.099.006-.153.111-.153.313zM247.812 397.982c.007.03.021.064.038.095.016.032.037.049.071.049.031 0 .067-.017.112-.049a.563.563 0 0 0 .079-.065 4.237 4.237 0 0 1 1.056-.73 3.082 3.082 0 0 1 1.296-.262c.304 0 .623.048.961.151.33.102.595.282.787.534.223.313.346.655.382 1.021.033.371.048.735.048 1.098v2.358c0 .319.008.593.035.815.03.227.243.364.646.405.084.011.175.019.277.03.099.011.153.064.153.159 0 .066-.02.109-.057.128a.287.287 0 0 1-.135.035c-.234 0-.471-.015-.715-.035a9.113 9.113 0 0 0-.698-.034c-.234 0-.474.015-.713.034-.247.02-.485.035-.72.035a.39.39 0 0 1-.148-.035.107.107 0 0 1-.072-.107c0-.122.051-.184.157-.19.107-.006.197-.009.274-.02.4-.041.638-.178.722-.405.079-.222.115-.496.115-.815v-2.548c0-.236-.008-.492-.031-.764a1.435 1.435 0 0 0-.22-.695c-.151-.227-.378-.395-.674-.506a2.687 2.687 0 0 0-.932-.167c-.285 0-.581.064-.889.2-.308.132-.56.301-.759.504-.216.224-.342.434-.384.625a3.611 3.611 0 0 0-.062.736v2.615c0 .319.037.593.109.815.075.227.317.364.732.405.074.011.161.019.259.03.105.011.152.064.152.159 0 .066-.014.109-.047.128a.234.234 0 0 1-.125.035c-.246 0-.483-.015-.723-.035a8.986 8.986 0 0 0-.708-.034c-.234 0-.469.015-.705.034-.237.02-.482.035-.726.035a.386.386 0 0 1-.135-.035c-.048-.019-.069-.059-.069-.107 0-.122.051-.184.153-.19.097-.006.185-.009.259-.02.412-.041.628-.178.653-.405.018-.222.031-.496.031-.815v-6.733c0-.267-.005-.534-.018-.792-.009-.263-.202-.395-.572-.395h-.245c-.101 0-.152-.055-.152-.16 0-.055.03-.093.08-.114.056-.02.101-.037.141-.046.217-.042.419-.102.622-.171.201-.067.393-.163.572-.278.045-.033.091-.071.16-.112a.268.268 0 0 1 .156-.064c.085 0 .132.024.136.079.009.053.01.108.01.159zM266.315 396.34c0 .054-.016.1-.043.128-.029.035-.063.05-.116.05-.205 0-.439-.311-.709-.938-.269-.625-.988-.94-2.155-.94-1.265 0-2.243.448-2.917 1.342a4.819 4.819 0 0 0-1.021 3.006c0 .522.104 1.03.316 1.521.204.491.466.953.781 1.38.338.459.744.836 1.218 1.131.47.293 1.011.44 1.623.44 1.167 0 1.897-.39 2.186-1.164.293-.776.539-1.16.742-1.16.061 0 .111.018.145.057.027.037.038.082.027.135l-.077 1.2c-.016.227-.038.372-.072.445-.04.068-.175.156-.406.26a6.78 6.78 0 0 1-1.327.461 6.431 6.431 0 0 1-1.406.153c-1.376 0-2.543-.483-3.503-1.448-.958-.957-1.437-2.09-1.437-3.396 0-1.367.531-2.509 1.588-3.415 1.062-.908 2.275-1.363 3.653-1.363.338 0 .74.037 1.2.115a6.35 6.35 0 0 1 1.184.286c.21.076.329.165.355.274.029.104.048.263.056.477zM267.073 400.37c0-.45.091-.887.273-1.306.178-.424.435-.785.762-1.084a3.286 3.286 0 0 1 1.246-.747 4.731 4.731 0 0 1 2.827-.033c.439.137.841.353 1.205.65.371.3.658.674.867 1.123.201.447.307.914.307 1.397 0 1.003-.371 1.832-1.114 2.492-.739.659-1.614.985-2.621.985-1.018 0-1.897-.326-2.637-.985-.742-.66-1.115-1.489-1.115-2.492zm6.5.096c0-.75-.239-1.469-.722-2.156-.483-.69-1.166-1.037-2.041-1.037-.841 0-1.505.319-2.007.947-.504.63-.759 1.32-.759 2.068 0 .737.261 1.471.772 2.195.513.728 1.196 1.092 2.053 1.092.816 0 1.474-.345 1.97-1.035.486-.688.734-1.382.734-2.074zM276.118 402.165c0 .318-.025.592-.072.816-.045.226-.277.359-.69.402a2.319 2.319 0 0 1-.265.023c-.102.007-.151.065-.151.185 0 .051.026.091.073.111a.345.345 0 0 0 .133.033c.244 0 .486-.012.726-.033.232-.02.472-.032.706-.032.232 0 .468.012.707.032.237.021.475.033.721.033a.229.229 0 0 0 .128-.033c.032-.02.048-.063.048-.127 0-.098-.052-.153-.154-.159-.1-.01-.185-.021-.262-.033-.407-.043-.641-.176-.686-.402a3.645 3.645 0 0 1-.073-.816v-2.472c0-.299.039-.542.118-.736.082-.193.225-.405.435-.64.2-.202.431-.359.685-.476.257-.112.526-.169.811-.169.453 0 .783.063.99.187.209.123.379.286.518.489.126.204.205.44.232.704.025.267.035.52.035.756v2.357c0 .318-.027.592-.078.816-.051.226-.281.359-.686.402a2.578 2.578 0 0 1-.277.023c-.098.007-.15.065-.15.185 0 .051.027.091.076.111a.358.358 0 0 0 .15.033c.235 0 .467-.012.705-.033.239-.02.477-.032.723-.032.225 0 .455.012.701.032.243.021.481.033.713.033a.25.25 0 0 0 .131-.033c.038-.02.057-.063.057-.127 0-.098-.049-.153-.155-.159a4 4 0 0 1-.274-.033c-.398-.043-.63-.176-.681-.402a3.607 3.607 0 0 1-.08-.816v-2.344c0-.36-.012-.716-.037-1.065-.025-.345-.164-.668-.408-.967a2.08 2.08 0 0 0-.705-.597c-.26-.124-.594-.191-.991-.191-.693 0-1.245.199-1.661.602-.421.4-.691.597-.818.597v-.974c0-.055-.006-.105-.006-.155-.007-.046-.057-.07-.139-.07a.21.21 0 0 0-.142.057 1.074 1.074 0 0 0-.126.119c-.118.141-.312.289-.58.45a2.83 2.83 0 0 1-.678.319c-.059.022-.135.048-.221.082-.084.031-.127.093-.127.172 0 .044.022.075.063.091a.324.324 0 0 0 .127.026h.193c.063 0 .156.007.278.022.119.016.203.05.248.103.082.075.128.223.128.449.01.225.014.393.014.498zM284.659 401.57c0 .457.047.865.145 1.211.095.348.367.524.828.524.273 0 .51-.091.705-.26.195-.172.322-.258.389-.258.021 0 .043.016.062.041.022.03.031.053.031.072 0 .075-.033.154-.111.232a1.01 1.01 0 0 1-.191.173 2.198 2.198 0 0 1-.643.403 1.86 1.86 0 0 1-.75.153c-.205 0-.393-.035-.56-.102a1.253 1.253 0 0 1-.459-.346c-.19-.233-.291-.528-.303-.876-.011-.346-.011-.669-.011-.967v-3.799c0-.151-.045-.232-.123-.244a3.563 3.563 0 0 0-.342-.014c-.041 0-.132.004-.27.008-.137.006-.206-.043-.206-.137a.14.14 0 0 1 .066-.126l.128-.1c.323-.202.594-.41.79-.63.2-.22.389-.505.557-.858a.48.48 0 0 1 .065-.09.092.092 0 0 1 .073-.04c.059 0 .09.018.108.048a.297.297 0 0 1 .022.131v1.042c0 .105.021.181.044.222.025.044.091.07.196.082h1.571c.074 0 .113.018.129.056a.542.542 0 0 1 .015.152c0 .16-.033.24-.101.24H285.216c-.168 0-.305.004-.405.008-.099.006-.152.111-.152.313zM287.993 399.389c0-.105-.003-.273-.007-.498-.004-.226-.048-.374-.135-.449-.041-.053-.127-.087-.248-.103a2.361 2.361 0 0 0-.276-.022h-.189a.32.32 0 0 1-.129-.026.092.092 0 0 1-.061-.091c0-.079.041-.141.127-.172.082-.034.154-.06.221-.082.182-.052.394-.157.634-.319.246-.161.425-.309.54-.45.045-.045.087-.084.127-.119a.221.221 0 0 1 .143-.057c.083 0 .129.024.135.07.008.05.008.1.008.155V398.122c0 .087.025.129.082.129.071 0 .269-.196.596-.592.319-.395.741-.591 1.263-.591.22 0 .417.06.591.19.179.13.264.306.264.531 0 .191-.059.337-.179.441a.71.71 0 0 1-.456.149c-.253 0-.426-.092-.514-.279a.466.466 0 0 0-.455-.282.79.79 0 0 0-.482.176 1.949 1.949 0 0 0-.363.354c-.175.245-.281.479-.304.697a6.211 6.211 0 0 0-.043.776v2.344c0 .318.025.592.07.816.049.226.277.359.694.402.078.012.162.023.262.033.1.006.149.061.149.159 0 .064-.013.107-.046.127a.232.232 0 0 1-.129.033 8.2 8.2 0 0 1-.719-.033 8.483 8.483 0 0 0-.713-.032c-.228 0-.465.012-.703.032a8.162 8.162 0 0 1-.722.033.325.325 0 0 1-.132-.033.117.117 0 0 1-.075-.111c0-.12.051-.178.153-.185.099-.004.185-.011.257-.023.414-.043.649-.176.694-.402.049-.224.07-.498.07-.816zM292.852 402.862c.744.659 1.625.985 2.638.985 1.006 0 1.88-.326 2.62-.985.741-.66 1.115-1.489 1.115-2.492 0-.483-.106-.95-.308-1.397a3.119 3.119 0 0 0-.87-1.123 3.502 3.502 0 0 0-1.195-.65 4.725 4.725 0 0 0-1.362-.199c-.507 0-.998.079-1.467.232a3.328 3.328 0 0 0-1.249.747c-.33.299-.581.66-.758 1.084a3.236 3.236 0 0 0-.275 1.306c0 1.003.374 1.832 1.111 2.492zm4.652-.322c-.498.69-1.151 1.035-1.966 1.035-.858 0-1.545-.364-2.055-1.092-.516-.724-.77-1.458-.77-2.195 0-.748.249-1.438.756-2.068.498-.628 1.168-.947 2.006-.947.878 0 1.555.347 2.044 1.037.475.687.719 1.406.719 2.156 0 .692-.244 1.386-.734 2.074zM301.673 402.182c0 .319.023.593.067.815.05.227.278.364.691.405.078.011.16.019.262.03.105.011.151.064.151.159 0 .066-.016.109-.046.128a.241.241 0 0 1-.127.035c-.243 0-.485-.015-.721-.035a9.06 9.06 0 0 0-.71-.034c-.231 0-.465.015-.708.034a8.4 8.4 0 0 1-.718.035.347.347 0 0 1-.137-.035.111.111 0 0 1-.074-.107c0-.122.053-.184.154-.19.101-.006.186-.009.261-.02.414-.041.643-.178.688-.405a4.13 4.13 0 0 0 .076-.815v-6.733c0-.267-.018-.534-.054-.792-.042-.263-.248-.395-.613-.395h-.25c-.1 0-.154-.055-.154-.16 0-.055.033-.093.084-.114.056-.02.101-.037.141-.046.214-.042.432-.102.665-.171.224-.067.426-.163.61-.278.04-.033.091-.071.159-.112.064-.045.115-.064.157-.064.085 0 .131.031.137.088.003.056.009.112.009.167zM308.944 402.022a11.38 11.38 0 0 1-.135.388c-.045.143-.07.287-.07.422 0 .236.127.387.374.443.248.062.461.089.625.089.079 0 .162.004.26.016.094.013.142.071.142.176 0 .086-.045.135-.121.152a1.334 1.334 0 0 1-.247.025 7.16 7.16 0 0 1-.624-.033 6.76 6.76 0 0 0-.647-.034c-.2 0-.408.013-.614.034a7.322 7.322 0 0 1-.642.033c-.073 0-.18.002-.32.006-.149.006-.22-.048-.22-.169 0-.104.053-.164.162-.183.109-.013.191-.023.254-.023.138 0 .275-.018.404-.043a.688.688 0 0 0 .362-.198c.093-.097.198-.28.311-.553l.258-.604 2.905-7.422a.966.966 0 0 1 .088-.204c.037-.078.094-.115.164-.115.067 0 .114.032.147.095.031.065.049.122.064.176l3.048 7.442c.128.285.275.597.447.928.164.329.427.498.793.498.08 0 .182.01.283.023.105.019.162.081.162.203 0 .06-.031.101-.091.118a.551.551 0 0 1-.135.025c-.327 0-.613-.014-.848-.033a9.958 9.958 0 0 0-.865-.034c-.263 0-.54.013-.829.034-.281.019-.562.033-.84.033a.572.572 0 0 1-.148-.025c-.059-.017-.092-.058-.092-.118 0-.122.057-.184.161-.203.101-.013.198-.023.273-.023.196 0 .41-.021.63-.056.226-.037.335-.16.335-.376 0-.119-.027-.244-.075-.383a10.316 10.316 0 0 1-.132-.355l-.492-1.124c-.158-.382-.265-.604-.31-.664-.049-.06-.255-.09-.622-.09h-2.337c-.296 0-.465.03-.502.09-.034.06-.114.229-.233.506zm.956-2.407c-.007.019-.023.048-.033.085a.397.397 0 0 0-.015.091c0 .06.082.09.243.087a7.42 7.42 0 0 1 .301-.012h2.276c.125 0 .181-.034.181-.109a.588.588 0 0 0-.047-.185.645.645 0 0 0-.064-.152l-1.19-2.952a1.727 1.727 0 0 0-.088-.191c-.048-.097-.087-.142-.12-.142-.037 0-.087.033-.127.108a1.298 1.298 0 0 0-.094.197zM316.607 402.885c0 .116.003.221.016.31.009.094.079.166.211.221.242.129.551.232.934.308.382.084.705.123.967.123.648 0 1.289-.177 1.923-.534.638-.362.952-.871.952-1.535 0-1.218-.629-1.867-1.887-1.946-1.262-.082-1.893-.555-1.893-1.418 0-.345.157-.624.469-.845.312-.217.624-.329.931-.329.813 0 1.277.233 1.387.702.112.462.263.698.458.698.119 0 .176-.114.163-.33a6.637 6.637 0 0 1-.024-.391c0-.123.006-.25.014-.39.013-.14-.047-.235-.173-.289-.179-.085-.438-.147-.771-.182a7.343 7.343 0 0 0-.784-.057c-.315 0-.631.033-.927.094a2.2 2.2 0 0 0-.854.389 2.169 2.169 0 0 0-.591.559 1.255 1.255 0 0 0-.215.721c0 .61.262 1.039.806 1.282.54.243 1.046.442 1.511.593.357.12.693.281.989.482.303.202.455.515.455.93 0 .483-.196.86-.589 1.133a2.172 2.172 0 0 1-1.255.407c-1.027 0-1.545-.339-1.555-1.021-.012-.673-.153-1.016-.43-1.016-.072 0-.117.041-.143.12-.02.082-.037.153-.045.219zM322.293 401.893c.014-.066.026-.137.045-.219.019-.079.074-.12.148-.12.273 0 .415.343.426 1.016.011.682.532 1.021 1.559 1.021.444 0 .86-.136 1.254-.407a1.31 1.31 0 0 0 .586-1.133c0-.415-.148-.728-.452-.93a4.19 4.19 0 0 0-.993-.482c-.465-.151-.971-.35-1.508-.593-.543-.243-.809-.672-.809-1.282 0-.266.075-.507.221-.721a2.1 2.1 0 0 1 .588-.559c.266-.198.548-.322.848-.389.302-.061.611-.094.93-.094.195 0 .453.019.785.057.334.035.591.097.772.182.13.054.187.149.177.289-.011.14-.019.267-.019.39 0 .039.008.169.025.391.019.216-.038.33-.171.33-.185 0-.335-.236-.45-.698-.108-.469-.572-.702-1.389-.702-.306 0-.619.112-.926.329-.316.221-.473.5-.473.845 0 .863.633 1.336 1.891 1.418 1.26.079 1.893.728 1.893 1.946 0 .664-.322 1.173-.953 1.535-.641.357-1.278.534-1.923.534a4.67 4.67 0 0 1-.972-.123 3.458 3.458 0 0 1-.935-.308c-.13-.055-.197-.127-.208-.221a2.875 2.875 0 0 1-.013-.31zM327.909 400.37c0-.45.09-.887.272-1.306.178-.424.431-.785.76-1.084.36-.341.776-.591 1.249-.747a4.73 4.73 0 0 1 2.828-.033c.434.137.835.353 1.197.65.371.3.659.674.863 1.123.209.447.311.914.311 1.397 0 1.003-.368 1.832-1.111 2.492-.739.659-1.612.985-2.622.985-1.018 0-1.896-.326-2.635-.985-.74-.66-1.112-1.489-1.112-2.492zm6.5.096c0-.75-.245-1.469-.725-2.156-.486-.69-1.165-1.037-2.044-1.037-.835 0-1.502.319-2.008.947-.504.63-.754 1.32-.754 2.068 0 .737.255 1.471.769 2.195.517.728 1.196 1.092 2.054 1.092.815 0 1.47-.345 1.965-1.035.488-.688.743-1.382.743-2.074zM341.879 398.538a5.768 5.768 0 0 1 0-.749.333.333 0 0 0-.139-.305c-.226-.174-.528-.297-.887-.371a4.79 4.79 0 0 0-.969-.112c-1.007 0-1.913.342-2.714 1.027-.807.685-1.208 1.527-1.208 2.532 0 .896.327 1.67.993 2.318.66.644 1.459.969 2.385.969.409 0 .795-.057 1.172-.171a3.193 3.193 0 0 0 1.026-.551c.052-.044.135-.124.259-.24.127-.116.187-.214.187-.289 0-.023-.015-.044-.038-.073-.018-.025-.041-.04-.06-.04-.043 0-.089.023-.134.066-.049.043-.084.075-.105.092-.229.24-.499.404-.794.507a2.8 2.8 0 0 1-.936.157c-.839 0-1.545-.288-2.118-.859-.581-.574-.87-1.249-.87-2.028 0-.624.126-1.129.368-1.527.239-.393.538-.735.885-1.024.2-.172.442-.314.72-.433.276-.116.543-.176.807-.176.613 0 1.038.269 1.267.809.236.54.468.809.704.809.136 0 .205-.112.199-.338zM344.496 402.176c0 .322.03.593.082.817.054.226.282.359.683.402l.277.033c.099.012.151.063.151.162 0 .06-.019.104-.055.124a.238.238 0 0 1-.135.033c-.233 0-.469-.008-.71-.033a8.726 8.726 0 0 0-1.419 0 6.939 6.939 0 0 1-.712.033.312.312 0 0 1-.153-.033.112.112 0 0 1-.071-.108c0-.118.052-.184.158-.185.104-.005.196-.015.269-.026.404-.043.633-.176.682-.402.057-.224.084-.495.084-.817v-2.775c0-.105-.006-.271-.019-.495-.008-.225-.057-.375-.143-.449-.041-.053-.119-.088-.243-.106a3.218 3.218 0 0 0-.262-.022h-.208a.345.345 0 0 1-.119-.023c-.038-.019-.057-.043-.057-.09 0-.082.039-.147.12-.176.079-.03.156-.058.231-.079a2.37 2.37 0 0 0 .633-.322c.243-.161.422-.308.543-.448.03-.044.067-.081.109-.123a.244.244 0 0 1 .16-.055c.075 0 .112.025.121.07l.003.154zm-1.172-7.184c0-.181.061-.344.191-.496a.606.606 0 0 1 .49-.221c.202 0 .36.067.47.214a.764.764 0 0 1 .167.471.86.86 0 0 1-.167.529c-.11.151-.279.226-.5.226a.598.598 0 0 1-.476-.207.777.777 0 0 1-.175-.516zM349.607 399.999c.271-.13.437-.229.485-.299.049-.066.07-.239.07-.516v-.579c0-.365-.07-.677-.214-.942-.145-.257-.45-.39-.918-.39-.45 0-.808.115-1.069.335-.26.229-.48.526-.66.899-.052.118-.107.226-.154.32a.542.542 0 0 1-.269.225 3.513 3.513 0 0 1-.316.12.977.977 0 0 1-.327.072.306.306 0 0 1-.149-.03c-.038-.023-.059-.072-.059-.147 0-.198.08-.405.217-.601.146-.197.283-.348.422-.454.357-.31.775-.558 1.254-.739.478-.184.96-.272 1.447-.272.243 0 .49.023.746.067.26.042.465.141.634.301.185.15.275.318.287.504.009.194.018.384.018.587v3.497c0 .161.018.394.061.703.042.313.193.465.462.465.19 0 .331-.06.428-.183.098-.121.181-.185.256-.185.016 0 .041.012.059.04a.115.115 0 0 1 .035.088c0 .075-.051.156-.144.24-.097.086-.17.152-.225.212a3.373 3.373 0 0 1-.491.294 1.295 1.295 0 0 1-.57.139c-.371 0-.583-.176-.629-.521-.05-.352-.128-.524-.243-.524-.061 0-.348.19-.845.561-.499.374-1.078.561-1.746.561-.35 0-.673-.102-.969-.302-.296-.205-.443-.495-.443-.871 0-.509.268-.937.806-1.263a19.043 19.043 0 0 1 1.433-.803zm-1.241.915a4.719 4.719 0 0 0-.882.536c-.29.22-.434.512-.434.873 0 .292.124.501.368.644.251.135.521.208.806.208.262 0 .547-.052.851-.163.298-.105.535-.249.704-.432.181-.182.289-.35.326-.505a2.52 2.52 0 0 0 .057-.6v-.979c0-.023.002-.096.008-.214.004-.123-.035-.187-.119-.187a.206.206 0 0 0-.073.024c-.036.017-.067.028-.087.04zM354.354 401.57c0 .457.048.865.143 1.211.094.348.371.524.824.524.278 0 .515-.091.712-.26.196-.172.323-.258.39-.258.02 0 .035.016.057.041.024.03.035.053.035.072 0 .075-.038.154-.111.232a1.517 1.517 0 0 1-.191.173c-.19.166-.407.307-.648.403a1.828 1.828 0 0 1-.749.153c-.199 0-.388-.035-.555-.102a1.268 1.268 0 0 1-.461-.346c-.191-.233-.293-.528-.3-.876a20.687 20.687 0 0 1-.019-.967v-3.799c0-.151-.041-.232-.12-.244a3.476 3.476 0 0 0-.339-.014c-.041 0-.134.004-.273.008-.139.006-.203-.043-.203-.137 0-.053.024-.098.063-.126l.125-.1c.326-.202.597-.41.796-.63.2-.22.386-.505.555-.858a.751.751 0 0 1 .062-.09c.026-.027.05-.04.081-.04.051 0 .089.018.102.048a.27.27 0 0 1 .024.131v1.042c0 .105.012.181.045.222.022.044.091.07.198.082h1.565c.075 0 .12.018.13.056a.62.62 0 0 1 .016.152c0 .16-.034.24-.105.24h-1.29c-.17 0-.308.004-.404.008-.104.006-.155.111-.155.313zM358.697 397.237c0-.05-.002-.105-.007-.154-.005-.045-.043-.07-.117-.07a.245.245 0 0 0-.161.055c-.043.042-.082.079-.112.123-.112.14-.296.287-.54.448-.244.165-.454.27-.632.322-.077.021-.15.049-.234.079-.079.029-.116.094-.116.176 0 .047.018.071.055.09a.318.318 0 0 0 .118.023h.21c.052 0 .137.009.255.022.126.018.213.053.25.106.085.074.131.224.142.449.011.224.018.39.018.495v2.775c0 .322-.029.593-.078.817-.056.226-.285.359-.686.402a2.843 2.843 0 0 1-.271.026c-.106.001-.158.067-.158.185 0 .051.024.088.073.108a.305.305 0 0 0 .151.033c.232 0 .471-.008.711-.033a8.824 8.824 0 0 1 1.425 0c.238.025.469.033.705.033a.234.234 0 0 0 .135-.033c.037-.02.052-.064.052-.124 0-.099-.048-.15-.149-.162-.102-.012-.192-.022-.274-.033-.402-.043-.632-.176-.685-.402a3.536 3.536 0 0 1-.08-.817zm-1-1.729c.119.136.28.207.479.207.221 0 .386-.075.496-.226a.863.863 0 0 0 .171-.529.769.769 0 0 0-.171-.471c-.11-.147-.266-.214-.466-.214a.611.611 0 0 0-.492.221.744.744 0 0 0-.191.496c0 .207.056.376.174.516zM360.23 400.37c0-.45.09-.887.27-1.306.179-.424.432-.785.766-1.084a3.237 3.237 0 0 1 1.247-.747 4.685 4.685 0 0 1 1.465-.232c.467 0 .92.067 1.358.199.44.137.842.353 1.201.65.372.3.657.674.863 1.123.206.447.312.914.312 1.397 0 1.003-.369 1.832-1.11 2.492-.744.659-1.617.985-2.624.985-1.014 0-1.895-.326-2.638-.985-.743-.66-1.11-1.489-1.11-2.492zm6.494.096c0-.75-.239-1.469-.718-2.156-.481-.69-1.165-1.037-2.043-1.037-.834 0-1.503.319-2.008.947-.506.63-.759 1.32-.759 2.068 0 .737.259 1.471.775 2.195.513.728 1.201 1.092 2.052 1.092.818 0 1.472-.345 1.964-1.035.492-.688.737-1.382.737-2.074zM369.27 399.389c0-.105-.006-.273-.01-.498-.003-.226-.051-.374-.133-.449-.043-.053-.127-.087-.247-.103a2.41 2.41 0 0 0-.276-.022h-.195a.3.3 0 0 1-.124-.026c-.046-.016-.067-.047-.067-.091 0-.079.045-.141.128-.172.089-.034.165-.06.222-.082.182-.052.408-.157.677-.319.271-.161.464-.309.579-.45.043-.045.085-.084.126-.119a.215.215 0 0 1 .143-.057c.086 0 .135.024.136.07.006.05.009.1.009.155v.974c.129 0 .399-.197.819-.597.418-.403.972-.602 1.66-.602.401 0 .727.067.989.191.259.127.498.327.71.597.244.299.375.622.404.967.028.349.042.705.042 1.065v2.344c0 .318.023.592.076.816.051.226.281.359.685.402.073.012.162.023.269.033.106.006.16.061.16.159 0 .064-.019.107-.058.127a.267.267 0 0 1-.135.033c-.232 0-.469-.012-.712-.033a8.608 8.608 0 0 0-.701-.032c-.242 0-.483.012-.721.032a8.144 8.144 0 0 1-.707.033.377.377 0 0 1-.151-.033c-.049-.02-.072-.06-.072-.111 0-.12.051-.178.151-.185.102-.004.192-.011.278-.023.401-.043.629-.176.682-.402a3.56 3.56 0 0 0 .078-.816v-2.357a7.85 7.85 0 0 0-.04-.756 1.611 1.611 0 0 0-.225-.704 1.71 1.71 0 0 0-.518-.489c-.207-.124-.54-.187-.992-.187-.286 0-.556.057-.812.169a2.298 2.298 0 0 0-.682.476c-.214.235-.362.447-.438.64a1.954 1.954 0 0 0-.121.736v2.472c0 .318.027.592.073.816.048.226.277.359.688.402.075.012.166.023.266.033.102.006.151.061.151.159 0 .064-.018.107-.049.127a.23.23 0 0 1-.127.033c-.244 0-.486-.012-.722-.033a8.36 8.36 0 0 0-.703-.032c-.237 0-.473.012-.712.032a8.167 8.167 0 0 1-.723.033.293.293 0 0 1-.128-.033.11.11 0 0 1-.075-.111c0-.12.048-.178.144-.185.107-.004.196-.011.272-.023.408-.043.64-.176.685-.402a3.89 3.89 0 0 0 .074-.816zM378.295 399.799h151.664" style="fill:#2c2c2b;stroke:none" transform="translate(-137.526 -847.012) scale(2.18284)"/></svg>