<svg xmlns="http://www.w3.org/2000/svg" xml:space="preserve" width="377.95334" height="377.95334" viewBox="0 0 377.95333 377.95334"><defs><clipPath id="a" clipPathUnits="userSpaceOnUse"><path d="M155.98 297.64c0-43.354 35.148-78.506 78.504-78.506 43.359 0 78.505 35.152 78.505 78.506 0 43.356-35.146 78.507-78.505 78.507-43.356 0-78.504-35.151-78.504-78.507"/></clipPath><clipPath id="b" clipPathUnits="userSpaceOnUse"><path d="M0 595.28h841.89V0H0Z"/></clipPath><clipPath id="c" clipPathUnits="userSpaceOnUse"><path d="M155.98 297.64c0-43.358 35.148-78.504 78.504-78.504 43.359 0 78.505 35.146 78.505 78.504 0 43.359-35.146 78.505-78.505 78.505-43.356 0-78.504-35.146-78.504-78.505"/></clipPath></defs><path d="M0 0c-65.789 0-119.313-53.524-119.313-119.313 0-65.79 53.524-119.313 119.313-119.313 65.79 0 119.313 53.523 119.313 119.313C119.313-53.524 65.79 0 0 0m0-239.787c-66.429 0-120.473 54.045-120.473 120.474S-66.429 1.159 0 1.159s120.474-54.043 120.474-120.472S66.429-239.787 0-239.787" style="fill:#294d9e;fill-opacity:1;fill-rule:nonzero;stroke:none" transform="matrix(1.33333 0 0 -1.33333 188.977 29.892)"/><path d="M586.146 177.167c-66.429 0-120.473 54.045-120.473 120.473 0 66.429 54.044 120.472 120.473 120.472 66.428 0 120.473-54.043 120.473-120.472 0-66.428-54.045-120.473-120.473-120.473" style="fill:#1d439b;fill-opacity:1;fill-rule:nonzero;stroke:none;stroke-width:.999996" transform="matrix(1.33333 0 0 -1.33333 -592.55 585.83)"/><path d="M188.977 29.893c-87.719 0-159.082 71.365-159.082 159.084 0 87.72 71.363 159.082 159.082 159.082 87.72 0 159.084-71.363 159.084-159.082S276.696 29.893 188.977 29.893zm0 4.35c85.32 0 154.736 69.413 154.736 154.734 0 85.32-69.415 154.734-154.736 154.734-85.32 0-154.735-69.413-154.735-154.734 0-85.321 69.415-154.735 154.735-154.735zm0 6.179c-81.913 0-148.553 66.642-148.553 148.555 0 81.911 66.64 148.554 148.553 148.554s148.556-66.643 148.556-148.554c0-81.913-66.643-148.555-148.556-148.555zm11.18 10.892 3.54.457-1.324 10.243c-.148 1.148-.12 2 .082 2.564.301.988 1.159 1.574 2.572 1.758 1.404.181 2.378-.17 2.92-1.05.339-.493.58-1.313.729-2.458L210 52.584l3.541.459-1.322 10.25c-.23 1.775-.684 3.12-1.362 4.035-1.257 1.68-3.327 2.334-6.212 1.96-2.883-.372-4.728-1.53-5.524-3.474-.423-1.058-.518-2.474-.289-4.248l1.324-10.252zm-21.356.112.861 13.765 8.383-.523.184 3.018-11.885.744-1.051-16.785 3.508-.22zM164.395 53.3l8.931 15.441-3.744.7-1.727-3.196-6.087 1.135-.487 3.61-3.613.671 2.816-17.633 3.91-.728zm54.88.908 3.551.98 3.31 13.084 3.126-11.302 3.156.87-4.482 16.212-3.385-.936-3.422-13.328-3.176 11.502-3.156-.871 4.478-16.211zm-70.078 2.562 5.645 15.844-3.31 1.176-10.454-8.943 4.004 11.242-3.086 1.1-5.642-15.844 3.472-1.235 10.223 8.805-3.934-11.047 3.082-1.098zm13.91.682-.931 6.902 4.234-.789-3.303-6.113zm73.956 2.193 3.253 1.258-6.06 15.69-3.256-1.26 6.063-15.688zm6.984 2.62 3.357 1.675-2.425 13.055 8.994-9.781 3.267 1.629-12.635 12.492-2.97-1.482 2.412-17.588zm-116.793 3.627a5.847 5.847 0 0 1 2.035.261c2.224.555 4.068 2.19 5.53 4.9 1.431 2.66 1.782 5.097 1.048 7.313-.496 1.758-1.803 3.203-3.918 4.342-2.116 1.141-4.044 1.433-5.783.887-2.261-.606-4.109-2.237-5.541-4.897-1.463-2.71-1.807-5.151-1.04-7.318.5-1.755 1.806-3.2 3.92-4.342 1.323-.712 2.573-1.094 3.749-1.146zm-.504 3.22c-.609.035-1.219.218-1.832.55-1.224.66-1.959 1.637-2.201 2.935-.243 1.297.085 2.78.982 4.447.898 1.668 1.957 2.755 3.174 3.267 1.216.511 2.437.437 3.662-.224 1.225-.66 1.954-1.636 2.188-2.93.233-1.292-.098-2.769-.998-4.435-.895-1.662-1.947-2.754-3.155-3.274a3.985 3.985 0 0 0-1.82-.336zm134.38 2.112 10.24 6.88-1.665 2.475-7.387-4.965-1.988 2.965 6.78 4.555-1.63 2.424-6.78-4.557-2.413 3.59 7.725 5.193-1.684 2.51-10.576-7.11 9.379-13.96zm-148.98 3.248 9.563 13.836-2.871 1.986-9.565-13.834 2.873-1.988zm-6.486 4.441 1.916 2.281-3.851 3.239 8.906 10.591-2.705 2.276-8.909-10.592-3.869 3.252-1.914-2.277 10.426-8.77zm83.313.893c60.195 0 109.168 48.974 109.168 109.17 0 60.195-48.973 109.168-109.168 109.168-60.195 0-109.168-48.973-109.168-109.168 0-60.196 48.973-109.17 109.168-109.17zm0 1.545c-59.344 0-107.622 48.28-107.622 107.625 0 59.343 48.278 107.625 107.622 107.625 59.345 0 107.623-48.282 107.623-107.625 0-59.346-48.278-107.625-107.623-107.625zm86.886.226 6.014 5.344c.844.78 1.411 1.475 1.695 2.086.286.61.419 1.252.395 1.926a5.115 5.115 0 0 1-.307 1.619c-.19.521-.503 1.03-.943 1.525-.53.6-1.203 1.051-2.016 1.36-.814.31-1.675.277-2.58-.1.372.747.49 1.443.352 2.09-.14.641-.603 1.404-1.387 2.287l-.748.844c-.51.576-.837.981-.973 1.228-.218.387-.267.769-.15 1.149l-.28.314-2.9-2.576c.167-.348.314-.624.43-.826.245-.411.526-.807.851-1.18l1.022-1.186c.7-.809 1.036-1.47 1.008-1.972-.03-.504-.41-1.08-1.139-1.729l-2.566-2.281-4.381 4.93-2.569-2.282 11.172-12.57zm.627 4.463-3 3.379 2.826 2.512c.56.498 1.044.806 1.446.918.708.204 1.376-.048 2.002-.752.677-.763.894-1.488.644-2.176-.138-.388-.477-.823-1.015-1.303l-2.903-2.578zM89.668 93.367l16.361 7.104-2.595 2.79-3.288-1.542-4.218 4.531 1.754 3.191-2.506 2.69-8.219-15.854 2.711-2.91zm199.672 2.754c.18.006.362.02.547.043 1.478.193 2.916 1.107 4.314 2.736 1.17 1.362 1.81 2.829 1.922 4.4.112 1.574-.49 2.967-1.807 4.177l-2.199-2.565c.724-.705.978-1.516.754-2.432-.153-.609-.501-1.23-1.043-1.863-.605-.704-1.227-1.146-1.863-1.33-.637-.183-1.206-.061-1.703.365-.456.392-.617.89-.487 1.498.078.395.388 1.11.926 2.149l1.395 2.693c.612 1.179.933 2.18.966 3.002.053 1.276-.487 2.401-1.625 3.377-1.163 1.003-2.522 1.383-4.066 1.143-1.541-.242-3.02-1.185-4.432-2.83-1.442-1.678-2.2-3.325-2.267-4.94-.067-1.615.563-2.99 1.89-4.129l2.186 2.545c-.51.583-.807 1.117-.89 1.608-.146.893.242 1.875 1.163 2.947.552.641 1.07 1.107 1.551 1.387.918.534 1.74.488 2.461-.13.419-.363.587-.828.496-1.4-.093-.566-.4-1.325-.924-2.281l-.882-1.645c-.864-1.614-1.338-2.826-1.422-3.636-.148-1.367.4-2.588 1.652-3.662 1.001-.858 2.13-1.267 3.387-1.227zM91.1 97.471l3.359 6.105 2.934-3.15L91.1 97.47zm-11.541 7.43 13.836 9.556-1.997 2.89-13.709-1.146 9.819 6.78-1.86 2.695-13.84-9.557 2.096-3.031 13.442 1.17-9.649-6.664 1.862-2.694zm221.236 3.119 2.016 2.85-13.737 9.702-2.013-2.851 13.734-9.701zm4.217 5.867 6.836 11.781-2.577 1.496-2.525-4.353-11.969 6.945-1.777-3.059 11.973-6.945-2.54-4.373 2.579-1.492zm8.195 14.431 1.615 3.813-5.388 6.068 8.048.227 1.553 3.668-11.873-1.084-5.807 2.453-1.369-3.234 5.807-2.458 7.414-9.453zm-248.709 1.125 15.514 6.493-1.36 3.242-13.648 1.707 11.006 4.607-1.264 3.022-15.512-6.494 1.422-3.4 13.395-1.63-10.817-4.527 1.264-3.02zm-2.262 19.858c.97-.004 2.013.134 3.133.414 2.93.732 4.967 2.117 6.113 4.15.96 1.55 1.15 3.492.567 5.822-.583 2.331-1.66 3.956-3.238 4.87-1.97 1.265-4.42 1.532-7.35.798-2.988-.748-5.026-2.134-6.111-4.16-.962-1.549-1.151-3.491-.569-5.822.586-2.33 1.663-3.956 3.24-4.871 1.195-.795 2.6-1.195 4.215-1.201zm-.226 3.513c-.757.022-1.436.168-2.035.44-1.2.543-1.964 1.488-2.303 2.842-.337 1.349-.11 2.551.683 3.603.798 1.052 2.114 1.811 3.952 2.27 1.838.458 3.356.413 4.552-.143 1.198-.556 1.966-1.51 2.303-2.86.337-1.353.107-2.546-.691-3.59-.799-1.043-2.116-1.792-3.953-2.251-.916-.228-1.751-.332-2.508-.31zm260.472.594.75 3.41-6.26 1.38 1.407 6.386 6.262-1.383.752 3.412-16.424 3.62-.752-3.413 7.33-1.615-1.406-6.385-7.33 1.616-.752-3.407 16.423-3.62zM52.273 168.373l16.438 5.926-.24 3.355-9.957 1.32-3.287.36 3.2.824 9.665 2.733-.235 3.254-17.115 3.55.266-3.72 9.765-1.526 2.71-.289-2.585-.674-9.523-2.588.266-3.697 9.746-1.303 2.713-.316-2.536-.707-9.546-2.934.255-3.568zm266.58 3.402c2.534.003 4.53.699 5.987 2.088 1.396 1.171 2.183 2.955 2.357 5.354.175 2.397-.348 4.275-1.558 5.637-1.418 1.803-3.661 2.82-6.735 3.04-3.01.22-5.38-.455-7.103-2.03-1.396-1.173-2.183-2.96-2.358-5.354-.173-2.4.346-4.278 1.557-5.64 1.477-1.816 3.721-2.835 6.734-3.054.384-.027.758-.041 1.12-.04zm.477 3.504c-.422-.021-.87-.015-1.342.02-1.888.137-3.316.656-4.279 1.558-.964.903-1.394 2.046-1.293 3.434.099 1.388.693 2.453 1.775 3.193 1.083.744 2.571 1.044 4.46.907 1.882-.138 3.305-.653 4.275-1.543.968-.89 1.401-2.028 1.299-3.416-.102-1.388-.692-2.46-1.776-3.211-.814-.563-1.853-.878-3.119-.942zm-4.377 14.877c.208-.006.42-.004.639.01l-.211 3.348c-.77.062-1.359.239-1.756.53-.73.54-1.138 1.511-1.229 2.925-.049.844-.001 1.536.147 2.076.287 1.021.904 1.561 1.852 1.621.557.035 1-.183 1.335-.652.326-.472.637-1.234.932-2.285l.512-1.792c.508-1.76 1.013-2.96 1.517-3.6.847-1.082 2.095-1.57 3.74-1.466 1.503.093 2.718.727 3.643 1.895.924 1.169 1.317 2.827 1.184 4.972-.112 1.79-.676 3.285-1.694 4.49-1.016 1.206-2.42 1.782-4.207 1.733l.213-3.37c1.012.002 1.756-.407 2.235-1.218.318-.545.5-1.231.552-2.064.06-.927-.075-1.678-.406-2.252-.33-.578-.822-.884-1.474-.924-.6-.036-1.064.206-1.395.732-.219.336-.497 1.066-.836 2.184l-.879 2.904c-.385 1.27-.85 2.214-1.4 2.826-.854.951-2.025 1.377-3.52 1.285-1.534-.097-2.77-.77-3.71-2.017-.938-1.252-1.34-2.956-1.206-5.121.139-2.21.75-3.915 1.826-5.117.944-1.055 2.143-1.606 3.596-1.653zM67.832 193.59l.234 2.314-2.05.563c.86.592 1.478 1.144 1.857 1.648.659.866 1.055 1.972 1.191 3.319.226 2.218-.358 4.111-1.75 5.68-1.393 1.633-3.428 2.583-6.105 2.857-2.707.274-4.953-.251-6.738-1.576-1.783-1.327-2.802-3.215-3.05-5.666-.215-2.124.15-3.888 1.097-5.29.948-1.398 2.22-2.274 3.81-2.626l.35 3.437c-1.116.38-1.85 1.11-2.2 2.186-.191.6-.25 1.252-.18 1.955.137 1.348.758 2.402 1.862 3.166 1.104.765 2.676 1.042 4.713.836 2.056-.208 3.462-.825 4.22-1.85.758-1.024 1.077-2.137.956-3.33-.12-1.173-.553-2.1-1.301-2.78-.75-.682-1.678-1.055-2.785-1.119l.39 3.87-2.792.283-.706-6.969 8.977-.908zm241.375 12.205 16.522 3.144-1.356 7.094c-.31 1.638-.984 2.858-2.021 3.67-1.04.81-2.446 1.044-4.233.705-1.95-.373-3.239-1.12-3.861-2.242-.623-1.12-.762-2.578-.418-4.371l.654-3.44-5.941-1.13.654-3.43zm8.133 5.103-.592 3.11c-.15.79-.07 1.438.242 1.951.312.512.899.847 1.76 1.014.857.164 1.515.06 1.963-.307.448-.367.748-.942.9-1.73l.59-3.112-4.863-.926zM70.074 212.36l.871 3.407-9.867 9.586 11.56-2.954.813 3.172-16.295 4.164-.912-3.57 9.71-9.371-11.364 2.906-.809-3.176 16.293-4.164zm236.045 7.952 16.178 4.595-.955 3.358-16.176-4.594.953-3.36zm-231.826 8.1 1.47 3.515-2.761 2.355 2.39 5.713 3.63-.281 1.417 3.39-17.83.954-1.533-3.668 13.217-11.979zm228.799 1.534 12.953 4.875 1.78-4.728 2.786 1.047-4.797 12.752-2.79-1.053 1.777-4.707-12.953-4.877 1.244-3.309zm-232.404 6.313-5.286 4.515 6.95-.54-1.665-3.975zm229.947.57 12.27 12.975-1.805 3.547-17.688-2.325 1.73-3.394 3.583.578 2.81-5.522-2.564-2.582 1.664-3.277zm-219.498 7.71 2.336 3.868-3.606 8.229 2.344.562 4.812-2.908 1.79 2.961-14.399 8.69-1.785-2.956 5.932-3.582-9.29-1.98-2.347-3.889 9.486 2.33 4.727-11.326zm222.547.316-1.954 3.84 6.862 1.105-4.908-4.945zm-11.258 7.517 13.935 9.416-1.966 2.912-11.43-7.722-4.703 6.955-2.502-1.692 6.666-9.869zM91.014 270.648l2.654 3.073-3.158 2.73-2.655-3.074 3.159-2.729zm195.18.875 3.138 2.756-2.68 3.051-3.14-2.754 2.681-3.053zm-180.003 3.399 11.57 8.998-2.716 3.494c-1.575 2.021-3.75 2.816-6.522 2.383-2.78-.432-6.084-2.14-9.916-5.121l1.686-2.168c2.328 1.81 4.367 2.783 6.113 2.908 1.748.13 3.193-.54 4.34-2.018l.707-.908-6.945-5.402 1.683-2.166zm164.053.959 11.365 14.932-4.677 3.56-.858-1.117-4.492 3.422-1.666-2.194 4.496-3.421-8.85-11.62 4.682-3.562zm-6.2 7.031c.389.02.763.092 1.126.215.71.248 1.347.74 1.918 1.486.565.744.872 1.492.93 2.246.034.756-.133 1.516-.514 2.282-.375.756-.925 1.5-1.654 2.255a25.155 25.155 0 0 1-2.55 2.213 24.19 24.19 0 0 1-2.812 1.866c-.928.508-1.786.837-2.619 1.004-.844.163-1.605.114-2.326-.124-.721-.246-1.356-.743-1.924-1.486-.57-.75-.882-1.494-.926-2.246-.038-.767.124-1.513.504-2.277.38-.763.926-1.507 1.653-2.274a22.873 22.873 0 0 1 2.535-2.228 23.081 23.081 0 0 1 2.826-1.854c.927-.492 1.796-.825 2.629-.984a4.927 4.927 0 0 1 1.205-.094zm-143.966 2.457 4.623 3.594-2.808 3.607 2.035 1.58-1.684 2.17-2.033-1.584-3.6 4.623-4.617-3.595 8.084-10.395zm141.016 1.791c-.597.005-1.277.298-2.04.877-1.522 1.164-1.842 2.305-.978 3.44.86 1.128 2.048 1.125 3.574-.034 1.523-1.158 1.847-2.31.987-3.44-.432-.566-.946-.848-1.543-.843zm-163.317.856c.608-.036 1.28.068 2.016.312 1.965.656 4.465 2.163 7.5 4.527 3.039 2.36 5.112 4.417 6.232 6.16 1.118 1.743 1.152 3.289.11 4.628-1.046 1.34-2.55 1.685-4.516 1.033-1.964-.654-4.464-2.16-7.502-4.522-3.037-2.365-5.114-4.42-6.23-6.164-1.116-1.742-1.154-3.287-.11-4.629.654-.838 1.488-1.286 2.5-1.345zm173.053.996 1.668 2.193-4.402 3.356 2.093 2.752-3.591 2.734-1.346-1.766-.752-.99-5.945 4.53-1.668-2.194 13.943-10.615zm-21.373 2.47 5.531 11.983-5.318 2.453-1.17-2.543-3.488 1.61.927 2.01-13.556 6.257-5.17-11.191 5.064-2.34 1.325 2.875 3.433-1.582-1.324-2.88 5.064-2.335.961 2.086 3.485-1.61-1.078-2.34 5.314-2.453zm33.219.282 1.678 2.199-19.891 15.146-4.934-6.476 4.678-3.559 1.348 1.77 1.904 2.504 15.217-11.584zm-181.822.66c-.391.04-.708.218-.954.533-.437.563-.395 1.239.123 2.033.52.795 1.587 1.822 3.211 3.082 1.622 1.264 2.881 2.05 3.776 2.356.9.306 1.566.182 2.002-.381.436-.56.395-1.237-.125-2.031-.519-.794-1.588-1.822-3.21-3.084-1.62-1.263-2.881-2.046-3.779-2.354a3.054 3.054 0 0 0-.628-.148 1.925 1.925 0 0 0-.416-.006zm27.675.254c.843-.014 1.763.127 2.758.422.999.296 2.047.702 3.143 1.222a22.019 22.019 0 0 1 2.937 1.655c.862.58 1.555 1.203 2.08 1.867.523.658.84 1.362.951 2.11.114.745-.03 1.537-.43 2.384-.398.841-.92 1.458-1.568 1.844-.649.385-1.394.586-2.238.6-.843.015-1.764-.13-2.756-.436a23.097 23.097 0 0 1-3.136-1.235 23.244 23.244 0 0 1-2.94-1.64c-.865-.574-1.56-1.192-2.084-1.854-.525-.658-.844-1.361-.957-2.11-.112-.743.034-1.537.434-2.384.398-.841.92-1.46 1.57-1.846.647-.385 1.39-.583 2.236-.6zm3.026 3.654c-.816-.018-1.412.373-1.791 1.176-.61 1.284-.05 2.334 1.672 3.148 1.722.816 2.887.581 3.494-.703.605-1.287.05-2.334-1.672-3.148-.647-.305-1.214-.462-1.703-.473zm12.283 2.285 5.293 2.506-7.99 16.893-5.295-2.502.6-1.27-5.094-2.406 1.175-2.484 5.092 2.41 6.219-13.147zm102.533.154-3.484 1.606.974 2.115 3.485-1.611-.975-2.11zm-124.373 1.416 15.79 7.438-1.169 2.484-4.988-2.347-1.47 3.12-4.067-1.923.943-1.998.525-1.123-6.732-3.166 1.168-2.485zm28.05 1.67 11.589 2.618-.606 2.675-6.15-1.386-3.756 16.644 2.352.53c.69.158 1.381.282 2.068.382.685.096 1.38.127 2.074.096l-.578 2.568a15.43 15.43 0 0 1-3.04-.21 58.231 58.231 0 0 1-3.397-.669l-5.522-1.244 4.967-22.004zm75.643.596.493 2.272c.23 1.077.453 2.166.664 3.267.208 1.102.396 2.18.554 3.235.164 1.054.3 2.051.409 2.994.106.94.175 1.793.207 2.55l-5.59 1.206a101.04 101.04 0 0 0-1.791-11.19l-.088-.412-16.953 3.672-.58-2.686 22.675-4.908zm12.498 1.053-3.435 1.582 1.537 3.336 3.438-1.588-1.54-3.33zm-117.625.406 4.989 2.361.27.143-.913 2-1.342 2.84 17.225 8.148-1.174 2.48-22.517-10.65 3.462-7.322zm42.473.59 5.166 1.164-2.117 9.375 1.584.357 2.117-9.373 5.17 1.164-5.027 22.278-5.166-1.168 2.304-10.22-1.584-.358-2.308 10.22-5.166-1.166 5.027-22.273zm90.822 1.58c.731.01 1.354.14 1.871.389.686.33 1.207.878 1.555 1.64.355.76.436 1.514.24 2.252-.194.738-.672 1.484-1.437 2.239-.763.752-1.812 1.53-3.15 2.33-1.336.802-2.973 1.651-4.905 2.545-1.934.893-3.641 1.588-5.117 2.086-1.479.494-2.749.789-3.822.882-1.066.091-1.946-.026-2.631-.36-.69-.327-1.208-.877-1.563-1.64-.35-.762-.43-1.51-.236-2.25.195-.738.674-1.484 1.438-2.236.762-.756 1.81-1.533 3.146-2.334 1.339-.805 2.974-1.652 4.91-2.545 1.932-.893 3.637-1.585 5.117-2.082 1.48-.495 2.753-.796 3.819-.887.267-.022.522-.032.765-.029zm-73.326.676 5.854.03-.006 1.622 5.435.022-.011 2.748-16.729-.073.014-2.748 5.435.026.008-1.627zm12.549.617 5.856.027-.02 4.567 2.58.01-.014 2.746-2.576-.008-.025 5.295-5.856-.028.055-12.609zm57.496 2.45a4.357 4.357 0 0 0-.785.066c-1.156.192-2.667.721-4.531 1.58-1.866.862-3.248 1.67-4.147 2.425-.897.752-1.194 1.452-.896 2.094.296.648 1.022.872 2.177.68 1.158-.196 2.664-.721 4.53-1.584 1.87-.861 3.246-1.673 4.142-2.422.898-.756 1.2-1.454.905-2.1-.225-.483-.69-.728-1.395-.74zm-67.154 2.019c2.428.01 4.257.38 5.486 1.103 1.23.724 1.841 1.76 1.836 3.106-.005 1.344-.627 2.374-1.863 3.088-1.235.71-3.066 1.064-5.494 1.05-2.43-.008-4.252-.375-5.475-1.1-1.219-.723-1.826-1.76-1.82-3.105.006-1.346.622-2.374 1.847-3.088 1.227-.714 3.055-1.065 5.483-1.054zm36.846 1.845 2.11 9.748 8.136-1.76.576 2.682-24.205 5.243-.58-2.684 3.228-.7-2.11-9.747 5.587-1.213 2.11 9.75 1.671-.363-2.11-9.749 5.587-1.207zm-36.858.762c-.821-.002-1.42.126-1.797.397-.373.269-.561.654-.562 1.16-.002.502.18.894.556 1.168.371.273.968.41 1.79.412 1.587.005 2.383-.514 2.386-1.56.007-1.045-.785-1.571-2.373-1.577zm-6.64 6.752 22.105.094-.04 8.937-5.857-.023.03-6.193-16.252-.07.013-2.745z" style="fill:#fff;fill-opacity:1;fill-rule:nonzero;stroke:none;stroke-width:1.33333"/><g clip-path="url(#a)" transform="matrix(1.33333 0 0 -1.33333 -123.668 585.828)"><path d="M0 0h157.011Z" style="fill:#fff;fill-opacity:1;fill-rule:nonzero;stroke:none" transform="translate(155.98 219.132)"/><path d="M155.98 297.165h157.011v-78.033H155.98Z" style="fill:#fff;fill-opacity:1;fill-rule:nonzero;stroke:none"/><path d="M155.98 297.604h157.011v-.439H155.98Z" style="fill:#fff;fill-opacity:1;fill-rule:nonzero;stroke:none"/><path d="M155.98 298.047h157.011v-.443H155.98Z" style="fill:#fdfeff;fill-opacity:1;fill-rule:nonzero;stroke:none"/><path d="M155.98 298.487h157.011v-.439H155.98Z" style="fill:#fbfcfe;fill-opacity:1;fill-rule:nonzero;stroke:none"/><path d="M155.98 298.93h157.011v-.443H155.98Z" style="fill:#fafcfe;fill-opacity:1;fill-rule:nonzero;stroke:none"/><path d="M155.98 299.369h157.011v-.439H155.98Z" style="fill:#f8fbfe;fill-opacity:1;fill-rule:nonzero;stroke:none"/><path d="M155.98 299.813h157.011v-.444H155.98Z" style="fill:#f7f9fd;fill-opacity:1;fill-rule:nonzero;stroke:none"/><path d="M155.98 300.252h157.011v-.439H155.98Z" style="fill:#f6f9fd;fill-opacity:1;fill-rule:nonzero;stroke:none"/><path d="M155.98 300.695h157.011v-.443H155.98Z" style="fill:#f5f8fd;fill-opacity:1;fill-rule:nonzero;stroke:none"/><path d="M155.98 301.135h157.011v-.439H155.98Z" style="fill:#f3f8fd;fill-opacity:1;fill-rule:nonzero;stroke:none"/><path d="M155.98 301.578h157.011v-.443H155.98Z" style="fill:#f2f6fc;fill-opacity:1;fill-rule:nonzero;stroke:none"/><path d="M155.98 302.017h157.011v-.439H155.98Z" style="fill:#f1f6fc;fill-opacity:1;fill-rule:nonzero;stroke:none"/><path d="M155.98 302.461h157.011v-.444H155.98Z" style="fill:#f0f5fc;fill-opacity:1;fill-rule:nonzero;stroke:none"/><path d="M155.98 302.9h157.011v-.439H155.98Z" style="fill:#eff5fc;fill-opacity:1;fill-rule:nonzero;stroke:none"/><path d="M155.98 303.343h157.011v-.443H155.98Z" style="fill:#eef4fb;fill-opacity:1;fill-rule:nonzero;stroke:none"/><path d="M155.98 303.783h157.011v-.439H155.98Z" style="fill:#edf3fb;fill-opacity:1;fill-rule:nonzero;stroke:none"/><path d="M155.98 304.222h157.011v-.439H155.98Z" style="fill:#ecf3fb;fill-opacity:1;fill-rule:nonzero;stroke:none"/><path d="M155.98 304.665h157.011v-.443H155.98Z" style="fill:#ebf2fa;fill-opacity:1;fill-rule:nonzero;stroke:none"/><path d="M155.98 305.109h157.011v-.444H155.98Z" style="fill:#eaf1fa;fill-opacity:1;fill-rule:nonzero;stroke:none"/><path d="M155.98 305.548h157.011v-.439H155.98Z" style="fill:#e9f1fa;fill-opacity:1;fill-rule:nonzero;stroke:none"/><path d="M155.98 305.987h157.011v-.439H155.98Z" style="fill:#e8f0fa;fill-opacity:1;fill-rule:nonzero;stroke:none"/><path d="M155.98 306.431h157.011v-.444H155.98Z" style="fill:#e7eff9;fill-opacity:1;fill-rule:nonzero;stroke:none"/><path d="M155.98 306.87h157.011v-.439H155.98Z" style="fill:#e6eff9;fill-opacity:1;fill-rule:nonzero;stroke:none"/><path d="M155.98 307.313h157.011v-.443H155.98Z" style="fill:#e5eef9;fill-opacity:1;fill-rule:nonzero;stroke:none"/><path d="M155.98 307.752h157.011v-.439H155.98Z" style="fill:#e4edf8;fill-opacity:1;fill-rule:nonzero;stroke:none"/><path d="M155.98 308.196h157.011v-.443H155.98Z" style="fill:#e3edf8;fill-opacity:1;fill-rule:nonzero;stroke:none"/><path d="M155.98 308.635h157.011v-.439H155.98Z" style="fill:#e2ecf8;fill-opacity:1;fill-rule:nonzero;stroke:none"/><path d="M155.98 309.079h157.011v-.444H155.98Z" style="fill:#e1ecf8;fill-opacity:1;fill-rule:nonzero;stroke:none"/><path d="M155.98 309.518h157.011v-.439H155.98Z" style="fill:#e0ebf8;fill-opacity:1;fill-rule:nonzero;stroke:none"/><path d="M155.98 309.961h157.011v-.444H155.98Z" style="fill:#deeaf8;fill-opacity:1;fill-rule:nonzero;stroke:none"/><path d="M155.98 310.4h157.011v-.439H155.98Z" style="fill:#ddeaf8;fill-opacity:1;fill-rule:nonzero;stroke:none"/><path d="M155.98 310.844h157.011v-.443H155.98Z" style="fill:#dce9f7;fill-opacity:1;fill-rule:nonzero;stroke:none"/><path d="M155.98 311.283h157.011v-.439H155.98Z" style="fill:#dbe9f7;fill-opacity:1;fill-rule:nonzero;stroke:none"/><path d="M155.98 311.727h157.011v-.443H155.98Z" style="fill:#dae8f7;fill-opacity:1;fill-rule:nonzero;stroke:none"/><path d="M155.98 312.166h157.011v-.439H155.98Z" style="fill:#d9e8f7;fill-opacity:1;fill-rule:nonzero;stroke:none"/><path d="M155.98 312.609h157.011v-.444H155.98Z" style="fill:#d8e7f6;fill-opacity:1;fill-rule:nonzero;stroke:none"/><path d="M155.98 313.048h157.011v-.439H155.98Z" style="fill:#d7e6f6;fill-opacity:1;fill-rule:nonzero;stroke:none"/><path d="M155.98 313.492h157.011v-.443H155.98Z" style="fill:#d6e6f6;fill-opacity:1;fill-rule:nonzero;stroke:none"/><path d="M155.98 313.931h157.011v-.439H155.98Z" style="fill:#d5e5f6;fill-opacity:1;fill-rule:nonzero;stroke:none"/><path d="M155.98 314.375h157.011v-.443H155.98Z" style="fill:#d4e5f6;fill-opacity:1;fill-rule:nonzero;stroke:none"/><path d="M155.98 314.813h157.011v-.439H155.98Z" style="fill:#d3e4f5;fill-opacity:1;fill-rule:nonzero;stroke:none"/><path d="M155.98 315.257h157.011v-.444H155.98Z" style="fill:#d2e4f5;fill-opacity:1;fill-rule:nonzero;stroke:none"/><path d="M155.98 315.696h157.011v-.439H155.98Z" style="fill:#d1e3f5;fill-opacity:1;fill-rule:nonzero;stroke:none"/><path d="M155.98 316.135h157.011v-.439H155.98Z" style="fill:#d0e2f5;fill-opacity:1;fill-rule:nonzero;stroke:none"/><path d="M155.98 316.579h157.011v-.444H155.98Z" style="fill:#cfe2f5;fill-opacity:1;fill-rule:nonzero;stroke:none"/><path d="M155.98 317.022h157.011v-.443H155.98Z" style="fill:#cee2f5;fill-opacity:1;fill-rule:nonzero;stroke:none"/><path d="M155.98 317.461h157.011v-.439H155.98Z" style="fill:#cde1f4;fill-opacity:1;fill-rule:nonzero;stroke:none"/><path d="M155.98 317.901h157.011v-.439H155.98Z" style="fill:#cce0f4;fill-opacity:1;fill-rule:nonzero;stroke:none"/><path d="M155.98 318.344h157.011v-.443H155.98Z" style="fill:#cbdff4;fill-opacity:1;fill-rule:nonzero;stroke:none"/><path d="M155.98 318.783h157.011v-.439H155.98Z" style="fill:#cadff3;fill-opacity:1;fill-rule:nonzero;stroke:none"/><path d="M155.98 319.227h157.011v-.444H155.98Z" style="fill:#c9dff3;fill-opacity:1;fill-rule:nonzero;stroke:none"/><path d="M155.98 319.666h157.011v-.439H155.98Z" style="fill:#c8def3;fill-opacity:1;fill-rule:nonzero;stroke:none"/><path d="M155.98 320.11h157.011v-.444H155.98Z" style="fill:#c7ddf3;fill-opacity:1;fill-rule:nonzero;stroke:none"/><path d="M155.98 320.549h157.011v-.439H155.98Z" style="fill:#c6ddf3;fill-opacity:1;fill-rule:nonzero;stroke:none"/><path d="M155.98 320.992h157.011v-.443H155.98Z" style="fill:#c5dcf3;fill-opacity:1;fill-rule:nonzero;stroke:none"/><path d="M155.98 321.431h157.011v-.439H155.98Z" style="fill:#c4dbf2;fill-opacity:1;fill-rule:nonzero;stroke:none"/><path d="M155.98 321.875h157.011v-.444H155.98Z" style="fill:#c3dbf2;fill-opacity:1;fill-rule:nonzero;stroke:none"/><path d="M155.98 322.314h157.011v-.439H155.98Z" style="fill:#c2dbf2;fill-opacity:1;fill-rule:nonzero;stroke:none"/><path d="M155.98 322.758h157.011v-.444H155.98Z" style="fill:#c1daf2;fill-opacity:1;fill-rule:nonzero;stroke:none"/><path d="M155.98 323.197h157.011v-.439H155.98Z" style="fill:#c0d9f1;fill-opacity:1;fill-rule:nonzero;stroke:none"/><path d="M155.98 323.64h157.011v-.443H155.98Z" style="fill:#bfd9f1;fill-opacity:1;fill-rule:nonzero;stroke:none"/><path d="M155.98 324.08h157.011v-.439H155.98Z" style="fill:#bed9f1;fill-opacity:1;fill-rule:nonzero;stroke:none"/><path d="M155.98 324.523h157.011v-.443H155.98Z" style="fill:#bdd8f1;fill-opacity:1;fill-rule:nonzero;stroke:none"/><path d="M155.98 324.962h157.011v-.439H155.98Z" style="fill:#bcd7f1;fill-opacity:1;fill-rule:nonzero;stroke:none"/><path d="M155.98 325.406h157.011v-.444H155.98Z" style="fill:#bbd7f1;fill-opacity:1;fill-rule:nonzero;stroke:none"/><path d="M155.98 325.845h157.011v-.439H155.98Z" style="fill:#bad7f1;fill-opacity:1;fill-rule:nonzero;stroke:none"/><path d="M155.98 326.284h157.011v-.439H155.98Z" style="fill:#b9d6f0;fill-opacity:1;fill-rule:nonzero;stroke:none"/><path d="M155.98 326.728h157.011v-.444H155.98Z" style="fill:#b8d5f0;fill-opacity:1;fill-rule:nonzero;stroke:none"/><path d="M155.98 327.171h157.011v-.443H155.98Z" style="fill:#b7d5f0;fill-opacity:1;fill-rule:nonzero;stroke:none"/><path d="M155.98 327.61h157.011v-.439H155.98Z" style="fill:#b5d5f0;fill-opacity:1;fill-rule:nonzero;stroke:none"/><path d="M155.98 328.049h157.011v-.439H155.98Z" style="fill:#b5d4ef;fill-opacity:1;fill-rule:nonzero;stroke:none"/><path d="M155.98 328.493h157.011v-.443H155.98Z" style="fill:#b3d3ef;fill-opacity:1;fill-rule:nonzero;stroke:none"/><path d="M155.98 328.932h157.011v-.439H155.98Z" style="fill:#b2d3ef;fill-opacity:1;fill-rule:nonzero;stroke:none"/><path d="M155.98 329.375h157.011v-.444H155.98Z" style="fill:#b1d2ef;fill-opacity:1;fill-rule:nonzero;stroke:none"/><path d="M155.98 329.814h157.011v-.439H155.98Z" style="fill:#b0d2ef;fill-opacity:1;fill-rule:nonzero;stroke:none"/><path d="M155.98 330.258h157.011v-.443H155.98Z" style="fill:#afd1ef;fill-opacity:1;fill-rule:nonzero;stroke:none"/><path d="M155.98 330.697h157.011v-.439H155.98Z" style="fill:#aed1ef;fill-opacity:1;fill-rule:nonzero;stroke:none"/><path d="M155.98 331.141h157.011v-.443H155.98Z" style="fill:#add0ee;fill-opacity:1;fill-rule:nonzero;stroke:none"/><path d="M155.98 331.58h157.011v-.439H155.98Z" style="fill:#acd0ee;fill-opacity:1;fill-rule:nonzero;stroke:none"/><path d="M155.98 332.023h157.011v-.444H155.98Z" style="fill:#abcfee;fill-opacity:1;fill-rule:nonzero;stroke:none"/><path d="M155.98 332.462h157.011v-.439H155.98Z" style="fill:#aaceed;fill-opacity:1;fill-rule:nonzero;stroke:none"/><path d="M155.98 332.906h157.011v-.443H155.98Z" style="fill:#a9ceed;fill-opacity:1;fill-rule:nonzero;stroke:none"/><path d="M155.98 333.345h157.011v-.439H155.98Z" style="fill:#a8ceed;fill-opacity:1;fill-rule:nonzero;stroke:none"/><path d="M155.98 333.789h157.011v-.443H155.98Z" style="fill:#a7cded;fill-opacity:1;fill-rule:nonzero;stroke:none"/><path d="M155.98 334.228h157.011v-.439H155.98Z" style="fill:#a6cced;fill-opacity:1;fill-rule:nonzero;stroke:none"/><path d="M155.98 334.671h157.011v-.444H155.98Z" style="fill:#a5cced;fill-opacity:1;fill-rule:nonzero;stroke:none"/><path d="M155.98 335.11h157.011v-.439H155.98Z" style="fill:#a4cced;fill-opacity:1;fill-rule:nonzero;stroke:none"/><path d="M155.98 335.554h157.011v-.444H155.98Z" style="fill:#a3cbec;fill-opacity:1;fill-rule:nonzero;stroke:none"/><path d="M155.98 335.993h157.011v-.439H155.98Z" style="fill:#a2caec;fill-opacity:1;fill-rule:nonzero;stroke:none"/><path d="M155.98 336.432h157.011v-.439H155.98Z" style="fill:#a1caec;fill-opacity:1;fill-rule:nonzero;stroke:none"/><path d="M155.98 336.875h157.011v-.443H155.98Z" style="fill:#a0caec;fill-opacity:1;fill-rule:nonzero;stroke:none"/><path d="M155.98 337.319h157.011v-.444H155.98Z" style="fill:#9fc9eb;fill-opacity:1;fill-rule:nonzero;stroke:none"/><path d="M155.98 337.758h157.011v-.439H155.98Z" style="fill:#9ec8eb;fill-opacity:1;fill-rule:nonzero;stroke:none"/><path d="M155.98 338.197h157.011v-.439H155.98Z" style="fill:#9dc8eb;fill-opacity:1;fill-rule:nonzero;stroke:none"/><path d="M155.98 338.641h157.011v-.444H155.98Z" style="fill:#9cc7eb;fill-opacity:1;fill-rule:nonzero;stroke:none"/><path d="M155.98 339.08h157.011v-.439H155.98Z" style="fill:#9bc7eb;fill-opacity:1;fill-rule:nonzero;stroke:none"/><path d="M155.98 339.524h157.011v-.444H155.98Z" style="fill:#9ac7eb;fill-opacity:1;fill-rule:nonzero;stroke:none"/><path d="M155.98 339.963h157.011v-.439H155.98Z" style="fill:#99c6ea;fill-opacity:1;fill-rule:nonzero;stroke:none"/><path d="M155.98 340.406h157.011v-.443H155.98Z" style="fill:#98c5ea;fill-opacity:1;fill-rule:nonzero;stroke:none"/><path d="M155.98 340.845h157.011v-.439H155.98Z" style="fill:#96c5ea;fill-opacity:1;fill-rule:nonzero;stroke:none"/><path d="M155.98 341.289h157.011v-.444H155.98Z" style="fill:#95c5ea;fill-opacity:1;fill-rule:nonzero;stroke:none"/><path d="M155.98 341.728h157.011v-.439H155.98Z" style="fill:#94c4e9;fill-opacity:1;fill-rule:nonzero;stroke:none"/><path d="M155.98 342.172h157.011v-.444H155.98Z" style="fill:#93c3e9;fill-opacity:1;fill-rule:nonzero;stroke:none"/><path d="M155.98 342.611h157.011v-.439H155.98Z" style="fill:#92c3e9;fill-opacity:1;fill-rule:nonzero;stroke:none"/><path d="M155.98 343.054h157.011v-.443H155.98Z" style="fill:#91c2e9;fill-opacity:1;fill-rule:nonzero;stroke:none"/><path d="M155.98 343.494h157.011v-.439H155.98Z" style="fill:#90c2e9;fill-opacity:1;fill-rule:nonzero;stroke:none"/><path d="M155.98 343.937h157.011v-.443H155.98Z" style="fill:#8fc2e9;fill-opacity:1;fill-rule:nonzero;stroke:none"/><path d="M155.98 344.376h157.011v-.439H155.98Z" style="fill:#8ec1e9;fill-opacity:1;fill-rule:nonzero;stroke:none"/><path d="M155.98 344.82h157.011v-.444H155.98Z" style="fill:#8dc0e8;fill-opacity:1;fill-rule:nonzero;stroke:none"/><path d="M155.98 345.259h157.011v-.439H155.98Z" style="fill:#8cc0e8;fill-opacity:1;fill-rule:nonzero;stroke:none"/><path d="M155.98 345.703h157.011v-.444H155.98Z" style="fill:#8bc0e8;fill-opacity:1;fill-rule:nonzero;stroke:none"/><path d="M155.98 346.142h157.011v-.439H155.98Z" style="fill:#8abfe7;fill-opacity:1;fill-rule:nonzero;stroke:none"/><path d="M155.98 346.581h157.011v-.439H155.98Z" style="fill:#89bfe7;fill-opacity:1;fill-rule:nonzero;stroke:none"/><path d="M155.98 347.024h157.011v-.443H155.98Z" style="fill:#88bee7;fill-opacity:1;fill-rule:nonzero;stroke:none"/><path d="M155.98 347.468h157.011v-.444H155.98Z" style="fill:#87bee7;fill-opacity:1;fill-rule:nonzero;stroke:none"/><path d="M155.98 347.907h157.011v-.439H155.98Z" style="fill:#86bde7;fill-opacity:1;fill-rule:nonzero;stroke:none"/><path d="M155.98 348.346h157.011v-.439H155.98Z" style="fill:#85bde7;fill-opacity:1;fill-rule:nonzero;stroke:none"/><path d="M155.98 348.79h157.011v-.444H155.98Z" style="fill:#84bde7;fill-opacity:1;fill-rule:nonzero;stroke:none"/><path d="M155.98 349.229h157.011v-.439H155.98Z" style="fill:#83bce7;fill-opacity:1;fill-rule:nonzero;stroke:none"/><path d="M155.98 349.672h157.011v-.444H155.98Z" style="fill:#82bce6;fill-opacity:1;fill-rule:nonzero;stroke:none"/><path d="M155.98 350.111h157.011v-.439H155.98Z" style="fill:#81bbe6;fill-opacity:1;fill-rule:nonzero;stroke:none"/><path d="M155.98 350.555h157.011v-.443H155.98Z" style="fill:#80bbe6;fill-opacity:1;fill-rule:nonzero;stroke:none"/><path d="M155.98 350.994h157.011v-.439H155.98Z" style="fill:#7fbae6;fill-opacity:1;fill-rule:nonzero;stroke:none"/><path d="M155.98 351.437h157.011v-.444H155.98Z" style="fill:#7ebae5;fill-opacity:1;fill-rule:nonzero;stroke:none"/><path d="M155.98 351.876h157.011v-.439H155.98Z" style="fill:#7cbae5;fill-opacity:1;fill-rule:nonzero;stroke:none"/><path d="M155.98 352.32h157.011v-.444H155.98Z" style="fill:#7bb9e5;fill-opacity:1;fill-rule:nonzero;stroke:none"/><path d="M155.98 352.759h157.011v-.439H155.98Z" style="fill:#7ab8e5;fill-opacity:1;fill-rule:nonzero;stroke:none"/><path d="M155.98 353.203h157.011v-.443H155.98Z" style="fill:#79b8e5;fill-opacity:1;fill-rule:nonzero;stroke:none"/><path d="M155.98 353.642h157.011v-.439H155.98Z" style="fill:#78b8e5;fill-opacity:1;fill-rule:nonzero;stroke:none"/><path d="M155.98 354.085h157.011v-.443H155.98Z" style="fill:#77b7e4;fill-opacity:1;fill-rule:nonzero;stroke:none"/><path d="M155.98 354.524h157.011v-.439H155.98Z" style="fill:#76b7e4;fill-opacity:1;fill-rule:nonzero;stroke:none"/><path d="M155.98 354.968h157.011v-.444H155.98Z" style="fill:#75b7e4;fill-opacity:1;fill-rule:nonzero;stroke:none"/><path d="M155.98 355.407h157.011v-.439H155.98Z" style="fill:#74b6e4;fill-opacity:1;fill-rule:nonzero;stroke:none"/><path d="M155.98 355.851h157.011v-.443H155.98Z" style="fill:#73b5e4;fill-opacity:1;fill-rule:nonzero;stroke:none"/><path d="M155.98 356.29h157.011v-.439H155.98Z" style="fill:#72b5e4;fill-opacity:1;fill-rule:nonzero;stroke:none"/><path d="M155.98 356.733h157.011v-.443H155.98Z" style="fill:#71b4e3;fill-opacity:1;fill-rule:nonzero;stroke:none"/><path d="M155.98 357.172h157.011v-.439H155.98Z" style="fill:#70b4e3;fill-opacity:1;fill-rule:nonzero;stroke:none"/><path d="M155.98 357.616h157.011v-.444H155.98Z" style="fill:#6eb4e3;fill-opacity:1;fill-rule:nonzero;stroke:none"/><path d="M155.98 358.055h157.011v-.439H155.98Z" style="fill:#6db4e3;fill-opacity:1;fill-rule:nonzero;stroke:none"/><path d="M155.98 358.494h157.011v-.439H155.98Z" style="fill:#6cb3e2;fill-opacity:1;fill-rule:nonzero;stroke:none"/><path d="M155.98 358.938h157.011v-.444H155.98Z" style="fill:#6bb2e2;fill-opacity:1;fill-rule:nonzero;stroke:none"/><path d="M155.98 359.381h157.011v-.443H155.98ZM155.98 359.82h157.011v-.439H155.98Z" style="fill:#69b2e2;fill-opacity:1;fill-rule:nonzero;stroke:none"/><path d="M155.98 360.26h157.011v-.439H155.98Z" style="fill:#68b1e2;fill-opacity:1;fill-rule:nonzero;stroke:none"/><path d="M155.98 360.703h157.011v-.443H155.98Z" style="fill:#67b1e2;fill-opacity:1;fill-rule:nonzero;stroke:none"/><path d="M155.98 361.142h157.011v-.439H155.98Z" style="fill:#65b1e2;fill-opacity:1;fill-rule:nonzero;stroke:none"/><path d="M155.98 361.586h157.011v-.444H155.98Z" style="fill:#64b0e1;fill-opacity:1;fill-rule:nonzero;stroke:none"/><path d="M155.98 362.025h157.011v-.439H155.98Z" style="fill:#63afe1;fill-opacity:1;fill-rule:nonzero;stroke:none"/><path d="M155.98 362.468h157.011v-.443H155.98Z" style="fill:#62afe1;fill-opacity:1;fill-rule:nonzero;stroke:none"/><path d="M155.98 362.908h157.011v-.439H155.98Z" style="fill:#61afe1;fill-opacity:1;fill-rule:nonzero;stroke:none"/><path d="M155.98 363.351h157.011v-.443H155.98Z" style="fill:#60aee1;fill-opacity:1;fill-rule:nonzero;stroke:none"/><path d="M155.98 363.79h157.011v-.439H155.98Z" style="fill:#5eaee1;fill-opacity:1;fill-rule:nonzero;stroke:none"/><path d="M155.98 364.234h157.011v-.444H155.98Z" style="fill:#5daee1;fill-opacity:1;fill-rule:nonzero;stroke:none"/><path d="M155.98 364.673h157.011v-.439H155.98Z" style="fill:#5cade0;fill-opacity:1;fill-rule:nonzero;stroke:none"/><path d="M155.98 365.117h157.011v-.444H155.98Z" style="fill:#59ace0;fill-opacity:1;fill-rule:nonzero;stroke:none"/><path d="M155.98 365.556h157.011v-.439H155.98Z" style="fill:#58ace0;fill-opacity:1;fill-rule:nonzero;stroke:none"/><path d="M155.98 365.999h157.011v-.443H155.98Z" style="fill:#56ace0;fill-opacity:1;fill-rule:nonzero;stroke:none"/><path d="M155.98 366.438h157.011v-.439H155.98Z" style="fill:#57abe0;fill-opacity:1;fill-rule:nonzero;stroke:none"/><path d="M155.98 366.882h157.011v-.444H155.98Z" style="fill:#55abdf;fill-opacity:1;fill-rule:nonzero;stroke:none"/><path d="M155.98 367.321h157.011v-.439H155.98Z" style="fill:#54abdf;fill-opacity:1;fill-rule:nonzero;stroke:none"/><path d="M155.98 367.765h157.011v-.444H155.98Z" style="fill:#53aadf;fill-opacity:1;fill-rule:nonzero;stroke:none"/><path d="M155.98 368.204h157.011v-.439H155.98Z" style="fill:#51aadf;fill-opacity:1;fill-rule:nonzero;stroke:none"/><path d="M155.98 368.643h157.011v-.439H155.98Z" style="fill:#50aadf;fill-opacity:1;fill-rule:nonzero;stroke:none"/><path d="M155.98 369.086h157.011v-.444H155.98Z" style="fill:#4eaadf;fill-opacity:1;fill-rule:nonzero;stroke:none"/><path d="M155.98 369.53h157.011v-.443H155.98Z" style="fill:#4da9de;fill-opacity:1;fill-rule:nonzero;stroke:none"/><path d="M155.98 369.969h157.011v-.439H155.98Z" style="fill:#4ca9de;fill-opacity:1;fill-rule:nonzero;stroke:none"/><path d="M155.98 370.408h157.011v-.439H155.98Z" style="fill:#4aa8de;fill-opacity:1;fill-rule:nonzero;stroke:none"/><path d="M155.98 370.852h157.011v-.444H155.98Z" style="fill:#47a7de;fill-opacity:1;fill-rule:nonzero;stroke:none"/><path d="M155.98 371.291h157.011v-.439H155.98Z" style="fill:#46a7de;fill-opacity:1;fill-rule:nonzero;stroke:none"/><path d="M155.98 371.734h157.011v-.444H155.98Z" style="fill:#44a7de;fill-opacity:1;fill-rule:nonzero;stroke:none"/><path d="M155.98 372.173h157.011v-.439H155.98Z" style="fill:#42a7de;fill-opacity:1;fill-rule:nonzero;stroke:none"/><path d="M155.98 372.617h157.011v-.443H155.98Z" style="fill:#41a6dd;fill-opacity:1;fill-rule:nonzero;stroke:none"/><path d="M155.98 373.056h157.011v-.439H155.98Z" style="fill:#41a6dd;fill-opacity:1;fill-rule:nonzero;stroke:none"/><path d="M155.98 373.5h157.011v-.443H155.98Z" style="fill:#3fa6dd;fill-opacity:1;fill-rule:nonzero;stroke:none"/><path d="M155.98 373.938h157.011v-.439H155.98Z" style="fill:#3da5dd;fill-opacity:1;fill-rule:nonzero;stroke:none"/><path d="M155.98 374.382h157.011v-.444H155.98Z" style="fill:#3ca5dd;fill-opacity:1;fill-rule:nonzero;stroke:none"/><path d="M155.98 374.821h157.011v-.439H155.98Z" style="fill:#3aa4dd;fill-opacity:1;fill-rule:nonzero;stroke:none"/><path d="M155.98 375.265h157.011v-.443H155.98Z" style="fill:#38a4dd;fill-opacity:1;fill-rule:nonzero;stroke:none"/><path d="M155.98 375.704h157.011v-.439H155.98Z" style="fill:#36a3dc;fill-opacity:1;fill-rule:nonzero;stroke:none"/><path d="M155.98 376.147h157.011v-.443H155.98Z" style="fill:#34a3dc;fill-opacity:1;fill-rule:nonzero;stroke:none"/><path d="M0 0h-157.011Z" style="fill:#34a3dc;fill-opacity:1;fill-rule:nonzero;stroke:none" transform="translate(312.991 376.147)"/></g><g clip-path="url(#c)" transform="matrix(1.33333 0 0 -1.33333 -123.668 585.828)"><path d="M0 0a6.235 6.235 0 0 0-6.234-6.235 6.235 6.235 0 0 0 0 12.47A6.234 6.234 0 0 0 0 0" style="fill:#fff;fill-opacity:1;fill-rule:nonzero;stroke:none" transform="translate(218.638 373.028)"/><path d="M0 0a6.235 6.235 0 1 0-12.47 0A6.235 6.235 0 0 0 0 0" style="fill:#fff;fill-opacity:1;fill-rule:nonzero;stroke:none" transform="translate(207.676 373.028)"/><path d="M0 0a6.236 6.236 0 0 0-6.234-6.235A6.235 6.235 0 1 0 0 0" style="fill:#fff;fill-opacity:1;fill-rule:nonzero;stroke:none" transform="translate(230.526 373.028)"/><path d="M0 0a6.234 6.234 0 1 0-12.467 0 6.235 6.235 0 0 0 6.235 6.235A6.232 6.232 0 0 0 0 0" style="fill:#fff;fill-opacity:1;fill-rule:nonzero;stroke:none" transform="translate(241.548 373.028)"/><path d="M0 0a6.235 6.235 0 0 0-6.232-6.235 6.236 6.236 0 0 0 0 12.47A6.234 6.234 0 0 0 0 0" style="fill:#fff;fill-opacity:1;fill-rule:nonzero;stroke:none" transform="translate(252.183 373.028)"/><path d="M0 0a6.235 6.235 0 1 0-12.47 0A6.235 6.235 0 0 0 0 0" style="fill:#fff;fill-opacity:1;fill-rule:nonzero;stroke:none" transform="translate(262.702 373.028)"/><path d="M0 0a6.234 6.234 0 1 0-12.467 0A6.234 6.234 0 1 0 0 0" style="fill:#fff;fill-opacity:1;fill-rule:nonzero;stroke:none" transform="translate(273.733 373.028)"/><path d="M0 0a5.065 5.065 0 1 0-10.13-.002A5.065 5.065 0 0 0 0 0" style="fill:#fff;fill-opacity:1;fill-rule:nonzero;stroke:none" transform="translate(212.74 361.73)"/><path d="M0 0a5.066 5.066 0 0 0-5.063-5.066A5.065 5.065 0 1 0 0 0" style="fill:#fff;fill-opacity:1;fill-rule:nonzero;stroke:none" transform="translate(201.672 361.73)"/><path d="M0 0a5.067 5.067 0 0 0-10.132 0A5.066 5.066 0 0 0 0 0" style="fill:#fff;fill-opacity:1;fill-rule:nonzero;stroke:none" transform="translate(190.606 361.73)"/><path d="M0 0a5.067 5.067 0 0 0-5.066-5.066A5.064 5.064 0 1 0 0 0" style="fill:#fff;fill-opacity:1;fill-rule:nonzero;stroke:none" transform="translate(223.807 361.73)"/><path d="M0 0a5.067 5.067 0 0 0-5.064-5.066A5.064 5.064 0 1 0 0 0" style="fill:#fff;fill-opacity:1;fill-rule:nonzero;stroke:none" transform="translate(234.874 361.73)"/><path d="M0 0a5.066 5.066 0 0 0-10.131 0 5.065 5.065 0 0 0 5.067 5.063A5.064 5.064 0 0 0 0 0" style="fill:#fff;fill-opacity:1;fill-rule:nonzero;stroke:none" transform="translate(245.942 361.73)"/><path d="M0 0a5.068 5.068 0 0 0-5.066-5.066A5.068 5.068 0 0 0-10.133 0a5.066 5.066 0 0 0 5.067 5.063A5.066 5.066 0 0 0 0 0" style="fill:#fff;fill-opacity:1;fill-rule:nonzero;stroke:none" transform="translate(257.01 361.73)"/><path d="M0 0a5.066 5.066 0 1 0-10.129 0A5.065 5.065 0 0 0 0 0" style="fill:#fff;fill-opacity:1;fill-rule:nonzero;stroke:none" transform="translate(268.075 361.73)"/><path d="M0 0a5.066 5.066 0 0 0-10.131 0A5.066 5.066 0 0 0 0 0" style="fill:#fff;fill-opacity:1;fill-rule:nonzero;stroke:none" transform="translate(279.144 361.73)"/><path d="M0 0a5.066 5.066 0 0 0-10.131 0A5.066 5.066 0 0 0 0 0" style="fill:#fff;fill-opacity:1;fill-rule:nonzero;stroke:none" transform="translate(290.212 361.73)"/><path d="M0 0a4.286 4.286 0 1 0-8.573-.001A4.286 4.286 0 0 0 0 0" style="fill:#fff;fill-opacity:1;fill-rule:nonzero;stroke:none" transform="translate(184.502 352.381)"/><path d="M0 0a4.286 4.286 0 1 0-8.573-.001A4.286 4.286 0 0 0 0 0" style="fill:#fff;fill-opacity:1;fill-rule:nonzero;stroke:none" transform="translate(195.36 352.381)"/><path d="M0 0a4.286 4.286 0 1 0-8.572-.002A4.286 4.286 0 0 0 0 0" style="fill:#fff;fill-opacity:1;fill-rule:nonzero;stroke:none" transform="translate(206.196 352.381)"/><path d="M0 0a4.286 4.286 0 1 0-8.573-.001A4.286 4.286 0 0 0 0 0" style="fill:#fff;fill-opacity:1;fill-rule:nonzero;stroke:none" transform="translate(217.03 352.381)"/><path d="M0 0a4.285 4.285 0 1 0-8.573-.003A4.285 4.285 0 0 0 0 0" style="fill:#fff;fill-opacity:1;fill-rule:nonzero;stroke:none" transform="translate(227.866 352.381)"/><path d="M0 0a4.286 4.286 0 1 0-8.572-.002A4.286 4.286 0 0 0 0 0" style="fill:#fff;fill-opacity:1;fill-rule:nonzero;stroke:none" transform="translate(238.7 352.381)"/><path d="M0 0a4.287 4.287 0 1 0-8.573 0A4.287 4.287 0 0 0 0 0" style="fill:#fff;fill-opacity:1;fill-rule:nonzero;stroke:none" transform="translate(249.536 352.381)"/><path d="M0 0a4.287 4.287 0 1 0-8.573 0A4.287 4.287 0 0 0 0 0" style="fill:#fff;fill-opacity:1;fill-rule:nonzero;stroke:none" transform="translate(260.372 352.381)"/><path d="M0 0a4.286 4.286 0 1 0-8.576-.002A4.286 4.286 0 0 0 0 0" style="fill:#fff;fill-opacity:1;fill-rule:nonzero;stroke:none" transform="translate(271.208 352.381)"/><path d="M0 0a4.285 4.285 0 1 0-8.572 0A4.285 4.285 0 0 0 0 0" style="fill:#fff;fill-opacity:1;fill-rule:nonzero;stroke:none" transform="translate(282.042 352.381)"/><path d="M0 0a4.287 4.287 0 1 0-8.575 0A4.287 4.287 0 0 0 0 0" style="fill:#fff;fill-opacity:1;fill-rule:nonzero;stroke:none" transform="translate(292.878 352.381)"/><path d="M0 0a3.898 3.898 0 0 0-7.794 0A3.897 3.897 0 0 0 0 0" style="fill:#fff;fill-opacity:1;fill-rule:nonzero;stroke:none" transform="translate(179.009 342.875)"/><path d="M0 0a3.898 3.898 0 0 0-7.794 0A3.897 3.897 0 0 0 0 0" style="fill:#fff;fill-opacity:1;fill-rule:nonzero;stroke:none" transform="translate(189.542 342.875)"/><path d="M0 0a3.896 3.896 0 1 0-7.793 0A3.896 3.896 0 0 0 0 0" style="fill:#fff;fill-opacity:1;fill-rule:nonzero;stroke:none" transform="translate(200.388 342.875)"/><path d="M0 0a3.897 3.897 0 1 0-7.794.002A3.897 3.897 0 0 0 0 0" style="fill:#fff;fill-opacity:1;fill-rule:nonzero;stroke:none" transform="translate(211.223 342.875)"/><path d="M0 0a3.896 3.896 0 1 0-7.793 0A3.896 3.896 0 0 0 0 0" style="fill:#fff;fill-opacity:1;fill-rule:nonzero;stroke:none" transform="translate(222.058 342.875)"/><path d="M0 0a3.896 3.896 0 1 0-7.793 0A3.896 3.896 0 0 0 0 0" style="fill:#fff;fill-opacity:1;fill-rule:nonzero;stroke:none" transform="translate(232.894 342.875)"/><path d="M0 0a3.897 3.897 0 0 0-7.793 0A3.896 3.896 0 0 0 0 0" style="fill:#fff;fill-opacity:1;fill-rule:nonzero;stroke:none" transform="translate(243.73 342.875)"/><path d="M0 0a3.897 3.897 0 1 0-7.793.001A3.897 3.897 0 0 0 0 0" style="fill:#fff;fill-opacity:1;fill-rule:nonzero;stroke:none" transform="translate(254.564 342.875)"/><path d="M0 0a3.897 3.897 0 1 0-7.794.002A3.897 3.897 0 0 0 0 0" style="fill:#fff;fill-opacity:1;fill-rule:nonzero;stroke:none" transform="translate(265.4 342.875)"/><path d="M0 0a3.896 3.896 0 1 0-7.791 0A3.896 3.896 0 0 0 0 0" style="fill:#fff;fill-opacity:1;fill-rule:nonzero;stroke:none" transform="translate(276.233 342.875)"/><path d="M0 0a3.895 3.895 0 1 0-7.791-.001A3.895 3.895 0 0 0 0 0" style="fill:#fff;fill-opacity:1;fill-rule:nonzero;stroke:none" transform="translate(287.07 342.875)"/><path d="M0 0a3.894 3.894 0 0 0-3.895-3.896 3.897 3.897 0 0 0 0 7.792A3.893 3.893 0 0 0 0 0" style="fill:#fff;fill-opacity:1;fill-rule:nonzero;stroke:none" transform="translate(297.903 342.875)"/><path d="M0 0a2.73 2.73 0 0 0-2.729-2.729 2.726 2.726 0 0 0 0 5.454A2.727 2.727 0 0 0 0 0" style="fill:#fff;fill-opacity:1;fill-rule:nonzero;stroke:none" transform="translate(172.27 333.595)"/><path d="M0 0a2.729 2.729 0 1 0-5.455 0A2.727 2.727 0 0 0 0 0" style="fill:#fff;fill-opacity:1;fill-rule:nonzero;stroke:none" transform="translate(183.106 333.595)"/><path d="M0 0a2.73 2.73 0 0 0-2.728-2.729 2.727 2.727 0 1 0 0 5.454A2.728 2.728 0 0 0 0 0" style="fill:#fff;fill-opacity:1;fill-rule:nonzero;stroke:none" transform="translate(193.795 333.595)"/><path d="M0 0a2.728 2.728 0 1 0-5.452-.002A2.728 2.728 0 0 0 0 0" style="fill:#fff;fill-opacity:1;fill-rule:nonzero;stroke:none" transform="translate(204.636 333.595)"/><path d="M0 0a2.73 2.73 0 0 0-2.729-2.729 2.727 2.727 0 1 0 0 5.454A2.728 2.728 0 0 0 0 0" style="fill:#fff;fill-opacity:1;fill-rule:nonzero;stroke:none" transform="translate(215.473 333.595)"/><path d="M0 0a2.728 2.728 0 1 0-5.45-.003A2.728 2.728 0 0 0 0 0" style="fill:#fff;fill-opacity:1;fill-rule:nonzero;stroke:none" transform="translate(226.307 333.595)"/><path d="M0 0a2.73 2.73 0 0 0-2.729-2.729 2.728 2.728 0 1 0 0 5.454A2.727 2.727 0 0 0 0 0" style="fill:#fff;fill-opacity:1;fill-rule:nonzero;stroke:none" transform="translate(237.144 333.595)"/><path d="M0 0a2.73 2.73 0 0 0-2.729-2.729 2.726 2.726 0 0 0 0 5.454A2.727 2.727 0 0 0 0 0" style="fill:#fff;fill-opacity:1;fill-rule:nonzero;stroke:none" transform="translate(247.977 333.595)"/><path d="M0 0a2.73 2.73 0 0 0-2.729-2.729A2.73 2.73 0 0 0-5.457 0 2.728 2.728 0 0 0 0 0" style="fill:#fff;fill-opacity:1;fill-rule:nonzero;stroke:none" transform="translate(258.813 333.595)"/><path d="M0 0a2.73 2.73 0 0 0-2.729-2.729 2.726 2.726 0 0 0 0 5.454A2.727 2.727 0 0 0 0 0" style="fill:#fff;fill-opacity:1;fill-rule:nonzero;stroke:none" transform="translate(269.647 333.595)"/><path d="M0 0a2.728 2.728 0 1 0-5.454-.002A2.728 2.728 0 0 0 0 0" style="fill:#fff;fill-opacity:1;fill-rule:nonzero;stroke:none" transform="translate(280.483 333.595)"/><path d="M0 0a2.728 2.728 0 1 0-5.455 0A2.728 2.728 0 0 0 0 0" style="fill:#fff;fill-opacity:1;fill-rule:nonzero;stroke:none" transform="translate(291.317 333.595)"/><path d="M0 0a2.73 2.73 0 0 0-2.727-2.729A2.727 2.727 0 1 0 0 0" style="fill:#fff;fill-opacity:1;fill-rule:nonzero;stroke:none" transform="translate(302.153 333.595)"/><path d="M0 0a2.337 2.337 0 1 0-4.675.005A2.337 2.337 0 0 0 0 0" style="fill:#fff;fill-opacity:1;fill-rule:nonzero;stroke:none" transform="translate(166.463 324.58)"/><path d="M0 0a2.336 2.336 0 0 0-4.674 0 2.338 2.338 0 0 0 2.336 2.34A2.34 2.34 0 0 0 0 0" style="fill:#fff;fill-opacity:1;fill-rule:nonzero;stroke:none" transform="translate(177.299 324.58)"/><path d="M0 0a2.339 2.339 0 0 0-4.678 0 2.34 2.34 0 0 0 2.34 2.34A2.341 2.341 0 0 0 0 0" style="fill:#fff;fill-opacity:1;fill-rule:nonzero;stroke:none" transform="translate(188.063 324.58)"/><path d="M0 0a2.338 2.338 0 1 0-4.676.006A2.338 2.338 0 0 0 0 0" style="fill:#fff;fill-opacity:1;fill-rule:nonzero;stroke:none" transform="translate(198.826 324.58)"/><path d="M0 0a2.338 2.338 0 1 0-4.675.005A2.338 2.338 0 0 0 0 0" style="fill:#fff;fill-opacity:1;fill-rule:nonzero;stroke:none" transform="translate(209.665 324.58)"/><path d="M0 0a2.339 2.339 0 1 0-4.677.007A2.339 2.339 0 0 0 0 0" style="fill:#fff;fill-opacity:1;fill-rule:nonzero;stroke:none" transform="translate(220.5 324.58)"/><path d="M0 0a2.337 2.337 0 1 0-4.674.004A2.337 2.337 0 0 0 0 0" style="fill:#fff;fill-opacity:1;fill-rule:nonzero;stroke:none" transform="translate(231.334 324.58)"/><path d="M0 0a2.339 2.339 0 0 0-4.676 0A2.339 2.339 0 1 0 0 0" style="fill:#fff;fill-opacity:1;fill-rule:nonzero;stroke:none" transform="translate(242.17 324.58)"/><path d="M0 0a2.335 2.335 0 1 0-4.672 0 2.34 2.34 0 0 0 2.338 2.34A2.337 2.337 0 0 0 0 0" style="fill:#fff;fill-opacity:1;fill-rule:nonzero;stroke:none" transform="translate(253.003 324.58)"/><path d="M0 0a2.337 2.337 0 1 0-4.674.004A2.337 2.337 0 0 0 0 0" style="fill:#fff;fill-opacity:1;fill-rule:nonzero;stroke:none" transform="translate(263.84 324.58)"/><path d="M0 0a2.337 2.337 0 1 0-4.674.004A2.337 2.337 0 0 0 0 0" style="fill:#fff;fill-opacity:1;fill-rule:nonzero;stroke:none" transform="translate(274.675 324.58)"/><path d="M0 0a2.339 2.339 0 1 0-2.34 2.34A2.341 2.341 0 0 0 0 0" style="fill:#fff;fill-opacity:1;fill-rule:nonzero;stroke:none" transform="translate(285.513 324.58)"/><path d="M0 0a2.338 2.338 0 0 0-4.676 0 2.34 2.34 0 0 0 2.338 2.34A2.34 2.34 0 0 0 0 0" style="fill:#fff;fill-opacity:1;fill-rule:nonzero;stroke:none" transform="translate(296.347 324.58)"/><path d="M0 0a2.337 2.337 0 1 0-4.673.003A2.337 2.337 0 0 0 0 0" style="fill:#fff;fill-opacity:1;fill-rule:nonzero;stroke:none" transform="translate(307.18 324.58)"/><path d="M0 0c0-.86-.7-1.561-1.559-1.561A1.559 1.559 0 1 0 0 0" style="fill:#fff;fill-opacity:1;fill-rule:nonzero;stroke:none" transform="translate(160.268 316.302)"/><path d="M0 0c0-.86-.699-1.561-1.561-1.561a1.56 1.56 0 0 0 0 3.119A1.56 1.56 0 0 0 0 0" style="fill:#fff;fill-opacity:1;fill-rule:nonzero;stroke:none" transform="translate(171.102 316.302)"/><path d="M0 0c0-.86-.699-1.561-1.557-1.561A1.559 1.559 0 1 0 0 0" style="fill:#fff;fill-opacity:1;fill-rule:nonzero;stroke:none" transform="translate(181.9 316.302)"/><path d="M0 0c0-.86-.698-1.561-1.558-1.561A1.559 1.559 0 1 0 0 0" style="fill:#fff;fill-opacity:1;fill-rule:nonzero;stroke:none" transform="translate(192.664 316.302)"/><path d="M0 0a1.56 1.56 0 0 0-1.557-1.561 1.56 1.56 0 0 0 0 3.119C-.697 1.558 0 .86 0 0" style="fill:#fff;fill-opacity:1;fill-rule:nonzero;stroke:none" transform="translate(203.465 316.302)"/><path d="M0 0c0-.86-.7-1.561-1.56-1.561A1.56 1.56 0 1 0 0 0" style="fill:#fff;fill-opacity:1;fill-rule:nonzero;stroke:none" transform="translate(214.304 316.302)"/><path d="M0 0c0-.86-.7-1.561-1.56-1.561A1.559 1.559 0 1 0 0 0" style="fill:#fff;fill-opacity:1;fill-rule:nonzero;stroke:none" transform="translate(225.139 316.302)"/><path d="M0 0c0-.86-.699-1.561-1.559-1.561A1.56 1.56 0 1 0 0 0" style="fill:#fff;fill-opacity:1;fill-rule:nonzero;stroke:none" transform="translate(235.974 316.302)"/><path d="M0 0a1.56 1.56 0 0 0-1.559-1.561 1.56 1.56 0 0 0 0 3.119C-.697 1.558 0 .86 0 0" style="fill:#fff;fill-opacity:1;fill-rule:nonzero;stroke:none" transform="translate(246.808 316.302)"/><path d="M0 0a1.56 1.56 0 0 0-1.559-1.561A1.56 1.56 0 1 0 0 0" style="fill:#fff;fill-opacity:1;fill-rule:nonzero;stroke:none" transform="translate(257.644 316.302)"/><path d="M0 0c0-.86-.699-1.561-1.561-1.561a1.56 1.56 0 0 0 0 3.119A1.56 1.56 0 0 0 0 0" style="fill:#fff;fill-opacity:1;fill-rule:nonzero;stroke:none" transform="translate(268.48 316.302)"/><path d="M0 0a1.56 1.56 0 0 0-1.559-1.561 1.56 1.56 0 0 0 0 3.119C-.697 1.558 0 .86 0 0" style="fill:#fff;fill-opacity:1;fill-rule:nonzero;stroke:none" transform="translate(279.313 316.302)"/><path d="M0 0c0-.86-.699-1.561-1.559-1.561A1.56 1.56 0 1 0 0 0" style="fill:#fff;fill-opacity:1;fill-rule:nonzero;stroke:none" transform="translate(290.15 316.302)"/><path d="M0 0c0-.86-.695-1.561-1.555-1.561a1.56 1.56 0 1 0 0 3.119C-.695 1.558 0 .86 0 0" style="fill:#fff;fill-opacity:1;fill-rule:nonzero;stroke:none" transform="translate(300.981 316.302)"/><path d="M0 0a1.56 1.56 0 0 0-1.559-1.561A1.56 1.56 0 1 0 0 0" style="fill:#fff;fill-opacity:1;fill-rule:nonzero;stroke:none" transform="translate(311.82 316.302)"/><path d="M0 0a1.169 1.169 0 1 0-2.337.001A1.169 1.169 0 0 0 0 0" style="fill:#fff;fill-opacity:1;fill-rule:nonzero;stroke:none" transform="translate(165.295 309.01)"/><path d="M0 0a1.168 1.168 0 1 0-2.336 0A1.168 1.168 0 0 0 0 0" style="fill:#fff;fill-opacity:1;fill-rule:nonzero;stroke:none" transform="translate(176.111 309.01)"/><path d="M0 0a1.168 1.168 0 1 0-2.335 0A1.168 1.168 0 0 0 0 0" style="fill:#fff;fill-opacity:1;fill-rule:nonzero;stroke:none" transform="translate(186.892 309.01)"/><path d="M0 0a1.17 1.17 0 0 0-2.338 0A1.17 1.17 0 0 0 0 0" style="fill:#fff;fill-opacity:1;fill-rule:nonzero;stroke:none" transform="translate(197.675 309.01)"/><path d="M0 0a1.168 1.168 0 1 0-2.336 0A1.168 1.168 0 0 0 0 0" style="fill:#fff;fill-opacity:1;fill-rule:nonzero;stroke:none" transform="translate(208.495 309.01)"/><path d="M0 0a1.168 1.168 0 1 0-2.336 0A1.168 1.168 0 0 0 0 0" style="fill:#fff;fill-opacity:1;fill-rule:nonzero;stroke:none" transform="translate(219.331 309.01)"/><path d="M0 0a1.167 1.167 0 1 0-2.335-.001A1.167 1.167 0 0 0 0 0" style="fill:#fff;fill-opacity:1;fill-rule:nonzero;stroke:none" transform="translate(230.165 309.01)"/><path d="M0 0a1.169 1.169 0 1 0-2.337.001A1.169 1.169 0 0 0 0 0" style="fill:#fff;fill-opacity:1;fill-rule:nonzero;stroke:none" transform="translate(241.001 309.01)"/><path d="M0 0a1.17 1.17 0 0 0-2.338 0A1.17 1.17 0 0 0 0 0" style="fill:#fff;fill-opacity:1;fill-rule:nonzero;stroke:none" transform="translate(251.837 309.01)"/><path d="M0 0a1.17 1.17 0 0 0-2.338 0A1.17 1.17 0 0 0 0 0" style="fill:#fff;fill-opacity:1;fill-rule:nonzero;stroke:none" transform="translate(262.673 309.01)"/><path d="M0 0a1.169 1.169 0 1 0-2.337.001A1.169 1.169 0 0 0 0 0" style="fill:#fff;fill-opacity:1;fill-rule:nonzero;stroke:none" transform="translate(273.507 309.01)"/><path d="M0 0a1.169 1.169 0 1 0-2.337.001A1.169 1.169 0 0 0 0 0" style="fill:#fff;fill-opacity:1;fill-rule:nonzero;stroke:none" transform="translate(284.343 309.01)"/><path d="M0 0a1.17 1.17 0 0 0-2.338 0A1.169 1.169 0 0 0 0 0" style="fill:#fff;fill-opacity:1;fill-rule:nonzero;stroke:none" transform="translate(295.177 309.01)"/><path d="M0 0a1.168 1.168 0 1 0-2.336 0A1.168 1.168 0 0 0 0 0" style="fill:#fff;fill-opacity:1;fill-rule:nonzero;stroke:none" transform="translate(306.013 309.01)"/></g><path d="M0 0h18.466L6.339-57.756H-12.42L-.042 0" style="fill:#00aa4f;fill-opacity:1;fill-rule:nonzero;stroke:none" transform="matrix(1.33333 0 0 -1.33333 177.524 150.424)"/><path d="M0 0h16.766L4.639-57.756h-18.752L-1.746 0" style="fill:#1d439b;fill-opacity:1;fill-rule:nonzero;stroke:none" transform="matrix(1.33333 0 0 -1.33333 233.877 150.424)"/><path d="M0 0s16.64 3.387 18.847 4.563c0 0 15.64 5.479 19.306 8.695 0 0 11.643 6.478 18.713 8.697 0 0 12.321 4.937 21.793 6.781 0 0 15.473 2.64 25.488 1.319 0 0-18.703-1.886-27.195-5.678 0 0-4.289-.917-16.556-10.682 0 0-13.553-11.051-20.918-12.085 0 0-16.495-5.149-39.478-1.61" style="fill:#00aa4f;fill-opacity:1;fill-rule:nonzero;stroke:none" transform="matrix(1.33333 0 0 -1.33333 183.826 189.044)"/><path d="M0 0h8.452L7.159-8.615 17.582 0h10.075L15.506-9.744l8.466-15.578H13.598L8.227-15.116 5.202-17.7l-1.569-7.622h-8.57z" style="fill:#1d439b;fill-opacity:1;fill-rule:nonzero;stroke:none" transform="matrix(1.33333 0 0 -1.33333 103.72 172.046)"/><path d="M0 0h8.184l7.84-14.278L18.71 0h8.293l-4.925-25.322H14.12L6.224-11.473 3.702-25.255h-8.117z" style="fill:#1d439b;fill-opacity:1;fill-rule:nonzero;stroke:none" transform="matrix(1.33333 0 0 -1.33333 144.71 172.046)"/><path d="M0 0h8.414L5.373-15.85s-.436-3.753 3.867-3.971c0 0 3.842-.218 5.201 3.425L17.545 0h8.24l-2.924-16.235s-1.363-9.513-14.662-9.126c0 0-11.403-1.087-11.135 8.198z" style="fill:#1d439b;fill-opacity:1;fill-rule:nonzero;stroke:none" transform="matrix(1.33333 0 0 -1.33333 186.075 171.995)"/><path d="M0 0s19.215-10.838 45.866-7.219C72.519-3.6 94.86 14.336 105.091 35.869c0 0-39.498 8.072-105.091-35.869" style="fill:#f37021;fill-opacity:1;fill-rule:nonzero;stroke:none" transform="matrix(1.33333 0 0 -1.33333 142.717 282.956)"/><path d="M0 0s5.538-8.02 21.583-16.473c0 0 43.26 30.481 83.68 35.493 0 0-55.761 9.945-105.263-19.02" style="fill:#00aa4f;fill-opacity:1;fill-rule:nonzero;stroke:none" transform="matrix(1.33333 0 0 -1.33333 111.722 259.662)"/></svg>