<svg xmlns="http://www.w3.org/2000/svg" xml:space="preserve" width="1149.8654" height="175.19867" viewBox="0 0 1149.8654 175.19867"><path d="M238.943 98.901c-1.052-21.074-14.197-60.603-32.115-60.603-3.986 0-6.235 1.395-8.024 4.977-.834 1.672-1.436 3.575-1.848 5.606 5.846 10.943 9.369 22.32 10.08 29.693 1.33 13.8-7.225 16.558-9.881 17.075-2.365.461-8.413.82-13.441-5.77-5.213-6.833-9.138-22.005-8.254-36.664-1.785-2.806-3.772-5.479-5.95-7.83-2.991-3.233-7.526-7.087-12.134-7.087-4.01 0-5.088 1.457-5.668 2.24-3.983 5.377-5.282 27.86 6.564 58.363h-22.853C118.658 51.086 85.89 38.298 70.594 38.298c-7.283 0-13.26 2.213-17.283 6.4-3.7 3.85-5.603 9.304-5.363 15.361.129 3.235 1.249 11.377 8.854 17.102 8.426 6.343 22.097 7.545 39.582 3.531l8.306 19.43-1.67.41c-31.043 7.614-49.078.541-58.742-6.733-10.37-7.807-16.616-19.803-17.137-32.913-.468-11.772 3.493-22.645 11.155-30.617 7.929-8.25 19.4-12.795 32.298-12.795 14.903 0 31.739 6.575 46.188 18.041a102.55 102.55 0 0 1 11.636 10.834c.913-7.459 3.098-13.536 6.555-18.205 3.606-4.868 10.419-10.67 22.403-10.67 9.712 0 18.309 4.845 25.51 11.97 5.54-7.762 13.872-11.97 23.942-11.97 37.773 0 52.325 59.398 52.946 81.427z" style="fill:#173e7d;fill-opacity:1;fill-rule:nonzero;stroke:none" transform="matrix(1.33333 0 0 -1.33333 0 175.199)"/><path d="M305.154 124.56a4.072 4.072 0 0 1-3.605 2.196 4.071 4.071 0 0 1-3.605-2.197L266.73 57.384s24.437-4.674 38.339 25.196c7.782 16.723 2.75 34.776.084 41.98" style="fill:#f9a721;fill-opacity:1;fill-rule:nonzero;stroke:none" transform="matrix(1.33333 0 0 -1.33333 0 175.199)"/><path d="M305.154 124.559c2.667-7.204 7.697-25.256-.084-41.978a60.016 60.016 0 0 0-3.528-6.504.254.254 0 0 0 .008-.018c14.133-22.628 34.818-18.674 34.818-18.674z" style="fill:#173e7d;fill-opacity:1;fill-rule:nonzero;stroke:none" transform="matrix(1.33333 0 0 -1.33333 0 175.199)"/><path d="M386.932 10.491v.043c0 1.991-1.443 3.641-3.49 3.641-2.09 0-3.425-1.628-3.425-3.599v-.042c0-1.97 1.444-3.642 3.469-3.642 2.11 0 3.446 1.65 3.446 3.6m-9.521 0v.042c0 3.234 2.585 5.911 6.075 5.911 3.489 0 6.052-2.634 6.052-5.869v-.042c0-3.213-2.585-5.89-6.096-5.89-3.468 0-6.031 2.634-6.031 5.847M391.755 16.21h2.606v-1.756c.733 1.071 1.789 1.992 3.555 1.992 2.563 0 4.049-1.714 4.049-4.349V4.9h-2.606v6.426c0 1.757-.883 2.764-2.434 2.764-1.508 0-2.564-1.05-2.564-2.807V4.9h-2.606zM403.752 6.379l1.163 1.756c1.228-.921 2.564-1.392 3.727-1.392 1.12 0 1.766.47 1.766 1.22v.044c0 .878-1.206 1.178-2.542 1.585-1.68.47-3.554 1.156-3.554 3.32v.043c0 2.142 1.788 3.448 4.05 3.448 1.42 0 2.972-.493 4.179-1.285l-1.035-1.842c-1.098.664-2.261 1.07-3.21 1.07-1.011 0-1.593-.47-1.593-1.134v-.043c0-.814 1.228-1.157 2.563-1.585 1.659-.514 3.533-1.264 3.533-3.3v-.041c0-2.378-1.852-3.556-4.222-3.556-1.616 0-3.403.578-4.825 1.692M415.339 8.028v5.955h-1.443v2.227h1.443v3.106h2.607V16.21h3.059v-2.227h-3.06V8.435c0-1.007.518-1.414 1.4-1.414.582 0 1.099.129 1.617.386V5.286c-.647-.364-1.38-.578-2.35-.578-1.916 0-3.273.836-3.273 3.32M423.2 16.21h2.606v-2.549c.711 1.692 2.025 2.85 4.03 2.763v-2.742h-.152c-2.283 0-3.878-1.477-3.878-4.476V4.9H423.2zM431.536 9.013v7.197h2.606V9.784c0-1.757.883-2.763 2.434-2.763 1.508 0 2.564 1.05 2.564 2.806v6.383h2.606V4.9h-2.606v1.757c-.733-1.07-1.788-1.992-3.555-1.992-2.563 0-4.05 1.713-4.05 4.348M443.962 10.491v.043c0 3.213 2.5 5.911 5.902 5.911 2.155 0 3.49-.792 4.545-1.949l-1.615-1.735c-.797.836-1.637 1.414-2.95 1.414-1.897 0-3.276-1.628-3.276-3.599v-.042c0-2.014 1.401-3.642 3.404-3.642 1.228 0 2.133.58 2.951 1.414l1.573-1.542c-1.12-1.242-2.434-2.12-4.653-2.12-3.382 0-5.88 2.634-5.88 5.847M456.993 8.028v5.955h-1.443v2.227h1.443v3.106h2.606V16.21h3.06v-2.227h-3.06V8.435c0-1.007.518-1.414 1.401-1.414a3.52 3.52 0 0 1 1.615.386V5.286c-.646-.364-1.378-.578-2.348-.578-1.917 0-3.274.836-3.274 3.32M465.005 16.21h2.606V4.9h-2.606zm-.108 4.198h2.8v-2.463h-2.8zM479.48 10.491v.043c0 1.991-1.443 3.641-3.49 3.641-2.09 0-3.425-1.628-3.425-3.599v-.042c0-1.97 1.443-3.642 3.468-3.642 2.111 0 3.447 1.65 3.447 3.6m-9.521 0v.042c0 3.234 2.584 5.911 6.074 5.911 3.49 0 6.053-2.634 6.053-5.869v-.042c0-3.213-2.585-5.89-6.096-5.89-3.468 0-6.031 2.634-6.031 5.847M484.303 16.21h2.606v-1.756c.733 1.071 1.788 1.992 3.555 1.992 2.563 0 4.05-1.714 4.05-4.349V4.9h-2.607v6.426c0 1.757-.883 2.764-2.435 2.764-1.507 0-2.563-1.05-2.563-2.807V4.9h-2.606zM534.358 10.491v.043c0 1.991-1.443 3.641-3.489 3.641-2.09 0-3.426-1.628-3.426-3.599v-.042c0-1.97 1.444-3.642 3.47-3.642 2.11 0 3.445 1.65 3.445 3.6m-9.52 0v.042c0 3.234 2.584 5.911 6.074 5.911 3.49 0 6.052-2.634 6.052-5.869v-.042c0-3.213-2.585-5.89-6.095-5.89-3.469 0-6.032 2.634-6.032 5.847M539.182 16.21h2.606v-2.549c.71 1.692 2.025 2.85 4.029 2.763v-2.742h-.151c-2.283 0-3.878-1.477-3.878-4.476V4.9h-2.606zM547.646 20.408h2.606v-9.21l4.718 5.012h3.167l-4.524-4.605 4.674-6.705h-3.016l-3.424 4.884-1.595-1.649V4.9h-2.606zM567.01 11.348c-.172 1.67-1.164 2.977-2.887 2.977-1.593 0-2.714-1.221-2.951-2.977zm-8.422-.835v.042c0 3.235 2.304 5.891 5.557 5.891 3.619 0 5.45-2.827 5.45-6.083 0-.236-.022-.472-.043-.729h-8.358c.28-1.842 1.594-2.87 3.274-2.87 1.27 0 2.176.471 3.08 1.35l1.53-1.35c-1.077-1.285-2.564-2.121-4.653-2.121-3.296 0-5.837 2.378-5.837 5.87M571.79 16.21h2.606v-2.549c.711 1.692 2.025 2.85 4.028 2.763v-2.742h-.151c-2.283 0-3.877-1.477-3.877-4.476V4.9h-2.606zM579.328 6.379l1.164 1.756c1.227-.921 2.563-1.392 3.726-1.392 1.12 0 1.766.47 1.766 1.22v.044c0 .878-1.206 1.178-2.542 1.585-1.68.47-3.554 1.156-3.554 3.32v.043c0 2.142 1.788 3.448 4.05 3.448 1.422 0 2.973-.493 4.179-1.285l-1.034-1.842c-1.1.664-2.262 1.07-3.21 1.07-1.012 0-1.594-.47-1.594-1.134v-.043c0-.814 1.228-1.157 2.564-1.585 1.658-.514 3.532-1.264 3.532-3.3v-.041c0-2.378-1.852-3.556-4.222-3.556-1.615 0-3.403.578-4.825 1.692M502.394 20.408h2.865l3.597-11.523 3.705 11.523h2.241l3.705-11.523 3.598 11.523h2.779L519.628 4.9h-2.284l-3.705 10.774L509.935 4.9h-2.284zM362.002 12.589v.044c0 4.392 3.307 7.989 8.012 7.989 2.863 0 4.594-.993 6.081-2.405l-1.753-2.01c-1.243 1.149-2.574 1.922-4.35 1.922-2.974 0-5.127-2.428-5.127-5.452v-.044c0-3.023 2.153-5.495 5.127-5.495 1.908 0 3.129.772 4.461 2.008l1.754-1.765c-1.621-1.678-3.396-2.737-6.304-2.737-4.527 0-7.901 3.509-7.901 7.945M616.081 9.013v7.197h2.606V9.784c0-1.757.884-2.763 2.435-2.763 1.507 0 2.563 1.05 2.563 2.806v6.383h2.606V4.9h-2.606v1.757c-.732-1.07-1.788-1.992-3.555-1.992-2.563 0-4.049 1.713-4.049 4.348M629.671 8.028v5.955h-1.443v2.227h1.443v3.106h2.606V16.21h3.06v-2.227h-3.06V8.435c0-1.007.518-1.414 1.401-1.414a3.52 3.52 0 0 1 1.615.386V5.286c-.646-.364-1.378-.578-2.348-.578-1.917 0-3.274.836-3.274 3.32M637.403 9.013v7.197h2.606V9.784c0-1.757.884-2.763 2.435-2.763 1.507 0 2.563 1.05 2.563 2.806v6.383h2.606V4.9h-2.606v1.757c-.732-1.07-1.788-1.992-3.554-1.992-2.564 0-4.05 1.713-4.05 4.348M657.477 9.634c-.668.257-1.594.45-2.606.45-1.638 0-2.607-.664-2.607-1.757v-.042c0-1.07.97-1.67 2.197-1.67 1.724 0 3.016.963 3.016 2.376zm-.064-4.734v1.392c-.776-.92-1.96-1.627-3.684-1.627-2.154 0-4.05 1.221-4.05 3.491V8.2c0 2.506 1.962 3.706 4.61 3.706 1.379 0 2.263-.193 3.146-.472v.214c0 1.564-.991 2.421-2.8 2.421-1.271 0-2.22-.279-3.253-.707l-.711 2.078c1.249.557 2.477.942 4.33.942 3.36 0 4.997-1.756 4.997-4.777V4.9zM662.818 20.408h2.606V4.9h-2.606zM691.162 16.21h2.606V4.9h-2.606zm-.108 4.198h2.8v-2.463h-2.8zM705.356 10.534v.043c0 2.185-1.551 3.62-3.296 3.62-1.787 0-3.274-1.37-3.274-3.62v-.043c0-2.185 1.508-3.62 3.274-3.62 1.745 0 3.296 1.456 3.296 3.62m-9.198 0v.043c0 3.748 2.563 5.87 5.278 5.87 1.874 0 3.058-.944 3.877-1.993v5.954h2.606V4.9h-2.606v1.885c-.84-1.178-2.025-2.12-3.877-2.12-2.671 0-5.278 2.12-5.278 5.87M732.428 6.379l1.163 1.756c1.228-.921 2.564-1.392 3.727-1.392 1.12 0 1.766.47 1.766 1.22v.044c0 .878-1.206 1.178-2.542 1.585-1.68.47-3.554 1.156-3.554 3.32v.043c0 2.142 1.788 3.448 4.05 3.448 1.42 0 2.972-.493 4.179-1.285l-1.035-1.842c-1.098.664-2.261 1.07-3.21 1.07-1.011 0-1.593-.47-1.593-1.134v-.043c0-.814 1.228-1.157 2.563-1.585 1.659-.514 3.533-1.264 3.533-3.3v-.041c0-2.378-1.853-3.556-4.222-3.556-1.616 0-3.404.578-4.825 1.692M742.55 6.379l1.164 1.756c1.228-.921 2.564-1.392 3.727-1.392 1.12 0 1.766.47 1.766 1.22v.044c0 .878-1.206 1.178-2.542 1.585-1.68.47-3.554 1.156-3.554 3.32v.043c0 2.142 1.788 3.448 4.05 3.448 1.42 0 2.972-.493 4.179-1.285l-1.035-1.842c-1.098.664-2.261 1.07-3.21 1.07-1.011 0-1.593-.47-1.593-1.134v-.043c0-.814 1.228-1.157 2.563-1.585 1.659-.514 3.533-1.264 3.533-3.3v-.041c0-2.378-1.853-3.556-4.222-3.556-1.616 0-3.404.578-4.825 1.692M762.711 10.491v.043c0 1.991-1.443 3.641-3.49 3.641-2.089 0-3.425-1.628-3.425-3.599v-.042c0-1.97 1.444-3.642 3.468-3.642 2.112 0 3.447 1.65 3.447 3.6m-9.52 0v.042c0 3.234 2.584 5.911 6.073 5.911 3.49 0 6.053-2.634 6.053-5.869v-.042c0-3.213-2.585-5.89-6.096-5.89-3.468 0-6.03 2.634-6.03 5.847M766.91 10.491v.043c0 3.213 2.5 5.911 5.902 5.911 2.154 0 3.49-.792 4.545-1.949l-1.615-1.735c-.797.836-1.637 1.414-2.95 1.414-1.897 0-3.276-1.628-3.276-3.599v-.042c0-2.014 1.4-3.642 3.404-3.642 1.228 0 2.133.58 2.951 1.414l1.573-1.542c-1.12-1.242-2.434-2.12-4.653-2.12-3.382 0-5.88 2.634-5.88 5.847M779.553 16.21h2.606V4.9h-2.606zm-.108 4.198h2.8v-2.463h-2.8zM792.154 9.634c-.668.257-1.594.45-2.606.45-1.638 0-2.607-.664-2.607-1.757v-.042c0-1.07.969-1.67 2.197-1.67 1.723 0 3.016.963 3.016 2.376zm-.065-4.734v1.392c-.775-.92-1.96-1.627-3.684-1.627-2.153 0-4.05 1.221-4.05 3.491V8.2c0 2.506 1.96 3.706 4.61 3.706 1.379 0 2.263-.193 3.146-.472v.214c0 1.564-.991 2.421-2.801 2.421-1.27 0-2.218-.279-3.252-.707l-.711 2.078c1.249.557 2.477.942 4.329.942 3.36 0 4.998-1.756 4.998-4.777V4.9zM797.774 8.028v5.955h-1.443v2.227h1.443v3.106h2.607V16.21h3.059v-2.227h-3.06V8.435c0-1.007.518-1.414 1.4-1.414a3.52 3.52 0 0 1 1.616.386V5.286c-.646-.364-1.378-.578-2.348-.578-1.917 0-3.274.836-3.274 3.32M805.786 16.21h2.606V4.9h-2.606zm-.108 4.198h2.8v-2.463h-2.8zM820.26 10.491v.043c0 1.991-1.442 3.641-3.49 3.641-2.088 0-3.424-1.628-3.424-3.599v-.042c0-1.97 1.443-3.642 3.468-3.642 2.112 0 3.447 1.65 3.447 3.6m-9.521 0v.042c0 3.234 2.585 5.911 6.074 5.911 3.49 0 6.053-2.634 6.053-5.869v-.042c0-3.213-2.585-5.89-6.096-5.89-3.468 0-6.031 2.634-6.031 5.847M825.084 16.21h2.606v-1.756c.733 1.071 1.788 1.992 3.555 1.992 2.563 0 4.049-1.714 4.049-4.349V4.9h-2.606v6.426c0 1.757-.883 2.764-2.434 2.764-1.508 0-2.564-1.05-2.564-2.807V4.9h-2.606zM598.248 20.408h2.822l4.588-7.604 4.589 7.604h2.82V4.9h-2.65v10.86l-4.76-7.478h-.085l-4.718 7.434V4.9h-2.606zM726.205 10.855l-2.606 6.361-2.585-6.36zm-3.791 9.553h2.456L731.504 4.9h-2.8l-1.53 3.62h-7.13l-1.551-3.62h-2.714zM683.861 10.855l-2.606 6.361-2.585-6.36zm-3.79 9.553h2.455L689.16 4.9h-2.8l-1.53 3.62h-7.13l-1.55-3.62h-2.715zM766.369 40.352h7.23v58.554h-7.23zM755.222 81.239h-9.815v-6.27h9.815V40.353h7.23v58.554h-7.23z" style="fill:#47494d;fill-opacity:1;fill-rule:nonzero;stroke:none" transform="matrix(1.33333 0 0 -1.33333 0 175.199)"/><path d="M738.248 82.334v8.117h9.802v6.27h-27.634v-6.27h10.083v-8.117c0-5.022.869-17.562-13.446-26.194l4.4-5.341c7.418 4.323 10.749 9.434 12.873 13.787 2.128-4.33 5.427-9.376 12.706-13.524l4.4 5.34c-14.48 8.12-13.184 20.91-13.184 25.932M517.195 74.376h7.6V96.72h-38.07v-6.27h30.47zM477.56 63.24h56.401v6.532H477.56ZM494.012 44.21v13.4h-7.6V43.4a7.17 7.17 0 0 1 7.17-7.169h32.432v6.27H495.72c-.943 0-1.708.765-1.708 1.708M568.862 60.39h16.724v6.638H554.57c-.944 0-1.71.765-1.71 1.71v7.033h31.618v20.95H545.63v-6.378h31.247v-8.456h-31.616V67.559a7.169 7.169 0 0 1 7.169-7.17h8.83v-9.327h-24.753v-6.533h56.4v6.533h-24.046zM462.221 64.01h7.6v34.897h-7.6V88.299h-12.067v-6.27h12.067zM437.737 44.21v1.63h32.084v15.196h-39.684V55.03h32.084v-3.445h-32.084v-8.183a7.17 7.17 0 0 1 7.17-7.169h33.99v6.27h-31.852c-.943 0-1.708.765-1.708 1.708M435.276 78.122c2.319-4.164 6.05-8.587 14.294-12.934l4.4 5.341c-13.962 7.117-14.826 16.872-14.826 21.893v5.497h-7.736v-5.497c0-5.02-.864-14.776-14.826-21.893l4.4-5.34c8.245 4.346 11.975 8.77 14.294 12.933M646.813 98.906h-7.599V40.352h7.6v36.634h10.01v6.27h-10.01zM619.205 81.284v9.167h12.52v6.27h-32.802v-6.27h12.532v-9.167c0-5.022-.443-16.25-14.758-24.882l4.4-5.34c7.726 4.072 11.757 9.682 14.233 14.28 2.476-4.598 6.507-10.208 14.233-14.28l4.4 5.34c-14.48 8.12-14.758 19.86-14.758 24.882M827.695 40.352h7.6v58.554h-7.6zM794.743 71.088c0 5.089 3.536 8.407 8.408 8.407s8.407-3.318 8.407-8.407c0-5.09-3.535-8.407-8.407-8.407s-8.408 3.318-8.408 8.407m12.208-14.066c6.957 1.389 11.897 6.61 11.897 14.066 0 8.755-6.802 14.449-15.697 14.449s-15.698-5.694-15.698-14.45c0-7.454 4.941-12.676 11.898-14.065v-5.115h-17.307v-6.27h42.928v6.27h-18.02zM821.678 95.253H806.95v5.569h-7.6v-5.57h-14.726v-6.27h37.053zM700.254 76.03h7.6v22.148h-41.655V91.8h34.055z" style="fill:#47494d;fill-opacity:1;fill-rule:nonzero;stroke:none" transform="matrix(1.33333 0 0 -1.33333 0 175.199)"/><path d="M685.491 84.849h-7.6V71.806h-19.83v-6.27h56.401v6.27h-28.97zM686.262 40.037c-6.176 0-10.503 2.82-10.503 7.872s4.327 7.872 10.503 7.872c6.175 0 10.503-2.82 10.503-7.872s-4.328-7.872-10.503-7.872m0 21.966c-12.292 0-18.601-5.958-18.601-14.094s6.309-14.094 18.6-14.094c12.292 0 18.6 5.958 18.6 14.094s-6.308 14.094-18.6 14.094M390.911 80.735v-6.27h12.067V51.873h7.6v47.034h-7.6V80.735zM378.313 44.209v13.4h-7.6v-14.21a7.17 7.17 0 0 1 7.17-7.17h34.125v6.272h-31.987c-.943 0-1.708.765-1.708 1.708M390.911 95.24h-28.909v-6.27h20.091c0-7.508-7.118-18.477-22.246-22.943l3.095-6.161c12.142 3.194 27.97 13.554 27.97 35.374" style="fill:#47494d;fill-opacity:1;fill-rule:nonzero;stroke:none" transform="matrix(1.33333 0 0 -1.33333 0 175.199)"/></svg>