<svg xmlns="http://www.w3.org/2000/svg" width="300.472pt" height="60.6081pt" viewBox="0 0 300.472 60.6081"><clipPath id="a"><path d="M0 0h300.472v60.608H0Z"/></clipPath><g clip-path="url(#a)"><path fill="#ed1c24" d="M41.06 27.307c-3.61-.058-5.413.7-5.413 2.273 0 1.66 1.759 2.072 2.485 2.072 1.249 0 2.088-.509 2.52-1.526.272-.632.408-1.573.408-2.819m-4.625-3.589h-4.9c0-2.848 2.419-4.537 7.345-4.537 4.85 0 7.275 1.81 7.275 5.428v6.587c0 1.84.35 2.91.35 2.91h-4.707s-.222-1.217-.222-1.933c-1.09 1.584-2.835 2.375-5.24 2.375-2.234 0-5.582-.782-5.582-4.38 0-5.178 6.652-5.365 10.306-5.365v-1.119c0-1.157-.695-2.047-2.218-2.047-1.438 0-2.407.843-2.407 2.081M68.734 34.106s-.167-1.123-.225-1.963c-1.031 1.534-2.981 2.405-5.377 2.405-2.346 0-5.955-1.433-5.955-5.515v-9.41h5.096v8.683c0 2.3 1.024 3.345 3.069 3.345 2.472 0 3.068-1.334 3.068-3.345v-8.683h5.095v10.214c0 2.254.325 4.27.325 4.27ZM84.31 19.623s.323 2.05.323 4.181v10.302h5.095v-7.188c0-2.75 1.361-3.638 3.17-3.638h2.215v-3.829c-2.843-.055-4.697.802-5.709 2.587 0-1.143-.258-2.415-.258-2.415ZM104.796 52.25h5.094V39.138h-5.094Zm0-18.178h5.094v-3.73h-5.094ZM18.786 8.38h-5.108c-1.744 3.838-5.174 11.343-5.174 19.298 0 7.953 3.43 15.458 5.174 19.297h5.108c-1.39-3.447-4.724-11.372-4.724-19.297 0-7.926 3.334-15.852 4.724-19.298M122.997 46.975h5.108c1.745-3.84 5.174-11.344 5.174-19.298 0-7.954-3.43-15.458-5.174-19.297h-5.108c1.39 3.447 4.725 11.372 4.725 19.297 0 7.926-3.335 15.852-4.725 19.298"/><path fill="#231f20" d="M153.794 34.107h.938l1.887 5.793h-.827l-.417-1.38h-2.238l-.434 1.38h-.746Zm.45.682h-.016l-.907 3.09h1.853ZM158.42 36.458h.016c.273-.618.61-.69 1.252-.69v.682l-.177-.024c-.056-.008-.112-.016-.176-.016-.73 0-.915.554-.915 1.099v2.392h-.658v-4.053h.658ZM162.498 37.148c.016-.666-.312-.843-.562-.843-.505 0-.851.241-.851 1.35 0 1.314.168 1.788.85 1.788.154 0 .61-.16.588-.89h.689c.024 1.14-.826 1.427-1.276 1.427-.86 0-1.541-.256-1.541-2.047 0-1.186.137-2.166 1.54-2.166.812 0 1.285.474 1.245 1.381ZM166.53 39.9v-2.744c0-.498-.16-.85-.723-.85-.658 0-.826.53-.826 1.21V39.9h-.658v-5.793h.658v2.263h.032c.264-.474.57-.603 1.1-.603.688 0 1.074.346 1.074 1.261V39.9ZM168.602 34.813h.739v-.707h-.739Zm.04 5.087h.657v-4.052h-.657ZM171.073 35.848v-.777l.659-.297v1.074h.882v.498h-.882v2.48c0 .256 0 .585.602.585.048 0 .153-.015.297-.031v.504c-.217.017-.434.065-.651.065-.626 0-.907-.256-.907-.722v-2.881h-.665v-.498ZM174.15 38.087c0 1.132.304 1.356.818 1.356.45 0 .682-.361.706-.771h.722c-.008.899-.56 1.31-1.412 1.31-.858 0-1.54-.257-1.54-2.047 0-1.188.136-2.167 1.54-2.167 1.156 0 1.445.634 1.445 1.973v.346Zm1.58-.498c0-1.18-.329-1.323-.81-1.323-.417 0-.763.2-.77 1.323ZM179.468 37.148c.016-.666-.312-.843-.56-.843-.507 0-.85.241-.85 1.35 0 1.314.167 1.788.85 1.788.151 0 .608-.16.585-.89h.69c.024 1.14-.827 1.427-1.276 1.427-.858 0-1.542-.256-1.542-2.047 0-1.186.138-2.166 1.542-2.166.81 0 1.284.474 1.243 1.381ZM181.603 35.848v-.777l.658-.297v1.074h.883v.498h-.883v2.48c0 .256 0 .585.601.585.05 0 .153-.015.3-.031v.504c-.219.017-.435.065-.652.065-.626 0-.907-.256-.907-.722v-2.881h-.666v-.498ZM186.33 35.848h.659v3.21c0 .28.016.562.04.843h-.698v-.49h-.024c-.217.37-.602.57-1.027.57-.706 0-1.091-.354-1.091-1.042v-3.091h.657v2.81c0 .489.226.818.69.818.354 0 .795-.266.795-.94ZM188.858 36.458h.016c.273-.618.61-.69 1.252-.69v.682l-.177-.024c-.056-.008-.112-.016-.176-.016-.73 0-.915.554-.915 1.099v2.392h-.658v-4.053h.658ZM191.328 38.087c0 1.132.305 1.356.819 1.356.45 0 .682-.361.706-.771h.722c-.008.899-.562 1.31-1.413 1.31-.858 0-1.54-.257-1.54-2.047 0-1.188.136-2.167 1.54-2.167 1.156 0 1.445.634 1.445 1.973v.346Zm1.58-.498c0-1.18-.328-1.323-.81-1.323-.416 0-.762.2-.77 1.323ZM201.664 39.307c-.44.537-.93.714-1.613.714-1.043 0-1.9-.537-1.9-1.66 0-.955.544-1.308 1.282-1.767-.336-.385-.763-.922-.763-1.46 0-.842.707-1.147 1.43-1.147.738 0 1.356.352 1.356 1.172 0 .609-.506 1.147-.972 1.54l1.133 1.437c.11-.377.11-.78.11-1.645h.66c0 1.244-.13 1.78-.353 2.167l.93 1.243h-.835Zm-1.822-2.287c-.506.345-.939.65-.939 1.324 0 .626.498 1.059 1.188 1.059.522 0 .883-.152 1.18-.577Zm.86-1.821c0-.401-.242-.65-.635-.65-.37 0-.642.265-.642.65 0 .4.417.738.635 1.043.272-.242.641-.594.641-1.043M207.695 34.112h.739v3.708c0 1.268.385 1.588 1.083 1.588s1.083-.32 1.083-1.588v-3.708h.738v3.676c0 1.604-.594 2.238-1.821 2.238-1.228 0-1.822-.634-1.822-2.238ZM213.385 36.464h.016c.273-.618.61-.69 1.251-.69v.682c-.055-.01-.12-.016-.176-.024-.056-.008-.112-.017-.176-.017-.73 0-.915.555-.915 1.1v2.39h-.658v-4.05h.658ZM216.353 39.906h-.658v-5.793h.658v2.15h.024c.225-.32.505-.49.89-.49 1.31 0 1.341 1.163 1.341 2.174 0 1.782-.659 2.04-1.309 2.04-.425 0-.705-.185-.93-.562h-.016Zm.738-.457c.827 0 .827-.883.827-1.493 0-1.084-.097-1.645-.803-1.645-.73 0-.762.866-.762 1.405 0 .617-.072 1.733.738 1.733M221.708 39.32h-.015c-.2.465-.514.666-1.02.666-.858 0-1.107-.554-1.107-1.332 0-1.228 1.203-1.284 2.127-1.26.015-.537.023-1.124-.683-1.124-.441 0-.674.298-.634.723h-.714c.032-.907.514-1.219 1.372-1.219 1.044 0 1.317.537 1.317 1.22v1.95c0 .32.032.648.08.962h-.723Zm-1.484-.618c0 .393.192.746.634.746.402 0 .898-.249.835-1.557-.627.01-1.47-.048-1.47.811M225.833 39.906v-2.809c0-.433-.152-.786-.713-.786-.723 0-.828.642-.828 1.196v2.4h-.658v-3.21c0-.282-.016-.562-.04-.844h.698v.523h.033c.257-.458.562-.603 1.083-.603.866 0 1.083.522 1.083 1.324v2.81ZM231.79 37.242v2.664h-.737v-5.793h1.997c1.028 0 1.389.721 1.389 1.444 0 .682-.377 1.204-1.058 1.324v.015c.665.105.906.33.946 1.493.008.25.089 1.157.2 1.517h-.77c-.21-.4-.16-1.155-.224-1.926-.057-.706-.627-.738-.874-.738Zm0-.643h1.108c.53 0 .787-.457.787-.96 0-.419-.21-.884-.78-.884h-1.114ZM236.415 38.093c0 1.132.305 1.355.818 1.355.45 0 .683-.361.707-.77h.722c-.009.899-.562 1.309-1.412 1.309-.859 0-1.542-.256-1.542-2.047 0-1.187.137-2.166 1.542-2.166 1.156 0 1.444.633 1.444 1.973v.346Zm1.581-.498c0-1.18-.329-1.323-.81-1.323-.417 0-.763.2-.77 1.323ZM241.079 39.986c-.875 0-1.42-.385-1.396-1.316h.747c0 .233.007.778.674.778.392 0 .697-.2.697-.617 0-.723-2.022-.739-2.022-1.95 0-.425.257-1.108 1.397-1.108.722 0 1.34.345 1.283 1.148h-.73c.009-.425-.216-.65-.634-.65-.354 0-.626.193-.626.545 0 .715 2.023.698 2.023 1.935 0 .89-.61 1.235-1.413 1.235M244.346 38.093c0 1.132.305 1.355.819 1.355.449 0 .682-.361.705-.77h.723c-.01.899-.562 1.309-1.413 1.309-.858 0-1.541-.256-1.541-2.047 0-1.187.137-2.166 1.54-2.166 1.158 0 1.446.633 1.446 1.973v.346Zm1.58-.498c0-1.18-.33-1.323-.81-1.323-.416 0-.762.2-.77 1.323ZM249.98 39.32h-.016c-.2.465-.513.666-1.02.666-.858 0-1.106-.554-1.106-1.332 0-1.228 1.203-1.284 2.126-1.26.016-.537.024-1.124-.681-1.124-.443 0-.675.298-.635.723h-.714c.031-.907.513-1.219 1.371-1.219 1.043 0 1.317.537 1.317 1.22v1.95c0 .32.031.648.08.962h-.722Zm-1.484-.618c0 .393.191.746.633.746.403 0 .899-.249.835-1.557-.626.01-1.469-.048-1.469.811M252.522 36.464h.016c.272-.618.608-.69 1.251-.69v.682c-.055-.01-.12-.016-.176-.024-.055-.008-.112-.017-.175-.017-.73 0-.916.555-.916 1.1v2.39h-.658v-4.05h.657ZM256.546 37.153c.016-.666-.312-.842-.562-.842-.505 0-.85.24-.85 1.348 0 1.316.17 1.79.85 1.79.153 0 .61-.16.587-.892h.69c.023 1.14-.827 1.428-1.277 1.428-.858 0-1.54-.256-1.54-2.046 0-1.186.136-2.166 1.54-2.166.811 0 1.284.474 1.244 1.38ZM260.573 39.906v-2.744c0-.498-.16-.85-.723-.85-.657 0-.826.53-.826 1.21v2.384h-.658v-5.793h.658v2.263h.033c.264-.474.57-.603 1.1-.603.688 0 1.074.346 1.074 1.261v2.872ZM265.504 39.905h.738v-5.792h-.738ZM269.749 39.906v-2.809c0-.433-.152-.786-.714-.786-.723 0-.827.642-.827 1.196v2.4h-.657v-3.21c0-.282-.016-.562-.041-.844h.698v.523h.032c.257-.458.562-.603 1.083-.603.867 0 1.084.522 1.084 1.324v2.81ZM272.707 39.986c-.875 0-1.42-.385-1.396-1.316h.746c0 .233.008.778.674.778.393 0 .698-.2.698-.617 0-.723-2.022-.739-2.022-1.95 0-.425.257-1.108 1.397-1.108.722 0 1.34.345 1.283 1.148h-.73c.009-.425-.217-.65-.634-.65-.352 0-.625.193-.625.545 0 .715 2.023.698 2.023 1.935 0 .89-.611 1.235-1.414 1.235M275.332 35.853v-.778l.658-.297v1.075h.883v.498h-.883v2.48c0 .256 0 .585.6.585.05 0 .153-.016.299-.032v.505c-.217.017-.434.065-.65.065-.626 0-.907-.257-.907-.722v-2.88h-.666v-.498ZM277.761 34.82h.74v-.708h-.74Zm.042 5.087h.658v-4.053h-.658ZM279.915 35.853v-.778l.658-.297v1.075h.883v.498h-.883v2.48c0 .256 0 .585.602.585.05 0 .153-.016.297-.032v.505c-.216.017-.433.065-.65.065-.627 0-.907-.257-.907-.722v-2.88h-.666v-.498ZM284.499 35.853h.658v3.21c0 .281.016.561.04.843h-.698v-.49h-.024c-.217.37-.601.57-1.028.57-.706 0-1.091-.354-1.091-1.041v-3.092h.659v2.81c0 .489.224.818.689.818.354 0 .795-.266.795-.94ZM286.547 35.853v-.778l.658-.297v1.075h.883v.498h-.883v2.48c0 .256 0 .585.601.585.05 0 .153-.016.298-.032v.505c-.217.017-.433.065-.65.065-.626 0-.907-.257-.907-.722v-2.88h-.666v-.498ZM289.471 38.093c0 1.132.304 1.355.818 1.355.45 0 .682-.361.706-.77h.722c-.007.899-.56 1.309-1.412 1.309-.858 0-1.54-.256-1.54-2.047 0-1.187.136-2.166 1.54-2.166 1.155 0 1.445.633 1.445 1.973v.346Zm1.581-.498c0-1.18-.33-1.323-.81-1.323-.418 0-.764.2-.77 1.323ZM162.24 24.994h1.94V13.842h-1.94v4.81h-2.661v1.655h2.662ZM155.709 23.768h-1.94v4.933h10.608v-1.623h-8.668ZM159.527 15.134l.004-.117h-7.085v1.671h4.977c-.463 2.38-2.644 4.322-5.597 4.97l.938 1.6c4.29-1.329 6.628-4.138 6.763-8.124M269.475 14.39H258.78v1.64h8.738v2.124c-.134 2.198-.289 2.755-.414 3.39h-9.655v1.624h5.848v5.955h1.94v-5.955h5.896v-1.623h-2.149c.121-.641.48-3.284.48-4.987 0-1.703.012-2.168.012-2.168M245.045 19.702l-.036 1.64h2.088v3.652h1.942V13.842h-1.942v2.096h-2.088l.036 1.64h2.052v2.124ZM244.683 18.783c0-2.236-1.618-3.797-3.934-3.797-2.324 0-3.947 1.568-3.947 3.812 0 2.227 1.623 3.781 3.947 3.781 2.316 0 3.934-1.56 3.934-3.796m-5.941 0c0-1.252.826-2.127 2.007-2.127 1.21 0 1.995.835 1.995 2.127 0 1.242-.821 2.11-1.995 2.11-1.163 0-2.007-.888-2.007-2.11M240.085 23.768h-1.94v4.927h11.16V27.07h-9.22ZM287.433 24.3h2.58v1.376h1.94V13.841h-1.94v8.962h-2.58ZM283.993 19.96c2.242 0 3.807-1.177 3.807-2.86 0-1.687-1.602-2.91-3.807-2.91-2.234 0-3.855 1.21-3.855 2.876 0 1.703 1.585 2.893 3.855 2.893m-1.915-2.86c0-.78.806-1.348 1.915-1.348 1.09 0 1.884.568 1.884 1.348 0 .762-.793 1.317-1.884 1.317-1.11 0-1.915-.555-1.915-1.317"/><path fill="#231f20" d="M283.274 22.209a26.8 26.8 0 0 1-.182 2.579l-.015.127h1.957l.012-.1c.073-.582.175-1.774.185-2.606.531-.009 2.827-.144 3.947-.284l-.129-1.6c-3.484.491-9.962.356-9.962.356v1.528Z"/><path fill="#231f20" d="M282.345 27.12v-2.94h-1.94v4.562h11.564V27.12ZM179.342 18.86c1.636 1.698 5.122 2.276 5.122 2.276l.643-1.605c-1.813-.192-3.945-.925-4.58-1.852h4.303v-1.608h-10.995v1.608h4.35c-1.41 1.473-4.121 1.798-4.656 1.848l.697 1.555s3.216-.577 5.116-2.223M181.89 13.851h-5.429v1.576h5.429ZM172.498 23.317h5.849v.98h-4.512v1.608h9.056V28.7h1.939v-4.404h-4.543v-.98h5.895v-1.623h-13.684ZM226.655 13.842h-1.94v11.23h1.94V20.31h2.201v-1.671h-2.2ZM218.65 23.767h-1.94v4.928h10.07V27.07h-8.13ZM222.489 15.132l.002-.115h-7.068v1.672h4.947c-.39 1.986-2.25 4.26-5.596 4.97l.919 1.6c4.196-1.168 6.736-4.206 6.796-8.127M203.775 19.65l1.935.072c.27-.717.482-2.84.482-5.1l-.003-.11h-11.256v1.609h9.306c.022 1.169-.205 2.479-.464 3.529M200.468 23.264c-3.364 0-5.535 1.132-5.535 2.955 0 1.823 2.171 2.957 5.535 2.957 3.366 0 5.733-1.161 5.733-2.957 0-1.796-2.367-2.955-5.733-2.955m3.745 2.955c0 .819-1.587 1.349-3.745 1.349-2.16 0-3.532-.505-3.532-1.35 0-.821 1.402-1.331 3.532-1.331 2.125 0 3.745.535 3.745 1.332"/><path fill="#231f20" d="M200.998 17.895h-1.94v2.685h-5.322v1.608h13.683V20.58h-6.421Z"/></g></svg>