<svg xmlns="http://www.w3.org/2000/svg" width="1237.9485pt" height="321.7305pt" viewBox="0 0 1237.9485 321.73052"><path fill="#6d7990" fill-rule="evenodd" d="M360.19 94.088V1.778h15.274v92.31Zm255.92-45.425c10.907-.444 24.763-.866 35.172-2.089V1.778h15.595v29.538h14.265v8.968h-14.265v27.533h-15.595V55.14c-19.505 2.926-44.012 2.441-63.696 2.553h-4.527V49.04h17.562V26.991h15.488zM906.54 94.088h-1.415c-1.711 0-3.113-1.447-3.113-3.22v-21.89h15.702v16.144h50.263v8.966Zm78.09-75.738V9.593h21.608V1.241h16.023v8.352h21.07v8.757zm66.206 58.278c-22.772 3.516-47.362 2.69-70.354 2.69V70.56l25.756-.106v-10.55c-9.173-1.816-17.316-8.48-17.456-18.882-.347-25.858 50.57-26.285 50.932 0 .139 10.167-8.222 16.802-17.242 18.778v10.368c8.324-.27 20.545-.903 28.364-2.085V1.778h15.381v92.414h-15.381zm-99.089-11.01h-21.716V57.39h21.716v-6.813c-9.797 1.27-20.984 1.908-30.81 2.261v11.614h-15.916v-11.29c-8.381.038-16.754.06-25.118.098v-8.334c23.385 0 48.616.326 71.844-2.582V1.778h15.488v69.849h-15.488Zm-83.498 28.47h-15.595v-36.23c-8.975 1.234-19.367 1.796-28.36 2.135v33.022h-16.237v-32.6h-.475c-8.332.044-16.65.062-24.96.107V51.87c21.217 0 49.276.109 70.032-2.463V1.778h15.595zM753.674 68.052c-18.012 3.267-40.467 2.93-58.698 2.93h-1.412c-1.714 0-3.113-1.446-3.113-3.219V32.688h31.079V13.804h-30.972V4.73h43.561c1.714 0 3.112 1.446 3.112 3.219v33.283h-30.867v20.743c14.208-.124 33.921-.68 47.31-2.7V1.777h15.594v92.31h-15.594zm-135.461 17.07h50.05v8.966h-62.64c-1.71 0-3.111-1.447-3.111-3.22V65.394h15.7zM472.21 54.842h-15.487V1.779h15.487zm-118.246 38.71h-14.85v-53.69h-13.676a80.051 80.051 0 0 1-11.067 18.198c-5.235 6.462-11.101 11.58-17.676 16.4l-9.63-7.906c17.07-11.648 28.024-31.375 29.484-52.435h-27.596V5.154H329.3c.876 0 1.63.332 2.238.983.61.652.902 1.443.871 2.35a87.978 87.978 0 0 1-.903 10.065 87.627 87.627 0 0 1-2.766 12.447h10.375V2.314h14.85zm88.763-67.73c0 31.971-54.653 32.228-54.653 0 0-32.335 54.653-32.078 54.653 0zm-38.952 0c0 18.322 23.253 18.325 23.253 0 0-18.412-23.253-18.408-23.253 0zm20.835 42.84v16.773h31.58V68.661Zm-12.59 25.426c-1.713 0-3.111-1.447-3.111-3.22V59.906h59.871c1.714 0 3.112 1.447 3.112 3.22v30.963zm128.414-45.797v6.973h20.195c1.715 0 3.113 1.447 3.113 3.22v19.99h-47.258v7.279h49.281v8.335h-62.613c-1.714 0-3.113-1.447-3.113-3.22v-20.2h47.366v-7.07H500.04v-8.334h24.055v-6.973h-40.018v-8.44h95.738v8.44zm23.63-43.294v28.026h-61.02c-1.71 0-3.111-1.447-3.111-3.22V1.778h61.018c1.714 0 3.113 1.446 3.113 3.22zm-48.43 5.325v14.154h32.407V10.322Zm108.482 15.297c.498-5.064.813-9.705.955-13.925h-34.988V2.516h48.073c.87 0 1.62.328 2.227.971.607.644.905 1.429.884 2.328-.046 2.044-.142 4.129-.281 6.247-.21 3.271-.46 6.558-.743 9.866a258.523 258.523 0 0 1-1.226 9.547c-.46 3.13-.975 5.995-1.54 8.597H621.88c.994-4.57 1.737-9.388 2.237-14.453zm165.638-2.32c0-29.959 52.953-29.336 52.953 0 0 29.12-52.953 29.725-52.953 0zm15.275 0c0 15.543 22.187 16.393 22.187 0 0-16.77-22.187-15.668-22.187 0zm134.107-2.848c0 27.388-52.103 27.81-52.103 0 0-27.478 52.103-27.057 52.103 0zm-36.51 0c0 14.59 20.912 14.377 20.912 0 0-14.226-20.911-14.437-20.911 0zm101.326 20.676c0 13.64 20.167 13.602 20.167-.104 0-13.607-20.167-13.877-20.167.104" style="stroke-width:2.95591" transform="translate(85.865 85.865)"/><path fill="#6d7990" d="M1058.645 141.272c-3 0-5.363-.917-7.092-2.744-1.737-1.823-2.602-4.357-2.602-7.602 0-3.272.8-5.868 2.412-7.794 1.61-1.92 3.77-2.885 6.486-2.885 2.538 0 4.553.839 6.031 2.505 1.484 1.675 2.224 3.88 2.224 6.619v1.94h-13.97c.061 2.381.663 4.187 1.8 5.425 1.143 1.232 2.753 1.851 4.824 1.851 2.18 0 4.34-.455 6.474-1.37v2.74c-1.086.469-2.11.802-3.083 1.004-.965.203-2.134.31-3.504.31zm-.835-18.45c-1.628 0-2.923.53-3.89 1.593-.972 1.059-1.54 2.525-1.711 4.401h10.597c0-1.94-.429-3.422-1.295-4.453-.864-1.029-2.095-1.54-3.701-1.54zm-20.425 18.45c-3 0-5.362-.917-7.092-2.744-1.737-1.823-2.603-4.357-2.603-7.602 0-3.272.804-5.868 2.414-7.794 1.61-1.92 3.77-2.885 6.486-2.885 2.54 0 4.555.839 6.033 2.505 1.483 1.675 2.223 3.88 2.223 6.619v1.94h-13.97c.062 2.381.663 4.187 1.799 5.425 1.143 1.232 2.753 1.851 4.825 1.851 2.179 0 4.34-.455 6.473-1.37v2.74c-1.086.469-2.11.802-3.081 1.004-.967.203-2.136.31-3.507.31zm-.832-18.45c-1.63 0-2.925.53-3.89 1.593-.973 1.059-1.542 2.525-1.712 4.401h10.598c0-1.94-.43-3.422-1.295-4.453-.866-1.029-2.098-1.54-3.7-1.54zm-14.559 15.91c.543 0 1.068-.038 1.575-.12.503-.084.902-.165 1.198-.247v2.35c-.335.157-.82.29-1.472.397-.644.102-1.23.16-1.75.16-3.921 0-5.879-2.073-5.879-6.203v-12.064h-2.905v-1.477l2.905-1.28 1.295-4.328h1.774v4.7h5.888v2.385h-5.888v11.938c0 1.218.291 2.154.873 2.81.58.65 1.376.98 2.386.98zm-13.377 0c.544 0 1.068-.038 1.574-.12.505-.084.902-.165 1.199-.247v2.35c-.335.157-.819.29-1.47.397-.644.102-1.233.16-1.75.16-3.923 0-5.88-2.073-5.88-6.203v-12.064h-2.906v-1.477l2.906-1.28 1.294-4.328h1.775v4.7h5.886v2.385h-5.886v11.938c0 1.218.29 2.154.87 2.81.582.65 1.378.98 2.388.98zm-13.065 2.167h-3.07v-20.28h3.07zm-3.33-25.775c0-.702.17-1.219.517-1.548.343-.322.778-.487 1.295-.487.494 0 .917.165 1.277.5.36.334.536.846.536 1.535 0 .688-.176 1.206-.536 1.547a1.81 1.81 0 0 1-1.277.505c-.517 0-.952-.17-1.295-.505-.347-.34-.517-.859-.517-1.547zm-9.146 25.775v-13.195c0-1.615-.34-2.83-1.033-3.637-.691-.803-1.764-1.207-3.217-1.207-1.913 0-3.328.544-4.237 1.643-.917 1.098-1.371 2.792-1.371 5.07V140.9h-3.07v-13.195c0-1.615-.346-2.83-1.04-3.637-.69-.803-1.77-1.207-3.235-1.207-1.927 0-3.334.576-4.231 1.724-.89 1.157-1.34 3.045-1.34 5.672v10.643h-3.069v-20.28h2.494l.5 2.779h.15c.576-.993 1.397-1.762 2.452-2.318 1.054-.557 2.236-.833 3.543-.833 3.171 0 5.242 1.148 6.215 3.442h.15c.6-1.062 1.479-1.895 2.628-2.515 1.143-.62 2.45-.927 3.921-.927 2.294 0 4.012.593 5.155 1.767 1.137 1.183 1.713 3.064 1.713 5.653v13.232zm-35.247 0v-13.195c0-1.615-.34-2.83-1.036-3.637-.687-.803-1.762-1.207-3.214-1.207-1.914 0-3.33.544-4.238 1.643-.916 1.098-1.37 2.792-1.37 5.07V140.9h-3.07v-13.195c0-1.615-.346-2.83-1.042-3.637-.689-.803-1.769-1.207-3.235-1.207-1.924 0-3.334.576-4.229 1.724-.891 1.157-1.34 3.045-1.34 5.672v10.643h-3.07v-20.28h2.495l.5 2.779h.15c.575-.993 1.397-1.762 2.45-2.318 1.057-.557 2.236-.833 3.544-.833 3.17 0 5.243 1.148 6.215 3.442h.152c.6-1.062 1.477-1.895 2.627-2.515 1.143-.62 2.45-.927 3.922-.927 2.293 0 4.01.593 5.154 1.767 1.136 1.183 1.711 3.064 1.711 5.653v13.232zm-31.231-10.156c0 3.302-.835 5.886-2.495 7.743-1.667 1.856-3.965 2.786-6.902 2.786-1.813 0-3.424-.43-4.832-1.283-1.402-.846-2.488-2.071-3.253-3.664-.77-1.591-1.149-3.454-1.149-5.582 0-3.31.827-5.887 2.481-7.73 1.649-1.845 3.948-2.766 6.878-2.766 2.842 0 5.092.946 6.765 2.834 1.672 1.89 2.507 4.44 2.507 7.662zm-15.448 0c0 2.589.517 4.56 1.554 5.918 1.034 1.358 2.558 2.033 4.571 2.033 2.01 0 3.538-.675 4.58-2.022 1.043-1.35 1.559-3.328 1.559-5.93 0-2.583-.516-4.541-1.56-5.879-1.041-1.333-2.583-2.003-4.616-2.003-2.014 0-3.53.657-4.553 1.977-1.024 1.32-1.535 3.29-1.535 5.906zm-13.914-14.47c-2.974 0-5.317.986-7.041 2.968-1.718 1.977-2.583 4.686-2.583 8.128 0 3.543.834 6.279 2.487 8.21 1.663 1.927 4.03 2.893 7.1 2.893 1.888 0 4.042-.34 6.454-1.017v2.76c-1.87.702-4.188 1.057-6.934 1.057-3.986 0-7.061-1.214-9.228-3.633-2.159-2.413-3.247-5.849-3.247-10.3 0-2.794.526-5.237 1.568-7.333 1.04-2.097 2.544-3.715 4.515-4.846 1.964-1.135 4.282-1.705 6.947-1.705 2.836 0 5.317.519 7.434 1.555l-1.326 2.703c-2.054-.96-4.1-1.44-6.146-1.44zM855.96 140.9V127.78c0-1.655-.378-2.888-1.13-3.701-.751-.816-1.926-1.22-3.53-1.22-2.122 0-3.677.569-4.667 1.718-.986 1.15-1.48 3.037-1.48 5.678v10.643h-3.068v-20.28h2.496l.497 2.779h.153c.624-1.005 1.509-1.775 2.645-2.324 1.132-.551 2.4-.827 3.791-.827 2.444 0 4.281.593 5.513 1.767 1.238 1.183 1.852 3.064 1.852 5.653v13.232zm-19.262-10.156c0 3.302-.832 5.886-2.495 7.743-1.667 1.856-3.966 2.786-6.901 2.786-1.814 0-3.423-.43-4.833-1.283-1.402-.846-2.489-2.071-3.252-3.664-.771-1.591-1.15-3.454-1.15-5.582 0-3.31.827-5.887 2.483-7.73 1.648-1.845 3.947-2.766 6.877-2.766 2.842 0 5.09.946 6.763 2.834 1.676 1.89 2.508 4.44 2.508 7.662zm-15.448 0c0 2.589.52 4.56 1.553 5.918 1.036 1.358 2.559 2.033 4.574 2.033 2.008 0 3.537-.675 4.579-2.022 1.04-1.35 1.56-3.328 1.56-5.93 0-2.583-.52-4.541-1.56-5.879-1.042-1.333-2.584-2.003-4.618-2.003-2.014 0-3.53.657-4.553 1.977-1.023 1.32-1.535 3.29-1.535 5.906zm-8.57 10.156h-3.07v-20.28h3.07zm-3.33-25.775c0-.702.171-1.219.52-1.548.34-.322.776-.487 1.294-.487.492 0 .915.165 1.277.5.36.334.536.846.536 1.535 0 .688-.177 1.206-.536 1.547a1.813 1.813 0 0 1-1.277.505c-.518 0-.954-.17-1.295-.505-.348-.34-.519-.859-.519-1.547zm-6.567 23.608a9.74 9.74 0 0 0 1.574-.12c.503-.084.902-.165 1.198-.247v2.35c-.335.157-.82.29-1.47.397-.646.102-1.232.16-1.752.16-3.92 0-5.879-2.073-5.879-6.203v-12.064h-2.905v-1.477l2.905-1.28 1.295-4.328h1.775v4.7h5.886v2.385h-5.886v11.938c0 1.218.29 2.154.872 2.81.58.65 1.376.98 2.387.98zm-15.157 2.167-.607-2.887h-.151c-1.011 1.269-2.021 2.128-3.026 2.582-1.004.45-2.261.678-3.763.678-2.01 0-3.588-.52-4.731-1.56-1.137-1.037-1.713-2.508-1.713-4.421 0-4.095 3.279-6.242 9.829-6.438l3.442-.112v-1.258c0-1.592-.341-2.765-1.03-3.524-.683-.757-1.775-1.137-3.284-1.137-1.686 0-3.6.519-5.736 1.554l-.94-2.35a14.18 14.18 0 0 1 3.284-1.275 14.197 14.197 0 0 1 3.582-.469c2.411 0 4.206.538 5.374 1.612 1.163 1.075 1.75 2.798 1.75 5.166V140.9zm-6.936-2.167c1.909 0 3.411-.525 4.503-1.574 1.094-1.048 1.637-2.512 1.637-4.4v-1.832l-3.071.126c-2.444.088-4.205.467-5.278 1.144-1.08.668-1.625 1.716-1.625 3.132 0 1.11.335 1.958 1.012 2.54.669.572 1.61.864 2.822.864zm-10.996-18.485c.904 0 1.713.075 2.425.225l-.422 2.85c-.84-.19-1.58-.278-2.223-.278-1.635 0-3.043.663-4.207 1.994-1.168 1.334-1.75 2.995-1.75 4.978V140.9h-3.068v-20.28h2.532l.354 3.757h.146c.75-1.32 1.66-2.337 2.722-3.056a6.129 6.129 0 0 1 3.491-1.073zm-16.072 18.485c.543 0 1.067-.038 1.572-.12.505-.084.903-.165 1.2-.247v2.35c-.335.157-.82.29-1.47.397-.645.102-1.233.16-1.751.16-3.923 0-5.88-2.073-5.88-6.203v-12.064h-2.905v-1.477l2.904-1.28 1.296-4.328h1.774v4.7h5.887v2.385h-5.887v11.938c0 1.218.29 2.154.871 2.81.58.65 1.378.98 2.389.98zm-11.546-3.367c0 1.889-.702 3.342-2.11 4.365-1.408 1.029-3.38 1.542-5.923 1.542-2.686 0-4.781-.43-6.291-1.283v-2.849c.98.492 2.021.885 3.139 1.169 1.118.284 2.191.423 3.226.423 1.606 0 2.838-.252 3.702-.764.865-.513 1.296-1.296 1.296-2.344 0-.789-.342-1.465-1.025-2.028-.688-.562-2.02-1.224-4.01-1.989-1.888-.7-3.226-1.313-4.023-1.838-.795-.525-1.39-1.117-1.775-1.787-.391-.664-.581-1.458-.581-2.387 0-1.654.67-2.955 2.015-3.91 1.346-.959 3.188-1.438 5.533-1.438 2.186 0 4.314.448 6.405 1.33l-1.093 2.503c-2.04-.84-3.886-1.258-5.534-1.258-1.457 0-2.557.228-3.296.683-.738.454-1.112 1.086-1.112 1.889 0 .543.138 1.003.417 1.388.278.38.727.747 1.345 1.087.614.347 1.8.846 3.55 1.502 2.406.872 4.029 1.757 4.875 2.646.848.886 1.27 2.004 1.27 3.348zM722.48 140.9h-3.07v-20.28h3.07zm-3.33-25.775c0-.702.17-1.219.518-1.548.342-.322.777-.487 1.294-.487.494 0 .916.165 1.276.5.36.334.537.846.537 1.535 0 .688-.176 1.206-.537 1.547-.36.335-.782.505-1.276.505-.517 0-.952-.17-1.294-.505-.348-.34-.518-.859-.518-1.547zm-9.126 25.775V127.78c0-1.655-.378-2.888-1.13-3.701-.751-.816-1.927-1.22-3.531-1.22-2.124 0-3.676.569-4.668 1.718-.985 1.15-1.477 3.037-1.477 5.678v10.643h-3.07v-20.28h2.494l.5 2.779h.15c.627-1.005 1.512-1.775 2.647-2.324 1.132-.551 2.4-.827 3.791-.827 2.444 0 4.282.593 5.513 1.767 1.237 1.183 1.85 3.064 1.85 5.653v13.232zm-20.393 0h-3.07v-20.28h3.07zm-3.33-25.775c0-.702.171-1.219.519-1.548.342-.322.777-.487 1.295-.487.493 0 .916.165 1.276.5.36.334.537.846.537 1.535 0 .688-.177 1.206-.537 1.547-.36.335-.783.505-1.276.505-.518 0-.953-.17-1.295-.505-.348-.34-.519-.859-.519-1.547zm-9.144 25.775v-13.195c0-1.615-.341-2.83-1.035-3.637-.69-.803-1.763-1.207-3.216-1.207-1.914 0-3.328.544-4.238 1.643-.915 1.098-1.37 2.792-1.37 5.07V140.9h-3.07v-13.195c0-1.615-.347-2.83-1.043-3.637-.687-.803-1.767-1.207-3.232-1.207-1.927 0-3.335.576-4.232 1.724-.89 1.157-1.338 3.045-1.338 5.672v10.643h-3.07v-20.28h2.494l.5 2.779h.151c.575-.993 1.395-1.762 2.45-2.318 1.056-.557 2.237-.833 3.544-.833 3.17 0 5.242 1.148 6.215 3.442h.15c.601-1.062 1.479-1.895 2.628-2.515 1.143-.62 2.451-.927 3.923-.927 2.293 0 4.01.593 5.152 1.767 1.14 1.183 1.712 3.064 1.712 5.653v13.232zm-35.268-2.724h-.163c-1.422 2.065-3.544 3.097-6.366 3.097-2.653 0-4.72-.91-6.19-2.723-1.472-1.813-2.211-4.39-2.211-7.737 0-3.341.74-5.937 2.217-7.787 1.485-1.851 3.544-2.778 6.184-2.778 2.752 0 4.862 1.003 6.328 2.998h.24l-.127-1.459-.075-1.427v-8.254h3.07v28.794H642.3Zm-6.139.52c2.098 0 3.613-.569 4.561-1.713.942-1.136 1.415-2.98 1.415-5.519v-.65c0-2.875-.482-4.922-1.435-6.153-.959-1.224-2.481-1.838-4.578-1.838-1.8 0-3.183.701-4.137 2.098-.955 1.402-1.434 3.378-1.434 5.93 0 2.589.474 4.547 1.421 5.867.954 1.32 2.35 1.977 4.187 1.977zm-14.179 2.204-3.365-8.603H607.36l-3.327 8.603h-3.184l10.692-27.165h2.647L624.83 140.9zm-4.345-11.438-3.145-8.381c-.41-1.06-.827-2.363-1.256-3.904-.272 1.188-.663 2.489-1.169 3.904l-3.183 8.381zm-32.387 8.714h-.164c-1.422 2.065-3.543 3.097-6.366 3.097-2.653 0-4.718-.91-6.19-2.723-1.47-1.813-2.21-4.39-2.21-7.737 0-3.341.74-5.937 2.217-7.787 1.485-1.851 3.544-2.778 6.183-2.778 2.754 0 4.863 1.003 6.329 2.998h.24l-.126-1.459-.077-1.427v-8.254h3.07v28.794h-2.495zm-6.139.52c2.098 0 3.613-.569 4.56-1.713.941-1.136 1.415-2.98 1.415-5.519v-.65c0-2.875-.48-4.922-1.433-6.153-.96-1.224-2.481-1.838-4.58-1.838-1.798 0-3.182.701-4.136 2.098-.954 1.402-1.433 3.378-1.433 5.93 0 2.589.474 4.547 1.42 5.867.954 1.32 2.35 1.977 4.187 1.977zm-17.045 2.204V127.78c0-1.655-.379-2.888-1.131-3.701-.752-.816-1.927-1.22-3.53-1.22-2.122 0-3.675.569-4.667 1.718-.986 1.15-1.478 3.037-1.478 5.678v10.643h-3.07v-20.28h2.495l.5 2.779h.15c.626-1.005 1.51-1.775 2.647-2.324 1.13-.551 2.4-.827 3.789-.827 2.444 0 4.282.593 5.513 1.767 1.239 1.183 1.851 3.064 1.851 5.653v13.232zm-22.484 0-.607-2.887h-.151c-1.01 1.269-2.02 2.128-3.025 2.582-1.005.45-2.262.678-3.765.678-2.008 0-3.588-.52-4.73-1.56-1.137-1.037-1.71-2.508-1.71-4.421 0-4.095 3.275-6.242 9.825-6.438l3.443-.112v-1.258c0-1.592-.342-2.765-1.03-3.524-.682-.757-1.774-1.137-3.283-1.137-1.687 0-3.6.519-5.736 1.554l-.941-2.35a14.162 14.162 0 0 1 3.285-1.275 14.188 14.188 0 0 1 3.581-.469c2.412 0 4.206.538 5.374 1.612 1.163 1.075 1.75 2.798 1.75 5.166V140.9zm-6.936-2.167c1.91 0 3.412-.525 4.504-1.574 1.094-1.048 1.636-2.512 1.636-4.4v-1.832l-3.07.126c-2.443.088-4.205.467-5.28 1.144-1.079.668-1.623 1.716-1.623 3.132 0 1.11.335 1.958 1.012 2.54.668.572 1.61.864 2.82.864zm-19.539-18.113v1.946l-3.76.44c.348.43.65.998.923 1.693.272.696.412 1.485.412 2.362 0 1.983-.685 3.569-2.034 4.756-1.358 1.18-3.221 1.775-5.589 1.775a9.1 9.1 0 0 1-1.707-.152c-1.306.695-1.957 1.56-1.957 2.608 0 .557.227.967.683 1.232.454.265 1.237.398 2.348.398h3.587c2.2 0 3.886.463 5.065 1.39 1.175.922 1.77 2.267 1.77 4.035 0 2.242-.903 3.955-2.704 5.135-1.8 1.175-4.426 1.761-7.883 1.761-2.652 0-4.697-.491-6.131-1.477-1.44-.985-2.16-2.38-2.16-4.181 0-1.23.397-2.298 1.188-3.202.787-.898 1.9-1.51 3.327-1.832a3.162 3.162 0 0 1-1.3-1.092c-.354-.493-.532-1.067-.532-1.717 0-.741.197-1.392.594-1.946.392-.555 1.016-1.092 1.87-1.61-1.05-.431-1.908-1.163-2.564-2.198-.663-1.036-.992-2.223-.992-3.556 0-2.216.669-3.929 2.003-5.135 1.331-1.2 3.213-1.805 5.658-1.805 1.062 0 2.015.124 2.867.372zm-16.175 23.683c0 1.099.461 1.932 1.389 2.501.923.562 2.249.846 3.979.846 2.577 0 4.484-.384 5.722-1.155 1.244-.772 1.863-1.813 1.863-3.133 0-1.099-.34-1.862-1.018-2.285-.68-.431-1.958-.639-3.832-.639h-3.683c-1.39 0-2.475.328-3.252.998-.777.663-1.168 1.623-1.168 2.868zm1.668-17.19c0 1.42.398 2.493 1.198 3.22.804.727 1.921 1.093 3.348 1.093 3 0 4.496-1.453 4.496-4.365 0-3.05-1.515-4.572-4.547-4.572-1.445 0-2.557.384-3.334 1.168-.777.777-1.161 1.925-1.161 3.456zM486.714 140.9V127.78c0-1.655-.38-2.888-1.132-3.701-.752-.816-1.927-1.22-3.53-1.22-2.123 0-3.677.569-4.668 1.718-.985 1.15-1.48 3.037-1.48 5.678v10.643h-3.068v-20.28h2.496l.497 2.779h.153c.624-1.005 1.509-1.775 2.647-2.324 1.13-.551 2.4-.827 3.79-.827 2.443 0 4.28.593 5.512 1.767 1.238 1.183 1.851 3.064 1.851 5.653v13.232zm-20.395 0h-3.07v-20.28h3.07zm-3.33-25.775c0-.702.171-1.219.52-1.548.34-.322.776-.487 1.294-.487.493 0 .915.165 1.276.5.36.334.536.846.536 1.535 0 .688-.176 1.206-.536 1.547-.36.335-.783.505-1.276.505-.518 0-.954-.17-1.295-.505-.348-.34-.519-.859-.519-1.547zm-6.567 23.608c.543 0 1.067-.038 1.573-.12.504-.084.902-.165 1.2-.247v2.35c-.336.157-.821.29-1.473.397a11.47 11.47 0 0 1-1.749.16c-3.922 0-5.88-2.073-5.88-6.203v-12.064h-2.903v-1.477l2.903-1.28 1.295-4.328h1.775v4.7h5.887v2.385h-5.887v11.938c0 1.218.291 2.154.872 2.81.58.65 1.376.98 2.387.98zm-15.158 2.167-.604-2.887h-.153c-1.01 1.269-2.02 2.128-3.026 2.582-1.004.45-2.261.678-3.765.678-2.007 0-3.586-.52-4.73-1.56-1.136-1.037-1.71-2.508-1.71-4.421 0-4.095 3.279-6.242 9.827-6.438l3.442-.112v-1.258c0-1.592-.34-2.765-1.03-3.524-.682-.757-1.775-1.137-3.284-1.137-1.687 0-3.6.519-5.735 1.554l-.941-2.35c1-.542 2.091-.971 3.285-1.275a14.195 14.195 0 0 1 3.58-.469c2.413 0 4.207.538 5.375 1.612 1.162 1.075 1.75 2.798 1.75 5.166V140.9zm-6.933-2.167c1.906 0 3.409-.525 4.502-1.574 1.092-1.048 1.636-2.512 1.636-4.4v-1.832l-3.069.126c-2.446.088-4.208.467-5.28 1.144-1.081.668-1.624 1.716-1.624 3.132 0 1.11.335 1.958 1.01 2.54.67.572 1.61.864 2.825.864zm-25.351-9.083v11.25h-3.147v-27.05h7.422c3.314 0 5.765.631 7.35 1.905 1.586 1.27 2.382 3.178 2.382 5.736 0 3.575-1.813 5.993-5.444 7.25l7.344 12.159h-3.713l-6.556-11.25zm0-2.701h4.312c2.216 0 3.847-.443 4.883-1.32 1.035-.885 1.552-2.212 1.552-3.974 0-1.787-.523-3.076-1.578-3.865-1.054-.79-2.747-1.187-5.085-1.187h-4.084zm-26.148 14.324c-3 0-5.362-.917-7.093-2.744-1.737-1.823-2.603-4.357-2.603-7.602 0-3.272.803-5.868 2.413-7.794 1.61-1.92 3.772-2.885 6.487-2.885 2.54 0 4.552.839 6.03 2.505 1.485 1.675 2.224 3.88 2.224 6.619v1.94h-13.97c.063 2.381.664 4.187 1.8 5.425 1.144 1.232 2.753 1.851 4.824 1.851 2.18 0 4.34-.455 6.474-1.37v2.74c-1.085.469-2.109.802-3.08 1.004-.967.203-2.135.31-3.506.31zm-.835-18.45c-1.628 0-2.923.53-3.89 1.593-.972 1.059-1.54 2.525-1.711 4.401h10.598c0-1.94-.429-3.422-1.295-4.453-.865-1.029-2.096-1.54-3.702-1.54zM364.864 140.9v-13.195c0-1.615-.342-2.83-1.038-3.637-.686-.803-1.761-1.207-3.212-1.207-1.915 0-3.33.544-4.24 1.643-.915 1.098-1.37 2.792-1.37 5.07V140.9h-3.068v-13.195c0-1.615-.348-2.83-1.043-3.637-.689-.803-1.77-1.207-3.234-1.207-1.925 0-3.335.576-4.23 1.724-.891 1.157-1.34 3.045-1.34 5.672v10.643h-3.069v-20.28h2.495l.498 2.779h.152c.575-.993 1.395-1.762 2.45-2.318 1.056-.557 2.236-.833 3.544-.833 3.17 0 5.241 1.148 6.214 3.442h.15c.602-1.062 1.48-1.895 2.63-2.515 1.142-.62 2.45-.927 3.921-.927 2.292 0 4.01.593 5.153 1.767 1.137 1.183 1.712 3.064 1.712 5.653v13.232zm-34.453 0-.606-2.887h-.152c-1.01 1.269-2.02 2.128-3.025 2.582-1.004.45-2.262.678-3.764.678-2.009 0-3.588-.52-4.73-1.56-1.137-1.037-1.71-2.508-1.71-4.421 0-4.095 3.276-6.242 9.824-6.438l3.444-.112v-1.258c0-1.592-.342-2.765-1.03-3.524-.682-.757-1.775-1.137-3.283-1.137-1.687 0-3.602.519-5.736 1.554l-.94-2.35c.997-.542 2.09-.971 3.284-1.275a14.19 14.19 0 0 1 3.58-.469c2.413 0 4.206.538 5.375 1.612 1.163 1.075 1.749 2.798 1.749 5.166V140.9zm-6.935-2.167c1.908 0 3.41-.525 4.504-1.574 1.093-1.048 1.635-2.512 1.635-4.4v-1.832l-3.07.126c-2.443.088-4.205.467-5.278 1.144-1.081.668-1.624 1.716-1.624 3.132 0 1.11.335 1.958 1.011 2.54.67.572 1.61.864 2.822.864zm-20.76-12.007h9.196v13.157a29.524 29.524 0 0 1-4.37 1.035c-1.478.234-3.196.355-5.141.355-4.097 0-7.282-1.221-9.568-3.658-2.28-2.437-3.423-5.848-3.423-10.245 0-2.81.568-5.272 1.693-7.39 1.131-2.114 2.753-3.732 4.875-4.849 2.122-1.113 4.61-1.675 7.46-1.675 2.885 0 5.575.53 8.064 1.592l-1.218 2.78c-2.445-1.037-4.795-1.554-7.05-1.554-3.296 0-5.866.98-7.717 2.937-1.851 1.964-2.773 4.685-2.773 8.16 0 3.658.892 6.422 2.672 8.311 1.782 1.889 4.402 2.83 7.857 2.83 1.869 0 3.701-.215 5.494-.644v-8.33h-6.051z" style="stroke-width:2.95591" transform="translate(85.865 85.865)"/><path fill="#28b7bc" fill-rule="evenodd" d="M0 0h228.39v150h-34.24V32.067H0Z" style="stroke-width:2.95591" transform="translate(85.865 85.865)"/><path fill="#8f82bc" fill-rule="evenodd" d="M159.913 150h-34.239V96.2H0V64.135h159.913Z" style="stroke-width:2.95591" transform="translate(85.865 85.865)"/></svg>