<svg xmlns="http://www.w3.org/2000/svg" width="160.46046mm" height="206.60696mm" viewBox="0 0 160.46046 206.60696"><path d="M0 0h-47.966c-9.359 0-16.944-7.584-16.948-16.944V-64.92c.004-9.355 7.589-16.939 16.944-16.939H.119c9.305.064 16.831 7.624 16.831 16.947v47.965C16.95-7.587 9.359 0 0 0" style="fill:#db1f26;fill-opacity:1;fill-rule:nonzero;stroke:none" transform="matrix(1.95676 0 0 -1.95676 127.021 0)"/><path d="M0 0h6.33c.241 0 .469.232.469.467v.471a.497.497 0 0 1-.469.469H0c-.232 0-.473-.232-.473-.469V.467C-.473.232-.232 0 0 0" style="fill:#fff;fill-opacity:1;fill-rule:nonzero;stroke:none" transform="matrix(1.95676 0 0 -1.95676 73.956 82.914)"/><path d="M0 0v-.47c0-.354.242-.472.472-.472h8.437c.237 0 .469.118.469.472V0c0 .23-.232.469-.469.469H.472C.242.469 0 .23 0 0" style="fill:#fff;fill-opacity:1;fill-rule:nonzero;stroke:none" transform="matrix(1.95676 0 0 -1.95676 70.969 91.352)"/><path d="M0 0v.582c0 .234-.114.472-.468.472h-7.974c-.229 0-.458-.238-.458-.472V0c0-.239.229-.472.458-.472h7.974C-.114-.472 0-.239 0 0" style="fill:#fff;fill-opacity:1;fill-rule:nonzero;stroke:none" transform="matrix(1.95676 0 0 -1.95676 88.853 76.965)"/><path d="M0 0v-.465c0-.236.229-.468.458-.468h7.975c.353 0 .467.232.467.468V0c0 .358-.114.59-.467.59H.458C.229.59 0 .358 0 0" style="fill:#fff;fill-opacity:1;fill-rule:nonzero;stroke:none" transform="matrix(1.95676 0 0 -1.95676 71.437 70.921)"/><path d="M0 0v-.58c0-.246.124-.475.475-.475h7.146c.237 0 .475.229.475.475V0c0 .24-.238.465-.475.465H.475C.124.465 0 .24 0 0" style="fill:#fff;fill-opacity:1;fill-rule:nonzero;stroke:none" transform="matrix(1.95676 0 0 -1.95676 72.226 86.101)"/><path d="M0 0h-13.254c-.352 0-.467-.23-.467-.473v-.465c0-.228.115-.467.467-.467H0c.233 0 .467.239.467.467v.465A.5.5 0 0 1 0 0" style="fill:#fff;fill-opacity:1;fill-rule:nonzero;stroke:none" transform="matrix(1.95676 0 0 -1.95676 93.112 105.86)"/><path d="M0 0h10.79c.24 0 .473.23.473.475v.462c0 .354-.233.461-.473.461H0c-.229 0-.345-.107-.345-.461V.475C-.345.23-.229 0 0 0" style="fill:#fff;fill-opacity:1;fill-rule:nonzero;stroke:none" transform="matrix(1.95676 0 0 -1.95676 69.465 98.323)"/><path d="M0 0h12.189c.357 0 .473.222.473.464v.585c0 .238-.116.472-.473.472H0c-.229 0-.474-.234-.474-.472V.464C-.474.222-.229 0 0 0" style="fill:#fff;fill-opacity:1;fill-rule:nonzero;stroke:none" transform="matrix(1.95676 0 0 -1.95676 68.22 103.586)"/><path d="m0 0 1.17.938L2.69.459l-.472 1.41.947 1.176H1.639L.705 4.334.232 2.931l-1.411-.479L0 1.518Z" style="fill:#fff;fill-opacity:1;fill-rule:nonzero;stroke:none" transform="matrix(1.95676 0 0 -1.95676 85.314 61.768)"/><path d="m0 0-.813-1.29H-2.34l.938-1.292-.469-1.407 1.407.467L.709-4.34v1.528l1.289.815-1.531.473z" style="fill:#fff;fill-opacity:1;fill-rule:nonzero;stroke:none" transform="matrix(1.95676 0 0 -1.95676 61.67 61.552)"/><path d="m0 0 1.407-.467L.935.94l.949 1.292H.359l-.941 1.289-.47-1.524-1.407-.472 1.172-.816V-.817z" style="fill:#fff;fill-opacity:1;fill-rule:nonzero;stroke:none" transform="matrix(1.95676 0 0 -1.95676 99.758 68.445)"/><path d="M0 0h-1.522l-.823 1.173-.465-1.404-1.527-.467 1.283-.944v-1.525l1.182.948 1.518-.473-.584 1.395z" style="fill:#fff;fill-opacity:1;fill-rule:nonzero;stroke:none" transform="matrix(1.95676 0 0 -1.95676 107.79 77.164)"/><path d="m0 0 1.411.479 1.291-.938-.113 1.518 1.285.932-1.521.479-.475 1.407-.82-1.291H-.467L.471 1.41Z" style="fill:#fff;fill-opacity:1;fill-rule:nonzero;stroke:none" transform="matrix(1.95676 0 0 -1.95676 69.93 60.87)"/><path d="m0 0-.946-1.173h-1.517l.936-1.297-.47-1.395 1.401.473 1.3-.948v1.527l1.165.942-1.407.469z" style="fill:#fff;fill-opacity:1;fill-rule:nonzero;stroke:none" transform="matrix(1.95676 0 0 -1.95676 57.327 74.869)"/><path d="M0 0c.236-.594.352-1.297.118-2.609-.474-3.079-3.555-3.909-3.675-3.909-.352-.118-.706-.361-.829-.709-.92-2.536-2.853-2.835-3.938-2.736.359 1.469.552 3.002.552 4.582a19.127 19.127 0 0 1-6.921 14.75c.711.588 2.489 1.658 4.867.122.347-.244.709-.244 1.055-.124.123.124 3.083 1.304 5.334-.954.83-.944 1.189-1.535 1.536-2.241.471-.961.955-1.783 2.377-2.609C-.239 2.137-.115 1.193 0 0m-6.637-23.354c-.594-1.06-1.067-1.537-1.538-2.006-.833-.844-1.428-1.544-1.782-3.203-1.538.239-2.491-.121-3.433-.712-.71-.241-1.303-.598-2.605-.828-3.086-.479-4.74 2.248-4.854 2.248-.122.355-.484.596-.956.596-2.535.113-3.393 1.698-3.657 2.767 7.486.566 13.767 5.433 16.381 12.138.833-.605 2.31-1.906 1.491-4.48-.114-.464 0-.826.359-1.18 0 0 2.013-2.494.594-5.34m-25.238-3.905c-.473 0-.825-.241-1.062-.596 0-.12-1.662-2.727-4.866-2.248-1.17.107-1.883.47-2.482.828-1.063.591-1.887.951-3.554.712-.238 1.53-.822 2.251-1.658 3.081-.479.482-1.071 1.068-1.539 2.128-1.542 2.846.468 5.217.597 5.34.231.354.353.716.231 1.06-.696 2.552.533 3.862 1.481 4.471 2.669-6.69 8.998-11.521 16.507-12.023-.265-1.068-1.117-2.641-3.655-2.753M-49.283-7.35c-.124.471-.479.714-.839.832-.113 0-3.191.713-3.67 3.909-.238 1.194-.118 1.9 0 2.609.243 1.193.243 2.137-.47 3.563 1.532.826 2.011 1.541 2.485 2.609.363.59.592 1.297 1.542 2.128 2.252 2.255 5.097 1.067 5.215 1.067.476-.12.823-.12 1.181.124 2.224 1.398 3.867.607 4.705-.098A19.194 19.194 0 0 1-45.305.054a18.803 18.803 0 0 1-.781-5.382v-.167c.007-1.538.199-3.031.549-4.464-1.077-.107-2.814.271-3.746 2.609m13.623 22.765c.357.237.475.593.475 1.067 0 .122-.355 3.199 2.604 4.624 1.064.585 1.777.709 2.486.826 1.184.118 2.015.354 3.199 1.542 1.186-1.188 2.137-1.424 3.313-1.542.602-.117 1.306-.241 2.494-.826 2.835-1.425 2.604-4.502 2.604-4.624-.119-.474.12-.83.36-1.067 2.216-1.757 1.794-3.63 1.432-4.589a19.083 19.083 0 0 1-10.236 2.959c-3.738 0-7.23-1.072-10.178-2.927-.346 1.087-.648 2.927 1.447 4.557m8.767-37.688c-9.351 0-16.944 7.588-16.944 16.955 0 2.775.67 5.4 1.852 7.713 2.811 5.478 8.513 9.227 15.089 9.227 9.359 0 16.939-7.586 16.939-16.95 0-2.778-.665-5.402-1.85-7.717-2.804-5.48-8.506-9.228-15.086-9.228M3.411 4.496c-.102.327-.356.578-.72.715-1.189.453-1.711.81-2.04 1.245a3.824 3.824 0 0 0-.415.778c-.351.713-.829 1.659-2.016 2.842-2.724 2.73-5.924 2.147-7.228 1.787-1.89.943-3.662.943-4.974.584 0 1.426-.586 2.968-2.137 4.394 0 1.42-.469 4.736-3.905 6.398-1.538.827-2.487.946-3.316 1.068-.578.07-.971.147-1.466.502a8.297 8.297 0 0 0-1.143 1.164l-.125.121c-.059.074-.16.183-.282.267 0 0-.013.01-.028.016-.021.014-.047.024-.076.037-.011.002-.015.005-.025.013h-.008a.885.885 0 0 1-.458.085c-.338 0-.652-.166-.891-.477-.51-.658-.898-1.056-1.247-1.299-.444-.306-.83-.362-1.359-.429-.83-.122-1.78-.241-3.322-1.068-3.316-1.662-3.789-4.978-3.905-6.398-1.546-1.426-2.011-2.968-2.011-4.513-1.421.478-3.087.478-4.975-.592-1.315.487-4.51.941-7.232-1.781-1.19-1.062-1.656-2.008-2.017-2.721-.32-.565-.483-.966-1.119-1.392a.206.206 0 0 0-.05-.033c-.008 0-.016-.007-.02-.011-.305-.189-.704-.374-1.252-.597a1.244 1.244 0 0 1-.377-.18s-.012-.008-.021-.025c-.023-.017-.04-.035-.063-.051-.004-.01-.01-.015-.021-.021V4.92a.941.941 0 0 1-.241-.404c-.013-.041-.027-.085-.033-.127h-.004v-.008a1.16 1.16 0 0 1 .186-.865c.849-1.34.954-1.938.867-2.623a5.747 5.747 0 0 0-.098-.413c-.128-.83-.234-1.895 0-3.443.589-3.793 3.552-5.213 4.85-5.689.957-2.012 2.256-2.963 3.678-3.436-.826-1.197-1.422-2.723-.95-4.866-.829-1.183-2.37-4.025-.593-7.46.717-1.549 1.423-2.248 2.015-2.731.717-.71 1.07-1.06 1.18-2.958 0-.098.01-.261.064-.413 0 0 0-.017.008-.034.01-.021.021-.048.034-.071.005-.007.009-.016.017-.025 0 0 0-.004.004-.004a.87.87 0 0 1 .308-.354c.265-.211.616-.267.997-.172 1.893.474 2.372.234 3.196-.239.711-.349 1.54-.827 3.195-1.062 3.795-.591 6.042 1.775 6.994 2.844 2.128.233 3.437 1.309 4.379 2.488.831-1.179 2.131-2.13 4.269-2.371.829-1.066 3.194-3.552 6.993-2.961 1.519.348 2.458.817 3.171 1.166.005.002.019.006.027.014.007.004.01.005.017.011.861.454 1.394.481 3.207.061a1.28 1.28 0 0 1 .443-.057.2.2 0 0 1 .082.011c.01 0 .021.005.032.005h.004v.002a1 1 0 0 1 .424.193c.281.203.436.516.452.912.066 1.58.321 2.145.78 2.659.108.112.228.23.351.355.48.594 1.31 1.303 2.024 2.731 1.775 3.435.241 6.4-.59 7.46.472 2.143-.124 3.802-.954 4.866 1.426.473 2.728 1.539 3.678 3.436 1.305.476 4.261 1.896 4.861 5.689.233 1.666 0 2.613-.124 3.443-.061.489-.121.85-.013 1.289.128.444.407.951.89 1.751.058.071.149.216.193.367 0 0 0 .014.003.025.003.029.014.053.014.086.002.013.002.02.006.033v.005a.928.928 0 0 1-.049.46" style="fill:#fff;fill-opacity:1;fill-rule:nonzero;stroke:none" transform="matrix(1.95676 0 0 -1.95676 132.77 69.76)"/><path d="M0 0h-1.83v9.914H0c2.668 0 4.235-1.465 4.235-4.756C4.235 1.553 2.967.063 0 0m.694 12.502H-6.75s.971-.354.971-1.683V-2.506h.016v-.009H.694c4.566 0 7.364 2.65 7.364 7.565 0 4.655-2.758 7.452-7.364 7.452" style="fill:#db1f26;fill-opacity:1;fill-rule:nonzero;stroke:none" transform="matrix(1.95676 0 0 -1.95676 113.123 201.619)"/><path d="M0 0v-5.861h-4.579c-.418 0-1.12.229-1.267 1.176V0h-4.864s.971-.362.971-1.691v-13.346h3.893v6.445L0-8.588v-6.453l3.925.004V0Z" style="fill:#db1f26;fill-opacity:1;fill-rule:nonzero;stroke:none" transform="matrix(1.95676 0 0 -1.95676 152.78 177.175)"/><path d="M0 0h3.921v10.385c0 4.855-3.723 4.656-4.123 4.656h-10.51s.934-.331.934-1.66V0h3.923v12.579h4.522c.466 0 1.333-.333 1.333-1.595Z" style="fill:#db1f26;fill-opacity:1;fill-rule:nonzero;stroke:none" transform="matrix(1.95676 0 0 -1.95676 54.71 206.606)"/><path d="M0 0v15.041h-3.927V2.461h-4.59c-.4 0-1.263.336-1.263 1.601v10.975h-4.853s.994-.197.994-1.66V4.658C-13.639-.266-9.515 0-9.515 0Z" style="fill:#db1f26;fill-opacity:1;fill-rule:nonzero;stroke:none" transform="matrix(1.95676 0 0 -1.95676 95.45 206.599)"/><path d="m0 0 6.619-8.886h4.593L4.158.032l6.716 6.123-3.997.002Z" style="fill:#db1f26;fill-opacity:1;fill-rule:nonzero;stroke:none" transform="matrix(1.95676 0 0 -1.95676 10.39 189.22)"/><path d="M0 0h-4.921s.996-.197.996-1.66v-13.381H0V-.133z" style="fill:#db1f26;fill-opacity:1;fill-rule:nonzero;stroke:none" transform="matrix(1.95676 0 0 -1.95676 10.065 177.175)"/></svg>