<svg xmlns="http://www.w3.org/2000/svg" xml:space="preserve" width="730.49146" height="700" viewBox="0 0 730.49145 700.00002"><path d="M0 0c-35.286 0-63.993 28.708-63.993 63.996 0 35.287 28.707 63.994 63.993 63.994 23.384 0 43.867-12.612 55.033-31.384l2.117.931C45.615 117.116 24.322 130.291 0 130.291c-36.556 0-66.294-29.74-66.294-66.295C-66.294 27.44-36.556-2.301 0-2.301c35.088 0 63.88 27.405 66.138 61.93h-2.307C61.576 26.372 33.818 0 0 0" style="fill:#2a2d7c;fill-opacity:1;fill-rule:nonzero;stroke:none" transform="matrix(5.27935 0 0 -5.27935 349.99 687.852)"/><path d="M0 0c-25.424 0-46.105 20.685-46.105 46.107 0 25.424 20.681 46.108 46.105 46.108 14.495 0 27.44-6.73 35.9-17.22l1.132.498C28.358 86.401 14.986 93.414 0 93.414c-26.084 0-47.306-21.222-47.306-47.307S-26.084-1.199 0-1.199c19.417 0 36.132 11.762 43.413 28.531h-1.315C34.893 11.243 18.738 0 0 0" style="fill:#2a2d7c;fill-opacity:1;fill-rule:nonzero;stroke:none" transform="matrix(5.27935 0 0 -5.27935 349.99 593.411)"/><path d="M0 0c0-.377.112-.586.465-.586h.806v-.44h-4.007v.44h.756c.316 0 .441.209.441.533v5.682a5.847 5.847 0 0 0-1.486-.69l-.164.391c.982.494 1.814 1.131 2.482 1.924H0Z" style="fill:#2a2d7c;fill-opacity:1;fill-rule:nonzero;stroke:none" transform="matrix(5.27935 0 0 -5.27935 304.136 514.974)"/><path d="M0 0c.379 0 .729.183 1.047.402.037.391.088.91.088 1.367 0 .973-.154 2.327-1.084 2.327-.859 0-.947-1.016-.947-2.016 0-.895 0-2.08.896-2.08m-1.841-3.471C-.201-2.926.655-1.639.944-.17.428-.494.102-.611-.354-.611c-1.259 0-2.155 1.027-2.155 2.457 0 1.56 1.084 2.73 2.533 2.73 1.615 0 2.724-1.273 2.724-3.471 0-2.445-1.689-4.459-4.3-5.004z" style="fill:#2a2d7c;fill-opacity:1;fill-rule:nonzero;stroke:none" transform="matrix(5.27935 0 0 -5.27935 331.76 500.837)"/><path d="M0 0c-.668 0-1.123-.455-1.123-1.119 0-.715.479-1.235 1.715-1.871.44.377.631.832.631 1.509C1.223-.547.78 0 0 0m-.504-4.199c-.492-.416-.669-.832-.669-1.586 0-1.08.48-1.731 1.273-1.731.744 0 1.287.547 1.287 1.301 0 .936-.607 1.301-1.891 2.016m1.475.935c1.133-.611 1.664-1.365 1.664-2.314 0-1.326-1.174-2.418-2.598-2.418-1.349 0-2.533.935-2.533 2.172 0 .857.492 1.47 1.524 1.91-.92.676-1.385 1.312-1.385 2.197C-2.357-.469-1.312.48.051.48c1.322 0 2.406-.884 2.406-1.951 0-.765-.453-1.324-1.486-1.793" style="fill:#2a2d7c;fill-opacity:1;fill-rule:nonzero;stroke:none" transform="matrix(5.27935 0 0 -5.27935 365.385 479.214)"/><path d="M0 0h-2.521c-.756 0-.871-.078-.996-.793h-.453l.177 2.248h5.104V.937l-2.899-7.763h-1.248z" style="fill:#2a2d7c;fill-opacity:1;fill-rule:nonzero;stroke:none" transform="matrix(5.27935 0 0 -5.27935 405.784 485.39)"/><path d="M0 0c-.261 0-.438-.207-.438-.563l.015-17.52c.001-.442.315-.754.728-.754.055 0 .112.006.169.021l9.906 1.953c.493.097.897.59.897 1.092v8.411c0 .504-.352 1.118-.793 1.371L.352-.106A.737.737 0 0 1 0 0" style="fill:#f8a10e;fill-opacity:1;fill-rule:nonzero;stroke:none" transform="matrix(5.27935 0 0 -5.27935 574.795 174.45)"/><path d="m0 0 .023 7.951-2.519-1.107c-.461-.199-.837-.778-.837-1.282v-9.797c0-.502.351-1.13.778-1.392l8.444-5.17a.683.683 0 0 1 .357-.119c.246 0 .423.203.42.557l-.01 7.247L.868-1.199C.388-1.042-.001-.501 0 0" style="fill:#00adef;fill-opacity:1;fill-rule:nonzero;stroke:none" transform="matrix(5.27935 0 0 -5.27935 668.22 262.678)"/><path d="M0 0a.667.667 0 0 1-.368-.134l-10.244-6.922c-.416-.282-.76-.924-.762-1.425l-.008-3.539 5.783 2.541c.11.051.213.073.312.073.308 0 .524-.233.526-.616l.012-13.062 4.27-1.412a.854.854 0 0 1 .257-.043c.355 0 .611.265.611.671V-.537C.389-.192.231 0 0 0" style="fill:#b3db18;fill-opacity:1;fill-rule:nonzero;stroke:none" transform="matrix(5.27935 0 0 -5.27935 728.438 157.246)"/><path d="M0 0a.73.73 0 0 1-.312-.072l-5.784-2.541-.023-7.95c-.001-.501.388-1.042.868-1.201l5.789-1.914L.526-.617C.524-.231.309 0 0 0" style="fill:#3871c1;fill-opacity:1;fill-rule:nonzero;stroke:none" transform="matrix(5.27935 0 0 -5.27935 700.525 206.905)"/><path d="M0 0c0 1.209.305 2.183.914 2.927.608.745 1.39 1.116 2.339 1.116l12.276-.007c.243 0 .368.112.368.331v3.654c0 .217-.125.33-.368.33H1.971c-1.166 0-2.203-.242-3.105-.726a7.737 7.737 0 0 1-2.28-1.822 7.726 7.726 0 0 1-1.41-2.432c-.315-.889-.474-1.746-.474-2.582v-8.45c0-.829.159-1.691.474-2.579a7.781 7.781 0 0 1 1.41-2.432 7.84 7.84 0 0 1 2.28-1.824c.902-.483 1.939-.723 3.105-.723h6.36c1.44 0 2.634.24 3.603.723.959.482 1.73 1.058 2.318 1.726.583.67 1.004 1.373 1.258 2.104.26.734.387 1.355.387 1.857v7.397c0 .221-.122.33-.368.33H4.167c-.243 0-.367-.109-.367-.33v-3.615c0-.221.124-.328.367-.328h5.956c.241 0 .364-.114.364-.331v-3.056a1.7 1.7 0 0 0-.164-.674 2.154 2.154 0 0 0-.512-.707 3.05 3.05 0 0 0-.873-.56 3.107 3.107 0 0 0-1.229-.228H3.253c-.949 0-1.731.372-2.339 1.118C.305-9.051 0-8.072 0-6.869Z" style="fill:#2a2d7c;fill-opacity:1;fill-rule:nonzero;stroke:none" transform="matrix(5.27935 0 0 -5.27935 183.52 335.527)"/><path d="M0 0c0 .855.086 1.588.254 2.204.17.612.461 1.11.877 1.495.414.383.97.668 1.663.854.692.185 1.565.279 2.614.279 1.531 0 2.649-.221 3.343-.657a3.262 3.262 0 0 0 1.408-1.81l4.896-16.238c.07-.219.194-.327.362-.327.171 0 .258.108.258.327V4.503c0 .218.119.329.362.329h4.569c.245 0 .364-.111.364-.329v-19.458c0-.44-.096-.877-.29-1.316a4.716 4.716 0 0 0-.787-1.213 3.938 3.938 0 0 0-1.167-.907 3.151 3.151 0 0 0-1.445-.344H13.92c-.289 0-.606.07-.931.214-.329.14-.639.328-.934.56-.291.23-.546.484-.767.773-.216.28-.377.582-.474.885L5.879.035C5.811.232 5.7.33 5.552.33c-.17 0-.256-.098-.256-.295v-18.441c0-.22-.119-.329-.365-.329H.363c-.243 0-.363.109-.363.329Z" style="fill:#2a2d7c;fill-opacity:1;fill-rule:nonzero;stroke:none" transform="matrix(5.27935 0 0 -5.27935 282.673 316.957)"/><path d="M0 0h4.567c.245 0 .368-.111.368-.329v-15.61c0-.79-.05-1.489-.147-2.085-.097-.608-.229-1.095-.403-1.47a5.743 5.743 0 0 0-.639-1.099 8.178 8.178 0 0 0-.933-1.069 5.295 5.295 0 0 0-1.276-.836 13.823 13.823 0 0 0-1.394-.577c-.434-.13-.92-.244-1.455-.343a9.557 9.557 0 0 0-1.756-.149h-4.277c-.801 0-1.551.077-2.246.229-.69.152-1.287.375-1.772.659-.51.284-.951.59-1.316.917-.462.42-.85.844-1.169 1.285a6.708 6.708 0 0 0-.746 1.53 5.223 5.223 0 0 0-.275 1.721V-.329c0 .218.12.329.364.329h4.567c.245 0 .369-.111.369-.329v-16.04c0-.262.051-.565.159-.902.112-.342.275-.66.496-.954.221-.296.495-.549.817-.755a2.138 2.138 0 0 1 1.158-.313h3.835c.415 0 .791.105 1.132.313.341.206.626.459.861.755.23.294.413.612.546.954.131.337.202.65.202.935V-.329c0 .218.12.329.363.329" style="fill:#2a2d7c;fill-opacity:1;fill-rule:nonzero;stroke:none" transform="matrix(5.27935 0 0 -5.27935 489.114 291.447)"/><path d="M0 0c0 .218.122.329.366.329h4.57c.24 0 .361-.111.361-.329v-8.396c0-.218.123-.328.366-.328h8.662c.242 0 .363.11.363.328V0c0 .218.124.329.367.329h4.566c.244 0 .363-.111.363-.329v-22.909c0-.22-.119-.33-.363-.33h-4.566c-.243 0-.367.11-.367.33v9.582c0 .22-.121.328-.363.328H5.663c-.243 0-.366-.108-.366-.328v-9.582c0-.22-.121-.33-.361-.33H.366c-.244 0-.366.11-.366.33z" style="fill:#2a2d7c;fill-opacity:1;fill-rule:nonzero;stroke:none" transform="matrix(5.27935 0 0 -5.27935 528.828 293.184)"/><path d="M0 0a1.282 1.282 0 0 1-2.478.647A1.28 1.28 0 0 1 0 0" style="fill:#2a2d7c;fill-opacity:1;fill-rule:nonzero;stroke:none" transform="matrix(5.27935 0 0 -5.27935 157.417 568.427)"/><path d="M0 0c.761.567 1.459.831 2.093.794.635-.039 1.121-.286 1.46-.739.218-.291.34-.609.366-.948a2.38 2.38 0 0 0-.163-1.038 3.844 3.844 0 0 0-.623-1.043 5.686 5.686 0 0 0-1.011-.957A6.038 6.038 0 0 0 .885-4.65a3.906 3.906 0 0 0-1.197-.315 2.453 2.453 0 0 0-1.054.13 1.759 1.759 0 0 0-1.113 1.3c-.047.25-.044.509.008.774.056.265.158.528.314.786.151.26.356.502.614.726l.516-.691a1.743 1.743 0 0 1-.444-.803.956.956 0 0 1 .189-.81c.155-.208.341-.343.556-.41.217-.063.453-.075.704-.03.251.045.513.139.79.277.275.14.545.31.815.509.253.189.481.394.688.612.204.219.364.444.477.673.112.231.171.457.171.682.001.224-.077.44-.231.648-.232.31-.525.469-.881.477-.358.009-.745-.128-1.164-.406L.517-.617l.649-.871-.769-.573L-.731-.545Z" style="fill:#2a2d7c;fill-opacity:1;fill-rule:nonzero;stroke:none" transform="matrix(5.27935 0 0 -5.27935 112.723 514.66)"/><path d="m0 0-2.623-3.698-.534.87 1.815 2.545-3.095-.464-.526.858 4.484.653 2.257 1.387.474-.767z" style="fill:#2a2d7c;fill-opacity:1;fill-rule:nonzero;stroke:none" transform="matrix(5.27935 0 0 -5.27935 106.557 504.095)"/><path d="m0 0-1.586 3.141.981.494L.579 1.289l1.526.773-1.087 2.156.884.448 1.089-2.157 1.726.871-1.212 2.397.964.489 1.612-3.194Z" style="fill:#2a2d7c;fill-opacity:1;fill-rule:nonzero;stroke:none" transform="matrix(5.27935 0 0 -5.27935 78.015 499.074)"/><path d="M0 0c.294.116.567.253.823.411.257.157.469.333.637.526.17.191.284.395.344.612.057.219.041.447-.055.687-.097.242-.24.42-.436.539a1.515 1.515 0 0 1-.67.216 2.66 2.66 0 0 1-.821-.052A5.584 5.584 0 0 1-1.92 2.25a2.796 2.796 0 0 1-.649-.53 1.504 1.504 0 0 1-.342-.616 1.07 1.07 0 0 1 .056-.691c.093-.24.239-.421.43-.541a1.53 1.53 0 0 1 .671-.213c.254-.022.531-.002.835.062.302.062.607.156.919.279m.335-.845a6.059 6.059 0 0 0-1.384-.374 3.943 3.943 0 0 0-1.236.014c-.377.07-.706.204-.986.402a1.75 1.75 0 0 0-.623.806 1.768 1.768 0 0 0-.098 1.017c.066.337.215.663.44.97.228.31.526.595.895.859.369.26.789.484 1.262.672.458.181.907.3 1.345.358.441.059.845.053 1.214-.022.368-.074.691-.211.971-.413a1.79 1.79 0 0 0 .618-.81c.134-.339.169-.676.106-1.01a2.413 2.413 0 0 0-.425-.962 3.768 3.768 0 0 0-.874-.849A5.728 5.728 0 0 0 .335-.845" style="fill:#2a2d7c;fill-opacity:1;fill-rule:nonzero;stroke:none" transform="matrix(5.27935 0 0 -5.27935 82.263 466.052)"/><path d="m0 0-.255.886 4.232 3.553-4.852-1.395-.229.797 6.545 1.885.261-.9-4.235-3.541 4.851 1.399.23-.8Z" style="fill:#2a2d7c;fill-opacity:1;fill-rule:nonzero;stroke:none" transform="matrix(5.27935 0 0 -5.27935 55.903 447.713)"/><path d="M0 0c.933.175 1.675.104 2.229-.209.551-.313.879-.749.985-1.306a1.792 1.792 0 0 0-.088-1.01 2.323 2.323 0 0 0-.605-.862 3.823 3.823 0 0 0-1.017-.663 5.818 5.818 0 0 0-1.331-.412 5.846 5.846 0 0 0-1.428-.102 3.863 3.863 0 0 0-1.211.246 2.403 2.403 0 0 0-.889.579 1.756 1.756 0 0 0-.426 1.656c.066.247.181.479.347.691.166.215.374.405.626.571.253.165.543.292.871.381l.16-.849a1.736 1.736 0 0 1-.75-.524.957.957 0 0 1-.188-.811c.048-.254.153-.459.319-.613.166-.155.372-.267.617-.338.246-.07.522-.102.832-.099a5.725 5.725 0 0 1 1.843.345c.281.106.522.237.725.394.202.156.355.335.452.538.101.201.127.429.078.683-.07.38-.263.652-.581.818-.316.163-.724.21-1.223.145L.189-.78l.202-1.069-.941-.174-.347 1.856Z" style="fill:#2a2d7c;fill-opacity:1;fill-rule:nonzero;stroke:none" transform="matrix(5.27935 0 0 -5.27935 65.384 393.971)"/><path d="M0 0c.21.021.389.068.537.146a1.042 1.042 0 0 1 .551.692c.036.149.046.306.029.467-.011.113-.034.23-.072.352a.997.997 0 0 1-.172.328.818.818 0 0 1-.301.229.896.896 0 0 1-.465.058 1.063 1.063 0 0 1-.445-.13.978.978 0 0 1-.296-.281 1.563 1.563 0 0 1-.193-.413 7.52 7.52 0 0 1-.145-.53 6.494 6.494 0 0 0-.197-.691 2.01 2.01 0 0 0-.299-.573 1.472 1.472 0 0 0-.493-.412 2.096 2.096 0 0 0-.777-.207 2.505 2.505 0 0 0-.933.064 1.777 1.777 0 0 0-.667.337 1.523 1.523 0 0 0-.416.524c-.1.203-.159.415-.183.639-.022.254-.004.495.054.728.062.234.167.444.321.63.152.188.354.344.603.471.249.128.552.209.905.243l.083-.853c-.348-.042-.597-.167-.75-.372-.149-.207-.21-.474-.177-.801a.948.948 0 0 1 .083-.314.734.734 0 0 1 .187-.256.796.796 0 0 1 .288-.161.969.969 0 0 1 .38-.033c.19.018.346.073.463.167.117.094.212.211.284.355.069.143.129.308.172.496l.143.592c.044.207.111.405.199.591.088.189.201.356.34.5.137.147.307.265.507.359.2.095.434.155.703.18.373.036.698.017.974-.058.279-.075.514-.192.704-.35.193-.157.341-.352.446-.583.104-.23.17-.484.197-.764a2.222 2.222 0 0 0-.064-.783 1.682 1.682 0 0 0-.357-.68 2.037 2.037 0 0 0-.67-.505 2.922 2.922 0 0 0-.999-.256Z" style="fill:#2a2d7c;fill-opacity:1;fill-rule:nonzero;stroke:none" transform="matrix(5.27935 0 0 -5.27935 67.544 385.372)"/><path d="m0 0-.018 1.455-2.861-.77Zm-4.313.187-.011.979L2.467 3.06l.012-.951-1.56-.406.022-1.922L2.51-.615l.011-.947Z" style="fill:#2a2d7c;fill-opacity:1;fill-rule:nonzero;stroke:none" transform="matrix(5.27935 0 0 -5.27935 63.791 359.238)"/><path d="m0 0 .069.92 5.206 1.851-5.033.388.065.826L7.1 3.461l-.074-.932L1.822.692 6.855.305l-.062-.827Z" style="fill:#2a2d7c;fill-opacity:1;fill-rule:nonzero;stroke:none" transform="matrix(5.27935 0 0 -5.27935 41.08 338.513)"/><path d="M0 0c.935-.162 1.604-.486 2.015-.975.409-.487.564-1.008.466-1.567a1.799 1.799 0 0 0-.434-.918 2.396 2.396 0 0 0-.864-.596 3.808 3.808 0 0 0-1.188-.263 5.572 5.572 0 0 0-1.391.075 6.082 6.082 0 0 0-1.373.402c-.414.181-.763.4-1.049.654a2.41 2.41 0 0 0-.631.854 1.758 1.758 0 0 0 .178 1.7c.15.208.337.384.568.528.229.141.492.248.786.314a3 3 0 0 0 .947.053l-.147-.85a1.746 1.746 0 0 1-.885-.23.96.96 0 0 1-.459-.694 1.071 1.071 0 0 1 .086-.686c.102-.202.255-.38.46-.53.206-.153.454-.281.744-.384a5.41 5.41 0 0 1 .93-.241c.31-.054.618-.082.918-.08.3.001.573.041.817.117.244.075.448.19.612.344.165.156.268.36.312.616.065.379-.022.702-.261.966-.238.265-.604.454-1.095.565L-.096-.8l-.183-1.07-.946.163L-.9.155Z" style="fill:#2a2d7c;fill-opacity:1;fill-rule:nonzero;stroke:none" transform="matrix(5.27935 0 0 -5.27935 68.735 291.431)"/><path d="m0 0 .277.879 5.493.612-4.813 1.53.251.791 6.493-2.064-.28-.891L1.933.258l4.811-1.529-.252-.791Z" style="fill:#2a2d7c;fill-opacity:1;fill-rule:nonzero;stroke:none" transform="matrix(5.27935 0 0 -5.27935 52.237 268.386)"/><path d="m0 0 .563 1.342-2.93.434zm-3.883 1.893.382.903 6.981-.975-.368-.874-1.59.248L.776-.576l1.28-.988-.369-.874Z" style="fill:#2a2d7c;fill-opacity:1;fill-rule:nonzero;stroke:none" transform="matrix(5.27935 0 0 -5.27935 84.594 244.412)"/><path d="m0 0-.677-1.326-.976.499 1.76 3.455.98-.499L.409.804l5.093-2.597-.409-.804Z" style="fill:#2a2d7c;fill-opacity:1;fill-rule:nonzero;stroke:none" transform="matrix(5.27935 0 0 -5.27935 78.609 216.515)"/><path d="m0 0 .452.774 5.884-3.437-.453-.773Z" style="fill:#2a2d7c;fill-opacity:1;fill-rule:nonzero;stroke:none" transform="matrix(5.27935 0 0 -5.27935 81.815 198.3)"/><path d="M0 0c.262-.178.529-.328.804-.45.273-.123.539-.199.793-.233.254-.031.487-.009.699.063.214.073.392.218.538.432.145.213.213.435.199.664a1.56 1.56 0 0 1-.197.674c-.12.224-.289.441-.504.65-.216.21-.453.403-.716.581a5.531 5.531 0 0 1-.837.473 2.805 2.805 0 0 1-.801.239c-.254.031-.49.011-.704-.066a1.083 1.083 0 0 1-.539-.433 1.094 1.094 0 0 1-.205-.66 1.51 1.51 0 0 1 .201-.675c.125-.224.298-.442.522-.655C-.524.39-.275.187 0 0m-.512-.752a5.927 5.927 0 0 0-1.086.934 3.898 3.898 0 0 0-.683 1.029 2.41 2.41 0 0 0-.221 1.042c.007.343.111.665.316.967.205.301.465.519.784.654.318.134.669.194 1.051.183a3.923 3.923 0 0 0 1.21-.259c.424-.156.847-.38 1.269-.665.406-.277.758-.58 1.053-.91.297-.33.516-.67.664-1.017.145-.346.215-.69.204-1.035a1.782 1.782 0 0 0-.321-.967 1.803 1.803 0 0 0-.777-.656 2.417 2.417 0 0 0-1.034-.189 3.796 3.796 0 0 0-1.192.245 5.787 5.787 0 0 0-1.237.644" style="fill:#2a2d7c;fill-opacity:1;fill-rule:nonzero;stroke:none" transform="matrix(5.27935 0 0 -5.27935 104.959 195)"/><path d="m0 0 .59.71L5.907-.785 2.022 2.438l.531.639 5.244-4.349-.599-.721L1.89-.487l3.883-3.224-.528-.639Z" style="fill:#2a2d7c;fill-opacity:1;fill-rule:nonzero;stroke:none" transform="matrix(5.27935 0 0 -5.27935 105.304 162.887)"/><path d="m0 0 1.025 1.032-2.556 1.501Zm-2.892 3.205.692.696L3.911.386l-.668-.673-1.384.825L.505-.826l.815-1.397-.668-.672Z" style="fill:#2a2d7c;fill-opacity:1;fill-rule:nonzero;stroke:none" transform="matrix(5.27935 0 0 -5.27935 144.213 152.9)"/><path d="m0 0 .685.587 3.731-4.355 1.839 1.577.703-.82-2.524-2.164z" style="fill:#2a2d7c;fill-opacity:1;fill-rule:nonzero;stroke:none" transform="matrix(5.27935 0 0 -5.27935 143.069 122.296)"/><path d="M0 0c.258-.392.439-.753.548-1.086.105-.333.148-.641.127-.922a1.608 1.608 0 0 0-.259-.76 2.173 2.173 0 0 0-.617-.596 2.004 2.004 0 0 0-.772-.316 1.671 1.671 0 0 0-.802.065c-.272.088-.54.244-.808.47-.271.227-.53.533-.785.919l-2.359 3.567.748.494 2.358-3.566c.319-.485.623-.782.908-.891.284-.109.591-.057.917.159.333.22.503.484.509.788.006.306-.15.698-.466 1.177l-2.356 3.567.752.497z" style="fill:#2a2d7c;fill-opacity:1;fill-rule:nonzero;stroke:none" transform="matrix(5.27935 0 0 -5.27935 201.204 106.891)"/><path d="m0 0 .812.436 4.359-3.4-2.377 4.455.731.391L6.732-4.13l-.824-.44-4.346 3.403 2.376-4.454-.732-.39Z" style="fill:#2a2d7c;fill-opacity:1;fill-rule:nonzero;stroke:none" transform="matrix(5.27935 0 0 -5.27935 195.476 84.072)"/><path d="m0 0 .815.37 2.809-6.208-.816-.369Z" style="fill:#2a2d7c;fill-opacity:1;fill-rule:nonzero;stroke:none" transform="matrix(5.27935 0 0 -5.27935 220.682 71.194)"/><path d="m0 0-1.033-.396-3.888 5.807.873.335 3-4.502-.786 5.349.879.337z" style="fill:#2a2d7c;fill-opacity:1;fill-rule:nonzero;stroke:none" transform="matrix(5.27935 0 0 -5.27935 255.065 95.817)"/><path d="m0 0 3.376.984.308-1.051-2.523-.739.481-1.642 2.319.677.277-.953-2.318-.675.541-1.856 2.578.753.303-1.036-3.433-1.003Z" style="fill:#2a2d7c;fill-opacity:1;fill-rule:nonzero;stroke:none" transform="matrix(5.27935 0 0 -5.27935 254.812 57.717)"/><path d="M0 0c.274.057.466.183.571.379.108.196.122.485.047.863-.139.701-.487.996-1.043.885l-1.266-.252.423-2.127Zm-2.765 2.683 2.449.487c.211.041.413.033.606-.026.192-.061.367-.161.525-.299.158-.139.29-.313.404-.52.11-.208.19-.434.239-.68.05-.249.071-.47.068-.667a1.99 1.99 0 0 0-.071-.531 1.436 1.436 0 0 0-.186-.409 1.377 1.377 0 0 0-.271-.295.933.933 0 0 0 .644-.399c.167-.23.305-.583.42-1.063.087-.376.175-.692.263-.95.087-.258.167-.435.24-.534l-.904-.181a3.708 3.708 0 0 0-.227.622c-.08.276-.155.574-.224.901-.091.435-.23.72-.415.857C.607-.868.367-.83.069-.89l-1.163-.231.539-2.704L-1.433-4Z" style="fill:#2a2d7c;fill-opacity:1;fill-rule:nonzero;stroke:none" transform="matrix(5.27935 0 0 -5.27935 293.912 65.012)"/><path d="M0 0c.021-.21.073-.389.153-.535.08-.148.181-.266.298-.356.118-.088.253-.152.403-.185.148-.033.302-.042.463-.024.116.012.233.038.355.079.12.041.227.098.324.176.095.079.17.179.225.303a.91.91 0 0 1 .05.466 1.02 1.02 0 0 1-.136.443.975.975 0 0 1-.284.292c-.119.077-.255.14-.415.187a7.197 7.197 0 0 1-.532.135c-.249.056-.48.121-.696.189a2.03 2.03 0 0 0-.575.29 1.442 1.442 0 0 0-.418.489 2.056 2.056 0 0 0-.218.776c-.04.354-.023.666.049.932.073.268.181.491.327.673.147.18.318.321.52.424.201.1.413.164.633.188.254.029.497.013.732-.044.232-.056.443-.159.634-.309.188-.151.347-.349.479-.597.132-.247.216-.549.255-.903l-.853-.094c-.045.349-.172.596-.381.744-.208.148-.476.204-.802.168a.974.974 0 0 1-.314-.088.791.791 0 0 1-.254-.191.785.785 0 0 1-.156-.291.952.952 0 0 1-.027-.379.858.858 0 0 1 .173-.462.995.995 0 0 1 .359-.278c.145-.071.311-.126.499-.166.186-.041.385-.085.593-.134.208-.042.406-.106.595-.189a1.728 1.728 0 0 0 .87-.836 2.13 2.13 0 0 0 .189-.7c.041-.373.027-.698-.046-.976a1.793 1.793 0 0 0-.339-.709 1.56 1.56 0 0 0-.576-.452 2.329 2.329 0 0 0-.761-.207 2.212 2.212 0 0 0-.785.048 1.733 1.733 0 0 0-.682.35 2.054 2.054 0 0 0-.514.663c-.14.275-.229.606-.272.995z" style="fill:#2a2d7c;fill-opacity:1;fill-rule:nonzero;stroke:none" transform="matrix(5.27935 0 0 -5.27935 312.642 69.971)"/><path d="m0 0 .895.045.342-6.805-.893-.045Z" style="fill:#2a2d7c;fill-opacity:1;fill-rule:nonzero;stroke:none" transform="matrix(5.27935 0 0 -5.27935 331.796 43.415)"/><path d="m0 0-1.489.001.001 1.099 3.878-.002V-.001L.901 0 .898-5.716l-.901.001Z" style="fill:#2a2d7c;fill-opacity:1;fill-rule:nonzero;stroke:none" transform="matrix(5.27935 0 0 -5.27935 349.247 48.695)"/><path d="m0 0-1.416 4.307 1.018-.086.966-2.974 1.468 2.764 1.004-.086L.898-.068.672-2.71l-.9.077z" style="fill:#2a2d7c;fill-opacity:1;fill-rule:nonzero;stroke:none" transform="matrix(5.27935 0 0 -5.27935 372.443 65.775)"/><path d="m0 0 .875-.19-.574-2.625 2.147-.471.574 2.625.882-.193L2.447-7.51l-.882.194.648 2.95-2.151.47-.645-2.951-.875.192z" style="fill:#2a2d7c;fill-opacity:1;fill-rule:nonzero;stroke:none" transform="matrix(5.27935 0 0 -5.27935 406.098 47.802)"/><path d="M0 0a5.217 5.217 0 0 1-.206-.897 2.825 2.825 0 0 1 0-.827c.04-.253.126-.47.256-.655.13-.184.317-.313.563-.392.247-.082.48-.083.695-.008.214.074.414.201.592.382.181.177.341.399.482.666.14.262.261.545.356.847.104.319.177.629.22.935.043.306.045.586.004.837-.04.255-.127.472-.259.656a1.077 1.077 0 0 1-.567.395 1.088 1.088 0 0 1-.694.012 1.499 1.499 0 0 1-.589-.382A2.92 2.92 0 0 1 .369.887 6.014 6.014 0 0 1 0 0m-.863.279c.156.484.351.918.589 1.303.237.385.503.701.796.947.293.246.608.414.939.505.331.09.67.078 1.017-.033.345-.112.627-.301.846-.567.219-.269.375-.589.471-.961A3.89 3.89 0 0 0 3.888.239a6.01 6.01 0 0 0-.284-1.402 5.644 5.644 0 0 0-.579-1.268 3.697 3.697 0 0 0-.788-.921 2.458 2.458 0 0 0-.935-.487 1.791 1.791 0 0 0-1.021.038 1.788 1.788 0 0 0-.844.56 2.388 2.388 0 0 0-.471.94c-.097.367-.13.771-.102 1.214.032.442.12.899.273 1.366" style="fill:#2a2d7c;fill-opacity:1;fill-rule:nonzero;stroke:none" transform="matrix(5.27935 0 0 -5.27935 432.242 72.745)"/><path d="M0 0a1.449 1.449 0 0 1-.127-.543 1.025 1.025 0 0 1 .343-.813c.114-.104.246-.187.394-.25.106-.046.222-.081.346-.106a1.02 1.02 0 0 1 .369-.005.817.817 0 0 1 .347.155.934.934 0 0 1 .271.378c.072.167.104.32.098.456a.962.962 0 0 1-.104.393 1.558 1.558 0 0 1-.269.367c-.116.12-.248.247-.397.38a7.07 7.07 0 0 0-.514.506 2.083 2.083 0 0 0-.361.535 1.532 1.532 0 0 0-.124.631c.003.23.068.491.191.782.141.329.308.592.502.788.192.199.397.339.614.425.216.086.436.125.659.114.227-.008.442-.058.648-.146.234-.1.437-.233.615-.396.176-.164.31-.357.399-.581.09-.222.133-.474.125-.755a2.512 2.512 0 0 0-.22-.913l-.787.336c.128.327.138.607.031.837-.111.231-.317.411-.618.54a.933.933 0 0 1-.317.077.765.765 0 0 1-.592-.218.929.929 0 0 1-.21-.317.86.86 0 0 1-.076-.488c.026-.148.084-.287.177-.419.091-.131.209-.261.352-.389.142-.128.295-.263.452-.408.161-.138.302-.291.424-.457a1.88 1.88 0 0 0 .276-.538c.062-.19.086-.397.072-.618a2.109 2.109 0 0 0-.176-.703 2.8 2.8 0 0 0-.519-.827 1.84 1.84 0 0 0-.643-.453 1.629 1.629 0 0 0-.724-.111 2.437 2.437 0 0 0-.765.192 2.19 2.19 0 0 0-.659.43c-.19.179-.331.393-.426.639a1.992 1.992 0 0 0-.121.831c.013.308.097.64.251 1z" style="fill:#2a2d7c;fill-opacity:1;fill-rule:nonzero;stroke:none" transform="matrix(5.27935 0 0 -5.27935 456.046 87.95)"/><path d="M0 0a1.69 1.69 0 0 1 .372-.143.822.822 0 0 1 .382-.003.86.86 0 0 1 .377.205c.123.105.24.265.351.477.112.208.174.391.193.55a.91.91 0 0 1-.046.422.78.78 0 0 1-.22.309 1.674 1.674 0 0 1-.329.224l-.84.443L-.838.442Zm-.083 3.788L1.81 2.787c.248-.131.436-.295.563-.49.127-.196.204-.412.231-.645.03-.234.01-.481-.054-.741a3.527 3.527 0 0 0-.304-.778 3.564 3.564 0 0 0-.489-.715 2.095 2.095 0 0 0-.585-.465 1.43 1.43 0 0 0-.659-.163 1.507 1.507 0 0 0-.714.193l-1.102.582-1.174-2.219-.792.419z" style="fill:#2a2d7c;fill-opacity:1;fill-rule:nonzero;stroke:none" transform="matrix(5.27935 0 0 -5.27935 486.609 94.26)"/><path d="m0 0 .765-.466-3.547-5.817-.764.468z" style="fill:#2a2d7c;fill-opacity:1;fill-rule:nonzero;stroke:none" transform="matrix(5.27935 0 0 -5.27935 508.757 86.702)"/><path d="m0 0-1.226.846.624.903L2.59-.457l-.623-.9-1.226.843-3.25-4.701-.742.513z" style="fill:#2a2d7c;fill-opacity:1;fill-rule:nonzero;stroke:none" transform="matrix(5.27935 0 0 -5.27935 520.347 100.972)"/><path d="m0 0 1.135-.911 1.221 2.699Zm2.885 3.213.763-.613L.794-3.847l-.739.593.674 1.461L-.769-.589l-1.301-.958-.741.594z" style="fill:#2a2d7c;fill-opacity:1;fill-rule:nonzero;stroke:none" transform="matrix(5.27935 0 0 -5.27935 526.286 126.282)"/><path d="m0 0 .654-.62-3.938-4.166 1.762-1.665-.745-.783-2.415 2.284z" style="fill:#2a2d7c;fill-opacity:1;fill-rule:nonzero;stroke:none" transform="matrix(5.27935 0 0 -5.27935 556.622 121.93)"/><path d="m0 0-.269-1.276a51.657 51.657 0 0 1 5.704-.867l-.143-1.48a53.206 53.206 0 0 0-6.361.997l-.281-1.276a55.011 55.011 0 0 1 3.496-.648l-.225-1.471a57.046 57.046 0 0 0-3.068.554l-.268-1.276a57.164 57.164 0 0 1 6.312-.958l-.215-2.227c.564-.054 1.13-.1 1.695-.137l.241 3.532c-1.036.069-2.07.167-3.104.294l.182 1.476a54.121 54.121 0 0 1 3.516-.317l.077 1.304c-.16.009-.321.019-.48.03.046.688.092 1.377.14 2.065-.001.001.08.715-.585.766A50.538 50.538 0 0 0 0 0" style="fill:#2a2d7c;fill-opacity:1;fill-rule:nonzero;stroke:none" transform="matrix(5.27935 0 0 -5.27935 293.927 614.89)"/><path d="M0 0a1.635 1.635 0 0 0-2.359-.12c-.665.633-.717 1.664-.133 2.327.583.66 1.639.768 2.347.183C.565 1.804.625.708 0 0m-5.315 2.661a56.746 56.746 0 0 0-1.387-1.428l-.493.497c.464.46.92.93 1.369 1.41l.511-.479m.94 5.184a49.041 49.041 0 0 0-1.723-2.082l.98-.86c.271.312.54.625.805.944l.539-.451c-.27-.322-.54-.64-.816-.955l.981-.858c.28.32.556.646.831.974l.761-.637a3.855 3.855 0 0 1-1.307-.94l-2.937 2.597a51.962 51.962 0 0 0-.995-1.096l.48-.451a52.552 52.552 0 0 0-1.335-1.374l-.464.468c-.348-.345-.7-.684-1.057-1.018l2.206-2.364.015-.014c.265-.288.698-.319.969-.058.039-.023 2.755 2.777 2.731 2.81-.834-1.271-.83-2.89.145-3.879C-2.478-2.512-.452-2.294.857-.81 2.174.676 2.162 2.725.928 3.674l-5.303 4.171" style="fill:#2a2d7c;fill-opacity:1;fill-rule:nonzero;stroke:none" transform="matrix(5.27935 0 0 -5.27935 584.096 559.147)"/><path d="M0 0c.312-1.052.624-2.104.937-3.154-.254-.075-.508-.15-.763-.221L-.717-.207a50.08 50.08 0 0 0-1.381-.367c.576-2.286 1.149-4.573 1.724-6.86a59.18 59.18 0 0 0-2.412-.551l-1.167 5.649c.603.125 1.204.261 1.803.406-.104.422-.205.845-.309 1.267a51.539 51.539 0 0 0-3.16-.666l1.286-7.254c.096-.546.586-.922 1.144-.813 1.05.205 2.094.437 3.132.698.061-.239.119-.477.18-.715.545.137 1.087.281 1.628.433L.528-4.633c.261.073.521.149.781.226l1.285-4.33c.539.16 1.075.327 1.609.502L1.364.426C.911.277.456.136 0 0" style="fill:#2a2d7c;fill-opacity:1;fill-rule:nonzero;stroke:none" transform="matrix(5.27935 0 0 -5.27935 425.932 609.358)"/><path d="M0 0a71.066 71.066 0 0 0-.84-.721l-4.091 4.858c-.001.001-.438.569-.958.14A50.427 50.427 0 0 0-10.94.63l.697-1.101a52.164 52.164 0 0 1 4.524 3.212c1.196-1.507 2.391-3.013 3.584-4.52a50.537 50.537 0 0 0-.686-.536c-.768.998-1.535 1.996-2.305 2.994a55.08 55.08 0 0 0-1.236-.923l2.218-3.059a48.798 48.798 0 0 0-1.016-.718L-7.312-.917a53.61 53.61 0 0 0-1.277-.856l2.064-3.165c-.4-.26-.803-.515-1.208-.765l.688-1.108A58.863 58.863 0 0 1 .857-.979L0 0" style="fill:#2a2d7c;fill-opacity:1;fill-rule:nonzero;stroke:none" transform="matrix(5.27935 0 0 -5.27935 551.332 581.997)"/><path d="M0 0a50.137 50.137 0 0 0-.958-.543c-.322.58-.645 1.159-.966 1.739A53.059 53.059 0 0 0-3.19.52l2.554-4.926a56.89 56.89 0 0 0-5.735-2.573l.469-1.215A57.85 57.85 0 0 1-.034-5.563l1.04-2.01c.506.261 1.008.529 1.507.805L-.316-1.679c.324.181.649.365.972.552C.437-.751.22-.375 0 0" style="fill:#2a2d7c;fill-opacity:1;fill-rule:nonzero;stroke:none" transform="matrix(5.27935 0 0 -5.27935 490.104 593.056)"/><path d="M0 0c-.864.487-1.163 1.546-.683 2.33.48.783 1.51 1.024 2.317.569.804-.456 1.151-1.476.728-2.293C1.941-.211.861-.488 0 0m-2.186 3.248c-.857-1.296-.153-3.276 1.623-4.28 1.775-1.007 3.783-.571 4.448.837.015.027 2.94 6.037 2.944 6.038a49.99 49.99 0 0 0-2.382 1.243l-.638-1.153c.348-.194.698-.383 1.047-.568l-.314-.6a57.88 57.88 0 0 0-1.062.574l-.638-1.153a45.96 45.96 0 0 1 1.088-.589l-.445-.849c-.31.429-.771.847-1.279 1.133-1.635.924-3.52.682-4.392-.633" style="fill:#2a2d7c;fill-opacity:1;fill-rule:nonzero;stroke:none" transform="matrix(5.27935 0 0 -5.27935 195.31 624.252)"/><path d="m0 0-.757-1.08a54.537 54.537 0 0 1 2.653-1.746c0 .004-.588-.492-1.918-.699-.738-.111-1.485-.129-2.678.179a69.934 69.934 0 0 1-.058-1.218c-.001 0 1.126-.42 2.37-.358 1.244.062 2.033.199 2.813.482.588.215.925.374 1.278.549l.645 1.151A51.825 51.825 0 0 0 0 0" style="fill:#2a2d7c;fill-opacity:1;fill-rule:nonzero;stroke:none" transform="matrix(5.27935 0 0 -5.27935 194.64 571.706)"/><path d="M0 0c-.585-.261-1.309.057-1.579.705-.27.648-.013 1.372.541 1.619.554.246 1.241-.058 1.545-.692C.812.999.583.26 0 0m-4.316 2.402.462-1.219c.228.087.457.174.685.264A2.287 2.287 0 0 1-3.046.272l.107-.274c.471-1.242 2.07-1.832 3.493-1.197C1.978-.566 2.57.996 1.957 2.174c-.046.088-.089.177-.135.264-.183.365-.458.66-.783.88.172.086.343.172.514.26L.957 4.737a53.252 53.252 0 0 0-1.953-.948l-.217.471a43.98 43.98 0 0 0-1.297-.572l.205-.478a51.738 51.738 0 0 0-2.011-.808" style="fill:#2a2d7c;fill-opacity:1;fill-rule:nonzero;stroke:none" transform="matrix(5.27935 0 0 -5.27935 466.775 616.055)"/><path d="M0 0c.344.544 1.105.724 1.714.367.604-.357.799-1.146.44-1.721-.358-.574-1.133-.713-1.718-.324C-.148-1.288-.341-.542 0 0m4.745-1.869-.995.602c.437.726.86 1.464 1.268 2.216l.081.138-1.15.621a55.11 55.11 0 0 0-.473-.86 2.059 2.059 0 0 1-.825.857l-.257.143c-1.169.634-2.746.081-3.522-1.16-.776-1.243-.543-2.835.537-3.611l.243-.172c.331-.235.719-.36 1.117-.384-.164-.236-.329-.47-.496-.704l1.057-.759a54.996 54.996 0 0 1 1.537 2.26l.976-.631c.306.475.607.957.902 1.444" style="fill:#2a2d7c;fill-opacity:1;fill-rule:nonzero;stroke:none" transform="matrix(5.27935 0 0 -5.27935 580.626 496.558)"/><path d="M0 0c.002.001 2.022-1.411 2.021-1.412a.87.87 0 0 1 1.222.218c.118-.112 4.201 6.916 4.077 7.027L-.847 9.876a48.927 48.927 0 0 0-.713-1.388l4.847-2.587a61.241 61.241 0 0 0-1.02-1.835l1.125-.655c.357.616.707 1.243 1.045 1.878.297-.16.596-.319.896-.478A59.81 59.81 0 0 0 2.657.279L.943 1.402C.636.929.321.462 0 0" style="fill:#2a2d7c;fill-opacity:1;fill-rule:nonzero;stroke:none" transform="matrix(5.27935 0 0 -5.27935 595.088 522.79)"/><path d="M0 0c-.926.309-1.403 1.288-1.078 2.151a1.706 1.706 0 0 0 2.14 1.012c.856-.292 1.383-1.226 1.122-2.109C1.922.17.92-.312 0 0m5.033 5.135.519 1.919c-.471.128-.941.262-1.409.403-.002 0-.805-2.658-.825-2.709-.442.629-.998 1.816-1.214 3.377-.54.189-1.079.388-1.615.597-2.009-1.791-3.951-1.826-3.942-1.824a54.6 54.6 0 0 1 .12-1.259c.468-.053.995.032 1.9.242C-.27 6.15.723 6.874.73 6.879c-.003.003.596-2.026 1.62-3.151-.288.19-.602.352-.951.468-1.674.561-3.483-.031-4.069-1.442-.586-1.41.434-3.174 2.308-3.805 1.87-.633 3.763.152 4.147 1.63.004.013.5 1.814.904 3.299.352-.095.705-.187 1.057-.274l.316 1.263c-.344.086-.687.175-1.029.268" style="fill:#2a2d7c;fill-opacity:1;fill-rule:nonzero;stroke:none" transform="matrix(5.27935 0 0 -5.27935 249.46 648.504)"/><path d="M0 0a58.763 58.763 0 0 0-4.503-.287l-.016.656A59.02 59.02 0 0 1-.065.653L0 0m-.312 3.09.116-1.139a56.97 56.97 0 0 0-4.354-.278l-.015.626A56.504 56.504 0 0 0-6.16 2.28l-.013-3.006c.002-.488.368-.886.828-.881a60.49 60.49 0 0 1 7.164.506c-.39 3.016-.782 6.032-1.173 9.047a53.659 53.659 0 0 0-1.432-.167l.343-3.394a55.015 55.015 0 0 0-4.959-.281l-.004.407c1.301.013 2.6.075 3.893.182l-.245 2.996a51.177 51.177 0 0 0-5.124-.168l-.024-1.303a51.97 51.97 0 0 1 3.788.071l.021-.4a53.057 53.057 0 0 0-3.807-.072l-.043-2.302c-.008-.392.278-.713.651-.715 2.002-.011 4 .087 5.984.29" style="fill:#2a2d7c;fill-opacity:1;fill-rule:nonzero;stroke:none" transform="matrix(5.27935 0 0 -5.27935 380.475 660.233)"/></svg>