<svg xmlns="http://www.w3.org/2000/svg" width="384" height="78"><path fill="#595757" d="M213.831 21.696H200.73v4.445h13.102v-4.445zm8.903 18.98H191.83v-4.734h12.723v-5.065h-9.002v-18.69h5.18v4.776h13.101v-4.777h5.185v18.691h-9.04v5.065h12.758v4.734zM117.483 17.463c-.262 1.81-.628 3.382-1.09 4.72h-5.04c.228-1.016.443-2.007.623-2.973.188-.969.29-1.948.319-2.942H93.207v-4.46h24.856a63.9 63.9 0 0 1-.58 5.655M90.042 27.887v-4.459h10.846v-4.634h5.457v4.634h14.6v4.46H90.043z"/><path fill="#595757" d="M105.469 40.515c-3.728 0-6.753-2.585-6.753-5.77 0-3.187 3.025-5.767 6.753-5.767 3.734 0 6.753 2.58 6.753 5.767 0 3.185-3.02 5.77-6.753 5.77m.005-15.545c-6.324 0-11.445 4.376-11.445 9.775s5.12 9.774 11.445 9.774c6.319 0 11.445-4.375 11.445-9.774 0-5.399-5.126-9.775-11.445-9.775M182.39 31.918v-9.841h-5.211v-4.322h5.21v-6.64h5.18v22.299h-4.18l-1-1.496zm-6.398-3.51c-1.136-.393-2.396-.974-3.785-1.748-1.392-.773-2.438-1.687-3.133-2.75-.555.969-1.575 1.988-3.059 3.063-1.48 1.07-3.001 1.85-4.552 2.336l-3.06-3.98c1.854-.67 3.633-1.643 5.336-2.922 1.702-1.281 2.558-2.797 2.558-4.55v-.655h-5.703V12.74h16.754v4.462h-5.665v.656c0 1.893.954 3.42 2.848 4.583 1.9 1.166 3.292 1.897 4.174 2.194l-2.713 3.773z"/><path fill="#595757" d="M176.108 40.652c-3.734 0-6.762-2.584-6.762-5.77 0-3.185 3.028-5.767 6.762-5.767 3.737 0 6.762 2.582 6.762 5.768 0 3.185-3.025 5.769-6.762 5.769m0-15.545c-6.329 0-11.456 4.377-11.456 9.776 0 5.398 5.127 9.775 11.456 9.775 6.33 0 11.461-4.377 11.461-9.775 0-5.4-5.132-9.776-11.46-9.776M151.07 24.154v9.096h-5.18V10.978h5.18v8.717h4.136v4.46h-4.137zm-14.898 1.333c-3.766 2.87-6.922 4.5-9.47 4.894l-2.99-3.529c1.711-.345 3.982-1.327 6.791-2.938 2.818-1.616 4.552-3.91 5.202-6.885h-9.979V12.57h16.095c0 5.741-1.88 10.043-5.649 12.917M133.698 39.266v-7.44h-4.98V44.06h22.345v-4.772l-17.365-.021zM262.676 44.33V33.673h16.78v-2.756h-16.78v-3.41h22.465v9.501H268.36v3.275h17.462v4.047h-23.146zM280.75 10.917h5.072v14.757h-5.072V10.917zm-5.48 14.464c-1.067-.218-2.315-.652-3.745-1.307-1.43-.652-2.576-1.449-3.439-2.383-.498.934-1.44 1.778-2.825 2.531-1.382.751-2.927 1.377-4.628 1.877l-2.895-3.527c1.363-.37 2.996-1.056 4.902-2.059 1.907-1 2.862-2.263 2.862-3.787v-.685h-5.55v-3.986h16.407v3.986h-5.65v.685c0 1.481.8 2.601 2.398 3.365 1.602.761 3.172 1.337 4.715 1.731l-2.553 3.56zM304.135 29.59c-3.2.22-6.422.33-9.668.33h-4.527v-4.237h5.38V20.23h5v5.42c1.092-.022 2.809-.104 5.16-.247 2.348-.143 5.18-.312 6.518-.51V29c-1.383.176-4.664.374-7.863.59M318.078 23.507v15.068h-5.07v-27.57h5.07v8.362h3.883v4.14h-3.883zm-22.09 20.89V33.402h5.074v6.916h17.87v4.077h-22.944z"/><path fill="#595757" d="M308.955 18.14c-.273 2.08-.625 5.337-1.057 6.389h-5.07c.248-.875.473-3.608.68-4.813a65.72 65.72 0 0 0 .474-3.251H292.24v-4.237h17.293a87.658 87.658 0 0 1-.578 5.913M351.908 44.203h-5.369V11.004h5.37v33.2zm-7.172-11.308a297.8 297.8 0 0 1-5.369.552 71.056 71.056 0 0 1-6.81.331h-7.462v-12.2h10.848v-4.013h-10.848v-4.077h16.217v12.168h-10.847v4.047h4.072c1.467 0 3.217-.09 5.262-.269 2.043-.18 3.687-.354 4.937-.523v3.984zM383.687 38.995h-5.039v-5.169h-6.705v-3.413h6.705V10.976h5.04v28.02zM366.28 20.915c-2.226 0-4.03-1.54-4.03-3.44 0-1.899 1.804-3.44 4.03-3.44 2.222 0 4.026 1.541 4.026 3.44 0 1.9-1.804 3.44-4.027 3.44m.002-10.32c-4.453 0-8.059 3.078-8.059 6.88 0 3.8 3.606 6.881 8.06 6.881 4.446 0 8.052-3.08 8.052-6.88 0-3.803-3.606-6.882-8.053-6.882"/><path fill="#595757" d="M378.058 28.48c-1.36.212-3.113.385-5.258.52-2.144.139-3.806.218-4.988.239v4.97h-5.07v-4.907h-6.264v-3.983h10.111c1.496 0 3.522-.09 6.076-.268 2.551-.18 4.35-.352 5.393-.522v3.95zM383.67 44.44h-23.451v-9.385h5.07l-.27 5.36h18.669l-.018 4.025zM246.25 33.885h-12.696v6.193h12.696v-6.193zm8.78-5.568h-12.39v1.644h8.815V44.06h-23.11V29.961h8.781v-1.644H224.77v-3.862h30.26v3.862zM242.879 18.857h-5.99l-.274-2.973h6.535l-.271 2.973zm5.039 0 .272-2.973h3.609v-4.146h-23.795v4.146h3.574l.27 2.973h-4.526v4.11h25.157v-4.11h-4.561zM96.797 53.645c.257.357.354.752.289 1.185-.088.57-.391 1.063-.903 1.478-.515.415-1.267.623-2.258.623-1.093 0-1.901-.293-2.423-.878-.524-.584-.797-1.205-.821-1.862h1.17c.033.592.24 1.045.627 1.359.386.314.878.47 1.472.47.602 0 1.056-.118 1.357-.356.302-.24.492-.531.573-.877.063-.267.016-.487-.144-.661-.161-.173-.396-.328-.7-.465a3.15 3.15 0 0 0-1.165-.26 4.014 4.014 0 0 1-1.26-.26c-.546-.202-.962-.446-1.242-.73-.282-.286-.415-.684-.397-1.197.015-.491.266-.964.752-1.42.488-.453 1.21-.68 2.165-.68 1.142 0 1.926.289 2.348.866.422.578.632 1.086.632 1.526l-1.17-.011c0-.411-.146-.763-.44-1.055-.293-.293-.75-.44-1.37-.44-.578 0-1.003.13-1.271.386-.271.256-.404.532-.404.828 0 .318.104.548.313.693.208.144.429.257.664.336.289.093.668.168 1.138.222.472.054.933.175 1.382.362.467.188.829.46 1.086.818M103.14 55.453c.33-.35.496-.84.496-1.467 0-.628-.165-1.115-.495-1.462-.33-.346-.78-.52-1.35-.52-.581 0-1.032.174-1.357.52-.325.347-.49.834-.49 1.462s.165 1.117.49 1.467c.325.35.776.525 1.357.525.57 0 1.02-.174 1.35-.525m.876-3.551c.526.509.79 1.204.79 2.084 0 .888-.264 1.586-.79 2.095-.528.509-1.217.763-2.07.763a2.829 2.829 0 0 1-1.942-.714v2.349h-1.097v-7.134h1.086l.01.498c.25-.224.538-.398.863-.52a3.041 3.041 0 0 1 1.08-.184c.853 0 1.542.254 2.07.763M110.621 53.953a1.003 1.003 0 0 1-.249.125c-.108.039-.219.07-.332.092-.248.05-.562.092-.94.124-.378.033-.65.075-.82.124-.33.094-.586.208-.766.342-.18.133-.25.334-.212.6.04.268.194.446.458.536.266.09.544.128.833.115.66-.044 1.163-.22 1.508-.526.346-.307.52-.593.52-.861v-.671zm.203 2.685a1.02 1.02 0 0 1-.149-.341 1.82 1.82 0 0 1-.054-.352c-.217.21-.51.404-.876.585-.366.18-.786.28-1.26.303-.596.029-1.117-.065-1.57-.281-.449-.217-.71-.567-.783-1.051-.079-.498.023-.883.307-1.158a2.437 2.437 0 0 1 1.093-.584 4.968 4.968 0 0 1 1.122-.18 9.602 9.602 0 0 0 1.11-.113c.184-.036.373-.08.565-.13.194-.05.292-.187.292-.411 0-.218-.113-.428-.339-.634-.225-.206-.612-.308-1.158-.308-.546 0-.944.095-1.195.287-.248.19-.354.424-.313.698h-1.122c-.055-.592.182-1.043.717-1.354.535-.31 1.172-.465 1.913-.465.69 0 1.305.153 1.84.46.535.306.801.735.801 1.283v2.89c0 .232.041.432.122.602l.131.276-1.194-.022zM115.276 56.649a1.08 1.08 0 0 1-.566-.136 1.592 1.592 0 0 1-.387-.308 1.101 1.101 0 0 1-.212-.395c-.036-.134-.054-.341-.054-.622V52.22l-.747-.022v-.8l.747-.012v-1.645h1.097l.014 1.645.844.012.023.822h-.867v2.837c0 .137.003.252.011.346.01.094.066.184.17.27.088.073.2.117.336.13.137.015.251.023.34.023l.024.822h-.773zM117.94 56.627V51.3h1.087l.025 5.327h-1.111zm0-6.377v-.996h1.087l.025 1.018-1.111-.022zM125.301 53.953a.976.976 0 0 1-.248.125c-.108.039-.219.07-.332.092-.248.05-.563.092-.94.124-.378.033-.652.075-.82.124-.33.094-.586.208-.766.342-.18.133-.25.334-.213.6.041.268.194.446.46.536.265.09.543.128.832.115.66-.044 1.162-.22 1.507-.526.347-.307.52-.593.52-.861v-.671zm.204 2.685a1.003 1.003 0 0 1-.15-.341 1.99 1.99 0 0 1-.054-.352c-.216.21-.51.404-.876.585-.366.18-.786.28-1.26.303-.595.029-1.117-.065-1.569-.281-.449-.217-.712-.567-.783-1.051-.079-.498.022-.883.306-1.158a2.437 2.437 0 0 1 1.093-.584 4.968 4.968 0 0 1 1.123-.18 9.585 9.585 0 0 0 1.108-.113 8.64 8.64 0 0 0 .567-.13c.194-.05.291-.187.291-.411 0-.218-.113-.428-.339-.634-.225-.206-.612-.308-1.158-.308-.546 0-.943.095-1.194.287-.248.19-.355.424-.314.698h-1.122c-.055-.592.183-1.043.718-1.354.535-.31 1.172-.465 1.912-.465.691 0 1.305.153 1.84.46.535.306.802.735.802 1.283v2.89c0 .232.041.432.122.602.08.17.124.26.13.276l-1.193-.022zM128.64 56.638v-7.287h1.086l.014 7.298-1.1-.011zM138.098 49.351h1.075v7.276h-1.075v-7.276zM145.6 56.638v-3.183c0-.469-.107-.807-.324-1.012-.217-.206-.551-.309-1-.309-.467 0-.861.145-1.176.433a1.375 1.375 0 0 0-.477 1.061v3.021l-1.1-.011v-5.283h1.087l.013.552a4.01 4.01 0 0 1 .935-.568c.372-.17.829-.225 1.368-.168.643.072 1.104.31 1.382.715.277.403.415.789.415 1.158v3.605l-1.122-.011zM150.234 52.22v4.429h-1.123l.012-4.428-.747-.021v-.801l.747-.011v-.596c0-.281.018-.49.054-.628a1.07 1.07 0 0 1 .212-.401c.104-.114.233-.216.387-.303.15-.086.34-.126.566-.12l.747.012.012.845c-.104 0-.22-.006-.35-.017a.413.413 0 0 0-.325.104c-.104.086-.163.178-.174.275a2.694 2.694 0 0 0-.018.364v.465l.867.01v.823h-.867zM156.452 55.453c.341-.38.513-.868.513-1.467 0-.598-.172-1.082-.513-1.45-.341-.37-.79-.553-1.346-.553-.562 0-1.013.184-1.35.553-.339.368-.508.852-.508 1.45 0 .599.169 1.088.508 1.467.337.379.788.568 1.35.568.556 0 1.005-.19 1.346-.568m.856-3.502c.535.534.804 1.212.804 2.035 0 .823-.269 1.505-.804 2.046-.535.542-1.269.812-2.202.812-.932 0-1.666-.27-2.201-.812-.535-.541-.801-1.223-.801-2.046 0-.823.266-1.501.801-2.035.535-.534 1.269-.802 2.201-.802.933 0 1.667.268 2.202.802M163.031 52.178c-.2 0-.38.008-.535.02a1.299 1.299 0 0 0-.44.12 1.752 1.752 0 0 0-.773.667c-.177.285-.266.669-.266 1.152v2.512l-1.096-.011v-5.283h1.085l.01.759c.146-.21.305-.376.474-.5.167-.122.377-.23.625-.324a1.67 1.67 0 0 1 .574-.12l.32-.01.023 1.018zM171.692 56.638l-.01-3.335c0-.418-.067-.732-.193-.941-.129-.209-.42-.303-.87-.282-.386.021-.693.155-.923.401-.228.245-.343.584-.343 1.017v3.151l-1.122-.011v-3.335c0-.418-.064-.732-.187-.941-.125-.209-.412-.303-.863-.282-.393.021-.705.155-.935.401-.228.245-.343.584-.343 1.017v3.151l-1.098-.011v-5.283h1.087l.011.574c.201-.195.45-.383.747-.563.298-.181.696-.249 1.194-.206.29.029.545.114.766.254.221.141.397.348.526.622.144-.158.384-.358.718-.6.332-.242.81-.334 1.43-.276.586.058.984.274 1.194.649.208.376.313.787.313 1.235v3.605l-1.099-.011zM179.028 53.953a.976.976 0 0 1-.248.125c-.108.039-.22.07-.332.092-.248.05-.563.092-.941.124-.377.033-.651.075-.82.124-.33.094-.585.208-.765.342-.181.133-.251.334-.213.6.04.268.194.446.459.536.266.09.544.128.833.115.659-.044 1.162-.22 1.507-.526.346-.307.52-.593.52-.861v-.671zm.203 2.685a1.04 1.04 0 0 1-.15-.341 1.99 1.99 0 0 1-.053-.352c-.216.21-.51.404-.876.585-.366.18-.786.28-1.26.303-.596.029-1.117-.065-1.57-.281-.448-.217-.711-.567-.782-1.051-.08-.498.022-.883.306-1.158a2.437 2.437 0 0 1 1.093-.584 4.968 4.968 0 0 1 1.122-.18 9.58 9.58 0 0 0 1.109-.113 8.64 8.64 0 0 0 .567-.13c.194-.05.29-.187.29-.411 0-.218-.112-.428-.338-.634-.225-.206-.612-.308-1.158-.308-.546 0-.943.095-1.194.287-.25.19-.355.424-.314.698H174.9c-.055-.592.183-1.043.718-1.354.534-.31 1.172-.465 1.912-.465.69 0 1.305.153 1.84.46.535.306.802.735.802 1.283v2.89c0 .232.04.432.122.602.079.17.124.26.13.276l-1.194-.022zM183.683 56.649c-.226 0-.416-.045-.567-.136a1.605 1.605 0 0 1-.386-.308 1.07 1.07 0 0 1-.212-.395c-.036-.134-.054-.341-.054-.622V52.22l-.748-.022v-.8l.748-.012v-1.645h1.097l.014 1.645.844.012.023.822h-.867v2.837c0 .137.002.252.011.346.01.094.065.184.17.27a.621.621 0 0 0 .336.13c.137.015.251.023.34.023l.023.822h-.772zM186.347 56.627V51.3h1.086l.026 5.327h-1.111zm0-6.377v-.996h1.086l.026 1.018-1.111-.022zM193.568 55.453c.34-.38.513-.868.513-1.467 0-.598-.172-1.082-.513-1.45-.341-.37-.79-.553-1.345-.553-.563 0-1.014.184-1.351.553-.338.368-.508.852-.508 1.45 0 .599.17 1.088.508 1.467.337.379.788.568 1.35.568.556 0 1.005-.19 1.346-.568m.856-3.502c.535.534.804 1.212.804 2.035 0 .823-.27 1.505-.804 2.046-.535.542-1.27.812-2.201.812-.933 0-1.667-.27-2.202-.812-.535-.541-.801-1.223-.801-2.046 0-.823.266-1.501.8-2.035.536-.534 1.27-.802 2.203-.802.932 0 1.666.268 2.2.802M201.114 56.638v-3.183c0-.469-.108-.807-.325-1.012-.22-.206-.551-.309-1.003-.309-.467 0-.858.145-1.176.433a1.377 1.377 0 0 0-.476 1.061v3.021l-1.098-.011v-5.283h1.086l.012.552c.25-.209.562-.399.934-.568.375-.17.83-.225 1.37-.168.644.072 1.103.31 1.38.715.278.403.418.789.418 1.158v3.605l-1.122-.011zM216.39 54.11a3.88 3.88 0 0 0 .15-1.131c0-.866-.228-1.564-.68-2.095-.455-.53-1.085-.795-1.889-.795s-1.429.265-1.876.795c-.445.53-.668 1.229-.668 2.095 0 .873.221 1.586.664 2.138.44.552 1.067.828 1.88.828a2.703 2.703 0 0 0 1.267-.324l-1-.77.603-.65 1.086.824a2.84 2.84 0 0 0 .462-.915m.345-3.892c.682.693 1.026 1.617 1.026 2.772 0 .578-.086 1.09-.256 1.537a3.901 3.901 0 0 1-.722 1.213l1 .747-.589.67-1.147-.843a4.03 4.03 0 0 1-.953.4 4.181 4.181 0 0 1-1.11.14c-1.157 0-2.075-.35-2.75-1.05-.676-.7-1.012-1.637-1.012-2.814 0-1.155.336-2.08 1.012-2.772.675-.693 1.593-1.04 2.75-1.04 1.151 0 2.068.347 2.751 1.04M223.766 56.649l.014-.65c-.18.224-.438.42-.78.59-.34.17-.74.255-1.2.255-.513 0-.994-.161-1.441-.482-.447-.321-.668-.82-.668-1.5l-.014-3.507h1.122v3.193c0 .47.125.815.375 1.035.248.22.598.319 1.048.297.45-.021.824-.162 1.117-.422.294-.26.44-.631.44-1.115l-.013-2.988h1.147v5.305l-1.147-.011zM231.137 53.953a.976.976 0 0 1-.248.125c-.108.039-.219.07-.332.092-.247.05-.562.092-.94.124-.377.033-.651.075-.82.124-.33.094-.585.208-.765.342-.181.133-.251.334-.212.6.04.268.194.446.458.536.266.09.544.128.833.115.659-.044 1.163-.22 1.508-.526.345-.307.519-.593.519-.861v-.671zm.203 2.685a1.017 1.017 0 0 1-.148-.341 1.993 1.993 0 0 1-.055-.352c-.216.21-.51.404-.876.585a3.15 3.15 0 0 1-1.259.303c-.596.029-1.118-.065-1.57-.281-.448-.217-.71-.567-.782-1.051-.08-.498.022-.883.306-1.158a2.437 2.437 0 0 1 1.093-.584 4.968 4.968 0 0 1 1.122-.18 9.597 9.597 0 0 0 1.11-.113c.184-.036.375-.08.566-.13.194-.05.29-.187.29-.411 0-.218-.111-.428-.338-.634-.225-.206-.611-.308-1.158-.308-.546 0-.943.095-1.193.287-.25.19-.356.424-.315.698h-1.122c-.055-.592.184-1.043.719-1.354.534-.31 1.17-.465 1.91-.465.692 0 1.307.153 1.842.46.535.306.802.735.802 1.283v2.89c0 .232.04.432.12.602.08.17.126.26.132.276l-1.195-.022zM234.48 56.638v-7.287h1.085l.012 7.298-1.098-.011zM237.904 56.627V51.3h1.086l.023 5.327h-1.109zm0-6.377v-.996h1.086l.023 1.018-1.109-.022zM242.646 56.649a1.1 1.1 0 0 1-.57-.136 1.66 1.66 0 0 1-.385-.308 1.083 1.083 0 0 1-.21-.395 2.647 2.647 0 0 1-.056-.622V52.22l-.746-.022v-.8l.746-.012v-1.645h1.098l.012 1.645.843.012.026.822h-.869v2.837c0 .137.004.252.013.346.006.094.063.184.17.27a.62.62 0 0 0 .336.13c.137.015.25.023.338.023l.024.822h-.77zM247.976 57.515c-.082.18-.187.333-.32.46-.13.125-.28.23-.442.308-.175.08-.349.128-.515.146-.17.018-.344.023-.52.017l-.387-.022v-.8l.567-.012a.71.71 0 0 0 .404-.135.672.672 0 0 0 .225-.277l.263-.606-2.375-5.25 1.133-.01 1.787 4.004 1.807-4.005 1.137.011-2.764 6.171zM265.057 56.595v-5.196l-.061-.012-2.076 5.208h-1.302l-2.073-5.208-.05.012v5.196h-1v-7.2h1.218l2.569 6.17 2.535-6.17h1.242v7.2h-1.002zM272.392 53.953a1.012 1.012 0 0 1-.248.125 2.27 2.27 0 0 1-.332.092 8.52 8.52 0 0 1-.943.124 4.765 4.765 0 0 0-.819.124c-.33.094-.584.208-.765.342-.18.133-.252.334-.213.6.041.268.195.446.46.536.264.09.544.128.833.115.66-.044 1.162-.22 1.507-.526.346-.307.52-.593.52-.861v-.671zm.203 2.685a.978.978 0 0 1-.148-.341 1.824 1.824 0 0 1-.055-.352c-.219.21-.51.404-.875.585-.367.18-.787.28-1.262.303-.595.029-1.117-.065-1.568-.281-.449-.217-.71-.567-.783-1.051-.082-.498.021-.883.306-1.158a2.438 2.438 0 0 1 1.092-.584 4.968 4.968 0 0 1 1.123-.18 9.585 9.585 0 0 0 1.108-.113c.185-.036.377-.08.568-.13.193-.05.291-.187.291-.411 0-.218-.113-.428-.338-.634-.226-.206-.613-.308-1.158-.308-.547 0-.947.095-1.195.287-.248.19-.356.424-.315.698h-1.12c-.058-.592.181-1.043.716-1.354.535-.31 1.172-.465 1.914-.465.69 0 1.303.153 1.838.46.535.306.803.735.803 1.283v2.89c0 .232.041.432.123.602.078.17.123.26.13.276l-1.195-.022zM279.808 56.638v-3.183c0-.469-.107-.807-.324-1.012-.217-.206-.55-.309-1.002-.309-.467 0-.86.145-1.176.433a1.376 1.376 0 0 0-.475 1.061v3.021l-1.1-.011v-5.283h1.085l.015.552a3.96 3.96 0 0 1 .934-.568c.373-.17.828-.225 1.367-.168.645.072 1.106.31 1.383.715.277.403.416.789.416 1.158v3.605l-1.123-.011zM287.168 53.953a.993.993 0 0 1-.246.125c-.111.039-.223.07-.332.092-.252.05-.565.092-.942.124-.378.033-.654.075-.82.124-.332.094-.586.208-.767.342-.182.133-.25.334-.21.6a.63.63 0 0 0 .458.536c.263.09.54.128.832.115.658-.044 1.162-.22 1.507-.526.344-.307.52-.593.52-.861v-.671zm.205 2.685a1.07 1.07 0 0 1-.152-.341 2.437 2.437 0 0 1-.053-.352c-.22.21-.508.404-.875.585-.365.18-.785.28-1.262.303-.593.029-1.117-.065-1.566-.281-.451-.217-.713-.567-.783-1.051-.082-.498.019-.883.306-1.158.285-.274.649-.47 1.09-.584a4.986 4.986 0 0 1 1.123-.18 9.702 9.702 0 0 0 1.112-.113 9.42 9.42 0 0 0 .566-.13c.19-.05.289-.187.289-.411 0-.218-.113-.428-.34-.634-.222-.206-.61-.308-1.156-.308-.55 0-.945.095-1.193.287-.252.19-.356.424-.315.698h-1.121c-.057-.592.182-1.043.717-1.354.535-.31 1.172-.465 1.912-.465.69 0 1.305.153 1.84.46.535.306.802.735.802 1.283v2.89c0 .232.04.432.12.602l.132.276-1.193-.022zM294.406 55.041c.346-.314.52-.756.52-1.327 0-.577-.174-1.01-.52-1.298-.346-.29-.793-.434-1.34-.434-.545 0-.988.144-1.328.434-.336.288-.506.721-.506 1.298 0 .571.17 1.013.506 1.327.34.314.783.471 1.328.471.547 0 .994-.157 1.34-.47m1.555 1.108c0 .86-.293 1.458-.88 1.798a3.76 3.76 0 0 1-1.917.51c-.869 0-1.545-.19-2.028-.57-.484-.379-.744-.803-.783-1.272h1.108c.025.245.174.471.447.676.273.207.695.31 1.268.31.57 0 .996-.125 1.273-.374.277-.25.414-.6.414-1.056v-.552a3.029 3.029 0 0 1-.887.552 2.77 2.77 0 0 1-1.064.206c-.783 0-1.453-.254-2.01-.764a2.46 2.46 0 0 1-.838-1.9c0-.764.266-1.39.801-1.878.535-.487 1.217-.73 2.047-.73.39 0 .754.063 1.082.19.33.125.621.3.87.524l.011-.509h1.076l.01 4.84zM302.56 53.53c-.025-.468-.193-.844-.508-1.125-.314-.281-.74-.422-1.277-.422-.5 0-.91.129-1.23.384-.323.257-.51.645-.567 1.164h3.582zm-3.607.759c.015.505.203.92.562 1.245.356.325.777.487 1.26.487.473 0 .832-.094 1.072-.281.242-.188.395-.372.46-.552h1.181c-.137.375-.412.736-.832 1.082-.418.347-1.04.52-1.869.52-.868 0-1.579-.265-2.13-.795-.55-.531-.826-1.201-.826-2.01 0-.814.266-1.482.795-2.002.532-.52 1.246-.78 2.15-.78.796 0 1.49.24 2.08.72.59.48.878 1.265.862 2.356l-4.765.01zM312.474 56.638l-.012-3.335c0-.418-.064-.732-.193-.941-.129-.209-.418-.303-.867-.282-.385.021-.696.155-.924.401-.23.245-.344.584-.344 1.017v3.151l-1.12-.011v-3.335c0-.418-.063-.732-.188-.941-.125-.209-.413-.303-.864-.282-.394.021-.705.155-.933.401-.23.245-.344.584-.344 1.017v3.151l-1.1-.011v-5.283h1.086l.014.574a4.12 4.12 0 0 1 .748-.563c.295-.181.695-.249 1.193-.206.29.029.545.114.766.254.221.141.394.348.523.622.145-.158.385-.358.72-.6.333-.242.81-.334 1.427-.276.588.058.988.274 1.195.649.211.376.315.787.315 1.235v3.605l-1.098-.011zM320.111 53.53c-.025-.468-.193-.844-.506-1.125-.314-.281-.74-.422-1.28-.422-.497 0-.907.129-1.232.384-.32.257-.509.645-.566 1.164h3.584zm-3.605.759c.015.505.201.92.558 1.245.36.325.78.487 1.26.487.476 0 .834-.094 1.074-.281.242-.188.393-.372.46-.552h1.181c-.137.375-.414.736-.832 1.082-.418.347-1.04.52-1.869.52-.87 0-1.579-.265-2.129-.795-.55-.531-.827-1.201-.827-2.01 0-.814.264-1.482.795-2.002.53-.52 1.246-.78 2.147-.78.797 0 1.49.24 2.082.72.592.48.88 1.265.861 2.356l-4.76.01zM327.215 56.638v-3.183c0-.469-.107-.807-.326-1.012-.217-.206-.551-.309-1-.309-.47 0-.858.145-1.178.433a1.376 1.376 0 0 0-.475 1.061v3.021l-1.097-.011v-5.283h1.086l.01.552c.25-.209.56-.399.935-.568.375-.17.83-.225 1.369-.168.643.072 1.104.31 1.38.715.278.403.419.789.419 1.158v3.605l-1.123-.011zM331.955 56.649a1.08 1.08 0 0 1-.566-.136 1.554 1.554 0 0 1-.387-.308 1.076 1.076 0 0 1-.21-.395c-.036-.134-.054-.341-.054-.622V52.22l-.75-.022v-.8l.75-.012v-1.645h1.098l.012 1.645.843.012.026.822h-.87v2.837c0 .137.004.252.01.346.01.094.067.184.17.27a.622.622 0 0 0 .34.13c.135.015.246.023.334.023l.027.822h-.773zM346.226 53.645c.258.357.354.752.29 1.185-.089.57-.392 1.063-.907 1.478-.514.415-1.266.623-2.254.623-1.094 0-1.902-.293-2.426-.878-.52-.584-.795-1.205-.818-1.862h1.168c.033.592.242 1.045.627 1.359.386.314.877.47 1.472.47.604 0 1.055-.118 1.358-.356.301-.24.492-.531.574-.877.062-.267.016-.487-.146-.661-.163-.173-.395-.328-.7-.465a3.155 3.155 0 0 0-1.164-.26 3.991 3.991 0 0 1-1.26-.26c-.548-.202-.962-.446-1.244-.73-.28-.286-.414-.684-.398-1.197.017-.491.27-.964.754-1.42.488-.453 1.21-.68 2.166-.68 1.142 0 1.924.289 2.346.866.423.578.634 1.086.634 1.526l-1.172-.011c0-.411-.146-.763-.439-1.055-.293-.293-.75-.44-1.369-.44-.578 0-1.002.13-1.274.386-.269.256-.404.532-.404.828 0 .318.107.548.315.693.21.144.431.257.664.336.29.093.67.168 1.14.222.47.054.93.175 1.381.362.465.188.828.46 1.086.818M352.572 53.53c-.027-.468-.193-.844-.508-1.125-.312-.281-.74-.422-1.279-.422-.496 0-.908.129-1.23.384-.32.257-.51.645-.567 1.164h3.584zm-3.607.759c.015.505.203.92.56 1.245.36.325.78.487 1.26.487.476 0 .834-.094 1.074-.281.242-.188.395-.372.46-.552h1.181c-.137.375-.414.736-.832 1.082-.418.347-1.04.52-1.869.52-.87 0-1.579-.265-2.129-.795-.55-.531-.827-1.201-.827-2.01 0-.814.264-1.482.795-2.002.53-.52 1.246-.78 2.147-.78.797 0 1.49.24 2.082.72.592.48.877 1.265.863 2.356l-4.765.01zM358.709 52.178c-.2 0-.377.008-.537.02a1.325 1.325 0 0 0-.44.12 1.76 1.76 0 0 0-.77.667c-.18.285-.267.669-.267 1.152v2.512l-1.095-.011v-5.283h1.086l.009.759c.145-.21.303-.376.47-.5a2.66 2.66 0 0 1 .628-.324 1.68 1.68 0 0 1 .574-.12l.32-.01.022 1.018zM363.498 56.595h-1.252l-2.256-5.196h1.084l1.797 4.233 1.81-4.233h1.073l-2.256 5.196zM367.53 56.627V51.3h1.085l.021 5.327h-1.107zm0-6.377v-.996h1.085l.021 1.018-1.107-.022zM376.236 54.949c-.145.498-.443.938-.898 1.321-.454.383-1.084.574-1.887.574-.934 0-1.666-.269-2.2-.807-.536-.538-.806-1.217-.806-2.041 0-.823.27-1.503.805-2.041.535-.537 1.267-.806 2.201-.806.81 0 1.455.204 1.93.612.474.408.76.835.855 1.283l-1.219.01c-.056-.223-.205-.449-.45-.676-.247-.227-.618-.342-1.116-.342-.547 0-.983.183-1.303.548-.322.364-.484.835-.484 1.412 0 .578.162 1.051.484 1.419.32.368.756.552 1.303.552.428 0 .773-.105 1.043-.314.27-.209.445-.448.523-.715l1.22.011zM382.426 53.53c-.025-.468-.193-.844-.508-1.125-.314-.281-.74-.422-1.277-.422-.5 0-.91.129-1.231.384-.324.257-.511.645-.566 1.164h3.582zm-3.607.759c.015.505.203.92.562 1.245.356.325.775.487 1.26.487.474 0 .832-.094 1.072-.281.24-.188.395-.372.457-.552h1.184c-.137.375-.412.736-.834 1.082-.416.347-1.04.52-1.87.52-.865 0-1.578-.265-2.128-.795-.551-.531-.826-1.201-.826-2.01 0-.814.267-1.482.796-2.002.532-.52 1.248-.78 2.149-.78.797 0 1.49.24 2.082.72.588.48.877 1.265.86 2.356l-4.764.01z"/><path fill="#fff" d="M73.743 58.607a5.152 5.152 0 0 0-5.152 5.152 5.152 5.152 0 1 0 10.305 0 5.152 5.152 0 0 0-5.153-5.152"/><path fill="#09d90b" d="M73.743 68.913a5.153 5.153 0 1 1 .002-10.306 5.153 5.153 0 0 1-.002 10.306m0-19.573c-7.965 0-14.419 6.455-14.419 14.419 0 7.963 6.454 14.42 14.42 14.42 7.962 0 14.42-6.457 14.42-14.42 0-7.964-6.458-14.42-14.42-14.42"/><path fill="#2725f5" d="M9.387 30.449h9.373v12.568h49.26a34.596 34.596 0 0 0 .118-16.452H45.292v12.579h-9.373V17.192h28.478C58.414 6.914 47.285 0 34.536 0 21.786 0 10.658 6.914 4.675 17.192h27.337v21.952h-9.373V26.565H.935A34.561 34.561 0 0 0 0 34.537c0 19.074 15.462 34.537 34.536 34.537 12.54 0 23.518-6.685 29.569-16.684H9.387V30.449z"/><path fill="#fff" d="M35.92 39.144h9.372V26.565h22.846a34.353 34.353 0 0 0-3.74-9.373H35.918v21.952zM22.639 39.144h9.373V17.192H4.675a34.288 34.288 0 0 0-3.74 9.373h21.704v12.58z"/><path fill="#fff" d="M18.76 43.017V30.45H9.387V52.39h54.718a34.337 34.337 0 0 0 3.915-9.373H18.76z"/></svg>