<svg xmlns="http://www.w3.org/2000/svg" width="890.87848pt" height="150.00002pt" viewBox="0 0 890.87848 150.00002"><path fill="#00ad6e" d="M-105.595 427.3c64.265 0 116.356-9.288 116.356-20.743 0-11.456-52.091-20.743-116.356-20.743-64.264 0-116.355 9.287-116.355 20.743 0 11.455 52.091 20.743 116.355 20.743" style="stroke-width:8.33734" transform="translate(255.133 -277.3)"/><path fill="#0069b4" d="M-152.715 323.52c-.65-.592-.117-1.384-.626-1.85-1.025-.826-1.776-1.626-2.818-2.343-.275-.125-.558-.142-.817-.275-.508-.459-1.034-.818-1.542-1.284-.792-.484-1.776-.559-2.552-1.151l-.291.083c-.91-.708-1.693-1.192-2.61-1.792-.859.042-1.35-.525-2.05-.584-.284-.016-.26-.233-.384-.35-.918-.6-2.043-.684-3.11-1.192-.142-.008-.292.083-.434.075l-.767-.7c-.408-.134-1.275.008-1.492-.542-.7-.05-1.25-.2-1.768-.559-.267-.125-.558-.042-.842-.058-.55-.15-.942-.4-1.509-.442-.433.075-.834-.059-1.234-.309a7.56 7.56 0 0 1-.425-.033c-.258-.125-.667-.267-.942-.384-.133-.016-.15.092-.292.075-.675-.258-1.35-.525-2.026-.792-.142-.008-.442.184-.583.167-.409-.133-.943-.392-1.368-.425-.433.075-.867.15-1.134.017-.125-.109-.408-.134-.533-.25-.142-.009-.576.058-.717.05-.684-.159-1.368-.317-2.076-.367-.55-.15-1.25-.209-1.784-.459-.142-.017-.292.083-.434.067-.133-.008-.267-.125-.392-.242l-.292.083c-.542-.25-1.209-.517-1.942-.358-.292.083-.684-.159-.96-.292-.274-.017-.558-.042-.85.042-1.142.125-2.067-.476-3.201-.459-.15.1-.55-.15-.684-.158-.842-.067-1.784-.459-2.668-.209-.517-.358-1.109-.191-1.667-.233l-.134-.117c-1.142.125-2.25-.067-3.384-.05-.3.084-.434.075-.717.05-.142-.017-.267-.125-.267-.125-.584.167-.967-.183-1.543-.125-.725.158-1.275.008-1.976-.042-.141-.008-.266-.125-.408-.133-.442.167-1.017.233-1.426.1-.967-.192-1.842-.042-2.81-.225-.141-.008-.45.175-.583.167-.942-.392-5.303-.626-6.07-.15-.292.083-.742.258-.992.025-1.067.558-2.184.466-3.485.683-.717.05-1.442.209-2.143.159-.283-.025-.583.166-.992.025-.141-.008-.275-.134-.408-.142-.742.258-1.46.317-2.31.35-.141-.008-.166.208-.325.3-.133-.017-.275-.025-.417-.033-.442.175-.717.05-1.142.125-1.434.1-2.876.3-4.319.508-.291.084-.542-.15-.825-.166-.725.158-1.467.417-2.335.558-.433.075-1.033.342-1.342.534-.9.458-2.05.583-2.56 1.284-1.317.325-2.617.542-3.943.967l-.167.2c-.141-.017-.433.067-.575.058-.442.176-.909.459-1.476.526-.291.083-.483.492-.783.575-1.16.225-2.752.525-2.743 1.584-.025.217.358.559.767.7.133.008.283.025.417.034.283.025.383.342.667.367.558.041 1.117.083 1.675.133.409.133.842.067 1.293-.117.291-.083.408.142.692.159.133.016.291-.075.291-.075.25.225.559.041.826.166.934.5 1.91.567 2.868.86.408.133.934.491 1.342.633.4.133.85-.042 1.117.083 1.043.717 2.285 1.026 2.877 1.918.7.058 1.384.325 1.892.784.125.116.434-.067.567-.059.425.034.217.542.5.567.693.159 1.06.617 1.443.959.25.233.825.175 1.092.3.534.25 1.084.4 1.617.659 0 0-.025.2.117.216.284.025.559.042.842.067.817.275 1.476.642 2.293.917.125.117.092.434.359.559.141.008.416.033.558.042.525.366.959.291 1.493.542l.116.225c.392.241.826.166 1.218.408.141.008.425.033.558.042.809.383 1.65.45 2.476.617.142.008.159-.092.292-.084.55.15.917.6 1.342.634.55.15.943.392 1.493.542.275.025.6-.275.842.067-.017.1-.042.316.1.325.575-.067 1.25.2 1.634.55.642.475 1.776.459 2.776.425 0 0 .1.325.242.334.826.175 1.36.433 2.21.492.416.033.642.475.925.5.142.008.308-.192.442-.175l.117.217c.817.275 1.642.45 2.6.733.143.008.434-.075.576-.058.55.15 1.21.517 1.801.35.567-.067 1.092.3 1.667.234.142.008.442-.176.584-.167.509.458 1.059.608 1.593.867.141.008.425.025.575-.067.433-.067.817.284 1.4.109.142.016.267.125.409.141.15-.091.434-.075.575-.058.676.258 1.376.317 2.21.483.133.017.408.142.533.25-.016.109-.025.217.109.226.592-.167 1-.034 1.559.016.141.008.15-.091.292-.083a1.3 1.3 0 0 1 .533.25c.267.133.575-.058.859-.033.684.158 1.359.417 2.076.367.142.008.267.133.408.141.142.008.15-.091.292-.083.125.117.259.233.384.35.283.017.583-.175.85-.042.4.242.809.376 1.226.409.283.025.717-.05.758-.367a.606.606 0 0 1 .267.134c-.2.408.225.441.634.575.142.016.417.033.575-.059.725-.158 1.36.426 1.96.15 1.517.334 3.06.45 4.593.676.542.15 1.142-.125 1.834.033.818.275 1.835.042 2.577-.217.141.008.417.025.7.05.725-.158 1.55.017 2.143-.15.433-.075.909-.467 1.475-.525 0 0 .134.117.267.125.017-.108.175-.192.175-.192.684.159 1.168-.333 1.743-.4a7.84 7.84 0 0 0 1.025-.242c.134.017.392.242.542.15.292-.083.484-.483.909-.458 1.117.092 2.043-.475 3.077-.826.291-.075.7.059.975.084.025-.217.2-.409.467-.284.684.159 1-.133 1.45-.316.117.225.41.141.55.15.443-.175.768-.467 1.21-.65l.283.024c.292-.083.459-.283.734-.258l.175-.2c.442-.175.85-.042 1.167-.334.334-.4.817-.892 1.534-.934.234-.733 1.126-1.083 1.626-1.684-.333-.767.033-1.484-.008-2.226-.092-.433-.325-.875-.258-1.4.008-.109-.117-.217-.242-.334" style="stroke-width:8.33734" transform="translate(255.133 -277.3)"/><path fill="#ed272d" d="M-106.59 295.593c.291.033.574.058.866.075.342-.275.676-.559 1.017-.85.576.15 1.343-.2 1.66.608-.008.642-.509 1.367.15 1.9 1.892.168 7.27 1.335 5.844-.908-1.75-.767-3.685-.884-5.494-1.417l-.5.425c-.434-.592-.384-1.5-1.018-1.96.175-.141.334-.283.5-.424-.241-.334-.475-.667-.716-1-1.643-.076-3.244-.268-4.57-1.268-.658.25-.55.842-.666 1.334.842.25 1.225 1.1 1.926 1.542-.059.892.266 1.543 1 1.943M-105.777 290.533c1.159.217 2.193.775 3.285 1.175.367-.633.884-.366 1.35-.366.192-1.251-1.3-1.018-1.434-1.985.259-.308.526-.558.926-.4.042-.508.333-1.084-.225-1.426l-.842-.05c-.692.142-.367 1.193-1.067 1.326-.417-.025-.85-.05-1.276-.083-.259-.242-.467-.509-.275-.942.167-.15.325-.3.5-.442-.242-.317-.475-.65-.7-.967-.6.058-1.226-.384-1.776.35l-.15.917c.433-.1.625.175.775.517-.05.675-.367.984-1 .85-.059.5-.359 1.067.2 1.4.567.05 1.142.084 1.709.126M-111.266 289.682c-.216.433-.066.567.35.483 2.26-.825 1.143-3.218.718-4.077-2.985-.725-.542 2.426-1.068 3.594" style="stroke-width:8.33734" transform="translate(255.133 -277.3)"/><path fill="#ed272d" d="M-101.116 294.175c.4.159.676-.083.926-.4.183-.442-.025-.717-.292-.967-.6.234-.625-.792-1.226-.567-.325.292-.667.575-.992.859.167.934.85 1.034 1.584 1.075M-97.04 292.503c.726.217 1.218-.117 1.685-.534.325-.6-.05-.975-.542-1.317-1.084.309-1.118-1.075-2.21-.767-.6.392-1.2.784-1.8 1.167.291 1.26 1.542 1.401 2.867 1.451M-111.974 292.997c.4.167.675-.083.925-.4.184-.442-.025-.708-.292-.959-.6.226-.625-.8-1.225-.575-.325.292-.667.584-.992.867.166.926.85 1.034 1.584 1.067" style="stroke-width:8.33734" transform="translate(255.133 -277.3)"/><path fill="#ed272d" d="M-120.542 297.379c.042.892 1.393.375 1.434 1.267-.083.617-.5 1.309.217 1.734.509.209.876-.083 1.226-.45-.042-.567.333-.842.775-1.076.509.209.867-.083 1.217-.458-.567-.575-1.125-1.16-1.992-1.326-.96.2-1.91-.725-2.877.309m-8.07-.234c-1.218.475-.876 1.443-1.21 2.201.334.417.676.826 1.018 1.243 1.025-.059 1.968-.409 2.868-.9.334.416.675.833 1.017 1.25.434.041.859.075 1.292.116.526-.341 1.043-.683 1.56-1.025.45-.942-.667-1.192-.893-1.826-1.4.067-2.584-.375-3.718-.892-.65-.058-1.292-.117-1.934-.167m-56.56-18.917c4.493-.65 8.745-.726 11.997-.926 6.186-.041 12.914.55 17.975 1.218.192.266.4.533.6.8.676.167 1.01-.525 1.534-.734.45.042 1.06-.133 1.16.426.75-.126 5.052.842 5.418.583.45-.092.61.142.734.434.609-.067 1.2.316 1.826-.342 2.26.267 13.04 2.026 14.857 2.284.634.55.692 1.634 1.718 1.818l1.575-1.226c.284.008.567.025.85.042.434.6.868 1.209 1.31 1.817.6-.058 1.217.359 1.792-.341.442-.1.617.158.759.483-.425.676.242 1.142.058 1.776-.35.275-.692.55-1.042.825.142.634.734.459 1.193.517.35-.275.692-.55 1.042-.825.442-.8-.417-1.426.025-2.226 1.35-.534 2.618-.3 3.91-.234.542.317.225.876.167 1.36-.917.558-.576 1.475-.86 2.2-.616-.091-1.183.676-1.8.334-.667.242-.575.817-.7 1.3.141.326.325.593.767.5.808-.925 2.026-.9 2.926-1.6-.033-.442.259-.667.6-.867.567.033 1.134.075 1.701.108.55.326.242.892.184 1.376-.659.25-.559.834-.676 1.326-.308.683-1.159.108-1.459.8.55.334.234.884.175 1.384-1.4.917-2.643-.033-3.985.133-2.868-1.3-6.086-1.684-9.146-2.46-.333.668-1.167.101-1.5.768-1.71-1.184-4.036-.425-5.97-.867-.367.183-.667.392-.659.8.225.309.442.609.659.917 3.668 1.15 7.979.7 11.372 2.66.909-.092 1.776.575 2.71-.217 3.226 1.276 6.778 1.668 10.121 2.693.567.342.259.9.2 1.41-.342.274-.692.55-1.034.825.567.35.25.908.192 1.4-.759.109-1.517.55-2.284.242-.726.108-.409 1.15-1.134 1.259-.475-.075-1.084.083-1.242-.584-1.368 1.143-2.802-.65-4.17.484.034.717 1.118.317 1.151 1.034 1.635.167 3.26.342 4.894.525.05.725 1.126.309 1.176 1.042.409.175.692-.058.967-.358.717.241 1.693-.217 2.151.7.917-.083 1.826.65 2.743-.167-.242-.342-.492-.683-.734-1.017.367-.825-.025-1.567-.066-2.343-.425-.316-.4-1.142-1.167-1.05-.042-.776-.142-1.96.225-2.785 2.45-.442 3.968 1.518 6.211 1.526-.067.467-.133.925-.208 1.4.166.342.366.634.808.542.776-.325.976-2.292 3.777-1.534.25.35 1.45 1.785-.258 1.893l-.876-.092c-.85.709-1.692 1.418-2.543 2.118 2.41.033 1.96 2.476.1 2.393.684.542.175 1.267.175 1.917-.416-.175-.692.059-.958.367-.634-.859-1.81-.6-2.543-1.242-.059-.467.242-.684.583-.875l1.343.15c.283-.717 1.184-.075 1.475-.792-.883-.61.326-1.826-.55-2.427-.759.084-1.542-.567-2.276.234-.108.5.008 1.117-.667 1.342-.483-.017-1.017-.3-1.4.325-.117.5.007 1.11-.676 1.326.309 1.367 1.668 1.926 2.251 3.093.625-.025 1.3.475 1.868-.25.133.175.258.342.383.517l.517-.417c.792 1.117 1.56 1.009 2.001 1.226.159-.159 1.326-.159 1.442-.342.017-.184.034-.367.05-.559.284.075.526-.4.818-.167 1.917.276 1.1 2.768.767 2.71-.142.292-.509.3-.476.792-1.525-.367-2.55.067-5.92-.959-.45-.625-1.316-.817-1.592-1.617-.5.508-1.359.283-1.542 1.009-2.643-.617-1.617-.75-1.617-1.393-.934-1.125-2.377-.5-3.527-.892-.534.409-1.059.809-1.6 1.21-1.868-.026-3.428-1.21-5.337-1.11-.583-.367-.25-.917-.183-1.4-.242-.334-2.368.517-3.427.958-1.867-.617-3.977-.575-5.678-1.575-.5-.034-1.025-.317-1.459.275-1.292-.784-3.118-.392-4.302-1.4-11.055-2.394-34.883-6.612-55.977-6.079-5.702.142-11.338 1.017-17.05 1.418-.408.175-.825.35-1.242.516-1.017-.075-2.042.025-3.076.267-1.117-.1-2.201-.258-3.027-.742-.283-.533-1.075-.667-1.142-1.475-.583-7.379 11.489-19.977 30.773-21.62" style="stroke-width:8.33734" transform="translate(255.133 -277.3)"/><path fill="#faa725" d="M-139.95 352.094c-1.734-1.059-3.91-1.7-6.094-2.343-.2-.275-.392-.55-.592-.825-.534-.175-1.259-.217-1.292-.7-2.268-.417-4.086-1.618-6.628-1.551-2.243-1.192-5.303-1.576-7.454-2.843-1.442.267-2.41-.509-3.627-.726-.091-.266-.241-.5-.775-.566-.517.375-1.36-.259-1.876.116-.734-.959-2.51-.908-3.685-1.442-4.069-.1-7.67-1.376-11.489-2.11-.125-.625-1.1-.616-1.71-.875-2.317.159-3.91-1.317-6.185-1.225-37.969-8.43-30.557-.117-29.898.241.625.2 1.259.409 1.892.609.3.534-.066 1.125.509 1.626 1.876.758 3.243 1.876 5.044 2.684.776.709 1.36 1.51 2.676 1.918.3.534 1.201.867 1.251 1.467l.967.3c.234 1.418 1.593 2.61 2.326 3.927-.15.2-.3.392-.45.584 1.793.942 1.242 2.351 2.101 3.477.725.35 1.209.892 2.234 1 .309.517 1.226.85 1.293 1.442.333.092.658.192.992.284.6.625.609 1.334.85 2 .917.134.642.693 1.042 1.001.5.142 1.001.284 1.493.417.275.434.55.859.825 1.284 1.993.584 3.986 1.176 6.228 1.36.809-.118 1.618-.16 2.443-.026-.092.667.584 1.167 1.134 1.693 1.834.533 3.869.85 5.328 1.767.491-.1.967-.2 1.45-.3.976.342 1.968.234 2.96.108.534.159 1.284.192 1.309.684 4.177 1.017 8.762.417 12.973 1.35 1.876-.083 3.743-.216 5.636-.216.725-.15 1.442-.292 2.15-.442.518.133 1.026.259 1.543.392 1.25-.217 2.527-.384 3.886-.325.958-.192 1.909-.392 2.86-.584.04-.6 1.475-.65 1.517-1.242.767-.334 1.792-.125 2.643-.3.15-.509 1.117-.35 1.617-.567 1.642.108 3.118-.142 4.569-.45.717-.559.375-1.484 1.876-1.768.692-.425-.225-1.075.458-1.492.876.1.726-.65 1.601-.55.192-.267.392-.542.584-.818.908-.358-1.184-4.644-3.485-6.078-1.05.326-1.81-.275-2.71-.416-.292-.71-1.592-.592-2.31-.95" style="stroke-width:8.33734" transform="translate(255.133 -277.3)"/><path fill="#ed272d" d="M-97.77 294.848c1.066.325 1.383 1.651 2.35 2.118 1.626-.992 3.185.1 4.778-.083.175.358.383.658.817.558.692-.133.308-1.242.992-1.384-.275-.258-.492-.542-.334-1.009-1.234-.016-2.36-.366-3.31-1.234-.992.534-2.009.86-3.093.726-.725-.609-1.534-1-2.45-1.15-.326.208-.61.45-.551.916.267.175.533.359.8.542" style="stroke-width:8.33734" transform="translate(255.133 -277.3)"/><path fill="#2c292a" d="M76.33 400.786c-3.234 0-6.294-1.284-8.612-3.602-2.426-2.418-3.76-5.67-3.76-9.154 0-3.469 1.334-6.72 3.76-9.146 2.318-2.318 5.378-3.594 8.612-3.594 3.235 0 6.295 1.276 8.613 3.594 2.426 2.426 3.752 5.677 3.752 9.146 0 7.036-5.545 12.756-12.365 12.756m32.533-38.102v-35.258h-65.49v8.637h55.593v26.621H76.197v-16.616h-9.896v16.616H39.846v8.58h22.328c-5.195 4.085-8.288 10.08-8.288 16.632 0 5.711 2.251 11.106 6.337 15.191 4.268 4.26 9.988 6.62 16.107 6.62 6.12 0 11.84-2.36 16.108-6.62 4.085-4.085 6.337-9.48 6.337-15.19 0-6.554-3.094-12.548-8.28-16.634h22.845v-8.579zM452.022 357.895v-30.464h-64.448v8.604h54.576v21.86h-57.952v8.571h73.343v-8.57zM625.4 343.704v-17.817h-9.897v31.466h-42.92v-21.678h34.157v-8.245h-44.054v38.502h52.817v21.893h9.896v-35.55h10.347v-8.57zM126.463 371.623v8.57h29.89v27.447h9.904v-27.447h29.89v-8.57zM140.144 336.061h42.362v19.16h-42.362zm52.208-8.637h-62.105V363.8h62.105ZM442.155 397.933h-40.594v-15.874h40.594zm-50.507 8.404h60.37v-32.84h-60.37zM231.032 397.714v-21.251h-9.896v29.872h59.787v-8.62zM321.123 397.714v-23.886h-9.896v32.507h55.426v-8.62zM579.363 397.714V374.37h-9.896v31.965h57.294v-8.62z" style="stroke-width:8.33734" transform="translate(255.133 -277.3)"/><path fill="#2c292a" d="M229.38 336.435c2.243-2.234 5.261-3.477 8.505-3.477 3.243 0 6.253 1.243 8.504 3.477 2.092 2.1 3.251 4.86 3.251 7.77 0 6.195-5.269 11.24-11.755 11.24-3.244 0-6.262-1.235-8.504-3.478-2.101-2.1-3.26-4.86-3.26-7.762 0-2.91 1.159-5.67 3.26-7.77m6.478 46.872h9.896V367.6H270.5v4.977h-16.274v8.58H270.5v6.67h9.897v-61.939H270.5v33.141h-17.942c4.503-3.743 7.07-9.03 7.07-14.69 0-5.07-2.05-9.922-5.777-13.648-4.11-4.102-9.93-6.454-15.966-6.454-11.998 0-21.744 9.021-21.744 20.102 0 5.66 2.56 10.947 7.07 14.69h-12.398v8.57h25.046zM509.937 400.786c-3.235 0-6.295-1.284-8.612-3.602-2.426-2.418-3.76-5.67-3.76-9.154 0-3.469 1.334-6.72 3.76-9.146 2.317-2.318 5.377-3.594 8.612-3.594 3.235 0 6.295 1.276 8.613 3.594 2.417 2.426 3.76 5.677 3.76 9.146 0 7.036-5.553 12.756-12.373 12.756m32.54-38.102v-35.258H476.98v8.637h55.593v26.621h-22.77v-16.616h-9.896v16.616h-26.454v8.58h22.327c-5.194 4.085-8.287 10.08-8.287 16.632 0 5.711 2.243 11.106 6.336 15.191 4.27 4.26 9.989 6.62 16.108 6.62 6.12 0 11.84-2.36 16.1-6.62 4.093-4.085 6.344-9.48 6.344-15.19 0-6.554-3.093-12.548-8.287-16.634h22.853v-8.579zM342.673 341.91h13.373v7.936h-13.357c.25-1.292.384-2.61.384-3.927 0-1.333-.142-2.684-.4-4.01m-22.22 17.017c-3.243 0-6.32-1.293-8.662-3.627-2.468-2.476-3.835-5.803-3.835-9.38 0-3.56 1.367-6.886 3.835-9.362 2.343-2.343 5.42-3.635 8.663-3.635 3.243 0 6.328 1.292 8.662 3.635 2.476 2.476 3.844 5.802 3.844 9.362 0 7.179-5.611 13.007-12.506 13.007m18.475-.509h17.117v29.406h9.896v-61.93h-9.896v7.445h-17.192c-4.244-5.702-11.105-9.104-18.4-9.104-12.473 0-22.611 9.73-22.611 21.686 0 5.627 2.234 10.963 6.286 15.015 4.31 4.302 10.105 6.687 16.325 6.687 7.345 0 14.24-3.435 18.475-9.205" style="stroke-width:8.33734" transform="translate(255.133 -277.3)"/></svg>