<svg xmlns="http://www.w3.org/2000/svg" width="588.79095" height="100" viewBox="0 0 588.79093 100"><path fill="#231f20" d="M135.37 42.249v20.6h6.815V39.38c0-1.13-.345-2.032-1.053-2.7-.703-.68-1.604-1.015-2.715-1.015h-24.882v5.575h20.785c.694 0 1.05.334 1.05 1.009M237.71 36.674h-24.882v5.575h20.783c.702 0 1.05.33 1.05 1.008v23.155h6.819v-26.03c0-1.124-.355-2.027-1.055-2.7-.704-.674-1.603-1.008-2.715-1.008M246.152 84.506h6.76v-49.01h-6.76z" style="stroke-width:1.51622"/><path fill="#231f20" d="M153.076 35.495h-6.844v28.916999999999998H128.83V50.862h-6.875v13.552h-10.859v5.686h35.136v14.404h6.868V57.537c0-.674.337-1.007.996-1.007h3.83v-5.57h-4.85zM204.964 35.495h-6.845v12.699c0 .033-.012.059-.012.094v14.326h6.766v-8.358h.09v-4.13c.098-.398.325-.654.792-.654h2.767v-5.57h-3.558zM343.243 35.495h-6.844v49.00699999999999h6.844v-.08h.032V57.444c0-.669.333-1.01.988-1.01h3.83v-5.561h-4.85zM439.215 35.495h-6.846V70.33h-16.536v-5.875c2.784-.681 5.074-2.038 6.861-4.067 1.914-2.164 2.875-4.69 2.875-7.575a8.5 8.5 0 0 0-.664-3.293 10.8 10.8 0 0 0-1.754-2.839h3.452V40.45H416.2v-4.017h-7.728v4.017h-10.454v6.231h3.191c-.718.995-1.249 1.96-1.595 2.883a9 9 0 0 0-.618 3.25c0 2.854.935 5.357 2.832 7.527 1.753 2.017 4.016 3.395 6.803 4.114v5.875H397.35v6.435h35.02v7.739h6.846V56.798c.091-.423.326-.693.804-.693h3.663v-5.567h-4.467zM408.06 56.932c-1.17-1.107-1.753-2.473-1.753-4.12s.584-3.013 1.753-4.123c1.134-1.06 2.544-1.6 4.225-1.6 1.615 0 2.99.54 4.12 1.6 1.196 1.11 1.8 2.476 1.8 4.123s-.604 3.013-1.8 4.12q-1.696 1.701-4.12 1.702c-1.65 0-3.055-.568-4.225-1.702M454.796 77.92V67.737h-6.759V80.73c0 1.137.33 2.04 1.002 2.736.661.693 1.542 1.037 2.654 1.037h39.505v-5.674h-35.466q-.937-.002-.936-.91M464.662 47.712q1.434 7.807 5.844 11.361c2.932 2.357 7.01 3.412 12.22 3.142v-5.733c-7.502.305-11.773-4.35-12.798-13.952h11.58v-5.57h-33.474v5.57h11.364c-.335 4.085-1.482 7.373-3.44 9.848-2.254 2.852-5.301 4.216-9.143 4.104v5.733q7.204.352 11.78-3.483c3.05-2.544 5.065-6.227 6.067-11.02M484.386 69.367h6.815v-33.99h-6.815zM527.865 67.344c-2.39-1.61-5.341-2.426-8.848-2.426-3.573 0-6.625.839-9.175 2.532-2.766 1.802-4.151 4.238-4.151 7.32.039 3.04 1.466 5.477 4.262 7.32 2.515 1.604 5.52 2.412 9.064 2.412 3.583 0 6.58-.831 9.023-2.484q4.033-2.693 3.98-7.416c-.079-3.076-1.46-5.499-4.155-7.258m-4.43 10.922c-1.208.808-2.672 1.232-4.382 1.232-1.689 0-3.134-.376-4.364-1.126q-2.01-1.3-2.065-3.488-.111-2.26 1.95-3.652c1.237-.837 2.737-1.244 4.532-1.244q2.567 0 4.25 1.185c1.259.856 1.898 2.065 1.898 3.598 0 1.49-.61 2.656-1.819 3.495M505.69 47.929c-.066 3.149 1.26 5.669 3.972 7.534 2.468 1.693 5.48 2.544 9.053 2.544 3.572 0 6.591-.835 9.052-2.476 2.755-1.803 4.176-4.244 4.242-7.32.044-1.955-.621-3.653-1.99-5.12h6.328V37.57h-13.976v-3.653h-6.638v3.653h-14.808v5.522h6.594c-1.181 1.419-1.795 3.043-1.828 4.837m8.69-3.651c1.317-.787 2.822-1.186 4.502-1.186 1.752 0 3.231.399 4.394 1.186q1.982 1.357 1.982 3.739c0 1.582-.619 2.788-1.85 3.646q-1.828 1.269-4.41 1.27-2.864 0-4.846-1.352c-1.423-1.055-2.07-2.432-1.921-4.127.109-1.32.826-2.391 2.148-3.176M495.55 64.418h46.494v-5.626h-46.431zM550.997 55.967c2.51 1.808 5.6 2.718 9.256 2.718 3.685 0 6.795-.935 9.304-2.778q4.155-3.061 3.992-8.312c-.108-3.353-1.536-6.014-4.267-7.973-2.517-1.77-5.541-2.663-9.088-2.663q-5.321.002-9.09 2.708c-2.724 2.008-4.133 4.697-4.209 8.098-.07 3.428 1.3 6.16 4.102 8.202m4.882-12.412c1.174-.872 2.594-1.301 4.26-1.301 1.706 0 3.188.464 4.467 1.413 1.268.945 1.924 2.26 1.964 3.922.076 1.893-.56 3.37-1.888 4.441-1.182.981-2.674 1.473-4.488 1.473-1.84 0-3.393-.516-4.655-1.535-1.404-1.134-2.033-2.638-1.889-4.49q.225-2.447 2.229-3.923M580.754 69.6h6.76V35.613h-6.76v13.671h-6.148v5.627h6.148zM555.763 78.817c-.63 0-.945-.305-.945-.895v-9.008h-6.874v11.822c0 2.514 1.261 3.77 3.774 3.77h37.073v-5.69z" style="stroke-width:1.51622"/><path fill="#231f20" d="M557.703 72.18h6.815v-6.81h14.521v-5.734h-34.635v5.733h13.299zM201.212 66.39H161.7v5.686h35.466c.631 0 .936.305.936.904v11.522h6.765V70.157c0-1.116-.329-2.033-.997-2.725-.66-.693-1.553-1.041-2.658-1.041M165.63 48.44c-.114 3.787 1.213 6.798 3.986 9.048 2.516 2.076 5.596 3.104 9.257 3.104q5.149-.002 8.753-2.81c2.693-2.062 4.136-4.905 4.32-8.498.115-2.85-.534-5.066-1.932-6.643h4.875V37.13h-12.36v-3.663h-6.646v3.663h-13.856v5.511h5.65c-1.297 1.432-1.979 3.359-2.047 5.798m8.753-4.209c1.254-1.056 2.772-1.589 4.543-1.589 1.77 0 3.254.545 4.438 1.636 1.325 1.209 1.937 2.85 1.822 4.924-.104 2.027-.791 3.617-2.051 4.748-1.14.972-2.544 1.467-4.21 1.467-1.77 0-3.288-.545-4.542-1.644-1.404-1.24-2.107-2.837-2.107-4.805 0-1.994.703-3.577 2.107-4.737M256.698 60.761h18.668v3.377h-15.523v5.569h30.16c.559 0 .87.182.948.562v1.127h-31.108v9.346c0 1.125.326 2.029.973 2.73.648.687 1.52 1.03 2.63 1.03h34.192v-5.686h-30.091c-.596 0-.92-.168-.998-.503v-1.125h31.162v-9.402q-.001-1.677-1.025-2.663c-.692-.658-1.58-.985-2.692-.985h-11.807V60.76h18.668v-5.745h-44.157zM278.776 43.772c.108 1.993 1.734 9.825 20.524 9.825V48.91s-16.72.778-16.72-13.626h-7.613c0 14.404-16.715 13.626-16.715 13.626v4.688c18.794 0 20.415-7.832 20.524-9.825M325.797 58.416c-1.82-4.363-2.726-11.395-2.726-21.115h-7.419c0 9.682-.949 16.702-2.83 21.068-1.65 3.875-4.28 6.162-7.886 6.848v7.165c3.097-.46 5.869-1.567 8.345-3.356 2.719-1.922 4.726-4.418 6.031-7.519 1.268 3.122 3.135 5.633 5.609 7.52 2.441 1.817 5.361 2.931 8.758 3.355V65.17q-5.458-.986-7.882-6.754M383.309 68.588h-21.68v-3.616h-6.473v15.61c0 1.447.28 2.47.84 3.085q.74.78 2.372.78h28.248c1.046 0 1.825-.277 2.323-.83.585-.578.882-1.61.882-3.089V64.972h-6.512zm0 9.467h-21.68V74.66h21.68zM383.898 45.215h-8.668c-.566-2.28-1.768-4.162-3.62-5.647-2.257-1.763-4.983-2.637-8.19-2.637q-5.052.001-8.624 2.831c-2.643 2.1-3.988 4.884-4.018 8.367-.06 3.583 1.214 6.42 3.833 8.507 2.309 1.899 5.188 2.85 8.62 2.85 3.46 0 6.368-.988 8.718-2.945 1.72-1.436 2.768-3.248 3.28-5.348h8.67v7.54h5.978V35.596h-5.979zm-16.359 8.042c-1.175 1.056-2.588 1.59-4.257 1.59-1.74 0-3.2-.568-4.417-1.687q-1.96-1.893-1.862-5.031c.03-2.053.71-3.663 2.01-4.825 1.144-1.055 2.548-1.596 4.217-1.596 1.697 0 3.151.564 4.366 1.7 1.299 1.221 1.942 2.874 1.907 4.972-.03 2.058-.687 3.68-1.963 4.877" style="stroke-width:1.51622"/><path fill="#1c65a7" d="M62.843 53.674c0 9.122-7.393 16.517-16.516 16.517s-16.515-7.395-16.515-16.517c0-9.124 7.393-16.514 16.515-16.514s16.516 7.39 16.516 16.514" style="stroke-width:1.51622"/><path fill="#1c65a7" d="M85.891 29.56a35.7 35.7 0 0 1 3.936 16.346c0 19.732-15.984 35.73-35.727 35.73-19.729 0-35.73-15.998-35.73-35.73 0-19.746 16.001-35.744 35.73-35.744a35.5 35.5 0 0 1 16.329 3.951c-7.025-4.301-15.278-6.766-24.1-6.766C20.744 7.347 0 28.084 0 53.684 0 79.252 20.743 100 46.33 100c25.577 0 46.32-20.748 46.32-46.316a46.2 46.2 0 0 0-6.759-24.125" style="stroke-width:1.51622"/><path fill="#e8802c" d="M82.944 27.982c0 6.04-4.891 10.935-10.928 10.935s-10.929-4.894-10.929-10.935c0-6.039 4.892-10.927 10.93-10.927 6.036 0 10.927 4.888 10.927 10.927M100.007 7.593c0 4.196-3.407 7.595-7.606 7.595-4.19 0-7.59-3.4-7.59-7.595C84.81 3.4 88.21 0 92.4 0c4.199 0 7.606 3.4 7.606 7.593" style="stroke-width:1.51622"/><path fill="#231f20" d="M80.145 5.805c-.19-1.36-1.496-2.4-2.993-2.4-2.705 0-3.722 2.306-3.722 4.704 0 2.282 1.017 4.584 3.722 4.584 1.843 0 2.878-1.268 3.109-3.07h2.915c-.308 3.415-2.665 5.602-6.024 5.602-4.24 0-6.736-3.165-6.736-7.116 0-4.07 2.495-7.235 6.736-7.235 3.013 0 5.545 1.766 5.91 4.93zM111.918 1.2l-3.032 9.423h-.037L105.645 1.2h-4.242v13.699h2.82V5.286h.04l3.358 9.613h2.321l3.359-9.709h.038V14.9h2.82v-13.7ZM119.43 1.2h6.179c3.414 0 4.741 2.168 4.741 4.395 0 2.223-1.327 4.393-4.741 4.393h-3.167V14.9h-3.012zm3.012 6.448h2.342c1.401 0 2.647-.31 2.647-2.053 0-1.748-1.246-2.053-2.647-2.053h-2.342zM135.172 1.2l-5.2 13.699h3.05l1.077-3.05h5.12l1.037 3.05h3.127l-5.122-13.7zm1.495 3.38h.038l1.727 5.024h-3.548z" style="stroke-width:1.51622"/></svg>