<svg xmlns="http://www.w3.org/2000/svg" xml:space="preserve" width="269.12" height="192.49333" viewBox="0 0 269.12 192.49333"><defs><clipPath id="a" clipPathUnits="userSpaceOnUse"><path d="M0 3v1441h2018V3Z"/></clipPath></defs><g clip-path="url(#a)" transform="matrix(.13333 0 0 -.13333 0 192.493)"><path d="M1801.31 1399.79c0-24.22-19.66-43.9-43.87-43.9-24.25 0-43.89 19.68-43.89 43.9 0 24.21 19.64 43.86 43.89 43.86 24.21 0 43.87-19.65 43.87-43.86M1688.61 1399.79c0-24.22-19.63-43.9-43.88-43.9-24.21 0-43.88 19.68-43.88 43.9 0 24.21 19.67 43.86 43.88 43.86 24.25 0 43.88-19.65 43.88-43.86M1575.88 1399.79c0-24.22-19.66-43.9-43.91-43.9-24.26 0-43.88 19.68-43.88 43.9 0 24.21 19.62 43.86 43.88 43.86 24.25 0 43.91-19.65 43.91-43.86" style="fill:#3d3888;fill-opacity:1;fill-rule:nonzero;stroke:none"/><path d="M1575.88 1285.04c0-24.25-19.66-43.9-43.91-43.9-24.26 0-43.88 19.65-43.88 43.9 0 24.21 19.62 43.85 43.88 43.85 24.25 0 43.91-19.64 43.91-43.85" style="fill:#ef8023;fill-opacity:1;fill-rule:nonzero;stroke:none"/><path d="M1688.61 1285.04c0-24.25-19.63-43.9-43.88-43.9-24.22 0-43.88 19.65-43.88 43.9 0 24.21 19.66 43.85 43.88 43.85 24.25 0 43.88-19.64 43.88-43.85M1575.88 1170.25c0-24.24-19.66-43.87-43.91-43.87-24.26 0-43.88 19.63-43.88 43.87 0 24.25 19.62 43.88 43.88 43.88 24.25 0 43.91-19.63 43.91-43.88" style="fill:#3d3888;fill-opacity:1;fill-rule:nonzero;stroke:none"/><path d="M1688.61 1170.25c0-24.24-19.63-43.87-43.88-43.87-24.21 0-43.88 19.63-43.88 43.87 0 24.25 19.67 43.88 43.88 43.88 24.25 0 43.88-19.63 43.88-43.88" style="fill:#ef8023;fill-opacity:1;fill-rule:nonzero;stroke:none"/><path d="M1801.31 1285.04c0-24.25-19.66-43.9-43.87-43.9-24.25 0-43.89 19.65-43.89 43.9 0 24.21 19.64 43.85 43.89 43.85 24.21 0 43.87-19.64 43.87-43.85M1801.31 1170.25c0-24.24-19.66-43.87-43.87-43.87-24.25 0-43.89 19.63-43.89 43.87 0 24.25 19.64 43.88 43.89 43.88 24.21 0 43.87-19.63 43.87-43.88M668.75 845.637c-10.727 19.289-23.539 33.078-38.418 41.328-14.863 8.262-38.832 17.152-71.758 26.738-25.261 7.184-42.172 12.754-50.785 16.699-8.586 4.028-15.664 10.215-21.262 18.653-5.519 8.472-8.273 18.293-8.273 29.41 0 14.531 5.434 27.035 16.363 37.455 10.969 10.43 26.637 15.67 47.039 15.67 33.758 0 60.153-15.99 79.367-47.914v-14.473h.012l-.019-.058c0-4.223 3.039-7.602 6.777-7.672l.02-.024h32.417l.036.094c3.687.141 6.636 3.41 6.636 7.555 0 .105-.039.246-.039.347v103.445s.039.22.039.34c0 4.16-2.98 7.52-6.73 7.58l-.043.04h-32.207l-.051-.03v.03c-3.762 0-6.726-3.33-6.836-7.46l-.012-.03v-.11l-.007-.02.007-.02v-20.41c-25.625 21.45-53.371 32.2-83.269 32.2-31.508 0-57.734-10.38-78.606-31.16-20.843-20.8-31.273-48.64-31.273-83.434 0-22.453 4.781-41.918 14.332-58.328 9.574-16.406 22.41-29.058 38.52-37.926 16.086-8.816 40.859-18.23 74.261-28.152 28.797-8.578 48.375-17.187 58.746-25.848 10.36-8.695 15.567-22.898 15.567-42.625 0-20.324-6.363-36.793-19.059-49.316-12.648-12.555-28.199-18.859-46.605-18.859-36.11 0-65.34 22.574-87.657 67.707v22.504h-.058c-.031 4.054-2.879 7.222-6.465 7.441l-.023.043H436.223c-3.743 0-6.703-3.293-6.821-7.449l-.015-.035V671.32l.015-.058-.007-.16c0-4.2 3.062-7.602 6.828-7.602H469.18c3.758 0 6.789 3.402 6.789 7.602l-.047.183.058.035v26.36c27.204-27.239 57.786-40.899 91.825-40.899 33.117 0 60.906 11.547 83.363 34.594 22.48 23.094 33.734 52.336 33.734 87.754 0 25.027-5.351 47.223-16.152 66.508M976.527 1071.53c-.14 4.02-3.066 7.27-6.765 7.32H693.457c-3.684 0-6.684-3.3-6.777-7.4l-.059-.06v-95.816l.024-.023v-.047c0-4.121 2.968-7.484 6.671-7.559l.106-.109h32.969l.086.078c3.64.07 6.632 3.367 6.707 7.426l.035.023v51.717h70.222V715.734h-41.152l-.016-.007c-.007 0-.015.007-.043.007-3.785 0-6.843-3.386-6.843-7.609l.008-.129-.09-.058v-36.313l.09-.07c.058-4.11 3.003-7.418 6.695-7.5l.023-.067H901.82v.032c3.809 0 6.871 3.425 6.871 7.605 0 0-.058.102-.058.184v36.129l.058.187c0 4.129-3.003 7.516-6.742 7.59l-.047.019h-42.101v311.346h70.215v-51.529l.007-.012v-.035c0-4.121 2.969-7.484 6.688-7.559l.113-.109h33.043l.113.109c3.649.118 6.606 3.438 6.606 7.512v96.003l-.059.07" style="fill:#3d3888;fill-opacity:1;fill-rule:nonzero;stroke:none"/><path d="M1184.99 925.023c-.1 4.106-3.1 7.45-6.86 7.45l-.01-.012v.012H932.266l-.059-.059c-3.715-.059-6.711-3.41-6.711-7.566V888.391c0-4.235 3.09-7.645 6.84-7.645l.125.008.035-.055h29.07V569.344h-29.117l-.031-.008c-.051 0-.059.008-.059.008-3.773 0-6.863-3.414-6.863-7.602v-36.535c0-4.199 3.09-7.613 6.84-7.613h245.884c3.75.058 6.77 3.449 6.77 7.613v99.297c-.1 4.121-3.1 7.465-6.86 7.465l-.01-.039v.039h-32.88v-.039s-.03.039-.08.039c-3.75 0-6.79-3.403-6.79-7.633 0-.121.03-.227.03-.387v-54.605h-127.14v136.09h99.25c3.8 0 6.85 3.421 6.85 7.636V749.797l-.06.035c-.11 4.004-2.99 7.164-6.59 7.305l-.06.054h-99.39v123.508h127.14v-52.051c0-.14-.03-.265-.03-.41 0-4.164 3-7.527 6.73-7.578l.02-.019h33.2l.06.035c3.65.152 6.61 3.433 6.61 7.562v96.785" style="fill:#3d3888;fill-opacity:1;fill-rule:nonzero;stroke:none"/><path d="M1428.47 1104.5c-13.18 21.77-29.56 35.72-49.07 41.92-19.58 6.14-48.98 9.26-88.27 9.26h-101.96c-3.82 0-6.83-3.39-6.83-7.6v-36.55c0-4.17 3.01-7.6 6.83-7.6.04 0 .09.04.11.04l.08-.05h28.26V792.531h-28.45c-3.82 0-6.83-3.355-6.83-7.578v-36.512c0-4.105 3-7.488 6.68-7.562l.04-.063H1303l.02.02h.16c3.77 0 6.83 3.406 6.83 7.605v.032l.05.074v36.348l-.05.058c0 4.223-3.06 7.578-6.83 7.578h-29.16v106.844h12.92c32.44 0 56.68 1.574 72.71 4.617 16.03 3.11 30.49 9.145 43.28 18.082 12.82 8.946 23.6 22.852 32.28 41.614 8.67 18.781 13.05 40.032 13.05 63.672 0 29.68-6.61 55.36-19.79 77.14zm-58.58-137.539c-14.22-11.66-39.65-17.484-76.47-17.484h-19.4v154.443h22.1c26.01 0 44.57-1.71 55.73-5.1 11.07-3.36 20.46-11.27 27.95-23.55 7.58-12.35 11.31-27.91 11.31-46.63 0-29.472-7.06-50.05-21.22-61.679M1603.39 1070.55c-.16 4.06-3.12 7.28-6.8 7.28H1472.77c-3.73 0-6.7-3.22-6.87-7.28l-.01-.07v-36.74c0-4.14 2.99-7.51 6.73-7.58l.04-.05h33.81V714.738H1472.75c-3.71 0-6.68-3.246-6.82-7.308l-.04-.075v-36.484l.01-.074-.01-.09c0-4.316 3.04-7.707 6.86-7.707h123.81c3.73 0 6.72 3.285 6.83 7.383v36.746c0 4.152-2.96 7.508-6.67 7.586l-.07.023h-33.78v311.372h33.78l.07.05c3.71.11 6.67 3.44 6.67 7.58v36.81M671.406 375.551c0 1.019-.836 1.847-1.812 1.847-.09 0-.125-.019-.184-.019h-21.691c-.074 0-.106.019-.153.019a1.839 1.839 0 0 1-1.836-1.847l.028-.02v-232.59l-.028-.031c0-1.031.817-1.801 1.836-1.801.028 0 .036.012.047.012h21.891c.047 0 .066-.012.09-.012.976 0 1.812.77 1.812 1.801v232.621zm-296.558-89.75c0-21.09-17.082-38.211-38.168-38.211-21.106 0-38.16 17.121-38.16 38.211 0 21.051 17.054 38.16 38.16 38.16 21.086 0 38.168-17.109 38.168-38.16zm104.336 26.898c-.047 0-.075.063-.129.063-.024 0-.055-.063-.137-.063h-30.633v63.063l.039.027c0 .992-.801 1.813-1.824 1.813h-22.004c-.996 0-1.836-.821-1.836-1.813v-12.738h-74.726v27.008c0 .992-.825 1.8-1.856 1.8h-21.914l-.008-.007c-.023 0-.023.007-.093.007a1.786 1.786 0 0 1-1.778-1.8c0-.071.024-.098.024-.188v-26.82h-65.731c-.976 0-1.754-.699-1.777-1.672h-.035V339.25c0-1.039.836-1.828 1.812-1.828l.059.019h41.996c-15.828-11.679-26.121-30.472-26.121-51.64 0-35.442 28.734-64.192 64.168-64.192 35.394 0 64.156 28.75 64.156 64.192 0 21.168-10.262 39.961-26.113 51.64h47.937v-125.57H264.164l-.023-.051c-.02 0-.02.012-.114.012-.953 0-1.718-.762-1.777-1.723V188c0-.988.793-1.789 1.777-1.789.02 0 .094.008.094.008H422.66V142.41l.016-.019c.078-.942.859-1.711 1.82-1.711h22.098l.011.039c.961.051 1.719.82 1.719 1.761l-.039.09v144.5h30.899l.078.039c.894.102 1.636.832 1.636 1.813h-.007l.023.008v22h-.016c0 .941-.777 1.699-1.714 1.769zm423.671-23.64c0 1-.8 1.8-1.82 1.8-.051 0-.074-.027-.129-.027H691.039s-.031.027-.109.027c-1.004 0-1.828-.8-1.828-1.8h.015l-.015-.047v-22.114l.058-.027c.039-.941.852-1.66 1.77-1.66v-.012h91.59V246.52h-68.907c-.996 0-1.832-.758-1.832-1.809l.059-.012h-.059v-21.898h.059l-.059-.063a1.84 1.84 0 0 1 1.832-1.84H867.98V209.02H714.16l-.012-.02c-.046 0-.054.02-.054.02a1.813 1.813 0 0 1-1.824-1.782l-.024-.027.082-62.992c-.039-.02-.082-.11-.082-.11 0-1.089.836-1.91 1.848-1.91h.008l.058-.008h178.067l.007.008c1.012.012 1.789.821 1.789 1.852V166.129c-.082.953-.843 1.742-1.812 1.742-.023 0-.066-.019-.102-.019H737.82v15.539h153.942c.019 0 .019-.032.054-.032 1 0 1.813.813 1.813 1.832v59.649c-.094.89-.754 1.551-1.578 1.66l-.071.02h-83.8v18.679h92.925l.055.012c.918.07 1.695.848 1.695 1.801 0 .097-.058.16-.058.16v21.629c0 .121.058.168.058.258zm-295.292 70.273c0 1.02-.825 1.828-1.821 1.828l-.051-.019H476.094c-.02 0-.02.019-.035.019a1.823 1.823 0 0 1-1.829-1.828l.032-.082-.09-.07v-21.782l.09-.039-.032-.05c0-.981.821-1.789 1.829-1.789h105.843V223.199l.036-.039-.036-.07c0-.981.836-1.801 1.825-1.801.058 0 .066.02.125.02h21.796c.043 0 .043-.02.094-.02.024 0 .094.02.094.02h.031l.035.019c.93.043 1.661.801 1.661 1.762v.07zm113.675-58.711h.047c.301-.43.84-.73 1.371-.73.395 0 .742.168 1.02.39h.086l71.359 54.059 73.184-54.211c.312-.348.793-.527 1.312-.527.578 0 1.09.277 1.403.687h.07l13.558 17.43c.407.332.649.82.649 1.359 0 .613-.352 1.141-.824 1.461l-88.102 65.813h-.078a1.781 1.781 0 0 1-1.148.449c-.411 0-.719-.153-1.036-.379h-.054l-86.16-65.59c-.5-.332-.86-.883-.86-1.531 0-.531.254-.981.637-1.281zm-468.175 9.981c0 .988-.801 1.757-1.778 1.808l-.012.02h-27.878v62.968s.011.051.011.133c0 .989-.754 1.789-1.742 1.789l-.008.059h-21.984l-.031-.059h-.047c-1 0-1.813-.8-1.813-1.789 0-.019.028-.031.028-.031l-.028-.051V229.238h-38.207v130.114c-.035.968-.773 1.699-1.726 1.769l-.059.02H33.668v-.02a1.764 1.764 0 0 1-1.79-1.742l-.058-.027v-21.903l.059-.051-.023-.148c0-.969.816-1.762 1.812-1.762a.2.2 0 0 1 .125.032h100.172V229.238h-46.89v85.922a1.82 1.82 0 0 1-1.74 1.828l-.058.071H63.32l-.023-.071h-.043a1.792 1.792 0 0 1-1.813-1.816s0-.063.024-.082v-85.852H17.187c-.035 0-.101.051-.152.051-1.02 0-1.828-.859-1.828-1.84 0-.051.031-.129.031-.129v-21.808c0-.063-.031-.09-.031-.09 0-1.051.809-1.852 1.828-1.852H197.781v-60.711h.028c.007-.98.8-1.738 1.785-1.738 0 0 .019.02.047.02l.031-.02h21.984l.008.02c.953 0 1.688.738 1.731 1.648l.011.133c0 .066-.011.098-.011.098v143.742H251.25c1.012 0 1.813.84 1.813 1.808 0 .078-.028.09-.028.09v21.809c0 .062.028.07.028.133zM2014.95 165.52l-.04.039c-.06.961-.77 1.711-1.72 1.73v.012h-142.37v51.937l-.04.071a1.795 1.795 0 0 1-1.79 1.679c-.06 0-.11-.047-.11-.047h-21.8s-.09.047-.12.047c-1.04 0-1.79-.816-1.79-1.816 0-.082 0-.192.04-.25V143.73c-.04-.089-.04-.191-.04-.191 0-1.078.75-1.867 1.79-1.867.03 0 .12.019.16.019h166c.97 0 1.79.789 1.79 1.758v.063l.04.097zm-210.58 96.652c0 1.008-.78 1.816-1.76 1.859l-.06.008h-25.61v95.941c0 .11.01.141.01.231 0 .949-.72 1.711-1.69 1.769l-.03.051-167.86.028-.01-.028c-.95-.051-1.77-.812-1.77-1.793l.09-22.09a1.75 1.75 0 0 1 1.58-1.707l144.04-.019v-72.383h-164.07l-.05-.051s-.04.043-.09.043c-1.02 0-1.8-.84-1.8-1.859v-21.91l.01-.063-.01-.039c0-.988.78-1.789 1.8-1.789.05 0 .09.02.15.02h96.45v-94.942l.05-.027c.05-.953.82-1.692 1.78-1.731H1707.59c.98 0 1.83.778 1.83 1.758 0 .102-.04.192-.06.223v94.719h93.04s.12-.02.15-.02c.95 0 1.76.719 1.79 1.68l.06.027v22.031l-.03.02zm-404.24 48.937c0 20.77 16.82 37.61 37.58 37.61 20.8 0 37.61-16.84 37.61-37.61 0-20.769-16.81-37.57-37.61-37.57-20.76 0-37.58 16.801-37.58 37.57zm100.35 16.2h47.97v-32.778h-48.07c1.39 5.297 2.24 10.86 2.24 16.578 0 5.61-.78 11-2.14 16.2zm-13.8-58.438h61.77v-80.492c0-1.027.79-1.82 1.8-1.82l.03-.039h21.94l.05.039h.03c.98 0 1.78.793 1.78 1.82V375.84c-.02.969-.8 1.762-1.78 1.762h-22.02c-1.04 0-1.83-.821-1.83-1.813v-22.828h-61.4c-11.76 13.73-29.2 22.437-48.72 22.437-35.49 0-64.28-28.777-64.28-64.289 0-35.48 28.79-64.289 64.28-64.289 19.3 0 36.6 8.559 48.35 22.051zm-149.12-27.633h-20.5v54.782h20.5zm25.62 134.66v.09c0 .981-.77 1.793-1.75 1.832l-.01.008h-21.98v-.008h-.06c-1 0-1.82-.832-1.82-1.832V321.648h-20.5v54.973l-.07.109c-.06.872-.79 1.602-1.71 1.661l-.06.019h-21v-.012h-.06c-1.01 0-1.83-.808-1.83-1.796 0-.082.08-.204.09-.293V241.238h-27.31c.29.121.59.262.85.473l16.31 14.84c.44.289.74.808.74 1.418 0 .48-.2.922-.55 1.301l-70.71 78.171h71.23l.03.071c.9.097 1.59.789 1.66 1.648l.02.09v22.078l-.02.043c-.03.949-.84 1.75-1.81 1.75-.07 0-.1-.07-.16-.07h-61.33v26.07s.75 2.418-2.08 2.418h-20.6c-2.01 0-1.97-2.219-1.97-2.219v-26.269h-60.83c-.04 0-.09.07-.13.07-.97 0-1.72-.769-1.82-1.699V339.109l.04-.058c.09-.879.83-1.602 1.78-1.602h.01l.02-.008h69.58l-69.33-77.339c-.39-.364-.65-.832-.65-1.403 0-.558.27-1.058.71-1.347l16.1-14.961c.34-.391.8-.621 1.34-.621.6 0 1.09.3 1.42.761l53.88 59.16 54.42-59.871h.05c.19-.289.51-.461.85-.582h-88.43c-.98 0-1.78-.738-1.81-1.718l-.04-.02v-22.16h.05c.04-.949.82-1.731 1.8-1.731H1337.97v-72.41l.06-.019c0-.989.82-1.77 1.81-1.77.03 0 .05.012.07.012h21.85c.05 0 .06-.012.07-.012 1.04 0 1.82.781 1.82 1.789 0 0 0 .09-.01.172zm211.44-210.386c0 .929-.74 1.668-1.65 1.769l-.1.02h-110.93v51.679c0 .09.01.122.01.211 0 1-.82 1.821-1.81 1.821-.1 0-.17-.071-.19-.071h-21.62c-.1 0-.17.071-.21.071-1 0-1.79-.821-1.79-1.793l-.07-.008v-75.762l.07-.027c.06-.922.76-1.641 1.68-1.692l.01-.039h134.85l.1.039c.91.059 1.65.84 1.65 1.782 0 .097-.01.136-.04.226v21.524c.03.078.04.129.04.25zm284.28 150.097c0 21.129 17.1 38.192 38.16 38.192 21.07 0 38.14-17.063 38.14-38.192 0-21.078-17.07-38.168-38.14-38.168-21.06 0-38.16 17.09-38.16 38.168zm26.93-123.968-.05-.172c0-.989.8-1.848 1.82-1.848v.008-.008h22.06v.008a1.84 1.84 0 0 1 1.76 1.84v.031l.04.012v46.84h77.5v-49.973l.02-.059v-.031c0-1.008.84-1.801 1.83-1.801.03 0 .09.032.11.032h21.83s.06-.032.11-.032c1.01 0 1.81.793 1.81 1.801 0 .109-.01.199-.06.262v186.98c.05.078.06.149.06.231 0 1.008-.8 1.828-1.81 1.84h-22.05c-.94 0-1.7-.723-1.77-1.641l-.08-.031v-70.239h-23.81l-.05-.019s-.01.019-.05.019c-.97 0-1.75-.793-1.75-1.75h-.08v-22.222l.08-.028c0-.961.78-1.722 1.75-1.722.1 0 .17.011.26.062h23.65v-16.062h-53.83c15.85 11.66 26.04 30.453 26.04 51.64 0 35.43-28.68 64.18-64.11 64.18-35.41 0-64.12-28.75-64.12-64.18 0-21.187 10.26-39.98 26.09-51.64h-38.78l-.03-.039-.08.011c-1 0-1.81-.839-1.81-1.832l.04-.058v-21.852l-.04-.051c0-1.07.81-1.839 1.81-1.839.08 0 .15.043.25.043h65.44zm-834.12-45.809c-21.56 0-39.02 17.43-39.02 38.957 0 21.563 17.46 38.992 39.02 38.992 21.5 0 38.92-17.429 38.92-38.992 0-21.527-17.42-38.957-38.92-38.957zm63.46 231.996c-1.49 0-20.8.024-22.28.024-1.49 0-1.91-1.672-1.91-1.672v-54.532h-34.37l-.03-.019c-1.01-.027-1.76-.82-1.76-1.84l.01-.098v-21.73l-.01-.109c0-.993.73-1.731 1.7-1.793l.09-.039h34.37v-59.508c-5.72 4.398-12.23 7.777-19.3 10.047l9.3 9.25c.42.363.7.851.7 1.402 0 .551-.22.988-.55 1.32v.039l-80.11 78.871h79.1l.04.008c.97 0 1.72.762 1.78 1.711l.04.09v22.012l-.04.027c0 .922-.69 1.723-1.65 1.762-.05 0-.1.07-.13.07-.1 0-.12-.07-.19-.07H916.605c-.019 0-.113.07-.16.07a1.774 1.774 0 0 1-1.789-1.75l-.043-.043v-21.906l.055-.024c-.012-.027-.055-.097-.055-.128 0-.969.821-1.821 1.832-1.821h.035l.012-.008h77.469l-78.535-79.421a1.684 1.684 0 0 1-.664-1.348c0-.481.211-.891.519-1.211v-.02l15.36-15.121c.343-.308.8-.55 1.347-.55.473 0 .895.16 1.25.5h.059l64.262 64.621 56.171-55.231c-.71.051-1.38.102-2.02.102-35.91 0-64.991-29.09-64.991-64.973 0-35.859 29.081-64.937 64.991-64.937 35.78 0 64.8 28.957 64.91 64.769v-.012s.01 191.481 0 191.5c0 0 .04 1.719-1.45 1.719M1801.14 1397.43c0-24.24-19.65-43.9-43.85-43.9-24.25 0-43.89 19.66-43.89 43.9 0 24.2 19.64 43.82 43.89 43.82 24.2 0 43.85-19.62 43.85-43.82M1688.47 1397.43c0-24.24-19.61-43.9-43.87-43.9-24.19 0-43.85 19.66-43.85 43.9 0 24.2 19.66 43.82 43.85 43.82 24.26 0 43.87-19.62 43.87-43.82M1575.79 1397.43c0-24.24-19.66-43.9-43.9-43.9-24.23 0-43.87 19.66-43.87 43.9 0 24.2 19.64 43.82 43.87 43.82 24.24 0 43.9-19.62 43.9-43.82" style="fill:#3d3888;fill-opacity:1;fill-rule:nonzero;stroke:none"/><path d="M1575.79 1282.69c0-24.24-19.66-43.87-43.9-43.87-24.23 0-43.87 19.63-43.87 43.87 0 24.21 19.64 43.86 43.87 43.86 24.24 0 43.9-19.65 43.9-43.86" style="fill:#ef8023;fill-opacity:1;fill-rule:nonzero;stroke:none"/><path d="M1688.47 1282.69c0-24.24-19.61-43.87-43.87-43.87-24.21 0-43.85 19.63-43.85 43.87 0 24.21 19.64 43.86 43.85 43.86 24.26 0 43.87-19.65 43.87-43.86M1575.79 1167.93c0-24.22-19.66-43.82-43.9-43.82-24.23 0-43.87 19.6-43.87 43.82 0 24.26 19.64 43.87 43.87 43.87 24.24 0 43.9-19.61 43.9-43.87" style="fill:#3d3888;fill-opacity:1;fill-rule:nonzero;stroke:none"/><path d="M1688.47 1167.93c0-24.22-19.61-43.82-43.87-43.82-24.19 0-43.85 19.6-43.85 43.82 0 24.26 19.66 43.87 43.85 43.87 24.26 0 43.87-19.61 43.87-43.87" style="fill:#ef8023;fill-opacity:1;fill-rule:nonzero;stroke:none"/><path d="M1801.14 1282.69c0-24.24-19.65-43.87-43.85-43.87-24.25 0-43.89 19.63-43.89 43.87 0 24.21 19.64 43.86 43.89 43.86 24.2 0 43.85-19.65 43.85-43.86M1801.14 1167.93c0-24.22-19.65-43.82-43.85-43.82-24.25 0-43.89 19.6-43.89 43.82 0 24.26 19.64 43.87 43.89 43.87 24.2 0 43.85-19.61 43.85-43.87M668.969 843.453c-10.723 19.27-23.524 33.067-38.403 41.328-14.851 8.242-38.832 17.121-71.722 26.723-25.266 7.168-42.172 12.738-50.785 16.672-8.59 4.054-15.68 10.215-21.243 18.652-5.523 8.492-8.261 18.301-8.261 29.41 0 14.508 5.41 27.032 16.328 37.422 10.992 10.45 26.648 15.68 47.043 15.68 33.758 0 60.117-15.99 79.344-47.906v-14.45h.007l-.031-.078c0-4.215 3.039-7.582 6.789-7.652l.024-.02h32.39l.035.09c3.692.133 6.649 3.395 6.649 7.543 0 .117-.043.235-.043.352v103.411s.043.21.043.33c0 4.15-2.992 7.52-6.75 7.59l-.028.01h-32.25c-3.757 0-6.718-3.3-6.828-7.45l-.007-.02v-.12l-.024-.01.024-.01v-20.39c-25.633 21.42-53.375 32.17-83.258 32.17-31.489 0-57.703-10.4-78.571-31.14-20.843-20.8-31.265-48.63-31.265-83.418 0-22.445 4.793-41.899 14.336-58.297 9.574-16.41 22.394-29.047 38.496-37.914 16.082-8.824 40.84-18.234 74.25-28.156 28.769-8.563 48.347-17.168 58.687-25.848 10.375-8.676 15.602-22.871 15.602-42.602 0-20.324-6.363-36.769-19.059-49.277-12.636-12.558-28.203-18.859-46.605-18.859-36.086 0-65.32 22.574-87.613 67.672v22.504h-.082c-.012 4.027-2.852 7.207-6.426 7.437l-.051.035H436.531c-3.758 0-6.707-3.273-6.836-7.445l-.023-.027V669.176l.023-.039v-.16c0-4.188 3.078-7.602 6.836-7.602h32.949c3.747 0 6.79 3.414 6.79 7.602l-.082.16.082.039v26.355c27.191-27.226 57.773-40.859 91.789-40.859 33.125 0 60.882 11.531 83.336 34.558 22.457 23.106 33.703 52.329 33.703 87.727 0 25.043-5.325 47.188-16.129 66.496M976.633 1069.27c-.129 4.01-3.055 7.26-6.746 7.31H693.652c-3.652 0-6.66-3.3-6.742-7.38l-.058-.07v-95.857c0-4.117 2.984-7.468 6.671-7.578l.094-.109h32.977l.066.102c3.668.066 6.637 3.355 6.731 7.441l.023.008v51.683h70.191V713.59h-41.203c-3.757 0-6.843-3.379-6.843-7.617l.023-.11-.094-.058v-36.317l.094-.058c.066-4.086 3.008-7.403 6.691-7.52l.028-.047h139.664v.024c3.801 0 6.867 3.457 6.867 7.601 0 0-.066.106-.066.223v36.094l.066.168c0 4.148-3.008 7.535-6.754 7.605l-.035.012h-42.094v311.23h70.192V973.273c0-4.117 2.968-7.468 6.695-7.578l.129-.109h33.015l.118.109c3.64.133 6.617 3.461 6.617 7.524v95.981l-.082.07" style="fill:#3d3888;fill-opacity:1;fill-rule:nonzero;stroke:none"/><path d="M1185.03 922.805c-.08 4.133-3.1 7.453-6.86 7.453H932.395l-.059-.074c-3.719-.043-6.699-3.399-6.699-7.563v-36.433c0-4.239 3.09-7.649 6.824-7.649l.117.024.035-.079h29.082v-311.25h-29.222c-3.746 0-6.836-3.379-6.836-7.593v-36.489c0-4.222 3.09-7.648 6.824-7.648h245.809c3.75.086 6.76 3.426 6.76 7.648V622.379c-.08 4.125-3.1 7.476-6.86 7.476v-.035.035h-32.9v-.035s-.01.035-.06.035c-3.75 0-6.77-3.386-6.77-7.644V567.234h-127.08v136.051h99.23c3.78 0 6.83 3.41 6.83 7.645V747.652l-.07.02c-.1 4.004-2.98 7.164-6.58 7.293l-.06.047h-99.35v123.472h127.08v-52.445c0-4.156 2.99-7.5 6.72-7.547l.01-.047h33.19l.06.067c3.64.144 6.61 3.414 6.61 7.527V922.805" style="fill:#3d3888;fill-opacity:1;fill-rule:nonzero;stroke:none"/><path d="M1428.44 1102.25c-13.19 21.72-29.57 35.67-49.07 41.89-19.57 6.11-48.96 9.24-88.24 9.24h-101.92c-3.82 0-6.83-3.39-6.83-7.59v-36.54c0-4.17 3.01-7.58 6.83-7.58.05 0 .08.01.11.01l.07-.04h28.28V790.359h-28.46c-3.82 0-6.83-3.339-6.83-7.562v-36.516c0-4.082 3-7.461 6.69-7.527l.04-.094h113.88l.03.035h.17c3.75 0 6.81 3.387 6.81 7.586v.024l.05.07v36.348l-.05.074c0 4.223-3.06 7.562-6.81 7.562h-29.15V897.18h12.91c32.43 0 56.66 1.57 72.69 4.605 16 3.102 30.46 9.121 43.24 18.07 12.81 8.938 23.61 22.852 32.28 41.606 8.69 18.758 13.05 40.019 13.05 63.629 0 29.69-6.61 55.36-19.77 77.16zm-58.58-137.527c-14.2-11.653-39.63-17.481-76.43-17.481h-19.39v154.398h22.09c25.99 0 44.53-1.7 55.7-5.09 11.07-3.35 20.46-11.27 27.95-23.53 7.55-12.37 11.29-27.91 11.29-46.63 0-29.472-7.06-50.027-21.21-61.667M1603.29 1068.29c-.18 4.04-3.1 7.28-6.81 7.28H1472.7c-3.72 0-6.68-3.24-6.87-7.28l-.01-.07v-36.74c0-4.13 3-7.5 6.74-7.57l.04-.07h33.79V712.582H1472.69c-3.71 0-6.67-3.262-6.8-7.289l-.07-.082v-36.5l.01-.047-.01-.094c0-4.304 3.06-7.691 6.87-7.691h123.75c3.75 0 6.74 3.269 6.85 7.391v36.718c0 4.157-2.96 7.489-6.68 7.594h-33.84v311.258h33.77l.07.07c3.72.09 6.68 3.44 6.68 7.57v36.81" style="fill:#3d3888;fill-opacity:1;fill-rule:nonzero;stroke:none"/><path d="M35.074 39.57c-.328 1.762-1.347 3.29-2.648 4.59-1.707.809-3.899 1.55-7.637 1.55-5.242 0-7.797-1.55-7.797-5.562 0-1.109 1.149-2.609 3.422-3.078 1.047 0 2.816-.941 5.082-.941 2.02-.66 3.324-.66 3.324-.66 6.903-1.2 10.407-1.82 11.801-1.82 4.652-1.31 7.922-2.5 10.223-5.2 2.336-1.879 3.71-5.238 3.71-10.527 0-3.852-1.374-7.524-3.398-9.774-1.93-2.789-4.293-4.789-7.207-5.457-2.62-1.41-5.558-1.859-8.226-1.859C33.379 0 30.496 0 27.793 0c-4.281 0-7.867 0-10.8.832-3.38.45-6.49 1.219-8.626 2.527-2.762 1.313-4.293 3.282-6 5.922C1.078 11.36.407 14.5 0 17.921h18.14c.313-2.062 1.055-3.85 2.715-4.773 1.332-1.117 3.934-1.789 7.672-1.789.918 0 2.192 0 2.946.672.953 0 1.906.528 2.683.528.59.59 1.203 1.511 1.903 1.941.265.672.683 1.36.683 2.73 0 1.22-.683 1.86-1.668 3.192-.918 0-3.043.7-5.629 1.418l-15.437 2.808c-4.653 1.172-7.996 2.551-9.934 4.98C1.684 32.34.766 35.469.766 39.57c0 1.762.312 3.918.918 6.14.683 1.919 1.972 3.95 3.71 5.06 1.626 2.109 4.192 3.43 7.653 3.87 2.98 1.61 6.879 2.11 11.742 2.11 8.59 0 15.332-1.281 19.938-3.871 4.5-2.488 7.02-7.168 7.812-13.309H35.074M117.156 21.84c-.285-2.75-1.273-5.98-2.207-7.77-1.043-2.71-2.679-5.351-4.972-7.43-2.067-1.968-5.039-3.949-8.59-4.59C97.695.833 93.437 0 88.18 0c-9.563 0-16.875 2.05-21.782 7.41-4.671 4.621-6.964 11.68-6.964 21.04 0 9.09 2.293 15.71 6.964 21.21 4.508 4.54 12.02 7.09 21.782 7.09 3.902 0 7.18-.5 10.214-.5 3.262-1.61 5.926-2.05 8.547-3.922 2.301-1.559 4.704-4.008 6.211-6.617 2.043-2.852 3.332-6.672 4.004-11.442h-17.101c0 1.2-.563 2.801-.946 3.27-.43 1.5-1.054 2.61-2.086 3.422-.988 1.23-1.976 1.898-3.586 2.527-1.355.672-2.972 1.48-5.257 1.48-1.965 0-4.004-.808-5.953-1.48-1.684-.629-2.543-2.156-3.809-3.34-1.047-1.93-1.813-4.02-2.168-5.16-.64-2.648-.64-3.84-.64-6.539 0-2.629 0-4.5.64-6.61.355-1.968 1.121-3.917 2.168-5.448.86-1.22 2.125-2.32 3.809-3.243 1.566-.59 3.558-1.117 5.953-1.117 3.64 0 6.242.528 8.191 2.469 2.309 1.89 3.305 4.59 4.039 7.34h16.746M125.117 2.05h15.602v52.59h-15.602ZM151.477 54.64h45.921V43.489h-30.675v-9.84h28.785V23.211h-28.785V13.148h30.675V2.051h-45.921v52.59M205.059 54.64h17.683l21.09-32.8h.363v32.8h14.875V2.05h-17.199l-21.715 32.938h-.437V2.051h-14.66v52.59M325.098 21.84c-.782-2.75-1.27-5.98-2.301-7.77-1.012-2.71-2.957-5.351-5.082-7.43-1.902-1.968-4.828-3.949-8.445-4.59C305.645.833 301.277 0 295.953 0c-9.515 0-16.758 2.05-21.64 7.41-4.704 4.621-7.34 11.68-7.34 21.04 0 9.09 2.636 15.71 7.34 21.21 4.664 4.54 11.777 7.09 21.64 7.09 4.129 0 7.348-.5 10.258-.5 3.059-1.61 6.051-2.05 8.277-3.922 2.637-1.559 4.965-4.008 6.641-6.617 2.008-2.852 3.035-6.672 3.969-11.442h-17.227c-.305 1.2-.676 2.801-.953 3.27-.707 1.5-1.273 2.61-2.309 3.422-.589 1.23-1.98 1.898-3.332 2.527-1.195.672-3.281 1.48-5.324 1.48-2.262 0-4.25-.808-5.824-1.48-1.578-.629-2.938-2.156-4.039-3.34-.996-1.93-1.613-4.02-2.008-5.16-.676-2.648-.676-3.84-.676-6.539 0-2.629 0-4.5.676-6.61.395-1.968 1.012-3.917 2.008-5.448 1.101-1.22 2.461-2.32 4.039-3.243 1.574-.59 3.562-1.117 5.824-1.117 3.367 0 6.305.528 8.285 2.469 1.973 1.89 3.328 4.59 3.946 7.34h16.914M332.953 54.64h45.969V43.489h-30.734v-9.84h28.714V23.211h-28.714V13.148h30.734V2.051h-45.969v52.59M425.055 54.64h18.777l19.777-52.59h-16.468L444.473 10h-20.102l-2.976-7.95h-16.547zm9.562-13.308h-.293l-6.355-19.492h12.937l-6.289 19.492M467.645 54.64h17.839l21.114-32.8h.254v32.8h14.886V2.05h-17.246l-21.781 32.938h-.289V2.051h-14.777v52.59M532.195 54.64h32.996c7.289 0 12.602-1.761 16.457-6.32 3.762-4.16 5.43-11.25 5.43-19.87 0-5.24-.301-9.36-1.668-13.278-1.035-3.14-3.008-5.89-4.922-7.762-2.379-2.05-4.668-3.469-7.613-4.719-2.937-.64-5.883-.64-9.574-.64h-31.106zm15.243-40.57h12.914c1.929 0 3.902 0 5.211 1.102 1.695.687 2.585 1.219 3.609 2.75.766 1.168 1.402 3.2 1.766 5.289.253 1.437.253 3.36.253 5.238 0 9.77-3.933 14.41-12.23 14.41h-11.523V14.07M615.699 54.64h49.219V42.86h-17.199V2.05h-15.137v40.81h-16.883v11.78M670.793 54.64h45.945V43.489h-30.675v-9.84h28.738V23.211h-28.738V13.148h30.675V2.051h-45.945v52.59M780.094 21.84c-.742-2.75-1.371-5.98-2.344-7.77-1.312-2.71-3.055-5.351-5.023-7.43-2.207-1.968-4.879-3.949-8.582-4.59C760.512.833 756.047 0 751.008 0c-9.875 0-16.82 2.05-21.735 7.41-4.886 4.621-7.242 11.68-7.242 21.04 0 9.09 2.356 15.71 6.797 21.21 5.141 4.54 12.305 7.09 22.18 7.09 3.633 0 7-.5 10.168-.5 2.969-1.61 5.988-2.05 8.344-3.922 2.644-1.559 4.945-4.008 6.578-6.617 1.652-2.852 3.05-6.672 3.668-11.442h-16.86c-.312 1.2-.722 2.801-1.281 3.27-.449 1.5-1.113 2.61-1.945 3.422-1.082 1.23-2.059 1.898-3.379 2.527-1.66.672-3.309 1.48-5.293 1.48-2.32 0-4.262-.808-5.906-1.48-1.649-.629-3.051-2.156-3.969-3.34-1.035-1.93-1.66-4.02-2.207-5.16-.449-2.648-.766-3.84-.766-6.539 0-2.629.317-4.5.766-6.61.547-1.968 1.172-3.917 1.879-5.448 1.246-1.22 2.324-2.32 3.937-3.243 2.004-.59 3.946-1.117 6.266-1.117 3.308 0 6.012.528 8.23 2.469 1.938 1.89 3.356 4.59 3.668 7.34h17.188M826.262 23.95h-22.996V2.05h-15.61v52.59h15.61V36.13h22.996V54.64h15.422V2.05h-15.422v21.898M852.301 54.64h17.429l21.543-32.8v32.8h14.797V2.05h-16.84l-22.074 32.938h-.41V2.051h-14.445v52.59M916.445 41.332c1.508 4.379 3.868 6.988 6.508 9.438 2.629 2.109 5.942 3.87 9.113 4.699 4.063.781 7.653 1.281 11.942 1.281 4.308 0 8.254-.5 11.91-1.281 3.645-.828 6.625-2.59 9.562-4.7 2.739-2.449 4.954-5.058 6.254-9.437 1.633-3.113 2.403-7.684 2.403-12.883 0-5.238-.77-10-2.403-13.949-1.3-3.14-3.515-6.352-6.254-8.328-2.937-2.23-5.917-4.121-9.562-4.89C952.262.831 948.316 0 944.008 0c-4.289 0-7.879.832-11.942 1.281-3.171.77-6.484 2.66-9.113 4.89-2.64 1.977-5 5.188-6.508 8.329-1.472 3.95-2.066 8.71-2.066 13.95 0 5.198.594 9.769 2.066 12.882zm17.711-25.473c2.36-2.71 5.918-3.828 9.852-3.828 4.308 0 8 1.117 10.226 3.828 2.375 3.23 3.657 7.352 3.657 12.59 0 5.2-1.282 9.09-3.657 11.7-2.226 3.34-5.918 4.82-10.226 4.82-3.934 0-7.492-1.48-9.852-4.82-2.656-2.61-3.726-6.5-3.726-11.7 0-5.238 1.07-9.36 3.726-12.59M982.262 54.64h15.133V14.07h28.545V2.05h-43.678v52.59M1032.56 41.332c1.15 4.379 3.53 6.988 6.13 9.438 3.13 2.109 6.01 3.87 9.6 4.699 3.67.781 7.31 1.281 11.9 1.281 4.04 0 7.94-.5 11.45-1.281 3.73-.828 7.11-2.59 9.57-4.7 2.74-2.449 5.14-5.058 6.26-9.437 1.73-3.113 2.42-7.684 2.42-12.883 0-5.238-.69-10-2.42-13.949-1.12-3.14-3.52-6.352-6.26-8.328-2.46-2.23-5.84-4.121-9.57-4.89-3.51-.45-7.41-1.282-11.45-1.282-4.59 0-8.23.832-11.9 1.281-3.59.77-6.47 2.66-9.6 4.89-2.6 1.977-4.98 5.188-6.13 8.329-1.67 3.95-2.39 8.71-2.39 13.95 0 5.198.72 9.769 2.39 12.882zm17.39-25.473c2.34-2.71 5.88-3.828 10.24-3.828 4.04 0 7.54 1.117 9.91 3.828 2.59 3.23 3.67 7.352 3.67 12.59 0 5.2-1.08 9.09-3.67 11.7-2.37 3.34-5.87 4.82-9.91 4.82-4.36 0-7.9-1.48-10.24-4.82-2.33-2.61-3.7-6.5-3.7-11.7 0-5.238 1.37-9.36 3.7-12.59M1128.76 31.57h24.81V2.05h-7.21l-1.71 5.36c-.61-.77-1.62-1.238-2.59-2.738-1.04-.73-2.33-1.313-3.97-1.98-1.67-.641-3.38-1.41-5.99-1.86-1.9-.832-4.53-.832-7.22-.832-10.01 0-17.17 2.05-22.1 7.41-4.67 4.621-6.89 11.68-6.89 21.04 0 3.89.61 7.679 1.55 11.12 1.34 3.29 2.96 6.14 5.34 8.75 2.28 2.45 5.6 5.102 9.2 6.32 3.66 1.61 7.96 2.11 12.47 2.11 3.81 0 7.03-.5 10.05-.5 3.25-.781 6.22-2.05 8.75-3.371 2.65-1.25 5.07-3.219 6.65-5.879 1.99-2.84 3.33-5.668 3.67-9.46h-17.53c-.24 2.03-1.54 3.792-3.32 5.32-1.65 1.3-3.96 2.85-7.42 2.85-4.32 0-8.08-2.222-10.43-5.562-2.3-2.609-3.26-6.988-3.26-11.699 0-5.238.96-9.36 3.26-12.058 2.72-3.243 6.11-5.032 10.43-5.032 3.46 0 6.43 1.2 8.71 2.711 2.03 1.102 3.31 3.852 4.08 6.352h-9.33V31.57M1177.67 18.45l-20.48 36.19h17.76l10.55-22.3 10.35 22.3h17.77l-20.51-36.19V2.05h-15.44v16.4M1242.63 54.64h33.97c2.94 0 5.72 0 7.64-1.218 2.34-.543 3.95-1.793 5.24-3.031 1.37-2.07 2.44-3.391 3-6.23.59-1.97.94-4.013.94-6.622 0-2.55-.35-5.2-.94-7-.38-2.09-1.42-3.969-2.65-5.469-1.27-1.86-2.97-3.23-5.03-4.648-2.27-.55-4.56-1.332-7.46-1.332h-19.55V2.05h-15.16zm15.16-24.1h13.52c2.32 0 3.99.608 4.65 1.8 1.38.82 1.62 2.648 1.62 5.2 0 2.03-.24 3.792-1.62 4.651-.66 1.297-2.33 1.97-4.65 1.97h-13.52V30.538M1301.05 41.332c1.3 4.379 3.61 6.988 6.28 9.438 2.89 2.109 5.92 3.87 9.51 4.699 3.34.781 7.31 1.281 11.97 1.281 3.86 0 7.87-.5 11.54-1.281 3.55-.828 6.9-2.59 9.5-4.7 2.64-2.449 4.64-5.058 6.33-9.437 1.57-3.113 2.31-7.684 2.31-12.883 0-5.238-.74-10-2.31-13.949-1.69-3.14-3.69-6.352-6.33-8.328-2.6-2.23-5.95-4.121-9.5-4.89-3.67-.45-7.68-1.282-11.54-1.282-4.66 0-8.63.832-11.97 1.281-3.59.77-6.62 2.66-9.51 4.89-2.67 1.977-4.98 5.188-6.28 8.329-1.57 3.95-2.39 8.71-2.39 13.95 0 5.198.82 9.769 2.39 12.882zm17.57-25.473c2.23-2.71 5.9-3.828 10.19-3.828 3.86 0 7.43 1.117 9.93 3.828 2.53 3.23 3.53 7.352 3.53 12.59 0 5.2-1 9.09-3.53 11.7-2.5 3.34-6.07 4.82-9.93 4.82-4.29 0-7.96-1.48-10.19-4.82-2.38-2.61-3.74-6.5-3.74-11.7 0-5.238 1.36-9.36 3.74-12.59M1366.68 54.64h15.44V14.07h27.78V2.05h-43.22v52.59M1417.23 2.05h15.02v52.59h-15.02ZM1499.08 21.84c-.73-2.75-1.36-5.98-2.77-7.77-.89-2.71-2.67-5.351-4.88-7.43-1.95-1.968-5-3.949-8.54-4.59C1479.13.833 1474.91 0 1469.6 0c-9.64 0-16.77 2.05-21.33 7.41-5.01 4.621-7.42 11.68-7.42 21.04 0 9.09 2.41 15.71 7.03 21.21 4.95 4.54 12.08 7.09 21.72 7.09 3.95 0 7.31-.5 10.24-.5 3.29-1.61 5.89-2.05 8.69-3.922 2.56-1.559 4.5-4.008 6.08-6.617 2.14-2.852 3.11-6.672 4.05-11.442h-17.14c-.37 1.2-.6 2.801-1.08 3.27-.6 1.5-1.31 2.61-1.83 3.422-.99 1.23-2.01 1.898-3.7 2.527-1.36.672-2.98 1.48-4.87 1.48-2.69 0-4.66-.808-6.32-1.48-1.71-.629-2.94-2.156-3.96-3.34-.93-1.93-1.66-4.02-1.93-5.16-.29-2.648-.74-3.84-.74-6.539 0-2.629.45-4.5.74-6.61.27-1.968 1-3.917 1.93-5.448a13.187 13.187 0 0 1 3.96-3.243c1.66-.59 3.63-1.117 6.32-1.117 3.23 0 5.78.528 7.93 2.469 1.87 1.89 3.18 4.59 3.93 7.34h17.18M1520.42 18.45l-20.31 36.19h17.67l10.26-22.3 10.63 22.3h17.4l-20.13-36.19V2.05h-15.52v16.4M1585.51 2.05h15.098v52.59h-15.098ZM1611.54 54.64h17.43l21.47-32.8v32.8h14.84V2.05h-16.74l-22.11 32.938V2.051h-14.89v52.59M1707.56 39.57c0 1.762-.98 3.29-2.74 4.59-1.23.809-3.9 1.55-7.2 1.55-5.31 0-7.88-1.55-7.88-5.562 0-1.109 1.32-2.609 3.33-3.078 1.18 0 2.55-.941 4.92-.941 2.28-.66 3.7-.66 3.7-.66 6.46-1.2 10.57-1.82 11.67-1.82 4.3-1.31 8.04-2.5 10.32-5.2 2.24-1.879 3.22-5.238 3.22-10.527 0-3.852-.98-7.524-2.95-9.774-1.95-2.789-4.5-4.789-7.26-5.457-2.94-1.41-5.48-1.859-8.1-1.859-2.72-.832-5.34-.832-8-.832-4.35 0-7.92 0-11.26.832-3.23.45-5.87 1.219-8.17 2.527-2.61 1.313-4.64 3.282-6.01 5.922-1.34 2.078-2.16 5.219-2.52 8.64h18.43c0-2.062.98-3.85 2.22-4.773 1.76-1.117 4.34-1.789 7.96-1.789 1.02 0 2.01 0 3.01.672 1 0 1.62.528 2.55.528.76.59 1.35 1.511 1.79 1.941.32.672.58 1.36.58 2.73 0 1.22-.26 1.86-1.61 3.192-.98 0-2.74.7-5.69 1.418l-15.15 2.808c-4.59 1.172-7.89 2.551-10.2 4.98-2.08 2.712-2.96 5.84-2.96 9.942 0 1.762.25 3.918.88 6.14.71 1.919 2.08 3.95 3.74 5.06 1.68 2.109 4.29 3.43 7.28 3.87 3.28 1.61 7.21 2.11 11.76 2.11 9.01 0 15.59-1.281 20.17-3.871 4.61-2.488 7.4-7.168 7.61-13.309h-17.44M1729.65 54.64h49.07V42.86h-16.76V2.05h-15.54v40.81h-16.77v11.78M1784.79 2.05h15.441v52.59h-15.441ZM1806.25 54.64h49.13V42.86h-16.88V2.05h-15.57v40.81h-16.68v11.78M1860.61 54.64h15.16V23.21c0-4.12.94-6.82 2.64-8.71 1.69-1.941 4.28-2.469 7.85-2.469 3.74 0 6.4.528 8.06 2.469 1.5 1.89 2.59 4.59 2.59 8.71v31.43h15.14V20.423c0-7.274-1.97-12.274-6.61-15.75-4.18-3.39-10.55-4.672-19.18-4.672-8.58 0-14.62 1.281-19.06 4.672-4.57 3.476-6.59 8.476-6.59 15.75V54.64M1917.33 54.64h49.21V42.86h-16.87V2.05h-15.5v40.81h-16.84v11.78M1972.1 54.64h46.32V43.489h-30.64v-9.84h28.52V23.211h-28.52V13.148h30.64V2.051h-46.32v52.59" style="fill:#67616b;fill-opacity:1;fill-rule:nonzero;stroke:none"/></g></svg>