<svg xmlns="http://www.w3.org/2000/svg" width="648.61432" height="107.63393" viewBox="0 0 648.61429 107.63394"><path fill="#4e8abe" d="M53.812 0c-14.38-.003-27.893 5.596-38.053 15.763C5.59 25.919-.007 39.436 0 53.819c-.007 14.383 5.59 27.9 15.76 38.056 10.159 10.17 23.676 15.762 38.052 15.759h.013c14.38 0 27.89-5.593 38.046-15.76 10.163-10.15 15.763-23.663 15.763-38.042v-.026c0-14.384-5.6-27.894-15.763-38.044C81.715 5.596 68.198-.003 53.812 0" style="stroke-width:3.26886"/><path fill="#fff" d="M70.311 7.335c.229-.536-.945-1.115-.798-1.455l2.315 1 2.746 9.575 2.696-6.106c.232-.533-1.062-1.167-.915-1.51l2.792 1.206c-.19.327-.9.085-1.115.579l-3.318 7.426c-.127.295-.827.118-.827.118s-2.945-9.486-2.935-10.486l-2.88 6.737c-.229.533 1.124 1.19.974 1.533l-3.145-1.36c.164-.34 1.154.023 1.4-.51zM80.35 19.156a7.3 7.3 0 0 0-1.647-.781c-.206-.075-.451.157-.686.48-.324.461-.419 1.112-.013 1.406.186.134 1.422.16 1.438.134zm1-1.334c.315-.45.475-.755-.195-1.232-.736-.526-1.573-.137-1.92-.101-.032-.281.367-.837.462-.968.261-.372 1.327.258 1.654.494.948.673 1.37 1.696.804 2.487l-1.99 2.629c-.321.424.382 1.033.15 1.32l-1.631-1.026.591-.693c-.647.193-1.435.147-1.906-.19-.683-.493-.908-1.432-.343-2.216.81-1.131 2.236-.432 3.08.176.18.131.34.265.46.373zM86.796 19.07l-.84.896 1.513 1.412s-.454.245-.601.15l-1.49-.967-2.139 2.226c-.65.676-.333 1.258-.03 1.546.262.242.58.402.962.582l-.043.049c-.421.451-1.327.068-1.752-.327-.65-.608-.944-1.478 0-2.494l1.962-2.004c.33-.33-.108-1.118.157-1.38l.784.49 1.193-.48zM88.022 23.657c.47-.392-.079-.994.18-1.239l1.67 1.112-1.023.774-2.972 2.52c-.327.265.301 1.073 0 1.292l-1.866-2.105c.3-.223.853.304 1.18.036zm2.415-1.487c-.104-.121-.032-.922.102-1.036.12-.112.964-.056 1.062.052.105.12.04.951-.105 1.079-.12.107-.941.036-1.059-.095M92.414 28.03c-.624-.921-1.958-.745-2.971-.055-1.046.713-1.743 1.951-1.135 2.847.631.925 1.955.745 2.968.052 1.047-.712 1.75-1.951 1.138-2.843m.66.055c.922 1.35.344 2.762-.836 3.563-1.311.896-3.348.948-4.587-.866-.915-1.35-.32-2.775.857-3.576 1.31-.893 3.33-.938 4.566.88M96.321 35.34c-.215-.473-1.487-1.284-1.487-1.284l-3.213 1.393c-.39.156-.02 1.111-.363 1.265l-1.164-2.563c.36-.108.713.513 1.105.35l3.39-1.448c.565-.24.193-1.014.467-1.118.013-.01.046-.023.066-.014l1.219 1.435-1.2.406c.847.304 1.625.951 1.939 1.654.415.915.153 1.902-1.04 2.445l-2.778 1.196c-.39.157-.023 1.112-.366 1.262l-1.174-2.589c.356-.11.713.513 1.102.35l2.56-1.089c1.235-.562 1.013-1.474.937-1.65M96.542 43.558a7.6 7.6 0 0 0-.778-1.651c-.115-.186-.445-.164-.837-.056-.546.144-1.033.592-.902 1.076.062.222.993 1.02 1.026 1.013zm1.614-.396c.533-.144.85-.278.635-1.075-.236-.876-1.131-1.102-1.416-1.295.15-.242.808-.418.965-.457.434-.118.862 1.04.97 1.431.298 1.122-.02 2.18-.957 2.432l-3.21.778c-.52.118-.36 1.03-.723 1.109l-.608-1.831.9-.154c-.629-.268-1.204-.8-1.358-1.36-.215-.817.206-1.683 1.141-1.931 1.347-.36 2 1.088 2.269 2.088.059.22.098.429.124.589zM95.597 48.493c-.418.042-.333 1.091-.706 1.114l-.399-2.788c.373-.02.54.693.955.65l7.998-.99c.644-.075.465-.961.834-.905l.785 1.833-1.282.069zM95.996 55.774c-.5-.032-.608 1.177-.978 1.131l.111-3.38c.373.05.403 1.086.906 1.118l7.541.396c.5.033.605-1.128.974-1.02l-.11 3.282c-.37-.046-.403-1.079-.9-1.115zM99.498 62.302c.091-.51-.497-1.896-.497-1.896l-3.433-.676c-.408-.089-.65.902-1.02.837l.497-2.772c.354.114.295.827.707.912l3.615.729c.605.124.739-.723 1.02-.654.016 0 .046.007.059.026l.196 1.876-1.22-.353c.527.736.798 1.703.66 2.468-.172.987-.95 1.654-2.242 1.425l-2.965-.594c-.411-.089-.653.905-1.02.84l.5-2.802c.357.111.298.824.71.909l2.726.552c1.337.239 1.67-.637 1.707-.827M97.451 70.462c-.353-.115-.886-.556-.886-.556s1.102-.34 1.406-1.232c.239-.72-.03-.929-.503-1.089-.86-.29-2.23 2.203-3.53 1.762-1.305-.441-1.423-1.605-1.05-2.713.222-.657.667-1.461 1.154-1.298.34.115.677.432.677.432-.494.091-1.131.712-1.34 1.34-.16.477-.063.938.52 1.13 1.088.374 2.255-2.12 3.634-1.656 1.239.418 1.134 1.7.794 2.713-.098.271-.464 1.307-.876 1.167M97.474 74.2l-1.111-.52-.88 1.87s-.376-.353-.327-.53l.468-1.706-2.776-1.363c-.843-.412-1.3.065-1.477.448-.15.323-.213.667-.265 1.092a1 1 0 0 0-.059-.03c-.555-.261-.47-1.235-.222-1.768.376-.801 1.118-1.347 2.373-.755l2.504 1.252c.422.209 1.033-.448 1.367-.272l-.226.893.82.997zM93.452 76.824c.516.33.918-.376 1.232-.206l-.55 1.932-1.045-.739-3.308-2.066c-.35-.232-.929.608-1.23.393l1.439-2.416c.304.216-.03.902.323 1.131zm2.15 1.847c.085-.134.867-.307 1.02-.222.138.088.347.905.272 1.033-.085.137-.896.33-1.063.235-.137-.088-.32-.892-.229-1.046M92.72 82.184l-.987-.732-1.232 1.663s-.29-.418-.21-.578l.789-1.585-2.455-1.877c-.742-.572-1.288-.193-1.54.15-.206.285-.33.618-.467 1.017-.017-.013-.043-.03-.053-.036-.496-.37-.222-1.314.125-1.778.526-.716 1.36-1.105 2.48-.278l2.21 1.713c.367.29 1.099-.232 1.39 0l-.396.833.608 1.138zM82.27 85.031c-.364-.389-1.008.14-1.272-.124l1.222-1.386.726.945c-.03-.85.108-1.85.765-2.517.722-.723 1.729-.817 2.657.104l1.916 1.994c.425.445.994-.15 1.232.112L88.52 85.9l-.84-.968-2.02-2.053c-.435-.46-1.177-.647-1.736-.088-.402.402-.601 1.844-.601 1.844l2.18 2.213c.435.431.98-.14 1.245.098l-1 1.742-.837-.97zM83.06 91.943l-.738-.984-1.654 1.242s-.16-.48-.04-.615l1.214-1.297-1.821-2.501c-.55-.758-1.183-.546-1.517-.294-.284.212-.494.493-.742.84l-.04-.05c-.369-.493.164-1.317.635-1.666.706-.533 1.618-.674 2.455.441l1.625 2.278c.268.38 1.118.085 1.33.393l-.618.686.258 1.265zM75.048 93.36c.494.572 1.41.964 1.883.696.566-.32.722-1.415.432-2.259zm2.07-2.092c-.723-1.262-1.965-1.615-2.975-1.04-.393.223-.762.599-1.03 1.105-.533-.807.432-1.66 1.304-2.154 1.419-.807 2.789-.101 3.495 1.138.784 1.376.725 3.363-1.046 4.373-.83.471-1.913.197-2.57-.66l-.287-.376s.108-.229.412-.418l2.781-1.811zM69.159 96.61c.14.428 1.023.428 1.114.752a.3.3 0 0 1 .017.049l-.752.415.157.53c.425 1.444 1.05 3.363-1.978 4.971-.294.095-.64-.183-.889-.836 1.847-.605 2.7-1.004 2.301-2.334l-.601-2.05-1.556.507s-.01-.504.134-.582l1.177-.716-1.164-3.815c-.13-.454-1.674.036-1.788-.32l3.243-1.063c.085.363-.586.654-.471 1.056zM62.739 99.195c1.098-.202 1.468-1.484 1.245-2.693-.225-1.242-1.082-2.386-2.147-2.187-1.099.2-1.468 1.487-1.242 2.697.225 1.239 1.078 2.383 2.144 2.183m-.32.589c-1.605.297-2.664-.808-2.923-2.21-.287-1.56.48-3.442 2.645-3.844 1.608-.294 2.667.827 2.929 2.223.287 1.556-.487 3.432-2.651 3.83M56.453 99.349c-.434.532-1.056 1.157-1.892 1.19-.536.022-.742-.213-.759-.553-.007-.29.079-.552.249-.863.33.291.797.611 1.118.598.307-.013 1.127-.611 1.127-.611l-.081-3.651c0-.471-1.426-.428-1.442-.804l3.236-.131c-.016.376-.761.47-.761.892l.068 3.688c.01.643.844.565.84.921l-1.781.589zM47.582 95.256c.164-.559-1.304-1.007-1.196-1.363l3.288.86c-.114.353-1.144.153-1.307.709l-2.037 7.106c-.15.58 1.092.952.997 1.318l-2.487-.654-1.543-8.4-5.423 6.59-2.298-.602c.137-.344 1.157-.15 1.317-.71l2.004-7.113c.167-.559-1.121-.958-1.023-1.32l3.55.921c-.111.36-1.223.138-1.386.693l-2.007 6.816 5.893-7.09s.249.065.288.242c0 0 1.638 8.015 1.5 8.747zM32.994 91.697c.64.31 1.297.48 1.732.572.22.042.425-.216.618-.566.271-.5.281-1.16-.164-1.396-.199-.11-1.428.017-1.441.046zm-.82 1.448c-.262.487-.38.804.342 1.203.798.425 1.582-.069 1.916-.144.069.274-.252.873-.33 1.013-.216.399-1.35-.085-1.707-.278-1.023-.552-1.572-1.513-1.108-2.363l1.638-2.864c.275-.464-.5-.97-.307-1.29l1.742.813-.497.759c.621-.272 1.4-.32 1.919-.043.735.399 1.075 1.298.615 2.154-.66 1.226-2.164.703-3.073.206a5 5 0 0 1-.513-.31zM26.61 92.584l.722-.997-1.68-1.212s.411-.298.578-.22l1.595.772 1.85-2.478c.56-.745.17-1.288-.17-1.533-.287-.21-.624-.33-1.026-.46l.036-.056c.363-.497 1.308-.233 1.782.11.722.52 1.124 1.347.307 2.472l-1.693 2.236c-.285.366.248 1.092.02 1.383l-.841-.383-1.124.621zM21.492 84.106l2.154-2.122c.307-.29-.376-1.049-.121-1.314l2.04 1.984c-.291.236-.85-.219-1.15.076l-1.988 1.948c-1.004 1.03-.376 1.755-.203 1.925.31.301 1.782.602 1.782.602l2.477-2.458c.308-.291-.379-1.043-.117-1.315l2.013 1.965c-.268.255-.846-.219-1.15.075l-5.734 5.652c-.441.432.164.997-.095 1.239l-1.742-.97.961-.844 2.998-2.949c-.83-.023-1.694-.343-2.2-.837-.72-.7-.837-1.719.075-2.657M17.706 79.103c-.51.56-.791 1.514-.468 1.955.386.52 1.491.55 2.292.16zm2.32 1.808c1.17-.863 1.377-2.141.687-3.076-.271-.366-.686-.683-1.22-.89.74-.63 1.7.233 2.292 1.04.971 1.318.429 2.76-.719 3.606-1.275.938-3.256 1.115-4.462-.526-.569-.769-.425-1.88.35-2.629l.337-.333s.242.085.467.363l2.122 2.553zM11.634 70.653c.203.442 1.314 1.184 1.49 1.298.128-.075.269-.154.416-.226l2.785-1.18c.389-.156.03-1.111.37-1.265l1.166 2.596c-.356.108-.709-.517-1.101-.356l-2.563 1.085c-1.239.555-1.017 1.47-.941 1.647.215.471 1.484 1.282 1.484 1.282l3.213-1.376c.389-.157.03-1.115.37-1.266l1.153 2.567c-.356.104-.706-.514-1.098-.357l-3.396 1.442c-.566.235-.2 1.013-.471 1.118-.013.007-.046.02-.069.01l-1.216-1.439 1.206-.402c-.85-.307-1.618-.95-1.935-1.66-.31-.68-.245-1.403.308-1.952-.847-.307-1.612-.941-1.932-1.647-.412-.916-.147-1.903 1.046-2.439l2.781-1.186c.396-.157.033-1.112.373-1.265l1.17 2.595c-.36.108-.712-.516-1.101-.356l-2.563 1.085c-1.239.556-1.02 1.471-.945 1.647M11.8 62.188c.18.69.478 1.304.69 1.69.105.19.438.186.834.1.555-.117 1.059-.538.95-1.029-.048-.222-.937-1.075-.967-1.065zm-1.637.317c-.537.117-.863.232-.687 1.042.19.883 1.076 1.16 1.353 1.364-.17.232-.833.375-.993.408-.438.095-.811-1.085-.893-1.477-.242-1.138.131-2.177 1.079-2.38l3.243-.615c.523-.091.412-1.013.781-1.072l.513 1.857-.905.111c.608.297 1.163.863 1.284 1.429.174.823-.29 1.667-1.239 1.866-1.363.291-1.941-1.187-2.157-2.2a5 5 0 0 1-.095-.588zM6.977 57.92l1.222-.102-.17-2.066s.5.125.543.301l.451 1.713 3.08-.206c.937-.062 1.094-.706 1.062-1.124-.03-.357-.154-.687-.314-1.076a.4.4 0 0 1 .062-.007c.615-.052 1.03.84 1.079 1.419.072.889-.301 1.729-1.684 1.843l-2.795.164c-.467.026-.673.902-1.042.915l-.255-.889-1.203-.451zM6.367 53.122c-.003.16-.598.703-.771.7-.164-.004-.752-.612-.749-.76 0-.156.611-.731.8-.728.164.003.72.608.72.788m2.788.53c-.614-.03-.61.78-.964.79l-.487-1.945 1.275.118 3.89.144c.425.023.507-1 .876-.955l-.043 2.812c-.372-.043-.425-.801-.846-.827zM9.07 45.99c.707.085.89.291.89.291s-.974.66-1.069 1.386c-.092.749.664 1.739 2.043 1.916 1.527.19 2.429-.51 2.566-1.635a3 3 0 0 0-.137-1.451c.03.003.042.003.075.01.742.098.909 1.206.798 2.105-.21 1.67-1.566 2.36-3.014 2.18-1.57-.196-3.129-1.438-2.88-3.426.137-1.072.343-1.425.729-1.376M12.717 41.9c-.148.7-.157 1.38-.141 1.825.013.215.307.36.7.464.549.14 1.19-.01 1.314-.494.058-.222-.36-1.38-.393-1.389zm-1.602-.45c-.533-.138-.873-.174-1.082.627-.232.87.441 1.517.591 1.821-.251.134-.905-.036-1.065-.075-.438-.115-.236-1.334-.134-1.726.294-1.125 1.092-1.886 2.033-1.638l3.17.906c.514.15.825-.723 1.18-.612l-.375 1.893-.856-.31c.411.542.653 1.287.506 1.85-.219.814-1.01 1.363-1.948 1.118-1.344-.347-1.2-1.932-.938-2.933.052-.222.124-.418.18-.575zM16.004 38.105c.383.17.83-.781 1.164-.614l-1.04 2.615c-.333-.17-.124-.87-.506-1.043l-7.427-3.128c-.592-.255-.883.604-1.173.366l.232-1.978 1.147.579zM14.523 24.213c.39.261.788.823.788.823s-1.347.304-2.22 1.602c-.431.647-.202 1.268.481 1.726 1.438.961 4.233-2.05 6.28-.683 1.235.824 1.846 2.265.758 3.893-.455.686-1.461 1.978-2.04 1.592-.402-.271-.683-.63-.71-.765.736-.056 1.629-.49 2.194-1.334.507-.755.644-1.536-.245-2.134-1.857-1.24-4.658 1.81-6.47.598-1.709-1.14-1.202-2.828-.42-3.998.225-.337 1.134-1.634 1.604-1.32M21.977 21.279c.523.477.56.752.56.752s-1.178-.023-1.671.513c-.51.562-.468 1.804.559 2.746 1.137 1.036 2.275.98 3.04.143.297-.32.575-.722.719-1.265.026.023.036.033.062.05.55.506.046 1.513-.565 2.18-1.135 1.242-2.642 1.026-3.72.042-1.167-1.065-1.726-2.974-.373-4.455.729-.801 1.102-.968 1.39-.706M22.683 17.87c-.121.101-.919.032-1.037-.102-.107-.12-.055-.964.053-1.062.12-.108.957-.043 1.085.101.105.121.033.942-.101 1.063m1.484 2.415c-.393-.467-.99.079-1.24-.18l1.115-1.67.772 1.023 2.517 2.978c.265.327 1.072-.297 1.294 0L26.514 24.3c-.223-.304.307-.853.042-1.18zM30.28 16.564c-.546-.526-1.49-.837-1.942-.52-.53.367-.588 1.471-.222 2.282zm-1.873 2.269c.83 1.196 2.099 1.435 3.056.771.373-.258.7-.663.926-1.196.604.758-.282 1.693-1.105 2.265-1.344.932-2.772.35-3.583-.817-.905-1.304-1.026-3.288.647-4.449.781-.546 1.89-.373 2.619.422l.326.353s-.094.235-.375.45l-2.612 2.054zM34.986 12.404c-.468.223-1.249 1.51-1.249 1.51l1.451 3.181c.16.386 1.108.007 1.269.343l-2.537 1.207c-.114-.35.497-.72.33-1.102l-1.517-3.364c-.251-.562-1.016-.176-1.127-.447-.007-.017-.02-.043-.013-.066l1.412-1.245.425 1.193c.287-.86.921-1.641 1.624-1.975.902-.431 1.893-.19 2.458.988l1.246 2.759c.167.385 1.115.007 1.278.34l-2.566 1.232c-.121-.36.49-.726.324-1.112l-1.135-2.536c-.588-1.226-1.497-.99-1.673-.906M43.531 9.219c.203.68.092.931.092.931s-.997-.627-1.697-.421c-.726.215-1.327 1.307-.932 2.64.435 1.472 1.442 2.018 2.527 1.69a3 3 0 0 0 1.272-.712l.026.075c.21.716-.742 1.318-1.611 1.576-1.612.48-2.789-.484-3.21-1.88-.448-1.516.058-3.438 1.98-4.01 1.04-.311 1.442-.262 1.553.11M49.23 9.745c-.259-.715-.968-1.405-1.514-1.32-.637.095-1.177 1.062-1.206 1.951zm-2.678 1.213c.22 1.438 1.255 2.213 2.406 2.033.448-.065.919-.284 1.353-.663.213.951-1 1.396-1.987 1.55-1.615.248-2.641-.906-2.857-2.312-.242-1.569.523-3.4 2.537-3.71.944-.144 1.86.5 2.167 1.533l.137.451s-.19.18-.536.245l-3.246.697zM55.4 7.846c.007.37-.222 1.023-.222 1.023s-.697-.928-1.635-.912c-.761.017-.87.34-.86.84.017.91 2.822 1.357 2.848 2.733s-1.033 1.88-2.197 1.903c-.696.01-1.608-.134-1.615-.65-.007-.36.183-.782.183-.782.249.431 1.046.82 1.71.81.5-.01.902-.26.892-.875-.02-1.148-2.759-1.406-2.785-2.86-.026-1.308 1.213-1.638 2.279-1.658.297-.003 1.392-.01 1.402.428M62.982 8.255a1.731 1.731 0 1 1 3.462-.003 1.731 1.731 0 0 1-3.462.003M59.866 13.372a1.729 1.729 0 1 1 3.458 0 1.73 1.73 0 0 1-3.458 0M57.382 18.862a1.73 1.73 0 0 1 1.733-1.726 1.73 1.73 0 1 1 0 3.459 1.73 1.73 0 0 1-1.733-1.733M55.63 24.63a1.732 1.732 0 1 1 3.465 0c0 .952-.781 1.724-1.733 1.724a1.727 1.727 0 0 1-1.732-1.723M54.714 30.578c0-.958.774-1.726 1.729-1.726a1.728 1.728 0 1 1 0 3.455 1.73 1.73 0 0 1-1.73-1.729M54.752 36.605c0-.955.775-1.726 1.73-1.726a1.728 1.728 0 1 1 0 3.455c-.955 0-1.73-.771-1.73-1.729M55.783 42.558a1.73 1.73 0 1 1 3.457.001 1.73 1.73 0 0 1-3.457 0M57.727 48.244c0-.958.775-1.73 1.73-1.73.957 0 1.729.772 1.729 1.73s-.772 1.73-1.73 1.73c-.954 0-1.729-.772-1.729-1.73M60.322 53.623c0-.955.775-1.726 1.733-1.726.951 0 1.732.771 1.732 1.726a1.733 1.733 0 0 1-3.465 0M32.113 27.53a1.73 1.73 0 0 1 2.654-2.223 1.72 1.72 0 0 1-.216 2.435 1.725 1.725 0 0 1-2.438-.213M33.75 33.336a1.73 1.73 0 1 1 2.647-2.23 1.73 1.73 0 0 1-2.647 2.23M36.106 38.878a1.73 1.73 0 0 1 .212-2.435 1.728 1.728 0 1 1 2.223 2.648c-.732.614-1.82.52-2.435-.213M39.231 44.027a1.73 1.73 0 1 1 2.651-2.226 1.73 1.73 0 0 1-2.65 2.226M43.139 48.617a1.727 1.727 0 0 1 .209-2.435 1.735 1.735 0 0 1 2.442.213c.61.732.516 1.82-.216 2.438-.732.611-1.82.52-2.435-.216M47.751 52.515a1.73 1.73 0 1 1 2.651-2.223 1.725 1.725 0 0 1-.215 2.439c-.733.614-1.821.52-2.436-.216M52.894 55.621a1.724 1.724 0 0 1 .216-2.435 1.735 1.735 0 0 1 2.442.209 1.737 1.737 0 0 1-.216 2.439 1.73 1.73 0 0 1-2.442-.213M58.34 58.076a1.73 1.73 0 1 1 2.651-2.227 1.73 1.73 0 0 1-2.65 2.227M24.946 59.615a1.737 1.737 0 0 1-1.409-2.004 1.74 1.74 0 0 1 2.01-1.406 1.73 1.73 0 0 1 1.403 2.004 1.736 1.736 0 0 1-2.004 1.406M30.309 62.341a1.73 1.73 0 1 1 .609-3.407 1.73 1.73 0 0 1-.61 3.407M36.017 64.278a1.732 1.732 0 0 1 .601-3.41 1.73 1.73 0 0 1 1.4 2.005 1.724 1.724 0 0 1-2.001 1.405M41.957 65.287a1.733 1.733 0 0 1-1.402-2.003 1.726 1.726 0 0 1 2.004-1.403 1.727 1.727 0 0 1 1.406 2 1.73 1.73 0 0 1-2.008 1.406M48 65.303a1.733 1.733 0 0 1-1.409-2 1.737 1.737 0 0 1 2.014-1.403 1.725 1.725 0 0 1 1.4 2A1.724 1.724 0 0 1 48 65.304M53.938 64.377a1.74 1.74 0 0 1-1.409-2.003 1.74 1.74 0 0 1 2.007-1.406 1.727 1.727 0 0 1 1.402 2.004 1.725 1.725 0 0 1-2 1.405M59.687 62.756a1.735 1.735 0 0 1-1.405-2.004 1.734 1.734 0 0 1 2.007-1.402 1.726 1.726 0 0 1 1.399 2 1.726 1.726 0 0 1-2 1.406M40.955 84.042a1.726 1.726 0 0 1-2.36-.631 1.725 1.725 0 0 1 .634-2.364 1.726 1.726 0 0 1 2.36.631 1.73 1.73 0 0 1-.634 2.364M46.567 81.859a1.73 1.73 0 0 1-2.363-.631 1.743 1.743 0 0 1 .637-2.367 1.727 1.727 0 0 1 2.36.634c.48.83.196 1.886-.634 2.364M51.77 78.813a1.73 1.73 0 0 1-2.363-.631 1.74 1.74 0 0 1 .634-2.367 1.724 1.724 0 0 1 2.36.631c.48.83.2 1.89-.63 2.367M56.412 74.944a1.73 1.73 0 1 1-1.73-2.995 1.72 1.72 0 0 1 2.361.631 1.73 1.73 0 0 1-.63 2.364M60.36 70.414a1.728 1.728 0 1 1-1.725-2.994 1.72 1.72 0 0 1 2.357.63 1.73 1.73 0 0 1-.631 2.364M63.726 65.479a1.73 1.73 0 0 1-1.733-2.998 1.73 1.73 0 0 1 1.733 2.998M65.96 88.543a1.73 1.73 0 0 1-2.223 1.033 1.723 1.723 0 0 1-1.033-2.213 1.726 1.726 0 0 1 2.216-1.036 1.734 1.734 0 0 1 1.04 2.216M67.984 82.867a1.734 1.734 0 0 1-2.22 1.033 1.733 1.733 0 0 1-1.033-2.22 1.725 1.725 0 0 1 2.217-1.029 1.725 1.725 0 0 1 1.036 2.216M69.047 76.92a1.72 1.72 0 0 1-2.213 1.033 1.724 1.724 0 0 1-1.03-2.216 1.725 1.725 0 0 1 2.213-1.037 1.725 1.725 0 0 1 1.03 2.22M69.165 70.912a1.73 1.73 0 0 1-2.22 1.033 1.727 1.727 0 0 1-1.03-2.216 1.734 1.734 0 0 1 2.22-1.037 1.73 1.73 0 0 1 1.03 2.22M68.568 64.971a1.73 1.73 0 0 1-2.22 1.03 1.724 1.724 0 0 1-1.03-2.213 1.726 1.726 0 0 1 2.217-1.036 1.733 1.733 0 0 1 1.033 2.22M83.007 75.554a1.73 1.73 0 0 1-1.037 2.213 1.729 1.729 0 0 1-1.183-3.246 1.73 1.73 0 0 1 2.22 1.033M80 70.309c.33.899-.131 1.893-1.03 2.216a1.724 1.724 0 0 1-2.22-1.033 1.726 1.726 0 0 1 1.033-2.213c.9-.33 1.89.134 2.217 1.03M76.23 65.632a1.734 1.734 0 0 1-1.033 2.22 1.73 1.73 0 0 1-2.22-1.037 1.723 1.723 0 0 1 1.033-2.213 1.73 1.73 0 0 1 2.22 1.03M71.949 61.466a1.728 1.728 0 1 1-3.25 1.183 1.723 1.723 0 0 1 1.033-2.216 1.726 1.726 0 0 1 2.217 1.033M84.143 58.207a1.73 1.73 0 0 1 .634 2.363 1.725 1.725 0 0 1-2.363.631 1.735 1.735 0 0 1-.641-2.36 1.737 1.737 0 0 1 2.37-.634M78.247 57.048a1.734 1.734 0 0 1 .63 2.367 1.732 1.732 0 0 1-2.998-1.733 1.733 1.733 0 0 1 2.368-.634M72.29 56.608a1.73 1.73 0 0 1 .634 2.363 1.727 1.727 0 0 1-2.363.631 1.73 1.73 0 0 1-.637-2.363 1.735 1.735 0 0 1 2.366-.631M74.273 49.176a1.734 1.734 0 0 1 2.007 1.406 1.733 1.733 0 0 1-1.406 2.003 1.73 1.73 0 0 1-.601-3.41M69.423 52.668a1.73 1.73 0 1 1 .608 3.406 1.73 1.73 0 0 1-.608-3.406M64.702 51.49a1.725 1.725 0 0 1 2.439-.212c.729.611.827 1.703.212 2.432a1.736 1.736 0 0 1-2.445.216 1.73 1.73 0 0 1-.206-2.436" style="stroke-width:3.26886"/><path d="M132.865 96.575v-8.189c0-3.184-.03-5.487-.171-7.903l.086-.03c.938 2.076 2.218 4.265 3.555 6.398l6.085 9.723h2.503V77.41h-2.332v8.019c0 2.984.057 5.315.285 7.875l-.086.029c-.881-1.962-2.02-3.98-3.413-6.226l-6.114-9.696h-2.73v19.164zM158.83 88.126c0-2.731-1.024-5.605-5.233-5.605-1.735 0-3.413.484-4.55 1.195l.568 1.679c.967-.655 2.304-1.025 3.612-1.025 2.816-.03 3.129 2.05 3.129 3.159v.284c-5.318-.029-8.276 1.792-8.276 5.116 0 1.99 1.422 3.951 4.21 3.951 1.961 0 3.44-.967 4.208-2.047h.085l.199 1.742h2.247c-.143-.939-.2-2.105-.2-3.3zm-2.417 3.812c0 .224-.029.508-.113.792-.398 1.165-1.564 2.302-3.385 2.302-1.25 0-2.332-.74-2.332-2.387 0-2.67 3.1-3.154 5.83-3.097zM163.323 80.24v2.56h-2.133v1.905h2.133v7.515c0 1.617.285 2.84.968 3.608.597.654 1.535 1.052 2.701 1.052.967 0 1.735-.17 2.218-.341l-.114-1.905c-.37.113-.767.17-1.45.17-1.393 0-1.877-.967-1.877-2.674v-7.425h3.584v-1.906h-3.584V79.5zM174.67 96.575V82.799h-2.502v13.776zm-1.252-19.192c-.938 0-1.564.712-1.564 1.565s.597 1.535 1.507 1.535c.996 0 1.593-.682 1.593-1.535 0-.882-.626-1.565-1.536-1.565M184.653 82.521c-3.783 0-6.825 2.702-6.825 7.28 0 4.35 2.9 7.08 6.597 7.08 3.3 0 6.854-2.219 6.854-7.308 0-4.18-2.673-7.052-6.626-7.052m-.057 1.878c2.958 0 4.124 2.928 4.124 5.26 0 3.098-1.792 5.344-4.18 5.344-2.447 0-4.153-2.274-4.153-5.288 0-2.587 1.28-5.316 4.209-5.316M194.436 96.575h2.503v-8.279c0-.427.057-.853.17-1.166.456-1.394 1.735-2.56 3.356-2.56 2.361 0 3.185 1.848 3.185 4.068v7.937h2.504V88.38c0-4.722-2.958-5.86-4.864-5.86-2.275 0-3.868 1.28-4.55 2.56h-.057l-.142-2.282h-2.219c.086 1.139.114 2.277.114 3.729zM219.89 88.126c0-2.731-1.024-5.605-5.234-5.605-1.734 0-3.412.484-4.55 1.195l.569 1.679c.967-.655 2.304-1.025 3.612-1.025 2.815-.03 3.128 2.05 3.128 3.159v.284c-5.318-.029-8.276 1.792-8.276 5.116 0 1.99 1.422 3.951 4.21 3.951 1.962 0 3.44-.967 4.208-2.047h.086l.199 1.742h2.247c-.143-.939-.2-2.105-.2-3.3zm-2.417 3.812c0 .224-.03.508-.114.792-.397 1.165-1.564 2.302-3.384 2.302-1.251 0-2.332-.74-2.332-2.387 0-2.67 3.1-3.154 5.83-3.097zM223.928 96.575h2.503V76.383h-2.503zM236.726 77.411v19.164h2.502V77.41zM243.75 96.575h2.503v-8.279c0-.427.057-.853.17-1.166.456-1.394 1.735-2.56 3.356-2.56 2.361 0 3.186 1.848 3.186 4.068v7.937h2.503V88.38c0-4.722-2.958-5.86-4.864-5.86-2.275 0-3.868 1.28-4.55 2.56h-.057l-.142-2.282h-2.219c.086 1.139.114 2.277.114 3.729zM258.596 95.913c.966.57 2.36.967 3.867.967 3.214 0 5.12-1.706 5.12-4.151 0-2.047-1.252-3.241-3.613-4.123-1.791-.71-2.588-1.222-2.588-2.36 0-1.023.797-1.876 2.276-1.876 1.28 0 2.275.483 2.815.825l.598-1.82c-.74-.484-1.963-.854-3.357-.854-2.929 0-4.749 1.82-4.749 4.038 0 1.65 1.166 2.986 3.669 3.895 1.82.683 2.531 1.308 2.531 2.502 0 1.166-.853 2.047-2.645 2.047-1.251 0-2.56-.511-3.327-.966zM271.365 80.24v2.56h-2.133v1.905h2.133v7.515c0 1.617.284 2.84.967 3.608.597.654 1.536 1.052 2.702 1.052.967 0 1.734-.17 2.218-.341l-.114-1.905c-.37.113-.768.17-1.45.17-1.394 0-1.878-.967-1.878-2.674v-7.425h3.584v-1.906h-3.584V79.5zM282.712 96.575V82.799h-2.502v13.776zm-1.251-19.192c-.938 0-1.564.712-1.564 1.565s.597 1.535 1.507 1.535c.995 0 1.592-.682 1.592-1.535 0-.882-.625-1.565-1.535-1.565M287.433 80.24v2.56H285.3v1.905h2.133v7.515c0 1.617.285 2.84.967 3.608.597.654 1.536 1.052 2.702 1.052.967 0 1.735-.17 2.218-.341l-.114-1.905c-.37.113-.767.17-1.45.17-1.394 0-1.877-.967-1.877-2.674v-7.425h3.583v-1.906h-3.583V79.5zM307.796 82.8h-2.503v8.42c0 .483-.085.939-.228 1.28-.454 1.138-1.62 2.304-3.298 2.304-2.247 0-3.072-1.792-3.072-4.409V82.8h-2.503v8.05c0 4.808 2.588 6.031 4.75 6.031 2.446 0 3.925-1.45 4.55-2.56h.057l.142 2.255h2.218c-.085-1.082-.113-2.334-.113-3.786zM312.517 80.24v2.56h-2.133v1.905h2.133v7.515c0 1.617.284 2.84.967 3.608.597.654 1.536 1.052 2.702 1.052.966 0 1.734-.17 2.218-.341l-.114-1.905c-.37.113-.768.17-1.45.17-1.394 0-1.878-.967-1.878-2.674v-7.425h3.584v-1.906h-3.584V79.5zM332.254 90.146c.056-.285.085-.654.085-1.167 0-2.532-1.166-6.458-5.688-6.458-4.01 0-6.455 3.243-6.455 7.397 0 4.148 2.53 6.962 6.768 6.962 2.19 0 3.726-.483 4.607-.881l-.455-1.791c-.91.397-2.019.71-3.81.71-2.532 0-4.665-1.392-4.722-4.772zm-9.641-1.792c.199-1.736 1.28-4.04 3.84-4.04 2.815 0 3.497 2.475 3.469 4.04zM344.198 96.575v-11.87h3.328v-1.906h-3.328v-.736c0-2.125.54-3.965 2.674-3.965.739 0 1.223.141 1.592.311l.341-1.933a5.7 5.7 0 0 0-2.132-.398c-1.166 0-2.418.37-3.357 1.28-1.137 1.108-1.592 2.864-1.592 4.79v.651h-1.905v1.906h1.905v11.87zM355.233 82.521c-3.783 0-6.826 2.702-6.826 7.28 0 4.35 2.901 7.08 6.598 7.08 3.299 0 6.854-2.219 6.854-7.308 0-4.18-2.673-7.052-6.626-7.052m-.057 1.878c2.958 0 4.124 2.928 4.124 5.26 0 3.098-1.792 5.344-4.181 5.344-2.446 0-4.152-2.274-4.152-5.288 0-2.587 1.28-5.316 4.209-5.316M365.016 96.575h2.503v-7.34c0-.398.03-.825.085-1.167.341-1.877 1.592-3.186 3.356-3.186.34 0 .597 0 .853.057v-2.36c-.228-.03-.427-.058-.683-.058-1.678 0-3.213 1.167-3.839 3.016h-.085l-.114-2.738h-2.19c.085 1.281.114 2.676.114 4.298zM397.039 96.575h2.445L398.29 77.41h-3.157l-3.412 9.27c-.854 2.417-1.536 4.52-2.048 6.454h-.057a91 91 0 0 0-1.934-6.454l-3.27-9.27h-3.157l-1.337 19.164h2.36l.513-8.217c.17-2.9.313-6.084.37-8.473h.056c.54 2.275 1.28 4.72 2.19 7.45l3.128 9.126h1.877l3.385-9.297c.966-2.644 1.735-5.06 2.417-7.279h.057c0 2.36.17 5.602.313 8.274zM413.05 88.126c0-2.731-1.023-5.605-5.233-5.605-1.734 0-3.412.484-4.55 1.195l.569 1.679c.967-.655 2.304-1.025 3.611-1.025 2.816-.03 3.129 2.05 3.129 3.159v.284c-5.318-.029-8.276 1.792-8.276 5.116 0 1.99 1.422 3.951 4.21 3.951 1.962 0 3.44-.967 4.208-2.047h.086l.199 1.742h2.247c-.143-.939-.2-2.105-.2-3.3zm-2.417 3.812c0 .224-.03.508-.114.792-.398 1.165-1.564 2.302-3.384 2.302-1.251 0-2.332-.74-2.332-2.387 0-2.67 3.1-3.154 5.83-3.097zM417.543 80.24v2.56h-2.132v1.905h2.132v7.515c0 1.617.285 2.84.968 3.608.597.654 1.536 1.052 2.702 1.052.966 0 1.734-.17 2.217-.341l-.113-1.905c-.37.113-.768.17-1.45.17-1.394 0-1.878-.967-1.878-2.674v-7.425h3.584v-1.906h-3.584V79.5zM426.388 96.575h2.503v-8.307c0-.455.03-.825.17-1.195.484-1.337 1.736-2.475 3.356-2.475 2.361 0 3.186 1.849 3.186 4.068v7.909h2.503V88.38c0-4.722-2.958-5.86-4.807-5.86a5.13 5.13 0 0 0-2.56.683 4.7 4.7 0 0 0-1.791 1.792h-.057v-8.613h-2.503zM453.235 90.146c.057-.285.086-.654.086-1.167 0-2.532-1.166-6.458-5.688-6.458-4.01 0-6.456 3.243-6.456 7.397 0 4.148 2.531 6.962 6.768 6.962 2.19 0 3.726-.483 4.608-.881l-.455-1.791c-.91.397-2.02.71-3.811.71-2.531 0-4.664-1.392-4.721-4.772zm-9.642-1.792c.2-1.736 1.28-4.04 3.84-4.04 2.815 0 3.498 2.475 3.47 4.04zM456.42 96.575h2.446v-8.279c0-.427.057-.882.199-1.223.398-1.252 1.564-2.504 3.1-2.504 1.906 0 2.872 1.565 2.872 3.756v8.25h2.446v-8.506c0-.456.086-.883.2-1.252.455-1.195 1.535-2.248 2.985-2.248 1.991 0 2.987 1.565 2.987 4.24v7.766h2.446v-8.08c0-4.779-2.702-5.974-4.55-5.974-1.31 0-2.19.342-3.016.968a5.4 5.4 0 0 0-1.564 1.791h-.057c-.597-1.62-2.019-2.759-3.867-2.759-2.304 0-3.584 1.224-4.351 2.532h-.086l-.114-2.254h-2.19c.057 1.139.114 2.277.114 3.729zM489.808 88.126c0-2.731-1.023-5.605-5.233-5.605-1.734 0-3.412.484-4.55 1.195l.569 1.679c.967-.655 2.304-1.025 3.612-1.025 2.815-.03 3.128 2.05 3.128 3.159v.284c-5.318-.029-8.276 1.792-8.276 5.116 0 1.99 1.422 3.951 4.21 3.951 1.962 0 3.44-.967 4.208-2.047h.086l.199 1.742h2.247c-.143-.939-.2-2.105-.2-3.3zm-2.417 3.812c0 .224-.03.508-.114.792-.398 1.165-1.564 2.302-3.384 2.302-1.251 0-2.332-.74-2.332-2.387 0-2.67 3.1-3.154 5.83-3.097zM494.302 80.24v2.56h-2.133v1.905h2.133v7.515c0 1.617.284 2.84.967 3.608.597.654 1.536 1.052 2.702 1.052.966 0 1.734-.17 2.217-.341l-.113-1.905c-.37.113-.768.17-1.45.17-1.394 0-1.878-.967-1.878-2.674v-7.425h3.584v-1.906h-3.584V79.5zM505.65 96.575V82.799h-2.504v13.776zm-1.251-19.192c-.939 0-1.564.712-1.564 1.565s.597 1.535 1.507 1.535c.995 0 1.592-.682 1.592-1.535 0-.882-.625-1.565-1.535-1.565M519.186 94.207a7.2 7.2 0 0 1-3.071.654c-2.73 0-4.778-1.962-4.778-5.146 0-2.843 1.706-5.203 4.863-5.203 1.365 0 2.304.341 2.9.654l.57-1.905c-.683-.37-1.991-.74-3.47-.74-4.493 0-7.394 3.1-7.394 7.336 0 4.208 2.702 7.023 6.854 7.023 1.848 0 3.299-.483 3.953-.796zM532.211 88.126c0-2.731-1.023-5.605-5.233-5.605-1.734 0-3.412.484-4.55 1.195l.569 1.679c.967-.655 2.304-1.025 3.612-1.025 2.815-.03 3.128 2.05 3.128 3.159v.284c-5.318-.029-8.276 1.792-8.276 5.116 0 1.99 1.422 3.951 4.21 3.951 1.962 0 3.44-.967 4.208-2.047h.086l.199 1.742h2.247c-.143-.939-.2-2.105-.2-3.3zm-2.417 3.812c0 .224-.03.508-.114.792-.397 1.165-1.564 2.302-3.384 2.302-1.251 0-2.332-.74-2.332-2.387 0-2.67 3.1-3.154 5.83-3.097zM536.25 96.575h2.503V76.383h-2.503ZM548.11 95.629c1.023.683 3.042 1.251 4.89 1.251 4.522 0 6.684-2.587 6.684-5.541 0-2.812-1.621-4.374-4.863-5.624-2.645-1.023-3.811-1.903-3.811-3.693 0-1.306.995-2.869 3.612-2.869 1.734 0 3.014.54 3.612.91l.682-2.04c-.825-.462-2.275-.917-4.21-.917-3.725 0-6.199 2.218-6.199 5.2 0 2.67 1.934 4.318 5.062 5.454 2.589.966 3.612 2.017 3.612 3.778 0 1.931-1.479 3.266-4.01 3.266-1.706 0-3.299-.54-4.408-1.25zM572.567 94.207a7.2 7.2 0 0 1-3.071.654c-2.73 0-4.778-1.962-4.778-5.146 0-2.843 1.706-5.203 4.863-5.203 1.365 0 2.304.341 2.9.654l.57-1.905c-.683-.37-1.991-.74-3.47-.74-4.493 0-7.394 3.1-7.394 7.336 0 4.208 2.701 7.023 6.854 7.023 1.848 0 3.298-.483 3.953-.796zM578.426 96.575V82.799h-2.503v13.776zm-1.252-19.192c-.938 0-1.564.712-1.564 1.565s.597 1.535 1.507 1.535c.996 0 1.593-.682 1.593-1.535 0-.882-.626-1.565-1.536-1.565M593.64 90.146c.057-.285.086-.654.086-1.167 0-2.532-1.166-6.458-5.688-6.458-4.01 0-6.455 3.243-6.455 7.397 0 4.148 2.53 6.962 6.768 6.962 2.19 0 3.726-.483 4.607-.881l-.455-1.791c-.91.397-2.019.71-3.81.71-2.532 0-4.665-1.392-4.722-4.772zM584 88.354c.199-1.736 1.28-4.04 3.84-4.04 2.815 0 3.497 2.475 3.469 4.04zM596.826 96.575h2.503v-8.279c0-.427.057-.853.17-1.166.455-1.394 1.735-2.56 3.356-2.56 2.36 0 3.185 1.848 3.185 4.068v7.937h2.503V88.38c0-4.722-2.958-5.86-4.863-5.86-2.275 0-3.868 1.28-4.55 2.56h-.057l-.143-2.282h-2.218c.086 1.139.114 2.277.114 3.729zM621.995 94.207a7.2 7.2 0 0 1-3.072.654c-2.73 0-4.777-1.962-4.777-5.146 0-2.843 1.706-5.203 4.863-5.203 1.365 0 2.303.341 2.9.654l.57-1.905c-.683-.37-1.992-.74-3.47-.74-4.494 0-7.395 3.1-7.395 7.336 0 4.208 2.702 7.023 6.854 7.023 1.849 0 3.3-.483 3.954-.796zM636.243 90.146c.057-.285.085-.654.085-1.167 0-2.532-1.166-6.458-5.688-6.458-4.01 0-6.456 3.243-6.456 7.397 0 4.148 2.532 6.962 6.769 6.962 2.19 0 3.726-.483 4.607-.881l-.455-1.791c-.91.397-2.019.71-3.81.71-2.532 0-4.665-1.392-4.722-4.772zm-9.641-1.792c.199-1.736 1.28-4.04 3.84-4.04 2.815 0 3.497 2.475 3.469 4.04zM638.49 95.913c.966.57 2.36.967 3.867.967 3.214 0 5.12-1.706 5.12-4.151 0-2.047-1.252-3.241-3.612-4.123-1.792-.71-2.589-1.222-2.589-2.36 0-1.023.797-1.876 2.276-1.876 1.28 0 2.275.483 2.815.825l.598-1.82c-.74-.484-1.963-.854-3.357-.854-2.929 0-4.749 1.82-4.749 4.038 0 1.65 1.166 2.986 3.669 3.895 1.82.683 2.531 1.308 2.531 2.502 0 1.166-.853 2.047-2.645 2.047-1.251 0-2.56-.511-3.327-.966zM648.614 96.575" style="fill:#6a747b;stroke-width:28.4396"/><path fill="#6a747b" d="M129.323 47.573h16.86v6.182h-15.82v3.726h27.54c.49.023 3.55.32 3.55 3.717l.002-.01v8.98h7.08V60.086c-.022-6.397-6.056-6.331-6.056-6.331h.007-9.228v-6.182h16.883v-3.746h-40.818zM376.406 26.37h-7.077v43.624h7.077V46.112h5.878v-3.737h-5.878zM418.854 28.832h-10.526v-3.158h-7.077v3.158h-10.412v3.743h28.015zM429.29 26.37h-7.075v25.743h7.074V39.08h5.874v-3.736h-5.874zM477.39 57.153h7.074V25.86h-7.074v5.11h-5.371v3.74h5.37v7.053h-5.37v3.733h5.37zM232.86 53.808h17.479V69.72h7.074V53.808h17.305v-3.736H232.86zM495.889 53.808h17.315V69.72h7.077V53.808h17.466v-3.736h-41.858zM217.796 26.37h-7.077v43.624h7.077V46.112h5.874v-3.737h-5.874zM317.62 69.993h7.07V26.37h-7.07zM351.606 42.326h-7.078v16.618h-6.681v3.737h29.874v-3.737h-16.115zM572.13 58.944V49.39h-7.078v9.555h-17.678v3.737h44.199v-3.737zM161.453 34.83h.003v6.982h7.08v-8.084l-.01.016c0-6.142-5.544-6.354-6.024-6.354h-32.14v3.73h27.55c.53.026 3.54.35 3.54 3.71M423.22 54.207h.007-30.04v3.736h25.608c.487.026 3.547.327 3.547 3.717v-.013 8.244h6.936v-9.349c-.016-6.384-6.057-6.335-6.057-6.335M527.84 35.526v11.196h6.933V34.408c-.016-6.388-6.05-6.332-6.05-6.332h-31.31v3.736h26.87c.49.023 3.557.327 3.557 3.714M456.56 60.033l-.006.01v-6.767h-6.934v7.878c.02 6.388 6.054 6.335 6.054 6.335h29.476v-3.74h-25.04c-.49-.029-3.55-.33-3.55-3.716" style="stroke-width:3.26886"/><path fill="#6a747b" d="M357.313 35.529v-.003V53.92h6.652V34.408c-.02-6.38-6.057-6.332-6.057-6.332h.006-19.502v3.737h15.35c.485.029 3.55.333 3.55 3.716M294.12 55.228l-.007.01v-9.067h15.131v-2.416h.003v-9.346c-.023-6.38-6.057-6.335-6.057-6.335h-16.837v3.74h12.69c.483.03 3.543.33 3.543 3.717l.013-.003v6.897h-15.135v3.092h-.007V56.35c.017 6.384 6.06 6.329 6.06 6.329h-.006 19.894v-3.733h-15.736c-.484-.03-3.55-.327-3.55-3.717M253.859 32.528c2.991 4.95 8.963 10.948 20.506 11.918v-3.605s-12.703-1.05-17.711-15.017c.01-.069.02-.111.02-.111h-5.633s.01.042.023.11c-5.011 13.969-17.71 15.018-17.71 15.018v3.605c11.535-.97 17.507-6.969 20.505-11.918M198.853 27.147H181.65v3.733h12.615c.526.029 3.507.356 3.537 3.664l-.05-.467c.275 3.004 1.769 17.105-16.566 26.618v4.047c5.459-2.047 23.683-10.438 23.683-31.172l.006-.069c0-6.139-5.544-6.348-6.021-6.354M405.318 36.918c3.282 0 5.937 2.183 5.937 5.743 0 3.808-2.655 5.747-5.937 5.747-3.278 0-5.933-2.043-5.933-5.747 0-3.75 2.655-5.743 5.933-5.743m-.007 14.314c6.924 0 12.533-2.697 12.533-8.57 0-5.875-5.61-8.568-12.533-8.568-6.916 0-12.526 2.448-12.526 8.567 0 6.123 5.61 8.571 12.526 8.571M452.047 38.194c0-5.638 2.33-8.64 5.213-8.64 2.877 0 5.208 3.29 5.208 8.64 0 5.714-2.331 8.63-5.208 8.63-2.883 0-5.213-3.076-5.213-8.63m17.455-.071c0-7.967-5.498-11.638-12.284-11.638s-12.284 3.331-12.284 11.638c0 8.312 5.498 11.637 12.284 11.637s12.284-3.665 12.284-11.637M569.263 32.544c5.459 15.985 20.701 16.24 20.701 16.24V46.1c-13.425-3.252-15.484-16.347-16.177-20.23h-9.1c-.86 3.955-3.426 17.52-16.132 20.23v2.684s15.236-.255 20.708-16.24" style="stroke-width:3.26886"/></svg>