<svg xmlns="http://www.w3.org/2000/svg" width="1014.63pt" height="200pt" viewBox="0 0 1014.63 200"><path fill="#faa725" d="M200.852 165.15c-16.34 16.112-39.398 24.17-62.769 19.6h.003c-15.212-2.974-28.265-10.873-38.038-21.832 47.794-13.584 83.504-56.06 106.88-38.8 10.488 7.741 9.207 25.708-6.076 41.032m25.606-78.029c-22.256-4.352-42.231 9.252-67.375 25.894C137.79 127.11 79.023 172.63 7.326 95.29c-1.538-1.66-4.253-1.118-5.06.996-7.614 19.967 4.456 48.994 28.759 60.757 18.911 9.155 36.556 11.193 52.933 9.175 13.51 15.98 32.326 27.66 54.467 31.99 38.091 7.45 75.316-8.884 96.33-38.673 21.162-30.522 16.305-67.6-8.297-72.413" style="stroke-width:2.82223"/><path fill="#5bb1e3" d="M337.071 49.919c1.296-3.88-2.292-7.267-6.141-5.845-75.142 27.745-119.363-76.973-213.25-33.251C88.093 24.6 66.921 54.305 62.96 84.51c-2.803 21.347 4.055 39.63 14.757 39.658.437.003.584-.356.527-.787-1.134-8.961-.99-17.402 1.191-27.353 9.875-45.072 47.386-68.12 80.442-66.636 61.302 2.751 72.673 54.762 124.06 56.91 31.366 1.31 47.952-20.865 53.134-36.384" style="stroke-width:2.82223"/><path fill="#343f84" d="M780.483 155.272h-15.965v30.7a7.415 7.415 0 0 0 7.414 7.414h42.466v-11.769h-33.915zM411.533 91.608a7.413 7.413 0 0 0-7.414-7.414h-52.265v11.769h43.713v28.414H337.34v11.769h37.355v15.561H353.31v11.77h42.497v29.91h15.963V159.12a7.413 7.413 0 0 0-7.414-7.414H390.66v-15.561h37.352v-11.769h-16.48zM510.46 83.38h-15.965v67.393h15.965v-31.126h17.052v-11.77H510.46zM469.616 87.713h-41.571V99.48h33.022v44.665h15.963v-49.02a7.413 7.413 0 0 0-7.414-7.413M672.585 155.272H656.62v30.7a7.416 7.416 0 0 0 7.417 7.414H706.5v-11.769h-33.915zM529.284 155.916h20.362v26.256h15.966v-26.256h16.244v26.256h15.966v-26.256h20.365v-11.768h-88.903zM669.552 139.502l.39.158 8.475-11.546-.573-.285c-6.754-3.375-11.95-7.354-15.449-11.83-3.469-4.431-5.23-9.125-5.23-13.942V86.359h-15.962v15.698c0 4.546-1.716 9.127-5.106 13.614-3.409 4.516-8.65 8.608-15.581 12.158l-.562.291 8.473 11.543.39-.164c3.73-1.544 7.464-3.827 11.099-6.779a56 56 0 0 0 9.262-9.59 52.2 52.2 0 0 0 9.139 9.59c3.632 2.952 7.414 5.235 11.235 6.782M705.617 83.38h-15.965v63.335h15.965V119.51h16.168v-11.769h-16.168zM800.197 146.714h15.966V83.381h-15.966zM779.61 140.313l.386.155 8.478-11.543-.573-.285c-6.756-3.375-11.952-7.355-15.449-11.828-3.471-4.433-5.232-9.127-5.232-13.944v-4.135h18.742V86.964h-53.04v11.769h18.335v4.135c0 4.549-1.716 9.13-5.102 13.614-3.41 4.518-8.65 8.61-15.582 12.161l-.562.288 8.473 11.543.392-.164c3.728-1.544 7.46-3.824 11.094-6.776a56 56 0 0 0 9.263-9.593 52.2 52.2 0 0 0 9.141 9.593c3.63 2.952 7.411 5.232 11.235 6.779M826.752 147.716h90.67v-11.771h-90.67zM872.088 185.835c-5.613 0-10.165-4.518-10.165-10.095 0-5.574 4.552-10.095 10.165-10.095 5.614 0 10.166 4.521 10.166 10.095 0 5.577-4.552 10.095-10.166 10.095m0-34.352c-13.49 0-24.429 10.86-24.429 24.257S858.6 200 872.09 200s24.426-10.863 24.426-24.26-10.936-24.257-24.427-24.257M573.668 96.45c5.901 0 10.685 4.75 10.685 10.612 0 5.86-4.784 10.612-10.685 10.612s-10.685-4.753-10.685-10.612c0-5.862 4.783-10.611 10.685-10.611m0 36.113c14.181 0 25.68-11.419 25.68-25.502s-11.499-25.501-25.68-25.501c-14.182 0-25.68 11.418-25.68 25.501s11.498 25.502 25.68 25.502M986.018 157.348h-15.965v28.623a7.415 7.415 0 0 0 7.414 7.414h37.163v-11.769h-28.612z" style="stroke-width:2.82223"/><path fill="#343f84" d="M992.342 135.945h-66.675v11.769h21.093v19.761h15.963v-19.761h29.619z" style="stroke-width:2.82223"/><path fill="#343f84" d="M998.664 83.38v24.47h-13.08v11.768h13.08v33.458h15.966V83.38ZM954.805 98.275c5.326 0 9.641 4.287 9.641 9.573s-4.315 9.573-9.64 9.573c-5.323 0-9.641-4.287-9.641-9.573s4.318-9.573 9.64-9.573m0 32.58c12.796 0 23.165-10.301 23.165-23.007 0-12.705-10.369-23.007-23.165-23.007-12.793 0-23.164 10.302-23.164 23.007s10.371 23.007 23.164 23.007M872.29 119.557c-4.897 0-8.868-3.17-8.868-8.837 0-4.882 3.971-8.839 8.868-8.839 4.896 0 8.867 3.957 8.867 8.84 0 5.666-3.97 8.836-8.867 8.836m-23.478-8.837c0 13.573 10.512 21.161 23.478 21.161 12.968 0 23.478-7.588 23.478-21.16 0-3.108-.782-6.037-2.12-8.69h10.375V90.259H880.61V80h-15.963v10.26H840.15v11.77h10.781c-1.338 2.654-2.12 5.583-2.12 8.69M521.526 38.025v12.457h-6.33V16.638h6.33v13.391l12.113-13.391h7.606l-12.61 13.586 13.49 20.258h-7.651l-9.86-15.745zM555.518 31.352c-4.12 0-6.376 3.138-6.376 7.213 0 4.07 2.255 7.256 6.376 7.256 4.021 0 6.378-3.186 6.378-7.256 0-4.075-2.357-7.213-6.378-7.213m-12.9 7.357c0-7.504 5.59-12.41 12.9-12.41 7.261 0 12.852 4.906 12.852 12.41 0 7.507-5.59 12.314-12.852 12.314-7.31 0-12.9-4.807-12.9-12.314M578.914 26.742l-.096 3.827h.147c.931-2.551 3.285-4.27 5.836-4.27 1.618 0 2.5.443 2.5.443l-.44 5.444h-.296c-.686-.195-1.764-.296-2.599-.296-1.863 0-3.285.787-4.168 2.308-.587 1.175-.884 2.797-.884 4.61v11.675h-6.226v-23.74zM594.954 36.552h11.379c-.096-2.6-1.078-5.591-5.492-5.591-3.728 0-5.693 2.6-5.887 5.59m7.16 9.664c3.191 0 6.036-1.422 7.162-2.402l2.453 3.381c-1.324 1.375-4.905 3.827-10.694 3.827-7.16 0-12.457-4.366-12.457-12.017 0-7.6 5.54-12.706 12.31-12.706 7.31 0 11.724 4.81 11.724 11.137 0 1.225-.099 3.186-.099 3.186h-17.46c.586 3.78 3.482 5.594 7.06 5.594M621.737 43.37c0 2.011 1.52 3.386 4.12 3.386 2.453 0 4.267-1.425 5.103-2.6V39.79l-4.268.243c-3.338.198-4.955 1.327-4.955 3.336m2.06 7.651c-4.609 0-8.34-2.5-8.34-7.456 0-4.953 4.857-6.864 9.762-7.208l5.69-.392v-.638c0-3.04-2.012-4.462-5.298-4.462-3.14 0-5.737 1.174-6.767 1.961l-1.914-4.021c1.815-1.079 5.15-2.504 9.271-2.504 4.217 0 6.621 1.081 8.388 2.746 1.716 1.671 2.6 3.827 2.6 7.849V50.48h-6.035l-.096-2.746c-.982 1.716-3.73 3.285-7.261 3.285M659.16 35.521v14.96h-6.379V16.639h6.379v13.538h15.796V16.638h6.327v33.844h-6.327v-14.96zM692.417 36.552h11.379c-.096-2.6-1.078-5.591-5.492-5.591-3.728 0-5.693 2.6-5.887 5.59m7.16 9.664c3.189 0 6.037-1.422 7.163-2.402l2.452 3.381c-1.324 1.375-4.905 3.827-10.693 3.827-7.16 0-12.458-4.366-12.458-12.017 0-7.6 5.54-12.706 12.31-12.706 7.31 0 11.724 4.81 11.724 11.137 0 1.225-.098 3.186-.098 3.186h-17.461c.587 3.78 3.482 5.594 7.06 5.594M720.474 26.742l-.096 3.827h.146c.932-2.551 3.286-4.27 5.837-4.27 1.617 0 2.5.443 2.5.443l-.44 5.444h-.296c-.686-.195-1.764-.296-2.6-.296-1.862 0-3.285.787-4.168 2.308-.587 1.175-.883 2.797-.883 4.61v11.675h-6.226v-23.74zM738.427 50.482h-6.28v-23.74h6.28zm-6.917-31c0-2.009 1.57-3.482 3.776-3.482 2.207 0 3.776 1.473 3.776 3.483 0 2.06-1.569 3.482-3.776 3.482s-3.776-1.422-3.776-3.482M754.565 45.773c1.276 0 2.258-.392 2.258-.392l.341 4.857c-.293.096-2.159.785-4.806.785-4.857 0-6.866-2.21-6.866-8.388V31.648h-3.531v-4.857h3.53v-6.77h6.23v6.77h5.491v4.857h-5.492v9.613c0 3.629.638 4.512 2.845 4.512M765.257 43.37c0 2.011 1.522 3.386 4.12 3.386 2.453 0 4.268-1.425 5.103-2.6V39.79l-4.267.243c-3.338.198-4.956 1.327-4.956 3.336m2.06 7.651c-4.608 0-8.34-2.5-8.34-7.456 0-4.953 4.858-6.864 9.763-7.208l5.69-.392v-.638c0-3.04-2.013-4.462-5.298-4.462-3.14 0-5.74 1.174-6.767 1.961l-1.914-4.021c1.815-1.079 5.15-2.504 9.271-2.504 4.217 0 6.621 1.081 8.388 2.746 1.716 1.671 2.6 3.827 2.6 7.849V50.48h-6.035l-.096-2.746c-.982 1.716-3.73 3.285-7.261 3.285M797.58 31.255c-4.117 0-6.57 3.04-6.57 6.915 0 3.629 2.351 6.62 6.474 6.62 4.513 0 6.768-2.991 6.768-6.62 0-3.432-2.551-6.915-6.672-6.915m-1.862 18.443c-5.986 0-11.086-3.827-11.086-11.382 0-6.57 4.612-12.017 11.673-12.017 3.189 0 5.887 1.177 7.555 3.731h.099l-.048-3.288h6.226v18.836c0 5.198-1.078 8.142-3.088 10.25-2.06 2.16-5.102 4.172-10.792 4.172-5.642 0-9.86-2.701-11.035-3.534l2.597-4.366c1.52 1.078 5.396 2.797 8.438 2.797 3.384 0 5.15-1.081 6.031-2.111.883-1.03 1.623-2.992 1.623-5.639V45.97h-.1c-1.619 2.453-4.461 3.728-8.093 3.728M820.832 36.552h11.38c-.097-2.6-1.079-5.591-5.493-5.591-3.728 0-5.692 2.6-5.887 5.59m7.16 9.664c3.192 0 6.037-1.422 7.163-2.402l2.452 3.381c-1.323 1.375-4.905 3.827-10.693 3.827-7.16 0-12.458-4.366-12.458-12.017 0-7.6 5.54-12.706 12.311-12.706 7.31 0 11.724 4.81 11.724 11.137 0 1.225-.1 3.186-.1 3.186h-17.46c.587 3.78 3.482 5.594 7.06 5.594M870.668 37.582 865.616 23.9l-5.103 13.682zm-11.727 5.1-2.943 7.8h-6.621l13.295-33.892h6.178l13.293 33.892h-6.965l-2.944-7.8zM895.977 31.255c-4.117 0-6.57 3.04-6.57 6.915 0 3.629 2.354 6.62 6.474 6.62 4.513 0 6.77-2.991 6.77-6.62 0-3.432-2.553-6.915-6.674-6.915m-1.862 18.443c-5.986 0-11.086-3.827-11.086-11.382 0-6.57 4.611-12.017 11.673-12.017 3.189 0 5.887 1.177 7.555 3.731h.099l-.048-3.288h6.225v18.836c0 5.198-1.078 8.142-3.087 10.25-2.06 2.16-5.103 4.172-10.792 4.172-5.642 0-9.858-2.701-11.035-3.534l2.596-4.366c1.521 1.078 5.396 2.797 8.439 2.797 3.384 0 5.15-1.081 6.034-2.111.88-1.03 1.62-2.992 1.62-5.639V45.97h-.1c-1.62 2.453-4.461 3.728-8.093 3.728M919.226 36.552h11.38c-.097-2.6-1.079-5.591-5.493-5.591-3.728 0-5.692 2.6-5.887 5.59m7.16 9.664c3.192 0 6.037-1.422 7.163-2.402l2.453 3.381c-1.324 1.375-4.906 3.827-10.694 3.827-7.16 0-12.457-4.366-12.457-12.017 0-7.6 5.54-12.706 12.31-12.706 7.31 0 11.721 4.81 11.721 11.137 0 1.225-.096 3.186-.096 3.186h-17.461c.587 3.78 3.483 5.594 7.061 5.594M952.531 31.451c-3.875 0-5.196 3.234-5.196 7.208v11.822h-6.28V26.744h6.28l-.054 3.578h.15c1.273-2.5 3.677-4.021 7.112-4.021 6.818 0 8.534 4.416 8.534 10.103v14.077h-6.276V37.78c0-3.531-.64-6.328-4.27-6.328M987.017 43.221l1.767 4.612c-.491.44-2.944 3.19-9.274 3.19-6.474 0-12.457-4.463-12.457-12.216 0-7.8 6.178-12.508 12.556-12.508 5.983 0 8.34 2.405 8.975 3.043l-1.713 4.71c-.74-.689-2.848-2.503-6.525-2.503-3.729 0-6.72 2.599-6.72 6.965 0 4.363 2.991 7.21 7.061 7.21 4.075 0 6.33-2.503 6.33-2.503M995.648 26.742l6.28 16.823 6.178-16.823h6.522l-11.035 26.927c-1.719 4.171-3.677 6.184-7.013 6.184-3.387 0-5.591-.983-5.591-.983l1.273-4.806s1.67.587 2.845.587c1.224 0 2.255-.344 2.746-1.569l1.03-2.453-9.807-23.887z" style="stroke-width:2.82223"/></svg>