<svg xmlns="http://www.w3.org/2000/svg" xml:space="preserve" width="1275.5294" height="200" viewBox="0 0 1275.5294 200"><defs><clipPath id="a" clipPathUnits="userSpaceOnUse"><path d="M115.9 707.204c-2.371-1.777-4.683-3.844-5.95-7.196l.002.02c-1.562-3.647-2.518-7.232-3.498-8.229.548.489 2.582 2.298 3.017 2.663a106.238 106.238 0 0 0 9.927 7.462 105.502 105.502 0 0 0 10.739 6.244l-3.45 5.209-.005-.001-.043.071c-3.654-1.85-7.383-3.728-10.739-6.243m-9.583-15.526c.046.035.091.075.137.121l-.137-.121"/></clipPath><clipPath id="c" clipPathUnits="userSpaceOnUse"><path d="M0 841.89h595.276V0H0Z"/></clipPath><clipPath id="d" clipPathUnits="userSpaceOnUse"><path d="m110.413 702.451.135.12a1.213 1.213 0 0 1-.135-.12m-3.018-2.663a105.511 105.511 0 0 0-20.665-13.712l3.454-5.207.002.003.046-.073c3.653 1.851 7.351 3.772 10.737 6.246 2.371 1.731 4.665 3.844 5.948 7.197l-.002-.02c1.563 3.65 2.518 7.235 3.498 8.229a326.207 326.207 0 0 0-3.018-2.663"/></clipPath><clipPath id="f" clipPathUnits="userSpaceOnUse"><path d="M0 841.89h595.276V0H0Z"/></clipPath><linearGradient id="b" x1="0" x2="1" y1="0" y2="0" gradientTransform="matrix(23.8208 0 0 -23.8208 106.317 702.563)" gradientUnits="userSpaceOnUse" spreadMethod="pad"><stop offset="0" style="stop-opacity:1;stop-color:#0a8137"/><stop offset="0.32788605" style="stop-opacity:1;stop-color:#6ec72e"/><stop offset="1" style="stop-opacity:1;stop-color:#6ec72e"/></linearGradient><linearGradient id="e" x1="0" x2="1" y1="0" y2="0" gradientTransform="matrix(23.8183 0 0 -23.8183 86.73 691.685)" gradientUnits="userSpaceOnUse" spreadMethod="pad"><stop offset="0" style="stop-opacity:1;stop-color:#fab20b"/><stop offset="0.64195307" style="stop-opacity:1;stop-color:#fab20b"/><stop offset="1" style="stop-opacity:1;stop-color:#a73e10"/></linearGradient></defs><g clip-path="url(#a)" transform="matrix(6.05873 0 0 -6.05873 -469.946 4323.685)"><path d="M115.9 707.204c-2.371-1.777-4.683-3.844-5.95-7.196l.002.02c-1.562-3.647-2.518-7.232-3.498-8.229.548.489 2.582 2.298 3.017 2.663a106.238 106.238 0 0 0 9.927 7.462 105.502 105.502 0 0 0 10.739 6.244l-3.45 5.209-.005-.001-.043.071c-3.654-1.85-7.383-3.728-10.739-6.243m-9.583-15.526c.046.035.091.075.137.121l-.137-.121" style="fill:url(#b);stroke:none"/></g><g clip-path="url(#c)" transform="matrix(6.05873 0 0 -6.05873 -469.946 4323.685)"><path d="m0 0-.049.072a106.66 106.66 0 0 1-10.733-6.244 106.73 106.73 0 0 1-9.929-7.465l3.503-5.278A105.597 105.597 0 0 0 3.454-5.207L0 0" style="fill:#26b481;fill-opacity:1;fill-rule:nonzero;stroke:none" transform="translate(131.398 706.258)"/><path d="m0 0-.044.07a105.289 105.289 0 0 1-20.665-13.712l3.501-5.276a105.405 105.405 0 0 0 9.929 7.463A106.3 106.3 0 0 0 3.454-5.209L0-.002" style="fill:#2d7bc8;fill-opacity:1;fill-rule:nonzero;stroke:none" transform="translate(135.855 699.536)"/><path d="m0 0 .044-.069a106.071 106.071 0 0 1 10.738 6.243c3.495 2.321 6.8 4.818 9.928 7.464l-3.501 5.278a106.127 106.127 0 0 0-9.929-7.461A106.138 106.138 0 0 0-3.457 5.207L-.003 0" style="fill:#ee293d;fill-opacity:1;fill-rule:nonzero;stroke:none" transform="translate(81.022 694.712)"/><path d="m0 0 .046-.07a106.733 106.733 0 0 1 10.736 6.244 107.177 107.177 0 0 1 9.929 7.465l-3.503 5.278a105.984 105.984 0 0 0-9.927-7.463A106.13 106.13 0 0 0-3.457 5.207L-.003 0" style="fill:#f46f1b;fill-opacity:1;fill-rule:nonzero;stroke:none" transform="translate(85.643 687.742)"/></g><g clip-path="url(#d)" transform="matrix(6.05873 0 0 -6.05873 -469.946 4323.685)"><path d="m110.413 702.451.135.12a1.213 1.213 0 0 1-.135-.12m-3.018-2.663a105.511 105.511 0 0 0-20.665-13.712l3.454-5.207.002.003.046-.073c3.653 1.851 7.351 3.772 10.737 6.246 2.371 1.731 4.665 3.844 5.948 7.197l-.002-.02c1.563 3.65 2.518 7.235 3.498 8.229a326.207 326.207 0 0 0-3.018-2.663" style="fill:url(#e);stroke:none"/></g><g clip-path="url(#f)" transform="matrix(6.05873 0 0 -6.05873 -469.946 4323.685)"><path d="M0 0h.668v-5.712H-.426l-1.689 4.57a4.59 4.59 0 0 0-.227.857h-.014c.01-.286.014-.582.014-.872v-4.555h-.664V0h1.084L-.21-4.676c.071-.176.129-.357.21-.625h.016C.009-5.094 0-4.873 0-4.66Z" style="fill:#25262c;fill-opacity:1;fill-rule:nonzero;stroke:none" transform="translate(150.837 689.377)"/><path d="M0 0c-.313-.176-.667-.305-1.004-.456-.297-.13-.395-.442-.395-.731 0-.426.113-.702.628-.702.241 0 .771.178.771.864zm1.045-2.285c-.048-.007-.097-.011-.144-.029-.538-.022-.74.022-.806.603H.083c-.156-.374-.563-.685-.993-.685-.889 0-1.147.472-1.147 1.239 0 .162.023.77.643 1.028.363.15 1.262.471 1.341.536C.066.505.05.67.05.892c0 .479-.194.661-.71.661-.576 0-.658-.25-.649-.746h-.572c-.033.875.427 1.257 1.328 1.257C.773 2.064.66 1.016.66.916v-2.429c0-.107-.015-.26.113-.322.088-.022.186-.013.272-.007z" style="fill:#25262c;fill-opacity:1;fill-rule:nonzero;stroke:none" transform="translate(154.828 685.949)"/><path d="M0 0h.748v-.513H.011v-2.883c0-.144-.057-.329.297-.329h.426v-.511h-.7c-.378-.007-.66.053-.66.696v3.027h-.619V0h.619v1.148H0Z" style="fill:#25262c;fill-opacity:1;fill-rule:nonzero;stroke:none" transform="translate(157.806 687.9)"/><path d="M159.704 687.9h.636v-4.236h-.636zm0 1.477h.636v-.762h-.636z" style="fill:#25262c;fill-opacity:1;fill-rule:nonzero;stroke:none"/><path d="M0 0c-.653 0-.942-.485-.942-1.765 0-.997.201-1.677.942-1.677.753 0 .94.68.94 1.677C.94-.485.668 0 0 0m0-3.949c-.965 0-1.602.549-1.602 2.376 0 1.278.5 2.085 1.602 2.085s1.599-.807 1.599-2.085C1.599-3.41.983-3.949 0-3.949" style="fill:#25262c;fill-opacity:1;fill-rule:nonzero;stroke:none" transform="translate(163.32 687.502)"/><path d="M0 0c.324.368.654.579 1.136.579.669 0 1.101-.332 1.101-1.083V-3.77h-.633v3.101c0 .441-.154.736-.669.736a.939.939 0 0 1-.629-.234C.051-.387.02-.63.02-.937V-3.77h-.636V.466H0Z" style="fill:#25262c;fill-opacity:1;fill-rule:nonzero;stroke:none" transform="translate(166.932 687.434)"/><path d="M0 0c-.312-.176-.667-.305-1.002-.456-.3-.13-.396-.442-.396-.731 0-.426.115-.702.629-.702.24 0 .769.178.769.864zm1.048-2.285c-.05-.007-.098-.011-.146-.029-.539-.022-.741.022-.806.603H.081c-.153-.374-.563-.685-.99-.685-.889 0-1.147.472-1.147 1.239 0 .162.023.77.643 1.028.363.15 1.262.471 1.341.536.136.098.121.263.121.485 0 .479-.192.661-.706.661-.581 0-.661-.25-.652-.746h-.569c-.035.875.425 1.257 1.326 1.257C.776 2.064.66 1.016.66.916v-2.429c0-.107-.012-.26.116-.322.086-.022.182-.013.272-.007z" style="fill:#25262c;fill-opacity:1;fill-rule:nonzero;stroke:none" transform="translate(172.453 685.949)"/><path d="M174.696 689.377h.633v-5.712h-.633zM179.498 689.377h.67v-5.712h-.67z" style="fill:#25262c;fill-opacity:1;fill-rule:nonzero;stroke:none"/><path d="M0 0c.321.368.653.579 1.133.579.667 0 1.102-.332 1.102-1.083V-3.77H1.6v3.101c0 .441-.153.736-.665.736a.938.938 0 0 1-.631-.234C.047-.387.016-.63.016-.937V-3.77h-.633V.466H0Z" style="fill:#25262c;fill-opacity:1;fill-rule:nonzero;stroke:none" transform="translate(182.552 687.434)"/><path d="M0 0c.024.501-.17.736-.709.736-.45 0-.706-.196-.706-.637 0-.549.474-.618.908-.79C.135-.97.779-1.122.779-1.911c0-.808-.597-1.31-1.512-1.302-.393-.008-.874.122-1.109.44-.266.336-.249.619-.249.907h.603c-.023-.516.162-.84.755-.84.516 0 .852.202.852.718 0 .602-.643.655-1.099.838-.692.243-1.097.464-1.097 1.202 0 .732.541 1.196 1.311 1.196C.119 1.248.635.865.617 0z" style="fill:#25262c;fill-opacity:1;fill-rule:nonzero;stroke:none" transform="translate(188.202 686.765)"/><path d="M0 0h.748v-.513H.01v-2.883c0-.144-.057-.329.297-.329h.424v-.511H.032c-.378-.007-.658.053-.658.696v3.027h-.619V0h.619v1.148H0Z" style="fill:#25262c;fill-opacity:1;fill-rule:nonzero;stroke:none" transform="translate(191.05 687.9)"/><path d="M192.947 687.9h.635v-4.236h-.635zm0 1.477h.635v-.762h-.635z" style="fill:#25262c;fill-opacity:1;fill-rule:nonzero;stroke:none"/><path d="M0 0h.746v-.513H.01v-2.883c0-.144-.06-.329.295-.329h.428v-.511H.035c-.38-.007-.662.053-.662.696v3.027h-.617V0h.617v1.148H0Z" style="fill:#25262c;fill-opacity:1;fill-rule:nonzero;stroke:none" transform="translate(195.87 687.9)"/><path d="M0 0h-.021A1.172 1.172 0 0 0-1.08-.67c-.669 0-1.076.336-1.076 1.081v3.267h.633V.389c0-.358.121-.552.569-.552.308 0 .591.131.766.377.146.211.188.503.188.745v2.719h.631V-.558H0Z" style="fill:#25262c;fill-opacity:1;fill-rule:nonzero;stroke:none" transform="translate(199.965 684.222)"/><path d="M0 0h.747v-.513H.008v-2.883c0-.144-.056-.329.296-.329h.425v-.511H.03c-.376-.007-.658.053-.658.696v3.027h-.621V0h.621v1.148H0Z" style="fill:#25262c;fill-opacity:1;fill-rule:nonzero;stroke:none" transform="translate(202.926 687.9)"/><path d="M0 0c-.027.496.007 1.278-.735 1.278-.735 0-.755-.775-.776-1.278Zm.626-1.149c.041-.831-.41-1.522-1.35-1.522-.846 0-1.446.533-1.446 2.238 0 .892.246 2.223 1.431 2.223C.705 1.79.626.496.66-.493h-2.171c.014-.575-.089-1.671.802-1.671.613 0 .781.535.742 1.015z" style="fill:#25262c;fill-opacity:1;fill-rule:nonzero;stroke:none" transform="translate(206.76 686.223)"/><path d="M0 0h-.653v.513h.646v.359c0 .25 0 .599.156.811.212.283.587.359 1.184.306v-.51c-.516.045-.699 0-.699-.518V.513h.699V0H.634v-3.723H0Z" style="fill:#25262c;fill-opacity:1;fill-rule:nonzero;stroke:none" transform="translate(211.37 687.387)"/><path d="M0 0c-.65 0-.943-.485-.943-1.765 0-.997.202-1.677.943-1.677.755 0 .941.68.941 1.677C.941-.485.667 0 0 0m0-3.949c-.965 0-1.602.549-1.602 2.376C-1.602-.295-1.103.512 0 .512c1.099 0 1.599-.807 1.599-2.085C1.599-3.41.979-3.949 0-3.949" style="fill:#25262c;fill-opacity:1;fill-rule:nonzero;stroke:none" transform="translate(215.266 687.502)"/><path d="M0 0h.017c.268.557.646.789 1.312.738V.142C.51.284.028-.205.028-.977v-2.565h-.637V.693H0Z" style="fill:#25262c;fill-opacity:1;fill-rule:nonzero;stroke:none" transform="translate(218.934 687.207)"/><path d="M0 0v5.712h.666V.574h2.461V0Z" style="fill:#25262c;fill-opacity:1;fill-rule:nonzero;stroke:none" transform="translate(223.832 683.664)"/><path d="M228.159 687.9h.638v-4.236h-.638zm0 1.477h.638v-.762h-.638z" style="fill:#25262c;fill-opacity:1;fill-rule:nonzero;stroke:none"/><path d="M0 0h-.656v.513h.644v.359c0 .25 0 .599.164.811.21.283.588.359 1.183.306v-.51c-.517.045-.702 0-.702-.518V.513h.702V0H.633v-3.723H0Z" style="fill:#25262c;fill-opacity:1;fill-rule:nonzero;stroke:none" transform="translate(230.514 687.387)"/><path d="M0 0c-.022.496.011 1.278-.731 1.278-.741 0-.752-.775-.779-1.278Zm.63-1.149C.672-1.98.22-2.671-.721-2.671c-.848 0-1.447.533-1.447 2.238 0 .892.247 2.223 1.43 2.223C.71 1.79.63.496.666-.493H-1.51c.018-.575-.089-1.671.802-1.671.613 0 .783.535.74 1.015z" style="fill:#25262c;fill-opacity:1;fill-rule:nonzero;stroke:none" transform="translate(234.915 686.223)"/><path d="M236.948 689.377h.633v-5.712h-.633z" style="fill:#25262c;fill-opacity:1;fill-rule:nonzero;stroke:none"/><path d="M0 0c-.652 0-.94-.485-.94-1.765 0-.997.199-1.677.94-1.677.753 0 .938.68.938 1.677C.938-.485.667 0 0 0m0-3.949c-.965 0-1.599.549-1.599 2.376C-1.599-.295-1.104.512 0 .512c1.102 0 1.601-.807 1.601-2.085C1.601-3.41.981-3.949 0-3.949" style="fill:#25262c;fill-opacity:1;fill-rule:nonzero;stroke:none" transform="translate(240.564 687.502)"/><path d="M0 0c.319.368.65.579 1.132.579.668 0 1.102-.332 1.102-1.083V-3.77h-.636v3.101c0 .441-.151.736-.666.736a.939.939 0 0 1-.629-.234C.052-.387.016-.63.016-.937V-3.77h-.638V.466H0Z" style="fill:#25262c;fill-opacity:1;fill-rule:nonzero;stroke:none" transform="translate(244.18 687.434)"/><path d="M0 0c0-1.035.186-1.722.811-1.722.964 0 .955 1.136.955 1.813 0 .838-.181 1.629-.892 1.629C.029 1.72 0 .574 0 0m1.766 2.118h.637v-3.724c0-.519-.043-.914-.339-1.363-.281-.422-.738-.585-1.23-.585-.716 0-1.246.311-1.334 1.034h.618c.055-.381.315-.525.699-.525 1.03 0 .927.959.933 1.424h-.017c-.264-.432-.553-.608-.962-.608-.844 0-1.434.554-1.434 2.26 0 .893.235 2.2 1.419 2.2.407 0 .778-.189.994-.593h.016z" style="fill:#25262c;fill-opacity:1;fill-rule:nonzero;stroke:none" transform="translate(248.414 685.782)"/><path d="M0 0v5.712h3.014v-.571H.666v-1.89h2.202v-.57H.666V.574h2.363V0Z" style="fill:#25262c;fill-opacity:1;fill-rule:nonzero;stroke:none" transform="translate(254.815 683.664)"/><path d="M0 0c0 .58-.015 1.651-.867 1.651-.533 0-.876-.395-.876-1.695 0-.916.033-1.747.899-1.747.66 0 .844.787.844 1.264zm0 3.526h.635v-5.712H.023v.558H.008c-.272-.505-.548-.67-1.085-.67-1.407 0-1.296 1.864-1.311 2.238-.046 1.242.386 2.223 1.344 2.223.456 0 .734-.181 1.029-.548H0Z" style="fill:#25262c;fill-opacity:1;fill-rule:nonzero;stroke:none" transform="translate(261.411 685.85)"/><path d="M0 0h-.017a1.179 1.179 0 0 0-1.06-.67c-.669 0-1.08.336-1.08 1.081v3.267h.636V.389c0-.358.122-.552.57-.552.307 0 .588.131.766.377.146.211.185.503.185.745v2.719h.635V-.558H0Z" style="fill:#25262c;fill-opacity:1;fill-rule:nonzero;stroke:none" transform="translate(265.831 684.222)"/><path d="M0 0c0-.554.042-1.539.855-1.539.69 0 .756.563.785 1.085h.603C2.222-1.27 1.9-2.046.899-2.046-.468-2.046-.66-.965-.66.131c0 1.036.177 2.284 1.546 2.284.9 0 1.336-.665 1.325-1.447h-.593c-.007.465-.139.935-.741.935C-.046 1.903 0 .603 0 0" style="fill:#25262c;fill-opacity:1;fill-rule:nonzero;stroke:none" transform="translate(268.487 685.599)"/><path d="M0 0c-.312-.176-.665-.305-1.002-.456-.297-.13-.395-.442-.395-.731 0-.426.113-.702.63-.702.238 0 .767.178.767.864zm1.043-2.285C1-2.292.95-2.296.903-2.314c-.541-.022-.741.022-.806.603H.082c-.157-.374-.562-.685-.991-.685-.889 0-1.147.472-1.147 1.239 0 .162.023.77.643 1.028.361.15 1.26.471 1.338.536.141.098.124.263.124.485 0 .479-.19.661-.706.661-.58 0-.659-.25-.652-.746h-.57c-.036.875.427 1.257 1.326 1.257C.774 2.064.66 1.016.66.916v-2.429c0-.107-.016-.26.114-.322.089-.022.184-.013.269-.007z" style="fill:#25262c;fill-opacity:1;fill-rule:nonzero;stroke:none" transform="translate(273.75 685.949)"/><path d="M0 0h.745v-.513H.007v-2.883c0-.144-.057-.329.298-.329H.73v-.511H.029c-.379-.007-.659.053-.659.696v3.027h-.618V0h.618v1.148H0Z" style="fill:#25262c;fill-opacity:1;fill-rule:nonzero;stroke:none" transform="translate(276.733 687.9)"/><path d="M278.626 687.9h.634v-4.236h-.634zm0 1.477h.634v-.762h-.634z" style="fill:#25262c;fill-opacity:1;fill-rule:nonzero;stroke:none"/><path d="M0 0c-.655 0-.944-.485-.944-1.765 0-.997.203-1.677.944-1.677.755 0 .937.68.937 1.677C.937-.485.664 0 0 0m0-3.949c-.969 0-1.604.549-1.604 2.376C-1.604-.295-1.106.512 0 .512c1.099 0 1.596-.807 1.596-2.085C1.596-3.41.978-3.949 0-3.949" style="fill:#25262c;fill-opacity:1;fill-rule:nonzero;stroke:none" transform="translate(282.247 687.502)"/><path d="M0 0c.323.368.65.579 1.133.579.667 0 1.103-.332 1.103-1.083V-3.77h-.632v3.101c0 .441-.156.736-.668.736a.92.92 0 0 1-.627-.234C.051-.387.018-.63.018-.937V-3.77h-.635V.466H0Z" style="fill:#25262c;fill-opacity:1;fill-rule:nonzero;stroke:none" transform="translate(285.856 687.434)"/><path d="M0 0h2.089v-9.819H0v3.206h-2.541v1.603H0v.756h-2.523v1.604H0Zm-.956-14.821c.396.39.592.864.592 1.418 0 .562-.187 1.038-.563 1.43a1.84 1.84 0 0 1-1.364.584c-.528 0-.986-.195-1.377-.584a1.952 1.952 0 0 1-.587-1.43c0-.554.189-1.028.56-1.418a1.809 1.809 0 0 1 1.352-.584c.528 0 .99.195 1.387.584m1.521-1.235c-.773-.73-1.727-1.095-2.856-1.095-1.114 0-2.065.365-2.846 1.095-.779.734-1.17 1.62-1.17 2.653 0 1.042.391 1.93 1.17 2.664.781.73 1.732 1.098 2.846 1.098 1.129 0 2.083-.368 2.856-1.098.776-.734 1.163-1.622 1.163-2.664 0-1.033-.387-1.919-1.163-2.653m-7.773 13.73.036-5.118c.242.014.496.023.769.029.267.007.541.014.817.026l.055 5.063zm3.604-4.972c.516.024 1.011.054 1.487.09.474.034.909.073 1.304.108v-1.713a80.185 80.185 0 0 0-3.61-.234 85.165 85.165 0 0 0-3.687-.107h-2.755v1.71h1.73l-.037 5.118h-1.369v1.695h8.307v-1.695h-1.335z" style="fill:#20242c;fill-opacity:1;fill-rule:nonzero;stroke:none" transform="translate(189.69 709.609)"/><path d="M0 0h2.053v-9.478H0v3.999h-1.53v-3.532h-1.985V-.2h1.985v-3.46H0Zm-1.056-11.937a1.829 1.829 0 0 1-1.359.584c-.527 0-.987-.195-1.378-.584a1.954 1.954 0 0 1-.585-1.43c0-.554.185-1.028.557-1.418a1.806 1.806 0 0 1 1.353-.584c.528 0 .989.195 1.388.584.394.39.593.864.593 1.418 0 .562-.189 1.038-.569 1.43M.439-16.02c-.773-.73-1.726-1.095-2.854-1.095-1.117 0-2.065.365-2.846 1.095-.781.734-1.172 1.621-1.172 2.653 0 1.042.391 1.93 1.172 2.664.781.73 1.729 1.098 2.846 1.098 1.128 0 2.081-.368 2.854-1.098.777-.734 1.165-1.622 1.165-2.664 0-1.032-.388-1.919-1.165-2.653m-12.241 8.183a9.72 9.72 0 0 1 1.48 1.338c.43.489.759.98.989 1.471.192.421.342.915.457 1.486.117.572.174 1.132.174 1.683v1.317h2.126v-1.317c0-.515.054-1.04.16-1.575A6.95 6.95 0 0 1-6-4.814c.205-.443.496-.879.883-1.313.384-.433.82-.836 1.314-1.207l-1.079-1.387a9.18 9.18 0 0 0-.899.712 8.168 8.168 0 0 0-.85.837c-.302.349-.526.623-.674.828-.153.204-.238.336-.263.398-.037-.096-.147-.276-.333-.541a11.592 11.592 0 0 0-.658-.847 10.362 10.362 0 0 0-.865-.936c-.3-.29-.659-.572-1.078-.848z" style="fill:#20242c;fill-opacity:1;fill-rule:nonzero;stroke:none" transform="translate(205.157 709.572)"/><path d="M0 0c.145 1.02.255 2.108.34 3.26a33.46 33.46 0 0 1 .091 3.222h-7.965v1.749H2.539c0-1.238-.044-2.622-.136-4.16A56.377 56.377 0 0 0 2.034 0Zm-6.559 3.134h1.963v-4.467h1.746v4.467h1.966v-4.467h5.585v-1.749h-14.864v1.749h3.604z" style="fill:#20242c;fill-opacity:1;fill-rule:nonzero;stroke:none" transform="translate(219.288 700.528)"/><path d="M231.969 698.544h1.944v1.714h-1.944zm-.641 6.29c.416-.41.903-.613 1.47-.613.563 0 1.053.203 1.466.613.416.407.62.905.62 1.492 0 .578-.204 1.07-.62 1.476a2.002 2.002 0 0 1-1.466.615 2.009 2.009 0 0 1-1.47-.615 1.986 1.986 0 0 1-.62-1.476c0-.587.205-1.085.62-1.492m4.394 4.178c.803-.745 1.203-1.64 1.203-2.686s-.406-1.937-1.212-2.685c-.803-.742-1.776-1.115-2.915-1.115-1.141 0-2.115.373-2.923 1.115-.802.748-1.207 1.639-1.207 2.685s.402 1.941 1.2 2.686c.801.745 1.775 1.117 2.93 1.117 1.153 0 2.129-.372 2.924-1.117m-10.42-8.754v1.691h15.061v-1.691h-4.339v-1.714h1.528v-5.476h-2.108v3.765h-7.548v1.711h1.964v1.714zM252.916 709.609h2.093v-11.874h-2.093zm-4.914-11.046v-3.478h7.386v-1.747h-9.495v5.225zm-5.39 8.609v1.713h7.983v-1.713h-2.883v-.628c0-.517.097-1.027.29-1.532.19-.504.424-.932.703-1.278.295-.362.689-.72 1.168-1.072.48-.356.968-.672 1.46-.945l-1.082-1.444a9.647 9.647 0 0 0-1.206.657 9.01 9.01 0 0 0-.972.75c-.299.278-.577.55-.829.821-.253.27-.44.499-.559.693a3.09 3.09 0 0 0-.386-.613 10.68 10.68 0 0 0-.806-.901 10.742 10.742 0 0 0-1.061-.982 9.92 9.92 0 0 0-1.242-.839l-1.334 1.388c.491.289.988.65 1.489 1.081.498.431.907.876 1.231 1.333.251.373.468.816.649 1.334.179.515.268 1.022.268 1.512v.665z" style="fill:#20242c;fill-opacity:1;fill-rule:nonzero;stroke:none"/><path d="M0 0a1.809 1.809 0 0 1-1.266.486C-1.743.486-2.16.323-2.507 0a1.575 1.575 0 0 1-.524-1.208c0-.48.173-.884.524-1.209A1.768 1.768 0 0 1-1.266-2.9c.493 0 .913.161 1.266.483.344.325.516.729.516 1.209C.516-.726.344-.325 0 0m.195-12.161c.395.346.594.78.594 1.296 0 .505-.185.934-.565 1.29-.38.352-.844.531-1.399.531a2.076 2.076 0 0 1-1.422-.525 1.648 1.648 0 0 1-.597-1.296c0-.516.192-.95.57-1.296.378-.351.843-.525 1.394-.525.554 0 1.03.174 1.425.525m1.53 3.729c.793-.672 1.186-1.484 1.186-2.433 0-.936-.393-1.739-1.186-2.413-.793-.672-1.757-1.007-2.9-1.007-1.126 0-2.095.335-2.893 1.007-.799.674-1.193 1.477-1.193 2.413 0 .949.394 1.761 1.193 2.433.798.672 1.767 1.008 2.893 1.008 1.143 0 2.107-.336 2.9-1.008M3.963 2.143V.522H1.922a2.37 2.37 0 0 0 .533-.786c.128-.294.189-.608.189-.944 0-.901-.386-1.668-1.151-2.307-.769-.635-1.69-.955-2.759-.955-1.068 0-1.985.321-2.746.967-.762.64-1.142 1.407-1.142 2.295 0 .336.064.65.189.944.123.298.287.557.491.786H-6.49v1.621h4.107v1.459h2.256V2.143Zm-12.74-7.224H6.322v-1.641H-8.777Z" style="fill:#20242c;fill-opacity:1;fill-rule:nonzero;stroke:none" transform="translate(265.97 706.743)"/><path d="M0 0v1.568h3.386v9.477h2.093V-1.333H3.386V0Zm-1.781-.829v-2.63h7.365v-1.748H-3.89v4.378zm.248 9.63c-.385.366-.801.549-1.258.549-.441 0-.862-.183-1.253-.549a1.765 1.765 0 0 1-.587-1.343c0-.515.194-.957.587-1.322.391-.369.812-.549 1.253-.549.457 0 .873.18 1.258.549.386.365.576.807.576 1.322 0 .529-.19.976-.576 1.343m-4.085 1.208c.781.703 1.72 1.055 2.827 1.055 1.104 0 2.049-.352 2.828-1.055.781-.703 1.169-1.554 1.169-2.551 0-.983-.406-1.808-1.225-2.475-.817-.668-1.741-1.001-2.772-1.001a4.266 4.266 0 0 0-2.786 1.001c-.806.667-1.217 1.492-1.217 2.475 0 .997.393 1.848 1.176 2.551m1.241-8.044-3.642-.018v1.639h3.013c1.211 0 2.604.048 4.181.143 1.57.096 2.779.192 3.619.291V2.415a42.924 42.924 0 0 0-1.956-.19 189.26 189.26 0 0 0-2.606-.188v-2.18H-3.91v2.108z" style="fill:#20242c;fill-opacity:1;fill-rule:nonzero;stroke:none" transform="translate(282.047 698.544)"/><path d="M0 0c.321 1.186.641 3.504.604 4.522h-7.519v1.846h9.798c.037-1.619-.3-4.766-.697-6.368h3.712v-1.771H-.753v-2.47h3.768v-6.106H.811v4.316h-7.896v1.79h4.014v2.47h-6.71V0Z" style="fill:#20242c;fill-opacity:1;fill-rule:nonzero;stroke:none" transform="translate(155.331 702.687)"/><path d="M0 0h2.391v-1.79H0v-7.953h-2.168V4.881H0Zm-11.703-6.087-1.433 1.394a13.248 13.248 0 0 1 4.127 2.771C-7.823-.736-7.05.66-6.898 2.11h-5.088v1.828h7.556c-.094-2.356-.829-4.39-2.035-6.03-1.263-1.715-3.052-3.034-5.238-3.995" style="fill:#20242c;fill-opacity:1;fill-rule:nonzero;stroke:none" transform="translate(175.083 704.703)"/></g></svg>