<svg xmlns="http://www.w3.org/2000/svg" xml:space="preserve" width="273.05264" height="74.342346" viewBox="0 0 273.05264 74.342347"><path d="M0 0c-.416.13-.824.267-1.225.405-.842.297-1.664.637-2.458 1.007a27.506 27.506 0 0 0-8.949 6.651 25.379 25.379 0 0 0-9.263 1.141 1.099 1.099 0 0 1-1.107-1.824c6.2-6.229 15.234-9.36 24.4-7.75C.931-.258.463-.142 0 0" style="fill:#ff8400;fill-opacity:1;fill-rule:nonzero;stroke:none" transform="matrix(1.33333 0 0 -1.33333 34.811 72.522)"/><path d="M0 0a1.094 1.094 0 0 1-1.261.493 25.339 25.339 0 0 0-13.72-.265c-13.626 3.548-21.8 17.421-18.301 31.058a25.374 25.374 0 0 0 6.879 11.879c.363.349.435.904.183 1.338-.261.437-.78.639-1.267.496-8.946-2.699-16.315-9.878-18.829-19.591-3.826-14.803 5.072-29.904 19.879-33.731 9.712-2.508 19.562.461 26.257 6.982.148.142.247.318.299.51C.188-.557.152-.258 0 0" style="fill:#773dbe;fill-opacity:1;fill-rule:nonzero;stroke:none" transform="matrix(1.33333 0 0 -1.33333 71.693 62.064)"/><path d="M0 0c-10.851 10.771-28.381 10.706-39.151-.143-7.069-7.121-9.474-17.121-7.223-26.191a1.091 1.091 0 0 1 1.071-.835c.503.001.939.347 1.059.837a25.325 25.325 0 0 0 6.691 11.98c9.938 9.977 26.041 10.036 36.054.133a25.41 25.41 0 0 0 6.784-11.929 1.09 1.09 0 0 1 1.063-.833 1.1 1.1 0 0 1 1.064.842C9.598-17.051 7.12-7.067 0 0" style="fill:#006072;fill-opacity:1;fill-rule:nonzero;stroke:none" transform="matrix(1.33333 0 0 -1.33333 62.92 24.599)"/><path d="M0 0c-1.896 9.852-8.803 17.477-17.569 20.729a1.11 1.11 0 0 1-.591.051 1.125 1.125 0 0 1-.7-.462 1.105 1.105 0 0 1 .095-1.353 25.324 25.324 0 0 0 6.126-12.283c1.902-9.958-2.047-19.508-9.682-25.166.262-.268.469-.585.742-.84.274-.252.579-.463.866-.704 2.289-1.945 4.794-3.654 7.799-4.723a23.809 23.809 0 0 1 2.862-.819c.453-.107.906-.195 1.362-.274C-1.708-19.567 1.909-9.891 0 0" style="fill:#ff8400;fill-opacity:1;fill-rule:nonzero;stroke:none" transform="matrix(1.33333 0 0 -1.33333 65.473 27.732)"/><path d="m0 0-.532-.626v-1.298c0-.05-.028-.074-.077-.074H-.85c-.048 0-.072.024-.072.074v3.865c0 .053.024.078.072.078h.241c.049 0 .077-.025.077-.078V-.126l1.674 2.067a.25.25 0 0 0 .185.078h.304c.024 0 .037-.01.039-.025.008-.019 0-.036-.015-.053L.252.296l1.53-2.22c.033-.05.027-.074-.019-.074h-.295a.281.281 0 0 0-.097.016.139.139 0 0 0-.071.058z" style="fill:#898989;fill-opacity:1;fill-rule:nonzero;stroke:none" transform="matrix(1.33333 0 0 -1.33333 94.732 70.445)"/><path d="M0 0c0 .226-.032.44-.089.647-.056.205-.14.386-.246.546a1.34 1.34 0 0 1-.451.41 1.218 1.218 0 0 1-.593.143 1.22 1.22 0 0 1-.599-.143 1.387 1.387 0 0 1-.457-.41 1.921 1.921 0 0 1-.24-.546A2.34 2.34 0 0 1-2.763 0c0-.228.029-.444.088-.65.056-.202.136-.385.24-.549.133-.173.289-.307.463-.407.178-.097.374-.146.593-.146.219 0 .417.049.593.142.174.099.327.234.451.411.106.164.19.347.246.549C-.032-.444 0-.228 0 0m.393 0C.387-.643.238-1.147-.051-1.506c-.314-.392-.758-.587-1.328-.587-.572 0-1.019.195-1.333.587-.298.371-.445.874-.445 1.506 0 .299.033.573.108.816.07.24.174.458.313.642.16.199.36.356.59.468.229.108.484.163.767.163.284 0 .538-.055.766-.163a1.56 1.56 0 0 0 .581-.471C.113 1.26.219 1.04.292.801.363.562.397.295.393 0" style="fill:#898989;fill-opacity:1;fill-rule:nonzero;stroke:none" transform="matrix(1.33333 0 0 -1.33333 102.038 70.433)"/><path d="M0 0c0 .153-.016.28-.049.388a.549.549 0 0 1-.176.259.726.726 0 0 1-.317.143 2.167 2.167 0 0 1-.488.044h-.56V-.782h.57c.148 0 .286.018.411.054.125.036.233.091.323.155a.881.881 0 0 1 .214.25A.716.716 0 0 1 0 0m.648-2.769a.072.072 0 0 0 0-.05C.64-2.836.625-2.843.603-2.843H.321a.119.119 0 0 0-.117.074c-.167.341-.302.618-.41.834-.107.215-.194.386-.254.514-.075.147-.136.262-.173.341a1.86 1.86 0 0 0-.233-.035c-.07-.002-.158-.007-.266-.008h-.458v-1.646c0-.05-.024-.074-.075-.074h-.244c-.051 0-.074.024-.074.074v3.775c0 .045 0 .073.004.095 0 .022.005.037.015.047a.07.07 0 0 0 .051.019.621.621 0 0 0 .092.006h1.024c.208 0 .384-.031.534-.084.154-.06.276-.137.375-.24A.894.894 0 0 0 .335.481C.386.339.41.179.41 0a.845.845 0 0 0-.06-.308A1.012 1.012 0 0 0 .196-.58a1.116 1.116 0 0 0-.225-.225 1.589 1.589 0 0 0-.263-.167Z" style="fill:#898989;fill-opacity:1;fill-rule:nonzero;stroke:none" transform="matrix(1.33333 0 0 -1.33333 106.416 69.318)"/><path d="M0 0c-.074 0-.122.003-.133.015-.012.012-.019.061-.019.135v3.736c0 .068.007.111.019.124.011.011.05.016.121.016h1.88c.051 0 .079-.025.079-.075v-.188c0-.053-.028-.075-.079-.075H.241V2.253h1.547c.051 0 .078-.025.078-.076v-.194c0-.05-.027-.077-.078-.077H.241V.346h1.696c.051 0 .074-.027.074-.077V.076C2.011.025 1.988 0 1.937 0Z" style="fill:#898989;fill-opacity:1;fill-rule:nonzero;stroke:none" transform="matrix(1.33333 0 0 -1.33333 108.457 73.113)"/><path d="M0 0c-.152.377-.298.749-.435 1.113-.139.367-.288.739-.439 1.116l-.444-1.116C-1.466.749-1.616.377-1.766 0Zm.945-1.348c.018-.05 0-.074-.05-.074H.636a.135.135 0 0 0-.057.011c-.017.006-.031.027-.046.063l-.402 1h-2.038c-.069-.169-.139-.337-.202-.498-.064-.164-.13-.331-.195-.502-.014-.036-.032-.057-.046-.063a.148.148 0 0 0-.057-.011h-.256c-.049 0-.066.024-.047.074l1.594 3.885c.017.044.051.064.097.064h.332c.046 0 .08-.02.098-.064z" style="fill:#898989;fill-opacity:1;fill-rule:nonzero;stroke:none" transform="matrix(1.33333 0 0 -1.33333 115.515 71.213)"/><path d="M0 0h-.243c-.049 0-.074.024-.074.074v3.799c0 .075.003.121.017.134.014.012.057.016.131.016h.253a.225.225 0 0 0 .094-.013c.018-.007.035-.029.051-.062L2.275.437v3.511c0 .051.024.075.073.075h.24c.05 0 .077-.024.077-.075V.153c0-.079-.006-.122-.019-.135C2.635.007 2.588 0 2.515 0h-.332a.13.13 0 0 0-.064.012c-.012.006-.026.026-.048.052L.079 3.516V.074C.079.024.051 0 0 0" style="fill:#898989;fill-opacity:1;fill-rule:nonzero;stroke:none" transform="matrix(1.33333 0 0 -1.33333 120.055 73.11)"/><path d="M0 0c-.153.377-.297.749-.435 1.113-.143.367-.288.739-.438 1.116-.151-.377-.303-.749-.448-1.116C-1.466.749-1.617.377-1.77 0Zm.942-1.348c.021-.05.004-.074-.047-.074H.633a.113.113 0 0 0-.053.011c-.018.006-.036.027-.049.063l-.399 1h-2.039a21.844 21.844 0 0 1-.202-.498 11.896 11.896 0 0 1-.195-.502c-.014-.036-.032-.057-.048-.063a.151.151 0 0 0-.059-.011h-.252c-.049 0-.067.024-.049.074l1.592 3.885a.103.103 0 0 0 .098.064h.335c.047 0 .076-.02.098-.064z" style="fill:#898989;fill-opacity:1;fill-rule:nonzero;stroke:none" transform="matrix(1.33333 0 0 -1.33333 128.057 71.213)"/><path d="M0 0v-3.604c0-.05-.023-.074-.078-.074h-.248c-.051 0-.075.024-.075.074V0h-1.118c-.051 0-.075.025-.075.075v.187c0 .052.024.077.075.077h2.647c.051 0 .075-.025.075-.077V.075c0-.05-.024-.075-.075-.075Z" style="fill:#898989;fill-opacity:1;fill-rule:nonzero;stroke:none" transform="matrix(1.33333 0 0 -1.33333 131.354 68.206)"/><path d="M0 0h-.265c-.048 0-.072.024-.072.074v3.865c0 .053.024.078.072.078H0c.046 0 .072-.025.072-.078V.074C.072.024.046 0 0 0" style="fill:#898989;fill-opacity:1;fill-rule:nonzero;stroke:none" transform="matrix(1.33333 0 0 -1.33333 134.136 73.11)"/><path d="M0 0c0 .226-.029.44-.086.647-.059.205-.14.386-.244.546a1.388 1.388 0 0 1-.454.41 1.213 1.213 0 0 1-.593.143c-.224 0-.425-.047-.601-.143a1.36 1.36 0 0 1-.451-.41A2.114 2.114 0 0 1-2.759 0c0-.228.027-.444.084-.65.061-.202.143-.385.246-.549.127-.173.283-.307.462-.407.175-.097.374-.146.59-.146.221 0 .417.049.593.142.175.099.325.234.454.411.104.164.185.347.244.549C-.029-.444 0-.228 0 0m.395 0C.387-.643.24-1.147-.047-1.506c-.316-.392-.758-.587-1.33-.587-.574 0-1.018.195-1.335.587-.296.371-.445.874-.445 1.506 0 .299.037.573.108.816.074.24.178.458.317.642.163.199.356.356.586.468.229.108.485.163.769.163.286 0 .543-.055.768-.163.225-.106.421-.264.583-.471.141-.195.245-.415.319-.654C.364.562.401.295.395 0" style="fill:#898989;fill-opacity:1;fill-rule:nonzero;stroke:none" transform="matrix(1.33333 0 0 -1.33333 139.475 70.433)"/><path d="M0 0h-.241c-.051 0-.078.024-.078.074v3.799c0 .075.005.121.019.134.009.012.059.016.131.016h.251A.244.244 0 0 0 .18 4.01a.218.218 0 0 0 .049-.062L2.275.437v3.511c0 .051.024.075.075.075h.238c.051 0 .077-.024.077-.075V.153c0-.079-.006-.122-.02-.135C2.631.007 2.588 0 2.514 0h-.333a.117.117 0 0 0-.06.012c-.014.006-.028.026-.048.052L.078 3.516V.074C.078.024.05 0 0 0" style="fill:#898989;fill-opacity:1;fill-rule:nonzero;stroke:none" transform="matrix(1.33333 0 0 -1.33333 141.55 73.11)"/><path d="M0 0c-.149.377-.296.749-.435 1.113-.137.367-.286.739-.439 1.116l-.444-1.116C-1.465.749-1.613.377-1.767 0Zm.948-1.348c.015-.05 0-.074-.052-.074h-.26a.151.151 0 0 0-.056.011c-.018.006-.03.027-.047.063l-.402 1h-2.038a32.012 32.012 0 0 0-.202-.498c-.064-.164-.127-.331-.196-.502-.013-.036-.028-.057-.043-.063a.155.155 0 0 0-.056-.011h-.257c-.051 0-.069.024-.047.074l1.594 3.885c.015.044.049.064.095.064h.332c.046 0 .08-.02.098-.064z" style="fill:#898989;fill-opacity:1;fill-rule:nonzero;stroke:none" transform="matrix(1.33333 0 0 -1.33333 149.547 71.213)"/><path d="M0 0c.051 0 .079-.027.079-.077v-.192c0-.05-.028-.074-.079-.074h-1.758c-.051 0-.089 0-.114.004-.027 0-.049.008-.06.02-.014.014-.022.036-.022.064-.002.027-.002.068-.002.119v3.733c0 .052.024.077.072.077h.253c.047 0 .074-.025.074-.077V0Z" style="fill:#898989;fill-opacity:1;fill-rule:nonzero;stroke:none" transform="matrix(1.33333 0 0 -1.33333 154.272 72.652)"/><path d="M0 0h-.262c-.051 0-.075.024-.075.074v3.865c0 .053.024.078.075.078H0c.051 0 .075-.025.075-.078V.074C.075.024.051 0 0 0" style="fill:#898989;fill-opacity:1;fill-rule:nonzero;stroke:none" transform="matrix(1.33333 0 0 -1.33333 157.614 73.11)"/><path d="M0 0h-.243c-.05 0-.074.024-.074.074v3.799c0 .075.008.121.018.134.013.012.056.016.135.016h.248a.228.228 0 0 0 .094-.013c.018-.007.033-.029.051-.062L2.273.437v3.511c0 .051.026.075.079.075h.235c.055 0 .079-.024.079-.075V.153c0-.079-.007-.122-.02-.135C2.636.007 2.587 0 2.514 0h-.33a.131.131 0 0 0-.065.012c-.014.006-.025.026-.043.052L.079 3.516V.074C.079.024.055 0 0 0" style="fill:#898989;fill-opacity:1;fill-rule:nonzero;stroke:none" transform="matrix(1.33333 0 0 -1.33333 159.34 73.11)"/><path d="M0 0c-.059.017-.083.049-.071.097l.024.248c.006.03.015.05.033.06C.001.417.019.413.042.4.17.331.295.282.423.25.556.218.701.206.865.206c.266 0 .482.073.65.216.169.142.253.349.253.611a.516.516 0 0 1-.122.315 1.372 1.372 0 0 1-.34.3c-.127.08-.268.163-.427.248a4.269 4.269 0 0 0-.456.287c-.146.1-.264.217-.363.345a.722.722 0 0 0-.148.45c0 .174.037.326.107.456.074.131.173.243.293.331.119.089.259.155.414.202.154.05.314.073.476.073a2.142 2.142 0 0 0 .729-.111c.052-.018.076-.051.066-.097l-.043-.21c-.012-.06-.045-.077-.096-.048a1.24 1.24 0 0 1-.296.095 2.225 2.225 0 0 1-.364.025 1.27 1.27 0 0 1-.341-.045.867.867 0 0 1-.276-.129.77.77 0 0 1-.188-.22.692.692 0 0 1-.066-.307c0-.097.029-.182.093-.264.063-.086.142-.163.232-.237a2.24 2.24 0 0 1 .302-.196c.103-.058.201-.113.289-.165l.347-.211c.112-.073.207-.155.295-.248.088-.086.159-.189.214-.297a.844.844 0 0 0 .08-.374.99.99 0 0 0-.112-.48 1.126 1.126 0 0 0-.293-.359 1.289 1.289 0 0 0-.427-.228 1.655 1.655 0 0 0-.502-.076c-.158 0-.301.011-.425.029A3.073 3.073 0 0 0 0 0" style="fill:#898989;fill-opacity:1;fill-rule:nonzero;stroke:none" transform="matrix(1.33333 0 0 -1.33333 164.14 73.034)"/><path d="M0 0v-3.604c0-.05-.024-.074-.075-.074h-.249c-.051 0-.077.024-.077.074V0H-1.52c-.051 0-.074.025-.074.075v.187c0 .052.023.077.074.077h2.65c.049 0 .076-.025.076-.077V.075C1.206.025 1.179 0 1.13 0Z" style="fill:#898989;fill-opacity:1;fill-rule:nonzero;stroke:none" transform="matrix(1.33333 0 0 -1.33333 169.727 68.206)"/><path d="M0 0h-.262c-.051 0-.074.024-.074.074v3.865c0 .053.023.078.074.078H0c.051 0 .075-.025.075-.078V.074C.075.024.051 0 0 0" style="fill:#898989;fill-opacity:1;fill-rule:nonzero;stroke:none" transform="matrix(1.33333 0 0 -1.33333 172.507 73.11)"/><path d="M0 0v-3.604c0-.05-.027-.074-.079-.074h-.249c-.05 0-.074.024-.074.074V0h-1.117c-.051 0-.079.025-.079.075v.187c0 .052.028.077.079.077h2.647c.047 0 .074-.025.074-.077V.075c0-.05-.027-.075-.074-.075Z" style="fill:#898989;fill-opacity:1;fill-rule:nonzero;stroke:none" transform="matrix(1.33333 0 0 -1.33333 175.423 68.206)"/><path d="M0 0c0-.343.086-.616.266-.816.198-.221.464-.33.797-.33.336 0 .611.109.808.33a.915.915 0 0 1 .196.35c.045.136.065.294.065.466v2.548c0 .05.024.075.075.075h.249c.05 0 .077-.025.077-.075V0c0-.265-.044-.499-.133-.697a1.247 1.247 0 0 0-.372-.492c-.264-.2-.588-.297-.965-.297-.376 0-.697.097-.959.297-.337.25-.506.647-.506 1.189v2.548c0 .05.024.075.075.075h.253c.051 0 .074-.025.074-.075Z" style="fill:#898989;fill-opacity:1;fill-rule:nonzero;stroke:none" transform="matrix(1.33333 0 0 -1.33333 178.322 71.242)"/><path d="M0 0v-3.604c0-.05-.023-.074-.074-.074h-.249c-.051 0-.078.024-.078.074V0h-1.114c-.055 0-.079.025-.079.075v.187c0 .052.024.077.079.077h2.643c.051 0 .079-.025.079-.077V.075c0-.05-.028-.075-.079-.075Z" style="fill:#898989;fill-opacity:1;fill-rule:nonzero;stroke:none" transform="matrix(1.33333 0 0 -1.33333 184.618 68.206)"/><path d="M0 0c-.078 0-.121.003-.135.015A.35.35 0 0 0-.15.15v3.736c0 .068.006.111.015.124.014.011.055.016.126.016H1.87c.051 0 .077-.025.077-.075v-.188c0-.053-.026-.075-.077-.075H.244V2.253H1.79c.049 0 .077-.025.077-.076v-.194c0-.05-.028-.077-.077-.077H.244V.346h1.693c.051 0 .074-.027.074-.077V.076C2.011.025 1.988 0 1.937 0Z" style="fill:#898989;fill-opacity:1;fill-rule:nonzero;stroke:none" transform="matrix(1.33333 0 0 -1.33333 187.224 73.113)"/><path d="M0 0c0-.05-.028-.074-.079-.074h-.248c-.051 0-.075.024-.075.074v3.784c0 .076.006.123.019.135.013.014.06.023.136.023h1.813c.052 0 .077-.025.077-.077v-.186c0-.051-.025-.075-.077-.075H0V2.166h1.492c.051 0 .074-.026.074-.076v-.196c0-.049-.023-.074-.074-.074H0Z" style="fill:#898989;fill-opacity:1;fill-rule:nonzero;stroke:none" transform="matrix(1.33333 0 0 -1.33333 193.676 73.01)"/><path d="M0 0c0 .226-.029.44-.086.647a2.083 2.083 0 0 1-.247.546 1.334 1.334 0 0 1-.452.41 1.218 1.218 0 0 1-.595.143c-.224 0-.422-.047-.598-.143a1.39 1.39 0 0 1-.455-.41 1.982 1.982 0 0 1-.242-.546A2.303 2.303 0 0 1-2.763 0c0-.228.028-.444.088-.65a2.1 2.1 0 0 1 .242-.549c.132-.173.285-.307.463-.407.178-.097.374-.146.59-.146.22 0 .421.049.595.142.176.099.327.234.452.411.104.164.186.347.247.549C-.029-.444 0-.228 0 0m.396 0C.387-.643.238-1.147-.051-1.506c-.316-.392-.758-.587-1.329-.587s-1.015.195-1.336.587c-.291.371-.44.874-.44 1.506 0 .299.032.573.108.816.069.24.175.458.313.642.162.199.36.356.589.468.229.108.485.163.766.163.286 0 .542-.055.767-.163.229-.106.421-.264.584-.471.14-.195.248-.415.319-.654C.364.562.397.295.396 0" style="fill:#898989;fill-opacity:1;fill-rule:nonzero;stroke:none" transform="matrix(1.33333 0 0 -1.33333 200.822 70.433)"/><path d="M0 0c0 .153-.018.28-.051.388a.501.501 0 0 1-.175.259.722.722 0 0 1-.316.143 2.154 2.154 0 0 1-.486.044h-.562V-.782h.571c.15 0 .285.018.408.054.126.036.233.091.325.155.09.071.161.154.211.25A.68.68 0 0 1 0 0m.646-2.769a.055.055 0 0 0 0-.05C.64-2.836.623-2.843.603-2.843H.319a.122.122 0 0 0-.117.074c-.161.341-.3.618-.408.834-.107.215-.191.386-.256.514-.075.147-.131.262-.173.341a1.753 1.753 0 0 0-.229-.035c-.072-.002-.16-.007-.267-.008h-.459v-1.646c0-.05-.023-.074-.075-.074h-.242c-.051 0-.078.024-.078.074v3.775c0 .045 0 .073.004.095 0 .022.007.037.019.047.011.012.025.019.048.019.02.003.05.006.091.006h1.028c.206 0 .384-.031.533-.084.15-.06.275-.137.373-.24A.903.903 0 0 0 .333.481C.384.339.407.179.407 0a.843.843 0 0 0-.056-.308 1.218 1.218 0 0 0-.378-.497 1.707 1.707 0 0 0-.267-.167Z" style="fill:#898989;fill-opacity:1;fill-rule:nonzero;stroke:none" transform="matrix(1.33333 0 0 -1.33333 205.203 69.318)"/><path d="M0 0c0 .445-.294.667-.883.667h-.552V-.747h.446c.331 0 .577.064.742.195C-.083-.424 0-.24 0 0m.123-1.887c0 .268-.098.469-.29.597-.193.129-.504.197-.93.197h-.352v-1.574h.417c.771 0 1.155.26 1.155.78m.406.022c0-.765-.524-1.145-1.571-1.145h-.654c-.076 0-.121.007-.135.017-.014.014-.02.057-.02.136V.851c0 .078.006.12.02.132.014.014.059.023.135.023h.813C-.027 1.006.403.675.403.017c0-.506-.239-.808-.716-.916.276-.081.483-.203.626-.361a.892.892 0 0 0 .216-.605" style="fill:#898989;fill-opacity:1;fill-rule:nonzero;stroke:none" transform="matrix(1.33333 0 0 -1.33333 211.48 69.096)"/><path d="M0 0h-.26c-.051 0-.075.024-.075.074v3.865c0 .053.024.078.075.078H0c.051 0 .076-.025.076-.078V.074C.076.024.051 0 0 0" style="fill:#898989;fill-opacity:1;fill-rule:nonzero;stroke:none" transform="matrix(1.33333 0 0 -1.33333 213.824 73.11)"/><path d="M0 0c0 .226-.029.44-.086.647-.059.205-.14.386-.243.546-.129.177-.28.314-.456.41a1.213 1.213 0 0 1-.591.143c-.228 0-.426-.047-.602-.143a1.328 1.328 0 0 1-.45-.41 1.905 1.905 0 0 1-.247-.546 2.459 2.459 0 0 1 0-1.297c.057-.202.141-.385.247-.549.127-.173.282-.307.458-.407.178-.097.375-.146.594-.146.216 0 .417.049.591.142.176.099.327.234.456.411.103.164.184.347.243.549C-.029-.444 0-.228 0 0m.396 0C.388-.643.239-1.147-.049-1.506c-.315-.392-.756-.587-1.327-.587-.574 0-1.019.195-1.336.587-.295.371-.444.874-.444 1.506 0 .299.037.573.108.816.074.24.178.458.313.642.164.199.36.356.589.468.229.108.485.163.77.163.282 0 .538-.055.767-.163.225-.106.417-.264.584-.471.14-.195.244-.415.318-.654C.364.562.397.295.396 0" style="fill:#898989;fill-opacity:1;fill-rule:nonzero;stroke:none" transform="matrix(1.33333 0 0 -1.33333 219.168 70.433)"/><path d="M0 0c-.074 0-.117.003-.131.015-.014.012-.021.061-.021.135v3.736c0 .068.007.111.021.124.014.011.053.016.121.016h1.882c.051 0 .074-.025.074-.075v-.188c0-.053-.023-.075-.074-.075H.245V2.253h1.547c.047 0 .074-.025.074-.076v-.194c0-.05-.027-.077-.074-.077H.245V.346h1.692c.05 0 .078-.027.078-.077V.076C2.015.025 1.987 0 1.937 0Z" style="fill:#898989;fill-opacity:1;fill-rule:nonzero;stroke:none" transform="matrix(1.33333 0 0 -1.33333 221.092 73.113)"/><path d="M0 0v-3.604c0-.05-.025-.074-.075-.074h-.25c-.053 0-.076.024-.076.074V0H-1.52c-.05 0-.074.025-.074.075v.187c0 .052.024.077.074.077h2.648c.051 0 .076-.025.076-.077V.075c0-.05-.025-.075-.076-.075Z" style="fill:#898989;fill-opacity:1;fill-rule:nonzero;stroke:none" transform="matrix(1.33333 0 0 -1.33333 226.596 68.206)"/><path d="M0 0c0-.05-.024-.074-.074-.074h-.244c-.053 0-.076.024-.076.074v1.829H-2.45V0c0-.05-.028-.074-.076-.074h-.244c-.05 0-.077.024-.077.074v3.874c0 .05.027.075.077.075h.244c.048 0 .076-.025.076-.075V2.172h2.056v1.702c0 .05.023.075.076.075h.244c.05 0 .074-.025.074-.075Z" style="fill:#898989;fill-opacity:1;fill-rule:nonzero;stroke:none" transform="matrix(1.33333 0 0 -1.33333 232.807 73.01)"/><path d="M0 0h-.263c-.05 0-.074.024-.074.074v3.865c0 .053.024.078.074.078H0c.051 0 .074-.025.074-.078V.074C.074.024.051 0 0 0" style="fill:#898989;fill-opacity:1;fill-rule:nonzero;stroke:none" transform="matrix(1.33333 0 0 -1.33333 234.632 73.11)"/><path d="M0 0a.13.13 0 0 0 .061.004c.021-.006.027-.02.027-.041l.014-.212C.105-.297.078-.327.023-.348a2.27 2.27 0 0 0-.37-.086 3.62 3.62 0 0 0-.474-.024c-.631 0-1.13.191-1.504.572a1.84 1.84 0 0 0-.411.657c-.086.25-.131.53-.131.846 0 .618.186 1.12.56 1.503.377.384.871.574 1.486.574.087 0 .165-.002.236-.005.07-.003.138-.008.205-.018.066-.006.135-.014.199-.026.063-.012.131-.025.204-.043.055-.011.082-.044.079-.104l-.014-.217c-.006-.05-.034-.067-.081-.048-.141.046-.272.08-.401.095-.127.018-.27.025-.427.025-.509 0-.916-.164-1.22-.489-.284-.313-.424-.733-.424-1.247 0-.26.033-.496.103-.704.069-.214.173-.394.314-.552.293-.322.7-.486 1.227-.481.152.004.302.017.451.034.152.018.276.047.37.086" style="fill:#898989;fill-opacity:1;fill-rule:nonzero;stroke:none" transform="matrix(1.33333 0 0 -1.33333 239.604 72.59)"/><path d="M0 0c-.061.017-.084.049-.071.097l.02.248c.006.03.019.05.037.06C.001.417.02.413.043.4.169.331.296.282.423.25.552.218.701.206.866.206c.265 0 .481.073.65.216.168.142.252.349.252.611a.514.514 0 0 1-.125.315 1.337 1.337 0 0 1-.337.3c-.128.08-.268.163-.427.248a4.015 4.015 0 0 0-.458.287c-.145.1-.266.217-.364.345a.714.714 0 0 0-.145.45.937.937 0 0 0 .397.787c.122.089.259.155.416.202.156.05.315.073.477.073.141 0 .267-.007.374-.025.108-.019.225-.042.355-.086.052-.018.072-.051.062-.097l-.042-.21c-.011-.06-.042-.077-.093-.048a1.24 1.24 0 0 1-.296.095 2.266 2.266 0 0 1-.367.025 1.23 1.23 0 0 1-.337-.045.819.819 0 0 1-.276-.129.63.63 0 0 1-.259-.527.43.43 0 0 1 .094-.264c.064-.086.141-.163.235-.237.092-.072.194-.136.298-.196.107-.058.205-.113.289-.165.122-.07.235-.14.347-.211.115-.073.211-.155.299-.248.089-.086.159-.189.214-.297a.83.83 0 0 0 .08-.374.99.99 0 0 0-.112-.48 1.094 1.094 0 0 0-.295-.359 1.32 1.32 0 0 0-.425-.228 1.663 1.663 0 0 0-.501-.076c-.162 0-.304.011-.429.029A3.08 3.08 0 0 0 0 0" style="fill:#898989;fill-opacity:1;fill-rule:nonzero;stroke:none" transform="matrix(1.33333 0 0 -1.33333 240.76 73.034)"/><path d="M0 0c0 .257-.067.451-.202.591-.131.14-.331.212-.589.212h-.816V-.821h.442c.173 0 .328.007.468.029a.933.933 0 0 1 .356.113c.102.056.179.14.238.244.059.109.093.252.103.435m-1.607-2.808c0-.05-.024-.074-.076-.074h-.243c-.049 0-.075.024-.075.074V.979c0 .082.005.131.022.142.018.014.066.021.14.021h.965c.397 0 .71-.091.935-.288C.289.655.407.373.407 0c0-.191-.033-.354-.099-.503a1.112 1.112 0 0 0-.281-.37 1.172 1.172 0 0 0-.421-.223 1.58 1.58 0 0 0-.523-.066h-.69z" style="fill:#898989;fill-opacity:1;fill-rule:nonzero;stroke:none" transform="matrix(1.33333 0 0 -1.33333 249.502 69.267)"/><path d="M0 0c0 .226-.03.44-.087.647a1.99 1.99 0 0 1-.247.546 1.344 1.344 0 0 1-.449.41 1.23 1.23 0 0 1-.598.143c-.223 0-.422-.047-.598-.143a1.408 1.408 0 0 1-.454-.41 2.013 2.013 0 0 1-.243-.546 2.458 2.458 0 0 1 0-1.297c.058-.202.14-.385.243-.549.132-.173.287-.307.462-.407.179-.097.374-.146.59-.146.223 0 .421.049.598.142.174.099.324.234.449.411.105.164.188.347.247.549C-.03-.444 0-.228 0 0m.396 0C.388-.643.24-1.147-.05-1.506c-.313-.392-.76-.587-1.331-.587-.569 0-1.015.195-1.332.587-.295.371-.444.874-.444 1.506 0 .299.033.573.108.816.07.24.176.458.313.642.163.199.36.356.59.468.229.108.485.163.765.163.286 0 .542-.055.768-.163.229-.106.421-.264.583-.471.144-.195.249-.415.323-.654C.364.562.397.295.396 0" style="fill:#898989;fill-opacity:1;fill-rule:nonzero;stroke:none" transform="matrix(1.33333 0 0 -1.33333 254.977 70.433)"/><path d="M0 0c.051 0 .074-.027.074-.077v-.192c0-.05-.023-.074-.074-.074h-1.758c-.052 0-.089 0-.118.004a.084.084 0 0 0-.057.02.093.093 0 0 0-.021.064c-.005.027-.005.068-.005.119v3.733c0 .052.026.077.075.077h.251c.049 0 .076-.025.076-.077V0Z" style="fill:#898989;fill-opacity:1;fill-rule:nonzero;stroke:none" transform="matrix(1.33333 0 0 -1.33333 259.258 72.652)"/><path d="M0 0h-.263c-.05 0-.074.024-.074.074v3.865c0 .053.024.078.074.078H0c.051 0 .074-.025.074-.078V.074C.074.024.051 0 0 0" style="fill:#898989;fill-opacity:1;fill-rule:nonzero;stroke:none" transform="matrix(1.33333 0 0 -1.33333 260.574 73.11)"/><path d="M0 0a.13.13 0 0 0 .061.004c.018-.006.027-.02.027-.041l.01-.212C.102-.297.079-.327.024-.348a2.465 2.465 0 0 0-.371-.086 3.688 3.688 0 0 0-.475-.024c-.63 0-1.132.191-1.501.572a1.75 1.75 0 0 0-.412.657 2.53 2.53 0 0 0-.131.846c0 .618.183 1.12.555 1.503.381.384.875.574 1.489.574.084 0 .167-.002.237-.005.07-.003.137-.008.205-.018.068-.006.132-.014.197-.026a3.68 3.68 0 0 0 .207-.043c.055-.011.078-.044.074-.104l-.01-.217c-.007-.05-.033-.067-.082-.048-.141.046-.276.08-.4.095a3.103 3.103 0 0 1-.428.025c-.511 0-.921-.164-1.222-.489-.279-.313-.421-.733-.421-1.247 0-.26.033-.496.1-.704a1.54 1.54 0 0 1 .317-.552c.294-.322.7-.486 1.226-.481.153.004.299.017.453.034.149.018.271.047.369.086" style="fill:#898989;fill-opacity:1;fill-rule:nonzero;stroke:none" transform="matrix(1.33333 0 0 -1.33333 265.547 72.59)"/><path d="M0 0c0-.05-.026-.074-.076-.074h-.25c-.051 0-.077.024-.077.074v1.622c-.243.38-.482.757-.722 1.135-.241.371-.483.745-.728 1.117a.077.077 0 0 0 0 .052.05.05 0 0 0 .044.023h.309c.045 0 .083-.025.11-.075l1.181-1.903c.22.329.423.645.615.951.192.307.398.623.613.952.027.05.062.075.107.075h.272c.023 0 .039-.007.047-.023.009-.015.009-.033-.002-.052L0 1.622Z" style="fill:#898989;fill-opacity:1;fill-rule:nonzero;stroke:none" transform="matrix(1.33333 0 0 -1.33333 268.776 73.01)"/><path d="M0 0a17.042 17.042 0 0 0-.094-1.683 23.25 23.25 0 0 0-.122-1 12.519 12.519 0 0 0-.17-.996h2.089c.047 0 .096-.025.146-.076a.244.244 0 0 0 .068-.153v-.924c0-.043-.023-.091-.068-.141-.05-.046-.099-.07-.146-.07h-5.479v-2.118h2.764c.392 0 .643-.062.765-.195.117-.136.173-.409.173-.828v-3.818a.207.207 0 0 0-.06-.136.194.194 0 0 0-.134-.062h-1.239a.21.21 0 0 0-.151.062.212.212 0 0 0-.06.136v3.267c0 .096-.019.158-.056.184a.408.408 0 0 1-.214.043h-6.99a.243.243 0 0 0-.143.051.133.133 0 0 0-.068.118v1.008c0 .06.021.101.068.129.05.028.095.041.143.041h3.565v2.118h-5.254a.174.174 0 0 0-.141.07.228.228 0 0 0-.057.141v.924c0 .153.066.229.198.229h8.779c.085.463.153.944.212 1.442A14.3 14.3 0 0 1-1.592-.64c0 .133-.033.216-.098.249a.664.664 0 0 1-.298.05h-6.619a.205.205 0 0 0-.14.059c-.05.037-.073.076-.073.126v.98c0 .057.023.1.073.128a.24.24 0 0 0 .14.041h7.668c.303 0 .537-.077.694-.234C-.083.604 0 .351 0 0" style="fill:#898989;fill-opacity:1;fill-rule:nonzero;stroke:none" transform="matrix(1.33333 0 0 -1.33333 126.287 48.67)"/><path d="M0 0a.208.208 0 0 0-.149-.058h-1.918v-6.748c0-.122-.061-.184-.186-.184h-1.265c-.119 0-.185.062-.185.184v13.11c0 .12.066.185.185.185h1.265c.125 0 .186-.065.186-.185V1.302h1.918A.234.234 0 0 0 0 1.253a.149.149 0 0 0 .064-.119V.141A.176.176 0 0 0 0 0m-5.691 4.359a9.854 9.854 0 0 0-.523-2.494A9.591 9.591 0 0 0-7.385-.403a11.387 11.387 0 0 0-1.798-1.986 13.158 13.158 0 0 0-2.376-1.65.482.482 0 0 0-.232-.048.23.23 0 0 0-.189.115l-.571.705a.255.255 0 0 0-.045.203.305.305 0 0 0 .129.162c1.414.773 2.554 1.727 3.425 2.861.873 1.132 1.401 2.341 1.591 3.63.029.19.016.315-.035.378-.054.061-.162.094-.336.094h-4.006c-.122 0-.181.065-.181.2v.992c0 .112.059.169.181.169H-6.7c.429 0 .711-.088.85-.258.136-.179.187-.448.159-.805" style="fill:#898989;fill-opacity:1;fill-rule:nonzero;stroke:none" transform="matrix(1.33333 0 0 -1.33333 146.826 55.616)"/><path d="M0 0c0 .121.068.186.197.186H1.42c.126 0 .187-.065.187-.186v-7.599c0-.133-.061-.199-.187-.199H.185c-.124 0-.185.066-.185.199v2.969h-1.277v-2.585c0-.126-.061-.185-.185-.185h-1.165c-.131 0-.202.059-.202.185v6.986c0 .126.071.187.202.187h1.165c.124 0 .185-.061.185-.187v-3.039H0Zm.044-10.652a.848.848 0 0 1-.263.617 2.117 2.117 0 0 1-.682.439c-.28.123-.595.209-.946.272-.35.062-.702.092-1.049.092-.381 0-.744-.03-1.087-.092a3.902 3.902 0 0 1-.925-.272 1.892 1.892 0 0 1-.646-.439.88.88 0 0 1-.241-.617c0-.227.08-.424.241-.591.163-.164.377-.307.646-.419.27-.112.577-.199.93-.255a6.522 6.522 0 0 1 1.082-.084c.347 0 .699.025 1.049.084.351.056.666.143.946.255.279.112.504.255.682.419a.795.795 0 0 1 .263.591m1.676.041c0-.396-.126-.762-.376-1.093a3.248 3.248 0 0 0-1.018-.852 5.6 5.6 0 0 0-1.479-.546 7.696 7.696 0 0 0-1.743-.192c-.655 0-1.261.063-1.814.192a5.484 5.484 0 0 0-1.449.539 2.9 2.9 0 0 0-.965.843 1.903 1.903 0 0 0-.347 1.109c0 .398.116.762.347 1.086.233.329.552.608.965.846.411.237.897.418 1.449.548a8.11 8.11 0 0 0 1.814.192c.605 0 1.187-.065 1.743-.192a5.78 5.78 0 0 0 1.479-.542c.427-.232.763-.51 1.018-.838.25-.324.376-.695.376-1.1M-9.161-7.187a.529.529 0 0 0-.241-.079.295.295 0 0 0-.23.109l-.526.609c-.141.153-.12.304.061.456a7.207 7.207 0 0 1 1.361 1.219c.36.427.646.87.859 1.337.216.463.362.949.448 1.462.088.511.127 1.045.127 1.608 0 .071.024.132.064.177a.2.2 0 0 0 .133.06l1.195-.057c.122 0 .187-.074.187-.227 0-.766-.072-1.481-.215-2.146.19-.546.505-1.076.95-1.586a7.55 7.55 0 0 1 1.482-1.309c.072-.045.11-.096.105-.146a.4.4 0 0 0-.077-.179l-.54-.725c-.114-.143-.252-.163-.413-.059a7.165 7.165 0 0 0-1.195.952c-.396.39-.723.812-.978 1.265a6.883 6.883 0 0 0-1.073-1.512 8.022 8.022 0 0 0-1.484-1.229" style="fill:#898989;fill-opacity:1;fill-rule:nonzero;stroke:none" transform="matrix(1.33333 0 0 -1.33333 161.322 47.21)"/><path d="M372.97 460.986h-2.416v-1.492h2.416zm.055-7.628a.964.964 0 0 1-.206.618 1.602 1.602 0 0 1-.561.439 3.189 3.189 0 0 1-.824.272 5.198 5.198 0 0 1-.992.091c-.758 0-1.369-.12-1.834-.353-.463-.238-.694-.592-.694-1.067 0-.446.234-.782.711-1.01.471-.226 1.078-.339 1.817-.339.347 0 .678.026.992.085.313.056.587.142.824.254.235.113.425.255.561.419a.893.893 0 0 1 .206.591m1.676.042a1.99 1.99 0 0 0-.319-1.093 2.769 2.769 0 0 0-.887-.852 4.656 4.656 0 0 0-1.35-.547 7.07 7.07 0 0 0-1.703-.191c-.645 0-1.228.062-1.749.191a4.5 4.5 0 0 0-1.328.539 2.619 2.619 0 0 0-.845.844 2.128 2.128 0 0 0-.298 1.109c0 .398.1.761.298 1.086.199.328.481.607.845.845s.807.418 1.328.548a7.342 7.342 0 0 0 1.749.192 7.12 7.12 0 0 0 1.703-.192c.522-.13.97-.309 1.35-.542.381-.231.673-.509.887-.838.212-.324.319-.695.319-1.099m-5.738 8.708c0 .082-.011.137-.035.163-.026.026-.073.034-.151.034h-2.696c-.077 0-.127-.008-.15-.028-.024-.018-.035-.071-.035-.157v-3.632c0-.088.011-.144.035-.157.023-.02.073-.031.15-.031h2.696c.078 0 .125.011.151.031.024.013.035.069.035.157zm1.37-4.893c-.145-.148-.401-.221-.759-.221h-4.22c-.397 0-.672.073-.824.221-.151.146-.225.405-.225.774v4.656c0 .362.072.612.22.746.145.137.401.21.761.21h4.288c.358 0 .614-.067.759-.195.149-.126.221-.379.221-.761v-.384h2.416v1.749c0 .121.06.186.182.186h1.263c.124 0 .186-.065.186-.186v-7.569c0-.136-.062-.201-.186-.201h-1.263c-.122 0-.182.065-.182.201v1.774h-2.416v-.226c0-.369-.072-.628-.221-.774" style="fill:#898989;fill-opacity:1;fill-rule:nonzero;stroke:none" transform="matrix(1.33333 0 0 -1.33333 -319.001 665.891)"/><path d="M0 0c-.415 0-.796-.035-1.133-.098a4.326 4.326 0 0 1-.89-.27 1.685 1.685 0 0 1-.58-.414.77.77 0 0 1 0-1.05 1.67 1.67 0 0 1 .58-.413c.252-.11.547-.199.89-.263A6.41 6.41 0 0 1 0-2.601c.408 0 .782.032 1.125.093.337.064.633.153.887.263.251.114.446.253.582.413a.787.787 0 0 1 .207.525.79.79 0 0 1-.207.525c-.136.16-.331.299-.582.414-.254.111-.55.201-.887.27A6.218 6.218 0 0 1 0 0m0-3.905a8.61 8.61 0 0 0-1.823.176c-.554.118-1.03.29-1.427.511a2.726 2.726 0 0 0-.932.815c-.223.324-.331.69-.331 1.096 0 .407.108.775.331 1.101.223.327.533.602.932.823.397.221.873.395 1.427.513A8.746 8.746 0 0 0 0 1.305c.665 0 1.27-.057 1.819-.175a5.083 5.083 0 0 0 1.42-.513c.397-.221.707-.496.929-.823.224-.326.336-.694.336-1.101 0-.406-.112-.772-.336-1.096a2.724 2.724 0 0 0-.929-.815 5.083 5.083 0 0 0-1.42-.511A8.532 8.532 0 0 0 0-3.905m4.75-7.684a.238.238 0 0 0-.145-.044h-8.113c-.422 0-.712.076-.857.229-.148.151-.22.41-.22.781v3.009c0 .048.019.095.063.135.042.041.084.066.133.066h1.223a.218.218 0 0 0 .151-.066.191.191 0 0 0 .061-.135v-2.428c0-.094.02-.156.056-.187a.4.4 0 0 1 .202-.041h7.301a.243.243 0 0 0 .141-.05c.044-.033.068-.072.068-.121v-1.022c0-.056-.02-.097-.064-.126m1.542 5.348c-.046-.056-.091-.079-.14-.079H2.885v-2.528c0-.134-.066-.197-.197-.197H1.451c-.134 0-.197.063-.197.197v2.528H-.652v-2.528c0-.134-.065-.197-.199-.197h-1.235c-.134 0-.197.063-.197.197v2.528h-3.934a.159.159 0 0 0-.145.079.247.247 0 0 0-.056.148v.922c0 .06.018.107.056.151a.182.182 0 0 0 .145.062H6.152c.049 0 .094-.024.14-.072.05-.044.073-.093.073-.141v-.922c0-.048-.023-.097-.073-.148" style="fill:#898989;fill-opacity:1;fill-rule:nonzero;stroke:none" transform="matrix(1.33333 0 0 -1.33333 191.562 48.972)"/><path d="M0 0c0-.122-.061-.184-.186-.184h-1.265c-.119 0-.185.062-.185.184v13.11c0 .12.066.185.185.185h1.265c.125 0 .186-.065.186-.185Zm-2.641 3.67a.622.622 0 0 0-.201-.09 10.788 10.788 0 0 0-.947-.179c-.352-.05-.732-.094-1.126-.137-.402-.035-.8-.071-1.209-.095a23.589 23.589 0 0 0-1.177-.059 43.719 43.719 0 0 0-1.048-.011c-.314 0-.577.005-.786.023-.415.042-.704.129-.861.273-.152.142-.232.392-.232.753v3.408c0 .34.084.59.248.74.167.15.416.227.747.227h3.382c.072 0 .124.011.157.035.024.023.04.083.04.178v1.987c0 .075-.007.131-.029.158-.021.029-.077.042-.168.042h-4.091a.205.205 0 0 0-.139.057.17.17 0 0 0-.063.126v.982c0 .049.023.088.063.119a.21.21 0 0 0 .139.05H-5c.404 0 .669-.075.787-.228.117-.152.178-.396.178-.739V8.136c0-.358-.073-.604-.218-.737-.15-.133-.408-.198-.774-.198h-3.369c-.134 0-.199-.065-.199-.197V4.755c0-.101.021-.172.056-.201.038-.036.111-.053.217-.053a15.82 15.82 0 0 1 1.311-.006c.46.013.92.038 1.385.071.465.033.918.079 1.356.133.442.056.853.127 1.245.198a.223.223 0 0 0 .19-.019c.061-.033.101-.092.122-.179l.128-.851c.019-.075 0-.134-.056-.178" style="fill:#898989;fill-opacity:1;fill-rule:nonzero;stroke:none" transform="matrix(1.33333 0 0 -1.33333 216.053 64.69)"/><path d="M0 0v.995a.15.15 0 0 0 .062.119.227.227 0 0 0 .136.049h2.229v3.012c0 .121.061.186.186.186h1.264c.123 0 .185-.065.185-.186v-7.542c0-.131-.062-.197-.185-.197H2.613c-.125 0-.186.066-.186.197v3.194H.198a.208.208 0 0 0-.136.052A.15.15 0 0 0 0 0m2.266-5.859a1.637 1.637 0 0 1-.562.439 3.184 3.184 0 0 1-.82.272 5.028 5.028 0 0 1-.985.091c-.758 0-1.368-.12-1.837-.353-.472-.238-.707-.592-.707-1.067a.94.94 0 0 1 .195-.591c.125-.164.303-.307.524-.419.222-.112.492-.199.804-.254.31-.059.656-.085 1.021-.085a5.2 5.2 0 0 1 .985.085c.311.055.583.142.82.254.234.112.425.255.562.419a.898.898 0 0 1 .206.591.97.97 0 0 1-.206.618M3.84-7.528a2.716 2.716 0 0 0-.897-.852 4.716 4.716 0 0 0-1.352-.547 7.036 7.036 0 0 0-1.692-.192c-.655 0-1.239.063-1.76.192-.52.129-.964.308-1.328.539a2.566 2.566 0 0 0-.841.844 2.156 2.156 0 0 0-.286 1.108c0 .398.092.762.286 1.086.197.329.476.608.841.846.364.237.808.418 1.328.548a7.429 7.429 0 0 0 1.76.192c.606 0 1.171-.065 1.692-.192.516-.13.974-.309 1.352-.542.39-.231.683-.509.897-.838.216-.324.319-.695.319-1.1 0-.396-.103-.761-.319-1.092m-9.989 4.011c-.098.005-.174.061-.229.165l-.426.696a.28.28 0 0 0-.037.24.277.277 0 0 0 .178.186 9.982 9.982 0 0 1 1.507.83A9.96 9.96 0 0 1-3.873-.384c.386.359.719.734 1.003 1.12.282.39.5.781.654 1.167a.52.52 0 0 1 .048.229c-.005.063-.081.099-.235.099h-3.52a.166.166 0 0 0-.141.07.244.244 0 0 0-.056.155v.937c0 .057.018.106.06.144a.231.231 0 0 0 .153.055h4.487c.416 0 .726-.077.927-.227.207-.151.285-.381.235-.696a2.97 2.97 0 0 0-.077-.326 5.915 5.915 0 0 0-.092-.298 7.431 7.431 0 0 0-.448-1.003 10.101 10.101 0 0 0-.59-.959 8.25 8.25 0 0 1 .569-.506c.211-.174.42-.336.638-.494.218-.157.436-.298.654-.428.219-.126.423-.231.611-.318.188-.096.232-.228.129-.394l-.441-.769c-.106-.16-.251-.195-.439-.1-.178.085-.38.198-.598.341-.219.141-.442.298-.674.469-.233.169-.465.352-.694.544a8.033 8.033 0 0 0-.648.603 13.247 13.247 0 0 0-1.636-1.376 12.85 12.85 0 0 0-1.929-1.136.486.486 0 0 0-.226-.036" style="fill:#898989;fill-opacity:1;fill-rule:nonzero;stroke:none" transform="matrix(1.33333 0 0 -1.33333 228.457 52.778)"/><path d="M0 0c0 .121.07.186.199.186h1.223c.122 0 .186-.065.186-.186v-7.88c0-.126-.064-.189-.186-.189H.186c-.124 0-.186.063-.186.189v3.08h-1.234v-2.987c0-.12-.061-.18-.186-.18h-1.163c-.135 0-.198.06-.198.18v7.558c0 .126.063.187.198.187h1.163c.125 0 .186-.061.186-.187v-3.21H0Zm1.544-13.2c-.044-.044-.089-.068-.138-.068H.186a.203.203 0 0 0-.148.068.17.17 0 0 0-.065.132v2.855c0 .095-.02.155-.057.186-.035.027-.108.039-.214.039h-7.06a.246.246 0 0 0-.14.052c-.049.034-.069.075-.069.122v1.022c0 .059.02.099.069.13.049.023.094.04.14.04H.671c.359 0 .606-.071.735-.218.134-.148.202-.402.202-.762v-3.466a.183.183 0 0 0-.064-.132M-5.09-1.405a.205.205 0 0 0-.162-.072h-2.986c-.035 0-.08.019-.134.058a.184.184 0 0 0-.08.156v.766c0 .077.029.131.08.172.054.036.099.055.134.055h2.986c.057 0 .107-.025.157-.077a.261.261 0 0 0 .068-.166v-.737a.21.21 0 0 0-.063-.155m-4.096-6.562c-.032-.021-.088-.03-.173-.03-.085 0-.15.039-.198.117l-.452.678a.225.225 0 0 0-.029.228.298.298 0 0 0 .153.185c.387.181.784.398 1.18.652.394.258.768.527 1.115.813.347.281.646.564.899.844.258.277.441.532.559.756.028.068.047.125.063.174.011.044-.047.07-.181.07h-3.024a.148.148 0 0 0-.134.078.334.334 0 0 0-.048.176v.839c0 .115.064.171.198.171h4.034c.38 0 .666-.046.864-.135.202-.09.298-.262.298-.521 0-.09-.019-.208-.064-.339a2.803 2.803 0 0 0-.134-.355 4.815 4.815 0 0 0-.403-.703 9.855 9.855 0 0 0-.578-.745c.287-.276.59-.527.909-.758.323-.233.622-.437.896-.603.169-.106.211-.224.113-.36l-.509-.721a.353.353 0 0 0-.177-.093.305.305 0 0 0-.222.049 6.56 6.56 0 0 0-.981.652c-.348.275-.675.564-.977.869a12.098 12.098 0 0 0-1.393-1.108 9.802 9.802 0 0 0-1.604-.88" style="fill:#898989;fill-opacity:1;fill-rule:nonzero;stroke:none" transform="matrix(1.33333 0 0 -1.33333 250.327 47.21)"/><path d="M0 0h-1.263c-.122 0-.183.065-.183.198v1.291h-2.429a.18.18 0 0 0-.134.058.158.158 0 0 0-.065.128v.892c0 .05.02.088.065.121a.19.19 0 0 0 .134.052h2.429v7.683c0 .121.061.186.183.186H0c.127 0 .186-.065.186-.186V.198C.186.065.127 0 0 0m-6.675 9.161c-.225 0-.443-.037-.65-.107a1.818 1.818 0 0 1-.54-.284 1.343 1.343 0 0 1-.364-.428 1.12 1.12 0 0 1-.133-.532c0-.199.045-.381.133-.546.09-.168.21-.311.364-.428.149-.118.331-.211.54-.284.207-.071.425-.105.65-.105a1.994 1.994 0 0 1 1.204.389c.153.117.28.26.367.428.088.165.133.347.133.546 0 .188-.045.367-.133.532a1.328 1.328 0 0 1-.367.428 2.02 2.02 0 0 1-1.204.391M.437-2.586a.235.235 0 0 0-.136-.045h-8.053c-.436 0-.727.076-.873.227-.149.153-.224.413-.224.781V.412c0 .044.022.091.067.131.045.045.084.066.134.066h1.222a.205.205 0 0 0 .151-.066.197.197 0 0 0 .063-.131V-1.04c0-.092.017-.158.057-.181.037-.03.109-.048.211-.048H.301a.215.215 0 0 0 .136-.053c.04-.038.065-.082.065-.127v-1.009a.15.15 0 0 0-.065-.128m-7.112 12.993c.487 0 .93-.065 1.328-.202A3.47 3.47 0 0 0-4.31 9.65c.289-.23.515-.505.677-.816.162-.313.241-.644.241-.998 0-.368-.079-.711-.241-1.033a2.479 2.479 0 0 0-.677-.832 3.338 3.338 0 0 0-1.037-.554 4.035 4.035 0 0 0-1.328-.208c-.48 0-.92.07-1.321.208a3.423 3.423 0 0 0-1.027.554c-.288.232-.51.508-.667.832a2.308 2.308 0 0 0-.235 1.033c0 .354.077.685.235.998.157.311.379.586.667.816.29.229.632.415 1.027.555.401.137.841.202 1.321.202m4.696-6.693a.38.38 0 0 0-.136-.095 9.465 9.465 0 0 0-.88-.119 50.736 50.736 0 0 0-.995-.093c-.338-.03-.679-.054-1.014-.08a27.879 27.879 0 0 0-.943-.047V1.234a.196.196 0 0 0-.066-.147.192.192 0 0 0-.147-.067h-1.181a.187.187 0 0 0-.148.067.19.19 0 0 0-.066.147v1.932a39.24 39.24 0 0 0-.873-.022c-.298-.005-.59-.012-.871-.023a33.171 33.171 0 0 0-.811-.011c-.257 0-.477.004-.667.011a.182.182 0 0 0-.146.071.262.262 0 0 0-.051.159v.88c0 .055.016.107.051.149a.195.195 0 0 0 .146.065c.654 0 1.366.007 2.135.021.773.013 1.542.039 2.31.069.768.035 1.502.075 2.213.13a25.29 25.29 0 0 1 1.849.189c.045.01.099 0 .151-.026a.178.178 0 0 0 .089-.13l.101-.807c.007-.076-.01-.137-.05-.177" style="fill:#898989;fill-opacity:1;fill-rule:nonzero;stroke:none" transform="matrix(1.33333 0 0 -1.33333 270.042 61.109)"/><path d="M0 0c0 .053.031.082.088.082h.544C.685.082.713.053.713 0v-5.822c0-.056-.028-.083-.081-.083H.083c-.054 0-.083.027-.083.083v3.007h-.525v-2.77a.084.084 0 0 0-.026-.061c-.02-.016-.04-.026-.058-.026h-.516a.107.107 0 0 0-.064.026.078.078 0 0 0-.027.061v5.468c0 .022.007.041.027.058s.043.024.064.024h.516a.09.09 0 0 0 .058-.024.076.076 0 0 0 .026-.058v-2.092H0Zm-4.21-4.399a.157.157 0 0 0-.097-.029.133.133 0 0 0-.096.044l-.256.302c-.02.032-.031.061-.024.099a.129.129 0 0 0 .053.085c.255.175.488.374.701.599.21.221.395.453.556.694.16.244.292.486.394.729.107.245.181.475.224.694a.426.426 0 0 1 0 .126c-.007.019-.039.033-.097.033H-4.22a.052.052 0 0 0-.049.028c-.015.02-.017.039-.017.064v.403c0 .064.022.097.076.097h1.72c.183 0 .314-.029.394-.088a.305.305 0 0 0 .117-.254c0-.038 0-.079-.004-.128 0-.052-.01-.092-.017-.129a4.464 4.464 0 0 0-.196-.716 5.656 5.656 0 0 0-.303-.692c.067-.108.138-.221.223-.34a6.369 6.369 0 0 1 .533-.637c.085-.087.165-.157.234-.205.047-.037.07-.07.07-.099a.158.158 0 0 0-.049-.098l-.24-.298c-.06-.071-.128-.071-.213-.005a1.712 1.712 0 0 0-.212.183c-.076.081-.16.167-.241.264a5.237 5.237 0 0 0-.469.639A5.93 5.93 0 0 0-4.21-4.399" style="fill:#898989;fill-opacity:1;fill-rule:nonzero;stroke:none" transform="matrix(1.33333 0 0 -1.33333 99.018 47.158)"/><path d="M0 0a.096.096 0 0 0-.061-.024h-.856v-1.632c0-.054-.026-.084-.085-.084h-.56c-.053 0-.08.03-.08.084v4.089c0 .053.027.082.08.082h.56c.059 0 .085-.029.085-.082V.583h.856A.094.094 0 0 0 0 .561.064.064 0 0 0 .029.509V.056C.029.031.02.016 0 0m-.701-3.345c-.015-.014-.039-.016-.058-.016h-3.335c-.192 0-.319.03-.382.098-.064.069-.1.183-.1.347v1.342c0 .024.013.041.029.061.018.026.04.035.06.035h.543a.097.097 0 0 0 .069-.028.097.097 0 0 0 .026-.068v-1.087c0-.039.007-.067.023-.08a.188.188 0 0 1 .091-.017h2.976a.077.077 0 0 0 .058-.028.062.062 0 0 0 .029-.054v-.448c0-.027-.01-.045-.029-.057M-1.979-.529c-.025-.015-.047-.029-.067-.035a4.198 4.198 0 0 0-.576-.119 16.087 16.087 0 0 0-.72-.078 16.242 16.242 0 0 0-.761-.043c-.25-.01-.48-.01-.688 0a.57.57 0 0 0-.329.108c-.08.061-.123.167-.123.314v2.133c0 .145.031.248.092.306.062.063.169.092.33.092h2.22c.058 0 .087-.029.087-.084v-.443c0-.054-.029-.082-.087-.082h-1.805c-.072 0-.112-.034-.112-.106V-.024c0-.067.011-.109.036-.132.022-.02.071-.032.154-.036.133-.01.289-.01.471-.005.176.005.365.019.56.032.191.018.392.034.589.061.198.024.384.052.555.086.069.013.111-.009.127-.066l.069-.354c.007-.048 0-.078-.022-.091" style="fill:#898989;fill-opacity:1;fill-rule:nonzero;stroke:none" transform="matrix(1.33333 0 0 -1.33333 108.38 50.402)"/><path d="M0 0h-2.293v-.441c0-.071.04-.106.116-.106h2.054c.081 0 .123.035.123.106Zm.62-1.038c-.064-.067-.187-.103-.372-.103h-2.787c-.187 0-.314.03-.384.093-.069.066-.1.181-.1.347v1.869c0 .02.009.038.027.053.02.013.04.022.062.022h.549a.115.115 0 0 0 .065-.022.062.062 0 0 0 .027-.053V.586H0v.608c0 .018.007.039.022.056a.085.085 0 0 0 .058.024h.561a.08.08 0 0 0 .058-.024c.015-.017.027-.038.027-.056V-.719c0-.14-.036-.247-.106-.319m-2.407 4.14h-1.334v-.643c0-.069.033-.107.112-.107h1.108c.076 0 .114.038.114.107zm.622-1.238c-.069-.068-.196-.106-.374-.106h-1.825c-.183 0-.31.034-.375.097-.069.064-.106.178-.106.346v2.302c0 .055.028.081.085.081h.549c.021 0 .038-.009.059-.025.02-.017.031-.037.031-.056v-.814h1.334v.82c0 .027.009.047.029.065a.104.104 0 0 0 .06.025h.549c.02 0 .038-.012.058-.025a.081.081 0 0 0 .032-.065V3.456H0v1.209c0 .022.007.043.029.058.02.018.043.024.063.024h.56c.049 0 .074-.026.074-.082V1.659c0-.067-.032-.095-.085-.095H.08c-.053 0-.08.028-.08.086v1.201h-1.059v-.668c0-.146-.036-.251-.106-.319" style="fill:#898989;fill-opacity:1;fill-rule:nonzero;stroke:none" transform="matrix(1.33333 0 0 -1.33333 98.652 63.473)"/><path d="M0 0c0-.056-.027-.083-.081-.083h-.564c-.054 0-.08.029-.08.087v4.079c0 .056.026.082.08.082h.564c.054 0 .081-.026.081-.082Zm.165-1.678A.107.107 0 0 0 .1-1.697h-3.266c-.19 0-.314.032-.382.099-.065.07-.096.185-.096.349V.174c0 .023.009.042.027.063.02.018.04.028.057.028h.55c.027 0 .052-.01.069-.028a.081.081 0 0 0 .027-.063V-.99c0-.042.009-.072.026-.083.016-.012.048-.02.09-.02H.1a.125.125 0 0 0 .065-.021c.02-.015.031-.034.031-.053v-.453c0-.026-.011-.047-.031-.058m-2.503 4.055a1 1 0 0 1-.061.34.801.801 0 0 1-.43.471.815.815 0 0 1-.337.073.772.772 0 0 1-.33-.073.687.687 0 0 1-.255-.189.816.816 0 0 1-.169-.282.975.975 0 0 1-.057-.34c0-.126.018-.246.057-.354a.807.807 0 0 1 .169-.282.719.719 0 0 1 .255-.193.829.829 0 0 1 .667 0 .832.832 0 0 1 .43.475c.038.108.061.228.061.354m.717.01c0-.209-.037-.407-.115-.592a1.444 1.444 0 0 0-.806-.807 1.57 1.57 0 0 0-.624-.12 1.503 1.503 0 0 0-1.098.445 1.478 1.478 0 0 0-.312.482 1.58 1.58 0 0 0-.108.592c0 .202.034.395.108.579.073.182.18.342.312.486a1.508 1.508 0 0 0 1.098.458 1.555 1.555 0 0 0 1.113-.458 1.558 1.558 0 0 0 .432-1.065" style="fill:#898989;fill-opacity:1;fill-rule:nonzero;stroke:none" transform="matrix(1.33333 0 0 -1.33333 107.435 62.697)"/><path d="M0 0a1.88 1.88 0 0 0 1.88 1.885h5.578v-11.36l7.812 11.36h9.917L16.381-9.461l9.202-18.71h-9.184l-5.091 12.358-3.85-5.025v-7.333H0Z" style="fill:#4c4949;fill-opacity:1;fill-rule:nonzero;stroke:none" transform="matrix(1.33333 0 0 -1.33333 93.373 5.909)"/><path d="M0 0a4.477 4.477 0 0 0-4.479 4.48 4.478 4.478 0 1 0 8.956 0A4.476 4.476 0 0 0 0 0m0 15.156c-5.896 0-10.676-4.778-10.676-10.676 0-5.895 4.78-10.676 10.676-10.676 5.895 0 10.674 4.781 10.674 10.676 0 5.898-4.779 10.676-10.674 10.676" style="fill:#4c4949;fill-opacity:1;fill-rule:nonzero;stroke:none" transform="matrix(1.33333 0 0 -1.33333 139.307 35.52)"/><path d="M0 0v-16.631L-9.091 0h-5.215a1.75 1.75 0 0 1-1.748-1.748v-28.308h7.015v16.503L0-30.056h7.029V0Z" style="fill:#4c4949;fill-opacity:1;fill-rule:nonzero;stroke:none" transform="matrix(1.33333 0 0 -1.33333 177.347 3.396)"/><path d="M0 0a1.75 1.75 0 0 1-1.749-1.748v-28.308H5.73V0Z" style="fill:#4c4949;fill-opacity:1;fill-rule:nonzero;stroke:none" transform="matrix(1.33333 0 0 -1.33333 196.05 3.396)"/><path d="M0 0c-.521-.564-1.43-.848-2.71-.848h-3.81V5.24h3.791c1.306 0 2.222-.269 2.743-.812.519-.538.78-1.252.78-2.141C.794 1.33.529.568 0 0m-6.52 16.66h3.299c1.125 0 1.92-.248 2.378-.742.455-.491.681-1.173.681-2.05 0-.944-.226-1.665-.681-2.162-.458-.497-1.267-.747-2.43-.747H-6.52ZM7.039 6.008c-.813 1.263-2.091 2.154-3.826 2.674 1.141.492 2.01 1.162 2.605 2.01.885 1.269 1.334 2.796 1.334 4.571 0 2.118-.628 3.895-1.873 5.329-1.243 1.436-3.033 2.156-5.356 2.156h-12.215A1.747 1.747 0 0 1-14.037 21V-7.308h12.873c.552 0 1.659.136 3.338.411 1.262.203 2.212.533 2.831.985 1.013.722 1.807 1.708 2.392 2.951.579 1.24.872 2.644.872 4.202 0 1.911-.412 3.499-1.23 4.767" style="fill:#4c4949;fill-opacity:1;fill-rule:nonzero;stroke:none" transform="matrix(1.33333 0 0 -1.33333 229.561 33.727)"/><path d="M0 0c-.58-.622-1.589-.93-3.033-.93h-1.826v6.704h2.127c1.393 0 2.34-.33 2.846-.985.505-.657.761-1.455.761-2.4C.875 1.419.586.623 0 0m6.118 9.482c-1.347 1.597-3.371 2.403-6.067 2.403h-10.655a1.746 1.746 0 0 1-1.744-1.748v-28.308h7.489v11.15h4.085c3.009 0 5.243.858 6.709 2.568 1.468 1.704 2.2 4.078 2.2 7.11 0 2.956-.675 5.228-2.017 6.825" style="fill:#4c4949;fill-opacity:1;fill-rule:nonzero;stroke:none" transform="matrix(1.33333 0 0 -1.33333 262.206 19.242)"/></svg>