<svg xmlns="http://www.w3.org/2000/svg" width="703.47949pt" height="150.00005pt" viewBox="0 0 703.47946 150.00005"><g fill="#828486"><path d="M171.044 537.145c-2.178 10.163-11.04 12.6-28.135 12.6H18.559l-44.19 38.993 10.457-38.992h-36.083L-73.89 634.17h36.083l10.717-39.96 30.78 39.96h41.049l-32.682-42.441 43.211-38.154 58.929 80.595h29.002c-3.512-5.101-45.991-61.559-51.81-70.104h48.91c35.225 0 33.592-22.639 30.746-26.921M167.687 503.63c11.868 4.426 21.93 13.646 24.82 27.812 2.192-8.656-1.15-37.335-37.7-45.206-7.645-1.647-21.396-1.922-37.605-1.922H-34.855l-3.983 14.875h172.73c13.328-.063 24.614 1.016 33.795 4.44" style="fill:#003f88;fill-opacity:1;stroke-width:4.8168" transform="translate(73.89 -484.314)"/><path d="M192.562 547.314c0-18.93-14.089-34.262-38.462-37.379-3.974-.51-11.17-.737-15.317-.794H-41.52l-3.868 14.489H137.67c6.31-.087 13.376.313 16.705.91 16.391 2.933 25.21 12.634 23.766 23.886-1.951 15.14-15.814 26.305-48.332 25.9h-18.52l43.905 59.844h27.788l-34.151-46.385c26.636-3.854 43.731-19.85 43.731-40.471" style="fill:#72bf44;fill-opacity:1;stroke-width:4.8168" transform="translate(73.89 -484.314)"/><path d="m237.91 634.118-5.954-10.727-2.996 3.647v7.08h-4.523V610.56h4.523v10.26l8.17-10.26h5.5l-7.677 9.364 8.227 14.195zM259.444 631.733c-1.628 1.657-3.613 2.581-6.247 2.581-2.635 0-4.653-.924-6.286-2.581-2.341-2.38-2.274-5.323-2.274-9.393s-.067-7.013 2.274-9.403c1.633-1.657 3.65-2.572 6.286-2.572 2.634 0 4.619.915 6.247 2.572 2.35 2.39 2.312 5.333 2.312 9.403s.039 7.013-2.312 9.393m-3.348-16.016c-.65-.761-1.657-1.248-2.9-1.248-1.232 0-2.273.487-2.928 1.248-.881 1.002-1.108 2.085-1.108 6.623 0 4.528.227 5.621 1.108 6.613.655.761 1.696 1.257 2.929 1.257 1.242 0 2.25-.496 2.9-1.257.876-.992 1.141-2.085 1.141-6.613 0-4.538-.265-5.621-1.142-6.623M278.351 634.118l-4.533-9.402h-3.251v9.402h-4.523V610.56h9.08c4.725 0 7.519 3.276 7.519 7.211 0 3.314-1.98 5.361-4.234 6.185l5.183 10.163zm-3.521-19.455h-4.263v6.224h4.263c1.994 0 3.29-1.296 3.29-3.117 0-1.816-1.296-3.107-3.29-3.107M286.991 634.118V610.56h15.265v4.104h-10.732v5.525h9.142v4.1h-9.142v5.726h10.732v4.104zM320.831 634.118l-1.363-4.171h-8.232l-1.401 4.171h-4.72l8.428-23.559h3.546l8.463 23.56zm-5.404-16.613-2.929 8.574h5.761zM349.004 634.118l-9.176-14.46v14.46h-4.523V610.56h4.036l9.181 14.427v-14.427h4.518v23.56zM371.937 634.118l-1.363-4.171h-8.232l-1.402 4.171h-4.72l8.43-23.559h3.544l8.464 23.56zm-5.404-16.613-2.929 8.574h5.76zM386.095 614.662v19.455h-4.533v-19.455h-6.05v-4.104h16.628v4.104zM395.487 634.118h4.528v-23.563h-4.528zM419.107 631.733c-1.619 1.657-3.613 2.581-6.248 2.581-2.635 0-4.653-.924-6.276-2.581-2.35-2.38-2.283-5.323-2.283-9.393s-.068-7.013 2.283-9.403c1.623-1.657 3.641-2.572 6.276-2.572s4.63.915 6.248 2.572c2.35 2.39 2.316 5.333 2.316 9.403s.034 7.013-2.316 9.393m-3.348-16.016c-.65-.761-1.657-1.248-2.9-1.248-1.233 0-2.273.487-2.928 1.248-.872 1.002-1.108 2.085-1.108 6.623 0 4.528.236 5.621 1.108 6.613.655.761 1.695 1.257 2.928 1.257 1.243 0 2.25-.496 2.9-1.257.877-.992 1.141-2.085 1.141-6.613 0-4.538-.264-5.621-1.141-6.623M439.406 634.118l-9.176-14.46v14.46h-4.523V610.56h4.036l9.18 14.427v-14.427h4.524v23.56zM462.347 634.118l-1.368-4.171h-8.237l-1.397 4.171h-4.72l8.429-23.559h3.555l8.458 23.56zm-5.405-16.613-2.929 8.574h5.761zM469.595 634.118V610.56h4.523v19.455h10.515v4.104zM507.499 634.118l-4.533-9.402h-3.251v9.402h-4.523V610.56h9.08c4.725 0 7.523 3.276 7.523 7.211 0 3.314-1.994 5.361-4.234 6.185l5.178 10.163zm-3.517-19.455h-4.267v6.224h4.267c1.99 0 3.286-1.296 3.286-3.117 0-1.816-1.296-3.107-3.286-3.107M529.326 634.118l-1.363-4.171h-8.232l-1.402 4.171h-4.72l8.43-23.559h3.544l8.464 23.56zm-5.404-16.613-2.929 8.574h5.766zM536.576 634.118h4.528v-23.563h-4.528zM546.17 634.118V610.56h4.534v19.455h10.505v4.104zM583.006 634.118h-3.771l-4.268-14.3-4.267 14.3h-3.772l-6.185-23.559h4.72l3.58 14.86 4.229-14.86h3.39l4.23 14.86 3.612-14.86h4.72zM605.097 634.118l-1.368-4.171h-8.237l-1.397 4.171h-4.72l8.43-23.559h3.55l8.453 23.56zm-5.405-16.613-2.928 8.574h5.76zM620.06 624.454v9.663h-4.494v-9.663l-6.96-13.896h4.912l4.33 9.494 4.259-9.494h4.913zM383.724 551.588c3.52 4.711 9.055 7.158 19.262 7.567v-8.386c-5.313 0-12.186-3.049-13.458-9.619h12.408v-8.256h-12.5v-5.645h-11.382v5.645h-12.5v8.256h12.413c-1.271 6.57-8.154 9.62-13.458 9.62v8.385c10.207-.409 15.713-2.856 19.214-7.567M469.768 567.176h-11.425v10.684h-24.354v9.334h59.3v-9.334h-23.52zM279.435 541.91c0-5.915-4.5-10.703-12.23-10.703h-42.759v8.781h38.92c2.529 0 4.6 1.31 4.6 4.09v8.251h-45.567v8.771h23.655v6.378h-21.608v8.776h40.447c2.524 0 4.59 1.325 4.59 4.1v11.044h11.474v-13.212c0-5.906-5-10.708-12.235-10.708H257.49V561.1h26.43v-8.771h-4.484zM449.062 562.09h40.413v-8.777h-36.574c-2.514 0-3.83-1.315-3.83-4.094v-8.815h40.318v-9.195h-52.552v20.187c0 5.905 4.249 10.693 12.225 10.693M622.792 543.618v-12.413H611.45v24.6h-29.691c-2.514 0-3.815-1.335-3.815-4.095v-11.315h23.299v-9.19h-34.787v22.658c0 5.93 4.244 10.727 12.24 10.727h32.754v7.856h11.343V552.53h6.797v-8.911zM580.146 578.391v-9.142h-11.464v11.31c0 5.915 4.745 10.703 12.225 10.703h43.443v-8.776h-40.365c-2.538 0-3.839-1.325-3.839-4.095M555.858 541.895c0-5.91-5.101-10.689-12.23-10.689h-42.007v8.772h38.934c2.524 0 3.825 1.32 3.825 4.084v13.035h-14.355v-10.602h-12.094v10.602h-19.798v8.786h11.21c-4.153 2.837-6.797 7.013-6.797 11.656 0 7.033 5.977 12.957 14.204 14.889 3.242.814 7.307 1.3 11.724 1.3 4.413 0 8.468-.486 11.715-1.3 8.217-1.927 14.21-7.856 14.21-14.889 0-4.643-2.645-8.82-6.807-11.656h11.252v-8.786h-2.986zm-27.37 44.204c-7.431 0-13.462-3.194-13.462-9.417 0-6.219 6.03-9.407 13.463-9.407 7.437 0 13.453 3.371 13.453 9.407 0 6.035-6.016 9.417-13.453 9.417" style="fill:#003f88;fill-opacity:1;stroke-width:4.8168" transform="translate(73.89 -484.314)"/><path d="M378.763 580.205v-.178h44.166v-48.843l-11.464.024v10.462h-7.74v8.415h7.74v11.806h-43.568v7.303h43.568v3.52h-43.568l-.01 2.298v5.516c0 5.915 4.224 10.703 12.225 10.703h43.375v-7.293H382.44c-2.53 0-3.676-.963-3.676-3.733M349.004 531.206h-11.349v60.191h11.349V552.53h6.787v-8.91h-6.787zM319.582 531.206h-26.396v8.781h21.473c1.421 0 2.582 1.17 2.582 2.602-.164 12.663-6.011 28.549-24.07 31.578v8.83c28.309-3.844 35.625-24.658 35.399-43.925 0-4.35-3.304-7.866-8.988-7.866" style="fill:#003f88;fill-opacity:1;stroke-width:4.8168" transform="translate(73.89 -484.314)"/></g></svg>