<svg xmlns="http://www.w3.org/2000/svg" xml:space="preserve" width="300.01352" height="300" viewBox="0 0 300.01351 300"><path d="m0 0-36.102-134.847s33.426 44.524 72.453-.121z" style="fill:#fcd31d;fill-opacity:1;fill-rule:nonzero;stroke:none" transform="matrix(1.93133 0 0 -1.93133 150.107 11.237)"/><path d="m0 0-8.632 1.654a60.984 60.984 0 0 0-9.422-9.753l.741-9.325-11.147-6.518-6.633 5.783c-4.154-1.643-8.454-2.795-12.999-3.521l-4.127-8.47-12.918.045-2.694 8.359c-4.232.633-8.154 1.713-12.054 3.162l-7.765-5.326-11.217 6.41 1.722 8.627a63.015 63.015 0 0 0-8.905 8.682l-9.327-.803-6.601 11.111 5.728 6.686c-1.687 4.187-2.86 8.539-3.612 13.125l-8.483 4.092-.007 12.921 8.35 2.716c.695 4.676 1.906 8.989 3.574 13.266l-5.194 7.831 6.589 11.111 8.651-1.773c2.503 3.043 5.299 5.803 8.33 8.315l-.732 9.336 11.148 6.507 6.624-5.791c4.092 1.612 8.31 2.741 12.771 3.463l4.105 8.485h12.914l2.713-8.351c4.499-.677 8.652-1.832 12.79-3.417l7.811 5.253 11.151-6.514-1.744-8.634a63.298 63.298 0 0 0 8.83-8.783l9.318.692L6.13 69.486.309 62.897c1.524-3.881 2.589-7.836 3.311-12.03l8.509-4.016.12-12.921-8.325-2.8c-.603-4.267-1.64-8.213-3.045-12.132l5.402-7.714zm-58.075 117.8c-42.901 0-77.675-34.754-77.675-77.661 0-42.912 34.774-77.672 77.675-77.672 42.889 0 77.665 34.76 77.665 77.672 0 42.907-34.776 77.661-77.665 77.661" style="fill:#fcd31d;fill-opacity:1;fill-rule:nonzero;stroke:none" transform="matrix(1.93133 0 0 -1.93133 262.179 227.511)"/></svg>