<svg xmlns="http://www.w3.org/2000/svg" xml:space="preserve" width="1957.5809" height="400" viewBox="0 0 1957.5809 400"><path d="M-65.673 430.56c0 58.76 47.632 106.392 106.392 106.392S147.11 489.32 147.11 430.56 99.478 324.168 40.719 324.168c-58.76 0-106.392 47.632-106.392 106.392" style="fill:#fcfcfd;fill-opacity:1;fill-rule:nonzero;stroke:none;stroke-width:3.77973" transform="matrix(1.77778 0 0 -1.77778 130.718 963.643)"/><path d="M38.971 350.768c-43.508 0-78.78 35.273-78.78 78.781 0 43.509 35.272 78.781 78.78 78.781 43.509 0 78.781-35.272 78.781-78.78 0-43.51-35.272-78.782-78.78-78.782m0 191.281c-62.132 0-112.5-50.369-112.5-112.5s50.368-112.5 112.5-112.5c62.13 0 112.5 50.369 112.5 112.5s-50.37 112.5-112.5 112.5" style="fill:#2e446a;fill-opacity:1;fill-rule:nonzero;stroke:none;stroke-width:3.77973" transform="matrix(1.77778 0 0 -1.77778 130.718 963.643)"/><path d="m-42.626 472.412 8.119-2.906-1.172-3.27-5.262 1.882-4.913-13.731-2.858 1.024zm-2.846 3.512-3.243-9.064 3.862-1.384-1.16-3.25-3.867 1.383-3.19-8.909-2.857 1.025 7.597 21.223zm-10.448 1.224a52.108 52.108 0 0 0 4.34-1.78c1.462-.673 2.547-1.251 3.25-1.739l-1.251-3.492c-.268.264-.96.676-2.083 1.243-.994.492-1.886.885-2.672 1.183l-4.74-13.244-2.86 1.024zM-28.379 489.15c-.32-.859-.26-1.501.186-1.925.495-.468 1.171-.529 2.037-.181.952.37 2.049 1.21 3.284 2.513 1.206 1.274 1.966 2.39 2.272 3.35.299.88.2 1.557-.29 2.025-.447.424-1.086.454-1.917.098-.915-.404-1.966-1.232-3.153-2.479-1.247-1.32-2.056-2.453-2.419-3.402m6.108 9.06c1.603.465 2.88.25 3.833-.654.987-.937 1.304-2.226.945-3.874-.382-1.837-1.557-3.799-3.526-5.877-1.992-2.102-3.901-3.398-5.727-3.89-1.625-.442-2.933-.196-3.92.737-.952.904-1.24 2.166-.857 3.791.427 1.815 1.636 3.776 3.628 5.878 1.958 2.067 3.833 3.364 5.624 3.89m-10.375 11.61c.238.208.423.333.556.379.124.034.227.015.31-.065.056-.056.136-.185.234-.385s.185-.36.257-.469a2.98 2.98 0 0 1 .427-.503l3.016-2.857 2.053 2.166 2.31-2.189-2.053-2.166 3.738-3.541-2.389-2.525-10.545 9.994 1.115 1.175c.42.442.744.771.971.987m-3.077-16.979 3.232 3.41-1.746 1.651-3.232-3.41zm-.408 11.68c.144.033.303-.084.469-.352.064-.125.113-.212.147-.269a2.73 2.73 0 0 1 .269-.283l7.226-6.853-7.994-8.436-8.27 7.835 1.505 1.588c.536.567.907.873 1.107.922.132.023.287-.11.457-.4.084-.17.16-.292.22-.371a2.75 2.75 0 0 1 .355-.4l1.073-1.021 3.232 3.41-2.328 2.207 1.39 1.462c.56.594.938.911 1.142.96M5.631 530.291c.182-.034.269-.245.265-.627-.015-.23-.008-.42.015-.567.027-.25.083-.488.17-.715l5.273-13.871-3.247-1.232-3.05 8.013-3.64-1.387-1.047 2.747 3.644 1.388-1.924 5.06 1.776.677c.968.367 1.554.537 1.765.514m-8.179-19.454c.151-.045.234-.242.246-.582.007-.19.019-.333.038-.427.03-.163.071-.322.128-.473l.96-2.517 13.74 5.224 1.077-2.839-16.986-6.46-2.642 6.948 1.908.725c.805.306 1.316.439 1.531.4m1.792 15.91 1.096-2.884-4.105-1.561.276-.726c.336-1.24 1.16-2.287 2.476-3.14 1.402-.92 2.861-1.252 4.37-.987a8.788 8.788 0 0 1-.568-1.618 19.534 19.534 0 0 1-.34-1.743c-1.19.084-2.366.409-3.534.968-1.066.514-1.97 1.15-2.71 1.909.026-.737-.257-1.727-.854-2.979a14.362 14.362 0 0 0-2.355-3.518c-.469.31-.983.604-1.546.895a12.11 12.11 0 0 1-1.682.658c.733.4 1.398.964 1.992 1.693.525.65.952 1.395 1.289 2.23.329.768.529 1.52.6 2.257.091.726.054 1.311-.113 1.75l-.442 1.156-4.388-1.666-1.096 2.884zM45.394 534.271c.124-.06.136-.23.034-.51a3.018 3.018 0 0 1-.11-.416 2.534 2.534 0 0 1-.057-.582l.25-11.585-3.474-.075-.287 13.21 2.09.045c.862.02 1.38-.011 1.554-.087m.147-14.499.189-8.697-3.474-.072-.124 5.681-14.696-.317-.064 3.012zm-6.959 13.282.068-3.084-4.414-.095.015-.51c.004-.34.14-.748.4-1.228a7.278 7.278 0 0 1 1.16-1.505 8.427 8.427 0 0 1 1.815-1.372 7.352 7.352 0 0 1 2.366-.895 14.619 14.619 0 0 1-2.026-2.986 12.799 12.799 0 0 0-3.33 1.946c-.971.79-1.636 1.561-2 2.313-.294-.782-.925-1.614-1.893-2.494a14.08 14.08 0 0 0-3.496-2.287c-.26.367-.654.813-1.183 1.334-.48.476-.941.896-1.387 1.259a7.768 7.768 0 0 1 2.513.979A9.1 9.1 0 0 1 29.156 526c.533.578.96 1.18 1.274 1.8.317.589.468 1.103.46 1.541l-.01.462-4.695-.102-.068 3.084zM83.258 524.996c-.809-2.65-1.648-4.948-2.525-6.898a43.202 43.202 0 0 0-3.076-5.742l-3.36 1.308c.672.964 1.405 2.219 2.207 3.769 1.016 1.991 1.795 3.87 2.336 5.635l-13.88 4.241.915 2.994zm-19.53-10.568 2.2 7.2 1.75-.533c.824-.253 1.304-.442 1.448-.57.102-.099.068-.258-.099-.48a1.258 1.258 0 0 1-.211-.288 1.813 1.813 0 0 1-.163-.382l-1.803-5.9 2.74-.839 2.197 7.204 1.867-.57c.82-.254 1.3-.45 1.44-.594.098-.098.045-.25-.166-.457a2.546 2.546 0 0 1-.235-.284 1.156 1.156 0 0 1-.185-.374l-1.795-5.877 7.994-2.442-.915-2.997-21.56 6.584.915 2.997zM105.534 509.539c-.907.37-1.542.351-1.909-.06-.355-.398-.298-1.033.167-1.902.51-.953 1.47-2.053 2.872-3.304 1.406-1.247 2.623-2.082 3.655-2.498.938-.382 1.584-.374 1.94.026.366.412.302 1.055-.197 1.932-.545.918-1.531 2.01-2.96 3.28-1.414 1.26-2.604 2.102-3.568 2.526m9.718-6.139c.586-1.651.45-2.96-.412-3.927-.84-.945-2.117-1.224-3.833-.846-1.901.43-3.942 1.621-6.13 3.564-2.2 1.958-3.618 3.848-4.257 5.673-.578 1.66-.446 2.964.393 3.905.862.971 2.144 1.258 3.852.869 1.863-.446 3.897-1.648 6.097-3.602 2.2-1.958 3.628-3.837 4.29-5.636m-2.548-9.404-1.776-1.995-4.51 4.01-1.406-1.58-2.596 2.31 1.406 1.58-2.616 2.324-1.402-1.58-2.6 2.31 1.406 1.58-4.529 4.025 1.777 2zm-4.808-1.837-5.68-6.387-2.597 2.31 3.662 4.119-10.704 9.521 2.018 2.268zM130.085 479.162c-.514.264-1.02.28-1.52.049-.472-.216-.759-.597-.865-1.146-.12-.59-.004-1.27.352-2.037.325-.71.744-1.198 1.258-1.463.496-.257.968-.28 1.425-.068.5.231.82.62.96 1.165.14.582.053 1.224-.268 1.92-.351.767-.801 1.292-1.342 1.58m4.234-5.137c-.325-1.27-1.032-2.154-2.12-2.653-1.044-.48-2.155-.431-3.33.147-1.297.646-2.34 1.83-3.13 3.55-.806 1.75-1.029 3.318-.67 4.705.333 1.255 1.021 2.124 2.064 2.604 1.089.503 2.219.469 3.387-.094 1.289-.632 2.336-1.822 3.14-3.572.79-1.72 1.01-3.281.659-4.687m4.72-6.252c.103-.298.152-.518.144-.661 0-.117-.049-.2-.151-.25a3.384 3.384 0 0 0-.457-.053 6.462 6.462 0 0 1-.533-.064 2.982 2.982 0 0 1-.703-.22l-14.34-6.598-1.452 3.16 1.852.85-1.807 3.927 2.604 1.198 1.807-3.927 11.782 5.42.71-1.534c.246-.54.427-.957.544-1.248m-13.977 7.37a283.268 283.268 0 0 1 3.723-7.279c-.495-.318-.892-.56-1.187-.73-.476-.287-.87-.517-1.18-.695l-2.826 5.394-2.846-1.312-1.433 3.115 2.778 1.28a63.358 63.358 0 0 1-.93 1.845c-.37.692-.714 1.308-1.035 1.853-.087.185-.193.359-.322.521a4.1 4.1 0 0 1-.32.344c-.205.22-.307.378-.3.484.02.147.212.348.579.6l2.003 1.339c1.357-2.79 2.453-5.042 3.296-6.758m-6.324-1.77c-.037-.154-.215-.245-.54-.275a3.318 3.318 0 0 1-.348-.057 2.188 2.188 0 0 1-.42-.14l-1.942-.895 5.877-12.776-2.755-1.27-7.333 15.935 6.116 2.813.854-1.856c.352-.768.514-1.263.491-1.478M-57.382 390.068c.087-.356.306-.832.51-1.267 1.402-3.073 4.237-4.233 8.621-2.196 3.776 1.758 4.79 4.472 3.406 7.443a9.07 9.07 0 0 1-.84 1.459zm12.514 9.698c.764-1.07 1.603-2.528 2.359-4.157 1.293-2.778 1.584-4.937 1.077-6.864-.563-2.189-2.192-4.082-5.208-5.485-3.584-1.663-6.24-1.394-7.987-.65-2.075.885-3.829 2.895-5.182 5.802a31.918 31.918 0 0 0-1.466 3.727zM-41.843 376.74l.824-1.205c1.138-1.66 2.797-2.004 4.24-1.017 1.955 1.338 1.331 3.058.598 4.127-.446.65-.798 1.077-1.036 1.263zm4.672 7.465c.865-.884 1.98-2.215 2.993-3.696 1.312-1.917 3.727-5.953-.344-8.74-1.856-1.273-4.033-1.02-5.56.024l-.056-.042c.313-1.35-.307-2.646-1.607-4.06-1.5-1.662-3.046-3.303-3.417-3.99l-2.056 3c.284.514 1.353 1.8 2.945 3.413 1.689 1.735 1.882 2.767.933 4.15l-.676.987-6.165-4.222-1.988 2.907zM-32.145 353.932l-2.147-2.053-7.113 7.443 13.308 12.726 6.85-7.166-2.144-2.053-4.403 4.604-3.22-3.077 4.153-4.343-2.094-2.003-4.154 4.343-3.704-3.542zM-21.79 351.382l3.19-2.295 1.553 4.048c.434 1.1 1.05 2.488 1.512 3.542l-.057.042c-.866-.794-2-1.837-2.842-2.555zm9.85 6.312-6.57-17.961-3.016 2.165 1.769 4.717-4.007 2.88-3.87-3.205-2.918 2.094 14.994 11.914zM9.748 347.053l-6.025-17.44-3.126 1.285 2.411 6.75c.832 2.276 1.849 5.07 2.582 6.79l-.064.026a126.158 126.158 0 0 0-4.234-5.511l-4.917-6.036-2.48 1.02.904 7.552c.238 2.158.65 4.68 1.107 6.924l-.064.03a252.26 252.26 0 0 0-3.054-6.67l-3.028-6.422-2.99 1.228 8.153 16.567 4.056-1.667-.794-7.159c-.29-2.29-.623-4.483-1.047-6.588l.065-.03a99.29 99.29 0 0 0 3.953 5.397l4.559 5.61zM10.64 334.339l.529 2.385 6.403-1.421-.53-2.385zM25.096 328.323c.351-.102.876-.151 1.353-.193 3.36-.321 5.787 1.554 6.214 6.373.366 4.15-1.478 6.38-4.744 6.667a8.885 8.885 0 0 1-1.682.008zm-2.144 15.693c1.312.125 2.994.118 4.782-.037 3.054-.272 5.068-1.1 6.486-2.499 1.614-1.587 2.438-3.942 2.143-7.257-.348-3.935-1.913-6.104-3.432-7.246-1.8-1.353-4.419-1.867-7.616-1.583-1.694.15-3.04.389-3.961.593zM51.513 328.13l.125-2.968-10.289-.438-.782 18.407 9.91.42.125-2.968-6.369-.272.19-4.449 6.009.254.12-2.896-6.005-.257.215-5.121zM56.674 329.508c1.043-.397 2.634-.582 4.097-.322 1.931.34 2.786 1.44 2.548 2.786-.231 1.296-1.24 1.924-3.398 2.442-2.949.695-4.948 2.094-5.364 4.452-.525 2.975 1.406 5.677 5.322 6.37 1.724.301 3.114.135 4.04-.14l-.226-2.983a7.117 7.117 0 0 1-3.372.204c-1.84-.325-2.49-1.459-2.313-2.476.23-1.296 1.232-1.727 3.629-2.35 3.133-.783 4.724-2.23 5.148-4.616.559-3.16-1.418-5.892-5.64-6.64-1.791-.318-3.696-.144-4.638.226zM73.296 329.212l-5.42 17.602 3.39 1.043 5.417-17.602zM90.743 347.534l4.195-8.584c-.79-.836-2.441-2.204-4.312-3.119-2.514-1.228-4.744-1.519-6.815-.827-2.106.703-4.026 2.562-5.307 5.185-2.737 5.594-.476 10.402 4.279 12.727 1.678.82 3.224 1.202 4.206 1.206l.617-2.952c-.923-.023-1.992-.227-3.455-.945-2.948-1.437-4.301-4.34-2.347-8.342 1.874-3.825 4.86-4.763 7.593-3.428.775.378 1.304.77 1.52 1.035l-1.977 4.045-2.389-1.168-1.228 2.517zM100.247 365.022l11.597-14.306-2.752-2.234-7.866 3.428c-1.954.85-4.226 1.94-6.089 3.02l-.072-.06c1.542-1.675 3.228-3.64 5.296-6.188l3.56-4.392-2.494-2.022-11.6 14.31 2.978 2.411 7.718-3.36a59.168 59.168 0 0 0 5.927-2.937l.038.03c-1.648 1.686-3.364 3.656-5.25 5.98L97.753 363zM111.537 359.244l-1.833 1.614 4.332 4.929 1.833-1.614zM123.813 369.226c.253.264.537.707.798 1.111 1.84 2.835 1.296 5.855-2.782 8.463-3.512 2.245-6.343 1.64-8.111-1.126a9.046 9.046 0 0 1-.787-1.49zm-14.915 5.36c.492 1.22 1.278 2.71 2.246 4.225 1.651 2.582 3.318 3.988 5.216 4.596 2.154.7 4.626.34 7.43-1.455 3.33-2.128 4.532-4.52 4.842-6.395.367-2.226-.389-4.785-2.12-7.488a31.016 31.016 0 0 0-2.359-3.243zM127.252 388.504c3.34-1.38 6.625-1.206 7.62 1.206 1.005 2.434-1.199 4.819-4.627 6.236-3.118 1.285-6.501 1.312-7.537-1.19-1.058-2.567 1.425-4.963 4.544-6.252m4.278 10.927c5.927-2.45 7.718-6.709 5.972-10.938-1.852-4.49-6.663-5.481-11.6-3.448-5.087 2.102-7.669 6.456-5.832 10.905 1.943 4.713 6.92 5.352 11.46 3.481" style="fill:#fff;fill-opacity:1;fill-rule:nonzero;stroke:none;stroke-width:3.77973" transform="matrix(1.77778 0 0 -1.77778 130.718 963.643)"/><path d="m-56.461 441.045 3.56-10.961h11.525l-9.321-6.297 3.56-10.723-9.324 6.89-9.325-6.713 3.564 10.515-9.324 6.328h11.524zM135.147 442.891l3.56-10.96h11.525l-9.325-6.302 3.564-10.723-9.324 6.89-9.325-6.712 3.56 10.515-9.32 6.331h11.524z" style="fill:#f6e700;fill-opacity:1;fill-rule:nonzero;stroke:none;stroke-width:3.77973" transform="matrix(1.77778 0 0 -1.77778 130.718 963.643)"/><path d="M56.434 460.29c-3.364-1.36-7.797 1.77-9.899 6.978-2.11 5.216-1.089 10.541 2.268 11.894 3.364 1.361 7.79-1.765 9.899-6.977 2.105-5.216 1.092-10.542-2.268-11.895" style="fill:#fff;fill-opacity:1;fill-rule:evenodd;stroke:none;stroke-width:3.77973" transform="matrix(1.77778 0 0 -1.77778 130.718 963.643)"/><path d="M56.856 459.24zm-3.885 2.26c-2.15.915-4.215 3.288-5.386 6.191-1.195 2.948-1.354 6.014-.427 8.199.325.767.944 1.772 2.07 2.226 2.726 1.103 6.589-1.807 8.43-6.358 1.171-2.906 1.334-6.051.42-8.202-.322-.763-.946-1.769-2.065-2.218h-.003c-1.123-.454-2.272-.163-3.04.162m-4.592 18.71c-1.455-.586-2.596-1.777-3.3-3.44-1.156-2.725-1.001-6.433.409-9.925 1.41-3.49 3.878-6.267 6.603-7.424 1.66-.707 3.311-.767 4.766-.181 1.455.586 2.597 1.772 3.3 3.428.518 1.217.775 2.627.775 4.131 0 1.864-.397 3.87-1.18 5.81-2.377 5.877-7.374 9.218-11.373 7.6" style="fill:#b2b2b2;fill-opacity:1;fill-rule:evenodd;stroke:none;stroke-width:3.77973" transform="matrix(1.77778 0 0 -1.77778 130.718 963.643)"/><path d="M54.491 465.096c-1.406-.567-3.383 1.047-4.415 3.602-1.04 2.555-.733 5.088.67 5.658 1.41.567 3.386-1.043 4.422-3.602 1.031-2.555.729-5.087-.677-5.658" style="fill:#fff;fill-opacity:1;fill-rule:evenodd;stroke:none;stroke-width:3.77973" transform="matrix(1.77778 0 0 -1.77778 130.718 963.643)"/><path d="M53.476 466.214c-.657.276-1.666 1.206-2.354 2.906-.873 2.151-.548 3.946.053 4.192.593.238 2.07-.828 2.944-2.982.378-.941.53-1.814.53-2.517 0-.908-.25-1.531-.583-1.671-.185-.072-.423 0-.59.072m-3.152 9.192c-2.056-.839-2.612-3.904-1.296-7.132.801-1.985 2.135-3.534 3.564-4.143.809-.344 1.61-.37 2.32-.083h.005c2.044.832 2.604 3.9 1.296 7.129-1.308 3.239-3.84 5.053-5.889 4.23" style="fill:#b2b2b2;fill-opacity:1;fill-rule:evenodd;stroke:none;stroke-width:3.77973" transform="matrix(1.77778 0 0 -1.77778 130.718 963.643)"/><path d="M24.37 475.042s-4.229.053-4.229-3.571c0-3.625 4.23-3.625 4.23-3.625h10.897l-4.891-81.812s-8.807-.552-18.85 14.45l3.72.816-9.828 9.226L3.48 397.4l3.659 1.168s5.703-13.64 14.74-19.057c9.042-5.424 13.956-7.144 17.943-13.864 0 0 5.47 6.21 13.21 10.666 7.745 4.453 14.375 7.737 20.169 21.975l3.984-1.254-1.89 13.07-9.464-8.157 3.753-1.53s-4.589-11.548-19.746-14.05l-6.259 81.48h11.699s4.1.049 4.1 3.625c0 3.571-4.1 3.571-4.1 3.571z" style="fill:#fff;fill-opacity:1;fill-rule:evenodd;stroke:none;stroke-width:3.77973" transform="matrix(1.77778 0 0 -1.77778 130.718 963.643)"/><path d="M21.27 471.472c0 .67.19 1.176.572 1.557.733.73 2.067.885 2.517.885h30.918c.495-.004 2.971-.144 2.971-2.442 0-2.362-2.684-2.49-2.986-2.494H42.358l6.448-83.93 1.217.2c15.61 2.582 20.415 14.254 20.611 14.753l.416 1.04-3.08 1.254c1.636 1.414 4.709 4.06 6.504 5.606.348-2.438 1.02-7.072 1.335-9.253l-3.258 1.032-.397-.968c-5.394-13.248-11.544-16.767-18.668-20.837l-1.017-.586c-5.987-3.44-10.565-7.828-12.492-9.82-3.198 4.747-7.046 6.985-12.662 10.186l-4.85 2.824c-8.614 5.163-14.23 18.392-14.283 18.524l-.401.953s-1.958-.624-2.918-.926c.318 2.166.987 6.686 1.357 9.192l6.69-6.278-3.247-.707.923-1.383c10.288-15.369 19.477-14.972 19.862-14.95l.998.065 5.02 84.009H24.37c-.313 0-3.1.094-3.1 2.494m-1.012 3.175c-.813-.809-1.247-1.905-1.247-3.175 0-3.764 3.507-4.759 5.36-4.759h9.694l-4.747-79.453c-2.366.381-8.701 2.388-15.886 12.484l4.154.911L4.614 412.83l-2.518-17.058 4.419 1.41c1.481-3.232 6.818-13.868 14.782-18.642l4.899-2.85c5.987-3.417 9.6-5.48 12.654-10.617l.79-1.335 1.028 1.165c.053.056 5.447 6.126 12.927 10.428l1.013.578c7.299 4.177 13.622 7.87 19.209 20.997l4.743-1.493-2.438 16.895-12.427-10.712s3.25-1.327 4.35-1.773c-1.41-2.668-6.168-9.815-17.175-12.087-.189 2.442-5.893 76.653-6.07 78.977h10.477c1.822.023 5.231 1.047 5.231 4.76 0 3.718-3.42 4.701-5.23 4.701H24.37h.015c-.26 0-2.589-.011-4.127-1.527" style="fill:#b2b2b2;fill-opacity:1;fill-rule:evenodd;stroke:none;stroke-width:3.77973" transform="matrix(1.77778 0 0 -1.77778 130.718 963.643)"/><path d="M69.089 436.361c-3.36-1.357-7.79 1.773-9.9 6.99-2.104 5.208-1.084 10.537 2.269 11.894 3.368 1.353 7.794-1.769 9.903-6.985 2.105-5.212 1.088-10.538-2.272-11.899" style="fill:#fff;fill-opacity:1;fill-rule:evenodd;stroke:none;stroke-width:3.77973" transform="matrix(1.77778 0 0 -1.77778 130.718 963.643)"/><path d="M65.635 437.572c-2.188.93-4.203 3.243-5.394 6.199-1.84 4.547-1.088 9.32 1.64 10.428 2.734 1.096 6.593-1.814 8.43-6.361.68-1.69 1.005-3.406 1.005-4.96 0-2.626-.934-4.77-2.65-5.465-1.122-.457-2.267-.166-3.03.16m-4.597 18.72c-4.003-1.618-5.273-7.491-2.895-13.369 1.413-3.5 3.881-6.278 6.607-7.43 1.659-.708 3.307-.768 4.762-.178 4 1.617 5.27 7.491 2.892 13.368-2.37 5.882-7.367 9.22-11.366 7.61" style="fill:#b2b2b2;fill-opacity:1;fill-rule:evenodd;stroke:none;stroke-width:3.77973" transform="matrix(1.77778 0 0 -1.77778 130.718 963.643)"/><path d="M67.149 441.17c-1.41-.563-3.39 1.047-4.423 3.602-1.032 2.555-.725 5.091.677 5.658 1.41.571 3.386-1.04 4.422-3.598 1.028-2.559.73-5.091-.676-5.662" style="fill:#fff;fill-opacity:1;fill-rule:evenodd;stroke:none;stroke-width:3.77973" transform="matrix(1.77778 0 0 -1.77778 130.718 963.643)"/><path d="M63.776 445.196c-.688 1.697-.605 3.07-.329 3.727.072.17.2.386.378.457.189.076.427.008.593-.064.658-.28 1.671-1.21 2.359-2.91.378-.945.53-1.818.53-2.521 0-.904-.247-1.527-.583-1.664-.6-.238-2.079.828-2.948 2.975m-.798 6.282c-.71-.287-1.266-.862-1.61-1.667-.608-1.436-.491-3.477.31-5.462 1.308-3.231 3.84-5.053 5.893-4.225h.004c2.04.827 2.6 3.893 1.3 7.132-.81 1.988-2.143 3.538-3.572 4.143-.809.34-1.61.37-2.325.08" style="fill:#b2b2b2;fill-opacity:1;fill-rule:evenodd;stroke:none;stroke-width:3.77973" transform="matrix(1.77778 0 0 -1.77778 130.718 963.643)"/><path d="M39.974 479.537c-3.258 0-5.904 2.887-5.904 6.452 0 3.56 2.646 6.448 5.904 6.448s5.9-2.888 5.9-6.448c0-3.565-2.642-6.452-5.9-6.452m0 17.243c-5.454 0-9.873-4.83-9.873-10.791s4.419-10.795 9.873-10.795c5.45 0 9.876 4.834 9.876 10.795 0 5.96-4.426 10.79-9.876 10.79" style="fill:#fff;fill-opacity:1;fill-rule:evenodd;stroke:none;stroke-width:3.77973" transform="matrix(1.77778 0 0 -1.77778 130.718 963.643)"/><path d="M31.23 485.988c0 5.326 3.92 9.661 8.743 9.661s8.746-4.335 8.746-9.66c0-5.33-3.923-9.666-8.746-9.666s-8.743 4.336-8.743 9.665m-2.26 0c0-6.577 4.936-11.921 11.003-11.921 6.07 0 11.006 5.344 11.006 11.921 0 6.573-4.936 11.921-11.006 11.921-6.067 0-11.003-5.348-11.003-11.92" style="fill:#b2b2b2;fill-opacity:1;fill-rule:evenodd;stroke:none;stroke-width:3.77973" transform="matrix(1.77778 0 0 -1.77778 130.718 963.643)"/><path d="M35.2 485.988c0 2.93 2.143 5.318 4.774 5.318 2.63 0 4.77-2.389 4.77-5.318 0-2.933-2.14-5.322-4.77-5.322-2.63 0-4.774 2.39-4.774 5.322m-2.26 0c0-4.18 3.156-7.582 7.034-7.582 3.878 0 7.03 3.402 7.03 7.582 0 4.177-3.152 7.579-7.03 7.579s-7.034-3.402-7.034-7.579" style="fill:#b2b2b2;fill-opacity:1;fill-rule:evenodd;stroke:none;stroke-width:3.77973" transform="matrix(1.77778 0 0 -1.77778 130.718 963.643)"/><path d="M44.986 483.85s-1.375 1.156-2.528-.068c-1.15-1.225.185-2.416.185-2.416l6.233-5.88s1.202-1.222 2.37.018c1.164 1.236-.06 2.434-.06 2.434z" style="fill:#fff;fill-opacity:1;fill-rule:evenodd;stroke:none;stroke-width:3.77973" transform="matrix(1.77778 0 0 -1.77778 130.718 963.643)"/><path d="m49.668 476.293-6.248 5.896c-.48.454-.249.7-.14.82.269.28.598.269.983-.03l6.142-5.858c.163-.17.216-.318.216-.443 0-.189-.129-.328-.2-.404-.084-.087-.205-.193-.31-.197-.148-.004-.36.136-.443.216m-8.035 8.262c-.677-.722-.794-1.459-.771-1.95.053-1.183.93-1.992 1.028-2.083-.023.02 6.21-5.854 6.21-5.854.06-.065.88-.862 2.033-.85.495.007 1.236.165 1.932.91 1.417 1.5.725 3.224-.091 4.018-.008.011-6.233 5.95-6.233 5.95l-.026.022c-.885.74-2.699 1.311-4.082-.163" style="fill:#b2b2b2;fill-opacity:1;fill-rule:evenodd;stroke:none;stroke-width:3.77973" transform="matrix(1.77778 0 0 -1.77778 130.718 963.643)"/><path d="M57.318 464.65s-1.376 2.39-2.914 1.573c-1.542-.812-.212-3.216-.212-3.216l6.134-11.646s1.165-2.354 2.718-1.534c1.561.82.363 3.16.363 3.16z" style="fill:#fff;fill-opacity:1;fill-rule:evenodd;stroke:none;stroke-width:3.77973" transform="matrix(1.77778 0 0 -1.77778 130.718 963.643)"/><path d="M62.31 450.795c-.336.11-.779.692-.971 1.07l-6.146 11.664c-.234.431-.488 1.202-.378 1.565.015.05.03.087.113.129.397.211 1.164-.718 1.406-1.134.042-.072 6.07-11.627 6.07-11.627.069-.136.31-.737.31-1.183 0-.204-.052-.374-.196-.45-.106-.056-.155-.052-.208-.034m-8.436 16.427a2.442 2.442 0 0 1-1.229-1.481c-.415-1.41.39-2.983.556-3.285-.008.019 6.127-11.623 6.127-11.623.128-.264.918-1.746 2.287-2.184.654-.216 1.33-.152 1.958.177 1.75.923 1.663 3.07.842 4.676-.003.008-6.119 11.713-6.119 11.713-.714 1.24-2.45 3.054-4.422 2.007" style="fill:#b2b2b2;fill-opacity:1;fill-rule:evenodd;stroke:none;stroke-width:3.77973" transform="matrix(1.77778 0 0 -1.77778 130.718 963.643)"/><path d="M40.719 430.56h-4.876l-13.35 11.54s-3.152 2.037-6.77 2.037h-58.041s2.135-10.009 10.666-10.107h54.054-54.054s-3.25-9.646 9.268-11.037h53.128-53.128s.185-8.898 8.07-11.128h55.033" style="fill:#fff;fill-opacity:1;fill-rule:nonzero;stroke:none;stroke-width:3.77973" transform="matrix(1.77778 0 0 -1.77778 130.718 963.643)"/><path d="M-42.317 445.268h-1.395l.29-1.364c.02-.106 2.2-9.809 10.395-10.89a10.691 10.691 0 0 1-.136-1.647c0-1.414.287-3.145 1.32-4.767 1.556-2.445 4.425-3.946 8.42-4.558.299-2.438 1.732-9.264 8.8-11.264l.15-.041H40.72v2.26h-54.828c-5.371 1.584-6.698 6.596-7.023 8.867h51.877v2.264h-53.128c-3.663.412-6.244 1.652-7.54 3.67-.764 1.187-.976 2.491-.976 3.568 0 .609.072 1.134.144 1.535h53.158v2.26h-54.054c-5.813.068-8.289 5.303-9.155 7.847h56.53c3.062 0 5.802-1.64 6.1-1.822.14-.124 13.6-11.759 13.6-11.759h5.295v2.265h-4.456c-.605.521-13.089 11.312-13.089 11.312l-.064.046c-.14.087-3.481 2.218-7.386 2.218z" style="fill:#b2b2b2;fill-opacity:1;fill-rule:nonzero;stroke:none;stroke-width:3.77973" transform="matrix(1.77778 0 0 -1.77778 130.718 963.643)"/><path d="M40.02 430.56h4.873l13.35 11.54s3.16 2.037 6.773 2.037h58.038s-2.128-10.009-10.655-10.107H58.34h54.058s3.243-9.646-9.272-11.037H49.995h53.132s-.189-8.898-8.07-11.128H40.021" style="fill:#fff;fill-opacity:1;fill-rule:nonzero;stroke:none;stroke-width:3.77973" transform="matrix(1.77778 0 0 -1.77778 130.718 963.643)"/><path d="M65.016 445.268c-3.904 0-7.245-2.128-7.389-2.218l-.064-.046s-12.485-10.79-13.093-11.312H40.02v-2.265h5.292l13.6 11.755c.294.186 3.046 1.826 6.103 1.826h56.53c-.865-2.544-3.341-7.779-9.162-7.847H58.341v-2.26H111.5c.075-.4.143-.922.143-1.53 0-1.078-.211-2.386-.975-3.573-1.293-2.01-3.863-3.246-7.627-3.67H49.996v-2.264h51.88c-.328-2.271-1.655-7.283-7.026-8.867H40.02v-2.26h55.192l.15.041c7.08 2 8.51 8.852 8.804 11.275 4.033.631 6.871 2.124 8.417 4.547 1.036 1.622 1.323 3.353 1.323 4.766 0 .635-.064 1.176-.136 1.648 8.195 1.089 10.368 10.784 10.39 10.89l.292 1.364h-1.399z" style="fill:#b2b2b2;fill-opacity:1;fill-rule:nonzero;stroke:none;stroke-width:3.77973" transform="matrix(1.77778 0 0 -1.77778 130.718 963.643)"/><path d="m39.905 428.175 31.535 11.543-16.367-16.585.004-.038z" style="fill:#e40521;fill-opacity:1;fill-rule:nonzero;stroke:none;stroke-width:3.77973" transform="matrix(1.77778 0 0 -1.77778 130.718 963.643)"/><path d="M70.894 439.369c-.843-.85-15.92-16.136-15.92-16.136-.008.042-12.386 4.192-14.639 4.948.726.265 29.43 10.776 30.56 11.188m-31.04-11.06-.378-.14 15.637-5.238.06.102 16.367 16.585-.152.235z" style="fill:#b2b2b2;fill-opacity:1;fill-rule:nonzero;stroke:none;stroke-width:3.77973" transform="matrix(1.77778 0 0 -1.77778 130.718 963.643)"/><path d="m39.88 464.844-9.374-22.198-.212-.03 9.585-14.443z" style="fill:#f7e700;fill-opacity:1;fill-rule:nonzero;stroke:none;stroke-width:3.77973" transform="matrix(1.77778 0 0 -1.77778 130.718 963.643)"/><path d="M39.738 464.144v-35.499c-.488.733-8.981 13.532-9.208 13.872.155.2 7.722 18.108 9.208 21.627m-9.344-21.4c-.023.022-.117.015-.117.015l-.227-.03 9.971-15.025v37.14l-.272.056-9.355-22.156" style="fill:#b2b2b2;fill-opacity:1;fill-rule:nonzero;stroke:none;stroke-width:3.77973" transform="matrix(1.77778 0 0 -1.77778 130.718 963.643)"/><path d="M39.88 428.175 20.534 399.24l19.344 11.827Z" style="fill:#f7e700;fill-opacity:1;fill-rule:nonzero;stroke:none;stroke-width:3.77973" transform="matrix(1.77778 0 0 -1.77778 130.718 963.643)"/><path d="M39.738 427.708v-16.639c-.03.053-15.69-9.513-18.73-11.37.685 1.021 18.234 27.268 18.73 28.009m.022.548-19.344-28.934.192-.2 19.345 11.826.068 17.693z" style="fill:#b2b2b2;fill-opacity:1;fill-rule:nonzero;stroke:none;stroke-width:3.77973" transform="matrix(1.77778 0 0 -1.77778 130.718 963.643)"/><path d="m39.88 428.175-15.169-5.08-4.331-23.952.155.098z" style="fill:#e40521;fill-opacity:1;fill-rule:nonzero;stroke:none;stroke-width:3.77973" transform="matrix(1.77778 0 0 -1.77778 130.718 963.643)"/><path d="m39.53 427.908-18.924-28.3 4.244 23.458c.02-.06 12.398 4.078 14.68 4.842m.303.4-15.168-5.08c-.094-.11-4.426-24.058-4.426-24.058l-.057-.325.427.28c.042.038 19.387 28.972 19.387 28.972l.23.344z" style="fill:#b2b2b2;fill-opacity:1;fill-rule:nonzero;stroke:none;stroke-width:3.77973" transform="matrix(1.77778 0 0 -1.77778 130.718 963.643)"/><path d="M39.88 428.175 8.352 439.718l16.362-16.585-.004-.038z" style="fill:#f7e700;fill-opacity:1;fill-rule:nonzero;stroke:none;stroke-width:3.77973" transform="matrix(1.77778 0 0 -1.77778 130.718 963.643)"/><path d="M24.665 423.229c0 .143-13.259 13.595-15.769 16.14 1.13-.413 29.826-10.924 30.556-11.189-.73-.242-14.787-4.951-14.787-4.951zM8.25 439.618l16.366-16.586c.14-.072 15.308 5.008 15.308 5.008l.382.129-31.905 11.683z" style="fill:#b2b2b2;fill-opacity:1;fill-rule:nonzero;stroke:none;stroke-width:3.77973" transform="matrix(1.77778 0 0 -1.77778 130.718 963.643)"/><path d="m30.295 442.617-21.972-2.869.027-.03 31.53-11.543z" style="fill:#e40521;fill-opacity:1;fill-rule:nonzero;stroke:none;stroke-width:3.77973" transform="matrix(1.77778 0 0 -1.77778 130.718 963.643)"/><path d="m30.226 442.464 9.294-14.008c-.778.287-29.739 10.89-30.646 11.222 1.013.132 21.182 2.767 21.352 2.786m.053.295-21.976-2.87v-.302l31.932-11.694-9.873 14.877z" style="fill:#b2b2b2;fill-opacity:1;fill-rule:nonzero;stroke:none;stroke-width:3.77973" transform="matrix(1.77778 0 0 -1.77778 130.718 963.643)"/><path d="m39.905 464.844 9.37-22.198.22-.03-9.59-14.443z" style="fill:#e40521;fill-opacity:1;fill-rule:nonzero;stroke:none;stroke-width:3.77973" transform="matrix(1.77778 0 0 -1.77778 130.718 963.643)"/><path d="M40.047 464.143c.515-1.217 9.098-21.556 9.098-21.556.046-.03.072-.026.133-.041-.193-.287-8.743-13.169-9.23-13.902zm-.283.7v-37.14l9.975 15.024-.446.057v.004c0 .178-9.257 22.111-9.257 22.111z" style="fill:#b2b2b2;fill-opacity:1;fill-rule:nonzero;stroke:none;stroke-width:3.77973" transform="matrix(1.77778 0 0 -1.77778 130.718 963.643)"/><path d="m39.905 428.175 19.349-28.934-19.349 11.827Z" style="fill:#e40521;fill-opacity:1;fill-rule:nonzero;stroke:none;stroke-width:3.77973" transform="matrix(1.77778 0 0 -1.77778 130.718 963.643)"/><path d="m39.98 411.19.068 16.522c.491-.737 18.052-26.991 18.732-28.012l-18.8 11.49m-.216 16.987V411.07c.068-.121 19.417-11.948 19.417-11.948l.193.2-19.61 29.32z" style="fill:#b2b2b2;fill-opacity:1;fill-rule:nonzero;stroke:none;stroke-width:3.77973" transform="matrix(1.77778 0 0 -1.77778 130.718 963.643)"/><path d="m39.905 428.175 15.172-5.08 4.332-23.952-.155.098z" style="fill:#f7e700;fill-opacity:1;fill-rule:nonzero;stroke:none;stroke-width:3.77973" transform="matrix(1.77778 0 0 -1.77778 130.718 963.643)"/><path d="m40.254 427.908 14.775-4.948v-.004c0-.37 3.583-20.195 4.154-23.366a38126.485 38126.485 0 0 1-18.93 28.317m-.464.19 19.348-28.934c.042-.038.193-.14.193-.14l.276-.178-4.392 24.274c-.094.11-15.263 5.19-15.263 5.19l-.396.131z" style="fill:#b2b2b2;fill-opacity:1;fill-rule:nonzero;stroke:none;stroke-width:3.77973" transform="matrix(1.77778 0 0 -1.77778 130.718 963.643)"/><path d="m49.494 442.617 21.976-2.869-.03-.03-31.535-11.543z" style="fill:#f7e700;fill-opacity:1;fill-rule:nonzero;stroke:none;stroke-width:3.77973" transform="matrix(1.77778 0 0 -1.77778 130.718 963.643)"/><path d="m49.564 442.466 21.351-2.786c-.907-.333-29.87-10.939-30.653-11.222.453.68 9.207 13.864 9.302 14.008m-.19.23-9.827-14.805 31.94 11.695v.306l-22.063 2.88z" style="fill:#b2b2b2;fill-opacity:1;fill-rule:nonzero;stroke:none;stroke-width:3.77973" transform="matrix(1.77778 0 0 -1.77778 130.718 963.643)"/><path d="M134.034 500.056h2.023l2.687-7.34 2.633 7.34h2.023v-8.835h-1.224v7.649h-.023l-2.834-7.65h-1.204l-2.834 7.65h-.024v-7.65h-1.223zM145.693 497.676h1.149v-6.455h-1.149zm1.224 1.447h-1.298v1.334h1.298zM148.895 500.717h1.149v-9.497h-1.149zM152.096 497.676h1.149v-6.455h-1.149zm1.223 1.447h-1.298v1.334h1.298zM158.466 496.711h-1.655v-3.533c0-.37.097-.652.293-.846a.874.874 0 0 1 .675-.302c.351.008.611.084.783.228v-1.013c-.124-.033-.272-.07-.443-.11a2.066 2.066 0 0 0-.538-.069c-1.256-.009-1.896.617-1.919 1.878v3.767h-1.412v.964h1.412v1.496l1.15.377v-1.873h1.654zM163.476 494.299c-.245 0-.491.008-.739.025-.152 0-.348-.008-.588-.025a3.778 3.778 0 0 1-.727-.167 1.465 1.465 0 0 1-.601-.352c-.172-.177-.258-.41-.258-.699.008-.338.14-.595.396-.773a1.23 1.23 0 0 1 .775-.278c.581.008 1.019.173 1.315.494.285.314.427.714.427 1.2zm-3.427 2.926c.579.387 1.266.588 2.06.605 1.702-.008 2.54-.899 2.516-2.671v-2.671c0-.692.017-1.115.052-1.267h-1.078v.834h-.024c-.132-.202-.358-.412-.677-.63-.32-.231-.741-.351-1.264-.359-.679 0-1.226.161-1.641.482-.428.329-.645.839-.653 1.53 0 .404.098.745.293 1.025.188.267.43.482.726.642a4.061 4.061 0 0 0 1.894.457c.408 0 .815-.008 1.223-.025 0 .567-.11.992-.33 1.273-.236.277-.642.416-1.219.416a2.81 2.81 0 0 1-1.818-.656zM166.486 497.675h1.078v-.989h.024c.17.345.4.622.688.83.296.21.609.314.94.314.304 0 .557-.028.76-.086v-1.063c-.22.074-.43.11-.634.11-.515-.007-.924-.244-1.228-.71-.32-.461-.48-1.103-.48-1.923v-2.937h-1.148zM170.631 489.47c.156-.057.335-.09.539-.098.263.008.485.088.664.24.172.154.309.327.413.52.196.437.293.716.293.835a1.546 1.546 0 0 1-.071.315 8.97 8.97 0 0 0-.144.372l-2.125 6.022h1.263l1.682-5.34h.024l1.717 5.34h1.162l-2.304-6.597a14.906 14.906 0 0 0-.329-.921 3.893 3.893 0 0 0-.456-.86 1.949 1.949 0 0 0-.646-.624 1.879 1.879 0 0 0-.97-.266c-.343.008-.605.039-.786.093zM181.276 495.638c0-.904.228-1.698.683-2.383.452-.702 1.165-1.06 2.14-1.077.987.016 1.706.375 2.157 1.077.444.685.666 1.48.666 2.383 0 .937-.234 1.743-.7 2.42-.469.67-1.176 1.015-2.123 1.04-.943-.025-1.648-.37-2.116-1.04-.47-.677-.707-1.483-.707-2.42m-1.297 0c0 1.34.363 2.434 1.09 3.28.71.845 1.72 1.276 3.03 1.292 1.305-.016 2.318-.447 3.036-1.292.715-.845 1.076-1.938 1.084-3.277-.008-1.368-.363-2.463-1.066-3.283-.723-.84-1.74-1.272-3.054-1.292-1.31.02-2.32.451-3.03 1.291-.727.82-1.09 1.913-1.09 3.281M195.371 491.22h-1.113v1.02h-.024a1.907 1.907 0 0 0-.82-.854 2.588 2.588 0 0 0-1.227-.32c-1.578.038-2.359.963-2.342 2.777v3.833h1.15v-3.34c-.034-1.487.407-2.256 1.323-2.306.662.008 1.145.258 1.45.748.303.483.455 1.12.455 1.91v2.988h1.149zM200.58 496.711h-1.654v-3.533c0-.37.097-.652.292-.846a.878.878 0 0 1 .676-.302c.35.008.61.084.783.228v-1.013c-.124-.033-.272-.07-.443-.11a2.066 2.066 0 0 0-.538-.069c-1.256-.009-1.896.617-1.92 1.878v3.767h-1.411v.964h1.412v1.496l1.149.377v-1.873h1.655zM206.598 494.473c.016.618-.106 1.169-.366 1.65-.28.479-.73.727-1.35.743-.623-.016-1.087-.27-1.39-.76-.313-.48-.469-1.035-.469-1.67a2.934 2.934 0 0 1 .444-1.596c.288-.523.755-.794 1.404-.81.315 0 .585.085.81.254.22.152.4.35.54.593.267.524.393 1.056.377 1.596m-4.724 3.203h1.101v-.903H203c.164.25.421.49.773.719.343.218.794.33 1.353.338.907-.017 1.584-.342 2.031-.977.443-.622.665-1.385.665-2.287 0-.924-.208-1.725-.623-2.405-.435-.71-1.122-1.074-2.06-1.095-.55.009-.99.11-1.318.309a2.142 2.142 0 0 0-.773.729h-.024v-3.542h-1.149zM209.441 500.717h1.149v-9.497h-1.149zM216.21 494.299c-.245 0-.491.008-.74.025-.151 0-.347-.008-.587-.025a3.778 3.778 0 0 1-.727-.167 1.465 1.465 0 0 1-.601-.352c-.172-.177-.258-.41-.258-.699.008-.338.14-.595.396-.773a1.23 1.23 0 0 1 .775-.278c.58.008 1.019.173 1.315.494.285.314.427.714.427 1.2zm-3.426 2.926c.578.387 1.265.588 2.06.605 1.7-.008 2.54-.899 2.515-2.671v-2.671c0-.692.017-1.115.052-1.267h-1.078v.834h-.024c-.132-.202-.358-.412-.677-.63-.32-.231-.741-.351-1.264-.359-.68 0-1.226.161-1.641.482-.428.329-.645.839-.653 1.53 0 .404.098.745.293 1.025.188.267.43.482.726.642a4.061 4.061 0 0 0 1.894.457c.408 0 .815-.008 1.223-.025 0 .567-.11.992-.33 1.273-.236.277-.642.416-1.22.416a2.811 2.811 0 0 1-1.817-.656zM223.184 496.588c-.447.185-.865.278-1.252.278-.636-.016-1.13-.26-1.481-.73-.352-.482-.527-1.045-.527-1.688 0-.276.043-.558.13-.847.077-.297.2-.56.373-.785.323-.516.85-.778 1.582-.786.432 0 .845.122 1.24.365l.085-1.063a2.571 2.571 0 0 0-.736-.21 5.093 5.093 0 0 0-.713-.056c-.954.02-1.718.359-2.293 1.014-.586.635-.884 1.424-.892 2.368.008 1.006.302 1.816.88 2.43.567.627 1.335.944 2.305.952.53-.008.998-.092 1.4-.253zM228.567 495.066c0 .505-.132.93-.395 1.279-.268.339-.655.513-1.163.52-.56-.015-.968-.21-1.227-.582a2.405 2.405 0 0 1-.456-1.217zm.749-3.58a15.608 15.608 0 0 0-.76-.265c-.303-.095-.708-.146-1.215-.155-1.105.009-1.92.33-2.442.965-.531.626-.796 1.47-.796 2.535.008.977.278 1.766.808 2.368.523.589 1.23.888 2.125.896 1.03-.017 1.752-.362 2.167-1.037.22-.33.375-.711.467-1.148.08-.448.12-.933.12-1.456h-4.464c.008-.641.216-1.158.623-1.551.403-.397.883-.6 1.438-.608.399 0 .785.08 1.156.242.36.145.618.28.773.41zM231.105 497.675h1.108v-.927h.025c.44.721 1.121 1.082 2.045 1.082.386 0 .747-.097 1.084-.29.328-.203.577-.524.745-.965.242.465.561.795.955.99.39.176.735.265 1.034.265.817-.009 1.398-.242 1.743-.699.337-.453.501-1.043.493-1.768v-4.143h-1.15v3.852c0 .202-.008.413-.025.631a2.15 2.15 0 0 1-.176.581c-.088.186-.209.33-.364.433-.155.1-.356.15-.603.15-.607-.018-1.044-.26-1.312-.73-.272-.475-.409-1.029-.409-1.665v-3.252h-1.148v3.852c0 .202-.009.413-.025.631-.034.21-.094.404-.183.581a.995.995 0 0 1-.357.433c-.155.1-.356.15-.603.15-.61-.018-1.049-.26-1.313-.73-.276-.475-.414-1.029-.414-1.665v-3.252h-1.15zM246.234 495.066c0 .505-.132.93-.395 1.279-.268.339-.655.513-1.162.52-.56-.015-.969-.21-1.228-.582a2.405 2.405 0 0 1-.456-1.217zm.75-3.58a15.608 15.608 0 0 0-.76-.265c-.304-.095-.709-.146-1.216-.155-1.105.009-1.919.33-2.442.965-.53.626-.796 1.47-.796 2.535.008.977.278 1.766.808 2.368.523.589 1.231.888 2.125.896 1.03-.017 1.752-.362 2.167-1.037.22-.33.375-.711.467-1.148.08-.448.12-.933.12-1.456h-4.464c.008-.641.216-1.158.623-1.551.403-.397.883-.6 1.438-.608.4 0 .785.08 1.156.242.36.145.618.28.773.41zM357.026 495.066c0 .505-.132.93-.395 1.279-.268.339-.655.513-1.162.52-.56-.015-.969-.21-1.228-.582a2.405 2.405 0 0 1-.456-1.217zm.75-3.58a15.608 15.608 0 0 0-.76-.265c-.304-.095-.709-.146-1.216-.155-1.105.009-1.919.33-2.442.965-.53.626-.796 1.47-.796 2.535.008.977.278 1.766.808 2.368.523.589 1.231.888 2.125.896 1.03-.017 1.752-.362 2.167-1.037.22-.33.375-.711.467-1.148.08-.448.12-.933.12-1.456h-4.464c.008-.641.216-1.158.623-1.551.404-.397.883-.6 1.438-.608.4 0 .785.08 1.157.242.36.145.617.28.772.41zM248.916 497.675h1.113v-1.013h.024c.18.369.46.658.838.867a2.48 2.48 0 0 0 1.21.302c1.581-.033 2.362-.96 2.341-2.777v-3.833h-1.149v3.345c.033 1.492-.408 2.259-1.324 2.3-.646-.008-1.126-.251-1.437-.73-.312-.482-.467-1.126-.467-1.929v-2.986h-1.149zM259.651 496.711h-1.655v-3.533c0-.37.098-.652.294-.846a.874.874 0 0 1 .675-.302c.35.008.61.084.783.228v-1.013c-.124-.033-.272-.07-.443-.11a2.066 2.066 0 0 0-.538-.069c-1.256-.009-1.896.617-1.92 1.878v3.767h-1.411v.964h1.412v1.496l1.149.377v-1.873h1.655zM265.958 498.943h-2.657v1.112h6.541v-1.112h-2.66v-7.723h-1.224zM269.932 497.675h1.078v-.989h.024c.171.345.401.622.688.83.296.21.61.314.941.314.303 0 .556-.028.76-.086v-1.063c-.22.074-.43.11-.635.11-.515-.007-.924-.244-1.228-.71-.32-.461-.479-1.103-.479-1.923v-2.937h-1.149zM278.26 494.299c-.245 0-.491.008-.74.025-.151 0-.347-.008-.588-.025a3.785 3.785 0 0 1-.726-.167 1.465 1.465 0 0 1-.601-.352c-.172-.177-.258-.41-.258-.699.008-.338.14-.595.396-.773a1.23 1.23 0 0 1 .775-.278c.58.008 1.019.173 1.315.494.285.314.427.714.427 1.2zm-3.427 2.926c.579.387 1.266.588 2.06.605 1.702-.008 2.54-.899 2.516-2.671v-2.671c0-.692.017-1.115.052-1.267h-1.078v.834h-.024c-.132-.202-.358-.412-.677-.63-.32-.231-.741-.351-1.264-.359-.68 0-1.226.161-1.642.482-.427.329-.644.839-.653 1.53 0 .404.099.745.294 1.025.188.267.43.482.726.642a4.061 4.061 0 0 0 1.894.457c.408 0 .815-.008 1.223-.025 0 .567-.11.992-.33 1.273-.236.277-.642.416-1.22.416a2.81 2.81 0 0 1-1.817-.656zM284.668 497.675h1.113v-1.013h.024c.179.369.459.658.838.867a2.48 2.48 0 0 0 1.21.302c1.58-.033 2.362-.96 2.34-2.777v-3.833h-1.148v3.345c.033 1.492-.408 2.259-1.324 2.3-.646-.008-1.126-.251-1.437-.73-.312-.482-.467-1.126-.467-1.929v-2.986h-1.15zM292.234 497.676h1.149v-6.455h-1.149zm1.223 1.447h-1.298v1.334h1.298zM281.554 497.676h1.149v-6.455h-1.149zm1.223 1.447h-1.298v1.334h1.298zM295.287 497.675h1.113v-1.013h.024c.18.369.459.658.838.867a2.48 2.48 0 0 0 1.21.302c1.581-.033 2.362-.96 2.341-2.777v-3.833h-1.149v3.345c.033 1.492-.408 2.259-1.323 2.3-.647-.008-1.127-.251-1.438-.73-.312-.482-.467-1.126-.467-1.929v-2.986h-1.149zM305.253 492.185c.556.008.998.227 1.326.656.328.412.496.923.504 1.533 0 .693-.148 1.28-.444 1.763-.312.478-.774.72-1.386.73-.576-.017-1.01-.275-1.301-.773a3.124 3.124 0 0 1-.444-1.633c0-.623.159-1.155.48-1.595a1.476 1.476 0 0 1 1.265-.681m2.978-.686c.029-2.032-1.045-3.062-3.223-3.091-.575-.008-1.323.14-2.246.445l.126 1.1c.767-.395 1.518-.59 2.253-.581 1.27.033 1.918.77 1.942 2.213v.637h-.024a2.514 2.514 0 0 0-.923-.748 2.84 2.84 0 0 0-1.174-.253c-.894.008-1.561.334-2 .977-.452.606-.677 1.34-.677 2.2 0 .879.233 1.66.7 2.344.46.7 1.159 1.064 2.097 1.089.547 0 .988-.097 1.324-.291a1.81 1.81 0 0 0 .736-.822h.024v.958h1.065zM313.436 500.056h1.223v-8.835h-1.223zM316.526 497.675h1.113v-1.013h.024c.18.369.459.658.838.867a2.48 2.48 0 0 0 1.21.302c1.58-.033 2.362-.96 2.34-2.777v-3.833h-1.148v3.345c.033 1.492-.408 2.259-1.323 2.3-.647-.008-1.127-.251-1.438-.73-.312-.482-.467-1.126-.467-1.929v-2.986h-1.15zM323.47 492.488a3.055 3.055 0 0 1 1.442-.458c.284 0 .55.072.799.217.244.136.37.373.378.71a.84.84 0 0 1-.096.403c-.076.119-.178.22-.306.303a9.286 9.286 0 0 1-.95.507c-.163.094-.327.192-.491.29a3.589 3.589 0 0 0-.445.347c-.276.26-.418.604-.426 1.032.008.676.224 1.179.647 1.509.412.32.932.482 1.559.482a4.341 4.341 0 0 0 1.439-.252l-.102-1.033a1.881 1.881 0 0 1-.587.237c-.26.056-.468.085-.624.085-.304 0-.558-.062-.762-.186a.64.64 0 0 1-.347-.6c0-.161.042-.294.126-.402.08-.128.182-.232.306-.315a4.34 4.34 0 0 1 .443-.241c.164-.087.327-.171.49-.254.173-.078.345-.166.516-.266.164-.103.306-.222.426-.358.132-.132.236-.291.31-.476a2.13 2.13 0 0 0 .097-.687c-.008-.684-.23-1.191-.665-1.521-.424-.33-.931-.494-1.522-.494-.292 0-.581.026-.87.08a2.903 2.903 0 0 0-.844.278zM331.872 496.711h-1.655v-3.533c0-.37.097-.652.293-.846a.874.874 0 0 1 .675-.302c.351.008.611.084.783.228v-1.013c-.124-.033-.271-.07-.443-.11a2.066 2.066 0 0 0-.538-.069c-1.256-.009-1.896.617-1.919 1.878v3.767h-1.412v.964h1.412v1.496l1.149.377v-1.873h1.655zM333.315 497.676h1.149v-6.455h-1.149zm1.223 1.447h-1.298v1.334h1.298zM339.685 496.711h-1.655v-3.533c0-.37.097-.652.292-.846a.878.878 0 0 1 .676-.302c.35.008.61.084.783.228v-1.013c-.124-.033-.272-.07-.443-.11a2.066 2.066 0 0 0-.538-.069c-1.256-.009-1.896.617-1.92 1.878v3.767h-1.411v.964h1.412v1.496l1.149.377v-1.873h1.655zM346.504 491.22h-1.113v1.02h-.024a1.912 1.912 0 0 0-.82-.854 2.588 2.588 0 0 0-1.228-.32c-1.577.038-2.358.963-2.34 2.777v3.833h1.148v-3.34c-.033-1.487.408-2.256 1.324-2.306.662.008 1.145.258 1.45.748.302.483.454 1.12.454 1.91v2.988h1.15zM351.714 496.711h-1.655v-3.533c0-.37.097-.652.292-.846a.878.878 0 0 1 .676-.302c.35.008.61.084.783.228v-1.013c-.124-.033-.272-.07-.443-.11a2.066 2.066 0 0 0-.538-.069c-1.256-.009-1.896.617-1.92 1.878v3.767h-1.411v.964h1.412v1.496l1.149.377v-1.873h1.655zM158.64 530.252c.415.972.737 1.945.966 2.918.228 1 .4 2.009.515 3.025.113 1.015.2 2.123.257 3.325 0 .457-.1.772-.3.944-.201.17-.515.257-.944.257h-22.097v-2.574h17.849a89.734 89.734 0 0 0-.28-3.09 19.26 19.26 0 0 0-.45-2.574 23.699 23.699 0 0 0-.75-2.488c-.253-.701-.613-1.45-1.04-2.231h-18.332v-2.66h12.186v-5.235h-10.084l-.042-2.746h19.308l-.044-9.954h4.257c.823 0 1.249.372 1.279 1.115l-.043 10.298c.028.858-.355 1.287-1.15 1.287h-7.861l-.043 5.235h12.042l.043 2.66h-6.58c.533.847.994 1.68 1.339 2.488M177.584 526.219h-5.192v5.749h5.192zm5.234-2.253c.2.157.315.451.343.88v14.674c0 .457-.143.772-.343.943-.2.172-.514.258-.944.258h-4.247V533.77h-5.277v5.75c0 .457-.1.772-.299.943-.199.172-.511.258-.936.258h-4.258V523.73h15.017c.43 0 .744.079.944.236M193.717 541.064c0 .457-.13.772-.301.944-.171.171-.472.257-.901.257h-4.376v-20.08h4.333c.429 0 .743.08.944.236.2.157.3.451.3.88v7.551h3.214v2.574h-3.213zM207.397 527.72l6.522-4.247c.485-.315.95-.407 1.394-.28a1.81 1.81 0 0 1 1.03.73c.242.358.336.765.278 1.224-.057.457-.329.843-.814 1.158l-6.394 4.119.386.515a25.857 25.857 0 0 1 2.21 4.183 20.81 20.81 0 0 1 1.31 4.398c.084.457.005.772-.237.944-.244.17-.58.257-1.009.257h-14.159v-2.488h9.311a21.6 21.6 0 0 0-1.223-4.741 26.712 26.712 0 0 0-2.166-4.398 25.932 25.932 0 0 0-2.854-3.862 30.33 30.33 0 0 0-3.325-3.217c-.63-.516-.8-.96-.515-1.331.286-.343.701-.358 1.244-.043a28.875 28.875 0 0 1 4.784 3.025 28.267 28.267 0 0 1 4.227 4.055M210.229 517.295c0 .457-.086.772-.258.944-.171.17-.471.257-.9.257h-4.334v-10.64h24.362v2.574h-18.87z" style="fill:#1d1d1b;fill-opacity:1;fill-rule:nonzero;stroke:none" transform="matrix(6.71953 0 0 -6.71953 -449.77 3680.45)"/><path d="M220.87 516.179h4.29c.428 0 .73.079.901.236.172.157.271.45.3.88v23.77c0 .457-.086.772-.258.943-.17.172-.472.258-.9.258h-4.377v-9.268h-6.436v-2.574h6.48zM246.223 523.559c.458-.344.916-.465 1.373-.365.457.1.815.322 1.073.665.257.343.371.75.343 1.223-.029.472-.272.88-.73 1.223l-6.22 4.59a21.614 21.614 0 0 1 2.724 4.055 15.932 15.932 0 0 1 1.523 4.57c.086.457.006.772-.236.944-.243.17-.579.257-1.008.257h-14.159v-2.488h9.31c-.229-1.631-.693-3.12-1.393-4.463a26.582 26.582 0 0 0-2.425-3.818 25.818 25.818 0 0 0-3.197-3.304 201.226 201.226 0 0 0-3.453-2.918c-.63-.515-.802-.958-.515-1.33.314-.343.757-.357 1.33-.043a50.204 50.204 0 0 1 4.698 2.639 26.173 26.173 0 0 1 4.312 3.41zM257.507 542.266h-4.333v-20.08h4.29c.43 0 .744.079.944.236.2.157.3.45.3.88v17.763c0 .457-.128.772-.3.944-.172.17-.472.257-.9.257M257.465 520.212h-21.882v-2.746h17.549V507.17h4.29c.829 0 1.258.371 1.287 1.115v10.641c0 .858-.415 1.287-1.244 1.287M282.739 527.206c-.215-2.518-.608-4.763-1.18-6.736a.778.778 0 0 1 .042-.751c.144-.244.344-.408.6-.494.2-.114.458-.136.772-.064.314.07.584.279.81.622a21.415 21.415 0 0 1 1.896 2.96c.582 1.087 1.099 2.36 1.553 3.819.425 1.4.753 3.01.98 4.827.226 1.816.354 3.926.383 6.329 0 .858-.397 1.287-1.192 1.287h-22.321v-2.66h18.022c-.03-3.576-.151-6.623-.365-9.14" style="fill:#1d1d1b;fill-opacity:1;fill-rule:nonzero;stroke:none" transform="matrix(6.71953 0 0 -6.71953 -449.77 3680.45)"/><path d="M278.993 527.42c.056.744-.4 1.116-1.287 1.116h-3.518v-13.558h-2.669v12.442c.056.744-.402 1.116-1.288 1.116h-3.519v-13.558h-4.804v-2.66h30.657v2.66h-13.572zM305.887 523.387h5.32v-3.518h-5.337c.003.031.015.053.017.086zm-12.186 0h7.294v-3.518h-5.234l-.043-2.746h19.307v-9.954h4.215c.824 0 1.249.372 1.279 1.115v10.298c.028.858-.398 1.287-1.193 1.287h-3.244c.003.031.016.053.017.086v3.432h7.717v2.66h-30.157zM339.392 510.43v6.006c0 .457-.086.773-.258.944-.172.172-.47.257-.9.257H333.9v-9.782h24.362v2.574zM338.196 519.886c.428 0 .735.092.922.28.186.184.264.52.237 1.007v3.002h9.438v2.576H325.925v-2.66h7.851v-4.205z" style="fill:#1d1d1b;fill-opacity:1;fill-rule:nonzero;stroke:none" transform="matrix(6.71953 0 0 -6.71953 -449.77 3680.45)"/><path d="M342.78 519.624h7.252v-4.389h4.28c.808 0 1.24.4 1.212 1.201v24.628c0 .457-.086.772-.26.944-.172.172-.475.257-.907.257h-4.411v-20.153h-7.165zM182.987 509.227c-2.346 0-6.22.316-6.22 4.249 0 3.974 3.874 4.249 6.22 4.249 2.346 0 5.796-.537 5.796-4.249 0-3.687-3.45-4.249-5.796-4.249m-.212 11.071c-3.813 0-11.406-.223-11.406-6.864 0-6.548 7.593-6.863 11.406-6.863 3.814 0 11.406.315 11.406 6.863 0 6.641-7.592 6.864-11.406 6.864M308.737 539.348c2.448 0 5.13-1.113 5.13-4.383 0-3.275-2.682-4.382-5.13-4.382-2.447 0-5.167 1.024-5.167 4.382 0 3.401 2.72 4.383 5.167 4.383m0-11.324c3.86 0 10.749 1.113 10.749 6.991 0 5.817-6.888 6.991-10.75 6.991-3.86 0-10.748-1.174-10.748-6.991 0-5.878 6.888-6.991 10.749-6.991M337.057 531.771c-2.374 0-3.498 1.56-3.498 3.626 0 2.065 1.056 3.694 3.43 3.694 2.236 0 3.43-1.629 3.43-3.694 0-2.066-1.126-3.626-3.362-3.626m-.068 9.894c-3.462 0-8.581-1.1-8.581-6.268 0-3.462 2.336-6.268 8.581-6.268 6.246 0 8.582 2.806 8.582 6.268 0 5.167-5.12 6.268-8.582 6.268" style="fill:#1d1d1b;fill-opacity:1;fill-rule:nonzero;stroke:none" transform="matrix(6.71953 0 0 -6.71953 -449.77 3680.45)"/><path d="M0 0c0 19.987 16.203 36.19 36.19 36.19S72.38 19.987 72.38 0 56.177-36.19 36.19-36.19 0-19.987 0 0" style="fill:#fcfcfd;fill-opacity:1;fill-rule:nonzero;stroke:none" transform="matrix(1.33333 0 0 -1.33333 334.042 528.985)"/><path d="M0 0c-14.8 0-26.798 11.998-26.798 26.798 0 14.8 11.998 26.798 26.798 26.798 14.8 0 26.798-11.998 26.798-26.798C26.798 11.998 14.8 0 0 0m0 65.066c-21.134 0-38.267-17.133-38.267-38.268C-38.267 5.664-21.134-11.47 0-11.47c21.135 0 38.267 17.134 38.267 38.268 0 21.135-17.132 38.268-38.267 38.268" style="fill:#2e446a;fill-opacity:1;fill-rule:nonzero;stroke:none" transform="matrix(1.33333 0 0 -1.33333 381.503 565.174)"/><path d="m0 0 2.761-.988-.398-1.113-1.789.64-1.672-4.67-.972.348zm-.968 1.195-1.103-3.084 1.314-.47-.396-1.106-1.314.471-1.085-3.031-.972.348 2.584 7.22zm-3.554.415c.508-.182 1-.384 1.477-.605.497-.229.865-.426 1.105-.59l-.426-1.189c-.091.089-.327.231-.708.424-.338.166-.641.3-.909.402l-1.613-4.505-.972.348z" style="fill:#fff;fill-opacity:1;fill-rule:nonzero;stroke:none" transform="matrix(1.33333 0 0 -1.33333 344.495 510.003)"/><path d="M0 0c-.11-.292-.089-.51.063-.654.168-.159.399-.18.693-.062.324.126.696.411 1.118.855.41.433.667.813.772 1.139.101.3.068.529-.1.689-.151.144-.368.155-.65.033-.313-.137-.67-.418-1.073-.843C.398.708.124.323 0 0m2.078 3.082c.545.158.979.084 1.303-.223.336-.318.444-.757.322-1.317C3.574.916 3.174.25 2.503-.457 1.826-1.173 1.176-1.614.555-1.781c-.553-.151-.997-.067-1.333.251-.324.307-.421.737-.292 1.289.145.618.557 1.285 1.234 2 .667.704 1.305 1.144 1.914 1.323m-3.53 3.95c.081.07.144.112.19.128.042.012.076.005.104-.022a.52.52 0 0 0 .081-.131c.033-.068.063-.122.087-.16.041-.061.09-.118.146-.171l1.025-.972.698.737.786-.745-.698-.736 1.271-1.205-.813-.858-3.586 3.399.379.399c.143.151.253.263.33.337m-1.046-5.776 1.099 1.159-.594.563-1.099-1.16zm-.139 3.972c.049.012.102-.027.16-.119.021-.042.038-.072.05-.091.028-.034.058-.066.09-.097l2.459-2.33-2.72-2.87-2.812 2.666.511.539c.183.193.309.297.377.314.046.008.098-.038.156-.137a.853.853 0 0 1 .195-.262l.366-.347 1.099 1.16-.792.75.472.499c.191.201.32.309.389.325" style="fill:#fff;fill-opacity:1;fill-rule:nonzero;stroke:none" transform="matrix(1.33333 0 0 -1.33333 350.957 502.412)"/><path d="M0 0c.061-.012.091-.083.09-.213a.898.898 0 0 1 .005-.193.938.938 0 0 1 .058-.243l1.794-4.718-1.105-.42-1.037 2.726-1.239-.472-.355.935 1.239.471-.655 1.722.605.23c.328.125.529.183.6.175m-2.782-6.617c.051-.016.079-.082.084-.198a.812.812 0 0 1 .056-.306l.326-.857 4.674 1.777.367-.965-5.779-2.198-.898 2.363.649.247c.274.104.447.15.521.137m.609 5.411.372-.981-1.396-.531.094-.247c.115-.422.396-.778.842-1.068.478-.313.974-.425 1.487-.336a2.913 2.913 0 0 1-.193-.55 7.346 7.346 0 0 1-.116-.593 3.304 3.304 0 0 0-1.202.33c-.363.174-.67.39-.922.648.01-.25-.087-.587-.29-1.012a4.839 4.839 0 0 0-.801-1.197 5.8 5.8 0 0 1-.526.304 4.307 4.307 0 0 1-.572.224c.25.136.476.328.678.576.178.221.324.474.438.759.112.26.18.516.204.767.031.247.018.446-.039.595l-.149.394-1.493-.568-.374.981z" style="fill:#fff;fill-opacity:1;fill-rule:nonzero;stroke:none" transform="matrix(1.33333 0 0 -1.33333 366.382 483.752)"/><path d="M0 0c.043-.021.047-.079.011-.173a.885.885 0 0 1-.036-.142.832.832 0 0 1-.02-.198L.04-4.454l-1.182-.025-.097 4.493.711.016C-.235.036-.059.026 0 0m.051-4.933L.114-7.89l-1.182-.025-.041 1.933-5-.108-.022 1.024zM-2.316-.414l.023-1.049-1.502-.032.004-.174c.002-.115.048-.255.137-.418.099-.174.231-.345.394-.512.185-.184.391-.339.618-.466.253-.149.522-.251.805-.305a4.969 4.969 0 0 1-.689-1.015 4.3 4.3 0 0 0-1.133.662c-.33.268-.557.53-.68.786-.101-.266-.316-.549-.645-.848a4.728 4.728 0 0 0-1.189-.778 3.583 3.583 0 0 1-.402.454 6.49 6.49 0 0 1-.472.428c.291.056.577.167.855.333.242.143.465.321.668.535.182.196.327.401.434.612.108.201.16.376.157.524l-.004.157-1.597-.034-.023 1.049z" style="fill:#fff;fill-opacity:1;fill-rule:nonzero;stroke:none" transform="matrix(1.33333 0 0 -1.33333 384.416 481.947)"/><path d="M0 0a20.14 20.14 0 0 0-.859-2.347 14.641 14.641 0 0 0-1.047-1.952l-1.142.444c.228.328.478.755.751 1.282.346.678.611 1.317.794 1.918L-6.224.786l.311 1.02zm-6.643-3.595.748 2.45.595-.182c.281-.086.444-.15.493-.194.034-.033.023-.088-.033-.163a.39.39 0 0 1-.072-.098.664.664 0 0 1-.057-.13l-.612-2.007.931-.285.749 2.45.634-.194c.28-.085.443-.153.489-.201.035-.034.016-.086-.056-.156a.806.806 0 0 1-.079-.097.4.4 0 0 1-.064-.127l-.611-1.999 2.72-.831-.311-1.019-7.334 2.24.311 1.019z" style="fill:#fff;fill-opacity:1;fill-rule:nonzero;stroke:none" transform="matrix(1.33333 0 0 -1.33333 401.589 486.154)"/><path d="M0 0c-.308.126-.524.12-.649-.02-.121-.136-.102-.352.056-.647.174-.324.5-.699.978-1.124.477-.424.891-.708 1.242-.85.32-.13.54-.127.661.009.124.14.102.359-.068.657-.185.313-.521.685-1.006 1.116C.732-.43.328-.144 0 0m3.306-2.088c.199-.561.152-1.007-.14-1.336-.286-.321-.721-.417-1.304-.288-.647.147-1.342.551-2.086 1.213-.748.665-1.231 1.308-1.448 1.929-.196.565-.151 1.008.134 1.329.293.329.73.428 1.31.295C.407.902 1.098.494 1.846-.171c.748-.666 1.235-1.305 1.46-1.917m-.868-3.199-.603-.679L.301-4.602l-.478-.537-.883.786.477.537-.889.791-.478-.538-.883.786.478.537-1.54 1.37.604.679zM.804-5.911l-1.933-2.174-.884.786 1.247 1.401-3.641 3.239.686.771z" style="fill:#fff;fill-opacity:1;fill-rule:nonzero;stroke:none" transform="matrix(1.33333 0 0 -1.33333 411.692 493.164)"/><path d="M0 0a.563.563 0 0 1-.517.017.509.509 0 0 1-.294-.39c-.041-.201-.001-.432.119-.693.111-.242.254-.407.429-.497a.527.527 0 0 1 .484-.024.57.57 0 0 1 .326.397c.049.198.018.416-.091.652C.336-.276.184-.097 0 0m1.44-1.747c-.11-.432-.351-.733-.721-.903-.356-.163-.733-.147-1.133.05-.441.22-.795.622-1.064 1.208-.274.595-.35 1.128-.228 1.601.113.427.347.722.702.886.371.17.755.159 1.152-.033C.586.847.943.442 1.216-.153c.269-.585.344-1.116.224-1.594m1.606-2.127a.68.68 0 0 0 .048-.224c.001-.041-.016-.069-.051-.086a1.39 1.39 0 0 0-.155-.018 1.565 1.565 0 0 1-.181-.022 1.006 1.006 0 0 1-.239-.074l-4.879-2.244-.494 1.074.631.29-.614 1.335.885.407.614-1.335L2.62-2.927l.24-.523a8.74 8.74 0 0 0 .186-.424m-4.755 2.508c.498-1.003.92-1.828 1.267-2.477-.169-.107-.304-.19-.405-.248a21.67 21.67 0 0 0-.4-.237l-.962 1.835-.968-.446-.488 1.06.946.435c-.112.23-.217.439-.316.628-.127.235-.244.445-.353.629a.859.859 0 0 1-.109.178 1.699 1.699 0 0 1-.109.118c-.07.073-.104.128-.102.163.007.05.072.119.196.205l.683.455c.46-.949.834-1.715 1.12-2.298m-2.151-.603c-.012-.052-.073-.083-.184-.093a1.116 1.116 0 0 1-.118-.02.74.74 0 0 1-.142-.047l-.661-.304 2-4.347-.939-.432-2.493 5.421 2.079.957.291-.632c.12-.261.175-.429.167-.503" style="fill:#fff;fill-opacity:1;fill-rule:nonzero;stroke:none" transform="matrix(1.33333 0 0 -1.33333 422.827 506.942)"/><path d="M0 0c.029-.121.105-.283.173-.431.477-1.045 1.442-1.44 2.934-.746C4.391-.58 4.735.343 4.264 1.354a2.98 2.98 0 0 1-.285.497Zm4.257 3.3a9.17 9.17 0 0 0 .802-1.415c.439-.945.538-1.68.367-2.334-.192-.745-.746-1.389-1.772-1.866-1.219-.567-2.123-.475-2.717-.221-.706.3-1.302.984-1.762 1.973-.243.524-.402.962-.499 1.268z" style="fill:#fff;fill-opacity:1;fill-rule:nonzero;stroke:none" transform="matrix(1.33333 0 0 -1.33333 337.802 547.35)"/><path d="m0 0 .281-.41c.386-.565.951-.682 1.441-.346.666.455.453 1.04.204 1.403-.151.222-.271.368-.353.43Zm1.589 2.539a9.834 9.834 0 0 0 1.019-1.257C3.054.63 3.876-.743 2.491-1.691c-.632-.433-1.372-.347-1.891.008l-.021-.014c.108-.459-.104-.9-.545-1.38-.511-.567-1.037-1.125-1.163-1.359l-.7 1.021c.098.176.461.612 1.003 1.161.573.59.639.941.317 1.411l-.23.337-2.098-1.436-.676.988z" style="fill:#fff;fill-opacity:1;fill-rule:nonzero;stroke:none" transform="matrix(1.33333 0 0 -1.33333 344.85 553.394)"/><path d="m0 0-.73-.698-2.42 2.532 4.527 4.328 2.33-2.437-.73-.698L1.48 4.593.385 3.546l1.413-1.478-.713-.681-1.412 1.478-1.26-1.205Z" style="fill:#fff;fill-opacity:1;fill-rule:nonzero;stroke:none" transform="matrix(1.33333 0 0 -1.33333 349.248 563.739)"/><path d="m0 0 1.085-.78.528 1.377c.149.374.358.846.515 1.205l-.02.014c-.294-.27-.68-.625-.966-.87Zm3.35 2.148L1.115-3.963.09-3.226l.601 1.605-1.363.98-1.316-1.091-.992.713 5.1 4.051z" style="fill:#fff;fill-opacity:1;fill-rule:nonzero;stroke:none" transform="matrix(1.33333 0 0 -1.33333 353.944 564.895)"/><path d="m0 0-2.05-5.932-1.063.436.821 2.297c.282.774.629 1.724.878 2.309l-.023.009a42.12 42.12 0 0 0-1.44-1.875l-1.671-2.053-.845.347.308 2.57c.081.733.222 1.591.377 2.355l-.022.01a84.67 84.67 0 0 0-1.039-2.27l-1.03-2.184-1.017.418 2.774 5.635 1.379-.567-.27-2.435a31.683 31.683 0 0 0-.356-2.241l.022-.009c.402.592.863 1.222 1.345 1.835l1.55 1.909z" style="fill:#fff;fill-opacity:1;fill-rule:nonzero;stroke:none" transform="matrix(1.33333 0 0 -1.33333 368.248 566.859)"/><path d="m0 0 .18.811L2.358.327l-.18-.811Z" style="fill:#fff;fill-opacity:1;fill-rule:nonzero;stroke:none" transform="matrix(1.33333 0 0 -1.33333 368.653 572.625)"/><path d="M0 0c.12-.035.298-.051.46-.065 1.144-.11 1.969.528 2.114 2.167.125 1.411-.503 2.17-1.614 2.269-.251.022-.44.014-.572.001Zm-.729 5.338a9.272 9.272 0 0 0 1.626-.013c1.039-.092 1.725-.374 2.206-.85.549-.539.83-1.341.73-2.469C3.714.668 3.183-.07 2.666-.457 2.053-.918 1.162-1.092.075-.996c-.576.051-1.035.132-1.347.201z" style="fill:#fff;fill-opacity:1;fill-rule:nonzero;stroke:none" transform="matrix(1.33333 0 0 -1.33333 375.21 575.353)"/><path d="m0 0 .043-1.009-3.501-.149-.265 6.261 3.37.143.043-1.01-2.166-.092.064-1.514 2.044.086.042-.984-2.044-.087.074-1.742Z" style="fill:#fff;fill-opacity:1;fill-rule:nonzero;stroke:none" transform="matrix(1.33333 0 0 -1.33333 387.191 575.441)"/><path d="M0 0c.355-.136.896-.197 1.393-.11.658.117.948.491.867.948-.078.442-.422.654-1.156.831-1.002.236-1.682.712-1.824 1.514-.179 1.012.478 1.931 1.81 2.166.586.104 1.06.047 1.374-.046l-.077-1.015a2.42 2.42 0 0 1-1.146.07C.615 4.247.393 3.86.454 3.515c.078-.441.419-.588 1.234-.799 1.066-.267 1.608-.759 1.751-1.57.19-1.075-.481-2.005-1.918-2.259-.61-.108-1.258-.049-1.578.077Z" style="fill:#fff;fill-opacity:1;fill-rule:nonzero;stroke:none" transform="matrix(1.33333 0 0 -1.33333 389.532 574.816)"/><path d="m0 0-1.843 5.987 1.152.356L1.153.355Z" style="fill:#fff;fill-opacity:1;fill-rule:nonzero;stroke:none" transform="matrix(1.33333 0 0 -1.33333 397.07 574.95)"/><path d="m0 0 1.427-2.919A5.55 5.55 0 0 0-.039-3.98c-.856-.419-1.615-.518-2.319-.282-.716.24-1.369.872-1.806 1.764-.929 1.903-.161 3.538 1.456 4.329.571.279 1.096.409 1.431.41l.21-1.004c-.313-.008-.678-.078-1.176-.321-1.002-.49-1.463-1.477-.797-2.838.636-1.302 1.653-1.62 2.582-1.166.264.129.444.262.517.352L-.613-1.36l-.812-.397-.419.856z" style="fill:#fff;fill-opacity:1;fill-rule:nonzero;stroke:none" transform="matrix(1.33333 0 0 -1.33333 404.983 566.64)"/><path d="m0 0 3.945-4.867-.937-.759L.333-4.46c-.665.29-1.437.66-2.071 1.028l-.025-.021A43.386 43.386 0 0 0 .038-5.559l1.211-1.493-.848-.688-3.945 4.867 1.012.821L.094-3.196a20.089 20.089 0 0 0 2.016-.998l.012.01A29.654 29.654 0 0 0 .337-2.149L-.848-.687z" style="fill:#fff;fill-opacity:1;fill-rule:nonzero;stroke:none" transform="matrix(1.33333 0 0 -1.33333 409.294 558.709)"/><path d="m0 0-.624.549L.85 2.225l.624-.549Z" style="fill:#fff;fill-opacity:1;fill-rule:nonzero;stroke:none" transform="matrix(1.33333 0 0 -1.33333 414.415 561.33)"/><path d="M0 0c.086.09.183.241.271.378.626.964.441 1.991-.946 2.878-1.194.765-2.158.559-2.76-.382a3.11 3.11 0 0 1-.266-.507Zm-5.074 1.823c.168.415.435.922.764 1.437.562.879 1.13 1.357 1.774 1.564.733.238 1.574.116 2.529-.495 1.132-.724 1.541-1.537 1.646-2.175.125-.757-.132-1.628-.721-2.548a10.707 10.707 0 0 0-.802-1.103Z" style="fill:#fff;fill-opacity:1;fill-rule:nonzero;stroke:none" transform="matrix(1.33333 0 0 -1.33333 419.982 556.802)"/><path d="M0 0c1.137-.469 2.253-.41 2.592.41.342.828-.407 1.64-1.574 2.121-1.061.438-2.212.446-2.563-.405C-1.905 1.253-1.061.438 0 0m1.455 3.717c2.017-.833 2.626-2.282 2.032-3.72-.63-1.528-2.267-1.866-3.946-1.173-1.731.715-2.609 2.196-1.984 3.709.661 1.603 2.355 1.82 3.898 1.184" style="fill:#fff;fill-opacity:1;fill-rule:nonzero;stroke:none" transform="matrix(1.33333 0 0 -1.33333 421.542 548.059)"/><path d="M0 0c-1.144-.463-2.652.601-3.367 2.374-.718 1.774-.37 3.585.772 4.046 1.144.462 2.649-.601 3.367-2.374C1.488 2.272 1.143.461 0 0" style="fill:#fff;fill-opacity:1;fill-rule:evenodd;stroke:none" transform="matrix(1.33333 0 0 -1.33333 389.423 515.5)"/><path d="M0 0Zm-1.321.769c-.732.311-1.435 1.118-1.833 2.106-.406 1.003-.46 2.045-.145 2.788.11.261.322.603.704.758.928.375 2.242-.615 2.867-2.162C.671 3.27.726 2.2.416 1.468.306 1.208.094.867-.287.714h-.001C-.67.559-1.061.659-1.321.769m-1.562 6.364c-.496-.2-.885-.604-1.124-1.169-.393-.928-.34-2.19.14-3.377C-3.388 1.4-2.549.455-1.622.061-1.057-.179-.496-.2 0 0c.496.2.884.603 1.123 1.167.176.413.263.893.263 1.404 0 .634-.135 1.316-.401 1.976-.809 2-2.508 3.136-3.868 2.586" style="fill:#b2b2b2;fill-opacity:1;fill-rule:evenodd;stroke:none" transform="matrix(1.33333 0 0 -1.33333 389.614 515.977)"/><path d="M0 0c-.479-.193-1.151.356-1.502 1.225-.354.869-.249 1.731.228 1.924.48.194 1.152-.355 1.504-1.224C.581 1.056.478.195 0 0" style="fill:#fff;fill-opacity:1;fill-rule:evenodd;stroke:none" transform="matrix(1.33333 0 0 -1.33333 388.542 513.321)"/><path d="M0 0c-.223.094-.567.41-.801.989-.297.731-.186 1.342.018 1.425.202.081.705-.281 1.001-1.014.13-.32.181-.617.181-.857C.399.236.314.023.2-.024.138-.049.057-.025 0 0m-1.072 3.127c-.7-.286-.889-1.328-.442-2.427.273-.675.727-1.202 1.213-1.409.275-.116.548-.125.79-.027H.49c.696.283.885 1.326.441 2.425C.486 2.79-.375 3.408-1.072 3.127" style="fill:#b2b2b2;fill-opacity:1;fill-rule:evenodd;stroke:none" transform="matrix(1.33333 0 0 -1.33333 388.082 512.814)"/><path d="M0 0s-1.439.018-1.439-1.215C-1.439-2.447 0-2.447 0-2.447h3.706l-1.663-27.83s-2.995-.188-6.412 4.915l1.266.278-3.344 3.138-.659-4.465 1.244.397s1.94-4.639 5.015-6.483c3.075-1.845 4.746-2.429 6.103-4.715 0 0 1.86 2.112 4.494 3.628 2.634 1.514 4.889 2.632 6.86 7.475l1.355-.427-.642 4.446-3.22-2.775 1.277-.52s-1.561-3.927-6.717-4.779L6.533-2.447h3.98s1.395.016 1.395 1.232C11.908 0 10.513 0 10.513 0Z" style="fill:#fff;fill-opacity:1;fill-rule:evenodd;stroke:none" transform="matrix(1.33333 0 0 -1.33333 374.88 508.81)"/><path d="M0 0c0 .227.064.4.195.53.248.248.702.301.856.3h10.517c.167-.001 1.009-.049 1.009-.83 0-.804-.912-.847-1.015-.848H7.173l2.194-28.549.413.067c5.31.879 6.945 4.849 7.011 5.018l.141.354-1.048.427 2.213 1.906.454-3.146-1.108.35-.134-.328c-1.835-4.507-3.928-5.704-6.351-7.089l-.346-.199c-2.036-1.17-3.593-2.663-4.249-3.341-1.087 1.615-2.397 2.376-4.307 3.466l-1.65.96c-2.93 1.756-4.84 6.256-4.859 6.302l-.136.324-.993-.316.462 3.127 2.276-2.135-1.105-.242.314-.469c3.501-5.228 6.625-5.093 6.757-5.085l.339.021L5.169-.848H1.054C.948-.848 0-.816 0 0m-.344 1.08C-.622.805-.769.431-.769 0c0-1.28 1.193-1.618 1.823-1.618h3.298L2.737-28.645c-.804.13-2.959.812-5.404 4.246l1.414.31-4.413 4.142-.856-5.803 1.503.48c.504-1.099 2.318-4.717 5.029-6.342l1.665-.969c2.037-1.162 3.266-1.864 4.304-3.612l.27-.454.349.397c.019.02 1.854 2.084 4.397 3.547l.345.197c2.483 1.42 4.634 2.676 6.534 7.142l1.613-.509-.829 5.747-4.228-3.643 1.48-.603c-.479-.908-2.098-3.339-5.842-4.112L8.003-1.618h3.565c.619.007 1.778.355 1.778 1.618 0 1.265-1.162 1.599-1.778 1.599H1.054h.006C.971 1.6.178 1.595-.344 1.08" style="fill:#b2b2b2;fill-opacity:1;fill-rule:evenodd;stroke:none" transform="matrix(1.33333 0 0 -1.33333 373.475 510.43)"/><path d="M0 0c-1.143-.462-2.65.602-3.367 2.377-.716 1.773-.369 3.585.771 4.046 1.145.461 2.652-.601 3.368-2.375C1.489 2.274 1.142.463 0 0" style="fill:#fff;fill-opacity:1;fill-rule:evenodd;stroke:none" transform="matrix(1.33333 0 0 -1.33333 395.162 526.354)"/><path d="M0 0c-.744.316-1.429 1.104-1.835 2.108-.626 1.547-.37 3.171.559 3.548.929.372 2.242-.618 2.866-2.163a4.564 4.564 0 0 0 .342-1.688c0-.894-.317-1.623-.901-1.86C.649-.209.26-.11 0 0m-1.564 6.369c-1.361-.552-1.793-2.549-.984-4.548.48-1.19 1.321-2.136 2.247-2.529.564-.24 1.125-.261 1.62-.06 1.36.55 1.793 2.548.984 4.548-.807 2-2.506 3.136-3.867 2.589" style="fill:#b2b2b2;fill-opacity:1;fill-rule:evenodd;stroke:none" transform="matrix(1.33333 0 0 -1.33333 393.596 525.804)"/><path d="M0 0c-.479-.192-1.153.356-1.504 1.225-.352.87-.248 1.732.23 1.925.48.194 1.152-.354 1.504-1.225C.58 1.056.478.195 0 0" style="fill:#fff;fill-opacity:1;fill-rule:evenodd;stroke:none" transform="matrix(1.33333 0 0 -1.33333 394.282 524.173)"/><path d="M0 0c-.234.578-.206 1.045-.111 1.268.024.057.067.131.128.156.064.026.145.002.202-.023.223-.094.567-.411.802-.989.129-.322.18-.619.18-.858 0-.308-.084-.52-.198-.566C.799-1.093.295-.731 0 0m-.271 2.137c-.242-.097-.431-.293-.548-.568-.207-.488-.167-1.181.106-1.857.444-1.1 1.305-1.719 2.004-1.437.696.281.886 1.324.443 2.426-.274.676-.728 1.203-1.215 1.409a1.017 1.017 0 0 1-.79.027" style="fill:#b2b2b2;fill-opacity:1;fill-rule:evenodd;stroke:none" transform="matrix(1.33333 0 0 -1.33333 392.753 522.347)"/><path d="M0 0c-1.108 0-2.008.983-2.008 2.195 0 1.211.9 2.193 2.008 2.193s2.007-.982 2.007-2.193C2.007.983 1.108 0 0 0m0 5.865c-1.856 0-3.359-1.643-3.359-3.67C-3.359.167-1.856-1.477 0-1.477c1.854 0 3.359 1.644 3.359 3.672 0 2.027-1.505 3.67-3.359 3.67" style="fill:#fff;fill-opacity:1;fill-rule:evenodd;stroke:none" transform="matrix(1.33333 0 0 -1.33333 381.957 506.772)"/><path d="M0 0c0 1.812 1.334 3.286 2.974 3.286 1.64 0 2.975-1.474 2.975-3.286 0-1.813-1.335-3.287-2.975-3.287C1.334-3.287 0-1.813 0 0m-.769 0c0-2.237 1.679-4.056 3.743-4.056S6.718-2.237 6.718 0c0 2.235-1.68 4.055-3.744 4.055S-.769 2.235-.769 0" style="fill:#b2b2b2;fill-opacity:1;fill-rule:evenodd;stroke:none" transform="matrix(1.33333 0 0 -1.33333 377.992 503.845)"/><path d="M0 0c0 .997.728 1.809 1.624 1.809.895 0 1.623-.812 1.623-1.809 0-.998-.728-1.81-1.623-1.81C.728-1.81 0-.998 0 0m-.769 0c0-1.422 1.073-2.579 2.393-2.579 1.319 0 2.392 1.157 2.392 2.579 0 1.421-1.073 2.578-2.392 2.578C.304 2.578-.769 1.421-.769 0" style="fill:#b2b2b2;fill-opacity:1;fill-rule:evenodd;stroke:none" transform="matrix(1.33333 0 0 -1.33333 379.792 503.845)"/><path d="M0 0s-.468.394-.86-.023c-.392-.417.063-.822.063-.822l2.12-2s.409-.416.806.006c.396.421-.02.828-.02.828z" style="fill:#fff;fill-opacity:1;fill-rule:evenodd;stroke:none" transform="matrix(1.33333 0 0 -1.33333 384.23 504.816)"/><path d="m0 0-2.126 2.005c-.163.155-.084.239-.047.279.091.096.203.092.334-.009L.251.282C.306.224.324.173.324.132.324.067.28.02.256-.006.228-.036.186-.072.15-.073.101-.075.028-.027 0 0m-2.733 2.81a.892.892 0 0 1-.262-.663c.018-.402.316-.678.349-.708L-.533-.553c.02-.022.299-.293.691-.289a.9.9 0 0 1 .657.31c.482.51.246 1.096-.03 1.367l-2.121 2.023-.009.007c-.301.253-.918.446-1.388-.055" style="fill:#b2b2b2;fill-opacity:1;fill-rule:evenodd;stroke:none" transform="matrix(1.33333 0 0 -1.33333 386.354 508.243)"/><path d="M0 0s-.468.812-.992.535S-1.063-.56-1.063-.56l2.087-3.961s.395-.801.924-.521c.531.278.123 1.074.123 1.074z" style="fill:#fff;fill-opacity:1;fill-rule:evenodd;stroke:none" transform="matrix(1.33333 0 0 -1.33333 389.824 513.523)"/><path d="M0 0c-.114.037-.265.235-.331.364l-2.09 3.968c-.08.146-.166.408-.129.532.005.017.011.029.039.044.135.072.396-.245.479-.386L.032.567C.056.521.138.316.138.165.138.095.12.037.07.011.034-.008.018-.006 0 0m-2.869 5.587a.822.822 0 0 1-.418-.504c-.143-.478.132-1.014.189-1.116L-1.015.012c.045-.089.313-.593.778-.743a.836.836 0 0 1 .666.062C1.025-.356.995.374.716.921l-2.081 3.984c-.243.422-.833 1.039-1.504.682" style="fill:#b2b2b2;fill-opacity:1;fill-rule:evenodd;stroke:none" transform="matrix(1.33333 0 0 -1.33333 392.088 519.807)"/><path d="M0 0h-1.658l-4.541 3.925s-1.073.693-2.303.693h-19.743s.725-3.404 3.627-3.437h18.387-18.387s-1.105-3.282 3.154-3.755h18.071-18.071s.063-3.027 2.744-3.785H0" style="fill:#fff;fill-opacity:1;fill-rule:nonzero;stroke:none" transform="matrix(1.33333 0 0 -1.33333 382.295 528.985)"/><path d="M0 0h-.475l.099-.465C-.369-.5.373-3.801 3.161-4.168a3.558 3.558 0 0 1-.047-.561c0-.481.097-1.07.449-1.621.53-.832 1.505-1.343 2.865-1.551.1-.829.588-3.151 2.993-3.832l.05-.014h18.774v.769H9.596c-1.828.539-2.279 2.244-2.39 3.017h17.647v.77H6.781c-1.246.14-2.124.562-2.565 1.248-.26.405-.332.848-.332 1.215 0 .207.024.385.049.521h18.082v.769H3.628C1.651-3.415.809-1.634.514-.769h19.23c1.04 0 1.973-.558 2.075-.62l4.625-3.999h1.801v.769H26.73L22.278-.77l-.023.015c-.047.03-1.183.755-2.511.755Z" style="fill:#b2b2b2;fill-opacity:1;fill-rule:nonzero;stroke:none" transform="matrix(1.33333 0 0 -1.33333 344.635 522.314)"/><path d="M0 0h1.657l4.541 3.925s1.075.693 2.304.693h19.743s-.725-3.404-3.625-3.437H6.231 24.62s1.103-3.282-3.154-3.755H3.393h18.073s-.064-3.027-2.745-3.785H0" style="fill:#fff;fill-opacity:1;fill-rule:nonzero;stroke:none" transform="matrix(1.33333 0 0 -1.33333 381.979 528.985)"/><path d="M0 0c-1.328 0-2.465-.724-2.513-.755l-.023-.015-4.453-3.849h-1.513v-.769h1.8l4.625 3.998c.101.063 1.037.621 2.077.621h19.229c-.295-.865-1.137-2.646-3.116-2.669H-2.271v-.769h18.083c.025-.136.048-.313.048-.52 0-.366-.072-.811-.331-1.216-.441-.684-1.315-1.104-2.595-1.248H-5.11v-.77h17.648c-.111-.773-.563-2.478-2.39-3.017h-18.65v-.769h18.774l.051.014c2.408.682 2.895 3.012 2.994 3.837 1.373.214 2.338.722 2.864 1.546.352.551.45 1.141.45 1.622 0 .216-.022.4-.047.56 2.787.37 3.527 3.668 3.535 3.703l.099.465h-.476z" style="fill:#b2b2b2;fill-opacity:1;fill-rule:nonzero;stroke:none" transform="matrix(1.33333 0 0 -1.33333 393.315 522.314)"/><path d="m0 0 10.726 3.927L5.16-1.715v-.013z" style="fill:#e40521;fill-opacity:1;fill-rule:nonzero;stroke:none" transform="matrix(1.33333 0 0 -1.33333 381.926 530.066)"/><path d="m0 0-5.416-5.489c-.002.014-4.213 1.427-4.979 1.683L0 0m-10.558-3.762-.129-.048 5.319-1.782.021.035L.22.085.169.164z" style="fill:#b2b2b2;fill-opacity:1;fill-rule:nonzero;stroke:none" transform="matrix(1.33333 0 0 -1.33333 395.981 524.99)"/><path d="m0 0-3.188-7.551-.072-.01L0-12.473Z" style="fill:#f7e700;fill-opacity:1;fill-rule:nonzero;stroke:none" transform="matrix(1.33333 0 0 -1.33333 381.914 513.435)"/><path d="M0 0v-12.075l-3.132 4.718C-3.08-7.289-.505-1.196 0 0m-3.178-7.279c-.008.007-.04.004-.04.004l-.077-.01 3.392-5.11V.238L.004.257l-3.182-7.536" style="fill:#b2b2b2;fill-opacity:1;fill-rule:nonzero;stroke:none" transform="matrix(1.33333 0 0 -1.33333 381.85 513.753)"/><path d="m0 0-6.581-9.842L0-5.818Z" style="fill:#f7e700;fill-opacity:1;fill-rule:nonzero;stroke:none" transform="matrix(1.33333 0 0 -1.33333 381.914 530.066)"/><path d="M0 0v-5.659c-.011.017-5.337-3.236-6.371-3.868L0 0m.008.186-6.58-9.842.065-.068 6.58 4.023L.097.318z" style="fill:#b2b2b2;fill-opacity:1;fill-rule:nonzero;stroke:none" transform="matrix(1.33333 0 0 -1.33333 381.85 530.278)"/><path d="m0 0-5.16-1.728-1.474-8.147.053.033z" style="fill:#e40521;fill-opacity:1;fill-rule:nonzero;stroke:none" transform="matrix(1.33333 0 0 -1.33333 381.914 530.066)"/><path d="m0 0-6.438-9.626 1.444 7.98C-4.987-1.668-.777-.26 0 0m.103.137-5.16-1.729c-.032-.037-1.506-8.184-1.506-8.184l-.019-.109.146.094C-6.422-9.777.159.064.159.064l.078.117z" style="fill:#b2b2b2;fill-opacity:1;fill-rule:nonzero;stroke:none" transform="matrix(1.33333 0 0 -1.33333 381.756 530.188)"/><path d="m0 0-10.724 3.927 5.566-5.642-.002-.013Z" style="fill:#f7e700;fill-opacity:1;fill-rule:nonzero;stroke:none" transform="matrix(1.33333 0 0 -1.33333 381.914 530.066)"/><path d="M0 0c0 .049-4.511 4.625-5.364 5.49L5.029 1.684 0 0Zm-5.584 5.575L-.017-.067C.03-.092 5.19 1.637 5.19 1.637l.131.043-10.854 3.974Z" style="fill:#b2b2b2;fill-opacity:1;fill-rule:nonzero;stroke:none" transform="matrix(1.33333 0 0 -1.33333 375.014 532.31)"/><path d="m0 0-7.474-.975.01-.011L3.26-4.913Z" style="fill:#e40521;fill-opacity:1;fill-rule:nonzero;stroke:none" transform="matrix(1.33333 0 0 -1.33333 377.568 523.516)"/><path d="m0 0 3.162-4.765L-7.263-.947 0 0m.018.1-7.475-.975v-.104L3.405-4.956.047.104Z" style="fill:#b2b2b2;fill-opacity:1;fill-rule:nonzero;stroke:none" transform="matrix(1.33333 0 0 -1.33333 377.536 523.586)"/><path d="m0 0 3.187-7.551.075-.01L0-12.473Z" style="fill:#e40521;fill-opacity:1;fill-rule:nonzero;stroke:none" transform="matrix(1.33333 0 0 -1.33333 381.926 513.435)"/><path d="m0 0 3.094-7.332c.016-.011.025-.009.045-.015L0-12.075Zm-.097.238v-12.633l3.393 5.111-.151.019C3.145-7.204-.004.257-.004.257z" style="fill:#b2b2b2;fill-opacity:1;fill-rule:nonzero;stroke:none" transform="matrix(1.33333 0 0 -1.33333 381.99 513.753)"/><path d="m0 0 6.582-9.842L0-5.818Z" style="fill:#e40521;fill-opacity:1;fill-rule:nonzero;stroke:none" transform="matrix(1.33333 0 0 -1.33333 381.926 530.066)"/><path d="m0 0 .023 5.619 6.372-9.527L0 0m-.073 5.777V-.041c.023-.041 6.604-4.064 6.604-4.064l.066.067-6.67 9.975z" style="fill:#b2b2b2;fill-opacity:1;fill-rule:nonzero;stroke:none" transform="matrix(1.33333 0 0 -1.33333 381.96 537.77)"/><path d="m0 0 5.16-1.728 1.474-8.147-.052.033Z" style="fill:#f7e700;fill-opacity:1;fill-rule:nonzero;stroke:none" transform="matrix(1.33333 0 0 -1.33333 381.926 530.066)"/><path d="m0 0 5.026-1.683v-.002c0-.125 1.218-6.869 1.413-7.948C5.954-8.902.702-1.049 0 0m-.158.064 6.582-9.841a.597.597 0 0 1 .065-.048l.094-.061-1.494 8.257C5.057-1.592-.103.137-.103.137l-.134.044z" style="fill:#b2b2b2;fill-opacity:1;fill-rule:nonzero;stroke:none" transform="matrix(1.33333 0 0 -1.33333 382.084 530.188)"/><path d="m0 0 7.475-.975-.01-.011-10.727-3.927Z" style="fill:#f7e700;fill-opacity:1;fill-rule:nonzero;stroke:none" transform="matrix(1.33333 0 0 -1.33333 386.275 523.516)"/><path d="m0 0 7.263-.948-10.427-3.817L0 0m-.064.078-3.343-5.035L7.458-.979l-.001.103-7.504.98z" style="fill:#b2b2b2;fill-opacity:1;fill-rule:nonzero;stroke:none" transform="matrix(1.33333 0 0 -1.33333 386.307 523.585)"/><path d="m0 0 1.211-3.729h3.92L1.96-5.871l1.211-3.647L0-7.174l-3.171-2.284 1.211 3.577-3.171 2.152h3.92z" style="fill:#f6e700;fill-opacity:1;fill-rule:nonzero;stroke:none" transform="matrix(1.33333 0 0 -1.33333 338.22 524.23)"/><path d="m0 0 1.211-3.728h3.92L1.96-5.872 3.171-9.52 0-7.176-3.171-9.46l1.211 3.578-3.172 2.154h3.92z" style="fill:#f6e700;fill-opacity:1;fill-rule:nonzero;stroke:none" transform="matrix(1.33333 0 0 -1.33333 425.122 523.392)"/><path d="M0 0h1.502l1.996-5.452L5.454 0h1.503v-6.563h-.909v5.682h-.017L3.926-6.563h-.895L.926-.881H.908v-5.682H0Z" style="fill:#1d1d1b;fill-opacity:1;fill-rule:nonzero;stroke:none" transform="matrix(1.33333 0 0 -1.33333 270.467 637.35)"/><path d="M137.982 62.269h.853v-4.795h-.853zm.909 1.075h-.964v.991h.964zM140.36 64.528h.853v-7.054h-.853zM142.738 62.269h.853v-4.795h-.853zm.908 1.075h-.964v.991h.964z" style="fill:#1d1d1b;fill-opacity:1;fill-rule:nonzero;stroke:none" transform="matrix(1.33333 0 0 -1.33333 98.038 722.732)"/><path d="M0 0h-1.23v-2.624c0-.275.073-.485.218-.628a.65.65 0 0 1 .502-.225c.26.006.454.062.581.169v-.752a18.885 18.885 0 0 0-.329-.083 1.536 1.536 0 0 0-.399-.05c-.933-.006-1.408.459-1.426 1.395V0h-1.049v.716h1.049v1.111l.853.281V.716H0Z" style="fill:#1d1d1b;fill-opacity:1;fill-rule:nonzero;stroke:none" transform="matrix(1.33333 0 0 -1.33333 294.664 640.662)"/><path d="M0 0c-.182 0-.365.006-.549.018C-.662.018-.808.012-.986 0a2.757 2.757 0 0 1-.54-.124 1.085 1.085 0 0 1-.446-.262.71.71 0 0 1-.192-.519.675.675 0 0 1 .295-.574.908.908 0 0 1 .575-.206c.431.006.757.128.977.367.211.233.317.53.317.891Zm-2.545 2.173c.43.288.94.437 1.53.45C.249 2.617.872 1.955.853.639v-1.984c0-.515.013-.828.039-.941H.091v.619H.073c-.097-.15-.265-.306-.502-.468-.238-.171-.551-.26-.939-.266-.504 0-.911.119-1.219.357-.318.245-.479.624-.486 1.137 0 .3.073.554.219.762.139.198.319.357.539.476.462.233.931.346 1.407.34.302 0 .605-.006.908-.019 0 .422-.082.737-.245.946-.176.206-.477.309-.905.309a2.087 2.087 0 0 1-1.351-.488Z" style="fill:#1d1d1b;fill-opacity:1;fill-rule:nonzero;stroke:none" transform="matrix(1.33333 0 0 -1.33333 299.626 643.051)"/><path d="M0 0h.801v-.735h.017c.128.256.298.462.512.617.219.155.452.233.698.233.226 0 .414-.022.565-.064v-.79c-.163.055-.32.083-.472.083-.382-.006-.686-.183-.912-.529-.237-.342-.356-.819-.356-1.428v-2.182H0Z" style="fill:#1d1d1b;fill-opacity:1;fill-rule:nonzero;stroke:none" transform="matrix(1.33333 0 0 -1.33333 302.607 639.707)"/><path d="M0 0c.116-.043.249-.068.4-.074.196.006.36.066.494.179.127.114.229.242.306.386.146.325.218.532.218.62a1.143 1.143 0 0 1-.053.234 8.595 8.595 0 0 0-.107.276L-.32 6.095h.938l1.249-3.967h.018l1.276 3.967h.863L2.312 1.194A11.358 11.358 0 0 0 2.068.51a2.92 2.92 0 0 0-.338-.638 1.443 1.443 0 0 0-.481-.464 1.386 1.386 0 0 0-.72-.198 2.36 2.36 0 0 0-.584.069z" style="fill:#1d1d1b;fill-opacity:1;fill-rule:nonzero;stroke:none" transform="matrix(1.33333 0 0 -1.33333 306.712 647.833)"/><path d="M0 0c0-.671.169-1.261.507-1.77.336-.521.866-.788 1.59-.8.733.012 1.267.279 1.602.8.33.509.495 1.099.495 1.77 0 .696-.174 1.295-.521 1.798-.348.496-.873.754-1.576.772-.701-.018-1.224-.276-1.572-.772C.175 1.295 0 .696 0 0m-.964 0c0 .996.27 1.808.81 2.436.528.628 1.278.948 2.251.96.969-.012 1.721-.332 2.255-.96.531-.628.799-1.439.805-2.434-.006-1.016-.27-1.829-.792-2.438-.537-.625-1.293-.945-2.268-.96-.973.015-1.723.335-2.251.959-.54.609-.81 1.421-.81 2.437" style="fill:#1d1d1b;fill-opacity:1;fill-rule:nonzero;stroke:none" transform="matrix(1.33333 0 0 -1.33333 317.255 641.725)"/><path d="M0 0h-.827v.757h-.018a1.409 1.409 0 0 0-.609-.634 1.905 1.905 0 0 0-.912-.238C-3.537-.087-4.117.6-4.105 1.947v2.848h.854V2.314c-.025-1.105.303-1.676.983-1.713.492.006.851.191 1.076.556.226.358.339.831.339 1.419v2.219H0Z" style="fill:#1d1d1b;fill-opacity:1;fill-rule:nonzero;stroke:none" transform="matrix(1.33333 0 0 -1.33333 331.215 646.1)"/><path d="M0 0h-1.23v-2.624c0-.275.073-.485.218-.628a.65.65 0 0 1 .502-.225c.26.006.454.062.581.169v-.752a18.885 18.885 0 0 0-.329-.083 1.536 1.536 0 0 0-.399-.05c-.933-.006-1.408.459-1.426 1.395V0h-1.049v.716h1.049v1.111l.853.281V.716H0Z" style="fill:#1d1d1b;fill-opacity:1;fill-rule:nonzero;stroke:none" transform="matrix(1.33333 0 0 -1.33333 336.374 640.662)"/><path d="M0 0c.012.459-.079.868-.272 1.226-.208.356-.542.539-1.002.552-.464-.013-.808-.201-1.034-.565-.232-.355-.347-.769-.347-1.241a2.177 2.177 0 0 1 .329-1.185c.214-.389.562-.589 1.043-.601.234 0 .435.062.601.188.164.113.297.26.401.441.2.389.293.784.281 1.185m-3.509 2.379h.818v-.67h.018c.121.185.313.363.574.534.255.161.59.245 1.005.251.674-.013 1.176-.255 1.509-.726C.744 1.306.908.739.908.069c0-.686-.154-1.281-.462-1.787-.324-.526-.834-.797-1.531-.812-.409.006-.735.082-.979.229-.249.144-.44.324-.574.541h-.017v-2.63h-.854z" style="fill:#1d1d1b;fill-opacity:1;fill-rule:nonzero;stroke:none" transform="matrix(1.33333 0 0 -1.33333 342.333 642.879)"/><path d="M185.333 64.528h.853v-7.054h-.853z" style="fill:#1d1d1b;fill-opacity:1;fill-rule:nonzero;stroke:none" transform="matrix(1.33333 0 0 -1.33333 98.038 722.732)"/><path d="M0 0c-.182 0-.365.006-.549.018C-.662.018-.808.012-.986 0a2.757 2.757 0 0 1-.54-.124 1.085 1.085 0 0 1-.446-.262.71.71 0 0 1-.192-.519.675.675 0 0 1 .295-.574.908.908 0 0 1 .575-.206c.431.006.757.128.977.367.211.233.317.53.317.891Zm-2.545 2.173c.43.288.94.437 1.53.45C.249 2.617.872 1.955.853.639v-1.984c0-.515.013-.828.039-.941H.091v.619H.073c-.097-.15-.265-.306-.503-.468-.237-.171-.55-.26-.938-.266-.504 0-.911.119-1.219.357-.318.245-.479.624-.485 1.137 0 .3.072.554.218.762.139.198.319.357.538.476.463.233.932.346 1.408.34.302 0 .605-.006.908-.019 0 .422-.082.737-.245.946-.176.206-.477.309-.905.309a2.087 2.087 0 0 1-1.351-.488Z" style="fill:#1d1d1b;fill-opacity:1;fill-rule:nonzero;stroke:none" transform="matrix(1.33333 0 0 -1.33333 351.852 643.051)"/><path d="M0 0a2.434 2.434 0 0 1-.93.207c-.472-.013-.839-.193-1.1-.542a2.076 2.076 0 0 1-.392-1.254c0-.206.033-.415.098-.63.056-.22.148-.415.276-.583.24-.383.632-.577 1.175-.583.321 0 .628.09.922.271l.062-.79a1.871 1.871 0 0 0-.547-.156 3.684 3.684 0 0 0-.529-.041c-.708.015-1.276.266-1.703.753-.436.471-.657 1.058-.662 1.759.005.747.223 1.348.653 1.805.421.465.992.701 1.712.707A2.933 2.933 0 0 0 .076.735z" style="fill:#1d1d1b;fill-opacity:1;fill-rule:nonzero;stroke:none" transform="matrix(1.33333 0 0 -1.33333 358.76 640.784)"/><path d="M0 0c0 .375-.098.692-.294.95-.199.252-.486.381-.863.387-.415-.012-.719-.157-.912-.433A1.78 1.78 0 0 1-2.407 0Zm.556-2.659a11.494 11.494 0 0 0-.564-.197c-.225-.07-.526-.109-.903-.115-.821.006-1.425.245-1.814.716-.394.466-.591 1.094-.591 1.883.006.726.206 1.312.601 1.759.388.438.914.66 1.578.666.765-.012 1.301-.269 1.61-.77C.636 1.039.751.755.819.43.879.097.908-.263.908-.651h-3.315c.006-.477.16-.86.463-1.152a1.501 1.501 0 0 1 1.067-.452c.297 0 .584.06.859.18.268.107.459.208.574.304z" style="fill:#1d1d1b;fill-opacity:1;fill-rule:nonzero;stroke:none" transform="matrix(1.33333 0 0 -1.33333 364.09 642.292)"/><path d="M0 0h.823v-.688h.019c.326.535.832.803 1.519.803.286 0 .555-.072.805-.216.244-.15.428-.389.553-.716.18.346.417.59.709.734.29.132.546.198.769.198.607-.006 1.038-.179 1.295-.519.249-.337.372-.775.365-1.314v-3.077h-.854v2.862c0 .15-.006.306-.018.468a1.61 1.61 0 0 1-.131.432.776.776 0 0 1-.271.322.822.822 0 0 1-.447.11c-.451-.013-.776-.193-.975-.542-.202-.352-.303-.764-.303-1.236v-2.416h-.854v2.862c0 .15-.006.306-.018.468-.025.156-.07.3-.136.432a.749.749 0 0 1-.265.322.828.828 0 0 1-.448.11c-.454-.013-.779-.193-.975-.542-.205-.352-.308-.764-.308-1.236v-2.416H0Z" style="fill:#1d1d1b;fill-opacity:1;fill-rule:nonzero;stroke:none" transform="matrix(1.33333 0 0 -1.33333 366.605 639.707)"/><path d="M0 0c0 .375-.098.692-.294.95-.199.252-.486.381-.863.387-.415-.012-.719-.157-.912-.433A1.78 1.78 0 0 1-2.407 0Zm.556-2.659c-.16-.061-.348-.127-.564-.197-.225-.07-.526-.109-.903-.115-.821.006-1.425.245-1.814.716-.394.466-.591 1.094-.591 1.883.006.726.206 1.312.601 1.759.388.438.914.66 1.578.666.765-.012 1.301-.269 1.61-.77C.636 1.039.751.755.819.43.879.097.908-.263.908-.651h-3.315c.006-.477.16-.86.463-1.152a1.501 1.501 0 0 1 1.067-.452c.297 0 .584.06.859.18.268.107.459.208.574.304z" style="fill:#1d1d1b;fill-opacity:1;fill-rule:nonzero;stroke:none" transform="matrix(1.33333 0 0 -1.33333 381.588 642.292)"/><path d="M0 0c0 .375-.098.692-.294.95-.199.252-.486.381-.863.387-.415-.012-.719-.157-.912-.433A1.78 1.78 0 0 1-2.407 0Zm.557-2.659c-.16-.061-.349-.127-.565-.197-.225-.07-.526-.109-.903-.115-.821.006-1.425.245-1.814.716-.394.466-.591 1.094-.591 1.883.006.726.206 1.312.601 1.759.388.438.914.66 1.578.666.765-.012 1.301-.269 1.61-.77C.636 1.039.751.755.819.43.879.097.908-.263.908-.651h-3.315c.006-.477.16-.86.463-1.152a1.502 1.502 0 0 1 1.068-.452c.296 0 .583.06.859.18.267.107.458.208.574.304z" style="fill:#1d1d1b;fill-opacity:1;fill-rule:nonzero;stroke:none" transform="matrix(1.33333 0 0 -1.33333 491.315 642.292)"/><path d="M0 0h.827v-.753h.018c.133.274.34.489.622.644.273.149.572.224.899.224C3.54.09 4.12-.597 4.105-1.947v-2.848h-.854v2.485c.025 1.109-.303 1.678-.983 1.709-.48-.006-.836-.187-1.068-.542-.231-.358-.347-.836-.347-1.433v-2.219H0Z" style="fill:#1d1d1b;fill-opacity:1;fill-rule:nonzero;stroke:none" transform="matrix(1.33333 0 0 -1.33333 384.245 639.707)"/><path d="M0 0h-1.23v-2.624c0-.275.073-.485.218-.628a.65.65 0 0 1 .502-.225c.26.006.454.062.581.169v-.752a18.885 18.885 0 0 0-.329-.083 1.536 1.536 0 0 0-.399-.05c-.933-.006-1.408.459-1.426 1.395V0h-1.049v.716h1.049v1.111l.853.281V.716H0Z" style="fill:#1d1d1b;fill-opacity:1;fill-rule:nonzero;stroke:none" transform="matrix(1.33333 0 0 -1.33333 394.877 640.662)"/><path d="M0 0h-1.974v.826h4.859V0H.908v-5.736H0Z" style="fill:#1d1d1b;fill-opacity:1;fill-rule:nonzero;stroke:none" transform="matrix(1.33333 0 0 -1.33333 401.123 638.451)"/><path d="M0 0h.801v-.735h.017c.128.256.298.462.512.617.219.155.452.233.698.233.226 0 .414-.022.565-.064v-.79c-.163.055-.32.083-.472.083-.382-.006-.686-.183-.912-.529-.237-.342-.356-.819-.356-1.428v-2.182H0Z" style="fill:#1d1d1b;fill-opacity:1;fill-rule:nonzero;stroke:none" transform="matrix(1.33333 0 0 -1.33333 405.059 639.707)"/><path d="M0 0c-.182 0-.365.006-.549.018C-.662.018-.808.012-.986 0a2.757 2.757 0 0 1-.54-.124 1.085 1.085 0 0 1-.446-.262.71.71 0 0 1-.192-.519.675.675 0 0 1 .295-.574.908.908 0 0 1 .575-.206c.431.006.757.128.977.367.211.233.317.53.317.891Zm-2.545 2.173c.43.288.94.437 1.53.45C.249 2.617.872 1.955.853.639v-1.984c0-.515.013-.828.039-.941H.091v.619H.073c-.097-.15-.265-.306-.502-.468-.238-.171-.551-.26-.939-.266-.504 0-.911.119-1.22.357-.317.245-.479.624-.485 1.137 0 .3.073.554.219.762.139.198.319.357.538.476.463.233.932.346 1.408.34.302 0 .605-.006.908-.019 0 .422-.082.737-.245.946-.176.206-.477.309-.905.309a2.087 2.087 0 0 1-1.351-.488Z" style="fill:#1d1d1b;fill-opacity:1;fill-rule:nonzero;stroke:none" transform="matrix(1.33333 0 0 -1.33333 413.306 643.051)"/><path d="M0 0h.827v-.753h.017c.134.274.341.489.623.644.273.149.572.224.899.224C3.54.09 4.12-.597 4.105-1.947v-2.848h-.854v2.485c.025 1.109-.303 1.678-.983 1.709-.48-.006-.836-.187-1.068-.542-.231-.358-.347-.836-.347-1.433v-2.219H0Z" style="fill:#1d1d1b;fill-opacity:1;fill-rule:nonzero;stroke:none" transform="matrix(1.33333 0 0 -1.33333 419.652 639.707)"/><path d="M246.831 62.269h.853v-4.795h-.853zm.908 1.075h-.964v.991h.964zM238.898 62.269h.853v-4.795h-.853zm.908 1.075h-.964v.991h.964z" style="fill:#1d1d1b;fill-opacity:1;fill-rule:nonzero;stroke:none" transform="matrix(1.33333 0 0 -1.33333 98.038 722.732)"/><path d="M0 0h.827v-.753h.018c.133.274.34.489.622.644.273.149.572.224.899.224C3.54.09 4.12-.597 4.105-1.947v-2.848h-.853v2.485c.024 1.109-.304 1.678-.984 1.709-.48-.006-.836-.187-1.068-.542-.231-.358-.347-.836-.347-1.433v-2.219H0Z" style="fill:#1d1d1b;fill-opacity:1;fill-rule:nonzero;stroke:none" transform="matrix(1.33333 0 0 -1.33333 430.17 639.707)"/><path d="M0 0c.413.006.741.168.985.487.243.306.368.686.374 1.139 0 .515-.11.951-.33 1.309-.231.356-.575.536-1.029.543a1.093 1.093 0 0 1-.967-.575 2.324 2.324 0 0 1-.329-1.212c0-.463.118-.858.356-1.185C-.714.174-.401.006 0 0m2.212-.51c.022-1.509-.776-2.274-2.394-2.295-.427-.007-.983.104-1.668.33l.093.817c.57-.293 1.128-.437 1.674-.431.943.024 1.424.572 1.443 1.644v.473h-.019a1.867 1.867 0 0 0-.685-.556 2.108 2.108 0 0 0-.872-.188c-.664.006-1.16.248-1.486.726-.335.45-.503.995-.503 1.635 0 .652.174 1.232.521 1.74.341.521.86.79 1.557.808.406 0 .734-.071.983-.215.243-.144.426-.348.547-.611h.018v.712h.791z" style="fill:#1d1d1b;fill-opacity:1;fill-rule:nonzero;stroke:none" transform="matrix(1.33333 0 0 -1.33333 440.04 645.145)"/><path d="M262.579 64.037h.908v-6.563h-.908z" style="fill:#1d1d1b;fill-opacity:1;fill-rule:nonzero;stroke:none" transform="matrix(1.33333 0 0 -1.33333 98.038 722.732)"/><path d="M0 0h.827v-.753h.018c.133.274.34.489.622.644.273.149.572.224.899.224C3.54.09 4.12-.597 4.105-1.947v-2.848h-.854v2.485c.025 1.109-.303 1.678-.983 1.709-.48-.006-.836-.187-1.068-.542-.231-.358-.347-.836-.347-1.433v-2.219H0Z" style="fill:#1d1d1b;fill-opacity:1;fill-rule:nonzero;stroke:none" transform="matrix(1.33333 0 0 -1.33333 451.204 639.707)"/><path d="M0 0a2.251 2.251 0 0 1 1.071-.34c.211 0 .409.054.593.161.181.101.275.277.281.528a.62.62 0 0 1-.072.299.75.75 0 0 1-.227.225 6.837 6.837 0 0 1-.705.376c-.122.071-.244.143-.365.216a2.717 2.717 0 0 0-.331.257c-.205.193-.311.449-.316.767.005.503.166.876.481 1.121.305.239.691.358 1.157.358a3.22 3.22 0 0 0 1.069-.187l-.076-.768a1.386 1.386 0 0 1-.436.176 2.296 2.296 0 0 1-.463.063c-.226 0-.414-.046-.566-.138a.473.473 0 0 1-.258-.445c0-.12.031-.219.093-.299a.783.783 0 0 1 .228-.234c.103-.064.213-.124.329-.179.122-.064.243-.127.365-.188.128-.058.255-.124.383-.198.121-.076.227-.165.316-.266a1.07 1.07 0 0 0 .231-.354c.048-.138.071-.308.071-.509-.006-.509-.171-.885-.494-1.13-.314-.246-.691-.368-1.13-.368-.217 0-.432.02-.646.06-.22.036-.429.105-.628.206z" style="fill:#1d1d1b;fill-opacity:1;fill-rule:nonzero;stroke:none" transform="matrix(1.33333 0 0 -1.33333 458.082 644.845)"/><path d="M0 0h-1.23v-2.624c0-.275.073-.485.218-.628a.65.65 0 0 1 .502-.225c.26.006.454.062.581.169v-.752a18.885 18.885 0 0 0-.329-.083 1.536 1.536 0 0 0-.399-.05c-.933-.006-1.408.459-1.426 1.395V0h-1.049v.716h1.049v1.111l.853.281V.716H0Z" style="fill:#1d1d1b;fill-opacity:1;fill-rule:nonzero;stroke:none" transform="matrix(1.33333 0 0 -1.33333 466.403 640.662)"/><path d="M277.345 62.269h.853v-4.795h-.853zm.908 1.075h-.964v.991h.964z" style="fill:#1d1d1b;fill-opacity:1;fill-rule:nonzero;stroke:none" transform="matrix(1.33333 0 0 -1.33333 98.038 722.732)"/><path d="M0 0h-1.23v-2.624c0-.275.073-.485.218-.628a.65.65 0 0 1 .502-.225c.26.006.454.062.581.169v-.752a21.067 21.067 0 0 0-.328-.083 1.55 1.55 0 0 0-.4-.05c-.933-.006-1.408.459-1.426 1.395V0h-1.049v.716h1.049v1.111l.853.281V.716H0Z" style="fill:#1d1d1b;fill-opacity:1;fill-rule:nonzero;stroke:none" transform="matrix(1.33333 0 0 -1.33333 474.14 640.662)"/><path d="M0 0h-.827v.757h-.018a1.409 1.409 0 0 0-.609-.634 1.905 1.905 0 0 0-.912-.238C-3.537-.087-4.117.6-4.105 1.947v2.848h.854V2.314c-.025-1.105.303-1.676.983-1.713.492.006.851.191 1.076.556.226.358.339.831.339 1.419v2.219H0Z" style="fill:#1d1d1b;fill-opacity:1;fill-rule:nonzero;stroke:none" transform="matrix(1.33333 0 0 -1.33333 480.894 646.1)"/><path d="M0 0h-1.23v-2.624c0-.275.073-.485.218-.628a.65.65 0 0 1 .502-.225c.26.006.454.062.581.169v-.752a21.067 21.067 0 0 0-.328-.083 1.55 1.55 0 0 0-.4-.05c-.933-.006-1.408.459-1.426 1.395V0h-1.049v.716h1.049v1.111l.853.281V.716H0Z" style="fill:#1d1d1b;fill-opacity:1;fill-rule:nonzero;stroke:none" transform="matrix(1.33333 0 0 -1.33333 486.054 640.662)"/><path d="M0 0c.308.722.546 1.445.717 2.167.169.744.297 1.493.382 2.247.085.754.149 1.578.192 2.47 0 .34-.075.574-.224.701-.149.128-.382.191-.701.191h-16.413V5.864h13.258a66.982 66.982 0 0 0-.207-2.294 14.503 14.503 0 0 0-.334-1.913 17.787 17.787 0 0 0-.558-1.848 12.288 12.288 0 0 0-.773-1.657h-13.617v-1.976h9.052v-3.888h-7.49l-.032-2.04h14.342l-.032-7.394H.724c.611 0 .927.276.949.829l-.031 7.649c.02.637-.264.956-.855.956h-5.839l-.032 3.888h8.945l.032 1.976H-.994C-.599-1.219-.256-.6 0 0" style="fill:#1d1d1b;fill-opacity:1;fill-rule:nonzero;stroke:none" transform="matrix(1.33333 0 0 -1.33333 294.837 607.444)"/><path d="M161.67 83.471h-3.856v4.271h3.856zm3.888-1.674c.148.117.233.335.255.654V93.35c0 .34-.107.574-.255.701-.149.128-.382.192-.701.192h-3.155V89.08h-3.92v4.27c0 .34-.074.574-.222.701-.147.128-.38.192-.695.192h-3.163V81.622h11.155c.319 0 .552.058.701.175" style="fill:#1d1d1b;fill-opacity:1;fill-rule:nonzero;stroke:none" transform="matrix(1.33333 0 0 -1.33333 98.038 722.732)"/><path d="M0 0c0 .339-.096.573-.224.701-.127.128-.35.191-.669.191h-3.25v-14.915h3.218c.319 0 .552.058.701.175.149.117.224.335.224.654v5.609h2.387v1.912H0Z" style="fill:#1d1d1b;fill-opacity:1;fill-rule:nonzero;stroke:none" transform="matrix(1.33333 0 0 -1.33333 329.576 596.735)"/><path d="m0 0 4.844-3.155c.361-.234.706-.303 1.036-.208.329.096.584.277.764.542.181.266.25.568.208.909-.043.339-.245.626-.605.86l-4.75 3.06.287.382a19.293 19.293 0 0 1 1.642 3.107c.457 1.094.78 2.183.972 3.267.063.34.005.574-.175.701-.181.128-.431.191-.75.191H-7.044V7.808h6.916a16.082 16.082 0 0 0-.908-3.522A19.84 19.84 0 0 0-2.645 1.02a19.301 19.301 0 0 0-2.12-2.869 22.548 22.548 0 0 0-2.47-2.39c-.467-.382-.595-.712-.382-.988.212-.255.52-.266.924-.032a21.433 21.433 0 0 1 3.554 2.247A20.986 20.986 0 0 1 0 0" style="fill:#1d1d1b;fill-opacity:1;fill-rule:nonzero;stroke:none" transform="matrix(1.33333 0 0 -1.33333 343.125 609.95)"/><path d="M0 0c0 .339-.064.574-.192.701-.127.127-.349.191-.668.191h-3.22v-7.903h18.096v1.912H0Z" style="fill:#1d1d1b;fill-opacity:1;fill-rule:nonzero;stroke:none" transform="matrix(1.33333 0 0 -1.33333 345.929 620.277)"/><path d="M0 0h3.187c.319 0 .542.058.669.175.128.117.202.335.223.654v17.656c0 .339-.063.573-.191.701-.127.127-.351.191-.669.191H-.032v-6.884h-4.78v-1.912H0Z" style="fill:#1d1d1b;fill-opacity:1;fill-rule:nonzero;stroke:none" transform="matrix(1.33333 0 0 -1.33333 356.467 621.382)"/><path d="M0 0c.34-.255.68-.346 1.02-.271.34.074.605.239.797.494.191.255.276.558.255.908-.022.351-.202.654-.542.909l-4.622 3.41c.808.956 1.483 1.96 2.025 3.011a11.835 11.835 0 0 1 1.131 3.395c.064.339.005.573-.175.701-.181.127-.43.191-.749.191h-10.518V10.9h6.916c-.17-1.212-.515-2.317-1.035-3.315a19.673 19.673 0 0 0-1.801-2.836 19.278 19.278 0 0 0-2.374-2.455A159.443 159.443 0 0 0-12.238.127c-.468-.382-.595-.712-.382-.988.233-.255.562-.265.987-.032a37.032 37.032 0 0 1 3.491 1.961A19.401 19.401 0 0 1-4.94 3.601z" style="fill:#1d1d1b;fill-opacity:1;fill-rule:nonzero;stroke:none" transform="matrix(1.33333 0 0 -1.33333 381.577 614.073)"/><path d="M0 0h-3.219v-14.915h3.187c.319 0 .553.058.701.175.149.117.223.335.223.654V-.892c0 .339-.095.573-.223.701C.542-.064.319 0 0 0" style="fill:#1d1d1b;fill-opacity:1;fill-rule:nonzero;stroke:none" transform="matrix(1.33333 0 0 -1.33333 392.753 595.546)"/><path d="M0 0h-16.254v-2.04h13.035v-7.648h3.187c.616 0 .935.276.956.828v7.904C.924-.319.616 0 0 0" style="fill:#1d1d1b;fill-opacity:1;fill-rule:nonzero;stroke:none" transform="matrix(1.33333 0 0 -1.33333 392.711 617.387)"/><path d="M0 0c-.16-1.87-.452-3.538-.877-5.004a.578.578 0 0 1 .032-.557.797.797 0 0 1 .446-.367c.149-.085.34-.101.573-.048.233.053.433.208.602.462a15.96 15.96 0 0 1 1.408 2.2c.432.807.816 1.752 1.154 2.836.315 1.04.558 2.236.727 3.585.168 1.349.263 2.917.285 4.701 0 .637-.295.956-.885.956h-16.58V6.788H.271C.249 4.132.159 1.869 0 0" style="fill:#1d1d1b;fill-opacity:1;fill-rule:nonzero;stroke:none" transform="matrix(1.33333 0 0 -1.33333 417.742 610.46)"/><path d="M0 0c.042.553-.298.829-.956.829h-2.613V-9.242h-1.983V0c.042.553-.298.829-.956.829h-2.614V-9.242h-3.569v-1.976h22.772v1.976H0Z" style="fill:#1d1d1b;fill-opacity:1;fill-rule:nonzero;stroke:none" transform="matrix(1.33333 0 0 -1.33333 414.032 610.249)"/><path d="M0 0h3.952v-2.613H-.013c.002.023.012.039.013.064zm-9.052 0h5.418v-2.613h-3.888l-.032-2.04H6.788v-7.394h3.13c.612 0 .928.276.95.829v7.649c.02.637-.296.956-.886.956h-2.41c.002.023.012.039.013.064V0h5.732v1.976h-22.4z" style="fill:#1d1d1b;fill-opacity:1;fill-rule:nonzero;stroke:none" transform="matrix(1.33333 0 0 -1.33333 440.668 614.243)"/><path d="M0 0v4.462c0 .339-.064.574-.192.701-.127.128-.35.191-.669.191H-4.08v-7.266h18.096V0Z" style="fill:#1d1d1b;fill-opacity:1;fill-rule:nonzero;stroke:none" transform="matrix(1.33333 0 0 -1.33333 473.85 627.076)"/><path d="M0 0c.318 0 .546.069.685.207.138.138.196.388.176.749v2.23h7.011v1.913H-9.115V3.123h5.832V0Z" style="fill:#1d1d1b;fill-opacity:1;fill-rule:nonzero;stroke:none" transform="matrix(1.33333 0 0 -1.33333 472.666 617.71)"/><path d="M0 0h5.386v-3.26h3.18c.599 0 .92.297.9.892v18.294c0 .339-.065.573-.193.701-.129.127-.353.191-.675.191H5.322V1.848H0Z" style="fill:#1d1d1b;fill-opacity:1;fill-rule:nonzero;stroke:none" transform="matrix(1.33333 0 0 -1.33333 477.207 617.97)"/><path d="M0 0c-1.743 0-4.619.235-4.619 3.156 0 2.952 2.876 3.156 4.619 3.156 1.743 0 4.305-.399 4.305-3.156C4.305.418 1.743 0 0 0m-.157 8.223c-2.833 0-8.472-.165-8.472-5.098 0-4.864 5.639-5.098 8.472-5.098 2.832 0 8.472.234 8.472 5.098 0 4.933-5.64 5.098-8.472 5.098" style="fill:#1d1d1b;fill-opacity:1;fill-rule:nonzero;stroke:none" transform="matrix(1.33333 0 0 -1.33333 318.949 628.267)"/><path d="M0 0c1.818 0 3.811-.827 3.811-3.255 0-2.434-1.993-3.256-3.811-3.256-1.818 0-3.838.761-3.838 3.256C-3.838-.729-1.818 0 0 0m0-8.412c2.868 0 7.984.827 7.984 5.193 0 4.322-5.116 5.193-7.984 5.193-2.868 0-7.984-.871-7.984-5.193 0-4.366 5.116-5.193 7.984-5.193" style="fill:#1d1d1b;fill-opacity:1;fill-rule:nonzero;stroke:none" transform="matrix(1.33333 0 0 -1.33333 443.49 598.435)"/><path d="M0 0c-1.763 0-2.598 1.159-2.598 2.693 0 1.535.784 2.744 2.548 2.744 1.66 0 2.548-1.209 2.548-2.744C2.498 1.159 1.661 0 0 0m-.05 7.349c-2.572 0-6.375-.818-6.375-4.656 0-2.571 1.736-4.656 6.375-4.656S6.324.122 6.324 2.693c0 3.838-3.803 4.656-6.374 4.656" style="fill:#1d1d1b;fill-opacity:1;fill-rule:nonzero;stroke:none" transform="matrix(1.33333 0 0 -1.33333 471.538 605.94)"/></svg>