<svg xmlns="http://www.w3.org/2000/svg" width="779.99951pt" height="375pt" viewBox="0 0 779.99955 374.99999"><path fill="#2a4789" d="M621.826 534.114h-15.235c-8.415 0-15.235-6.82-15.235-15.235s6.82-15.235 15.235-15.235h15.235V328.44h-380.88v175.205h15.235c8.409 0 15.235 6.82 15.235 15.235 0 8.416-6.826 15.235-15.235 15.235h-15.235V709.32h380.88z" style="stroke-width:6.21076" transform="matrix(.98456 0 0 .98456 -237.225 -323.367)"/><path fill="#badfe5" d="M827.503 709.319v-15.235c0-8.416 6.82-15.235 15.235-15.235 8.416 0 15.235 6.82 15.235 15.235v15.235h175.205v-380.88H857.973v15.234c0 8.41-6.82 15.235-15.235 15.235-8.416 0-15.235-6.825-15.235-15.235v-15.235H652.298V709.32Z" style="stroke-width:6.21076" transform="matrix(.98456 0 0 .98456 -237.225 -323.367)"/><path fill="#2a4789" d="M832.731 386.52h-11.906v57.624h11.906v-30.228h10.558V406.5h-10.558Zm29.035 33.004.013-11.142h19.141l.006 11.142c0 1.553-.658 2.41-2.316 2.826-1.429.36-4.31.584-7.26.584s-5.839-.224-7.26-.584c-1.665-.416-2.324-1.273-2.324-2.826m31.054-15.613h11.788v8.459H892.82zm-6.248 23.83c4.503-1.285 6.248-4.223 6.248-7.956h11.788v11.664h11.9V386.52h-11.9v9.975H892.82v-9.024h-11.894l-.006 13.017H861.78l-.006-13.017h-11.894v32.314c0 3.733 1.746 6.67 6.242 7.956 4.435 1.267 9.534 1.963 15.229 1.963 5.689 0 10.794-.696 15.222-1.963m3.205 34.905c-9.502 0-15.875-4.907-15.875-10.969 0-6.061 6.273-10.974 15.875-10.974 9.44 0 15.887 4.913 15.887 10.974 0 6.062-6.055 10.969-15.887 10.969m.006-29.607c-16.558 0-27.78 8.341-27.78 18.638 0 10.292 10.843 18.639 27.78 18.639 16.956 0 27.775-8.347 27.775-18.639 0-10.297-11.192-18.638-27.775-18.638m79.162 26.793c-7.403 0-13.166-.46-16.346-1.366-3.137-.857-4.77-2.379-4.77-4.435l.006-.006v-9.291h-11.9v9.291c0 4.354 1.528 7.571 4.348 9.503 3.67 2.59 11.272 3.931 28.662 3.931 9.701 0 19.75-1.323 26.148-2.9v-7.602c-6.646 1.521-16.248 2.875-26.148 2.875m-23.035-18.098h11.906v-11.515h24.663v3.472h-12.676v7.422h12.676v5.962h11.9V386.52h-11.9v36.284h-55.91v7.415h19.34zM790.95 458.466c-3.136-.857-4.77-2.379-4.77-4.435l.007-.006v-13.757h-11.906v13.757c0 4.354 1.534 7.571 4.353 9.503 3.67 2.59 11.267 3.931 28.663 3.931 9.695 0 19.75-1.323 26.147-2.9v-7.602c-6.651 1.521-16.253 2.875-26.147 2.875-7.403 0-13.173-.46-16.347-1.366m-92.453-54.475c0-5.95 4.565-10.769 10.72-10.769 6.16 0 10.726 4.82 10.726 10.77 0 5.943-4.565 10.763-10.726 10.763-6.155 0-10.72-4.82-10.72-10.764m33.364 0c0-10.173-9.248-18.42-22.644-18.42-13.39 0-22.645 8.247-22.645 18.42 0 10.174 9.254 18.422 22.645 18.422 13.396 0 22.644-8.248 22.644-18.422m55.71 12.788c5.36 9.254 15.478 13.64 25.235 15.434v-7.428c-11.906-3.198-19.266-11.738-19.266-27.24l-.006-10.074h-11.93l-.007 10.074c0 15.502-7.36 24.042-19.265 27.24v7.428c9.757-1.795 19.874-6.18 25.24-15.434m164.293-23.557c7.521 0 11.279 4.683 11.279 9.086 0 4.398-3.758 9.08-11.279 9.08s-11.279-4.682-11.279-9.08c0-4.403 3.758-9.086 11.28-9.086m0 25.824c13.756 0 22.644-7.496 22.644-16.738 0-9.247-8.888-16.738-22.645-16.738s-22.644 7.49-22.644 16.738c0 9.242 8.887 16.738 22.644 16.738M754.383 386.52h-11.9v35.644h11.9zm-41.78 71.946c-3.137-.857-4.77-2.379-4.77-4.435l.006-.006v-3.173h46.543v-16.645a5.758 5.758 0 0 0-5.745-5.739h-52.704v7.41h46.55v7.558h-46.55v10.59c0 4.353 1.528 7.57 4.354 9.502 3.664 2.59 11.266 3.931 28.662 3.931 9.695 0 19.75-1.323 26.141-2.9v-7.602c-6.645 1.521-16.247 2.875-26.14 2.875-7.41 0-13.174-.46-16.347-1.366" style="stroke-width:6.21076" transform="matrix(.98456 0 0 .98456 -237.225 -323.367)"/><path fill="#fff" d="M401.481 438.608c-2.093-.571-3.18-1.583-3.18-2.956v-9.173h-7.93v9.167c0 2.907 1.018 5.05 2.9 6.335 2.44 1.733 7.508 2.62 19.104 2.62 6.465 0 13.167-.875 17.433-1.93v-5.062c-4.434 1.012-10.831 1.913-17.433 1.913-4.938 0-8.776-.311-10.894-.913m60.735 2.788c-6.335 0-10.59-3.273-10.59-7.316 0-4.037 4.187-7.31 10.59-7.31 6.292 0 10.59 3.273 10.59 7.31 0 4.043-4.037 7.316-10.59 7.316m0-19.738c-11.036 0-18.52 5.559-18.52 12.422s7.235 12.428 18.52 12.428c11.304 0 18.52-5.565 18.52-12.428s-7.465-12.422-18.52-12.422m1.77-21.135v-4.763c0-2.13-1.72-3.845-3.838-3.845h-22.452v4.938h18.334v3.062c0 4.85-1.677 8.813-4.888 11.508-3.124 2.627-7.893 4.056-13.67 4.13v4.95c5.578 0 11.565-.702 15.962-2.757 5.472-2.572 10.552-8.41 10.552-17.223m89.292 35.588v-6.36h22.52v6.36h.006c0 1.335-.8 2.683-2.912 3-1.702.267-5.354.552-8.354.552-3 0-6.652-.285-8.353-.552-2.112-.317-2.913-1.665-2.913-3zm-7.937 1.764c.037 1.608.472 4.341 4.552 5.291 4.286.957 9.726 1.435 14.645 1.435 4.92 0 10.36-.478 14.645-1.435 4.08-.95 4.516-3.683 4.553-5.291v-13.068H545.34zm-65.306-47.233h-7.931v29.954h7.93v-14.961h7.044v-4.944h-7.043zm23.8 28.228h-.02c-1.937-.38-2.676-1.696-2.676-2.863v-9.05h21.887v9.05c0 1.167-.74 2.484-2.67 2.863h-.026c-2.267.372-5.329.608-8.248.608-2.919 0-5.98-.236-8.247-.608m12.216 5.447c3.596-.187 6.925-.696 10.434-1.46 2.87-.621 4.472-2.503 4.472-5.161V391.96h-7.931v10.055h-21.887V391.96h-7.931v25.737c0 2.658 1.602 4.54 4.478 5.161 3.503.764 6.832 1.273 10.428 1.46v11.527H487.17v4.95h49.823v-4.95H516.05Zm38.942-8.739c-4.106 0-7.155-3.341-7.155-7.46 0-4.123 3.024-7.464 7.155-7.464 4.074 0 7.142 3.341 7.142 7.465 0 4.118-3.019 7.46-7.142 7.46m20.812-24.937v14.353h-6.174c-.64-2.211-1.937-4.199-3.776-5.764h4.62v-4.943h-11.588v-4.913h-7.931v4.913h-11.602v4.943h4.726c-2.658 2.273-4.186 5.416-4.186 8.888 0 6.937 6.167 12.564 15.098 12.564 8.168 0 13.956-4.67 14.931-10.744h5.882v10.34h7.93v-29.637zm-222.047 24.004h-12.763V396.86h12.763zm7.931 1.106v-23.837h-28.625v23.837a3.849 3.849 0 0 0 3.838 3.838h20.949a3.84 3.84 0 0 0 3.838-3.838m15.794-25.11h-7.937v38.42h7.937zm-55.332 12.03v-6.912a3.847 3.847 0 0 0-3.844-3.845h-36.072v4.95h31.979v5.875c0 2.982-.41 6.453-1.031 8.192h-36.06v4.938h21.458v7.676H282.03v4.944h32.054v15.16h7.93v-16.278c0-2.13-1.72-3.82-3.825-3.826h-11.67v-7.676h20.427v-4.938h-6.453c1.012-1.788 1.658-5.608 1.658-8.26m27.483 35.936c-2.093-.572-3.18-1.584-3.18-2.957v-9.173h-7.937v9.167c0 2.907 1.024 5.05 2.9 6.335 2.447 1.733 7.515 2.621 19.11 2.621 6.466 0 13.167-.876 17.434-1.931v-5.062c-4.434 1.012-10.831 1.913-17.433 1.913-4.938 0-8.776-.31-10.894-.913m61.3-30.495h10.465v20.949h7.931v-38.42h-7.93v12.527h-9.423c.118-.714.162-1.521.162-2.335v-5.074a3.846 3.846 0 0 0-3.838-3.845h-22.446v4.944h18.328v3.49c0 4.863-1.67 9.037-4.87 11.962-3.123 2.864-7.9 4.522-13.688 4.603v4.943c5.137-.012 10.26-.757 14.558-2.59 4.528-1.95 8.757-5.272 10.751-11.154M416.838 602.948h-9.093v-7.888h-2.881v19.036h2.881v-8.688h9.093v8.688h2.882V595.06h-2.882zm-27.818 11.148h2.826v-20.272h-2.826zm38.277-8.67c.105-1.205.466-2.136 1.074-2.8.615-.653 1.429-.982 2.441-.982 1.106 0 1.92.354 2.44 1.05.529.701.796 1.62.815 2.732zm3.515-5.968c-1.298 0-2.428.292-3.397.888-.97.596-1.727 1.453-2.267 2.577-.547 1.124-.814 2.49-.814 4.106 0 1.62.298 2.974.895 4.061.596 1.081 1.422 1.895 2.49 2.447 1.068.553 2.298.826 3.683.826 1.012 0 1.882-.074 2.615-.223a10.526 10.526 0 0 0 2.186-.733v-2.341c-.764.329-1.51.583-2.23.757-.72.162-1.54.255-2.465.255-1.336 0-2.373-.398-3.106-1.18-.739-.783-1.124-1.907-1.161-3.391h9.658v-1.547c0-2.006-.547-3.596-1.628-4.75-1.086-1.175-2.57-1.752-4.459-1.752m56.158 1.285c-.895-.844-2.193-1.26-3.876-1.26-.913 0-1.751.186-2.521.546a4.35 4.35 0 0 0-1.857 1.64h-.187l.106-1.093.056-1.336v-5.416h-2.826v20.272h2.826v-7.229c0-1.615.273-2.87.826-3.757.553-.889 1.565-1.33 3.043-1.33 1.969 0 2.956 1.112 2.956 3.36v8.956h2.801v-9.36c0-1.831-.447-3.167-1.347-3.993m-37.724 7.708c0 1.236-.373 2.167-1.106 2.795-.739.627-1.658.931-2.764.931-.708 0-1.285-.167-1.732-.509-.448-.335-.665-.87-.665-1.621 0-.838.31-1.497.944-1.975.634-.484 1.764-.758 3.403-.832l1.92-.044zm-2.59-8.993c-.957 0-1.882.118-2.758.354-.882.242-1.658.54-2.335.9l.907 2.056c.62-.31 1.273-.565 1.95-.776a6.973 6.973 0 0 1 2.105-.323c.87 0 1.547.217 2.025.652.478.44.72 1.18.72 2.23v.807l-2.453.068c-2.28.075-3.968.49-5.08 1.249-1.112.757-1.67 1.863-1.67 3.347 0 1.49.428 2.59 1.285 3.286.85.708 1.925 1.055 3.223 1.055 1.211 0 2.155-.173 2.845-.546.683-.367 1.335-.932 1.956-1.714h.106l.565 1.993h2v-9.726c0-1.695-.454-2.937-1.348-3.726-.9-.795-2.248-1.186-4.043-1.186m-83.802 0a6.33 6.33 0 0 0-2.571.528 4.133 4.133 0 0 0-1.907 1.658h-.161l-.404-1.926h-2.236v14.378h2.826v-7.254c0-1.633.28-2.888.838-3.764.56-.869 1.572-1.298 3.031-1.298 1.969 0 2.957 1.112 2.957 3.36v8.956h2.8v-9.36c0-1.85-.44-3.192-1.329-4.024-.894-.838-2.173-1.254-3.844-1.254m105.794 12.055c-.379-.38-.571-.957-.571-1.733v-7.9h4.105v-2.162h-4.105v-3.223h-1.733l-.988 3.037-2.111 1.068v1.28h2v7.95c0 1.173.198 2.086.59 2.745.39.658.913 1.124 1.558 1.39.653.268 1.367.398 2.15.398l1.546-.142 1.23-.367v-2.13a6.36 6.36 0 0 1-2.162.354c-.627 0-1.124-.193-1.509-.565m-11.59 2.583h2.827v-20.272h-2.826zm-75.851-5.645c0 1.236-.373 2.167-1.112 2.795-.733.627-1.658.931-2.758.931-.714 0-1.291-.167-1.732-.509-.447-.335-.671-.87-.671-1.621 0-.838.317-1.497.95-1.975.627-.484 1.764-.758 3.397-.832l1.926-.044zm-2.59-8.993c-.963 0-1.882.118-2.758.354-.882.242-1.658.54-2.335.9l.907 2.056c.62-.31 1.267-.565 1.944-.776a7.044 7.044 0 0 1 2.111-.323c.87 0 1.547.217 2.025.652.478.44.72 1.18.72 2.23v.807l-2.453.068c-2.279.075-3.968.49-5.08 1.249-1.112.757-1.67 1.863-1.67 3.347 0 1.49.428 2.59 1.279 3.286.857.708 1.931 1.055 3.23 1.055 1.21 0 2.154-.173 2.838-.546.689-.367 1.341-.932 1.962-1.714h.106l.559 1.993h2.006v-9.726c0-1.695-.454-2.937-1.348-3.726-.9-.795-2.248-1.186-4.043-1.186m-66.573 8.993c0 1.236-.367 2.167-1.106 2.795-.739.627-1.658.931-2.763.931-.709 0-1.286-.167-1.733-.509-.441-.335-.665-.87-.665-1.621 0-.839.317-1.497.944-1.975.634-.485 1.77-.758 3.404-.832l1.919-.044zm-2.584-8.993c-.963 0-1.882.118-2.764.354-.882.242-1.658.54-2.335.9l.907 2.056c.627-.31 1.273-.565 1.95-.776a7.034 7.034 0 0 1 2.106-.323c.869 0 1.546.217 2.03.652.479.44.715 1.18.715 2.23v.807l-2.454.068c-2.273.075-3.968.49-5.08 1.248s-1.664 1.864-1.664 3.348c0 1.49.428 2.59 1.279 3.286.85.708 1.931 1.055 3.23 1.055 1.204 0 2.155-.173 2.838-.546.683-.367 1.335-.932 1.962-1.714h.106l.559 1.993h2v-9.726c0-1.695-.447-2.937-1.348-3.726-.894-.795-2.242-1.186-4.037-1.186m21.284 14.638h2.826v-14.378h-2.826zm1.435-19.843-1.143.373c-.323.248-.484.67-.484 1.254 0 .572.161.988.484 1.249l1.143.378 1.124-.378c.317-.261.478-.677.478-1.249 0-.584-.161-1.006-.478-1.254zm-8.651 17.26c-.386-.38-.572-.957-.572-1.733v-7.9h4.105v-2.162h-4.105v-3.223h-1.739l-.981 3.037-2.112 1.068v1.28h2v7.95c0 1.173.199 2.086.59 2.745.391.658.907 1.124 1.559 1.39.652.268 1.366.398 2.149.398l1.546-.142 1.224-.367v-2.13a6.36 6.36 0 0 1-2.161.354c-.622 0-1.125-.193-1.503-.565m-27.725-6.217c.018.577.03 1.18.05 1.826.018.652.043 1.26.068 1.826.025.577.05 1.043.068 1.416h-.08l-9.603-15.304h-3.465v19.036h2.608V603.96a68.586 68.586 0 0 0-.093-2.813c-.043-.913-.08-1.72-.118-2.44h.106l9.633 15.39h3.49V595.06h-2.664zm51.704 5.384c-.615.913-1.59 1.36-2.925 1.36-1.33 0-2.304-.447-2.92-1.36-.614-.9-.918-2.167-.918-3.776 0-1.646.304-2.9.906-3.782.603-.876 1.572-1.323 2.907-1.323 1.354 0 2.335.447 2.95 1.323.609.882.92 2.136.92 3.782 0 1.609-.311 2.876-.92 3.776m.584-10.36c-1.006-.577-2.167-.862-3.478-.862-2.1 0-3.757.64-4.962 1.931-1.211 1.286-1.814 3.124-1.814 5.515 0 1.59.286 2.95.863 4.062.578 1.112 1.373 1.956 2.38 2.528.999.584 2.154.87 3.452.87 2.08 0 3.733-.647 4.956-1.945 1.23-1.298 1.845-3.136 1.845-5.515 0-1.608-.292-2.962-.87-4.062-.577-1.099-1.366-1.944-2.372-2.521M459.652 638.387a6.658 6.658 0 0 0-1.782 1.98h-.112l-.373-2.558h-2.235v14.378h2.825v-7.577c0-.938.187-1.745.572-2.41.385-.67.882-1.18 1.51-1.534a4.027 4.027 0 0 1 2.024-.534l1.44.186.293-2.64a8.808 8.808 0 0 0-1.572-.136c-.981 0-1.838.286-2.59.845m-26.818 4.453c-.751-.472-1.664-.926-2.732-1.348-.963-.373-1.733-.727-2.323-1.056-.584-.335-1.013-.69-1.28-1.093-.267-.397-.397-.894-.397-1.478 0-.745.273-1.354.826-1.814.553-.46 1.354-.695 2.403-.695.795 0 1.578.093 2.33.298a15.92 15.92 0 0 1 2.23.745l.906-2.372a16.43 16.43 0 0 0-2.522-.833 12.307 12.307 0 0 0-2.869-.316c-1.845 0-3.341.447-4.478 1.335-1.137.888-1.708 2.112-1.708 3.677 0 1.03.205 1.906.615 2.614.41.715.975 1.31 1.708 1.79.727.477 1.553.893 2.478 1.254 1.012.391 1.838.757 2.466 1.105.633.348 1.093.72 1.378 1.118.28.404.423.895.423 1.485 0 .832-.317 1.503-.957 2-.64.496-1.602.745-2.881.745-1 0-1.975-.13-2.938-.385-.957-.261-1.795-.547-2.503-.87v2.72c.64.323 1.41.566 2.317.733.906.168 1.888.255 2.937.255 2.13 0 3.814-.478 5.037-1.44 1.23-.957 1.845-2.287 1.845-3.976 0-1-.199-1.826-.59-2.49-.392-.671-.963-1.236-1.72-1.708m-30.34.677c.105-1.205.466-2.143 1.08-2.795.615-.659 1.429-.988 2.441-.988 1.106 0 1.92.348 2.441 1.05.528.702.795 1.615.814 2.733zm3.521-5.975c-1.298 0-2.428.298-3.397.894-.975.597-1.727 1.454-2.273 2.578-.54 1.118-.808 2.49-.808 4.105 0 1.621.292 2.969.889 4.05a5.85 5.85 0 0 0 2.496 2.459c1.069.553 2.292.826 3.683.826 1.013 0 1.882-.075 2.615-.224a10.2 10.2 0 0 0 2.186-.739v-2.347c-.77.341-1.509.596-2.23.764-.72.167-1.54.254-2.465.254-1.335 0-2.373-.391-3.112-1.174-.733-.782-1.124-1.913-1.155-3.39h9.652v-1.547c0-2.006-.54-3.596-1.628-4.758-1.08-1.167-2.565-1.751-4.453-1.751m66.977 8.67c-.18.553-.379 1.168-.59 1.857a13.72 13.72 0 0 0-.428 1.69h-.106c-.068-.441-.205-1-.398-1.677-.198-.677-.385-1.298-.559-1.87l-2.987-8.403h-2.987l5.44 14.378h3.118l5.472-14.378h-2.988zm32.644-2.695c.105-1.205.466-2.143 1.08-2.795.615-.659 1.429-.988 2.441-.988 1.1 0 1.913.348 2.441 1.05.522.702.795 1.615.814 2.733zm9.602.534c0-2.006-.54-3.596-1.628-4.758-1.086-1.167-2.57-1.751-4.453-1.751-1.298 0-2.434.298-3.403.894-.97.597-1.72 1.454-2.267 2.578-.54 1.118-.814 2.49-.814 4.105 0 1.621.298 2.969.895 4.05a5.85 5.85 0 0 0 2.496 2.459c1.062.553 2.292.826 3.677.826 1.019 0 1.888-.075 2.615-.224a9.975 9.975 0 0 0 2.186-.739v-2.347c-.764.341-1.503.596-2.223.764-.72.167-1.547.254-2.472.254-1.33 0-2.367-.391-3.106-1.174-.739-.782-1.124-1.913-1.161-3.39h9.658zm-19.496-4.106 1.596.224 1.578.497.85-2.292c-.459-.236-1.043-.428-1.745-.596a10.418 10.418 0 0 0-2.254-.236c-1.317 0-2.49.267-3.522.789-1.03.528-1.838 1.341-2.428 2.44-.584 1.106-.876 2.547-.876 4.323 0 2.54.603 4.404 1.814 5.59 1.205 1.18 2.807 1.77 4.8 1.77.87 0 1.61-.068 2.212-.211a6.116 6.116 0 0 0 1.683-.671v-2.453a8.403 8.403 0 0 1-1.708.695c-.621.18-1.33.267-2.112.267-1.242 0-2.186-.428-2.826-1.279-.64-.857-.956-2.1-.956-3.733 0-3.422 1.298-5.124 3.894-5.124m-12.459-7.608-1.149.38c-.316.248-.478.664-.478 1.254 0 .571.162.981.478 1.242l1.15.385 1.123-.385c.317-.261.479-.67.479-1.242 0-.59-.162-1.006-.479-1.255zm-1.44 19.85h2.825v-14.372h-2.826zm-40.489-8.67c.106-1.205.466-2.143 1.081-2.795.615-.659 1.429-.988 2.441-.988 1.106 0 1.92.348 2.44 1.05.529.702.796 1.615.814 2.733zm3.522-5.975c-1.298 0-2.428.298-3.397.894-.97.597-1.727 1.454-2.267 2.578-.547 1.118-.814 2.49-.814 4.105 0 1.621.292 2.969.888 4.05a5.85 5.85 0 0 0 2.497 2.459c1.068.553 2.292.826 3.683.826 1.012 0 1.882-.075 2.615-.224a10.2 10.2 0 0 0 2.186-.739v-2.347c-.77.341-1.51.596-2.23.764-.72.167-1.54.254-2.465.254-1.336 0-2.373-.391-3.106-1.174-.739-.782-1.13-1.913-1.161-3.39h9.651v-1.547c0-2.006-.54-3.596-1.627-4.758-1.08-1.167-2.565-1.751-4.453-1.751m-111.086 7.552c0 1.634-.285 2.882-.857 3.745-.565.864-1.59 1.298-3.068 1.298-.994 0-1.726-.28-2.198-.832-.472-.546-.708-1.385-.708-2.503v-8.993h-2.851v9.415c0 1.833.44 3.162 1.329 3.988.894.832 2.18 1.242 3.87 1.242.906 0 1.77-.18 2.59-.522a4.056 4.056 0 0 0 1.918-1.64h.13l.404 1.895h2.267v-14.378h-2.826zm-15.539-.23a16.1 16.1 0 0 0-2.254-1.05c-.907-.366-1.615-.658-2.118-.906l-1.069-.751-.304-.876c0-1.019.87-1.522 2.609-1.522.677 0 1.347.087 2.006.28.652.186 1.292.416 1.919.683l.931-2.168a12.96 12.96 0 0 0-2.254-.745 11.196 11.196 0 0 0-2.466-.267c-1.652 0-2.98.335-3.987 1-1.006.67-1.51 1.627-1.51 2.863 0 .789.168 1.44.51 1.956.335.516.82.957 1.453 1.33.628.378 1.41.739 2.336 1.086.937.367 1.658.684 2.142.957l1 .801.267.857c0 .578-.236 1.025-.701 1.366-.472.342-1.243.51-2.31.51a8.907 8.907 0 0 1-2.467-.36c-.844-.249-1.577-.51-2.204-.814v2.478a7.803 7.803 0 0 0 1.987.67c.72.144 1.59.212 2.602.212 1.851 0 3.286-.366 4.31-1.093 1.02-.727 1.535-1.807 1.535-3.236 0-.783-.174-1.422-.51-1.938-.335-.515-.82-.956-1.453-1.323m27.967-6.477a6.765 6.765 0 0 0-1.789 1.98h-.105l-.373-2.558h-2.242v14.378h2.826v-7.577c0-.938.193-1.745.578-2.41.378-.67.882-1.18 1.503-1.534a4.034 4.034 0 0 1 2.03-.534l1.435.186.298-2.64a8.88 8.88 0 0 0-1.577-.136c-.975 0-1.839.286-2.584.845m-45.742-.845c-.907 0-1.764.18-2.578.534-.807.36-1.44.907-1.906 1.658h-.156l-.403-1.925h-2.242v14.378h2.832v-7.254c0-1.634.28-2.888.838-3.758.56-.876 1.572-1.31 3.025-1.31 1.975 0 2.962 1.118 2.962 3.36v8.962h2.801v-9.36c0-1.85-.447-3.192-1.335-4.037-.888-.826-2.167-1.248-3.838-1.248m-18.589-2.745 2.267.695v14.378l-2.267.665v1.652h7.385v-1.652l-2.242-.665v-14.378l2.242-.695v-1.652h-7.385zm79.454 11.738c0 1.242-.372 2.174-1.105 2.801-.74.621-1.658.932-2.764.932-.708 0-1.286-.168-1.733-.51-.447-.341-.664-.875-.664-1.633 0-.826.31-1.484.944-1.963.633-.484 1.764-.757 3.403-.832l1.92-.056zm-2.59-8.993c-.956 0-1.881.124-2.757.36-.882.242-1.658.54-2.335.888l.906 2.062a14.492 14.492 0 0 1 1.95-.776 6.97 6.97 0 0 1 2.106-.317c.87 0 1.546.218 2.025.652.478.435.72 1.18.72 2.23v.801l-2.453.075c-2.273.074-3.969.484-5.08 1.236-1.112.764-1.665 1.875-1.665 3.353 0 1.497.422 2.59 1.28 3.298.85.702 1.925 1.05 3.223 1.05 1.21 0 2.161-.186 2.844-.547.684-.366 1.336-.944 1.957-1.726h.112l.559 2.006h2v-9.732c0-1.69-.454-2.932-1.348-3.72-.9-.796-2.249-1.193-4.044-1.193m17.689 0c-.913 0-1.77.18-2.578.534a4.164 4.164 0 0 0-1.906 1.658h-.162l-.397-1.925h-2.243v14.378h2.826v-7.254c0-1.634.28-2.888.845-3.758.559-.876 1.565-1.31 3.025-1.31 1.975 0 2.962 1.118 2.962 3.36v8.962h2.801v-9.36c0-1.85-.447-3.192-1.335-4.037-.888-.826-2.168-1.248-3.838-1.248m16.16 2.403 1.602.224 1.572.497.857-2.292c-.466-.236-1.05-.428-1.752-.596a10.418 10.418 0 0 0-2.254-.236c-1.317 0-2.49.267-3.522.789-1.03.528-1.838 1.341-2.422 2.44-.59 1.106-.882 2.547-.882 4.323 0 2.54.603 4.404 1.814 5.59 1.21 1.18 2.807 1.77 4.8 1.77.87 0 1.61-.068 2.212-.211a5.965 5.965 0 0 0 1.683-.671v-2.453a8.26 8.26 0 0 1-1.708.695c-.621.18-1.323.267-2.106.267-1.248 0-2.186-.428-2.825-1.279-.646-.857-.963-2.1-.963-3.733 0-3.422 1.298-5.124 3.894-5.124" style="stroke-width:6.21076" transform="matrix(.98456 0 0 .98456 -237.225 -323.367)"/><path fill="#2a4789" d="M812.213 644.864c-.634-.366-1.385-.714-2.255-1.055-.907-.354-1.615-.653-2.118-.901l-1.068-.751-.31-.882c0-1.013.875-1.516 2.614-1.516.677 0 1.342.087 2 .286.658.18 1.298.404 1.925.67l.932-2.16a13.696 13.696 0 0 0-2.254-.746 10.873 10.873 0 0 0-2.466-.267c-1.652 0-2.987.335-3.987 1-1.007.664-1.51 1.62-1.51 2.87 0 .782.168 1.428.51 1.943.335.516.82.963 1.453 1.342.627.366 1.41.733 2.329 1.087.944.354 1.658.67 2.149.944l1 .807.267.863c0 .572-.236 1.025-.708 1.36-.466.336-1.236.504-2.304.504a8.894 8.894 0 0 1-2.466-.354 14.392 14.392 0 0 1-2.205-.814v2.478a7.794 7.794 0 0 0 1.988.665c.72.142 1.59.223 2.602.223 1.85 0 3.285-.372 4.31-1.1 1.019-.726 1.534-1.806 1.534-3.229 0-.782-.174-1.428-.509-1.95-.342-.515-.82-.944-1.453-1.317m-15.658 3.907c-.614.907-1.59 1.366-2.919 1.366-1.335 0-2.31-.46-2.925-1.366-.609-.907-.92-2.168-.92-3.789 0-1.633.305-2.888.908-3.77.608-.881 1.577-1.322 2.906-1.322 1.354 0 2.336.44 2.95 1.322.615.882.92 2.137.92 3.77 0 1.621-.305 2.882-.92 3.789m.584-10.36c-1-.577-2.161-.87-3.478-.87-2.099 0-3.751.647-4.962 1.932-1.211 1.292-1.814 3.137-1.814 5.51 0 1.602.292 2.956.87 4.067.577 1.112 1.366 1.957 2.372 2.534 1.006.578 2.155.876 3.453.876 2.081 0 3.733-.658 4.963-1.956 1.223-1.298 1.838-3.137 1.838-5.522 0-1.59-.285-2.95-.863-4.055-.578-1.1-1.373-1.932-2.379-2.516m38.265 13.782h2.826v-14.378h-2.826zm1.44-19.85-1.148.373c-.317.249-.479.665-.479 1.255 0 .565.162.981.479 1.236l1.149.385 1.118-.385c.322-.255.478-.671.478-1.236 0-.59-.156-1.006-.478-1.255zm25.527 14.186c0 1.248-.373 2.18-1.112 2.8-.733.622-1.658.933-2.758.933-.714 0-1.291-.168-1.732-.504-.447-.335-.671-.881-.671-1.627 0-.832.317-1.497.95-1.975.634-.478 1.764-.751 3.397-.826l1.926-.056zm-2.59-8.987c-.963 0-1.882.118-2.758.36a11.74 11.74 0 0 0-2.335.894l.907 2.05a16.229 16.229 0 0 1 1.944-.77 7.04 7.04 0 0 1 2.111-.317c.87 0 1.547.218 2.025.652.478.435.72 1.18.72 2.23v.795l-2.453.08c-2.279.069-3.968.485-5.08 1.243-1.112.751-1.67 1.87-1.67 3.347 0 1.497.428 2.59 1.279 3.298.857.696 1.931 1.056 3.23 1.056 1.21 0 2.154-.192 2.844-.553.683-.366 1.335-.937 1.956-1.72h.106l.565 2.006h2v-9.745c0-1.689-.454-2.919-1.348-3.714-.9-.795-2.248-1.192-4.043-1.192m-12.788 12.061c-.385-.379-.571-.956-.571-1.739v-7.894h4.105v-2.161h-4.105v-3.23h-1.74l-.98 3.044-2.112 1.068v1.28h2v7.949c0 1.174.198 2.087.59 2.751.39.653.912 1.112 1.558 1.38.653.266 1.367.41 2.15.41l1.546-.156 1.223-.354v-2.143c-.64.236-1.36.348-2.155.348-.627 0-1.124-.186-1.509-.553m-19.62-.913c-.565.963-1.44 1.447-2.615 1.447-1.422 0-2.397-.447-2.931-1.341-.534-.888-.801-2.168-.801-3.832v-.435c.018-1.584.304-2.758.857-3.522.546-.763 1.49-1.142 2.826-1.142 1.192 0 2.074.453 2.652 1.36.577.907.87 2.143.87 3.714 0 1.54-.286 2.795-.858 3.751m-2-11.148c-1.118 0-2.024.211-2.708.64-.683.428-1.23.944-1.64 1.546h-.13l-.403-1.92H818.2v20.776h2.826v-5.857l-.069-1.167-.118-1.137h.187c.41.553.962 1.031 1.652 1.428.695.398 1.584.61 2.67.61 1.727 0 3.118-.647 4.187-1.914 1.068-1.273 1.602-3.13 1.602-5.565 0-2.472-.528-4.329-1.578-5.57-1.05-1.25-2.44-1.87-4.186-1.87m-105.315 7.322c-.628-.366-1.38-.714-2.249-1.055-.907-.354-1.615-.653-2.124-.901l-1.068-.752-.304-.881c0-1.013.87-1.516 2.614-1.516.677 0 1.342.087 2 .286.659.18 1.298.404 1.92.67l.93-2.16a13.505 13.505 0 0 0-2.254-.746c-.77-.18-1.59-.267-2.465-.267-1.652 0-2.981.335-3.988 1-1.006.664-1.503 1.62-1.503 2.87 0 .782.168 1.428.504 1.943.341.516.826.963 1.453 1.342.633.366 1.41.733 2.335 1.087.944.354 1.658.67 2.149.944l1 .807.267.863c0 .572-.236 1.025-.708 1.36-.472.336-1.242.503-2.31.503a8.926 8.926 0 0 1-2.466-.354 14.062 14.062 0 0 1-2.199-.813v2.478a7.713 7.713 0 0 0 1.988.665c.72.142 1.583.223 2.602.223 1.845 0 3.28-.373 4.304-1.1 1.025-.726 1.534-1.807 1.534-3.229 0-.782-.168-1.428-.503-1.95-.342-.515-.826-.944-1.46-1.317m59.338-3.825h-9.099v-7.9h-2.881v19.054h2.881v-8.701h9.1v8.701h2.875v-19.055h-2.876zm-74.846 11.154h2.826v-20.278h-2.826zm165.635 0h2.826v-20.278h-2.826zM693.24 634.797l2.266.69v14.383l-2.266.659v1.664h7.39v-1.664l-2.242-.659v-14.384l2.242-.69v-1.658h-7.39zm56.064 2.745a6.44 6.44 0 0 0-2.571.534 4.187 4.187 0 0 0-1.907 1.652h-.161l-.398-1.92h-2.242v14.385h2.826v-7.254c0-1.646.28-2.9.838-3.77.566-.863 1.572-1.304 3.031-1.304 1.975 0 2.957 1.118 2.957 3.36v8.968h2.8v-9.372c0-1.845-.44-3.192-1.329-4.025-.888-.832-2.173-1.254-3.844-1.254m-15.092 8.987c0 1.248-.373 2.18-1.112 2.8-.733.622-1.658.932-2.757.932-.715 0-1.292-.167-1.733-.503-.447-.335-.671-.881-.671-1.627 0-.832.317-1.497.95-1.975.628-.478 1.764-.751 3.398-.826l1.925-.056zm-2.59-8.987c-.963 0-1.882.118-2.758.36a11.74 11.74 0 0 0-2.335.894l.907 2.05a16.229 16.229 0 0 1 1.944-.77 7.04 7.04 0 0 1 2.112-.317c.87 0 1.546.217 2.024.652.479.435.72 1.18.72 2.23v.795l-2.453.08c-2.279.069-3.968.485-5.08 1.243-1.112.751-1.67 1.87-1.67 3.347 0 1.497.428 2.59 1.279 3.298.857.696 1.931 1.056 3.23 1.056 1.21 0 2.155-.192 2.838-.553.69-.366 1.341-.938 1.962-1.72h.106l.559 2.006h2.006v-9.745c0-1.689-.453-2.919-1.348-3.714-.9-.795-2.248-1.192-4.043-1.192" style="stroke-width:6.21076" transform="matrix(.98456 0 0 .98456 -237.225 -323.367)"/></svg>