<svg xmlns="http://www.w3.org/2000/svg" xml:space="preserve" width="818.61273" height="100" viewBox="0 0 818.61273 100"><defs><linearGradient id="a" x1="0" x2="1" y1="0" y2="0" gradientTransform="matrix(117.90376 22.021 22.021 -117.90376 239.11 188.61)" gradientUnits="userSpaceOnUse" spreadMethod="pad"><stop offset="0" style="stop-opacity:1;stop-color:#ed174c"/><stop offset="1" style="stop-opacity:1;stop-color:#fcaf16"/></linearGradient><linearGradient id="b" x1="0" x2="1" y1="0" y2="0" gradientTransform="scale(119.95172 -119.95172) rotate(-10.579 -7.466 -11.554)" gradientUnits="userSpaceOnUse" spreadMethod="pad"><stop offset="0" style="stop-opacity:1;stop-color:#ed174c"/><stop offset="1" style="stop-opacity:1;stop-color:#fcaf16"/></linearGradient><linearGradient id="c" x1="0" x2="1" y1="0" y2="0" gradientTransform="scale(119.92358 -119.92358) rotate(-10.579 -7.532 -11.551)" gradientUnits="userSpaceOnUse" spreadMethod="pad"><stop offset="0" style="stop-opacity:1;stop-color:#ed174c"/><stop offset="1" style="stop-opacity:1;stop-color:#fcaf16"/></linearGradient><linearGradient id="d" x1="0" x2="1" y1="0" y2="0" gradientTransform="scale(119.94219 -119.94219) rotate(-10.579 -7.439 -11.557)" gradientUnits="userSpaceOnUse" spreadMethod="pad"><stop offset="0" style="stop-opacity:1;stop-color:#ed174c"/><stop offset="1" style="stop-opacity:1;stop-color:#fcaf16"/></linearGradient><linearGradient id="e" x1="0" x2="1" y1="0" y2="0" gradientTransform="scale(119.92404 -119.92404) rotate(-10.579 -7.408 -11.563)" gradientUnits="userSpaceOnUse" spreadMethod="pad"><stop offset="0" style="stop-opacity:1;stop-color:#ed174c"/><stop offset="1" style="stop-opacity:1;stop-color:#fcaf16"/></linearGradient><linearGradient id="f" x1="0" x2="1" y1="0" y2="0" gradientTransform="scale(119.96313 -119.96313) rotate(-10.579 -7.37 -11.56)" gradientUnits="userSpaceOnUse" spreadMethod="pad"><stop offset="0" style="stop-opacity:1;stop-color:#ed174c"/><stop offset="1" style="stop-opacity:1;stop-color:#fcaf16"/></linearGradient><linearGradient id="g" x1="0" x2="1" y1="0" y2="0" gradientTransform="scale(119.93338 -119.93338) rotate(-10.579 -7.263 -11.575)" gradientUnits="userSpaceOnUse" spreadMethod="pad"><stop offset="0" style="stop-opacity:1;stop-color:#ed174c"/><stop offset="1" style="stop-opacity:1;stop-color:#fcaf16"/></linearGradient><linearGradient id="h" x1="0" x2="1" y1="0" y2="0" gradientTransform="scale(119.95067 -119.95067) rotate(-10.579 -7.24 -11.575)" gradientUnits="userSpaceOnUse" spreadMethod="pad"><stop offset="0" style="stop-opacity:1;stop-color:#ed174c"/><stop offset="1" style="stop-opacity:1;stop-color:#fcaf16"/></linearGradient><linearGradient id="i" x1="0" x2="1" y1="0" y2="0" gradientTransform="scale(119.91287 -119.91287) rotate(-10.579 -7.22 -11.582)" gradientUnits="userSpaceOnUse" spreadMethod="pad"><stop offset="0" style="stop-opacity:1;stop-color:#ed174c"/><stop offset="1" style="stop-opacity:1;stop-color:#fcaf16"/></linearGradient><linearGradient id="j" x1="0" x2="1" y1="0" y2="0" gradientTransform="scale(119.9436 -119.9436) rotate(-10.579 -7.196 -11.58)" gradientUnits="userSpaceOnUse" spreadMethod="pad"><stop offset="0" style="stop-opacity:1;stop-color:#ed174c"/><stop offset="1" style="stop-opacity:1;stop-color:#fcaf16"/></linearGradient><linearGradient id="k" x1="0" x2="1" y1="0" y2="0" gradientTransform="scale(119.9063 -119.9063) rotate(-10.579 -7.177 -11.587)" gradientUnits="userSpaceOnUse" spreadMethod="pad"><stop offset="0" style="stop-opacity:1;stop-color:#ed174c"/><stop offset="1" style="stop-opacity:1;stop-color:#fcaf16"/></linearGradient><linearGradient id="l" x1="0" x2="1" y1="0" y2="0" gradientTransform="scale(119.94582 -119.94582) rotate(-10.579 -6.652 -11.63)" gradientUnits="userSpaceOnUse" spreadMethod="pad"><stop offset="0" style="stop-opacity:1;stop-color:#ed174c"/><stop offset="1" style="stop-opacity:1;stop-color:#fcaf16"/></linearGradient><linearGradient id="m" x1="0" x2="1" y1="0" y2="0" gradientTransform="scale(119.96083 -119.96083) rotate(-10.579 -7.744 -11.528)" gradientUnits="userSpaceOnUse" spreadMethod="pad"><stop offset="0" style="stop-opacity:1;stop-color:#ed174c"/><stop offset="1" style="stop-opacity:1;stop-color:#fcaf16"/></linearGradient><linearGradient id="n" x1="0" x2="1" y1="0" y2="0" gradientTransform="scale(119.90235 -119.90235) rotate(-10.579 -7.721 -11.536)" gradientUnits="userSpaceOnUse" spreadMethod="pad"><stop offset="0" style="stop-opacity:1;stop-color:#ed174c"/><stop offset="1" style="stop-opacity:1;stop-color:#fcaf16"/></linearGradient><linearGradient id="o" x1="0" x2="1" y1="0" y2="0" gradientTransform="scale(119.91895 -119.91895) rotate(-10.579 -7.693 -11.537)" gradientUnits="userSpaceOnUse" spreadMethod="pad"><stop offset="0" style="stop-opacity:1;stop-color:#ed174c"/><stop offset="1" style="stop-opacity:1;stop-color:#fcaf16"/></linearGradient><linearGradient id="p" x1="0" x2="1" y1="0" y2="0" gradientTransform="scale(119.92685 -119.92685) rotate(-10.579 -7.666 -11.538)" gradientUnits="userSpaceOnUse" spreadMethod="pad"><stop offset="0" style="stop-opacity:1;stop-color:#ed174c"/><stop offset="1" style="stop-opacity:1;stop-color:#fcaf16"/></linearGradient><linearGradient id="q" x1="0" x2="1" y1="0" y2="0" gradientTransform="scale(119.879 -119.879) rotate(-10.579 -7.642 -11.546)" gradientUnits="userSpaceOnUse" spreadMethod="pad"><stop offset="0" style="stop-opacity:1;stop-color:#ed174c"/><stop offset="1" style="stop-opacity:1;stop-color:#fcaf16"/></linearGradient><linearGradient id="r" x1="0" x2="1" y1="0" y2="0" gradientTransform="scale(119.9699 -119.9699) rotate(-10.579 -7.609 -11.539)" gradientUnits="userSpaceOnUse" spreadMethod="pad"><stop offset="0" style="stop-opacity:1;stop-color:#ed174c"/><stop offset="1" style="stop-opacity:1;stop-color:#fcaf16"/></linearGradient><linearGradient id="s" x1="0" x2="1" y1="0" y2="0" gradientTransform="scale(119.93902 -119.93902) rotate(-10.579 -7.584 -11.545)" gradientUnits="userSpaceOnUse" spreadMethod="pad"><stop offset="0" style="stop-opacity:1;stop-color:#ed174c"/><stop offset="1" style="stop-opacity:1;stop-color:#fcaf16"/></linearGradient><linearGradient id="t" x1="0" x2="1" y1="0" y2="0" gradientTransform="scale(119.92216 -119.92216) rotate(-10.579 -7.558 -11.549)" gradientUnits="userSpaceOnUse" spreadMethod="pad"><stop offset="0" style="stop-opacity:1;stop-color:#ed174c"/><stop offset="1" style="stop-opacity:1;stop-color:#fcaf16"/></linearGradient><linearGradient id="u" x1="0" x2="1" y1="0" y2="0" gradientTransform="scale(119.93913 -119.93913) rotate(-10.579 -7.53 -11.55)" gradientUnits="userSpaceOnUse" spreadMethod="pad"><stop offset="0" style="stop-opacity:1;stop-color:#ed174c"/><stop offset="1" style="stop-opacity:1;stop-color:#fcaf16"/></linearGradient><linearGradient id="v" x1="0" x2="1" y1="0" y2="0" gradientTransform="scale(119.96363 -119.96363) rotate(-10.579 -7.5 -11.55)" gradientUnits="userSpaceOnUse" spreadMethod="pad"><stop offset="0" style="stop-opacity:1;stop-color:#ed174c"/><stop offset="1" style="stop-opacity:1;stop-color:#fcaf16"/></linearGradient><linearGradient id="w" x1="0" x2="1" y1="0" y2="0" gradientTransform="scale(119.89337 -119.89337) rotate(-10.579 -7.478 -11.56)" gradientUnits="userSpaceOnUse" spreadMethod="pad"><stop offset="0" style="stop-opacity:1;stop-color:#ed174c"/><stop offset="1" style="stop-opacity:1;stop-color:#fcaf16"/></linearGradient><linearGradient id="x" x1="0" x2="1" y1="0" y2="0" gradientTransform="scale(119.89356 -119.89356) rotate(-10.579 -7.45 -11.562)" gradientUnits="userSpaceOnUse" spreadMethod="pad"><stop offset="0" style="stop-opacity:1;stop-color:#ed174c"/><stop offset="1" style="stop-opacity:1;stop-color:#fcaf16"/></linearGradient><linearGradient id="y" x1="0" x2="1" y1="0" y2="0" gradientTransform="scale(119.9268 -119.9268) rotate(-10.579 -7.421 -11.561)" gradientUnits="userSpaceOnUse" spreadMethod="pad"><stop offset="0" style="stop-opacity:1;stop-color:#ed174c"/><stop offset="1" style="stop-opacity:1;stop-color:#fcaf16"/></linearGradient><linearGradient id="z" x1="0" x2="1" y1="0" y2="0" gradientTransform="scale(119.98874 -119.98874) rotate(-10.579 -6.635 -11.627)" gradientUnits="userSpaceOnUse" spreadMethod="pad"><stop offset="0" style="stop-opacity:1;stop-color:#ed174c"/><stop offset="1" style="stop-opacity:1;stop-color:#fcaf16"/></linearGradient><linearGradient id="A" x1="0" x2="1" y1="0" y2="0" gradientTransform="scale(119.98314 -119.98314) rotate(-10.579 -6.62 -11.63)" gradientUnits="userSpaceOnUse" spreadMethod="pad"><stop offset="0" style="stop-opacity:1;stop-color:#ed174c"/><stop offset="1" style="stop-opacity:1;stop-color:#fcaf16"/></linearGradient><linearGradient id="B" x1="0" x2="1" y1="0" y2="0" gradientTransform="scale(119.97285 -119.97285) rotate(-10.579 -6.606 -11.632)" gradientUnits="userSpaceOnUse" spreadMethod="pad"><stop offset="0" style="stop-opacity:1;stop-color:#ed174c"/><stop offset="1" style="stop-opacity:1;stop-color:#fcaf16"/></linearGradient><linearGradient id="C" x1="0" x2="1" y1="0" y2="0" gradientTransform="scale(119.89519 -119.89519) rotate(-10.579 -6.596 -11.64)" gradientUnits="userSpaceOnUse" spreadMethod="pad"><stop offset="0" style="stop-opacity:1;stop-color:#ed174c"/><stop offset="1" style="stop-opacity:1;stop-color:#fcaf16"/></linearGradient><linearGradient id="D" x1="0" x2="1" y1="0" y2="0" gradientTransform="scale(119.97017 -119.97017) rotate(-10.579 -6.578 -11.634)" gradientUnits="userSpaceOnUse" spreadMethod="pad"><stop offset="0" style="stop-opacity:1;stop-color:#ed174c"/><stop offset="1" style="stop-opacity:1;stop-color:#fcaf16"/></linearGradient><linearGradient id="E" x1="0" x2="1" y1="0" y2="0" gradientTransform="scale(119.96372 -119.96372) rotate(-10.579 -6.564 -11.636)" gradientUnits="userSpaceOnUse" spreadMethod="pad"><stop offset="0" style="stop-opacity:1;stop-color:#ed174c"/><stop offset="1" style="stop-opacity:1;stop-color:#fcaf16"/></linearGradient><linearGradient id="F" x1="0" x2="1" y1="0" y2="0" gradientTransform="scale(119.8561 -119.8561) rotate(-10.579 -6.555 -11.65)" gradientUnits="userSpaceOnUse" spreadMethod="pad"><stop offset="0" style="stop-opacity:1;stop-color:#ed174c"/><stop offset="1" style="stop-opacity:1;stop-color:#fcaf16"/></linearGradient><linearGradient id="G" x1="0" x2="1" y1="0" y2="0" gradientTransform="scale(119.93243 -119.93243) rotate(-10.579 -6.537 -11.642)" gradientUnits="userSpaceOnUse" spreadMethod="pad"><stop offset="0" style="stop-opacity:1;stop-color:#ed174c"/><stop offset="1" style="stop-opacity:1;stop-color:#fcaf16"/></linearGradient><linearGradient id="H" x1="0" x2="1" y1="0" y2="0" gradientTransform="scale(119.91493 -119.91493) rotate(-10.579 -6.523 -11.646)" gradientUnits="userSpaceOnUse" spreadMethod="pad"><stop offset="0" style="stop-opacity:1;stop-color:#ed174c"/><stop offset="1" style="stop-opacity:1;stop-color:#fcaf16"/></linearGradient><linearGradient id="I" x1="0" x2="1" y1="0" y2="0" gradientTransform="scale(119.90813 -119.90813) rotate(-10.579 -6.51 -11.648)" gradientUnits="userSpaceOnUse" spreadMethod="pad"><stop offset="0" style="stop-opacity:1;stop-color:#ed174c"/><stop offset="1" style="stop-opacity:1;stop-color:#fcaf16"/></linearGradient><linearGradient id="J" x1="0" x2="1" y1="0" y2="0" gradientTransform="scale(119.90269 -119.90269) rotate(-10.579 -6.496 -11.65)" gradientUnits="userSpaceOnUse" spreadMethod="pad"><stop offset="0" style="stop-opacity:1;stop-color:#ed174c"/><stop offset="1" style="stop-opacity:1;stop-color:#fcaf16"/></linearGradient><linearGradient id="K" x1="0" x2="1" y1="0" y2="0" gradientTransform="scale(119.9263 -119.9263) rotate(-10.579 -6.48 -11.648)" gradientUnits="userSpaceOnUse" spreadMethod="pad"><stop offset="0" style="stop-opacity:1;stop-color:#ed174c"/><stop offset="1" style="stop-opacity:1;stop-color:#fcaf16"/></linearGradient><linearGradient id="L" x1="0" x2="1" y1="0" y2="0" gradientTransform="scale(119.96366 -119.96366) rotate(-10.579 -6.46 -11.646)" gradientUnits="userSpaceOnUse" spreadMethod="pad"><stop offset="0" style="stop-opacity:1;stop-color:#ed174c"/><stop offset="1" style="stop-opacity:1;stop-color:#fcaf16"/></linearGradient><linearGradient id="M" x1="0" x2="1" y1="0" y2="0" gradientTransform="scale(119.89127 -119.89127) rotate(-10.579 -6.45 -11.655)" gradientUnits="userSpaceOnUse" spreadMethod="pad"><stop offset="0" style="stop-opacity:1;stop-color:#ed174c"/><stop offset="1" style="stop-opacity:1;stop-color:#fcaf16"/></linearGradient><linearGradient id="N" x1="0" x2="1" y1="0" y2="0" gradientTransform="scale(119.90762 -119.90762) rotate(-10.579 -6.435 -11.655)" gradientUnits="userSpaceOnUse" spreadMethod="pad"><stop offset="0" style="stop-opacity:1;stop-color:#ed174c"/><stop offset="1" style="stop-opacity:1;stop-color:#fcaf16"/></linearGradient><linearGradient id="O" x1="0" x2="1" y1="0" y2="0" gradientTransform="scale(119.93308 -119.93308) rotate(-10.579 -6.42 -11.653)" gradientUnits="userSpaceOnUse" spreadMethod="pad"><stop offset="0" style="stop-opacity:1;stop-color:#ed174c"/><stop offset="1" style="stop-opacity:1;stop-color:#fcaf16"/></linearGradient><linearGradient id="P" x1="0" x2="1" y1="0" y2="0" gradientTransform="scale(119.94433 -119.94433) rotate(-10.579 -6.405 -11.653)" gradientUnits="userSpaceOnUse" spreadMethod="pad"><stop offset="0" style="stop-opacity:1;stop-color:#ed174c"/><stop offset="1" style="stop-opacity:1;stop-color:#fcaf16"/></linearGradient><linearGradient id="Q" x1="0" x2="1" y1="0" y2="0" gradientTransform="scale(119.92525 -119.92525) rotate(-10.579 -6.395 -11.656)" gradientUnits="userSpaceOnUse" spreadMethod="pad"><stop offset="0" style="stop-opacity:1;stop-color:#ed174c"/><stop offset="1" style="stop-opacity:1;stop-color:#fcaf16"/></linearGradient><linearGradient id="R" x1="0" x2="1" y1="0" y2="0" gradientTransform="scale(119.92048 -119.92048) rotate(-10.579 -6.382 -11.658)" gradientUnits="userSpaceOnUse" spreadMethod="pad"><stop offset="0" style="stop-opacity:1;stop-color:#ed174c"/><stop offset="1" style="stop-opacity:1;stop-color:#fcaf16"/></linearGradient><linearGradient id="S" x1="0" x2="1" y1="0" y2="0" gradientTransform="scale(119.92819 -119.92819) rotate(-10.579 -6.367 -11.659)" gradientUnits="userSpaceOnUse" spreadMethod="pad"><stop offset="0" style="stop-opacity:1;stop-color:#ed174c"/><stop offset="1" style="stop-opacity:1;stop-color:#fcaf16"/></linearGradient><linearGradient id="T" x1="0" x2="1" y1="0" y2="0" gradientTransform="scale(119.92476 -119.92476) rotate(-10.579 -6.354 -11.66)" gradientUnits="userSpaceOnUse" spreadMethod="pad"><stop offset="0" style="stop-opacity:1;stop-color:#ed174c"/><stop offset="1" style="stop-opacity:1;stop-color:#fcaf16"/></linearGradient><linearGradient id="U" x1="0" x2="1" y1="0" y2="0" gradientTransform="scale(119.93243 -119.93243) rotate(-10.579 -6.34 -11.66)" gradientUnits="userSpaceOnUse" spreadMethod="pad"><stop offset="0" style="stop-opacity:1;stop-color:#ed174c"/><stop offset="1" style="stop-opacity:1;stop-color:#fcaf16"/></linearGradient><linearGradient id="V" x1="0" x2="1" y1="0" y2="0" gradientTransform="scale(119.92873 -119.92873) rotate(-10.579 -6.325 -11.662)" gradientUnits="userSpaceOnUse" spreadMethod="pad"><stop offset="0" style="stop-opacity:1;stop-color:#ed174c"/><stop offset="1" style="stop-opacity:1;stop-color:#fcaf16"/></linearGradient></defs><path d="m298.783 192.18 2.049-1.375 2.978 14.871-2.874 3.815z" style="fill:url(#a);stroke:none" transform="matrix(2.33462 0 0 -2.33462 -526.15 489.479)"/><path d="m303.644 191.137 2.388.556 1.097 4.443-1.23 1.161c-.127.131-.089.251.091.279l1.553.231 1.945 7.869-2.692 3.815z" style="fill:url(#b);stroke:none" transform="matrix(2.33462 0 0 -2.33462 -526.15 489.479)"/><path d="m310.076 197.954 2.412-1.21 2.6 8.932-2.526 3.815z" style="fill:url(#c);stroke:none" transform="matrix(2.33462 0 0 -2.33462 -526.15 489.479)"/><path d="m314.753 195.619 2.217-1.108 3.754 11.165-2.351 3.815z" style="fill:url(#d);stroke:none" transform="matrix(2.33462 0 0 -2.33462 -526.15 489.479)"/><path d="m319.639 194.648 2.729.569 3.999 10.459-2.174 3.815z" style="fill:url(#e);stroke:none" transform="matrix(2.33462 0 0 -2.33462 -526.15 489.479)"/><path d="M325.156 195.682c.743.066 1.661.09 2.579-.016l4.294 10.01-2.001 3.815z" style="fill:url(#f);stroke:none" transform="matrix(2.33462 0 0 -2.33462 -526.15 489.479)"/><path d="M330.052 195.012c.049-.026.107-.051.157-.077 2.012-1.161.542-2.243-.732-2.801l1.937.393 6.207 13.149-1.83 3.815z" style="fill:url(#g);stroke:none" transform="matrix(2.33462 0 0 -2.33462 -526.15 489.479)"/><path d="m334.381 193.135 2.683.542 6.219 11.999-1.654 3.815z" style="fill:url(#h);stroke:none" transform="matrix(2.33462 0 0 -2.33462 -526.15 489.479)"/><path d="m339.988 194.279 2.801.574 6.082 10.823-1.491 3.815z" style="fill:url(#i);stroke:none" transform="matrix(2.33462 0 0 -2.33462 -526.15 489.479)"/><path d="m345.755 195.458 2.938.598 5.859 9.62-1.309 3.815z" style="fill:url(#j);stroke:none" transform="matrix(2.33462 0 0 -2.33462 -526.15 489.479)"/><path d="m351.64 196.659 1.126.229-.002-.003 1.552.318 5.716 8.473-.952 3.815z" style="fill:url(#k);stroke:none" transform="matrix(2.33462 0 0 -2.33462 -526.15 489.479)"/><path d="m243.719 174.622 3.364-7.7h.523l-2.852 7.913z" style="fill:url(#l);stroke:none" transform="matrix(2.33462 0 0 -2.33462 -526.15 489.479)"/><path d="m240.646 176.773 1.097.171-11.249 28.732-5.125 3.815z" style="fill:url(#m);stroke:none" transform="matrix(2.33462 0 0 -2.33462 -526.15 489.479)"/><path d="m244.708 177.405 1.142.181-9.716 28.09-4.956 3.815z" style="fill:url(#n);stroke:none" transform="matrix(2.33462 0 0 -2.33462 -526.15 489.479)"/><path d="m248.822 178.045 1.194.186-8.245 27.445-4.779 3.815z" style="fill:url(#o);stroke:none" transform="matrix(2.33462 0 0 -2.33462 -526.15 489.479)"/><path d="m252.983 178.691 1.256.197-6.811 26.788-4.602 3.815z" style="fill:url(#p);stroke:none" transform="matrix(2.33462 0 0 -2.33462 -526.15 489.479)"/><path d="m257.21 179.349 1.309.204-5.453 26.123-4.427 3.815z" style="fill:url(#q);stroke:none" transform="matrix(2.33462 0 0 -2.33462 -526.15 489.479)"/><path d="m261.492 180.015 1.368.215-4.157 25.446-4.257 3.815z" style="fill:url(#r);stroke:none" transform="matrix(2.33462 0 0 -2.33462 -526.15 489.479)"/><path d="m265.835 180.694 1.427.221-2.918 24.761-4.085 3.815z" style="fill:url(#s);stroke:none" transform="matrix(2.33462 0 0 -2.33462 -526.15 489.479)"/><path d="m270.234 181.377 1.491.23-1.721 24.069-3.905 3.815z" style="fill:url(#t);stroke:none" transform="matrix(2.33462 0 0 -2.33462 -526.15 489.479)"/><path d="m274.698 182.07 1.552.244-.612 23.362-3.729 3.815z" style="fill:url(#u);stroke:none" transform="matrix(2.33462 0 0 -2.33462 -526.15 489.479)"/><path d="m279.222 182.775 1.619.252.422 22.649-3.564 3.815z" style="fill:url(#v);stroke:none" transform="matrix(2.33462 0 0 -2.33462 -526.15 489.479)"/><path d="m283.812 183.488 1.686.26 1.417 21.928-3.384 3.815z" style="fill:url(#w);stroke:none" transform="matrix(2.33462 0 0 -2.33462 -526.15 489.479)"/><path d="m288.466 184.214 1.752.272 2.333 21.19-3.213 3.815z" style="fill:url(#x);stroke:none" transform="matrix(2.33462 0 0 -2.33462 -526.15 489.479)"/><path d="m293.189 184.946 1.823.282.69 4.415-1.776 2.824c-.105.146-.055.301.115.354l2.242.534 1.926 12.321-3.033 3.815z" style="fill:url(#y);stroke:none" transform="matrix(2.33462 0 0 -2.33462 -526.15 489.479)"/><path d="m247.668 175.405 3.321-8.483h.519l-2.739 8.705z" style="fill:url(#z);stroke:none" transform="matrix(2.33462 0 0 -2.33462 -526.15 489.479)"/><path d="m251.673 176.224 3.205-9.302h.519l-2.558 9.54z" style="fill:url(#A);stroke:none" transform="matrix(2.33462 0 0 -2.33462 -526.15 489.479)"/><path d="m255.75 177.058 3.031-10.136h.519l-2.312 10.39z" style="fill:url(#B);stroke:none" transform="matrix(2.33462 0 0 -2.33462 -526.15 489.479)"/><path d="m259.9 177.91 2.779-10.988h.522l-1.99 11.255z" style="fill:url(#C);stroke:none" transform="matrix(2.33462 0 0 -2.33462 -526.15 489.479)"/><path d="m264.124 178.771 2.461-11.849h.515l-1.591 12.136z" style="fill:url(#D);stroke:none" transform="matrix(2.33462 0 0 -2.33462 -526.15 489.479)"/><path d="m268.421 179.654 2.051-12.732h.519l-1.102 13.029z" style="fill:url(#E);stroke:none" transform="matrix(2.33462 0 0 -2.33462 -526.15 489.479)"/><path d="m272.803 180.55 1.57-13.628h.52l-.544 13.944z" style="fill:url(#F);stroke:none" transform="matrix(2.33462 0 0 -2.33462 -526.15 489.479)"/><path d="m277.261 181.464 1.024-14.542h.522l.088 14.877z" style="fill:url(#G);stroke:none" transform="matrix(2.33462 0 0 -2.33462 -526.15 489.479)"/><path d="m281.803 182.392.373-15.47h.523l.827 15.819z" style="fill:url(#H);stroke:none" transform="matrix(2.33462 0 0 -2.33462 -526.15 489.479)"/><path d="m286.431 183.338-.35-16.416h.522l1.641 16.789z" style="fill:url(#I);stroke:none" transform="matrix(2.33462 0 0 -2.33462 -526.15 489.479)"/><path d="m292.951 184.674-1.8-.367-1.182-17.385h.519l2.566 17.771z" style="fill:url(#J);stroke:none" transform="matrix(2.33462 0 0 -2.33462 -526.15 489.479)"/><path d="m295.95 185.287-2.052-18.365h.518l3.533 18.773z" style="fill:url(#K);stroke:none" transform="matrix(2.33462 0 0 -2.33462 -526.15 489.479)"/><path d="m300.83 186.137-3.056-19.215h.522l4.626 19.635c-.772-.153-1.475-.301-2.092-.42" style="fill:url(#L);stroke:none" transform="matrix(2.33462 0 0 -2.33462 -526.15 489.479)"/><path d="m305.804 187.136-4.1-20.214h.52l5.767 20.66c-.752-.153-1.481-.305-2.187-.446" style="fill:url(#M);stroke:none" transform="matrix(2.33462 0 0 -2.33462 -526.15 489.479)"/><path d="m310.888 188.166-5.282-21.244h.519l7.055 21.708-2.292-.464" style="fill:url(#N);stroke:none" transform="matrix(2.33462 0 0 -2.33462 -526.15 489.479)"/><path d="m316.07 189.216-6.568-22.294h.521l8.45 22.785c-.783-.16-1.592-.324-2.403-.491" style="fill:url(#O);stroke:none" transform="matrix(2.33462 0 0 -2.33462 -526.15 489.479)"/><path d="m321.367 190.3-7.976-23.378h.519l9.978 23.897a478.64 478.64 0 0 0-2.521-.519" style="fill:url(#P);stroke:none" transform="matrix(2.33462 0 0 -2.33462 -526.15 489.479)"/><path d="M329.467 192.13a7.026 7.026 0 0 0-.787-.29c-.165-.048-.868-.201-1.931-.427l-9.431-24.491h.522l11.629 25.208z" style="fill:url(#Q);stroke:none" transform="matrix(2.33462 0 0 -2.33462 -526.15 489.479)"/><path d="m332.339 192.714-11.131-25.792h.522l13.384 26.361z" style="fill:url(#R);stroke:none" transform="matrix(2.33462 0 0 -2.33462 -526.15 489.479)"/><path d="m337.932 193.857-12.791-26.935h.519l15.179 27.531z" style="fill:url(#S);stroke:none" transform="matrix(2.33462 0 0 -2.33462 -526.15 489.479)"/><path d="m343.704 195.037-14.686-28.115h.52l17.207 28.735z" style="fill:url(#T);stroke:none" transform="matrix(2.33462 0 0 -2.33462 -526.15 489.479)"/><path d="m351.637 196.652.003.007-2.055-.423-16.682-29.314h.521l19.34 29.963z" style="fill:url(#U);stroke:none" transform="matrix(2.33462 0 0 -2.33462 -526.15 489.479)"/><path d="m355.568 197.463-18.757-30.541h.522l21.116 31.041z" style="fill:url(#V);stroke:none" transform="matrix(2.33462 0 0 -2.33462 -526.15 489.479)"/><path d="M436.162 206.013h8.722a.17.17 0 0 1 .169.147l.238 2.159a.057.057 0 0 1-.018.048l-.074.087a.074.074 0 0 1-.051.02h-9.506a.073.073 0 0 1-.053-.024l-.073-.098c-.016-.015-.018-.036-.013-.055l.597-2.235a.064.064 0 0 1 .062-.05M440.64 195.468c-1.754 0-3.182 1.457-3.182 3.245 0 1.792 1.428 3.252 3.182 3.252 1.755 0 3.18-1.46 3.18-3.252 0-1.788-1.425-3.245-3.18-3.245m6.9 3.245c0 1.223-.488 2.395-1.408 3.395l-.086.09h2.35c.015 0 .03.005.042.017l.075.062c.012.01.02.028.022.043l.243 2.185a.07.07 0 0 1-.018.052l-.074.082a.072.072 0 0 1-.048.02h-16.734c-.017 0-.036-.011-.05-.023l-.075-.096c-.012-.017-.017-.035-.01-.055l.601-2.24a.067.067 0 0 1 .064-.047h2.81l-.088-.09c-.92-1-1.406-2.172-1.406-3.395 0-3.11 3.092-5.653 6.89-5.653 3.803 0 6.9 2.543 6.9 5.653M447.074 183.27c-1.752 0-3.18 1.491-3.18 3.321 0 1.835 1.428 3.33 3.18 3.33 1.752 0 3.182-1.494 3.182-3.33 0-1.83-1.43-3.322-3.182-3.322m0 9.095c-3.801 0-6.891-2.588-6.891-5.773 0-3.18 3.09-5.772 6.89-5.772 3.809 0 6.9 2.592 6.9 5.773 0 3.184-3.091 5.772-6.9 5.772M474.077 183.155c-1.875 0-3.4 1.69-3.4 3.765 0 2.077 1.525 3.765 3.4 3.765 1.878 0 3.405-1.688 3.405-3.765 0-2.076-1.527-3.765-3.405-3.765m0 9.97c-3.944 0-7.155-2.782-7.155-6.205 0-3.426 3.21-6.212 7.155-6.212 3.944 0 7.153 2.786 7.153 6.212 0 3.423-3.21 6.205-7.153 6.205M422.641 184.265h-7.743v1.995h7.743zm2.814 7.831-3.175.373c-.094.011-.174.024-.248.024-.229 0-.38-.101-.489-.328-.116-.231-.218-.717.109-1.068.127-.14.279-.25.426-.363.315-.227.563-.409.563-.809v-1.28h-7.743v2.055a.943.943 0 0 1-.814.917l-3.032.359-.113.016c-.11.016-.199.031-.279.031-.229 0-.38-.108-.493-.331-.109-.212-.224-.707.116-1.08.117-.128.261-.233.404-.337.322-.228.575-.411.575-.833v-5.772c0-.31.027-.652.068-1.114.045-.503.158-1.108.338-1.799l.012-.051c.01-.03.034-.048.063-.048h1.807c.013 0 .025.002.036.009l.061.036c.012.005.02.015.024.026l.589 1.116h8.518l.279-.822c.007-.03.033-.042.063-.05l1.85.018c.022 0 .044.015.056.036l.019.031c.195.319.361.681.515 1.12.154.455.291.885.409 1.328.101.478.171.926.222 1.371.05.435.074.825.074 1.155v5.148a.95.95 0 0 1-.81.916M457.848 202.57h-3.545l-.026 5.767a.95.95 0 0 1-.816.916l-3.066.361-.14.02c-.096.013-.182.027-.262.027-.229 0-.383-.105-.503-.338-.109-.233-.209-.726.125-1.094.123-.138.274-.245.426-.355.323-.232.576-.415.576-.836v-9.636c0-.348.002-.679.006-.99l.002-.478c.013-.396.03-.798.054-1.242 0-.432.022-.854.06-1.256.034-.363.077-.797.147-1.404a.165.165 0 0 1 .166-.152h1.82c.016 0 .028.002.042.013l.068.051c.012.01.02.021.024.038l.07.252c.17.621.332 1.21.474 1.757.158.621.303 1.215.426 1.787.09.54.181 1.121.233 1.7.066.581.097 1.72.097 2.345v.365h3.542c.094 0 .17.075.17.167v2.047a.168.168 0 0 1-.17.167M486.875 197.18H474.62v4.326a.952.952 0 0 1-.813.92l-3.098.37-.117.017c-.097.013-.19.03-.273.03-.235 0-.392-.108-.505-.341-.118-.23-.22-.712.113-1.084a2.69 2.69 0 0 1 .427-.358c.32-.233.575-.42.575-.84v-3.04h-10.744a.072.072 0 0 1-.055-.022l-.07-.093a.069.069 0 0 1-.012-.061l.59-2.234a.064.064 0 0 1 .062-.046h26.175c.092 0 .17.07.17.163v2.127a.166.166 0 0 1-.17.166M501.944 196.994h-5.826v3.201h5.826zm-7.2-3.783.043.028c.006.002.009.006.014.009l.036.033c.193.312.39.743.587 1.285l.015.039h6.635l.031-.101c.02-.067.039-.129.059-.206.028-.152.072-.327.125-.545l.084-.199c.009-.024.041-.044.062-.037l1.839.017c.026 0 .046.013.058.032l.021.029c.195.318.368.688.516 1.107.134.404.279.834.411 1.302.113.451.202.9.264 1.335.063.455.094.831.094 1.14v7.984c0 .45-.365.858-.815.908l-3.105.363-.123.016c-.094.016-.19.029-.276.029-.23 0-.381-.104-.494-.331-.104-.214-.214-.711.118-1.079.125-.137.284-.246.438-.354.318-.215.592-.404.546-.814v-2.699h-5.809v2.689a.95.95 0 0 1-.814.92l-3.109.365-.113.013a2.106 2.106 0 0 1-.27.024c-.233 0-.39-.106-.501-.329-.108-.208-.224-.704.111-1.076.125-.136.284-.244.438-.35.32-.221.595-.407.549-.827l.026-7.814c0-.329.02-.702.058-1.079.029-.302.111-.859.335-1.736l.011-.049a.075.075 0 0 1 .066-.05h1.804c.012 0 .027.002.035.008M516.598 202.57h-3.775l-.027 5.767a.952.952 0 0 1-.818.916l-3.069.361-.123.017a1.901 1.901 0 0 1-.254.023c-.266 0-.41-.093-.528-.334-.13-.29-.176-.749.12-1.09.125-.136.277-.246.426-.352.327-.232.583-.417.583-.84v-8.878c0-.628.005-1.09.017-1.465.01-.47.021-.86.043-1.236 0-.45.02-.876.057-1.275l.121-1.126.03-.278a.17.17 0 0 1 .168-.15h1.824c.015 0 .028.004.041.011l.064.052c.015.01.02.021.027.035l.008.024a77.35 77.35 0 0 1 .866 3.396c.19.882.327 2.698.383 3.99l.002.05h3.814c.095 0 .171.075.171.167v2.047a.169.169 0 0 1-.17.167M572.689 184.086H559.58c-.306 0-.433.104-.433.36v5.006a.947.947 0 0 1-.813.916l-3.093.36-.111.013c-.093.013-.195.029-.284.029-.236 0-.392-.106-.506-.337-.108-.214-.223-.717.117-1.098a2.61 2.61 0 0 1 .42-.343c.326-.234.581-.42.581-.844v-4.005c0-.7.264-1.305.784-1.797a2.627 2.627 0 0 1 1.868-.74h14.579a.17.17 0 0 1 .166.172v2.14a.165.165 0 0 1-.166.168M575.842 201.284h-3.78l-.025 7.053a.95.95 0 0 1-.816.916l-3.066.361-.135.018c-.1.015-.188.03-.267.03-.228 0-.388-.108-.503-.339-.135-.289-.183-.75.12-1.094.125-.134.277-.245.426-.35.327-.233.585-.418.585-.84v-11.654h-8.934v4.224c-.002.446-.376.861-.83.915l-3.06.361-.119.017a2 2 0 0 1-.263.022c-.26 0-.404-.09-.52-.327-.11-.216-.228-.71.111-1.09.128-.14.282-.247.43-.359.324-.232.582-.416.582-.833v-2.93h-7.139c-.022 0-.038-.013-.05-.026l-.078-.096c-.01-.015-.014-.034-.01-.057l.588-2.24a.066.066 0 0 1 .065-.048h19.227l.005-.693.033-.734.015-.288c0-.392.024-.833.06-1.37.034-.403.07-.9.11-1.495l.042-.58a.17.17 0 0 1 .166-.157h1.817c.015 0 .028.005.041.013l.068.052c.011.008.018.02.023.035l.005.02c.407 1.393.727 2.691.951 3.87.23 1.208.347 2.464.347 3.732v3.58h3.778c.094 0 .168.075.168.167v2.047a.166.166 0 0 1-.168.167M400.518 198.236h-5.29l1.931 8.14c.098.415.021.803-.212 1.102-.234.301-.6.463-1.023.463h-18.368a.073.073 0 0 1-.053-.027l-.072-.089c-.012-.02-.017-.04-.012-.065l.595-2.225c.006-.029.031-.047.064-.047l14.46.01a.25.25 0 0 0 .2-.09.25.25 0 0 0 .057-.217l-.963-6.955H373.67a.073.073 0 0 1-.052-.024l-.073-.094c-.013-.016-.017-.038-.013-.059l.597-2.24a.065.065 0 0 1 .064-.048h11.013v-4.505h-7.376c-.022 0-.044-.01-.053-.029l-.075-.092c-.013-.019-.02-.039-.012-.059l.597-2.234c.006-.028.037-.048.067-.048h13.903a.312.312 0 0 0 .311-.314v-3.4c0-.538.023-1.134.062-1.782.034-.612.096-1.404.212-2.658a.165.165 0 0 1 .166-.15h1.721c.01 0 .02.001.031.007l.058.032c.01.007.02.013.023.022l.01.011c.19.307.368.706.53 1.185.15.447.284.935.426 1.53.127.596.217 1.13.284 1.641.072.56.111 1.027.111 1.42v3.328c0 .875-.715 1.59-1.589 1.59h-5.723v4.505h11.63c.091 0 .168.08.168.164v2.135a.17.17 0 0 1-.169.166M425.721 209.253l-3.062.36-.134.019a1.705 1.705 0 0 1-.27.029c-.223 0-.385-.107-.5-.341-.135-.29-.183-.75.12-1.09.127-.138.286-.25.421-.351.325-.23.58-.415.58-.841v-8.507l-.036-.013a31.108 31.108 0 0 0-3.643-1.04 33.085 33.085 0 0 0-3.504-.601 33.36 33.36 0 0 0-3.124-.283 62.257 62.257 0 0 0-2.63-.065c-.129 0-.26.028-.4.085-.075.03-.119.17-.119.378v2.502h9.497c.094 0 .166.072.166.165v2.21a.164.164 0 0 1-.166.165h-.866l.725 3.238c.093.412.011.804-.227 1.1-.238.298-.6.464-1.027.464h-12.96a.06.06 0 0 1-.054-.03l-.072-.092c-.014-.015-.019-.038-.014-.06l.6-2.233c.01-.028.035-.05.064-.05h9.524c.081 0 .151-.03.202-.087a.292.292 0 0 0 .062-.213l-.262-2.037h-9.249c-.347 0-.715-.06-.81-.5a.93.93 0 0 1 .364-.96c.11-.084.22-.158.32-.22.277-.178.458-.294.494-.652v-2.96c0-1.215.26-2.026.803-2.495.54-.448 1.368-.668 2.535-.668.76 0 1.68.047 2.811.13a35.57 35.57 0 0 1 3.446.44c1.17.178 2.458.468 3.83.84 1.247.35 2.488.782 3.696 1.285l.072.029.005-.074c.008-.12.036-.437.036-.437l.008-.074c.007-.114.02-.244.026-.387.036-.447.08-1.044.13-1.76l.027-.332a.168.168 0 0 1 .164-.164h1.816c.013 0 .03.006.04.016l.068.05c.01.012.02.02.025.036l.005.023c.404 1.383.721 2.688.955 3.873.231 1.255.337 2.368.337 3.61l-.027 7.654a.951.951 0 0 1-.818.916" style="fill:#58595b;fill-opacity:1;fill-rule:nonzero;stroke:none" transform="matrix(2.33462 0 0 -2.33462 -526.15 489.479)"/><path d="M464.38 205.733h14.955a.27.27 0 0 0 .202-.088.264.264 0 0 0 .056-.213l-1.052-7.155-.008-.03a.064.064 0 0 1 .018-.053l.074-.084c.012-.018.03-.024.051-.024h2.717c.012 0 .03.004.041.014l.07.053a.07.07 0 0 1 .022.036l2.235 8.45c.111.41.046.8-.18 1.095-.229.3-.59.46-1.014.46h-18.71a.07.07 0 0 1-.055-.025l-.072-.094c-.014-.02-.019-.039-.014-.058l.6-2.235a.066.066 0 0 1 .064-.049M510.548 191.557h-15.724a.07.07 0 0 1-.052-.025l-.075-.095a.083.083 0 0 1-.012-.061l.592-2.242c.012-.026.037-.048.068-.048h13.297a.312.312 0 0 0 .312-.312v-4.001c0-.563.02-1.09.058-1.617.044-.606.116-1.457.21-2.502a.166.166 0 0 1 .166-.154h1.725c.01 0 .025 0 .032.008l.043.024c.005.003.01.007.014.008l.036.033c.188.293.364.669.523 1.117.163.446.315.929.455 1.433.11.465.207.952.301 1.524.084.513.125.977.125 1.386v3.426a2.1 2.1 0 0 1-2.094 2.098M527.852 206.084h9.653a.278.278 0 0 0 .28-.305l-.329-3.744h-9.327zm-4.433 1.034c.111-.089.22-.157.328-.232.298-.192.493-.315.496-.822l.44-4.615c.041-.504.115-1.033.224-1.572.132-.667.257-1.187.414-1.693l.011-.05c.007-.026.037-.045.066-.045h1.783c.015 0 .026.003.038.009l.066.044c.011.01.018.018.023.034l.01.02c.094.254.202.492.315.7.102.168.191.37.265.577l.015.036h13.773c.09 0 .164.074.164.167v2.194a.163.163 0 0 1-.164.165h-.828l.754 4.957c.062.417-.044.818-.3 1.114-.259.302-.635.465-1.06.465h-16.385c-.245 0-.7 0-.814-.496a.925.925 0 0 1 .366-.957M546.174 197.448h-27.198a.069.069 0 0 1-.053-.025l-.074-.095c-.013-.016-.018-.039-.013-.06l.588-2.183a.07.07 0 0 1 .067-.053h11.661v-.85c0-.539.055-.974.137-1.46l.01-.065h-7.569a.073.073 0 0 1-.054-.027l-.07-.092a.068.068 0 0 1-.014-.058l.59-2.25a.069.069 0 0 1 .065-.053H537.1a.275.275 0 0 0 .21-.09.283.283 0 0 0 .071-.213l-.137-1.572h-12.587c-.35 0-.708-.037-.809-.48-.043-.17-.094-.606.361-.964.115-.093.23-.164.322-.224.301-.192.501-.323.501-.82l.007-1.988c0-.685.246-1.286.733-1.79.471-.49 1.12-.74 1.927-.74h14.132c.094 0 .168.072.168.165v2.1a.165.165 0 0 1-.168.167h-12.662c-.257 0-.334.056-.355.086-.054.073-.077.17-.077.311v1.747h12.793c.096 0 .168.078.168.17v2.095a.165.165 0 0 1-.168.165h-.915l.684 2.795c.102.414.031.803-.204 1.101-.232.296-.595.46-1.019.46h-5.57l.047.08c.13.238.202.455.233.698.041.35.064.76.064 1.26v.336h11.325c.094 0 .17.08.17.168v2.078c0 .096-.076.17-.17.17M551.282 204.53h10.332a.249.249 0 0 0 .202-.088.26.26 0 0 0 .063-.212l-.97-7.148-.003-.033a.047.047 0 0 1 .015-.05l.072-.088a.078.078 0 0 1 .05-.023h2.588c.014 0 .03.006.043.016l.067.053a.097.097 0 0 1 .027.036l2.132 8.447c.104.411.034.802-.194 1.098-.232.298-.593.456-1.02.456H550.76a.077.077 0 0 1-.053-.023l-.072-.093a.067.067 0 0 1-.012-.057l.597-2.24a.062.062 0 0 1 .062-.05M380.843 169.15h-.02l-3.529 5.526h-1.116v-7.784h1.184v5.53h.023l3.526-5.53h1.115v7.784h-1.183zM385.266 169.677l1.128 3.407h.023l1.13-3.407zm.647 5-2.835-7.784h1.246l.601 1.74h2.958l.602-1.74h1.25l-2.836 7.784zM389.164 173.632h2.135v-6.74h1.183v6.74h2.135v1.045h-5.453zM395.917 166.893h1.185v7.784h-1.185zM410.275 169.15h-.026l-3.521 5.526h-1.12v-7.784h1.185v5.53h.02l3.527-5.53h1.115v7.784h-1.18zM414.822 169.677l1.126 3.407h.02l1.13-3.407zm.645 5-2.838-7.784h1.247l.606 1.74h2.955l.603-1.74h1.246l-2.833 7.784zM421.522 174.677h-1.182v-7.784h4.977v1.117h-3.795zM430.995 169.677l1.13 3.407h.02l1.129-3.407zm.647 5-2.835-7.784h1.247l.6 1.74h2.957l.602-1.74h1.249l-2.835 7.784zM437.904 168.857h-.021l-1.774 5.82h-1.25l2.576-7.785h.922l2.57 7.784h-1.247zM442.342 166.893h1.184v7.784h-1.184zM446.768 169.677l1.126 3.407h.021l1.13-3.407zm.647 5-2.839-7.784h1.251l.601 1.74h2.953l.605-1.74h1.25l-2.836 7.784zM451.04 173.632h2.133v-6.74h1.183v6.74h2.138v1.045h-5.454zM457.918 166.893h1.179v7.784h-1.179zM472.274 169.15h-.023l-3.524 5.526h-1.117v-7.784h1.182v5.53h.02l3.527-5.53h1.117v7.784h-1.182zM481.143 169.602l-2.238 5.075h-1.115v-7.784h1.182v4.852h.025l1.628-3.735h.987l1.63 3.735h.021v-4.852h1.185v7.784h-1.117zM500.055 166.893h4.98v1.117h-3.8v2.283h3.238v1.054h-3.239v2.216h3.8v1.114h-4.979zM517.075 169.602l-2.235 5.075h-1.115v-7.784h1.182v4.852h.022l1.629-3.735h.989l1.627 3.735h.022v-4.852h1.182v7.784h-1.115zM531.614 166.893h1.185v3.325h3.237v1.044h-3.237v2.3h3.794v1.115h-4.98zM543.999 171.614l2.496 3.063h-1.4l-3.231-3.873v3.873h-1.181v-7.785h1.18v2.376l1.37 1.424 2.123-3.8h1.404zM561.455 166.893h4.982v1.117h-3.8v2.283h3.244v1.054h-3.244v2.216h3.8v1.114h-4.982zM569.515 169.677l1.126 3.407h.021l1.13-3.407zm1.63 5h-.985l-2.835-7.784h1.247l.601 1.74h2.958l.602-1.74h1.25zM403.057 169.555c0-.865-.71-1.57-1.578-1.57-.872 0-1.579.705-1.579 1.57v2.456a1.58 1.58 0 0 0 1.58 1.57c.867 0 1.577-.711 1.577-1.57zm-1.578 5.182a2.75 2.75 0 0 1-2.742-2.734v-2.442a2.749 2.749 0 0 1 2.742-2.733 2.746 2.746 0 0 1 2.738 2.733v2.442c0 1.5-1.232 2.734-2.738 2.734M464.92 169.555a1.578 1.578 0 0 0-3.158 0v2.456c0 .859.712 1.57 1.578 1.57.87 0 1.58-.711 1.58-1.57zm-1.58 5.182a2.748 2.748 0 0 1-2.74-2.734v-2.442a2.748 2.748 0 0 1 2.74-2.733 2.748 2.748 0 0 1 2.741 2.733v2.442c0 1.5-1.234 2.734-2.74 2.734M528.813 169.555a1.58 1.58 0 0 0-3.16 0v2.456a1.58 1.58 0 0 0 3.16 0zm-1.577 5.182h-.002a2.75 2.75 0 0 1-2.744-2.734v-2.442c0-1.5 1.237-2.733 2.744-2.733h.002a2.746 2.746 0 0 1 2.737 2.733v2.442c0 1.5-1.232 2.734-2.737 2.734M551.758 169.555c0-.865-.708-1.57-1.579-1.57-.87 0-1.578.705-1.578 1.57v2.456a1.58 1.58 0 0 0 1.578 1.57c.871 0 1.58-.711 1.58-1.57zm-1.579 5.182a2.748 2.748 0 0 1-2.74-2.734v-2.442a2.748 2.748 0 0 1 2.74-2.733 2.746 2.746 0 0 1 2.74 2.733v2.442c0 1.5-1.233 2.734-2.74 2.734M557.467 171.23h-1.852v2.402h1.852a1.202 1.202 0 1 0 0-2.401m.878-.91a2.24 2.24 0 0 1 1.5 2.11 2.25 2.25 0 0 1-2.253 2.246h-3.158v-7.784h1.181v3.325h1.41l1.713-3.325h1.4zM490.498 174.677v-5.245c0-.805-.697-1.465-1.562-1.465-.864 0-1.562.66-1.562 1.465v5.245h-1.208v-5.245c0-1.432 1.242-2.604 2.77-2.604 1.53 0 2.77 1.172 2.77 2.604v5.245zM510.801 174.677v-5.245c0-.805-.703-1.465-1.564-1.465-.865 0-1.565.66-1.565 1.465v5.245h-1.206v-5.245c0-1.432 1.24-2.604 2.771-2.604 1.528 0 2.767 1.172 2.767 2.604v5.245zM497.574 172.96l.657.989s-1.054.72-2.36.793c-1.301.077-2.403-.578-2.646-1.693-.246-1.111.243-2.182 1.213-2.55.97-.366 2.04-.266 2.472-.597.423-.325.664-1.34-.368-1.772-1.043-.44-2.531.246-3.02.646l-.776-.878s1.03-1.08 2.859-1.07c1.826.007 2.354.666 2.707 1.417.36.76.082 2.362-1.142 2.855-1.226.506-2.597.15-2.804 1.165-.22 1.078 1.057 1.918 3.208.696" style="fill:#58595b;fill-opacity:1;fill-rule:nonzero;stroke:none" transform="matrix(2.33462 0 0 -2.33462 -526.15 489.479)"/></svg>