<svg xmlns="http://www.w3.org/2000/svg" xml:space="preserve" width="490.25677" height="200" viewBox="0 0 490.25677 200"><path d="M594.877 414.505h5.882v84.375h-5.882zM616.616 452.949l-4.88 3.015a.82.82 0 0 0-.407.727.82.82 0 0 0 .408.728l4.879 3.015 6.054-3.743zm85.51 45.93h-11.188l-62.671-38.73-6.055 3.743 56.612 34.987h-11.193l-51.015-31.53-4.88 3.015a.82.82 0 0 0-.407.728.82.82 0 0 0 .408.727l43.786 27.06h-11.194l-35.686-22.053a6.71 6.71 0 0 1-3.201-5.734c0-2.351 1.2-4.496 3.201-5.73l2.376-1.47-2.376-1.471a6.695 6.695 0 0 1-3.201-5.73 6.71 6.71 0 0 1 3.201-5.734l2.376-1.466-2.376-1.47a6.695 6.695 0 0 1-3.201-5.73 6.71 6.71 0 0 1 3.201-5.734l35.686-22.053h11.194l-43.786 27.06a.82.82 0 0 0-.408.727.82.82 0 0 0 .408.728l4.879 3.015 51.015-31.53h11.193l-56.612 34.987 6.055 3.743 62.666-38.73h11.193l-68.263 42.187zM527.026 426.063c-.083-.123-.24-.099-.315-.025l-4.101 5.887 42.684 61.28c.762 1.1 1.992.968 2.405.84.433-.133 1.13-.634 1.13-1.534v-6.438zm-15.674 0-.02-.025c-.088-.084-.24-.084-.314.025l-41.804 60.01v6.433c0 .9.698 1.402 1.126 1.534.413.128 1.643.261 2.41-.84l42.684-61.275zm-48.394 68.99c-4.701 6.453-14.582 6.414-19.357 0l-48.119-69.074a.202.202 0 0 0-.334 0l-49.668 71.293c-1.52 2.183-4.274 3.108-6.841 2.301-2.553-.801-4.205-3.02-4.205-5.656v-79.412h5.887l-.025 79.117c0 .246.315.345.458.143l49.564-71.15c1.126-1.623 2.995-2.587 4.997-2.587 1.997 0 3.865.964 4.992 2.587l49.56 71.14c.132.197.437.099.437-.138v-79.112h5.887v79.147c0 .25.325.354.467.147l6.67-9.575v-69.719h5.886v61.27l36.974-53.076a6.09 6.09 0 0 1 5.002-2.592c1.997 0 3.86.969 4.987 2.587l2.848 4.082 2.547-3.66.295-.422a6.071 6.071 0 0 1 4.987-2.587 6.09 6.09 0 0 1 5.002 2.592l36.974 53.085v-61.279h5.882v69.729l6.708 9.63c.133.186.433.093.433-.138v-79.221h5.882v78.744c0 3.457-1.682 5.882-4.505 6.477-4.254.914-6.811-2.754-7.652-3.964l-1.068-1.535c-.6 2.464-2.488 4.446-5.144 5.277-3.374 1.058-6.954-.128-8.907-2.94l-41.44-59.49-41.44 59.48c-1.947 2.818-5.527 4.003-8.906 2.945-2.65-.83-4.534-2.813-5.14-5.277zM479.74 380.875h-3.689v10.304h-5.685V351.08h5.685v25.845h3.689V351.08h5.685v40.098h-5.685zM445.298 381.19h22.633v3.95h-22.633zM587.654 371.5h16.874v-2.926h-14.095v-3.95h28.19v-2.823h-28.19v-8.1a2.62 2.62 0 0 1 2.621-2.621h31.83v3.95h-28.77v2.822h28.195v8.095a2.627 2.627 0 0 1-2.631 2.627h-11.464v2.926h16.874v3.949h-39.434zM596.569 387.224h21.605v-5.528H596.57zm-3.054-9.477h30.344v10.8c0 1.451-1.18 2.632-2.63 2.632h-30.345v-10.806a2.627 2.627 0 0 1 2.63-2.626M430.721 355.03h-20.676v5.327h20.676zm0 21.32c-1.918-.555-4.052-.89-5.774-.9h-18.806v3.91h16.583v9.192a2.626 2.626 0 0 1-2.626 2.627h-19.643v-3.955h16.589v-3.91h-16.589v-9.186a2.63 2.63 0 0 1 2.631-2.627h22.151c1.653 0 3.758.28 5.484.758v-7.948h-20.68v4.49h-5.68v-15.093a2.626 2.626 0 0 1 2.625-2.627h26.79a2.631 2.631 0 0 1 2.63 2.632v37.466h-5.685zM669.5 385.143v6.034h-5.686v-17.356c-1.918-.56-4.057-.895-5.784-.905h-.285c.428 1.667.669 3.63.674 5.194v10.436a2.631 2.631 0 0 1-2.631 2.631h-21.384v-3.954h18.33V378.4c0-1.638-.31-3.644-.822-5.484h-5.424v8.44h-5.686v-8.44h-7.613v-3.949h25.131c1.658 0 3.773.28 5.494.762v-14.7h-19.825v9.895h-5.685v-11.213a2.631 2.631 0 0 1 2.631-2.631h25.933a2.627 2.627 0 0 1 2.631 2.626v27.487h6.35v3.95zM513.177 354.102c-4.628 0-8.38 2.532-8.38 5.655s3.752 5.656 8.38 5.656c4.628 0 8.38-2.533 8.38-5.656 0-3.123-3.752-5.655-8.38-5.655m14.06 37.077h-5.68v-23.504c-2.346 1.22-5.238 1.953-8.38 1.953-7.766 0-14.061-4.416-14.061-9.87 0-5.455 6.295-9.871 14.06-9.871 7.742 0 14.017 4.387 14.062 9.816v13.909h6.349v3.949h-6.35v5.302h6.35v3.949h-6.35zM558.887 374.526H546.91v6.669h11.976zm5.685-1.328v17.98h-5.685v-6.034H546.91v6.035h-5.685v-17.981a2.626 2.626 0 0 1 2.626-2.626h18.094a2.626 2.626 0 0 1 2.626 2.626" style="fill:#1d1d1b;fill-opacity:1;fill-rule:nonzero;stroke:none;stroke-width:4.91809" transform="matrix(1.33333 0 0 -1.33333 -445.912 666.516)"/><path d="M576.502 391.177h-5.685v-24.276h-26.75v-3.954h26.75V351.08h5.685v30.113h6.35v3.95h-6.35zM496.898 381.85c0 3.344 2.887 6.054 6.452 6.054 3.566 0 6.453-2.71 6.453-6.054 0-3.344-2.887-6.054-6.453-6.054-3.565 0-6.452 2.71-6.452 6.054m18.59 0c0 5.646-5.434 10.22-12.138 10.22-6.703 0-12.137-4.574-12.137-10.22 0-5.646 5.434-10.22 12.137-10.22 6.704 0 12.138 4.574 12.138 10.22M456.885 363.674c-2.832 0-5.13 2.764-5.13 6.177s2.298 6.177 5.13 6.177c2.833 0 5.13-2.764 5.13-6.177s-2.297-6.177-5.13-6.177m0 16.303c-5.975 0-10.815-4.534-10.815-10.126s4.84-10.127 10.815-10.127c5.976 0 10.815 4.535 10.815 10.127 0 5.592-4.84 10.126-10.815 10.126M463.312 387.217l.01 3.964h-6.748c-1.746 0-3.915.344-5.847.91l-.9-3.817c1.834-.664 4.475-1.052 6.457-1.057zM386.894 381.672v6.876a2.627 2.627 0 0 1-2.631 2.626h-30.34v-3.95h27.286v-5.261c-.005-1.638-.31-3.645-.822-5.484H351.14v-3.95h15.924v-5.714h-13.14v-3.95h28.19v-11.788h5.685v13.112a2.626 2.626 0 0 1-2.626 2.626H372.75v5.715h17.818v3.949h-4.353c.428 1.667.674 3.63.68 5.193" style="fill:#1d1d1b;fill-opacity:1;fill-rule:nonzero;stroke:none;stroke-width:4.91809" transform="matrix(1.33333 0 0 -1.33333 -445.912 666.516)"/></svg>