<svg xmlns="http://www.w3.org/2000/svg" xml:space="preserve" width="1156.4038" height="500" viewBox="0 0 1156.4038 500"><defs><clipPath id="a" clipPathUnits="userSpaceOnUse"><path d="M0 595.28h841.89V0H0Z"/></clipPath><clipPath id="b" clipPathUnits="userSpaceOnUse"><path d="M465.118 367.613c-.093-.034-.179-.059-.255-.11 15.321 4.714 30.834 4.391 40.042-9.06 6.754-9.892 4.545-28.076-26.623-36.865-27.597-7.832-64.364-12.305-87.887-11.494-3.029.123-2.91-.968.038-1.699 30.132-7.505 73.206-10.712 99.457-6.057 34.061 6.032 61.034 23.99 68.662 47.212-11.145 15.059-32.668 23.643-57.669 23.643-11.415 0-23.556-1.79-35.765-5.57"/></clipPath><clipPath id="d" clipPathUnits="userSpaceOnUse"><path d="M441.914 394.959c-31.832-17.105-53.702-29.52-60.138-32.846-14.705-8.22-27.919-15.856-47.755-24.518-22.725-9.918-34.592-14.394-57.745-19.114-16.478-3.368-30.969-3.457-42.379-.492-35.56 9.298-51.557 28.816-71.945 51.617l-50.598 11.26c31.322-44.171 66.411-79.01 90.763-91.836 35.603-18.788 61.097-17.029 106.317 1.715 22.019 9.714 90.303 45.793 105.301 53.422 12.348 6.298 29.674 14.811 42.535 20.214a84.606 84.606 0 0 0 8.593 3.122c.076.051.162.076.255.11 38.947 12.059 77.2 3.862 93.434-18.073 2.986 9.106 3.011 19.046-.744 29.372-7.48 20.711-30.886 30.852-57.919 30.853-18.954 0-39.69-4.985-57.975-14.806"/></clipPath><clipPath id="f" clipPathUnits="userSpaceOnUse"><path d="M77.255 436.194c10.22-19.381 21.88-38.066 34.099-55.328l50.598-11.26c-.37.399-.726.828-1.135 1.24-5.721 6.588-1.023 6.978 4.766 4.579C239.856 347.519 308 352.993 338.91 356.119c2.902.26 1.495 2.077-1.525 2.707-106.062 22.248-167.775 46.009-251.597 86.021-1.956 1.004-3.665 1.444-5.09 1.444-4.781 0-6.372-4.945-3.443-10.097"/></clipPath><linearGradient id="c" x1="0" x2="1" y1="0" y2="0" gradientTransform="scale(125.62284 -125.62284) rotate(-41.074 -1.391 -5.852)" gradientUnits="userSpaceOnUse" spreadMethod="pad"><stop offset="0" style="stop-opacity:1;stop-color:#fbb03f"/><stop offset="1" style="stop-opacity:1;stop-color:#ef4130"/></linearGradient><linearGradient id="e" x1="0" x2="1" y1="0" y2="0" gradientTransform="scale(389.02423 -389.02423) rotate(-1.909 -25.69 -13.165)" gradientUnits="userSpaceOnUse" spreadMethod="pad"><stop offset="0" style="stop-opacity:1;stop-color:#00c0f3"/><stop offset="0.618058" style="stop-opacity:1;stop-color:#0066ab"/><stop offset="1" style="stop-opacity:1;stop-color:#25408a"/></linearGradient><linearGradient id="g" x1="0" x2="1" y1="0" y2="0" gradientTransform="scale(170.50763 -170.50763) rotate(7.352 18.788 6.32)" gradientUnits="userSpaceOnUse" spreadMethod="pad"><stop offset="0" style="stop-opacity:1;stop-color:#00c0f3"/><stop offset="1" style="stop-opacity:1;stop-color:#00a76d"/></linearGradient></defs><g clip-path="url(#a)" transform="matrix(1.67343 0 0 -1.67343 -126.817 746.838)"><path d="M0 0c-1.143 2.357-2.298 4.74-3.491 7.136 0 .072-.056.272-.2.531-.111.271-.234.522-.293.649V-4.825c0-.344 0-.714.017-1.147 0-.399.004-.777.029-1.117h-2.939c.03.459.03.951.06 1.461.012.539.012 1.049.012 1.551V9.464c0 .479 0 .973-.012 1.482-.03.501-.03 1.04-.06 1.495h3.78l6.669-13.75c.081-.212.161-.437.281-.662.085-.229.208-.441.293-.683V9.464c0 .479 0 .973-.008 1.482 0 .501-.039 1.04-.06 1.495H7a24.458 24.458 0 0 1-.047-1.643V-6.192c0-.273.013-.591.047-.897H3.518C2.319-4.711 1.16-2.345 0 0" style="fill:#58595b;fill-opacity:1;fill-rule:nonzero;stroke:none" transform="translate(325.169 154.929)"/><path d="m0 0-2.761 8.958L-5.547 0Zm.837-2.625h-7.179l-1.533-4.851h-2.978l6.41 19.531h3.402L5.356-7.476H2.392Z" style="fill:#58595b;fill-opacity:1;fill-rule:nonzero;stroke:none" transform="translate(345.876 155.315)"/><path d="M0 0c0-.502.017-.947.017-1.385.012-.437.038-.994.072-1.627h-3.041c.051.42.076.909.076 1.452.025.548.025 1.058.025 1.56v13.843H-6.66c-.238 0-.519 0-.812-.013a47.679 47.679 0 0 1-.841-.052v2.829c.093 0 .238-.029.417-.029.165-.021.361-.021.535-.021.195-.009.382-.038.573-.038H4.298c.187.029.37.038.565.038.208 0 .374.021.582.05v-2.829l-1.274.052c-.412.013-.808.013-1.181.013H0Z" style="fill:#58595b;fill-opacity:1;fill-rule:nonzero;stroke:none" transform="translate(360.356 150.852)"/><path d="M0 0c0-.441.009-.765.051-1.002h-3.012c.034.459.06.951.068 1.461v16.574c-.008.501-.034 1.04-.068 1.495H.051c0-.089-.042-.242-.042-.433v-.57c-.013-.212-.013-.424-.013-.589V1.041C-.004.765-.004.425 0 0" style="fill:#58595b;fill-opacity:1;fill-rule:nonzero;stroke:none" transform="translate(372.258 148.842)"/><path d="M0 0c0-.82.085-1.645.226-2.549.157-.846.416-1.678.781-2.37a5.458 5.458 0 0 1 1.486-1.793c.642-.454 1.423-.705 2.396-.705.943 0 1.699.217 2.319.65.616.4 1.135.977 1.504 1.682.391.68.667 1.47.828 2.37.161.88.255 1.788.255 2.715 0 .837-.094 1.682-.242 2.591a8.545 8.545 0 0 1-.803 2.366c-.387.713-.871 1.295-1.504 1.758-.624.468-1.401.697-2.357.697-.913 0-1.691-.229-2.298-.688-.646-.416-1.125-.973-1.487-1.653-.403-.696-.667-1.482-.849-2.37C.098 1.801 0 .896 0 0m-2.85 0c0 1.329.162 2.591.471 3.822.315 1.19.79 2.251 1.432 3.216a7.48 7.48 0 0 0 2.413 2.23c.96.531 2.106.828 3.423.828 1.274 0 2.382-.276 3.33-.79a7.012 7.012 0 0 0 2.438-2.201c.655-.913 1.143-1.987 1.474-3.198.323-1.231.48-2.531.48-3.907 0-1.279-.128-2.549-.442-3.747a9.477 9.477 0 0 0-1.401-3.207c-.642-.964-1.419-1.716-2.405-2.289-.972-.57-2.135-.862-3.474-.862-1.274 0-2.396.28-3.334.802-.982.544-1.767 1.275-2.426 2.188-.666.93-1.163 2.001-1.495 3.198A15.38 15.38 0 0 0-2.85 0" style="fill:#58595b;fill-opacity:1;fill-rule:nonzero;stroke:none" transform="translate(379.224 157.61)"/><path d="M0 0c-1.164 2.357-2.328 4.74-3.5 7.136 0 .072-.047.272-.174.531-.137.271-.251.522-.319.649V-4.825c0-.344.009-.714.009-1.147.008-.399.008-.777.025-1.117h-2.922c.017.459.038.951.051 1.461.009.539.025 1.049.025 1.551V9.464c0 .479-.016.973-.025 1.482-.013.501-.034 1.04-.051 1.495h3.772l6.66-13.75c.094-.212.17-.437.289-.662.098-.229.199-.441.297-.683V9.464c0 .479-.008.973-.008 1.482-.022.501-.022 1.04-.065 1.495h2.919c-.021-.493-.046-1.053-.046-1.643V-6.192c0-.273.025-.591.046-.897H3.509C2.319-4.711 1.172-2.345 0 0" style="fill:#58595b;fill-opacity:1;fill-rule:nonzero;stroke:none" transform="translate(402.275 154.929)"/><path d="m0 0-2.752 8.958L-5.59 0Zm.812-2.625h-7.158l-1.533-4.851h-2.952l6.367 19.531h3.398L5.335-7.476H2.379Z" style="fill:#58595b;fill-opacity:1;fill-rule:nonzero;stroke:none" transform="translate(422.986 155.315)"/><path d="M0 0c.255 0 .548.013.841.013.332 0 .641.034.934.085v-2.871c-.271.038-.568.05-.849.081H-8.729c.035.459.069.951.085 1.461.013.539.022 1.048.022 1.55V13.86a34.62 34.62 0 0 1-.107 2.978h2.965c-.029-.34-.038-.727-.076-1.164V0Z" style="fill:#58595b;fill-opacity:1;fill-rule:nonzero;stroke:none" transform="translate(439.807 150.532)"/><path d="M0 0c0-.82.085-1.645.226-2.549.165-.846.411-1.678.802-2.37a4.947 4.947 0 0 1 1.474-1.793c.62-.454 1.423-.705 2.408-.705.913 0 1.682.217 2.302.65a4.4 4.4 0 0 1 1.496 1.682c.378.68.684 1.47.854 2.37a16.975 16.975 0 0 1 0 5.306 8.61 8.61 0 0 1-.803 2.366 5.353 5.353 0 0 1-1.5 1.758c-.646.468-1.436.697-2.349.697-.947 0-1.694-.229-2.314-.688-.625-.416-1.117-.973-1.495-1.653-.4-.696-.667-1.482-.842-2.37C.085 1.801 0 .896 0 0m-2.863 0c.009 1.329.175 2.591.48 3.822A10.43 10.43 0 0 0-.956 7.038c.638.926 1.444 1.652 2.413 2.23.969.531 2.099.828 3.453.828 1.244 0 2.361-.276 3.326-.79a7.236 7.236 0 0 0 2.434-2.201 10.422 10.422 0 0 0 1.457-3.198c.344-1.231.501-2.531.501-3.907a15.85 15.85 0 0 0-.45-3.747c-.315-1.206-.786-2.28-1.407-3.207a7.095 7.095 0 0 0-2.39-2.289c-.973-.57-2.133-.862-3.471-.862-1.296 0-2.408.28-3.381.802a7.74 7.74 0 0 0-2.4 2.188 9.827 9.827 0 0 0-1.49 3.198c-.345 1.22-.502 2.54-.502 3.917" style="fill:#58595b;fill-opacity:1;fill-rule:nonzero;stroke:none" transform="translate(453.208 157.61)"/><path d="M0 0a8.89 8.89 0 0 1-1.891.998 5.309 5.309 0 0 1-1.788.327c-.942 0-1.817-.2-2.587-.565-.781-.404-1.435-.909-1.978-1.589-.544-.658-.956-1.436-1.241-2.323a9.359 9.359 0 0 1-.446-2.906c0-1.019.14-1.966.408-2.883.285-.906.663-1.683 1.207-2.358a5.976 5.976 0 0 1 1.945-1.605c.768-.387 1.678-.6 2.692-.6.616 0 1.271.09 2.005.302a6.27 6.27 0 0 1 2.001.947l.145-3.117a7.8 7.8 0 0 0-2.252-.685 13.123 13.123 0 0 0-2.031-.135c-1.303 0-2.513.242-3.605.73a7.73 7.73 0 0 0-2.838 2.048c-.794.883-1.419 1.915-1.869 3.173-.445 1.249-.671 2.629-.671 4.183 0 1.474.204 2.833.625 4.066a8.84 8.84 0 0 0 1.788 3.189 7.515 7.515 0 0 0 2.812 2.065c1.121.501 2.374.747 3.758.747.723 0 1.398-.064 2.023-.178.615-.119 1.304-.361 2.034-.743z" style="fill:#58595b;fill-opacity:1;fill-rule:nonzero;stroke:none" transform="translate(481.62 163.696)"/><path d="M0 0h6.58c.17 0 .416.013.692.013.276 0 .518.034.688.085v-2.871c-.87.05-1.652.081-2.357.081h-8.457c.034.437.064.909.064 1.486.017.557.017 1.079.017 1.525v14.042c0 .434 0 .841-.03 1.262-.017.412-.038.828-.081 1.215h9.417c.161 0 .391 0 .624.029.298.009.523.03.71.06v-2.829c-.319.017-.718.034-1.198.051-.48.013-.897.013-1.257.013H0V8.771h5.892c.186 0 .403 0 .65.047.288 0 .505.026.687.038V5.985c-.853.068-1.626.102-2.31.102H0Z" style="fill:#58595b;fill-opacity:1;fill-rule:nonzero;stroke:none" transform="translate(488.722 150.532)"/><path d="m0 0-2.74 8.958L-5.543 0Zm.837-2.625h-7.179l-1.533-4.851h-2.965l6.375 19.531h3.42L5.339-7.476H2.374Z" style="fill:#58595b;fill-opacity:1;fill-rule:nonzero;stroke:none" transform="translate(509.812 155.315)"/><path d="M0 0c-1.155 2.357-2.328 4.74-3.496 7.136 0 .072-.064.272-.204.531a4.777 4.777 0 0 1-.306.649V-4.825c0-.344 0-.714.013-1.147 0-.399.009-.777.034-1.117h-2.927c.026.459.043.951.043 1.461.008.539.017 1.049.017 1.551V9.464c0 .479-.009.973-.017 1.482 0 .501-.017 1.04-.043 1.495h3.764l6.669-13.75c.08-.212.182-.437.284-.662.085-.229.187-.441.285-.683v13.6c0 .501-.039 1.04-.047 1.495h2.927a19.252 19.252 0 0 1-.064-1.643V-6.192c0-.273.021-.591.064-.897H3.482A2821.93 2821.93 0 0 1 0 0" style="fill:#58595b;fill-opacity:1;fill-rule:nonzero;stroke:none" transform="translate(525.077 154.929)"/><path d="M0 0c-.773.336-1.44.548-1.967.71a7.364 7.364 0 0 1-1.762.229c-.383 0-.761-.059-1.173-.127A3.085 3.085 0 0 1-5.989.399a2.628 2.628 0 0 1-.828-.743c-.201-.297-.302-.688-.302-1.142 0-.387.101-.731.302-1.041.195-.285.488-.608.806-.854a9.704 9.704 0 0 1 1.202-.756c.493-.233.969-.506 1.517-.756.501-.301 1.058-.612 1.593-.939A6.698 6.698 0 0 0-.26-7.017c.404-.446.727-.96 1.016-1.55.267-.603.39-1.3.39-2.098 0-1.066-.225-1.976-.59-2.731a5.161 5.161 0 0 0-1.563-1.819 6.017 6.017 0 0 0-2.285-1.027 10.784 10.784 0 0 0-2.697-.336c-.651 0-1.318.085-2.005.293-.689.182-1.376.39-2.073.629l.37 2.884c.233-.119.522-.247.853-.374.331-.119.688-.234 1.058-.344.382-.119.76-.242 1.117-.293.361-.055.709-.107 1.002-.107.442 0 .858.06 1.313.154.467.119.879.284 1.278.539.391.221.731.54.999.892.255.4.378.879.378 1.483 0 .432-.103.841-.319 1.197a3.935 3.935 0 0 1-.849.943c-.353.272-.723.565-1.173.765-.446.237-.862.454-1.274.684-.565.276-1.096.59-1.661.918a7.486 7.486 0 0 0-1.5 1.171A5.8 5.8 0 0 0-9.57-3.657c-.272.574-.404 1.194-.404 1.912 0 .866.153 1.643.472 2.327.34.663.777 1.211 1.333 1.661.54.459 1.194.812 1.933 1.024.739.229 1.55.356 2.391.356.6 0 1.322-.063 2.074-.178.764-.119 1.499-.31 2.208-.569z" style="fill:#58595b;fill-opacity:1;fill-rule:nonzero;stroke:none" transform="translate(553.34 164.082)"/><path d="M0 0a8.308 8.308 0 0 1-1.886.998 5.116 5.116 0 0 1-1.788.327c-.934 0-1.818-.2-2.591-.565-.769-.404-1.44-.909-1.971-1.589a6.863 6.863 0 0 1-1.241-2.323 9.27 9.27 0 0 1-.441-2.906c0-1.019.145-1.966.416-2.883a6.653 6.653 0 0 1 1.193-2.358 5.484 5.484 0 0 1 1.963-1.605c.74-.387 1.665-.6 2.672-.6.62 0 1.287.09 2 .302a6.084 6.084 0 0 1 2.014.947l.132-3.117a7.81 7.81 0 0 0-2.26-.685 12.962 12.962 0 0 0-2.009-.135c-1.296 0-2.536.242-3.628.73a7.587 7.587 0 0 0-2.816 2.048c-.798.883-1.423 1.915-1.881 3.173-.425 1.249-.659 2.629-.659 4.183 0 1.474.2 2.833.629 4.066a8.774 8.774 0 0 0 1.784 3.189c.743.892 1.69 1.584 2.811 2.065 1.118.501 2.367.747 3.76.747.713 0 1.385-.064 2-.178.633-.119 1.305-.361 2.026-.743z" style="fill:#58595b;fill-opacity:1;fill-rule:nonzero;stroke:none" transform="translate(570.02 163.696)"/><path d="M0 0c.009-.441.043-.765.043-1.002h-2.99c.038.459.051.951.063 1.461 0 .539.009 1.049.009 1.551v13.541c0 .479-.009.972-.009 1.482-.012.501-.025 1.04-.063 1.495h2.99v-.433c-.034-.187-.034-.395-.034-.57a14.483 14.483 0 0 1-.013-.589V1.041C-.004.765-.004.425 0 0" style="fill:#58595b;fill-opacity:1;fill-rule:nonzero;stroke:none" transform="translate(577.084 148.842)"/><path d="M0 0h6.546c.191 0 .412.013.692.013.284 0 .535.034.709.085v-2.871c-.87.05-1.652.081-2.344.081h-8.487c.043.437.043.909.069 1.486 0 .557.029 1.079.029 1.525v14.042c0 .434-.029.841-.055 1.262 0 .412-.013.828-.052 1.215H6.49c.166 0 .374 0 .667.029.277.009.497.03.689.06v-2.829c-.324.017-.74.034-1.19.051-.501.013-.896.013-1.253.013H0V8.771h5.866c.187 0 .4 0 .667.047.264 0 .492.026.667.038V5.985c-.853.068-1.618.102-2.281.102H0Z" style="fill:#58595b;fill-opacity:1;fill-rule:nonzero;stroke:none" transform="translate(584.62 150.532)"/><path d="M0 0c-1.138 2.357-2.318 4.74-3.491 7.136 0 .072-.055.272-.183.531a4.881 4.881 0 0 1-.327.649V-4.825c0-.344 0-.714.03-1.147.008-.399.008-.777.03-1.117h-2.94c.056.459.064.951.064 1.461v16.574c0 .501-.008 1.04-.064 1.495h3.789l6.648-13.75c.089-.212.208-.437.284-.662.094-.229.209-.441.298-.683v13.6c0 .501-.031 1.04-.081 1.495h2.935a32.113 32.113 0 0 1-.051-1.643V-6.192c0-.273.026-.591.051-.897H3.513C2.341-4.711 1.177-2.345 0 0" style="fill:#58595b;fill-opacity:1;fill-rule:nonzero;stroke:none" transform="translate(603.347 154.929)"/><path d="M0 0a9.028 9.028 0 0 1-1.89.998 5.216 5.216 0 0 1-1.797.327A5.89 5.89 0 0 1-6.248.76C-7.034.356-7.692-.149-8.253-.829a7.605 7.605 0 0 1-1.244-2.323 9.727 9.727 0 0 1-.438-2.906c0-1.019.119-1.966.412-2.883a6.983 6.983 0 0 1 1.194-2.358 5.85 5.85 0 0 1 1.971-1.605c.759-.387 1.652-.6 2.671-.6a7.1 7.1 0 0 1 2.013.302 6.18 6.18 0 0 1 2.001.947l.107-3.117a7.248 7.248 0 0 0-2.24-.685 12.742 12.742 0 0 0-1.991-.135c-1.317 0-2.519.242-3.64.73-1.114.472-2.022 1.155-2.821 2.048a9.436 9.436 0 0 0-1.869 3.173c-.441 1.249-.649 2.629-.649 4.183 0 1.474.208 2.833.598 4.066a8.95 8.95 0 0 0 1.806 3.189 7.408 7.408 0 0 0 2.795 2.065c1.125.501 2.399.747 3.78.747.709 0 1.363-.064 1.991-.178.629-.119 1.309-.361 2.039-.743z" style="fill:#58595b;fill-opacity:1;fill-rule:nonzero;stroke:none" transform="translate(626.955 163.696)"/><path d="M0 0h6.537c.23 0 .442.013.714.013.293 0 .53.034.726.085v-2.871c-.875.05-1.673.081-2.353.081h-8.478c.03.437.059.909.059 1.486.004.557.004 1.079.004 1.525v14.042c0 .434-.004.841-.004 1.262-.029.412-.059.828-.081 1.215h9.4c.149 0 .378 0 .667.029.272.009.476.03.684.06v-2.829c-.331.017-.739.034-1.215.051-.472.013-.891.013-1.253.013H0V8.771h5.896c.182 0 .395 0 .632.047.277 0 .501.026.689.038V5.985a28.82 28.82 0 0 1-2.281.102H0Z" style="fill:#58595b;fill-opacity:1;fill-rule:nonzero;stroke:none" transform="translate(633.773 150.532)"/><path d="M0 0c.09-.255.162-.54.226-.803.076-.272.152-.569.195-.841.11.348.225.744.327 1.168.123.425.221.786.289 1.1L5.076 14h4.359a5.993 5.993 0 0 1-.069-1.045V-4.52c0-.377.013-.713.069-1.01H6.499c.025.459.047.951.047 1.486.013.548.013 1.023.013 1.525v12.564l-.37-1.351L1.853-5.53H-1.02l-4.778 15.652V-4.52c.018-.377.018-.713.077-1.01h-2.977c.025.459.051.951.093 1.486 0 .548.008 1.023.008 1.525v13.541c0 .438-.008.905-.008 1.36 0 .445-.051.998-.093 1.618h4.391z" style="fill:#58595b;fill-opacity:1;fill-rule:nonzero;stroke:none" transform="translate(660.621 153.37)"/><path d="M0 0c.132-.76.361-1.401.688-1.933a3.075 3.075 0 0 1 1.249-1.206c.501-.255 1.16-.408 1.945-.408.79 0 1.415.132 1.941.4.523.259.935.65 1.266 1.142A6.09 6.09 0 0 1 7.752-.06c.123.778.204 1.67.204 2.698v7.956c0 .513-.018 1.032-.018 1.542 0 .501-.021 1.04-.084 1.495h2.956a23.203 23.203 0 0 1-.051-1.665v-9.74c0-2.837-.577-4.944-1.75-6.359C7.828-5.53 6.15-6.235 3.882-6.235c-2.251 0-3.954.705-5.122 2.102-1.173 1.415-1.759 3.522-1.759 6.359v8.368c0 .513-.009 1.032-.009 1.542-.013.501-.038 1.04-.071 1.495h2.947c0-.34-.025-.727-.025-1.164-.03-.421-.03-.812-.03-1.121V2.638C-.187 1.661-.115.765 0 0" style="fill:#58595b;fill-opacity:1;fill-rule:nonzero;stroke:none" transform="translate(677.314 153.74)"/><path d="M0 0a17.27 17.27 0 0 1-1.941.71 7.694 7.694 0 0 1-1.767.229c-.369 0-.769-.059-1.173-.127A3.148 3.148 0 0 1-5.964.399a2.307 2.307 0 0 1-.823-.743c-.209-.297-.319-.688-.319-1.142 0-.387.093-.731.301-1.041.213-.285.485-.608.816-.854.336-.246.73-.501 1.202-.756.493-.233.985-.506 1.52-.756a82.544 82.544 0 0 0 1.585-.939A7.358 7.358 0 0 0-.229-7.017c.412-.446.722-.96.998-1.55.247-.603.399-1.3.399-2.098 0-1.066-.217-1.976-.586-2.731-.399-.74-.909-1.36-1.58-1.819a5.944 5.944 0 0 0-2.269-1.027 10.819 10.819 0 0 0-2.697-.336c-.628 0-1.304.085-2.017.293a28.01 28.01 0 0 0-2.051.629l.347 2.884c.239-.119.523-.247.863-.374.34-.119.667-.234 1.049-.344.382-.119.76-.242 1.109-.293a7.057 7.057 0 0 1 1.045-.107c.403 0 .832.06 1.316.154.442.119.871.284 1.266.539.374.221.705.54.96.892.289.4.412.879.412 1.483 0 .432-.114.841-.336 1.197-.221.349-.518.658-.849.943-.336.272-.735.565-1.169.765-.424.237-.862.454-1.291.684-.535.276-1.086.59-1.652.918-.544.339-1.07.725-1.499 1.171a5.732 5.732 0 0 0-1.083 1.487 4.256 4.256 0 0 0-.434 1.912c0 .866.162 1.643.51 2.327a4.876 4.876 0 0 0 1.304 1.661 5.244 5.244 0 0 0 1.95 1.024 8.34 8.34 0 0 0 2.412.356c.608 0 1.283-.063 2.065-.178.739-.119 1.491-.31 2.187-.569z" style="fill:#58595b;fill-opacity:1;fill-rule:nonzero;stroke:none" transform="translate(701.938 164.082)"/><path d="M0 0h6.562c.162 0 .417.013.689.013.284 0 .514.034.718.085v-2.871a42.89 42.89 0 0 1-2.366.081h-8.461c.025.437.042.909.054 1.486.013.557.013 1.079.013 1.525v14.042c0 .434-.013.841-.025 1.262-.017.412-.042.828-.089 1.215H6.49c.17 0 .396 0 .671.029.276.009.51.03.693.06v-2.829c-.328.017-.726.034-1.194.051-.497.013-.9.013-1.249.013H0V8.771h5.883c.175 0 .383 0 .65.047.276 0 .471.026.696.038V5.985c-.853.068-1.63.102-2.306.102H0Z" style="fill:#58595b;fill-opacity:1;fill-rule:nonzero;stroke:none" transform="translate(709.727 150.532)"/><path d="M0 0c.123-.76.34-1.401.667-1.933a3.276 3.276 0 0 1 1.245-1.206c.514-.255 1.159-.408 1.979-.408.748 0 1.397.132 1.916.4.518.259.96.65 1.27 1.142.306.54.523 1.173.666 1.945.124.778.196 1.67.196 2.698v7.956c0 .513 0 1.032-.013 1.542 0 .501-.017 1.04-.059 1.495h2.931c-.034-.531-.034-1.105-.034-1.665v-9.74c0-2.837-.617-4.944-1.746-6.359C7.824-5.53 6.13-6.235 3.891-6.235c-2.246 0-3.98.705-5.173 2.102-1.135 1.415-1.721 3.522-1.721 6.359v8.368c0 .513 0 1.032-.034 1.542 0 .501-.021 1.04-.042 1.495h2.934c-.029-.34-.029-.727-.038-1.164 0-.421-.012-.812-.012-1.121V2.638C-.195 1.661-.127.765 0 0" style="fill:#58595b;fill-opacity:1;fill-rule:nonzero;stroke:none" transform="translate(724.47 153.74)"/><path d="M0 0c.08-.255.152-.54.225-.803.076-.272.131-.569.204-.841.101.348.212.744.309 1.168.112.425.217.786.32 1.1L5.071 14h4.341a6.475 6.475 0 0 1-.076-1.045V-4.52c0-.377.025-.713.076-1.01H6.478c.038.459.063.951.063 1.486v14.089l-.37-1.351L1.826-5.53h-2.854l-4.804 15.652V-3.53c0-.293.013-.637.013-.99 0-.377.038-.713.067-1.01h-2.947c.038.459.063.951.085 1.486 0 .548.008 1.023.008 1.525v13.541c0 .438 0 .905-.008 1.36 0 .445-.022.998-.085 1.618h4.387z" style="fill:#58595b;fill-opacity:1;fill-rule:nonzero;stroke:none" transform="translate(748.356 153.37)"/><path d="M0 0c1.61 5.611 2.634 11.503 2.795 17.518.03 1.987 0 3.814-.161 5.87l-.013.466h-40.063v-6.243h31.734v-.319c-.021-5.95-.587-11.867-2.332-17.627l-.043-.094h-39.515v-6.222h26.042V-17.41h-16.017v-6.236H-6.4v-16.939h8.672v23.175H-12.84v10.759h25.77v6.222H-.131Z" style="fill:#58595b;fill-opacity:1;fill-rule:nonzero;stroke:none" transform="translate(355.845 223.862)"/><path d="M0 0h-26.335v6.427h21.162v18.294h-29.865v-6.243h21.187v-5.799h-21.187V-6.257H0Z" style="fill:#58595b;fill-opacity:1;fill-rule:nonzero;stroke:none" transform="translate(411.31 222.996)"/><path d="M398.741 197.74h20.163v-6.958h-20.163zm20.163 6.214h-20.163v5.552h-8.69V184.53h37.544v24.976h-8.691zM418.904 216.549h8.69v33.657h-8.69zM463.211 249.127h-18.392v-6.23h18.392z" style="fill:#58595b;fill-opacity:1;fill-rule:nonzero;stroke:none"/><path d="M0 0c-4.104 0-7.412 3.326-7.412 7.442 0 4.057 3.308 7.395 7.412 7.395 4.086 0 7.403-3.338 7.403-7.395C7.403 3.326 4.086 0 0 0m-17.271 19.684h8.436l-.705-.578c-3.529-2.876-5.564-7.144-5.564-11.664C-15.104-.908-8.338-7.696 0-7.696c8.313 0 15.092 6.788 15.092 15.138 0 4.52-2.039 8.81-5.565 11.664l-.73.578h6.418v6.235h-32.486z" style="fill:#58595b;fill-opacity:1;fill-rule:nonzero;stroke:none" transform="translate(454.8 212.852)"/><path d="M0 0h-8.143v-37.999H0v9.901h9.281v6.232H0v7.471h9.281v6.249H0Z" style="fill:#58595b;fill-opacity:1;fill-rule:nonzero;stroke:none" transform="translate(554.814 249.076)"/><path d="M0 0h-5.572v19.984h-8.147v-54.631h8.147v28.399H0v-29.453h8.135v56.764H0Z" style="fill:#58595b;fill-opacity:1;fill-rule:nonzero;stroke:none" transform="translate(487.18 229.143)"/><path d="M0 0c-4.736 0-8.567 3.865-8.567 8.575 0 4.728 3.831 8.598 8.567 8.598 4.724 0 8.567-3.87 8.567-8.598C8.567 3.865 4.724 0 0 0m16.808 8.575c0 9.285-7.552 16.813-16.808 16.813-9.269 0-16.808-7.528-16.808-16.813C-16.808-.688-9.269-8.202 0-8.202c9.256 0 16.808 7.514 16.808 16.777" style="fill:#58595b;fill-opacity:1;fill-rule:nonzero;stroke:none" transform="translate(519.938 223.32)"/><path d="M0 0c-4.455 0-8.112 3.483-8.112 7.735 0 4.265 3.657 7.744 8.112 7.744 4.473 0 8.113-3.479 8.113-7.744C8.113 3.483 4.473 0 0 0m0 23.116c-8.933 0-16.17-6.907-16.17-15.381C-16.17-.73-8.933-7.62 0-7.62c8.916 0 16.166 6.89 16.166 15.355 0 8.474-7.25 15.381-16.166 15.381" style="fill:#58595b;fill-opacity:1;fill-rule:nonzero;stroke:none" transform="translate(536.528 189.398)"/><path d="M0 0h29.674v-16.867h8.69V6.24H0Z" style="fill:#58595b;fill-opacity:1;fill-rule:nonzero;stroke:none" transform="translate(651.94 200.148)"/><path d="M0 0h-8.16v-57.47H0v28.051h9.2v6.223H0Z" style="fill:#58595b;fill-opacity:1;fill-rule:nonzero;stroke:none" transform="translate(622.249 250.206)"/><path d="M0 0h-8.143v-16.706h-11.43v-6.257h41.061v6.257H0Z" style="fill:#58595b;fill-opacity:1;fill-rule:nonzero;stroke:none" transform="translate(589.232 228.255)"/><path d="M0 0v21.063h-8.144v-46.039H0v18.728h9.217V0Z" style="fill:#58595b;fill-opacity:1;fill-rule:nonzero;stroke:none" transform="translate(757.602 229.143)"/><path d="M0 0h-22.023v14.854h-8.11V0h-10.925v-6.262H0Z" style="fill:#58595b;fill-opacity:1;fill-rule:nonzero;stroke:none" transform="translate(745.017 216.549)"/><path d="M665.918 250.206h-18.422v-6.239h18.422z" style="fill:#58595b;fill-opacity:1;fill-rule:nonzero;stroke:none"/><path d="M0 0h-8.155v-39.12H0v17.504h9.357v6.236H0Z" style="fill:#58595b;fill-opacity:1;fill-rule:nonzero;stroke:none" transform="translate(690.384 250.206)"/><path d="M0 0c-4.188 0-7.6 3.228-7.6 7.221 0 4.001 3.412 7.224 7.6 7.224 4.18 0 7.59-3.223 7.59-7.224C7.59 3.228 4.18 0 0 0m15.486 7.221c0 3.053-.96 5.98-2.837 8.465l-.37.509h6.427v6.241h-39.477v-6.241h8.469l-.36-.509c-1.848-2.485-2.82-5.412-2.82-8.465 0-8.11 6.94-14.698 15.482-14.698 8.542 0 15.486 6.588 15.486 14.698" style="fill:#58595b;fill-opacity:1;fill-rule:nonzero;stroke:none" transform="translate(657.479 218.201)"/><path d="M0 0c-.407-7.021-1.087-14.081-2.319-20.962l-.093-.599h7.828l.076.409C6.771-14.152 7.79-7.021 8.236.06c.132 1.949.234 3.92.289 6.018l.03.51h-30.638V.361H0Z" style="fill:#58595b;fill-opacity:1;fill-rule:nonzero;stroke:none" transform="translate(597.218 240.059)"/><path d="M0 0h-8.687v-19.301h38.178v6.252H0Z" style="fill:#58595b;fill-opacity:1;fill-rule:nonzero;stroke:none" transform="translate(728.26 203.831)"/><path d="M0 0c-.098-6.286-.743-12.59-2.014-18.711l-.135-.582h7.721l.077.383C7.06-12.738 8.002-6.363 8.282.017c0 0 .052 1.214.077 1.55.055 1.508.055 3.016.055 4.524l-.008.488h-30.353V.336H.013z" style="fill:#58595b;fill-opacity:1;fill-rule:nonzero;stroke:none" transform="translate(731.089 241.223)"/></g><g clip-path="url(#b)" transform="matrix(1.67343 0 0 -1.67343 -126.817 746.838)"><path d="M465.118 367.613c-.093-.034-.179-.059-.255-.11 15.321 4.714 30.834 4.391 40.042-9.06 6.754-9.892 4.545-28.076-26.623-36.865-27.597-7.832-64.364-12.305-87.887-11.494-3.029.123-2.91-.968.038-1.699 30.132-7.505 73.206-10.712 99.457-6.057 34.061 6.032 61.034 23.99 68.662 47.212-11.145 15.059-32.668 23.643-57.669 23.643-11.415 0-23.556-1.79-35.765-5.57" style="fill:url(#c);stroke:none"/></g><g clip-path="url(#d)" transform="matrix(1.67343 0 0 -1.67343 -126.817 746.838)"><path d="M441.914 394.959c-31.832-17.105-53.702-29.52-60.138-32.846-14.705-8.22-27.919-15.856-47.755-24.518-22.725-9.918-34.592-14.394-57.745-19.114-16.478-3.368-30.969-3.457-42.379-.492-35.56 9.298-51.557 28.816-71.945 51.617l-50.598 11.26c31.322-44.171 66.411-79.01 90.763-91.836 35.603-18.788 61.097-17.029 106.317 1.715 22.019 9.714 90.303 45.793 105.301 53.422 12.348 6.298 29.674 14.811 42.535 20.214a84.606 84.606 0 0 0 8.593 3.122c.076.051.162.076.255.11 38.947 12.059 77.2 3.862 93.434-18.073 2.986 9.106 3.011 19.046-.744 29.372-7.48 20.711-30.886 30.852-57.919 30.853-18.954 0-39.69-4.985-57.975-14.806" style="fill:url(#e);stroke:none"/></g><g clip-path="url(#f)" transform="matrix(1.67343 0 0 -1.67343 -126.817 746.838)"><path d="M77.255 436.194c10.22-19.381 21.88-38.066 34.099-55.328l50.598-11.26c-.37.399-.726.828-1.135 1.24-5.721 6.588-1.023 6.978 4.766 4.579C239.856 347.519 308 352.993 338.91 356.119c2.902.26 1.495 2.077-1.525 2.707-106.062 22.248-167.775 46.009-251.597 86.021-1.956 1.004-3.665 1.444-5.09 1.444-4.781 0-6.372-4.945-3.443-10.097" style="fill:url(#g);stroke:none"/></g></svg>