<svg xmlns="http://www.w3.org/2000/svg" width="204.56734mm" height="204.56734mm" viewBox="0 0 204.56734 204.56734"><defs><clipPath id="a" clipPathUnits="userSpaceOnUse"><path d="M231.642 445.854c0-44.044 35.709-79.746 79.747-79.746 44.039 0 79.747 35.702 79.747 79.746 0 44.041-35.708 79.743-79.747 79.743-44.038 0-79.747-35.702-79.747-79.743"/></clipPath><clipPath id="b" clipPathUnits="userSpaceOnUse"><path d="M0 841.89h595.276V0H0Z"/></clipPath></defs><g transform="translate(31.68 -46.033)"><circle cx="70.603539" cy="148.3167" r="102.28367" style="fill:#fff;stroke-width:.1"/><g style="stroke-width:.407916"><g clip-path="url(#a)" style="stroke-width:.407916" transform="matrix(.86483 0 0 -.86483 -199.035 533.79)"><g style="stroke-width:.407916"><path d="M0 0a.583.583 0 0 0 0-.851l-1.289-1.245a.58.58 0 0 0-.846.033l-11.777 13.035c.443.385.855.787 1.258 1.208zm-34.736 41.141-6.193 12.176a.39.39 0 0 0 .178.543l.945.448a.407.407 0 0 0 .538-.198l5.67-12.416a22.947 22.947 0 0 1-1.138-.553" style="fill:#b3b3a7;fill-opacity:1;fill-rule:nonzero;stroke:none;stroke-width:.407916" transform="translate(336.943 421.583)"/></g><g style="stroke-width:.407916"><path d="m0 0-5.766 18.094a43.885 43.885 0 0 1-1.629-.552L-1.027-.35C-.68-.224-.348-.106 0 0" style="fill:#d37fa7;fill-opacity:1;fill-rule:nonzero;stroke:none;stroke-width:.407916" transform="translate(305.402 464.049)"/></g><g style="stroke-width:.407916"><path d="m0 0-14.142 12.688a78.246 78.246 0 0 1-1.107-1.257L-.862-.967c.277.33.561.647.862.967" style="fill:#d37fa7;fill-opacity:1;fill-rule:nonzero;stroke:none;stroke-width:.407916" transform="translate(297.415 459.066)"/></g><g style="stroke-width:.407916"><path d="M0 0a.408.408 0 0 1-.577-.035l-.997-1.119a.408.408 0 0 1 .032-.575l20.935-18.034c.376.45.759.886 1.163 1.324z" style="fill:#d37fa7;fill-opacity:1;fill-rule:nonzero;stroke:none;stroke-width:.407916" transform="translate(259.38 493.191)"/></g><g style="stroke-width:.407916"><path d="m0 0 17.633 7.079a32.604 32.604 0 0 1-.783 1.907L-.637 1.566C-.4 1.058-.186.538 0 0" style="fill:#d37fa7;fill-opacity:1;fill-rule:nonzero;stroke:none;stroke-width:.407916" transform="translate(328.217 452.626)"/></g><g style="stroke-width:.407916"><path d="M0 0a.611.611 0 0 1-.807.32l-50.396-21.384c.281-.655.55-1.319.807-1.999L.432-2.665c.312.118.47.486.336.79z" style="fill:#d37fa7;fill-opacity:1;fill-rule:nonzero;stroke:none;stroke-width:.407916" transform="translate(400.414 484.433)"/></g><g style="stroke-width:.407916"><path d="M0 0a.417.417 0 0 1-.49-.313l-.348-1.702a.407.407 0 0 1 .316-.474l19.464-3.638c.119.619.246 1.228.38 1.836z" style="fill:#d37fa7;fill-opacity:1;fill-rule:nonzero;stroke:none;stroke-width:.407916" transform="translate(250.608 459.99)"/></g><g style="stroke-width:.407916"><path d="m0 0-18.547 4.12a33.252 33.252 0 0 1-.348-1.684L-.214-1.052C-.15-.698-.079-.343 0 0" style="fill:#d37fa7;fill-opacity:1;fill-rule:nonzero;stroke:none;stroke-width:.407916" transform="translate(292.867 450.602)"/></g><g style="stroke-width:.407916"><path d="m0 0 4.248 18.517c-.467.115-.941.206-1.424.306L-.925.195C-.616.14-.308.071 0 0" style="fill:#d37fa7;fill-opacity:1;fill-rule:nonzero;stroke:none;stroke-width:.407916" transform="translate(315.201 464.346)"/></g><g style="stroke-width:.407916"><path d="M0 0a.398.398 0 0 1-.304.49l-1.017.218a.406.406 0 0 1-.475-.314L-3.819-9.649a38.87 38.87 0 0 0 1.537-.325z" style="fill:#d37fa7;fill-opacity:1;fill-rule:nonzero;stroke:none;stroke-width:.407916" transform="translate(322.74 497.216)"/></g><g style="stroke-width:.407916"><path d="m0 0-16.15-9.999c.249-.411.509-.809.775-1.208L.51-.791C.328-.528.162-.269 0 0" style="fill:#d37fa7;fill-opacity:1;fill-rule:nonzero;stroke:none;stroke-width:.407916" transform="translate(295.03 436.867)"/></g><g style="stroke-width:.407916"><path d="M0 0a.393.393 0 0 1-.126-.56l.561-.878a.406.406 0 0 1 .562-.116l9.277 6.084c-.285.429-.569.868-.838 1.307Z" style="fill:#d37fa7;fill-opacity:1;fill-rule:nonzero;stroke:none;stroke-width:.407916" transform="translate(265.627 418.666)"/></g><g style="stroke-width:.407916"><path d="m0 0-.063 28.748a.412.412 0 0 1-.412.403l-1.036-.018a.411.411 0 0 1-.403-.413l.633-28.74c.398.01.799.024 1.201.024C-.08.004-.031 0 0 0" style="fill:#d37fa7;fill-opacity:1;fill-rule:nonzero;stroke:none;stroke-width:.407916" transform="translate(310.97 488.356)"/></g><g style="stroke-width:.407916"><path d="m0 0-.047 19.002h-.096c-.363 0-.734-.008-1.098-.016L-.822-.008c.269 0 .538.014.822.008" style="fill:#d37fa7;fill-opacity:1;fill-rule:nonzero;stroke:none;stroke-width:.407916" transform="translate(311.033 464.863)"/></g><g style="stroke-width:.407916"><path d="M0 0a.398.398 0 0 1-.569.069l-.799-.654a.394.394 0 0 1-.064-.573l7.744-9.323c.395.33.798.65 1.202.966z" style="fill:#d37fa7;fill-opacity:1;fill-rule:nonzero;stroke:none;stroke-width:.407916" transform="translate(277.546 489)"/></g><g style="stroke-width:.407916"><path d="m0 0-11.761 14.917c-.364-.297-.744-.592-1.1-.896L-.72-.591c.23.205.474.402.72.591" style="fill:#d37fa7;fill-opacity:1;fill-rule:nonzero;stroke:none;stroke-width:.407916" transform="translate(299.59 461.04)"/></g><g style="stroke-width:.407916"><path d="M0 0c-.356-.214-.704-.446-1.044-.67L9.681-15.937Z" style="fill:#b3b3a7;fill-opacity:1;fill-rule:nonzero;stroke:none;stroke-width:.407916" transform="translate(291.19 478.293)"/></g><g style="stroke-width:.407916"><path d="m0 0 13.698 12.065c.17.147.419.128.573-.042l.676-.796a.392.392 0 0 0-.054-.566L.743-.886C.506-.581.261-.29 0 0m-28.703-1.629-13.84 10.464a.38.38 0 0 0-.08.571l.926 1.184c.15.184.403.204.569.063L-27.69-.34a15.304 15.304 0 0 1-1.013-1.289m-2.942-6.379-14.03 3.618a.587.587 0 0 0-.412.736l.372 1.289a.597.597 0 0 0 .759.399l13.762-4.486a20.607 20.607 0 0 1-.451-1.556" style="fill:#b3b3a7;fill-opacity:1;fill-rule:nonzero;stroke:none;stroke-width:.407916" transform="translate(324.543 458.772)"/></g><g style="stroke-width:.407916"><path d="m0 0-7.641-17.39c.87-.403 1.748-.769 2.642-1.101L2.04-.838C1.344-.595.656-.316 0 0" style="fill:#d37fa7;fill-opacity:1;fill-rule:nonzero;stroke:none;stroke-width:.407916" transform="translate(302.793 429.79)"/></g><g style="stroke-width:.407916"><path d="M0 0a.617.617 0 0 1 .324-.797l2.31-.959c.3-.134.664.019.791.33l7.537 18.894c-.949.351-1.866.745-2.784 1.166z" style="fill:#d37fa7;fill-opacity:1;fill-rule:nonzero;stroke:none;stroke-width:.407916" transform="translate(285.17 389.653)"/></g><g style="stroke-width:.407916"><path d="M0 0a.601.601 0 0 1 .846.154L2.19 2.098a.604.604 0 0 1-.162.84l-34.973 22.739c-.377-.564-.748-1.121-1.136-1.667z" style="fill:#d37fa7;fill-opacity:1;fill-rule:nonzero;stroke:none;stroke-width:.407916" transform="translate(379.053 398.02)"/></g><g style="stroke-width:.407916"><path d="m0 0 15.534-10.938c.356.5.703 1.022 1.035 1.541L.641.949C.435.633.229.314 0 0" style="fill:#d37fa7;fill-opacity:1;fill-rule:nonzero;stroke:none;stroke-width:.407916" transform="translate(325.769 435.55)"/></g><g style="stroke-width:.407916"><path d="M0 0a.413.413 0 0 1-.36-.45l.134-1.262c.024-.226.214-.386.435-.35l28.876 4.146c-.046.406-.102.808-.153 1.213Z" style="fill:#d37fa7;fill-opacity:1;fill-rule:nonzero;stroke:none;stroke-width:.407916" transform="translate(240.235 438.346)"/></g><g style="stroke-width:.407916"><path d="m0 0-18.871-2.149c.048-.362.095-.726.15-1.084L.071-.534C.04-.358.028-.178 0 0" style="fill:#d37fa7;fill-opacity:1;fill-rule:nonzero;stroke:none;stroke-width:.407916" transform="translate(292.502 444.302)"/></g><g style="stroke-width:.407916"><path d="M0 0a.596.596 0 0 1 .023-.86l1.472-1.399a.586.586 0 0 1 .846.054L9.38 6.066A47.584 47.584 0 0 0 7.395 7.84Z" style="fill:#d37fa7;fill-opacity:1;fill-rule:nonzero;stroke:none;stroke-width:.407916" transform="translate(274.478 408.234)"/></g><g style="stroke-width:.407916"><path d="m0 0-13.042-13.799a34.082 34.082 0 0 1 1.803-1.611L1.06-.949C.688-.646.332-.332 0 0" style="fill:#d37fa7;fill-opacity:1;fill-rule:nonzero;stroke:none;stroke-width:.407916" transform="translate(298.007 433.14)"/></g><g style="stroke-width:.407916"><path d="M0 0a.619.619 0 0 1 .783-.386l1.909.647a.61.61 0 0 1 .385.779l-14.751 42.314a36.594 36.594 0 0 0-2.38-.807z" style="fill:#d37fa7;fill-opacity:1;fill-rule:nonzero;stroke:none;stroke-width:.407916" transform="translate(337.134 363.743)"/></g><g style="stroke-width:.407916"><path d="m0 0 5.964-18.044c.791.233 1.561.494 2.324.781L2.024.681A19.948 19.948 0 0 0 0 0" style="fill:#d37fa7;fill-opacity:1;fill-rule:nonzero;stroke:none;stroke-width:.407916" transform="translate(315.7 428.598)"/></g><g style="stroke-width:.407916"><path d="M0 0a.393.393 0 0 1-.459-.338L-.617-1.37a.403.403 0 0 1 .348-.457L9.246-3.08c.071.525.146 1.056.237 1.567z" style="fill:#d37fa7;fill-opacity:1;fill-rule:nonzero;stroke:none;stroke-width:.407916" transform="translate(259.973 454.712)"/></g><g style="stroke-width:.407916"><path d="m0 0-18.76 2.983a29.016 29.016 0 0 1-.206-1.453L-.143-.951c.04.324.096.637.143.951" style="fill:#d37fa7;fill-opacity:1;fill-rule:nonzero;stroke:none;stroke-width:.407916" transform="translate(292.645 449.518)"/></g><g style="stroke-width:.407916"><path d="m0 0 18.504-4.295c.099.409.185.823.265 1.244L.182.845C.143.56.06.272 0 0" style="fill:#b3b3a7;fill-opacity:1;fill-rule:nonzero;stroke:none;stroke-width:.407916" transform="translate(328.766 441.988)"/></g><g style="stroke-width:.407916"><path d="M0 0a.378.378 0 0 1 .459.314l.143 1.027a.436.436 0 0 1-.34.492l-21.221 4.442a36.864 36.864 0 0 0-.285-1.337Z" style="fill:#b3b3a7;fill-opacity:1;fill-rule:nonzero;stroke:none;stroke-width:.407916" transform="translate(372.89 431.738)"/></g><g style="stroke-width:.407916"><path d="M0 0a.391.391 0 0 1 .285-.492l1.234-.322a.413.413 0 0 1 .506.287l2.364 9.362a34.51 34.51 0 0 0-1.723.467Z" style="fill:#d37fa7;fill-opacity:1;fill-rule:nonzero;stroke:none;stroke-width:.407916" transform="translate(296.402 396.847)"/></g><g style="stroke-width:.407916"><path d="m0 0-5.229-18.258a42.625 42.625 0 0 1 1.586-.43L1.012-.269C.672-.188.332-.101 0 0" style="fill:#d37fa7;fill-opacity:1;fill-rule:nonzero;stroke:none;stroke-width:.407916" transform="translate(305.537 428.723)"/></g><g style="stroke-width:.407916"><path d="M0 0a.613.613 0 0 1-.281.818l-1.831.867a.592.592 0 0 1-.799-.295l-15.035-32.744c.778-.35 1.55-.717 2.309-1.111z" style="fill:#d37fa7;fill-opacity:1;fill-rule:nonzero;stroke:none;stroke-width:.407916" transform="translate(345.787 516.099)"/></g><g style="stroke-width:.407916"><path d="m0 0 8.258 17.137c-.737.378-1.468.736-2.231 1.074L-1.891.947A17.562 17.562 0 0 0 0 0" style="fill:#d37fa7;fill-opacity:1;fill-rule:nonzero;stroke:none;stroke-width:.407916" transform="translate(319.94 462.455)"/></g><g style="stroke-width:.407916"><path d="m0 0-16.973-8.556c.388-.841.806-1.667 1.25-2.47L1.115-2.185A17.803 17.803 0 0 0 0 0" style="fill:#d37fa7;fill-opacity:1;fill-rule:nonzero;stroke:none;stroke-width:.407916" transform="translate(293.871 439.133)"/></g><g style="stroke-width:.407916"><path d="M0 0a.596.596 0 0 1-.261-.816l1.21-2.267a.615.615 0 0 1 .831-.251l48.071 25.262a43.966 43.966 0 0 0-1.297 2.529z" style="fill:#d37fa7;fill-opacity:1;fill-rule:nonzero;stroke:none;stroke-width:.407916" transform="translate(224.326 404.096)"/></g><g style="stroke-width:.407916"><path d="M0 0a.394.394 0 0 1-.121.554l-.887.555a.41.41 0 0 1-.561-.138L-7.43-8.72c.44-.259.877-.529 1.305-.814z" style="fill:#d37fa7;fill-opacity:1;fill-rule:nonzero;stroke:none;stroke-width:.407916" transform="translate(339.826 491.098)"/></g><g style="stroke-width:.407916"><path d="m0 0 10.266 15.988c-.404.263-.807.512-1.227.755L-.799.5C-.531.34-.258.178 0 0" style="fill:#d37fa7;fill-opacity:1;fill-rule:nonzero;stroke:none;stroke-width:.407916" transform="translate(321.016 461.8)"/></g><g style="stroke-width:.407916"><path d="m0 0-3.246-18.717c.359-.065.723-.124 1.078-.178L.768-.126C.514-.091.253-.047 0 0" style="fill:#d37fa7;fill-opacity:1;fill-rule:nonzero;stroke:none;stroke-width:.407916" transform="translate(307.459 428.258)"/></g><g style="stroke-width:.407916"><path d="m0 0 1.835-.289L8.099 39.84c-.383.054-.767.119-1.154.181z" style="fill:#d37fa7;fill-opacity:1;fill-rule:nonzero;stroke:none;stroke-width:.407916" transform="translate(296.497 365.088)"/></g><g style="stroke-width:.407916"><path d="M0 0a.41.41 0 0 1 .49-.299l.563.147c.22.053.347.279.284.492l-6.414 23.777a25.805 25.805 0 0 0-.847-.225z" style="fill:#d37fa7;fill-opacity:1;fill-rule:nonzero;stroke:none;stroke-width:.407916" transform="translate(326.852 381.806)"/></g><g style="stroke-width:.407916"><path d="m0 0 4.563-18.438c.246.063.499.132.751.198L.355.091C.236.062.119.034 0 0" style="fill:#d37fa7;fill-opacity:1;fill-rule:nonzero;stroke:none;stroke-width:.407916" transform="translate(315.29 428.491)"/></g><g style="stroke-width:.407916"><path d="M0 0a.398.398 0 0 1 .569-.062l.807.651a.406.406 0 0 1 .063.569l-20.698 25.09-.972-.776z" style="fill:#d37fa7;fill-opacity:1;fill-rule:nonzero;stroke:none;stroke-width:.407916" transform="translate(356.962 387.941)"/></g><g style="stroke-width:.407916"><path d="m0 0 11.808-14.864c.308.234.608.478.909.729L.625.513C.418.343.213.173 0 0" style="fill:#d37fa7;fill-opacity:1;fill-rule:nonzero;stroke:none;stroke-width:.407916" transform="translate(322.13 431.795)"/></g><g style="stroke-width:.407916"><path d="m0 0 18.127-5.681c.189.592.364 1.193.53 1.792L.332 1.102A17.94 17.94 0 0 0 0 0" style="fill:#acb549;fill-opacity:1;fill-rule:nonzero;stroke:none;stroke-width:.407916" transform="translate(328.379 440.657)"/></g><g style="stroke-width:.407916"><path d="M0 0a.396.396 0 0 1 .506.269l.482 1.672a.389.389 0 0 1-.284.502l-13.09 3.568a47.523 47.523 0 0 0-.577-1.954z" style="fill:#acb549;fill-opacity:1;fill-rule:nonzero;stroke:none;stroke-width:.407916" transform="translate(363.756 429.575)"/></g><g style="stroke-width:.407916"><path d="m0 0-10.227-16.012c.34-.221.688-.435 1.036-.64L.703-.446C.467-.305.229-.156 0 0" style="fill:#acb549;fill-opacity:1;fill-rule:nonzero;stroke:none;stroke-width:.407916" transform="translate(300.728 430.97)"/></g><g style="stroke-width:.407916"><path d="M0 0a.4.4 0 0 1 .119-.563l.885-.548a.4.4 0 0 1 .554.127l13.754 22.548c-.372.226-.744.457-1.115.69z" style="fill:#acb549;fill-opacity:1;fill-rule:nonzero;stroke:none;stroke-width:.407916" transform="translate(273.885 388.918)"/></g><g style="stroke-width:.407916"><path d="M0 0a.413.413 0 0 1-.538-.218l-.388-.967a.402.402 0 0 1 .222-.527l41.452-16.619c.142.35.276.699.427 1.048z" style="fill:#acb549;fill-opacity:1;fill-rule:nonzero;stroke:none;stroke-width:.407916" transform="translate(231.073 480.122)"/></g><g style="stroke-width:.407916"><path d="m0 0-17.523 7.354c-.142-.329-.265-.659-.399-.991L-.285-.706c.087.233.182.467.285.706" style="fill:#acb549;fill-opacity:1;fill-rule:nonzero;stroke:none;stroke-width:.407916" transform="translate(293.91 453.753)"/></g><g style="stroke-width:.407916"><path d="m0 0 .284 6.811a.585.585 0 0 1-.585.618l-2.025.026a.6.6 0 0 1-.609-.603L-2.84.028c.293.01.578.024.861.024C-1.313.052-.656.028 0 0" style="fill:#acb549;fill-opacity:1;fill-rule:nonzero;stroke:none;stroke-width:.407916" transform="translate(312.87 488.308)"/></g><g style="stroke-width:.407916"><path d="m0 0 .807 18.983c-.593.033-1.187.044-1.781.044-.267 0-.529-.007-.794-.011L-1.503.018C-.997.035-.499.031 0 0" style="fill:#acb549;fill-opacity:1;fill-rule:nonzero;stroke:none;stroke-width:.407916" transform="translate(311.864 464.838)"/></g><g style="stroke-width:.407916"><path d="M0 0a.623.623 0 0 1-.759.422l-1.278-.38a.594.594 0 0 1-.399-.76l6.217-19.996c.585.191 1.178.366 1.772.519z" style="fill:#acb549;fill-opacity:1;fill-rule:nonzero;stroke:none;stroke-width:.407916" transform="translate(294.361 507.088)"/></g><g style="stroke-width:.407916"><path d="m0 0-5.051 18.302a54.635 54.635 0 0 1-1.625-.473L-1.029-.305C-.696-.198-.348-.1 0 0" style="fill:#acb549;fill-opacity:1;fill-rule:nonzero;stroke:none;stroke-width:.407916" transform="translate(306.162 464.265)"/></g><g style="stroke-width:.407916"><path d="M0 0c.206.025.412.051.617.071l-2.333 18.855c-.356-.043-.72-.085-1.067-.142-.135-.016-.278-.044-.412-.069L-.348-.063c.116.025.221.044.348.063" style="fill:#acb549;fill-opacity:1;fill-rule:nonzero;stroke:none;stroke-width:.407916" transform="translate(308.139 464.668)"/></g><g style="stroke-width:.407916"><path d="m0 0-1 8.119a.417.417 0 0 1-.455.356l-1.037-.151a.409.409 0 0 1-.34-.456l1.227-8.092c.15.019.285.052.427.074.395.053.782.105 1.178.15" style="fill:#acb549;fill-opacity:1;fill-rule:nonzero;stroke:none;stroke-width:.407916" transform="translate(305.87 488.049)"/></g><g style="stroke-width:.407916"><path d="m0 0 18.697 3.294a23.674 23.674 0 0 1-.34 1.783L-.24 1.251C-.143.84-.07.419 0 0" style="fill:#acb549;fill-opacity:1;fill-rule:nonzero;stroke:none;stroke-width:.407916" transform="translate(329.074 449.251)"/></g><g style="stroke-width:.407916"><path d="M0 0a.41.41 0 0 1 .332.475L.008 2.017a.406.406 0 0 1-.483.324l-15.43-3.165c.134-.635.253-1.28.36-1.914z" style="fill:#acb549;fill-opacity:1;fill-rule:nonzero;stroke:none;stroke-width:.407916" transform="translate(367.742 456.065)"/></g><g style="stroke-width:.407916"><path d="m0 0-18.302-5.062c.103-.413.222-.816.348-1.219L.229-.824C.146-.556.071-.272 0 0" style="fill:#acb549;fill-opacity:1;fill-rule:nonzero;stroke:none;stroke-width:.407916" transform="translate(293.001 441.688)"/></g><g style="stroke-width:.407916"><path d="M0 0a.4.4 0 0 1-.277-.504l.285-.999a.408.408 0 0 1 .506-.27l21.442 6.434a26.69 26.69 0 0 0-.372 1.315Z" style="fill:#acb549;fill-opacity:1;fill-rule:nonzero;stroke:none;stroke-width:.407916" transform="translate(248.781 429.456)"/></g><g style="stroke-width:.407916"><path d="M0 0a.596.596 0 0 1-.482-.714l.276-1.301a.576.576 0 0 1 .705-.464L9.717-.392a32.615 32.615 0 0 0-.44 2.107Z" style="fill:#acb549;fill-opacity:1;fill-rule:nonzero;stroke:none;stroke-width:.407916" transform="translate(260.28 437.294)"/></g><g style="stroke-width:.407916"><path d="m0 0-18.673-3.45c.118-.649.245-1.291.395-1.928L.237-1.183C.146-.797.071-.403 0 0" style="fill:#acb549;fill-opacity:1;fill-rule:nonzero;stroke:none;stroke-width:.407916" transform="translate(292.653 443.273)"/></g><g style="stroke-width:.407916"><path d="m0 0 13.405 13.464a41.032 41.032 0 0 1-2.096 2.005L-1.566 1.495A19.372 19.372 0 0 0 0 0" style="fill:#acb549;fill-opacity:1;fill-rule:nonzero;stroke:none;stroke-width:.407916" transform="translate(324.361 458.969)"/></g><g style="stroke-width:.407916"><path d="m0 0 11.382 11.42a.583.583 0 0 1-.025.845l-1.834 1.682a.626.626 0 0 1-.882-.035L-2.222 2.123A48.815 48.815 0 0 0 0 0" style="fill:#acb549;fill-opacity:1;fill-rule:nonzero;stroke:none;stroke-width:.407916" transform="translate(340.938 475.614)"/></g><g style="stroke-width:.407916"><path d="m0 0-16.83 8.805a39.57 39.57 0 0 1-1.036-2.132L-.609-1.256C-.411-.829-.213-.411 0 0" style="fill:#acb549;fill-opacity:1;fill-rule:nonzero;stroke:none;stroke-width:.407916" transform="translate(294.582 455.153)"/></g><g style="stroke-width:.407916"><path d="M0 0a.591.591 0 0 1-.814-.259l-.894-1.827a.602.602 0 0 1 .285-.803L9.966-8.124c.355.789.723 1.567 1.138 2.331z" style="fill:#acb549;fill-opacity:1;fill-rule:nonzero;stroke:none;stroke-width:.407916" transform="translate(262.677 471.833)"/></g><g style="stroke-width:.407916"><path d="m0 0-.372-1.289a.587.587 0 0 1 .412-.735l14.03-3.619c.127.528.285 1.046.451 1.556L.76.399A.598.598 0 0 1 0 0" style="fill:#acb549;fill-opacity:1;fill-rule:nonzero;stroke:none;stroke-width:.407916" transform="translate(278.828 456.406)"/></g><g style="stroke-width:.407916"><path d="M0 0a.412.412 0 0 1 .578.054l.641.814a.42.42 0 0 1-.06.581l-41.02 33.875c-.23-.276-.444-.555-.68-.824z" style="fill:#acb549;fill-opacity:1;fill-rule:nonzero;stroke:none;stroke-width:.407916" transform="translate(383.148 384.52)"/></g><g style="stroke-width:.407916"><path d="m0 0 14.465-12.307c.215.251.435.519.644.772L.475.56C.316.37.158.182 0 0" style="fill:#acb549;fill-opacity:1;fill-rule:nonzero;stroke:none;stroke-width:.407916" transform="translate(324.717 434.24)"/></g><g style="stroke-width:.407916"><path d="M0 0c-.458.28-.9.581-1.328.897l-11.286-15.141c-.024-.028-.032-.062-.048-.089a45.447 45.447 0 0 1 1.867-1.31c.024.012.039.031.055.046z" style="fill:#acb549;fill-opacity:1;fill-rule:nonzero;stroke:none;stroke-width:.407916" transform="translate(301.13 430.71)"/></g><g style="stroke-width:.407916"><path d="m0 0 15.572 10.875a35.35 35.35 0 0 1-.691.963L-.475.666C-.309.447-.158.226 0 0" style="fill:#acb549;fill-opacity:1;fill-rule:nonzero;stroke:none;stroke-width:.407916" transform="translate(326.117 456.78)"/></g><g style="stroke-width:.407916"><path d="M0 0a.415.415 0 0 1 .103.569l-.601.849a.41.41 0 0 1-.57.093l-23.776-17.312c.254-.34.507-.687.748-1.032z" style="fill:#acb549;fill-opacity:1;fill-rule:nonzero;stroke:none;stroke-width:.407916" transform="translate(369.467 487.06)"/></g><g style="stroke-width:.407916"><path d="m0 0 3.35 18.707c-.606.112-1.215.212-1.824.295L-1.131.178A23.16 23.16 0 0 0 0 0" style="fill:#acb549;fill-opacity:1;fill-rule:nonzero;stroke:none;stroke-width:.407916" transform="translate(314.324 464.533)"/></g><g style="stroke-width:.407916"><path d="M0 0c0-.226.189-.403.418-.394l1.037.008c.229 0 .395.188.395.417l-.514 17.74c-.475-.015-.957-.034-1.432-.034Z" style="fill:#acb549;fill-opacity:1;fill-rule:nonzero;stroke:none;stroke-width:.407916" transform="translate(310.932 386.716)"/></g><g style="stroke-width:.407916"><path d="m0 0 .104-18.991c.443 0 .885.006 1.335.023L.895.019A20.555 20.555 0 0 0 0 0" style="fill:#acb549;fill-opacity:1;fill-rule:nonzero;stroke:none;stroke-width:.407916" transform="translate(310.709 427.943)"/></g><g style="stroke-width:.407916"><path d="m0 0 11.777-13.034a.579.579 0 0 1 .846-.033l1.289 1.245a.582.582 0 0 1 0 .85L1.258 1.208A19.159 19.159 0 0 0 0 0" style="fill:#b3b3a7;fill-opacity:1;fill-rule:nonzero;stroke:none;stroke-width:.407916" transform="translate(323.031 432.555)"/></g><g style="stroke-width:.407916"><path d="m0 0 8.391-17.04c.632.314 1.25.627 1.851.959L1.107.581A15.878 15.878 0 0 0 0 0" style="fill:#b3b3a7;fill-opacity:1;fill-rule:nonzero;stroke:none;stroke-width:.407916" transform="translate(318.8 429.745)"/></g><g style="stroke-width:.407916"><path d="M0 0a.393.393 0 0 1 .547-.178l1.549.787a.41.41 0 0 1 .17.547l-3.025 5.52a50.697 50.697 0 0 0-2.016-1.049Z" style="fill:#b3b3a7;fill-opacity:1;fill-rule:nonzero;stroke:none;stroke-width:.407916" transform="translate(331.96 403.056)"/></g><g style="stroke-width:.407916"><path d="m0 0 3.907-18.583c.617.127 1.226.271 1.819.421L1.123.259A32.82 32.82 0 0 0 0 0" style="fill:#b3b3a7;fill-opacity:1;fill-rule:nonzero;stroke:none;stroke-width:.407916" transform="translate(314.419 428.294)"/></g><g style="stroke-width:.407916"><path d="M0 0a.6.6 0 0 1 .729-.458l1.296.29c.325.081.53.411.443.742L-.799 13.638a34.9 34.9 0 0 0-1.976-.45z" style="fill:#b3b3a7;fill-opacity:1;fill-rule:nonzero;stroke:none;stroke-width:.407916" transform="translate(322.027 392.133)"/></g><g style="stroke-width:.407916"><path d="m0 0 14.916-11.767c.355.442.703.88 1.044 1.339L.807 1.03A18.085 18.085 0 0 0 0 0" style="fill:#b3b3a7;fill-opacity:1;fill-rule:nonzero;stroke:none;stroke-width:.407916" transform="translate(325.002 434.583)"/></g><g style="stroke-width:.407916"><path d="M0 0a.402.402 0 0 1 .569.079l.925 1.192c.135.172.088.432-.07.566l-20.153 15.239a69.021 69.021 0 0 0-1.099-1.416z" style="fill:#b3b3a7;fill-opacity:1;fill-rule:nonzero;stroke:none;stroke-width:.407916" transform="translate(363.273 404.372)"/></g><g style="stroke-width:.407916"><path d="M0 0a.595.595 0 0 1 .648.573l.151 2.499a.591.591 0 0 1-.577.635l-32.966.619a31.223 31.223 0 0 0-.094-2.275z" style="fill:#b3b3a7;fill-opacity:1;fill-rule:nonzero;stroke:none;stroke-width:.407916" transform="translate(385.514 441.5)"/></g><g style="stroke-width:.407916"><path d="m0 0 18.955-1.183c.051.689.074 1.388.074 2.082L.056 1.26A21.917 21.917 0 0 0 0 0" style="fill:#b3b3a7;fill-opacity:1;fill-rule:nonzero;stroke:none;stroke-width:.407916" transform="translate(329.248 445.012)"/></g><g style="stroke-width:.407916"><path d="m0 0 18.942 1.494a34.448 34.448 0 0 1-.229 2.393L-.167 1.88C-.087 1.253-.024.626 0 0" style="fill:#b3b3a7;fill-opacity:1;fill-rule:nonzero;stroke:none;stroke-width:.407916" transform="translate(329.28 447.153)"/></g><g style="stroke-width:.407916"><path d="M0 0a.61.61 0 0 1 .558.668L.432 2.223a.602.602 0 0 1-.665.545l-9.139-.969c.099-.842.182-1.685.226-2.525z" style="fill:#b3b3a7;fill-opacity:1;fill-rule:nonzero;stroke:none;stroke-width:.407916" transform="translate(361.838 449.724)"/></g><g style="stroke-width:.407916"><path d="M0 0a.614.614 0 0 1 .538-.681l1.559-.177a.604.604 0 0 1 .664.545l.845 9.22c-.837.062-1.675.135-2.515.259Z" style="fill:#b3b3a7;fill-opacity:1;fill-rule:nonzero;stroke:none;stroke-width:.407916" transform="translate(304.042 395.68)"/></g><g style="stroke-width:.407916"><path d="m0 0-2.246-18.875a35.377 35.377 0 0 1 2.389-.241L1.891-.205C1.241-.168.625-.097 0 0" style="fill:#b3b3a7;fill-opacity:1;fill-rule:nonzero;stroke:none;stroke-width:.407916" transform="translate(307.918 428.175)"/></g><g style="stroke-width:.407916"><path d="m0 0-18.911-1.692c.036-.45.087-.89.135-1.337L.099-.888A13.62 13.62 0 0 0 0 0" style="fill:#b3b3a7;fill-opacity:1;fill-rule:nonzero;stroke:none;stroke-width:.407916" transform="translate(292.44 444.966)"/></g><g style="stroke-width:.407916"><path d="M0 0a.423.423 0 0 1-.38-.447l.095-1.032a.399.399 0 0 1 .443-.364L17.187.091c-.048.482-.1.959-.143 1.443z" style="fill:#b3b3a7;fill-opacity:1;fill-rule:nonzero;stroke:none;stroke-width:.407916" transform="translate(252.008 441.336)"/></g><g style="stroke-width:.407916"><path d="M0 0a.402.402 0 0 1 .316-.488l1.008-.214a.41.41 0 0 1 .487.316l3.306 16.361c-.483.096-.942.187-1.416.294z" style="fill:#b3b3a7;fill-opacity:1;fill-rule:nonzero;stroke:none;stroke-width:.407916" transform="translate(297.573 389.286)"/></g><g style="stroke-width:.407916"><path d="m0 0-4.208-18.527c.438-.099.87-.19 1.321-.277L.877-.188C.585-.125.293-.071 0 0" style="fill:#b3b3a7;fill-opacity:1;fill-rule:nonzero;stroke:none;stroke-width:.407916" transform="translate(306.478 428.464)"/></g><g style="stroke-width:.407916"><path d="m0 0-.945-.447a.393.393 0 0 1-.178-.543L5.07-13.167c.376.198.752.376 1.138.554L.538-.197A.406.406 0 0 1 0 0" style="fill:#b3b3a7;fill-opacity:1;fill-rule:nonzero;stroke:none;stroke-width:.407916" transform="translate(297.137 475.89)"/></g><g style="stroke-width:.407916"><path d="M0 0c-.143-.442-.309-.89-.482-1.32L17.25-8.124c.213.536.411 1.073.602 1.629z" style="fill:#b3b3a7;fill-opacity:1;fill-rule:nonzero;stroke:none;stroke-width:.407916" transform="translate(328.41 440.746)"/></g><g style="stroke-width:.407916"><path d="M0 0a40.84 40.84 0 0 0-.633-1.702l64.61-24.772 1.037 2.794z" style="fill:#b3b3a7;fill-opacity:1;fill-rule:nonzero;stroke:none;stroke-width:.407916" transform="translate(350.484 432.71)"/></g><g style="stroke-width:.407916"><path d="m0 0 4.033-30.416a.611.611 0 0 1 .686-.522l1.545.209c.332.051.586.244.554.429a46.62 46.62 0 0 1-.142.959L2.168.32c-.27-.051-.551-.104-.823-.15C.895.106.451.054 0 0" style="fill:#b3b3a7;fill-opacity:1;fill-rule:nonzero;stroke:none;stroke-width:.407916" transform="translate(315.644 404.74)"/></g><g style="stroke-width:.407916"><path d="M0 0c-.316-.046-.645-.081-.965-.117l2.487-18.831c.423.051.843.104 1.27.166.269.039.538.093.814.138L.752.132C.506.081.262.041 0 0" style="fill:#b3b3a7;fill-opacity:1;fill-rule:nonzero;stroke:none;stroke-width:.407916" transform="translate(313.541 428.142)"/></g><g style="stroke-width:.407916"><path d="m0 0-19.014-.322c0-.153-.004-.305-.004-.457 0-.896.028-1.796.1-2.705L.095-2.83A17.828 17.828 0 0 0 0 0" style="fill:#b3b3a7;fill-opacity:1;fill-rule:nonzero;stroke:none;stroke-width:.407916" transform="translate(292.4 447.232)"/></g><g style="stroke-width:.407916"><path d="m0 0-39.209-.645a.618.618 0 0 1-.602-.625l.091-2.726a.61.61 0 0 1 .641-.592L.091-3.243c-.067.959-.107 1.91-.107 2.859C-.016-.258 0-.133 0 0" style="fill:#b3b3a7;fill-opacity:1;fill-rule:nonzero;stroke:none;stroke-width:.407916" transform="translate(268.902 446.837)"/></g><g style="stroke-width:.407916"><path d="m0 0 5.828 18.076c-.869.299-1.74.568-2.625.793L-1.971.594A19.807 19.807 0 0 0 0 0" style="fill:#b3b3a7;fill-opacity:1;fill-rule:nonzero;stroke:none;stroke-width:.407916" transform="translate(317.172 463.752)"/></g><g style="stroke-width:.407916"><path d="m0 0-.676.797a.407.407 0 0 1-.573.042l-13.698-12.066c.26-.29.506-.581.743-.885L-.055-.565C.127-.431.143-.172 0 0" style="fill:#b3b3a7;fill-opacity:1;fill-rule:nonzero;stroke:none;stroke-width:.407916" transform="translate(339.49 469.998)"/></g><g style="stroke-width:.407916"><path d="M0 0a.403.403 0 0 1-.055-.573l.676-.791a.393.393 0 0 1 .573-.043L6.059 2.84a32.81 32.81 0 0 0-1.076 1.264Z" style="fill:#b3b3a7;fill-opacity:1;fill-rule:nonzero;stroke:none;stroke-width:.407916" transform="translate(273.339 415.805)"/></g><g style="stroke-width:.407916"><path d="m0 0-14.664-12.077c.325-.394.657-.787.997-1.167L.649-.756C.427-.511.213-.26 0 0" style="fill:#b3b3a7;fill-opacity:1;fill-rule:nonzero;stroke:none;stroke-width:.407916" transform="translate(296.45 434.843)"/></g><g style="stroke-width:.407916"><path d="m0 0-13.81-13.026c.305-.323.602-.647.918-.952L.625-.637C.403-.424.206-.216 0 0" style="fill:#b3b3a7;fill-opacity:1;fill-rule:nonzero;stroke:none;stroke-width:.407916" transform="translate(297.264 433.894)"/></g><g style="stroke-width:.407916"><path d="m0 0-13.43-12.676c-.174-.162-.181-.422-.015-.576l.719-.751a.4.4 0 0 1 .57-.002L.989-1.03C.649-.691.324-.35 0 0" style="fill:#b3b3a7;fill-opacity:1;fill-rule:nonzero;stroke:none;stroke-width:.407916" transform="translate(280.188 417.784)"/></g><g style="stroke-width:.407916"><path d="M0 0a.401.401 0 0 1 .57.018l.688.787c.15.162.135.43-.031.583l-14.379 13.384a21.76 21.76 0 0 0-.973-1.02z" style="fill:#b3b3a7;fill-opacity:1;fill-rule:nonzero;stroke:none;stroke-width:.407916" transform="translate(354.818 403.2)"/></g><g style="stroke-width:.407916"><path d="m0 0 13.612-13.248c.3.314.609.625.893.949L.608.635A7.592 7.592 0 0 0 0 0" style="fill:#b3b3a7;fill-opacity:1;fill-rule:nonzero;stroke:none;stroke-width:.407916" transform="translate(323.87 433.336)"/></g><g style="stroke-width:.407916"><path d="m0 0-13.177 13.671c-.364-.332-.703-.68-1.044-1.029L-.684-.672C-.467-.44-.237-.213 0 0" style="fill:#b3b3a7;fill-opacity:1;fill-rule:nonzero;stroke:none;stroke-width:.407916" transform="translate(298.197 459.847)"/></g><g style="stroke-width:.407916"><path d="m0 0-6.897 7.147a.421.421 0 0 1-.585.011l-.744-.726a.384.384 0 0 1 0-.566l7.095-6.987C-.76-.737-.388-.378 0 0" style="fill:#b3b3a7;fill-opacity:1;fill-rule:nonzero;stroke:none;stroke-width:.407916" transform="translate(281.905 476.763)"/></g><g style="stroke-width:.407916"><path d="m0 0 17.004-8.475c.182.393.38.781.57 1.174L.383.786A16.828 16.828 0 0 0 0 0" style="fill:#b3b3a7;fill-opacity:1;fill-rule:nonzero;stroke:none;stroke-width:.407916" transform="translate(327.248 437.959)"/></g><g style="stroke-width:.407916"><path d="M0 0c.197-.099.459-.018.546.189l.458.94a.399.399 0 0 1-.19.538l-17.779 8.365a37.055 37.055 0 0 0-.617-1.269z" style="fill:#b3b3a7;fill-opacity:1;fill-rule:nonzero;stroke:none;stroke-width:.407916" transform="translate(365.844 418.716)"/></g><g style="stroke-width:.407916"><path d="m0 0-.925-1.184a.38.38 0 0 1 .079-.571l13.841-10.464c.308.447.656.878 1.012 1.289L.569.063A.396.396 0 0 1 0 0" style="fill:#b3b3a7;fill-opacity:1;fill-rule:nonzero;stroke:none;stroke-width:.407916" transform="translate(282.846 469.361)"/></g><g style="stroke-width:.407916"><path d="M0 0c.229.01.403.198.396.432l-.029.627a.416.416 0 0 1-.43.384L-20.674.06c.024-.374.055-.749.07-1.118z" style="fill:#b3b3a7;fill-opacity:1;fill-rule:nonzero;stroke:none;stroke-width:.407916" transform="translate(373.342 449.373)"/></g><g style="stroke-width:.407916"><path d="m0 0 18.974.977c-.024.35-.039.698-.063 1.047L-.048.753C-.024.502 0 .251 0 0" style="fill:#b3b3a7;fill-opacity:1;fill-rule:nonzero;stroke:none;stroke-width:.407916" transform="translate(329.28 447.107)"/></g><g style="stroke-width:.407916"><path d="m0 0 18.871-2.29c.111.789.182 1.576.238 2.393L.205 1.874A20.033 20.033 0 0 0 0 0" style="fill:#b3b3a7;fill-opacity:1;fill-rule:nonzero;stroke:none;stroke-width:.407916" transform="translate(329.066 443.476)"/></g><g style="stroke-width:.407916"><path d="M0 0a.616.616 0 0 1 .684.53l.173 1.558a.598.598 0 0 1-.541.669l-9.142.862a56.41 56.41 0 0 0-.266-2.515Z" style="fill:#b3b3a7;fill-opacity:1;fill-rule:nonzero;stroke:none;stroke-width:.407916" transform="translate(361.486 439.536)"/></g><g style="stroke-width:.407916"><path d="M0 0a.412.412 0 0 1 .27.521l-.325.986a.394.394 0 0 1-.513.249l-27.161-9.621c.151-.398.286-.807.419-1.21z" style="fill:#b3b3a7;fill-opacity:1;fill-rule:nonzero;stroke:none;stroke-width:.407916" transform="translate(378.031 468.474)"/></g><g style="stroke-width:.407916"><path d="m0 0 18.018 5.979c-.12.388-.247.761-.384 1.137L-.269.775C-.166.515-.087.255 0 0" style="fill:#b3b3a7;fill-opacity:1;fill-rule:nonzero;stroke:none;stroke-width:.407916" transform="translate(328.434 451.995)"/></g><g style="stroke-width:.407916"><path d="M0 0a.617.617 0 0 1-.854.152l-1.638-1.174a.616.616 0 0 1-.142-.859l26.48-36.579c.688.527 1.392 1.03 2.112 1.513z" style="fill:#b3b3a7;fill-opacity:1;fill-rule:nonzero;stroke:none;stroke-width:.407916" transform="translate(261.602 518.25)"/></g><g style="stroke-width:.407916"><path d="m0 0-.174.297-10.725 15.266a36.554 36.554 0 0 1-2.064-1.471L-1.812-1.301C-1.234-.832-.625-.403 0 0" style="fill:#b3b3a7;fill-opacity:1;fill-rule:nonzero;stroke:none;stroke-width:.407916" transform="translate(301.045 462.06)"/></g><g style="stroke-width:.407916"><path d="m0 0-6.774 17.74a33.523 33.523 0 0 1-1.629-.654l7.38-17.499C-.691-.263-.352-.125 0 0" style="fill:#b3b3a7;fill-opacity:1;fill-rule:nonzero;stroke:none;stroke-width:.407916" transform="translate(304.473 463.734)"/></g><g style="stroke-width:.407916"><path d="m0 0 9.862-16.235c.357.21.713.432 1.061.658L.712.441C.482.289.245.137 0 0" style="fill:#b3b3a7;fill-opacity:1;fill-rule:nonzero;stroke:none;stroke-width:.407916" transform="translate(320.185 430.486)"/></g><g style="stroke-width:.407916"><path d="M0 0a.41.41 0 0 1 .562-.134l.886.548c.19.12.244.365.125.564l-13.191 20.723c-.372-.243-.752-.476-1.131-.71z" style="fill:#b3b3a7;fill-opacity:1;fill-rule:nonzero;stroke:none;stroke-width:.407916" transform="translate(345.13 389.42)"/></g><g style="stroke-width:.407916"><path d="M0 0a.393.393 0 0 1-.545.137l-.886-.548a.424.424 0 0 1-.143-.564l19.03-31.296c.34.215.684.405 1.036.611z" style="fill:#b3b3a7;fill-opacity:1;fill-rule:nonzero;stroke:none;stroke-width:.407916" transform="translate(271.4 514.406)"/></g><g style="stroke-width:.407916"><path d="M0 0c.217.135.428.259.648.392l-9.569 16.405c-.325-.188-.649-.375-.965-.573L-.205.287Z" style="fill:#b3b3a7;fill-opacity:1;fill-rule:nonzero;stroke:none;stroke-width:.407916" transform="translate(301.076 462.07)"/></g><g style="stroke-width:.407916"><path d="M0 0a.393.393 0 0 1-.095-.563l.593-.849a.416.416 0 0 1 .57-.099l30.426 22.146a43.66 43.66 0 0 0-.704.969z" style="fill:#b3b3a7;fill-opacity:1;fill-rule:nonzero;stroke:none;stroke-width:.407916" transform="translate(245.586 400.885)"/></g><g style="stroke-width:.407916"><path d="m0 0-15.549-10.911c.221-.304.427-.609.656-.905L.451-.635C.301-.43.143-.214 0 0" style="fill:#b3b3a7;fill-opacity:1;fill-rule:nonzero;stroke:none;stroke-width:.407916" transform="translate(295.603 435.98)"/></g><g style="stroke-width:.407916"><path d="m0 0 8.043-17.208c.459.205.901.419 1.34.645L.869.421C.584.278.292.141 0 0" style="fill:#b3b3a7;fill-opacity:1;fill-rule:nonzero;stroke:none;stroke-width:.407916" transform="translate(318.445 429.583)"/></g><g style="stroke-width:.407916"><path d="M0 0a.422.422 0 0 1 .546-.197l.933.449c.206.097.285.34.186.545l-4.172 8.312c-.467-.241-.941-.465-1.431-.697Z" style="fill:#b3b3a7;fill-opacity:1;fill-rule:nonzero;stroke:none;stroke-width:.407916" transform="translate(332.333 399.894)"/></g></g><g clip-path="url(#b)" style="stroke-width:.407916" transform="matrix(.86483 0 0 -.86483 -199.035 533.79)"><g style="stroke-width:.407916"><path d="M0 0c-47.975 0-86.877 38.892-86.877 86.874 0 47.98 38.902 86.873 86.877 86.873 47.975 0 86.878-38.893 86.878-86.873C86.878 38.892 47.975 0 0 0m0 202.181c-63.676 0-115.312-51.623-115.312-115.307C-115.312 23.188-63.676-28.434 0-28.434c63.677 0 115.312 51.622 115.312 115.308 0 63.684-51.635 115.307-115.312 115.307" style="fill:#b3b3a7;fill-opacity:1;fill-rule:nonzero;stroke:none;stroke-width:.407916" transform="translate(311.39 358.98)"/></g><text style="font-variant:normal;font-weight:400;font-stretch:normal;font-size:14.3768px;font-family:&quot;Frutiger 55 Roman&quot;;writing-mode:lr-tb;fill:#fff;fill-opacity:1;fill-rule:nonzero;stroke:none;stroke-width:.407916" transform="scale(-1 1) rotate(74.433 -383.86 62.126)"><tspan x="0" y="0" style="stroke-width:.407916">G</tspan></text><text style="font-variant:normal;font-weight:400;font-stretch:normal;font-size:14.3768px;font-family:&quot;Frutiger 55 Roman&quot;;writing-mode:lr-tb;fill:#fff;fill-opacity:1;fill-rule:nonzero;stroke:none;stroke-width:.407916" transform="scale(-1 1) rotate(83.647 -347.93 92.493)"><tspan x="0" y="0" style="stroke-width:.407916">W</tspan></text><text style="font-variant:normal;font-weight:400;font-stretch:normal;font-size:14.3768px;font-family:&quot;Frutiger 55 Roman&quot;;writing-mode:lr-tb;fill:#fff;fill-opacity:1;fill-rule:nonzero;stroke:none;stroke-width:.407916" transform="scale(1 -1) rotate(-87.437 -124.69 -335.433)"><tspan x="0" y="0" style="stroke-width:.407916">A</tspan></text><text style="font-variant:normal;font-weight:400;font-stretch:normal;font-size:14.3767px;font-family:&quot;Frutiger 55 Roman&quot;;writing-mode:lr-tb;fill:#fff;fill-opacity:1;fill-rule:nonzero;stroke:none;stroke-width:.407916" transform="scale(1 -1) rotate(-79.489 -167.151 -359.464)"><tspan x="0" y="0" style="stroke-width:.407916">N</tspan></text><text style="font-variant:normal;font-weight:400;font-stretch:normal;font-size:14.3768px;font-family:&quot;Frutiger 55 Roman&quot;;writing-mode:lr-tb;fill:#fff;fill-opacity:1;fill-rule:nonzero;stroke:none;stroke-width:.407916" transform="scale(1 -1) rotate(-71.468 -217.787 -388.079)"><tspan x="0" y="0" style="stroke-width:.407916">G</tspan></text><text style="font-variant:normal;font-weight:400;font-stretch:normal;font-size:14.3768px;font-family:&quot;Frutiger 55 Roman&quot;;writing-mode:lr-tb;fill:#fff;fill-opacity:1;fill-rule:nonzero;stroke:none;stroke-width:.407916" transform="scale(1 -1) rotate(-64.882 -268.557 -417.978)"><tspan x="0" y="0" style="stroke-width:.407916">J</tspan></text><text style="font-variant:normal;font-weight:400;font-stretch:normal;font-size:14.3768px;font-family:&quot;Frutiger 55 Roman&quot;;writing-mode:lr-tb;fill:#fff;fill-opacity:1;fill-rule:nonzero;stroke:none;stroke-width:.407916" transform="scale(1 -1) rotate(-58.346 -326.323 -449.442)"><tspan x="0" y="0" style="stroke-width:.407916">U</tspan></text><text style="font-variant:normal;font-weight:400;font-stretch:normal;font-size:14.3767px;font-family:&quot;Frutiger 55 Roman&quot;;writing-mode:lr-tb;fill:#fff;fill-opacity:1;fill-rule:nonzero;stroke:none;stroke-width:.407916" transform="scale(1 -1) rotate(-45.467 -487.442 -540.68)"><tspan x="0" y="0" style="stroke-width:.407916">N</tspan></text><text style="font-variant:normal;font-weight:400;font-stretch:normal;font-size:14.3768px;font-family:&quot;Frutiger 55 Roman&quot;;writing-mode:lr-tb;fill:#fff;fill-opacity:1;fill-rule:nonzero;stroke:none;stroke-width:.407916" transform="scale(1 -1) rotate(-37.539 -637.904 -625.9)"><tspan x="0" y="0" style="stroke-width:.407916">A</tspan></text><text style="font-variant:normal;font-weight:400;font-stretch:normal;font-size:14.3768px;font-family:&quot;Frutiger 55 Roman&quot;;writing-mode:lr-tb;fill:#fff;fill-opacity:1;fill-rule:nonzero;stroke:none;stroke-width:.407916" transform="scale(1 -1) rotate(-30.936 -820.093 -730.854)"><tspan x="0" y="0" style="stroke-width:.407916">T</tspan></text><text style="font-variant:normal;font-weight:400;font-stretch:normal;font-size:14.3768px;font-family:&quot;Frutiger 55 Roman&quot;;writing-mode:lr-tb;fill:#fff;fill-opacity:1;fill-rule:nonzero;stroke:none;stroke-width:.407916" transform="scale(1 -1) rotate(-25.595 -1034.516 -856.466)"><tspan x="0" y="0" style="stroke-width:.407916">I</tspan></text><text style="font-variant:normal;font-weight:400;font-stretch:normal;font-size:14.3768px;font-family:&quot;Frutiger 55 Roman&quot;;writing-mode:lr-tb;fill:#fff;fill-opacity:1;fill-rule:nonzero;stroke:none;stroke-width:.407916" transform="scale(1 -1) rotate(-19.247 -1437.212 -1076.988)"><tspan x="0" y="0" style="stroke-width:.407916">O</tspan></text><text style="font-variant:normal;font-weight:400;font-stretch:normal;font-size:14.3767px;font-family:&quot;Frutiger 55 Roman&quot;;writing-mode:lr-tb;fill:#fff;fill-opacity:1;fill-rule:nonzero;stroke:none;stroke-width:.407916" transform="scale(1 -1) rotate(-10.981 -2656.445 -1767.477)"><tspan x="0" y="0" style="stroke-width:.407916">N</tspan></text><text style="font-variant:normal;font-weight:400;font-stretch:normal;font-size:14.3768px;font-family:&quot;Frutiger 55 Roman&quot;;writing-mode:lr-tb;fill:#fff;fill-opacity:1;fill-rule:nonzero;stroke:none;stroke-width:.407916" transform="scale(1 -1) rotate(-3.027 -10082.966 -5968.903)"><tspan x="0" y="0" style="stroke-width:.407916">A</tspan></text><text style="font-variant:normal;font-weight:400;font-stretch:normal;font-size:14.3768px;font-family:&quot;Frutiger 55 Roman&quot;;writing-mode:lr-tb;fill:#fff;fill-opacity:1;fill-rule:nonzero;stroke:none;stroke-width:.407916" transform="scale(1 -1) rotate(3.876 8152.842 4373.955)"><tspan x="0" y="0" style="stroke-width:.407916">L</tspan></text><text style="font-variant:normal;font-weight:400;font-stretch:normal;font-size:14.3768px;font-family:&quot;Frutiger 55 Roman&quot;;writing-mode:lr-tb;fill:#fff;fill-opacity:1;fill-rule:nonzero;stroke:none;stroke-width:.407916" transform="scale(1 -1) rotate(14.919 2223.925 1000.327)"><tspan x="0" y="0" style="stroke-width:.407916">S</tspan></text><text style="font-variant:normal;font-weight:400;font-stretch:normal;font-size:14.3768px;font-family:&quot;Frutiger 55 Roman&quot;;writing-mode:lr-tb;fill:#fff;fill-opacity:1;fill-rule:nonzero;stroke:none;stroke-width:.407916" transform="scale(1 -1) rotate(21.498 1583.2 633.235)"><tspan x="0" y="0" style="stroke-width:.407916">C</tspan></text><text style="font-variant:normal;font-weight:400;font-stretch:normal;font-size:14.3768px;font-family:&quot;Frutiger 55 Roman&quot;;writing-mode:lr-tb;fill:#fff;fill-opacity:1;fill-rule:nonzero;stroke:none;stroke-width:.407916" transform="scale(1 -1) rotate(27.098 1279.494 466.486)"><tspan x="0" y="0" style="stroke-width:.407916">I</tspan></text><text style="font-variant:normal;font-weight:400;font-stretch:normal;font-size:14.3768px;font-family:&quot;Frutiger 55 Roman&quot;;writing-mode:lr-tb;fill:#fff;fill-opacity:1;fill-rule:nonzero;stroke:none;stroke-width:.407916" transform="scale(1 -1) rotate(32.436 1087.942 352.97)"><tspan x="0" y="0" style="stroke-width:.407916">E</tspan></text><text style="font-variant:normal;font-weight:400;font-stretch:normal;font-size:14.3768px;font-family:&quot;Frutiger 55 Roman&quot;;writing-mode:lr-tb;fill:#fff;fill-opacity:1;fill-rule:nonzero;stroke:none;stroke-width:.407916" transform="scale(1 -1) rotate(39.668 908.427 249.1)"><tspan x="0" y="0" style="stroke-width:.407916">N</tspan></text><text style="font-variant:normal;font-weight:400;font-stretch:normal;font-size:14.3767px;font-family:&quot;Frutiger 55 Roman&quot;;writing-mode:lr-tb;fill:#fff;fill-opacity:1;fill-rule:nonzero;stroke:none;stroke-width:.407916" transform="scale(1 -1) rotate(47.111 778.486 176.831)"><tspan x="0" y="0" style="stroke-width:.407916">C</tspan></text><text style="font-variant:normal;font-weight:400;font-stretch:normal;font-size:14.3768px;font-family:&quot;Frutiger 55 Roman&quot;;writing-mode:lr-tb;fill:#fff;fill-opacity:1;fill-rule:nonzero;stroke:none;stroke-width:.407916" transform="scale(1 -1) rotate(53.849 690.4 127.425)"><tspan x="0" y="0" style="stroke-width:.407916">E</tspan></text><text style="font-variant:normal;font-weight:400;font-stretch:normal;font-size:14.3768px;font-family:&quot;Frutiger 55 Roman&quot;;writing-mode:lr-tb;fill:#fff;fill-opacity:1;fill-rule:nonzero;stroke:none;stroke-width:.407916" transform="scale(1 -1) rotate(67.048 567.485 54.651)"><tspan x="0" y="0" style="stroke-width:.407916">M</tspan></text><text style="font-variant:normal;font-weight:400;font-stretch:normal;font-size:14.3768px;font-family:&quot;Frutiger 55 Roman&quot;;writing-mode:lr-tb;fill:#fff;fill-opacity:1;fill-rule:nonzero;stroke:none;stroke-width:.407916" transform="scale(1 -1) rotate(76.038 504.408 20.503)"><tspan x="0" y="0" style="stroke-width:.407916">U</tspan></text><text style="font-variant:normal;font-weight:400;font-stretch:normal;font-size:14.3767px;font-family:&quot;Frutiger 55 Roman&quot;;writing-mode:lr-tb;fill:#fff;fill-opacity:1;fill-rule:nonzero;stroke:none;stroke-width:.407916" transform="scale(1 -1) rotate(83.093 462.873 -1.686)"><tspan x="0" y="0" style="stroke-width:.407916">S</tspan></text><text style="font-variant:normal;font-weight:400;font-stretch:normal;font-size:14.3768px;font-family:&quot;Frutiger 55 Roman&quot;;writing-mode:lr-tb;fill:#fff;fill-opacity:1;fill-rule:nonzero;stroke:none;stroke-width:.407916" transform="scale(1 -1) rotate(89.071 432.485 -18.883)"><tspan x="0" y="0" style="stroke-width:.407916">E</tspan></text><text style="font-variant:normal;font-weight:400;font-stretch:normal;font-size:14.3768px;font-family:&quot;Frutiger 55 Roman&quot;;writing-mode:lr-tb;fill:#fff;fill-opacity:1;fill-rule:nonzero;stroke:none;stroke-width:.407916" transform="matrix(-.11321 -.99356 -.99357 .11321 406.63 440.108)"><tspan x="0" y="0" style="stroke-width:.407916">U</tspan></text><text style="font-variant:normal;font-weight:400;font-stretch:normal;font-size:14.3768px;font-family:&quot;Frutiger 55 Roman&quot;;writing-mode:lr-tb;fill:#fff;fill-opacity:1;fill-rule:nonzero;stroke:none;stroke-width:.407916" transform="scale(-1 1) rotate(-74.544 77.994 479.585)"><tspan x="0" y="0" style="stroke-width:.407916">M</tspan></text><g style="stroke-width:.407916"><path d="M0 0a4.048 4.048 0 1 0-8.096 0A4.048 4.048 0 0 0 0 0" style="fill:#fff;fill-opacity:1;fill-rule:nonzero;stroke:none;stroke-width:.407916" transform="translate(231.005 390.632)"/></g><g style="stroke-width:.407916"><path d="M0 0a4.049 4.049 0 0 1 8.096 0A4.048 4.048 0 0 1 0 0" style="fill:#fff;fill-opacity:1;fill-rule:nonzero;stroke:none;stroke-width:.407916" transform="translate(391.773 390.632)"/></g><g style="stroke-width:.407916"><path d="m0 0-1.218.578 5.027 10.648a.655.655 0 0 1-.315.865l-1.329.627a.649.649 0 0 1-.867-.311l-4.295-9.1a1.715 1.715 0 0 0-2.278-.816l-2.164 1.024a1.71 1.71 0 0 0-.822 2.274l4.299 9.103a.66.66 0 0 1-.311.867l-1.331.625a.654.654 0 0 1-.869-.306l-4.675-9.908a3.103 3.103 0 0 1 1.482-4.128l8.691-4.103a.656.656 0 0 1 .87.314l.416.882A.65.65 0 0 1 0 0" style="fill:#fff;fill-opacity:1;fill-rule:nonzero;stroke:none;stroke-width:.407916" transform="translate(270.035 347.059)"/></g><g style="stroke-width:.407916"><path d="m0 0-4.751 3.499a1.711 1.711 0 0 0-.368 2.395L3.58 17.708a.658.658 0 0 1-.133.914l-1.183.87a.656.656 0 0 1-.916-.142L-7.877 6.824a3.104 3.104 0 0 1 .656-4.34l5.869-4.321a.657.657 0 0 1 .913.139l.582.786A.655.655 0 0 1 0 0" style="fill:#fff;fill-opacity:1;fill-rule:nonzero;stroke:none;stroke-width:.407916" transform="translate(250.879 357.508)"/></g><g style="stroke-width:.407916"><path d="m0 0 4.882-1.24a.654.654 0 0 1 .789.474l.24.945a.651.651 0 0 1-.468.79L-.062 2.365A4.362 4.362 0 0 1-5.366-.787l-1.471-5.804a4.366 4.366 0 0 1 3.156-5.299l5.51-1.395a.652.652 0 0 1 .786.474l.24.948a.652.652 0 0 1-.466.791l-4.885 1.237A2.234 2.234 0 0 0-4.113-7.12l1.398 5.503A2.236 2.236 0 0 0 0 0" style="fill:#fff;fill-opacity:1;fill-rule:nonzero;stroke:none;stroke-width:.407916" transform="translate(285.484 352.447)"/></g><g style="stroke-width:.407916"><path d="M0 0a2.24 2.24 0 0 0 2.401 2.052l2.072-.163A2.231 2.231 0 0 0 6.521-.514l-.054-.725c-.04-.494-.36-.763-.855-.724L.78-1.58a.903.903 0 0 0-.827.965zm6.877-8.477-5.271.415A2.237 2.237 0 0 0-.445-5.658l.148 1.874 7.485-.588a1.8 1.8 0 0 1 1.939 1.651l.169 2.138a4.364 4.364 0 0 1-4.004 4.695l-3.348.262a4.363 4.363 0 0 1-4.695-4l-.471-5.97a4.365 4.365 0 0 1 4.01-4.689l5.91-.466c.36-.028.67.242.697.601l.076.975a.647.647 0 0 1-.594.698" style="fill:#fff;fill-opacity:1;fill-rule:nonzero;stroke:none;stroke-width:.407916" transform="translate(298.964 347.4)"/></g><g style="stroke-width:.407916"><path d="m0 0-1.229-.551-4.81 10.748a.655.655 0 0 1-.863.326l-1.338-.599a.654.654 0 0 1-.332-.859l4.11-9.189a1.711 1.711 0 0 0-.862-2.261l-2.183-.975a1.71 1.71 0 0 0-2.261.861l-4.111 9.188a.66.66 0 0 1-.867.325l-1.336-.602a.65.65 0 0 1-.332-.858l4.475-9.997a3.102 3.102 0 0 1 4.101-1.565l8.77 3.925a.658.658 0 0 1 .33.862l-.401.893A.651.651 0 0 1 0 0" style="fill:#fff;fill-opacity:1;fill-rule:nonzero;stroke:none;stroke-width:.407916" transform="translate(359.262 350.071)"/></g><g style="stroke-width:.407916"><path d="m0 0-8.375-.349a.656.656 0 0 1-.629-.676l.043-.974a.655.655 0 0 1 .682-.627l1.209.051.492-11.764a.654.654 0 0 1 .68-.627l1.465.062a.652.652 0 0 1 .622.679L-4.232-4.17a1.716 1.716 0 0 0 1.644 1.78l1.301.055A1.713 1.713 0 0 0 .494-3.972l.036-.847a.657.657 0 0 1 .679-.626l1.465.06c.359.015.64.321.625.679l-.072 1.738A3.103 3.103 0 0 1 0 0" style="fill:#fff;fill-opacity:1;fill-rule:nonzero;stroke:none;stroke-width:.407916" transform="translate(323.643 351.523)"/></g><g style="stroke-width:.407916"><path d="m0 0-11.15-8.138a.655.655 0 0 1-.14-.906l.575-.787a.653.653 0 0 1 .908-.148l1.09.797 6.94-9.513a.658.658 0 0 1 .914-.141l1.185.863c.291.21.354.623.145.913l-6.188 8.482a1.277 1.277 0 0 0 .28 1.783l.719.523a1.283 1.283 0 0 0 1.786-.274l6.188-8.48a.649.649 0 0 1 .908-.149l1.187.866a.651.651 0 0 1 .139.912L-.699-4.919a1.279 1.279 0 0 0 .282 1.784l.719.528c.57.417 1.369.29 1.782-.282l6.186-8.479a.66.66 0 0 1 .916-.141l1.185.866c.289.211.352.62.139.913L3.855-.605A2.764 2.764 0 0 1 0 0" style="fill:#fff;fill-opacity:1;fill-rule:nonzero;stroke:none;stroke-width:.407916" transform="translate(371.434 372.722)"/></g><g style="stroke-width:.407916"><path d="m0 0-3.342-.844a.649.649 0 0 1-.471-.789l.239-.942a.652.652 0 0 1 .789-.478l1.781.449a1.016 1.016 0 0 0 1.229-.727l2.63-10.442a.653.653 0 0 1 .79-.477l1.425.362c.35.087.559.445.475.793L2.644-1.582A2.181 2.181 0 0 1 0 0" style="fill:#fff;fill-opacity:1;fill-rule:nonzero;stroke:none;stroke-width:.407916" transform="translate(334.002 353.926)"/></g><g style="stroke-width:.407916"><path d="M0 0a.685.685 0 0 0-.49-.833l-1.494-.374a.684.684 0 0 0-.832.495L-3.16.646a.69.69 0 0 0 .5.835l1.493.377c.36.09.735-.132.825-.5z" style="fill:#fff;fill-opacity:1;fill-rule:nonzero;stroke:none;stroke-width:.407916" transform="translate(335.41 356.884)"/></g></g></g></g></svg>