<svg xmlns="http://www.w3.org/2000/svg" xml:space="preserve" width="681.67773" height="299.99997" viewBox="0 0 681.67772 299.99997"><path d="M232.398 280.21v90.098h-54.272V280.21H152.84v102.845c0 6.916 5.624 12.54 12.537 12.54h79.767c6.916 0 12.54-5.624 12.54-12.54V280.21ZM323.432 350.079h25.286v-69.87h-25.286zm45.516 0h25.287v-69.87h-25.287Zm45.519-69.87v90.099H303.202V280.21h-25.29v102.844c0 6.917 5.625 12.54 12.538 12.54h136.763c6.914 0 12.54-5.623 12.54-12.54V280.21ZM544.598 350.079h-46.685v-25.287h46.685zm-84.615-69.87v102.845c0 6.917 5.627 12.54 12.54 12.54h72.075v-25.286H485.27V280.21z" style="fill:#559e78;fill-opacity:1;fill-rule:nonzero;stroke:none;stroke-width:2.93691" transform="matrix(1.33333 0 0 -1.33333 -124.67 527.46)"/><path d="M111.31 175.402h-.208l-11.425 15.803h-2.531v-20.252h2.613v15.765h.206l11.407-15.765h2.511v20.252h-2.573zM127.188 174.63c-.343-.566-.852-1.025-1.518-1.374-.67-.35-1.46-.523-2.373-.523-.643 0-1.216.091-1.71.276-.493.185-.88.455-1.163.817-.282.358-.42.799-.42 1.318 0 .805.324 1.416.97 1.836.649.417 1.568.664 2.754.734l2.291.159c.746.053 1.287.085 1.683.108v-1.53c0-.646-.17-1.254-.514-1.82m-.267 11.315a9.343 9.343 0 0 1-2.679.394c-1.15 0-2.185-.173-3.098-.523-.91-.352-1.645-.843-2.197-1.468a3.977 3.977 0 0 1-.98-2.162h2.593c.123.4.34.758.657 1.063.318.306.717.55 1.205.729.487.176 1.051.264 1.7.264.787 0 1.448-.118 1.98-.355.534-.238.933-.585 1.2-1.04.265-.455.4-1.005.4-1.65v-1.231c-.17-.006-.388-.015-.699-.035-.59-.027-1.21-.056-1.859-.094-.649-.036-1.222-.07-1.724-.103-1.715-.127-3.134-.514-4.25-1.16-1.122-.643-1.68-1.748-1.68-3.313 0-.96.238-1.795.711-2.5.473-.707 1.122-1.245 1.941-1.612.82-.37 1.733-.555 2.744-.555.851 0 1.6.126 2.243.376.646.25 1.166.555 1.56.913.393.362.69.735.89 1.125h.123v-2.056h2.49v10.006c0 1.466-.325 2.597-.977 3.396-.652.795-1.416 1.327-2.294 1.591M138.412 173.227c-.294.117-.54.343-.731.678-.191.332-.288.805-.288 1.419v8.801h3.336v2.018h-3.336v3.639h-2.511v-3.639h-2.388v-2.018h2.388v-9.436c0-.843.208-1.562.628-2.156a3.901 3.901 0 0 1 1.61-1.333 4.955 4.955 0 0 1 2.085-.446c.646 0 1.228.038 1.75.117v2.235a36.908 36.908 0 0 0-1.483-.059c-.41 0-.763.06-1.06.18M143.87 170.95h2.51v15.19h-2.51zM146.017 191.651c-.27.138-.561.208-.87.208-.317 0-.607-.07-.875-.208a1.705 1.705 0 0 1-.649-.584 1.445 1.445 0 0 1 0-1.613c.165-.244.382-.437.65-.581.267-.147.557-.218.875-.218.308 0 .599.07.869.218.27.144.485.337.643.581a1.483 1.483 0 0 1 0 1.612c-.158.25-.373.447-.643.585M160.89 175.61c-.344-.864-.867-1.554-1.569-2.068-.705-.514-1.568-.772-2.59-.772-1.028 0-1.895.258-2.593.772-.702.514-1.225 1.204-1.575 2.068-.352.863-.525 1.815-.525 2.857 0 1.049.173 2.006.525 2.876.35.866.873 1.56 1.575 2.079.698.52 1.565.781 2.593.781 1.022 0 1.885-.261 2.59-.781.702-.52 1.225-1.213 1.568-2.08.344-.869.514-1.826.514-2.875 0-1.042-.17-1.994-.514-2.857m-.396 9.75c-1.087.652-2.34.981-3.762.981-1.422 0-2.676-.329-3.762-.98-1.09-.653-1.933-1.575-2.538-2.764-.605-1.19-.907-2.567-.907-4.13 0-1.547.302-2.916.907-4.1.605-1.183 1.448-2.1 2.538-2.751 1.086-.655 2.34-.981 3.762-.981 1.421 0 2.675.326 3.762.98 1.087.653 1.93 1.569 2.526 2.753.599 1.183.895 2.552.895 4.1 0 1.562-.296 2.94-.895 4.129-.596 1.19-1.44 2.111-2.526 2.763M177.223 185.707c-.802.423-1.744.634-2.828.634-.778 0-1.466-.105-2.065-.317a4.389 4.389 0 0 1-1.536-.896 4.494 4.494 0 0 1-1.013-1.38h-.206v2.394h-2.428v-15.19h2.51v9.119c0 .855.17 1.595.517 2.214.341.62.814 1.093 1.416 1.413.6.323 1.286.485 2.062.485.743 0 1.383-.147 1.923-.444a2.915 2.915 0 0 0 1.237-1.295c.282-.57.423-1.24.423-2.018v-9.474h2.51v9.65c0 1.26-.22 2.32-.66 3.181-.438.86-1.06 1.501-1.862 1.924M192.561 174.63c-.343-.566-.851-1.025-1.518-1.374-.67-.35-1.46-.523-2.373-.523-.643 0-1.216.091-1.71.276-.493.185-.88.455-1.162.817-.282.358-.42.799-.42 1.318 0 .805.323 1.416.969 1.836.649.417 1.568.664 2.755.734l2.29.159c.746.053 1.287.085 1.683.108v-1.53c0-.646-.17-1.254-.514-1.82m-.267 11.315a9.343 9.343 0 0 1-2.678.394c-1.152 0-2.185-.173-3.099-.523-.913-.352-1.644-.843-2.197-1.468a4.003 4.003 0 0 1-.983-2.162h2.596c.123.4.34.758.658 1.063.317.306.716.55 1.204.729.487.176 1.054.264 1.7.264.787 0 1.448-.118 1.98-.355.534-.238.93-.585 1.2-1.04.265-.455.4-1.005.4-1.65v-1.231c-.17-.006-.387-.015-.699-.035-.59-.027-1.21-.056-1.859-.094-.649-.036-1.221-.07-1.724-.103-1.715-.127-3.133-.514-4.25-1.16-1.121-.643-1.68-1.748-1.68-3.313 0-.96.239-1.795.711-2.5.473-.707 1.122-1.245 1.942-1.612.82-.37 1.732-.555 2.743-.555.851 0 1.6.126 2.244.376.646.25 1.166.555 1.56.913.393.362.69.735.889 1.125h.123v-2.056h2.49v10.006c0 1.466-.325 2.597-.977 3.396-.652.795-1.416 1.327-2.294 1.591M199.538 170.95h2.511v20.254h-2.51zM224.348 174.533h-.246l-7.105 16.673h-3.148v-20.253h2.47v15.307h.185l6.546-15.307h2.326l6.547 15.286h.205v-15.286h2.473v20.253h-3.151zM248.926 177.182c0-.89-.202-1.642-.608-2.262a3.929 3.929 0 0 0-1.539-1.386 4.168 4.168 0 0 0-1.888-.464c-.673 0-1.266.147-1.78.444a3.16 3.16 0 0 0-1.216 1.26c-.293.543-.44 1.177-.44 1.894v9.474h-2.514v-9.65c0-1.255.217-2.309.649-3.166.431-.858 1.034-1.501 1.8-1.93.77-.429 1.662-.64 2.679-.64.766 0 1.46.12 2.079.364a4.872 4.872 0 0 1 1.577.984c.438.41.781.884 1.037 1.418h.164v-2.57h2.49v15.19h-2.49zM262.551 179.318l-2.367.555c-.92.218-1.598.5-2.038.85-.438.349-.661.777-.661 1.285 0 .423.147.808.435 1.158.287.35.684.622 1.189.819.502.2 1.075.297 1.712.297.899 0 1.613-.185 2.141-.552.529-.37.878-.884 1.052-1.542h2.47a4.497 4.497 0 0 1-.884 2.185c-.482.625-1.131 1.11-1.948 1.453-.816.344-1.759.514-2.83.514-1.14 0-2.15-.19-3.038-.572-.884-.385-1.574-.914-2.067-1.592a3.814 3.814 0 0 1-.743-2.306c0-1.022.361-1.882 1.08-2.587.723-.699 1.769-1.204 3.14-1.507l2.388-.534c.887-.197 1.542-.476 1.962-.831.423-.356.634-.805.634-1.345 0-.467-.15-.878-.443-1.23-.294-.353-.72-.626-1.275-.817-.558-.191-1.204-.288-1.947-.288-1.002 0-1.786.182-2.353.543-.563.364-.919.914-1.063 1.654h-2.617c.138-.926.462-1.707.97-2.344.505-.64 1.192-1.125 2.053-1.454.86-.332 1.876-.496 3.051-.496 1.298 0 2.411.2 3.342.593.928.397 1.639.937 2.127 1.624.484.685.728 1.469.728 2.353 0 1.054-.347 1.92-1.04 2.602-.693.678-1.747 1.183-3.16 1.512M271.644 179.793c.047.702.206 1.371.535 1.991a4.507 4.507 0 0 0 1.63 1.756c.705.444 1.518.661 2.443.661.852 0 1.601-.185 2.244-.56a3.807 3.807 0 0 0 1.495-1.575c.35-.67.526-1.43.526-2.273zm7.939 5.786c-1.031.508-2.15.76-3.348.76-1.41 0-2.652-.332-3.733-.998-1.08-.664-1.918-1.598-2.517-2.796-.596-1.201-.896-2.573-.896-4.118 0-1.548.3-2.913.896-4.088.6-1.178 1.454-2.088 2.57-2.734 1.113-.646 2.423-.97 3.923-.97 1.067 0 2.036.162 2.911.485.875.323 1.604.776 2.188 1.36a5.02 5.02 0 0 1 1.245 2.032h-2.675a3.303 3.303 0 0 0-.8-.89 3.729 3.729 0 0 0-1.23-.622 5.47 5.47 0 0 0-1.639-.23c-.972 0-1.826.21-2.56.623-.735.414-1.304 1.017-1.71 1.807-.364.707-.537 1.565-.575 2.534h11.436v1.01c0 1.78-.323 3.237-.966 4.373-.65 1.134-1.486 1.954-2.52 2.462M296.247 177.182c0-.89-.203-1.642-.608-2.262a3.929 3.929 0 0 0-1.54-1.386 4.177 4.177 0 0 0-1.888-.464c-.672 0-1.266.147-1.78.444a3.16 3.16 0 0 0-1.215 1.26c-.294.543-.444 1.177-.444 1.894v9.474h-2.511v-9.65c0-1.255.214-2.309.65-3.166.43-.858 1.033-1.501 1.8-1.93.769-.429 1.662-.64 2.678-.64.766 0 1.46.12 2.08.364a4.873 4.873 0 0 1 1.576.984c.438.41.782.884 1.037 1.418h.165v-2.57h2.49v15.19h-2.49zM321.28 185.767c-.728.382-1.573.573-2.53.573a6.247 6.247 0 0 1-2.04-.317 4.913 4.913 0 0 1-1.611-.893 4.358 4.358 0 0 1-1.087-1.38h-.165a4.636 4.636 0 0 1-.98 1.412c-.403.39-.876.684-1.416.881-.543.197-1.157.297-1.844.297-1.023 0-1.904-.226-2.64-.679a3.835 3.835 0 0 1-1.598-1.912h-.209v2.394h-2.429v-15.19h2.511v9.475c0 .716.165 1.363.497 1.941.326.579.76 1.022 1.3 1.34a3.373 3.373 0 0 0 1.745.475c.605 0 1.143-.117 1.615-.358.476-.235.84-.573 1.102-1.008.261-.434.39-.933.39-1.503v-10.362h2.535v9.868c0 .652.135 1.234.411 1.745.273.51.67.91 1.187 1.192.52.285 1.14.426 1.859.426.942 0 1.706-.252 2.3-.76.596-.509.892-1.29.892-2.344v-10.127h2.511v10.165c0 1.154-.202 2.123-.608 2.902-.405.78-.969 1.365-1.697 1.747M335.383 170.952h2.614v9.04h9.122v2.214h-9.122v6.764h10.067v2.235h-12.681zM361.653 175.61c-.343-.864-.866-1.554-1.571-2.068-.702-.514-1.565-.772-2.587-.772-1.031 0-1.895.258-2.594.772-.702.514-1.224 1.204-1.574 2.068-.352.863-.526 1.815-.526 2.857 0 1.049.174 2.006.526 2.876.35.866.872 1.56 1.574 2.079.7.52 1.563.781 2.594.781 1.022 0 1.885-.261 2.587-.781.705-.52 1.228-1.213 1.571-2.08.344-.869.514-1.826.514-2.875 0-1.042-.17-1.994-.514-2.857m-.396 9.75c-1.09.652-2.341.981-3.762.981-1.422 0-2.676-.329-3.763-.98-1.09-.653-1.932-1.575-2.537-2.764-.605-1.19-.908-2.567-.908-4.13 0-1.547.303-2.916.908-4.1.605-1.183 1.448-2.1 2.537-2.751 1.087-.655 2.341-.981 3.763-.981 1.421 0 2.672.326 3.762.98 1.086.653 1.93 1.569 2.525 2.753.6 1.183.896 2.552.896 4.1 0 1.562-.296 2.94-.896 4.129-.596 1.19-1.439 2.111-2.525 2.763M377.793 177.182c0-.89-.202-1.642-.608-2.262a3.941 3.941 0 0 0-1.536-1.386 4.189 4.189 0 0 0-1.891-.464c-.673 0-1.266.147-1.78.444a3.18 3.18 0 0 0-1.216 1.26c-.293.543-.44 1.177-.44 1.894v9.474h-2.511v-9.65c0-1.255.214-2.309.646-3.166.432-.858 1.034-1.501 1.803-1.93.767-.429 1.66-.64 2.676-.64.766 0 1.46.12 2.079.364a4.886 4.886 0 0 1 1.58.984c.435.41.778.884 1.034 1.418h.164v-2.57h2.49v15.19h-2.49zM394.356 185.707c-.802.423-1.747.634-2.83.634-.776 0-1.463-.105-2.066-.317a4.402 4.402 0 0 1-1.533-.896 4.4 4.4 0 0 1-1.013-1.38h-.205v2.394h-2.432v-15.19h2.514v9.119c0 .855.17 1.595.514 2.214.343.62.813 1.093 1.415 1.413.6.323 1.29.485 2.065.485.74 0 1.38-.147 1.924-.444a2.894 2.894 0 0 0 1.233-1.295c.285-.57.423-1.24.423-2.018v-9.474h2.514v9.65c0 1.26-.22 2.32-.66 3.181-.441.86-1.061 1.501-1.863 1.924M411.091 175.537c-.35-.87-.863-1.542-1.539-2.024-.675-.481-1.483-.722-2.423-.722-.975 0-1.803.25-2.481.752-.679.499-1.196 1.186-1.545 2.055-.35.873-.523 1.854-.523 2.95 0 1.08.17 2.046.514 2.895.344.852.855 1.521 1.533 2.009.679.487 1.513.731 2.502.731.955 0 1.766-.23 2.444-.69.675-.461 1.186-1.12 1.527-1.968.344-.852.517-1.844.517-2.978 0-1.14-.176-2.144-.526-3.01m.464 8.194h-.188a.494.494 0 0 1-.05.076c-.014.02-.029.047-.05.08-.29.437-.59.822-.895 1.157-.311.337-.764.637-1.36.901-.596.262-1.336.397-2.214.397-1.316 0-2.488-.32-3.51-.96-1.022-.64-1.818-1.554-2.388-2.738-.57-1.18-.854-2.56-.854-4.138 0-1.58.285-2.966.854-4.153.57-1.186 1.363-2.103 2.38-2.749 1.015-.646 2.173-.969 3.477-.969.886 0 1.632.138 2.24.414.608.28 1.066.588 1.384.931.317.344.62.737.907 1.187a.449.449 0 0 1 .08.117h.27v-2.332h2.429v20.253h-2.512zM427.151 174.63c-.343-.566-.849-1.025-1.518-1.374-.67-.35-1.46-.523-2.373-.523-.643 0-1.216.091-1.71.276-.493.185-.88.455-1.162.817-.28.358-.42.799-.42 1.318 0 .805.323 1.416.972 1.836.649.417 1.565.664 2.755.734l2.29.159c.743.053 1.284.085 1.68.108v-1.53c0-.646-.17-1.254-.514-1.82m-.267 11.315a9.338 9.338 0 0 1-2.676.394c-1.154 0-2.188-.173-3.098-.523-.913-.352-1.645-.843-2.2-1.468a3.977 3.977 0 0 1-.98-2.162h2.593c.123.4.34.758.658 1.063.317.306.716.55 1.204.729.487.176 1.054.264 1.7.264.787 0 1.448-.118 1.98-.355.534-.238.934-.585 1.2-1.04.268-.455.4-1.005.4-1.65v-1.231a22.001 22.001 0 0 1-.699-.035 174.955 174.955 0 0 1-3.583-.197c-1.715-.127-3.133-.514-4.25-1.16-1.118-.643-1.676-1.748-1.676-3.313 0-.96.234-1.795.707-2.5a4.497 4.497 0 0 1 1.942-1.612c.819-.37 1.732-.555 2.743-.555.851 0 1.6.126 2.243.376.647.25 1.166.555 1.56.913.394.362.69.735.89 1.125h.123v-2.056h2.49v10.006c0 1.466-.322 2.597-.977 3.396-.652.795-1.416 1.327-2.294 1.591M438.377 173.227c-.297.117-.54.343-.731.678-.191.332-.288.805-.288 1.419v8.801h3.336v2.018h-3.336v3.639h-2.511v-3.639h-2.39v-2.018h2.39v-9.436c0-.843.208-1.562.625-2.156a3.928 3.928 0 0 1 1.613-1.333 4.955 4.955 0 0 1 2.085-.446c.646 0 1.228.038 1.75.117v2.235a37.109 37.109 0 0 0-1.483-.059c-.411 0-.763.06-1.06.18M445.76 191.651c-.274.138-.562.208-.87.208-.317 0-.608-.07-.875-.208a1.705 1.705 0 0 1-.65-.584 1.445 1.445 0 0 1 0-1.613c.165-.244.382-.437.65-.581.267-.147.558-.218.875-.218.308 0 .596.07.87.218.27.144.484.337.642.581.159.244.235.511.235.802 0 .29-.076.56-.235.81-.158.25-.373.447-.643.585M443.613 170.95h2.511v15.19h-2.511zM460.63 175.61c-.343-.864-.866-1.554-1.571-2.068-.702-.514-1.565-.772-2.587-.772-1.031 0-1.895.258-2.594.772-.702.514-1.224 1.204-1.574 2.068-.352.863-.526 1.815-.526 2.857 0 1.049.174 2.006.526 2.876.35.866.872 1.56 1.574 2.079.7.52 1.563.781 2.594.781 1.022 0 1.885-.261 2.587-.781.705-.52 1.228-1.213 1.571-2.08.344-.869.514-1.826.514-2.875 0-1.042-.17-1.994-.514-2.857m-.396 9.75c-1.09.652-2.341.981-3.762.981-1.422 0-2.676-.329-3.763-.98-1.09-.653-1.932-1.575-2.537-2.764-.605-1.19-.908-2.567-.908-4.13 0-1.547.303-2.916.908-4.1.605-1.183 1.448-2.1 2.537-2.751 1.087-.655 2.341-.981 3.763-.981 1.421 0 2.672.326 3.762.98 1.086.653 1.93 1.569 2.525 2.753.6 1.183.896 2.552.896 4.1 0 1.562-.296 2.94-.896 4.129-.596 1.19-1.439 2.111-2.525 2.763M476.965 185.707c-.801.423-1.747.634-2.828.634-.778 0-1.465-.105-2.065-.317a4.389 4.389 0 0 1-1.536-.896 4.494 4.494 0 0 1-1.013-1.38h-.205v2.394h-2.43v-15.19h2.512v9.119c0 .855.17 1.595.517 2.214.34.62.813 1.093 1.415 1.413.6.323 1.287.485 2.062.485.743 0 1.383-.147 1.924-.444a2.915 2.915 0 0 0 1.236-1.295c.282-.57.423-1.24.423-2.018v-9.474h2.511v9.65c0 1.26-.22 2.32-.66 3.181-.438.86-1.06 1.501-1.863 1.924M501.58 175.61c-.344-.864-.867-1.554-1.572-2.068-.702-.514-1.565-.772-2.587-.772-1.031 0-1.895.258-2.594.772-.702.514-1.224 1.204-1.574 2.068-.352.863-.529 1.815-.529 2.857 0 1.049.177 2.006.53 2.876.349.866.871 1.56 1.573 2.079.7.52 1.563.781 2.594.781 1.022 0 1.885-.261 2.587-.781.705-.52 1.228-1.213 1.571-2.08.344-.869.514-1.826.514-2.875 0-1.042-.17-1.994-.514-2.857m-.396 9.75c-1.09.652-2.344.981-3.762.981-1.422 0-2.676-.329-3.763-.98-1.09-.653-1.932-1.575-2.54-2.764-.602-1.19-.905-2.567-.905-4.13 0-1.547.303-2.916.905-4.1.608-1.183 1.45-2.1 2.54-2.751 1.087-.655 2.341-.981 3.763-.981 1.418 0 2.672.326 3.762.98 1.086.653 1.93 1.569 2.525 2.753.6 1.183.896 2.552.896 4.1 0 1.562-.296 2.94-.896 4.129-.596 1.19-1.439 2.111-2.525 2.763M513 192.172c-.92 0-1.715-.159-2.388-.476-.672-.317-1.19-.77-1.553-1.363-.365-.596-.547-1.3-.547-2.117v-2.056h-2.552v-2.018h2.552l-.017-13.19h2.51l.018 13.19h3.501v2.018h-3.5v1.521c0 .793.202 1.369.613 1.733.406.361 1.055.543 1.939.543.42 0 .851-.035 1.298-.1v2.135c-.27.053-.573.097-.917.13-.343.032-.66.05-.957.05M537.543 191.205l-9.386-10.006h-.27v10.006h-2.614v-20.253h2.614v6.526l2.637 2.849 7.246-9.375h3.192l-8.81 11.116 8.81 9.137zM553.014 175.61c-.344-.864-.867-1.554-1.571-2.068-.702-.514-1.566-.772-2.588-.772-1.03 0-1.894.258-2.593.772-.702.514-1.225 1.204-1.574 2.068-.353.863-.526 1.815-.526 2.857 0 1.049.173 2.006.526 2.876.35.866.872 1.56 1.574 2.079.699.52 1.562.781 2.593.781 1.022 0 1.886-.261 2.588-.781.704-.52 1.227-1.213 1.57-2.08.344-.869.515-1.826.515-2.875 0-1.042-.17-1.994-.514-2.857m-.397 9.75c-1.09.652-2.34.981-3.762.981-1.421 0-2.675-.329-3.762-.98-1.09-.653-1.932-1.575-2.537-2.764-.605-1.19-.908-2.567-.908-4.13 0-1.547.303-2.916.908-4.1.605-1.183 1.447-2.1 2.537-2.751 1.087-.655 2.34-.981 3.762-.981 1.422 0 2.673.326 3.762.98 1.087.653 1.93 1.569 2.526 2.753.6 1.183.896 2.552.896 4.1 0 1.562-.297 2.94-.896 4.129-.596 1.19-1.439 2.111-2.526 2.763M564.2 186.063a4.208 4.208 0 0 1-1.438-.9 3.636 3.636 0 0 1-.896-1.335h-.167v2.314h-2.43v-15.19h2.515v9.572c0 .675.17 1.28.514 1.82.343.54.816.964 1.418 1.266.605.303 1.284.456 2.038.456.277 0 .556-.018.84-.053.285-.036.506-.074.667-.106v2.435c-.388.026-.82.038-1.298.038-.62 0-1.207-.106-1.762-.317M571.093 179.793c.05.702.205 1.371.534 1.991a4.493 4.493 0 0 0 1.633 1.756c.702.444 1.518.661 2.444.661.848 0 1.6-.185 2.243-.56a3.8 3.8 0 0 0 1.492-1.575c.35-.67.526-1.43.526-2.273zm7.941 5.786a7.49 7.49 0 0 1-3.351.76c-1.407 0-2.65-.332-3.733-.998-1.08-.664-1.918-1.598-2.517-2.796-.596-1.201-.896-2.573-.896-4.118 0-1.548.3-2.913.896-4.088.6-1.178 1.454-2.088 2.57-2.734 1.113-.646 2.423-.97 3.927-.97 1.063 0 2.032.162 2.907.485.875.323 1.604.776 2.188 1.36.585.582.999 1.26 1.245 2.032h-2.675a3.303 3.303 0 0 0-.799-.89 3.713 3.713 0 0 0-1.228-.622 5.47 5.47 0 0 0-1.638-.23c-.975 0-1.83.21-2.564.623-.734.414-1.304 1.017-1.71 1.807-.36.707-.537 1.565-.575 2.534h11.436v1.01c0 1.78-.323 3.237-.966 4.373-.646 1.134-1.483 1.954-2.517 2.462M594.532 174.63c-.344-.566-.852-1.025-1.518-1.374-.67-.35-1.46-.523-2.373-.523-.644 0-1.216.091-1.71.276-.493.185-.88.455-1.163.817-.282.358-.42.799-.42 1.318 0 .805.323 1.416.97 1.836.649.417 1.568.664 2.754.734l2.291.159c.746.053 1.287.085 1.683.108v-1.53c0-.646-.17-1.254-.514-1.82m2.027 9.724c-.652.795-1.416 1.327-2.294 1.591a9.343 9.343 0 0 1-2.679.394c-1.15 0-2.185-.173-3.098-.523-.91-.352-1.645-.843-2.197-1.468a3.977 3.977 0 0 1-.98-2.162h2.592c.124.4.341.758.658 1.063.318.306.717.55 1.204.729.488.176 1.055.264 1.7.264.788 0 1.449-.118 1.98-.355.535-.238.934-.585 1.202-1.04.264-.455.399-1.005.399-1.65v-1.231c-.17-.006-.388-.015-.699-.035-.59-.027-1.21-.056-1.859-.094-.65-.036-1.222-.07-1.724-.103-1.715-.127-3.134-.514-4.25-1.16-1.119-.643-1.68-1.748-1.68-3.313 0-.96.238-1.795.711-2.5.473-.707 1.122-1.245 1.941-1.612.82-.37 1.733-.555 2.743-.555.852 0 1.601.126 2.244.376.646.25 1.166.555 1.56.913.393.362.69.735.89 1.125h.123v-2.056h2.49v10.006c0 1.466-.325 2.597-.977 3.396M93.502 227.96h22.045v-9.955H96.789v-4.32h37.096v-13.322h4.799v17.642h-18.338v9.956h22.044v4.323H93.502ZM133.945 246.22c0-3.55-.461-7.218-1.23-9.809l-.224-.743h4.787l.124.405c.828 2.655 1.342 6.588 1.342 10.268v8.344H96.787v-4.382h37.158zM191.6 233.97c-2.84-2.018-6.973-3-12.627-3h-21.462v7.743h21.025v16.032h-25.827v-4.261h21.028v-7.448h-21.028v-16.268h25.548c6.023 0 10.396.916 13.342 2.799v-4.772h4.8V255.4h-4.8zM160.912 210.937H191.6v-6.074h-30.688zm30.688 4.261h-30.688v6.57h-4.799v-21.107H196.4v21.107h-4.8zM214.029 240.209h16.646v-10.077H214.03zm21.445 14.476h-4.799V244.47H214.03v10.215h-4.74V225.87h26.185zM211.798 214.52h35.665v-14.158h4.8v18.48h-40.465zM252.262 255.401h-4.799v-32.1h4.799v14.28h8.364v4.32h-8.364zM265.57 229.335h22.041v-5.892h-18.338V219.3h36.68v-5.236h-36.68v-13.401h42.852v4.14h-38.05v5.12h36.676v13.521h-18.4v5.892h22.103v4.261H265.57zM274.074 250.482h31.877v-7.627h-31.877zm36.676 4.203h-41.478v-16.03h41.478zM332.026 217.17h-4.799v-16.388h40.761v4.261h-35.962zM347.657 244.19c0-3.53-.335-6.964-.94-9.668l-.162-.705h4.832l.1.45c.634 2.821.969 6.313.969 10.102v10.314h-27.199v-4.378h22.4z" style="fill:#4f4c4d;fill-opacity:1;fill-rule:nonzero;stroke:none;stroke-width:2.93691" transform="matrix(1.33333 0 0 -1.33333 -124.67 527.46)"/><path d="M367.034 255.46h-4.802v-24.929c-2.726-1.644-6.943-2.549-11.906-2.549h-12.744v13.501h-4.799v-13.5h-9.98v-4.324h26.747c5.798 0 9.854.793 12.682 2.488v-9.657h4.802v17.983h8.423v4.379h-8.423zM388.784 250.423h31.88v-11.747h-31.88zm36.679 4.262h-41.478v-20.33h41.478zM388.783 216.811h-4.798V201.02h42.552v4.32h-37.754z" style="fill:#4f4c4d;fill-opacity:1;fill-rule:nonzero;stroke:none;stroke-width:2.93691" transform="matrix(1.33333 0 0 -1.33333 -124.67 527.46)"/><path d="M380.281 222.943h22.7V211.95h4.801v10.993h21.384v4.323h-48.885zM447.695 224.057c-1.527 1.469-2.332 3.369-2.332 5.498 0 2.165.805 4.088 2.332 5.557 1.592 1.536 3.789 2.346 6.35 2.346 2.64 0 4.875-.81 6.464-2.337 1.492-1.492 2.279-3.416 2.279-5.566 0-2.111-.787-4.014-2.264-5.492-1.636-1.518-3.936-2.352-6.48-2.352-2.463 0-4.719.83-6.349 2.346m34.05 31.402h-4.801v-43.255c-2.805-2.23-7.342-3.457-12.802-3.457h-7.727v8.884c2.94.38 5.56 1.53 7.4 3.255 2.468 2.273 3.772 5.271 3.772 8.67 0 3.462-1.304 6.458-3.76 8.657-2.325 2.262-5.797 3.51-9.782 3.51-3.944 0-7.392-1.245-9.698-3.492-2.473-2.153-3.783-5.154-3.783-8.676 0-3.46 1.307-6.458 3.768-8.667 1.88-1.756 4.394-2.88 7.284-3.257v-8.884h-13.501v-4.385h25.548c5.569 0 10.25 1.16 13.28 3.281v-6.326h4.803v27.064h8.84v4.32h-8.84z" style="fill:#4f4c4d;fill-opacity:1;fill-rule:nonzero;stroke:none;stroke-width:2.93691" transform="matrix(1.33333 0 0 -1.33333 -124.67 527.46)"/><path d="M469.08 250.085h-12.726v7.049h-4.737v-7.049H438.95v-4.261h30.13zM536.39 233.059h-7.923V255.1h-4.74v-53.184h4.74v26.702h7.923v-27.301h4.74V255.4h-4.74zM510.546 228.24v21.766h8.661v4.379h-22.182v-4.38h8.781V228.24c0-9.518-2.966-15.683-9.066-18.843l-.314-.161v-4.49l.793.32c5.051 2.029 9.086 6.173 10.948 11.192 1.848-5.081 5.868-9.248 10.905-11.254l.79-.318v4.5l-.323.158c-6.053 2.955-8.993 9.137-8.993 18.896M596.396 239.988v15.413h-4.799v-22.32c-2.848-1.96-7.098-2.95-12.625-2.95h-20.75v20.23h21.387v4.382h-26.185V225.87h24.89c6.162 0 10.408.87 13.284 2.732v-11.155h4.798v18.22h8.365v4.321zM561.45 218.96h-4.799v-17.94h40.762v4.32H561.45z" style="fill:#4f4c4d;fill-opacity:1;fill-rule:nonzero;stroke:none;stroke-width:2.93691" transform="matrix(1.33333 0 0 -1.33333 -124.67 527.46)"/></svg>