<svg xmlns="http://www.w3.org/2000/svg" width="1448.5785mm" height="300mm" viewBox="0 0 1448.5785 300"><defs><clipPath id="a" clipPathUnits="userSpaceOnUse"><path d="M260.232 411.223c-1.11-1.623-15.912-28.477-46.055-27.797-.406.016-.367-.393.002-.433 44.041-5.281 61.101 29.627 61.101 29.627h-12.006c-.145 0-.317.01-.509.01-.697 0-1.663-.14-2.533-1.407"/></clipPath><clipPath id="c" clipPathUnits="userSpaceOnUse"><path d="M0 841.89h595.276V0H0Z"/></clipPath><clipPath id="d" clipPathUnits="userSpaceOnUse"><path d="M171.174 412.62c7.357-12.748 20.063-23.724 35.176-26.665 15.117-2.946 28.075 3.067 28.075 3.067.324.13.233.433-.127.319 0 0-28.934-8.381-47.82 21.327-.66 1.038-1.311 1.952-2.906 1.952z"/></clipPath><clipPath id="f" clipPathUnits="userSpaceOnUse"><path d="M0 841.89h595.276V0H0Z"/></clipPath><linearGradient id="b" x1="0" x2="1" y1="0" y2="0" gradientTransform="scale(-71.00614) rotate(20 14.317 -14.01)" gradientUnits="userSpaceOnUse" spreadMethod="pad"><stop offset="0" style="stop-opacity:1;stop-color:#c4d700"/><stop offset="0.00561523" style="stop-opacity:1;stop-color:#c4d700"/><stop offset="0.11880232" style="stop-opacity:1;stop-color:#c4d700"/><stop offset="0.735962" style="stop-opacity:1;stop-color:#00a73c"/><stop offset="1" style="stop-opacity:1;stop-color:#007a41"/></linearGradient><linearGradient id="e" x1="0" x2="1" y1="0" y2="0" gradientTransform="rotate(160 83.706 213.26) scale(70.88506)" gradientUnits="userSpaceOnUse" spreadMethod="pad"><stop offset="0" style="stop-opacity:1;stop-color:#fdd000"/><stop offset="0.73696312" style="stop-opacity:1;stop-color:#e70"/><stop offset="1" style="stop-opacity:1;stop-color:#e70"/></linearGradient></defs><path d="M0 0h1.621L5.29-6.68h.022V0h1.19v-8.307H4.978L1.216-1.473H1.19v-6.834H0Z" style="fill:#595757;fill-opacity:1;fill-rule:nonzero;stroke:none" transform="matrix(5.3416 0 0 -5.3416 767.276 122.714)"/><g clip-path="url(#a)" transform="matrix(5.3416 0 0 -5.3416 -914.344 2342.891)"><path d="M260.232 411.223c-1.11-1.623-15.912-28.477-46.055-27.797-.406.016-.367-.393.002-.433 44.041-5.281 61.101 29.627 61.101 29.627h-12.006c-.145 0-.317.01-.509.01-.697 0-1.663-.14-2.533-1.407" style="fill:url(#b);stroke:none"/></g><g clip-path="url(#c)" transform="matrix(5.3416 0 0 -5.3416 -914.344 2342.891)"><path d="M0 0a2.336 2.336 0 0 0-2.342-2.34h-4.472v25.27c0 4.031 1.653 5.58 5.559 5.58h14.157c3.787 0 6.558-.744 8.293-2.27 1.745-1.521 2.615-3.925 2.615-7.223v-1.162c0-3.298-.87-5.429-2.615-6.947-1.735-1.52-4.506-2.267-8.293-2.275H2.404s1.71 5.432 7.845 5.432h2.327c1.475 0 2.494.318 3.231.943.819.698 1.214 2.223 1.214 3.67 0 1.521-.435 2.631-1.306 3.327-.88.691-1.815 1.05-3.677 1.05l-.051.008H3.478C.79 23.063 0 21.887 0 19.583Z" style="fill:#191878;fill-opacity:1;fill-rule:nonzero;stroke:none" transform="translate(249.148 409.553)"/><path d="M0 0a2.343 2.343 0 0 1-2.348-2.34v-3.087h18.025c3.747 0 6.498.743 8.243 2.249 1.747 1.493 2.625 3.725 2.625 6.92 0 3.151-.759 5.408-2.275 6.757-1.519 1.345-4.064 2.024-7.644 2.024H8.84c-1.369 0-2.72.28-3.403.846-.697.564-1.416 1.478-1.416 2.535 0 1.414.407 2.44 1.219 3.089.811.646 1.681.992 3.412.992h14.056a2.346 2.346 0 0 1 2.348 2.341v3.097H8.104c-3.791 0-6.552-.767-8.298-2.292-1.741-1.524-2.617-3.834-2.617-7.131 0-3.084.838-5.339 2.492-6.771 1.66-1.426 4.276-2.145 7.857-2.145h7.545c1.687 0 2.882-.277 3.582-.826.699-.549 1.051-1.463 1.051-2.763 0-1.243-.375-2.138-1.138-2.686C17.819.271 16.503 0 14.637 0Z" style="fill:#191878;fill-opacity:1;fill-rule:nonzero;stroke:none" transform="translate(278.236 412.64)"/><path d="M0 0a2.346 2.346 0 0 1-2.34-2.348v-19.345l-13.314 19.51C-16.482-.755-17.555 0-18.949 0h-7.06v-30.849l4.467.004a2.34 2.34 0 0 1 2.343 2.336v20.195l.007-.008 13.971-20.356s1.353-2.171 3.447-2.171h6.245V0Z" style="fill:#191878;fill-opacity:1;fill-rule:nonzero;stroke:none" transform="translate(234.002 438.062)"/><path d="M0 0c.446.38 1.133.619 1.756.619 1.119 0 1.501-.532 1.501-1.583-.442.024-.75.024-1.189.024-1.156 0-2.825-.474-2.825-1.998 0-1.32.918-1.888 2.232-1.888 1.02 0 1.614.556 1.878.927h.021v-.788h1.051c-.027.182-.052.5-.052 1.189v2.513c0 1.654-.7 2.513-2.438 2.513-.769 0-1.446-.24-2-.57zm3.257-2.326c0-.906-.585-1.601-1.69-1.601-.507 0-1.13.346-1.13.989 0 1.07 1.498 1.168 2.106 1.168.237 0 .476-.029.714-.029z" style="fill:#595757;fill-opacity:1;fill-rule:nonzero;stroke:none" transform="translate(323.093 412.02)"/><path d="M0 0h-1.608v-3.321c0-.706.422-1.085.938-1.085.342 0 .598.107.761.219v-.957c-.25-.071-.602-.166-.954-.166-1.155 0-1.866.541-1.866 1.767V0H-4.1v.901h1.371v1.406l1.121.36V.901H0Z" style="fill:#595757;fill-opacity:1;fill-rule:nonzero;stroke:none" transform="translate(332.215 412.5)"/><path d="M334.569 414.382h-1.261v1.259h1.261zm-1.188-.981h1.127v-6.069h-1.127z" style="fill:#595757;fill-opacity:1;fill-rule:nonzero;stroke:none"/><path d="M0 0c0-1.734 1.262-3.174 3.095-3.174 1.823 0 3.083 1.44 3.083 3.174 0 1.849-1.24 3.181-3.083 3.181C1.238 3.181 0 1.849 0 0m1.189 0c0 1.15.699 2.273 1.906 2.273C4.284 2.273 4.986 1.15 4.986 0c0-1.081-.582-2.274-1.891-2.274-1.322 0-1.906 1.193-1.906 2.274" style="fill:#595757;fill-opacity:1;fill-rule:nonzero;stroke:none" transform="translate(335.57 410.366)"/><path d="M0 0h1.087v-.964h.021C1.445-.273 2.257.144 3.099.144c1.573 0 2.275-.978 2.275-2.615v-3.6H4.253v3.14c0 1.42-.309 2.113-1.284 2.165-1.277 0-1.842-1.018-1.842-2.495v-2.81H0Z" style="fill:#595757;fill-opacity:1;fill-rule:nonzero;stroke:none" transform="translate(342.787 413.403)"/><path d="M0 0c.455.38 1.131.619 1.767.619 1.112 0 1.49-.532 1.49-1.583-.437.024-.741.024-1.186.024-1.154 0-2.818-.474-2.818-1.998 0-1.32.915-1.888 2.226-1.888 1.021 0 1.615.556 1.882.927h.024v-.788h1.05c-.034.182-.057.5-.057 1.189v2.513c0 1.654-.694 2.513-2.439 2.513-.768 0-1.437-.24-1.996-.57zm3.257-2.326c0-.906-.576-1.601-1.686-1.601-.51 0-1.126.346-1.126.989 0 1.07 1.494 1.168 2.106 1.168.24 0 .473-.029.706-.029z" style="fill:#595757;fill-opacity:1;fill-rule:nonzero;stroke:none" transform="translate(349.952 412.02)"/><path d="M355.603 415.641h1.118v-8.307h-1.118z" style="fill:#595757;fill-opacity:1;fill-rule:nonzero;stroke:none"/><path d="M0 0h1.189v3.358h1.172c1.494 0 2.938.66 2.938 2.5 0 1.89-1.415 2.49-3.12 2.49H0Zm1.189 7.3h1.015c.739 0 1.833-.382 1.833-1.43 0-1.094-.931-1.463-1.666-1.463H1.189Z" style="fill:#595757;fill-opacity:1;fill-rule:nonzero;stroke:none" transform="translate(362.076 407.295)"/><path d="M0 0c-.271-.23-1.129-.614-1.866-.614a1.984 1.984 0 0 0-1.998 2.021H.468c0 1.953-.657 3.43-2.677 3.43-1.714 0-2.847-1.273-2.847-3.069 0-1.979.987-3.29 3.14-3.29 1.001 0 1.489.244 1.916.397zm-3.864 2.245c.08.781.537 1.688 1.63 1.688.962 0 1.512-.759 1.512-1.688z" style="fill:#595757;fill-opacity:1;fill-rule:nonzero;stroke:none" transform="translate(372.896 408.666)"/><path d="M0 0h1.077v-.967h.027C1.439-.277 2.245.14 3.091.14c1.571 0 2.271-.973 2.271-2.604V-6.07H4.247v3.14c0 1.41-.309 2.109-1.286 2.165-1.274 0-1.845-1.026-1.845-2.499V-6.07H0Z" style="fill:#595757;fill-opacity:1;fill-rule:nonzero;stroke:none" transform="translate(374.45 413.363)"/><path d="M0 0c.44-.295 1.067-.429 1.39-.429.517 0 1.142.219 1.142.867 0 1.11-2.633 1.016-2.633 2.716 0 1.263.947 1.868 2.148 1.868.519 0 .954-.114 1.394-.233l-.094-.976c-.25.15-.918.307-1.182.307-.568 0-1.074-.236-1.074-.735 0-1.245 2.632-.883 2.632-2.826 0-1.292-1.037-1.894-2.119-1.894-.57 0-1.154.062-1.666.342z" style="fill:#595757;fill-opacity:1;fill-rule:nonzero;stroke:none" transform="translate(380.97 408.48)"/><path d="M386.854 414.382h-1.272v1.259h1.272zm-1.193-1.019h1.119v-6.072h-1.119z" style="fill:#595757;fill-opacity:1;fill-rule:nonzero;stroke:none"/><path d="M0 0c0-1.73 1.265-3.178 3.094-3.178C4.916-3.178 6.173-1.73 6.173 0c0 1.849-1.238 3.18-3.079 3.18C1.237 3.18 0 1.849 0 0m1.19 0c0 1.154.696 2.277 1.904 2.277 1.185 0 1.893-1.123 1.893-2.277 0-1.081-.584-2.271-1.893-2.271C1.772-2.271 1.19-1.081 1.19 0" style="fill:#595757;fill-opacity:1;fill-rule:nonzero;stroke:none" transform="translate(387.81 410.323)"/><path d="M0 0h1.083v-.967h.024C1.439-.277 2.248.14 3.089.14 4.664.14 5.37-.833 5.37-2.464V-6.07H4.249v3.14c0 1.41-.312 2.109-1.286 2.165-1.275 0-1.848-1.026-1.848-2.499V-6.07H0Z" style="fill:#595757;fill-opacity:1;fill-rule:nonzero;stroke:none" transform="translate(394.953 413.363)"/><path d="M0 0c-.616.242-.946.343-1.562.343-.67 0-1.457-.237-1.457-1.108 0-1.592 3.573-1.221 3.573-3.961 0-1.777-1.368-2.479-3.036-2.479-.582 0-1.151.173-1.703.351l.116 1.106c.411-.167 1.123-.409 1.734-.409.675 0 1.623.387 1.623 1.357 0 1.853-3.563 1.349-3.563 3.929 0 1.473 1.164 2.26 2.664 2.26.548 0 1.206-.089 1.776-.291z" style="fill:#595757;fill-opacity:1;fill-rule:nonzero;stroke:none" transform="translate(409.169 414.35)"/><path d="M0 0c-.275-.23-1.131-.614-1.87-.614a1.986 1.986 0 0 0-1.996 2.021H.462c0 1.953-.65 3.43-2.678 3.43-1.713 0-2.844-1.273-2.844-3.069 0-1.979.992-3.29 3.141-3.29 1.001 0 1.488.244 1.919.397zm-3.866 2.237c.079.789.531 1.696 1.623 1.696.967 0 1.515-.759 1.515-1.696z" style="fill:#595757;fill-opacity:1;fill-rule:nonzero;stroke:none" transform="translate(415.593 408.666)"/><path d="M0 0h1.046v-.945h.022C1.373-.311 2.008.14 2.657.14c.328 0 .497-.03.738-.086v-.999a1.634 1.634 0 0 1-.628.112c-.993 0-1.648-.958-1.648-2.48V-6.07H0Z" style="fill:#595757;fill-opacity:1;fill-rule:nonzero;stroke:none" transform="translate(417.022 413.363)"/><path d="M0 0h-1.329l-2.179 6.068h1.225l1.642-4.947h.024L1.05 6.068h1.129z" style="fill:#595757;fill-opacity:1;fill-rule:nonzero;stroke:none" transform="translate(424.515 407.295)"/><path d="M428.774 414.382h-1.261v1.259h1.261zm-1.192-1.019h1.123v-6.072h-1.123z" style="fill:#595757;fill-opacity:1;fill-rule:nonzero;stroke:none"/><path d="M0 0a3.329 3.329 0 0 1-1.211.262c-1.255 0-1.955-1.123-1.955-2.28 0-1.079.578-2.269 2.02-2.269.381 0 .859.12 1.2.347l.086-.998c-.462-.222-.999-.255-1.406-.255-1.829 0-3.091 1.447-3.091 3.175 0 1.849 1.235 3.182 3.091 3.182.456 0 1.04-.111 1.357-.233z" style="fill:#595757;fill-opacity:1;fill-rule:nonzero;stroke:none" transform="translate(434.034 412.339)"/><path d="M0 0c-.268-.23-1.131-.614-1.862-.614a1.988 1.988 0 0 0-2.004 2.021H.468c0 1.953-.654 3.43-2.683 3.43-1.715 0-2.839-1.273-2.839-3.069 0-1.979.985-3.29 3.142-3.29 1.001 0 1.483.244 1.912.397zm-3.866 2.237c.084.789.537 1.696 1.624 1.696.968 0 1.516-.759 1.516-1.696z" style="fill:#595757;fill-opacity:1;fill-rule:nonzero;stroke:none" transform="translate(439.696 408.666)"/></g><g clip-path="url(#d)" transform="matrix(5.3416 0 0 -5.3416 -914.344 2342.891)"><path d="M171.174 412.62c7.357-12.748 20.063-23.724 35.176-26.665 15.117-2.946 28.075 3.067 28.075 3.067.324.13.233.433-.127.319 0 0-28.934-8.381-47.82 21.327-.66 1.038-1.311 1.952-2.906 1.952z" style="fill:url(#e);stroke:none"/></g><g clip-path="url(#f)" transform="matrix(5.3416 0 0 -5.3416 -914.344 2342.891)"><path d="M0 0h-16.286v-2.138H-1.86v-5.083h-14.676v-2.138h7.07v-2.112h-7.07v-2.15H-1.86v-4.778h3.563v5.224c0 .936-.763 1.704-1.703 1.704h-5.901v2.112h7.604v7.664A1.7 1.7 0 0 1 0 0" style="fill:#595757;fill-opacity:1;fill-rule:nonzero;stroke:none" transform="translate(331.352 438.034)"/><path d="M350.896 428.251h3.56v9.78h-3.56z" style="fill:#595757;fill-opacity:1;fill-rule:nonzero;stroke:none"/><path d="M0 0h-3.558v-5.163c0-.94.759-1.699 1.7-1.699h16.276v2.142H0Z" style="fill:#595757;fill-opacity:1;fill-rule:nonzero;stroke:none" transform="translate(340.036 426.498)"/><path d="M339.772 435.894h4.947v-5.501h-4.947zm6.816-7.643c.936 0 1.697.76 1.697 1.696v8.087h-12.07v-8.087c0-.936.759-1.696 1.697-1.696zM393.632 421.78h-10.857v2.621h10.857zm-14.422 4.766v-5.208c0-.943.765-1.701 1.702-1.701h14.596c.93 0 1.689.758 1.689 1.701v5.208z" style="fill:#595757;fill-opacity:1;fill-rule:nonzero;stroke:none"/><path d="M0 0h-16.296v-2.138H-1.87v-5.083h-14.68v-2.138H1.689v7.664C1.689-.759.93 0 0 0" style="fill:#595757;fill-opacity:1;fill-rule:nonzero;stroke:none" transform="translate(395.508 438.034)"/><path d="M0 0h-3.032c.058.294.097.594.097.905 0 .325-.043.646-.103.955H0Zm-9.227-2.237c-1.504 0-2.721 1.407-2.721 3.142 0 1.739 1.217 3.151 2.721 3.151 1.506 0 2.726-1.412 2.726-3.151 0-1.735-1.22-3.142-2.726-3.142M0 5.695V4.003h-4.095c-1.139 1.37-3.006 2.27-5.132 2.27-3.47 0-6.291-2.403-6.291-5.368 0-2.961 2.821-5.365 6.291-5.365 2.15 0 4.043.92 5.178 2.321H0v-1.946h3.56v9.78z" style="fill:#595757;fill-opacity:1;fill-rule:nonzero;stroke:none" transform="translate(372.475 432.339)"/><path d="M0 0h-3.566v-5.163c0-.94.754-1.699 1.7-1.699h16.285v2.142H0Z" style="fill:#595757;fill-opacity:1;fill-rule:nonzero;stroke:none" transform="translate(361.615 426.498)"/><path d="M0 0h-3.56v-5.244c0-.938.754-1.693 1.694-1.693h16.284v2.143H0Z" style="fill:#595757;fill-opacity:1;fill-rule:nonzero;stroke:none" transform="translate(425.787 426.562)"/><path d="M0 0v3.26h-3.565v-7.641h-11.121v5.495h7.713V3.26h-11.282v-8.085c0-.936.76-1.695 1.695-1.695H0v4.377h2.149V0Z" style="fill:#595757;fill-opacity:1;fill-rule:nonzero;stroke:none" transform="translate(440.213 434.773)"/><path d="M0 0c0 .936-.754 1.695-1.697 1.695h-16.288v-2.14h14.42v-5.081h-4.838v2.553h-3.566v-2.553h-6.264v-2.142H0Z" style="fill:#595757;fill-opacity:1;fill-rule:nonzero;stroke:none" transform="translate(418.944 436.339)"/><path d="M0 0c-2.941 0-5.327.961-5.327 2.137 0 1.179 2.386 2.138 5.327 2.138 2.938 0 5.315-.959 5.315-2.138C5.315.961 2.938 0 0 0m0 6.214c-6.021 0-9.331-1.828-9.331-4.077 0-2.252 3.31-4.075 9.331-4.075 6.016 0 9.319 1.823 9.319 4.075 0 2.249-3.303 4.077-9.319 4.077" style="fill:#595757;fill-opacity:1;fill-rule:nonzero;stroke:none" transform="translate(409.808 421.04)"/></g></svg>