<svg xmlns="http://www.w3.org/2000/svg" width="830.12799pt" height="225pt" fill-rule="evenodd" viewBox="0 0 830.12799 225"><path d="M20.525 326.153h-32.41v-8.688H43.29c1.087-1.855 1.796-3.938 2.121-6.216.32-2.278.482-5.304.482-9.111v-5.011c0-.716-.117-1.204-.338-1.465-.225-.228-.69-.39-1.393-.39H-3.783v-8.656h59.524c.244 0 .465.065.621.228.163.162.238.455.238.813v15.555c0 4.1-.238 7.126-.726 9.046-.478 1.953-1.227 3.677-2.258 5.207h10.898v8.688H32.2v14.48h22.762c.329 0 .547.066.67.229.134.162.199.423.199.748v30.849H45.025v-22.193c0-.293-.078-.553-.247-.716-.153-.163-.368-.228-.615-.228H-2.341v-8.688h22.866ZM134.304 362.501c0 .553-.1.976-.286 1.204-.202.228-.547.326-1.061.326h-28.555c-.523 0-.885-.066-1.119-.196-.221-.097-.332-.553-.332-1.236v-6.866h31.353zm-4.24-41.815c-1.744.358-3.895.52-6.462.52h-32.7v-7.711h27.584c.635 0 1.093-.163 1.347-.521s.39-.814.39-1.302V289.09c0-.325-.074-.586-.201-.781-.12-.195-.348-.293-.667-.293H77.198v8.591h32.509v8.395H75.845v5.012h.859c1.161 0 2.033.39 2.616 1.171.573.749.866 1.692.866 2.799v8.005c0 2.961.53 5.044 1.594 6.215 1.058 1.204 2.838 1.79 5.347 1.79h33c3.53 0 6.41-.13 8.626-.39 2.226-.26 4.136-.814 5.743-1.628v5.11h10.423v-49.398h-15.623v4.816h1.722c1.152 0 2.027.456 2.62 1.367.572.879.858 1.822.858 2.799v26.618c-1.233.586-2.704 1.041-4.432 1.4zm-27.113 17.312H88.483v5.304h.97c.833 0 1.523.26 2.067.814.55.553.816 1.334.816 2.375v18.125c0 2.571.612 4.524 1.842 5.825 1.217 1.334 2.926 1.985 5.106 1.985h38.782c2.125 0 3.794-.65 5.008-1.985 1.227-1.301 1.845-3.254 1.845-5.825v-27.594h-14.47v5.206h.956c.833 0 1.533.293 2.073.846.553.52.826 1.334.826 2.343v1.757h-31.353zM169.36 298.135c2.125-2.668 4.696-4.035 7.722-4.035 3.027 0 5.627 1.367 7.813 4.035 2.187 2.734 3.28 5.955 3.28 9.763 0 3.807-1.093 7.028-3.28 9.73-2.186 2.7-4.786 4.067-7.813 4.067-3.026 0-5.597-1.367-7.722-4.068-2.115-2.7-3.185-5.922-3.185-9.73 0-3.807 1.07-7.028 3.185-9.762zm-7.468 25.545c4.208 4.328 9.268 6.508 15.19 6.508 6.04 0 11.155-2.18 15.337-6.508 4.185-4.36 6.27-9.6 6.27-15.782 0-6.183-2.085-11.422-6.27-15.783-4.182-4.328-9.297-6.508-15.337-6.508-5.922 0-10.982 2.18-15.19 6.508-4.21 4.36-6.322 9.6-6.322 15.783 0 6.182 2.112 11.421 6.322 15.782zm49.196 40.123c-.225.228-.593.325-1.12.325h-27.874c-.573 0-.954-.065-1.152-.195-.192-.13-.293-.553-.293-1.237v-16.303h30.774V362.6c0 .586-.11.976-.335 1.204zm-41.523.325c0 2.571.668 4.621 2.012 6.085 1.36 1.465 3.127 2.213 5.31 2.213h37.907c2.128 0 3.856-.748 5.216-2.213 1.354-1.464 2.034-3.514 2.034-6.085v-24.21c0-.651-.16-1.107-.449-1.4-.28-.292-.69-.422-1.204-.422h-56.048v4.816h1.74c1.162 0 2.034.39 2.6 1.171.583.748.882 1.692.882 2.766zm52.48-80.44h-15.637v4.815h1.735c1.158 0 2.03.456 2.606 1.367.58.879.869 1.822.869 2.799v41.457h10.426v-22.454h11.282v-9.664h-11.282zM268.656 304.611c0 3.482.38 6.54 1.155 9.21.771 2.667 1.767 5.043 2.984 7.093 1.549 2.57 3.374 4.653 5.503 6.183 2.115 1.53 4.272 2.636 6.462 3.286.319.065.491.163.491.326a.564.564 0 0 1-.205.423l-5.3 6.183c-1.035-.13-2.464-.684-4.296-1.627-1.829-.977-3.687-2.246-5.548-3.873-1.214-1.106-2.36-2.278-3.423-3.612a18.003 18.003 0 0 1-2.552-4.198c-.133-.325-.335-.488-.628-.488-.299 0-.465.163-.53.488a15.046 15.046 0 0 1-2.467 4.296 24.152 24.152 0 0 1-3.517 3.612c-1.744 1.594-3.528 2.863-5.353 3.775-1.836.878-3.297 1.399-4.39 1.529l-5.307-6.183c-.127-.13-.173-.26-.144-.423.026-.163.173-.26.43-.325 2.19-.586 4.308-1.562 6.375-2.961 2.047-1.367 3.856-3.255 5.408-5.63 1.35-2.05 2.402-4.523 3.17-7.322.777-2.83 1.164-6.117 1.164-9.86v-7.81c0-.943-.166-1.854-.494-2.7-.313-.846-1.09-1.237-2.31-1.237h-2.415v-5.5h15.737zm45.912 42.759h-9.743v-54.897c0-1.106-.241-2.017-.72-2.798-.494-.781-1.402-1.172-2.759-1.172h-.957v-4.816h14.179zm-24.5-40.546v-14.35c0-1.107-.251-2.018-.723-2.8-.491-.78-1.406-1.17-2.746-1.17h-.967v-4.817h14.178v63.683h-9.742v-31.858h-12.926v-8.688zm-15.532 34.851v19.655c0 .455.104.813.332 1.074.23.26.572.39 1.021.39h39.544v8.688h-44.558c-2.392 0-4.159-.65-5.314-1.887-1.155-1.269-1.725-3.254-1.725-5.955V350.43c0-1.074-.302-2.018-.882-2.799-.579-.781-1.444-1.139-2.6-1.139h-1.74v-4.816zM387.176 313.3v-20.631c0-.977-.283-1.92-.869-2.799-.58-.911-1.445-1.367-2.6-1.367h-1.738v-4.816h15.535v88.74h-10.328v-50.44H371.94V313.3zm-43.784 8.59v13.407c0 .65.153 1.106.475 1.432.32.358.706.488 1.159.488h32.12v8.688h-33.855c-3.472 0-6.078-.976-7.826-2.896-1.734-1.92-2.593-4.946-2.593-9.079v-35.209c0-1.074-.293-2.017-.876-2.798-.576-.749-1.441-1.14-2.6-1.14h-1.74v-4.815h46.009v8.655h-30.273V313.3h23.339v8.591zM-10.083 423.808v-.618c0-.13 0-.195.153-.228.095-.032 1.11-.293 1.787-1.041.257-.293.543-1.302.608-3.417.04-1.139.153-10.218.153-16.563-.761-1.237-2.346-2.669-3.667-2.896-.215-.066-.287-.098-.287-.326v-.65h5.627c5.463 8.623 10.055 15.489 13.5 20.272-.032-3.905-.256-11.78-.497-14.676-.247-3.124-.934-4.588-3.625-4.88v-.717h7.891v.456c0 .098-.032.26-.143.325-.469.13-.862.358-1.22.586-.755.488-1.474 1.53-1.474 4.068 0 1.204.032 8.265.107 14.578.036 1.985.075 3.937.114 5.564 0 .228-.078.358-.296.39H8.26c-1.581-2.342-6.781-9.11-14.786-21.183.068 3.97.25 12.007.325 14.513.108 3.807.527 5.467 3.485 5.825v.618zM24.04 413.102h-6.265c1.322-4.1 2.223-7.614 3.076-10.348 1.047 3.417 2.046 6.801 3.189 10.348zm8.008 10.739c.107 0 .107-.033.107-.163v-.52c0-.13-.03-.163-.169-.196-.218-.065-.713-.228-1.12-.52-.764-.554-.998-1.042-2.254-4.654a1105.834 1105.834 0 0 1-6.401-19.394c-.13-.456-.241-.553-.606-.553-.247 0-.328.097-.458.585-2.304 7.778-5.285 16.889-7.293 22.486-.293.846-.904 1.562-1.545 1.855-.28.13-.534.163-.892.195-.143.033-.143.065-.143.195v.488c0 .098 0 .163.062.163h6.257v-.618c-1.484-.065-2.092-.716-2.092-1.855 0-.26.049-.716.221-1.334l1.686-5.662h6.924l1.979 5.857c.17.52.277.976.277 1.334 0 1.204-.82 1.497-1.94 1.66v.618zM35.201 423.808c-.078 0-.088-.065-.088-.163v-.488c0-.13 0-.162.127-.195.355-.065 1.796-.163 2.372-1.041.358-.553.39-1.042.39-2.506v-19.98h-2.114c-3.482 0-4.234 1.952-4.52 4.979-.501 0-.72-.065-.72-.846v-4.523c0-.619.03-.814.06-.977H48.33c.114.196.153.39.153 1.01v4.555c0 .748-.172.813-.826.78-.29-3.026-1.038-4.978-4.53-4.978h-2.15v19.98c0 1.464 0 1.985.4 2.506.65.846 2.02 1.041 2.378 1.106.137.033.137.098.137.195v.423c0 .098-.03.163-.104.163zM58.78 398.068c.072 0 .108.033.108.163v.39c0 .13 0 .163-.147.228-.358.065-1.708.26-2.362 1.107-.397.52-.397 1.074-.397 2.538v16.889c0 1.464 0 2.017.397 2.538.654.846 2.004 1.041 2.362 1.106.147.033.147.098.147.195v.423c0 .098-.036.163-.108.163h-8.574c-.069 0-.114-.065-.114-.163v-.488c0-.13 0-.162.146-.195.361-.065 1.803-.163 2.376-1.041.358-.553.393-1.074.393-2.538v-16.89c0-1.463-.035-1.984-.393-2.537-.573-.879-2.015-.977-2.376-1.042-.146-.032-.146-.065-.146-.195v-.488c0-.13.045-.163.114-.163zM78.376 411.573c0 7.875-2.717 11.324-6.81 11.324-3.635 0-7.332-4.23-7.332-12.756 0-7.875 2.942-11.162 7.042-11.162 3.583 0 7.1 4.1 7.1 12.594zm3.345-1.107c0-6.833-3.7-12.625-9.798-12.625-6.14 0-11.021 4.978-11.021 13.406 0 6.801 4.198 12.789 10.374 12.789 5.955 0 10.445-5.142 10.445-13.57zM84.146 423.808v-.618c0-.13 0-.195.156-.228.104-.032 1.12-.293 1.783-1.041.274-.293.553-1.302.609-3.417.049-1.139.153-10.218.153-16.563-.762-1.237-2.327-2.669-3.648-2.896-.231-.066-.296-.098-.296-.326v-.65h5.646c5.447 8.623 10.035 15.489 13.475 20.272-.033-3.905-.228-11.78-.495-14.676-.247-3.124-.934-4.588-3.622-4.88v-.717h7.898v.456c0 .098-.046.26-.15.325-.472.13-.862.358-1.217.586-.748.488-1.48 1.53-1.48 4.068 0 1.204.045 8.265.104 14.578.049 1.985.088 3.937.117 5.564 0 .228-.068.358-.283.39h-.394c-1.598-2.342-6.785-9.11-14.793-21.183.075 3.97.244 12.007.325 14.513.108 3.807.54 5.467 3.473 5.825v.618zM118.288 413.102H112c1.337-4.1 2.222-7.614 3.088-10.348 1.054 3.417 2.056 6.801 3.199 10.348zm8.115 10.641v-.586c0-.13-.042-.162-.182-.195-.218-.065-.72-.228-1.113-.52-.758-.554-1.009-1.042-2.268-4.654-1.152-3.352-4.113-12.268-6.394-19.394-.127-.456-.247-.553-.599-.553-.247 0-.325.097-.465.585-2.3 7.778-5.278 16.889-7.286 22.486-.296.846-.898 1.562-1.54 1.855-.305.13-.54.163-.9.195-.15.033-.15.065-.15.195v.488c0 .098 0 .163.078.163h6.248v-.618c-1.471-.065-2.086-.716-2.086-1.855 0-.26.039-.716.208-1.334l1.692-5.662h6.925l1.978 5.857c.182.52.293.976.293 1.334 0 1.204-.833 1.497-1.95 1.66v.553zM128.014 423.808c-.176-.065-.224-.097-.224-.195v-.553c0-.098 0-.098.159-.13.348-.098 1.282-.196 1.91-1.074.199-.326.342-1.27.342-2.636v-16.726c0-1.464-.036-1.985-.39-2.538-.58-.879-2.021-.977-2.376-1.042-.143-.032-.143-.065-.143-.195v-.488c0-.13.032-.163.104-.163h8.542c.071 0 .107.033.107.163v.39c0 .13 0 .163-.146.228-.348.065-1.722.26-2.363 1.107-.384.52-.358 1.074-.358 2.538v16.466c0 1.04 0 1.757.544 2.538.612.846 2.073 1.009 4.155 1.009 3.267 0 3.915-2.31 4.745-4.817.543 0 .777.033.777.326 0 .13-.201 1.269-.423 2.603-.185 1.107-.354 2.31-.504 3.19zM167.964 424.036c-6.592 0-10.546-5.988-10.546-12.789 0-7.777 5.057-13.406 12.239-13.406 2.404 0 3.088.195 4.12.39.582.13.871.325.871.814v4.523c0 .293-.29.423-.794.423-.26-2.961-1.588-5.012-4.708-5.012-4.309 0-8.396 3.515-8.396 11.162 0 8.526 4.244 12.463 8.07 12.463 3.707 0 5.425-1.757 5.578-1.757.143 0 .143 0 .202.163l.354.585c-1.75 1.432-3.72 2.44-6.99 2.44z" style="fill:#737476;stroke:none;stroke-width:3.25409" transform="matrix(1.45505 0 0 1.45505 17.294 -391.992)"/><path d="M186.955 413.102h-6.28c1.328-4.1 2.226-7.614 3.082-10.348 1.044 3.417 2.053 6.801 3.198 10.348zm7.996 10.706c.114 0 .114 0 .114-.13v-.52c0-.13-.033-.163-.176-.196-.225-.065-.716-.228-1.116-.52-.749-.554-1.003-1.042-2.265-4.654a1168.247 1168.247 0 0 1-6.381-19.394c-.137-.456-.254-.553-.606-.553-.267 0-.332.097-.465.585-2.3 7.778-5.288 16.889-7.296 22.486-.286.846-.891 1.562-1.545 1.855-.287.13-.534.163-.889.195-.153.033-.153.065-.153.195v.488c0 .098 0 .163.072.163h6.244v-.618c-1.46-.065-2.076-.716-2.076-1.855 0-.26.036-.748.215-1.334l1.686-5.662h6.924l1.979 5.857c.182.52.296.976.296 1.334 0 1.204-.843 1.497-1.95 1.66v.618zM216.922 398.068v.456c0 .098-.052.26-.16.325-.452.13-.845.358-1.216.586-.736.488-1.452 1.53-1.452 4.068 0 1.204.03 8.265.108 14.578.032 1.985.062 3.937.1 5.564 0 .228-.068.358-.286.39h-.406c-1.572-2.342-6.772-9.11-14.777-21.183.075 3.97.237 12.007.315 14.513.111 3.807.537 5.467 3.486 5.825v.618h-7.355v-.618c0-.13 0-.195.14-.228.11-.032 1.12-.293 1.8-1.041.254-.293.53-1.334.615-3.417.026-1.139.136-10.218.136-16.563-.751-1.237-2.34-2.669-3.654-2.896-.237-.066-.293-.098-.293-.326v-.65h5.636c5.448 8.623 10.052 15.489 13.501 20.272-.052-3.905-.263-11.78-.51-14.676-.254-3.124-.934-4.588-3.629-4.88v-.717zM228.26 424.036c-6.61 0-10.563-5.988-10.563-12.789 0-7.777 5.073-13.406 12.255-13.406 2.395 0 3.075.195 4.129.39.566.13.86.325.86.814v4.523c0 .293-.294.423-.788.423-.248-2.961-1.592-5.012-4.719-5.012-4.295 0-8.395 3.515-8.395 11.162 0 8.526 4.253 12.463 8.083 12.463 3.687 0 5.428-1.757 5.57-1.757.134 0 .134 0 .212.163l.342.585c-1.747 1.432-3.726 2.44-6.987 2.44zM237.166 423.808c-.244-.065-.244-.097-.244-.195v-.553c0-.098 0-.098.097-.13.53-.13 2.08-.326 2.295-.781.146-.26.322-.521.322-3.027v-16.628c0-2.473-.104-2.636-.296-2.831-.384-.39-1.79-.456-2.285-.586-.133-.032-.133-.097-.133-.195v-.618c0-.13 0-.196.198-.196h13.957c0 .39-.026 1.79-.026 2.539 0 .976.059 3.058.059 3.254 0 .325-.173.358-.667.358-.284-2.831-1.152-4.816-4.631-4.816-1.289 0-2.551.097-2.72.357-.375.456-.469.716-.469 1.823v8.363h3.758c1.325 0 1.76-1.172 2.09-4.003.634 0 .745.033.745.326 0 .195-.11 2.83-.11 4.067 0 2.213.11 3.417.11 4.523 0 .326-.244.358-.745.358-.33-2.83-.765-4.035-2.09-4.035h-3.758v7.517c0 1.465.026 2.18.387 2.701.612.879 2.034 1.074 4.087 1.074 3.485 0 3.772-2.278 4.64-4.784.593 0 .684.033.684.326 0 .195-.27 2.31-.41 3.287a16.11 16.11 0 0 1-.527 2.505zM266.153 404.609c0 4.62-2.125 6.215-4.767 6.215-1.178 0-1.474-.065-1.806-.227v-10.804c.508-.488 1.487-.65 2.239-.65 2.538 0 4.334 1.496 4.334 5.466zm-3.345 19.2c.075 0 .114-.066.114-.131v-.618c0-.033-.04-.098-.114-.098-.345 0-2.148-.163-2.75-1.074-.319-.52-.432-1.464-.478-2.766-.032-.748 0-7.647 0-7.126.547 0 2.122.032 2.948-.13.837 1.594 1.9 4.197 2.795 6.15 1.182 2.57 1.943 4.49 2.984 5.044.687.39 1.396.78 3.229.78.5 0 1.08 0 1.773-.097.127 0 .127-.097.127-.358 0-.26-.127-.228-.244-.26-.358-.13-.797-.293-1.302-.716-2.72-2.44-5.483-8.851-6.837-11.422 2.587-.976 4.299-3.417 4.299-6.345 0-3.482-1.682-6.574-6.967-6.574-1.572 0-4.699.196-5.418.196h-2.795c-.254 0-.287.065-.287.162v.488c0 .13 0 .163.127.196.622.162 2.093.13 2.353.553.14.26.247.358.247 2.83v16.727c0 2.473-.14 2.668-.286 2.929-.257.455-1.38.65-2.02.813-.134.033-.134.033-.134.163v.52c0 .098.039.163.172.163zM297.083 424.036c-6.592 0-10.536-5.988-10.536-12.789 0-7.777 5.06-13.406 12.228-13.406 2.415 0 3.089.195 4.143.39.553.13.826.325.826.814v4.523c0 .293-.273.423-.768.423-.247-2.961-1.581-5.012-4.692-5.012-4.308 0-8.399 3.515-8.399 11.162 0 8.526 4.224 12.463 8.077 12.463 3.69 0 5.418-1.757 5.555-1.757.14 0 .14 0 .214.163l.365.585c-1.757 1.432-3.733 2.44-7.013 2.44zM305.996 423.808c-.254-.065-.254-.097-.254-.195v-.553c0-.098 0-.098.108-.13.534-.13 2.082-.326 2.3-.781.14-.26.323-.521.323-3.027v-16.628c0-2.473-.111-2.636-.283-2.831-.394-.39-1.806-.456-2.295-.586-.153-.032-.153-.097-.153-.195v-.618c0-.13 0-.196.222-.196h13.94c0 .39-.023 1.79-.023 2.539 0 .976.072 3.058.072 3.254 0 .325-.179.358-.674.358-.29-2.831-1.145-4.816-4.627-4.816-1.305 0-2.554.097-2.74.357-.355.456-.459.716-.459 1.823v8.363h3.778c1.318 0 1.738-1.172 2.06-4.003.66 0 .762.033.762.326 0 .195-.101 2.83-.101 4.067 0 2.213.1 3.417.1 4.523 0 .326-.26.358-.76.358-.323-2.83-.743-4.035-2.06-4.035h-3.779v7.517c0 1.465.04 2.18.384 2.701.622.879 2.054 1.074 4.087 1.074 3.495 0 3.782-2.278 4.638-4.784.605 0 .68.033.68.326 0 .195-.254 2.31-.388 3.287-.11.748-.292 1.627-.543 2.505zM345.032 398.068v.456c0 .098-.023.26-.12.325-.472.13-.879.358-1.227.586-.768.488-1.48 1.53-1.48 4.068 0 1.204.035 8.265.107 14.578.032 1.985.075 3.937.104 5.564 0 .228-.072.358-.293.39h-.37c-1.582-2.342-6.808-9.11-14.797-21.183.078 3.97.254 12.007.322 14.513.098 3.807.543 5.467 3.482 5.825v.618h-7.364v-.618c0-.13 0-.195.146-.228.104-.032 1.107-.293 1.79-1.041.257-.293.543-1.334.615-3.417.042-1.139.14-10.218.14-16.563-.755-1.237-2.333-2.669-3.66-2.896-.212-.066-.28-.098-.28-.326v-.65h5.629c5.454 8.623 10.042 15.489 13.495 20.272-.033-3.905-.251-11.78-.511-14.676-.235-3.124-.921-4.588-3.61-4.88v-.717zM364.31 398.068c.113.196.15.39.15 1.01v4.555c0 .748-.183.813-.83.78-.28-3.025-1.045-4.978-4.52-4.978h-2.155v19.98c0 1.464 0 1.985.394 2.506.648.846 2.008 1.041 2.369 1.106.143.033.143.098.143.195v.423c0 .098-.032.163-.117.163h-8.568c-.065 0-.107-.065-.107-.163v-.488c0-.13 0-.162.153-.195.358-.065 1.786-.163 2.365-1.041.355-.553.388-1.042.388-2.506v-19.98h-2.11c-3.49 0-4.236 1.952-4.519 4.979-.504 0-.713-.065-.713-.846v-4.523c0-.619.026-.814.056-.977zM366.317 423.808c-.247-.065-.247-.097-.247-.195v-.553c0-.098 0-.098.114-.13.527-.13 2.082-.326 2.294-.781.146-.26.325-.521.325-3.027v-16.628c0-2.473-.117-2.636-.299-2.831-.368-.39-1.793-.456-2.278-.586-.156-.032-.156-.097-.156-.195v-.618c0-.13 0-.196.228-.196h13.95c0 .39-.02 1.79-.02 2.539 0 .976.06 3.058.06 3.254 0 .325-.18.358-.694.358-.28-2.831-1.142-4.816-4.62-4.816-1.296 0-2.555.097-2.737.357-.355.456-.46.716-.46 1.823v8.363h3.756c1.34 0 1.773-1.172 2.096-4.003.644 0 .751.033.751.326 0 .195-.107 2.83-.107 4.067 0 2.213.107 3.417.107 4.523 0 .326-.247.358-.751.358-.323-2.83-.755-4.035-2.096-4.035h-3.755v7.517c0 1.465.035 2.18.4 2.701.608.879 2.034 1.074 4.09 1.074 3.482 0 3.762-2.278 4.628-4.784.605 0 .67.033.67.326 0 .195-.244 2.31-.384 3.287a18.442 18.442 0 0 1-.543 2.505zM395.32 404.609c0 4.62-2.124 6.215-4.78 6.215-1.184 0-1.47-.065-1.79-.227v-10.804c.509-.488 1.475-.65 2.22-.65 2.548 0 4.35 1.496 4.35 5.466zm-3.344 19.2c.075 0 .12-.066.12-.131v-.618c0-.033-.045-.098-.12-.098-.352 0-2.148-.163-2.753-1.074-.326-.52-.427-1.464-.472-2.766-.04-.748 0-7.647 0-7.126.543 0 2.131.032 2.938-.13.827 1.594 1.894 4.197 2.802 6.15 1.188 2.57 1.946 4.49 2.994 5.044.673.39 1.386.78 3.225.78.494 0 1.07 0 1.754-.097.143 0 .143-.097.143-.358 0-.26-.143-.228-.26-.26-.352-.13-.785-.293-1.28-.716-2.723-2.44-5.496-8.851-6.862-11.422 2.587-.976 4.308-3.417 4.308-6.345 0-3.482-1.676-6.574-6.964-6.574-1.588 0-4.698.196-5.414.196h-2.812c-.234 0-.276.065-.276.162v.488c0 .13 0 .163.15.196.608.162 2.079.13 2.332.553.14.26.235.358.235 2.83v16.727c0 2.473-.137 2.668-.277 2.929-.25.455-1.367.65-2.014.813-.15.033-.15.033-.15.163v.52c0 .098.049.163.192.163z" style="fill:#737476;stroke:none;stroke-width:3.25409" transform="matrix(1.45505 0 0 1.45505 17.294 -391.992)"/><path d="M435.519 414.501c-20.238-17.149-20.556-50.015 5.997-81.32l36.634 31.077z" style="fill:#e21c2a;stroke:none;stroke-width:3.25409" transform="matrix(1.45505 0 0 1.45505 17.294 -391.992)"/><path d="M441.516 333.182c31.106-36.674 73.445-57.825 117.105-63.78l-80.47 94.856z" style="fill:#fdc400;stroke:none;stroke-width:3.25409" transform="matrix(1.45505 0 0 1.45505 17.294 -391.992)"/><path d="m435.519 414.501 68.475-80.733 32.941 27.952s-43.22 90.692-101.416 52.781z" style="fill:#006eb5;stroke:none;stroke-width:3.25409" transform="matrix(1.45505 0 0 1.45505 17.294 -391.992)"/><path d="M537.036 361.883c14.924-28.929 21.894-61.177 21.585-92.481l-54.627 64.366-.032.065z" style="fill:#00a75d;stroke:none;stroke-width:3.25409" transform="matrix(1.45505 0 0 1.45505 17.294 -391.992)"/></svg>