<svg xmlns="http://www.w3.org/2000/svg" width="767.7301pt" height="450.00003pt" viewBox="0 0 767.73009 450.00001"><path fill="#f68b1e" d="M263.855 323.95c-7.76-4.679-5.518-3.149-10.84-3.824-.243 5.027-1.42 11.494-5.355 16.157-1.84 2.21-4.885 4.331-8.477 5.887-.232.085-.501.196-.791.322-.069.027-.127.064-.195.095-.243.08-.501.211-.77.3a.599.599 0 0 0-.175.075c-.3.095-.648.226-1.033.374 0 0-.048.01-.08.037-.385.127-.786.27-1.202.422-.043.01-.069.01-.085.021-.459.148-.928.317-1.424.47h-.047c-.507.163-1.018.316-1.578.469 0 0 0 .016-.026.016-.549.169-1.108.311-1.693.47-.021 0-.048 0-.069.01-.58.163-1.155.29-1.783.443-.016 0-.032.01-.063.02-.359 7.45 5.628 6.362 5.628 6.362-1.355 5.988-5.628 4.358-5.628 4.358-3.503-1.43-5.186-4.104-4.146-9.886-.87.148-1.757.29-2.701.422a2.552 2.552 0 0 0-.327.042c-.802.074-1.63.174-2.448.254-.163 0-.327 0-.485.037-1.857.142-3.788.2-5.75.158-.237-.006-.47-.006-.702-.006a63.27 63.27 0 0 1-2.547-.132c-.143-.021-.296-.053-.454-.058-1.008-.08-2-.185-2.996-.338a3.618 3.618 0 0 1-.65-.11 31.736 31.736 0 0 1-2.431-.465c-.285-.047-.549-.105-.802-.153a69.974 69.974 0 0 1-3.07-.828c-4.104 4.811-1.788 9.896-1.788 9.896-4.853 1.978-7.058-.786-7.058-.786-2.242-5.639 1.783-8.598 4.969-10.508l-.006-.01a36.29 36.29 0 0 1-2.48-1.097.093.093 0 0 1-.068-.047 36.307 36.307 0 0 1-2.369-1.235c-.058-.02-.1-.047-.168-.084-.755-.433-1.467-.886-2.205-1.35-.111-.07-.196-.138-.301-.19a79.77 79.77 0 0 1-2.03-1.435c-.154-.1-.286-.2-.418-.306a43.4 43.4 0 0 1-1.867-1.52c-.19-.158-.364-.31-.533-.458a30.441 30.441 0 0 1-1.725-1.61c-.19-.184-.411-.374-.612-.57a59.56 59.56 0 0 1-1.645-1.766c-.2-.211-.407-.422-.591-.628a45.473 45.473 0 0 1-2.174-2.659c-.353-.559-.68-1.128-.991-1.693a24.795 24.795 0 0 1-.834-1.677c-6.098 1.835-2.87 6.578-2.87 6.578-1.904-.111-4.884-1.578-5.3-2.933-1.62-2.69 1.35-9.485 6.377-8.952-2.005-8.456 1.45-16.775 6.219-23.865-.237-.105-.359-.258-.359-.258-2.395-7.206-8.445-5.882-8.445-5.882-2.348-5.692 2.11-6.805 2.11-6.805 7.169-.295 6.763 5.65 9.316 9.337 2.964-3.756 6.034-6.947 8.245-9.284.358-.332.78-.686 1.192-1.044.132-.122.285-.238.443-.364.274-.227.564-.449.855-.676.216-.174.422-.327.648-.5.211-.143.417-.307.612-.45a60.55 60.55 0 0 1 11.125-6.45c-2.474-4.975-3.956-8.456-4.784-10.872 2.711-.897 5.475-1.699 8.277-2.485-.565 7.575.917 8.604 1.92 11.33 6.599-2.062 13.683-2.568 20.034.175 3.693 1.424 7.2 3.861 10.35 7.56 12.618-12.56 11.795-6.758 11.795-6.758 5.65 3.402 4.015 7.875 4.015 7.875-8.831 2.079-7.929.77-12.228 4.015 6.478 10.972 9.363 20.778 9.664 28.997 14.57-.839 13.504 1.556 13.504 1.556 1.656 6.393-2.627 8.467-2.627 8.467m81.542-2.69c-11.426-41.352-5.539-56.919.776-76.184-4.648.07-7.275-.427-10.587-.986-8.346-1.36-11.885-6.589-11.885-6.589-1.42-15.972 5.175-24.76 11.7-29.419 1.546-1.07 3.956-2.521 6.752-3.54l-15.192-3.919-24.735 3.139-14.274-1.023-12.444 1.503-8.098 4.199-3.734.75-7.612-.85-13.257 1.034-14.037 3.36-22.825 8.862-23.4 7.797-22.91 9.31-20.736 13.678-17.84 6.594-4.569 14.697 1.446 11.294-3.144 22.952 1.814 22.867-1.814 22.973 2.732 22.857.312 22.904-.987 23.015.28 12.597 8.266 7.997 22.15-9.089 20.41-13.145 22.223-9.907 23.094-7.559 22.636-9.041 23.954-4.648 24.038-4.151 24.519 1.545 24.366-1.176 6.915 1.05c-2.8-6.52-5.333-14.042-7.686-22.804-6.425-23.828-18.768-29.377-18.768-29.377-16.485 6.214-21.159-10.54-15.235-16.601 2.073-2.1 8.319-6.261 15.409 1.34 3.581 3.845 3.566 9.015 2.854 11.647 14.052 10.872 17.054 20.927 23.046 39.442 2.026 6.198 4.996 12.196 8.388 17.566l1.904.285c5.027-19.059 3.323-40.07-4.215-67.247M227.92 297.75c-3.191-2.739-7.116-4.416-20.335 1.244-15.024 6.43-15.23 21.691-10.957 25.263 4.875 4.077 21.844 25.399 39.859 5.438 1.709-1.857 3.038-3.36 4.151-4.573.022-.232.037-.47.053-.739 1.725-18.246-12.77-26.634-12.77-26.634" style="stroke-width:5.27507" transform="translate(-104.552 -200.623)"/><path fill="#77a02e" d="M554.957 308.048c-5.702 7.675-14.29 3.238-14.29 3.238-10.444-7-.295-16.563-.295-16.563-8.113 2.685-14.776 7.812-20.22 13.973l4.574 6.716-4.68 3.186-3.586-5.302c-5.397 7.275-9.332 15.33-12.09 22.35l7.073 3.372-2.41 5.09-6.61-3.15c-2.448 7.148-3.455 12.202-3.455 12.202-1.034 5.892-2.147 10.809-3.27 14.886l6.925 3.313-2.426 5.122-6.156-2.938c-3.313 9.843-6.262 12.992-6.262 12.992-5.602 6.262-11.584 8.794-17.144 9.343l-2.326 10.07-5.502-1.261 2.052-8.889c-8.925-1.118-15.604-6.314-15.604-6.314-2.548-2.305-4.563-4.668-6.182-7.09l-8.198 3.92-2.447-5.096 7.918-3.793c-3.561-8.187-2.954-16.737-.132-24.92L432 350.249l1.498-5.444 8.878 2.443c4.484-9.622 11.594-18.432 17.887-25.062l-6.868-3.856 2.754-4.933 8.219 4.6c5.211-5.064 9.083-8.102 9.083-8.102a171.672 171.672 0 0 1 8.456-6.868l-5.723-5.534 3.94-4.062 6.399 6.183c10.54-7.465 19.829-11.906 27.905-14.37l-2.553-7.907 5.365-1.74 2.674 8.228c23.754-4.937 35.232 8.103 35.232 8.103 6.927 7.95-.19 16.12-.19 16.12m64.89 25.822.026.006c-5.787-3.344-15.177-14.116-12.355-30.152 1.878-10.54 4.484-18.8 8.235-24.846l-19.83-3.344-23.352-9.142-24.318-5.075-24.899-3.55-22.893-9.859-21.36-6.842-18.689-10.492-23.474-4.642-22.535-9.537-21.86-2.485-28.517-7.269c12.354 7.987 11.51 26.528 11.51 26.528-1.145 4.421-4.763 6.43-8.52 8.135-4.261 1.936-9.98 3.06-14.664 3.518-6.836 21.27-11.547 36.361.454 74.627 10.803 34.525 15.804 52.392 13.715 71.408l6.636 1.119c5.876-12.455 8.714-25.452 9.158-36.546.443-11.199-.021-36.873-3.471-49.111-4.025-8.93-3.46-21.259 6.947-27.33 12.275-7.174 17.07 5.333 15.688 12.19-1.952 9.85-8.72 14.845-17.898 16.306 2.147 14.67 5.048 35.928 4.594 50.16-.37 11.368-2.057 23.86-6.145 35.829l16.817 2.838 23.036 2.79 22.303 9.844 22.72 5.67 21.607 9.09 23.136 4.372 21.596 10.793 23.6 5.112 5.74 1.788 4.083-.87 1.43.944 2.759 2.516 9.046 2.828 23.606 5.401 4.954 1.446c-1.736-8.092-2.733-18.8-1.087-31.63.116-.96.269-1.862.417-2.79-26.56 6.868-55.863-13.99-56.887-57.778 1.778 4.077 6.135 12.006 28.227 20.156 16.59 6.124 21.48 24.34 30.195 29.308 2.104-9.326 5.148-17.434 8.978-26.059 3.355-7.522 6.525-14.744 8.065-21.981-21.511 7.121-45.676-10.434-43.941-45.724 1.097 3.16 6.794 12.533 20.008 16.89 18.083 5.94 17.07 22.182 24.577 24.788.106-.876.216-1.762.264-2.653.844-16.97-7.064-26.36-7.433-26.692m-165.11 18.099s-12.07 22.825 6.13 30.79c0 0 7.443 2.843 9.163-10.766 0 0 3.038-26.339 8.867-31.535.833-.743 1.335-1.44.448-3.133-2.764-4.442-10.592-11.674-24.608 14.644" style="stroke-width:5.27507" transform="translate(-104.552 -200.623)"/><path fill="#0083ca" d="M714.34 346.024a1.57 1.57 0 0 0-1.576 1.567c0 .865.701 1.582 1.577 1.582.87 0 1.588-.717 1.588-1.582 0-.866-.718-1.567-1.588-1.567m147.586 11.98-2.653-23.074 1.951-23.215-1.371-23.126 1.604-23.195-1.768-23.21-1.287-12.19-13.277-4.41-11.795 6.34-21.433 13.615-23.954 8.208-22.609 11.584-24.877 5.354-24.867 4.368-25.173 1.24-14.554 2.79-14.854 4.41-14.591 2.22-21.533-4.093c-.106 5.95.686 12.55 2.68 20.23 4.389 16.701 4.283 20.014 1.055 26.945-.602 1.277-2.247 3.382-3.688 4.806.465.438 7.797 11.447 7.085 27.467 8.113-8.424 6.34-22.788 23.105-30.774 13.657-6.5 18.478-18.59 19.238-22.493 6.515 42.786-17.978 66.93-42.554 59.207l-.222-.717c-1.176 9.685-4.02 17.946-7.601 27.256-3.186 8.187-5.586 15.862-6.81 23.363 15.403-7.137 9.854-17.286 39.853-28.812 18.88-7.285 27.109-10.27 32.642-20.362-7.005 55.109-45.08 75.381-73.313 58.59a61.698 61.698 0 0 0 .2 5.413c1.172 13.51 5.323 23.331 9.643 30.163l8.462.917 12.765 3.018 22.23.29 23.326 3.65 22.74-6.087 22.736-4.42 23.485-1.546 20.752-11.03 22.203-7.212 20.494-11.083 19.006-13.53 10.967-7.401 2.347-4.558-8.276-6.003-18.79-13.393s-5.412-.865-8.662-2.817c0 0-41.494 1.746-47.966-12.966 0 0-11.896-3.018-16.86-6.04 0 0-19.428-5.998-33.475-7.08 0 0-6.979 3.846-14.206-1.403-3.603-.221-13.346 2.923-14.981 3.577-1.635.66-7.216 2.954-1.53-1.53 5.681-4.484 15.198-6.926 15.198-6.926s2.279-8.377 12.248-4.362c0 0 31.123 14.263 44.095 7.126 0 0 12.824-3.946 3.017-19.58 0 0-8.113-6.347 7.544-41.315 0 0 2.943-3.187 2.22 8.155l2.76-7.406s3.845-4.162 3.512 11.178c0 0 3.84-10.06 4.901 4.51 0 0 3.94-7.464 5.011 4.631 0 0 .027 7.433-4.921 10.904 0 0 12.46.522 16.162-8.952 0 0 3.039-14.839 14.971-24.824 0 0 14.39-11.748 15.377-35.454.021-.56-.237-1.324.696-.876 0 0 3.292 1.16 3.84 14.987 0 0 6.046-22.314 6.558-3.73 0 0 7.337-11.32 4.288 10.002 0 0 6.63-7.401 1.93 10.307 0 0 1.557 22.862-8.956 25.01 0 0 2.163 16.136-19.84 50.535 0 0 2.522 4.03-3.313 3.587 0 0 5.397 4.547-1.297 4.763 0 0 7.997 0 12.533 2.806 0 0 10.155.655 7.132 4.975 0 0 4.11 4.753-4.964 7.137l23.965 14.464s1.883-.269 3.276-.2l1.408-2.733.122-12.829z" style="stroke-width:5.27507" transform="translate(-104.552 -200.623)"/><path fill="#6d6e71" d="M671.123 537.859v-3.187h14.179v-8.624h-38.218v8.63h13.831v3.18c0 18.68-18.41 29.958-18.41 29.958l5.914 6.52s11.99-7.449 17.771-17.788c0 0 5.745 9.78 17.435 16.743l5.586-6.625s-18.088-10.408-18.088-28.807M522.37 563.49l5.074-6.71s-13.193-8.503-13.193-26.797v-5.903h-9.822v5.903c0 19.56-14.543 29.23-14.543 29.23l6.103 6.203s8.398-5.808 13.778-15.361c0 0 2.532 5.68 12.603 13.435m-69.937-39.41h-34.885v8.277h22.958s-2.221 15.883-25.537 25.352l5.729 7.707s30.316-10.893 31.735-41.336m-292.372 6.24v-6.24h-43.699v8.54h33.961v1.63c0 8.135-.98 15.34-1.593 19.033h-44.178v8.197h28.854v11.811h-18.62v8.287h37.458v20.056h9.896v-28.343h-18.337v-11.81h27.679v-8.198h-13.257c.697-3.909 1.836-12.011 1.836-22.963m593.71 45.33v-10.266c10.466-.227 19.692-1.598 19.692-1.598v-7.496s-10.93 1.192-22.487 1.192h-26.73v7.934h19.466v10.233zm-382.68 21.226c-5.122 0-9.274-4.389-9.274-9.806 0-5.418 4.152-9.812 9.274-9.812 5.117 0 9.273 4.394 9.273 9.812 0 5.417-4.156 9.806-9.273 9.806m0-27.52c-10.44 0-18.896 7.929-18.896 17.714 0 9.78 8.456 17.719 18.896 17.719 10.44 0 18.9-7.94 18.9-17.72 0-9.784-8.46-17.713-18.9-17.713m80.714 27.52c-5.122 0-9.274-4.742-9.274-10.592 0-5.856 4.152-10.598 9.274-10.598 5.122 0 9.273 4.742 9.273 10.598 0 5.85-4.151 10.592-9.273 10.592m0-29.097c-10.44 0-18.9 8.282-18.9 18.505 0 10.218 8.46 18.505 18.9 18.505 10.434 0 18.895-8.287 18.895-18.505 0-10.223-8.461-18.505-18.895-18.505m82.28 29.097c-5.122 0-9.273-4.742-9.273-10.592 0-5.856 4.151-10.598 9.274-10.598 5.127 0 9.278 4.742 9.278 10.598 0 5.85-4.151 10.592-9.278 10.592m0-29.097c-10.435 0-18.896 8.282-18.896 18.505 0 10.218 8.461 18.505 18.896 18.505 10.439 0 18.895-8.287 18.895-18.505 0-10.223-8.456-18.505-18.895-18.505m212.886-37.764c4.827 0 8.74 3.803 8.74 8.503 0 4.695-3.913 8.498-8.74 8.498-4.832 0-8.746-3.803-8.746-8.498 0-4.7 3.914-8.503 8.746-8.503m0 24.903c10.139 0 18.368-7.337 18.368-16.4 0-9.068-8.23-16.41-18.368-16.41-10.144 0-18.368 7.342-18.368 16.41 0 9.063 8.224 16.4 18.368 16.4m83.969-1.313h9.447s2.168-9.031 2.353-23.617l.01-.006v-5.903H807.32v8.54h25.69c-.07 11.506-2.068 20.985-2.068 20.985m-600.405 6.24v-7.67s-9.194 1.182-18.916 1.182h-14.317v-6.836h21.665v-22.44h-31.74v8.112h21.665v6.552h-21.665v22.736h24.392c9.722 0 18.916-1.636 18.916-1.636m72.839-1.566v-7.68s-9.2 1.186-18.922 1.186H274.04V524.08h-9.986v35.823h20.399c9.722 0 18.922-1.624 18.922-1.624m545.285 7.474v-7.675s-10.93 1.187-22.488 1.187h-3.207v-17.47h-9.738v17.47h-11.025v8.118h23.97c11.558 0 22.488-1.63 22.488-1.63m-303.37-25.81h-6.082v-16.654h-9.3v42.127h9.3V548.74h6.082v18.642h9.664v-45.276h-9.664zm283.741 35.316h-9.901v25.59h44.094v-8.456h-34.193zm33.407-29.53v-23.622h-9.822v57.087h9.822V554h9.844v-8.271ZM568.338 562.34h28.269v5.839h-16.458v7.844h32.89v4.626h-32.89v20.23h44.1v-7.939h-33.603v-4.884h32.816v-19.877h-16.458v-5.84h28.27v-7.928h-66.936zm134.651-40.234h-9.732v79.528h9.732v-48.03h9.844v-8.282h-9.844zm-89.681 19.444h-23.263v-9.379h23.263zm10.133-17.47H580.15v25.583h43.292zm138.213 51.178H777.4v7.87h9.843v-61.022H777.4v45.561h-15.746zm-7.818 3.935h-9.901v21.655h44.094v-8.456h-34.193zm-281.167-57.087h-9.822v45.276h9.822v-19.686h9.843v-8.266h-9.843zm-238.16 43.309h9.807v-43.309h-9.807Zm141.41-14.57h18.399v-8.118h-35.929v-11.073h35.127v-8.366h-44.864v27.557h17.618v7.475h-28.643v8.271h66.93v-8.271h-28.639Zm-141.41 41.81h-23.695v-8.835h23.695zm0-16.532h-23.69v-6.768h-9.812v31.493h43.309v-31.493h-9.807zm39.337 4.236h33.486v21.275h9.822v-29.472h-43.308zm43.308-58.253h-9.822v45.276h9.822v-19.686h9.843v-8.266h-9.843zM114.787 621.057h4.373l9.896 18.062h.064v-18.062h3.212v22.43h-4.11l-10.154-18.447H118v18.447h-3.213zM145.866 635.68c-.216 0-.538-.01-.965-.032a21.182 21.182 0 0 0-.966-.032c-.575 0-1.166.032-1.767.095-.596.064-1.197.201-1.799.417a3.83 3.83 0 0 0-1.508.966c-.412.427-.612.986-.612 1.672 0 .812.316 1.461.95 1.941a3.362 3.362 0 0 0 2.104.723c1.456 0 2.58-.401 3.37-1.203.797-.807 1.193-1.836 1.193-3.102zm-8.968-7.422c1.736-1.034 3.535-1.546 5.402-1.546 2.29 0 3.962.564 5.011 1.688 1.05 1.124 1.577 2.822 1.577 5.096v6.778c0 .902.01 1.593.032 2.073.021.48.053.866.095 1.14h-2.827v-2.12h-.069c-.47.664-1.129 1.25-1.973 1.75-.844.507-1.878.755-3.102.755-1.846 0-3.307-.417-4.388-1.266-1.082-.85-1.62-2.126-1.62-3.84 0-.966.232-1.8.707-2.506a5.129 5.129 0 0 1 1.862-1.688 9.386 9.386 0 0 1 2.458-.918 12.1 12.1 0 0 1 2.59-.29h1.699c.411 0 .912.021 1.514.063 0-1.456-.306-2.532-.918-3.228-.612-.696-1.656-1.045-3.133-1.045-.855 0-1.715.153-2.57.454-.86.296-1.587.702-2.183 1.219zM152.387 619.383h3.023v14.37L162 627.1h4.114l-7.617 7.259 8.583 9.13h-4.342l-7.327-8.418v8.419h-3.023zM171.043 637.382c.185.728.465 1.398.839 2.01a4.56 4.56 0 0 0 1.43 1.477c.58.374 1.245.564 1.994.564.812 0 1.53-.184 2.152-.543a4.51 4.51 0 0 0 1.508-1.45 7.178 7.178 0 0 0 .87-1.958 8.545 8.545 0 0 0-.016-4.436 6.66 6.66 0 0 0-.917-1.978 4.541 4.541 0 0 0-1.524-1.398c-.612-.343-1.314-.517-2.11-.517-.77 0-1.446.163-2.02.485-.581.322-1.05.77-1.42 1.35a6.574 6.574 0 0 0-.802 1.942 10.044 10.044 0 0 0-.253 2.3c0 .707.09 1.424.27 2.152m9.21 3.793h-.069c-.47.728-1.187 1.36-2.152 1.899-.96.533-2.11.796-3.434.796-1.203 0-2.247-.237-3.134-.717a6.351 6.351 0 0 1-2.205-1.978c-.58-.834-1.007-1.783-1.287-2.844a13.23 13.23 0 0 1-.417-3.328c0-1.113.153-2.173.449-3.181a8.1 8.1 0 0 1 1.334-2.653 6.337 6.337 0 0 1 2.221-1.8c.886-.437 1.91-.659 3.065-.659 1.356 0 2.464.238 3.344.707a5.502 5.502 0 0 1 2.09 1.931h.063v-9.965h3.022v24.107h-2.89zM189.107 637.511c.205.728.522 1.388.95 1.978.427.586.965 1.06 1.619 1.414.654.353 1.408.528 2.268.528.855 0 1.609-.174 2.252-.528a4.916 4.916 0 0 0 1.604-1.414c.427-.59.744-1.25.95-1.978.2-.728.306-1.466.306-2.215 0-.792-.122-1.557-.354-2.284a6.877 6.877 0 0 0-1.013-1.979 4.818 4.818 0 0 0-1.624-1.382 4.55 4.55 0 0 0-2.121-.496c-.791 0-1.509.164-2.136.496a5.029 5.029 0 0 0-1.625 1.382 6.662 6.662 0 0 0-1.029 1.979 7.335 7.335 0 0 0-.353 2.284c0 .749.1 1.487.306 2.215m-2.928-5.655c.401-1.05.965-1.962 1.71-2.732a7.516 7.516 0 0 1 2.663-1.783c1.04-.417 2.173-.628 3.392-.628 1.219 0 2.347.211 3.376.628a7.665 7.665 0 0 1 2.653 1.783 7.944 7.944 0 0 1 1.699 2.732c.396 1.05.596 2.195.596 3.44 0 1.155-.2 2.257-.612 3.307a8.515 8.515 0 0 1-1.72 2.764 7.719 7.719 0 0 1-2.648 1.852c-1.033.438-2.147.654-3.344.654-1.203 0-2.31-.216-3.344-.654a7.893 7.893 0 0 1-2.68-1.868 8.268 8.268 0 0 1-1.74-2.764 9.286 9.286 0 0 1-.592-3.291c0-1.245.2-2.39.591-3.44M204.711 627.1h2.922v2.6h.069c.448-.923 1.166-1.646 2.152-2.184a6.66 6.66 0 0 1 3.213-.807c2.078 0 3.624.612 4.626 1.82 1.008 1.208 1.514 2.954 1.514 5.223v9.737h-3.023v-8.482c0-1.973-.258-3.418-.77-4.341-.517-.924-1.414-1.425-2.7-1.51-1.652 0-2.891.602-3.725 1.816-.839 1.208-1.255 2.853-1.255 4.932v7.585h-3.023zM232.864 639.44c.896-1.07 1.35-2.39 1.35-3.956 0-1.815-.411-3.329-1.24-4.531-.823-1.198-2.004-1.8-3.55-1.8a3.7 3.7 0 0 0-1.962.534 4.504 4.504 0 0 0-1.445 1.43 6.937 6.937 0 0 0-.866 1.977 8.22 8.22 0 0 0-.29 2.168c0 1.61.417 2.97 1.256 4.1.833 1.123 1.936 1.687 3.307 1.687 1.393 0 2.538-.538 3.44-1.609m4.373 3.34c0 2.552-.691 4.494-2.073 5.834-1.388 1.34-3.508 2.01-6.383 2.01-.897 0-1.783-.08-2.648-.243-.87-.158-1.947-.449-3.234-.881l.322-2.801c1.197.559 2.22.95 3.054 1.16.833.217 1.788.322 2.86.322 1.587 0 2.827-.501 3.729-1.509.896-1.007 1.35-2.379 1.35-4.114v-1.61h-.063a5.89 5.89 0 0 1-2.395 1.9 7.651 7.651 0 0 1-3.102.644c-1.14 0-2.152-.217-3.038-.644a6.237 6.237 0 0 1-2.216-1.767 7.71 7.71 0 0 1-1.319-2.59c-.29-.97-.432-2-.432-3.065 0-1.097.147-2.158.448-3.186.3-1.029.76-1.957 1.382-2.796a6.896 6.896 0 0 1 2.316-1.989c.918-.496 1.978-.744 3.18-.744 1.393 0 2.522.243 3.387.723.87.485 1.54 1.187 2.01 2.11h.064v-2.442h2.8zM250.893 639.44c.897-1.07 1.35-2.39 1.35-3.956 0-1.815-.41-3.329-1.239-4.531-.823-1.198-2.004-1.8-3.55-1.8-.728 0-1.382.18-1.957.534a4.467 4.467 0 0 0-1.45 1.43 6.937 6.937 0 0 0-.866 1.977 8.22 8.22 0 0 0-.29 2.168c0 1.61.417 2.97 1.255 4.1.834 1.123 1.936 1.687 3.308 1.687 1.393 0 2.537-.538 3.44-1.609m4.372 3.34c0 2.552-.69 4.494-2.073 5.834-1.387 1.34-3.508 2.01-6.377 2.01-.902 0-1.789-.08-2.654-.243-.87-.158-1.946-.449-3.233-.881l.321-2.801c1.203.559 2.221.95 3.055 1.16.833.217 1.788.322 2.859.322 1.588 0 2.827-.501 3.73-1.509.896-1.007 1.35-2.379 1.35-4.114v-1.61h-.064a5.89 5.89 0 0 1-2.395 1.9 7.67 7.67 0 0 1-3.101.644c-1.14 0-2.153-.217-3.039-.644a6.237 6.237 0 0 1-2.215-1.767 7.71 7.71 0 0 1-1.32-2.59c-.29-.97-.432-2-.432-3.065 0-1.097.148-2.158.449-3.186a8.77 8.77 0 0 1 1.382-2.796 6.896 6.896 0 0 1 2.316-1.989c.917-.496 1.978-.744 3.18-.744 1.393 0 2.522.243 3.392.723a4.908 4.908 0 0 1 2.005 2.11h.063v-2.442h2.801zM268.537 635.68c-.216 0-.538-.01-.965-.032a21.23 21.23 0 0 0-.96-.032c-.58 0-1.171.032-1.772.095-.597.064-1.198.201-1.8.417a3.869 3.869 0 0 0-1.508.966c-.406.427-.612.986-.612 1.672 0 .812.317 1.461.95 1.941a3.362 3.362 0 0 0 2.104.723c1.456 0 2.58-.401 3.371-1.203.797-.807 1.192-1.836 1.192-3.102zm-8.967-7.422c1.735-1.034 3.534-1.546 5.401-1.546 2.29 0 3.962.564 5.012 1.688 1.05 1.124 1.577 2.822 1.577 5.096v6.778c0 .902.01 1.593.032 2.073.02.48.052.866.095 1.14h-2.828v-2.12h-.063c-.475.664-1.134 1.25-1.978 1.75-.844.507-1.878.755-3.102.755-1.84 0-3.307-.417-4.389-1.266-1.081-.85-1.62-2.126-1.62-3.84 0-.966.238-1.8.708-2.506a5.129 5.129 0 0 1 1.862-1.688 9.457 9.457 0 0 1 2.458-.918 12.1 12.1 0 0 1 2.59-.29h1.704c.406 0 .907.021 1.508.063 0-1.456-.305-2.532-.912-3.228-.617-.696-1.657-1.045-3.139-1.045-.854 0-1.714.153-2.569.454-.854.296-1.588.702-2.184 1.219zM275.062 627.1h2.922v2.6h.063c.454-.923 1.171-1.646 2.158-2.184a6.66 6.66 0 0 1 3.212-.807c2.079 0 3.624.612 4.626 1.82 1.008 1.208 1.514 2.954 1.514 5.223v9.737h-3.022v-8.482c0-1.973-.259-3.418-.77-4.341-.517-.924-1.414-1.425-2.701-1.51-1.646 0-2.891.602-3.724 1.816-.84 1.208-1.256 2.853-1.256 4.932v7.585h-3.023zM303.214 639.44c.897-1.07 1.35-2.39 1.35-3.956 0-1.815-.41-3.329-1.24-4.531-.822-1.198-2.004-1.8-3.55-1.8-.727 0-1.381.18-1.956.534a4.467 4.467 0 0 0-1.45 1.43 6.938 6.938 0 0 0-.866 1.977 8.22 8.22 0 0 0-.29 2.168c0 1.61.417 2.97 1.255 4.1.834 1.123 1.936 1.687 3.308 1.687 1.392 0 2.537-.538 3.44-1.609m4.372 3.34c0 2.552-.69 4.494-2.073 5.834-1.387 1.34-3.508 2.01-6.383 2.01-.897 0-1.783-.08-2.648-.243-.87-.158-1.946-.449-3.233-.881l.321-2.801c1.203.559 2.221.95 3.055 1.16.833.217 1.788.322 2.859.322 1.587 0 2.827-.501 3.73-1.509.896-1.007 1.35-2.379 1.35-4.114v-1.61h-.064a5.89 5.89 0 0 1-2.395 1.9 7.652 7.652 0 0 1-3.101.644c-1.135 0-2.147-.217-3.039-.644a6.237 6.237 0 0 1-2.215-1.767 7.71 7.71 0 0 1-1.32-2.59c-.29-.97-.432-2-.432-3.065 0-1.097.148-2.158.449-3.186a8.77 8.77 0 0 1 1.382-2.796 6.896 6.896 0 0 1 2.315-1.989c.918-.496 1.979-.744 3.181-.744 1.393 0 2.522.243 3.392.723.865.485 1.53 1.187 2.01 2.11h.058v-2.442h2.801zM318.704 621.057h4.373l9.902 18.062h.063v-18.062h3.207v22.43h-4.109l-10.154-18.447h-.069v18.447h-3.212zM349.783 635.68c-.216 0-.538-.01-.965-.032-.428-.021-.75-.032-.96-.032-.58 0-1.171.032-1.773.095-.596.064-1.197.201-1.799.417a3.869 3.869 0 0 0-1.508.966c-.406.427-.612.986-.612 1.672 0 .812.316 1.461.95 1.941a3.362 3.362 0 0 0 2.104.723c1.456 0 2.58-.401 3.376-1.203.791-.807 1.187-1.836 1.187-3.102zm-8.968-7.422c1.736-1.034 3.535-1.546 5.402-1.546 2.29 0 3.962.564 5.011 1.688 1.05 1.124 1.578 2.822 1.578 5.096v6.778c0 .902.01 1.593.031 2.073.021.48.053.866.095 1.14h-2.827v-2.12h-.063c-.475.664-1.13 1.25-1.978 1.75-.844.507-1.878.755-3.102.755-1.841 0-3.308-.417-4.39-1.266-1.08-.85-1.619-2.126-1.619-3.84 0-.966.238-1.8.707-2.506a5.129 5.129 0 0 1 1.862-1.688 9.457 9.457 0 0 1 2.459-.918c.87-.19 1.735-.29 2.59-.29h1.704c.406 0 .907.021 1.508.063 0-1.456-.306-2.532-.918-3.228-.606-.696-1.65-1.045-3.133-1.045-.855 0-1.71.153-2.569.454-.855.296-1.588.702-2.184 1.219zM365.016 629.542h-4.336v8.967c0 .923.242 1.635.717 2.152.486.517 1.092.77 1.82.77.77 0 1.456-.195 2.057-.574v2.569c-.453.126-.886.232-1.303.321a6.362 6.362 0 0 1-1.266.127c-1.608 0-2.853-.39-3.734-1.171-.876-.786-1.314-1.978-1.314-3.587v-9.574h-3.698v-2.443h3.698v-3.793l3.023-.965v4.758h4.336zM367.592 627.1h3.022v16.39h-3.022zm3.207-3.666h-3.408v-3.408h3.408zM376.957 637.511c.206.728.517 1.388.95 1.978.427.586.965 1.06 1.62 1.414.653.353 1.408.528 2.267.528.855 0 1.61-.174 2.248-.528a4.934 4.934 0 0 0 1.608-1.414c.428-.59.744-1.25.95-1.978.2-.728.306-1.466.306-2.215 0-.792-.121-1.557-.353-2.284a6.761 6.761 0 0 0-1.019-1.979 4.751 4.751 0 0 0-1.619-1.382 4.55 4.55 0 0 0-2.12-.496c-.792 0-1.51.164-2.137.496a5.029 5.029 0 0 0-1.625 1.382 6.662 6.662 0 0 0-1.028 1.979 7.335 7.335 0 0 0-.354 2.284c0 .749.1 1.487.306 2.215m-2.928-5.655c.401-1.05.966-1.962 1.71-2.732a7.515 7.515 0 0 1 2.664-1.783c1.039-.417 2.173-.628 3.391-.628 1.219 0 2.348.211 3.376.628a7.595 7.595 0 0 1 2.649 1.783 7.957 7.957 0 0 1 1.703 2.732c.396 1.05.597 2.195.597 3.44 0 1.155-.201 2.257-.612 3.307a8.514 8.514 0 0 1-1.72 2.764 7.69 7.69 0 0 1-2.653 1.852c-1.03.438-2.142.654-3.34.654-1.202 0-2.315-.216-3.344-.654a7.966 7.966 0 0 1-2.685-1.868 8.338 8.338 0 0 1-1.736-2.764 9.286 9.286 0 0 1-.59-3.291c0-1.245.2-2.39.59-3.44M392.56 627.1h2.923v2.6h.069c.448-.923 1.166-1.646 2.152-2.184a6.66 6.66 0 0 1 3.213-.807c2.078 0 3.624.612 4.626 1.82 1.007 1.208 1.514 2.954 1.514 5.223v9.737h-3.023v-8.482c0-1.973-.258-3.418-.77-4.341-.517-.924-1.414-1.425-2.7-1.51-1.652 0-2.892.602-3.725 1.816-.839 1.208-1.255 2.853-1.255 4.932v7.585h-3.023zM420.327 635.68c-.216 0-.538-.01-.965-.032a21.182 21.182 0 0 0-.965-.032c-.575 0-1.166.032-1.768.095-.596.064-1.197.201-1.798.417a3.83 3.83 0 0 0-1.509.966c-.406.427-.612.986-.612 1.672 0 .812.317 1.461.95 1.941a3.362 3.362 0 0 0 2.104.723c1.456 0 2.58-.401 3.371-1.203.797-.807 1.192-1.836 1.192-3.102zm-8.967-7.422c1.735-1.034 3.534-1.546 5.401-1.546 2.29 0 3.962.564 5.012 1.688 1.05 1.124 1.577 2.822 1.577 5.096v6.778c0 .902.01 1.593.032 2.073.02.48.052.866.095 1.14h-2.828v-2.12h-.063c-.475.664-1.134 1.25-1.978 1.75-.844.507-1.878.755-3.102.755-1.846 0-3.308-.417-4.389-1.266-1.081-.85-1.62-2.126-1.62-3.84 0-.966.233-1.8.707-2.506a5.129 5.129 0 0 1 1.863-1.688 9.386 9.386 0 0 1 2.458-.918c.87-.19 1.735-.29 2.59-.29h1.698c.412 0 .913.021 1.514.063 0-1.456-.306-2.532-.917-3.228-.612-.696-1.657-1.045-3.134-1.045-.854 0-1.714.153-2.569.454-.854.296-1.588.702-2.184 1.219zM427.237 619.383h3.023v24.107h-3.023zM441.796 621.055h3.213v22.43h-3.213zM448.835 627.1h2.923v2.6h.068c.449-.923 1.166-1.646 2.153-2.184a6.66 6.66 0 0 1 3.212-.807c2.079 0 3.624.612 4.626 1.82 1.008 1.208 1.514 2.954 1.514 5.223v9.737h-3.022v-8.482c0-1.973-.259-3.418-.77-4.341-.517-.924-1.414-1.425-2.701-1.51-1.651 0-2.891.602-3.724 1.816-.84 1.208-1.256 2.853-1.256 4.932v7.585h-3.023zM465.642 640.275a6.939 6.939 0 0 0 1.93.854c.728.2 1.34.301 1.831.301.812 0 1.53-.19 2.157-.575.618-.385.929-.976.929-1.767 0-.601-.243-1.092-.723-1.482-.485-.385-1.24-.823-2.268-1.314-.68-.322-1.23-.601-1.64-.839a7.069 7.069 0 0 1-1.188-.865 3.94 3.94 0 0 1-.928-1.224c-.237-.469-.353-1.002-.353-1.603 0-1.63.538-2.88 1.62-3.745 1.08-.87 2.468-1.303 4.161-1.303.644 0 1.256.052 1.836.158.57.11 1.218.274 1.925.485l-.258 2.638c-.322-.196-.834-.38-1.54-.565-.707-.184-1.256-.274-1.641-.274-.812 0-1.498.174-2.057.517-.56.343-.834.833-.834 1.477 0 .665.238 1.181.723 1.556.48.375 1.224.802 2.236 1.271.66.301 1.208.57 1.636.802a6.6 6.6 0 0 1 1.224.886c.38.354.69.786.928 1.303.237.512.353 1.113.353 1.8 0 1.645-.553 2.91-1.672 3.792-1.113.876-2.463 1.313-4.046 1.313-.88 0-1.688-.063-2.426-.19a6.838 6.838 0 0 1-2.073-.706zM486.469 629.542h-4.341v8.967c0 .923.242 1.635.722 2.152.486.517 1.092.77 1.82.77.77 0 1.456-.195 2.057-.574v2.569c-.453.126-.886.232-1.303.321a6.362 6.362 0 0 1-1.266.127c-1.614 0-2.853-.39-3.734-1.171-.876-.786-1.32-1.978-1.32-3.587v-9.574h-3.692v-2.443h3.693v-3.793l3.022-.965v4.758h4.342zM489.04 627.1h3.023v16.39h-3.023zm3.212-3.666h-3.407v-3.408h3.407zM504.69 629.542h-4.342v8.967c0 .923.248 1.635.723 2.152.485.517 1.092.77 1.82.77.77 0 1.456-.195 2.057-.574v2.569c-.448.126-.886.232-1.303.321a6.362 6.362 0 0 1-1.266.127c-1.609 0-2.854-.39-3.735-1.171-.875-.786-1.313-1.978-1.313-3.587v-9.574h-3.698v-2.443h3.698v-3.793l3.017-.965v4.758h4.342zM521.37 643.49h-2.922v-2.601h-.07c-.447.918-1.165 1.646-2.151 2.184a6.656 6.656 0 0 1-3.213.802c-2.078 0-3.624-.607-4.626-1.83-1.008-1.225-1.514-2.955-1.514-5.207V627.1h3.023v8.482c0 1.973.258 3.418.77 4.341.517.924 1.419 1.425 2.7 1.51 1.652 0 2.891-.607 3.73-1.815.834-1.208 1.256-2.854 1.256-4.933V627.1h3.017zM533.615 629.542h-4.336v8.967c0 .923.237 1.635.717 2.152.486.517 1.092.77 1.82.77.77 0 1.456-.195 2.057-.574v2.569a21.24 21.24 0 0 1-1.303.321 6.362 6.362 0 0 1-1.266.127c-1.608 0-2.853-.39-3.734-1.171-.876-.786-1.314-1.978-1.314-3.587v-9.574h-3.698v-2.443h3.698v-3.793l3.023-.965v4.758h4.336zM546.406 633.72c0-1.309-.364-2.396-1.092-3.266-.728-.865-1.725-1.298-2.991-1.298-.707 0-1.33.127-1.862.386a3.742 3.742 0 0 0-1.335 1.044 4.816 4.816 0 0 0-.817 1.477 7.458 7.458 0 0 0-.385 1.656zm1.962 9.094c-.132.042-.28.1-.453.158-.728.28-1.44.501-2.137.66-.696.163-1.561.242-2.585.242-2.832 0-4.948-.786-6.361-2.358-1.42-1.577-2.126-3.745-2.126-6.51 0-1.202.18-2.31.548-3.328.364-1.018.881-1.9 1.557-2.638a6.961 6.961 0 0 1 2.447-1.714c.95-.411 1.994-.617 3.128-.617 1.33 0 2.464.232 3.392.696a5.799 5.799 0 0 1 2.253 1.925c.57.829.976 1.794 1.218 2.912.243 1.113.37 2.358.37 3.725h-11.695c0 .796.142 1.53.432 2.205.29.675.686 1.26 1.187 1.75.501.491 1.081.866 1.736 1.124a5.503 5.503 0 0 0 2.041.386c.47 0 .965-.053 1.477-.159a10.95 10.95 0 0 0 1.482-.416c.47-.174.887-.354 1.25-.549.365-.195.644-.364.84-.517zM561.817 637.511c.205.728.522 1.388.95 1.978.426.586.97 1.06 1.619 1.414.654.353 1.408.528 2.268.528.86 0 1.609-.174 2.247-.528a4.881 4.881 0 0 0 1.609-1.414c.427-.59.744-1.25.95-1.978a8.106 8.106 0 0 0 .305-2.215c0-.792-.116-1.557-.353-2.284a6.878 6.878 0 0 0-1.013-1.979 4.818 4.818 0 0 0-1.625-1.382 4.55 4.55 0 0 0-2.12-.496c-.791 0-1.509.164-2.137.496a5.028 5.028 0 0 0-1.624 1.382 6.662 6.662 0 0 0-1.029 1.979 7.335 7.335 0 0 0-.353 2.284c0 .749.1 1.487.306 2.215m-2.923-5.655a7.879 7.879 0 0 1 1.704-2.732 7.516 7.516 0 0 1 2.664-1.783c1.04-.417 2.173-.628 3.392-.628 1.218 0 2.347.211 3.376.628a7.616 7.616 0 0 1 2.653 1.783 7.944 7.944 0 0 1 1.699 2.732c.4 1.05.596 2.195.596 3.44a9.087 9.087 0 0 1-.612 3.307 8.514 8.514 0 0 1-1.72 2.764 7.69 7.69 0 0 1-2.653 1.852c-1.029.438-2.136.654-3.34.654-1.202 0-2.31-.216-3.344-.654a7.944 7.944 0 0 1-2.68-1.868 8.171 8.171 0 0 1-1.735-2.764 9.174 9.174 0 0 1-.596-3.291c0-1.245.2-2.39.596-3.44M579.38 629.542h-3.856v-2.443h3.856v-1.514c0-1.07.08-1.999.243-2.796.158-.79.443-1.471.85-2.041.41-.564.97-.997 1.687-1.298.718-.3 1.62-.453 2.717-.453.538 0 1.208.068 2.026.195l-.132 2.442c-.343-.126-.823-.195-1.445-.195-1.198 0-1.99.322-2.364.965-.374.644-.559 1.62-.559 2.928v1.767h4.342v2.443h-4.342v13.947h-3.022zM598.954 640.854h2.41c.792 0 1.51-.053 2.153-.164a5.823 5.823 0 0 0 1.72-.543 2.864 2.864 0 0 0 1.186-1.108c.29-.485.438-1.086.438-1.814 0-.818-.169-1.493-.501-2.026a3.289 3.289 0 0 0-1.314-1.224 5.912 5.912 0 0 0-1.804-.564 15.4 15.4 0 0 0-2.2-.143h-2.088zm0-10.218h1.767c.918 0 1.704-.042 2.347-.116a5.855 5.855 0 0 0 1.752-.464 2.637 2.637 0 0 0 1.218-1.092c.29-.496.433-1.14.433-1.93 0-.644-.122-1.182-.37-1.62a2.754 2.754 0 0 0-.96-1.034 4.267 4.267 0 0 0-1.318-.528 6.64 6.64 0 0 0-1.493-.158h-3.376zm-3.213-9.58h6.072c2.484 0 4.42.454 5.802 1.346 1.382.902 2.073 2.342 2.073 4.31 0 1.482-.4 2.648-1.186 3.502-.797.86-1.942 1.467-3.44 1.836v.063c1.562.127 2.817.675 3.777 1.64.95.96 1.43 2.216 1.43 3.757 0 1.16-.222 2.13-.66 2.911a4.859 4.859 0 0 1-1.835 1.847c-.781.448-1.678.77-2.696.95-1.023.179-2.142.273-3.36.273h-5.977zM614.06 627.1h3.022v16.39h-3.023zm3.212-3.666h-3.408v-3.408h3.408zM623.428 637.511c.2.728.517 1.388.95 1.978.427.586.965 1.06 1.619 1.414.654.353 1.408.528 2.268.528.855 0 1.604-.174 2.247-.528a4.934 4.934 0 0 0 1.61-1.414c.427-.59.743-1.25.949-1.978.2-.728.3-1.466.3-2.215 0-.792-.116-1.557-.353-2.284a6.748 6.748 0 0 0-1.013-1.979 4.75 4.75 0 0 0-1.62-1.382 4.55 4.55 0 0 0-2.12-.496c-.791 0-1.508.164-2.136.496a4.974 4.974 0 0 0-1.625 1.382 6.662 6.662 0 0 0-1.029 1.979 7.335 7.335 0 0 0-.353 2.284c0 .749.1 1.487.306 2.215m-2.928-5.655c.401-1.05.966-1.962 1.71-2.732a7.47 7.47 0 0 1 2.663-1.783c1.04-.417 2.174-.628 3.392-.628 1.219 0 2.348.211 3.376.628a7.595 7.595 0 0 1 2.648 1.783 7.957 7.957 0 0 1 1.704 2.732c.396 1.05.596 2.195.596 3.44a9.087 9.087 0 0 1-.612 3.307 8.514 8.514 0 0 1-1.72 2.764 7.74 7.74 0 0 1-2.653 1.852c-1.028.438-2.141.654-3.339.654-1.203 0-2.316-.216-3.344-.654a7.966 7.966 0 0 1-2.685-1.868 8.338 8.338 0 0 1-1.736-2.764 9.171 9.171 0 0 1-.59-3.291c0-1.245.195-2.39.59-3.44M639.417 619.383h3.022v24.107h-3.022zM648.784 637.511c.205.728.522 1.388.95 1.978.426.586.97 1.06 1.619 1.414.654.353 1.408.528 2.268.528.854 0 1.604-.174 2.247-.528a4.881 4.881 0 0 0 1.609-1.414c.427-.59.744-1.25.95-1.978a8.106 8.106 0 0 0 .305-2.215 7.34 7.34 0 0 0-.358-2.284 6.735 6.735 0 0 0-1.008-1.979 4.819 4.819 0 0 0-1.624-1.382 4.55 4.55 0 0 0-2.121-.496c-.791 0-1.509.164-2.136.496a4.974 4.974 0 0 0-1.625 1.382 6.662 6.662 0 0 0-1.029 1.979 7.335 7.335 0 0 0-.353 2.284c0 .749.1 1.487.306 2.215m-2.923-5.655a7.879 7.879 0 0 1 1.704-2.732 7.515 7.515 0 0 1 2.664-1.783c1.04-.417 2.173-.628 3.392-.628 1.218 0 2.342.211 3.376.628a7.547 7.547 0 0 1 2.648 1.783 7.957 7.957 0 0 1 1.704 2.732c.396 1.05.596 2.195.596 3.44a9.087 9.087 0 0 1-.612 3.307 8.514 8.514 0 0 1-1.72 2.764 7.69 7.69 0 0 1-2.653 1.852c-1.029.438-2.136.654-3.34.654-1.202 0-2.31-.216-3.343-.654a7.893 7.893 0 0 1-2.68-1.868 8.171 8.171 0 0 1-1.736-2.764 9.175 9.175 0 0 1-.596-3.291c0-1.245.2-2.39.596-3.44M674.51 639.44c.902-1.07 1.35-2.39 1.35-3.956 0-1.815-.411-3.329-1.24-4.531-.822-1.198-2.004-1.8-3.55-1.8-.728 0-1.382.18-1.957.534-.58.353-1.06.828-1.445 1.43a6.949 6.949 0 0 0-.87 1.977 8.22 8.22 0 0 0-.29 2.168c0 1.61.421 2.97 1.255 4.1.833 1.123 1.936 1.687 3.307 1.687 1.393 0 2.543-.538 3.44-1.609m4.373 3.34c0 2.552-.691 4.494-2.073 5.834-1.382 1.34-3.508 2.01-6.378 2.01-.902 0-1.788-.08-2.653-.243-.865-.158-1.947-.449-3.234-.881l.322-2.801c1.203.559 2.22.95 3.054 1.16.834.217 1.788.322 2.86.322 1.587 0 2.832-.501 3.729-1.509.902-1.007 1.35-2.379 1.35-4.114v-1.61h-.063a5.89 5.89 0 0 1-2.395 1.9 7.658 7.658 0 0 1-3.107.644c-1.129 0-2.142-.217-3.033-.644a6.237 6.237 0 0 1-2.216-1.767 7.71 7.71 0 0 1-1.319-2.59c-.29-.97-.432-2-.432-3.065 0-1.097.148-2.158.448-3.186a8.882 8.882 0 0 1 1.382-2.796 6.93 6.93 0 0 1 2.31-1.989c.924-.496 1.99-.744 3.187-.744 1.393 0 2.521.243 3.392.723.865.485 1.535 1.187 2.01 2.11h.063v-2.442h2.796zM682.804 627.1h3.023v16.39h-3.023zm3.213-3.666h-3.408v-3.408h3.408zM700.156 629.861c-1.134-.47-2.226-.707-3.276-.707-.812 0-1.556.164-2.22.496a4.892 4.892 0 0 0-1.667 1.372 6.115 6.115 0 0 0-1.03 1.973 7.484 7.484 0 0 0-.353 2.3c0 .77.106 1.513.317 2.236.216.712.543 1.366.981 1.957a4.763 4.763 0 0 0 1.704 1.414c.702.353 1.514.527 2.463.527a6.47 6.47 0 0 0 1.683-.237 5.34 5.34 0 0 0 1.562-.691l.226 2.696a6.56 6.56 0 0 1-1.82.532c-.654.095-1.313.143-1.978.143-1.197 0-2.31-.217-3.339-.654a7.891 7.891 0 0 1-2.685-1.868 8.202 8.202 0 0 1-1.735-2.764 9.15 9.15 0 0 1-.591-3.292c0-1.244.195-2.39.59-3.439a8.007 8.007 0 0 1 1.705-2.732 7.49 7.49 0 0 1 2.669-1.783c1.039-.417 2.168-.628 3.386-.628.602 0 1.25.069 1.947.195.696.127 1.271.28 1.72.448zM712.144 635.68c-.217 0-.538-.01-.966-.032-.427-.021-.749-.032-.96-.032a16.9 16.9 0 0 0-1.772.095c-.596.064-1.198.201-1.799.417a3.83 3.83 0 0 0-1.509.966c-.406.427-.611.986-.611 1.672 0 .812.316 1.461.949 1.941a3.362 3.362 0 0 0 2.105.723c1.456 0 2.585-.401 3.37-1.203.797-.807 1.193-1.836 1.193-3.102zm-8.968-7.422c1.736-1.034 3.534-1.546 5.402-1.546 2.29 0 3.961.564 5.011 1.688 1.05 1.124 1.577 2.822 1.577 5.096v6.778c0 .902.01 1.593.032 2.073.021.48.053.866.095 1.14h-2.827v-2.12h-.064c-.474.664-1.134 1.25-1.978 1.75-.844.507-1.878.755-3.102.755-1.84 0-3.307-.417-4.383-1.266-1.087-.85-1.625-2.126-1.625-3.84 0-.966.237-1.8.707-2.506a5.129 5.129 0 0 1 1.862-1.688 9.457 9.457 0 0 1 2.458-.918c.87-.19 1.736-.29 2.59-.29h1.704c.406 0 .907.021 1.509.063 0-1.456-.306-2.532-.913-3.228-.612-.696-1.656-1.045-3.138-1.045-.855 0-1.71.153-2.57.454-.854.296-1.587.702-2.183 1.219zM719.055 619.383h3.022v24.107h-3.022zM736.631 630.698h2.738c1.52 0 2.706-.317 3.566-.95.854-.633 1.287-1.482 1.287-2.553 0-1.029-.39-1.836-1.16-2.427-.77-.59-1.884-.886-3.345-.886h-3.086zm-3.207-9.643h5.491c1.287 0 2.422.079 3.408.227a8.518 8.518 0 0 1 2.685.849 4.672 4.672 0 0 1 1.91 1.851c.474.813.706 1.863.706 3.15 0 1.324-.432 2.453-1.302 3.37-.866.924-1.973 1.504-3.324 1.736v.069c.49.19.892.443 1.208.754.306.311.633.807.976 1.493l4.241 8.936h-3.66l-3.44-7.781c-.448-.981-.934-1.593-1.445-1.83-.512-.233-1.288-.354-2.316-.354h-1.93v9.965h-3.208zM761.958 633.72c0-1.309-.364-2.396-1.092-3.266-.728-.865-1.725-1.298-2.986-1.298-.712 0-1.33.127-1.867.386a3.788 3.788 0 0 0-1.335 1.044 4.929 4.929 0 0 0-.817 1.477 7.457 7.457 0 0 0-.385 1.656zm1.962 9.094c-.126.042-.28.1-.448.158-.733.28-1.446.501-2.142.66-.69.163-1.556.242-2.585.242-2.832 0-4.948-.786-6.361-2.358-1.414-1.577-2.121-3.745-2.121-6.51 0-1.202.18-2.31.543-3.328.364-1.018.881-1.9 1.562-2.638a6.941 6.941 0 0 1 2.442-1.714c.95-.411 1.994-.617 3.128-.617 1.335 0 2.464.232 3.392.696a5.799 5.799 0 0 1 2.253 1.925c.57.829.976 1.794 1.223 2.912.243 1.113.364 2.358.364 3.725h-11.694c0 .796.142 1.53.432 2.205.29.675.686 1.26 1.187 1.75a5.23 5.23 0 0 0 1.736 1.124 5.504 5.504 0 0 0 2.041.386c.475 0 .965-.053 1.477-.159a10.95 10.95 0 0 0 1.482-.416c.47-.174.892-.354 1.25-.549.364-.195.644-.364.84-.517zM766.391 640.275c.56.364 1.203.649 1.93.854.729.2 1.34.301 1.831.301.818 0 1.535-.19 2.158-.575.617-.385.928-.976.928-1.767 0-.601-.243-1.092-.717-1.482-.486-.385-1.24-.823-2.269-1.314a21.421 21.421 0 0 1-1.64-.839 7.323 7.323 0 0 1-1.192-.865 4.022 4.022 0 0 1-.929-1.224c-.237-.469-.353-1.002-.353-1.603 0-1.63.543-2.88 1.625-3.745 1.081-.87 2.468-1.303 4.156-1.303.644 0 1.256.052 1.836.158.575.11 1.219.274 1.93.485l-.263 2.638c-.316-.196-.833-.38-1.54-.565-.707-.184-1.25-.274-1.64-.274-.813 0-1.499.174-2.053.517-.559.343-.839.833-.839 1.477 0 .665.243 1.181.723 1.556.485.375 1.23.802 2.237 1.271.664.301 1.208.57 1.64.802.428.237.834.533 1.219.886.385.354.69.786.934 1.303.232.512.353 1.113.353 1.8 0 1.645-.56 2.91-1.672 3.792-1.119.876-2.464 1.313-4.052 1.313-.88 0-1.688-.063-2.426-.19a6.838 6.838 0 0 1-2.073-.706zM780.939 637.511c.205.728.517 1.388.95 1.978.427.586.965 1.06 1.619 1.414.654.353 1.408.528 2.268.528.855 0 1.604-.174 2.247-.528a4.881 4.881 0 0 0 1.609-1.414c.427-.59.744-1.25.95-1.978.2-.728.3-1.466.3-2.215 0-.792-.116-1.557-.353-2.284a6.748 6.748 0 0 0-1.013-1.979 4.751 4.751 0 0 0-1.62-1.382 4.55 4.55 0 0 0-2.12-.496c-.791 0-1.509.164-2.136.496a4.974 4.974 0 0 0-1.625 1.382 6.662 6.662 0 0 0-1.029 1.979 7.335 7.335 0 0 0-.353 2.284c0 .749.1 1.487.306 2.215m-2.928-5.655c.401-1.05.965-1.962 1.704-2.732a7.537 7.537 0 0 1 2.67-1.783c1.038-.417 2.167-.628 3.391-.628 1.218 0 2.342.211 3.376.628a7.595 7.595 0 0 1 2.648 1.783 7.957 7.957 0 0 1 1.704 2.732c.396 1.05.596 2.195.596 3.44a9.087 9.087 0 0 1-.612 3.307 8.514 8.514 0 0 1-1.72 2.764 7.74 7.74 0 0 1-2.653 1.852c-1.029.438-2.142.654-3.339.654-1.203 0-2.316-.216-3.344-.654a7.965 7.965 0 0 1-2.685-1.868 8.338 8.338 0 0 1-1.736-2.764 9.286 9.286 0 0 1-.59-3.291c0-1.245.2-2.39.59-3.44M811.036 643.49h-2.927v-2.601h-.064c-.448.918-1.17 1.646-2.152 2.184a6.656 6.656 0 0 1-3.213.802c-2.078 0-3.624-.607-4.626-1.83-1.007-1.225-1.514-2.955-1.514-5.207V627.1h3.023v8.482c0 1.973.258 3.418.77 4.341.512.924 1.414 1.425 2.7 1.51 1.647 0 2.892-.607 3.73-1.815.834-1.208 1.25-2.854 1.25-4.933V627.1h3.023zM814.573 627.1h2.827v2.537h.063a5.255 5.255 0 0 1 1.8-2.105c.796-.543 1.619-.823 2.473-.823.385 0 .712.021.981.053.27.032.586.09.95.174h.063v2.701c-.47-.195-1.028-.29-1.672-.29-1.345 0-2.432.601-3.244 1.799-.818 1.202-1.224 2.827-1.224 4.884v7.46h-3.017zM835.879 629.861c-1.134-.47-2.232-.707-3.281-.707-.813 0-1.551.164-2.216.496a4.843 4.843 0 0 0-1.667 1.372 6.232 6.232 0 0 0-1.034 1.973 7.484 7.484 0 0 0-.353 2.3c0 .77.105 1.513.322 2.236a6.15 6.15 0 0 0 .98 1.957 4.763 4.763 0 0 0 1.705 1.414c.696.353 1.514.527 2.458.527.538 0 1.097-.079 1.688-.237a5.37 5.37 0 0 0 1.556-.691l.227 2.696c-.56.258-1.16.437-1.815.532-.654.095-1.313.143-1.978.143-1.203 0-2.31-.217-3.34-.654a7.912 7.912 0 0 1-2.69-1.868 8.27 8.27 0 0 1-1.73-2.764 9.153 9.153 0 0 1-.596-3.292c0-1.244.2-2.39.596-3.439.396-1.044.96-1.962 1.704-2.732a7.515 7.515 0 0 1 2.664-1.783c1.04-.417 2.173-.628 3.392-.628.601 0 1.245.069 1.946.195.692.127 1.266.28 1.715.448zM848.734 633.72c0-1.309-.364-2.396-1.097-3.266-.723-.865-1.72-1.298-2.986-1.298-.707 0-1.33.127-1.862.386a3.742 3.742 0 0 0-1.335 1.044 5.061 5.061 0 0 0-.822 1.477 7.45 7.45 0 0 0-.38 1.656zm1.962 9.094c-.131.042-.28.1-.453.158-.728.28-1.44.501-2.137.66-.696.163-1.561.242-2.59.242-2.827 0-4.948-.786-6.361-2.358-1.414-1.577-2.121-3.745-2.121-6.51 0-1.202.18-2.31.549-3.328.364-1.018.88-1.9 1.556-2.638a6.94 6.94 0 0 1 2.442-1.714c.955-.411 2-.617 3.133-.617 1.33 0 2.459.232 3.392.696a5.799 5.799 0 0 1 2.253 1.925c.564.829.97 1.794 1.218 2.912.243 1.113.37 2.358.37 3.725h-11.695c0 .796.142 1.53.432 2.205.285.675.686 1.26 1.187 1.75.501.491 1.082.866 1.736 1.124a5.503 5.503 0 0 0 2.041.386c.47 0 .965-.053 1.477-.159a11.17 11.17 0 0 0 1.482-.416c.47-.174.887-.354 1.25-.549.365-.195.644-.364.84-.517zM853.17 640.275a6.904 6.904 0 0 0 1.925.854c.728.2 1.34.301 1.836.301.812 0 1.53-.19 2.152-.575.617-.385.934-.976.934-1.767 0-.601-.243-1.092-.723-1.482-.485-.385-1.24-.823-2.268-1.314a22.466 22.466 0 0 1-1.64-.839 7.069 7.069 0 0 1-1.187-.865 4.037 4.037 0 0 1-.934-1.224c-.238-.469-.354-1.002-.354-1.603 0-1.63.544-2.88 1.625-3.745 1.082-.87 2.469-1.303 4.162-1.303.644 0 1.25.052 1.83.158.58.11 1.22.274 1.931.485l-.258 2.638c-.322-.196-.834-.38-1.546-.565-.707-.184-1.25-.274-1.635-.274-.812 0-1.503.174-2.057.517-.56.343-.84.833-.84 1.477 0 .665.244 1.181.724 1.556.485.375 1.229.802 2.236 1.271.665.301 1.213.57 1.64.802.428.237.834.533 1.22.886.384.354.696.786.933 1.303.232.512.353 1.113.353 1.8 0 1.645-.559 2.91-1.672 3.792-1.118.876-2.463 1.313-4.051 1.313-.876 0-1.688-.063-2.427-.19a6.758 6.758 0 0 1-2.067-.706z" style="stroke-width:5.27507" transform="translate(-104.552 -200.623)"/></svg>