<svg xmlns="http://www.w3.org/2000/svg" width="789.19611pt" height="150pt" viewBox="0 0 789.1961 150"><path fill="#5389c7" d="M561.626 604.408c-1.619-.645-1.553-1.214-3.401-1.324-3.924-.245-3.524-1.316-5.866-1.688-.711-.115-1.635-.135-2.424-1.002-.83-.883-2.048-3.037-1.717-4.827.372-2.044-.498-1.942-1.132-2.853-.597-.855-.552-2.277.38-4.615.56-1.403 1.263-2.474 1.803-4.137.707-2.101.315-2.755.928-4.088.613-1.361 1.23-1.427 2.375-2.902 1.39-1.774 2.873-1.758 4.819-3.311.54-.442 1.067-.245 1.108.16.122 1.348-1.443 1.892-2.768 2.816-1.68 1.185-.592 3.11-2.51 4.414-1.385.949-2.047 2.187-2.064 3.127 0 .479.425.659.94.315.536-.34.593-.866 1.063-1.422.74-.883 1.505-1.353 2.404-.642.49.384 1.545 2.15.237 3.02-.4.258-1.018.127-1.619.258-.6.131-.875.483-.392 1.026.592.638.911.548 2.13.405 1.254-.16 1.483-.838 3.188-1.01 1.733-.151 2.681-.458 3.421-1.357.58-.711 1.218-.523 1.44-.122.142.273.15.654-.025.92-.266.392-.806.71-1.157 1-.323.262-1.006 1.064-1.488 2.057a3.428 3.428 0 0 1-1.558 1.57c-.887.437-1.958.56-3.139.588-2.587.057-3.585-.924-4.173.266-.307.609.343.801.923 1.823.364.67.152 1.41.802 1.623.989.298 1.765-1.61 3.02-2 .961-.306 1.774-.17 2.204.23.87.76.89 2.559 2.023 4.161.49.683 1.7 1.284 2.24 1.247.724-.045.695-.515 1.267-.536.601-.028 1.182.838 1.002 1.725-.25 1.263-1.496 1.378-2.796 1.214-1.271-.163-2.392-1.238-3.242-2.669-.584-.981-.85-1.463-1.688-1.5-.879-.033-1.05 1.038-2.064 1.382-.773.265-1.222-.135-2.167.159-.429.13-.776.286-.956.78-.184.52.004 1.064.793 1.133 1.435.147 2.714-1.537 4.427-1.046 2.62.752 1.974 3.658 4.25 3.854 1.624.143 1.558-.98 2.838-.98 1.075-.005 1.606.907 1.594 1.503-.012.765-.499 1.288-1.145 1.62-.878.445-2.137.424-4.128-.365" style="stroke-width:4.08769" transform="matrix(3.38002 0 0 3.38002 -1847.828 -1925.004)"/><path fill="#00ace6" d="M574.213 604.836c.445.24.707.33 1.201.527 1.856.72 3.107.261 3.512-.245.38-.483.85-1.341.92-2.69.069-1.492-.209-1.995-.646-3.327-.217-.646-.605-.43-.691-.348-.31.294-.691.454-.912.31-.065-.056-.188-.126-.22-.245-.045-.13.077-.351.155-.441.274-.327.384-.818.143-1.083-.454-.503-1.88-.376-3.225.196-1.545.674-2.179 1.762-2.682 2.481-.96 1.357-2.354.421-2.853.965-.245.261-.02 2.183-.952 3.834-.683 1.206-1.276 1.427-2.09 1.566-.817.139-1.544-.119-2.66-.278-.67-.098-1.513-.107-1.88.196-.262.213-.185.805.007 1.271.18.47.605 1.08.99 1.26.453.228.989.343 1.504.191 1.5-.47 1.3.103 1.267.282-.127.687-1.643 1.063-2.191 1.1-.666.045-1.43-.302-1.966-.654-1.643-1.063-1.619-1.966-1.619-1.966-.086-.315.25-1.104-.139-1.852-.744-1.373-2.35-1.308-2.93-1.394-.68-.11-1.03-.519-1.341-.507-.172.004-.099.528-.099.528.078.376.045.396.152.756.249.866 1.394.969 1.394.969.425.077.47.237.49.33.029.127-.123.213-.123.213s-.441.31-1.144.013c-1.104-.479-1.533-1.64-1.684-2.134-.577-1.84-1.316-1.803-1.868-1.762-.156.008-.54.114-.487.405.217 1.36 1.12 3.13 1.684 4.087.601 1.006 1.23 1.554 1.713 1.84.425.261.977.355 1.476.306 1.153-.114 1.892.618 2.273 1.182.502.727 1.467 1.361 2.166 1.733 2.023 1.07 3.998 1.418 6.148 1.451 2.988.041 5.645-1.239 6.659-1.876.915-.56 1.28-1.03 1.704-1.876.266-.532.364-.753.863-1.198.298-.278.503-.397.862-.425a3.17 3.17 0 0 0 1.807-.752c.348-.303.507-.601.47-.936-.037-.479-.42-.47-.699-.25-1.018.826-2.334.188-2.685-.008-1.145-.613-1.77-.306-2.22.053-.372.299-.556.618-.78 1.157-.43 1.042-1.284 2.163-1.763 2.383-.425.192-.968-.016-.793-.576.197-.601 1.268-.944 1.644-1.631a3.065 3.065 0 0 0 .372-1.852c-.05-.425.008-.993.147-1.242.38-.687 1.185-.262 1.618-.037m.41-4.95c.396-.315.731-.32.964-.205.515.245.029.666-.388.977-.417.331-.675.143-.826-.049-.13-.196-.172-.405.25-.723" style="stroke-width:4.08769" transform="matrix(3.38002 0 0 3.38002 -1847.828 -1925.004)"/><path fill="#04b6a6" d="M584.2 579.72c-.96-.482-1.839-.548-2.705-.225-1.594.593-2.984-.086-3.577-2.044-.486-1.627-1.136-1.533-2.67-2.187-.461-.192-1.536-.11-2.366.364-.642.36-.805 1.447-.977 2.191-.086.384-.2.895.143 1.034.56.237 1.03.008 1.133-.437.265-1.185.87-1.598 1.892-1.55 1.619.074 1.333 1.48.973 2.429-.638 1.66-1.709 2.007-3.552 2.424-1.108.261-2.494.208-3.454-1.464-.352-.592-1.059-1.63-.76-2.918.298-1.271.4-1.676 1.111-2.244.278-.2 1.034-.622.863-1.084-.127-.318-.99-.277-1.37.017-.372.282-1.255 1.414-1.999 2.542-1.287 1.946-.273 3.802.577 4.697.409.43.695 1.73-.074 1.999-1.643.564-2.694-.241-3.482-1.112-.781-.883-1.243-1.68-1.186-2.992.053-1.308-.04-1.88 1.28-3.041.605-.532.715-1.288.56-1.578-.14-.274-.601-.184-1.243.229-1.664 1.07-2.232 2.17-2.616 3.057-.507 1.173-.335 2.306.351 3.18.515.655 1.288 1.595.822 2.343-.466.764-1.398 1.169-2.686.76-1.712-.544-2.518-2.22-2.861-3.81-.442-1.986 1.717-3.52 3.282-4.909 1.558-1.39 1.165-3.02 1.95-3.822 1.35-1.345 3.385-2.285 5.502-1.455 1.214.474 3.299-.548 4.987-.589 1.664-.04 2.927 1.86 4.5 2.514 1.01.417 1.808.008 2.854.487 3.143 1.434 2.248 2.064 3.601 3.593.597.674 2.588 1.136 3.5 2.465.404.588.539 1.966.077 2.158-.83.327-1.43-.544-2.38-1.022" style="stroke-width:4.08769" transform="matrix(3.38002 0 0 3.38002 -1847.828 -1925.004)"/><path fill="#68b54a" d="M590.198 589.593c-.936.163-.863.83-1.01 1.414-.29 1.1-.932 1.541-1.406 1.447-.494-.115-.74-.797-.826-1.239-.118-.65.88-1.19 1.828-1.97 1.888-1.565.764-5.772-.548-6.303-.777-.315-1.598.727-1.333 1.46.278.747.61 1.516.062 2.24-.54.71-.973 1.127-1.435.878-1.026-.564-.572-1.443-.405-1.893.388-1.046.818-1.729.376-3.127a2.093 2.093 0 0 0-.687-.993c-.752-.621-1.594-.822-2.203-.241-.225.212-.335.507-.135.858.131.213.818 1.01.213 1.402-.213.14-.421.11-.683-.028-.282-.14-.613-.38-1.018-.74-2.019-1.79-5.02-1.512-5.702-.54-.441.626-.49 1.541.078 2.04 1.14.998 2.604.826 3.72.883.547.037 1.487.348 1.426 1.006-.07.821-1.966.527-2.55.417-.47-.103-1.198-.528-1.885.07-.237.187-.417.612-.405 1.123.008.454.438.969.916 1.243 1.226.732 2.645.13 3.536-.066.834-.175 2.64-.38 2.824.59.082.494-.18.747-.862.686-.433-.037-.87.045-1.296.16-.588.159-1.005.608-.834 1.168.225.691.912 1.01 1.709 1.059.478.025 1.21.025 1.602-.016.258-.033.687-.013.875.54.135.38.172 1.025-.752 1.132-.397.053-1.66.282-2.563.02-.343-.102-.531-.27-.646-.433-.425-.577-.319-.908-.813-1.435-.262-.282-.998-.225-1.44.172-.375.347-.563.944-.334 2.097.167.85.78 1.255 1.328 1.532 1.917.928 3.785-.486 4.505.438.106.147.253.527.13.699-.245.368-1.103.274-1.455.347-.715.147-1.553.949-.625 1.5.715.426 1.79.094 2.571.066.454-.012.805.033.838.589a.487.487 0 0 1-.094.355c-.086.11-.413.294-.785.335-.544.05-1.32.066-1.864.405-.458.298-1.095 1.46.258 1.766.38.082.911.261 1.103.499.38.466.331 1.16.397 1.602.118.793-.155 1.373-.679 1.365-.294-.004-.47-.51-.494-.756-.09-.764-.078-1.288-.352-1.615-.417-.482-1.271.078-1.439.818-.11.474-.016.728.078 1.042.56 1.885-1.006 3.683-2.87 3.998-.69.11-1.07 1.059-.784 1.525.425.686 3.593-.846 4.696-1.656 1.37-1.005 2.723-1.778 3.3-3.323.347-.9 1.377-1.647 2.231-2.256 1.145-.814 1.73-2.257 1.852-3.418.065-.711-.196-1.005-.691-.928-.72.127-.867.487-1.038 1.173-.209.818-.303 1.403-.773 1.46-.458.061-.65-.188-.63-.675.017-.49.23-1.169.483-1.712.327-.679.99-1.182 1.561-1.427.52-.225 1.05-.384 1.574-.674.957-.511.944-1.084.9-1.53-.078-.948-.818-1.127-1.538-.617-.976.655-1.77 1.063-1.97.295-.135-.54.675-.867 1.173-1.071.593-.22 1.472-.666 1.983-1.34.568-.74.695-1.791.67-2.286-.057-1.263-.42-1.705-.944-1.606" style="stroke-width:4.08769" transform="matrix(3.38002 0 0 3.38002 -1847.828 -1925.004)"/><path fill="#6f7173" d="M704.928 581.924h12.979c.605 0 .98-.376.98-.98v-2.792c0-.605-.375-.986-.98-.986h-12.979c-.609 0-.977.38-.977.986v2.791c0 .605.368.981.977.981m1.243-2.563c0-.335.033-.363.368-.363h9.757c.335 0 .368.028.368.363v.368c0 .336-.033.368-.368.368h-9.757c-.335 0-.368-.032-.368-.368zM706.171 590.685c0-.331.033-.364.352-.364h11.38c.61 0 .985-.368.985-.977v-2.645c0-.6-.376-.977-.985-.977h-5.38v-.985h6.508a.909.909 0 0 0 .908-.911.906.906 0 0 0-.908-.912h-15.226a.91.91 0 1 0 0 1.823h6.495v.985h-5.44c-.54 0-.912.405-.912.92 0 .495.372.9.911.9h11.434c.339 0 .371.036.371.36v.248c0 .299-.045.344-.355.344h-11.38c-.61 0-.981.38-.981.977v2.8c0 .597.372.98.98.98h13.049a.92.92 0 0 0 .911-.923.91.91 0 0 0-.911-.903h-11.438c-.335 0-.368-.029-.368-.364zM621.42 584.488a.97.97 0 0 0 .973-.977.97.97 0 0 0-.973-.98h-.246v-4.379c0-.609-.376-.985-.977-.985-.502.008-11.8 0-12.336 0a.976.976 0 0 0-.977.985c0 .54.433.973.977.977.499.004 10.383 0 10.722 0 .335 0 .364.025.368.364.004.282 0 3.037 0 3.037h-11.904a.975.975 0 0 0-.977.981c0 .54.438.977.977.977l6.087-.004v2.453s-4.738.008-5.273 0a.974.974 0 0 0-.977.977c0 .54.433.989.977.989h10.734c.323 0 .356.025.356.36v3.119c0 .609.494 1.107 1.112 1.107.609 0 1.111-.498 1.111-1.107v-4.468c0-.605-.376-.977-.976-.977h-4.873v-2.453l6.095.004M777.695 579.493c0-.34.033-.364.372-.364h1.14a.976.976 0 0 0 .973-.977.978.978 0 0 0-.973-.985h-2.755c-.605 0-.985.376-.985.985v5.866c0 .335-.029.372-.368.372h-2.456v-6.238c0-.609-.372-.985-.977-.985h-7.988a.979.979 0 0 0-.977.985c0 .54.438.977.977.977h6.377c.335 0 .368.025.368.364v4.897h-3.148v-2.383a1.11 1.11 0 0 0-1.111-1.108c-.622 0-1.112.495-1.112 1.108v2.383h-2.126a.98.98 0 0 0-.985.973c0 .54.446.977.985.977h13.788c.605 0 .98-.368.98-.977zM753.623 585.173a.979.979 0 1 0 0-1.958h-2.1c.85-.72 1.38-1.709 1.38-2.808 0-2.179-2.067-3.953-4.602-3.953-2.542 0-4.594 1.774-4.594 3.953 0 1.1.523 2.089 1.377 2.808h-1.745c-.54 0-.981.43-.981.981 0 .54.441.977.98.977h4.542v2.857c0 .613.495 1.108 1.116 1.108.61 0 1.108-.495 1.108-1.108v-2.857zm-5.322-7.072c1.308 0 2.375 1.034 2.375 2.306 0 1.267-1.067 2.301-2.375 2.301-1.312 0-2.375-1.034-2.375-2.301 0-1.272 1.063-2.306 2.375-2.306M674.2 584.812c-2.922 0-5.293 2.167-5.293 4.844 0 2.674 2.371 4.848 5.294 4.848 2.918 0 5.293-2.174 5.293-4.848 0-2.677-2.375-4.844-5.293-4.844m0 7.73c-1.697 0-3.07-1.291-3.07-2.886 0-1.594 1.373-2.89 3.07-2.89 1.7 0 3.074 1.296 3.074 2.89 0 1.595-1.374 2.886-3.074 2.886M693.423 584.812c-2.919 0-5.29 2.167-5.29 4.844 0 2.674 2.371 4.848 5.29 4.848 2.922 0 5.297-2.174 5.297-4.848 0-2.677-2.375-4.844-5.297-4.844m0 7.73c-1.693 0-3.066-1.291-3.066-2.886 0-1.594 1.373-2.89 3.066-2.89 1.696 0 3.074 1.296 3.074 2.89 0 1.595-1.378 2.886-3.074 2.886M668.565 576.642c-2.567 0-4.647 1.913-4.647 4.268 0 2.358 2.08 4.267 4.647 4.267 2.563 0 4.644-1.909 4.644-4.267 0-2.355-2.08-4.268-4.644-4.268m0 6.582c-1.332 0-2.411-1.039-2.411-2.314 0-1.275 1.079-2.306 2.411-2.306 1.333 0 2.42 1.03 2.42 2.306 0 1.275-1.087 2.314-2.42 2.314M677.25 583.618c0 .613.498 1.12 1.112 1.12a1.12 1.12 0 0 0 1.116-1.12v-1.268c0-.335.032-.36.363-.36h1.145a.984.984 0 0 0 .977-.984.98.98 0 0 0-.977-.977h-1.508v-.536c0-.34.032-.364.363-.364h1.145a.981.981 0 0 0 0-1.962h-2.751c-.61 0-.985.376-.985.985zM738.225 579.493c0-.34.029-.364.368-.364h1.136a.974.974 0 0 0 .977-.977.976.976 0 0 0-.977-.985h-2.747c-.613 0-.985.376-.985.985v14.23c0 .609.499 1.107 1.116 1.107.613 0 1.112-.498 1.112-1.107z" style="stroke-width:4.08769" transform="matrix(3.38002 0 0 3.38002 -1847.828 -1925.004)"/><path fill="#6f7173" d="M756.131 586.342c0 .335-.033.363-.368.363l-2.681-.004a.98.98 0 0 0-.973.986.97.97 0 0 0 .973.977h4.296c.605 0 .977-.372.977-.977v-9.643c0-.613-.499-1.116-1.112-1.116-.613 0-1.112.503-1.112 1.116zM746.366 590.925c0 .335.029.368.372.368h10.882c.544 0 .977.433.977.977a.973.973 0 0 1-.977.981h-12.5c-.61 0-.981-.372-.981-.981v-4.247a1.115 1.115 0 1 1 2.227 0zM765.704 590.925c0 .335.033.368.368.368h10.89a.97.97 0 0 1 .973.977.972.972 0 0 1-.973.981h-12.504c-.605 0-.981-.372-.981-.981v-3.81c0-.621.498-1.116 1.12-1.116.613 0 1.107.495 1.107 1.116zM640.854 592.27v-4.84a1.113 1.113 0 0 0-2.228 0v.707h-9.761v-.707a1.113 1.113 0 0 0-2.228 0v4.84c0 .597.38.981.985.981h12.255c.605 0 .977-.356.977-.981m-2.228-1.345c0 .331-.028.368-.363.368h-9.026c-.34 0-.372-.037-.372-.368v-.834h9.761zM658.341 592.438c0 .58.524 1.05 1.108 1.05.58 0 1.112-.47 1.112-1.05V578.15c0-.604-.368-.985-.977-.985h-3.953c-.605 0-.985.38-.985.985v14.258c0 .613.531 1.08 1.116 1.08.576 0 1.12-.467 1.12-1.08v-12.917c0-.339.025-.364.348-.364h.743c.336 0 .368.025.368.364zM697.183 583.915c0 .58.527 1.059 1.107 1.059.585 0 1.112-.478 1.112-1.059v-5.763c0-.605-.368-.986-.973-.986h-3.952c-.61 0-.982.38-.982.986v5.248c0 .617.528 1.083 1.112 1.083.58 0 1.112-.466 1.112-1.083v-3.908c0-.339.025-.364.36-.364h.744c.33 0 .36.025.36.364zM633.867 579.986c0 .335-.037.363-.364.363h-6.606c-.605 0-.977.377-.977.986v3.331c0 .605.372.977.977.977h12.979c.609 0 .977-.372.977-.977v-6.622c0-.613-.495-1.12-1.112-1.12-.618 0-1.112.507-1.112 1.12h.004l-.004 5.273c0 .327-.033.364-.368.364h-9.757c-.323 0-.356-.037-.356-.364v-.638c0-.339.033-.372.356-.372h6.61c.604 0 .976-.367.976-.968v-3.189c0-.605-.372-.98-.977-.98h-8.216a.98.98 0 0 0 0 1.962h6.606c.327 0 .364.02.364.36zM692.33 583.746c-.224.503-.817.678-1.324.495-1.108-.405-2.563-1.456-3.09-2.625-.528 1.17-1.987 2.22-3.086 2.625-.507.183-1.096.008-1.329-.495a.996.996 0 0 1 .49-1.324c1.162-.56 2.817-1.75 2.817-3.72v-.667a1.11 1.11 0 0 1 1.108-1.111c.605 0 1.1.498 1.1 1.111v.667c0 1.97 1.663 3.16 2.82 3.72a.991.991 0 0 1 .494 1.324M733.48 588.92a1.093 1.093 0 0 0-.511-1.423c-2.657-1.255-3.65-4.21-3.65-7.468v-.9h3.004a.976.976 0 0 0 .973-.976.978.978 0 0 0-.973-.985h-8.343a.973.973 0 0 0-.973.985c0 .54.43.977.973.977h3.017s-.008.572-.008.899c0 3.258-.99 6.25-3.65 7.505-.524.245-.761.854-.516 1.386.241.531.85.72 1.386.503 1.913-.781 3.409-2.539 3.94-3.982.536 1.443 2.032 3.2 3.957 3.982.524.216 1.137.028 1.374-.503M653.88 578.723a.973.973 0 0 0-.972-.977h-2.723v-.597a1.111 1.111 0 1 0-2.224 0v.597h-2.722a.977.977 0 1 0 0 1.954h.642a4.206 4.206 0 0 0 3.192 6.933 4.21 4.21 0 0 0 4.202-4.207c0-1.042-.384-1.99-1.01-2.726h.643a.976.976 0 0 0 .972-.977m-4.807 5.947c-1.091 0-1.978-1.01-1.978-2.244 0-1.239.887-2.24 1.978-2.24 1.092 0 1.979 1.001 1.979 2.24 0 1.234-.887 2.244-1.979 2.244M641.144 601.945h1.267l.638 2.436c.094.356.127.495.172.748a8.34 8.34 0 0 1 .171-.768l.658-2.416h1.284l.437 4.868h-.968l-.18-2.591c-.025-.315-.045-.524-.045-.785-.058.282-.09.425-.176.72l-.773 2.656h-.858l-.7-2.55a100.67 100.67 0 0 1-.191-.847c0 .282-.013.56-.037.855l-.168 2.542h-.989zM647.728 601.928h1.058l1.533 4.888h-1.05l-.344-1.148h-1.43l-.34 1.148h-1.026zm.012 2.918h.952s-.163-.507-.265-.977c-.053-.225-.197-.866-.197-.866s-.147.572-.237.944c-.094.343-.15.584-.253.9M650.932 601.94l1.82.003c.858 0 1.422.58 1.422 1.435 0 .724-.478 1.325-1.083 1.34.102.083.139.12.208.21.278.347 1.17 1.888 1.17 1.888h-1.158c-.196-.319-.27-.454-.457-.793-.49-.883-.642-1.112-.806-1.194-.053-.02-.081-.036-.16-.04v2.027h-.956zm.97.792-.013 1.32h.331c.421 0 .605-.044.74-.163a.682.682 0 0 0 .188-.49c0-.299-.119-.503-.352-.593-.11-.045-.318-.074-.556-.074z" style="stroke-width:4.08769" transform="matrix(3.38002 0 0 3.38002 -1847.828 -1925.004)"/><path fill="#6f7173" d="M655.06 606.816h1.021v-4.872h-1.022z" style="stroke-width:4.0877" transform="matrix(3.38002 0 0 3.38002 -1847.828 -1925.004)"/><path fill="#6f7173" d="M657.215 601.945h1.088l.932 1.95c.24.523.437 1.034.527 1.381a19.73 19.73 0 0 1-.066-1.332l-.024-2h.932v4.87h-1.022l-.842-1.86c-.262-.614-.56-1.297-.662-1.599.037.396.049.977.049 1.382l.032 2.076h-.944z" style="stroke-width:4.08769" transform="matrix(3.38002 0 0 3.38002 -1847.828 -1925.004)"/><path fill="#6f7173" d="M661.72 601.944v4.872h2.844v-.842h-1.843v-1.304h1.377v-.797H662.7v-1.128h1.672l.127-.801z" style="stroke-width:4.0877" transform="matrix(3.38002 0 0 3.38002 -1847.828 -1925.004)"/><path fill="#6f7173" d="M668.247 601.94h1.648c.597 0 .907.09 1.197.355.278.237.401.52.401.867 0 .33-.114.605-.327.821-.143.127-.225.18-.445.25.65.196.964.592.964 1.222 0 .682-.42 1.3-1.275 1.353-.151 0-.356.008-.621.008h-1.542zm.97.833v1.124h.58c.233 0 .339-.012.425-.06.13-.074.25-.316.25-.512s-.115-.409-.279-.486a1.01 1.01 0 0 0-.404-.066zm.016 1.926v1.324h.633c.209 0 .348-.037.462-.119.143-.11.25-.33.25-.564 0-.278-.148-.515-.356-.6-.123-.037-.156-.041-.38-.041z" style="stroke-width:4.08769" transform="matrix(3.38002 0 0 3.38002 -1847.828 -1925.004)"/><path fill="#6f7173" d="M672.575 606.816h1.03v-4.872h-1.03z" style="stroke-width:4.0877" transform="matrix(3.38002 0 0 3.38002 -1847.828 -1925.004)"/><path fill="#6f7173" d="M676.699 601.88c1.3 0 2.097.952 2.097 2.476 0 1.1-.385 1.926-1.088 2.318-.29.16-.568.22-.972.22-.74 0-1.214-.2-1.586-.682-.372-.482-.556-1.095-.556-1.81 0-1.051.4-1.893 1.095-2.286a2.255 2.255 0 0 1 1.01-.237m-.013.76c-.33 0-.625.176-.756.43-.167.315-.25.744-.25 1.332 0 .838.152 1.362.434 1.574a.97.97 0 0 0 .585.172c.678 0 .968-.515.968-1.766 0-.49-.04-.854-.118-1.124-.086-.245-.343-.617-.863-.617M679.671 601.977h.977c.286 0 .658.012.859.025.408.036.756.2 1.062.482.446.445.663 1.067.663 1.946 0 .67-.164 1.214-.49 1.66-.3.4-.724.653-1.186.702-.18.017-.413.02-.703.02h-1.182zm.994.769v3.274h.527c.646 0 .94-.466.94-1.496 0-.573-.049-1.05-.245-1.37-.16-.274-.38-.408-.773-.408z" style="stroke-width:4.08769" transform="matrix(3.38002 0 0 3.38002 -1847.828 -1925.004)"/><path fill="#6f7173" d="M684.127 606.816h1.022v-4.872h-1.022z" style="stroke-width:4.0877" transform="matrix(3.38002 0 0 3.38002 -1847.828 -1925.004)"/><path fill="#6f7173" d="M685.929 601.945h1.075l.805 2.542c.02.078.098.335.155.548.025.119.041.164.066.298.033-.143.049-.18.09-.351.077-.262.118-.38.192-.626l.826-2.411 1.034-.004-1.693 4.917h-.895z" style="stroke-width:4.08769" transform="matrix(3.38002 0 0 3.38002 -1847.828 -1925.004)"/><path fill="#6f7173" d="M690.809 601.944v4.872h2.845v-.842h-1.848v-1.304h1.386v-.797h-1.402v-1.128h1.672l.126-.801z" style="stroke-width:4.0877" transform="matrix(3.38002 0 0 3.38002 -1847.828 -1925.004)"/><path fill="#6f7173" d="m694.438 601.94 1.82.003c.858 0 1.43.58 1.43 1.435 0 .724-.487 1.325-1.088 1.34.099.083.144.12.2.21.283.347 1.178 1.888 1.178 1.888h-1.16c-.193-.319-.267-.454-.459-.793-.486-.883-.633-1.112-.805-1.194-.049-.02-.082-.036-.155-.04v2.027h-.96zm.969.792-.008 1.32h.331c.421 0 .6-.044.74-.163a.7.7 0 0 0 .188-.49c0-.299-.119-.503-.352-.593-.11-.045-.314-.074-.556-.074zM701.935 602.296l-.462.69c-.437-.257-.768-.367-1.136-.367-.396 0-.679.233-.679.56 0 .253.131.38.54.49l.589.164c.8.22 1.234.723 1.234 1.447 0 .99-.793 1.643-2.015 1.643-.548 0-1.17-.155-1.66-.437l.368-.765c.454.233.85.393 1.337.393.564 0 .858-.237.858-.67 0-.315-.204-.516-.641-.63l-.54-.147c-.482-.135-.78-.327-.96-.613a1.47 1.47 0 0 1-.21-.748c0-.892.724-1.509 1.755-1.509.596 0 1.197.184 1.622.499" style="stroke-width:4.08769" transform="matrix(3.38002 0 0 3.38002 -1847.828 -1925.004)"/><path fill="#6f7173" d="M702.844 606.816h1.014v-4.872h-1.014zM704.454 601.944v.817h1.19v4.055h.993v-4.055h1.165l.163-.817z" style="stroke-width:4.0877" transform="matrix(3.38002 0 0 3.38002 -1847.828 -1925.004)"/><path fill="#6f7173" d="M708.308 601.928h1.177l.633 1.353c.119.261.184.437.246.62.053-.142.155-.38.261-.608l.63-1.353h1.157l-1.562 2.873v2.003h-1.018v-2.003z" style="stroke-width:4.08769" transform="matrix(3.38002 0 0 3.38002 -1847.828 -1925.004)"/><path fill="#6f7173" d="M715.308 606.816h1.038v-4.872h-1.038z" style="stroke-width:4.0877" transform="matrix(3.38002 0 0 3.38002 -1847.828 -1925.004)"/><path fill="#6f7173" d="M717.574 601.945h1.088l.936 1.95c.245.523.437 1.034.535 1.381-.04-.38-.073-1.005-.081-1.332l-.017-2h.928v4.87h-1.026l-.826-1.86c-.27-.614-.572-1.297-.662-1.599.033.396.041.977.045 1.382l.033 2.076h-.953zM725.277 602.296l-.466.69c-.442-.257-.773-.367-1.137-.367-.4 0-.674.233-.674.56 0 .253.127.38.535.49l.593.164c.797.22 1.23.723 1.23 1.447 0 .99-.8 1.643-2.01 1.643a3.463 3.463 0 0 1-1.664-.437l.364-.765c.461.233.854.393 1.336.393.564 0 .863-.237.863-.67 0-.315-.209-.516-.638-.63l-.54-.147c-.49-.135-.793-.327-.968-.613a1.502 1.502 0 0 1-.197-.748c0-.892.712-1.509 1.746-1.509.597 0 1.194.184 1.627.499" style="stroke-width:4.08769" transform="matrix(3.38002 0 0 3.38002 -1847.828 -1925.004)"/><path fill="#6f7173" d="M725.725 601.944v.817h1.198v4.055h.99v-4.055h1.164l.16-.817zM729.844 606.816h1.021v-4.872h-1.021zM731.35 601.944v.817h1.198v4.055h.99v-4.055h1.164l.16-.817z" style="stroke-width:4.0877" transform="matrix(3.38002 0 0 3.38002 -1847.828 -1925.004)"/><path fill="#6f7173" d="M735.245 601.945h.997v3.209c0 .363.012.45.086.576.114.217.343.34.67.34.425 0 .7-.213.744-.569.012-.11.012-.176.012-.43v-3.126h.998v3.282c0 .466-.008.548-.078.76-.127.389-.605.92-1.655.92-.744 0-1.284-.22-1.562-.65-.167-.253-.212-.45-.212-.915z" style="stroke-width:4.08769" transform="matrix(3.38002 0 0 3.38002 -1847.828 -1925.004)"/><path fill="#6f7173" d="M739.135 601.944v.817h1.19v4.055h.997v-4.055h1.157l.167-.817zM742.913 601.944v4.872h2.841v-.842h-1.835v-1.304h1.373v-.797h-1.394v-1.128h1.672l.123-.801z" style="stroke-width:4.0877" transform="matrix(3.38002 0 0 3.38002 -1847.828 -1925.004)"/><path fill="#6f7173" d="M750.74 601.88c1.3 0 2.102.952 2.102 2.476 0 1.1-.389 1.926-1.088 2.318-.298.16-.568.22-.977.22-.731 0-1.21-.2-1.581-.682-.377-.482-.569-1.095-.569-1.81 0-1.051.413-1.893 1.108-2.286a2.237 2.237 0 0 1 1.006-.237m-.017.76a.856.856 0 0 0-.752.43c-.167.315-.245.744-.245 1.332 0 .838.151 1.362.437 1.574a.928.928 0 0 0 .577.172c.682 0 .973-.515.973-1.766 0-.49-.041-.854-.127-1.124a.883.883 0 0 0-.863-.617" style="stroke-width:4.08769" transform="matrix(3.38002 0 0 3.38002 -1847.828 -1925.004)"/><path fill="#6f7173" d="M753.6 601.962v4.852h.99v-2.146h1.234v-.797h-1.234v-1.12h1.549l.114-.789zM761.62 601.944l-1.39 2.224v-2.224h-1.005v4.872h1.006v-2.542l1.48 2.542h1.295l-1.737-2.612 1.553-2.26z" style="stroke-width:4.0877" transform="matrix(3.38002 0 0 3.38002 -1847.828 -1925.004)"/><path fill="#6f7173" d="M765.218 601.88c1.296 0 2.097.952 2.097 2.476 0 1.1-.384 1.926-1.087 2.318-.302.16-.568.22-.98.22-.733 0-1.203-.2-1.583-.682-.368-.482-.56-1.095-.56-1.81 0-1.051.409-1.893 1.104-2.286a2.216 2.216 0 0 1 1.01-.237m-.013.76a.855.855 0 0 0-.76.43c-.168.315-.245.744-.245 1.332 0 .838.15 1.362.441 1.574.143.115.34.172.576.172.67 0 .965-.515.965-1.766 0-.49-.04-.854-.123-1.124a.889.889 0 0 0-.854-.617M768.027 601.94l1.819.003c.866 0 1.43.58 1.43 1.435 0 .724-.482 1.325-1.087 1.34.098.083.143.12.204.21.278.347 1.17 1.888 1.17 1.888h-1.157c-.184-.319-.266-.454-.454-.793-.486-.883-.638-1.112-.81-1.194-.04-.02-.073-.036-.15-.04v2.027h-.965zm.973.792-.008 1.32h.33c.418 0 .602-.044.732-.163a.671.671 0 0 0 .197-.49c0-.299-.123-.503-.356-.593-.11-.045-.315-.074-.556-.074z" style="stroke-width:4.08769" transform="matrix(3.38002 0 0 3.38002 -1847.828 -1925.004)"/><path fill="#6f7173" d="M772.234 601.944v4.872h2.845v-.842h-1.847v-1.304h1.381v-.797h-1.398v-1.128h1.668l.13-.801z" style="stroke-width:4.0877" transform="matrix(3.38002 0 0 3.38002 -1847.828 -1925.004)"/><path fill="#6f7173" d="M776.94 601.928h1.055l1.533 4.888h-1.046l-.344-1.148h-1.434l-.34 1.148h-1.026zm.009 2.918h.944s-.16-.507-.262-.977c-.053-.225-.196-.866-.196-.866l-.229.944c-.094.343-.155.584-.257.9" style="stroke-width:4.08769" transform="matrix(3.38002 0 0 3.38002 -1847.828 -1925.004)"/><path fill="#6f7173" d="M635.61 601.984v4.857h2.51v-.883h-1.496v-3.974z" style="stroke-width:4.0877" transform="matrix(3.38002 0 0 3.38002 -1847.828 -1925.004)"/><path fill="#6f7173" d="M607.35 601.945h1.083l.936 1.95c.241.519.434 1.03.528 1.381-.037-.38-.07-1.005-.078-1.34l-.016-1.991h.936v4.868h-1.035l-.83-1.864c-.265-.613-.56-1.292-.653-1.594.028.396.036.973.045 1.382l.028 2.076h-.944zM612.976 601.928h1.054l1.537 4.888h-1.05l-.344-1.152h-1.43l-.34 1.152h-1.026zm.008 2.914h.952s-.163-.507-.265-.973c-.05-.229-.197-.866-.197-.866l-.237.944c-.09.343-.151.58-.253.895M626.932 601.945h1.079l.94 1.95c.241.519.425 1.03.531 1.381-.04-.38-.073-1.005-.082-1.34l-.024-1.991h.94v4.868h-1.026l-.834-1.864c-.265-.613-.568-1.292-.658-1.594.033.396.041.973.045 1.382l.029 2.076h-.94zM632.354 601.928h1.055l1.529 4.888h-1.047l-.339-1.152h-1.435l-.34 1.152h-1.025zm.008 2.914h.949s-.152-.507-.266-.973l-.192-.866s-.147.572-.23.944c-.093.343-.159.58-.26.895" style="stroke-width:4.08769" transform="matrix(3.38002 0 0 3.38002 -1847.828 -1925.004)"/><path fill="#6f7173" d="M615.53 601.944v.817h1.194v4.055h.99v-4.055h1.164l.16-.817zM619.86 606.816h1.034v-4.872h-1.034z" style="stroke-width:4.0877" transform="matrix(3.38002 0 0 3.38002 -1847.828 -1925.004)"/><path fill="#6f7173" d="M624.2 602.06c1.292 0 2.093.94 2.093 2.473 0 1.107-.38 1.925-1.09 2.317-.291.16-.565.221-.966.221-.744 0-1.214-.2-1.59-.687-.368-.478-.564-1.091-.564-1.81 0-1.055.413-1.889 1.1-2.273.29-.156.646-.241 1.018-.241m-.017.756c-.335 0-.63.167-.76.425-.168.319-.241.752-.241 1.333 0 .842.147 1.36.433 1.581.151.11.352.164.585.164.67 0 .964-.52.964-1.762 0-.494-.045-.85-.126-1.124a.884.884 0 0 0-.855-.617" style="stroke-width:4.08769" transform="matrix(3.38002 0 0 3.38002 -1847.828 -1925.004)"/></svg>