<svg xmlns="http://www.w3.org/2000/svg" width="380.2207mm" height="235.11105mm" viewBox="0 0 380.2207 235.11105"><g style="stroke-width:.226639"><g style="stroke-width:.226639"><path d="m0 0 .001-.001.035-.02 37.867-22.513a4 4 0 0 1 .511-.304 4.2 4.2 0 0 1 1.592-.468c.106-.01.212-.022.321-.023a4.17 4.17 0 0 1 2.851 1.114l.482.529c.539.702.864 1.577.868 2.53l1.699 29.163z" style="fill:#1082ce;fill-opacity:1;fill-rule:nonzero;stroke:none;stroke-width:.226639" transform="matrix(1.55656 0 0 -1.55656 158.326 108.826)"/></g><g style="stroke-width:.226639"><path d="M0 0q.042.043.086.085v.003L-14.641-12.18l11.644-33.133c0 .007 2.166 40.93 2.168 42.288S-.374-.41 0 0" style="fill:#bfe02b;fill-opacity:1;fill-rule:nonzero;stroke:none;stroke-width:.226639" transform="matrix(1.55656 0 0 -1.55656 234.946 22.718)"/></g><g style="stroke-width:.226639"><path d="M0 0a4.643 4.643 0 0 1-8.974-.343l-.001-.001-7.568-28.899 36.439-27.376z" style="fill:#f47026;fill-opacity:1;fill-rule:nonzero;stroke:none;stroke-width:.226639" transform="matrix(1.55656 0 0 -1.55656 199.311 5.12)"/></g><g style="stroke-width:.226639"><path d="m0 0 12.482-40.073.016-.005 9.789 37.382L8.217 7.538z" style="fill:#f89c18;fill-opacity:1;fill-rule:nonzero;stroke:none;stroke-width:.226639" transform="matrix(1.55656 0 0 -1.55656 138.871 46.442)"/></g><g style="stroke-width:.226639"><path d="m0 0 8.217 7.538-14.345 10.413.015-.039c.387-.455.687-.986.853-1.577z" style="fill:#99d540;fill-opacity:1;fill-rule:nonzero;stroke:none;stroke-width:.226639" transform="matrix(1.55656 0 0 -1.55656 138.871 46.442)"/></g><g style="stroke-width:.226639"><path d="M0 0c.175.789.552 1.5 1.072 2.082l.001.006-22.711-20.754L-7.569-28.9-.002 0Z" style="fill:#fcd562;fill-opacity:1;fill-rule:nonzero;stroke:none;stroke-width:.226639" transform="matrix(1.55656 0 0 -1.55656 185.343 5.654)"/></g><g style="stroke-width:.226639"><path d="m0 0-26.66-24.642.004.013c-.264-.635-.345-1.445.133-1.998l-.015.005.047-.046a1.64 1.64 0 0 1 .694-.431L12.39-40.04l.093-.032z" style="fill:#f47026;fill-opacity:1;fill-rule:nonzero;stroke:none;stroke-width:.226639" transform="matrix(1.55656 0 0 -1.55656 138.871 46.442)"/></g><g style="stroke-width:.226639"><path d="m0 0-36.438 27.376-9.789-37.383h.001z" style="fill:#f1452a;fill-opacity:1;fill-rule:nonzero;stroke:none;stroke-width:.226639" transform="matrix(1.55656 0 0 -1.55656 230.28 93.25)"/></g><g style="stroke-width:.226639"><path d="M0 0c-.718.985-25.077 34.322-25.077 34.322a3.4 3.4 0 0 1-2.828 1.508 3.37 3.37 0 0 1-2.424-1.02q-.044-.042-.086-.085c-.374-.41-.828-1.668-.829-3.025-.002-1.358-2.169-42.288-2.169-42.288S-5.09-4.455-1.886-3.739c.948.212 1.557.54 1.935.922l.121.132.029.032-.006-.001C.897-1.767.478-.652 0 0" style="fill:#99d540;fill-opacity:1;fill-rule:nonzero;stroke:none;stroke-width:.226639" transform="matrix(1.55656 0 0 -1.55656 282.29 76.77)"/></g><g style="stroke-width:.226639"><path d="m0 0-37.867 22.513-.037.021-.108.038-38.187 12.941a1.64 1.64 0 0 0-.694.431l28.912-28.907-.001-.001s4.404-3.547 9.998-4.11c5.593-.561 40.1-3.706 40.1-3.706l-.014.008A4.2 4.2 0 0 0 .51-.304 4 4 0 0 0 0 0" style="fill:#40bfb3;fill-opacity:1;fill-rule:nonzero;stroke:none;stroke-width:.226639" transform="matrix(1.55656 0 0 -1.55656 217.325 143.901)"/></g><g style="stroke-width:.226639"><path d="M0 0c2.305-.485 3.244-3.303 3.244-3.303.082-.726-.342-1.235-.807-1.704-.526-.534-1.316-1.03-1.99-1.368.2-3.571.365-6.097 4.354-11.126 3.598-4.538 5.355-6.916 6.136-9.878l-2.65-.575c-.343 3.138-1.803 6.13-4.489 9.756C-.284-12.674-.299-10.01-.46-6.768c-.692-.277-1.112-.354-1.639-.461-1.325-.276-2.153.302-2.153.302-1.13 2.305-.651 3.996.057 5.067.17.249.447.605.806.918 0 0 1.597 1.514 3.389.942" style="fill:#fff;fill-opacity:1;fill-rule:nonzero;stroke:none;stroke-width:.226639" transform="matrix(1.55656 0 0 -1.55656 245.606 43.618)"/></g><g style="stroke-width:.226639"><path d="M0 0c-.794.814-1.551 1.748-2.406 2.923-2.328 3.19-4.492 3.312-4.492 3.312-2.104-1.876-3.766.359-3.229 1.605.189.433.883 1.413 2.38.685.756-.37 1.05-1.142 1.094-1.577 2.725-.817 3.752-2.147 5.71-4.57A12.2 12.2 0 0 1 1.264.276z" style="fill:#fff;fill-opacity:1;fill-rule:nonzero;stroke:none;stroke-width:.226639" transform="matrix(1.55656 0 0 -1.55656 255.989 87.676)"/></g><g style="stroke-width:.226639"><path d="M0 0c.163 2.199-.161 4.28-.731 5.963-.578 1.698-2.121 5.509-3.339 7.14-1.116 1.103-1.74 2.977-.533 4.481 1.424 1.777 2.858.184 3.045-.919.274-1.585-.45-2.72-1.738-3.464C-2.132 11.132-.479 8.121.27 5.968.869 4.25 1.334 2.331 1.411.307Z" style="fill:#fff;fill-opacity:1;fill-rule:nonzero;stroke:none;stroke-width:.226639" transform="matrix(1.55656 0 0 -1.55656 264.299 85.872)"/></g><g style="stroke-width:.226639"><path d="M0 0c-.72-.642-1.093-3.891-1.093-3.891-.213-1.678-1.132-1.329-1.132-1.329-2.245.983-.756 3.799-.756 3.799C-1.252 1.826-.287.934.055.386.165.176.102.092 0 0m5.059 6.986L4.73 8.001l-.662-.215.315-.975c-.996-.304-2.142-.852-3.442-1.772l-.79.761-.486-.5.706-.683c-.34-.259-.686-.536-1.043-.847 0 0-.477-.375-1.12-.999l-1.015.566-.339-.607.848-.476C-3.075 1.436-3.952.348-4.506-.838l-1.096.302-.183-.672 1.012-.279c-.348-1.01-.422-2.064.016-3.075l-.976-.467.302-.628 1.011.483c.2-.299.449-.591.763-.874 0 0 .824-.641 1.925-.78l-.253-1.096.679-.156.287 1.241c.686.069 1.423.381 2.115 1.155 0 0 .363.388.772 1.602l.759-.362.299.631-.854.409c.139.503.276 1.109.404 1.837 0 0 .124.623.426 1.504l.816-.389.297.628-.873.417c.34.866.825 1.86 1.492 2.757l.442-.655.578.395-.564.827c.671.761 1.492 1.392 2.494 1.725 0 0-1.252-1.18.036-2.044 0 0 1.06-.548 1.762.399 0 0 .879 1.008.024 1.99 0 0-1.416 1.609-4.347.999" style="fill:#fff;fill-opacity:1;fill-rule:nonzero;stroke:none;stroke-width:.226639" transform="matrix(1.55656 0 0 -1.55656 189.629 41.472)"/></g><g style="stroke-width:.226639"><path d="M0 0c-.096-.155-.249-.371-.367-.426-.169-.079-.436-.033-.651-.036-.564-.008-1.25.013-2.044-.004-1.096-.022-2.397-.259-2.87-.911s-.049-.733-.765-1.002c-.717-.269-.842-.431-.913-.741s.014-.393.014-.393c.544.298 1.048.49 1.048.49l.53.193s.265.106.467.034c.299-.105 1.175-.442 1.566-.409l-3.202-2.038s-.831-.546-1.097-1.137c-.265-.591-.777-2.361-.876-3.48-.028-.317-.08-3.105.153-3.829.314-.979.812-1.095 1.164-.514.449.741 2.601 4.819 3.005 5.482.303.499.859 1.129 1.555 1.747C-2.588-6.357.609-3.91.609-3.91s3.454-.159 4.578-.037c1.125.123 1.35.273 1.991.638l1.537-.005s.439-.006.586.249c0 0 1.42.063 1.439.337s-1.012.364-1.496.364c0 0-.096.178-.777.204s-3.062.745-3.584 1.032c0 0-.078.765.228 1.377.305.611 1.102 1.526 1.27 2.058.168.533.286.858 1.301 1.233.6.222 2.049.753 3.082 1.268 1.481.739.242.611-.395.545-2.767-.287-8.743-1.027-9.079-2.477C1.057 1.872.399.645 0 0" style="fill:#fff;fill-opacity:1;fill-rule:nonzero;stroke:none;stroke-width:.226639" transform="matrix(1.55656 0 0 -1.55656 181.269 81.385)"/></g><g style="stroke-width:.226639"><path d="M0 0a4.2 4.2 0 0 1-.852 1.576 4.17 4.17 0 0 1-3.186 1.49A4.2 4.2 0 0 1-7.843.652a2 2 0 0 1-.201-.481l-13.351-41.135-.004-.013L5.26-16.335z" style="fill:#bfe02b;fill-opacity:1;fill-rule:nonzero;stroke:none;stroke-width:.226639" transform="matrix(1.55656 0 0 -1.55656 130.683 21.015)"/></g><g style="stroke-width:.226639"><path d="M0 0c-3.205-.716-31.527-6.849-31.527-6.849l-1.698-29.162a4.17 4.17 0 0 0-.868-2.531L1.935.922C1.557.54.948.212 0 0" style="fill:#80d6f7;fill-opacity:1;fill-rule:nonzero;stroke:none;stroke-width:.226639" transform="matrix(1.55656 0 0 -1.55656 279.354 82.59)"/></g><g style="stroke-width:.226639"><path d="m0 0-.434.358L.838 1.901l.434-.358Zm-.61-2.026-.258-.324c-.784-.971-2.302-2.749-4.08-4.295-1.186-1.032-2.823-1.954-3.959-2.473l-.292.639c1.091.499 2.66 1.381 3.789 2.364 2.53 2.201 4.525 4.884 4.545 4.91l.566-.418c-.005-.006-.117-.156-.311-.403m-9.222-5.827-.643.284c.506 1.143 1.409 2.79 2.427 3.988C-6.521-1.785-4.762-.247-3.8.548q.181.15.321.262c.244.197.394.31.4.315l.424-.561c-.026-.02-2.686-2.046-4.857-4.601-.97-1.14-1.834-2.719-2.32-3.816M.069 2.733l.362-.429-1.529-1.291-.362.43ZM4.779.327c-.021.033-.521.818-1.42 1.817-.491.545-.947.825-1.357.834a.8.8 0 0 1-.351-.074.4.4 0 0 0-.147.075.4.4 0 0 0-.079.149.76.76 0 0 1 .07.351c-.014.41-.3.863-.85 1.348-1.009.887-1.8 1.378-1.829 1.395-.202.134-.377.061-.465-.044a.32.32 0 0 1-.065-.236.38.38 0 0 1 .148-.253l-.002-.003.042-.037c.164-.147.783-.702 1.64-1.457.372-.325.496-.508.54-.591-.317-.033-.599-.239-.711-.331-.152-.002-.537-.036-1.125-.273l-.062-.027-.224-.105c-.05-.032-.269-.145-.334-.083l-.025.036a.2.2 0 0 0-.036.057l-.113.179q-.111.19-.166.333.022.025.085.084c.366.348.448.738.244 1.16a6 6 0 0 1-.547.937.34.34 0 0 1-.44.084c-.158-.089-.21-.242-.142-.417l.017-.048c.065-.17.162-.427.406-.935l-.1-.097-.045-.043c-.161-.151-.495-.467-.335-.951q.079-.24.258-.547.053-.092.098-.194l.056-.138c.066-.169.115-.324.144-.415l.022-.068c-.398.218-.647.155-1.206-.351-.001.002-.051-.003-.175.102l-.044.04-.022.016-.074.064-.014-.005a1.29 1.29 0 0 1-1.15.153 6 6 0 0 1-.347-.132l-.134-.055c-.588-.245-1.256-.522-2.836.08-.374.144-.515.002-.57-.141-.072-.188.033-.394.258-.494C-6.84.354-5.936.549-5.169.849c.178.048.426-.077.492-.21.022-.047.016-.071-.04-.114-.438-.366-.9-.756-1.366-1.17l.003.01-.454-.413c-.119-.109-.352.035-.354.037l-.071.04-.008-.003c-.301.15-.772.255-1.399-.002-.904-.367-2.529-.765-3.466-.765l-.078.001c-.39 0-.459-.18-.465-.288a.34.34 0 0 1 .126-.28.46.46 0 0 1 .269-.109c1.065-.048 2.731.193 3.741.551h.015c.377 0 .49-.213.523-.333-.366-.386-.649-.71-.884-1.013-.957-1.232-2.42-3.635-2.68-5.118-.102-.581.131-.802.378-1.036l.188-.186c.237-.244.46-.475 1.04-.365 1.48.277 3.866 1.768 5.086 2.739.305.242.625.528 1.004.896.121-.031.339-.143.338-.535-.346-1.014-.573-2.683-.507-3.747a.45.45 0 0 1 .148-.304.34.34 0 0 1 .245-.086c.11.007.294.08.282.489-.027.927.36 2.605.724 3.531.251.636.137 1.109-.018 1.408l.003.013-.038.056c-.001.003-.148.234-.041.354l.314.357-.002-.001a57 57 0 0 1 1.25 1.492c.032.043.056.051.104.028.134-.063.26-.305.216-.489-.286-.747-.486-1.651.268-3.563l.003-.008c.099-.216.307-.32.493-.244.142.055.281.2.136.572-.62 1.571-.351 2.242-.113 2.835l.055.138c.044.116.089.23.126.345.128.394.072.786-.163 1.141l.009.022-.07.07s-.021.02-.017.02h.002a.4.4 0 0 1-.051.052c-.094.112-.097.163-.098.165.499.568.56.818.338 1.213l.066-.02c.091-.027.247-.075.418-.139l.118-.046a2 2 0 0 0 .216-.105 3 3 0 0 1 .551-.251c.484-.154.796.183.947.345l.04.044c.036.04.074.081.098.103.508-.237.768-.332.94-.395l.047-.017c.176-.064.33-.012.416.148.084.152.049.325-.097.443a6 6 0 0 1-.936.532c-.425.199-.814.112-1.156-.258-.039-.043-.066-.069-.083-.086q-.144.053-.337.164l-.177.108a.3.3 0 0 0-.067.041c-.09.085.017.302.051.355l.106.234.021.054c.232.589.261.975.262 1.127.09.113.291.396.321.711.091-.042.275-.166.599-.529C3.598.642 4.236-.051 4.238-.051a.38.38 0 0 1 .263-.151.33.33 0 0 1 .234.068c.105.088.178.263.044.461" style="fill:#fff;fill-opacity:1;fill-rule:nonzero;stroke:none;stroke-width:.226639" transform="matrix(1.55656 0 0 -1.55656 215.729 111.879)"/></g><g style="stroke-width:.226639"><path d="M0 0c-1.503.262-2.613.136-3.353-.053 2.634 2.926 6.084 8.05 4.609 13.667.062.229.237.959-.048 1.073 0 0 .62-.326 1.198.015.58.343 1.186.435 1.806.341.622-.091 1.582.14 1.582.14s-.959 1.208-2.784 1.154c0 0-1.168.008-1.963-.773-.03-.03.894 1.739 1.46 1.98.564.239.995.119 1.182.013s.77.045 1.006.603c0 0-.219-.072-.927.355-.707.43-1.806.344-2.182-.06-.377-.405-1.175-1.318-1.332-2.324 0 0-.718 1.619-.35 2.177 0 0 .355.128.7.337.273.166.552.405.57.508-.383.144-.958.317-1.381.14-.162-.068-.375-.187-.608-.267-.413-.142-.875-.696-.683-1.467.105-.427.509-1.154.487-1.329 0 0-.53-.555-.392-.871.137-.315-1.108-.136-1.108-.136s-.005-.523.314-.716c0 0-1.802-.397-2.147-.568-.347-.173-.651-.21-.954-.54-.304-.33-.645-1.123-.764-1.665 0 0 .574.375 1.449.295.875-.077 1.064.008 1.836.463 0 0 1.236.147 1.615.307.377.16.563.455.803.58 0 0 .209.039.647.019.222-.921.575-3.049-.337-4.827-.616-1.201-1.716-2.05-3.27-2.523-4.223-1.289-6.862.516-7.756 1.298-.202.177-.576.144-.71 0-.133-.144-.227-.489-.01-.684.994-.891 3.99-3.015 8.765-1.562q1.705.52 2.79 1.569C-1.394 3.716-3.467 1.243-4.933-.259c-.396 1.136-1.17 1.775-1.17 1.775-1.7 1.854-5.193 3.053-7.039 3.131s-2.096-.179-1.992-.391.373-.226.373-.226c2.999-.18 5.599-1.832 5.599-1.832C-6.103.322-6.227-1.468-6.227-1.468-6.787-.671-8.07.016-8.07.016c-2.437 1.512-5.403.795-5.554.762s-.132-.127-.132-.127c.185-.278.776-.569 1.616-.534 1.289.055 3.03-.735 3.03-.735 1.272-.694 1.922-1.343 2.257-1.846-.647.386-1.669.655-2.863.262 0 0-.906-.434.052-.434s3.08-.556 3.156-1.566v.003a8 8 0 0 0-.084-.664l1.642-.557c.308.482.646.49.646.49.764.171 1.043.642 1.043.642-.557.265-1.29-.024-1.29-.024.555.601.962.772 2.609.382C-.486-4.274.52-6.034.694-5.722s-.382 1.26-.382 1.26c-1.399 2.104-3.976 1.815-3.976 1.815 1.976.497 4.29-.484 5.434-1.848s1.27-1.238 1.27-1.238.657.252-1.154 2.424C.075-1.136-3.306-1.237-3.306-1.237c4.901.717 7.629-2.288 8.219-2.774.589-.485.635-.208.635-.208C5.641-3.352 2.982-.52 0 0" style="fill:#fff;fill-opacity:1;fill-rule:nonzero;stroke:none;stroke-width:.226639" transform="matrix(1.55656 0 0 -1.55656 132.617 89.063)"/></g><path d="M146.349 288.265h-8.571v2.511h8.571zm0 5.555h-8.571v2.908h-3.571v-8.722a2.785 2.785 0 0 1 2.785-2.786h10.116a2.785 2.785 0 0 1 2.785 2.786v8.628h-3.544z" style="fill:#656263;fill-opacity:1;fill-rule:nonzero;stroke:none;stroke-width:.226639" transform="matrix(1.55656 0 0 -1.55656 -160.968 655.541)"/><g style="stroke-width:.226639"><path d="M0 0a1.77 1.77 0 0 1-1.772-1.772v-7.962a50 50 0 0 0-4.575-.608c-1.089-.107-2.962-.189-4.662-.241a163 163 0 0 0-3.748-.067v1.946h9.144V-.95h-12.769v-3.131h9.171v-1.55h-6.968l-.005-.006h-.002a2.14 2.14 0 0 1-1.514-.631l-.02-.024a2 2 0 0 1-.242-.293c-.025-.037-.041-.08-.064-.119-.047-.08-.097-.159-.134-.246-.032-.076-.05-.158-.074-.239-.016-.055-.039-.107-.051-.164a2.2 2.2 0 0 1-.043-.433v-2.556q.001-.336.064-.654a3.35 3.35 0 0 1 2.686-2.681c.067-.012.317-.058.58-.077.242-.017.494-.009.619-.003 2.455.106 6.023.366 7.449.482 1.618.111 3.365.492 5.158.883v-1.93h3.544v12.55C1.772-.793.979 0 0 0" style="fill:#656263;fill-opacity:1;fill-rule:nonzero;stroke:none;stroke-width:.226639" transform="matrix(1.55656 0 0 -1.55656 69.592 169.741)"/></g><g style="stroke-width:.226639"><path d="M0 0a46 46 0 0 0-.396-2.216l-.006-.03a1.285 1.285 0 0 1 .987-1.498l.028-.006q.119-.023.245-.024c.298 0 .568.105.786.275l.004.003v-.005q.017.016.033.033.083.07.153.152C3.425-1.682 3.841 2.51 3.841 2.51c.055.633.082 1.217.082 1.735v2.113H-8.659V3.284H.293A40 40 0 0 0 0 0" style="fill:#656263;fill-opacity:1;fill-rule:nonzero;stroke:none;stroke-width:.226639" transform="matrix(1.55656 0 0 -1.55656 357.798 181.116)"/></g><g style="stroke-width:.226639"><path d="M0 0a1.772 1.772 0 1 1-3.544 0v-21.882H0v12.636h3.866v3.131H0Z" style="fill:#656263;fill-opacity:1;fill-rule:nonzero;stroke:none;stroke-width:.226639" transform="matrix(1.55656 0 0 -1.55656 297.316 172.5)"/></g><g style="stroke-width:.226639"><path d="M0 0h-3.544v-8.552c-1.936-.527-5.487-1.305-7.24-1.524a34 34 0 0 0-4.426-.381.785.785 0 0 0-.717.781V-.95h-3.571v-9.209q.002-.341.066-.664a3.434 3.434 0 0 1 3.123-2.758 56 56 0 0 1 4.978.347c1.933.2 5.615 1.138 7.787 2.222v-3.885H0v6.182h3.866v3.102H0Z" style="fill:#656263;fill-opacity:1;fill-rule:nonzero;stroke:none;stroke-width:.226639" transform="matrix(1.55656 0 0 -1.55656 143.852 169.741)"/></g><g style="stroke-width:.226639"><path d="M0 0h3.57v3.843l.227.016c2.696.287 5.668 1.125 5.668 1.125a1.28 1.28 0 0 1 1.068 1.262c0 .71-.575 1.285-1.285 1.285-.021 0-.813-.088-1.922-.204a48 48 0 0 1 .464 3.782c.092 1.419.136 2.588.136 3.575v1.998H-4.901v-3.074h9.228c-.057-2.396-.269-4.627-.633-6.636a82 82 0 0 0-2.098-.163c-2.78-.221-5.618-.343-8.679-.373l-.112-.002.465-3.072h.084c2.192 0 4.426.081 6.646.238Z" style="fill:#656263;fill-opacity:1;fill-rule:nonzero;stroke:none;stroke-width:.226639" transform="matrix(1.55656 0 0 -1.55656 161.195 197.185)"/></g><g style="stroke-width:.226639"><path d="M0 0h10.101v-1.455H3.948v-3.016h12.387v-1.048H6.097v.001l-.014-.001a2.15 2.15 0 0 1-2.135-2.148v-2.907a2.15 2.15 0 0 1 2.149-2.149h14.326v3.016H7.519v1.172h10.21a2.15 2.15 0 0 1 2.15 2.149v2.782a2.15 2.15 0 0 1-2.15 2.149h-4.058V0h10.046v3.102H0Z" style="fill:#656263;fill-opacity:1;fill-rule:nonzero;stroke:none;stroke-width:.226639" transform="matrix(1.55656 0 0 -1.55656 226.506 191.775)"/></g><g style="stroke-width:.226639"><path d="M0 0v5.827a1.772 1.772 0 1 1-3.544 0V-4.16c-1.597-.235-4.046-.551-5.167-.648a97 97 0 0 0-3.976-.338v5.29h-3.571v-5.476a34 34 0 0 0-2.329-.08 71 71 0 0 0-2.474-.057h-.113l.465-3.074.085.001c2.874.028 5.679.144 8.336.345 2.098.136 5.885.706 8.744 1.6v-6.062H0v9.528h3.866V0Z" style="fill:#656263;fill-opacity:1;fill-rule:nonzero;stroke:none;stroke-width:.226639" transform="matrix(1.55656 0 0 -1.55656 374.203 181.57)"/></g><g style="stroke-width:.226639"><path d="M0 0h-3.571v-3.964A3.103 3.103 0 0 1-.468-7.067h13.264v3.102H0Z" style="fill:#656263;fill-opacity:1;fill-rule:nonzero;stroke:none;stroke-width:.226639" transform="matrix(1.55656 0 0 -1.55656 318.74 200.131)"/></g><g style="stroke-width:.226639"><path d="M0 0h-3.57v-5.743A3.103 3.103 0 0 1-.468-8.846h12.72v3.103H0Z" style="fill:#656263;fill-opacity:1;fill-rule:nonzero;stroke:none;stroke-width:.226639" transform="matrix(1.55656 0 0 -1.55656 355.768 197.362)"/></g><g style="stroke-width:.226639"><path d="M0 0h4.982v-2.613h3.544v18.969a1.773 1.773 0 0 1-3.544 0V3.131H0Z" style="fill:#656263;fill-opacity:1;fill-rule:nonzero;stroke:none;stroke-width:.226639" transform="matrix(1.55656 0 0 -1.55656 171.027 197.958)"/></g><g style="stroke-width:.226639"><path d="M0 0h4.982v-2.613h3.544v20.12a1.772 1.772 0 1 1-3.544 0V3.131H0Z" style="fill:#656263;fill-opacity:1;fill-rule:nonzero;stroke:none;stroke-width:.226639" transform="matrix(1.55656 0 0 -1.55656 324.75 199.75)"/></g><path d="M256.584 308.536h8.517v-2.971h-8.517zm-.785-6.045h10.088a2.785 2.785 0 0 1 2.785 2.785v6.362h-15.658v-6.362a2.785 2.785 0 0 1 2.785-2.785" style="fill:#656263;fill-opacity:1;fill-rule:nonzero;stroke:none;stroke-width:.226639" transform="matrix(1.55656 0 0 -1.55656 -160.968 655.541)"/><g style="stroke-width:.226639"><path d="M0 0c.46-.399 1.733-.946 2.496-.996.443-.029.834.224 1.065.566l.001.002a1.276 1.276 0 0 1-.258 1.709q-.089.059-.176.12a10 10 0 0 0-.628.466A8 8 0 0 0 .912 3.49 8 8 0 0 0-.273 5.626c-.311.767-.456 1.597-.456 2.611v3.12h-3.489V8.18c0-.935-.135-1.796-.403-2.559a8.1 8.1 0 0 0-1.103-2.163 9 9 0 0 0-1.645-1.766A12 12 0 0 0-8.384.929q-.002-.003-.002-.005a1.28 1.28 0 0 1-.536-1.041c0-.072-.011-.14.018-.207a1.3 1.3 0 0 1 .201-.509l.005-.007c.231-.339.62-.561 1.061-.561.11 0 .215.018.317.044l.023.001c.85.275 1.334.545 2.436 1.446.969.789 1.901 1.682 2.457 2.729.274-.5.597-.971.982-1.432C-1.076.917-.521.419 0 0" style="fill:#656263;fill-opacity:1;fill-rule:nonzero;stroke:none;stroke-width:.226639" transform="matrix(1.55656 0 0 -1.55656 202.484 188.674)"/></g><g style="stroke-width:.226639"><path d="M0 0a1.73 1.73 0 0 1-1.73-1.712l-.002-.02.002-.019v-3.862h-1.656v3.864l.001.015-.001.015A1.73 1.73 0 0 1-5.115-.003h-.003a1.73 1.73 0 0 1-1.73-1.731v-12.127h3.462v5.146h1.656v-6.441h3.462v13.424C1.732-.775.957 0 0 0" style="fill:#656263;fill-opacity:1;fill-rule:nonzero;stroke:none;stroke-width:.226639" transform="matrix(1.55656 0 0 -1.55656 220.52 169.741)"/></g><g style="stroke-width:.226639"><path d="M0 0h-3.571v-5.29A2.785 2.785 0 0 1-.785-8.075h13.581v3.102H0Z" style="fill:#656263;fill-opacity:1;fill-rule:nonzero;stroke:none;stroke-width:.226639" transform="matrix(1.55656 0 0 -1.55656 165.016 198.561)"/></g><g style="stroke-width:.226639"><path d="M0 0h8.3v-4.75H0v4.358zm-3.57-.392v-4.617A2.785 2.785 0 0 1-.785-7.794h9.843a2.785 2.785 0 0 1 2.785 2.785v8.054H-3.57Z" style="fill:#656263;fill-opacity:1;fill-rule:nonzero;stroke:none;stroke-width:.226639" transform="matrix(1.55656 0 0 -1.55656 125.417 199.447)"/></g><g style="stroke-width:.226639"><path d="M0 0c.093 1.471.136 2.616.136 3.604v1.71h-15.93V2.24h12.301a102 102 0 0 0-.186-3.174 50 50 0 0 0-.394-2.935h-15.533v-3.102h10.1v-3.058h-6.425v-3.073h12.66v-7.628H.272v7.916a2.785 2.785 0 0 1-2.785 2.785h-3.422v3.058H4.111v3.102H-.498A40 40 0 0 1 0 0" style="fill:#656263;fill-opacity:1;fill-rule:nonzero;stroke:none;stroke-width:.226639" transform="matrix(1.55656 0 0 -1.55656 30.518 179.49)"/></g><g style="stroke-width:.226639"><path d="M0 0h3.571v3.259c2.696.287 5.635 1.095 5.635 1.095.606.104 1.101.594 1.101 1.229 0 .71-.575 1.285-1.285 1.285-.052 0-5.056-.565-7.652-.722-2.78-.221-5.618-.344-8.679-.373l-.112-.002.465-3.072h.084c2.266 0 4.578.085 6.872.252z" style="fill:#656263;fill-opacity:1;fill-rule:nonzero;stroke:none;stroke-width:.226639" transform="matrix(1.55656 0 0 -1.55656 315.327 198.59)"/></g><g style="stroke-width:.226639"><path d="M0 0c-1.826 0-3.306 1.58-3.306 3.529 0 1.95 1.48 3.53 3.306 3.53s3.306-1.58 3.306-3.53S1.826 0 0 0m0 10.161c-3.738 0-6.768-2.969-6.768-6.632S-3.738-3.102 0-3.102 6.768-.133 6.768 3.529 3.738 10.161 0 10.161" style="fill:#656263;fill-opacity:1;fill-rule:nonzero;stroke:none;stroke-width:.226639" transform="matrix(1.55656 0 0 -1.55656 210.69 208.453)"/></g><g style="stroke-width:.226639"><path d="M0 0a2.53 2.53 0 0 0 2.543-2.522A2.53 2.53 0 0 0 0-5.044a2.53 2.53 0 0 0-2.543 2.522A2.53 2.53 0 0 0 0 0m0-8.146c3.362 0 6.087 2.518 6.087 5.624S3.362 3.102 0 3.102-6.087.584-6.087-2.522-3.362-8.146 0-8.146" style="fill:#656263;fill-opacity:1;fill-rule:nonzero;stroke:none;stroke-width:.226639" transform="matrix(1.55656 0 0 -1.55656 317.147 174.928)"/></g><g style="stroke-width:.226639"><path d="m0 0-.03.026Q-.152.1-.271.175c-1.334.873-2.403 1.912-3.187 3.103-1.073 1.56-1.617 3.565-1.617 5.961v1.975H.098v3.131h-13.943v-3.131h5.172V9.239c0-2.331-.58-4.376-1.724-6.075A12.6 12.6 0 0 0-13.82-.153q-.064-.04-.128-.08a.4.4 0 0 1-.046-.041 1.33 1.33 0 0 1-.564-1.088c0-.74.6-1.34 1.34-1.34.162 0 .316.034.461.087l.003-.004c.761.217 2.491 1.256 3.079 1.783.672.63 1.18 1.231 1.613 1.841.41.53.793 1.158 1.198 1.961a9.8 9.8 0 0 1 1.149-1.899c.404-.588.931-1.169 1.537-1.725 1.13-1.037 2.378-1.551 3.027-1.733q.124-.044.256-.062a1 1 0 0 1 .18-.018l.006-.001.009.001c.127.002.189.015.221.022l.039.004q.032-.01.02.006c.194.043.369.13.521.246.055.02.108.054.16.123q.032.039.06.079l.02.035c.179.228.29.512.29.823C.631-.654.378-.237 0 0" style="fill:#656263;fill-opacity:1;fill-rule:nonzero;stroke:none;stroke-width:.226639" transform="matrix(1.55656 0 0 -1.55656 287.797 193.549)"/></g><g style="stroke-width:.226639"><path d="M0 0c0 2.243 1.565 4.062 3.496 4.062S6.992 2.243 6.992 0 5.427-4.062 3.496-4.062 0-2.243 0 0m5.282-6.869A7.1 7.1 0 0 1 10.563 0a7.1 7.1 0 0 1-1.494 4.36h3.128v3.016H5.389v.029h-.107v2.59H1.683v-2.59h-.079v-.029h-6.863V4.36h3.183A7.1 7.1 0 0 1-3.57 0a7.096 7.096 0 0 1 5.281-6.869v-2.825H-8.417v-3.102h23.718v3.102H5.282Z" style="fill:#656263;fill-opacity:1;fill-rule:nonzero;stroke:none;stroke-width:.226639" transform="matrix(1.55656 0 0 -1.55656 89.11 184.716)"/></g><g style="stroke-width:.226639"><path d="M0 0c1.346 0 2.139.484 2.139 1.545 0 .969-.763 1.412-2.139 1.412h-1.369V0Zm-.204 3.725c1.339 0 1.893.494 1.893 1.29 0 .92-.63 1.263-1.847 1.263h-1.211V3.725Zm-2.167 3.347h2.336c1.599 0 2.707-.544 2.707-1.927 0-.777-.414-1.467-1.149-1.707v-.049c.939-.186 1.599-.806 1.599-1.882C3.122-.038 1.899-.794.146-.794h-2.517z" style="fill:#656263;fill-opacity:1;fill-rule:nonzero;stroke:none;stroke-width:.226639" transform="matrix(1.55656 0 0 -1.55656 223.307 229.701)"/></g><path d="M251.458 278.609h.985v-5.826h-.985zm-.181 1.835c0 .387.297.635.68.635s.682-.248.682-.635c0-.373-.298-.637-.682-.637-.383 0-.68.264-.68.637" style="fill:#656263;fill-opacity:1;fill-rule:nonzero;stroke:none;stroke-width:.226639" transform="matrix(1.55656 0 0 -1.55656 -160.968 655.541)"/><g style="stroke-width:.226639"><path d="M0 0c0 1.335-.68 2.244-1.681 2.244-1.003 0-1.681-.909-1.681-2.244s.678-2.229 1.681-2.229C-.68-2.229 0-1.335 0 0m-4.38 0c0 1.944 1.27 3.064 2.699 3.064 1.427 0 2.699-1.12 2.699-3.064 0-1.929-1.272-3.049-2.699-3.049C-3.11-3.049-4.38-1.929-4.38 0" style="fill:#656263;fill-opacity:1;fill-rule:nonzero;stroke:none;stroke-width:.226639" transform="matrix(1.55656 0 0 -1.55656 241.18 226.414)"/></g><g style="stroke-width:.226639"><path d="M0 0v7.368h.985V-.073c0-.301.132-.421.276-.421.057 0 .104 0 .216.024l.132-.752a1.6 1.6 0 0 0-.567-.092C.303-1.314 0-.842 0 0" style="fill:#656263;fill-opacity:1;fill-rule:nonzero;stroke:none;stroke-width:.226639" transform="matrix(1.55656 0 0 -1.55656 245.074 229.115)"/></g><g style="stroke-width:.226639"><path d="M0 0c0 1.335-.681 2.244-1.681 2.244-1.003 0-1.681-.909-1.681-2.244s.678-2.229 1.681-2.229C-.681-2.229 0-1.335 0 0m-4.38 0c0 1.944 1.27 3.064 2.699 3.064 1.427 0 2.699-1.12 2.699-3.064 0-1.929-1.272-3.049-2.699-3.049C-3.11-3.049-4.38-1.929-4.38 0" style="fill:#656263;fill-opacity:1;fill-rule:nonzero;stroke:none;stroke-width:.226639" transform="matrix(1.55656 0 0 -1.55656 255.974 226.414)"/></g><g style="stroke-width:.226639"><path d="M0 0c0 .847-.551 1.36-1.238 1.36S-2.477.854-2.477 0c0-.848.568-1.385 1.239-1.385C-.565-1.385 0-.848 0 0m.747-4.708c0 .539-.408.722-1.174.722h-1.005c-.221 0-.499.025-.756.087-.416-.295-.594-.642-.594-.977 0-.626.629-1.02 1.687-1.02 1.113 0 1.842.579 1.842 1.188m-4.39-.306c0 .499.319.97.855 1.318v.047a1.08 1.08 0 0 0-.522.955c0 .484.338.87.642 1.081v.048c-.386.303-.755.87-.755 1.565 0 1.274 1.002 2.075 2.185 2.075.322 0 .612-.063.824-.143h2.031v-.76H.422C.695.908.895.471.895-.027c0-1.247-.941-2.02-2.133-2.02-.282 0-.604.07-.867.198-.21-.175-.372-.369-.372-.688 0-.37.241-.632 1.022-.632h1.133c1.355 0 2.037-.425 2.037-1.391 0-1.084-1.146-2.016-2.948-2.016-1.424 0-2.41.56-2.41 1.562" style="fill:#656263;fill-opacity:1;fill-rule:nonzero;stroke:none;stroke-width:.226639" transform="matrix(1.55656 0 0 -1.55656 264.925 224.875)"/></g><path d="M276.452 278.609h.985v-5.826h-.985zm-.181 1.835c0 .387.297.635.681.635.383 0 .681-.248.681-.635 0-.373-.298-.637-.681-.637s-.681.264-.681.637" style="fill:#656263;fill-opacity:1;fill-rule:nonzero;stroke:none;stroke-width:.226639" transform="matrix(1.55656 0 0 -1.55656 -160.968 655.541)"/><g style="stroke-width:.226639"><path d="M0 0c0 1.944 1.312 3.064 2.803 3.064.764 0 1.293-.314 1.704-.683l-.505-.653c-.339.308-.698.516-1.155.516-1.055 0-1.829-.909-1.829-2.244s.729-2.229 1.802-2.229c.531 0 1.003.258 1.367.581l.428-.661a2.84 2.84 0 0 0-1.885-.74C1.182-3.049 0-1.929 0 0" style="fill:#656263;fill-opacity:1;fill-rule:nonzero;stroke:none;stroke-width:.226639" transform="matrix(1.55656 0 0 -1.55656 273.267 226.414)"/></g><g style="stroke-width:.226639"><path d="M0 0v1.619C-1.952 1.383-2.613.906-2.613.16c0-.661.451-.931 1.021-.931.563 0 1.028.275 1.592.771m-3.577.091c0 1.27 1.094 1.904 3.577 2.174-.001.75-.251 1.472-1.203 1.472-.674 0-1.28-.32-1.736-.625l-.387.676c.538.352 1.354.761 2.29.761 1.421 0 2.022-.945 2.022-2.395v-3.575H.173L.09-.724H.056c-.556-.463-1.203-.841-1.927-.841-.976 0-1.706.605-1.706 1.656" style="fill:#656263;fill-opacity:1;fill-rule:nonzero;stroke:none;stroke-width:.226639" transform="matrix(1.55656 0 0 -1.55656 287.255 228.725)"/></g><g style="stroke-width:.226639"><path d="M0 0v7.368h.985V-.073c0-.301.133-.421.276-.421.057 0 .104 0 .216.024l.132-.752a1.6 1.6 0 0 0-.567-.092C.303-1.314 0-.842 0 0" style="fill:#656263;fill-opacity:1;fill-rule:nonzero;stroke:none;stroke-width:.226639" transform="matrix(1.55656 0 0 -1.55656 291.655 229.115)"/></g><g style="stroke-width:.226639"><path d="m0 0 .783.517 2.401-4.116H2.049Zm.053.538c1.223 0 1.897.496 1.897 1.514 0 1.036-.674 1.403-1.897 1.403h-1.32V.538Zm-2.321 3.728H.197c1.602 0 2.753-.575 2.753-2.214C2.95.482 1.799-.275.197-.275h-1.464v-3.324h-1.001z" style="fill:#656263;fill-opacity:1;fill-rule:nonzero;stroke:none;stroke-width:.226639" transform="matrix(1.55656 0 0 -1.55656 303.814 225.334)"/></g><g style="stroke-width:.226639"><path d="M0 0c0 1.167-.525 1.802-1.436 1.802-.817 0-1.55-.657-1.67-1.802zm-4.071-.477c0 1.897 1.276 3.065 2.619 3.065C.034 2.588.872 1.52.872-.147c0-.207-.018-.416-.046-.559h-3.924c.072-1.234.826-2.035 1.937-2.035.558 0 1.018.182 1.449.466l.353-.647c-.51-.335-1.13-.604-1.924-.604-1.553 0-2.788 1.136-2.788 3.049" style="fill:#656263;fill-opacity:1;fill-rule:nonzero;stroke:none;stroke-width:.226639" transform="matrix(1.55656 0 0 -1.55656 316.235 225.673)"/></g><g style="stroke-width:.226639"><path d="m0 0 .488.649c.505-.408 1.019-.69 1.718-.69.766 0 1.145.407 1.145.905 0 .601-.686.864-1.333 1.104-.814.299-1.737.7-1.737 1.683 0 .932.748 1.654 2.011 1.654.725 0 1.359-.297 1.811-.655l-.471-.631c-.403.296-.813.518-1.331.518-.733 0-1.072-.391-1.072-.835 0-.554.635-.766 1.295-1.012.84-.317 1.775-.658 1.775-1.767 0-.945-.751-1.732-2.125-1.732C1.346-.809.547-.457 0 0" style="fill:#656263;fill-opacity:1;fill-rule:nonzero;stroke:none;stroke-width:.226639" transform="matrix(1.55656 0 0 -1.55656 318.808 229.902)"/></g><g style="stroke-width:.226639"><path d="M0 0c0 1.335-.68 2.244-1.681 2.244-1.003 0-1.681-.909-1.681-2.244s.678-2.229 1.681-2.229C-.68-2.229 0-1.335 0 0m-4.38 0c0 1.944 1.27 3.064 2.699 3.064 1.427 0 2.699-1.12 2.699-3.064 0-1.929-1.272-3.049-2.699-3.049C-3.11-3.049-4.38-1.929-4.38 0" style="fill:#656263;fill-opacity:1;fill-rule:nonzero;stroke:none;stroke-width:.226639" transform="matrix(1.55656 0 0 -1.55656 333.778 226.414)"/></g><g style="stroke-width:.226639"><path d="M0 0v3.691h.987V.126c0-1.085.327-1.548 1.099-1.548.596 0 1.008.295 1.559.98v4.133h.987v-5.825h-.815l-.082.911h-.034c-.54-.636-1.122-1.056-1.921-1.056C.553-2.279 0-1.486 0 0" style="fill:#656263;fill-opacity:1;fill-rule:nonzero;stroke:none;stroke-width:.226639" transform="matrix(1.55656 0 0 -1.55656 337.621 227.614)"/></g><g style="stroke-width:.226639"><path d="M0 0h.814l.084-1.062h.031C1.336-.322 1.93.144 2.587.144c.257 0 .44-.032.622-.12l-.184-.865c-.2.063-.331.096-.565.096-.492 0-1.08-.354-1.475-1.34v-3.741H0Z" style="fill:#656263;fill-opacity:1;fill-rule:nonzero;stroke:none;stroke-width:.226639" transform="matrix(1.55656 0 0 -1.55656 347.886 221.868)"/></g><g style="stroke-width:.226639"><path d="M0 0c0 1.944 1.313 3.064 2.803 3.064.764 0 1.293-.314 1.704-.683l-.505-.653c-.339.308-.698.516-1.155.516-1.055 0-1.828-.909-1.828-2.244s.73-2.229 1.802-2.229c.53 0 1.002.258 1.368.581l.426-.661a2.83 2.83 0 0 0-1.884-.74C1.182-3.049 0-1.929 0 0" style="fill:#656263;fill-opacity:1;fill-rule:nonzero;stroke:none;stroke-width:.226639" transform="matrix(1.55656 0 0 -1.55656 353.504 226.414)"/></g><g style="stroke-width:.226639"><path d="M0 0c0 1.167-.525 1.802-1.436 1.802-.817 0-1.551-.657-1.67-1.802Zm-4.071-.477c0 1.897 1.276 3.065 2.619 3.065C.034 2.588.872 1.52.872-.147c0-.207-.018-.416-.046-.559h-3.924c.07-1.234.826-2.035 1.936-2.035.559 0 1.019.182 1.45.466l.351-.647c-.508-.335-1.129-.604-1.922-.604-1.554 0-2.788 1.136-2.788 3.049" style="fill:#656263;fill-opacity:1;fill-rule:nonzero;stroke:none;stroke-width:.226639" transform="matrix(1.55656 0 0 -1.55656 367.947 225.673)"/></g><g style="stroke-width:.226639"><path d="m0 0 .488.649c.505-.408 1.018-.69 1.718-.69.764 0 1.145.407 1.145.905 0 .601-.688.864-1.333 1.104-.816.299-1.736.7-1.736 1.683 0 .932.747 1.654 2.009 1.654.726 0 1.36-.297 1.812-.655l-.473-.631c-.401.296-.811.518-1.329.518-.733 0-1.072-.391-1.072-.835 0-.554.634-.766 1.294-1.012.841-.317 1.776-.658 1.776-1.767 0-.945-.751-1.732-2.125-1.732C1.346-.809.547-.457 0 0" style="fill:#656263;fill-opacity:1;fill-rule:nonzero;stroke:none;stroke-width:.226639" transform="matrix(1.55656 0 0 -1.55656 370.52 229.902)"/></g><g style="stroke-width:.226639"><path d="M0 0h1.034l2.844-4.943.85-1.626h.047c-.05.793-.126 1.678-.126 2.501V0h.949v-7.86H4.566L1.72-2.915.872-1.291H.825c.048-.796.126-1.634.126-2.456V-7.86H0Z" style="fill:#656263;fill-opacity:1;fill-rule:nonzero;stroke:none;stroke-width:.226639" transform="matrix(1.55656 0 0 -1.55656 61.265 218.692)"/></g><g style="stroke-width:.226639"><path d="M0 0v1.618C-1.951 1.382-2.611.906-2.611.16c0-.661.45-.93 1.02-.93.563 0 1.026.274 1.591.77m-3.576.091c0 1.27 1.094 1.903 3.576 2.173-.002.749-.252 1.471-1.203 1.471-.673 0-1.279-.32-1.734-.625l-.387.676c.537.352 1.353.76 2.288.76 1.42 0 2.022-.944 2.022-2.394V-1.42H.172l-.083.696H.055c-.555-.462-1.202-.84-1.925-.84-.975 0-1.706.605-1.706 1.655" style="fill:#656263;fill-opacity:1;fill-rule:nonzero;stroke:none;stroke-width:.226639" transform="matrix(1.55656 0 0 -1.55656 78.18 228.718)"/></g><g style="stroke-width:.226639"><path d="M0 0v3.218h-.866v.746l.91.057.118 1.634h.824V4.021h1.577v-.803H.986V-.018c0-.711.228-1.124.9-1.124.206 0 .473.078.663.156l.19-.742c-.327-.112-.716-.217-1.079-.217C.42-1.945 0-1.159 0 0" style="fill:#656263;fill-opacity:1;fill-rule:nonzero;stroke:none;stroke-width:.226639" transform="matrix(1.55656 0 0 -1.55656 82.584 228.126)"/></g><path d="M160.345 278.611h.985v-5.822h-.985zm-.181 1.833c0 .387.297.636.679.636.384 0 .683-.249.683-.636 0-.372-.299-.636-.683-.636-.382 0-.679.264-.679.636" style="fill:#656263;fill-opacity:1;fill-rule:nonzero;stroke:none;stroke-width:.226639" transform="matrix(1.55656 0 0 -1.55656 -160.968 655.541)"/><g style="stroke-width:.226639"><path d="M0 0c0 1.334-.68 2.242-1.68 2.242-1.002 0-1.68-.908-1.68-2.242s.678-2.228 1.68-2.228C-.68-2.228 0-1.334 0 0m-4.378 0c0 1.943 1.27 3.062 2.698 3.062 1.426 0 2.697-1.119 2.697-3.062 0-1.928-1.271-3.047-2.697-3.047-1.428 0-2.698 1.119-2.698 3.047" style="fill:#656263;fill-opacity:1;fill-rule:nonzero;stroke:none;stroke-width:.226639" transform="matrix(1.55656 0 0 -1.55656 99.347 226.408)"/></g><g style="stroke-width:.226639"><path d="M0 0h.814l.083-.839h.032c.554.546 1.154.983 1.952.983C4.11.144 4.66-.649 4.66-2.133v-3.689h-.986v3.562c0 1.084-.327 1.548-1.097 1.548-.597 0-1.009-.304-1.592-.895v-4.215H0Z" style="fill:#656263;fill-opacity:1;fill-rule:nonzero;stroke:none;stroke-width:.226639" transform="matrix(1.55656 0 0 -1.55656 103.313 221.866)"/></g><g style="stroke-width:.226639"><path d="M0 0v1.618C-1.951 1.382-2.611.906-2.611.16c0-.661.45-.93 1.02-.93.563 0 1.027.274 1.591.77m-3.575.091c0 1.27 1.094 1.903 3.575 2.173-.001.749-.252 1.471-1.202 1.471-.674 0-1.279-.32-1.735-.625l-.387.676c.537.352 1.353.76 2.288.76 1.42 0 2.022-.944 2.022-2.394V-1.42H.172L.09-.724H.056c-.556-.462-1.203-.84-1.926-.84-.975 0-1.705.605-1.705 1.655" style="fill:#656263;fill-opacity:1;fill-rule:nonzero;stroke:none;stroke-width:.226639" transform="matrix(1.55656 0 0 -1.55656 118.504 228.718)"/></g><g style="stroke-width:.226639"><path d="M0 0v7.363h.985V-.073c0-.301.132-.421.275-.421.057 0 .104 0 .216.025l.132-.752a1.6 1.6 0 0 0-.566-.092C.303-1.313 0-.842 0 0" style="fill:#656263;fill-opacity:1;fill-rule:nonzero;stroke:none;stroke-width:.226639" transform="matrix(1.55656 0 0 -1.55656 122.9 229.108)"/></g><path d="M187.907 280.649h1v-7.86h-1z" style="fill:#656263;fill-opacity:1;fill-rule:nonzero;stroke:none;stroke-width:.226639" transform="matrix(1.55656 0 0 -1.55656 -160.968 655.541)"/><g style="stroke-width:.226639"><path d="M0 0h.814l.083-.839h.032c.554.546 1.154.983 1.952.983C4.11.144 4.66-.649 4.66-2.133v-3.689h-.986v3.562c0 1.084-.327 1.548-1.097 1.548-.597 0-1.009-.304-1.592-.895v-4.215H0Z" style="fill:#656263;fill-opacity:1;fill-rule:nonzero;stroke:none;stroke-width:.226639" transform="matrix(1.55656 0 0 -1.55656 136.283 221.866)"/></g><g style="stroke-width:.226639"><path d="m0 0 .487.649c.505-.408 1.018-.69 1.718-.69.765 0 1.144.407 1.144.904 0 .601-.687.864-1.332 1.104-.814.298-1.736.7-1.736 1.682 0 .931.747 1.653 2.008 1.653.726 0 1.36-.297 1.811-.655l-.471-.631c-.402.296-.812.518-1.33.518-.732 0-1.071-.39-1.071-.834 0-.554.635-.765 1.294-1.012.839-.316 1.774-.657 1.774-1.765 0-.945-.75-1.732-2.123-1.732C1.345-.809.547-.457 0 0" style="fill:#656263;fill-opacity:1;fill-rule:nonzero;stroke:none;stroke-width:.226639" transform="matrix(1.55656 0 0 -1.55656 145.464 229.894)"/></g><g style="stroke-width:.226639"><path d="M0 0v3.218h-.866v.746l.91.057.118 1.634h.823V4.021h1.578v-.803H.985V-.018c0-.711.229-1.124.901-1.124.206 0 .473.078.663.156l.19-.742c-.327-.112-.718-.217-1.079-.217C.42-1.945 0-1.159 0 0" style="fill:#656263;fill-opacity:1;fill-rule:nonzero;stroke:none;stroke-width:.226639" transform="matrix(1.55656 0 0 -1.55656 154.175 228.126)"/></g><path d="M206.338 278.611h.985v-5.822h-.985zm-.18 1.833c0 .387.297.636.679.636.384 0 .681-.249.681-.636 0-.372-.297-.636-.681-.636-.382 0-.679.264-.679.636" style="fill:#656263;fill-opacity:1;fill-rule:nonzero;stroke:none;stroke-width:.226639" transform="matrix(1.55656 0 0 -1.55656 -160.968 655.541)"/><g style="stroke-width:.226639"><path d="M0 0v3.218h-.865v.746l.909.057.118 1.634h.823V4.021h1.578v-.803H.985V-.018c0-.711.229-1.124.901-1.124.206 0 .474.078.664.156l.189-.742c-.326-.112-.716-.217-1.079-.217C.421-1.945 0-1.159 0 0" style="fill:#656263;fill-opacity:1;fill-rule:nonzero;stroke:none;stroke-width:.226639" transform="matrix(1.55656 0 0 -1.55656 165.064 228.126)"/></g><g style="stroke-width:.226639"><path d="M0 0v3.689h.986V.126c0-1.084.327-1.547 1.097-1.547.597 0 1.008.294 1.559.98v4.13h.987v-5.822h-.814l-.084.911h-.034c-.538-.636-1.12-1.055-1.918-1.055C.553-2.277 0-1.486 0 0" style="fill:#656263;fill-opacity:1;fill-rule:nonzero;stroke:none;stroke-width:.226639" transform="matrix(1.55656 0 0 -1.55656 170.976 227.608)"/></g><g style="stroke-width:.226639"><path d="M0 0v3.218h-.865v.746l.909.057.118 1.634h.824V4.021h1.578v-.803H.986V-.018c0-.711.228-1.124.9-1.124.206 0 .474.078.664.156l.189-.742c-.326-.112-.716-.217-1.079-.217C.421-1.945 0-1.159 0 0" style="fill:#656263;fill-opacity:1;fill-rule:nonzero;stroke:none;stroke-width:.226639" transform="matrix(1.55656 0 0 -1.55656 181.502 228.126)"/></g><g style="stroke-width:.226639"><path d="M0 0c0 1.167-.525 1.801-1.435 1.801-.817 0-1.549-.656-1.669-1.801Zm-4.069-.477c0 1.896 1.276 3.064 2.617 3.064C.034 2.587.872 1.519.872-.147c0-.207-.018-.416-.046-.559h-3.922c.072-1.233.826-2.033 1.935-2.033.558 0 1.018.182 1.448.465L.64-2.92c-.509-.335-1.129-.604-1.922-.604-1.552 0-2.787 1.135-2.787 3.047" style="fill:#656263;fill-opacity:1;fill-rule:nonzero;stroke:none;stroke-width:.226639" transform="matrix(1.55656 0 0 -1.55656 192.935 225.667)"/></g><g style="stroke-width:.226639"><path d="M0 0c0 1.334-.679 2.242-1.68 2.242-1.002 0-1.68-.908-1.68-2.242s.678-2.228 1.68-2.228S0-1.334 0 0m-4.378 0c0 1.943 1.27 3.062 2.698 3.062S1.019 1.943 1.019 0c0-1.928-1.272-3.047-2.699-3.047-1.428 0-2.698 1.119-2.698 3.047" style="fill:#656263;fill-opacity:1;fill-rule:nonzero;stroke:none;stroke-width:.226639" transform="matrix(1.55656 0 0 -1.55656 206.38 226.408)"/></g><g style="stroke-width:.226639"><path d="M0 0c0 1.184.538 1.935 1.706 1.935.354 0 .702-.089.967-.2L2.464.982a1.6 1.6 0 0 1-.66.151c-.548 0-.819-.385-.819-1.137v-6.738H0Zm-.789-.977.833.058h2.175v-.803H-.789z" style="fill:#656263;fill-opacity:1;fill-rule:nonzero;stroke:none;stroke-width:.226639" transform="matrix(1.55656 0 0 -1.55656 210.562 220.434)"/></g><g style="stroke-width:.226639"><path d="M0 0h1.002v-3.276h3.685V0h.992v-7.82h-.992v3.691H1.002V-7.82H0Z" style="fill:#656263;fill-opacity:1;fill-rule:nonzero;stroke:none;stroke-width:.226639" transform="matrix(1.55656 0 0 -1.55656 .04 218.739)"/></g><g style="stroke-width:.226639"><path d="M0 0c0 1.334-.69 2.241-1.703 2.241-1.012 0-1.691-.907-1.691-2.241s.679-2.219 1.691-2.219S0-1.334 0 0m-4.418 0c0 1.931 1.283 3.051 2.715 3.051 1.434 0 2.716-1.12 2.716-3.051 0-1.921-1.282-3.03-2.716-3.03-1.432 0-2.715 1.109-2.715 3.03" style="fill:#656263;fill-opacity:1;fill-rule:nonzero;stroke:none;stroke-width:.226639" transform="matrix(1.55656 0 0 -1.55656 18.229 226.412)"/></g><g style="stroke-width:.226639"><path d="M0 0h.808l.086-.832h.033c.56.544 1.164.981 1.961.981 1.228 0 1.789-.789 1.789-2.272v-3.67h-.981v3.542c0 1.088-.334 1.547-1.11 1.547-.603 0-1.013-.299-1.605-.886v-4.203H0Z" style="fill:#656263;fill-opacity:1;fill-rule:nonzero;stroke:none;stroke-width:.226639" transform="matrix(1.55656 0 0 -1.55656 22.126 221.894)"/></g><g style="stroke-width:.226639"><path d="M0 0v1.621C-1.972 1.387-2.64.907-2.64.16c0-.661.453-.928 1.035-.928.571 0 1.034.267 1.605.768m-3.599.096c0 1.259 1.11 1.888 3.599 2.166 0 .747-.248 1.461-1.207 1.461-.679 0-1.293-.309-1.756-.618l-.388.672c.538.341 1.369.757 2.306.757C.377 4.534.98 3.585.98 2.155v-3.563H.173l-.086.693H.054c-.56-.459-1.218-.832-1.94-.832-.98 0-1.713.597-1.713 1.643" style="fill:#656263;fill-opacity:1;fill-rule:nonzero;stroke:none;stroke-width:.226639" transform="matrix(1.55656 0 0 -1.55656 37.327 228.72)"/></g><g style="stroke-width:.226639"><path d="M0 0h.808l.086-.843h.033c.506.555 1.121.992 1.821.992.894 0 1.379-.426 1.616-1.109C4.968-.309 5.582.149 6.293.149 7.5.149 8.071-.64 8.071-2.123v-3.67H7.09v3.542c0 1.088-.344 1.547-1.088 1.547-.452 0-.926-.288-1.476-.886v-4.203h-.981v3.542c0 1.088-.344 1.547-1.088 1.547-.442 0-.938-.288-1.476-.886v-4.203H0Z" style="fill:#656263;fill-opacity:1;fill-rule:nonzero;stroke:none;stroke-width:.226639" transform="matrix(1.55656 0 0 -1.55656 41.676 221.894)"/></g></g></svg>