<svg xmlns="http://www.w3.org/2000/svg" xml:space="preserve" width="1238.4861" height="400" viewBox="0 0 1238.4861 400"><path d="M210.753 301.279H192.98v4.352h17.773zm-21.726 11.583v-14.773h25.683v14.773h-3.957v-4.061h-17.774v4.061M187.083 292.44h12.772v-8.429h4.027v8.43h12.766v3.214h-29.565M280.584 312.889h-3.994v-20.454h-5.43v20.454H254.51v-3.238h12.699v-17.216h-5.012v10.328h-3.95v-10.328h-5.052v-3.196h23.396v-5.228h3.994v16.561h3.68v3.48h-3.68M327.016 294.12h-4.028V284.01h25.13v3.241h-21.102M347.686 307.795v5.094h-3.988v-12.597h-5.285v12.597h-16.206v-3.37h12.255v-9.227h-5.012v5.106h-3.951v-5.106h-4.608v-3.195h22.807v-6.259h3.988v13.481h4.282v3.476M289.103 291.916h20.75v-7.905h3.984v11.146h-24.734M313.827 312.91h-3.99v-15.895h3.99v7.618h4.28v3.572h-4.28M296.237 308.345a4.142 4.142 0 1 0-.001-8.28 4.142 4.142 0 0 0 0 8.28m0-11.61c4.382 0 7.937 3.344 7.937 7.47a7.109 7.109 0 0 1-1.235 3.99h2.004v3.578h-6.586v2.736h-4.02v-2.736h-7.1v-3.579h2.299a7.1 7.1 0 0 1-1.234-3.99c0-4.125 3.552-7.469 7.936-7.469M246.943 312.889h-3.988v-22.05h3.988v13.48h4.288v3.475h-4.288M225.694 295.655h-4.031V284.01h25.716v3.242h-21.685M229.676 307.43l6.522-9.525h4.693l-11.256 16.376-11.18-16.376h4.753M149.012 312.889h-25.313v-3.238h21.323v-6.911h-23.264v-3.147h12.588v-5.147h-10.647v-3.263h21.323v-7.172h3.99v10.435h-10.707v5.147h12.652v3.147h-1.945M178.23 287.106h-17.214v2.732h17.214zm0 5.759h-17.214v2.79h-3.99v-11.644h25.197v11.644h-3.993M156.008 307.224v-8.764h22.223v-1.34h3.992v15.768h-3.992v-11.306H160v2.52h12.098v8.786h-16.089v-3.125h12.102v-2.539" style="fill:#aaabab;fill-opacity:1;fill-rule:nonzero;stroke:none" transform="matrix(4.01931 0 0 -4.01931 -178.569 1541.527)"/><path d="M150.945 323.921c6.066 0 10.985 4.917 10.985 10.984 0 6.07-4.92 10.988-10.985 10.988l-18.298.005a3.116 3.116 0 0 0 0 6.23h26.675v7.876h-26.84c-6.064 0-10.984-4.919-10.984-10.983 0-6.068 4.92-10.988 10.984-10.988l18.297-.005a3.115 3.115 0 1 0 0-6.231l-27.25-.005v-7.877M179.934 323.916c-7.991 0-14.468 6.475-14.468 14.466 0 7.989 6.477 14.468 14.468 14.468h19.239v-7.878H180.09a6.588 6.588 0 0 1-6.591-6.59 6.589 6.589 0 0 1 6.59-6.592h19.083v-7.874M205.101 323.915h8.118v28.934h-8.118z" style="fill:#1479bb;fill-opacity:1;fill-rule:nonzero;stroke:none" transform="matrix(4.01931 0 0 -4.01931 -178.569 1541.527)"/><path d="M244.525 342.262h-17.061v9.867h17.06a4.934 4.934 0 1 0 0-9.867m.16 17.744h-25.256v-36.09h8.036v10.469h17.22c7.073 0 12.807 5.736 12.807 12.81 0 7.075-5.734 12.81-12.807 12.81M281.566 331.799h-7.398a6.587 6.587 0 1 0 0 13.173h7.398a6.588 6.588 0 1 0 0-13.173m.16 21.05h-7.718c-7.986 0-14.46-6.474-14.46-14.462 0-7.988 6.474-14.464 14.46-14.464h7.718c7.985 0 14.462 6.476 14.462 14.464s-6.477 14.463-14.462 14.463M314.179 344.972a6.943 6.943 0 0 1-6.945-6.942v-14.114h-7.876v14.47c0 7.988 6.475 14.463 14.463 14.463h9.72l-.003-7.877M352.562 331.788l-10.1.003a6.94 6.94 0 0 0-6.943 6.943v6.237h16.494v7.877h-16.494v7.557h-7.876v-22.029c0-7.986 6.477-14.462 14.462-14.462h10.457M44.428 352.053v-18.618l29.656-14.966-29.656-15.012v-18.634l66.499 33.672" style="fill:#aaabab;fill-opacity:1;fill-rule:nonzero;stroke:none" transform="matrix(4.01931 0 0 -4.01931 -178.569 1541.527)"/><path d="m105.486 383.53-38.63-20.204v-18.892l38.63 20.198" style="fill:#1479bb;fill-opacity:1;fill-rule:nonzero;stroke:none" transform="matrix(4.01931 0 0 -4.01931 -178.569 1541.527)"/></svg>