<svg xmlns="http://www.w3.org/2000/svg" width="1036.8333mm" height="200mm" viewBox="0 0 1036.8333 200"><defs><clipPath id="a" clipPathUnits="userSpaceOnUse"><path d="M0 841.89h595.276V0H0Z"/></clipPath><clipPath id="c" clipPathUnits="userSpaceOnUse"><path d="M0 841.89h595.276V0H0Z"/></clipPath><clipPath id="d" clipPathUnits="userSpaceOnUse"><path d="M209.074 407.021c0-.602 2.616-1.091 5.841-1.091 3.224 0 5.84.489 5.84 1.091 0 .603-2.616 1.091-5.84 1.091-3.225 0-5.841-.488-5.841-1.091"/></clipPath><clipPath id="f" clipPathUnits="userSpaceOnUse"><path d="M0 841.89h595.276V0H0Z"/></clipPath><radialGradient id="b" cx="0" cy="0" r="1" fx="0" fy="0" gradientTransform="matrix(49.1572 0 0 49.1572 -248.191 194.47)" gradientUnits="userSpaceOnUse" spreadMethod="pad"><stop offset="0" style="stop-opacity:1;stop-color:#fff"/><stop offset="0.00561523" style="stop-opacity:1;stop-color:#fff"/><stop offset="0.505615" style="stop-opacity:1;stop-color:#00adef"/><stop offset="1" style="stop-opacity:1;stop-color:#2e3192"/></radialGradient><radialGradient id="e" cx="0" cy="0" r="1" fx="0" fy="0" gradientTransform="matrix(13.00961 0 0 -2.42897 214.898 408.167)" gradientUnits="userSpaceOnUse" spreadMethod="pad"><stop offset="0" style="stop-opacity:1;stop-color:#254aa5"/><stop offset="0.699997" style="stop-opacity:1;stop-color:#fff"/><stop offset="1" style="stop-opacity:1;stop-color:#fff"/></radialGradient></defs><g clip-path="url(#a)" transform="matrix(4.2063 0 0 -4.2063 -730.074 1832.963)"><path d="M0 0c-.619-.73-1.383-1.101-2.27-1.101-.888 0-1.648.371-2.259 1.1-.617.736-.932 1.679-.932 2.803 0 1.124.315 2.064.932 2.798.613.73 1.375 1.101 2.259 1.101.885 0 1.649-.372 2.27-1.103.627-.732.945-1.672.945-2.796C.945 1.675.627.731 0 0m2.959 7.398C1.52 8.659-.24 9.299-2.27 9.299c-2.033 0-3.794-.64-5.234-1.901-1.447-1.267-2.182-2.813-2.182-4.596 0-1.785.735-3.333 2.182-4.604 1.44-1.258 3.199-1.894 5.234-1.894 2.032 0 3.791.636 5.229 1.894 1.449 1.27 2.184 2.819 2.184 4.604 0 1.783-.735 3.329-2.184 4.596" style="fill:#231f20;fill-opacity:1;fill-rule:nonzero;stroke:none" transform="translate(282.563 407.517)"/><path d="M0 0h-5.57v-1.397h.625c.334 0 .576-.121.738-.371.168-.26.252-.529.252-.802v-10.846c.014-1.266.9-2.294 1.984-2.294 1.088 0 1.973 1.033 1.973 2.304 0 0 0 4.651-.002 5.117h3.498v2.377H0Z" style="fill:#231f20;fill-opacity:1;fill-rule:nonzero;stroke:none" transform="translate(287.502 431.89)"/><path d="M0 0v-1.397h.623c.332 0 .574-.122.738-.374.168-.257.252-.526.252-.799v-23.224c.01-1.269.895-2.303 1.985-2.303 1.091 0 1.978 1.036 1.978 2.308V0h-.219Z" style="fill:#231f20;fill-opacity:1;fill-rule:nonzero;stroke:none" transform="translate(308.738 431.89)"/><path d="M0 0v-2.366h8.283c-.002-2.011-.258-4.044-.666-5.31l-.116-.356c-.392-1.224-.732-2.28-1.41-3.165-1.025-1.349-1.919-2.325-3.214-3.03a16.712 16.712 0 0 0-4.145-1.588l-.386-.09 1.761-2.188.114.024c1.445.26 2.953.795 4.478 1.586 1.562.813 2.976 1.957 4.197 3.399 1.047 1.253 1.902 2.768 2.547 4.505.648 1.741.976 3.777.976 6.052V0h-.218z" style="fill:#231f20;fill-opacity:1;fill-rule:nonzero;stroke:none" transform="translate(293.762 430.112)"/><path d="m0 0 1.813-2.731.074-.113.125.01c4.472.487 7.574 2.888 8.871 4.795l.144.209c.053-.068.116-.144.194-.233.404-.626 3.746-4.292 8.861-4.772l.117-.01 2.17 3.263-.441.027c-.703 0-1.518.066-2.42.195-.918.125-1.832.348-2.719.662-1.062.394-1.715.969-2.455 1.681-.75.718-1.129 1.684-1.129 2.871v2.884H7.695V7.343h.356c.25 0 .443-.101.597-.307.157-.211.233-.465.233-.779v-.114c0-1.265-.365-2.42-.981-3.09-.673-.727-1.228-1.274-2.226-1.665A11.84 11.84 0 0 0 2.877.651 20.927 20.927 0 0 0 .172.445L-.117.444l.07-.255z" style="fill:#231f20;fill-opacity:1;fill-rule:nonzero;stroke:none" transform="translate(318.21 423.581)"/><path d="M359.242 423.336h-5.902v5.403h5.902zm7 0h-3.049v5.403h3.049v2.364H346.432v-2.364h2.97v-5.403h-2.97v-2.385h19.81z" style="fill:#231f20;fill-opacity:1;fill-rule:nonzero;stroke:none"/><path d="M0 0c1.016-1.921 3.969-4.733 6.193-4.948l.102-.011 1.973 2.312-.44.072c-1.461.216-5.629 2.194-5.629 8.237l.002.31v.202h4.346v2.263H-6.551V6.174h4.346v-.195l.002-.317c0-6.043-4.168-8.021-5.629-8.237l-.443-.068 1.978-2.316.1.011C-3.975-4.733-1.016-1.921 0 0" style="fill:#231f20;fill-opacity:1;fill-rule:nonzero;stroke:none" transform="translate(379.185 422.565)"/><path d="M0 0c.166-.259.252-.527.252-.801v-10.095c-.002-.025-.008-.063-.008-.063 0-1.264.897-2.293 2.002-2.293 1.078 0 1.961 1.024 1.967 2.285L4.217 1.77h-5.582V.372h.625C-.408.372-.162.251 0 0" style="fill:#231f20;fill-opacity:1;fill-rule:nonzero;stroke:none" transform="translate(389.432 430.121)"/><path d="M0 0c.451.669 1.014 1.008 1.67 1.008.652 0 1.219-.334 1.685-.993.465-.667.7-1.496.7-2.464 0-.971-.235-1.812-.7-2.499-.466-.68-1.033-1.026-1.685-1.026-.652 0-1.217.338-1.672 1.006-.457.678-.687 1.515-.687 2.487 0 .97.23 1.804.689 2.481m-2.83-6.682c1.221-1.127 2.734-1.699 4.5-1.699 1.758 0 3.277.572 4.51 1.697 1.238 1.136 1.863 2.549 1.863 4.203 0 1.655-.625 3.064-1.863 4.191-1.233 1.129-2.75 1.701-4.51 1.701-1.764 0-3.277-.571-4.5-1.698C-4.057.577-4.682-.833-4.682-2.481c0-1.652.625-3.066 1.852-4.201" style="fill:#231f20;fill-opacity:1;fill-rule:nonzero;stroke:none" transform="translate(403.889 428.73)"/><path d="M0 0c.168-.255.254-.523.254-.798v-13.015H-4.58v-2.384H.254v-1.853c0-1.278.896-2.311 2.002-2.311 1.088 0 1.973 1.033 1.973 2.301v.016s0 .016-.002.031V1.716h-5.59V.377h.627C-.406.377-.166.254 0 0" style="fill:#231f20;fill-opacity:1;fill-rule:nonzero;stroke:none" transform="translate(415.147 430.19)"/><path d="M0 0c0-1.338.871-2.387 1.984-2.387C3.1-2.387 3.969-1.338 3.969 0l-.01.106v2h6.428v2.369H-6.475V2.106H0Z" style="fill:#231f20;fill-opacity:1;fill-rule:nonzero;stroke:none" transform="translate(403.871 415.253)"/><path d="M0 0c.145.598.217 1.543.217 2.809v4.798l-.059.317-.265.084H-18.664V5.625h14.426c.185 0 .314-.033.373-.096.052-.058.08-.183.08-.37V3.708c0-1.098-.045-2.619-.147-3.356-.045-.323-.226-1.412-.623-2.11h-16.638v-2.383h9.994v-4.727h-7.008v-2.38h14.019c.125 0 .227-.12.227-.266l.006-5.339c0-1.282.887-2.317 1.976-2.317C-.887-19.17 0-18.135 0-16.863v.198c0 1.213-.01 7.536-.01 7.536l-.002.256-7.24.005v4.727h9.945v2.383H-.623c.225.392.43.962.623 1.758" style="fill:#231f20;fill-opacity:1;fill-rule:nonzero;stroke:none" transform="translate(260.616 422.99)"/><path d="M0 0v-3.681c-.002-.13-.088-.236-.207-.248l-4.729.001c-.099.011-.189.121-.189.254L-5.129 0zm3.391-5.664c.392.425.589 1.053.589 1.867V6.465h-5.191V4.954h.381a.82.82 0 0 0 .603-.231c.153-.15.227-.361.227-.647V2.377h-5.129v3.792h-5.174V4.625h.383a.833.833 0 0 0 .604-.229c.15-.147.222-.36.222-.647v-7.546c0-.811.199-1.439.596-1.865.394-.421.939-.632 1.621-.632h8.648c.682 0 1.225.211 1.62.63" style="fill:#231f20;fill-opacity:1;fill-rule:nonzero;stroke:none" transform="translate(276.13 424.537)"/><path d="M0 0c-.127 0-.229.119-.229.267v5.228h-5.587V4.104h.625c.332 0 .584-.109.746-.324.166-.222.246-.481.246-.793V.11c0-.853.189-1.49.564-1.896.377-.402.949-.604 1.699-.604h14.702V0Z" style="fill:#231f20;fill-opacity:1;fill-rule:nonzero;stroke:none" transform="translate(406.877 406.808)"/><path d="M0 0c-.123 0-.221.113-.227.258l.002 2.064H11.58c.361.007.658.349.666.771v5.375c-.008.424-.305.767-.666.767l-16.625.002h-.219V6.87H8.279V4.694H-5.533V3.37h.357c.334 0 .574-.105.74-.323.166-.215.248-.481.248-.789V.192c0-.93.172-1.597.512-1.982.334-.381.916-.572 1.727-.572h14.463v2.353H0Z" style="fill:#231f20;fill-opacity:1;fill-rule:nonzero;stroke:none" transform="translate(381.402 406.806)"/><path d="m0 0 9.795.003V0c.121 0 .217-.112.225-.256v-4.578c-.008-.125-.102-.236-.217-.24H-.01c-.117.004-.217.122-.217.264L-.236-.271C-.227-.119-.125 0 0 0m-7.922 7.173V4.807H2.533V2.376h-8.328V.694h.625c.326 0 .58-.108.744-.323a1.28 1.28 0 0 0 .246-.792v-4.384c0-.824.217-1.459.66-1.94.434-.469 1.004-.707 1.69-.707h13.443c.686 0 1.254.238 1.69.707.437.474.658 1.127.658 1.94v6.804l-.041.287-.15.057-.141.033H6.496v2.431h10.43v2.366h-.219z" style="fill:#231f20;fill-opacity:1;fill-rule:nonzero;stroke:none" transform="translate(351.824 411.876)"/><path d="M0 0v-2.379h9.947v-1.925H2.693v-2.392H16.93v-1.835H2.426v-1.398h.355c.33 0 .58-.108.74-.321a1.28 1.28 0 0 0 .249-.793v-1.57c0-.932.171-1.598.513-1.983.334-.381.916-.575 1.729-.575h15.133v2.377H7.953c-.125.001-.224.121-.226.267v1.631H20.25c.365.048.623.376.623.768l.002 5.824h-6.957v1.925h9.945V0h-.218z" style="fill:#231f20;fill-opacity:1;fill-rule:nonzero;stroke:none" transform="translate(317.256 419.595)"/><path d="M0 0h25.824v2.818H-.049v.005A2.777 2.777 0 0 1-2.826.048h.004v-5.029h-.004A2.777 2.777 0 0 1-.049-7.758v.009-.014h6.658v-19.324l-.004-.007a2.778 2.778 0 0 1 2.776-2.775l.002.012h7.805v2.815h-7.76v22.097H-.004v4.938z" style="fill:#ed1c24;fill-opacity:1;fill-rule:nonzero;stroke:none" transform="translate(176.393 432.023)"/><path d="M0 0c-7.984 0-14.455 6.471-14.455 14.454 0 7.982 6.471 14.453 14.455 14.453 7.982 0 14.455-6.471 14.455-14.453 0-3.915-1.562-7.461-4.092-10.063L9.219 5.817 7.01 4.044 8.203 2.56A14.358 14.358 0 0 0 0 0m17.266 14.454c0 9.534-7.731 17.265-17.266 17.265-9.535 0-17.266-7.731-17.266-17.265C-17.266 4.919-9.535-2.812 0-2.812c3.715 0 7.152 1.177 9.971 3.174l2.217-2.758 2.205 1.773-2.252 2.803a17.218 17.218 0 0 1 5.125 12.274" style="fill:#2e3192;fill-opacity:1;fill-rule:nonzero;stroke:none" transform="translate(214.858 404.048)"/></g><path d="M-274.133 210.973c0 20.064 16.274 36.343 36.334 36.343 20.08 0 36.347-16.279 36.347-36.343 0-20.08-16.266-36.342-36.347-36.342-20.06 0-36.334 16.261-36.334 36.342" style="fill:url(#b);stroke:none;stroke-width:4.20629" transform="translate(411.628 -138.268)"/><g clip-path="url(#c)" transform="matrix(4.2063 0 0 -4.2063 -730.074 1832.963)"><path d="M0 0s-.014-.081-.004-.069c-.053-3.294-3.621-4.165-5.502-4.165-1.221 0-2.695.108-2.709.109l-.23.017v8.239l.228.015c.016.005 1.487.11 2.711.11C-2.846 4.256 0 3.144 0 .021V.003Zm-4.525 4.988h-6.258c.248-.338.396-.893.396-1.557v-6.488c0-.642-.066-1.389-.314-1.82h5.674c4.123 0 7.119 2.16 7.119 5.133 0 3.744-4.328 4.732-6.617 4.732" style="fill:#231f20;fill-opacity:1;fill-rule:nonzero;stroke:none" transform="translate(193.399 393.533)"/><path d="M0 0v1.082h-9.965V0c1.756.167 4.174.194 4.174.194v-5.326c0-2.731-.111-3.066-.141-3.671h2.202c-.038.759-.141 1.003-.141 3.671v5.32S-1.936.217 0 0" style="fill:#231f20;fill-opacity:1;fill-rule:nonzero;stroke:none" transform="translate(205.106 397.459)"/><path d="M0 0c0-1.061-1.098-1.595-2.018-1.595-1.433 0-2.076.616-2.076 1.528 0 .508.479 1.401 1.793 1.782 1.252.363 1.953.514 1.957.514l.237.056.107.021Zm.135-1.549c.025-.035.422-.963 1.515-.963.821 0 1.252.32 1.385.44v.138a1.438 1.438 0 0 0-.73.17c-.282.166-.426.433-.426.792V3.25c0 1.349-1.441 2.49-3.147 2.49-1.701 0-2.712-.492-3.943-1.395.012-.012.469-.487.553-.553.297.329 1.412 1.244 2.615 1.244 1.537 0 2.033-.766 2.033-1.398 0-.453-.615-.896-1.566-1.128-.75-.182-3.617-.885-4.053-2.286-.211-.688-.072-1.533.539-2.09a2.796 2.796 0 0 1 1.861-.717c1.557 0 2.959 1.034 3.01 1.075l.209.169z" style="fill:#231f20;fill-opacity:1;fill-rule:nonzero;stroke:none" transform="translate(211.165 391.098)"/><path d="M0 0c2.924 0 4.965-1.877 4.965-4.558 0-2.685-2.041-4.563-4.965-4.563s-4.967 1.878-4.967 4.563C-4.967-1.877-2.924 0 0 0m-.053-9.771.057.003.791.028c2.547.046 5.572-.238 6.23-.304.041.06.922 1.305 1.073 1.515a57.487 57.487 0 0 0-2.953-.131l-.598-.015.449.334c1.272.946 1.973 2.289 1.973 3.783C6.969-1.494 4.104.647 0 .647s-6.971-2.141-6.971-5.205c0-3.053 2.846-5.198 6.918-5.213" style="fill:#231f20;fill-opacity:1;fill-rule:nonzero;stroke:none" transform="translate(221.913 398.323)"/></g><g clip-path="url(#d)" transform="matrix(4.2063 0 0 -4.2063 -730.074 1832.963)"><path d="M209.074 407.021c0-.602 2.616-1.091 5.841-1.091 3.224 0 5.84.489 5.84 1.091 0 .603-2.616 1.091-5.84 1.091-3.225 0-5.841-.488-5.841-1.091" style="fill:url(#e);stroke:none"/></g><g clip-path="url(#f)" transform="matrix(4.2063 0 0 -4.2063 -730.074 1832.963)"><path d="M0 0c-.213-.295-.447-.499-.703-.604a2.233 2.233 0 0 0-.875-.159h-1.199v6.499H-1.578c.26 0 .533-.046.808-.14.282-.095.536-.3.754-.613.223-.309.381-.654.473-1.024.094-.367.145-.83.148-1.375 0-.542-.05-1.038-.144-1.476C.361.668.207.299 0 0m.697-.563c.248.342.451.79.598 1.32a6.91 6.91 0 0 1 .225 1.837c-.004.671-.075 1.242-.204 1.697a3.893 3.893 0 0 1-.634 1.268c-.293.39-.639.668-1.028.82a3.443 3.443 0 0 1-1.263.233h-2.487v-.876h.424V-.763h-.424v-.876h2.551c.524 0 .973.095 1.33.281.358.184.662.45.912.795" style="fill:#231f20;fill-opacity:1;fill-rule:nonzero;stroke:none" transform="translate(243.786 392.361)"/><path d="M0 0c.039.504.164.927.375 1.256.215.335.51.505.881.505.381 0 .687-.186.916-.546.223-.359.346-.769.361-1.218l.002-.042H-.004Zm3.412-1.861h-.689a1.333 1.333 0 0 0-.459-.67c-.239-.187-.557-.282-.946-.282-.402 0-.728.19-.968.571-.245.376-.37.843-.37 1.383v.044h3.485v.062c0 1.091-.217 1.921-.641 2.48-.426.554-.939.835-1.537.835-.646 0-1.185-.297-1.601-.883C-.734 1.093-.945.338-.945-.56c0-.929.211-1.685.627-2.244.42-.554.955-.835 1.588-.835.615 0 1.093.182 1.433.539.338.363.563.769.676 1.21 0 0 .006.026.033.029" style="fill:#231f20;fill-opacity:1;fill-rule:nonzero;stroke:none" transform="translate(246.63 394.111)"/><path d="M0 0H-.688v-.823H0v-3.933h-.402v-.824h1.757v.824H.893v3.933h.886V0H.893v.577c0 .525.076.874.242 1.076.162.201.392.303.689.303h.084l-.004.803-.136.02h-.116c-.48 0-.882-.197-1.185-.591C.156 1.796 0 1.251 0 .564Z" style="fill:#231f20;fill-opacity:1;fill-rule:nonzero;stroke:none" transform="translate(251.055 396.307)"/><path d="M0 0h-.686v-.823H0v-3.933h-.4v-.824h1.757v.824H.889v3.933h.89V0h-.89v.577c0 .525.082.874.246 1.076.166.201.394.303.689.303h.084l-.004.803-.138.02h-.11c-.486 0-.885-.197-1.189-.591C.16 1.796 0 1.251 0 .564Z" style="fill:#231f20;fill-opacity:1;fill-rule:nonzero;stroke:none" transform="translate(309.164 396.307)"/><path d="M0 0c.039.504.166.928.377 1.256.213.335.512.505.879.505.381 0 .691-.186.918-.546.224-.359.347-.769.363-1.218v-.042H-.004Zm3.412-1.861h-.689a1.323 1.323 0 0 0-.457-.67c-.239-.187-.555-.282-.946-.282-.402 0-.73.19-.972.571-.239.376-.362.842-.362 1.383v.044h3.481v.062c0 1.091-.217 1.921-.641 2.48-.426.554-.943.835-1.537.835-.646 0-1.189-.297-1.603-.883C-.734 1.093-.945.338-.945-.56c0-.929.213-1.686.627-2.244.418-.554.955-.835 1.589-.835.614 0 1.096.182 1.432.539.338.363.565.769.676 1.21 0 0 .006.026.033.029" style="fill:#231f20;fill-opacity:1;fill-rule:nonzero;stroke:none" transform="translate(253.977 394.111)"/><path d="M0 0c.154-.326.23-.772.23-1.326v-2.413h-.419v-.824h1.75v.824h-.422v2.468C1.139-.457.994.191.717.662c-.278.463-.738.676-1.369.642a1.266 1.266 0 0 1-.76-.295 1.28 1.28 0 0 1-.434-.627l-.068.014v.621h-1.303V.193h.418v-3.932h-.418v-.824h1.723v.824h-.42v2.413c0 .514.096.944.283 1.281.193.342.455.52.776.526C-.445.495-.156.336 0 0" style="fill:#231f20;fill-opacity:1;fill-rule:nonzero;stroke:none" transform="translate(261.038 395.29)"/><path d="M0 0c.006.046.006.094.006.14 0 .245-.037.459-.106.636a1.646 1.646 0 0 1-.349.559l-.395.312-.457.222s-.857.331-.857.334l-.444.269c-.146.114-.22.283-.22.503 0 .032.002.064.004.094.027.263.132.452.308.565.172.103.371.151.592.137.258-.007.5-.102.709-.282.213-.18.357-.446.424-.809v-.107h.607v1.646h-.617v-.333l-.068-.007c-.03.156-.158.303-.385.434a1.584 1.584 0 0 1-.762.217c-.398.012-.767-.127-1.099-.417-.327-.285-.502-.715-.52-1.271-.004-.321.041-.586.131-.788.092-.206.203-.368.332-.483l.363-.269.346-.164.887-.331c.199-.075.375-.19.531-.353.158-.164.228-.381.205-.642a.722.722 0 0 0-.307-.533c-.183-.133-.422-.199-.707-.191-.302.016-.582.152-.826.412-.25.261-.371.485-.371.677v.162h-.617v-1.7h.617v.395l.066.017c.065-.182.215-.344.456-.486.248-.142.478-.223.685-.237.529-.026.963.125 1.299.449.33.327.512.738.539 1.223" style="fill:#231f20;fill-opacity:1;fill-rule:nonzero;stroke:none" transform="translate(266.825 392.086)"/><path d="M0 0c.039.504.164.928.373 1.256.215.335.51.505.883.505.381 0 .689-.186.916-.546.224-.359.346-.769.363-1.218l.002-.042H-.002Zm3.41-1.861h-.689a1.307 1.307 0 0 0-.455-.67c-.241-.187-.559-.282-.948-.282-.4 0-.73.19-.97.571-.243.376-.364.843-.364 1.383v.044h3.481v.062c0 1.091-.215 1.921-.641 2.48-.426.554-.943.835-1.535.835-.65 0-1.189-.297-1.607-.883C-.732 1.093-.945.339-.945-.56c0-.929.211-1.686.627-2.244.418-.554.953-.835 1.589-.835.612 0 1.094.182 1.43.539.34.363.567.769.676 1.21 0 0 .008.026.033.029" style="fill:#231f20;fill-opacity:1;fill-rule:nonzero;stroke:none" transform="translate(268.182 394.111)"/><path d="m0 0 .031.107 1.008-3.191H-.93Zm-2.84-5.647v-.879h1.572v.879h-.435l.51 1.687h2.511l.537-1.687h-.437v-.879h1.797v.879h-.41L.453 1.823h-.58l-2.303-7.47h-.41" style="fill:#231f20;fill-opacity:1;fill-rule:nonzero;stroke:none" transform="translate(277.85 397.251)"/><path d="M0 0c.041.504.166.928.377 1.256.211.335.51.505.879.505.385 0 .691-.186.916-.546.226-.361.348-.771.365-1.218l.002-.042H0Zm3.41-1.861h-.687a1.319 1.319 0 0 0-.455-.67c-.239-.187-.557-.282-.946-.282-.402 0-.732.19-.974.571-.241.376-.362.843-.362 1.383v.044h3.481v.062c0 1.091-.217 1.921-.641 2.48-.424.554-.945.835-1.537.835-.65 0-1.187-.297-1.605-.883C-.736 1.093-.945.338-.945-.56c0-.929.209-1.686.629-2.244.418-.554.951-.835 1.589-.835.61 0 1.092.182 1.43.539.338.361.563.765.68 1.211 0 0 .002.025.027.028" style="fill:#231f20;fill-opacity:1;fill-rule:nonzero;stroke:none" transform="translate(287.123 394.111)"/><path d="M0 0c.15-.325.229-.772.229-1.326v-2.413h-.422v-.824h1.75v.824h-.42v2.468C1.137-.459.992.191.715.662c-.279.463-.738.676-1.367.642a1.256 1.256 0 0 1-.76-.295 1.272 1.272 0 0 1-.436-.627l-.07.014v.621h-1.303V.193h.424v-3.932h-.424v-.824h1.727v.824h-.424v2.413c0 .514.098.944.285 1.281.192.342.451.52.776.526C-.445.495-.158.336 0 0" style="fill:#231f20;fill-opacity:1;fill-rule:nonzero;stroke:none" transform="translate(294.186 395.29)"/><path d="M0 0a1.584 1.584 0 0 0-.387-.792c-.217-.235-.507-.352-.864-.352-.418 0-.768.199-1.045.594-.274.389-.412.949-.412 1.671 0 .705.126 1.265.375 1.663.251.402.585.605.984.605.377 0 .679-.115.892-.344.203-.215.33-.447.391-.693h.652c-.076.432-.279.852-.623 1.246a1.733 1.733 0 0 1-1.357.615c-.639 0-1.176-.295-1.596-.877-.418-.577-.633-1.324-.633-2.215 0-.896.219-1.643.645-2.221.426-.576.978-.869 1.629-.869.576 0 1.042.201 1.39.596C.377-.996.58-.529.654 0Z" style="fill:#231f20;fill-opacity:1;fill-rule:nonzero;stroke:none" transform="translate(299.725 392.45)"/><path d="M0 0c-.232-.443-.563-.667-.988-.667-.424 0-.756.224-.985.667-.23.438-.343.996-.343 1.661 0 .663.115 1.224.345 1.661.231.447.565.671.983.671.425 0 .756-.224.988-.671.227-.437.342-.998.342-1.661C.342.996.227.438 0 0m1.256 1.661c0 .858-.205 1.602-.606 2.216-.396.611-.947.918-1.638.918-.696 0-1.248-.307-1.645-.918-.398-.614-.599-1.358-.599-2.216 0-.846.205-1.587.603-2.205.397-.612.951-.925 1.641-.925.693 0 1.25.313 1.642.925.397.616.602 1.357.602 2.205" style="fill:#231f20;fill-opacity:1;fill-rule:nonzero;stroke:none" transform="translate(314.54 391.902)"/><path d="M0 0a1.21 1.21 0 0 0 .516-.177C.516-.079.531.852.531.852a.977.977 0 0 1-.552.166L-.482.965A1.211 1.211 0 0 1-1.1.488a2.286 2.286 0 0 1-.353-.774l-.067.01V.791h-1.304V-.03h.42v-3.933h-.42v-.824h1.785v.824h-.481v1.732c0 .588.104 1.073.311 1.44.213.366.412.596.613.693C-.418-.01-.215.023 0 0" style="fill:#231f20;fill-opacity:1;fill-rule:nonzero;stroke:none" transform="translate(319.057 395.508)"/><path d="M0 0c-.23-.383-.553-.577-.961-.577-.404 0-.723.194-.947.577-.221.38-.336.884-.342 1.494-.006.625.102 1.136.316 1.513.219.379.547.571.973.571.408 0 .732-.195.961-.583.229-.384.344-.889.344-1.501C.344.884.229.382 0 0m.365 4.177V3.48l-.064.107a1.74 1.74 0 0 1-.602.601 1.58 1.58 0 0 1-.806.215c-.555 0-1.041-.265-1.454-.783-.41-.519-.621-1.239-.621-2.134 0-.878.203-1.587.598-2.106.395-.518.889-.781 1.469-.781.293 0 .568.063.812.191.244.129.44.337.588.622l.065.129v-.644c0-.669-.112-1.172-.336-1.491-.225-.322-.553-.486-.975-.486-.439 0-.764.115-.965.335a1.23 1.23 0 0 0-.32.704l.002.01c-.014.214-.168.385-.35.385-.176 0-.306-.168-.301-.378h-.001v-.011c.039-.47.21-.901.529-1.278.332-.392.812-.59 1.435-.59.52 0 1.018.184 1.477.549.457.36.687 1.113.687 2.23v5.296l-.867.005" style="fill:#231f20;fill-opacity:1;fill-rule:nonzero;stroke:none" transform="translate(284.258 392.122)"/><path d="M0 0v-.824h.492L-.615-4.265-1.742-.824h.502V0h-2.03v-.824c.063-.004.571-.024.571-.024s1.648-4.716 1.648-4.731c0-.013 0-.018-.316-.987l-.186-.331a.412.412 0 0 0-.332-.156h-.398v-.007c-.178-.003-.321-.172-.321-.38 0-.212.143-.382.321-.386h.24l.379.016c.119.01.246.063.375.152.113.073.223.184.312.326l.227.485L1.209-.824h.553V0Z" style="fill:#231f20;fill-opacity:1;fill-rule:nonzero;stroke:none" transform="translate(303.853 396.302)"/><path d="M411.414 398.996h-.979v-1.304h.979z" style="fill:#231f20;fill-opacity:1;fill-rule:nonzero;stroke:none"/><path d="M0 0v-.874h2.066V0h-.584v6.5h1.524v-.9h.656v1.776h-5.256V5.6h.655v.9H.586V0Z" style="fill:#231f20;fill-opacity:1;fill-rule:nonzero;stroke:none" transform="translate(323.813 391.62)"/><path d="M0 0c.039.506.164.926.377 1.258.211.334.508.5.879.5.383 0 .689-.183.916-.546.224-.356.349-.766.363-1.213l.002-.047H-.004zm3.467-.817v.065c0 1.086-.217 1.922-.643 2.478-.426.555-.939.837-1.535.837-.648 0-1.191-.298-1.607-.883C-.734 1.091-.945.339-.945-.561c0-.931.211-1.687.627-2.243.416-.553.955-.835 1.588-.835.617 0 1.097.183 1.431.539.338.361.567.764.68 1.211 0 0 .006.024.033.026h-.693a1.287 1.287 0 0 0-.455-.667c-.241-.191-.557-.284-.946-.284-.4 0-.73.192-.97.573-.243.374-.368.841-.368 1.381v.043h3.485" style="fill:#231f20;fill-opacity:1;fill-rule:nonzero;stroke:none" transform="translate(328.168 394.134)"/><path d="M0 0a1.579 1.579 0 0 0-.389-.792c-.216-.231-.507-.353-.867-.353-.416 0-.769.201-1.043.594-.269.391-.412.952-.412 1.671 0 .707.125 1.266.373 1.663.25.402.582.606.988.606.375 0 .678-.118.891-.342.203-.218.328-.45.393-.694h.65c-.076.432-.279.852-.621 1.247a1.738 1.738 0 0 1-1.359.611c-.641 0-1.176-.291-1.596-.871-.418-.58-.633-1.326-.633-2.22 0-.896.217-1.642.648-2.219.424-.577.973-.868 1.627-.868.573 0 1.041.198 1.387.591C.373-.993.576-.527.652 0z" style="fill:#231f20;fill-opacity:1;fill-rule:nonzero;stroke:none" transform="translate(335.652 392.47)"/><path d="M0 0c.154-.327.232-.772.232-1.328v-2.415h-.421v-.82h1.75v.82h-.42v2.415C1.141-.526 1 .125.729.611c-.27.479-.733.712-1.381.692a1.28 1.28 0 0 1-.737-.268 1.204 1.204 0 0 1-.459-.602l-.066.015v3.239h-1.301v-.823h.428v-6.607h-.428v-.82h1.723v.82h-.422v2.203c0 .512.092.977.283 1.385.19.41.451.627.774.634C-.445.496-.156.331 0 0" style="fill:#231f20;fill-opacity:1;fill-rule:nonzero;stroke:none" transform="translate(339.863 395.31)"/><path d="M0 0c.156-.326.234-.772.234-1.325v-2.413h-.423v-.827h1.75v.827h-.422v2.467C1.139-.458.996.193.719.66c-.278.464-.739.681-1.367.648a1.285 1.285 0 0 1-.762-.299 1.268 1.268 0 0 1-.436-.627l-.07.014v.619h-1.305v-.82h.426v-3.933h-.426v-.827h1.733v.827h-.428v2.413c0 .513.096.944.283 1.278.197.343.455.521.778.527C-.445.497-.158.335 0 0" style="fill:#231f20;fill-opacity:1;fill-rule:nonzero;stroke:none" transform="translate(345.273 395.312)"/><path d="M0 0c-.229-.444-.559-.667-.984-.667-.428 0-.762.223-.991.667-.226.436-.338.995-.338 1.664 0 .658.114 1.216.344 1.657.233.446.563.672.985.672.425 0 .755-.226.984-.672.227-.441.34-.999.34-1.657C.34.995.227.436 0 0m1.256 1.664c0 .854-.203 1.599-.604 2.21-.398.615-.949.923-1.636.923-.698 0-1.25-.308-1.645-.923-.396-.611-.598-1.356-.598-2.21 0-.852.202-1.593.6-2.209.398-.614.951-.925 1.643-.925.693 0 1.248.311 1.64.925.397.616.6 1.359.6 2.209" style="fill:#231f20;fill-opacity:1;fill-rule:nonzero;stroke:none" transform="translate(350.35 391.925)"/><path d="M0 0v-.822h.566V-7.43H.143v-.82h1.736v.82h-.426V0Z" style="fill:#231f20;fill-opacity:1;fill-rule:nonzero;stroke:none" transform="translate(351.852 398.996)"/><path d="M0 0c-.23-.444-.561-.667-.988-.667-.43 0-.756.223-.987.667-.224.436-.341.995-.341 1.664 0 .658.119 1.216.343 1.657.233.446.565.672.985.672.427 0 .758-.226.988-.672.223-.441.34-.999.34-1.657C.34.995.223.436 0 0m1.252 1.664c0 .854-.199 1.599-.598 2.21-.402.615-.953.923-1.642.923-.696 0-1.246-.308-1.645-.923-.396-.611-.597-1.354-.597-2.21 0-.852.201-1.593.603-2.209.398-.614.947-.925 1.639-.925.695 0 1.248.311 1.644.925.397.616.596 1.359.596 2.209" style="fill:#231f20;fill-opacity:1;fill-rule:nonzero;stroke:none" transform="translate(357.28 391.925)"/><path d="M0 0c0-.256-.115-.537-.342-.828-.222-.291-.562-.467-1-.517a.936.936 0 0 0-.572.141c-.18.106-.291.295-.33.558A.947.947 0 0 0-1.598.405l.553.111.617.114.233.106.129.105L0 .892Zm1.318-2.029v.825h-.42v2.746c0 .88-.214 1.493-.636 1.831-.426.338-.869.511-1.332.511-.477 0-.909-.162-1.278-.485-.347-.309-.537-.751-.574-1.302h.856v.009c0 .281.082.528.248.737.175.223.425.334.748.334.371 0 .642-.122.814-.363.168-.24.256-.489.256-.739 0-.258-.076-.436-.219-.533l-.422-.192-.789-.119a2.461 2.461 0 0 1-.781-.188c-.307-.117-.56-.341-.756-.66-.195-.317-.265-.732-.215-1.23.047-.484.229-.848.536-1.083.31-.234.673-.341 1.074-.313.345.031.656.139.926.33.261.193.462.409.593.646l.067.117v-.879h1.304" style="fill:#231f20;fill-opacity:1;fill-rule:nonzero;stroke:none" transform="translate(375.408 392.775)"/><path d="M0 0c.156-.323.234-.771.234-1.325v-2.413h-.422v-.827h1.751v.827h-.422v2.467C1.141-.458.998.193.715.66c-.276.464-.733.681-1.363.648a1.287 1.287 0 0 1-.76-.299 1.294 1.294 0 0 1-.436-.627l-.07.014v.619h-1.303v-.82h.422v-3.933h-.422v-.827h1.729v.827h-.426v2.413c0 .513.096.943.285 1.278.193.343.453.521.774.527C-.439.497-.152.335 0 0" style="fill:#231f20;fill-opacity:1;fill-rule:nonzero;stroke:none" transform="translate(380.617 395.312)"/><path d="M0 0c-.24-.417-.57-.625-.982-.625-.416 0-.745.208-.977.625-.229.413-.344.952-.344 1.607 0 .659.115 1.199.344 1.611.232.413.561.622.977.622.412 0 .742-.209.982-.622.234-.407.354-.952.354-1.611C.354.952.234.409 0 0m1.232-.415v7.43H-.063v-.823h.422V3.747l-.062.099a1.857 1.857 0 0 1-.635.606 1.607 1.607 0 0 1-.814.211c-.612 0-1.116-.285-1.494-.85-.385-.568-.579-1.307-.579-2.206 0-.92.194-1.669.577-2.224.38-.554.882-.833 1.496-.833.293 0 .568.07.816.215.252.14.469.344.641.603l.064.094v-.697h1.287v.82h-.424" style="fill:#231f20;fill-opacity:1;fill-rule:nonzero;stroke:none" transform="translate(385.764 391.981)"/><path d="m0 0 .068-.014v-.554h1.303v.82h-.42V5.01H-.416v-.823h.484V1.976c0-.507-.093-.968-.281-1.373-.193-.415-.453-.636-.779-.649-.404-.007-.692.153-.852.485-.154.324-.234.766-.234 1.321v3.25h-1.469v-.823h.565V1.76c0-.801.136-1.454.41-1.94.265-.478.73-.711 1.377-.691.261.013.513.105.742.272.226.165.381.365.453.599" style="fill:#231f20;fill-opacity:1;fill-rule:nonzero;stroke:none" transform="translate(400.602 391.315)"/><path d="M0 0c0-.258-.115-.537-.344-.828-.226-.291-.56-.467-1.002-.517a.926.926 0 0 0-.57.141c-.18.106-.289.295-.33.558A.947.947 0 0 0-1.598.405l.551.111.619.114.229.106.133.105L0 .892Zm1.318-2.029v.825H.893v2.746c0 .88-.211 1.493-.631 1.831-.426.338-.877.511-1.33.511-.483 0-.912-.162-1.282-.485-.349-.309-.541-.751-.572-1.302h.852v.009c0 .282.084.529.25.737.177.223.427.334.752.334.365 0 .64-.122.812-.363.166-.24.256-.486.256-.739 0-.256-.076-.434-.223-.533l-.425-.192-.784-.119a2.526 2.526 0 0 1-.783-.188c-.305-.117-.556-.341-.752-.66-.197-.317-.271-.732-.221-1.23.047-.485.233-.848.542-1.083.31-.234.673-.341 1.07-.313.347.031.66.139.924.33.265.193.468.409.599.646l.069.117v-.879h1.302" style="fill:#231f20;fill-opacity:1;fill-rule:nonzero;stroke:none" transform="translate(405.672 392.775)"/><path d="M0 0v-.822h.561V-7.43H.143v-.82h1.732v.82h-.422V0Z" style="fill:#231f20;fill-opacity:1;fill-rule:nonzero;stroke:none" transform="translate(407.52 398.996)"/><path d="M0 0v-.823h.422v-3.935H0v-.82h1.744v.82h-.422V0Z" style="fill:#231f20;fill-opacity:1;fill-rule:nonzero;stroke:none" transform="translate(410.092 396.324)"/><path d="M0 0v.746L-.102.719-.238.705c-.248 0-.442.059-.567.178-.138.123-.203.391-.203.812v3.071H0v.824h-1.008v2.245h-.898V5.59h-.768v-.824h.768V1.473c0-.451.109-.821.322-1.1.213-.278.498-.437.852-.473l.369.017c.168.019.285.05.351.096z" style="fill:#231f20;fill-opacity:1;fill-rule:nonzero;stroke:none" transform="translate(414.611 390.742)"/><path d="m0 0-.059-.061S-.564 1.137-.615 1.27c-.09-.067-.625-.39-.707-.454.056-.128.506-1.192.506-1.192l.052-.096-.265-.092-.242-.018c-.653 0-1.178.358-1.553 1.078-.373.704-.563 1.551-.563 2.513 0 .974.19 1.83.563 2.527.375.716.9 1.077 1.553 1.077.748 0 1.296-.367 1.626-1.096.327-.71.489-1.558.489-2.508 0-.612-.065-1.19-.203-1.718C.5.757.314.323 0 0m.869-1.563a.405.405 0 0 0-.359.252l-.215.464.055.043c.42.333.72.827.978 1.47.262.646.395 1.435.395 2.343 0 1.334-.287 2.411-.852 3.2-.566.79-1.283 1.19-2.142 1.19-.856 0-1.575-.403-2.135-1.201-.563-.797-.85-1.869-.85-3.189 0-1.334.287-2.408.85-3.196.558-.784 1.279-1.182 2.135-1.182l.437.041.4.129s.141-.305.284-.6c.17-.34.535-.563.894-.563v-.002h.961v.794H.871l-.002.007" style="fill:#231f20;fill-opacity:1;fill-rule:nonzero;stroke:none" transform="translate(394.906 391.783)"/><path d="M0 0c-.234-.383-.557-.578-.965-.578-.402 0-.723.195-.945.581-.221.379-.338.878-.344 1.493-.006.624.104 1.135.318 1.51.217.383.545.574.971.574.408 0 .733-.197.965-.585.223-.386.338-.889.338-1.499C.338.881.223.382 0 0m.363 4.179V3.48l-.064.107a1.723 1.723 0 0 1-.604.602c-.24.139-.511.212-.804.212-.555 0-1.043-.262-1.454-.781-.414-.522-.619-1.241-.619-2.135 0-.878.202-1.585.596-2.103.395-.522.889-.784 1.469-.784.297 0 .568.062.812.195.244.127.44.333.586.619l.065.127v-.642c0-.67-.112-1.172-.334-1.491-.225-.322-.555-.488-.977-.488-.437 0-.764.118-.965.34a1.226 1.226 0 0 0-.318.703v.005c-.012.215-.168.388-.346.388-.177 0-.306-.167-.301-.376h-.001l.001-.009-.001-.003c0-.002.003-.006.003-.01.039-.466.207-.894.526-1.27.33-.39.812-.589 1.435-.589.516 0 1.012.184 1.473.549.455.36.689 1.111.689 2.23v5.296l-.867.007" style="fill:#231f20;fill-opacity:1;fill-rule:nonzero;stroke:none" transform="translate(362.162 392.127)"/><path d="M0 0v-.823h.488L-.615-4.266-1.742-.823h.5V0H-3.27v-.825c.059-.004.569-.025.569-.025l1.652-4.728c0-.014 0-.02-.32-.989l-.184-.33a.413.413 0 0 0-.334-.159h-.4v-.002c-.174-.004-.315-.173-.315-.382 0-.211.141-.382.315-.385v-.002H-2.047l.381.016a.783.783 0 0 1 .377.152c.111.072.219.183.312.323l.231.489L1.207-.823h.555V0Z" style="fill:#231f20;fill-opacity:1;fill-rule:nonzero;stroke:none" transform="translate(418.3 396.307)"/><path d="M0 0v-.823h.494L-.615-4.266-1.746-.823h.504V0H-3.27v-.825c.063-.004.571-.025.571-.025s1.648-4.711 1.65-4.728c0-.014 0-.02-.318-.989l-.186-.33a.418.418 0 0 0-.334-.159h-.398v-.002c-.174-.004-.315-.173-.315-.382 0-.211.141-.382.315-.385v-.002H-2.047l.379.016a.812.812 0 0 1 .381.152c.113.072.215.183.31.323l.229.489L1.207-.823h.557V0Z" style="fill:#231f20;fill-opacity:1;fill-rule:nonzero;stroke:none" transform="translate(367.504 396.307)"/></g></svg>