<svg xmlns="http://www.w3.org/2000/svg" xml:space="preserve" width="703.85278" height="300" viewBox="0 0 703.85278 299.99999"><defs><clipPath id="b" clipPathUnits="userSpaceOnUse"><path d="M0 841.89h595.275V0H0Z"/></clipPath><clipPath id="c" clipPathUnits="userSpaceOnUse"><path d="M332.634 503.478h.003v-.005h-.003z"/></clipPath><clipPath id="d" clipPathUnits="userSpaceOnUse"><path d="M332.615 503.478h.019v-.025h-.019z"/></clipPath><clipPath id="e" clipPathUnits="userSpaceOnUse"><path d="M332.634 503.502h.024v-.024h-.024z"/></clipPath><clipPath id="f" clipPathUnits="userSpaceOnUse"><path d="M330.73 508.636h.003v-.002h-.003z"/></clipPath><clipPath id="g" clipPathUnits="userSpaceOnUse"><path d="M326.913 508.636h.02v-.026h-.02z"/></clipPath><clipPath id="h" clipPathUnits="userSpaceOnUse"><path d="M328.815 508.656h.025v-.02h-.025z"/></clipPath><clipPath id="a" clipPathUnits="userSpaceOnUse"><path d="M131.648 470.028Z"/></clipPath><clipPath id="i" clipPathUnits="userSpaceOnUse"><path d="M131.641 470.028h.007v-.01h-.007z"/></clipPath><clipPath id="j" clipPathUnits="userSpaceOnUse"><path d="M131.648 470.057h.025v-.029h-.025z"/></clipPath></defs><path d="M0 0c-.369-.054-.71-.146-.917-.44-.293-.417-.149-.914-.236-1.423a3.28 3.28 0 0 1 .756.056c.492.104.841.267 1.013.615.094.188.135.432.151.689.015.211.035.429.063.658C.623.095.392.025 0 0" style="fill:#ec0772;fill-opacity:1;fill-rule:nonzero;stroke:none" transform="matrix(10.2687 0 0 -10.2687 692.598 786.784)"/><path d="M0 0c-.533-.052-.96-.057-1.378-.187.09-.193.155-.394.196-.591.097-.457.1-.891.088-1.158-.614 0-1.267-.059-1.839.177a2.271 2.271 0 0 1-.068-.512c-.018-.643.009-1.212-.064-1.822 1.058.152 2.005-.115 2.94.538C.577-3.062.892-2.254.918-1.352c0 .901.084 1.576.084 1.576A5.213 5.213 0 0 0 0 0" style="fill:#66c430;fill-opacity:1;fill-rule:nonzero;stroke:none" transform="matrix(10.2687 0 0 -10.2687 706.657 737.555)"/><path d="M0 0c.229.17.448.275.67.347a2.005 2.005 0 0 1-.595.764c-.453.334-.958.32-1.491.319 0 0-.221-.018-.549.038 0 0 .026-.175.014-.357 0-.494.025-.822.025-.822.063-.541.22-.99.701-1.329.11-.075.224-.136.34-.185C-.76-.73-.463-.342 0 0" style="fill:#50ade5;fill-opacity:1;fill-rule:nonzero;stroke:none" transform="matrix(10.2687 0 0 -10.2687 685.628 743.041)"/><path d="M0 0c.012.267.009.7-.088 1.157a2.679 2.679 0 0 1-.196.591 2.25 2.25 0 0 1-.67-.347c-.463-.341-.76-.73-.885-1.224C-1.267-.06-.614 0 0 0" style="fill:#059b4e;fill-opacity:1;fill-rule:nonzero;stroke:none" transform="matrix(10.2687 0 0 -10.2687 695.425 757.432)"/><path d="M0 0c.607.234.959.169 1.514.266.355.061.849.223 1.266.744.428.533.455 1.006.498 1.961-.002.363.042.689.032 1.019 0 0-.647-.265-1.188-.33-.48-.129-.787-.08-1.207-.363C.508 3.024.13 2.439.12 1.958.11 1.452.158 1.028.074.477.067.426.009-.012 0 0" style="fill:#b3db18;fill-opacity:1;fill-rule:nonzero;stroke:none" transform="matrix(10.2687 0 0 -10.2687 719.373 625.533)"/><path d="M0 0c-.52-.072-.995-.202-1.285-.615-.41-.588-.209-1.281-.331-1.994C.028-2.494.577-2.038.799-1.59c.131.266.187.61.211.969.02.297.111.574.153.84C.875.137.548.035 0 0" style="fill:#f25a30;fill-opacity:1;fill-rule:nonzero;stroke:none" transform="matrix(10.2687 0 0 -10.2687 707.43 627.779)"/><path d="M0 0c.01.383.091.714.238 1.011a3.337 3.337 0 0 1-1.192.367c-.994.12-1.621-.037-2.687.338.226-.441.215-1.487.216-1.555.111-1.582-.292-3.044 1.369-3.957.828-.455 2.346-.437 2.905-.562.076-.018.874-.256.874-.304 0 .62-.003 1.424 0 2.039 0 .205.002.42-.001.639-.575-.046-1.167-.007-1.795-.097C.01-1.384-.018-.733 0 0" style="fill:#fab20b;fill-opacity:1;fill-rule:nonzero;stroke:none" transform="matrix(10.2687 0 0 -10.2687 669.212 589.341)"/><path d="M0 0a2.36 2.36 0 0 1-.238-1.011c-.019-.733.009-1.383-.073-2.081.627.09 1.22.051 1.794.097-.011.759-.087 1.565-.547 2.185A2.83 2.83 0 0 1 0 0" style="fill:#609c33;fill-opacity:1;fill-rule:nonzero;stroke:none" transform="matrix(10.2687 0 0 -10.2687 671.66 578.963)"/><path d="M0 0c.057.289.02.782.02.821.001.183 0 .338.003.483-.002-.002-.005-.002-.008-.002A2.588 2.588 0 0 1-.886.867c-.388-.288-.67-.606-.852-.975.366-.2.684-.469.936-.81.46-.62.535-1.427.547-2.185.533.042 1.051.157 1.566.516.804.565 1.163 1.486 1.192 2.52a16.747 16.747 0 0 0 .024.89C2.152.636 1.556.517 1.153.39.736.257.447.193 0 0" style="fill:#66c430;fill-opacity:1;fill-rule:nonzero;stroke:none" transform="matrix(10.2687 0 0 -10.2687 689.51 577.85)"/><path d="M0 0c.034-.503.01-1.017.01-1.515-.385-.014-1.001.033-1.661.167l-.02.005a.078.078 0 0 1-.014.005 2.328 2.328 0 0 1-.043-.126l-.002-.005a4.06 4.06 0 0 1-.168-1.054c.431.109.882.119 1.429.173.306.03.777.133 1.149.257 0 0-.046-.358-.075-.911L.613-3a.692.692 0 0 1 .077.039c.582.339.795.994.862 1.875.086 1.138.134 1.502.134 1.502S.451.123 0 0" style="fill:#50ade5;fill-opacity:1;fill-rule:nonzero;stroke:none" transform="matrix(10.2687 0 0 -10.2687 709.245 538.55)"/><path d="M0 0c-.547-.054-.998-.063-1.43-.173-.004-.144-.003-.3-.004-.482 0-.039.037-.532-.019-.822.447.194.736.257 1.153.39.402.127.999.246 1.374.434.028.552.074.911.074.911A5.972 5.972 0 0 0 0 0" style="fill:#059b4e;fill-opacity:1;fill-rule:nonzero;stroke:none" transform="matrix(10.2687 0 0 -10.2687 704.43 562.687)"/><path d="m0 0 .062.018c.012.004.03.007.045.013C.105.055.105.079.104.104c0 0-.069.893-.679 1.66-.384.445-1.007.805-1.915 1.033-.401.107-1.505.41-1.505.41.048-.434.079-1.185.079-1.185 0-.784.023-1.405.474-2.102.416-.642 1.064-1.004 1.864-1.227C-1.327-.652-.668-.207 0 0" style="fill:#ec0772;fill-opacity:1;fill-rule:nonzero;stroke:none" transform="matrix(10.2687 0 0 -10.2687 708.151 538.87)"/><path d="M0 0c.66-.135 1.276-.182 1.661-.167 0 .498.024 1.012-.01 1.515-.014-.006-.032-.01-.045-.014l-.061-.018C.877 1.109.218.664-.033.01A.07.07 0 0 0-.02.005L0 0" style="fill:#50ade5;fill-opacity:1;fill-rule:nonzero;stroke:none" transform="matrix(10.2687 0 0 -10.2687 692.287 552.388)"/><path d="M0 0c.66-.135 1.276-.182 1.661-.167 0 .498.024 1.012-.01 1.515-.014-.006-.032-.01-.045-.014l-.061-.018C.877 1.109.218.664-.033.01A.07.07 0 0 0-.02.005L0 0" style="fill:#562a75;fill-opacity:1;fill-rule:nonzero;stroke:none" transform="matrix(10.2687 0 0 -10.2687 692.287 552.388)"/><path d="M0 0h-3.259c.577 0 1.045.469 1.045 1.045v1.804h-.567a1.045 1.045 0 0 1-1.043-1.045V-.87c0-.729.59-1.318 1.318-1.318v-.002H1.73v.144C1.73-.915.814 0 0 0" style="fill:#00452a;fill-opacity:1;fill-rule:nonzero;stroke:none" transform="matrix(10.2687 0 0 -10.2687 713.567 692.45)"/><path d="M0 0a.365.365 0 0 0 0 .73h2.395c.199 0 .359.159.359.355 0 .199-.16.36-.359.36l-2.397.001a.36.36 0 0 0-.358.36c0 .198.161.357.358.357h2.318a1.319 1.319 0 0 1 1.308 1.283v.155H-.139c-.727 0-1.318-.59-1.318-1.32h-.007V-.118h.007c0-.729.591-1.318 1.318-1.318v-.002h3.763v.119c0 .727-.59 1.317-1.318 1.317z" style="fill:#00452a;fill-opacity:1;fill-rule:nonzero;stroke:none" transform="matrix(10.2687 0 0 -10.2687 448.465 700.171)"/><path d="M0 0a.365.365 0 0 0 0 .73h2.395a.357.357 0 1 1 0 .715L0 1.446a.36.36 0 0 0-.359.36c0 .198.16.357.359.357h2.316a1.319 1.319 0 0 1 1.309 1.283v.155H-.137a1.32 1.32 0 0 1-1.32-1.32h-.006V-.118h.006c0-.729.592-1.318 1.32-1.318v-.002h3.762v.119c0 .727-.59 1.317-1.318 1.317z" style="fill:#00452a;fill-opacity:1;fill-rule:nonzero;stroke:none" transform="matrix(10.2687 0 0 -10.2687 748.344 700.171)"/><path d="M0 0h-3.596c-.727 0-1.317-.59-1.317-1.319v-2.4c0-.728.59-1.318 1.317-1.318v-.002H.713v.144c0 1.131-.916 2.046-1.731 2.046h-2.459a.335.335 0 0 0-.333.335v.749c0 .164.119.301.275.328h2.224A1.32 1.32 0 0 1 0-.154V0" style="fill:#00452a;fill-opacity:1;fill-rule:nonzero;stroke:none" transform="matrix(10.2687 0 0 -10.2687 539.48 663.198)"/><path d="M0 0a.508.508 0 0 0 .505-.508L.504-.606c0-.3-.208-.54-.492-.54l-2.977-.003c-.329.042-.524.286-.622.457a2.224 2.224 0 0 0-.072.168v-.023a.33.33 0 0 0-.009.023v-2.955c0-.871.778-1.866 1.72-2.041.468-.085.869-.042.869-.042v1.659c-.009 1.287-1.358 1.708-1.358 1.708H.352c.696 0 1.259.59 1.259 1.318v.995c0 .725-.558 1.315-1.251 1.319h-4.002v-.156A1.316 1.316 0 0 1-2.333 0H0" style="fill:#00452a;fill-opacity:1;fill-rule:nonzero;stroke:none" transform="matrix(10.2687 0 0 -10.2687 650.962 677.959)"/><path d="M0 0c-.793 0-1.436-.566-1.436-1.295 0-.531-.29-.674-.558-.674-.358 0-.502.365-.502.545v.112C-2.501-.587-3.141 0-3.93 0h-.13v-.831c0-.729.643-1.319 1.436-1.319-.793 0-1.436-.591-1.436-1.319v-1.57h.13c.789 0 1.429.609 1.434 1.335v.919c0 .23.199.451.524.451.279 0 .529-.176.529-.412v-1.996c0-.814.997-1.731 2.228-1.731h1.05s-.218.383-.232.894v1.37c0 1.13-.998 2.047-1.882 2.047h-.372s-.379-.024-.496.289c0 0-.011.038-.013.084.002.047.013.085.013.085.117.311.496.29.496.29h1.684c.789.004 1.428.57 1.428 1.295V0Z" style="fill:#00452a;fill-opacity:1;fill-rule:nonzero;stroke:none" transform="matrix(10.2687 0 0 -10.2687 833.461 663.198)"/><path d="M0 0a.527.527 0 0 0-.52-.542h-2.481a.527.527 0 0 0-.52.542v.329c0 .297.236.538.533.538h2.456A.533.533 0 0 0 0 .329Zm-.942 2.305h-1.635A2.047 2.047 0 0 1-4.624.259v-.946c0-1.13.917-2.047 2.047-2.047h1.635c1.129 0 2.045.917 2.045 2.047v.946c0 1.13-.916 2.046-2.045 2.046" style="fill:#00452a;fill-opacity:1;fill-rule:nonzero;stroke:none" transform="matrix(10.2687 0 0 -10.2687 595.326 686.864)"/><g clip-path="url(#a)" transform="matrix(1.33333 0 0 -1.33333 64.83 907.66)"><path d="M0 0Z" style="fill:#fab20b;fill-opacity:1;fill-rule:nonzero;stroke:none" transform="translate(131.648 470.028)"/></g><g clip-path="url(#b)" transform="matrix(1.99644 0 0 -1.99644 -262.813 1019.375)"><g clip-path="url(#c)"><path d="M0 0v-.005c.003.003.003.003.003.005Z" style="fill:#fab20b;fill-opacity:1;fill-rule:nonzero;stroke:none" transform="translate(332.634 503.478)"/></g><g clip-path="url(#d)"><path d="M0 0v.005C-.033-.037-.017-.017 0 0" style="fill:#fab20b;fill-opacity:1;fill-rule:nonzero;stroke:none" transform="translate(332.634 503.473)"/></g><g clip-path="url(#e)"><path d="M0 0h.003C.023.02.04.041 0 0" style="fill:#fab20b;fill-opacity:1;fill-rule:nonzero;stroke:none" transform="translate(332.634 503.478)"/></g></g><g clip-path="url(#f)" transform="matrix(1.99644 0 0 -1.99644 -262.813 1019.375)"><path d="M0 0c.003 0 .003-.002.003-.002V0Z" style="fill:#fab20b;fill-opacity:1;fill-rule:nonzero;stroke:none" transform="translate(330.73 508.636)"/></g><g clip-path="url(#g)" transform="matrix(1.99644 0 0 -1.99644 -262.813 1019.375)"><path d="M0 0s0 .004-.003.004C-.033-.035-.017-.024 0 0" style="fill:#fab20b;fill-opacity:1;fill-rule:nonzero;stroke:none" transform="translate(326.933 508.632)"/></g><g clip-path="url(#h)" transform="matrix(1.99644 0 0 -1.99644 -262.813 1019.375)"><path d="M0 0h.003C.024.015.039.038 0 0" style="fill:#fab20b;fill-opacity:1;fill-rule:nonzero;stroke:none" transform="translate(328.815 508.636)"/></g><path d="M0 0c-2.301-.33-4.436-.901-5.737-2.748-1.835-2.616-.934-5.697-1.468-8.882a20.02 20.02 0 0 1 4.721.353c3.069.642 5.271 1.656 6.322 3.829.583 1.183.833 2.702.967 4.325.066 1.301.2 2.663.385 4.099C3.886.596 2.438.166 0 0" style="fill:#ec0772;fill-opacity:1;fill-rule:nonzero;stroke:none" transform="matrix(1.99644 0 0 -1.99644 674.273 276.526)"/><path d="M0 0c-3.319-.327-5.988-.355-8.608-1.167a16.386 16.386 0 0 0 1.236-3.697c.6-2.855.615-5.571.531-7.23-3.818 0-7.907-.372-11.476 1.105a13.75 13.75 0 0 1-.416-3.215c-.134-3.999.051-7.562-.417-11.369 6.623.962 12.527-.735 18.365 3.364 4.405 3.071 6.355 8.125 6.54 13.755 0 5.626.519 9.854.519 9.854C4.238.725 1.668.162 0 0" style="fill:#66c430;fill-opacity:1;fill-rule:nonzero;stroke:none" transform="matrix(1.99644 0 0 -1.99644 691.327 216.704)"/><path d="M0 0a14.616 14.616 0 0 0 4.187 2.17C3.337 4.033 2.068 5.743.484 6.937-2.37 9.033-5.504 8.946-8.841 8.934c0 0-1.385-.113-3.435.233 0 0 .149-1.101.083-2.23 0-3.079.167-5.142.167-5.142.382-3.367 1.367-6.178 4.388-8.292a11.535 11.535 0 0 1 2.116-1.155C-4.737-4.57-2.886-2.139 0 0" style="fill:#50ade5;fill-opacity:1;fill-rule:nonzero;stroke:none" transform="matrix(1.99644 0 0 -1.99644 665.782 223.365)"/><path d="M0 0c.084 1.66.068 4.375-.532 7.231a16.325 16.325 0 0 1-1.235 3.696 14.62 14.62 0 0 1-4.188-2.17c-2.886-2.139-4.737-4.569-5.521-7.652C-7.907-.372-3.818 0 0 0" style="fill:#059b4e;fill-opacity:1;fill-rule:nonzero;stroke:none" transform="matrix(1.99644 0 0 -1.99644 677.67 240.849)"/><path d="M0 0c3.803 1.465 5.987 1.061 9.474 1.653 2.202.379 5.288 1.4 7.907 4.65 2.686 3.331 2.853 6.284 3.12 12.269-.017 2.252.25 4.308.183 6.36 0 0-4.054-1.668-7.423-2.052-3.003-.816-4.922-.509-7.541-2.277C3.168 18.905.817 15.236.751 12.229.7 9.072 1 6.431.449 2.988.416 2.658.066-.073 0 0" style="fill:#b3db18;fill-opacity:1;fill-rule:nonzero;stroke:none" transform="matrix(1.99644 0 0 -1.99644 106.388 145.299)"/><path d="M0 0c-3.252-.461-6.222-1.281-8.04-3.851-2.569-3.677-1.302-8.007-2.052-12.461 10.243.706 13.696 3.57 15.064 6.368.833 1.658 1.184 3.805 1.335 6.048.115 1.877.683 3.6.951 5.258C5.456.846 3.42.213 0 0" style="fill:#f25a30;fill-opacity:1;fill-rule:nonzero;stroke:none" transform="matrix(1.99644 0 0 -1.99644 91.898 148.018)"/><g clip-path="url(#i)" transform="matrix(1.99644 0 0 -1.99644 -262.813 1019.375)"><path d="M0 0c-.017-.018 0-.009 0 0" style="fill:#fab20b;fill-opacity:1;fill-rule:nonzero;stroke:none" transform="translate(131.648 470.028)"/></g><g clip-path="url(#j)" transform="matrix(1.99644 0 0 -1.99644 -262.813 1019.375)"><path d="M0 0c.034.032.034.046 0 0" style="fill:#fab20b;fill-opacity:1;fill-rule:nonzero;stroke:none" transform="translate(131.648 470.028)"/></g><path d="M0 0c.051 2.386.567 4.46 1.484 6.316-2.235 1.187-4.737 1.972-7.456 2.292-6.206.747-10.143-.241-16.798 2.112 1.417-2.745 1.368-9.301 1.368-9.724.683-9.895-1.835-19.019 8.557-24.728 5.171-2.833 14.646-2.724 18.15-3.509.467-.117 5.438-1.6 5.438-1.901v12.739c0 1.295.017 2.633 0 3.994-3.586-.288-7.273-.039-11.194-.614C.051-8.657-.118-4.591 0 0" style="fill:#fab20b;fill-opacity:1;fill-rule:nonzero;stroke:none" transform="matrix(1.99644 0 0 -1.99644 45.474 101.32)"/><path d="M0 0c-.917-1.856-1.434-3.929-1.484-6.316-.118-4.59.05-8.656-.451-13.022 3.92.574 7.607.325 11.194.613-.067 4.749-.551 9.795-3.404 13.654A17.815 17.815 0 0 1 0 0" style="fill:#609c33;fill-opacity:1;fill-rule:nonzero;stroke:none" transform="matrix(1.99644 0 0 -1.99644 48.437 88.712)"/><path d="M0 0c.351 1.806.118 4.875.118 5.114.016 1.151 0 2.122.033 3.027C.134 8.128.1 8.128.1 8.128c-1.902-.495-3.703-1.305-5.638-2.718C-7.974 3.6-9.725 1.619-10.86-.678A17.818 17.818 0 0 0-5.005-5.75c2.853-3.858 3.337-8.904 3.404-13.653 3.336.266 6.572.982 9.792 3.23 5.02 3.525 7.257 9.292 7.457 15.744 0 1.777.049 3.428.116 4.887 0 .23.017.46.017.677-2.335-1.168-6.073-1.915-8.574-2.712C4.605 1.599 2.803 1.202 0 0" style="fill:#66c430;fill-opacity:1;fill-rule:nonzero;stroke:none" transform="matrix(1.99644 0 0 -1.99644 70.118 87.358)"/><path d="M0 0c.216-3.132.066-6.338.066-9.458-2.419-.097-6.273.204-10.393 1.054 0 0-.066.004-.116.03-.018 0-.066.013-.1.016-.1-.25-.167-.504-.25-.78 0-.011 0-.017-.017-.037-.634-2.198-.95-4.07-1.034-5.902 0-.224 0-.458-.017-.679 2.687.679 5.505.743 8.942 1.092 1.901.172 4.837.823 7.156 1.598 0 0-.267-2.235-.467-5.696.016.016.049.016.067.042.149.058.333.145.483.22 3.637 2.131 4.971 6.222 5.372 11.732.534 7.097.834 9.383.834 9.383S2.819.784 0 0" style="fill:#50ade5;fill-opacity:1;fill-rule:nonzero;stroke:none" transform="matrix(1.99644 0 0 -1.99644 94.098 39.648)"/><path d="M0 0c-3.437-.349-6.255-.413-8.942-1.092-.033-.905-.017-1.877-.033-3.027 0-.239.233-3.308-.117-5.114 2.803 1.202 4.604 1.598 7.206 2.423 2.502.796 6.239 1.543 8.575 2.712.2 3.461.467 5.696.467 5.696C4.837.823 1.901.171 0 0" style="fill:#059b4e;fill-opacity:1;fill-rule:nonzero;stroke:none" transform="matrix(1.99644 0 0 -1.99644 88.27 68.924)"/><path d="M0 0c.101.028.234.07.385.116.083.013.183.046.283.068C.651.334.651.501.651.646c0 0-.433 5.58-4.237 10.38-2.418 2.773-6.306 5.029-11.977 6.452-2.502.675-9.408 2.565-9.408 2.565.299-2.737.5-7.411.5-7.411 0-4.904.15-8.774 2.969-13.128 2.586-4.017 6.639-6.285 11.627-7.678C-8.29-4.079-4.17-1.292 0 0" style="fill:#ec0772;fill-opacity:1;fill-rule:nonzero;stroke:none" transform="matrix(1.99644 0 0 -1.99644 92.763 40.015)"/><path d="M0 0c4.12-.851 7.974-1.151 10.394-1.055 0 3.12.149 6.326-.067 9.459-.1-.022-.201-.055-.283-.068-.151-.046-.285-.088-.385-.116C5.489 6.928 1.368 4.141-.216.046c.034-.004.082-.016.1-.016C-.066.004-.033.004 0 0" style="fill:#50ade5;fill-opacity:1;fill-rule:nonzero;stroke:none" transform="matrix(1.99644 0 0 -1.99644 73.48 56.425)"/><path d="M0 0c4.12-.851 7.974-1.151 10.394-1.055 0 3.12.149 6.326-.067 9.459-.1-.022-.201-.055-.283-.068-.151-.046-.285-.088-.385-.116C5.489 6.928 1.368 4.141-.216.046c.034-.004.082-.016.1-.016C-.066.004-.033.004 0 0" style="fill:#562a75;fill-opacity:1;fill-rule:nonzero;stroke:none" transform="matrix(1.99644 0 0 -1.99644 73.48 56.425)"/><path d="M0 0a3.008 3.008 0 0 1-3 2.982h-25.11v-4.493h22.659c0-4.806-.64-8.969-1.706-12.505h-27.884v-4.271h18.535v-8.847H-28.59v-4.333h24.468v-12.302h5.185v13.644a2.989 2.989 0 0 1-2.988 2.991h-9.076v8.847H7.366v4.271h-9.338C-.956-10.044 0-6.862 0 0" style="fill:#00452a;fill-opacity:1;fill-rule:nonzero;stroke:none" transform="matrix(1.99644 0 0 -1.99644 224.241 157.627)"/><path d="M295.375 436.226h-5.136v-26.26h5.136z" style="fill:#00452a;fill-opacity:1;fill-rule:nonzero;stroke:none" transform="matrix(1.99644 0 0 -1.99644 -262.813 1019.375)"/><path d="M0 0c-5.079-.694-12.466-1.277-16.953-1.277h-4.983v5.24h14.341v10.369a3.006 3.006 0 0 1-3.001 3.003h-16.631v-4.227h14.333V7.975h-14.333V-2.608a3.009 3.009 0 0 1 3.002-3.01h4.059c6.261 0 15.779.699 20.166 1.504z" style="fill:#00452a;fill-opacity:1;fill-rule:nonzero;stroke:none" transform="matrix(1.99644 0 0 -1.99644 310.445 186.493)"/><path d="M290.197 392.952h-14.923v6.095h14.923zm0 10.27h-14.924v4.327h-5.186v-15.868c0-1.66 1.35-2.999 2.999-2.999h22.306v18.867h-5.195z" style="fill:#00452a;fill-opacity:1;fill-rule:nonzero;stroke:none" transform="matrix(1.99644 0 0 -1.99644 -262.813 1019.375)"/><path d="M0 0h-5.438v10.262h-4.988v-25.369h4.988v10.446H0v-11.727h5.036v27.24H0Z" style="fill:#00452a;fill-opacity:1;fill-rule:nonzero;stroke:none" transform="matrix(1.99644 0 0 -1.99644 415.079 170.354)"/><path d="m0 0 2.97 3.886c-5.332 3.799-8.773 8.303-8.773 16.125v3.638h-5.238v-3.638c0-8.051-4.218-12.96-9.056-17.188l3.223-3.78c4.375 3.289 8.021 8.755 8.537 10.652C-7.803 7.745-4.286 2.876 0 0" style="fill:#00452a;fill-opacity:1;fill-rule:nonzero;stroke:none" transform="matrix(1.99644 0 0 -1.99644 385.56 199.099)"/><path d="M0 0v9.073h11.438v4.163H0v8.165h11.593v4.379H-5.086V-1.193c0-1.65 1.324-3.03 2.992-3.017h6.266c4.413 0 7.482.436 10.532.955V.81C11.874.387 8.464 0 3.962 0Z" style="fill:#00452a;fill-opacity:1;fill-rule:nonzero;stroke:none" transform="matrix(1.99644 0 0 -1.99644 456.854 204.744)"/><path d="M0 0h-5.281v13.973h-4.993v-45.466h4.993v27.238H0V-32.72h5.031v47.438H0Z" style="fill:#00452a;fill-opacity:1;fill-rule:nonzero;stroke:none" transform="matrix(1.99644 0 0 -1.99644 511.195 178.072)"/><path d="M0 0v6.736c5.499.273 11.064.697 14.006 1.124v4.013C8.988 11.289-1.39 10.65-8.616 10.65h-8.876V6.526l10.75.054h1.448V0Z" style="fill:#00452a;fill-opacity:1;fill-rule:nonzero;stroke:none" transform="matrix(1.99644 0 0 -1.99644 572.38 213.931)"/><path d="M0 0v7.804h-5.183v-9.243a3 3 0 0 1 2.998-2.999h24.072V0Z" style="fill:#00452a;fill-opacity:1;fill-rule:nonzero;stroke:none" transform="matrix(1.99644 0 0 -1.99644 572.253 234.536)"/><path d="M0 0h10.064v-4.022h5.122v37.118h-5.122V4.067H0Z" style="fill:#00452a;fill-opacity:1;fill-rule:nonzero;stroke:none" transform="matrix(1.99644 0 0 -1.99644 584.97 214.659)"/><path d="M0 0c-3.719 0-6.729 2.806-6.729 6.265 0 3.459 3.01 6.265 6.729 6.265 3.714 0 6.729-2.806 6.729-6.265C6.729 2.806 3.714 0 0 0m-.003 17.096c-7.018 0-11.853-4.847-11.853-10.831 0-5.983 4.835-10.831 11.853-10.831 7.016 0 11.857 4.848 11.857 10.831 0 5.984-4.838 10.831-11.857 10.831" style="fill:#00452a;fill-opacity:1;fill-rule:nonzero;stroke:none" transform="matrix(1.99644 0 0 -1.99644 399.844 238.354)"/><path d="M0 0c3.544 0 6.421-2.672 6.421-5.975 0-3.298-2.877-5.974-6.421-5.974-3.544 0-6.418 2.676-6.418 5.974C-6.418-2.672-3.544 0 0 0m0-16.551c6.851 0 11.575 4.733 11.575 10.576C11.575-.13 6.853 4.604 0 4.604c-6.859 0-11.58-4.734-11.58-10.579 0-5.843 4.721-10.576 11.58-10.576" style="fill:#00452a;fill-opacity:1;fill-rule:nonzero;stroke:none" transform="matrix(1.99644 0 0 -1.99644 567.35 156.639)"/><path d="M0 0v10.436h2.168l2.694-4.475c.696-1.161 1.3-2.37 1.78-3.499h.031c-.124 1.394-.17 2.741-.17 4.336v3.638h1.765V0H6.302L3.576 4.584c-.665 1.145-1.362 2.43-1.873 3.607l-.047-.015c.078-1.347.093-2.726.093-4.444V0Z" style="fill:#00452a;fill-opacity:1;fill-rule:nonzero;stroke:none" transform="matrix(1.99644 0 0 -1.99644 154.284 299.66)"/><path d="m0 0-.821 2.57c-.201.635-.371 1.347-.526 1.95h-.031c-.155-.603-.31-1.331-.495-1.95L-2.679 0Zm-2.988-1.439-.898-2.959h-1.967l3.345 10.436h2.431l3.39-10.436H1.27L.325-1.439z" style="fill:#00452a;fill-opacity:1;fill-rule:nonzero;stroke:none" transform="matrix(1.99644 0 0 -1.99644 185.315 290.88)"/><path d="M0 0h-2.972v1.595h7.88V0H1.904v-8.841H0Z" style="fill:#00452a;fill-opacity:1;fill-rule:nonzero;stroke:none" transform="matrix(1.99644 0 0 -1.99644 196.316 282.01)"/><path d="M238.009 360.5h-1.904v10.436h1.904z" style="fill:#00452a;fill-opacity:1;fill-rule:nonzero;stroke:none" transform="matrix(1.99644 0 0 -1.99644 -262.813 1019.375)"/><path d="M0 0c0-2.12 1.068-3.808 2.895-3.808 1.843 0 2.879 1.703 2.879 3.886 0 1.966-.974 3.823-2.879 3.823C1.006 3.901 0 2.152 0 0m7.788.154c0-3.498-2.121-5.495-5.001-5.495-2.942 0-4.8 2.245-4.8 5.311 0 3.205 2.013 5.466 4.954 5.466 3.05 0 4.847-2.309 4.847-5.282" style="fill:#00452a;fill-opacity:1;fill-rule:nonzero;stroke:none" transform="matrix(1.99644 0 0 -1.99644 219.65 289.337)"/><path d="M0 0v10.436h2.168l2.694-4.475c.696-1.161 1.3-2.37 1.78-3.499h.031c-.124 1.394-.17 2.741-.17 4.336v3.638h1.765V0H6.302L3.577 4.584c-.666 1.145-1.363 2.43-1.874 3.607l-.046-.015c.077-1.347.092-2.726.092-4.444V0Z" style="fill:#00452a;fill-opacity:1;fill-rule:nonzero;stroke:none" transform="matrix(1.99644 0 0 -1.99644 238.47 299.66)"/><path d="m0 0-.822 2.57c-.2.635-.37 1.347-.525 1.95h-.031c-.156-.603-.31-1.331-.495-1.95L-2.679 0Zm-2.989-1.439-.898-2.959h-1.966l3.345 10.436h2.43L3.313-4.398H1.269L.325-1.439z" style="fill:#00452a;fill-opacity:1;fill-rule:nonzero;stroke:none" transform="matrix(1.99644 0 0 -1.99644 269.503 290.88)"/><path d="M0 0h1.905v-8.841h4.289v-1.595H0Z" style="fill:#00452a;fill-opacity:1;fill-rule:nonzero;stroke:none" transform="matrix(1.99644 0 0 -1.99644 279.018 278.826)"/><path d="M284.141 360.5h-1.905v10.436h1.905z" style="fill:#00452a;fill-opacity:1;fill-rule:nonzero;stroke:none" transform="matrix(1.99644 0 0 -1.99644 -262.813 1019.375)"/><path d="M0 0v10.436h2.167l2.694-4.475c.696-1.161 1.3-2.37 1.78-3.499h.031c-.124 1.394-.17 2.741-.17 4.336v3.638h1.765V0H6.302L3.576 4.584c-.666 1.145-1.363 2.43-1.875 3.607l-.045-.015c.078-1.347.093-2.726.093-4.444V0Z" style="fill:#00452a;fill-opacity:1;fill-rule:nonzero;stroke:none" transform="matrix(1.99644 0 0 -1.99644 308.813 299.66)"/><path d="M0 0a5.27 5.27 0 0 1 2.524-.665c1.223 0 1.904.571 1.904 1.424 0 .79-.527 1.254-1.858 1.733-1.719.62-2.818 1.534-2.818 3.036 0 1.703 1.425 3.004 3.685 3.004 1.13 0 1.966-.248 2.508-.527l-.464-1.534c-.372.203-1.101.496-2.076.496-1.207 0-1.734-.65-1.734-1.254 0-.805.605-1.176 1.998-1.718C5.481 3.314 6.362 2.401 6.362.899c0-1.674-1.268-3.128-3.962-3.128-1.1 0-2.246.31-2.818.65z" style="fill:#00452a;fill-opacity:1;fill-rule:nonzero;stroke:none" transform="matrix(1.99644 0 0 -1.99644 329.612 295.518)"/><path d="M0 0h-2.973v1.595h7.881V0H1.904v-8.841H0Z" style="fill:#00452a;fill-opacity:1;fill-rule:nonzero;stroke:none" transform="matrix(1.99644 0 0 -1.99644 349.731 282.01)"/><path d="M314.853 360.5h-1.904v10.436h1.904z" style="fill:#00452a;fill-opacity:1;fill-rule:nonzero;stroke:none" transform="matrix(1.99644 0 0 -1.99644 -262.813 1019.375)"/><path d="M0 0h-2.972v1.595h7.878V0H1.904v-8.841H0Z" style="fill:#00452a;fill-opacity:1;fill-rule:nonzero;stroke:none" transform="matrix(1.99644 0 0 -1.99644 374.117 282.01)"/><path d="M0 0v-6.085c0-2.043.851-2.988 2.137-2.988 1.377 0 2.197.945 2.197 2.988V0h1.907v-5.96c0-3.221-1.658-4.646-4.168-4.646-2.412 0-3.977 1.346-3.977 4.63V0Z" style="fill:#00452a;fill-opacity:1;fill-rule:nonzero;stroke:none" transform="matrix(1.99644 0 0 -1.99644 390.124 278.826)"/><path d="M0 0h-2.972v1.595h7.881V0H1.906v-8.841H0Z" style="fill:#00452a;fill-opacity:1;fill-rule:nonzero;stroke:none" transform="matrix(1.99644 0 0 -1.99644 410.924 282.01)"/><path d="M0 0h-3.932v-3.066H.466v-1.563h-6.304V5.807H.233V4.243h-4.165V1.548H0Z" style="fill:#00452a;fill-opacity:1;fill-rule:nonzero;stroke:none" transform="matrix(1.99644 0 0 -1.99644 434.816 290.418)"/><path d="M0 0c0-2.12 1.069-3.808 2.896-3.808 1.841 0 2.879 1.703 2.879 3.886 0 1.966-.975 3.823-2.879 3.823C1.008 3.901 0 2.152 0 0m7.788.154c0-3.498-2.122-5.495-5.003-5.495-2.939 0-4.798 2.245-4.798 5.311 0 3.205 2.013 5.466 4.955 5.466 3.048 0 4.846-2.309 4.846-5.282" style="fill:#00452a;fill-opacity:1;fill-rule:nonzero;stroke:none" transform="matrix(1.99644 0 0 -1.99644 448.413 289.337)"/><path d="M0 0h6.023v-1.563H1.906v-2.88h3.841v-1.565H1.906v-4.428H0Z" style="fill:#00452a;fill-opacity:1;fill-rule:nonzero;stroke:none" transform="matrix(1.99644 0 0 -1.99644 467.23 278.826)"/><path d="M0 0h-3.932v-3.066H.466v-1.563h-6.304V5.807H.233V4.243h-4.165V1.548H0Z" style="fill:#00452a;fill-opacity:1;fill-rule:nonzero;stroke:none" transform="matrix(1.99644 0 0 -1.99644 501.015 290.418)"/><path d="M0 0c-.448-.233-1.438-.465-2.694-.465-3.311 0-5.324 2.075-5.324 5.249 0 3.437 2.382 5.513 5.572 5.513 1.254 0 2.152-.264 2.54-.466l-.418-1.517c-.496.217-1.177.403-2.043.403-2.122 0-3.656-1.332-3.656-3.841 0-2.291 1.347-3.761 3.638-3.761.775 0 1.58.155 2.076.388z" style="fill:#00452a;fill-opacity:1;fill-rule:nonzero;stroke:none" transform="matrix(1.99644 0 0 -1.99644 520.207 299.041)"/><path d="M0 0c0-2.12 1.068-3.808 2.894-3.808 1.843 0 2.878 1.703 2.878 3.886 0 1.966-.972 3.823-2.878 3.823C1.008 3.901 0 2.152 0 0m7.788.154c0-3.498-2.122-5.495-5.001-5.495-2.942 0-4.8 2.245-4.8 5.311 0 3.205 2.013 5.466 4.955 5.466 3.051 0 4.846-2.309 4.846-5.282" style="fill:#00452a;fill-opacity:1;fill-rule:nonzero;stroke:none" transform="matrix(1.99644 0 0 -1.99644 525.585 289.337)"/><path d="M0 0h1.904v-8.841h4.289v-1.595H0Z" style="fill:#00452a;fill-opacity:1;fill-rule:nonzero;stroke:none" transform="matrix(1.99644 0 0 -1.99644 544.408 278.826)"/><path d="M0 0c0-2.12 1.068-3.808 2.896-3.808 1.843 0 2.879 1.703 2.879 3.886 0 1.966-.975 3.823-2.879 3.823C1.008 3.901 0 2.152 0 0m7.788.154c0-3.498-2.119-5.495-5.001-5.495-2.939 0-4.797 2.245-4.797 5.311 0 3.205 2.01 5.466 4.952 5.466 3.051 0 4.846-2.309 4.846-5.282" style="fill:#00452a;fill-opacity:1;fill-rule:nonzero;stroke:none" transform="matrix(1.99644 0 0 -1.99644 561.371 289.337)"/><path d="M0 0a10.409 10.409 0 0 0-3.362-.587c-1.765 0-3.094.449-4.086 1.392-.93.884-1.471 2.261-1.456 3.84 0 3.297 2.354 5.419 5.805 5.419 1.286 0 2.294-.263 2.772-.495l-.417-1.533c-.572.248-1.269.449-2.37.449-2.228 0-3.793-1.315-3.793-3.747 0-2.368 1.456-3.777 3.623-3.777.681 0 1.193.092 1.441.216v2.6h-1.843v1.504H0Z" style="fill:#00452a;fill-opacity:1;fill-rule:nonzero;stroke:none" transform="matrix(1.99644 0 0 -1.99644 596.889 298.703)"/><path d="M0 0v4.351l-3.296 6.085h2.167L.124 7.759c.357-.776.62-1.364.899-2.076h.03c.263.665.557 1.315.914 2.076l1.253 2.677h2.152L1.906 4.398V0Z" style="fill:#00452a;fill-opacity:1;fill-rule:nonzero;stroke:none" transform="matrix(1.99644 0 0 -1.99644 605.507 299.66)"/></svg>