<svg xmlns="http://www.w3.org/2000/svg" xml:space="preserve" width="1037.9332" height="200" viewBox="0 0 1037.9332 200"><path d="M0 0h-44.035c-1.174 0-2.193-1.019-2.193-2.193v-3.134c0-.252.055-.493.14-.722.188-1.007 1.106-1.817 2.153-1.817h19.82c1.644 0 2.194-1.096 1.644-2.507-1.88-4.621-7.441-11.359-17.782-11.359-12.064 0-20.837 9.871-20.837 21.308 0 11.673 9.007 21.308 20.68 21.308 7.443 0 12.3-4.152 14.65-6.894.782-.94 2.037-1.41 2.976-.705l3.447 2.586c.94.705 1.489 2.115.705 3.055-3.917 4.935-11.515 9.792-21.543 9.792-17.077 0-29.69-12.847-29.69-29.142 0-16.138 12.692-29.141 29.455-29.141 16.393 0 26.202 11.213 28.094 22.044h4.325c1.646 0 2.508-.861 2.508-2.506v-25.429c0-1.175 1.018-2.192 2.193-2.192h4.388c1.174 0 2.193 1.017 2.193 2.192v32.164C3.291-1.176 2.115 0 0 0" style="fill:#6c9cd3;fill-opacity:1;fill-rule:nonzero;stroke:none" transform="matrix(3.0136 0 0 -3.0136 210.545 86.544)"/><path d="M0 0h35.012c1.366 0 2.082-.716 2.082-2.083v-5.661c0-.976.846-1.822 1.823-1.822h3.644c.976 0 1.822.846 1.822 1.822V3.514c0 1.757-.976 2.734-2.734 2.734H0c-.976 0-1.822-.847-1.822-1.823V1.822C-1.822.846-.976 0 0 0m-3.904-18.156h50.63c.976 0 1.822.845 1.822 1.822v2.538c0 .976-.846 1.822-1.822 1.822h-50.63c-.977 0-1.823-.846-1.823-1.822v-2.538c0-.977.846-1.822 1.823-1.822m45.553-12.235H-.26c-.976 0-1.823-.846-1.823-1.822v-2.603c0-.976.847-1.822 1.823-1.822h35.272c1.366 0 2.082-.716 2.082-2.083v-6.898c0-.976.846-1.822 1.823-1.822h3.644c.976 0 1.822.846 1.822 1.822v12.495c0 1.757-.976 2.733-2.734 2.733m-20.173 1.432c2.603 0 4.75 2.147 4.75 4.815 0 2.603-2.147 4.751-4.75 4.751-2.669 0-4.816-2.148-4.816-4.751a4.804 4.804 0 0 1 4.816-4.815m87.073-16.66v16.985c0 1.758-1.042 2.799-2.799 2.799H63.19c-.976 0-1.822-.847-1.822-1.823v-2.668c0-.976.846-1.822 1.822-1.822h35.988c1.366 0 2.082-.716 2.082-2.082v-11.389c0-.976.846-1.822 1.822-1.822h3.645c.976 0 1.822.846 1.822 1.822M104.97-21.15V5.271c0 .977-.846 1.823-1.823 1.823h-3.644c-.976 0-1.822-.846-1.822-1.823V-21.15c0-.976.846-1.822 1.822-1.822h3.644c.977 0 1.823.846 1.823 1.822m-30.262.781c8.07 0 14.188 5.661 14.188 13.276 0 7.614-6.118 13.276-14.188 13.276-8.069 0-14.186-5.662-14.186-13.276 0-7.615 6.117-13.276 14.186-13.276m0 20.369c4.361 0 7.224-3.188 7.224-7.093s-2.863-7.094-7.224-7.094c-4.359 0-7.223 3.189-7.223 7.094C67.485-3.188 70.349 0 74.708 0m36.639-11.844c2.603 0 4.751 2.148 4.751 4.816 0 2.603-2.148 4.751-4.751 4.751-2.668 0-4.816-2.148-4.816-4.751a4.806 4.806 0 0 1 4.816-4.816m43.927-7.549V3.449c0 1.042-.781 1.822-1.822 1.822h-3.579c-1.041 0-1.822-.78-1.822-1.822v-4.555h-15.749v4.555c0 1.042-.781 1.822-1.822 1.822h-3.58c-1.041 0-1.822-.78-1.822-1.822v-22.842c0-.976.846-1.822 1.822-1.822h26.552c.976 0 1.822.846 1.822 1.822m15.423-1.497V5.271c0 .977-.845 1.823-1.822 1.823h-3.644c-.976 0-1.822-.846-1.822-1.823V-20.89c0-.976.846-1.822 1.822-1.822h3.644c.977 0 1.822.846 1.822 1.822m-22.646 5.727h-15.749v8.069h15.749zm12.169-22.126c0-3.254-2.408-6.117-6.443-6.117-4.034 0-6.442 2.863-6.442 6.117s2.408 6.117 6.442 6.117c4.035 0 6.443-2.863 6.443-6.117m16.855 25.445c2.603 0 4.751 2.148 4.751 4.816 0 2.603-2.148 4.751-4.751 4.751-2.668 0-4.816-2.148-4.816-4.751a4.806 4.806 0 0 1 4.816-4.816m-10.087-25.445c0 6.508-5.206 12.3-13.211 12.3-8.004 0-13.21-5.792-13.21-12.3 0-6.508 5.206-12.299 13.21-12.299 8.005 0 13.211 5.791 13.211 12.299m74.969 18.417h-50.63c-.976 0-1.822-.846-1.822-1.822v-2.538c0-.976.846-1.823 1.822-1.823h50.63c.976 0 1.822.847 1.822 1.823v2.538c0 .976-.846 1.822-1.822 1.822m-19.719-20.044c0-3.059-2.407-5.271-5.596-5.271s-5.597 2.212-5.597 5.271c0 3.059 2.408 5.271 5.597 5.271 3.189 0 5.596-2.212 5.596-5.271m-5.531 21.996c2.603 0 4.751 2.148 4.751 4.816 0 2.603-2.148 4.75-4.751 4.75-2.668 0-4.816-2.147-4.816-4.75a4.806 4.806 0 0 1 4.816-4.816m12.365-21.996c0 6.443-5.337 11.323-12.43 11.323-7.094 0-12.43-4.88-12.43-11.323 0-6.442 5.336-11.323 12.43-11.323 7.093 0 12.43 4.881 12.43 11.323M218.269 7.028c-.781.586-2.343.716-3.189.066l-21.606-16.4c-.781-.651-.911-1.822-.26-2.603l1.822-2.342c.651-.782 1.692-.912 2.473-.326L216.642-.065l19.132-14.512c.782-.586 1.823-.456 2.474.326l1.821 2.342c.651.781.521 1.952-.26 2.603z" style="fill:#231916;fill-opacity:1;fill-rule:nonzero;stroke:none" transform="matrix(3.0136 0 0 -3.0136 303.283 41.379)"/></svg>