<svg xmlns="http://www.w3.org/2000/svg" viewBox="0 0 329.74 44.16"><defs><style>.cls-1{fill:#000}</style></defs><g id="레이어_2"><g id="Layer_1"><path d="M33.58 4.61A3.7 3.7 0 0 0 29.89.93H4.61v4.14h22.53a.49.49 0 0 1 .46.46v9.65H0v4.14h16.32v6.91H4.6v4.13h22.53a.49.49 0 0 1 .46.46v12h6V29.9a3.68 3.68 0 0 0-3.69-3.67h-7.6v-6.91h16.32v-4.14h-5V4.61ZM71.52.47h5.52v42.31h-5.52zM63.7 11.51h-5.98v4.14h5.98v27.13h5.52V.47H63.7z" class="cls-1"/><path d="M54 9.21V5.54h6V1.4H42.09v4.14h6v3.67c0 7.73-3.08 13.79-7.67 17.11l3.13 3.12a26.5 26.5 0 0 0 7.55-9.06 26.5 26.5 0 0 0 7.54 9.06l3.13-3.12C57.13 23 54 16.94 54 9.21M117.35.47h-5.98v23.45h5.98V12.43h5.98V8.29h-5.98zM105.86 17.94V.93h-6V7.1H89.77V.93h-6v17a3.68 3.68 0 0 0 3.68 3.68h14.72a3.69 3.69 0 0 0 3.69-3.67m-6-.91a.49.49 0 0 1-.46.46h-9.2a.49.49 0 0 1-.46-.46v-6h10.13v6ZM104.75 24.61c-6.38 0-11.62 4.46-11.62 9.8s5.24 9.75 11.62 9.75 11.68-4.46 11.68-9.75-5.29-9.8-11.68-9.8m0 15.5a5.73 5.73 0 1 1 5.56-5.7 5.59 5.59 0 0 1-5.56 5.7M143.87 9.25c3.21 3.95 10.21 7 15.87 7.64l1.6-3.69C153.16 11.92 147 7.37 147 1.43V0h-6.25v1.43c0 5.94-6.16 10.49-14.34 11.77l1.6 3.69c5.65-.6 12.64-3.69 15.86-7.64" class="cls-1"/><path d="M146.85 18.86v-4.6h-5.97v4.6h-16.32V23h38.62v-4.14zM143.87 25c-6.4 0-11.64 4.37-11.64 9.61s5.24 9.56 11.64 9.56 11.68-4.37 11.68-9.56S150.26 25 143.87 25m0 15.13a5.52 5.52 0 1 1 5.56-5.52 5.5 5.5 0 0 1-5.56 5.5ZM278.38 11.51h-2.99V.47h-5.52v42.31h5.52V15.65h2.99v27.13h5.52V.47h-5.52zM260.91 9.21V5.54h6V1.4H249v4.14h6v3.67c0 7.73-3.08 13.8-7.67 17.12l3.12 3.12a26.4 26.4 0 0 0 7.55-9.06 26.5 26.5 0 0 0 7.54 9.06l3.13-3.12c-4.67-3.33-7.76-9.39-7.76-17.12M323.75 9.21V.47h-6v13.79c0 2.17-2.26 3.23-5.06 3.23h-15.62a.49.49 0 0 1-.45-.46v-12h15.17V.93h-21.14v17a3.69 3.69 0 0 0 3.68 3.69h17.47c3.1 0 6-.88 6-2.76v10.59h6V13.36h6V9.22h-6ZM303.52 38.18V27.6h-6v11.5a3.69 3.69 0 0 0 3.68 3.68h23v-4.14H304a.49.49 0 0 1-.48-.46M203.4 37.39H165v-4.11h9.37V18.2h5.71v15.08h4.57V18.2h5.71v15.08h13v4.11Zm-5-13.25h-5.94V6.77a.41.41 0 0 0-.46-.46h-22.41V2.2h25.13a3.52 3.52 0 0 1 2.58 1.07 3.5 3.5 0 0 1 1.07 2.58v18.29ZM244.66 29.17h-9.37v13.25h-5.94V29.17h-7.77v13.25h-5.94V29.17h-9.37v-4.11h38.39Zm-4.57-7.77H215a3.65 3.65 0 0 1-3.65-3.65V9.2h22.35V5.86a.41.41 0 0 0-.46-.46h-22.17V1.29H236a3.52 3.52 0 0 1 2.58 1.07 3.5 3.5 0 0 1 1.07 2.58V13h-22.41v3.79a.4.4 0 0 0 .46.46h22.39z" class="cls-1"/></g></g></svg>