<svg xmlns="http://www.w3.org/2000/svg" xml:space="preserve" width="1351.5823" height="300" viewBox="0 0 1351.5823 300.00001"><defs><clipPath id="a" clipPathUnits="userSpaceOnUse"><path d="M50.147 120.686h103.518V15.374H50.147Z"/></clipPath><clipPath id="b" clipPathUnits="userSpaceOnUse"><path d="M50.916 121.711h90.193V28.186H50.915Z"/></clipPath><clipPath id="c" clipPathUnits="userSpaceOnUse"><path d="M-4.43 108.899h107.873V14.606H-4.431Z"/></clipPath><clipPath id="d" clipPathUnits="userSpaceOnUse"><path d="M13.25 121.711h90.193V28.186H13.249Z"/></clipPath><clipPath id="e" clipPathUnits="userSpaceOnUse"><path d="M3 87.888h149.127V1.025H3Z"/></clipPath><clipPath id="f" clipPathUnits="userSpaceOnUse"><path d="M6.587 95.575h107.618V0H6.587Z"/></clipPath><clipPath id="g" clipPathUnits="userSpaceOnUse"><path d="M44.253 124.529h100.956V.769H44.253Z"/></clipPath><clipPath id="h" clipPathUnits="userSpaceOnUse"><path d="M22.73 124.018h108.13V18.193H22.73Z"/></clipPath><clipPath id="i" clipPathUnits="userSpaceOnUse"><path d="M21.96 97.88h110.437V11.275H21.961Z"/></clipPath><clipPath id="j" clipPathUnits="userSpaceOnUse"><path d="M65.264 165.014h131.448V49.197H65.264Z"/></clipPath><clipPath id="k" clipPathUnits="userSpaceOnUse"><path d="M-37.485 157.583H92.681V54.321H-37.485Z"/></clipPath><clipPath id="l" clipPathUnits="userSpaceOnUse"><path d="M-12.374 181.413h178.338V32.542H-12.374Z"/></clipPath><clipPath id="m" clipPathUnits="userSpaceOnUse"><path d="M3.512 160.915H149.31V40.998H3.512Z"/></clipPath><clipPath id="n" clipPathUnits="userSpaceOnUse"><path d="M29.648 140.416h82.763V56.115H29.648Z"/></clipPath><clipPath id="o" clipPathUnits="userSpaceOnUse"><path d="M40.922 140.416h82.764V56.115H40.922Z"/></clipPath><clipPath id="p" clipPathUnits="userSpaceOnUse"><path d="M-2.38 158.608h158.863V30.492H-2.381Z"/></clipPath><clipPath id="q" clipPathUnits="userSpaceOnUse"><path d="M38.873 208.062h93.524V98.906H38.873Z"/></clipPath><clipPath id="r" clipPathUnits="userSpaceOnUse"><path d="M48.353 169.113h97.881V62.777H48.353Z"/></clipPath><clipPath id="s" clipPathUnits="userSpaceOnUse"><path d="M-.075 168.088h109.412v-90.45H-.075Z"/></clipPath><clipPath id="t" clipPathUnits="userSpaceOnUse"><path d="M15.3 189.612H140.34V70.464H15.299Z"/></clipPath><clipPath id="u" clipPathUnits="userSpaceOnUse"><path d="M29.392 130.679h95.831V47.147H29.392Z"/></clipPath><clipPath id="v" clipPathUnits="userSpaceOnUse"><path d="M35.541 135.291h83.276V51.759H35.542Z"/></clipPath><clipPath id="w" clipPathUnits="userSpaceOnUse"><path d="M-4.43 112.999h107.873V14.606H-4.431Z"/></clipPath><clipPath id="x" clipPathUnits="userSpaceOnUse"><path d="M50.147 120.686h103.518V15.374H50.147Z"/></clipPath></defs><path d="m0 0 7.959 7.958L-24.8 40.717v-65.518l11.796 11.796v26.01z" style="fill:#0080c5;fill-opacity:1;fill-rule:nonzero;stroke:none" transform="matrix(4.5789 0 0 -4.5789 263.548 186.439)"/><path d="M0 0h13.004L0 13.005Z" style="fill:#034ea1;fill-opacity:1;fill-rule:nonzero;stroke:none" transform="matrix(4.5789 0 0 -4.5789 204.002 186.439)"/><path d="m0 0-7.956-7.958 32.757-32.759v65.518L13.006 13.005v-26.01z" style="fill:#8ac650;fill-opacity:1;fill-rule:nonzero;stroke:none" transform="matrix(4.5789 0 0 -4.5789 36.43 113.561)"/><path d="M0 0h-13.006L0-13.005Z" style="fill:#008b44;fill-opacity:1;fill-rule:nonzero;stroke:none" transform="matrix(4.5789 0 0 -4.5789 95.984 113.561)"/><path d="M0 0h-5.261v2.907H5.483v3.654H2.99v5.642a3.804 3.804 0 0 1-3.802 3.805h-17.392v-3.66h16.82V6.561h-18.124V2.907h9.872V0h-8.568v-3.661H-.572v-6.315h4.377v6.174A3.806 3.806 0 0 1 0 0" style="fill:#034ea1;fill-opacity:1;fill-rule:nonzero;stroke:none" transform="matrix(5.02821 0 0 -5.02821 458.361 166.155)"/><path d="M290.808-95.338h4.375v26.357h-4.375z" style="fill:#034ea1;fill-opacity:1;fill-rule:nonzero;stroke:none" transform="matrix(5.02821 0 0 -5.02821 -275.032 -263.077)"/><path d="M0 0a3.186 3.186 0 0 1 3.182 3.182A3.186 3.186 0 0 1 0 6.366a3.188 3.188 0 0 1-3.183-3.184A3.187 3.187 0 0 1 0 0m0-3.995c-3.958 0-7.178 3.219-7.178 7.177 0 3.96 3.22 7.18 7.178 7.18 3.958 0 7.178-3.22 7.178-7.18 0-3.958-3.22-7.177-7.178-7.177" style="fill:#034ea1;fill-opacity:1;fill-rule:nonzero;stroke:none" transform="matrix(5.02821 0 0 -5.02821 673.649 134.615)"/><path d="M0 0h-4.375v-15.572H0v6.632h3.521v3.654H0Z" style="fill:#034ea1;fill-opacity:1;fill-rule:nonzero;stroke:none" transform="matrix(5.02821 0 0 -5.02821 761.513 83.773)"/><path d="M0 0h-4.375v-11.805h-3.244v7.749C-7.686-2.119-9.583-.5-11.938-.379L-23.68-.381v-3.716h11.686v-7.708h-3.697v3.592h-4.377v-3.592h-4.959v-3.65h20.652v-3.629H0V-8.94h3.521v3.654H0Z" style="fill:#034ea1;fill-opacity:1;fill-rule:nonzero;stroke:none" transform="matrix(5.02821 0 0 -5.02821 1053.183 83.773)"/><path d="M0 0h-4.374v-6.675A3.805 3.805 0 0 1-.569-10.48h15.066v3.652H0Z" style="fill:#034ea1;fill-opacity:1;fill-rule:nonzero;stroke:none" transform="matrix(5.02821 0 0 -5.02821 689.534 164.858)"/><path d="M0 0a3.088 3.088 0 0 0-3.085 3.084A3.089 3.089 0 0 0 0 6.169c1.7 0 3.084-1.384 3.084-3.085A3.088 3.088 0 0 0 0 0m12.175 9.325V-.154H6.154c.511.967.802 2.069.802 3.238 0 3.837-3.121 6.958-6.956 6.958a6.966 6.966 0 0 1-6.958-6.958c0-1.17.294-2.27.805-3.238h-2.859v-3.368h5.899v-3.874h4.377v3.874h10.911v-2.274H7.586v-3.373h4.589v-2.273h4.376V9.325Z" style="fill:#034ea1;fill-opacity:1;fill-rule:nonzero;stroke:none" transform="matrix(5.02821 0 0 -5.02821 1268.36 130.662)"/><path d="M0 0h-4.38v-6.675A3.805 3.805 0 0 1-.575-10.48h16.416v3.656H0Z" style="fill:#034ea1;fill-opacity:1;fill-rule:nonzero;stroke:none" transform="matrix(5.02821 0 0 -5.02821 829.587 164.858)"/><path d="M0 0h4.382v15.561H0v-5.342h-3.407v-3.66H0Z" style="fill:#034ea1;fill-opacity:1;fill-rule:nonzero;stroke:none" transform="matrix(5.02821 0 0 -5.02821 886.297 162.072)"/><path d="m0 0 3.732 7.928L7.485 0h4.321L7.489 9.123h3.725v3.657h-14.95V9.123h3.711L-4.342 0Z" style="fill:#034ea1;fill-opacity:1;fill-rule:nonzero;stroke:none" transform="matrix(5.02821 0 0 -5.02821 805.47 149.997)"/><path d="M0 0h8.626v3.661h-17.27v2.672H8.062v3.66H-8.644v2.565h17.27v3.661l-21.644.012V3.804c0-2.1 1.703-3.804 3.804-3.805L-4.376 0v-2.713h-10.176v-3.65h24.716v3.65H0Z" style="fill:#034ea1;fill-opacity:1;fill-rule:nonzero;stroke:none" transform="matrix(5.02821 0 0 -5.02821 576.39 167.212)"/><path d="M0 0h-4.375v-5.07A3.806 3.806 0 0 1-.57-8.875h16.459v3.652H0Z" style="fill:#034ea1;fill-opacity:1;fill-rule:nonzero;stroke:none" transform="matrix(5.02821 0 0 -5.02821 974.271 172.929)"/><path d="M0 0h-4.375v-3.818A3.805 3.805 0 0 1-.57-7.624h15.857v3.653H0Z" style="fill:#034ea1;fill-opacity:1;fill-rule:nonzero;stroke:none" transform="matrix(5.02821 0 0 -5.02821 1274.714 177.897)"/><path d="M0 0h12.226v10.81l-16.33-.013v-3.66H7.852V3.661H-4.375v-7.558A3.805 3.805 0 0 1-.57-7.703h13.362v3.652H0Z" style="fill:#034ea1;fill-opacity:1;fill-rule:nonzero;stroke:none" transform="matrix(5.02821 0 0 -5.02821 1102.815 139.953)"/><path d="M0 0v-2.609h.018L1.679 0h1.424l-1.77-2.793 1.97-3.723H1.825L.483-3.842 0-4.581v-1.935h-1.314V0Z" style="fill:#034ea1;fill-opacity:1;fill-rule:nonzero;stroke:none" transform="matrix(5.02821 0 0 -5.02821 374.002 250.281)"/><path d="M0 0c.511 0 .675.502.675 1.725S.511 3.45 0 3.45c-.621 0-.675-.721-.675-1.725S-.621 0 0 0m0 4.309c1.515.026 1.935-.877 1.935-2.584C1.935.046 1.442-.857 0-.857-1.515-.884-1.935.02-1.935 1.725c0 1.68.493 2.584 1.935 2.584" style="fill:#034ea1;fill-opacity:1;fill-rule:nonzero;stroke:none" transform="matrix(5.02821 0 0 -5.02821 403.496 279.375)"/><path d="M0 0h1.204v-.657h.019c.255.474.611.785 1.131.785.074 0 .155-.01.229-.02v-1.204c-.128.01-.265.019-.393.019-.438 0-.931-.227-.931-.886v-2.948H0Z" style="fill:#034ea1;fill-opacity:1;fill-rule:nonzero;stroke:none" transform="matrix(5.02821 0 0 -5.02821 419.364 258.354)"/><path d="M0 0c-.027.749-.119 1.167-.639 1.167-.502 0-.648-.52-.648-.977V0Zm-1.287-.749v-.392c0-.575.155-1.141.62-1.141.42 0 .594.32.667.921h1.131C1.086-2.5.538-3.14-.648-3.14c-1.825 0-1.899 1.406-1.899 2.629 0 1.314.255 2.538 1.953 2.538 1.47 0 1.799-.987 1.799-2.493v-.283z" style="fill:#034ea1;fill-opacity:1;fill-rule:nonzero;stroke:none" transform="matrix(5.02821 0 0 -5.02821 449.272 267.9)"/><path d="M0 0a1.571 1.571 0 0 0-.539-.246c-.511-.11-.711-.356-.711-.794 0-.375.136-.685.475-.685.337 0 .775.22.775.758zm-2.3.949v.119c0 1.132.776 1.516 1.725 1.516 1.497 0 1.78-.622 1.78-1.508v-2.581c0-.457.026-.667.154-.95H.155C.073-2.3.037-2.109 0-1.943h-.018c-.293-.512-.649-.64-1.251-.64-.876 0-1.186.75-1.186 1.406 0 .922.373 1.296 1.241 1.533l.712.192c.375.101.502.247.502.574 0 .376-.165.603-.584.603-.383 0-.584-.256-.584-.639V.949Z" style="fill:#034ea1;fill-opacity:1;fill-rule:nonzero;stroke:none" transform="matrix(5.02821 0 0 -5.02821 472.896 270.701)"/><path d="M0 0h1.277l-.63 2.93H.629Zm-.174 4.061h1.625l1.724-6.516H1.807l-.301 1.378H-.229L-.53-2.455h-1.369z" style="fill:#034ea1;fill-opacity:1;fill-rule:nonzero;stroke:none" transform="matrix(5.02821 0 0 -5.02821 507.387 270.701)"/><path d="M0 0h-.019c-.265-.485-.721-.703-1.25-.703-.785 0-1.251.429-1.251 1.397v3.641h1.261V.948c0-.492.163-.683.538-.683.429 0 .666.263.666.811v3.259h1.259V-.576H0Z" style="fill:#034ea1;fill-opacity:1;fill-rule:nonzero;stroke:none" transform="matrix(5.02821 0 0 -5.02821 540.873 280.151)"/><path d="M0 0h1.259v-1.404h.731v-.859h-.731v-2.655c0-.384.083-.539.448-.539.1 0 .2.008.283.018v-.876c-.274-.026-.53-.055-.822-.055C.182-6.37 0-6.068 0-5.073v2.81h-.639v.859H0Z" style="fill:#034ea1;fill-opacity:1;fill-rule:nonzero;stroke:none" transform="matrix(5.02821 0 0 -5.02821 555.27 251.293)"/><path d="M0 0h1.26v-2.108h.017c.238.42.667.631 1.196.631.785 0 1.251-.43 1.251-1.398v-3.641h-1.26v3.386c0 .493-.164.685-.538.685-.429 0-.666-.264-.666-.813v-3.258H0Z" style="fill:#034ea1;fill-opacity:1;fill-rule:nonzero;stroke:none" transform="matrix(5.02821 0 0 -5.02821 570.22 250.281)"/><path d="M0 0c.511 0 .675.502.675 1.725S.511 3.45 0 3.45c-.621 0-.675-.721-.675-1.725S-.621 0 0 0m0 4.309c1.515.026 1.935-.877 1.935-2.584C1.935.046 1.442-.857 0-.857-1.515-.884-1.935.02-1.935 1.725c0 1.68.493 2.584 1.935 2.584" style="fill:#034ea1;fill-opacity:1;fill-rule:nonzero;stroke:none" transform="matrix(5.02821 0 0 -5.02821 604.81 279.375)"/><path d="M0 0h1.205v-.657h.018c.256.474.611.785 1.131.785.074 0 .156-.01.229-.02v-1.204c-.127.01-.265.019-.393.019-.438 0-.93-.227-.93-.886v-2.948H0Z" style="fill:#034ea1;fill-opacity:1;fill-rule:nonzero;stroke:none" transform="matrix(5.02821 0 0 -5.02821 620.676 258.354)"/><path d="M181.767-103.701h1.26v-4.911h-1.26zm0 1.68h1.26v-1.077h-1.26z" style="fill:#034ea1;fill-opacity:1;fill-rule:nonzero;stroke:none" transform="matrix(5.02821 0 0 -5.02821 -275.032 -263.077)"/><path d="M0 0h1.26v-1.404h.73v-.859h-.73v-2.655c0-.384.082-.539.448-.539.1 0 .2.008.282.018v-.876c-.274-.026-.529-.055-.822-.055C.183-6.37 0-6.068 0-5.073v2.81h-.638v.859H0Z" style="fill:#034ea1;fill-opacity:1;fill-rule:nonzero;stroke:none" transform="matrix(5.02821 0 0 -5.02821 653.838 251.293)"/><path d="M0 0c.109-.019.219-.027.329-.027.464 0 .639.256.675.694l-1.379 4.91H.94l.73-3.396h.018l.639 3.396h1.259L2.4.995C1.962-.703 1.679-.94.511-.94H0Z" style="fill:#034ea1;fill-opacity:1;fill-rule:nonzero;stroke:none" transform="matrix(5.02821 0 0 -5.02821 668.795 286.397)"/><path d="M0 0c.511 0 .676.502.676 1.725S.511 3.45 0 3.45c-.62 0-.675-.721-.675-1.725S-.62 0 0 0m0 4.309c1.515.026 1.935-.877 1.935-2.584C1.935.046 1.442-.857 0-.857-1.514-.884-1.935.02-1.935 1.725c0 1.68.493 2.584 1.935 2.584" style="fill:#034ea1;fill-opacity:1;fill-rule:nonzero;stroke:none" transform="matrix(5.02821 0 0 -5.02821 714.572 279.375)"/><path d="M0 0h-.639v.859H0v.556c0 .886.502 1.177 1.315 1.177.227 0 .447-.009.675-.027v-.894c-.082.009-.164.009-.247.009-.355 0-.483-.109-.483-.392V.859h.73V0h-.73v-4.052H0Z" style="fill:#034ea1;fill-opacity:1;fill-rule:nonzero;stroke:none" transform="matrix(5.02821 0 0 -5.02821 731.815 262.673)"/><path d="M0 0v6.516h1.314V1.078h2.328V0Z" style="fill:#034ea1;fill-opacity:1;fill-rule:nonzero;stroke:none" transform="matrix(5.02821 0 0 -5.02821 760.712 283.046)"/><path d="M0 0a1.571 1.571 0 0 0-.539-.246c-.511-.11-.711-.356-.711-.794 0-.375.136-.685.474-.685.338 0 .776.22.776.758zm-2.3.949v.119c0 1.132.776 1.516 1.725 1.516 1.497 0 1.78-.622 1.78-1.508v-2.581c0-.457.027-.667.154-.95H.155C.073-2.3.037-2.109 0-1.943h-.018c-.293-.512-.649-.64-1.251-.64-.876 0-1.186.75-1.186 1.406 0 .922.373 1.296 1.241 1.533l.712.192c.375.101.502.247.502.574 0 .376-.165.603-.584.603-.383 0-.584-.256-.584-.639V.949Z" style="fill:#034ea1;fill-opacity:1;fill-rule:nonzero;stroke:none" transform="matrix(5.02821 0 0 -5.02821 796.038 270.701)"/><path d="M0 0h1.205v-.574h.019c.264.482.721.702 1.25.702.784 0 1.25-.429 1.25-1.397v-3.642H2.465v3.387c0 .493-.165.685-.539.685-.429 0-.666-.265-.666-.813v-3.259H0Z" style="fill:#034ea1;fill-opacity:1;fill-rule:nonzero;stroke:none" transform="matrix(5.02821 0 0 -5.02821 809.33 258.354)"/><path d="M0 0c.558 0 .667.546.667 1.615C.667 2.683.558 3.231 0 3.231c-.548 0-.657-.548-.657-1.616C-.657.546-.548 0 0 0m.722-.32H.703C.429-.777.083-.968-.41-.968c-1.032 0-1.507.759-1.507 2.583 0 1.825.475 2.584 1.507 2.584.474 0 .793-.192 1.058-.584h.019v2.061h1.259V-.84H.722Z" style="fill:#034ea1;fill-opacity:1;fill-rule:nonzero;stroke:none" transform="matrix(5.02821 0 0 -5.02821 844.059 278.82)"/><path d="m0 0 .154-.219.238.201c.293.236.41.483.41.711 0 .356-.236.548-.574.548-.311 0-.556-.192-.556-.529C-.328.538-.219.291 0 0m-.128-1.616C-.62-2-.794-2.319-.794-2.72c0-.411.319-.858.912-.858.357 0 .63.137.849.411zm1.853-.712c.137.283.228.722.228.985h1.131c0-.702-.273-1.369-.666-1.925l.858-1.205H1.88l-.365.503c-.329-.392-.931-.63-1.57-.63-1.652 0-1.999 1.15-1.999 1.88 0 .758.502 1.377 1.314 1.88l-.227.338c-.366.538-.439.803-.439 1.177 0 .848.685 1.368 1.661 1.368 1.114 0 1.625-.601 1.625-1.36 0-.647-.365-1.149-1.132-1.688z" style="fill:#034ea1;fill-opacity:1;fill-rule:nonzero;stroke:none" transform="matrix(5.02821 0 0 -5.02821 883.233 260.556)"/><path d="M237.403-102.095h1.314v-6.516h-1.314z" style="fill:#034ea1;fill-opacity:1;fill-rule:nonzero;stroke:none" transform="matrix(5.02821 0 0 -5.02821 -275.032 -263.077)"/><path d="M0 0h1.205v-.574h.018c.265.482.721.702 1.25.702.785 0 1.251-.429 1.251-1.397v-3.642h-1.26v3.387c0 .493-.164.685-.539.685-.428 0-.665-.265-.665-.813v-3.259H0Z" style="fill:#034ea1;fill-opacity:1;fill-rule:nonzero;stroke:none" transform="matrix(5.02821 0 0 -5.02821 932.764 258.354)"/><path d="M0 0h-.638v.859H0v.556c0 .886.502 1.177 1.314 1.177.229 0 .448-.009.676-.027v-.894c-.082.009-.164.009-.247.009-.355 0-.484-.109-.484-.392V.859h.731V0h-.731v-4.052H0Z" style="fill:#034ea1;fill-opacity:1;fill-rule:nonzero;stroke:none" transform="matrix(5.02821 0 0 -5.02821 959.828 262.673)"/><path d="M0 0h1.205v-.657h.019c.255.474.61.785 1.131.785.073 0 .155-.01.229-.02v-1.204c-.128.01-.266.019-.393.019-.438 0-.931-.227-.931-.886v-2.948H0Z" style="fill:#034ea1;fill-opacity:1;fill-rule:nonzero;stroke:none" transform="matrix(5.02821 0 0 -5.02821 974.777 258.354)"/><path d="M0 0a1.588 1.588 0 0 0-.539-.246c-.511-.11-.711-.356-.711-.794 0-.375.136-.685.474-.685.338 0 .776.22.776.758zm-2.301.949v.119c0 1.132.777 1.516 1.725 1.516 1.497 0 1.781-.622 1.781-1.508v-2.581c0-.457.026-.667.154-.95H.154C.072-2.3.036-2.109 0-1.943h-.019c-.292-.512-.648-.64-1.251-.64-.876 0-1.186.75-1.186 1.406 0 .922.374 1.296 1.242 1.533l.712.192c.374.101.502.247.502.574 0 .376-.166.603-.584.603-.384 0-.584-.256-.584-.639V.949Z" style="fill:#034ea1;fill-opacity:1;fill-rule:nonzero;stroke:none" transform="matrix(5.02821 0 0 -5.02821 1004.328 270.701)"/><path d="M0 0v-.165c0-.428.229-.711.658-.711.383 0 .638.191.638.584 0 .319-.21.465-.456.557l-.885.319c-.693.247-1.05.676-1.05 1.369 0 .812.512 1.48 1.807 1.48 1.141 0 1.68-.513 1.68-1.398v-.201H1.26c0 .494-.146.739-.557.739-.32 0-.593-.181-.593-.529 0-.236.128-.438.548-.575l.757-.255C2.208.949 2.501.547 2.501-.191c0-1.032-.767-1.543-1.825-1.543-1.414 0-1.808.621-1.808 1.56V0Z" style="fill:#034ea1;fill-opacity:1;fill-rule:nonzero;stroke:none" transform="matrix(5.02821 0 0 -5.02821 1022.253 274.968)"/><path d="M0 0h1.259v-1.404h.731v-.859h-.731v-2.655c0-.384.083-.539.448-.539.1 0 .2.008.283.018v-.876c-.274-.026-.53-.055-.822-.055C.182-6.37 0-6.068 0-5.073v2.81h-.639v.859H0Z" style="fill:#034ea1;fill-opacity:1;fill-rule:nonzero;stroke:none" transform="matrix(5.02821 0 0 -5.02821 1042.113 251.293)"/><path d="M0 0h1.205v-.657h.018c.256.474.611.785 1.131.785.074 0 .156-.01.229-.02v-1.204c-.128.01-.265.019-.393.019-.438 0-.93-.227-.93-.886v-2.948H0Z" style="fill:#034ea1;fill-opacity:1;fill-rule:nonzero;stroke:none" transform="matrix(5.02821 0 0 -5.02821 1057.067 258.354)"/><path d="M0 0h-.019c-.264-.485-.72-.703-1.251-.703-.784 0-1.25.429-1.25 1.397v3.641h1.26V.948c0-.492.164-.683.538-.683.43 0 .666.263.666.811v3.259h1.261V-.576H0Z" style="fill:#034ea1;fill-opacity:1;fill-rule:nonzero;stroke:none" transform="matrix(5.02821 0 0 -5.02821 1087.76 280.151)"/><path d="M0 0c0 .476-.092.986-.566.986-.621 0-.721-.548-.721-1.678 0-1.215.11-1.717.676-1.717.419 0 .611.356.611 1.15h1.205c0-1.287-.539-2.008-1.872-2.008-1.259 0-1.879.612-1.879 2.583 0 2.017.83 2.584 1.989 2.584 1.159 0 1.762-.74 1.762-1.9z" style="fill:#034ea1;fill-opacity:1;fill-rule:nonzero;stroke:none" transform="matrix(5.02821 0 0 -5.02821 1112.665 267.261)"/><path d="M0 0h1.26v-1.404h.73v-.859h-.73v-2.655c0-.384.082-.539.447-.539.1 0 .2.008.283.018v-.876c-.274-.026-.53-.055-.822-.055C.183-6.37 0-6.068 0-5.073v2.81h-.639v.859H0Z" style="fill:#034ea1;fill-opacity:1;fill-rule:nonzero;stroke:none" transform="matrix(5.02821 0 0 -5.02821 1126.142 251.293)"/><path d="M0 0h-.019c-.264-.485-.72-.703-1.25-.703-.785 0-1.251.429-1.251 1.397v3.641h1.26V.948c0-.492.165-.683.538-.683.43 0 .667.263.667.811v3.259h1.26V-.576H0Z" style="fill:#034ea1;fill-opacity:1;fill-rule:nonzero;stroke:none" transform="matrix(5.02821 0 0 -5.02821 1153.765 280.151)"/><path d="M0 0h1.205v-.657h.018c.256.474.611.785 1.131.785.074 0 .156-.01.229-.02v-1.204c-.128.01-.265.019-.393.019-.438 0-.93-.227-.93-.886v-2.948H0Z" style="fill:#034ea1;fill-opacity:1;fill-rule:nonzero;stroke:none" transform="matrix(5.02821 0 0 -5.02821 1166.785 258.354)"/><path d="M0 0c-.027.749-.119 1.167-.639 1.167-.502 0-.648-.52-.648-.977V0Zm-1.287-.749v-.392c0-.575.156-1.141.62-1.141.42 0 .595.32.667.921h1.132C1.086-2.5.539-3.14-.648-3.14c-1.825 0-1.898 1.406-1.898 2.629 0 1.314.255 2.538 1.954 2.538 1.468 0 1.797-.987 1.797-2.493v-.283z" style="fill:#034ea1;fill-opacity:1;fill-rule:nonzero;stroke:none" transform="matrix(5.02821 0 0 -5.02821 1196.694 267.9)"/><path d="M0 0v-.192c0-.611.173-1.003.866-1.003.403 0 .786.256.786.802C1.652.2 1.35.42.484.72c-1.169.403-1.708.886-1.708 1.973 0 1.268.777 1.915 2.017 1.915 1.169 0 2.018-.5 2.018-1.751v-.182h-1.26c0 .611-.21.967-.712.967-.593 0-.748-.374-.748-.757 0-.402.118-.649.675-.886l1.014-.438C2.765 1.132 3.021.63 3.021-.164c0-1.378-.84-1.999-2.264-1.999-1.488 0-2.072.694-2.072 1.898V0Z" style="fill:#034ea1;fill-opacity:1;fill-rule:nonzero;stroke:none" transform="matrix(5.02821 0 0 -5.02821 1228.068 272.812)"/><path d="M0 0a1.58 1.58 0 0 0-.539-.246c-.511-.11-.712-.356-.712-.794 0-.375.137-.685.475-.685.338 0 .776.22.776.758zm-2.3.949v.119c0 1.132.776 1.516 1.725 1.516 1.496 0 1.78-.622 1.78-1.508v-2.581c0-.457.026-.667.154-.95H.154C.073-2.3.036-2.109 0-1.943h-.019c-.292-.512-.648-.64-1.25-.64-.877 0-1.186.75-1.186 1.406 0 .922.373 1.296 1.241 1.533l.712.192c.374.101.502.247.502.574 0 .376-.165.603-.584.603-.384 0-.584-.256-.584-.639V.949Z" style="fill:#034ea1;fill-opacity:1;fill-rule:nonzero;stroke:none" transform="matrix(5.02821 0 0 -5.02821 1260.639 270.701)"/><path d="M0 0h-.639v.859H0v.556c0 .886.502 1.177 1.314 1.177.228 0 .448-.009.676-.027v-.894c-.083.009-.164.009-.247.009-.356 0-.484-.109-.484-.392V.859h.731V0h-.731v-4.052H0Z" style="fill:#034ea1;fill-opacity:1;fill-rule:nonzero;stroke:none" transform="matrix(5.02821 0 0 -5.02821 1275.309 262.673)"/><path d="M0 0c-.027.749-.119 1.167-.639 1.167-.502 0-.648-.52-.648-.977V0Zm-1.287-.749v-.392c0-.575.156-1.141.621-1.141.419 0 .594.32.666.921h1.132C1.086-2.5.539-3.14-.647-3.14c-1.826 0-1.899 1.406-1.899 2.629 0 1.314.255 2.538 1.954 2.538 1.468 0 1.797-.987 1.797-2.493v-.283z" style="fill:#034ea1;fill-opacity:1;fill-rule:nonzero;stroke:none" transform="matrix(5.02821 0 0 -5.02821 1302.144 267.9)"/><path d="M0 0h1.26v-1.404h.73v-.859h-.73v-2.655c0-.384.082-.539.448-.539.1 0 .2.008.282.018v-.876c-.274-.026-.53-.055-.822-.055C.183-6.37 0-6.068 0-5.073v2.81h-.639v.859H0Z" style="fill:#034ea1;fill-opacity:1;fill-rule:nonzero;stroke:none" transform="matrix(5.02821 0 0 -5.02821 1315.625 251.293)"/><path d="M0 0c.109-.019.22-.027.329-.027.465 0 .639.256.675.694l-1.379 4.91H.94l.73-3.396h.018l.64 3.396h1.258L2.401.995C1.962-.703 1.68-.94.511-.94H0Z" style="fill:#034ea1;fill-opacity:1;fill-rule:nonzero;stroke:none" transform="matrix(5.02821 0 0 -5.02821 1330.577 286.397)"/></svg>