<svg xmlns="http://www.w3.org/2000/svg" width="740.95435" height="429.38879"><path fill="#9c8d3b" d="M49.625 640.669v.008zM17.65 509.53c-2.227-4.874-15.785-23.191-41.583-23.63-30.396.513-41.855 25.407-42 25.844l-35.472 95.703c-2.917 7.787-2.016 20.259 4.548 26.848 4.932 4.961 12.244 8.039 19.031 8.039 2.35 0 4.631-.356 7.044-1.128l67.533-26.579c6.651-2.594 10.274-10.018 8.097-16.446-1.074-3.54-4.755-9.526-11.901-9.526-1.578 0-3.243.306-4.953.95l-60.95 22.738c.414-1.45 1.05-3.152 1.488-4.276l31.619-86.21c.053-.078 4.953-8.836 15.59-8.993 7.948 0 12.823 3.722 14.884 5.82.463.517 1.326 2.058 1.768 3.173l43.71 113.871c1.991 5.164 7.787 9.051 13.52 9.051l.658-.062c1.404-.194 8.679-1.466 11.876-6.49 1.496-2.375 1.839-5.16.88-8.262zM293.637 640.669v.008zm13.376-10.704L261.679 509.53c-2.222-4.874-15.788-23.191-41.587-23.63-25.76.439-39.252 19.177-42.016 25.844l-35.481 95.703c-2.896 7.816-1.97 20.259 4.573 26.848 4.961 4.961 12.248 8.039 19.027 8.039 2.36 0 4.61-.356 6.998-1.128l67.588-26.579c6.663-2.61 10.265-10.05 8.063-16.446-1.053-3.54-4.775-9.526-11.901-9.526-1.574 0-3.243.306-4.95.95l-60.927 22.721c.442-1.433 1.074-3.135 1.491-4.259l31.66-86.23c.029-.091 4.862-8.816 15.566-8.973 7.53 0 12.277 3.23 14.83 5.854.516.512 1.347 2.024 1.789 3.14l43.726 113.87c1.991 5.164 7.795 9.051 13.509 9.051l.656-.062c1.4-.194 8.692-1.466 11.865-6.49 1.503-2.375 1.846-5.16.855-8.262M-115.748 632.921l-74.83-57.272c1.959-1.553 3.967-3.363 6.065-5.412 10.237-10.034 67.678-66.98 67.678-66.98.269-.248.484-.537.649-.838 1.413-2.367 1.578-4.511.52-6.362-1.615-2.85-5.031-2.85-6.514-2.85l-2.148.037c-.48 0-.942 0-2.062-.128h-10.484l-1.087-.025c-6.275 0-9.071 2.701-10.125 4.21l-59.193 57.916c-3.44 2.76-10.765 4.35-20.11 4.35h-.813v-57.822c-.26-4.804-3.735-8.026-8.667-8.026h-11.749c-4.932 0-8.39 3.247-8.658 8.299l.02 134.716c.31 4.685 3.764 7.82 8.593 7.82h11.872c4.941 0 8.399-3.268 8.589-8.295l.165-50.076c2.793-.02 6.444-.087 8.89-.186l73.474 54.178c1.227 1.293 4.623 4.148 10.852 4.532l10.402.07h.025c.099 0 .206 0 .305-.02 3.268-.26 7.77-.591 9.692-4.012.743-1.326 1.305-3.507-.178-6.428a4.3 4.3 0 0 0-1.173-1.396M108.516 493.941H96.73c-4.915 0-8.398 3.218-8.638 8.246v134.749c.372 4.614 3.789 7.766 8.601 7.84h11.951c4.87-.074 8.3-3.341 8.551-8.32l-.02-134.55c-.232-4.771-3.71-7.965-8.659-7.965" style="stroke-width:4.131" transform="translate(259.072 -307.08)"/><path d="M364.238 673.16v3.45h-18.611v7.197h8.605c-1.392 1.664-2.093 3.374-2.093 5.117-.042 4.164 2.784 7.304 8.472 9.32 2.677.95 5.613 1.43 8.778 1.43 6.75 0 11.77-1.748 14.992-5.313 1.5-1.64 2.275-3.471 2.346-5.363 0-1.966-.747-3.65-2.28-5.191h8.522v-4.43c-.199-1.099-.938-1.842-.938-1.842-.71-.71-1.908-.868-2.597-.926h-14.98v-1.722a2.369 2.369 0 0 0-.55-1.16c-.417-.397-1.074-.488-1.508-.567zm62.64.153c-7.299.078-12.7 2.48-16.32 7.314-1.693 2.293-2.548 4.694-2.548 7.193 0 5.548 3.204 9.662 9.463 12.393 2.904 1.26 6.027 1.892 9.406 1.892 7.25 0 12.72-2.36 16.285-7.123 1.731-2.247 2.582-4.638 2.582-7.162 0-2.499-.851-4.9-2.582-7.193-1.76-2.43-4.06-4.188-6.828-5.32-3.123-1.314-6.284-1.995-9.457-1.995zm-338.33.09v3.357H72.968v7.324h6.783c-3.433 2.565-5.143 5.69-5.143 9.234 0 2.47.88 4.832 2.586 7.133 1.71 2.33 4.016 4.177 6.928 5.483 2.896 1.367 6.059 2.04 9.467 2.04 7.34 0 12.836-2.512 16.525-7.523 1.69-2.3 2.524-4.705 2.524-7.25.02-3.358-1.405-6.203-4.301-8.53-.26-.19-.546-.397-.785-.587h6.916v-4.057c-.091-.681-.166-1.068-.166-1.068-.636-1.702-2.213-2.1-3.069-2.2H98.785v-1.452c0-1.888-2.023-1.905-2.023-1.905zm-39.263 1.648v36.312h-5.56v-31.97c0-.922-.215-1.499-.215-1.499-.657-1.784-2.434-2.15-3.227-2.162H7.163v7.395h26.321v28.236h-8.931v-13.181c-.046-.95-.198-1.555-.198-1.555-.61-1.562-1.95-2.02-2.83-2.164h-7.183v16.9H3.877v7.414h45.408v15.43h10.25v-42.16h7.361v-2.871c0-.075-.021-.15-.021-.336 0-1.178-.164-1.928-.164-1.928-.756-1.942-2.694-2.178-3.408-2.178h-3.768v-6.394c-.09-.748-.2-1.137-.2-1.137-.606-1.603-2.047-2.053-2.923-2.152zm69.42 0v33.209h10.236v-17.403h7.409v-4.515c-.033-.488-.137-.793-.137-.793-.632-1.537-1.967-2-2.856-2.133h-4.416v-5.262c-.066-.599-.152-.95-.152-.95-.607-1.604-2.058-2.054-2.934-2.153zm69 .097v59.194h10.207v-56.248c-.198-1.202-1.008-1.965-1.008-1.965-.756-.822-2.124-.94-2.718-.98zm131.87 0v41.86h10.28V678.02c-.223-1.14-.986-1.893-.986-1.893-.772-.822-2.153-.937-2.744-.979zm131.302 0v28.48h-45.63v7.333h18.733v8.935h10.069v-8.935h16.828v1.078H439.38v6.49h11.496v2.024h10.08v-42.46c-.198-1.201-.986-1.964-.986-1.964-.765-.822-2.13-.94-2.74-.98zm-217.283.325-23.211 23.08h12.008l10.216-9.63c10.17 1.554 17.073 4.755 20.795 9.63h10.854c-5.106-8.316-13.316-13.628-24.486-15.942-.471-.136-.95-.257-1.42-.343l7.212-6.795zm-290.065.273v19.793c.327 2.528 2.016 3.791 5.073 3.791h13.773v2.367h-23.527v7.198h57.177v-4.223c-.181-1.227-.97-2.024-.97-2.024-.773-.739-2.036-.876-2.672-.95h-19.776v-2.368h18.92v-6.592h-37.95v-1.847H-8.81v-6.569h-37.615v-1.97h37.951v-3.483c-.157-1.318-1.025-2.135-1.025-2.135-1.041-1-3.031-.955-3.031-.955h-2.93l.037-.033zm200.592.053v7.469h26.154v31.689h10.248v-36.291c-.21-1.132-1-1.904-1-1.904-.987-1.017-3.043-.918-3.043-.918h-2.918l.07-.045zm131.89 0v7.469h12.518l-14.177 23.638h10.765l6.447-11.05c7.164 2.18 11.154 5.829 12.034 11.05h10.453c-1.512-8.799-7.515-15.14-18.045-18.96l3.213-4.678h14v-4.473c-.157-1.24-.946-2.033-.946-2.033-.784-.79-2.11-.918-2.76-.963zm-529.667.002v7.469h36.113v16.283h-41.53v7.308h23.56v3.479h-18.448v7.332h36.815v16.67h10.21v-21.024c-.177-1.21-1.001-2.007-1.001-2.007-1.033-1.041-3.038-.971-3.038-.971h-14.343v-3.479h23.453v-5.638c-.132-.682-.596-1.137-.596-1.137-.458-.48-1.36-.533-1.644-.533h-3.221v-20.684c-.161-1.276-1.03-2.11-1.03-2.11-1.028-1.011-3.037-.958-3.037-.958h-2.904zm131.937 0v7.469h36.063v29.722h-5.928v-13.826c-.132-1.24-1.008-2.137-1.008-2.137-.743-.735-2.056-.884-2.713-.884h-6.205v16.847h-5.46v-13.947c-.154-1.21-.975-2.016-.975-2.016-.798-.735-2.059-.884-2.703-.884h-6.098v16.847h-9.434v7.192h55.198v-5.82c-.087-.554-.46-.942-.46-.942-.284-.269-.726-.43-1.007-.43h-2.961V678.63a4.18 4.18 0 0 0-.985-1.895c-.656-.656-1.729-.855-2.431-.933zm-66.793.115v27.295c.364 2.549 2.03 3.766 5.078 3.766h13.893v5.882h-22.772v7.32h55.551v-4.398c-.231-1.194-1.021-1.97-1.021-1.97-1.02-1.033-3.024-.952-3.024-.952h-18.519v-5.882h18.846v-7.163h-37.766v-4.83h37.44v-7.166h-37.44v-4.69h37.766v-4.155l-.045.025c-.137-1.256-.985-2.107-.985-2.107-.735-.765-2.04-.93-2.676-.975zm615.39 4.647c3.496 0 6.115 1.239 7.892 3.697.797 1.107 1.203 2.358 1.203 3.605 0 2.685-1.447 4.71-4.43 6.04-1.38.631-2.866.966-4.568.966-3.545 0-6.214-1.152-8.002-3.486-.773-1.136-1.182-2.309-1.182-3.565 0-2.891 1.483-4.962 4.527-6.267 1.558-.67 3.09-.99 4.56-.99zm-57.556 3.17c3.074 0 5.352.746 6.752 2.316.702.743 1.072 1.487 1.072 2.305-.086 1.656-1.337 2.896-3.757 3.648-1.26.384-2.6.574-4.067.574-3.077 0-5.295-.697-6.683-2.127-.703-.677-1.07-1.422-1.07-2.244 0-1.785 1.29-3.052 3.81-3.883 1.272-.38 2.576-.59 3.943-.59zM93.721 686.19c3.507 0 6.118 1.198 7.931 3.668.818 1.161 1.23 2.367 1.23 3.627-.032 2.768-1.622 4.843-4.646 6.198-1.38.611-2.871.916-4.515.916-3.52 0-6.115-1.177-7.924-3.573-.855-1.09-1.3-2.252-1.3-3.54 0-2.897 1.552-4.991 4.642-6.317a10.991 10.991 0 0 1 4.582-.979zm115.127 13.805v7.324h23.53v2.034H213.96v6.724h37.125v2.174h-37.125v12.021c.128 2.467 1.773 3.727 4.908 3.727h42.528v-3.682c-.153-1.26-1.02-2.086-1.02-2.086-1.029-1.02-3.045-.945-3.045-.945h-33.324v-2.293h36.98v-12.603c-.148-1.248-.992-2.1-.992-2.1-.74-.715-1.9-.888-2.557-.937H242.6v-2.034h23.455v-4.25c-.133-1.264-1.053-2.13-1.053-2.13-.678-.728-1.888-.91-2.545-.944zm131.941 1.32v7.436h57.2v-4.568c-.216-1.19-.985-1.934-.985-1.934-.71-.719-1.917-.876-2.586-.934zm-373.348 8.954c-7.126 0-12.453 2.209-15.96 6.62-1.69 2.128-2.497 4.298-2.497 6.579 0 5.002 3.11 8.752 9.27 11.263 2.826 1.14 5.9 1.737 9.187 1.737 7.176 0 12.464-2.177 15.938-6.461 1.64-2.033 2.496-4.226 2.496-6.54 0-2.28-.856-4.45-2.496-6.577-1.706-2.177-3.907-3.783-6.65-4.907-3.09-1.123-6.16-1.714-9.288-1.714zm401.95 0c-7.168 0-12.451 2.209-15.938 6.62-1.673 2.128-2.527 4.298-2.527 6.579 0 5.002 3.11 8.752 9.277 11.263 2.83 1.14 5.9 1.737 9.188 1.737 7.134 0 12.468-2.177 15.93-6.461 1.648-2.033 2.515-4.226 2.515-6.54 0-2.28-.867-4.45-2.516-6.577-1.73-2.177-3.932-3.783-6.683-4.907-3.057-1.123-6.156-1.714-9.246-1.714zm-286.147.554v7.305h35.461v16.082h10.236v-20.182a7.156 7.156 0 0 0-.152-.92c-.9-2.354-3.64-2.248-3.64-2.248l.285-.037zm201.406 1.774v17.408c.26 2.429 2.028 3.678 5.246 3.678h40.834v-4.4c-.152-1.26-1.033-2.106-1.033-2.106-.657-.649-1.708-.897-2.398-.93h-32.393V715.52c-.186-1.19-1.02-1.967-1.02-1.967-.69-.736-1.909-.91-2.566-.955zm124.32 4.09v13.17c.331 2.552 2.039 3.826 5.075 3.826h46.935v-4.323a3.72 3.72 0 0 0-1.011-2.04c-.74-.777-2.082-.925-2.694-.958h-38.244v-6.709c-.153-1.214-.984-2.033-.984-2.033-.752-.772-2.14-.913-2.723-.933zm-441.529.716c3.305 0 5.78 1.036 7.428 3.035.719.975 1.096 1.993 1.096 3.03-.033 2.243-1.47 3.87-4.276 5.002a13.01 13.01 0 0 1-4.248.74c-3.288 0-5.724-.98-7.418-2.863-.772-.946-1.125-1.892-1.125-2.912 0-2.38 1.419-4.12 4.286-5.227a11.58 11.58 0 0 1 4.257-.805zm401.95 0c3.33 0 5.758 1.036 7.406 3.035.772.975 1.096 1.993 1.096 3.03-.021 2.243-1.447 3.87-4.23 5.002-1.36.467-2.793.74-4.272.74-3.289 0-5.767-.98-7.432-2.863-.748-.946-1.12-1.892-1.12-2.912 0-2.38 1.426-4.12 4.302-5.227a11.684 11.684 0 0 1 4.25-.805z" style="fill:#808285;fill-opacity:1;stroke-width:4.131" transform="translate(259.072 -307.08)"/><path d="M249.916 307.08c-85.393.086-146.896 47.025-147.709 47.684-10.128 8.393-14.532 17.82-15.666 23.515-.773 2.444-.918 4.766-.281 6.895 1.04 3.424 4.35 7.49 14.21 7.63 5.71.067 12.86-1.246 20.692-3.689-3.364 8.822-3.52 17.66-.264 25.2 4.3 9.996 14.038 16.826 27.385 19.23 3.222.566 6.585.87 10.014.908 27.64.304 56.877-16.246 68.79-38.71 1.05.483 2.118.952 3.222 1.396 3.735 1.503 7.653 2.722 11.67 3.666-5.182 9.792-6.232 21.372-2.909 32.85 4.726 16.23 17.359 30.535 34.717 39.255 10.303 5.18 21.559 7.986 32.547 8.106 21.39.231 39.593-9.658 47.582-25.827.314-.638.6-1.284.879-1.931a96.59 96.59 0 0 0 8.992 6.978 26.934 26.934 0 0 0-1.572 2.364c-11.716 19.932-2.22 56.771 20.762 80.5 10.629 10.96 22.224 17.073 32.668 17.2 6.068.062 11.355-1.865 15.544-5.482 6.115 13.953 15.077 22.84 24.444 22.94.83.008 1.668-.06 2.498-.192 5.319-.855 9.896-4.605 13.414-10.437 7.905-10.014 11.857-24.324 9.797-44.424-8.898-86.338-57.818-158.486-131.131-192.922-35.396-16.636-69.408-22.734-100.295-22.703Zm6.549 10.643c3.58.105 7.201.299 10.857.586 2.023.724 2.408 1.425 2.426 1.437.062.128.226.462-.166 1.275-.612 1.28-2.031 2.758-4.13 4.336a88.259 88.259 0 0 0-5.173-.216 89.013 89.013 0 0 0-5.66.13c.905-.838 1.615-1.69 2.053-2.556.93-1.805.624-3.317.203-4.242a4.863 4.863 0 0 0-.41-.75zm-13.975 1.22c6.882.079 9.317 1.26 9.59 1.276-.35 1.273-4.161 4.008-11.646 6.967-4.607 1.03-8.976 2.439-13.01 4.181-2.01.529-4.123 1.05-6.389 1.547-9.753 2.148-19.07 3.275-26.258 3.176-6.857-.062-9.293-1.247-9.54-1.3.395-1.566 5.886-5.022 15.642-8.41-1.395 1.119-2.214 2.366-2.045 3.73.392 3.106 4.591 3.503 7.764 3.544 3.83.033 8.803-.546 14.04-1.67 2.632-.566 15.76-3.577 18.14-7.894.47-.851.583-1.78.273-2.627-.39-1.096-1.304-1.85-2.793-2.322 2.205-.147 4.303-.22 6.232-.198zm33.512.21c3.19.376 6.408.838 9.646 1.367-.712.61-1.347 1.28-1.888 2.015-1.203 1.61-1.939 3.485-2.235 5.543a79.556 79.556 0 0 0-7.976-1.762c.699-.856 1.259-1.709 1.664-2.554.833-1.776.966-3.33.789-4.61zm21.193 3.568a223.353 223.353 0 0 1 18.225 4.79c-7.39-.013-10.78 2.631-12.33 4.895-.968 1.411-1.512 3.068-1.61 4.893-4.065-2.861-8.742-5.317-13.873-7.246.005-1.477.383-2.711 1.127-3.735 1.457-1.954 4.415-3.184 8.461-3.597zm-65.797.027c1.231.017 2.1.078 2.7.156-2.012 1.31-6.818 3.352-14.336 4.967-4.862 1.033-9.628 1.61-13.127 1.568a20.014 20.014 0 0 1-2.694-.181c2.115-1.335 7.134-3.449 14.838-5.043 4.648-.975 9.244-1.5 12.62-1.467zm-49.535 7.88c-.148.17-.3.338-.431.509-.108-.063-.212-.127-.325-.188.252-.107.499-.213.756-.32zm72.545.968c-7.884 3.585-18.5 7.187-31.34 10.052-.718.161-1.432.3-2.148.454 8.547-6.003 20.52-9.755 33.488-10.506zm12.76.238c4.72.453 9.29 1.306 13.635 2.594.41.12.808.254 1.213.38.46 1.753 1.16 3.573 2.084 5.446a45.149 45.149 0 0 0-8.1-3.328c-4.306-1.296-8.848-2.06-13.555-2.264 1.715-.933 3.306-1.877 4.723-2.828zm48.459.928c8.485.103 20.374 4.151 31.812 10.88 19.123 11.229 29.162 25.118 26.225 30.538-.877 1.6-3.027 2.585-6.135 2.884-4.588-1.37-9.084-2.127-13.334-2.173-.54-.006-1.07.008-1.597.025-6.068-1.868-12.7-4.832-19.203-8.648-8.001-4.694-14.167-9.65-18.557-14.239-1.65-3.25-3.935-6.334-6.752-9.177-.577-1.185-.996-2.295-1.213-3.288-.384-1.726-.23-3.13.492-4.158 1.182-1.751 4.143-2.694 8.262-2.644zm-143.19 2.511c3.838.153 6.476 1.113 7.266 2.659.434.85.435 2.05-.049 3.57-.4 1.26-1.14 2.704-2.168 4.277-4.502-.5-7.568-1.374-9.365-2.324a5.861 5.861 0 0 0-.549-2.45 5.743 5.743 0 0 0-.752-1.163c.912-1.318 2.82-2.88 5.618-4.569zm-10.683 1.063c-.206.293-.417.585-.59.883a17.281 17.281 0 0 0-1.76-.104c-.391-.005-.8.005-1.215.022a79.256 79.256 0 0 1 3.565-.801zm128.144 1.516c9.506 4.45 16.701 10.92 19.932 18.205a21.93 21.93 0 0 1 1.613 5.218c-10.16-7.986-17.905-16.341-21.545-23.423zm39.668.119c-4.614-.054-6.73 1.722-7.671 3.234-.938 1.458-1.185 3.284-.698 5.275 1.178 5.053 6.816 11.08 14.682 15.727 6.093 3.644 12.428 5.759 17.332 5.809 4.82.053 6.917-1.844 7.838-3.46 3.433-6.018-4.697-15.204-14.104-20.81-6.105-3.615-12.446-5.73-17.379-5.775zm-115.718 1.672c-.128.11-.267.213-.393.324a41.072 41.072 0 0 0-4.232 4.287c-3.543.545-7.01.985-10.352 1.305a58.775 58.775 0 0 0-3.086-.278c-3.613-.233-7.298-.136-11.004.24.326-.714.6-1.415.817-2.1.322-1.01.518-1.982.611-2.923 3.172.804 6.739.849 8.516.871 5.457.054 12.06-.554 19.123-1.726zm46.607.207c4.916.074 9.63.769 14.025 2.103 9.072 2.793 15.9 8.084 18.288 14.186 1.445 3.804 1.12 7.58-1.02 11.273-2.137 3.659-5.829 6.751-10.486 9.045-5.985.632-11.616 2.073-16.723 4.24a51.604 51.604 0 0 1-3.898.12c-5.875-.067-11.772-1.143-17.043-3.118-5.194-1.968-9.367-4.656-12.225-7.783a27.977 27.977 0 0 0-2.906-7.3 28.274 28.274 0 0 0-1.373-2.15c-.173-3.943 1.561-7.878 4.998-11.247 2.597-2.532 6.074-4.632 10.097-6.201 1.34-.43 2.645-.87 3.922-1.315 4.428-1.25 9.323-1.906 14.344-1.853zm69.057 2.326c4.176.041 9.897 1.987 15.334 5.209 9.662 5.758 13.913 12.755 12.6 15.056-.496.889-2.04 1.398-4.176 1.377-4.156-.05-9.873-1.991-15.31-5.238-7.712-4.569-11.967-9.865-12.731-13.092-.199-.85-.141-1.54.152-2.011.537-.856 2.045-1.326 4.13-1.301zm-170.174.19c.233.002.437.015.642.027.174 1.46.787 2.817 1.807 4.011-1.736 2.63-5.497 6.5-11.553 10.826l-.224.133c2.23-2.714 3.25-5.466 2.207-7.808-.657-1.43-2.301-3.14-6.424-3.194-1.319-.012-2.8.162-4.375.48 7.109-2.861 13.565-4.525 17.92-4.476zm101.369 2.26c-7.138-.09-13.571 2.243-17.182 6.233-2.57 2.797-3.506 6.169-2.68 9.494 1.054 4.305 4.923 7.92 10.62 9.932 2.896 1.037 6.016 1.586 9.242 1.62 7.91.098 14.856-2.823 18.156-7.628 1.917-2.734 2.378-5.898 1.39-8.91-1.433-4.172-5.497-7.604-11.173-9.422a28.03 28.03 0 0 0-8.373-1.318zm-33.928 2.63c-2.1 2.499-3.547 5.212-4.299 8.033-2.39-2.137-5.165-3.966-8.267-5.459a220.506 220.506 0 0 0 10.197-2.018c.803-.179 1.579-.37 2.37-.556zm137.008 1.537c.89.526 1.778 1.058 2.66 1.596 18.616 14.267 27.892 28.842 24.596 35.316-.418.82-1.062 1.53-1.9 2.135-4.54-3.195-9.213-5.844-13.875-7.904 1.434-.99 2.359-2.145 2.939-3.217 4.12-7.552-3.231-18.482-14.42-27.926zm-103.125.039c2.495.033 4.9.405 7.143 1.12 4.374 1.383 7.538 3.925 8.484 6.767.566 1.755.313 3.482-.848 5.172-2.474 3.585-8.249 5.886-14.693 5.816a24.55 24.55 0 0 1-7.91-1.393c-4.276-1.5-7.276-4.118-7.957-6.972-.492-1.946.087-3.883 1.71-5.635 2.806-3.078 8.197-4.95 14.071-4.875zm-94.642.604c.153.07.3.146.459.214-.263.092-.526.176-.788.27.111-.161.224-.324.329-.484zm-20.26 1.138c1.702.008 2.533.446 2.644.727.579 1.235-2.875 6.51-12.062 11.129-4.615 2.313-9.284 3.69-12.54 3.644-1.776 0-2.57-.46-2.685-.74-.479-1.264 3.038-6.559 12.076-11.115 4.602-2.314 9.29-3.707 12.567-3.645zm53.062 1.326c1.746.223 3.432.53 5.051.92-1.285 3.058-2.02 6.232-2.162 9.463-3.672-2.085-8.138-3.402-13.135-3.797-5.017-.392-10.241.136-15.365 1.422 2.718-2.48 5.076-4.94 7.008-7.326.331-.06.663-.122.994-.178a96.65 96.65 0 0 0 3.746.121c4.274.044 8.943-.171 13.863-.625zm11.04 2.864c5.592 2.34 10 5.855 12.783 10.314.513 1.74 1.296 3.416 2.306 5.018 1.578 5.119 1.28 10.926-.836 16.968-5.29-3.186-9.445-6.957-12.217-11.103a18.85 18.85 0 0 0-3.445-7.828c-.093-.406-.193-.811-.262-1.22-.676-4.126-.084-8.241 1.67-12.15zm-41.216.89c-6.476 5.845-15.67 12.303-27.542 18.39-1.511.776-3.019 1.509-4.52 2.22 8.181-8.994 19.734-16.315 32.062-20.61zm-47.546 1.934c-3.175 3.153-4.924 6.492-3.84 9.275.483 1.26 1.97 3.37 6.49 3.42.693.007 1.44-.049 2.207-.135-6.367 2.405-12.073 3.767-16.018 3.725-2.387-.045-3.433-.587-3.548-.934-.609-1.936 4.223-8.277 14.709-15.351zm177.62 1.137c3.686 3.473 7.895 6.937 12.5 10.318a22.452 22.452 0 0 1-1.599 4.55 28.149 28.149 0 0 1-2.988 4.907c-5.108-1.343-10.306-2.145-15.469-2.355 2.047-1.823 3.774-3.849 5.07-6.069 2.124-3.642 2.95-7.501 2.487-11.351zm19.083 3.101c3.826 3.145 8.185 6.196 12.947 8.998a104.307 104.307 0 0 0 11.902 6.012 24.852 24.852 0 0 0-3.672 1.744c-3.29-1.631-6.599-3.412-9.894-5.334a159.947 159.947 0 0 1-11.178-7.168c.08-1.416.046-2.835-.105-4.252zm-132.076 1.799c.81.008 1.623.05 2.445.115 5.87.455 10.784 2.366 14.129 5.381.798 3.772 2.4 7.385 4.728 10.762-.023 3.066-.905 6.366-2.652 9.726-6.85 13.174-25.005 23.377-41.281 23.207a36.558 36.558 0 0 1-5.092-.408c-7.395-1.148-12.745-4.606-15.059-9.728-2.367-5.123-1.482-11.426 2.434-17.746 7.605-12.323 24.964-21.478 40.348-21.309zm-81.528 1.887c-2.45 3.253-3.6 6.358-2.793 9.01.67 2.057 2.634 4.53 8.467 4.587 5.119.057 12.32-1.751 20.242-4.968a60.53 60.53 0 0 0-4.386 5.982c-.21.328-.4.66-.6.988-9.462 3.51-18.098 5.444-24.568 5.37-2.235-.025-7.5-.372-8.327-3.124-.977-3.29 3.21-10.084 11.965-17.845zm289.8 4.804a218.59 218.59 0 0 1 15.96 15.028c-1.413-.1-2.746.063-3.97.533-1.72.644-4.142 2.214-5.63 5.898-.522 1.251-.909 2.685-1.177 4.26a93.081 93.081 0 0 0-4.91-4.31 11.992 11.992 0 0 0 2.318-3.127c2.637-5.16 1.34-11.525-2.592-18.282zm-214.427 1.188c-9.09-.125-19.043 5.212-23.431 12.637-2.475 4.184-2.925 8.472-1.23 12.07 1.78 3.701 5.481 6.081 10.48 6.738.875.103 1.762.211 2.65.211 9.336.087 19.548-5.589 23.732-13.252 2.264-4.143 2.491-8.333.682-11.799-1.892-3.647-5.94-6.006-11.078-6.505a21.808 21.808 0 0 0-1.805-.1zm137.051 1.344c2.985 2.006 6.1 3.972 9.352 5.869a172.372 172.372 0 0 0 7.66 4.201 23.165 23.165 0 0 0-2.643 3.502 25.22 25.22 0 0 0-1.297 2.45 78.05 78.05 0 0 0-8.15-4.73 76.767 76.767 0 0 0-8.629-3.695 32.926 32.926 0 0 0 2.34-4.13c.54-1.146.99-2.303 1.367-3.467zm-137.11 2.87c.472 0 .963.028 1.471.07 3.739.354 6.56 1.913 7.791 4.28 1.14 2.182.91 4.958-.66 7.82-3.747 6.858-13.828 12.025-22.156 10.893-3.594-.462-6.15-2.023-7.273-4.386-1.1-2.277-.724-5.16 1.048-8.102 3.615-6.114 12.1-10.657 19.78-10.574zm52.688 1.862c2.739 1.967 5.951 3.674 9.59 5.04 4.247 1.594 8.872 2.657 13.584 3.146-3.766 2.645-7.068 5.787-9.793 9.38-4.482-.913-8.852-2.203-12.977-3.869a64.928 64.928 0 0 1-2.908-1.261c1.59-4.236 2.427-8.417 2.504-12.436zm-90.3 3.104c-.33.48-.646.966-.95 1.457-4.841 7.89-5.83 15.953-2.736 22.728 3.086 6.78 9.817 11.306 19 12.748 1.888.277 3.832.439 5.832.46 18.366.202 38.108-10.969 45.95-26.03 1.176-2.27 2.028-4.538 2.57-6.768 2.8 2.78 6.144 5.328 9.986 7.58-10.793 20.163-38.174 35.557-63.178 35.278-3.11-.021-6.117-.284-9.03-.813-11.198-2.012-19.288-7.528-22.741-15.525-3.192-7.409-2.15-16.578 2.773-25.567a153.358 153.358 0 0 0 12.523-5.548zm212.224.505a35.55 35.55 0 0 1 2.04.086c2.338.52 4.57.868 6.661 1.028 5.973 1.396 12.253 4.072 18.414 7.847a33.83 33.83 0 0 1-2.775.092c-8.708-.103-19.927-3.028-31.819-8.125 2.587-.727 5.193-.952 7.479-.928zm-65.127 1.207c4.201.049 8.437.525 12.629 1.4-4.921 4.247-11.34 7.618-18.707 9.854a38.498 38.498 0 0 0-4.006 1.084c-5.772 1.37-12.021 2.076-18.516 2a77.988 77.988 0 0 1-7.572-.457c4.451-4.803 10.265-8.49 16.998-10.855a49.777 49.777 0 0 0 9.215-2.31 59.834 59.834 0 0 1 9.96-.716zm19.713 3.282a70.177 70.177 0 0 1 10.037 4.117 68.41 68.41 0 0 1 8.898 5.346c-.809 3.997-.861 8.324-.199 12.838-3.74-3.912-8.285-7.289-13.441-9.883a50.646 50.646 0 0 0-14.938-4.785c3.666-2.226 6.913-4.786 9.643-7.633zm30.88.168c5.553 2.59 11.027 4.753 16.276 6.447-3.38 1.417-6.055 3.81-7.806 7.084-.802 1.486-1.368 3.098-1.735 4.799-3.228-4.148-7.064-8.032-11.457-11.531a19.67 19.67 0 0 1 1.444-2.913 16.73 16.73 0 0 1 3.279-3.886zm69.82 5.74c3.499.035 8.916 3.701 15.007 10.393a225.338 225.338 0 0 1 3.645 4.765c-3.022-2.15-5.934-3.212-8.485-2.654-1.334.264-3.222 1.156-4.486 3.601-.788 1.508-1.236 3.454-1.377 5.74A92.387 92.387 0 0 0 405 402.005c-.03-3.328.355-5.969 1.102-7.777.545-1.293 1.25-2.137 2.09-2.456.363-.152.76-.202 1.218-.185zm-20.929 3.566c.627.482 1.252.967 1.872 1.471a86.926 86.926 0 0 1 8.488 7.938c.114 1.964.343 4.046.683 6.234a63.532 63.532 0 0 0-9.488-9.356 57.924 57.924 0 0 0-7.484-5.058c2.31-.222 4.264-.656 5.93-1.229zm-24.396.887c6.928.074 15.21 3.567 22.728 9.523 13.48 10.716 21.476 27.066 18.221 37.249-1.652 5.155-6.058 7.957-12.412 7.875-6.052-.062-13.196-2.773-20.078-7.635-6.304-4.452-11.562-10.082-15.31-15.914-1.126-5.427-3.191-10.79-6.135-15.893-.357-3.5.11-6.705 1.539-9.346 2.635-4.92 7.667-5.904 11.447-5.859zm-71.777 1.941c6.576.1 13.26 1.735 19.382 4.825 9.853 4.97 17.24 13.026 20.176 22.127 2.152 6.56 1.756 12.982-1.074 18.576-4.511 8.857-14.846 14.268-26.979 14.119-6.53-.058-13.248-1.742-19.408-4.828-10.179-5.123-17.61-13.423-20.406-22.783-1.979-6.763-1.356-13.288 1.887-18.907 2.244-3.918 5.63-7.068 9.8-9.306 4.79-.844 9.347-2.101 13.58-3.725 1-.066 2.01-.108 3.042-.097zm40.982 1.647c5.987 5.317 10.688 11.481 13.861 17.984a44.351 44.351 0 0 0 2.916 7.432c1.616 5.42 2.159 10.93 1.512 16.258-12.213-13.424-19.261-29.302-18.289-41.674zm-84.836 2.441c3.922.603 7.902.94 11.875.979a85.667 85.667 0 0 0 5.217-.11 28.3 28.3 0 0 0-4.184 5.553c-3.895 6.783-4.716 14.975-2.35 23.047 3.206 10.72 11.6 20.192 23.092 25.96 6.858 3.444 14.336 5.31 21.665 5.398 14.095.152 26.215-6.338 31.63-16.979 1.777-3.5 2.768-7.337 2.967-11.303 3.236 4.872 7.096 9.61 11.506 14.04a33.882 33.882 0 0 1-1.555 3.714c-6.915 13.988-22.956 22.556-41.918 22.35-10.038-.12-20.337-2.698-29.83-7.461-15.8-7.94-27.273-20.846-31.515-35.39-3.066-10.568-1.95-20.767 3.226-29.516.056-.095.117-.187.174-.282zm124.15 4.123c-4.06-.022-7.425 1.622-8.98 4.918-3.222 6.788 1.665 17.796 10.902 24.534 4.131 2.999 8.526 4.687 12.393 4.716 4.548.058 7.957-2.101 9.361-5.943 2.433-6.667-2.082-16.631-10.521-23.154-4.338-3.36-9.094-5.048-13.155-5.07zm-77.185 2.707c-7.279-.07-13.42 3.103-16.428 8.506-1.99 3.623-2.42 7.94-1.123 12.182 1.698 5.602 6.076 10.51 12.004 13.492 3.578 1.793 7.436 2.768 11.27 2.8 7.44.088 13.64-3.205 16.59-8.831 1.904-3.594 2.202-7.87.888-12.05-1.751-5.508-6.122-10.355-11.955-13.28-3.544-1.78-7.446-2.76-11.246-2.819zm125.607.297c2.49.027 7.963 4.1 14.032 12.57-1.807-1.408-3.666-2.282-5.465-2.306a4.96 4.96 0 0 0-2.127.453c-.942.405-2.203 1.328-2.934 3.344-1.532 4.011-.421 10.88 2.805 17.94 3.35 7.282 9.411 15.178 14.88 15.24a6.482 6.482 0 0 0 1.917-.352c.975-.372 2.306-1.255 3.111-3.32.653-1.649.833-3.845.592-6.352 3.617 10.095 4.6 18.29 3.148 21.676-.458 1.045-.975 1.176-1.185 1.242-.174.033-.368.07-.567.07-5.46-.066-17.336-14.189-25.074-33.01-.52-1.273-.986-2.5-1.422-3.703a63.271 63.271 0 0 0-1.455-4.36c-2.773-9.151-2.923-15.637-1.619-18.19.438-.79.81-.88 1.363-.942zm-48.449 1.014c3.19.025 7.092 1.639 10.637 4.402 6.833 5.263 10.922 13.498 9.154 18.36-.975 2.68-3.473 3.208-5.402 3.187-3-.025-6.553-1.436-9.994-3.943-7.42-5.4-11.897-14.417-9.592-19.276 1.086-2.3 3.408-2.755 5.197-2.73zm-77.2 2.92c3.178.025 6.462.854 9.433 2.35 4.841 2.416 8.427 6.374 9.84 10.806.974 3.127.788 6.169-.6 8.813-2.202 4.18-7.006 6.65-12.867 6.584-3.185-.033-6.44-.848-9.444-2.364-4.912-2.474-8.534-6.484-9.885-10.97-.987-3.169-.702-6.255.79-8.891 2.234-4.02 6.988-6.402 12.734-6.328zm111.04.697c7.99 11.266 12.577 23.51 12.139 33.408a179.215 179.215 0 0 1-3.703-7.914c-4.244-9.734-6.95-18.347-8.436-25.494zm23.11 9.846c2.06.025 6.907 3.917 10.827 12.158 3.442 7.122 3.966 12.978 3.028 15.387-.198.512-.443.82-.748.935-1.797.682-7.452-3.855-11.504-12.728-3.09-6.767-3.574-12.343-2.719-14.69.14-.363.368-.827 1.115-1.062zm-71.319 13.44a64.114 64.114 0 0 0 11.342 10.263 56.037 56.037 0 0 0 6.967 4.193 22.1 22.1 0 0 0-8.297 4.069c-.225-.15-.45-.291-.674-.444a89.846 89.846 0 0 1-10.568-8.445 42.472 42.472 0 0 0 1.23-9.637zM410.098 444a179.376 179.376 0 0 0 6.183 12.395c-1.39 2.699-3.375 4.894-5.88 6.515-3.776-3.2-7.67-5.81-11.569-7.78 5.428-1.558 9.432-5.316 11.148-10.716.044-.136.077-.277.118-.414zm14.537 5.484c5.07 9.364 11.27 17.75 17.082 22.079-1.999.703-3.891 1.836-5.649 3.357-4.209-5.067-8.613-11.463-12.847-18.895.186-.538.368-1.078.523-1.638.432-1.57.721-3.21.89-4.903zm-41.83 7.666c6.546.07 13.847 3.073 20.935 8.457-1.922.421-3.992.64-6.21.616-7.113-.095-15.23-2.541-23.391-6.998 2.523-1.409 5.43-2.115 8.666-2.075zm37.025 5.381c3.798 6.297 7.891 12.182 12.063 17.123-1.145 1.664-2.184 3.524-3.11 5.563-3.309-5.641-7.195-10.992-11.594-15.781-.68-.74-1.368-1.46-2.062-2.16a22.824 22.824 0 0 0 4.703-4.745zm-50.728 1.078c4.263 2.5 8.51 4.495 12.677 5.955-2.685 1.48-4.912 3.786-6.525 6.85-7.147 13.471-.863 37.044 13.992 52.535 7.101 7.436 14.95 11.566 22.04 11.653 5.769.067 10.536-2.545 13.614-7.288.93 5.396 2.23 10.471 3.82 15.133-3.294 3.673-7.716 5.6-13 5.555-8.794-.124-18.83-5.557-28.294-15.318-20.775-21.461-30.056-55.495-19.836-72.854a20.76 20.76 0 0 1 1.512-2.22zm87.578 2.815c.624 3.073 1.042 5.904 1.234 8.418a23.07 23.07 0 0 0-3.684-2.31 8.038 8.038 0 0 0 1.51-2.354c.473-1.091.776-2.357.94-3.754zm-47.285 4.039a73.585 73.585 0 0 1 3.214 3.277c5.27 5.732 9.783 12.414 13.36 19.444a69.659 69.659 0 0 0-1.383 6.283c-2.792-7.064-6.916-13.925-12.111-19.545-2.953-3.186-6.102-5.807-9.293-7.805a28.825 28.825 0 0 0 6.213-1.654zm-19.745 2.432c5.9.078 12.832 3.957 19.02 10.62 8.255 8.924 13.63 21.105 14.629 31.637.004 1.654.061 3.33.146 5.018-.118 2.422-.512 4.698-1.215 6.75-1.887 5.49-5.728 8.48-10.87 8.435-5.631-.066-12.337-3.747-18.39-10.043-12.93-13.516-19.068-35.212-13.136-46.423 2.09-3.966 5.466-6.032 9.816-5.994zm57.237 4.1c3.68.04 7.362 2.219 10.752 5.991-.182.902-.42 1.697-.715 2.373-.797 1.843-1.784 2.314-2.453 2.5-.343.095-.69.137-1.082.137-3.275-.039-7.929-3.058-13.127-8.4 1.833-1.552 3.798-2.435 5.857-2.586.265-.013.507-.016.768-.016zm17.427 1.683c.474 1.525.935 3.058 1.381 4.6a47.034 47.034 0 0 0-1.511-2.075c.07-.81.116-1.651.13-2.525zm-68.58 5.478c-3.573-.037-6.55 1.864-8.166 5.227-3.362 7.043-.087 19.105 7.291 26.892 3.768 3.95 7.937 6.156 11.766 6.21 3.945.024 7.067-2.19 8.57-6.11 2.694-7.064-.594-18.432-7.517-25.855-3.793-4.065-8.023-6.31-11.944-6.364zm40.516.287c3 3.032 5.99 5.492 8.883 7.196-1.386.848-2.676 2.01-3.832 3.476-1.726 2.193-3.13 5.041-4.184 8.346a96.488 96.488 0 0 0-4.437-10.914c.978-3.062 2.166-5.803 3.57-8.104zm-40.56 3.914c2.742.034 6.019 1.877 8.964 5.05 5.817 6.229 8.81 15.855 6.662 21.452-1.941 5.073-8.108 4.143-13.445-1.492-6.147-6.51-9.18-16.66-6.553-22.154.917-1.921 2.397-2.889 4.371-2.856zm66.363.727c5.338 8.903 9.382 21.873 10.566 36.02 2.24 26.67-6.283 44.747-15.478 46.234-6.983 1.118-15.63-6.877-21.407-21.748 1.275-1.957 2.35-4.168 3.217-6.608 4.099 11.064 10.76 18.276 17.865 18.352.525 0 1.028-.015 1.557-.09 9.952-1.4 16.04-16.917 14.178-36.142-1.433-14.759-7.046-26.916-13.992-32.233 1.227-.767 2.471-1.96 3.494-3.785zm-11.143 6.15c6.519.075 14.697 12.306 16.436 30.387 1.677 17.156-3.671 29.567-9.719 30.414-5.804.819-13.424-8.534-16.4-24.267.386-5.182.023-10.739-1.022-16.442.508-7.146 2.316-13.316 5.193-16.953 1.5-1.913 3.18-2.953 4.961-3.102zm-20.57 7.96c4.788 13.023 6.236 26.273 3.209 36.242a30.404 30.404 0 0 1-.567 1.695 100.467 100.467 0 0 1-2.293-11.012c-1.416-9.401-1.468-18.735-.35-26.926zm24.379 4.566a7.208 7.208 0 0 0-1.192.033c-3.267.384-6.002 2.929-7.713 7.143-1.532 3.796-2.085 8.57-1.511 13.482 1.094 9.815 6.179 16.995 12.078 17.078.326 0 .694-.032 1.045-.082 6.118-.86 10.085-9.346 9.164-19.756-.86-9.98-5.961-17.567-11.871-17.898zm-.317 4.197c3.276.033 7.301 5.709 8.02 14.082.752 8.403-2.318 14.756-5.56 15.215-3.095.45-7.458-4.73-8.417-13.322-.487-4.14-.045-8.293 1.22-11.395 1.052-2.71 2.68-4.365 4.737-4.58z" style="fill:#0094cd;fill-opacity:1;stroke-width:4.131" transform="translate(259.072 -307.08)"/></svg>