<svg xmlns="http://www.w3.org/2000/svg" xml:space="preserve" width="517.70636" height="300" viewBox="0 0 517.70636 299.99999"><path d="m434.517 514.19.854 55.395-15.82-8.147-.852-59.917 53.46.902v12.472zM387.524 543.006l.165.179-.03.034 23.005 23.473h-18.528l-23.987-25.27v.033l-.47-.497v28.627l-15.624-8.018V501.52h15.623v21.353l8.482 8.61.031-.026.184.18 19.568-30.117h18.53zM316.007 536.072V523.58h12.396c0-.262-.044-.573-.044-.573l-.041-.022c-.968-5.844-4.507-10.147-15.256-10.147-11.914 0-18.454 9.33-18.454 21.995 0 12.774 6.42 21.8 18.337 21.8 7.57 0 11.089-2.924 13.79-7.096l13.105 6.78-13.128-6.736 13.128 6.737c-4.897 8.552-13.604 12.904-26.741 12.904-20.143 0-34.261-14.091-34.261-34.39 0-21.034 13.565-34.37 33.728-34.37 17.83 0 30.982 9.703 30.982 26.846v8.764zM296.91 485.469h-12.135v2.073h15.2v-17.766h2.099V467.7h-17.93v2.075h12.767zM321.687 482.159v-9.922h-2.92v2.767h-12.443v7.384h7.54v2.997h-7.54v2.076h10.617v-7.15H309.4v-3.231h9.367v10.38l2.92.933v-4.162h1.27v3.23l2.92.932v-16.156h-2.92v9.922zm-9.498-13.84h13.977v-2.077h-17.051v6.914h3.074zM349.364 467.701h-18.445v2.075h18.445zm-17.599 19.841h16.756v-2.073H334.83v-8.079h13.691v-2.077h-16.756zM354.044 479.695h13.69v5.774h-14.247v2.073h17.32v-17.766h2.243V467.7h-19.563v2.075h5.307v6.464h3.075v-6.464h5.866v7.847h-13.691zM392.67 466.242v7.378H376.74v8.768h9.229v2.997h-9.23v2.076h12.303v-7.15h-9.225V475.7h12.855v11.762l3.075.932v-22.151zM419.367 480.312v-14.07h-3.069v21.219l3.07.932v-6.005h2.361v-2.076zM406.698 486.364c-3.807 0-6.916-2.842-6.916-6.33 0-3.465 3.11-6.31 6.916-6.31 3.785 0 6.898 2.845 6.898 6.31 0 3.488-3.113 6.33-6.898 6.33m-.023-10.198c-2.354 0-4.263 1.772-4.263 3.897 0 2.145 1.91 3.89 4.263 3.89 2.323 0 4.257-1.745 4.257-3.89 0-2.125-1.934-3.897-4.257-3.897M438.599 487.46l2.953.933v-22.151h-2.953v7.378h-12.443v7.972h6.982v3.793h-6.982v2.076h10.056v-5.073h2.387zm-9.377-7.941v-3.82h9.377v4.613h-2.387v-.793zm16.77 8.874v-22.151h-2.981v21.219zM464.683 487.46v-2.075h-5.297l6.762-10.944-2.482-1.045-5.961 9.608-5.993-9.643-2.447 1.08 6.766 10.944h-5.315v2.076zm5.315-21.218h-3.077v14.075h-3.63v2.07h3.63v5.074l3.077.932z" style="fill:#6d6e70;fill-opacity:1;fill-rule:nonzero;stroke:none" transform="matrix(2.09287 0 0 -2.09287 -527.058 1228.68)"/></svg>