<svg xmlns="http://www.w3.org/2000/svg" xml:space="preserve" width="994.35101" height="200" viewBox="0 0 994.351 200"><path d="M255.259 132.484c0 7.519 7.775 9.623 14.331 9.623 10.703 0 19.977-5.806 23.642-7.999.487-.283.682-.207.682.26v11.655c0 .372 0 .806-.56.915-3.814.81-12.425 3.451-22.338 3.721-24.81.669-34.166-11.7-34.166-24.293 0-24.126 44.8-25.183 44.8-42.31 0-6.12-4.703-11.72-17.595-11.72-5.898 0-11.71 1.28-16.977 3.813-5.66 2.717-9.863 6.912-15.21 9.905-5.125 2.862-11.062 4.512-16.977 4.512-13.294 0-20.312-7.265-23.733-12.62-.221-.338-.373-.319-.373 0v54.11c0 .244-.204.392-.444.33l-6.62-1.614-1.198-.28-.125-.04-2.516-.609-16.657-4.221-3.138-.768-.62-.158-.599-.138-1.722-.418c-.25-.056-.464-.307-.464-.54v-3.284c0-.233.214-.438.47-.45l1.62-.093c9.327-.678 12.541-2.97 12.541-13.44V20.496c0-.626.119-.597.767-.422v-.007l15.56 4.044c.86-.754 6.906-13.03 26.691-13.03 24.683 0 34.16 18.662 34.16 38.931 0 5.697-.54 10.531-1.933 15.912 4.196-1.488 10.868-2.795 17.434-2.944 19.818-.438 36.06 8.658 36.06 25.789 0 26.763-44.793 27.11-44.793 43.716zM208.05 19.177c-15.75 0-17.266 20.276-17.266 28.884v6.65c0 9.092 2.078 25.972 18.6 25.972 16.519 0 18.228-18.655 18.228-30.027 0-12.494-1.518-31.479-19.562-31.479" style="fill:#7b7678;fill-opacity:1;fill-rule:nonzero;stroke:none;stroke-width:.329314" transform="matrix(1.33333 0 0 -1.33333 -133.297 214.759)"/><path d="M114.664 145.598c0 8.49 6.88 15.471 15.475 15.471 8.361 0 15.725-6.728 15.725-15.471 0-8.734-7.364-15.718-15.969-15.718-8.351 0-15.23 6.984-15.23 15.718M145.327 120.583l-44.876-11.582c-.263-.06-.478-.33-.478-.57v-3.536c0-.26.221-.485.488-.534l.998-.135c12.978-1.034 21.81-3.721 21.81-19.868V11.6c0-.626.122-.596.771-.425l21.132 5.536c.642.164.642.576.642 1.116v102.41c0 .254-.214.409-.487.346" style="fill:#c6281a;fill-opacity:1;fill-rule:nonzero;stroke:none;stroke-width:.329314" transform="matrix(1.33333 0 0 -1.33333 -133.297 214.759)"/><path d="m338.677 48.569-9.856-1.09-.408-.043V45.62l.391-.046c4.314-.596 4.314-.596 4.314-4.179V15.578h6.057v33.05l-.498-.06M359.118 38.801c-3.935 0-6.333-2.888-7.479-4.795v4.89l-.54-.108-8.45-1.485-.382-.06v-1.758l.444-.023c2.757-.086 3.317-.708 3.317-3.741V15.578h5.611v11.898c0 3.161 2.575 7.238 5.309 7.238 2.558 0 2.684-2.476 2.684-6.53V15.578h5.601V31.72c0 4.567-2.17 7.08-6.115 7.08M378.03 29.771c-2.15 1.199-4.004 2.24-4.004 3.942 0 1.858 1.775 2.114 2.839 2.114 2.196 0 4.116-1.323 5.038-1.95.112-.091.224-.15.3-.213l.701-.471v4.716l-.362.079a4.191 4.191 0 0 1-.392.099c-1.001.246-2.842.714-4.966.714-6.102 0-8.286-3.47-8.286-6.718 0-3.8 3.201-5.588 6.024-7.166 2.282-1.261 4.244-2.361 4.244-4.195 0-1.746-1.264-2.69-3.563-2.69-2.582 0-4.775 1.524-5.934 2.35l-.724.508v-4.864l.332-.119c.922-.244 3.09-.86 6.132-.86 5.572 0 8.895 2.606 8.895 6.94 0 4.257-3.474 6.21-6.274 7.784M395.794 38.294v8.44l-.745-.668-4.69-4.17-.154-.138v-3.464h-3.662v-2.766h3.662v-13.96c0-6.026 3.438-6.52 7.58-6.52 1.11 0 2.286.214 3.228.372l.37.079v2.829l-.55-.129a7.495 7.495 0 0 0-1.634-.168c-3.234 0-3.405 1.097-3.405 4.265v13.232h6.158v2.766h-6.158M405.024 37.303l-.365-.06v-1.758l.441-.023c2.493-.08 3.171-.547 3.171-3.741V15.578h5.595v23.319l-.53-.109zm6.093 4.31c1.903 0 3.513 1.558 3.513 3.415 0 1.845-1.55 3.356-3.467 3.356-1.887 0-3.422-1.511-3.422-3.356 0-1.887 1.515-3.415 3.376-3.415M426.015 38.294v8.44l-.751-.668-4.696-4.17-.158-.138v-3.464h-3.669v-2.766h3.669v-13.96c0-6.026 3.444-6.52 7.58-6.52 1.041 0 2.072.17 3.238.372l.365.079v2.829l-.563-.129a7.424 7.424 0 0 0-1.623-.168c-3.24 0-3.392 1.097-3.392 4.265v13.232h6.148v2.766h-6.148M456.98 38.788l-8.315-1.485-.382-.06v-1.758l.441-.023c2.464-.08 3.175-.57 3.175-3.741v-5.14c0-3.6-1.87-7.437-4.663-7.437-1.597 0-3.395.573-3.395 5.078v14.675l-.524-.11-8.312-1.484-.379-.06v-1.758l.445-.023c2.49-.08 3.165-.547 3.165-3.741v-6.659c0-3.494 0-10.014 6.747-10.014 2.977 0 5.332 1.534 6.916 4.439v-3.91h5.605v23.32l-.524-.11M469.264 38.294v8.44l-.751-.668-4.7-4.17-.151-.138v-3.464h-3.665v-2.766h3.665v-13.96c0-6.026 3.435-6.52 7.59-6.52 1.13 0 2.28.214 3.228.372l.362.079v2.829l-.55-.129a7.43 7.43 0 0 0-1.633-.168c-3.237 0-3.395 1.097-3.395 4.265v13.232h6.145v2.766h-6.145M495.978 29.396c0 6.237-3.056 9.405-9.122 9.405-6.847 0-10.311-3.731-10.311-11.088 0-7.933 4.462-12.665 11.954-12.665 3.283 0 5.8.948 6.741 1.297l.3.112c.026.01.026.32.026.32v2.746l-.636-.267c-.823-.362-2.41-.76-4.225-.76-5.796 0-7.953 5.522-8.075 10.445h13.348zm-9.313 6.916c3 0 3.632-2.694 3.708-4.591h-7.723c.129 1.6 1.001 4.59 4.015 4.59M523.57 46.82c2.135 0 2.507-2.197 2.556-3.514l.01-.431h6.218l-.076.523c-.612 4.087-3.405 5.925-9.04 5.925-4.844 0-7.715-3.116-7.715-8.348v-2.681h-3.81v-2.766h3.81v-19.95h5.595v19.95h6.234v2.766h-6.234v3.774c0 2.466.293 4.752 2.453 4.752M539.115 38.801c-7.117 0-10.585-3.892-10.585-11.882 0-7.887 3.557-11.871 10.585-11.871 7.126 0 10.594 3.886 10.594 11.871 0 7.433-3.969 11.882-10.594 11.882zm0-21.244c-4.008 0-4.525 4.999-4.525 9.362 0 4.644.537 9.393 4.525 9.393 3.984 0 4.528-4.75 4.528-9.393 0-5.618-.764-9.362-4.528-9.362M568.862 33.664V38.5l-.373.073c-.912.148-1.814.227-2.618.227-3.02 0-4.64-2.358-5.519-4.334v4.43l-.527-.109-8.394-1.485-.372-.06v-1.758l.434-.023c2.72-.086 3.267-.708 3.267-3.741V15.578h5.592v11.66c0 1.967.56 6.541 5.664 6.541.59 0 1.248-.21 1.877-.425l.376-.125.593-.188v.623M604.803 32.91c3.115 1.37 4.775 3.81 4.775 7.09 0 5.331-3.9 8.055-11.582 8.055h-14.391v-1.88l.395-.06c4.067-.635 4.067-.635 4.067-4.903V15.578h9.277c3.784 0 13.821 0 13.821 8.862 0 4.469-2.104 7.245-6.362 8.47zm-6.613-14.227c-2.954 0-4.063.122-4.063 1.46v11.005h3.82c3.273 0 7.165-.995 7.165-5.852 0-4.627-2.064-6.613-6.922-6.613zm-4.063 24.274c0 1.874.342 1.973 3.177 1.973 4.407 0 6.201-1.489 6.201-5.164 0-3.757-2.124-5.51-6.685-5.51h-2.693v8.701M623.617 38.801c-7.298 0-8.79-3.853-9.26-6.748l-.093-.52h6.57v.455c0 2.667.468 4.324 2.832 4.324 2.338 0 2.523-2.3 2.523-5.81v-1.94c-10.173-.45-12.36-4.389-12.36-7.666 0-3.23 3.03-5.848 6.741-5.848 2.915 0 4.591 1.41 5.619 2.522v-1.992h5.588v14.72c0 5.101-1.383 8.503-8.16 8.503zm-1.357-20.305c-1.426 0-2.361 1.254-2.361 3.2 0 2.632 2.127 4.048 6.29 4.259v-2.256c0-2.585-1.222-5.203-3.93-5.203M644.485 29.771c-2.137 1.199-4.004 2.24-4.004 3.942 0 1.858 1.785 2.114 2.848 2.114 2.207 0 4.193-1.376 5.052-1.962.102-.08.191-.152.28-.201l.692-.471v4.716l-.343.079c-.105.033-.23.066-.385.099-.998.246-2.855.714-4.99.714-6.095 0-8.275-3.47-8.275-6.718 0-3.8 3.217-5.588 6.036-7.166 2.27-1.261 4.252-2.361 4.252-4.195 0-1.746-1.275-2.69-3.59-2.69-2.568 0-4.758 1.524-5.937 2.35l-.715.508v-4.874l.34-.109c.928-.244 3.115-.86 6.118-.86 5.579 0 8.898 2.606 8.898 6.94 0 4.257-3.468 6.21-6.277 7.784M652.807 37.303l-.385-.06v-1.758l.454-.023c2.487-.08 3.168-.547 3.168-3.741V15.578h5.589v23.319l-.52-.109zm6.07 4.31c1.903 0 3.513 1.558 3.513 3.415 0 1.845-1.558 3.356-3.451 3.356-1.88 0-3.415-1.511-3.415-3.356 0-1.887 1.505-3.415 3.352-3.415M674.97 38.801c-6.306 0-9.79-4.113-9.79-11.562 0-7.522 4.185-12.191 10.923-12.191 3.665 0 4.953.477 6.431 1.02l.376.132.3.106c.006 0 .006.329.006.329v2.677l-.606-.2c-1.05-.35-2.93-.616-4.36-.616-4.32 0-6.991 3.938-6.991 10.287 0 5.273 1.024 7.529 3.422 7.529 2.433 0 2.937-2.381 2.937-4.384v-.45h6.441v.45c0 4.113-3.662 6.873-9.089 6.873M713.842 34.991c-3.458 1.798-6.451 3.34-6.451 6.382 0 2.565 1.515 4.08 4.064 4.08 3.546 0 6.915-1.432 8.2-2.045l.638-.306v4.545l-.365.065-.033.007c-1.29.26-4.317.85-7.548.85-6.902 0-11.015-3.201-11.015-8.57 0-5.555 4.584-7.946 8.621-10.06 3.55-1.854 6.636-3.45 6.636-6.74 0-4.183-2.954-5.056-5.434-5.056-3.428 0-6.939 1.736-8.727 2.773l-.678.399v-4.957l.342-.085.31-.073c1.258-.316 4.643-1.152 8.015-1.152 7.769 0 12.234 3.53 12.234 9.691 0 5.707-4.689 8.121-8.809 10.252M734.543 38.801c-6.32 0-9.794-4.113-9.794-11.562 0-7.522 4.186-12.191 10.91-12.191 3.672 0 4.947.477 6.425 1.01l.389.142.31.106V19.312l-.587-.2c-1.09-.35-2.96-.616-4.363-.616-4.33 0-7.021 3.938-7.021 10.287 0 5.273 1.03 7.529 3.454 7.529 2.404 0 2.911-2.381 2.911-4.384v-.45h6.442v.45c0 4.113-3.642 6.873-9.076 6.873M745.407 37.303l-.369-.06v-1.758l.428-.023c2.51-.08 3.181-.547 3.181-3.741V15.578h5.592v23.319l-.53-.109zm6.092 4.31c1.894 0 3.5 1.558 3.5 3.415 0 1.845-1.557 3.356-3.454 3.356-1.887 0-3.408-1.511-3.408-3.356 0-1.887 1.508-3.415 3.362-3.415M777.229 29.396c0 6.237-3.07 9.405-9.132 9.405-6.843 0-10.314-3.731-10.314-11.088 0-7.933 4.465-12.665 11.967-12.665 3.323 0 5.914.99 6.754 1.31l.306.109v3.056l-.629-.267c-.882-.369-2.446-.76-4.228-.76-5.802 0-7.96 5.522-8.085 10.445h13.36zm-9.333 6.916c2.891 0 3.636-2.395 3.715-4.591h-7.736c.155 1.6 1.02 4.59 4.02 4.59M795.624 38.801c-3.922 0-6.316-2.888-7.469-4.788v4.884l-.523-.11-8.46-1.484-.376-.06v-1.758l.441-.023c2.75-.086 3.313-.708 3.313-3.741V15.578h5.605v11.898c0 3.161 2.572 7.238 5.315 7.238 2.556 0 2.688-2.476 2.688-6.53V15.578h5.601V31.72c0 4.567-2.176 7.08-6.135 7.08M814.754 38.801c-6.31 0-9.787-4.113-9.787-11.562 0-7.522 4.189-12.191 10.913-12.191 3.669 0 4.933.477 6.438 1.01l.382.142.303.106c.01 0 .01.329.01.329v2.677l-.59-.2c-1.076-.35-2.946-.616-4.376-.616-4.261 0-7.007 4.04-7.007 10.287 0 5.273 1.027 7.529 3.438 7.529 2.427 0 2.93-2.381 2.93-4.384v-.45h6.445v.45c0 4.113-3.662 6.873-9.099 6.873M845.736 29.396c0 6.237-3.073 9.405-9.158 9.405-6.847 0-10.318-3.731-10.318-11.088 0-7.933 4.476-12.665 11.954-12.665 3.31 0 5.84.948 6.784 1.297l.297.112c.016.01.016.32.016.32v2.746l-.622-.267c-.31-.122-1.937-.76-4.258-.76-5.8 0-7.966 5.522-8.111 10.445h13.416zm-9.34 6.916c2.882 0 3.63-2.395 3.709-4.591h-7.752c.138 1.6 1.017 4.59 4.044 4.59M360.524 134.655h-30.468v-7.762h20.908c1.604 0 2.453-.843 2.453-2.44 0-14.83-8.427-27.68-25.004-38.175.365-.398 5.288-6.346 5.588-6.708 21.35 12.603 32.174 29.006 32.174 48.782 0 4.251-1.831 6.303-5.651 6.303M377.71 63.424h12.002v73.642H377.71zM422.432 101.21c5.22 2.9 8.832 6.115 10.749 9.543l.243.405.254-.405c2.167-3.54 5.96-6.81 11.286-9.725 5.278-2.91 10.775-4.788 16.34-5.624.165.411 2.687 7.1 2.885 7.643-6.59 1.423-12.066 3.715-16.248 6.81-4.278 3.165-6.936 6.883-7.93 10.993l-.08.339h21.505v7.752h-22.13v8.724H427.47v-8.724h-22.113v-7.752h21.484l-.079-.34c-.984-4.224-3.55-7.906-7.646-10.959-4.206-3.171-9.761-5.453-16.443-6.78.198-.544 2.79-7.295 2.954-7.706 5.974 1.004 11.631 2.95 16.805 5.806" style="fill:#7b7678;fill-opacity:1;fill-rule:nonzero;stroke:none;stroke-width:.329314" transform="matrix(1.33333 0 0 -1.33333 -133.297 214.759)"/><path d="M439.44 95.782V81.21h27.199v-7.762h-66.41v7.762h27.199v14.572h12.013M825.967 104.572v-7.775h-18.412v-9.488h-12.007v9.488h-16.36v7.775h46.78M804.522 70.333h41.214v-6.856H800.88c-2.361 0-4.357.73-5.957 2.14-1.594 1.426-2.398 3.379-2.398 5.872v12.185h11.997V70.333M814.484 133.018c-3.497 2.96-7.759 4.452-12.807 4.452-5.035 0-9.316-1.491-12.847-4.452-3.513-2.96-5.285-6.557-5.285-10.759 0-4.212 1.772-7.788 5.285-10.709 3.53-2.95 7.812-4.406 12.847-4.406 5.048 0 9.31 1.455 12.807 4.406 3.497 2.921 5.26 6.497 5.26 10.71 0 4.201-1.763 7.797-5.26 10.758zm-8.23-16.673c-1.264-1.587-2.789-2.368-4.577-2.368-1.831 0-3.389.78-4.66 2.368-1.274 1.574-1.916 3.55-1.916 5.914 0 2.368.642 4.34 1.916 5.915 1.271 1.577 2.829 2.364 4.66 2.364 1.788 0 3.313-.787 4.577-2.364 1.278-1.574 1.92-3.547 1.92-5.915 0-2.364-.642-4.34-1.92-5.914" style="fill:#7b7678;fill-opacity:1;fill-rule:nonzero;stroke:none;stroke-width:.329314" transform="matrix(1.33333 0 0 -1.33333 -133.297 214.759)"/><path d="M843.24 137.108v-56.01h-12.02v5.388h-16.202V93.8h16.202v43.308h12.02M595.931 130.657h-15.204v7.63h-12v-7.63h-15.202v-7.762h8.8a16.35 16.35 0 0 1-4.35-5.325 14.39 14.39 0 0 1-1.611-6.679c0-4.501 1.808-8.39 5.424-11.644 3.619-3.257 7.94-4.887 12.975-4.887 5.11 0 9.448 1.63 13.028 4.887 3.586 3.253 5.374 7.143 5.374 11.644 0 2.365-.52 4.594-1.594 6.679-1.064 2.071-2.546 3.843-4.436 5.325h8.796zm-16.225-25.881c-1.393-1.726-3.036-2.579-4.943-2.579-1.831 0-3.451.853-4.884 2.579-1.426 1.703-2.134 3.748-2.134 6.115 0 2.362.708 4.39 2.134 6.083 1.433 1.692 3.053 2.522 4.884 2.522 1.907 0 3.55-.83 4.943-2.522 1.383-1.693 2.091-3.721 2.091-6.083 0-2.367-.708-4.412-2.091-6.115M614.244 122.921h12.004v-7.758h-12.004V94.36h-12.006v42.758h12.006v-14.197M608.597 89.47h-47.168v-7.766h40.809V63.51h12.006v19.65c0 4.245-1.827 6.31-5.647 6.31M656.996 71.186h39.745v-7.762h-43.473c-2.368 0-4.344.724-5.921 2.144-1.56 1.42-2.348 3.379-2.348 5.871v18.047h11.997v-18.3M682.07 137.065v-7.482H667.49c-1.897 2.082-4.208 3.738-6.938 4.986-2.727 1.242-5.648 1.86-8.796 1.86-5.566 0-10.377-1.886-14.401-5.637-4.034-3.774-6.047-8.319-6.047-13.647 0-5.338 2.013-9.89 6.047-13.657 4.024-3.754 8.835-5.634 14.4-5.634 3.08 0 5.955.583 8.615 1.772 2.674 1.185 4.957 2.776 6.857 4.791h14.842V82.639h12.007v54.426Zm-24.224-27.399c-1.69-2.071-3.715-3.105-6.09-3.105-2.315 0-4.3 1.034-5.95 3.105-1.67 2.059-2.49 4.548-2.49 7.479 0 2.914.82 5.42 2.49 7.482 1.65 2.068 3.635 3.092 5.95 3.092 2.375 0 4.4-1.024 6.09-3.092 1.689-2.061 2.525-4.568 2.525-7.482 0-2.93-.836-5.42-2.525-7.479zm24.224 12.165v-9.645h-10.472c.194.645.405 1.28.513 1.923.182 1.017.277 2.015.277 3.036 0 1.008-.095 1.983-.277 2.928-.108.58-.283 1.175-.447 1.758h10.406M536.019 118.047v19.018h-11.905V88.314c-1.485-.419-3.313-.8-5.473-1.114-2.157-.339-4.544-.49-7.15-.49h-13.877v24.804h-11.21V86.71h-10.393v-7.772h34.94c2.546 0 4.96.267 7.249.757 2.282.51 4.261 1.12 5.914 1.822V63.424h11.905v46.871h12.01v7.752h-12.01" style="fill:#7b7678;fill-opacity:1;fill-rule:nonzero;stroke:none;stroke-width:.329314" transform="matrix(1.33333 0 0 -1.33333 -133.297 214.759)"/><path d="M518.065 128.352c0 4.251-1.835 6.303-5.655 6.303h-34.35v-7.762h28.014v-14.197s0-11.427-1.863-18.85h9.05c4.804 8.035 4.804 22.153 4.804 22.153v12.353M759.742 101.885c2.931 6.912 2.931 22.16 2.931 22.16v6.306c0 4.248-1.824 6.3-5.641 6.3h-47.688v-7.766h41.332v-8.15s0-14.576-.784-18.85h-46.338v-7.766h27.653V63.47h12.003v30.65h27.554v7.765h-11.022" style="fill:#7b7678;fill-opacity:1;fill-rule:nonzero;stroke:none;stroke-width:.329314" transform="matrix(1.33333 0 0 -1.33333 -133.297 214.759)"/></svg>