<svg xmlns="http://www.w3.org/2000/svg" width="413.2067pt" height="225pt" viewBox="0 0 413.20672 225"><g fill="#004185"><path d="M2.441 61.006h.95v2.922l2.834-2.922H7.49l-3.12 3.142 3.374 3.499H6.349l-2.958-3.25v3.25h-.95ZM8.093 65.225c0 1.388 1.008 2.543 2.475 2.543 1.46 0 2.467-1.155 2.467-2.543 0-1.477-.995-2.542-2.467-2.542-1.488 0-2.475 1.065-2.475 2.542m.95 0c0-.924.57-1.816 1.525-1.816.954 0 1.519.892 1.519 1.816 0 .868-.473 1.822-1.519 1.822-1.06 0-1.525-.954-1.525-1.822M13.996 62.802h.835v.748h.019c.24-.502.755-.867 1.266-.867.263 0 .402.026.594.067v.8a1.302 1.302 0 0 0-.5-.084c-.798 0-1.322.76-1.322 1.976v2.207h-.892zM21.18 66.556c-.219.184-.904.49-1.493.49-.85 0-1.603-.658-1.603-1.62h3.471c0-1.562-.522-2.744-2.143-2.744-1.373 0-2.277 1.016-2.277 2.453 0 1.586.789 2.633 2.511 2.633.803 0 1.193-.192 1.535-.315zm-3.096-1.795c.066-.629.427-1.352 1.308-1.352.767 0 1.204.61 1.204 1.352zM22.79 63.907c.36-.31.903-.498 1.41-.498.889 0 1.198.423 1.198 1.263-.35-.021-.6-.021-.95-.021-.923 0-2.26.386-2.26 1.605 0 1.054.736 1.512 1.784 1.512.819 0 1.298-.453 1.504-.745h.017v.626h.84a8.407 8.407 0 0 1-.037-.944v-2.012c0-1.325-.563-2.01-1.959-2.01-.612 0-1.148.189-1.594.457zm2.608 1.858c0 .724-.463 1.282-1.35 1.282-.413 0-.904-.282-.904-.791 0-.858 1.193-.936 1.679-.936.195 0 .389.022.575.022zM30.047 61.006h.96v5.809h2.776v.832h-3.736zM34.777 63.907c.363-.31.9-.498 1.41-.498.892 0 1.195.423 1.195 1.263-.348-.021-.595-.021-.95-.021-.923 0-2.257.386-2.257 1.605 0 1.054.733 1.512 1.778 1.512.818 0 1.298-.453 1.506-.745h.018v.626h.842c-.019-.14-.04-.39-.04-.944v-2.012c0-1.325-.56-2.01-1.951-2.01-.62 0-1.157.189-1.601.457zm2.605 1.858c0 .724-.463 1.282-1.35 1.282-.408 0-.907-.282-.907-.791 0-.858 1.203-.936 1.687-.936.19 0 .377.022.57.022zM39.553 67.649h.858v-.683h.02c.24.363.788.802 1.65.802 1.47 0 2.088-1.298 2.088-2.633 0-1.303-.682-2.452-2.091-2.452-.846 0-1.34.338-1.609.783h-.021v-2.954h-.895zm3.666-2.44c.015.756-.38 1.838-1.341 1.838-1.007 0-1.43-1.003-1.43-1.809 0-.907.467-1.83 1.436-1.83.975 0 1.35.923 1.335 1.801M44.81 65.225c0 1.388 1.008 2.543 2.475 2.543 1.454 0 2.462-1.155 2.462-2.543 0-1.477-.99-2.542-2.462-2.542-1.488 0-2.475 1.065-2.475 2.542m.95 0c0-.924.56-1.816 1.525-1.816.948 0 1.513.892 1.513 1.816 0 .868-.467 1.822-1.513 1.822-1.062 0-1.526-.954-1.526-1.822M50.707 62.802h.84v.748h.022c.236-.502.747-.867 1.266-.867.263 0 .4.026.586.067v.8a1.272 1.272 0 0 0-.491-.084c-.802 0-1.324.76-1.324 1.976v2.207h-.899zM56.612 61.006h3.536v.84h-2.577v1.943h2.458v.831h-2.458v3.027h-.959zM60.778 65.225c0 1.388 1.016 2.543 2.482 2.543 1.452 0 2.46-1.155 2.46-2.543 0-1.477-.99-2.542-2.46-2.542-1.487 0-2.482 1.065-2.482 2.542m.958 0c0-.924.56-1.816 1.524-1.816.95 0 1.51.892 1.51 1.816 0 .868-.464 1.822-1.51 1.822-1.061 0-1.524-.954-1.524-1.822M70.977 67.649h-.861v-.767h-.023c-.263.553-.916.886-1.59.886-1.257 0-1.823-.778-1.823-2.088v-2.878h.904v2.51c0 1.133.242 1.683 1.025 1.735 1.019 0 1.474-.822 1.474-2.006v-2.24h.894zM72.264 62.802h.865v.764h.02c.265-.545.92-.883 1.589-.883 1.254 0 1.821.783 1.821 2.09v2.876h-.9v-2.514c0-1.127-.25-1.682-1.022-1.726-1.022 0-1.483.816-1.483 1.995v2.245h-.89ZM81.277 67.649h.856v-7.137h-.897v2.954h-.015c-.275-.445-.767-.783-1.614-.783-1.4 0-2.085 1.15-2.085 2.452 0 1.329.612 2.633 2.079 2.633.868 0 1.418-.44 1.656-.802h.02zm-2.806-2.44c-.026-.891.363-1.8 1.33-1.8.972 0 1.435.922 1.435 1.83 0 .805-.42 1.808-1.42 1.808-.964 0-1.371-1.082-1.345-1.838M83.7 63.907c.358-.31.894-.498 1.4-.498.904 0 1.2.423 1.2 1.263-.349-.021-.591-.021-.95-.021-.923 0-2.26.386-2.26 1.605 0 1.054.736 1.512 1.792 1.512.811 0 1.289-.453 1.495-.745h.021v.626h.84c-.02-.14-.038-.39-.038-.944v-2.012c0-1.325-.564-2.01-1.949-2.01-.623 0-1.15.189-1.606.457zm2.6 1.858c0 .724-.464 1.282-1.35 1.282-.405 0-.897-.282-.897-.791 0-.858 1.198-.936 1.68-.936.188 0 .38.022.566.022zM91.055 63.52h-1.286v2.654c0 .566.344.873.748.873.28 0 .48-.082.616-.176v.762c-.203.057-.482.135-.772.135-.913 0-1.488-.44-1.488-1.409V63.52h-1.091v-.718h1.091v-1.129l.896-.287v1.416h1.286zM93.005 61.717h-1.01V60.7h1.01zm-.948 1.085h.887v4.847h-.888ZM94.027 65.225c0 1.388 1.003 2.543 2.475 2.543 1.452 0 2.458-1.155 2.458-2.543 0-1.477-.985-2.542-2.458-2.542-1.488 0-2.475 1.065-2.475 2.542m.951 0c0-.924.56-1.816 1.524-1.816.95 0 1.51.892 1.51 1.816 0 .868-.463 1.822-1.51 1.822-1.062 0-1.524-.954-1.524-1.822M99.925 62.802h.864v.764h.02c.265-.545.916-.883 1.588-.883 1.264 0 1.82.783 1.82 2.09v2.876h-.896v-2.514c0-1.127-.246-1.682-1.025-1.726-1.015 0-1.476.816-1.476 1.995v2.245h-.895zM41.418 43.06h-3.14v12.587h-3.017v-21.37h3.017v6.802h3.14zM60.127 38.341v-4.064H57.11v10.946h3.017v-4.901h3.079v-1.98zM75.281 40.883h3.954v7.886h3.011V34.277h-3.01v4.665H75.28zM28.428 37.76v-3.212h-3.075v3.212c0 1.544-.136 7.348-4.916 11.027l1.518 1.442c1.452-.881 3.715-2.618 4.936-5.587 1.227 2.969 3.487 4.706 4.94 5.587l1.52-1.442c-4.788-3.68-4.923-9.483-4.923-11.027M54.267 43.288v-8.796h-3.013v3.04h-4.727v-3.04h-3.01v8.804c0 .752.62 1.375 1.377 1.375h7.99c.769 0 1.383-.623 1.383-1.383m-3.013-1.06c0 .252-.21.466-.468.466h-3.793a.465.465 0 0 1-.466-.465V39.44h4.727z" style="stroke-width:1.32294" transform="translate(21.667 25) scale(2.22222)"/><path d="M71.993 36.584h3.882v-1.981H64.99v1.981h3.885c-.051 2.767-.692 6.712-4.597 8.913l1.431 1.468c1.039-.422 3.546-2.01 4.729-4.681 1.166 2.67 3.679 4.26 4.722 4.681l1.419-1.468c-3.895-2.201-4.54-6.146-4.586-8.913M104.218 55.647h-2.8v-12.89h-1.72v12.89h-2.746v-21.37H99.7v6.492h1.718v-6.492h2.801zM124.026 39.482v-5.206h-3.101V41.8c-3.397 1.909-7.538 1.83-8.528 1.83h-.747a.465.465 0 0 1-.467-.469v-6.597h6.368v-1.982h-9.485v9.685l.01-.036c0 .757.62 1.372 1.375 1.372h2.946c1.893 0 5.538-.105 8.528-1.588v4.79h3.1v-7.341h3.27v-1.982zM91.94 38.571v-1.976h2.86V34.62h-8.727v1.975h2.863v1.976c0 2.607-.665 7.46-3.841 10.588l1.598 1.201c.867-.675 3.044-2.787 3.746-5.444.705 2.657 2.884 4.77 3.748 5.444l1.6-1.201c-3.182-3.129-3.846-7.981-3.846-10.588M71.56 53.523a.444.444 0 0 1-.373-.431v-4.747h-3.033v5.349c0 .736.468 1.333 1.172 1.488 4.198.656 8.99.61 13.285-.147v-1.938c-3.543.627-7.432.767-11.052.426M114.354 53.523a.446.446 0 0 1-.38-.431v-4.943h-3.029v5.545c0 .736.466 1.333 1.167 1.488 3.883.61 8.27.602 12.305 0v-1.925c-3.273.478-6.78.575-10.063.266M49.9 53.518c-.25-.036-.328-.212-.328-.37v-1.406h10.753v-3.996c0-.756-.617-1.377-1.38-1.377H46.548v1.903h10.095c.26 0 .474.204.474.466v1.19h-10.57v3.698c0 .651.446 1.453 1.538 1.613 4.109.6 8.74.526 12.577-.205v-1.937c-3.248.627-7.137.767-10.762.42M11.253 49.164v-4.493c2.074-.037 4.145-.21 6.084-.549v-1.931c-3.662.632-7.792.715-11.589.263-.234-.037-.301-.17-.301-.33v-7.706H2.44v7.96c0 .632.35 1.554 1.44 1.742a37.79 37.79 0 0 0 4.348.476v4.568H0v1.984h19.494v-1.984z" style="stroke-width:1.32294" transform="translate(21.667 25) scale(2.22222)"/></g><path fill="#0089cf" d="M108.065 23.03c.53 2.869 6.205 3.01 15.288-.822 9.002-4.018 14.594-9.9 13.934-11.692-1.137-1.625-9.92-1.757-18.26 1.727-8.232 3.689-11.485 7.92-10.962 10.786" style="stroke-width:1.32294" transform="translate(21.667 25) scale(2.22222)"/><path fill="#fcaf17" d="M111.878 65.373c-1.701-.16-3.007 1.338-1.256 2.694 3.7 2.866 8.426 5.143 14.075 6.197 1.39.266 1.769-.499 1.221-1.07-.587-.584-1.505-.977-3.861-2.524-1.059-.7-1.305-1.708-.872-2.955.653-1.898-.79-3.508-3.826-2.448-2.149.737-3.972.25-5.481.105" style="stroke-width:1.32294" transform="translate(21.667 25) scale(2.22222)"/><path fill="#00accd" d="M168.69 34.949c.042-1.471-.424-5.427-2.614-10.854 1.096-1.657 1.416-3.254.635-4.683-.783-1.406-2.22-1.788-3.362-.645-.016.026-.028.029-.041.051-4.696-7.391-7.061-8.377-8.457-6.281-1.4 2.102 3.865 7.388 4.23 7.895.372.507.202.783-.514.507-9.386-3.599-16.268-1.899-16.162 1.888.35 5.383 7.15 3.539 11.26 3.588 4.78-.076 5.07 3.005 3.282 7.822-2.05 5.555-3.497 9.654.026 11.175 3.523 1.515 7.053-7.737 6.398-16.132-.05-.61.434-.92.605-.1.236 1.162.353 3.74.766 6.182.633 3.722 4.037 3.52 3.949-.413" style="stroke-width:1.32294" transform="translate(21.667 25) scale(2.22222)"/><path fill="#a6ce38" d="M147.183 59.608h-.007c-1.104-.062-2.04.168-2.93.72-1.74 1.18-2.296 3.192-3.321 5.533-1.191 3.354-4.599 2.52-6.098 1.68-2.951-1.646-6.977-5.992-9.174-3.029-1.32 1.78-.122 3.837 4.413 6.029 2.484 1.198 2.08 2.224.288 2.603-1.025.216-3.118.225-3.033 1.13.026.361.378.527.934.574 9.886.814 18.632-1.672 25.49-6.768.525-.393.868-.898.629-1.374-.581-1.22-3.844.29-5.723.832-1.416.414-4.485 1.878-1.711-1.706.83-1.067 5.391-5.687.242-6.224" style="stroke-width:1.32294" transform="translate(21.667 25) scale(2.22222)"/><path fill="#00ab4e" d="M156.48 65.895c4.388-3.752 9.038-9.858 10.822-17.025.18-.71-.182-1.266-.972-.478-1.114 1.113-1.705.361-1.057-.593 2.853-4.178 3.14-7.588 1.073-8.556-2.075-.977-3.714 3.53-4.538 7.21-.827 3.69-3.823 3.052-4.835 1.861-2.335-2.326-5.04-4.452-7.267-1.8-2.018 2.81 1.208 4.844 3.605 6.609 2.438 1.728 1.205 3.925-1.006 5.384-4.56 2.917-7.38 4.88-6.232 6.702 1.291 1.688 4.097.154 8.067-3.216 1.674-1.403 2.927-1.968 2.517-.555-.346 1.162-.727 1.852-1.263 2.782-1 1.726.272 2.366 1.087 1.675" style="stroke-width:1.32294" transform="translate(21.667 25) scale(2.22222)"/><path fill="#0089cf" d="M144.684 4.687c1.513-1.863.612-3.45-.982-4.264-1.582-.765-3.687-.622-4.859 1.517-.897 1.798-.275 3.726 1.073 4.326 1.614.609 3.643-.295 4.768-1.58M121.946 1.402c1.6-1.32 4.896-1.38 8.694-.076 4.69 1.65 8.909 5.401 7.294 6.657-1.732.828-9.626-.79-13.728-2.54-3.348-1.547-3.328-3.077-2.26-4.04M153.992 9.694c-.457-1.635-3.16-2.863-6.498-2.949-3.309-.004-6.51 1.363-6.26 2.331.26.982 5.43 2.695 9.098 2.863 3.617.008 3.872-1.377 3.66-2.245M139.439 23.049c-1.764-6.018-.987-11.593.378-11.945 1.584-.185 5.666 4.073 7.619 9.589 1.732 5.594 1.065 9.709-1.22 10.246-2.088.22-4.852-1.92-6.777-7.89" style="stroke-width:1.32294" transform="translate(21.667 25) scale(2.22222)"/><path fill="#006b44" d="M146.073 65.21c.24.312.536.514.872.612.665-.842 3.544-3.816 2.37-5.343-2.706 1.892-4.114 3.354-3.242 4.73" style="stroke-width:1.32294" transform="translate(21.667 25) scale(2.22222)"/><path fill="#004185" d="M147.436 20.692a20.842 20.842 0 0 0-.62-1.557c-2.812.463-4.467 1.82-4.411 3.691.22 3.376 2.964 3.904 6 3.849.04-1.651-.26-3.693-.97-5.983" style="stroke-width:1.32294" transform="translate(21.667 25) scale(2.22222)"/><symbol id="a" transform="translate(423.537 -264.433)" viewBox="0 0 295 295"><image width="295" height="295"/></symbol><symbol id="b" transform="translate(423.537 -264.433)" viewBox="0 0 295 295"><image width="295" height="295"/></symbol></svg>