<svg xmlns="http://www.w3.org/2000/svg" xml:space="preserve" width="502.24451" height="100" viewBox="0 0 502.2445 99.999999"><path d="M232.615 48.045h1.178V44.65l3.21 3.396h1.462l-2.811-2.903 2.935-3.85h-1.44l-2.307 3.039-1.05-1.082v-1.956h-1.177zM241.42 42.188a1.5 1.5 0 0 1 1.122.483c.132.146.234.322.308.515.065.198.102.406.102.622v.022c0 .223-.037.435-.113.636-.08.201-.183.373-.322.523a1.58 1.58 0 0 1-.49.35c-.19.089-.395.129-.629.129-.227 0-.439-.04-.629-.128a1.45 1.45 0 0 1-.79-.867 1.87 1.87 0 0 1-.106-.625v-.018a1.72 1.72 0 0 1 .436-1.152 1.504 1.504 0 0 1 1.111-.49m-.022-1.012a2.761 2.761 0 0 0-1.934.771 2.604 2.604 0 0 0-.764 1.861v.022c0 .366.066.71.208 1.03.135.323.326.604.567.846a2.703 2.703 0 0 0 1.945.786c.391 0 .753-.07 1.086-.209.329-.135.618-.325.855-.567a2.6 2.6 0 0 0 .768-1.868v-.018c0-.362-.07-.702-.205-1.024a2.7 2.7 0 0 0-1.433-1.418 2.762 2.762 0 0 0-1.093-.212M245.101 46.385h1.174v-1.148c.16.388.391.695.687.925.297.234.666.34 1.115.318v-1.236h-.062c-.256 0-.493-.04-.705-.124a1.493 1.493 0 0 1-.549-.373 1.751 1.751 0 0 1-.362-.632 2.938 2.938 0 0 1-.124-.885v-1.938h-1.174zM252.313 44.197a2.054 2.054 0 0 1-.124.526 1.49 1.49 0 0 1-.256.424 1.399 1.399 0 0 1-.395.285c-.153.07-.325.106-.519.106-.354 0-.654-.124-.892-.372-.23-.25-.373-.57-.428-.97zm-1.155-3.02c-.37 0-.71.062-1.03.193a2.438 2.438 0 0 0-.827.542c-.238.23-.417.508-.556.833a2.76 2.76 0 0 0-.201 1.075v.018c0 .366.059.71.183 1.035.12.318.292.603.515.845.223.237.487.427.786.566.3.14.637.209 1.002.209.406 0 .76-.077 1.068-.223a2.2 2.2 0 0 0 .76-.6 2.61 2.61 0 0 0 .46-.87c.103-.333.154-.68.154-1.05 0-.05-.003-.102-.007-.157l-.01-.168h-3.744c.065-.42.23-.738.497-.961.267-.223.589-.333.965-.333.296 0 .545.051.76.153.209.103.417.256.622.454l.688-.607a2.826 2.826 0 0 0-.874-.695c-.337-.172-.739-.26-1.21-.26M257.58 43.424a2.982 2.982 0 0 1-.527.146 3.579 3.579 0 0 1-.636.058c-.37 0-.658-.073-.863-.212a.676.676 0 0 1-.31-.58v-.023c0-.241.098-.428.285-.556a1.23 1.23 0 0 1 .702-.193c.193 0 .369.025.533.076.165.052.308.125.432.216.12.095.216.209.285.34a.967.967 0 0 1 .099.439zm-.03-2.132v.625a2.154 2.154 0 0 0-.661-.519c-.274-.142-.603-.212-.987-.212-.242 0-.476.033-.691.103a1.61 1.61 0 0 0-.578.3 1.41 1.41 0 0 0-.395.49c-.099.197-.15.423-.15.68v.018c0 .285.051.53.154.738.102.212.245.384.431.52.183.142.399.24.655.31.252.07.53.102.826.102.307 0 .57-.021.786-.058.216-.04.42-.091.622-.154v.095c0 .355-.106.626-.326.812-.212.187-.523.278-.928.278-.29 0-.549-.03-.776-.088a4.388 4.388 0 0 1-.68-.23l-.321.936c.285.128.57.23.87.31.296.077.65.114 1.067.114.76 0 1.328-.186 1.69-.563.369-.377.552-.907.552-1.587v-3.02zM262.229 48.044h1.177v-6.753h-1.177zM264.896 46.385h1.177v-.8c.084.124.176.24.274.347.103.106.216.205.348.289a1.717 1.717 0 0 0 .968.27c.574 0 1.02-.175 1.335-.53.314-.35.472-.83.472-1.426v-3.243h-1.178v2.885c0 .398-.095.706-.278.921-.19.216-.457.322-.8.322-.34 0-.615-.11-.827-.33-.204-.222-.314-.533-.314-.928v-2.87h-1.177zM272.433 41.196c-.366 0-.735.065-1.115.193a3.586 3.586 0 0 0-1.046.578l.523.79c.274-.205.56-.362.844-.468.286-.103.564-.157.823-.157.252 0 .446.05.585.15.139.098.208.23.208.398v.018c0 .095-.032.18-.09.249a.757.757 0 0 1-.253.186 2.79 2.79 0 0 1-.37.143 9.689 9.689 0 0 1-.424.135c-.19.051-.372.114-.566.183-.19.07-.359.161-.512.274-.15.114-.274.253-.37.42-.098.169-.146.37-.146.615v.022c0 .234.044.45.143.643.091.194.22.355.384.49.164.136.358.238.578.307.223.074.457.106.709.106.322 0 .643-.05.972-.153.33-.106.63-.249.9-.432l-.465-.833a3.72 3.72 0 0 1-.742.355 2.194 2.194 0 0 1-.694.127c-.227 0-.403-.047-.527-.146a.433.433 0 0 1-.186-.362v-.022c0-.087.029-.164.098-.234a.818.818 0 0 1 .253-.182c.106-.055.23-.106.369-.154.139-.048.278-.095.428-.139.186-.058.373-.128.559-.205.186-.076.355-.168.508-.281.15-.114.27-.249.373-.41.095-.16.143-.358.143-.588v-.019c0-.27-.048-.504-.143-.702a1.423 1.423 0 0 0-.406-.497 1.81 1.81 0 0 0-.6-.3 2.724 2.724 0 0 0-.745-.098M277.021 41.206c-.216 0-.41.026-.592.077-.183.051-.34.135-.472.249a1.16 1.16 0 0 0-.307.46c-.073.19-.106.424-.106.71v2.68h-.647v1.005h.647v1.397h1.177v-1.397h1.368v-1.005h-1.368v-2.498c0-.226.055-.387.165-.49.106-.098.263-.146.46-.146.249 0 .494.059.724.172v-.954a1.998 1.998 0 0 0-1.049-.26M279.044 46.384h1.177v-5.093h-1.177zm-.048 1.89h1.265v-1.107h-1.265zM283.184 41.206c-.212 0-.406.026-.589.077-.183.051-.34.135-.475.249a1.2 1.2 0 0 0-.307.46c-.07.19-.103.424-.103.71v2.68h-.65v1.005h.65v1.397h1.174v-1.397h1.371v-1.005h-1.371v-2.498c0-.226.058-.387.164-.49.11-.098.264-.146.465-.146.248 0 .493.059.72.172v-.954a1.912 1.912 0 0 0-.472-.194 2.283 2.283 0 0 0-.577-.066M286.904 41.185c-.574 0-1.02.18-1.334.53-.315.355-.472.834-.472 1.43v3.24h1.174v-2.886c0-.398.098-.705.281-.92.19-.213.457-.323.8-.323.34 0 .615.11.824.333.208.223.318.53.318.929v2.866h1.177v-5.093h-1.177v.8a2.462 2.462 0 0 0-.626-.635c-.252-.18-.574-.27-.965-.27M292.628 41.206c-.213 0-.406.026-.59.077-.182.051-.34.135-.474.249a1.16 1.16 0 0 0-.308.46c-.069.19-.102.424-.102.71v2.68h-.65v1.005h.65v1.397h1.174v-1.397h1.37v-1.005h-1.37v-2.498c0-.226.058-.387.164-.49.11-.098.264-.146.465-.146.248 0 .49.059.72.172v-.954a1.912 1.912 0 0 0-.472-.194 2.283 2.283 0 0 0-.577-.066M298.015 44.197a2.405 2.405 0 0 1-.124.526 1.59 1.59 0 0 1-.26.424 1.399 1.399 0 0 1-.395.285c-.15.07-.321.106-.515.106-.358 0-.658-.124-.896-.372-.23-.25-.373-.57-.428-.97zm-1.159-3.02c-.365 0-.709.062-1.03.193a2.438 2.438 0 0 0-.827.542c-.238.23-.417.508-.556.833a2.76 2.76 0 0 0-.2 1.075v.018c0 .366.058.71.186 1.035.12.318.292.603.511.845a2.386 2.386 0 0 0 1.788.775c.406 0 .76-.077 1.068-.223.303-.15.563-.348.76-.6a2.61 2.61 0 0 0 .461-.87c.106-.333.154-.68.154-1.05 0-.05-.004-.102-.007-.157 0-.054-.007-.11-.011-.168h-3.744c.066-.42.23-.738.497-.961.267-.223.592-.333.969-.333.292 0 .541.051.757.153.208.103.417.256.621.454l.688-.607a2.784 2.784 0 0 0-.874-.695c-.337-.172-.739-.26-1.21-.26M304.717 42.188a1.505 1.505 0 0 1 1.126.483c.132.146.234.322.303.515.07.198.107.406.107.622v.022c0 .223-.04.435-.114.636-.08.201-.186.373-.322.523a1.477 1.477 0 0 1-1.119.479 1.477 1.477 0 0 1-1.422-.995 1.966 1.966 0 0 1-.102-.625v-.018c0-.227.04-.435.113-.633.08-.197.187-.369.322-.519a1.49 1.49 0 0 1 1.108-.49m-.018-1.012a2.748 2.748 0 0 0-1.934.771c-.242.238-.428.52-.564.84a2.54 2.54 0 0 0-.2 1.021v.022c0 .366.065.71.204 1.03.14.323.326.604.57.846a2.687 2.687 0 0 0 1.942.786c.391 0 .753-.07 1.09-.209a2.59 2.59 0 0 0 .855-.567 2.6 2.6 0 0 0 .768-1.868v-.018c0-.362-.07-.702-.209-1.024a2.63 2.63 0 0 0-.57-.844 2.732 2.732 0 0 0-1.952-.786M308.57 45.382h-.648v.976h.647v.366c0 .566.14.987.417 1.261.27.274.658.41 1.156.41a3.164 3.164 0 0 0 .943-.136v-.987c-.113.04-.223.07-.33.092-.109.021-.226.036-.354.036-.45 0-.676-.26-.676-.775v-.278h1.353v-.965h-1.335V41.29h-1.174zM316.56 44.534c.454 0 .812.113 1.072.34.26.223.39.516.39.87v.019c0 .402-.13.702-.394.906-.267.205-.622.304-1.068.304h-1.382v-2.439zm-2.559 3.51h2.662c.395 0 .745-.051 1.067-.157.318-.106.585-.26.812-.457.22-.201.387-.439.512-.717.117-.274.172-.585.172-.925v-.018c0-.38-.066-.713-.209-1.002a2.096 2.096 0 0 0-.581-.717 2.53 2.53 0 0 0-.863-.438 3.629 3.629 0 0 0-1.053-.15h-1.342V41.29h-1.177zM320.117 48.336h1.177v-7.041h-1.177zM325.747 43.424a3.074 3.074 0 0 1-.526.146 3.588 3.588 0 0 1-.64.058c-.366 0-.655-.073-.863-.212a.68.68 0 0 1-.307-.58v-.023a.63.63 0 0 1 .285-.556 1.23 1.23 0 0 1 .702-.193c.194 0 .366.025.534.076.164.052.303.125.431.216.12.095.216.209.285.34.062.132.099.278.099.439zm-.03-2.132v.625a2.198 2.198 0 0 0-.661-.519c-.274-.142-.603-.212-.987-.212-.245 0-.48.033-.695.103a1.64 1.64 0 0 0-.578.3c-.16.127-.292.292-.39.49-.1.197-.15.423-.15.68v.018c0 .285.05.53.153.738.102.212.245.384.428.52.186.142.402.24.658.31.252.07.526.102.822.102.311 0 .574-.021.79-.058.212-.04.417-.091.622-.154v.095c0 .355-.11.626-.326.812-.212.187-.523.278-.932.278-.289 0-.545-.03-.771-.088a4.426 4.426 0 0 1-.684-.23l-.318.936c.285.128.57.23.866.31.296.077.655.114 1.072.114.76 0 1.323-.186 1.689-.563.369-.377.552-.907.552-1.587v-3.02zM328.075 46.385h1.177v-.8c.084.124.176.24.274.347.103.106.216.205.348.289a1.717 1.717 0 0 0 .969.27c.574 0 1.02-.175 1.334-.53.315-.35.472-.83.472-1.426v-3.243h-1.178v2.885c0 .398-.095.706-.277.921-.19.216-.457.322-.801.322-.34 0-.614-.11-.826-.33-.205-.222-.315-.533-.315-.928v-2.87h-1.177zM333.87 46.385h1.177v-.8c.084.124.176.24.27.347.103.106.22.205.348.289.132.084.274.15.435.197.157.048.337.073.534.073.578 0 1.024-.175 1.334-.53.319-.35.476-.83.476-1.426v-3.243h-1.178v2.885c0 .398-.095.706-.281.921-.19.216-.453.322-.797.322-.34 0-.614-.11-.826-.33-.209-.222-.315-.533-.315-.928v-2.87h-1.177zM339.68 46.384h1.178v-5.093h-1.177zm-.043 1.89h1.265v-1.107h-1.265zM342.143 46.385h1.177v-.8c.084.124.175.24.274.347.099.106.216.205.344.289a1.743 1.743 0 0 0 .969.27c.577 0 1.023-.175 1.338-.53.314-.35.471-.83.471-1.426v-3.243h-1.177v2.885c0 .398-.095.706-.281.921-.187.216-.454.322-.797.322-.34 0-.615-.11-.827-.33-.204-.222-.314-.533-.314-.928v-2.87h-1.177zM350.255 42.681c.197 0 .387.033.574.103a1.419 1.419 0 0 1 .8.735c.077.168.12.354.12.559v.022c0 .212-.043.406-.12.574a1.445 1.445 0 0 1-.8.735 1.707 1.707 0 0 1-1.141 0 1.425 1.425 0 0 1-.46-.29 1.206 1.206 0 0 1-.308-.438 1.358 1.358 0 0 1-.113-.57v-.022c0-.212.036-.402.117-.57.076-.172.179-.322.307-.447.128-.124.281-.223.46-.288a1.51 1.51 0 0 1 .564-.103m-.096-2.954c-.851 0-1.612.205-2.277.603l.435.878c.27-.172.552-.3.844-.399a3.15 3.15 0 0 1 .97-.142c.518 0 .92.131 1.195.394.274.267.413.659.413 1.174v.399c-.212-.278-.46-.501-.742-.677-.285-.172-.633-.26-1.053-.26a2.325 2.325 0 0 0-1.602.633c-.219.201-.39.45-.519.746a2.498 2.498 0 0 0-.194 1.002v.022c0 .373.066.709.194 1.009.128.3.3.548.52.75.211.204.46.361.742.471.277.106.566.16.859.16.431 0 .79-.083 1.067-.251a2.92 2.92 0 0 0 .717-.615v.76h1.17v-4.05c0-.848-.216-1.488-.647-1.92a2.18 2.18 0 0 0-.87-.515 4.003 4.003 0 0 0-1.222-.172M359.427 43.424a2.983 2.983 0 0 1-.526.146 3.516 3.516 0 0 1-.637.058c-.369 0-.658-.073-.862-.212a.672.672 0 0 1-.308-.58v-.023c0-.241.096-.428.282-.556.19-.128.428-.193.702-.193.194 0 .37.025.534.076.164.052.307.125.431.216.124.095.216.209.285.34a.967.967 0 0 1 .099.439zm-.03-2.132v.625a2.111 2.111 0 0 0-.661-.519c-.274-.142-.603-.212-.987-.212-.241 0-.475.033-.691.103a1.64 1.64 0 0 0-.578.3 1.41 1.41 0 0 0-.395.49c-.098.197-.15.423-.15.68v.018c0 .285.055.53.154.738.102.212.249.384.431.52.183.142.403.24.658.31.253.07.527.102.823.102.307 0 .574-.021.786-.058.216-.04.42-.091.622-.154v.095c0 .355-.106.626-.326.812-.212.187-.523.278-.928.278-.29 0-.549-.03-.772-.088a4.426 4.426 0 0 1-.683-.23l-.322.936c.285.128.574.23.87.31.296.077.65.114 1.071.114.757 0 1.324-.186 1.69-.563.365-.377.551-.907.551-1.587v-3.02zM361.759 46.385h1.177v-.8c.084.124.172.24.27.347.103.106.22.205.348.289.131.084.274.15.435.197.157.048.336.073.534.073.577 0 1.023-.175 1.338-.53.314-.35.471-.83.471-1.426v-3.243h-1.177v2.885c0 .398-.095.706-.281.921-.19.216-.454.322-.797.322-.34 0-.615-.11-.827-.33-.208-.222-.314-.533-.314-.928v-2.87h-1.177zM369.917 42.199c.197 0 .38.036.56.117.178.077.336.186.47.333.136.142.246.314.323.515.084.198.12.42.12.666v.018c0 .245-.036.468-.12.673a1.453 1.453 0 0 1-1.353.958c-.198 0-.38-.037-.56-.11a1.321 1.321 0 0 1-.464-.326 1.506 1.506 0 0 1-.322-.515 1.895 1.895 0 0 1-.113-.68v-.018c0-.245.037-.468.113-.673.077-.201.187-.373.322-.516a1.423 1.423 0 0 1 1.024-.442m-.27-1.013c-.304 0-.597.059-.878.176a2.159 2.159 0 0 0-.757.508 2.65 2.65 0 0 0-.53.83c-.135.329-.201.705-.201 1.13v.018c0 .424.066.8.197 1.13.132.329.307.603.527.83.215.223.468.394.753.511.285.114.578.172.881.172.417 0 .764-.091 1.038-.27.275-.18.509-.388.691-.626v2.739h1.181v-7.042h-1.18l.01.848a2.622 2.622 0 0 0-.698-.676c-.278-.183-.625-.278-1.035-.278M376.069 48.045h4.998v-1.07h-3.821v-1.737h3.386v-1.072h-3.386v-1.802h3.868v-1.071h-5.045zM381.464 46.385h1.257l1.368-3.744 1.382 3.744h1.225l-2.088-5.133h-1.05zM390.504 43.424a2.982 2.982 0 0 1-.526.146 3.579 3.579 0 0 1-.636.058c-.37 0-.659-.073-.863-.212a.676.676 0 0 1-.311-.58v-.023c0-.241.099-.428.285-.556.19-.128.428-.193.702-.193.194 0 .37.025.534.076.164.052.307.125.431.216.121.095.216.209.286.34a.967.967 0 0 1 .098.439zm-.03-2.132v.625a2.154 2.154 0 0 0-.66-.519c-.275-.142-.604-.212-.988-.212a2.24 2.24 0 0 0-.691.103 1.61 1.61 0 0 0-.578.3 1.41 1.41 0 0 0-.395.49c-.098.197-.15.423-.15.68v.018c0 .285.052.53.154.738.102.212.245.384.432.52.182.142.398.24.654.31.252.07.53.102.826.102.307 0 .57-.021.786-.058.216-.04.42-.091.622-.154v.095c0 .355-.106.626-.326.812-.212.187-.522.278-.928.278-.289 0-.549-.03-.775-.088a4.388 4.388 0 0 1-.68-.23l-.322.936c.285.128.574.23.87.31.296.077.65.114 1.068.114.76 0 1.327-.186 1.689-.563.37-.377.552-.907.552-1.587v-3.02zM392.87 48.336h1.177v-7.041h-1.177zM397.099 41.185c-.574 0-1.02.18-1.335.53-.314.355-.471.834-.471 1.43v3.24h1.173v-2.886c0-.398.099-.705.285-.92.187-.213.454-.323.798-.323.34 0 .614.11.822.333.209.223.318.53.318.929v2.866h1.178v-5.093h-1.178v.8a2.462 2.462 0 0 0-.625-.635c-.252-.18-.574-.27-.965-.27M404.275 43.424a3.075 3.075 0 0 1-.526.146 3.588 3.588 0 0 1-.64.058c-.365 0-.654-.073-.863-.212a.68.68 0 0 1-.307-.58v-.023c0-.241.099-.428.285-.556a1.23 1.23 0 0 1 .702-.193c.194 0 .37.025.534.076.165.052.307.125.432.216.12.095.215.209.285.34.062.132.098.278.098.439zm-.029-2.132v.625a2.198 2.198 0 0 0-.662-.519c-.274-.142-.603-.212-.987-.212a2.24 2.24 0 0 0-.69.103 1.657 1.657 0 0 0-.582.3c-.161.127-.293.292-.391.49-.099.197-.15.423-.15.68v.018c0 .285.051.53.153.738.103.212.245.384.432.52.183.142.398.24.654.31.252.07.527.102.823.102.31 0 .574-.021.79-.058.215-.04.42-.091.621-.154v.095c0 .355-.106.626-.325.812-.212.187-.523.278-.929.278-.289 0-.548-.03-.775-.088a4.426 4.426 0 0 1-.684-.23l-.318.936c.285.128.57.23.867.31.296.077.654.114 1.07.114.761 0 1.328-.186 1.69-.563.37-.377.552-.907.552-1.587v-3.02zM408.224 41.206c-.215 0-.409.026-.592.077-.183.051-.34.135-.471.249a1.16 1.16 0 0 0-.308.46c-.073.19-.106.424-.106.71v2.68h-.647v1.005h.647v1.397h1.178v-1.397h1.367v-1.005h-1.367v-2.498c0-.226.054-.387.164-.49.106-.098.26-.146.46-.146.25 0 .494.059.725.172v-.954a1.998 1.998 0 0 0-1.05-.26M410.237 46.384h1.177v-5.093h-1.177zm-.044 1.89h1.265v-1.107h-1.265zM415.119 42.188a1.505 1.505 0 0 1 1.126.483c.132.146.234.322.307.515.066.198.102.406.102.622v.022c0 .223-.04.435-.113.636-.08.201-.186.373-.322.523a1.477 1.477 0 0 1-1.119.479 1.477 1.477 0 0 1-1.422-.995 1.966 1.966 0 0 1-.102-.625v-.018c0-.227.04-.435.113-.633.08-.197.187-.369.322-.519a1.49 1.49 0 0 1 1.108-.49m-.018-1.012a2.748 2.748 0 0 0-1.935.771c-.24.238-.427.52-.563.84a2.54 2.54 0 0 0-.2 1.021v.022c0 .366.065.71.204 1.03.139.323.325.604.57.846.242.24.527.43.856.574a2.74 2.74 0 0 0 1.086.212c.391 0 .757-.07 1.09-.209a2.59 2.59 0 0 0 .855-.567 2.6 2.6 0 0 0 .768-1.868v-.018c0-.362-.07-.702-.209-1.024a2.63 2.63 0 0 0-.57-.844 2.732 2.732 0 0 0-1.952-.786M418.8 46.385h1.177v-.8c.088.124.176.24.274.347.103.106.216.205.348.289a1.717 1.717 0 0 0 .969.27c.574 0 1.02-.175 1.334-.53.314-.35.472-.83.472-1.426v-3.243h-1.178v2.885c0 .398-.095.706-.277.921-.19.216-.454.322-.801.322-.34 0-.614-.11-.826-.33-.205-.222-.315-.533-.315-.928v-2.87H418.8zM232.74 33.805h-.647v.976h.647v.366c0 .563.14.987.417 1.261.274.27.662.406 1.16.406.2 0 .38-.011.526-.037.15-.025.285-.058.416-.098v-.98a3.48 3.48 0 0 1-.332.087 1.725 1.725 0 0 1-.351.037c-.454 0-.677-.26-.677-.775v-.278h1.353v-.965h-1.334v-4.091h-1.178zM238.3 30.613c.233 0 .45.044.64.132.186.084.347.2.482.35.135.147.238.319.307.516.07.198.102.402.102.622v.018c0 .227-.036.439-.113.64a1.627 1.627 0 0 1-.318.519 1.537 1.537 0 0 1-2.234.004 1.51 1.51 0 0 1-.307-.516 1.899 1.899 0 0 1-.102-.625v-.022c0-.223.036-.435.113-.633.08-.193.183-.369.322-.519.139-.15.3-.27.49-.354a1.44 1.44 0 0 1 .618-.132m-.019-1.013c-.387 0-.746.07-1.078.205-.333.139-.618.329-.856.567a2.465 2.465 0 0 0-.563.84 2.53 2.53 0 0 0-.205 1.02v.019c0 .366.066.713.209 1.035.139.321.325.603.57.844.238.238.523.432.856.574.332.14.694.212 1.085.212.392 0 .754-.07 1.086-.208a2.594 2.594 0 0 0 1.422-1.411c.136-.319.205-.659.205-1.024v-.022c0-.358-.07-.698-.208-1.024a2.674 2.674 0 0 0-1.433-1.415 2.744 2.744 0 0 0-1.09-.212M241.98 34.81h1.178v-1.148c.16.387.391.69.687.925.296.23.666.336 1.115.318v-1.236h-.066c-.255 0-.493-.04-.705-.124a1.46 1.46 0 0 1-.549-.377 1.715 1.715 0 0 1-.358-.632 2.913 2.913 0 0 1-.124-.881v-1.942h-1.177zM249.69 35.367h-2.143v1.1h5.48v-1.1h-2.142v-5.652h-1.196zM256.702 32.618a2.054 2.054 0 0 1-.125.526 1.404 1.404 0 0 1-.26.424 1.213 1.213 0 0 1-.91.391c-.358 0-.654-.124-.892-.369-.234-.248-.376-.574-.428-.972zm-1.156-3.02c-.369 0-.713.065-1.03.193a2.493 2.493 0 0 0-1.386 1.375 2.772 2.772 0 0 0-.198 1.075v.022c0 .366.059.71.183 1.031.12.322.292.603.515.845.223.24.483.431.787.566.3.14.636.209 1.001.209.406 0 .76-.073 1.064-.223a2.13 2.13 0 0 0 .764-.596 2.62 2.62 0 0 0 .457-.874c.106-.33.154-.68.154-1.046 0-.051 0-.106-.004-.16l-.011-.165h-3.748c.07-.42.234-.742.501-.965.264-.22.589-.33.966-.33.292 0 .544.052.756.154.209.102.42.252.626.453l.683-.606a2.72 2.72 0 0 0-.87-.695c-.336-.176-.742-.263-1.21-.263M261.19 29.599c-.38 0-.728.07-1.05.208a2.574 2.574 0 0 0-.84.563c-.235.238-.421.52-.556.841a2.744 2.744 0 0 0-.198 1.024v.018c0 .358.07.702.198 1.027.135.326.321.607.555.849.238.241.52.431.845.574.325.142.676.212 1.056.212.483 0 .882-.08 1.2-.242.321-.16.596-.372.837-.636l-.728-.782c-.179.186-.369.34-.574.457-.2.12-.45.18-.746.18-.212 0-.409-.045-.588-.129a1.456 1.456 0 0 1-.46-.35 1.503 1.503 0 0 1-.304-.516 1.708 1.708 0 0 1-.114-.626v-.018c0-.227.037-.439.114-.636a1.492 1.492 0 0 1 .793-.874c.183-.088.391-.131.618-.131.278 0 .52.058.728.179.208.117.405.27.592.457l.706-.695a3.31 3.31 0 0 0-.86-.691c-.321-.175-.727-.263-1.224-.263M264.07 36.757h1.178v-2.749c.084.124.176.238.27.347.103.106.22.201.348.286.132.084.278.153.435.2.157.048.337.074.534.074.578 0 1.024-.18 1.338-.53.315-.355.472-.83.472-1.43v-3.24h-1.178v2.89c0 .394-.095.701-.281.917-.187.216-.453.322-.797.322-.34 0-.614-.11-.826-.333-.209-.223-.315-.53-.315-.929v-2.866h-1.177zM269.855 34.81h1.178v-.8c.084.123.175.237.274.343.098.11.215.205.347.289.128.084.274.153.432.2.157.048.336.074.537.074.574 0 1.02-.18 1.334-.53.315-.355.472-.83.472-1.43v-3.243h-1.177v2.889c0 .398-.095.705-.282.917-.186.22-.453.326-.797.326-.34 0-.614-.11-.826-.333-.205-.223-.314-.53-.314-.929v-2.87h-1.178zM278.082 30.613c.234 0 .45.044.64.132.186.084.347.2.482.35.135.147.238.319.307.516.07.198.103.402.103.622v.018c0 .227-.037.439-.114.64a1.627 1.627 0 0 1-.318.519 1.537 1.537 0 0 1-2.234.004 1.51 1.51 0 0 1-.307-.516 1.899 1.899 0 0 1-.102-.625v-.022c0-.223.036-.435.113-.633.08-.193.183-.369.322-.519.139-.15.3-.27.49-.354a1.44 1.44 0 0 1 .618-.132m-.019-1.013a2.8 2.8 0 0 0-1.075.205c-.336.139-.621.329-.859.567a2.519 2.519 0 0 0-.563.84 2.53 2.53 0 0 0-.205 1.02v.019c0 .366.066.713.209 1.035.139.321.325.603.57.844.238.238.523.432.856.574.332.14.694.212 1.086.212.39 0 .753-.07 1.085-.208.333-.14.618-.33.86-.57.24-.242.424-.52.563-.841.135-.319.204-.659.204-1.024v-.022c0-.358-.07-.698-.208-1.024a2.674 2.674 0 0 0-1.433-1.415 2.744 2.744 0 0 0-1.09-.212M281.808 36.757h1.177v-7.041h-1.177zM286.718 30.613c.234 0 .45.044.64.132.187.084.348.2.483.35.135.147.234.319.307.516.07.198.102.402.102.622v.018c0 .227-.036.439-.113.64a1.627 1.627 0 0 1-.318.519 1.537 1.537 0 0 1-2.234.004 1.51 1.51 0 0 1-.307-.516 1.899 1.899 0 0 1-.102-.625v-.022a1.652 1.652 0 0 1 .435-1.152c.135-.15.3-.27.49-.354a1.44 1.44 0 0 1 .617-.132M286.7 29.6c-.387 0-.746.07-1.078.205-.333.139-.618.329-.856.567a2.465 2.465 0 0 0-.563.84 2.53 2.53 0 0 0-.205 1.02v.019c0 .366.066.713.209 1.035.139.321.325.603.566.844.242.238.527.432.86.574.332.14.694.212 1.085.212.392 0 .754-.07 1.086-.208.333-.14.618-.33.86-.57.24-.242.424-.52.563-.841.135-.319.204-.659.204-1.024v-.022c0-.358-.07-.698-.208-1.024a2.674 2.674 0 0 0-1.433-1.415 2.744 2.744 0 0 0-1.09-.212M292.756 31.104c.201 0 .391.033.574.102.183.066.344.165.479.29.135.124.241.273.322.442.08.171.12.358.12.566v.019c0 .212-.04.405-.12.574a1.42 1.42 0 0 1-.8.735 1.677 1.677 0 0 1-.575.098c-.205 0-.395-.033-.567-.099a1.322 1.322 0 0 1-.768-.724 1.387 1.387 0 0 1-.113-.573v-.022a1.388 1.388 0 0 1 .428-1.017c.128-.124.278-.223.457-.289.179-.07.362-.102.563-.102m-.095-2.954c-.852 0-1.609.205-2.278.603l.435.874c.27-.165.552-.296.848-.395.296-.095.618-.143.966-.143.519 0 .92.132 1.195.395.274.267.413.658.413 1.174v.398a2.662 2.662 0 0 0-.742-.676c-.281-.175-.632-.26-1.05-.26-.303 0-.592.055-.866.165-.278.11-.526.263-.738.468-.22.201-.392.45-.52.746a2.516 2.516 0 0 0-.193 1.005v.019c0 .373.066.709.194 1.009.127.3.3.548.519.753.212.2.46.358.742.468.278.106.567.16.863.16.427 0 .786-.083 1.064-.252a2.94 2.94 0 0 0 .72-.614v.764h1.166v-4.054c0-.849-.215-1.488-.643-1.92a2.153 2.153 0 0 0-.874-.515 3.97 3.97 0 0 0-1.221-.172M297.655 28.142c-.242 0-.46.026-.651.08-.19.06-.377.132-.556.227l.395.87c.113-.058.223-.106.333-.138a1.16 1.16 0 0 1 .354-.055c.169 0 .304.044.414.128.11.08.212.237.307.46l-2.12 5.097h1.246l1.444-3.784 1.324 3.784h1.217l-2.03-5.24a4.623 4.623 0 0 0-.317-.668 1.633 1.633 0 0 0-.37-.44 1.317 1.317 0 0 0-.442-.244 1.807 1.807 0 0 0-.548-.077M304.359 34.809h1.177v-5.097h-1.177zm-.048 1.89h1.265v-1.108h-1.265zM306.82 34.81h1.174v-.8c.087.123.175.237.274.343a1.78 1.78 0 0 0 .779.49c.157.047.336.073.537.073.578 0 1.02-.18 1.334-.53.315-.355.472-.83.472-1.43v-3.243h-1.177v2.889c0 .398-.092.705-.278.917-.19.22-.453.326-.8.326-.34 0-.615-.11-.827-.333-.205-.223-.314-.53-.314-.929v-2.87h-1.174zM314.864 36.468h5.016v-1.071h-3.839v-1.86h3.404v-1.072h-3.404v-2.75h-1.177zM323.159 30.613c.233 0 .45.044.64.132.186.084.347.2.482.35.135.147.234.319.307.516.07.198.102.402.102.622v.018c0 .227-.036.439-.113.64a1.627 1.627 0 0 1-.318.519 1.537 1.537 0 0 1-2.234.004 1.455 1.455 0 0 1-.307-.516 1.899 1.899 0 0 1-.102-.625v-.022a1.652 1.652 0 0 1 .435-1.152c.135-.15.3-.27.49-.354a1.44 1.44 0 0 1 .618-.132m-.019-1.013c-.387 0-.746.07-1.078.205-.333.139-.618.329-.856.567a2.465 2.465 0 0 0-.563.84 2.53 2.53 0 0 0-.205 1.02v.019c0 .366.066.713.209 1.035.139.321.325.603.566.844.242.238.527.432.86.574.332.14.694.212 1.085.212.392 0 .754-.07 1.086-.208a2.58 2.58 0 0 0 .856-.57 2.604 2.604 0 0 0 .768-1.865v-.022c0-.358-.066-.698-.205-1.024a2.674 2.674 0 0 0-1.433-1.415 2.745 2.745 0 0 0-1.09-.212M329.282 30.613c.234 0 .45.044.64.132.186.084.347.2.482.35.136.147.238.319.307.516.07.198.103.402.103.622v.018c0 .227-.037.439-.114.64a1.627 1.627 0 0 1-.318.519 1.537 1.537 0 0 1-2.234.004 1.51 1.51 0 0 1-.307-.516 1.899 1.899 0 0 1-.102-.625v-.022c0-.223.036-.435.113-.633.08-.193.183-.369.322-.519.139-.15.3-.27.49-.354a1.44 1.44 0 0 1 .618-.132m-.018-1.013a2.8 2.8 0 0 0-1.075.205c-.337.139-.622.329-.86.567a2.519 2.519 0 0 0-.563.84 2.53 2.53 0 0 0-.204 1.02v.019c0 .366.065.713.208 1.035.139.321.325.603.57.844.238.238.523.432.856.574.333.14.695.212 1.086.212.391 0 .753-.07 1.086-.208a2.594 2.594 0 0 0 1.422-1.411c.135-.319.205-.659.205-1.024v-.022c0-.358-.07-.698-.209-1.024a2.674 2.674 0 0 0-1.433-1.415 2.744 2.744 0 0 0-1.09-.212M335.355 30.622c.194 0 .38.04.556.117.183.077.336.186.471.332.136.147.245.315.322.516.084.197.12.42.12.665v.019c0 .245-.036.471-.12.672a1.542 1.542 0 0 1-.322.516 1.425 1.425 0 0 1-1.59.333 1.37 1.37 0 0 1-.464-.326 1.414 1.414 0 0 1-.318-.515 1.895 1.895 0 0 1-.114-.68v-.019c0-.245.037-.468.114-.669.073-.204.182-.376.318-.515a1.4 1.4 0 0 1 1.027-.446m-.274-1.013c-.304 0-.596.058-.878.175a2.178 2.178 0 0 0-.753.509c-.22.226-.395.5-.53.83a2.95 2.95 0 0 0-.205 1.13v.018c0 .424.066.8.198 1.13.131.328.307.603.526.83.216.222.468.394.757.508.285.117.578.175.881.175.413 0 .76-.091 1.035-.27a2.8 2.8 0 0 0 .695-.626v2.739h1.177v-7.042h-1.177l.01.848a2.635 2.635 0 0 0-.702-.676c-.277-.183-.625-.278-1.034-.278M338.929 28.808c.592.117.863.417.823.907h-.494v1.32h1.28v-1.12c0-.537-.125-.932-.373-1.177-.249-.24-.622-.383-1.112-.424zM348.084 32.396l-1.166 2.702-1.16-2.702zm-1.697 4.12h1.1l2.97-6.8h-1.254l-.688 1.627h-3.192l-.69-1.627h-1.218zM353.443 31.104c.197 0 .388.033.57.102.187.066.344.165.48.29a1.378 1.378 0 0 1 .445 1.008v.019a1.378 1.378 0 0 1-.446 1.016 1.385 1.385 0 0 1-.479.292 1.671 1.671 0 0 1-.57.1 1.464 1.464 0 0 1-1.027-.384 1.332 1.332 0 0 1-.311-.44 1.448 1.448 0 0 1-.11-.573v-.022a1.393 1.393 0 0 1 .424-1.016c.128-.125.282-.224.457-.29.18-.07.366-.102.567-.102m-.095-2.954c-.852 0-1.612.205-2.278.603l.435.874c.267-.165.552-.296.845-.395a3.15 3.15 0 0 1 .969-.143c.519 0 .917.132 1.195.395.274.267.413.658.413 1.174v.398c-.212-.277-.46-.5-.742-.676-.285-.175-.636-.26-1.053-.26-.303 0-.592.055-.866.165-.278.11-.523.263-.739.468-.216.201-.387.45-.515.746a2.455 2.455 0 0 0-.194 1.005v.019c0 .373.062.709.194 1.009.128.3.3.548.515.753.216.2.465.358.746.468.278.106.563.16.86.16.43 0 .789-.083 1.067-.252a2.92 2.92 0 0 0 .716-.614v.764h1.17v-4.054c0-.849-.215-1.488-.647-1.92a2.13 2.13 0 0 0-.874-.515 3.962 3.962 0 0 0-1.217-.172M357.328 34.81h1.177v-1.148c.16.387.391.69.687.925.296.23.666.336 1.115.318v-1.236h-.065c-.256 0-.49-.04-.706-.124a1.489 1.489 0 0 1-.548-.377 1.715 1.715 0 0 1-.359-.632 2.913 2.913 0 0 1-.124-.881v-1.942h-1.177zM361.098 34.809h1.178v-5.097h-1.178zm-.05 1.89h1.264v-1.108h-1.265zM365.904 29.599a2.654 2.654 0 0 0-1.894.771 2.676 2.676 0 0 0-.753 1.865v.018c0 .358.07.702.2 1.027.133.326.319.607.553.849.241.241.52.431.845.574.325.142.676.212 1.056.212.483 0 .881-.08 1.203-.242a2.84 2.84 0 0 0 .834-.636l-.728-.782c-.175.186-.366.34-.57.457-.205.12-.454.18-.746.18a1.39 1.39 0 0 1-.592-.129 1.456 1.456 0 0 1-.461-.35 1.564 1.564 0 0 1-.304-.516 1.705 1.705 0 0 1-.11-.626v-.018c0-.227.034-.439.11-.636.074-.201.18-.373.315-.523.132-.146.292-.267.483-.35.182-.089.39-.132.617-.132.275 0 .516.058.728.179.205.117.402.27.592.457l.702-.695a3.234 3.234 0 0 0-.855-.691c-.326-.175-.732-.263-1.225-.263M370.527 29.608c-.577 0-1.023.175-1.338.534-.314.35-.471.826-.471 1.426v3.243h1.177v-2.889c0-.398.095-.705.281-.921.19-.212.454-.322.801-.322.34 0 .61.113.823.333.208.22.318.53.318.929v2.87h1.173v-5.097h-1.173v.8a2.489 2.489 0 0 0-.629-.64c-.252-.178-.574-.266-.962-.266M374.575 36.757h1.177v-7.041h-1.177zM378.736 29.627c-.212 0-.406.026-.589.077-.183.051-.34.135-.475.252a1.14 1.14 0 0 0-.304.457 2 2 0 0 0-.106.71v2.683h-.65v1.002h.65v1.397h1.174v-1.397h1.371v-1.002h-1.37v-2.5c0-.224.058-.388.164-.487.11-.099.263-.15.464-.15.249 0 .493.059.72.176v-.958a1.903 1.903 0 0 0-.471-.19 2.12 2.12 0 0 0-.578-.07M382.46 29.608c-.578 0-1.024.175-1.338.534-.315.35-.472.826-.472 1.426v3.243h1.177v-2.889c0-.398.096-.705.282-.921.19-.212.453-.322.8-.322.34 0 .611.113.823.333.209.22.318.53.318.929v2.87h1.174v-5.097h-1.174v.8a2.535 2.535 0 0 0-.625-.64c-.256-.178-.577-.266-.965-.266M386.473 34.81h1.178v-1.148c.16.387.387.69.683.925.296.23.67.336 1.12.318v-1.236h-.067c-.256 0-.493-.04-.705-.124a1.46 1.46 0 0 1-.549-.377 1.715 1.715 0 0 1-.358-.632 2.913 2.913 0 0 1-.124-.881v-1.942h-1.178zM393.69 32.618a2.054 2.054 0 0 1-.125.526 1.404 1.404 0 0 1-.26.424 1.213 1.213 0 0 1-.91.391c-.358 0-.655-.124-.892-.369-.234-.248-.377-.574-.428-.972zm-1.156-3.02c-.37 0-.713.065-1.031.193a2.493 2.493 0 0 0-1.386 1.375 2.772 2.772 0 0 0-.197 1.075v.022c0 .366.058.71.182 1.031.121.322.293.603.512.845.227.24.487.431.79.566.3.14.636.209 1.002.209.406 0 .76-.073 1.064-.223a2.13 2.13 0 0 0 .764-.596 2.62 2.62 0 0 0 .457-.874 3.4 3.4 0 0 0 .157-1.046c0-.051-.004-.106-.007-.16l-.01-.165h-3.748c.07-.42.234-.742.5-.965.264-.22.59-.33.966-.33.292 0 .545.052.757.154.208.102.42.252.625.453l.683-.606a2.72 2.72 0 0 0-.87-.695c-.336-.176-.742-.263-1.21-.263M401.098 31.848a2.788 2.788 0 0 1-.527.143c-.2.04-.416.058-.64.058-.365 0-.654-.069-.859-.212a.67.67 0 0 1-.31-.577v-.022c0-.241.098-.432.285-.56a1.23 1.23 0 0 1 .702-.193c.194 0 .369.029.534.076.164.055.307.128.431.22.12.091.216.205.285.336a.967.967 0 0 1 .099.439zm-.03-2.131v.625a2.22 2.22 0 0 0-.661-.523 2.162 2.162 0 0 0-.987-.212c-.245 0-.476.037-.691.103-.223.069-.413.168-.582.3-.16.131-.292.295-.39.49-.1.197-.15.423-.15.68v.021c0 .282.05.527.153.735.102.212.245.384.431.523.183.139.399.241.655.307.252.07.53.102.822.102.311 0 .574-.018.79-.054.216-.04.42-.092.622-.158v.1c0 .35-.106.62-.326.807-.212.19-.523.282-.928.282-.29 0-.549-.03-.776-.088a5.373 5.373 0 0 1-.683-.23l-.318.936c.285.127.57.23.866.307a4.32 4.32 0 0 0 1.071.117c.76 0 1.328-.19 1.69-.567.369-.373.552-.903.552-1.583v-3.02zM403.43 34.81h1.173v-.8c.087.123.175.237.274.343a1.78 1.78 0 0 0 .779.49c.157.047.336.073.537.073.578 0 1.02-.18 1.335-.53.314-.355.475-.83.475-1.43v-3.243h-1.177v2.889c0 .398-.095.705-.282.917-.19.22-.453.326-.8.326-.34 0-.611-.11-.823-.333-.209-.223-.318-.53-.318-.929v-2.87h-1.174zM411.588 30.622a1.408 1.408 0 0 1 1.03.45c.132.146.242.314.323.515.08.197.117.42.117.665v.019c0 .245-.037.471-.117.672-.08.201-.19.373-.322.516a1.404 1.404 0 0 1-1.031.442 1.384 1.384 0 0 1-1.027-.435 1.465 1.465 0 0 1-.319-.515 1.895 1.895 0 0 1-.113-.68v-.019c0-.245.037-.468.113-.669a1.465 1.465 0 0 1 .786-.844c.176-.077.359-.117.56-.117m-.274-1.013c-.3 0-.596.058-.878.175a2.178 2.178 0 0 0-.753.509c-.22.226-.395.5-.53.83a2.95 2.95 0 0 0-.205 1.13v.018c0 .424.07.8.201 1.13.128.328.304.603.523.83.22.222.468.394.757.508.285.117.577.175.88.175.418 0 .761-.091 1.04-.27.273-.18.507-.388.69-.626v2.739h1.181v-7.042h-1.18l.01.848a2.62 2.62 0 0 0-.698-.676c-.282-.183-.625-.278-1.039-.278M417.74 36.468h5.016v-1.071h-3.843v-1.86h3.408v-1.072h-3.408v-2.75h-1.173zM426.034 30.613a1.5 1.5 0 0 1 1.122.483c.132.146.234.318.307.515.066.198.103.402.103.622v.018c0 .227-.04.439-.114.64-.08.197-.186.373-.321.519a1.522 1.522 0 0 1-1.12.483c-.23 0-.438-.044-.628-.132a1.596 1.596 0 0 1-.486-.347 1.448 1.448 0 0 1-.304-.516 1.902 1.902 0 0 1-.106-.625v-.022c0-.223.04-.435.114-.633.08-.193.186-.369.321-.519.14-.15.304-.27.49-.354.19-.088.395-.132.622-.132m-.022-1.013c-.384 0-.742.07-1.075.205-.333.139-.618.329-.86.567a2.519 2.519 0 0 0-.562.84 2.528 2.528 0 0 0-.201 1.02v.019c0 .366.065.713.208 1.035.135.321.322.603.567.844.241.238.526.432.855.574a2.81 2.81 0 0 0 1.09.212c.387 0 .753-.07 1.086-.208.329-.14.614-.33.855-.57a2.603 2.603 0 0 0 .768-1.865v-.022a2.615 2.615 0 0 0-.779-1.865 2.584 2.584 0 0 0-.863-.574 2.732 2.732 0 0 0-1.09-.212M429.715 34.81h1.174v-1.148c.16.387.39.69.687.925.296.23.665.336 1.115.318v-1.236h-.062c-.256 0-.494-.04-.706-.124a1.502 1.502 0 0 1-.552-.377 1.768 1.768 0 0 1-.358-.632 2.91 2.91 0 0 1-.124-.881v-1.942h-1.174zM436.927 32.618a2.059 2.059 0 0 1-.124.526c-.066.165-.15.307-.26.424-.11.12-.24.216-.39.285-.154.07-.326.106-.52.106-.358 0-.654-.124-.892-.369-.234-.248-.373-.574-.428-.972zm-1.155-3.02c-.37 0-.713.065-1.031.193a2.493 2.493 0 0 0-1.382 1.375 2.773 2.773 0 0 0-.201 1.075v.022c0 .366.058.71.183 1.031.12.322.292.603.515.845a2.378 2.378 0 0 0 1.788.775c.406 0 .76-.073 1.064-.223.307-.147.563-.344.764-.596a2.62 2.62 0 0 0 .457-.874c.106-.33.157-.68.157-1.046 0-.051-.005-.106-.007-.16-.005-.055-.008-.11-.01-.165h-3.745c.066-.42.23-.742.498-.965.267-.22.588-.33.965-.33.292 0 .545.052.757.154.208.102.42.252.625.453l.684-.606a2.72 2.72 0 0 0-.87-.695c-.337-.176-.743-.263-1.21-.263M440.766 29.619c-.366 0-.735.065-1.112.193a3.681 3.681 0 0 0-1.05.574l.524.794c.277-.205.559-.359.844-.468a2.46 2.46 0 0 1 .826-.158c.25 0 .443.052.582.15.139.1.208.23.208.399v.018a.36.36 0 0 1-.091.249.721.721 0 0 1-.252.186c-.103.048-.23.099-.366.143-.139.047-.282.091-.428.135-.19.051-.373.113-.567.183-.19.07-.358.164-.511.274-.15.113-.275.252-.37.42-.098.165-.142.37-.142.615v.022c0 .234.044.45.139.643.091.194.219.355.384.49.164.135.358.238.577.307.223.073.46.106.713.106.318 0 .64-.05.973-.157.325-.102.625-.245.895-.428l-.464-.833a3.72 3.72 0 0 1-.742.354 2.096 2.096 0 0 1-.695.128c-.223 0-.402-.047-.526-.142a.444.444 0 0 1-.187-.366v-.022c0-.088.03-.164.099-.234a.818.818 0 0 1 .252-.183c.106-.054.23-.106.37-.153.139-.048.281-.095.427-.14.19-.058.373-.127.56-.204.186-.077.354-.168.508-.285.15-.11.27-.249.373-.406.095-.16.142-.358.142-.588v-.019c0-.27-.047-.504-.142-.702a1.414 1.414 0 0 0-.402-.497 1.789 1.789 0 0 0-.604-.296 2.59 2.59 0 0 0-.745-.103M445.353 29.627c-.212 0-.406.026-.588.077-.183.051-.34.135-.476.252-.131.117-.23.267-.307.457-.07.19-.102.428-.102.71v2.683h-.65v1.002h.65v1.397h1.173v-1.397h1.372v-1.002h-1.372v-2.5c0-.224.059-.388.165-.487.11-.099.263-.15.464-.15.249 0 .494.059.72.176v-.958a1.903 1.903 0 0 0-.471-.19 2.12 2.12 0 0 0-.578-.07M447.353 34.81h1.177v-1.148c.161.387.391.69.687.925.297.23.666.336 1.116.318v-1.236h-.066c-.256 0-.494-.04-.706-.124a1.489 1.489 0 0 1-.548-.377 1.715 1.715 0 0 1-.359-.632 2.91 2.91 0 0 1-.124-.881v-1.942h-1.177zM452.34 28.142c-.24 0-.46.026-.65.08a3.25 3.25 0 0 0-.552.227l.391.87a1.87 1.87 0 0 1 .337-.138c.11-.037.23-.055.35-.055.169 0 .308.044.414.128.11.08.215.237.31.46l-2.124 5.097h1.247l1.444-3.784 1.324 3.784h1.217l-2.029-5.24a3.962 3.962 0 0 0-.318-.668 1.633 1.633 0 0 0-.37-.44 1.317 1.317 0 0 0-.442-.244 1.79 1.79 0 0 0-.548-.077M183.979 74.706c-.589 0-1.178-.479-1.31-1.075l-.442-1.989c-.131-.592.242-1.071.838-1.071h11.176l-7.122-32.156c-.23-1.045-.161-2.091.252-2.99l-.01.01c.511-1.195 2.094-3.13 2.986-3.966a.04.04 0 0 1 .015-.011c.033-.026.062-.063.088-.085l-.015.022c.786-.745 1.865-1.122 3.024-1.122h4.45c.595 0 1.18.479 1.315 1.071v.007l8.684 39.22h9.648c.593 0 1.178.479 1.306 1.071l.687 3.064zM147.164 74.706c-.593 0-1.181-.479-1.31-1.075l-7.805-35.216c-.234-1.045-.154-2.091.252-2.99l-.007.01c.512-1.191 2.091-3.126 2.984-3.963.014-.007.022-.014.022-.018.025-.022.058-.062.084-.08l-.015.018c.79-.742 1.865-1.12 3.024-1.12h23.154c.592 0 1.177.48 1.309 1.072l.68 3.064h-18.705l3.887 17.546h15.319v-.004c.592 0 1.184.483 1.316 1.071v.004l.676 3.06h-16.397l3.206 14.486h17.637c.592 0 1.18.479 1.309 1.071l.68 3.064zM82.617 64.464l-.01-.007-3.112-14.021c-.234-1.046-.154-2.091.249-2.99l-.007.014c.512-1.2 2.098-3.134 2.99-3.974.003 0 .007-.004.011-.008.03-.029.062-.062.084-.088l-.01.026c.79-.746 1.86-1.122 3.027-1.122v.003-.003h4.446c.592 0 1.177.479 1.309 1.07l7.125 32.15a88.106 88.106 0 0 1-16.101-11.05M127.962 67.972a20.15 20.15 0 0 0-.146-.735l-3.66-16.244c-.453-2.044-1.66-2.654-3.375-2.662h-6.873l5.016 22.295h6.683v-.003c1.276 0 2.724-.523 2.355-2.65m2.84 6.734H107.16c-.593 0-1.181-.483-1.31-1.075l-2.164-9.766v-.003l-1.952-8.786-3.686-16.661c-.23-1.05-.157-2.091.253-2.99l-.007.01c.512-1.2 2.095-3.13 2.987-3.97.004 0 .007-.004.007-.008l.091-.084-.018.022c.793-.746 1.868-1.126 3.027-1.126h4.45c.592 0 1.18.483 1.312 1.071v.004l2.852 12.891h11.056c5.96 0 11.923 4.881 13.24 10.84l1.944 8.787c1.324 5.963-2.475 10.844-8.438 10.844" style="fill:#00448c;fill-opacity:1;fill-rule:nonzero;stroke:none;stroke-width:3.65614" transform="matrix(1.33333 0 0 -1.33333 -105.82 137.523)"/><path d="m82.606 64.457.011.007a88.106 88.106 0 0 0 16.102 11.05c39.472 21.088 84.102 6.752 84.102 6.752s11.177 2.355 20.402 4.523C120.93 117.606 82.606 64.457 82.606 64.457" style="fill:#80c344;fill-opacity:1;fill-rule:nonzero;stroke:none;stroke-width:3.65614" transform="matrix(1.33333 0 0 -1.33333 -105.82 137.523)"/><path d="M172.896 98.373c-3.956 1.448-7.539 2.41-10.256 2.972-10.844 2.242-36.641 5.09-57.225-10.065-15.623-11.846-22.047-24.628-22.047-24.628 29.838 35.56 73.916 33.699 89.528 31.72" style="fill:#00a9a2;fill-opacity:1;fill-rule:nonzero;stroke:none;stroke-width:3.65614" transform="matrix(1.33333 0 0 -1.33333 -105.82 137.523)"/><path d="M439.748 72.117c1.718 0 2.54-.625 2.54-1.608 0-.896-.822-1.459-2.515-1.459-1.703 0-2.559.563-2.559 1.459 0 .961.797 1.608 2.534 1.608m0-5.407c3.272 0 5.44 1.335 5.44 3.799 0 2.486-2.208 3.886-5.44 3.886-3.188 0-5.48-1.4-5.48-3.886 0-2.483 2.292-3.799 5.48-3.799M402.23 56.502c-2.271 0-3.85.625-3.85 1.795 0 1.21 1.579 1.777 3.85 1.777 2.226 0 3.868-.545 3.868-1.777 0-1.188-1.642-1.795-3.869-1.795m-.022 5.949c-4.54 0-7.056-1.565-7.056-4.132 0-2.672 2.516-4.24 7.056-4.24 4.622 0 7.06 1.524 7.06 4.24 0 2.607-2.456 4.132-7.06 4.132M341.703 70.886c1.517-1.565 4.358-2.589 7.082-3.196l1.426 2.11c-2.903.563-6.83 1.923-6.83 3.967v1.13h-2.669a.569.569 0 0 1-.563-.567v-.563c0-2.066-4.11-3.426-6.892-3.949l1.554-2.19c2.72.67 5.444 1.711 6.892 3.258M242.959 65.937v1.693h5.246c.308 0 .56.252.56.563v1.92h-11.21v4.49h-2.665a.563.563 0 0 1-.563-.564v-4.95c0-.187.055-.377.164-.538l-.003.004c.143-.216.498-.563.691-.713h.004a.093.093 0 0 1 .022-.015l-.004.004a.92.92 0 0 1 .582-.201h3.94v-1.693h-7.41a.563.563 0 0 1-.563-.56v-.49c0-.186.055-.372.164-.533v.004c.14-.216.497-.56.688-.71l.004-.003c.007-.004.014-.011.022-.015l-.004.004a.938.938 0 0 1 .585-.201h17.121c.311 0 .563.252.563.56v1.944zM241.385 56.543c-2.68 0-4.234.626-4.234 1.752 0 1.192 1.554 1.817 4.234 1.817 2.53 0 4.153-.666 4.153-1.817 0-1.104-1.623-1.752-4.153-1.752m0 6.015c-5.031 0-7.426-1.88-7.426-4.241 0-2.42 2.413-4.238 7.426-4.238 4.866 0 7.323 1.817 7.323 4.238 0 2.362-2.48 4.24-7.323 4.24M264.014 63.96c.292.047.53.314.534.613v1.74c-3.31-.27-5.48-.394-8.037-.394v1.667h5.678c.311.004.56.252.56.563v5.788h-8.76a.564.564 0 0 1-.563-.567v-.336c0-.187.054-.373.16-.538l-.003.004c.142-.216.5-.56.694-.71v-.003l.022-.015-.003.004a.96.96 0 0 1 .585-.201h4.782v-1.711h-5.674a.563.563 0 0 1-.563-.563v-4.307c0-.187.055-.373.16-.534h-.002c.143-.212.5-.56.695-.71v-.003c.007-.004.014-.007.022-.014l-.003.007a.912.912 0 0 1 .53-.198c2.873.019 6.266.106 9.188.417M266.606 74.728a.561.561 0 0 1-.563-.563v-9.67a.92.92 0 0 1 .165-.535h-.004c.142-.212.497-.56.694-.709l.019-.018-.004.003a.973.973 0 0 1 .584-.197h1.17c.311 0 .564.252.564.56v11.129zM266.123 56.983h-7.444v2.629h7.444zm-9.992 5.071a.562.562 0 0 1-.56-.56v-5.498a.92.92 0 0 1 .165-.534l-.003.004c.139-.216.497-.563.69-.713l.004-.004c.007-.003.014-.01.022-.01h-.003a.943.943 0 0 1 .581-.202h11.645c.31 0 .56.256.56.567v6.95zM286.875 74.728a.56.56 0 0 1-.56-.563v-9.817c0-.19.052-.373.162-.534h-.004c.142-.212.5-.56.694-.71v-.003c.011-.004.015-.011.022-.015l-.004.004a.96.96 0 0 1 .585-.201h1.167c.314 0 .566.252.566.563v11.276zM276.032 61.846a.552.552 0 0 1-.556-.553v-.511c0-.18.055-.366.161-.52h-.004c.143-.212.501-.559.691-.709h.003a.09.09 0 0 1 .022-.018l-.004.004a.92.92 0 0 1 .556-.198h9.414v-3.59c0-.183.055-.362.154-.52.146-.211.505-.555.698-.709.007-.007.015-.01.019-.014l-.004.003a.971.971 0 0 1 .588-.2h1.167c.314 0 .566.252.566.562v6.973zM447.592 74.728a.56.56 0 0 1-.56-.563V62.838h-3.59a.566.566 0 0 1-.563-.563v-.216c0-.186.055-.373.161-.534.139-.212.5-.56.691-.709v-.004c.011-.003.015-.01.022-.014l-.005.003a.969.969 0 0 1 .585-.2h2.698v-.114c0-.19.052-.377.165-.538l-.005.004c.135-.216.497-.56.687-.71l.005-.003.019-.014v.003a.95.95 0 0 1 .581-.2h1.111c.311 0 .564.251.564.562v15.137zM294.755 74.247a.561.561 0 0 1-.563-.563v-.358c0-.187.055-.373.165-.534l-.004.004c.139-.22.497-.563.69-.713l.005-.004a.065.065 0 0 1 .018-.015l-.004.004a.938.938 0 0 1 .585-.2h13.18c.308 0 .56.251.56.562v1.817zM309.255 66.251c.31 0 .56.252.56.56v1.802h-2.841l.35 2.479h-3.173l-.267-2.479h-4.135l-.384 2.479h-3.067l.427-2.479h-2.383a.564.564 0 0 1-.556-.563v-.34c0-.19.051-.377.16-.537v.003c.14-.215.494-.56.688-.71l.004-.003c.007-.003.015-.01.022-.014l-.007.003a.971.971 0 0 1 .589-.2zM305.869 56.983h-8.059V58.8h8.059zM292.79 65.06a.561.561 0 0 1-.563-.563v-.461c0-.187.054-.377.164-.538l-.004.004c.139-.216.505-.563.691-.713.011-.003.015-.01.026-.014l-.007.003a.969.969 0 0 1 .585-.2h6.456v-1.36h-4.873a.557.557 0 0 1-.56-.56v-4.662c0-.186.048-.373.161-.534l-.003.004c.14-.216.498-.563.691-.713l.003-.004c.004-.003.015-.01.022-.01h-.007a.98.98 0 0 1 .589-.202h12.255c.311 0 .563.256.563.567v6.113h-5.524v1.36h7.352c.311 0 .563.252.563.563v1.92zM326.772 74.728a.56.56 0 0 1-.56-.563V55.85c0-.187.051-.377.161-.534.139-.212.497-.56.691-.71l.022-.017-.003.003a.96.96 0 0 1 .585-.2h1.188c.31 0 .567.251.567.562v19.773zM332.738 66.92a.561.561 0 0 1-.563-.564v-.424a.92.92 0 0 1 .164-.534v.004c.136-.216.498-.563.688-.713h.003c.004-.007.01-.011.022-.015l-.007.004a.949.949 0 0 1 .588-.201h6.457v-1.192h-4.88a.56.56 0 0 1-.564-.56v-.277c0-.187.059-.377.165-.538v.004c.139-.216.497-.56.69-.71h.008c.004-.007.007-.014.018-.018l-.007.004a.971.971 0 0 1 .589-.201h9.542v-1.002H335.21a.563.563 0 0 1-.563-.563v-3.656c0-.19.059-.377.165-.538v.004c.139-.216.497-.56.69-.713h.008c.003-.007.007-.01.018-.015l-.007.004a.971.971 0 0 1 .589-.201h12.723c.307 0 .567.252.567.563v1.733h-11.477v1.13h10.438c.315 0 .567.248.567.563v4.987h-5.524v1.192h7.352c.311 0 .56.252.56.563v1.879zM366.379 74.728a.56.56 0 0 1-.56-.563V55.85c0-.187.055-.377.165-.534.139-.212.494-.56.687-.71a.063.063 0 0 1 .026-.017l-.007.003a.977.977 0 0 1 .585-.2h1.192c.31 0 .563.251.563.562v19.773zM386.466 74.728a.563.563 0 0 1-.563-.563v-11.36a.95.95 0 0 1 .165-.538l-.004.004c.142-.216.497-.563.694-.713a.09.09 0 0 0 .018-.014l-.004.003a.946.946 0 0 1 .585-.2h1.112c.31 0 .563.251.563.562v12.819zM375.28 60.426a.561.561 0 0 1-.563-.563v-.42c0-.187.054-.377.164-.534.135-.216.494-.56.688-.71v-.003c.01-.004.018-.011.025-.015l-.007.004a.98.98 0 0 1 .589-.201h9.747v-2.216c0-.19.055-.376.16-.537v.003c.14-.215.498-.559.696-.712h.003a.029.029 0 0 1 .014-.015l-.004.003a.971.971 0 0 1 .589-.2h1.086c.31 0 .566.252.566.562v5.554zM402.758 71.364a.56.56 0 0 1 .552.56v1.905h-10.5a.56.56 0 0 1-.563-.56v-.446c0-.186.058-.373.164-.537v.003c.14-.212.498-.559.691-.709.007-.007.011-.015.019-.018l-.004.003a.98.98 0 0 1 .588-.2zM380.24 73.059v1.919h-2.527a.566.566 0 0 1-.567-.563v-1.356h-3.912a.563.563 0 0 1-.563-.563v-.213a.9.9 0 0 1 .168-.537l-.007.004c.143-.216.497-.563.695-.713.007-.008.015-.011.022-.015l-.004.004a.92.92 0 0 1 .581-.201h9.7c.307 0 .567.252.567.56v1.674zM427.787 67.378v7.348h-2.65a.56.56 0 0 1-.56-.563V55.85c0-.187.058-.373.164-.534l-.004.004c.14-.216.501-.563.691-.713l.007-.004c.004-.004.007-.01.015-.015l-.004.004a.96.96 0 0 1 .589-.197h1.192c.31 0 .559.252.559.563v9.81h2.976c.307 0 .563.251.563.562v2.048z" style="fill:#00448c;fill-opacity:1;fill-rule:nonzero;stroke:none;stroke-width:3.65614" transform="matrix(1.33333 0 0 -1.33333 -105.82 137.523)"/><path d="M433.717 65.668a.56.56 0 0 1-.552-.56v-.237a.95.95 0 0 1 .165-.538l-.005.004c.139-.212.5-.563.69-.713.009-.007.02-.011.023-.015l-.005.004a.941.941 0 0 1 .588-.201h2.976V62.26c0-.186.055-.373.165-.537l-.005.003c.143-.212.505-.559.695-.709h.005c.008-.007.014-.01.014-.018v.007a.935.935 0 0 1 .585-.205h1.09c.31 0 .563.253.563.564v2.131c1.96.062 3.78.187 5.422.417v2.256c-3.543-.38-7.733-.494-12.416-.501M439.134 57.295v2.716h-2.687a.564.564 0 0 1-.563-.566v-3.178c0-.186.054-.373.164-.533l-.005.003c.139-.216.5-.563.695-.713l.005-.003.018-.015-.005.007a.931.931 0 0 1 .585-.2h12.683c.31 0 .563.251.563.562v1.92zM403.208 65.876a29.597 29.597 0 0 0-1.39-.106l.205 4.428h-2.526a.586.586 0 0 1-.581-.545l-.125-4.07c-.654-.021-1.082-.04-1.755-.065l-.128 4.68h-2.526a.547.547 0 0 1-.545-.548l.15-4.216h-1.605a.56.56 0 0 1-.563-.56v-.34c0-.186.051-.372.16-.533.14-.216.498-.56.692-.713.01-.004.018-.007.022-.015l-.004.008a.938.938 0 0 1 .53-.198c3.832.022 7.294.15 10.288.49.308.037.56.322.56.629V65.957z" style="fill:#00448c;fill-opacity:1;fill-rule:nonzero;stroke:none;stroke-width:3.65614" transform="matrix(1.33333 0 0 -1.33333 -105.82 137.523)"/><path d="M406.532 74.728a.56.56 0 0 1-.56-.563v-2.297h-1.82a.566.566 0 0 1-.552-.563v-.402c0-.186.058-.376.164-.534h-.004c.143-.212.505-.559.699-.709v-.004c.007-.003.01-.01.018-.014l-.004.004a.953.953 0 0 1 .585-.202h.914v-1.316h-1.806a.566.566 0 0 1-.567-.56v-.467a.993.993 0 0 1 .161-.516v.004c.139-.216.5-.563.695-.713h.004c.007-.004.01-.01.018-.014l-.007.003a.956.956 0 0 1 .541-.201h.962v-1.4a.92.92 0 0 1 .164-.534l-.004.004c.14-.216.497-.563.691-.713v-.004c.011-.004.015-.011.022-.015l-.004.004a.957.957 0 0 1 .585-.197h1.17c.307 0 .563.252.563.563v11.356zM376.394 67.274c0 .71 1.104 1.086 2.19 1.086 1.287 0 2.226-.377 2.226-1.086 0-.607-.9-.983-2.226-.983-1.17 0-2.19.358-2.19.983m3.824-3.674v.753c2.205.355 3.598 1.459 3.598 2.921 0 2.048-2.212 3.09-5.232 3.09-3.09 0-5.14-1.108-5.14-3.09 0-1.502 1.476-2.607 3.703-2.943v-.834c-1.634-.043-4.548-.065-4.548-.065a.563.563 0 0 1-.56-.563v-.213a.92.92 0 0 1 .165-.533c.135-.212.49-.56.687-.713l.022-.015-.004.007a.92.92 0 0 1 .56-.2c4.09.01 7.868.083 10.986.486a.667.667 0 0 1 .545.636v1.67a79.06 79.06 0 0 0-4.782-.394M280.26 70.782v3.404h-2.607a.564.564 0 0 1-.563-.567V70.76c0-2.636-2.38-4.34-4.779-5.59-.274-.143-.322-.464-.113-.71l1.37-1.634c1.968 1.024 4.114 2.38 5.24 4.03 1.225-1.503 3.13-2.673 5.05-3.4l1.308 2.145c-2.37 1.006-4.906 2.487-4.906 5.181M313.99 73.306a.56.56 0 0 1-.56-.563v-.522c0-.19.051-.377.161-.538v.004c.139-.216.497-.563.687-.713h.004a.056.056 0 0 1 .022-.018l-.007.003a.975.975 0 0 1 .589-.197h5.33c-.175-4.464-2.5-7.33-7.25-10.084l.015.008c-.281-.143-.292-.476-.084-.724l1.656-1.814c5.236 2.925 8.958 6.852 9.038 15.159zM353.6 73.306a.566.566 0 0 1-.567-.563v-.522c0-.19.055-.377.168-.538l-.004.004c.14-.216.498-.563.691-.713a.063.063 0 0 1 .026-.018l-.01.003a.967.967 0 0 1 .588-.197h5.33c-.175-4.464-2.497-7.33-7.246-10.084l.01.008c-.277-.143-.292-.476-.083-.724l1.656-1.814c5.235 2.925 8.957 6.852 9.041 15.159zM412.927 73.306a.56.56 0 0 1-.556-.563v-.522c0-.19.051-.377.16-.538v.004c.14-.216.494-.563.688-.713h.004c.004-.007.015-.015.018-.018v.003a.947.947 0 0 1 .582-.197h5.13c-.198-4.464-2.311-7.327-7.042-10.084-.267-.139-.282-.453-.1-.698l1.683-1.832c5.217 2.925 8.752 6.852 8.83 15.159zM333.48 69.51l.147-.21c-.253.363-.12.571.183.63l-.552-.114.135-.183z" style="fill:#00448c;fill-opacity:1;fill-rule:nonzero;stroke:none;stroke-width:3.65614" transform="matrix(1.33333 0 0 -1.33333 -105.82 137.523)"/></svg>