<svg xmlns="http://www.w3.org/2000/svg" xml:space="preserve" width="848.46405" height="200" viewBox="0 0 848.46406 200"><defs><radialGradient id="b" cx="0" cy="0" r="1" fx="0" fy="0" gradientTransform="matrix(13.55122 0 0 -13.55122 59.413 629.96)" gradientUnits="userSpaceOnUse" spreadMethod="pad"><stop offset="0" style="stop-opacity:1;stop-color:#c8e1f6"/><stop offset="0.391799" style="stop-opacity:1;stop-color:#51bcec"/><stop offset="0.87780479" style="stop-opacity:1;stop-color:#51bcec"/><stop offset="1" style="stop-opacity:1;stop-color:#004c9c"/></radialGradient><radialGradient id="d" cx="0" cy="0" r="1" fx="0" fy="0" gradientTransform="matrix(10.67051 0 0 -5.82898 59.644 624.566)" gradientUnits="userSpaceOnUse" spreadMethod="pad"><stop offset="0" style="stop-opacity:1;stop-color:#89bd24"/><stop offset="0.75981862" style="stop-opacity:1;stop-color:#89bd24"/><stop offset="1" style="stop-opacity:1;stop-color:#297439"/></radialGradient><clipPath id="a" clipPathUnits="userSpaceOnUse"><path d="M46.947 631.112c0-1.438.237-2.927.924-4.104 1.196-2.052 3.303-3.21 5.484-4.126a15.46 15.46 0 0 1 1.611-.576c-3.213 1.63-5.419 4.965-5.419 8.806 0 5.44 4.426 9.866 9.865 9.866 5.44 0 9.866-4.426 9.866-9.866 0-3.839-2.204-7.174-5.413-8.802.536.161 1.065.346 1.584.565.142.058.286.122.431.187.035.015.069.033.105.051l.13.06.187.088.16.082.136.071c.04.019.08.039.118.06.074.038.145.078.218.118l.106.059.082.045c.099.055.194.114.291.17l.048.03.062.035c.103.064.207.129.31.196l.039.025c.013.008.027.015.039.024.11.071.218.146.326.218l.058.039c.102.071.211.15.335.239l.038.029c.109.08.223.165.343.259l.019.015c.115.088.23.182.35.282l.008.006c.646.535 1.15 1.03 1.568 1.75.686 1.176.923 2.664.923 4.099 0 6.874-5.593 12.467-12.467 12.467-6.874 0-12.465-5.593-12.465-12.467"/></clipPath><clipPath id="c" clipPathUnits="userSpaceOnUse"><path d="m69.78 624.793-.007-.007c-.128-.105-.246-.2-.364-.292l-.018-.013c-.13-.102-.246-.191-.361-.274l-.039-.03a15.533 15.533 0 0 0-.35-.248l-.056-.039c-.136-.094-.242-.162-.341-.228-.016-.009-.031-.02-.049-.029l-.032-.022a28.872 28.872 0 0 0-.324-.204 1.537 1.537 0 0 0-.069-.039l-.043-.027c-.099-.06-.202-.119-.303-.176-.029-.017-.06-.036-.091-.05l-.102-.057c-.077-.043-.152-.086-.229-.125l-.127-.066-.133-.069c-.056-.027-.113-.057-.17-.084a5.102 5.102 0 0 0-.198-.094l-.123-.06a12.971 12.971 0 0 0-.565-.25 16.152 16.152 0 0 0-6.276-1.256c-2.181 0-4.299.425-6.293 1.264a16.342 16.342 0 0 0-4.801 3.115c2.071-4.026 6.266-6.787 11.096-6.787 4.833 0 9.031 2.763 11.099 6.793a15.47 15.47 0 0 0-.731-.646"/></clipPath></defs><path d="M0 0c0-7.401-6-13.399-13.398-13.399-7.4 0-13.4 5.998-13.4 13.399 0 7.399 6 13.399 13.4 13.399C-6 13.399 0 7.399 0 0" style="fill:#fff;fill-opacity:1;fill-rule:nonzero;stroke:none" transform="matrix(7.46324 0 0 -7.46324 200 100)"/><path d="m0 0-.475-1.549H.47Zm.999-3.127-.217.658H-.795l-.237-.658h-1.245l1.815 4.535h.918l1.801-4.535z" style="fill:#37aae1;fill-opacity:1;fill-rule:nonzero;stroke:none" transform="matrix(7.46324 0 0 -7.46324 58.84 95.678)"/><path d="M0 0v-1.062h.469c.48 0 .721.176.721.528C1.19-.179.934 0 .422 0Zm0-3.509h-1.107v4.535H.375c.657 0 1.121-.113 1.393-.34.354-.294.531-.696.531-1.203 0-.49-.159-.882-.477-1.176-.28-.263-.722-.395-1.325-.395H0Z" style="fill:#37aae1;fill-opacity:1;fill-rule:nonzero;stroke:none" transform="matrix(7.46324 0 0 -7.46324 86.648 92.829)"/><path d="M0 0h-1.107v4.535h2.474V3.509H0v-.755h1.319V1.727H0Z" style="fill:#37aae1;fill-opacity:1;fill-rule:nonzero;stroke:none" transform="matrix(7.46324 0 0 -7.46324 116.993 119.016)"/><path d="M0 0c.109-.133.183-.258.225-.378.04-.12.067-.291.081-.515H-.843c-.04.291-.179.436-.415.436a.42.42 0 0 1-.283-.102.312.312 0 0 1-.118-.244c0-.181.13-.33.388-.449l.556-.252c.382-.172.653-.357.813-.557.161-.2.243-.449.243-.749 0-.434-.14-.774-.419-1.018-.279-.245-.667-.367-1.166-.367-.508 0-.909.129-1.204.388-.294.257-.442.607-.442 1.045v.15h1.163c0-.187.042-.333.126-.445a.414.414 0 0 1 .347-.166c.128 0 .235.041.322.125a.419.419 0 0 1 .131.309c0 .195-.163.359-.486.49l-.525.217c-.218.096-.4.201-.545.32a1.148 1.148 0 0 0-.458.938c0 .376.154.694.462.953.309.258.685.387 1.129.387C-.693.516-.285.344 0 0" style="fill:#37aae1;fill-opacity:1;fill-rule:nonzero;stroke:none" transform="matrix(7.46324 0 0 -7.46324 151.704 88.361)"/><g clip-path="url(#a)" transform="matrix(7.46324 0 0 -7.46324 -343.396 4810.433)"><path d="M46.947 631.112c0-1.438.237-2.927.924-4.104 1.196-2.052 3.303-3.21 5.484-4.126a15.46 15.46 0 0 1 1.611-.576c-3.213 1.63-5.419 4.965-5.419 8.806 0 5.44 4.426 9.866 9.865 9.866 5.44 0 9.866-4.426 9.866-9.866 0-3.839-2.204-7.174-5.413-8.802.536.161 1.065.346 1.584.565.142.058.286.122.431.187.035.015.069.033.105.051l.13.06.187.088.16.082.136.071c.04.019.08.039.118.06.074.038.145.078.218.118l.106.059.082.045c.099.055.194.114.291.17l.048.03.062.035c.103.064.207.129.31.196l.039.025c.013.008.027.015.039.024.11.071.218.146.326.218l.058.039c.102.071.211.15.335.239l.038.029c.109.08.223.165.343.259l.019.015c.115.088.23.182.35.282l.008.006c.646.535 1.15 1.03 1.568 1.75.686 1.176.923 2.664.923 4.099 0 6.874-5.593 12.467-12.467 12.467-6.874 0-12.465-5.593-12.465-12.467" style="fill:url(#b);stroke:none"/></g><g clip-path="url(#c)" transform="matrix(7.46324 0 0 -7.46324 -343.396 4810.433)"><path d="m69.78 624.793-.007-.007c-.128-.105-.246-.2-.364-.292l-.018-.013c-.13-.102-.246-.191-.361-.274l-.039-.03a15.533 15.533 0 0 0-.35-.248l-.056-.039c-.136-.094-.242-.162-.341-.228-.016-.009-.031-.02-.049-.029l-.032-.022a28.872 28.872 0 0 0-.324-.204 1.537 1.537 0 0 0-.069-.039l-.043-.027c-.099-.06-.202-.119-.303-.176-.029-.017-.06-.036-.091-.05l-.102-.057c-.077-.043-.152-.086-.229-.125l-.127-.066-.133-.069c-.056-.027-.113-.057-.17-.084a5.102 5.102 0 0 0-.198-.094l-.123-.06a12.971 12.971 0 0 0-.565-.25 16.152 16.152 0 0 0-6.276-1.256c-2.181 0-4.299.425-6.293 1.264a16.342 16.342 0 0 0-4.801 3.115c2.071-4.026 6.266-6.787 11.096-6.787 4.833 0 9.031 2.763 11.099 6.793a15.47 15.47 0 0 0-.731-.646" style="fill:url(#d);stroke:none"/></g><g style="fill:#646363;fill-opacity:1"><path d="M0 0c.167-.299.399-.582.708-.849a4.157 4.157 0 0 1 1.304-.755l.588.911c-.277.121-.53.265-.763.429a3.176 3.176 0 0 0-.601.549c-.168.204-.298.43-.39.678a2.356 2.356 0 0 0-.138.816v.242h1.543v.997h-4.38v-.997h1.421v-.242c0-.295-.046-.568-.138-.816a2.313 2.313 0 0 0-.389-.678 3.176 3.176 0 0 0-.601-.549 4.446 4.446 0 0 0-.763-.429l.587-.911c.497.181.93.432 1.304.755.31.267.542.55.708.849" style="fill:#646363;fill-opacity:1;fill-rule:nonzero;stroke:none" transform="matrix(7.46324 0 0 -7.46324 405.465 71.014)"/></g><g style="fill:#646363;fill-opacity:1"><path d="M0 0h2.682v1.072H-2.38c-.117 0-.2.02-.248.058-.031.025-.049.071-.06.128l-.001 1.764-1.637.002a.704.704 0 0 0 .26-.307.885.885 0 0 0 .082-.356V.811c0-.247.078-.444.234-.59.156-.147.363-.221.623-.221h1.84v-.818h-3.546v-1.119h8.38v1.119H0Z" style="fill:#646363;fill-opacity:1;fill-rule:nonzero;stroke:none" transform="matrix(7.46324 0 0 -7.46324 281.545 69.528)"/></g><g style="fill:#646363;fill-opacity:1"><path d="M0 0c-.326-.167-.779-.252-1.357-.252-.572 0-1.028.085-1.369.252-.341.169-.512.388-.512.656 0 .283.171.506.512.667.341.161.797.242 1.369.242.578 0 1.031-.081 1.357-.242.327-.161.49-.384.49-.667C.49.388.327.169 0 0m1.079 1.949a3.767 3.767 0 0 1-1.043.389 6.26 6.26 0 0 1-1.404.141 6.33 6.33 0 0 1-1.41-.141 3.855 3.855 0 0 1-1.055-.389 1.965 1.965 0 0 1-.66-.581 1.242 1.242 0 0 1-.226-.712c0-.252.076-.491.226-.715a1.88 1.88 0 0 1 .66-.58 3.89 3.89 0 0 1 1.055-.384 6.322 6.322 0 0 1 1.41-.143c.526 0 .993.048 1.404.143a3.8 3.8 0 0 1 1.043.384c.286.162.504.356.654.58a1.235 1.235 0 0 1 0 1.427 1.97 1.97 0 0 1-.654.581" style="fill:#646363;fill-opacity:1;fill-rule:nonzero;stroke:none" transform="matrix(7.46324 0 0 -7.46324 287.117 105.765)"/></g><g style="fill:#646363;fill-opacity:1"><path d="M0 0a1.25 1.25 0 0 0-.229-.408A1.074 1.074 0 0 0-.6-.695a1.088 1.088 0 0 0-.5-.108 1.098 1.098 0 0 0-.873.395A1.269 1.269 0 0 0-2.202 0a1.46 1.46 0 0 0 0 .945c.053.153.128.289.229.409.1.122.224.216.37.289.146.071.314.107.503.107a1.104 1.104 0 0 0 .871-.396c.101-.12.177-.256.229-.409A1.445 1.445 0 0 0 0 0m2.447 3.085a.62.62 0 0 0 .248-.288.883.883 0 0 0 .093-.365V1h-1.54a2.345 2.345 0 0 1-.283.666c-.13.213-.294.397-.492.556a2.41 2.41 0 0 1-.697.382c-.266.091-.559.14-.876.14-.384 0-.725-.065-1.024-.195a2.408 2.408 0 0 1-.761-.512 2.252 2.252 0 0 1 0-3.128c.209-.212.462-.382.761-.512.299-.129.64-.194 1.024-.194.337 0 .642.049.915.151.273.1.51.235.711.404.202.169.366.367.494.595.126.227.212.463.256.711h1.512v-2.028l1.293.004.002 5.044z" style="fill:#646363;fill-opacity:1;fill-rule:nonzero;stroke:none" transform="matrix(7.46324 0 0 -7.46324 342.567 68.61)"/></g><g style="fill:#646363;fill-opacity:1"><path d="M0 0c-.301-.177-.711-.267-1.23-.267-.52 0-.932.09-1.236.267-.305.178-.457.4-.457.671 0 .289.152.522.457.704.304.18.716.27 1.236.27.519 0 .929-.09 1.23-.27C.3 1.193.451.96.451.671.451.4.3.178 0 0m1.066 2.006a3.345 3.345 0 0 1-.982.397 5.473 5.473 0 0 1-1.325.145 5.55 5.55 0 0 1-1.332-.145 3.431 3.431 0 0 1-.993-.397 1.873 1.873 0 0 1-.621-.596 1.348 1.348 0 0 1-.215-.728c0-.26.072-.502.215-.727.144-.226.35-.421.621-.586.271-.165.602-.297.993-.392a5.605 5.605 0 0 1 1.332-.144c.496 0 .938.048 1.325.144a3.4 3.4 0 0 1 .982.392c.267.165.472.36.616.586a1.347 1.347 0 0 1 0 1.455 1.894 1.894 0 0 1-.616.596" style="fill:#646363;fill-opacity:1;fill-rule:nonzero;stroke:none" transform="matrix(7.46324 0 0 -7.46324 428.088 105.46)"/></g><g style="fill:#646363;fill-opacity:1"><path d="M0 0a.865.865 0 0 0 .092-.365v-1.27h-1.454v-.935H.092v-2.229h1.287v4.473c0 .011-.003.021-.003.031v.582H.725L.716.288h-.964A.615.615 0 0 0 0 0" style="fill:#646363;fill-opacity:1;fill-rule:nonzero;stroke:none" transform="matrix(7.46324 0 0 -7.46324 431.776 47.736)"/></g><g style="fill:#646363;fill-opacity:1"><path d="M0 0h-3.406c-.117 0-.195.027-.234.083a.456.456 0 0 0-.058.258v.488H0Zm.622 2.575h-.957a.611.611 0 0 0 .246-.286.89.89 0 0 0 .089-.34v-.176h-3.698v.801h-.633l-.026.001h-.958a.6.6 0 0 0 .246-.286.86.86 0 0 0 .092-.362V.562l.001.002V.029c0-.332.084-.574.249-.73a.882.882 0 0 1 .629-.235h5.384v3.51H.64l-.018.001" style="fill:#646363;fill-opacity:1;fill-rule:nonzero;stroke:none" transform="matrix(7.46324 0 0 -7.46324 363.371 106.392)"/></g><g style="fill:#646363;fill-opacity:1"><path d="M0 0c.035-.144.055-.267.055-.371v-4.242h1.187v1.856h.887v-1.888h1.208v.244h.001V.486h-.645l-.008.001h-.877a.596.596 0 0 0 .248-.301c.048-.131.073-.245.073-.342v-1.665h-.887L1.246.324-.22.321A.51.51 0 0 0 0 0" style="fill:#646363;fill-opacity:1;fill-rule:nonzero;stroke:none" transform="matrix(7.46324 0 0 -7.46324 488.796 49.222)"/></g><g style="fill:#646363;fill-opacity:1"><path d="M0 0a1.74 1.74 0 0 1 .272-.453c.124-.152.265-.295.425-.428.158-.133.329-.254.511-.361.182-.106.36-.19.536-.248l.497.711c-.533.266-.94.588-1.218.965-.28.376-.436.84-.468 1.393h1.481v.936H.564v.448c0 .01-.003.019-.003.028v.595H-.985a.373.373 0 0 0 .142-.131.743.743 0 0 0 .082-.176 1.258 1.258 0 0 0 .059-.345v-.419h-1.443v-.936h1.443C-.735 1.04-.891.577-1.17.191c-.279-.386-.692-.723-1.238-1.009l.642-.828c.411.188.775.427 1.093.716.319.289.543.599.673.93" style="fill:#646363;fill-opacity:1;fill-rule:nonzero;stroke:none" transform="matrix(7.46324 0 0 -7.46324 471.38 72.866)"/></g><g style="fill:#646363;fill-opacity:1"><path d="M0 0c-.117 0-.2.02-.249.059-.046.035-.068.11-.071.217v.82h3.38V0Zm2.168-.936h2.178l-.002 4.578-1.664.002c.253-.195.38-.499.38-.915v-.698H-.32v1.555h-1.668c.254-.195.38-.501.38-.917V.029c0-.332.083-.576.249-.732a.887.887 0 0 1 .628-.233H.606v-1.656h-3.21v-1.101h8.029v1.101H2.168Z" style="fill:#646363;fill-opacity:1;fill-rule:nonzero;stroke:none" transform="matrix(7.46324 0 0 -7.46324 542.944 75.84)"/></g><g style="fill:#646363;fill-opacity:1"><path d="M0 0c.173.199.415.299.727.299.317 0 .562-.1.73-.299.169-.197.253-.439.253-.725 0-.293-.084-.535-.253-.726-.168-.192-.413-.287-.73-.287-.312 0-.554.095-.727.287a1.049 1.049 0 0 0-.258.726c0 .286.087.528.258.725m.727-2.674c.336 0 .641.051.911.151.269.101.498.238.687.41.187.173.331.373.428.604.098.23.146.478.146.745 0 .539-.191.991-.574 1.354h1.023v.936H1.35L1.352 2.6-.2 2.598a.64.64 0 0 0 .248-.311.946.946 0 0 0 .084-.342v-.419h-2.047V.59h1.034a1.689 1.689 0 0 1-.425-.608 1.98 1.98 0 0 1-.141-.746c0-.267.049-.515.146-.745.097-.231.24-.431.429-.604.188-.172.416-.309.682-.41.266-.1.572-.151.917-.151" style="fill:#646363;fill-opacity:1;fill-rule:nonzero;stroke:none" transform="matrix(7.46324 0 0 -7.46324 602.29 64.907)"/></g><g style="fill:#646363;fill-opacity:1"><path d="m0 0-5.644.01v-.936h4.385l-.012-2.281h-5.61v-1.181h8.38v1.181H.016Z" style="fill:#646363;fill-opacity:1;fill-rule:nonzero;stroke:none" transform="matrix(7.46324 0 0 -7.46324 707.289 49.077)"/></g><g style="fill:#646363;fill-opacity:1"><path d="M0 0c.305.149.718.225 1.238.225S2.17.149 2.475 0c.305-.15.458-.371.458-.663 0-.293-.153-.514-.458-.663-.305-.15-.717-.223-1.237-.223-.52 0-.933.073-1.238.223-.304.149-.457.37-.457.663 0 .292.153.513.457.663m-1.076-2.008c.267-.169.595-.301.983-.394a5.677 5.677 0 0 1 1.331-.142c.499 0 .943.048 1.33.142.389.093.717.225.984.394.266.168.468.368.603.599.135.231.203.479.203.746s-.068.515-.203.745a1.81 1.81 0 0 1-.603.6c-.267.168-.595.3-.984.394a5.662 5.662 0 0 1-1.33.142c-.499 0-.943-.048-1.331-.142a3.297 3.297 0 0 1-.983-.394 1.819 1.819 0 0 1-.603-.6 1.445 1.445 0 0 1-.202-.745c0-.267.067-.515.202-.746.136-.231.337-.431.603-.599" style="fill:#646363;fill-opacity:1;fill-rule:nonzero;stroke:none" transform="matrix(7.46324 0 0 -7.46324 746.106 54.747)"/></g><g style="fill:#646363;fill-opacity:1"><path d="M0 0c.179.162.44.243.785.243.338 0 .597-.081.779-.243a.768.768 0 0 0 .273-.596.764.764 0 0 0-.273-.599c-.182-.159-.441-.239-.779-.239-.345 0-.606.08-.785.239a.769.769 0 0 0-.268.599c0 .235.089.434.268.596m-1.326-1.297c.102-.221.247-.412.434-.574.189-.163.423-.291.702-.386.279-.094.602-.141.965-.141.357 0 .678.047.96.141.283.095.521.223.716.386a1.621 1.621 0 0 1 .594 1.275c0 .254-.05.49-.15.707a1.629 1.629 0 0 1-.444.571 2.164 2.164 0 0 1-.716.384 3.033 3.033 0 0 1-.96.141c-.363 0-.686-.047-.965-.141A2.073 2.073 0 0 1-.892.682a1.697 1.697 0 0 1-.434-.571 1.67 1.67 0 0 1-.15-.707c0-.246.05-.479.15-.701" style="fill:#646363;fill-opacity:1;fill-rule:nonzero;stroke:none" transform="matrix(7.46324 0 0 -7.46324 807.423 55.112)"/></g><g style="fill:#646363;fill-opacity:1"><path d="M0 0c-.048.039-.072.117-.072.234v1.238h-.665l-.009.001h-.958a.611.611 0 0 0 .247-.286.878.878 0 0 0 .093-.363v-.896l.005.005v-.119c0-.246.078-.443.234-.589.156-.146.364-.219.624-.219h5.386v.935H.25C.133-.059.048-.039 0 0" style="fill:#646363;fill-opacity:1;fill-rule:nonzero;stroke:none" transform="matrix(7.46324 0 0 -7.46324 811.93 105.226)"/></g><g style="fill:#646363;fill-opacity:1"><path d="M0 0v-1.09h1.286V0h2.301v.936H-2.04V0Z" style="fill:#646363;fill-opacity:1;fill-rule:nonzero;stroke:none" transform="matrix(7.46324 0 0 -7.46324 808.695 82.537)"/></g><g style="fill:#646363;fill-opacity:1"><path d="m0 0-1.632.002a.616.616 0 0 0 .249-.288.88.88 0 0 0 .092-.365v-2.135h-1.247v-.935h1.247v-1.716h1.286z" style="fill:#646363;fill-opacity:1;fill-rule:nonzero;stroke:none" transform="matrix(7.46324 0 0 -7.46324 645.273 45.6)"/></g><g style="fill:#646363;fill-opacity:1"><path d="m0 0-1.635.003a.609.609 0 0 0 .248-.288.853.853 0 0 0 .093-.365v-4.756h-1.495v-.936h1.495v-.846h1.287z" style="fill:#646363;fill-opacity:1;fill-rule:nonzero;stroke:none" transform="matrix(7.46324 0 0 -7.46324 848.464 45.607)"/></g><g style="fill:#646363;fill-opacity:1"><path d="M0 0v-.879h-3.406c-.117 0-.199.02-.249.059-.048.039-.073.117-.073.234V.428h3.73zm1.285 1.348H.604a1.345 1.345 0 0 1-.195.014h-5.423V-.85c0-.332.083-.574.248-.73a.883.883 0 0 1 .629-.234h5.423v2.33l-.001.011z" style="fill:#646363;fill-opacity:1;fill-rule:nonzero;stroke:none" transform="matrix(7.46324 0 0 -7.46324 635.638 99.833)"/></g><g style="fill:#646363;fill-opacity:1"><path d="M0 0c-.117 0-.2.02-.248.059-.049.039-.074.117-.074.233v1.18h3.506L3.186 0Zm4.471 2.422-6.089-.016V.029c0-.331.083-.576.249-.73A.88.88 0 0 1-.74-.935h5.213z" style="fill:#646363;fill-opacity:1;fill-rule:nonzero;stroke:none" transform="matrix(7.46324 0 0 -7.46324 676.084 105.955)"/></g><g style="fill:#646363;fill-opacity:1"><path d="M0 0h-5.167v-.936h5.063l.004-.515V-3.43h1.287v.632h.003V.008H0Z" style="fill:#646363;fill-opacity:1;fill-rule:nonzero;stroke:none" transform="matrix(7.46324 0 0 -7.46324 504.849 88.288)"/></g><g style="fill:#646363;fill-opacity:1"><path d="M0 0c.579 0 1.03-.081 1.358-.242.326-.161.49-.384.49-.667 0-.269-.164-.487-.49-.656C1.03-1.732.579-1.817 0-1.817c-.57 0-1.027.085-1.369.252-.341.169-.511.387-.511.656 0 .283.17.506.511.667C-1.027-.081-.57 0 0 0m.919 1.411V.854C.632.893.323.914-.01.914c-.346 0-.667-.022-.963-.063v.56zm3.07 0v.936h-8.083v-.936h1.768V.46l-.149-.076a1.966 1.966 0 0 1-.66-.581 1.241 1.241 0 0 1 0-1.427c.15-.225.37-.418.66-.58a3.915 3.915 0 0 1 1.054-.385A6.329 6.329 0 0 1-.01-2.731c.527 0 .994.047 1.404.142.41.094.758.222 1.043.385.285.162.503.355.654.58a1.241 1.241 0 0 1 0 1.427c-.151.22-.369.414-.654.581-.053.029-.109.056-.166.085v.942z" style="fill:#646363;fill-opacity:1;fill-rule:nonzero;stroke:none" transform="matrix(7.46324 0 0 -7.46324 755.549 94.082)"/></g><path d="M267.823 537.556h2.564v2.306h-2.564zM380.153 537.556h2.558v2.306h-2.558zM541.667 537.556h2.563v2.306h-2.563zM654.584 537.556h2.563v2.306h-2.563z" style="fill:#646363;fill-opacity:1;fill-rule:nonzero;stroke:none;stroke-width:5.59744" transform="matrix(1.33333 0 0 -1.33333 -61.349 859.4)"/><g style="fill:#646363;fill-opacity:1"><path d="m0 0 .272.775L.541 0Zm.087 1.437L-.961-1.086h.514l.28.65h.893l.269-.65h.517L.454 1.437Z" style="fill:#646363;fill-opacity:1;fill-rule:nonzero;stroke:none" transform="matrix(7.46324 0 0 -7.46324 254.32 150.311)"/></g><g style="fill:#646363;fill-opacity:1"><path d="M0 0a.524.524 0 0 0-.781 0 .61.61 0 0 0-.162.433c0 .166.053.305.16.419a.52.52 0 0 0 .389.168.511.511 0 0 0 .39-.176.593.593 0 0 0 .161-.421A.614.614 0 0 0 0 0m.199 1.134a.77.77 0 0 1-.632.299.926.926 0 0 1-.684-.291A.97.97 0 0 1-1.4.437c0-.279.095-.52.286-.722a.916.916 0 0 1 .686-.302.79.79 0 0 1 .627.302.638.638 0 0 0-.179-.429.552.552 0 0 0-.41-.164.582.582 0 0 0-.464.212h-.517a.956.956 0 0 1 .369-.455c.17-.113.363-.169.581-.169.279 0 .517.089.712.268.215.202.324.483.324.842v1.547H.199Z" style="fill:#646363;fill-opacity:1;fill-rule:nonzero;stroke:none" transform="matrix(7.46324 0 0 -7.46324 277.894 154.51)"/></g><g style="fill:#646363;fill-opacity:1"><path d="M0 0a.65.65 0 0 1-.189-.186v.17h-.417v-1.89h.458v1.063c0 .29.134.441.406.45v.438A.102.102 0 0 1 .223.05.446.446 0 0 1 0 0" style="fill:#646363;fill-opacity:1;fill-rule:nonzero;stroke:none" transform="matrix(7.46324 0 0 -7.46324 291.206 144.19)"/></g><path d="M267.823 525.74h2.564v10.584h-2.564z" style="fill:#646363;fill-opacity:1;fill-rule:nonzero;stroke:none;stroke-width:5.59744" transform="matrix(1.33333 0 0 -1.33333 -61.349 859.4)"/><g style="fill:#646363;fill-opacity:1"><path d="M0 0c.187 0 .333-.094.438-.279h.509a.973.973 0 0 1-.174.328.966.966 0 0 1-.775.364.966.966 0 0 1-.706-.294.955.955 0 0 1-.296-.709c0-.278.098-.519.296-.719a.961.961 0 0 1 .71-.297c.194 0 .375.052.545.158a.993.993 0 0 1 .4.522H.438C.331-1.105.19-1.194.02-1.194a.54.54 0 0 0-.406.169.596.596 0 0 0-.16.428c0 .173.051.316.155.429A.51.51 0 0 0 0 0" style="fill:#646363;fill-opacity:1;fill-rule:nonzero;stroke:none" transform="matrix(7.46324 0 0 -7.46324 309.278 146.9)"/></g><g style="fill:#646363;fill-opacity:1"><path d="M0 0c0-.381-.131-.571-.39-.571-.255 0-.382.19-.382.571v.971h-.457V-.137c0-.285.078-.498.234-.642A.774.774 0 0 1-.45-.983c.111 0 .201.018.274.056a.716.716 0 0 1 .217.197v-.19h.417V.971H0Z" style="fill:#646363;fill-opacity:1;fill-rule:nonzero;stroke:none" transform="matrix(7.46324 0 0 -7.46324 327.753 151.55)"/></g><path d="M296.885 525.74h2.564v14.122h-2.564z" style="fill:#646363;fill-opacity:1;fill-rule:nonzero;stroke:none;stroke-width:5.59744" transform="matrix(1.33333 0 0 -1.33333 -61.349 859.4)"/><g style="fill:#646363;fill-opacity:1"><path d="M0 0h-.458v-.633H-.68v-.41h.222v-1.48H0v1.48h.268v.41H0Z" style="fill:#646363;fill-opacity:1;fill-rule:nonzero;stroke:none" transform="matrix(7.46324 0 0 -7.46324 346.149 139.583)"/></g><g style="fill:#646363;fill-opacity:1"><path d="M0 0c0-.381-.13-.571-.39-.571-.254 0-.381.19-.381.571v.971h-.458V-.137c0-.285.078-.498.234-.642A.775.775 0 0 1-.45-.983a.59.59 0 0 1 .274.056.718.718 0 0 1 .218.197v-.19h.416V.971H0Z" style="fill:#646363;fill-opacity:1;fill-rule:nonzero;stroke:none" transform="matrix(7.46324 0 0 -7.46324 360.12 151.55)"/></g><g style="fill:#646363;fill-opacity:1"><path d="M0 0a.638.638 0 0 1-.188-.186v.17h-.417v-1.89h.458v1.063c0 .29.134.441.404.45v.438A.093.093 0 0 1 .223.05.449.449 0 0 1 0 0" style="fill:#646363;fill-opacity:1;fill-rule:nonzero;stroke:none" transform="matrix(7.46324 0 0 -7.46324 371.38 144.19)"/></g><g style="fill:#646363;fill-opacity:1"><path d="M0 0a.517.517 0 0 0-.397-.171.534.534 0 0 0-.397.169.585.585 0 0 0-.162.418c0 .172.055.316.161.432a.516.516 0 0 0 .398.175A.516.516 0 0 0 0 .857.596.596 0 0 0 .156.434.62.62 0 0 0 0 0m.168 1.133a.815.815 0 0 1-.282.219.814.814 0 0 1-.354.085.888.888 0 0 1-.674-.288.998.998 0 0 1-.272-.712c0-.291.088-.535.261-.73a.85.85 0 0 1 .658-.29c.117 0 .238.028.366.085a.82.82 0 0 1 .297.211V-.52h.415v1.891H.168Z" style="fill:#646363;fill-opacity:1;fill-rule:nonzero;stroke:none" transform="matrix(7.46324 0 0 -7.46324 384.86 154.538)"/></g><path d="M340.444 525.74h2.564v14.122h-2.564z" style="fill:#646363;fill-opacity:1;fill-rule:nonzero;stroke:none;stroke-width:5.59744" transform="matrix(1.33333 0 0 -1.33333 -61.349 859.4)"/><g style="fill:#646363;fill-opacity:1"><path d="M0 0h-.147v.691h.166C.203.691.334.666.412.615.49.564.529.479.529.359.529.119.353 0 0 0m.416 1.104c-.079.015-.21.023-.397.023h-.636v-2.523h.47v.96h.158c.255 0 .434.022.537.061.131.05.238.145.322.285a.862.862 0 0 1 .124.453.729.729 0 0 1-.235.559.717.717 0 0 1-.343.182" style="fill:#646363;fill-opacity:1;fill-rule:nonzero;stroke:none" transform="matrix(7.46324 0 0 -7.46324 411.992 147.994)"/></g><g style="fill:#646363;fill-opacity:1"><path d="M0 0a.51.51 0 0 0-.387-.171A.518.518 0 0 0-.779 0a.604.604 0 0 0-.16.427c0 .163.054.302.164.421A.51.51 0 0 0-.003.846.62.62 0 0 0 .158.419.598.598 0 0 0 0 0m-.382 1.437c-.281 0-.52-.1-.718-.298a.971.971 0 0 1-.296-.712c0-.278.098-.517.296-.713a.968.968 0 0 1 .71-.297c.279 0 .516.099.712.296a.968.968 0 0 1 .293.714.979.979 0 0 1-.291.714.958.958 0 0 1-.706.296" style="fill:#646363;fill-opacity:1;fill-rule:nonzero;stroke:none" transform="matrix(7.46324 0 0 -7.46324 431.499 154.538)"/></g><path d="M375.092 525.74h2.559v14.122h-2.559zM380.153 525.74h2.558v10.584h-2.558z" style="fill:#646363;fill-opacity:1;fill-rule:nonzero;stroke:none;stroke-width:5.59744" transform="matrix(1.33333 0 0 -1.33333 -61.349 859.4)"/><g style="fill:#646363;fill-opacity:1"><path d="M0 0c.186 0 .332-.094.438-.279h.509c-.044.131-.102.24-.175.328a.968.968 0 0 1-.775.364A.972.972 0 0 1-.71.119a.958.958 0 0 1-.295-.709.99.99 0 0 1 .295-.719.967.967 0 0 1 .711-.297c.195 0 .375.052.545.158a1 1 0 0 1 .401.522H.438C.33-1.105.19-1.194.018-1.194a.537.537 0 0 0-.405.169.596.596 0 0 0-.16.428c0 .173.051.316.154.429A.515.515 0 0 0 0 0" style="fill:#646363;fill-opacity:1;fill-rule:nonzero;stroke:none" transform="matrix(7.46324 0 0 -7.46324 459.052 146.9)"/></g><g style="fill:#646363;fill-opacity:1"><path d="m0 0-.428 1.213h-.518l.693-1.712-.349-.81h.488L.975 1.213H.457Z" style="fill:#646363;fill-opacity:1;fill-rule:nonzero;stroke:none" transform="matrix(7.46324 0 0 -7.46324 473.826 153.358)"/></g><path d="M413.76 525.74h2.625v14.122h-2.625z" style="fill:#646363;fill-opacity:1;fill-rule:nonzero;stroke:none;stroke-width:5.59744" transform="matrix(1.33333 0 0 -1.33333 -61.349 859.4)"/><g style="fill:#646363;fill-opacity:1"><path d="M0 0a.713.713 0 0 1-.913-.117v.166h-.42v-1.891h.457v.904c0 .192.015.327.045.405a.367.367 0 0 0 .137.168.347.347 0 0 0 .204.066c.252 0 .379-.201.379-.605v-.938h.457V-.82c0 .224-.026.394-.076.511A.706.706 0 0 1 0 0" style="fill:#646363;fill-opacity:1;fill-rule:nonzero;stroke:none" transform="matrix(7.46324 0 0 -7.46324 507.898 144.67)"/></g><g style="fill:#646363;fill-opacity:1"><path d="m0 0-.127.043C-.256.082-.32.141-.32.217c0 .046.017.083.049.113a.173.173 0 0 0 .125.045C-.049.375.01.32.03.209h.444a.574.574 0 0 1-.189.412.607.607 0 0 1-.431.167.637.637 0 0 1-.448-.171.55.55 0 0 1-.183-.418c0-.165.056-.299.17-.4.069-.064.188-.122.353-.179.127-.044.21-.08.254-.113a.158.158 0 0 0 .065-.132.178.178 0 0 0-.058-.139.198.198 0 0 0-.145-.055c-.122 0-.205.081-.247.245h-.46A.906.906 0 0 1-.77-.881a.62.62 0 0 1 .244-.254.687.687 0 0 1 .358-.096c.191 0 .355.065.489.196a.622.622 0 0 1 .202.466.508.508 0 0 1-.176.407A1.139 1.139 0 0 1 0 0" style="fill:#646363;fill-opacity:1;fill-rule:nonzero;stroke:none" transform="matrix(7.46324 0 0 -7.46324 519.527 149.7)"/></g><g style="fill:#646363;fill-opacity:1"><path d="M0 0c0-.381-.131-.571-.389-.571-.256 0-.383.19-.383.571v.971h-.458V-.137c0-.285.078-.498.235-.642A.774.774 0 0 1-.45-.983c.11 0 .202.018.274.056a.73.73 0 0 1 .218.197v-.19h.415V.971H0Z" style="fill:#646363;fill-opacity:1;fill-rule:nonzero;stroke:none" transform="matrix(7.46324 0 0 -7.46324 535.686 151.55)"/></g><g style="fill:#646363;fill-opacity:1"><path d="M0 0a.662.662 0 0 1-.188-.186v.17h-.416v-1.89h.457v1.063c0 .29.135.441.404.45v.438A.087.087 0 0 1 .223.05.451.451 0 0 1 0 0" style="fill:#646363;fill-opacity:1;fill-rule:nonzero;stroke:none" transform="matrix(7.46324 0 0 -7.46324 546.939 144.19)"/></g><g style="fill:#646363;fill-opacity:1"><path d="M0 0a.518.518 0 0 0-.397-.171.534.534 0 0 0-.396.169.581.581 0 0 0-.162.418c0 .172.053.316.16.432a.515.515 0 0 0 .398.175c.16 0 .293-.054.397-.166A.597.597 0 0 0 .157.434.62.62 0 0 0 0 0m.167 1.133a.793.793 0 0 1-.281.219.814.814 0 0 1-.354.085.893.893 0 0 1-.675-.288 1 1 0 0 1-.27-.712c0-.291.086-.535.262-.73a.844.844 0 0 1 .657-.29c.117 0 .238.028.366.085a.803.803 0 0 1 .295.211V-.52h.416v1.891H.167Z" style="fill:#646363;fill-opacity:1;fill-rule:nonzero;stroke:none" transform="matrix(7.46324 0 0 -7.46324 560.422 154.538)"/></g><g style="fill:#646363;fill-opacity:1"><path d="M0 0a.712.712 0 0 1-.913-.117v.166h-.419v-1.891h.457v.904c0 .192.015.327.044.405a.38.38 0 0 0 .341.234c.252 0 .379-.201.379-.605v-.938h.456V-.82c0 .224-.025.394-.075.511A.706.706 0 0 1 0 0" style="fill:#646363;fill-opacity:1;fill-rule:nonzero;stroke:none" transform="matrix(7.46324 0 0 -7.46324 578.085 144.67)"/></g><g style="fill:#646363;fill-opacity:1"><path d="M0 0c.187 0 .331-.094.437-.279h.51a.97.97 0 0 1-.949.692A.974.974 0 0 1-.71.119a.96.96 0 0 1-.294-.709c0-.278.098-.519.294-.719a.97.97 0 0 1 .712-.297c.194 0 .375.052.544.158a.994.994 0 0 1 .401.522h-.51c-.108-.179-.246-.268-.418-.268a.54.54 0 0 0-.406.169.6.6 0 0 0-.159.428c0 .173.051.316.154.429A.51.51 0 0 0 0 0" style="fill:#646363;fill-opacity:1;fill-rule:nonzero;stroke:none" transform="matrix(7.46324 0 0 -7.46324 590.76 146.9)"/></g><g style="fill:#646363;fill-opacity:1"><path d="M0 0c.03.133.094.242.193.324a.525.525 0 0 0 .343.121c.132 0 .244-.04.339-.12A.592.592 0 0 0 1.066 0Zm.529.858c-.275 0-.51-.1-.704-.3a1.008 1.008 0 0 1-.291-.724c0-.281.097-.52.291-.714a.967.967 0 0 1 .708-.293c.204 0 .392.062.564.187a.91.91 0 0 1 .343.474H.942a.491.491 0 0 0-.74-.136.516.516 0 0 0-.187.284h1.467c.018.086.026.161.026.227a.968.968 0 0 1-.288.702.943.943 0 0 1-.691.293" style="fill:#646363;fill-opacity:1;fill-rule:nonzero;stroke:none" transform="matrix(7.46324 0 0 -7.46324 602.344 150.137)"/></g><g style="fill:#646363;fill-opacity:1"><path d="M0 0a.34.34 0 0 0-.248.096.327.327 0 0 0-.097.242c0 .154.101.279.304.377L.35.28C.244.094.128 0 0 0m-.047 1.697c.04.041.09.061.151.061.066 0 .118-.02.157-.059.04-.037.058-.092.058-.157 0-.06-.016-.11-.053-.151a.693.693 0 0 0-.2-.135c-.115.115-.174.212-.174.291 0 .06.021.109.061.15m1.38-.597H.83L.584.68.35.941c.265.149.397.356.397.621a.593.593 0 0 1-.187.444.643.643 0 0 1-.459.179A.62.62 0 0 1-.359 2a.633.633 0 0 1-.183-.465c0-.096.018-.18.056-.25.025-.047.077-.119.156-.211A1.264 1.264 0 0 1-.569.903.714.714 0 0 1-.803.361c0-.22.08-.41.241-.564a.822.822 0 0 1 .586-.232c.245 0 .459.125.644.376l.343-.376.334.29-.447.487z" style="fill:#646363;fill-opacity:1;fill-rule:nonzero;stroke:none" transform="matrix(7.46324 0 0 -7.46324 628.458 155.53)"/></g><g style="fill:#646363;fill-opacity:1"><path d="M0 0h.469v1.032h.779v.436H.469v.62h.817v.435H0Z" style="fill:#646363;fill-opacity:1;fill-rule:nonzero;stroke:none" transform="matrix(7.46324 0 0 -7.46324 648.2 158.416)"/></g><path d="M541.667 525.74h2.563v10.584h-2.563z" style="fill:#646363;fill-opacity:1;fill-rule:nonzero;stroke:none;stroke-width:5.59744" transform="matrix(1.33333 0 0 -1.33333 -61.349 859.4)"/><g style="fill:#646363;fill-opacity:1"><path d="M0 0a.714.714 0 0 1-.914-.117v.166h-.419v-1.891h.458v.904c0 .192.015.327.045.405a.358.358 0 0 0 .136.168.349.349 0 0 0 .204.066c.252 0 .379-.201.379-.605v-.938h.457V-.82c0 .224-.026.394-.075.511A.722.722 0 0 1 0 0" style="fill:#646363;fill-opacity:1;fill-rule:nonzero;stroke:none" transform="matrix(7.46324 0 0 -7.46324 678.128 144.67)"/></g><g style="fill:#646363;fill-opacity:1"><path d="M0 0a.518.518 0 0 0-.397-.171.532.532 0 0 0-.396.169.578.578 0 0 0-.163.418c0 .172.053.316.161.432a.515.515 0 0 0 .398.175c.16 0 .293-.054.397-.166A.596.596 0 0 0 .156.434.62.62 0 0 0 0 0m.167 1.133a.797.797 0 0 1-.282.219.81.81 0 0 1-.353.085.89.89 0 0 1-.675-.288.997.997 0 0 1-.27-.712c0-.291.086-.535.261-.73a.847.847 0 0 1 .657-.29c.117 0 .238.028.366.085a.807.807 0 0 1 .296.211V-.52h.416v1.891H.167Z" style="fill:#646363;fill-opacity:1;fill-rule:nonzero;stroke:none" transform="matrix(7.46324 0 0 -7.46324 693.882 154.538)"/></g><g style="fill:#646363;fill-opacity:1"><path d="M0 0a.713.713 0 0 1-.914-.117v.166h-.419v-1.891h.457v.904c0 .192.016.327.045.405a.37.37 0 0 0 .136.168.352.352 0 0 0 .205.066c.252 0 .379-.201.379-.605v-.938h.456V-.82c0 .224-.025.394-.075.511A.713.713 0 0 1 0 0" style="fill:#646363;fill-opacity:1;fill-rule:nonzero;stroke:none" transform="matrix(7.46324 0 0 -7.46324 711.546 144.67)"/></g><g style="fill:#646363;fill-opacity:1"><path d="M0 0c.187 0 .332-.094.437-.279h.51c-.044.131-.102.24-.175.328a.969.969 0 0 1-.775.364A.972.972 0 0 1-.71.119a.958.958 0 0 1-.295-.709.99.99 0 0 1 .295-.719.967.967 0 0 1 .711-.297.99.99 0 0 1 .946.68h-.51C.33-1.105.19-1.194.018-1.194a.537.537 0 0 0-.405.169.6.6 0 0 0-.16.428c0 .173.051.316.154.429A.515.515 0 0 0 0 0" style="fill:#646363;fill-opacity:1;fill-rule:nonzero;stroke:none" transform="matrix(7.46324 0 0 -7.46324 723.655 146.9)"/></g><g style="fill:#646363;fill-opacity:1"><path d="M0 0a.582.582 0 0 0 .193.324.523.523 0 0 0 .343.121.51.51 0 0 0 .34-.12A.578.578 0 0 0 1.065 0Zm.528.858a.942.942 0 0 1-.702-.3 1.01 1.01 0 0 1-.292-.724c0-.281.098-.52.292-.714a.963.963 0 0 1 .706-.293c.205 0 .392.062.564.187a.897.897 0 0 1 .345.474h-.5a.47.47 0 0 0-.423-.249.49.49 0 0 0-.316.113.518.518 0 0 0-.188.284h1.467c.018.086.027.161.027.227a.965.965 0 0 1-.289.702.938.938 0 0 1-.691.293" style="fill:#646363;fill-opacity:1;fill-rule:nonzero;stroke:none" transform="matrix(7.46324 0 0 -7.46324 735.801 150.137)"/></g><g style="fill:#646363;fill-opacity:1"><path d="M0 0c-.172.06-.285.113-.34.157a.237.237 0 0 0-.084.194.25.25 0 0 0 .072.187c.048.046.111.07.189.07.169 0 .261-.094.277-.284h.484a.762.762 0 0 1-.229.515.717.717 0 0 1-.52.203.715.715 0 0 1-.52-.211.684.684 0 0 1-.218-.507c0-.202.071-.371.212-.51a.708.708 0 0 1 .169-.126c.058-.029.178-.078.361-.143.226-.083.339-.207.339-.37a.3.3 0 0 0-.094-.229.343.343 0 0 0-.245-.089.346.346 0 0 0-.249.092.352.352 0 0 0-.096.244h-.487a.797.797 0 0 1 .82-.77.79.79 0 0 1 .579.237.793.793 0 0 1 .238.578.69.69 0 0 1-.227.53A1.2 1.2 0 0 1 0 0" style="fill:#646363;fill-opacity:1;fill-rule:nonzero;stroke:none" transform="matrix(7.46324 0 0 -7.46324 763.344 147.003)"/></g><g style="fill:#646363;fill-opacity:1"><path d="M0 0c.03.133.095.242.191.324a.53.53 0 0 0 .346.121c.13 0 .244-.04.338-.12A.587.587 0 0 0 1.066 0Zm.529.858a.94.94 0 0 1-.702-.3 1.006 1.006 0 0 1-.293-.724.97.97 0 0 1 .293-.714.96.96 0 0 1 .706-.293c.204 0 .393.062.563.187a.895.895 0 0 1 .344.474H.942a.472.472 0 0 0-.423-.249.486.486 0 0 0-.316.113.512.512 0 0 0-.188.284h1.467c.018.086.027.161.027.227a.965.965 0 0 1-.289.702.94.94 0 0 1-.691.293" style="fill:#646363;fill-opacity:1;fill-rule:nonzero;stroke:none" transform="matrix(7.46324 0 0 -7.46324 773.73 150.137)"/></g><g style="fill:#646363;fill-opacity:1"><path d="M0 0a.639.639 0 0 1-.189-.186v.17h-.416v-1.89h.457v1.063c0 .29.135.441.404.45v.438A.088.088 0 0 1 .223.05.446.446 0 0 1 0 0" style="fill:#646363;fill-opacity:1;fill-rule:nonzero;stroke:none" transform="matrix(7.46324 0 0 -7.46324 792.187 144.19)"/></g><g style="fill:#646363;fill-opacity:1"><path d="m0 0-.461 1.256h-.492l.765-1.891h.354l.768 1.891H.435Z" style="fill:#646363;fill-opacity:1;fill-rule:nonzero;stroke:none" transform="matrix(7.46324 0 0 -7.46324 802.737 153.679)"/></g><path d="M654.584 525.74h2.563v10.584h-2.563z" style="fill:#646363;fill-opacity:1;fill-rule:nonzero;stroke:none;stroke-width:5.59744" transform="matrix(1.33333 0 0 -1.33333 -61.349 859.4)"/><g style="fill:#646363;fill-opacity:1"><path d="M0 0c.187 0 .332-.094.437-.279h.51c-.044.131-.102.24-.175.328a.968.968 0 0 1-.774.364.968.968 0 0 1-.707-.294.959.959 0 0 1-.296-.709.99.99 0 0 1 .296-.719.963.963 0 0 1 .71-.297c.195 0 .375.052.545.158a.994.994 0 0 1 .401.522h-.51C.329-1.105.19-1.194.019-1.194a.54.54 0 0 0-.406.169.6.6 0 0 0-.159.428c0 .173.051.316.154.429A.512.512 0 0 0 0 0" style="fill:#646363;fill-opacity:1;fill-rule:nonzero;stroke:none" transform="matrix(7.46324 0 0 -7.46324 824.966 146.9)"/></g><g style="fill:#646363;fill-opacity:1"><path d="M0 0c.03.133.095.242.193.324a.524.524 0 0 0 .344.121c.13 0 .244-.04.338-.12A.592.592 0 0 0 1.066 0Zm1.509-.137a.965.965 0 0 1-.289.702.942.942 0 0 1-.691.293.945.945 0 0 1-.703-.3 1.012 1.012 0 0 1-.291-.724c0-.281.098-.52.291-.714a.965.965 0 0 1 .707-.293c.204 0 .393.062.563.187a.897.897 0 0 1 .345.474H.942a.472.472 0 0 0-.423-.249.49.49 0 0 0-.317.113.521.521 0 0 0-.187.284h1.467c.018.086.027.161.027.227" style="fill:#646363;fill-opacity:1;fill-rule:nonzero;stroke:none" transform="matrix(7.46324 0 0 -7.46324 837.112 150.137)"/></g></svg>