<svg xmlns="http://www.w3.org/2000/svg" width="700.54608" height="200" viewBox="0 0 700.54607 200"><path d="M509.522 191.433v8.111h-1.216v-7.366h-2.288v15.411h2.288v-6.085h1.216v6.362h2.324v-16.433zm-8.83 5.685q.07 0 .158-.009a2 2 0 0 1 .206-.009q.366 0 .91.017.548.018 1.146.062.6.043 1.163.112t.962.155l.227-1.853q-.506-.105-1.216-.191a29 29 0 0 0-1.465-.14q-.757-.051-1.483-.078a37 37 0 0 0-1.267-.026h-1.787v10.783h6.246v-1.906h-3.8zM532.403 207.052q.017-.954-.01-1.942a36 36 0 0 0-.103-1.926 36 36 0 0 0-.193-1.785 19 19 0 0 0-.25-1.507h2.342v-1.907h-6.263v-6.552h-2.428v6.552h-6.159v1.907h10.236q.12.519.217 1.17.095.65.155 1.352t.078 1.386 0 1.292h-8.933v1.96zM552.038 198.608v1.474h-2.653v1.874h2.653v1.437h-2.515v1.874h2.515v2.599h2.481v-9.258zm.052-3.761q0 .694-.807 1.101-.806.408-2.333.408c-.97 0-1.724-.136-2.254-.408q-.798-.407-.798-1.101 0-.692.798-1.091c.53-.266 1.284-.4 2.254-.4q1.527 0 2.333.4.807.399.806 1.09m2.534 0q0-.78-.382-1.41-.382-.633-1.11-1.075-.728-.443-1.787-.686t-2.394-.242q-1.317 0-2.351.242-1.032.242-1.751.686-.721.442-1.102 1.074a2.7 2.7 0 0 0-.38 1.412q0 .78.38 1.413.38.634 1.102 1.092.72.46 1.75.702 1.035.242 2.352.242 1.335 0 2.394-.242t1.787-.702q.728-.458 1.11-1.092.381-.632.382-1.413m-5.238 11.979q-.054-1.699-.609-3.095a8.1 8.1 0 0 0-1.551-2.486 9.5 9.5 0 0 0-2.403-1.874 14 14 0 0 0-3.139-1.248l-.936 1.925a9.2 9.2 0 0 1 2.131.71q1.025.487 1.823 1.128.797.64 1.318 1.403.52.763.641 1.543h-5.098v1.994zM572.767 204.156h-5.95v-1.231h5.95zm-8.413-3.138v6.398h2.464v-1.405h5.95v1.405h2.446v-6.398zm4.215-4.09v1.265h-6.208v1.96h14.847v-1.96h-6.209v-1.265h4.302v-5.583h-2.447v3.676h-8.742v1.907zM595.058 198.002v2.532h-2.27v1.924h2.27v5.407h2.464v-9.863zm.017-2.581h-6.14v-1.926h6.14zm-8.604 1.853h11.05v-5.634h-11.05zm-.068 9.881h4.788v-1.732h-4.788zm-2.014-2.513h8.639v-1.855h-2.966q.053-.625.39-1.144.34-.52.833-.928.496-.407 1.084-.685a5.3 5.3 0 0 1 1.163-.398 46 46 0 0 1-.504-.936q-.244-.469-.502-.919-.522.105-1.076.372-.555.27-1.067.632a6.7 6.7 0 0 0-.928.798 3.6 3.6 0 0 0-.64.885 3.4 3.4 0 0 0-.584-.927 6 6 0 0 0-.892-.858 7.3 7.3 0 0 0-1.101-.72 6 6 0 0 0-1.206-.494l-1.163 1.872q.711.173 1.346.503.63.33 1.11.78.476.45.779.997.305.547.356 1.17h-3.07zM618.285 201.487v-5.46h-2.464v11.839h2.464v-4.386h2.273v-1.993zm-10.668-9.587v5.305h2.446v-3.397h8.534V191.9zm.676 8.598q.816 0 1.683.027a39 39 0 0 1 3.279.234q.745.086 1.353.208l.208-1.872q-.538-.105-1.345-.209a33 33 0 0 0-1.795-.18 51 51 0 0 0-2.108-.123 59 59 0 0 0-2.28-.044q-.35 0-.694.018-.348.016-.71.017v7.974h7.353v-1.942h-4.944zM640.888 191.434h-2.428v16.432h2.428zm-10.65 11.474q0-.45.165-.815t.45-.623a2.13 2.13 0 0 1 1.465-.556q.434 0 .817.147.382.148.666.41.287.258.46.622.174.365.173.815.001.449-.172.815a1.99 1.99 0 0 1-1.127 1.023 2.4 2.4 0 0 1-.817.138q-.433 0-.805-.138a2 2 0 0 1-.66-.4 1.9 1.9 0 0 1-.45-.623 1.95 1.95 0 0 1-.165-.815m-2.377 0q0 .886.337 1.603.34.72.938 1.24.6.52 1.412.797a5.4 5.4 0 0 0 1.77.278q.957 0 1.778-.278a4.3 4.3 0 0 0 1.431-.796q.608-.52.955-1.241a3.6 3.6 0 0 0 .346-1.603q.001-.9-.346-1.63a3.64 3.64 0 0 0-.955-1.238 4.4 4.4 0 0 0-1.43-.79 5.5 5.5 0 0 0-1.779-.276q-.954-.001-1.77.276a4.3 4.3 0 0 0-1.412.79q-.597.51-.938 1.238a3.8 3.8 0 0 0-.337 1.63m10.009-7.402a28 28 0 0 0-1.12-.139q-.65-.069-1.37-.13a93 93 0 0 0-2.835-.199 137 137 0 0 0-2.768-.112 55 55 0 0 0-2.523-.026l-.277 2.132q1.438 0 2.722.009t2.515.044q1.683.05 3.114.155 1.432.104 2.368.191zM654.435 195.385h2.828v2.392h-2.828zm5.152 2.392v-2.392h3.662v-1.924H648.4v1.924h3.678v2.392h-1.823v5.6h8.71v1.594h-8.727v1.94h11.173v-5.494H652.7v-1.715h9.125v-1.925zM682.832 203.29h2.255v-2.028h-2.255v-5.373h-2.41v11.977h2.41zM672.2 191.812v5.41h2.445v-3.503h8.517v-1.907zm6.087 6.623q-.467.156-1.006.493-.536.338-1.031.781-.495.44-.902.953a4.6 4.6 0 0 0-.633 1.032 4.4 4.4 0 0 0-.609-1.153 7.478 7.478 0 0 0-2.131-1.968 5.2 5.2 0 0 0-1.199-.554l-1.23 1.907q1.853.64 2.88 2.018 1.022 1.379 1.022 3.2v1.872h2.498v-1.735q0-.987.278-1.776.276-.789.773-1.404.494-.615 1.16-1.04a6.5 6.5 0 0 1 1.45-.685zM702.607 198.87v3.379h-1.838v1.96h1.838v3.657h2.481v-8.997zm.018-4.023h-6.158v-1.301h6.158zm-8.605-3.206v6.57h2.447v-1.458h6.158v1.458h2.446v-6.57zm-.138 11.423q.001-.83.554-1.352.555-.52 1.423-.52.87 0 1.432.52.563.522.564 1.352a1.83 1.83 0 0 1-.581 1.36q-.269.253-.634.391a2.2 2.2 0 0 1-.781.138q-.85 0-1.412-.528-.565-.528-.565-1.361m-2.343.034q0 .849.331 1.56c.218.474.524.877.91 1.206a4.3 4.3 0 0 0 1.372.772 5.2 5.2 0 0 0 1.707.277q.92-.001 1.708-.277a4.4 4.4 0 0 0 1.381-.772q.59-.495.918-1.206.33-.711.33-1.56 0-.865-.33-1.569a3.6 3.6 0 0 0-.918-1.212 4.2 4.2 0 0 0-1.38-.79 5.1 5.1 0 0 0-1.71-.277q-.918 0-1.706.278a4.1 4.1 0 0 0-1.371.789 3.7 3.7 0 0 0-.91 1.212q-.331.705-.332 1.57M724.118 207.866h2.464v-11.96h-2.464zm-8.814-16.035v5.027h2.464v-3.102h9.177v-1.925zm-1.63 14.874h8.64V204.8h-2.95q.035-.955.331-1.753a5.2 5.2 0 0 1 .77-1.412q.477-.616 1.085-1.049.606-.435 1.284-.64l-1.318-1.907a5 5 0 0 0-.902.458 6.4 6.4 0 0 0-.946.729 8 8 0 0 0-.867.944 5.8 5.8 0 0 0-.685 1.109 4.7 4.7 0 0 0-.581-1.213 7.3 7.3 0 0 0-.885-1.091 6.5 6.5 0 0 0-1.058-.877 4.5 4.5 0 0 0-1.12-.545l-1.492 1.959q1.838.657 2.812 2.01.97 1.352 1.006 3.278h-3.124zM739.139 207.726h5.62v-1.732h-5.62zm5.465-6.743q0 .296-.624.468-.625.174-2.1.174-1.474 0-2.124-.174-.652-.171-.651-.468c0-.16.216-.31.651-.44q.649-.2 2.125-.2 1.474 0 2.099.2c.416.13.624.28.624.44m.503-7.314q0 .313-.868.484-.867.174-2.377.174-1.474 0-2.35-.174-.875-.172-.876-.484 0-.294.876-.46.876-.165 2.35-.164 1.511 0 2.377.164.867.165.868.46m2.012 7.314q0-.467-.312-.875t-.955-.718q-.642-.313-1.63-.495-.988-.181-2.341-.182-1.354 0-2.352.182-.997.181-1.638.495-.642.31-.955.718a1.4 1.4 0 0 0-.312.875q0 .469.312.893.313.425.955.747.641.32 1.638.511.998.19 2.352.19t2.34-.19q.989-.191 1.631-.511.642-.322.955-.747.312-.424.312-.893m.607-7.314q0-.504-.33-.944-.33-.443-1.032-.764t-1.813-.51q-1.11-.191-2.67-.191-1.58 0-2.69.19t-1.812.51q-.703.323-1.032.765a1.54 1.54 0 0 0-.33.944q0 .52.33.953.328.434 1.032.763.702.33 1.813.511 1.109.182 2.689.183 1.56-.001 2.67-.191 1.11-.192 1.813-.512.703-.321 1.031-.762.332-.442.33-.945m-12.436 11.718H748.4v-1.768H735.29zm-.851-7.09h14.85v-1.802h-14.85zM767.675 191.433v8.147h-1.093v-7.419h-2.272v15.445h2.272v-6.102h1.093v6.362h2.29v-16.433zm-4.753 3.83a6 6 0 0 0-.859.694 9 9 0 0 0-.876.953 8 8 0 0 0-.737 1.091 5 5 0 0 0-.476 1.127 5 5 0 0 0-.453-1.142 9 9 0 0 0-.78-1.223 8.7 8.7 0 0 0-.972-1.091 5.7 5.7 0 0 0-.987-.772l-1.303 1.7a6.7 6.7 0 0 1 1.622 1.342q.653.755 1.032 1.647.382.892.538 1.906.156 1.015.156 2.142v.71h-2.618v1.907h7.355v-1.908h-2.377v-.692q0-1.144.12-2.097a6.8 6.8 0 0 1 .461-1.76q.34-.807.92-1.473.58-.669 1.5-1.24zM790.364 201.487v-5.46H787.9v11.839h2.464v-4.386h2.273v-1.993zm-10.667-9.587v5.305h2.445v-3.397h8.534V191.9zm.675 8.598q.816 0 1.683.027a39 39 0 0 1 3.279.234q.745.086 1.354.208l.208-1.872q-.539-.105-1.346-.209a33 33 0 0 0-1.795-.18 51 51 0 0 0-2.108-.123 59 59 0 0 0-2.28-.044q-.349 0-.693.018-.349.016-.712.017v7.974h7.355v-1.942h-4.945z" style="fill:#606061;fill-opacity:1;fill-rule:nonzero;stroke:none;stroke-width:1.70515" transform="matrix(1.33333 0 0 -1.33333 -356.303 455.013)"/><path d="M367.542 215.163h-24.6l-17.403 31.619c-1.62 2.947-6.202 2.092-6.575-1.226l-3.42-30.393h-48.316l6.62 35.749s38.668-3.124 85.83 34.69l18.642-34.995 18.785-35.582z" style="fill:#0e3581;fill-opacity:1;fill-rule:nonzero;stroke:none;stroke-width:1.70515" transform="matrix(1.33333 0 0 -1.33333 -356.303 455.013)"/><path d="m278.21 274.167 10.677 56.939h39.417l-4.925-27.065c-.46-2.535 2.529-4.305 4.647-2.745 5.171 3.813 12.95 9.987 20.032 17.355 10.783 11.222 17.315 22.609 17.315 22.609l44.019-.195c-52.585-68.378-103.237-86.475-135.125-88.01Z" style="fill:#328a3a;fill-opacity:1;fill-rule:nonzero;stroke:none;stroke-width:1.70515" transform="matrix(1.33333 0 0 -1.33333 -356.303 455.013)"/><path d="m517.31 296.82-20.922-81.791h-22.576l10.449 40.843-28.139-40.843h-16.171l-7.242 40.843-10.45-40.843h-22.575l15.721 61.46c3.046 11.902 14.787 20.33 28.32 20.33h.001l10.294-58.187 27.948 40.482c7.603 11.011 20.964 17.706 35.342 17.706M577.172 265.622l-4.515-17.651h-42.654l-3.938-15.393h45.802l-4.49-17.55H499l19.34 69.673c1.815 7.094 8.815 12.119 15.365 12.119h53.509l-2.998-17.652h-46.232l-3.464-13.546zM698.027 296.82l-20.922-81.791h-22.578l18.221 71.23c1.582 6.182 7.682 10.56 14.712 10.56z" style="fill:#0e3581;fill-opacity:1;fill-rule:nonzero;stroke:none;stroke-width:1.70515" transform="matrix(1.33333 0 0 -1.33333 -356.303 455.013)"/><path d="M704.711 242.096a16.7 16.7 0 0 0 3.992 1.866q2.092.652 3.804.653 2.774 0 4.94-.848 2.16-.848 3.538-2.399 1.376-1.55 1.855-3.681.478-2.132-.114-4.701l-4.173-18.073h-9.618l3.456 14.973q.412 1.791.283 3.026-.131 1.236-.651 1.988a2.86 2.86 0 0 1-1.35 1.066 4.9 4.9 0 0 1-1.755.314q-2.08 0-3.892-1.332t-2.776-3.512l-3.814-16.523h-9.62l8.914 38.618h9.62zM743.582 216.947a17 17 0 0 0-4.326-2.205q-2.336-.798-4.23-.798-2.775 0-4.939.848-2.16.847-3.54 2.397-1.375 1.552-1.853 3.685-.481 2.129.112 4.7l4.173 18.072h9.62l-3.456-14.973q-.414-1.792-.283-3.028.13-1.237.651-1.986a2.83 2.83 0 0 1 1.349-1.066 4.9 4.9 0 0 1 1.754-.316q2.081 0 3.892 1.332t2.777 3.514l3.815 16.523h9.618l-6.633-28.733h-8.232zM774.504 222.278q2.912-.002 5.119 1.939 2.204 1.937 2.909 4.989.737 3.197-.577 5.112-1.317 1.915-4.23 1.915-2.916 0-5.112-1.915-2.201-1.914-2.94-5.112-.705-3.052.607-4.99 1.307-1.94 4.224-1.938m-2.8 19.722q2.253 1.355 4.597 1.986 2.341.629 4.84.63 3.05 0 5.447-1.14 2.399-1.138 3.893-3.173 1.497-2.034 1.975-4.87.478-2.835-.306-6.227a20 20 0 0 0-2.46-6.057 20 20 0 0 0-4.113-4.796 19.2 19.2 0 0 0-5.364-3.2 17.5 17.5 0 0 0-6.2-1.21q-2.647-.046-4.862.776a9.5 9.5 0 0 0-3.766 2.52l-1.278-2.326h-8.23l8.914 38.619h9.575z" style="fill:#328a3a;fill-opacity:1;fill-rule:nonzero;stroke:none;stroke-width:1.70515" transform="matrix(1.33333 0 0 -1.33333 -356.303 455.013)"/><path d="M598.213 232.22h13.527q5.388 0 9.895 1.907 4.508 1.906 7.986 5.154 3.475 3.246 5.913 7.576a38 38 0 0 1 3.688 9.174q1.223 4.74.762 8.915-.465 4.173-2.58 7.267-2.115 3.092-5.94 4.895-3.822 1.805-9.431 1.805h-11.768zm-8.716 54.864a12.74 12.74 0 0 0 12.336 9.557h32.582q8.91-.001 15.193-3.143 6.281-3.145 9.82-8.606 3.54-5.465 4.195-12.936.656-7.476-1.605-16.235-2.34-9.07-7.102-16.648-4.758-7.576-11.612-13.037-6.855-5.461-15.612-8.504c-5.84-2.025-12.241-3.042-19.207-3.042h-37.723z" style="fill:#0e3581;fill-opacity:1;fill-rule:nonzero;stroke:none;stroke-width:1.70515" transform="matrix(1.33333 0 0 -1.33333 -356.303 455.013)"/></svg>