<svg xmlns="http://www.w3.org/2000/svg" width="766.14294pt" height="300pt" fill-rule="evenodd" viewBox="0 0 766.14294 299.99999"><path d="M74.98 218.5h22.554v8.942h-32.06V187.36h32.06v8.938H74.98v22.2m47.439-2.987h-7.643v41.418h-9.553v-69.569h9.553v19.213h7.643v-19.213h9.553v69.57h-9.553zM198.61 246.655v-59.294h9.507v68.25h-66.592v-8.956h14.726v-17.894h9.506v17.894z" style="fill:#2c2c2b;stroke:none;stroke-width:4.66003" transform="matrix(1.13392 0 0 1.13392 -74.083 -39.88)"/><path d="M161.05 185.828c-5.126 0-9.413 1.85-13.001 5.573-3.542 3.719-5.312 8.207-5.312 13.454 0 5.266 1.77 9.758 5.312 13.476 3.588 3.72 7.875 5.583 13.001 5.583 4.94 0 9.18-1.864 12.816-5.583 3.588-3.718 5.405-8.21 5.405-13.476 0-5.247-1.817-9.735-5.405-13.454-3.635-3.723-7.876-5.573-12.816-5.573m6.152 26.166c-1.725 1.98-3.775 2.959-6.152 2.959-2.423 0-4.52-.979-6.244-2.96-1.678-1.984-2.563-4.389-2.563-7.213 0-2.707.885-5.08 2.563-7.055 1.724-1.99 3.821-2.973 6.244-2.973 2.377 0 4.427.983 6.152 2.973 1.677 1.976 2.516 4.348 2.516 7.055 0 2.824-.839 5.229-2.516 7.214zM258.165 220.158h-9.506v-23.86h-31.036v-8.937h40.542zM274.755 205.027v-4.408h-11.697v-8.961h11.697v-4.297h9.507v32.56h-9.507v-5.947h-11.697v-8.947zM261.754 222.8c-4.847 0-8.994 1.818-12.49 5.434-3.448 3.602-5.218 7.917-5.218 12.946 0 5.042 1.77 9.357 5.219 12.992 3.495 3.593 7.642 5.4 12.489 5.4 4.94 0 9.133-1.807 12.535-5.4 3.448-3.635 5.173-7.95 5.173-12.992 0-5.029-1.725-9.344-5.173-12.946-3.402-3.616-7.596-5.434-12.535-5.434m5.825 25.071c-1.538 1.846-3.449 2.764-5.686 2.764-2.33 0-4.287-.918-5.918-2.764-1.584-1.878-2.423-4.105-2.423-6.691 0-2.559.839-4.8 2.423-6.65 1.631-1.864 3.588-2.768 5.918-2.768 2.237 0 4.148.904 5.686 2.768 1.584 1.85 2.376 4.091 2.376 6.65 0 2.586-.792 4.813-2.376 6.691zM305.511 196.299h-10.298v-8.938h34.39v8.938h-10.298l11.836 32.639h-9.553l-9.18-25.682-9.227 25.682h-9.366z" style="fill:#2c2c2b;stroke:none;stroke-width:4.66003" transform="matrix(1.13392 0 0 1.13392 -74.083 -39.88)"/><path d="M329.464 199.048h7.223v-11.687h9.506v69.57h-9.506v-48.917h-7.223zM351.739 187.361h9.506v69.57h-9.506zM383.38 196.299h-11.184v-8.938h39.89v8.938h-11.184l12.535 23.86h-9.972l-11.324-21.707-11.37 21.706h-9.973zM427.278 206.574h-11.65v-8.947h11.65v-10.266h9.506v32.62h-9.506zM415.907 222.148c-4.94 0-9.133 1.827-12.628 5.494-3.542 3.649-5.266 8.076-5.266 13.211 0 5.043 1.724 9.372 5.266 12.983 3.495 3.598 7.689 5.401 12.628 5.401 4.893 0 9.087-1.803 12.536-5.4 3.448-3.612 5.172-7.941 5.172-12.984 0-5.135-1.724-9.562-5.172-13.21-3.449-3.668-7.643-5.495-12.536-5.495m5.825 25.332c-1.584 1.873-3.495 2.824-5.778 2.824-2.377 0-4.38-.95-5.965-2.824-1.631-1.906-2.47-4.152-2.47-6.785 0-2.619.839-4.888 2.47-6.776 1.584-1.878 3.588-2.828 5.965-2.828 2.283 0 4.194.95 5.778 2.828 1.585 1.888 2.377 4.157 2.377 6.776 0 2.633-.792 4.879-2.377 6.785zM460.317 189.458v-6.305h9.553v6.305h12.256v8.943h-8.481l9.833 21.697h-9.647l-8.9-19.708-9.087 19.708h-9.507l9.833-21.697h-8.435v-8.943zM513.675 256.875h-9.507v-20.7h-56.433v-8.957h65.94zM504.168 205.027h-6.943v14.894h-9.507v-32.616h9.507v8.77h6.943v-8.77h9.507v32.616h-9.507zM524.812 228.76h9.553v17.895h55.687v8.957h-65.24zM580.546 192.431v-5.126h9.506v37.807h-9.506v-9.6h-13.048v-8.938h13.048v-5.2h-13.048v-8.943zM541.122 185.828c-4.94 0-9.227 1.813-12.675 5.433-3.495 3.64-5.22 8.016-5.22 13.104 0 5.331 1.725 9.8 5.22 13.43 3.448 3.635 7.736 5.453 12.675 5.453 5.033 0 9.274-1.818 12.722-5.452 3.495-3.63 5.266-8.1 5.266-13.43 0-5.09-1.771-9.465-5.266-13.105-3.448-3.62-7.69-5.433-12.722-5.433m5.918 25.593c-1.63 1.906-3.634 2.88-5.918 2.88-2.237 0-4.24-.974-5.872-2.88-1.677-1.939-2.563-4.264-2.563-6.972 0-2.628.886-4.883 2.563-6.799 1.632-1.924 3.635-2.898 5.872-2.898 2.284 0 4.287.974 5.918 2.898 1.678 1.916 2.517 4.171 2.517 6.8 0 2.707-.839 5.032-2.517 6.97zM628.078 256.875V230.2h-28.473v-8.938h66.499v8.938h-28.52v26.674zM655.153 214.678v-18.38H600.91v-8.937h63.75v27.317zM685.163 246.655h55.688v8.957h-65.194V235.56h9.506zM703.43 213.974c1.539-1.547 2.797-3.42 3.775-5.624.979-2.204 1.445-4.525 1.445-6.94 0-4.85-1.584-8.918-4.8-12.148-3.262-3.252-7.083-4.888-11.51-4.888-4.567 0-8.435 1.636-11.604 4.888-3.215 3.23-4.753 7.298-4.753 12.149 0 2.414.42 4.735 1.258 6.939.886 2.204 2.144 4.077 3.775 5.624h-5.033v8.934h11.604v11.93h9.553v-11.93h16.263v-8.934h-9.972m-6.151-7.4c-1.305 1.547-2.89 2.312-4.8 2.312-1.864 0-3.495-.765-4.893-2.312-1.398-1.547-2.144-3.369-2.144-5.47 0-2.21.746-4.05 2.144-5.55 1.398-1.478 3.029-2.242 4.893-2.242 1.91 0 3.495.764 4.8 2.241 1.258 1.5 1.91 3.342 1.91 5.55 0 2.102-.652 3.924-1.91 5.471zM731.344 221.263v-33.958h9.507v42.896h-22.555v-8.938z" style="fill:#2c2c2b;stroke:none;stroke-width:4.66003" transform="matrix(1.13392 0 0 1.13392 -74.083 -39.88)"/><path d="M2382.06 541.248v-5.229h3.77v.621h-3.08v1.588h2.88v.618h-2.88v1.782h3.2v.62zM2390.04 539.352c0-.705.2-1.225.59-1.561.33-.284.72-.426 1.19-.426.52 0 .95.172 1.28.516.33.34.5.812.5 1.417 0 .486-.08.871-.22 1.153-.15.282-.36.497-.64.652-.28.156-.59.233-.92.233-.53 0-.96-.17-1.28-.51-.33-.343-.5-.833-.5-1.474m.67 0c0 .482.1.848.31 1.091.22.237.48.362.8.362.32 0 .59-.125.8-.364.21-.246.31-.615.31-1.115 0-.466-.1-.825-.31-1.065-.22-.243-.48-.36-.8-.36-.32 0-.58.117-.8.357-.21.241-.31.603-.31 1.094zM2389.12 539.858l.63.085c-.07.437-.24.775-.53 1.022-.28.245-.63.371-1.04.371-.52 0-.94-.17-1.25-.51-.31-.338-.47-.829-.47-1.461 0-.41.07-.769.2-1.075.14-.308.34-.54.62-.693.28-.155.58-.232.9-.232.41 0 .75.11 1.01.318.26.208.43.507.5.894l-.62.087c-.06-.255-.17-.449-.32-.573a.798.798 0 0 0-.54-.19c-.33 0-.59.11-.79.345-.2.233-.3.6-.3 1.101 0 .511.1.879.29 1.112.2.231.45.346.76.346.25 0 .46-.079.62-.233.17-.158.28-.396.33-.714zM2393.99 541.248v-3.791h.58v.535c.28-.416.68-.627 1.21-.627.22 0 .43.042.62.124.2.084.34.19.43.328.1.131.16.286.2.472.03.12.04.324.04.625v2.334h-.65v-2.309c0-.261-.02-.46-.07-.587a.616.616 0 0 0-.27-.313.805.805 0 0 0-.44-.114c-.28 0-.51.086-.71.26-.2.173-.3.502-.3.991v2.072zM2397.63 539.352c0-.705.2-1.225.59-1.561.32-.284.72-.426 1.19-.426.52 0 .95.172 1.28.516.33.34.49.812.49 1.417 0 .486-.07.871-.21 1.153-.15.282-.36.497-.65.652-.27.156-.58.233-.91.233-.53 0-.96-.17-1.29-.51-.32-.343-.49-.833-.49-1.474m.66 0c0 .482.11.848.32 1.091.22.237.48.362.8.362.32 0 .58-.125.79-.364.22-.246.32-.615.32-1.115 0-.466-.1-.825-.32-1.065a.992.992 0 0 0-.79-.36c-.32 0-.58.117-.8.357-.21.241-.32.603-.32 1.094zM2401.75 541.248v-3.791h.57v.526a1.364 1.364 0 0 1 1.15-.618c.28 0 .52.059.69.177.18.116.31.277.38.489.31-.444.7-.666 1.18-.666.38 0 .67.107.88.314.2.207.3.531.3.963v2.606h-.64v-2.39c0-.257-.03-.445-.07-.558a.586.586 0 0 0-.22-.274.735.735 0 0 0-.39-.101c-.27 0-.49.086-.67.265-.17.176-.26.461-.26.853v2.205h-.65v-2.466c0-.288-.05-.501-.16-.643-.1-.143-.27-.214-.51-.214-.18 0-.35.044-.5.14a.843.843 0 0 0-.34.421c-.07.181-.1.446-.1.794v1.968zM2407.66 536.751v-.732h.64v.732h-.64m0 4.497v-3.791h.64v3.791zM2411.56 539.858l.64.085c-.07.437-.25.775-.53 1.022-.29.245-.63.371-1.05.371-.51 0-.93-.17-1.24-.51-.31-.338-.47-.829-.47-1.461 0-.41.06-.769.2-1.075.14-.308.34-.54.62-.693.27-.155.58-.232.9-.232.41 0 .74.11 1 .318.27.208.43.507.51.894l-.63.087c-.06-.255-.17-.449-.31-.573a.806.806 0 0 0-.55-.19c-.32 0-.58.11-.78.345-.2.233-.3.6-.3 1.101 0 .511.1.879.29 1.112.19.231.45.346.76.346a.88.88 0 0 0 .62-.233c.17-.158.28-.396.32-.714zM2414.41 541.099v-5.23h1.97c.35 0 .62.017.8.047.26.043.47.123.65.246.17.119.31.289.42.504.1.222.15.455.15.713 0 .448-.14.824-.42 1.133-.29.306-.8.461-1.54.461h-1.34v2.126h-.69m.69-2.745h1.35c.45 0 .77-.082.96-.247.19-.169.28-.404.28-.703 0-.221-.06-.41-.17-.565a.775.775 0 0 0-.43-.307c-.12-.03-.34-.048-.65-.048h-1.34zM2418.78 539.199c0-.702.19-1.223.58-1.561.33-.282.72-.421 1.19-.421.52 0 .95.17 1.28.515.33.338.5.814.5 1.414 0 .491-.08.874-.22 1.153-.15.279-.36.495-.64.651-.28.156-.59.234-.92.234-.53 0-.95-.173-1.28-.51-.33-.343-.49-.838-.49-1.475m.66 0c0 .486.11.849.32 1.092a1 1 0 0 0 .79.363c.32 0 .59-.123.8-.365.21-.244.32-.613.32-1.112 0-.469-.11-.825-.32-1.068-.22-.244-.48-.36-.8-.36-.32 0-.58.116-.79.358-.21.242-.32.605-.32 1.092zM2422.88 541.099v-5.23h.65v5.23zM2424.34 536.599v-.73h.64v.73h-.64m0 4.5v-3.797h.64v3.797zM2428.24 539.702l.64.09c-.07.434-.25.776-.53 1.023-.29.244-.63.369-1.04.369-.52 0-.94-.171-1.25-.51-.31-.342-.47-.828-.47-1.459 0-.411.07-.771.2-1.08.14-.304.34-.533.62-.692.28-.152.57-.226.9-.226.41 0 .75.105 1.01.316.26.206.43.506.5.889l-.63.09c-.06-.254-.16-.447-.31-.574a.81.81 0 0 0-.55-.189c-.32 0-.58.116-.78.347-.2.231-.3.597-.3 1.101 0 .507.1.88.29 1.112.19.227.45.345.76.345a.86.86 0 0 0 .62-.234c.17-.153.28-.394.32-.718zM2429.21 542.563l-.07-.603c.15.04.27.06.37.06.14 0 .26-.024.35-.074a.674.674 0 0 0 .21-.2c.04-.064.1-.223.19-.477.02-.038.03-.091.06-.16l-1.44-3.807h.69l.79 2.186c.11.282.19.573.28.877.07-.282.16-.566.26-.848l.81-2.215h.64l-1.43 3.861c-.15.416-.28.702-.36.862-.12.209-.25.366-.4.463a.925.925 0 0 1-.53.149c-.12 0-.26-.025-.42-.074zM2287.36 541.135v-5.233h.68v2.587l2.61-2.587h.94l-2.2 2.122 2.29 3.111h-.91l-1.86-2.646-.87.832v1.814zM2291.76 539.236c0-.703.2-1.225.59-1.561.32-.282.72-.423 1.19-.423.52 0 .94.172 1.28.514.32.341.49.815.49 1.416 0 .486-.07.871-.22 1.153-.14.28-.36.496-.64.652-.28.155-.58.232-.91.232-.53 0-.96-.168-1.29-.511-.33-.343-.49-.834-.49-1.472m.66-.003c0 .487.1.854.32 1.092.21.243.47.365.8.365.31 0 .58-.122.79-.365.21-.242.32-.612.32-1.112 0-.471-.11-.828-.32-1.064a1.007 1.007 0 0 0-.79-.368c-.33 0-.59.121-.8.364-.22.239-.32.605-.32 1.088zM2295.87 541.135v-3.797h.58v.574c.14-.268.28-.448.4-.533a.753.753 0 0 1 .41-.127c.22 0 .43.073.66.205l-.23.593a.897.897 0 0 0-.46-.138.63.63 0 0 0-.38.127.65.65 0 0 0-.23.352c-.08.232-.11.481-.11.752v1.992zM2300.72 539.908l.66.085c-.1.388-.3.692-.58.907-.28.212-.64.319-1.08.319-.55 0-.99-.169-1.32-.512-.32-.344-.48-.822-.48-1.44 0-.636.16-1.134.49-1.486.32-.352.75-.529 1.27-.529.51 0 .92.172 1.24.521.32.344.48.83.48 1.46v.169h-2.83c.03.416.15.732.36.954.21.222.48.334.79.334a.95.95 0 0 0 .6-.186c.17-.126.3-.326.4-.596m-2.11-1.036h2.11c-.02-.318-.1-.558-.24-.717a.976.976 0 0 0-.79-.374c-.3 0-.54.1-.75.297-.19.199-.31.46-.33.794zM2304.48 540.663c-.23.203-.46.348-.68.43-.22.085-.46.126-.71.126-.42 0-.74-.101-.97-.306a1.02 1.02 0 0 1-.33-.78c0-.188.04-.357.12-.51.09-.153.2-.277.34-.371.13-.095.29-.163.46-.209.13-.035.32-.067.58-.097.52-.064.9-.138 1.15-.222v-.168c0-.264-.06-.449-.18-.558-.17-.14-.41-.217-.74-.217-.31 0-.53.054-.67.161-.15.107-.26.293-.32.563l-.63-.085c.06-.271.15-.489.28-.652.13-.166.32-.292.57-.381.25-.09.53-.135.86-.135.33 0 .59.036.79.113.2.077.34.172.44.288.1.115.17.259.2.438.03.108.04.307.04.593v.86c0 .597.01.975.04 1.132.02.157.08.311.15.459h-.66a1.361 1.361 0 0 1-.13-.472m-.05-1.435c-.23.093-.58.176-1.05.242-.27.04-.46.079-.56.131a.557.557 0 0 0-.26.205.56.56 0 0 0 .11.736c.13.114.32.176.57.176.25 0 .47-.057.67-.164.19-.108.33-.261.42-.448.07-.146.11-.358.11-.642zM2307.93 541.135v-5.233h.69v5.233zM2309.58 541.135v-3.797h.58v.536c.28-.417.68-.622 1.21-.622.22 0 .43.039.62.123.19.082.34.189.43.32.1.136.16.294.2.478.03.119.04.328.04.626v2.336h-.65v-2.311c0-.259-.02-.46-.07-.589a.594.594 0 0 0-.27-.308.8.8 0 0 0-.45-.117c-.27 0-.51.085-.7.26-.2.17-.3.502-.3.991v2.074zM2313.21 539.993l.63-.095c.04.253.13.45.3.589.16.136.39.203.68.203.29 0 .52-.062.66-.182a.536.536 0 0 0 .21-.421.386.386 0 0 0-.19-.343c-.08-.058-.3-.13-.65-.218-.48-.118-.81-.222-.99-.31a.939.939 0 0 1-.41-.358 1.021 1.021 0 0 1-.14-.513c0-.169.04-.325.12-.471.07-.14.18-.262.31-.357.1-.075.24-.138.41-.188.18-.053.36-.077.56-.077.3 0 .56.043.78.127.23.085.4.205.5.349.11.144.19.342.22.586l-.62.086a.68.68 0 0 0-.25-.454c-.14-.108-.33-.165-.59-.165-.29 0-.51.05-.63.149-.13.095-.19.21-.19.342 0 .082.02.155.08.225.05.068.13.126.24.17.07.026.26.076.58.162.45.126.77.223.95.3.18.077.32.192.42.341.1.144.15.329.15.547 0 .216-.06.416-.18.609-.13.189-.31.335-.55.438-.23.103-.5.155-.79.155-.5 0-.87-.101-1.13-.31-.26-.204-.42-.509-.49-.916zM2318.33 540.563l.08.566c-.18.038-.34.056-.48.056-.23 0-.41-.036-.54-.113a.586.586 0 0 1-.27-.29c-.06-.121-.08-.374-.08-.758v-2.189h-.47v-.497h.47v-.937l.64-.382v1.319h.65v.497h-.65v2.221c0 .186.02.304.04.358a.26.26 0 0 0 .11.125c.05.031.12.043.22.043.07 0 .16-.007.28-.019zM2318.78 536.632v-.73h.64v.73h-.64m0 4.503v-3.797h.64v3.797zM2321.61 540.563l.09.566c-.18.038-.34.056-.48.056-.24 0-.42-.036-.55-.113a.634.634 0 0 1-.27-.29c-.05-.121-.07-.374-.07-.758v-2.189h-.47v-.497h.47v-.937l.64-.382v1.319h.64v.497h-.64v2.221c0 .186.01.304.03.358.03.054.06.092.11.125.06.031.13.043.22.043.08 0 .17-.007.28-.019zM2324.55 541.135v-.562c-.3.432-.7.646-1.2.646-.23 0-.43-.041-.63-.126-.19-.086-.34-.193-.43-.325-.1-.129-.16-.289-.2-.477-.03-.126-.04-.326-.04-.599v-2.354h.64v2.103c0 .335.02.561.04.678.04.172.13.303.26.397.13.099.29.147.49.147.19 0 .37-.048.53-.148a.906.906 0 0 0 .37-.406c.06-.169.1-.416.1-.738v-2.033h.64v3.797zM2327.34 540.563l.09.566a2.36 2.36 0 0 1-.49.056c-.23 0-.41-.036-.54-.113a.691.691 0 0 1-.27-.29c-.05-.121-.08-.374-.08-.758v-2.189h-.47v-.497h.47v-.937l.65-.382v1.319h.64v.497h-.64v2.221c0 .186.01.304.03.358a.26.26 0 0 0 .11.125c.05.031.12.043.22.043.07 0 .17-.007.28-.019zM2330.38 539.908l.66.085c-.1.388-.29.692-.58.907-.28.212-.64.319-1.08.319-.55 0-.99-.169-1.32-.512-.32-.344-.48-.822-.48-1.44 0-.636.16-1.134.49-1.486.33-.352.75-.529 1.27-.529.51 0 .93.172 1.25.521.32.344.48.83.48 1.46 0 .034 0 .09-.01.169h-2.82c.02.416.14.732.35.954.21.222.48.334.79.334a1 1 0 0 0 .61-.186c.16-.126.29-.326.39-.596m-2.1-1.036h2.11c-.03-.318-.11-.558-.25-.717a.963.963 0 0 0-.79-.374c-.3 0-.54.1-.74.297-.2.199-.32.46-.33.794zM2333.67 541.135v-3.3h-.56v-.497h.56v-.399c0-.251.02-.444.07-.565a.825.825 0 0 1 .32-.403c.15-.102.37-.155.66-.155.17 0 .37.022.59.067l-.09.56a2.318 2.318 0 0 0-.38-.037c-.19 0-.33.042-.41.126-.08.081-.12.233-.12.459v.347h.73v.497h-.73v3.3zM2335.12 539.236c0-.703.2-1.225.59-1.561.33-.282.72-.423 1.19-.423.52 0 .95.172 1.28.514.33.341.49.815.49 1.416 0 .486-.07.871-.21 1.153-.15.28-.36.496-.65.652-.27.155-.58.232-.91.232-.53 0-.96-.168-1.28-.511-.33-.343-.5-.834-.5-1.472m.67-.003c0 .487.1.854.32 1.092.2.243.47.365.79.365.32 0 .59-.122.8-.365.21-.242.32-.612.32-1.112 0-.471-.11-.828-.33-1.064a.993.993 0 0 0-.79-.368c-.32 0-.59.121-.79.364-.22.239-.32.605-.32 1.088zM2339.23 541.135v-3.797h.58v.574c.15-.268.28-.448.41-.533a.706.706 0 0 1 .41-.127c.21 0 .43.073.66.205l-.23.593a.931.931 0 0 0-.47-.138c-.13 0-.26.045-.37.127a.726.726 0 0 0-.24.352c-.07.232-.1.481-.1.752v1.992zM2342.6 541.184v-5.234h.69v5.234zM2344.25 541.184v-3.797h.58v.538c.28-.419.68-.626 1.21-.626.22 0 .43.039.62.125a.94.94 0 0 1 .43.322c.1.133.16.292.2.472.03.121.03.328.03.628v2.338h-.64v-2.312c0-.263-.02-.459-.07-.588a.624.624 0 0 0-.27-.315.882.882 0 0 0-.44-.111c-.28 0-.51.084-.71.259-.2.175-.3.504-.3.991v2.076zM2349.53 540.607l.08.567c-.18.039-.34.057-.48.057-.23 0-.41-.037-.54-.11a.592.592 0 0 1-.27-.293c-.06-.12-.08-.371-.08-.761v-2.186h-.47v-.494h.47v-.939l.64-.384v1.323h.65v.494h-.65v2.225c0 .185.01.299.04.353a.25.25 0 0 0 .11.126c.05.03.12.048.22.048.07 0 .16-.007.28-.026zM2352.57 539.953l.66.085c-.1.391-.3.695-.58.907-.28.214-.65.324-1.08.324-.56 0-.99-.17-1.32-.515-.32-.34-.49-.819-.49-1.439 0-.639.17-1.131.49-1.484.34-.355.76-.532 1.28-.532.51 0 .92.173 1.24.52.32.344.48.83.48 1.457v.173h-2.82c.02.416.14.734.35.953.21.224.47.331.79.331.23 0 .43-.059.6-.186.17-.121.3-.321.4-.594m-2.11-1.035h2.11c-.03-.317-.1-.56-.24-.719a.976.976 0 0 0-.79-.368c-.3 0-.54.099-.75.296-.2.197-.31.461-.33.791zM2353.84 541.184v-3.797h.59v.57c.14-.267.28-.443.4-.533a.735.735 0 0 1 .41-.125c.22 0 .43.068.66.207l-.23.593a.9.9 0 0 0-.46-.14c-.14 0-.27.044-.38.128a.65.65 0 0 0-.23.352c-.08.231-.11.481-.11.75v1.995zM2356.1 541.184v-3.797h.58v.538c.28-.419.68-.626 1.21-.626.23 0 .44.039.63.125.19.079.33.188.43.322.1.133.16.292.2.472.02.121.03.328.03.628v2.338h-.64v-2.312c0-.263-.02-.459-.08-.588a.561.561 0 0 0-.26-.315.894.894 0 0 0-.45-.111c-.27 0-.51.084-.71.259-.19.175-.29.504-.29.991v2.076zM2362.46 540.708c-.23.205-.46.349-.68.433-.23.083-.46.128-.71.128-.42 0-.74-.103-.97-.308a1.029 1.029 0 0 1-.34-.783c0-.185.05-.355.13-.51.09-.151.2-.275.34-.37.14-.093.29-.163.46-.209.13-.034.32-.065.58-.101.52-.059.9-.134 1.15-.219v-.166c0-.265-.06-.447-.18-.558-.17-.143-.42-.214-.74-.214-.31 0-.53.05-.67.158-.15.107-.26.295-.33.562l-.62-.088c.06-.267.15-.484.28-.646.13-.166.32-.298.57-.384.25-.092.53-.134.86-.134.32 0 .59.039.79.116.2.074.35.169.44.282.1.121.16.265.2.438.02.111.03.309.03.595v.858c0 .601.02.98.04 1.135.03.161.08.312.16.461h-.66a1.632 1.632 0 0 1-.13-.476m-.05-1.432c-.23.092-.59.175-1.05.241-.27.038-.45.081-.57.127a.652.652 0 0 0-.25.211.556.556 0 0 0 .11.735c.13.115.32.172.57.172.25 0 .47-.055.66-.162.2-.108.34-.258.43-.445.07-.149.11-.363.11-.642zM2365.26 540.607l.09.567c-.18.039-.34.057-.48.057-.24 0-.42-.037-.54-.11a.614.614 0 0 1-.28-.293c-.05-.12-.07-.371-.07-.761v-2.186h-.48v-.494h.48v-.939l.64-.384v1.323h.64v.494h-.64v2.225c0 .185.01.299.04.353.02.055.05.095.1.126.06.03.13.048.22.048.07 0 .17-.007.28-.026zM2365.72 536.684v-.734h.64v.734h-.64m0 4.5v-3.797h.64v3.797zM2366.92 539.283c0-.702.19-1.223.58-1.561.32-.282.72-.423 1.19-.423.52 0 .95.173 1.28.511.33.345.49.815.49 1.42 0 .488-.07.872-.21 1.151-.15.28-.36.497-.64.654a1.89 1.89 0 0 1-.92.234c-.53 0-.96-.17-1.28-.512-.33-.343-.49-.832-.49-1.474m.66-.002c0 .489.1.849.31 1.089.22.245.48.363.8.363.32 0 .59-.122.8-.364.21-.239.31-.61.31-1.107 0-.473-.1-.827-.31-1.069-.22-.24-.48-.362-.8-.362-.32 0-.58.117-.8.359-.21.243-.31.602-.31 1.091zM2371.03 541.184v-3.797h.58v.538c.28-.419.68-.626 1.2-.626.23 0 .44.039.64.125.19.079.33.188.43.322.09.133.16.292.19.472.03.121.04.328.04.628v2.338h-.65v-2.312c0-.263-.02-.459-.07-.588a.624.624 0 0 0-.27-.315.831.831 0 0 0-.44-.111c-.28 0-.51.084-.71.259-.2.175-.3.504-.3.991v2.076zM2377.39 540.708c-.23.205-.46.349-.68.433-.23.083-.46.128-.72.128-.41 0-.74-.103-.96-.308a.995.995 0 0 1-.34-.783c0-.185.04-.355.13-.51.08-.151.2-.275.33-.37a1.5 1.5 0 0 1 .47-.209c.12-.034.31-.065.57-.101.52-.059.9-.134 1.15-.219.01-.088.01-.144.01-.166 0-.265-.06-.447-.19-.558-.16-.143-.41-.214-.74-.214-.3 0-.52.05-.67.158-.14.107-.25.295-.32.562l-.63-.088c.06-.267.16-.484.29-.646.13-.166.32-.298.56-.384.25-.092.53-.134.86-.134.33 0 .59.039.79.116.21.074.35.169.45.282.09.121.16.265.2.438.02.111.03.309.03.595v.858c0 .601.01.98.04 1.135.03.161.08.312.16.461h-.66a1.371 1.371 0 0 1-.13-.476m-.05-1.432c-.24.092-.59.175-1.05.241-.27.038-.46.081-.57.127a.586.586 0 0 0-.25.211.545.545 0 0 0-.09.305c0 .171.06.315.2.43.12.115.32.172.57.172.25 0 .47-.055.66-.162.19-.108.34-.258.43-.445.07-.149.1-.363.1-.642zM2378.78 541.184v-5.234h.64v5.234z" style="fill:#2c2c2b;stroke:none" transform="matrix(5.2841 0 0 5.2841 -12086.66 -2567.353)"/><path d="M2330.07 496.842h-.07v-10.975h-6.68v26.411h6.68v-11.344h.07l8.66 11.351 9.03-.007-14.94-19.168zM2355.56 485.863h-6.65v8.447c2.42.265 4.64.593 6.65.969zM2348.91 512.29h6.65v-15.358c-2.2-.729-4.48-1.305-6.65-1.75zM2373.7 501.431v-5.337h-7.69v-4.437h8.11v-5.79h-14.93v10.29c4.7 1.088 8.12 2.195 10.5 3.366 1.49.618 2.81 1.259 4.01 1.908zM2359.19 498.145v14.135h14.93v-5.766h-8.11v-4.037c-1.75-1.766-4.15-3.19-6.82-4.332zM2387.09 485.867h-9.76v19.323c4.8 3.802 6.37 8.648 6.37 8.648v-10.227h3.61c5.57 0 8.69-2.741 8.69-9.009 0-6.094-3.65-8.735-8.91-8.735zm-2.31 12.128h-1.08v-6.62h1.08c2.47 0 4.58.033 4.58 3.379 0 3.241-2.27 3.241-4.58 3.241z" style="fill:#273567;stroke:none" transform="matrix(5.2841 0 0 5.2841 -12086.66 -2567.353)"/><path d="M2345.01 493.755s32.71 1.66 38.7 18.566c0 0-6.07-14.368-38.7-18.566z" style="fill:#273567;stroke:none" transform="matrix(5.2841 0 0 5.2841 -12086.66 -2567.353)"/><path d="M2346.68 485.867h-8.74l-5.12 7.243 8.87.012z" style="fill:#e21c2a;stroke:none" transform="matrix(5.2841 0 0 5.2841 -12086.66 -2567.353)"/></svg>