<svg xmlns="http://www.w3.org/2000/svg" xml:space="preserve" width="1354.7732" height="300" viewBox="0 0 1354.7732 300"><defs><clipPath id="a" clipPathUnits="userSpaceOnUse"><path d="M0 595.276h841.89V0H0Z"/></clipPath><clipPath id="b" clipPathUnits="userSpaceOnUse"><path d="M190.382 337.141c0-24.803 19.198-45.11 43.544-46.904-17.911 6.153-30.788 23.134-30.788 43.133 0 25.187 20.419 45.607 45.608 45.607 4.897 0 9.61-.782 14.031-2.21a46.805 46.805 0 0 1-25.348 7.421c-25.983 0-47.047-21.063-47.047-47.047"/></clipPath><clipPath id="d" clipPathUnits="userSpaceOnUse"><path d="M189.511 361.554c-8.992-12.016-13.312-27.496-10.773-43.478 4.992-31.411 34.548-52.821 66.012-47.819a57.48 57.48 0 0 1 26.728 11.712l-17.826 17.826a44.92 44.92 0 0 0-21.07-5.221c-24.922 0-45.126 20.205-45.126 45.127 0 16.164 8.505 30.333 21.275 38.303.155.09.319.194.467.271 3.614 2.431 7.583 4.373 11.841 5.678-12.887-3.721-23.942-11.738-31.528-22.399"/></clipPath><clipPath id="f" clipPathUnits="userSpaceOnUse"><path d="M0 595.276h841.89V0H0Z"/></clipPath><clipPath id="g" clipPathUnits="userSpaceOnUse"><path d="M0 595.276h841.89V0H0Z"/></clipPath><radialGradient id="c" cx="0" cy="0" r="1" fx="0" fy="0" gradientTransform="matrix(92.88802 0 0 -92.888 215.241 379.975)" gradientUnits="userSpaceOnUse" spreadMethod="pad"><stop offset="0" style="stop-opacity:1;stop-color:#f7f280"/><stop offset="0.303375" style="stop-opacity:1;stop-color:#f7f280"/><stop offset="0.79538003" style="stop-opacity:1;stop-color:#ed6c20"/><stop offset="1" style="stop-opacity:1;stop-color:#ed6c20"/></radialGradient><radialGradient id="e" cx="0" cy="0" r="1" fx="0" fy="0" gradientTransform="matrix(135.61969 0 0 -135.61969 212.59 396.437)" gradientUnits="userSpaceOnUse" spreadMethod="pad"><stop offset="0" style="stop-opacity:1;stop-color:#323999"/><stop offset="0.505615" style="stop-opacity:1;stop-color:#323999"/><stop offset="0.65056703" style="stop-opacity:1;stop-color:#52c7f4"/><stop offset="1" style="stop-opacity:1;stop-color:#52c7f4"/></radialGradient></defs><g clip-path="url(#a)" transform="matrix(2.35743 0 0 -2.35743 -419.666 935.402)"><path d="M0 0h17.98v27.801h5.439V14.203h4.634v13.598h5.591v-42.609h-5.591V9.015h-4.634v-23.823H17.98v9.62H-2.166c-1.209 0-2.099.202-2.669.605-.739.503-1.108 1.376-1.108 2.619v29.765h19.239v-5.187H0Z" style="fill:#2f3a6c;fill-opacity:1;fill-rule:nonzero;stroke:none" transform="translate(352.101 345.873)"/><path d="M0 0v-12.591h-5.893v28.758H0V5.238h5.942V0Zm-31.428 7.152c-1.276-1.209-1.914-2.67-1.914-4.382 0-1.68.638-3.123 1.914-4.332 1.276-1.208 2.787-1.813 4.533-1.813 1.679 0 3.189.605 4.533 1.813 1.41 1.242 2.115 2.687 2.115 4.332 0 1.712-.705 3.173-2.115 4.382-1.31 1.14-2.821 1.712-4.533 1.712-1.746 0-3.257-.572-4.533-1.712m-6.245-18.535h5.893v-9.619H.353v-5.188h-34.551c-1.176 0-2.032.286-2.569.857-.604.604-.906 1.578-.906 2.92zm20.095 20.751a9.378 9.378 0 0 0 2.217-2.922 7.942 7.942 0 0 0 .906-3.676c0-3.324-1.259-6.044-3.777-8.159-2.385-2.049-5.255-3.072-8.613-3.072-3.323 0-6.195 1.023-8.612 3.072-2.552 2.148-3.828 4.868-3.828 8.159 0 1.275.252 2.484.756 3.626.469 1.041 1.175 2.031 2.115 2.972h-4.583v5.087h10.979v4.079h6.346v-4.079h10.778V9.368Z" style="fill:#2f3a6c;fill-opacity:1;fill-rule:nonzero;stroke:none" transform="translate(437.318 357.507)"/><path d="M483.05 340.534h-26.039v-4.13h26.039zm-27.853 18.786h12.894v5.389h-12.894zm-3.978-9.771h5.792v-4.18h26.039v4.18h5.842v-14.455c0-1.376-.32-2.367-.957-2.971-.538-.571-1.394-.856-2.569-.856h-30.622c-1.176 0-2.048.285-2.619.856-.604.604-.906 1.579-.906 2.921zm22.664 17.175h9.116v6.95h5.893v-20.448h-5.893v8.31h-9.116v-3.425c0-1.41-.302-2.435-.906-3.072-.572-.572-1.428-.856-2.569-.856h-17.679c-1.175 0-2.031.284-2.568.856-.571.604-.856 1.628-.856 3.072v15.563h5.892v-4.13h12.894v4.13h5.792zM527.421 351.06h-13.447v-1.864h13.447zm-23.017 6.547c-1.142 0-1.998.285-2.569.856-.638.638-.956 1.645-.956 3.022v6.245h33.643v1.461h-33.643v4.483h39.637V363.5h-33.644v-1.511h33.644v-4.382zm36.112-8.411v-11.281h-33.644v-1.713h33.644v-4.885h-36.112c-1.209 0-2.083.286-2.619.856-.604.572-.906 1.545-.906 2.921v7.555h33.643v1.712h-33.643v4.835h7.252v1.864h-8.764v4.936h42.61v-4.936h-8.714v-1.864z" style="fill:#2f3a6c;fill-opacity:1;fill-rule:nonzero;stroke:none"/><path d="M0 0v-5.238h-19.391v-17.879h-5.841v17.879h-18.031V0h35.204v14.556h-33.693v5.137h39.587V0Z" style="fill:#2f3a6c;fill-opacity:1;fill-rule:nonzero;stroke:none" transform="translate(594.204 353.981)"/><path d="M0 0c.335-3.761 2.014-6.43 5.036-8.008 2.216-1.142 5.859-1.914 10.929-2.317v-5.591c-4.13.235-7.756.907-10.879 2.015-3.827 1.41-6.614 3.391-8.36 5.943-1.781-2.619-4.601-4.617-8.461-5.993-3.09-1.075-6.699-1.73-10.828-1.965v5.541c5.069.436 8.729 1.242 10.979 2.417C-8.597-6.38-6.935-3.727-6.599 0h-15.159v5.238h37.119V0Zm-.303-16.167v-12.742h18.434v-5.238h-42.609v5.238h18.434v12.742z" style="fill:#2f3a6c;fill-opacity:1;fill-rule:nonzero;stroke:none" transform="translate(626.992 367.53)"/><path d="M0 0c-1.914-1.78-2.871-3.912-2.871-6.396 0-2.452.957-4.55 2.871-6.296 1.846-1.746 4.029-2.619 6.547-2.619 2.484 0 4.65.873 6.497 2.619 1.947 1.746 2.922 3.844 2.922 6.296 0 2.484-.975 4.616-2.922 6.396-1.881 1.712-4.046 2.569-6.497 2.569C4.062 2.569 1.88 1.712 0 0m28.456 8.008V2.82H17.93c1.376-1.175 2.45-2.518 3.223-4.028a10.74 10.74 0 0 0 1.309-5.188c0-4.164-1.661-7.605-4.985-10.325-3.056-2.551-6.666-3.828-10.83-3.828-4.263 0-7.94 1.277-11.029 3.828-3.291 2.72-4.935 6.161-4.935 10.325 0 1.813.402 3.542 1.208 5.188.738 1.477 1.813 2.82 3.223 4.028h-9.922v5.188H.855v7.101h5.843V8.008h13.699v11.383h-33.694v5.187H26.29V8.008Z" style="fill:#2f3a6c;fill-opacity:1;fill-rule:nonzero;stroke:none" transform="translate(668.895 349.096)"/><path d="M0 0h5.893v-9.469h32.132v-5.187h-34.5c-1.174 0-2.047.285-2.618.856C.303-13.196 0-12.221 0-10.879Zm4.029 10.879H31.78v16.822h5.893v-9.066h5.943v-5.238h-5.943V-1.058H31.78v6.8H1.612c-1.209 0-2.083.284-2.619.856-.604.604-.906 1.594-.906 2.971v18.132h24.326v-5.188H4.029Z" style="fill:#2f3a6c;fill-opacity:1;fill-rule:nonzero;stroke:none" transform="translate(709.086 345.973)"/><path d="m0 0-6.926 8.059c-.387-.352-.782-.711-1.185-1.08a26.83 26.83 0 0 1-.843-.791V-.026l-2.844.052v17.829h2.844V9.718a78.995 78.995 0 0 1 3.766 3.753 77.364 77.364 0 0 1 3.871 4.411h3.45a167.307 167.307 0 0 0-3.621-4.214 85.007 85.007 0 0 0-3.358-3.582L3.476 0Z" style="fill:#2f3a6c;fill-opacity:1;fill-rule:nonzero;stroke:none" transform="translate(361.049 287.057)"/><path d="M0 0c.921 1.272 1.382 2.909 1.382 4.911C1.382 6.895.921 8.506 0 9.744-.922 10.981-2.19 11.6-3.806 11.6c-1.632 0-2.897-.619-3.792-1.856-.895-1.238-1.343-2.849-1.343-4.833 0-2.002.448-3.639 1.343-4.911.895-1.273 2.16-1.91 3.792-1.91C-2.19-1.91-.922-1.273 0 0m2.225 11.653C3.735 9.932 4.49 7.685 4.49 4.911c0-2.809-.755-5.087-2.265-6.834-1.51-1.747-3.52-2.62-6.031-2.62-2.493 0-4.481.873-5.965 2.62-1.483 1.747-2.225 4.025-2.225 6.834 0 2.774.742 5.021 2.225 6.742 1.484 1.721 3.472 2.581 5.965 2.581 2.511 0 4.521-.86 6.031-2.581" style="fill:#2f3a6c;fill-opacity:1;fill-rule:nonzero;stroke:none" transform="translate(374.73 291.073)"/><path d="M0 0c.685.483 1.027 1.181 1.027 2.094 0 .878-.316 1.536-.948 1.975-.632.438-1.361.658-2.186.658h-4.398V-.724h4.24C-1.44-.724-.685-.483 0 0m1.633-10.495-4.978 7.084h-3.16v-7.11l-2.844.053V7.361l7.295-.027c1.72 0 3.169-.487 4.345-1.461 1.176-.975 1.765-2.234 1.765-3.779 0-1.212-.387-2.291-1.159-3.24-.773-.947-1.73-1.598-2.871-1.948l5.136-7.401z" style="fill:#2f3a6c;fill-opacity:1;fill-rule:nonzero;stroke:none" transform="translate(390.65 297.551)"/><path d="M0 0v17.829h12.483l.053-2.634H2.844v-4.714l9.244-.026V7.874H2.844V2.607h9.876l.027-2.633z" style="fill:#2f3a6c;fill-opacity:1;fill-rule:nonzero;stroke:none" transform="translate(396.97 287.083)"/><path d="m0 0-3.002-7.638h6.004zm5.741-14.59-1.712 4.267h-8.085l-1.685-4.24-2.923-.027 7.031 17.908H1.58L8.664-14.59Z" style="fill:#2f3a6c;fill-opacity:1;fill-rule:nonzero;stroke:none" transform="translate(419.354 301.62)"/><path d="M0 0v17.829h2.844V2.607l9.165.027v-2.66z" style="fill:#2f3a6c;fill-opacity:1;fill-rule:nonzero;stroke:none" transform="translate(440.634 287.083)"/><path d="M0 0v17.829h12.483l.053-2.634H2.845v-4.714l9.243-.026V7.874H2.845V2.607h9.876l.026-2.633z" style="fill:#2f3a6c;fill-opacity:1;fill-rule:nonzero;stroke:none" transform="translate(454.274 287.083)"/><path d="m0 0-.025 1.87C-.518 1.272-1.189.72-2.041.211c-.852-.509-1.848-.764-2.988-.764-2.529 0-4.526.878-5.992 2.633-1.466 1.756-2.199 4.038-2.199 6.848 0 2.774.729 5.017 2.186 6.728 1.457 1.712 3.459 2.568 6.005 2.568 2.386 0 4.195-.676 5.425-2.028 1.228-1.352 1.983-2.651 2.264-3.897H-.421c-.264.772-.746 1.514-1.448 2.225-.703.711-1.756 1.066-3.16 1.066-1.651 0-2.919-.618-3.806-1.856s-1.33-2.84-1.33-4.806c0-1.967.443-3.595 1.33-4.885.887-1.291 2.155-1.937 3.806-1.937 1.492 0 2.655.488 3.489 1.462.834.975 1.312 2.041 1.436 3.201H-4.95v2.475h7.768l.053-9.27z" style="fill:#2f3a6c;fill-opacity:1;fill-rule:nonzero;stroke:none" transform="translate(481.478 287.083)"/><path d="m0 0-3.003-7.638h6.005zm5.741-14.59-1.712 4.267h-8.085l-1.685-4.24-2.924-.027 7.032 17.908H1.58L8.664-14.59Z" style="fill:#2f3a6c;fill-opacity:1;fill-rule:nonzero;stroke:none" transform="translate(493.883 301.62)"/><path d="M0 0v17.829h2.845V2.607l9.164.027v-2.66z" style="fill:#2f3a6c;fill-opacity:1;fill-rule:nonzero;stroke:none" transform="translate(503.969 287.083)"/><path d="m0 0-3.002-7.638h6.004zm5.741-14.59-1.712 4.267h-8.085l-1.685-4.24-2.923-.027 7.031 17.908H1.58L8.664-14.59Z" style="fill:#2f3a6c;fill-opacity:1;fill-rule:nonzero;stroke:none" transform="translate(535.887 301.62)"/><path d="M0 0v17.829h2.792L2.818-.026Z" style="fill:#2f3a6c;fill-opacity:1;fill-rule:nonzero;stroke:none" transform="translate(545.973 287.083)"/><path d="M0 0c.912 1.22 1.369 2.717 1.369 4.49C1.369 6.263.912 7.751 0 8.954c-.913 1.202-2.31 1.804-4.188 1.804h-2.923V-1.83h2.923C-2.31-1.83-.913-1.221 0 0m2.277 10.824C3.761 9.112 4.503 7 4.503 4.49c0-2.546-.742-4.683-2.226-6.413C.794-3.651-1.212-4.508-3.74-4.49l-6.215.052v17.83h6.215c2.528 0 4.534-.856 6.017-2.568" style="fill:#2f3a6c;fill-opacity:1;fill-rule:nonzero;stroke:none" transform="translate(561.748 291.52)"/><path d="M0 0c-.246.807-.721 1.571-1.423 2.291-.702.72-1.773 1.08-3.213 1.08-1.597 0-2.853-.61-3.765-1.83-.913-1.221-1.37-2.849-1.37-4.886s.457-3.682 1.37-4.937c.912-1.256 2.168-1.884 3.765-1.884 1.405 0 2.476.404 3.213 1.212.737.808 1.229 1.677 1.475 2.607l3.003-.026C2.738-7.831 1.966-9.262.737-10.666c-1.229-1.404-3.02-2.106-5.373-2.106-2.546 0-4.547.869-6.004 2.606-1.458 1.738-2.186 4.012-2.186 6.821 0 2.792.728 5.044 2.186 6.755 1.457 1.712 3.458 2.568 6.004 2.568 2.406 0 4.223-.681 5.452-2.041C2.045 2.576 2.8 1.264 3.081 0Z" style="fill:#2f3a6c;fill-opacity:1;fill-rule:nonzero;stroke:none" transform="translate(591.533 299.33)"/><path d="M0 0c.922 1.272 1.382 2.909 1.382 4.911 0 1.984-.46 3.595-1.382 4.833-.922 1.237-2.19 1.856-3.806 1.856-1.632 0-2.897-.619-3.792-1.856-.895-1.238-1.343-2.849-1.343-4.833 0-2.002.448-3.639 1.343-4.911.895-1.273 2.16-1.91 3.792-1.91C-2.19-1.91-.922-1.273 0 0m2.225 11.653C3.734 9.932 4.49 7.685 4.49 4.911c0-2.809-.756-5.087-2.265-6.834-1.51-1.747-3.52-2.62-6.031-2.62-2.493 0-4.481.873-5.965 2.62s-2.225 4.025-2.225 6.834c0 2.774.741 5.021 2.225 6.742s3.472 2.581 5.965 2.581c2.511 0 4.521-.86 6.031-2.581" style="fill:#2f3a6c;fill-opacity:1;fill-rule:nonzero;stroke:none" transform="translate(607.69 291.073)"/><path d="M0 0c.685.483 1.027 1.181 1.027 2.094 0 .878-.316 1.536-.948 1.975-.632.438-1.36.658-2.185.658h-4.399V-.724h4.24c.826 0 1.58.241 2.265.724m1.633-10.495-4.978 7.084h-3.16v-7.11l-2.844.053V7.361l7.295-.027c1.721 0 3.169-.487 4.345-1.461 1.177-.975 1.765-2.234 1.765-3.779a4.988 4.988 0 0 0-1.159-3.24C2.124-2.093 1.168-2.744.026-3.094l5.136-7.401z" style="fill:#2f3a6c;fill-opacity:1;fill-rule:nonzero;stroke:none" transform="translate(623.608 297.551)"/><path d="M0 0c.685.474 1.027 1.229 1.027 2.265S.685 4.042 0 4.49a4.052 4.052 0 0 1-2.265.672h-4.293V-.711h4.293C-1.44-.711-.685-.474 0 0m2.238 6.255C3.414 5.21 4.003 3.88 4.003 2.265c0-1.563-.589-2.889-1.765-3.976C1.062-2.8-.378-3.344-2.081-3.344h-4.477v-6.742l-2.844.052V7.822h7.321c1.703 0 3.143-.523 4.319-1.567" style="fill:#2f3a6c;fill-opacity:1;fill-rule:nonzero;stroke:none" transform="translate(639.331 297.117)"/><path d="M0 0c.922 1.272 1.383 2.909 1.383 4.911C1.383 6.895.922 8.506 0 9.744-.922 10.981-2.19 11.6-3.806 11.6c-1.632 0-2.896-.619-3.792-1.856-.895-1.238-1.342-2.849-1.342-4.833 0-2.002.447-3.639 1.342-4.911.896-1.273 2.16-1.91 3.792-1.91C-2.19-1.91-.922-1.273 0 0m2.226 11.653C3.735 9.932 4.49 7.685 4.49 4.911c0-2.809-.755-5.087-2.264-6.834-1.51-1.747-3.521-2.62-6.032-2.62-2.493 0-4.481.873-5.965 2.62-1.483 1.747-2.225 4.025-2.225 6.834 0 2.774.742 5.021 2.225 6.742 1.484 1.721 3.472 2.581 5.965 2.581 2.511 0 4.522-.86 6.032-2.581" style="fill:#2f3a6c;fill-opacity:1;fill-rule:nonzero;stroke:none" transform="translate(656.251 291.073)"/><path d="M0 0c.685.483 1.027 1.181 1.027 2.094 0 .878-.316 1.536-.948 1.975-.633.438-1.361.658-2.186.658h-4.398V-.724h4.24C-1.44-.724-.685-.483 0 0m1.633-10.495-4.978 7.084h-3.16v-7.11l-2.845.053V7.361l7.295-.027c1.721 0 3.169-.487 4.346-1.461 1.176-.975 1.765-2.234 1.765-3.779 0-1.212-.387-2.291-1.16-3.24-.772-.947-1.729-1.598-2.87-1.948l5.135-7.401z" style="fill:#2f3a6c;fill-opacity:1;fill-rule:nonzero;stroke:none" transform="translate(672.17 297.551)"/><path d="m0 0-3.002-7.638h6.004zm5.741-14.59-1.712 4.267h-8.085l-1.685-4.24-2.923-.027 7.031 17.908H1.58L8.664-14.59Z" style="fill:#2f3a6c;fill-opacity:1;fill-rule:nonzero;stroke:none" transform="translate(686.207 301.62)"/><path d="M0 0v-15.248l-2.871.053L-2.897 0h-5.61v2.634H5.688V0Z" style="fill:#2f3a6c;fill-opacity:1;fill-rule:nonzero;stroke:none" transform="translate(700.823 302.278)"/><path d="M0 0v17.829h2.792L2.818-.026Z" style="fill:#2f3a6c;fill-opacity:1;fill-rule:nonzero;stroke:none" transform="translate(708.275 287.083)"/><path d="M0 0c.922 1.272 1.382 2.909 1.382 4.911 0 1.984-.46 3.595-1.382 4.833-.922 1.237-2.19 1.856-3.806 1.856-1.632 0-2.897-.619-3.792-1.856-.895-1.238-1.343-2.849-1.343-4.833 0-2.002.448-3.639 1.343-4.911.895-1.273 2.16-1.91 3.792-1.91C-2.19-1.91-.922-1.273 0 0m2.225 11.653C3.734 9.932 4.49 7.685 4.49 4.911c0-2.809-.756-5.087-2.265-6.834-1.51-1.747-3.52-2.62-6.031-2.62-2.493 0-4.481.873-5.965 2.62s-2.225 4.025-2.225 6.834c0 2.774.741 5.021 2.225 6.742s3.472 2.581 5.965 2.581c2.511 0 4.521-.86 6.031-2.581" style="fill:#2f3a6c;fill-opacity:1;fill-rule:nonzero;stroke:none" transform="translate(725.223 291.073)"/><path d="m0 0-7.875 13.589V-.026l-2.844.052v17.829l3.24-.026L.447 4.267l.027 13.588h2.792L3.292 0Z" style="fill:#2f3a6c;fill-opacity:1;fill-rule:nonzero;stroke:none" transform="translate(742.512 287.057)"/></g><g clip-path="url(#b)" transform="matrix(2.35743 0 0 -2.35743 -419.666 935.402)"><path d="M190.382 337.141c0-24.803 19.198-45.11 43.544-46.904-17.911 6.153-30.788 23.134-30.788 43.133 0 25.187 20.419 45.607 45.608 45.607 4.897 0 9.61-.782 14.031-2.21a46.805 46.805 0 0 1-25.348 7.421c-25.983 0-47.047-21.063-47.047-47.047" style="fill:url(#c);stroke:none"/></g><g clip-path="url(#d)" transform="matrix(2.35743 0 0 -2.35743 -419.666 935.402)"><path d="M189.511 361.554c-8.992-12.016-13.312-27.496-10.773-43.478 4.992-31.411 34.548-52.821 66.012-47.819a57.48 57.48 0 0 1 26.728 11.712l-17.826 17.826a44.92 44.92 0 0 0-21.07-5.221c-24.922 0-45.126 20.205-45.126 45.127 0 16.164 8.505 30.333 21.275 38.303.155.09.319.194.467.271 3.614 2.431 7.583 4.373 11.841 5.678-12.887-3.721-23.942-11.738-31.528-22.399" style="fill:url(#e);stroke:none"/></g><g clip-path="url(#f)" transform="matrix(2.35743 0 0 -2.35743 -419.666 935.402)"><path d="M0 0s-21.683 21.837-46.824-7.634c-25.143-29.471 2.704.475 10.968-.902 0 0-20.585-37.334-7.49-57.893 3.405 2.83 9.805 50.057 30.375 55.313C-4.869-9.046.274-9.87 3.356-13.221 7.274-17.482 8.088-8.916 0 0" style="fill:#323999;fill-opacity:1;fill-rule:nonzero;stroke:none" transform="translate(265.616 369.163)"/><path d="M0 0a8.515 8.515 0 0 0 5.636 10.64 8.511 8.511 0 0 0 10.638-5.635A8.512 8.512 0 0 0 10.64-5.634C6.146-7.018 1.384-4.495 0 0" style="fill:#323999;fill-opacity:1;fill-rule:nonzero;stroke:none" transform="translate(240.164 385.771)"/></g><g clip-path="url(#g)" transform="matrix(2.35743 0 0 -2.35743 -419.666 935.402)"><path d="m0 0-1.139 1.181 3.768 3.634-.523.541-3.402-3.282-1.14 1.181 7.564 7.296 1.14-1.182-2.793-2.693.522-.541 2.975 2.869 1.139-1.181Zm-1.205 5.028c-.14.097-.403.285-.788.562-.385.278-.855.703-1.408 1.278l-1.021 1.057 5.566 5.368 2.634-2.731-1.177-1.135-1.455 1.509-3.212-3.097.356-.369c.258-.268.559-.532.903-.79.345-.26.592-.445.743-.552z" style="fill:#323999;fill-opacity:1;fill-rule:nonzero;stroke:none" transform="translate(275.733 362.378)"/><path d="m0 0-1.823 3.04 1.228.736L1.229.736zm-.848-2.208-3.311 5.521 1.26.756L.412-1.452zm.264-4.041-.667 1.114-2.806-1.681-.873 1.455 7.121 4.27.873-1.455L.205-4.261l.668-1.114zm-3.203 4.604c.181.107.245.297.192.566A2.57 2.57 0 0 1-4.454.353c-.218.183-.414.223-.588.119C-5.23.358-5.29.165-5.22-.107c.07-.272.181-.536.333-.79.149-.247.325-.459.531-.638.205-.179.395-.216.569-.11m.88-1.494c-.486-.29-1.036-.292-1.652-.007-.615.289-1.143.799-1.585 1.536-.41.684-.602 1.374-.577 2.072.025.697.284 1.193.777 1.488.515.309 1.082.308 1.702-.003.619-.31 1.137-.81 1.551-1.501.441-.737.644-1.44.609-2.113-.035-.672-.311-1.162-.825-1.472m-3.329-5.317-3.95 6.586 2.728 1.638.932-1.555-1.392-.834 3.019-5.033z" style="fill:#323999;fill-opacity:1;fill-rule:nonzero;stroke:none" transform="translate(287.926 361.878)"/><path d="m0 0 .858.271L.26 2.162l-.858-.272Zm-.218-5.364L-.73-3.745l2.199.696-.501 1.586-1.995-.631-1.614 5.107 5.245 1.659.509-1.609-1.318-.417.598-1.889 1.317.416.509-1.608L2.527-.97l.502-1.587 2.054.65.512-1.618zm-3.862.608.665.21-1.244 3.933-.665-.21zm-.959-2.096L-7.31.33l4.472 1.413.511-1.618-.881-.279 1.244-3.933.881.278.516-1.63z" style="fill:#323999;fill-opacity:1;fill-rule:nonzero;stroke:none" transform="translate(290.234 349.784)"/><path d="m0 0-.573 7.876 2.832.207.428-5.876.379.028-.428 5.875 1.226.09.562-7.718L1.657.281l-.428 5.876-.378-.028.438-6.034Zm-2.382 2.867.569.042-.144 1.976-.569-.041zm-.267 3.681.568.042-.172 2.364 1.265.092.735-10.103-1.264-.093-.17 2.319-.568-.042.081-1.125-2.768-.201-.428 5.876-.379-.029.444-6.102-1.289-.094-.579 7.944 2.832.207.428-5.877.379.028-.427 5.876 1.226.09z" style="fill:#323999;fill-opacity:1;fill-rule:nonzero;stroke:none" transform="translate(292.88 332.642)"/><path d="m0 0-4.506.72.276 1.721 4.505-.719.622 3.893 1.615-.258-1.073-6.718c.356-.126.807-.279 1.352-.459a16.933 16.933 0 0 1 1.473-.419l.978 6.121 1.615-.258-1.275-7.978c-.747.15-1.522.339-2.33.568-.806.229-1.501.472-2.085.726L.913-4.646l-1.614.258z" style="fill:#323999;fill-opacity:1;fill-rule:nonzero;stroke:none" transform="translate(289.792 323.91)"/><path d="M0 0c.234.365.691.817 1.37 1.357.678.539 1.385.88 2.123 1.02-.39.508-.661 1.185-.815 2.035-.155.85-.188 1.543-.102 2.081l1.604.467c-.117-.82-.047-1.704.209-2.651.256-.948.764-1.574 1.527-1.875l.117-.047 1.118 2.818 1.52-.604-2.938-7.403-1.52.603L5.332.618l-.118.046C4.396.99 3.56.845 2.703.233 1.847-.379 1.228-.937.846-1.439Zm.258 9.104 1.52-.603L.23 4.604l2.157-.855-.639-1.611-2.156.857-1.551-3.91-1.52.604z" style="fill:#323999;fill-opacity:1;fill-rule:nonzero;stroke:none" transform="translate(284.992 309.902)"/><path d="M0 0c-.506.438-.922.855-1.248 1.251l.909 1.381c.269-.268.534-.526.797-.771a7.29 7.29 0 0 1 .844-.679l3.441 5.226 1.365-.9-4.481-6.805C1.048-.87.506-.437 0 0m1.756 9.616 1.366-.9-1.955-2.969 1.417-.934-.982-1.494-1.42.934L-2.451.256l-1.364.9Zm-5.449-4.414c.336.256.692.67 1.068 1.241.38.578.619 1.067.719 1.472.098.403.027.684-.213.841-.281.186-.591.155-.926-.092-.335-.248-.692-.66-1.073-1.238-.376-.571-.613-1.063-.713-1.474-.1-.412-.008-.711.274-.897.24-.159.529-.11.864.147m-2.804.088c.006.837.382 1.823 1.13 2.959.74 1.123 1.494 1.854 2.263 2.193.771.339 1.445.318 2.024-.063.578-.381.86-.985.847-1.814-.014-.828-.393-1.805-1.137-2.936-.747-1.134-1.501-1.876-2.26-2.222-.76-.345-1.429-.328-2.008.054-.577.38-.864.99-.859 1.829" style="fill:#323999;fill-opacity:1;fill-rule:nonzero;stroke:none" transform="translate(282.633 296.74)"/><path d="M0 0c.21.338.576.85 1.099 1.541A19.48 19.48 0 0 0 2.67 3.383l1.3 1.326L8.001.763 4.262-3.056 3.075-1.895 5.627.711 3.969 2.334l-.686-.7C3.012 1.357 2.635.905 2.151.278c-.483-.627-.82-1.091-1.01-1.394Zm-1.928-3.2.949.97L-3.316.058l1.188 1.212 5.833-5.71-1.187-1.214-2.329 2.28-.948-.97zm-3.625 5.049 5.332 5.447 2.782-2.722L1.373 3.36-.24 4.939-4.385.705Z" style="fill:#323999;fill-opacity:1;fill-rule:nonzero;stroke:none" transform="translate(273.305 291.38)"/></g></svg>