<svg xmlns="http://www.w3.org/2000/svg" xml:space="preserve" width="434.97165" height="500" viewBox="0 0 434.97164 500"><path d="M123.441 139.004v24.605h15.379v-4.78h-10.152v-15.034h4.342c3.35 0 6.735.275 10.156.83v20.153h5.074v-10.227h4.645v10.227h5.174v-42.637h-5.174v27.62h-4.645v-27.62h-5.074v17.698c-3.03-.554-6.464-.835-10.306-.835zM224.033 153.05c-1.63 1.603-2.529 3.564-2.702 5.875h8.999v4.684h-23.004v-4.684h8.577c-.114-2.402-.835-4.393-2.177-5.973-2.375-2.799-5.076-4.918-8.11-6.348l3.23-3.568c3.965 1.92 7.308 4.74 10.007 8.448 2.8-3.416 6.205-5.796 10.214-7.128l2.536 3.663a24.449 24.449 0 0 0-7.57 5.03M239.66 164.78v-9.242h5.86v-5.034h-5.86v-18.862l-5.275 4.815v28.323zM281.515 149.872h-3.664V122.14h-5.032v42.64h5.032v-9.882h3.664v9.882h5.077v-42.64h-5.077zM325.084 122.14H298.56v14.984h5.325v-10.25h21.198zM197.222 122.14h-26.526v14.984h5.326v-10.25h21.2zM324.976 133.566h-5.27v31.214h5.27zM359.946 122.14h-5.031v26.55h-5.763v5.03h5.763v11.06h5.031zM362.633 164.78h5.182v-42.64h-5.182zM197.415 164.78v-9.242h5.856v-5.034h-5.856v-15.57h-5.278v29.846zM395.7 136.01h-8.303v5.375h8.302zm-23.152 9.918v-4.545h9.722v-5.372h-5.32v-4.546h23.638v-9.861h5.27v14.407h-5.025v5.372h9.72v4.545zM426.179 141.91v-4.597h-12.11v-4.687h16.752c5.175 0 9.714.243 13.625.73V122.14h5.224v42.64h-5.224v-26.832c-3.979-.422-8.319-.635-13.046-.635v4.646zM330.699 157.992v4.686h7.905v3.91h5.476v-3.91h6.883v-4.686z" style="fill:#393536;fill-opacity:1;fill-rule:nonzero;stroke:none;stroke-width:1.47686" transform="matrix(1.33333 0 0 -1.33333 -164.588 474.712)"/><path d="M416.241 157.992v4.682h9.783v3.915h5.464v-3.915h9.733v-4.682zM163.078 157.992v4.686h10.202v3.91h5.465v-3.91h10.215v-4.686zM346.371 145.832c-1.527 2.442-2.29 5.488-2.29 9.136v3.36h-5.475v-3.36c0-3.648-.758-6.694-2.295-9.136-1.82-2.924-4.001-5.31-6.544-7.13l3.252-3.603c2.577 1.92 5.315 4.791 7.492 8.048.213.303.576.89.839 1.394.252-.456.614-1.1.82-1.394 2.185-3.257 4.917-6.128 7.493-8.048l3.256 3.602c-2.544 1.821-4.723 4.207-6.548 7.13M259.19 145.818c-3.595 0-6.508 3.063-6.508 6.837 0 3.775 2.913 6.83 6.507 6.83 3.592 0 6.506-3.055 6.506-6.83 0-3.774-2.914-6.837-6.506-6.837m0 18.414c-6.35 0-11.504-5.184-11.504-11.577 0-6.394 5.154-11.577 11.504-11.577 6.357 0 11.508 5.183 11.508 11.577 0 6.393-5.151 11.577-11.508 11.577M302.858 145.818c-3.593 0-6.507 3.063-6.507 6.837 0 3.775 2.914 6.83 6.507 6.83 3.597 0 6.507-3.055 6.507-6.83 0-3.774-2.91-6.837-6.507-6.837m0 18.414c-6.355 0-11.504-5.184-11.504-11.577 0-6.394 5.15-11.577 11.504-11.577 6.357 0 11.508 5.183 11.508 11.577 0 6.393-5.151 11.577-11.508 11.577M391.55 147.868c-3.595 0-6.508 3.056-6.508 6.834 0 3.772 2.913 6.833 6.508 6.833 3.591 0 6.505-3.061 6.505-6.833 0-3.778-2.914-6.834-6.505-6.834m0 18.408c-6.355 0-11.508-5.182-11.508-11.574 0-6.398 5.153-11.579 11.508-11.579 6.354 0 11.506 5.18 11.506 11.579 0 6.392-5.152 11.574-11.506 11.574" style="fill:#393536;fill-opacity:1;fill-rule:nonzero;stroke:none;stroke-width:1.47686" transform="matrix(1.33333 0 0 -1.33333 -164.588 474.712)"/><path d="M428.73 145.776c-3.086 0-5.588 2.642-5.588 5.9 0 3.256 2.502 5.901 5.589 5.901 3.088 0 5.587-2.645 5.587-5.901 0-3.258-2.499-5.9-5.587-5.9m0 16.595c-5.88 0-10.645-4.79-10.645-10.695 0-5.906 4.766-10.696 10.645-10.696 5.88 0 10.645 4.79 10.645 10.696 0 5.904-4.766 10.695-10.645 10.695M176.022 144.407c-3.39 0-6.135 2.88-6.135 6.445 0 3.557 2.745 6.445 6.135 6.445 3.386 0 6.131-2.888 6.131-6.445 0-3.566-2.745-6.445-6.131-6.445m0 17.658c-6.174 0-11.177-5.02-11.177-11.213 0-6.197 5.003-11.214 11.177-11.214 6.173 0 11.176 5.017 11.176 11.214 0 6.193-5.003 11.213-11.176 11.213M228.48 125.072c-3.385 0-6.13 2.888-6.13 6.446 0 3.56 2.745 6.448 6.13 6.448 3.387 0 6.134-2.887 6.134-6.448 0-3.558-2.747-6.446-6.135-6.446m0 17.661c-6.171 0-11.173-5.021-11.173-11.215 0-6.191 5.002-11.214 11.173-11.214 6.175 0 11.18 5.023 11.18 11.214 0 6.194-5.005 11.215-11.18 11.215" style="fill:#393536;fill-opacity:1;fill-rule:nonzero;stroke:none;stroke-width:1.47686" transform="matrix(1.33333 0 0 -1.33333 -164.588 474.712)"/><path d="M206.708 303.618c-17.761-45.209 2.137-93.849 46.373-113.275 43.98-19.312 94.977 1.09 113.743 45.308 18.772 44.211-2.286 94.485-46.5 113.24-44.213 18.784-96.05-.568-113.616-45.273" style="fill:#fff;fill-opacity:1;fill-rule:nonzero;stroke:none;stroke-width:1.47686" transform="matrix(1.33333 0 0 -1.33333 -164.588 474.712)"/><path d="m218.822 315.627.606 1.962c21.342 30.8 62.918 42.431 99.107 27.051 13.608-5.768 24.902-14.705 33.342-25.573-6.138 4.726-13.044 8.641-20.23 12.042-24.339 11.579-47.75 9.94-65.059.306-4.94-2.747-23.66-13.835-27.613-36.555 0 0-4.479-18.12 6.451-34.017 6.491-9.432 17.79-12.79 27.968-10.745 0 0-2.433-1.171-6.627-1.741-1.489-.207-2.976-.207-4.43-.207-5.759 0-11.19 1.063-16.147 3.168-12.032 5.108-21.335 15.386-26.19 28.933-4.126 11.504-4.508 24.163-1.178 35.376" style="fill:#f89c0e;fill-opacity:1;fill-rule:nonzero;stroke:none;stroke-width:1.47686" transform="matrix(1.33333 0 0 -1.33333 -164.588 474.712)"/><path d="M222.14 219.794s3.049-2.512 3.625-2.883c9.888-6.423 21.199-10.066 31.469-10.066 3.196 0 6.293.352 9.221 1.052 22.462 5.285 32.568 19.894 29.21 42.233-.169 1.124-.627 2.882-1.16 4.927-.301 1.13-1.584 5.119-1.844 5.553-6.764-5.882-15.544-10.156-22.753-11.264-7.911-1.23-16.012-.648-23.482 2.518-25.106 10.663-35.316 43.028-25.641 67.622a76.958 76.958 0 0 1-9.768-17.698c-11.425-29.062-6.402-59.625 11.122-81.994" style="fill:#ef3120;fill-opacity:1;fill-rule:nonzero;stroke:none;stroke-width:1.47686" transform="matrix(1.33333 0 0 -1.33333 -164.588 474.712)"/><path d="M366.935 277.32c-2.44 11.829-10.46 22.304-22.419 27.368-19.359 8.23-41.712-.806-49.937-20.159a37.933 37.933 0 0 1-1.413-25.854c.881-3.599 1.846-6.874 2.109-8.6 3.528-23.515-8.003-36.874-28.916-41.797-14.507-3.427-30.97 2.085-43.038 10.79-.461.333-.945.676-1.425 1.038 8.303-10.7 19.444-19.561 32.999-25.507 39.508-17.359 84.999-.839 104.707 36.675 13.042 25.542 7.333 46.047 7.333 46.047" style="fill:#233d91;fill-opacity:1;fill-rule:nonzero;stroke:none;stroke-width:1.47686" transform="matrix(1.33333 0 0 -1.33333 -164.588 474.712)"/><path d="m247.419 29.345.026-.842c.943-27.062 14.547-47.47 31.64-47.47 9.62 0 18.567 6.675 24.544 18.314a39.3 39.3 0 0 1 3.285 9.141l.179.805.735-.382C318.06 3.535 329.049.575 338.778.575c12.037 0 21.16 4.316 25.685 12.16 5.564 9.648 2.904 22.827-7.112 35.267-1.056 1.313-3.008 1.713-4.498.921a3.606 3.606 0 0 1-1.758-4.243c1.15-3.742 1.935-9.21-.831-14.01-3.187-5.517-10.09-8.553-19.44-8.553-9.499 0-20.236 3.175-30.236 8.951-7.43 4.29-13.898 9.709-18.702 15.673-1.053 1.311-3.004 1.719-4.497.926a3.61 3.61 0 0 1-1.756-4.242c3.497-11.443 13.19-22.848 26.58-31.286l.614-.39-.47-.553c-.645-.763-1.445-1.69-2.277-2.607-2.68-2.871-7.023-6.292-12.557-6.292-13.271 0-24.491 19.798-24.491 43.225 0 8.58 1.465 16.89 4.222 24.036a3.604 3.604 0 0 1-1.45 4.354c-1.425.895-3.413.627-4.552-.598-8.11-8.714-13.136-22.737-13.79-38.462l-.03-.713-.706.115c-1.332.223-2.573.48-3.692.77-3.8.88-8.934 2.934-11.706 7.732-3.094 5.358-2.39 12.64 1.973 20.506 4.697 8.454 12.936 16.374 23.21 22.31 7.432 4.293 15.366 7.18 22.924 8.363a3.602 3.602 0 0 1 3.05 3.43 3.615 3.615 0 0 1-2.791 3.646c-2.896.663-6.037 1.002-9.341 1.002-10.744 0-22.76-3.523-33.836-9.917-24.48-14.145-36.7-37.279-27.823-52.666 4.528-7.838 13.65-12.159 25.689-12.159 5.536 0 9.708.987 12.23 1.81z" style="fill:#fff;fill-opacity:1;fill-rule:nonzero;stroke:none;stroke-width:1.47686" transform="matrix(1.33333 0 0 -1.33333 -164.588 474.712)"/><path d="M278.882 97.497c-11.095 2.554-26.247-.261-40.56-8.523-22.394-12.934-34.258-34.306-26.504-47.742 4.959-8.582 16.73-11.858 30.421-9.72-6.26 1.442-11.231 4.597-14.033 9.438-7.76 13.44 4.109 34.817 26.5 47.747 8.088 4.662 16.44 7.59 24.176 8.8" style="fill:#ee2049;fill-opacity:1;fill-rule:nonzero;stroke:none;stroke-width:1.47686" transform="matrix(1.33333 0 0 -1.33333 -164.588 474.712)"/><path d="M279.078 44.484c3.332-10.892 13.343-22.605 27.66-30.865 22.392-12.934 46.84-12.524 54.6.914 4.953 8.59 1.897 20.412-6.796 31.205 1.885-6.141 1.643-12.022-1.157-16.873-7.761-13.441-32.205-13.85-54.598-.917-8.09 4.665-14.795 10.436-19.709 16.536" style="fill:#00a650;fill-opacity:1;fill-rule:nonzero;stroke:none;stroke-width:1.47686" transform="matrix(1.33333 0 0 -1.33333 -164.588 474.712)"/><path d="M263.892 70.856c-7.758-8.33-12.898-22.86-12.898-39.392 0-25.855 12.574-46.822 28.091-46.822 9.913 0 18.628 8.558 23.629 21.485-4.38-4.696-9.594-7.435-15.191-7.435-15.518 0-28.093 20.969-28.093 46.83 0 9.335 1.638 18.03 4.462 25.334" style="fill:#1079c4;fill-opacity:1;fill-rule:nonzero;stroke:none;stroke-width:1.47686" transform="matrix(1.33333 0 0 -1.33333 -164.588 474.712)"/></svg>