<svg xmlns="http://www.w3.org/2000/svg" width="200mm" height="200mm" viewBox="0 0 200 200"><path d="M0 0c0-51.315-41.608-92.924-92.926-92.924-51.323 0-92.924 41.609-92.924 92.924 0 51.323 41.601 92.927 92.924 92.927C-41.608 92.927 0 51.323 0 0" style="fill:#fff;fill-opacity:1;fill-rule:nonzero;stroke:none" transform="matrix(1.07614 0 0 -1.07613 200 100.002)"/><path d="M0 0v25.372h-25.379V0H-50.75v-25.371h25.371v-25.37H0v25.37h25.379V0Z" style="fill:#ed1c24;fill-opacity:1;fill-rule:nonzero;stroke:none" transform="matrix(1.07614 0 0 -1.07613 113.652 86.35)"/><path d="M0 0c-28.577 0-51.826 23.249-51.826 51.826S-28.577 103.652 0 103.652c28.576 0 51.825-23.249 51.825-51.826S28.576 0 0 0m52.533 51.826c0 28.968-23.566 52.535-52.533 52.535-28.968 0-52.535-23.567-52.535-52.535C-52.535 22.858-28.968-.708 0-.708c28.967 0 52.533 23.566 52.533 52.534" style="fill:#64574b;fill-opacity:1;fill-rule:nonzero;stroke:none" transform="matrix(1.07614 0 0 -1.07613 100.001 155.771)"/><path d="M0 0c-47.483 0-86.113 38.631-86.113 86.114 0 47.482 38.63 86.112 86.113 86.112 47.481 0 86.11-38.63 86.11-86.112C86.11 38.631 47.481 0 0 0m0 174.173c-48.557 0-88.061-39.503-88.061-88.059C-88.061 37.557-48.557-1.948 0-1.948c48.555 0 88.058 39.505 88.058 88.062 0 48.556-39.503 88.059-88.058 88.059" style="fill:#64574b;fill-opacity:1;fill-rule:nonzero;stroke:none" transform="matrix(1.07614 0 0 -1.07613 100.002 192.669)"/><path d="m0 0-.319-3.537 5.174-4.646c.504-.424 1.031-.873 1.605-1.302l-.005-.071-7.26.658-.258-2.858 15.783-1.428.258 2.857-5.55.502-1.556 1.581 7.638 3.795.305 3.372L6.23-6.041z" style="fill:#64574b;fill-opacity:1;fill-rule:nonzero;stroke:none" transform="matrix(1.07614 0 0 -1.07613 18.022 85.376)"/><path d="m0 0-.008-.022C-.862-2.661-3.882-3.364-6.88-2.394c-2.996.97-5.15 3.249-4.26 6 .891 2.751 4.031 3.291 6.872 2.373C-1.114 4.958.86 2.662 0 0m-3.438 8.922c-4.295 1.391-8.468-.125-9.887-4.509-1.376-4.25.963-8.244 5.571-9.736 4.407-1.427 8.541.2 9.924 4.472l.007.023c1.333 4.116-.561 8.114-5.615 9.75" style="fill:#64574b;fill-opacity:1;fill-rule:nonzero;stroke:none" transform="matrix(1.07614 0 0 -1.07613 35.174 79.001)"/><path d="m0 0-.887-1.469-4.285 2.589c.086.278.329.818.803 1.602.973 1.61 2.296 2.21 3.765 1.323C.743 3.231 1.009 1.67 0 0m6.497-5.929L.924-2.562l.753 1.247c.891 1.384 1.831 1.667 3.844 1 1.91-.659 3.222-.986 3.746-1.027l1.531 2.535c-.68.054-2.469.64-4.426 1.219-1.502.468-2.8.455-3.757-.312l-.061.037c.335 1.555-.135 3.459-1.885 4.516-1.166.705-2.367.854-3.44.486-1.324-.463-2.436-1.576-3.615-3.528C-7.249 2.183-7.955.742-8.344-.313l13.358-8.07z" style="fill:#64574b;fill-opacity:1;fill-rule:nonzero;stroke:none" transform="matrix(1.07614 0 0 -1.07613 35.359 61.6)"/><path d="m0 0-1.757 1.597-4.489-4.939-3.444 3.13 4.016 4.417-1.74 1.581-4.014-4.417-3.027 2.75 4.252 4.678-1.756 1.598-6.197-6.818L-6.434-7.079z" style="fill:#64574b;fill-opacity:1;fill-rule:nonzero;stroke:none" transform="matrix(1.07614 0 0 -1.07613 54.978 51.57)"/><path d="M0 0c-.323.926-.781 1.958-1.129 2.838l.038.028C-.363 2.261.481 1.538 1.294.937l3.298-2.428-3.293-2.386Zm3.731-10.356-1.53 4.434 4.072 2.951 3.795-2.793 2.512 1.82L-.882 5.861l-2.987-2.164 5.184-15.804z" style="fill:#64574b;fill-opacity:1;fill-rule:nonzero;stroke:none" transform="matrix(1.07614 0 0 -1.07613 53.883 37.99)"/><path d="m0 0-2.153 5.238c-.992 2.412-1.83 4.329-2.717 6.175l.078.057c1.396-1.357 3.085-2.745 4.681-3.97l6.479-4.882L9.15 3.76 3.128 18.41.651 17.391l2.099-5.107c.92-2.239 1.741-4.112 2.732-5.966l-.034-.039C4.122 7.588 2.555 8.926.929 10.164l-6.364 4.726-3.065-1.26 6.022-14.649Z" style="fill:#64574b;fill-opacity:1;fill-rule:nonzero;stroke:none" transform="matrix(1.07614 0 0 -1.07613 71.352 40.525)"/><path d="M0 0c1.873.169 3.14-.542 3.294-2.251.143-1.567-.957-2.705-2.9-2.881l-1.708-.155-.452 4.986C-1.492-.206-.913-.083 0 0m-.537-13.875-.587 6.482 1.451.131c1.642.102 2.427-.488 3.082-2.505.599-1.928 1.113-3.179 1.389-3.625l2.95.267c-.359.58-.947 2.368-1.64 4.287-.512 1.487-1.29 2.526-2.475 2.843l-.006.07c1.451.651 2.707 2.156 2.523 4.193C6.027-.375 5.436.68 4.504 1.327c-1.157.793-2.712 1.029-4.982.823-1.662-.15-3.24-.435-4.321-.745l1.407-15.539z" style="fill:#64574b;fill-opacity:1;fill-rule:nonzero;stroke:none" transform="matrix(1.07614 0 0 -1.07613 92.276 19.664)"/><path d="m0 0-6.642.685.476 4.63 5.942-.612.241 2.339-5.941.611.42 4.07 6.29-.648.244 2.362-9.168.944-1.624-15.762 9.519-.981z" style="fill:#64574b;fill-opacity:1;fill-rule:nonzero;stroke:none" transform="matrix(1.07614 0 0 -1.07613 112.666 32.5)"/><path d="M0 0c.432-.044 1.057-.176 1.926-.465C5.364-1.604 6.647-4.16 5.53-7.455c-1.264-3.816-4.043-5.1-7.606-3.895-.558.185-1.138.378-1.495.57zm4.136-13.531c1.858.821 3.431 2.504 4.325 5.205.844 2.543.549 4.647-.532 6.318C6.931-.389 5.204.827 2.391 1.759c-1.629.54-3.19.909-4.485 1.115l-4.895-14.775c.878-.414 2.053-.904 3.638-1.429 2.924-.968 5.541-1.067 7.487-.201" style="fill:#64574b;fill-opacity:1;fill-rule:nonzero;stroke:none" transform="matrix(1.07614 0 0 -1.07613 121.758 22.439)"/><path d="M0 0c1.563-1.127 3.005-1.701 3.751-1.832L4.702.293c-.822.186-1.952.71-2.886 1.383C-1.027 3.723-1.376 6.697.657 9.521c2.226 3.09 5.296 3.371 7.909 1.488 1.049-.755 1.744-1.602 2.161-2.308l1.843 1.511c-.299.592-1.166 1.68-2.712 2.793-3.929 2.83-8.713 2.423-11.762-1.813C-4.721 7.282-4.082 2.939 0 0" style="fill:#64574b;fill-opacity:1;fill-rule:nonzero;stroke:none" transform="matrix(1.07614 0 0 -1.07613 140.044 47.96)"/><path d="M0 0c.242-.161.69-.548 1.308-1.224 1.267-1.39 1.466-2.829.199-3.985-1.163-1.062-2.735-.874-4.05.568l-1.156 1.268zm-10.071-9.185 4.81 4.386.981-1.076c1.074-1.247 1.079-2.23-.132-3.97-1.173-1.643-1.86-2.809-2.048-3.3l1.995-2.188c.245.637 1.315 2.186 2.425 3.898.875 1.307 1.232 2.556.769 3.691l.052.048c1.396-.763 3.354-.853 4.865.525 1.008.918 1.491 2.027 1.444 3.161-.069 1.4-.821 2.782-2.358 4.467C1.608 1.689.427 2.776-.474 3.449L-12.003-7.067Z" style="fill:#64574b;fill-opacity:1;fill-rule:nonzero;stroke:none" transform="matrix(1.07614 0 0 -1.07613 157.97 44.025)"/><path d="M0 0c1.415-2.522-.322-5.195-2.927-6.655-2.891-1.621-5.918-1.512-7.286.928l-.012.02c-1.357 2.421.179 5.114 2.927 6.655C-4.55 2.49-1.415 2.522 0 0m-12.313-6.743.012-.02c2.116-3.773 6.337-5.099 10.972-2.5 3.937 2.207 5.659 6.3 3.406 10.32C-.109 4.953-4.63 5.949-8.855 3.581c-4.04-2.267-5.654-6.406-3.458-10.324" style="fill:#64574b;fill-opacity:1;fill-rule:nonzero;stroke:none" transform="matrix(1.07614 0 0 -1.07613 170.474 60.622)"/><path d="M0 0c-.128-2.123-.576-3.09-1.726-3.432-1.238-.369-2.368.375-2.889 2.132-.424 1.419-.381 2.928-.125 3.96l-2.486-.053c-.247-.981-.202-2.783.282-4.404C-5.785-5.695-3.14-6.919-.685-6.188c2.164.644 3.118 2.301 3.347 5.239.162 2.255.442 3.295 1.613 3.643.901.269 2.045-.2 2.568-1.958a6.9 6.9 0 0 0 .185-3.255l2.448.017c.148.903.153 2.203-.337 3.848-.985 3.313-3.472 4.829-5.972 4.085C1.003 4.787.128 2.785 0 0" style="fill:#64574b;fill-opacity:1;fill-rule:nonzero;stroke:none" transform="matrix(1.07614 0 0 -1.07613 170.136 78.448)"/><path d="M0 0c-.351 3.438-2.512 5.39-5.107 5.125-2.245-.229-3.478-2.033-4.122-4.746-.522-2.061-1.142-2.928-2.335-3.05-1.285-.132-2.256.809-2.443 2.633-.15 1.473.172 2.947.616 3.914l-2.452.411c-.427-.918-.716-2.696-.544-4.38.413-4.044 2.784-5.74 5.333-5.479 2.245.23 3.49 1.68 4.262 4.523.58 2.186 1.048 3.156 2.264 3.28.936.095 1.973-.578 2.16-2.402a6.923 6.923 0 0 0-.425-3.234l2.407-.438C-.072-2.984.174-1.707 0 0" style="fill:#64574b;fill-opacity:1;fill-rule:nonzero;stroke:none" transform="matrix(1.07614 0 0 -1.07613 182.846 92.279)"/><path d="m0 0-3.672-3.429-1.513 1.618 3.676 3.431-1.974 2.116-8.455-7.885-4.02 4.313 6.932 6.467 2.871-3.082 1.522 1.42-4.844 5.194-8.873-8.276a1.504 1.504 0 0 1-.086-2.121l4.978-5.332-3.748-3.497 1.975-2.116 8.529 7.957 1.512-1.623-8.527-7.956 1.969-2.116L1.973-2.116z" style="fill:#64574b;fill-opacity:1;fill-rule:nonzero;stroke:none" transform="matrix(1.07614 0 0 -1.07613 57.138 149.095)"/><path d="m0 0-2.6 1.262-2.584-5.315a1.505 1.505 0 0 1 .687-2.003l10.166-4.936.907 1.869-8.905 4.326z" style="fill:#64574b;fill-opacity:1;fill-rule:nonzero;stroke:none" transform="matrix(1.07614 0 0 -1.07613 62.738 167.604)"/><path d="M0 0c-.66-1.355-2.149-1.989-3.331-1.416-1.17.57-1.598 2.134-.942 3.49.66 1.359 2.155 1.989 3.33 1.421C.234 2.92.66 1.36 0 0m5.199 2.973L1.324 4.854l.855 1.762-2.597 1.262-.856-1.761-3.874 1.88-.909-1.868 1.435-.696A4.692 4.692 0 0 1-6.754 3.28C-7.935.844-6.822-2.132-4.278-3.368c2.55-1.241 5.574-.271 6.757 2.163.467.968.588 2.041.374 3.006L4.291 1.1Z" style="fill:#64574b;fill-opacity:1;fill-rule:nonzero;stroke:none" transform="matrix(1.07614 0 0 -1.07613 67.237 162.12)"/><path d="m0 0-2.604 1.262-5.432-11.181 2.603-1.265 2.764 5.692 2.433-1.182.905 1.868-2.434 1.179z" style="fill:#64574b;fill-opacity:1;fill-rule:nonzero;stroke:none" transform="matrix(1.07614 0 0 -1.07613 77.263 161.077)"/><path d="m0 0-.661 1.262 3.29 1.722-.964 1.834L-7.64-.064l.963-1.835 3.283 1.727.661-1.262c1.215-2.319 1.225-6.048-.206-8.798l1.899-.794S.687-7.897.901-5.045c2.475-1.44 6.032-1.801 6.032-1.801l.423 2.015C4.274-4.448 1.216-2.32 0 0" style="fill:#64574b;fill-opacity:1;fill-rule:nonzero;stroke:none" transform="matrix(1.07614 0 0 -1.07613 130.27 161.938)"/><path d="m0 0-.968 1.839L-3.693.408l-2.094 3.988-2.555-1.341L.373-13.564l2.559 1.341-5.66 10.789z" style="fill:#64574b;fill-opacity:1;fill-rule:nonzero;stroke:none" transform="matrix(1.07614 0 0 -1.07613 142.849 159.09)"/><path d="m0 0-1.707 1.616L-3.83-.629l1.712-1.618c4.221-3.986 3.623-9.175 3.623-9.175l1.92-.128s.697 3.331-.228 6.408c3.121-.752 6.41.133 6.41.133L9.37-3.102S4.223-3.992 0 0" style="fill:#64574b;fill-opacity:1;fill-rule:nonzero;stroke:none" transform="matrix(1.07614 0 0 -1.07613 146.796 149.24)"/><path d="m0 0-1.515 1.43-2.112-2.24-3.274 3.095L-8.89.179 4.749-12.707l1.991 2.103-8.858 8.366z" style="fill:#64574b;fill-opacity:1;fill-rule:nonzero;stroke:none" transform="matrix(1.07614 0 0 -1.07613 158.741 143.23)"/><path d="m0 0-11.41 1.42-.255-2.063 10.02-1.246-.633-5.082L.588-7.33l.705 5.654A1.497 1.497 0 0 1 0 0" style="fill:#64574b;fill-opacity:1;fill-rule:nonzero;stroke:none" transform="matrix(1.07614 0 0 -1.07613 95.47 177.302)"/><path d="M0 0c1.068-1.766 2.938-3.473 4.175-4.114L5.354-2.81c-2 1.502-3.678 3.727-3.357 6.312l.081.65 3.498-.436.255 2.055-10.061 1.25-.253-2.055 3.493-.434-.084-.65C-1.394 1.3-3.571-.447-5.873-1.412l.815-1.551C-3.694-2.649-1.467-1.45 0 0" style="fill:#64574b;fill-opacity:1;fill-rule:nonzero;stroke:none" transform="matrix(1.07614 0 0 -1.07613 86.42 170.624)"/><path d="m0 0-3.248.405-.255-2.063 3.245-.403-.582-4.662 2.87-.358L3.319 3.284.451 3.64Z" style="fill:#64574b;fill-opacity:1;fill-rule:nonzero;stroke:none" transform="matrix(1.07614 0 0 -1.07613 95.007 168.68)"/><path d="m0 0-.371 1.868 6.58 1.317.374-1.871Zm5.427 7.099.402-2.02L-.75 3.762l-.405 2.022-2.829-.564 1.235-6.204c.143-.693.84-1.361 1.761-1.178L9.792-.008 8.26 7.666Z" style="fill:#64574b;fill-opacity:1;fill-rule:nonzero;stroke:none" transform="matrix(1.07614 0 0 -1.07613 111.436 182.579)"/><path d="m0 0 .733 1.616c-2.623.94-5.028 3.296-5.597 6.129l-.287 1.439-3.029-.606.288-1.437c.568-2.835-.754-5.937-2.811-7.812l1.296-1.206c1.335.938 3.086 2.733 3.945 4.731C-3.901 1.339-1.588.355 0 0" style="fill:#64574b;fill-opacity:1;fill-rule:nonzero;stroke:none" transform="matrix(1.07614 0 0 -1.07613 113.98 174.515)"/><path d="m0 0 2.838.57L.88 10.38l-2.839-.567Z" style="fill:#64574b;fill-opacity:1;fill-rule:nonzero;stroke:none" transform="matrix(1.07614 0 0 -1.07613 117.05 173.894)"/></svg>