<svg xmlns="http://www.w3.org/2000/svg" xml:space="preserve" width="520" height="224" viewBox="0 0 520 224"><defs><clipPath id="a" clipPathUnits="userSpaceOnUse"><path d="M0 168h390V0H0Z"/></clipPath></defs><g clip-path="url(#a)" transform="matrix(1.33333 0 0 -1.33333 0 224)"><path d="M0 0c0-.574-.143-1.292-.143-2.011l1.58 1.58 6.894 6.032h3.591L2.873-2.297l9.909-8.906H8.763L1.726-4.595c-.433.285-1.007.862-1.869 1.721 0-.285.143-.572.143-.716V-11.203h-2.872V5.601H0Z" style="fill:#615e5e;fill-opacity:1;fill-rule:nonzero;stroke:none" transform="translate(73.936 60.61)"/><path d="M0 0c-1.292 0-2.441.428-3.305 1.291-.861.863-1.292 2.012-1.292 3.445 0 .864.287 1.726.718 2.444a2.848 2.848 0 0 0 1.58 1.58c.718.43 1.436.718 2.299.718V11.2c-1.437 0-2.73-.286-3.735-.717A6.105 6.105 0 0 1-6.32 8.041c-.718-1.005-1.005-2.155-1.005-3.305 0-1.291.287-2.297 1.005-3.303a6.069 6.069 0 0 1 2.585-2.439c1.005-.432 2.298-.721 3.59-.721H0Zm4.45 4.595c0-.864-.141-1.579-.572-2.299A2.854 2.854 0 0 0 2.296.716C1.578.285.86 0 0 0v-1.727c1.435 0 2.584.289 3.733.721 1.15.572 2.011 1.291 2.585 2.297.576 1.005 1.006 2.154 1.006 3.445 0 .864-.287 1.726-.575 2.587-.431.862-.861 1.578-1.579 2.155-.576.574-1.437 1.005-2.298 1.292-.862.287-1.867.43-2.872.43V9.478c.573 0 1.291-.144 1.724-.432.572-.145 1.148-.573 1.435-1.005.43-.431.719-.861 1.005-1.436.145-.574.286-1.292.286-2.01" style="fill:#615e5e;fill-opacity:1;fill-rule:nonzero;stroke:none" transform="translate(94.906 50.846)"/><path d="m0 0 .143-2.154A4.96 4.96 0 0 0 1.866-.431C2.44 0 3.302.143 4.165.143c.572 0 1.005 0 1.436-.143v-2.154c-.431.141-.864.286-1.15.286-1.006 0-1.723-.286-2.297-.717-.718-.433-1.148-1.006-1.437-1.724-.144-.719-.289-1.58-.289-2.296v-5.748h-2.727v7.47c0 1.149 0 2.729-.143 4.883z" style="fill:#615e5e;fill-opacity:1;fill-rule:nonzero;stroke:none" transform="translate(107.258 61.76)"/><path d="M0 0c.144.72.288 1.437.718 1.868.287.575.861 1.006 1.436 1.292.431.288 1.005.432 1.579.432v1.722c-.861 0-1.722-.143-2.44-.43-.862-.286-1.581-.718-2.154-1.292-.577-.576-1.005-1.293-1.293-2.01C-2.587.861-2.729 0-2.729-1.005c0-1.006.286-1.865.575-2.726.288-.864.861-1.582 1.434-2.155.576-.578 1.438-1.006 2.299-1.295a5.754 5.754 0 0 1 2.154-.431v2.011c-.861.143-1.579.431-2.154 1.006C.718-3.876.144-3.016 0-1.722h3.733V0Zm3.733-7.612v2.011c.288-.143.72-.143 1.006-.143.719 0 1.436.143 2.156.286.717.288 1.579.434 2.295.863v-2.154c-.572-.286-1.149-.432-1.578-.575-.576-.145-1.005-.145-1.437-.288h-1.58zm0 11.204h.144c.862 0 1.436-.144 2.01-.432.431-.431.862-.861 1.149-1.292.288-.574.433-1.148.576-1.868H3.733v-1.722h6.462c0 1.291-.141 2.442-.572 3.59-.433 1.006-1.005 1.869-2.011 2.585-.863.575-2.011.861-3.591.861h-.288Z" style="fill:#615e5e;fill-opacity:1;fill-rule:nonzero;stroke:none" transform="translate(116.593 56.731)"/><path d="M0 0v-2.01h-.289c-.719 0-1.438-.144-2.01-.289-.719-.141-1.438-.429-2.154-.86l-.145 2.011C-3.161-.431-1.582-.144 0 0m0-10.915c-.145-.144-.433-.144-.576-.144-.573 0-1.006.144-1.437.287-.43.144-.718.433-1.005.72-.143.284-.286.573-.286 1.006 0 1.149 1.15 2.01 3.304 2.154v1.723c-.722 0-1.294 0-1.869-.145-.862-.144-1.723-.431-2.298-.861a3.008 3.008 0 0 1-1.436-1.15 2.746 2.746 0 0 1-.574-1.721c0-.863.285-1.438.718-2.013.287-.575.861-1.004 1.722-1.291.719-.289 1.583-.433 2.588-.433H0ZM3.301-6.75c0-.862 0-1.58-.285-2.154-.289-.719-.72-1.148-1.294-1.58-.431-.288-1.005-.431-1.722-.431v-1.868c.572.144 1.146.288 1.578.577.861.286 1.438.861 2.01 1.722v-2.155h2.443c0 .576-.144 1.005-.144 1.439v5.17c0 .861 0 1.577-.145 2.153 0 .573-.143 1.006-.287 1.292-.43.862-1.005 1.437-1.867 1.868C2.583-.286 1.578 0 .142 0H0v-2.01c1.146 0 1.866-.289 2.439-.718.577-.576.862-1.293.862-2.441-.574.144-1.291.144-2.01.144-.43 0-.862 0-1.291-.144v-1.723c.572.142 1.291.142 2.01.142z" style="fill:#615e5e;fill-opacity:1;fill-rule:nonzero;stroke:none" transform="translate(134.834 62.046)"/><path d="M0 0h-6.031v-14.793h-2.732V0h-6.319v2.011H0Z" style="fill:#615e5e;fill-opacity:1;fill-rule:nonzero;stroke:none" transform="translate(165.138 64.2)"/><path d="m0 0 .145-2.154A4.944 4.944 0 0 0 1.868-.431c.573.431 1.437.574 2.3.574.428 0 1.005 0 1.433-.143v-2.154c-.428.141-.862.286-1.148.286-1.005 0-1.724-.286-2.44-.717C1.436-3.018 1.005-3.591.72-4.309.431-5.028.431-5.889.431-6.605v-5.748h-2.585v7.47c0 1.149 0 2.729-.144 4.883z" style="fill:#615e5e;fill-opacity:1;fill-rule:nonzero;stroke:none" transform="translate(169.157 61.76)"/><path d="M0 0v-2.01h-.287c-.72 0-1.438-.144-2.154-.289-.575-.141-1.294-.429-2.013-.86l-.142 2.011C-3.161-.431-1.58-.144 0 0m0-10.915c-.287-.144-.431-.144-.575-.144-.575 0-1.005.144-1.438.287-.428.144-.716.433-1.003.72-.289.284-.43.573-.43 1.006 0 1.149 1.146 2.01 3.446 2.154v1.723c-.72 0-1.294 0-1.866-.145a6.172 6.172 0 0 1-2.444-.861c-.574-.289-1.005-.717-1.437-1.15-.286-.572-.431-1.149-.431-1.721 0-.863.145-1.438.577-2.013.428-.575 1.005-1.004 1.722-1.291.718-.289 1.724-.433 2.585-.433H0ZM3.303-6.75c0-.862-.144-1.58-.433-2.154-.141-.719-.572-1.148-1.146-1.58-.433-.288-1.006-.431-1.724-.431v-1.868c.574.144 1.147.288 1.579.577.719.286 1.436.861 2.011 1.722 0-.431-.144-.716-.144-1.15 0-.429.144-.716.144-1.005h2.44c-.142.576-.142 1.005-.142 1.439 0 .428 0 1.005-.144 1.432v5.891c-.143.573-.143 1.006-.431 1.292-.289.862-.862 1.437-1.867 1.868C2.585-.286 1.436 0 .144 0H0v-2.01c1.005 0 1.865-.289 2.298-.718.717-.576.861-1.293 1.005-2.441-.718.144-1.294.144-2.012.144-.431 0-.86 0-1.291-.144v-1.723c.574.142 1.147.142 1.865.142z" style="fill:#615e5e;fill-opacity:1;fill-rule:nonzero;stroke:none" transform="translate(182.085 62.046)"/><path d="M0 0h-.146c-1.147 0-2.152.431-2.871 1.292-.718.862-1.147 1.868-1.147 3.159 0 .863.142 1.582.572 2.3.287.718.862 1.148 1.439 1.579.572.431 1.292.575 2.153.575v1.866c-.288 0-.432.144-.718.144-.863 0-1.724-.286-2.441-.573-.863-.288-1.438-.721-2.012-1.293-.575-.574-1.006-1.293-1.294-2.011a8.168 8.168 0 0 1-.43-2.587c0-1.291.288-2.44.718-3.445a7.661 7.661 0 0 1 2.155-2.154c1.005-.576 2.155-.72 3.304-.72H0Zm0 8.905c.717 0 1.435-.144 2.011-.575.575-.431 1.149-.861 1.436-1.579.43-.718.574-1.437.574-2.3 0-1.291-.432-2.297-1.149-3.159C2.011.431 1.148 0 0 0v-1.868c.717 0 1.435.144 2.156.577.86.286 1.433.861 2.009 1.578v-2.011H6.75v2.73c-.144 1.148-.144 2.154-.144 3.017v12.495H3.877v-6.176c0-.144 0-.288.144-.432V8.761c-.574.577-1.149 1.149-2.01 1.581-.576.287-1.294.429-2.011.429Z" style="fill:#615e5e;fill-opacity:1;fill-rule:nonzero;stroke:none" transform="translate(197.596 51.13)"/><path d="M0 0c0 .72.288 1.437.718 1.868A2.809 2.809 0 0 0 2.01 3.16c.577.288 1.151.432 1.723.432v1.722c-.86 0-1.723-.143-2.439-.43C.433 4.598-.287 4.166-.86 3.592c-.577-.576-1.151-1.293-1.44-2.01C-2.585.861-2.728 0-2.728-1.005c0-1.006.143-1.865.428-2.726.434-.864.863-1.582 1.44-2.155.715-.578 1.434-1.006 2.441-1.295.573-.288 1.292-.431 2.152-.431v2.011c-.86.143-1.579.431-2.297 1.006C.574-3.876.145-3.016-.145-1.722h3.878V0Zm3.733-7.612v2.011c.288-.143.577-.143.864-.143.861 0 1.578.143 2.298.286.717.288 1.437.434 2.154.863v-2.154c-.432-.286-1.006-.432-1.58-.575-.431-.145-.862-.145-1.436-.288h-1.58zm0 11.204h.146c.718 0 1.435-.144 1.867-.432.575-.431 1.005-.861 1.149-1.292C7.18 1.294 7.469.72 7.469 0H3.733v-1.722h6.464c0 1.291-.287 2.442-.574 3.59-.431 1.006-1.006 1.869-2.011 2.585-.861.575-2.154.861-3.733.861h-.146Z" style="fill:#615e5e;fill-opacity:1;fill-rule:nonzero;stroke:none" transform="translate(209.803 56.731)"/><path d="M228.905 54.721h-7.325v1.867h7.325zM234.362 49.407h-2.729v16.804h2.729z" style="fill:#615e5e;fill-opacity:1;fill-rule:nonzero;stroke:none"/><path d="M0 0c1.149 1.437 2.729 2.299 5.028 2.299 1.15 0 2.008-.286 2.871-.573.718-.432 1.15-1.004 1.58-1.581.289-.717.575-1.292.575-2.156.142-.716.142-1.577.142-2.582v-5.747H7.611V-2.727c-.142.288-.142.716-.286 1.005-.142.575-.43 1.15-1.006 1.436C5.89.145 5.171.289 4.31.289 3.447.289 2.729 0 2.011-.429 1.292-.86.861-1.434.575-2.296c-.143-.287-.143-.72-.289-1.15v-6.894h-2.584v6.033c0 .719-.142 1.437-.142 2.011v1.867c0 .718 0 1.579-.144 2.442H0Z" style="fill:#615e5e;fill-opacity:1;fill-rule:nonzero;stroke:none" transform="translate(241.112 59.747)"/><path d="M0 0h-3.159l-5.172 12.353h2.874l2.872-7.183c.143-.286.287-.716.431-1.005.144-.431.286-.717.43-1.006 0-.43.145-.716.145-1.005.143.289.143.575.286.862.145.432.288.718.43 1.149l3.304 8.188h2.587z" style="fill:#615e5e;fill-opacity:1;fill-rule:nonzero;stroke:none" transform="translate(261.22 49.407)"/><path d="M0 0c.142.72.431 1.437.718 1.868.428.575.861 1.006 1.436 1.292.575.288 1.005.432 1.724.432v1.722a8.132 8.132 0 0 1-2.585-.43C.574 4.598-.146 4.166-.72 3.592c-.717-.576-1.148-1.293-1.435-2.01-.286-.721-.43-1.582-.43-2.587 0-1.006.144-1.865.43-2.726.43-.864.863-1.582 1.435-2.155C0-6.464.718-6.892 1.579-7.181a5.948 5.948 0 0 1 2.299-.431v2.011c-.862.143-1.724.431-2.299 1.006C.718-3.876.287-3.016 0-1.722h3.878V0Zm3.878-7.612v2.011c.286-.143.575-.143.861-.143.862 0 1.579.143 2.296.286.72.288 1.439.434 2.157.863v-2.154a7.05 7.05 0 0 0-1.582-.575c-.43-.145-1.005-.145-1.435-.288h-1.58zm0 11.204h.143c.718 0 1.437-.144 1.867-.432.576-.431 1.006-.861 1.147-1.292C7.324 1.294 7.61.72 7.61 0H3.878v-1.722h6.464c0 1.291-.289 2.442-.721 3.59-.287 1.006-1.005 1.869-1.866 2.585-.861.575-2.154.861-3.734.861h-.143Z" style="fill:#615e5e;fill-opacity:1;fill-rule:nonzero;stroke:none" transform="translate(269.694 56.731)"/><path d="M0 0c-.863.286-1.868.574-2.872.574-.719 0-1.293-.143-1.724-.432-.432-.287-.574-.717-.574-1.148 0-.431.142-.863.574-1.007.431-.285 1.15-.716 2.3-1.147 1.147-.574 1.865-1.005 2.44-1.436.575-.576.861-1.294.861-2.009 0-.864-.142-1.439-.574-2.013C0-9.193-.718-9.623-1.437-9.909c-.717-.434-1.722-.577-2.728-.577-1.292 0-2.585.288-3.734.72v2.155c.861-.433 1.437-.577 1.866-.721.576-.143 1.005-.143 1.581-.143.43 0 1.006 0 1.436.143.431.144.72.434.862.577.286.286.431.572.431.861 0 .43-.288.861-.72 1.15-.429.287-1.291.572-2.296 1.148-1.151.431-1.868 1.006-2.444 1.436-.572.575-.861 1.147-.861 1.868 0 .861.289 1.434.575 2.01a4.678 4.678 0 0 0 1.866 1.149c.719.287 1.581.573 2.587.573 1.005 0 2.153-.286 3.304-.573z" style="fill:#615e5e;fill-opacity:1;fill-rule:nonzero;stroke:none" transform="translate(289.657 59.605)"/><path d="M0 0h3.734v-1.868H0V-8.188c0-.43.145-.716.145-1.005.141-.43.286-.716.716-1.005a2.432 2.432 0 0 1 1.438-.431c.574 0 1.147.143 1.722.431v-2.011c-.862-.144-1.581-.288-2.441-.288-1.294 0-2.155.144-2.729.577-.717.428-1.15 1.006-1.291 1.867a13.071 13.071 0 0 0-.289 2.727v5.458h-3.16V0h3.16v2.729L0 3.59Z" style="fill:#615e5e;fill-opacity:1;fill-rule:nonzero;stroke:none" transform="translate(296.981 61.76)"/><path d="M0 0c.286.433.573.863 1.005 1.15.432.432 1.006.576 1.58.863.572.142 1.147.286 1.865.286 1.151 0 2.011-.286 2.731-.717C7.896 1.15 8.327.576 8.616-.286c.574.862 1.15 1.436 2.011 1.868.718.431 1.724.717 2.728.717 1.291 0 2.296-.286 3.018-.862.718-.574 1.291-1.292 1.434-2.154.289-.861.289-1.866.289-3.159v-6.464H15.51v6.033c0 1.437-.144 2.442-.286 2.873C14.936-.286 14.073.289 12.781.289c-.43 0-.861-.144-1.436-.289-.433-.286-.718-.572-1.149-1.005-.289-.286-.575-.86-.719-1.291-.144-.287-.144-.72-.144-1.006-.143-.429-.143-1.005-.143-1.868v-5.17H6.605v6.319c0 1.438-.144 2.299-.288 2.587-.142.574-.429 1.005-.861 1.292-.43.287-.86.431-1.437.431-.717 0-1.291-.144-2.008-.575-.574-.286-1.006-.861-1.294-1.579C.431-2.439.286-3.159.286-4.021v-6.319h-2.728v6.894c0 2.299 0 4.022-.145 5.459h2.441z" style="fill:#615e5e;fill-opacity:1;fill-rule:nonzero;stroke:none" transform="translate(305.888 59.747)"/><path d="M0 0c.144.72.43 1.437.718 1.868.431.575.861 1.006 1.436 1.292.43.288 1.005.432 1.724.432v1.722c-1.006 0-1.724-.143-2.585-.43-.719-.286-1.437-.718-2.011-1.292-.719-.576-1.148-1.293-1.437-2.01C-2.441.861-2.586 0-2.586-1.005c0-1.006.145-1.865.431-2.726.289-.864.861-1.582 1.437-2.155C0-6.464.718-6.892 1.579-7.181a5.948 5.948 0 0 1 2.299-.431v2.011c-.862.143-1.724.431-2.299 1.006C.718-3.876.144-3.016 0-1.722h3.878V0Zm3.878-7.612v2.011c.287-.143.574-.143.863-.143.716 0 1.577.143 2.297.286.717.288 1.435.434 2.154.863v-2.154a7.007 7.007 0 0 0-1.581-.575c-.431-.145-1.005-.145-1.436-.288h-1.58zm0 11.204h.143c.72 0 1.292-.144 1.867-.432.575-.431.863-.861 1.15-1.292.286-.574.573-1.148.573-1.868H3.878v-1.722h6.319c0 1.291-.144 2.442-.575 3.59-.288 1.006-1.005 1.869-1.867 2.585-1.004.575-2.155.861-3.734.861h-.143Z" style="fill:#615e5e;fill-opacity:1;fill-rule:nonzero;stroke:none" transform="translate(329.153 56.731)"/><path d="M0 0c1.005 1.437 2.729 2.299 4.884 2.299a7.82 7.82 0 0 0 2.871-.573C8.474 1.294 9.048.722 9.334.145c.431-.717.575-1.292.72-2.156.141-.716.141-1.577.141-2.582v-5.747H7.61v5.603c0 .861 0 1.578-.141 2.01 0 .288 0 .716-.146 1.005A2.613 2.613 0 0 1 6.318-.286c-.574.431-1.293.575-2.01.575C3.446.289 2.585 0 2.01-.429 1.293-.86.861-1.434.574-2.296c-.143-.287-.289-.72-.289-1.15v-6.894h-2.726V-.429c-.144.718-.144 1.579-.144 2.442h2.44z" style="fill:#615e5e;fill-opacity:1;fill-rule:nonzero;stroke:none" transform="translate(344.665 59.747)"/><path d="M0 0h3.734v-1.868H0V-8.188c0-.43.144-.716.144-1.005.144-.43.287-.716.717-1.005a2.428 2.428 0 0 1 1.438-.431c.574 0 1.147.143 1.722.431v-2.011c-.862-.144-1.581-.288-2.442-.288-1.291 0-2.154.144-2.728.577-.718.428-1.148 1.006-1.294 1.867a13.307 13.307 0 0 0-.286 2.727v5.458H-5.89V0h3.161v2.729L0 3.59Z" style="fill:#615e5e;fill-opacity:1;fill-rule:nonzero;stroke:none" transform="translate(362.043 61.76)"/><path d="M0 0c1.293 0 2.154 0 2.731-.144h.573v2.155h-6.032v-16.804H0v6.751H3.304v2.154c-.573-.143-1.15-.143-1.867-.143H0Zm3.304-.144c.86-.144 1.723-.286 2.298-.861.575-.43.861-1.149.861-2.011 0-.717-.144-1.436-.716-1.865-.433-.432-1.006-.722-1.725-.863-.286-.144-.575-.144-.718-.144v-2.154c.288 0 .576 0 .86.144.722 0 1.438.141 1.868.286.575.144 1.008.431 1.437.718.432.287.718.719 1.005 1.006.432.43.576.862.718 1.436.144.431.287.862.287 1.436 0 1.151-.287 2.011-1.005 2.872-.573.862-1.434 1.293-2.442 1.725-.43.144-.718.144-1.146.285-.433 0-1.006.145-1.582.145Z" style="fill:#615e5e;fill-opacity:1;fill-rule:nonzero;stroke:none" transform="translate(73.936 38.923)"/><path d="m0 0 .144-2.154A4.947 4.947 0 0 0 1.866-.429C2.585 0 3.303.145 4.309.145c.43 0 .861 0 1.294-.145v-2.154c-.433.144-.864.288-1.15.288-1.005 0-1.724-.288-2.299-.718A2.823 2.823 0 0 1 .861-4.451a5.77 5.77 0 0 1-.43-2.155v-5.745h-2.73v7.469c0 1.15 0 2.728-.144 4.882z" style="fill:#615e5e;fill-opacity:1;fill-rule:nonzero;stroke:none" transform="translate(88.012 36.48)"/><path d="M0 0c-1.293 0-2.298.429-3.159 1.291-.863.863-1.294 2.011-1.294 3.446 0 .862.144 1.582.575 2.444.43.716.862 1.148 1.58 1.578.716.431 1.436.576 2.298.576v1.866c-1.437 0-2.587-.288-3.736-.861-1.147-.574-2.01-1.293-2.582-2.298-.578-1.006-1.006-2.154-1.006-3.448 0-1.148.428-2.297 1.006-3.303.572-1.004 1.435-1.724 2.582-2.296 1.149-.576 2.299-.863 3.736-.863Zm4.596 4.594c0-.861-.286-1.578-.575-2.297A4.958 4.958 0 0 0 2.297.573C1.723.143.861 0 0 0v-1.868c1.436 0 2.727.287 3.732.863 1.15.572 2.01 1.292 2.588 2.296.716 1.006 1.005 2.155 1.005 3.303 0 1.005-.144 1.868-.575 2.73-.286.718-.862 1.435-1.436 2.011-.718.717-1.437 1.149-2.442 1.436-.861.287-1.867.43-2.872.43V9.335c.718 0 1.292 0 1.866-.288.575-.288 1.006-.572 1.439-1.005.427-.431.716-.861.861-1.436.285-.575.43-1.293.43-2.012" style="fill:#615e5e;fill-opacity:1;fill-rule:nonzero;stroke:none" transform="translate(101.943 25.567)"/><path d="M0 0c.288.432.574.862 1.005 1.148.574.289 1.006.578 1.58.719.574.287 1.292.287 2.01.287 1.008 0 1.868-.144 2.585-.573.718-.433 1.293-1.005 1.582-1.868.428.863 1.005 1.435 1.866 1.868.86.429 1.722.573 2.871.573 1.294 0 2.299-.287 3.016-.861C17.234.719 17.664 0 17.809-.861c.288-.862.432-1.868.432-3.016v-6.464H15.51v6.031c0 1.438 0 2.443-.143 2.874-.43 1.149-1.293 1.723-2.44 1.723a2.423 2.423 0 0 1-1.439-.432c-.574-.142-.86-.429-1.293-.861-.286-.43-.572-.861-.716-1.291-.145-.432-.145-.719-.145-1.149-.144-.287-.144-.864-.144-1.724v-5.171H6.607v6.32c0 1.292-.144 2.154-.144 2.585-.288.575-.575 1.007-1.006 1.291-.287.289-.862.432-1.436.432-.717 0-1.292-.287-1.867-.574a5.161 5.161 0 0 1-1.438-1.58C.431-2.441.288-3.16.288-4.021v-6.32h-2.587v6.895c0 2.154-.144 4.022-.286 5.456h2.441z" style="fill:#615e5e;fill-opacity:1;fill-rule:nonzero;stroke:none" transform="translate(114.439 34.47)"/><path d="M0 0c-1.292 0-2.44.429-3.304 1.291-.86.863-1.291 2.011-1.291 3.446 0 .862.285 1.582.573 2.444.432.716 1.005 1.148 1.723 1.578.575.431 1.437.576 2.299.576v1.866c-1.436 0-2.729-.288-3.878-.861-1.006-.574-1.866-1.293-2.586-2.298-.574-1.006-.861-2.154-.861-3.448a6.68 6.68 0 0 1 .861-3.303c.72-1.004 1.58-1.724 2.586-2.296a8.36 8.36 0 0 1 3.733-.863H0Zm4.452 4.594c0-.861-.145-1.578-.574-2.297-.432-.719-.862-1.291-1.581-1.724C1.58.143.86 0 0 0v-1.868c1.291 0 2.585.287 3.734.863 1.15.572 2.011 1.292 2.585 2.296a6.67 6.67 0 0 1 .862 3.303 8.325 8.325 0 0 1-.431 2.73c-.431.718-.861 1.435-1.58 2.011-.574.717-1.436 1.149-2.297 1.436-.862.287-1.867.43-2.873.43V9.335c.575 0 1.147 0 1.724-.288.573-.288 1.005-.572 1.436-1.005.431-.431.718-.861 1.005-1.436.142-.575.287-1.293.287-2.012" style="fill:#615e5e;fill-opacity:1;fill-rule:nonzero;stroke:none" transform="translate(142.444 25.567)"/><path d="M0 0h3.878v-1.866H0v-4.882c0-.576.144-1.149.144-1.438 0-.43 0-.716.142-1.004 0-.432.288-.717.719-1.005.286-.289.862-.431 1.435-.431.578 0 1.15.142 1.725.431v-2.011c-.861-.288-1.725-.288-2.441-.288-1.294 0-2.155.143-2.874.576-.575.429-1.005 1.005-1.148 1.723a14.47 14.47 0 0 0-.288 2.728v5.601H-5.89V0h3.304v2.731L0 3.592Z" style="fill:#615e5e;fill-opacity:1;fill-rule:nonzero;stroke:none" transform="translate(156.089 36.48)"/><path d="M165.138 24.13h-2.586v12.351h2.586zm0 15.225h-2.872v2.583h2.872z" style="fill:#615e5e;fill-opacity:1;fill-rule:nonzero;stroke:none"/><path d="M0 0c-1.291 0-2.296.429-3.159 1.291-.861.863-1.291 2.011-1.291 3.446 0 .862.141 1.582.574 2.444.431.716.861 1.148 1.58 1.578.72.431 1.436.576 2.296.576v1.866c-1.435 0-2.582-.288-3.731-.861-1.15-.574-2.013-1.293-2.444-2.298-.574-1.006-1.005-2.154-1.005-3.448 0-1.148.431-2.297 1.005-3.303.431-1.004 1.294-1.724 2.444-2.296 1.149-.576 2.296-.863 3.731-.863Zm4.597 4.594c0-.861-.287-1.578-.575-2.297A4.96 4.96 0 0 0 2.3.573C1.725.143.863 0 0 0v-1.868c1.437 0 2.729.287 3.737.863 1.147.572 2.01 1.292 2.585 2.296.716 1.006 1.005 2.155 1.005 3.303 0 1.005-.143 1.868-.574 2.73-.289.718-.863 1.435-1.436 2.011-.72.717-1.438 1.149-2.443 1.436-.863.287-1.868.43-2.874.43V9.335c.72 0 1.294 0 1.868-.288.575-.288 1.006-.572 1.437-1.005.432-.431.717-.861.863-1.436.286-.575.429-1.293.429-2.012" style="fill:#615e5e;fill-opacity:1;fill-rule:nonzero;stroke:none" transform="translate(174.901 25.567)"/><path d="M0 0c1.147 1.437 2.727 2.154 4.884 2.154 1.291 0 2.154-.144 3.015-.573.717-.288 1.15-.862 1.58-1.437.287-.718.573-1.436.573-2.155.145-.718.145-1.579.145-2.586v-5.744H7.613v7.469c-.146.431-.146.717-.288 1.149-.144.573-.432 1.149-1.005 1.436C5.744 0 5.17.287 4.308.287 3.446.287 2.727 0 2.011-.429 1.292-.861.861-1.436.574-2.297.431-2.729.431-3.16.287-3.59v-6.751h-2.586v6.031c0 .72-.144 1.294-.144 2.013v1.868c0 .716 0 1.434-.142 2.439H0Z" style="fill:#615e5e;fill-opacity:1;fill-rule:nonzero;stroke:none" transform="translate(187.398 34.47)"/><path d="M0 0h-3.879l2.155 4.598C-.861 6.463-.286 7.757 0 8.474v2.01h-1.436L-9.623-6.319h2.871l2.154 4.165H0Zm3.732 0H0v-2.154h4.74l2.01-4.165h3.16L1.436 10.484H0v-2.01C.287 7.469.861 6.176 1.58 4.74Z" style="fill:#615e5e;fill-opacity:1;fill-rule:nonzero;stroke:none" transform="translate(216.41 30.45)"/><path d="M0 0v-2.011h-.285c-1.006 0-1.869.146-2.729.289-.862.145-1.725.289-2.728.575l.287 2.297C-4.881.863-4.45.722-3.733.577-3.159.289-2.582.145-2.01.145-1.433 0-1.003 0-.428 0Zm0 14.076v1.867h-.574c-1.291 0-2.296-.287-3.302-.717a5.481 5.481 0 0 1-2.154-2.298c-.574-1.006-.863-2.155-.863-3.449 0-1.147.289-2.296.863-3.159.43-1.006 1.149-1.721 2.154-2.154 1.006-.573 2.011-.861 3.302-.861.146 0 .432.143.574.143v1.866h-.142c-.718 0-1.434.145-2.012.578a3.443 3.443 0 0 0-1.433 1.433 5.747 5.747 0 0 0-.434 2.154c0 .864.145 1.726.434 2.443.428.575.86 1.149 1.433 1.58.721.287 1.294.574 2.154.574m0 0c.72 0 1.438-.287 2.013-.574.575-.431 1.148-1.005 1.435-1.58.431-.717.575-1.438.575-2.299 0-.86-.144-1.578-.575-2.154-.287-.717-.716-1.292-1.435-1.577C1.438 5.459.72 5.314 0 5.314V3.448c1.869 0 3.161.718 4.166 2.011V4.31c0-.573-.143-1.005-.143-1.436-.144-.431-.144-.719-.429-1.006-.289-.574-.72-1.005-1.437-1.435C1.583.145.863 0 0 0v-2.011c1.294.146 2.443.289 3.305.578.861.286 1.58.861 2.154 1.433.431.722.719 1.437.863 2.299.287.861.287 2.011.287 3.305v10.195H4.166V13.645c-.287.72-1.005 1.293-1.866 1.725-.717.286-1.437.573-2.3.573Z" style="fill:#615e5e;fill-opacity:1;fill-rule:nonzero;stroke:none" transform="translate(233.93 20.682)"/><path d="M0 0c.144.719.432 1.293.718 1.865.43.576.863 1.006 1.436 1.151.432.287 1.007.431 1.723.431v1.866c-1.005 0-1.723-.143-2.584-.43-.719-.286-1.58-.719-2.154-1.291-.576-.576-1.006-1.294-1.293-2.012a8.146 8.146 0 0 1-.432-2.586c0-1.005.145-2.01.432-2.727.287-.864.861-1.581 1.434-2.155C0-6.464.718-6.893 1.581-7.181a5.925 5.925 0 0 1 2.296-.432v1.868c-1.005.144-1.723.575-2.296 1.005C.718-4.021.144-3.016 0-1.723h3.877V0Zm3.877-7.613v1.868h.863c.717 0 1.435.144 2.298.286.573.145 1.435.433 2.154.862v-2.154c-.576-.285-1.149-.43-1.581-.574-.431-.144-1.004-.288-1.436-.288-.575 0-1.004-.143-1.578-.143-.289 0-.576 0-.72.143m0 11.06h.144c.719 0 1.292-.144 1.867-.431a4.327 4.327 0 0 0 1.15-1.151c.287-.572.43-1.146.573-1.865H3.877v-1.723h6.32c0 1.292-.143 2.442-.575 3.447-.288 1.147-1.006 2.01-1.866 2.585-1.005.716-2.156 1.004-3.735 1.004h-.144Z" style="fill:#615e5e;fill-opacity:1;fill-rule:nonzero;stroke:none" transform="translate(245.709 31.455)"/><path d="M0 0c1.005 1.437 2.729 2.154 4.882 2.154 1.151 0 2.156-.144 2.873-.573A3.104 3.104 0 0 0 9.335.144c.286-.718.575-1.436.719-2.155 0-.718.144-1.579.144-2.586v-5.744H7.613v5.458c0 1.006-.144 1.723-.144 2.011 0 .431 0 .717-.145 1.149A2.275 2.275 0 0 1 6.175-.287C5.745 0 5.028.287 4.309.287 3.446.287 2.585 0 2.011-.429 1.292-.861.863-1.436.575-2.297.431-2.729.287-3.16.287-3.59v-6.751h-2.729v8.044c0 .574 0 1.147-.143 1.868V2.01h2.441z" style="fill:#615e5e;fill-opacity:1;fill-rule:nonzero;stroke:none" transform="translate(261.22 34.47)"/><path d="M0 0c-.717.429-1.58.572-2.585.572-.861 0-1.723-.143-2.441-.572-.718-.289-1.436-.863-1.724-1.438-.431-.717-.717-1.438-.717-2.299 0-.573.142-1.149.431-1.722.144-.576.574-1.005 1.005-1.437.287-.431.863-.717 1.435-1.005.577-.145 1.293-.287 2.011-.287.433 0 1.005.142 1.438.142.43.145.86.433 1.436.719l.285-2.152C0-9.623-.572-9.912-1.147-9.912c-.575-.144-1.15-.144-1.867-.144-1.437 0-2.587.144-3.736.718-1.146.576-2.01 1.292-2.586 2.298-.571.862-.86 2.012-.86 3.303 0 1.15.289 2.299.86 3.16.72 1.006 1.581 1.724 2.586 2.299 1.149.574 2.299.861 3.736.861 1.148 0 2.155-.145 3.16-.573z" style="fill:#615e5e;fill-opacity:1;fill-rule:nonzero;stroke:none" transform="translate(284.055 34.042)"/><path d="M0 0a96.918 96.918 0 0 1-1.294-3.016C-1.725-3.593-2.3-4.165-3.018-4.74c-.716-.43-1.58-.718-2.726-.718-.434 0-1.006.144-1.727.288l.144 1.722c.577-.145 1.007-.145 1.294-.145 1.58 0 2.585 1.005 3.159 2.874l-5.458 12.925h2.873L-2.3 4.309c.431-1.005.72-1.869.862-2.443 0 .288 0 .574.144.718.142.287.142.72.431 1.148l3.303 8.474h2.584z" style="fill:#615e5e;fill-opacity:1;fill-rule:nonzero;stroke:none" transform="translate(293.106 24.274)"/><path d="m0 0 19.964 19.246h-13.5L-13.068 0l32.171-31.597h13.788z" style="fill:#004491;fill-opacity:1;fill-rule:nonzero;stroke:none" transform="translate(48.657 116.766)"/><path d="M0 0c-16.662 0-27.431-7.755-27.431-19.82 0-12.062 10.769-19.82 27.431-19.82v6.175h-.145c-9.192 0-14.793 5.17-14.793 13.645 0 8.473 5.601 13.502 14.793 13.502H0Zm0 0v-6.318c9.19 0 14.793-5.029 14.793-13.502 0-8.475-5.603-13.645-14.793-13.645v-6.175c16.659 0 27.432 7.758 27.432 19.82C27.432-7.755 16.659 0 0 0" style="fill:#004491;fill-opacity:1;fill-rule:nonzero;stroke:none" transform="translate(100.939 136.586)"/><path d="M0 0h11.777v5.6H7.182c-7.614 0-10.343 2.587-10.343 9.335v17.667h14.938v5.744H-3.161v14.793H-15.08V38.346h-10.055v-5.744h10.055V11.488C-15.08 4.021-9.767 0 0 0" style="fill:#004491;fill-opacity:1;fill-rule:nonzero;stroke:none" transform="translate(158.1 97.666)"/><path d="M0 0h-20.108v-6.031H0Zm-8.186-38.346H0v5.744h-2.298c-4.164 0-8.903 0-8.903 5.026 0 5.459 5.026 5.89 9.909 5.89H0v5.6h-3.305c-14.504 0-20.393-3.446-20.393-11.776 0-6.75 5.6-10.484 15.512-10.484m8.186 0h23.555v24.272C23.555-4.739 16.517 0 2.587 0H0v-6.031c6.033-.289 11.203-1.582 11.203-7.901v-2.154H0v-5.6h11.347v-10.916H0Z" style="fill:#004491;fill-opacity:1;fill-rule:nonzero;stroke:none" transform="translate(246.714 136.012)"/><path d="M0 0c-10.486 0-13.934-2.299-13.934-9.19v-29.156h11.921v27.001c0 5.314 7.901 5.314 11.492 5.314H23.41L29.728 0Z" style="fill:#004491;fill-opacity:1;fill-rule:nonzero;stroke:none" transform="translate(193.719 136.012)"/><path d="M33.437 150.805H21.66V97.666h11.777z" style="fill:#004491;fill-opacity:1;fill-rule:nonzero;stroke:none"/></g></svg>