<svg xmlns="http://www.w3.org/2000/svg" width="1429.8191pt" height="225pt" viewBox="0 0 1429.8191 224.99999"><defs><clipPath id="a"><path d="M-535.748 728.504H514.488V0H-535.748Z"/></clipPath></defs><g clip-path="url(#a)" transform="translate(492.349 -491.07)"><clipPath id="b"/></g><path fill="#2c292a" d="M-109.033 560.527c-3.888-.5-7.87-.72-12.003-.72h-11.063c-3.274 0-5.154.58-5.63 1.81-.5.964-.86 3.971-1.115 8.94-.22 4.991-.336 9.925-.336 14.777v14.767c0 5.235.476 8.207 1.45 8.95 1.196.975 3.205 1.59 5.99 1.823 2.775.243 6.119.36 9.996.36 4.11 0 8.277-.117 12.514-.36 4.237-.233 9.148-.593 14.708-1.092 5.573-.487 8.347 3.483 8.347 11.922 0 8.44-2.774 12.41-8.347 11.934a612.354 612.354 0 0 1-14.708-1.45c-4.237-.488-8.648-.732-13.257-.732-4.585 0-8.649.197-12.154.557-3.518.36-8.01.778-13.478 1.265-5.038.476-9.09-.476-12.2-2.89-3.1-2.403-4.296-6.733-3.588-12.979.5-5.061.929-10.088 1.277-15.138.36-5.038.546-10.32.546-15.857 0-5.526-.186-11.098-.546-16.751a437.055 437.055 0 0 0-1.277-16.044c-.476-5.758.824-9.96 3.947-12.607 3.123-2.67 7.662-3.622 13.617-2.89 4.54.476 8.8.847 12.793 1.103 4.005.232 8.15.348 12.514.348 4.342 0 8.416-.116 12.166-.348 3.761-.256 8.3-.627 13.629-1.103 5.572-.476 8.346 3.494 8.346 11.922 0 8.44-2.774 12.41-8.346 11.934-5.329-.488-9.926-.975-13.792-1.451M-48.319 553.023c-.104 4.968-.186 9.867-.186 14.708 0 1.44 2.578 2.17 7.755 2.17 5.143 0 7.731-.73 7.731-2.17 0-4.84-.127-9.995-.371-15.428a388.522 388.522 0 0 0-1.103-16.53c-.464-5.561 3.785-8.37 12.723-8.37 8.974 0 13.339 2.809 13.106 8.37-.499 10.9-.87 22.601-1.102 35.15-.244 12.515-.372 24.251-.372 35.163 0 10.924.128 22.359.372 34.339.232 11.992.603 23.426 1.102 34.315.233 5.317-4.202 7.987-13.28 7.987-9.09 0-13.5-2.67-13.269-7.987.488-11.852.964-25.423 1.463-40.665.488-15.254.731-29.184.731-41.757 0-1.45-2.588-2.182-7.731-2.182-5.177 0-7.755.731-7.755 2.182 0 13.304.082 26.793.186 40.48.14 13.675.43 27.315.917 40.85.22 5.34-4.005 8-12.723 8s-12.955-2.66-12.723-8c.476-10.888.859-22.207 1.091-33.943.244-11.748.383-22.95.383-33.619 0-11.98-.14-23.867-.383-35.615a1421.88 1421.88 0 0 0-1.091-33.979c-.232-5.56 4.063-8.358 12.909-8.358 8.822 0 13.025 2.797 12.537 8.358a315.91 315.91 0 0 0-.917 16.53M49.155 645.989c.232 4.237.487 7.569.731 9.983 4.353.732 10.959 1.15 19.781 1.289 8.835.116 18.83.174 29.962.174 11.388 0 24.042-.128 37.96-.36 13.92-.255 23.915-.638 29.963-1.103 5.572-.487 8.358 2.868 8.358 9.995 0 7.128-2.786 10.46-8.358 9.972-6.048-.464-15.498-.836-28.314-1.08-12.85-.243-26.038-.36-39.609-.36-13.315 0-25.237.175-35.754.558-10.541.348-18.598.778-24.158 1.254-5.073.499-9.334-.488-12.723-2.902-3.378-2.415-4.481-6.768-3.262-13.072.975-4.852 1.45-9.426 1.45-13.791s-.475-9.101-1.45-14.174c-.976-5.572 3.517-8.37 13.43-8.37 9.938 0 14.291 2.798 13.084 8.37-.952 4.852-1.323 9.38-1.091 13.617M59.866 563.502c-2.774 2.67-4.167 6.037-4.167 10.17 0 3.865 1.393 7.208 4.167 9.983 2.775 2.81 6.118 4.19 9.984 4.19 3.889 0 7.209-1.38 9.995-4.19 2.786-2.775 4.179-6.118 4.179-9.984 0-4.132-1.393-7.499-4.18-10.169-2.785-2.67-6.105-3.993-9.994-3.993-3.866 0-7.21 1.323-9.984 3.993m19.247-27.524c1.823 1.8 2.369 4.4 1.649 7.8 5.317.245 10.587.245 15.788 0 5.212-.243 10.587-.742 16.17-1.462 5.55-.72 8.29 2.554 8.162 9.81-.128 7.267-2.59 10.424-7.442 9.45a35.968 35.968 0 0 0-7.255-.744c-2.415 0-4.969.244-7.627.743 1.196 1.428 2.31 3.46 3.262 5.99a21.757 21.757 0 0 1 1.451 7.801c0 7.5-2.914 14.848-8.706 21.975-5.828 7.163-14.059 10.715-24.715 10.715-10.17 0-18.33-3.39-24.506-10.157-6.176-6.803-9.252-14.047-9.252-21.801 0-2.67.464-5.445 1.439-8.359.975-2.902 1.939-4.957 2.914-6.164-1.683-.72-4.191-1.033-7.453-.905-3.274.104-6.002.406-8.173.905-4.364.975-6.535-2.229-6.535-9.635 0-7.372 2.426-10.576 7.267-9.624 5.328.987 10.784 1.52 16.345 1.637a263.7 263.7 0 0 0 17.076-.174c-.255-3.645.395-6.304 1.985-7.987 1.58-1.695 4.551-2.554 8.893-2.554 4.365 0 7.452.906 9.263 2.74M170.801 547.02c-.22 3.877-.36 7.163-.36 9.821 0 1.683 1.812 2.658 5.445 2.902 3.645.232 6.78-.14 9.438-1.091 5.352-1.939 7.987 1.52 7.987 10.355 0 8.834-2.635 12.653-7.987 11.435-2.902-.732-6.118-1.335-9.624-1.811-3.506-.488-5.258.104-5.258 1.81 0 3.634.139 10.355.36 20.153.255 9.798.615 16.636 1.09 20.536.732 5.317-3.575 7.964-12.885 7.964-9.357 0-13.768-2.647-13.257-7.964.464-5.595.882-13.141 1.242-22.707.348-9.577.557-17.03.557-22.358 0-5.56-.209-12.328-.557-20.315-.36-7.999-.778-14.65-1.242-19.967-.51-5.584 3.9-8.3 13.257-8.196 9.31.116 13.617 2.856 12.886 8.196a173.98 173.98 0 0 0-1.092 11.237M295.77 566.256a1108.834 1108.834 0 0 1 19.432 22.533c3.889 4.353 3.088 8.834-2.368 13.431-5.433 4.609-10.204 4.609-14.337 0-5.328-6.036-12.096-13.907-20.338-23.589-8.23-9.693-13.083-14.546-14.523-14.546-.987 0-5.932 4.98-14.894 14.894-8.939 9.937-16.693 18.412-23.252 25.435-2.902 3.134-7.325 2.717-13.234-1.277-5.955-3.993-6.617-8.44-2.008-13.269 6.78-7.243 13.733-14.812 20.884-22.671a2287.946 2287.946 0 0 0 21.604-24.181c2.658-3.135 6.303-4.702 10.9-4.702 4.609 0 8.347 1.567 11.272 4.702a3915.553 3915.553 0 0 1 20.861 23.24M354.034 621.608c4.11 3.019 5.56 7.616 4.365 13.826-.487 3.216-.905 6.733-1.265 10.622-.372 3.866-.534 7.14-.534 9.798 0 2.426.162 5.456.534 9.078.36 3.622.778 6.907 1.265 9.798 1.196 5.317-3.157 8.056-13.094 8.172-9.914.116-14.395-2.972-13.443-9.252.499-3.134.928-6.536 1.288-10.18.372-3.634.534-7.024.534-10.17 0-1.428-.058-3.378-.162-5.804-.128-2.415-.674-4.237-1.66-5.433-.72-1.219-7.674-1.892-20.861-2.008-13.21-.105-23.682-.186-31.413-.186-7.755 0-18.423.186-31.96.545-13.546.372-23.518.79-29.799 1.266-5.316.487-7.975-3.483-7.975-11.922 0-8.428 2.659-12.398 7.975-11.922 7.743.487 18.052.917 30.868 1.276 12.84.372 23.717.523 32.702.523 9.217 0 19.92-.151 32.144-.523 12.224-.36 21.093-.789 26.642-1.276 5.073-.476 9.693.777 13.85 3.772M333.322 591.883c.255-3.761.371-7.58.371-11.458 0-1.695-1.683-2.426-5.084-2.17-3.39.243-7.488.603-12.34 1.09-5.572.477-8.312-3.145-8.184-10.912.116-7.731 2.855-11.376 8.184-10.865 5.305.464 9.554.893 12.7 1.242 3.169.371 4.724-.29 4.724-1.974 0-3.146-.116-6.431-.371-9.832-.209-3.355-.615-7.116-1.068-11.238-.755-5.56 3.483-8.358 12.711-8.358 9.183 0 13.56 2.798 13.084 8.358-.476 6.536-.86 12.282-1.08 17.251a322.952 322.952 0 0 0-.372 15.8c0 5.583.128 11.005.372 16.345.22 5.34.604 10.877 1.08 16.693.475 5.328-3.936 7.998-13.292 7.998-9.322 0-13.49-2.67-12.503-7.998.453-2.914.859-6.21 1.068-9.972M462.93 553.004c-7.128-.36-13.118-.557-17.97-.557-4.83 0-10.379.058-16.67.186-6.316.116-10.065.662-11.296 1.625-.22.987-.325 1.811-.325 2.554 0 .708.22 1.312.72 1.811 3.854.464 8.695.894 14.51 1.254 5.805.371 10.878.545 15.266.545 4.586 0 10.216-.174 16.868-.545 6.663-.36 12.305-.79 16.89-1.254 5.584-.743 8.347 2.473 8.347 9.589 0 7.128-2.763 10.436-8.347 9.983-4.829-.476-10.529-.917-17.064-1.277-6.525-.371-12.457-.534-17.785-.534-5.34 0-10.54.163-15.614.534-5.084.36-9.322.65-12.7.906-.267.963-.452 2.182-.568 3.645-.117 1.44-.058 2.751.197 3.958 1.196.964 4.771 1.521 10.703 1.637 5.909.116 11.319.186 16.16.186 4.852 0 11.016-.186 18.527-.546 7.5-.371 14.279-.789 20.338-1.277 5.573-.475 8.324 3.042 8.324 10.588 0 7.557-2.751 11.086-8.324 10.587-6.06-.488-12.479-.894-19.258-1.266a358.391 358.391 0 0 0-19.608-.545c-6.048 0-11.98.174-17.796.545-5.827.372-11.678.778-17.575 1.266-5.433.499-9.856-.488-13.257-2.902-3.448-2.438-4.656-6.803-3.68-13.107a293.42 293.42 0 0 1 1.265-10.018c.383-2.52.534-5.502.534-8.892 0-3.413-.151-7.035-.534-10.936-.372-3.877-.813-7.766-1.265-11.655-.488-4.11.893-7.94 4.214-11.434 3.308-3.541 8.207-4.922 14.661-4.214 4.841.487 10.379.847 16.554 1.102 6.165.244 12.039.36 17.588.36 5.572 0 11.631-.185 18.167-.545 6.547-.36 13.21-.79 19.99-1.266 5.573-.487 8.324 3.053 8.324 10.588 0 7.545-2.751 11.063-8.324 10.598-6.303-.499-13.025-.917-20.187-1.277M421.144 645.997c.233 4.237.488 7.557.732 9.972 4.33.754 10.958 1.172 19.781 1.288 8.869.116 18.84.186 29.985.186 11.354 0 24.007-.14 37.938-.371 13.93-.233 23.89-.604 29.938-1.103 5.596-.465 8.382 2.867 8.382 10.007 0 7.116-2.786 10.447-8.382 9.971-6.048-.487-15.474-.847-28.313-1.08-12.828-.255-26.015-.359-39.563-.359-13.327 0-25.249.162-35.79.546-10.552.348-18.585.777-24.157 1.265-5.085.487-9.31-.488-12.735-2.914-3.343-2.414-4.434-6.768-3.239-13.071.964-4.83 1.451-9.427 1.451-13.78 0-4.376-.487-9.09-1.45-14.186-.976-5.549 3.517-8.358 13.419-8.358 9.949 0 14.314 2.81 13.083 8.358-.94 4.853-1.335 9.392-1.08 13.629M542.792 547.047c-.232 3.854-.36 7.139-.36 9.786 0 1.695 1.81 2.67 5.433 2.925 3.657.22 6.79-.15 9.46-1.114 5.318-1.927 8 1.52 8 10.355 0 8.846-2.682 12.665-8 11.446a89.672 89.672 0 0 0-9.623-1.811c-3.529-.488-5.27.104-5.27 1.81 0 3.634.128 10.356.36 20.154.244 9.797.615 16.658 1.103 20.524.72 5.328-3.576 7.975-12.91 7.975-9.333 0-13.767-2.647-13.28-7.975.5-5.56.93-13.141 1.277-22.695.395-9.577.558-17.019.558-22.359 0-5.56-.163-12.328-.558-20.326-.348-7.999-.777-14.65-1.277-19.956-.487-5.595 3.947-8.312 13.28-8.172 9.334.116 13.63 2.82 12.91 8.172-.488 3.599-.86 7.36-1.103 11.26M751.375 604.038c0 6.664-2.786 9.856-8.347 9.612-12.607-.476-25.55-.859-38.854-1.09a2294.457 2294.457 0 0 0-39.992-.35c-13.327 0-26.433.117-39.389.35-12.943.231-26.224.614-39.771 1.09-5.317.244-7.975-2.902-7.975-9.426 0-6.536 2.658-9.705 7.975-9.45 13.071.477 27.547 1.138 43.382 1.997 15.88.848 23.798.534 23.798-.928v-3.994c0-1.196-.244-2.902-.72-5.073-.975-4.84 3.088-7.267 12.177-7.267 9.102 0 13.141 2.426 12.178 7.267-.244 2.415-.43 4.249-.557 5.468a41.672 41.672 0 0 0-.163 3.599c0 1.462 8.707 1.776 26.143.928 17.425-.859 31.355-1.52 41.768-1.996 5.56-.488 8.347 2.612 8.347 9.263M737.606 537.147c4.005 2.925 5.386 7.348 4.19 13.315-.986 4.829-1.45 9.356-1.45 13.605 0 4.226.464 9.009 1.45 14.349.964 5.316-3.412 8.056-13.07 8.149-9.683.14-14.047-2.949-13.072-9.229.72-4.632 1.16-8.66 1.265-12.178.105-3.517-.418-5.99-1.637-7.452-.72-1.208-7.51-1.881-20.338-2.009-12.828-.104-23.102-.162-30.891-.162-7.731 0-20.756.162-39.028.534-18.296.36-29.73.79-34.316 1.277-5.317.72-7.987-3.181-7.987-11.748 0-8.556 2.67-12.607 7.987-12.108 7.743.487 19.944.917 36.66 1.265 16.74.36 29.568.546 38.518.546 9.194 0 19.898-.186 32.145-.546 12.212-.348 21.011-.778 26.34-1.265 4.817-.5 9.252.743 13.234 3.657M654.144 639.758c-2.287 2.252-3.425 5.155-3.425 8.695 0 3.309 1.138 6.141 3.425 8.498 2.298 2.368 5.073 3.552 8.323 3.552 3.053 0 5.746-1.184 8.161-3.552 2.391-2.357 3.576-5.19 3.576-8.498 0-3.54-1.185-6.443-3.576-8.695-2.415-2.229-5.108-3.343-8.16-3.343-3.251 0-6.026 1.114-8.324 3.343m32.609-14.406c6.918 6.106 10.343 13.826 10.343 23.101 0 9.043-3.425 16.67-10.343 22.916-6.908 6.222-14.999 9.356-24.286 9.356s-17.39-3.134-24.274-9.356c-6.918-6.246-10.366-13.873-10.366-22.916 0-9.275 3.448-16.995 10.366-23.101 6.884-6.095 14.987-9.171 24.274-9.171s17.378 3.076 24.286 9.17M853.415 583.705a2127.273 2127.273 0 0 1 20.35 43.23c2.404 5.306.43 9.508-5.99 12.526-6.442 3.042-10.842 1.881-13.268-3.447-4.121-9.937-10.065-23.009-17.82-39.238-7.731-16.229-12.317-24.32-13.78-24.32-.974 0-5.467 7.929-13.442 23.786-7.987 15.858-15.15 29.475-21.407 40.84-1.973 3.9-6.094 4.48-12.363 1.822-6.303-2.658-7.987-6.884-5.096-12.7a2831.203 2831.203 0 0 0 21.255-41.234c6.664-13.187 13.362-27.396 20.165-42.662 1.683-3.645 5.259-5.514 10.715-5.63 5.433-.116 9.02 1.764 10.714 5.63a13023.83 13023.83 0 0 0 19.967 41.397M914.771 553.375c-.232 5.223-.36 9.867-.36 13.988 0 1.695 1.823 2.484 5.433 2.345 3.645-.104 6.791-.522 9.45-1.254 5.572-1.45 8.3 1.88 8.172 9.984-.116 8.103-2.844 11.585-8.172 10.343-2.903-.731-6.107-1.196-9.624-1.44-3.506-.232-5.259.488-5.259 2.171 0 14.059.128 27.908.36 41.594.232 13.687.604 27.536 1.068 41.536.255 5.364-4.028 8.034-12.886 8.034-8.845 0-13.129-2.67-12.908-8.034.499-10.854.847-22.346 1.114-34.454.22-12.108.36-23.6.36-34.501 0-10.9-.14-22.22-.36-33.979-.267-11.713-.615-23.032-1.114-33.932-.221-5.572 4.12-8.37 13.094-8.37 8.962 0 13.2 2.798 12.7 8.37-.464 6.535-.836 12.398-1.068 17.599" style="stroke-width:11.6087" transform="translate(492.349 -491.07)"/><path fill="#f3c830" d="m-376.784 491.07 37.868 1.394s17.053 131.642 109.853 186.749l-15.88 34.884s-132.828-40.05-229.97 1.974l-17.436-33.7s80.484-38.042 115.565-191.3" style="stroke-width:11.6087" transform="translate(492.349 -491.07)"/><path fill="#2c292a" d="M-359.522 566.801s21.198 59.471 51.938 95.157c0 0-51.16-7.14-104.479-.987 0 0 26.375-28.929 52.541-94.17" style="stroke-width:11.6087" transform="translate(492.349 -491.07)"/></svg>