<svg xmlns="http://www.w3.org/2000/svg" width="475.83557mm" height="300mm" viewBox="0 0 475.83557 300"><path d="m0 0-15.378 17.636c-.347.444-1.105.816-1.654.816h-1.709l11.148-20.91c.485-.906.347-1.803-.386-2.528l-15.514-15.242 4.073-3.895c.375-.359 1.044-.356 1.425.01L-.058-7.886c.399.393.694 1.094.694 1.657v4.387C.636-1.157.422-.538 0 0" style="fill:#254aa5;fill-opacity:1;fill-rule:nonzero;stroke:none" transform="matrix(3.08483 0 0 -3.08483 315.061 94.565)"/><path d="m0 0 14.018-13.895c.106-.102.295-.168.503-.168.208 0 .4.066.509.172L29.04-.001c.392.379.468.816.225 1.301L19.047 22.291h-1.092l7.54-20.18c.255-.676.29-1.228-.351-1.858l-9.702-9.542c-.469-.463-1.374-.463-1.841 0L3.897.253c-.636.633-.603 1.182-.35 1.858l7.531 20.18H9.991L-.222 1.302C-.467.815-.391.378 0 0" style="fill:#254aa5;fill-opacity:1;fill-rule:nonzero;stroke:none" transform="matrix(3.08483 0 0 -3.08483 193.12 106.408)"/><path d="m0 0 15.379 17.636c.347.444 1.106.814 1.655.814h1.707L7.596-2.459c-.486-.905-.349-1.802.385-2.527l15.51-15.243-4.071-3.894c-.377-.361-1.045-.357-1.421.01L.058-7.888c-.399.395-.691 1.096-.691 1.657v4.389C-.633-1.155-.421-.539 0 0" style="fill:#254aa5;fill-opacity:1;fill-rule:nonzero;stroke:none" transform="matrix(3.08483 0 0 -3.08483 160.769 94.56)"/><path d="m0 0-6.612 20.013h-.742l4.9-19.287c.082-.335.14-.837-.295-1.276l-5.129-5.208a.802.802 0 0 0-.574-.224.793.793 0 0 0-.575.224L-14.156-.55c-.435.439-.377.941-.295 1.276l4.901 19.287h-.743L-16.908 0c-.097-.313-.026-.721.172-.928l7.827-7.848a.685.685 0 0 1 .909 0L-.171-.928C.026-.721.101-.313 0 0" style="fill:#254aa5;fill-opacity:1;fill-rule:nonzero;stroke:none" transform="matrix(3.08483 0 0 -3.08483 263.99 99.38)"/><path d="M0 0a.392.392 0 0 1-.393.396h-9.916v2.293h8.511a.39.39 0 0 1 .392.394v1.163a.39.39 0 0 1-.392.394h-17.091v2.22h17.091a.39.39 0 0 1 .392.394v1.167c0 .216-.172.39-.392.39H-23.07a.388.388 0 0 1-.392-.39V7.254a.39.39 0 0 1 .392-.394h.863V3.083a.39.39 0 0 1 .39-.394h8.198V.396h-9.549A.395.395 0 0 1-23.56 0v-1.167c0-.215.176-.39.392-.39H-.393c.222 0 .393.175.393.39z" style="fill:#254aa5;fill-opacity:1;fill-rule:nonzero;stroke:none" transform="matrix(3.08483 0 0 -3.08483 110.233 229.494)"/><path d="M0 0a.392.392 0 0 1-.394.398h-20.297A.397.397 0 0 1-21.087 0v-1.159a.39.39 0 0 1 .396-.397h17.378v-4.847c0-.211.18-.392.394-.392h2.525c.222 0 .394.177.394.392z" style="fill:#254aa5;fill-opacity:1;fill-rule:nonzero;stroke:none" transform="matrix(3.08483 0 0 -3.08483 105.895 241.393)"/><path d="M0 0a.396.396 0 0 1-.396.396h-16.052v4.871a.393.393 0 0 1-.393.393h-2.528a.39.39 0 0 1-.392-.393v-6.43a.39.39 0 0 1 .392-.393H-.396c.221 0 .396.176.396.393Z" style="fill:#254aa5;fill-opacity:1;fill-rule:nonzero;stroke:none" transform="matrix(3.08483 0 0 -3.08483 428.76 257.555)"/><path d="M0 0a.392.392 0 0 1-.394.394h-2.918v3.974a.389.389 0 0 1-.39.391h-2.527a.39.39 0 0 1-.393-.391v-7.866h-3.175v7.611c0 .216-.178.39-.398.39h-13.018a.39.39 0 0 1-.388-.39V2.946c0-.217.175-.393.388-.393h10.106v-6.051h-4.914v3.162a.392.392 0 0 1-.39.398h-2.526a.395.395 0 0 1-.395-.398v-3.162h-2.233a.388.388 0 0 1-.39-.389v-1.166a.39.39 0 0 1 .39-.394h16.943v-1.484c0-.217.175-.393.393-.393h2.527a.39.39 0 0 1 .39.393v5.369h2.918c.22 0 .394.178.394.397z" style="fill:#254aa5;fill-opacity:1;fill-rule:nonzero;stroke:none" transform="matrix(3.08483 0 0 -3.08483 438.28 216.205)"/><path d="M73.61 282.767H29.523v-5.963h44.085zm10.207-16.837c0-.663-.543-1.21-1.2-1.21h-7.795c-.673 0-1.213.547-1.213 1.21v4.84H29.524v-4.84c0-.663-.55-1.21-1.21-1.21h-7.792a1.21 1.21 0 0 0-1.206 1.21v21.652a1.21 1.21 0 0 0 1.206 1.213h62.095c.657 0 1.2-.546 1.2-1.213z" style="fill:#254aa5;fill-opacity:1;fill-rule:nonzero;stroke:none;stroke-width:3.08484" transform="translate(106.41 -26.439)"/><path d="M0 0a.391.391 0 0 1-.389.391h-2.527A.391.391 0 0 1-3.309 0v-7.907H-17.6v2.229h10.034c.216 0 .39.176.39.393v5.03a.39.39 0 0 1-.39.39h-14.196a.39.39 0 0 1-.392-.39v-1.167c0-.218.175-.393.392-.393h11.275v-1.906h-11.275a.395.395 0 0 1-.392-.4v-1.164c0-.217.175-.393.392-.393h.854v-3.791c0-.217.174-.395.39-.395H-.389c.213 0 .389.178.389.395z" style="fill:#254aa5;fill-opacity:1;fill-rule:nonzero;stroke:none" transform="matrix(3.08483 0 0 -3.08483 190.225 202.73)"/><path d="M0 0a.391.391 0 0 1-.389.391h-2.529A.394.394 0 0 1-3.316 0v-18.936c0-.216.178-.392.398-.392h2.529c.213 0 .389.176.389.392z" style="fill:#254aa5;fill-opacity:1;fill-rule:nonzero;stroke:none" transform="matrix(3.08483 0 0 -3.08483 266.81 202.73)"/><path d="M0 0c0 .22-.179.396-.393.396H-9.22v7.463a.39.39 0 0 1-.393.39h-2.527a.39.39 0 0 1-.391-.39v-9.024a.39.39 0 0 1 .391-.393H-.393c.214 0 .393.174.393.393z" style="fill:#254aa5;fill-opacity:1;fill-rule:nonzero;stroke:none" transform="matrix(3.08483 0 0 -3.08483 321.966 227.762)"/><path d="M0 0a.391.391 0 0 1-.393.391h-2.524A.393.393 0 0 1-3.31 0v-1.333h-3.68a.395.395 0 0 1-.395-.395V-2.89c0-.219.177-.397.395-.397h3.68v-1.617h-3.68a.393.393 0 0 1-.395-.392v-1.163c0-.222.177-.398.395-.398h3.68v-3.025c0-.219.172-.39.393-.39h2.524c.221 0 .393.171.393.39z" style="fill:#254aa5;fill-opacity:1;fill-rule:nonzero;stroke:none" transform="matrix(3.08483 0 0 -3.08483 348.684 202.73)"/><path d="M232.065 282.767h-41.608v-11.143h41.608zm10.21-15.906c0-.672-.539-1.212-1.212-1.212h-63.42a1.21 1.21 0 0 0-1.213 1.212v3.542c0 .676.543 1.221 1.212 1.221h2.591v15.958c0 .667.546 1.213 1.219 1.213h59.611c.673 0 1.213-.546 1.213-1.213z" style="fill:#254aa5;fill-opacity:1;fill-rule:nonzero;stroke:none;stroke-width:3.08484" transform="translate(106.41 -26.439)"/><path d="M0 0c0 .216-.172.39-.389.39h-12.349a.389.389 0 0 1-.388-.39v-1.167c0-.218.174-.394.388-.394h9.424V-16.74c0-.217.176-.393.394-.393h2.531A.39.39 0 0 1 0-16.74z" style="fill:#254aa5;fill-opacity:1;fill-rule:nonzero;stroke:none" transform="matrix(3.08483 0 0 -3.08483 242.245 203.517)"/></svg>