<svg xmlns="http://www.w3.org/2000/svg" width="1588.4218pt" height="224.99998pt" fill-rule="evenodd" viewBox="0 0 1588.4218 224.99998"><path d="M643.195 493.918c2.307 12.286-4.875 29.677 3.229 36.984.752-.443 1.4-.987 2.152-1.44-1.615-10.015-.996-21.73 7.549-23.702-.203 1.643.643 2.24.359 3.948 7.02.835 12.916-2.342 17.959-4.656-.668-4.535 4.619-5.806 8.254-7.197 1.377 3.053-.291 6.416-.715 9.702 3.362-1.671 5.965-7.207 8.614-10.769 5.615-.991 10.562-4.505 17.242-3.236-3.75 6.302-12.012 10.007-12.209 18.675 2.986-1.289 8.789-3.116 11.855-1.077.012 9.001-13.924 4.037-14.722 12.212 10.978-.864 17.957-5.746 26.562-8.982 3.266 4.159 1.287 13.554 5.035 17.244 6.291-7.399.873-21.087 1.444-32.684.396-8.282 2.756-16.641 1.064-23.346-10.025 3.086-3.039 24.298-7.543 33.759-2.008.116-3.68 2.183-5.738 1.078 1.31-4.661-1.567-9.426-2.158-14.364 2.205-1.749 4.634-3.266 5.387-6.466-2.063-1.763-6.079-1.584-9.331-2.161 1.063-2.558-1.669-4.459 0-6.82-2.041-3.833-7.324-4.41-12.216-5.381-.537 7.837 8.892 5.715 8.619 13.286-4.067.847-6.571 3.249-11.125 3.594-.567 1.348-1.606 2.238-3.239 2.508-2.24-1.471-1.49-5.929-4.304-6.82-1.26 3.747-2.944 7.299-6.469 7.181-3.9-.131-6.211-5.72-9.701-6.463-3.662 3.632-6.498 8.109-10.051 11.845-3.086-1.333-5.373 1.04-8.262 1.078-2.054-6.322-2.092-14.662-4.312-20.828-4.869.872-2.518 8.974-5.026 12.209 1.241-.278 1.579.338 1.797 1.089zm65.008 11.486c-1.33.693-4.029 1.588-5.752.71-.849-2.934 2.035-4.783 3.231-6.82 1.791 1.097 2.865 2.884 2.521 6.11zM668.34 495.7c2.287 1.201 3.986 5.113 2.514 7.908-2.116.463-5.045 1.82-7.545.719.189-4.361 3.517-5.573 5.031-8.627zM361.983 514.022c2.051-3.698.871-9.108 1.077-13.652.37-8.059 2.272-16.582 1.439-24.054-11.848 3.304.747 30.004-8.984 36.629 2.919-.406 3.779 1.249 6.468 1.077zM567.043 478.467c-3.074 4.947-2.533 10.493-2.504 16.521.018 5.7-2.158 12.408-2.158 18.668 0 6.45 1.338 11.368 3.225 15.451 1.99-1.124 2.892-3.345 4.32-5.026-4.236-11.106 1.843-24.939 1.779-36.641 0-1.538-1.129-14.653-4.662-8.973zM452.123 512.227c8.065.258 13.371-5.994 20.467-4.312.488 3.181-2.893 4.198-1.43 7.183 2.613 1.885 3.291-2.411 6.108-2.518-.381-7.077 7.652-5.743 7.548-12.563-12.171-.186-19.687 4.262-27.654 8.261-2.972-3.776-3.939 1.097-7.559 2.506-.822.326-2.195.097-3.224.366-3.666.932-5.236 2.567-7.182 0 .229-10.384 2.522-23.357 0-33.041-1.795 1.011-.99 3.094-1.795 5.381-.55 1.557-2.144 2.692-2.525 3.95-2.621 9.067 5.982 25.247-9.334 23.344 1.437-4.301 1.08-11.422-2.148-13.278 1.736-.901 8.519-5.445 8.259-7.537-.406-3.327-5.877-1.308-8.984-2.885-1.714-3.562-6.258-9.588-11.123-6.464 2.2 3.237 7.008 1.239 6.461 6.111-.557 4.87-9.776 4.293-10.778 9.336 4.642 1.354 8.108-3.342 12.578-2.149-3.708 2.428-7.466 11.594-11.851 12.919-2.369.72-5.535-.165-7.91 0-11.84.806-23.628 5.828-34.469 6.819 4.217 6.19 14.599-.758 20.824.724-1.15 5.407-1.789 14.735 3.233 16.168 2.675-3.612.345-7.693 1.079-12.223 2.091-12.946 19.086-4.926 29.798-6.454-1.394 6.141-7.869 7.197-11.483 11.125 10.726.439 16.092-4.485 23.344-7.543.414 7.141 1.072 15.921 7.184 16.171.789-3.765-1.825-8.484-.36-12.932 2.219-2.681 9.42-.392 12.567-2.162 1.033-.915-.27-3.843.359-4.303zm-36.633-5.026c1.264-2.69 3.542-4.359 5.022-6.831 1.184.98.869 3.448 1.442 5.034-.813 1.759-4.048 2.807-6.464 1.797z" style="fill:#232f20;fill-opacity:1;stroke:none" transform="matrix(3.99042 0 0 3.99042 -1314.494 -1896.405)"/><path d="M389.275 500.017c4.149.266 6.379 3.22 10.411 4.31 5.296-8.174-6.627-8.654-11.844-10.775 2.081-5.545 14.805-7.945 8.615-15.085-10.652-.116-16.613 4.456-21.188 10.415 4.004 1.7 7.142-2.065 10.061-1.442-3.802 6.617-9.16 11.691-12.927 18.32 5.86-.775 10.574-6.158 16.872-5.743zM473.32 495.349c2.973-1.096 9.202-3.306 9.69-5.748.968-4.796-5.885-7.648-8.258-10.77-5.045 5.382-17.51 8.638-14.01 19.024 3.965 0 8.336-.961 12.578-2.506zm-1.445-10.416c2.01-.423 3.922 2.066 3.949 3.227.063 2.958-5.154 5.13-9.336 3.959.58-.508 3.867-6.867 5.387-7.186zM500.965 528.739c5.83-.644 21.201-2.188 21.553-7.538.332-5.093-7.985-4.833-11.489-7.179.543-8.297 13.518-4.191 19.03-7.539-1.606-4.99-9.749-3.433-14.729-5.035.449-2.912 3.568-2.737 3.236-5.748-.613-5.425-10.041-1.688-14.361-1.073-.695-10.146 14.412-4.497 17.592-10.77v-4.316c-8.074-1.918-15.94 1.816-22.633 3.594 3.658 6.285-4.15 11.065-2.502 17.602 4.154 2.058 7.897-4.141 11.125-.72-3.055 10.828-21.338 6.433-28.015 13.639 3.554 1.625 8.873-.334 14.007-.711 5.176-.381 10.391-.333 14.364-1.074-1.981 4.967-12.239 9.422-7.178 16.868zm14.734-7.173c-2.336 1.654-6.383 3.4-9.713 2.872-.029-5.505 7.098-7.398 9.713-2.872zM338.999 514.022c11.274-2.978 11.875-16.61 15.443-27.291-7.757-1.528-9.818 5.417-17.598 5.024-1.959-1.278-2.463-3.998-5.387-4.315-2.691 9.316-3.213 23.723 1.441 31.252 3.353-.242 4.491-2.689 6.101-4.67zm3.583-17.234c1.57 4.331-1.02 10.682-4.299 12.565-6.069-4.255.37-10.797 4.299-12.565zM590.75 500.737c-2.963.673-6.322 2.73-10.053 1.43-1.367-4.668 1.828-10.808-.363-15.083-4.274 5.235-4.938 13.708-4.303 22.992 5.051-2.969 15.381-.664 14.719-9.339zM558.42 489.599c-9.99-1.916-29.426-1.898-27.641 8.977 5.625.178 11.936-6.379 18.311-3.227-5.246 7.798-13.156 12.948-16.168 22.976 1.293.984 3.211-3.437 6.826-2.504 4.781-10.196 18.104-11.828 18.672-26.222zM685.932 508.631c-.403.663.259 2.674 0 4.314-2.057 2.252-6.938 1.686-9.334 3.585-1.033-.644-.329-3.027-1.084-3.95-2.528 3.653-6.686 10.602-3.227 15.806 1.719-3.545 7.232-3.306 11.85-3.948.64 1.28.554 3.275 2.521 3.23 3.485-1.684 2.276-4.94 2.143-8.976-.19-5.831 2.805-11.758-2.869-10.061zm-10.057 13.287c.035-4.031 4.58-3.553 7.549-4.666 1.222 3.916-4.283 4.074-7.549 4.666zM466.125 522.643c-.867-1.52-.547-4.24-1.422-5.745-1.891 3.438-6.455 5.934-4.681 11.841 5.703-.623 11.513-3.803 17.962-3.947 3.715-.074 8.153 1.201 11.131-1.43-5.859-4.188-14.779-.374-22.99-.719z" style="fill:#232f20;fill-opacity:1;stroke:none" transform="matrix(3.99042 0 0 3.99042 -1314.494 -1896.405)"/><path d="M632.775 515.098c2.741.836 4.514-1.941 5.391-4.667-2.836-3.875-7.328-6.091-11.145-8.983 3.686-5.765 9.856-9.07 11.86-16.515h-5.025c-8.475 8.062-15.342 17.707-22.278 27.294-5.088-1.652-9.596 2.035-13.998 1.077 5.51-5.776 15.592-10.971 13.998-22.978-.434-3.27-2.303-4.941-2.873-8.622-4.586.921-3.783 7.226-7.178 9.335-2.048-.647.02-3.187-1.08-4.677-6.824-.698-11.928 2.184-12.215 6.832 3.338 1.239 9.065-2.766 13.295-1.794-1.834 3.102-5.515 6.184-6.468 8.97 4.22 2.332 5.453-3.323 10.05-2.864.149 14.385-14.757 15.64-14.359 29.083 6.385-.853 16.115-1.315 23.705-2.151-.186-1.817-3.074-2.344-3.24-4.669-.321-4.758 10.074-13.905 13.648-15.803 1.321 1.162 3.153 1.898 4.674 4.665 1.324 2.413 1.434 5.909 3.238 6.467zm-34.853 6.468c1.775-3.266 3.174-6.89 8.629-6.468-.334 4.476-4.121 7.349-8.629 6.468zM343.662 526.944c3.343 4.576 8.731 1.615 15.451.724 5.759-.761 11.685 2.323 11.849-3.585-3.431-5.95-14.88.094-20.472-3.24.264-3.564 3.444-6.119 4.312-7.898-4.495 3.883-9.302 7.458-11.14 13.999z" style="fill:#232f20;fill-opacity:1;stroke:none" transform="matrix(3.99042 0 0 3.99042 -1314.494 -1896.405)"/></svg>