<svg xmlns="http://www.w3.org/2000/svg" xml:space="preserve" width="1236.5052" height="213.33992" viewBox="0 0 1236.5052 213.33992"><g style="stroke-width:.325121"><g style="stroke-width:.325121"><path d="M0 0c-2-6.908.831-9.273 7.147-9.273 7.41 0 10.075 1.185 12.478 9.248l3.28 11.331h-6.678L12.758-.696c-.642-2.17-1.786-3.677-4.194-3.677-2.746 0-2.653 1.701-2.097 3.677l3.47 12.002H3.269Zm-13.068 7.392c-.345 2.429-2.45 3.927-6.761 3.927h-9.77l-5.803-20.067h6.668l1.804 6.245h3.131c4.28 0 7.207 1.384 8.96 3.814l-2.912-10.059h6.659L-8.057 1.79l5.194-10.528-.002-.01H.662C-1.891-7.181-2.46-4.255-1.157.138l.314 1.035-5.066 10.133h-6.039zm-5.955-2.972c-.498-1.728-1.895-2.221-3.67-2.221h-2.883l1.285 4.458h2.878c1.744 0 2.904-.451 2.39-2.237" style="fill:#006cba;fill-opacity:1;fill-rule:nonzero;stroke:none;stroke-width:.325121" transform="matrix(4.10104 0 0 -4.10104 145.185 108.329)"/></g><g style="stroke-width:.325121"><path d="m0 0 3.941 13.69h-6.673l2.244 7.767h-6.318l-2.243-7.767h-6.68l-4.486-15.579h17.68C-.787-1.864-.165-.495 0 0m24.562 15.642.024.085.009.025 5.199 17.985H9.738L3.941 13.689h18.096c1.811.044 2.395 1.53 2.525 1.953M-3.935 48.848c-1.356-.149-1.943-1.149-2.164-1.693l-3.833-13.417h6.663l-1.947-6.765h6.323l1.96 6.765h6.672l4.319 15.11zM9.739 33.737v.002z" style="fill:#5cb531;fill-opacity:1;fill-rule:nonzero;stroke:none;stroke-width:.325121" transform="matrix(4.10104 0 0 -4.10104 279.84 200.328)"/></g><g style="stroke-width:.325121"><path d="M0 0v-8.51h3.13c.782 0 1.68.035 2.684.103q1.507.105 2.659.409V7.171h2.642V-.592h3.041v-2.517h-3.041v-12.136H8.473v5.091c-.361-.104-.79-.193-1.267-.27q-.717-.117-1.477-.193a21 21 0 0 0-1.52-.103 38 38 0 0 0-1.273-.026h-9.115v2.236h3.551V0Zm-5.545 6.758H5.579V-.207c0-1.026-.081-2.045-.251-3.057a14.5 14.5 0 0 0-.756-2.904H1.979q.438 1.333.651 2.929.206 1.594.205 3.135V4.47h-8.38zm-21.386-4.06v2.287h4.606v2.596h2.891V4.985h4.58V2.698h-4.58V1.002c0-1.03.127-1.996.382-2.907a9.5 9.5 0 0 1 1.112-2.519 9.2 9.2 0 0 1 1.763-2.119 11.2 11.2 0 0 1 2.429-1.634L-15.196-10c-.59.323-1.158.703-1.715 1.13-.551.43-1.075.899-1.564 1.413a11 11 0 0 0-1.338 1.569 8.3 8.3 0 0 0-.968 1.773 8 8 0 0 0-.92-1.824 11.6 11.6 0 0 0-1.357-1.671 13.4 13.4 0 0 0-1.653-1.427 9.3 9.3 0 0 0-1.756-1.012l-1.614 1.82q1.467.62 2.551 1.583a9.7 9.7 0 0 1 1.808 2.172c.457.79.809 1.649 1.04 2.569.241.926.357 1.886.357 2.882v1.721ZM-9.36-15.246h-2.676V7.173h2.676zm57.58 7.081h4.813v-1.873h2.716V6.744h-2.716V-6.138H48.22ZM40.275-.687a5.9 5.9 0 0 1 1.864-.941c.703-.218 1.472-.322 2.299-.322.78 0 1.527.104 2.231.322a5.9 5.9 0 0 1 1.865.941c.52.383.933.853 1.242 1.42.309.563.462 1.191.462 1.872 0 .686-.153 1.312-.462 1.89a5 5 0 0 1-1.242 1.508q-.806.599-1.865.947a7 7 0 0 1-2.231.35 7.3 7.3 0 0 1-2.299-.35 6.5 6.5 0 0 1-1.864-.947 4.8 4.8 0 0 1-1.268-1.508 3.96 3.96 0 0 1-.461-1.89c0-.681.154-1.309.461-1.872a4.15 4.15 0 0 1 1.268-1.42m1.841 5.048c.608.5 1.381.754 2.322.754q1.316-.002 2.231-.754.917-.756.917-1.756 0-.97-.917-1.711-.915-.745-2.231-.744c-.957 0-1.732.246-2.338.744-.602.494-.897 1.065-.897 1.711q0 1 .913 1.756m1.268-17.466v4.166h-2.792v-4.552c.057-.621.395-1.843 2.134-1.872h13.258v2.258zm-.876 4.918h2.796v3.091h2.068q1.045 0 2.222.091c.779.058 1.498.151 2.164.291v2.129a18 18 0 0 0-2.09-.23 37 37 0 0 0-2.245-.076H37.375v-2.205h5.133zM27-2.966h4.239v-3.221h2.765v12.93h-2.765V4.081H27v2.407h-2.742V2.889h-5.139v3.599h-2.743v-9.76c.061-.625.405-1.86 2.157-1.874H27Zm0 4.865h4.239V-.765H27Zm-2.742-4.841h-5.139V.683h5.139zm9.41-6.046a5.3 5.3 0 0 1-1.556 1.583 8.8 8.8 0 0 1-2.369.952 11.8 11.8 0 0 1-2.921.344 11.3 11.3 0 0 1-2.823-.344c-.896-.226-1.672-.546-2.338-.952q-1.02-.653-1.605-1.583c-.393-.616-.585-1.325-.585-2.116 0-.809.192-1.526.585-2.142q.584-.923 1.605-1.533c.666-.438 1.442-.769 2.338-.988q1.329-.332 2.823-.33 1.576-.002 2.921.33 1.346.33 2.369.988a4.9 4.9 0 0 1 1.556 1.533c.392.616.588 1.333.588 2.142 0 .791-.196 1.5-.588 2.116m-2.566-3.244a3.25 3.25 0 0 0-.959-.897 5.8 5.8 0 0 0-1.497-.6 7.5 7.5 0 0 0-1.824-.211q-.968-.001-1.793.211a5 5 0 0 0-1.422.6q-.597.355-.932.872a2.06 2.06 0 0 0-.337 1.153c0 .407.111.779.337 1.129q.335.52.932.926.6.376 1.422.595a7 7 0 0 0 1.793.213c.654 0 1.257-.069 1.824-.213a6 6 0 0 0 1.497-.595c.397-.271.72-.58.959-.926a2 2 0 0 0 .362-1.129c0-.408-.126-.78-.362-1.128M-72.737 6.743v-22.107h-2.57v12.726h-3.088v-12.713h-2.57v5.895a34 34 0 0 0-1.981-.291 17 17 0 0 0-2.008-.14h-3.591c-1.804 0-2.139 1.27-2.194 1.894V6.34h7.356V4.081h-4.636V-7.68h3.439q.747.001 1.761.086 1.005.089 1.854.244V6.743h2.57V-.13h3.088v6.873zm-36.215-9.213a9.8 9.8 0 0 1 1.085 1.648 8.3 8.3 0 0 1 1.012-1.52 9.5 9.5 0 0 1 1.36-1.343c.465-.44.955-.83 1.486-1.168a9 9 0 0 1 1.531-.81l1.717 1.826a9 9 0 0 0-2.332 1.18A8 8 0 0 0-104.9-.899a7.8 7.8 0 0 0-1.208 2.258 8.3 8.3 0 0 0-.434 2.712v2.333h-2.823V4.071c0-.963-.136-1.871-.422-2.726a8.9 8.9 0 0 0-1.168-2.344 10.105 10.105 0 0 0-4.265-3.345l1.644-1.725q.823.377 1.647.927c.547.36 1.079.773 1.595 1.229.496.438.96.92 1.382 1.443m1.085-5.196h-2.789v-5.866c.065-.643.426-1.837 2.183-1.837v-.003h12.434v2.255h-11.828zm11.445 9.458v4.916h-2.718V-9.417h2.718v8.772h3.093v2.437zm-39.35-8.087v-2.227h8.628v-6.82h2.768v6.82h8.474v2.227zm4.587 2.233h12.966V6.535h-2.745V3.496h-9.62v3.039h-2.795v-8.667c.043-.613.352-1.93 2.194-1.93m.601 5.374h9.621v-3.17h-9.621zm84.259 2.721v2.258h15.357v-8.086a24 24 0 0 0-.273-3.74 21.5 21.5 0 0 0-.797-3.361h-2.639q.542 1.624.756 3.361c.14 1.161.212 2.328.212 3.51v6.058zm7.305-6.134h2.672v-8.771h7.726v-2.229h-19.215v2.229h3.407v8.771h2.715v-8.771h2.695zm-23.001 4.66a3.4 3.4 0 0 0 1.052-.667q.422-.446.669-1.014a2.9 2.9 0 0 0 .249-1.21c0-.41-.079-.8-.249-1.173a3.2 3.2 0 0 0-.669-.976 3.5 3.5 0 0 0-1.052-.704 3.2 3.2 0 0 0-1.293-.257q-.703-.001-1.295.257a2.9 2.9 0 0 0-1.002.704q-.445.42-.682.976-.238.559-.236 1.173c0 .429.076.832.236 1.21q.237.568.682 1.014.426.42 1.01.667c.394.165.818.251 1.287.251a3.3 3.3 0 0 0 1.293-.251m-7.181-3.061q0-1.142.465-2.116a4.8 4.8 0 0 1 1.282-1.664 5.9 5.9 0 0 1 1.872-1.101 6.6 6.6 0 0 1 2.269-.391c.81 0 1.579.131 2.293.391q1.071.395 1.896 1.101a5.1 5.1 0 0 1 1.27 1.664c.316.649.51 1.355.475 2.116-.122 2.565-2 3.545-2 3.545h2.321v2.134h-4.836v2.331h-2.714V5.177h-5.116V3.043h2.414c-1.896-1.3-1.891-3.545-1.891-3.545m14.464 7.223V-6.028h2.715v5.473h3.094v2.411h-3.094v4.865zm2.715-22.128v8.211H-67.25V-9.4h12.512v-6.007zm105.429-4.85h.961v-7.468h-.961zm-1.536-6.244c0-.438.024-.873.078-1.219h-.862l-.087.641h-.033c-.282-.399-.862-.757-1.611-.757-1.065 0-1.609.727-1.609 1.462 0 1.231 1.134 1.9 3.165 1.894v.104c0 .42-.12 1.189-1.194 1.18-.501 0-1.017-.138-1.381-.378l-.219.618c.431.26 1.077.441 1.741.441 1.622 0 2.012-1.059 2.012-2.082zm-.934 1.377c-1.047.022-2.236-.158-2.236-1.146 0-.609.416-.883.896-.883.697 0 1.142.422 1.296.853a1 1 0 0 1 .044.295zm-5.226 3.716v-1.222h1.37v-.704h-1.37v-2.744c0-.632.186-.99.717-.99.261 0 .415.021.554.061l.045-.702a2.7 2.7 0 0 0-.849-.126c-.445 0-.803.147-1.035.389-.262.282-.369.736-.369 1.333v2.779h-.817v.704h.817v.936zm-3.244-.289c-.361 0-.6.275-.6.602 0 .325.25.588.622.588.371 0 .608-.263.608-.588a.59.59 0 0 0-.618-.602zm-.458-.933h.959v-5.09h-.959zm-6.196-1.664a28 28 0 0 1-.04 1.665h.859l.057-.874h.019c.38.63 1.012.987 1.861.987 1.285 0 2.241-1.04 2.241-2.586 0-1.83-1.163-2.734-2.392-2.734-.708 0-1.306.297-1.622.798h-.023v-2.764h-.96zm.96-1.355c0-.125.014-.263.044-.376a1.46 1.46 0 0 1 1.426-1.085c1.012 0 1.601.798 1.601 1.966 0 1.022-.545 1.894-1.559 1.894a1.52 1.52 0 0 1-1.459-1.136c-.019-.128-.053-.263-.053-.38zm-5.399-1.135c.293-.168.796-.359 1.275-.359.683 0 1.01.323 1.01.758 0 .443-.271.683-.97.936-.954.337-1.402.834-1.402 1.439 0 .82.699 1.495 1.819 1.495.534 0 1.001-.136 1.285-.315l-.228-.662c-.207.115-.59.297-1.078.297-.566 0-.87-.318-.87-.696 0-.433.304-.624.99-.875.902-.324 1.382-.768 1.382-1.534 0-.907-.73-1.537-1.959-1.537-.576 0-1.111.149-1.483.358zm-3.701-1.052c-1.413 0-2.525 1.01-2.525 2.62 0 1.702 1.165 2.7 2.613 2.7 1.513 0 2.536-1.06 2.536-2.607 0-1.893-1.361-2.713-2.61-2.713zm.033.694c.915 0 1.602.83 1.602 1.987 0 .861-.451 1.945-1.58 1.945-1.123 0-1.614-1.009-1.614-1.975 0-1.112.656-1.957 1.579-1.957zm-8.296 6.509V-23.6h3.546v2.967h.961v-7.086h-.961v3.324h-3.546v-3.324h-.959v7.086zm-5.837.376h.961v-7.468h-.961zm-1.531-6.244c0-.438.023-.873.078-1.219h-.862l-.087.641h-.031c-.286-.399-.864-.757-1.612-.757-1.066 0-1.61.727-1.61 1.462 0 1.231 1.132 1.9 3.165 1.894v.104c0 .42-.12 1.189-1.195 1.18-.502 0-1.016-.138-1.38-.378l-.221.618c.431.26 1.075.441 1.741.441 1.624 0 2.014-1.059 2.014-2.082zm-.936 1.377c-1.043.022-2.234-.158-2.234-1.146 0-.609.416-.883.896-.883.697 0 1.142.422 1.294.853a.9.9 0 0 1 .044.295zm-5.224 3.716v-1.222h1.37v-.704h-1.37v-2.744c0-.632.181-.99.716-.99.262 0 .413.021.555.061l.044-.702a2.7 2.7 0 0 0-.848-.126c-.448 0-.806.147-1.036.389-.263.282-.369.736-.369 1.333v2.779h-.816v.704h.816v.936zm-7.196-2.597c0 .533-.011.955-.043 1.375h.846l.057-.831h.02c.26.471.87.946 1.745.946.727 0 1.859-.422 1.859-2.165v-3.04H2.21v2.934c0 .819-.318 1.515-1.219 1.515-.62 0-1.109-.429-1.284-.948a1.3 1.3 0 0 1-.063-.433v-3.068h-.959zm-4.911-1.328c.022-1.25.837-1.765 1.798-1.765.684 0 1.11.115 1.455.253l.179-.655c-.339-.146-.929-.325-1.767-.325-1.608 0-2.592 1.04-2.592 2.566 0 1.546.949 2.755 2.481 2.755 1.726 0 2.166-1.46 2.166-2.396q.002-.287-.028-.444zm2.796.664c.011.577-.249 1.503-1.315 1.503-.983 0-1.395-.864-1.472-1.503zm-10.569 3.942c.591.086 1.274.146 2.027.146 1.357 0 2.329-.293 2.969-.872.664-.579 1.044-1.411 1.044-2.552 0-1.161-.38-2.106-1.056-2.759-.696-.662-1.828-1.021-3.252-1.021-.687 0-1.24.025-1.732.085zm.959-6.279c.24-.04.588-.04.957-.04 2.025-.011 3.126 1.094 3.126 3.005.009 1.694-.972 2.736-2.975 2.736-.487 0-.858-.042-1.108-.093zm-8.067 4.377 1.144-3.009c.131-.341.264-.736.349-1.042h.022c.098.306.203.696.332 1.064l1.05 2.987h1.01l-1.436-3.63c-.685-1.745-1.153-2.639-1.807-3.197-.475-.387-.936-.546-1.171-.59l-.243.779c.243.063.555.213.838.454.262.197.576.556.807 1.031.043.092.078.157.078.219a.6.6 0 0 1-.078.231l-1.939 4.703zm-2.797 1.221v-1.222h1.373v-.704h-1.373v-2.744c0-.632.187-.99.718-.99.26 0 .415.021.553.061l.046-.702a2.7 2.7 0 0 0-.849-.126c-.445 0-.805.147-1.035.389-.261.282-.368.736-.368 1.333v2.779h-.817v.704h.817v.936zm-3.242-.289c-.362 0-.6.275-.6.602 0 .325.251.588.622.588.367 0 .609-.263.609-.588a.593.593 0 0 0-.62-.602zm-.458-.933h.959v-5.09h-.959zm-4.443-4.154c.295-.168.793-.359 1.272-.359.687 0 1.013.323 1.013.758 0 .443-.268.683-.966.936-.959.337-1.407.834-1.407 1.439 0 .82.698 1.495 1.82 1.495.533 0 1.001-.136 1.283-.315l-.228-.662a2.2 2.2 0 0 1-1.075.297c-.569 0-.875-.318-.875-.696 0-.433.306-.624.993-.875.903-.324 1.383-.768 1.383-1.534 0-.907-.731-1.537-1.961-1.537-.577 0-1.11.149-1.479.358zm-3.417 2.565c0 .6-.011 1.114-.043 1.591h.838l.044-1h.033c.239.68.823 1.113 1.47 1.113.099 0 .175-.009.26-.03v-.864c-.108.009-.21.021-.336.021-.676 0-1.155-.496-1.287-1.179a3 3 0 0 1-.031-.44v-2.717h-.959zm-4.92-1.114c.019-1.25.837-1.765 1.796-1.765.686 0 1.109.115 1.457.253l.175-.655c-.337-.146-.928-.325-1.763-.325-1.61 0-2.591 1.04-2.591 2.566 0 1.546.945 2.755 2.48 2.755 1.723 0 2.166-1.46 2.166-2.396q0-.287-.028-.444zm2.794.664c.012.577-.247 1.503-1.314 1.503-.982 0-1.394-.864-1.472-1.503zm-8.204 2.04 1.033-2.85c.175-.473.317-.895.424-1.313h.032c.122.418.276.84.448 1.313l1.023 2.85h1.002L-43.9-27.72h-.915l-2.003 5.091zm-2.461.932c-.358 0-.6.275-.6.602 0 .325.251.588.621.588.371 0 .611-.263.611-.588 0-.327-.24-.602-.621-.602zm-.456-.933h.959v-5.09h-.959zm-6.041-1.375c0 .533-.013.955-.043 1.375h.847l.055-.831h.022c.26.471.871.946 1.741.946.73 0 1.862-.422 1.862-2.165v-3.04h-.958v2.934c0 .819-.317 1.515-1.218 1.515-.619 0-1.113-.429-1.284-.948a1.3 1.3 0 0 1-.065-.433v-3.068h-.959zm-6.063 3.372v-4.205c0-1.578.726-2.252 1.708-2.252 1.077 0 1.786.694 1.786 2.252v4.205h.957v-4.142c0-2.178-1.189-3.06-2.777-3.06-1.501 0-2.635.82-2.635 3.027v4.175zm-5.835.376h.959v-7.468h-.959zm-1.538-6.244a8 8 0 0 1 .079-1.219h-.861l-.088.641h-.03c-.286-.399-.862-.757-1.614-.757-1.068 0-1.61.727-1.61 1.462 0 1.231 1.134 1.9 3.166 1.894v.104c0 .42-.121 1.189-1.195 1.18-.501 0-1.013-.138-1.383-.378l-.216.618c.434.26 1.073.441 1.741.441 1.621 0 2.011-1.059 2.011-2.082zm-.934 1.377c-1.045.022-2.232-.158-2.232-1.146 0-.609.414-.883.893-.883.696 0 1.142.422 1.295.853a1 1 0 0 1 .044.295zm-8.816 1.119c0 .533-.011.955-.044 1.375h.847l.057-.831h.02c.26.471.871.946 1.743.946.727 0 1.861-.422 1.861-2.165v-3.04h-.957v2.934c0 .819-.317 1.515-1.219 1.515-.62 0-1.113-.429-1.288-.948a1.5 1.5 0 0 1-.063-.433v-3.068h-.957zm-3.833-3.831c-1.415 0-2.526 1.01-2.526 2.62 0 1.702 1.164 2.7 2.614 2.7 1.512 0 2.535-1.06 2.535-2.607 0-1.893-1.361-2.713-2.611-2.713zm.032.694c.915 0 1.601.83 1.601 1.987 0 .861-.448 1.945-1.58 1.945-1.12 0-1.611-1.009-1.611-1.975 0-1.112.653-1.957 1.579-1.957zm-4.268 5.445a.585.585 0 0 0-.598.602c0 .325.249.588.622.588.371 0 .609-.263.609-.588 0-.327-.238-.602-.622-.602zm-.455-.933h.959v-5.09h-.959zm-2.448 1.222v-1.222h1.368v-.704h-1.368v-2.744c0-.632.185-.99.717-.99.261 0 .413.021.554.061l.046-.702a2.7 2.7 0 0 0-.849-.126c-.448 0-.808.147-1.037.389-.26.282-.368.736-.368 1.333v2.779h-.818v.704h.818v.936zm-2.691-5.093c0-.438.023-.873.076-1.219h-.858l-.087.641h-.033c-.285-.399-.862-.757-1.611-.757-1.071 0-1.611.727-1.611 1.462 0 1.231 1.132 1.9 3.165 1.894v.104c0 .42-.118 1.189-1.196 1.18-.501 0-1.012-.138-1.381-.378l-.217.618c.434.26 1.075.441 1.741.441 1.622 0 2.012-1.059 2.012-2.082zm-.936 1.377c-1.044.022-2.231-.158-2.231-1.146 0-.609.414-.883.894-.883.698 0 1.141.422 1.294.853a.9.9 0 0 1 .043.295zm-9.904-2.596v7.086h1.042l2.342-3.585c.535-.832.968-1.565 1.305-2.305l.034.014c-.087.945-.108 1.807-.108 2.902v2.974h.89v-7.086h-.956l-2.329 3.595c-.512.791-1.004 1.602-1.362 2.366l-.032-.011c.055-.891.066-1.744.066-2.921v-3.029zm-8.385 3.715c0 .533-.01.955-.042 1.375h.848l.056-.831h.022c.259.471.868.946 1.741.946.728 0 1.862-.422 1.862-2.165v-3.04h-.959v2.934c0 .819-.317 1.515-1.219 1.515-.62 0-1.109-.429-1.284-.948a1.3 1.3 0 0 1-.064-.433v-3.068h-.961zm-1.535-2.496c0-.438.025-.873.078-1.219h-.861l-.086.641h-.034c-.284-.399-.861-.757-1.611-.757-1.066 0-1.61.727-1.61 1.462 0 1.231 1.132 1.9 3.167 1.894v.104c0 .42-.12 1.189-1.196 1.18-.5 0-1.014-.138-1.382-.378l-.218.618c.434.26 1.075.441 1.741.441 1.623 0 2.012-1.059 2.012-2.082zm-.934 1.377c-1.046.022-2.233-.158-2.233-1.146 0-.609.413-.883.894-.883.699 0 1.143.422 1.295.853a.9.9 0 0 1 .044.295zm-7.218-1.66c.295-.168.792-.359 1.274-.359.685 0 1.012.323 1.012.758 0 .443-.272.683-.968.936-.957.337-1.406.834-1.406 1.439 0 .82.7 1.495 1.819 1.495.532 0 1.004-.136 1.282-.315l-.227-.662a2.2 2.2 0 0 1-1.076.297c-.569 0-.871-.318-.871-.696 0-.433.302-.624.991-.875.905-.324 1.381-.768 1.381-1.534 0-.907-.729-1.537-1.958-1.537-.576 0-1.111.149-1.482.358zm-1.459.451c0-.524.01-.988.044-1.386h-.848l-.055.828h-.023c-.24-.411-.805-.944-1.741-.944-.828 0-1.82.45-1.82 2.227v2.978h.961v-2.808c0-.967.313-1.631 1.173-1.631.643 0 1.09.429 1.263.851.057.128.086.295.086.474v3.114h.96zm-10.166 5.606a10 10 0 0 0 1.818.146c.936 0 1.619-.21 2.055-.587.403-.338.656-.852.656-1.484 0-.64-.196-1.145-.578-1.515-.5-.513-1.319-.78-2.243-.78-.281 0-.544.013-.761.066v-2.839h-.947zm.947-3.407a3.4 3.4 0 0 1 .782-.073c1.157 0 1.839.546 1.839 1.503 0 .946-.682 1.399-1.727 1.399-.414 0-.732-.044-.894-.074z" style="fill:#6d6c6c;fill-opacity:1;fill-rule:nonzero;stroke:none;stroke-width:.325121" transform="matrix(4.10104 0 0 -4.10104 1006.913 90.12)"/></g></g></svg>