<svg xmlns="http://www.w3.org/2000/svg" xml:space="preserve" width="1058.9208" height="500" viewBox="0 0 1058.9208 499.99999"><path d="M23.294 465.71c10.165 5.833 20.815 13.834 30.967 23.662 10.137 9.829 18.484 20.214 24.628 30.187v-41.733c-18.424-4.48-37.017-8.186-55.595-12.116" style="fill:#8ed8f8;fill-opacity:1;fill-rule:nonzero;stroke:none;stroke-width:3.14613" transform="matrix(1.33333 0 0 -1.33333 63.388 786.679)"/><path d="M78.889 465.71v12.116c-18.42-4.48-37.018-8.186-55.595-12.116z" style="fill:#00a6e9;fill-opacity:1;fill-rule:nonzero;stroke:none;stroke-width:3.14613" transform="matrix(1.33333 0 0 -1.33333 63.388 786.679)"/><path d="M91.056 480.928c-4.037-1.105-8.092-2.102-12.167-3.103V465.71h43.351c6.57.031 20.919.242 40.066 1.274v37.395c-26.361-10.197-51.814-18.175-71.25-23.451" style="fill:#8ed8f8;fill-opacity:1;fill-rule:nonzero;stroke:none;stroke-width:3.14613" transform="matrix(1.33333 0 0 -1.33333 63.388 786.679)"/><path d="M78.889 329.812v88.422H59.87c-14.642 0-16.4-14.261-17.272-17.282h-2.79v23.634h39.08v41.123H23.295V316.293h43.265c2.53.563 12.33 0 12.33 13.519" style="fill:#1d398d;fill-opacity:1;fill-rule:nonzero;stroke:none;stroke-width:3.14613" transform="matrix(1.33333 0 0 -1.33333 63.388 786.679)"/><path d="M162.308 329.738v80.346c0 1.992-.365 3.747-1.067 5.239-.768 1.623-2.366 2.95-4.732 3.951-1.52.645-3.552 1.227-6.053 1.743 0 0-3.357.582-4.231.758v2.81h16.083v42.4c-19.151-1.032-33.497-1.243-40.066-1.274H78.888v-41.126h58.062v-23.63h-2.775c-.856 3.02-2.596 17.28-16.986 17.28H99.567v-88.424c0-13.516 9.665-12.956 12.138-13.516h38.679c3.017.475 11.924.56 11.924 13.443" style="fill:#006cb7;fill-opacity:1;fill-rule:nonzero;stroke:none;stroke-width:3.14613" transform="matrix(1.33333 0 0 -1.33333 63.388 786.679)"/><path d="M193.969 370.592c6.556.613 11.392 2.595 14.35 5.965 3.542 4.033 5.338 10.209 5.338 18.348 0 8.133-1.796 14.312-5.339 18.342-3.602 4.109-9.954 6.182-18.89 6.182h-6.096v-89.69c0-12.883 8.903-12.968 11.927-13.446h61.57v160.081c-35.388-5.39-69.027-8.054-94.52-9.388v-42.4h34.136c13.77 0 24.162-3.153 30.885-8.102 6.525-4.8 9.835-11.643 9.835-21.579 0-9.939-3.31-16.785-9.835-21.589-6.723-4.945-17.115-8.101-30.885-8.101h-8.983s.016 5.015 6.507 5.377" style="fill:#0099da;fill-opacity:1;fill-rule:nonzero;stroke:none;stroke-width:3.14613" transform="matrix(1.33333 0 0 -1.33333 63.388 786.679)"/><path d="M415.39 386.353c0 7.3 4.917 13.205 10.98 13.205 6.078 0 11.005-5.906 11.005-13.205 0-7.28-4.927-13.198-11.005-13.198-6.063 0-10.98 5.918-10.98 13.198m35.825 0c0 5.235-1.863 10.071-4.996 13.957h8.627v10.577h-21.551v11.106h-13.83v-11.106h-21.546V400.31h8.624c-3.134-3.886-4.99-8.722-4.99-13.957 0-12.792 11.128-23.19 24.817-23.19 13.717 0 24.845 10.398 24.845 23.19M411.9 345.39h48.868v-23h13.84v34.171H411.9zM488.291 396.139h-13.685v19.521h-13.837v-52.7h13.837v21.91h13.685zM333.876 403.596v12.065h-14.21v-12.065c0-15.932-5.327-32.792-22.181-44.7l5.295-6.548s13.034 3.788 23.995 22.568c10.968-18.78 23.99-22.568 23.99-22.568l5.298 6.547c-16.857 11.909-22.187 28.769-22.187 44.7M389.348 393.217h-14.472v22.444h-14.403v-93.27h14.403v59.563h14.472zM528.288 333.705v21.538h-13.83V322.52h61.113v11.185zM510.788 391.17c0 8.281 5.666 14.98 12.65 14.98 6.994 0 12.666-6.699 12.666-14.98 0-8.258-5.672-14.975-12.666-14.975-6.984 0-12.65 6.717-12.65 14.976m50.932 5.33v-11.34h-12.688c.49 1.926.755 3.94.755 6.01 0 1.828-.208 3.611-.588 5.33zm-18.376-21.93h18.376v-22.224h13.85v63.313h-13.85v-8.576h-17.763c-4.835 5.77-12.229 9.463-20.519 9.463-14.532 0-26.336-11.367-26.336-25.376 0-13.991 11.804-25.364 26.336-25.364 7.954 0 15.07 3.404 19.906 8.765M658.932 381.622c.173.456.337.906.497 1.381a64.293 64.293 0 0 1 1.913 7.94c.51 2.826.755 5.61.755 8.37v16.347h-61.96v-11.144h48.507v-5.694c0-5.292-.553-10.128-1.695-14.513a72.375 72.375 0 0 0-.755-2.687h-60.151V370.45h90.155v11.172zM612.75 347.779h36.706v-14.655h-36.705zm-13.84-25.229h64.39v35.81h-64.39z" style="fill:#1d398d;fill-opacity:1;fill-rule:nonzero;stroke:none;stroke-width:3.14613" transform="matrix(1.33333 0 0 -1.33333 63.388 786.679)"/><path d="m148.995 295.441-.626 3.54c-.186.978-.277 1.657-.277 1.985 0 .513.11.874.314 1.123.208.22.491.343.85.343.358 0 .66-.123.893-.356.249-.236.362-.54.362-.931 0-.293-.11-1.022-.318-2.174l-.657-3.53zM35.126 302.068l.15-3.788h-.408c-.079.655-.192 1.142-.327 1.429-.227.453-.52.795-.897 1.013-.374.226-.853.333-1.472.333h-2.067v-12.399c0-1.01.1-1.63.295-1.878.29-.34.715-.507 1.29-.507h.522v-.44h-6.304v.44h.538c.623 0 1.072.205 1.337.62.16.264.239.843.239 1.765v12.4h-1.775c-.695 0-1.186-.064-1.469-.168-.377-.154-.701-.44-.972-.865-.27-.43-.428-1.016-.478-1.743h-.419l.155 3.788zM42.217 301.187v-6.425h3.244c.843 0 1.409.148 1.689.422.378.352.588.997.63 1.9h.402v-5.606h-.403c-.094.786-.204 1.299-.299 1.522-.129.277-.349.5-.641.655-.302.157-.759.242-1.378.242h-3.244v-5.361c0-.727.025-1.17.082-1.321a.746.746 0 0 1 .299-.372c.147-.094.43-.141.83-.141h2.501c.821 0 1.426.075 1.81.189.37.135.732.383 1.085.76.453.492.915 1.256 1.384 2.241h.46l-1.281-4.062H38.02v.44h.528c.337 0 .67.083.982.268.242.139.393.33.481.58.066.266.123.773.123 1.569v10.555c0 1.029-.097 1.658-.29 1.888-.257.33-.7.497-1.296.497h-.528v.44h11.392l.148-3.574h-.418c-.167.869-.33 1.463-.516 1.778-.196.318-.46.566-.825.736-.286.12-.799.18-1.535.18zM57.038 292.107l2.592 6.554 2.47-6.554zm9.504-5.3c-.349.339-.717 1.025-1.129 2.126l-5.112 13.497h-.375l-5.248-13.346c-.456-1.18-.865-1.966-1.242-2.35-.183-.198-.57-.343-1.19-.463v-.44h4.65v.44c-.71.048-1.18.167-1.393.359-.211.192-.321.406-.321.654 0 .306.129.787.374 1.413l1.004 2.542h5.726l.871-2.325c.296-.746.438-1.309.438-1.655a.858.858 0 0 0-.309-.664c-.201-.192-.598-.298-1.192-.324v-.44h5.864v.44c-.61.038-1.076.23-1.416.535M81.427 302.43l.34-5.511h-.34c-.45 1.658-1.095 2.847-1.916 3.577-.843.736-1.844 1.095-3.03 1.095-.96 0-1.844-.274-2.64-.821-.79-.55-1.415-1.42-1.871-2.634-.44-1.189-.683-2.683-.683-4.464 0-1.466.21-2.737.651-3.823.428-1.088 1.07-1.906 1.932-2.482.865-.57 1.837-.865 2.941-.865.96 0 1.806.22 2.54.673.73.46 1.528 1.347 2.416 2.684l.336-.23c-.749-1.438-1.604-2.498-2.586-3.162-.994-.673-2.164-1.01-3.52-1.01-2.454 0-4.336 1.01-5.676 2.992-1.007 1.48-1.51 3.225-1.51 5.245 0 1.62.33 3.112.994 4.468.648 1.352 1.564 2.403 2.718 3.155a6.895 6.895 0 0 0 3.791 1.114c1.067 0 2.118-.296 3.15-.856.311-.16.519-.258.654-.258.192 0 .362.082.507.227.188.21.33.516.402.887zM88.604 294.541h6.887v4.669c0 .815-.041 1.356-.145 1.617-.07.204-.223.368-.45.516-.32.192-.651.283-.994.283h-.516v.444h6.302v-.444h-.529c-.35 0-.667-.091-.982-.277a.992.992 0 0 1-.478-.572c-.078-.258-.122-.784-.122-1.567v-10.52c0-.822.044-1.357.135-1.624.078-.195.233-.371.453-.51.314-.192.645-.286.994-.286h.529v-.44h-6.302v.44h.516c.6 0 1.038.198 1.321.591.176.249.268.85.268 1.828v4.968h-6.887v-4.968c0-.821.044-1.356.135-1.623.07-.195.236-.371.456-.51.312-.192.639-.286.988-.286h.529v-.44H84.4v.44h.528c.607 0 1.045.198 1.328.591.166.249.267.85.267 1.828v10.52c0 .816-.053 1.357-.15 1.618-.064.204-.221.368-.444.516a1.933 1.933 0 0 1-1 .283h-.53v.444h6.312v-.444h-.529c-.35 0-.676-.091-.988-.277a.99.99 0 0 1-.462-.572c-.088-.258-.13-.784-.13-1.567zM107.137 301.187v-6.425h3.25c.843 0 1.406.148 1.69.422.373.352.597.997.628 1.9h.41v-5.606h-.41c-.1.786-.198 1.299-.29 1.522-.134.277-.351.5-.657.655-.302.157-.755.242-1.371.242h-3.25v-5.361c0-.727.031-1.17.085-1.321a.848.848 0 0 1 .302-.372c.154-.094.437-.141.837-.141h2.494c.84 0 1.432.075 1.819.189.374.135.724.383 1.082.76.447.492.91 1.256 1.378 2.241h.453l-1.274-4.062h-11.364v.44h.513c.352 0 .683.083 1 .268.236.139.387.33.47.58.084.266.128.773.128 1.569v10.555c0 1.029-.09 1.658-.283 1.888-.258.33-.701.497-1.315.497h-.513v.44h11.39l.14-3.574h-.418c-.154.869-.324 1.463-.512 1.778a1.79 1.79 0 0 1-.822.736c-.286.12-.805.18-1.535.18zM132.89 286.27c-.8.095-1.464.318-1.948.667-.504.359-1.12 1.076-1.812 2.149l-3.061 4.66c1.258.295 2.17.82 2.765 1.557.595.723.884 1.595.884 2.583 0 .928-.245 1.74-.774 2.406-.519.674-1.142 1.142-1.89 1.391-.74.255-1.895.384-3.461.384h-5.384v-.44h.567c.544 0 .966-.183 1.243-.526.207-.249.298-.88.298-1.89v-10.522c0-.924-.063-1.513-.22-1.752-.261-.437-.708-.667-1.321-.667h-.567v-.44h6.305v.44h-.566c-.554 0-.963.17-1.236.529-.205.236-.306.874-.306 1.89v4.732c.11 0 .227-.015.33-.015.101 0 .199-.006.297-.006.232 0 .525.006.89.022l5.009-7.592h3.957zm-10.484 14.617c.715.18 1.278.27 1.709.27.934 0 1.696-.32 2.268-.959.576-.632.862-1.457.862-2.47 0-1.047-.358-1.9-1.066-2.57-.711-.676-1.768-1.013-3.165-1.013-.073 0-.142.016-.249.016-.1 0-.223.012-.359.012zM143.913 302.43v-5.615h-.409c-.129 1.089-.359 1.938-.705 2.583a3.808 3.808 0 0 1-1.437 1.523 3.642 3.642 0 0 1-1.948.557c-.758 0-1.381-.246-1.872-.743-.494-.516-.745-1.088-.745-1.727 0-.504.154-.95.462-1.362.46-.598 1.542-1.404 3.225-2.388 1.394-.828 2.328-1.444 2.834-1.879a4.47 4.47 0 0 0 1.161-1.547c.27-.595.406-1.2.406-1.857 0-1.227-.437-2.287-1.302-3.177-.875-.894-1.985-1.34-3.35-1.34a6.21 6.21 0 0 0-1.218.113c-.214.047-.693.192-1.407.45-.701.248-1.145.38-1.33.38-.186 0-.34-.056-.438-.185-.113-.126-.18-.375-.242-.759h-.39v5.544h.39c.185-1.152.45-2.007.774-2.592.327-.58.805-1.048 1.469-1.435a4.28 4.28 0 0 1 2.17-.573c.91 0 1.621.265 2.15.8.535.519.79 1.145.79 1.871 0 .406-.095.812-.287 1.218-.201.409-.516.783-.931 1.142-.296.233-1.057.736-2.338 1.523-1.258.761-2.155 1.38-2.696 1.843-.554.47-.956.966-1.236 1.53a4.194 4.194 0 0 0-.41 1.843c0 1.155.41 2.158 1.224 3.005.815.846 1.84 1.255 3.118 1.255.777 0 1.617-.214 2.489-.639.418-.201.698-.314.865-.314.192 0 .34.078.469.198.122.129.214.384.286.755zM164.713 293.167a8.339 8.339 0 0 1 1.142-.075c1.438 0 2.558.406 3.363 1.243.787.824 1.174 1.91 1.174 3.228 0 .978-.258 1.824-.768 2.535-.528.708-1.17 1.218-1.925 1.514-.774.298-1.794.456-3.115.456h-5.402v-.444h.56c.573 0 .982-.18 1.265-.525.198-.249.296-.881.296-1.888v-10.524c0-.925-.073-1.51-.214-1.749-.277-.437-.72-.667-1.347-.667h-.56v-.44h6.311v.44h-.56c-.557 0-.962.167-1.24.529-.204.236-.301.874-.301 1.887v4.735c.462-.11.896-.192 1.321-.255m-1.321 7.696c.579.145 1.044.23 1.412.23.604 0 1.133-.158 1.617-.454.479-.302.85-.755 1.108-1.362a4.866 4.866 0 0 0 .384-1.954c0-1.022-.261-1.856-.812-2.5-.538-.643-1.196-.948-1.938-.948-.223 0-.469.01-.765.044-.286.038-.632.104-1.006.18zM177 301.187v-6.425h3.243c.84 0 1.407.148 1.687.422.393.352.604.997.638 1.9h.403v-5.606h-.403c-.104.786-.207 1.299-.305 1.522-.123.277-.346.5-.651.655-.29.157-.743.242-1.369.242H177v-5.361c0-.727.028-1.17.088-1.321a.77.77 0 0 1 .302-.372c.135-.094.418-.141.827-.141h2.492c.843 0 1.431.075 1.825.189.368.135.723.383 1.076.76.44.492.909 1.256 1.375 2.241h.456l-1.268-4.062H172.8v.44h.528c.343 0 .677.083.988.268.23.139.393.33.475.58.085.266.126.773.126 1.569v10.555c0 1.029-.094 1.658-.286 1.888-.258.33-.696.497-1.303.497h-.528v.44h11.398l.151-3.574h-.44c-.155.869-.312 1.463-.498 1.778a1.83 1.83 0 0 1-.83.736c-.286.12-.796.18-1.53.18zM186.899 302.068h4.008l9.036-12.163v9.338c0 1-.1 1.62-.308 1.869-.277.349-.702.513-1.29.513h-.513v.443h5.163v-.443h-.523c-.626 0-1.082-.211-1.34-.633-.157-.248-.245-.84-.245-1.75V285.57h-.384l-9.747 13.1v-10.014c0-1.01.085-1.63.29-1.878.28-.34.717-.507 1.293-.507h.528v-.44h-5.175v.44h.506c.652 0 1.095.205 1.36.62.163.264.239.843.239 1.765v11.276c-.419.563-.743.919-.966 1.098-.227.176-.548.337-.976.488-.217.075-.522.107-.956.107zM214.308 302.43v-5.615h-.4c-.132 1.089-.362 1.938-.695 2.583a3.838 3.838 0 0 1-1.45 1.523 3.642 3.642 0 0 1-1.948.557c-.749 0-1.375-.246-1.866-.743-.5-.516-.745-1.088-.745-1.727 0-.504.16-.95.469-1.362.459-.598 1.529-1.404 3.224-2.388 1.382-.828 2.316-1.444 2.832-1.879.5-.437.88-.95 1.158-1.547a4.338 4.338 0 0 0 .406-1.857c0-1.227-.444-2.287-1.312-3.177-.866-.894-1.982-1.34-3.357-1.34-.416 0-.821.037-1.199.113-.223.047-.689.192-1.403.45-.714.248-1.155.38-1.353.38a.522.522 0 0 1-.425-.185c-.11-.126-.182-.375-.226-.759h-.4v5.544h.4c.179-1.152.43-2.007.761-2.592.308-.58.802-1.048 1.463-1.435a4.313 4.313 0 0 1 2.17-.573c.91 0 1.627.265 2.156.8.525.519.786 1.145.786 1.871 0 .406-.09.812-.292 1.218-.198.409-.507.783-.928 1.142-.277.233-1.051.736-2.319 1.523-1.274.761-2.18 1.38-2.715 1.843-.541.47-.947.966-1.224 1.53a4.072 4.072 0 0 0-.418 1.843c0 1.155.406 2.158 1.236 3.005.8.846 1.847 1.255 3.1 1.255.789 0 1.613-.214 2.503-.639.4-.201.69-.314.856-.314.195 0 .343.078.472.198.11.129.208.384.283.755zM224.287 286.27v-.44h-6.308v.44h.525c.598 0 1.045.198 1.328.592.16.248.258.849.258 1.827v10.521c0 .812-.057 1.34-.154 1.617-.054.202-.208.368-.434.516-.321.192-.664.283-.998.283h-.525v.44h6.308v-.44h-.535c-.594 0-1.035-.204-1.309-.582-.179-.267-.26-.871-.26-1.834v-10.52c0-.822.04-1.357.119-1.624.075-.198.239-.371.469-.51.311-.192.632-.286.981-.286zM229.258 300.317c-1.604-1.633-2.39-3.735-2.39-6.311 0-2.53.682-4.575 2.063-6.167 1.381-1.585 3.074-2.381 5.106-2.381 2.017 0 3.722.811 5.131 2.447 1.416 1.63 2.127 3.669 2.127 6.135 0 2.391-.71 4.39-2.12 5.984-1.4 1.614-3.046 2.407-4.971 2.407-1.916 0-3.565-.71-4.946-2.114m8.06-.359c.992-1.371 1.489-3.454 1.489-6.229 0-2.574-.453-4.446-1.36-5.65-.902-1.19-2.044-1.769-3.42-1.769-1.302 0-2.346.535-3.14 1.63-1.028 1.432-1.544 3.464-1.544 6.122 0 2.58.5 4.562 1.488 5.909.793 1.082 1.856 1.62 3.178 1.62 1.406 0 2.507-.547 3.31-1.633M243.004 302.068h4.011l9.03-12.163v9.338c0 1-.114 1.62-.309 1.869-.277.349-.708.513-1.29.513h-.51v.443h5.173v-.443h-.529c-.632 0-1.076-.211-1.34-.633-.17-.248-.245-.84-.245-1.75V285.57h-.393l-9.744 13.1v-10.014c0-1.01.104-1.63.293-1.878.283-.34.707-.507 1.293-.507h.531v-.44h-5.185v.44h.523c.638 0 1.095.205 1.346.62.164.264.258.843.258 1.765v11.276c-.437.563-.761.919-.984 1.098-.224.176-.542.337-.982.488-.198.075-.522.107-.947.107z" style="fill:#008bd0;fill-opacity:1;fill-rule:nonzero;stroke:none;stroke-width:3.14613" transform="matrix(1.33333 0 0 -1.33333 63.388 786.679)"/></svg>