<svg xmlns="http://www.w3.org/2000/svg" xml:space="preserve" width="1265.293" height="200" viewBox="0 0 1265.293 200.00001"><defs><radialGradient id="b" cx="0" cy="0" r="1" fx="0" fy="0" gradientTransform="translate(146.481 -633.376) scale(14.38216)" gradientUnits="userSpaceOnUse" spreadMethod="pad"><stop offset="0" style="stop-opacity:1;stop-color:#59caf5"/><stop offset="0.45" style="stop-opacity:1;stop-color:#1575c5"/><stop offset="1" style="stop-opacity:1;stop-color:#0e244d"/></radialGradient><radialGradient id="d" cx="0" cy="0" r="1" fx="0" fy="0" gradientTransform="translate(84.61 -578.613) scale(40.39664)" gradientUnits="userSpaceOnUse" spreadMethod="pad"><stop offset="0" style="stop-opacity:1;stop-color:#59caf5"/><stop offset="0.60001" style="stop-opacity:1;stop-color:#1575c5"/><stop offset="1" style="stop-opacity:1;stop-color:#0e244d"/></radialGradient><clipPath id="a" clipPathUnits="userSpaceOnUse"><path d="M156.047-629.015a5.431 5.431 0 0 1-5.432 5.435 5.435 5.435 0 1 1 5.432-5.435z"/></clipPath><clipPath id="c" clipPathUnits="userSpaceOnUse"><path d="M101.707-577.144c-11.129-.932-19.987-9.051-19.789-18.143.199-9.09 9.381-15.706 20.516-14.776 11.13.925 19.988 9.052 19.787 18.14-.2 9.092-9.383 15.707-20.514 14.78zm19.86-29.962 17.601-14.192h-13.394l-13.363 11.106 1.798-11.106h-10.911s-1.19 7.319-1.194 7.356c-.314 2.127-.731 2.412-2.738 2.498-12.24-.072-21.984 7.525-22.21 17.756-.243 10.86 10.344 20.566 23.646 21.676 13.297 1.115 24.27-6.792 24.513-17.652.02-.846-.041-1.683-.143-2.508h10.65c-.923-1.953-3.684-10.72-14.255-14.934z" clip-rule="evenodd"/></clipPath></defs><path d="M286.64-623.754c-3.383 0-4.238 1.169-4.238 3.595v33.394h-23.894v-10.392h-6.972v10.392c0 2.639 3.17 5.174 6.865 5.174h23.596c5.883-.054 7.09-2.913 7.314-4.418l.073-.07v-32.185h5.367v-5.49h-8.111z" style="fill:#0e244d;fill-opacity:1;fill-rule:nonzero;stroke:none" transform="translate(-246.717 2028.867) scale(3.19784)"/><path d="M263.644-608.673c1.11 2.226 2.884 4.043 5.311 5.451 2.323 1.378 4.885 2.145 7.708 2.306v-6.576c-3.7-.492-6.288-2.143-7.76-4.96-1.275-2.388-1.917-6.038-1.917-10.95h-6.942c0 4.944-.622 8.593-1.866 10.95-1.438 2.817-3.992 4.487-7.657 5.006v6.53c2.52-.131 5.006-.882 7.462-2.259 2.582-1.471 4.473-3.306 5.66-5.498zM331.898-586.765h-23.794v-3.929h23.794v3.93zm-18.375-22.752c-1.017.955-2.199 1.426-3.54 1.426-1.372 0-2.565-.471-3.585-1.426-1.076-.984-1.618-2.198-1.618-3.639 0-1.48.542-2.71 1.618-3.692 1.02-.922 2.213-1.381 3.585-1.381 1.341 0 2.523.46 3.54 1.381 1.114.983 1.666 2.212 1.666 3.692 0 1.441-.552 2.655-1.666 3.64zm18.375-6.178h-10.5l.006-.351c-.691-2.588-2.144-4.67-4.37-6.247-2.132-1.509-4.472-2.266-7.024-2.266-3.112 0-5.83 1.018-8.155 3.045-2.456 2.231-3.683 5.012-3.683 8.353 0 3.271 1.227 6.026 3.683 8.255 2.358 2.062 5.075 3.09 8.155 3.09 2.486 0 4.797-.735 6.925-2.202 2.06-1.43 3.47-3.294 4.258-5.59H331.9v14.772h-23.795v-2.272h-6.973v10.343c0 2.639 3.49 5.174 6.232 5.174h24.186c7.123-.064 7.394-4.238 7.365-5.146.022-.07.051-.142.065-.215v-37.18h-7.08v8.437zM355.099-586.781v-10.334h-6.972v10.334c0 2.638 3.482 5.176 6.23 5.176l23.497.014c5.67-.065 5.855-4.293 5.83-5.169h-.016l.046-.021h-28.615zM472.777-586.76l.045-.021h-29.835v-10.275h-6.971v10.275c0 2.638 3.483 5.176 6.228 5.176l24.72.014c5.672-.065 5.855-4.293 5.832-5.169h-.019zM353.064-616.494c1.212-1.081 2.605-1.62 4.184-1.62 1.51 0 2.836.539 3.986 1.62 1.214 1.146 1.825 2.551 1.825 4.229 0 1.6-.61 2.979-1.825 4.122-1.15 1.083-2.476 1.625-3.986 1.625-1.579 0-2.972-.542-4.184-1.625-1.215-1.111-1.826-2.486-1.826-4.122 0-1.678.61-3.083 1.826-4.229zm16.644 2.47h6.969v3.803h-7.018c.108-.658.176-1.338.176-2.044 0-.605-.054-1.189-.127-1.76zm-12.454 13.947c3.271 0 6.143-1.119 8.6-3.344.25-.223.478-.456.702-.69h10.12V-594h6.934v-30.152h-6.933v4.02h-9.753a13.38 13.38 0 0 0-1.07-1.082c-2.457-2.232-5.329-3.346-8.6-3.346-3.344 0-6.258 1.114-8.75 3.346-2.621 2.359-3.93 5.341-3.93 8.948 0 3.536 1.309 6.485 3.93 8.844 2.492 2.225 5.406 3.344 8.75 3.344z" style="fill:#0e244d;fill-opacity:1;fill-rule:nonzero;stroke:none" transform="translate(-246.717 2028.867) scale(3.19784)"/><path d="M443.897-610.113c-.945-.985-1.416-2.176-1.416-3.59 0-1.437.471-2.682 1.416-3.73 1.015-1.015 2.26-1.523 3.73-1.523 1.374 0 2.575.508 3.583 1.522 1.012 1.049 1.52 2.294 1.52 3.732 0 1.377-.508 2.57-1.52 3.59-1.008 1.044-2.209 1.57-3.582 1.57-1.47 0-2.716-.526-3.73-1.57zm1.51 17.642h6.551v-9.232h10.276v-5.936h-5.329a8.875 8.875 0 0 0 1.751-2.701c.454-1.078.68-2.2.68-3.384 0-3.203-1.225-5.853-3.683-7.943-2.217-1.965-4.837-2.944-7.844-2.944-3.105 0-5.787.979-8.041 2.944-2.487 2.09-3.733 4.74-3.733 7.943 0 1.142.212 2.258.642 3.337.36.98.918 1.895 1.666 2.748h-4.366v5.936h11.43v9.232zM424.908-617.35c0-4.117-2.534-6.867-7.708-6.867H391.6v5.858h22.028c3.493 0 4.335 0 4.335 3.17v9.768h-28.37v5.857h16.134v18.011h6.974v-18.011h15.185v-5.857h-2.977v-11.93z" style="fill:#0e244d;fill-opacity:1;fill-rule:nonzero;stroke:none" transform="translate(-246.717 2028.867) scale(3.19784)"/><path d="M460.271-596.94v5.493h8.112c3.383 0 4.237-1.17 4.237-3.596v-29.092h-6.982v27.196h-5.367zM150.368-592.15h-10.637l4.728-29.148h10.638l-4.729 29.149zM185.222-592.15h-28.29l4.725-29.148h27.73l-.73 4.484h-17.092l-1.167 7.195h15.756l-.73 4.483h-15.748l-1.383 8.508h17.657l-.728 4.479zM194.815-621.298h34.365l-.775 4.838h-11.876l-3.94 24.31h-10.633l3.944-24.31h-11.866l.781-4.838z" style="fill:#0e244d;fill-opacity:1;fill-rule:nonzero;stroke:none" transform="translate(-246.717 2028.867) scale(3.19784)"/><path d="M129.536-585.948h.014l2.423-3.074h1.428l-2.634 3.18 1.6 3.943h-1.52l-1.362-3.634h-.018l-.615 3.634h-1.227l1.213-7.123h1.223l-.525 3.074zM137.07-584.382c.266-1.558-.327-2.626-1.62-2.626-1.295 0-2.249 1.068-2.514 2.626-.265 1.563.327 2.63 1.62 2.63 1.294 0 2.251-1.067 2.515-2.63zm-2.911 0c.131-.786.397-1.638 1.121-1.638.729 0 .702.852.57 1.638-.136.797-.4 1.643-1.126 1.643-.726 0-.7-.846-.565-1.643zM139.138-586.854l-.13.896h.017c.382-.78.925-.979 1.515-.955l-.228 1.31h-.51c-.201.02-.487.16-.64.366-.173.275-.247.548-.31.878l-.415 2.46h-1.18l.671-3.971c.03-.202.079-.617.126-.984h1.084zM144.178-583.985c.055-.32.104-.637.127-.949a3.04 3.04 0 0 0-.048-.886c-.18-.872-.744-1.188-1.488-1.188-1.206 0-2.095 1.149-2.347 2.637-.288 1.662.1 2.618 1.454 2.618.925 0 1.761-.405 2.073-1.627h-1.07c-.184.45-.425.64-.84.64-.598 0-.571-.604-.464-1.245h2.603zm-2.432-.988c.11-.539.313-1.047.855-1.047.576 0 .61.508.52 1.047h-1.375zM146.106-585.457c.025-.225.245-.71.65-.71.42 0 .475.406.441.614l-.075.467c-.474-.025-1.083.006-1.595.264-.785.383-1.053 1.222-1.114 1.57-.16.968.3 1.5 1.043 1.5.534 0 .987-.235 1.354-.811h.014a7.537 7.537 0 0 0-.073.664h1.066c.01-.152.003-.297.04-.545l.455-2.702c.257-1.493-.574-1.862-1.374-1.862-.424 0-.858.087-1.221.316-.355.227-.634.62-.748 1.235h1.137zm.869 1.224c-.1.58-.279 1.494-.936 1.494-.33 0-.524-.296-.455-.714.136-.798.983-.791 1.39-.78zM151.764-581.9h-1.223l1.212-7.122h1.228l-1.217 7.123zM154.493-586.286l.011.031c.321-.45.746-.753 1.345-.753.393 0 1.094.37 1.117 1.089.01.31-.028.62-.055.792l-.55 3.228h-1.186l.509-2.986c.081-.528.07-1.135-.518-1.135-.371 0-.766.416-.903 1.135l-.508 2.986h-1.183l.841-4.955h1.18l-.1.568zM159.806-585.533c.042-.337-.184-.487-.456-.487-.326 0-.494.123-.55.452-.132.778 2.212.33 1.893 2.188-.184 1.085-1.328 1.627-2.067 1.627-.924 0-1.654-.452-1.476-1.59h1.097c-.039.385.2.604.547.604.325 0 .597-.168.661-.552.067-.393-.473-.567-.698-.636-.716-.224-1.383-.432-1.19-1.585.174-1.037 1.26-1.496 1.952-1.496.84 0 1.482.377 1.355 1.475h-1.068zM162.075-586.854l.168-.979 1.275-.534-.256 1.513h.892l-.168.984h-.893l-.391 2.299c-.108.653-.063.832.347.832.126 0 .257-.024.386-.034l-.149.874c-.148.083-.79.146-.954.146-.922 0-1.02-.602-.844-1.68l.418-2.437h-.793l.166-.984h.796zM166.244-589.022l-.214 1.27h-1.263l.21-1.27h1.267zm-.407 2.168-.84 4.955h-1.188l.843-4.955h1.185zM166.948-586.854l.166-.979 1.276-.534-.257 1.513h.89l-.166.984h-.89l-.39 2.299c-.112.653-.066.832.345.832.127 0 .255-.024.384-.034l-.15.874c-.148.083-.788.146-.951.146-.927 0-1.023-.602-.836-1.68l.41-2.437h-.794l.167-.984h.796zM171.378-582.514c-.335.452-.757.761-1.364.761-.392 0-1.09-.376-1.111-1.09-.01-.311.028-.627.055-.795l.549-3.216h1.185l-.504 2.97c-.085.535-.068 1.145.515 1.145.376 0 .765-.424.906-1.145l.507-2.97h1.18l-.69 4.062c-.04.299-.073.596-.104.893h-1.187l.063-.615zM174.447-586.854l.168-.979 1.276-.534-.255 1.513h.89l-.17.984h-.89l-.392 2.299c-.11.653-.06.832.35.832.123 0 .254-.024.384-.034l-.145.874c-.153.083-.794.146-.957.146-.923 0-1.02-.602-.838-1.68l.416-2.437h-.797l.167-.984h.793zM180.184-583.985c.055-.32.109-.637.13-.949.023-.314.018-.609-.044-.886-.187-.872-.748-1.188-1.494-1.188-1.204 0-2.093 1.149-2.352 2.637-.28 1.662.103 2.618 1.46 2.618.928 0 1.762-.405 2.074-1.627h-1.07c-.184.45-.423.64-.836.64-.606 0-.576-.604-.466-1.245h2.598zm-2.434-.988c.112-.539.318-1.047.861-1.047.576 0 .61.508.52 1.047h-1.38zM185.536-588.187c-.815-.124-.914.354-1.05 1.333h.72l-.166.984h-.72l-.676 3.97h-1.185l.675-3.97h-.592l.17-.984h.588c.211-1.409.468-2.324 1.756-2.324.212 0 .43.031.633.071l-.153.92zM189.206-584.382c.264-1.558-.326-2.626-1.621-2.626-1.293 0-2.251 1.068-2.517 2.626-.262 1.563.326 2.63 1.624 2.63 1.293 0 2.248-1.067 2.514-2.63zm-2.913 0c.137-.786.397-1.638 1.123-1.638.727 0 .702.852.566 1.638-.133.797-.397 1.643-1.123 1.643s-.7-.846-.566-1.643zM191.271-586.854l-.133.896h.022c.38-.78.92-.979 1.512-.955l-.227 1.31h-.515a.993.993 0 0 0-.633.366c-.178.275-.248.548-.31.878l-.416 2.46h-1.177l.666-3.971c.036-.202.085-.617.13-.984h1.081zM195.513-581.9h-1.222l1.21-7.122h1.226l-1.214 7.123zM198.24-586.286l.012.031c.32-.45.742-.753 1.343-.753.396 0 1.095.37 1.117 1.089.012.31-.025.62-.055.792l-.548 3.228h-1.18l.504-2.986c.08-.528.066-1.135-.52-1.135-.369 0-.764.416-.9 1.135l-.512 2.986h-1.182l.843-4.955h1.174l-.097.568zM204.412-586.286h-.012c-.152-.41-.528-.722-.94-.722-1.226 0-2.071 1.297-2.3 2.626-.218 1.276.101 2.63 1.261 2.63.512 0 1-.268 1.357-.852h.021c-.044.238-.062.47-.088.705h1.181c.041-.327.076-.664.13-.988l1.044-6.135h-1.181l-.473 2.736zm-2.023 1.904c.13-.756.369-1.638 1.129-1.638.636 0 .69.965.572 1.638-.115.684-.487 1.643-1.127 1.643-.76 0-.707-.877-.574-1.643zM208.25-582.514c-.325.452-.754.761-1.35.761-.398 0-1.1-.376-1.117-1.09-.012-.311.027-.627.052-.795l.549-3.216h1.188l-.508 2.97c-.085.535-.067 1.145.516 1.145.373 0 .768-.424.906-1.145l.503-2.97h1.183l-.689 4.062c-.043.299-.078.596-.106.893h-1.182l.056-.615zM212.808-585.533c.043-.337-.187-.487-.455-.487-.319 0-.494.123-.55.452-.127.778 2.212.33 1.894 2.188-.184 1.085-1.333 1.627-2.07 1.627-.923 0-1.65-.452-1.474-1.59h1.098c-.04.385.202.604.55.604.322 0 .593-.168.658-.552.066-.393-.474-.567-.7-.636-.715-.224-1.384-.432-1.188-1.585.18-1.037 1.254-1.496 1.952-1.496.84 0 1.48.377 1.353 1.475h-1.068zM215.079-586.854l.161-.979 1.279-.534-.257 1.513h.895l-.169.984h-.89l-.392 2.299c-.114.653-.065.832.345.832.128 0 .26-.024.385-.034l-.144.874c-.15.083-.795.146-.96.146-.92 0-1.018-.602-.835-1.68l.414-2.437h-.797l.17-.984h.795zM218.65-586.854l-.13.896h.015c.39-.78.921-.979 1.512-.955l-.226 1.31h-.51c-.203.02-.482.16-.638.366-.174.275-.245.548-.308.878l-.422 2.46h-1.171l.667-3.971c.033-.202.08-.617.127-.984h1.084zM222.12-589.022l-.216 1.27h-1.263l.216-1.27h1.263zm-.41 2.168-.84 4.955h-1.186l.841-4.955h1.186zM223.423-585.457c.024-.225.243-.71.652-.71.416 0 .472.406.438.614l-.077.467c-.472-.025-1.078.006-1.595.264-.781.383-1.05 1.222-1.111 1.57-.165.968.296 1.5 1.042 1.5.539 0 .988-.235 1.353-.811h.018a6.529 6.529 0 0 0-.077.664h1.067c.012-.152.003-.297.037-.545l.457-2.702c.259-1.493-.574-1.862-1.37-1.862-.426 0-.86.087-1.225.316-.353.227-.632.62-.747 1.235h1.138zm.863 1.224c-.095.58-.274 1.494-.93 1.494-.327 0-.526-.296-.453-.714.133-.798.98-.791 1.383-.78zM228.275-589.022l-1.217 7.123h-1.185l1.214-7.123h1.188zM126.768-580.123h3.824l-.204 1.183h-2.598l-.279 1.665h2.427l-.202 1.187h-2.43l-.326 1.906h2.685l-.2 1.184h-3.907l1.21-7.125zM132.888-576.22c.057-.403.008-.9-.449-.9-.505 0-.719 1.193-.795 1.572-.048.454-.25 1.707.257 1.707.455 0 .685-.565.766-.966h1.146c-.251 1.266-.995 1.955-2.087 1.955-1.171 0-1.54-1.313-1.317-2.627.224-1.307 1.038-2.625 2.215-2.625 1.01 0 1.638.72 1.432 1.884h-1.168zM138.383-575.48c.265-1.558-.327-2.624-1.628-2.624-1.29 0-2.243 1.066-2.51 2.625-.263 1.563.329 2.627 1.62 2.627 1.298 0 2.255-1.064 2.518-2.627zm-2.915 0c.135-.786.397-1.64 1.123-1.64.73 0 .703.854.569 1.64-.131.792-.395 1.64-1.125 1.64-.724 0-.698-.847-.567-1.64zM140.55-577.384l.007.031c.32-.453.743-.752 1.344-.752.393 0 1.098.366 1.118 1.088.01.309-.025.62-.052.787l-.55 3.232h-1.185l.506-2.984c.082-.532.067-1.138-.517-1.138-.37 0-.765.422-.909 1.138l-.499 2.984h-1.187l.841-4.96h1.178l-.096.574zM147.635-575.48c.268-1.558-.325-2.624-1.617-2.624-1.295 0-2.251 1.066-2.515 2.625-.268 1.563.33 2.627 1.622 2.627s2.248-1.064 2.51-2.627zm-2.912 0c.133-.786.397-1.64 1.123-1.64s.703.854.569 1.64c-.137.792-.397 1.64-1.12 1.64-.73 0-.703-.847-.572-1.64zM149.808-577.375h.016c.316-.43.74-.73 1.342-.73.44 0 1.03.399 1.101.94.48-.64.903-.94 1.5-.94.446 0 1.035.399 1.109.94.06.379-.018.79-.085 1.183l-.505 2.984h-1.188l.51-2.984c.081-.532.069-1.138-.52-1.138-.367 0-.764.422-.901 1.138l-.508 2.984h-1.183l.504-2.984c.082-.532.068-1.138-.515-1.138-.368 0-.768.422-.907 1.138l-.506 2.984h-1.183l.839-4.959h1.18l-.1.582zM157.558-580.123l-.216 1.27h-1.263l.216-1.27h1.263zm-.41 2.166-.844 4.959h-1.182l.843-4.959h1.184zM159.776-576.22c.06-.403.01-.9-.447-.9-.506 0-.717 1.193-.8 1.572-.04.454-.247 1.707.258 1.707.457 0 .691-.565.764-.966h1.15c-.25 1.266-.992 1.955-2.08 1.955-1.178 0-1.552-1.313-1.327-2.627.225-1.307 1.038-2.625 2.221-2.625 1.008 0 1.635.72 1.428 1.884h-1.167zM163.496-576.634c.038-.336-.19-.486-.456-.486-.324 0-.492.122-.553.453-.13.774 2.21.326 1.9 2.187-.184 1.084-1.34 1.628-2.077 1.628-.923 0-1.653-.453-1.472-1.59h1.099c-.041.384.2.601.545.601.324 0 .597-.165.661-.55.072-.397-.468-.564-.698-.63-.72-.227-1.385-.436-1.187-1.595.172-1.034 1.253-1.488 1.949-1.488.837 0 1.482.378 1.355 1.47h-1.066zM170.803-572.998h1.48l-.912-1.482a7.808 7.808 0 0 0 1.1-2.187c.08-.251.166-.51.195-.76h-1.227c-.038.219-.1.457-.157.683-.101.425-.23.87-.505 1.276l-.902-1.45c.611-.344 1.28-.992 1.423-1.812.197-1.16-.707-1.545-1.467-1.545-.758 0-1.794.385-1.989 1.545a1.867 1.867 0 0 0 .423 1.538c-.77.525-1.441 1.235-1.622 2.276-.255 1.499.873 2.064 1.892 2.064.595 0 1.406-.275 1.934-.789l.334.643zm-1.406-4.691c-.156-.197-.48-.67-.421-.99.059-.342.338-.607.66-.607.33 0 .583.143.517.562-.074.411-.465.814-.756 1.035zm.488 3.258c-.272.256-.806.476-1.129.476-.507 0-.905-.388-.788-1.066.088-.546.385-.961.756-1.298l1.16 1.888zM175.375-580.123h4.618l-.2 1.183h-1.7l-1.01 5.942h-1.224l1.01-5.942h-1.7l.206-1.183z" style="fill:#7b7979;fill-opacity:1;fill-rule:nonzero;stroke:none" transform="translate(-246.717 2028.867) scale(3.19784)"/><path d="m180.3-577.957-.128.897h.017c.389-.779.927-.974 1.514-.956l-.223 1.318h-.515a.994.994 0 0 0-.637.357c-.176.277-.245.557-.308.884l-.415 2.459h-1.178l.666-3.972c.037-.207.08-.62.128-.987h1.078zM183.08-576.555c.025-.224.241-.707.65-.707.42 0 .477.405.441.61l-.074.464c-.472-.021-1.08.015-1.599.266-.782.387-1.05 1.222-1.107 1.568-.169.972.297 1.502 1.038 1.502.538 0 .986-.24 1.353-.81h.018a6.055 6.055 0 0 0-.073.664h1.065c.007-.15.004-.3.039-.543l.459-2.704c.251-1.494-.576-1.86-1.379-1.86-.425 0-.855.082-1.218.32-.358.226-.636.608-.744 1.23h1.132zm.866 1.225c-.097.584-.274 1.49-.932 1.49-.328 0-.525-.297-.454-.707.134-.806.977-.794 1.386-.783zM189.021-577.384h-.017c-.151-.415-.525-.72-.935-.72-1.235 0-2.076 1.297-2.301 2.625-.22 1.278.095 2.627 1.253 2.627.514 0 1.005-.267 1.364-.85h.016c-.038.242-.062.465-.09.704h1.187c.04-.325.069-.663.13-.99l1.041-6.135h-1.184l-.464 2.74zm-2.037 1.905c.132-.761.378-1.641 1.136-1.641.643 0 .69.96.577 1.64-.118.681-.494 1.64-1.135 1.64-.755 0-.703-.878-.578-1.64zM194.163-575.082a9.18 9.18 0 0 0 .131-.947c.02-.316.017-.616-.047-.889-.183-.867-.748-1.186-1.488-1.186-1.21 0-2.1 1.143-2.354 2.636-.282 1.664.099 2.616 1.46 2.616.925 0 1.758-.406 2.068-1.628h-1.063c-.19.454-.428.64-.837.64-.606 0-.576-.601-.466-1.242h2.596zm-2.432-.988c.114-.546.312-1.05.858-1.05.577 0 .61.504.519 1.05h-1.377z" style="fill:#7b7979;fill-opacity:1;fill-rule:nonzero;stroke:none" transform="translate(-246.717 2028.867) scale(3.19784)"/><g clip-path="url(#a)" transform="translate(-246.717 2028.867) scale(3.19784)"><path d="M156.047-629.015a5.431 5.431 0 0 1-5.432 5.435 5.435 5.435 0 1 1 5.432-5.435z" style="fill:url(#b);stroke:none"/></g><g clip-path="url(#c)" transform="translate(-246.717 2028.867) scale(3.19784)"><path d="M101.707-577.144c-11.129-.932-19.987-9.051-19.789-18.143.199-9.09 9.381-15.706 20.516-14.776 11.13.925 19.988 9.052 19.787 18.14-.2 9.092-9.383 15.707-20.514 14.78zm19.86-29.962 17.601-14.192h-13.394l-13.363 11.106 1.798-11.106h-10.911s-1.19 7.319-1.194 7.356c-.314 2.127-.731 2.412-2.738 2.498-12.24-.072-21.984 7.525-22.21 17.756-.243 10.86 10.344 20.566 23.646 21.676 13.297 1.115 24.27-6.792 24.513-17.652.02-.846-.041-1.683-.143-2.508h10.65c-.923-1.953-3.684-10.72-14.255-14.934z" style="fill:url(#d);fill-rule:evenodd;stroke:none"/></g><path d="M111.69-605.702c-3.704-2.6-9.552-2.963-10.344-3.02-.064-.013.278.02-.085.006l-2.677 16.597h10.945l2.161-13.584z" style="fill:#0e244d;fill-opacity:1;fill-rule:evenodd;stroke:none" transform="translate(-246.717 2028.867) scale(3.19784)"/></svg>