<svg xmlns="http://www.w3.org/2000/svg" width="858.0542pt" height="225pt" viewBox="0 0 858.05417 225"><path fill="#282461" d="M858.054 125.2v-8.575h-12.848V89.408H830.45v82.67h9.911a4.851 4.851 0 0 0 4.846-4.855v-37.176h7.994a4.851 4.851 0 0 0 4.854-4.846m-34.603 29.482v-14.094c-12.363-3.932-20.316-13.997-20.316-32.775v-16.48h-15.518v16.48c0 17.249-6.23 28.746-20.323 32.775v14.094c11.982-2.015 25.59-11.505 27.985-22.338 3.163 10.534 16.295 20.12 28.172 22.338m-58.738-28.495v-7.42h-12.427a35.481 35.481 0 0 0 2.5-7.888c1.391-7.144.566-14.086.566-22.492v-.032H717.69v.032h-25.113v12.46h25.113v.065h23.964v2.637c0 3.69-.25 7.039-1.019 10.259l-.065.291c-.13.534-.29 1.068-1.998 4.668h-14.49v-11.974h-14.855v11.974H681.72v12.266h78.14a4.856 4.856 0 0 0 4.854-4.846m-85.866-16.894v-8.381H667.82V88.356h-14.75v39.393h9.903a4.846 4.846 0 0 0 4.847-4.854v-8.754h6.173a4.857 4.857 0 0 0 4.854-4.847m-38.236 12.363V89.319h-14.377v8.236h-18.406v-8.236h-14.466v37.176h42.394c2.678 0 4.855-2.16 4.855-4.838m-14.377-6.748h-18.406v-5.655h18.406zm-41.206 52.314V89.408h-13.705v26.747h-6.999V89.408H550.62v82.67h8.86c2.677 0 4.845-2.185 4.845-4.855V129.57h6.999v42.509h8.859c2.678 0 4.846-2.185 4.846-4.855m-47.63-30.85c5.745-8.43 7.477-17.062 7.477-29.425V92.191h-37.67v13.228h23.964v2.775c0 7.67-.866 13.997-5.08 20.51-4.216 6.618-10.058 11.497-19.362 14.086v13.996c12.363-1.917 23.487-9.87 30.672-20.412m-41.497-10.575v-7.419h-12.589a34.875 34.875 0 0 0 2.346-7.5c1.384-7.144.575-14.086.575-22.492v-.032h-37.67v.032H423.45v12.46h25.113v.065h23.964v2.637c0 3.69-.25 7.039-1.011 10.259-.332 1.149-.728 2.152-1.222 3.01l-.979 1.561H412.91v12.266h78.147a4.85 4.85 0 0 0 4.846-4.847m-85.866-10.76v-8.471H399.01V88.356h-14.75v57.217h9.904a4.846 4.846 0 0 0 4.846-4.855v-20.833h6.173a4.846 4.846 0 0 0 4.854-4.846m-37.184 13.608V90.281H324.55v43.212h43.455a4.844 4.844 0 0 0 4.846-4.846m-13.989-7.516h-20.121v-18.495h20.121zm-43.026 46.092V89.408h-13.325v26.068h-6.707V89.408h-13.317v82.661h8.47a4.85 4.85 0 0 0 4.847-4.846v-38.228h6.707v43.074h8.471a4.857 4.857 0 0 0 4.854-4.846m-36.99-13.503v-13.422c-11.69-5.559-15.048-17.727-15.048-29.135v-19.83H250.19v19.741c0 13.892-4.7 24.531-15.048 29.426v13.22c10.258-3.738 19.838-13.325 21.852-20.987 2.492 8.05 10.826 16.667 21.853 20.987m68.511-13.617h-14.846v32.015h63.956a4.851 4.851 0 0 0 4.847-4.854V158.8h-53.957zm141.74-3.519h-68.52v35.372h63.674a4.85 4.85 0 0 0 4.846-4.846zm-14.66 23.196h-39.191v-11.011h39.19zm193.382-28.487h-66.505v11.213h51.755v3.738h-51.755v25.874h62.807a4.853 4.853 0 0 0 4.854-4.854v-6.449H616.17v-3.843h46.804a4.84 4.84 0 0 0 4.847-4.846zm31.076 24.296c0 12.071 10.817 21.845 24.166 21.845 13.35 0 24.167-9.774 24.167-21.845 0-12.063-10.817-21.845-24.167-21.845-13.35 0-24.166 9.782-24.166 21.845m13.875-.065c0-5.218 4.684-9.442 10.453-9.442 5.769 0 10.453 4.224 10.453 9.442 0 5.219-4.684 9.45-10.453 9.45-5.769 0-10.453-4.231-10.453-9.45" style="stroke-width:8.09061"/><path fill="#fff" d="m193.228 116.246 12.12-11.65c-3.609-5.025-8.131-8.868-13.584-11.53-5.461-2.67-11.837-4.004-19.126-4.004-6.052 0-11.554 1.076-16.538 3.236-4.984 2.152-9.255 5.097-12.823 8.819-3.568 3.73-6.343 8.13-8.301 13.187-1.958 5.057-2.937 10.486-2.937 16.295 0 5.97.979 11.432 2.937 16.416 1.958 4.983 4.733 9.296 8.3 12.945 3.569 3.64 7.824 6.488 12.768 8.527 4.943 2.039 10.396 3.058 16.35 3.058-.213.065.407 1.337 3.042-.107l18.386-27.415a127.16 127.16 0 0 1-3.66 3.938 22.047 22.047 0 0 1-4.288 3.414c-1.61.98-3.455 1.756-5.534 2.339-2.071.59-4.53.89-7.355.89-3.446 0-6.545-.631-9.296-1.877a21.049 21.049 0 0 1-7.055-5.187c-1.966-2.192-3.479-4.79-4.53-7.758-1.06-2.986-1.586-6.198-1.586-9.653 0-3.373.526-6.57 1.586-9.587 1.051-3.026 2.564-5.671 4.53-7.945 1.966-2.273 4.353-4.061 7.177-5.348 2.823-1.31 6.003-1.942 9.53-1.942 4.475 0 8.318.996 11.53 2.994 3.22 1.998 6.003 4.644 8.357 7.945M61.003 73.066l51.065-33.134-5.556-1.657L62.41 66.893l8.167-35.868-4.329-.873-9.154 40.188-44.67 28.991-4.027 7.88 47.298-30.698-27.552 120.982 3.746 3.429zm9.466 73.067-11.4 12.346c1.481 1.659 3.27 3.269 5.348 4.83 2.08 1.57 4.41 2.97 6.999 4.183 2.589 1.222 5.493 2.184 8.705 2.937 3.22.752 6.796 1.116 10.712 1.116 4.232 0 8.18-.598 11.829-1.812 3.649-1.222 6.82-2.929 9.53-5.121 2.703-2.201 4.839-4.79 6.408-7.775 1.57-2.986 2.363-6.238 2.363-9.758 0-4.077-.672-7.556-2.007-10.412-1.335-2.872-3.098-5.283-5.291-7.25a28.095 28.095 0 0 0-7.476-4.765 52.715 52.715 0 0 0-8.535-2.88c-4.936-1.092-8.82-2.468-11.643-4.118-2.823-1.643-4.24-3.803-4.24-6.473 0-1.011.292-1.99.883-2.88.59-.898 1.375-1.683 2.354-2.354a12.662 12.662 0 0 1 3.293-1.586c1.214-.397 2.46-.59 3.705-.59 1.886 0 3.674.234 5.356.695 1.691.477 3.245 1.068 4.653 1.772 1.407.712 2.686 1.472 3.818 2.298a64.85 64.85 0 0 1 3.01 2.297l10.235-11.302c-.704-.704-1.748-1.667-3.123-2.88-1.368-1.214-3.131-2.395-5.292-3.528-2.16-1.14-4.765-2.12-7.823-2.945-3.058-.825-6.594-1.238-10.599-1.238-4.862 0-9.078.647-12.646 1.95-3.576 1.286-6.553 3.058-8.94 5.291-2.394 2.233-4.183 4.806-5.348 7.71-1.189 2.897-1.771 5.996-1.771 9.297 0 2.985.51 5.687 1.529 8.115a20.583 20.583 0 0 0 4.288 6.472c1.844 1.877 4.045 3.487 6.594 4.822 2.548 1.343 5.315 2.363 8.292 3.058 6.125 1.57 10.591 3.156 13.415 4.766 2.823 1.61 4.24 3.867 4.24 6.763 0 1.344-.333 2.533-1.004 3.6-.663 1.053-1.545 1.95-2.646 2.703-1.1.744-2.314 1.31-3.649 1.707-1.334.389-2.661.59-3.996.59-2.282 0-4.41-.299-6.408-.89-2.007-.59-3.843-1.35-5.534-2.297a28.858 28.858 0 0 1-4.587-3.115 35.85 35.85 0 0 1-3.6-3.35" style="stroke-width:8.09062"/><path d="m86.668 39.867-70.102 92.574 59.561-38.654 12.205-53.584Zm7.436 1.5-10.89 47.824 58.802-38.158zm55.32 11.875-68.086 44.18L42.52 267.898l178.388-19.93 13.006-19.384a58.903 58.903 0 0 1-4.055.143c-7.94 0-15.21-1.358-21.8-4.077-6.592-2.718-12.267-6.516-17.024-11.37-4.757-4.866-8.458-10.615-11.068-17.26-2.61-6.646-3.914-13.928-3.914-21.89 0-7.745 1.303-14.982 3.914-21.724 2.61-6.742 6.31-12.61 11.068-17.584 4.757-4.962 10.453-8.888 17.098-11.758 6.645-2.88 13.982-4.316 22.05-4.316 9.72 0 18.221 1.78 25.503 5.34 7.27 3.549 13.3 8.674 18.11 15.373l-16.16 15.533c-3.138-4.401-6.848-7.93-11.142-10.594-4.283-2.664-9.407-3.99-15.373-3.99-4.703 0-8.942.84-12.707 2.588-3.765 1.715-6.947 4.1-9.568 7.13-2.622 3.032-4.639 6.56-6.041 10.595-1.413 4.023-2.116 8.284-2.116 12.783 0 4.606.703 8.888 2.116 12.869 1.402 3.959 3.42 7.422 6.04 10.346a28.061 28.061 0 0 0 9.407 6.914c3.668 1.661 7.799 2.504 12.394 2.504 3.765 0 7.046-.4 9.807-1.188 2.773-.777 5.232-1.812 7.379-3.117a29.394 29.394 0 0 0 5.717-4.553 169.511 169.511 0 0 0 4.877-5.254l.008.008 39.4-58.726zm-75.162 48.776-63.065 40.93 26.328 120.378zm48.726 16.568c5.34 0 10.053.552 14.131 1.652 4.078 1.1 7.552 2.405 10.432 3.926 2.88 1.51 5.231 3.085 7.054 4.703 1.834 1.618 3.226 2.902 4.165 3.84l-13.645 15.07a86.555 86.555 0 0 0-4.014-3.062c-1.51-1.1-3.214-2.115-5.091-3.065-1.877-.938-3.949-1.726-6.204-2.363-2.243-.615-4.627-.928-7.14-.928-1.661 0-3.324.26-4.942.79-1.618.517-3.074 1.217-4.39 2.113-1.306.895-2.351 1.941-3.139 3.138a6.871 6.871 0 0 0-1.176 3.842c0 3.56 1.888 6.44 5.653 8.63 3.764 2.2 8.943 4.035 15.523 5.491 3.873.95 7.67 2.222 11.38 3.84a37.455 37.455 0 0 1 9.968 6.354c2.923 2.621 5.276 5.836 7.056 9.666 1.78 3.808 2.674 8.446 2.674 13.882 0 4.693-1.057 9.03-3.15 13.01-2.093 3.98-4.94 7.433-8.543 10.367-3.614 2.924-7.842 5.2-12.707 6.829-4.865 1.618-10.13 2.416-15.772 2.416-5.22 0-9.99-.485-14.283-1.489-4.283-1.003-8.155-2.287-11.607-3.916-3.452-1.618-6.558-3.483-9.33-5.576-2.773-2.082-5.157-4.23-7.131-6.441l15.199-16.461c1.36 1.467 2.967 2.967 4.8 4.467a38.463 38.463 0 0 0 6.116 4.152c2.255 1.262 4.704 2.277 7.379 3.064 2.664.788 5.503 1.186 8.545 1.186 1.78 0 3.548-.27 5.328-.787a17.499 17.499 0 0 0 4.865-2.276c1.467-1.003 2.643-2.2 3.528-3.603.895-1.424 1.337-3.01 1.337-4.8 0-3.863-1.887-6.872-5.652-9.018-3.765-2.147-9.72-4.263-17.887-6.356-3.97-.928-7.658-2.285-11.056-4.076-3.398-1.78-6.332-3.927-8.791-6.43a27.446 27.446 0 0 1-5.717-8.63c-1.36-3.237-2.04-6.84-2.04-10.821 0-4.401.776-8.533 2.362-12.395 1.554-3.872 3.938-7.301 7.131-10.279 3.182-2.977 7.152-5.34 11.92-7.054 4.757-1.737 10.378-2.602 16.861-2.602z" style="fill:#3ab34a;fill-opacity:1;stroke-width:10.7875" transform="scale(.75)"/></svg>