<svg xmlns="http://www.w3.org/2000/svg" xml:space="preserve" width="1232.9744" height="300" viewBox="0 0 1232.9743 300"><path d="M203.895 345.15h-11.291l11.282-18.981v.014l12.638 18.968z" style="fill:#002269;fill-opacity:1;fill-rule:nonzero;stroke:none" transform="matrix(2.49734 0 0 -2.49734 -413.993 945.629)"/><path d="M242.776 322.654v-17.052h-17.053l-21.838-22.507h61.393v62.056zM203.886 326.169v-.007.02z" style="fill:#52b9e9;fill-opacity:1;fill-rule:nonzero;stroke:none" transform="matrix(2.49734 0 0 -2.49734 -413.993 945.629)"/><path d="m203.886 326.162 21.837-20.56v17.052h17.054l-26.253 22.497-12.638-18.968z" style="fill:#f389a5;fill-opacity:1;fill-rule:nonzero;stroke:none" transform="matrix(2.49734 0 0 -2.49734 -413.993 945.629)"/><path d="M216.524 378.655h-23.919v-33.504h23.919z" style="fill:#3bb14a;fill-opacity:1;fill-rule:nonzero;stroke:none" transform="matrix(2.49734 0 0 -2.49734 -413.993 945.629)"/><path d="m165.774 322.654 13.859-16.828 24.253 20.343-11.281 18.982z" style="fill:#dc1351;fill-opacity:1;fill-rule:nonzero;stroke:none" transform="matrix(2.49734 0 0 -2.49734 -413.993 945.629)"/><path d="M225.723 305.602h17.053v17.052h-17.053z" style="fill:#fff;fill-opacity:1;fill-rule:nonzero;stroke:none" transform="matrix(2.49734 0 0 -2.49734 -413.993 945.629)"/><path d="m216.524 345.15 26.252-22.496 22.502 22.497zM203.886 326.162v.007-43.073l21.837 22.506zM637.598 298.782H625.97v-23.743h33.52v11.585H637.6zM561.456 294.231h33.804v11.461h-33.804zM578.35 319.596c-3.145 0-5.604 2.482-5.604 5.64 0 3.1 2.518 5.623 5.604 5.623a5.628 5.628 0 0 0 5.622-5.622c0-3.105-2.521-5.641-5.622-5.641m5.776 32.108H572.56v-6.557h-11.104v-11.605h2.983a16.02 16.02 0 0 1-2.323-8.305c0-8.962 7.289-16.255 16.234-16.255 8.969 0 16.262 7.293 16.262 16.255 0 2.914-.818 5.757-2.342 8.305h2.99v11.605h-11.134zM636.805 345.147v-11.605h11.067v-21.917h11.618v33.522zM535.886 318.916l-14.88 14.626h9.657v11.605h-33.796v-11.605h9.653l-14.958-14.626 8.261-8.242 13.95 14.267 13.95-14.267zM540.329 311.65h11.562v33.497h-11.562zM313.052 333.541h12.015V300.11h11.528v45.037h-23.543zM357.188 333.6h10.272v-10.295h-10.272zm21.853 11.546H345.6v-33.419h33.441zM387.07 311.676h11.615v33.471H387.07Z" style="fill:#002269;fill-opacity:1;fill-rule:nonzero;stroke:none" transform="matrix(2.49734 0 0 -2.49734 -413.993 945.629)"/><path d="M642.292 315.88h-33.49v-23.53h11.604v12.113h21.886zM452.69 292.791h11.578v11.673h10.598v-11.673h11.559v23.089H452.69zM321.988 308.373l-16.75 18.022v18.751h-12.973v-18.751l-16.756-18.022 8.527-8.337 14.713 15.737 14.705-15.737zM529.997 306.815h-11.552v-23.72h33.446v11.607h-21.894zM376.794 306.815h-11.606v-23.72h33.497v11.607h-21.891zM469.555 340.472c2.965 0 5.382-2.43 5.382-5.413 0-2.958-2.417-5.38-5.382-5.38-2.925 0-5.373 2.466-5.373 5.38 0 2.933 2.448 5.413 5.373 5.413m0-21.618c8.94 0 16.23 7.268 16.23 16.212 0 8.948-7.29 16.225-16.23 16.225-8.937 0-16.237-7.277-16.237-16.225 0-8.944 7.3-16.212 16.237-16.212M617.54 340.378c3.021 0 5.387-2.335 5.387-5.342 0-2.947-2.414-5.338-5.387-5.338-2.956 0-5.368 2.39-5.368 5.338 0 2.95 2.412 5.342 5.368 5.342m16.25-5.342c0 8.96-7.28 16.255-16.25 16.255-8.94 0-16.227-7.295-16.227-16.255 0-8.963 7.286-16.256 16.227-16.256 8.97 0 16.25 7.293 16.25 16.256M578.345 269.387c-2.939 0-5.349 2.417-5.349 5.394a5.361 5.361 0 0 0 5.35 5.354 5.357 5.357 0 0 0 5.357-5.354c0-2.977-2.4-5.394-5.358-5.394m0 21.617c-8.94 0-16.229-7.284-16.229-16.234 0-8.942 7.288-16.242 16.23-16.242 8.958 0 16.252 7.3 16.252 16.242 0 8.95-7.294 16.234-16.253 16.234M469.555 269.356c-2.925 0-5.373 2.477-5.373 5.395 0 2.929 2.448 5.393 5.373 5.393 2.965 0 5.382-2.424 5.382-5.393 0-2.975-2.417-5.395-5.382-5.395m0 21.622c-8.937 0-16.237-7.282-16.237-16.227 0-8.951 7.3-16.224 16.237-16.224 8.94 0 16.23 7.273 16.23 16.224 0 8.945-7.29 16.227-16.23 16.227M430.73 321.41h11.633v23.736h-33.528v-11.605h21.894zM408.836 304.464h33.527v11.417h-33.527zM420.483 286.982h10.232v-10.226h-10.232zm21.88 11.636h-33.527v-33.497h33.527z" style="fill:#002269;fill-opacity:1;fill-rule:nonzero;stroke:none" transform="matrix(2.49734 0 0 -2.49734 -413.993 945.629)"/></svg>