<svg xmlns="http://www.w3.org/2000/svg" width="1196.215mm" height="200mm" viewBox="0 0 1196.215 200"><path d="M0 0h-6.296c-2.942 0-4.277-1.899-4.644-3.262l-2.494-9.307h.97c1.345 0 2.327.409 2.553 1.169.521 1.939 1.554 5.795 2.073 7.735.204.752.969 1.156 1.494 1.156l4.614-.002c.801 0 1.783-.129 1.342-1.606-.249-.877-1.038-1.317-2.362-1.317h-2.063c-1.362 0-2.358-.418-2.568-1.2l-.354-1.31h4.486c2.766 0 5.201.583 6.099 3.924C3.609-1.194 2.272 0 0 0" style="fill:#00458c;fill-opacity:1;fill-rule:nonzero;stroke:none" transform="matrix(7.53727 0 0 -7.53727 347.728 65.58)"/><path d="m0 0-.138-.516C-.815-3.038-2.833-4.407-4.49-4.407h-.625c-1.655 0-2.945 1.369-2.265 3.891l.137.516c.675 2.524 2.693 3.89 4.351 3.89h.625C-.612 3.89.675 2.524 0 0m-1.592 6.428h-.641c-3.63 0-7.219-2.405-8.158-5.912l-.39-1.46c-.941-3.504 1.359-5.91 4.99-5.91h.64c4.25 0 7.22 2.406 8.16 5.91L3.4.516c.94 3.507-1.36 5.912-4.992 5.912" style="fill:#00458c;fill-opacity:1;fill-rule:nonzero;stroke:none" transform="matrix(7.53727 0 0 -7.53727 450.946 111.344)"/><path d="M0 0h-3.093c-1.261 0-2.292-.429-2.87-.921l-7.478-5.389c.6 2.23 1.186 4.422 1.694 6.31h-2.162c-1.34 0-2.319-.405-2.551-1.161l-3.5-13.058h2.153c1.363 0 2.359.418 2.567 1.199v-.008c.435 1.617.909 3.389 1.388 5.176l4.324-5.407c.422-.526.888-.96 2.416-.96h3.302l-5.637 6.992z" style="fill:#00458c;fill-opacity:1;fill-rule:nonzero;stroke:none" transform="matrix(7.53727 0 0 -7.53727 150.444 53.14)"/><path d="m0 0-4.365-.004c-1.184 0-1.738.237-1.434 1.251.249.874.995 1.155 2.317 1.155h5.514c1.361 0 2.354.418 2.564 1.198l.351 1.313h-7.929c-2.763 0-5.218-.636-6.056-3.765-.583-2.171.479-3.672 2.942-3.66h4.363c1.216 0 1.728-.263 1.415-1.317-.248-.876-1.035-1.314-2.361-1.314h-5.579c-1.361 0-2.355-.418-2.564-1.198l-.352-1.315h7.996c2.989 0 5.236.711 6.099 3.924C3.6-1.195 2.159 0 0 0" style="fill:#00458c;fill-opacity:1;fill-rule:nonzero;stroke:none" transform="matrix(7.53727 0 0 -7.53727 222.365 102.613)"/><path d="M0 0c-.248.142-.359.145-.562-.073-.806-.87-2.241-2.506-2.966-3.328.977-1.41 1.711-3.679 1.288-6.584-.059-.196.063-.331.241-.154l-.002-.002c1.832 1.855 3.878 3.894 5.713 5.283C2.983-2.635 1.37-.783 0 0" style="fill:#f39700;fill-opacity:1;fill-rule:nonzero;stroke:none" transform="matrix(7.53727 0 0 -7.53727 524.457 34.83)"/><path d="M0 0c-.099-.055-.099-.2.001-.199 2.603.06 4.338-.533 5.781-1.583 1.644 1.343 4.425 3.449 5.778 4.144.534.128 1.487.241 2.133.262-.563-.603-1.355-1.483-1.807-1.979-.116-.129.001-.241.135-.189 3.692 1.451 8.599 2.565 12.599 2.853C15.493 5.215 6.657 3.746 0 0" style="fill:#00458c;fill-opacity:1;fill-rule:nonzero;stroke:none" transform="matrix(7.53727 0 0 -7.53727 438.784 31.226)"/><path d="M0 0c-3.555-.427-8.315-1.991-10.74-3.249-.339-.177-.274-.3-.017-.415.79-.354 2.195-1.224 2.988-2.452C-2.548-3.003 1.893-1.459 3.4-.95A42.88 42.88 0 0 1 0 0" style="fill:#009de2;fill-opacity:1;fill-rule:nonzero;stroke:none" transform="matrix(7.53727 0 0 -7.53727 634.38 8.633)"/><path d="M0 0h-.614l-1.352-1.775h-.013V0h-.516v-4.09h.516v1.981h.013L-.538-4.09h.667l-1.663 2.158z" style="fill:#00458c;fill-opacity:1;fill-rule:nonzero;stroke:none" transform="matrix(7.53727 0 0 -7.53727 615.792 159.652)"/><path d="M0 0c-.468 0-.686.387-.686 1.135 0 .752.218 1.138.686 1.138.468 0 .686-.386.686-1.138C.686.387.468 0 0 0m0 2.669c-.79 0-1.201-.596-1.201-1.534C-1.201.197-.79-.4 0-.4s1.202.597 1.202 1.535S.79 2.669 0 2.669" style="fill:#00458c;fill-opacity:1;fill-rule:nonzero;stroke:none" transform="matrix(7.53727 0 0 -7.53727 625.958 187.775)"/><path d="M0 0h-.014l-.017.468h-.476c.008-.21.026-.429.026-.643v-2.346h.492v1.584c0 .649.269.976.651.976A.94.94 0 0 0 .848.023v.485C.41.508.156.361 0 0" style="fill:#00458c;fill-opacity:1;fill-rule:nonzero;stroke:none" transform="matrix(7.53727 0 0 -7.53727 642.92 171.483)"/><path d="M0 0c.011.698.294.93.608.93.393 0 .586-.308.586-.93Zm.639 1.304C-.105 1.304-.515.708-.515-.23c0-.938.41-1.535 1.2-1.535.298 0 .603.067.839.176l-.024.445c-.169-.123-.439-.246-.686-.246C.268-1.39 0-1.069 0-.377h1.687v.266c0 .877-.377 1.415-1.048 1.415" style="fill:#00458c;fill-opacity:1;fill-rule:nonzero;stroke:none" transform="matrix(7.53727 0 0 -7.53727 655.144 177.485)"/><path d="M0 0c0-.411-.27-.756-.698-.756-.341 0-.504.207-.504.521 0 .348.275.621.854.621.135 0 .258 0 .348-.01zm.468.926c0 .423-.13.603-.259.732-.091.095-.357.28-.796.28-.293 0-.598-.085-.842-.247l.053-.461c.169.188.462.312.765.312.207 0 .398-.053.5-.187.093-.13.111-.259.111-.48V.739h-.286c-1.026 0-1.408-.428-1.408-1.006 0-.576.369-.864.862-.864.455 0 .703.218.838.445h.01l.031-.404h.445a4.141 4.141 0 0 0-.024.457z" style="fill:#00458c;fill-opacity:1;fill-rule:nonzero;stroke:none" transform="matrix(7.53727 0 0 -7.53727 683.625 182.263)"/><path d="M0 0c-.586.342-.691.507-.691.77 0 .344.251.607.637.607.254 0 .506-.07.698-.188v.497a2.07 2.07 0 0 1-.738.138c-.621 0-1.136-.352-1.136-1.027 0-.526.165-.778.901-1.224.55-.334.634-.513.634-.832 0-.332-.264-.645-.726-.645-.24 0-.545.123-.779.266v-.535c.214-.106.527-.176.854-.176.785 0 1.19.51 1.19 1.161C.844-.719.633-.361 0 0" style="fill:#00458c;fill-opacity:1;fill-rule:nonzero;stroke:none" transform="matrix(7.53727 0 0 -7.53727 711.565 173.082)"/><path d="M0 0c-.45 0-.656.387-.656 1.135 0 .752.206 1.138.656 1.138.451 0 .657-.386.657-1.138C.657.387.451 0 0 0m.117 2.669c-.433 0-.656-.246-.785-.478h-.011l-.018.439h-.475c.007-.183.025-.37.025-.549v-3.703h.491V.052h.011c.2-.314.422-.452.762-.452.615 0 1.031.508 1.031 1.535 0 1.033-.416 1.534-1.031 1.534" style="fill:#00458c;fill-opacity:1;fill-rule:nonzero;stroke:none" transform="matrix(7.53727 0 0 -7.53727 730.904 187.775)"/><path d="M0 0c-.467 0-.684.387-.684 1.135 0 .752.217 1.138.684 1.138.469 0 .686-.386.686-1.138C.686.387.469 0 0 0m0 2.669c-.789 0-1.201-.596-1.201-1.534C-1.201.197-.789-.4 0-.4c.791 0 1.201.597 1.201 1.535S.791 2.669 0 2.669" style="fill:#00458c;fill-opacity:1;fill-rule:nonzero;stroke:none" transform="matrix(7.53727 0 0 -7.53727 751.783 187.775)"/><path d="M0 0h-.011l-.018.468h-.475c.008-.21.026-.429.026-.643v-2.346h.491v1.584c0 .649.269.976.649.976A.93.93 0 0 0 .849.023v.485C.411.508.161.361 0 0" style="fill:#00458c;fill-opacity:1;fill-rule:nonzero;stroke:none" transform="matrix(7.53727 0 0 -7.53727 768.732 171.483)"/><path d="m0 0-.492-.147v-.611h-.476v-.397h.476v-1.921c0-.528.241-.711.692-.711.135 0 .297.037.415.077v.399a.721.721 0 0 0-.304-.076c-.223 0-.311.13-.311.467v1.765h.615v.397H0Z" style="fill:#00458c;fill-opacity:1;fill-rule:nonzero;stroke:none" transform="matrix(7.53727 0 0 -7.53727 783.487 162.244)"/><path d="m0 0-.176.069c-.329.129-.503.264-.503.505 0 .235.17.41.491.41.223 0 .432-.058.586-.13l.023.421a1.773 1.773 0 0 1-.632.105c-.581 0-.961-.373-.961-.866 0-.379.158-.573.587-.765l.327-.15c.276-.121.38-.259.38-.467 0-.225-.192-.421-.568-.421-.245 0-.48.088-.703.221l-.031-.445c.218-.109.501-.176.81-.176.685 0 .962.413.962.929C.592-.393.364-.145 0 0" style="fill:#00458c;fill-opacity:1;fill-rule:nonzero;stroke:none" transform="matrix(7.53727 0 0 -7.53727 798.943 178.059)"/><path d="M0 0h-.282v1.535h.295c.525 0 .843-.223.843-.787C.856.294.626 0 0 0m.187 1.956h-.983v-4.09h.514v1.712h.347C.933-.422 1.393 0 1.393.797c0 .358-.116.644-.323.841-.214.207-.472.318-.883.318" style="fill:#00458c;fill-opacity:1;fill-rule:nonzero;stroke:none" transform="matrix(7.53727 0 0 -7.53727 824.897 174.398)"/><path d="M0 0h-.014l-.018.468h-.472c.005-.21.024-.429.024-.643v-2.346h.492v1.584c0 .649.267.976.649.976A.96.96 0 0 0 .849.023v.485C.408.508.156.361 0 0" style="fill:#00458c;fill-opacity:1;fill-rule:nonzero;stroke:none" transform="matrix(7.53727 0 0 -7.53727 843.052 171.483)"/><path d="M0 0c-.469 0-.685.387-.685 1.135 0 .752.216 1.138.685 1.138.467 0 .685-.386.685-1.138C.685.387.467 0 0 0m0 2.669c-.79 0-1.203-.596-1.203-1.534C-1.203.197-.79-.4 0-.4s1.2.597 1.2 1.535S.79 2.669 0 2.669" style="fill:#00458c;fill-opacity:1;fill-rule:nonzero;stroke:none" transform="matrix(7.53727 0 0 -7.53727 860.443 187.775)"/><path d="M0 0c-.338 0-.565-.176-.724-.469-.154.306-.388.469-.703.469-.331 0-.582-.147-.739-.485h-.012l-.016.445h-.477c.007-.21.025-.429.025-.643v-2.346h.49v1.847c0 .539.198.761.565.761.293 0 .455-.175.455-.557v-2.051h.494v1.847c0 .539.198.761.561.761.293 0 .458-.175.458-.557v-2.051h.491v2.077C.868-.299.517 0 0 0" style="fill:#00458c;fill-opacity:1;fill-rule:nonzero;stroke:none" transform="matrix(7.53727 0 0 -7.53727 893.718 167.655)"/><path d="M0 0c-.468 0-.685.387-.685 1.135 0 .752.217 1.138.685 1.138.469 0 .684-.386.684-1.138C.684.387.469 0 0 0m0 2.669c-.791 0-1.202-.596-1.202-1.534C-1.202.197-.791-.4 0-.4c.792 0 1.201.597 1.201 1.535S.792 2.669 0 2.669" style="fill:#00458c;fill-opacity:1;fill-rule:nonzero;stroke:none" transform="matrix(7.53727 0 0 -7.53727 913.596 187.775)"/><path d="m0 0-.493-.148v-.61h-.473v-.398h.473v-1.92c0-.528.242-.711.691-.711.135 0 .299.037.417.077v.399a.728.728 0 0 0-.302-.076c-.226 0-.313.13-.313.467v1.764h.615v.398H0Z" style="fill:#00458c;fill-opacity:1;fill-rule:nonzero;stroke:none" transform="matrix(7.53727 0 0 -7.53727 932.227 162.244)"/><path d="M-21.76 63.24h1.199V61.94h-1.2zM-21.707 71.308h1.088V64.67h-1.088z" style="fill:#00458c;fill-opacity:1;fill-rule:nonzero;stroke:none;stroke-width:2.22059" transform="matrix(3.39426 0 0 3.39426 1014.033 -51.556)"/><path d="M0 0c-.469 0-.686.387-.686 1.135 0 .752.217 1.138.686 1.138.467 0 .684-.386.684-1.138C.684.387.467 0 0 0m0 2.669c-.79 0-1.203-.596-1.203-1.534C-1.203.197-.79-.4 0-.4c.791 0 1.2.597 1.2 1.535S.791 2.669 0 2.669" style="fill:#00458c;fill-opacity:1;fill-rule:nonzero;stroke:none" transform="matrix(7.53727 0 0 -7.53727 957.752 187.775)"/><path d="M0 0c-.347 0-.596-.147-.757-.485h-.011l-.015.445h-.476c.006-.21.023-.429.023-.643v-2.346h.492v1.801c0 .539.247.807.634.807.315 0 .491-.204.491-.679v-1.929h.491v2.077C.872-.299.521 0 0 0" style="fill:#00458c;fill-opacity:1;fill-rule:nonzero;stroke:none" transform="matrix(7.53727 0 0 -7.53727 980.394 167.655)"/><path d="M0 0h.514v1.898h1.248v.447H.514v1.3h1.313v.445H0Z" style="fill:#00458c;fill-opacity:1;fill-rule:nonzero;stroke:none" transform="matrix(7.53727 0 0 -7.53727 1003.663 190.482)"/><path d="M0 0c-.47 0-.686.387-.686 1.135 0 .752.216 1.138.686 1.138.468 0 .685-.386.685-1.138C.685.387.468 0 0 0m0 2.669c-.791 0-1.202-.596-1.202-1.534C-1.202.197-.791-.4 0-.4c.79 0 1.202.597 1.202 1.535S.79 2.669 0 2.669" style="fill:#00458c;fill-opacity:1;fill-rule:nonzero;stroke:none" transform="matrix(7.53727 0 0 -7.53727 1028.085 187.775)"/><path d="M0 0h-.493v-1.798c0-.54-.245-.81-.633-.81-.315 0-.491.204-.491.681V0h-.491v-2.074c0-.656.349-.955.871-.955.347 0 .599.147.756.488h.012l.016-.448h.478c-.009.211-.025.43-.025.647Z" style="fill:#00458c;fill-opacity:1;fill-rule:nonzero;stroke:none" transform="matrix(7.53727 0 0 -7.53727 1057.315 167.955)"/><path d="M0 0c-.346 0-.599-.147-.756-.485h-.012l-.018.445h-.474c.006-.21.026-.429.026-.643v-2.346h.49v1.801c0 .539.245.807.632.807.315 0 .492-.204.492-.679v-1.929h.493v2.077C.873-.299.519 0 0 0" style="fill:#00458c;fill-opacity:1;fill-rule:nonzero;stroke:none" transform="matrix(7.53727 0 0 -7.53727 1072.016 167.655)"/><path d="M0 0c-.451 0-.655.387-.655 1.135 0 .752.204 1.138.655 1.138.452 0 .655-.386.655-1.138C.655.387.452 0 0 0m1.151 4.035H.655V2.22H.643c-.197.316-.42.449-.76.449-.615 0-1.031-.501-1.031-1.534C-1.148.108-.732-.4-.117-.4c.434 0 .655.247.788.481h.01l.018-.44h.473c-.007.182-.021.372-.021.555Z" style="fill:#00458c;fill-opacity:1;fill-rule:nonzero;stroke:none" transform="matrix(7.53727 0 0 -7.53727 1091.522 187.775)"/><path d="M0 0c0-.411-.268-.756-.697-.756-.34 0-.505.207-.505.521 0 .348.276.621.856.621.134 0 .259 0 .346-.01zm.469.926c0 .423-.13.603-.259.732-.093.095-.355.28-.796.28a1.55 1.55 0 0 1-.842-.247l.051-.461c.172.188.462.312.767.312.205 0 .398-.053.499-.187.093-.13.111-.259.111-.48V.739h-.288c-1.023 0-1.404-.428-1.404-1.006 0-.576.37-.864.862-.864.456 0 .699.218.835.445h.011l.031-.404h.445a4.447 4.447 0 0 0-.023.457Z" style="fill:#00458c;fill-opacity:1;fill-rule:nonzero;stroke:none" transform="matrix(7.53727 0 0 -7.53727 1116.867 182.263)"/><path d="m0 0-.49-.148v-.61h-.474v-.398h.474v-1.92c0-.528.24-.711.692-.711.133 0 .297.037.416.077v.399c-.097-.04-.182-.076-.307-.076-.22 0-.311.13-.311.467v1.764h.618v.398H0Z" style="fill:#00458c;fill-opacity:1;fill-rule:nonzero;stroke:none" transform="matrix(7.53727 0 0 -7.53727 1130.941 162.244)"/><path d="M36.839 71.308h1.088V64.67H36.84zM36.786 63.24h1.199V61.94h-1.2z" style="fill:#00458c;fill-opacity:1;fill-rule:nonzero;stroke:none;stroke-width:2.22059" transform="matrix(3.39426 0 0 3.39426 1014.033 -51.556)"/><path d="M0 0c-.469 0-.688.387-.688 1.135 0 .752.219 1.138.688 1.138.467 0 .684-.386.684-1.138C.684.387.467 0 0 0m0 2.669c-.792 0-1.202-.596-1.202-1.534C-1.202.197-.792-.4 0-.4s1.201.597 1.201 1.535S.792 2.669 0 2.669" style="fill:#00458c;fill-opacity:1;fill-rule:nonzero;stroke:none" transform="matrix(7.53727 0 0 -7.53727 1156.48 187.775)"/><path d="M0 0c-.347 0-.598-.147-.756-.485h-.013l-.015.445h-.476c.006-.21.024-.429.024-.643v-2.346h.491v1.801c0 .539.248.807.631.807.318 0 .495-.204.495-.679v-1.929h.493v2.077C.874-.299.52 0 0 0" style="fill:#00458c;fill-opacity:1;fill-rule:nonzero;stroke:none" transform="matrix(7.53727 0 0 -7.53727 1179.126 167.655)"/><path d="M-62.985 57.798h3.013V34.743h-3.013z" style="fill:#00458c;fill-opacity:1;fill-rule:nonzero;stroke:none;stroke-width:2.22059" transform="matrix(3.39426 0 0 3.39426 1014.033 -51.556)"/><path d="M0 0h-1.556v-1.004H0v-5.878h1.358V3.5H0Z" style="fill:#00458c;fill-opacity:1;fill-rule:nonzero;stroke:none" transform="matrix(7.53727 0 0 -7.53727 785.518 92.748)"/><path d="M0 0v.483h1.711v1.003H0v1.205h-1.431V1.486H-3.14V.483h1.709V0c0-2.07-.746-3.265-1.997-4.38l.817-.676c.718.518 1.611 1.43 1.896 2.391.28-.939 1.177-1.873 1.896-2.391l.818.676C.746-3.265 0-2.07 0 0" style="fill:#00458c;fill-opacity:1;fill-rule:nonzero;stroke:none" transform="matrix(7.53727 0 0 -7.53727 765.928 85.638)"/><path d="M0 0c.711 0 1.216-.38 1.216-.975S.711-1.946 0-1.946c-.71 0-1.213.376-1.213.971S-.71 0 0 0m-2.698-.975c0-1.208 1.084-1.983 2.698-1.983 1.615 0 2.699.775 2.699 1.983 0 .429-.137.803-.383 1.104h1.489v1.002H.714v.923H-.732v-.923h-3.092V.129h1.511a1.71 1.71 0 0 1-.385-1.104" style="fill:#00458c;fill-opacity:1;fill-rule:nonzero;stroke:none" transform="matrix(7.53727 0 0 -7.53727 1007.12 79.87)"/><path d="M-12.811 48.329H8.69v-2.223h-21.502Z" style="fill:#00458c;fill-opacity:1;fill-rule:nonzero;stroke:none;stroke-width:2.22059" transform="matrix(3.39426 0 0 3.39426 1014.033 -51.556)"/><path d="M0 0c-.893 0-1.472.425-1.472 1.09 0 .662.579 1.088 1.472 1.088.894 0 1.474-.426 1.474-1.088C1.474.425.894 0 0 0m0 3.177c-1.812 0-2.989-.813-2.989-2.087C-2.989-.187-1.812-.999 0-.999c1.813 0 2.989.812 2.989 2.089 0 1.274-1.176 2.087-2.989 2.087" style="fill:#00458c;fill-opacity:1;fill-rule:nonzero;stroke:none" transform="matrix(7.53727 0 0 -7.53727 1007.12 139.444)"/><path d="M0 0c.846 0 1.397-.5 1.397-1.282C1.397-2.067.846-2.57 0-2.57c-.845 0-1.394.503-1.394 1.288C-1.394-.5-.845 0 0 0m0-3.602c1.751 0 2.882.902 2.882 2.32C2.882.134 1.751 1.035 0 1.035c-1.751 0-2.882-.901-2.882-2.317 0-1.418 1.131-2.32 2.882-2.32" style="fill:#00458c;fill-opacity:1;fill-rule:nonzero;stroke:none" transform="matrix(7.53727 0 0 -7.53727 855.58 70.694)"/><path d="M-48.763 47.4h4.16v2.437h-4.16zm-8.671 0h5.46v2.437h-2.777v2.225h12.126c.182 0 .318.142.318.322v5.629h3.213v-6.63c0-.847-.695-1.546-1.546-1.546h-.748V47.4h5.458v-2.225h-21.504zM-15.423 34.743h-3.24v15.835h3.24z" style="fill:#00458c;fill-opacity:1;fill-rule:nonzero;stroke:none;stroke-width:2.22059" transform="matrix(3.39426 0 0 3.39426 1014.033 -51.556)"/><path d="M0 0c.841-1.527 2.57-2.108 2.57-2.108l.547.921C.88-.338.745 2.113.74 2.531h1.941v1.003h-5.364V2.531h1.941c-.004-.418-.136-2.869-2.377-3.718l.548-.921S-.841-1.527 0 0" style="fill:#00458c;fill-opacity:1;fill-rule:nonzero;stroke:none" transform="matrix(7.53727 0 0 -7.53727 920.547 96.183)"/><path d="M0 0v2.386h-1.457V-.45c0-.386.31-.697.696-.697h5.845v1.002H.144A.146.146 0 0 0 0 0" style="fill:#00458c;fill-opacity:1;fill-rule:nonzero;stroke:none" transform="matrix(7.53727 0 0 -7.53727 924.716 134.732)"/><path d="M0 0c-.922 0-1.522.506-1.522 1.298 0 .79.6 1.296 1.522 1.296.924 0 1.524-.506 1.524-1.296C1.524.506.924 0 0 0m0 3.589c-1.809 0-2.982-.891-2.982-2.291C-2.982-.101-1.809-.997 0-.997c1.814 0 2.985.896 2.985 2.295 0 1.4-1.171 2.291-2.985 2.291" style="fill:#00458c;fill-opacity:1;fill-rule:nonzero;stroke:none" transform="matrix(7.53727 0 0 -7.53727 1082.398 139.48)"/><path d="M0 0v.668a.697.697 0 0 1-.697.697h-6.151V.362h5.245c.08 0 .143-.064.143-.145v-.436c0-1.516-.442-2.65-.442-2.65H-3.61v1.926h-1.448v-1.926h-3.226v-1.003h9.685v1.003H-.491C-.496-2.886 0-1.703 0 0" style="fill:#00458c;fill-opacity:1;fill-rule:nonzero;stroke:none" transform="matrix(7.53727 0 0 -7.53727 1108.379 79.155)"/><path d="M0 0v2.479h-1.456v-3.691c-.909-.663-2.605-.874-4.295-.874h-.366a.145.145 0 0 0-.143.145V.922c0 .082.065.146.143.146h3.015v1.001h-3.921a.696.696 0 0 1-.697-.694v-3.768c0-.385.313-.696.697-.696h.77c1.016 0 3.573-.042 4.797.764v-2.327H0v3.65h1.658V0Z" style="fill:#00458c;fill-opacity:1;fill-rule:nonzero;stroke:none" transform="matrix(7.53727 0 0 -7.53727 1183.718 85.055)"/><path d="M0 0v2.473h-1.439V-.45c0-.386.312-.697.697-.697h5.827v1.002H.146A.148.148 0 0 0 0 0" style="fill:#00458c;fill-opacity:1;fill-rule:nonzero;stroke:none" transform="matrix(7.53727 0 0 -7.53727 1147.4 134.732)"/><path d="M-83.688 34.743h-3.227v15.829h3.227z" style="fill:#00458c;fill-opacity:1;fill-rule:nonzero;stroke:none;stroke-width:2.22059" transform="matrix(3.39426 0 0 3.39426 1014.033 -51.556)"/><path d="M0 0v.453a.695.695 0 0 1-.694.695h-6.174V.146h5.272a.144.144 0 0 0 .144-.143V-.35c0-1.299-.38-2.305-.38-2.305h-6.429v-1.003h4.107v-1.629h-2.662v-1.001h5.202a.144.144 0 0 0 .144-.146v-2.834h1.452v3.284a.696.696 0 0 1-.697.697h-1.987v1.629h4.119v1.003H-.425S0-1.515 0 0" style="fill:#00458c;fill-opacity:1;fill-rule:nonzero;stroke:none" transform="matrix(7.53727 0 0 -7.53727 648.357 75.22)"/><path d="M0 0v2.47h-1.454V-.451c0-.385.311-.697.697-.697h-.002 5.996v1.004H.144A.143.143 0 0 0 0 0" style="fill:#00458c;fill-opacity:1;fill-rule:nonzero;stroke:none" transform="matrix(7.53727 0 0 -7.53727 691.856 134.7)"/><path d="M0 0a.144.144 0 0 0-.144-.144h-2.03A.144.144 0 0 0-2.319 0v2.899c0 .08.065.143.145.145h2.03A.146.146 0 0 0 0 2.899Zm1.453-.45v3.8a.697.697 0 0 1-.697.694h-3.83a.695.695 0 0 1-.696-.694v-3.8c0-.385.312-.698.696-.698h3.83a.7.7 0 0 1 .697.698" style="fill:#00458c;fill-opacity:1;fill-rule:nonzero;stroke:none" transform="matrix(7.53727 0 0 -7.53727 695.353 97.968)"/></svg>