<svg xmlns="http://www.w3.org/2000/svg" width="304.18616mm" height="200.86844mm" viewBox="0 0 304.18616 200.86844"><path d="m272.21 159.386.076-.038c3.593-1.554 3.308-6.11 3.302-6.156l-.02-.274-.007-.102-.32.196c-.945.576-1.744 1.396-2.38 2.425a1.003 1.003 0 0 0-.322-.674s-.152-.09-.25-.151c1.565-1.306 1.924-3.144 1.924-4.528 0-1.106-.226-1.92-.23-1.937l-.098-.37-.078.07-.2.191c-1.666 1.565-2.148 3.612-2.285 4.524-2.103-2.065-3.746-1.917-3.926-1.891l-.317.043.146.3c1.336 2.638 3.042 3.493 4.004 3.773l-.067.06c-.16.188-.243.42-.243.664v.01c-1.23-1.16-2.237-1.245-2.281-1.247l-.32-.02.085.32c1.093 3.998 3.62 4.757 3.728 4.786zm-.429-2.888.174.017a.89.89 0 0 0 .396-.128l-.242.57-.328-.46zm-.273-1.34a.5.5 0 0 1 .353-.175.518.518 0 0 1 .374.13.55.55 0 0 1 .17.37.544.544 0 0 1-.13.391.485.485 0 0 1-.352.174.483.483 0 0 1-.372-.131.524.524 0 0 1-.174-.367.536.536 0 0 1 .13-.388zm.265-.728c-.431-.062-2.398-.504-3.948-3.282.6.056 1.928.386 3.502 2.077l.367.395.009-.147.018-.397c.004-.027.177-2.513 1.905-4.387.057.318.128.794.128 1.384 0 1.347-.356 3.162-1.98 4.357zm-2.805.404c.576.186 1.813.794 3.014 2.771l.278.463.038-.144.098-.382c.077-.261.785-2.502 2.734-3.89-.019 1.062-.314 4.03-2.95 5.228-.416-.158-2.254-1.016-3.212-4.046" style="fill:#254aa5;fill-opacity:1;fill-rule:nonzero;stroke:none;stroke-width:.0352777" transform="matrix(2.76662 0 0 2.76662 -538.674 -361.226)"/><path d="m276.072 157.765.02-.377-.093.039-.245.108c-2.072.906-3.187 2.67-3.612 3.484-1.355-2.741-3.024-3.117-3.098-3.132l-.312-.065.044.33c.407 2.924 1.722 4.316 2.535 4.915a.943.943 0 0 0-.458.28.968.968 0 0 0-.214.517c-.678-1.574-1.562-2.133-1.738-2.23l-.303-.146-.034.331c-.435 4.135 1.637 5.811 1.726 5.88l.044.036.096.014c3.896-.058 5.286-4.395 5.298-4.438l.082-.264.03-.094-.363.055c-1.049.164-2.046.588-2.97 1.245.019-.08.049-.164.049-.246a1 1 0 0 0-.283-.685c3.457-1.171 3.789-5.378 3.8-5.557zm-4.875 5.894a.51.51 0 0 1 .354-.182c.137-.007.27.04.373.133a.554.554 0 0 1 .046.76.514.514 0 0 1-.36.177.502.502 0 0 1-.368-.131.55.55 0 0 1-.045-.757zm-1.895-5.175c.547.263 1.694 1.034 2.629 3.163l.22.49.054-.135.146-.363c.107-.243 1.078-2.36 3.21-3.482-.161 1.051-.851 3.956-3.593 4.777-.389-.208-2.103-1.3-2.666-4.45zm1.651 6.288a.935.935 0 0 0 .633.241l-.452.454-.18-.695zm.24 1.342c.013-.02 1.51-1.987 3.945-2.55-.408.977-1.77 3.614-4.627 3.707-.216-.2-1.54-1.535-1.54-4.382 0-.196.01-.403.024-.613.465.395 1.392 1.435 1.786 3.738l.097.535.314-.435M257.21 179.72c1.38-1.715 1.6-3.077 1.6-3.755a2.33 2.33 0 0 0-.031-.412c0-.006-.07-.336-.07-.336l-.278.178c-2.44 1.54-3.156 3.328-3.367 4.33a.946.946 0 0 0-.881-.187c1.034-1.344 1.092-2.408 1.092-2.592l-.013-.359-.303.125c-2.768 1.123-3.75 2.882-4.083 3.762v-1.96h-3.034v1.706c-.364-.913-1.34-2.549-3.862-3.688l-.298-.13-.024.328-.001.08c0 .296.095 1.3 1.006 2.584-.309-.1-.64-.064-.894.151-.179-1.011-.835-2.836-3.21-4.46l-.269-.189-.022.088-.06.239c0 .006-.047.187-.047.515 0 .694.21 2.036 1.463 3.713-.896.05-2.921.334-4.6 1.878l-.272.252.336.142c.16.064 3.883 1.513 6.39-1.047l.148.284a.92.92 0 0 0 .454.302c-1.026.51-1.883 1.197-2.54 2.054l-.224.292.357.08c.443.086 4.21.71 6.17-2.255v2.141h3.033v-2.188c1.844 3.127 5.685 2.37 6.126 2.271l.365-.07-.214-.3c-.68-.954-1.526-1.387-2.275-1.765l-.18-.095a.925.925 0 0 0 .46-.28c.065-.07.107-.172.15-.274 2.47 2.725 6.31 1.3 6.35 1.286l.25-.09.094-.033-.266-.263c-1.617-1.604-3.634-1.97-4.526-2.053zm-.644.05-.354.394.527-.004c.1 0 2.463.028 4.37 1.676-.998.262-3.857.758-5.674-1.526.033-.448.333-2.512 2.91-4.288-.021.627-.26 2.024-1.779 3.747zm-2.108 1.249a.51.51 0 0 1-.373-.13.549.549 0 0 1-.041-.758.492.492 0 0 1 .351-.18.516.516 0 0 1 .373.132.554.554 0 0 1 .046.76.515.515 0 0 1-.356.176zm-.98-.688c-.006.05-.025.1-.025.147 0 .022 0 .046.004.066.006.143.07.269.132.39-.142-.046-.43-.14-.558-.18l.448-.423zm-.983.768c.265.066 2.574.668 4.015 2.143-1.044.102-3.922.33-5.324-2.227.112-.436.771-2.42 3.582-3.7-.125.611-.59 1.944-2.376 3.37l-.413.336zm-6.095-.49c-1.738-1.505-2.151-2.853-2.248-3.47 2.784 1.407 3.35 3.405 3.442 3.845-1.497 2.514-4.398 2.424-5.425 2.303 1.556-1.764 3.687-2.2 4.106-2.268.009-.003.527-.065.527-.065zm-2.425.057a.539.539 0 0 1-.115-.335c0-.018.003-.038.003-.059a.55.55 0 0 1 .185-.363.524.524 0 0 1 .38-.115.5.5 0 0 1 .346.19c.088.12.13.254.115.394a.568.568 0 0 1-.187.363.493.493 0 0 1-.378.115.5.5 0 0 1-.35-.19zm1.345-.462.441.447c-.13.036-.42.116-.565.159.067-.124.138-.248.15-.384 0 0-.012-.115-.026-.222zm2.98 2.899v-4.12h2.117v4.12h-2.118zm-6.226-3.194.526.029-.089-.11-.25-.299c-1.442-1.765-1.64-3.164-1.64-3.799v-.018c2.508 1.878 2.735 3.953 2.752 4.399-1.907 2.221-4.742 1.609-5.725 1.306 1.892-1.513 4.17-1.513 4.426-1.508M227.296 158.516v-.002l.072.04.08-.022c.107-.024 2.658-.668 3.898-4.643l.102-.315-.326.011c-.01 0-1.033.027-2.324 1.16l.001-.046a1.03 1.03 0 0 0-.217-.636l-.067-.068c.972-.241 2.709-1.026 4.138-3.618l.162-.286-.318-.063c-.182-.031-1.818-.243-3.996 1.742-.102-.916-.511-2.98-2.119-4.612l-.264-.267-.032.098-.083.26a8.096 8.096 0 0 0-.304 2.223c0 1.344.349 3.04 1.763 4.31l-.256.14c-.195.169-.315.403-.346.66-.598-1.05-1.364-1.902-2.292-2.516l-.314-.207-.04.379c-.004.042-.448 4.586 3.082 6.278zm.437-2.816.165-.014c-.096.127-.26.34-.34.448-.049-.124-.147-.387-.222-.584a.94.94 0 0 0 .396.15h.005zm.25-2.08c-1.473-1.18-1.823-2.85-1.823-4.157 0-.705.1-1.292.18-1.658 1.57 1.837 1.734 4.19 1.747 4.455l.007.548.38-.377c1.63-1.631 2.972-1.908 3.571-1.942-1.64 2.708-3.627 3.082-4.062 3.13zm-.107.548a.496.496 0 0 1 .348.194.544.544 0 0 1-.07.75.52.52 0 0 1-.379.12.513.513 0 0 1-.35-.195.551.551 0 0 1-.114-.338c0-.017 0-.036.002-.054a.564.564 0 0 1 .186-.361.503.503 0 0 1 .377-.116zm-3.225-1.37.001-.09c2.004 1.542 2.592 3.97 2.596 3.995l.118.534.294-.456c1.273-1.927 2.532-2.489 3.113-2.656-1.065 2.99-2.935 3.784-3.354 3.926-2.5-1.256-2.768-4.107-2.768-5.254" style="fill:#254aa5;fill-opacity:1;fill-rule:nonzero;stroke:none;stroke-width:.0352777" transform="matrix(2.76662 0 0 2.76662 -538.674 -361.226)"/><path d="M228.844 166.975h-.003l.077.01.066-.047c.094-.066 2.226-1.659 1.937-5.813l-.02-.33-.297.133c-.01.005-1.02.46-1.822 2.16a1.03 1.03 0 0 0-.2-.525.951.951 0 0 0-.452-.298c.836-.567 2.205-1.906 2.712-4.814l.06-.322-.319.05c-.07.01-1.737.295-3.206 3.008-.392-.828-1.435-2.63-3.483-3.622l-.334-.16.002.101.005.277c0 .043.102 4.366 3.591 5.703a1.006 1.006 0 0 0-.308.713c0 .068.025.133.04.199-.91-.689-1.888-1.147-2.917-1.349l-.362-.075.1.367c.011.044 1.253 4.43 5.133 4.634zm-4.55-4.36c2.401.652 3.788 2.616 3.848 2.701 0 .002.302.448.302.448l.028-.144.08-.392c.482-2.286 1.448-3.29 1.929-3.663.001.093.004.19.004.28 0 3.069-1.47 4.456-1.703 4.655-2.852-.204-4.117-2.892-4.488-3.885zm3.5 1.588a.913.913 0 0 0 .635-.218l-.208.687-.427-.47zm-3.733-7.011c2.197 1.26 3.075 3.584 3.081 3.606.002.002.189.51.189.51l.233-.486c1.017-2.098 2.189-2.819 2.745-3.057-.681 3.122-2.431 4.15-2.83 4.345-2.71-.928-3.294-3.86-3.418-4.918zm4.091 6.422a.499.499 0 0 1-.725-.071.547.547 0 0 1-.116-.339.566.566 0 0 1 .19-.42.48.48 0 0 1 .374-.112c.14.01.262.078.348.19a.55.55 0 0 1 .117.391.537.537 0 0 1-.188.36" style="fill:#254aa5;fill-opacity:1;fill-rule:nonzero;stroke:none;stroke-width:.0352777" transform="matrix(2.76662 0 0 2.76662 -538.674 -361.226)"/><path d="M269.61 169.088c-.186-3.151-1.614-4.14-1.628-4.15l-.189-.137-.073-.051-.085.32a9.516 9.516 0 0 0-.34 2.438c0 1.458.4 2.457.732 3.044h-.01a.94.94 0 0 0-.667.335s-.02.03-.03.048c-.17-1.785-.921-2.55-.93-2.558l-.157-.16-.06-.062-.145.279c-.713 1.393-.939 2.558-.939 3.473 0 .45.06.823.14 1.151a819.026 819.026 0 0 1-1.436-1.5h.5v-3.198h-.968v-7.47h.967v-3.578h-.967v-1.865l-1.595-1.26-3.342-.01 5.439-5.458 1.037 1.069 1.19-1.232c2.42 2.772 5.022 2.426 5.047 2.422 2.723-2.922.705-6.988.683-7.027l-.173-.335-.216.308c-.633.905-1.044 1.964-1.232 3.145-.058-.125-.108-.257-.211-.348a.898.898 0 0 0-.518-.225c.444-.79.67-1.66.67-2.601 0-.442-.054-.903-.152-1.376l.93-.926.884.909 1.29-1.281s-.449-.464-.648-.672a2.64 2.64 0 0 0 2.782-.722c.442-.551.545-1.203.545-1.695 0-.421-.075-.718-.08-.737-.38-2.078-3.07-2.501-3.182-2.518-3.026-.663-3.468-2.469-3.471-2.485l-.12-.007-.067.234a3.49 3.49 0 0 0-.067.663c0 .435.121.823.305 1.185-.788-.738-1.328-1.838-1.392-1.971l-.088-.185-.03.198-.083.564a6.514 6.514 0 0 0-.013.362c0 .994.266 1.732.833 2.364.984 1.09 2.43 1.148 2.592 1.151a4.45 4.45 0 0 1 1.157.347c-.665-.024-1.14.486-1.145.492-.189.28-.276.561-.276.859l.002.052-2.226-2.295-1.29 1.285s1.085 1.12 1.166 1.2c-.075.075-.847.834-.965.952-.533-1.923-1.866-3.208-1.88-3.22l-.194-.19-.074-.07-.104.368c-.188.649-.28 1.32-.28 2.009 0 .46.059.93.142 1.402-.176-.211-.407-.362-.68-.37a.869.869 0 0 0-.404.098 5.32 5.32 0 0 0 .185-1.355c0-2.756-2.204-4.688-2.497-4.929-.004-.005-.296-.238-.296-.238l-.07.374c-.097.485-.14.955-.14 1.406 0 1.672.558 3.009.882 3.649-1.006-.135-1.811-.091-2.44.035.845-.342 1.308-.772 1.392-.858l.041-.045c.016-.032.023-.092.023-.092.023-.207.034-.409.034-.607 0-3.614-3.602-5.356-3.64-5.374l-.335-.154.012.375c.027 1.133.351 2.287.916 3.36a.914.914 0 0 0-.487-.182c-.3-.008-.57.14-.759.37-.409-3.422-3.863-4.75-4.263-4.89l-.362-.114.058.374c.183 1.209.681 2.357 1.467 3.412-.44-.056-1.216-.068-2.224.254a1.206 1.206 0 0 0-.272-.495 1.133 1.133 0 0 0-.826-.355c-.5 0-.94.342-1.101.829-.947-.335-1.692-.369-2.194-.326.588-.724 1.31-1.859 1.596-3.356l.069-.371-.098.027-.259.074c-.034.008-3.874 1.131-4.447 4.692-.025-.035-.055-.073-.055-.073a.951.951 0 0 0-.69-.293.932.932 0 0 0-.486.157c.453-.782.945-1.917 1.031-3.317l.023-.376-.339.143c-.04.015-3.834 1.712-3.834 5.432 0 .132.002.265.013.4l.004.062c.018.038.057.08.057.08.072.078.521.538 1.367.917-.626-.153-1.431-.233-2.444-.135.365-.662 1.019-2.09 1.019-3.89 0-.364-.03-.743-.09-1.134l-.061-.373-.302.222c-.125.093-2.679 2.062-2.679 5.026 0 .374.047.765.139 1.17-.127-.063-.258-.121-.4-.121-.268 0-.5.137-.683.335a8.01 8.01 0 0 0 .187-1.66c0-.592-.07-1.176-.211-1.746l-.095-.37-.277.256c-.004.002-1.148 1.027-1.81 2.62-.123-.125-4.077-4.23-4.077-4.23a2.812 2.812 0 0 0-2.014-.87c-.76-.002-1.475.303-2.017.86a2.974 2.974 0 0 0-.844 2.074 3 3 0 0 0 .83 2.084l5.018 5.21c.033.67.227 1.337.547 1.959a.952.952 0 0 0-.532.204c-.107.094-.16.221-.22.342-.147-1.188-.52-2.261-1.12-3.19l-.207-.317-.183.327c-.223.425-2.074 4.157.392 7.028l.038.046.015.017.08.014c.021.006 2.477.499 5.108-2.356.084.087 5.86 6.087 6.048 6.284-.25.005-2.24.032-2.24.032-.039.014-1.565 1.223-1.565 1.223l-.023.016v1.864h-1.154v3.578h1.154v7.277h-1.154v2.393c-.011 0-.211.294-.211.294l-.755.78c.002-.069.006-.136.006-.202 0-1.148-.293-2.355-.873-3.595 0-.003-.143-.301-.143-.301l-.227.235c-.033.034-.788.86-.918 2.715-.03-.066-.049-.144-.092-.2a.964.964 0 0 0-.659-.363h-.063c.387-.618.873-1.711.873-3.35 0-.642-.073-1.36-.254-2.163l-.074-.324-.275.178c-.014.01-1.475.985-1.771 4.084-.68-.6-2.333-1.821-4.6-1.886l-.365-.012.15.343c.017.039 1.776 3.886 5.387 3.764l-.077.264a1.007 1.007 0 0 0 .18.672c-1.087-.298-2.161-.358-3.2-.15l-.36.073.219.299c.2.26 1.969 2.453 4.535 2.61-.119.119-.412.422-.412.422a5.942 5.942 0 0 0-1.355.304l-.345.124.258.266c.005.009.163.161.417.365-.087.094-3.799 3.966-3.799 3.966-.28.295-.42.63-.42.965 0 .337.145.676.433.968l.148.157c.252.255.584.395.937.395.356-.003.69-.146.943-.41.002 0 4.188-4.367 4.436-4.626 1.113.301 2.194.226 3.215-.206.016.204.08.394.207.55.078.107.205.163.324.228-1.137.122-2.171.47-3.073 1.048l-.308.198.308.2c.4.246 3.942 2.29 6.821-.18-.002 0 .042-.035.042-.035.022-.034.035-.095.035-.095.002-.008.048-.225.048-.603 0-.853-.248-2.52-1.8-4.336h7.127c.144 0 1.423.036 1.938 1.22l.064.136h3.486l.06-.136c.52-1.184 1.793-1.22 1.935-1.22h7.714c-2.072 2.009-2.343 3.954-2.343 4.808a2.887 2.887 0 0 0 .038.51l.005.021.06.051c2.923 2.706 6.773.466 6.81.44l.31-.184-.299-.207c-.875-.61-1.92-1.008-3.03-1.166.118-.06.244-.113.335-.217a1 1 0 0 0 .225-.584c1.125.59 2.365.711 3.687.35.048.048 3.33 3.476 3.33 3.476.025.017 4.404 1.47 4.404 1.47l.061-.102-.533-.502s-4.617-4.831-5.105-5.344l.558-.403.207-.173.074-.065-.337-.153a6.478 6.478 0 0 0-1.772-.51c0-.015-.579-.622-.831-.888 3.173.657 5.41-2.038 5.43-2.066l.184-.225.066-.083-.389-.068c-1.031-.181-2.113-.158-3.215.05l.012-.012c.158-.184.244-.417.244-.661l-.001-.063-.05-.215c3.588.231 5.459-3.524 5.476-3.562 0 .003.118-.243.118-.243l.044-.089h-.365c-2.254-.024-3.962 1.135-4.666 1.707zm-1.454 7.03.596.181-.255.178-.341-.36zm-36.635-9.594c0 2.177-.91 3.344-1.077 3.54-2.857.271-4.511-2.176-5.026-3.092 2.483.25 4.198 2.013 4.215 2.03l.366.39.007-.143.022-.398c.12-2.332.915-3.483 1.332-3.935.11.584.16 1.123.16 1.608zm-.183 5.331c.13-.037.26-.07.36-.157a.946.946 0 0 0 .224-.287l.056.748c-.131-.061-.485-.23-.64-.304zm.066-.517a.481.481 0 0 1-.373.115.497.497 0 0 1-.346-.19.551.551 0 0 1 .07-.758.498.498 0 0 1 .379-.112.501.501 0 0 1 .346.19c.089.111.13.248.114.393a.543.543 0 0 1-.19.362zm3.936 4.521-.117-.377c-.29-.96-.39-1.76-.39-2.407 0-.876.18-1.455.309-1.766.879 1.483 1.107 2.77 1.107 3.693 0 .806-.168 1.324-.22 1.463-2.573 1.282-4.963-.405-5.763-1.08 2.432-.673 4.616.365 4.637.376l.48.234zm-2.792-2.912-.064-.39a9.497 9.497 0 0 1-.126-1.496c0-1.409.367-2.24.605-2.64.495 1.182.663 2.2.663 3.013 0 1.214-.35 1.978-.475 2.213-2.722.9-4.865-1.118-5.565-1.898 2.508-.317 4.526 1.023 4.544 1.038l.442.303zm.907 1.096.043-.074c.002-.002.37-.565.528-1.624.004.007.288-.282.466-.466a5.249 5.249 0 0 0-.122 1.155c0 .58.085 1.296.3 2.126a7.822 7.822 0 0 0-2.885-.481l.338-.353c.425-.033.847-.119 1.257-.261zm2.75-2.737v1.171a9.298 9.298 0 0 0-.539-1.171h.538zm-.697-.472v-2.198h.696v2.198h-.696zm0-10.413v-2.642h.696v2.642h-.696zm-3.277 16.64c-.123.13-4.27 4.462-4.27 4.462a.85.85 0 0 1-1.225.005l-.19-.16a.849.849 0 0 1-.237-.6c0-.236.089-.478.268-.667l3.842-4.008c.41.3 1.042.69 1.812.968zm6.376 1.27c.005 0 .516.112.516.112l-.264-.463c-.844-1.485-1.043-2.643-1.043-3.408 0-.236.02-.42.045-.582h.065c1.714 1.842 1.955 3.558 1.955 4.368 0 .183-.01.314-.024.395-2.235 1.85-4.931.754-5.852.286 2.227-1.221 4.578-.716 4.602-.708zm-.971-2.049a.94.94 0 0 0-1.008-.298c.048-.26.092-.587.092-.994 0-.297-.03-.636-.087-1h.76c-.021.159-.042.34-.042.568 0 .444.08 1.033.285 1.724zm-.182 1.462.062-.037c.2-.17.327-.41.352-.677 0-.02 0-.036.003-.056.105.263.228.536.375.823a7.123 7.123 0 0 0-.791-.053zm-.503-1.343a.503.503 0 0 1 .346.19c.09.114.128.255.113.395a.533.533 0 0 1-.186.36.503.503 0 0 1-.376.116.497.497 0 0 1-.351-.192.555.555 0 0 1-.112-.39l.051-.191c.002 0 .133-.173.133-.173a.5.5 0 0 1 .382-.115zm36.138-37.914.247.605.125-.673a.67.67 0 0 0 .008-.114c0-.406-.23-1.463-2.545-1.823-.045 0-1.43-.025-2.309-1.003-.367-.41-.569-.951-.657-1.578.516.722 1.42 1.516 2.555 1.669l.002.002v-.002l.014.005.03-.12c-.012-.003-1.104-.54-1.307-1.782.446.579 1.34 1.268 3.138 1.663.261.046 2.513.493 2.82 2.157.019.09.062.328.062.629 0 .42-.085.965-.436 1.405-.008.012-.842 1.093-2.345.59-.38-.078-.634-.261-.984-.517l-.058-.04c-.154-.17-.647-.797-.214-1.47-.004.008.373-.38.852-.322.396.053.7.191 1.003.718zm-9.764 21.934v-2.642h.511v2.642h-.511zm6.943 20.49c0-.012-6.756-7.06-6.94-7.254l-.003-.389v-1.527l2.352 2.458.075.106.017.029a.357.357 0 0 0 .079.041l7.104 7.427-2.684-.89zm-3.148-7.697c.02-.011 1.954-.9 4.367-.629-.694.683-2.755 2.368-5.396 1.38 0-.005-.054-.061-.054-.061-.152-.264-.48-.944-.48-2.004 0-.77.181-1.743.715-2.894.241.395.624 1.23.624 2.647 0 .395-.03.83-.1 1.313l-.061.432zm-3.795-2.113v-2.272h.511v2.262c-.088 0-.419.01-.511.01zm2.96 6.316c-1.219.265-2.35.097-3.36-.52-.031-.099-.127-.472-.127-1.057 0-.47.075-1.078.286-1.768.132.138.961 1 1.006 1.049l-.476 1.364.123-.046c.008-.004.696-.27 1.244-.384l1.305 1.362zm-1.896-1.705c.024-.08.044-.132.067-.208.051.057.088.095.146.152l-.213.056zm-2.013.759a.88.88 0 0 0-.416-.088.91.91 0 0 0-.656.326c.255-.757.353-1.397.353-1.868a3.4 3.4 0 0 0-.099-.851h1.067a6.398 6.398 0 0 0-.294 1.846c0 .247.021.45.045.635zm-.945 1.702a7.207 7.207 0 0 0-.788.021c.157-.283.29-.552.403-.81 0 .276.111.551.327.752l.058.037zm-.272-3.819c.018.124.032.277.032.469 0 .746-.203 1.967-1.17 3.534l-.28.455.517-.102c.256-.04 2.502-.352 4.578.89-.94.432-3.673 1.42-5.837-.516a2.429 2.429 0 0 1-.014-.274c0-.756.24-2.562 2.174-4.456zm.894 3.562a.509.509 0 0 1-.375-.134.548.548 0 0 1-.043-.755.487.487 0 0 1 .352-.176.479.479 0 0 1 .375.128.546.546 0 0 1 .045.756.5.5 0 0 1-.354.18zm-23.77-29.476 2.585 2.656-3.162-.004-2.557-2.657 3.134.005zm-4.656-.85c-2.143 2.307-4.161 2.248-4.594 2.203-.83-1.003-1.096-2.123-1.096-3.144 0-1.262.397-2.345.631-2.882.74 1.338.905 2.75.905 3.676a6.36 6.36 0 0 1-.073 1.048l-.093.532.443-.288c1.936-1.263 3.308-1.235 3.877-1.145zm-3.201-7.212.208.212c-.256.607-.547 1.52-.589 2.54-.169-.178-2.516-2.617-2.703-2.81.27.005 3.036.056 3.084.058zm-.464-.48-3.077-.055a945.466 945.466 0 0 1-1.511-1.567 2.493 2.493 0 0 1-.694-1.738v-.01c0-.555.194-1.086.522-1.512.109.11 4.56 4.68 4.76 4.882zm7.858-1.395-.297.436.518-.075c2.261-.32 3.493.277 3.992.612-2.877 1.193-4.692.274-5.068.048a4.774 4.774 0 0 1-.182-1.298c0-2.183 1.516-3.8 2.167-4.395.018.208.034.41.034.611 0 2.286-1.15 4.04-1.164 4.06zm-6.147 8.261c0-.056-.012-.113-.02-.168.33.03.681.018 1.052-.037.03.033.355.371.494.516-.413-.006-1.017.06-1.766.313.142-.181.24-.39.24-.624zm-1.298-.415a.487.487 0 0 1 .524-.075c.001.007.02.04.02.04l.076.112.033.046a.36.36 0 0 0 .088.04.154.154 0 0 0 .037.012.54.54 0 0 1-.126.654.507.507 0 0 1-.727-.075.55.55 0 0 1 .073-.754zm-3.295-12.286c.64.004 1.24.264 1.689.728 0 0 3.977 4.129 4.226 4.384a5.544 5.544 0 0 0-.282 1.718c0 .46.073.917.193 1.366l-.536-.553a6.944 6.944 0 0 0-.722-2.286l-.178-.335-.214.31a6.309 6.309 0 0 0-.416.74l-.193-.196c-.01-.01-4.611-4.735-5.13-5.266.437-.389.987-.61 1.563-.61zm7.77 7.212a9.04 9.04 0 0 0 .284-.76c.044.167.113.328.232.456.086.086.186.15.295.2-.26.02-.524.05-.812.104zm1.21-1.547c.138 0 .267.054.364.152a.546.546 0 0 1 .151.383.526.526 0 0 1-.516.532.51.51 0 0 1-.365-.157.53.53 0 0 1-.15-.375c0-.149.05-.28.15-.383a.511.511 0 0 1 .365-.152zm-3.603 2.733 1.431 1.469a8.454 8.454 0 0 0-1.54.548c.058-.333.128-.856.128-1.505 0-.161-.01-.336-.02-.512zm4.484 1.724-.276-.152c-.032-.018-.812-.423-2.232-.21-.03-.033-.393-.406-.6-.616.611.183 1.664.352 3.052.004.013.014.045.047.061.067v3.124l-1.17-1.2c.305-.224.61-.478.937-.79zm-2.688-2.722c-.006.008-.265.476-.265.476l.51-.122c2.224-.524 3.505-.042 4.03.25-2.761 1.439-4.649.695-5.045.505a4.758 4.758 0 0 1-.31-1.68c0-1.986 1.24-3.553 1.808-4.164.072.405.114.805.114 1.184a8.22 8.22 0 0 1-.842 3.55zm-2.82-1.433c.46 1.05.597 2.104.597 2.954 0 1.072-.204 1.818-.21 1.833l-.137.521.463-.243c2.047-1.063 3.397-.91 3.971-.756-2.222 1.97-4.156 1.843-4.708 1.754a2.881 2.881 0 0 0-.177-.167 4.72 4.72 0 0 1-.726-2.557c0-1.49.605-2.765.927-3.339zm-1.53 8.071c.007-.134.016-.484.024-.727a.968.968 0 0 0 .64.378l-.663.35zm5.492-2.63 2.428 2.499-3.126-.007-1.46-1.516a6.857 6.857 0 0 0 2.158-.975zm4.098.572-.04 2.931c-.189-.19-2.035-2.074-2.07-2.106.002-.048.02-2.827.021-3.11.19.206 2.06 2.253 2.09 2.285zm10.727-11.782c.19 0 .368.074.5.211a.75.75 0 0 1 .19.358v.002l.008.261a.713.713 0 0 1-.698.643.69.69 0 0 1-.505-.218.706.706 0 0 1-.197-.422s.01-.24.01-.267a.77.77 0 0 1 .188-.357.695.695 0 0 1 .504-.211zm15.48 7.157a8.25 8.25 0 0 1-.467-2.691c0-.46.048-.95.157-1.447.406.47 1.213 1.536 1.526 2.931-.048.05-1.092 1.082-1.216 1.207zm-1.159-.254a.506.506 0 0 1-.732-.028.56.56 0 0 1-.137-.365v-.02a.547.547 0 0 1 .165-.371.502.502 0 0 1 .37-.144c.284.012.508.26.5.554a.55.55 0 0 1-.166.374zm.352 1.048c-.147.145-1.084 1.066-1.13 1.114-.699-.158-1.407-.448-2.104-.845.448-.228 1.496-.587 3.234-.269zm-.34-.516a.925.925 0 0 0 .296-.192.964.964 0 0 0 .255-.447c.08.243.215.66.231.716-.016.019-.026.027-.042.044-.267-.062-.503-.09-.74-.12zm-1.852-2.42-.208-.333c-.12-.204-1.023-1.8-1.023-3.848 0-.277.028-.565.063-.856.615.598 2.011 2.189 2.011 4.286 0 .47-.074.965-.238 1.477-.381.211-2.228 1.052-5.061-.245.513-.317 1.773-.869 4.016-.456l.515.094zm-.867 4.705c.088.087 3.95 4.064 4.03 4.146-.076.076-.886.918-.965.997-.085-.088-3.943-4.068-4.024-4.15.074-.076.883-.911.96-.993zm-13.88 30.892c-.712-1.381-2.271-1.352-2.287-1.35h-9.005v-17.846c.041-.032.839-.66 1-.79v17.837h9.472c.014 0 1.574.058 2.014.803l.213.353.187-.365c.412-.8 1.939-.79 2.004-.79h10.31v-17.839c.165.128.964.759 1.006.791v17.845h-9.714c-.01-.001-1.567-.033-2.279 1.351h-2.921zm-1.326-39.37c0 .012-.468-.13-.674-.194l.505-.48c.218-.05 1.097-.216 2.344.187-.395.196-1.102.46-2.175.488zm-1.299-.278-.432.306.512.117c2.215.51 3.184 1.516 3.542 2.01-3.166.078-4.573-1.535-4.767-1.778.21-2.947 2.816-4.24 3.78-4.618-.654 2.517-2.615 3.949-2.635 3.963zm4.045 2.894.323-.025-.128-.302c-.003-.01-.438-1.06-2.09-1.898.759-.111 1.308-.33 1.649-.512.059.176.137.34.26.467a1.14 1.14 0 0 0 1.658 0c.12-.12.2-.285.26-.46.331.194.868.432 1.628.577-1.585.73-2.103 1.701-2.158 1.812-.001.005-.134.302-.134.302l.317.033c3.317.352 4.991-1.06 5.496-1.592.043.146.096.29.193.4a.996.996 0 0 0 .395.249c-1.65.55-2.21 1.457-2.214 1.467 0 0-.005.004-.007.01h-9.24a12.867 12.867 0 0 0-.091-.162c-.153-.243-.754-1.009-2.169-1.545a.923.923 0 0 0 .41-.235.997.997 0 0 0 .21-.39c.485.55 2.11 2.027 5.432 1.805zm2.03-.45c.37-.482 1.37-1.445 3.61-1.87l.51-.098-.414-.32c-.08-.062-1.941-1.573-2.492-4.062.948.415 3.507 1.802 3.61 4.762-.2.235-1.668 1.789-4.824 1.588zm.238-2.633c1.296-.366 2.173-.142 2.363-.082.02.024.364.374.474.488l-.7.188c-1.04-.086-1.744-.381-2.137-.593zm5.741.667a.54.54 0 0 1 .33.929.519.519 0 0 1-.368.142.514.514 0 0 1-.359-.172.556.556 0 0 1-.137-.383.527.527 0 0 1 .534-.516zm-14.016 3.412h12.22l.114.019.064.013v12.912c0 3.429-2.781 6.22-6.199 6.22a6.152 6.152 0 0 1-4.447-1.884 6.213 6.213 0 0 1-1.752-4.336v-12.945zm12.51 15.06a6.709 6.709 0 0 0 .346-2.116v-1.074l.03-.032s4.822-4.892 4.908-4.983c.082.086 2.26 2.334 2.342 2.416-.084.084-5.734 5.754-5.77 5.788h-1.855zm4.574-16.5c-.283.256-1.668 1.358-4.284 1.052l-.707-.118c.43-.429 1.542-1.252 3.817-1.374l.522-.03-.373-.371c-.184-.196-1.732-1.922-1.958-4.362.845.511 3.006 2.084 3.006 4.744a4.7 4.7 0 0 1-.023.459zm-2.127-1.517c.178.27.34.494.47.653-.14.021-.507.074-.725.103.159-.175.26-.393.27-.637v-.039c0-.026-.014-.053-.015-.08zm-15.282.373a.494.494 0 0 1-.363-.158.517.517 0 0 1-.152-.377.524.524 0 0 1 .515-.533.497.497 0 0 1 .365.155.55.55 0 0 1 .151.378c0 .295-.23.535-.516.535zm-.73.113-.718-.129c.134-.155.31-.378.505-.65-.007.045-.03.086-.03.13 0 .244.09.468.242.65zm-1.353-.132-.388.359.524.048c2.26.207 3.346 1.075 3.765 1.522-3.067.493-4.635-.818-4.953-1.127a5.357 5.357 0 0 1-.008-.282c0-2.778 2.297-4.317 3.177-4.806-.333 2.587-2.099 4.27-2.117 4.286zm20.45 35.744h-9.85c-.225-.003-1.3.032-1.984.563v-14.07a6.586 6.586 0 0 0 4.762-2.025 6.584 6.584 0 0 0 1.365-2.078h5.707v17.61zm-12.291.598c-.692-.507-1.758-.59-1.973-.598h-9.024v-17.61h5.307a6.62 6.62 0 0 0 5.69 4.08v14.128zm-7.844-21.345 1.728 1.776.006-.057c.06.332.146.647.244.946h-2.575l-2.519-2.615c.258-.004 3.066-.048 3.116-.05zm1.659 1.039-3.081-3.162.052.043.045-3.043 2.956 3.071v2.602l.028.489zm24.531-7.564c.065-.063.155-.15.239-.236l.043.377-.282-.141zm1.265 3.219-.005-.002v-.002s.005.002.005.004zm-.184-.133c-1.227-.466-2.097-.397-2.449-.329-.04-.04-.62-.637-.692-.714l.357-.355c1.155.563 2.1.625 2.605.6-.013.095-.032.266-.032.266a.995.995 0 0 0 .21.532zm1.148-.24a.505.505 0 0 1-.726.048.56.56 0 0 1-.176-.371v-.026c0-.098.027-.19.075-.274.008.005.054-.007.054-.007-.022.007.037-.006.037-.006.033-.022.066-.065.066-.065l.086-.117s.027-.041.03-.048c.003.011.138-.025.138-.025a.501.501 0 0 1 .369.135.545.545 0 0 1 .047.756zm-.871-1.22c-.027.024-.176.142-.212.171-.358.042-1.29.072-2.487-.466l.985-.977.83.414.46.265-.125-.523a7.212 7.212 0 0 1-.136-1.176c.037-.036 1.254-1.247 1.417-1.407.052.333.09.66.09.978 0 1.001-.275 1.916-.822 2.722zm1.218 1.53s.015-.021.018-.028c-.002.24-.003.596-.003.732l-.661-.384a.946.946 0 0 0 .646-.318l.001-.004zm.562 1.51-.059-.392c0-.008-.04-.292-.04-.747 0-.904.165-2.487 1.045-3.95.203.514.53 1.517.53 2.685 0 1.081-.286 2.284-1.218 3.324-.436.028-2.44.004-4.48-2.348a.768.768 0 0 1 .045-.047c.656-.056 1.98.048 3.76 1.31l.435.305zm-.047-8.39-5.473 5.434-1.992-2.052c.086-.084 5.405-5.333 5.49-5.42l.711.728 1.264 1.31zm-2.175-4.198 4.025 4.15c-.072.072-.56.555-.634.63l-.599-.62-.12-.129-1.443-1.474s-1.784-1.841-1.863-1.925c.07-.07.56-.56.634-.632zm-1.088 35.58.04-.47c.053.066.103.134.103.134.097.09.227.124.351.164-.155.056-.384.133-.494.171zm1.128-1.492a.534.534 0 0 1 .176.372.513.513 0 0 1-.13.38.512.512 0 0 1-.354.185.512.512 0 0 1-.37-.131.544.544 0 0 1-.177-.37.531.531 0 0 1 .128-.388l.003-.001a.5.5 0 0 1 .724-.046zm5.437-3.279c-.553.897-2.311 3.278-5.14 2.904-.216-.274-.957-1.361-.957-3.29 0-.558.07-1.194.227-1.895.4.468 1.156 1.651 1.19 3.985l.011.542.38-.378c.197-.183 1.927-1.72 4.29-1.868zm-16.235-28.24-.168.169-.061.059.29.148c2.8 1.431 4.763.895 5.57.542l-.039.182v.04c0 .253.09.494.26.682.068.079.17.11.262.16-1.802-.04-2.657.659-2.692.69l-.244.207.271.172a8.643 8.643 0 0 0 2.302 1.03l-.608.596-.968-.995-1.604 1.66.644.666-4.614 4.68v-11.117a7.145 7.145 0 0 0 2.27-.102c-.587.25-.865.524-.87.53zm-14.717-.634v9.79l-5.52-5.724a9.156 9.156 0 0 0 1.719-.77l.278-.164-.239-.217c-.032-.032-.845-.76-2.666-.788.094-.048.198-.076.273-.153.183-.187.284-.439.284-.708l-.03-.188c.787.385 2.722 1.002 5.586-.325l.29-.14-.219-.235c-.06-.06-.334-.322-.864-.57.335.088.697.16 1.108.192" style="fill:#254aa5;fill-opacity:1;fill-rule:nonzero;stroke:none;stroke-width:.0352777" transform="matrix(2.76662 0 0 2.76662 -538.674 -361.226)"/><path d="m248.331 148.617-4.323 4.243 1.805 1.908s2.432-2.39 2.518-2.47c.086.08 2.553 2.508 2.553 2.508l2.867-.017v-6.129h1.124v-2.433h-1.124v-.411h1.124v-2.427h-1.124l-.008-3.106h-6.356v2.43h3.928v8.834l-2.984-2.93M256.649 160.218v-1.175h-.807v3.633h-.711v-3.25c0-.227-.143-.346-.33-.346h-2.43v.71h1.96v2.886h-.677v-1.911h-.808v1.911h-.651v.708h3.647v.982h.807v-3.42h.753v-.728h-.753M242.886 165.618v.78h1.13v-.784h.798v.69h.794v-.73h.81v3.175h-.81v-.587h-.794v.378h-2.317c-.283 0-.41-.122-.41-.344v-2.578zm0 1.462v.778h1.13v-.778zm2.722.465v-.618h-.794v.618zm-2.28 2.134c-.215.088-.322.201-.322.336 0 .13.107.24.322.33.24.105.572.156.99.156.425 0 .763-.05 1.004-.155.22-.091.33-.2.33-.331 0-.135-.11-.248-.33-.336-.241-.102-.58-.152-1.005-.152-.417 0-.748.05-.989.152zm2.618-.46c.356.218.534.486.534.8-.004.312-.183.576-.539.79-.396.24-.937.361-1.624.361-.682 0-1.22-.12-1.618-.36-.351-.215-.526-.479-.526-.79 0-.315.175-.583.526-.801.4-.24.94-.361 1.618-.361.69 0 1.232.12 1.629.36M255.314 165.784c.273.192.409.436.409.735 0 .29-.136.534-.41.73-.303.219-.72.328-1.252.328-.528 0-.943-.11-1.246-.328-.27-.196-.405-.44-.405-.73 0-.299.135-.543.405-.735.3-.219.715-.329 1.246-.329.533 0 .949.11 1.253.329zm-1.858.423c-.128.083-.19.188-.19.317 0 .12.062.218.19.296.145.088.347.135.605.135.261 0 .465-.047.61-.135.132-.078.199-.176.199-.296 0-.133-.067-.238-.198-.317-.146-.086-.35-.13-.611-.13-.258 0-.46.044-.605.13zm-.04 3.15v.858h3.546v.702h-3.982c-.258 0-.372-.15-.372-.343v-1.216zm.241-.082v-.765h-1.354v-.692h3.819v-2.243h.809v4.288h-.809v-.449h-.903v-.698h.903v-.206h-1.658v.765h-.807M243.91 159.905H245v-.706h-1.122v-.476h-.81v.476h-1.13v.706h1.087c-.008 1.156-.35 2.226-1.33 3.152l.43.574c.338-.234.908-.778 1.343-1.797.436 1.019 1.006 1.563 1.345 1.797l.43-.574a4.137 4.137 0 0 1-1.331-3.152M246.433 164.357v-5.314h-.81v5.314h.81M303.204 203.036v-12.995h1.45v12.995h-1.45M301.07 190.04v5.63h-13.202v-5.63h-1.456v12.996h1.456v-6.135l13.202-.006v6.14h1.458V190.04h-1.458M284.294 203.036v-12.995h1.45v12.995h-1.45M261.779 203.036h1.448v-12.998h-1.448v12.998M279.965 199.169c.101-1.578.14-3.053 0-5.294-.165-2.64-1.582-3.834-3.691-3.834H265.38v-.002h-1.449v12.997h12.343c2.216.005 3.527-1.265 3.691-3.867zm-1.486-.232c-.087 1.611-1.245 2.72-2.859 2.807l-10.24.004V191.29h10.368c1.508 0 2.638 1.21 2.73 2.807a44.717 44.717 0 0 1 0 4.84" style="fill:#254aa5;fill-opacity:1;fill-rule:nonzero;stroke:none;stroke-width:.0352777" transform="matrix(2.76662 0 0 2.76662 -538.674 -361.226)"/><path d="M282.11 193.755c-.132-2.982-1.465-3.714-3.006-3.714h-.766c1.756.388 2.233 2.426 2.339 3.714.241 2.896.121 4.438-.009 5.86-.13 1.424-.678 3.033-2.324 3.446h.778c1.54 0 2.863-.767 2.993-3.748l.001-.03c.13-1.639.096-3.19-.007-5.528M196.218 191.858c.138-.925.615-1.52 1.412-1.817h-.989c-1.028 0-1.746.744-1.863 1.863-.1.964-.094 2.113 0 3.157.095 1.042.835 1.862 1.863 1.862h.99c-1.112-.354-1.35-1.235-1.403-1.695-.062-.541-.1-2.774-.01-3.37" style="fill:#254aa5;fill-opacity:1;fill-rule:nonzero;stroke:none;stroke-width:.0352777" transform="matrix(2.76662 0 0 2.76662 -538.674 -361.226)"/><path d="M198.867 190.04c-1.03 0-1.746.745-1.863 1.864-.1.964-.094 2.113 0 3.157.094 1.042.833 1.862 1.863 1.862l11.504-.007c.514 0 .862.352.93.93.09.751.076 2.388 0 3.022-.066.556-.416.931-.93.931h-15.237v1.237h15.765c1.03 0 1.778-.83 1.863-1.865.084-1.011.066-2.574 0-3.622-.067-1.043-.833-1.864-1.863-1.864h-11.502c-.516 0-.867-.358-.931-.93-.063-.54-.13-1.893 0-2.553.118-.617.415-.932.93-.932h15.317v-1.23h-15.846" style="fill:#254aa5;fill-opacity:1;fill-rule:nonzero;stroke:none;stroke-width:.0352777" transform="matrix(2.76662 0 0 2.76662 -538.674 -361.226)"/><path d="M214.927 197.55c-.066-1.044-.833-1.864-1.862-1.864h-.977c1.068.441 1.327 1.299 1.38 1.741.088.748.085 3.17 0 3.8-.07.512-.294 1.307-1.38 1.81h.977c1.029 0 1.779-.83 1.862-1.865.083-1.012.068-2.575 0-3.622M242.765 190.04v10.454c0 .644.482 1.071 1.165 1.164 2.45.333 9.31.21 10.928 0 .64-.08 1.167-.52 1.167-1.164v-10.453h1.45v10.648c0 1.286-.827 2.142-2.33 2.327-1.5.188-9.914.222-11.504 0-1.423-.195-2.328-1.041-2.328-2.327v-10.648h1.452" style="fill:#254aa5;fill-opacity:1;fill-rule:nonzero;stroke:none;stroke-width:.0352777" transform="matrix(2.76662 0 0 2.76662 -538.674 -361.226)"/><path d="M240.623 190.04v10.454c0 1.416.872 2.246 1.993 2.598-.499-.021-.888-.045-1.116-.076-1.5-.185-2.327-1.041-2.327-2.326v-10.65h1.45M258.164 190.04v10.454c0 1.416-.87 2.246-1.992 2.598.499-.021.888-.045 1.114-.076 1.502-.185 2.33-1.041 2.33-2.326v-10.65h-1.452M233.415 190.04v11.269l-13.243-11.268h-1.459v12.995h1.46V191.75l13.242 11.287h1.462v-12.995h-1.462M235.555 203.036v-12.995h1.454v12.995h-1.454M216.589 203.036v-12.995h1.452v12.995h-1.452" style="fill:#254aa5;fill-opacity:1;fill-rule:nonzero;stroke:none;stroke-width:.0352777" transform="matrix(2.76662 0 0 2.76662 -538.674 -361.226)"/></svg>