<svg xmlns="http://www.w3.org/2000/svg" xml:space="preserve" width="857.19824" height="172.26306" viewBox="0 0 857.19824 172.26306"><defs><clipPath id="a" clipPathUnits="userSpaceOnUse"><path d="M0 185.89h756.285V0H0Z"/></clipPath></defs><path d="m0 0-25.792-48.374 13.046-5.584L0-28.481l12.744-25.621 13.194 5.728Z" style="fill:#004290;fill-opacity:1;fill-rule:nonzero;stroke:none" transform="matrix(1.33333 0 0 -1.33333 34.39 0)"/><g clip-path="url(#a)" transform="matrix(1.33333 0 0 -1.33333 -75.59 210.058)"><path d="M0 0a11.764 11.764 0 0 0 11.784 11.784c6.733 0 11.992-5.262 11.992-11.784 0-6.733-5.259-11.993-11.992-11.993C5.259-11.993 0-6.733 0 0m34.506 55.128h-44.818V36.402h44.818Zm-57.652-43.135h5.262C-19.359 8.208-20.2 4.208-20.2 0c0-17.675 14.517-32.193 31.984-32.193 17.675 0 32.193 14.518 32.193 32.193q0 6.314-2.526 11.993h5.471v17.466h-70.068z" style="fill:#901f2f;fill-opacity:1;fill-rule:nonzero;stroke:none" transform="translate(151.501 90.126)"/><path d="M0 0v3.208c0 .816-.57 1.386-1.386 1.386h-24.545v15.629h24.545c.804 0 1.386.585 1.386 1.386v3.208c0 .816-.57 1.386-1.386 1.386h-35.202c-.804 0-1.388-.582-1.388-1.386v-3.208c0-.801.584-1.386 1.388-1.386h3.843V1.048c0-1.638.794-2.434 2.429-2.434h28.93C-.582-1.386 0-.804 0 0" style="fill:#595757;fill-opacity:1;fill-rule:nonzero;stroke:none" transform="translate(516.138 119.063)"/><path d="M0 0h-9.906v12.935c0 .804-.582 1.386-1.386 1.386h-4.042c-.804 0-1.386-.582-1.386-1.386v-31.608c0-.804.582-1.389 1.386-1.389h4.042c.816 0 1.386.572 1.386 1.389v12.696H0c.804 0 1.388.582 1.388 1.386v3.205C1.388-.57.816 0 0 0" style="fill:#595757;fill-opacity:1;fill-rule:nonzero;stroke:none" transform="translate(464.422 133.166)"/><path d="M0 0h-48.586c-.803 0-1.388-.582-1.388-1.386v-3.208c0-.814.572-1.386 1.388-1.386h44.204v-14.855c0-.817.569-1.386 1.386-1.386h4.042c.804 0 1.386.582 1.386 1.386v18.403C2.432-.796 1.635 0 0 0" style="fill:#595757;fill-opacity:1;fill-rule:nonzero;stroke:none" transform="translate(455.222 108.984)"/><path d="M0 0c0-7.547 5.96-13.238 13.865-13.238 7.903 0 13.863 5.691 13.863 13.238 0 3.137-1.031 6.023-2.989 8.374h6.204c.804 0 1.386.582 1.386 1.386v3.067c0 .804-.582 1.386-1.386 1.386H17.27v4.538c0 .804-.583 1.386-1.384 1.386h-4.042c-.804 0-1.388-.582-1.388-1.386v-4.538h-14.16c-.802 0-1.386-.582-1.386-1.386V9.76c0-.804.584-1.386 1.386-1.386h6.632C1.011 6.048 0 3.163 0 0m6.466 0c0 4.367 3.113 7.537 7.399 7.537 4.145 0 7.396-3.311 7.396-7.537 0-4.216-3.18-7.396-7.396-7.396-4.357 0-7.399 3.041-7.399 7.396" style="fill:#595757;fill-opacity:1;fill-rule:nonzero;stroke:none" transform="translate(406.99 129.483)"/><path d="M0 0c.136-.237.378-.552.756-.708.441-.179.945-.111 1.509.214l22.081 13.671L46.451-.509c.222-.129.565-.297.968-.297q.093 0 .196.012c.439.063.817.338 1.056.761l1.837 2.83c.199.348.404.809.252 1.313-.1.335-.352.623-.678.781L29.524 17.436h19.707c.804 0 1.388.585 1.388 1.388v3.206c0 .801-.584 1.383-1.388 1.383H-.539c-.817 0-1.389-.569-1.389-1.383v-3.206c0-.803.585-1.388 1.389-1.388h19.646L-1.328 4.924c-.388-.191-.635-.466-.738-.811-.157-.502.047-.963.272-1.359Z" style="fill:#595757;fill-opacity:1;fill-rule:nonzero;stroke:none" transform="translate(331.053 121.8)"/><path d="M0 0h-25.381v5.862c0 .803-.583 1.388-1.384 1.388h-4.045c-.803 0-1.386-.585-1.386-1.388V0h-25.383c-.802 0-1.387-.585-1.387-1.386v-3.208c0-.814.57-1.383 1.387-1.383H0c.804 0 1.386.582 1.386 1.383v3.208C1.386-.585.804 0 0 0" style="fill:#595757;fill-opacity:1;fill-rule:nonzero;stroke:none" transform="translate(384.188 119.075)"/><path d="M0 0c-.32.804-.99 1.305-1.744 1.305-.756 0-1.424-.496-1.739-1.295l-14.555-34.804c-.237-.554-.151-.993-.038-1.26.151-.365.449-.655.811-.798l3.307-1.477q.28-.114.584-.114.327 0 .62.129c.358.156.635.438.776.794l10.222 25.487L8.369-37.629l.028-.065c.378-.751 1.189-1.056 1.968-.739l3.334 1.389c.375.149.662.428.811.781.149.356.149.759-.005 1.134z" style="fill:#595757;fill-opacity:1;fill-rule:nonzero;stroke:none" transform="translate(262.255 142.48)"/><path d="M0 0h-4.045c-.804 0-1.386-.585-1.386-1.386V-55.49c0-.804.582-1.386 1.386-1.386H0c.814 0 1.383.569 1.383 1.386v54.104C1.383-.585.801 0 0 0" style="fill:#595757;fill-opacity:1;fill-rule:nonzero;stroke:none" transform="translate(305.837 147.524)"/><path d="M0 0h-4.042c-.804 0-1.386-.585-1.386-1.386v-19.837h-8.235c-.802 0-1.386-.583-1.386-1.386v-3.206c0-.804.584-1.386 1.386-1.386h8.235V-55.49c0-.804.582-1.386 1.386-1.386H0c.804 0 1.386.582 1.386 1.386v54.104C1.386-.585.804 0 0 0" style="fill:#595757;fill-opacity:1;fill-rule:nonzero;stroke:none" transform="translate(293.845 147.524)"/><path d="M0 0c0-1.635.796-2.432 2.432-2.432h28.929c.804 0 1.389.582 1.389 1.386V2.16c0 .804-.585 1.386-1.389 1.386H6.817V19.19h24.544c.804 0 1.389.582 1.389 1.383v3.208c0 .802-.585 1.386-1.389 1.386H-3.843c-.801 0-1.386-.584-1.386-1.386v-3.208c0-.801.585-1.383 1.386-1.383H0Z" style="fill:#595757;fill-opacity:1;fill-rule:nonzero;stroke:none" transform="translate(639.797 120.098)"/><path d="M0 0h-44.831v16.183c0 .802-.582 1.384-1.386 1.384h-4.044c-.802 0-1.384-.582-1.384-1.384V-3.616c0-1.656.706-2.361 2.361-2.361H0c.804 0 1.389.582 1.389 1.386v3.208C1.389-.582.804 0 0 0" style="fill:#595757;fill-opacity:1;fill-rule:nonzero;stroke:none" transform="translate(691.234 95.35)"/><path d="M0 0h-9.909v12.824c0 .804-.579 1.389-1.383 1.389h-4.042c-.804 0-1.389-.585-1.389-1.389v-31.527c0-.817.572-1.386 1.389-1.386h4.042c.804 0 1.383.582 1.383 1.386V-5.98H0c.801 0 1.386.582 1.386 1.386v3.208C1.386-.582.801 0 0 0" style="fill:#595757;fill-opacity:1;fill-rule:nonzero;stroke:none" transform="translate(698.206 133.274)"/><path d="M0 0h-4.045c-.801 0-1.383-.582-1.383-1.383v-22.502h-7.197v22.502c0 .801-.582 1.383-1.386 1.383h-4.045c-.801 0-1.383-.582-1.383-1.383v-54.105c0-.816.569-1.388 1.383-1.388h4.045c.804 0 1.386.584 1.386 1.388v25.626h7.197v-25.626c0-.816.569-1.388 1.383-1.388H0c.804 0 1.386.584 1.386 1.388v54.105C1.386-.582.804 0 0 0" style="fill:#595757;fill-opacity:1;fill-rule:nonzero;stroke:none" transform="translate(618.213 147.523)"/><path d="M0 0h12.746c.802 0 1.384.582 1.384 1.386v3.208c0 .801-.582 1.386-1.384 1.386h-31.439c-.804 0-1.386-.585-1.386-1.386V1.386c0-.804.582-1.386 1.386-1.386H-5.32l-15.067-30.343c-.474-.829-.28-1.555.552-2.054l3.256-1.661c.433-.247.834-.307 1.22-.194.38.119.675.391.897.839L-2.659-9.019 9.115-33.438c.219-.438.514-.711.897-.829.121-.035.244-.053.378-.053.27 0 .554.083.816.237l3.324 1.698c.358.212.598.522.691.895.093.376.035.766-.161 1.091z" style="fill:#595757;fill-opacity:1;fill-rule:nonzero;stroke:none" transform="translate(576.524 137.804)"/><path d="M0 0h-9.909v12.968c0 .804-.579 1.386-1.383 1.386h-4.042c-.804 0-1.389-.582-1.389-1.386v-31.644c0-.804.585-1.386 1.389-1.386h4.042c.804 0 1.383.582 1.383 1.386V-5.98H0c.804 0 1.386.582 1.386 1.386v3.208C1.386-.582.804 0 0 0" style="fill:#595757;fill-opacity:1;fill-rule:nonzero;stroke:none" transform="translate(541.8 133.226)"/><path d="M0 0c-7.089 0-14.419-5.055-14.419-13.515 0-8.459 7.33-13.515 14.419-13.515s14.424 5.056 14.424 13.515C14.424-5.055 7.089 0 0 0m7.746-13.515c0-3.586-2.714-7.396-7.746-7.396-5.03 0-7.744 3.81-7.744 7.396S-5.03-6.119 0-6.119c5.032 0 7.746-3.81 7.746-7.396" style="fill:#595757;fill-opacity:1;fill-rule:nonzero;stroke:none" transform="translate(513.287 112.445)"/><path d="M0 0c-8.734 0-13.447-6.426-13.447-12.471 0-6.046 4.713-12.469 13.447-12.469 7.666 0 13.444 5.36 13.444 12.469C13.444-5.36 7.666 0 0 0m6.839-12.471c0-3.191-2.348-6.421-6.839-6.421s-6.839 3.23-6.839 6.421c0 3.19 2.348 6.42 6.839 6.42s6.839-3.23 6.839-6.42" style="fill:#595757;fill-opacity:1;fill-rule:nonzero;stroke:none" transform="translate(355.4 109.804)"/><path d="M0 0h3.629v6.94l2.215 2.074L12.363 0h4.413L8.394 11.393l8.052 8.172h-4.438c-2.682-2.936-7.031-7.519-8.379-9.029v9.029H0Zm19.434 0h3.518v14.543h-3.518zm0 17.252h3.518v3.437h-3.518ZM27.639 0h3.518v7.968c0 2.687 1.021 4.02 3.08 4.02 1.925 0 2.575-1.283 2.575-3.108V0h3.516v9.286c0 3.725-1.976 5.595-4.831 5.595-2.636 0-3.816-1.346-4.34-2.372-.012.456-.06 1.641-.136 2.034h-3.409c.027-1.094.027-2.419.027-3.664zm30.145 10.36c0 1.398.015 3.039.035 4.183h-3.332a50 50 0 0 1-.143-1.656c-.26.774-1.346 1.994-3.934 1.994-3.596 0-6.33-3.037-6.33-7.649 0-4.029 2.268-7.093 6.015-7.093 2.235 0 3.483.831 4.249 2.215v-.857c0-3.019-.602-4.781-3.448-4.781-1.66 0-2.578.736-2.91 1.936h-3.584c.182-1.754 1.331-4.554 6.338-4.554 5.252 0 7.044 2.853 7.044 7.517zm-6.651 1.665c2.742 0 3.317-1.769 3.317-4.49 0-2.707-.739-4.519-3.402-4.519-1.981 0-3.347 1.679-3.347 4.37 0 2.989 1.368 4.639 3.432 4.639m18.157-6.39c.446-3.372 2.89-5.902 7.842-5.902 5.04 0 7.618 2.459 7.618 5.889 0 2.674-1.159 4.808-6.811 6.156-3.251.767-4.176 1.376-4.176 2.901 0 1.552 1.139 2.386 3.084 2.386 2.636 0 3.448-1.35 3.7-2.736h3.707c-.275 2.762-2.291 5.519-7.303 5.519-4.541 0-6.953-2.334-6.953-5.572 0-2.679 1.416-4.491 6.494-5.698 3.543-.837 4.493-1.668 4.493-3.387 0-1.575-1.048-2.651-3.578-2.651-2.46 0-3.936 1.001-4.413 3.095zm31.984.912c.048.406.048.743.048 1.217 0 3.455-1.646 7.117-6.537 7.117-4.587 0-6.872-3.322-6.872-7.802 0-3.793 2.006-7.419 6.723-7.419 4.372 0 5.95 2.777 6.484 4.584h-3.525c-.409-.94-.978-1.787-2.863-1.787-2.162 0-3.266 1.887-3.274 4.09zm-9.732 2.235c.191 2.039 1.086 3.521 3.225 3.521s2.991-1.593 3.022-3.521zm13.786 5.761V-.645c0-1.736-.327-2.351-1.781-2.351-.129 0-.285 0-.431.007v-2.855c.307-.03.854-.058 1.149-.058 3.717 0 4.581 1.827 4.581 5.942v14.503zm3.518 6.149h-3.518v-3.437h3.518zm10.925-5.811c-4.539 0-7.17-3.229-7.17-7.649 0-4.352 2.596-7.572 6.991-7.572 4.551 0 7.106 3.311 7.106 7.638 0 4.561-2.727 7.583-6.927 7.583m-.144-2.798c2.248 0 3.49-1.711 3.49-4.833 0-2.948-1.23-4.793-3.432-4.793-2.167 0-3.5 1.882-3.5 4.813 0 3.158 1.287 4.813 3.442 4.813M130.491 0h3.518v7.968c0 2.687 1.02 4.02 3.076 4.02 1.928 0 2.578-1.283 2.578-3.108V0h3.516v9.286c0 3.725-1.976 5.595-4.831 5.595-2.636 0-3.818-1.346-4.339-2.372-.013.456-.061 1.641-.137 2.034h-3.409c.028-1.094.028-2.419.028-3.664zm30.144 10.36c0 1.398.015 3.039.035 4.183h-3.331a45 45 0 0 1-.146-1.656c-.257.774-1.344 1.994-3.932 1.994-3.596 0-6.33-3.037-6.33-7.649 0-4.029 2.268-7.093 6.013-7.093 2.238 0 3.485.831 4.249 2.215v-.857c0-3.019-.603-4.781-3.445-4.781-1.661 0-2.581.736-2.911 1.936h-3.583c.179-1.754 1.33-4.554 6.337-4.554 5.252 0 7.044 2.853 7.044 7.517zm-6.65 1.665c2.739 0 3.316-1.769 3.316-4.49 0-2.707-.738-4.519-3.402-4.519-1.981 0-3.347 1.679-3.347 4.37 0 2.989 1.369 4.639 3.433 4.639M173.542 0h3.669v19.565h-3.669zm8.45 0h3.518v7.968c0 2.687 1.02 4.02 3.077 4.02 1.928 0 2.578-1.283 2.578-3.108V0h3.515v9.286c0 3.725-1.976 5.595-4.831 5.595-2.636 0-3.818-1.346-4.339-2.372-.013.456-.061 1.641-.136 2.034h-3.41c.028-1.094.028-2.419.028-3.664zm16.022 4.302c.335-2.586 2.167-4.642 6.363-4.642 4.161 0 6.056 2.081 6.056 4.536 0 2.142-.754 3.739-5.456 4.841-2.462.579-2.964.993-2.964 1.837 0 .756.489 1.477 2.059 1.477 2.009 0 2.485-1.114 2.641-1.787h3.357c-.146 1.988-1.653 4.317-5.844 4.317-4.168 0-5.678-2.188-5.678-4.297 0-2.026.807-3.427 5.348-4.544 2.316-.564 2.956-1.02 2.956-2.096 0-1.028-.643-1.694-2.346-1.694-1.661 0-2.684.746-3.027 2.052zm14.382 7.542h2.333v-8.14c0-2.502.958-3.903 3.601-3.903.774 0 1.789.018 2.528.275V2.55a6.5 6.5 0 0 0-1.033-.07c-1.24 0-1.58.529-1.58 1.736v7.628h2.971v2.699h-2.971v4.055h-3.516v-4.055h-2.333zM224.439 0h3.518v14.543h-3.518zm0 17.252h3.518v3.437h-3.518zm6.678-5.408h2.333v-8.14c0-2.502.958-3.903 3.601-3.903.774 0 1.79.018 2.528.275V2.55a6.5 6.5 0 0 0-1.033-.07c-1.24 0-1.58.529-1.58 1.736v7.628h2.971v2.699h-2.971v4.055h-3.516v-4.055h-2.333zm24.328 2.699h-3.518V6.854c0-3.132-.852-4.281-2.969-4.281-1.968 0-2.499 1.474-2.499 3.183v8.787h-3.508V5.04c0-3.775 2.048-5.38 4.838-5.38 2.003 0 3.326.675 4.138 2.187.02-.645.048-1.459.106-1.847h3.44a262 262 0 0 0-.028 4.229zm3.359-2.699h2.334v-8.14c0-2.502.96-3.903 3.603-3.903.771 0 1.789.018 2.528.275V2.55a6.5 6.5 0 0 0-1.036-.07c-1.237 0-1.578.529-1.578 1.736v7.628h2.969v2.699h-2.969v4.055h-3.517v-4.055h-2.334zm24.436-5.297c.048.406.048.743.048 1.217 0 3.455-1.643 7.117-6.537 7.117-4.586 0-6.872-3.322-6.872-7.802 0-3.793 2.006-7.419 6.724-7.419 4.372 0 5.949 2.777 6.484 4.584h-3.526c-.408-.94-.978-1.787-2.862-1.787-2.16 0-3.266 1.887-3.274 4.09zm-9.732 2.235c.194 2.039 1.086 3.521 3.228 3.521 2.137 0 2.992-1.593 3.019-3.521zM295.097 0h3.591v8.157h9.082v3.042h-9.082v5.325h9.695v3.041h-13.286zm23.033 14.881c-4.539 0-7.17-3.229-7.17-7.649 0-4.352 2.594-7.572 6.988-7.572 4.552 0 7.107 3.311 7.107 7.638 0 4.561-2.727 7.583-6.925 7.583m-.146-2.798c2.248 0 3.49-1.711 3.49-4.833 0-2.948-1.23-4.793-3.432-4.793-2.168 0-3.501 1.882-3.501 4.813 0 3.158 1.291 4.813 3.443 4.813m23.269 2.46h-3.515V6.854c0-3.132-.852-4.281-2.969-4.281-1.968 0-2.499 1.474-2.499 3.183v8.787h-3.508V5.04c0-3.775 2.046-5.38 4.836-5.38 2.003 0 3.326.675 4.14 2.187.02-.645.048-1.459.103-1.847h3.44a302 302 0 0 0-.028 4.229zM345.946 0h3.518v7.968c0 2.687 1.02 4.02 3.079 4.02 1.925 0 2.575-1.283 2.575-3.108V0h3.516v9.286c0 3.725-1.976 5.595-4.831 5.595-2.636 0-3.815-1.346-4.339-2.372-.013.456-.061 1.641-.137 2.034h-3.409c.028-1.094.028-2.419.028-3.664zm26.739 20.692v-7.356c-.345.705-1.476 1.545-3.729 1.545-4.088 0-6.57-3.264-6.57-7.739 0-4.504 2.326-7.482 6.023-7.482 2.243 0 3.568.773 4.276 2.041.021-.408.088-1.283.164-1.701h3.382c-.028 1.356-.028 2.696-.028 4.035v16.657zm-3.172-8.667c2.847 0 3.308-1.935 3.308-4.672 0-2.459-.463-4.836-3.444-4.836-2.074 0-3.37 1.659-3.37 4.72 0 3.009 1.24 4.788 3.506 4.788m22.823-2.071c0 3.41-2.069 4.906-5.849 4.927-4.342.02-5.818-2.147-6.027-4.536h3.356c.214 1.081.597 1.965 2.543 1.965 2.154 0 2.537-1.202 2.537-2.318V8.986h-2.21c-4.284 0-6.907-1.514-6.907-4.805 0-2.241 1.474-4.521 4.954-4.521 2.657 0 3.705 1.056 4.224 1.923.018-.542.103-1.283.214-1.583h3.362c-.086.373-.197 2.197-.197 3.561zm-3.429-3.586c0-2.162-.368-4.138-3.244-4.138-1.565 0-2.341.96-2.341 2.167 0 1.621 1.119 2.382 3.705 2.382h1.88zm6.322 5.476h2.334v-8.14c0-2.502.96-3.903 3.603-3.903.771 0 1.787.018 2.528.275V2.55a6.5 6.5 0 0 0-1.036-.07c-1.24 0-1.577.529-1.577 1.736v7.628h2.968v2.699h-2.968v4.055h-3.518v-4.055h-2.334zM407.275 0h3.518v14.543h-3.518zm0 17.252h3.518v3.437h-3.518zm14.442-2.371c-4.539 0-7.169-3.229-7.169-7.649 0-4.352 2.593-7.572 6.988-7.572 4.553 0 7.108 3.311 7.108 7.638 0 4.561-2.729 7.583-6.927 7.583m-.144-2.798c2.248 0 3.488-1.711 3.488-4.833 0-2.948-1.23-4.793-3.432-4.793-2.165 0-3.501 1.882-3.501 4.813 0 3.158 1.291 4.813 3.445 4.813M432.437 0h3.515v7.968c0 2.687 1.021 4.02 3.08 4.02 1.925 0 2.575-1.283 2.575-3.108V0h3.518v9.286c0 3.725-1.978 5.595-4.833 5.595-2.636 0-3.815-1.346-4.34-2.372-.01.456-.058 1.641-.136 2.034h-3.407c.028-1.094.028-2.419.028-3.664z" style="fill:#595757;fill-opacity:1;fill-rule:nonzero;stroke:none" transform="translate(247.498 34.248)"/></g></svg>