<svg xmlns="http://www.w3.org/2000/svg" xml:space="preserve" width="480.49921" height="200" viewBox="0 0 480.49921 200"><path d="M156.935 77.154V75.57q-.617.276-1.204.417-.587.14-1.109.14-.692 0-1.023-.19-.331-.191-.331-.592 0-.301.22-.472.226-.165.813-.286l.823-.165q1.249-.251 1.775-.763.527-.511.527-1.454 0-1.24-.737-1.846-.733-.602-2.242-.602-.713 0-1.43.135-.717.136-1.435.401v1.63q.718-.38 1.385-.576.672-.19 1.294-.19.632 0 .968.21.336.21.336.602 0 .35-.23.542-.226.19-.909.34l-.747.166q-1.124.24-1.645.768-.517.526-.517 1.42 0 1.118.722 1.72.723.602 2.077.602.617 0 1.27-.096.651-.09 1.349-.276zM164.134 70.312q-.532-.275-1.109-.416-.576-.14-1.203-.14-1.872 0-2.965 1.043-1.094 1.048-1.094 2.84 0 1.795 1.094 2.838 1.093 1.049 2.965 1.049.627 0 1.203-.14.577-.141 1.109-.417v-1.55q-.537.366-1.058.537-.522.17-1.099.17-1.033 0-1.625-.662-.592-.662-.592-1.826 0-1.159.592-1.82.592-.663 1.625-.663.577 0 1.099.17.521.171 1.058.537zM165.047 77.39h1.931v-7.489h-1.931zM168.848 77.39h5.212v-1.46h-3.28v-1.394h3.084v-1.46h-3.085v-1.715h3.391V69.9h-5.322zM175.32 77.39h2.157l2.724-5.136v5.136h1.83v-7.489h-2.156l-2.724 5.137V69.9h-1.83zM189.252 70.312q-.532-.275-1.109-.416-.577-.14-1.204-.14-1.87 0-2.964 1.043-1.094 1.048-1.094 2.84 0 1.795 1.094 2.838 1.093 1.049 2.964 1.049.627 0 1.204-.14.577-.141 1.109-.417v-1.55q-.537.366-1.059.537-.521.17-1.098.17-1.034 0-1.625-.662-.592-.662-.592-1.826 0-1.159.592-1.82.591-.663 1.625-.663.577 0 1.098.17.522.171 1.059.537zM190.165 77.39h5.212v-1.46h-3.281v-1.394h3.085v-1.46h-3.085v-1.715h3.39V69.9h-5.321zM196.742 71.842h1.806v-1.53l-1.239-1.87h-1.068l.501 1.87zM204.434 77.39h1.931v-7.489h-1.93zM214.174 70.312q-.531-.275-1.108-.416-.577-.14-1.204-.14-1.871 0-2.965 1.043-1.093 1.048-1.093 2.84 0 1.795 1.093 2.838 1.094 1.049 2.965 1.049.627 0 1.204-.14.577-.141 1.108-.417v-1.55q-.536.366-1.058.537-.522.17-1.099.17-1.033 0-1.625-.662-.592-.662-.592-1.826 0-1.159.592-1.82.592-.663 1.625-.663.577 0 1.099.17.522.171 1.058.537zM214.194 77.39h6.903v-1.46h-2.483v-6.029h-1.932v6.03h-2.488zM220.514 71.842h1.806v-1.53l-1.239-1.87h-1.068l.501 1.87zM231.206 74.49q.456 0 .692.202.236.2.236.591 0 .387-.236.587-.236.206-.692.206h-1.069v-1.585zm.065-3.275q.582 0 .873.246.296.246.296.743 0 .486-.291.727-.291.246-.878.246h-1.134v-1.962zm1.796 2.694q.622-.18.963-.667.341-.487.341-1.194 0-1.083-.732-1.615-.733-.532-2.228-.532h-3.205v7.49h2.9q1.56 0 2.257-.472.702-.472.702-1.51 0-.547-.256-.933-.256-.381-.742-.567zM237.802 74.07q.607 0 .868.225.266.226.266.743 0 .511-.266.732-.26.22-.868.22h-.813v-1.92zm-.813-1.335v-2.834h-1.93v7.49h2.949q1.48 0 2.167-.497.692-.497.692-1.57 0-.743-.361-1.22-.356-.476-1.079-.702.397-.09.708-.41.316-.317.637-.964l1.048-2.127h-2.057l-.913 1.861q-.275.562-.561.768-.281.205-.753.205z" style="font-variant:normal;font-weight:900;font-stretch:normal;font-size:4.1657px;font-family:&quot;Rotis SansSerif Std ExtraBold&quot;;writing-mode:lr-tb;fill:#505557;fill-opacity:1;fill-rule:nonzero;stroke:none;stroke-width:2.46612" transform="matrix(1.33333 0 0 -1.33333 -200.183 291.255)"/><path d="M245.331 76.126q-.882 0-1.369-.652t-.487-1.836q0-1.179.487-1.83.487-.653 1.37-.653.887 0 1.374.652.486.652.486 1.831 0 1.184-.486 1.836-.487.652-1.375.652zm0 1.4q1.806 0 2.83-1.034 1.023-1.033 1.023-2.854 0-1.816-1.023-2.849-1.024-1.033-2.83-1.033-1.8 0-2.829 1.033-1.023 1.033-1.023 2.85 0 1.82 1.023 2.853 1.029 1.034 2.83 1.034zM254.252 71.265h-3.02l-.476-1.364h-1.941l2.774 7.49h2.302l2.774-7.49h-1.941zm-2.538 1.39h2.052l-1.023 2.98zM259.056 75.93v-4.57h.692q1.184 0 1.806.588.627.587.627 1.705 0 1.114-.622 1.696-.622.582-1.81.582zm-1.931 1.46h2.036q1.706 0 2.539-.246.837-.24 1.434-.822.527-.507.783-1.169t.256-1.5q0-.848-.256-1.515-.256-.662-.783-1.168-.602-.582-1.444-.828-.843-.24-2.529-.24h-2.036z" style="font-variant:normal;font-weight:900;font-stretch:normal;font-size:4.1657px;font-family:&quot;Rotis SansSerif Std ExtraBold&quot;;writing-mode:lr-tb;fill:#505557;fill-opacity:1;fill-rule:nonzero;stroke:none;stroke-width:2.46612" transform="matrix(1.33333 0 0 -1.33333 -200.183 291.255)"/><path d="M270.296 70.312q-.531-.275-1.108-.416-.577-.14-1.204-.14-1.871 0-2.965 1.043-1.093 1.048-1.093 2.84 0 1.795 1.093 2.838 1.094 1.049 2.965 1.049.627 0 1.204-.14.577-.141 1.108-.417v-1.55q-.536.366-1.058.537-.522.17-1.099.17-1.033 0-1.625-.662-.592-.662-.592-1.826 0-1.159.592-1.82.592-.663 1.625-.663.577 0 1.099.17.522.171 1.058.537zM275.754 71.265h-3.02l-.476-1.364h-1.942l2.774 7.49h2.303l2.774-7.49h-1.941zm-2.538 1.39h2.051l-1.023 2.98zM283.838 77.154V75.57q-.617.276-1.204.417-.586.14-1.108.14-.692 0-1.023-.19-.331-.191-.331-.592 0-.301.22-.472.226-.165.813-.286l.823-.165q1.249-.251 1.775-.763.527-.511.527-1.454 0-1.24-.737-1.846-.733-.602-2.243-.602-.712 0-1.43.135-.717.136-1.434.401v1.63q.717-.38 1.385-.576.672-.19 1.294-.19.632 0 .968.21.336.21.336.602 0 .35-.23.542-.227.19-.909.34l-.747.166q-1.124.24-1.645.768-.517.526-.517 1.42 0 1.118.722 1.72.723.602 2.077.602.617 0 1.269-.096.652-.09 1.35-.276zM284.206 77.39h6.902v-1.46h-2.483v-6.029h-1.931v6.03h-2.488z" style="font-variant:normal;font-weight:900;font-stretch:normal;font-size:4.1657px;font-family:&quot;Rotis SansSerif Std ExtraBold&quot;;writing-mode:lr-tb;fill:#505557;fill-opacity:1;fill-rule:nonzero;stroke:none;stroke-width:2.46612" transform="matrix(1.33333 0 0 -1.33333 -200.183 291.255)"/><path d="M290.995 77.39h1.932v-7.489h-1.932zM294.796 77.39h2.157l2.724-5.136v5.136h1.831v-7.489h-2.157l-2.724 5.137V69.9h-1.83zM309.52 70.458q-.722-.351-1.5-.527-.777-.175-1.604-.175-1.871 0-2.965 1.043-1.093 1.048-1.093 2.84 0 1.81 1.113 2.848 1.114 1.039 3.05 1.039.747 0 1.43-.14.687-.141 1.294-.417v-1.55q-.627.356-1.25.532-.616.175-1.238.175-1.154 0-1.781-.647-.622-.642-.622-1.84 0-1.19.602-1.837t1.71-.647q.301 0 .557.035.261.04.467.12v1.455h-1.18v1.295h3.01zM310.311 71.842h1.806v-1.53l-1.239-1.87h-1.068l.501 1.87zM322.548 71.265h-3.02l-.476-1.364h-1.942l2.774 7.49h2.303l2.774-7.49h-1.941zm-2.538 1.39h2.051l-1.023 2.98zM325.42 77.39h2.158l2.723-5.136v5.136h1.831v-7.489h-2.157l-2.724 5.137V69.9h-1.83zM335.344 75.93v-4.57h.693q1.183 0 1.805.588.627.587.627 1.705 0 1.114-.622 1.696-.622.582-1.81.582zm-1.93 1.46h2.036q1.705 0 2.538-.246.837-.24 1.434-.822.527-.507.783-1.169t.256-1.5q0-.848-.256-1.515-.256-.662-.783-1.168-.602-.582-1.444-.828-.843-.24-2.528-.24h-2.037zM350.766 70.312q-.532-.275-1.109-.416-.577-.14-1.204-.14-1.87 0-2.964 1.043-1.094 1.048-1.094 2.84 0 1.795 1.094 2.838 1.093 1.049 2.964 1.049.627 0 1.204-.14.577-.141 1.109-.417v-1.55q-.537.366-1.059.537-.521.17-1.098.17-1.034 0-1.626-.662-.591-.662-.591-1.826 0-1.159.591-1.82.592-.663 1.626-.663.577 0 1.098.17.522.171 1.059.537zM355.1 76.126q-.883 0-1.37-.652-.486-.652-.486-1.836 0-1.179.486-1.83.487-.653 1.37-.653.888 0 1.374.652.487.652.487 1.831 0 1.184-.487 1.836-.486.652-1.374.652zm0 1.4q1.805 0 2.829-1.034 1.023-1.033 1.023-2.854 0-1.816-1.023-2.849-1.024-1.033-2.83-1.033-1.8 0-2.828 1.033-1.024 1.033-1.024 2.85 0 1.82 1.024 2.853 1.028 1.034 2.829 1.034zM359.476 77.39h2.458l1.705-4.008 1.716 4.008h2.453v-7.489h-1.826v5.478l-1.726-4.038h-1.224l-1.725 4.038V69.9h-1.831zM369.369 77.39h2.458l1.705-4.008 1.716 4.008h2.453v-7.489h-1.826v5.478l-1.726-4.038h-1.224l-1.725 4.038V69.9h-1.831zM379.262 77.39h1.931V72.9q0-.927.301-1.329.306-.396.993-.396.693 0 .994.396.306.402.306 1.33v4.49h1.93V72.9q0-1.59-.797-2.368-.797-.777-2.433-.777-1.63 0-2.427.777-.798.778-.798 2.368zM386.68 77.39h2.156l2.724-5.136v5.136h1.83v-7.489h-2.156l-2.724 5.137V69.9h-1.83zM394.672 77.39h1.93v-7.489h-1.93zM404.412 70.312q-.532-.275-1.109-.416-.577-.14-1.204-.14-1.87 0-2.964 1.043-1.094 1.048-1.094 2.84 0 1.795 1.094 2.838 1.093 1.049 2.964 1.049.627 0 1.204-.14.577-.141 1.109-.417v-1.55q-.537.366-1.059.537-.521.17-1.098.17-1.033 0-1.625-.662-.592-.662-.592-1.826 0-1.159.592-1.82.592-.663 1.625-.663.577 0 1.098.17.522.171 1.059.537zM409.87 71.265h-3.02l-.477-1.364h-1.941l2.774 7.49h2.302l2.774-7.49h-1.941zm-2.539 1.39h2.052l-1.023 2.98zM411.654 77.39h6.902v-1.46h-2.483v-6.029h-1.931v6.03h-2.488z" style="font-variant:normal;font-weight:900;font-stretch:normal;font-size:4.1657px;font-family:&quot;Rotis SansSerif Std ExtraBold&quot;;writing-mode:lr-tb;fill:#505557;fill-opacity:1;fill-rule:nonzero;stroke:none;stroke-width:2.46612" transform="matrix(1.33333 0 0 -1.33333 -200.183 291.255)"/><path d="M418.444 77.39h1.93v-7.489h-1.93zM425.666 76.126q-.883 0-1.37-.652-.486-.652-.486-1.836 0-1.179.486-1.83.487-.653 1.37-.653.888 0 1.374.652.487.652.487 1.831 0 1.184-.487 1.836-.486.652-1.374.652zm0 1.4q1.806 0 2.829-1.034 1.023-1.033 1.023-2.854 0-1.816-1.023-2.849-1.023-1.033-2.83-1.033-1.8 0-2.828 1.033-1.024 1.033-1.024 2.85 0 1.82 1.024 2.853 1.028 1.034 2.829 1.034zM430.042 77.39h2.157l2.724-5.136v5.136h1.83v-7.489h-2.156l-2.724 5.137V69.9h-1.831zM443.246 77.154V75.57q-.617.276-1.204.417-.587.14-1.108.14-.692 0-1.024-.19-.33-.191-.33-.592 0-.301.22-.472.226-.165.813-.286l.822-.165q1.25-.251 1.776-.763.527-.511.527-1.454 0-1.24-.738-1.846-.732-.602-2.242-.602-.712 0-1.43.135-.717.136-1.434.401v1.63q.717-.38 1.384-.576.673-.19 1.295-.19.632 0 .968.21.336.21.336.602 0 .35-.231.542-.226.19-.908.34l-.747.166q-1.124.24-1.646.768-.516.526-.516 1.42 0 1.118.722 1.72.722.602 2.077.602.617 0 1.269-.096.652-.09 1.35-.276zM454.627 70.312q-.532-.275-1.109-.416-.577-.14-1.204-.14-1.87 0-2.964 1.043-1.094 1.048-1.094 2.84 0 1.795 1.094 2.838 1.093 1.049 2.964 1.049.627 0 1.204-.14.577-.141 1.109-.417v-1.55q-.537.366-1.059.537-.521.17-1.098.17-1.033 0-1.625-.662-.592-.662-.592-1.826 0-1.159.592-1.82.592-.663 1.625-.663.577 0 1.098.17.522.171 1.059.537zM458.96 76.126q-.882 0-1.369-.652-.486-.652-.486-1.836 0-1.179.486-1.83.487-.653 1.37-.653.888 0 1.374.652.487.652.487 1.831 0 1.184-.487 1.836-.486.652-1.374.652zm0 1.4q1.807 0 2.83-1.034 1.023-1.033 1.023-2.854 0-1.816-1.023-2.849-1.023-1.033-2.83-1.033-1.8 0-2.828 1.033-1.024 1.033-1.024 2.85 0 1.82 1.024 2.853 1.028 1.034 2.829 1.034zM463.337 77.39h2.458l1.706-4.008 1.715 4.008h2.453v-7.489h-1.826v5.478l-1.725-4.038h-1.224l-1.726 4.038V69.9h-1.83zM473.23 77.39h2.458l1.706-4.008 1.715 4.008h2.453v-7.489h-1.826v5.478l-1.725-4.038h-1.224l-1.726 4.038V69.9h-1.83zM483.123 77.39h1.931v-7.489h-1.93zM486.031 77.39h6.903v-1.46h-2.483v-6.029h-1.932v6.03h-2.488z" style="font-variant:normal;font-weight:900;font-stretch:normal;font-size:4.1657px;font-family:&quot;Rotis SansSerif Std ExtraBold&quot;;writing-mode:lr-tb;fill:#505557;fill-opacity:1;fill-rule:nonzero;stroke:none;stroke-width:2.46612" transform="matrix(1.33333 0 0 -1.33333 -200.183 291.255)"/><path d="M491.928 77.39h6.902v-1.46h-2.483v-6.029h-1.93v6.03h-2.489z" style="font-variant:normal;font-weight:900;font-stretch:normal;font-size:4.1657px;font-family:&quot;Rotis SansSerif Std ExtraBold&quot;;writing-mode:lr-tb;fill:#505557;fill-opacity:1;fill-rule:nonzero;stroke:none;stroke-width:2.46612" transform="matrix(1.33333 0 0 -1.33333 -200.183 291.255)"/><path d="M498.718 77.39h5.212v-1.46h-3.281v-1.394h3.085v-1.46h-3.085v-1.715h3.39V69.9h-5.321zM505.19 77.39h5.212v-1.46h-3.281v-1.394h3.085v-1.46h-3.085v-1.715h3.391V69.9h-5.322z" style="font-variant:normal;font-weight:900;font-stretch:normal;font-size:4.1657px;font-family:&quot;Rotis SansSerif Std ExtraBold&quot;;writing-mode:lr-tb;fill:#505557;fill-opacity:1;fill-rule:nonzero;stroke:none;stroke-width:2.46612" transform="matrix(1.33333 0 0 -1.33333 -200.183 291.255)"/><path d="M315.96 207.033c4.485 0 8.69-1.169 12.345-3.213a25.157 25.157 0 0 0 12.34 3.213c11.615 0 21.396-7.827 24.38-18.496h.437c-3.727 17.095-18.945 29.904-37.162 29.904-18.21 0-33.424-12.809-37.157-29.904h.443c2.98 10.669 12.755 18.496 24.373 18.496" style="fill:#0c3387;fill-opacity:1;fill-rule:nonzero;stroke:none;stroke-width:2.46612" transform="matrix(1.33333 0 0 -1.33333 -200.183 291.255)"/><path d="M328.306 203.82a25.204 25.204 0 0 1-12.346 3.214c-11.618 0-21.393-7.828-24.373-18.496h24.679c1.832 6.55 6.227 12.025 12.04 15.283" style="fill:#5b9bc7;fill-opacity:1;fill-rule:nonzero;stroke:none;stroke-width:2.46612" transform="matrix(1.33333 0 0 -1.33333 -200.183 291.255)"/><path d="M340.646 207.033a25.157 25.157 0 0 1-12.34-3.213c5.812-3.258 10.207-8.733 12.034-15.283h24.683c-2.981 10.669-12.762 18.496-24.377 18.496" style="fill:#4eb799;fill-opacity:1;fill-rule:nonzero;stroke:none;stroke-width:2.46612" transform="matrix(1.33333 0 0 -1.33333 -200.183 291.255)"/><path d="m410.22 127.2-1.913 3.692H248.3l-1.916-3.692zM266.178 178.314l1.093-40.679h-8.023l1.076 40.679zM284.76 178.314l1.093-40.679h-8.022l1.078 40.679zM303.34 178.314l1.1-40.679h-8.028l1.083 40.679zM321.925 178.314l1.1-40.679h-8.028l1.08 40.679zM340.505 178.314l1.102-40.679h-8.027l1.083 40.679zM359.09 178.314l1.102-40.679h-8.027l1.078 40.679zM377.675 178.314l1.102-40.679h-8.027l1.075 40.679zM396.26 178.314l1.097-40.679h-8.027l1.08 40.679zM246.384 184.848l1.916-3.697h160.007l1.914 3.697zM253.95 134.8l-1.12-2.165h150.946l-1.12 2.165zM315.96 207.033c4.485 0 8.69-1.169 12.345-3.213a25.157 25.157 0 0 0 12.34 3.213c11.615 0 21.396-7.827 24.38-18.496h.437c-3.727 17.095-18.945 29.904-37.162 29.904-18.21 0-33.424-12.809-37.157-29.904h.443c2.98 10.669 12.755 18.496 24.373 18.496" style="fill:#0c3387;fill-opacity:1;fill-rule:nonzero;stroke:none;stroke-width:2.46612" transform="matrix(1.33333 0 0 -1.33333 -200.183 291.255)"/><path d="M328.306 203.82a25.204 25.204 0 0 1-12.346 3.214c-11.618 0-21.393-7.828-24.373-18.496h24.679c1.832 6.55 6.227 12.025 12.04 15.283" style="fill:#5b9bc7;fill-opacity:1;fill-rule:nonzero;stroke:none;stroke-width:2.46612" transform="matrix(1.33333 0 0 -1.33333 -200.183 291.255)"/><path d="M340.646 207.033a25.157 25.157 0 0 1-12.34-3.213c5.812-3.258 10.207-8.733 12.034-15.283h24.683c-2.981 10.669-12.762 18.496-24.377 18.496" style="fill:#4eb799;fill-opacity:1;fill-rule:nonzero;stroke:none;stroke-width:2.46612" transform="matrix(1.33333 0 0 -1.33333 -200.183 291.255)"/><path d="m410.22 127.2-1.913 3.692H248.3l-1.916-3.692zM266.178 178.314l1.093-40.679h-8.023l1.076 40.679zM284.76 178.314l1.093-40.679h-8.022l1.078 40.679zM303.34 178.314l1.1-40.679h-8.028l1.083 40.679zM321.925 178.314l1.1-40.679h-8.028l1.08 40.679zM340.505 178.314l1.102-40.679h-8.027l1.083 40.679zM359.09 178.314l1.102-40.679h-8.027l1.078 40.679zM377.675 178.314l1.102-40.679h-8.027l1.075 40.679zM396.26 178.314l1.097-40.679h-8.027l1.08 40.679zM246.384 184.848l1.916-3.697h160.007l1.914 3.697zM253.95 134.8l-1.12-2.165h150.946l-1.12 2.165z" style="fill:#0c3387;fill-opacity:1;fill-rule:nonzero;stroke:none;stroke-width:2.46612" transform="matrix(1.33333 0 0 -1.33333 -200.183 291.255)"/><path d="M154.062 108.123a1.966 1.966 0 0 0-.518.43l-.947 1.161c-.165.242-.194.447-.093.61.106.162.313.192.641.093a7.334 7.334 0 0 1 1.379-.293 16.65 16.65 0 0 1 1.768-.077h10.392c.427-.02.708-.173.838-.456.136-.286.2-.604.2-.947-.081-2.343-.414-4.503-1.006-6.479-.594-1.98-1.253-3.484-1.988-4.525-.325-.449-.737-.703-1.238-.762-.5-.062-.695.345-.594 1.223.22 1.69.345 3.337.365 4.95.02 1.605.032 3.25.032 4.917h-8.284c-.446 0-.762.052-.947.156m23.685-4.888c.631.037.952-.395.964-1.3.01-.907-.31-1.361-.964-1.361h-3.45V87.709c0-.631-.205-1.204-.617-1.714-.404-.508-.912-.76-1.526-.76h-1.16c-.263 0-.458.057-.581.166-.121.11-.183.3-.183.57v7.605c-.693-.49-1.576-.824-2.658-1.009-1.078-.185-2.466-.276-4.16-.276h-10.785c-.264 0-.463.005-.594.02-.136.007-.281.084-.444.227l-1.315 1.677c-.165.224-.18.429-.049.611.138.19.333.227.6.123.466-.224.885-.37 1.252-.441.368-.071.937-.108 1.712-.108h2.994v5.504c0 .446-.077.814-.227 1.1-.153.28-.402.508-.748.668-.414.207-.589.461-.537.767.05.303.259.437.629.397l4.426-.427c.188-.022.309-.098.368-.231a.803.803 0 0 0 .094-.353V94.4h1.891c1.94 0 3.472.051 4.617.15 1.144.106 2.12.414 2.934.922v14.822c0 .631-.276 1.085-.823 1.376-.553.283-1 .518-1.35.703-.283.16-.38.37-.285.628.09.25.236.368.441.348l5.467-.611c.328-.042.513-.138.553-.291.042-.153.064-.26.064-.323v-9.132zM205.922 107.117c.634.037.954-.397.964-1.3.012-.91-.31-1.361-.964-1.361h-3.453V99.05c0-.634-.202-1.206-.606-1.716-.41-.51-.92-.762-1.532-.762h-1.341c-.27 0-.464.054-.582.167-.126.111-.185.301-.185.565v12.99c0 .63-.277 1.087-.826 1.378-.55.28-1 .518-1.342.7-.289.16-.387.37-.294.629.092.25.24.367.442.348l5.66-.612c.32-.04.505-.136.547-.29.042-.151.06-.257.06-.324v-5.255zm-21.009-6.01c.518-.74 1.16-1.115 1.911-1.115.755 0 1.371.375 1.865 1.115.488.745.735 1.65.735 2.71 0 1.058-.252 1.958-.753 2.703-.498.745-1.124 1.112-1.879 1.112-.752 0-1.383-.375-1.894-1.127-.508-.757-.764-1.652-.764-2.688 0-1.06.259-1.965.779-2.71m16.274-14.928c-.446-.628-1.038-.944-1.77-.944h-1.071c-.264 0-.471.057-.614.165-.14.111-.212.301-.212.57v7.117h-12.592c-.469 0-.767.05-.9.138a2.662 2.662 0 0 0-.447.41l-.974 1.252c-.143.267-.15.484-.017.661.133.173.323.215.565.136a8.397 8.397 0 0 1 1.302-.414 6.542 6.542 0 0 1 1.206-.104h15.586c.224 0 .382-.047.47-.138.092-.091.144-.25.144-.479v-5.92c0-1-.227-1.816-.676-2.45m-22.158 21.485c-.469 0-.77.045-.915.138a2.21 2.21 0 0 0-.459.41l-.917 1.196c-.286.407-.318.678-.091.826.224.138.468.138.732 0 .49-.205.915-.318 1.27-.343.355-.017.92-.027 1.697-.027h4.367c0 .836-.04 1.42-.12 1.758-.082.336-.277.614-.583.844-.466.303-.656.607-.564.915.093.303.3.439.626.394l4.308-.367a.913.913 0 0 0 .444-.168c.134-.091.198-.246.198-.47l-.09-2.906h6.297c.772 0 1.156-.365 1.144-1.097-.01-.735-.392-1.103-1.144-1.103h-2.905a5.366 5.366 0 0 0 1.174-1.758c.278-.66.416-1.359.416-2.089 0-1.652-.663-3.058-1.985-4.222-1.324-1.161-3.004-1.74-5.046-1.74-2.096 0-3.83.579-5.196 1.74-1.363 1.164-2.044 2.57-2.044 4.222 0 .73.14 1.428.427 2.089.283.66.683 1.248 1.19 1.758zM230.098 112.738c.323-.042.508-.138.55-.291.04-.153.059-.26.059-.323V87.709c0-.631-.2-1.203-.61-1.714-.409-.508-.917-.76-1.528-.76h-1.253c-.264 0-.459.057-.582.166-.12.11-.18.3-.18.57v24.323c0 .631-.276 1.085-.826 1.376a69.68 69.68 0 0 0-1.344.703c-.291.16-.385.37-.294.626.094.252.24.37.444.35zM210.4 107.65a1.952 1.952 0 0 0-.597.382l-1.282 1.433c-.183.227-.207.459-.077.706.131.246.373.296.72.153a9.161 9.161 0 0 1 1.268-.385c.414-.094.93-.133 1.541-.133h9.72c.591-.02.934-.203 1.038-.55a1.683 1.683 0 0 0 0-1.011c-.693-3.24-2.57-6.53-5.638-9.867-3.068-3.347-6.086-5.596-9.06-6.76-.39-.138-.735-.091-1.041.155-.306.247-.153.6.458 1.073a29.918 29.918 0 0 1 7.031 7.818c1.892 3.038 2.965 5.331 3.206 6.878h-6.384c-.412 0-.708.034-.903.108M242.534 104.716a37.156 37.156 0 0 0-5.686-1.85c-.587-.14-.97-.03-1.145.336-.17.367.005.673.535.917 1.998.917 4.045 2.042 6.141 3.379 2.101 1.331 3.191 2.47 3.273 3.405.04.489-.178.856-.659 1.098-.476.249-.829.412-1.053.49-.266.102-.39.314-.367.627.022.318.204.454.552.417l6.54-.614c.444-.042.706-.21.78-.506.069-.296.076-.545.014-.745-.143-.493-.394-.979-.75-1.47a9.118 9.118 0 0 0-1.329-1.432 14.256 14.256 0 0 1 1.697-.69c.478-.151 1.132-.312 1.97-.474.612-.104 1.135-.136 1.574-.106.436.032.799-.037 1.085-.198.695-.39 1.42-.924 2.185-1.605.764-.686 1.046-1.334.84-1.943-.12-.388-.344-.649-.67-.795-.33-.143-.833-.143-1.529 0-1.181.203-2.528.679-4.032 1.438-1.51.755-3.169 1.731-4.984 2.937-1.428-.959-3.09-1.832-4.982-2.616m-6.663-5.667c-.548 0-.873.034-.98.103-.098.074-.228.2-.391.385l-1.043 1.344c-.183.345-.183.61 0 .792.185.187.429.194.732.032.533-.244.957-.387 1.287-.43.326-.036.925-.056 1.803-.056h22.92c.915 0 1.374-.363 1.374-1.088 0-.722-.459-1.082-1.374-1.082h-10.392v-2.63h6.663c.225 0 .383-.046.474-.14.091-.089.136-.246.136-.47v-4.341c0-.368-.126-.68-.38-.95-.26-.263-.555-.394-.903-.394H242.84v-1.62c0-.18.04-.326.126-.427.076-.104.232-.175.456-.22h13.17c.712 0 1.07-.335 1.07-1.008 0-.671-.358-1.006-1.07-1.006h-14.728c-1.571 0-2.548.293-2.938.873-.384.582-.577 1.29-.577 2.123v.796c0 .77-.318 1.226-.947 1.36-.633.13-.947.36-.947.69 0 .202.05.33.148.377a.787.787 0 0 0 .37.08h15.584v2.256h-13.263c-.466 0-.8.041-.994.125-.19.08-.372.215-.533.395l-.979 1.378c-.162.208-.177.41-.047.624.136.215.321.262.565.141.474-.183.88-.335 1.24-.459.358-.123.854-.182 1.48-.182h5.199v2.629zM282.722 110.293c0 .632-.274 1.086-.826 1.379-.55.281-.999.518-1.344.7-.286.16-.382.37-.291.63.094.248.24.367.444.347l5.593-.612c.325-.04.508-.135.547-.29.042-.151.062-.257.062-.324v-13.41c0-.637-.202-1.204-.61-1.714-.409-.51-.917-.765-1.528-.765h-1.285c-.264 0-.459.054-.582.17-.12.111-.18.299-.18.565v6.695h-4.984c-.143 0-.254.02-.335.074a1.367 1.367 0 0 0-.272.23l-1.01 1.285c-.124.16-.2.34-.233.532a.562.562 0 0 0 .173.503c.222.227.567.232 1.038.018.469-.215.918-.323 1.344-.323h4.279zm-8.205-22.096c.804-.71 1.702-1.07 2.706-1.07.956 0 1.847.36 2.673 1.07.824.715 1.235 1.62 1.235 2.723 0 1.12-.411 2.024-1.235 2.715-.826.698-1.717 1.04-2.673 1.04-1.004 0-1.902-.342-2.706-1.04-.806-.69-1.208-1.596-1.208-2.715 0-1.103.402-2.008 1.208-2.723m8.296 7.107c1.714-.989 2.568-2.449 2.568-4.384 0-1.92-.854-3.374-2.568-4.37a10.9 10.9 0 0 0-5.59-1.5c-2.02 0-3.882.5-5.596 1.5-1.71.996-2.567 2.45-2.567 4.37 0 1.935.858 3.395 2.567 4.384a11.04 11.04 0 0 0 5.596 1.48c2.014 0 3.879-.496 5.59-1.48m-15.115 4.661a21.788 21.788 0 0 0-4.231-2.567c-.63-.288-1.051-.251-1.268.106-.215.355-.086.705.382 1.053 2.042 1.51 3.633 3.295 4.785 5.364 1.151 2.067 1.765 3.75 1.847 5.058h-3.426c-.466 0-.767.044-.9.136a2.81 2.81 0 0 0-.439.411l-1.1 1.288c-.207.347-.212.59-.015.73.19.143.422.155.686.032a4.855 4.855 0 0 1 1.33-.43c.416-.058 1.013-.09 1.787-.09h11.275c.775 0 1.162-.346 1.162-1.039s-.387-1.038-1.162-1.038h-4.182a14.57 14.57 0 0 0-.846-2.047 25.154 25.154 0 0 0-1.11-1.988c.279-.288.673-.584 1.174-.897a10.618 10.618 0 0 1 1.514-.812c.627-.268 1.112-.419 1.448-.46.338-.043.599-.144.782-.307a6.11 6.11 0 0 0 1.711-2.061c.427-.824.446-1.465.06-1.909a1.269 1.269 0 0 0-.977-.49c-.407-.018-.876.068-1.406.275-.772.326-1.808 1.11-3.105 2.356-1.29 1.24-2.11 2.093-2.454 2.562a20.564 20.564 0 0 0-3.322-3.236M297.391 104.79v-3.388c0-.451.077-.765.227-.95.153-.187.486-.276.994-.276h8.77c.47 0 .786.074.949.217.162.14.244.466.244.977v3.42zm11.184 1.99v1.986c0 .631-.188 1.07-.567 1.314-.373.242-.735.486-1.085.733-.385.2-.538.414-.457.64.082.225.254.35.516.368l5.23-.609c.323-.044.508-.138.545-.296a1.18 1.18 0 0 0 .065-.318v-10.266c0-.92-.309-1.507-.93-1.759-.624-.254-1.32-.382-2.096-.382h-13.567c-.776 0-1.484.12-2.125.367-.642.245-.96.836-.96 1.774v7.822c0 .631-.19 1.068-.567 1.312-.377.247-.75.49-1.115.732-.387.205-.542.42-.458.647.079.22.251.345.52.367l5.223-.614c.348-.04.54-.158.58-.353.044-.192.064-.3.064-.32v-3.145zm-7.67-13.297c0 .634-.11 1.058-.333 1.27-.227.217-.545.447-.952.69-.448.178-.601.403-.456.669.14.266.313.392.518.367.079 0 .713-.054 1.896-.155 1.18-.099 2.21-.192 3.086-.271.162-.022.28-.096.35-.23a.773.773 0 0 0 .108-.35V91.13h10.39c.917 0 1.376-.355 1.376-1.07 0-.715-.459-1.068-1.376-1.068h-23.685c-.55 0-.907.047-1.07.136a1.438 1.438 0 0 0-.454.446l-.979 1.465c-.187.345-.187.614 0 .797.18.182.425.195.73.03.53-.25.974-.43 1.33-.553.357-.123.974-.183 1.85-.183h7.671zM345.125 107.117c.634.037.952-.397.964-1.3.01-.91-.313-1.361-.964-1.361h-3.452v-5.164a2.67 2.67 0 0 0-.612-1.714c-.407-.508-.915-.762-1.529-.762h-1.314c-.264 0-.46.054-.577.168-.124.113-.185.3-.185.567v12.742c0 .632-.274 1.088-.827 1.379-.547.28-.998.518-1.344.7-.283.16-.382.37-.288.629.091.25.237.367.441.348l5.623-.612c.328-.04.51-.136.55-.29.042-.151.062-.257.062-.324v-5.255zm-15.413-18.873c.801-.703 1.704-1.053 2.703-1.053.957 0 1.847.35 2.673 1.053.824.705 1.236 1.615 1.236 2.737 0 1.142-.412 2.052-1.236 2.732-.826.684-1.716 1.024-2.673 1.024-.999 0-1.902-.34-2.703-1.024-.809-.68-1.21-1.59-1.21-2.732 0-1.122.401-2.032 1.21-2.737m8.294 7.12c1.709-.99 2.567-2.452 2.567-4.383 0-1.919-.858-3.374-2.567-4.372-1.71-1-3.576-1.497-5.591-1.497-2.02 0-3.884.498-5.596 1.497-1.709.998-2.567 2.453-2.567 4.372 0 1.931.858 3.393 2.567 4.382 1.712.992 3.576 1.485 5.596 1.485 2.015 0 3.882-.493 5.59-1.485m-14.515 9.672v-2.934c0-.385.05-.686.155-.9.099-.212.457-.319 1.066-.319h3.21c.592 0 .943.126 1.054.395.11.264.17.644.17 1.132v2.626zm5.655 2.141v1.862c0 .634-.193 1.073-.57 1.317-.372.244-.737.49-1.083.732-.387.205-.54.417-.456.639.08.227.252.35.518.372l5.073-.614c.328-.042.508-.135.55-.293.04-.15.064-.254.064-.318v-9.537c0-.934-.269-1.578-.797-1.923-.527-.348-1.183-.52-1.958-.52h-8.343c-.774 0-1.425.172-1.958.52-.527.345-.791.989-.791 1.923v7.095c0 .63-.188 1.068-.565 1.31l-1.115.732c-.384.205-.54.422-.458.644.081.224.254.35.52.367l5.073-.611c.345-.037.54-.158.582-.353.037-.192.059-.3.059-.32v-3.024zM355.455 88.228c.917-.67 1.968-1.006 3.149-1.006 1.14 0 2.177.336 3.117 1.006.935.674 1.406 1.547 1.406 2.627 0 1.082-.471 1.963-1.406 2.643a5.164 5.164 0 0 1-3.117 1.026c-1.181 0-2.232-.34-3.15-1.026-.917-.68-1.373-1.56-1.373-2.643 0-1.08.456-1.953 1.374-2.627m9.307 6.89c1.884-.966 2.826-2.387 2.826-4.263 0-1.855-.945-3.268-2.841-4.247-1.897-.979-3.943-1.465-6.143-1.465-2.2 0-4.247.486-6.143 1.465-1.897.98-2.841 2.392-2.841 4.247 0 1.876.952 3.297 2.855 4.264 1.904.969 3.956 1.452 6.156 1.452 2.205 0 4.247-.483 6.13-1.452m-11.124 9.183a35.466 35.466 0 0 0-5.852-1.985c-.592-.14-.974-.027-1.147.35-.172.38.005.679.538.903 2.057.893 4.168 2.118 6.338 3.667 2.172 1.549 3.297 2.73 3.378 3.546.06.489-.153.856-.643 1.1-.486.24-.844.405-1.066.489-.269.1-.392.308-.37.628.02.311.208.45.55.407l6.545-.609c.444-.04.698-.214.76-.518.062-.308.071-.554.032-.737-.143-.488-.397-.984-.752-1.494a9.07 9.07 0 0 0-1.33-1.497 14.37 14.37 0 0 1 1.791-.723c.496-.15 1.176-.306 2.035-.471.769-.143 1.336-.2 1.696-.17.355.034.671-.035.96-.197.693-.388 1.425-.928 2.2-1.62.776-.689 1.06-1.345.855-1.954-.12-.387-.348-.644-.683-.762-.343-.123-.853-.116-1.546.025-1.184.207-2.543.69-4.082 1.455-1.541.764-3.215 1.758-5.026 2.981-1.49-1.023-3.215-1.958-5.18-2.813m17.797-4.158c.92 0 1.384-.358 1.384-1.083 0-.723-.464-1.085-1.384-1.085h-24.323c-.55 0-.876.034-.977.108a2.291 2.291 0 0 0-.397.38L344.7 99.81c-.185.348-.185.61 0 .797.18.185.426.192.732.032.53-.244.957-.387 1.285-.43.326-.039.925-.063 1.8-.063h8.19v.828c0 .63-.11 1.056-.335 1.268-.222.212-.54.439-.95.688-.446.182-.596.407-.456.67.143.265.316.385.52.368l4.977-.459c.23-.02.363-.096.4-.226.044-.134.062-.252.062-.353v-2.784zM383.28 88.212c.905-.642 1.963-.962 3.162-.962 1.184 0 2.234.32 3.166.962.925.643 1.389 1.524 1.389 2.643 0 1.142-.464 2.032-1.389 2.676-.932.644-1.982.962-3.166.962-1.199 0-2.257-.318-3.162-.962-.91-.644-1.359-1.534-1.359-2.676 0-1.12.45-2 1.36-2.643m9.18 6.878c1.877-.987 2.814-2.4 2.814-4.235 0-1.832-.942-3.243-2.828-4.232a12.832 12.832 0 0 0-6.035-1.48 12.8 12.8 0 0 0-6.01 1.48c-1.881.99-2.823 2.4-2.823 4.232 0 1.835.947 3.248 2.84 4.235a12.902 12.902 0 0 0 6.023 1.482c2.14 0 4.145-.498 6.02-1.482m6.789 4.875c.915 0 1.373-.353 1.373-1.053 0-.705-.458-1.058-1.373-1.058h-24.025c-.545 0-.873.037-.977.106-.106.07-.231.197-.394.382l-1.038 1.288c-.188.342-.188.609 0 .789.18.185.426.195.73.034.53-.244.956-.387 1.282-.429.33-.042.927-.059 1.808-.059h7.543v2.047h-4.34c-.631 0-1.3.2-1.998.597-.705.397-1.048 1.124-1.025 2.182v4.432c0 .449-.072.799-.215 1.053a1.835 1.835 0 0 1-.55.626 4.478 4.478 0 0 1-.72.43c-.254.123-.375.244-.375.367 0 .12.027.251.086.385.065.125.183.197.368.197h20.38c.777 0 1.161-.336 1.161-1.009 0-.673-.374-1.008-1.13-1.008H381.37v-2.077h14.15c.773 0 1.157-.335 1.145-1.011-.01-.67-.39-1.009-1.144-1.009h-14.151v-.67c0-.674.109-1.076.323-1.206.21-.134.614-.2 1.206-.2h13.263c.774 0 1.159-.348 1.159-1.038 0-.696-.385-1.041-1.16-1.041h-7.546v-2.047zM425.375 93.88c-.404-.507-.917-.761-1.524-.761h-1.29c-.261 0-.456.059-.574.167-.124.111-.188.299-.188.565v16.442c0 .631-.27 1.087-.82 1.378-.553.281-1 .518-1.347.7-.286.16-.383.37-.291.63.09.249.239.367.444.35l5.59-.614c.328-.04.508-.136.55-.291.04-.15.067-.257.067-.323V95.595c0-.632-.212-1.204-.617-1.714m-13.359 1.344c.03 0 .128-.035.313-.106.183-.067.274-.267.274-.595V90.03c.022-.674.13-1.15.336-1.433.204-.286.702-.427 1.497-.427h10.789c.836 0 1.253-.33 1.253-.994 0-.663-.417-.996-1.253-.996H411.35c-.552 0-1.193.185-1.928.552-.73.363-1.098 1.122-1.098 2.262v4.126c0 .49-.266.843-.794 1.072-.53.217-.917.395-1.161.513-.345.163-.471.368-.373.614.107.245.26.358.464.336zm-5.82 3.913c-1.37-1.141-2.69-1.997-3.955-2.567-.587-.264-.982-.234-1.172.089-.195.328-.098.656.291.979 2.054 1.692 3.707 3.652 4.957 5.884 1.258 2.23 1.894 4.03 1.916 5.394 0 .532-.357.969-1.075 1.316-.708.346-1.174.538-1.398.58-.267.099-.38.316-.34.641.041.326.253.479.64.459l6.726-.582c.283-.022.483-.138.596-.35a1.12 1.12 0 0 0 .107-.715 11.25 11.25 0 0 0-.827-2.782c-.409-.94-.902-1.867-1.497-2.784a10.207 10.207 0 0 1 1.633-1.192 9.691 9.691 0 0 1 1.76-.828c.59-.158 1.007-.276 1.254-.348.244-.071.572-.31.974-.718.631-.63 1.09-1.312 1.38-2.03.284-.724.267-1.291-.058-1.698-.27-.326-.679-.499-1.231-.52-.548-.02-1.125.162-1.741.547-.728.451-1.662 1.253-2.792 2.4-1.134 1.153-1.928 2.046-2.4 2.678a25.082 25.082 0 0 0-3.748-3.853M436.287 103.936c.59-.693 1.297-1.039 2.138-1.039.839 0 1.557.346 2.156 1.039.597.692.897 1.519.897 2.478 0 .932-.313 1.736-.944 2.4-.634.658-1.332.99-2.109.99-.776 0-1.47-.332-2.096-.99-.621-.664-.925-1.468-.925-2.4 0-.96.294-1.786.883-2.478m7.229 6.48c1.415-1.102 2.123-2.434 2.123-4.002 0-1.551-.708-2.885-2.123-4.005-1.416-1.125-3.118-1.68-5.09-1.68-1.976 0-3.663.555-5.061 1.68-1.393 1.12-2.091 2.454-2.091 4.005 0 1.568.698 2.9 2.091 4.002 1.398 1.1 3.085 1.648 5.06 1.648 1.973 0 3.675-.548 5.09-1.648m3.421-13.63c-.888-.185-2-.276-3.344-.276h-2.688v-7.882c0-.636-.205-1.2-.614-1.714-.407-.508-.918-.762-1.53-.762h-1.375c-.262 0-.457.055-.58.166-.118.113-.182.303-.182.564v9.628h-5.258c-.469 0-.794.047-.982.138-.18.091-.347.232-.515.412l-.95 1.406c-.14.268-.14.498 0 .7.146.207.36.227.64.064.478-.222.89-.367 1.257-.426.365-.065.935-.092 1.711-.092h10.73c1.707 0 2.982.045 3.818.136.834.091 1.551.24 2.14.444v11.001c0 .631-.276 1.088-.83 1.379-.543.28-1 .518-1.34.7-.283.16-.384.37-.293.629.091.249.24.367.444.348l5.564-.612c.328-.04.503-.136.547-.29.047-.151.06-.257.06-.324V87.708c0-.63-.198-1.2-.607-1.711-.41-.508-.918-.762-1.53-.762h-1.252c-.264 0-.459.057-.582.165-.126.111-.18.301-.18.57v11.549c-.637-.309-1.394-.55-2.279-.733M472.223 95.224a.635.635 0 0 0-.335.08 1.576 1.576 0 0 0-.272.229l-1.013 1.285a1.22 1.22 0 0 0-.23.532.562.562 0 0 0 .17.503c.225.222.573.232 1.041.015.466-.21.915-.318 1.344-.318h4.22v12.742c0 .632-.284 1.088-.826 1.379-.55.281-.999.518-1.344.7-.289.163-.387.373-.289.63.089.25.234.367.44.35l5.656-.612c.324-.042.504-.138.545-.294.04-.15.06-.256.06-.32v-17.08c0-.637-.2-1.202-.605-1.712-.411-.51-.92-.765-1.533-.765h-1.342c-.264 0-.459.055-.582.168-.12.114-.18.299-.18.565v1.923zm-8.19 10.758c.59-.513 1.236-.762 1.924-.762.712 0 1.37.249 1.96.762.59.508.886 1.171.886 1.987 0 .817-.296 1.485-.886 2-.59.52-1.248.78-1.96.78-.688 0-1.334-.26-1.924-.78-.59-.515-.885-1.183-.885-2 0-.816.296-1.48.885-1.987m2.996-12.131c.023 0 .121-.035.304-.109.19-.069.276-.266.276-.594V90.09c.017-.668.136-1.147.34-1.43.205-.289.698-.432 1.495-.432h10.878c.917 0 1.376-.33 1.376-.994 0-.663-.459-.994-1.376-.994h-13.72c-.55 0-1.188.188-1.93.553-.728.365-1.095 1.117-1.095 2.261v2.535c0 .491-.264.844-.797 1.07-.53.225-.915.395-1.159.521-.345.158-.468.365-.37.612.101.244.26.355.464.335zm3.853 17.62c1.341-.888 2.017-2.054 2.017-3.502 0-1.425-.676-2.584-2.017-3.482-1.345-.897-2.987-1.344-4.925-1.344-1.914 0-3.547.447-4.905 1.344-1.352.898-2.033 2.057-2.033 3.482 0 1.473.681 2.64 2.033 3.517 1.358.873 2.991 1.312 4.905 1.312 1.938 0 3.58-.446 4.925-1.327m-11.949-11.995c-.47 0-.796.042-.979.136-.187.093-.36.227-.523.412l-.942 1.284c-.145.264-.145.499 0 .703.14.205.353.225.639.06.466-.22.89-.366 1.253-.425.367-.061.94-.093 1.714-.093h8.434c2.298 0 3.857.034 4.673.106.819.074 1.662.192 2.538.352.468.101.73.018.782-.261.049-.276-.097-.523-.444-.745-.755-.471-1.645-.843-2.661-1.117-1.021-.276-2.535-.412-4.55-.412h-1.076v-2.202c0-.632-.2-1.152-.604-1.559-.412-.407-.922-.611-1.534-.611h-1.284c-.264 0-.454.059-.575.167-.128.111-.188.301-.188.568v3.637zM492.837 100.01c.58-.767 1.26-1.147 2.037-1.147.79 0 1.49.38 2.091 1.147.6.764.9 1.704.9 2.826s-.295 2.062-.885 2.824c-.592.767-1.275 1.149-2.052 1.149-.794 0-1.487-.382-2.074-1.15-.594-.761-.89-1.7-.89-2.823 0-1.122.291-2.062.873-2.826m4.202-6.247h1.012c1.854 0 3.329.052 4.429.163 1.097.113 2.054.427 2.875.935v15.433c0 .631-.276 1.085-.826 1.378-.552.281-1.004.516-1.346.7-.287.16-.383.37-.291.63.09.249.239.367.443.347l5.47-.611c.326-.04.51-.139.548-.291.044-.153.064-.26.064-.323V87.709c0-.631-.205-1.204-.612-1.714-.404-.508-.917-.76-1.531-.76h-1.157c-.269 0-.463.057-.58.166-.123.11-.182.3-.182.57v6.9c-.658-.489-1.482-.822-2.478-.99-.997-.174-2.368-.263-4.097-.263h-11.49c-.423 0-.72.02-.87.047-.153.032-.308.138-.476.323l-1.097 1.558c-.163.222-.163.427 0 .612.163.182.385.227.67.123.47-.224.913-.37 1.33-.429.42-.06 1.011-.089 1.788-.089h4.126V97c-1.426.367-2.624 1.078-3.591 2.138-.97 1.06-1.453 2.3-1.453 3.729a5.2 5.2 0 0 0 .474 2.187c.318.68.757 1.275 1.33 1.788h-1.804c-.466 0-.774.037-.914.118-.146.084-.296.227-.46.43l-1.065 1.314c-.21.407-.21.683 0 .824.205.145.412.133.634-.027.41-.188.79-.319 1.135-.395.35-.086.806-.126 1.373-.126h4.402c0 .632-.032 1.221-.088 1.768-.065.555-.301.925-.71 1.105-.467.264-.667.535-.607.812.064.273.286.392.67.35l4.375-.368c.222-.02.39-.1.503-.231.109-.131.156-.311.136-.533l-.062-2.903h5.594c.892 0 1.344-.355 1.344-1.07 0-.715-.452-1.068-1.344-1.068h-2.227a5.946 5.946 0 0 0 1.312-1.788 5.031 5.031 0 0 0 .488-2.187c0-1.428-.493-2.664-1.48-3.714-.989-1.046-2.217-1.764-3.687-2.153z" style="fill:#505557;fill-opacity:1;fill-rule:nonzero;stroke:none;stroke-width:2.46612" transform="matrix(1.33333 0 0 -1.33333 -200.183 291.255)"/></svg>