<svg xmlns="http://www.w3.org/2000/svg" width="1166.4543mm" height="200mm" viewBox="0 0 1166.4543 200"><path d="m-81.802-38.842-7.823 23.582-6.35-23.582 6.35-23.585z" style="fill:#33b649;fill-opacity:1;fill-rule:nonzero;stroke:none;stroke-width:2.38085" transform="matrix(1.97893 0 0 1.97893 323.25 176.872)"/><path d="m-51.429-38.842-10.864-23.585h-27.332l7.819 23.585z" style="fill:#127bca;fill-opacity:1;fill-rule:nonzero;stroke:none;stroke-width:2.38085" transform="matrix(1.97893 0 0 1.97893 323.25 176.872)"/><path d="m-81.806-38.842-7.82 23.582h27.334l10.864-23.582z" style="fill:#0b4e82;fill-opacity:1;fill-rule:nonzero;stroke:none;stroke-width:2.38085" transform="matrix(1.97893 0 0 1.97893 323.25 176.872)"/><path d="M-95.965-55.691h-33.687v-33.687h33.687z" style="fill:#33b649;fill-opacity:1;fill-rule:nonzero;stroke:none;stroke-width:2.38085" transform="matrix(1.97893 0 0 1.97893 323.25 176.872)"/><path d="M-129.656-22.002h-33.69v-33.684h33.69z" style="fill:#127bca;fill-opacity:1;fill-rule:nonzero;stroke:none;stroke-width:2.38085" transform="matrix(1.97893 0 0 1.97893 323.25 176.872)"/><path d="M-129.656 11.687h-33.69V-22h33.69z" style="fill:#33b649;fill-opacity:1;fill-rule:nonzero;stroke:none;stroke-width:2.38085" transform="matrix(1.97893 0 0 1.97893 323.25 176.872)"/><path d="M-95.967 11.687h-33.69V-22h33.69z" style="fill:#127bca;fill-opacity:1;fill-rule:nonzero;stroke:none;stroke-width:2.38085" transform="matrix(1.97893 0 0 1.97893 323.25 176.872)"/><path d="M-21.633-57.484H-8.882s6.586 16.608 6.731 16.977h6.955C4.45-41.302-4.634-62-4.786-62.347h-20.94c-.15.346-9.147 21.045-9.495 21.84h6.907l6.68-16.977M-18.39-13.9h6.228v-17.034h18.56v-4.926H-37.19v4.926h18.8zM51.599-29.528H34.333v-10.98h13.83v-4.862H20.372v-12.154H48.17v-4.862H14.048v21.877h13.911v10.981H10.65v4.924h40.95zM65.493-31.909h-4.035v16.647H96.34v-4.862H67.684v-9.57h4.033v-10.79h12.847v-4.924h-2.412V-62.35H57.515v4.859H75.93v12.083H55.87v4.923h9.623z" style="fill:#231f20;fill-opacity:1;fill-rule:nonzero;stroke:none;stroke-width:2.38085" transform="matrix(1.97893 0 0 1.97893 323.25 176.872)"/><path d="M89.322-28.155h6.27v-35.52h-6.27v8.269h-5.524v4.926h5.524zM119.253-34.246h-7.992V-57.54h7.992zm6.224-28.156h-20.488v33.018h20.488zM135.07-47.58h4.597v33.688h5.938v-49.883h-5.938v11.392h-4.598v-11.392h-5.452v48.51h5.452zM186.567-20.12h-20.8v-4.988H186.568zm0-9.85h-20.8v-5.17h-6.123v19.882h33.204v-48.496H186.567v21.195h-26.242v-5.186h19.406v-14.642h-25.277v4.864h19.406v5.04h-19.406v14.785h32.113zM206.39-28.54c.1-.46 6.448-29.02 6.448-29.02h4.828s6.352 28.56 6.452 29.02h6.395l-6.726-29.02h5.443v-4.862H201.272v4.862h5.447l-6.728 29.02zM239.918-63.756h-6.274v49.833h6.274zM268.805-44.934h6.224v-17.48h-26.497v4.862h20.273z" style="fill:#231f20;fill-opacity:1;fill-rule:nonzero;stroke:none;stroke-width:2.38085" transform="matrix(1.97893 0 0 1.97893 323.25 176.872)"/><path d="M280.543-28.162h6.271v-22.094h5.481v-4.865h-5.48v-8.556H280.542v23.442h-19.235v-10.762h-6.223v10.762h-7.474v4.864h32.932zM260.334-31.96H254.4v16.697h32.75v-4.864h-26.524V-31.96zM327.7-13.901h6.276v-49.865H327.7v30.744h-23.047v-10.497h16.557v-18.895h-22.426v4.924h16.55v9.107h-16.55v20.223H327.7zM369.088-45.208h5.693V-62.41H343.358v4.862h25.73z" style="fill:#231f20;fill-opacity:1;fill-rule:nonzero;stroke:none;stroke-width:2.38085" transform="matrix(1.97893 0 0 1.97893 323.25 176.872)"/><path d="M377.937-43.052h-19.144v-8.059H352.962v8.06h-12.2v4.923h37.175zM349.24-24.472c0-1.87.825-3.395 2.532-4.662 1.881-1.379 4.426-2.08 7.571-2.08 3.122 0 5.638.701 7.486 2.08 1.733 1.269 2.58 2.793 2.58 4.662 0 1.716-.847 3.166-2.575 4.435-1.874 1.379-4.398 2.079-7.49 2.079-3.15 0-5.698-.7-7.574-2.079-1.705-1.266-2.53-2.716-2.53-4.435m22.06 8.102c2.643-1.957 3.986-4.683 3.986-8.1 0-3.524-1.343-6.328-3.988-8.323-2.731-2.055-6.755-3.095-11.955-3.095-5.226 0-9.278 1.04-12.037 3.095-2.617 1.995-3.948 4.797-3.948 8.323 0 3.417 1.331 6.145 3.948 8.105 2.79 2.088 6.842 3.147 12.037 3.147 5.17 0 9.193-1.06 11.957-3.152M394.75-57.555h4.123s5.988 29.344 6.08 29.81h6.443c-.157-.707-7.773-34.222-7.878-34.672h-13.461c-.095.452-7.626 33.965-7.785 34.672h6.359l6.119-29.81M420.613-48.342h5.479v-4.74h-5.479v-10.674h-6.275V-13.9h6.275z" style="fill:#231f20;fill-opacity:1;fill-rule:nonzero;stroke:none;stroke-width:2.38085" transform="matrix(1.97893 0 0 1.97893 323.25 176.872)"/></svg>