<svg xmlns="http://www.w3.org/2000/svg" width="629.99371pt" height="150pt" viewBox="0 0 629.99368 150"><defs><clipPath id="a"><path d="M-1785.84-841.89h-595.28V0h595.28z"/></clipPath></defs><g clip-path="url(#a)" transform="translate(-148.228 -225.147)"><path fill="#009fdf" d="M1035.698-1907.978c9.91 17.164 4.008 39.19-13.156 49.099-17.164 9.91-39.189 4.009-49.099-13.155l-68.355-118.392v-143.772Zm-144.414-78.751v145.666l-71.886-124.51v-145.665l.001-16.513v-20.73c0-12.805 6.897-24.743 18.006-31.156 5.42-3.13 11.622-4.784 17.934-4.786 13.271 0 24.856 7.249 31.083 17.976a35.726 35.726 0 0 1 4.527 13.325c.197 1.524.336 3.066.334 4.643l.001 134.143v13.804Zm-4.825 164.916c.788 1.365 1.441 2.768 2.031 4.186a35.76 35.76 0 0 1 2.743 13.803c-.028 12.403-6.436 24.474-17.93 31.11-17.163 9.91-39.189 4.008-49.099-13.156l-68.356-118.394v-143.773zm-144.414-78.753.002 260.552-71.888-124.512-.003-260.552.001-16.506v-20.726c.001-12.81 6.901-24.75 18.007-31.162a35.925 35.925 0 0 1 17.935-4.785c13.271 0 24.856 7.249 31.082 17.975a35.631 35.631 0 0 1 4.527 13.325c.197 1.524.334 3.067.335 4.643l.001 134.14v13.804Zm-4.813 279.819c.785 1.359 1.436 2.756 2.024 4.168a35.781 35.781 0 0 1 2.751 13.803c-.022 12.41-6.432 24.489-17.93 31.128-17.165 9.91-39.19 4.008-49.1-13.156l-118.113-204.574-.002-143.774zM543.06-1785.681l.001 145.672-71.888-124.512-.002-145.673v-37.232c.001-12.807 6.902-24.748 18.01-31.16 5.42-3.13 11.622-4.784 17.933-4.786 13.271 0 24.857 7.249 31.083 17.976a35.726 35.726 0 0 1 4.527 13.325c.197 1.524.336 3.066.335 4.643v134.14l.001 13.804zm-4.828 164.913c.79 1.367 1.441 2.77 2.032 4.19a35.704 35.704 0 0 1 2.742 13.804c-.029 12.402-6.438 24.47-17.93 31.106-17.164 9.909-39.19 4.008-49.1-13.156l-118.085-204.527v-143.773zm-194.145-164.886.001 260.523-71.887-124.511-.003-260.524V-1947.402c.001-12.807 6.901-24.747 18.007-31.16 5.42-3.13 11.625-4.784 17.937-4.786 13.268 0 24.852 7.247 31.08 17.97a35.663 35.663 0 0 1 2.881 6.306 35.521 35.521 0 0 1 1.647 7.019c.198 1.526.336 3.07.336 4.648v134.144l.001 13.804zm-4.825 279.77c.788 1.365 1.44 2.768 2.03 4.186a35.449 35.449 0 0 1 2.085 6.9c.447 2.292.663 4.6.658 6.903-.026 12.403-6.435 24.474-17.929 31.11-17.164 9.91-39.188 4.008-49.098-13.156l-68.356-118.395v-143.768zm-144.414-78.752.001 145.67-71.889-124.514v-182.902c0-12.808 6.902-24.75 18.008-31.161 5.42-3.13 11.623-4.784 17.935-4.786 13.271 0 24.856 7.249 31.082 17.976a35.684 35.684 0 0 1 4.527 13.325c.197 1.524.336 3.066.335 4.643l.001 134.14v13.808zm-4.825 164.917c.788 1.365 1.44 2.767 2.031 4.185a35.696 35.696 0 0 1 2.743 13.803c-.027 12.404-6.436 24.475-17.93 31.11-17.164 9.91-39.189 4.009-49.099-13.155l-68.357-118.395v-143.773zm-144.415-78.753.002 260.555-71.888-124.512v-260.554l-.002-16.507v-20.728c.001-12.807 6.901-24.747 18.01-31.16a35.913 35.913 0 0 1 17.932-4.785c13.271 0 24.857 7.249 31.083 17.975a35.627 35.627 0 0 1 2.881 6.306 35.607 35.607 0 0 1 1.646 7.019c.198 1.524.335 3.067.335 4.643l.001 134.14v13.804zm-4.814 279.82c.785 1.359 1.435 2.756 2.024 4.168a35.64 35.64 0 0 1 2.09 6.9c.445 2.294.665 4.602.661 6.903-.02 12.409-6.432 24.489-17.93 31.128-17.165 9.91-39.19 4.008-49.1-13.156l-68.366-118.41v-143.773zm-144.424-78.768v203.088l-71.889-124.514v-240.322c0-12.808 6.9-24.748 18.008-31.161a35.933 35.933 0 0 1 17.933-4.785c13.278 0 24.87 7.257 31.095 17.992a35.744 35.744 0 0 1 4.52 13.33c.195 1.516.332 3.052.331 4.62l.001 134.145zm-4.815 222.35c.785 1.36 1.435 2.758 2.024 4.169a35.636 35.636 0 0 1 2.088 6.9c.448 2.293.666 4.602.662 6.903-.02 12.41-6.43 24.49-17.93 31.129-17.164 9.909-39.189 4.008-49.099-13.156l-142.977-247.64v-143.77zm-219.034-207.994v145.669l-71.888-124.513v-182.904c0-12.807 6.9-24.747 18.007-31.16a35.914 35.914 0 0 1 17.934-4.785c13.278 0 24.87 7.256 31.094 17.992a35.663 35.663 0 0 1 2.877 6.308 35.55 35.55 0 0 1 1.643 7.02c.196 1.518.332 3.054.332 4.623v147.946zm-4.829 164.91c.79 1.367 1.442 2.77 2.033 4.19a35.74 35.74 0 0 1 2.741 13.804c-.029 12.402-6.438 24.47-17.93 31.106-17.164 9.909-39.189 4.008-49.099-13.156l-118.087-204.53v-143.771zm-194.144-164.885v260.54l-71.889-124.514V-1444.788c0-12.807 6.901-24.747 18.008-31.16a35.92 35.92 0 0 1 17.933-4.785c13.27 0 24.854 7.246 31.081 17.97a35.623 35.623 0 0 1 4.529 13.324c.2 1.526.336 3.07.336 4.649l.001 134.144v13.802zm-4.833 279.773c.787 1.364 1.44 2.765 2.03 4.18a35.569 35.569 0 0 1 2.085 6.903c.447 2.292.665 4.6.66 6.9-.026 12.407-6.436 24.48-17.93 31.116-17.164 9.91-39.19 4.009-49.1-13.155l-68.375-118.428v-143.772zm-144.434-78.785.001 145.668-71.889-124.513V-1243.8c0-12.806 6.901-24.747 18.01-31.16a35.905 35.905 0 0 1 17.932-4.785c13.285 0 24.881 7.264 31.104 18.009a35.697 35.697 0 0 1 4.513 13.333c.194 1.51.33 3.039.33 4.6V-1095.851zm-4.805 164.95c.781 1.353 1.43 2.744 2.017 4.15a35.638 35.638 0 0 1 2.092 6.902c.45 2.292.67 4.6.666 6.902-.016 12.415-6.426 24.503-17.93 31.145-17.165 9.91-39.19 4.008-49.1-13.155l-68.375-118.428v-143.772zm-144.434-78.785v260.523l-71.889-124.513v-297.759c.001-12.806 6.901-24.746 18.01-31.16a35.91 35.91 0 0 1 17.933-4.784c13.284 0 24.882 7.263 31.103 18.009a35.697 35.697 0 0 1 4.514 13.333c.194 1.51.328 3.039.33 4.6v147.948zm-4.802 279.809c.781 1.353 1.43 2.742 2.016 4.146a35.702 35.702 0 0 1 2.76 13.804c-.015 12.418-6.426 24.507-17.932 31.15-17.164 9.91-39.189 4.008-49.099-13.156l-118.113-204.574v-143.771Zm-194.17-164.931v145.669l-71.888-124.512v-182.905c0-12.805 6.901-24.746 18.01-31.16a35.902 35.902 0 0 1 17.932-4.784c13.286 0 24.886 7.265 31.107 18.014a35.712 35.712 0 0 1 4.511 13.334c.193 1.508.328 3.035.328 4.594v134.144zm-4.817 164.933c.785 1.359 1.435 2.756 2.024 4.168a35.618 35.618 0 0 1 2.09 6.9c.447 2.294.665 4.6.661 6.904-.02 12.409-6.432 24.489-17.93 31.127-17.164 9.91-39.189 4.008-49.099-13.156l-142.976-247.638v-143.771zm-223.848 14.356c.784 1.359 1.434 2.756 2.024 4.168a35.73 35.73 0 0 1 2.75 13.804c-.02 12.409-6.43 24.488-17.93 31.127-17.164 9.91-39.19 4.009-49.099-13.155l-68.366-118.411v-143.772zm-149.229 201.067c.781 1.354 1.43 2.745 2.017 4.15a35.626 35.626 0 0 1 2.092 6.903c.45 2.29.668 4.599.666 6.9-.016 12.417-6.426 24.504-17.93 31.147-17.165 9.909-39.19 4.008-49.1-13.156l-68.376-118.428v-143.772zm-144.434-78.785v145.668l-71.888-124.512v-182.904c0-12.806 6.9-24.746 18.01-31.16a35.903 35.903 0 0 1 17.932-4.785c13.284 0 24.881 7.264 31.103 18.009a35.674 35.674 0 0 1 4.514 13.333c.194 1.51.328 3.039.328 4.6l.001 134.144zm-4.806 164.95c.782 1.353 1.43 2.744 2.017 4.15a35.71 35.71 0 0 1 2.759 13.804c-.015 12.415-6.427 24.503-17.93 31.145-17.166 9.91-39.19 4.009-49.1-13.155l-68.376-118.428v-143.772zm-144.433-78.785v260.523l-71.889-124.513V-655.02c0-12.807 6.901-24.747 18.008-31.16a35.906 35.906 0 0 1 17.934-4.785c13.285 0 24.881 7.264 31.104 18.009a35.67 35.67 0 0 1 2.874 6.31 35.564 35.564 0 0 1 1.64 7.023c.193 1.51.328 3.039.328 4.6V-507.072zm-4.803 279.81c.781 1.352 1.43 2.742 2.015 4.146a35.71 35.71 0 0 1 2.761 13.803c-.014 12.418-6.426 24.507-17.93 31.15-17.165 9.91-39.19 4.008-49.1-13.156l-118.113-204.574v-143.771zm-194.17-164.932v145.669l-71.888-124.513v-182.904c0-12.805 6.9-24.746 18.01-31.16a35.91 35.91 0 0 1 17.931-4.784c13.287 0 24.886 7.265 31.107 18.014a35.67 35.67 0 0 1 4.511 13.334c.194 1.508.328 3.035.328 4.595l.001 134.143v13.802zm-4.806 164.95c.781 1.354 1.43 2.745 2.017 4.15a35.702 35.702 0 0 1 2.758 13.804c-.016 12.416-6.426 24.504-17.93 31.146-17.165 9.91-39.19 4.008-49.1-13.156l-118.123-204.59v-143.773zM-2098.26-98.557c.782 1.354 1.43 2.745 2.017 4.15a35.692 35.692 0 0 1 2.759 13.804c-.016 12.416-6.427 24.503-17.93 31.146-17.165 9.909-39.19 4.008-49.1-13.156l-68.377-118.43v-143.77zm-144.434-78.785v145.667l-71.887-124.511v-182.906c0-12.806 6.898-24.746 18.005-31.158a35.903 35.903 0 0 1 17.936-4.785c13.285 0 24.881 7.264 31.104 18.009a35.674 35.674 0 0 1 4.514 13.333c.193 1.51.328 3.039.328 4.6v147.947zm-4.805 164.95c.781 1.353 1.43 2.745 2.017 4.15a35.744 35.744 0 0 1 2.093 6.902c.447 2.293.667 4.6.664 6.902-.015 12.416-6.425 24.503-17.93 31.146-17.164 9.909-39.189 4.008-49.099-13.156l-149.242-258.49c-9.909-17.164-4.008-39.19 13.156-49.1 17.164-9.91 39.19-4.007 49.1 13.157zM898.377-2173.35c-8.604-14.856-24.634-24.874-43.038-24.876-9.045 0-17.526 2.415-24.836 6.635-14.889 8.596-24.909 24.686-24.909 43.112v158.999l-56.422-97.725-.033.019c-8.606-14.854-24.636-24.872-43.04-24.875-9.045.002-17.527 2.415-24.836 6.635-14.89 8.596-24.908 24.685-24.91 43.114l.002 273.877-106.167-183.884-.035.02c-8.604-14.856-24.635-24.874-43.039-24.876-9.046.002-17.528 2.415-24.836 6.634-14.889 8.597-24.909 24.687-24.91 43.114l.001 158.998L351.21-1972.3l-.033.02c-8.605-14.854-24.633-24.871-43.035-24.871-9.047.002-17.529 2.415-24.838 6.635-14.888 8.596-24.908 24.685-24.909 43.113l.002 273.852-56.423-97.724-.033.019c-8.604-14.856-24.634-24.874-43.038-24.876-9.047.002-17.528 2.415-24.836 6.635-14.889 8.596-24.91 24.686-24.91 43.113v158.997l-56.42-97.724-.035.019c-8.604-14.855-24.634-24.873-43.039-24.875-9.045.002-17.527 2.415-24.836 6.635-14.889 8.596-24.909 24.686-24.91 43.113l.001 273.882-56.41-97.707-.035.02c-8.602-14.866-24.638-24.892-43.049-24.893-9.045 0-17.527 2.415-24.836 6.634-14.889 8.597-24.909 24.686-24.91 43.114l.001 216.415-131.022-226.933-.033.019c-8.603-14.864-24.638-24.892-43.049-24.893-9.046.002-17.528 2.415-24.836 6.635-14.89 8.596-24.91 24.686-24.91 43.113v158.997l-106.158-183.87-.033.019c-8.606-14.852-24.635-24.87-43.037-24.87-9.046.002-17.528 2.415-24.836 6.635-14.889 8.596-24.909 24.685-24.91 43.113v273.868l-56.429-97.736-.032.019c-8.602-14.875-24.642-24.91-43.06-24.91-9.048 0-17.529 2.415-24.838 6.636-14.889 8.597-24.908 24.684-24.908 43.112v158.997l-56.402-97.69-.032.02c-8.6-14.875-24.64-24.91-43.059-24.91-9.049 0-17.529 2.415-24.838 6.636-14.889 8.597-24.909 24.684-24.909 43.112v273.852l-106.133-183.825-.033.018c-8.599-14.877-24.643-24.913-43.062-24.914-9.048 0-17.529 2.415-24.838 6.636-14.888 8.596-24.909 24.684-24.909 43.112l.001 158.997-131.022-226.934-.033.019c-8.602-14.865-24.637-24.892-43.049-24.892-9.046 0-17.524 2.414-24.83 6.634l6.9 11.954a35.919 35.919 0 0 1 17.93-4.785c13.278 0 24.87 7.256 31.093 17.992a35.667 35.667 0 0 1 4.52 13.33c.196 1.516.332 3.052.332 4.62V-720.982l-71.889-124.514V-1085.82c0-12.804 6.902-24.743 18.011-31.158l-3.449-5.978-3.45-5.977c-14.888 8.599-24.91 24.687-24.91 43.113v216.415l-56.412-97.705-.034.019c-8.602-14.866-24.637-24.892-43.049-24.893-9.046.002-17.523 2.415-24.83 6.634l6.9 11.954a35.924 35.924 0 0 1 17.93-4.785c13.277.002 24.87 7.257 31.094 17.993a35.702 35.702 0 0 1 4.52 13.329c.195 1.517.331 3.052.331 4.62v422.304l-71.888-124.512V-942.234c0-12.805 6.901-24.744 18.01-31.16l-3.449-5.977-3.45-5.978v.002c-14.888 8.598-24.91 24.685-24.91 43.112v273.88l-56.403-97.688-.032.019c-8.6-14.875-24.642-24.908-43.059-24.91-9.048 0-17.529 2.415-24.839 6.636-14.888 8.597-24.909 24.685-24.908 43.113v158.996l-56.402-97.69-.033.02c-8.6-14.875-24.642-24.91-43.059-24.91-9.048 0-17.529 2.415-24.838 6.636-14.889 8.597-24.908 24.684-24.909 43.113v273.85l-106.133-183.824-.033.018c-8.599-14.877-24.64-24.913-43.062-24.914-9.048 0-17.529 2.415-24.838 6.636-14.888 8.597-24.908 24.684-24.908 43.112v158.997l-106.158-183.87-.033.019c-8.603-14.865-24.638-24.891-43.05-24.892-9.045 0-17.522 2.414-24.83 6.634l6.901 11.954a35.899 35.899 0 0 1 17.928-4.784c13.28 0 24.871 7.255 31.095 17.992a35.717 35.717 0 0 1 4.52 13.329c.195 1.517.331 3.052.331 4.62v422.303l-71.889-124.513V-540.14c0-12.805 6.902-24.745 18.011-31.16l-3.45-5.977-3.45-5.978c-14.888 8.598-24.91 24.685-24.912 43.112v273.879l-56.4-97.688-.034.019c-8.6-14.875-24.64-24.908-43.059-24.91-9.048 0-17.53 2.415-24.839 6.635-14.889 8.596-24.908 24.684-24.906 43.113v158.997l-56.402-97.69c-13.738-23.793-44.162-31.945-67.956-18.207-23.793 13.737-31.945 44.16-18.208 67.955l149.242 258.489c13.738 23.795 44.161 31.946 67.955 18.208 15.95-9.208 24.825-25.918 24.835-43.098l.028-.001V-153.44l56.422 97.725c13.738 23.794 44.162 31.945 67.955 18.208 15.95-9.21 24.825-25.92 24.836-43.101h.028v-273.878l106.168 183.885c13.738 23.795 44.162 31.945 67.955 18.208 15.95-9.21 24.825-25.92 24.835-43.1h.028V-354.488l106.158 183.869c13.738 23.795 44.162 31.945 67.956 18.208 15.95-9.21 24.825-25.921 24.835-43.104h.026v-273.851l56.421 97.723c13.738 23.794 44.162 31.945 67.955 18.208 15.95-9.21 24.824-25.92 24.835-43.1h.03V-555.531l56.421 97.723c13.738 23.794 44.162 31.945 67.955 18.208 15.95-9.21 24.825-25.92 24.835-43.101h.028v-273.88l56.412 97.705c13.738 23.795 44.162 31.946 67.955 18.209 15.943-9.206 24.818-25.908 24.835-43.083h.038v-216.415l131.022 226.933c13.738 23.795 44.161 31.946 67.954 18.209 15.945-9.206 24.82-25.907 24.835-43.083h.04v-158.996l106.157 183.869c13.738 23.794 44.162 31.945 67.955 18.208 15.951-9.21 24.826-25.921 24.836-43.104h.025V-971.98l56.422 97.722c13.738 23.795 44.162 31.945 67.955 18.208 15.95-9.208 24.825-25.92 24.835-43.1h.028v-158.995l56.421 97.722c13.738 23.795 44.162 31.946 67.955 18.209 15.94-9.204 24.813-25.9 24.835-43.07h.057v-273.85l106.132 183.824c13.738 23.794 44.162 31.945 67.955 18.208 15.937-9.202 24.81-25.893 24.834-43.06h.053v-158.997l131.021 226.934c13.737 23.793 44.162 31.945 67.955 18.208 15.944-9.206 24.818-25.908 24.835-43.083h.04v-216.415l56.411 97.706c13.738 23.794 44.162 31.945 67.955 18.208 15.944-9.205 24.818-25.907 24.835-43.082h.04l-.004-273.883 56.403 97.69c13.738 23.794 44.162 31.945 67.955 18.208 15.938-9.202 24.811-25.896 24.835-43.065h.05l-.002-158.997 56.401 97.689c13.738 23.795 44.162 31.946 67.955 18.208 15.938-9.202 24.811-25.895 24.835-43.065h.05l-.002-273.85 106.131 183.824c13.74 23.794 44.163 31.945 67.956 18.208 15.936-9.201 24.81-25.893 24.834-43.06l.053-.001v-158.997l106.158 183.87c13.738 23.794 44.162 31.945 67.955 18.208 15.943-9.205 24.818-25.907 24.835-43.082h.038l-.002-273.881 56.401 97.689c13.738 23.794 44.162 31.945 67.955 18.208 15.938-9.202 24.812-25.896 24.835-43.064h.048v-158.994l56.401 97.687c13.738 23.795 44.162 31.946 67.955 18.208 23.795-13.738 31.946-44.16 18.208-67.955l-149.24-258.49z"/></g><path fill="#f5821f" d="M157.347 32.142a12.797 12.797 0 0 0 1.722-6.428v111.427c0 2.343-.628 4.537-1.722 6.428a12.783 12.783 0 0 1-4.706 4.706A12.822 12.822 0 0 1 146.21 150c-2.187 0-4.4-.554-6.431-1.725a12.81 12.81 0 0 1-4.706-4.706 12.794 12.794 0 0 1-1.718-6.428V73.7Z" style="stroke-width:3.52774"/><path fill="#0066b3" d="M49.71 90a12.783 12.783 0 0 1 4.705-4.707 12.841 12.841 0 0 1 12.862 0A12.8 12.8 0 0 1 71.98 90a12.76 12.76 0 0 1 1.722 6.428c0 2.342-.625 4.536-1.722 6.427a38.357 38.357 0 0 1-14.114 14.115 38.409 38.409 0 0 1-19.294 5.171 38.41 38.41 0 0 1-19.293-5.171A38.393 38.393 0 0 1 5.165 102.85 38.34 38.34 0 0 1 0 83.57a38.34 38.34 0 0 1 5.165-19.279 38.367 38.367 0 0 1 14.114-14.118 38.408 38.408 0 0 1 19.293-5.171c2.188-.003 4.403.55 6.431 1.721a12.783 12.783 0 0 1 4.706 4.706 12.797 12.797 0 0 1 1.722 6.428c0 2.342-.628 4.537-1.722 6.427a12.783 12.783 0 0 1-4.706 4.706 12.822 12.822 0 0 1-6.43 1.725 12.787 12.787 0 0 0-6.432 1.722 12.783 12.783 0 0 0-4.706 4.706 12.794 12.794 0 0 0-1.718 6.428c0 2.342.625 4.536 1.718 6.427a12.783 12.783 0 0 0 4.706 4.706 12.822 12.822 0 0 0 6.431 1.725c2.188 0 4.403-.554 6.431-1.725A12.783 12.783 0 0 0 49.71 90" style="stroke-width:3.52774"/><path fill="#009fdf" d="M49.71 90a12.783 12.783 0 0 1 4.705-4.707 12.841 12.841 0 0 1 12.862 0A12.8 12.8 0 0 1 71.98 90a12.76 12.76 0 0 1 1.722 6.428c0 2.342-.625 4.536-1.722 6.427l30.931-53.569a12.806 12.806 0 0 0 1.722-6.427c0-2.343-.628-4.537-1.722-6.428a12.783 12.783 0 0 0-4.706-4.706A12.822 12.822 0 0 0 91.775 30c-2.188 0-4.403.554-6.432 1.725a12.783 12.783 0 0 0-4.706 4.706z" style="stroke-width:3.52774"/><path fill="#ffcb04" d="M135.075 19.288a12.783 12.783 0 0 1 4.706-4.706 12.822 12.822 0 0 1 6.43-1.725c2.188 0 4.4.554 6.432 1.725a12.783 12.783 0 0 1 4.706 4.706 12.794 12.794 0 0 1 1.718 6.428 12.78 12.78 0 0 1-1.718 6.424l-54.437 94.286a12.79 12.79 0 0 0 1.718-6.424V72.018Z" style="stroke-width:3.52774"/><path fill="#71bf44" d="M102.91 49.284a12.797 12.797 0 0 0 1.722-6.427V120c0 2.34-.628 4.537-1.721 6.428a12.836 12.836 0 0 1-4.706 4.706 12.818 12.818 0 0 1-6.432 1.721c-2.187.003-4.399-.554-6.43-1.721a12.862 12.862 0 0 1-4.707-4.706A12.804 12.804 0 0 1 78.918 120v-29.16z" style="stroke-width:3.52774"/><path fill="#e43126" d="M181.788 83.572c0 9.468-7.676 17.141-17.141 17.141-9.468 0-17.145-7.673-17.145-17.141 0-9.469 7.677-17.141 17.145-17.141 9.465 0 17.141 7.672 17.141 17.14M222.859 23.572c0 13.018-10.555 23.573-23.573 23.573-13.017 0-23.572-10.555-23.572-23.573C175.714 10.555 186.269 0 199.286 0c13.018 0 23.573 10.555 23.573 23.572" style="stroke-width:3.52774"/><path fill="#002561" d="M545.007 56.33V53.21h6.875v-5.994h-20.425v5.994h6.879v3.122c0 6.501-2.628 11.123-9.19 14.506l3.531 4.854c4.442-2.607 7.493-5.383 8.993-8.784 1.499 3.4 4.554 6.177 8.992 8.784l3.535-4.854c-6.562-3.383-9.19-8.005-9.19-14.506m-49.97 12.626c-4.192 0-7.349-3.468-7.349-8.068 0-4.604 3.157-8.072 7.348-8.072 4.184 0 7.342 3.468 7.342 8.072 0 4.6-3.158 8.068-7.342 8.068m20.719-11.265h-7.12c-1.484-6.141-7.104-10.868-13.602-10.868-7.588 0-13.998 6.438-13.998 14.065 0 7.623 6.41 14.061 13.998 14.061 6.64 0 12.372-4.928 13.705-11.264h7.017V89.88h6.646V46.248h-6.646zM468.127 89.88h6.65V46.248h-6.65zm-25.439-36.671h16.373v-5.994h-23.022V74.82h25.332v-5.994h-18.683zm178.79 4.483V46.248h-6.647V78.75h6.647V63.686h8.516v-5.994zm-53.477 0h-4.22V46.248h-6.455V89.88h6.456V63.686H568V89.88h6.452V46.248H568zM419.705 89.88h6.65V46.248h-6.65zm188.367-21.054h-18.68V53.209h16.373v-5.994h-23.022V74.82h25.33zm-8.202 11.36h-6.65v19.56h28.914v-5.993H599.87zm-347.905-26.37v-7.084h-6.66v7.083c0 7.709-3.737 13.078-12.25 16.94l3.504 4.813c5.482-2.406 9.426-5.662 12.075-10.062 2.65 4.4 6.594 7.656 12.076 10.062l3.503-4.812c-8.513-3.863-12.248-9.232-12.248-16.94m98.416 1.308V53.21h8.841v-5.994h-24.33v5.994h8.84v1.915c0 7.405-4.163 12.111-11.331 15.459l3.608 4.956c4.94-2.293 8.516-5.358 11.046-9.345 2.533 3.987 6.11 7.052 11.045 9.345l3.613-4.956c-7.169-3.348-11.332-8.054-11.332-15.459m-41.126 17.784 3.612-4.96c-7.545-3.475-11.207-7.987-11.207-13.815l-.014-.924h8.745v-5.994h-8.84V41.25h-6.647v5.965h-8.84v5.994h8.745v.924c0 5.828-3.662 10.34-11.208 13.815l3.61 4.96c4.92-2.322 8.402-5.073 11.023-8.986 2.622 3.913 6.103 6.664 11.021 8.986m85.015-19.7h11.031v15.618h-11.03Zm-6.653 21.612h24.33V47.215h-24.33zm-75.205 20.436c-4.018 0-7.044-3.048-7.044-7.087 0-4.043 3.026-7.088 7.044-7.088 4.019 0 7.049 3.045 7.049 7.088 0 4.039-3.03 7.087-7.049 7.087m7.049-38.872h-9.825v5.993h9.825v14.658a13.863 13.863 0 0 0-7.049-1.947c-7.425 0-13.698 5.99-13.698 13.08 0 7.091 6.273 13.081 13.698 13.081 7.423 0 13.699-5.99 13.699-13.08v-41.92h-6.65zm54.532-10.136h-6.647V89.88h6.647V64.342h8.516V58.35h-8.516zm-103.8 43.632h6.65V46.248h-6.65zM479.883 126.08h3.161v-8.925h8.407v-2.67h-8.407v-5.737h8.925v-2.698h-12.086zm54.843-14.316c-1.863 0-3.27.667-4.195 1.994l-.02-1.722h-2.915v14.044h2.942v-8.057c0-2.685 1.694-3.888 3.373-3.888.875 0 1.71.318 2.286.868.56.564.677 1.291.677 2.205v8.872h2.999v-9.472c0-4.61-4.287-4.844-5.147-4.844m-93.775 12.408c-2.363 0-3.563-1.694-3.563-5.031 0-1.972.462-5.278 3.563-5.278 1.651 0 2.533.918 2.84 1.313.677.871.991 2.046.991 3.69 0 3.471-1.322 5.306-3.83 5.306m3.75-10.757c-.558-.765-1.708-1.841-4.05-1.841-2.94 0-6.372 2.004-6.372 7.648 0 6.784 5.06 7.13 6.072 7.13.458 0 2.067-.074 3.481-1.041.434-.3.724-.628.939-.942v1.711h2.875v-20.03H444.7zm55.533 10.838c-2.886 0-3.916-2.685-3.916-5.193 0-4.868 3.397-5.115 4.078-5.115 2.403 0 3.782 1.823 3.782 5.005 0 3.91-2.04 5.303-3.944 5.303m.162-12.57c-6.614 0-7.13 5.768-7.13 7.54 0 4.515 2.65 7.32 6.915 7.32 4.314 0 7.101-2.95 7.101-7.511 0-1.725-.497-7.349-6.886-7.349M451.88 126.08h2.942v-14.044h-2.942zm-.271-16.788h3.46v-3.242h-3.46zm15.211 13.444c-.603.917-1.527 1.38-2.748 1.38-2.565 0-2.639-1.952-2.639-2.174 0-1.714 1.595-2.582 4.735-2.582.532 0 .889.02 1.27.06-.05 1.714-.089 2.459-.618 3.316m-1.986-11.11c-.952 0-3.298.15-4.554 1.539-.797.935-.907 1.901-.999 2.688l-.024.215h2.956l.01-.183c.071-1.415.932-2.13 2.555-2.13.79 0 1.781.253 2.219.828.426.522.444 1.175.444 2.692a21.246 21.246 0 0 0-1.654-.07c-2.075 0-3.743.32-4.833.923-2.166 1.26-2.491 3.15-2.491 4.167 0 2.564 1.968 4.219 5.01 4.219.68 0 2.645 0 4.042-2.014v1.58h2.815v-10.153c0-.67-.035-1.344-.483-2.183-.825-1.56-3.133-2.117-5.013-2.117m55.093 8.329c0 .67 0 1.68-.536 2.448-.805 1.189-2.103 1.44-3.052 1.44-2.395 0-2.72-1.43-2.72-2.826v-8.982h-2.998v9.363c0 3.016 1.926 4.819 5.147 4.819 2.508 0 3.623-1.115 4.176-1.969v1.831h3.01v-14.044h-3.027zm65.249-10.664h3.46v-3.242h-3.46zm13.285 14.96c-2.885 0-3.915-2.684-3.915-5.192 0-4.868 3.397-5.115 4.078-5.115 2.402 0 3.781 1.823 3.781 5.006 0 3.908-2.039 5.302-3.944 5.302m.163-12.57c-6.615 0-7.13 5.768-7.13 7.54 0 4.515 2.65 7.32 6.914 7.32 4.315 0 7.102-2.95 7.102-7.511 0-1.725-.494-7.349-6.886-7.349m17.709.081c-1.863 0-3.27.667-4.195 1.994l-.02-1.722h-2.915v14.044h2.942v-8.057c0-2.685 1.694-3.888 3.373-3.888.875 0 1.71.318 2.286.868.56.564.677 1.291.677 2.205v8.872h2.999v-9.472c0-4.61-4.287-4.843-5.147-4.843m-37.21-3.06h-2.915v3.278h-2.423v2.262h2.423v8.826c0 2.205 1.055 3.104 3.648 3.104h2.314v-2.402h-1.418c-1.63 0-1.63-.938-1.63-1.63v-7.898h3.048v-2.262h-3.048zm-11.057 14.03c-.603.918-1.53 1.38-2.751 1.38-2.565 0-2.636-1.95-2.636-2.173 0-1.714 1.591-2.582 4.731-2.582.533 0 .889.02 1.27.06-.05 1.714-.088 2.459-.614 3.316m-1.99-11.11c-.952 0-3.298.15-4.554 1.539-.797.935-.906 1.901-.998 2.688l-.025.215h2.956l.011-.183c.07-1.415.931-2.13 2.558-2.13.79 0 1.781.253 2.215.828.427.522.445 1.175.448 2.692a21.403 21.403 0 0 0-1.658-.07c-2.074 0-3.743.32-4.833.924-2.166 1.259-2.49 3.15-2.49 4.166 0 2.565 1.968 4.22 5.009 4.22.68 0 2.646 0 4.043-2.015v1.58h2.818v-10.153c0-.67-.038-1.344-.487-2.183-.825-1.56-3.132-2.117-5.012-2.117m-16.225 12.545c-2.363 0-3.563-1.694-3.563-5.03 0-1.973.463-5.278 3.563-5.278 1.651 0 2.537.917 2.84 1.312.678.871.992 2.046.992 3.69 0 3.471-1.323 5.306-3.832 5.306m3.75-10.756c-.557-.766-1.707-1.842-4.05-1.842-2.938 0-6.37 2.004-6.37 7.648 0 6.784 5.058 7.13 6.07 7.13.46 0 2.072-.074 3.483-1.04.434-.3.723-.629.938-.943v1.711h2.875v-20.03h-2.946zm31.845 12.664h2.942v-14.044h-2.942zm-269.805-14.397c-2.794 0-4.032 1.51-4.582 2.36-.635-1.16-1.76-2.36-4.477-2.36-1.182 0-2.847.208-4.134 1.905v-1.552h-2.918v14.044h2.97v-7.948c0-.91.046-1.947.561-2.66a3.489 3.489 0 0 1 2.84-1.418c1.754 0 2.798 1.048 2.798 2.801v9.225h2.974v-7.839c0-.557 0-2.032.56-2.825.367-.508 1.214-1.362 2.756-1.362 1.513 0 2.219.78 2.452 1.115.211.303.43.776.43 1.958v8.953h2.97v-9.363c0-4.67-3.979-5.034-5.2-5.034m33.43.081c-1.867 0-3.274.667-4.199 1.994l-.02-1.722h-2.915v14.044h2.946v-8.057c0-2.685 1.693-3.888 3.372-3.888.875 0 1.708.318 2.283.868.564.564.68 1.291.68 2.205v8.872h2.996v-9.472c0-4.61-4.286-4.844-5.144-4.844m9.434 14.316h2.942v-14.044h-2.942zm-24.233-6.124c0 .67 0 1.679-.54 2.448-.8 1.189-2.102 1.44-3.05 1.44-2.396 0-2.717-1.43-2.717-2.826v-8.982h-2.999v9.363c0 3.016 1.923 4.819 5.144 4.819 2.511 0 3.623-1.115 4.177-1.969v1.831h3.009v-14.044h-3.024zm-71.052 4.297c-2.885 0-3.916-2.685-3.916-5.193 0-4.868 3.401-5.115 4.082-5.115 2.402 0 3.778 1.823 3.778 5.005 0 3.91-2.035 5.303-3.944 5.303m.166-12.57c-6.618 0-7.133 5.768-7.133 7.54 0 4.515 2.65 7.32 6.914 7.32 4.315 0 7.105-2.95 7.105-7.511 0-1.725-.497-7.349-6.886-7.349m26.578 0c-2.794 0-4.032 1.51-4.582 2.36-.635-1.157-1.76-2.36-4.477-2.36-1.182 0-2.847.208-4.135 1.905v-1.552h-2.917v14.044h2.97v-7.948c0-.91.046-1.947.561-2.66a3.489 3.489 0 0 1 2.84-1.418c1.753 0 2.797 1.048 2.797 2.801v9.225h2.974v-7.839c0-.557 0-2.032.561-2.825.367-.508 1.214-1.362 2.755-1.362 1.514 0 2.22.78 2.452 1.115.212.303.427.776.427 1.958v8.953h2.974v-9.363c0-4.67-3.98-5.034-5.2-5.034m68.269-2.392h3.46v-3.242h-3.46zm-111.526-.709c2.363 0 3.732 1.083 4.074 3.26l.015.099h3.093l-.01-.124c-.413-5.203-5.51-5.609-7.066-5.609-7.973 0-8.594 7.874-8.594 10.287 0 2.318.593 9.885 8.248 9.885 3.126 0 6.928-1.44 7.359-5.496l.014-.127h-3.175l-.018.095c-.07.399-.218 1.235-.91 1.979-.72.74-1.746 1.118-3.058 1.118-4.431 0-5.36-4.067-5.36-7.482 0-2.942.7-7.885 5.388-7.885m175.452 8.95c.13-2.68 1.894-3.64 3.531-3.64.974 0 1.74.271 2.265.811.596.607.91 1.584.917 2.83zm3.584-5.849c-1.57 0-2.86.35-3.838 1.041-2.445 1.704-2.776 4.28-2.776 6.58 0 4.631 2.32 7.185 6.533 7.185 2.635 0 4.092-1.026 4.847-1.887.995-1.076 1.133-2.223 1.22-2.963l.025-.216h-2.945l-.018.17c-.19 1.69-1.291 2.66-3.02 2.66-1.08 0-1.947-.325-2.571-.96-.755-.772-1.154-2.007-1.158-3.58h9.631l.19-.004.004-.187c.038-1.548.109-4.427-1.676-6.258-1.027-1.048-2.522-1.58-4.448-1.58m-19.551 3.651-6.269-9.285h-2.95v20.03h3.165v-14.618l6.054 8.942 6.057-8.942v14.619h3.164V106.05h-2.949zm-36.618-6.629h-2.918v3.278h-2.42v2.26h2.42v8.827c0 2.205 1.059 3.105 3.648 3.105h2.314v-2.403h-1.414c-1.63 0-1.63-.938-1.63-1.63v-7.898h3.044v-2.261h-3.044zm12.178 13.78-4.142-10.45h-3.305l5.767 13.798-2.14 5.415h3.054l2-5.2 6.188-14.012h-3.2z" style="stroke-width:3.52774"/></svg>