<svg xmlns="http://www.w3.org/2000/svg" xml:space="preserve" width="4157.48" height="1133.8586" viewBox="0 0 4157.48 1133.8586"><defs><clipPath id="a" clipPathUnits="userSpaceOnUse"><path d="M0 850.394h3118.11V0H0Z"/></clipPath></defs><g clip-path="url(#a)" transform="matrix(1.33333 0 0 -1.33333 0 1133.859)"><path d="M0 0c-41.659-24.972-87.328-44.031-135.731-56.081C-61.19-34.915-6.608 32.517-6.608 221.293V429.77h250.435C243.827 247.233 146.049 87.532 0 0" style="fill:#22b8c9;fill-opacity:1;fill-rule:nonzero;stroke:none" transform="translate(180.147 286.118)"/><path d="M0 0c-24.936-41.793-44.034-87.392-56.015-135.864C-34.986-61.323 32.446-6.57 221.296-6.57h208.405v250.401C247.234 243.831 87.529 146.087 0 0" style="fill:#22b8c9;fill-opacity:1;fill-rule:nonzero;stroke:none" transform="translate(247.113 219.217)"/><path d="M0 0c15.39-2.604 31.379 5.142 38.322 19.929 8.211 17.896.566 39.092-17.224 47.304-17.892 8.381-38.991.634-47.238-17.193-6.908-14.822-2.635-32.046 9.314-42.127L-51.31-65.898c5.812-2.269 11.418-5.041 16.857-7.942zm12.153-110.563L126.786 4.275c13.59-7.782 31.078-5.942 42.663 5.606 13.953 13.922 13.953 36.454 0 50.308-13.819 13.92-36.284 13.92-50.172 0-11.583-11.583-13.488-29.11-5.711-42.662L-1.168-97.142c4.638-4.274 9.078-8.68 13.321-13.421m117.14 39.324c-14.89-6.877-22.602-22.729-20.096-38.256L35.622-143.81c2.965-5.478 5.606-11.153 8.042-16.927l73.443 34.319c10.08-11.885 27.307-16.191 42.128-9.146 17.825 8.21 25.54 29.408 17.323 47.267-8.411 17.695-29.54 25.471-47.265 17.058" style="fill:#22b8c9;fill-opacity:1;fill-rule:nonzero;stroke:none" transform="translate(509.834 656.866)"/><path d="M0 0v69.845h-47.858V0h-136.974v-30.118h321.741V0Zm-88.21 179.669H40.327v-54.332H-88.21Zm-12.534-84.509H52.724c25.168 0 35.366 9.038 35.366 31.171v145.565H40.327v-62.13H-88.21v62.13h-47.913V126.331c0-22.133 10.309-31.171 35.379-31.171" style="fill:#747a7f;fill-opacity:1;fill-rule:nonzero;stroke:none" transform="translate(2614.331 420.984)"/><path d="m0 0 .027.069V0c18.595-29.415 46.414-55.039 89.371-68.351l19.838 23.606C71.621-30.494 24.341 9.249 24.341 85.245v32.246h-48.723V85.245c0-75.996-47.32-115.739-84.882-129.99l19.776-23.606C-46.421-55.039-18.628-29.415 0 0m138.434-90.193h47.961v212.938h-47.961zm12.245-13.34H-42.633v-30.165h180.81v-79.875h47.834v78.883c0 22.119-10.147 31.157-35.332 31.157" style="fill:#747a7f;fill-opacity:1;fill-rule:nonzero;stroke:none" transform="translate(847.645 585.097)"/><path d="M0 0h-47.86v-78.937c0-22.091 10.145-31.144 35.392-31.144h193.293v30.22H0Zm-61.019 137.628c0 30.065 21.871 54.426 48.767 54.426 26.856 0 48.672-24.361 48.672-54.426 0-30.088-21.816-54.485-48.672-54.485-26.896 0-48.767 24.397-48.767 54.485m142.177 0c0 48.936-41.945 88.616-93.41 88.616-51.575 0-93.491-39.68-93.491-88.616 0-49.001 41.916-88.646 93.491-88.646 51.465 0 93.41 39.645 93.41 88.646m99.667 5.79v82.826h-47.931V-22.182h47.931v135.584h41.984v30.016z" style="fill:#747a7f;fill-opacity:1;fill-rule:nonzero;stroke:none" transform="translate(1525.775 482.05)"/><path d="M0 0v-71.716h-51.478v-30.055H0v-89.703h47.905V0Zm-60.908-317.595c-27.097 0-50.883 21.655-50.883 46.401 0 24.545 23.786 46.051 50.883 46.051 27.556 0 50.817-21.062 50.817-46.051 0-24.746-23.786-46.401-50.817-46.401m0 121.44c-53.949 0-96.394-34.959-96.394-74.863 0-40.255 42.445-75.482 96.394-75.482 53.832 0 96.303 35.227 96.303 75.482 0 40.538-41.498 74.863-96.303 74.863m-74.199 79.795c18.413-25.599 47.573-46.272 89.437-60.201l19.816 23.742c-46.265 19.04-84.817 53.194-84.817 108.214v7.58h67.028v30.109h-182.958v-30.109h67.205v-7.58c0-55.02-36.934-89.174-84.954-108.214l19.884-23.742c41.821 13.929 71.015 34.602 89.359 60.201" style="fill:#747a7f;fill-opacity:1;fill-rule:nonzero;stroke:none" transform="translate(2343.137 707.814)"/><path d="M0 0c18.739-29.32 46.431-54.959 89.346-68.177l19.843 23.626C71.595-30.368 24.331 5.146 24.331 74.545c.189 3.054.27 5.924.27 8.592v4.492h67.188v30.043H-91.206V87.629h66.81v-4.492c0-2.668.11-5.538.204-8.592 0-68.763-47.267-104.913-84.82-119.096l19.871-23.626C-46.195-54.959-18.465-29.32 0 0m10.211-178.109v79.93h-47.923v-78.965c0-22.051 10.225-31.088 35.376-31.088h193.388v30.123zM85.495 15.683h51.602v-128.828h47.916v241.271h-47.916V45.698H85.495Z" style="fill:#747a7f;fill-opacity:1;fill-rule:nonzero;stroke:none" transform="translate(1879.396 579.688)"/><path d="M1299.631 402.021H1170.64v65.244h128.991zm99.016 117.353v30.076h-326.344v-30.076h136.215v-21.897h-85.748v-94.506c0-22.119 10.415-31.192 35.389-31.192h189.4v94.466c0 22.181-10.321 31.232-35.365 31.232h-55.736v21.897zm-132.923 79.436h-56.72v74.585h56.72zm89.156 0h-41.295v74.585h41.809v30.017h-239.047v-30.017h44.729V598.81h-44.729v-30.192h238.533z" style="fill:#747a7f;fill-opacity:1;fill-rule:nonzero;stroke:none"/><path d="M0 0h-47.884v-60.896c0-22.153 10.303-31.151 35.348-31.151h188.239v30.138H0Zm-10.981 216.951c22.709 0 42.632-19.189 42.632-41.139 0-21.823-19.923-40.809-42.632-40.809-23.168 0-42.71 18.655-42.71 40.809 0 21.95 19.962 41.139 42.71 41.139m0-110.91c46.951 0 80.319 29.976 80.319 69.608 0 40.025-33.368 70.244-80.319 70.244-46.942 0-80.373-30.219-80.373-70.244 0-40.336 32.608-69.608 80.373-69.608m105.944-14.44h-206.454V61.558h75.41V17.46h47.876v43.982h83.126Zm32.761-11.172V43.375H57.963V13.286h69.761v-26.464h47.979V244.34h-47.979V106.567" style="fill:#747a7f;fill-opacity:1;fill-rule:nonzero;stroke:none" transform="translate(2885.942 463.8)"/><path d="M0 0h-10.373l-34.474 52.498V0h-11.306v74.6l10.333-.016 34.474-52.364V74.6H0Z" style="fill:#747a7f;fill-opacity:1;fill-rule:nonzero;stroke:none" transform="translate(794.543 207.014)"/><path d="m0 0-11.252 33.131L-22.843 0Zm20.364-24.516H8.322L3.262-9.535H-26.22l-5.159-14.981h-12.064l27.347 74.593h9.126z" style="fill:#747a7f;fill-opacity:1;fill-rule:nonzero;stroke:none" transform="translate(848.563 231.53)"/><path d="M0 0h-20.526v-64.421h-11.321V0h-20.539v10.174H0Z" style="fill:#747a7f;fill-opacity:1;fill-rule:nonzero;stroke:none" transform="translate(925.298 271.44)"/><path d="M949.512 207.019h-11.294v74.595h11.294z" style="fill:#747a7f;fill-opacity:1;fill-rule:nonzero;stroke:none"/><path d="M0 0c0 7.815-.264 13.102-.783 15.879-.52 2.756-1.703 5.181-3.607 7.267-1.338 1.473-2.966 2.607-4.89 3.41-1.918.82-3.985 1.215-6.213 1.215-2.176 0-4.25-.416-6.242-1.262-1.986-.848-3.627-1.946-4.863-3.363-1.83-1.946-3.012-4.417-3.579-7.375-.554-2.972-.839-8.233-.839-15.771 0-7.829.257-13.109.791-15.881.534-2.754 1.736-5.171 3.627-7.279 1.297-1.46 2.946-2.608 4.863-3.412 1.912-.797 3.999-1.194 6.242-1.194 2.147 0 4.242.423 6.213 1.249 2.013.852 3.647 1.966 4.89 3.357 1.837 1.957 3.013 4.418 3.553 7.4C-.27-12.813 0-7.544 0 0m11.334 0c0-9.005-.242-14.881-.751-17.617-.829-4.813-2.978-8.92-6.387-12.353-5.31-5.313-11.863-7.957-19.689-7.957-7.741 0-14.279 2.644-19.6 7.957-3.352 3.351-5.472 7.437-6.391 12.275-.568 2.978-.824 8.898-.824 17.695 0 8.731.256 14.595.824 17.608.919 4.884 3.039 9.003 6.391 12.361 5.321 5.32 11.859 7.962 19.6 7.962 3.977 0 7.591-.655 10.846-1.999 3.242-1.305 6.187-3.303 8.843-5.963 3.289-3.284 5.396-7.377 6.294-12.253.561-3.066.844-8.985.844-17.716" style="fill:#747a7f;fill-opacity:1;fill-rule:nonzero;stroke:none" transform="translate(1008.597 244.31)"/><path d="M0 0h-10.367l-34.48 52.498V0h-11.314v74.6l10.368-.016 34.48-52.364V74.6H0Z" style="fill:#747a7f;fill-opacity:1;fill-rule:nonzero;stroke:none" transform="translate(1092.841 207.014)"/><path d="m0 0-11.241 33.131L-22.839 0Zm20.358-24.516H8.323L3.269-9.535h-29.491l-5.181-14.981h-12.029l27.349 74.593h9.117z" style="fill:#747a7f;fill-opacity:1;fill-rule:nonzero;stroke:none" transform="translate(1146.864 231.53)"/><path d="M0 0h-47.252v74.6h11.334V10.151H0z" style="fill:#747a7f;fill-opacity:1;fill-rule:nonzero;stroke:none" transform="translate(1225.065 207.014)"/><path d="M0 0h-36.378v-22.75h31.029v-10.151h-31.029v-31.543H-47.67v74.591H0Z" style="fill:#747a7f;fill-opacity:1;fill-rule:nonzero;stroke:none" transform="translate(1314.396 271.47)"/><path d="M0 0c0 7.822-.283 13.115-.784 15.873-.526 2.762-1.728 5.187-3.619 7.292-1.338 1.462-2.945 2.597-4.877 3.405-1.931.8-3.984 1.196-6.213 1.196-2.19 0-4.255-.416-6.228-1.248-2.027-.836-3.66-1.952-4.902-3.353-1.811-1.971-2.986-4.428-3.54-7.393-.582-2.954-.851-8.234-.851-15.772 0-7.826.269-13.115.784-15.857.512-2.773 1.714-5.216 3.607-7.297 1.323-1.452 2.971-2.593 4.902-3.424 1.89-.797 3.999-1.193 6.228-1.193 2.146 0 4.213.422 6.213 1.269 2.014.831 3.621 1.957 4.877 3.348 1.839 1.945 2.998 4.431 3.552 7.404C-.283-12.798 0-7.537 0 0m11.307 0c0-8.997-.243-14.887-.715-17.603-.851-4.822-2.985-8.94-6.405-12.359-5.307-5.321-11.872-7.962-19.68-7.962-7.766 0-14.306 2.641-19.6 7.962-3.364 3.358-5.472 7.443-6.404 12.261-.567 3.004-.838 8.898-.838 17.701 0 8.74.271 14.596.838 17.615.932 4.891 3.04 9.01 6.404 12.36 5.294 5.308 11.834 7.95 19.6 7.95 3.985 0 7.577-.65 10.833-1.993 3.255-1.311 6.174-3.309 8.847-5.957 3.296-3.288 5.393-7.38 6.271-12.265.58-3.065.849-8.97.849-17.71" style="fill:#747a7f;fill-opacity:1;fill-rule:nonzero;stroke:none" transform="translate(1367.618 244.315)"/><path d="M0 0c0 7.822-.271 13.115-.798 15.873-.513 2.762-1.729 5.187-3.594 7.292-1.349 1.462-2.97 2.597-4.876 3.405-1.945.8-4.025 1.196-6.241 1.196a15.82 15.82 0 0 1-6.226-1.248c-2.014-.836-3.634-1.952-4.891-3.353-1.81-1.971-2.999-4.428-3.566-7.393-.553-2.954-.81-8.234-.81-15.772 0-7.826.243-13.115.77-15.857.527-2.773 1.729-5.216 3.606-7.297 1.324-1.452 2.959-2.593 4.891-3.424 1.904-.797 3.985-1.193 6.226-1.193 2.162 0 4.257.422 6.241 1.269 1.986.831 3.595 1.957 4.876 3.348 1.784 1.945 2.999 4.431 3.54 7.404C-.284-12.798 0-7.537 0 0m11.319 0c0-8.997-.244-14.887-.756-17.603-.825-4.822-2.959-8.94-6.376-12.359-5.295-5.321-11.889-7.962-19.696-7.962-7.753 0-14.291 2.641-19.586 7.962-3.35 3.358-5.499 7.443-6.404 12.261-.553 3.004-.836 8.898-.836 17.701 0 8.74.283 14.596.836 17.615.905 4.891 3.054 9.01 6.404 12.36 5.295 5.308 11.833 7.95 19.586 7.95 3.972 0 7.593-.65 10.835-1.993 3.255-1.311 6.2-3.309 8.861-5.957 3.283-3.288 5.377-7.38 6.282-12.265.568-3.065.85-8.97.85-17.71" style="fill:#747a7f;fill-opacity:1;fill-rule:nonzero;stroke:none" transform="translate(1435.31 244.315)"/><path d="M0 0c0 6.214-.174 10.549-.526 12.993-.554 3.757-1.716 6.634-3.444 8.591-3.093 3.358-7.322 5.032-12.698 5.032h-13.724v-54.295h13.724c5.376 0 9.605 1.696 12.698 5.05 1.728 1.946 2.89 4.944 3.444 8.995C-.174-10.968 0-6.433 0 0m11.321 0V-4.081c0-6.349-.337-11.158-1.054-14.372-1.039-4.957-3.214-9.08-6.496-12.361-2.298-2.295-5.134-4.052-8.444-5.229-3.322-1.186-6.929-1.787-10.833-1.787h-26.192v74.603h26.192c8.173 0 14.602-2.341 19.277-7.015 3.552-3.558 5.835-8.174 6.807-13.848.501-2.849.743-8.156.743-15.91" style="fill:#747a7f;fill-opacity:1;fill-rule:nonzero;stroke:none" transform="translate(1505.092 244.844)"/><path d="M0 0c0-6.773-2.486-12.137-7.402-16.041-4.931-3.902-11.403-5.876-19.44-5.876-5.726 0-10.683.771-14.873 2.271-4.186 1.498-8.022 4.037-11.548 7.604l7.55 7.428c2.58-2.579 5.433-4.408 8.524-5.512 3.105-1.078 6.646-1.613 10.55-1.613 4.905 0 8.7.992 11.375 2.994 2.702 1.998 4.026 4.793 4.026 8.428 0 3.419-.974 6.011-2.917 7.767a11.004 11.004 0 0 1-3.15 1.973c-1.187.484-2.878.863-5.038 1.175l-8.781 1.244c-6.105.837-10.819 2.82-14.156 5.969-3.649 3.429-5.459 8.173-5.459 14.252 0 6.57 2.244 11.873 6.714 15.872 4.473 4.024 10.551 6.03 18.237 6.03 9.376 0 17.076-2.83 23.153-8.483l-7.224-7.138c-2.177 2.106-4.581 3.592-7.242 4.452-2.633.87-5.661 1.316-9.012 1.316-4.267 0-7.604-1.108-10.008-3.307-2.418-2.199-3.633-4.967-3.633-8.339 0-2.917.984-5.24 2.916-6.943 1.906-1.721 4.689-2.849 8.31-3.41l8.482-1.263c3.364-.488 6.107-1.176 8.228-2.038a19.995 19.995 0 0 0 5.713-3.528C-2.04 11.731 0 6.646 0 0" style="fill:#747a7f;fill-opacity:1;fill-rule:nonzero;stroke:none" transform="translate(1604.96 228.288)"/><path d="m0 0-11.253 33.131L-22.844 0Zm20.356-24.517L8.308-24.53 3.268-9.541H-26.22l-5.175-14.976h-12.021l27.329 74.595h9.115z" style="fill:#747a7f;fill-opacity:1;fill-rule:nonzero;stroke:none" transform="translate(1654.672 231.535)"/><path d="M0 0h-36.364v-22.75h31.001v-10.151h-31.001v-31.543h-11.322v74.591H0Z" style="fill:#747a7f;fill-opacity:1;fill-rule:nonzero;stroke:none" transform="translate(1733.304 271.47)"/><path d="M0 0h-47.657v74.588H0V64.441h-36.311V42.66h30.976V32.583h-30.976V10.158H0z" style="fill:#747a7f;fill-opacity:1;fill-rule:nonzero;stroke:none" transform="translate(1794.578 207.019)"/><path d="M0 0h-20.53v-64.444h-11.324V0h-20.53v10.147H0Z" style="fill:#747a7f;fill-opacity:1;fill-rule:nonzero;stroke:none" transform="translate(1855.893 271.47)"/><path d="m0 0-22.318-43.906v-30.693h-11.306v30.693L-55.938 0h12.345l15.616-32.839L-12.333 0Z" style="fill:#747a7f;fill-opacity:1;fill-rule:nonzero;stroke:none" transform="translate(1915.506 281.617)"/><path d="M1963.242 207.005h-11.318v74.593h11.318z" style="fill:#747a7f;fill-opacity:1;fill-rule:nonzero;stroke:none"/><path d="M0 0h-10.386l-34.459 52.501V0h-11.309v74.593l10.324-.007 34.524-52.357v52.364H0z" style="fill:#747a7f;fill-opacity:1;fill-rule:nonzero;stroke:none" transform="translate(2038.902 207.005)"/><path d="M0 0h-36.364v-22.732h31.029v-10.159h-31.029v-31.544H-47.67v74.609H0Z" style="fill:#747a7f;fill-opacity:1;fill-rule:nonzero;stroke:none" transform="translate(2106.054 271.44)"/><path d="M0 0c0 7.815-.256 13.104-.771 15.873-.538 2.771-1.741 5.188-3.631 7.281-1.325 1.48-2.959 2.602-4.877 3.419-1.917.791-3.985 1.189-6.241 1.189-2.176 0-4.242-.418-6.227-1.25-1.986-.842-3.607-1.959-4.864-3.358-1.809-1.959-3.011-4.421-3.58-7.389-.538-2.964-.836-8.226-.836-15.765 0-7.833.298-13.115.783-15.872.541-2.754 1.758-5.208 3.633-7.287 1.338-1.465 2.947-2.6 4.864-3.41 1.905-.812 4-1.202 6.227-1.202 2.174 0 4.268.431 6.241 1.256 2 .85 3.633 1.964 4.877 3.356 1.796 1.96 3.013 4.417 3.564 7.403C-.268-12.805 0-7.543 0 0m11.322 0c0-9.009-.243-14.891-.746-17.613-.836-4.808-2.957-8.942-6.388-12.366-5.293-5.295-11.886-7.939-19.708-7.939-7.74 0-14.278 2.644-19.576 7.939-3.347 3.369-5.482 7.455-6.386 12.284-.569 2.978-.851 8.903-.851 17.695 0 8.729.282 14.604.851 17.604.904 4.876 3.039 9.009 6.386 12.359 5.298 5.309 11.836 7.954 19.576 7.954 4.014 0 7.604-.646 10.876-1.977 3.226-1.33 6.171-3.316 8.832-5.977 3.296-3.281 5.379-7.375 6.282-12.267.554-3.065.852-8.967.852-17.696" style="fill:#747a7f;fill-opacity:1;fill-rule:nonzero;stroke:none" transform="translate(2159.275 244.3)"/><path d="M0 0c0 3.653-1.165 6.536-3.461 8.624-2.31 2.113-5.402 3.167-9.211 3.167h-16.779v-23.462h16.779c3.753 0 6.808 1.032 9.144 3.1C-1.176-6.512 0-3.648 0 0m13.613-52.656L.375-52.685l-15.668 31.477-14.158-.009v-31.439h-11.32v74.605h28.922c6.984 0 12.565-2.012 16.82-6.024 4.228-4.005 6.321-9.279 6.321-15.75 0-5.125-1.366-9.389-4.123-12.847-2.739-3.457-6.332-5.794-10.723-6.97z" style="fill:#747a7f;fill-opacity:1;fill-rule:nonzero;stroke:none" transform="translate(2228.13 259.648)"/><path d="M0 0h-11.293v49.793l-17.171-36.298-8.32.055-17.694 36.393V0h-11.28v74.593h11.28l21.798-46.402 21.387 46.402H0Z" style="fill:#747a7f;fill-opacity:1;fill-rule:nonzero;stroke:none" transform="translate(2321.77 207.005)"/><path d="m0 0-11.266 33.12L-22.845 0Zm20.373-24.52-12.037-.012L3.269-9.551h-29.501l-5.149-14.969H-43.44l27.352 74.593h9.09z" style="fill:#747a7f;fill-opacity:1;fill-rule:nonzero;stroke:none" transform="translate(2375.707 231.524)"/><path d="M0 0h-20.56v-64.435h-11.292V0h-20.547v10.174H0Z" style="fill:#747a7f;fill-opacity:1;fill-rule:nonzero;stroke:none" transform="translate(2452.463 271.44)"/><path d="M2476.653 207.005h-11.317v74.593h11.317z" style="fill:#747a7f;fill-opacity:1;fill-rule:nonzero;stroke:none"/><path d="M0 0c0 7.815-.229 13.104-.756 15.873-.541 2.771-1.756 5.188-3.635 7.281-1.321 1.48-2.917 2.602-4.874 3.419-1.906.791-4.015 1.189-6.243 1.189-2.146 0-4.241-.418-6.212-1.25-2.001-.842-3.62-1.959-4.889-3.358-1.81-1.959-3-4.421-3.566-7.389-.554-2.964-.827-8.226-.827-15.765 0-7.833.258-13.115.798-15.872.514-2.754 1.714-5.208 3.595-7.287 1.338-1.465 2.956-2.6 4.889-3.41 1.904-.812 4.014-1.202 6.212-1.202 2.175 0 4.256.431 6.243 1.256 1.996.85 3.608 1.964 4.874 3.356 1.812 1.96 2.998 4.417 3.556 7.403C-.258-12.805 0-7.543 0 0m11.32 0c0-9.009-.23-14.891-.728-17.613-.838-4.808-2.973-8.942-6.389-12.366-5.298-5.295-11.861-7.939-19.711-7.939-7.724 0-14.292 2.644-19.597 7.939-3.327 3.369-5.459 7.455-6.367 12.284-.565 2.978-.848 8.903-.848 17.695 0 8.729.283 14.604.848 17.604.908 4.876 3.04 9.009 6.367 12.359 5.305 5.309 11.873 7.954 19.597 7.954 4 0 7.619-.646 10.848-1.977 3.257-1.33 6.202-3.316 8.863-5.977 3.282-3.281 5.377-7.375 6.294-12.267.568-3.065.823-8.967.823-17.696" style="fill:#747a7f;fill-opacity:1;fill-rule:nonzero;stroke:none" transform="translate(2535.74 244.3)"/><path d="M0 0h-10.4l-34.448 52.501V0h-11.319v74.593l10.346-.007 34.53-52.357v52.364H0z" style="fill:#747a7f;fill-opacity:1;fill-rule:nonzero;stroke:none" transform="translate(2619.992 207.005)"/><path d="M0 0c0-6.784-2.486-12.14-7.401-16.037-4.933-3.904-11.405-5.856-19.442-5.856-5.724 0-10.695.746-14.871 2.25-4.199 1.494-8.025 4.04-11.521 7.59l7.523 7.446c2.593-2.594 5.43-4.427 8.539-5.51 3.104-1.077 6.629-1.622 10.561-1.622 4.861 0 8.658 1.005 11.35 2.982 2.699 2.002 4.024 4.818 4.024 8.443 0 3.425-.974 5.999-2.931 7.742-.907.849-1.945 1.501-3.148 2.013-1.19.485-2.85.864-5.038 1.156l-8.779 1.233c-6.081.852-10.809 2.832-14.159 5.986-3.607 3.416-5.432 8.165-5.432 14.246 0 6.563 2.227 11.867 6.714 15.883 4.459 4.006 10.552 6.013 18.223 6.013 9.35 0 17.063-2.83 23.152-8.497l-7.239-7.113c-2.174 2.09-4.592 3.594-7.227 4.466-2.647.857-5.658 1.3-9.009 1.3-4.252 0-7.606-1.104-10.009-3.301-2.393-2.194-3.595-4.976-3.595-8.346 0-2.925.943-5.242 2.879-6.966 1.918-1.7 4.673-2.836 8.306-3.401l8.498-1.251c3.361-.495 6.079-1.157 8.224-2.045 2.137-.879 4.042-2.029 5.702-3.507C-2.04 11.737 0 6.63 0 0" style="fill:#747a7f;fill-opacity:1;fill-rule:nonzero;stroke:none" transform="translate(2711.269 228.27)"/><path d="M0 0h-47.686v74.593H0v-10.17h-36.376V42.651h31.001V32.576h-31.001V10.16H0Z" style="fill:#747a7f;fill-opacity:1;fill-rule:nonzero;stroke:none" transform="translate(2774.122 207.005)"/><path d="M0 0c0 3.653-1.165 6.536-3.476 8.624-2.323 2.113-5.375 3.167-9.21 3.167h-16.779v-23.462h16.779c3.756 0 6.806 1.032 9.159 3.1C-1.165-6.512 0-3.648 0 0m13.598-52.656L.39-52.685l-15.697 31.477-14.158-.009v-31.439H-40.77v74.605h28.92c6.971 0 12.592-2.012 16.791-6.024 4.254-4.005 6.347-9.279 6.347-15.75 0-5.125-1.363-9.389-4.118-12.847-2.767-3.457-6.347-5.794-10.752-6.97z" style="fill:#747a7f;fill-opacity:1;fill-rule:nonzero;stroke:none" transform="translate(2830.401 259.648)"/><path d="m0 0-24.748-74.605h-8.806L-58.153 0l11.764-.007 17.171-54.324L-11.965 0Z" style="fill:#747a7f;fill-opacity:1;fill-rule:nonzero;stroke:none" transform="translate(2907.11 281.598)"/><path d="M2928.671 207.005h-11.333v74.593h11.333z" style="fill:#747a7f;fill-opacity:1;fill-rule:nonzero;stroke:none"/><path d="M0 0c-1.27-7.347-4.241-13.008-8.995-16.98-4.781-3.976-10.606-5.969-17.631-5.969-7.738 0-14.276 2.655-19.574 7.95-3.348 3.369-5.494 7.455-6.399 12.271-.543 3-.842 8.902-.842 17.708 0 8.729.299 14.604.842 17.604.905 4.877 3.051 9.01 6.399 12.359 5.298 5.31 11.836 7.954 19.574 7.954 7.025 0 12.85-1.97 17.572-5.956C-4.336 42.966-1.323 37.304 0 29.969h-11.523c-.917 3.986-2.579 7.046-5.039 9.208-2.647 2.377-5.999 3.573-10.064 3.573-4.525 0-8.197-1.51-10.994-4.514-1.822-1.944-3.012-4.493-3.621-7.651-.579-3.142-.862-8.335-.862-15.605 0-7.605.256-12.884.822-15.817.554-2.941 1.782-5.417 3.661-7.45 2.797-2.985 6.469-4.519 10.994-4.519 4.065 0 7.375 1.176 9.983 3.472 2.566 2.31 4.335 5.406 5.227 9.334z" style="fill:#747a7f;fill-opacity:1;fill-rule:nonzero;stroke:none" transform="translate(2998.872 229.32)"/><path d="M0 0h-47.67v74.593H0v-10.17h-36.353V42.651h31.005V32.576h-31.005V10.16H0Z" style="fill:#747a7f;fill-opacity:1;fill-rule:nonzero;stroke:none" transform="translate(3061.646 207.005)"/></g></svg>