<svg xmlns="http://www.w3.org/2000/svg" width="1073.3549pt" height="225pt" fill-rule="evenodd" viewBox="0 0 1073.3548 225"><path d="M131.203 465.374h3.072v8.961h.056l6.308-8.961h3.09l-6.778 9.24 7.519 11.018h-3.637l-6.502-9.83h-.056v9.83h-3.072zM151.814 475.5c0-3.577.483-8.697 4.24-8.697 3.762 0 4.271 5.12 4.271 8.697 0 3.581-.509 8.691-4.271 8.691-3.757 0-4.24-5.11-4.24-8.691zm4.24 10.459c5.402 0 7.538-4.378 7.538-10.459 0-6.075-2.136-10.45-7.538-10.45-5.409 0-7.494 4.375-7.494 10.45 0 6.081 2.085 10.459 7.494 10.459zM174.604 467.312h1.143c2.909 0 4.404.795 4.404 3.533 0 3.185-2.45 3.832-4.404 3.832h-1.143zm-3.078 18.32h3.078v-9.014h1.143c2.99 0 3.549 1.878 3.951 3.603l1.087 5.411h3.103l-1.036-5.267c-.465-2.372-.861-4.391-3.757-4.897v-.056c1.653-.327 4.128-1.464 4.128-4.723 0-4.847-4.235-5.315-7.476-5.315h-4.221zM191.483 465.374h10.139v1.938h-7.074v6.806h6.69v1.938h-6.69v7.463h7.3v2.113h-10.365zM214.091 468.282h.057l2.707 9.391h-5.497zm-7.777 17.35h2.695l1.759-6.018h6.646l1.753 6.018h3.185l-6.446-20.258h-3.178zM251.002 484.671c-1.036.638-2.65 1.288-5.138 1.288-5.936 0-8.091-5.144-8.091-10.839 0-4.903 1.703-10.07 7.588-10.07 4.291 0 6.408 2.507 6.408 5.814h-3.562c0-1.646-.553-4.061-3.097-4.061-3.511 0-4.07 4.966-4.07 7.796 0 4.538 1.024 9.237 5.333 9.237 2.331 0 3.807-1.301 4.629-1.923zM261.204 467.312h1.137c2.896 0 4.416.795 4.416 3.533 0 3.185-2.462 3.832-4.416 3.832h-1.137zm-3.078 18.32h3.078v-9.014h1.137c2.984 0 3.543 1.878 3.97 3.603l1.075 5.411h3.102l-1.036-5.267c-.477-2.372-.86-4.391-3.75-4.897v-.056c1.64-.327 4.12-1.464 4.12-4.723 0-4.847-4.24-5.315-7.481-5.315h-4.215zM278.077 465.374h10.139v1.938h-7.08v6.806h6.69v1.938h-6.69v7.463h7.312v2.113h-10.371zM298.21 467.312h1.25c3.21 0 5.666.851 5.666 7.987 0 5.427-.917 8.39-5.666 8.39h-1.25zm-3.065 18.32h4.315c5.308 0 8.731-1.902 8.731-10.333 0-8.023-3.461-9.925-8.731-9.925h-4.315zM315.724 465.374h3.071v20.258h-3.071zM329.694 467.312h-4.661v-1.938h12.388v1.938h-4.649v18.32h-3.078zM365.619 484.019c-1.281.822-3.071 1.94-5.999 1.94-5.911 0-8.109-4.937-8.109-10.956 0-5.37 1.645-9.953 7.468-9.953 5.246 0 6.439 3.057 6.64 5.732h-3.58c0-2.101-.629-3.979-3.06-3.979-3.9 0-4.208 4.966-4.208 8.2 0 5.102 1.061 9.188 5.189 9.188 1.086 0 2.035-.43 2.588-1.03v-7.187h-3.814v-1.944h6.885zM386.815 478.434c0 3.709-.586 7.525-6.534 7.525-5.936 0-6.527-3.816-6.527-7.525v-13.06h3.072v13.06c0 3.235.233 5.757 3.455 5.757 3.241 0 3.468-2.522 3.468-5.757v-13.06h3.066zM399.647 468.282h.051l2.701 9.391h-5.484zm-7.783 17.35h2.708l1.752-6.018h6.641l1.759 6.018h3.172l-6.439-20.258h-3.179zM416.803 467.312h1.131c2.902 0 4.403.795 4.403 3.533 0 3.185-2.449 3.832-4.403 3.832h-1.131zm-3.078 18.32h3.078v-9.014h1.131c2.977 0 3.555 1.878 3.958 3.603l1.092 5.411h3.084l-1.03-5.267c-.471-2.372-.86-4.391-3.75-4.897v-.056c1.64-.327 4.115-1.464 4.115-4.723 0-4.847-4.228-5.315-7.469-5.315h-4.209zM438.35 468.282h.069l2.707 9.391h-5.496zm-7.765 17.35h2.695l1.765-6.018h6.628l1.759 6.018h3.184l-6.445-20.258h-3.172zM452.445 465.374h3.411l7.633 16.04h.044v-16.04h2.551v20.258h-3.186l-7.858-16.502h-.05v16.502h-2.545zM476.882 467.312h-4.661v-1.938h12.375v1.938h-4.655v18.32h-3.059zM490.733 465.374h10.158v1.938h-7.08v6.806h6.684v1.938h-6.684v7.463h7.306v2.113h-10.384zM508.083 465.374h10.154v1.938h-7.076v6.806h6.693v1.938h-6.693v7.463h7.29v2.113h-10.368zM535.412 465.374h9.819v1.938h-6.754v6.806h6.395v1.938h-6.395v9.576h-3.065zM565.15 478.434c0 3.709-.597 7.525-6.533 7.525-5.943 0-6.533-3.816-6.533-7.525v-13.06h3.078v13.06c0 3.235.213 5.757 3.455 5.757 3.235 0 3.448-2.522 3.448-5.757v-13.06h3.085zM573.844 465.374h3.404l7.646 16.04h.056v-16.04h2.526v20.258h-3.173l-7.859-16.502h-.062v16.502h-2.538zM599.442 467.312h1.256c3.216 0 5.666.851 5.666 7.987 0 5.427-.917 8.39-5.666 8.39h-1.256zm-3.059 18.32h4.315c5.302 0 8.732-1.902 8.732-10.333 0-8.023-3.455-9.925-8.732-9.925h-4.315z" style="fill:#797d81;stroke:none" transform="matrix(1.67936 0 0 1.67936 41.982 -591.098)"/><path d="M91.534 387.072c0-16.257-12.652-29.437-28.249-29.437H42.096v58.86h18.105c.094-.775.144-1.564.144-2.352a19.16 19.16 0 0 0-1.482-7.441c-.107-.27-.227-.534-.352-.801h-4.636v-37.668h7.356c10.07 0 18.242 8.433 18.242 18.839 0 5.936-2.657 11.225-6.822 14.68a32.622 32.622 0 0 1 2.406 12.08c9.73-4.655 16.477-14.894 16.477-26.76zM96.251 416.495h11.772v-58.86H96.251ZM157.461 357.635h-44.732v10.598h16.477v48.262h11.778v-48.262h16.477z" style="fill:#007ec4;stroke:none" transform="matrix(1.67936 0 0 1.67936 41.982 -591.098)"/><path d="M55.05 385.112v14.115c3.97 3.656 6.47 8.986 6.47 14.916 0 11.052-8.694 20.01-19.423 20.01-10.724 0-19.417-8.958-19.417-20.01 0-10.648 8.066-19.351 18.242-19.979v-11.785c-12.658.459-23.431 8.33-28.117 19.405L-3.22 386.478l27.665-28.843H8.552l-21.78 22.938v-22.938h-11.771v58.86h11.772v-24.134l23.639 24.229c1.25 16.407 14.963 29.335 31.685 29.335 17.55 0 31.785-14.228 31.785-31.782 0-12.944-7.733-24.081-18.833-29.031z" style="fill:#97c124;stroke:none" transform="matrix(1.67936 0 0 1.67936 41.982 -591.098)"/><path d="M242.522 356.238h-10.641v57.421h10.641zM356.228 405.154v22.021H329.7v9.884h65.934v-9.884H367.07v-22.021h23.242v-46.793h-10.627v12.765h-34.036v-12.765h-10.627v46.793zm-10.579-24.245h34.036v14.354h-34.036zM243.157 441.312v-9.891h-41.052V409.41h-10.628v31.902zM307.381 384.082c5.415-3.047 8.5-7.774 8.5-14.021 0-11.735-10.861-18.082-27.659-18.082-16.773 0-27.633 6.347-27.633 18.082 0 6.247 3.09 10.974 8.512 14.021v10.226h-14.354v9.781h66.976v-9.781h-14.342zm-19.159-22.583c10.145 0 16.697 3.005 16.697 8.562 0 5.553-6.552 8.559-16.697 8.559-10.126 0-16.672-3.006-16.672-8.559 0-5.557 6.546-8.562 16.672-8.562zm-8.494 26.019c2.621.411 5.46.622 8.494.622 3.047 0 5.892-.211 8.511-.622v6.79h-17.005zM216.836 404.233l9.09-6.526S207.947 379 206.358 357.302H196.15c-1.589 21.698-19.567 40.405-19.567 40.405l9.096 6.526s9.554-9.943 15.572-25.717c6.024 15.774 15.585 25.717 15.585 25.717zM553.001 441.312h55.298V407.28h-55.298zm44.67-9.891h-34.035v-14.247h34.035zM288.222 408.342c-17.74 0-29.217 6.533-29.217 18.612 0 12.074 11.477 18.608 29.217 18.608 17.764 0 29.248-6.534 29.248-18.608 0-12.079-11.484-18.612-29.248-18.612zm0 27.815c-11.094 0-18.267-3.235-18.267-9.203 0-5.971 7.173-9.202 18.267-9.202 11.119 0 18.299 3.231 18.299 9.202 0 5.968-7.18 9.203-18.299 9.203zM403.611 404.089h66.977v-9.781h-66.977zM437.093 408.342c-17.745 0-29.229 6.533-29.229 18.612 0 12.074 11.484 18.608 29.229 18.608 17.759 0 29.242-6.534 29.242-18.608 0-12.079-11.483-18.612-29.242-18.612zm0 27.815c-11.106 0-18.279-3.235-18.279-9.203 0-5.971 7.173-9.202 18.279-9.202s18.286 3.231 18.286 9.202c0 5.968-7.18 9.203-18.286 9.203zM607.231 357.302h-53.169v9.888h42.547v5.314c0 6.615-.836 12.715-1.294 15.636h-48.156v9.781h66.989v-9.781h-8.675c.634-3.217 1.758-9.709 1.758-15.636zM406.162 381.65l6.696 8.616s13.87-4.275 24.235-15.255c10.378 10.98 24.248 15.255 24.248 15.255l6.696-8.616c-14.756-4.547-22.193-12.5-24.091-14.784h20.473v-9.564h-54.646v9.564h20.455c-1.892 2.284-9.317 10.237-24.066 14.784zM527.472 442.376h10.647v-86.138h-10.647zM478.553 368.151h27.105c-1.633 26.842-27.671 46.868-31.031 49.337l8.197 7.204s35.093-23.185 35.093-66.331h-39.364z" style="fill:#797d81;stroke:none" transform="matrix(1.67936 0 0 1.67936 41.982 -591.098)"/></svg>