<svg xmlns="http://www.w3.org/2000/svg" xml:space="preserve" width="632.68976" height="500" viewBox="0 0 632.68976 499.99999"><path d="M0 0v47.746h4.901c3.039 0 4.378-2.071 4.378-5.111V26.306l15.887 21.431 9.779.009-17.516-22.108L36.777 0H25.439L9.423 22.448 9.279 0Z" style="fill:#4f4c4d;fill-opacity:1;fill-rule:nonzero;stroke:none" transform="matrix(2.54122 0 0 -2.54122 71.69 367.65)"/><path d="M0 0v40.231h28.556v-5.599H9.285V19.543h18.277v-5.599H9.285v-15.58h19.908v-5.879H7.5C2.636-7.515 0-5.324 0 0" style="fill:#4f4c4d;fill-opacity:1;fill-rule:nonzero;stroke:none" transform="matrix(2.54122 0 0 -2.54122 178.288 348.554)"/><path d="M0 0v40.231h28.557v-5.599H9.283V19.543h18.282v-5.599H9.283v-15.58h19.914v-5.879H7.499C2.635-7.515 0-5.324 0 0" style="fill:#4f4c4d;fill-opacity:1;fill-rule:nonzero;stroke:none" transform="matrix(2.54122 0 0 -2.54122 271.747 348.554)"/><path d="M446.775 318.774h16.342v61.965h-16.342z" style="fill:#4f4c4d;fill-opacity:1;fill-rule:nonzero;stroke:none;stroke-width:1.90591" transform="matrix(1.33333 0 0 -1.33333 -231.221 792.683)"/><path d="M0 0v-8.575h8.538v2.111C8.538-3.536 8.841 0 2.009 0Z" style="fill:#4f4c4d;fill-opacity:1;fill-rule:nonzero;stroke:none" transform="matrix(2.54122 0 0 -2.54122 364.524 246.358)"/><path d="M0 0h-1.971v-6.956h-10.848v-1.649h3.891v-2.037h1.973v2.037h4.984V-9.66h-3.172v-1.653h3.172v-1.367H0Z" style="fill:#4f4c4d;fill-opacity:1;fill-rule:nonzero;stroke:none" transform="matrix(2.54122 0 0 -2.54122 383.978 387.137)"/><path d="M0 0h3.449v-1.532H-.443v-1.655h3.892v-1.802h1.974v8.644H3.449V1.653H.272c.003.083.012.162.012.246 0 1.025-.591 1.241-1.087 1.241H-7.06V1.493h4.537c.451 0 .614-.332.614-.639 0-.344-.364-3.03-5.243-4.977l.666-1.582C-3.578-4.625-.862-2.797 0 0" style="fill:#4f4c4d;fill-opacity:1;fill-rule:nonzero;stroke:none" transform="matrix(2.54122 0 0 -2.54122 210.708 396.425)"/><path d="M0 0h3.008v1.646h-8.504V0h3.183v-.471c.031-1.333.123-5.366-3.714-7.784l1.165-1.458c1.197.644 3.126 2.353 3.613 3.887l.092.292.092-.292C-.577-7.36 1.353-9.069 2.55-9.713l1.164 1.458C-.12-5.837-.034-1.804-.003-.471z" style="fill:#4f4c4d;fill-opacity:1;fill-rule:nonzero;stroke:none" transform="matrix(2.54122 0 0 -2.54122 167.952 392.63)"/><path d="M0 0h2.212v1.646h-6.797V0h2.329v-.506c.033-1.35.129-5.439-3-8.071l1.293-1.347c1.388 1.2 2.313 2.496 2.742 3.857l.094.289.094-.289C-.6-7.428.32-8.724 1.709-9.924l1.293 1.347C-.129-5.945-.031-1.856 0-.506Z" style="fill:#4f4c4d;fill-opacity:1;fill-rule:nonzero;stroke:none" transform="matrix(2.54122 0 0 -2.54122 243.893 392.63)"/><path d="M0 0v8.056h-1.978l.005-8.811c0-1.156.695-1.746 2.071-1.746h6.823v1.65H.806C.248-.851 0-.588 0 0" style="fill:#4f4c4d;fill-opacity:1;fill-rule:nonzero;stroke:none" transform="matrix(2.54122 0 0 -2.54122 121.545 409.03)"/><path d="M0 0v2.64h-1.977V-.752c0-1.161.699-1.747 2.073-1.747h8.656v1.647H.807C.249-.852 0-.588 0 0" style="fill:#4f4c4d;fill-opacity:1;fill-rule:nonzero;stroke:none" transform="matrix(2.54122 0 0 -2.54122 284.438 420.135)"/><path d="M0 0c-.558 0-.808.263-.808.852v1.723h-1.973V.1c0-1.161.695-1.747 2.073-1.747h8.653V0Z" style="fill:#4f4c4d;fill-opacity:1;fill-rule:nonzero;stroke:none" transform="matrix(2.54122 0 0 -2.54122 364.363 422.299)"/><path d="M0 0c0 1.158-.697 1.749-2.074 1.749h-8.836V.098h8.127c.56 0 .806-.261.806-.855l.007-4.573h-10.325v-1.65h5.91v-6.528h1.973v6.528h6.424v1.65H0Z" style="fill:#4f4c4d;fill-opacity:1;fill-rule:nonzero;stroke:none" transform="matrix(2.54122 0 0 -2.54122 342.52 392.216)"/><path d="M0 0c-1.318 0-2.381.961-2.381 2.149 0 1.185 1.063 2.146 2.381 2.146 1.313 0 2.377-.961 2.377-2.146C2.377.961 1.313 0 0 0m.016 5.958c-2.435 0-4.409-1.701-4.409-3.801 0-2.103 1.974-3.803 4.409-3.803 2.429 0 4.404 1.7 4.404 3.803 0 2.1-1.975 3.801-4.404 3.801" style="fill:#4f4c4d;fill-opacity:1;fill-rule:nonzero;stroke:none" transform="matrix(2.54122 0 0 -2.54122 213.354 424.055)"/><path d="M0 0c0 1.414 1.027 2.556 2.291 2.556C3.554 2.556 4.58 1.414 4.58 0c0-1.415-1.026-2.558-2.289-2.558C1.027-2.558 0-1.415 0 0m9.204.876v-1.898H6.412c.08.33.129.672.129 1.027 0 .298-.031.59-.089.871zM5.588-2.677h3.616v-3.636h1.973V4.348H9.204v-1.82H5.709a4.223 4.223 0 0 1-3.404 1.725c-2.34 0-4.239-1.9-4.239-4.248a4.243 4.243 0 0 1 4.239-4.244 4.23 4.23 0 0 1 3.283 1.562" style="fill:#4f4c4d;fill-opacity:1;fill-rule:nonzero;stroke:none" transform="matrix(2.54122 0 0 -2.54122 277.043 398.186)"/><path d="M0 0c1.125 0 2.037-.826 2.037-1.845 0-1.016-.912-1.843-2.037-1.843s-2.038.827-2.038 1.843C-2.038-.826-1.125 0 0 0m0-5.164c2.174 0 3.938 1.486 3.938 3.319S2.174 1.475 0 1.475c-2.174 0-3.937-1.487-3.937-3.32 0-1.833 1.763-3.319 3.937-3.319" style="fill:#4f4c4d;fill-opacity:1;fill-rule:nonzero;stroke:none" transform="matrix(2.54122 0 0 -2.54122 363.832 389.982)"/><path d="M0 0c-1.139 0-2.068 1.465-2.068 3.274 0 1.811.929 3.274 2.068 3.274s2.063-1.463 2.063-3.274C2.063 1.465 1.139 0 0 0m5.236 4.28h-1.28C3.58 6.562 1.949 8.279 0 8.279c-2.229 0-4.037-2.24-4.037-5.005C-4.037.509-2.229-1.73 0-1.73c2.051 0 3.742 1.897 4 4.355h1.236V-7.12H7.21V8.387H5.236Z" style="fill:#4f4c4d;fill-opacity:1;fill-rule:nonzero;stroke:none" transform="matrix(2.54122 0 0 -2.54122 82.67 408.45)"/><path d="M251.638 274.605h3.766v29.555h-3.766z" style="fill:#4f4c4d;fill-opacity:1;fill-rule:nonzero;stroke:none;stroke-width:1.90591" transform="matrix(1.33333 0 0 -1.33333 -231.221 792.683)"/><path d="M0 0h-2.004v-1.655H0V-11.4h1.977V4.107H0Z" style="fill:#4f4c4d;fill-opacity:1;fill-rule:nonzero;stroke:none" transform="matrix(2.54122 0 0 -2.54122 253.229 397.574)"/><path d="M369.58 274.605h3.766v29.555h-3.766z" style="fill:#4f4c4d;fill-opacity:1;fill-rule:nonzero;stroke:none;stroke-width:1.90591" transform="matrix(1.33333 0 0 -1.33333 -231.221 792.683)"/><path d="M0 0h-4.747v-1.655H0V-11.4h1.975V4.107H0Z" style="fill:#4f4c4d;fill-opacity:1;fill-rule:nonzero;stroke:none" transform="matrix(2.54122 0 0 -2.54122 142.242 397.574)"/><path d="M309.294 274.605h3.764v29.555h-3.764z" style="fill:#4f4c4d;fill-opacity:1;fill-rule:nonzero;stroke:none;stroke-width:1.90591" transform="matrix(1.33333 0 0 -1.33333 -231.221 792.683)"/><path d="m0 0 15.613-27.035L31.223 0Z" style="fill:#176fc1;fill-opacity:1;fill-rule:nonzero;stroke:none" transform="matrix(2.54122 0 0 -2.54122 283.46 140.385)"/><path d="m0 0-15.613-27.039h31.222Z" style="fill:#0994dc;fill-opacity:1;fill-rule:nonzero;stroke:none" transform="matrix(2.54122 0 0 -2.54122 323.137 71.673)"/><path d="M0 0h-31.223l15.61-27.039z" style="fill:#125a9e;fill-opacity:1;fill-rule:nonzero;stroke:none" transform="matrix(2.54122 0 0 -2.54122 402.481 71.673)"/><path d="m0 0 15.604 27.035h-31.217Z" style="fill:#486a10;fill-opacity:1;fill-rule:nonzero;stroke:none" transform="matrix(2.54122 0 0 -2.54122 402.481 209.087)"/><path d="M0 0h31.217L15.613 27.039Z" style="fill:#0b3b6a;fill-opacity:1;fill-rule:nonzero;stroke:none" transform="matrix(2.54122 0 0 -2.54122 362.804 140.385)"/><path d="M0 0h31.223L15.609 27.035Z" style="fill:#679819;fill-opacity:1;fill-rule:nonzero;stroke:none" transform="matrix(2.54122 0 0 -2.54122 323.137 209.087)"/><path d="m0 0 15.604-27.039L31.219 0Z" style="fill:#80bd20;fill-opacity:1;fill-rule:nonzero;stroke:none" transform="matrix(2.54122 0 0 -2.54122 402.481 209.087)"/><path d="m0 0-15.604-27.035h31.219Z" style="fill:#8cd024;fill-opacity:1;fill-rule:nonzero;stroke:none" transform="matrix(2.54122 0 0 -2.54122 442.133 140.385)"/><path d="M0 0h-31.225l15.616-27.035z" style="fill:#fab20b;fill-opacity:1;fill-rule:nonzero;stroke:none" transform="matrix(2.54122 0 0 -2.54122 521.481 140.385)"/><path d="m0 0 15.609 27.039h-31.218Z" style="fill:#d6750f;fill-opacity:1;fill-rule:nonzero;stroke:none" transform="matrix(2.54122 0 0 -2.54122 521.481 277.8)"/><path d="M0 0h31.219l-15.61 27.035Z" style="fill:#f68712;fill-opacity:1;fill-rule:nonzero;stroke:none" transform="matrix(2.54122 0 0 -2.54122 481.815 209.087)"/><path d="M0 0h31.225l-15.61 27.039Z" style="fill:#ab5c0c;fill-opacity:1;fill-rule:nonzero;stroke:none" transform="matrix(2.54122 0 0 -2.54122 442.133 277.8)"/></svg>