<svg xmlns="http://www.w3.org/2000/svg" width="1437.4532mm" height="200mm" viewBox="0 0 1437.4532 200"><path d="m106.557-21.537-20.287.029c-.443 0-.853.222-1.094.592L64.239 11.125l.021.002L42.518 42.81a.788.788 0 0 0 .65 1.233l20.2-.01c.437 0 .846-.22 1.089-.583l21.28-31.873h.016l21.456-31.888a.787.787 0 0 0-.652-1.226" style="fill:#063781;fill-opacity:1;fill-rule:nonzero;stroke:none;stroke-width:1.48066" transform="translate(-71.234 65.934) scale(3.0411)"/><path d="M42.194-21.617H24.217a.792.792 0 0 0-.66 1.23L43.543 9.907a3.713 3.713 0 0 0 3.1 1.669h17.024L43.307-21a1.314 1.314 0 0 0-1.113-.618" style="fill:#f39700;fill-opacity:1;fill-rule:nonzero;stroke:none;stroke-width:1.48066" transform="translate(-71.234 65.934) scale(3.0411)"/><path d="m159.952 41.853-18.437-29.586a.87.87 0 0 0-.735-.407l-16.145-.01a.785.785 0 0 0-.654 1.218l11.487 17.429h-32.903l12.63-18.92h.016l21.35-31.888a.787.787 0 0 0-.655-1.226l-20.175.029c-.443 0-.856.223-1.099.595l-20.935 32.04h.02L71.977 42.774a.786.786 0 0 0 .647 1.232l20.039.025v.012h52.793v-.003l13.45-.037c1.103-.003 1.632-1.215 1.047-2.15" style="fill:#063781;fill-opacity:1;fill-rule:nonzero;stroke:none;stroke-width:1.48066" transform="translate(-71.234 65.934) scale(3.0411)"/><path d="M175.194 31.085h2.927l-4.135 7.906v4.742h-2.584v-4.742l-4.276-7.906h3.043l2.567 5.508zM188.307 33.325h-6.541v2.686h6.005v2.196h-6.005v3.251h6.843v2.275h-9.366V31.085h9.064zM198.098 40.687c.6-.772.902-1.87.902-3.295 0-1.418-.301-2.516-.902-3.29-.6-.774-1.413-1.162-2.437-1.162-1.022 0-1.838.385-2.448 1.158-.61.771-.913 1.87-.913 3.294s.303 2.523.913 3.295c.61.771 1.426 1.157 2.448 1.157 1.024 0 1.837-.386 2.437-1.157m1.614 1.921c-.933.985-2.283 1.477-4.051 1.477-1.767 0-3.116-.492-4.05-1.477-1.253-1.206-1.877-2.943-1.877-5.216 0-2.317.624-4.055 1.877-5.216.934-.983 2.283-1.477 4.05-1.477 1.768 0 3.118.494 4.05 1.477 1.249 1.16 1.872 2.899 1.872 5.216 0 2.273-.623 4.01-1.871 5.216M204.986 39.83c.08.577.237 1.009.47 1.295.429.52 1.163.78 2.203.78.622 0 1.125-.068 1.515-.206.735-.263 1.104-.75 1.104-1.467 0-.416-.18-.74-.54-.969-.362-.223-.935-.42-1.716-.593l-1.339-.3c-1.316-.297-2.22-.62-2.712-.97-.833-.583-1.249-1.495-1.249-2.735 0-1.133.408-2.075 1.222-2.824.816-.75 2.012-1.124 3.592-1.124 1.318 0 2.442.354 3.374 1.06.932.707 1.419 1.731 1.463 3.076h-2.481c-.046-.76-.378-1.302-.997-1.622-.413-.211-.925-.317-1.538-.317-.683 0-1.23.137-1.635.41-.406.276-.61.66-.61 1.151 0 .452.201.79.601 1.013.26.148.806.323 1.644.524l2.167.521c.953.23 1.665.536 2.14.921.736.594 1.106 1.454 1.106 2.58 0 1.156-.437 2.115-1.31 2.88-.874.763-2.109 1.145-3.7 1.145-1.63 0-2.908-.376-3.841-1.128-.933-.752-1.398-1.787-1.398-3.102zM214.15 31.085h2.626v7.768c0 .869.1 1.503.302 1.903.312.71.99 1.064 2.039 1.064 1.04 0 1.717-.354 2.03-1.064.198-.4.3-1.034.3-1.903v-7.768h2.624v7.774c0 1.344-.203 2.393-.61 3.14-.76 1.373-2.207 2.06-4.344 2.06-2.14 0-3.59-.687-4.355-2.06-.407-.747-.611-1.796-.611-3.14zM238.78 35.033c-.197-.863-.674-1.468-1.436-1.811a3.428 3.428 0 0 0-1.416-.283c-.996 0-1.812.384-2.453 1.152-.642.769-.96 1.923-.96 3.463 0 1.554.347 2.652 1.04 3.3.692.643 1.48.966 2.364.966.866 0 1.577-.255 2.13-.764.555-.508.895-1.176 1.022-1.999h-2.857v-2.111h5.148v6.787h-1.71l-.26-1.578c-.498.596-.947 1.018-1.342 1.263-.683.428-1.522.64-2.516.64-1.639 0-2.98-.58-4.026-1.74-1.09-1.166-1.636-2.76-1.636-4.786 0-2.043.55-3.685 1.654-4.92 1.1-1.235 2.556-1.852 4.368-1.852 1.57 0 2.834.407 3.786 1.221.954.816 1.5 1.833 1.64 3.052zM245.08 31.085l1.633 7.244.355 2.015.356-1.975 1.396-7.284h2.726l1.467 7.242.378 2.017.38-1.938 1.648-7.32h2.631l-3.478 12.647h-2.474l-1.492-7.397-.436-2.445-.435 2.445-1.492 7.397h-2.4l-3.507-12.648zM261.606 38.954h3.165l-1.562-4.976zm.168-7.868h2.925l4.374 12.648h-2.803l-.815-2.602h-4.553l-.838 2.602h-2.702zM270.173 31.085h2.708l4.908 8.82v-8.82h2.406v12.648h-2.583l-5.032-8.974v8.974h-2.407zM290.5 35.033c-.197-.863-.672-1.468-1.435-1.811a3.43 3.43 0 0 0-1.417-.283c-.995 0-1.812.384-2.451 1.152-.642.769-.961 1.923-.961 3.463 0 1.554.346 2.652 1.04 3.3.692.643 1.481.966 2.364.966.867 0 1.578-.255 2.132-.764.554-.508.894-1.176 1.021-1.999h-2.859v-2.111h5.15v6.787h-1.71l-.262-1.578c-.496.596-.945 1.018-1.34 1.263-.683.428-1.522.64-2.516.64-1.64 0-2.98-.58-4.026-1.74-1.09-1.166-1.636-2.76-1.636-4.786 0-2.043.55-3.685 1.652-4.92 1.102-1.235 2.558-1.852 4.37-1.852 1.57 0 2.834.407 3.786 1.221.953.816 1.5 1.833 1.639 3.052zM302.172 31.085h2.929l-4.136 7.906v4.742h-2.584v-4.742l-4.277-7.906h3.044l2.568 5.508zM307.935 38.954h3.166l-1.562-4.976zm.17-7.868h2.924l4.372 12.648h-2.802l-.814-2.602h-4.553l-.838 2.602h-2.702zM316.501 31.085h2.708l4.907 8.82v-8.82h2.408v12.648h-2.584l-5.031-8.974v8.974H316.5zM336.83 35.033c-.197-.863-.674-1.468-1.435-1.811a3.44 3.44 0 0 0-1.417-.283c-.996 0-1.812.384-2.452 1.152-.642.769-.96 1.923-.96 3.463 0 1.554.346 2.652 1.04 3.3.692.643 1.48.966 2.363.966.867 0 1.579-.255 2.131-.764.554-.508.894-1.176 1.023-1.999h-2.859v-2.111h5.15v6.787h-1.712l-.26-1.578c-.498.596-.947 1.018-1.342 1.263-.683.428-1.522.64-2.514.64-1.64 0-2.982-.58-4.027-1.74-1.089-1.166-1.637-2.76-1.637-4.786 0-2.043.551-3.685 1.654-4.92 1.102-1.235 2.557-1.852 4.37-1.852 1.57 0 2.832.407 3.784 1.221.955.816 1.502 1.833 1.64 3.052zM352.12 33.703c-.33-.28-.787-.42-1.377-.42h-2.327v3.723h2.327c.59 0 1.048-.151 1.377-.455.327-.303.49-.783.49-1.442 0-.657-.163-1.127-.49-1.406m1.97 4.556c-.724.618-1.756.926-3.1.926h-2.574v4.548h-2.565V31.085h5.308c1.223 0 2.198.327 2.925.98.727.651 1.092 1.661 1.092 3.026 0 1.494-.362 2.55-1.086 3.168M364.723 40.687c.6-.772.901-1.87.901-3.295 0-1.418-.3-2.516-.901-3.29-.6-.774-1.413-1.162-2.438-1.162-1.021 0-1.837.385-2.447 1.158-.61.771-.914 1.87-.914 3.294s.304 2.523.914 3.295c.61.771 1.426 1.157 2.447 1.157 1.025 0 1.838-.386 2.438-1.157m1.615 1.921c-.934.985-2.285 1.477-4.053 1.477-1.766 0-3.115-.492-4.05-1.477-1.252-1.206-1.877-2.943-1.877-5.216 0-2.317.625-4.055 1.878-5.216.934-.983 2.283-1.477 4.05-1.477s3.118.494 4.052 1.477c1.247 1.16 1.87 2.899 1.87 5.216 0 2.273-.623 4.01-1.87 5.216M372.331 33.282v3.397h2.782c.551 0 .964-.068 1.241-.204.49-.24.733-.717.733-1.425 0-.768-.235-1.282-.71-1.544-.264-.15-.662-.224-1.193-.224zm5.34-1.871c.456.203.84.496 1.157.884.26.321.47.675.622 1.064.151.39.23.833.23 1.33 0 .601-.15 1.19-.446 1.772-.296.58-.785.993-1.467 1.232.57.234.974.567 1.21 1 .238.43.356 1.09.356 1.977v.85c0 .578.024.97.07 1.175.068.326.228.566.478.721v.317h-2.852a8.68 8.68 0 0 1-.168-.678 6.587 6.587 0 0 1-.11-1.09l-.016-1.174c-.01-.809-.147-1.345-.409-1.614-.262-.27-.752-.404-1.47-.404h-2.525v4.96h-2.523V31.085h5.912c.844.018 1.496.128 1.95.326M390.705 31.085v2.24h-3.699v10.408h-2.6V33.326h-3.715v-2.24zM398.863 38.954h3.167l-1.562-4.976zm.17-7.868h2.923l4.374 12.648h-2.803l-.813-2.602h-4.554l-.837 2.602h-2.702zM407.474 31.085h2.625v7.768c0 .869.1 1.503.302 1.903.31.71.99 1.064 2.037 1.064 1.043 0 1.72-.354 2.032-1.064.198-.4.3-1.034.3-1.903v-7.768h2.624v7.774c0 1.344-.203 2.393-.61 3.14-.761 1.373-2.208 2.06-4.346 2.06s-3.589-.687-4.353-2.06c-.407-.747-.611-1.796-.611-3.14zM428.428 31.085v2.24h-3.697v10.408h-2.6V33.326h-3.715v-2.24zM429.491 43.733V31.085h2.566v4.823h4.806v-4.823h2.568v12.648h-2.568v-5.646h-4.806v5.646zM449.387 40.687c.603-.772.902-1.87.902-3.295 0-1.418-.299-2.516-.902-3.29-.6-.774-1.41-1.162-2.435-1.162-1.023 0-1.84.385-2.45 1.158-.608.771-.913 1.87-.913 3.294s.305 2.523.914 3.295c.61.771 1.426 1.157 2.449 1.157 1.024 0 1.836-.386 2.435-1.157m1.616 1.921c-.933.985-2.283 1.477-4.051 1.477-1.767 0-3.117-.492-4.05-1.477-1.254-1.206-1.877-2.943-1.877-5.216 0-2.317.623-4.055 1.877-5.216.933-.983 2.283-1.477 4.05-1.477 1.768 0 3.118.494 4.05 1.477 1.248 1.16 1.87 2.899 1.87 5.216 0 2.273-.622 4.01-1.87 5.216M456.998 33.282v3.397h2.78c.551 0 .966-.068 1.243-.204.488-.24.732-.717.732-1.425 0-.768-.236-1.282-.709-1.544-.265-.15-.665-.224-1.195-.224zm5.337-1.871c.458.203.843.496 1.16.884.26.321.468.675.622 1.064.15.39.228.833.228 1.33 0 .601-.148 1.19-.445 1.772-.296.58-.786.993-1.468 1.232.571.234.974.567 1.212 1 .237.43.356 1.09.356 1.977v.85c0 .578.022.97.068 1.175.07.326.228.566.478.721v.317h-2.852a8.57 8.57 0 0 1-.167-.678 6.43 6.43 0 0 1-.111-1.09l-.015-1.174c-.01-.809-.147-1.345-.41-1.614-.26-.27-.752-.404-1.47-.404h-2.523v4.96h-2.523V31.085h5.912c.844.018 1.495.128 1.948.326M468.746 43.733h-2.566V31.085h2.566zM479.714 31.085v2.24h-3.7v10.408h-2.6V33.326H469.7v-2.24zM487.847 31.085h2.927l-4.135 7.906v4.742h-2.584v-4.742l-4.276-7.906h3.044l2.566 5.508zM242.173 2.753H203.4c-.445 0-.728.092-.864.279-.123.174-.182.422-.182.755v3.38c0 .333.059.585.182.772.131.205.416.305.864.305h16.061v13.099c0 .434.18.952 1.045.952h4.099c.928 0 1.503-.96 1.503-1.848V8.244h16.066c.714 0 1.092-.372 1.092-1.077v-3.38c0-.677-.378-1.034-1.092-1.034M242.389-8.226c-1.7-.448-5.11-1.507-6.582-2.147a26.924 26.924 0 0 1-4.203-2.273 21.796 21.796 0 0 1-3.4-2.774c-1.642-1.659-2.132-2.894-2.014-5.086.018-.35-.065-.627-.248-.825-.185-.2-.464-.307-.828-.314-1.013-.025-1.83-.036-2.576-.036a60.2 60.2 0 0 0-2.25.034 40.18 40.18 0 0 0-1.12.052c-.246.017-.326.138-.356.21-.046.12-.003.263.119.387.105.108.237.25.352.407.573.798-.43 2.736-.916 3.666l-.088.172c-.663 1.293-1.588 2.516-2.75 3.634-2.31 2.23-8.11 4.653-12.524 5.962-.412.123-.66.3-.76.536-.081.193-.056.413.074.66l1.744 3.088.01.015c.062.081.131.185.207.306a.9.9 0 0 0 .306.32.715.715 0 0 0 .34.068c.171 0 .387-.034.648-.1 3.493-.94 8.625-2.812 11.168-4.312 2.623-1.55 4.777-3.453 6.406-5.658.827.974 1.822 1.92 2.957 2.815a29.773 29.773 0 0 0 3.812 2.548c1.36.765 2.77 1.421 4.19 1.951 1.434.54 4.718 1.446 6.049 1.672.237.062.415.086.543.067.123-.017.221-.039.297-.074l.032-.02a.826.826 0 0 0 .196-.299.58.58 0 0 1 .134-.21l1.585-3c.167-.361.241-.644.223-.864-.02-.261-.275-.449-.777-.578M275.255 15.507c-.396.52-1.012.993-1.827 1.408-.824.414-1.86.76-3.075 1.029-.609.133-1.267.234-1.972.3-.705.068-1.456.101-2.248.101-.81 0-1.572-.033-2.282-.1a15.908 15.908 0 0 1-1.966-.301c-.897-.2-1.652-.46-2.335-.744-.228-.096-.481-.182-.681-.285a6.686 6.686 0 0 1-1.054-.667 4.08 4.08 0 0 1-.748-.741c-.39-.514-.59-1.032-.59-1.542 0-.382.149-.77.37-1.155.073-.129.122-.259.22-.386.392-.52 1-.994 1.802-1.41.807-.416 1.821-.762 3.015-1.03.3-.067.614-.125.941-.175.658-.1 1.368-.167 2.13-.2a25.268 25.268 0 0 1 3.424.074c.707.067 1.365.169 1.974.302 1.216.267 2.25.615 3.074 1.03.817.414 1.433.888 1.828 1.409.196.257.343.515.442.773.097.257.146.515.146.768 0 .14-.05.283-.08.425-.08.37-.225.745-.507 1.117m5.642-5.458c-.741-1.158-1.816-2.17-3.192-3.003h-.001c-1.377-.83-3.063-1.484-5.01-1.938-1.956-.456-4.161-.687-6.558-.687-2.398 0-4.605.23-6.555.687-1.953.456-3.641 1.107-5.017 1.938-1.374.834-2.449 1.844-3.19 3.003a7.077 7.077 0 0 0-1.121 3.864c0 1.4.377 2.701 1.12 3.865.74 1.158 1.816 2.168 3.191 3.003 1.374.829 3.062 1.482 5.017 1.94 1.95.454 4.156.685 6.555.685 2.398 0 4.603-.231 6.557-.686 1.949-.456 3.636-1.109 5.013-1.94 1.377-.834 2.451-1.846 3.192-3.002a7.081 7.081 0 0 0 1.12-3.865c0-1.399-.378-2.697-1.12-3.864M317.036 15.507c-.398.52-1.012.993-1.828 1.408-.825.414-1.859.76-3.074 1.029-.609.133-1.268.234-1.972.3-.705.068-1.457.101-2.248.101-.81 0-1.574-.033-2.283-.1a15.522 15.522 0 0 1-3.619-.76 10.084 10.084 0 0 1-1.364-.57c-.2-.105-.35-.222-.527-.333-.525-.334-.977-.686-1.273-1.075-.392-.514-.59-1.032-.59-1.542 0-.382.147-.77.368-1.155.074-.129.124-.259.222-.386.392-.52 1-.994 1.8-1.41.807-.416 1.822-.762 3.016-1.03.301-.067.615-.125.942-.175.658-.1 1.368-.167 2.13-.2a25.268 25.268 0 0 1 3.424.074c.705.067 1.365.169 1.974.302 1.215.267 2.249.615 3.074 1.03.817.414 1.433.888 1.828 1.409.196.257.342.515.442.773.097.257.146.515.146.768 0 .14-.052.283-.081.425-.079.37-.225.745-.507 1.117m5.643-5.458c-.742-1.158-1.815-2.17-3.194-3.003-1.377-.83-3.063-1.484-5.012-1.938-1.954-.456-4.16-.687-6.556-.687s-4.603.23-6.556.687c-1.952.456-3.64 1.107-5.015 1.938-1.376.834-2.45 1.845-3.191 3.003a7.074 7.074 0 0 0-1.121 3.864c0 1.401.377 2.701 1.12 3.865.74 1.156 1.815 2.168 3.192 3.003 1.374.829 3.062 1.482 5.015 1.94 1.951.454 4.157.685 6.556.685s4.603-.231 6.556-.686c1.95-.456 3.638-1.109 5.012-1.94 1.38-.834 2.454-1.846 3.194-3.002a7.08 7.08 0 0 0 1.118-3.865c0-1.399-.376-2.697-1.118-3.864M360.32 13.965c0 .508-.199 1.026-.588 1.542-.398.52-1.014.993-1.83 1.408-.825.414-1.858.76-3.073 1.03-1.217.265-2.637.4-4.221.4-1.62 0-3.05-.135-4.248-.4-1.193-.268-2.21-.616-3.016-1.03-.803-.416-1.408-.89-1.802-1.408-.391-.516-.59-1.034-.59-1.542s.199-1.026.59-1.541c.394-.52 1-.994 1.802-1.41.807-.416 1.823-.762 3.015-1.03 1.2-.267 2.63-.402 4.249-.402 1.583 0 3.003.135 4.221.403 1.215.267 2.248.615 3.071 1.03.82.414 1.435.888 1.832 1.409.39.514.588 1.033.588 1.541m5.053-3.916c-.742-1.158-1.814-2.17-3.19-3.003h-.002c-1.378-.83-3.063-1.484-5.013-1.938-1.953-.456-4.16-.687-6.557-.687-2.397 0-4.603.23-6.554.687-1.953.456-3.64 1.107-5.015 1.938-1.377.834-2.45 1.845-3.191 3.003a7.077 7.077 0 0 0-1.121 3.864c0 1.4.377 2.701 1.12 3.865.741 1.156 1.813 2.168 3.192 3.003 1.374.829 3.06 1.482 5.015 1.94 1.951.454 4.156.685 6.554.685 2.4 0 4.604-.231 6.557-.686 1.95-.456 3.636-1.109 5.015-1.94 1.377-.834 2.45-1.846 3.19-3.002a7.078 7.078 0 0 0 1.12-3.865c0-1.4-.378-2.699-1.12-3.864M442.787 13.965c0 .508-.199 1.026-.59 1.542-.396.52-1.012.993-1.828 1.408-.825.414-1.86.76-3.073 1.03-1.217.265-2.637.4-4.22.4-1.62 0-3.051-.135-4.25-.4-1.194-.268-2.21-.616-3.017-1.03-.8-.416-1.406-.89-1.801-1.408-.39-.514-.588-1.032-.588-1.542s.198-1.027.589-1.541c.392-.52 1-.994 1.8-1.41.807-.416 1.823-.762 3.017-1.03 1.2-.267 2.63-.402 4.25-.402 1.582 0 3.002.135 4.22.403 1.213.267 2.248.615 3.071 1.03.82.414 1.435.888 1.83 1.409.391.514.59 1.033.59 1.541m5.053-3.916c-.742-1.158-1.815-2.17-3.192-3.003h-.001c-1.377-.83-3.064-1.484-5.012-1.938-1.955-.456-4.16-.687-6.558-.687-2.397 0-4.602.23-6.553.687-1.953.456-3.64 1.107-5.015 1.938-1.377.834-2.45 1.845-3.193 3.003a7.088 7.088 0 0 0-1.119 3.864c0 1.4.378 2.701 1.12 3.865.74 1.156 1.812 2.168 3.192 3.003 1.372.829 3.059 1.482 5.015 1.94 1.95.454 4.156.685 6.553.685 2.399 0 4.605-.231 6.558-.686 1.95-.456 3.636-1.109 5.013-1.94 1.379-.834 2.45-1.846 3.193-3.002a7.078 7.078 0 0 0 1.12-3.865c0-1.399-.378-2.699-1.12-3.864M285.587-9.558c-.187-.084-.428-.125-.718-.125h-3.782v-10.762c0-.371-.073-.623-.22-.776-.153-.148-.408-.217-.78-.217h-4.838c-.401.001-.809-.002-1.211.019-.137.009-.29.025-.406.132-.187.171-.15.472-.006.663.075.1.17.17.262.238.056.04.114.082.161.13.455.443.415 2.804.397 3.938-.004.216-.007.403-.007.55v13.267l-4.91.034c.202-.79.29-1.603.488-4.412l.131-9.919c0-.899-.06-2.218-.096-2.924a.644.644 0 0 0-.641-.615c-.674-.01-1.89-.025-2.656-.025h-18.168c-.324 0-.592.05-.792.151-.23.114-.347.369-.347.754v3.53c0 .453.119.73.353.826.201.083.465.126.786.126h13.656c.86 0 1.082.148 1.137.235.11.182.166.493.166.923 0 1.375.02 3.909.02 3.909l-.029 4.687c-.043.687-.188 1.98-.385 2.52a1.598 1.598 0 0 1-.201.406l-.398.018-.03.003c-.666.02-1.906.016-3.001.012-.818-.003-1.6-.005-2.026.003l.052-7.34c0-.372-.073-.626-.224-.779-.15-.146-.434-.217-.869-.217h-4.279c-.407 0-.675.07-.826.219-.15.148-.22.402-.22.777v7.534c-.42.008-.606.016-.728.022-.213.007-.213.007-.97-.002l-.115-.001a17.048 17.048 0 0 1-1.093-.03c-.177-.01-.383-.023-1.024-.038-.384-.031-.647.043-.8.232-.14.176-.212.449-.212.81v3.21c0 .366.061.63.185.804.125.18.601.258.816.284l12.28-.122c.097-.002 9.63-.076 14.98-.186l.029 1.247c.004.172.016.335.102.437.105.105.216.107.324.108l.06.002c.09.003.198.004.3.004h4.313c.655-.02 1.065-.15 1.294-.41.18-.203.25-.492.216-.868v-7.644h3.782c.686 0 1.047-.345 1.047-.998v-3.529c0-.454-.11-.725-.329-.825M322.292-9.558v-.516h5.556c.302 0 .54-.05.728-.154.215-.117.319-.407.319-.89v-3.345c0-.486-.113-.776-.347-.893a1.568 1.568 0 0 0-.7-.15h-5.556v-5.103c0-.37-.07-.625-.22-.778-.027-.025-.076-.037-.11-.057-.143-.1-.345-.16-.648-.16H315.982c-.034 0-.057.009-.088.01-.217.002-.433-.001-.65.012-.136.006-.29.024-.405.13-.187.172-.151.473-.007.664.075.099.17.168.263.237.055.041.113.082.162.13.21.206.31.703.36 1.276v21.92c0 .653.362.996 1.046.996h4.085c1.059 0 1.517-1.12 1.517-1.694V-.72h5.583c.3 0 .548-.06.735-.18.207-.13.312-.39.312-.772v-3.484c0-.486-.107-.77-.327-.87-.185-.085-.42-.127-.72-.127h-5.583v-3.404zM296.37-4.42a5.902 5.902 0 0 1-1.125-1.938 6.987 6.987 0 0 1-.39-2.35c0-.83.131-1.629.39-2.377a6.16 6.16 0 0 1 1.1-1.966c.47-.55 1.05-.993 1.731-1.315.677-.321 1.45-.482 2.294-.482.842 0 1.624.162 2.319.482a5.329 5.329 0 0 1 1.78 1.317 5.857 5.857 0 0 1 1.123 1.964 7.28 7.28 0 0 1 .393 2.377c0 .828-.134 1.617-.393 2.35a5.85 5.85 0 0 1-1.124 1.938 5.3 5.3 0 0 1-1.78 1.318c-.694.318-1.476.48-2.318.48-.845 0-1.608-.16-2.268-.48a5.451 5.451 0 0 1-1.733-1.318m15.088-8.569a11.054 11.054 0 0 0-2.434-3.558c-1.044-1.021-2.31-1.839-3.762-2.427-1.457-.59-3.102-.89-4.89-.89-1.754 0-3.384.3-4.841.89-1.454.588-2.711 1.406-3.74 2.429a11.354 11.354 0 0 0-2.412 3.556 10.794 10.794 0 0 0-.868 4.28c0 1.498.293 2.93.868 4.256a11.401 11.401 0 0 0 2.412 3.53c1.027 1.022 2.283 1.84 3.74 2.427 1.452.59 3.081.89 4.841.89 1.79 0 3.436-.3 4.89-.89 1.455-.588 2.721-1.405 3.762-2.427a11.099 11.099 0 0 0 2.434-3.53c.58-1.326.87-2.758.87-4.257 0-1.5-.29-2.939-.87-4.279M370.483-11.212c-.185-.084-.426-.126-.72-.126h-3.759v-9.271c0-.372-.07-.625-.222-.778-.04-.038-.108-.06-.164-.087a1.224 1.224 0 0 0-.598-.13H359.677c-.034 0-.057.008-.09.01-.212.001-.422 0-.63.012-.137.006-.291.023-.408.13-.186.172-.15.472-.006.663.074.101.17.17.262.237.056.042.113.083.163.13.201.199.304.668.354 1.218 0 .078-.004.158-.003.237.003.063.004.127.004.19V3.279c0 .246.201.444.447.444h4.814c.685 0 1.38-.426 1.389-1.383v-8.2h3.79c.686 0 1.047-.343 1.047-.996v-3.53c0-.455-.108-.726-.327-.825M411.84-8.438a2.154 2.154 0 0 0-.684-.1h-3.381v-12.071c0-.294-.074-.53-.21-.693-.006-.02-.015-.05-.04-.077-.097-.11-.273-.175-.546-.203a.317.317 0 0 1-.042-.008c-.032-.005-.069-.014-.116-.014H401.5c-.366 0-.624.07-.79.214-.226.2-.136.384-.087.452a.568.568 0 0 0 .157.144l.03.02c.207.153.269.365.313.7.003.015.001.035.001.052l.001.063V8.506c0 .372.083.636.252.782.163.145.425.215.794.215.39 0 .746.012 1.1.022.361.01.721.02 1.118.02.136 0 .287.005.448.011.19.008.391.013.594.013.658 0 1.34-.074 1.758-.476.524-.507.585-1.253.585-1.77V-3.059h3.381c.3 0 .547-.06.735-.18.207-.131.31-.39.31-.772v-3.622c0-.456-.12-.725-.36-.805M406.453 16.769l-.05-.028c-.326-.175-1.034-.26-1.077-.264l-4.09-.072h-6.43c-.09 0-9.013.041-11.521 0-.431-.006-.615-.175-.615-.561V8.232c0-.713-.362-1.089-1.045-1.089h-4.51c-.715 0-1.093.376-1.093 1.089v10.225c0 1.328.215 2.21.656 2.696.441.49 1.322.729 2.692.729h27.296c.252 0 .49-.031.703-.097.305-.094.436-.706.45-1.095l.001-.073c.048-1.414.103-3.016-1.368-3.848M389.746-13.655V-2.89c0 .522-.05.736-.095.822-.017.037-.121.151-.701.151h-7.715c-.573 0-.755-.083-.814-.132-.041-.04-.145-.196-.145-.84v-10.766c0-.646.102-.801.145-.838.06-.052.244-.137.814-.137h7.715c.6 0 .693.108.704.13.034.061.092.254.092.845m6.605 13.647v-16.683c0-.758-.05-1.38-.15-1.848-.103-.485-.288-.86-.551-1.116-.262-.258-.624-.424-1.07-.496-.433-.07-1.002-.105-1.69-.105h-15.46c-1.233 0-2.13.217-2.656.645-.544.439-.807 1.394-.807 2.92V-.008c0 .76.049 1.383.15 1.848.103.484.296.867.574 1.141.278.274.67.46 1.17.548.473.086 1.101.13 1.864.13h13.031c1.386 0 2.634-.004 3.862-.047.355-.013.644-.028.901-.043.245-.013.465-.025.693-.032l.126-.005-.004-.126a42.271 42.271 0 0 1 .001-2.151c.007-.42.016-.843.016-1.263M452.827-2.751c-.177-.157-.453-.239-.82-.239h-3.487c.403-2.54.917-7.119 1.015-8.785.108-1.837.162-3.623.162-5.303 0-1.192-.278-2.048-.826-2.546-.542-.493-1.39-.741-2.521-.741h-28.46c-.326 0-.585.05-.772.15-.213.116-.32.37-.32.753v2.085c0 .137-.006.28-.014.425-.024.462-.048.94.142 1.37.298.674 1.025.66 1.618.65.074-.002.148-.002.22-.002h23.305c.699 0 .897.15.952.238.108.178.164.487.164.92 0 .28-.014.694-.045 1.231-.03.548-.077 1.18-.137 1.875-.059.662-.509 5.002-.622 5.806a49.675 49.675 0 0 1-.296 1.874h-8.047v-6.843c0-.374-.071-.628-.22-.778-.149-.148-.42-.22-.825-.22h-4.51c-.403 0-.679.07-.846.216-.166.15-.247.405-.247.782v6.843h-12.52c-.412 0-.686.09-.836.276-.142.179-.211.444-.211.814v3.3c0 .363.051.624.156.797.116.197.408.292.89.292h37.138c.443 0 .73-.09.881-.277.14-.178.213-.45.213-.812v-3.3c0-.407-.09-.686-.274-.851M479.676 13.882c-.748-.601-1.93-1.709-2.886-2.834l-.077-.089c-.956-1.128-2.56-3.014-3.405-4.273a35.845 35.845 0 0 1-2.363-4.066c-.685-1.381-.815-10.233-.816-10.318l.204-11.837c-.006-.11-.052-.67-.151-.853-.115-.21-.406-.328-.89-.362l-4.42-.137c-.48 0-.777.1-.912.308-.121.191-.18.46-.18.827 0 4.545-.05 7.714-.144 9.418-.044.807-.083 1.827-.121 2.908-.108 2.98-.245 6.69-.637 8.142-.75 2.769-2.34 5.44-3.795 7.686-1.307 2.015-3.512 4.087-5.286 5.753l-.546.513c-.394.394-.587.716-.587.982 0 .267.137.536.402.798l2.533 2.615c.305.305.564.453.79.453a.431.431 0 0 0 .076-.006c.222-.032.55-.22 1.003-.574l.28-.22c.818-.629 1.835-1.412 2.595-2.212a30.68 30.68 0 0 0 2.425-2.899 37.621 37.621 0 0 0 2.171-3.29 40.734 40.734 0 0 0 1.737-3.28c.462.928 1.02 1.902 1.664 2.897a34.68 34.68 0 0 0 2.17 3.013c.77.955 2.31 2.594 3.017 3.327.742.768 1.412 1.374 1.991 1.8.717.559 1.249.742 2.024.107l2.338-2.332c.289-.352.445-.677.464-.965.018-.308-.202-.634-.668-1M495.77-4.973c-.186-.085-.427-.126-.717-.126h-5.584v-15.51c0-.367-.06-.62-.192-.771-.135-.151-.384-.224-.76-.224h-5.347c-.365 0-.623.07-.787.215-.227.2-.138.382-.089.45a.63.63 0 0 0 .16.145l.026.02c.21.153.273.365.314.7.037.282.046.503.027.696-.015.137-.01.276-.004.41l.003.19V1.408c0 1.413 0 1.772.006 1.875l-.004 18.336c0 .412.084.677.258.813.164.124.422.185.789.185h4.279c.317 0 .683-.027.983-.34.34-.35.34-.942.34-1.335V.38h5.583c.305 0 .545-.059.734-.18.209-.133.311-.401.311-.818v-3.484c0-.485-.108-.77-.327-.87M178.676-.896c0 7.856-2.445 14.248-5.452 14.248-3.006 0-5.449-6.392-5.449-14.248 0-7.857 2.443-14.249 5.449-14.249 3.007 0 5.452 6.392 5.452 14.249m6.54-2.876a37.27 37.27 0 0 0-.287-2.68c-.021-.336-.055-.69-.11-1.055h5.847V.909h-5.42l.064-1.875c0-.948-.03-1.892-.094-2.806m12.052 18.788v-35.624c0-.372-.072-.627-.223-.778-.148-.146-.405-.217-.778-.217h-5.157c-.377 0-.628.072-.762.225-.13.15-.193.4-.193.77l.511 1.193v6.477h-7.482l-.034-.073c-1.025-2.43-2.404-4.358-4.1-5.729-1.706-1.377-3.71-2.076-5.96-2.076-1.836 0-3.515.502-4.995 1.491-1.475.988-2.759 2.368-3.814 4.106-1.056 1.739-1.873 3.847-2.429 6.268-.556 2.42-.84 5.107-.84 7.985 0 2.766.284 5.375.84 7.757.557 2.384 1.365 4.482 2.405 6.237 1.04 1.757 2.314 3.158 3.789 4.163 1.478 1.009 3.176 1.52 5.045 1.52 2.218 0 4.206-.687 5.91-2.047 1.696-1.349 3.076-3.245 4.1-5.637.01-.02.963-2.095 1.515-4.687h6.05v15.279c0 .41.062.666.197.8.132.132.379.196.756.196.292 0 .594.016.91.031.312.016.636.033.958.033 1.05 0 2.096-.173 2.79-1.11 1.23-1.66 1.002-6.311.991-6.553M344.183-2.014c-1.67 0-3.01-.462-3.982-1.377-.97-.91-1.46-1.941-1.46-3.062 0-1.068.49-2.048 1.457-2.913.973-.867 2.315-1.307 3.985-1.307 1.711 0 3.062.44 4.014 1.306.949.87 1.429 1.85 1.429 2.914 0 1.164-.482 2.206-1.43 3.099-.95.888-2.3 1.34-4.013 1.34m11.74-16.444h-8.06v-3.087h-6.73v3.087h-9.281c-.745 0-1.14.374-1.14 1.088v2.613c0 .713.377 1.089 1.092 1.089h5.723c-.622.25-.893.37-1.535.79-.988.649-1.819 1.564-2.537 2.802-.633 1.087-.956 2.316-.956 3.651 0 1.376.323 2.631.955 3.734a9.184 9.184 0 0 0 2.532 2.827c1.05.773 2.287 1.383 3.68 1.812 1.4.431 2.9.65 4.466.65 1.562 0 3.08-.219 4.513-.65 1.428-.43 2.69-1.04 3.76-1.812a9.08 9.08 0 0 0 2.558-2.827c.633-1.1.954-2.355.954-3.734 0-1.338-.321-2.567-.954-3.651-.72-1.234-1.535-2.125-2.564-2.802a8.486 8.486 0 0 0-1.496-.79h5.02c.939 0 1.137-.567 1.137-1.043v-2.659c0-.714-.392-1.088-1.137-1.088" style="fill:#595757;fill-opacity:1;fill-rule:nonzero;stroke:none;stroke-width:1.48066" transform="translate(-71.234 65.934) scale(3.0411)"/></svg>