<svg xmlns="http://www.w3.org/2000/svg" width="738.78619pt" height="225pt" viewBox="0 0 738.78618 225"><path fill="#19345c" d="M788.398 380.465h-29.084a2.167 2.167 0 0 1-2.167-2.167v-6.54a.405.405 0 0 0-.408-.401h-6.397a.398.398 0 0 0-.395.401v8.177c0 3.655 2.97 6.624 6.618 6.624h31.833c.22 0 .401-.181.401-.401v-5.292a.403.403 0 0 0-.4-.4M749.42 366.874h25.87c.22 0 .407-.18.407-.4v-5.338a.409.409 0 0 0-.407-.4h-18.928V345.98h18.06c.22 0 .402-.181.402-.401v-5.337a.403.403 0 0 0-.401-.401H749.42a.403.403 0 0 0-.4.4v26.232c0 .22.18.401.4.401M792.448 350.843h-4.134v-10.602a.398.398 0 0 0-.394-.401h-6.398a.404.404 0 0 0-.408.4v30.65c0 .22.181.402.408.402h6.398c.22 0 .394-.182.394-.401v-14.057h4.134c.22 0 .4-.182.4-.401v-5.189a.403.403 0 0 0-.4-.4M355.912 370.304h17.214v15.94c0 .22.181.4.401.4h6.398a.399.399 0 0 0 .401-.4v-15.94h17.22c.22 0 .401-.181.401-.401v-5.285a.399.399 0 0 0-.4-.401h-5.622c1.733-4.276 2.613-9.193 2.613-14.614v-9.34a.405.405 0 0 0-.4-.408h-35.761a.41.41 0 0 0-.408.407v5.35c0 .22.182.407.408.407h28.974v3.727c0 5.123-1.054 9.988-3.13 14.47h-28.309a.399.399 0 0 0-.4.402v5.285c0 .22.18.4.4.4M609.966 378.299v-6.54a.403.403 0 0 0-.401-.401h-6.398a.403.403 0 0 0-.4.4v8.177c0 3.655 2.968 6.625 6.617 6.625h31.833c.22 0 .408-.182.408-.402v-5.291a.409.409 0 0 0-.408-.401h-29.084a2.167 2.167 0 0 1-2.167-2.167M608.507 358.033c-1.527 1.637-3.946 2.872-7.86 4.005a.396.396 0 0 0-.291.388l.026 5.582a.388.388 0 0 0 .149.304.378.378 0 0 0 .258.097h.065c2.775-.465 4.813-1.235 6.598-1.998 2.193-.938 3.94-2.148 5.848-4.044a8.07 8.07 0 0 0 .906-1.073c.291.407.595.77.906 1.073 1.908 1.896 3.66 3.106 5.847 4.044 1.786.763 3.83 1.54 6.592 1.998.123.013.24-.019.337-.097a.4.4 0 0 0 .142-.304v-5.628a.416.416 0 0 0-.291-.388c-3.882-1.087-6.294-2.31-7.828-3.959-1.94-2.083-2.096-5.382-2.096-9.483v-2.71h9.904c.22 0 .395-.182.395-.402v-5.194a.4.4 0 0 0-.395-.408h-26.93a.4.4 0 0 0-.4.408v5.194c0 .22.174.401.4.401h9.807v2.71c0 4.102-.155 7.401-2.09 9.484M634.395 371.4h6.397c.22 0 .408-.18.408-.4v-30.76a.409.409 0 0 0-.408-.402h-6.397a.403.403 0 0 0-.401.401V371c0 .22.18.401.4.401M551.85 370.304h17.214v15.94c0 .22.174.4.4.4h6.399a.399.399 0 0 0 .4-.4v-15.94h17.22c.22 0 .402-.181.402-.401v-5.285a.399.399 0 0 0-.401-.401h-5.622c1.734-4.276 2.607-9.193 2.607-14.614v-9.34a.404.404 0 0 0-.4-.408h-35.76a.404.404 0 0 0-.402.407v5.356c0 .22.181.401.401.401h28.98v3.727c0 5.123-1.053 9.988-3.136 14.47H551.85a.399.399 0 0 0-.401.402v5.285c0 .22.181.4.401.4M690.682 362.278a.403.403 0 0 0-.401-.401h-41.634a.403.403 0 0 0-.401.401v5.285c0 .227.181.401.401.401h41.634c.22 0 .401-.174.401-.4zM662.084 348.845c1.901-.382 3.286-.621 7.53-.621 4.243 0 5.62.24 7.53.62 2.005.402 3.247 1.379 3.247 2.55 0 1.403-1.773 1.985-2.834 2.205-1.455.298-3.105.64-7.944.64-4.845 0-6.494-.342-7.943-.64-1.061-.22-2.834-.802-2.834-2.206 0-1.17 1.242-2.147 3.248-2.548m-11.308-3.293h4.742c-.343.136-.64.272-.88.408-1.152.653-2.018 1.403-2.646 2.296-.666.957-1.01 2.128-1.01 3.48 0 1.314.344 2.465 1.01 3.422.634.906 1.585 1.689 2.743 2.271 1.138.576 2.64 1.054 4.353 1.397 3.571.718 8.708.796 10.396.796h.13c1.539 0 6.863-.058 10.518-.796 1.714-.343 3.215-.821 4.353-1.397 1.165-.582 2.11-1.365 2.743-2.27.667-.958 1.01-2.11 1.01-3.423 0-1.352-.343-2.523-1.01-3.48-.627-.893-1.488-1.643-2.639-2.296a7.304 7.304 0 0 0-.886-.408h4.6c.22 0 .4-.181.4-.401v-4.936a.403.403 0 0 0-.4-.4h-15.067v-2.808a.409.409 0 0 0-.408-.401h-6.578a.399.399 0 0 0-.401.4v2.808h-15.073a.403.403 0 0 0-.401.401v4.936c0 .22.181.401.4.401M678.989 380.914c-.99.155-4.03.628-9.38.628-3.726 0-6.831-.207-9.49-.628-1.08-.175-2.892-.68-2.892-2.141 0-1.456 1.857-1.98 2.97-2.167 2.639-.434 5.809-.66 9.412-.66 3.57 0 6.715.226 9.36.66 1.107.187 2.963.711 2.963 2.167 0 1.462-1.843 1.973-2.943 2.141m6.695-8.507c-1.08-.62-2.536-1.1-4.347-1.442a42.75 42.75 0 0 0-5.337-.66c-1.734-.097-3.888-.142-6.391-.142-2.458 0-4.6.058-6.372.174-1.76.11-3.57.35-5.389.719-1.792.355-3.253.847-4.347 1.468a7.504 7.504 0 0 0-2.652 2.503c-.673 1.048-1.016 2.33-1.016 3.804 0 1.436.343 2.698 1.016 3.746a7.375 7.375 0 0 0 2.652 2.477c1.094.602 2.555 1.074 4.347 1.41 1.812.35 3.617.576 5.37.693 1.753.116 3.9.174 6.39.174 2.09 0 3.889-.032 5.357-.09a60.613 60.613 0 0 0 4.703-.369c1.63-.194 2.995-.492 4.056-.88 1.061-.394 2.07-.905 2.976-1.533a5.477 5.477 0 0 0 1.973-2.31c.433-.937.66-2.05.66-3.318 0-1.514-.35-2.82-1.022-3.894a7.552 7.552 0 0 0-2.627-2.53M461.156 386.55h33.289c.22 0 .4-.182.4-.402v-4.69a.403.403 0 0 0-.4-.4h-31.129a1.583 1.583 0 0 1-1.584-1.585v-.738l32.176-.007a.405.405 0 0 0 .407-.401v-12.925h-39.382a.403.403 0 0 0-.401.401v4.729c0 .226.18.401.4.401h32.177v2.335h-32.176a.403.403 0 0 0-.401.401v6.256a6.629 6.629 0 0 0 6.624 6.624M461.734 351.817h11.883v5.337h-11.883zm-6.799 10.868h25.481c.22 0 .401-.181.401-.401v-22.046a.403.403 0 0 0-.4-.401h-6.398a.403.403 0 0 0-.402.4v6.069h-11.883v-6.068a.403.403 0 0 0-.401-.401h-6.398a.399.399 0 0 0-.4.4v22.047c0 .22.174.4.4.4M493.91 339.848h-6.397a.403.403 0 0 0-.401.402v22.11c0 .227.18.401.4.401h6.398a.395.395 0 0 0 .402-.4v-7.97h4.127c.22 0 .4-.182.4-.401v-5.363a.403.403 0 0 0-.4-.401h-4.127v-7.976a.399.399 0 0 0-.402-.402M503.655 370.304h41.634c.22 0 .401-.181.401-.401v-5.285a.399.399 0 0 0-.4-.401h-41.635a.399.399 0 0 0-.4.4v5.286c0 .22.18.4.4.4M536.957 386.543h6.404c.22 0 .4-.181.4-.401V373.3a.399.399 0 0 0-.4-.401h-37.779a.399.399 0 0 0-.4.4v5.35c0 .22.18.402.4.402h30.974v7.09c0 .22.18.4.4.4M543.397 345.417c.22 0 .401-.181.401-.4v-4.756a.399.399 0 0 0-.4-.4H505.87a.399.399 0 0 0-.401.4v20.889c0 .22.18.4.4.4h37.488c.22 0 .401-.18.401-.4v-4.697a.403.403 0 0 0-.4-.4h-30.69v-2.582h30.495a.399.399 0 0 0 .401-.401v-4.729a.399.399 0 0 0-.4-.4H512.67v-2.524zM349.965 386.157v-5.291a.403.403 0 0 0-.401-.401h-29.382a2.163 2.163 0 0 1-2.167-2.167v-6.54a.404.404 0 0 0-.408-.401h-6.398a.403.403 0 0 0-.4.4v8.184a6.626 6.626 0 0 0 6.617 6.618h32.138c.22 0 .4-.182.4-.402M321.262 346.276a7.581 7.581 0 0 1 7.575 7.575c0 4.173-3.396 7.57-7.575 7.57s-7.575-3.397-7.575-7.57a7.581 7.581 0 0 1 7.575-7.575m13.96 10.59c.214-1.01.324-2.025.324-3.015 0-.705-.065-1.442-.194-2.257l-.052-.324h6.98v5.932h-7.135zm-13.96 11.269c4.082 0 7.976-1.766 10.693-4.845h10.325V371c0 .22.18.402.4.402h6.618l.182-.181v-30.974a.403.403 0 0 0-.401-.4h-6.398a.403.403 0 0 0-.401.4v4.936h-9.678l-.084-.103a14.223 14.223 0 0 0-12.821-5.428c-6.592.699-11.903 5.984-12.628 12.57-.459 4.133.81 8.092 3.552 11.158a14.302 14.302 0 0 0 10.641 4.755M722.774 386.55h6.159c.22 0 .407-.182.407-.402v-22.104h4.354v22.104c0 .22.187.402.407.402h6.159c.22 0 .407-.182.407-.402v-45.91a.409.409 0 0 0-.407-.4H734.1a.409.409 0 0 0-.407.4v17.415h-4.354v-17.414a.409.409 0 0 0-.407-.402h-6.159a.403.403 0 0 0-.4.402v45.91c0 .22.18.4.4.4M718.687 383.75a.392.392 0 0 0 .142-.31l-.007-5.634a.401.401 0 0 0-.227-.356c-4.243-2.102-7.251-4.528-7.251-16.618v-14.879h6.605c.22 0 .4-.181.4-.401v-5.311a.403.403 0 0 0-.4-.401h-20.19a.399.399 0 0 0-.401.401v5.311c0 .22.175.401.401.401h6.657v14.879c0 12.077-2.892 14.432-7.304 16.65a.407.407 0 0 0-.22.356v5.622a.404.404 0 0 0 .401.407c.02 0 .046 0 .065-.007 4.244-.692 8.364-3.92 10.24-6.747l.227-.355.233.355c1.804 2.724 5.919 5.913 10.292 6.722a.398.398 0 0 0 .336-.084M428.167 386.55h6.158c.22 0 .401-.182.401-.402v-22.104h4.36v22.104c0 .22.182.402.401.402h6.165c.22 0 .401-.182.401-.402v-45.91a.403.403 0 0 0-.4-.4h-6.166a.403.403 0 0 0-.4.4v17.415h-4.36v-17.414a.403.403 0 0 0-.402-.402h-6.158a.403.403 0 0 0-.401.402v45.91c0 .22.18.4.4.4M402.96 386.562c12.816-3.985 20.772-15.63 20.772-30.385v-15.933a.404.404 0 0 0-.4-.407H403.31a.41.41 0 0 0-.407.407v5.357a.41.41 0 0 0 .407.407h13.294v10.79c0 12.563-7.498 19.899-13.915 22.363a.415.415 0 0 0-.259.382v6.63a.407.407 0 0 0 .53.388M402.622 255.25l29.46 39.176V255.25c0-.634.51-1.145 1.138-1.145h13.423c.628 0 1.139.511 1.139 1.145v62.95c0 .633-.511 1.144-1.139 1.144h-13.138c-.9 0-1.747-.427-2.283-1.145l-32.487-43.205v43.205c0 .634-.511 1.145-1.145 1.145h-13.132c-.9 0-1.747-.427-2.29-1.145l-32.487-43.205v43.205c0 .634-.511 1.145-1.145 1.145h-13.417a1.143 1.143 0 0 1-1.145-1.145V255.25c0-.634.511-1.145 1.145-1.145h16.166c.9 0 1.747.427 2.284 1.145l29.46 39.176V255.25c0-.634.51-1.145 1.144-1.145h16.16c.905 0 1.753.427 2.29 1.145M490.244 304.652c-9.898 0-17.925-8.028-17.925-17.926 0-9.904 8.027-17.925 17.925-17.925 9.904 0 17.925 8.021 17.925 17.925 0 9.898-8.021 17.926-17.925 17.926m0-51.558c-18.572 0-33.632 15.054-33.632 33.632 0 18.573 15.06 33.632 33.632 33.632 18.579 0 33.632-15.06 33.632-33.632 0-18.578-15.053-33.632-33.632-33.632M622.575 304.652c-9.897 0-17.925-8.028-17.925-17.926 0-9.904 8.028-17.925 17.925-17.925 9.904 0 17.926 8.021 17.926 17.925 0 9.898-8.022 17.926-17.926 17.926m0-51.558c-18.572 0-33.632 15.054-33.632 33.632 0 18.573 15.06 33.632 33.632 33.632 18.579 0 33.632-15.06 33.632-33.632 0-18.578-15.053-33.632-33.632-33.632M321.537 319.343h-13.416a1.143 1.143 0 0 1-1.145-1.145v-62.943c0-.634.51-1.145 1.145-1.145h13.416c.634 0 1.145.511 1.145 1.145v62.943c0 .633-.51 1.145-1.145 1.145M733.242 319.343h-13.41c-.64 0-1.152-.512-1.152-1.145v-62.943c0-.634.511-1.145 1.152-1.145h13.41c.634 0 1.151.511 1.151 1.145v62.943c0 .633-.517 1.145-1.151 1.145M558.53 283.384h-10.117v-16.728h10.117a8.365 8.365 0 0 1 0 16.728m24.071-8.364c0-11.553-9.367-20.914-20.914-20.914h-27.835c-.64 0-1.152.511-1.152 1.145v62.95c0 .627.511 1.144 1.152 1.144h13.41c.634 0 1.151-.517 1.151-1.145v-22.272h13.274c11.547 0 20.914-9.36 20.914-20.908M707.391 318.2v-10.26c0-.634-.51-1.145-1.151-1.145h-25.65v-51.538c0-.64-.51-1.152-1.138-1.152h-13.423c-.628 0-1.139.511-1.139 1.152v62.942c0 .634.511 1.145 1.139 1.145h40.21c.641 0 1.152-.51 1.152-1.145M742.838 306.752a1.146 1.146 0 0 0-.136 1.566c2.348 2.898 10.932 12.174 24.808 12.174 16.45 0 25.332-10.764 25.332-19.762 0-8.546-3.072-15.015-16.67-19.756-13.598-4.736-15.357-6.418-15.357-9.406 0-4.483 9.063-9.794 19.614.24.459.432 1.177.439 1.623-.014l7.892-8.028a1.121 1.121 0 0 0 .097-1.494c-1.87-2.407-8.461-9.302-22.59-9.302-17.122 0-22.252 10.732-22.252 17.68 0 6.953 3.312 13.978 15.486 18.972 12.168 4.988 15.778 5.641 15.914 10.008.136 4.457-8.093 13.727-24.013-.291a1.162 1.162 0 0 0-1.533 0z" style="stroke-width:6.46892" transform="matrix(1.2 0 0 1.2 -368.37 -270.67)"/><path fill="#00a1e9" d="M872.576 413.05c-1.65-.084-3.376-.673-5.13-1.766-5.718-3.577-10.777-12.259-10-17.15.517-3.22 2.186-5.75 3.777-8.189 1.029-1.578 1.986-3.04 2.594-4.619 2.497-6.417 5.279-14.73 4.6-22.117-.033-.401-.052-1.016-.078-1.76-.13-3.751-.433-5.822-.77-6.967-.62 1.915-1.054 4.005-1.513 6.178-1.171 5.693-2.407 11.547-7.148 15.81-7.084 6.372-15.125 5.654-22.868 4.949-2.64-.24-5.37-.485-7.957-.42-.627.012-.977.032-1.164.07l-.104.227c-.233.472-.569 1.145-1.158 1.986a22.17 22.17 0 0 0-.996 1.56c-1.352 2.205-3.027 4.96-5.718 5.524-.951.194-2.407.194-4.05-.958-6.385-4.483-2.989-16.127-1.126-20.241 1.242-2.756 2.97-5.499 7.174-7.142 3.765-1.442 6.748-.032 9.128 1.106 1.23.602 2.38 1.145 3.577 1.327 3.17.478 7.42.097 9.794-2.472 1.941-2.057 1.734-4.094 1.184-7.503-.181-1.158-.369-2.349-.433-3.617a2.23 2.23 0 0 1 2.109-2.348 2.199 2.199 0 0 1 2.341 2.096c.065 1.087.246 2.141.395 3.17.543 3.512 1.177 7.504-2.329 11.243-3.047 3.267-8.183 4.69-13.733 3.836-1.844-.272-3.422-1.022-4.813-1.688-2.329-1.113-3.72-1.715-5.628-.977-2.568 1.002-3.649 2.451-4.703 4.82-2.096 4.657-3.448 12.581-.356 14.742l.563.233c.796-.169 2.115-2.316 2.814-3.468.394-.672.809-1.326 1.17-1.85.402-.55.615-.996.79-1.358 1.041-2.083 2.206-2.717 5.182-2.782 2.833-.078 5.686.194 8.454.446 7.123.647 13.837 1.242 19.459-3.823 3.674-3.299 4.69-8.215 5.77-13.39.699-3.312 1.417-6.728 2.86-9.775a2.25 2.25 0 0 1 1.727-1.248c1.3-.162 2.51.18 3.5 1.015 2.522 2.148 2.878 6.883 3.033 11.547.02.621.045 1.145.078 1.488.744 8.326-2.219 17.279-4.89 24.149-.783 2.011-1.915 3.752-3.035 5.446-1.397 2.155-2.723 4.186-3.092 6.437-.407 2.64 3.306 9.742 7.97 12.673 3.008 1.901 4.502.84 5 .485.305-.207.298-1.178-1.442-4.677-.272-.576-.53-1.1-.718-1.553-2.64-6.275.278-12.685 2.393-17.356 1.016-2.219 9.975-22.428 11.05-43.516.07-.841 1.222-19.55-14.692-28.114a2.24 2.24 0 0 1-1.125-1.482 2.213 2.213 0 0 1 .394-1.81l6.43-8.637-10.563 2.096c-.88.149-1.76-.194-2.264-.919l-6.126-8.74-1.372 10.688a2.232 2.232 0 0 1-1.54 1.837l-10.136 3.182 9.651 4.567c.777.356 1.275 1.165 1.275 2.012l-.02 10.61 6.217-6.858.213-.207c2.446-2.063 4.69-2.264 6.133-2.057 3.202.414 5.104 3.028 5.31 3.319 3.488 4.023.344 9.58-2.095 12.2-13.992 14.827-31.096 6.883-32.882 5.97-8.467-3.337-14.18-10.433-15.687-19.496-1.63-9.794 2.096-20.164 9.477-26.407 2.31-1.96 4.761-3.726 7.168-5.433 3.28-2.362 6.385-4.587 9.147-7.278l.22-.207c1.436-1.39 3.849-3.7 4.146-5.434.233-1.332-.375-2.95-1.022-4.67-.349-.913-.679-1.812-.918-2.672-1.249-4.735-2.963-11.204 2.626-16.069 3.312-2.885 7.834-3.506 12.123-1.624 4.625 2.032 7.782 6.489 7.873 11.095.09 2.555-.667 4.87-1.385 7.135-.271.893-.57 1.785-.808 2.672-.059.232-1.126 3.493.355 6.106.951 1.643 2.82 2.775 5.57 3.351 0 0 3.623.628 6.398-1.708 2.445-2.083 3.661-5.932 3.584-11.43.02-.621.698-10.771 4.851-16.237.2-.35 3.364-5.124 14.504-10.124.239-.097 11.922-4.735 10.958-12.032-.142-1.23.705-2.349 1.928-2.497 1.216-.175 2.335.692 2.51 1.914 1.397 10.771-13.068 16.49-13.689 16.723-9.748 4.405-12.536 8.52-12.556 8.558-3.435 4.535-4.05 13.714-4.062 13.785.11 6.78-1.643 11.806-5.208 14.808-4.424 3.687-9.884 2.665-10.104 2.62-4.101-.86-6.98-2.73-8.59-5.57-2.465-4.367-.777-9.328-.706-9.542.181-.776.498-1.753.802-2.75.654-1.998 1.249-3.88 1.203-5.666-.07-2.917-2.186-5.783-5.226-7.122-1.281-.557-4.555-1.592-7.394.892-3.248 2.847-2.607 6.424-1.23 11.567.188.73.473 1.462.764 2.219.795 2.115 1.688 4.49 1.242 7.031-.537 3.17-3.383 5.9-5.453 7.886l-.207.214c-3.015 2.891-6.385 5.323-9.646 7.672-2.328 1.669-4.709 3.39-6.895 5.233-6.204 5.233-9.316 13.986-7.938 22.253 1.242 7.51 5.984 13.39 12.996 16.12l.265.11c.608.35 15.338 8.029 27.649-5.026.02-.02 3.726-4.179 1.817-6.41-.407-.53-1.313-1.508-2.413-1.644-.77-.09-1.617.24-2.522.964l-9.995 11.03a2.27 2.27 0 0 1-2.458.595 2.294 2.294 0 0 1-1.43-2.109l.026-14.969-13.52-6.398a2.209 2.209 0 0 1-1.274-2.16 2.25 2.25 0 0 1 1.546-1.98l14.212-4.444 1.934-14.982a2.195 2.195 0 0 1 1.67-1.882 2.219 2.219 0 0 1 2.367.866l8.597 12.285 14.84-2.95a2.286 2.286 0 0 1 2.335.996c.485.79.44 1.799-.11 2.536l-8.429 11.288c16.179 10.396 14.891 30.158 14.827 31.025-1.132 21.859-10.402 42.773-11.45 45.076-1.876 4.16-4.23 9.302-2.342 13.785.155.362.369.809.602 1.294 1.339 2.684 3.797 7.678 0 10.337a7.688 7.688 0 0 1-4.807 1.39" style="stroke-width:6.46892" transform="matrix(1.2 0 0 1.2 -368.37 -270.67)"/></svg>