<svg xmlns="http://www.w3.org/2000/svg" width="1000" height="277.836" viewBox="0 0 1000 277.836"><path fill="#00a79d" d="M105.683 52.846c0 29.189-23.652 52.85-52.833 52.85C23.652 105.696 0 82.035 0 52.846 0 23.66 23.652 0 52.85 0c29.18 0 52.833 23.661 52.833 52.846m77.2 116.71c0 29.175-23.653 52.845-52.842 52.845-29.176 0-52.833-23.67-52.833-52.845 0-29.195 23.657-52.855 52.833-52.855 29.189 0 52.841 23.66 52.841 52.855m120.088 55.426c0 29.189-23.66 52.854-52.84 52.854-29.186 0-52.842-23.665-52.842-52.854 0-29.185 23.657-52.846 52.84-52.846 29.182 0 52.842 23.66 52.842 52.846M420.288 52.846c0 29.189-23.66 52.85-52.846 52.85-29.183 0-52.854-23.661-52.854-52.85C314.588 23.66 338.258 0 367.443 0c29.184 0 52.845 23.661 52.845 52.846"/><path fill="#31317f" d="M203.805 99.17V6.516h92.65v34.762h-56.872v23.148h56.871V99.17ZM433.65 6.25h35.783v92.664H433.65zM116.933 99.17V64.426h29.473V41.278h-29.473V6.515h65.233V99.17Zm86.87 20.377h92.65v34.745h-92.65zM350.047 212.2v-57.906h-28.924V119.55h92.633v34.744h-28.933V212.2zM841.457 12.788c5.074 0 9.192 4.362 9.192 9.766 0 5.387-4.118 9.762-9.192 9.762-5.073 0-9.192-4.375-9.192-9.762 0-5.404 4.12-9.766 9.192-9.766m0 25.746c9.223 0 16.687-7.154 16.687-15.98 0-8.842-7.464-15.993-16.687-15.993-9.218 0-16.682 7.15-16.682 15.993 0 8.826 7.464 15.98 16.682 15.98m63.234-25.445c4.207 0 7.624 3.65 7.624 8.124 0 4.485-3.417 8.126-7.624 8.126-4.19 0-7.605-3.641-7.605-8.127 0-4.472 3.415-8.123 7.605-8.123m0 22.8c8.432 0 15.277-6.59 15.277-14.677 0-8.074-6.845-14.654-15.277-14.654-8.423 0-15.273 6.58-15.273 14.655 0 8.086 6.85 14.676 15.273 14.676"/><path fill="#31317f" d="M866.41 36.904c-1.192 3.747-8.038 4.013-9.88 4.013h-34.047v6.168h14.941v24.992h8.061v-24.99h11.141c1.97-.01 8.614-.328 9.784-4.014v29.004h8.061V6.248h-8.06zm93.051-7.281c0-5.378 4.124-9.758 9.193-9.758 5.073 0 9.196 4.38 9.196 9.758 0 5.396-4.123 9.771-9.196 9.771-5.069 0-9.192-4.375-9.192-9.77m32.486-23.375v41.214c-1.242 3.708-8.043 3.97-9.877 3.97h-9.387v-6.307c7.265-1.728 12.662-8.008 12.662-15.503 0-3.712-1.33-7.124-3.55-9.846h5.653v-6.142h-14.765V6.249h-8.065v7.385h-14.756v6.143h5.643c-2.214 2.723-3.54 6.134-3.54 9.846 0 7.495 5.392 13.775 12.653 15.503v6.306h-16.59v6.156h34.144c1.961 0 8.555-.31 9.775-3.946v18.433H1000V6.25Zm-91.28 50.144h8.053V44.426h10.39c1.878-.013 8.038-.278 9.603-3.513v9.333h-13.448v6.147h13.447v5.892h8.061V6.248h-8.06v28.487c-1.6 3.292-7.942 3.53-9.71 3.522h-34.04v6.17h15.705zm-1.268.13h-8.13v10.84a4.396 4.396 0 0 0 4.41 4.416h41.527v-6.152H899.4ZM640.126 39.075h24.12v5.855H648.28v.053l-.362.049v6.151l33.507-.053v4.115h-33.507v12.299a4.23 4.23 0 0 0 4.23 4.233h37.763v-6.151h-33.94v-4.159h33.506V44.93H672.29v-5.855h24.973v-6.16h-57.137zm89.632 28.669c-5.338 0-9.669-4.375-9.669-9.762 0-5.41 4.33-9.771 9.669-9.771 5.343 0 9.683 4.361 9.683 9.77 0 5.387-4.34 9.763-9.683 9.763m0-25.746c-9.7 0-17.567 7.145-17.567 15.984 0 8.829 7.867 15.993 17.567 15.993s17.576-7.164 17.576-15.993c0-8.84-7.875-15.985-17.576-15.985m-28.207-2.929h56.354v-6.151h-56.354zm60.646 0h55.563v-6.151h-55.563Zm-48.614-9.894h36.53v-6.156H717.46V12.602h32.654V6.46h-40.767v18.48a4.232 4.232 0 0 0 4.237 4.234m88.263 36.449h-23.745v-7.226h23.745zm0-20.69v7.472h-23.745v-7.473h-8.126v22.614c0 2.338 1.909 4.233 4.242 4.233h31.523c2.346 0 4.229-1.948 4.229-4.304V44.932ZM656.042 23.015V12.62h25.314v10.47h-25.314zm-3.897 6.235h37.329V10.695a4.232 4.232 0 0 0-4.238-4.234h-37.32v18.557c0 2.334 1.9 4.233 4.229 4.233m149.703.432h8.122V10.694a4.222 4.222 0 0 0-4.229-4.233h-35.77v6.164h31.877Zm-192.39 8.615c1.494-1.936 3.527-4.584 4.19-5.396C600.28 26.286 598.72 15.866 598.72 7.65v-1.4h-8.807v1.4c0 8.216-1.547 18.636-14.915 25.252.65.813 2.687 3.46 4.177 5.396 6.88-3.368 11.971-7.87 15.144-13.828 3.174 5.956 8.264 10.46 15.14 13.828m-.457 28.712c-5.347 0-9.669-4.37-9.669-9.766 0-5.388 4.322-9.772 9.669-9.772 5.356 0 9.674 4.384 9.674 9.772 0 5.395-4.318 9.766-9.674 9.766m0-25.764c-9.696 0-17.57 7.163-17.57 15.998 0 8.82 7.875 15.988 17.57 15.988 9.705 0 17.572-7.168 17.572-15.988 0-8.835-7.867-15.998-17.572-15.998m18.976-34.997h-8.052v35.063h8.052V25.535h9.471v-6.32h-9.47zM548.19 67.01c-5.335 0-9.67-4.37-9.67-9.766 0-5.388 4.335-9.772 9.669-9.772 5.352 0 9.675 4.384 9.675 9.772 0 5.395-4.323 9.766-9.674 9.766m0-25.764c-9.7 0-17.571 7.163-17.571 15.998 0 8.82 7.87 15.988 17.57 15.988 9.71 0 17.58-7.168 17.58-15.988 0-8.835-7.87-15.998-17.58-15.998m-25.29-17.954c0-5.387 4.11-9.771 9.193-9.771 5.069 0 9.183 4.384 9.183 9.771 0 5.392-4.114 9.767-9.183 9.767-5.082 0-9.192-4.375-9.192-9.767m25.87 0c0-8.816-7.468-16.007-16.678-16.007-9.219 0-16.696 7.19-16.696 16.007 0 8.834 7.477 15.993 16.696 15.993 9.21 0 16.678-7.159 16.678-15.993m10.347-9.594h-9.546v6.148h9.546v5.776h-9.546v6.151h9.546v9.537h8.043V6.247h-8.043zM548.063 98.96h-5.908l-13.231 13.629V98.959h-4.438v30.984h4.438v-15.185l13.81 15.185h6.483l-15.72-16.334zm13.323 28.143c-4.927 0-7.102-4.433-7.102-8.472 0-4.308 2.616-8.48 7.102-8.48 4.438 0 7.062 4.171 7.062 8.48 0 4.04-2.179 8.472-7.062 8.472m0-20.333c-6.93 0-11.544 4.971-11.544 11.862 0 6.478 4.707 11.852 11.544 11.852 6.792 0 11.503-5.374 11.503-11.853 0-6.89-4.623-11.862-11.503-11.862m19.99 4.042h-.084v-3.505h-3.91v22.636h4.175v-10.297c0-5.679 2.444-9.231 6.17-9.231.716 0 1.555.096 2.307.397v-3.725c-.884-.177-1.512-.314-2.754-.314-2.395 0-4.8 1.692-5.905 4.039m20.475-.66c3.593 0 5.635 2.837 5.635 6.302h-11.72c.309-2.927 2.001-6.302 6.085-6.302m1.197 20.333c3.73 0 5.551-.897 7.15-1.463v-4.18c-1.02.852-4.21 2.262-6.973 2.262-3.955 0-7.46-3.054-7.46-7.54h16.167c0-7.282-2.445-12.793-9.988-12.793-6.395 0-10.615 4.76-10.615 11.454 0 7.377 3.685 12.26 11.72 12.26m20.527-3.38c-1.913 0-4.22-1.283-4.22-3.678 0-3.99 5.595-4.357 7.862-4.357.883 0 1.776.093 2.66.093v1.993c0 3.38-2.174 5.948-6.302 5.948m6.655-.089h.093v2.93h3.902c-.084-.663-.172-1.86-.172-4.432v-9.369c0-6.174-2.626-9.373-9.104-9.373-2.886 0-5.374.897-7.46 2.139l.226 3.549c1.683-1.428 4.211-2.307 6.566-2.307 4.177 0 5.596 1.997 5.596 5.904-1.64-.093-2.798-.093-4.438-.093-4.308 0-10.53 1.78-10.53 7.464 0 4.923 3.424 7.058 8.303 7.058 3.823 0 6.042-2.091 7.018-3.47m50.856-23.881h.088v26.808h4.442V98.96h-7.328l-9.545 25.751-9.722-25.75h-7.323v30.979h4.437v-26.808h.092l10.253 26.808h4.344zm19.559 7.018c3.593 0 5.634 2.837 5.634 6.302h-11.715c.305-2.927 1.998-6.302 6.08-6.302m1.199 20.333c3.73 0 5.55-.897 7.15-1.463v-4.18c-1.02.852-4.216 2.262-6.97 2.262-3.95 0-7.46-3.054-7.46-7.54h16.158c0-7.282-2.435-12.793-9.983-12.793-6.394 0-10.615 4.76-10.615 11.454 0 7.377 3.685 12.26 11.72 12.26m16.746-11.943c-.088-4.132 1.693-8.388 6.214-8.388 4.534 0 6.708 4.296 6.708 8.516 0 3.783-1.953 8.431-6.66 8.431-4.485 0-6.35-5.01-6.262-8.56m13.01 8.212h.093v3.19h3.995V96.655h-4.175v13.758h-.09c-1.288-2.095-3.547-3.642-7.502-3.642-6.568 0-9.767 5.378-9.767 11.455 0 6.165 2.886 12.254 9.718 12.254 4.04 0 6.62-2.037 7.729-3.729m14.324-19.446h-4.175v22.636h4.175zm.27-9.77h-4.706v4.706h4.706zm13.412 29.567c-1.91 0-4.216-1.282-4.216-3.677 0-3.99 5.594-4.357 7.858-4.357.884 0 1.771.093 2.66.093v1.993c0 3.38-2.174 5.948-6.302 5.948m6.66-.089h.084v2.93h3.912c-.089-.663-.178-1.86-.178-4.432v-9.369c0-6.174-2.625-9.373-9.099-9.373-2.89 0-5.373.897-7.455 2.139l.217 3.549c1.688-1.428 4.216-2.307 6.567-2.307 4.176 0 5.595 1.997 5.595 5.904-1.64-.093-2.798-.093-4.437-.093-4.31 0-10.523 1.78-10.523 7.464 0 4.923 3.416 7.058 8.304 7.058 3.814 0 6.037-2.091 7.014-3.47m-233.658 28.05h-3.779v-9.413h4.265c4.083 0 6.218 1.776 6.218 4.57 0 2.978-2.492 4.843-6.704 4.843m5.109 2.307v-.084c3.601-.627 6.399-3.283 6.399-7.066 0-7.407-5.909-8.388-12.038-8.388h-7.593v30.997h4.438v-13.766h2.669c2.35 0 3.818 0 5.188 3.009l4.755 10.757h5.06l-5.855-12.348c-.986-1.914-1.649-2.572-3.023-3.111m26.188 6.661c0 3.386-2.174 5.953-6.302 5.953-1.904 0-4.22-1.286-4.22-3.686 0-4 5.595-4.357 7.862-4.357.893 0 1.772.093 2.66.093zm4.177-5.02c0-6.165-2.616-9.37-9.104-9.37-2.885 0-5.37.893-7.46 2.13l.226 3.554c1.684-1.419 4.215-2.303 6.567-2.303 4.171 0 5.594 1.993 5.594 5.9-1.64-.092-2.797-.092-4.437-.092-4.308 0-10.522 1.785-10.522 7.468 0 4.927 3.42 7.053 8.304 7.053 3.814 0 6.032-2.081 7.013-3.46h.089v2.934h3.902c-.084-.667-.173-1.87-.173-4.445zm11.351 6.932v-12.396h5.993v-3.359h-5.993v-6.58l-4.171 1.33v5.25h-5.109v3.359h5.109v13.235c0 4.535 2.66 6.572 6.969 6.572 1.33 0 2.625-.349 3.553-.623v-3.553c-.619.402-1.556.804-2.847.804-1.908 0-3.504-1.419-3.504-4.04m11.335 6.884h4.167v-22.64h-4.168zm-.27-27.709h4.702v-4.706H590.5zm21.804 4.525c-3.147 0-6.17 1.556-7.412 4.132h-.087v-3.588h-4.04v22.64h4.168v-10.482c0-5.502 2.134-9.32 6.89-9.32 3.641.22 4.79 2.792 4.79 8.078v11.724h4.176v-13.453c0-6.09-2.625-9.73-8.485-9.73m23.416 19.804c-3.906 0-6.31-3.73-6.31-7.99 0-3.867 2.09-8.436 6.311-8.436 4.437 0 6.611 4.04 6.611 8.745 0 4.216-2.7 7.681-6.61 7.681m6.924-15.9h-.088c-1.241-2.43-3.46-3.902-7.46-3.902-6.832 0-10.124 6.217-10.124 12.029 0 5.864 3.195 11.154 9.678 11.154 2.89 0 5.816-1.158 7.597-3.513h.084v2.222c0 4.795-2.616 7.77-7.009 7.77-3.067 0-4.971-.579-8.171-2.042l-.443 3.858c3.642 1.246 5.724 1.551 8.124 1.551 8.126 0 11.675-3.946 11.675-10.827v-21.659h-3.863zm30.345 15.633h-3.332v-10.474h2.89c3.818 0 8.034.667 8.034 5.462 0 4.172-3.597 5.012-7.592 5.012m-3.332-23.705h4.662c2.577 0 5.732.932 5.732 4.618 0 4.573-3.646 4.971-7.95 4.971h-2.444zm8.44 11.631v-.084c3.903-.985 6.39-3.116 6.39-7.38 0-5.719-4.436-7.81-10.875-7.81h-8.396v30.994h8.255c6.31 0 11.817-1.6 11.817-8.256 0-4.362-2.978-7.115-7.19-7.464m22.348 12.876c-4.928 0-7.102-4.436-7.102-8.48 0-4.314 2.616-8.48 7.101-8.48 4.438 0 7.063 4.166 7.063 8.48 0 4.044-2.179 8.48-7.063 8.48m0-20.341c-6.928 0-11.543 4.971-11.543 11.86 0 6.48 4.707 11.854 11.543 11.854 6.793 0 11.5-5.375 11.5-11.853 0-6.89-4.618-11.862-11.5-11.862m29.132 14.391c0 3.385-2.179 5.953-6.302 5.953-1.913 0-4.22-1.287-4.22-3.686 0-4 5.594-4.358 7.853-4.358.892 0 1.78.094 2.669.094zm4.17-5.02c0-6.165-2.614-9.37-9.097-9.37-2.891 0-5.375.893-7.461 2.13l.217 3.554c1.693-1.419 4.224-2.303 6.576-2.303 4.171 0 5.595 1.993 5.595 5.9-1.645-.093-2.798-.093-4.438-.093-4.308 0-10.522 1.786-10.522 7.469 0 4.927 3.42 7.053 8.295 7.053 3.819 0 6.041-2.081 7.018-3.46h.093v2.934h3.903c-.084-.667-.177-1.87-.177-4.445zm9.554-5.32h-.088v-3.505h-3.907v22.64h4.171v-10.302c0-5.682 2.445-9.24 6.175-9.24.707 0 1.556.096 2.306.406v-3.73c-.888-.181-1.511-.318-2.753-.318-2.4 0-4.795 1.697-5.904 4.048m20.715 16.292c-4.49 0-6.35-5.016-6.262-8.568-.088-4.128 1.688-8.392 6.213-8.392 4.53 0 6.704 4.308 6.704 8.524 0 3.774-1.957 8.436-6.655 8.436m6.655-30.462v13.766h-.087c-1.286-2.09-3.55-3.645-7.504-3.645-6.567 0-9.767 5.374-9.767 11.459 0 6.173 2.882 12.254 9.727 12.254 4.04 0 6.611-2.037 7.72-3.725h.093v3.2h3.99V139.52Z"/></svg>