<svg xmlns="http://www.w3.org/2000/svg" width="1641.1884mm" height="300mm" viewBox="0 0 1641.1884 300"><defs><clipPath id="a" clipPathUnits="userSpaceOnUse"><path d="M0 841.89h595.276V0H0Z"/></clipPath></defs><g clip-path="url(#a)" transform="matrix(5.29166 0 0 -5.29166 -754.403 2377.497)"><path d="M0 0a6.943 6.943 0 0 0-6.947-6.944A6.943 6.943 0 0 0-13.889 0a6.946 6.946 0 0 0 6.942 6.948A6.946 6.946 0 0 0 0 0" style="fill:#f47216;fill-opacity:1;fill-rule:nonzero;stroke:none" transform="translate(268.771 441.183)"/><path d="M0 0a7.349 7.349 0 1 0-.003 14.697A7.349 7.349 0 0 0 0 0m0 26.378c-10.512 0-19.029-8.521-19.029-19.03 0-10.51 8.517-19.028 19.029-19.028 10.507 0 19.025 8.518 19.025 19.028 0 10.509-8.518 19.03-19.025 19.03" style="fill:#593c9f;fill-opacity:1;fill-rule:nonzero;stroke:none" transform="translate(200.542 404.279)"/><path d="M0 0h-9.29v4.646c0 1.188.367 2.117 1.105 2.784 1.417 1.275 3.398 1.167 5.036.714l1.997 10.352a19.785 19.785 0 0 1-6.709 1.144c-4.429 0-8.011-1.275-10.745-3.82-2.739-2.549-4.107-5.962-4.107-10.248V0h-6.703v-10.422h6.703v-25.634H-9.29v25.634H0Z" style="fill:#593c9f;fill-opacity:1;fill-rule:nonzero;stroke:none" transform="translate(250.99 429.651)"/><path d="M0 0v29.034h-13.352v-52.629H0V-7.25l9.828-16.345h16.395L12.783-3.29l14.179 15.754-9.785.017c-5.248.01-6.553-.803-9.549-4.083z" style="fill:#593c9f;fill-opacity:1;fill-rule:nonzero;stroke:none" transform="translate(155.917 417.19)"/><path d="M0 0c0 3.356-2.75 6.103-6.108 6.103h-7.246v-36.057H0Z" style="fill:#593c9f;fill-opacity:1;fill-rule:nonzero;stroke:none" transform="translate(268.502 423.55)"/><path d="M0 0a7.341 7.341 0 0 0-6.553-4.036 7.348 7.348 0 0 0 0 14.696A7.341 7.341 0 0 0-.012 6.648h12.189c-1.579 8.918-9.36 15.694-18.73 15.694-10.509 0-19.027-8.521-19.027-19.03 0-10.51 8.518-19.028 19.027-19.028C2.826-15.716 10.614-8.93 12.182 0z" style="fill:#593c9f;fill-opacity:1;fill-rule:nonzero;stroke:none" transform="translate(298.195 408.315)"/><path d="m0 0-3.266 4.005V0h-1.802v8.985h1.802V4.956L0 8.985h2.175l-3.701-4.451L2.283 0Z" style="fill:#706d6e;fill-opacity:1;fill-rule:nonzero;stroke:none" transform="translate(331.047 393.707)"/><path d="M0 0c.296.168.518.399.69.722.174.316.261.705.261 1.153 0 .685-.174 1.205-.534 1.564a1.745 1.745 0 0 1-1.306.554c-.513 0-.943-.183-1.29-.554-.348-.359-.523-.879-.523-1.564 0-.672.168-1.193.505-1.563.337-.36.763-.541 1.284-.541.321 0 .63.077.913.229m-2.773-1.352c-.541.305-.975.74-1.291 1.303-.315.557-.465 1.198-.465 1.924 0 .728.154 1.379.484 1.937.313.556.754.986 1.31 1.292a3.85 3.85 0 0 0 1.866.453c.69 0 1.308-.15 1.868-.453a3.37 3.37 0 0 0 1.319-1.292c.328-.558.487-1.209.487-1.937 0-.726-.162-1.367-.502-1.924A3.4 3.4 0 0 0 .967-1.352c-.561-.302-1.184-.45-1.88-.45-.694 0-1.304.148-1.86.45" style="fill:#706d6e;fill-opacity:1;fill-rule:nonzero;stroke:none" transform="translate(337.951 395.398)"/><path d="M0 0c.372.214.806.328 1.281.328v-1.896H.807c-.569 0-1-.138-1.284-.399-.282-.262-.429-.731-.429-1.39v-3.554h-1.807V.221h1.807V-.88c.234.374.537.668.906.88" style="fill:#706d6e;fill-opacity:1;fill-rule:nonzero;stroke:none" transform="translate(344.66 400.618)"/><path d="M0 0c-.011.459-.178.834-.495 1.107-.333.286-.734.422-1.205.422-.445 0-.821-.132-1.125-.404C-3.13.852-3.321.479-3.386 0Zm1.812-1.21h-5.211c.042-.519.223-.919.545-1.215.316-.292.709-.433 1.17-.433.669 0 1.144.287 1.427.864h1.94a3.194 3.194 0 0 0-1.18-1.694c-.584-.443-1.304-.665-2.148-.665-.684 0-1.304.148-1.849.451A3.204 3.204 0 0 0-4.766-2.6c-.305.557-.462 1.199-.462 1.924 0 .738.155 1.384.454 1.944.298.564.717.994 1.261 1.293.539.298 1.161.445 1.868.445.671 0 1.28-.142 1.819-.435.54-.296.952-.704 1.245-1.244.301-.537.446-1.146.446-1.842a3.52 3.52 0 0 0-.053-.695" style="fill:#706d6e;fill-opacity:1;fill-rule:nonzero;stroke:none" transform="translate(351.782 397.948)"/><path d="M0 0a1.795 1.795 0 0 1-.694.729c-.288.166-.606.25-.932.25-.334 0-.644-.083-.934-.247a1.883 1.883 0 0 1-.687-.714c-.176-.318-.264-.683-.264-1.111 0-.433.088-.809.264-1.129.176-.321.414-.565.695-.739.291-.174.592-.26.926-.26.326 0 .644.086.932.257.298.166.523.4.694.715.171.316.259.687.259 1.124C.259-.686.171-.311 0 0m-4.915.818a3.07 3.07 0 0 0 2.826 1.739c.524 0 .996-.105 1.392-.317.395-.216.719-.488.956-.812v1.013h1.823V-4.69H.259v1.042a2.666 2.666 0 0 0-.956-.831c-.406-.219-.87-.323-1.407-.323-.598 0-1.153.15-1.637.459-.499.31-.89.745-1.174 1.306-.295.562-.434 1.207-.434 1.944 0 .718.139 1.352.434 1.911" style="fill:#706d6e;fill-opacity:1;fill-rule:nonzero;stroke:none" transform="translate(359.72 398.398)"/><path d="M0 0c.524-.529.785-1.28.785-2.242v-4.187h-1.807v3.946c0 .565-.146.999-.42 1.303-.29.304-.675.455-1.162.455-.498 0-.89-.151-1.175-.455-.293-.304-.434-.738-.434-1.303v-3.946h-1.802V.703h1.802v-.884c.24.305.547.552.916.728.382.175.783.264 1.234.264C-1.213.811-.523.542 0 0" style="fill:#706d6e;fill-opacity:1;fill-rule:nonzero;stroke:none" transform="translate(369.445 400.136)"/><path d="M0 0v-1.451h-3.746v-2.305h2.87v-1.427h-2.87v-3.802h-1.795V0Z" style="fill:#706d6e;fill-opacity:1;fill-rule:nonzero;stroke:none" transform="translate(380.291 402.692)"/><path d="M383.237 393.707h-1.798v7.132h1.798zm-1.674 8.29a.986.986 0 0 0-.321.745c0 .299.112.559.321.756.207.197.471.303.787.303.315 0 .579-.106.787-.303a.982.982 0 0 0 .319-.756c0-.3-.102-.548-.319-.745-.208-.209-.472-.304-.787-.304-.316 0-.58.095-.787.304M386.693 393.707h-1.811v9.526h1.811z" style="fill:#706d6e;fill-opacity:1;fill-rule:nonzero;stroke:none"/><path d="M0 0c.544-.529.812-1.28.812-2.242v-4.187H-.995v3.946c0 .558-.142.982-.422 1.276-.282.293-.676.447-1.156.447-.49 0-.876-.154-1.171-.447-.285-.294-.433-.718-.433-1.276v-3.946h-1.794v3.946c0 .558-.145.982-.423 1.276-.29.293-.673.447-1.166.447-.491 0-.884-.154-1.177-.447-.284-.294-.433-.718-.433-1.276v-3.946h-1.794V.703h1.794v-.859c.236.298.534.539.903.71.355.172.761.257 1.2.257A3.19 3.19 0 0 0-5.569.457 2.488 2.488 0 0 0-4.562-.559c.237.417.569.744 1.014.988.444.258.922.382 1.438.382C-1.235.811-.529.542 0 0" style="fill:#706d6e;fill-opacity:1;fill-rule:nonzero;stroke:none" transform="translate(399.302 400.136)"/><path d="M0 0c.401.698.94 1.238 1.632 1.628a4.652 4.652 0 0 0 2.327.592c1.005 0 1.888-.257 2.634-.772C7.354.927 7.883.22 8.183-.689H6.108c-.21.429-.493.747-.867.963-.377.218-.806.32-1.299.32-.524 0-.986-.119-1.396-.363a2.621 2.621 0 0 1-.955-1.043c-.223-.439-.336-.961-.336-1.563 0-.598.113-1.119.336-1.564a2.57 2.57 0 0 1 .955-1.043c.41-.25.872-.369 1.396-.369.493 0 .922.108 1.299.326.374.216.657.546.867.972h2.075c-.3-.918-.825-1.628-1.58-2.145-.755-.507-1.627-.76-2.644-.76-.856 0-1.634.194-2.327.585A4.295 4.295 0 0 0 0-4.748c-.401.695-.595 1.487-.595 2.373C-.595-1.497-.401-.702 0 0" style="fill:#706d6e;fill-opacity:1;fill-rule:nonzero;stroke:none" transform="translate(404.788 400.593)"/><path d="M0 0c.289.168.514.399.686.722.171.316.258.705.258 1.153C.944 2.56.77 3.08.416 3.439a1.742 1.742 0 0 1-1.305.554c-.514 0-.949-.183-1.296-.554-.347-.359-.522-.879-.522-1.564 0-.672.173-1.193.511-1.563.335-.36.759-.541 1.273-.541.331 0 .639.077.923.229m-2.773-1.352c-.545.305-.976.74-1.289 1.303-.316.557-.469 1.198-.469 1.924 0 .728.156 1.379.474 1.937.323.556.766.986 1.322 1.292a3.842 3.842 0 0 0 1.866.453 3.84 3.84 0 0 0 1.864-.453A3.426 3.426 0 0 0 2.32 3.812c.316-.558.485-1.209.485-1.937 0-.726-.169-1.367-.5-1.924A3.405 3.405 0 0 0 .967-1.352c-.561-.302-1.196-.45-1.89-.45-.684 0-1.306.148-1.85.45" style="fill:#706d6e;fill-opacity:1;fill-rule:nonzero;stroke:none" transform="translate(418.469 395.398)"/><path d="M0 0v-7.132h-1.811v.904a2.513 2.513 0 0 0-.908-.73 2.801 2.801 0 0 0-1.215-.264c-.554 0-1.054.126-1.482.356a2.627 2.627 0 0 0-1.013 1.042c-.239.466-.359 1.008-.359 1.638V0h1.795v-3.925c0-.565.145-.999.425-1.304.285-.303.672-.459 1.164-.459.49 0 .881.156 1.172.459.274.305.421.739.421 1.304V0Z" style="fill:#706d6e;fill-opacity:1;fill-rule:nonzero;stroke:none" transform="translate(429.193 400.839)"/><path d="M0 0c.524-.529.786-1.28.786-2.242v-4.187h-1.805v3.946c0 .565-.134.999-.425 1.303-.276.304-.664.455-1.155.455-.502 0-.896-.151-1.177-.455-.284-.304-.431-.738-.431-1.303v-3.946h-1.807V.703h1.807v-.884c.234.305.541.552.923.728.367.175.784.264 1.222.264C-1.208.811-.525.542 0 0" style="fill:#706d6e;fill-opacity:1;fill-rule:nonzero;stroke:none" transform="translate(436.854 400.136)"/><path d="M0 0c.299.553.711.979 1.246 1.285.535.304 1.144.453 1.829.453.888 0 1.617-.217 2.193-.657.578-.442.964-1.067 1.169-1.862H4.486a1.368 1.368 0 0 1-.519.73c-.243.176-.545.262-.908.262-.514 0-.92-.19-1.22-.558-.303-.38-.446-.912-.446-1.596 0-.672.143-1.199.446-1.576.3-.373.706-.563 1.22-.563.732 0 1.212.333 1.427.985h1.951c-.205-.77-.594-1.383-1.171-1.845-.588-.449-1.314-.678-2.191-.678-.685 0-1.294.147-1.829.45A3.19 3.19 0 0 0 0-3.874c-.297.55-.453 1.192-.453 1.931C-.453-1.206-.297-.561 0 0" style="fill:#706d6e;fill-opacity:1;fill-rule:nonzero;stroke:none" transform="translate(439.21 399.216)"/><path d="M448.647 393.707h-1.808v7.132h1.808zm-1.687 8.29a.98.98 0 0 0-.31.745c0 .299.102.559.31.756.212.197.474.303.795.303.321 0 .587-.106.794-.303a1.01 1.01 0 0 0 .319-.756c0-.3-.11-.548-.319-.745-.207-.209-.473-.304-.794-.304-.321 0-.583.095-.795.304M452.09 393.707h-1.797v9.526h1.797z" style="fill:#706d6e;fill-opacity:1;fill-rule:nonzero;stroke:none"/><path d="M0 0c0 1.574-1.563 2.72-3.857 2.72-2.297 0-3.86-1.146-3.86-2.72 0-1.574 1.563-2.722 3.86-2.722C-1.563-2.722 0-1.574 0 0m2.641 0c0-2.631-2.432-4.903-6.498-4.903-4.072 0-6.504 2.272-6.504 4.903 0 2.633 2.432 4.903 6.504 4.903 4.066 0 6.498-2.27 6.498-4.903M-9.082 16.539l.02-.001.023.001zm.02-8.481c1.689.013 2.792 1.519 2.792 3.176 0 1.66-1.103 3.163-2.792 3.176-1.688-.013-2.792-1.516-2.792-3.176 0-1.657 1.104-3.163 2.792-3.176m5.262 4.549a5.438 5.438 0 0 0 .091-2.332h3.597v2.332zm-5.262-6.62c-3.297.011-5.439 2.415-5.439 5.247 0 2.838 2.142 5.293 5.439 5.304 1.779-.006 3.217-.725 4.168-1.83h4.782v1.977h2.561V5.354H-.112v2.827h-4.472c-.933-1.312-2.493-2.187-4.478-2.194m.023-.001-.023.001-.02-.001zm20.488.803c1.627.012 2.689 1.393 2.689 2.912 0 1.522-1.062 2.901-2.689 2.912-1.627-.011-2.689-1.39-2.689-2.912 0-1.519 1.062-2.9 2.689-2.912m9.746 3.534h2.428V8.116h-2.428V-4.14h-2.566V.645C17.475.354 16.165.264 15.317.264H5.984v2.098h4.184v2.663c-2.435.513-3.956 2.449-3.956 4.676 0 1.351.559 2.605 1.538 3.501H6.09v2.102h4.048v1.723h2.62v-1.723h4.051v-2.102h-1.661a4.72 4.72 0 0 0 1.539-3.501c0-2.227-1.521-4.163-3.957-4.676V2.362h2.587c.996 0 2.298.112 3.312.406v13.917h2.566zm65.584-8.489h2.561v3.099h2.183c.954 0 2.479.117 3.723.497V4.028h-3.663V1.979h3.663V.635h2.563v16.05h-2.563V7.414c-1.055-.396-2.588-.538-3.723-.538h-8.991V4.933h4.247zM52.462 6.322l-.024.001-.023-.001zm2.94 4.53c0 1.321-1.171 2.517-2.964 2.527-1.795-.01-2.963-1.206-2.963-2.527 0-1.32 1.168-2.519 2.963-2.53 1.793.011 2.964 1.21 2.964 2.53m-7.279 3.098h-2.876v2.097h5.882v1.16h2.619v-1.16h5.882V13.95H56.753c.931-.827 1.459-1.923 1.459-3.098 0-2.445-2.274-4.52-5.774-4.529-3.5.009-5.774 2.084-5.774 4.529 0 1.175.527 2.271 1.459 3.098m58.627-7.52c1.627.012 2.688 1.393 2.688 2.912 0 1.522-1.061 2.901-2.688 2.913-1.627-.012-2.689-1.391-2.689-2.913 0-1.519 1.062-2.9 2.689-2.912m9.744 10.255V-4.14h-2.564V.105c-1.155-.289-2.465-.379-3.312-.379h-9.332v2.099h4.182v2.842c-2.435.513-3.955 2.447-3.955 4.675 0 1.363.57 2.627 1.565 3.525h-1.687v2.102h4.047v2.058h2.621v-2.058h4.048v-2.102h-1.685a4.718 4.718 0 0 0 1.565-3.525c0-2.228-1.52-4.162-3.956-4.675V1.825h2.587c.996 0 2.298.111 3.312.405v14.455zm-28.586.391.021-.001.019.001zm.04-9.307-.019.001-.021-.001zm-2.553 4.628c0-1.432 1-2.733 2.534-2.745 1.532.012 2.534 1.313 2.534 2.745 0 1.435-1.002 2.735-2.534 2.747-1.534-.012-2.534-1.312-2.534-2.747m-2.504 0c0 2.503 1.984 4.668 5.038 4.678 3.053-.01 5.037-2.175 5.037-4.678 0-2.497-1.984-4.619-5.037-4.627-3.054.008-5.038 2.13-5.038 4.627m-16.92-.191c0-1.522 1.064-2.905 2.693-2.917 1.629.012 2.691 1.395 2.691 2.917 0 1.523-1.062 2.905-2.691 2.916-1.629-.011-2.693-1.393-2.693-2.916m-2.553 0c0 2.606 2.066 4.86 5.246 4.87 3.178-.01 5.244-2.264 5.244-4.87 0-2.602-2.066-4.81-5.244-4.819-3.18.009-5.246 2.217-5.246 4.819m5.267-4.82-.021.001-.021-.001zm-.042 9.691.021-.001.021.001zM86.4 2.63h-2.56v-4.642c0-1.11.927-2.018 2.06-2.018h12.051v2.098H86.4Zm-55.911.598h-2.563v-5.24c0-1.11.928-2.018 2.061-2.018h10.96v2.098H30.489Zm25.79-3.249c0 1.555-1.524 2.797-3.841 2.797-2.318 0-3.841-1.242-3.841-2.797 0-1.549 1.523-2.739 3.841-2.739 2.317 0 3.841 1.19 3.841 2.739m-12.23 5.335h16.78V3.226h-3.646c1.188-.875 1.839-2.09 1.839-3.386 0-2.519-2.424-4.743-6.584-4.743-4.157 0-6.58 2.224-6.58 4.743 0 1.296.65 2.511 1.837 3.386h-3.646zm-12.936 3.97c.811-1.593 2.32-3.36 4.717-4.568l1.366 1.806c-2.178 1.254-4.617 3.804-4.648 7.463h3.705v2.099h-10.28v-2.099h3.705c-.032-3.659-2.469-6.209-4.649-7.463l1.367-1.806c2.397 1.208 3.907 2.975 4.717 4.568m45.405-3.359c-1.049-.4-2.588-.543-3.721-.543h-9.698V3.287h3.798V-4.14h2.562v7.427h3.338c.95 0 2.474.112 3.721.492V-4.14h2.562v20.825h-2.562ZM40.805 3.203h-2.563v13.482h2.563z" style="fill:#706d6e;fill-opacity:1;fill-rule:nonzero;stroke:none" transform="translate(336.217 412.106)"/></g></svg>