<svg xmlns="http://www.w3.org/2000/svg" width="1332.4709mm" height="300mm" viewBox="0 0 1332.4709 300"><path d="M0 0v-10.188h3.938V4.1h-58.614v-14.288h3.934V0Z" style="fill:#d51224;fill-opacity:1;fill-rule:nonzero;stroke:none" transform="matrix(6.6537 0 0 -6.6537 363.798 27.28)"/><path d="M0 0v10.182h-3.934V-4.103H54.68v14.285h-3.938V0Z" style="fill:#1e3371;fill-opacity:1;fill-rule:nonzero;stroke:none" transform="matrix(6.6537 0 0 -6.6537 26.176 272.7)"/><path d="M-75.15 232.688h22.623v-88.495H-75.15z" style="fill:#1e3371;fill-opacity:1;fill-rule:nonzero;stroke:none;stroke-width:6.6537" transform="translate(310.852 -38.51)"/><path d="M0 0h-4.625l-6.662-6.189V0h-3.481v-13.3h3.481v6.202l6.662-6.202H.057L-6.92-6.652.057 0Z" style="fill:#1e3371;fill-opacity:1;fill-rule:nonzero;stroke:none" transform="matrix(6.6537 0 0 -6.6537 124.434 105.682)"/><path d="M0 0h7.17v3.438H.166c-1.895 0-3.51-.611-4.738-1.823C-5.809.394-6.408-1.18-6.408-3.209c0-2.025.599-3.596 1.836-4.821C-3.344-9.245-1.729-9.854.166-9.854H7.17v3.432H0c-1.877 0-3 1.546-3 3.213C-3-1.547-1.877 0 0 0" style="fill:#1e3371;fill-opacity:1;fill-rule:nonzero;stroke:none" transform="matrix(6.6537 0 0 -6.6537 316.092 128.554)"/><path d="M0 0h-4.24v6.441H0c1.873 0 2.99-1.553 2.99-3.219S1.873 0 0 0m-.174 9.884-7.471.001V-3.441h7.471c1.903 0 3.514.611 4.74 1.829 1.237 1.23 1.836 2.799 1.836 4.834 0 2.035-.599 3.609-1.836 4.835C3.34 9.273 1.729 9.884-.174 9.884" style="fill:#1e3371;fill-opacity:1;fill-rule:nonzero;stroke:none" transform="matrix(6.6537 0 0 -6.6537 181.095 171.446)"/><path d="M0 0v-.044a2.99 2.99 0 0 0-.363-1.444 4.09 4.09 0 0 0-.959-1.187 4.286 4.286 0 0 0-1.403-.794 5.19 5.19 0 0 0-1.72-.285c-.629 0-1.213.095-1.754.285a4.25 4.25 0 0 0-1.41.794 3.835 3.835 0 0 0-.938 1.187 3.207 3.207 0 0 0-.349 1.444v.045c.003.514.121.993.349 1.445.231.454.545.853.938 1.19.388.337.861.602 1.41.797a5.332 5.332 0 0 0 1.754.284c.601 0 1.175-.097 1.72-.284a4.383 4.383 0 0 0 1.403-.797c.394-.337.715-.736.959-1.19C-.119.994 0 .515 0 .001Zm2.531 2.257-.271.405A5.701 5.701 0 0 1 .889 4.014c-.674.486-1.477.871-2.397 1.144-.908.27-1.904.409-2.937.409-1.061 0-2.059-.142-2.965-.417-.906-.283-1.703-.678-2.375-1.177A5.357 5.357 0 0 1-11.4 2.209a4.552 4.552 0 0 1-.571-2.22c0-.811.196-1.561.571-2.24.38-.684.925-1.274 1.615-1.765A7.938 7.938 0 0 1-7.41-5.189a10.225 10.225 0 0 1 2.965-.416c1.033 0 2.021.137 2.937.407.92.273 1.723.657 2.399 1.141.537.382 1 .836 1.369 1.354l.271.408.274.545c.218.534.334 1.113.334 1.725 0 .624-.116 1.201-.334 1.74z" style="fill:#4a4949;fill-opacity:1;fill-rule:nonzero;stroke:none" transform="matrix(6.6537 0 0 -6.6537 1135.004 156.884)"/><path d="M245.672 225.082h19.894V77.29h-19.894z" style="fill:#4a4949;fill-opacity:1;fill-rule:nonzero;stroke:none;stroke-width:6.6537" transform="translate(310.852 -38.51)"/><path d="M0 0c.113.757.17 1.532.17 2.32v4.371h-15.391V4.713h12.399V2.348c0-.795-.051-1.567-.155-2.327a10.48 10.48 0 0 0-.468-2.023h-4.194v3.789h-2.943v-3.789h-7.219v-1.976H2.988v1.976H-.428C-.258-1.422-.115-.757 0 0" style="fill:#4a4949;fill-opacity:1;fill-rule:nonzero;stroke:none" transform="matrix(6.6537 0 0 -6.6537 1154.913 86.579)"/><path d="M0 0c.117.755.172 1.528.172 2.319v4.149h-15.391V4.489h12.401V2.342c0-.786-.051-1.562-.159-2.321a10.133 10.133 0 0 0-.466-2.027h-14.362v-1.972H2.988v1.972H-.426C-.256-1.427-.115-.759 0 0" style="fill:#4a4949;fill-opacity:1;fill-rule:nonzero;stroke:none" transform="matrix(6.6537 0 0 -6.6537 710.779 85.09)"/><path d="M0 0c-.344 0-.646.101-.918.305-.26.211-.393.484-.393.832v3.324h9.967V0Zm5.15-1.979h6.493v13.09H8.656V6.433h-9.967v4.678h-2.99V.918c0-.828.276-1.513.824-2.068.551-.545 1.196-.829 1.938-.829h3.674v-4.015H-7.18v-1.972h21.641v1.972H5.15Z" style="fill:#4a4949;fill-opacity:1;fill-rule:nonzero;stroke:none" transform="matrix(6.6537 0 0 -6.6537 785.788 115.987)"/><path d="M0 0h9.119v-3.788H1.336c-.363 0-.676.083-.94.247A.8.8 0 0 0 0-2.822Zm-2.996-2.847c0-.825.252-1.517.728-2.076.487-.558 1.071-.839 1.754-.839h12.621v7.738H-2.996Z" style="fill:#4a4949;fill-opacity:1;fill-rule:nonzero;stroke:none" transform="matrix(6.6537 0 0 -6.6537 934.314 148.236)"/><path d="M0 0h9.115v-4.607H1.338c-.361 0-.674.083-.943.247A.797.797 0 0 0 0-3.642Zm-2.986-3.666c0-.825.24-1.518.722-2.076.485-.559 1.067-.839 1.75-.839h12.621v8.56H-2.986Z" style="fill:#4a4949;fill-opacity:1;fill-rule:nonzero;stroke:none" transform="matrix(6.6537 0 0 -6.6537 631.168 142.784)"/><path d="M0 0c-.883 1.53-1.312 3.298-1.293 5.31v4.744h-3.135V5.358a11.922 11.922 0 0 0-.383-2.841A10.123 10.123 0 0 0-5.822.022a7.772 7.772 0 0 0-1.553-1.951 6.433 6.433 0 0 0-2.037-1.256v-2.078a6.995 6.995 0 0 1 2.068.62c.713.326 1.369.725 1.975 1.183a8.56 8.56 0 0 1 1.566 1.531c.44.566.733 1.122.889 1.681.129-.543.42-1.096.863-1.657A9.299 9.299 0 0 1-.439-3.46 10.03 10.03 0 0 1 1.57-4.643a7.248 7.248 0 0 1 2.118-.62v2.078C2.113-2.594.883-1.532 0 0" style="fill:#4a4949;fill-opacity:1;fill-rule:nonzero;stroke:none" transform="matrix(6.6537 0 0 -6.6537 1247.31 108.95)"/><path d="M0 0v6.988h-2.982v-22.212H0v13.245h3.42V0Z" style="fill:#4a4949;fill-opacity:1;fill-rule:nonzero;stroke:none" transform="matrix(6.6537 0 0 -6.6537 1309.715 85.28)"/><path d="M0 0h-2.123c.213.878.32 1.821.307 2.839a11.392 11.392 0 0 1-.305 2.84H0v-.275Zm-5.553-1.334c-.494-1.002-1.107-1.507-1.849-1.507-.741 0-1.356.505-1.848 1.507-.496 1.006-.744 2.398-.744 4.173 0 1.696.26 3.066.767 4.112.518 1.047 1.122 1.566 1.825 1.566.705 0 1.312-.519 1.824-1.566.512-1.046.767-2.416.767-4.112 0-1.775-.246-3.167-.742-4.173M0 7.656h-2.875a6.015 6.015 0 0 1-.451.718 5.403 5.403 0 0 1-1.779 1.564 4.787 4.787 0 0 1-2.297.557c-.832 0-1.6-.184-2.291-.557a5.3 5.3 0 0 1-1.78-1.564c-.498-.661-.873-1.462-1.138-2.412-.268-.944-.391-1.986-.373-3.123a11.078 11.078 0 0 1 .353-3.061c.26-.938.637-1.745 1.129-2.421a4.968 4.968 0 0 1 1.768-1.606c.691-.374 1.47-.564 2.332-.566.867.002 1.638.192 2.336.566a5.024 5.024 0 0 1 1.767 1.606c.149.206.291.432.412.664H0v-8.997h2.992v22.212H0Z" style="fill:#4a4949;fill-opacity:1;fill-rule:nonzero;stroke:none" transform="matrix(6.6537 0 0 -6.6537 523.124 113.544)"/><path d="M0 0c-.555-.627-1.229-.942-2.031-.942-.803 0-1.479.315-2.03.942-.554.629-.824 1.432-.824 2.418 0 .986.27 1.79.824 2.417.551.627 1.227.945 2.03.945.802 0 1.476-.318 2.031-.945.549-.627.828-1.431.828-2.417C.828 1.432.549.629 0 0m7.373 4.172H3.525c-.046.14-.105.283-.162.418a4.827 4.827 0 0 1-1.254 1.68 6.146 6.146 0 0 1-.382.305h2.789v1.978H-.41v1.793h-3.162V8.553h-4.922V6.575h2.705a6.4 6.4 0 0 1-.379-.305 4.832 4.832 0 0 1-1.256-1.68c-.303-.657-.453-1.379-.453-2.172 0-.789.15-1.512.453-2.17a4.805 4.805 0 0 1 1.256-1.68 5.667 5.667 0 0 1 1.859-1.077 6.74 6.74 0 0 1 2.278-.383c.804 0 1.562.13 2.279.383a5.667 5.667 0 0 1 1.861 1.077A4.8 4.8 0 0 1 3.363.248c.272.595.41 1.245.44 1.95h3.57v-5.09h2.988v13.238H7.373Z" style="fill:#4a4949;fill-opacity:1;fill-rule:nonzero;stroke:none" transform="matrix(6.6537 0 0 -6.6537 945.932 107.618)"/><path d="M0 0h1.109v-2.701h.032L2.871 0h1.283l-2.07-3.005 2.232-3.367H2.969L1.141-3.376h-.032v-2.996H0Z" style="fill:#4a4949;fill-opacity:1;fill-rule:nonzero;stroke:none" transform="matrix(6.6537 0 0 -6.6537 443.175 218.912)"/><path d="M0 0c.697 0 .854.846.854 1.627 0 .785-.157 1.615-.854 1.615-.695 0-.861-.83-.861-1.615C-.861.846-.695 0 0 0m0 4.046c.914 0 1.969-.503 1.969-2.419C1.969-.346.914-.803 0-.803c-.914 0-1.977.457-1.977 2.43 0 1.916 1.063 2.419 1.977 2.419" style="fill:#4a4949;fill-opacity:1;fill-rule:nonzero;stroke:none" transform="matrix(6.6537 0 0 -6.6537 485.047 256.456)"/><path d="M0 0h1.012v-.854h.021c.127.363.467.929 1.137.929.07 0 .123-.02.184-.027v-1.059c-.1.028-.194.049-.305.049-.442 0-.93-.285-.93-1.159V-4.7H0Z" style="fill:#4a4949;fill-opacity:1;fill-rule:nonzero;stroke:none" transform="matrix(6.6537 0 0 -6.6537 503.02 230.036)"/><path d="M0 0h-.094c-.927 0-1.472-.205-1.472-.889 0-.426.267-.722.687-.722.647 0 .879.506.879 1.343zm-2.125 2.122c.307.149.734.35 1.418.35 1.396 0 1.717-.714 1.717-1.893v-2.056c0-.334.037-.642.06-.827H.096c-.055.185-.061.413-.061.639H.018c-.27-.382-.61-.712-1.254-.712-.698 0-1.342.505-1.342 1.377 0 1.279.99 1.598 2.359 1.598H0v.175c0 .464-.219.895-.834.895-.545 0-1.082-.273-1.291-.459z" style="fill:#4a4949;fill-opacity:1;fill-rule:nonzero;stroke:none" transform="matrix(6.6537 0 0 -6.6537 567.36 245.981)"/><path d="M0 0h.381c1.248 0 1.816.896 1.816 2.294 0 1.395-.568 2.285-1.816 2.285H0Zm-1.113 5.478H.473c1.898 0 2.91-1.079 2.91-3.184C3.383.146 2.162-.895.473-.895h-1.586z" style="fill:#4a4949;fill-opacity:1;fill-rule:nonzero;stroke:none" transform="matrix(6.6537 0 0 -6.6537 604.268 255.358)"/><path d="M0 0c0 .829-.264 1.25-.746 1.25-.565 0-.809-.631-.809-1.25Zm.822-2.529a3.155 3.155 0 0 0-1.343-.303c-1.446 0-2.075 1.088-2.075 2.355 0 1.408.705 2.494 1.85 2.494.959 0 1.789-.595 1.789-2.512v-.218h-2.598C-1.555-1.514-1.248-2-.408-2c.66 0 1.027.225 1.23.383z" style="fill:#4a4949;fill-opacity:1;fill-rule:nonzero;stroke:none" transform="matrix(6.6537 0 0 -6.6537 646.737 242.953)"/><path d="M0 0c.602 0 .807.608.807 1.551 0 1.091-.166 1.637-.789 1.637-.635 0-.858-.722-.858-1.611C-.84.667-.596 0 0 0m-1.953 3.941h1.047v-.728h.023c.176.404.494.804 1.194.804 1.113 0 1.578-1.115 1.578-2.419 0-1.535-.582-2.43-1.549-2.43-.647 0-1.004.385-1.16.75h-.02v-2.647h-1.113z" style="fill:#4a4949;fill-opacity:1;fill-rule:nonzero;stroke:none" transform="matrix(6.6537 0 0 -6.6537 671.13 256.26)"/><path d="M0 0c.695 0 .85.846.85 1.627 0 .785-.155 1.615-.85 1.615-.699 0-.865-.83-.865-1.615C-.865.846-.699 0 0 0m0 4.046c.912 0 1.965-.503 1.965-2.419C1.965-.346.912-.803 0-.803c-.916 0-1.979.457-1.979 2.43 0 1.916 1.063 2.419 1.979 2.419" style="fill:#4a4949;fill-opacity:1;fill-rule:nonzero;stroke:none" transform="matrix(6.6537 0 0 -6.6537 700.187 256.456)"/><path d="M0 0c.174-.072.666-.312 1.174-.312.39 0 .695.102.695.468 0 .182-.088.354-.478.592l-.446.273C.494 1.306 0 1.609 0 2.346c0 .648.598 1.333 1.547 1.333.576 0 1.019-.155 1.123-.192v-.876c-.27.108-.621.211-1.012.211-.429 0-.619-.173-.619-.455 0-.259.193-.394.508-.605l.527-.355c.561-.372.842-.637.842-1.189 0-.864-.701-1.388-1.676-1.388-.554 0-1.015.137-1.24.232Z" style="fill:#4a4949;fill-opacity:1;fill-rule:nonzero;stroke:none" transform="matrix(6.6537 0 0 -6.6537 717.055 254.012)"/><path d="M431.024 268.544h7.16v31.266h-7.16zm-.127-13.28h7.392v7.379h-7.392z" style="fill:#4a4949;fill-opacity:1;fill-rule:nonzero;stroke:none;stroke-width:6.6537" transform="translate(310.852 -38.51)"/><path d="M0 0h1.082v-1.143h.893v-.828h-.893v-2.437c0-.5.172-.65.486-.65a.81.81 0 0 1 .407.102v-.802a1.544 1.544 0 0 0-.721-.158C.451-5.916 0-5.531 0-4.547v2.576h-.717v.828H0Z" style="fill:#4a4949;fill-opacity:1;fill-rule:nonzero;stroke:none" transform="matrix(6.6537 0 0 -6.6537 758.68 222.433)"/><path d="M487.061 257.42h7.406v42.39h-7.406z" style="fill:#4a4949;fill-opacity:1;fill-rule:nonzero;stroke:none;stroke-width:6.6537" transform="translate(310.852 -38.51)"/><path d="M0 0h1.064c.008-.236 0-.479 0-.719.153.283.459.794 1.192.794C3.277.075 3.58-.719 3.58-1.67V-4.7H2.498v2.82c0 .721-.172 1.026-.613 1.026-.569 0-.77-.504-.77-1.106V-4.7H0Z" style="fill:#4a4949;fill-opacity:1;fill-rule:nonzero;stroke:none" transform="matrix(6.6537 0 0 -6.6537 812.676 230.036)"/><path d="M0 0h-1.049v.721l-.021.008.004-.008c-.209-.345-.485-.794-1.192-.794-1.023 0-1.322.794-1.322 1.742V4.7h1.08V1.884c0-.724.191-1.025.643-1.025.578 0 .74.546.74 1.154V4.7H0Z" style="fill:#4a4949;fill-opacity:1;fill-rule:nonzero;stroke:none" transform="matrix(6.6537 0 0 -6.6537 889.558 261.31)"/><path d="M0 0a2.967 2.967 0 0 0-1.062-.193C-2.543-.193-3.17.895-3.17 2.229c0 1.34.664 2.426 2.17 2.426.336 0 .799-.11 1-.191v-.895c-.195.099-.582.23-.879.23-.818 0-1.176-.577-1.176-1.583 0-.871.399-1.551 1.227-1.551.264 0 .68.131.828.23z" style="fill:#4a4949;fill-opacity:1;fill-rule:nonzero;stroke:none" transform="matrix(6.6537 0 0 -6.6537 993.275 260.51)"/><path d="M0 0c-.23-.131-.77-.229-1.322-.229-1.842 0-2.791 1.416-2.791 3.278 0 1.859.949 3.275 2.758 3.275.621 0 1.125-.176 1.355-.263V5.012c-.229.113-.648.342-1.211.342-.926 0-1.717-.654-1.717-2.305 0-1.654.791-2.313 1.717-2.313.535 0 .953.139 1.211.332z" style="fill:#4a4949;fill-opacity:1;fill-rule:nonzero;stroke:none" transform="matrix(6.6537 0 0 -6.6537 1069.416 260.38)"/><path d="M0 0c.697 0 .854.846.854 1.627 0 .785-.157 1.615-.854 1.615-.701 0-.861-.83-.861-1.615C-.861.846-.701 0 0 0m0 4.046c.916 0 1.969-.503 1.969-2.419C1.969-.346.916-.803 0-.803c-.914 0-1.979.457-1.979 2.43 0 1.916 1.065 2.419 1.979 2.419" style="fill:#4a4949;fill-opacity:1;fill-rule:nonzero;stroke:none" transform="matrix(6.6537 0 0 -6.6537 1084.867 256.456)"/><path d="M0 0c.699 0 .859.846.859 1.627 0 .785-.16 1.615-.859 1.615-.695 0-.861-.83-.861-1.615C-.861.846-.695 0 0 0m0 4.046c.918 0 1.969-.503 1.969-2.419C1.969-.346.918-.803 0-.803c-.916 0-1.975.457-1.975 2.43 0 1.916 1.059 2.419 1.975 2.419" style="fill:#4a4949;fill-opacity:1;fill-rule:nonzero;stroke:none" transform="matrix(6.6537 0 0 -6.6537 1165.037 256.456)"/><path d="M0 0h-.098c-.925 0-1.468-.205-1.468-.889 0-.426.267-.722.687-.722.643 0 .879.506.879 1.343zm-2.119 2.122c.299.149.723.35 1.414.35 1.394 0 1.717-.714 1.717-1.893v-2.056c0-.334.033-.642.058-.827H.094c-.055.185-.059.413-.059.639H.016c-.266-.382-.61-.712-1.254-.712-.694 0-1.34.505-1.34 1.377 0 1.279.996 1.598 2.359 1.598H0v.175c0 .464-.219.895-.836.895a2.01 2.01 0 0 1-1.23-.459z" style="fill:#4a4949;fill-opacity:1;fill-rule:nonzero;stroke:none" transform="matrix(6.6537 0 0 -6.6537 1218.799 245.981)"/><path d="M943.345 268.544h7.173v31.266h-7.173zm-.112-13.28h7.392v7.379h-7.392z" style="fill:#4a4949;fill-opacity:1;fill-rule:nonzero;stroke:none;stroke-width:6.6537" transform="translate(310.852 -38.51)"/><path d="M0 0c.693 0 .848.846.848 1.627 0 .785-.155 1.615-.848 1.615-.701 0-.865-.83-.865-1.615C-.865.846-.701 0 0 0m0 4.046c.904 0 1.963-.503 1.963-2.419C1.963-.346.904-.803 0-.803c-.918 0-1.979.457-1.979 2.43 0 1.916 1.061 2.419 1.979 2.419" style="fill:#4a4949;fill-opacity:1;fill-rule:nonzero;stroke:none" transform="matrix(6.6537 0 0 -6.6537 1279.956 256.456)"/><path d="M0 0c0 .829-.266 1.25-.75 1.25-.564 0-.805-.631-.805-1.25Zm.818-2.529a3.136 3.136 0 0 0-1.341-.303c-1.446 0-2.075 1.088-2.075 2.355 0 1.408.705 2.494 1.848 2.494.961 0 1.791-.595 1.791-2.512v-.218h-2.596C-1.555-1.514-1.248-2-.412-2c.664 0 1.027.225 1.23.383z" style="fill:#4a4949;fill-opacity:1;fill-rule:nonzero;stroke:none" transform="matrix(6.6537 0 0 -6.6537 538.874 242.953)"/><path d="M0 0c.174-.072.666-.312 1.176-.312.39 0 .693.102.693.468 0 .182-.086.354-.48.592l-.442.273C.496 1.306 0 1.609 0 2.346c0 .648.598 1.333 1.549 1.333.576 0 1.019-.155 1.125-.192v-.876a2.792 2.792 0 0 1-1.016.211c-.431 0-.621-.173-.621-.455 0-.259.197-.394.512-.605l.531-.355c.557-.372.836-.637.836-1.189 0-.864-.697-1.388-1.672-1.388A3.37 3.37 0 0 0 0-.938Z" style="fill:#4a4949;fill-opacity:1;fill-rule:nonzero;stroke:none" transform="matrix(6.6537 0 0 -6.6537 841.825 254.012)"/><path d="M0 0h-.096c-.924 0-1.472-.205-1.472-.889 0-.426.269-.722.689-.722.647 0 .879.506.879 1.343zm-2.127 2.122c.307.149.736.35 1.42.35 1.396 0 1.715-.714 1.715-1.893v-2.056c0-.334.037-.642.064-.827H.098c-.057.185-.061.413-.061.639H.018c-.272-.382-.61-.712-1.256-.712-.694 0-1.342.505-1.342 1.377C-2.58.279-1.586.598-.221.598H0v.175c0 .464-.221.895-.838.895-.541 0-1.078-.273-1.289-.459z" style="fill:#4a4949;fill-opacity:1;fill-rule:nonzero;stroke:none" transform="matrix(6.6537 0 0 -6.6537 930.805 245.981)"/><path d="M0 0h1.012v-.854h.019c.131.363.471.929 1.141.929.066 0 .121-.02.182-.027v-1.059c-.1.028-.192.049-.303.049-.444 0-.934-.285-.934-1.159V-4.7H0Z" style="fill:#4a4949;fill-opacity:1;fill-rule:nonzero;stroke:none" transform="matrix(6.6537 0 0 -6.6537 896.133 230.036)"/><path d="M0 0h1.061c.011-.236 0-.479 0-.719.156.283.462.794 1.191.794 1.019 0 1.326-.794 1.326-1.745V-4.7h-1.08v2.82c0 .721-.174 1.026-.619 1.026-.561 0-.766-.504-.766-1.106V-4.7H0Z" style="fill:#4a4949;fill-opacity:1;fill-rule:nonzero;stroke:none" transform="matrix(6.6537 0 0 -6.6537 943.801 230.036)"/><path d="M0 0c0 .829-.264 1.25-.748 1.25-.566 0-.805-.631-.805-1.25Zm.82-2.529a3.144 3.144 0 0 0-1.341-.303c-1.444 0-2.075 1.088-2.075 2.355 0 1.408.707 2.494 1.848 2.494.963 0 1.789-.595 1.789-2.512v-.218h-2.594C-1.553-1.514-1.244-2-.408-2c.66 0 1.027.225 1.228.383z" style="fill:#4a4949;fill-opacity:1;fill-rule:nonzero;stroke:none" transform="matrix(6.6537 0 0 -6.6537 1013.652 242.953)"/><path d="M0 0h1.01v-.854h.021c.129.363.467.929 1.137.929.07 0 .123-.02.186-.027v-1.059c-.1.028-.192.049-.307.049-.44 0-.932-.285-.932-1.159V-4.7H0Z" style="fill:#4a4949;fill-opacity:1;fill-rule:nonzero;stroke:none" transform="matrix(6.6537 0 0 -6.6537 1102.84 230.036)"/><path d="M0 0h1.014v-.854h.017c.131.363.469.929 1.139.929.066 0 .123-.02.184-.027v-1.059a1.064 1.064 0 0 1-.305.049c-.44 0-.93-.285-.93-1.159V-4.7H0Z" style="fill:#4a4949;fill-opacity:1;fill-rule:nonzero;stroke:none" transform="matrix(6.6537 0 0 -6.6537 1183.373 230.036)"/><path d="M0 0h1.08v-1.143h.895v-.828H1.08v-2.437c0-.5.178-.65.486-.65.192 0 .332.056.409.102v-.802a1.538 1.538 0 0 0-.717-.158C.455-5.916 0-5.531 0-4.547v2.576h-.717v.828H0Z" style="fill:#4a4949;fill-opacity:1;fill-rule:nonzero;stroke:none" transform="matrix(6.6537 0 0 -6.6537 1234.64 222.433)"/><path d="M0 0h1.062c.012-.236 0-.479 0-.719.159.283.463.794 1.192.794 1.021 0 1.324-.794 1.324-1.745V-4.7H2.502v2.82c0 .721-.176 1.026-.619 1.026-.565 0-.77-.504-.77-1.106V-4.7H0Z" style="fill:#4a4949;fill-opacity:1;fill-rule:nonzero;stroke:none" transform="matrix(6.6537 0 0 -6.6537 1296.577 230.036)"/><path d="M0 0c.602 0 .807.608.807 1.551 0 1.091-.164 1.637-.789 1.637-.637 0-.858-.722-.858-1.611C-.84.667-.596 0 0 0m-1.951 3.941h1.045v-.728h.025c.172.404.492.804 1.192.804 1.113 0 1.574-1.115 1.574-2.419 0-1.535-.578-2.43-1.547-2.43-.647 0-1.002.385-1.16.75H-.84v-2.647h-1.111z" style="fill:#4a4949;fill-opacity:1;fill-rule:nonzero;stroke:none" transform="matrix(6.6537 0 0 -6.6537 1135.953 256.26)"/></svg>