<svg xmlns="http://www.w3.org/2000/svg" width="812.07684pt" height="300pt" viewBox="0 0 812.07685 300"><path d="M564.356 473.243h-7.003v15.33h57.086v-6.996h-50.083zM540.683 477.929h-50.78v7.046h50.78v3.598h6.996v-42.985h-6.996zM364.966 447.437c-9.178 0-16.62 7.44-16.62 16.617 0 9.18 7.442 16.617 16.62 16.617 9.175 0 16.618-7.437 16.618-16.617 0-9.177-7.443-16.617-16.618-16.617m0 25.87c-5.105 0-9.251-4.141-9.251-9.253 0-5.106 4.146-9.248 9.25-9.248 5.108 0 9.248 4.142 9.248 9.248 0 5.112-4.14 9.254-9.247 9.254zM406.022 488.573h7.002v-42.985h-7.002zM393.666 452.587h-9.676v6.999h9.676v8.242h-9.676v6.993h9.676v13.752h7.003v-42.985h-7.003zM604.333 474.851h7.002v-29.263h-7.002v9.057h-10.512v6.999h10.512zM560.396 469.328l13.275-11.526 13.269 11.526 4.597-5.283-11.223-9.75h9.674v-7.005h-32.635v7.005h9.672l-11.22 9.75z" style="stroke-width:1.50505" transform="matrix(1.57834 0 0 1.57834 -516.633 -524.018)"/><path d="M505.756 472.85c7.563 0 13.692-6.124 13.692-13.681 0-7.561-6.129-13.684-13.692-13.684-7.56 0-13.681 6.123-13.681 13.684 0 7.557 6.12 13.68 13.68 13.68m0-20.015a6.334 6.334 0 0 1 6.33 6.335 6.328 6.328 0 0 1-12.655 0c0-3.496 2.83-6.335 6.326-6.335z" style="stroke-width:1.50505" transform="matrix(1.57834 0 0 1.57834 -516.633 -524.018)"/><path d="M514.42 220.065c-12.912 0-23.384 10.476-23.384 23.383 0 12.917 10.472 23.38 23.384 23.38 12.916 0 23.383-10.463 23.383-23.38 0-12.907-10.467-23.383-23.383-23.383m0 35.135c-6.49 0-11.752-5.261-11.752-11.752 0-6.495 5.261-11.756 11.752-11.756 6.49 0 11.752 5.26 11.752 11.756 0 6.491-5.261 11.752-11.752 11.752zM511.817 202.634h-37.618v-9.683h37.618V181.91h-48.67v31.767h48.67zM545.073 193.884v-14.615h-11.051v37.409h11.051V204.94h16.578v-11.056z"/><path d="m452.421 439.712 19.036 11.026 3.498-6.061-22.534-13.055-22.533 13.055 3.497 6.06zM455.922 462.71v-2.795h25.047v-6.755h-57.094v6.755h25.048v2.796h-25.048v6.752h50.09v2.801h-50.09v16.309h57.094v-6.755h-50.094v-2.802h50.094v-16.305z" style="stroke-width:1.50505" transform="matrix(1.57834 0 0 1.57834 -516.633 -524.018)"/><g fill="#fc0019"><path d="M574.057 66.24c.171-.302.529-.525.728-.808.157-.204.162-.455.307-.673.39-.57 1.002-1.118 1.35-1.716.218-.38.209-.654.366-1.114.034-.088.224-.222.236-.306.052-.12-.05-.404-.05-.427h.116c.048-.148.093-.288.13-.436h.122v-.302c.069-.199.255-.505.301-.737.064-.27-.12-.599-.17-.798-.157-.58.144-1.04.296-1.355h.117v.186c.566-.065 1.071.097 1.535.236 2.789.845 2.64 2.621 3.3 5.484.25 1.02-.252 1.958-.298 2.886a.262.262 0 0 1 .06.065c.394-.074 1.304-.204 1.781-.065.038.02.19.176.242.186.245-.042.487-.093.737-.121.585-.033 1.216.204 1.708.12.033-.009.194-.11.25-.12.636-.107.886.339 1.526.181.97-.241 1.87-.923 2.636-1.41.376-.237.812-.27 1.225-.502.422-.232.696-.867 1.104-1.164 1.271-.937 2.812-2.306 3.057-4.24-.645-.418-1.044-1.165-1.656-1.597-.376-.273-.83-.362-1.22-.617-.107-.074-.233-.25-.376-.301-.264-.098-.46-.07-.668-.19-.301-.19-.501-.553-.798-.738-.185-.06-.366-.13-.552-.195-.153-.12-.219-.4-.362-.548-.097-.083-.278-.092-.367-.18-.18-.186-.213-.469-.375-.683-.103-.139-.34-.139-.483-.24-.283-.214-.403-.632-.621-.924-.131-.176-.367-.223-.544-.367-.137-.111-.166-.38-.301-.492-.376-.306-.803-.547-1.109-.918-.102-.13-.088-.302-.18-.436-.376-.529-.854-1.03-1.16-1.666-.2-.399-.2-.76-.441-1.1-.395-.602-.877-1.284-1.401-1.776-.297-.288-.715-.557-.928-.928-.27-.539-.055-1.067-.238-1.782-.426-1.767.32-4.032.984-5.354.195-.38.145-.803.367-1.164.111-.177.297-.228.43-.362.243-.283.298-.733.544-.993.204-.204.534-.241.737-.436.136-.13.205-.376.372-.483.515-.357 1.132-.482 1.652-.803.14-.088.237-.32.37-.431.117-.102.302-.093.423-.19.088-.056.17-.144.25-.214h-17.064V67.84c.538-.292 1.132-.598 1.578-.928.218-.176.283-.417.427-.673zM659.69 66.666c.097.32 1.41 2.13 1.66 2.274 1.24.728 2.98.872 4.774.867.655.014 1.31.047 1.959.056.157-.037.343-.255.543-.371.343-.167.682-.074 1.053-.246.214-.102.603-.33.853-.427.367-.06.729-.116 1.1-.18.872-.372 1.768-.98 2.566-1.42.39-.21.84-.21 1.229-.428.102-.064.102-.227.185-.315.2-.181.548-.14.789-.302.078-.05.073-.194.126-.246.107-.083.264-.097.366-.18.256-.195.344-.488.552-.738.117-.051.21-.13.307-.186.161-.18.228-.422.366-.621.079-.107.283-.135.371-.237.145-.394.274-.78.432-1.17.088-.143.297-.315.366-.496.13-.385.164-.877.246-1.234v-.858c.14-.645.224-1.276.357-1.972a35.578 35.578 0 0 0-.126-1.285c.084-.31.302-.557.376-.798.219-.678-.057-1.406.121-2.153.065-.26.246-.515.302-.733.162-.622-.436-1.03-.302-1.79h-.245c-.233.226-.618.468-1.035.496-.162-.265-.311-.256-.552-.427-.33-.237-.603-.626-.928-.863-.422-.325-.919-.613-1.22-1.049-.33-.482-1.156-2.394-1.527-2.584-.069-.037-.054-.037-.18-.06-.283.25-.72.283-1.049.496-.612.395-1.322.687-2.018 1.04-.083.046-.209.208-.306.245-.334.121-.627.01-.92.13-.49.195-.922.455-1.34.733-.107.107-.204.214-.315.302-.157.032-.316.042-.483.07-.566.218-1.09.69-1.651.914a8.586 8.586 0 0 0-.492.074c-.255.125-.859 1.053-1.16 1.29-.343.25-.794.45-1.044.793-.371.529-.543 1.155-.914 1.66-.19.247-.524.321-.677.618-.21.399-.242.807-.487 1.16-.181.18-.367.334-.548.496-.19.25-.264.543-.436.803-.06.037-.112.079-.185.125-.038.288-.084.575-.126.859-.112.43-.233.867-.418 1.29-.292.635-.064 1.433-.25 2.152-.093.39-.335.835-.427 1.17-.171.626.246 1.447.361 1.841.176.534-.152.886 0 1.415zM622.907 52.645c.566.14 1.295.423 1.837.553.632.171 1.118-.144 1.717-.177 1.1-.074 2.315.112 3.303-.13.803-.204 1.592.2 2.39 0 1.067-.26 2.366-.673 3.359-.979.366.024.733.033 1.113.06.344-.097.552-.454.905-.551h.682c.84-.279 1.754-.78 2.686-.984.145.019.288.037.432.065.394-.079 1.002-.311 1.16-.612.264-.39.362-1.082.366-1.67-.176-.2-.111-.33-.482-.363-.152.088-.502.065-.738.051-.057-.111-.078-.088-.12-.236.315-.446-.075-1.763-.377-2.046-.287-.265-.733-.283-.979-.604-.26-.343-1.141-1.331-1.461-1.54-.488-.306-1.007-.408-1.54-.668-.2-.107-.409-.362-.604-.436-.223-.01-.46-.046-.677-.06-.933-.32-1.805-.919-2.807-1.17h-1.475c-.297.214-.724.246-.98.506-.338.306-.57.789-.918 1.095-.224.2-.506.302-.747.492-.306.274-.432.789-.784 1.049-.269.185-.761.38-1.044.482-.246.046-.483.088-.733.125-.543.316-.691 1.007-1.1 1.485-.147.153-.431.111-.607.241-.126.084-1.007 1.081-1.11 1.234-.19.297.127.53-.068.914-.157.177-.32.325-.487.501v.854c-.274.84-1.332 1.3-1.397 2.339h.121c.297.208.747.083 1.165.18zM579.072 168.06c-.352-.232-.417-.729-.733-.98-.233-.194-.552-.25-.798-.435-.51-.4-.95-1.012-1.35-1.54-.116-.168-.306-.182-.482-.298-.126-.097-.15-.269-.247-.376-.23-.26-.514-.398-.797-.616-.339-.265-.525-.692-.798-1.054-.204-.264-.552-.366-.789-.603-.176-.167-.126-.45-.246-.682-.147-.25-.468-.478-.612-.733-.07-.125-.117-.264-.167-.408v8.537h8.83c-.413-.205-.798-.427-1.193-.622-.204-.07-.413-.125-.617-.19z"/><path d="M751.34 33.182a5.831 5.831 0 0 1 1.22 1.754c.038.436.07.863.121 1.295.065.227.205.39.186.798-.029.273-.038.533-.06.802.098.464.195 1.531.06 2.088-.074.32 0 .803-.13 1.104-.08.241-.376.464-.488.682-.209.413-.18.822-.366 1.23-.145.306-.548.589-.668.923l-.072.742c-.17.613-.329 1.248-.547 1.893-.13.395-.454.937-.607 1.295-.167.413-.083.816-.242 1.303-.147.404-.46.914-.608 1.346-.033.306-.059.608-.068.928-.098.237-.395.431-.501.728-.371 1.118-.339 2.427-.608 3.624.024.236.043.454.064.677-.246 1.16-.83 2.478-1.17 3.628-.101.385-.101.766-.18 1.044v.808c-.038.111-.204.301-.232.426-.107.413.12.956 0 1.415-.06.182-.247.395-.316.548-.038.26-.074.496-.121.747-.074.227-.292.422-.366.612-.126.279-.024.525-.126.854-.038.163-.214.376-.246.496-.074.251.088.427.116.557-.024.422-.028.859-.052 1.29-.233 1.016-.371 2.018-.613 3.007-.166.672.131 1.415.19 1.85 0 .186-.147.632-.19.79-.228.946-.078 1.939-.556 2.584-.186.269-.524.361-.85.505-.223.089-.533.297-.797.358-.785.199-2.056-.71-2.325-1.1-.126-.176-.126-.376-.246-.552-.147-.12-.287-.246-.436-.371-.273-.395-.529-1.592-.663-2.093-.064-.209.033-.556.054-.682.088-.366.065-1.378-.054-1.767-.14-.409.102-.78-.064-1.304-.117-.334-1.03-1.332-.914-1.717.05-.218.366-.431.482-.608.157-.232.353-.742.432-.997.14-.469 0-1.04.241-1.41.362-.223.561-.052.557-.673.269-.45.422-1.536.547-2.088v-.622c.05-.153.214-.376.246-.552.07-.371-.126-.858 0-1.29.121-.426.413-.895.552-1.29.157-.454-.064-.765.06-1.169.111-.38.422-.932.552-1.294v-.923c.111-.53.097-1.114.241-1.712a89.442 89.442 0 0 1 1.239-4.737c.024-.372.028-.743.05-1.105.047-.176.246-.334.306-.5.2-.571.107-1.193.306-1.731.136-.334.44-.307.483-.79-.093-.115-.185-.412-.117-.672.214-.793.432-1.67.673-2.459.13-.426.432-.877.547-1.29.172-.575.117-.965.307-1.48.147-.403.454-.774.552-1.224.126-.548-.14-1.049 0-1.661.204-.826.297-1.88.463-2.868H608.514c.107.116.2.219.247.344v.491c.069.214.292.385.362.673.166.682-.279 1.304-.117 1.847.052.195.301.301.357.492v1.72c.293 1.982-.348 2.822-1.405 3.82-.478-.094-1.049-.075-1.476-.251-.264-.116-.306-.293-.788-.302-.15.2-.45.237-.604.427-.073.084-.097.325-.185.371h-.738c-.152-.18-.32-.334-.612-.371-.228.241-.538.51-.98.543-.347-.255-.713-.344-.857-.784-.093-.288.06-.66-.05-.863-.274-.25-.845-.12-1.17-.316-1.136-.677-1.758-1.614-2.083-3.136-.097-.422.112-.659.126-1.104-.52-.237-.988-.687-1.535-.859-.59-.19-2.59.325-3.053.437-.645.157-1.109.037-1.721.236-.126.042-.33.213-.492.255-.288.06-.682-.023-1.044.116-.622.242-1.155.79-1.647 1.179-.13.088-.316.12-.432.232-.052.06-.7 1.169-.737 1.239-.038.218-.074.445-.121.668-.186.426-.539.82-.669 1.368-.329 1.262.44 2.153.729 2.882.157.361.097.756.31 1.043.224.288.326.65.557.988.176.26.557.414.729.66.066.17.116.347.18.5.21.302.664.53.919.799.042.115.083.208.12.31.362.32.725.483 1.17.733.162.172.325.325.492.497a57.254 57.254 0 0 1 2.088 1.66c.17.158.472.158.668.302.14.116.145.39.3.501.706.474 1.625.562 2.33 1.035 2.084 1.42 4.617 2.492 6.05 4.556.18.26.571.344.738.622.91 1.429 1.972 3.85 1.36 6.017-.136.418-.024.831-.19 1.17-.112.213-1.18 1.61-1.35 1.72-.21.07-.409.126-.613.191-.219.162-.255.585-.487.738-.204.06-.413.125-.613.18-.672.372-1.48.891-2.264 1.105-.102.775-.417 1.647-.918 2.032-.107.07-.284.088-.372.186-.092.097-.069.343-.18.422-.14.024-.283.046-.427.07-.219.078-.469.347-.673.422-.237.028-.487.046-.737.074-1.453.413-3.216.844-4.775 1.23-.538.115-1.011.143-1.466.231-.18-.004-.376-.042-.552-.065-.283.093-.408.413-.617.562-.301.213-1.23.626-1.837.427-.729-.232-1.814-1.17-2.209-1.777-.059-.135-.023-.367-.111-.487-.131-.033-.25-.089-.372-.121-.232-.172-.329-.566-.607-.687-.358-.158-.72-.024-1.044-.185-.223-.103-.297-.418-.487-.548-.121-.024-.247-.032-.372-.065-.111-.083-.092-.297-.18-.422-.083-.12-.344-.084-.432-.195-.092-.107-.033-.32-.116-.427-.185-.25-.673-.436-1.049-.496-.147.171-.412.26-.552.445-.413.548-.751 1.086-1.16 1.647-.14.13-.287.246-.426.367-.043.13-.084.25-.122.38-.156.232-.468.469-.621.733-.024.098-.024.209-.062.307-.055.014-.116.041-.18.06-.103.148-.195.287-.302.427-.121.088-.325.078-.432.185-.102.112-.088.32-.18.432-.088.046-.157.088-.241.12-.157.228-.083.525-.18.803-.07.14-.251.241-.311.367-.238.58-.162 1.261-.733 1.48-.18.111-.414.032-.618 0-.106.324-.092.44-.542.431-.228-.162-.534-.135-.803-.246-.292-.12-.863-.543-1.049-.802-.116-.186-.166-.404-.218-.627v34.611c.38-.436 1.095-.677 1.387-1.145.148-.237.353-.636.427-.873v-.798c.116-.278.436-.603.552-.849.029-.162.043-.338.06-.496.106-.302.39-.692.491-.984.067-.292.121-.575.18-.872.22-.418.534-.919.683-1.397.273-.927-.292-1.322-.552-1.85-.293-.576-.395-1.253-.362-1.968.135-.125.274-.246.422-.371.404.06.812.125 1.225.19.274.12.269.33.724.367.403-.45.82-.984 1.048-1.601.078-.348.161-.705.242-1.044.223-.44.612-.83.858-1.23.12-.194.069-.403.19-.612.102-.209.455-.31.534-.5v-.497c.028-.028.385-.645.436-.729.233-.343.77-.584.979-.928.156-.25-.079-.529.069-.798.204-.38.895-1.178 1.038-1.53.145-.395 0-.854.186-1.175.436-.723 1.006-1.443 1.466-2.148.152-.227.152-.529.315-.742.297-.432.873-.863 1.155-1.29.534-.793.835-1.907 1.29-2.76.055-.195.121-.376.176-.562.147-.171.394-.065.608-.18.255-.13.473-.52.738-.683.185-.097.38-.014.607-.116.33-.134.942-.515 1.23-.737.812-.02.78.134 1.225.375.2.033.408.089.617.121.422.167.63.664.844 1.04.029-.02.048-.038.069-.056.278-.186.45-.427.858-.492.292.292.91.951 1.41.984.534.324 1.541 0 2.205.18.659.177 1.55.25 2.138.548.157.19.33.37.492.561.691.7 1.712 1.573 1.285 3.007-.038.232-.083.459-.13.682-.284.515-1.063.95-1.648 1.164-.533.2-1.104.135-1.35.608-.918 1.21.622 3.206.622 4.491-.069.784-.13 1.559-.19 2.339-.088.268-.403.538-.487.807v.928c-.038.162-.162.538-.19.672v1.657c-.117.603-.241 1.387-.117 2.027.256.149.488.446.734.557.357.056.728.125 1.104.19.147.065.278.246.487.297.496.024.97.047 1.461.06.344.116.53.51.812.683.279.078.566.157.85.245.658.409.946.886 1.224 1.722.126.366.515.756.371 1.35-.399 1.568-2.454 1.86-4.161 2.092-.539-.065-1.067-.13-1.596-.185-.33.083-.808.273-1.17.366-.482 1.582-.422 3.536-.793 5.164-.024.673-.036 1.345-.055 2.037.024.139.043.283.055.422-.112.44-.482 1.076-.603 1.475-.166.506.024 1.03-.136 1.485-.37 1.155-1.967 3.076-3.368 3.127-.58-.598-1.814-1.007-2.264-1.66-.102-.284-.2-.572-.297-.868-.241-.362-.636-.701-.798-1.156-.043-.26-.088-.533-.121-.807-.176-.385-.473-.914-.622-1.35-.024-.2-.038-.408-.055-.617-.135-.446-.39-.817-.426-1.415.209-.107.445-.125.788-.116.19.106.34.01.437-.126.454-.598.185-1.456.422-2.338.135-.464.376-.96.491-1.355.065-.431.122-.853.181-1.294.097-.26.501-.817.371-1.225-.033-.125-.185-.431-.25-.612-.488-.265-.594-.01-1.151-.13-.91-.19-2.594-.4-3.614-.177-.664.144-1.833.26-2.57.056-.311-.079-.947-.088-1.29-.237l-.307-.306c-.375-.25-1.132-.348-1.656-.25-.083.25-.157.496-.241.737-.145.228-.45.386-.543.678-.034.366-.04.728-.065 1.1-.12.408-.5.533-.375 1.053-.18.26-.353.533-.552.802-.038.302-.074.608-.112.919-.147.134-.292.283-.436.417-.145.4.024.775-.117 1.119-.524 1.387-1.322 2.71-1.832 4.18-.246.686.223 1.21.054 1.972-.18.774-.273 1.744-.366 2.519-.394.134-.404.455-.673.677-.371.093-.738.2-1.104.311-.863.2-.891-.366-1.285-.57-.283-.121-.627-.065-.86-.242-.023-.01-.025-.042-.04-.05v28.166c.148-.404.274-.798.418-1.118.214-.57.145-1.225.362-1.786.102-.265.325-.557.418-.858.18-.497.078-1.054.315-1.476.14-.26.39-.575.492-.928.161-.51.121-.983.362-1.406.083-.134.297-.278.366-.431.145-.306.145-.594.306-.858.162-.154.293-.284.432-.427.464-.882.584-1.898 1.044-2.775l.974-1.23c.209-.157.464-.166.617-.37.14-.195.162-.47.306-.678.26-.348.7-.622.975-.983.269-.34.306-.83.552-1.174.264-.232.524-.487.793-.733.21-.293.344-.576.622-.789.135-.125.352-.125.487-.246.872-.835 1.712-1.856 2.76-2.524 1.63-1.04 3.74-1.62 5.805-2.218h1.405c1.184 0 2.552.056 3.494.367.27.093.613.33.854.501.102.12.209.237.31.357h1.035c.14-.083 1.912-.023 2.144.07.17.065.408.26.617.306.668.181 1.011.153 1.531.436.297.144.418.497.677.678.849.584 2.302 1.781 2.501 2.95.102.576-.325 1.332-.487 1.717-.097.227-.045.496-.185.673-.45.608-2.19 1.438-3.555 1.109-.245-.08-.482-.172-.728-.237-1.174.074-3.298.125-3.916-.626-.63-.757-1.452-3.086-2.199-3.447-.195-.135-.394-.047-.677-.112-.136-.037-.418-.153-.552-.19h-3.067c-.51.167-1.026.719-1.466.984-.316.19-.57.19-.919.366-.255.135-.515.575-.798.682-.69.274-1.568.107-2.194.436-.25.125-.487.524-.678.724-.71.724-1.55 1.665-1.957 2.644-.14.32-.074.701-.242.993-.14.228-.44.344-.566.603a14.01 14.01 0 0 1-.241.928c-.185.307-.51.571-.668.924-.157.352-.117.835-.367 1.104-.241.264-.677.292-.547.919.05.306 0 .97.126 1.299.125.39.64.63.487 1.35-.33 1.34-1.128 1.99-1.652 3.076-.024.162-.045.33-.074.492-.26.997-.116 1.331.136 2.273.083.348-.034.923-.06 1.164-.038.19.186.868.238 1.114.214.933-.283 2.195.06 3.006.092.2.38.362.5.557.14.39.279.789.427 1.16.053.028.112.051.171.07.274.227.478.584.742.802.103.084.27.084.367.186.157.153.195.413.357.552.219.163.53.27.682.487.148.21.195.446.371.613.238.25.66.468.98.617h.185c.033.083.078.167.116.24.265.284.683.66 1.04.818.422.171.798.05 1.34.176 1.573.357 3.62.431 5.086 0 .399-.02.774-.042 1.169-.056.135-.06.96-.612 1.039-.747.209-.339.195-.742.492-.988.14-.107.283-.135.427-.241.287-.228.473-.65.788-.859.613-.399 1.355-.529 1.907-.983.877.176 1.726.877 1.833 1.842.733.097.668.65 1.104.983.233.088.45.158.673.246.237.167.43.51.673.682.39.26.955.404 1.225.789.166.241.092.547.19.863.054.25.25.872.054 1.174-.107.292-.32.352-.492.556-.135.149-.12.38-.246.552-.398.548-1.494.947-2.078 1.36v.005h14.953c-.047-.028-.088-.065-.13-.07l-.441-.07a4.11 4.11 0 0 1-1.04-.737c-.078-.093-.144-.293-.232-.367-.274-.195-.678-.158-.924-.362-.315-.283-.417-.69-.677-1.048-.078-.107-.204-.107-.297-.186-.445-.343-.998-.942-1.295-1.42-.12-.32-.24-.654-.361-.974-.185-.31-.557-.515-.738-.807-.126-.204-.023-.436-.135-.673-.157-.399-.529-.789-.664-1.225-.209-.751-.023-1.526-.064-2.343-.023-.208-.038-.413-.06-.617.056-.18.26-.357.307-.557.05-.872.083-1.758.121-2.64.074-.255.241-.57.315-.858.172-.733.136-1.642.302-2.278v-.608c.185-.747.469-1.59.678-2.398.135-.576.073-1.425.3-1.921.08-.172.321-.376.433-.543.306-.515.306-1.113.543-1.716.12-.279.436-.53.556-.812.167-.367.186-.836.427-1.16.055-.075.25-.112.31-.181.155-.21.155-.515.307-.738.255-.418.682-.807.979-1.174.334-.422.487-.914.793-1.35.053-.083.845-.932.915-.984.106-.083.232-.083.31-.185.492-.654.965-1.313 1.471-1.967.292-.376.807-.594 1.1-.989.228-.315.408-.593.682-.853.46-.469 1.123-.682 1.642-1.118.404-.334.71-1.132 1.104-1.406.984-.682 1.624-.682 2.998-.984 1.35-.301 2.45.729 3.553-.055.506-.015.988.027 1.35.11.938.233 1.912-.106 2.687.196.937.352 1.874.97 2.816 1.345h.552c.469.135 1.591.395 1.838.794.468.788.394 2.616.612 3.628.274.139.807.515.923.812.233.385-.408 1.36-.126 2.088.436.264.918.51 1.285.863.024.264.038.529.064.788-.204.195-.32.524-.547.682-.385.25-.886.158-1.053.608-.112.144-.122.227-.06.311.353.422.988.38 1.596.552.483.144.687.431 1.044.622.566.306 1.193.273 1.466.858.575 1.257-.524 2.422-1.415 2.71-.348.11-.714-.024-1.095.11-.27.103-.705.637-.988.808-.413.27-1.002.177-1.531.371-.395.14-.7.45-1.095.557-.166.042-.409-.05-.497-.07-.413-.097-1.257.033-1.647.126-.264.074-.524.162-.798.241-.473-.032-1.035-.19-1.531-.241-.18-.015-.612.125-.91.056-.328-.07-.774-.293-1.224-.181-1.401.366-3.498.598-4.964.43-.246-.027-.757.07-.984.13-.209.038-2.092-.175-2.32-.245-.413-.14-.904-.436-1.34-.561-.311-.028-.622-.042-.92-.065-.24-.089-.417-.404-.616-.548-.343-.236-.845-.44-1.04-.807-.151-.25-.111-.469-.31-.677-.065-.01-.117-.033-.18-.047-.252-.334-.28-.988-.79-1.058-.228.984-.95 1.304-1.424 1.981-.065.093-.024.228-.112.302-.18.144-.422.176-.548.371-.111.153-.366 1.086-.431 1.29-.157.464.057 1.067-.055 1.6-.246 1.077-.157 1.652.055 2.696.13.705-.497 1.443-.25 2.338.213.743.524 1.634.737 2.46.145.575-.204.723-.306.988-.2.492-.083 1.123-.06 1.656.302.246.483.858.733 1.049.474.167.942.324 1.411.5.278.284.566.567.854.85.477.357 1.043.83 1.596 1.048.436.181 1.392.02 1.707-.18.088-.103.162-.21.241-.312.743-.385 1.355-.334 1.907-.913 1.555-.02 1.04.695 1.712 1.29.157.13.367.115.548.236.25.176.408.487.742.612.622.27 1.308.325 1.772.743.228.213.483.737.733.988a2.213 2.213 0 0 1-.65 1.485h21.64c-.803-.52-1.633-1.253-1.838-1.791-.038-.538-.073-1.072-.111-1.601-.024-.083-.166-.292-.195-.376v-1.35c-.05-.292-.306-.728-.176-1.23.13-.477.446-.946.562-1.475.038-.246-.155-.575-.19-.793-.107-.492.106-.7 0-1.17-.2-.876-.353-2.342-.195-3.26v-1.295c.092-.334.2-.775.385-1.044.287-.455.71-.497.91-1.17.144-.505 0-.927.12-1.475.228-.956.316-1.981.501-2.955-.024-.404-.055-.817-.064-1.23.088-.338.274-.807.366-1.225v-.728c.107-.376.334-.803.427-1.174.093-.39-.038-.737.121-1.048.038-.084.21-.21.241-.307.029-.232.053-.45.067-.672.18-.72.297-1.415.552-2.097.166-.46.501-1.003.668-1.415.25-.557.111-1.128.31-1.782.089-.27.229-.72.307-1.044.13-.594-.14-1.786.116-2.222.103-.311.27-.362.497-.548 1.438.014 2.324.622 2.756 1.666.033.232.078.482.12.742.06.102.256.288.302.422v.678c.107.403.423.654.562.979.19.51.126 1.457.237 1.971.26.181.307.34.742.367.238-.079.483-.172.734-.241.301-.195.607-.538.914-.743.608-.399 1.28-.57 1.958-.927.482-.242 1.025-.608 1.53-.859.247-.037.492-.083.734-.116.552-.176 1.266-.46 1.841-.626.367-.01.729-.028 1.095-.056 1.453-.348 3.47-.44 4.9 0 .608.19.784.659 1.22.993.385.274.802.246 1.225.483.418.245.715.788 1.114 1.043.422.293.941.223 1.4.441.381.186 1.759 2.144 1.894 2.64.023.353.052.691.064 1.049.31 1.002.431 2.719.17 3.925.053.728.094 1.433.141 2.157-.278.96-1.016 1.55-1.294 2.529.028.584.04 1.183.064 1.768-.093.394-.27.881-.371 1.238-.024.446-.039.896-.055 1.35-.024.075-.166.25-.185.311-.034.38-.074.775-.117 1.165-.195.538-.64 1.034-.802 1.6-.024.246-.038.488-.057.743-.136.44-.353.881-.497 1.345-.024.2-.04.408-.06.617-.268.752-.95 1.425-1.345 2.088-.529.886.246 2.343-.488 3.262a2.84 2.84 0 0 1-.486.376h-.255c-1.165.542-1.22.283-2.14-.246-.3-.112-.616-.21-.913-.311-.469-.395-1.42-2.645-1.225-3.517-.233-.608-.432-1.183-.427-2.083-.352-.227-.46-.738-.677-.923-.506-.413-.696.115-.678-.984.534-.19.404-.835.798-1.1.246-.18.947-.236 1.23-.37.06-.576.334-1.036.478-1.476.235-.673.376-1.378.566-1.972.05-.39.126-.78.18-1.17.038-.097.219-.32.246-.426-.024-.288-.052-.585-.069-.858.176-.673.576-1.234.743-1.847v-.622c.18-.793.301-1.893.547-2.644.195-.594-.097-1.406.06-2.097.209-.928.218-1.313-.06-2.144-.052-.33-.078-.654-.121-.983-.445-1.035-1.188-1.318-2.144-1.838-.417-.241-.732-.742-1.164-.928-.357-.153-.951.033-1.29 0-.408-.046-1.169-.278-1.651-.115-.59.185-1.541.77-1.893 1.229-.162.209-.27.524-.497.677-.283.195-.598.177-.918.362-.492.293-.655 1.077-1.1 1.415-.436.33-1.155.339-1.466.798-.529.766-.696 1.759-1.285 2.46-.255.296-.896.44-1.095.862-.048.283-.088.57-.13.858-.148.506-.479 1.063-.609 1.54v.99c-.126.5-.223 1.075-.427 1.6-.135.278-.445.38-.626.617-.264.357-.264.932-.538 1.34-.18.265-.51.367-.617.738-.121 1.067-.246 2.13-.362 3.197.097.594.145 2.148 0 2.77-.093.376-.622 1.995-.547 2.269.05.26.324.552.417.802.26.743.357 1.355.724 1.967.204.311.58.478.686.868.14.501-.097 1.063-.185 1.406v.561c-.152.483-.608 1.09-1.062 1.425h36.555c-.445-.887-.645-2-.9-2.965-.238-.854.26-1.652.116-2.269-.023-.12-.152-.394-.176-.5v-.915c-.144-.529-.352-1.04-.38-1.67.292-.02.478 0 .868 0a5.46 5.46 0 0 0 .362-.432c.038-.334.088-.686.13-1.034.065-.204.241-.404.297-.617.045-.409.093-.817.121-1.23.048-.144.205-.376.246-.496.157-.464.07-.9.256-1.355.102-.26.385-.436.482-.742.024-.283.038-.566.064-.854.024-.083.167-.288.18-.371.07-.293-.073-.613-.12-.798-.088-.395.092-1.225.185-1.592v-1.173c.152-.599.348-1.37.487-1.972-.024-.348-.038-.696-.054-1.035.232-1.02.589-2.324.361-3.512-.923-.404-2.296-.167-3.308-.487-.454-.158-1.637-.64-2.013-.923-.265-.19-.478-.553-.738-.743-.195-.13-.445-.176-.552-.376a9.171 9.171 0 0 1-.677-1.461c-.107-.348-.038-.608-.18-.933-.113-.246-.381-.338-.493-.793.024-.408.034-.821.065-1.23-.103-.45-.312-.788-.372-1.294.205-.13.376-.404.608-.496.46-.154 1.234.139 1.661.246.432.055.858.092 1.285.13.423.148.817.538 1.23.672.2.028.399.047.612.056.293.12.631.399.97.501.937.278 2.45-.125 3.248-.306.17-.371.529-.608.677-.924.024-.162.033-.329.06-.496.102-.283.315-.677.427-.984.033-.283.088-.57.13-.862.117-.353.38-.775.483-1.1v-.984c.078-.315.269-.724.37-.983.252-.747-.37-1.963-.068-2.46.157-.56.57-.992 1.28-.992.585.515 1.504-.176 2.214 0 .76.209 1.23.881 1.837 1.239.102.023.214.032.297.06.404.39.385.979.556 1.591.062.214.251.478.302.678.265.9 0 2.152-.233 2.84-.121.296-.664 1.887-.557 2.078.224.654 1.843 1.1 2.575 1.299.2.014.404.046.608.065 1.313.52 2.937 1.846 2.937 3.688-.52.362-.849 1.077-1.47 1.346-.2.028-.405.037-.604.07-.2.06-.39.296-.617.366-.427.125-1.466.093-1.842 0-.121-.037-.278-.172-.487-.12-1.132.199-3.415.76-3.916 1.47-.157.213-.073.385-.18.677-.06.177-.302.367-.367.548-.074.598-.166 1.197-.255 1.781-.166.53-.631 1.16-.798 1.726-.157.617.427.914.19 1.54-.394 1.03-.464 2.367-.673 3.62l.19 1.545c-.064.435-.269 1.818-.126 2.282.06.195.32.376.238.733-.033.19-.204.483-.238.677.024.228.034.446.06.673-.074.334-.126.757-.246 1.105-.098.245-.325.542-.427.797-.04.228-.088.45-.121.673-.195.441-.604.603-.738 1.174-.2.817.325 1.28.18 1.912-.208.923-.589 1.67-.797 2.524a82.749 82.749 0 0 0-.05 1.716 5.583 5.583 0 0 0-.098.38h18.828a41.006 41.006 0 0 1-1.35-.932c-.19-.153-.246-.478-.427-.622-.52-.394-1.114-.751-1.466-1.285-.678-1.002-1.234-1.986-1.842-3.085-.078-.125-.302-.265-.367-.422-.228-.557.024-1.24-.126-1.907-.14-.705-.166-2.167.055-2.886.152-.469.464-1.007.617-1.406.186-.51-.073-.849.06-1.364.14-.506.408-.965.552-1.415.038-.325.083-.65.13-.984.043-.185.186-.445.242-.612.024-.367.043-.733.064-1.109.185-.659.59-1.4.859-1.972.18-.394.092-.84.297-1.229.05-.111.255-.278.31-.427.176-.506.136-.9.297-1.42.093-.24.283-.491.38-.733.108-.343.046-.668.181-.988.228-.534.631-1.109.914-1.591.116-.372.246-.743.367-1.114.31-.52.816-1.132 1.16-1.652.343-.524.398-1.15.737-1.66.311-.474.844-.836 1.16-1.29.166-.246.21-.501.376-.743.2-.292.608-.426.854-.677.338-.33.505-.636.918-.923.171-.13.185-.307.31-.488.317-.473.887-1.14 1.342-1.475.278-.2 1.967-.76 2.51-.622.204.065.413.284.798.186.17-.032.45-.195.673-.241h1.466c.25-.08.487-.339.742-.432.27-.097.585-.028.789-.176 1.15-.032 2.853.432 3.308 1.104.228.33.152.692.487.914.696.46 1.819.682 2.2 1.41.333.632-.117 1.314-.176 1.968.616.204.992.918 1.59 1.178.418.177.748.01.92.422.237.316.329 1.41.185 1.856-.05.14-.265.344-.311.483-.131.431.17 1.582.241 1.902.166.728-.301.89-.348 1.42.395.496.673 1.164 1.271 1.47.617.33 1.494.168 2.079.492.506.293.896 1.508.854 2.218-.316.264-.46.83-.724 1.049-.72.575-2.037.97-2.997 1.224h-.984c-.678.158-2.58.186-3.243 0-.51-.134-1.141-.677-1.837-.482-.525.13-1.16.348-1.777.482-.789.177-1.805-.023-2.445.126-.72.153-1.165-.316-1.907-.126-.265.075-.668.413-.984.38-1.415-.148-2.95-.89-4.092-1.354-.39-.167-.747-.111-1.164-.25-.497-.167-.664-.613-1.346-.492-.246.63-.612 1.136-.867 1.716-.233.613-.274 1.1-.478 1.722-.13.408-.432.774-.548 1.178-.043.395-.092.812-.13 1.225-.084.371-.279.807-.362 1.109-.265.826-.07 2.116-.07 3.006 0 .882-.547 2.028-.3 2.705.296.845 1.104 1.012 1.776 1.47.078.061.766.525.789.562.175.214.218.571.44.738.414.302 1.379.766 1.894.923h.552c.51.12 1.327.552 2.018.367 1.443-.367 2.844-.859 4.338-1.216.77-.2 2.612-.32 2.886.228.152.269-.102.863 0 1.303.055.27.223.631.185.85-.145.788.441 1.646.214 2.417H742.4c-.057-.116-.136-.223-.19-.325-.26-.436-.869-.756-1.04-1.28v-1.184c-.102-.468-.26-1.378-.13-2.009.13-.556.454-1.475.25-2.231-.033-.121-.209-.307-.25-.418v-1.42c-.152-.5-.534-.417-.538-1.173.347-.348.937-.687 1.22-1.1.292-.418.116-.923.301-1.485.083-.26.376-.561.492-.784.06-.292.116-.589.185-.858.06-.167.293-.353.367-.492.043-.236.083-.46.12-.691.084-.163.293-.418.367-.613.126-.329.024-.644.126-1.044.06-.236.236-.547.297-.797v-.683c.18-.728.25-1.716.436-2.51v-.626c.093-.297.367-.63.496-.923.034-.302.074-.613.112-.923.13-.325.334-.882.441-1.23v-.431c.152-.441.468-.952.603-1.467.147-.598-.024-1.145.121-1.786.228-.918.344-2.074.553-2.95.185-.78-.21-1.545.301-1.972.422-.34 1.29-.14 1.717 0 .747.26 1.665.436 1.962 1.104.024.172.043.334.052.506.074.162.316.306.371.487.071.557.126 1.104.19 1.656h.06c.422-.39.927-.914 1.41-1.23.283-.176.612-.143.918-.306.372-.195.757-.552 1.17-.737.436-.103.886-.204 1.327-.302.552-.232 1.09-.622 1.665-.807.492-.149.784-.149 1.285-.311.246-.074.548-.292.798-.362.413-.13 1.012.037 1.346-.186 1.067-.023 2.515-.097 3.359.186.367.12.668.44 1.044.543.32.097.663-.028.923.07.455.194.868.63 1.34.793.59.227 1.096.195 1.648.436.422.181.78.538 1.113.798.228.18.553.2.734.431.194.265.237.594.431.873.185.283.561.538.733.853.228.413.024 1.03.185 1.54.043.144.26.284.297.428.167.477-.17 1.364-.357 1.6-.361.334-2.389.965-3.308.673-.357-.111-.728-.422-1.044-.561-.204-.033-.412-.075-.612-.112-.288-.172-.44-.515-.677-.742-.27-.274-.747-.343-1.105-.552-.626-.376-1.22-1.03-1.823-1.425-.557-.334-1.457-.334-2.027-.672-.594-.339-.984-1.077-1.713-1.286-1.066-.315-1.8.497-2.449.673-.654-.019-1.309-.041-1.963-.055-.426.102-.909.296-1.34.431-.539.153-1.11.06-1.286.547-.12.362-.255.738-.375 1.114-.07.116-.307.529-.418.612-.288.195-.608.219-.803.492a3.47 3.47 0 0 0-.487 1.11v.542c-.078.241-.348.436-.422.622-.126.218-.31 1.545-.25 1.841.033.186.18.478.111.738-.029.186-.147.427-.112.678.029.153.15.621.06.863-.04.139-.255.236-.307.362-.04.626-.083 1.243-.125 1.846-.27.914-.636 2.027-.854 3.071-.088.464.315.812.195 1.425-.083.334-.284 1.55-.195 1.907.038.106.176.232.116.487-.097.51-.33 1.396-.17 2.153.05.264.199.682.11 1.043-.259 1.17-.426 2.72-.974 3.624-.125.32-.241.659-.366.988-.274.455-.742.761-.984 1.3-.209.482-.209 1.117-.385 1.605h32.116V33.182h-27.56m-96.3 27.397v-.918c.025-.093.17-.307.186-.372.024-.343.043-.696.06-1.053.102-.255.454-.594.551-.854a9.735 9.735 0 0 1-.05-.742c.074-.255.372-.594.478-.854.38-.89.603-1.753 1.104-2.519.367-.58.928-1.086 1.295-1.665.436-.724.747-1.448 1.216-2.158.156-.246.668-.2.853-.422.055-.167.13-.334.18-.496.376-.395.85-.706 1.29-1.04v-.13c.229-.157.52-.139.734-.306.232-.18.232-.622.491-.798 1.207-.826 2.548-1.554 3.795-2.334.543-.334 1.388-.445 1.893-.617.715-.246 1.48-.76 2.144-1.044.348-.088.7-.162 1.04-.24a57.22 57.22 0 0 1 2.514-.868c.752-.246 2.167-.042 2.756-.437.348.047.557.228.798.311h.793c1.197.302 2.343.562 2.63 1.791.141.617-.43.9-.551 1.295-.122.427.078.853 0 1.234-.39.134-.65.58-1.035.719-.302.12-.83.065-1.104 0-.835.023-1.68.056-2.51.065-.029.102-.043.153-.064.31.2.112 2.073.683 2.329.613.145-.037.566-.037.696-.088.269-.047.756-.093 1.025-.12.185-.066.348-.335.53-.395.454-.158.547-.237 1.001-.44.176-.08.441-.312.668-.381 1.021-.246 2.72.918 3.429 1.127.617.162 1.396.005 1.958.237.362.153 1.192 1.475 1.224 1.972-.237.236-.245.621-.435.928-.181.296-.887 1.048-1.216 1.215.074.334.33.538.427.807v.798c.145.144.278.283.422.432.385.557.59 1.192.733 1.962.112.548-.274.733-.297 1.23.45.343 1.142 1.192.914 2.153-.047.2-.255.566-.25.742.023.413.199 1.545.12 1.911-.092.525-.528.97-.733 1.411-.12.269-.092.529-.232.793-.19.334-.65.51-.863.803-.525.724-.692 1.698-1.22 2.399-.167.218-.404.19-.622.366-.214.172-.195.404-.487.557v.06c-.325.153-.775.163-.98.422-.208.283-.273.599-.551.808-.302.222-.636.375-.854.677-.25.339-.51.752-.854.979-.157.074-.33.125-.492.195-.145.186-.287.357-.427.552h-.37c-.381.125-.655.561-1.036.733-.37.167-.774.32-1.103.427-.162.024-.334.042-.492.06-.098.051-.112.204-.176.25-.566.404-1.1.929-1.721 1.23-.348.047-.706.074-1.044.121-.409.111-.808.325-1.22.427-.386.023-.776.041-1.16.055-.492.149-.98.302-1.471.446-.691.162-1.573 0-2.144-.06-.269.037-.538.078-.793.11-.84-.152-2.06-.157-2.821-.366h-1.03c-.27-.065-1.267-.283-1.54-.245-.32.055-.85.115-1.23 0-.092-.029-.228-.214-.292-.242-.747-.33-1.424-.482-2.037-.918a23.936 23.936 0 0 0-.547-.618c-.274-.273-.687-.491-.914-.798-.27-.366-.464-.737-.734-1.113-.135-.172-.366-.227-.547-.357-.357-.27-.255-.664-.496-.928-.162-.195-.473-.283-.608-.492-1.364-2.027-1.684-5.786-.924-8.305m-19.778 34.37h-1.517c-.279.06-.585.176-.928.065-.663-.227-1.276-.775-1.837-1.109a15.737 15.737 0 0 0-.668-.241c-.102-.06-.265-.274-.362-.31a193.34 193.34 0 0 1-.868-.126c-.054-.065-.13-.125-.18-.186-.942-.403-3.239-.612-3.61.427-.288.39-.185.984-.431 1.42-.157.297-.585.357-.859.552-.273.195-.366.561-.547.868-.145.222-.436.301-.608.491-.357.353-.306.984-.306 1.717.274.46-.024 2.431-.185 2.71-.21.352-.752.445-1.044.723-.224.237-.348.631-.613.817-.348.223-.737.264-1.104.487-.279.176-.2.599-.362.923-.18.334-.348.784-.547 1.17-.121.106-.25.236-.38.366v.677c-.098.478-.108 1.04 0 1.476 0 .427-.034.858-.05 1.28.028.13.175.246.12.497-.052.222-.194.635-.237.863-.093.32.078.756.055.979-.034.264-.288.552-.186.918.064.232.288.455.367.687.218.65.264 1.401.427 2.083v.44c.045.098.223.233.246.367.073.297-.145.4-.181.548-.083.325.185.696.238.923-.034.33-.07.659-.122.993.07.278.339.529.436.789.112.31-.092.399 0 .747.13.529.409 1.35.126 2.027-.228.543-1.401 1.234-2.023 1.346-.185.037-.478-.144-.617-.177-.427-.11-.914.051-1.285-.065-1.16-.366-1.665-1.327-2.264-2.273-.219-.353-.636-.501-.678-1.04-.204-.352.052-1.03-.054-1.484-.171-.691-.344-1.614-.25-2.644.028-.325.16-.933.063-1.346-.18-.77-.547-1.424-.742-2.157-.157-.645.038-1.253-.112-1.958-.107-.497-.152-1.42 0-1.916.19-.687.89-.734.988-1.29-.145-.255.145-.775.238-1.044.13-.39.422-.89.31-1.415-.037-.125-.125-.316-.135-.492.029-.246.043-.496.062-.742-.145-.701.157-1.43.31-1.958v-1.295c.03-.055.167-.24.181-.306v-.747c.069-.2.255-.473.311-.677.241-.854.241-1.884.431-2.696v-1.17c.065-.264.238-.514.297-.741.117-.4-.045-.678 0-.993.145-.7.32-1.74.492-2.385.288-1.067-.96-2.185-.538-3.442.088-.316.376-.553.538-.799h1.29c.135.033.339.21.496.232.622.181 1.309-.083 1.833.135.23.097.705.348.858.543.088.134.05.287.176.376.26.088.538.162.798.24.905.576 2.157 2.024 2.751 2.952h.117c.209-.316.589-.552.988-.678h.436c.135-.13.283-.273.427-.427.315-.019.654-.037.974-.055a10.197 10.197 0 0 1 1.526-.487c.64-.158 1.47.06 1.907.176.404.028.812.037 1.211.056.279.064.678.19.928.255.223-.024.45-.047.673-.065.59.14 1.36.292 1.902.547.18.098.367.385.548.497.19.125.385.065.607.18.576.32 1.633 1.485 1.341 2.65-.209.895-.715 1.48-1.591 1.721M633.3 74.725h-.854c-1.443.32-3.725.487-5.326.125h-1.22c-.311-.088-.826-.12-1.22-.255-.274-.074-.483-.283-.683-.427-.13-.106-.324-.05-.496-.12-.195-.093-.353-.339-.543-.432-.237-.125-.473-.078-.733-.185-.156-.065-.403-.255-.543-.316-.25-.014-.496-.032-.747-.046-.301-.102-.473-.339-.728-.436-.297-.112-.492-.037-.738-.186a8.183 8.183 0 0 0-.371-.431c-.171-.149-.445-.2-.608-.367-.19-.195-.269-.524-.422-.733-.255-.348-.743-.496-.988-.872-.195-.306-.219-.692-.427-.98-.18-.254-.97-1.113-1.22-1.289-.102-.083-.228-.079-.306-.18-.21-.298-.162-.785-.372-1.119-.135-.209-.38-.427-.496-.677-.098-.219-.055-.413-.176-.604-.157-.278-.45-.58-.552-.932-.18-.64-.107-1.819 0-2.334-.043-.264-.078-.524-.116-.789.038-.2.24-.519.301-.742.147-.575.024-1.03.19-1.6.093-.316.376-.645.478-.928.237-.594.097-1.258.315-1.907.065-.195.283-.52.362-.733.233-.576.242-1.021.492-1.531.074-.163.292-.32.362-.501.121-.409.255-.817.371-1.225.238-.418.608-.822.858-1.23.376-.63.51-1.605.859-2.278.107-.2.362-.209.487-.366.069-.279.13-.576.171-.873.287-.659.682-1.405 1.113-1.957.233-.274.706-.83.984-1.049.097-.088.226-.079.306-.186.417-.552 1.016-1.21 1.592-1.591.366-.241.696-.357 1.039-.608.348-.264.552-.747.928-.993.408-.287.863-.39 1.276-.682.19-.218.362-.445.556-.663.19-.135.46-.126.664-.25.264-.182.473-.558.742-.743.195-.13.404-.125.608-.246.524-.31.95-.738 1.596-1.048.436-.205 1.02-.052 1.401-.302.798 0 1.485.315 1.777.803.162.24.14.556.31.793.186.148.363.292.558.431.352 0 .617-.065.849-.125a95.622 95.622 0 0 0 1.591-.06c.238-.065.464-.362.854-.246.802.232 2.176.19 2.876.552.043.056.083.135.13.19.181.042.367.075.544.121.18.181.371.371.557.552.644.302 1.535-.158 2.199 0 .468.116.96.32 1.406.427.255.445.329.872.375 1.42.307.194.798.454.984.802.147.311.111.59.362.789.413.357.942.436 1.28.933.311.431.283 1.136.794 1.336.255.195.705.139.983.315.14.177.283.339.422.497.176.134.488.204.622.362.088.13.064.282.176.375.2.154.56.14.682.371.069.168-.048.362.06.492.125.163.347.26.426.488.161.52-.145 1.29-.241 1.6-.162.487-.043.84-.186 1.35-.14.497-.593 1.666-.858 2.028h-.06c-.347.385-.974.394-1.415.677-.102.107-.194.214-.301.316-.33.023-.654.041-.984.055-.32.088-.612.33-.914.432-.408.134-.784.028-1.164.19-.306.125-.631.436-.919.543-.394.07-.765.13-1.169.195-.724.232-1.485.65-2.195.923-.347.13-.612.065-.983.176-.264.084-.543.288-.789.371-.427.163-.816.14-1.22.311-.195.08-.422.297-.612.367-.515.167-1.007-.177-1.601 0-.246.07-.478.376-.733.427-.27.065-.9-.149-1.29-.06-.176.037-.524.148-.673.19-.422-.042-.853-.084-1.285-.13-.13.046-.31.269-.492.31a4.84 4.84 0 0 1-2.329.06c-.542-.023-1.09-.036-1.652-.06-.69-.171-1.451-.556-2.013-.927-.195-.13-.362-.325-.603-.432-.464-.144-.914.144-1.36 0-1.651-.51-2.783-.78-3.55-2.208-.096.041-.058.01-.106.055-.325.14-.334.409-.515.678-.13.157-.278.297-.418.431v.492c-.052.144-.25.27-.301.427-.083.58-.171 1.15-.255 1.74-.055.13-.238.283-.302.413-.111.264-.088.477-.237.69-.107.103-.214.191-.311.302-.171.45-.043.952-.18 1.416-.06.157-.256.282-.317.426v.859c-.078.362-.357 1.02-.237 1.48.116.478.533.65.733 1.044.05.2.121.412.18.612.181.27.52.552.738.803.126.162.126.371.246.552.176.301.654.96.914 1.169.157.12.269.042.487.12.195.07.38.298.552.372.283.13.51.116.803.241.339.158.682.464.979.622.246.041.482.074.728.13.32.102.752.33 1.1.422h1.049c.779.046 1.772.019 2.63-.186.682-.158 1.216-.014 1.893-.18.274-.07.562-.242.803-.316.343-.093.445.074.733 0 .145-.037.385-.19.491-.237.325-.046.646-.093.98-.125.154-.083.213-.38.422-.436.19.037.366.079.552.13.17-.033.404-.26.552-.311h.301c.938-.283 1.661-1.406 2.933-1.17.301.056.543 0 .737.121.413.126.58.436.803.743.13.171.306.171.487.306.478.33.812 1.276.733 1.972-.33.106-.301.287-.482.547-.228.32-1.118 1.049-1.466 1.234-1.69.891-3.791 1.383-5.828 1.907m31.345 19.668c-.32.023-.65.055-.974.069-.135.042-.246.246-.371.306-.204.02-.408.042-.612.056-.043.019-.19.176-.242.19-.64.2-1.963-.2-2.39-.306-.612.014-1.233.037-1.832.06-.055-.01-.237-.171-.31-.19-.367-.056-.766.44-1.04.552-.557.237-.979 0-1.41-.116h-1.225c-.162-.056-.497-.255-.678-.306-.287-.088-.598.171-.96.18-.145.126-.26.242-.38.367-.288.566-.33 1.443-.553 2.093-.078.255-.297.547-.366.793v.933c-.078.283-.343.515-.436.798 0 .218-.029.454-.055.672-.06.186-.25.441-.301.618-.024.245-.043.487-.06.737-.064.051-.13.116-.195.181-.135.362.093.538 0 .863-.073.288-.33.835-.301 1.234.023.19.237.57.13.924-.038.12-.209.352-.246.482-.144.515-.047 1.063-.18 1.466v.747c-.045.163-.255.348-.31.497-.06.204.044.496.059.617.102.658.047 1.28-.06 1.781v.919c-.038.134-.15.417-.18.557-.024.315-.038.617-.067.923-.102.283-.39.775-.492 1.104-.13.46.288.677.186 1.109-.055.255-.292.543-.362.798-.195.696.069 2.111.176 2.645.176.82-.39 3.15-.664 3.558-.209.32-.617.404-.978.562-.186.088-.4.264-.613.31-.798.177-2.278-.91-2.696-1.234-.306-.222-.334-.598-.491-.983-.181-.45-.51-.951-.678-1.476-.064-.478-.116-.937-.19-1.424-.06-.278-.19-.766-.116-1.16.078-.385.283-2.348.116-2.826-.069-.208-.357-.445-.418-.663-.092-.353.18-.413.126-.752-.083-.394-.25-.742-.25-1.285h.126c.14.102.496.074.733.06.024-.032.043-.046.06-.06.033-.292.175-.427.237-.626v-1.23c.102-.347.302-.802.38-1.1-.04-.45-.078-.909-.126-1.368.502-1.837.502-3.902 1.03-5.762 0-.534-.023-1.067-.054-1.6.083-.312.306-.743.376-1.04.069-.32-.246-.562-.246-.807-.024-.33.39-.567.482-.808.024-.38.048-.77.064-1.16.145-.57.395-.946.367-1.53-.21-.228-.408-.46-.612-.678-.376-.264-.817-.195-1.281-.367-.024-.01-.789-.51-.868-.57l-.608-.664c-.078-.185.039-.403-.059-.561a7.934 7.934 0 0 1-.547-.496c-.21-.27-.293-.548-.492-.85-.256-.366-.78-.598-1.156-.862-.213-.228-.422-.446-.621-.678.043-.102 0-.06.06-.12.073-.21.116-.246.305-.302.164-.111.404-.065.613-.125 1.647-.525 3.846-.506 5.386.125.538.204.706.798 1.471.663.083-.362.325-.774.432-1.1.12-.38-.029-.69.12-.983.108-.209.548-.598.558-.854.023-.603-.148-1.326.059-1.916.074-.241.353-.403.422-.677.176-.584 0-1.15.19-1.726.112-.339.52-.775.608-1.095.079-.31-.218-.677-.13-1.118.14-.594.33-1.17.431-1.717 1.058-.074 1.796-.352 2.696-.547.997-.241 3.03.687 3.303 1.16.126.223.107.431.25.621.172.232.59.353.734.613.154.283.18.96.246 1.234v.617c.116.181.18-.083.245.302.27.417.029 1.702-.064 2.087-.024.372-.043.743-.06 1.114-.082.32-.282.691-.366 1.048v.79c-.156.542-.63 1.015-.733 1.595a2.92 2.92 0 0 0 1.833.19c.126-.027.464-.11.677-.064.121.037.441.185.599.185.12 0 .385-.218.5-.246.567-.158 2.826.311 3.244.562.218.13.418.385.608.542.399.316.956.181 1.234.627.088.125.024.33.116.478.064.088.167.07.246.125.566.445 1.262 1.188.919 2.338-.145.478-.576 1.188-1.044 1.35m31.034-.102c-.506 1.852-1.721 1.903-3.61 2.339-.269.07-.598-.08-.788-.065-.733.079-1.573.204-2.334-.051-.093-.037-.264-.218-.367-.25-.412-.145-.886-.061-1.224-.316-.162-.107-.238-.441-.362-.608-.284-.26-.576-.53-.863-.798-.102-.148-.166-.39-.297-.487-.18-.135-.431-.126-.617-.255-.21-.223-.408-.446-.608-.669-.223-.162-.501-.102-.742-.245-.18-.116-.112-.386-.238-.553a11.016 11.016 0 0 0-.682-.426c-.255-.27-.45-.96-.543-1.364-.126-.543.2-1.337-.246-1.662h-.556c-.316.316-.975.97-1.346 1.174-.334.172-.914.21-1.16.488-.306.338-.366.84-.612 1.238-.316.515-.905.965-1.1 1.582-.154.474.152 1.443 0 2.042-.301 1.113-.598 2.38-.612 3.804.255.186.366.557.612.743.171.064.33.13.487.18.362.246.715.627 1.105.868.417.25.909.492 1.345.664.288.13.547.102.794.25.209.135.394.44.612.557.343.195.877.18 1.164.431.093.089.084.288.195.371.21.186.548.19.78.367.455.334.719.84 1.1 1.225.477.482 1.048.77 1.415 1.36.361.589-.079 1.42.12 2.273.058.213.136.57.251.742.074.056.152.12.242.176.097.232-.117.27 0 .497.14.12.287.236.426.366.131.242.06.469.176.682.136.204.414.358.506.604 0 .255.034.505.055.742.088.185.343.278.422.496.278.72.135 1.406.31 2.213.103.45.247 1.313.058 1.847-.228.677-.905.905-1.276 1.406-.469.626-.78 1.322-1.23 1.976-.19.135-.366.297-.561.422-.107.204-.045.446-.171.608-.102.158-1.675.984-1.898 1.063-.18.014-.376.032-.547.06-.348.116-.659.478-.984.617l-1.234.181c-.436.176-.636.71-1.09.858-.45.158-1.647-.07-1.972-.12-.195.019-.404.037-.598.05-.483-.139-1.198-.686-1.527-1.03-.116-.143-.209-.301-.315-.426-.238-.176-.594-.149-.863-.316-.395-.273-.566-.867-1.1-1.048a68.452 68.452 0 0 1-1.285-.126c-.59-.148-1.318-.58-2.26-.37-1.809.398-2.909.598-3.916-.613-.088-.093-.31-.116-.366-.25-.157-.274.121-.46 0-.799-.028-.065-.223-.213-.246-.301.04-.367.083-.738.117-1.1-.024-.18-.21-.524-.117-.867.176-.613.483-1.467.673-2.093.209-.677.166-1.267.367-1.907.135-.445.398-.71.43-1.29a.664.664 0 0 0 .307-.176c.292 0 .724.181.854.116.756-.148.835-1.062 1.225-1.596.145-.106.287-.209.422-.31.408-.015.686-.121 1.109 0 .399.12.76.472 1.108.667.423.274.98.353 1.346.682.246.246.5.701.72.989.175.208.5.306.612.556.033.2.054.409.069.613.083.218.292.468.37.793.298 1.3-.566 1.675-.616 2.594.394 0 .538-.12.802-.186h1.09c.762 0 1.425-.051 1.968-.195h.376c.073-.074.147-.162.237-.246.283-.102.566-.2.854-.292.315-.19.612-.543.923-.752.32-.213.78-.32 1.049-.612.32-.385.431-.9.719-1.355.297-.436 1.953-2.482.742-3.196-.154-.098-.385-.098-.492-.246-.157-.218-.145-.52-.366-.664-.408-.306-.766-.464-1.104-.812-.155-.236-.33-.454-.492-.677-1.633-1.132-3.967-1.48-5.568-2.64-.209-.153-.264-.487-.431-.677-.074-.084-.21-.047-.306-.13-.214-.153-.604-.729-.669-.975-.092-.306.136-.515 0-.807-.102-.204-.426-.714-.621-.854-.186-.153-.543-.287-.668-.487-.153-.297 0-.635-.122-.988-.033-.111-.213-.246-.241-.376-.116-.376 0-1.123.06-1.4a56.64 56.64 0 0 0 .05-1.666c.106-.464.315-.984.43-1.355v-.497c.084-.236.409-.547.488-.793v-.928c.455-1.239 1.122-2.38 1.842-3.382.334-.45.774-.803 1.044-1.35h.175c.065-.483.362-.585.497-.919.035-.227.078-.45.116-.682.097-.167.362-.227.496-.366.172-.19.172-.58.362-.743.46-.334 2.881-.812 3.68-.547.514.167 1.071.612 1.586.788.743.135 1.48.265 2.204.372.157.074.914.552 1.035.682.2.208.2.436.5.552.831.31 2.288.241 2.993.677.854.543 1.828 1.123 2.575 1.786.255.218.344.729.617.924.32.125.64.24.984.37.176.154.233.502.417.673.77.757.97.817 1.29 2.093.029.14.13.557.05.793m33.734-47.36c.103.575-.672 2.291-.858 2.96v1.712c-.088.255-.399.491-.492.737-.237.673.029 1.536-.18 2.274-.162.58-.501 1.238-.673 1.841v.683c-.125.58-.166 1.252-.375 1.846-.162.483-.594.863-.79 1.355-.135.353 0 .668-.116 1.1-.078.292-.241.71-.31.988.023.324.042.654.068.983-.038.112-.166.376-.194.488-.024.287-.034.575-.06.862-.045.14-.246.293-.306.436-.024.181-.038.372-.055.553-.13.264-.538.491-.677.728-.219.38-.26.705-.613.933-.487.31-2.653.431-3.303.185-.603-.227-.733-.816-1.587-.872.043.348.074.705.117 1.053-.064.367-.483.636-.311 1.225.055.181.25.241.31.376.024.338.039.691.06 1.039.029.088.219.232.246.311.074.19.102 1.058.06 1.169-.07.283-.413.404-.543.608-.098.148-.052.33-.136.492-.107.273-.417.399-.542.621v.246c-.131.228-.515.228-.738.371-.079.102-.167.2-.241.297-.441.26-1.095.427-1.592.562-.668.176-1.257-.065-1.958.12-.58.149-1.355.302-1.962.427H709.7c-.157.024-.886.084-1.225 0-.687-.153-1.243-.422-1.898-.612-.301-.015-.617-.042-.918-.065-.464-.102-1.002-.223-1.471-.432-.51-.218-.947-.77-1.406-1.039-.691-.408-1.637-.39-2.329-.807-.157-.181-.33-.362-.492-.548-.348-.32-.691-.65-1.039-.974-.093-.176-.038-.31-.126-.501-.223-.529-.622-1.183-.784-1.777v-.742c-.064-.065-.13-.126-.195-.19 0-.446-.028-.9-.05-1.346-.246-1.118-.31-2.236-.547-3.313-.224-.95.157-1.888.292-2.533-.024-.227-.033-.45-.057-.673.024-.116.157-.37.176-.492.028-.282.05-.57.074-.853.068-.223.292-.501.361-.752v-.492c.06-.185.246-.496.307-.723.023-.204.038-.418.064-.622.083-.232.38-.515.482-.742.024-.158.043-.32.06-.488.116-.315.33-.737.427-1.108v-.371c.078-.219.39-.46.496-.673.145-.306-.024-.696.117-1.044.073-.162.306-.288.375-.492.432-1.34.96-2.473 1.462-3.689.25-.589.255-1.136.491-1.725.088-.089.167-.163.251-.242.343-.52.817-1.21.98-1.85v-.85c.213-.933.324-2.538 1.465-2.533.255.18.613.18.914.315 1.346.594 3.42 1.392 2.946 3.559-.023.264-.045.538-.064.802-.223.58-1.053 1.5-1.104 2.028-.251.436.147 1.568 0 2.148-.135.59-.39 1.262-.552 1.796-.024.18-.038.371-.06.552-.18.492-.626.65-.793.983-.033.26-.078.525-.121.798-.112.098-.209.205-.31.307-.024.264-.039.533-.055.793-.079.278-.344.496-.437.747v.543c-.157.515-.45 1.192-.607 1.665-.079.557-.152 1.105-.241 1.67-.043.098-.21.26-.242.362-.214.539-.166 1.044-.38 1.536-.064.172-.307.46-.357.617-.136.367.17.914.064 1.281-.14.445-.506.793-.617 1.118v.557c0 .037-.162.18-.18.236-.153.478.096 1.123.18 1.48.068.274-.038.673-.06.859-.092.608.079 1.127.117 1.605.361.116.565.427.853.608.306.18.654.116 1.04.241.352.116.732.339 1.113.44h.914c.895.182 2.477.094 3.178-.129.316-.01.626-.042.928-.056.135-.07.33-.31.483-.37.547-.224 1.016-.363 1.475-.678.121-.149.246-.293.366-.432.219-.158.627-.153.789-.376.176-.213.093-.584.255-.853.14-.232.525-.279.673-.492.06-.204.121-.418.176-.626.228-.219.454-.446.677-.668.297-.618-.395-1.11-.06-1.717.024-.056.826-.974.859-.984.394-.162.65-.116.983-.31.13-.089 1.197-1.383 1.276-1.541.024-.18.043-.362.064-.552.088-.265.39-.478.488-.742.209-.525.228-1.304.366-1.838.028-.417.043-.816.06-1.234.3-1.076.871-2.092 1.173-3.127V52.4c.036-.143.255-.292.297-.426.024-.33.04-.66.064-.98.112-.426.283-.969.487-1.359.048-.078.21-.227.246-.306.2-.464.083-1.28.242-1.782.145-.44.473-1.002.612-1.484.038-.376.074-.77.126-1.165.097-.361.413-.863.487-1.234-.028-.18-.038-.362-.069-.543.043-.116.219-.306.25-.436.025-.557.046-1.104.07-1.66-.045-.182-.302-.562-.19-.864.064-.144.31-.32.366-.482.14-.357.034-.487.315-.678.112-.097.214-.111.418-.12.241.176.58.468.859.543.445.157.756.055 1.104.255.51.264 1.656 1.429 1.893 1.976.161.344.078.678.25.97.107.181.344.38.432.552.552 1.1-.265 2.608-.064 3.753z"/><path d="M618.305 144.129c.334.134.728.44 1.29.325.514-.107 1.28.019 1.902-.135 1.215-.27 2.366-.042 3.484.25h1.777c1.837 0 3.14-.139 4.468-.496.074-.394.422-.687.556-1.044.136-.362.117-.622.307-.919.107-.148.334-.18.422-.37.31-.673.292-1.634.497-2.39.12-.497.584-1.114.426-1.786-.306-1.3-1.071-1.406-1.962-2.037-.116-.181-.246-.362-.362-.548-.385-.292-.821-.45-1.234-.737a5.645 5.645 0 0 0-.362-.367 29.88 29.88 0 0 1-1.095-.07c-.775-.092-1.554-.204-2.324-.306-.157.102-.395.01-.618.06-.533.145-1.113.335-1.535.623-.18.204-.367.412-.543.621-.72.506-1.494.886-2.148 1.462-.079.083-.062.208-.126.306-.265.26-.525.506-.794.738-.116.167-.12.329-.255.496-.166.144-.357.283-.533.431-.155.256-.126.492-.25.743-.172.32-.539.52-.73.788-.154.2-.17.418-.31.622-.14.19-.427.293-.617.422-.32.256-1.837 1.995-1.949 2.353v.965c.157.134.098.2.352.264.609-.482 1.485-.561 2.265-.264zM725.498 144.996c.496-.139 1.048.098 1.41-.13.673-.399 1.197-1.526 1.652-2.199.097-.134.334-.246.431-.366.306-.436.2-2.436.06-2.951-.024-.348-.038-.71-.06-1.044-.142-.469-.482-.895-.673-1.3-.125-.263-.059-.486-.18-.741-.344-.706-1.299-1.485-2.394-1.462-.696.464-2.255-.074-2.993.362-.668.39-1.405 1.23-1.777 1.912-.245.422-.282.872-.566 1.285-.324.538-.979.802-1.512 1.164-.413.274-.724.687-1.035 1.053-.083.08-.24.103-.31.177-.233.255-.131.798-.247 1.174-.175.491-.5 1.132-.677 1.6-.112.292-.052.543-.185.789-.13.232-.306.264-.367.622 2.074 1.192 6.96.844 9.423.055zM583.66 101.287c.196.547 1.18 1.141 2.084.918.265-.064.659-.264 1.044-.19.445.098 1.22.265 1.772.135.316-.075.882-.237 1.35-.135.455.098 1.03.126 1.527.065v-.13c.288-.324.238-2.245.371-2.876.246-1.142.171-3.907-.126-4.923-.06-.204.06-1.248 0-1.605.079-.422.166-.858.241-1.276.195-.803.126-1.782 0-2.413h-.301c-.19.34-.404.673-.673.933-.052.042-.2.06-.25.111-.145.186-.065.538-.242.678-.315.264-.798.478-1.04.812-.324.445-.324 1.21-.672 1.651-.145.186-.506.093-.673.255-.255.223-.19.84-.37 1.165-.176.316-.585.561-.794.858-.162.232-.204.515-.362.733-.143.195-.427.293-.626.437-.293.24-.543.723-.784 1.053-.362.468-.84.672-1.044 1.34-.121.4.102.952-.06 1.41-.087.28-.468.72-.37.994z"/></g><path fill="#fff" d="M690.57 381.415c.17.07.365.053.51.156.284.006.275-.068.343-.274.13.02.276.07.391 0 .362-.138.315-.57.464-.938.038-.08.153-.144.197-.232.062-.176.015-.364.115-.508.052-.02.096-.047.152-.077.059-.07.05-.203.115-.273.067-.068.197-.062.273-.118.068-.088.127-.176.191-.27.04-.012.08-.03.115-.038.024-.062.03-.133.039-.194.096-.168.294-.318.394-.465.024-.082.05-.159.076-.24.09-.077.182-.15.27-.233.26-.356.474-.697.736-1.044.088-.117.255-.173.35-.282.238.038.546.156.664.315.052.067.015.202.073.27.056.07.22.047.274.124.056.079.044.214.114.267.08.02.16.027.236.041.12.082.167.282.308.347.206.103.435.018.662.118.176.076.238.326.385.435.076.02.152.056.235.076.059.077.031.224.07.309.25.385.938.979 1.4 1.126.385.126.973-.135 1.164-.27.132-.095.211-.298.39-.356.112.015.236.038.35.04.289-.055.588-.073.93-.146.987-.244 2.104-.518 3.024-.78.159-.017.318-.029.468-.046.129-.047.288-.218.426-.268l.27-.044c.071-.05.056-.206.115-.267.055-.062.167-.074.235-.118.317-.244.517-.796.582-1.287.497-.136 1.008-.465 1.434-.7.127-.035.26-.076.389-.115.147-.097.17-.364.308-.467.13-.041.256-.077.388-.12.109-.071.785-.956.856-1.091.11-.215.036-.476.12-.741.388-1.373-.285-2.907-.861-3.813-.106-.176-.353-.229-.468-.393-.908-1.308-2.513-1.988-3.833-2.887-.447-.3-1.029-.356-1.476-.656-.1-.07-.102-.244-.19-.317-.124-.091-.315-.091-.424-.191a36.273 36.273 0 0 0-1.323-1.052c-.105-.11-.208-.206-.311-.315-.282-.159-.512-.262-.741-.464-.024-.065-.05-.124-.077-.197-.162-.17-.45-.315-.582-.506-.04-.097-.074-.209-.114-.317-.109-.156-.35-.253-.462-.418-.147-.214-.211-.444-.352-.626-.136-.182-.097-.432-.197-.661-.183-.462-.67-1.026-.462-1.826.083-.347.306-.597.424-.867.028-.141.052-.285.076-.423.024-.044.435-.747.468-.785.073-.07.19-.091.273-.147.312-.247.65-.594 1.044-.747.229-.088.479-.035.661-.073.102-.027.232-.135.312-.162.388-.126.682-.05 1.09-.15.294-.07 1.561-.397 1.934-.276.347.108.644.394.973.544-.015.282-.141.432-.08.7.206.963.6 1.557 1.32 1.986.206.124.568.041.741.2.07.13-.027.365.032.547.092.28.323.335.543.497.28-.02.477-.191.621-.344.185.023.29.12.388.235h.467c.056-.03.071-.182.118-.235.096-.12.287-.144.382-.27.305.005.332.117.5.19.27.112.631.1.934.16.67-.633 1.076-1.165.89-2.42v-1.09c-.035-.121-.193-.189-.225-.312-.103-.344.179-.738.073-1.17-.043-.182-.185-.291-.229-.426v-.312a.715.715 0 0 0-.156-.217H700.58c-.05.044-.102.1-.159.135-.076.061-.194.055-.267.12-.086.07-.148.218-.235.274-.33.202-.72.282-1.047.508-.105.068-.15.224-.235.306-.13.123-.338.147-.467.276-.156.165-.191.45-.344.63-.086.085-.203.117-.274.229-.141.229-.108.496-.232.737-.42.838-.893 2.273-.623 3.393.114.452-.021.787.15 1.128.136.235.4.406.588.588.332.312.638.744.888 1.126.153.215.153.444.28.697.193.402.496.72.734 1.055.059.085.05.194.115.276.193.236.464.388.702.582.086.071.102.241.191.312.111.091.262.12.344.232.139.185.215.45.394.585.092.065.241.065.306.153.102.135.123.315.238.432.055.056.17.062.232.115.092.094.132.27.23.347.116.04.231.085.35.123.187.118.314.347.505.467.132.077.255.06.423.121.092.032.17.144.238.191.247.162.535.218.773.391.388.274.641.747 1.05 1.011-.156 1.226-1.132 2.093-1.938 2.687-.258.188-.432.59-.7.738-.26.147-.537.167-.775.317-.485.309-1.056.741-1.67.894-.406.1-.564-.182-.967-.115-.034.006-.138.07-.159.077-.311.053-.711-.097-1.082-.077-.158.018-.311.05-.467.077-.033-.006-.13-.106-.153-.118-.302-.088-.879-.006-1.129.041-.015-.015-.03-.03-.037-.04.028-.589.346-1.183.188-1.83-.417-1.813-.323-2.939-2.09-3.474-.294-.088-.614-.19-.973-.15v-.117h-.074c-.096.2-.288.49-.188.858.032.127.15.335.108.506-.03.147-.147.34-.19.467v.191h-.077c-.025.094-.053.182-.083.276h-.074c0 .016.065.194.032.27-.015.054-.13.139-.15.195-.1.291-.094.464-.232.705-.22.38-.608.726-.855 1.088-.09.138-.093.297-.194.426-.127.18-.353.32-.462.512-.091.161-.132.314-.27.426-.283.209-.659.403-1 .588v5.52c.032.141.065.28.139.397.117.165.48.432.664.509zM800.06 355.9c-.062.285-.256.52-.35.775-.12.327-.086.574-.194.938-.074.262-.265.547-.347.817-.153.5-.291 1.056-.426 1.558a.55.55 0 0 0 .074.427c-.028.305-.221.288-.306.5-.127.34-.068.734-.194 1.096-.038.106-.165.206-.194.317-.015.23-.024.465-.032.7-.276.946-.54 1.955-.785 3.001-.092.38-.083.75-.153 1.085v.585c-.083.23-.279.579-.35.82-.08.256.062.453-.037.74-.089.25-.273.548-.35.818-.08.273.044.582 0 .817-.02.112-.123.253-.156.35v.394c-.08.35-.176 1.037-.347 1.323 0 .394-.123.285-.352.426-.153.235-.065.596-.153.893-.05.162-.174.485-.274.632-.073.112-.273.247-.305.386-.074.243.505.875.579 1.087.105.332-.047.567.04.826.077.247.092.888.035 1.12-.015.08-.077.3-.035.432.086.318.247 1.076.42 1.326.094.08.183.159.277.235.077.112.077.238.156.35.17.247.976.823 1.473.697.167-.039.364-.17.505-.227.206-.09.42-.15.538-.32.303-.409.209-1.038.353-1.637.027-.1.126-.383.12-.5-.037-.276-.226-.747-.12-1.173.153-.626.24-1.261.388-1.905.015-.273.024-.55.033-.817-.018-.082-.12-.194-.074-.353.021-.076.133-.211.156-.314.065-.21 0-.365.08-.541.046-.12.185-.244.232-.388.03-.16.053-.309.077-.473.043-.098.161-.233.2-.347.076-.291-.068-.635 0-.897.018-.08.123-.2.147-.27v-.512c.05-.176.05-.417.114-.661.215-.73.585-1.564.741-2.299-.015-.141-.027-.28-.04-.43.17-.758.15-1.587.385-2.295.068-.188.255-.312.317-.461 0-.203.024-.394.044-.588.093-.274.29-.597.385-.853.1-.308.047-.564.153-.826.096-.226.302-.57.385-.82.138-.409.238-.811.346-1.2l.046-.47c.076-.211.331-.39.423-.585.117-.258.1-.517.232-.779.07-.138.259-.279.309-.432.076-.19.036-.496.082-.7.086-.352.025-1.028-.037-1.322.015-.17.02-.335.037-.509.016-.258-.076-.361-.117-.505-.033-.274-.053-.544-.077-.82a3.695 3.695 0 0 0-.773-1.111h-3.007c-.106.626-.165 1.293-.294 1.816-.089.388.08.706 0 1.052zM789.513 359.362c-.056-.109-.206-.235-.274-.35-.108-.185-.055-.396-.159-.614-.15-.347-.876-1.085-1.199-1.252-.22-.126-.417-.062-.7-.162-.176-.047-.39-.232-.543-.344-.13.006-.194.015-.265.077-.18.12-.111.203-.2.429-.034.103-.19.214-.232.306-.07.19.092.432.12.546l-.043 1.053c-.021.082-.133.202-.159.276.021.115.027.23.044.344-.047.235-.247.553-.309.782-.032.25-.056.5-.08.738-.089.305-.297.661-.388.94-.099.318-.027.835-.153 1.13-.024.05-.126.143-.155.193-.13.247-.238.591-.31.861-.014.203-.028.412-.04.62-.027.086-.164.18-.188.271v.55c-.19.655-.552 1.299-.744 1.981-.015.265-.02.517-.037.782-.088.338-.1.832-.232 1.164-.062.168-.253.303-.309.47-.015.12-.033.236-.04.35-.05.1-.727.92-.81.976-.21.124-.372.094-.622.197a9.506 9.506 0 0 0-.544.623c-.212.385.226.697.038 1.088-.142.14-.285.285-.43.423a25.74 25.74 0 0 1-.11.397c-.094.135-.339.165-.427.312-.104.17-.05.405-.162.54-.102.142-.361.139-.5.239-.076.088-.155.179-.231.273-.292.2-.589.288-.935.43-.097.037-.22.19-.306.234-.191.01-.388.03-.588.036-.444.14-1.446.196-2.014.082h-.578c-.242-.065-.483-.206-.706-.28-.244-.079-.465-.038-.659-.152-.182-.115-.311-.312-.54-.385-.024-.303-.133-.632-.074-1.017.015-.118.083-.37.038-.544-.053-.227-.212-.635-.115-.938.015-.035.109-.126.115-.15v-.353c.07-.205.302-.426.39-.708.068-.232-.126-.58-.04-.811.032-.1.185-.283.226-.391.136-.312.106-.632.241-.973.021-.065.127-.168.153-.23.056-.358.103-.705.153-1.058.1-.3.285-.729.385-1.055v-.344c.059-.159.227-.297.276-.473.016-.165.022-.335.035-.503.065-.065.126-.132.197-.194.027-.173.056-.34.077-.506.105-.211.388-.311.502-.623.015-.114.024-.235.038-.35.102-.338.264-.764.35-1.137.093-.368-.16-1.085 0-1.361.031-.335.558-.917.7-1.285.014-.167.028-.34.04-.508.3-1.373-1.014-1.879-1.867-2.255-.19-.085-.417-.085-.579-.2-.723-.003-.793 1.014-.929 1.605v.538c-.102.406-.402.844-.62 1.173-.053.05-.104.097-.159.153-.149.373-.152.72-.311 1.093-.318.77-.653 1.488-.926 2.337-.044.13-.191.21-.238.312-.089.22.018.467-.074.661-.068.135-.265.288-.314.427v.235c-.062.235-.198.502-.271.702-.015.106-.026.209-.038.309-.064.144-.253.323-.305.47-.018.13-.03.265-.041.394-.038.144-.156.341-.194.459v.311c-.044.159-.185.335-.23.476-.014.18-.028.362-.046.541-.015.077-.096.238-.111.312.015.141.025.282.036.426-.086.409-.327 1.003-.185 1.605.15.682.19 1.39.346 2.099.015.282.028.57.032.852.04.042.083.08.123.121v.47c.103.377.356.791.497 1.126.056.12.021.206.08.318.22.205.438.414.659.617.102.117.211.232.311.347.438.264 1.038.253 1.476.511.29.17.567.52.89.659.297.132.638.208.932.273.191.015.391.032.582.041.415.12.767.291 1.203.388.214.053.676.015.776 0h1.24c.385-.079.876-.176 1.244-.27.443-.118.817.035 1.24-.077.315-.085.73-.19 1.008-.355.047-.062.103-.124.153-.188.142-.091.385-.091.468-.236v-.155c.08-.141.276-.22.344-.394.052-.103.024-.218.085-.312.083-.13.3-.206.344-.385.027-.07.015-.62-.038-.74-.018-.05-.138-.142-.155-.198-.015-.22-.024-.443-.038-.658-.037-.085-.162-.124-.197-.238-.108-.373.156-.544.197-.776-.025-.22-.047-.447-.074-.668.541.036.623.41 1.006.553.411.156 1.784.08 2.093-.117.223-.144.25-.35.388-.591.088-.15.347-.294.429-.462.015-.114.025-.235.034-.35.038-.09.165-.188.194-.276.019-.182.029-.364.038-.547.018-.07.1-.238.123-.308-.018-.21-.028-.418-.043-.624.043-.176.147-.44.197-.626.068-.273-.015-.473.074-.696.123-.312.396-.553.5-.859.132-.376.158-.802.237-1.17v-.432c.109-.382.324-.8.426-1.167.133-.467-.034-1.014.115-1.44.058-.156.256-.306.311-.467v-1.085c.118-.424.609-1.511.544-1.876-.126-.726.391-1.681.04-2.378zM733.197 377.361c.114-.165.096-.28.306-.347.05-.44-.162-1.04-.465-1.25-.114-.084-.226-.084-.309-.193-.141-.194-.246-.391-.508-.47-.124-.077-.276-.042-.468-.077-.805-.15-1.264.562-1.857.74h-.191c-.094.033-.241.177-.35.198a4.54 4.54 0 0 0-.35-.082c-.132.035-.17.223-.268.276-.211.02-.414.05-.62.08-.067.029-.22.126-.311.15-.183.046-.247-.06-.465 0-.153.046-.335.155-.508.2-.43.105-.767.014-1.2.114-.543.13-1.172.147-1.666.117h-.665c-.22-.059-.494-.203-.696-.267-.156-.035-.306-.056-.462-.083-.188-.1-.405-.293-.62-.393-.186-.08-.33-.071-.509-.153-.108-.047-.226-.191-.35-.235-.138-.05-.208 0-.308-.077-.165-.132-.467-.55-.58-.74-.076-.115-.076-.248-.155-.35-.138-.16-.353-.339-.467-.509-.038-.126-.083-.262-.115-.388-.126-.25-.39-.359-.464-.661-.077-.291.1-.709.15-.938v-.544c.038-.091.162-.17.2-.27.09-.294 0-.612.115-.897.061-.07.13-.126.197-.191.093-.135.08-.27.15-.438.04-.082.156-.18.191-.262.053-.373.109-.735.162-1.102.032-.1.159-.18.191-.27v-.312c.089-.085.182-.173.265-.273.114-.17.12-.341.326-.43.029-.029 0-.008.068-.035.485.906 1.202 1.076 2.249 1.4.282.09.567-.092.86 0 .154.067.26.19.383.273.356.235.838.479 1.276.588.355.015.702.023 1.046.038a3.068 3.068 0 0 0 1.476-.038c.114-.027.23-.168.311-.197.274.029.547.056.815.082.093-.026.314-.097.426-.12.247-.056.647.079.817.038.162-.033.309-.227.465-.27.376-.112.687.105 1.014 0 .12-.045.264-.183.388-.233.255-.109.502-.094.773-.197.156-.053.332-.182.5-.235.235-.07.402-.03.623-.112.45-.173.932-.438 1.39-.585.256-.04.49-.08.74-.123.183-.068.389-.265.583-.344.241-.103.479-.036.738-.12.19-.065.376-.218.579-.274.209-.009.414-.02.623-.035.068-.065.126-.133.191-.2.28-.18.676-.185.897-.43h.037c.168-.229.456-.97.544-1.284.092-.323.015-.547.118-.855.061-.197.255-.685.152-1.014-.05-.145-.19-.206-.27-.31-.068-.081 0-.205-.038-.31-.076-.148-.305-.139-.432-.236-.07-.059-.055-.156-.111-.238-.086-.1-.282-.144-.394-.23-.089-.1-.18-.202-.268-.314-.176-.112-.461-.076-.623-.2-.323-.126-.305-.573-.502-.846-.215-.315-.55-.365-.812-.591-.158-.127-.135-.303-.229-.5-.117-.22-.429-.385-.623-.508-.03-.347-.077-.618-.238-.9-.282-.068-.594-.197-.89-.27-.421-.1-.986.19-1.394 0a43.275 43.275 0 0 1-.353-.35c-.111-.03-.23-.05-.344-.077-.028-.035-.056-.085-.083-.12-.443-.23-1.314-.203-1.822-.35-.247-.073-.391.115-.541.156-.338.015-.673.03-1.008.038-.148.038-.315.08-.538.08-.124-.089-.235-.18-.353-.274-.109-.15-.094-.35-.197-.503-.185-.308-.62-.508-1.126-.508-.241.158-.611.061-.888.19-.408.198-.678.468-1.01.665-.13.077-.262.074-.386.156-.17.117-.303.356-.47.47-.13.08-.3.074-.42.159-.124.138-.233.282-.353.42-.262.186-.55.25-.809.432-.238.156-.367.462-.587.63-.218.158-.427.232-.659.385-.365.24-.744.658-1.008 1.008-.05.068-.133.062-.194.118-.177.138-.477.49-.623.664-.274.35-.524.823-.706 1.24a5.715 5.715 0 0 1-.108.553c-.08.1-.241.106-.309.232-.22.426-.306 1.044-.544 1.444-.158.258-.394.514-.543.778-.074.26-.16.518-.236.777-.043.114-.182.214-.229.317-.159.323-.165.605-.312.97-.05.135-.188.341-.229.464-.138.412-.05.832-.2 1.209-.064.179-.244.388-.302.588-.109.361-.028.65-.12 1.014-.038.14-.168.344-.192.47.024.167.047.332.074.5-.068.326-.115 1.073 0 1.478.065.224.25.415.35.591.076.12.05.244.111.382.074.159.23.297.315.43.132.211.102.52.235.708.05.065.13.062.194.115.159.111.658.655.773.817.132.182.147.426.27.62.156.238.465.332.627.553.096.132.147.34.267.464.102.106.276.138.385.232.083.091.162.18.235.274.156.094.28.047.468.117.161.062.27.212.461.277l.473.029c.089.038.244.159.344.2.165.068.315.038.465.117.12.06.22.215.344.274.108.044.232.009.314.076.127.091.259.224.432.27.25.086.577.107.773.162h.774c1.014.23 2.46.124 3.374-.079h.541c1.29-.332 2.622-.644 3.692-1.208.22-.118.785-.58.929-.782m-11.138-13.595v-.541c.105-.112.209-.206.309-.318.123-.244-.077-.39.043-.579.065-.097.623-.729.703-.782.111-.082.291-.056.385-.153.259-.302.353-.74.697-.94.158-.024.308-.05.464-.08.18-.064.491-.188.662-.305.223-.165.302-.491.496-.665.153-.12.333-.185.473-.311.221-.194.368-.5.583-.694.161-.165.432-.185.62-.32h.935c.635.158 1.187.538 1.778.74.139.01.288.033.43.039.123.047.255.208.381.276.338.164.667.23.976.423.203.132.762.759.926.976.156.203.438.215.62.382.192.18.439 1.014.239 1.297.027.094.04.079.077.15.149.008.37.023.467-.033.235.02.194.103.305.23 0 .373-.064.81-.232 1.058-.099.19-.485.338-.734.388-.092-.018-.183-.03-.274-.041-.59.129-1.17.446-1.702.623h-.432c-.223.061-.356.288-.573.35-.241-.018-.474-.024-.706-.039-.629.194-1.452.456-2.128.62-.506.127-1.005-.129-1.514 0-.626.154-1.396.036-2.093.083-.379.02-.688.22-1.087.112-.344-.083-.806-.262-1.164-.35-.265-.062-.55.018-.738-.115h-.077c.04-.658.711-.95.885-1.481zM743.318 375.962c.152.167.089.417.314.588.115.082.262.117.347.226.17.238.294.473.465.706.144.194.405.332.579.505.117.13.229.253.347.391.388.277.817.373 1.29.582.04.018.126.135.185.153.241.074.576.035.78 0 .172-.023.804.115.975.156h.653c.482.132 1.255.135 1.787.232.162-.02.332-.047.502-.07.362.038.92.14 1.359.038.311-.091.62-.188.931-.282.244-.01.491-.021.735-.036.262-.064.515-.2.773-.27.215-.03.441-.047.662-.077.394-.19.732-.523 1.09-.779.041-.029.05-.126.112-.158.099-.012.208-.024.311-.039a7.13 7.13 0 0 0 .7-.27c.241-.109.414-.385.656-.464h.235c.088-.124.179-.233.27-.35.102-.044.212-.077.312-.124.217-.144.382-.405.54-.62.139-.191.35-.288.541-.43.177-.131.218-.331.35-.51.13-.165.415-.171.62-.268v-.038c.186-.097.174-.244.31-.353.138-.112.287-.094.393-.232.335-.444.441-1.061.773-1.52.136-.185.426-.297.547-.509.089-.167.07-.332.147-.502.13-.28.406-.562.465-.894.05-.232-.062-.95-.077-1.21 0-.113.13-.345.159-.471.145-.609-.294-1.147-.58-1.364.016-.315.26-.432.189-.78-.09-.487-.22-.89-.464-1.243-.092-.094-.177-.182-.268-.273v-.506c-.062-.17-.223-.3-.27-.511.208-.106.655-.582.77-.77.12-.194.126-.438.276-.588-.021-.315-.547-1.152-.776-1.25-.356-.146-.85-.046-1.24-.15-.45-.132-1.526-.87-2.173-.714-.144.045-.311.191-.423.241-.288.13-.347.18-.635.28-.114.038-.217.208-.335.25-.17.017-.48.046-.65.076-.082.032-.35.032-.44.056-.162.044-1.35-.318-1.476-.388.015-.1.024-.133.04-.197.526-.006 1.061-.027 1.59-.041.174.04.51.076.7 0 .244-.088.409-.37.656-.456.05-.241-.077-.511 0-.782.076-.25.438-.43.35-.82-.183-.779-.909-.944-1.667-1.135h-.503c-.153-.053-.285-.167-.505-.197-.374.25-1.27.12-1.746.277-.486.155-1.112.367-1.594.55-.214.05-.438.096-.658.152-.42.18-.906.506-1.358.662-.32.108-.856.179-1.2.39-.79.494-1.64.956-2.404 1.48-.165.11-.165.39-.312.505-.135.106-.32.094-.464.194v.082c-.28.212-.58.409-.817.659-.032.102-.08.208-.115.314-.117.141-.44.112-.54.268-.298.45-.495.908-.77 1.366-.233.368-.589.688-.821 1.056-.317.485-.459 1.032-.7 1.596-.067.165-.255.38-.302.54 0 .157.018.315.031.471-.061.165-.285.38-.35.54-.014.227-.03.45-.037.668-.015.041-.102.177-.117.235v.582c-.482 1.597-.28 3.978.585 5.262.086.133.282.188.385.312m1.746-3.78c.059-.212.212-.494.27-.741.118-.456-.027-.961.16-1.364.117-.268.193-.544.264-.817.027-.18.055-.362.08-.544.046-.03.08-.056.117-.08.108-.164.156-.35.276-.508.115-.103.233-.2.347-.315.156-.223.177-.482.309-.734.096-.189.309-.236.429-.391.235-.32.344-.718.58-1.053.158-.217.443-.344.66-.502.191-.15.574-.738.735-.818.1-.017.209-.035.312-.047.356-.14.688-.44 1.047-.579.105-.017.205-.023.305-.044.07-.056.133-.123.2-.19.265-.177.538-.342.85-.465.185-.077.37-.006.582-.083.061-.023.141-.126.194-.155.44-.224.89-.409 1.278-.659.209-.135.485-.156.665-.314.08.015.07.015.114.038.235.12.758 1.331.967 1.637.191.276.506.459.773.664.206.15.38.397.588.547.153.109.247.103.35.27.264-.017.508-.17.655-.314h.156c-.086.482.294.74.191 1.135-.034.138-.15.3-.19.464-.112.473.06.935-.078 1.364-.046.153-.185.309-.238.506.032.273.056.546.08.814-.086.44-.138.84-.226 1.25v.543c-.053.226-.074.538-.156.782-.044.115-.176.223-.232.315-.1.246-.182.49-.274.74-.055.065-.185.083-.235.15-.088.127-.13.28-.232.394-.062.035-.12.085-.194.118-.132.158-.188.344-.35.467-.064.053-.164.062-.232.115-.032.032-.029.123-.08.155-.153.103-.373.077-.5.192-.052.055-.052.158-.117.2-.247.138-.532.138-.779.27-.505.28-1.073.664-1.625.9-.235.04-.465.076-.697.114-.159.062-.406.206-.54.27-.236.11-.45.05-.668.156-.126.074-.244.212-.344.235-.412-.006-.826-.026-1.24-.035-1.138.003-2.24-.088-3.025-.55-.159-.09-.99-1.237-1.053-1.44-.096-.335.112-.558 0-.896-.074-.25-.338-.77-.229-1.167zM766.625 437.672c.133-.541.374-1.015.506-1.6.092-.4-.241-.693-.115-1.21.086-.362.344-.465.468-.744.02-.141.05-.282.077-.427.064-.161.208-.35.27-.505.077-.22.109-.488.156-.7-.018-.144-.024-.282-.038-.426.021-.123.13-.309.15-.43.054-.225-.11-.34-.15-.464-.091-.293.038-1.17.08-1.446l-.12-.979c.132-.793.176-1.64.426-2.293.15-.396-.22-.584-.12-.975.105-.36.4-.759.505-1.094.056-.37.115-.75.162-1.129.04-.114.194-.235.232-.347.068-.185.015-.294.115-.429.317-.45 1.763-.805 2.48-.932.133-.032.233.053.31.077.237.059.896.08 1.166 0 .145-.044.265-.194.391-.232.127-.021.256-.027.382-.045.394-.17.603-.623.932-.852 0-1.167-1.029-2.008-1.86-2.337-.13-.012-.26-.032-.386-.041-.464-.126-1.49-.409-1.631-.823-.068-.12.276-1.129.353-1.317.152-.435.314-1.229.147-1.799-.032-.126-.153-.294-.191-.43-.108-.387-.096-.76-.353-1.007-.052-.018-.123-.024-.188-.039-.385-.226-.682-.652-1.164-.785-.45-.111-1.032.327-1.402 0-.45 0-.711.274-.811.63-.191.314.203 1.084.043 1.557-.064.165-.185.424-.235.624v.623c-.064.206-.232.473-.305.697-.028.185-.062.367-.083.546-.07.194-.206.444-.271.623-.017.106-.026.212-.038.315-.093.2-.32.35-.429.585-.505.115-1.464.37-2.058.194-.214-.065-.429-.241-.614-.318a4.092 4.092 0 0 1-.388-.035c-.261-.085-.511-.332-.779-.426-.27-.023-.54-.047-.814-.082-.27-.068-.761-.253-1.052-.156-.148.059-.256.232-.385.314.037.32.17.535.235.82-.021.26-.029.52-.04.78.07.288.24.346.31.502.092.206.047.37.115.591.083.253.288.688.43.926.067.126.225.156.349.238.165.12.3.35.467.47.238.18.988.485 1.276.585.64.203 1.511.053 2.096.309.144.753-.083 1.579-.23 2.225.016.215.025.435.035.656-.088.382-.211.87-.308 1.25v.743c-.06.232-.174.758-.118 1.008.03.118.12.32.077.506-.015.053-.1.182-.114.235-.018.182-.029.361-.041.54-.062.195-.241.306-.306.471-.117.288-.061.564-.161.858-.026.077-.127.224-.156.315-.018.262-.047.52-.077.779-.036.135-.147.262-.188.39-.026.221-.059.445-.083.656-.074.097-.15.189-.23.274-.246 0-.364-.012-.549 0 .018.4.15.723.241 1.058v.58c.015.067.096.24.111.317.092.39-.223.896-.073 1.437.161.611.288 1.317.57 1.878h2.898c.021-.088.041-.17.062-.24.015-.365.023-.724.032-1.088zM708.41 438.136c.08-.109.071-.256.156-.35.109-.129.244-.167.312-.352.123-.192 0-.585-.035-.744-.061-.2-.015-.394-.12-.547-.17-.244-.53-.335-.776-.5-.153-.108-.277-.326-.426-.432-.142-.056-.28-.1-.427-.156-.276-.211-.235-.561-.7-.623-.067-.611-.605-1.055-1.16-1.167-.35.288-.82.37-1.208.623-.2.133-.318.4-.5.544-.09.068-.183.086-.27.153-.189.156-.18.412-.312.626-.05.085-.573.435-.659.473-.25.01-.488.024-.74.036-.93.273-2.226.226-3.222 0-.344-.08-.582-.003-.85-.112-.226-.1-.49-.338-.658-.517-.024-.047-.053-.1-.074-.153h-.117c-.203-.094-.47-.232-.62-.391-.112-.106-.142-.256-.236-.388-.096-.138-.294-.206-.432-.309-.102-.088-.126-.253-.226-.35-.062-.064-.168-.064-.233-.117-.167-.138-.296-.365-.47-.509a.613.613 0 0 1-.108-.044c-.093-.235-.182-.488-.27-.735-.077-.123-.26-.226-.318-.352-.218-.515.096-1.314-.038-1.905-.033-.156-.173-.585-.15-.706.018-.153.091-.517.037-.738-.158-.596-.25-.808-.086-1.44.019-.103.032-.209.047-.312.332-.687.838-1.099 1.047-1.948.096-.456-.23-.609-.309-.856-.077-.208-.047-.629-.08-.823-.082-.397.194-.414.347-.582.159-.17.133-.476.232-.7.1-.223.306-.39.424-.585.059-.194.105-.388.153-.587.08-.165.27-.239.358-.383.105-.185.065-.426.153-.629.259-.62.79-1.217 1.24-1.675.121-.127.271-.38.43-.459.397-.208.952-.103 1.39-.276.18-.068.344-.347.506-.432.22-.112.382-.112.582-.232.279-.168.605-.518.929-.624h1.943c.085.024.264.098.35.121.179.041.305-.015.429.07.473.23.993 1.706 1.393 2.185.391.476 1.737.444 2.481.396.156.042.306.1.461.15.865.21 1.967-.317 2.252-.702.09-.112.056-.282.118-.426.102-.244.373-.724.308-1.088-.126-.74-1.046-1.5-1.584-1.87-.165-.114-.241-.338-.43-.429-.329-.179-.546-.161-.97-.276-.132-.03-.282-.153-.39-.194-.148-.059-1.27-.097-1.358-.044h-.656c-.065-.077-.132-.15-.197-.227-.153-.108-.37-.258-.54-.317-.597-.197-1.465-.232-2.214-.232h-.89c-1.309.379-2.647.746-3.678 1.405-.665.423-1.197 1.07-1.75 1.599-.084.077-.223.077-.308.156-.176.135-.261.314-.394.5-.17.155-.335.317-.502.464-.156.218-.18.53-.35.744-.174.229-.453.402-.618.623-.091.132-.105.306-.194.429-.096.13-.258.135-.39.235l-.618.78c-.29.555-.367 1.198-.661 1.757-.09.091-.17.173-.274.27-.102.168-.102.35-.194.544-.043.097-.179.188-.232.274-.153.267-.126.567-.23.89-.064.224-.223.424-.31.588-.151.268-.087.62-.2.935-.06.191-.2.376-.265.544-.139.355-.094.77-.23 1.131-.091.203-.17.453-.264.709v6.047c.032.09.062.179.105.258.092.162.294.306.388.465.077.147.044.326.156.432.15.15.37.214.5.382.173.23.29.5.505.667.18.138.36.227.506.391.062.068.077.177.156.238.111.074.232.083.306.188.252.336.532.724.855.976.156.118.359.153.505.277.2.158.242.473.465.62.13.041.262.076.39.12.25.124.495.265.756.394h11.73v-.003c.37-.261 1.064-.514 1.316-.86zM741.145 438.098v-.356c.056-.217.206-.573.118-.89-.068-.247-.306-.353-.435-.55-.233-.388-.294-.776-.459-1.247-.059-.158-.232-.343-.264-.508-.047-.174.288-1.2.347-1.438.091-.393.061-1.378 0-1.754.073-.676.152-1.35.229-2.026.067-.235.276-.3.39-.467.174-.259.174-.623.342-.85.114-.15.311-.214.397-.39.129-.333.19-.697.27-1.015v-.626c.083-.303.291-.655.385-.976.027-.182.053-.364.083-.544.126-.267.532-.358.694-.546.373-.444.479-1.073.814-1.558.197-.291.652-.297.929-.506.282-.214.385-.711.696-.897.203-.117.403-.105.582-.229.145-.097.212-.297.315-.429.223-.291.826-.661 1.2-.779.305-.103.787.044 1.046.073.214.021.59-.097.817 0 .273.118.473.435.738.588.605.33 1.076.509 1.358 1.164.027.21.043.415.077.624.176.526.17.77.037 1.358-.1.438.086.952-.037 1.328-.156.477-.233 1.173-.347 1.676v.394c-.106.388-.359.744-.47 1.17.014.173.03.361.043.543-.018.068-.133.21-.156.271-.034.247-.083.494-.114.74-.12.377-.21.824-.359 1.25-.092.28-.264.57-.303.935-.179.085-.623.12-.779.235-.25.168-.167.576-.505.697-.015.696.108.361.429.623.138.117.206.44.429.585 0 .57.123.935.27 1.32-.123.552.48 1.978.776 2.228.189.064.388.126.58.197.582.335.617.5 1.355.156h.161c.059-.03.262-.183.309-.238.465-.583-.026-1.505.309-2.067.25-.42.682-.847.852-1.323.015-.132.029-.264.038-.39.092-.295.23-.574.314-.853.016-.162.022-.315.037-.47.102-.36.384-.674.508-1.015.026-.247.053-.497.074-.737.015-.039.104-.15.117-.197.015-.289.027-.574.035-.856.064-.226.176-.535.235-.785-.015-.37-.024-.75-.04-1.12.176-.62.643-.993.82-1.602-.03-.458-.056-.905-.09-1.367.165-.764.09-1.852-.108-2.487-.015-.226-.03-.44-.04-.664-.086-.314-.959-1.555-1.2-1.672-.29-.139-.62-.094-.887-.28-.253-.161-.441-.505-.706-.661-.268-.15-.532-.132-.776-.306-.276-.211-.388-.508-.773-.629-.905-.28-2.184-.22-3.104 0-.232.018-.462.03-.694.035-.364.106-.817.286-1.167.397-.153.02-.309.05-.465.074-.32.158-.664.39-.97.544-.429.226-.855.335-1.24.587-.194.13-.388.347-.579.47-.159.045-.314.104-.465.154-.276-.018-.305-.118-.47-.233-.07-.326-.03-.926-.15-1.249-.089-.206-.288-.364-.356-.62v-.43c-.03-.085-.153-.202-.191-.267-.027-.164-.056-.323-.077-.47-.273-.662-.835-1.047-1.746-1.055-.144.117-.25.15-.314.346-.162.277.015 1.032-.074 1.408-.05.206-.139.491-.194.662-.127.414-.038.776-.197 1.129-.106.261-.318.605-.423.896-.162.432-.235.873-.35 1.329-.015.14-.024.279-.042.426-.021.062-.13.141-.153.194-.1.197-.018.417-.077.664-.058.236-.202.506-.27.744v.462c-.059.264-.176.561-.232.776 0 .261.027.523.04.779-.117.617-.173 1.267-.317 1.872-.083.347.015.614-.077.935-.126.426-.394.453-.576.74-.117.171-.185.45-.244.662v.82c-.099.582 0 1.511.124 2.067.067.297-.068.429 0 .74.022.139.144.347.12.503-.074.335-.273.632-.356.935-.082.317.08.594.112.779v.855c.018.053.111.186.123.238l.07 1.015c.13.34.657.805 1.165 1.134h2.434c.288-.212.576-.597.673-.902zM724.275 437.434c-.294-.265-.729-.3-1.123-.47-.211-.08-.311-.277-.47-.389-.114-.076-.247-.067-.347-.15-.426-.376-.099-.829-1.084-.817-.35.368-.738.335-1.209.58-.05.064-.096.131-.152.196-.2.127-.806.23-1.082.115-.35-.138-.709-.438-1.011-.665-.183-.179-.365-.358-.541-.538-.297-.111-.594-.211-.894-.317-.159-.12-.273-.509-.464-.664-.015-.338-.09-.738.037-1.05.065-.167.285-.261.194-.626-.135-.523-.332-1.088-.467-1.558-.156-.567.24-1.035.158-1.481-.135-.662-.19-1.026-.034-1.708.07-.338-.065-.72.034-1.014.042-.13.203-.72.274-.818.08-.123.232-.144.347-.235.056-.047.03-.132.07-.19.3-.43.76-.633.903-1.256.324.044.341.459.5.67.04.01.074.024.114.03.127.132.101.27.197.429.124.232.441.361.659.511.126.091.238.291.39.347.189.015.386.024.583.041.276.08.588.268.85.356.144.044 1.337.18 1.47.156.144-.038.467-.1.622-.083.93.106 2.258-.04 3.146-.273.285-.07.567.07.776.115.188.044.461-.044.576-.036.314.033.67.133.97.153.173-.05.338-.106.505-.153.247-.058.782-.14 1.044-.079.056.012.209.07.315.044.25-.067.443-.264.693-.353.335-.123.709-.064.97-.235.18-.108.456-.447.626-.511.241-.085.474 0 .694-.07.565-.183 1.261-.92.897-1.718-.174-.37-.57-.35-.93-.543-.226-.12-.355-.303-.66-.394-.386-.109-.788-.082-1.012-.35-.039-.053-.033-.106.038-.197.105-.285.423-.226.667-.385.145-.1.218-.309.347-.432-.018-.165-.027-.332-.04-.5-.233-.223-.539-.38-.815-.547-.18-.461.227-1.078.08-1.322-.074-.189-.411-.427-.585-.515-.138-.64-.092-1.799-.388-2.298-.156-.253-.867-.418-1.164-.503h-.35c-.596-.238-1.19-.63-1.784-.853-.491-.19-1.108.024-1.702-.123a3.554 3.554 0 0 0-.855-.07c-.7.496-1.397-.156-2.252.035-.87.19-1.276.19-1.899.623-.25.173-.444.679-.7.89-.329.277-.75.412-1.04.709-.174.164-.288.34-.432.54-.186.25-.512.389-.697.627-.32.414-.62.832-.932 1.246-.05.065-.13.065-.197.118-.043.032-.547.57-.579.623-.194.276-.29.588-.503.855-.188.233-.458.48-.62.744-.096.141-.096.335-.194.468-.037.044-.161.067-.197.114-.153.206-.164.503-.27.735-.077.18-.277.338-.353.515-.15.382-.15.76-.344 1.087-.07.106-.223.235-.273.344-.145.315-.106.852-.191 1.217-.133.512-.312 1.046-.43 1.52v.385c-.105.402-.082.979-.19 1.443-.047.182-.153.382-.2.544-.024.559-.044 1.12-.077 1.673-.029.126-.159.238-.194.352.015.13.029.26.038.391.027.518-.092 1.009.04 1.485.086.276.32.523.42.776.074.15 0 .297.086.426.115.185.35.315.468.511l.229.618c.188.303.538.682.82.9.059.05.138.05.188.117.165.226.23.485.43.664.155.13.41.106.584.23.056.047.098.173.148.232.152.161.464.379.658.467.096.015.182.03.28.044.025.003.052.027.082.044h7.764a1.4 1.4 0 0 0 .411-.94c-.159-.16-.32-.491-.464-.626m-6.861-14.722c.07-.226 1.032-1.328 1.234-1.49.12-.082.303-.147.391-.268.09-.129.1-.267.197-.393.12-.171.353-.297.462-.5.08-.159.061-.309.159-.47.11-.095.232-.183.338-.274.085-.106.088-.209.161-.314.17-.147.335-.303.503-.468.04-.062.029-.14.08-.194.414-.364.905-.605 1.36-.926.112-.132.23-.264.345-.394.267-.182.635-.302.973-.394.141-.032.29.027.39-.038.489.065.982.135 1.473.194.233.018.465.036.694.044.083.077.159.153.23.233.261.182.537.282.781.467.074.118.156.232.23.347.564.4 1.049.467 1.243 1.29.1.427-.194.817-.27 1.132-.13.48-.118 1.088-.315 1.514-.056.12-.2.14-.268.235-.12.188-.108.353-.194.582-.085.226-.305.412-.352.661-.841.227-1.667.315-2.831.315h-1.126c-.708-.185-1.437-.33-2.208-.159-.393.097-.878.018-1.205.086-.355.073-.605-.121-.817-.206-.494-.188-1.05-.138-1.435.167-.16-.04-.123-.082-.223-.167v-.612zM787.652 437.469c.024-.138-.083-.368-.118-.538-.064-.28.097-.656 0-.826-.173-.347-1.34-.27-1.828-.144-.947.226-1.834.538-2.748.77-.438.118-.956-.156-1.28-.232h-.349c-.326-.1-.938-.394-1.2-.585-.14-.106-.167-.332-.279-.468-.015-.023-.45-.317-.5-.355-.425-.291-.937-.397-1.125-.932-.156-.43.191-1.155.191-1.714 0-.564-.123-1.381.044-1.905.052-.19.176-.467.229-.702.024-.262.055-.526.083-.776.073-.256.264-.488.347-.747.129-.394.155-.702.302-1.09.162-.368.394-.688.55-1.088.432-.077.538.206.852.311.265.089.491.053.738.16.723.293 1.696.763 2.593.858.2.02.456-.194.623-.242.47-.12.753.177 1.208.08.406-.094 1.05.032 1.55-.08.39-.085.793-.223 1.125-.305.441-.124.84.22 1.164.305.42.118 1.626.1 2.055 0h.623c.609-.161 1.444-.411 1.899-.776.168-.138.259-.496.459-.664.027-.45-.22-1.22-.541-1.405-.37-.206-.926-.103-1.317-.312-.38-.194-.556-.617-.806-.931.03-.335.327-.438.22-.9-.043-.203-.234-.932-.152-1.205.03-.088.165-.218.197-.306.092-.282.032-.976-.117-1.176-.109-.261-.318-.155-.583-.267-.379-.165-.617-.618-1.008-.747.038-.414.324-.846.112-1.246-.241-.462-.953-.603-1.394-.894-.211-.14-.164-.37-.308-.579-.288-.426-1.367-.72-2.096-.7-.13.095-.33.05-.5.112-.162.059-.311.224-.47.274h-.93c-.14.029-.317.132-.426.152-.243.062-.376-.076-.505-.117-.344-.088-1.414.267-1.59.394-.288.211-.65.635-.85.935-.08.114-.089.226-.197.308-.261.182-.367.376-.582.585-.156.159-.414.244-.54.43-.106.152-.133.314-.239.47-.2.288-.538.517-.735.817-.214.323-.25.72-.467 1.052-.217.33-.538.718-.735 1.047-.077.235-.159.47-.232.705-.18.306-.435.67-.58 1.008-.085.203-.046.41-.113.627-.062.152-.183.311-.242.464-.102.33-.076.58-.188.9-.034.094-.164.2-.197.27-.129.247-.073.53-.188.779-.17.362-.426.832-.544 1.25-.015.237-.031.47-.04.702-.035.106-.127.27-.153.388-.029.212-.059.417-.083.623-.092.285-.262.576-.35.897-.086.326.08.54-.037.864-.097.253-.294.594-.391.89-.142.456-.124 1.382-.035 1.829.093.423-.065.855.08 1.208.04.1.182.188.232.267.385.697.738 1.32 1.167 1.955.223.338.6.565.929.815.114.09.15.296.27.393.218.162.55.385.856.591h9.327c.144-.488-.227-1.031-.136-1.531m-6.402-14.025c.086-.156.047-.314.117-.5.112-.296.318-.702.43-1.014.073-.238.015-.582.156-.743.043-.047.144-.062.197-.112.196-.232.393-.494.655-.667.338-.23.752-.397.958-.738.18-.262.203-.547.359-.814.235-.432.702-.964 1.126-1.211.467-.277 1.455.064 1.896-.23.694-.015 1.299.48 1.516.926.077.162.035.303.115.47.12.256.335.527.426.824.015.211.024.44.038.661.089.326.155 1.593-.038 1.87-.062.076-.212.147-.273.232-.288.426-.62 1.14-1.047 1.393-.229.144-.579-.006-.893.082-1.561.5-4.657.72-5.97-.035.037-.226.15-.247.232-.394zM801.341 437.16c.08-.209.153-.423.233-.626.346-.573.452-1.555.617-2.296.056-.229-.038-.494-.07-.661-.1-.48.046-1.04.108-1.364.037-.162-.05-.241-.074-.309-.056-.226.07-.996.123-1.208.077-.388-.18-.608-.123-.902.138-.662.37-1.367.54-1.946.028-.382.053-.773.08-1.17.032-.08.168-.141.195-.23.055-.152-.022-.45-.038-.546-.024-.159.053-.312.07-.43.044-.164-.05-.35-.07-.467-.038-.188.08-1.029.159-1.167.046-.117.217-.24.267-.394v-.344c.059-.247.177-.511.309-.702.123-.174.326-.188.508-.312.071-.053.22-.314.265-.388.077-.238.162-.476.238-.705.111-.309.473-.25.814-.347.274-.085.58-.209.85-.274.414.01.829.024 1.243.036.412-.112.876-.626 1.552-.427.462.133.709.6 1.085.815.362.214.932.214 1.285.426.382.25.758.664 1.155.902.226.133.53.177.7.35.15.144.246.362.429.47.126.024.258.05.388.071.2.088.435.285.66.356.583.185 1.868-.215 2.097-.426.117-.15.332-.712.226-1.015-.024-.09-.161-.179-.188-.27-.105-.323.027-.714-.117-.976-.109-.2-.347-.362-.465-.54-.123-.177-.15-.386-.273-.553-.115-.147-.32-.16-.465-.274-.211-.164-.438-.39-.705-.505-.35-.153-.67-.133-1.044-.277-.3-.103-.561-.379-.85-.502-.164-.062-.381.017-.584-.045-.238-.064-.43-.267-.662-.343-.535-.18-1.452-.133-2.128-.118-.211.141-.59.035-.852.118-.159.044-.35.182-.506.229-.318.103-.503.103-.814.197-.365.117-.706.364-1.055.511-.28.062-.565.127-.841.191-.262.118-.506.344-.741.468-.194.103-.403.082-.582.194-.306.2-.626.532-.893.779h-.038c-.04-.35-.077-.697-.12-1.05-.035-.114-.189-.205-.235-.308 0-.11-.024-.212-.033-.32-.189-.424-.77-.536-1.244-.7-.27-.088-.82-.215-1.087 0-.324.27-.074.755-.191 1.249-.133.556-.206 1.287-.35 1.87-.092.405.018.752-.077 1.131-.086.327-.285.65-.382.93v.272c-.068.221-.197.574-.28.78-.024.197-.05.393-.07.585-.083.185-.256.396-.315.584v.397c-.117.503-.161 1.129-.276 1.59v.433c-.039.158-.15.355-.188.505-.07.253 0 .453-.08.662-.046.123-.179.285-.232.388-.024.147-.05.288-.077.438-.047.088-.194.205-.232.311-.044.17-.08.359-.117.544-.074.141-.26.332-.312.497-.117.355 0 .676-.191.94-.18.262-.553.477-.773.697 0 .48.244.426.34.744v.9c.028.07.14.188.16.264.129.479-.077 1.061-.16 1.414-.082.4.019.976.084 1.273v.75c.108.331.493.534.658.81.036.065.086.133.12.206h2.775c.112-.308.112-.711.244-1.017.153-.34.45-.535.623-.823zM748.515 389.475c-.05-.035-.115-.024-.156-.08-.065-.093-.018-.223-.074-.302-.176-.282-.529-.197-.782-.397-.12-.1-.247-.262-.385-.344-.264-.159-1.696-.456-2.055-.356-.073.018-.24.156-.317.156-.1 0-.303-.094-.38-.117-.135-.03-.349.023-.428.04a1.85 1.85 0 0 1-1.161-.12c.064-.367.364-.667.464-1.011v-.5c.053-.226.18-.461.232-.664.015-.235.027-.47.038-.706.059-.243.211-1.058.04-1.322-.04-.244-.082-.077-.155-.191v-.391c-.04-.174-.059-.603-.156-.782-.09-.165-.356-.241-.465-.388-.091-.12-.08-.253-.158-.394-.174-.3-1.461-.888-2.093-.735-.57.123-1.038.3-1.708.347-.065.347-.185.711-.273 1.087-.056.28.132.512.082.709-.055.203-.314.479-.385.694-.12.364-.015.723-.12 1.093-.044.174-.22.276-.268.43-.132.373-.028.831-.037 1.213 0 .162-.286.409-.353.541-.094.185 0 .382-.077.623-.068.206-.22.468-.273.697-.485.085-.591-.291-.932-.42-.976-.4-2.37-.412-3.413-.08-.132.038-.285.01-.388.08-.12.035-.148.058-.194.19-.032.039-.015.013-.038.077.127.147.26.285.394.43.238.167.57.314.732.546.127.191.18.367.312.538.111.109.226.218.347.315.061.1-.015.238.037.355l.386.42c.05.039.534.356.55.362.293.109.572.065.81.232.13.138.256.286.389.43.018.37-.142.608-.233.97-.015.247-.027.493-.04.734-.059.153-.315.303-.306.512 0 .156.2.309.156.511-.045.189-.185.462-.238.659.02.338.03.676.034 1.014-.335 1.179-.335 2.487-.652 3.65.03.292.052.583.08.868-.05.188-.177.476-.241.697v.779c-.038.126-.13.211-.151.397a.094.094 0 0 0-.038.038c-.15.009-.376.026-.464-.038h-.08c0 .343.105.564.159.814.034.214-.139.253-.08.476.037.138.22.288.265.42.105.303-.025 1.547-.074 1.79-.047.25.034.56.074.735.046.31.08.6.12.903.105.332.315.65.43.935.098.244.116.482.31.623.265.206 1.203.894 1.709.782.135-.03.27-.141.388-.197.229-.1.488-.153.62-.356.173-.259.532-1.734.42-2.255-.068-.338-.235-1.234-.111-1.675.043-.162.194-.344.229-.506.065-.273-.2-.411-.117-.702.064-.209.246-.52.311-.7.018-.194.033-.385.042-.585.021-.088.092-.267.115-.353v-.582c.067-.317.102-.711.037-1.128-.015-.077-.077-.262-.037-.391.034-.094.167-.212.196-.315v-.473c.086-.256.023-.603.115-.929.024-.082.132-.23.156-.306.067-.223-.074-.464-.083-.585-.018-.253.144-.6.191-.782.059-.205-.086-.317 0-.546.04-.042.083-.083.123-.115.015-.159.024-.312.038-.467.033-.112.153-.274.191-.391.018-.138.032-.288.035-.427.058-.179.226-.326.276-.505v-.591c.044-.156.182-.341.232-.503.141-.411.168-.967.35-1.325.077-.08.15-.153.241-.233.23-.006.426-.17.609-.114.114.032.326.158.429.194h.776c.273.073.54.223.893.073.174-.07.427-.385.659-.35.046.012.162.115.197.121.379-.015.773-.03 1.16-.038.271.067 1.11.32 1.515.194.031-.01.126-.109.153-.12.13-.01.258-.024.388-.036.08-.038.15-.168.235-.194.206-.01.414-.03.617-.044.297-.103.57-.553.662-.856.217-.729-.224-1.199-.582-1.481zM767.248 389.919c-.117-.109-.152-.33-.264-.427-.218-.082-.42-.155-.623-.235-.174-.123-.23-.446-.391-.585-.473-.42-1.09-.787-1.632-1.131-.446-.277-1.37-.232-1.896-.43-.19-.073-.19-.217-.317-.35-.077-.082-.556-.384-.656-.431-.458-.068-.926-.15-1.396-.236-.326-.111-.679-.393-1.005-.5-.506-.167-2.04.136-2.331.348-.12.102-.12.35-.23.47-.085.088-.252.126-.314.232-.024.147-.05.288-.074.432-.086.212-.273.277-.314.582h-.112c-.17.347-.45.57-.66.856-.457.635-.88 1.358-1.168 2.143v.588c-.05.155-.256.352-.309.502v.315c-.073.235-.205.564-.273.858 0 .353-.021.697-.031 1.055-.038.177-.112.65-.038.888.018.082.132.168.153.238.077.224-.021.438.077.626.08.127.305.212.423.309.123.088.33.411.394.54.086.186-.059.318 0 .512.04.156.288.52.423.618.062.052.146.03.194.082.106.12.142.332.274.43 1.014.734 2.492.954 3.527 1.672.102.14.215.279.312.429.214.22.44.32.7.514.14.091.132.282.231.42.068.095.215.095.312.156.767.453-.282 1.75-.47 2.026-.183.288-.253.614-.456.858-.17.185-.462.253-.664.388-.197.132-.385.356-.585.476-.182.06-.362.12-.541.186-.056.052-.102.108-.15.155h-.239c-.344.091-.764.124-1.246.124h-.69c-.168.04-.26.117-.51.117.032-.582.58-.82.391-1.643-.05-.206-.182-.364-.235-.502-.015-.13-.024-.262-.043-.388-.07-.16-.277-.22-.388-.353-.139-.182-.3-.47-.456-.626-.232-.21-.585-.259-.852-.432-.22-.124-.45-.347-.703-.424-.267-.076-.444-.009-.703 0-.085.065-.176.13-.267.197-.247.338-.297.917-.776 1.011-.083.041-.356-.073-.54-.073a.415.415 0 0 1-.195.112c-.021.367-.188.535-.273.817-.127.405-.101.779-.232 1.208-.12.397-.315.938-.427 1.326-.058.217.06.435.074.55-.021.229-.047.464-.074.696.015.056.139.15.156.191.077.215-.1.332 0 .506.035.085.176.1.232.159.638.767 1.335.64 2.481.388.597-.133 1.058.14 1.432.235.273.03.55.056.814.08.338.114.447.49.697.663.17.106.397.089.547.2.067.08.126.18.2.27.208.218.66.565.967.653.123-.009.255-.02.379-.032.205.032.964.176 1.25.076.287-.094.414-.432.69-.543l.782-.115c.205-.088.402-.318.623-.391.108-.018.232-.03.347-.038.141-.05 1.137-.573 1.202-.673.08-.103.04-.256.108-.385.124-.08.236-.183.356-.268.285-.414.482-.855.78-1.252.234-.318.663-.462.808-.89.12-.339.028-.886-.037-1.17-.111-.512-.02-.947-.196-1.403-.05-.138-.212-.197-.268-.314a7.46 7.46 0 0 1-.035-.47c-.058-.157-.235-.254-.32-.383-.074-.135-.029-.28-.111-.432-.09-.082-.183-.156-.27-.232-.075-.144.06-.168 0-.315-.057-.035-.106-.076-.154-.111-.074-.11-.123-.336-.159-.47-.126-.542.153-1.068-.076-1.441-.233-.374-.594-.556-.897-.861-.241-.245-.409-.565-.697-.777-.147-.111-.361-.114-.494-.232-.07-.053-.064-.18-.123-.235-.182-.159-.52-.15-.738-.273-.138-.074-.255-.268-.388-.353-.156-.094-.32-.077-.502-.159a6.014 6.014 0 0 1-.853-.42c-.247-.153-.47-.394-.7-.55-.099-.032-.2-.073-.308-.114-.156-.118-.227-.353-.388-.47.015-.903.197-1.706.388-2.411.096-.38-.098-.994 0-1.294.123-.39.497-.676.696-1.002.156-.253.194-.57.388-.785.156-.176.524-.2.735-.309.236-.129.653-.543.853-.743h.352c.283.206.077.708.156 1.052.059.256.183.694.344.864.145.086.288.17.432.27.08.107.035.277.151.35.153.092.33.053.47.156.127.142.253.283.385.424.118.082.277.076.391.161.083.062.124.215.188.31l.547.505c.08.105.127.317.23.385.214.161.514.108.775.2.065.02.174.135.233.158.482.162 1.014.083 1.478.033.12-.01.33.085.5.04 1.196-.275 1.967-.308 2.287-1.48.05-.15-.015-.415-.032-.503-.202-.809-.329-.847-.817-1.326zM729.975 389.396c-.141-.074-.264-.036-.385-.115-.114-.07-.232-.253-.347-.315-.344-.161-.832-.258-1.205-.346a21.84 21.84 0 0 0-.426.04c-.159-.04-.412-.12-.588-.161-.253-.012-.512-.018-.767-.035-.277-.074-.803-.212-1.209-.112-.329.07-.702.203-.967.309l-.617.035a8.435 8.435 0 0 1-.27.27h-.277c-.253.08-.494.23-.626.43h-.074c-.376-.588-1.17-1.506-1.743-1.87-.164-.05-.34-.097-.505-.153-.08-.056-.056-.153-.112-.238-.097-.123-.397-.282-.543-.344-.332-.138-.768.03-1.161-.085-.1-.015-.23-.127-.315-.147h-.817c-.103.156-.285.305-.341.506-.268.796.523 1.505.34 2.18-.108.41-.22 1.068-.31 1.512-.03.2.073.376 0 .628-.038.145-.148.303-.189.47v.742c-.12.514-.12 1.167-.273 1.708-.036.129-.153.302-.197.429v.473c-.015.041-.097.159-.115.194v.82c-.096.335-.288.797-.196 1.24-.016.156-.022.315-.04.471 0 .112.062.232.086.312.07.332-.114.65-.197.896-.058.17-.24.5-.15.661-.062.353-.506.383-.626.818-.097.314-.068.9 0 1.214.093.446-.029.832.07 1.24.124.465.356.88.47 1.367.063.262-.023.647-.04.853-.058.652.05 1.237.159 1.675.068.288-.093.717.035.94.027.342.29.436.429.66.38.599.7 1.207 1.434 1.44.236.073.544-.03.815.04.087.021.273.136.39.113.395-.071 1.138-.51 1.282-.853.18-.43 0-.95-.08-1.285-.058-.22.071-.276 0-.473-.061-.164-.232-.323-.276-.5.032-.211.056-.42.077-.629-.032-.144-.203-.379-.15-.585.024-.094.161-.158.114-.347-.015-.085-.126-.17-.156-.232v-.279c-.102-.432-.132-.908-.27-1.32-.05-.147-.191-.288-.232-.435-.065-.232.096-.414.117-.582.015-.141-.093-.417-.035-.62.027-.144.118-.406.15-.547.035-.159-.058-.232-.076-.314.015-.268.027-.541.032-.812a2.274 2.274 0 0 1 0-.935v-.429c.082-.082.164-.164.24-.232.127-.244.233-.53.347-.74.103-.206.053-.474.23-.586.232-.14.479-.167.7-.308.167-.118.246-.368.387-.518.186-.176.53-.235.662-.458.102-.177.29-1.426.117-1.717 0-.464-.031-.864.194-1.088.109-.12.294-.17.385-.311.115-.194.174-.426.347-.55.174-.123.444-.162.544-.35.156-.276.092-.652.273-.9.236-.658 1.69-.525 2.287-.27.032.039.08.077.115.118l.55.08c.061.023.164.158.229.196.147.05.288.1.423.153.356.212.744.559 1.164.703.218.07.411-.003.588-.041h.961c.556-.153.876-.524 1.008-1.09.186-.739-.485-1.477-.85-1.68zM690.338 409.884c.25.13.268.488.815.362.232-.07.464-.138.7-.197.17-.141.176-.344.425-.43.06-.49.118-1.105.233-1.596.105-.482-.191-.814-.035-1.249.324-.932.83-1.77 1.161-2.648.083-.218-.018-.456.074-.709.092-.085.182-.18.276-.264l.071-.582c.126-.17.235-.344.35-.509-.08-.33.161-.409.238-.667.015-.235.021-.465.04-.697.06-.185.253-.285.345-.43.052-.152.099-.308.153-.467.332-.061.81 0 1.049.16.062.06.126.126.194.193.218.094.62.1.817.15.467.13 1.208.056 1.629-.035.646-.141 1.713-.009 2.29.112.352.076.42-.086.729.082.04.115.138.309.158.388.083.259-.173.611-.235.776-.037.28-.074.547-.114.82-.074.25-.227.565-.312.858-.15.559.021 1.103-.267 1.482-.062.085-.156.147-.277.08-.217-.007-.367.005-.5.073.025.38.186.614.271.896.015.133.024.265.035.391.094.277.282.612.394.856.02.173.05.347.076.511.103.288.353.503.506.732.062.188.123.37.188.55.285.414 1.067.673 1.435 1.052.887-.032 1.899-1.25 2.134-1.981.093-.288-.021-.62.086-.94.076-.253.311-.656.382-.935-.015-.089-.023-.18-.035-.268.015-.438.027-.864.035-1.29.235-1.032.197-2.27.502-3.272.23-.059.533-.18.741-.232.335.035.67.076 1.011.117 1.082-.147 2.384-.332 2.637-1.326.092-.376-.156-.623-.235-.855-.176-.53-.359-.832-.776-1.09-.18-.056-.362-.106-.538-.156-.18-.109-.297-.359-.514-.432-.312-.01-.612-.024-.926-.039-.133-.032-.215-.147-.31-.188-.237-.04-.472-.085-.699-.12-.155-.07-.302-.259-.464-.353-.08-.406 0-.902.074-1.285v-1.049c.018-.085.098-.323.12-.426v-.588c.053-.17.253-.341.309-.512.037-.493.077-.984.12-1.481 0-.814-.976-2.078-.394-2.846.156-.3.518-.258.856-.385.37-.135.864-.411 1.043-.737.029-.142.059-.286.083-.433.27-.908-.376-1.46-.814-1.904-.103-.121-.212-.236-.312-.356-.373-.188-.937-.235-1.355-.347-.42-.115-1.058.091-1.396-.115-.318-.02-.709-.438-.894-.623-.258.041-.367.194-.544.312l-.043.035c-.136-.238-.268-.553-.535-.658-.133-.02-.265-.056-.391-.077-.282-.153-.262-.25-.776-.238-.182.141-.57.382-.78.467-.144.065-.267.012-.384.074-.168.103-.306.35-.468.432-.135.074-.29.006-.385.115-.034.117-.076.232-.111.355-.288.541-.48 1.247-.817 1.75-.18.27-.544.543-.732.817-.103.135-.103.326-.2.47-.291.447-.653.902-.929 1.36-.123.204-.027.495-.117.745-.09.223-.53.729-.659.97-.094.17.056.347-.043.505-.133.218-.473.37-.62.588-.032.053-.26.444-.277.462v.314c-.05.12-.273.185-.338.318-.077.132-.043.264-.12.388-.156.253-.403.5-.544.779l-.153.661c-.145.391-.409.73-.664 1.014-.288-.023-.285-.156-.459-.232-.262-.041-.52-.082-.776-.12-.093.079-.182.155-.267.235-.022.452.043.881.229 1.246.165.335.523.585.35 1.173-.094.303-.294.62-.432.885-.038.188-.074.367-.115.552-.065.185-.244.432-.311.623-.015.1-.021.212-.038.315-.074.156-.276.362-.35.538v.506c-.046.15-.176.402-.27.552-.185.297-.638.45-.88.726v7.26c.016.007.016.027.026.033.148.112.365.077.545.153m7.02-14.333c.102-.291-.04-.64.037-.894.13-.423.432-.552.661-.85.153-.208.312-.514.497-.666.126-.092.306-.153.397-.277.1-.138.126-.317.229-.464.132-.188.391-.344.503-.544.114-.206.074-.597.235-.738.105-.103.335-.044.426-.162.22-.279.22-.764.426-1.046.153-.212.459-.347.659-.514.111-.089.062-.312.153-.43.031-.032.126-.044.158-.07a2.55 2.55 0 0 0 .427-.59h.19c.08.399.124 1.02 0 1.528-.046.264-.102.54-.152.808.037.226-.038.888 0 1.017.188.644.235 2.396.08 3.119-.086.4-.053 1.617-.235 1.822v.083c-.315.038-.68.02-.968-.041-.296-.065-.655.038-.855.085-.35.082-.84-.024-1.123-.085-.244-.047-.494.08-.661.12-.574.141-1.197-.235-1.32-.582-.062-.173.18-.453.235-.629z" style="stroke-width:1.50505" transform="matrix(1.57834 0 0 1.57834 -516.633 -524.018)"/></svg>