<svg xmlns="http://www.w3.org/2000/svg" width="2960" height="826.66669" viewBox="0 0 2960 826.66669"><defs><linearGradient id="a" x1="0" x2="1" y1="0" y2="0" gradientTransform="scale(527.41344 -527.41344)rotate(-33.26 -.159 -.805)" gradientUnits="userSpaceOnUse" spreadMethod="pad"><stop offset="0" style="stop-opacity:1;stop-color:#597bbc"/><stop offset="0.7" style="stop-opacity:1;stop-color:#597bbc"/><stop offset="1" style="stop-opacity:1;stop-color:#4b70af"/></linearGradient><linearGradient id="b" x1="0" x2="1" y1="0" y2="0" gradientTransform="scale(293.34253 -293.34253)rotate(54.665 1.566 .598)" gradientUnits="userSpaceOnUse" spreadMethod="pad"><stop offset="0" style="stop-opacity:1;stop-color:#a1274b"/><stop offset="0.67807152" style="stop-opacity:1;stop-color:#a1274b"/><stop offset="1" style="stop-opacity:1;stop-color:#881f3d"/></linearGradient><linearGradient id="c" x1="0" x2="1" y1="0" y2="0" gradientTransform="scale(351.76707 -351.76707)rotate(-21.747 -2.578 -2.514)" gradientUnits="userSpaceOnUse" spreadMethod="pad"><stop offset="0" style="stop-opacity:1;stop-color:#a1274b"/><stop offset="0.58496236" style="stop-opacity:1;stop-color:#a1274b"/><stop offset="1" style="stop-opacity:1;stop-color:#bc3259"/></linearGradient><linearGradient id="d" x1="0" x2="1" y1="0" y2="0" gradientTransform="scale(161.49231 -161.49231)rotate(19.036 2.715 6.296)" gradientUnits="userSpaceOnUse" spreadMethod="pad"><stop offset="0" style="stop-opacity:1;stop-color:#597bbc"/><stop offset="0.5" style="stop-opacity:1;stop-color:#597bbc"/><stop offset="1" style="stop-opacity:1;stop-color:#7196cb"/></linearGradient></defs><path d="M1290.72 41.163v15.129h31.936V37.587h-28.458c-2.257 0-3.477 1.265-3.477 3.576m-13.573 24.417V36.26c0-2.898.594-4.972 1.738-6.177 1.106-1.182 2.974-1.792 5.52-1.792h51.808V65.58zM1279.283 127.52v-9.25h-17.821v-9.28h17.722v-.815c-.297-12.856-7.473-23.28-19.628-28.732.282-.565 4.14-8.1 4.4-8.655 4.926 1.769 9.41 4.346 13.329 7.663 4.125 3.47 6.985 7.26 8.533 11.294l.618 1.63.77-1.562c1.96-3.835 4.964-7.435 8.975-10.675 3.751-3.09 7.777-5.354 11.948-6.787.283.587 3.89 7.83 4.142 8.327-6.07 2.547-10.874 6.062-14.168 10.515-3.508 4.827-4.972 12.155-5.148 16.982l-.038.816h17.829v9.28h-17.905v9.25z" style="fill:#7f8b97;fill-opacity:1;fill-rule:nonzero;stroke:none" transform="matrix(1.33333 0 0 -1.33333 0 826.667)"/><path d="M1322.656 125.348v-23.883h-15.922v-9.097h15.922v-20.78h13.482v53.76zM1403.867 125.348V95.41c0-3.248-.9-5.62-2.66-7.122-1.686-1.418-4.599-2.54-8.694-3.28-3.973-.723-9.814-1.104-17.287-1.104-4.362 0-7.748.167-10.134.533-1.182.19-3.135 1.007-3.135 4.286v25.873h27.483v9.379h-41.048V85.909c0-3.508.496-6.085 1.525-7.71 1.197-1.944 3.378-3.103 6.428-3.507 2.722-.328 6.207-.511 10.424-.511 10.493 0 18.66.625 24.196 1.846 5.43 1.22 9.318 3.172 11.568 5.795l1.334 1.6v-23.41h13.59v32.714h14.456v9.402h-14.457v23.22zM1360.341 63.505V37.822c0-2.493.48-4.255 1.426-5.269.907-.96 2.478-1.47 4.66-1.47h53.492v9.515h-42.528c-2.257 0-3.492 1.19-3.492 3.363v19.544zM1558.13 52.563v16.662h13.23V52.197h-13.23zm-24.287 70.97v-9.387h48.46v-12.65h-48.666V77.003c0-2.784.557-4.805 1.655-5.986 1.105-1.198 3.088-1.792 5.91-1.792h3.675V52.197h-21.443v-9.448h82.63v9.448h-21.458v17.028h12.406v9.394h-46.545c-1.221 0-3.28.458-3.28 3.576V92.1h48.681v31.432zM1668.15 125.348V60.013h13.543v33.743h14.488v9.417h-14.488v22.175zM1627.758 124.09v-7.154c0-9.577-1.548-17.462-4.568-23.448-3.065-5.994-8.243-11.057-15.342-15.106.32-.503 4.941-7.847 5.338-8.396 4.682 2.32 9.06 5.53 12.902 9.532 4.087 4.248 6.756 8.426 7.976 12.445l.656 2.211.778-2.15c1.418-3.92 4.27-8.045 8.48-12.3 3.965-3.98 8.006-6.787 11.971-8.403.336.534 4.652 7.595 4.987 8.121-12.87 7.473-19.399 20.131-19.399 37.708v6.94zM1625.371 63.505V37.502c0-2.402.473-4.102 1.403-5.002q1.442-1.419 4.896-1.418h53.485v9.516h-42.764c-2.227 0-3.469 1.19-3.469 3.363v19.544zM1107.328 97.133c0 9.928 6.94 18.011 15.503 18.011 8.54 0 15.517-8.083 15.517-18.01 0-9.952-6.977-18.058-15.517-18.058-8.564 0-15.503 8.106-15.503 18.057m-13.726 0c0-13.329 9.021-24.935 21.931-28.275l.282-.06.298-.375V57.648h-35.299v-9.425h84.147v9.425h-35.389v11.08l.556.13c12.918 3.34 21.931 14.946 21.931 28.275 0 16.097-13.116 29.206-29.228 29.206-16.098 0-29.229-13.109-29.229-29.206M1203.486 125.546v-.793c0-13.04-9.51-21.824-28.269-26.14.283-.68 3.241-8.48 3.432-8.991 7.298 1.335 13.902 3.6 19.606 6.787 5.84 3.279 9.79 7.054 11.834 11.286l.595 1.334.755-1.32c2.326-4.208 6.688-8.12 12.918-11.605 6.016-3.378 12.208-5.544 18.4-6.482.214.588 2.959 8.16 3.226 8.86-8.991 1.984-16.037 5.17-20.917 9.449-5.086 4.492-7.68 10.112-7.68 16.73v.885z" style="fill:#7f8b97;fill-opacity:1;fill-rule:nonzero;stroke:none" transform="matrix(1.33333 0 0 -1.33333 0 826.667)"/><path d="M1203.699 93.885V80.967h-35.268v-9.188h84.147v9.188h-35.397v12.918zM1196.41 46.173c0 6.351 6.298 11.498 14.037 11.498 7.725 0 14.04-5.146 14.04-11.498 0-6.353-6.315-11.493-14.04-11.493-7.739 0-14.038 5.14-14.038 11.492m-13.085 0c0-11.3 12.178-20.52 27.123-20.52s27.11 9.22 27.11 20.52c0 11.325-12.164 20.536-27.11 20.536s-27.123-9.212-27.123-20.536M1500.642 125.348V70.422c0-6.268-4.064-9.99-12.117-11.072-4.377-.633-13.81-.954-28.016-.954h-23.486v-9.402h23.608c10.554 0 17.356.153 20.223.412 9.41.816 15.625 2.89 18.438 6.207l1.35 1.563V29.534h13.566v95.814z" style="fill:#7f8b97;fill-opacity:1;fill-rule:nonzero;stroke:none" transform="matrix(1.33333 0 0 -1.33333 0 826.667)"/><path d="M1451.488 98.483c0 8.716 6.07 15.808 13.52 15.808s13.497-7.092 13.497-15.808c0-8.693-6.047-15.785-13.497-15.785s-13.52 7.092-13.52 15.785m-12.704 0c0-14.557 11.743-26.422 26.224-26.422 14.443 0 26.209 11.865 26.209 26.422 0 14.587-11.766 26.445-26.209 26.445-14.481 0-26.224-11.858-26.224-26.445M1734.926 41.14v8.266h31.913V37.579h-28.443c-2.25 0-3.47 1.258-3.47 3.56m31.913 27.148V58.7h-31.913v9.586h-13.573V36.145c0-2.913.541-5.01 1.632-6.207 1.06-1.174 2.905-1.776 5.513-1.776h51.822v40.125zM1717.083 100.298c0 7.831 5.269 14.26 11.72 14.26 6.513 0 11.736-6.429 11.736-14.26 0-7.885-5.223-14.267-11.736-14.267-6.451 0-11.72 6.382-11.72 14.267m-13.52 0c0-14.069 11.332-25.492 25.24-25.492 12.338 0 22.8 8.884 24.882 21.115l.076.641h13.078V74.166h13.482v51.044h-13.482v-19.246h-13.421l-.137.564c-2.837 11.324-12.902 19.209-24.478 19.209-13.908 0-25.24-11.408-25.24-25.439M1857.353 59.807h13.459v65.121h-13.459zM1811.25 62.857V37.075c0-4.377 1.951-6.436 6.191-6.436h56.3v9.548h-45.48c-2.249 0-3.477 1.174-3.477 3.355v19.315zM1797.41 123.457v-9.41h16.95v-4.728c0-14.381-6.878-25.186-20.413-32.11.336-.572 4.842-7.984 5.162-8.518 4.866 1.983 9.395 4.888 13.49 8.723 4.301 3.989 7.122 8.038 8.487 12.072l.648 1.898.786-1.845c1.624-3.828 4.598-7.808 8.921-11.774 4.088-3.774 8.152-6.42 12.148-8.037.335.602 4.857 8.28 4.956 8.48-6.634 3.179-11.743 7.61-15.213 13.222-3.248 5.3-4.895 11.285-4.895 17.79v4.827h17.081v9.41zM1881.434 68.652h84.124v9.189h-84.124zM1913.286 99.505c0 4.804 4.574 8.685 10.217 8.685 5.667 0 10.227-3.881 10.227-8.685 0-4.774-4.56-8.685-10.226-8.685-5.643 0-10.218 3.91-10.218 8.685m3.408 28.984v-8.632h-26.24v-8.77h16.152l-1.281-1.318c-2.981-2.997-4.537-6.52-4.537-10.264 0-9.463 10.172-17.18 22.716-17.18 12.529 0 22.747 7.717 22.747 17.18 0 3.744-1.586 7.267-4.56 10.264l-1.281 1.319h15.998v8.769h-26.125v8.632zM2040.432 124.928V95.99h-8.548v28.94h-11.408V30.234h11.408V86.55h8.548V29.091h11.66v95.837zM1971.582 123.342v-9.379h14.801v-4.21c0-12.65-1.838-22.723-3.912-29.89-2.463-7.894-6.832-15.016-13.024-21.238.42-.458 6.878-6.55 7.23-6.939 3.712 3.126 7.045 7.023 9.89 11.697 3.026 4.964 5.741 9.883 6.58 14.626l.03 1.067-.16-.724.084-.305c1.014-4.629 3.836-9.57 6.924-14.725 2.86-4.796 5.872-8.426 8.884-10.897.495.534 6.71 6.551 7.16 7.04-5.658 5.542-9.806 12.405-12.308 20.488-2.424 7.877-4.43 17.867-4.43 29.8v4.21h14.68v9.38zM2076.6 63.063V37.388q0-3.773 1.418-5.246c.915-1 2.5-1.502 4.705-1.502h53.455v9.547h-42.527c-2.235 0-3.493 1.174-3.493 3.355v19.52zM2119.196 124.928v-29.96c0-3.234-.9-5.598-2.67-7.1-1.676-1.433-4.605-2.547-8.692-3.309-3.965-.732-9.821-1.113-17.302-1.113-4.34 0-7.77.19-10.12.541-1.165.191-3.156 1.022-3.156 4.301v25.865h27.505v9.41h-41.078V85.481c0-3.492.534-6.1 1.555-7.716 1.19-1.93 3.356-3.112 6.429-3.508 2.707-.35 6.23-.496 10.408-.496 10.524 0 18.668.603 24.21 1.83 5.438 1.22 9.327 3.172 11.554 5.811l1.357 1.586V59.593h13.573v32.698h14.466v9.417h-14.466v23.22zM1923.511 35.558c-7.61 0-13.787 4.339-13.787 9.63 0 5.316 6.177 9.64 13.787 9.64 7.618 0 13.787-4.324 13.787-9.64 0-5.291-6.169-9.63-13.787-9.63m-.01 29.167c-15.15 0-27.474-8.761-27.474-19.536 0-10.752 12.323-19.537 27.474-19.537s27.475 8.785 27.475 19.537c0 10.775-12.323 19.536-27.475 19.536" style="fill:#7f8b97;fill-opacity:1;fill-rule:nonzero;stroke:none" transform="matrix(1.33333 0 0 -1.33333 0 826.667)"/><path d="M532.498 550.467c24.685-6.009-54.048-50.519-200.198-110.989-151.418-62.704-206.429-105.727-195.92-185.985 9.791-75.552 195.059-214.832 307.335-237.212 10.219-1.983 33.743-2.189 54.408 11.705 25.107 17.126 32.195 28.416 36.07 39.832-1.015-2.114-5.834-7.442-28.262-3.436C368.932 88.974 237.515 237 241.634 289.996c2.257 28.717 13.07 45.326 72.632 76.865 69.59 36.816 137.982 69.994 193.915 101.205 50.931 28.413 70.001 54.301 71.71 65.03 2.536 15.505-22.578 17.736-37.244 17.735-5.926 0-10.149-.364-10.149-.364m1.695-482.649c.232.481.266.796.266.796a62 62 0 0 0-.266-.796" style="fill:url(#a);stroke:none" transform="matrix(1.33333 0 0 -1.33333 0 826.667)"/><path d="m117.224 119.82 78.763 377.284h-69.734c-16.189 0-29.77-11.073-33.667-26.034L13.937 93.633H83.71c16.143 0 29.694 11.18 33.514 26.186" style="fill:#597bbc;fill-opacity:1;fill-rule:nonzero;stroke:none" transform="matrix(1.33333 0 0 -1.33333 0 826.667)"/><path d="M308.249 304.774c54.576-76.041 92.505-123.897 117.943-182.011 11.752-26.377 16.899-38.158 9.021-48.849 27.513 0 64.031-16.395 90.934-16.395 2.181 3.546 6.863 6.954 8.312 11.095 3.157 8.465.975 22.129-12.545 50.366-27.726 58.182-96.126 140.149-172.098 224.989z" style="fill:url(#b);stroke:none" transform="matrix(1.33333 0 0 -1.33333 0 826.667)"/><path d="M281.218 502.281c-46.485-46.462-26.187-120.946 27.031-197.507l41.567 39.195c-19.811 23.525-84.994 88.052-19.888 132.584 47.438 32.409 190.561 73.875 236.497 67.165 8.419-1.525 12.872-4.873 13.466-10.622 0 0 2.371 12.086-.404 24.859-3.782 17.691-17.379 28.824-34.246 30.197a216 216 0 0 1-16.633.618c-87.251.003-208.071-47.14-247.39-86.489" style="fill:url(#c);stroke:none" transform="matrix(1.33333 0 0 -1.33333 0 826.667)"/><path d="M311.033 74.044c46.096-28.222 93.899-49.963 132.682-57.763 10.219-1.983 33.743-2.189 54.408 11.705 25.109 17.127 32.197 28.418 36.071 39.835-1.012-2.113-5.824-7.447-28.263-3.439-42.092 7.55-83.597 26.743-120.908 51.144zm223.161-6.223c.23.48.265.793.265.793a74 74 0 0 0-.265-.793" style="fill:url(#d);stroke:none" transform="matrix(1.33333 0 0 -1.33333 0 826.667)"/><path d="m1391.926 186.351 32.622 157.732h-29.892l-14.237-68.08h-80.181l14.145 68.08h-29.884l-35.672-171.366h16.257c8.35 0 14.862 5.513 16.63 13.634l13.323 63.672h80.128l-16.128-77.306h16.174c8.38 0 14.839 5.513 16.715 13.634M1621.345 240.873l41.422 73.105h.404l10.569-73.105zm65.35 92.024c-1.746 9.64-8.006 11.415-15.472 11.415h-18.377l-102.944-171.786h20.444c7.877 0 13.139 2.463 16.898 8.693l21.328 36.87h68.401l6.901-45.563h30.616zM1850.635 186.405l2.37 11.842h-87.22l30.374 146.066h-30.144l-35.816-172.145h99.748c9.7 0 18.713 4.995 20.688 14.237M1995.374 331.54l2.555 11.682h-141.323l-5.27-25.903h56.559l-30.098-144.793h30.075l29.99 144.793h37.068c9.578 0 18.553 4.97 20.444 14.22M1573 331.898l2.524 12.185H1451.03l-35.603-171.366h110.287c9.082.297 16.21 3.553 18.278 13.634l2.272 12.353h-95.974l10.295 50.138h72.609c9.029 0 16.586 2.44 18.683 13.092l2.363 11.271h-88.333l9.364 44.944h77.582c10.004 0 17.896 2.944 20.146 13.75M2121.636 186.351l32.744 157.732h-30.014l-14.191-68.08h-80.136l14.138 68.08h-30.03l-35.458-171.366h16.189c8.28 0 14.8 5.513 16.6 13.634l13.262 63.672h80.12l-15.998-77.306h16.257c8.16 0 14.656 5.513 16.517 13.634" style="fill:#a1274b;fill-opacity:1;fill-rule:nonzero;stroke:none" transform="matrix(1.33333 0 0 -1.33333 0 826.667)"/><path d="M665.769 330.716h50.374c28.702 0 42.832 9.173 42.832 30.16 0 19.886-20.657 21.388-35.954 21.388h-46.622zm-22.93-109.654h55.735c24.843 0 48.55 5.338 48.55 34.742 0 25.263-22.944 27.146-41.253 27.146h-50.053zm-25.232 217.013h127.238c73.708 0 85.169-29.793 85.169-59.6 0-35.94-19.102-60.387-50.473-67.242v-.8c24.127-5.682 38.615-29.016 38.615-53.455 0-55.414-44.258-91.33-124.15-91.696H560.675zM1091.49 218.012c51.205 0 77.574 61.141 77.574 104.278 0 40.514-14.51 63.063-52.76 63.063-54.988 0-79.466-60.37-79.466-105.46 0-35.154 16.853-61.88 54.652-61.88m27.147 225.79c47.331 0 121.435-17.578 121.435-115.374 0-95.89-56.505-168.88-154.354-168.88-76.003 0-119.972 44.7-119.972 120.71 0 90.552 58.892 163.543 152.891 163.543M910.996 196.547l50.328 241.498h-39.225c-19.133-.024-34.018-12.56-38.326-31.258l-50.381-241.504h39.195c19.155 0 34.1 12.466 38.409 31.263" style="fill:#597bbc;fill-opacity:1;fill-rule:nonzero;stroke:none" transform="matrix(1.33333 0 0 -1.33333 0 826.667)"/><path d="M2201.785 204.546c0-15.4-12.485-27.886-27.886-27.886s-27.886 12.485-27.886 27.886 12.485 27.886 27.886 27.886 27.886-12.485 27.886-27.886z" style="fill:none;stroke:#a1274b;stroke-width:8;stroke-linecap:butt;stroke-linejoin:miter;stroke-miterlimit:10;stroke-dasharray:none;stroke-opacity:1" transform="matrix(1.33333 0 0 -1.33333 0 826.667)"/><path d="M2175.559 206.686q.914.241 1.66.764.698.523 1.176 1.333.482.805.484 1.941-.002 2.228-1.507 3.235a5.9 5.9 0 0 1-3.342 1.002h-7.688v-8.517h7.383a7.2 7.2 0 0 1 1.834.242m4.585-17.755-8.563 12.317h-5.24v-12.274h-5.46v31.187h12.886q2.314 0 4.302-.679 1.989-.676 3.472-1.944a9.1 9.1 0 0 0 2.293-2.968c.569-1.166.853-2.445.853-3.846q0-3.056-1.902-5.371-1.9-2.316-4.823-3.405l8.954-13.017z" style="fill:#982747;fill-opacity:1;fill-rule:nonzero;stroke:none" transform="matrix(1.33333 0 0 -1.33333 0 826.667)"/></svg>