<svg xmlns="http://www.w3.org/2000/svg" xml:space="preserve" width="1370.0137" height="300" viewBox="0 0 1370.0137 299.99999"><path d="M274.375 600.538h3.181v2.892h-3.181v-2.892zm4.539 12.404c0 .751-.28 1.379-.838 1.878-.559.5-1.262.751-2.11.751-.848 0-1.552-.25-2.112-.75a2.42 2.42 0 0 1-.836-1.879c0-.753.28-1.377.836-1.88.56-.5 1.264-.75 2.112-.75.848 0 1.551.25 2.11.75.558.503.838 1.127.838 1.88m-2.948 5.233c1.58 0 2.948-.518 4.105-1.55 1.157-1.03 1.735-2.26 1.735-3.683 0-1.426-.578-2.656-1.735-3.688-1.157-1.029-2.525-1.546-4.105-1.546-1.58 0-2.948.517-4.104 1.546-1.157 1.032-1.735 2.262-1.735 3.688 0 1.424.578 2.654 1.735 3.683 1.156 1.032 2.524 1.55 4.104 1.55m-6.36-20.238v2.601h1.88v2.89h-5.636v2.603h20.235v-2.603h-5.638v-2.89h1.88v-8.96h-2.891v6.359h-9.83zM310.656 609.791h-3.76v-11.276h-2.89v19.66h2.89v-5.783h3.76v-2.601zm-12.49 1.502c0 1.021-.304 1.875-.913 2.559-.606.68-1.36 1.027-2.267 1.027-.907 0-1.662-.347-2.272-1.027-.606-.684-.908-1.538-.908-2.559 0-1.02.302-1.874.908-2.558.61-.685 1.365-1.026 2.272-1.026.907 0 1.661.341 2.267 1.026.61.684.913 1.537.913 2.558m-3.18 6.188c1.639 0 3.06-.615 4.263-1.838 1.204-1.224 1.805-2.672 1.805-4.35 0-1.676-.601-3.127-1.805-4.351-1.204-1.224-2.624-1.837-4.263-1.837-1.64 0-3.063.613-4.267 1.837-1.203 1.224-1.805 2.675-1.805 4.351 0 1.678.602 3.126 1.805 4.35 1.204 1.223 2.628 1.838 4.267 1.838M332.92 603.43h-2.891v7.516h-4.047v2.602h4.047v4.629h2.891V603.43zm-2.891-6.677c0 .886-.28 1.634-.84 2.239a2.71 2.71 0 0 1-2.08.911 2.712 2.712 0 0 1-2.081-.911c-.56-.605-.84-1.353-.84-2.239 0-.886.28-1.635.84-2.241.56-.61 1.253-.91 2.08-.91.828 0 1.522.3 2.081.91.56.606.84 1.355.84 2.241m-2.92 5.754c1.579 0 2.943-.573 4.092-1.722 1.145-1.15 1.72-2.491 1.72-4.032 0-1.54-.575-2.886-1.72-4.035-1.149-1.146-2.513-1.718-4.092-1.718-1.58 0-2.944.572-4.093 1.718-1.144 1.15-1.72 2.494-1.72 4.035 0 1.54.576 2.883 1.72 4.032 1.149 1.149 2.513 1.722 4.093 1.722m-5.03 12.486a6.712 6.712 0 0 1 1.401-3.902c.88-1.156 2.126-2.052 3.743-2.69l-1.708-2.107c-2.231.923-3.86 2.291-4.883 4.101-1.021-1.81-2.65-3.178-4.883-4.101l-1.708 2.108c1.619.637 2.867 1.533 3.745 2.689a6.753 6.753 0 0 1 1.401 3.902h-3.903v2.604h10.698v-2.604h-3.903zM357.898 603.426h-2.803v7.23h-1.906v-7.23h-2.806v14.743h2.806v-4.914h1.906v4.914h2.803v-14.743zm-12.72-4.625v2.6h12.72v-9.827h-2.89v7.227h-9.83zm-.289 20.09v-2.166h3.038v-2.602h-3.009c.117-1.192.55-2.352 1.3-3.468a8.782 8.782 0 0 1 2.923-2.718l-1.88-1.939c-1.83 1.198-3.101 2.536-3.813 4.022-.715-1.486-1.989-2.824-3.82-4.022l-1.876 1.939a8.775 8.775 0 0 1 2.918 2.718c.752 1.116 1.185 2.276 1.3 3.468h-3.004v2.602H342v2.166h2.89zM375.392 610.657h3.47v2.604h-3.525c.113-.467.17-.927.17-1.39 0-.403-.038-.81-.115-1.214m-6.071-19.08v8.961h2.893v-6.358h9.83v-2.602h-12.723zm3.295 20.295c0 1.038-.305 1.899-.907 2.571-.612.675-1.365 1.015-2.274 1.015-.905 0-1.66-.34-2.267-1.015-.606-.672-.909-1.533-.909-2.571 0-1.039.303-1.9.91-2.574.607-.674 1.36-1.01 2.266-1.01.91 0 1.662.336 2.274 1.01.602.675.907 1.535.907 2.574m9.137-11.334h-2.891v7.516h-4.685c-1.233-1.578-2.81-2.368-4.742-2.368-1.635 0-3.056.611-4.26 1.836-1.205 1.222-1.806 2.673-1.806 4.35 0 1.675.601 3.127 1.805 4.35 1.205 1.225 2.626 1.838 4.261 1.838 1.836 0 3.366-.735 4.6-2.199h4.827v2.314h2.891v-17.637zM407.939 604.861h-8.673v-7.808h-2.89v7.808h-8.674v2.603h13.008c.637 2.6.984 5.105 1.042 7.514H391.17v2.602h13.59c0-3.775-.365-7.15-1.1-10.116h4.28v-2.603zM423.692 617.893v-2.314c0-1.558.628-2.976 1.88-4.25 1.197-1.231 2.794-2.178 4.799-2.831l-1.5-2.17c-1.276.388-2.537 1.003-3.788 1.854-1.313.885-2.255 1.798-2.834 2.744-.579-.946-1.508-1.85-2.793-2.718-1.278-.868-2.554-1.492-3.829-1.88l-1.503 2.17c2.003.653 3.618 1.608 4.845 2.862 1.223 1.253 1.836 2.661 1.836 4.219v2.314h2.887zm8.676-17.925H412.13v2.601h8.675v4.337h2.887v-4.337h8.676v-2.601zM271.284 587.094h1.575l-1.905-3.06 1.905-3.755h-1.614l-1.642 3.489v-3.49h-1.422v6.816h1.422v-2.92l1.68 2.92zM275.278 581.03c.248 0 .411.111.495.339.081.23.124.706.124 1.43 0 .557-.032.929-.097 1.118-.082.254-.256.378-.522.378-.265 0-.44-.124-.522-.378-.063-.19-.097-.561-.097-1.118 0-.724.043-1.2.124-1.43.082-.228.249-.34.495-.34m0-.843c-.791 0-1.331.235-1.614.706-.22.366-.333.975-.333 1.832 0 .788.106 1.355.315 1.7.288.477.834.716 1.632.716.8 0 1.345-.24 1.635-.717.208-.344.312-.911.312-1.7 0-.856-.11-1.465-.332-1.83-.284-.472-.823-.707-1.615-.707M278.175 585.047h1.263v-.616c.219.47.635.709 1.254.709v-1.189c-.517.03-.86-.077-1.03-.329-.106-.154-.16-.4-.16-.747v-2.596h-1.327v4.768zM282.535 583.201h1.22c0 .349-.022.591-.067.728-.09.255-.271.383-.548.383-.267 0-.442-.135-.531-.402-.048-.148-.074-.385-.074-.709m2.546-.75h-2.546c0-.948.2-1.424.603-1.424.376 0 .563.285.563.855h1.348c-.018-.558-.2-.982-.544-1.268-.342-.286-.8-.428-1.372-.428-.791 0-1.33.236-1.611.706-.22.364-.332.975-.332 1.83 0 .788.105 1.354.312 1.699.29.478.835.719 1.635.719.823 0 1.38-.258 1.66-.774.216-.385.312-1.023.284-1.916M288.345 582.575c-.435-.017-.708-.053-.815-.102-.217-.1-.327-.339-.327-.72 0-.503.165-.754.489-.754.33 0 .535.195.615.595.026.12.038.447.038.981m1.313.968v-2.377c0-.14.017-.433.054-.887h-1.236l-.057.633h-.019c-.277-.484-.692-.726-1.246-.726-.842 0-1.262.504-1.262 1.52 0 .7.255 1.17.764 1.404.333.155.899.23 1.69.218v.364c0 .24-.031.405-.088.5-.08.131-.228.197-.446.197-.207 0-.349-.072-.423-.216-.052-.106-.075-.275-.075-.508H286c0 .984.582 1.475 1.744 1.475.771 0 1.301-.158 1.592-.472.212-.233.322-.606.322-1.125M292.905 580.279h1.425v6.815h-1.425v-6.815zM296.793 585.047v-.485c.24.385.62.578 1.13.578.337 0 .62-.091.854-.28.228-.182.345-.435.345-.756v-3.825h-1.329v3.278c0 .5-.166.755-.5.755-.333 0-.5-.254-.5-.755v-3.278h-1.33v4.768h1.33zM299.91 581.81h1.313c-.014-.261.01-.451.065-.573.07-.15.231-.223.48-.223.325 0 .485.163.485.489 0 .27-.199.506-.602.708l-1.134.545c-.406.263-.607.613-.607 1.045 0 .474.205.825.616 1.058.331.186.753.28 1.263.28.497 0 .899-.116 1.2-.35.34-.257.49-.633.454-1.118h-1.313c0 .396-.084.627-.254.692l-.215.026c-.298 0-.45-.17-.45-.508 0-.195.202-.388.61-.576.638-.294 1.018-.485 1.139-.574.403-.29.608-.654.608-1.095 0-.42-.163-.766-.488-1.039-.326-.275-.76-.413-1.302-.413-.647 0-1.112.106-1.406.313-.344.25-.501.691-.462 1.313M303.854 584.216v.831h.532v.752l1.326.592v-1.344h.698v-.83h-.698v-2.56c0-.219.018-.366.05-.437.057-.106.183-.16.382-.16h.237v-.8a7.516 7.516 0 0 0-.69-.044c-.496 0-.861.14-1.086.417a1.016 1.016 0 0 0-.219.644v2.94h-.532zM307.101 586.047h1.328v1.047h-1.328v-1.047zm0-5.768h1.328v4.77h-1.328v-4.77zM309.096 584.216v.831h.533v.752l1.328.592v-1.344h.699v-.83h-.7v-2.56c0-.219.017-.366.046-.437.061-.106.189-.16.387-.16h.236v-.8a7.617 7.617 0 0 0-.69-.044c-.497 0-.862.14-1.088.417a1.02 1.02 0 0 0-.218.644v2.94h-.533zM314.568 580.279v.48c-.243-.384-.62-.573-1.131-.573-.339 0-.616.09-.84.273a.917.917 0 0 0-.358.763v3.825h1.328v-3.312c0-.492.164-.736.5-.736.332 0 .5.244.5.736v3.312h1.326v-3.825c0-.284.015-.599.05-.943h-1.375zM316.439 584.216v.831h.532v.752l1.327.592v-1.344h.695v-.83h-.695v-2.56c0-.219.016-.366.048-.437.057-.106.183-.16.378-.16h.243v-.8a7.634 7.634 0 0 0-.692-.044c-.498 0-.861.14-1.086.417a1.01 1.01 0 0 0-.218.644v2.94h-.532zM320.795 583.201h1.217c0 .349-.02.591-.063.728-.09.255-.275.383-.55.383-.264 0-.442-.135-.53-.402-.05-.148-.074-.385-.074-.709m2.547-.75h-2.547c0-.948.2-1.424.601-1.424.38 0 .567.285.567.855h1.346c-.02-.558-.2-.982-.542-1.268-.343-.286-.804-.428-1.374-.428-.793 0-1.331.236-1.613.706-.218.364-.33.975-.33 1.83 0 .788.104 1.354.31 1.699.291.478.835.719 1.633.719.83 0 1.384-.258 1.666-.774.212-.385.308-1.023.283-1.916M328.207 581.03c.248 0 .41.111.495.339.082.23.124.706.124 1.43 0 .557-.034.929-.096 1.118-.082.254-.258.378-.523.378-.266 0-.44-.124-.523-.378-.063-.19-.097-.561-.097-1.118 0-.724.043-1.2.125-1.43.083-.228.246-.34.495-.34m0-.843c-.796 0-1.333.235-1.617.706-.217.366-.333.975-.333 1.832 0 .788.109 1.355.318 1.7.287.477.832.716 1.632.716.8 0 1.345-.24 1.636-.717.205-.344.312-.911.312-1.7 0-.856-.114-1.465-.332-1.83-.285-.472-.825-.707-1.616-.707M333.163 587.12v-.855c-.258.018-.435-.022-.522-.121-.09-.102-.13-.274-.13-.525v-.572h.623v-.83h-.623v-3.938h-1.329v3.937h-.594v.831h.594c-.008.616 0 .998.025 1.15.045.326.166.563.363.71.226.156.598.236 1.116.236.105 0 .263-.011.477-.023M338.168 580.169c-1.043 0-1.729.363-2.055 1.095-.197.43-.292 1.24-.292 2.422 0 1.187.095 2 .292 2.433.326.723 1.016 1.083 2.063 1.083 1.385 0 2.044-.754 1.988-2.263h-1.407c0 .455-.045.775-.132.964a.466.466 0 0 1-.457.285c-.377 0-.631-.199-.758-.596-.1-.327-.153-.964-.153-1.906 0-.944.053-1.58.15-1.906.13-.397.385-.593.759-.593.284 0 .473.16.569.488.037.146.066.442.086.895h1.406c0-.88-.177-1.507-.53-1.882-.32-.347-.83-.519-1.529-.519M344.721 580.279h-1.326v3.278c0 .502-.17.755-.502.755-.334 0-.5-.253-.5-.755v-3.278h-1.329v6.815h1.33v-2.532h.018c.24.385.611.578 1.122.578.332 0 .613-.093.843-.277.23-.188.344-.442.344-.762v-3.822zM345.89 586.047h1.327v1.047h-1.328v-1.047zm0-5.768h1.327v4.77h-1.328v-4.77zM348.512 580.279h1.327v6.815h-1.327v-6.815zM352.819 580.999c.264 0 .429.227.496.688.025.157.039.494.039 1.012 0 .59-.02.977-.067 1.16-.067.303-.222.453-.468.453-.256 0-.418-.15-.494-.454-.045-.182-.066-.57-.066-1.159 0-.523.012-.863.035-1.022.078-.452.25-.678.525-.678m1.863-.72h-1.266v.526c-.221-.412-.597-.619-1.13-.619-.604 0-.995.293-1.187.885-.101.315-.152.856-.152 1.626 0 .746.05 1.274.15 1.584.182.573.569.859 1.155.859.477 0 .836-.182 1.084-.55h.018v2.504h1.328v-6.815zM360.186 580.169c-1.045 0-1.73.363-2.058 1.095-.195.43-.29 1.24-.29 2.422 0 1.187.095 2 .29 2.433.329.723 1.015 1.083 2.066 1.083 1.38 0 2.04-.754 1.986-2.263h-1.406c0 .455-.047.775-.132.964a.474.474 0 0 1-.456.285c-.38 0-.635-.199-.76-.596-.102-.327-.152-.964-.152-1.906 0-.944.05-1.58.151-1.906.126-.397.38-.593.758-.593.285 0 .472.16.568.488.038.146.066.442.087.895h1.407c0-.88-.178-1.507-.53-1.882-.32-.347-.832-.519-1.529-.519M365.395 582.575c-.437-.017-.709-.053-.815-.102-.22-.1-.329-.339-.329-.72 0-.503.166-.754.487-.754.333 0 .538.195.62.595.022.12.037.447.037.981m1.313.968v-2.377c0-.14.015-.433.052-.887h-1.234l-.06.633h-.02c-.274-.484-.69-.726-1.241-.726-.844 0-1.266.504-1.266 1.52 0 .7.255 1.17.765 1.404.334.155.894.23 1.691.218v.364c0 .24-.03.405-.087.5-.082.131-.228.197-.451.197-.204 0-.348-.072-.422-.216-.049-.106-.075-.275-.075-.508h-1.31c0 .984.58 1.475 1.743 1.475.77 0 1.296-.158 1.593-.472.214-.233.322-.606.322-1.125M367.796 585.047h1.266v-.616c.219.47.634.709 1.253.709v-1.189c-.515.03-.86-.077-1.031-.329-.105-.154-.157-.4-.157-.747v-2.596h-1.33v4.768zM372.156 583.201h1.22c0 .349-.022.591-.068.728-.086.255-.27.383-.546.383-.265 0-.441-.135-.526-.402-.056-.148-.08-.385-.08-.709m2.548-.75h-2.548c0-.948.202-1.424.604-1.424.376 0 .565.285.565.855h1.348c-.022-.558-.205-.982-.543-1.268-.343-.286-.801-.428-1.372-.428-.793 0-1.332.236-1.613.706-.222.364-.333.975-.333 1.83 0 .788.105 1.354.311 1.699.294.478.838.719 1.637.719.824 0 1.378-.258 1.663-.774.211-.385.309-1.023.28-1.916M380.061 582.575c-.435-.017-.709-.053-.812-.102-.221-.1-.329-.339-.329-.72 0-.503.165-.754.486-.754.33 0 .538.195.618.595.025.12.037.447.037.981m1.314.968v-2.377c0-.14.016-.433.054-.887h-1.236l-.059.633h-.02c-.274-.484-.688-.726-1.243-.726-.844 0-1.263.504-1.263 1.52 0 .7.255 1.17.763 1.404.333.155.897.23 1.69.218v.364c0 .24-.03.405-.085.5-.084.131-.231.197-.448.197-.208 0-.348-.072-.422-.216-.052-.106-.078-.275-.078-.508h-1.31c0 .984.58 1.475 1.744 1.475.767 0 1.3-.158 1.593-.472.212-.233.32-.606.32-1.125M383.793 585.047v-.485c.24.385.618.578 1.133.578.337 0 .618-.091.85-.28.231-.182.346-.435.346-.756v-3.825h-1.329v3.278c0 .5-.164.755-.499.755-.335 0-.5-.254-.5-.755v-3.278h-1.332v4.768h1.331zM388.978 580.999c.262 0 .425.227.495.688.026.157.036.494.036 1.012 0 .59-.02.977-.064 1.16-.067.303-.225.453-.467.453-.257 0-.421-.15-.496-.454-.043-.182-.068-.57-.068-1.159 0-.523.017-.863.04-1.022.076-.452.247-.678.524-.678m1.861-.72h-1.267v.526c-.223-.412-.598-.619-1.13-.619-.602 0-1 .293-1.188.885-.1.315-.15.856-.15 1.626 0 .746.05 1.274.15 1.584.182.573.567.859 1.152.859.48 0 .84-.182 1.086-.55h.017v2.504h1.33v-6.815zM397.85 580.279h-3.795v6.815h3.715v-1.049h-2.293v-1.686h2.112v-1.047h-2.112v-1.985h2.372v-1.048zM400.505 580.999c.262 0 .425.227.496.688.024.157.037.494.037 1.012 0 .59-.02.977-.07 1.16-.065.303-.22.453-.463.453-.258 0-.422-.15-.498-.454-.04-.182-.064-.57-.064-1.159 0-.523.013-.863.039-1.022.074-.452.246-.678.523-.678m1.86-.72h-1.267v.526c-.221-.412-.595-.619-1.129-.619-.603 0-.995.293-1.186.885-.1.315-.153.856-.153 1.626 0 .746.052 1.274.15 1.584.186.573.57.859 1.155.859.477 0 .838-.182 1.085-.55h.018v2.504h1.327v-6.815zM405.753 580.279v.48c-.238-.384-.617-.573-1.133-.573-.335 0-.61.09-.836.273a.923.923 0 0 0-.36.763v3.825h1.327v-3.312c0-.492.168-.736.501-.736.334 0 .501.244.501.736v3.312h1.329v-3.825c0-.284.016-.599.051-.943h-1.38zM411.894 583.343h-1.327c0 .35-.047.595-.136.741-.094.14-.248.212-.457.212-.265 0-.44-.125-.52-.379-.062-.191-.094-.563-.094-1.116 0-.726.04-1.203.121-1.432.082-.228.241-.34.48-.34.404 0 .606.333.606 1.005h1.327c0-1.232-.644-1.85-1.933-1.85-.784 0-1.318.237-1.601.71-.217.364-.328.973-.328 1.831 0 .787.105 1.354.313 1.698.29.478.83.717 1.63.717 1.278 0 1.92-.6 1.92-1.797M415.171 582.575c-.434-.017-.709-.053-.814-.102-.22-.1-.327-.339-.327-.72 0-.503.164-.754.488-.754.331 0 .534.195.618.595.022.12.035.447.035.981m1.313.968v-2.377c0-.14.018-.433.054-.887H415.3l-.056.633h-.016c-.28-.484-.692-.726-1.245-.726-.846 0-1.266.504-1.266 1.52 0 .7.256 1.17.765 1.404.336.155.896.23 1.69.218v.364c0 .24-.029.405-.087.5-.08.131-.227.197-.446.197-.207 0-.35-.072-.423-.216-.052-.106-.074-.275-.074-.508h-1.315c0 .984.582 1.475 1.746 1.475.766 0 1.299-.158 1.589-.472.216-.233.322-.606.322-1.125M417.06 584.216v.831h.53v.752l1.327.592v-1.344h.697v-.83h-.697v-2.56c0-.219.019-.366.052-.437.054-.106.183-.16.38-.16h.237v-.8a7.558 7.558 0 0 0-.69-.044c-.498 0-.862.14-1.087.417a1.01 1.01 0 0 0-.219.644v2.94h-.53zM420.306 586.047h1.33v1.047h-1.33v-1.047zm0-5.768h1.33v4.77h-1.33v-4.77zM424.642 581.03c.244 0 .41.111.491.339.083.23.122.706.122 1.43 0 .557-.03.929-.092 1.118-.082.254-.26.378-.52.378-.269 0-.443-.124-.527-.378-.062-.19-.093-.561-.093-1.118 0-.724.04-1.2.123-1.43.083-.228.246-.34.496-.34m0-.843c-.797 0-1.332.235-1.62.706-.219.366-.327.975-.327 1.832 0 .788.103 1.355.31 1.7.287.477.836.716 1.637.716.798 0 1.346-.24 1.634-.717.206-.344.308-.911.308-1.7 0-.856-.11-1.465-.328-1.83-.285-.472-.823-.707-1.614-.707M428.863 585.047v-.485c.243.385.62.578 1.132.578.337 0 .62-.091.853-.28.23-.182.346-.435.346-.756v-3.825h-1.328v3.278c0 .5-.167.755-.501.755-.334 0-.502-.254-.502-.755v-3.278h-1.326v4.768h1.326z" style="fill:#60696e;fill-opacity:1;fill-rule:nonzero;stroke:none" transform="matrix(5.48565 0 0 -5.48565 -1001.805 3420.485)"/><path d="M193.074 619.739c-.32 1.813-2.394 5.54-6.854 2.72-1.77-1.119-.652-2.92 0-4.13 2.176-3.526 1.305-7.756-.435-11.382-1.198-2.317-3.047-4.534-3.155-7.153-.109-2.316.979-4.734 2.393-6.547 1.959-2.216 5.004-2.116 7.725-1.41 3.916 1.208 6.419 3.928 4.569 7.654-2.176 4.434-6.202 7.858-5.223 13.097.544 3.323 1.474 4.33 1.038 6.294 0 0-.05.812-.058.857z" style="fill:#d865a4;fill-opacity:1;fill-rule:nonzero;stroke:none" transform="matrix(5.48565 0 0 -5.48565 -1001.805 3420.485)"/><path d="M202.828 608.592c-2.62.2-4.736-1.915-4.332-5.34.302-2.62 2.115-5.439 1.41-8.158-.604-2.116-2.62-3.527-2.82-5.844-.302-2.618 1.712-4.834 3.625-6.345 1.412-1.108 3.326-2.217 5.138-1.712 1.813.403 3.526 2.014 3.928 3.828.605 2.82-1.813 5.64-3.425 7.655-1.309 1.712-3.927 4.23-3.423 6.648.403 2.014 2.215 3.425 2.617 5.54.405 1.915-.402 3.627-2.517 3.728h-.201z" style="fill:#f89b49;fill-opacity:1;fill-rule:nonzero;stroke:none" transform="matrix(5.48565 0 0 -5.48565 -1001.805 3420.485)"/><path d="M215.899 596.915c-1.575-.451-3.005-1.13-3.155-3.917-.168-3.1.739-3.197 1.847-5.857.996-2.327 1.552-4.432-.111-6.426-1.661-1.995-3.498-3.395-4.273-6.054-.776-2.44.554-4.877 2.993-5.541 2.659-.776 4.826.181 6.93 1.733 1.664 1.328 3.326 3.214 3.214 5.43-.11 2.549-1.995 4.875-2.77 7.202-.996 2.992-.444 3.843.221 6.834.666 2.992.01 4.939-2.286 6.104-.713.362-1.487.72-2.548.492" style="fill:#b5a8db;fill-opacity:1;fill-rule:nonzero;stroke:none" transform="matrix(5.48565 0 0 -5.48565 -1001.805 3420.485)"/><path d="M229.062 623.384c-2.828-.78-4.237-3.034-4.111-7.197.26-4.155 2.506-7.782 2.498-11.955.101-3.761-2.437-6.209-3.994-9.266-1.81-3.343-1.725-6.836.093-10.087 1.198-1.943 3.562-5.295 6.367-4.984 2.262.41 4.098 3.352 5.337 5.045 2.12 2.689 3.677 5.747 3.057 9.207-.813 4.39-3.738 8.11-5.078 12.332-1.325 3.954-.589 7.23.794 10.95 1.028 2.89.4 4.331-2.373 5.638 0 0-.889.785-2.59.317z" style="fill:#7ac8d1;fill-opacity:1;fill-rule:nonzero;stroke:none" transform="matrix(5.48565 0 0 -5.48565 -1001.805 3420.485)"/><path d="M244.314 598.38c-1.428.139-2.432-.662-2.998-1.773-.805-1.58.441-3.7 1.145-5.022.881-1.498 2.38-3.525 1.412-5.287-.97-1.85-3.35-2.732-4.584-4.494-1.145-1.762-.881-4.053.882-5.376 1.41-1.233 3.323-1.104 4.868-.41 1.421.64 3.271 2.205 3.945 5.082.586 2.504.704 4.053-.353 6.079-1.145 2.027-2.204 3.966-1.499 6.345.618 1.85.853 2.861-.822 4.184 0 0-.531.53-1.996.672z" style="fill:#d5a35b;fill-opacity:1;fill-rule:nonzero;stroke:none" transform="matrix(5.48565 0 0 -5.48565 -1001.805 3420.485)"/></svg>