<svg xmlns="http://www.w3.org/2000/svg" xml:space="preserve" width="386.98486" height="130.22955" viewBox="0 0 386.98486 130.22955"><defs><radialGradient id="a" cx="49.545898" cy="396.26758" r="87.402946" fx="49.545898" fy="396.26758" gradientUnits="userSpaceOnUse" spreadMethod="pad"><stop offset="0" style="stop-opacity:1;stop-color:#d6a129"/><stop offset="0.13150486" style="stop-opacity:1;stop-color:#d6a129"/><stop offset="0.5" style="stop-opacity:1;stop-color:#fdda81"/><stop offset="0.75727443" style="stop-opacity:1;stop-color:#d6a129"/><stop offset="1" style="stop-opacity:1;stop-color:#d6a129"/></radialGradient><radialGradient id="b" cx="80.195801" cy="383.39648" r="54.692089" fx="80.195801" fy="383.39648" gradientUnits="userSpaceOnUse" spreadMethod="pad"><stop offset="0" style="stop-opacity:1;stop-color:#fde064"/><stop offset="0.11393868" style="stop-opacity:1;stop-color:#d6a129"/><stop offset="0.35393" style="stop-opacity:1;stop-color:#d6a129"/><stop offset="1" style="stop-opacity:1;stop-color:#622b10"/></radialGradient><radialGradient id="c" cx="83.576172" cy="384.4375" r="46.267429" fx="83.576172" fy="384.4375" gradientUnits="userSpaceOnUse" spreadMethod="pad"><stop offset="0" style="stop-opacity:1;stop-color:#622b10"/><stop offset="0.73595" style="stop-opacity:1;stop-color:#d6a129"/><stop offset="1" style="stop-opacity:1;stop-color:#fde064"/></radialGradient></defs><path d="m136.47 346.411-2.306 4.264-1.386-1.75v-2.514h-1.246v8.649h1.246v-4.348l3.359 4.348h1.523l-2.665-3.39 2.942-5.259zM142.322 347.067c-.38-.413-.958-.73-1.754-.73-.797 0-1.361.317-1.743.73-.554.608-.692 1.385-.692 2.43 0 1.032.138 1.81.692 2.417.382.413.946.73 1.743.73.796 0 1.373-.317 1.754-.73.554-.606.692-1.385.692-2.418 0-1.044-.138-1.821-.692-2.429m-.889 4.119c-.22.23-.518.352-.865.352-.346 0-.634-.122-.854-.352-.358-.377-.404-1.021-.404-1.69 0-.667.046-1.311.404-1.688.22-.23.508-.365.854-.365.347 0 .646.134.865.365.359.377.404 1.021.404 1.688 0 .669-.045 1.313-.404 1.69zM147.249 351.125c-.265.28-.472.413-.877.413-.635 0-1.165-.535-1.165-1.386v-3.74h-1.178v6.158h1.155v-.669c.3.438.9.743 1.558.743.565 0 .992-.16 1.396-.583zM149.385 349.133c0-1.057.53-1.726 1.489-1.726.657 0 1.003.195 1.418.632l.75-.741c-.6-.631-1.165-.96-2.192-.96-1.465 0-2.632.813-2.632 3.158 0 1.992.982 3.148 2.483 3.148 1.568 0 2.48-1.216 2.48-2.965v-.546h-3.796m2.469 1.7c-.184.462-.6.777-1.153.777-.555 0-.982-.315-1.167-.777-.115-.28-.138-.46-.15-.838h2.632c-.012.377-.047.558-.162.838zM157.312 346.411v.56c-.427-.45-.831-.633-1.557-.633-.727 0-1.213.183-1.57.56-.3.327-.462.801-.462 1.323 0 1.033.681 1.774 2.02 1.774h1.546v.437c0 .777-.37 1.154-1.28 1.154-.647 0-.958-.158-1.282-.595l-.773.765c.554.68 1.131.888 2.1.888 1.605 0 2.412-.717 2.412-2.115v-4.118h-1.154m-.023 2.722h-1.373c-.692 0-1.05-.33-1.05-.887 0-.56.335-.875 1.073-.875.45 0 .785.036 1.096.353.173.182.254.473.254.91zM164.225 346.411v8.649h1.246v-8.649zM170.468 346.411v3.754c0 .96-.52 1.373-1.177 1.373-.658 0-1.212-.426-1.212-1.373v-3.754h-1.177v6.16h1.154v-.62c.404.461.97.693 1.558.693.6 0 1.096-.207 1.443-.56.45-.462.588-1.045.588-1.737v-3.936zM174.773 346.338c-.959 0-1.767.17-2.459.887l.773.814c.474-.51 1.108-.644 1.686-.644.714 0 1.28.268 1.28.851 0 .413-.219.68-.784.728l-.935.086c-1.096.096-1.731.619-1.731 1.7 0 1.202.98 1.884 2.205 1.884.877 0 1.627-.196 2.168-.693l-.738-.79c-.37.327-.889.45-1.442.45-.704 0-1.063-.329-1.063-.79 0-.365.185-.644.808-.705l.923-.085c1.098-.098 1.743-.644 1.743-1.737 0-1.287-1.039-1.956-2.434-1.956zM179.804 346.411c-1.097 0-1.604.826-1.604 1.713v3.39h-.67v.947h.67v1.871h1.177v-1.871h1.13v-.947h-1.13v-3.33c0-.449.207-.716.646-.716h.484v-1.057zM181.397 353.784v1.313h1.246v-1.313h-1.246m.034-7.373v6.16h1.177v-6.16zM185.644 346.411c-1.098 0-1.605.826-1.605 1.713v3.39h-.67v.947h.67v1.871h1.177v-1.871h1.132v-.947h-1.132v-3.33c0-.449.207-.716.646-.716h.486v-1.057zM190.801 346.411v.62a2.04 2.04 0 0 0-1.557-.693c-.6 0-1.097.207-1.443.56-.45.46-.59 1.043-.59 1.736v3.936h1.179v-3.754c0-.96.52-1.373 1.176-1.373.658 0 1.212.426 1.212 1.373v3.754h1.177v-6.159zM194.99 346.411c-1.095 0-1.604.826-1.604 1.713v3.39h-.67v.947h.67v1.871h1.177v-1.871h1.131v-.947h-1.131v-3.33c0-.449.208-.716.646-.716h.485v-1.057zM197.483 349.133c0-1.057.531-1.726 1.489-1.726.658 0 1.004.195 1.42.632l.749-.741c-.6-.631-1.165-.96-2.192-.96-1.466 0-2.631.813-2.631 3.158 0 1.992.98 3.148 2.48 3.148 1.57 0 2.482-1.216 2.482-2.965v-.546h-3.797m2.47 1.7c-.185.462-.6.777-1.154.777a1.22 1.22 0 0 1-1.166-.777c-.115-.28-.138-.46-.15-.838h2.63c-.01.377-.045.558-.16.838zM208.008 351.514v-5.103h-1.178v5.103h-.67v.947h.67v.947c0 .888.508 1.713 1.604 1.713h.739v-1.058h-.52c-.438 0-.645-.266-.645-.715v-.887h1.165v-.947zM213.765 347.067c-.38-.413-.957-.73-1.754-.73-.796 0-1.36.317-1.742.73-.554.608-.693 1.385-.693 2.43 0 1.032.139 1.81.693 2.417.381.413.946.73 1.742.73.797 0 1.374-.317 1.754-.73.554-.606.693-1.385.693-2.418 0-1.044-.139-1.821-.693-2.429m-.888 4.119c-.22.23-.52.352-.866.352-.345 0-.634-.122-.854-.352-.357-.377-.403-1.021-.403-1.69 0-.667.046-1.311.403-1.688.22-.23.509-.365.854-.365.347 0 .647.134.866.365.358.377.404 1.021.404 1.688 0 .669-.046 1.313-.404 1.69zM218.693 351.125c-.265.28-.473.413-.877.413-.635 0-1.165-.535-1.165-1.386v-3.74h-1.178v6.158h1.155v-.669c.3.438.9.743 1.558.743.564 0 .992-.16 1.396-.583zM226.875 346.411v3.778h-3.335v-3.778h-1.246v8.649h1.246v-3.693h3.335v3.693h1.247v-8.649zM230.418 349.133c0-1.057.53-1.726 1.488-1.726.658 0 1.005.195 1.42.632l.75-.741c-.6-.631-1.165-.96-2.193-.96-1.465 0-2.63.813-2.63 3.158 0 1.992.98 3.148 2.48 3.148 1.57 0 2.481-1.216 2.481-2.965v-.546h-3.796m2.47 1.7c-.185.462-.6.777-1.155.777-.554 0-.98-.315-1.165-.777-.115-.28-.138-.46-.15-.838h2.631c-.011.377-.046.558-.161.838zM238.346 346.411v.56c-.427-.45-.83-.633-1.558-.633-.727 0-1.211.183-1.57.56-.3.327-.46.801-.46 1.323 0 1.033.68 1.774 2.018 1.774h1.547v.437c0 .777-.369 1.154-1.282 1.154-.645 0-.958-.158-1.28-.595l-.773.765c.554.68 1.13.888 2.1.888 1.604 0 2.412-.717 2.412-2.115v-4.118h-1.154m-.023 2.722h-1.374c-.692 0-1.05-.33-1.05-.887 0-.56.334-.875 1.073-.875.45 0 .785.036 1.097.353.173.182.254.473.254.91zM242.304 346.411c-1.119 0-1.604.79-1.604 1.701v6.948h1.177v-6.875c0-.474.162-.717.635-.717h.52v-1.057zM245.49 346.411c-1.097 0-1.605.826-1.605 1.713v3.39h-.67v.947h.67v1.871h1.177v-1.871h1.131v-.947h-1.131v-3.33c0-.449.208-.716.647-.716h.484v-1.057zM250.66 346.411v3.778c0 .936-.52 1.35-1.178 1.35-.658 0-1.189-.427-1.189-1.35v-3.778h-1.176v8.649h1.176v-3.109c.405.461.935.693 1.512.693 1.304 0 2.03-.924 2.03-2.261v-3.972zM255.38 346.338c-1.317 0-2.609.85-2.609 3.158 0 2.309 1.292 3.148 2.608 3.148.808 0 1.373-.244 1.927-.864l-.808-.825c-.369.424-.658.583-1.119.583a1.3 1.3 0 0 1-1.085-.547c-.254-.34-.346-.778-.346-1.495 0-.716.092-1.166.346-1.506a1.297 1.297 0 0 1 1.085-.547c.461 0 .75.159 1.119.583l.808-.813c-.554-.62-1.119-.875-1.927-.875zM261.241 346.411v.56c-.427-.45-.83-.633-1.557-.633-.728 0-1.213.183-1.57.56-.3.327-.462.801-.462 1.323 0 1.033.681 1.774 2.02 1.774h1.546v.437c0 .777-.37 1.154-1.281 1.154-.646 0-.958-.158-1.28-.595l-.774.765c.554.68 1.13.888 2.1.888 1.604 0 2.412-.717 2.412-2.115v-4.118h-1.154m-.023 2.722h-1.373c-.693 0-1.05-.33-1.05-.887 0-.56.334-.875 1.073-.875.45 0 .785.036 1.096.353.174.182.254.473.254.91zM266.85 351.125c-.266.28-.474.413-.877.413-.635 0-1.166-.535-1.166-1.386v-3.74h-1.177v6.158h1.154v-.669c.3.438.9.743 1.558.743.566 0 .992-.16 1.397-.583zM268.984 349.133c0-1.057.532-1.726 1.49-1.726.657 0 1.003.195 1.42.632l.75-.741c-.601-.631-1.167-.96-2.194-.96-1.466 0-2.63.813-2.63 3.158 0 1.992.98 3.148 2.48 3.148 1.57 0 2.481-1.216 2.481-2.965v-.546h-3.797m2.47 1.7c-.184.462-.6.777-1.154.777-.554 0-.98-.315-1.166-.777-.115-.28-.138-.46-.15-.838h2.631c-.011.377-.046.558-.16.838zM283.005 346.411l-.565 1.736h-3.243l-.565-1.736h-1.327l3.012 8.649h1.004l3.012-8.649h-1.328m-2.158 6.693-1.28-3.838h2.527zM287.09 346.338c-1.314 0-2.607.85-2.607 3.158 0 2.309 1.293 3.148 2.608 3.148.807 0 1.373-.244 1.927-.864l-.808-.825c-.37.424-.657.583-1.12.583-.449 0-.83-.195-1.084-.547-.254-.34-.346-.778-.346-1.495 0-.716.092-1.166.346-1.506a1.295 1.295 0 0 1 1.085-.547c.462 0 .75.159 1.119.583l.808-.813c-.554-.62-1.12-.875-1.927-.875zM292.11 346.338c-1.315 0-2.607.85-2.607 3.158 0 2.309 1.292 3.148 2.607 3.148.808 0 1.374-.244 1.928-.864l-.809-.825c-.368.424-.656.583-1.119.583-.449 0-.83-.195-1.084-.547-.255-.34-.347-.778-.347-1.495 0-.716.093-1.166.347-1.506a1.295 1.295 0 0 1 1.084-.547c.463 0 .75.159 1.12.583l.808-.813c-.554-.62-1.12-.875-1.928-.875zM298.042 351.125c-.265.28-.472.413-.877.413-.634 0-1.165-.535-1.165-1.386v-3.74h-1.177v6.158h1.155v-.669c.299.438.898.743 1.557.743.565 0 .991-.16 1.395-.583zM300.177 349.133c0-1.057.53-1.726 1.489-1.726.656 0 1.004.195 1.419.632l.75-.741c-.6-.631-1.165-.96-2.192-.96-1.466 0-2.632.813-2.632 3.158 0 1.992.981 3.148 2.482 3.148 1.57 0 2.48-1.216 2.48-2.965v-.546h-3.796m2.47 1.7a1.206 1.206 0 0 1-1.154.777c-.554 0-.982-.315-1.167-.777-.115-.28-.138-.46-.15-.838h2.633c-.012.377-.046.558-.162.838zM308.313 346.411v.656c-.438-.56-.91-.73-1.546-.73-.588 0-1.109.208-1.432.548-.588.619-.657 1.676-.657 2.611 0 .936.069 1.982.657 2.6.323.34.832.548 1.42.548.624 0 1.108-.16 1.535-.693v3.109h1.177v-8.649h-1.155m-1.235 5.127c-1.06 0-1.222-.948-1.222-2.042 0-1.093.162-2.053 1.222-2.053 1.063 0 1.213.96 1.213 2.053 0 1.094-.15 2.042-1.213 2.042zM310.726 353.784v1.313h1.245v-1.313h-1.245m.034-7.373v6.16h1.176v-6.16zM314.97 346.411c-1.096 0-1.603.826-1.603 1.713v3.39h-.669v.947h.67v1.871h1.177v-1.871h1.13v-.947h-1.13v-3.33c0-.449.207-.716.645-.716h.486v-1.057zM319.749 346.411v.56c-.427-.45-.832-.633-1.558-.633-.726 0-1.212.183-1.57.56-.3.327-.46.801-.46 1.323 0 1.033.68 1.774 2.019 1.774h1.546v.437c0 .777-.369 1.154-1.282 1.154-.645 0-.956-.158-1.28-.595l-.773.765c.553.68 1.131.888 2.1.888 1.604 0 2.412-.717 2.412-2.115v-4.118h-1.154m-.023 2.722h-1.373c-.692 0-1.05-.33-1.05-.887 0-.56.335-.875 1.072-.875.45 0 .786.036 1.098.353.173.182.253.473.253.91zM323.88 346.411c-1.096 0-1.603.826-1.603 1.713v3.39h-.67v.947h.67v1.871h1.176v-1.871h1.131v-.947h-1.13v-3.33c0-.449.206-.716.647-.716h.483v-1.057zM325.472 353.784v1.313h1.247v-1.313h-1.247m.037-7.373v6.16h1.176v-6.16zM331.889 347.067c-.381-.413-.957-.73-1.754-.73-.796 0-1.363.317-1.743.73-.553.608-.692 1.385-.692 2.43 0 1.032.139 1.81.692 2.417.38.413.947.73 1.743.73.797 0 1.373-.317 1.754-.73.554-.606.693-1.385.693-2.418 0-1.044-.139-1.821-.693-2.429m-.888 4.119a1.16 1.16 0 0 1-.866.352c-.346 0-.635-.122-.854-.352-.357-.377-.403-1.021-.403-1.69 0-.667.046-1.311.403-1.688.219-.23.508-.365.854-.365.347 0 .647.134.866.365.357.377.403 1.021.403 1.688 0 .669-.046 1.313-.403 1.69zM337.164 346.411v3.754c0 .96-.52 1.373-1.178 1.373-.659 0-1.213-.426-1.213-1.373v-3.754h-1.176v6.16h1.154v-.62c.403.461.97.693 1.558.693.6 0 1.097-.207 1.443-.56.45-.462.588-1.045.588-1.737v-3.936z" style="fill:#622b10;fill-opacity:1;fill-rule:nonzero;stroke:none" transform="matrix(1.33333 0 0 -1.33333 -64.135 559.911)"/><path d="M59.843 398.376c-6.044 0-10.96-4.915-10.96-10.959v-37.44c0-5.315 3.564-11.63 8.117-14.374l18.692-11.282c4.635-2.794 11.856-2.739 16.445.125L109.9 335.53c4.496 2.808 8.017 9.153 8.017 14.448v37.439c0 6.044-4.918 10.959-10.96 10.959H59.843m19.36-68.236-18.696 11.279c-2.528 1.525-4.829 5.604-4.829 8.559v37.439a4.167 4.167 0 0 0 4.165 4.164h47.115a4.17 4.17 0 0 0 4.166-4.164v-37.44c0-2.971-2.3-7.109-4.815-8.682L88.54 330.21c-2.432-1.517-6.886-1.552-9.339-.07z" style="fill:url(#a);fill-opacity:1;fill-rule:nonzero;stroke:none" transform="matrix(1.33333 0 0 -1.33333 -64.135 559.911)"/><path d="M81.361 378.846c1.631 1.643 3.636 2.466 6.017 2.466 2.39 0 4.4-.828 6.03-2.48 1.768-1.789 2.653-4.174 2.653-7.152 0-3.027-.915-5.433-2.744-7.223-1.638-1.599-3.618-2.397-5.939-2.397-2.485 0-4.546.885-6.185 2.657-1.665 1.807-2.497 4.128-2.497 6.963 0 2.978.888 5.368 2.665 7.166m2.135-13.41c1.054-1.347 2.352-2.019 3.889-2.019 1.504 0 2.79.656 3.858 1.968 1.068 1.311 1.6 3.409 1.6 6.295 0 2.919-.54 5.029-1.619 6.327-1.08 1.299-2.36 1.947-3.84 1.947-1.528 0-2.823-.673-3.883-2.02-1.06-1.345-1.588-3.431-1.588-6.254 0-2.816.527-4.897 1.583-6.243z" style="fill:url(#b);fill-opacity:1;fill-rule:nonzero;stroke:none" transform="matrix(1.33333 0 0 -1.33333 -64.135 559.911)"/><path d="M103.408 362.387c-1.387.575-1.222 2.584-1.222 3.83v10.641c0 1.25-.165 3.285 1.222 3.86v.118h-5.324v-.164c1.297-.633 1.11-2.57 1.11-3.814v-10.64c0-1.213.16-3.172-1.11-3.783v-.166h5.324zM67.084 366.247v10.638c0 1.199-.159 3.126 1.083 3.766v.185h-5.215v-.167c1.297-.633 1.138-2.567 1.138-3.784v-10.638c0-1.215.159-3.174-1.138-3.809v-.17h5.215v.192c-1.242.658-1.084 2.561-1.084 3.787m9.449-1.242-5.932 7.478 6.671 8.224v.129h-5.106v-.132c1.8-.863.093-2.571-.857-3.874l-3.845-4.91 6.516-8.437c.528-.676 1.878-1.214 3.314-1.214h2.76v.087c-1.498.702-2.61 1.493-3.521 2.649zM76.532 341.112v-.16h5.326v.139c-1.363.6-1.204 2.577-1.204 3.81v10.667c0 1.239-.159 3.215 1.204 3.817v.136h-5.326v-.158c1.316-.622 1.13-2.572 1.13-3.82v-4.63h-10.59v4.63c0 1.26-.163 3.232 1.17 3.839v.139h-5.29v-.16c1.314-.627 1.13-2.57 1.13-3.793v-10.667c0-1.216.153-3.157-1.13-3.785v-.165h5.29v.144c-1.333.604-1.17 2.576-1.17 3.806v3.98h10.59v-3.98c0-1.218.186-3.164-1.13-3.789zM98.608 341.112v-.16h5.7v.17c-1.548.839-2.066 2.366-2.722 3.922l-6.103 14.477h-4.372v-.185c1.068-.486.557-1.58.175-2.524l-4.895-11.768c-.617-1.527-1.1-3.03-2.606-3.874v-.219h4.98v.16c-1.21.512-.999 1.322-.413 2.832l1.528 3.979h7.394l1.587-3.979c.76-1.895 1.003-2.256-.253-2.83m-7.965 8.9 2.908 7.11 2.874-7.11z" style="fill:#622b10;fill-opacity:1;fill-rule:nonzero;stroke:none" transform="matrix(1.33333 0 0 -1.33333 -64.135 559.911)"/><path d="M116.823 419.934s-4.7-4.931-10.092-7.808c-6.474-3.466-13.648-5.606-18.814-11.09a22.582 22.582 0 0 1-2.67-3.466c-.409-.67-.794-1.355-1.15-2.058-.155-.316-.645-1.853-.935-2.12-.293.267-.784 1.804-.942 2.12a27.411 27.411 0 0 1-1.153 2.058 22.013 22.013 0 0 1-2.669 3.465c-5.163 5.485-12.336 7.625-18.805 11.091-5.394 2.877-10.086 7.808-10.086 7.808-2.221-3.292-1.145-8.786-1.145-8.786 2.173-8.524 14.434-10.713 16.932-11.22 5.984-1.206 10.397-4.023 13.526-8.137 1.9-2.496 3.326-5.478 4.342-8.871 1.01 3.393 2.438 6.375 4.337 8.871 3.13 4.114 7.543 6.93 13.526 8.138 2.506.506 14.763 2.695 16.939 11.22 0 0 1.073 5.493-1.141 8.785z" style="fill:url(#c);fill-opacity:1;fill-rule:nonzero;stroke:none" transform="matrix(1.33333 0 0 -1.33333 -64.135 559.911)"/><path d="m307.987 377.315-.079.032.064.036c2.49 1.384 3.947 3.85 4.208 4.565.038.092.011.161-.08.201a.704.704 0 0 1-.31.066h-14.052v-2.374h8.804c-1.66-1.989-4.861-3.257-10.036-5.22l1.223-1.684c3.264.853 6.788 2.496 8.048 3.118l.074.038.076-.038 5.932-3.092 2.94 1.866-6.812 2.486zM327.32 367.293v2.8c1.478.022 2.847.126 4.095.315a18.93 18.93 0 0 1 2.244.49v1.948c-.721-.135-1.45-.23-2.187-.283-1.181-.098-2.679-.142-4.502-.142h-8.95v-2.355h6.375v-2.773zM178.473 366.006l-1.375 1.505c1.922 1.008 3.822 2.493 5.641 4.42 1.851 1.949 3.007 4.221 3.437 6.746l.013.096h-7.567v2.446h11.41c.117 0 .21-.035.27-.105a.38.38 0 0 0 .085-.308c-.476-3.466-1.837-6.422-4.155-9.04-2.358-2.668-4.968-4.603-7.76-5.76M143.697 378.281a5.504 5.504 0 0 1-1.295 1.832 5.793 5.793 0 0 1-1.931 1.174c-.741.27-1.533.41-2.38.41-.846 0-1.641-.14-2.38-.41a5.648 5.648 0 0 1-1.919-1.174 5.597 5.597 0 0 1-1.281-1.832c-.317-.715-.472-1.5-.472-2.368 0-.878.155-1.67.472-2.378a5.306 5.306 0 0 1 1.281-1.793 5.693 5.693 0 0 1 1.908-1.135 6.89 6.89 0 0 1 2.365-.397c.865 0 1.665.133 2.406.397.739.266 1.381.644 1.931 1.135.55.49.978 1.087 1.295 1.793.317.707.473 1.5.473 2.378 0 .867-.156 1.653-.473 2.368m-3.214-4.885c-.615-.612-1.41-.92-2.392-.92-.946 0-1.727.308-2.344.92-.613.618-.92 1.457-.92 2.517 0 1.049.307 1.88.92 2.493.617.615 1.398.921 2.344.921.982 0 1.777-.306 2.392-.92.617-.614.92-1.445.92-2.494 0-1.06-.303-1.9-.92-2.517zM243.625 365.984c-.407.559-.959 1.033-1.656 1.423-.697.388-1.516.688-2.455.895-.939.208-1.937.311-3.002.311-1.145 0-2.188-.105-3.125-.322-.94-.218-1.745-.52-2.42-.91-.671-.39-1.191-.864-1.556-1.42a3.363 3.363 0 0 1-.549-1.882c0-.714.184-1.355.549-1.917.365-.567.885-1.044 1.557-1.433.674-.39 1.48-.692 2.419-.898.937-.208 1.98-.31 3.125-.31 1.065 0 2.063.102 3.002.31.939.206 1.758.513 2.455.911.698.399 1.25.877 1.656 1.444a3.16 3.16 0 0 1 .612 1.893c0 .715-.204 1.35-.612 1.905m-2.753-3c-.264-.284-.618-.517-1.057-.699a6.362 6.362 0 0 0-1.52-.4 13.193 13.193 0 0 0-3.613 0 5.95 5.95 0 0 0-1.495.4c-.426.182-.761.415-1.009.698-.25.28-.375.621-.375 1.023 0 .413.12.77.36 1.07.242.298.573.544.999.735a5.85 5.85 0 0 0 1.495.423c.572.092 1.192.14 1.855.14.613 0 1.21-.048 1.782-.14a6.25 6.25 0 0 0 1.52-.423c.44-.19.794-.437 1.058-.735.266-.3.4-.657.4-1.07 0-.402-.134-.742-.4-1.023zM283.73 378.396a6.008 6.008 0 0 1-3.188 3.24c-.749.321-1.571.483-2.47.483-.894 0-1.71-.162-2.441-.484a5.937 5.937 0 0 1-3.126-3.24 6.055 6.055 0 0 1-.437-2.28c0-.833.146-1.612.437-2.344a5.672 5.672 0 0 1 1.233-1.905 5.905 5.905 0 0 1 1.893-1.282c.732-.317 1.547-.474 2.442-.474.898 0 1.72.157 2.469.474a5.98 5.98 0 0 1 1.93 1.282 5.72 5.72 0 0 1 1.258 1.905c.3.732.45 1.511.45 2.343 0 .797-.15 1.559-.45 2.282m-2.628-3.726a3.385 3.385 0 0 0-.673-1.123 3.173 3.173 0 0 0-1.034-.745 3.09 3.09 0 0 0-1.322-.276c-.48 0-.92.09-1.306.276-.393.18-.727.43-1.008.745-.284.316-.503.69-.662 1.123-.159.43-.238.897-.238 1.392 0 .484.079.936.238 1.36.16.426.378.795.662 1.11a3.12 3.12 0 0 0 1.008.748c.387.18.825.273 1.306.273.484 0 .922-.092 1.322-.273a3.272 3.272 0 0 0 1.034-.749c.287-.314.514-.683.673-1.108.157-.425.237-.877.237-1.36 0-.496-.08-.962-.237-1.393zM311.195 367.06c-1.37.787-3.308 1.182-5.816 1.182s-4.448-.395-5.818-1.182c-1.371-.792-2.055-1.858-2.055-3.206 0-1.36.681-2.433 2.044-3.214 1.36-.778 3.303-1.17 5.829-1.17 2.524 0 4.465.392 5.831 1.17 1.361.78 2.043 1.854 2.043 3.214 0 1.348-.688 2.414-2.058 3.206m-2.052-4.764c-.849-.437-2.105-.657-3.764-.657-1.661 0-2.916.22-3.765.657-.845.443-1.268.952-1.268 1.535 0 .599.423 1.115 1.268 1.559.849.438 2.104.658 3.765.658 1.66 0 2.915-.22 3.764-.658.845-.444 1.27-.96 1.27-1.559 0-.583-.425-1.092-1.27-1.535zM330.947 379.354a4.48 4.48 0 0 1-1.182 1.435 5.997 5.997 0 0 1-1.82.969c-.707.242-1.483.361-2.329.361-.848 0-1.62-.119-2.32-.361a6.072 6.072 0 0 1-1.807-.969 4.32 4.32 0 0 1-1.168-1.435 3.837 3.837 0 0 1-.412-1.743c0-.65.137-1.256.412-1.821a4.216 4.216 0 0 1 1.168-1.456 6.014 6.014 0 0 1 1.808-.973c.698-.243 1.47-.36 2.32-.36.845 0 1.621.117 2.328.36.705.242 1.314.566 1.82.973.505.408.9.89 1.182 1.456a4.02 4.02 0 0 1 .424 1.821c0 .613-.142 1.195-.424 1.743m-2.579-2.753a2.328 2.328 0 0 0-.645-.748 3.434 3.434 0 0 0-.952-.498 3.466 3.466 0 0 0-1.155-.189c-.4 0-.782.065-1.147.19-.365.123-.68.29-.948.497a2.352 2.352 0 0 0-.634.748 1.995 1.995 0 0 0 0 1.892c.155.29.369.54.634.751.268.205.583.37.948.498.365.122.748.184 1.147.184.414 0 .799-.062 1.155-.184a3.63 3.63 0 0 0 .952-.498c.271-.21.488-.46.645-.75.158-.29.236-.603.236-.933 0-.35-.078-.67-.236-.96z" style="fill:#622b10;fill-opacity:1;fill-rule:nonzero;stroke:none" transform="matrix(1.33333 0 0 -1.33333 -64.135 559.911)"/><path d="M147.41 383.14V367.67h-15.695v-2.342h15.695v-5.83h2.891v23.644zM197.144 359.496h-2.89v23.645h2.89zM247.74 366.006l-1.377 1.505c1.921 1.008 3.82 2.493 5.64 4.42 1.854 1.949 3.007 4.221 3.436 6.746l.014.096h-7.568v2.446h11.412c.117 0 .21-.035.272-.105.066-.079.1-.194.085-.308-.479-3.466-1.84-6.422-4.158-9.04-2.358-2.668-4.967-4.603-7.757-5.76M270.103 374.046h-3.695v9.095h-2.887v-23.645h2.887v12.147h3.695zM169.735 365.874v3.76h3.588v2.294h-13.254c-.169 0-.271.021-.31.063-.044.04-.066.152-.066.337v1.942c0 .168.017.267.05.3.035.033.135.051.3.051h10.94c.696 0 1.17.111 1.42.333.248.226.371.664.371 1.313v4.01c0 .646-.123 1.082-.372 1.306-.248.226-.723.336-1.42.336h-13.98v-2.342h12.608c.169 0 .271-.013.311-.036.042-.025.063-.128.063-.311v-1.92c0-.182-.021-.294-.063-.333-.04-.044-.142-.066-.31-.066h-10.913a5.46 5.46 0 0 1-.898-.06c-.231-.043-.415-.123-.548-.252a.958.958 0 0 1-.273-.498 3.552 3.552 0 0 1-.076-.81v-3.985c0-.332.026-.6.076-.808.05-.208.142-.382.273-.514.133-.132.317-.225.548-.274.232-.049.532-.076.898-.076h1.245v-3.76h-6.304v-2.342h22.437v2.342h-6.34m-2.816 0h-4.163v3.76h4.163zM223.222 374.788h-3.593v8.353h-2.85V365.9h2.85v6.427h3.593zM212.951 371.31c1.138 2.694 1.66 7.671 2.024 10.294a.386.386 0 0 1-.085.308c-.063.072-.155.109-.274.109h-11.408v-2.45H212l-.013-.094c-.243-2.004-.647-5.723-1.661-8.166h-1.744v5.029h-2.833v-5.03h-4.917v-2.342h15.028v2.343h-2.909zM241.121 383.14v-3.836h-3.487v-2.117h3.487v-1.508h-3.487v-2.118h3.487v-4.473h2.892v14.053zM290.582 366.35h-2.867v16.79h2.867zM316.088 370.033h-21.435v2.395h21.435zM325.156 362.31c-.184 0-.308.025-.374.076-.068.049-.1.158-.1.32v3.893h-2.867v-4.911c0-.648.13-1.104.39-1.373.256-.263.767-.397 1.53-.397h14.463v2.392h-13.042zM278.312 362.31c-.184 0-.307.025-.373.076-.069.049-.102.158-.102.32v3.893h-2.864v-4.911c0-.648.128-1.104.387-1.373.256-.263.767-.397 1.532-.397h14.463v2.392h-13.043zM207.498 362.31c-.184 0-.306.025-.373.076-.067.049-.1.158-.1.32v3.893h-2.866v-4.911c0-.648.127-1.104.388-1.373.256-.263.768-.397 1.53-.397h14.464v2.392h-13.043zM334.783 383.14v-13.802h-4.614v-2.195h4.614v-2.617h2.87v18.615z" style="fill:#622b10;fill-opacity:1;fill-rule:nonzero;stroke:none" transform="matrix(1.33333 0 0 -1.33333 -64.135 559.911)"/><path d="M237.81 379.701v2.32H224.75v-2.32h2.32v-6.844h-2.32v-2.318h13.058v2.318h-2.253v6.844h2.253m-4.97-6.844h-3.054v6.844h3.053z" style="fill:#622b10;fill-opacity:1;fill-rule:nonzero;stroke:none" transform="matrix(1.33333 0 0 -1.33333 -64.135 559.911)"/></svg>