<svg xmlns="http://www.w3.org/2000/svg" width="1322.9276mm" height="300mm" viewBox="0 0 1322.9276 300"><defs><clipPath id="a" clipPathUnits="userSpaceOnUse"><path d="M0 1190.55h841.89V0H0Z"/></clipPath></defs><path d="M362.01 790.183h1.1v-9.172h-1.1z" style="fill:#595757;fill-opacity:1;fill-rule:nonzero;stroke:none" transform="matrix(4.1926 0 0 -4.1926 -1008.58 3566.358)"/><path d="M0 0h1.388l5.37-7.618h.026V0h1.1v-9.172H6.496l-5.37 7.617H1.1v-7.617H0Z" style="fill:#595757;fill-opacity:1;fill-rule:nonzero;stroke:none" transform="matrix(4.1926 0 0 -4.1926 523.452 253.443)"/><g clip-path="url(#a)" transform="matrix(4.1926 0 0 -4.1926 -1008.58 3566.358)"><path d="M0 0c-.55.737-1.427 1.114-2.317 1.114-2.07 0-3.537-1.801-3.537-3.808 0-2.125 1.455-3.809 3.537-3.809 1.127 0 2.03.453 2.684 1.281l.825-.686C.367-7.009-.838-7.515-2.317-7.515c-2.659 0-4.714 2.036-4.714 4.821 0 2.694 1.964 4.819 4.714 4.819C-1.061 2.125.17 1.696.957.687z" style="fill:#595757;fill-opacity:1;fill-rule:nonzero;stroke:none" transform="translate(382.098 788.292)"/><path d="M0 0h1.1v-3.887h4.95V0h1.1v-9.172h-1.1v4.276H1.1v-4.276H0Z" style="fill:#595757;fill-opacity:1;fill-rule:nonzero;stroke:none" transform="translate(384.822 790.183)"/><path d="M0 0h5.828v-1.012H1.1v-2.875h4.413v-1.009H1.1v-3.266h4.963v-1.01H0Z" style="fill:#595757;fill-opacity:1;fill-rule:nonzero;stroke:none" transform="translate(394.277 790.183)"/><path d="M0 0c0 2.111-1.493 3.809-3.667 3.809-2.174 0-3.667-1.698-3.667-3.809s1.493-3.81 3.667-3.81C-1.493-3.81 0-2.111 0 0m-8.513 0c0 2.771 2.03 4.818 4.846 4.818 2.814 0 4.845-2.047 4.845-4.818 0-2.772-2.031-4.819-4.845-4.819-2.816 0-4.846 2.047-4.846 4.819" style="fill:#595757;fill-opacity:1;fill-rule:nonzero;stroke:none" transform="translate(410.019 785.597)"/><path d="M0 0h1.388l5.369-7.618h.027V0h1.1v-9.172H6.496l-5.37 7.617H1.1v-7.617H0Z" style="fill:#595757;fill-opacity:1;fill-rule:nonzero;stroke:none" transform="translate(412.965 790.183)"/><path d="M0 0h1.859c1.1 0 1.86.492 1.86 1.517 0 1.022-.76 1.513-1.86 1.513H0Zm-1.101 4.042h2.75c1.704 0 3.248-.596 3.248-2.514 0-2.007-1.729-2.539-3.038-2.539H0V-5.13h-1.101z" style="fill:#595757;fill-opacity:1;fill-rule:nonzero;stroke:none" transform="translate(427.894 786.141)"/><path d="M0 0c0 2.111-1.493 3.809-3.667 3.809-2.174 0-3.666-1.698-3.666-3.809s1.492-3.81 3.666-3.81S0-2.111 0 0m-8.512 0c0 2.771 2.03 4.818 4.845 4.818S1.179 2.771 1.179 0c0-2.772-2.031-4.819-4.846-4.819S-8.512-2.772-8.512 0" style="fill:#595757;fill-opacity:1;fill-rule:nonzero;stroke:none" transform="translate(442.535 785.597)"/><path d="M0 0h.982C2.2 0 3.785 0 3.785 1.517c0 1.32-1.166 1.513-2.24 1.513H0Zm-1.1 4.042h2.37c1.794 0 3.693-.259 3.693-2.525 0-1.336-.877-2.204-2.318-2.424L5.277-5.13H3.93L1.414-1.011H0V-5.13h-1.1z" style="fill:#595757;fill-opacity:1;fill-rule:nonzero;stroke:none" transform="translate(446.582 786.141)"/><path d="M0 0h-3.064v-8.162h-1.1V0h-3.065v1.011H0Z" style="fill:#595757;fill-opacity:1;fill-rule:nonzero;stroke:none" transform="translate(459.47 789.172)"/><path d="M0 0h-.026l-1.925-4.508h3.783Zm-.498 1.399H.537l3.942-9.171H3.194l-.942 2.253h-4.637l-.955-2.253h-1.244z" style="fill:#595757;fill-opacity:1;fill-rule:nonzero;stroke:none" transform="translate(467.918 788.784)"/><path d="M0 0c0-1.996-.941-3.731-3.496-3.731-2.554 0-3.496 1.735-3.496 3.731v5.674h1.099V.154c0-1.476.55-2.876 2.397-2.876 1.847 0 2.396 1.4 2.396 2.876v5.52H0Z" style="fill:#595757;fill-opacity:1;fill-rule:nonzero;stroke:none" transform="translate(480.58 784.51)"/><path d="M0 0h-3.063v-8.162h-1.101V0h-3.065v1.011H0Z" style="fill:#595757;fill-opacity:1;fill-rule:nonzero;stroke:none" transform="translate(489.066 789.172)"/><path d="M0 0h1.101v-3.887h4.95V0h1.098v-9.172H6.051v4.276h-4.95v-4.276H0Z" style="fill:#595757;fill-opacity:1;fill-rule:nonzero;stroke:none" transform="translate(490.363 790.183)"/><path d="M0 0c0 2.111-1.492 3.809-3.666 3.809S-7.334 2.111-7.334 0s1.494-3.81 3.668-3.81C-1.492-3.81 0-2.111 0 0m-8.513 0c0 2.771 2.032 4.818 4.847 4.818C-.851 4.818 1.18 2.771 1.18 0c0-2.772-2.031-4.819-4.846-4.819S-8.513-2.772-8.513 0" style="fill:#595757;fill-opacity:1;fill-rule:nonzero;stroke:none" transform="translate(507.793 785.597)"/><path d="M0 0h.982c1.219 0 2.803 0 2.803 1.517 0 1.32-1.166 1.513-2.24 1.513H0Zm-1.101 4.042h2.372c1.793 0 3.694-.259 3.694-2.525 0-1.336-.879-2.204-2.319-2.424L5.277-5.13H3.93L1.416-1.011H0V-5.13h-1.101z" style="fill:#595757;fill-opacity:1;fill-rule:nonzero;stroke:none" transform="translate(511.84 786.141)"/><path d="M518.741 790.183h1.101v-9.172h-1.101z" style="fill:#595757;fill-opacity:1;fill-rule:nonzero;stroke:none"/><path d="M0 0h-3.064v-8.162h-1.1V0h-3.065v1.011H0Z" style="fill:#595757;fill-opacity:1;fill-rule:nonzero;stroke:none" transform="translate(528.367 789.172)"/><path d="m0 0-3.459 5.221h1.401L.549 1.074l2.684 4.147h1.324L1.1 0v-3.951H0Z" style="fill:#595757;fill-opacity:1;fill-rule:nonzero;stroke:none" transform="translate(531.852 784.962)"/><path d="M0 0v-7.925c.008-.096.24-2.819 3.191-2.819h20.585v4.187H5.099V0Z" style="fill:#231916;fill-opacity:1;fill-rule:nonzero;stroke:none" transform="translate(352.035 809.95)"/><path d="M0 0c0 1.238.414 2.324 1.228 3.225.819.905 1.981 1.363 3.456 1.363 1.47 0 2.638-.458 3.473-1.363C8.988 2.327 9.408 1.241 9.408 0c0-1.239-.42-2.328-1.248-3.239-.836-.918-2.004-1.386-3.476-1.386-1.477 0-2.641.468-3.458 1.386C.414-2.328 0-1.237 0 0m-2.381 6.145C-4.211 4.45-5.138 2.38-5.138 0c0-2.38.927-4.453 2.757-6.16C-.545-7.871 1.83-8.741 4.684-8.741c2.851 0 5.226.87 7.064 2.581 1.828 1.707 2.756 3.78 2.756 6.16 0 2.38-.928 4.45-2.756 6.145C9.91 7.842 7.535 8.706 4.684 8.706c-2.854 0-5.229-.864-7.065-2.561" style="fill:#231916;fill-opacity:1;fill-rule:nonzero;stroke:none" transform="translate(351.264 822.246)"/><path d="M370.719 801.094h5.094v29.856h-5.094z" style="fill:#231916;fill-opacity:1;fill-rule:nonzero;stroke:none"/><path d="M0 0v-4.005h6.479l-.063-.359c-.35-1.994-1.73-3.707-4.107-5.088-2.102-1.221-3.495-1.924-4.417-2.276.412-.511 2.879-3.565 3.138-3.889 1.491.489 2.999 1.241 4.488 2.304 1.544 1.1 2.711 2.232 3.468 3.365l.229.345.263-.321c.968-1.18 2.204-2.222 3.669-3.097a18.227 18.227 0 0 1 4.297-1.851c.226.393 2.028 3.508 2.314 4.007-.883.296-2.164.917-4.047 2.009-2.18 1.259-2.68 2.839-3.035 4.479l-.079.372h5.964V0Zm24.176 3.254v-7.386h-5.293v-4.079h5.293v-19.328h5.095V3.254Z" style="fill:#231916;fill-opacity:1;fill-rule:nonzero;stroke:none" transform="translate(381.42 827.698)"/><path d="M387.437 826.729h6.485v4.223h-6.485z" style="fill:#231916;fill-opacity:1;fill-rule:nonzero;stroke:none"/><path d="M0 0v-6.957c.009-.093.263-2.819 3.592-2.819H24.51v4.191H5.097V0Z" style="fill:#231916;fill-opacity:1;fill-rule:nonzero;stroke:none" transform="translate(386.182 808.983)"/><path d="M0 0v-7.999c.018-.065.549-2.819 3.416-2.819h20.522v4.188H5.058V0Z" style="fill:#231916;fill-opacity:1;fill-rule:nonzero;stroke:none" transform="translate(454.664 810.025)"/><path d="M0 0v7.681h7.28V-.307H0Zm-5.014-4.421h17.268v16.216H-5.014Z" style="fill:#231916;fill-opacity:1;fill-rule:nonzero;stroke:none" transform="translate(455.846 819.087)"/><path d="M0 0v-31.745h5.055v18.728h4.376v4.564H5.055V0Z" style="fill:#231916;fill-opacity:1;fill-rule:nonzero;stroke:none" transform="translate(473.547 830.952)"/><path d="M0 0v-7.849c-.028-3.428-.83-6.275-2.388-8.463-1.485-2.084-3.704-4.033-6.516-5.816.466-.417 3.32-2.939 3.646-3.228 1.174.765 4.295 3.481 4.295 3.481 1.541 1.328 2.707 2.819 3.465 4.438l.287.614.272-.62c.669-1.536 1.851-3.18 3.523-4.48 0 0 2.408-1.756 4.479-2.944.301.348 2.599 2.983 2.972 3.408-2.274 1.323-4.289 2.976-5.945 4.961-1.766 2.104-2.656 5.017-2.656 8.649V0Z" style="fill:#231916;fill-opacity:1;fill-rule:nonzero;stroke:none" transform="translate(528.646 830.952)"/><path d="M0 0v-32.548h5.098v14.146h4.75v4.638h-4.75V0Z" style="fill:#231916;fill-opacity:1;fill-rule:nonzero;stroke:none" transform="translate(546.254 831.755)"/><path d="M0 0v-3.254h-6.718v-4.005h20.935v4.005H6.483V0Z" style="fill:#231916;fill-opacity:1;fill-rule:nonzero;stroke:none" transform="translate(421.09 830.952)"/><path d="M0 0c.006-.599.239-25.615.246-26.202h5.049l-.25 14.044h4.467v4.188h-4.46V0Z" style="fill:#231916;fill-opacity:1;fill-rule:nonzero;stroke:none" transform="translate(437.924 830.952)"/><path d="M0 0c0 1.896 1.71 3.436 3.813 3.436 2.1 0 3.809-1.54 3.809-3.436 0-1.895-1.709-3.438-3.809-3.438C1.71-3.438 0-1.895 0 0m-4.891 0c0-4.27 3.905-7.743 8.704-7.743 4.796 0 8.703 3.473 8.703 7.743 0 4.271-3.907 7.743-8.703 7.743-4.799 0-8.704-3.472-8.704-7.743" style="fill:#231916;fill-opacity:1;fill-rule:nonzero;stroke:none" transform="translate(420.9 819.035)"/><path d="M0 0c0 2.188 1.972 3.963 4.399 3.963 2.423 0 4.395-1.775 4.395-3.963 0-2.183-1.972-3.959-4.395-3.959C1.972-3.959 0-2.183 0 0m-5.058 0c0-4.636 4.245-8.411 9.457-8.411 5.215 0 9.454 3.775 9.454 8.411 0 4.644-4.239 8.414-9.454 8.414-5.212 0-9.457-3.77-9.457-8.414" style="fill:#231916;fill-opacity:1;fill-rule:nonzero;stroke:none" transform="translate(429.407 804.442)"/><path d="M0 0v-4.989h-11.875v-4.194h33.271v4.194H5.391V0Z" style="fill:#231916;fill-opacity:1;fill-rule:nonzero;stroke:none" transform="translate(497.33 823.43)"/><path d="M0 0v-4.188h20.922v-9.87h5.723V0Z" style="fill:#231916;fill-opacity:1;fill-rule:nonzero;stroke:none" transform="translate(488.914 830.952)"/><path d="M0 0c0 2.745 2.48 4.976 5.531 4.976 3.053 0 5.536-2.231 5.536-4.976S8.584-4.979 5.531-4.979C2.48-4.979 0-2.745 0 0m-4.838 0c0-5.091 4.651-9.233 10.369-9.233 5.721 0 10.374 4.142 10.374 9.233S11.252 9.233 5.531 9.233C-.187 9.233-4.838 5.091-4.838 0" style="fill:#231916;fill-opacity:1;fill-rule:nonzero;stroke:none" transform="translate(496.478 805.264)"/><path d="M0 0h18.201c6.444 0 11.055 0 15.623 9.479l13.25 27.5c3.439 7.136 7.114 10.49 12.484 12.56H40.092c-8.207 0-17.328-2.287-22.516-13.052z" style="fill:#356db5;fill-opacity:1;fill-rule:nonzero;stroke:none" transform="translate(240.563 779.079)"/><path d="M0 0h-18.199c-6.445 0-11.063.006-15.627-9.479l-4.49-9.318c-3.438-7.14-7.113-10.494-12.484-12.561h19.468c8.211 0 17.334 2.286 22.517 13.054z" style="fill:#009ea1;fill-opacity:1;fill-rule:nonzero;stroke:none" transform="translate(331.89 828.618)"/><path d="M0 0c-6.443 0-11.049 0-15.627 9.479-4.336 8.984-4.338 8.984-4.338 8.984h18.199c6.448 0 11.053-.001 15.627-9.482l4.336-8.983z" style="fill:#356db5;fill-opacity:1;fill-rule:nonzero;stroke:none" transform="translate(273.78 832.17)"/></g></svg>