<svg xmlns="http://www.w3.org/2000/svg" xmlns:xlink="http://www.w3.org/1999/xlink" width="400.02" height="64.525" viewBox="147.12128 308.73561 403.88764 68.436805"><defs><path id="a" d="M308.92 327.43h5v24.06h-5z"/><path id="b" d="M319.24 351.49v-17.86h4.81v3.38c.87-1.38 1.82-2.35 2.87-2.92 1.06-.56 2.12-.85 3.21-.85 1.4 0 2.61.45 3.62 1.36 1.02.9 1.53 2.33 1.53 4.28v12.61h-4.82v-11.43c0-.97-.09-1.63-.27-1.98-.18-.35-.42-.61-.73-.79-.31-.18-.65-.27-1.03-.27-.66 0-1.35.22-2.06.66-.71.44-1.49 1.3-2.32 2.58v11.23z"/><path id="c" d="M353.38 351.08c-1.97.54-3.81.8-5.51.8-3.03 0-5.3-.9-6.82-2.7-1.52-1.8-2.28-4.01-2.28-6.63 0-2.75.8-4.99 2.41-6.72 1.61-1.72 3.97-2.59 7.09-2.59 1.44 0 3.09.23 4.97.69v3.48c-1.94-.63-3.48-.94-4.63-.94-1.64 0-2.84.63-3.59 1.89-.76 1.26-1.14 2.65-1.14 4.16 0 1.17.22 2.26.66 3.27.43 1.01 1.04 1.75 1.83 2.22.78.46 1.66.7 2.64.7 1.41 0 2.87-.33 4.37-.97v3.34z"/><path id="d" d="M357.38 351.49v-25.67h4.82v11.19c.86-1.38 1.82-2.35 2.87-2.92 1.05-.56 2.12-.85 3.2-.85 1.41 0 2.62.45 3.63 1.36 1.02.9 1.52 2.33 1.52 4.28v12.61h-4.81v-11.43c0-.97-.1-1.63-.27-1.98-.18-.35-.42-.61-.73-.79-.31-.18-.66-.27-1.04-.27-.65 0-1.34.22-2.05.66-.71.44-1.49 1.3-2.32 2.58v11.23z"/><path id="e" d="M381.5 340.8h6.34c0-1.63-.27-2.79-.81-3.49-.54-.7-1.24-1.05-2.1-1.05-.93 0-1.7.39-2.3 1.16-.6.77-.97 1.89-1.13 3.38m11.07 10.07c-2.27.68-4.43 1.01-6.47 1.01-1.92 0-3.61-.35-5.06-1.07-1.45-.72-2.56-1.85-3.34-3.38-.78-1.53-1.17-3.2-1.17-5 0-1.66.33-3.2.99-4.62.66-1.41 1.62-2.52 2.89-3.34 1.27-.82 2.83-1.23 4.68-1.23 2.27 0 4.09.73 5.45 2.18 1.35 1.45 2.03 4.15 2.03 8.1H381.6c.1 1.2.38 2.15.81 2.84.44.69 1.02 1.24 1.77 1.65.73.4 1.73.6 2.97.6 1.6 0 3.41-.37 5.42-1.12v3.38z"/><path id="f" d="M404.54 348.87c1.37 0 2.4-.6 3.09-1.79.69-1.2 1.03-2.7 1.03-4.51 0-1.81-.34-3.31-1.03-4.51-.69-1.2-1.72-1.8-3.09-1.8-1.36 0-2.38.6-3.07 1.8-.69 1.2-1.04 2.7-1.04 4.51 0 1.81.35 3.31 1.04 4.51.69 1.19 1.71 1.79 3.07 1.79m0 3.01c-1.93 0-3.59-.37-4.97-1.12-1.38-.75-2.44-1.86-3.16-3.32-.73-1.46-1.09-3.09-1.09-4.87 0-1.78.35-3.4 1.07-4.86a7.445 7.445 0 0 1 3.15-3.32c1.4-.77 3.06-1.15 5-1.15 1.95 0 3.62.38 5 1.15 1.38.76 2.43 1.87 3.16 3.32.72 1.46 1.08 3.08 1.08 4.86 0 1.78-.37 3.41-1.1 4.87-.72 1.46-1.78 2.57-3.16 3.32-1.38.75-3.04 1.12-4.98 1.12"/><path id="g" d="M416.89 351.49v-17.86h4.82v3.38c.87-1.38 1.82-2.35 2.87-2.92 1.05-.56 2.12-.85 3.21-.85 1.4 0 2.61.45 3.63 1.36 1.01.9 1.51 2.33 1.51 4.28v12.61h-4.81v-11.43c0-.97-.09-1.63-.27-1.98-.18-.35-.42-.61-.73-.79-.31-.18-.65-.27-1.03-.27-.66 0-1.35.22-2.06.66-.72.44-1.49 1.3-2.32 2.58v11.23z"/><path id="h" d="M453.46 341.86h7.46l-3.72-9.58zm-7.39 9.63 9.38-24.06h5l9.36 24.06h-5.14l-2.5-6.43h-9.96l-2.5 6.43z"/><path id="i" d="M472.33 333.63h4.82v17.86h-4.82zm0-7.02h4.82v4h-4.82z"/><path id="j" d="M482.24 351.49v-17.86h4.82V337c.57-1.15 1.36-2.06 2.36-2.74a5.8 5.8 0 0 1 3.34-1.02c.29 0 .59.03.89.09v4.29c-.67-.24-1.3-.37-1.9-.37-.96 0-1.83.24-2.61.72-.78.48-1.47 1.21-2.08 2.19v11.33z"/><path id="k" d="M501.28 346.83c.67.76 1.29 1.27 1.87 1.54.58.27 1.17.4 1.77.4 1.28 0 2.22-.63 2.85-1.9.62-1.27.93-2.73.93-4.38 0-1.69-.3-3.03-.89-4.01-.6-.97-1.45-1.46-2.54-1.46-.69 0-1.37.25-2.07.74-.69.49-1.33 1.16-1.92 2.01v7.06zm-4.81 11.09v-24.29h4.81v3.39c.6-1.26 1.39-2.2 2.35-2.83.96-.63 2.09-.95 3.39-.95 2.17 0 3.84.81 5.02 2.44 1.19 1.62 1.78 3.76 1.78 6.4 0 2.79-.66 5.12-1.99 7-1.31 1.87-3.16 2.8-5.54 2.8-.63 0-1.22-.06-1.76-.2a5.99 5.99 0 0 1-1.54-.62c-.49-.28-1.06-.74-1.71-1.38v8.24z"/><path id="l" d="M525.61 348.87c1.37 0 2.39-.6 3.08-1.79.7-1.2 1.04-2.7 1.04-4.51 0-1.81-.34-3.31-1.04-4.51-.69-1.2-1.71-1.8-3.08-1.8-1.36 0-2.38.6-3.07 1.8-.69 1.2-1.04 2.7-1.04 4.51 0 1.81.35 3.31 1.04 4.51.69 1.19 1.71 1.79 3.07 1.79m0 3.01c-1.93 0-3.59-.37-4.97-1.12-1.38-.75-2.44-1.86-3.16-3.32-.73-1.46-1.09-3.09-1.09-4.87 0-1.78.35-3.4 1.07-4.86.72-1.45 1.77-2.56 3.16-3.32 1.38-.77 3.05-1.15 4.99-1.15 1.95 0 3.62.38 5 1.15 1.38.76 2.44 1.87 3.16 3.32.72 1.46 1.08 3.08 1.08 4.86 0 1.78-.37 3.41-1.09 4.87-.73 1.46-1.78 2.57-3.17 3.32-1.38.75-3.04 1.12-4.98 1.12"/><path id="m" d="M537.96 351.49v-17.86h4.82V337c.57-1.15 1.36-2.06 2.36-2.74a5.8 5.8 0 0 1 3.34-1.02c.29 0 .59.03.89.09v4.29c-.67-.24-1.3-.37-1.9-.37-.96 0-1.83.24-2.61.72-.78.48-1.47 1.21-2.08 2.19v11.33z"/><path id="n" d="M561.98 351.38c-1.15.34-2.05.51-2.72.51-1.57 0-2.79-.23-3.66-.67-.87-.44-1.52-1.05-1.95-1.81-.44-.76-.66-1.89-.66-3.37v-9.39h-2v-3.02h2v-3.02l4.82-.55v3.57h3.83v3.02h-3.83v8.74c0 1.28.23 2.15.69 2.6.46.45 1.12.67 2 .67.41 0 .91-.06 1.48-.19v2.91z"/><path id="o" d="M237.21 375.65c18.85 0 31.27-14.95 40.74-28.1 7.98-10.87 21.77-29.81 43.45-33.25 1.13-.18.86-1.03-.27-1.11-5.67-.41-16.09.16-27.76 7.11-14.59 8.7-25.52 26.68-37.49 35.55-6.59 4.88-17.44 9.79-27.59 4.31 0 0-9.62-4.49-9.2-16.98 0 0 .04-12.95 12.55-15.5 0 0 8.89-1.57 13.03 5.34.42.7.52 1.69-.65.78-1.37-1.06-3.47-1.93-6.69-1.62 0 0-6.26.46-8.07 6.7 0 0-1.94 5.83 2.71 10.5 0 0 2.76 3.49 8.77 3.2 12.21 0 23.75-16.21 27.18-19.64 7.49-7.49 20.32-20.24 43.04-21.75 1.16-.07 1.03-.86-.13-1.03-10.36-1.49-34.53-.24-56.54 22.89-2.68-9.22-11.63-15.34-22.45-15.12-9.62.19-25.95 7.61-25.95 27.38 0 21 18.17 30.34 31.32 30.34"/><path id="p" d="M210.25 367.02c-5.07-5.81-8.15-13.4-8.15-21.71 0-.37.01-.75.02-1.12-7.56-8.67-15.73-18.19-25.29-23.89-11.57-6.9-21.92-7.51-27.62-7.12-1.29.09-1.51.94-.25 1.15 21.59 3.51 35.34 22.37 43.29 33.21 4.97 6.91 10.53 14.32 17.54 19.79.81.63 1.1.42.46-.31"/><path id="q" d="M159.42 310.16c-1.22.17-1.28.96-.09 1.04 22.69 1.42 36.34 15.15 42.95 21.74.41.4.94.99 1.59 1.71 1.06-3.13 2.58-6.03 4.48-8.66-19.73-16.29-39.73-17.14-48.93-15.83"/><path id="r" d="M326.63 364.87c1.47.71 3.5 2.96 3.87 3.57.11-.09.63-.58 1.56-1.45.01-.01.02-.01.02-.01-.04-.06-1.5-2.17-4.66-3.51-.16.28-.63 1.12-.79 1.4z"/><path id="s" d="M333.41 370.04h2.38v-11.13h-2.38v4.23h-2.43v1.37h2.43z"/><path id="t" d="M327.43 368.84h-2.38v5.53h10.73v-1.38h-8.35z"/><path id="u" d="M350.25 364.89c.23-.23.4-.83.47-1.33.08-.49.11-1.01.11-1.55v-2.76H339.3v1.37h9.15v1.44c0 .53-.02 1.03-.07 1.53s-.13.96-.25 1.38c0 .01-.01.03-.02.07h-10.28v1.37h6.1v2.26h-4.65v1.37h9.16v4.33h2.37v-5.7h-4.49v-2.26h6.1v-1.37h-2.32l.15-.15z"/><path id="v" d="M311.56 368.84h-2.38v5.53h11.01v-1.38H311.56z"/><path id="w" d="M310.96 366.35c-1.3 0-2.31-1.21-2.31-2.91 0-1.71 1.01-2.91 2.31-2.92 1.3.01 2.31 1.21 2.31 2.92 0 1.7-1.01 2.91-2.31 2.91m0-7.2c-2.59 0-4.66 1.74-4.67 4.29.01 2.54 2.08 4.29 4.67 4.29 2.58 0 4.66-1.75 4.67-4.29-.01-2.55-2.09-4.29-4.67-4.29"/><path id="x" d="M381.43 365.52c.26-.26.57-1.07.66-1.57.1-.51.15-1.1.15-1.75v-2.95h-11.51v1.37h9.13v1.63c0 .64-.03 1.21-.08 1.72-.06.5-.19 1.19-.4 1.65 0 .01-.01.02-.02.06h-2.77v-2.86h-2.39v2.86h-5.03v1.37h14.95v-1.37h-2.84c.08-.09.13-.14.15-.16z"/><path id="y" d="M376.58 369.01c1.81 0 3.49.91 3.5 2.24-.01 1.33-1.69 2.25-3.5 2.25-1.8 0-3.48-.92-3.49-2.25.01-1.33 1.69-2.24 3.49-2.24m-5.76 2.24c0 1.07.7 1.97 1.73 2.61 1.02.63 2.45 1.01 4.03 1.01 1.59 0 3.01-.38 4.04-1.01 1.03-.64 1.73-1.54 1.73-2.61 0-1.06-.7-1.96-1.73-2.6-1.03-.64-2.45-1.01-4.04-1.01-1.58 0-3.01.37-4.03 1.01-1.03.64-1.73 1.54-1.73 2.6"/><path id="z" d="M413.88 365.52c.26-.26.57-1.07.66-1.57.1-.51.15-1.1.15-1.75v-2.95h-11.51v1.37h9.13v1.63c0 .64-.03 1.21-.08 1.72-.06.5-.19 1.19-.4 1.65 0 .01-.01.02-.02.06h-2.77v-2.86h-2.4v2.86h-5.02v1.37h14.95v-1.37h-2.84c.08-.09.13-.14.15-.16z"/><path id="A" d="M409.03 369.01c1.81 0 3.48.91 3.5 2.24-.02 1.33-1.69 2.25-3.5 2.25s-3.48-.92-3.49-2.25c.01-1.33 1.68-2.24 3.49-2.24m-5.76 2.24c0 1.07.69 1.97 1.73 2.61 1.02.63 2.45 1.01 4.03 1.01s3.01-.38 4.04-1.01c1.03-.64 1.73-1.54 1.73-2.61 0-1.06-.7-1.96-1.73-2.6-1.03-.64-2.46-1.01-4.04-1.01s-3.01.37-4.03 1.01c-1.04.64-1.73 1.54-1.73 2.6"/><path id="B" d="M393.26 369.01c1.8 0 3.48.91 3.48 2.24s-1.68 2.25-3.48 2.25c-1.81 0-3.49-.92-3.5-2.25.01-1.33 1.69-2.24 3.5-2.24m-5.77 2.24c0 1.07.69 1.97 1.72 2.61 1.04.63 2.46 1.01 4.05 1.01 1.58 0 3.01-.38 4.03-1.01 1.03-.64 1.73-1.54 1.73-2.61 0-1.06-.7-1.96-1.73-2.6-1.02-.64-2.45-1.01-4.03-1.01-1.59 0-3.01.37-4.05 1.01-1.03.64-1.72 1.54-1.72 2.6"/><path id="C" d="M388.36 363.67c.01-1.3.78-2.23 1.77-2.23s1.77.93 1.77 2.23c0 1.31-.78 2.23-1.77 2.24-.99-.01-1.76-.93-1.77-2.24m4.69 2.65c.74-.61 1.2-1.46 1.2-2.48 0-.91-.37-1.69-.97-2.28-.02-.01-.07-.06-.17-.16h1.8v-1.37h-3.54v-1.55h-2.48v1.55h-3.46v1.37h1.72c-.09.1-.15.15-.16.16-.61.59-.97 1.37-.97 2.28 0 1.02.45 1.87 1.2 2.48.74.61 1.77.96 2.91.96 1.15 0 2.18-.35 2.92-.96"/><path id="D" d="M398.84 358.91h-2.38v8.82h2.38v-3.91h2.3v-1.37H398.84z"/><path id="E" d="M320.19 358.91h-2.39v11.13h2.39z"/><path id="F" d="M421.77 366.05c1.84.82 3.79 3.53 4.07 4.14.12-.1.71-.61 1.77-1.54l.02-.02c-.04-.06-2.99-3.07-5.04-3.94-.16.27-.66 1.09-.82 1.36z"/><path id="G" d="M430.92 358.91h-2.38v15.46h2.38v-9.34h2.29v-1.37h-2.29z"/><path id="H" d="M331.57 361.41v-1.38h-3.01l-.01-1.55h-2.47v1.55h-3.12v1.38z"/><path id="I" d="M322.24 367.09c.43.74.68 1.16.72 1.24 1.58-.73 5.08-2.7 5.59-7.07h-2.65c-.01 1.03-.3 4.01-3.66 5.83"/><path id="J" d="M417.16 368.93c.44.75.68 1.17.73 1.25 3.5-2.05 6.2-5.02 6.3-10.96h-2.62c-.04 4.07-.76 7.34-4.41 9.71"/><path id="K" d="M365.22 374.37h2.03v-15.46h-2.03z"/><path id="L" d="M362.27 374.2h1.92v-15.29h-1.92v5.05h-2.24v1.37h2.24z"/><path id="M" d="M358.04 364.87c.39-.97.71-2.11.97-3.47h2.08v-1.37h-6.87v1.37h2.28c-.02.45-.22 4.56-3 7.38.1.1.88.95.98 1.06 1.08-.93 2.08-1.99 2.9-3.52 1.07 1.02 2.19 2.77 2.6 3.48.17-.13 1.55-1.11 1.72-1.23-.85-1.14-2.18-2.59-3.66-3.7"/><path id="N" d="M308.92 327.43h5v24.06h-5z"/><path id="O" d="M319.24 351.49v-17.86h4.81v3.38c.87-1.38 1.82-2.35 2.87-2.92 1.06-.56 2.12-.85 3.21-.85 1.4 0 2.61.45 3.62 1.36 1.02.9 1.53 2.33 1.53 4.28v12.61h-4.82v-11.43c0-.97-.09-1.63-.27-1.98-.18-.35-.42-.61-.73-.79-.31-.18-.65-.27-1.03-.27-.66 0-1.35.22-2.06.66-.71.44-1.49 1.3-2.32 2.58v11.23z"/><path id="P" d="M353.38 351.08c-1.97.54-3.81.8-5.51.8-3.03 0-5.3-.9-6.82-2.7-1.52-1.8-2.28-4.01-2.28-6.63 0-2.75.8-4.99 2.41-6.72 1.61-1.72 3.97-2.59 7.09-2.59 1.44 0 3.09.23 4.97.69v3.48c-1.94-.63-3.48-.94-4.63-.94-1.64 0-2.84.63-3.59 1.89-.76 1.26-1.14 2.65-1.14 4.16 0 1.17.22 2.26.66 3.27.43 1.01 1.04 1.75 1.83 2.22.78.46 1.66.7 2.64.7 1.41 0 2.87-.33 4.37-.97v3.34z"/><path id="Q" d="M357.38 351.49v-25.67h4.82v11.19c.86-1.38 1.82-2.35 2.87-2.92 1.05-.56 2.12-.85 3.2-.85 1.41 0 2.62.45 3.63 1.36 1.02.9 1.52 2.33 1.52 4.28v12.61h-4.81v-11.43c0-.97-.1-1.63-.27-1.98-.18-.35-.42-.61-.73-.79-.31-.18-.66-.27-1.04-.27-.65 0-1.34.22-2.05.66-.71.44-1.49 1.3-2.32 2.58v11.23z"/><path id="R" d="M381.5 340.8h6.34c0-1.63-.27-2.79-.81-3.49-.54-.7-1.24-1.05-2.1-1.05-.93 0-1.7.39-2.3 1.16-.6.77-.97 1.89-1.13 3.38m11.07 10.07c-2.27.68-4.43 1.01-6.47 1.01-1.92 0-3.61-.35-5.06-1.07-1.45-.72-2.56-1.85-3.34-3.38-.78-1.53-1.17-3.2-1.17-5 0-1.66.33-3.2.99-4.62.66-1.41 1.62-2.52 2.89-3.34 1.27-.82 2.83-1.23 4.68-1.23 2.27 0 4.09.73 5.45 2.18 1.35 1.45 2.03 4.15 2.03 8.1H381.6c.1 1.2.38 2.15.81 2.84.44.69 1.02 1.24 1.77 1.65.73.4 1.73.6 2.97.6 1.6 0 3.41-.37 5.42-1.12v3.38z"/><path id="S" d="M404.54 348.87c1.37 0 2.4-.6 3.09-1.79.69-1.2 1.03-2.7 1.03-4.51 0-1.81-.34-3.31-1.03-4.51-.69-1.2-1.72-1.8-3.09-1.8-1.36 0-2.38.6-3.07 1.8-.69 1.2-1.04 2.7-1.04 4.51 0 1.81.35 3.31 1.04 4.51.69 1.19 1.71 1.79 3.07 1.79m0 3.01c-1.93 0-3.59-.37-4.97-1.12-1.38-.75-2.44-1.86-3.16-3.32-.73-1.46-1.09-3.09-1.09-4.87 0-1.78.35-3.4 1.07-4.86a7.445 7.445 0 0 1 3.15-3.32c1.4-.77 3.06-1.15 5-1.15 1.95 0 3.62.38 5 1.15 1.38.76 2.43 1.87 3.16 3.32.72 1.46 1.08 3.08 1.08 4.86 0 1.78-.37 3.41-1.1 4.87-.72 1.46-1.78 2.57-3.16 3.32-1.38.75-3.04 1.12-4.98 1.12"/><path id="T" d="M416.89 351.49v-17.86h4.82v3.38c.87-1.38 1.82-2.35 2.87-2.92 1.05-.56 2.12-.85 3.21-.85 1.4 0 2.61.45 3.63 1.36 1.01.9 1.51 2.33 1.51 4.28v12.61h-4.81v-11.43c0-.97-.09-1.63-.27-1.98-.18-.35-.42-.61-.73-.79-.31-.18-.65-.27-1.03-.27-.66 0-1.35.22-2.06.66-.72.44-1.49 1.3-2.32 2.58v11.23z"/><path id="U" d="M453.46 341.86h7.46l-3.72-9.58zm-7.39 9.63 9.38-24.06h5l9.36 24.06h-5.14l-2.5-6.43h-9.96l-2.5 6.43z"/><path id="V" d="M472.33 333.63h4.82v17.86h-4.82zm0-7.02h4.82v4h-4.82z"/><path id="W" d="M482.24 351.49v-17.86h4.82V337c.57-1.15 1.36-2.06 2.36-2.74a5.8 5.8 0 0 1 3.34-1.02c.29 0 .59.03.89.09v4.29c-.67-.24-1.3-.37-1.9-.37-.96 0-1.83.24-2.61.72-.78.48-1.47 1.21-2.08 2.19v11.33z"/><path id="X" d="M501.28 346.83c.67.76 1.29 1.27 1.87 1.54.58.27 1.17.4 1.77.4 1.28 0 2.22-.63 2.85-1.9.62-1.27.93-2.73.93-4.38 0-1.69-.3-3.03-.89-4.01-.6-.97-1.45-1.46-2.54-1.46-.69 0-1.37.25-2.07.74-.69.49-1.33 1.16-1.92 2.01v7.06zm-4.81 11.09v-24.29h4.81v3.39c.6-1.26 1.39-2.2 2.35-2.83.96-.63 2.09-.95 3.39-.95 2.17 0 3.84.81 5.02 2.44 1.19 1.62 1.78 3.76 1.78 6.4 0 2.79-.66 5.12-1.99 7-1.31 1.87-3.16 2.8-5.54 2.8-.63 0-1.22-.06-1.76-.2a5.99 5.99 0 0 1-1.54-.62c-.49-.28-1.06-.74-1.71-1.38v8.24z"/><path id="Y" d="M525.61 348.87c1.37 0 2.39-.6 3.08-1.79.7-1.2 1.04-2.7 1.04-4.51 0-1.81-.34-3.31-1.04-4.51-.69-1.2-1.71-1.8-3.08-1.8-1.36 0-2.38.6-3.07 1.8-.69 1.2-1.04 2.7-1.04 4.51 0 1.81.35 3.31 1.04 4.51.69 1.19 1.71 1.79 3.07 1.79m0 3.01c-1.93 0-3.59-.37-4.97-1.12-1.38-.75-2.44-1.86-3.16-3.32-.73-1.46-1.09-3.09-1.09-4.87 0-1.78.35-3.4 1.07-4.86.72-1.45 1.77-2.56 3.16-3.32 1.38-.77 3.05-1.15 4.99-1.15 1.95 0 3.62.38 5 1.15 1.38.76 2.44 1.87 3.16 3.32.72 1.46 1.08 3.08 1.08 4.86 0 1.78-.37 3.41-1.09 4.87-.73 1.46-1.78 2.57-3.17 3.32-1.38.75-3.04 1.12-4.98 1.12"/><path id="Z" d="M537.96 351.49v-17.86h4.82V337c.57-1.15 1.36-2.06 2.36-2.74a5.8 5.8 0 0 1 3.34-1.02c.29 0 .59.03.89.09v4.29c-.67-.24-1.3-.37-1.9-.37-.96 0-1.83.24-2.61.72-.78.48-1.47 1.21-2.08 2.19v11.33z"/><path id="aa" d="M561.98 351.38c-1.15.34-2.05.51-2.72.51-1.57 0-2.79-.23-3.66-.67-.87-.44-1.52-1.05-1.95-1.81-.44-.76-.66-1.89-.66-3.37v-9.39h-2v-3.02h2v-3.02l4.82-.55v3.57h3.83v3.02h-3.83v8.74c0 1.28.23 2.15.69 2.6.46.45 1.12.67 2 .67.41 0 .91-.06 1.48-.19v2.91z"/><path id="ab" d="M237.21 375.65c18.85 0 31.27-14.95 40.74-28.1 7.98-10.87 21.77-29.81 43.45-33.25 1.13-.18.86-1.03-.27-1.11-5.67-.41-16.09.16-27.76 7.11-14.59 8.7-25.52 26.68-37.49 35.55-6.59 4.88-17.44 9.79-27.59 4.31 0 0-9.62-4.49-9.2-16.98 0 0 .04-12.95 12.55-15.5 0 0 8.89-1.57 13.03 5.34.42.7.52 1.69-.65.78-1.37-1.06-3.47-1.93-6.69-1.62 0 0-6.26.46-8.07 6.7 0 0-1.94 5.83 2.71 10.5 0 0 2.76 3.49 8.77 3.2 12.21 0 23.75-16.21 27.18-19.64 7.49-7.49 20.32-20.24 43.04-21.75 1.16-.07 1.03-.86-.13-1.03-10.36-1.49-34.53-.24-56.54 22.89-2.68-9.22-11.63-15.34-22.45-15.12-9.62.19-25.95 7.61-25.95 27.38 0 21 18.17 30.34 31.32 30.34"/><path id="ac" d="M210.25 367.02c-5.07-5.81-8.15-13.4-8.15-21.71 0-.37.01-.75.02-1.12-7.56-8.67-15.73-18.19-25.29-23.89-11.57-6.9-21.92-7.51-27.62-7.12-1.29.09-1.51.94-.25 1.15 21.59 3.51 35.34 22.37 43.29 33.21 4.97 6.91 10.53 14.32 17.54 19.79.81.63 1.1.42.46-.31"/><path id="ad" d="M159.42 310.16c-1.22.17-1.28.96-.09 1.04 22.69 1.42 36.34 15.15 42.95 21.74.41.4.94.99 1.59 1.71 1.06-3.13 2.58-6.03 4.48-8.66-19.73-16.29-39.73-17.14-48.93-15.83"/><path id="ae" d="M326.63 364.87c1.47.71 3.5 2.96 3.87 3.57.11-.09.63-.58 1.56-1.45.01-.01.02-.01.02-.01-.04-.06-1.5-2.17-4.66-3.51-.16.28-.63 1.12-.79 1.4z"/><path id="af" d="M333.41 370.04h2.38v-11.13h-2.38v4.23h-2.43v1.37h2.43z"/><path id="ag" d="M327.43 368.84h-2.38v5.53h10.73v-1.38h-8.35z"/><path id="ah" d="M350.25 364.89c.23-.23.4-.83.47-1.33.08-.49.11-1.01.11-1.55v-2.76H339.3v1.37h9.15v1.44c0 .53-.02 1.03-.07 1.53s-.13.96-.25 1.38c0 .01-.01.03-.02.07h-10.28v1.37h6.1v2.26h-4.65v1.37h9.16v4.33h2.37v-5.7h-4.49v-2.26h6.1v-1.37h-2.32l.15-.15z"/><path id="ai" d="M311.56 368.84h-2.38v5.53h11.01v-1.38H311.56z"/><path id="aj" d="M310.96 366.35c-1.3 0-2.31-1.21-2.31-2.91 0-1.71 1.01-2.91 2.31-2.92 1.3.01 2.31 1.21 2.31 2.92 0 1.7-1.01 2.91-2.31 2.91m0-7.2c-2.59 0-4.66 1.74-4.67 4.29.01 2.54 2.08 4.29 4.67 4.29 2.58 0 4.66-1.75 4.67-4.29-.01-2.55-2.09-4.29-4.67-4.29"/><path id="ak" d="M381.43 365.52c.26-.26.57-1.07.66-1.57.1-.51.15-1.1.15-1.75v-2.95h-11.51v1.37h9.13v1.63c0 .64-.03 1.21-.08 1.72-.06.5-.19 1.19-.4 1.65 0 .01-.01.02-.02.06h-2.77v-2.86h-2.39v2.86h-5.03v1.37h14.95v-1.37h-2.84c.08-.09.13-.14.15-.16z"/><path id="al" d="M376.58 369.01c1.81 0 3.49.91 3.5 2.24-.01 1.33-1.69 2.25-3.5 2.25-1.8 0-3.48-.92-3.49-2.25.01-1.33 1.69-2.24 3.49-2.24m-5.76 2.24c0 1.07.7 1.97 1.73 2.61 1.02.63 2.45 1.01 4.03 1.01 1.59 0 3.01-.38 4.04-1.01 1.03-.64 1.73-1.54 1.73-2.61 0-1.06-.7-1.96-1.73-2.6-1.03-.64-2.45-1.01-4.04-1.01-1.58 0-3.01.37-4.03 1.01-1.03.64-1.73 1.54-1.73 2.6"/><path id="am" d="M413.88 365.52c.26-.26.57-1.07.66-1.57.1-.51.15-1.1.15-1.75v-2.95h-11.51v1.37h9.13v1.63c0 .64-.03 1.21-.08 1.72-.06.5-.19 1.19-.4 1.65 0 .01-.01.02-.02.06h-2.77v-2.86h-2.4v2.86h-5.02v1.37h14.95v-1.37h-2.84c.08-.09.13-.14.15-.16z"/><path id="an" d="M409.03 369.01c1.81 0 3.48.91 3.5 2.24-.02 1.33-1.69 2.25-3.5 2.25s-3.48-.92-3.49-2.25c.01-1.33 1.68-2.24 3.49-2.24m-5.76 2.24c0 1.07.69 1.97 1.73 2.61 1.02.63 2.45 1.01 4.03 1.01s3.01-.38 4.04-1.01c1.03-.64 1.73-1.54 1.73-2.61 0-1.06-.7-1.96-1.73-2.6-1.03-.64-2.46-1.01-4.04-1.01s-3.01.37-4.03 1.01c-1.04.64-1.73 1.54-1.73 2.6"/><path id="ao" d="M393.26 369.01c1.8 0 3.48.91 3.48 2.24s-1.68 2.25-3.48 2.25c-1.81 0-3.49-.92-3.5-2.25.01-1.33 1.69-2.24 3.5-2.24m-5.77 2.24c0 1.07.69 1.97 1.72 2.61 1.04.63 2.46 1.01 4.05 1.01 1.58 0 3.01-.38 4.03-1.01 1.03-.64 1.73-1.54 1.73-2.61 0-1.06-.7-1.96-1.73-2.6-1.02-.64-2.45-1.01-4.03-1.01-1.59 0-3.01.37-4.05 1.01-1.03.64-1.72 1.54-1.72 2.6"/><path id="ap" d="M388.36 363.67c.01-1.3.78-2.23 1.77-2.23s1.77.93 1.77 2.23c0 1.31-.78 2.23-1.77 2.24-.99-.01-1.76-.93-1.77-2.24m4.69 2.65c.74-.61 1.2-1.46 1.2-2.48 0-.91-.37-1.69-.97-2.28-.02-.01-.07-.06-.17-.16h1.8v-1.37h-3.54v-1.55h-2.48v1.55h-3.46v1.37h1.72c-.09.1-.15.15-.16.16-.61.59-.97 1.37-.97 2.28 0 1.02.45 1.87 1.2 2.48.74.61 1.77.96 2.91.96 1.15 0 2.18-.35 2.92-.96"/><path id="aq" d="M398.84 358.91h-2.38v8.82h2.38v-3.91h2.3v-1.37H398.84z"/><path id="ar" d="M320.19 358.91h-2.39v11.13h2.39z"/><path id="as" d="M421.77 366.05c1.84.82 3.79 3.53 4.07 4.14.12-.1.71-.61 1.77-1.54l.02-.02c-.04-.06-2.99-3.07-5.04-3.94-.16.27-.66 1.09-.82 1.36z"/><path id="at" d="M430.92 358.91h-2.38v15.46h2.38v-9.34h2.29v-1.37h-2.29z"/><path id="au" d="M331.57 361.41v-1.38h-3.01l-.01-1.55h-2.47v1.55h-3.12v1.38z"/><path id="av" d="M322.24 367.09c.43.74.68 1.16.72 1.24 1.58-.73 5.08-2.7 5.59-7.07h-2.65c-.01 1.03-.3 4.01-3.66 5.83"/><path id="aw" d="M417.16 368.93c.44.75.68 1.17.73 1.25 3.5-2.05 6.2-5.02 6.3-10.96h-2.62c-.04 4.07-.76 7.34-4.41 9.71"/><path id="ax" d="M365.22 374.37h2.03v-15.46h-2.03z"/><path id="ay" d="M362.27 374.2h1.92v-15.29h-1.92v5.05h-2.24v1.37h2.24z"/><path id="az" d="M358.04 364.87c.39-.97.71-2.11.97-3.47h2.08v-1.37h-6.87v1.37h2.28c-.02.45-.22 4.56-3 7.38.1.1.88.95.98 1.06 1.08-.93 2.08-1.99 2.9-3.52 1.07 1.02 2.19 2.77 2.6 3.48.17-.13 1.55-1.11 1.72-1.23-.85-1.14-2.18-2.59-3.66-3.7"/></defs><g transform="matrix(1.0227 0 0 1.0227 -14.044 -7.514)"><use xlink:href="#a" width="100%" height="100%" fill="#5e6062"/><use xlink:href="#a" width="100%" height="100%" fill-opacity="0" stroke="#000" stroke-opacity="0"/></g><g transform="matrix(1.0227 0 0 1.0227 -14.044 -7.514)"><use xlink:href="#b" width="100%" height="100%" fill="#5e6062"/><use xlink:href="#b" width="100%" height="100%" fill-opacity="0" stroke="#000" stroke-opacity="0"/></g><g transform="matrix(1.0227 0 0 1.0227 -14.044 -7.514)"><use xlink:href="#c" width="100%" height="100%" fill="#5e6062"/><use xlink:href="#c" width="100%" height="100%" fill-opacity="0" stroke="#000" stroke-opacity="0"/></g><g transform="matrix(1.0227 0 0 1.0227 -14.044 -7.514)"><use xlink:href="#d" width="100%" height="100%" fill="#5e6062"/><use xlink:href="#d" width="100%" height="100%" fill-opacity="0" stroke="#000" stroke-opacity="0"/></g><g transform="matrix(1.0227 0 0 1.0227 -14.044 -7.514)"><use xlink:href="#e" width="100%" height="100%" fill="#5e6062"/><use xlink:href="#e" width="100%" height="100%" fill-opacity="0" stroke="#000" stroke-opacity="0"/></g><g transform="matrix(1.0227 0 0 1.0227 -14.044 -7.514)"><use xlink:href="#f" width="100%" height="100%" fill="#5e6062"/><use xlink:href="#f" width="100%" height="100%" fill-opacity="0" stroke="#000" stroke-opacity="0"/></g><g transform="matrix(1.0227 0 0 1.0227 -14.044 -7.514)"><use xlink:href="#g" width="100%" height="100%" fill="#5e6062"/><use xlink:href="#g" width="100%" height="100%" fill-opacity="0" stroke="#000" stroke-opacity="0"/></g><g transform="matrix(1.0227 0 0 1.0227 -14.044 -7.514)"><use xlink:href="#h" width="100%" height="100%" fill="#5e6062"/><use xlink:href="#h" width="100%" height="100%" fill-opacity="0" stroke="#000" stroke-opacity="0"/></g><g transform="matrix(1.0227 0 0 1.0227 -14.044 -7.514)"><use xlink:href="#i" width="100%" height="100%" fill="#5e6062"/><use xlink:href="#i" width="100%" height="100%" fill-opacity="0" stroke="#000" stroke-opacity="0"/></g><g transform="matrix(1.0227 0 0 1.0227 -14.044 -7.514)"><use xlink:href="#j" width="100%" height="100%" fill="#5e6062"/><use xlink:href="#j" width="100%" height="100%" fill-opacity="0" stroke="#000" stroke-opacity="0"/></g><g transform="matrix(1.0227 0 0 1.0227 -14.044 -7.514)"><use xlink:href="#k" width="100%" height="100%" fill="#5e6062"/><use xlink:href="#k" width="100%" height="100%" fill-opacity="0" stroke="#000" stroke-opacity="0"/></g><g transform="matrix(1.0227 0 0 1.0227 -14.044 -7.514)"><use xlink:href="#l" width="100%" height="100%" fill="#5e6062"/><use xlink:href="#l" width="100%" height="100%" fill-opacity="0" stroke="#000" stroke-opacity="0"/></g><g transform="matrix(1.0227 0 0 1.0227 -14.044 -7.514)"><use xlink:href="#m" width="100%" height="100%" fill="#5e6062"/><use xlink:href="#m" width="100%" height="100%" fill-opacity="0" stroke="#000" stroke-opacity="0"/></g><g transform="matrix(1.0227 0 0 1.0227 -14.044 -7.514)"><use xlink:href="#n" width="100%" height="100%" fill="#5e6062"/><use xlink:href="#n" width="100%" height="100%" fill-opacity="0" stroke="#000" stroke-opacity="0"/></g><g transform="matrix(1.0227 0 0 1.0227 -14.044 -7.514)"><use xlink:href="#o" width="100%" height="100%" fill="#00aab4"/><use xlink:href="#o" width="100%" height="100%" fill-opacity="0" stroke="#000" stroke-opacity="0"/></g><g transform="matrix(1.0227 0 0 1.0227 -14.044 -7.514)"><use xlink:href="#p" width="100%" height="100%" fill="#5786c5"/><use xlink:href="#p" width="100%" height="100%" fill-opacity="0" stroke="#000" stroke-opacity="0"/></g><g transform="matrix(1.0227 0 0 1.0227 -14.044 -7.514)"><use xlink:href="#q" width="100%" height="100%" fill="#f99d1b"/><use xlink:href="#q" width="100%" height="100%" fill-opacity="0" stroke="#000" stroke-opacity="0"/></g><g transform="matrix(1.0227 0 0 1.0227 -14.044 -7.514)"><use xlink:href="#r" width="100%" height="100%" fill="#5e6062"/><use xlink:href="#r" width="100%" height="100%" fill-opacity="0" stroke="#000" stroke-opacity="0"/></g><g transform="matrix(1.0227 0 0 1.0227 -14.044 -7.514)"><use xlink:href="#s" width="100%" height="100%" fill="#5e6062"/><use xlink:href="#s" width="100%" height="100%" fill-opacity="0" stroke="#000" stroke-opacity="0"/></g><g transform="matrix(1.0227 0 0 1.0227 -14.044 -7.514)"><use xlink:href="#t" width="100%" height="100%" fill="#5e6062"/><use xlink:href="#t" width="100%" height="100%" fill-opacity="0" stroke="#000" stroke-opacity="0"/></g><g transform="matrix(1.0227 0 0 1.0227 -14.044 -7.514)"><use xlink:href="#u" width="100%" height="100%" fill="#5e6062"/><use xlink:href="#u" width="100%" height="100%" fill-opacity="0" stroke="#000" stroke-opacity="0"/></g><g transform="matrix(1.0227 0 0 1.0227 -14.044 -7.514)"><use xlink:href="#v" width="100%" height="100%" fill="#5e6062"/><use xlink:href="#v" width="100%" height="100%" fill-opacity="0" stroke="#000" stroke-opacity="0"/></g><g transform="matrix(1.0227 0 0 1.0227 -14.044 -7.514)"><use xlink:href="#w" width="100%" height="100%" fill="#5e6062"/><use xlink:href="#w" width="100%" height="100%" fill-opacity="0" stroke="#000" stroke-opacity="0"/></g><g transform="matrix(1.0227 0 0 1.0227 -14.044 -7.514)"><use xlink:href="#x" width="100%" height="100%" fill="#5e6062"/><use xlink:href="#x" width="100%" height="100%" fill-opacity="0" stroke="#000" stroke-opacity="0"/></g><g transform="matrix(1.0227 0 0 1.0227 -14.044 -7.514)"><use xlink:href="#y" width="100%" height="100%" fill="#5e6062"/><use xlink:href="#y" width="100%" height="100%" fill-opacity="0" stroke="#000" stroke-opacity="0"/></g><g transform="matrix(1.0227 0 0 1.0227 -14.044 -7.514)"><use xlink:href="#z" width="100%" height="100%" fill="#5e6062"/><use xlink:href="#z" width="100%" height="100%" fill-opacity="0" stroke="#000" stroke-opacity="0"/></g><g transform="matrix(1.0227 0 0 1.0227 -14.044 -7.514)"><use xlink:href="#A" width="100%" height="100%" fill="#5e6062"/><use xlink:href="#A" width="100%" height="100%" fill-opacity="0" stroke="#000" stroke-opacity="0"/></g><g transform="matrix(1.0227 0 0 1.0227 -14.044 -7.514)"><use xlink:href="#B" width="100%" height="100%" fill="#5e6062"/><use xlink:href="#B" width="100%" height="100%" fill-opacity="0" stroke="#000" stroke-opacity="0"/></g><g transform="matrix(1.0227 0 0 1.0227 -14.044 -7.514)"><use xlink:href="#C" width="100%" height="100%" fill="#5e6062"/><use xlink:href="#C" width="100%" height="100%" fill-opacity="0" stroke="#000" stroke-opacity="0"/></g><g transform="matrix(1.0227 0 0 1.0227 -14.044 -7.514)"><use xlink:href="#D" width="100%" height="100%" fill="#5e6062"/><use xlink:href="#D" width="100%" height="100%" fill-opacity="0" stroke="#000" stroke-opacity="0"/></g><g transform="matrix(1.0227 0 0 1.0227 -14.044 -7.514)"><use xlink:href="#E" width="100%" height="100%" fill="#5e6062"/><use xlink:href="#E" width="100%" height="100%" fill-opacity="0" stroke="#000" stroke-opacity="0"/></g><g transform="matrix(1.0227 0 0 1.0227 -14.044 -7.514)"><use xlink:href="#F" width="100%" height="100%" fill="#5e6062"/><use xlink:href="#F" width="100%" height="100%" fill-opacity="0" stroke="#000" stroke-opacity="0"/></g><g transform="matrix(1.0227 0 0 1.0227 -14.044 -7.514)"><use xlink:href="#G" width="100%" height="100%" fill="#5e6062"/><use xlink:href="#G" width="100%" height="100%" fill-opacity="0" stroke="#000" stroke-opacity="0"/></g><g transform="matrix(1.0227 0 0 1.0227 -14.044 -7.514)"><use xlink:href="#H" width="100%" height="100%" fill="#5e6062"/><use xlink:href="#H" width="100%" height="100%" fill-opacity="0" stroke="#000" stroke-opacity="0"/></g><g transform="matrix(1.0227 0 0 1.0227 -14.044 -7.514)"><use xlink:href="#I" width="100%" height="100%" fill="#5e6062"/><use xlink:href="#I" width="100%" height="100%" fill-opacity="0" stroke="#000" stroke-opacity="0"/></g><g transform="matrix(1.0227 0 0 1.0227 -14.044 -7.514)"><use xlink:href="#J" width="100%" height="100%" fill="#5e6062"/><use xlink:href="#J" width="100%" height="100%" fill-opacity="0" stroke="#000" stroke-opacity="0"/></g><g transform="matrix(1.0227 0 0 1.0227 -14.044 -7.514)"><use xlink:href="#K" width="100%" height="100%" fill="#5e6062"/><use xlink:href="#K" width="100%" height="100%" fill-opacity="0" stroke="#000" stroke-opacity="0"/></g><g transform="matrix(1.0227 0 0 1.0227 -14.044 -7.514)"><use xlink:href="#L" width="100%" height="100%" fill="#5e6062"/><use xlink:href="#L" width="100%" height="100%" fill-opacity="0" stroke="#000" stroke-opacity="0"/></g><g transform="matrix(1.0227 0 0 1.0227 -14.044 -7.514)"><use xlink:href="#M" width="100%" height="100%" fill="#5e6062"/><use xlink:href="#M" width="100%" height="100%" fill-opacity="0" stroke="#000" stroke-opacity="0"/></g><g transform="matrix(1.0227 0 0 1.0227 -14.044 -7.514)"><use xlink:href="#N" width="100%" height="100%" fill="#5e6062"/><use xlink:href="#N" width="100%" height="100%" fill-opacity="0" stroke="#000" stroke-opacity="0"/></g><g transform="matrix(1.0227 0 0 1.0227 -14.044 -7.514)"><use xlink:href="#O" width="100%" height="100%" fill="#5e6062"/><use xlink:href="#O" width="100%" height="100%" fill-opacity="0" stroke="#000" stroke-opacity="0"/></g><g transform="matrix(1.0227 0 0 1.0227 -14.044 -7.514)"><use xlink:href="#P" width="100%" height="100%" fill="#5e6062"/><use xlink:href="#P" width="100%" height="100%" fill-opacity="0" stroke="#000" stroke-opacity="0"/></g><g transform="matrix(1.0227 0 0 1.0227 -14.044 -7.514)"><use xlink:href="#Q" width="100%" height="100%" fill="#5e6062"/><use xlink:href="#Q" width="100%" height="100%" fill-opacity="0" stroke="#000" stroke-opacity="0"/></g><g transform="matrix(1.0227 0 0 1.0227 -14.044 -7.514)"><use xlink:href="#R" width="100%" height="100%" fill="#5e6062"/><use xlink:href="#R" width="100%" height="100%" fill-opacity="0" stroke="#000" stroke-opacity="0"/></g><g transform="matrix(1.0227 0 0 1.0227 -14.044 -7.514)"><use xlink:href="#S" width="100%" height="100%" fill="#5e6062"/><use xlink:href="#S" width="100%" height="100%" fill-opacity="0" stroke="#000" stroke-opacity="0"/></g><g transform="matrix(1.0227 0 0 1.0227 -14.044 -7.514)"><use xlink:href="#T" width="100%" height="100%" fill="#5e6062"/><use xlink:href="#T" width="100%" height="100%" fill-opacity="0" stroke="#000" stroke-opacity="0"/></g><g transform="matrix(1.0227 0 0 1.0227 -14.044 -7.514)"><use xlink:href="#U" width="100%" height="100%" fill="#5e6062"/><use xlink:href="#U" width="100%" height="100%" fill-opacity="0" stroke="#000" stroke-opacity="0"/></g><g transform="matrix(1.0227 0 0 1.0227 -14.044 -7.514)"><use xlink:href="#V" width="100%" height="100%" fill="#5e6062"/><use xlink:href="#V" width="100%" height="100%" fill-opacity="0" stroke="#000" stroke-opacity="0"/></g><g transform="matrix(1.0227 0 0 1.0227 -14.044 -7.514)"><use xlink:href="#W" width="100%" height="100%" fill="#5e6062"/><use xlink:href="#W" width="100%" height="100%" fill-opacity="0" stroke="#000" stroke-opacity="0"/></g><g transform="matrix(1.0227 0 0 1.0227 -14.044 -7.514)"><use xlink:href="#X" width="100%" height="100%" fill="#5e6062"/><use xlink:href="#X" width="100%" height="100%" fill-opacity="0" stroke="#000" stroke-opacity="0"/></g><g transform="matrix(1.0227 0 0 1.0227 -14.044 -7.514)"><use xlink:href="#Y" width="100%" height="100%" fill="#5e6062"/><use xlink:href="#Y" width="100%" height="100%" fill-opacity="0" stroke="#000" stroke-opacity="0"/></g><g transform="matrix(1.0227 0 0 1.0227 -14.044 -7.514)"><use xlink:href="#Z" width="100%" height="100%" fill="#5e6062"/><use xlink:href="#Z" width="100%" height="100%" fill-opacity="0" stroke="#000" stroke-opacity="0"/></g><g transform="matrix(1.0227 0 0 1.0227 -14.044 -7.514)"><use xlink:href="#aa" width="100%" height="100%" fill="#5e6062"/><use xlink:href="#aa" width="100%" height="100%" fill-opacity="0" stroke="#000" stroke-opacity="0"/></g><g transform="matrix(1.0227 0 0 1.0227 -14.044 -7.514)"><use xlink:href="#ab" width="100%" height="100%" fill="#00aab4"/><use xlink:href="#ab" width="100%" height="100%" fill-opacity="0" stroke="#000" stroke-opacity="0"/></g><g transform="matrix(1.0227 0 0 1.0227 -14.044 -7.514)"><use xlink:href="#ac" width="100%" height="100%" fill="#5786c5"/><use xlink:href="#ac" width="100%" height="100%" fill-opacity="0" stroke="#000" stroke-opacity="0"/></g><g transform="matrix(1.0227 0 0 1.0227 -14.044 -7.514)"><use xlink:href="#ad" width="100%" height="100%" fill="#f99d1b"/><use xlink:href="#ad" width="100%" height="100%" fill-opacity="0" stroke="#000" stroke-opacity="0"/></g><g transform="matrix(1.0227 0 0 1.0227 -14.044 -7.514)"><use xlink:href="#ae" width="100%" height="100%" fill="#5e6062"/><use xlink:href="#ae" width="100%" height="100%" fill-opacity="0" stroke="#000" stroke-opacity="0"/></g><g transform="matrix(1.0227 0 0 1.0227 -14.044 -7.514)"><use xlink:href="#af" width="100%" height="100%" fill="#5e6062"/><use xlink:href="#af" width="100%" height="100%" fill-opacity="0" stroke="#000" stroke-opacity="0"/></g><g transform="matrix(1.0227 0 0 1.0227 -14.044 -7.514)"><use xlink:href="#ag" width="100%" height="100%" fill="#5e6062"/><use xlink:href="#ag" width="100%" height="100%" fill-opacity="0" stroke="#000" stroke-opacity="0"/></g><g transform="matrix(1.0227 0 0 1.0227 -14.044 -7.514)"><use xlink:href="#ah" width="100%" height="100%" fill="#5e6062"/><use xlink:href="#ah" width="100%" height="100%" fill-opacity="0" stroke="#000" stroke-opacity="0"/></g><g transform="matrix(1.0227 0 0 1.0227 -14.044 -7.514)"><use xlink:href="#ai" width="100%" height="100%" fill="#5e6062"/><use xlink:href="#ai" width="100%" height="100%" fill-opacity="0" stroke="#000" stroke-opacity="0"/></g><g transform="matrix(1.0227 0 0 1.0227 -14.044 -7.514)"><use xlink:href="#aj" width="100%" height="100%" fill="#5e6062"/><use xlink:href="#aj" width="100%" height="100%" fill-opacity="0" stroke="#000" stroke-opacity="0"/></g><g transform="matrix(1.0227 0 0 1.0227 -14.044 -7.514)"><use xlink:href="#ak" width="100%" height="100%" fill="#5e6062"/><use xlink:href="#ak" width="100%" height="100%" fill-opacity="0" stroke="#000" stroke-opacity="0"/></g><g transform="matrix(1.0227 0 0 1.0227 -14.044 -7.514)"><use xlink:href="#al" width="100%" height="100%" fill="#5e6062"/><use xlink:href="#al" width="100%" height="100%" fill-opacity="0" stroke="#000" stroke-opacity="0"/></g><g transform="matrix(1.0227 0 0 1.0227 -14.044 -7.514)"><use xlink:href="#am" width="100%" height="100%" fill="#5e6062"/><use xlink:href="#am" width="100%" height="100%" fill-opacity="0" stroke="#000" stroke-opacity="0"/></g><g transform="matrix(1.0227 0 0 1.0227 -14.044 -7.514)"><use xlink:href="#an" width="100%" height="100%" fill="#5e6062"/><use xlink:href="#an" width="100%" height="100%" fill-opacity="0" stroke="#000" stroke-opacity="0"/></g><g transform="matrix(1.0227 0 0 1.0227 -14.044 -7.514)"><use xlink:href="#ao" width="100%" height="100%" fill="#5e6062"/><use xlink:href="#ao" width="100%" height="100%" fill-opacity="0" stroke="#000" stroke-opacity="0"/></g><g transform="matrix(1.0227 0 0 1.0227 -14.044 -7.514)"><use xlink:href="#ap" width="100%" height="100%" fill="#5e6062"/><use xlink:href="#ap" width="100%" height="100%" fill-opacity="0" stroke="#000" stroke-opacity="0"/></g><g transform="matrix(1.0227 0 0 1.0227 -14.044 -7.514)"><use xlink:href="#aq" width="100%" height="100%" fill="#5e6062"/><use xlink:href="#aq" width="100%" height="100%" fill-opacity="0" stroke="#000" stroke-opacity="0"/></g><g transform="matrix(1.0227 0 0 1.0227 -14.044 -7.514)"><use xlink:href="#ar" width="100%" height="100%" fill="#5e6062"/><use xlink:href="#ar" width="100%" height="100%" fill-opacity="0" stroke="#000" stroke-opacity="0"/></g><g transform="matrix(1.0227 0 0 1.0227 -14.044 -7.514)"><use xlink:href="#as" width="100%" height="100%" fill="#5e6062"/><use xlink:href="#as" width="100%" height="100%" fill-opacity="0" stroke="#000" stroke-opacity="0"/></g><g transform="matrix(1.0227 0 0 1.0227 -14.044 -7.514)"><use xlink:href="#at" width="100%" height="100%" fill="#5e6062"/><use xlink:href="#at" width="100%" height="100%" fill-opacity="0" stroke="#000" stroke-opacity="0"/></g><g transform="matrix(1.0227 0 0 1.0227 -14.044 -7.514)"><use xlink:href="#au" width="100%" height="100%" fill="#5e6062"/><use xlink:href="#au" width="100%" height="100%" fill-opacity="0" stroke="#000" stroke-opacity="0"/></g><g transform="matrix(1.0227 0 0 1.0227 -14.044 -7.514)"><use xlink:href="#av" width="100%" height="100%" fill="#5e6062"/><use xlink:href="#av" width="100%" height="100%" fill-opacity="0" stroke="#000" stroke-opacity="0"/></g><g transform="matrix(1.0227 0 0 1.0227 -14.044 -7.514)"><use xlink:href="#aw" width="100%" height="100%" fill="#5e6062"/><use xlink:href="#aw" width="100%" height="100%" fill-opacity="0" stroke="#000" stroke-opacity="0"/></g><g transform="matrix(1.0227 0 0 1.0227 -14.044 -7.514)"><use xlink:href="#ax" width="100%" height="100%" fill="#5e6062"/><use xlink:href="#ax" width="100%" height="100%" fill-opacity="0" stroke="#000" stroke-opacity="0"/></g><g transform="matrix(1.0227 0 0 1.0227 -14.044 -7.514)"><use xlink:href="#ay" width="100%" height="100%" fill="#5e6062"/><use xlink:href="#ay" width="100%" height="100%" fill-opacity="0" stroke="#000" stroke-opacity="0"/></g><g transform="matrix(1.0227 0 0 1.0227 -14.044 -7.514)"><use xlink:href="#az" width="100%" height="100%" fill="#5e6062"/><use xlink:href="#az" width="100%" height="100%" fill-opacity="0" stroke="#000" stroke-opacity="0"/></g></svg>