<svg xmlns="http://www.w3.org/2000/svg" xml:space="preserve" width="1282.1207" height="200" viewBox="0 0 1282.1207 200"><path d="M295.121 384.936c8.973-3.871 17.627-8.3 26.012-13.446a203.363 203.363 0 0 0 27.11-19.922c4.958-4.312 9.697-8.912 14.247-13.724a16.576 16.576 0 0 1 2.944 9.43v.238c-2.909 4.05-5.933 8.03-9.137 11.887a217.094 217.094 0 0 1-25.173 25.656c-7 6.055-14.485 11.707-22.247 16.873a205.19 205.19 0 0 1 13.274 20.809c10.001 17.9 17.315 37.544 21.648 57.824h-26.565a184.052 184.052 0 0 0-13.912-48.385c-9.903-22.386-24.402-42.995-42.488-60.192-13.607-12.964-29.25-23.98-46.273-32.523a16.863 16.863 0 0 1 6.612-6.76 203.906 203.906 0 0 1 48.856 28.668 205.54 205.54 0 0 1 25.092 23.567M234.921 422.837c-1.566 9.517 4.876 18.515 14.399 20.081 9.524 1.565 18.518-4.883 20.08-14.4 1.568-9.528-4.883-18.518-14.4-20.083-9.521-1.569-18.515 4.879-20.079 14.402" style="fill:#fff;fill-opacity:1;fill-rule:nonzero;stroke:none;stroke-width:1.25806" transform="matrix(1.33333 0 0 -1.33333 -283.464 640.748)"/><path d="M234.921 422.842c-1.566 9.519 4.876 18.515 14.399 20.081 9.524 1.567 18.518-4.882 20.08-14.4 1.568-9.528-4.883-18.517-14.4-20.082-9.521-1.569-18.515 4.878-20.079 14.401m68.4 9.334a184.055 184.055 0 0 1 13.914 48.385h-87.92c-9.194 0-16.717-7.521-16.717-16.709V347.276a16.5 16.5 0 0 1 1.963-7.815c17.024 8.543 32.665 19.56 46.274 32.523 18.086 17.196 32.585 37.806 42.487 60.192" style="fill:#006cb7;fill-opacity:1;fill-rule:nonzero;stroke:none;stroke-width:1.25806" transform="matrix(1.33333 0 0 -1.33333 -283.464 640.748)"/><path d="M308.876 401.929c7.764-5.167 15.248-10.818 22.249-16.874a216.977 216.977 0 0 0 25.171-25.656c3.204-3.856 6.23-7.838 9.137-11.886v116.339c0 9.189-7.523 16.708-16.718 16.708H343.8c-4.334-20.28-11.648-39.922-21.649-57.823a205.28 205.28 0 0 0-13.275-20.808" style="fill:#faa619;fill-opacity:1;fill-rule:nonzero;stroke:none;stroke-width:1.25806" transform="matrix(1.33333 0 0 -1.33333 -283.464 640.748)"/><path d="M348.243 351.568a202.98 202.98 0 0 1-27.11 19.921c-8.386 5.147-17.04 9.576-26.012 13.446a205.454 205.454 0 0 0-25.092-23.567 203.902 203.902 0 0 0-48.857-28.666 16.563 16.563 0 0 1 8.143-2.141h119.4c5.702 0 10.754 2.895 13.775 7.283-4.55 4.813-9.29 9.411-14.247 13.724" style="fill:#00b7c7;fill-opacity:1;fill-rule:nonzero;stroke:none;stroke-width:1.25806" transform="matrix(1.33333 0 0 -1.33333 -283.464 640.748)"/><path d="M471.95 384.204h-7.816V450.3h7.817v-27.329h12.426v-7.085H471.95zm2.907-21.763H418.34c-.801 0-1.352.152-1.652.454-.302.305-.453.863-.453 1.673v22.874h8.117v-18.219h50.505zm-33.169 81.583h-26.254v6.479h26.254zm-3.106-41.6c2.539 1.822 3.808 4.385 3.808 7.692 0 3.239-1.253 5.77-3.756 7.592-2.508 1.82-5.798 2.732-9.874 2.732-4.274 0-7.665-.912-10.17-2.732-2.503-1.822-3.758-4.353-3.758-7.592 0-3.307 1.255-5.855 3.758-7.644 2.505-1.787 5.896-2.68 10.17-2.68 4.01 0 7.28.875 9.822 2.631m12.025 7.693c0-5.06-2.04-9.045-6.113-11.942-4.143-2.973-9.42-4.455-15.832-4.455-3.341 0-6.348.386-9.019 1.161-2.673.778-4.978 1.876-6.913 3.294-1.938 1.415-3.425 3.137-4.46 5.161-1.036 2.023-1.555 4.283-1.555 6.781 0 2.428.519 4.656 1.554 6.68 1.036 2.026 2.523 3.761 4.461 5.212 1.935 1.451 4.24 2.566 6.913 3.341 2.671.774 5.678 1.164 9.02 1.164 6.344 0 11.588-1.52 15.733-4.553 4.14-2.973 6.21-6.92 6.21-11.844m3.609 21.053h-50.908v6.377h50.908zM557.824 360.011h-8.116v24.395h-52.707v6.984h25.652v16.804h-35.271v6.882h60.423a259.72 259.72 0 0 1 1.052 6.225c.366 2.326.717 4.67 1.053 7.034.334 2.294.601 4.537.802 6.73.2 2.193.366 4.1.501 5.72H496.9v6.881h60.425c.801 0 1.352-.15 1.654-.455.3-.303.45-.858.45-1.67a131.34 131.34 0 0 0-.651-7.085c-.3-2.565-.62-5.262-.954-8.097-.4-2.7-.816-5.382-1.25-8.046a353.15 353.15 0 0 0-1.253-7.237h13.326v-6.882H530.77V391.39h24.95c.803 0 1.353-.151 1.655-.456.3-.302.45-.86.45-1.67zM647.209 360.519h-7.816v89.78h7.816v-34.413h13.227v-7.188H647.21zm-19.139 77.837h-19.54v-8.705c0-9.178 1.969-17.274 5.912-24.291 4.074-7.559 10.253-13.735 18.538-18.524a51.794 51.794 0 0 1-3.006-2.834 85.848 85.848 0 0 1-2.707-2.835 55.338 55.338 0 0 0-6.61 4.857 46.122 46.122 0 0 0-5.916 6.074c-4.342 4.994-7.75 10.696-10.22 17.109a42.967 42.967 0 0 0-3.658-8.858 65.428 65.428 0 0 0-5.36-8.25c-2.004-2.835-4.176-5.381-6.512-7.643-2.341-2.261-4.61-4.166-6.816-5.717a83.043 83.043 0 0 1-3.355 2.73 68.836 68.836 0 0 1-3.76 2.735c4.074 2.497 7.682 5.33 10.824 8.502 3.138 3.17 5.778 6.782 7.914 10.83 2.139 3.848 3.776 8.065 4.912 12.654 1.136 4.587 1.704 9.514 1.704 14.776v7.39h-18.94v6.78h46.596zM735.99 397.363h-7.714V450.3h7.713v-21.966h12.428v-6.882H735.99zm-29.46 48.178h-24.75v5.57h24.75zm-3.106-28.037c2.271 1.08 3.406 2.43 3.406 4.05 0 1.822-1.135 3.272-3.406 4.352-2.274 1.078-5.413 1.62-9.42 1.62-4.01 0-7.163-.542-9.468-1.62-2.305-1.08-3.459-2.53-3.459-4.351 0-1.62 1.154-2.953 3.459-4 2.305-1.046 5.459-1.567 9.468-1.567 3.944 0 7.082.503 9.42 1.516m34.87-56.074h-56.716c-.803 0-1.351.152-1.652.456-.303.303-.453.86-.453 1.668v14.678c0 .81.15 1.366.453 1.67.301.304.85.454 1.652.454h46.097v6.58h-48.202v6.072h54.513c.802 0 1.354-.15 1.655-.454.299-.303.451-.86.451-1.67v-14.068c0-.812-.152-1.367-.451-1.671-.301-.303-.853-.455-1.655-.455h-46.092v-7.288h50.4zm-19.74 74.495h-48.9v5.67h48.9zm6.21-34.414c-2.134-.336-4.54-.658-7.21-.962-2.674-.302-5.53-.555-8.57-.757a368.234 368.234 0 0 0-9.469-.506 234.663 234.663 0 0 0-9.821-.204h-24.047v5.77h24.348v6.377c-5.009.405-9.085 1.534-12.225 3.391-3.139 1.855-4.71 4.202-4.71 7.035 0 1.62.502 3.12 1.504 4.504 1.003 1.382 2.435 2.58 4.308 3.594 1.87 1.012 4.075 1.786 6.615 2.327 2.537.54 5.374.809 8.517.809 3.073 0 5.894-.27 8.467-.81 2.57-.54 4.794-1.298 6.666-2.277 1.868-.978 3.303-2.16 4.305-3.54 1.003-1.386 1.504-2.886 1.504-4.505 0-1.418-.416-2.734-1.251-3.948-.835-1.215-1.99-2.278-3.457-3.189-1.472-.91-3.223-1.655-5.26-2.228-2.04-.572-4.259-.96-6.664-1.163v-6.174c1.668 0 3.69.064 6.064.202 2.366.134 4.792.304 7.261.507 2.471.202 4.86.421 7.165.658 2.307.236 4.29.488 5.96.76zM818.26 432.688h-44.391v-11.237h44.39zm7.614-72.676h-8.015v20.954h-52.507v6.881h58.419c.802 0 1.353-.15 1.653-.456.3-.302.45-.86.45-1.669zm10.921 36.642h-81.364v6.881h36.672v11.135h-23.847c-.8 0-1.35.153-1.654.456-.3.304-.452.862-.452 1.67v32.594h7.719v-10.225h44.39v10.225h7.816v-32.595c0-.807-.152-1.365-.452-1.67-.297-.302-.852-.455-1.653-.455h-23.847v-11.135h36.672zM914.658 360.417h-7.92v89.68h7.92zm-23.348 20.446a61.21 61.21 0 0 0-6.817 5.265 84.177 84.177 0 0 0-6.513 6.477c-4.204 4.655-7.35 10.087-9.419 16.297-.936-3.037-2.24-6.023-3.906-8.957a67.046 67.046 0 0 0-5.713-8.456 65.935 65.935 0 0 0-6.664-7.285c-2.371-2.226-4.658-4.15-6.865-5.772l-6.512 5.57c8.015 5.062 14.28 11.468 18.788 19.231 4.51 7.759 6.762 16.902 6.762 27.43v7.693h-19.136v6.78h46.698v-6.78H872.67v-9.008c0-9.786 1.97-18.136 5.912-25.053 3.941-6.918 10.087-12.806 18.438-17.663zM1001.338 360.519h-7.72v49.09h-11.924v-44.838h-7.718v84.01h7.718v-31.479h11.924V450.3h7.72zm-74.857 24.695c9.353 6.14 16.535 13.581 21.542 22.32 5.01 8.738 7.62 18.742 7.819 30.013H931.59v6.78h30.166c.799 0 1.349-.151 1.652-.455.3-.304.449-.861.449-1.669-.27-6.953-1.037-13.279-2.305-18.979-1.27-5.703-3.14-11.084-5.612-16.145a68.142 68.142 0 0 0-9.47-14.12c-3.771-4.354-8.264-8.554-13.474-12.602zM1082.598 404.143h-7.911V450.3h7.911v-16.701h12.124v-6.985h-12.124zm2.305-42.915h-56.118c-.801 0-1.347.15-1.652.455-.297.304-.446.86-.446 1.67v18.117c0 .809.15 1.368.446 1.67.305.304.85.457 1.652.457h45.695v9.514h-47.793v6.58h54.007c.804 0 1.356-.151 1.657-.455.299-.307.451-.861.451-1.672v-18.016c0-.808-.152-1.368-.451-1.67-.301-.303-.853-.455-1.657-.455h-45.592v-9.719h49.801zm-35.373 67.106h-24.849v-13.057h24.85zm7.719-17.51c0-.809-.153-1.366-.453-1.67-.3-.302-.85-.456-1.65-.456h-36.08c-.8 0-1.348.154-1.651.456-.3.304-.452.861-.452 1.67v36.642h7.718v-12.552h24.85v12.552h7.718zM1172.282 381.875h-7.713v8.706h-21.043v6.476h21.042V450.2h7.714zm-32.862 44.536c2.132 1.958 3.204 4.353 3.204 7.188 0 1.415-.253 2.766-.752 4.048-.5 1.28-1.305 2.38-2.406 3.291-1.103.91-2.557 1.634-4.359 2.175-1.802.54-4.01.81-6.612.81-2.676 0-4.912-.27-6.716-.81-1.802-.54-3.257-1.283-4.36-2.226-1.098-.946-1.885-2.043-2.354-3.289-.47-1.252-.7-2.584-.7-4 0-2.834 1.051-5.196 3.155-7.086 2.106-1.888 5.764-2.833 10.975-2.833 5.138 0 8.78.91 10.925 2.732m34.769-63.97h-57.917c-.804 0-1.358.153-1.657.455-.3.303-.454.863-.454 1.672v20.445h8.219v-15.688h51.809zm-67.64 71.158c0 4.722 1.835 8.738 5.51 12.046 3.674 3.44 9.15 5.16 16.436 5.16 3.606 0 6.775-.439 9.515-1.315 2.741-.878 5.044-2.093 6.914-3.644 1.872-1.554 3.29-3.376 4.263-5.465.965-2.094 1.452-4.354 1.452-6.782 0-5.061-1.92-9.11-5.762-12.147-3.843-3.037-9.305-4.554-16.382-4.554-7.216 0-12.679 1.569-16.386 4.705-3.705 3.139-5.56 7.137-5.56 11.996m54.312-27.026c-1.807-.34-3.975-.642-6.514-.912a216.69 216.69 0 0 0-8.317-.707 391.523 391.523 0 0 0-9.168-.506 205.622 205.622 0 0 0-8.97-.202v-14.474h-7.915v14.271h-20.242v6.781h26.654c2.407 0 5.225.068 8.468.203 3.238.134 6.566.337 9.969.606 3.272.27 6.366.541 9.27.81 2.905.27 5.162.573 6.765.911z" style="fill:#414142;fill-opacity:1;fill-rule:nonzero;stroke:none;stroke-width:1.25806" transform="matrix(1.33333 0 0 -1.33333 -283.464 640.748)"/></svg>