<svg xmlns="http://www.w3.org/2000/svg" xml:space="preserve" width="551.14081" height="165.52919" viewBox="0 0 551.1408 165.52919"><defs><linearGradient id="a" x1="0" x2="1" y1="0" y2="0" gradientTransform="scale(70.98674 -70.98674) rotate(-51.605 -8.773 -7.61)" gradientUnits="userSpaceOnUse" spreadMethod="pad"><stop offset="0" style="stop-opacity:1;stop-color:#f36717"/><stop offset="1" style="stop-opacity:1;stop-color:#fcd205"/></linearGradient><linearGradient id="b" x1="0" x2="1" y1="0" y2="0" gradientTransform="scale(72.87562 -72.87562) rotate(-51.605 -8.524 -7.44)" gradientUnits="userSpaceOnUse" spreadMethod="pad"><stop offset="0" style="stop-opacity:1;stop-color:#f36717"/><stop offset="1" style="stop-opacity:1;stop-color:#fcd205"/></linearGradient></defs><path d="M543.672 680.336h-7.482v7.194h-5.247v-28.156h5.247v14.833h7.482zM258.661 666.242c-1.722 0-3.123 1.64-3.123 3.66 0 2.013 1.401 3.652 3.123 3.652 1.727 0 3.131-1.64 3.131-3.652 0-2.02-1.404-3.66-3.13-3.66m8.376 3.66c0 2.244-.652 4.312-1.744 5.965h3.893v6.128h-7.894v5.536h-5.247v-5.536h-7.9v-6.128h3.89c-1.092-1.653-1.746-3.721-1.746-5.965 0-5.398 3.756-9.79 8.371-9.79 4.621 0 8.377 4.392 8.377 9.79M281.202 687.53h-5.245v-28.157h5.245v14.834h7.486v6.13h-7.486zM333.38 672.633c-2.208 0-4.007 2.09-4.007 4.66 0 2.585 1.799 4.686 4.008 4.686 2.21 0 4.01-2.101 4.01-4.686 0-2.57-1.8-4.66-4.01-4.66m15.594 7.703h-6.715c-1.127 4.485-4.68 7.77-8.88 7.77-5.103 0-9.253-4.848-9.253-10.813 0-5.95 4.15-10.79 9.254-10.79 4.184 0 7.727 3.256 8.869 7.704h6.725v-22.438h5.245v35.76h-5.245zM401.69 680.336h-7.904v-6.13h7.904V651.77h5.246v35.76h-5.246zM442.167 651.769h5.247v35.761h-5.247zM492.72 680.336h-5.187v7.194h-5.245v-35.761h5.245v22.438h5.188v-22.438h5.246v35.76h-5.246zM359.191 651.769h5.244v35.761h-5.244zM308.664 669.584l5.248-.002.004 14.799c0 .813-.277 1.593-.768 2.167-.492.575-1.159.897-1.856.897H298.62v-6.128h10.05l-.005-11.733M379.488 687.53h-5.246l-.006-17.019c0-.814.275-1.594.768-2.169.492-.574 1.16-.895 1.855-.895h12.662v6.126h-10.039l.006 13.957M268.58 652.787l-5.245.006-.011-14.786c0-.812.276-1.593.768-2.167.49-.576 1.159-.9 1.853-.901l12.665-.006v6.128l-10.038.005.008 11.72M523.552 652.789l-5.243.003-.006-14.787c0-.812.273-1.592.768-2.167.49-.574 1.158-.898 1.855-.9l12.672-.004v6.127l-10.05.005.004 11.723M294.007 659.824h8.98v-7.053h-4.368v-6.129h10.049l-.004-11.716 5.248-.004.004 14.784c0 .813-.277 1.594-.767 2.168-.493.574-1.16.897-1.857.897h-3.057v7.053h8.98v6.127h-23.208zM416.241 668.32l3.911-4.085 5.725 7.483 5.726-7.483 3.912 4.085-9.638 12.592zM434.988 687.552h-18.225v-6.128h18.225zM456.404 668.318l3.91-4.083 5.725 7.483c2.175-2.839 5.73-7.484 5.73-7.484l3.91 4.086-9.644 12.592zM475.146 687.552H456.94v-6.128h18.206zM522.563 672.795h-9.96v8.667h10.032v6.127h-12.656c-1.448 0-2.623-1.371-2.623-3.062V669.73c0-1.692 1.175-3.063 2.623-3.063h12.584zM259.275 701.812l-5.066 10.387-3.04-4.26v-6.127h-2.736v21.07h2.736v-10.594l7.37 10.594h3.345l-5.851-8.256 6.46-12.814zM271.786 713.443c-.479.562-1.14.858-1.9.858s-1.394-.296-1.874-.858c-.786-.917-.887-2.487-.887-4.112 0-1.63.101-3.197.887-4.117.48-.561 1.114-.886 1.874-.886s1.421.325 1.9.886c.786.92.888 2.487.888 4.117 0 1.625-.102 3.195-.888 4.112m1.95-10.033c-.835-1.006-2.1-1.775-3.85-1.775-1.747 0-2.988.769-3.826 1.775-1.215 1.48-1.518 3.373-1.518 5.92 0 2.514.303 4.408 1.518 5.889.838 1.005 2.08 1.775 3.826 1.775 1.75 0 3.015-.77 3.85-1.775 1.217-1.481 1.521-3.375 1.521-5.888 0-2.548-.304-4.44-1.52-5.921M286.174 713.294c-.583.682-1.04 1.007-1.927 1.007-1.393 0-2.558-1.301-2.558-3.375v-9.114h-2.584v15.003h2.533v-1.627c.658 1.066 1.977 1.806 3.419 1.806 1.243 0 2.18-.385 3.065-1.422zM297.082 712.585c-.405 1.123-1.318 1.892-2.532 1.892-1.217 0-2.154-.77-2.56-1.892-.252-.68-.303-1.124-.33-2.042h5.775c-.024.918-.1 1.363-.354 2.042m-5.42-4.144c0-2.574 1.167-4.2 3.268-4.2 1.444 0 2.204.472 3.115 1.537l1.646-1.804c-1.316-1.54-2.557-2.34-4.811-2.34-3.218 0-5.776 1.983-5.776 7.696 0 4.85 2.154 7.663 5.447 7.663 3.445 0 5.447-2.959 5.447-7.22v-1.333zM310.633 708.44h-3.016c-1.518 0-2.304-.798-2.304-2.16 0-1.36.735-2.13 2.355-2.13.987 0 1.724.09 2.407.857.38.445.558 1.157.558 2.223zm.05-6.628v1.362c-.937-1.094-1.824-1.54-3.421-1.54-1.595 0-2.658.446-3.443 1.36-.66.8-1.014 1.956-1.014 3.228 0 2.514 1.494 4.32 4.432 4.32h3.396v1.067c0 1.892-.812 2.81-2.813 2.81-1.42 0-2.102-.384-2.812-1.451l-1.695 1.864c1.215 1.657 2.482 2.162 4.609 2.162 3.522 0 5.295-1.745 5.295-5.15v-10.032zM327.003 701.812v21.07h11.526v-2.87h-8.791v-6.155h7.499v-2.841h-7.5v-6.333h8.792v-2.871zM350.154 701.812v9.144c0 2.338-1.14 3.345-2.586 3.345-1.442 0-2.658-1.036-2.658-3.345v-9.144h-2.584v15.003h2.533v-1.509c.888 1.124 2.13 1.688 3.42 1.688 1.317 0 2.406-.505 3.166-1.361.988-1.125 1.292-2.545 1.292-4.232v-9.589zM364.387 712.585c-.404 1.123-1.316 1.892-2.532 1.892s-2.154-.77-2.557-1.892c-.255-.68-.306-1.124-.331-2.042h5.775c-.025.918-.101 1.363-.355 2.042m-5.42-4.144c0-2.574 1.166-4.2 3.268-4.2 1.444 0 2.204.472 3.115 1.537l1.647-1.804c-1.317-1.54-2.558-2.34-4.812-2.34-3.218 0-5.777 1.983-5.777 7.696 0 4.85 2.153 7.663 5.447 7.663 3.444 0 5.446-2.959 5.446-7.22v-1.333zM378.14 713.294c-.582.682-1.038 1.007-1.925 1.007-1.392 0-2.558-1.301-2.558-3.375v-9.114h-2.584v15.003h2.535v-1.627c.656 1.066 1.973 1.806 3.418 1.806 1.24 0 2.179-.385 3.065-1.422zM386.34 714.3c-2.33 0-2.635-2.336-2.635-4.706 0-2.364.305-4.703 2.635-4.703 2.329 0 2.609 2.339 2.609 4.703 0 2.37-.28 4.707-2.61 4.707m-.304-18.732c-1.951 0-3.191.532-4.533 1.983l1.647 1.924c.81-.89 1.519-1.333 2.787-1.333 2.177 0 3.013 1.805 3.013 3.817v1.923c-.937-1.301-2.003-1.715-3.318-1.715-1.292 0-2.355.503-3.064 1.33-1.243 1.452-1.446 3.552-1.446 6.096 0 2.546.203 4.647 1.446 6.098.709.829 1.796 1.302 3.089 1.302 1.368 0 2.407-.414 3.37-1.775v1.596h2.507v-14.913c0-3.67-2.077-6.333-5.498-6.333M400.018 698.825c-.254-.83-.56-1.422-.938-1.865-.71-.83-1.647-1.095-2.634-1.095h-1.038v2.72h.659c1.088 0 1.467.386 1.847 1.6l.709 2.338-4.484 14.292h2.736l3.067-10.563 2.988 10.563h2.762zM420.389 720.012v-6.422h7.498v-2.87h-7.498v-8.908h-2.735v21.07h11.526v-2.87zM438.267 713.443c-.48.562-1.14.858-1.9.858s-1.392-.296-1.872-.858c-.787-.917-.89-2.487-.89-4.112 0-1.63.103-3.197.89-4.117.48-.561 1.113-.886 1.873-.886s1.42.325 1.899.886c.786.92.888 2.487.888 4.117 0 1.625-.102 3.195-.888 4.112m1.95-10.033c-.835-1.006-2.101-1.775-3.85-1.775-1.747 0-2.988.769-3.824 1.775-1.216 1.48-1.521 3.373-1.521 5.92 0 2.514.305 4.408 1.52 5.889.837 1.005 2.078 1.775 3.826 1.775 1.748 0 3.014-.77 3.849-1.775 1.218-1.481 1.522-3.375 1.522-5.888 0-2.548-.304-4.44-1.522-5.921M453.337 701.812v1.511c-.886-1.126-2.128-1.688-3.42-1.688-1.317 0-2.407.503-3.167 1.36-.986 1.126-1.291 2.546-1.291 4.234v9.586h2.586v-9.143c0-2.337 1.138-3.344 2.582-3.344 1.443 0 2.66 1.037 2.66 3.344v9.143h2.583v-15.003zM468.154 701.812v9.144c0 2.338-1.14 3.345-2.584 3.345-1.445 0-2.66-1.036-2.66-3.345v-9.144h-2.584v15.003h2.534v-1.509c.886 1.124 2.128 1.688 3.42 1.688 1.317 0 2.407-.505 3.165-1.361.988-1.125 1.293-2.545 1.293-4.232v-9.589zM479.728 714.3c-2.331 0-2.685-2.308-2.685-4.97 0-2.663.354-5.002 2.685-5.002 2.33 0 2.659 2.339 2.659 5.003 0 2.66-.328 4.97-2.66 4.97m2.713-12.49v1.599c-.963-1.36-2.002-1.775-3.397-1.775-1.292 0-2.431.503-3.138 1.333-1.293 1.509-1.446 4.082-1.446 6.363 0 2.278.153 4.822 1.446 6.33.707.828 1.822 1.333 3.115 1.333 1.366 0 2.432-.384 3.367-1.688v7.576h2.586v-21.07zM496.293 708.44h-3.016c-1.519 0-2.304-.798-2.304-2.16 0-1.36.734-2.13 2.355-2.13.987 0 1.723.09 2.407.857.38.445.558 1.157.558 2.223zm.049-6.628v1.362c-.936-1.094-1.822-1.54-3.418-1.54s-2.659.446-3.445 1.36c-.661.8-1.014 1.956-1.014 3.228 0 2.514 1.494 4.32 4.433 4.32h3.395v1.067c0 1.892-.811 2.81-2.813 2.81-1.417 0-2.102-.384-2.811-1.451l-1.698 1.864c1.217 1.657 2.484 2.162 4.611 2.162 3.522 0 5.293-1.745 5.293-5.15v-10.032zM507.031 701.812c-2.406 0-3.52 2.013-3.52 4.173v8.256h-1.47v2.31h1.47v4.555h2.583v-4.555h2.482v-2.31h-2.482v-8.107c0-1.096.456-1.747 1.417-1.747h1.065v-2.575zM512.223 716.815h2.582v-15.003h-2.582zm-.078 6.157h2.736v-3.197h-2.736zM525.898 713.443c-.48.562-1.142.858-1.898.858a2.378 2.378 0 0 1-1.876-.858c-.787-.917-.887-2.487-.887-4.112 0-1.63.1-3.197.887-4.117.481-.561 1.115-.886 1.876-.886.756 0 1.417.325 1.898.886.784.92.886 2.487.886 4.117 0 1.625-.102 3.195-.886 4.112m1.951-10.033c-.837-1.006-2.104-1.775-3.849-1.775-1.749 0-2.99.769-3.825 1.775-1.217 1.48-1.52 3.373-1.52 5.92 0 2.514.303 4.408 1.52 5.889.834 1.005 2.076 1.775 3.825 1.775 1.745 0 3.012-.77 3.85-1.775 1.215-1.481 1.518-3.375 1.518-5.888 0-2.548-.303-4.44-1.519-5.921M541.046 701.812v9.144c0 2.338-1.142 3.345-2.585 3.345-1.445 0-2.66-1.036-2.66-3.345v-9.144h-2.583v15.003h2.532v-1.509c.887 1.124 2.128 1.688 3.42 1.688 1.318 0 2.405-.505 3.168-1.361.984-1.125 1.292-2.545 1.292-4.232v-9.589z" style="fill:#231f20;fill-opacity:1;fill-rule:nonzero;stroke:none" transform="matrix(1.33333 0 0 -1.33333 -173.755 1001.797)"/><path d="M201.958 739.623c-22.441-3.964-25.81-20.279-25.963-20.814-3.78-13.223 3.737-27.238 17.9-31.885 14.812-4.862 30.599 2.924 34.169 16.719.045.18 1.032 4.136.735 9.317-.67 11.667 4.975 14.683 4.982 14.688-.559.115-5.13.135-9.529-4.217-.076-.076-4.21-2.602-5.65-11.797-.437-3.126-4.326-13.824-16.329-11.842-9.112 1.502-11.717 10.688-9.921 15.962 2.849 8.372 9.422 9.988 11.782 11.166 24.168 8.148 20.126 24.428 20.126 24.428s1.693-7.491-22.302-11.725" style="fill:url(#a);stroke:none" transform="matrix(1.33333 0 0 -1.33333 -173.755 1001.797)"/><path d="M198.414 714.888c-1.723-3.519-.113-7.702 3.597-9.338 3.706-1.63 8.099-.092 9.824 3.431 1.722 3.521.117 7.703-3.589 9.332a7.69 7.69 0 0 1-3.107.655c-2.793 0-5.47-1.512-6.725-4.08" style="fill:url(#b);stroke:none" transform="matrix(1.33333 0 0 -1.33333 -173.755 1001.797)"/><path d="M205.439 653.567h-8.723c-2.19 0-3.97-1.696-3.97-3.777 0-2.083 1.78-3.776 3.97-3.776h8.722c2.19 0 3.97 1.693 3.97 3.776 0 2.081-1.78 3.777-3.97 3.777M176.064 672.258h-8.724c-2.188 0-3.967-1.695-3.967-3.776 0-2.082 1.779-3.777 3.967-3.777h8.724c2.188 0 3.968 1.695 3.968 3.777 0 2.08-1.78 3.776-3.969 3.776M149.17 710.074c1.87-1.082 4.316-.515 5.453 1.265l4.534 7.092c1.14 1.78.54 4.107-1.33 5.19a4.114 4.114 0 0 1-3 .442 3.945 3.945 0 0 1-2.451-1.707l-4.534-7.092c-1.136-1.78-.54-4.107 1.329-5.19" style="fill:#231f20;fill-opacity:1;fill-rule:nonzero;stroke:none" transform="matrix(1.33333 0 0 -1.33333 -173.755 1001.797)"/><path d="M196.543 664.705h9.017c2.188 0 3.968 1.695 3.968 3.777 0 2.081-1.78 3.776-3.968 3.776h-9.017c-5.525 0-8.833-2.114-10.633-3.887-3.933-3.875-4.028-8.74-4.008-9.677 0 0-.157-5.129-5.325-5.129l-9.391.002c-7.042 0-6.707 6.018-6.707 6.272l.002 17.012c0 2.083-1.781 3.777-3.969 3.777-2.188 0-3.968-1.694-3.968-3.777v-16.858c0-6.957 2.524-13.979 15.062-13.979h14.296v-15.036c0-2.083 1.782-3.777 3.969-3.777s3.967 1.694 3.967 3.777v27.748s-.487 5.98 6.705 5.98M176.114 690.373h-13.95c-3.477 0-4.796 2.447-5.753 3.75 0 .002-4.536 7.375-4.536 7.375-1.479 2.615-4.557 5.804-9.934 6.693-3.17.713-3.632 3.604-3.688 4.728v8.078c0 2.081-1.78 3.775-3.969 3.775s-3.968-1.694-3.968-3.775v-34.59c0-2.081 1.78-3.776 3.968-3.776 2.19 0 3.97 1.695 3.97 3.776v14.48h.352c4.962 0 6.607-3.696 6.615-3.715.01 0 4.48-7.203 4.48-7.203.048-.022 3.643-7.147 12.943-7.147l13.47-.002c2.188 0 3.97 1.695 3.97 3.777s-1.782 3.776-3.97 3.776" style="fill:#231f20;fill-opacity:1;fill-rule:nonzero;stroke:none" transform="matrix(1.33333 0 0 -1.33333 -173.755 1001.797)"/></svg>