<svg xmlns="http://www.w3.org/2000/svg" xmlns:xlink="http://www.w3.org/1999/xlink" width="757.35437" height="166.23616" viewBox="0 0 568.01602 124.67712"><symbol id="a" transform="translate(-118.451 -306.875)"><path d="M.765.645H.108V.583h.575A2 2 0 0 0 .652.334L.624.174h.074L.712.24a2 2 0 0 1 .042.282q.007.061.011.123M.88 0v.062H.403v.317H.327V.062H0V0Z"/></symbol><use xlink:href="#a" width="100%" height="100%" fill="#fff" transform="matrix(7.6 0 0 -8 1219.593 -2693.854)"/><clipPath id="b"><path d="M0 841.89h595.276V0H0Z"/></clipPath><clipPath id="c"><path d="M0 841.89h595.276V0H0Z"/></clipPath><clipPath id="d"><path d="M0 841.89h595.276V0H0Z"/></clipPath><clipPath id="e"><path d="M0 841.89h595.276V0H0Z"/></clipPath><clipPath id="f"><path d="M0 841.89h595.276V0H0Z"/></clipPath><g style="stroke-width:.268485"><path d="M221.535 906.894c0 9.244-10.337 16.737-23.089 16.737-12.75 0-23.088-7.493-23.088-16.737 0-9.245 10.337-16.737 23.088-16.737s23.09 7.492 23.09 16.736" style="fill:#3573ae;stroke-width:.268485" transform="matrix(3.7246 0 0 3.7246 -653.139 -3315.477)"/><path d="M234.446 900.33h-1.102v-8.732h1.102zm-2.868-8.234q.147 0 .21.063.064.065.063.21-.116 2.02-1.01 3.62-.893 1.6-2.667 2.711l-.927-.73q1.58-.85 2.424-2.089t.952-2.849h-2.898v-.936zm4.302 1.775q.644-.116 1.205-.287.56-.17.97-.425a2.1 2.1 0 0 0 .65-.575q.239-.331.238-.76v-.245h1.21v.244q-.01.43.244.76.254.332.673.596.42.254.971.43.552.175 1.146.273l-.644.78a8 8 0 0 1-1.736-.575 4.7 4.7 0 0 1-.732-.444 2 2 0 0 1-.517-.542q-.38.556-1.195.95a8 8 0 0 1-1.829.61zm7.688 2.03h-3.454v.79h2.175q.146 0 .21.064.063.063.064.21v1.62q0 .154-.064.214-.064.059-.21.058h-4.526v.595h4.985v.82h-5.96q-.156 0-.215-.06-.059-.057-.059-.214v-1.62q0-.145.06-.21.058-.061.213-.062h4.527v-.586h-4.8v-.83h2.46v-.79h-3.455v-.848h8.05zm7.376-3.824q.146 0 .21.064.063.063.064.21l-.084 1.17q-.044.624-.102 1.278-.06.654-.137 1.293t-.175 1.204h-1.092q.189-1.069.282-2.15.097-1.118.127-2.142h-5.17v-.927zm-2 3.26v3.091h3.142v.937h-8.07v-.937h1.758v-3.092h1.112v3.092h.937v-3.092zm8.555 1.218h-1.864v.995h1.864zm-.946-4.176q-.896 0-1.449.253-.55.255-.55.713 0 .438.555.683.556.244 1.444.244.877 0 1.44-.244.56-.244.56-.683 0-.459-.557-.713-.556-.253-1.443-.253m0 2.751q-1.504 0-2.35-.492-.85-.493-.85-1.313 0-.79.854-1.287.854-.498 2.346-.498 1.493 0 2.346.498.854.497.854 1.287 0 .82-.854 1.313-.853.492-2.346.492m-4.02.507h8.05v.918h-2.01v.995h.731q.145 0 .21.063.063.063.063.21v2.556h-1.13v-1.903h-5.016v-.926h1.122v-.995h-2.02zm12.526-3.316q-.896 0-1.449.19-.551.19-.55.542 0 .323.555.52.558.201 1.445.2.877.001 1.438-.2.561-.197.561-.52 0-.352-.555-.542-.558-.19-1.445-.19m2.751 6.438h-4.527v.693h4.986v.82h-5.96q-.156 0-.216-.06-.058-.057-.058-.214v-1.717q0-.145.058-.21.06-.061.216-.063h4.526v-.653h-4.8v-.83h5.775q.146 0 .21.063.063.065.064.21v1.69q0 .154-.064.213t-.21.058m-2.75-4.205q-1.504 0-2.352-.41t-.849-1.09q0-.666.854-1.089.854-.425 2.346-.425t2.346.425q.854.423.854 1.088c0 .454-.284.82-.853 1.09q-.855.411-2.347.41m4.03 1.368h-8.048v-.878h8.048zm10.711-4.323v6.41h-1.092v-3.913h-1.766v-.946h1.766v-1.55zm-5.58 8.566q-.157 0-.21-.059-.054-.058-.054-.215v-2.604h1.113v1.941h4.936v.937zm1.463-8.38v1.21q0 .438.162.857.16.42.443.781t.673.644.86.44l-.703.828a6.2 6.2 0 0 1-1.19-.785q-.558-.463-.83-.96a2 2 0 0 1-.283.521 4 4 0 0 1-.469.532 6 6 0 0 1-1.238.916l-.869-.74q1.074-.528 1.67-1.303c.387-.487.599-1.09.603-1.713v-1.229zm6.48.205h5.823v.927h-4.975v2.556h5.054v.936h-2.596v2.02h3.464v.936h-8.059v-.937h3.454v-2.02h-2.176q-.155 0-.209-.058t-.054-.213v-3.874q0-.146.06-.21.057-.063.213-.063m13.287 8.332V891.6h1.092v3.472h1.191v1.005h-1.19v4.245zm-3.278-4.82q-.555 0-.859.34a1.23 1.23 0 0 0-.303.84q0 .519.308.854.307.337.854.337.537 0 .85-.337.31-.336.311-.853 0-.498-.312-.84-.311-.34-.849-.34m-1.367-3.786h2.722v.898h-2.722zm1.367 7.091q-.518 0-.942-.155a2 2 0 0 1-1.185-1.112 2.2 2.2 0 0 1-.166-.858q0-.45.156-.84a1.9 1.9 0 0 1 .46-.673q.3-.283.725-.444.424-.16.952-.16.526 0 .946.16t.722.443q.303.285.463.673.161.391.161.84c.01.577-.22 1.131-.635 1.531-.21.195-.456.345-.726.44a2.7 2.7 0 0 1-.93.155m-2.567-5.637h5.093v.936h-5.093zm9.561 6.994q-.157 0-.21-.058t-.053-.215v-2.487h1.112v1.824h5.218v.936zm0-5.434q-.157 0-.21-.058t-.053-.215v-2.838h1.122v2.185h5.042v.926zm-1.27 1.054h8.05v.936h-8.05zm-57.936 9.15v10.787h-1.873v-4.9h-3.094v-1.605h3.094v-4.282zm-9.566 14.7q-.267 0-.36-.1t-.092-.368v-4.382h1.906v3.245h8.464v1.606zm4.448-14.08q.25 0 .36.108.108.108.108.36-.252 2.876-1.865 4.966t-4.875 3.278l-1.22-1.404q2.626-.82 4.098-2.25a6 6 0 0 0 1.788-3.454h-4.882v-1.605zm14.734 1.537h3.011v-2.14h1.89v7.843h-1.89v-4.08h-3.01zm-4.716 12.727q-.267 0-.368-.1t-.1-.368v-2.96q0-.252.1-.36.1-.109.368-.108h7.593v-1.07h-8.06v-1.473h9.582q.251 0 .36.108.108.11.108.36v2.928q0 .267-.109.367-.107.1-.359.1h-7.56v1.104h8.363v1.472zm-3.378-8.412q1.707-.752 2.785-2.016 1.08-1.263 1.094-2.767v-1.405h1.991v1.371q-.016.704.284 1.363.301.661.82 1.23.502.568 1.162 1.02.66.45 1.397.702l-1.17 1.321a10 10 0 0 1-2.008-1.22 6.1 6.1 0 0 1-1.47-1.623 6.2 6.2 0 0 1-1.34 1.781q-.836.778-2.04 1.48zm27.594 8.512h-1.889V904.95h1.89zm-4.917-14.115q.251 0 .36.11.11.108.11.36-.202 3.46-1.732 6.203-1.53 2.745-4.575 4.65l-1.588-1.255q2.709-1.455 4.156-3.578 1.447-2.124 1.631-4.883h-4.967v-1.607zm7.377 3.044a18 18 0 0 0 2.065-.493 7 7 0 0 0 1.664-.728 3.6 3.6 0 0 0 1.113-.986q.41-.57.41-1.305v-.418h2.073v.418q-.016.736.418 1.305.435.57 1.154 1.02.72.435 1.664.735.945.302 1.965.47l-1.104 1.337q-.735-.151-1.505-.4-.755-.246-1.47-.587a7.6 7.6 0 0 1-1.256-.76 3.6 3.6 0 0 1-.887-.929q-.65.954-2.048 1.63-1.396.678-3.136 1.046zm13.178 3.48h-5.92v1.353h3.73q.249 0 .36.11.107.107.108.36v2.775q0 .268-.11.368-.109.1-.358.1h-7.76v1.02h8.546v1.406h-10.22q-.266 0-.367-.1-.1-.101-.1-.369v-2.776q0-.251.1-.36t.368-.108h7.76v-1.004h-8.23v-1.422h4.216v-1.354h-5.92v-1.455h13.797zm12.643-6.556q.251 0 .36.107.108.11.108.36l-.142 2.007q-.076 1.07-.175 2.191-.1 1.11-.234 2.216-.135 1.096-.302 2.065H295.1q.318-1.77.486-3.688.166-1.914.217-3.67h-8.864v-1.589zm-3.428 5.585v5.302h5.385v1.605h-13.832v-1.605h3.01v-5.302h1.907v5.302h1.605v-5.302zm14.667 2.09h-3.195v1.706h3.195zm-1.623-7.158q-1.538 0-2.482.435-.945.437-.946 1.221 0 .753.953 1.171.954.419 2.475.418 1.505 0 2.468-.418.96-.418.961-1.17 0-.785-.953-1.222-.952-.435-2.476-.435m0 4.716q-2.575.001-4.03-.844-1.455-.844-1.455-2.249 0-1.355 1.464-2.208 1.462-.853 4.021-.853t4.022.853q1.464.854 1.464 2.208 0 1.405-1.464 2.25-1.463.843-4.022.843m-6.89.87h13.797v1.572h-3.444v1.706h1.254q.25 0 .36.11.108.109.108.358v4.382h-1.939v-3.26h-8.597v-1.59h1.923v-1.706h-3.462zm25.605 4.55v-1.49h-3.279v-1.454h3.28v-8.53h1.89v11.473zm-7.61-8.798q0 .636.435.953.434.318 1.388.318.987 0 1.438-.318.452-.316.452-.953 0-.6-.443-.937-.443-.334-1.447-.334-.937 0-1.38.334-.441.336-.442.937m-.236 12.008q-.266 0-.358-.1t-.093-.368v-3.545h1.94v2.407h8.53v1.606zm-1.654-12.008q0-1.204 1.003-2.007t2.71-.803q1.756 0 2.76.803 1 .803 1.001 2.007 0 1.254-1.002 2.007-1.004.753-2.76.753-1.689 0-2.7-.762-1.013-.76-1.012-1.998m2.074 7.476v-2.359h-3.144v-1.538h4.33q.42 0 1.17-.025.795-.026 1.59-.075.852-.067 1.663-.142.812-.075 1.364-.177v1.54a19 19 0 0 1-2.3.267q-1.329.084-2.784.118v2.391z" style="fill:#575757;fill-opacity:1;stroke-width:.268485" transform="matrix(3.7246 0 0 3.7246 -653.139 -3315.477)"/><g style="fill:#fff;stroke-width:.268485"><path fill="#3573ae" d="M208.302 913.103h-1.024l-1.792-2.59-.587-.85-1.57-2.27.547-1.028 5.003 6.738zm-5.554-6.558-2.385-3.486.552-1h4.228l-1.392 2.61-.334.624-.15.251.01.012zm-2.469 6.558.41-.767.568.767zm-1.033 0h-4.428l2.746-4.974 2.524 3.4zm-8.713 0 1.984-3.716 2.502-4.685 1.95 2.624-3.19 5.777zm-1.032 0h-5.56l7.462-13.517h5.315l-1.825 3.418-.334.625-.149.251.01.013zm16.805-11.288-.035-.05-.407-.616h-5.486l-.59 1.07-1.934-2.827-.032-.045-.44-.67h-6.517l-8.467 15.336h32.253z" style="fill:#fff;stroke-width:.268485" transform="matrix(3.7246 0 0 3.7246 -653.139 -3315.477)"/><g clip-path="url(#b)" style="fill:#fff;stroke-width:.268485" transform="matrix(3.7246 0 0 3.7246 -824.574 -2908.709)"><path fill="#3573ae" d="M233.556 785.697q.157.583-.065 1.141-.223.562-.829 1.096l.496.23q.732-.71.914-1.465.182-.753-.096-1.555-.03-.068-.073-.085-.041-.015-.109.015l-1.74.78.192.43z" style="fill:#fff;stroke-width:.268485"/></g><path fill="#3573ae" d="m188.44 895.681.83-.373.587 1.315.503-.225-1.296-2.894-.502.225.514 1.15-.83.37z" style="fill:#fff;stroke-width:.268485" transform="matrix(3.7246 0 0 3.7246 -653.139 -3315.477)"/><g fill="#3573ae" clip-path="url(#c)" style="fill:#fff;stroke-width:.268485" transform="matrix(3.7246 0 0 3.7246 -824.574 -2908.709)"><path d="m234.1 787.91-.511.229.526 1.175q.031.072.068.088.038.015.109-.017l2.66-1.19-.192-.431-2.27 1.016zm5.9-2.973q.213-.257.323-.569.195.244.49.418.293.175.63.282l.292-.429a1.8 1.8 0 0 1-.81-.407 1.4 1.4 0 0 1-.285-.328.9.9 0 0 1-.134-.387l-.05-.399-.58.073.051.41q.051.439-.216.848a2.24 2.24 0 0 1-.737.691l.485.305q.325-.25.54-.508m2.691.313-2.794.356.055.43 2.35-.3.04.312-2.214.283q-.078.009-.103.045t-.015.109l.11.862q.009.079.042.105.034.024.112.014l2.891-.369-.055-.428-2.438.312-.04-.323 2.203-.282q.072-.008.101-.042.028-.032.018-.11l-.109-.854q-.009-.074-.046-.101-.034-.028-.108-.019" style="fill:#fff;stroke-width:.268485"/></g><path fill="#3573ae" d="m195.206 893.265.877-.112.153 1.19.55-.07-.29-2.287-.552.07.08.624-.878.112z" style="fill:#fff;stroke-width:.268485" transform="matrix(3.7246 0 0 3.7246 -653.139 -3315.477)"/><g clip-path="url(#d)" style="fill:#fff;stroke-width:.268485" transform="matrix(3.7246 0 0 3.7246 -824.574 -2908.709)"><path fill="#3573ae" d="M248.997 784.89q-.12.552-.28 1.058l.545.07q.085-.276.166-.59.08-.315.152-.637.071-.323.135-.632l.117-.58q.009-.071-.018-.11-.028-.033-.1-.044l-3.037-.394-.06.462 2.582.337q-.08.51-.202 1.06" style="fill:#fff;stroke-width:.268485"/></g><path fill="#3573ae" d="m203.843 895.883-1.569-.204.2-1.545-.56-.073-.2 1.545-.469-.06.201-1.546-.555-.072-.2 1.545-.878-.114-.062.468 4.031.524z" style="fill:#fff;stroke-width:.268485" transform="matrix(3.7246 0 0 3.7246 -653.139 -3315.477)"/><g fill="#3573ae" clip-path="url(#e)" style="fill:#fff;stroke-width:.268485" transform="matrix(3.7246 0 0 3.7246 -824.574 -2908.709)"><path d="M254.324 785.418q.096-.21.4-.211.307-.003.719.182.408.183.61.413.203.23.108.439-.09.2-.4.196-.308-.004-.71-.185-.408-.182-.613-.408-.204-.226-.114-.426m.549 1.226q.686.307 1.179.258.494-.048.664-.423.165-.36-.125-.763-.289-.402-.974-.71t-1.18-.256q-.496.05-.66.412-.169.374.118.773.288.4.978.709m-.717.469.855.386-.205.458-.856-.387zm-.704.233-.515-.233-.192.426 2.303 1.039-.395.873.52.235.53-1.173q.03-.068.014-.11-.015-.042-.083-.073l-.336-.151.206-.457.923.416.19-.421-3.696-1.668-.19.42.928.42z" style="fill:#fff;stroke-width:.268485"/></g><path fill="#3573ae" d="M192.893 914.836h-1.67l-.79 2.1v-2.1h-1.8v6.284h1.8v-2.327l.691 2.327h1.981l-1.32-3.418zm.463 6.284h1.802v-6.284h-1.802zm7.493-4.839h1.007v4.838h1.802v-4.838h1.006v-1.446h-3.815zm6.276 2.295h1.107v-1.172h-1.107v-1.143h1.273v-1.425h-3.035v6.284h3.058v-1.213h-1.297z" style="fill:#fff;stroke-width:.268485" transform="matrix(3.7246 0 0 3.7246 -653.139 -3315.477)"/><g clip-path="url(#f)" style="fill:#fff;stroke-width:.268485" transform="matrix(3.7246 0 0 3.7246 -824.574 -2908.709)"><path fill="#3573ae" d="M244.272 805.568q-2.128 0-2.128 1.223v4.044q0 1.131 2.128 1.131.737 0 1.321-.27.585-.27.585-.717v-1.594h-1.672v1.551q0 .154-.254.153-.267 0-.266-.153v-4.36q0-.154.266-.154.255 0 .254.154v1.948h1.672v-1.843q0-1.113-1.906-1.113" style="fill:#fff;stroke-width:.268485"/></g></g></g></svg>