<svg xmlns="http://www.w3.org/2000/svg" width="227.82581pt" height="43.775902pt" viewBox="0 0 227.8258 43.775901"><path fill="#231f20" d="M52.728 11.853h-2.303v5.676h-.854v-5.676h-2.305v-.763h5.462M57.566 17.528h-.818V14.78c0-.225-.011-.431-.037-.625a1.03 1.03 0 0 0-.144-.457.628.628 0 0 0-.307-.268 1.304 1.304 0 0 0-.526-.091c-.223 0-.456.053-.698.167a3.22 3.22 0 0 0-.7.42v3.602h-.814v-6.725h.815v2.43c.26-.203.52-.374.787-.49.271-.117.548-.178.835-.178.519 0 .917.156 1.194.469.274.316.413.773.413 1.361M62.38 14.574c-.009-.426-.11-.755-.324-.988-.212-.236-.529-.353-.964-.353-.437 0-.78.136-1.04.385a1.508 1.508 0 0 0-.437.956zm.794.621h-3.56c0 .298.046.553.135.778.093.218.206.404.366.545.153.138.331.237.536.31.207.068.43.102.683.102.322 0 .659-.064.99-.194.33-.13.567-.259.707-.389h.048v.888a6.692 6.692 0 0 1-.84.286 3.33 3.33 0 0 1-.9.12c-.8 0-1.426-.215-1.877-.65-.448-.434-.671-1.051-.671-1.846 0-.792.21-1.425.645-1.882.423-.466.994-.698 1.699-.698.653 0 1.153.192 1.512.571.348.381.527.927.527 1.62M72.125 14.309c0-.508-.085-.938-.259-1.28a1.937 1.937 0 0 0-.792-.817 2.7 2.7 0 0 0-.804-.301 5.29 5.29 0 0 0-1.023-.088h-.811v4.972h.811c.405 0 .766-.034 1.073-.095.302-.054.59-.168.852-.331.313-.207.555-.479.713-.813.164-.332.24-.752.24-1.247m.895.007c0 .58-.125 1.118-.381 1.59-.253.477-.59.845-1.018 1.11a3.066 3.066 0 0 1-.986.392c-.36.084-.834.12-1.423.12h-1.628V11.09h1.609c.627 0 1.125.046 1.5.138.364.094.68.214.935.377.44.268.784.637 1.025 1.087.244.458.367.995.367 1.624M75.168 17.528h-.815v-4.83h.815zm.048-5.636h-.915v-.843h.915M80.22 16.14c0 .44-.18.797-.546 1.083-.363.283-.865.426-1.494.426-.355 0-.688-.048-.984-.132a4.377 4.377 0 0 1-.75-.279v-.908h.045c.253.192.538.348.852.458.32.115.618.173.91.173.357 0 .634-.065.835-.173a.589.589 0 0 0 .303-.545c0-.19-.057-.335-.163-.438-.108-.093-.322-.18-.633-.249-.117-.026-.262-.06-.45-.087a6.19 6.19 0 0 1-.512-.118c-.424-.111-.722-.279-.9-.49a1.217 1.217 0 0 1-.266-.799c0-.208.043-.389.12-.571.092-.175.218-.331.378-.461.16-.142.365-.252.616-.328.251-.076.53-.119.834-.119.294 0 .59.032.878.106.296.069.541.156.733.257v.872h-.045c-.199-.156-.45-.286-.751-.388-.294-.11-.59-.16-.877-.16-.288 0-.545.053-.744.17a.539.539 0 0 0-.312.512c0 .197.07.346.187.45.125.095.315.18.59.244.142.038.324.07.508.103.18.033.335.061.458.094.383.088.673.237.876.447.205.214.303.495.303.85M84.326 16.34v-1.345c-.242.015-.536.037-.87.065-.338.03-.604.07-.803.125-.229.069-.42.175-.562.309-.145.137-.216.335-.216.576 0 .278.082.488.25.626.17.143.42.212.763.212.284 0 .55-.056.785-.168.23-.11.46-.247.653-.4m.816 1.19h-.816v-.514c-.067.044-.162.12-.292.208-.118.086-.242.16-.36.203a1.722 1.722 0 0 1-.465.167 2.367 2.367 0 0 1-.61.07c-.437 0-.804-.146-1.109-.436-.305-.281-.454-.655-.454-1.102 0-.368.073-.658.24-.887.151-.229.374-.404.67-.534.29-.13.644-.214 1.059-.262.41-.047.85-.082 1.32-.108v-.125a.936.936 0 0 0-.096-.458.65.65 0 0 0-.28-.282 1.176 1.176 0 0 0-.41-.134 3.502 3.502 0 0 0-1.217.043 6.108 6.108 0 0 0-.815.247h-.045v-.82a5.55 5.55 0 0 1 .69-.144c.296-.054.592-.08.886-.08.339 0 .635.026.888.084.249.06.47.156.653.288.184.134.329.305.416.516.092.214.147.472.147.777M90.116 15.101c0-.578-.095-1.018-.288-1.315-.19-.301-.495-.447-.914-.447-.24 0-.474.047-.723.153a3.276 3.276 0 0 0-.672.392v2.773c.232.098.43.175.59.214.17.044.357.057.565.057.454 0 .802-.141 1.055-.443.259-.294.387-.762.387-1.384m.835-.022c0 .404-.052.763-.167 1.09-.115.32-.27.597-.458.804a1.96 1.96 0 0 1-.677.519 1.834 1.834 0 0 1-.81.171c-.27 0-.513-.03-.717-.095a3.642 3.642 0 0 1-.603-.26l-.054.221h-.767v-6.727h.82v2.405c.228-.191.468-.344.723-.465.262-.115.547-.177.863-.177.58 0 1.025.214 1.358.657.33.437.49 1.059.49 1.857M92.23 17.528h.815v-6.726h-.815zM97.905 14.574c0-.426-.112-.755-.324-.988-.212-.236-.54-.353-.963-.353-.44 0-.782.136-1.048.385a1.53 1.53 0 0 0-.432.956zm.793.621h-3.56c0 .298.043.553.134.778.084.218.209.404.367.545.15.138.32.237.53.31.214.068.435.102.681.102.33 0 .66-.064 1-.194.323-.13.57-.259.708-.389h.041v.888a6.735 6.735 0 0 1-.837.286 3.34 3.34 0 0 1-.904.12c-.799 0-1.424-.215-1.872-.65-.456-.434-.677-1.051-.677-1.846 0-.792.215-1.425.643-1.882.44-.466 1.003-.698 1.7-.698.66 0 1.16.192 1.51.571.357.381.536.927.536 1.62M103.029 16.34v-2.772a2.802 2.802 0 0 0-.59-.2 2.326 2.326 0 0 0-.564-.055c-.45 0-.807.156-1.057.473-.26.312-.385.763-.385 1.352 0 .566.097 1.003.296 1.305.195.297.508.446.945.446.23 0 .462-.05.698-.152.232-.103.458-.237.657-.397m.815 1.19h-.815v-.507c-.233.201-.477.361-.728.473a2.016 2.016 0 0 1-.828.167c-.573 0-1.032-.225-1.371-.664-.339-.445-.511-1.062-.511-1.848 0-.409.063-.774.18-1.09a2.64 2.64 0 0 1 .467-.824c.195-.221.426-.385.696-.499.26-.115.528-.173.805-.173.251 0 .475.025.68.08.185.054.396.134.61.246V10.8h.815M112.865 17.528h-4.245V11.09h4.245v.763h-3.388v1.766h3.388v.76h-3.388v2.388h3.388M118.194 17.528h-.813V14.78c0-.225-.009-.431-.037-.625-.028-.199-.07-.348-.141-.457a.637.637 0 0 0-.311-.268 1.3 1.3 0 0 0-.53-.091 1.66 1.66 0 0 0-.698.167 3.142 3.142 0 0 0-.694.42v3.602h-.81v-4.83h.81v.535c.255-.203.517-.374.785-.49.274-.117.553-.178.834-.178.526 0 .926.156 1.196.469.275.316.41.773.41 1.361M122.273 17.481c-.153.043-.33.084-.502.102-.177.025-.339.04-.482.04-.493 0-.867-.13-1.128-.397-.255-.268-.381-.69-.381-1.278v-2.57h-.549v-.682h.549v-1.384h.811v1.384h1.682v.683h-1.682v2.208c0 .251.004.448.017.59.009.141.056.275.12.404a.63.63 0 0 0 .265.249c.108.048.277.084.512.084.126 0 .266-.024.413-.065.141-.032.247-.073.31-.095h.045M126.503 14.574c0-.426-.116-.755-.322-.988-.21-.236-.538-.353-.966-.353-.437 0-.783.136-1.043.385a1.483 1.483 0 0 0-.432.956zm.79.621h-3.553c0 .298.043.553.126.778.097.218.216.404.367.545.153.138.33.237.534.31.21.068.439.102.685.102.325 0 .658-.064.991-.194.335-.13.571-.259.715-.389h.037v.888c-.272.111-.55.214-.834.286-.284.08-.59.12-.904.12-.796 0-1.423-.215-1.87-.65-.454-.434-.68-1.051-.68-1.846 0-.792.215-1.425.647-1.882.435-.466 1.003-.698 1.698-.698.661 0 1.162.192 1.511.571.35.381.53.927.53 1.62M131.541 13.586h-.043a2.837 2.837 0 0 0-.353-.065c-.116-.015-.25-.015-.404-.015-.247 0-.497.046-.731.167-.23.106-.456.255-.67.425v3.43h-.817v-4.83h.817v.713c.318-.253.609-.44.85-.553.248-.104.5-.16.758-.16.143 0 .243.004.305.012.07.01.162.026.288.04M135.718 15.08c0-.583-.102-1.018-.305-1.309-.196-.286-.5-.433-.912-.433-.236 0-.467.048-.7.152-.241.099-.466.231-.68.393v2.748c.225.099.424.171.593.206a2.8 2.8 0 0 0 .562.056c.456 0 .808-.156 1.064-.456.253-.309.378-.755.378-1.358m.837-.022c0 .389-.054.75-.167 1.072-.116.323-.27.6-.477.826a2.02 2.02 0 0 1-.671.496 1.971 1.971 0 0 1-.823.172c-.249 0-.474-.023-.679-.08a3.12 3.12 0 0 1-.617-.253v2.022h-.813v-6.616h.813v.511a3.25 3.25 0 0 1 .725-.457c.272-.127.558-.186.86-.186.588 0 1.04.22 1.365.659.322.442.484 1.049.484 1.834M140.84 13.586h-.045a2.53 2.53 0 0 0-.355-.065c-.11-.015-.251-.015-.404-.015-.251 0-.49.046-.724.167a3.34 3.34 0 0 0-.673.425v3.43h-.813v-4.83h.813v.713c.314-.253.61-.44.852-.553.25-.104.498-.16.751-.16.142 0 .244.004.311.012.067.01.162.026.287.04M142.423 17.528h-.815v-4.83h.815zm.055-5.636h-.92v-.843h.92M147.484 16.14c0 .44-.186.797-.545 1.083-.366.283-.865.426-1.494.426-.357 0-.686-.048-.984-.132a3.949 3.949 0 0 1-.75-.279v-.908h.045c.258.192.54.348.857.458.307.115.607.173.897.173.356 0 .635-.065.84-.173a.6.6 0 0 0 .303-.545c0-.19-.054-.335-.168-.438-.106-.093-.316-.18-.629-.249a6.455 6.455 0 0 0-.452-.087 5.719 5.719 0 0 1-.506-.118c-.424-.111-.722-.279-.908-.49a1.277 1.277 0 0 1-.262-.799c0-.208.044-.389.126-.571.082-.175.205-.331.376-.461.16-.142.365-.252.61-.328.251-.076.527-.119.84-.119.288 0 .58.032.874.106.3.069.545.156.742.257v.872h-.05a2.735 2.735 0 0 0-.75-.388c-.3-.11-.591-.16-.878-.16-.298 0-.545.053-.752.17a.55.55 0 0 0-.307.512c0 .197.064.346.188.45.12.095.317.18.592.244.145.038.313.07.5.103.188.033.34.061.464.094.376.088.673.237.878.447.205.214.303.495.303.85M151.903 14.574c-.01-.426-.117-.755-.33-.988-.213-.236-.53-.353-.965-.353-.432 0-.78.136-1.03.385a1.454 1.454 0 0 0-.447.956zm.787.621h-3.56c0 .298.045.553.137.778.087.218.204.404.364.545.15.138.33.237.536.31.206.068.433.102.68.102.325 0 .656-.064.993-.194.333-.13.567-.259.71-.389h.041v.888a6.428 6.428 0 0 1-.837.286c-.287.08-.584.12-.902.12-.797 0-1.424-.215-1.874-.65-.448-.434-.671-1.051-.671-1.846 0-.792.215-1.425.647-1.882.43-.466.991-.698 1.698-.698.652 0 1.152.192 1.51.571.351.381.528.927.528 1.62M161.064 15.588c0-.262-.04-.469-.118-.625-.078-.153-.217-.28-.427-.389a1.249 1.249 0 0 0-.497-.134 5.714 5.714 0 0 0-.718-.037h-1.347V16.8h1.135c.368 0 .675-.024.924-.061.233-.04.428-.108.579-.214.162-.11.28-.24.357-.385.073-.145.112-.324.112-.553m-.55-2.943a.906.906 0 0 0-.08-.393.648.648 0 0 0-.25-.262 1.416 1.416 0 0 0-.488-.145c-.199-.015-.439-.02-.725-.02h-1.014v1.86h1.1c.278 0 .487-.019.645-.041.16-.035.309-.091.437-.175a.736.736 0 0 0 .288-.333c.06-.143.088-.3.088-.491m1.44 2.904c0 .322-.06.603-.184.847-.121.241-.281.446-.486.606a2.213 2.213 0 0 1-.798.408c-.29.081-.657.119-1.103.119H157.1v-6.44h1.907c.469 0 .822.019 1.051.054.234.038.46.103.673.216.233.123.408.283.518.475.106.193.154.43.154.701 0 .305-.074.564-.233.782a1.63 1.63 0 0 1-.619.517v.035c.432.088.778.28 1.027.575.251.286.376.66.376 1.105M167.11 17.528h-.817v-.537a3.751 3.751 0 0 1-.787.5c-.247.11-.526.171-.824.171-.51 0-.908-.156-1.189-.465-.282-.309-.426-.766-.426-1.362V12.7h.815v2.755c0 .244.013.45.034.621.028.173.07.324.149.45.081.127.18.214.299.28.125.052.303.083.545.083.212 0 .445-.05.689-.167.247-.108.481-.242.695-.413v-3.61h.817M172.163 16.14c0 .44-.19.797-.545 1.083-.37.283-.87.426-1.498.426-.357 0-.686-.048-.99-.132a4.312 4.312 0 0 1-.744-.279v-.908h.045c.253.192.54.348.852.458.318.115.618.173.902.173.36 0 .635-.065.849-.173a.599.599 0 0 0 .294-.545c0-.19-.054-.335-.162-.438-.112-.093-.322-.18-.635-.249a5.847 5.847 0 0 0-.452-.087 6.223 6.223 0 0 1-.506-.118c-.424-.111-.722-.279-.902-.49a1.227 1.227 0 0 1-.266-.799c0-.208.046-.389.124-.571.084-.175.205-.331.376-.461a1.63 1.63 0 0 1 .616-.328c.251-.076.527-.119.835-.119.287 0 .579.032.873.106.298.069.54.156.742.257v.872h-.044a2.678 2.678 0 0 0-.761-.388c-.294-.11-.58-.16-.867-.16-.302 0-.551.053-.758.17a.537.537 0 0 0-.306.512c0 .197.063.346.187.45.12.095.317.18.592.244.145.038.313.07.502.103.186.033.339.061.462.094.377.088.668.237.878.447.199.214.307.495.307.85M174.146 17.528h-.815v-4.83h.815zm.046-5.636h-.915v-.843h.915M179.797 17.528h-.818V14.78c0-.225-.019-.431-.041-.625-.026-.199-.07-.348-.142-.457a.644.644 0 0 0-.31-.268 1.305 1.305 0 0 0-.53-.091c-.222 0-.456.053-.696.167-.24.102-.475.247-.69.42v3.602h-.821v-4.83h.82v.535c.25-.203.512-.374.782-.49.273-.117.549-.178.837-.178.52 0 .915.156 1.187.469.274.316.422.773.422 1.361M184.608 14.574c-.006-.426-.107-.755-.321-.988-.216-.236-.538-.353-.962-.353-.443 0-.782.136-1.048.385-.26.258-.402.575-.437.956zm.791.621h-3.559c0 .298.043.553.134.778.09.218.205.404.365.545.152.138.329.237.537.31.205.068.438.102.678.102.333 0 .662-.064.997-.194.33-.13.567-.259.712-.389h.038v.888a6.115 6.115 0 0 1-.834.286c-.286.08-.59.12-.902.12-.798 0-1.425-.215-1.877-.65-.453-.434-.674-1.051-.674-1.846 0-.792.218-1.425.646-1.882.428-.466 1.002-.698 1.698-.698.653 0 1.156.192 1.515.571.353.381.526.927.526 1.62M190.081 16.14c0 .44-.184.797-.545 1.083-.365.283-.858.426-1.5.426a3.56 3.56 0 0 1-.976-.132 3.972 3.972 0 0 1-.752-.279v-.908h.045c.25.192.539.348.85.458.316.115.617.173.906.173.363 0 .634-.065.837-.173a.59.59 0 0 0 .305-.545c0-.19-.052-.335-.167-.438-.108-.093-.322-.18-.627-.249-.12-.026-.268-.06-.456-.087a6.514 6.514 0 0 1-.51-.118c-.422-.111-.718-.279-.897-.49a1.228 1.228 0 0 1-.268-.799 1.295 1.295 0 0 1 .495-1.032c.168-.142.365-.252.616-.328.251-.076.529-.119.841-.119.288 0 .583.032.873.106.295.069.541.156.742.257v.872h-.043a2.885 2.885 0 0 0-.751-.388 2.567 2.567 0 0 0-.877-.16c-.303 0-.554.053-.757.17a.537.537 0 0 0-.307.512c0 .197.062.346.188.45.12.095.313.18.592.244.141.038.314.07.498.103.183.033.343.061.465.094.376.088.672.237.871.447.205.214.309.495.309.85M194.698 16.14c0 .44-.186.797-.553 1.083-.359.283-.861.426-1.494.426-.357 0-.68-.048-.982-.132a4.345 4.345 0 0 1-.752-.279v-.908h.045c.257.192.545.348.856.458.312.115.616.173.904.173.359 0 .636-.065.84-.173a.6.6 0 0 0 .304-.545.59.59 0 0 0-.167-.438c-.103-.093-.317-.18-.637-.249a5.467 5.467 0 0 0-.446-.087c-.182-.038-.357-.073-.504-.118-.426-.111-.73-.279-.908-.49a1.246 1.246 0 0 1-.264-.799c0-.208.046-.389.126-.571.08-.175.207-.331.376-.461.154-.142.366-.252.608-.328a2.92 2.92 0 0 1 .84-.119c.29 0 .584.032.878.106.297.069.539.156.736.257v.872h-.044a2.692 2.692 0 0 0-.756-.388 2.478 2.478 0 0 0-.867-.16c-.301 0-.556.053-.76.17a.54.54 0 0 0-.304.512c0 .197.063.346.186.45.117.095.315.18.586.244.153.038.32.07.506.103.188.033.333.061.465.094.374.088.666.237.871.447.206.214.31.495.31.85M204.011 17.06c-.162.069-.305.137-.433.195-.13.063-.302.128-.501.194-.18.05-.366.098-.573.133a4.034 4.034 0 0 1-1.957-.13 2.774 2.774 0 0 1-.994-.614 2.883 2.883 0 0 1-.653-1.05c-.156-.425-.232-.912-.232-1.472 0-.53.072-1.003.225-1.424.15-.415.364-.766.653-1.062.27-.275.599-.49.991-.638.384-.14.817-.218 1.288-.218.35 0 .698.043 1.032.123.346.087.73.232 1.154.443v1.01h-.065a4.135 4.135 0 0 0-1.057-.644 3.08 3.08 0 0 0-1.116-.199c-.333 0-.618.05-.884.16a1.858 1.858 0 0 0-.701.487c-.192.215-.346.49-.466.817a3.748 3.748 0 0 0-.161 1.145c0 .455.055.844.184 1.166.12.324.283.594.474.796.196.214.434.374.707.473.266.102.553.156.854.156.406 0 .79-.069 1.157-.218a3.184 3.184 0 0 0 1.009-.628h.065M208.406 14.574c-.008-.426-.112-.755-.322-.988-.21-.236-.536-.353-.964-.353-.435 0-.785.136-1.043.385a1.522 1.522 0 0 0-.441.956zm.789.621h-3.56c0 .298.047.553.137.778.09.218.212.404.368.545.15.138.33.237.534.31.205.068.437.102.68.102.328 0 .66-.064.992-.194.339-.13.572-.259.71-.389h.05v.888a6.485 6.485 0 0 1-.841.286 3.38 3.38 0 0 1-.905.12c-.794 0-1.421-.215-1.873-.65-.449-.434-.676-1.051-.676-1.846 0-.792.22-1.425.644-1.882.434-.466 1.003-.698 1.71-.698.646 0 1.154.192 1.503.571.346.381.527.927.527 1.62M214.465 17.528h-.815V14.78c0-.225-.01-.431-.035-.625-.028-.199-.072-.348-.145-.457a.578.578 0 0 0-.31-.268 1.274 1.274 0 0 0-.527-.091c-.22 0-.452.053-.692.167-.242.102-.48.247-.698.42v3.602h-.815v-4.83h.815v.535c.253-.203.512-.374.78-.49.275-.117.554-.178.839-.178.52 0 .92.156 1.192.469.277.316.411.773.411 1.361M218.54 17.481c-.152.043-.32.084-.498.102a3.73 3.73 0 0 1-.476.04c-.5 0-.877-.13-1.128-.397-.264-.268-.39-.69-.39-1.278v-2.57h-.546v-.682h.546v-1.384h.813v1.384h1.68v.683h-1.68v2.208c0 .251.007.448.018.59.015.141.056.275.117.404a.632.632 0 0 0 .265.249 1.491 1.491 0 0 0 .923.019c.152-.032.249-.073.312-.095h.045M222.78 14.574c-.006-.426-.118-.755-.328-.988-.208-.236-.532-.353-.967-.353-.432 0-.778.136-1.04.385a1.48 1.48 0 0 0-.438.956zm.788.621h-3.56c0 .298.044.553.133.778.084.218.214.404.367.545.152.138.325.237.536.31.2.068.43.102.68.102.324 0 .663-.064.992-.194.333-.13.568-.259.709-.389h.043v.888a6.44 6.44 0 0 1-.837.286 3.33 3.33 0 0 1-.899.12c-.8 0-1.429-.215-1.877-.65-.449-.434-.677-1.051-.677-1.846 0-.792.223-1.425.65-1.882.432-.466.996-.698 1.7-.698.654 0 1.157.192 1.506.571.356.381.534.927.534 1.62M227.807 13.586h-.037a2.662 2.662 0 0 0-.354-.065c-.115-.015-.245-.015-.405-.015-.252 0-.492.046-.73.167a3.29 3.29 0 0 0-.666.425v3.43h-.813v-4.83h.813v.713c.315-.253.603-.44.849-.553a1.94 1.94 0 0 1 .755-.16c.141 0 .247.004.31.012.062.01.153.026.278.04M80.134 23.459v6.882h1.533v-6.882h1.924v-1.323h-2.512s-.945-.008-.945 1.323M109.37 22.125V34.84h-8.07v-4.317h-1.518v4.9s-.008.946 1.33.946h8.447c1.336 0 1.327-.945 1.327-.945V22.125M212.387 22.125V34.84h-8.075v-4.317H202.8v4.9s-.007.946 1.328.946h8.449c1.332 0 1.324-.945 1.324-.945V22.125M167.902 23.459v6.333h1.532v-6.333h1.737v-1.323h-2.32s-.949-.008-.949 1.323M92.393 30.334v-8.23H96.9v8.23h-1.38V23.48H93.93v6.854M57.318 30.334v-8.23h4.51v8.23H60.45V23.48h-1.593v6.854M78.38 22.11v1.385h-3.724c.19 1.297.655 2.086 1.397 2.908.681.766 1.459 1.19 2.328 1.278v1.327c-.62 0-1.308-.255-2.065-.76-1.052-.705-1.835-1.529-2.345-2.867-.52 1.347-1.308 2.17-2.355 2.867-.76.505-1.464.76-2.102.76v-1.312c.885-.088 1.674-.512 2.353-1.28.754-.828 1.217-1.624 1.386-2.921h-3.74V22.11M180.704 22.11v1.385h-3.723c.188 1.297.7 2.984 1.448 3.808.684.767 1.458 1.193 2.325 1.282v1.32c-.623 0-1.311-.25-2.065-.752-1.053-.713-1.834-1.53-2.342-2.867-.527 1.345-1.314 2.169-2.354 2.867-.766.502-1.468.751-2.108.751V28.6c.884-.091 1.673-.515 2.358-1.278.751-.835 1.162-2.53 1.334-3.827h-3.74V22.11M155.251 25.839v1.453c-3.957 0-6.06-2.506-6.06-2.506-1.354 2.405-5.96 2.405-5.96 2.405V25.84c4.36 0 5.183-2.344 5.183-2.344h-4.774V22.11h11.325v1.385h-4.754c1.514 2.614 5.04 2.344 5.04 2.344M55.753 22.11v1.385h-2.817c.142 1.297.492 2.908 1.055 3.732.52.767 1.105 1.193 1.762 1.28v1.317c-.469 0-.992-.25-1.559-.755-.796-.705-1.392-1.526-1.775-2.867-.398 1.349-.995 2.17-1.784 2.867-.579.506-1.11.755-1.59.755V28.52c.669-.087 1.26-.515 1.782-1.282.567-.832.919-2.446 1.045-3.743h-2.828V22.11"/><path fill="#231f20" d="M87.396 28.252a2.308 2.308 0 0 1-2.309-2.307 2.31 2.31 0 0 1 2.31-2.307 2.307 2.307 0 1 1 0 4.614m0-6.153a3.844 3.844 0 1 0 0 7.69 3.846 3.846 0 0 0 0-7.69M77.914 36.137a2.312 2.312 0 0 1-2.315-2.307 2.308 2.308 0 0 1 2.315-2.307 2.306 2.306 0 0 1 0 4.614m0-6.156a3.843 3.843 0 0 0-3.846 3.849 3.842 3.842 0 1 0 7.684 0c0-2.127-1.719-3.85-3.838-3.85M102.456 28.252a2.308 2.308 0 1 1 .002-4.616 2.308 2.308 0 0 1-.002 4.616m0-6.153a3.846 3.846 0 1 0 .004 7.691 3.846 3.846 0 0 0-.004-7.691M149.335 36.628a2.309 2.309 0 0 1 0-4.618 2.307 2.307 0 0 1 2.307 2.307 2.311 2.311 0 0 1-2.307 2.31m0-6.156a3.848 3.848 0 0 0-3.845 3.846 3.845 3.845 0 1 0 7.69 0 3.844 3.844 0 0 0-3.845-3.846M190.434 27.343a2.255 2.255 0 0 1-2.254-2.257 2.257 2.257 0 1 1 2.253 2.257m0-6.017a3.764 3.764 0 0 0-3.76 3.76 3.763 3.763 0 0 0 3.76 3.762 3.759 3.759 0 0 0 3.762-3.762 3.76 3.76 0 0 0-3.761-3.76M113.803 23.448v-1.349h7.998s.499 8.05-8.584 8.05v-1.395s6.517.314 6.967-5.306M123.954 30.387h1.56v-8.284h-1.56zM182.427 30.387h1.557v-8.284h-1.557zM206.424 26.518c-.419-.567-.752-1.544-.97-2.519v-1.895h-1.553v1.834c-.19 1-.484 2.01-.923 2.6-.562.762-1.205 1.186-1.942 1.273v1.308c.53 0 1.11-.249 1.737-.755.858-.698 1.508-1.518 1.941-2.867.42 1.334 1.064 2.162 1.931 2.867.62.506 1.19.755 1.7.755V27.8c-.716-.088-1.356-.514-1.921-1.28M137.246 34.84h-6.692v-1.598h8.076v1.598zm1.384-4.343v1.359h-8.076v-1.333h-1.516v4.9s-.004.946 1.328.946h8.452c1.334 0 1.329-.945 1.329-.945v-4.927M166.547 34.84H159.853v-1.598h8.07v1.598zm1.377-4.343v1.359h-8.071v-1.333h-1.517v4.9s-.004.946 1.329.946h8.452c1.334 0 1.323-.945 1.323-.945v-4.927M217.522 28.753l.004-2.147h5.049v-1.384h-5.05l.006-1.712h5.448v-1.386h-5.448v-.002h-1.369v7.146c0 .87 1.217.866 1.217.866h5.6v-1.381"/><path fill="#231f20" d="M197.11 22.125v3.47h-1.988v1.384h1.989v7.86h-8.071v-3.365h-1.515v3.95s-.009.945 1.327.945h8.45c1.332 0 1.323-.945 1.323-.945V22.125M158.588 23.524h6.274v-1.433h-6.274zM161.832 29.498a2.028 2.028 0 0 1-2.03-2.028 2.03 2.03 0 1 1 2.03 2.028m4.177-5.604h-8.577v1.433h1.788a3.344 3.344 0 0 0-.767 2.143 3.38 3.38 0 0 0 6.76 0c0-.813-.285-1.563-.763-2.143h1.559M131.555 28.252a2.307 2.307 0 1 1 0-4.615 2.307 2.307 0 0 1 0 4.615m.413-6.13a3.845 3.845 0 1 0 2.595 1.433l4.025.023v6.164h1.509v-7.62M209.355 30.378h1.503V22.12h-2.88v1.414h1.376M226.315 30.378h1.51V22.12h-3.461v1.414h1.951M150.042 28.35v-1.758h-1.553v1.758h-6.458v1.38h14.692v-1.38"/><path fill="#231f20" d="M195.135 28.553h-8.978v1.38h3.5v1.517h1.553v-1.516h3.925M47.973 30.72h-.71a9.304 9.304 0 0 1-.886-1.941 7.958 7.958 0 0 1-.357-2.406c0-.76.102-1.505.312-2.235a8.624 8.624 0 0 1 .93-2.111h.791c-.366.72-.643 1.414-.831 2.078a8.379 8.379 0 0 0-.313 2.268c0 .807.086 1.56.255 2.268.17.705.443 1.399.81 2.078M64.992 26.373c0 .843-.117 1.639-.352 2.398-.193.614-.489 1.262-.881 1.948h-.711a8.4 8.4 0 0 0 .796-2.074c.171-.72.255-1.48.255-2.272a9.332 9.332 0 0 0-1.051-4.346h.71a9.55 9.55 0 0 1 .909 2.112c.215.74.325 1.486.325 2.234"/><path fill="#0f50a3" d="M5.95 39.212c0-.579-.108-1.068-.316-1.483-.212-.411-.542-.73-.998-.96a2.607 2.607 0 0 0-.71-.234c-.242-.041-.609-.064-1.092-.064h-.571v5.493h.57c.538 0 .933-.026 1.182-.075.255-.05.5-.138.737-.268.417-.236.714-.552.91-.945.188-.396.288-.882.288-1.464m2.34.018c0 .817-.187 1.549-.56 2.194-.375.644-.844 1.142-1.417 1.487-.428.258-.893.44-1.405.541a9.398 9.398 0 0 1-1.814.152H0v-8.772h3.178c.716 0 1.334.064 1.851.183.517.12.954.29 1.312.51a3.98 3.98 0 0 1 1.427 1.492c.346.628.523 1.363.523 2.213M16.36 43.605h-6.343v-8.772h6.344v1.7h-4.097v1.513h3.803v1.697h-3.803v2.169h4.097M23.414 40.887c0-.279-.054-.499-.162-.647-.112-.153-.296-.265-.55-.337a2.816 2.816 0 0 0-.728-.084 75.41 75.41 0 0 0-.975-.007h-.493V42h.165c.635 0 1.087-.004 1.366-.004.27-.007.528-.06.76-.156.232-.099.394-.229.483-.393.09-.163.134-.35.134-.56m-.553-3.572a.95.95 0 0 0-.106-.435.693.693 0 0 0-.389-.324 1.897 1.897 0 0 0-.614-.106c-.243-.004-.59-.007-1.03-.007h-.216V38.3h.353c.358 0 .66-.007.91-.017.259-.01.456-.052.597-.12.207-.088.34-.204.404-.352a1.2 1.2 0 0 0 .091-.495m2.899 3.605c0 .425-.084.802-.253 1.137-.171.335-.41.61-.707.832a3.295 3.295 0 0 1-1.137.552c-.417.114-.938.164-1.58.164h-3.826v-8.772h3.404c.705 0 1.224.026 1.552.072a3.2 3.2 0 0 1 .98.313c.33.167.579.396.74.68.16.288.245.61.245.974 0 .424-.108.798-.333 1.122-.224.327-.542.578-.947.76v.047c.57.112 1.028.348 1.36.705.338.356.502.828.502 1.414M31.412 43.776a5.476 5.476 0 0 1-1.807-.287 3.877 3.877 0 0 1-1.42-.861 3.782 3.782 0 0 1-.922-1.429c-.218-.564-.324-1.224-.324-1.968 0-.694.099-1.327.307-1.894.21-.564.514-1.05.908-1.453.378-.39.852-.69 1.416-.903a5.25 5.25 0 0 1 1.848-.318 6.943 6.943 0 0 1 1.82.225c.265.073.5.16.714.25.213.09.403.178.563.255v2.13h-.258a7.967 7.967 0 0 0-.413-.335 4.904 4.904 0 0 0-.572-.382 3.646 3.646 0 0 0-.701-.316 2.412 2.412 0 0 0-.804-.13c-.322 0-.623.05-.91.153a2.177 2.177 0 0 0-.796.493c-.232.225-.418.52-.562.887-.143.37-.215.817-.215 1.345 0 .547.078 1.003.232 1.373.158.37.356.657.586.873.244.214.512.366.802.461.294.09.586.134.873.134.277 0 .548-.04.816-.12.268-.083.517-.192.748-.334.188-.113.367-.236.538-.364.16-.13.294-.242.402-.337h.234v2.1c-.218.097-.428.188-.629.276-.2.087-.41.16-.632.221a7.603 7.603 0 0 1-.806.194c-.251.039-.597.06-1.036.06"/><path fill="#fdbd40" d="m11.699 12.238-.017 15.75 2.417 2.42V13.714"/><path fill="#abd158" d="M16.5 12.238v20.255h.017v.298l1.131 1.16 1.253-1.197V14.209"/><path fill="#ec008c" d="M21.297 12.238v14.85h.019l.005 3.218 2.378-2.352V13.68"/><path fill="#0f50a3" d="m26.108 25.494 8.516-8.517L17.649 0 .669 16.977l8.589 8.586V22.17l-5.189-5.193 13.58-13.58 13.581 13.58-5.122 5.12"/></svg>