<svg xmlns="http://www.w3.org/2000/svg" xml:space="preserve" width="278.49747" height="51.845867" viewBox="0 0 278.49747 51.845865"><path d="M123.606 679.685h-3.43v-6.752H118.6v14.186h1.576v-5.943h3.43zm-3.152-12.332h-10.118v6.134h1.598v-4.643h8.52zm-6.667 17.082a33.264 33.264 0 0 0-2.226-.086c-.632 0-1.26.022-1.885.065a5.658 5.658 0 0 0-1.363.234 4.02 4.02 0 0 0-1.086.51l.49 1.215a6.304 6.304 0 0 1 2.11-.511 26.952 26.952 0 0 1 1.851-.065c.611 0 1.314.029 2.11.086zm2.385-2.918h-4.45c-.81 0-1.425-.107-1.844-.32a3.171 3.171 0 0 1-1.075-.895 1.714 1.714 0 0 1-.34-.702 2.583 2.583 0 0 1-.065-.874 2.37 2.37 0 0 1 .224-.884 1.73 1.73 0 0 1 .607-.713c.54-.412 1.122-.586 1.746-.522a2.766 2.766 0 0 1 1.62.714c.156.156.28.358.372.607.092.248.138.507.138.778 0 .269-.057.528-.17.777-.114.248-.298.45-.554.606l1.13.959c.297-.2.545-.466.744-.8.2-.333.328-.706.384-1.117a3.297 3.297 0 0 0-.043-1.29 3.126 3.126 0 0 0-.595-1.245 3.125 3.125 0 0 0-1.098-.915 4.44 4.44 0 0 0-1.48-.47 4.636 4.636 0 0 0-1.597.023 3.468 3.468 0 0 0-1.449.617c-.468.313-.828.685-1.076 1.118a3.849 3.849 0 0 0-.478 1.33c-.07.455-.06.9.031 1.332.093.434.252.82.48 1.16.056.086.156.2.297.342.142.142.306.27.491.384h-2.94v1.405h10.99zM142.626 677.512h-8.413v-3.45h4.366v-7.2h-1.597v5.752h-8.413v1.448h4.046v3.45h-8.029v1.428h11.522c.115.468.213.975.299 1.522.085.546.149 1.09.192 1.629a37.9 37.9 0 0 1 .128 1.524c.028.475.042.869.042 1.18h-8.392v1.47h10.074a37.31 37.31 0 0 0-.202-3.833 40.193 40.193 0 0 0-.5-3.492h4.877zM156.023 670.93c0 .853-.316 1.499-.948 1.939-.632.44-1.395.66-2.289.66-.895 0-1.648-.238-2.258-.713-.61-.476-.916-1.105-.916-1.885 0-.426.088-.802.265-1.13.178-.325.417-.596.714-.808a3.26 3.26 0 0 1 1.012-.48 4.491 4.491 0 0 1 2.364 0c.391.107.735.267 1.034.48.297.212.543.483.734.809.192.327.288.703.288 1.129m1.661 0c0-.625-.136-1.183-.405-1.672a3.893 3.893 0 0 0-1.086-1.246 4.69 4.69 0 0 0-1.555-.777 6.44 6.44 0 0 0-1.852-.267c-.654 0-1.272.082-1.854.245a4.613 4.613 0 0 0-1.533.736c-.455.339-.81.755-1.065 1.245-.255.49-.383 1.06-.383 1.715 0 .596.124 1.139.372 1.629.25.49.593.919 1.033 1.288.44.355.951.632 1.533.832a5.858 5.858 0 0 0 1.897.297c.667 0 1.3-.095 1.895-.287a5.043 5.043 0 0 0 1.555-.8 4.088 4.088 0 0 0 1.054-1.277 3.508 3.508 0 0 0 .394-1.661m.128 15.335c0-.695-.018-1.405-.054-2.13a55.407 55.407 0 0 0-.138-2.065 30.262 30.262 0 0 0-.202-1.8 17.896 17.896 0 0 0-.224-1.268h-1.66c.098.369.187.813.265 1.33.078.52.146 1.048.203 1.588.042.554.078 1.082.106 1.587.028.504.043.934.043 1.288h-8.435v1.47zm3.982-9.818h-18.04v1.426h7.2v3.706h1.618v-3.706h9.222zM175.192 670.93c0 .853-.316 1.499-.948 1.939-.632.44-1.395.66-2.289.66-.895 0-1.648-.238-2.258-.713-.61-.476-.916-1.105-.916-1.885 0-.426.088-.802.265-1.13.178-.325.417-.596.714-.808a3.26 3.26 0 0 1 1.012-.48 4.491 4.491 0 0 1 2.364 0c.391.107.735.267 1.034.48.297.212.543.483.734.809.192.327.288.703.288 1.129m1.661 0c0-.625-.136-1.183-.405-1.672a3.893 3.893 0 0 0-1.086-1.246 4.69 4.69 0 0 0-1.555-.777 6.44 6.44 0 0 0-1.852-.267c-.654 0-1.272.082-1.854.245a4.613 4.613 0 0 0-1.533.736c-.455.339-.81.755-1.065 1.245-.255.49-.383 1.06-.383 1.715 0 .596.124 1.139.372 1.629.25.49.593.919 1.033 1.288.44.355.951.632 1.533.832a5.858 5.858 0 0 0 1.897.297c.667 0 1.3-.095 1.895-.287a5.043 5.043 0 0 0 1.555-.8 4.088 4.088 0 0 0 1.054-1.277 3.508 3.508 0 0 0 .394-1.661m.128 15.335c0-.695-.018-1.405-.054-2.13a55.407 55.407 0 0 0-.138-2.065 30.262 30.262 0 0 0-.202-1.8 17.896 17.896 0 0 0-.224-1.268h-1.66c.098.369.187.813.265 1.33.078.52.146 1.048.203 1.588.042.554.078 1.082.106 1.587.028.504.043.934.043 1.288h-8.435v1.47zm3.982-9.818h-18.04v1.426h7.2v3.706h1.618v-3.706h9.222zM196.98 675.36c-.325.2-.624.377-.894.533-.255.17-.554.362-.895.575l-1.023.64a116.945 116.945 0 0 1-1.937 1.213c-.27.17-.562.354-.874.554a20.7 20.7 0 0 0-3.024-2.13c-1.08-.625-2.15-1.086-3.216-1.385l-1 1.278a12.62 12.62 0 0 1 2.927 1.172 19.148 19.148 0 0 1 2.652 1.746 16.38 16.38 0 0 1 2.12 1.981c.602.681 1.054 1.321 1.351 1.917h-7.539v1.385h10.032c-.142-.71-.49-1.492-1.044-2.343a15.53 15.53 0 0 0-2.066-2.514c.312-.199.596-.376.852-.532.256-.156.547-.338.873-.543a470.705 470.705 0 0 1 2.003-1.257c.326-.206.617-.387.873-.543.256-.17.54-.349.851-.532zm3.153-5.026h-18.019v1.47h8.094v4.324h1.64v-4.325h8.284zM216.576 674.978h-1.598v12.119h1.598zm-.405-8.094h-1.576v5.495h-8.392v1.491h9.968zm-3.876 10.436-1.107-1.044-3.813 3.324a13.799 13.799 0 0 0-2.258-2.003 12.485 12.485 0 0 0-2.492-1.384l-1.044 1.214c.909.341 1.75.78 2.524 1.32a12.72 12.72 0 0 1 2.035 1.747c.582.61 1.064 1.238 1.448 1.885.383.645.639 1.253.766 1.821h-5.601v1.448h7.56a8.792 8.792 0 0 0-.638-2.513 10.761 10.761 0 0 0-1.321-2.322zM231.548 682.581c0 .852-.315 1.51-.947 1.97-.632.462-1.396.692-2.29.692-.895 0-1.648-.252-2.258-.756-.61-.504-.915-1.139-.915-1.906 0-.426.088-.803.265-1.129.178-.327.416-.603.714-.83a3.146 3.146 0 0 1 1.012-.512c.376-.113.77-.17 1.182-.17.397 0 .792.057 1.182.17.39.114.735.284 1.034.512.297.227.542.503.734.83.19.326.287.703.287 1.13m2.236-15.25h-10.287v5.92h1.576v-4.43h8.71zm-.574 15.25c0-.626-.136-1.183-.405-1.673a4.121 4.121 0 0 0-1.086-1.267 4.879 4.879 0 0 0-1.555-.789 6.247 6.247 0 0 0-1.853-.276c-.654 0-1.271.085-1.853.255a4.58 4.58 0 0 0-1.534.768 3.61 3.61 0 0 0-1.064 1.255c-.256.497-.384 1.066-.384 1.705 0 .582.125 1.122.373 1.62.248.496.593.928 1.033 1.297.439.355.95.64 1.533.853a5.476 5.476 0 0 0 1.896.32c.668 0 1.299-.1 1.895-.299a4.95 4.95 0 0 0 1.556-.83 4.088 4.088 0 0 0 1.054-1.279 3.508 3.508 0 0 0 .394-1.66m4.217-7.242h-18.062v1.448h18.062zM255.68 675.19h-1.598v5.282h-2.597v-4.622h-1.598v10.778h1.598v-4.708h2.597v5.198h1.598zm-2.364-4.153c0 .823-.287 1.462-.863 1.917-.575.454-1.31.681-2.204.681-.894 0-1.623-.249-2.183-.746-.561-.497-.841-1.114-.841-1.852 0-.81.29-1.445.873-1.907.582-.46 1.299-.692 2.15-.692.853 0 1.578.242 2.173.725.597.482.895 1.107.895 1.874m1.64 0c0-.597-.128-1.143-.383-1.64a4.075 4.075 0 0 0-1.023-1.278 4.627 4.627 0 0 0-1.491-.82 5.57 5.57 0 0 0-1.79-.288c-.666 0-1.287.1-1.862.298a4.753 4.753 0 0 0-1.502.831 3.81 3.81 0 0 0-1.001 1.278 3.652 3.652 0 0 0-.362 1.62c0 .552.124 1.071.372 1.553.248.483.593.91 1.034 1.28.425.353.922.637 1.49.85.568.213 1.172.32 1.81.32.64 0 1.244-.1 1.81-.298a4.765 4.765 0 0 0 1.492-.83 4.124 4.124 0 0 0 1.023-1.268c.255-.49.383-1.026.383-1.608m-8.072 13.631a52.63 52.63 0 0 0-1.087-.064 16.071 16.071 0 0 0-.808-.02c-.256 0-.505.002-.747.01-.241.006-.518.024-.83.053a7.302 7.302 0 0 0-1.47.234c-.483.127-.88.298-1.193.511l.49 1.193a5.598 5.598 0 0 1 1.023-.33c.355-.079.724-.13 1.107-.16.313-.029.597-.047.852-.053.256-.007.512-.01.768-.01.269 0 .553.006.85.02.299.014.647.035 1.045.065zm2.024-2.854h-3.856c-.796 0-1.406-.106-1.832-.319a3.145 3.145 0 0 1-1.086-.895 1.918 1.918 0 0 1-.341-.714 2.476 2.476 0 0 1-.063-.862c.013-.313.085-.61.213-.895.128-.284.326-.525.595-.724.554-.398 1.129-.569 1.726-.51a2.675 2.675 0 0 1 1.576.701c.17.157.302.363.394.618.092.256.138.511.138.767a1.99 1.99 0 0 1-.202.777 1.593 1.593 0 0 1-.564.63l1.15.936a2.22 2.22 0 0 0 .745-.788c.2-.34.326-.717.384-1.129a3.562 3.562 0 0 0-.064-1.278c-.1-.44-.291-.859-.576-1.256a3.28 3.28 0 0 0-1.096-.906 4.409 4.409 0 0 0-1.438-.458 4.456 4.456 0 0 0-1.565.022 3.629 3.629 0 0 0-1.46.617c-.468.313-.826.682-1.074 1.108a3.431 3.431 0 0 0-.458 1.321c-.072.454-.061.897.03 1.331.094.432.253.82.48 1.161.057.085.157.205.298.361.143.156.306.284.49.384h-2.64v1.405h10.096zM113.787 652.388h-1.43l-4.306 4.787h-.028v-4.787h-1.073v9.78h1.073v-4.374h.028l3.88 4.375h1.28l-4.1-4.581zM119.661 655.785c0 .34-.039.675-.117 1.005-.078.33-.204.623-.378.88-.175.257-.4.464-.675.62-.274.155-.609.233-1.004.233-.376 0-.697-.076-.963-.227a2.025 2.025 0 0 1-.66-.598 2.62 2.62 0 0 1-.379-.88 4.532 4.532 0 0 1-.116-1.047c0-.357.038-.696.116-1.017.078-.322.21-.606.393-.853a1.9 1.9 0 0 1 .674-.592c.275-.147.605-.22.99-.22.376 0 .697.073.964.22.265.147.485.35.66.606.165.247.29.534.371.86.083.324.124.661.124 1.01m1.155 0c0-1.045-.29-1.889-.873-2.53-.583-.643-1.387-.964-2.415-.964-.963 0-1.752.303-2.366.908-.614.606-.922 1.463-.922 2.572 0 .478.067.93.2 1.356.133.427.332.804.6 1.135.273.321.615.578 1.023.77.41.192.888.29 1.438.29 1.027 0 1.837-.327 2.43-.977.59-.652.885-1.505.885-2.56M126.361 658.275c-.294 0-.59-.034-.888-.103a3.036 3.036 0 0 1-.832-.323 2.47 2.47 0 0 1-.675-.57 2.126 2.126 0 0 1-.412-.833 4.287 4.287 0 0 1-.103-.585 5.677 5.677 0 0 1-.034-.653v-2.793h-1.005v6.741h1.005v-1.5h.027c.266.541.64.952 1.121 1.231.482.281 1.08.42 1.796.42zM132.001 656.515c0 .202-.025.42-.075.653a2.006 2.006 0 0 1-.269.654 1.486 1.486 0 0 1-.495.503c-.211.132-.473.199-.784.199-.587 0-1.08-.177-1.48-.53-.398-.353-.629-.846-.694-1.48zm1.114-.812h-4.897c.027-.403.141-.818.344-1.245.202-.426.564-.782 1.086-1.066.111-.073.287-.138.53-.192.243-.055.52-.087.833-.097.302 0 .621.032.956.097.335.064.653.187.956.37v-.811a4.08 4.08 0 0 0-1.286-.42 5.31 5.31 0 0 0-1.342-.034c-.44.046-.849.145-1.225.296a2.604 2.604 0 0 0-.921.599 3.531 3.531 0 0 0-.77 1.148c-.202.463-.303 1.002-.303 1.617 0 .99.291 1.8.873 2.428.583.628 1.406.942 2.47.942.449 0 .844-.087 1.183-.261.339-.174.619-.4.839-.674.22-.276.387-.585.502-.93.115-.343.172-.69.172-1.037zM138.783 654.974v.702c-.238.009-.525.01-.859.007a4.962 4.962 0 0 1-.998-.117 5.559 5.559 0 0 1-.489-.172 2.02 2.02 0 0 1-.474-.27 1.372 1.372 0 0 1-.358-.39.974.974 0 0 1-.137-.516c0-.44.142-.736.426-.888a1.94 1.94 0 0 1 .922-.227c.138 0 .296.028.475.083.18.055.36.133.543.233.174.102.335.22.481.359.147.137.257.293.33.467.056.11.092.225.111.344.018.119.027.247.027.385m1.046-2.518h-1.046v.854h-.027a1.339 1.339 0 0 0-.276-.282 2.705 2.705 0 0 0-.536-.337 3.84 3.84 0 0 0-1.706-.386c-.238 0-.47.039-.694.117a1.913 1.913 0 0 0-.613.35 1.79 1.79 0 0 0-.44.565 1.64 1.64 0 0 0-.165.743c0 .496.156.929.468 1.3.311.37.687.626 1.128.764a5.3 5.3 0 0 0 .852.179c.294.036.573.054.84.054.257.009.488.012.694.007.207-.005.366-.007.475-.007v.675c0 .11-.019.252-.055.426a1.32 1.32 0 0 1-.22.495c-.11.156-.268.29-.475.406-.206.115-.479.172-.818.172-.44 0-.798-.1-1.074-.303a.945.945 0 0 1-.412-.797h-1.21c0 .229.057.456.171.68.115.225.287.429.517.613.228.183.511.333.846.447.334.114.721.172 1.162.172.88 0 1.536-.218 1.967-.654.431-.435.647-.97.647-1.602zM152.637 659.39c0-.56-.108-1.027-.323-1.403a2.689 2.689 0 0 0-.833-.908 3.509 3.509 0 0 0-1.142-.474 5.572 5.572 0 0 0-1.252-.145h-.88v.963h.867a4.3 4.3 0 0 1 .874.089c.289.06.543.163.763.31.229.156.414.36.557.612.142.252.213.57.213.956 0 .34-.075.626-.227.86a1.885 1.885 0 0 1-.571.57 2.638 2.638 0 0 1-.798.324 3.83 3.83 0 0 1-.88.103h-1.417v-8.845H146.5v9.754h2.518c.43 0 .86-.044 1.293-.131a3.49 3.49 0 0 0 1.155-.447c.349-.211.63-.496.847-.853.215-.357.323-.803.323-1.335M159.68 652.456h-.948v1.582h-.03c-.145-.477-.434-.885-.865-1.224-.431-.339-1.032-.509-1.802-.509-.302 0-.583.053-.84.158a1.9 1.9 0 0 0-.66.447 2.014 2.014 0 0 0-.433.653 2.099 2.099 0 0 0-.158.82v4.814h1.005v-4.292c0-.202.02-.406.06-.612.042-.206.118-.392.228-.558.11-.165.26-.298.454-.398.193-.102.44-.152.743-.152.54 0 1.002.207 1.383.62.38.413.639.908.777 1.485a10.543 10.543 0 0 1 .109 1.046v2.861h.978zM166.627 655.662c0 .155-.007.313-.021.475a9.21 9.21 0 0 1-.061.53 2.483 2.483 0 0 1-.502 1.244c-.28.362-.704.543-1.272.543-.313 0-.592-.096-.84-.288a2.423 2.423 0 0 1-.619-.73 3.537 3.537 0 0 1-.392-.99 4.646 4.646 0 0 1-.131-1.087c0-.275.032-.552.097-.833a2.07 2.07 0 0 1 .33-.749c.146-.22.337-.399.57-.537.235-.138.521-.206.861-.206.632 0 1.121.25 1.464.75.344.5.516 1.126.516 1.878m1.156.068c0-1.165-.296-2.036-.887-2.613-.592-.578-1.341-.867-2.249-.867-.616 0-1.113.1-1.494.296a2.52 2.52 0 0 0-.9.75c-.212.311-.354.65-.427 1.017a5.44 5.44 0 0 0-.11 1.06v6.81h1.005v-4.168h.027a2.158 2.158 0 0 0 .633.784c.183.136.398.256.646.357.247.101.537.152.867.152.715 0 1.304-.182 1.768-.544.463-.363.781-.887.956-1.576.055-.219.096-.449.123-.687.029-.238.042-.495.042-.77M170.41 652.401h-1.045v9.768h1.045zM173.603 652.36h-1.101v6.741h1.101zm.095 8.447h-1.32v1.321h1.32zM181.278 657.08h-1.142c0 .365-.13.698-.392.996-.26.298-.667.447-1.217.447-.633 0-1.156-.217-1.568-.653-.413-.436-.619-1.012-.619-1.727 0-.22.015-.457.047-.709a2.815 2.815 0 0 1 .64-1.45c.192-.23.45-.432.771-.606.11-.065.286-.124.53-.179.242-.055.52-.087.832-.097.303 0 .621.033.956.097.335.065.653.188.956.371v-.81a4.055 4.055 0 0 0-1.286-.42 5.263 5.263 0 0 0-1.342-.035c-.44.055-.85.158-1.23.31a2.63 2.63 0 0 0-.93.598 3.704 3.704 0 0 0-.756 1.141c-.202.46-.303.996-.303 1.611 0 .485.074.935.22 1.347.146.413.362.771.646 1.074.285.293.635.524 1.053.694.417.17.892.255 1.424.255.366 0 .713-.05 1.04-.152.324-.1.61-.248.858-.44.25-.192.445-.429.592-.708.147-.28.22-.599.22-.956M193.137 661.192h-2.902v-8.859h-1.101v8.86h-2.903v.921h6.906zM195.338 652.36h-1.101v6.741h1.101zm.096 8.447h-1.32v1.321h1.32zM201.61 654.19c0-.294-.046-.56-.138-.799a1.396 1.396 0 0 0-.453-.605c-.212-.174-.496-.307-.853-.399-.358-.092-.803-.137-1.334-.137a6.72 6.72 0 0 0-1.19.096c-.354.064-.613.138-.778.22v1.06l.227-.118a4.207 4.207 0 0 1 .991-.357c.215-.05.451-.076.708-.076.211 0 .422.016.632.05.211.03.4.083.565.157.165.082.3.187.406.316a.734.734 0 0 1 .158.482.848.848 0 0 1-.193.57 1.946 1.946 0 0 1-.536.42c-.22.12-.482.238-.784.357-.303.12-.624.262-.963.427a2.562 2.562 0 0 0-.805.592c-.253.265-.379.614-.379 1.045 0 .578.216 1.03.647 1.355.431.325 1.046.49 1.843.49.35 0 .698-.032 1.046-.09.35-.06.596-.109.743-.145v-1.018c-.11.045-.346.132-.708.261a3.645 3.645 0 0 1-1.218.193c-.303 0-.599-.065-.887-.193-.289-.129-.434-.335-.434-.619a1.1 1.1 0 0 1 .145-.557 1.19 1.19 0 0 1 .447-.434 4.95 4.95 0 0 1 .812-.344c.348-.119.687-.27 1.017-.454.34-.192.635-.426.888-.7.252-.276.378-.625.378-1.047M207.251 654.19c0-.294-.046-.56-.138-.799a1.396 1.396 0 0 0-.453-.605c-.212-.174-.496-.307-.853-.399-.358-.092-.803-.137-1.334-.137a6.72 6.72 0 0 0-1.191.096c-.353.064-.612.138-.777.22v1.06l.227-.118a4.207 4.207 0 0 1 .991-.357c.215-.05.451-.076.708-.076.211 0 .422.016.632.05.211.03.4.083.565.157.165.082.3.187.406.316a.734.734 0 0 1 .158.482.848.848 0 0 1-.193.57 1.946 1.946 0 0 1-.536.42c-.22.12-.482.238-.784.357-.303.12-.624.262-.963.427a2.562 2.562 0 0 0-.805.592c-.253.265-.379.614-.379 1.045 0 .578.216 1.03.647 1.355.431.325 1.046.49 1.843.49.349 0 .698-.032 1.046-.09.349-.06.596-.109.743-.145v-1.018c-.11.045-.346.132-.708.261a3.645 3.645 0 0 1-1.218.193c-.303 0-.599-.065-.887-.193-.289-.129-.434-.335-.434-.619a1.1 1.1 0 0 1 .145-.557 1.19 1.19 0 0 1 .447-.434 4.95 4.95 0 0 1 .812-.344c.348-.119.687-.27 1.017-.454.34-.192.635-.426.888-.7.252-.276.378-.625.378-1.047M214.364 652.456h-.949v1.582h-.029c-.146-.477-.435-.885-.866-1.224-.43-.339-1.032-.509-1.802-.509-.302 0-.583.053-.839.158a1.9 1.9 0 0 0-.66.447 2.014 2.014 0 0 0-.434.653 2.099 2.099 0 0 0-.158.82v4.814h1.005v-4.292c0-.202.02-.406.061-.612.041-.206.117-.392.227-.558.11-.165.261-.298.454-.398.193-.102.44-.152.743-.152.541 0 1.002.207 1.383.62.38.413.64.908.777 1.485a10.543 10.543 0 0 1 .11 1.046v2.861h.977zM220.94 656.515c0 .202-.025.42-.075.653a2.006 2.006 0 0 1-.27.654 1.486 1.486 0 0 1-.494.503c-.211.132-.473.199-.784.199-.587 0-1.08-.177-1.48-.53-.398-.353-.63-.846-.694-1.48zm1.114-.812h-4.897c.027-.403.14-.818.344-1.245.202-.426.564-.782 1.086-1.066.11-.073.287-.138.53-.192.243-.055.52-.087.833-.097.302 0 .62.032.956.097.335.064.653.187.956.37v-.811a4.08 4.08 0 0 0-1.286-.42 5.31 5.31 0 0 0-1.342-.034c-.44.046-.85.145-1.226.296a2.604 2.604 0 0 0-.92.599 3.531 3.531 0 0 0-.77 1.148c-.203.463-.304 1.002-.304 1.617 0 .99.291 1.8.873 2.428.583.628 1.406.942 2.47.942.45 0 .844-.087 1.183-.261.34-.174.62-.4.84-.674.22-.276.386-.585.501-.93.115-.343.172-.69.172-1.037zM233.679 655.167c0 .403-.112.763-.337 1.079-.225.317-.575.544-1.053.682-.136.046-.302.08-.495.102a4.052 4.052 0 0 1-.495.035h-1.788v-3.769H231.478a3.182 3.182 0 0 1 .963.151c.202.064.394.165.578.303.174.137.323.318.447.543.124.225.194.516.213.874m-.371 4.525c0 .496-.154.861-.461 1.094a2.447 2.447 0 0 1-1.066.461 17.621 17.621 0 0 1-.771.041h-1.5v-3.329h1.658c.143 0 .278.01.407.027.173.01.362.044.563.104a1.655 1.655 0 0 1 .991.811c.119.216.179.48.179.791m1.499-4.553c0-.734-.204-1.314-.612-1.741a3.152 3.152 0 0 0-1.52-.873 3.796 3.796 0 0 0-.633-.096 8.36 8.36 0 0 0-.66-.028h-2.985v9.782h2.985c.366 0 .727-.044 1.079-.131a2.96 2.96 0 0 0 .957-.419c.284-.194.513-.444.688-.75.174-.308.27-.682.289-1.121a2 2 0 0 0-.131-.743 2.194 2.194 0 0 0-.75-.998 3.745 3.745 0 0 0-.44-.282 3.165 3.165 0 0 0-.13-.048.969.969 0 0 1-.118-.048c-.037-.009-.071-.019-.103-.028a.3.3 0 0 0-.075-.013v-.041c.155-.046.357-.109.604-.186a2.35 2.35 0 0 0 .716-.379c.23-.174.427-.41.592-.708.165-.299.247-.682.247-1.149M240.378 654.974v.702c-.238.009-.525.01-.86.007a4.962 4.962 0 0 1-.997-.117 5.559 5.559 0 0 1-.49-.172 2.02 2.02 0 0 1-.473-.27 1.372 1.372 0 0 1-.358-.39.974.974 0 0 1-.137-.516c0-.44.142-.736.426-.888a1.94 1.94 0 0 1 .922-.227c.138 0 .296.028.475.083.179.055.359.133.543.233.174.102.335.22.48.359.148.137.258.293.33.467.057.11.093.225.112.344.018.119.027.247.027.385m1.046-2.518h-1.046v.854h-.027a1.339 1.339 0 0 0-.276-.282 2.705 2.705 0 0 0-.536-.337 3.84 3.84 0 0 0-1.706-.386c-.238 0-.47.039-.694.117a1.913 1.913 0 0 0-.613.35 1.79 1.79 0 0 0-.44.565 1.64 1.64 0 0 0-.165.743c0 .496.156.929.468 1.3.31.37.687.626 1.128.764a5.3 5.3 0 0 0 .852.179c.294.036.573.054.84.054.257.009.488.012.694.007.207-.005.366-.007.475-.007v.675c0 .11-.02.252-.055.426a1.32 1.32 0 0 1-.22.495c-.11.156-.268.29-.475.406-.206.115-.48.172-.818.172-.441 0-.798-.1-1.074-.303a.945.945 0 0 1-.412-.797h-1.211c0 .229.058.456.172.68.115.225.287.429.517.613.228.183.51.333.846.447.334.114.72.172 1.162.172.88 0 1.536-.218 1.967-.654.43-.435.647-.97.647-1.602zM248.852 652.429h-.963v3.742c0 .238-.01.484-.027.737a2.127 2.127 0 0 1-.165.694 1.14 1.14 0 0 1-.412.522c-.194.138-.464.22-.813.248-.468.028-.891-.165-1.272-.578-.381-.412-.654-.94-.82-1.582a6.871 6.871 0 0 1-.081-.53 4.273 4.273 0 0 1-.028-.474v-2.78h-.963v6.742h.963v-1.554h.028c.036.119.11.275.22.467.11.193.257.38.44.565.193.182.429.344.708.48.28.139.622.207 1.026.207.605 0 1.116-.197 1.533-.592.418-.394.626-.893.626-1.5zM256.515 652.429h-1.362l-3.233 3.48h-.041v-3.48h-1.005v9.768h1.005v-5.847l2.986 2.82h1.375l-3.233-2.985z" style="fill:#231f20;fill-opacity:1;fill-rule:nonzero;stroke:none" transform="matrix(1.33333 0 0 -1.33333 -63.522 918.985)"/><path d="m73.564 676.276-12.962-12.962-12.96 12.962 12.96 12.962z" style="fill:#ed1639;fill-opacity:1;fill-rule:nonzero;stroke:none" transform="matrix(1.33333 0 0 -1.33333 -63.522 918.985)"/><path d="m99.485 676.276-12.96-12.962-12.962 12.962 12.961 12.962z" style="fill:#ed1639;fill-opacity:1;fill-rule:nonzero;stroke:none" transform="matrix(1.33333 0 0 -1.33333 -63.522 918.985)"/><path d="m80.045 669.796-6.481-6.481-6.481 6.48 6.483 6.48z" style="fill:#1969bc;fill-opacity:1;fill-rule:nonzero;stroke:none" transform="matrix(1.33333 0 0 -1.33333 -63.522 918.985)"/><path d="m80.045 656.835-6.481-6.481-6.481 6.48 6.483 6.48z" style="fill:#8cd024;fill-opacity:1;fill-rule:nonzero;stroke:none" transform="matrix(1.33333 0 0 -1.33333 -63.522 918.985)"/><path d="m86.524 663.315-6.48-6.48-6.48 6.48 6.481 6.48z" style="fill:#fddd04;fill-opacity:1;fill-rule:nonzero;stroke:none" transform="matrix(1.33333 0 0 -1.33333 -63.522 918.985)"/><path d="m73.564 663.315-6.48-6.48-6.482 6.48 6.482 6.48z" style="fill:#231f20;fill-opacity:1;fill-rule:nonzero;stroke:none" transform="matrix(1.33333 0 0 -1.33333 -63.522 918.985)"/></svg>