<svg xmlns="http://www.w3.org/2000/svg" xml:space="preserve" width="777.66852" height="246.84187" viewBox="0 0 777.66851 246.84187"><path d="M396.064 84.215v-6.287h45.559V63.651h6.993v20.564zM471.24 84.215h-6.992V63.651H516.8v6.287h-45.56zM428.55 96.131h-28.99v8.086h27.309v20.661h-34.301v-6.287h27.308v-8.086h-27.308V89.844h35.982zM441.623 117.773h-11.29v-6.287h11.29v-7.018h-11.29v-6.287h11.29V87.877h6.993v37.001h-6.993zM509.807 87.878h6.993v37.001h-6.993zM496.405 87.878h6.993v37h-6.993v-13.276h-11.328v-6.287h11.328zM534.208 99.143h27.308v6.287h-27.308v12.352h28.001v6.287h-34.994V76.515h35.982v6.287h-28.989zM576.38 124.879V105.43h-11.29v-6.288h11.29V63.841h6.993v61.037zM341.716 98.02c-5.317 0-9.627 3.876-9.627 8.658s4.31 8.658 9.627 8.658c5.317 0 9.627-3.876 9.627-8.658s-4.31-8.658-9.627-8.658m0-6.282c9.174 0 16.61 6.689 16.61 14.94 0 3.479-1.333 6.672-3.55 9.212h5.743v6.287H345.15v6.854h-6.992v-6.854H322.79v-6.287h5.865c-2.217-2.54-3.55-5.733-3.55-9.212 0-8.251 7.438-14.94 16.612-14.94" style="fill:#123c8b;fill-opacity:1;fill-rule:nonzero;stroke:none" transform="matrix(1.33333 0 0 -1.33333 -1.28 248.753)"/><path d="M473.933 102.665c3.214-4.878 8.638-9.29 16.443-11.337v6.29c-12.07 3.758-12.855 15.468-12.944 18.973v8.288h-6.993l-.003-8.25c-.086-3.462-.837-15.24-12.946-19.011v-6.29c7.805 2.047 13.229 6.459 16.443 11.337M142.944 57.975h9.384v66.904h-9.384zM137.702 113.897c-.699 13.72-12.234 24.644-26.402 24.644-13.816 0-25.928-10.341-26.33-23.625-.016-.51-.15-3.93 2.26-6.571 1.938-2.123 4.713-3.553 7.877-3.553 5.066 0 8.815 2.726 9.986 8.049.156.93.386 2.733.386 2.733.706 5.504 5.562 9.767 11.458 9.767 3.37 0 6.398-1.395 8.506-3.617l.001-.001c.315-.332.603-.687.874-1.053 2.831-3.738 2.62-7.485 2.62-7.485l-.003-.001c.283-3.485-.78-6.217-.78-6.217-.795-2.576-2.534-5.54-5.353-7.985v-.001s-10.55-10.888-27.287-1.957c-.347.178-.686.36-1.009.546-4.303 2.487-7.194 6.274-7.194 6.274.29-.784.927-3.787 2.864-6.554 2.293-3.277 6.328-6.647 10.548-8.481 3.234-1.405 6.814-2.168 10.576-2.168 14.62 0 26.47 11.618 26.47 25.95 0 .44-.046.87-.068 1.306M224.417 58.676c-.699 13.721-12.234 24.644-26.402 24.644-13.816 0-25.928-10.341-26.33-23.625-.016-.51-.15-3.93 2.26-6.571 1.938-2.123 4.713-3.553 7.877-3.553 5.066 0 8.815 2.726 9.986 8.049.156.931.386 2.733.386 2.733.706 5.504 5.562 9.767 11.458 9.767 3.37 0 6.398-1.395 8.506-3.617l.001-.001c.315-.332.603-.687.874-1.053 2.831-3.738 2.62-7.485 2.62-7.485l-.003-.001c.283-3.485-.78-6.217-.78-6.217-.795-2.576-2.534-5.54-5.353-7.985v-.001s-10.55-10.889-27.287-1.957c-.347.178-.686.36-1.009.546-4.303 2.487-7.194 6.274-7.194 6.274.29-.784.927-3.787 2.864-6.554 2.293-3.277 6.328-6.647 10.548-8.481 3.234-1.405 6.814-2.168 10.576-2.168 14.62 0 26.47 11.618 26.47 25.95 0 .441-.046.87-.068 1.306" style="fill:#123c8b;fill-opacity:1;fill-rule:nonzero;stroke:none" transform="matrix(1.33333 0 0 -1.33333 -1.28 248.753)"/><path d="M231.124 186.419c-28.701-1.656-53.061-17.144-66.38-39.241-.2-.333-.396-.667-.594-1.004-.33-.546.05-.829.437-.299 13.095 18.668 35.416 30.973 60.754 30.973 29.209 0 54.395-16.333 66.067-39.932h21.25c-12.69 30.737-45.052 51.609-81.534 49.503" style="fill:#ed193a;fill-opacity:1;fill-rule:nonzero;stroke:none" transform="matrix(1.33333 0 0 -1.33333 -1.28 248.753)"/><path d="M82.97 1.58c28.7 1.656 53.06 17.144 66.38 39.24.2.334.396.668.594 1.005.33.546-.051.829-.437.299C136.412 23.456 114.09 11.15 88.753 11.15c-29.21 0-54.395 16.333-66.067 39.932H1.436C14.126 20.346 46.488-.527 82.97 1.58" style="fill:#0066b3;fill-opacity:1;fill-rule:nonzero;stroke:none" transform="matrix(1.33333 0 0 -1.33333 -1.28 248.753)"/><path d="M114.951 72.15v10.595h-9.384V72.15H84.291v-8.5h53.404v8.5zM265.848 116.379h20.703V95.405h-20.703zm40.098-20.975h-10.011v20.975h9.985v8.499h-59.44v-8.499h9.984V95.404h-10.011v-8.5h59.493zM202.744 95.404v6.048h24.97v8.5h-48.25v6.426h48.25v8.5h-62.722v-8.5h5.089v-14.926h23.279v-6.048h-31.804v-8.5h72.992v8.5zM64.343 124.879V98.35H54.13v26.528h-9.383V57.975h9.384v31.877h10.21V57.974h9.385v66.905zM37.329 108.793v8.5H2.794v-8.5h14.783L.96 72.533l7.876-4.561 11.225 24.496 11.225-24.496 7.875 4.56-16.616 36.26zM280.892 72.15v11.108h-9.384V72.15h-31.804v-8.5h72.991v8.5zM373.63 69.938h-37.802v6.576h37.802zm0 54.941v-7.106h-11.29v-6.287h11.29v-7.018h-11.29v-6.287h11.29V82.802h-37.802v6.095h-6.993V63.651h51.788v61.228zM250.059 34.96c0 1.736-.284 3.027-.851 3.872-.567.846-1.437 1.269-2.609 1.269-1.135 0-1.993-.43-2.575-1.286-.583-.856-.877-2.12-.885-3.786v-2.942c0-1.677.291-2.954.874-3.833.582-.879 1.451-1.318 2.609-1.318 1.157 0 2.013.406 2.569 1.217.557.811.845 2.054.868 3.731zm2.062-2.872c0-2.24-.476-3.965-1.431-5.174-.954-1.21-2.31-1.814-4.068-1.814-1.691 0-3.027.587-4.007 1.763-.981 1.176-1.489 2.839-1.527 4.988v3.087c0 2.194.484 3.913 1.454 5.157.969 1.243 2.321 1.865 4.057 1.865 1.728 0 3.075-.596 4.041-1.786.965-1.191 1.459-2.891 1.481-5.1zM258.49 28.356l2.31 9.163h2.028l-3.617-12.194h-1.488l-3.663 12.194h2.03zM268.892 36.032c-.827 0-1.439-.284-1.837-.851-.398-.568-.624-1.448-.676-2.643h4.801v.27c-.053 1.158-.26 1.984-.626 2.48-.364.496-.918.744-1.662.744m.225-10.932c-1.517 0-2.682.453-3.493 1.357-.812.906-1.225 2.234-1.24 3.984v1.477c0 1.819.396 3.244 1.19 4.277.791 1.033 1.898 1.55 3.318 1.55 1.427 0 2.494-.455 3.201-1.363.706-.91 1.067-2.326 1.082-4.25v-1.307h-6.808v-.282c0-1.307.246-2.258.738-2.851.493-.594 1.201-.891 2.125-.891.586 0 1.102.11 1.55.333.446.222.866.573 1.256 1.053l1.037-1.262c-.864-1.217-2.182-1.825-3.956-1.825M280.602 35.648a4.823 4.823 0 0 1-.902.08c-1.021 0-1.735-.56-2.141-1.68v-8.724h-1.995V37.52h1.939l.034-1.24c.533.977 1.288 1.465 2.265 1.465.315 0 .578-.052.789-.158zM288.513 28.446c0 .428-.162.797-.484 1.105-.324.308-.947.668-1.872 1.081-1.074.444-1.83.824-2.27 1.14-.439.315-.768.673-.986 1.075-.218.402-.327.882-.327 1.438 0 .991.362 1.816 1.088 2.473.725.658 1.65.986 2.777.986 1.187 0 2.142-.345 2.863-1.037.721-.69 1.082-1.578 1.082-2.659H288.4c0 .548-.184 1.016-.552 1.403-.368.387-.838.58-1.409.58-.586 0-1.046-.152-1.38-.455-.334-.303-.501-.71-.501-1.219 0-.405.122-.73.366-.977.244-.248.832-.573 1.763-.978 1.48-.579 2.487-1.146 3.021-1.699.533-.553.8-1.254.8-2.105 0-1.06-.365-1.909-1.093-2.545-.729-.636-1.706-.954-2.931-.954-1.269 0-2.298.365-3.087 1.093-.789.73-1.184 1.653-1.184 2.773h2.006c.023-.677.23-1.206.621-1.589.39-.384.938-.575 1.644-.575.661 0 1.165.148 1.511.445.345.297.518.696.518 1.2M297.237 36.032c-.827 0-1.44-.284-1.837-.851-.398-.568-.624-1.448-.676-2.643h4.8v.27c-.052 1.158-.26 1.984-.625 2.48-.364.496-.918.744-1.662.744m.226-10.932c-1.518 0-2.683.453-3.494 1.357-.812.906-1.225 2.234-1.24 3.984v1.477c0 1.819.396 3.244 1.189 4.277.792 1.033 1.899 1.55 3.319 1.55 1.427 0 2.494-.455 3.2-1.363.707-.91 1.068-2.326 1.083-4.25v-1.307h-6.808v-.282c0-1.307.246-2.258.738-2.851.493-.594 1.2-.891 2.125-.891.586 0 1.102.11 1.55.333.446.222.866.573 1.256 1.053l1.037-1.262c-.864-1.217-2.182-1.825-3.955-1.825M307.527 26.914c.489 0 .954.135 1.398.406.443.27.766.609.969 1.014v2.908h-1.127c-.947-.015-1.695-.228-2.243-.637-.548-.41-.823-.982-.823-1.72 0-.69.139-1.191.418-1.503.277-.312.747-.468 1.408-.468m2.66-1.59c-.12.264-.207.707-.26 1.33-.705-1.036-1.607-1.554-2.704-1.554-1.104 0-1.967.31-2.587.929-.62.62-.93 1.494-.93 2.62 0 1.24.42 2.225 1.263 2.954.84.728 1.995 1.1 3.46 1.115h1.465v1.297c0 .728-.162 1.247-.484 1.555-.324.308-.816.462-1.477.462-.601 0-1.09-.18-1.465-.536-.376-.357-.564-.81-.564-1.357h-1.995c0 .623.184 1.218.553 1.786a3.849 3.849 0 0 0 1.487 1.335c.624.323 1.319.485 2.085.485 1.247 0 2.196-.31 2.846-.93.65-.62.982-1.523.997-2.71V27.95c.008-.94.136-1.755.384-2.445v-.181zM320.893 28.446c0 .428-.162.797-.484 1.105-.324.308-.948.668-1.872 1.081-1.074.444-1.831.824-2.271 1.14-.439.315-.768.673-.986 1.075-.218.402-.326.882-.326 1.438 0 .991.362 1.816 1.087 2.473.725.658 1.651.986 2.778.986 1.187 0 2.142-.345 2.863-1.037.721-.69 1.082-1.578 1.082-2.659h-1.984c0 .548-.184 1.016-.552 1.403-.368.387-.838.58-1.409.58-.586 0-1.046-.152-1.38-.455-.335-.303-.502-.71-.502-1.219 0-.405.122-.73.366-.977.245-.248.833-.573 1.764-.978 1.48-.579 2.487-1.146 3.021-1.699.533-.553.8-1.254.8-2.105 0-1.06-.365-1.909-1.093-2.545-.729-.636-1.706-.954-2.931-.954-1.27 0-2.299.365-3.088 1.093-.788.73-1.183 1.653-1.183 2.773h2.006c.023-.677.229-1.206.62-1.589.391-.384.939-.575 1.645-.575.661 0 1.165.148 1.511.445.345.297.518.696.518 1.2M334.722 32.887l-1.612-1.95v-5.612h-2.062v16.409h2.062v-7.922l1.353 1.79 4.418 6.132h2.479l-5.331-7.224 5.748-9.185h-2.468zM344.617 30.836c0-1.254.246-2.241.738-2.958.492-.718 1.155-1.077 1.99-1.077 1.758 0 2.663 1.27 2.716 3.809v1.376c0 1.247-.248 2.233-.744 2.958-.496.725-1.161 1.088-1.995 1.088-.82 0-1.475-.363-1.967-1.088-.492-.725-.738-1.707-.738-2.947zm-1.995 1.15c0 1.773.43 3.176 1.29 4.21.86 1.032 1.997 1.549 3.41 1.549 1.412 0 2.549-.504 3.409-1.51.86-1.007 1.302-2.378 1.324-4.114v-1.285c0-1.766-.428-3.163-1.284-4.193-.857-1.03-2-1.543-3.426-1.543-1.413 0-2.546.5-3.398 1.498-.854 1-1.295 2.352-1.325 4.058zM359.663 35.648a4.823 4.823 0 0 1-.902.08c-1.021 0-1.735-.56-2.141-1.68v-8.724h-1.995V37.52h1.939l.034-1.24c.533.977 1.288 1.465 2.265 1.465.315 0 .578-.052.789-.158zM365.569 36.032c-.827 0-1.44-.284-1.837-.851-.398-.568-.624-1.448-.676-2.643h4.8v.27c-.052 1.158-.26 1.984-.625 2.48-.364.496-.918.744-1.662.744m.226-10.932c-1.518 0-2.683.453-3.494 1.357-.812.906-1.225 2.234-1.24 3.984v1.477c0 1.819.396 3.244 1.189 4.277.792 1.033 1.899 1.55 3.319 1.55 1.427 0 2.494-.455 3.2-1.363.707-.91 1.068-2.326 1.083-4.25v-1.307h-6.808v-.282c0-1.307.246-2.258.738-2.851.493-.594 1.2-.891 2.125-.891.586 0 1.102.11 1.55.333.446.222.866.573 1.256 1.053l1.037-1.262c-.864-1.217-2.182-1.825-3.955-1.825M375.858 26.914c.49 0 .954.135 1.398.406.443.27.766.609.97 1.014v2.908h-1.128c-.947-.015-1.695-.228-2.243-.637-.548-.41-.823-.982-.823-1.72 0-.69.14-1.191.418-1.503.277-.312.747-.468 1.408-.468m2.66-1.59c-.12.264-.207.707-.259 1.33-.706-1.036-1.608-1.554-2.705-1.554-1.104 0-1.967.31-2.587.929-.619.62-.929 1.494-.929 2.62 0 1.24.42 2.225 1.262 2.954.841.728 1.995 1.1 3.46 1.115h1.465v1.297c0 .728-.162 1.247-.484 1.555-.324.308-.816.462-1.477.462-.6 0-1.09-.18-1.465-.536-.376-.357-.564-.81-.564-1.357h-1.995c0 .623.184 1.218.553 1.786a3.849 3.849 0 0 0 1.487 1.335c.624.323 1.32.485 2.085.485 1.247 0 2.196-.31 2.846-.93.65-.62.982-1.523.997-2.71V27.95c.007-.94.135-1.755.383-2.445v-.181zM385.179 37.519l.056-1.318c.774 1.029 1.762 1.544 2.964 1.544 2.157 0 3.25-1.439 3.28-4.317v-8.103h-1.983v8.013c0 .953-.16 1.632-.48 2.034-.32.402-.798.603-1.436.603-.496 0-.941-.165-1.336-.496-.395-.331-.712-.763-.952-1.296v-8.858h-1.995v12.194zM400.394 28.446c0 .428-.162.797-.484 1.105-.324.308-.947.668-1.872 1.081-1.074.444-1.831.824-2.271 1.14-.44.315-.768.673-.986 1.075-.218.402-.326.882-.326 1.438 0 .991.362 1.816 1.087 2.473.725.658 1.65.986 2.778.986 1.187 0 2.142-.345 2.863-1.037.72-.69 1.082-1.578 1.082-2.659h-1.984c0 .548-.184 1.016-.552 1.403-.368.387-.838.58-1.41.58-.586 0-1.046-.152-1.38-.455-.335-.303-.502-.71-.502-1.219 0-.405.122-.73.366-.977.245-.248.833-.573 1.764-.978 1.48-.579 2.487-1.146 3.021-1.699.533-.553.8-1.254.8-2.105 0-1.06-.364-1.909-1.092-2.545-.73-.636-1.706-.954-2.931-.954-1.27 0-2.3.365-3.088 1.093-.788.73-1.183 1.653-1.183 2.773h2.006c.022-.677.228-1.206.62-1.589.39-.384.938-.575 1.644-.575.661 0 1.165.148 1.511.445.345.297.518.696.518 1.2M420.839 30.542c-.09-1.758-.584-3.104-1.482-4.04-.899-.935-2.167-1.403-3.805-1.403-1.645 0-2.953.626-3.922 1.876-.969 1.251-1.454 2.948-1.454 5.09v2.974c0 2.134.498 3.82 1.493 5.061.996 1.24 2.354 1.86 4.075 1.86 1.585 0 2.812-.474 3.68-1.42.867-.948 1.34-2.304 1.414-4.069h-2.085c-.09 1.337-.372 2.291-.845 2.862-.474.571-1.195.857-2.164.857-1.12 0-1.98-.438-2.58-1.314-.603-.874-.903-2.158-.903-3.848V32.02c0-1.66.28-2.934.84-3.82.56-.887 1.376-1.33 2.451-1.33 1.075 0 1.848.266 2.322.8.473.532.766 1.491.88 2.873zM424.93 30.836c0-1.254.245-2.241.737-2.958.492-.718 1.155-1.077 1.99-1.077 1.757 0 2.663 1.27 2.715 3.809v1.376c0 1.247-.248 2.233-.744 2.958-.496.725-1.16 1.088-1.994 1.088-.82 0-1.475-.363-1.967-1.088-.492-.725-.738-1.707-.738-2.947zm-1.996 1.15c0 1.773.43 3.176 1.291 4.21.86 1.032 1.996 1.549 3.41 1.549 1.411 0 2.547-.504 3.408-1.51.86-1.007 1.301-2.378 1.324-4.114v-1.285c0-1.766-.428-3.163-1.285-4.193-.856-1.03-1.998-1.543-3.426-1.543-1.412 0-2.545.5-3.397 1.498-.854 1-1.295 2.352-1.325 4.058zM436.515 30.836c0-1.254.246-2.241.738-2.958.492-.718 1.155-1.077 1.99-1.077 1.758 0 2.663 1.27 2.716 3.809v1.376c0 1.247-.248 2.233-.744 2.958-.496.725-1.161 1.088-1.995 1.088-.819 0-1.475-.363-1.967-1.088-.492-.725-.738-1.707-.738-2.947zm-1.995 1.15c0 1.773.43 3.176 1.291 4.21.86 1.032 1.996 1.549 3.409 1.549 1.412 0 2.549-.504 3.409-1.51.861-1.007 1.302-2.378 1.324-4.114v-1.285c0-1.766-.428-3.163-1.284-4.193-.857-1.03-1.999-1.543-3.426-1.543-1.413 0-2.546.5-3.398 1.498-.854 1-1.295 2.352-1.325 4.058zM453.353 31.974c0 1.367-.21 2.375-.631 3.026-.421.65-1.097.975-2.03.975-.953 0-1.678-.477-2.174-1.432v-6.345c.488-.93 1.22-1.398 2.198-1.398.902 0 1.564.326 1.989.976.424.65.64 1.643.648 2.98zm1.984-1.139c0-1.93-.348-3.369-1.043-4.316-.695-.947-1.677-1.42-2.947-1.42-1.225 0-2.168.462-2.83 1.386v-5.849h-1.982V37.52h1.803l.1-1.352c.67 1.051 1.628 1.577 2.875 1.577 1.338 0 2.337-.466 2.998-1.397.66-.932 1.003-2.326 1.026-4.18zM462.042 36.032c-.827 0-1.439-.284-1.837-.851-.398-.568-.624-1.448-.676-2.643h4.801v.27c-.053 1.158-.26 1.984-.626 2.48-.364.496-.918.744-1.662.744m.226-10.932c-1.518 0-2.683.453-3.494 1.357-.812.906-1.225 2.234-1.24 3.984v1.477c0 1.819.396 3.244 1.19 4.277.791 1.033 1.898 1.55 3.318 1.55 1.427 0 2.494-.455 3.201-1.363.706-.91 1.067-2.326 1.082-4.25v-1.307h-6.808v-.282c0-1.307.246-2.258.738-2.851.493-.594 1.201-.891 2.125-.891.586 0 1.102.11 1.55.333.446.222.866.573 1.256 1.053l1.037-1.262c-.864-1.217-2.182-1.825-3.955-1.825M473.752 35.648a4.823 4.823 0 0 1-.902.08c-1.021 0-1.735-.56-2.14-1.68v-8.724h-1.995V37.52h1.938l.034-1.24c.533.977 1.288 1.465 2.265 1.465.315 0 .578-.052.789-.158zM478.902 26.914c.49 0 .954.135 1.398.406.443.27.766.609.97 1.014v2.908h-1.128c-.947-.015-1.695-.228-2.243-.637-.548-.41-.823-.982-.823-1.72 0-.69.14-1.191.418-1.503.277-.312.747-.468 1.408-.468m2.66-1.59c-.12.264-.207.707-.259 1.33-.706-1.036-1.608-1.554-2.705-1.554-1.104 0-1.967.31-2.587.929-.619.62-.929 1.494-.929 2.62 0 1.24.42 2.225 1.262 2.954.841.728 1.995 1.1 3.46 1.115h1.465v1.297c0 .728-.162 1.247-.484 1.555-.324.308-.816.462-1.477.462-.6 0-1.09-.18-1.465-.536-.376-.357-.564-.81-.564-1.357h-1.994c0 .623.183 1.218.552 1.786a3.849 3.849 0 0 0 1.487 1.335c.624.323 1.32.485 2.085.485 1.247 0 2.196-.31 2.846-.93.65-.62.982-1.523.997-2.71V27.95c.008-.94.136-1.755.384-2.445v-.181zM488.956 40.472V37.52h1.837v-1.612h-1.837v-7.572c0-.48.079-.847.237-1.095.158-.248.428-.372.81-.372.264 0 .53.045.8.136l-.021-1.68a4.363 4.363 0 0 0-1.386-.225c-.79 0-1.39.282-1.804.845-.413.563-.62 1.36-.62 2.39v7.573h-1.86v1.612h1.86v2.953zM495.312 25.325h-1.995v12.194h1.995zm.158 15.429c0-.338-.094-.62-.282-.846-.188-.225-.473-.338-.856-.338-.376 0-.658.113-.846.338-.188.226-.281.508-.281.846 0 .337.093.623.281.856.188.233.47.35.846.35.375 0 .659-.119.85-.356.192-.236.288-.52.288-.85M500.023 30.836c0-1.254.246-2.241.738-2.958.492-.718 1.155-1.077 1.99-1.077 1.758 0 2.663 1.27 2.716 3.809v1.376c0 1.247-.248 2.233-.744 2.958-.496.725-1.16 1.088-1.995 1.088-.819 0-1.475-.363-1.967-1.088-.492-.725-.738-1.707-.738-2.947zm-1.995 1.15c0 1.773.43 3.176 1.291 4.21.86 1.032 1.996 1.549 3.41 1.549 1.411 0 2.548-.504 3.408-1.51.861-1.007 1.302-2.378 1.324-4.114v-1.285c0-1.766-.428-3.163-1.284-4.193-.857-1.03-1.999-1.543-3.426-1.543-1.413 0-2.546.5-3.398 1.498-.854 1-1.295 2.352-1.325 4.058zM511.914 37.519l.056-1.318c.774 1.029 1.762 1.544 2.964 1.544 2.157 0 3.25-1.439 3.28-4.317v-8.103h-1.983v8.013c0 .953-.16 1.632-.48 2.034-.32.402-.798.603-1.436.603-.496 0-.941-.165-1.336-.496-.395-.331-.712-.763-.952-1.296v-8.858h-1.995v12.194zM537.057 30.542c-.09-1.758-.584-3.104-1.482-4.04-.898-.935-2.166-1.403-3.804-1.403-1.646 0-2.953.626-3.922 1.876-.969 1.251-1.454 2.948-1.454 5.09v2.974c0 2.134.498 3.82 1.493 5.061.996 1.24 2.354 1.86 4.075 1.86 1.585 0 2.812-.474 3.68-1.42.867-.948 1.34-2.304 1.414-4.069h-2.085c-.09 1.337-.372 2.291-.845 2.862-.474.571-1.195.857-2.164.857-1.12 0-1.98-.438-2.58-1.314-.603-.874-.903-2.158-.903-3.848V32.02c0-1.66.28-2.934.84-3.82.56-.887 1.376-1.33 2.451-1.33 1.075 0 1.848.266 2.322.8.473.532.766 1.491.88 2.873zM543.707 36.032c-.827 0-1.44-.284-1.837-.851-.398-.568-.624-1.448-.676-2.643h4.8v.27c-.052 1.158-.26 1.984-.625 2.48-.364.496-.918.744-1.662.744m.226-10.932c-1.518 0-2.683.453-3.494 1.357-.812.906-1.225 2.234-1.24 3.984v1.477c0 1.819.396 3.244 1.189 4.277.792 1.033 1.899 1.55 3.319 1.55 1.427 0 2.494-.455 3.2-1.363.707-.91 1.068-2.326 1.083-4.25v-1.307h-6.808v-.282c0-1.307.246-2.258.738-2.851.493-.594 1.2-.891 2.125-.891.586 0 1.102.11 1.55.333.446.222.866.573 1.256 1.053l1.037-1.262c-.864-1.217-2.182-1.825-3.955-1.825M552.261 37.519l.056-1.318c.774 1.029 1.762 1.544 2.964 1.544 2.157 0 3.25-1.439 3.28-4.317v-8.103h-1.983v8.013c0 .953-.16 1.632-.48 2.034-.319.402-.798.603-1.436.603-.496 0-.94-.165-1.336-.496-.395-.331-.712-.763-.952-1.296v-8.858h-1.995v12.194zM564.163 40.472V37.52H566v-1.612h-1.837v-7.572c0-.48.079-.847.237-1.095.158-.248.428-.372.81-.372.264 0 .53.045.8.136l-.021-1.68a4.363 4.363 0 0 0-1.386-.225c-.79 0-1.39.282-1.804.845-.413.563-.62 1.36-.62 2.39v7.573h-1.86v1.612h1.86v2.953zM572.502 36.032c-.827 0-1.439-.284-1.837-.851-.398-.568-.624-1.448-.676-2.643h4.801v.27c-.053 1.158-.26 1.984-.626 2.48-.364.496-.918.744-1.662.744m.226-10.932c-1.518 0-2.683.453-3.494 1.357-.812.906-1.225 2.234-1.24 3.984v1.477c0 1.819.396 3.244 1.19 4.277.791 1.033 1.898 1.55 3.318 1.55 1.427 0 2.494-.455 3.201-1.363.706-.91 1.067-2.326 1.082-4.25v-1.307h-6.808v-.282c0-1.307.246-2.258.738-2.851.493-.594 1.201-.891 2.125-.891.586 0 1.102.11 1.55.333.446.222.866.573 1.256 1.053l1.037-1.262c-.864-1.217-2.182-1.825-3.955-1.825M584.212 35.648a4.823 4.823 0 0 1-.902.08c-1.02 0-1.735-.56-2.14-1.68v-8.724h-1.996V37.52h1.94l.033-1.24c.533.977 1.288 1.465 2.265 1.465.315 0 .578-.052.79-.158z" style="fill:#123c8b;fill-opacity:1;fill-rule:nonzero;stroke:none" transform="matrix(1.33333 0 0 -1.33333 -1.28 248.753)"/></svg>