<svg xmlns="http://www.w3.org/2000/svg" width="525.02576pt" height="525pt" viewBox="0 0 525.02575 524.99996"><path fill="#0068b6" d="M75.004 0C33.582 0 0 33.58 0 74.998 0 116.421 33.582 150 75.004 150c41.423 0 75.003-33.579 75.003-75.002C150.007 33.58 116.427 0 75.004 0" style="stroke-width:1.83972" transform="scale(3.5)"/><path fill="#72b0e0" d="M75.004 2.612C35.026 2.612 2.62 35.021 2.62 74.998c0 39.98 32.406 72.388 72.384 72.388 39.977 0 72.387-32.407 72.387-72.388 0-39.977-32.41-72.386-72.387-72.386" style="stroke-width:1.83972" transform="scale(3.5)"/><path fill="#fff" d="M75.004 129.587c-30.148 0-54.583-24.44-54.583-54.59 0-30.142 24.435-54.584 54.583-54.584 30.15 0 54.579 24.442 54.579 54.584 0 30.15-24.43 54.59-54.58 54.59M13.613 90.37c3.052-.551 5.21-2.238 4.724-4.92-.48-2.686-3.094-3.509-6.148-2.962-3.045.555-5.201 2.237-4.717 4.923.482 2.69 3.096 3.512 6.14 2.96m-.226-1.253c-2.222.4-4.279.254-4.673-1.932-.391-2.182 1.476-3.043 3.702-3.445 2.178-.387 4.292-.254 4.68 1.933.396 2.182-1.538 3.052-3.709 3.444M6.524 73.657l10.599-.303.04 1.503L8.29 79.54v.024l9.004-.258.031 1.08-10.602.307-.044-1.667 8.643-4.518v-.026l-8.77.252zM12.52 69.99l.224-2.018c.105-.925.688-1.641 1.983-1.501 1.299.147 1.713.973 1.608 1.9l-.223 2.017zm5.059-1.369c.068-.515.12-1.05-.037-1.517-.31-.962-1.155-1.73-2.379-1.862-1.317-.145-2.594.335-2.921 1.433l-.035-.01c-.195-.888-1.018-1.6-2.114-1.717-2.042-.23-2.883 1.013-3.056 2.502l-.342 3.109 10.538 1.173zm-9.502.874L8.25 68c.083-1.15.416-1.93 1.803-1.776 1.39.153 1.55.986 1.378 2.129l-.167 1.497zM15.79 56.5c2.658.64 4.01 2.21 3.42 4.512-.59 2.302-2.525 3.04-5.163 2.331l-6.204-1.585.304-1.17 6.546 1.663c1.768.417 2.94-.206 3.282-1.548.35-1.34-.39-2.458-2.147-2.94l-6.539-1.668.3-1.178ZM20.4 56.047l-9.82-3.996.46-1.13 4.256 1.737-2.881-5.116.626-1.54 2.914 5.42 7.068-1.825-.642 1.584-6.734 1.622 5.212 2.116zM19.552 34.942l8.906 5.758-.818 1.259-9.966-1.167-.01.019 7.558 4.89-.587.907-8.906-5.757.905-1.398 9.681 1.176.011-.022-7.36-4.763z" style="stroke-width:1.83972" transform="scale(3.5)"/><path fill="#fff" d="m29.586 39.265-1.454-2.53 2.677-3.06 2.695 1.106.874-.997-10.312-4.318-.853.983 5.545 9.756zm-4.892-8.307 4.904 2.177-2.148 2.457zM29.417 25.828l-2.171 1.978-.858-.933 5.247-4.767.843.933-2.165 1.972 6.286 6.908-.898.817zM39.35 29.615l-6.461-8.406.968-.74 6.453 8.408zM38.39 23.56c1.636 2.626 3.996 4.02 6.316 2.578 2.32-1.442 2.127-4.17.492-6.803-1.636-2.633-3.994-4.018-6.309-2.578-2.325 1.439-2.127 4.165-.498 6.804m1.089-.676c-1.196-1.917-1.818-3.885.068-5.055 1.887-1.172 3.376.257 4.57 2.176 1.162 1.873 1.812 3.886-.074 5.058-1.886 1.173-3.402-.306-4.564-2.179M51.317 10.808l4.19 9.734-1.377.598-7.627-6.514-.024.01 3.556 8.265-.988.429-4.19-9.738 1.52-.659 7.394 6.362.023-.011-3.468-8.049zM57.24 19.976l.198-2.912 3.92-1.056 1.638 2.42 1.273-.346-6.18-9.313-1.258.338-.787 11.199zm.548-9.62 2.868 4.534-3.146.85zM64.858 18.088 63.353 7.593l1.198-.175 1.323 9.246 4.034-.58.179 1.255zM81.002 13.151c-.057 2.73-1.308 4.375-3.68 4.29-2.378-.088-3.505-1.817-3.373-4.544l.228-6.395 1.218.037-.247 6.754c-.025 1.821.832 2.833 2.221 2.886 1.378.052 2.31-.903 2.408-2.72l.247-6.752 1.208.044zM91.36 8.413l-1.967 10.415-1.479-.274-2.682-9.666-.026-.01-1.667 8.852-1.056-.2 1.958-10.423 1.63.311 2.577 9.403.03.007 1.613-8.611zM90.965 19.36 93.96 9.185l1.157.342L92.132 19.7ZM103.855 12.727 96.98 21.42l-1.234-.49.958-11.007 1.132.442-.878 9.386.02.011 5.753-7.48zM100.365 22.844l5.026-9.337 4.84 2.607-.597 1.106-3.772-2.028-1.561 2.909 3.587 1.935-.605 1.112-3.582-1.934-1.67 3.089 3.859 2.08-.602 1.108zM20.856 96.003l-10.06 3.356-1.738-5.216 1.193-.395 1.36 4.058 3.128-1.046-1.288-3.864 1.205-.4 1.284 3.864 3.333-1.105-1.387-4.158 1.194-.398zM111.528 23.929c.375.32.793.561.8 1.166.022.659-.484 1.365-.953 2.202-.315.549-.596 1.196-.87 1.776l1.06.749c.316-.998.894-1.976 1.394-2.916.576-1.047.852-1.684.173-2.545l.013-.024c1 .346 2.082-.088 2.818-1.135 1.216-1.709.3-3.045-.894-3.893l-2.553-1.806-6.136 8.65.992.703 2.776-3.906zm1.225-4.712 1.634 1.158c1.054.84.875 1.613.397 2.301-.491.679-1.159 1.106-2.298.388l-1.63-1.157zM115.134 28.843c-.998 1.118-.845 2.009.018 2.807.734.679 1.858 1.242 2.875.15.694-.757.464-1.544.045-2.17-.791-1.26-2.302-3.18-.688-4.929 1.563-1.696 3.42-1.148 4.621-.036 1.1 1.01 1.628 2.6.234 4.113l-.937-.864c.771-.91.445-1.768-.197-2.359-.633-.583-1.753-1.102-2.614-.177-.815.89-.348 1.419.011 2.158.765 1.557 2.38 3.042.569 5.01-1.634 1.766-3.527 1.187-4.826-.017-1.347-1.24-1.687-2.835-.04-4.551zM117.786 35.73l7.846-7.128.817.898-7.852 7.127zM128.331 33.719l-1.788-2.331 1.003-.77 4.308 5.627-1.002.769-1.785-2.333-7.412 5.68-.741-.963zM129.915 43.043l5.808-.38.692 1.17-7.637.524-3.232 1.907-.62-1.043 3.241-1.907 4.158-6.423.688 1.17zM128.622 52.222l9.96-3.641.415 1.133-4.276 1.568 1.439 3.905 4.268-1.56.416 1.137-9.955 3.643-.418-1.14 4.491-1.642-1.426-3.913-4.498 1.649zM136.414 58.327c-3.032.634-5.136 2.382-4.573 5.054.559 2.669 3.197 3.416 6.223 2.781 3.036-.64 5.142-2.382 4.58-5.057-.56-2.668-3.198-3.418-6.23-2.778m.269 1.245c2.215-.463 4.266-.373 4.72 1.79.462 2.177-1.387 3.087-3.604 3.551-2.148.456-4.266.379-4.722-1.794-.458-2.17 1.444-3.096 3.606-3.547M136.106 68.98c-1.494.13-2 .88-1.917 2.056.07.991.5 2.178 1.978 2.071 1.028-.066 1.404-.795 1.532-1.534.282-1.467.512-3.897 2.881-4.053 2.296-.162 3.273 1.51 3.391 3.144.1 1.49-.605 3.006-2.657 3.15l-.092-1.27c1.189-.13 1.538-.98 1.48-1.854-.06-.856-.525-2.006-1.78-1.917-1.2.08-1.232.785-1.466 1.567-.52 1.656-.373 3.847-3.037 4.03-2.399.168-3.376-1.555-3.488-3.322-.138-1.825.71-3.223 3.089-3.34zM133.353 75.705l-.068 1.215 4.663.246-.082 1.65c-.045 1.61.58 3.14 2.794 3.264 2.316.118 3.12-1.246 3.12-2.877l.157-2.926zm5.86 1.531 3.405.184-.105 1.899c-.007.145.009 1.58-1.781 1.484-1.786-.097-1.63-1.521-1.619-1.667zM132.839 82.523l10.503 1.45-.166 1.2-10.503-1.448zM141.148 89.32l.64-2.866 1.233.28-1.554 6.91-1.231-.275.646-2.864-9.114-2.042.265-1.183zM131.103 91.287l2.298 1.8-1.33 3.835-2.916-.001-.428 1.249 11.174.116.425-1.226-8.81-6.952zm7.656 5.86-5.363-.175 1.067-3.085zM128.389 98.66l9.533 4.64-.53 1.093-8.398-4.09-1.785 3.669-1.135-.554zM25.222 112.338c0 1.01-.812 1.82-1.816 1.82a1.82 1.82 0 0 1-1.825-1.82c0-1.004.818-1.814 1.825-1.814 1.004 0 1.816.81 1.816 1.814" style="stroke-width:1.83972" transform="scale(3.5)"/><path fill="#0068b6" d="M66.434 33.627v19.27h15.998v13.922h13.373v15.956h21.751v-11.34h-10.48V55.236h-13.31V41.564H77.769v-7.937z" style="stroke-width:1.83972" transform="scale(3.5)"/><path fill="#009b73" d="M82.445 116.123V96.851H66.447V82.782H53.072V66.938H31.325v11.333h10.484v15.912h13.302v14.002h15.996v7.938z" style="stroke-width:1.83972" transform="scale(3.5)"/><path fill="#f9be00" d="M53.087 52.913h13.31v14.026h-13.31Z" style="stroke-width:1.83972" transform="scale(3.5)"/><path fill="#ea6d8d" d="M82.445 82.804h13.318v14.03H82.445Z" style="stroke-width:1.83972" transform="scale(3.5)"/><path fill="#fff" d="M32.55 120.177c.061-.02.1-.013.122.016.03.031.037.07.017.114-.249.616-.311 1.297-.18 2.044.123.745.334 1.32.629 1.731l1.164-.027c.031 0 .055-.007.06-.024.016-.015.012-.044-.014-.081-.193-.241-.351-.561-.467-.953a3.519 3.519 0 0 1-.12-1.294c.028-.45.157-.923.372-1.412.215-.488.548-.959 1-1.406l.284-.285 1.75 1.746.598-.607-4.613-4.622-.61.61 1.75 1.745-.29.29c-.406.41-.84.718-1.28.928a4.015 4.015 0 0 1-1.282.396 3.55 3.55 0 0 1-1.437-.046c-.436-.114-.8-.278-1.065-.499-.032-.018-.057-.022-.076-.018-.022.009-.027.03-.027.068l-.056 1.135c.442.303 1.038.52 1.77.638.73.122 1.398.06 2.002-.187" style="stroke-width:1.83972" transform="scale(3.5)"/><path fill="#fff" d="M38.98 121.235a.68.68 0 0 1-.18.375l-1.411 1.408-1.884-1.886-.607.609 1.883 1.882-.003.01-3.196 3.196.526.527c.655.654 1.501-.264 1.501-.264l5.233-5.232-1.717-1.722-.485.486.19.19c.124.125.177.266.15.42M28.718 125.036c-.039-.04-.068-.09-.068-.138 0-.057.03-.1.068-.147l2.03-2.027L29 120.976l-.478.48.188.193c.125.124.182.262.167.402a.62.62 0 0 1-.184.379l-1.122 1.122c-.27.268-.409.533-.409.785.006.252.138.51.398.773l5.13 5.122.611-.615zM63.968 142.37l2.717-10.133-2.28-.613-.174.666.258.07a.465.465 0 0 1 .342.289c.055.145.06.283.027.416l-.68 2.551-.078.287-1.013-.272.929-3.447-2.313-.624-.176.66.257.072c.175.044.289.144.339.293.055.145.071.28.033.408l-.525 1.943-.217.817-.581 2.176c-.19.028-.42.037-.68.009a6.76 6.76 0 0 1-.967-.184l-2.494-.67a.276.276 0 0 1-.153-.114c-.04-.057-.048-.128-.018-.217l1.313-4.927 3.07.821.222-.828-5.428-1.453-.174.657.257.071c.175.046.29.129.348.26.064.132.07.27.027.417l-1.168 4.377c-.149.561-.136 1.008.06 1.345.185.33.55.565 1.068.708l2.23.598c.517.142.936.235 1.271.285.335.052.63.06.896.031l-.762 2.848.685.186c.9.241 1.17-.979 1.17-.979l1.258-4.702 1.012.265-1.724 6.437.65.173c.892.241 1.166-.973 1.166-.973M50.433 135.168l.429-.745-10.277-5.94-.428.748 4.314 2.489-.504.868-3.275-1.893-.429.732 6.57 3.79c.044.028.06.05.07.085.009.033 0 .062-.024.101l-1.54 2.675.664.385s.764.528 1.432-.633l1.333-2.31c.028-.045.032-.08.02-.108-.001-.035-.029-.057-.068-.077l-3.179-1.834-.016-.015.495-.872zM44.91 127.431l4.868 2.811-.525.917c-.04.073-.083.114-.12.125-.055.014-.108 0-.172-.044l-4.498-2.587c-.076-.05-.114-.081-.13-.114-.029-.028 0-.088.04-.175zm-.788-2.183a.426.426 0 0 1-.055.353l-1.1 1.91c-.18.312-.234.597-.167.853.066.258.255.467.539.635l5.874 3.394c.289.168.557.214.82.144.26-.065.475-.258.66-.573l1.767-3.065-1.952-1.125-.37.634.133.076a.457.457 0 0 1 .224.268c.035.109-.075.381-.143.51l-.153.246-4.86-2.807.761-1.314-1.957-1.133-.374.653.132.074c.113.068.19.15.221.267M18.937 99.731c.482-.197.92-.342 1.306-.423a2.48 2.48 0 0 1 1.122.011c.389.068.701.267 1.02.558.312.296.601.704.805 1.2.396.862.473 1.592.236 2.198-.252.607-.692 1.033-1.361 1.31l-.804.356-.57-1.265.728-.297c.423-.2.706-.43.848-.754.171-.305.129-.659-.057-1.09-.245-.538-.58-.87-.971-.917-.41-.011-.98.114-1.734.43l-7.07 3.036-.592-1.32z" style="stroke-width:1.83972" transform="scale(3.5)"/><path fill="none" stroke="#fff" stroke-width=".560196" d="M66.28 349.06c1.687-.69 3.219-1.198 4.571-1.482a8.682 8.682 0 0 1 3.928.039c1.359.238 2.453.934 3.567 1.95 1.095 1.038 2.106 2.467 2.82 4.206 1.385 3.013 1.655 5.57.825 7.688-.882 2.125-2.421 3.619-4.765 4.584l-2.814 1.25-1.996-4.43 2.55-1.037c1.48-.702 2.472-1.507 2.968-2.64.599-1.069.45-2.305-.2-3.818-.856-1.88-2.028-3.04-3.4-3.207-1.435-.039-3.425.4-6.065 1.507l-24.745 10.624-2.073-4.623z"/><path fill="#fff" d="M129.408 112.338c0 1.01-.81 1.82-1.812 1.82a1.82 1.82 0 0 1-1.828-1.82c0-1.004.816-1.814 1.828-1.814a1.81 1.81 0 0 1 1.812 1.814M91.955 132.036c.04.026.075.087.103.186l.638 2.384c.245.903.408 1.65.473 2.235.062.59.03 1.128-.112 1.625l1.54-.412a4.297 4.297 0 0 0 .154-1.566c-.042-.563-.173-1.286-.418-2.165l-.92-3.455a.21.21 0 0 0-.051-.098.176.176 0 0 0-.116 0l-8.766 2.35.213.805 7.032-1.882c.106-.033.18-.03.23-.007" style="stroke-width:1.83972" transform="scale(3.5)"/><path fill="#fff" d="m92.78 140.318-1.306-4.867-2.195.585.177.647.213-.059a.433.433 0 0 1 .366.054c.103.07.177.174.217.327l1.001 3.724-1.416.371-1.303-4.864-2.191.587.171.646.206-.056a.446.446 0 0 1 .372.048c.108.074.186.18.226.33l.995 3.72-2.767.746.245.902 11.469-3.076-.243-.905zM81.663 136.846v-.86h-1.726v-2.984h-2.434v.677h.27c.18 0 .32.069.405.195.092.13.138.26.138.392v5.754h.74c.93 0 .881-1.245.881-1.245v-1.93zM79.63 140.56H70.3v.836h7.784c.04 0 .073.015.097.039.03.022.035.053.035.097v3.188h.808c.92 0 .879-1.273.879-1.273v-2.614a.292.292 0 0 0-.072-.202.28.28 0 0 0-.2-.072M73.008 138.374c-.843 0-1.533-.699-1.533-1.556 0-.86.69-1.555 1.533-1.555.86 0 1.54.696 1.54 1.555 0 .857-.68 1.556-1.54 1.556m0 1.329c1.578 0 2.862-1.294 2.862-2.885 0-.578-.17-1.11-.452-1.558h1.532v-.86h-3.074v-1.613h-2.283v.587h.215c.066 0 .15.04.223.12a.39.39 0 0 1 .12.292v.615h-3.044v.859h1.498c-.289.449-.45.98-.45 1.558 0 1.591 1.278 2.885 2.853 2.885M108.586 128.741l-2.797-4.842-2.104 1.218.344.594.228-.138a.48.48 0 0 1 .45-.04c.14.068.25.16.317.276l.328.575-1.413.81.438.747 1.407-.815.44.769-1.406.811.423.745 1.413-.811.112.191 1.04 1.803.646-.377c.803-.46.134-1.516.134-1.516M108.137 135.378c-.779.447-1.757.2-2.184-.55-.438-.747-.16-1.719.612-2.166.771-.447 1.757-.2 2.186.549.442.752.156 1.72-.614 2.167m-2.247-3.878c-1.433.83-1.948 2.629-1.14 4.025.81 1.393 2.621 1.845 4.056 1.02 1.44-.832 1.954-2.634 1.146-4.026-.805-1.397-2.62-1.85-4.062-1.02M103.194 130.635c.042.068.054.125.042.167-.012.044-.05.087-.125.127l-2.294 1.326a.323.323 0 0 1-.156.057c-.039.004-.083-.042-.133-.125l-.68-1.18 2.67-1.546zm1.68.377c.068-.26.095-.405-.09-.72l-.308-.533-1.22-2.12-.757-1.317-1.873 1.08.366.639.13-.074a.488.488 0 0 1 .343-.068c.11.022.204.101.283.228l.342.605-2.665 1.542-.874-1.516-1.873 1.08.375.65.136-.078a.459.459 0 0 1 .343-.064c.112.027.202.1.274.232l1.541 2.667c.188.317.405.506.663.57.25.07.524.019.818-.149l3.507-2.018c.287-.173.469-.382.539-.636M116.344 116.535c.152.024.28.084.377.18l3.306 3.308.588.594.074.063-1.923 1.922.611.602 1.925-1.912.796.797.525-.526c.653-.653-.262-1.501-.262-1.501l-5.397-5.389-1.711 1.718.48.484.19-.191c.13-.129.264-.179.42-.15M120.3 126.594c-.047.039-.097.065-.152.06a.222.222 0 0 1-.146-.065l-1.39-1.397-1.748 1.752.485.478.188-.188a.492.492 0 0 1 .409-.173.616.616 0 0 1 .375.184l.491.495c.267.27.528.407.786.4.252 0 .504-.13.77-.392l4.868-4.872-.614-.613zM112.793 120.209a1.445 1.445 0 0 1 2.05.011c.567.567.574 1.483.015 2.042a1.447 1.447 0 0 1-2.052-.007 1.442 1.442 0 0 1-.013-2.046m2.946 2.942c1.041-1.043 1.037-2.75-.022-3.806-1.058-1.056-2.758-1.064-3.803-.02a2.685 2.685 0 0 0 .02 3.802c1.056 1.058 2.758 1.065 3.805.024" style="stroke-width:1.83972" transform="scale(3.5)"/><path fill="#fff" d="m117.118 125.958 1.198-1.2-1.253-1.243 2.59-2.583-.609-.609-5.933 5.931.605.606 2.158-2.153z" style="stroke-width:1.83972" transform="scale(3.5)"/></svg>