<svg xmlns="http://www.w3.org/2000/svg" width="525pt" height="525pt" viewBox="0 0 524.99999 525"><path d="M262.5 0C117.5 0 0 117.638 0 262.306 0 407.306 117.5 525 262.5 525 407.473 525 525 407.307 525 262.306 525 117.638 407.473 0 262.5 0" style="fill:#898989;fill-opacity:1;stroke:none;stroke-width:27.7513"/><path d="M654.707 375.473c-3.863-.005-7.431.744-10.738 2.2-5.772 2.59-9.362 7.031-10.73 13.395-1.333 6.291.074 11.803 4.292 16.577 3.848 4.329 9.102 7.177 15.873 8.658 6.772 1.443 12.767.999 17.985-1.332 5.809-2.553 9.398-7.03 10.73-13.432 1.406-6.364-.038-11.914-4.256-16.65-3.885-4.293-9.138-7.141-15.873-8.584-2.539-.555-4.965-.83-7.283-.832zm-1.469 9.07c2.063-.019 4.321.24 6.782.777v-.002c4.921 1.036 8.694 2.812 11.285 5.217 2.85 2.664 3.922 5.772 3.144 9.361-.814 3.774-3.034 6.216-6.771 7.4-3.182 1.04-7.325 1.04-12.395-.07-4.92-1.073-8.657-2.774-11.248-5.142-2.851-2.59-3.85-5.698-3.11-9.398.778-3.59 3-5.996 6.7-7.254 1.684-.574 3.55-.87 5.613-.89z" style="fill:#fff;stroke:none;stroke-width:37.0017" transform="scale(.75)"/><path d="m504.124 330.765-15.014-4.523-3.302 10.99 15.014 4.523-1.97 6.605-34.163-10.296 2.026-6.605 13.598 4.107 3.33-10.99-13.626-4.107 1.97-6.577 34.107 10.268zM482.45 383.66l-11.267-5.995-25.17-1.443 3.69-6.855 16.485 1.638-10.546-12.821 3.663-6.827 15.153 20.147 11.294 5.994zM465.494 410.411 441.1 393.067l-5.3 7.437-4.634-3.302 14.624-20.592 4.635 3.303-5.273 7.465 24.394 17.345zM451.923 427.478l-27.39-22.866 4.468-5.357 27.418 22.84zM439.63 442.134c-2.97 2.859-5.967 4.357-9.103 4.468-2.692.084-5.3-.86-7.826-2.858l4.69-4.912 3.886 1.22 4.301-1.914 2.054-4.301-1.582-3.386c-1.61-1.36-3.969-1.332-7.077.052-2.83 1.277-5.661 2.526-8.464 3.775-3.386.971-6.3.276-8.77-2.054-2.497-2.359-3.635-4.995-3.44-7.881.22-2.72 1.581-5.412 4.107-8.076 2.47-2.58 5.078-4.052 7.826-4.413 2.72-.332 5.383.472 7.992 2.47l-4.94 5.19-3.33-1.11-3.386 1.776-1.609 3.524 1.415 3.247c1.055 1 3.053.75 5.967-.721 4.3-2.137 7.215-3.386 8.686-3.691 3.69-.75 6.965.22 9.796 2.886 2.359 2.248 3.413 4.94 3.192 8.076-.221 3.136-1.666 6.022-4.385 8.63" style="fill:#fff;stroke:none;stroke-width:27.7513"/><path d="M531.705 576.217c-3.07.143-6.39 1.564-9.951 4.267l-13.58 10.213 28.638 38 7.438-5.623-11.102-14.728 5.551-4.18 7.66 1.11 2.59 2.923 2.367 3.219 3.85 3.441 7.215-5.44-3.996-3.44c-3.59-4.626-6.069-7.474-7.512-8.51-1.85-1.407-4.514-1.665-8.03-.778 3.258-5.106 3.109-9.99-.554-14.69-3.101-4.037-6.636-5.968-10.584-5.784zm-.47 9.004 4.402 3.107 1.703 5.033-2.33 4.07-6.403 4.848-8.398-11.138 6.437-4.81z" style="fill:#fff;stroke:none;stroke-width:37.0017" transform="scale(.75)"/><path d="m372.999 488.23-17.067-31.304 20.23-10.99 2.72 4.94-14.153 7.743 4.33 7.937 12.57-6.855 2.553 4.607-12.654 6.854 4.801 8.77 14.542-7.91 2.747 4.996zM350.326 497.61l-23.367-28.918 6.66-2.72 16.901 22.396-3.94-27.807 6.604-2.747 4.08 36.91zM328.042 505.38l-9.935-34.273 6.715-1.943 9.936 34.245zM312.695 509.098l-15.263-21.535 4.246 23.506-6.772 1.22-6.327-35.16 7.826-1.388 15.236 21.48-4.19-23.478 6.77-1.221 6.328 35.161zM280.809 510.622c-2.11 2.637-5.162 3.996-9.13 4.163-3.997.14-7.16-1.027-9.464-3.469-2.303-2.47-3.524-5.911-3.663-10.324l-.805-22.367 6.91-.249.805 23.478 1.721 5.245 4.274 1.998 4.107-2.276 1.36-5.355-.833-23.478 6.883-.249.804 22.368c.14 4.385-.832 7.909-2.97 10.518M244.76 513.37l-23.755-2.914 4.329-35.384 6.855.833-3.636 29.5 16.9 2.081z" style="fill:#fff;stroke:none;stroke-width:27.7513"/><path d="m272.066 626.621-27.492 41.775 9.213 2.518 6.44-10.287 13.949 3.81.332 12.1 9.361 2.553-2.515-49.951zm1.414 13.252.407 16.465-9.324-2.516z" style="fill:#fff;stroke:none;stroke-width:37.0017" transform="scale(.75)"/><path d="M169.11 496.386 168 470.05l-9.242 22.007-6.382-2.665 13.847-32.94 7.355 3.08 1.082 26.364 9.241-22.035 6.355 2.692-13.82 32.94z" style="fill:#fff;stroke:none;stroke-width:27.7513"/><path d="M190.213 591.547c-2.863-.023-5.712.68-8.543 2.105-5.143 2.59-9.288 6.956-12.434 13.135-3.143 6.142-4.255 12.026-3.367 17.688 1.036 6.29 4.44 10.878 10.213 13.875 5.81 2.924 11.58 3 17.205.113 5.106-2.627 9.251-6.995 12.397-13.137 3.106-6.142 4.217-12.024 3.33-17.722-1.037-6.29-4.404-10.88-10.176-13.803-2.886-1.481-5.762-2.23-8.625-2.254zm.09 8.129c1.646-.097 3.301.273 4.966 1.105 3.256 1.665 5.035 4.441 5.292 8.326.222 3.553-.814 7.549-3.07 12.063-2.258 4.44-4.923 7.623-7.92 9.547l-9.88.629c-3.478-1.776-5.253-4.59-5.402-8.438-.185-3.367.89-7.363 3.22-11.951 2.295-4.514 4.958-7.734 7.882-9.584 1.628-1.036 3.265-1.6 4.912-1.697z" style="fill:#fff;stroke:none;stroke-width:37.0017" transform="scale(.75)"/><path d="m107.308 460.031 21.673-28.362 5.55 4.274-21.674 28.334zM91.517 446.988l19.897-22.423-6.826-6.022 3.802-4.274 18.898 16.79-3.802 4.246-6.854-6.078-19.87 22.396z" style="fill:#fff;stroke:none;stroke-width:27.7513"/><path d="M131.605 536.19 85.428 555.28l6.18 7.254 11.136-4.885 9.361 10.952-6.511 10.25 6.29 7.363 25.975-42.736zm-6.253 11.747-8.918 13.875-6.291-7.363z" style="fill:#fff;stroke:none;stroke-width:37.0017" transform="scale(.75)"/><path d="m55.468 404.945 13.681-22.534-19.897 13.21-3.802-5.745 29.75-19.787 4.412 6.632-13.682 22.535 19.898-13.21 3.802 5.745-29.778 19.786zM31.463 360.543l19.648-7.771-22.229 1.221-1.942-4.967 16.956-14.403-19.593 7.742-2.359-6.022 33.135-13.07 3.08 7.825-18.565 15.763 24.31-1.193 3.108 7.798-33.162 13.098z" style="fill:#fff;stroke:none;stroke-width:27.7513"/><path d="m18.38 399.875 2.11 9.324 12.1.924 3.107 14.063-10.619 5.957 2.147 9.472 42.996-25.422-1.998-9.398zm22.218 10.938 16.504 1.406-14.395 7.992z" style="fill:#fff;stroke:none;stroke-width:37.0017" transform="scale(.75)"/><path d="m12.231 285.864 22.867-13.099-23.783 1.943-.555-6.883 35.578-2.914.638 7.937-22.84 13.099 23.783-1.943.555 6.883L12.87 293.8zM11.454 249.954l24.616-9.436-23.783-1.748.5-6.883 35.604 2.581-.583 7.965-24.615 9.435 23.783 1.749-.472 6.854-35.633-2.58z" style="fill:#fff;stroke:none;stroke-width:27.7513"/><path d="M42.414 260.871c-2.997 0-5.828.49-8.492 1.47-6.031 2.147-9.917 6.33-11.768 12.62-1.811 6.215-.812 11.873 3.073 16.867 3.552 4.588 8.583 7.808 15.207 9.77 6.586 1.928 12.58 1.928 18.02-.07 5.993-2.11 9.88-6.29 11.692-12.506 1.85-6.217.813-11.879-3.072-16.91-3.515-4.589-8.584-7.809-15.17-9.77-3.33-.98-6.493-1.47-9.49-1.47zm-1.379 8.979c2.434.025 5.2.494 8.299 1.396 4.884 1.406 8.474 3.404 10.879 5.994 2.662 2.775 3.442 5.958 2.406 9.584-1.036 3.478-3.442 5.735-7.18 6.735-3.478.887-7.586.591-12.396-.778-4.81-1.443-8.435-3.44-10.877-6.068-2.629-2.85-3.443-6.032-2.406-9.584 1.073-3.7 3.48-5.958 7.254-6.846 1.22-.305 2.56-.449 4.021-.433z" style="fill:#fff;stroke:none;stroke-width:37.0017" transform="scale(.75)"/><path d="m26.107 177.303 14.57 5.773 4.19-10.657-14.57-5.772 2.554-6.41 33.134 13.126-2.552 6.438-13.21-5.245-4.218 10.629 13.21 5.245-2.554 6.438-33.107-13.154zM42.904 138.646c2.247-3.525 5.744-5.44 10.35-5.689 4.385-.249 8.826 1.027 13.238 3.885 4.246 2.775 7.188 6.216 8.797 10.379 1.693 4.33 1.416 8.214-.832 11.739-2.054 3.191-5.023 5.023-8.88 5.55-3.164.416-6.19-.035-8.992-1.36l3.719-5.772c4.412 1.776 7.548 1.277 9.352-1.498 1.304-2.026 1.165-4.358-.416-6.966-1.388-2.248-3.58-4.357-6.522-6.272-3.052-1.97-5.883-3.08-8.575-3.386-2.97-.36-5.134.472-6.466 2.47l-.035 5.883 2.886 3.691-3.774 5.828c-2.692-2.303-4.496-4.967-5.356-8.02-1.11-3.663-.611-7.16 1.498-10.462M262.5 56.863c113.559 0 205.638 92.162 205.638 205.498 0 113.587-92.08 205.777-205.638 205.777-113.614 0-205.638-92.19-205.638-205.777 0-113.336 92.024-205.498 205.638-205.498M93.3 74.596l.035-.053 9.88-8.52 3.718 4.274-6.688 5.828c5.495 6.327 10.768 6.438 14.958 2.942l3.608 4.385c-5.578 4.772-10.074 5.328-13.904 4.495.305 3.885-.915 8.298-6.438 13.182l-3.802-4.218c4.08-3.691 4.718-8.908-.86-15.236l-6.688 5.8-3.719-4.301z" style="fill:#fff;stroke:none;stroke-width:27.7513"/><path d="m113.697 55.753 25.92 29.86.943 1.082-17.788 15.402-2.83 2.442-8.243-.555-5.8-6.716 6.272-5.439 5.828 6.688.943-.805 11.545-10.018-13.293-15.319-4.884 4.246-3.802-4.44 4.884-4.19-5.966-6.827zM138.34 41.127l5.384 10.602 15.291-7.743 2.637 5.245-17.456 8.797c-2.886 1.499-6.383.333-7.798-2.47l-.053-.084-5.356-10.629z" style="fill:#fff;stroke:none;stroke-width:27.7513"/><path d="m220.049 35.521-9.926 4.995 13.469 26.605-9.62 4.883-19.427 9.844 7.66 15.207.047.113c1.924 3.737 6.474 5.217 10.322 3.256l12.582-6.328 19.537-9.88-17.17-33.894 6.698-3.404-3.477-6.846-6.699 3.367zm7.05 38.5 4.18 8.327-9.619 4.847-9.658 4.848-4.145-8.29 9.584-4.884z" style="fill:#fff;stroke:none;stroke-width:37.0017" transform="scale(.75)"/><path d="m201.614 15.985 1.248 5.8-6.993 1.61 4.912 20.536 10.185-2.443-5.773-27.085 7.632-1.637 2.609 12.155 4.079-.833-2.609-12.21 7.66-1.61 8.547 40.128-7.632 1.61-4.717-22.229-4.107.86 4.745 22.257-7.66 1.637-1.553-7.326-12.627 2.97c-3.108.638-6.022-1.638-6.688-4.718l-.035-.112-6.244-25.892z" style="fill:#fff;stroke:none;stroke-width:27.7513"/><path d="m338.613 9.51-.047 5.699-15.652-.113-.049 7.625 7.735.07-4.33 7.658c-1.073 7.03 7.179 13.807 17.095 13.877h.26c9.065.037 18.095-5.994 17.17-13.617-.592-3.441-1.888-5.921-4.293-7.772l6.771.07.047-7.657-13.875-.07.047-5.7zm5.02 13.217h.148c3.516.036 6.19 3.183 6.143 7.03-.037 3.886-2.887 7.188-6.365 7.141h-.149c-3.441-.147-6.142-3.366-6.142-7.252.037-3.959 2.924-6.807 6.365-6.92z" style="fill:#fff;stroke:none;stroke-width:37.0017" transform="scale(.75)"/><path d="m247.431 42.127.035-5.773 30.249.193c3.136.035 5.69 2.747 5.661 5.828v.444l-.052 7.88-8.243-.034.053-8.353zM275.377 8.991l8.242.053-.035 7.438 5.328.035-.035 5.8-5.356-.053-.084 11.517-8.242-.053zM299.132 42.376l6.937 1.749 4.191-16.43 6.827 1.75-4.19 16.428 4.051 1.055 4.218-16.457 6.772 1.748-4.19 16.43 4.939 1.248 6.55-25.587-26.559-6.799 1.415-5.606 29 7.41c3.081.805 4.94 3.94 4.163 7.021l-.14.444-6.41 25.17 3.496.916-1.415 5.661-41.1-10.517z" style="fill:#fff;stroke:none;stroke-width:27.7513"/><path d="m487.424 37.334-9.361 16.393c-2.665 4.625-.518 8.177 2.812 10.064l7.992 4.479 11.211 6.4 3.553 1.96 1.592-2.96 3.107 1.814 3.404 1.924-4.107 7.14-2.848-2.886-6.142-4.476c-4.182-2.368-8.475-3.701-12.434-4.182-6.032-.63-11.063.962-13.246 4.773-2.183 3.848-.962 8.993 2.59 13.84 2.442 3.146 5.772 6.142 9.99 8.547l6.994 3.033c7.882 2.517 15.097 1.37 18.28-3.33l1.85-2.738c6.364-11.1 12.913-22.644 19.685-34.484l-9.215-5.291-2.367 4.216-3.405-1.924-3.367-1.923 2.22-3.922-3.146-1.85-5.771-3.293-2.258 3.996-5.476-3.146-5.477-3.108 2.258-3.959zm3.242 15.008 5.514 3.107 5.476 3.11-3.59 6.254-5.439-3.11-5.477-3.144zm19.943 11.312 3.368 1.961 3.367 1.887-2.442 4.328-3.404-1.887-3.367-1.96zm-22.935 17.787c2.17.033 4.769.773 7.285 2.198l5.734 5.29.518 4.96-4.588 2.072-7.4-2.22c-5.033-2.887-7.88-7.439-6.252-10.25.795-1.406 2.534-2.082 4.703-2.05zM556.057 81.816c-3.246-.063-6.176.941-8.135 3.03-2.442 2.664-2.738 6.549-1.443 10.619l-6.29-6.291-4.878 5.297 11.433 10.658-2.885.517c-3.589-.221-6.586-2.33-11.507-6.734l-4.22 4.514 5.106 4.773-.443 2.924-4.994 5.365.074 8.325 3.256 2.998 25.05 23.347 36.965-39.629-7.845-7.289-20.867 22.385-8.807-8.213-4.996 5.402 8.806 8.176-5.771 6.18-16.023-14.91-.33-.295.11-.295 5.958-6.4-.815-.74-4.105-3.885 5.29 2.664 3.071.74c3.553.629 5.366.258 9.436-1.037l7.62 7.068 4.997-5.365-5.883-4.996c3.737.666 7.216-.258 9.621-2.885 4.477-4.774 2.922-14.099-3.812-20.463l-.047-.047c-3.83-3.58-8.525-5.426-12.697-5.508zm-2.17 10.705 9.953.15.926 9.991-9.953-.262z" style="fill:#fff;stroke:none;stroke-width:37.0017" transform="scale(.75)"/><path d="m472.467 136.759-8.936-14.514 5.023-3.109 12.543 20.398-30.332 18.676-3.635-5.883z" style="fill:#fff;stroke:none;stroke-width:27.7513"/><path d="m647.754 194.963-37.41 33.117 3.775 8.805 49.768-4.551-3.739-8.77-12.062 1.37-5.734-13.247 9.287-7.806zm-11.512 21.984 3.81 8.844-16.464 1.738z" style="fill:#fff;stroke:none;stroke-width:37.0017" transform="scale(.75)"/><path d="m502.854 190.346-28.611 8.881 2.72 8.714-5.44 1.693-7.493-24.116 5.44-1.693 2.72 8.742 28.61-8.88zM508.654 212.298l-34.883 7.465-1.47-6.827 34.883-7.465z" style="fill:#fff;stroke:none;stroke-width:27.7513"/><path d="M652.43 293.393a20.898 20.898 0 0 0-3.752.18c-5.402.702-9.25 2.812-11.617 6.253-2.034 2.886-2.776 6.401-2.221 10.545l2.515 18.797 47.067-6.254-1.184-9.139-16.17 2.147-1.295-9.658c-.48-3.737-1.997-6.845-4.476-9.213-2.331-2.276-5.308-3.49-8.867-3.658zm-2.67 9.312 5.845.887 2.739 4.107 1.22 9.215-15.91 2.145-1.222-9.25 1.74-4.625z" style="fill:#fff;stroke:none;stroke-width:37.0017" transform="scale(.75)"/><path d="m507.35 259.891-3.441-1.415c-2.11.112-3.83 1.749-5.134 4.884a600.925 600.925 0 0 1-3.636 8.52c-1.804 3.025-4.44 4.523-7.798 4.496-3.44-.035-6.05-1.166-7.909-3.414-1.665-2.109-2.525-5.05-2.498-8.713.053-3.58.944-6.411 2.72-8.548 1.749-2.11 4.274-3.33 7.52-3.636l-.052 7.133-3.191 1.47-1.276 3.608 1.248 3.691 3.247 1.36c1.443.035 2.747-1.526 3.83-4.579 1.693-4.523 2.997-7.382 3.83-8.603 2.22-3.108 5.244-4.607 9.157-4.579 3.275.035 5.856 1.277 7.854 3.719 1.97 2.442 2.859 5.55 2.664 9.324-.192 4.08-1.415 7.243-3.58 9.436-1.915 1.915-4.468 2.997-7.687 3.274l.053-6.799 3.69-1.748 1.86-4.33-1.47-4.55" style="fill:#fff;stroke:none;stroke-width:27.7513"/><path fill="#d0121b" d="M121.85 229.92c-2.525-125.047 95.105-59.582 103.402-137.175.527-3.802 1.221 78.092 1.72 96.63l-57.833 1.416 1.054 50.896-35.188.36c-10.99.113-13.071-7.797-13.155-12.127M396.905 212.093c2.526 125.214-95.27 59.582-103.568 137.341-.168 3.802-1.054-78.12-1.582-96.825l57.696-1.387-.86-50.924 35.326-.332c10.796-.084 12.877 7.77 12.988 12.127M248.305 83.568c125.575-2.526 61.664 93.355 139.395 103.235l-97.324 1.915-.86-57.695-50.757.86-.86-35.161c-.277-10.907 6.41-13.071 10.406-13.154M270.465 358.448c-125.575 2.525-61.664-93.356-139.423-103.402l97.324-1.72.86 57.833 50.951-.86.695 35.16c.192 10.935-6.383 12.905-10.407 12.989" style="stroke-width:27.7513"/><path fill="#00a73b" d="M297.461 388.064c5.217-1.221 23.422 27.363 29.444 51.618 92.523-36.882 134.234-136.842 90.97-229.338-11.795 20.092-2.276 44.708-7.133 62.025-4.662 16.956-29.943 30.137-36.548 32.219-58.528 17.317-27.363 43.625-47.622 62.523-10.573 9.686-23.894 9.686-29.11 20.953M212.256 366.75c-28.75-6.05-30.443-24.226-35.66-39.129-11.268-33.052-25.643-34.633-42.96-40.35-16.983-6.078-21.313-26.502-28.25-31.72-20.425 110.367 75.539 215.49 197.284 192.095-1.388-51.784-56.974-73.43-90.414-80.895" style="stroke-width:27.7513"/></svg>