<svg xmlns="http://www.w3.org/2000/svg" width="322" height="211" version="1.2" viewBox="0 0 322 211"><path d="M12.8 71.8c-2 1.5-4.5 4-5.7 5.7-1.1 1.7-3.2 5.7-4.6 9-1.5 3.6-2.5 8-2.5 11 0 2.8.6 7 1.4 9.5.7 2.5 1.9 5.6 2.6 7s2.7 4.3 4.5 6.5c1.7 2.2 5.4 5.4 8.1 7.1S29.4 135.4 39 141c9.6 5.7 26.7 15.8 38 22.5s28.2 16.6 37.5 22 22.8 13.3 30 17.6c7.7 4.7 14.1 7.9 15.8 7.9 1.5 0 6-2 9.9-4.4 4-2.4 13.1-7.6 20.3-11.6 7.2-4.1 24-13.5 37.5-21s36.6-20.6 51.4-29.1c18.3-10.4 28.5-16.9 31.8-20.1 2.6-2.7 5.6-6.5 6.7-8.5 1-2.1 2.4-6.3 3-9.3.8-4.1.9-7 0-11.5-.6-3.3-2.2-8.1-3.5-10.7-1.3-2.7-4.3-6.8-6.7-9.3-2.3-2.5-4.8-4.6-5.5-4.5-.6 0-1.2.1-1.2.3 0 .1.8 2.2 1.9 4.7 1.2 2.5 2.1 5.4 2.1 6.5s-.5 3.7-1 5.8c-.6 2-2.5 5.3-4.3 7.2-1.7 1.9-8.6 6.5-15.2 10.3-6.6 3.7-16.1 9.1-21 11.9S236.1 135 210 149.9 161.6 177 160.5 177s-8.1-3.5-15.5-7.8-18.7-11-25-14.9c-6.3-3.8-20.3-12.1-31-18.5-10.7-6.3-24.5-14.3-30.5-17.8s-16.2-9.5-22.5-13.3-13-8.1-14.9-9.6c-1.9-1.4-4.3-4.4-5.3-6.6S14 82.9 14 81s.8-5.4 1.8-7.8c.9-2.3 1.5-4.2 1.1-4.2-.3 0-2.1 1.2-4.1 2.8M132.3 4.3c-2.3 2.3-5.6 7.3-7.4 11.2-3.1 6.7-3.2 7.4-2.6 15.5.4 6.2 1.3 9.9 3.1 13.5 1.4 2.8 4.7 7.1 7.3 9.6 2.6 2.6 9.9 7.6 16.1 11.3C154.9 69 160.4 72 161 72s4-1.7 7.8-3.7c3.7-2 9.6-5.5 13.2-7.8s8.2-6.1 10.2-8.6c2-2.4 4.4-6.1 5.2-8.2.9-2 2.1-6.1 2.6-9 .7-3.5.7-6.9 0-10.7-.6-3-2.1-7.5-3.3-10-1.2-2.4-4.2-6.6-6.7-9.2S184.9 0 184.3 0c-.9 0-.7 1.5.8 5.2 1.4 3.7 1.9 6.5 1.5 9-.3 2.1-1.6 5.3-2.8 7.2-1.3 1.9-4.1 4.8-6.3 6.4s-6.8 4.5-10.2 6.3l-6.3 3.4c-12.8-7.5-17.8-10.9-19.3-12.4-1.6-1.4-3.5-3.8-4.3-5.4-.8-1.5-1.4-5.1-1.4-8 .1-2.8.7-6.3 1.5-7.7s1.4-2.8 1.5-3.3c0-.4-.6-.7-1.3-.7s-3.2 1.9-5.4 4.2zm-40 22.5c-2.7 2.7-5.9 7-7.2 9.8-1.3 2.7-2.8 7.7-3.4 11-.7 4.2-.7 7.6.1 11.5.7 3.1 2.8 8.1 5 11.5 2.1 3.3 5.6 7.4 7.8 9.1 2.1 1.7 14.4 9.2 27.2 16.7 12.7 7.5 23.4 13.7 23.7 13.7s2.4 1.3 4.8 2.9c2.3 1.5 5.7 3.6 7.5 4.5l3.2 1.6c52.1-29.6 66-38.2 69-41 2.9-2.7 6-6.9 7.7-10.5 2.4-5.1 2.8-7.2 2.7-14 0-5.8-.7-9.6-2.4-14-1.6-4.2-4-7.6-7.7-11.3-2.9-2.8-5.7-5-6.3-4.7s-.2 2 1 4.3c1.2 2.1 2 5.6 2 8.2 0 2.5-.8 6.1-1.9 8-1 1.9-3.4 4.7-5.2 6.2-1.9 1.4-14 8.7-26.9 16.1s-25.4 14.4-27.7 15.5l-4.3 2.2c-10.5-5.7-23.4-13.1-35.5-20.3-12.1-7.1-23.1-13.9-24.3-15.1-1.3-1.1-3.3-3.8-4.3-5.9-1-2-1.9-5.4-1.9-7.5 0-2 .9-5.6 2-8 1.1-2.3 1.6-4.4 1.1-4.7s-3.1 1.6-5.8 4.2M51.9 49.9c-2.2 2-5.5 6.6-7.2 10.2-2.9 5.8-3.2 7.4-3.2 15.5.1 7.9.4 9.7 3 14.9 1.7 3.2 5 7.7 7.5 10s11.3 8.2 19.5 13.1c8.3 4.9 24.9 14.8 37 22s28.3 16.8 36 21.3 14.9 8.2 16 8.2 10.8-5 21.5-11.1 29.8-16.9 42.5-24.1c12.6-7.2 27-15.3 31.9-18.2 5-2.8 11-6.9 13.5-9.2s6-6.8 7.6-10c2.7-5.3 3-6.8 3-15.4 0-8.3-.3-10.2-2.7-15-1.5-3-5-7.8-7.7-10.5-2.8-2.8-5.4-4.7-5.8-4.2-.5.4-.2 1.7.5 3 .7 1.2 1.6 3.5 2.1 5.2s.5 4.9 0 7.5c-.5 2.7-2.2 6-4.1 8.2-2.4 2.7-15.3 10.6-44.8 27.4-22.8 13.1-44.4 25.3-48 27.3s-7.2 4-8 4.3c-.9.4-8.1-3.1-18.5-9.1-9.3-5.4-31.2-18.2-48.5-28.5S62.2 72.8 60.7 71.3c-1.6-1.5-3.6-4-4.4-5.7-.9-1.7-1.5-4.9-1.4-7.3 0-2.3.8-5.9 1.6-8 .9-2 1.5-3.8 1.5-4 0-.1-.4-.2-1-.2-.5 0-2.8 1.7-5.1 3.7z" style="fill:#dc5e1b"/></svg>