<svg xmlns="http://www.w3.org/2000/svg" xml:space="preserve" width="1016.8366" height="500" viewBox="0 0 1016.8366 499.99999"><path d="M0 0c-2.546 0-4.982.259-7.326.78-2.352.51-4.344 1.477-5.999 2.887-1.654 1.416-2.866 3.381-3.613 5.89-.762 2.515-.802 5.8-.115 9.874l10.237 58.066c2.894 0 5.513-.465 7.849-1.397 2.347-.93 4.298-2.249 5.84-3.975 1.548-1.727 2.637-3.762 3.258-6.098.619-2.34.655-4.896.105-7.645z" style="fill:#004fb4;fill-opacity:1;fill-rule:nonzero;stroke:none" transform="matrix(3.1929 0 0 -3.1929 240.81 307.968)"/><path d="M0 0c-2.537 0-4.992.259-7.335.78-2.343.51-4.336 1.477-5.992 2.887-1.647 1.416-2.866 3.381-3.616 5.89-.752 2.515-.797 5.8-.108 9.874l10.227 58.066c2.904 0 5.523-.465 7.863-1.397 2.341-.93 4.285-2.249 5.836-3.975 1.546-1.727 2.635-3.762 3.258-6.098.619-2.34.655-4.896.103-7.645z" style="fill:#004fb4;fill-opacity:1;fill-rule:nonzero;stroke:none" transform="matrix(3.1929 0 0 -3.1929 361.156 307.968)"/><path d="M0 0c.07-1.446.47-2.682 1.194-3.721a8.36 8.36 0 0 1 2.675-2.474c1.069-.621 2.282-1.089 3.628-1.395a16.967 16.967 0 0 1 3.868-.467h11.26c1.314 0 2.687.154 4.139.467 1.449.306 2.832.774 4.126 1.395a12.282 12.282 0 0 1 3.513 2.474C35.436-2.682 36.229-1.446 36.79 0a18.288 18.288 0 0 1 1.243 6.611c0 1.451-.371 2.693-1.089 3.723a8.257 8.257 0 0 1-2.74 2.484c-1.096.617-2.321 1.081-3.672 1.39a17.971 17.971 0 0 1-3.971.464H15.297c-1.248 0-2.584-.161-4.034-.464a18.018 18.018 0 0 1-4.079-1.39 13.41 13.41 0 0 1-3.511-2.484 10.064 10.064 0 0 1-2.432-3.723C.827 5.644.526 4.542.315 3.306.101 2.067 0 .962 0 0m58.9 3.516c-1.034-5.724-2.587-10.452-4.653-14.21-2.069-3.752-4.719-6.754-7.951-8.987-3.24-2.242-7.102-3.828-11.57-4.756-4.484-.932-9.649-1.395-15.5-1.395H7.546c-3.791 0-7.826.274-12.096.832-.552-2.901-1.413-5.585-2.584-8.066-1.161-2.478-2.73-4.595-4.697-6.352-1.963-1.759-4.393-3.132-7.284-4.13-2.887-1.004-6.365-1.504-10.433-1.504l8.475 48.568c.961 5.368 2.439 9.9 4.436 13.584 2 3.688 4.595 6.664 7.805 8.935 3.203 2.275 7.068 3.913 11.624 4.908 4.546.997 9.884 1.502 16.018 1.502h10.741c5.651 0 10.563-.446 14.721-1.343 4.168-.897 7.493-2.427 9.975-4.6 2.483-2.168 4.14-5.116 4.957-8.832.834-3.722.725-8.438-.304-14.154" style="fill:#004fb4;fill-opacity:1;fill-rule:nonzero;stroke:none" transform="matrix(3.1929 0 0 -3.1929 732.439 164.12)"/><path d="M0 0s-.012 0-.012.028c-7.648-20.816-61.927-20.524-75.21-19.751l-3.284-14.168C-62.843-34.981 6.929-35.836 0 0" style="fill:#fc6200;fill-opacity:1;fill-rule:nonzero;stroke:none" transform="matrix(3.1929 0 0 -3.1929 684.302 .09)"/><path d="m0 0-9.958-59.271h-20.464l10.25 57.461C-13.83-1.542-6.875-.986 0 .04Z" style="fill:#004fb4;fill-opacity:1;fill-rule:nonzero;stroke:none" transform="matrix(3.1929 0 0 -3.1929 570.46 118.72)"/><path d="M0 0c0-2.475 1.636-4.75 4.788-4.75S9.617-2.674 9.617 0c0 3.112-2.075 4.708-4.789 4.708C1.716 4.708 0 2.513 0 0m8.419 7.501c1.876.798 1.836 2.435 1.836 4.15v5.706H3.591v3.233h6.664v7.661h5.227V11.492c0-2.953-1.556-4.828-3.591-5.706C13.687 4.429 14.844 2.434 14.844 0c0-3.991-3.392-7.981-10.056-8.021C-.519-8.061-5.307-5.308-5.228 0c.08 5.506 5.108 7.98 10.056 7.98 1.237 0 2.474-.159 3.591-.479m-9.576 16.321v-.479c0-4.708 2.673-9.137 8.22-10.495l-1.118-2.075c-.598-1.117-1.955-.997-2.713-.717-2.514.917-5.866 3.231-6.943 6.224-1.277-3.351-4.988-6.105-7.303-6.863-.878-.28-2.115-.439-2.833.958l-1.077 2.074c5.028 1.238 8.259 5.427 8.259 10.894v.479h-6.783v3.232H5.706v-3.232z" style="fill:#656263;fill-opacity:1;fill-rule:nonzero;stroke:none" transform="matrix(3.1929 0 0 -3.1929 47.65 474.388)"/><path d="M0 0v-3.831c0-.878.399-1.317 1.397-1.317h11.652V0Zm9.138-8.38v-5.946h13.966v-3.232H-9.257v3.232H3.831v5.946h-4.868c-2.953 0-4.23 1.556-4.23 3.871V8.379H0V3.232h13.049v5.147h5.227V-5.347c0-2.235-.479-3.033-2.873-3.033z" style="fill:#656263;fill-opacity:1;fill-rule:nonzero;stroke:none" transform="matrix(3.1929 0 0 -3.1929 148.938 414.761)"/><path d="M0 0c0-2.394 1.755-4.03 4.509-4.03 2.793 0 4.509 1.636 4.509 4.03 0 2.395-1.636 3.991-4.509 3.991C1.716 3.991 0 2.395 0 0m14.246 0c0-4.788-4.43-7.183-9.737-7.183-5.227 0-9.737 2.395-9.737 7.183 0 4.789 4.47 7.223 9.737 7.223 5.347 0 9.737-2.434 9.737-7.223m1.436 14.924H6.863v-2.992H20.51V8.779h-32.401v3.153H1.556v2.992H-4.03c-2.275 0-3.831 1.637-3.831 3.871v9.816h23.144v-3.152H-2.594v-1.915h17.877v-3.153H-2.594v-.718c0-1.037.479-1.596 1.716-1.596h16.56z" style="fill:#656263;fill-opacity:1;fill-rule:nonzero;stroke:none" transform="matrix(3.1929 0 0 -3.1929 271.887 476.94)"/><path d="M0 0v-22.585c0-1.317-.639-2.435-2.314-2.435h-3.711c.399.28.718.719.718 1.596V0Zm-18.276-30.646c0-.758.399-1.118 1.118-1.118H.359v-3.271h-19.632c-2.235 0-4.27.997-4.27 4.269v7.702h5.267zm1.437 29.25v-3.872c0-4.708 2.833-9.616 8.339-10.973l-1.197-2.075c-.758-1.396-2.115-.838-2.833-.598-2.354.838-5.626 3.631-6.824 6.464-1.037-2.913-4.987-6.384-7.262-7.103-.878-.279-2.155-.638-2.873.758l-1.077 1.996c4.948 1.556 8.3 6.025 8.3 11.531v3.872z" style="fill:#656263;fill-opacity:1;fill-rule:nonzero;stroke:none" transform="matrix(3.1929 0 0 -3.1929 441.084 384.184)"/><path d="M0 0c0-1.316-.679-2.434-2.354-2.434h-3.671c.439.279.718.718.718 1.596v29.01H0Zm-16.161 22.625c0 .439-.12.998-1.037.998h-10.575v3.192h12.849c3.153 0 3.911-1.596 3.911-3.671v-2.035c0-4.589-1.477-8.26-4.07-11.293-2.435-2.793-5.427-4.868-9.498-6.384-1.196-.44-1.875-.08-2.354.957l-.877 1.836c4.309 1.836 7.062 3.831 8.978 6.384 2.354 3.113 2.793 6.744 2.673 10.016" style="fill:#656263;fill-opacity:1;fill-rule:nonzero;stroke:none" transform="matrix(3.1929 0 0 -3.1929 555.75 475.536)"/><path d="M0 0c1.994 0 3.151 1.237 3.151 3.152 0 2.076-1.157 3.233-3.112 3.233-1.876 0-3.112-1.157-3.112-3.153C-3.073 1.317-1.876 0 0 0m18.354-19.633c0-1.316-.677-2.434-2.353-2.434H12.37c.439.279.718.719.718 1.597v6.145H-6.025v3.232H16.12c1.597 0 2.234-.638 2.234-2.155zM7.143 6.464C7.82 5.547 8.22 4.469 8.22 3.152c0-3.232-2.435-5.187-5.427-5.945v-1.995H7.7c2.794 0 4.629.478 5.747 1.277v16.879h5.227V-7.103c0-1.316-.638-2.833-2.314-2.833h-3.631c.439.279.718 1.118.718 1.995v1.197c-1.556-.918-3.631-1.277-5.587-1.277h-19.034v3.233h8.819v1.915c-3.113.678-5.786 2.674-5.786 6.025 0 1.317.399 2.395 1.077 3.312h-3.511v3.312h8.3v4.828h5.306v-1.635c0-1.557-.518-2.674-1.875-3.193h9.777V6.464Z" style="fill:#656263;fill-opacity:1;fill-rule:nonzero;stroke:none" transform="matrix(3.1929 0 0 -3.1929 611.938 426.994)"/><path d="M0 0c0-2.475 1.636-4.75 4.787-4.75C7.94-4.75 9.616-2.674 9.616 0c0 3.112-2.075 4.708-4.788 4.708C1.715 4.708 0 2.513 0 0m8.419 7.501c1.876.798 1.836 2.435 1.836 4.15v3.352a7.792 7.792 0 0 0-2.115-.319H5.426v3.192h3.512c.479 0 .958.041 1.317.2v1.796c-.4.119-.918.199-1.398.199h-3.47v3.193H8.18c.558 0 1.436-.08 2.075-.32v5.307h5.227V11.492c0-2.953-1.556-4.828-3.591-5.706C13.687 4.429 14.844 2.434 14.844 0c0-3.991-3.392-7.981-10.057-8.021C-.52-8.061-5.308-5.308-5.228 0-5.147 5.506-.12 7.98 4.828 7.98c1.236 0 2.474-.159 3.591-.479M-2.395 23.822h-3.791v-8.579c0-1.037.2-1.796 1.198-1.796h1.396c.957 0 1.197.719 1.197 1.636zm9.178-12.729c-1.117-.519-2.634-.838-4.389-.838h-16.64v3.192h4.469c-.918.24-1.397.838-1.397 2.075v8.3h-3.072v3.232H5.985v-3.232H2.593v-7.941c0-1.516-.36-2.035-1.317-2.434h1.278c1.276 0 2.833.28 4.229.878z" style="fill:#656263;fill-opacity:1;fill-rule:nonzero;stroke:none" transform="matrix(3.1929 0 0 -3.1929 735.65 474.388)"/><path d="M0 0c.4.359.998.958 2.674.958h3.152v-3.233H0v-14.286c0-1.316-.639-2.434-2.314-2.434h-3.67c.438.28.717.719.717 1.597v28.97H0Zm-15.362 6.025c0 .439-.12.998-1.037.998h-10.576v3.192h12.85c3.152 0 3.91-1.596 3.91-3.671V4.509c0-4.589-1.476-8.26-4.069-11.293-2.436-2.793-5.428-4.868-9.498-6.384-1.197-.44-1.876-.081-2.354.957l-.878 1.836c4.31 1.835 7.063 3.831 8.978 6.384 2.354 3.113 2.794 6.744 2.674 10.016" style="fill:#656263;fill-opacity:1;fill-rule:nonzero;stroke:none" transform="matrix(3.1929 0 0 -3.1929 896.18 422.533)"/><path d="M0 0h6.983v20.511h5.307V-4.07c0-1.317-.678-2.434-2.353-2.434H6.265c.439.279.718.718.718 1.596v1.756H0Zm-6.983 10.176c2.433 0 3.991 1.396 3.991 3.591 0 2.155-1.558 3.591-3.951 3.591-2.235 0-3.871-1.436-3.871-3.511 0-2.195 1.596-3.671 3.831-3.671m.2-20.311c0-.759.398-1.118 1.117-1.118h18.315v-3.271h-20.43c-2.235 0-4.27.997-4.27 4.269v5.188h5.268zm8.898 23.902c0-4.19-3.911-6.863-9.098-6.863-5.068 0-9.018 2.673-9.018 6.863 0 4.15 3.95 6.863 9.018 6.863 5.187 0 9.098-2.713 9.098-6.863M-17.797 1.996v3.232h14.525c2.035 0 5.586-.04 8.26 1.237V3.113c-1.955-.958-5.866-1.117-8.18-1.117h-2.275V-.877c0-1.317-.679-2.435-2.354-2.435h-3.671c.439.28.719.719.719 1.597v3.711z" style="fill:#656263;fill-opacity:1;fill-rule:nonzero;stroke:none" transform="matrix(3.1929 0 0 -3.1929 976.45 449.673)"/></svg>