<svg xmlns="http://www.w3.org/2000/svg" xml:space="preserve" width="850.67035" height="214.65599" viewBox="0 0 850.67033 214.65599"><defs><clipPath id="a" clipPathUnits="userSpaceOnUse"><path d="M0 595.276h841.89V0H0Z"/></clipPath></defs><g clip-path="url(#a)" transform="matrix(1.33333 0 0 -1.33333 -130.836 502.61)"><path d="M0 0c0-3.468-.168-6.378-.505-8.726h-8.937v20.79h-14.454v5.668h14.454v10.03c0 2.782-.308 5.344-.921 7.707H0Zm-9.442-31.938c0 3.468-1.241 6.435-3.718 8.912-2.48 2.478-5.394 3.715-8.732 3.715-3.343 0-6.243-1.237-8.692-3.715-2.446-2.477-3.673-5.444-3.673-8.912 0-3.464 1.227-6.416 3.673-8.862 2.449-2.444 5.349-3.664 8.692-3.664 3.399 0 6.322 1.22 8.774 3.664 2.448 2.446 3.676 5.398 3.676 8.862m9.442 0c0-5.073-2.147-9.34-6.436-12.809-4.289-3.463-9.441-5.199-15.456-5.199-5.962 0-11.087 1.736-15.372 5.199-4.29 3.469-6.436 7.736-6.436 12.809 0 5.074 2.146 9.392 6.436 12.951 4.285 3.562 9.41 5.341 15.372 5.341 5.96 0 11.1-1.769 15.415-5.292C-2.16-22.468 0-26.796 0-31.938m-35.594 43.261A265.89 265.89 0 0 0-17.962 1.298l-7.605-7.793A286.173 286.173 0 0 1-39.101 6.96a70.625 70.625 0 0 0-18.3-14.571l-4.096 3.432c11.585 7.551 18.774 17.268 21.559 29.151h-17.548v5.664h31.084c-1.395-6.749-4.456-13.184-9.192-19.313" style="fill:#5d393d;fill-opacity:1;fill-rule:nonzero;stroke:none" transform="translate(344.877 282.804)"/><path d="M405.483 299.623h-24.067v-10.215h24.067zm-24.067 5.754h24.067v2.415c0 2.97-.284 5.537-.838 7.702h10.029v-31.84h-41.033c-.939 0-1.409.53-1.409 1.576v22.652c0 2.91-.284 5.447-.838 7.612h10.022zm47.13-37.131H398.13v-13.742c0-2.848-.145-5.415-.422-7.707h-8.936v21.449H358.36V274h70.186zM488.262 251.516h-23.645v-11.604h23.645zm-23.645 5.666h23.645v2.879c0 3.089-.308 5.66-.92 7.703h10.279V234.25h-40.933c-.954 0-1.43.526-1.43 1.579v24.321c0 3.031-.301 5.571-.915 7.614h10.274zm2.006 38.156h-16.547v-12.629h16.547zm9.365 4.175H488.6v11.052c0 3.093-.315 5.659-.922 7.708h10.365v-35.564c0-3.4-.17-6.283-.507-8.631H488.6v19.777h-12.612v-16.807h-33.932c-.886 0-1.332.524-1.332 1.577v27.294c0 2.722-.308 5.227-.921 7.52h10.273v-12.437h16.547v5.29c0 3.153-.307 5.694-.922 7.612h10.287zM558.139 308.812h-23.977v-17.454h23.977zm9.195-23.207h-40.952c-.994 0-1.495.557-1.495 1.67v19.686c0 2.718-.252 5.261-.752 7.608h43.199zm13.866-16.343h-30.412v-14.758c0-2.848-.141-5.412-.423-7.705h-8.936v22.463h-30.413v5.667H581.2Z" style="fill:#5d393d;fill-opacity:1;fill-rule:nonzero;stroke:none"/><path d="M0 0c0 3.099-1.146 5.743-3.429 7.937-2.285 2.199-5.038 3.294-8.268 3.294-3.235 0-5.989-1.095-8.274-3.294-2.283-2.194-3.422-4.838-3.422-7.937 0-3.151 1.139-5.815 3.422-7.981 2.285-2.166 5.039-3.246 8.274-3.246 3.23 0 5.983 1.08 8.268 3.246C-1.146-5.815 0-3.151 0 0m9.273 0c0-4.701-2.061-8.658-6.183-11.878-4.121-3.217-9.05-4.832-14.787-4.832-5.743 0-10.671 1.615-14.794 4.832-4.121 3.22-6.176 7.177-6.176 11.878 0 4.705 2.055 8.691 6.176 11.979 4.123 3.278 9.051 4.92 14.794 4.92 5.737 0 10.666-1.642 14.787-4.92C7.212 8.691 9.273 4.705 9.273 0m2.169 64.986c-.054-12.257-1.084-21.233-3.091-26.92H.831c.56 3.895.838 10.982.838 21.258h-35.426v5.662zm11.949-39.828h-70.182v5.671h27.821v10.297c0 2.289-.193 4.176-.585 5.666h9.949V30.829h32.997z" style="fill:#5d393d;fill-opacity:1;fill-rule:nonzero;stroke:none" transform="translate(634.813 249.583)"/><path d="M0 0h-41.439c-1.008 0-1.507.526-1.507 1.579v19.126c0 2.718-.246 5.257-.745 7.608h10.108V5.661H0Zm-9.773 48v28.315c0 3.093-.302 5.659-.915 7.708H-.415V63.685h10.526v-5.658H-.415V39.828c0-3.405-.17-6.283-.499-8.638h-8.859v11.886c-4.458-1.425-9.197-2.134-14.203-2.134h-29.405c-.954 0-1.424.49-1.424 1.484v28.222c0 2.721-.253 5.263-.753 7.613h33.251v-5.664h-23.06V46.602h22.312c4.846 0 9.269.464 13.282 1.398" style="fill:#5d393d;fill-opacity:1;fill-rule:nonzero;stroke:none" transform="translate(726.019 234.25)"/><path d="M0 0c0 6.622-.491 7.358-5.642 8.035v.857h15.699v-.857C5.15 7.358 4.659 6.622 4.659 0v-10.546C7.666-7.85 16.496 1.045 19.315 4.846c.981 1.284 1.289 2.144-.612 2.573l-2.82.616v.857H30.6v-.857c-3.805-.677-5.15-1.169-9.199-4.415-2.698-2.148-7.482-6.809-12.385-11.778 5.578-6.68 12.385-14.04 15.145-16.861 3.801-3.985 4.416-4.661 7.359-5.087v-.862h-8.893c-2.881 3.25-13.98 16.07-17.968 20.299v-11.407c0-6.621.491-7.358 5.706-8.03v-.862H-5.336v.862C-.491-29.434 0-28.697 0-22.076z" style="fill:#5d393d;fill-opacity:1;fill-rule:nonzero;stroke:none" transform="translate(141.085 334.209)"/><path d="M0 0c-2.27 7.785-7.36 9.932-13.062 9.932-9.26 0-15.329-7.173-15.329-18.767 0-9.318 4.413-20.232 16.556-20.232 2.209 0 4.169.304 5.52.916 1.41.615 2.267 1.226 2.267 4.048v5.887c0 4.108-.244 4.844-6.93 5.641v.859H4.537v-.859C1.105-13.43.861-13.923.861-18.216v-4.172c0-2.203.058-4.17.365-5.578-3.801-1.043-8.77-2.451-13.367-2.451-12.878 0-22.26 8.402-22.26 20.419 0 13.858 11.036 21.28 22.625 21.28 5.337 0 9.566-1.046 11.714-1.596C.121 7.604.429 4.415.919.181Z" style="fill:#5d393d;fill-opacity:1;fill-rule:nonzero;stroke:none" transform="translate(188.048 309.938)"/><path d="M0 0c0-3.494.308-4.964 1.349-5.764 1.288-.981 3.314-.981 6.071-.981 2.945 0 5.702.86 7.115 2.391.981 1.165 2.085 3.25 3.496 6.074l.917-.186c-.306-1.718-1.656-7.972-2.144-9.627h-27.348v.859c5.149.673 5.638 1.413 5.638 8.033v22.076c0 6.623-.489 7.356-5.638 8.034v.86h16.31v-.86C.49 30.231 0 29.498 0 22.875Z" style="fill:#5d393d;fill-opacity:1;fill-rule:nonzero;stroke:none" transform="translate(197.491 304.79)"/><path d="M0 0c1.166-2.82 4.598-10.119 11.345-10.119 4.66 0 7.664 2.759 7.664 7.851 0 6.194-4.966 8.154-8.277 9.872C8.341 8.829.613 11.652.613 18.702c0 5.946 4.477 11.222 12.45 11.222 3.495 0 5.518-.985 7.359-1.412.241-2.142.613-4.598 1.102-8.331l-.92-.188c-1.349 3.74-3.189 8.461-8.891 8.461-4.721 0-6.868-3.19-6.868-7.055 0-4.534 3.496-6.742 8.154-8.886C17.536 10.486 23.426 7.852 23.426.556c0-6.871-5.765-12.209-13.491-12.329-2.207.12-4.293.555-5.763 1.041-1.537.492-2.578.981-3.255 1.291C.369-7.85-.305-3.493-.921-.245z" style="fill:#5d393d;fill-opacity:1;fill-rule:nonzero;stroke:none" transform="translate(209.84 315.082)"/><path d="M0 0v-7.439l-8.164-3.841c25.572-10.668 43.547-35.901 43.547-65.331 0-39.086-31.683-70.77-70.767-70.77-39.081 0-70.764 31.684-70.764 70.77 0 29.449 18.001 54.694 43.593 65.347l-8.21 3.825V.004c-28.924-13.384-48.991-42.655-48.991-76.618 0-46.595 37.775-84.374 84.372-84.374 46.601 0 84.375 37.779 84.375 84.374C48.991-42.651 28.924-13.38 0 0" style="fill:#cfbeab;fill-opacity:1;fill-rule:nonzero;stroke:none" transform="translate(217.883 376.953)"/><path d="M0 0h.904v-4.096L5.013 0h1.178L1.768-4.305 6.57-9.133H5.328L.904-4.566v-4.567H0Z" style="fill:#511a1f;fill-opacity:1;fill-rule:nonzero;stroke:none" transform="translate(127.003 271.115)"/><path d="M0 0c1.44 0 2.21 1.242 2.21 2.787 0 1.543-.77 2.787-2.21 2.787-1.439 0-2.211-1.244-2.211-2.787C-2.211 1.242-1.439 0 0 0m0 6.281c2.16 0 3.114-1.674 3.114-3.494C3.114.969 2.16-.707 0-.707S-3.114.969-3.114 2.787c0 1.82.954 3.494 3.114 3.494" style="fill:#511a1f;fill-opacity:1;fill-rule:nonzero;stroke:none" transform="translate(137.394 262.531)"/><path d="M0 0c0 .732 0 1.006-.054 1.492h.825V.209h.026c.301.746.864 1.439 1.714 1.439.197 0 .432-.039.576-.078V.707c-.17.051-.392.078-.603.078C1.177.785.824-.68.824-1.885v-3.297H0Z" style="fill:#511a1f;fill-opacity:1;fill-rule:nonzero;stroke:none" transform="translate(142.065 267.164)"/><path d="M0 0c0 1.164-.47 2.314-1.701 2.314C-2.917 2.314-3.663 1.1-3.663 0Zm.405-3.6a5.44 5.44 0 0 0-1.935-.367c-2.212 0-3.035 1.492-3.035 3.494 0 2.041 1.125 3.494 2.814 3.494C.131 3.021.904 1.502.904-.289v-.42h-4.567c0-1.412.76-2.551 2.2-2.551.599 0 1.477.25 1.868.498z" style="fill:#511a1f;fill-opacity:1;fill-rule:nonzero;stroke:none" transform="translate(150.49 265.791)"/><path d="M0 0h-.234c-1.427 0-3.128-.145-3.128-1.609 0-.877.628-1.205 1.386-1.205C-.039-2.814 0-1.127 0-.406zm.081-2.291H.054c-.368-.799-1.296-1.23-2.12-1.23-1.898 0-2.2 1.283-2.2 1.884C-4.266.602-1.885.707-.157.707H0v.34C0 2.186-.405 2.76-1.517 2.76c-.693 0-1.349-.156-1.962-.549v.797c.509.248 1.373.459 1.962.459C.131 3.467.824 2.721.824.98v-2.945c0-.535 0-.939.067-1.398h-.81z" style="fill:#511a1f;fill-opacity:1;fill-rule:nonzero;stroke:none" transform="translate(156.717 265.346)"/><path d="M0 0c0 .51 0 1.033-.052 1.57h.797V.379h.027c.274.601.772 1.348 2.16 1.348 1.647 0 2.276-1.098 2.276-2.565v-4.266h-.825v4.057c0 1.254-.445 2.067-1.582 2.067C1.294 1.02.826-.303.826-1.414v-3.69H0Z" style="fill:#511a1f;fill-opacity:1;fill-rule:nonzero;stroke:none" transform="translate(159.505 267.086)"/><path d="M0 0h-2.121v.785H.902v-4.541c-.927-.404-1.831-.562-2.839-.562-2.88 0-4.606 1.898-4.606 4.724 0 2.774 1.78 4.723 4.606 4.723.693 0 1.832-.119 2.448-.43l-.106-.838c-.706.391-1.544.483-2.342.483-2.367 0-3.704-1.674-3.704-3.938 0-2.302 1.296-3.937 3.704-3.937.562 0 1.503.064 1.937.324z" style="fill:#511a1f;fill-opacity:1;fill-rule:nonzero;stroke:none" transform="translate(176.763 266.143)"/><path d="M0 0c1.44 0 2.21 1.242 2.21 2.787 0 1.543-.77 2.787-2.21 2.787S-2.212 4.33-2.212 2.787C-2.212 1.242-1.44 0 0 0m0 6.281c2.16 0 3.114-1.674 3.114-3.494C3.114.969 2.16-.707 0-.707S-3.114.969-3.114 2.787c0 1.82.954 3.494 3.114 3.494" style="fill:#511a1f;fill-opacity:1;fill-rule:nonzero;stroke:none" transform="translate(182.467 262.531)"/><path d="M0 0h-.97l-2.263 6.674h.902L-.486.904h.027l1.936 5.77h.863Z" style="fill:#511a1f;fill-opacity:1;fill-rule:nonzero;stroke:none" transform="translate(189.455 261.982)"/><path d="M0 0c0 1.164-.472 2.314-1.701 2.314C-2.917 2.314-3.663 1.1-3.663 0Zm.405-3.6a5.456 5.456 0 0 0-1.935-.367c-2.212 0-3.037 1.492-3.037 3.494 0 2.041 1.125 3.494 2.814 3.494C.13 3.021.904 1.502.904-.289v-.42h-4.567c0-1.412.758-2.551 2.198-2.551.601 0 1.478.25 1.87.498z" style="fill:#511a1f;fill-opacity:1;fill-rule:nonzero;stroke:none" transform="translate(197.016 265.791)"/><path d="M0 0c0 .732 0 1.006-.052 1.492h.824V.209h.027c.301.746.864 1.439 1.714 1.439.194 0 .432-.039.576-.078V.707a2.23 2.23 0 0 1-.603.078C1.177.785.826-.68.826-1.885v-3.297H0Z" style="fill:#511a1f;fill-opacity:1;fill-rule:nonzero;stroke:none" transform="translate(199.488 267.164)"/><path d="M0 0c0 .51 0 1.033-.053 1.57h.797V.379H.77c.275.601.774 1.348 2.16 1.348 1.648 0 2.277-1.098 2.277-2.565v-4.266h-.824v4.057c0 1.254-.445 2.067-1.584 2.067C1.296 1.02.824-.303.824-1.414v-3.69H0Z" style="fill:#511a1f;fill-opacity:1;fill-rule:nonzero;stroke:none" transform="translate(203.846 267.086)"/><path d="M0 0v4.436c0 .941-.352 1.687-1.413 1.687-.902 0-1.792-.773-1.792-2.434V0h-.823v4.436c0 .941-.355 1.687-1.413 1.687-.904 0-1.793-.773-1.793-2.434V0h-.826v5.104c0 .509 0 1.033-.05 1.57h.797V5.549l.027-.014c.261.459.653 1.295 2.079 1.295.589 0 1.557-.248 1.767-1.412h.026c.3.785 1.087 1.412 2.132 1.412C.067 6.83.825 5.889.825 4.594V0Z" style="fill:#511a1f;fill-opacity:1;fill-rule:nonzero;stroke:none" transform="translate(219.179 261.982)"/><path d="M0 0c0 1.164-.469 2.314-1.701 2.314C-2.917 2.314-3.663 1.1-3.663 0Zm.407-3.6a5.458 5.458 0 0 0-1.937-.367c-2.21 0-3.035 1.492-3.035 3.494 0 2.041 1.126 3.494 2.814 3.494C.132 3.021.904 1.502.904-.289v-.42h-4.567c0-1.412.76-2.551 2.198-2.551.601 0 1.478.25 1.872.498z" style="fill:#511a1f;fill-opacity:1;fill-rule:nonzero;stroke:none" transform="translate(226.086 265.791)"/><path d="M0 0c0 .51 0 1.033-.054 1.57h.799V.379H.77c.276.601.773 1.348 2.16 1.348 1.649 0 2.277-1.098 2.277-2.565v-4.266h-.824v4.057c0 1.254-.445 2.067-1.584 2.067C1.296 1.02.824-.303.824-1.414v-3.69H0Z" style="fill:#511a1f;fill-opacity:1;fill-rule:nonzero;stroke:none" transform="translate(228.561 267.086)"/><path d="M0 0h-1.517v-4.32c0-.6.221-1.098.889-1.098.313 0 .524.066.758.158l.054-.681a3.005 3.005 0 0 0-1.008-.184c-1.467 0-1.518 1.008-1.518 2.225V0H-3.65v.707h1.308v1.609l.825.289V.707H0Z" style="fill:#511a1f;fill-opacity:1;fill-rule:nonzero;stroke:none" transform="translate(238.713 267.95)"/><path d="M0 0h.901v-8.348h3.663v-.787H0Z" style="fill:#511a1f;fill-opacity:1;fill-rule:nonzero;stroke:none" transform="translate(147.9 258.201)"/><path d="M0 0c0 1.164-.472 2.316-1.701 2.316C-2.918 2.316-3.663 1.1-3.663 0Zm.405-3.598a5.505 5.505 0 0 0-1.935-.367c-2.214 0-3.037 1.492-3.037 3.492 0 2.043 1.125 3.496 2.812 3.496C.13 3.023.9 1.504.9-.289v-.416h-4.563c0-1.416.758-2.553 2.196-2.553.603 0 1.48.248 1.872.498z" style="fill:#511a1f;fill-opacity:1;fill-rule:nonzero;stroke:none" transform="translate(157.766 252.875)"/><path d="M0 0c1.492 0 2.029 1.412 2.029 2.627 0 1.611-.472 2.789-1.975 2.789-1.571 0-1.976-1.494-1.976-2.789C-1.922 1.32-1.399 0 0 0m2.853-.158c0-1.86-.837-3.377-3.127-3.377-.878 0-1.675.248-2.017.353l.068.827a4.509 4.509 0 0 1 1.962-.473c2.119 0 2.303 1.545 2.303 3.43h-.026C1.57-.367.837-.709-.013-.709c-2.133 0-2.813 1.859-2.813 3.336 0 2.029.787 3.496 2.749 3.496.888 0 1.463-.119 2.079-.918h.027v.76h.824z" style="fill:#511a1f;fill-opacity:1;fill-rule:nonzero;stroke:none" transform="translate(162.67 249.775)"/><path d="M0 0h-.234c-1.427 0-3.128-.145-3.128-1.607 0-.877.63-1.206 1.386-1.206C-.037-2.813 0-1.125 0-.404zm.081-2.287H.054c-.367-.801-1.296-1.233-2.12-1.233-1.897 0-2.198 1.282-2.198 1.885C-4.264.602-1.882.707-.156.707H0v.34c0 1.139-.405 1.715-1.517 1.715-.693 0-1.347-.158-1.962-.549v.797c.509.25 1.373.459 1.962.459C.131 3.469.826 2.721.826.98v-2.943c0-.535 0-.941.065-1.4h-.81z" style="fill:#511a1f;fill-opacity:1;fill-rule:nonzero;stroke:none" transform="translate(171.266 252.43)"/><path d="M174.054 258.881h.826v-9.814h-.826z" style="fill:#511a1f;fill-opacity:1;fill-rule:nonzero;stroke:none"/><path d="M0 0c.538-.342 1.166-.535 2.016-.535 1.125 0 2.056.574 2.056 1.867 0 1.795-4.189 2.018-4.189 4.412 0 1.465 1.283 2.379 2.893 2.379.445 0 1.163-.062 1.791-.297l-.144-.828c-.405.223-1.048.342-1.66.342-.943 0-1.976-.393-1.976-1.57 0-1.832 4.186-1.846 4.186-4.514 0-1.846-1.584-2.578-2.997-2.578-.888 0-1.582.183-2.066.392z" style="fill:#511a1f;fill-opacity:1;fill-rule:nonzero;stroke:none" transform="translate(180.438 250.232)"/><path d="M0 0c0 1.164-.469 2.316-1.701 2.316C-2.917 2.316-3.663 1.1-3.663 0Zm.405-3.598a5.483 5.483 0 0 0-1.935-.367c-2.21 0-3.035 1.492-3.035 3.492 0 2.043 1.125 3.496 2.814 3.496C.13 3.023.904 1.504.904-.289v-.416h-4.567c0-1.416.76-2.553 2.198-2.553.601 0 1.478.248 1.87.498z" style="fill:#511a1f;fill-opacity:1;fill-rule:nonzero;stroke:none" transform="translate(191.206 252.875)"/><path d="M0 0c0 .732 0 1.008-.054 1.492H.77V.211h.027c.301.744.864 1.439 1.714 1.439.196 0 .432-.041.576-.08V.707c-.17.053-.392.078-.603.078C1.175.785.824-.68.824-1.883v-3.299H0Z" style="fill:#511a1f;fill-opacity:1;fill-rule:nonzero;stroke:none" transform="translate(193.68 254.248)"/><path d="M0 0h-.969l-2.264 6.674h.904L-.484.904h.027l1.936 5.77h.863z" style="fill:#511a1f;fill-opacity:1;fill-rule:nonzero;stroke:none" transform="translate(200.352 249.066)"/><path d="M203.846 255.74h.824v-6.674h-.824zm.824 1.78h-.824v1.1h.824z" style="fill:#511a1f;fill-opacity:1;fill-rule:nonzero;stroke:none"/><path d="M0 0c-.443.195-.981.34-1.426.34-1.609 0-2.513-1.166-2.513-2.789 0-1.518.917-2.785 2.421-2.785.522 0 1.008.117 1.505.3l.078-.771c-.562-.197-1.085-.236-1.714-.236-2.146 0-3.191 1.636-3.191 3.492 0 2.056 1.319 3.496 3.295 3.496.8 0 1.375-.186 1.61-.264z" style="fill:#511a1f;fill-opacity:1;fill-rule:nonzero;stroke:none" transform="translate(211.094 254.852)"/><path d="M0 0c0 1.164-.471 2.316-1.701 2.316C-2.917 2.316-3.664 1.1-3.664 0Zm.405-3.598a5.496 5.496 0 0 0-1.935-.367c-2.21 0-3.036 1.492-3.036 3.492 0 2.043 1.125 3.496 2.813 3.496C.13 3.023.904 1.504.904-.289v-.416h-4.568c0-1.416.761-2.553 2.199-2.553.603 0 1.478.248 1.87.498z" style="fill:#511a1f;fill-opacity:1;fill-rule:nonzero;stroke:none" transform="translate(216.627 252.875)"/><path d="M0 0v20.005h-4.796V1.722h-3.321V35.87h3.321V23.284H0v13.2h3.361V0Zm-9.716 10.043c-.711-.137-1.954-.293-3.73-.471a77.85 77.85 0 0 0-4.878-.348 281.066 281.066 0 0 0-4.202-.062c-1.599-.014-2.426-.02-2.48-.02v24.801h12.79v-2.87h-9.429V12.216l4.428.082c1.12.027 2.48.129 4.078.307 1.599.178 2.74.321 3.423.431z" style="fill:#0e0f0f;fill-opacity:1;fill-rule:nonzero;stroke:none" transform="translate(320.678 332.807)"/><path d="M0 0v-10.781h5.165v-3.034H0v-13.118h-3.444V0Zm-23.449-35.747v10.331h3.526v-7.42H1.188v-2.911zm1.128 16.582c1.025-.642 2.411-.963 4.16-.963 1.777 0 3.163.321 4.161.963.998.642 1.497 1.497 1.497 2.562 0 1.066-.499 1.92-1.497 2.562-.998.643-2.384.964-4.161.964-1.749 0-3.135-.321-4.16-.964-1.025-.642-1.537-1.482-1.537-2.521 0-1.093.512-1.961 1.537-2.603M-23.858.082h11.191v-2.747h-11.191zm-.984-12.298c1.721 1.23 3.948 1.844 6.681 1.844 2.843 0 5.09-.614 6.744-1.844 1.653-1.23 2.48-2.706 2.48-4.428 0-1.667-.834-3.115-2.501-4.345-1.667-1.23-3.921-1.844-6.764-1.844-2.733 0-4.953.614-6.661 1.844-1.708 1.23-2.562 2.692-2.562 4.386 0 1.695.861 3.157 2.583 4.387m-4.018 6.641h21.399v-2.747H-28.86Z" style="fill:#0e0f0f;fill-opacity:1;fill-rule:nonzero;stroke:none" transform="translate(357.613 369.291)"/><path d="M389.916 369.292h3.444v-26.769h-3.444zm-20.784-35.747v12.052h3.443v-9.141h21.645v-2.911zm9.552 31.196h-10.249v-11.642h10.249zm-13.57 2.87h16.849V350.23h-16.849z" style="fill:#0e0f0f;fill-opacity:1;fill-rule:nonzero;stroke:none"/><path d="M0 0v-6.682h11.273v-12.872H7.83v9.961h-22.096v2.911h10.781V0h-14.798v2.911H6.928c.328 1.42.635 3.115.923 5.083.286 1.967.457 3.703.511 5.206h-22.669v2.91H11.97c-.028-1.995-.199-4.222-.512-6.682-.314-2.459-.69-4.632-1.128-6.517h5.493V0Z" style="fill:#0e0f0f;fill-opacity:1;fill-rule:nonzero;stroke:none" transform="translate(415.373 352.115)"/><path d="M0 0v-6.682h11.273v-12.872H7.83v9.961h-22.096v2.911h10.782V0h-14.799v2.911H6.929c.327 1.42.634 3.115.922 5.083.287 1.967.457 3.703.512 5.206h-22.67v2.91h26.278c-.028-1.995-.2-4.222-.513-6.682-.314-2.459-.69-4.632-1.127-6.517h5.493V0Z" style="fill:#0e0f0f;fill-opacity:1;fill-rule:nonzero;stroke:none" transform="translate(460.465 352.115)"/><path d="M0 0v-14.84h5.452v-3.074H0v-18.611h-3.484V0Zm-10.002-2.295a35.395 35.395 0 0 0-1.148-7.707 30.919 30.919 0 0 0-2.788-6.969c-1.311-2.405-2.965-4.633-4.959-6.682-1.997-2.05-4.332-3.881-7.011-5.493-.301.3-.785.696-1.455 1.188s-1.209.875-1.619 1.148c2.595 1.339 4.857 2.883 6.784 4.632 1.927 1.749 3.518 3.662 4.776 5.74a24.133 24.133 0 0 1 2.398 5.308 28.484 28.484 0 0 1 1.169 5.883h-12.873v2.952z" style="fill:#0e0f0f;fill-opacity:1;fill-rule:nonzero;stroke:none" transform="translate(506.419 369.291)"/><path d="M0 0v2.911h15.291v6.64H4.633V21.44h21.193v5.944H4.551v2.869h24.678V18.57H7.994v-6.149h22.424v-2.87H18.857v-6.64H34.23V0Z" style="fill:#0e0f0f;fill-opacity:1;fill-rule:nonzero;stroke:none" transform="translate(511.79 337.316)"/><path d="M0 0v10.167h-6.395v2.91H0v7.994h3.443V0Zm0-4.509h-17.341v-7.666H0ZM-19.186 5.37c1.339.027 2.515.041 3.527.041 1.011 0 1.98.014 2.91.041l.082 11.11h-6.641zm-1.598-7.051H3.444v-13.323h-24.228Zm17.669 5.042a86.109 86.109 0 0 0-4.756-.491 114.517 114.517 0 0 0-4.878-.287c-.711-.028-3.245-.056-7.605-.083l-6.661-.041V5.37h4.55l-.164 11.192h-3.32v2.828h20.251v-2.828h-3.649L-9.47 5.616c1.067.054 2.173.136 3.321.246 1.148.109 2.159.232 3.034.369z" style="fill:#0e0f0f;fill-opacity:1;fill-rule:nonzero;stroke:none" transform="translate(574.714 348.22)"/></g></svg>