<svg xmlns="http://www.w3.org/2000/svg" xml:space="preserve" width="1000px" height="1000px" x="0px" y="0px" viewBox="0 0 1000 1000"><path fill="#FFF" d="M999 497.015c0 273.937-222.066 496.011-496.009 496.011C229.053 993.025 6.98 770.951 6.98 497.015S229.053 1.004 502.991 1.004C776.934 1.004 999 223.078 999 497.015"/><path fill="none" stroke="#000" stroke-miterlimit="10" d="M999 497.015c0 273.937-222.066 496.011-496.009 496.011C229.053 993.025 6.98 770.951 6.98 497.015S229.053 1.004 502.991 1.004C776.934 1.004 999 223.078 999 497.015z"/><path fill="#82C267" d="M486.519 676.943h.617c27.598 0 53.609-9.761 73.223-27.49a97.94 97.94 0 0 0 7.512-7.549 74.378 74.378 0 0 1-4.6 1.961c-.384.147-.767.279-1.15.428a77.696 77.696 0 0 1-5.813 1.924c-.056.007-.11.037-.174.044a73.742 73.742 0 0 1-6.089 1.415c-.405.082-.804.17-1.213.244-2.02.36-4.069.648-6.145.848-.405.044-.814.073-1.23.103a77.33 77.33 0 0 1-6.584.303h-.339c-39.873 0-72.198-29.37-72.198-65.604V383.091h-.003c-43.701 0-79.126 32.194-79.126 71.899v126.559c0 52.305 46.343 95.092 103.312 95.394"/><path fill="#003D8B" d="M643.264 743.446a191.813 191.813 0 0 1-7.092 4.342c-.582.339-1.18.648-1.762.987a203.202 203.202 0 0 1-5.706 3.134c-.937.494-1.884.973-2.831 1.444a205.916 205.916 0 0 1-4.946 2.434c-.988.464-1.969.929-2.956 1.371a185.238 185.238 0 0 1-5.559 2.41c-.789.324-1.566.679-2.359.995a204.35 204.35 0 0 1-7.865 2.971c-.797.288-1.597.539-2.396.812a224.743 224.743 0 0 1-5.875 1.901c-1.025.311-2.05.612-3.082.907a197.07 197.07 0 0 1-5.54 1.512c-1.006.265-2.013.522-3.029.767a214.696 214.696 0 0 1-6.831 1.519c-.582.117-1.153.258-1.735.368-2.842.561-5.702 1.04-8.585 1.475-.889.133-1.788.243-2.676.361-2.072.28-4.15.545-6.244.759-1.047.111-2.094.214-3.148.31-2.071.185-4.15.332-6.232.457-.955.052-1.898.118-2.857.163-3.007.132-6.026.213-9.06.213h-.745c-110.747 0-200.527-89.775-200.527-200.525V455.127c-43.699 0-79.124 35.43-79.124 79.131v34.899c0 63.362 23.541 122.323 66.299 166.024 48.134 49.187 112.649 73.853 181.602 69.504 50.992-3.236 100.146-23.657 138.421-57.502a248.887 248.887 0 0 0 8.006-7.409c-1.058.737-2.149 1.423-3.226 2.131-.785.509-1.551 1.047-2.34 1.541"/><path fill="#F08B48" d="M719.756 235.146c-43.705 0-79.131 35.43-79.131 79.131v258.256c0 40.951-15.99 79.492-45.032 108.516-29.031 29.009-67.546 44.984-108.547 44.984-33.306-.008-65.111-10.903-91.54-31.028.359.412.709.833 1.076 1.253a182.442 182.442 0 0 0 3.452 3.76 167.695 167.695 0 0 0 2.877 3.029c1.214 1.246 2.466 2.455 3.71 3.664.979.937 1.944 1.888 2.938 2.802 1.334 1.238 2.703 2.425 4.069 3.619.968.841 1.915 1.703 2.896 2.521 1.55 1.298 3.142 2.536 4.729 3.782.85.663 1.676 1.349 2.534 1.997a188.364 188.364 0 0 0 7.515 5.396c.328.222.674.428 1.01.649a185.03 185.03 0 0 0 6.83 4.379c.943.582 1.92 1.113 2.881 1.673 1.727 1.011 3.459 2.021 5.221 2.979 1.119.604 2.256 1.165 3.39 1.747 1.644.848 3.289 1.695 4.965 2.499 1.211.575 2.437 1.113 3.654 1.666 1.639.737 3.284 1.468 4.943 2.16 1.27.531 2.553 1.032 3.835 1.526 1.655.648 3.315 1.282 4.995 1.872 1.308.472 2.63.922 3.953 1.356 1.691.561 3.393 1.099 5.104 1.614 1.337.398 2.682.789 4.031 1.158 1.732.479 3.49.914 5.243 1.349 1.353.332 2.7.656 4.062.951 1.805.391 3.635.744 5.457 1.091 1.337.251 2.673.509 4.02.729 1.917.317 3.853.568 5.787.826 1.279.17 2.559.361 3.845.501 2.153.243 4.327.405 6.495.568 1.099.081 2.182.198 3.28.258 3.28.184 6.579.302 9.908.31h.678a184.71 184.71 0 0 0 67.417-12.702c.689-.272 1.401-.516 2.087-.796.066-.022.118-.045.181-.066 61.674-25.087 106.945-82.515 114.159-151.9a188.2 188.2 0 0 0 .722-9.082c.199-4.144.303-7.939.303-11.611V235.146z"/><path fill="#1EA3DA" d="M485.619 601.66a51.89 51.89 0 0 0 2.472 3.951c.212.317.449.619.675.929a60.187 60.187 0 0 0 3.14 3.988 54.235 54.235 0 0 0 2.954 3.163c.1.096.192.206.29.302a54.731 54.731 0 0 0 3.533 3.126c.343.28.7.553 1.05.826.984.773 2 1.496 3.028 2.204.324.229.646.457.98.671a53.643 53.643 0 0 0 4.106 2.439c.221.118.449.222.671.34a60.44 60.44 0 0 0 3.73 1.754c.427.185.866.361 1.297.538 1.242.502 2.507.951 3.793 1.364.291.096.579.206.881.295 1.563.472 3.151.877 4.77 1.216.392.081.797.141 1.198.222 1.265.229 2.532.428 3.808.582.498.06.995.118 1.497.17 1.681.154 3.383.266 5.104.272h.277c1.906 0 3.793-.096 5.647-.28.692-.066 1.363-.206 2.042-.295 1.157-.154 2.326-.287 3.465-.516.752-.147 1.478-.369 2.223-.546 1.028-.243 2.075-.464 3.093-.767.784-.243 1.54-.545 2.311-.818.937-.316 1.884-.611 2.79-.98.768-.31 1.497-.7 2.245-1.039.877-.398 1.773-.774 2.621-1.217.719-.376 1.4-.811 2.097-1.216.837-.479 1.699-.937 2.503-1.468.664-.427 1.279-.906 1.921-1.363.8-.567 1.618-1.105 2.389-1.718.601-.472 1.146-.995 1.729-1.496.752-.642 1.525-1.275 2.244-1.961.535-.502 1.007-1.055 1.516-1.57.715-.737 1.452-1.46 2.123-2.234.453-.53.858-1.091 1.297-1.636.66-.826 1.335-1.63 1.95-2.492.395-.553.733-1.15 1.109-1.71.587-.899 1.194-1.784 1.732-2.713.332-.583.612-1.194.922-1.784.505-.959 1.028-1.909 1.478-2.904.277-.605.49-1.246.749-1.865.405-1.011.837-2.013 1.187-3.06.214-.649.376-1.319.567-1.976.31-1.04.635-2.079.878-3.155.15-.693.247-1.416.376-2.123.198-1.062.405-2.116.538-3.185.096-.774.117-1.563.177-2.33.085-1.135.206-2.256.221-3.398l.037-267.489v-.004c-43.701 0-79.131 34.339-79.131 76.694v188.83c0 5.839-1.942 11.368-5.453 15.577-4.925 5.891-12.112 9.312-19.937 8.994a26.535 26.535 0 0 1-2.451-.177c.336.686.66 1.386 1.025 2.064.171.326.337.657.516.974"/><path fill="#003B80" d="m208.124 871.881-10.382-8.861 23.228-27.231-8.392-.097c-5.521-6.111-6.847-18.976-3.177-25.588-5.872 4.732-18.792 5.301-25.855.833l-1.438-8.581c10.068 4.917 24.397.044 35.276-12.709l6.071-7.114-9.652-8.234 5.303-6.207 29.435 25.108-5.297 6.215-8.914-7.601-6.071 7.114c-10.812 12.673-13.209 27.578-7.153 36.697l14.929-17.493-9.075-7.748 5.369-6.296 9.08 7.748 14.092-16.514 10.384 8.854-57.761 67.705zm72.474-55.15-57.752 67.704-10.387-8.861 57.754-67.704 10.385 8.861zM341.041 905.682l-3.712 7.276-30.54-15.57-14.007 27.476-12.925-6.59 14.009-27.476-30.637-15.621 3.706-7.276 74.106 37.781zm-44.092-77.488 58.599 29.879-3.764 7.364-22.785-11.61-.247.479c-5.905 11.582 3.999 29.548 17.072 36.322l-8.959 2.433c-10.914-5.565-21.819-18.968-21.601-28.39-7.539 5.81-24.646 4.807-35.658-.804l-3.292-8.677c13.261 6.643 33.466 4.158 39.422-7.526l.246-.472-22.793-11.626 3.76-7.372zM391.304 960.197l8.234-34.051c-2.809 1.091-6.69 1.592-11.807.347l-17.757-4.291c-5.959-1.444-8.855-5.905-7.492-11.544l10.408-43.031 31.446 7.601-1.948 8.043-17.551-4.246-8.737 36.145 14.097 3.414c4.809 1.157 8.587 1.076 11.009.671l11.014-45.545 13.371 3.229-5.684 23.502 8.357 2.027 5.683-23.51 13.367 3.236-20.913 86.488-13.371-3.229 13.311-55.047-8.358-2.021-13.307 55.047-13.372-3.235zM498.75 901.428c4.49 3.687 7.249 8.861 7.212 14.56-.073 10.963-10.133 19.92-22.381 19.839-12.147-.081-22.187-9.179-22.116-20.141.042-5.698 2.871-10.837 7.3-14.457l-10.64-.073.052-7.954 18.38.125.074-10.638 14.506.096-.068 10.638 18.371.125-.051 7.955-10.639-.075zm17.944 48.7-49.33-.332.057-8.168 63.84.435-.214 31.375-14.508-.096.155-23.214zm-41.467-34.355c-.048 6.775 3.887 12.393 8.406 12.422 4.618.03 8.527-5.536 8.571-12.304.042-6.664-3.789-12.274-8.407-12.311-4.514-.029-8.526 5.537-8.57 12.193m56.299-13.047 14.508.096-.055 8.278-14.512-.103-.17 25.153-14.508-.096.347-51.7 14.508.096-.118 18.276zM557.122 883.152l62.515-14.537 7.601 32.673c2.705 11.618 2.735 20.781.648 27.004l-12.466 2.896c2.175-6.797.667-14.729-2.359-27.711l-5.478-23.568-48.589 11.301-1.872-8.058zm27.962 24.844 8.105 34.87 7.019-1.629-8.105-34.87 13.612-3.17 8.109 34.869 29.219-6.789 1.85 7.962-77.28 17.973-1.857-7.962 13.826-3.214-8.113-34.877 13.615-3.163zM705.137 828.475l22.444 45.021-12.985 6.473-5.035-10.1-11.258 5.61 3.215 6.45-31.652 15.776c-5.48 2.728-10.626 1.091-13.214-4.106l-15.253-30.594 12.99-6.473 5.945 11.928 14.622-7.283-5.941-11.936 12.989-6.473 4.121 8.279 11.257-5.61-5.23-10.49 12.985-6.472zm-20.302 52.518-6.182-12.407-14.626 7.283 6.188 12.415 14.62-7.291zm49.595 12.989c5.131 10.299-.316 23.222-12.248 29.171-11.829 5.897-25.427 2.462-30.558-7.829-5.134-10.291.266-23.311 12.098-29.215 11.927-5.949 25.581-2.418 30.708 7.873m-33.458-41.335-11.249 5.61 4.986 10.004 11.254-5.61-4.991-10.004zm3.443 56.3c2.831 5.677 9.51 8.95 14.028 6.701 4.623-2.308 6.023-9.605 3.192-15.282-2.875-5.772-9.599-9.148-14.221-6.849-4.525 2.256-5.875 9.658-2.999 15.43M766.785 803.24c6.535 7.844 4.258 20.236-5.068 28.006-9.414 7.844-22.009 7.837-28.544-.007-6.466-7.763-4.335-20.31 5.087-28.154 9.329-7.77 22.056-7.607 28.525.155m-22.875 19.057c3.852 4.622 9.462 5.824 12.854 3 3.303-2.749 3.137-8.492-.716-13.114-3.852-4.622-9.466-5.816-12.769-3.066-3.383 2.822-3.224 8.55.631 13.18m42.341-7.439 4.954 5.949-17.088 14.235 8.389 10.078-11.146 9.281-8.396-10.07-15.193 12.657-4.95-5.949 43.43-36.181zm-9.152-43.568 43.337 52.024-11.146 9.288-5.227-6.28-15.035 12.524-4.604-5.536 15.024-12.518-33.498-40.214 11.149-9.288zm15.735 91.937 38.239-31.848 5.293 6.362-41.615 34.671c-4.46 3.708-10.103 3.656-13.955-.966l-9.429-11.316 11.15-9.289 10.317 12.386z"/><path fill="#003D8B" d="M500.002 863.227c-200.284 0-363.225-162.943-363.225-363.227 0-200.279 162.94-363.223 363.225-363.223S863.223 299.721 863.223 500c0 200.283-162.937 363.227-363.221 363.227m0-723.957c-198.91 0-360.732 161.826-360.732 360.73 0 198.912 161.822 360.734 360.732 360.734 198.906 0 360.732-161.822 360.732-360.734 0-198.904-161.826-360.73-360.732-360.73"/><path fill="#003D8B" d="M500.002 998.996C224.853 998.996 1 775.153 1 500.004s223.853-499 499.002-499c275.15 0 498.998 223.851 498.998 499S775.152 998.996 500.002 998.996m0-992.014C228.15 6.982 6.979 228.15 6.979 500.004c0 271.847 221.172 493.014 493.023 493.014s493.02-221.167 493.02-493.014C993.021 228.15 771.854 6.982 500.002 6.982"/><path fill="#003D8B" d="m49.406 548.313 41.667-5.48c2.385-.311 4.604-.473 6.653-.473 2.047 0 3.887.277 5.523.814 5.68 1.788 9.016 6.447 10.005 13.967.142 1.068.212 2.314.208 3.737a33.43 33.43 0 0 1-.234 4.032l-6.13.812c.251-1.003.398-2.131.452-3.376.046-1.246.011-2.374-.122-3.381-.199-1.485-.599-3-1.205-4.537-.603-1.533-1.613-2.75-3.028-3.642-1.351-.848-2.912-1.305-4.672-1.371-1.762-.06-3.841.063-6.233.376l-41.965 5.514-.919-6.992zM107.153 490.914l1.183 37.594-60.761 1.905-1.18-37.593 6.01-.188.958 30.538 18.598-.582-.888-28.379 5.932-.184.889 28.375 24.049-.755-.964-30.54zM48.52 458.887l41.924 2.875c2.405.158 4.606.442 6.613.848 2.011.409 3.762 1.036 5.26 1.884 5.21 2.882 7.56 8.105 7.046 15.68-.074 1.065-.253 2.301-.537 3.701a32.126 32.126 0 0 1-1.03 3.907l-6.161-.42c.439-.933.807-2.01 1.106-3.222.297-1.209.481-2.322.549-3.336.1-1.497.013-3.06-.28-4.686a7.46 7.46 0 0 0-2.252-4.172c-1.157-1.095-2.591-1.854-4.314-2.264-1.714-.413-3.772-.7-6.178-.866l-42.23-2.886.484-7.043zM114.376 430.479l-.026.158c-.739 4.103-2.126 7.523-4.167 10.251-2.035 2.735-4.469 4.715-7.3 5.945-2.357 1.04-4.928 1.581-7.707 1.622-2.779.056-6.032-.266-9.77-.937l-35.443-6.369 1.25-6.944 34.89 6.266c3.262.59 6.126.9 8.592.937 2.462.037 4.595-.413 6.394-1.338 1.782-.873 3.312-2.186 4.574-3.94 1.266-1.758 2.138-3.98 2.621-6.664.476-2.628.427-5.002-.146-7.114-.57-2.108-1.546-3.866-2.927-5.249-1.351-1.552-3.19-2.72-5.518-3.516-2.332-.801-5.124-1.493-8.389-2.079l-34.887-6.271 1.252-6.947 35.435 6.373c3.741.67 6.902 1.496 9.499 2.48 2.591.98 4.812 2.396 6.647 4.246 2.227 2.138 3.815 4.84 4.775 8.113.965 3.266 1.084 6.926.351 10.977M71.961 350.551l52.133-5.285 6.681-.247-5.962-2.142-43.878-16.369 2.328-6.234 56.875 21.224-3.475 9.315-54.577 5.404-6.304.383 5.962 2.138 45.609 17.014-2.297 6.167-56.878-21.22zM102.533 281.881l63.33 10.303-3.443 6.432-17.844-3.357-11.683 21.857 12.667 13.045-3.44 6.436-43.783-46.867 4.196-7.849zm2.615 6.672-.041.07 23.675 23.93 9.681-18.103-33.315-5.897zM178.584 274.307l-3.995 5.812-45.069-30.977-11.771 17.114-4.954-3.406 27.438-39.919 4.955 3.409-11.672 16.985zM152.346 208.839l46.889 38.567-4.484 5.444-46.886-38.552zM223.049 222.684c-2.993 2.982-6.204 5.083-9.626 6.3a23.727 23.727 0 0 1-10.513 1.271c-3.574-.365-7.119-1.467-10.64-3.299-3.521-1.828-6.849-4.313-9.993-7.468-3.135-3.148-5.623-6.502-7.458-10.045-1.832-3.546-2.938-7.117-3.313-10.715-.377-3.594.044-7.11 1.253-10.553 1.216-3.447 3.317-6.653 6.312-9.64 2.988-2.975 6.21-5.071 9.656-6.27 3.444-1.194 6.963-1.604 10.559-1.213 3.6.388 7.167 1.504 10.7 3.354 3.542 1.843 6.876 4.342 10.019 7.497 3.145 3.151 5.619 6.491 7.435 10.019 1.813 3.524 2.901 7.081 3.255 10.652a23.645 23.645 0 0 1-1.311 10.502c-1.234 3.426-3.342 6.626-6.335 9.608m-4.362-4.375c2.241-2.227 3.754-4.622 4.552-7.195.798-2.565.988-5.204.553-7.906-.424-2.706-1.432-5.419-3.015-8.143-1.585-2.724-3.642-5.363-6.169-7.896-2.526-2.536-5.149-4.6-7.869-6.196-2.719-1.592-5.44-2.617-8.161-3.077-2.722-.457-5.37-.292-7.941.493-2.569.789-4.975 2.305-7.208 4.523-2.233 2.227-3.754 4.626-4.549 7.195-.802 2.568-.977 5.215-.525 7.936.444 2.728 1.462 5.447 3.045 8.176 1.583 2.724 3.64 5.355 6.165 7.892 2.526 2.536 5.155 4.604 7.873 6.196 2.715 1.592 5.426 2.609 8.13 3.052 2.703.438 5.343.262 7.912-.523 2.569-.794 4.97-2.297 7.207-4.527M220.266 143.04l46.64 23.882 5.743 3.424-3.842-5.038-27.948-37.579 5.343-3.974 36.225 48.715-7.983 5.941-48.755-25.116-5.501-3.1 3.845 5.034 29.049 39.065-5.28 3.922-36.221-48.718zM283.171 101.934l47.629 42.998-6.385 3.538-13.175-12.492-21.667 12.024 3.57 17.829-6.381 3.542-11.377-63.119 7.786-4.32zm-1.421 7.025-.07.037 6.917 32.942 17.951-9.96-24.798-23.019zM365.982 124.002l2.356 5.702-32.087 13.274-23.199-56.105 6.527-2.694 20.835 50.398zM411.077 118.51l-.158.041c-4.063.943-7.752 1.017-11.063.221-3.312-.792-6.095-2.248-8.341-4.36-1.891-1.754-3.402-3.9-4.541-6.432-1.14-2.536-2.137-5.654-2.995-9.351l-8.147-35.073 6.874-1.6 8.017 34.527c.756 3.229 1.598 5.982 2.538 8.26.947 2.282 2.191 4.062 3.752 5.349 1.512 1.29 3.321 2.174 5.434 2.646 2.112.468 4.497.394 7.156-.217 2.601-.608 4.763-1.593 6.477-2.949 1.72-1.36 2.938-2.949 3.667-4.766.889-1.854 1.239-4.003 1.055-6.458-.187-2.451-.658-5.297-1.404-8.526l-8.026-34.527 6.878-1.592 8.15 35.065c.856 3.701 1.345 6.934 1.465 9.705.125 2.776-.299 5.371-1.275 7.789-1.086 2.89-2.936 5.418-5.563 7.593-2.626 2.174-5.941 3.726-9.95 4.655M447.919 49.773l27.314 44.719 3.116 5.92-.655-6.304-4.218-46.646 6.63-.601 5.465 60.466-9.906.895-28.471-46.867-3.072-5.518.646 6.299 4.387 48.482-6.553.594-5.465-60.462zM505.271 46.994l-.282 60.709-7.058-.037.28-60.701zM523.329 47.289l10.8 47.866 1.477 6.742 2.68-6.355 19.463-45.079 7.342.682-26.016 58.563-8.544-.793-14.869-62.337zM601.623 120.943l-36.761-7.981 12.894-59.399 36.757 7.976-1.276 5.872-29.856-6.473-3.947 18.18 27.744 6.019-1.261 5.798-27.74-6.019-5.102 23.513 29.861 6.48zM642.147 107.083l5.738 29.377-8.492-2.927-3.878-27.376-11.153-3.845-8.018 23.277-6.668-2.293 19.698-57.428 16.329 5.628c6.539 2.252 10.995 5.437 13.365 9.565 2.378 4.125 2.709 8.666 1.003 13.62-1.585 4.6-3.885 7.881-6.908 9.834-3.021 1.957-6.692 2.812-11.016 2.568m11.054-14.596c.656-1.92.899-3.679.712-5.267-.188-1.593-.7-3.026-1.534-4.302-.829-1.279-1.928-2.374-3.272-3.295-1.36-.917-2.887-1.673-4.611-2.267l-10.388-3.575-7.991 23.196 7.962 2.746c2.478.855 4.707 1.396 6.697 1.625 1.977.236 3.749.096 5.315-.413 1.56-.509 2.927-1.449 4.106-2.827 1.184-1.371 2.179-3.248 3.004-5.621M653.876 134.212l3.373-7.01c.136-.292.294-.435.472-.439.181-.003.331.173.457.531 1.105 3.38 2.58 6.104 4.434 8.183 1.848 2.075 4.243 3.815 7.185 5.23 3.947 1.902 7.269 2.576 9.967 2.035 2.69-.542 4.84-2.481 6.439-5.803.579-1.205.874-2.41.889-3.619a9.944 9.944 0 0 0-.649-3.653c-.445-1.224-1.083-2.481-1.92-3.767a43.439 43.439 0 0 0-2.931-3.992l-4.058-4.703c-1.457-1.655-2.717-3.295-3.771-4.932-1.047-1.633-1.836-3.284-2.337-4.947a13.92 13.92 0 0 1-.523-5.194c.147-1.799.696-3.682 1.651-5.662 1.088-2.263 2.496-4.014 4.217-5.263a13.653 13.653 0 0 1 5.743-2.403c2.094-.354 4.327-.306 6.69.147 2.362.453 4.747 1.257 7.158 2.421 2.314 1.11 4.552 2.554 6.719 4.338 2.168 1.788 3.907 3.848 5.209 6.196l-2.569 5.352c-.188.383-.384.571-.586.56-.203-.003-.372-.188-.49-.549-1.306-2.345-2.765-4.32-4.401-5.935-1.622-1.614-3.712-3.037-6.27-4.265-3.421-1.641-6.389-2.312-8.909-2.013-2.515.306-4.412 1.78-5.688 4.427-.575 1.206-.882 2.396-.911 3.568a9.087 9.087 0 0 0 .572 3.435c.408 1.117 1.01 2.223 1.791 3.31a26.959 26.959 0 0 0 2.668 3.148l4.088 4.814c3.487 4.106 5.766 7.917 6.834 11.423 1.076 3.517.737 7.077-1.002 10.686-1.291 2.702-2.868 4.807-4.723 6.318-1.854 1.507-3.922 2.51-6.195 2.985-2.271.476-4.736.472-7.372-.029-2.64-.502-5.378-1.431-8.216-2.794-3.186-1.53-5.865-3.266-8.047-5.205a19.154 19.154 0 0 1-4.988-6.93M694.98 160.195l30.719-52.367 6.089 3.572-30.718 52.367zM728.499 181.902l-5.758-4.073 31.612-44.634-16.949-12.006 3.473-4.909 39.528 27.995-3.471 4.907-16.821-11.911zM816.838 176.959l5.433 4.983-37.597 11.224-18.264 19.923-5.379-4.932 17.668-19.27 8.459-39.134 5.676 5.2-7.076 31.7.117.107zM871.188 241.331l-48.202 36.9-4.295-5.602 24.141-18.474-17.988-23.499-24.136 18.471-4.291-5.603 48.206-36.9 4.29 5.606L829.617 227l17.985 23.498 19.299-14.773zM840.037 308.486c-2.057-3.689-3.21-7.354-3.457-10.977-.243-3.631.299-7.118 1.622-10.453 1.327-3.344 3.347-6.466 6.056-9.359 2.717-2.894 6.02-5.418 9.9-7.593 3.886-2.164 7.781-3.649 11.688-4.457 3.919-.804 7.652-.899 11.213-.287 3.568.608 6.841 1.968 9.827 4.069 2.982 2.101 5.499 4.991 7.56 8.685 2.061 3.682 3.2 7.35 3.425 10.991.217 3.642-.343 7.136-1.695 10.498-1.35 3.351-3.392 6.483-6.127 9.392-2.742 2.904-6.045 5.444-9.93 7.608-3.885 2.171-7.773 3.648-11.659 4.445-3.881.788-7.597.869-11.143.243-3.542-.627-6.79-1.994-9.749-4.106-2.96-2.112-5.466-5.016-7.531-8.699m5.397-3.011c1.537 2.75 3.436 4.862 5.688 6.329a17.14 17.14 0 0 0 7.465 2.673c2.716.32 5.605.092 8.662-.7 3.044-.782 6.137-2.046 9.266-3.797 3.123-1.743 5.824-3.712 8.095-5.897 2.271-2.183 3.992-4.523 5.175-7.019 1.18-2.495 1.736-5.087 1.674-7.777s-.862-5.411-2.399-8.164c-1.541-2.754-3.438-4.866-5.694-6.329-2.256-1.467-4.756-2.348-7.498-2.654-2.742-.306-5.64-.07-8.691.712-3.052.788-6.141 2.057-9.267 3.796-3.133 1.751-5.831 3.712-8.095 5.901-2.277 2.187-3.988 4.52-5.142 7.004s-1.699 5.068-1.641 7.759c.058 2.689.861 5.41 2.402 8.163M860.207 335.516l7.232-2.871c.299-.118.516-.118.648 0 .133.122.125.354-.021.7-1.475 3.236-2.245 6.24-2.289 9.023-.049 2.775.526 5.684 1.732 8.714 1.617 4.073 3.597 6.822 5.952 8.249 2.345 1.427 5.234 1.464 8.662.104 1.246-.494 2.286-1.18 3.111-2.057.833-.878 1.496-1.921 1.994-3.122.501-1.205.881-2.565 1.146-4.077a43.99 43.99 0 0 0 .545-4.921l.214-6.207c.045-2.208.232-4.265.568-6.182.331-1.913.877-3.656 1.637-5.219.759-1.57 1.806-2.96 3.129-4.181 1.33-1.216 3.012-2.229 5.054-3.04 2.337-.922 4.556-1.261 6.675-1.007 2.112.255 4.059.962 5.846 2.127 1.788 1.161 3.396 2.709 4.818 4.641 1.43 1.936 2.639 4.144 3.627 6.631.943 2.389 1.607 4.966 1.994 7.748.387 2.787.254 5.474-.372 8.087l-5.522 2.187c-.391.158-.663.165-.803.025-.145-.147-.145-.395.007-.741.631-2.613.899-5.057.793-7.342-.1-2.293-.675-4.752-1.718-7.391-1.404-3.527-3.133-6.038-5.187-7.516-2.061-1.489-4.452-1.692-7.184-.602-1.242.49-2.274 1.161-3.085 2.002a9.122 9.122 0 0 0-1.91 2.912c-.457 1.102-.759 2.318-.925 3.648a26.442 26.442 0 0 0-.177 4.118l-.255 6.317c-.225 5.385-1.128 9.728-2.728 13.03-1.592 3.306-4.246 5.698-7.973 7.181-2.787 1.102-5.374 1.581-7.759 1.438-2.389-.145-4.578-.812-6.576-2.006-1.994-1.19-3.8-2.867-5.399-5.017-1.604-2.156-2.99-4.696-4.15-7.634-1.302-3.276-2.098-6.373-2.385-9.273a19.242 19.242 0 0 1 1.034-8.476M923.879 407.323c-3.052.818-5.883 1.014-8.521.586-2.636-.428-5.014-1.408-7.14-2.938-2.135-1.53-3.978-3.568-5.548-6.108-1.57-2.539-2.816-5.514-3.727-8.924l-1.957-7.279-22.223 5.979-1.832-6.819 58.607-15.835 3.874 14.435c.837 3.107 1.278 6.097 1.334 8.961.052 2.875-.364 5.507-1.242 7.906-.877 2.403-2.271 4.471-4.184 6.203s-4.392 3.011-7.441 3.833m-2.071-7.085c2.429-.652 4.294-1.625 5.61-2.919 1.315-1.298 2.219-2.769 2.717-4.423.497-1.655.656-3.462.497-5.415a34.238 34.238 0 0 0-1.062-5.938l-1.936-7.206-25.094 6.749 1.625 6.041c.627 2.322 1.416 4.449 2.382 6.377.954 1.928 2.142 3.502 3.554 4.733 1.407 1.224 3.081 2.038 5.013 2.433 1.935.394 4.165.247 6.694-.432M944.734 422.152l-59.716 10.921-1.272-6.94 59.721-10.929zM889.238 465.721l-.677-7.019 54.449-5.216-1.98-20.678 5.987-.572 4.614 48.217-5.986.571-1.957-20.512zM951.236 511.755l-61.073 19.665.13-7.299 17.42-5.138.445-24.774-17.213-5.846.129-7.298 60.324 21.788-.162 8.902zm-5.374-4.751.008-.081-31.973-10.527-.372 20.527 32.337-9.919zM890.584 572.305l-6.115-.826 4.644-34.413 60.162 8.124-.943 6.99-54.044-7.299z"/></svg>