<svg xmlns="http://www.w3.org/2000/svg" width="582.83716pt" height="150pt" viewBox="0 0 582.83717 150"><path d="M387.177 56.018c-2.264 0-4.203.725-5.85 2.192-1.627 1.472-2.44 3.229-2.44 5.298 0 2.07.813 3.83 2.44 5.286 1.647 1.456 3.586 2.18 5.85 2.18 2.279 0 4.242-.724 5.858-2.18 1.62-1.456 2.44-3.216 2.44-5.286 0-2.07-.82-3.826-2.44-5.298-1.616-1.467-3.58-2.192-5.858-2.192zm155.252 1.536c.244.065.442.156.553.317.187.255.286.568.286.93v4.78h-4.78v2.873h4.78v10.569h3.579V57.554Zm5.444 0c.24.065.446.156.556.317.187.255.283.568.283.93v18.222h3.582V57.554Zm-32.045.001c.244.073.45.176.602.382.21.304.324.617.324.93V71.74h3.83v-6.57h4.178v-3.203h-4.177v-4.412zm61.137.004c.358.03.64.157.823.427.225.298.34.614.34.927v6.848h-5.65v2.89h5.65v16.713h3.796V57.559Zm-213.915.01c.286.061.526.164.679.392.224.298.328.614.328.93v26.49h3.812v-16.82h4.166v-2.885h-4.166V57.57zm117.042.019c.229.06.426.152.552.309.183.259.275.571.275.937V85.34h3.643V68.245h2.436v17.094h3.64V57.588h-4.46c.23.06.435.152.564.309.164.259.256.571.256.937v6.533h-2.436v-7.78zm-241.879.026c.199.069.37.153.468.294.18.263.276.568.276.93v7.016h-4.453v2.89h4.453v16.652h3.586V57.614Zm5.445 0c.202.069.363.153.466.294.179.263.278.568.278.93v26.558h3.574V57.614Zm85.85 0c.202.069.359.153.473.294.168.263.266.568.266.93v7.016h-4.443v2.89h4.443v16.652h3.586V57.614Zm5.44 0c.206.069.366.153.473.294.175.263.274.568.274.93v26.558h3.578V57.614Zm119.065.012c.248.07.46.177.605.39.218.294.32.603.32.927v26.484h3.817v-27.8Zm76.737.125c.263.065.469.157.553.355.11.282.179.579.179.906V63c0 1.239-.156 2.33-.438 3.271-.294.95-.68 1.746-1.167 2.432-.58.789-1.238 1.41-2.012 1.871a7.963 7.963 0 0 1-2.348.979c-.088.019-.137.057-.137.114-.016.05-.001.107.04.141l1.957 2.05c.404-.034.941-.209 1.616-.51a8.978 8.978 0 0 0 2.008-1.246 8.652 8.652 0 0 0 1.273-1.204c.385-.438.69-.919.9-1.43.038-.114.252-.587.252-.587s.152.473.201.588c.23.495.534.948.923 1.402.377.438.803.828 1.284 1.194.686.545 1.36.967 2.036 1.283.663.324 1.196.5 1.58.55l1.953-2.055a.197.197 0 0 0 .061-.148c0-.046-.05-.088-.157-.1a8.134 8.134 0 0 1-2.378-1.094 7.429 7.429 0 0 1-2.047-2.05c-.45-.693-.803-1.471-1.093-2.36-.294-.887-.442-1.901-.442-3.052V57.75zm-24.137.007c.202.042.397.107.546.237.202.18.305.447.305.775v3.033h-7.048v-3.815h-4.46c.11.041.218.103.313.186.206.18.305.447.305.786v9.38c0 .85.225 1.501.675 1.936.45.43 1.067.663 1.856.663h9.67c.793 0 1.41-.233 1.86-.663.45-.435.67-1.087.67-1.937V57.76zm-162.124.073v2.851h5.565v3.846c0 1.479-.222 2.814-.683 4.026-.461 1.204-1.049 2.248-1.78 3.147-.679.854-1.444 1.563-2.271 2.1-.831.546-1.643.9-2.44 1.075-.076.016-.122.057-.122.095 0 .042.015.1.03.164l2.078 2.245c.603-.179 1.231-.438 1.887-.79.667-.354 1.299-.769 1.894-1.272a12.3 12.3 0 0 0 1.967-1.94c.59-.708 1.036-1.445 1.326-2.215.076-.144.244-.658.244-.658l.205.658c.301.77.748 1.507 1.339 2.215a11.84 11.84 0 0 0 1.966 1.918c.617.492 1.255.91 1.899 1.287.655.351 1.284.618 1.886.797l2.077-2.245c.042-.064.07-.122.07-.164 0-.038-.058-.08-.165-.095-.701-.175-1.426-.48-2.165-.915-.74-.434-1.43-1.013-2.104-1.753-.827-.884-1.52-1.99-2.077-3.286-.557-1.307-.827-2.77-.827-4.394v-3.846h5.565v-2.851zm-59.007.008v2.893h17.69c.254 0 .433.038.517.126.076.091.126.251.126.48V63c0 1.262-.065 2.073-.176 2.832-.13.75-.38 1.44-.788 2.058h-20.369v2.885h11.976v4.647h-8.427v2.885h17.14c.103 0 .187.015.248.068a.38.38 0 0 1 .076.252v6.758h4.005v-9.647c0-.11-.033-.195-.083-.237a.344.344 0 0 0-.24-.08h-8.424v-4.646h11.942V67.89h-4.029c.385-.51.655-1.083.834-1.72.164-.64.248-1.44.248-2.805v-5.163c0-.13-.018-.226-.08-.283a.338.338 0 0 0-.236-.08zm-30.56.002v2.858h8.627c-.015 1.555-.37 2.828-1.048 3.83a7.893 7.893 0 0 1-2.547 2.443 10.368 10.368 0 0 1-3.38 1.346c-1.174.237-2.18.362-2.988.385-.126 0-.183.019-.18.072.004.05.038.118.087.183l2.143 2.398c.938 0 1.963-.144 3.072-.445a14.439 14.439 0 0 0 3.175-1.285c.759-.45 1.472-.977 2.097-1.587.621-.61 1.112-1.25 1.455-1.936.035-.08.202-.533.202-.533s.237.468.248.533c.404.774.976 1.464 1.708 2.1a14.43 14.43 0 0 0 2.424 1.648c.942.473 1.91.83 2.908 1.104.983.275 1.91.401 2.764.401l2.149-2.398c.03-.064.053-.133.068-.183.016-.053-.042-.072-.171-.072-.79-.023-1.757-.148-2.889-.385a11.612 11.612 0 0 1-3.323-1.25 8.079 8.079 0 0 1-2.654-2.459c-.724-1.006-1.078-2.305-1.089-3.91h8.61v-2.858zm211.521 0v2.88h8.091v.097c0 1.604-.151 3.05-.48 4.353-.308 1.31-.75 2.461-1.307 3.467-.98 1.78-2.234 3.191-3.759 4.19-1.54.999-3.083 1.722-4.673 2.142-.08.026-.129.057-.148.103-.023.042 0 .102.061.156l2.142 1.829c1.608-.343 3.255-1.036 4.96-2.1 1.684-1.055 3.155-2.496 4.367-4.306a16.115 16.115 0 0 0 2.028-4.27c.511-1.574.751-3.331.751-5.287v-2.938c0-.084-.012-.163-.077-.22-.042-.07-.133-.096-.228-.096zm-243.282.007V60.7h4.314v3.686c0 1.437-.152 2.744-.46 3.937-.301 1.193-.725 2.238-1.235 3.103-.526.88-1.14 1.598-1.818 2.15-.69.56-1.437.937-2.241 1.154-.08.02-.13.054-.115.104.012.046.024.083.024.152l2.073 2.248c.812-.114 1.86-.69 3.125-1.757 1.265-1.048 2.107-2.199 2.508-3.434.072-.243.072-.22.24-.75 0 0 .1.423.218.75.457 1.224 1.265 2.386 2.58 3.434 1.303 1.068 2.329 1.643 3.057 1.757l2.073-2.248c.06-.042.1-.084.084-.141-.008-.061-.057-.096-.175-.115a5.738 5.738 0 0 1-2.212-1.085c-.686-.534-1.295-1.236-1.821-2.086-.53-.877-.969-1.91-1.289-3.121-.312-1.205-.48-2.558-.48-4.052v-3.686h4.361v-2.85zm91.3 0V60.7h4.321v3.686c0 1.437-.159 2.744-.468 3.937-.309 1.193-.724 2.238-1.235 3.103-.534.88-1.14 1.598-1.814 2.15a6.01 6.01 0 0 1-2.245 1.154c-.084.02-.13.054-.115.104 0 .046.012.083.012.152L315 77.233c.812-.114 1.845-.69 3.125-1.757 1.262-1.048 2.113-2.199 2.513-3.434.038-.148.228-.67.228-.67s.176.503.221.67c.4 1.235 1.262 2.386 2.576 3.434 1.308 1.068 2.322 1.643 3.057 1.757l2.082-2.248c.065-.042.099-.084.083-.141-.01-.061-.068-.096-.183-.115a5.84 5.84 0 0 1-2.21-1.085c-.678-.534-1.289-1.236-1.822-2.086-.538-.877-.96-1.91-1.284-3.121-.32-1.205-.477-2.558-.477-4.052v-3.686h4.357v-2.85zm124.846.102c.26.057.48.156.629.343.236.259.339.572.339.907v5.184c0 1.292-.194 2.504-.58 3.602-.384 1.09-.876 2.061-1.475 2.889-.762 1.06-1.623 1.893-2.576 2.53-.949.644-1.86 1.072-2.706 1.255-.091.03-.13.06-.145.106-.016.053.015.11.046.153l1.993 2.31a8.626 8.626 0 0 0 2.059-.873c.72-.404 1.41-.881 2.061-1.411.69-.557 1.3-1.155 1.853-1.8a7.93 7.93 0 0 0 1.239-1.908c.057-.134.235-.634.235-.634s.195.5.233.634c.267.621.656 1.25 1.186 1.871a14.451 14.451 0 0 0 1.802 1.776 13.99 13.99 0 0 0 2.127 1.452 8.798 8.798 0 0 0 2.1.892l1.98-2.31c.049-.041.075-.1.075-.152 0-.046-.061-.076-.172-.106-.716-.149-1.51-.493-2.348-1.023-.85-.54-1.635-1.226-2.39-2.088-.724-.876-1.333-1.92-1.829-3.11-.51-1.216-.767-2.565-.767-4.055V57.95zm118.766.062v14.61c0 1.36.32 2.375.972 3.008.637.644 1.593.967 2.874.967h12.486v-2.885h-11.85a.638.638 0 0 1-.434-.16c-.119-.107-.17-.266-.17-.484V68.62h8.617v-2.86h-8.618v-4.863h11.179v-2.884zm-152.095.012c.232.05.45.14.591.312.214.26.324.564.324.93v8.416c0 1.368.297 2.351.877 2.942.59.576 1.52.877 2.801.877h17.686v-2.859H411.47a.666.666 0 0 1-.438-.16c-.11-.102-.172-.259-.172-.487v-7.136h17.228v-2.835zm-18.801.902c1.193 0 2.226.458 3.088 1.346.872.904 1.303 1.975 1.303 3.236 0 1.266-.43 2.337-1.303 3.236-.862.896-1.895 1.345-3.088 1.345-1.197 0-2.23-.449-3.098-1.345-.854-.899-1.293-1.97-1.293-3.236 0-1.261.439-2.332 1.293-3.236.869-.888 1.9-1.346 3.098-1.346zm113.24 5.796h7.047v2.81c0 .198-.046.332-.115.408-.08.065-.21.106-.408.106h-6.01c-.202 0-.328-.02-.404-.061-.076-.042-.11-.186-.11-.415zm-127.335 8.273v2.977h7.535v9.41h3.84v-9.41h5.445v9.41h3.846v-9.41h7.516v-2.977zm128.165.025v2.775h15.436v2.051h-15.436v4.9c.008.954.201 1.618.579 2.014.381.396 1.052.59 1.99.59h17.097v-2.82h-15.402c-.114 0-.19-.015-.244-.065-.057-.042-.08-.11-.08-.183v-1.677h14.77c.225 0 .4-.057.488-.172.1-.118.141-.255.141-.434v-6.3a.733.733 0 0 0-.144-.465c-.111-.145-.275-.214-.485-.214zm-249.708.703v2.878h12.116v8.815h4.022v-8.815h12.078v-2.878zm163.262.038c.114.06.213.117.309.216.202.218.301.515.301.877v4.833h-12.147v2.89h28.193v-2.89h-12.07v-5.926zm117.904 1.66v7.393c0 .846.206 1.463.625 1.875.427.416 1.075.621 1.952.621h17.338v-2.885h-15.516c-.149 0-.264-.038-.348-.125-.091-.088-.13-.201-.13-.35v-6.53Zm-130.27 21.853c-1.754 0-3.256.99-4.102 2.61-.473.923-.74 2.062-.74 3.381 0 1.65.431 3.022 1.243 4.06.854 1.085 2.042 1.699 3.525 1.699 1.159 0 2.196-.313 3.073-.942l-.778-1.044c-.61.484-1.215.717-2.1.717-1.2 0-2.256-.595-2.786-1.85-.278-.658-.412-1.406-.412-2.675 0-1.368.187-2.325.545-3.053.53-1.06 1.407-1.631 2.531-1.631.759 0 1.384.195 2.009.656l.777-1.037c-.713-.575-1.718-.891-2.786-.891zm134.75 0c-1.75 0-3.25.99-4.1 2.61-.477.923-.74 2.062-.74 3.381 0 1.65.43 3.022 1.239 4.06.857 1.085 2.046 1.699 3.536 1.699 1.151 0 2.193-.313 3.07-.942l-.78-1.044c-.609.484-1.227.717-2.096.717-1.208 0-2.259-.595-2.793-1.85-.278-.658-.408-1.406-.408-2.675 0-1.368.18-2.325.545-3.053.522-1.06 1.402-1.631 2.527-1.631a3.22 3.22 0 0 1 2.013.656l.773-1.037c-.709-.575-1.72-.891-2.786-.891zm-312.897.217v9.472c0 1.22-.087 1.73-.281 2.127-.23.446-.725.926-1.304 1.224l.743.872c.755-.278 1.452-.774 1.88-1.407.43-.636.56-1.3.56-2.934V97.49zm30.366.002v11.373h1.604v-5.336h3.365v-1.292h-3.365v-3.445h4.112l.21-1.3zm36.083 0v11.37h1.62v-11.37Zm140.711 0v11.37h2.84c1.978 0 3.034-.545 3.826-1.54.759-.942 1.243-2.294 1.243-4.139 0-1.57-.339-2.87-1.01-3.815-1.04-1.437-2.294-1.875-4.26-1.875zm1.612 1.266h1.293c1.105 0 1.764.213 2.39 1.006.678.854.842 2.031.842 3.62 0 1.117-.19 2.143-.606 2.906-.515.918-1.357 1.268-2.665 1.268h-1.254zm-70.014 1.282c-2.492 0-4.009 1.688-4.009 4.46 0 1.436.377 2.512 1.204 3.385.728.773 1.598 1.124 2.909 1.124 1.433 0 2.355-.428 3.079-1.339.613-.739.893-1.733.893-3.136 0-1.384-.305-2.409-.934-3.133-.724-.895-1.74-1.36-3.142-1.36zm113.97 0c-2.493 0-4.006 1.688-4.006 4.46 0 1.436.38 2.512 1.204 3.385.724.773 1.601 1.124 2.905 1.124 1.433 0 2.355-.428 3.087-1.339.606-.739.891-1.733.891-3.136 0-1.384-.312-2.409-.941-3.133-.728-.895-1.734-1.36-3.14-1.36zm-136.206.121-3.229 8.702h1.605l.823-2.265h3.251l.827 2.265h1.696l-3.17-8.702zm40.298 0-3.236 8.702h1.601l.827-2.265h3.247l.827 2.265h1.704l-3.17-8.702zm-139.79.013v5.63c0 .98.084 1.341.347 1.833.43.762 1.354 1.372 3.023 1.372 1.2 0 2.012-.278 2.587-.827.599-.545.779-1.026.779-2.41v-5.598h-1.57v5.534c0 .839-.082 1.137-.33 1.468-.266.347-.776.544-1.451.544-.842 0-1.467-.331-1.7-.887-.099-.233-.133-.698-.133-1.323v-5.336zm242.242 0v8.69h1.531v-3.278h1.419c1.09 0 1.605-.13 2.226-.59.713-.427 1.189-1.186 1.189-2.208 0-.96-.491-1.749-1.334-2.203-.514-.29-.96-.41-2.512-.41zm-254.736.002v8.687h5.58v-1.327h-4.01v-2.573h3.053v-1.269h-3.073v-2.245h3.682l.218-1.273zm8.14 0v7.211c0 .778-.05 1.243-.234 1.56-.213.338-.66.739-1.17.983l.743.827c.987-.332 1.8-.991 2.062-1.883.1-.343.133-.854.133-1.529v-7.17zm25.22 0v8.687h1.536v-3.72c.297.037.506.102.758.312.427.332.873.876 1.616 2.066.297.476.58.911.828 1.342h1.883c-.042-.054-.794-1.08-1.293-1.788a85.199 85.199 0 0 0-1.235-1.601 1.906 1.906 0 0 0-.43-.393c1.467-.072 2.409-.994 2.409-2.428 0-.808-.382-1.497-.992-1.95-.507-.374-1.185-.527-2.489-.527zm8.73 0v8.687h5.58v-1.327h-4.01v-2.573h3.053v-1.269h-3.072v-2.245h3.678l.217-1.273zm8.037 0v8.687h5.58v-1.327h-4.009v-2.573h3.057v-1.269h-3.076v-2.245h3.681l.214-1.273zm16.375 0v8.687h1.535l-.065-4.163a41.077 41.077 0 0 0-.102-2.428c.065.164.643 1.388 1.158 2.25l2.478 4.34h1.597v-8.686h-1.486l.053 4.059c.015 1.029.13 2.135.148 2.33-.118-.233-.53-1.117-1.044-2.013l-2.523-4.376zm8.633 0v1.272h2.473v7.414h1.537v-7.414h2.51l.219-1.272zm8.5 0v8.687h5.581v-1.327h-4.013v-2.573h3.053v-1.269h-3.069v-2.245h3.682l.21-1.273zm8.07 0v8.687h1.536v-3.72c.297.037.514.102.758.312.434.332.873.876 1.62 2.066.293.476.576.911.824 1.342h1.883c-.035-.054-.79-1.08-1.29-1.788-.46-.61-.96-1.255-1.234-1.601a2.008 2.008 0 0 0-.435-.393c1.471-.072 2.41-.994 2.41-2.428 0-.808-.374-1.497-.988-1.95-.51-.374-1.193-.527-2.493-.527zm8.765 0v8.687h1.54l-.072-4.163a42.486 42.486 0 0 0-.096-2.428c.065.164.645 1.388 1.155 2.25l2.477 4.34h1.601v-8.686h-1.487l.054 4.059c.011 1.029.129 2.135.144 2.33-.118-.233-.529-1.117-1.04-2.013l-2.527-4.376zm17.218 0v1.272h2.473v7.414h1.533v-7.414h2.511l.214-1.272zm8.53 0v8.686h1.57v-8.686zm14.54 0v8.687h1.536l-.068-4.163a46.56 46.56 0 0 0-.096-2.428c.065.164.64 1.388 1.155 2.25l2.473 4.34h1.605v-8.686h-1.486l.05 4.059c.015 1.029.133 2.135.149 2.33-.118-.233-.527-1.117-1.041-2.013l-2.524-4.376zm18.124 0v8.687h4.985l.244-1.278h-3.66v-7.41zm19.663 0v8.686h1.571v-8.686zm3.594 0v1.272h2.478v7.414h1.535v-7.414h2.508l.21-1.272zm30.883 0v8.687h5.584v-1.327h-4.018v-2.573h3.057v-1.269h-3.068v-2.245h3.678l.213-1.273zm6.918 0 3.297 8.717h1.437l3.39-8.717h-1.602l-1.872 4.658c-.335.82-.56 1.734-.598 1.878-.031-.13-.27-1.086-.61-1.932l-1.757-4.604zm9.869 0v8.687h5.58v-1.327h-4.018v-2.573h3.06v-1.269h-3.07v-2.245h3.677l.218-1.273zm8.034 0v8.687h4.99l.24-1.278h-3.663v-7.41zm26.05 0-.89 8.687h1.5l.428-5.272c.065-.69.113-1.647.113-1.795.038.179.256 1.15.47 1.795l1.646 5.272h1.334l1.739-5.306c.21-.67.445-1.582.472-1.712 0 .16.018 1.071.083 1.765l.447 5.253h1.539l-.853-8.687h-2.123l-1.464 4.787a25.602 25.602 0 0 0-.46 1.75 23.3 23.3 0 0 0-.452-1.761l-1.478-4.776zm11.386 0v8.687h5.576v-1.327h-4.006v-2.573h3.05v-1.269h-3.068v-2.245h3.685l.213-1.273zm8.075 0v8.687h1.536l-.072-4.163a42.582 42.582 0 0 0-.096-2.428c.065.164.641 1.388 1.156 2.25l2.48 4.34h1.597v-8.686h-1.486l.05 4.059c.01 1.029.132 2.135.148 2.33-.115-.233-.533-1.117-1.04-2.013l-2.528-4.376zm8.636 0v1.272h2.465v7.414h1.54v-7.414h2.508l.217-1.272zm21.27 0v8.687h5.576v-1.327h-4.01v-2.573h3.054v-1.269h-3.066v-2.245h3.683l.21-1.273zm8.07 0v8.687h1.535l-.065-4.163a37.874 37.874 0 0 0-.102-2.428c.069.164.647 1.388 1.154 2.25l2.486 4.34h1.597v-8.686h-1.483l.05 4.059c.015 1.029.125 2.135.144 2.33-.114-.233-.53-1.117-1.04-2.013l-2.523-4.376zm8.635 0v1.272h2.477v7.414h1.528v-7.414h2.512l.221-1.272zm8.499 0v8.687h5.577v-1.327h-4.007v-2.573h3.05v-1.269h-3.065v-2.245h3.678l.218-1.273zm8.074 0v8.687h1.537v-3.72c.293.037.507.102.754.312.427.332.877.876 1.617 2.066.297.476.582.911.826 1.342h1.883c-.03-.054-.79-1.08-1.289-1.788-.46-.61-.959-1.255-1.241-1.601a1.796 1.796 0 0 0-.423-.393c1.467-.072 2.408-.994 2.408-2.428 0-.808-.38-1.497-.99-1.95-.515-.374-1.19-.527-2.49-.527zm-157.17 0 3.087 5.165v3.522h1.596v-3.522l3.138-5.164h-1.792l-1.573 2.705a8.669 8.669 0 0 0-.51 1.041 9.963 9.963 0 0 0-.516-1.04l-1.548-2.706zm-55.176 1.075c.923 0 1.579.313 1.983 1.087.266.545.377 1.239.377 2.31 0 .892-.066 1.417-.279 1.95-.316.859-.975 1.255-1.947 1.255-.873 0-1.537-.297-1.857-.842-.339-.595-.54-1.449-.54-2.607 0-1.022.133-1.734.442-2.245.35-.56 1.029-.908 1.821-.908zm113.968 0c.923 0 1.583.313 1.983 1.087.267.545.38 1.239.38 2.31 0 .892-.06 1.417-.284 1.95-.313.859-.968 1.255-1.944 1.255-.877 0-1.536-.297-1.853-.842-.343-.595-.541-1.449-.541-2.607 0-1.022.13-1.734.442-2.245.346-.56 1.029-.908 1.817-.908zm-213.264.167h.957c.492 0 .838.03 1.136.126.533.171.841.595.841 1.144 0 .461-.163.808-.445 1.017-.328.252-.793.348-1.646.348h-.843zm58.345 0h.957c.5 0 .838.03 1.14.126.53.171.841.595.841 1.144 0 .461-.164.808-.446 1.017-.331.252-.792.348-1.65.348h-.842zm254.834 0h.952c.496 0 .842.03 1.136.126.53.171.843.595.843 1.144 0 .461-.16.808-.446 1.017-.328.252-.793.348-1.647.348h-.838zm-91.808.01h1.137c.71 0 1.189.088 1.535.366.302.252.462.594.462 1.09 0 .411-.099.762-.358 1.04-.267.283-.667.431-1.395.431h-1.38zm-143.436.136c.05.232 1.136 3.494 1.243 3.791H340.4c.073-.225 1.208-3.559 1.254-3.791zm40.295 0c.045.232 1.136 3.494 1.235 3.791h-2.493c.061-.225 1.204-3.559 1.258-3.791z" style="fill:#2c292a;fill-opacity:1;stroke:none;stroke-width:3.81149" transform="translate(14.286 14.286) scale(.95238)"/><path fill="#79aadb" d="M99.78 64.926C94.462 43.954 81.83 25.25 62.683 13.112 43.541.974 21.237-2.466 0 1.673 5.318 22.636 17.95 41.34 37.097 53.47 56.24 65.612 78.539 69.06 99.78 64.926" style="stroke-width:4.4841" transform="matrix(.80952 0 0 .80952 14.286 14.286)"/><path fill="#3890ce" d="M99.78 64.926C91 51.595 77.656 41.622 61.378 37.788c-16.277-3.825-32.657-.834-46.46 7.184 8.78 13.326 22.107 23.308 38.384 27.137 16.282 3.834 32.676.834 46.478-7.183" style="stroke-width:4.4841" transform="matrix(.80952 0 0 .80952 14.286 14.286)"/><path fill="#007bc2" d="M99.78 64.926c-10.147-6.57-22.42-9.426-34.873-7.12-12.452 2.308-22.9 9.37-30.025 19.142 10.147 6.564 22.43 9.42 34.886 7.116 12.457-2.31 22.891-9.367 30.012-19.138M114.443 141.095c-1.96 3.228-3.134 4.892-6.363 8.905l-9.201-6.17c3.327-5.188 4.013-6.556 5.48-9.497 2.25-4.695 3.134-9.395 3.134-16.34V64.9h12.237v64.145c-1.762 5.681-2.646 7.74-5.287 12.049M169.56 79.053c-3.31-2.458-8.125-3.686-14.928-3.686h-9.448v41.379h9.448c14.175 0 22.112-7.462 22.112-20.784 0-7.085-2.75-13.605-7.184-16.91m11.43 39.017c-5.762 6.138-13.981 9.16-25.223 9.16h-23.053V64.884h23.147c11.811 0 19.179 2.645 25.317 9.165 5.39 5.762 8.408 13.695 8.408 21.82 0 8.313-3.116 16.344-8.596 22.2M246.087 79.092c-4.067-2.933-8.887-4.354-14.376-4.354-12.012 0-20.622 8.515-20.622 20.335 0 13.435 8.888 22.228 22.51 22.228 4.448 0 8.134-.758 13.717-2.933l2.175 10.031c-3.969 1.798-5.578 2.359-8.421 3.023-3.023.663-6.336 1.04-10.022 1.04-9.744 0-16.74-2.457-22.61-7.758-6.618-5.954-10.496-15.228-10.496-24.972 0-9.07 3.403-17.304 9.555-23.357 6.242-6.148 13.242-8.704 23.55-8.704 7.942 0 14.188 1.892 19.578 5.96z" style="stroke-width:4.4841" transform="matrix(.80952 0 0 .80952 14.286 14.286)"/></svg>