<svg xmlns="http://www.w3.org/2000/svg" width="500" height="172.26805" viewBox="0 0 500 172.26804"><path fill="#4c2f48" d="M278.495 111.092c-.826 2.32-3.264 3.893-7.472 3.893H221.43l-11.497-19.108c29.08-9.743 33.147-25.508 33.147-32.432 0-15.163-17.941-21.778-42.774-21.778h-66.364c-31.484 0-42.61 16.28-43.795 32.591 2.285-6.109 9.735-16.959 37.39-16.959l60.85-.028c12.69 0 30.155-.69 30.155 10.112 0 4.983-3.602 17.243-34.393 26.651l19.072 31.432a9.54 9.54 0 0 0 8.461 5.135l64.614-.044s18.09 1.809 24.58-19.035l17.569-48.794h-22.537z" style="stroke-width:1.40759"/><path fill="#4c2f48" d="M291.382 41.667c-5.586 0-32.128-.235-37.37 21.931h13.765c1.515-2.967 4.23-6.317 15.094-6.317l62.414-.04c3.736 0 5.86-1.101 7.434-3.815l6.71-11.76zM169.532 62.769 145.1 130.598h22.326l24.678-67.83zM116.533 63.567c-5.988.947-12.188 2.475-17.137 6.72-3.974 3.41-6.609 7.184-7.025 11.486-.421 4.34 1.863 8.62 4.303 12.765 2.494 4.24 4.861 7.61 4.861 10.375 0 6.706-8.781 10.076-20.376 10.076H52.996a8.12 8.12 0 0 0-7.641 5.371l-3.688 10.24s31.56-.047 38.973-.047c3.68 0 12.261-.43 15.679-.844 13.81-1.668 27.494-10.22 28.187-23.368.371-7.065-5.143-13.913-8.605-21.722-3.067-6.918-5.96-14.756.632-21.052M382.259 125.702h36.568v-4.162h-36.568zM458.333 97.395h-6.355v-4.934a2.48 2.48 0 0 0-2.479-2.48h-3.872v19.735c0 .684.555 1.24 1.24 1.24h5.111v-9.397h6.355zM425.568 117.145h19.864v2.931h-19.864v9.284c0 .686.555 1.24 1.24 1.24h25.66v-3.827h-20.549v-2.87h19.864v-8.105a2.48 2.48 0 0 0-2.48-2.48h-23.735zM377.693 92.46c0-1.37-1.11-2.478-2.479-2.478h-3.69V130.6h6.169zM357.01 104.186h4.969V130.6h6.17V92.46a2.48 2.48 0 0 0-2.48-2.478h-3.69v10.042h-4.944zM430.346 106.754c-2.444 0-4.136-2.905-4.136-6.286s1.692-6.286 4.136-6.286 4.135 2.906 4.135 6.286c0 3.381-1.692 6.286-4.135 6.286m0-16.758c-5.784 0-10.473 4.688-10.473 10.472s4.689 10.474 10.473 10.474 10.472-4.69 10.472-10.474-4.688-10.472-10.472-10.472" style="stroke-width:1.40759"/><path fill="#4c2f48" d="M347.898 113.326c-2.851 0-4.246-3.555-4.246-9.259 0-5.703 1.395-9.259 4.246-9.259s4.247 3.556 4.247 9.26-1.395 9.258-4.247 9.258m0-22.694c-6.268 0-10.61 5.6-10.61 13.435s4.342 13.436 10.61 13.436 10.61-5.601 10.61-13.436c0-7.834-4.342-13.435-10.61-13.435M407.199 103.59c-3.38-3.532-3.497-6.175-3.497-10.26 0-1.357-1.12-2.448-2.478-2.448h-3.849l.014 2.448c0 4.085-.118 6.728-3.498 10.26-3.402 3.554-9.01 6.19-10.687 7.012l2.215 3.525c4.906-2.019 12.02-6.115 15.126-10.304 3.108 4.19 10.22 8.285 15.127 10.304l2.214-3.525c-1.677-.822-7.285-3.458-10.687-7.012" style="stroke-width:1.40759"/></svg>