<svg xmlns="http://www.w3.org/2000/svg" width="1065.4556pt" height="224.99998pt" fill-rule="evenodd" viewBox="0 0 1065.4556 224.99998"><path d="M272.65 314.333c-1.351 1.046-2.893 1.983-4.626 2.812-1.733.83-3.415 1.431-5.057 1.797-.715.147-1.176.047-1.383-.289-.203-.34.031-.653.709-.939 2.15-.984 4.016-2.212 5.593-3.688 1.579-1.477 2.53-2.695 2.86-3.658h-5.748c-.555 0-.882-.035-.982-.108a3.057 3.057 0 0 1-.401-.353l-1.045-1.17c-.185-.326-.185-.573-.002-.736.186-.165.43-.175.739-.031.552.203 1.07.333 1.55.384.483.05 1.002.077 1.555.077h15.861c.922 0 1.382.322 1.382.969 0 .645-.46.968-1.382.968h-6.117c-.187.41-.437.824-.754 1.244-.318.421-.681.835-1.09 1.245.838.41 1.511.689 2.012.829.502.144.968.268 1.399.37.592.103 1.152.169 1.677.199.522.03.948.129 1.276.292.756.371 1.519.922 2.29 1.662.766.736 1.009 1.402.719 1.998-.181.389-.445.614-.783.674-.337.061-.875.01-1.613-.153-1.17-.226-2.492-.718-3.965-1.475-1.476-.758-3.034-1.731-4.674-2.92zm2.616 8.453v7.316c0 .573-.217 1.097-.649 1.569-.432.47-.953.704-1.566.704h-1.446c-.267 0-.46-.051-.582-.152-.125-.102-.185-.277-.185-.523v-8.914H261.4c-.552 0-.88-.031-.983-.093a2.365 2.365 0 0 1-.399-.336l-.985-1.201c-.183-.326-.183-.572 0-.737.184-.165.432-.175.739-.031.531.226.951.359 1.259.401.309.041.902.06 1.784.06h23.177c.922 0 1.383.322 1.383.968 0 .647-.461.969-1.383.969zM312.223 329.268c0 .922-.227 1.67-.678 2.243-.451.575-1.045.863-1.779.863h-1.172c-.268 0-.471-.053-.614-.156-.144-.102-.214-.276-.214-.523v-6.607h-12.234c-.472 0-.774-.042-.907-.124a2.04 2.04 0 0 1-.446-.399l-.985-1.139c-.144-.245-.149-.443-.014-.598.132-.154.322-.199.568-.138.512.205.947.338 1.308.4.358.061.761.091 1.212.091h15.341c.223 0 .382.042.477.122.092.083.137.228.137.432zm-18.475-14.078v1.937c0 .451.098.701.291.752.195.052.465.067.814.045.471-.02 1.257-.055 2.352-.106 1.1-.05 1.9-.098 2.414-.14.778-.08 1.496-.173 2.153-.275.656-.104 1.177-.286 1.568-.554v-7.1c0-.594-.136-.998-.4-1.215a5.044 5.044 0 0 0-.984-.599c-.411-.206-.601-.435-.57-.691.03-.256.242-.354.632-.291l4.394.551c.328.041.512.13.553.262.041.133.062.229.062.291v4.428h1.998v-3.014c0-.574-.134-.972-.398-1.198a5.462 5.462 0 0 0-.984-.645c-.472-.247-.659-.477-.554-.692.102-.216.306-.303.613-.263l4.49.555c.326.04.512.128.552.261.043.135.063.232.063.293v12.05c0 .573-.194 1.08-.584 1.52-.391.442-.891.662-1.506.662h-.922c-.268 0-.459-.05-.588-.156-.121-.101-.182-.275-.182-.52v-6.733h-1.998v4.949c0 .574-.193 1.082-.585 1.523-.389.44-.891.661-1.507.661h-.83c-.263 0-.46-.053-.583-.155-.122-.103-.182-.276-.182-.523v-2.673c-.391.285-.883.513-1.479.676-.593.163-1.308.328-2.15.491-.777.122-1.68.247-2.703.368a64.242 64.242 0 0 1-2.768.279 26.333 26.333 0 0 1-3.105 0c-.963-.063-1.445-.789-1.445-2.183v-6.425c0-.41-.073-.733-.214-.968a1.72 1.72 0 0 0-.556-.569 3.78 3.78 0 0 0-.719-.414c-.258-.114-.386-.221-.386-.324 0-.102.031-.214.092-.338.06-.123.186-.184.368-.184h11.651c.758 0 1.144.301 1.154.907.01.604-.375.906-1.154.906h-6.178v2.613h6.27c.595 0 .892.328.892.985 0 .655-.297.983-.892.983zM320.113 323.375l5.692.4c.386.122.582.34.582.645v3.566c.021.614.133 1.055.339 1.321.203.267.706.402 1.504.402h11.528c.841 0 1.258.3 1.258.906 0 .604-.417.907-1.258.907h-14.725c-.555 0-1.199-.17-1.935-.507-.741-.34-1.108-1.031-1.108-2.075v-2.921c0-.451-.267-.829-.797-1.139a28.657 28.657 0 0 0-1.169-.644c-.35-.144-.471-.328-.372-.552.104-.227.259-.33.461-.309zm.219-12.359c-.451 0-.77-.045-.953-.136a2.01 2.01 0 0 1-.525-.385l-.954-1.044c-.163-.226-.193-.416-.09-.569.1-.153.317-.178.645-.078.475.124.934.21 1.381.261.455.053 1.049.078 1.783.078h11.006c.432.022.719.169.861.447.143.276.204.569.184.874-.225 1.56-.623 2.933-1.197 4.12-.576 1.19-1.211 2.112-1.907 2.766a2.185 2.185 0 0 1-1.305.602c-.503.05-.712-.211-.63-.785.121-.801.219-1.67.291-2.614.072-.942.105-2.12.105-3.537zm20.194 2.707 3.472-.245c.637-.02.959.384.971 1.213.009.831-.315 1.246-.971 1.246h-3.472v7.038c0 .574-.204 1.093-.615 1.554a1.973 1.973 0 0 1-1.536.691h-1.199c-.266 0-.461-.052-.584-.153-.125-.103-.188-.277-.188-.523v-3.998c-.86.597-1.879.934-3.054 1.015-1.18.082-2.588.124-4.227.124h-10.668c-.307 0-.545-.01-.707-.031-.164-.021-.33-.112-.492-.276l-1.139-1.323c-.163-.205-.183-.4-.06-.584.123-.184.328-.234.616-.154.472.207.917.338 1.335.4.422.063 1.021.093 1.799.093h2.492v-2.951c0-.41-.076-.743-.231-.999-.154-.256-.408-.456-.753-.6-.411-.184-.591-.42-.541-.707.052-.286.261-.411.632-.369l4.457.4c.184.021.307.093.367.216a.705.705 0 0 1 .095.306v4.704h2.059c1.763 0 3.399-.04 4.919-.123 1.515-.083 2.55-.39 3.101-.923v-9.283c0-.594-.273-1.017-.826-1.275-.553-.256-1.007-.466-1.353-.629-.287-.163-.385-.361-.292-.584.09-.228.241-.33.444-.308l5.534.552c.327.04.511.129.554.263.041.131.061.229.061.292v5.931zM369.414 330.109c0 .571-.205 1.095-.617 1.565a1.95 1.95 0 0 1-1.535.707h-1.168c-.268 0-.463-.052-.586-.152-.122-.103-.184-.278-.184-.523v-8.392c-.82.533-1.838.901-3.058 1.107-1.219.206-2.825.306-4.811.306h-6.577c-.882 0-1.601-.193-2.152-.582-.554-.391-.829-1.076-.829-2.06v-3.597c0-.696-.331-1.122-.986-1.275-.656-.154-.983-.374-.983-.662 0-.205.047-.321.138-.351a1.22 1.22 0 0 1 .383-.047h10.268v-4.766h-7.748a3.52 3.52 0 0 1-.582-.03c-.102-.02-.235-.113-.401-.276l-1.105-1.292c-.165-.185-.186-.379-.061-.583.123-.206.347-.237.674-.094.472.206.897.334 1.278.384.376.052.855.077 1.427.077h10.206c.228 0 .386.043.477.123.091.083.14.225.14.431v6.579c0 .306-.135.584-.401.83a1.325 1.325 0 0 1-.922.368h-7.5v3.904c0 .37.102.645.308.83.205.185.501.276.891.276h3.29c1.945 0 3.665-.066 5.162-.199 1.494-.132 2.654-.486 3.474-1.061v-12.173c0-.594-.277-1.017-.83-1.275l-1.353-.629c-.287-.163-.385-.361-.292-.584.093-.228.243-.33.446-.308l5.502.552c.328.04.512.129.553.263.041.131.064.229.064.292zM382.429 324.499c.952-.637 2.046-.953 3.273-.953 1.189 0 2.269.316 3.243.953.972.633 1.459 1.495 1.459 2.582 0 1.086-.487 1.946-1.459 2.582a5.818 5.818 0 0 1-3.243.952c-1.227 0-2.321-.318-3.273-.952-.952-.636-1.429-1.496-1.429-2.582 0-1.087.477-1.949 1.429-2.582zm-2.874-1.538c-1.926.963-2.889 2.336-2.889 4.12 0 1.781.958 3.154 2.874 4.12 1.916.961 3.968 1.442 6.162 1.442 2.195 0 4.247-.481 6.165-1.442 1.914-.966 2.873-2.339 2.873-4.12 0-1.784-.953-3.157-2.857-4.12-1.909-.962-3.957-1.445-6.151-1.445-2.193 0-4.252.483-6.177 1.445zm12.081-12.847c.019 1.616-.021 2.812-.122 3.579-.106.77-.186 1.41-.248 1.922-.082.636.109 1.018.57 1.152.463.134 1.019-.106 1.674-.721.47-.43 1.01-1.168 1.615-2.213.603-1.046 1.039-2.502 1.305-4.368 0-.306-.063-.598-.183-.874-.124-.276-.401-.425-.831-.446h-16.168c-.881 0-1.487-.019-1.816-.06-.325-.042-.756-.176-1.289-.401-.307-.144-.549-.139-.722.016-.175.154-.169.394.013.721l1.016 1.262c.165.163.312.271.445.321.133.052.447.089.939.11zm-15.739 7.99c-.881 0-1.486-.015-1.814-.046-.327-.029-.759-.159-1.293-.385-.304-.141-.552-.131-.733.031-.188.166-.188.4 0 .709l1.043 1.227c.164.187.298.31.4.37.101.061.43.091.982.091h23.826c.92 0 1.382-.329 1.382-.997 0-.665-.462-1-1.382-1h-11.437v-4.64c0-.102-.035-.181-.107-.231a.401.401 0 0 0-.231-.078l-5.349-.368c-.206-.021-.379.102-.524.369-.143.266.01.502.461.707.391.224.733.431 1.031.614.297.186.448.564.448 1.138v2.489zM420.648 318.979c-.716.515-1.748.887-3.089 1.122-1.344.238-3.088.364-5.241.385h-6.639c-1.29 0-2.066-.323-2.32-.967-.257-.645-.385-1.142-.385-1.492v-5.994c0-.409-.072-.734-.218-.969a1.702 1.702 0 0 0-.55-.569 5.454 5.454 0 0 0-.723-.383c-.256-.113-.382-.221-.382-.323a.84.84 0 0 1 .089-.368c.06-.124.184-.186.37-.186h13.985c.758 0 1.145.303 1.154.907.01.606-.373.907-1.154.907h-8.297v6.456c.039.534.179.865.412.999.238.133.549.189.94.168h2.951c2.109.021 3.924-.04 5.439-.184 1.517-.144 2.736-.554 3.658-1.23v-7.777c0-.594-.279-1.017-.83-1.275-.554-.256-1.003-.466-1.352-.629-.286-.163-.384-.361-.292-.584.094-.228.24-.33.447-.308l5.686.552c.328.04.511.129.554.263.039.131.059.229.059.292v4.795l3.475-.216c.636-.042.958.353.968 1.184.01.829-.312 1.243-.968 1.243h-3.475v8.085c0 .576-.203 1.097-.613 1.569-.41.47-.923.706-1.536.706h-1.353c-.268 0-.461-.051-.586-.152-.123-.104-.184-.279-.184-.524zm-15.246 3.659 5.655.368c.39.145.586.359.586.646v4.334c.019.614.132 1.055.337 1.321.205.267.708.402 1.508.402h10.635c.837 0 1.258.3 1.258.906 0 .604-.421.907-1.258.907H410.32c-.55 0-1.199-.17-1.935-.507-.74-.34-1.108-1.031-1.108-2.075v-3.998c0-.45-.265-.776-.799-.982a51.969 51.969 0 0 1-1.168-.462c-.349-.144-.47-.327-.37-.554.103-.224.257-.326.462-.306z" style="fill:#2c2c2b;stroke:none" transform="matrix(4.585 0 0 4.585 -903.177 -1382.288)"/><path d="M231.316 306.29a27.796 27.796 0 0 0-3.121-.706 14.375 14.375 0 0 0-1.55-.087c-6.997 0-12.67 5.037-12.67 11.25 0 3.602 1.908 6.805 4.873 8.864.918.389 1.787.858 2.597 1.394 4.534 3.001 7.262 8.14 6.627 13.573-.449 3.851-2.508 7.127-5.48 9.337-.047.035-.092.072-.14.107a.32.32 0 0 0-.074.2c0 .158.114.284.264.315.04.002.08.001.12.002.242.008.486.014.73.014 14.037 0 25.417-10.154 25.417-22.682 0-10.089-7.385-18.636-17.593-21.581z" style="fill:#006eb5;stroke:none" transform="matrix(4.585 0 0 4.585 -903.177 -1382.288)"/><path d="M232.904 314.118h-11.336l18.221 13.066h11.337zM232.004 340.09h7.89v-12.864h-7.89z" style="fill:#fff;stroke:none" transform="matrix(4.585 0 0 4.585 -903.177 -1382.288)"/><path d="M218.741 329.911a24.82 24.82 0 0 1-.458-.235c-5.842-3.124-9.368-9.235-8.353-15.568 1.06-6.607 6.742-11.428 13.66-12.282l.07-.008c.072-.021.131-.078.131-.158s-.057-.135-.129-.158l-.088-.002c-.201-.005-.4-.02-.604-.02-14.351 0-25.985 11.133-25.985 24.867 0 7.76 3.716 14.687 9.536 19.247.898.704 7.933 4.788 13.426.826 3.729-2.689 3.931-5.746 3.963-7.867 0-3.706-2.084-6.933-5.169-8.642z" style="fill:#97c124;stroke:none" transform="matrix(4.585 0 0 4.585 -903.177 -1382.288)"/><path d="M260.368 345.948c.283-.01.485-.048.605-.112.201-.109.301-.316.301-.623v-5.109c0-.3-.092-.503-.276-.608-.113-.064-.323-.106-.63-.126v-.266h3.547v.266c-.356.03-.596.098-.72.202-.124.105-.186.355-.186.751v2.262l2.233-2.29c.157-.158.258-.27.305-.337a.418.418 0 0 0 .069-.244c0-.133-.06-.219-.182-.257-.122-.037-.357-.067-.706-.087v-.266h3.046v.266c-.545.044-.996.198-1.354.462-.358.264-1.028.903-2.013 1.918l3.171 3.999a.478.478 0 0 0 .214.149c.069.021.179.037.326.05v.265h-3.531v-.265c.316-.004.533-.017.649-.041.117-.024.174-.084.174-.18a.385.385 0 0 0-.056-.172 2.042 2.042 0 0 0-.2-.285l-1.882-2.39-.263.267v2.066c0 .303.1.509.301.618.117.064.318.103.605.117v.265h-3.547z" style="fill:#2c2c2b;stroke:none" transform="matrix(4.585 0 0 4.585 -903.177 -1382.288)"/><path d="M271.611 346.057c-.796 0-1.34-.466-1.633-1.398-.158-.502-.236-1.161-.236-1.977 0-.802.077-1.454.231-1.956.296-.946.842-1.419 1.638-1.419.574 0 1.028.284 1.363.85.335.567.502 1.409.502 2.525 0 .813-.079 1.472-.237 1.977-.296.932-.838 1.398-1.628 1.398zm.003-7.109c-1.101 0-1.999.359-2.696 1.077-.691.708-1.036 1.613-1.036 2.713 0 .999.33 1.851.99 2.555.707.749 1.621 1.124 2.742 1.124 1.056 0 1.936-.342 2.64-1.026.721-.701 1.081-1.604 1.081-2.709 0-1.104-.36-2.007-1.081-2.708-.701-.684-1.581-1.026-2.64-1.026zM278.071 342.588v-2.673c0-.161.043-.276.131-.347.087-.069.271-.105.552-.105.518 0 .873.201 1.069.601.113.236.17.557.17.964 0 .664-.149 1.087-.445 1.271-.297.183-.789.279-1.477.289zm-2.61 3.625h3.516v-.265c-.363-.014-.604-.084-.725-.212-.121-.127-.181-.374-.181-.741v-2.063h.291l2.17 3.281h2.136v-.265a.848.848 0 0 1-.24-.048.427.427 0 0 1-.183-.162l-1.97-2.978c.329-.068.641-.226.936-.473.386-.329.579-.78.579-1.352 0-.775-.42-1.311-1.259-1.61-.433-.147-.999-.221-1.699-.221h-3.371v.266c.353.03.579.086.68.167.151.122.227.384.227.786v4.672c0 .387-.064.639-.192.754-.127.116-.366.182-.715.199zM283.048 346.213v-.265c.302-.01.517-.051.644-.123.196-.108.293-.312.293-.612v-5.109c0-.304-.101-.508-.303-.613-.117-.064-.329-.104-.634-.121v-.266h6.047v2.125h-.266c-.133-.677-.358-1.141-.677-1.391-.318-.25-.898-.375-1.738-.375-.321 0-.524.034-.611.101-.087.066-.13.198-.13.396v2.425c.599.007 1.004-.1 1.216-.32.212-.221.374-.624.487-1.211h.266v3.516h-.266c-.075-.596-.228-1.016-.459-1.26s-.645-.365-1.244-.365v2.536c0 .222.057.373.172.453.115.08.349.12.705.12.671 0 1.218-.128 1.642-.385.425-.256.801-.737 1.129-1.443h.289l-.421 2.187zM291.784 343.729l.935-2.437h.062l1.002 2.437zm-1.924 2.484h2.141v-.265a1.973 1.973 0 0 1-.526-.061c-.2-.069-.299-.177-.299-.327 0-.122.046-.318.138-.586.045-.128.144-.402.299-.823h2.332l.269.64c.058.141.105.261.139.361.055.166.082.291.082.373 0 .18-.053.292-.159.336-.107.044-.329.073-.666.087v.265h3.407v-.265a.624.624 0 0 1-.556-.259c-.13-.18-.327-.58-.59-1.199l-2.348-5.527h-.3l-2.328 5.758c-.185.455-.327.75-.425.883a.786.786 0 0 1-.61.344zM299.232 345.948c.282-.014.481-.053.598-.117.195-.109.293-.315.293-.618v-5.109c0-.293-.087-.493-.262-.598-.106-.06-.316-.106-.629-.136v-.266h3.563v.266c-.308.017-.521.057-.64.121-.198.109-.298.313-.298.613v2.188h2.485v-2.188c0-.3-.091-.503-.274-.608-.113-.064-.324-.106-.633-.126v-.266h3.547v.266c-.305.024-.513.068-.626.131-.186.105-.28.306-.28.603v5.109c0 .307.104.514.311.623.119.064.317.102.595.112v.265h-3.547v-.265c.293-.01.5-.051.624-.123.188-.108.283-.312.283-.612v-2.437h-2.485v2.437c0 .31.107.519.319.628.122.061.329.097.619.107v.265h-3.563zM311.079 346.057c-.797 0-1.341-.466-1.633-1.398-.158-.502-.236-1.161-.236-1.977 0-.802.077-1.454.231-1.956.295-.946.841-1.419 1.638-1.419.573 0 1.027.284 1.362.85.335.567.503 1.409.503 2.525 0 .813-.079 1.472-.237 1.977-.296.932-.838 1.398-1.628 1.398zm.003-7.109c-1.101 0-1.999.359-2.696 1.077-.691.708-1.035 1.613-1.035 2.713 0 .999.329 1.851.989 2.555.707.749 1.621 1.124 2.742 1.124 1.056 0 1.936-.342 2.64-1.026.72-.701 1.082-1.604 1.082-2.709 0-1.104-.362-2.007-1.082-2.708-.7-.684-1.58-1.026-2.64-1.026zM318.686 339.104v.266c-.405.013-.675.076-.811.188-.137.111-.204.366-.204.765v3.525c0 .535.062.948.189 1.24.229.542.667.813 1.317.813.805 0 1.349-.3 1.633-.899.157-.33.236-.79.236-1.383v-3.218c0-.375-.069-.632-.207-.773-.138-.142-.407-.228-.809-.258v-.266h2.313v.266c-.336.065-.559.145-.666.239-.109.094-.162.312-.162.651v3.361c0 .892-.216 1.581-.648 2.067-.432.486-1.109.729-2.033.729-1.209 0-2.036-.362-2.481-1.085-.236-.384-.354-.88-.354-1.487v-3.522c0-.392-.052-.639-.156-.74-.104-.101-.339-.173-.703-.213v-.266zM322.719 343.776h.304c.168.781.44 1.348.814 1.703.374.354.803.531 1.286.531.47 0 .804-.122 1.002-.366.198-.244.297-.501.297-.771 0-.315-.104-.571-.311-.769-.136-.13-.414-.299-.833-.507l-.673-.339c-.669-.335-1.139-.666-1.413-.994-.274-.328-.411-.733-.411-1.215 0-.512.182-.99.543-1.435.364-.444.918-.666 1.666-.666.381 0 .749.058 1.105.176.355.117.557.175.608.175.115 0 .194-.031.238-.096a.822.822 0 0 0 .106-.255h.312v2.281h-.289a3.221 3.221 0 0 0-.724-1.376c-.347-.385-.768-.577-1.263-.577-.349 0-.624.097-.826.29a.937.937 0 0 0-.304.704c0 .332.096.58.285.743.188.168.606.414 1.253.738l.776.39c.345.174.622.367.827.579.385.396.578.878.578 1.446 0 .529-.206 1.029-.619 1.499-.412.47-1.074.705-1.983.705a3.63 3.63 0 0 1-1.268-.233l-.202-.074a2.077 2.077 0 0 0-.137-.033.742.742 0 0 0-.111-.012c-.108 0-.182.031-.222.091a.92.92 0 0 0-.107.261h-.304zM328.148 345.948c.295-.007.508-.043.637-.107.211-.109.317-.318.317-.628v-5.109c0-.307-.101-.513-.301-.618-.122-.064-.34-.103-.653-.116v-.266h3.672v.266c-.328.013-.553.051-.676.111-.205.105-.308.313-.308.623v5.109c0 .293.082.488.246.587.164.099.41.148.738.148v.265h-3.672zM332.236 345.948c.383-.01.629-.086.741-.225.11-.14.166-.346.166-.619v-4.979a10.532 10.532 0 0 0-.587-.635.58.58 0 0 0-.304-.12v-.266h2.22l3.62 4.396h.051v-3.099c0-.354-.065-.607-.194-.758-.13-.152-.388-.243-.775-.273v-.266h2.266v.266c-.33.055-.55.128-.662.221-.111.093-.167.3-.167.622v6.204h-.289l-4.638-5.634h-.073v4.134c0 .321.045.549.134.682.142.216.43.332.866.349v.265h-2.375zM340.841 340.083c.696-.736 1.586-1.104 2.669-1.104.433 0 .865.081 1.296.242.429.162.698.242.804.242a.338.338 0 0 0 .271-.119.956.956 0 0 0 .17-.365h.297v2.453h-.266c-.253-.528-.511-.945-.774-1.25-.492-.562-1.048-.844-1.67-.844-.676 0-1.17.294-1.481.881-.31.587-.466 1.412-.466 2.476 0 .873.144 1.652.433 2.336.288.684.846 1.026 1.673 1.026.447 0 .748-.094.901-.282.089-.106.134-.267.134-.483v-1.11c0-.321-.098-.531-.293-.631-.127-.062-.383-.096-.769-.103v-.266h3.593v.266c-.36.014-.598.086-.716.217-.117.131-.174.376-.174.736v1.353c-.233.147-.61.294-1.129.441a6.362 6.362 0 0 1-1.743.222c-1.166 0-2.098-.368-2.795-1.104-.65-.688-.974-1.55-.974-2.587 0-1.047.336-1.928 1.009-2.643zM349.959 345.948c.404-.004.666-.075.787-.215s.182-.349.182-.629v-5c0-.284-.067-.47-.2-.559-.132-.09-.369-.148-.706-.175v-.266h2.615l2.066 4.875.086-.003 2.043-4.872h2.643v.266c-.35.027-.588.092-.715.195-.128.103-.192.356-.192.758v4.672c0 .384.064.635.192.754.127.119.365.185.715.199v.265h-3.469v-.265c.31-.01.545-.063.702-.158.157-.095.235-.303.235-.623v-5.141h-.077l-2.573 6.187h-.297l-2.585-6.06-.046-.002v4.766c0 .349.066.604.196.764.13.161.419.25.867.267v.265h-2.469zM361.635 343.729l.934-2.437h.063l1.002 2.437zm-1.924 2.484h2.141v-.265a1.987 1.987 0 0 1-.527-.061c-.199-.069-.299-.177-.299-.327 0-.122.046-.318.139-.586.045-.128.145-.402.299-.823h2.332l.269.64c.058.141.105.261.139.361.055.166.082.291.082.373 0 .18-.053.292-.159.336-.107.044-.329.073-.666.087v.265h3.406v-.265a.622.622 0 0 1-.555-.259c-.13-.18-.327-.58-.59-1.199l-2.348-5.527h-.301l-2.328 5.758c-.185.455-.326.75-.425.883a.783.783 0 0 1-.609.344zM367.072 345.948c.382-.01.629-.086.739-.225.112-.14.167-.346.167-.619v-4.979c-.317-.359-.512-.571-.586-.635a.58.58 0 0 0-.304-.12v-.266h2.22l3.619 4.396h.051v-3.099c0-.354-.065-.607-.194-.758-.129-.152-.387-.243-.774-.273v-.266h2.265v.266c-.33.055-.549.128-.661.221-.111.093-.167.3-.167.622v6.204h-.289l-4.639-5.634h-.072v4.134c0 .321.044.549.134.682.141.216.43.332.866.349v.265h-2.375zM376.177 343.729l.935-2.437h.063l1.002 2.437zm-1.923 2.484h2.141v-.265a1.981 1.981 0 0 1-.527-.061c-.199-.069-.299-.177-.299-.327 0-.122.046-.318.139-.586.044-.128.144-.402.299-.823h2.332l.268.64c.059.141.106.261.14.361.055.166.082.291.082.373 0 .18-.054.292-.16.336-.107.044-.328.073-.665.087v.265h3.406v-.265a.621.621 0 0 1-.555-.259c-.13-.18-.327-.58-.59-1.199l-2.349-5.527h-.3l-2.328 5.758c-.185.455-.326.75-.425.883a.786.786 0 0 1-.609.344zM382.055 340.083c.696-.736 1.586-1.104 2.669-1.104.433 0 .865.081 1.296.242.429.162.698.242.804.242a.34.34 0 0 0 .271-.119.956.956 0 0 0 .17-.365h.296v2.453h-.265c-.253-.528-.511-.945-.774-1.25-.492-.562-1.048-.844-1.67-.844-.676 0-1.17.294-1.481.881-.311.587-.466 1.412-.466 2.476 0 .873.144 1.652.433 2.336.288.684.846 1.026 1.673 1.026.447 0 .748-.094.901-.282.089-.106.134-.267.134-.483v-1.11c0-.321-.098-.531-.293-.631-.127-.062-.383-.096-.77-.103v-.266h3.594v.266c-.36.014-.599.086-.716.217-.117.131-.175.376-.175.736v1.353c-.232.147-.609.294-1.128.441a6.362 6.362 0 0 1-1.743.222c-1.167 0-2.098-.368-2.795-1.104-.65-.688-.974-1.55-.974-2.587 0-1.047.336-1.928 1.009-2.643zM388.998 346.213v-.265c.302-.01.517-.051.644-.123.196-.108.293-.312.293-.612v-5.109c0-.304-.101-.508-.303-.613-.117-.064-.328-.104-.634-.121v-.266h6.047v2.125h-.266c-.132-.677-.358-1.141-.676-1.391-.319-.25-.899-.375-1.74-.375-.32 0-.523.034-.61.101-.087.066-.13.198-.13.396v2.425c.599.007 1.004-.1 1.216-.32.212-.221.374-.624.487-1.211h.266v3.516h-.266c-.075-.596-.228-1.016-.459-1.26s-.645-.365-1.244-.365v2.536c0 .222.057.373.172.453.114.08.35.12.705.12.671 0 1.218-.128 1.643-.385.423-.256.799-.737 1.129-1.443h.288l-.421 2.187zM395.974 345.948c.404-.004.666-.075.787-.215s.181-.349.181-.629v-5c0-.284-.066-.47-.199-.559-.133-.09-.369-.148-.707-.175v-.266h2.615l2.067 4.875.085-.003 2.044-4.872h2.642v.266c-.349.027-.588.092-.715.195-.127.103-.191.356-.191.758v4.672c0 .384.064.635.191.754s.366.185.715.199v.265h-3.468v-.265c.31-.01.544-.063.702-.158.156-.095.235-.303.235-.623v-5.141h-.077l-2.573 6.187h-.297l-2.585-6.06-.046-.002v4.766c0 .349.065.604.196.764.13.161.419.25.866.267v.265h-2.468zM405.92 346.213v-.265c.303-.01.516-.051.644-.123.196-.108.293-.312.293-.612v-5.109c0-.304-.101-.508-.303-.613-.118-.064-.328-.104-.634-.121v-.266h6.047v2.125h-.266c-.133-.677-.358-1.141-.677-1.391-.318-.25-.898-.375-1.739-.375-.319 0-.523.034-.61.101-.087.066-.13.198-.13.396v2.425c.599.007 1.004-.1 1.216-.32.212-.221.375-.624.487-1.211h.266v3.516h-.266c-.075-.596-.228-1.016-.459-1.26s-.645-.365-1.244-.365v2.536c0 .222.058.373.172.453.114.08.349.12.706.12.67 0 1.218-.128 1.642-.385.423-.256.8-.737 1.128-1.443h.289l-.422 2.187zM412.927 345.948c.383-.01.63-.086.74-.225.111-.14.166-.346.166-.619v-4.979a9.855 9.855 0 0 0-.587-.635.574.574 0 0 0-.304-.12v-.266h2.22l3.62 4.396h.051v-3.099c0-.354-.064-.607-.193-.758-.129-.152-.388-.243-.776-.273v-.266h2.266v.266c-.329.055-.55.128-.661.221-.112.093-.167.3-.167.622v6.204h-.289l-4.639-5.634h-.072v4.134c0 .321.045.549.134.682.141.216.429.332.866.349v.265h-2.375zM420.617 339.104h6.277l.01 2.125h-.304c-.099-.758-.379-1.271-.842-1.539-.261-.148-.65-.228-1.166-.242v5.538c0 .387.066.644.199.771.134.127.41.19.832.19v.266h-3.734v-.266c.414 0 .689-.064.826-.193.137-.128.205-.384.205-.768v-5.538c-.507.014-.896.094-1.166.242-.497.274-.777.788-.842 1.539h-.305z" style="fill:#2c2c2b;stroke:none" transform="matrix(4.585 0 0 4.585 -903.177 -1382.288)"/></svg>