<svg xmlns="http://www.w3.org/2000/svg" xml:space="preserve" width="638.01636" height="400" viewBox="0 0 638.01635 399.99999"><defs><clipPath id="a" clipPathUnits="userSpaceOnUse"><path d="M0 841.89h595.276V0H0Z"/></clipPath></defs><path d="M0 0h1.134v-4.445L5.194 0h1.441L2.547-4.483l4.329-5.042H5.348l-3.565 4.17-.649-.711v-3.459H0Z" style="fill:#231916;fill-opacity:1;fill-rule:nonzero;stroke:none" transform="matrix(3.40817 0 0 -3.40817 2.736 357.825)"/><g clip-path="url(#a)" transform="matrix(3.40817 0 0 -3.40817 -695.39 804.412)"><path d="M0 0v.225c0 1.806-.955 2.573-1.948 2.573-1.082 0-1.962-.925-1.962-2.546V0c0-1.809.994-2.599 1.987-2.599C-.866-2.599 0-1.663 0 0m-5.08 0v.132c0 2.281 1.426 3.669 3.144 3.669 1.783 0 3.132-1.348 3.132-3.604V.065c0-2.228-1.451-3.669-3.144-3.669C-3.77-3.604-5.08-2.203-5.08 0" style="fill:#231916;fill-opacity:1;fill-rule:nonzero;stroke:none" transform="translate(216.9 124.927)"/><path d="M0 0h1.12v-.937C1.489-.276 2.178.134 2.84.134c.458 0 .942-.107 1.248-.332L3.77-1.319a1.966 1.966 0 0 1-1.02.317c-.675 0-1.196-.37-1.63-1.056v-4.949H0Z" style="fill:#231916;fill-opacity:1;fill-rule:nonzero;stroke:none" transform="translate(219.537 128.529)"/><path d="M0 0h3.552c-.013 1.399-.764 2.046-1.718 2.046C1.069 2.046.102 1.437 0 0m-1.172-.845v.265c0 2.428 1.452 3.629 3.006 3.629 1.718 0 2.838-1.201 2.838-3.353V-.95H.013c.025-1.636.966-2.335 2.202-2.335.802 0 1.642.356 2.05.674l.331-.912c-.433-.382-1.451-.818-2.521-.818-2.012 0-3.247 1.412-3.247 3.496" style="fill:#231916;fill-opacity:1;fill-rule:nonzero;stroke:none" transform="translate(224.86 125.679)"/><path d="M0 0v1.859c-1.286-.158-3.017-.077-3.017-1.543 0-.806.584-1.135 1.349-1.135.573 0 1.376.45 1.668.819m-4.176.249c0 2.204 2.025 2.272 4.176 2.508v.356c0 1.029-.7 1.413-1.719 1.413-.56 0-1.375-.292-1.845-.633-.116.33-.217.659-.345.988.573.384 1.592.701 2.42.701 1.387 0 2.572-.688 2.572-2.231v-5.028H.216l-.152.714c-.37-.436-1.235-.859-2.011-.859-1.248 0-2.229.648-2.229 2.071" style="fill:#231916;fill-opacity:1;fill-rule:nonzero;stroke:none" transform="translate(235.022 123.186)"/><path d="m0 0 .369 1.11c.65-.436 1.745-.832 2.61-.832 1.313 0 2.166.727 2.166 1.715 0 .857-.51 1.334-1.655 1.583l-1.007.238C1.274 4.091.166 4.923.166 6.413c0 1.453 1.146 2.546 3.068 2.546 1.21 0 2.343-.409 2.929-.869l-.42-.99a4.444 4.444 0 0 1-2.521.792c-1.146 0-1.846-.554-1.846-1.398 0-.885.648-1.413 1.603-1.624l.944-.198c1.578-.369 2.444-1.096 2.444-2.611 0-1.717-1.465-2.906-3.349-2.906C1.898-.845.663-.407 0 0" style="fill:#231916;fill-opacity:1;fill-rule:nonzero;stroke:none" transform="translate(241.301 122.168)"/><path d="M0 0h1.745l2.47-8.007L6.786 0h1.668v-9.525H7.321v7.917l-2.508-7.93H3.592L1.12-1.583v-7.942H0Z" style="fill:#231916;fill-opacity:1;fill-rule:nonzero;stroke:none" transform="translate(249.122 131.034)"/><path d="M0 0h5.603v-1.04H1.134v-2.943h4.061v-1.069H1.134V-8.47h4.532v-1.055H0Z" style="fill:#231916;fill-opacity:1;fill-rule:nonzero;stroke:none" transform="translate(259.362 131.034)"/><path d="m0 0 .33 1.003C.776.711 1.719.395 2.305.395c.942 0 1.476.541 1.476 1.108 0 .593-.408.897-1.082 1.043l-.828.133C.916 2.89.152 3.483.152 4.685c0 1.226.968 2.031 2.47 2.031.93 0 1.771-.318 2.178-.609l-.345-.975c-.433.305-1.132.594-1.756.594-.803 0-1.413-.343-1.413-1.016 0-.647.382-.91.981-1.003l.903-.171c1.095-.198 1.758-.872 1.758-1.98 0-1.267-1.071-2.19-2.611-2.19C1.464-.634.509-.331 0 0" style="fill:#231916;fill-opacity:1;fill-rule:nonzero;stroke:none" transform="translate(266.316 121.972)"/><path d="M0 0c.814.397 1.451.897 1.451 1.742 0 .751-.432 1.174-1.082 1.174-.65 0-1.184-.382-1.184-1.227C-.815 1.056-.51.646 0 0m1.973-4.142L-.484-1.136c-.764-.434-1.387-.974-1.387-1.937 0-1.136.725-1.848 1.947-1.848.777 0 1.439.289 1.897.779m-5.016.951c0 1.332.853 2.161 1.999 2.769-.535.674-.879 1.372-.879 2.071 0 1.518 1.108 2.192 2.278 2.192 1.21 0 2.153-.767 2.153-2.033 0-1.24-.93-1.979-1.961-2.494L2.61-3.231c.254.447.42 1.266.471 1.99h.993c-.064-.975-.331-2.03-.815-2.795L4.66-5.712H3.323l-.764.831C1.935-5.501.968-5.898.038-5.898c-1.821 0-3.081.99-3.081 2.707" style="fill:#231916;fill-opacity:1;fill-rule:nonzero;stroke:none" transform="translate(279.077 127.315)"/><path d="m0 0 .369 1.11c.65-.436 1.745-.832 2.61-.832 1.312 0 2.166.727 2.166 1.715 0 .857-.51 1.334-1.656 1.583l-1.006.238C1.273 4.091.165 4.923.165 6.413c0 1.453 1.147 2.546 3.069 2.546 1.209 0 2.343-.409 2.929-.869l-.42-.99a4.444 4.444 0 0 1-2.521.792c-1.146 0-1.847-.554-1.847-1.398 0-.885.649-1.413 1.604-1.624l.943-.198C5.5 4.303 6.367 3.576 6.367 2.061c0-1.717-1.465-2.906-3.349-2.906C1.897-.845.663-.407 0 0" style="fill:#231916;fill-opacity:1;fill-rule:nonzero;stroke:none" transform="translate(288.08 122.168)"/><path d="M0 0v4.037h-1.107v.989H0v1.783h1.134V5.026h2.024v-.989H1.134V.211c0-.831.344-1.241 1.044-1.241.331 0 .955.174 1.247.384l.217-.99c-.331-.239-1.082-.45-1.745-.45C.854-2.086 0-1.465 0 0" style="fill:#231916;fill-opacity:1;fill-rule:nonzero;stroke:none" transform="translate(296.601 123.502)"/><path d="M0 0v1.859c-1.285-.158-3.017-.077-3.017-1.543 0-.806.585-1.135 1.349-1.135.573 0 1.376.45 1.668.819m-4.176.249c0 2.204 2.025 2.272 4.176 2.508v.356c0 1.029-.699 1.413-1.719 1.413-.559 0-1.375-.292-1.845-.633-.116.33-.217.659-.344.988.573.384 1.592.701 2.419.701 1.388 0 2.572-.688 2.572-2.231v-5.028H.217l-.153.714c-.369-.436-1.234-.859-2.011-.859-1.248 0-2.229.648-2.229 2.071" style="fill:#231916;fill-opacity:1;fill-rule:nonzero;stroke:none" transform="translate(305.311 123.186)"/><path d="M0 0h1.12v-.937C1.489-.276 2.178.134 2.839.134c.458 0 .943-.107 1.248-.332L3.77-1.319a1.969 1.969 0 0 1-1.02.317c-.675 0-1.196-.37-1.63-1.056v-4.949H0Z" style="fill:#231916;fill-opacity:1;fill-rule:nonzero;stroke:none" transform="translate(308.28 128.529)"/><path d="M0 0v4.037h-1.107v.989H0v1.783h1.134V5.026h2.024v-.989H1.134V.211c0-.831.344-1.241 1.044-1.241.331 0 .955.174 1.248.384l.216-.99c-.33-.239-1.082-.45-1.745-.45C.854-2.086 0-1.465 0 0" style="fill:#231916;fill-opacity:1;fill-rule:nonzero;stroke:none" transform="translate(313.947 123.502)"/><path d="M0 0h-1.12v.937C-1.616.292-2.458-.118-3.285-.118c-1.108 0-2.101.739-2.101 2.191v4.934h1.12v-4.71c0-.911.536-1.372 1.413-1.372.586 0 1.3.488 1.72 1.121v4.961H0Z" style="fill:#231916;fill-opacity:1;fill-rule:nonzero;stroke:none" transform="translate(324.096 121.522)"/><path d="M0 0v-3.245c.293-.45 1.095-.819 1.643-.819 1.056 0 1.897.792 1.897 2.56v.184c0 1.835-.866 2.456-1.859 2.456C1.019 1.136.255.527 0 0m4.749-1.292v-.199c0-2.428-1.324-3.614-2.864-3.614-.727 0-1.478.302-1.885.724v-3.443h-1.134v9.869h1.121v-.871c.394.542 1.133 1.03 1.935 1.03 1.311 0 2.827-.937 2.827-3.496" style="fill:#231916;fill-opacity:1;fill-rule:nonzero;stroke:none" transform="translate(327.065 126.484)"/><path d="m0 0 .33 1.003C.775.711 1.719.395 2.305.395c.941 0 1.476.541 1.476 1.108 0 .593-.407.897-1.082 1.043l-.828.133C.916 2.89.152 3.483.152 4.685c0 1.226.968 2.031 2.47 2.031.93 0 1.771-.318 2.178-.609l-.344-.975c-.434.305-1.133.594-1.757.594-.803 0-1.413-.343-1.413-1.016 0-.647.382-.91.981-1.003l.903-.171c1.096-.198 1.758-.872 1.758-1.98 0-1.267-1.07-2.19-2.611-2.19C1.464-.634.509-.331 0 0" style="fill:#231916;fill-opacity:1;fill-rule:nonzero;stroke:none" transform="translate(332.988 121.972)"/><path d="M343.075 131.034h1.146v-9.538h-1.146z" style="fill:#231916;fill-opacity:1;fill-rule:nonzero;stroke:none"/><path d="M0 0h1.095v-.962c.573.673 1.413 1.08 2.241 1.08 1.121 0 2.14-.738 2.14-2.176V-7.02H4.354v4.71c0 .86-.572 1.388-1.451 1.388-.598 0-1.311-.463-1.795-1.11V-7.02H0Z" style="fill:#231916;fill-opacity:1;fill-rule:nonzero;stroke:none" transform="translate(346.118 128.529)"/><path d="m0 0 .33 1.003C.776.711 1.719.395 2.305.395c.942 0 1.476.541 1.476 1.108 0 .593-.407.897-1.082 1.043l-.827.133c-.956.211-1.72.804-1.72 2.006 0 1.226.968 2.031 2.47 2.031.931 0 1.771-.318 2.178-.609l-.344-.975c-.433.305-1.133.594-1.757.594-.803 0-1.413-.343-1.413-1.016 0-.647.382-.91.981-1.003l.903-.171c1.095-.198 1.758-.872 1.758-1.98 0-1.267-1.071-2.19-2.611-2.19C1.464-.634.509-.331 0 0" style="fill:#231916;fill-opacity:1;fill-rule:nonzero;stroke:none" transform="translate(353.072 121.972)"/><path d="M0 0v4.037h-1.107v.989H0v1.783h1.134V5.026h2.024v-.989H1.134V.211c0-.831.344-1.241 1.044-1.241.331 0 .955.174 1.247.384l.217-.99c-.33-.239-1.082-.45-1.745-.45C.854-2.086 0-1.465 0 0" style="fill:#231916;fill-opacity:1;fill-rule:nonzero;stroke:none" transform="translate(360.101 123.502)"/><path d="M364.941 128.569h1.134v-7.061h-1.134zm-.025 2.652h1.171v-1.292h-1.171z" style="fill:#231916;fill-opacity:1;fill-rule:nonzero;stroke:none"/><path d="M0 0v4.037h-1.107v.989H0v1.783h1.134V5.026h2.024v-.989H1.134V.211c0-.831.344-1.241 1.044-1.241.331 0 .955.174 1.247.384l.217-.99c-.33-.239-1.082-.45-1.745-.45C.854-2.086 0-1.465 0 0" style="fill:#231916;fill-opacity:1;fill-rule:nonzero;stroke:none" transform="translate(368.571 123.502)"/><path d="M0 0h-1.12v.937A2.805 2.805 0 0 0-3.285-.118c-1.108 0-2.101.739-2.101 2.191v4.934h1.121v-4.71c0-.911.535-1.372 1.412-1.372.586 0 1.3.488 1.72 1.121v4.961H0Z" style="fill:#231916;fill-opacity:1;fill-rule:nonzero;stroke:none" transform="translate(378.72 121.522)"/><path d="M0 0v4.037h-1.107v.989H0v1.783h1.134V5.026h2.024v-.989H1.134V.211c0-.831.344-1.241 1.044-1.241.331 0 .955.174 1.247.384l.217-.99c-.33-.239-1.082-.45-1.745-.45C.854-2.086 0-1.465 0 0" style="fill:#231916;fill-opacity:1;fill-rule:nonzero;stroke:none" transform="translate(381.255 123.502)"/><path d="M0 0h3.552c-.013 1.399-.765 2.046-1.719 2.046C1.069 2.046.102 1.437 0 0m-1.172-.845v.265c0 2.428 1.451 3.629 3.005 3.629 1.719 0 2.839-1.201 2.839-3.353V-.95H.013c.025-1.636.966-2.335 2.202-2.335.802 0 1.642.356 2.05.674l.331-.912c-.433-.382-1.451-.818-2.521-.818-2.012 0-3.247 1.412-3.247 3.496" style="fill:#231916;fill-opacity:1;fill-rule:nonzero;stroke:none" transform="translate(386.567 125.679)"/><path d="M0 0c-1.351 1.603-1.351 3.163 0 4.771l17.912 21.157c.784.93.901 1.859.664 2.367-.24.517-.828.626-1.276.626H7.76c-2.934 0-3.797-.64-5.938-3.157l-12.199-14.407a17.82 17.82 0 0 1-.888-1.114v16.802a1.875 1.875 0 0 1-1.875 1.876h-9.277a1.875 1.875 0 0 1-1.875-1.876v-50.75c0-1.036.839-1.875 1.875-1.875h9.277c1.036 0 1.875.839 1.875 1.875v17.711c.239-.34.53-.722.905-1.2L1.773-22.439c2.02-2.51 2.926-3.141 5.92-3.141h10.514c.452 0 1.04.105 1.278.605.286.607.024 1.549-.668 2.394z" style="fill:#989898;fill-opacity:1;fill-rule:nonzero;stroke:none" transform="translate(229.148 203.032)"/><path d="M0 0h-9.192a1.874 1.874 0 0 1-1.875-1.875v-50.749c0-1.036.838-1.876 1.875-1.876H0c1.035 0 1.875.84 1.875 1.876v50.749C1.875-.84 1.035 0 0 0" style="fill:#989898;fill-opacity:1;fill-rule:nonzero;stroke:none" transform="translate(389.036 231.952)"/><path d="M0 0h-17.704c-2.715 0-4.465 1.751-4.465 4.462v2.249c0 2.711 1.75 4.464 4.465 4.464l28.61-.003c.02 0 .039.002.059.003a1.872 1.872 0 0 1 1.815 1.861l.001.011v3.271l-.001.011v3.467a1.875 1.875 0 0 1-1.875 1.875h-30.33c-9.088 0-14.961-5.951-14.961-15.159V4.333c0-8.969 5.873-14.763 14.961-14.763h17.707c2.467 0 4.466-2 4.466-4.466v-2.975a4.465 4.465 0 0 0-4.465-4.465H-30.34a1.873 1.873 0 0 1-1.866-1.798c-.001-.025-.004-.051-.004-.077v-3.27c0-.027.003-.052.004-.078v-3.399a1.876 1.876 0 0 1 1.871-1.871H0c9.09 0 14.96 5.95 14.96 15.158v2.508C14.96-5.951 9.09 0 0 0" style="fill:#989898;fill-opacity:1;fill-rule:nonzero;stroke:none" transform="translate(353.395 210.281)"/><path d="M0 0c1.43 0 2.83-.132 4.202-.357-.054.048-.104.1-.158.15-5.691 5.171-13.893 8.384-21.403 8.384-7.077 0-13.687-2.233-19.116-6.456-3.596-2.798-8.303-7.419-10.301-13.549-1.957-6.003.295-13.073 5.019-15.762 1.278-.727 3.154-1.042 4.776-1.042.593 0 1.152.042 1.635.121 4.437.727 6.616 4.981 8.722 9.095.214.417.429.827.645 1.239C-21.342-7.429-11.457 0 0 0" style="fill:#00666f;fill-opacity:1;fill-rule:nonzero;stroke:none" transform="translate(299.134 227.848)"/><path d="M0 0s-.217 1.253-.363 1.869c-1.096 4.628-3.631 8.862-7.41 12.35a25.939 25.939 0 0 1-4.203.357c-11.457 0-21.341-7.429-25.979-18.177.101.195.202.395.305.587.574 1.073 1.347 2.442 2.241 3.525 3.873 4.695 9.156 7.566 14.701 8.061.568.05 1.139.084 1.712.084 6.922 0 13.388-3.608 17.739-9.901L.439-3.698S.414-2.445 0 0" style="fill:#00a670;fill-opacity:1;fill-rule:nonzero;stroke:none" transform="translate(311.109 213.272)"/><path d="M0 0c-1.43 0-2.829.132-4.202.357.054-.048.104-.1.159-.149C1.647-4.964 9.849-8.177 17.36-8.177c7.077 0 13.686 2.233 19.116 6.456 3.596 2.798 8.302 7.419 10.301 13.549 1.956 6.003-.295 13.073-5.019 15.762-1.279.728-3.155 1.042-4.777 1.042-.593 0-1.152-.042-1.635-.121-4.437-.727-6.616-4.981-8.722-9.095-.214-.417-.429-.827-.644-1.238C21.343 7.429 11.457 0 0 0" style="fill:#00666f;fill-opacity:1;fill-rule:nonzero;stroke:none" transform="translate(264.066 181.557)"/><path d="M0 0s.218-1.253.363-1.869c1.096-4.628 3.632-8.861 7.41-12.35a25.939 25.939 0 0 1 4.203-.357c11.457 0 21.342 7.429 25.98 18.178-.102-.196-.202-.396-.306-.588-.574-1.073-1.346-2.442-2.24-3.525-3.874-4.695-9.156-7.566-14.702-8.06a18.774 18.774 0 0 0-1.711-.085c-6.923 0-13.389 3.609-17.74 9.901L-.439 3.698S-.414 2.445 0 0" style="fill:#00a670;fill-opacity:1;fill-rule:nonzero;stroke:none" transform="translate(252.09 196.133)"/><path d="M0 0h-9.258c-.756 0-1.301-.522-1.301-1.197 0-.719.545-1.241 1.301-1.241H0c.777 0 1.344.522 1.344 1.241C1.344-.522.777 0 0 0m-13.351 7.491v2.33c4.093.022 7.011 1.307 7.179 2.83v.023h-6.886v2.351H3.863v-2.351h-6.907v-.023c.19-1.523 3.107-2.808 7.2-2.83v-2.33C-.21 7.557-3.442 8.71-4.597 10.54c-1.154-1.83-4.387-2.983-8.754-3.049M4.976 4.116H-3.17V2.309H.715c2.078 0 3.463-1.656 3.463-3.55 0-1.938-1.385-3.571-3.463-3.571H-9.907c-2.078 0-3.465 1.633-3.465 3.571 0 1.894 1.387 3.55 3.465 3.55h3.862v1.807h-8.125v2.395H4.976Z" style="fill:#231916;fill-opacity:1;fill-rule:nonzero;stroke:none" transform="translate(218.207 142.737)"/><path d="M0 0c4.24.305 7.452 3.44 7.452 6.25v2.155h2.981V6.25c0-2.81 3.296-5.945 7.453-6.25v-2.613c-4.157.152-7.726 2.417-8.944 5.051C7.725-.196 4.156-2.461 0-2.613Zm-.63-10.91v2.679h8.103v5.248h2.939v-5.248h8.104v-2.679z" style="fill:#231916;fill-opacity:1;fill-rule:nonzero;stroke:none" transform="translate(225.704 149.378)"/><path d="M264.919 143.215h-2.645v14.787h2.645zm-12.049 8.863h-3.548v-3.376h3.548zm-2.247-11.563h14.611v-2.527h-17.57v6.643h2.959zm4.807 10.06v-4.398h-8.731v11.519h2.623v-3.091h3.548v3.091h2.56v-4.55h2.604v4.856h2.624v-14.787h-2.624v7.36z" style="fill:#231916;fill-opacity:1;fill-rule:nonzero;stroke:none"/><path d="M0 0v2.679h4.575v8.123h2.94V-9.212h-2.94V0Zm-10.791-5.118c2.268 1.111 4.933 3.898 4.933 8.776v2.047h-4.723v2.569h4.723v2.789h2.897V8.274h4.702V5.705h-4.702V3.658c0-4.878 2.646-7.665 4.934-8.776v-3.288C-.673-7.383-3.359-5.009-4.409-2.091c-1.05-2.918-3.758-5.292-6.382-6.315z" style="fill:#231916;fill-opacity:1;fill-rule:nonzero;stroke:none" transform="translate(278.127 147.2)"/><path d="M303.697 158.002h2.981v-20.014h-2.981zm-15.136-16.595c5.564 1.372 8.944 5.532 8.922 13.111h-8.816v2.677h11.672v-2.243c0-9.777-4.682-15.025-11.778-16.376z" style="fill:#231916;fill-opacity:1;fill-rule:nonzero;stroke:none"/><path d="M0 0v1.59h-11.167V-.457zm-6.97 12.479c0 1.437-1.154 2.22-2.644 2.22-1.512 0-2.645-.783-2.645-2.22v-1.264c0-1.438 1.133-2.199 2.645-2.199 1.49 0 2.644.761 2.644 2.199zM0 3.92v1.808h2.938v-8.711H0v.61l-14.106-.61v8.711h2.939V3.92Zm0 13.11h2.938V6.424H0v4.16h-4.24c-.357-2.592-2.666-3.92-5.396-3.92-2.98 0-5.436 1.567-5.436 4.638v1.09c0 3.07 2.456 4.66 5.436 4.66 2.709 0 4.996-1.328 5.374-3.877H0Z" style="fill:#231916;fill-opacity:1;fill-rule:nonzero;stroke:none" transform="translate(324.88 140.972)"/><path d="M0 0h-4.197v-2.613H0Zm-12.259-2.374c0-1.524 1.133-2.329 2.645-2.329 1.491 0 2.645.805 2.645 2.329v2.353c0 1.501-1.154 2.351-2.645 2.351-1.512 0-2.645-.85-2.645-2.351zm1.196-10.365H3.296v-2.527h-17.318v6.751h2.959zm-4.008 10.365v2.353c0 3.135 2.456 4.791 5.436 4.791 2.1 0 3.926-.829 4.849-2.396H0v2.374h2.939V-9.756H0v4.77h-4.933c-.945-1.438-2.708-2.157-4.702-2.157-2.98 0-5.436 1.612-5.436 4.769" style="fill:#231916;fill-opacity:1;fill-rule:nonzero;stroke:none" transform="translate(345.917 153.254)"/><path d="m0 0 .735 6.359h-13.96V8.95h17.13L2.918 0Zm-6.213-10.845v7.121h-8.02v2.658H4.913v-2.658h-8.145v-7.121z" style="fill:#231916;fill-opacity:1;fill-rule:nonzero;stroke:none" transform="translate(365.526 148.615)"/><path d="M0 0v1.721h-6.045v2.264H0v11.869h2.939V0Zm-6.401 11.128c.63 0 1.174.501 1.174 1.111 0 .654-.544 1.154-1.174 1.154h-4.367c-.651 0-1.197-.5-1.197-1.154 0-.61.546-1.111 1.197-1.111zm-7.516-15.287v6.271h2.834v-3.897H3.255v-2.374zm2.498 13.11c-1.91 0-3.316 1.481-3.316 3.331 0 1.852 1.406 3.332 3.316 3.332h5.626c1.889 0 3.317-1.48 3.317-3.332 0-1.85-1.428-3.331-3.317-3.331zm.399-7.797.735 4.247h-5.438v2.396H-.86V5.401h-6.592l-.735-4.247Z" style="fill:#231916;fill-opacity:1;fill-rule:nonzero;stroke:none" transform="translate(387.968 142.148)"/></g></svg>