<svg xmlns="http://www.w3.org/2000/svg" xml:space="preserve" width="521.1488" height="534.35785" viewBox="0 0 521.14881 534.35784"><defs><radialGradient id="a" cx="0" cy="0" r="1" fx="0" fy="0" gradientTransform="matrix(77.53624 0 0 -77.53622 291.964 560.159)" gradientUnits="userSpaceOnUse" spreadMethod="pad"><stop offset="0" style="stop-opacity:1;stop-color:#0078b9"/><stop offset="0.880005" style="stop-opacity:1;stop-color:#0078b9"/><stop offset="1" style="stop-opacity:1;stop-color:#00aeef"/></radialGradient></defs><g style="stroke-width:.566733"><g style="stroke-width:.566733"><path d="M0 0c-1.972-3.365-3.844-6.572-8.242-4.006-2.718 1.594-2.932 3.729-1.231 6.404L-6.861.869c-.99-1.695-1.061-2.51-.271-2.965 1.502-.89 2.52.412 4.435 3.68C-.79 4.85-.157 6.373-1.658 7.252c-1.239.715-2.108-.893-2.734-1.883l-2.626 1.537c1.986 3.41 3.993 3.713 6.477 2.256C3.85 6.59 1.949 3.338 0 0" style="fill:#6d6f71;fill-opacity:1;fill-rule:nonzero;stroke:none;stroke-width:.566733" transform="matrix(2.35267 0 0 -2.35267 154.645 503.81)"/></g><g style="stroke-width:.566733"><path d="m0 0-3.565-4.715 2.461-1.857L7.8 5.199 5.345 7.064 1.366 1.811l-2.818 2.136 3.964 5.248-2.455 1.866L-8.847-.715l2.463-1.861 3.559 4.715z" style="fill:#6d6f71;fill-opacity:1;fill-rule:nonzero;stroke:none;stroke-width:.566733" transform="matrix(2.35267 0 0 -2.35267 121.425 486.84)"/></g><g style="stroke-width:.566733"><path d="m0 0 7.288 7.521c1.537 1.584 4.057 2.389 6.754-.23 2.441-2.363 2.384-4.762.448-6.762L7.21-6.982 4.989-4.836l7.153 7.369c1.259 1.313 1.203 2.362.391 3.145-.968.939-2.035.718-3.174-.451L2.221-2.15Z" style="fill:#6d6f71;fill-opacity:1;fill-rule:nonzero;stroke:none;stroke-width:.566733" transform="matrix(2.35267 0 0 -2.35267 75.463 465.097)"/></g><g style="stroke-width:.566733"><path d="m0 0-11.515-9.238-2.604 3.252 5.515 9.463-.028.027-7.972-6.395-1.799 2.246 11.514 9.241 2.541-3.174-5.9-9.899.028-.037 8.42 6.758z" style="fill:#6d6f71;fill-opacity:1;fill-rule:nonzero;stroke:none;stroke-width:.566733" transform="matrix(2.35267 0 0 -2.35267 95.84 436.098)"/></g><g style="stroke-width:.566733"><path d="M0 0c-1.188-.697-2.093-1.518-1.238-2.91.996-1.641 3.217-.285 5.658 1.213C8.362.709 8.825 1.518 7.899 3.018c-.262.445-.654.847-1.039 1.164L4.07 2.479l.876-1.436L3.011-.145.526 3.918l6.377 3.908c.576-.631 1.957-2.256 2.598-3.299 2.711-4.429 1.188-6.056-3.587-8.978-3.174-1.945-6.498-3.76-9.131.537-1.587 2.588-1.117 5.078 1.615 6.531z" style="fill:#6d6f71;fill-opacity:1;fill-rule:nonzero;stroke:none;stroke-width:.566733" transform="matrix(2.35267 0 0 -2.35267 47.553 410.099)"/></g><g style="stroke-width:.566733"><path d="m0 0-13.437-6.121-2.27 4.988c-.975 2.143-1.167 4.19 1.701 5.492 1.545.704 3.004.452 4-.947l.035.026c-.626 2.113.42 3.222 2.264 4.052 3.401 1.551 4.903-1.334 5.444-2.527zm-9.23-.809-.854 1.879c-.278.61-1.082 1.282-2.377.694-.989-.448-1.409-1.455-.976-2.401l.784-1.74zm5.885 2.676-.718 1.555c-.264.605-.897 1.933-2.776 1.076-1.188-.537-1.708-1.314-1.067-2.734l.747-1.639z" style="fill:#6d6f71;fill-opacity:1;fill-rule:nonzero;stroke:none;stroke-width:.566733" transform="matrix(2.35267 0 0 -2.35267 61.366 385.901)"/></g><g style="stroke-width:.566733"><path d="m0 0 9.985 3.141c2.114.662 4.704.179 5.835-3.416 1.019-3.239-.163-5.323-2.818-6.163L3.018-9.584l-.925 2.953 9.785 3.082c1.736.545 2.192 1.506 1.851 2.572C13.322.309 12.276.625 10.718.139L.925-2.943Z" style="fill:#6d6f71;fill-opacity:1;fill-rule:nonzero;stroke:none;stroke-width:.566733" transform="matrix(2.35267 0 0 -2.35267 9.428 347.257)"/></g><g style="stroke-width:.566733"><path d="m0 0-.641 3.338L6.641.523l7.223 5.59.648-3.42-6.769-4.892.007-.039 7.431 1.425.583-3.035L1.267-6.627.684-3.59 6.89-2.406l-.008.039Z" style="fill:#6d6f71;fill-opacity:1;fill-rule:nonzero;stroke:none;stroke-width:.566733" transform="matrix(2.35267 0 0 -2.35267 4.203 322.494)"/></g><g style="stroke-width:.566733"><path d="m0 0-14.761-.342-.099 4.164 10.134 4.166v.043l-10.219-.242-.072 2.887 14.761.338.092-4.065-10.696-4.281v-.039l10.796.25z" style="fill:#6d6f71;fill-opacity:1;fill-rule:nonzero;stroke:none;stroke-width:.566733" transform="matrix(2.35267 0 0 -2.35267 35.33 294.147)"/></g><g style="stroke-width:.566733"><path d="M0 0v-.039l6.199-2.065L6.505.83Zm11.244-7.148L-3.011-1.551l.413 4.045 15.102 2.459-.341-3.234-3.338-.473-.434-4.193 3.167-1.17z" style="fill:#6d6f71;fill-opacity:1;fill-rule:nonzero;stroke:none;stroke-width:.566733" transform="matrix(2.35267 0 0 -2.35267 8.323 247.903)"/></g><g style="stroke-width:.566733"><path d="m0 0 2.405-.488-.69-3.367 12.056-2.473-.62-3.027L1.096-6.879l-.698-3.363L-2-9.75Z" style="fill:#6d6f71;fill-opacity:1;fill-rule:nonzero;stroke:none;stroke-width:.566733" transform="matrix(2.35267 0 0 -2.35267 8.24 208.486)"/></g><g style="stroke-width:.566733"><path d="m0 0-14.184 4.078-.854-2.965L-.854-2.973Z" style="fill:#6d6f71;fill-opacity:1;fill-rule:nonzero;stroke:none;stroke-width:.566733" transform="matrix(2.35267 0 0 -2.35267 45.393 205.247)"/></g><g style="stroke-width:.566733"><path d="M0 0c-3.645 1.406-7.117 2.756-5.274 7.495 1.836 4.754 5.309 3.413 8.946 1.993 3.608-1.394 7.109-2.754 5.273-7.506C7.109-2.756 3.601-1.395 0 0m2.548 6.577c-3.524 1.363-5.132 1.744-5.765.125-.627-1.62.819-2.421 4.341-3.79 3.53-1.371 5.131-1.752 5.765-.121.626 1.611-.819 2.408-4.341 3.786" style="fill:#6d6f71;fill-opacity:1;fill-rule:nonzero;stroke:none;stroke-width:.566733" transform="matrix(2.35267 0 0 -2.35267 30.71 193.304)"/></g><g style="stroke-width:.566733"><path d="m0 0-12.953 7.06 1.993 3.665L-.107 9.28l.014.035-8.967 4.89 1.373 2.529L5.28 9.672 3.33 6.099-8.078 7.732l-.022-.039 9.488-5.16Z" style="fill:#6d6f71;fill-opacity:1;fill-rule:nonzero;stroke:none;stroke-width:.566733" transform="matrix(2.35267 0 0 -2.35267 58.018 171.751)"/></g><g style="stroke-width:.566733"><path d="m0 0-.021-.028 4.327-4.894 1.729 2.385zm6.142-11.817L-3.388.174l2.392 3.288 14.298-5.441-1.915-2.629-3.131 1.263-2.47-3.409 2.15-2.598z" style="fill:#6d6f71;fill-opacity:1;fill-rule:nonzero;stroke:none;stroke-width:.566733" transform="matrix(2.35267 0 0 -2.35267 57.917 117.954)"/></g><g style="stroke-width:.566733"><path d="m0 0-10.953 9.907 2.078 2.284L.249 3.936 3.352 7.37l1.822-1.651Z" style="fill:#6d6f71;fill-opacity:1;fill-rule:nonzero;stroke:none;stroke-width:.566733" transform="matrix(2.35267 0 0 -2.35267 91.84 119.965)"/></g><g style="stroke-width:.566733"><path d="m0 0 6.669-8.067c1.409-1.702 1.935-4.295-.969-6.687-2.611-2.163-4.995-1.857-6.767.292l-6.669 8.07 2.378 1.965 6.54-7.91c1.16-1.402 2.213-1.459 3.081-.74 1.039.86.939 1.942-.1 3.198l-6.54 7.914z" style="fill:#6d6f71;fill-opacity:1;fill-rule:nonzero;stroke:none;stroke-width:.566733" transform="matrix(2.35267 0 0 -2.35267 109.503 55.526)"/></g><g style="stroke-width:.566733"><path d="m0 0-7.899 12.479 3.522 2.228 8.79-6.541.035.025-5.472 8.633 2.441 1.544L9.302 5.896l-3.43-2.177-9.181 6.964-.036-.019 5.78-9.116z" style="fill:#6d6f71;fill-opacity:1;fill-rule:nonzero;stroke:none;stroke-width:.566733" transform="matrix(2.35267 0 0 -2.35267 136.175 78.917)"/></g><g style="stroke-width:.566733"><path d="m0 0-6.683 13.166 2.755 1.398L2.755 1.402Z" style="fill:#6d6f71;fill-opacity:1;fill-rule:nonzero;stroke:none;stroke-width:.566733" transform="matrix(2.35267 0 0 -2.35267 163.484 62.476)"/></g><g style="stroke-width:.566733"><path d="m0 0 3.352 1.359L1.409 16.5l-2.825-1.143L.249 4.44l-.043-.013-6.163 9.081-2.975-1.207Z" style="fill:#6d6f71;fill-opacity:1;fill-rule:nonzero;stroke:none;stroke-width:.566733" transform="matrix(2.35267 0 0 -2.35267 180.68 54.237)"/></g><g style="stroke-width:.566733"><path d="m0 0-4.085 14.181 7.736 2.234.633-2.191-4.775-1.364L.52 9.359l4.398 1.267.626-2.178-4.398-1.267 1.196-4.149 4.931 1.42.626-2.171Z" style="fill:#6d6f71;fill-opacity:1;fill-rule:nonzero;stroke:none;stroke-width:.566733" transform="matrix(2.35267 0 0 -2.35267 200.136 46.729)"/></g><g style="stroke-width:.566733"><path d="m0 0 .782.14C3.124.552 3.217-.946 3.529-2.687c.171-.942.257-1.939.826-2.75l2.975.523c-.384.552-.933 3.288-1.096 4.21-.469 2.619-2.469 2.427-3.153 2.388v.043c1.915.675 2.392 2.188 2.065 4.042-.442 2.48-2.007 3.572-4.079 3.199l-5.615-.996 2.576-14.536 3.039.543zm-1.11 6.273 1.344.24c.968.174 1.645-.242 1.894-1.641.163-.918.035-2.185-1.175-2.398l-1.351-.243Z" style="fill:#6d6f71;fill-opacity:1;fill-rule:nonzero;stroke:none;stroke-width:.566733" transform="matrix(2.35267 0 0 -2.35267 227.78 24.92)"/></g><g style="stroke-width:.566733"><path d="M0 0c-.291 4.629-6.482 3.985-6.66 6.778-.072 1.018.49 1.609 1.48 1.673 1.252.085 1.508-1.025 1.58-2.132l2.996.2c.006 3.095-1.574 4.344-4.576 4.145-3.752-.242-4.726-2.152-4.584-4.462.285-4.384 6.504-4.139 6.676-6.79.065-1.003-.406-1.711-1.445-1.771-1.694-.118-1.836 1.067-1.922 2.472l-3.081-.206c0-2.558.862-4.754 4.682-4.505C-2.512-4.448.25-3.814 0 0" style="fill:#6d6f71;fill-opacity:1;fill-rule:nonzero;stroke:none;stroke-width:.566733" transform="matrix(2.35267 0 0 -2.35267 270.526 25.137)"/></g><g style="stroke-width:.566733"><path d="m0 0 .264 14.761 3.09-.061L3.09-.061Z" style="fill:#6d6f71;fill-opacity:1;fill-rule:nonzero;stroke:none;stroke-width:.566733" transform="matrix(2.35267 0 0 -2.35267 276.352 34.782)"/></g><g style="stroke-width:.566733"><path d="m0 0-.234-2.445-3.416.328-1.166-12.252-3.077.295 1.168 12.248-3.423.328.236 2.444z" style="fill:#6d6f71;fill-opacity:1;fill-rule:nonzero;stroke:none;stroke-width:.566733" transform="matrix(2.35267 0 0 -2.35267 313.622 2.433)"/></g><g style="stroke-width:.566733"><path d="m0 0-1.865 10.228 3.303-.673L2.361 3l3.545 5.65 3.082-.622L3.031-.611 2.006-5.622l-3.026.619Z" style="fill:#6d6f71;fill-opacity:1;fill-rule:nonzero;stroke:none;stroke-width:.566733" transform="matrix(2.35267 0 0 -2.35267 322.367 27.08)"/></g><g style="stroke-width:.566733"><path d="m0 0 2.092 5.533 2.89-1.099-5.224-13.8-2.889 1.093 2.334 6.152-3.31 1.253-2.334-6.156-2.889 1.092L-4.1 7.875l2.891-1.093-2.094-5.526z" style="fill:#6d6f71;fill-opacity:1;fill-rule:nonzero;stroke:none;stroke-width:.566733" transform="matrix(2.35267 0 0 -2.35267 372.361 32.404)"/></g><g style="stroke-width:.566733"><path d="M0 0c4.506-2.366 6.256.957 8.063 4.373 1.822 3.452 3.552 6.743-.946 9.117-4.506 2.377-6.234-.911-8.064-4.37C-2.748 5.708-4.506 2.381 0 0m1.031 1.953c-1.537.808-.974 2.36.791 5.712 1.764 3.345 2.725 4.683 4.262 3.871 1.545-.807.977-2.359-.789-5.704-1.766-3.349-2.727-4.686-4.264-3.879" style="fill:#6d6f71;fill-opacity:1;fill-rule:nonzero;stroke:none;stroke-width:.566733" transform="matrix(2.35267 0 0 -2.35267 387.731 63.053)"/></g><g style="stroke-width:.566733"><path d="M0 0c-3.139 2.171-2.455 4.431-.869 6.444l2.541-1.761C.867 3.522.248 2.513 1.643 1.552c.861-.595 1.666-.327 2.236.498 1.5 2.184-3.516 5.849-1.018 9.469 1.309 1.896 3.258 2.786 6.362.651 2.476-1.708 2.939-3.665 1.011-6.092l-2.47 1.711c.627.915 1.111 1.943.086 2.645-.827.572-1.623.448-2.207-.388C4.057 7.739 9.309 4.409 6.668.595 4.498-2.555 1.936-1.334 0 0" style="fill:#6d6f71;fill-opacity:1;fill-rule:nonzero;stroke:none;stroke-width:.566733" transform="matrix(2.35267 0 0 -2.35267 411.107 77.16)"/></g><g style="stroke-width:.566733"><path d="m0 0 4.199-3.65c2.129-1.848 1.83-3.876.065-5.912-1.104-1.262-3.217-2.942-5.95-.573l-1.73 1.509-3.941-4.536-2.329 2.028zm-1.922-6.921 1.289-1.117c.705-.602 1.836-.26 2.477.48.797.908 1.224 1.889.17 2.8L.848-3.736z" style="fill:#6d6f71;fill-opacity:1;fill-rule:nonzero;stroke:none;stroke-width:.566733" transform="matrix(2.35267 0 0 -2.35267 448.543 60.801)"/></g><g style="stroke-width:.566733"><path d="m0 0 10.539 10.33-2.164 2.206L-2.164 2.202Z" style="fill:#6d6f71;fill-opacity:1;fill-rule:nonzero;stroke:none;stroke-width:.566733" transform="matrix(2.35267 0 0 -2.35267 450.22 109.683)"/></g><g style="stroke-width:.566733"><path d="m0 0-1.871-1.583-2.207 2.626-9.422-7.921-1.992 2.366 9.422 7.921-2.207 2.634 1.873 1.568z" style="fill:#6d6f71;fill-opacity:1;fill-rule:nonzero;stroke:none;stroke-width:.566733" transform="matrix(2.35267 0 0 -2.35267 494.236 107.416)"/></g><g style="stroke-width:.566733"><path d="m0 0-.029.032-6.049-2.441 1.658-2.423zm-13.195-1.833L1.287 3.139 3.586-.214l-9.899-11.653-1.843 2.682 2.234 2.524-2.377 3.476-3.174-1.156z" style="fill:#6d6f71;fill-opacity:1;fill-rule:nonzero;stroke:none;stroke-width:.566733" transform="matrix(2.35267 0 0 -2.35267 497.402 123.53)"/></g><g style="stroke-width:.566733"><path d="m0 0 12.98 7.021 1.467-2.712L3.629-1.552l2.193-4.063-2.156-1.167Z" style="fill:#6d6f71;fill-opacity:1;fill-rule:nonzero;stroke:none;stroke-width:.566733" transform="matrix(2.35267 0 0 -2.35267 483.956 154.43)"/></g><g style="stroke-width:.566733"><path d="M0 0c-.67 5.701 5.664 10.545 5.074 21.85-1.047 20.14-19.599 40.341-51.853 40.341-32.069 0-58.735-23.451-64.073-54.173 4.768-2.2 10.141-3.446 15.92-3.446 2.891 0 5.715.319 8.469.912 3.801 19.254 19.942 33.317 39.861 33.317 18.711 0 27.323-10.447 27.743-17.692.632-10.906-5.586-13.949-5.26-21.504.355-8.281 10.049-12.294 9.131-24.613-.684-9.156-12.575-20.379-31.614-20.379-15.699 0-29.029 8.758-35.847 21.899-4.084-.741-8.248-1.164-12.483-1.164-4.697 0-9.279.484-13.714 1.402 8.435-26.326 32.923-45.455 61.867-45.455 31.564 0 54.849 18.187 56.123 42.246C10.191-10.473.512-4.391 0 0" style="fill:#00aeef;fill-opacity:1;fill-rule:nonzero;stroke:none;stroke-width:.566733" transform="matrix(2.35267 0 0 -2.35267 499.042 372.718)"/></g><g style="stroke-width:.566733"><path d="M283.787 483.131a78.606 78.606 0 0 1 8.176-.428c6.805 0 13.486.875 19.936 2.506a41.214 41.214 0 0 0-7.453 10.162c-4.085-.74-8.249-1.164-12.483-1.164-4.697 0-9.279.484-13.714 1.402 1.409-4.386 3.296-8.551 5.538-12.478" style="fill:url(#a);stroke:none;stroke-width:.566733" transform="matrix(2.35267 0 0 -2.35267 -411.192 1593.421)"/></g><g style="stroke-width:.566733"><path d="M0 0c0-36.395 30.019-66.008 66.912-66.008 14.277 0 27.928 4.278 39.484 12.399 5.43 3.806 6.741 11.308 2.932 16.742-3.814 5.437-11.314 6.742-16.746 2.924-7.492-5.252-16.367-8.032-25.67-8.032-24.041 0-42.096 18.444-42.096 41.975 0 23.543 18.055 41.983 42.096 41.983 8.256 0 16.291-2.223 23.236-6.44 5.672-3.449 13.067-1.641 16.512 4.027 3.445 5.673 1.645 13.068-4.035 16.512-10.703 6.501-23.051 9.949-35.713 9.949C30.019 66.031 0 36.414 0 0" style="fill:#99ca3c;fill-opacity:1;fill-rule:nonzero;stroke:none;stroke-width:.566733" transform="matrix(2.35267 0 0 -2.35267 118.278 275.422)"/></g></g></svg>