<svg xmlns="http://www.w3.org/2000/svg" xml:space="preserve" width="1000px" height="299px" x="0px" y="0px" viewBox="0 0 1000 299"><path fill="#005BAC" d="M618.436 37.663c-7.693 0-10.88 2.734-12.451 9.853l-18.439 113.898h41.388L648.99 37.663h-30.554zM145.965 34.205H110.17c-5.497 0-8.599 1.769-12.311 5.175L56.963 79.209l9.87-45.004H34.416c-7.723 0-10.909 2.769-12.457 9.921h-.005L0 161.414h40.704l11.169-55.212 37.902 55.212h50.675L90.007 89.593l55.958-55.388zM699.822 132.438l16.315-94.774h-30.586c-7.56 0-10.779 2.649-12.372 9.445l-18.485 114.306h97.577l3.74-28.977h-56.189z"/><radialGradient id="a" cx="218.9995" cy="71.2573" r="110.93" gradientUnits="userSpaceOnUse"><stop offset="0" style="stop-color:#00aedc"/><stop offset="0.2" style="stop-color:#00aedc"/><stop offset="1" style="stop-color:#0066b2"/></radialGradient><path fill="url(#a)" d="m480.386 161.431 41.252-83.984.215-2.791 16.191 86.798h42.325L554.37 37.664H515.3c-6.146 0-8.712 1.751-11.423 6.101l-50.924 100.854-36.349-32.846c16.44-4.588 34.733-17.22 39.851-38.428 9.135-37.592-22.654-39.14-33.185-39.14h-58.336c-7.536 0-8.881 1.616-10.462 8.475L343.24 95.411c-28.6-18.598-93.507-56.381-139.182-57.014-11.508-.147-19.897 1.604-28.032 6.599-1.221.768-1.525.7-1.701.655l.633-1.333c4.91-6.011 14.971-15.661 31.84-20.903 0 0 26.987-9.446 63.166 12.542 21.039 12.756 35.19 23.524 48.947 34.891C308.493 27.601 268.094-3.261 221.961.67c-41.857 3.593-74.754 34.496-82.556 73.573 22.299-19.971 65.087-27.056 130.61-4.672 14.706 5.028 28.258 10.463 40.653 16.073 11.322 5.039 22.776 11.033 34.764 17.937 24.677 14.214 52.246 33.987 74.55 57.85h60.404m-95.385-63.907c1.266-6.181 8.102-39.264 9.017-43.67h15.141s15.118-.893 9.729 19.491c-.001 0-6.001 24.179-33.887 24.179z"/><radialGradient id="b" cx="438.1802" cy="979.0557" r="20.3141" gradientTransform="translate(-2180.934 -5291.37) scale(5.4769)" gradientUnits="userSpaceOnUse"><stop offset="0" style="stop-color:#00aedc"/><stop offset="0.2" style="stop-color:#00aedc"/><stop offset="1" style="stop-color:#0066b2"/></radialGradient><path fill="url(#b)" d="M378.64 129.206c-3.266 14.248-6.745 32.208-6.745 32.208h-42.702l9.72-45.71c-9.539-3.107-16.188-4.994-19.256-5.763-7.808 38.97-40.088 70.144-81.866 73.726-27.112 2.316-52.45-7.187-70.889-24.338l-.079-.091s-17.762-16.151-16.389-39.467c1.378-23.987 22.496-33.704 22.496-33.704 24.524-13.208 78.849-14.599 155.665 18.304-.001 0 25.82 10.136 50.045 24.835z"/><g fill="#515457"><path d="M421.191 278.968h4.449v13.722H329.3v-13.722h33.936v-23.259h15.248v23.259h27.329v-31.265h-73.338V233.97h73.338v-20.711h-73.338v-13.733h77.66c3.132 0 5.762 1.209 7.881 3.633 2.118 2.412 3.175 5.479 3.175 9.202v66.607zM477.629 199.525c3.05 0 5.626 1.26 7.751 3.751 2.113 2.509 3.175 5.53 3.175 9.084v22.886h10.547v-35.721h15.254v99.142h-15.254v-49.692h-41.051v29.733h30.888v13.733h-35.334c-3.053 0-5.635-1.248-7.753-3.751-2.119-2.497-3.181-5.531-3.181-9.09v-44.354h30.507v-21.987h-30.507v-13.733h34.958zm43.975 99.142v-99.142h15.378v99.142h-15.378zM581.975 196.604c3.898 0 7.502.593 10.802 1.785 3.305 1.181 6.146 2.842 8.52 4.954a23.733 23.733 0 0 1 5.649 7.56c1.4 2.921 2.102 6.124 2.102 9.599 0 3.648-.701 6.926-2.102 9.847a23.844 23.844 0 0 1-5.649 7.57c-2.373 2.112-5.215 3.751-8.52 4.887-3.3 1.141-6.903 1.723-10.802 1.723s-7.502-.582-10.802-1.723c-3.311-1.136-6.146-2.774-8.52-4.887-2.452-2.124-4.339-4.649-5.649-7.57-1.322-2.921-1.977-6.198-1.977-9.847 0-3.475.654-6.678 1.977-9.599 1.311-2.927 3.197-5.435 5.649-7.56 2.373-2.112 5.209-3.773 8.52-4.954 3.3-1.192 6.903-1.785 10.802-1.785zm-9.277 102.063c-3.729 0-6.655-1.192-8.769-3.554-2.123-2.372-3.186-5.214-3.186-8.52V267.02h72.708v-5.203h-72.708v-13.102h79.951c2.542 0 4.53.746 5.977 2.226 1.436 1.486 2.158 3.452 2.158 5.909v22.372h-72.832v5.718h73.85v13.728h-77.149zm9.277-89.476c-3.475 0-6.271 1.057-8.39 3.169-2.118 2.124-3.175 4.836-3.175 8.142 0 3.479 1.057 6.254 3.175 8.326 2.119 2.08 4.915 3.113 8.39 3.113s6.271-1.033 8.39-3.113c2.112-2.072 3.175-4.847 3.175-8.326 0-3.306-1.063-6.018-3.175-8.142-2.119-2.112-4.916-3.169-8.39-3.169zm51.477 34.191v-43.856h15.378v43.856h-15.378zM728.262 261.551v17.541h41.568v13.729h-98.38v-13.729h41.569v-17.541h-24.281c-3.729 0-6.678-1.182-8.836-3.554-2.158-2.373-3.237-5.249-3.237-8.638v-25.807h72.573v-10.294h-72.573v-13.733h79.815c2.457 0 4.429.745 5.909 2.226 1.485 1.491 2.226 3.452 2.226 5.909v29.614h-72.572v10.554h73.081v13.723h-36.862zM815.834 247.189c-1.61 3.48-3.6 6.553-5.967 9.214a42.073 42.073 0 0 1-7.887 6.927 54.86 54.86 0 0 1-9.4 4.96c-3.305 1.361-6.57 2.373-9.79 3.057v-14.242c3.559-.837 6.887-2.328 9.977-4.44 3.091-2.125 5.779-4.836 8.067-8.136 2.294-3.305 4.09-7.327 5.412-12.078 1.311-4.746 1.967-10.254 1.967-16.52v-2.672h-21.734v-13.733h58.715v13.733h-21.728v2.672c0 6.266.633 11.773 1.898 16.52 1.276 4.751 3.056 8.773 5.345 12.078 2.293 3.3 4.971 6.011 8.072 8.136 3.091 2.112 6.457 3.604 10.096 4.44v14.242a53.28 53.28 0 0 1-9.977-3.057 55.884 55.884 0 0 1-9.333-4.96 41.541 41.541 0 0 1-7.887-6.927c-2.372-2.661-4.316-5.733-5.846-9.214zm46.398-47.664h15.378v99.142h-15.378v-99.142zM898.457 293.204v-13.733H1000v13.733H898.457zm50.957-58.088c-2.281 3.306-5.072 6.316-8.383 9.028-3.3 2.712-6.994 5.039-11.063 6.994a58.647 58.647 0 0 1-12.586 4.445 58.418 58.418 0 0 1-13.221 1.521v-13.853c5.096 0 9.898-.864 14.43-2.61 4.541-1.729 8.496-3.954 11.897-6.672 3.299-2.791 5.921-5.932 7.875-9.4 1.943-3.475 2.915-6.943 2.915-10.418v-14.626h16.271v14.626c0 3.475.949 6.943 2.858 10.418 1.91 3.469 4.52 6.609 7.819 9.4 3.311 2.718 7.197 4.943 11.694 6.672 4.485 1.746 9.355 2.61 14.621 2.61v13.853c-4.498 0-8.938-.503-13.355-1.521a58.968 58.968 0 0 1-12.576-4.445c-3.977-1.955-7.627-4.282-10.938-6.994-3.297-2.711-6.043-5.722-8.258-9.028z"/></g></svg>