<svg xmlns="http://www.w3.org/2000/svg" xml:space="preserve" width="1000px" height="339px" x="0px" y="0px" viewBox="0 0 1000 339"><g fill="#73797C"><path d="M752.778 302.995H779.9v31.2h17.414v-31.2h27.92v31.2h17.421v-31.2h27.402V287.55H752.778zM811.277 284.884c22.772 0 36.609-15.097 36.609-33.746 0-18.623-13.837-33.727-36.609-33.727-22.828 0-36.678 15.104-36.678 33.727.001 18.649 13.85 33.746 36.678 33.746zm0-52.369c11.481 0 18.827 8.346 18.827 18.623 0 10.266-7.346 18.618-18.827 18.618-11.512 0-18.839-8.353-18.839-18.618 0-10.278 7.328-18.623 18.839-18.623zM1000 279.419h-48.646v-5.845h36.602V260.06H914.58v-4.87h73.375v-13.52H914.58v-5.401h73.375v-13.526H911.16c-7.94 0-14.368 5.56-14.368 12.393v24.482l.038.032c.006.139.031.271.038.411h-.076l.083.089c.43 7.491 5.762 13.425 12.316 13.425h24.95v5.845h-48.526v15.433h26.306c-1.558 3.388-2.477 7.346-2.477 12.044 0 19.854 15.313 31.929 34.215 31.929 18.89 0 34.157-12.075 34.157-31.929 0-4.698-.912-8.656-2.469-12.044H1000v-15.434zm-56.379 44.676c-9.163 0-16.604-7.352-16.604-16.414 0-9.1 7.44-16.451 16.604-16.451 9.195 0 16.629 7.352 16.629 16.451 0 9.062-7.434 16.414-16.629 16.414zM585.46 223.23h17.206v110.8H585.46zM655.809 273.169c16.084 0 29.148-9.859 29.148-26.736 0-16.882-13.064-26.754-29.148-26.754-16.092 0-29.124 9.872-29.124 26.754 0 16.877 13.032 26.736 29.124 26.736zm0-39.54c7.143 0 12.956 5.737 12.956 12.767 0 7.041-5.813 12.766-12.956 12.766-7.15 0-12.957-5.725-12.957-12.766 0-7.03 5.806-12.767 12.957-12.767zM713.029 222.743h17.224v49.33h-17.224zM472.02 238.676c0-.133.031-.272.031-.411 0-7.929-5.547-14.382-12.393-14.382h-87.167v15.42h82.342v23.202h-82.342v15.426h82.342v34.873h-30.181v-25.849H406.51v25.849h-37.577v15.762h108.21v-15.762h-5.123v-74.128zM560.744 263.29h-11.791v-25.557c0-7.922-5.528-14.35-12.336-14.375h-37.792v15.413h32.916v24.52h-32.916V313.179c0 7.947 5.56 14.4 12.411 14.4h38.198V312.12h-33.397v-33.404h44.707v55.314h17.212v-110.8h-17.212v40.06zM648.532 311.962h81.721v-24.925c0-5.623-3.571-9.112-9.207-9.112h-89.713v14.824h81.696v5.541h-81.696v21.683c0 8.505 6.085 13.564 13.564 13.564h86.495v-15.413h-82.86v-6.162z"/></g><path fill="#005BAB" d="M693.157 42.02c-8.625 0-12.196 3.064-13.957 11.044l-20.656 127.65h46.379l22.48-138.694h-34.246zM163.606 38.131h-40.123c-6.18 0-9.638 1.989-13.805 5.82L63.844 88.576 74.9 38.131H38.564c-8.65 0-12.222 3.116-13.957 11.12L0 180.714h45.632l12.5-61.881 42.479 61.881h56.815l-56.536-80.512 62.716-62.071zM784.384 148.241 802.672 42.02h-34.284c-8.473 0-12.083 2.97-13.868 10.581l-20.732 128.113h109.388l4.192-32.473h-62.984z"/><radialGradient id="a" cx="268.4009" cy="1015.5557" r="3.5011" gradientTransform="translate(-9286.844 -35987.773) scale(35.515)" gradientUnits="userSpaceOnUse"><stop offset="0.2" style="stop-color:#00a2da"/><stop offset="1" style="stop-color:#005bab"/></radialGradient><path fill="url(#a)" d="m538.429 180.733 46.239-94.127.229-3.135 18.149 97.287h47.442L621.359 42.02h-43.796c-6.902 0-9.765 1.963-12.805 6.839L507.678 161.9l-40.743-36.824c18.428-5.142 38.933-19.295 44.67-43.068 10.233-42.136-25.394-43.878-37.197-43.878H409.03c-8.448 0-9.968 1.824-11.741 9.524l-12.576 59.076C352.658 85.896 279.91 43.55 228.718 42.841c-12.906-.171-22.315 1.805-31.435 7.384-1.368.861-1.71.798-1.9.747l.723-1.488c5.496-6.75 16.769-17.573 35.664-23.443 0 0 30.257-10.581 70.811 14.065 23.582 14.299 39.439 26.369 54.865 39.11C345.756 30.74 300.491-3.854 248.767.553c-46.898 4.021-83.779 38.667-92.531 82.462 25.001-22.379 72.964-30.327 146.408-5.237a515.147 515.147 0 0 1 45.568 18.01c12.678 5.648 25.533 12.38 38.958 20.112 27.66 15.933 58.563 38.096 83.552 64.833h67.707m-106.906-71.627c1.405-6.928 9.08-44.004 10.106-48.951H458.6s16.934-.994 10.893 21.854c0 0-6.713 27.097-37.97 27.097z"/><radialGradient id="b" cx="370.4224" cy="780.4072" r="3.5112" gradientTransform="translate(-12910.156 -27636.96) scale(35.515)" gradientUnits="userSpaceOnUse"><stop offset="0.2" style="stop-color:#00a2da"/><stop offset="1" style="stop-color:#005bab"/></radialGradient><path fill="url(#b)" d="M424.393 144.625c-3.66 15.964-7.573 36.089-7.573 36.089h-47.849l10.892-51.229c-10.689-3.483-18.149-5.598-21.568-6.453-8.765 43.675-44.948 78.618-91.771 82.64-30.396 2.584-58.791-8.068-79.447-27.287l-.102-.102s-19.909-18.104-18.364-44.245c1.545-26.875 25.216-37.767 25.216-37.767 27.496-14.805 88.377-16.357 174.474 20.511-.002-.001 28.925 11.366 56.092 27.843z"/></svg>