<svg xmlns="http://www.w3.org/2000/svg" xmlns:xlink="http://www.w3.org/1999/xlink" xml:space="preserve" width="1000px" height="336px" x="0px" y="0px" viewBox="0 0 1000 336"><path fill="#005BAC" d="M594.322 36.14c-7.383 0-10.414 2.604-11.929 9.437L564.72 154.77h39.659l19.229-118.63h-29.286zM141.449 32.825H107.13c-5.258 0-8.237 1.708-11.786 4.962L56.143 75.982 65.6 32.825H34.534c-7.413 0-10.464 2.644-11.949 9.518L1.546 154.75h39.008l10.708-52.898 36.323 52.898h48.566L87.818 85.928l53.631-53.103zM672.338 126.988l15.649-90.849H658.66c-7.25 0-10.331 2.542-11.847 9.05l-17.745 109.58h93.535l3.6-27.781h-53.865z"/><defs><path id="a" d="M379.209 51.678h14.511s14.501-.875 9.325 18.67c0 0-5.756 23.166-32.47 23.166 1.21-5.92 7.759-37.626 8.634-41.836M214.289.691c-40.126 3.437-71.64 33.049-79.134 70.532 21.375-19.158 62.396-25.951 125.199-4.515a435.592 435.592 0 0 1 38.968 15.437c10.84 4.82 21.822 10.596 33.313 17.186 23.663 13.625 50.093 32.602 71.468 55.439h57.901l39.537-80.496.193-2.685 15.527 83.203h40.574L532.912 36.14H495.47c-5.897 0-8.349 1.688-10.952 5.857l-48.82 96.665-34.829-31.482c15.742-4.412 33.283-16.514 38.205-36.832 8.725-36.039-21.731-37.523-31.829-37.523h-55.898c-7.229 0-8.521 1.545-10.047 8.135L330.551 91.5c-27.426-17.837-89.639-54.059-133.427-54.648-11.022-.163-19.056 1.545-26.866 6.325-1.18.732-1.443.671-1.637.61l.61-1.281c4.718-5.755 14.358-14.989 30.517-20.033 0 0 25.88-9.03 60.556 12.04 20.165 12.223 33.73 22.555 46.919 33.456C297.807 28.88 262.877.366 221.866.346a86.071 86.071 0 0 0-7.577.345"/></defs><clipPath id="b"><use xlink:href="#a" overflow="visible"/></clipPath><radialGradient id="c" cx="-63.4927" cy="448.1387" r="10.4134" gradientTransform="matrix(8.4203 0 0 -8.4203 746.082 3841.78)" gradientUnits="userSpaceOnUse"><stop offset="0" style="stop-color:#00a3db"/><stop offset="0.2" style="stop-color:#00a3db"/><stop offset="1" style="stop-color:#005bac"/></radialGradient><path fill="url(#c)" d="M135.155.345h422.67v154.446h-422.67z" clip-path="url(#b)"/><defs><path id="d" d="M167.299 82.531s-20.236 9.314-21.568 32.295c-1.312 22.373 15.711 37.83 15.711 37.83l.062.121c17.693 16.434 41.977 25.545 67.959 23.328 40.055-3.459 70.999-33.334 78.483-70.695 2.929.752 9.305 2.563 18.446 5.533l-9.314 43.826h40.939s3.325-17.225 6.457-30.871c-23.226-14.096-47.977-23.816-47.977-23.816-43.909-18.793-80.141-25.931-107.241-25.931-18.335 0-32.48 3.275-41.957 8.38"/></defs><clipPath id="e"><use xlink:href="#d" overflow="visible"/></clipPath><radialGradient id="f" cx="-63.3213" cy="448.0811" r="10.412" gradientTransform="matrix(8.4475 0 0 -8.4475 746.316 3853.013)" gradientUnits="userSpaceOnUse"><stop offset="0" style="stop-color:#00a3db"/><stop offset="0.2" style="stop-color:#00a3db"/><stop offset="1" style="stop-color:#005bac"/></radialGradient><path fill="url(#f)" d="M144.419 74.151h220.055v104.171H144.419z" clip-path="url(#e)"/><path fill="#585F64" d="M240.484 204.943h19.118v123.064h-19.118zM318.653 216.455c7.921 0 14.389 6.346 14.389 14.195 0 7.83-6.468 14.217-14.389 14.217-7.952 0-14.39-6.387-14.39-14.217.001-7.849 6.438-14.195 14.39-14.195m0 43.949c17.877 0 32.357-10.961 32.357-29.754 0-18.752-14.48-29.672-32.357-29.672-17.888 0-32.419 10.92-32.419 29.672 0 18.793 14.532 29.754 32.419 29.754M382.219 204.395h19.107v54.77h-19.107zM114.522 222.049v-.428c0-8.807-6.173-16.006-13.759-16.006H3.966v17.164h91.449v25.77H3.966v17.145h91.449v38.723H61.878V275.72H41.724v28.697H0v17.512h120.177v-17.512h-5.654v-82.368zM213.059 249.402h-13.107v-28.393c0-8.766-6.172-15.943-13.728-15.943h-41.927v17.104h36.507v27.232h-36.507v55.42c0 8.867 6.111 15.986 13.708 15.986h42.475v-17.145h-37.097v-37.098h49.675v61.441h19.118V204.943h-19.118v44.459zM310.568 303.461h90.758V275.82c0-6.242-3.986-10.127-10.21-10.127h-99.645v16.453h90.737v6.162h-90.737v24.059c0 9.438 6.731 15.092 15.07 15.092h96.035v-17.145h-92.009v-6.853zM449.526 287.678v24.121h86.142v17.186h-90.26c-4.667 0-8.328-1.506-11.074-4.455-2.664-2.969-4.006-6.527-4.006-10.656v-26.195h19.198zm105.503-36.873h-20.165v40.818h-19.067v-13.484h-94.062v-17.164h21.944v-24.486h19.219v24.486h18.904V222.19h-56.58v-17.164h65.641c3.183 0 5.654.936 7.464 2.807 1.8 1.811 2.715 4.311 2.715 7.361v45.781h14.755v-55.949h19.067v28.594h20.165v17.185zM640.448 277.793c-6.254 0-11.257 1.934-15.01 5.818-3.763 3.883-5.644 8.805-5.644 14.846 0 6.061 1.881 10.982 5.644 14.744 3.753 3.844 8.756 5.777 15.01 5.777 6.243 0 11.298-1.934 15.091-5.777 3.803-3.762 5.715-8.684 5.715-14.744 0-6.041-1.912-10.963-5.715-14.846-3.793-3.884-8.848-5.818-15.091-5.818m62.579-28.432h-20.165v27.049h-10.646c2.664 3.051 4.759 6.428 6.284 10.129s2.309 7.688 2.309 11.918c0 5.41-.986 10.393-3.021 14.949a37.71 37.71 0 0 1-8.257 11.896c-3.6 3.174-7.881 5.695-12.793 7.566-4.952 1.85-10.352 2.785-16.29 2.785-6.021 0-11.532-.936-16.454-2.785-4.911-1.871-9.172-4.393-12.771-7.566a36.601 36.601 0 0 1-8.207-11.896c-1.952-4.557-2.928-9.539-2.928-14.949 0-4.23.722-8.217 2.135-11.979 1.454-3.742 3.58-7.16 6.427-10.068h-38.906v-17.205h21.925v-25.586h19.25v25.586h18.873v-36.994h-56.539v-17.186h65.609c3.173 0 5.664.955 7.464 2.785 1.8 1.852 2.716 4.332 2.716 7.383v44.012h14.765v-54.18h19.057v27.211h20.165v17.125zM816.584 205.025h19.697v123.959h-19.697v-69.617h-8.268v69.617H789.27V205.025h19.047v36.73h8.268v-36.73zm-93.26 0h57.037v21.131c0 26.275-5.734 45.109-17.174 56.58-9.498 9.518-23.531 14.297-41.957 14.297v-17.164c15.771 0 26.805-5.35 33.068-16.047 4.557-8.033 6.834-20.074 6.834-36.08v-5.084h-37.809v-17.633zM980.172 222.354H1000v15.701h-19.828v21.801h-19.25v-54.83h19.25v17.328zm-93.758 19.402c0 1.545.67 2.42 2.055 2.521h30.191v-12.854h-32.246v10.333zm3.172 70.043h91.693v17.186h-95.668c-4.354 0-7.912-1.383-10.801-4.17-2.867-2.746-4.301-6.385-4.301-10.941v-23.979h90.412v-6.549H870.51v-16.352h99.299c3.102 0 5.572.855 7.516 2.645 1.9 1.729 2.848 4.168 2.848 7.361v27.965h-90.586v6.834zm-20.969-66.424v-40.35h17.797v10.82h32.246v-10.82h17.795v54.83h-54.322c-3.834 0-7.047-1.361-9.609-4.066-2.614-2.705-3.907-6.143-3.907-10.414"/></svg>