<svg xmlns="http://www.w3.org/2000/svg" xml:space="preserve" width="1000px" height="338px" x="0px" y="0px" viewBox="0 0 1000 338"><path fill="#005BAC" d="M698.557 42.282c-8.691 0-12.291 3.089-14.064 11.129l-20.829 128.652h46.75l22.653-139.781h-34.51zM164.869 38.377h-40.433c-6.202 0-9.712 1.998-13.898 5.846L64.337 89.211l11.155-50.834H38.875c-8.723 0-12.322 3.127-14.07 11.206h-.007L0 182.063h45.978l12.616-62.362 42.806 62.362h57.241l-56.973-81.123 63.201-62.563zM790.486 149.336l18.43-107.054h-34.549c-8.538 0-12.176 2.993-13.975 10.67l-20.881 129.111h110.22l4.225-32.727h-63.47z"/><radialGradient id="a" cx="247.3726" cy="80.2285" r="125.3008" gradientUnits="userSpaceOnUse"><stop offset="0" style="stop-color:#00aedc"/><stop offset="0.2" style="stop-color:#00aedc"/><stop offset="1" style="stop-color:#0066b2"/></radialGradient><path fill="url(#a)" d="m542.621 182.082 46.597-94.862.243-3.152 18.289 98.04h47.809L626.191 42.282h-44.133c-6.943 0-9.841 1.979-12.903 6.892l-57.522 113.92-41.058-37.102c18.57-5.182 39.233-19.45 45.015-43.406 10.318-42.461-25.59-44.21-37.484-44.21h-65.894c-8.513 0-10.032 1.825-11.818 9.572l-12.686 59.563c-32.303-21.007-105.625-63.686-157.212-64.4-13.005-.166-22.475 1.812-31.664 7.453-1.379.868-1.723.792-1.927.74l.714-1.506c5.552-6.79 16.911-17.689 35.966-23.611 0 0 30.49-10.669 71.356 14.167 23.764 14.409 39.743 26.572 55.288 39.411-11.767-48.85-57.407-83.711-109.517-79.27-47.273 4.059-84.438 38.965-93.245 83.104 25.181-22.558 73.514-30.56 147.524-5.277 16.617 5.68 31.92 11.818 45.921 18.155 12.788 5.692 25.729 12.463 39.271 20.261 27.874 16.056 59.015 38.391 84.209 65.342h68.229v.002m-107.743-72.183c1.43-6.981 9.151-44.351 10.185-49.328h17.103s17.076-1.008 10.988 22.016c-.001 0-6.778 27.312-38.276 27.312z"/><radialGradient id="b" cx="443.3589" cy="996.623" r="22.9455" gradientTransform="translate(-2180.934 -5378.67) scale(5.4769)" gradientUnits="userSpaceOnUse"><stop offset="0" style="stop-color:#00aedc"/><stop offset="0.2" style="stop-color:#00aedc"/><stop offset="1" style="stop-color:#0066b2"/></radialGradient><path fill="url(#b)" d="M427.692 145.687c-3.688 16.094-7.619 36.377-7.619 36.377h-48.23l10.976-51.629c-10.772-3.51-18.289-5.641-21.748-6.509-8.819 44.019-45.282 79.229-92.479 83.273-30.617 2.617-59.244-8.117-80.073-27.49l-.089-.103s-20.063-18.241-18.506-44.577c1.557-27.095 25.411-38.071 25.411-38.071 27.695-14.919 89.059-16.489 175.832 20.676-.001 0 29.162 11.448 56.525 28.053z"/><g fill="#515457"><path d="M476.982 315.632h5.028v15.501H373.183v-15.501h38.34V289.36h17.223v26.272h30.867v-35.314H376.77v-15.513h82.843V241.41H376.77v-15.514h87.73c3.536 0 6.503 1.366 8.896 4.104 2.393 2.725 3.586 6.196 3.586 10.402v75.23zM540.732 225.896c3.445 0 6.355 1.424 8.755 4.238 2.387 2.833 3.587 6.247 3.587 10.268v25.844h11.914v-40.35h17.229v111.987h-17.229v-56.131h-46.374v33.585h34.894v15.514h-39.909c-3.452 0-6.368-1.41-8.762-4.237-2.393-2.82-3.593-6.247-3.593-10.268v-50.101h34.46V241.41h-34.46v-15.514h39.488zm49.673 111.988V225.896h17.37v111.987h-17.37zM658.596 222.598c4.404 0 8.475.67 12.202 2.017 3.732 1.334 6.942 3.21 9.623 5.597a26.786 26.786 0 0 1 6.381 8.538c1.583 3.3 2.374 6.917 2.374 10.842 0 4.122-.791 7.823-2.374 11.123a26.85 26.85 0 0 1-6.381 8.551c-2.681 2.387-5.891 4.237-9.623 5.521-3.728 1.295-7.798 1.946-12.202 1.946-4.402 0-8.474-.651-12.201-1.946-3.739-1.283-6.942-3.134-9.623-5.521-2.77-2.399-4.9-5.245-6.381-8.551-1.493-3.3-2.233-7.001-2.233-11.123 0-3.925.74-7.542 2.233-10.842 1.48-3.306 3.611-6.139 6.381-8.538 2.681-2.387 5.884-4.263 9.623-5.597 3.727-1.347 7.798-2.017 12.201-2.017zm-10.478 115.286c-4.212 0-7.518-1.347-9.904-4.014-2.399-2.681-3.599-5.89-3.599-9.623v-22.112h82.128v-5.877h-82.128V281.46h90.309c2.872 0 5.118.842 6.752 2.514 1.621 1.685 2.438 3.899 2.438 6.675v25.271h-82.269v6.458h83.417v15.507h-87.144zm10.478-101.069c-3.924 0-7.083 1.193-9.476 3.587-2.394 2.393-3.587 5.455-3.587 9.188 0 3.931 1.193 7.064 3.587 9.413 2.393 2.342 5.552 3.51 9.476 3.51 3.925 0 7.084-1.168 9.477-3.51 2.387-2.349 3.587-5.482 3.587-9.413 0-3.733-1.2-6.796-3.587-9.188-2.393-2.393-5.552-3.587-9.477-3.587zm58.147 38.621v-49.539h17.37v49.539h-17.37zM759.664 240.402c0-4.021 1.2-7.435 3.587-10.268 2.399-2.814 5.31-4.238 8.755-4.238h40.203v15.514h-35.174v21.25h31.307v15.5h-31.307v21.685h37.611v15.493h-42.641c-3.445 0-6.355-1.403-8.755-4.224-2.387-2.827-3.587-6.248-3.587-10.274v-60.438zm63.457 97.482V278.16h-10.045v-15.5h10.045v-36.764h17.37v111.987h-17.37zm25.704 0V225.896h17.37v111.987h-17.37zM976.733 315.204v-31.007h-83.111v-15.514h83.111V241.41h-83.545v-15.514h87.425c3.829 0 7.045 1.347 9.61 4.027 2.591 2.687 3.88 5.794 3.88 9.329v75.951H1000v15.501H888.875v-15.501h87.858z"/></g></svg>