<svg xmlns="http://www.w3.org/2000/svg" width="1108.2064pt" height="375pt" fill-rule="evenodd" viewBox="0 0 1108.2065 374.99999"><path d="M944.104 1351.173H348.829v-841.89h595.275z" style="fill:none;stroke:none"/><g style="fill-rule:evenodd"><path d="M294.315 461.448c4.633 0 5.507-5.193 5.507-5.193H276.37l-8.414 27.916s5.043-.302 8.391-2.811c1.759-1.317 2.257-3.293 2.417-3.846.036-.116.585-1.959 1.342-4.51h7.635c4.018 0 5.202-3.248 5.202-3.248l.681-1.949h-11.977c.65-2.195 1.317-4.438 1.875-6.359z" style="fill:#004b95;stroke:none" transform="matrix(3.75056 0 0 3.75056 -733.508 -1534.902)"/><path d="M323.011 434.99c-2.728-4.064-7.809-6.379-14.113-6.993-.229-.021-.233.047-.054.098 3.295.921 6.151 2.504 7.912 4.89 7.456 10.107-3.851 29.723-25.106 44.109-9.983 6.761-18.496 10.232-27.184 12.241-.423.049-3.246.733-4.496.77-.307.008-.304.232-.046.281.199.035.53.096.681.096 10.568.093 23.487-3.605 35.714-11.049 22.127-13.477 34.084-33.411 26.692-44.443z" style="fill:#e21c2a;stroke:none" transform="matrix(3.75056 0 0 3.75056 -733.508 -1534.902)"/><path d="M294.524 429.109c.034-.002.089-.012.132-.013 5.902-.498 10.65.692 13.558 3.813 5.86 6.275 3.095 16.937-7.106 28.921-.164.159.008.32.163.203.113-.09.175-.137.257-.21 12.641-11.337 17.287-21.974 12.129-28.754-3.244-4.264-10.26-5.529-18.941-4.113-.069.009-.148.034-.199.042-.145.033-.141.119.007.111z" style="fill:#f69f13;stroke:none" transform="matrix(3.75056 0 0 3.75056 -733.508 -1534.902)"/><path d="M278.759 434.139c9.844-3.451 20.381-2.651 24.328 2.574 2.691 3.571 2.405 8.947.016 14.125-.026.052-.052.101-.073.153-.064.178.129.201.215.088.041-.05.115-.142.152-.195 4.291-6.187 5.245-12.287 2.215-16.323-3.898-5.202-16.274-5.676-26.871-.472-.086.044-.052.075.018.05z" style="fill:#52ad34;stroke:none" transform="matrix(3.75056 0 0 3.75056 -733.508 -1534.902)"/><path d="M267.397 440.731c.026-.012.093-.044.122-.056 11.978-5.786 27.822-6.129 32.719 1.471.052.087.137.2.197.289.091.14.229.115.228-.016 0-.105-.007-.347-.025-.451-.209-1.109-.561-2.149-1.427-3.322-4.807-6.526-18.923-5.653-31.561 1.79-.075.042-.219.129-.292.169-.119.067-.031.157.039.126z" style="fill:#2c2c2b;stroke:none" transform="matrix(3.75056 0 0 3.75056 -733.508 -1534.902)"/><path d="M250.539 455.078c2.472-2.212 6.474-5.555 10.858-8.164 9.395-5.589 18.549-7.517 24.919-7.499.168.006.255.019.412.017.169.014.211-.158.053-.193a5.563 5.563 0 0 0-.346-.07c-5.294-1.082-15.467.376-23.894 5.194-4.974 2.845-9.352 6.734-12.052 10.661-.064.096-.033.128.05.054zM269.397 469.2c1.468-4.425 1.424-7.493-.14-9.652-1.607-2.219-4.778-3.293-9.687-3.293h-43.586l-1.664 5.193h13.354l-6.062 20.66h4.395c2.106.004 4.828-1.356 5.785-4.652.083-.267 2.883-9.816 4.701-16.008h21.578c2.115 0 3.533.208 4.014.897 0 0 .355.382.268 1.188-.09.836-1.17 4.792-1.17 4.792-.735 2.466-2.528 3.519-5.986 3.519h-3.805l2.231-7.496h-4.393c-2.108-.006-4.823 1.352-5.79 4.644-.067.242-5.436 18.205-5.436 18.205h8.819l2.962-9.95c3.567 0 6.187-.004 6.187-.004 4.197.043 10.878-.379 13.425-8.043z" style="fill:#004b95;stroke:none" transform="matrix(3.75056 0 0 3.75056 -733.508 -1534.902)"/><path d="M410.765 464.039v1.816h18.902v-1.816zM343.835 455.919v4.736h-1.133v-4.736h-2.914v9.235h-7.37v-2.546h5.646v-1.953h-5.646v-2.447h6.071v-1.956h-9.008v9.273c0 .946.504 1.587 1.65 1.587h8.657v5.483h2.914v-9.987h1.133v9.987h2.913v-16.676zM364.031 455.919v6.399h-1.723v-6.066h-11.427v1.956h8.481v4.11h-9.947v1.957h6.031v3.499h2.947v-3.499h5.638v1.53h-3.247v1.952h3.247v1.298h2.947v-13.136z" style="fill:#2c2c2b;stroke:none" transform="matrix(3.75056 0 0 3.75056 -733.508 -1534.902)"/><path d="M354.017 470.636v-3.747h-2.944v4.289c0 .823.656 1.417 1.62 1.417h14.353v-1.959zM395.624 470.636v-3.747h-2.942v4.289c0 .823.663 1.417 1.628 1.417h13.645v-1.959zM457.295 470.636v-3.747h-2.946v4.289c0 .823.658 1.417 1.621 1.417h14.353v-1.959zM380.862 470.169v-4.541h6.291v-1.959h-12.694v-5.322h12.711v-1.953h-15.653v7.613c0 .871.573 1.621 1.553 1.621h4.847v4.541h-7.738v1.952h18.428v-1.952zM396.508 462.014c.645.84 2.201 2.704 5.491 3.641l.143.041.986-1.337-.164-.066c-4.274-1.633-4.918-5.062-4.973-6.085h3.948v-1.956h-10.858v1.956h3.939c-.055 1.023-.705 4.456-4.964 6.085l-.166.066.98 1.337.143-.041c3.302-.937 4.85-2.801 5.495-3.641zM404.827 455.919v12.454h2.945v-12.454zM446.576 455.919v4.736h-1.132v-4.736h-2.914v16.676h2.914v-9.987h1.132v9.987h2.91v-16.676zM438.142 460.077s-.024-1.458-.02-1.869c.174-.002 2.977 0 2.977 0v-1.956h-9.012v1.956s2.806-.002 2.978 0c0 .243-.019 1.869-.019 1.869 0 .981-.144 4.638-3.828 6.394l-.142.062.934 1.402.144-.056a9.117 9.117 0 0 0 4.437-3.627 9.1 9.1 0 0 0 4.439 3.627l.145.056.928-1.402-.138-.062c-3.682-1.756-3.823-5.413-3.823-6.394zM470.058 460.655v-4.736h-2.944v7.581h-10.962v-5.292h8.339v-1.956h-11.285v7.738c0 .948.706 1.469 1.973 1.469h11.935v2.886h2.944v-5.735h2.245v-1.955zM425.59 467.404c-1.383-.629-3.171-.941-5.373-.941-2.226 0-4.018.312-5.377.941-1.404.637-2.103 1.481-2.103 2.533 0 1.038.699 1.878 2.103 2.512 1.359.627 3.151.941 5.377.941 2.202 0 3.99-.314 5.373-.941 1.398-.634 2.1-1.474 2.1-2.512 0-1.052-.702-1.896-2.1-2.533zm-2.243 3.982c-.813.354-1.86.533-3.13.533-1.302 0-2.356-.179-3.165-.533-.831-.358-1.25-.844-1.25-1.453 0-.619.419-1.114 1.25-1.48.809-.347 1.863-.518 3.165-.518 1.27 0 2.317.171 3.13.518.849.366 1.278.861 1.278 1.48 0 .609-.429 1.095-1.278 1.453zM428.137 456.252h-6.449v-.872h-2.947v.872h-6.446v1.745h3.816c-.209.075-.425.142-.616.229-1.23.563-1.845 1.305-1.845 2.224 0 .912.615 1.655 1.845 2.21 1.197.547 2.77.823 4.722.823 1.933 0 3.503-.276 4.715-.823 1.231-.555 1.844-1.298 1.844-2.21 0-.919-.613-1.661-1.844-2.224-.194-.087-.411-.154-.622-.229h3.827zm-5.392 5.459c-.656.328-1.498.489-2.528.489-1.053 0-1.905-.161-2.56-.489-.67-.326-1.01-.77-1.01-1.33 0-.568.34-1.023 1.01-1.359.655-.316 1.507-.475 2.56-.475 1.03 0 1.872.159 2.528.475.69.336 1.031.791 1.031 1.359 0 .56-.341 1.004-1.031 1.33zM329.626 477.677v1.433h1.758v7.956h1.424v-7.956h1.756v-1.433h-4.938zM334.93 480.826c-.337.298-.496.792-.511 1.496h1.279c0-.431.03-1.021.629-1.021.62 0 .679.525.679 1.056v.59l-.087-.002c-.776-.013-1.582.01-2.078.476-.376.348-.557.914-.557 1.725 0 .766.332 2.051 1.485 2.051 1.048 0 1.317-.947 1.317-.947s.05.698.06.816h1.207c-.006-.069-.065-.493-.065-1.165v-3.334c0-1.089-.154-2.159-2.032-2.159-.601 0-1.034.139-1.326.418zm.639 4.241c0-1.166.549-1.191 1.184-1.218l.25-.01.003.342c.008.242.008.794-.067 1.137-.118.552-.372.878-.748.878-.609 0-.622-.82-.622-1.129zM450.496 480.826h-.003c-.333.298-.495.792-.503 1.496h1.275c0-.431.029-1.021.63-1.021.626 0 .675.525.675 1.056v.59l-.079-.002c-.779-.013-1.582.01-2.083.476-.377.348-.555.914-.555 1.725 0 .766.331 2.051 1.484 2.051 1.047 0 1.313-.947 1.313-.947s.049.698.062.816h1.209c-.003-.069-.065-.493-.065-1.165v-3.334c0-1.089-.155-2.159-2.034-2.159-.595 0-1.03.139-1.326.418zm.642 4.241c0-1.166.543-1.191 1.181-1.218l.251-.01.005.342c.004.242.004.794-.072 1.137-.115.552-.366.878-.743.878-.612 0-.622-.82-.622-1.129zM339.335 483.718c0 2.258.332 3.479 2.076 3.479.638 0 1.154-.214 1.497-.618.324-.374.5-.935.534-1.609h-1.338c-.019.777-.244 1.191-.693 1.191-.748 0-.748-1.29-.748-2.059v-.075h2.828c0-.14.005-.284.005-.421 0-1.249-.144-2.19-.692-2.726-.327-.314-.786-.472-1.393-.472-1.917 0-2.076 1.567-2.076 3.31zm1.328-.686c0-.459 0-1.149.327-1.463 0 0 .112-.161.421-.161.308 0 .446.17.446.17.313.296.313.923.312 1.423l.001.1v.031h-1.507zM344.66 477.677v9.389h1.317v-3.56l-.027-.025s1.313 3.488 1.352 3.585h1.489c-.09-.197-1.618-3.595-1.618-3.595 0-.057 1.19-2.427 1.44-2.932h-1.409c0 .005.005.005.005.005 0 .101-1.264 2.769-1.264 2.769l.032-.033v-5.603h-1.317zM355.694 480.539c-.017.127-.832 4.96-.832 4.96l-.037.005s-.988-4.84-1.01-4.965h-1.396c-.023.121-1.088 4.965-1.088 4.965v-.005l-.803-4.96h-1.3c.035.175 1.264 6.409 1.292 6.527h1.438c.025-.115 1.132-4.499 1.132-4.499s1.01 4.381 1.034 4.499h1.42c.023-.115 1.362-6.349 1.398-6.527h-1.248zM357.474 483.718c0 2.258.328 3.479 2.073 3.479 1.749 0 2.079-1.221 2.079-3.479 0-1.743-.16-3.31-2.079-3.31-1.92 0-2.073 1.567-2.073 3.31zm1.314-.106c0-1.341.036-2.162.759-2.162.722 0 .761.821.761 2.162 0 1.941-.109 2.549-.761 2.549-.653 0-.759-.608-.759-2.549zM363.935 481.144v-.605h-1.319v6.527h1.319v-4.524c0-.587.078-1.134.632-1.134.556 0 .635.547.635 1.134v4.524h1.317v-5.28c0-.946-.645-1.378-1.241-1.378-.989 0-1.343.736-1.343.736zM418.683 481.144v-.605h-1.317v6.527h1.317v-4.524c0-.587.079-1.134.632-1.134.557 0 .637.547.637 1.134v4.524h1.313v-5.28c0-.946-.64-1.378-1.237-1.378-.992 0-1.345.736-1.345.736zM441.03 481.144v-.605h-1.315v6.527h1.315v-4.524c0-.587.078-1.134.635-1.134.556 0 .633.547.633 1.134v4.524h1.32v-5.28c0-.946-.644-1.378-1.245-1.378-.989 0-1.343.736-1.343.736zM467.161 481.144v-.605h-1.312v6.527h1.312v-4.524c0-.587.082-1.134.635-1.134.558 0 .635.547.635 1.134v4.524h1.315v-5.28c0-.946-.64-1.378-1.243-1.378-.988 0-1.342.736-1.342.736zM370.269 477.677v3.426s-.372-.695-1.207-.695c-.309 0-.651.095-.851.284-.61.583-.61 1.956-.606 2.957v.243c-.004 1.023-.004 2.422.62 3.018.204.194.456.287.773.287.864 0 1.342-.799 1.342-.799v.668h1.245v-9.389h-1.316zm-1.379 6.07v-.065c0-1.056 0-1.819.32-2.128 0 0 .176-.146.387-.146.204 0 .356.138.356.138.316.301.316 1.068.316 2.131 0 1.8-.094 2.519-.672 2.519-.61 0-.707-.719-.707-2.449zM447.443 477.677v3.426s-.374-.695-1.208-.695c-.306 0-.647.095-.846.284-.615.583-.615 1.956-.615 2.957v.243c0 1.023-.002 2.422.623 3.018.204.194.462.287.774.287.869 0 1.347-.799 1.347-.799v.668h1.245v-9.389h-1.32zm-1.383 6.07v-.065c0-1.056 0-1.819.325-2.128 0 0 .179-.146.385-.146.206 0 .358.138.358.138.315.301.315 1.068.315 2.131 0 1.8-.097 2.519-.673 2.519-.613 0-.71-.719-.71-2.449zM372.561 483.718c0 2.258.331 3.479 2.075 3.479 1.745 0 2.076-1.221 2.076-3.479 0-1.743-.16-3.31-2.076-3.31-1.914 0-2.075 1.567-2.075 3.31zm1.317-.106c0-1.341.036-2.162.758-2.162.723 0 .758.821.758 2.162 0 1.941-.1 2.549-.758 2.549-.655 0-.758-.608-.758-2.549zM380.183 477.677v9.389h1.421v-3.885h1.251c1.672 0 2.023-1.483 2.023-2.727 0-1.871-.631-2.777-1.932-2.777h-2.763zm1.421 4.109v-2.793h.87c.959 0 .959 1.139.959 1.515 0 .651-.335 1.355-.874 1.355h-.955zM386.831 481.326v-.787h-1.25v6.527h1.322v-3.56c0-.394 0-.995.385-1.331.215-.188.532-.272.935-.253v-1.488c-1.059 0-1.392.892-1.392.892zM388.778 483.718c0 2.258.33 3.479 2.075 3.479 1.742 0 2.077-1.221 2.077-3.479 0-1.743-.16-3.31-2.077-3.31s-2.075 1.567-2.075 3.31zm1.316-.106c0-1.341.033-2.162.759-2.162.719 0 .759.821.759 2.162 0 1.941-.105 2.549-.759 2.549s-.759-.608-.759-2.549zM397.815 481.218l-.074.133-.063-.138c-.24-.519-.691-.805-1.17-.805-.951 0-1.286.736-1.286.736v-.605h-1.317v6.527h1.317v-4.524c0-.587.078-1.134.636-1.134.553 0 .632.547.632 1.134v4.524h1.282v-4.524c0-.587.078-1.134.637-1.134.556 0 .631.547.631 1.134v4.524h1.316v-5.28c0-.946-.64-1.378-1.236-1.378-.576 0-.966.245-1.305.81zM401.446 483.718c0 2.258.329 3.479 2.076 3.479 1.743 0 2.073-1.221 2.073-3.479 0-1.743-.159-3.31-2.073-3.31-1.916 0-2.076 1.567-2.076 3.31zm1.315-.106c0-1.341.041-2.162.761-2.162.723 0 .76.821.76 2.162 0 1.941-.105 2.549-.76 2.549-.658 0-.761-.608-.761-2.549zM406.802 479.45v1.089h-.599v1.007h.599v4.183c0 .234.062 1.4 1.361 1.4l.688-.008v-1.048c-.086.011-.368.011-.574-.104-.206-.114-.16-.403-.16-.724v-3.699h.764v-1.007h-.764v-1.83c-.196.109-1.249.708-1.315.741zM455.257 479.45v1.089h-.597v1.007h.597v4.183c0 .234.067 1.4 1.367 1.4l.682-.008v-1.048a1.107 1.107 0 0 1-.576-.104c-.204-.114-.155-.403-.155-.724v-3.699h.762v-1.007h-.762v-1.83c-.196.109-1.251.708-1.318.741zM409.874 477.677v1.316h1.32v-1.316h-1.32zm0 2.862v6.527h1.32v-6.527h-1.32zM412.308 483.718c0 2.258.333 3.479 2.075 3.479 1.75 0 2.077-1.221 2.077-3.479 0-1.743-.157-3.31-2.077-3.31-1.915 0-2.075 1.567-2.075 3.31zm1.321-.106c0-1.341.034-2.162.754-2.162.725 0 .759.821.759 2.162 0 1.941-.104 2.549-.759 2.549-.65 0-.754-.608-.754-2.549zM424.839 477.677v9.389h1.42v-4.165h2.241v-1.312h-2.241v-2.596h2.345v-1.316h-3.765zM429.317 483.718c0 2.258.33 3.479 2.074 3.479 1.744 0 2.074-1.221 2.074-3.479 0-1.743-.155-3.31-2.074-3.31-1.917 0-2.074 1.567-2.074 3.31zm1.315-.106c0-1.341.039-2.162.759-2.162.721 0 .756.821.756 2.162 0 1.941-.103 2.549-.756 2.549-.656 0-.759-.608-.759-2.549zM437.118 480.539v4.554c0 .573-.08 1.103-.637 1.103s-.634-.53-.634-1.103v-4.554h-1.316v5.28c0 .948.642 1.378 1.238 1.378.924 0 1.349-.731 1.349-.731v.6h1.363c-.004-.141-.051-.594-.051-1.247v-5.28h-1.312zM458.273 477.677v1.316h1.319v-1.316h-1.319zm0 2.862v6.527h1.319v-6.527h-1.319zM460.776 483.718c0 2.258.333 3.479 2.075 3.479 1.745 0 2.075-1.221 2.075-3.479 0-1.743-.158-3.31-2.075-3.31-1.916 0-2.075 1.567-2.075 3.31zm1.317-.106c0-1.341.039-2.162.758-2.162.724 0 .758.821.758 2.162 0 1.941-.105 2.549-.758 2.549s-.758-.608-.758-2.549z" style="fill:#2c2c2b;stroke:none" transform="matrix(3.75056 0 0 3.75056 -733.508 -1534.902)"/></g></svg>