<svg xmlns="http://www.w3.org/2000/svg" width="678.52783pt" height="150pt" viewBox="0 0 678.52786 150"><path fill="#0069aa" d="M730.289 92.542V82.01h73.087c1.09-2.12 1.925-4.616 2.47-7.5.554-2.901.826-6.207.826-9.952V47.343c0-.87-.149-1.45-.474-1.767-.308-.316-.932-.475-1.873-.475h-65.007V34.577h80.586l.888.282.273.879V65.85c0 3.113-.317 6.023-.932 8.713-.616 2.7-1.591 5.178-2.937 7.447h13.83v10.532h-42.984v44.522H773.29V92.542ZM477.315 125.044c-2.55 2.611-5.53 3.93-8.967 3.93-3.368 0-6.33-1.319-8.915-3.93-2.567-2.61-3.86-5.758-3.86-9.433 0-3.658 1.293-6.814 3.86-9.417 2.585-2.62 5.547-3.938 8.915-3.938 3.437 0 6.418 1.318 8.967 3.938 2.541 2.603 3.799 5.76 3.799 9.417 0 3.675-1.258 6.822-3.798 9.433m10.18-26.296c-5.345-4.686-11.737-7.025-19.148-7.025-7.412 0-13.803 2.339-19.149 7.025-5.345 4.677-8.027 10.313-8.027 16.863 0 6.558 2.682 12.168 8.027 16.81 5.346 4.642 11.737 6.972 19.149 6.972 7.411 0 13.803-2.33 19.148-6.972 5.355-4.642 8.019-10.252 8.019-16.81 0-6.55-2.664-12.186-8.019-16.863M476.199 78.367v-5.39H509V62.56h-62.448l-1.583-.589-.642-1.758v-3.156H507.7V46.62h-63.372v-5.38h64.084V30.574h-78.599V59.623c0 5.002.976 8.475 2.928 10.418 1.96 1.96 5.275 2.937 9.952 2.937h17.804v5.39H416.8v10.066h103.085V78.367ZM600.75 59.622v27.642h14.05V29.29h-14.05v10.884zM562.391 68.527c-2.69 2.98-5.82 4.448-9.425 4.448-3.587 0-6.717-1.468-9.38-4.448-2.656-2.98-3.984-6.454-3.984-10.428 0-3.982 1.328-7.464 3.983-10.427 2.664-2.963 5.794-4.44 9.381-4.44 3.605 0 6.735 1.477 9.425 4.44 2.69 2.963 4.035 6.445 4.035 10.427 0 3.974-1.345 7.447-4.035 10.428m16.81-18.938c-1.328-3.56-3.5-6.779-6.629-9.645-5.416-4.994-11.957-7.49-19.606-7.49-7.658 0-14.172 2.496-19.562 7.49-5.38 5.003-8.08 11.043-8.08 18.155 0 7.113 2.7 13.17 8.08 18.164 5.39 4.994 11.904 7.473 19.562 7.473 7.649 0 14.19-2.479 19.606-7.473 5.029-4.642 7.71-10.18 8.08-16.643l.079-1.52a24.28 24.28 0 0 0-1.53-8.511M647.248 74.155c-3.05-3.675-4.563-8.062-4.563-13.126 0-5.073 1.513-9.451 4.563-13.118 3.042-3.675 6.709-5.503 11.017-5.503 4.378 0 8.053 1.828 11.06 5.503 3.024 3.667 4.528 8.045 4.528 13.118 0 5.064-1.504 9.451-4.528 13.126-3.007 3.666-6.682 5.513-11.06 5.513-4.308 0-7.975-1.847-11.017-5.513m40.716-14.999-.176-1.758h17.557v8.431h-17.803c.158-.782.272-1.582.36-2.409.07-.8.106-1.617.106-2.391l-.044-1.873m-14.929 27.009c4.44-2.55 7.948-5.89 10.524-10.032h21.786v30.464h14.058V29.29h-14.058v17.795h-21.074c-2.497-4.44-6.066-8.062-10.656-10.832-4.607-2.77-9.724-4.15-15.35-4.15-8.194 0-15.201 2.832-21.03 8.485-5.812 5.662-8.722 12.467-8.722 20.44 0 7.975 2.91 14.78 8.721 20.45 5.83 5.654 12.837 8.485 21.03 8.485 5.39 0 10.314-1.266 14.771-3.798M559.64 126.744l-.889-.238-.281-.703v-6.093h54c.861 0 1.468-.21 1.81-.642l.52-1.573V94.416l-.58-1.706-1.75-.756H544.05v10.199h56.47v7.49h-56.47v17.681c0 3.587.712 6.11 2.119 7.561 1.415 1.442 3.824 2.163 7.244 2.163h62.572v-10.304zM667.51 125.338l-1.275-.475-.484-1.283v-24.6h-14.392V126.393c0 3.27.773 5.68 2.33 7.2 1.582 1.521 3.947 2.286 7.147 2.286h59.741v-10.541ZM864.215 42.052c1.987-2.348 4.414-3.517 7.315-3.517 2.893 0 5.346 1.16 7.377 3.446 2.03 2.312 3.05 5.152 3.05 8.502 0 3.358-1.02 6.225-3.05 8.616-2.031 2.383-4.484 3.57-7.377 3.57-2.901 0-5.328-1.179-7.315-3.508-2.004-2.357-2.989-5.196-2.989-8.555 0-3.358.985-6.207 2.99-8.554m7.314 30.798c6.717 0 12.414-2.137 17.1-6.436 4.678-4.29 7.025-9.566 7.025-15.808 0-6.251-2.347-11.526-7.025-15.817-4.686-4.29-10.383-6.444-17.1-6.444-6.717 0-12.396 2.154-17.038 6.444-4.651 4.29-6.972 9.566-6.972 15.817 0 6.242 2.32 11.517 6.972 15.808 4.642 4.3 10.321 6.436 17.038 6.436M878.444 125.338l-1.292-.475-.466-1.292v-16.872h-14.419V126.384c0 3.28.783 5.68 2.347 7.21 1.565 1.52 3.948 2.277 7.148 2.277h60.664v-10.533ZM863.088 101.91h14.77V86.683h30.394v-10.55h-71.856v10.55h26.692z" style="stroke-width:8.79188" transform="scale(.72528)"/><path fill="#0069aa" d="M917.213 29.284v63.258H893.79v9.477h23.422v7.5h14.05V29.284ZM431.986 152.385h2.92v9.328l8.879-9.328h4.053l-9.54 9.54 10.569 11.78h-4.141l-9.82-11.315v11.316h-2.92zM456.466 172.139c2.083 0 4.475-1.495 4.475-5.961 0-3.684-1.715-5.644-4.317-5.644-1.767 0-4.616 1.125-4.616 5.758 0 3.042 1.301 5.847 4.458 5.847m.158-13.636c5.943 0 7.27 4.66 7.27 7.763 0 4.334-2.443 7.939-7.49 7.939-4.906 0-7.306-3.394-7.306-7.737 0-3.657 1.723-7.965 7.526-7.965M467.653 161.908c0-1.011-.07-2.049-.15-3.033h2.805l.053 2.874c.536-2.074 2.304-2.734 3.543-2.918.844-.115 1.451-.088 1.917-.07v2.716l-.519-.123-.809-.018c-3.27 0-4.044 1.943-4.044 4.484v7.886h-2.796zM487.756 164.844c.017-1.406-.238-4.36-3.658-4.36-1.802 0-3.991 1.09-4.053 4.36zm-7.825 1.952c-.062 3.068 1.213 5.345 4.255 5.345 1.803 0 3.262-.931 3.482-3.077h2.778c-.088.756-.21 1.96-1.266 3.104-.65.738-2.127 1.978-5.108 1.978-4.66 0-6.893-2.893-6.893-7.587 0-2.928.607-5.337 2.928-6.964 1.424-1.02 3.2-1.09 4.062-1.09 6.638 0 6.488 5.856 6.418 8.291zM501.038 166.415c-1.117 0-5.346 0-5.346 3.007 0 .94.59 2.576 3.077 2.576 1.425 0 2.48-.571 3.166-1.591.615-1.002.641-1.829.703-3.904l-1.6-.088m1.925 7.289-.264-2.216c-1.327 2.47-3.332 2.69-4.571 2.69-3.403 0-5.232-1.925-5.232-4.36 0-1.187.422-3.086 2.585-4.335 1.61-.896 3.957-.984 5.144-.984.72 0 1.16.026 2.013.088 0-1.838 0-2.62-.519-3.289l-2.585-.967c-2.804 0-2.945 1.917-2.98 2.524h-2.787c.105-.792.193-1.812 1.046-2.823 1.117-1.23 3.236-1.59 4.792-1.59 2.154 0 4.457.676 5.24 2.188.492.888.5 1.592.5 2.269l-.114 7.095c0 .228.036 2.215.23 3.71zM517.082 152.388h2.955v21.32h-2.955zM524.64 160.597l-.035-1.723h2.778l.027 2.4c.325-.624 1.38-2.69 4.756-2.69 1.328 0 5.363.51 5.363 5.055v10.067h-2.822v-9.425c0-.959-.123-1.864-.8-2.532-.712-.669-1.67-1.011-2.629-1.011-2.013 0-3.868 1.45-3.868 4.43v8.538h-2.77zM543.446 169.302c-.035 1.134.563 2.699 3.262 2.699 1.134 0 1.996-.211 2.585-.95l.475-1.389c0-1.45-1.038-1.723-3.253-2.207-3.104-.73-5.715-1.345-5.715-4.44 0-2.716 2.383-4.483 5.803-4.483 1.863 0 4.448.527 5.345 2.303.387.827.387 1.547.387 2.163h-2.831c.079-2.26-1.873-2.435-2.875-2.435-.413 0-3.007 0-3.007 2.118 0 1.363 1.328 1.68 2.093 1.9 4.105.975 4.993 1.204 5.873 2.04.835.755 1.125 1.793 1.125 2.751 0 1.653-.923 3.068-2.005 3.745-1.3.792-2.866 1.003-4.387 1.003-3.024 0-5.829-1.249-5.794-4.818zM553.606 158.832h2.62v-3.112l2.752-.88v3.992h3.306v2.022h-3.306v8.898c0 .747 0 1.97 1.978 1.97l1.328-.141v2.154c-.501.087-1.301.175-2.304.175-2.532 0-3.754-.73-3.754-3.156v-9.9h-2.62zM564.998 158.876h2.768V173.7h-2.768zm-.29-6.427h3.35v3.034h-3.35zM570.168 158.832h2.647v-3.112l2.708-.88v3.992h3.323v2.022h-3.323v8.898c0 .747 0 1.97 1.995 1.97l1.328-.141v2.154c-.51.087-1.301.175-2.295.175-2.55 0-3.736-.73-3.736-3.156v-9.9h-2.647zM584.07 158.877v9.54c0 1.45.333 3.288 3.147 3.288 1.398 0 2.708-.484 3.49-1.653.642-.88.642-2.04.642-2.779v-8.396h2.84v12.054c0 .29.079 1.943.087 2.77h-2.866l-.061-2.533c-.545 1.038-1.556 2.69-4.739 2.69-3.649 0-5.372-2.11-5.372-5.02v-9.96zM596.562 158.832h2.638v-3.112l2.725-.88v3.992h3.315v2.022h-3.315v8.898c0 .747 0 1.97 1.987 1.97l1.328-.141v2.154c-.484.087-1.292.175-2.295.175-2.54 0-3.745-.73-3.745-3.156v-9.9h-2.638zM617.433 164.844c.027-1.406-.237-4.36-3.657-4.36-1.794 0-3.983 1.09-4.053 4.36zm-7.816 1.952c-.079 3.068 1.205 5.345 4.238 5.345 1.82 0 3.253-.931 3.49-3.077h2.779c-.08.756-.202 1.96-1.266 3.104-.66.738-2.137 1.978-5.108 1.978-4.66 0-6.884-2.893-6.884-7.587 0-2.928.597-5.337 2.927-6.964 1.416-1.02 3.192-1.09 4.053-1.09 6.638 0 6.489 5.856 6.445 8.291zM638.493 154.455l-1.636-.07c-2.224 0-2.224 1.125-2.224 2.171v2.321h3.455v2.022h-3.455v12.81h-2.752v-12.81h-2.928v-2.022h2.928v-1.688c0-2.03.106-2.76.616-3.534.624-.932 1.81-1.636 3.727-1.636l2.269.22zM646.421 172.139c2.101 0 4.502-1.495 4.502-5.961 0-3.684-1.724-5.644-4.317-5.644-1.759 0-4.634 1.125-4.634 5.758 0 3.042 1.31 5.847 4.45 5.847m.184-13.636c5.934 0 7.262 4.66 7.262 7.763 0 4.334-2.444 7.939-7.49 7.939-4.907 0-7.29-3.394-7.29-7.737 0-3.657 1.706-7.965 7.518-7.965M657.628 161.908c0-1.011-.07-2.049-.14-3.033h2.795l.053 2.874c.536-2.074 2.312-2.734 3.56-2.918.827-.115 1.443-.088 1.909-.07v2.716l-.537-.123-.791-.018c-3.28 0-4.044 1.943-4.044 4.484v7.886h-2.805zM675.915 152.385h4.088l10.48 17.637v-17.637h2.717v21.32h-3.78l-10.832-18.102v18.103h-2.673zM705.043 166.415c-1.126 0-5.346 0-5.346 3.007 0 .94.598 2.576 3.077 2.576 1.407 0 2.489-.571 3.148-1.591.624-1.002.66-1.829.72-3.904l-1.6-.088m1.917 7.289-.263-2.216c-1.32 2.47-3.333 2.69-4.563 2.69-3.412 0-5.24-1.925-5.24-4.36 0-1.187.422-3.086 2.602-4.335 1.6-.896 3.956-.984 5.126-.984.72 0 1.17.026 2.022.088 0-1.838 0-2.62-.545-3.289-.545-.73-1.759-.967-2.559-.967-2.804 0-2.945 1.917-2.998 2.524h-2.77c.115-.792.185-1.812 1.038-2.823 1.134-1.23 3.218-1.59 4.774-1.59 2.18 0 4.475.676 5.267 2.188.483.888.492 1.592.492 2.269l-.114 7.095c0 .228.035 2.215.255 3.71zM711.333 158.832h2.638v-3.112l2.734-.88v3.992h3.324v2.022h-3.324v8.898c0 .747 0 1.97 1.978 1.97l1.346-.141v2.154c-.52.087-1.32.175-2.322.175-2.523 0-3.736-.73-3.736-3.156v-9.9h-2.638zM722.733 158.876h2.77V173.7h-2.77zm-.308-6.427h3.341v3.034h-3.34zM736.432 172.139c2.1 0 4.483-1.495 4.483-5.961 0-3.684-1.696-5.644-4.308-5.644-1.776 0-4.633 1.125-4.633 5.758 0 3.042 1.31 5.847 4.458 5.847m.175-13.636c5.926 0 7.262 4.66 7.262 7.763 0 4.334-2.452 7.939-7.49 7.939-4.897 0-7.306-3.394-7.306-7.737 0-3.657 1.723-7.965 7.534-7.965M747.56 160.597l-.018-1.723h2.77l.034 2.4c.317-.624 1.38-2.69 4.757-2.69 1.319 0 5.372.51 5.372 5.055v10.067h-2.831v-9.425c0-.959-.123-1.864-.827-2.532-.694-.669-1.67-1.011-2.62-1.011-1.995 0-3.85 1.45-3.85 4.43v8.538h-2.788zM771.88 166.415c-1.107 0-5.328 0-5.328 3.007 0 .94.58 2.576 3.086 2.576 1.398 0 2.462-.571 3.14-1.591.632-1.002.659-1.829.711-3.904l-1.609-.088m1.943 7.289-.281-2.216c-1.328 2.47-3.332 2.69-4.572 2.69-3.393 0-5.213-1.925-5.213-4.36 0-1.187.404-3.086 2.576-4.335 1.6-.896 3.974-.984 5.152-.984.72 0 1.134.026 2.004.088 0-1.838 0-2.62-.527-3.289l-2.576-.967c-2.814 0-2.954 1.917-2.99 2.524h-2.778c.106-.792.194-1.812 1.038-2.823 1.134-1.23 3.235-1.59 4.791-1.59 2.154 0 4.467.676 5.275 2.188.458.888.475 1.592.475 2.269l-.097 7.095c0 .228.018 2.215.238 3.71zM780.504 152.414h2.787V173.7h-2.787zM798.483 152.385v13.197c0 2.268.519 3.218.958 3.842 1.337 1.785 3.403 2.092 4.888 2.092 5.742 0 5.742-4.519 5.742-6.04v-13.09h2.874v13.134c0 1.152-.035 3.552-1.758 5.689-2.075 2.61-5.345 2.936-6.858 2.936-2.03 0-5.565-.563-7.543-3.394-.642-.94-1.23-2.18-1.23-5.371v-12.995zM817.739 160.597l-.053-1.723h2.787l.027 2.4c.325-.624 1.397-2.69 4.756-2.69 1.328 0 5.363.51 5.363 5.055v10.067h-2.831v-9.425c0-.959-.114-1.864-.8-2.532-.712-.669-1.697-1.011-2.611-1.011-2.014 0-3.877 1.45-3.877 4.43v8.538h-2.761zM834.952 158.876h2.788V173.7h-2.788zm-.272-6.427h3.333v3.034h-3.333zM849.817 154.455l-1.627-.07c-2.242 0-2.242 1.125-2.242 2.171v2.321h3.456v2.022h-3.456v12.81h-2.743v-12.81h-2.927v-2.022h2.927v-1.688c0-2.03.115-2.76.616-3.534.624-.932 1.81-1.636 3.71-1.636.809 0 1.697.141 2.286.22zM851.525 158.876h2.769V173.7h-2.769zm-.281-6.427h3.332v3.034h-3.332zM867.425 163.633c-.07-.668-.281-3.095-2.971-3.095-3.825 0-3.825 4.457-3.825 5.574 0 3.05.73 5.89 3.684 5.89 2.365 0 3.156-1.784 3.227-3.226h2.787c-.176 2.884-2.322 5.31-5.988 5.31-1.002 0-3.297-.21-4.87-1.925-.897-1.038-1.776-2.594-1.776-5.653 0-6.181 3.78-8.01 6.743-8.01.967 0 3.191.211 4.545 1.829 1.1 1.275 1.17 2.488 1.249 3.306zM880.11 166.415c-1.117 0-5.346 0-5.346 3.007 0 .94.598 2.576 3.077 2.576 1.424 0 2.47-.571 3.156-1.591.624-1.002.642-1.829.712-3.904l-1.6-.088m1.926 7.289-.273-2.216c-1.327 2.47-3.34 2.69-4.572 2.69-3.384 0-5.23-1.925-5.23-4.36 0-1.187.421-3.086 2.593-4.335 1.609-.896 3.956-.984 5.125-.984.721 0 1.17.026 2.031.088 0-1.838 0-2.62-.536-3.289l-2.567-.967c-2.805 0-2.954 1.917-2.98 2.524h-2.788c.088-.792.194-1.812 1.038-2.823 1.116-1.23 3.218-1.59 4.791-1.59 2.137 0 4.458.676 5.24 2.188.502.888.51 1.592.51 2.269l-.123 7.095c0 .228.035 2.215.238 3.71zM886.391 158.832h2.646v-3.112l2.743-.88v3.992h3.306v2.022h-3.306v8.898c0 .747 0 1.97 1.979 1.97l1.327-.141v2.154c-.51.087-1.31.175-2.312.175-2.532 0-3.737-.73-3.737-3.156v-9.9h-2.646zM897.788 158.876h2.796V173.7h-2.796zm-.29-6.427h3.34v3.034h-3.34zM911.5 172.139c2.092 0 4.501-1.495 4.501-5.961 0-3.684-1.732-5.644-4.325-5.644-1.776 0-4.642 1.125-4.642 5.758 0 3.042 1.31 5.847 4.466 5.847m.176-13.636c5.925 0 7.27 4.66 7.27 7.763 0 4.334-2.461 7.939-7.508 7.939-4.906 0-7.28-3.394-7.28-7.737 0-3.657 1.697-7.965 7.518-7.965M922.637 160.597l-.035-1.723h2.77l.035 2.4c.316-.624 1.38-2.69 4.747-2.69 1.337 0 5.381.51 5.381 5.055v10.067h-2.822v-9.425c0-.959-.123-1.864-.818-2.532-.694-.669-1.67-1.011-2.602-1.011-2.031 0-3.886 1.45-3.886 4.43v8.538h-2.77z" style="stroke-width:8.79188" transform="scale(.72528)"/><path fill="#80bb3d" d="M178.461 164.386a56.425 56.425 0 0 1-6.216-10.489h-17.689a73.007 73.007 0 0 0 10.77 20.354c4.668 6.216 10.216 11.596 16.52 16.115l2.277.018c9.363 0 18.753-1.214 27.993-3.5-14.031-4.114-25.593-11.754-33.655-22.498" style="stroke-width:8.79188" transform="scale(.72528)"/><path fill="#0069aa" d="M295.874 153.897h-22.885c-17.083 15.658-38.456 27.448-60.875 32.987 7.877 2.303 16.537 3.499 25.786 3.499 4.124 0 8.265-.229 12.397-.695a160.855 160.855 0 0 0 19.79-12.326c9.671-7.033 18.305-14.929 25.787-23.465M124.69 164.386a56.425 56.425 0 0 1-6.215-10.489h-17.69a73.47 73.47 0 0 0 10.77 20.354c15.765 20.995 41.534 32.565 72.569 32.565 9.17 0 18.445-1.029 27.668-3.025-11.2-2.708-21.276-7.235-29.945-13.425-24.705-.545-44.935-9.715-57.156-25.98M325.454 62.778h-16.871c2.584 10.172 2.602 21.381-.036 33.048l-1.776 6.656c-2.822 9.178-7.068 18.023-12.431 26.34-5.68 3.913-11.852 3.983-14.182 3.983-17.117 0-14.787-11.21-12.396-20.16l13.381-49.867h-17.566l-13.126 48.953c-2.04 7.605-3.508 13.952-1.214 20.186 4.405 12.344 18.877 14.164 27.035 14.164 15.57 0 30.183-5.803 31.58-7.94a133.426 133.426 0 0 0 4.845-8.035c4.379-7.878 7.834-16.054 10.27-24.407 2.663-9.231 4-18.33 4-27.087 0-5.416-.51-10.718-1.513-15.834M151.568 144.493h16.871c-2.576-10.172-2.593-21.373.027-33.049l1.784-6.664c2.823-9.17 7.051-18.015 12.44-26.332 5.68-3.912 11.835-4 14.165-4 17.109 0 14.788 11.227 12.379 20.168l-13.355 49.877h17.566l13.109-48.962c2.04-7.588 3.516-13.935 1.222-20.178C223.37 63.001 208.908 61.2 200.749 61.2c-15.57 0-30.182 5.793-31.598 7.939a130.234 130.234 0 0 0-4.826 8.027c-4.387 7.868-7.843 16.062-10.27 24.406-2.672 9.24-4 18.33-4 27.079 0 5.424.51 10.708 1.513 15.843M21.9 62.778h17.558l-9.443 35.246L66.95 62.558h20.512l-39.88 36.715 20.529 45.225H46.236l-17.495-41.717-11.184 41.717H0ZM116.414 105.704c4.528-15.553 13.118-30.174 24.45-42.922h-21.039c-8.748 11.992-15.289 24.942-19.175 38.333-4.404 15.122-5.16 29.848-2.409 43.379h16.89c-3.095-11.825-2.708-25.066 1.283-38.79" style="stroke-width:8.79188" transform="scale(.72528)"/><path fill="#80bb3d" d="M181.094 53.37h22.789c17.161-15.888 38.737-27.853 61.367-33.436-7.878-2.312-16.529-3.508-25.769-3.508-4.141 0-8.282.246-12.414.703a164.4 164.4 0 0 0-19.8 12.318c-9.829 7.156-18.612 15.21-26.173 23.922" style="stroke-width:8.79188" transform="scale(.72528)"/><path fill="#80bb3d" d="M365.798 32.565C350.043 11.57 324.265 0 293.238 0c-9.151 0-18.427 1.02-27.658 3.007 11.2 2.717 21.276 7.253 29.936 13.451 24.714.52 44.953 9.698 57.156 25.972 11.781 15.693 14.735 36.53 8.282 58.685-13.197 45.42-61.236 83.03-110.655 88.57-12.396 6.54-25.4 11.297-38.517 14.11 8.159 1.997 16.916 3.016 26.12 3.016 29.304 0 59.83-10.462 85.95-29.452 26.209-19.044 44.988-44.496 52.883-71.654 7.904-27.237 4.036-53.217-10.937-73.14" style="stroke-width:8.79188" transform="scale(.72528)"/><path fill="#0067ac" d="M265.252 19.936c14.032 4.114 25.584 11.746 33.655 22.498a55.155 55.155 0 0 1 6.427 10.937h17.61a73.016 73.016 0 0 0-10.902-20.801c-4.668-6.225-10.225-11.606-16.528-16.116l-2.278-.035c-9.345 0-18.753 1.24-27.984 3.517" style="stroke-width:8.79188" transform="scale(.72528)"/><path fill="#0069aa" d="M227.066 17.13C239.471 10.596 252.475 5.84 265.575 3 257.407 1.032 248.677.004 239.48.004c-29.312 0-59.846 10.462-85.967 29.452-9.83 7.148-18.63 15.202-26.182 23.914h22.78c21.083-19.518 48.786-33.083 76.955-36.24" style="stroke-width:8.79188" transform="scale(.72528)"/><path fill="#80bb3d" d="M239.481 16.426c9.25 0 17.892 1.196 25.77 3.517 9.23-2.286 18.638-3.517 27.984-3.517l2.286.026c-8.67-6.19-18.736-10.726-29.946-13.451-13.1 2.84-26.103 7.587-38.508 14.128a112.99 112.99 0 0 1 12.414-.703" style="stroke-width:8.79188" transform="scale(.72528)"/><path fill="#0069aa" d="M237.9 190.386c-9.258 0-17.918-1.195-25.786-3.508-9.232 2.286-18.621 3.508-27.985 3.508l-2.277-.026c8.669 6.198 18.736 10.726 29.936 13.434 13.118-2.805 26.112-7.57 38.509-14.111a110.55 110.55 0 0 1-12.397.703" style="stroke-width:8.79188" transform="scale(.72528)"/></svg>