<svg xmlns="http://www.w3.org/2000/svg" width="961.51923pt" height="300pt" viewBox="0 0 961.51918 299.99999"><path fill="#0072b0" d="M382.802 201.524h12.83v10.406h-12.83v36.99H371.01v-65.543c0-1.151-.33-2.27-.983-3.35-.66-1.076-1.637-1.618-2.944-1.618h-1.973v-5.782h17.692zm-59.301 9.251c0 3.546.943 6.761 2.831 9.65 1.886 2.89 4.181 4.333 6.883 4.333 2.696 0 4.982-1.406 6.871-4.218 1.889-2.812 2.837-5.988 2.837-9.533 0-3.622-.926-6.857-2.775-9.709-1.855-2.851-4.124-4.28-6.82-4.28-2.544 0-4.82 1.406-6.82 4.218-2.005 2.815-3.007 5.993-3.007 9.54m14.792 32.481v22.427c0 .539.136.957.41 1.273.27.302.632.457 1.098.457h44.04v10.403h-49.703c-2.626 0-4.588-.748-5.9-2.247-1.31-1.507-1.96-3.879-1.96-7.114v-14.677c0-1.307-.333-2.428-.988-3.354-.655-.926-1.637-1.389-2.944-1.389h-1.965v-5.779zm-22.652-47.049h-10.984v-10.287h22.197v-5.432c0-1.005-.29-1.832-.87-2.487-.58-.655-1.134-.982-1.676-.982h-1.499v-4.971h16.648v13.872h22.189v10.287h-11.098c1.386 2.007 2.485 4.263 3.295 6.767a25.25 25.25 0 0 1 1.217 7.8c0 6.629-2.163 12.331-6.474 17.11-4.316 4.775-9.48 7.163-15.49 7.163s-11.16-2.388-15.43-7.162c-4.28-4.78-6.42-10.482-6.42-17.11 0-2.697.384-5.3 1.157-7.8.77-2.505 1.852-4.76 3.238-6.768M435.747 223.502h-36.765v-10.406h62.426c1.222-2.233 2.041-4.717 2.425-7.453.387-2.735.579-6.38.579-10.922v-6.016c0-.844-.138-1.423-.412-1.73-.271-.311-.785-.466-1.556-.466H408.23v-10.403h67.27c.309 0 .54.098.695.29.156.195.237.52.237.983v18.61c0 4.934-.248 8.556-.753 10.868-.503 2.31-1.364 4.393-2.598 6.24h12.365v10.405H448.81v17.336h25.893c.308 0 .528.1.683.291.155.192.237.48.237.867v36.99h-12.258V252.4c0-.384-.07-.672-.225-.864-.156-.195-.387-.294-.695-.294h-52.599v-10.403h25.902zM546.832 185.98h-20.693v16.879h20.693zm-39.771 77.684c0-1.312-.32-2.43-.974-3.353-.658-.926-1.638-1.39-2.95-1.39H502.1v-5.778h54.79V246.9h-53.754v-9.94h64.735c.3 0 .53.076.686.232.153.155.237.502.237 1.036v22.542c0 .615-.132 1.135-.403 1.564-.271.42-.8.635-1.562.635h-47.749v4.853c0 .308.082.539.237.694.156.153.427.232.81.232h49.709v10.171h-54.909c-2.938 0-4.97-.717-6.134-2.14-1.155-1.425-1.733-3.907-1.733-7.453zm36.067-43.466h36.649v10.174H493.31v-10.174h36.761v-6.936h-27.513v-10.403h11.786v-16.88h-11.786v-10.402h68.084v10.403h-12.027v16.879h12.027v10.403h-27.514zM655.73 234.882v-51.554c0-1.152-.325-2.27-.988-3.351-.655-1.076-1.632-1.615-2.939-1.615h-1.968v-5.785h17.574v106.35h-11.68v-33.639c-1.845.926-4.047 1.558-6.588 1.906-2.54.347-5.785.519-9.714.519h-34.91c-2.922 0-4.966-.711-6.12-2.134-1.164-1.429-1.737-3.916-1.737-7.462v-18.954c0-1.307-.33-2.427-.98-3.353-.657-.92-1.642-1.384-2.95-1.384h-1.038v-6.016h37.219V189.8h-35.712v-10.286h46.696c.308 0 .556.098.743.29.2.195.299.48.299.867v35.717c0 .619-.144 1.138-.415 1.562-.268.423-.788.635-1.553.635h-30.288v18.728h34.675c2.928 0 5.378-.215 7.34-.638 1.974-.426 3.65-1.022 5.034-1.793M764.043 237.314h-11.21v-54.217c0-1.307-.269-2.425-.81-3.354-.54-.92-1.576-1.383-3.12-1.383h-1.036v-5.784h16.176zm-27.855-36.643v-17.574c0-1.307-.294-2.425-.873-3.354-.573-.92-1.598-1.383-3.066-1.383h-1.146v-5.784h16.292v64.738h-11.207v-26.24h-10.412V200.67zm25.893 41.264c.615 0 1.09.215 1.442.638.347.427.52.983.52 1.672v34.68h-12.258v-25.43c0-.383-.07-.677-.226-.869-.155-.195-.418-.288-.81-.288h-50.047v-10.403zm-61.73-30.977v7.74c0 .774.195 1.353.582 1.737.379.387.847.582 1.39.582h26.35v10.397h-28.321c-3.936 0-6.886-1.152-8.848-3.467-1.959-2.312-2.944-5.934-2.944-10.863v-27.282c0-1.307-.328-2.425-.988-3.354-.655-.926-1.632-1.389-2.94-1.389h-1.961v-5.779h42.075v10.406h-24.394v10.985h20.461v10.287zM839.488 206.1h7.515v-23.002c0-1.307-.291-2.428-.875-3.354-.58-.92-1.595-1.383-3.06-1.383h-1.155v-5.784h16.3v106.35h-11.21v-62.42h-7.515v62.42h-11.222V244.94c-1.846.85-3.986 1.429-6.411 1.736-2.43.308-5.607.463-9.54.463h-16.762c-3.925 0-6.869-1.157-8.842-3.466-1.965-2.312-2.94-5.934-2.94-10.87v-41.495c0-1.313-.33-2.428-.982-3.354-.654-.926-1.643-1.389-2.95-1.389h-1.962v-5.779h40.912v10.406h-23.115v43.227c0 .773.172 1.352.514 1.739.353.384.799.578 1.34.578h18.72c2.854 0 5.243-.194 7.174-.578 1.917-.387 3.54-.93 4.844-1.624v-51.436c0-1.307-.268-2.428-.81-3.354-.534-.92-1.575-1.383-3.108-1.383h-1.042v-5.784h16.182zM948.683 194.51h12.836v11.564h-12.836v28.897h-11.79V183.3c0-1.158-.324-2.27-.976-3.352-.655-1.08-1.643-1.62-2.947-1.62h-1.965v-5.779h17.678zm-59.406 13.526c0 3.546.884 6.688 2.651 9.423 1.776 2.736 4.009 4.102 6.705 4.102 2.701 0 4.915-1.33 6.645-3.986 1.73-2.656 2.609-5.762 2.609-9.308 0-3.622-.878-6.78-2.609-9.477-1.73-2.696-3.904-4.048-6.527-4.048-2.543 0-4.765 1.336-6.645 3.992-1.886 2.66-2.829 5.756-2.829 9.302m57.444 31.556c.62 0 1.1.215 1.442.638.353.426.52.983.52 1.677v36.988h-12.247v-27.742c0-.384-.082-.672-.237-.864-.15-.195-.418-.294-.81-.294h-49.581v-10.403zm-65.769-45.197h-10.869v-10.29h22.077v-4.85c0-1.005-.269-1.832-.81-2.487-.54-.658-1.08-.983-1.616-.983h-1.499v-4.974h16.524v13.294h22.316v10.29h-10.99c1.236 1.93 2.2 4.048 2.894 6.357.697 2.315 1.038 4.743 1.038 7.284 0 6.55-2.117 12.159-6.351 16.817-4.246 4.664-9.291 6.998-15.143 6.998-5.937 0-11.005-2.334-15.205-6.998-4.204-4.658-6.304-10.268-6.304-16.817 0-2.54.353-4.969 1.042-7.284a25.144 25.144 0 0 1 2.896-6.357"/><path fill="#fcb237" d="M151.781 194.792c1.508.514 3.063.937 4.65 1.312.598.144 1.315.249 2.069.342 3.498.469 8.596.534 14.364.034 8.251-.706 17.79-2.597 25.681-6.11 3.783-1.357 10.818-4.395 14.417-8.426.235-2.603-.208-5.324-.892-7.857-1.044-3.83-2.684-7.173-3.57-8.782-2.465 3.032-7.95 7.563-13.216 10.276-7.901 4.511-14.634 5.83-22.42 7.032-6.09.946-11.925.776-17.179-.502-.42-.105-.866-.167-1.29-.294-8.026-2.772-16.52-10.25-20.23-17.308a31.335 31.335 0 0 1-2.044-6.445c1.152 11.123 5.573 26.07 19.66 36.728"/><path fill="#c2cbdc" d="M201.96 290.836c0-2.52-14.25-4.542-31.82-4.542-17.583 0-31.84 2.021-31.84 4.542 0 2.504 14.257 4.543 31.84 4.543 17.57 0 31.82-2.039 31.82-4.543"/><path fill="#c2cbdc" d="M244.62 288.035c0-2.52-14.242-4.553-31.815-4.553-17.58 0-31.824 2.032-31.824 4.553 0 2.524 14.245 4.543 31.824 4.543 17.573 0 31.816-2.019 31.816-4.543"/><path fill="#0072b0" d="M207.867 273.766c-5.917 9.036-15.86 13.387-22.099 9.643-6.23-3.715-6.23-13.663-.304-22.711 6.222-8.712 15.874-12.758 21.78-9.336 6.233 3.723 6.53 13.985.623 22.404m-2.17-30.8c-11.214-2.504-24.276 6.208-28.945 19.6-5.302 13.387-.325 26.455 10.888 28.943 10.886 2.811 23.968-5.906 28.94-18.994 4.99-13.68 0-26.765-10.884-29.549"/><path fill="#b8bf26" d="M120.208 71.118c.584-.684 1.202-1.192 1.53-2.169.327-.98-.254-1.643-1.175-1.736-1.623-.248-3.314.427-6.831 2.09-2.617 1.213-18.562 8.096-24.033 12.655-.655.556-2.033.638-2.326-.05-1.443-2.403.55-10.9.689-13.232.048-.706-.63-1.17-1.274-.33-2.371 2.628-12.619 19.964-15.75 29.475-1.953 1.598-5.499 6.27-6.044 7.046-.533.768-.996 1.51-1.499 2.261-.474.746-.97 1.87.78 3.05.539.358 2.902 2.046 2.955 2.602.062.8-.38 2.68-.53 4.063-.373 2.995-1.514 17.644-.737 23.132.107.72.034 1.411.578 1.411.565 0 1.2-2.14 1.858-3.65 2.493-5.471 5.544-13.98 7.961-17.475.43-.567.855-.607 1.166-.307 3.557 3.5 9.652 9.302 13.83 12.994 3.876 3.43 7.109 6.375 9.48 8.243 2.371 1.87 6.109 4.65 8.286 5.42 2.173.752 3.235-2.904 1.58-5.137-1.654-2.25-8.319-11.57-11.628-17.012-3.562-5.86-7.309-14.626-9.37-20.024-.268-.74-.355-1.445-.386-2.19.686-5.398 18.607-22.783 30.89-31.13"/><path fill="#f58432" d="M245.922 99.089c-.977-2.436-2.12-4.79-3.506-7.013C235.703 81.103 225 73.752 211.47 70.881c-15.973-3.286-33.375.28-48.797 8.743-13.762 8.272-25.958 19.928-34.661 33.91a77.354 77.354 0 0 0-3.806 7.566c-3.811 9.026-5.691 18.178-5.691 26.913 0 11.122 4.322 23.792 9.124 29.955 5.618 7.241 13.994 13.483 24.143 16.823-14.087-10.657-18.508-25.606-19.66-36.726a36.064 36.064 0 0 1-.692-7.08c0-1.12.096-2.267.192-3.413.898-10.725 5.872-22.52 14.59-33.436 13.994-17.825 34.424-28.93 52.503-30.266.68-.048 1.347-.048 2.01-.065 8.774-.717 32.843-.844 45.304 15.586a6.438 6.438 0 0 0-.107-.302"/><path fill="#fcb237" d="M249.23 112.333a50.975 50.975 0 0 0-3.201-12.94c-12.461-16.431-36.53-16.304-45.305-15.587 4.32-.144 8.5.251 12.374 1.304 2.335.63 4.576 1.474 6.665 2.578 7.851 3.881 13.226 10.408 15.476 18.844.785 2.933 1.172 6.038 1.172 9.242a39.562 39.562 0 0 1-.263 4.537c-1.126 10.448-6.007 21.763-14.155 32.169-.996 1.301-8.051 9.592-12.342 12.266 2.08 2.244 3.571 5.09 4.81 8.096.952 2.298 1.762 4.664 2.527 6.95 8.619-6.82 21.676-21.076 26.622-33.935 3.413-8.85 5.753-17.441 5.967-25.811 0-.469.02-.952.02-1.42 0-2.129-.135-4.24-.367-6.293"/><path fill="#0072b0" d="M132.878 205.323v.093c0-.042 0-.065.009-.093.082-1.383.234-2.944.471-4.599.636-4.13 1.88-8.85 4.136-12.94.04-.071.076-.145.136-.21-2.86-2.077-5.43-4.367-7.66-6.843-.338.641-.668 1.308-.953 1.962a39.136 39.136 0 0 0-1.308 3.31c-1.603 4.558-2.958 10.543-3.235 17.03a37.61 37.61 0 0 0-.068 1.898c0 .386.015.79.032 1.185.124 6.59 2.614 12.809 5.922 18.043 1.762 2.828 3.927 5.205 6.38 7.26a38.427 38.427 0 0 1-1.874-4.768c-.073-.132-.121-.27-.18-.386.059.11.107.225.155.347-2.132-6.897-2.406-14.364-2.016-20.369v-.127c.011-.231.037-.485.053-.7zM217.403 169.456c-5.347-13.774-19.79-18.962-25.89-20.224-5.208-1.104-10.14-1.313-14.714-.904-2.947.249-5.73.765-8.384 1.482h-.009c-14.092 3.783-24.504 12.456-28.786 17.407-.458.497-1.18 1.29-2.05 2.315 2.163 2.665 4.82 5.206 7.704 7.357a94.473 94.473 0 0 1 2.194-2.52c7.351-7.62 14.722-12.259 20.947-15.065 5.73-2.586 10.917-3.466 15.481-3.418.345 0 .68.034 1.04.045 5.21-.187 21.297.562 32.634 13.994-.076-.156-.11-.32-.167-.469"/><path fill="#009edd" d="M217.57 169.925c-11.337-13.433-27.423-14.18-32.634-13.994 10.617.49 17.52 6.17 19.08 7.67 4.62 4.53 6.926 10.725 7.01 17.686.068 5.05-2.526 15.516-10.767 27.31-11.524 14.884-29.543 23.505-44.41 22.416.444-11.106 1.505-18.401 1.545-18.565.59-3.966-2.129-7.676-6.092-8.271-3.964-.607-7.021 2.21-8.28 6.075-.18.548-2.084 5.477-4.139 13.229-3.994-4.246-6.146-10.002-6.086-16.447.01-.232.022-.52.028-.79-.39 6.004-.116 13.47 2.016 20.368.042.067.087.132.124.203-.034-.065-.082-.133-.1-.164a38.427 38.427 0 0 0 1.875 4.768c.065.057.139.122.2.167-3.282 15.608-5.623 37.73.26 59.343 1.068 3.86 11.584 4.45 15.448 3.413 3.854-1.075 9.777-3.362 8.718-7.238-4.579-16.758-5.74-34.165-5.68-47.964 22.813 2.79 49.553-12.69 59.188-35.836 3.142-6.925 3.933-10.524 4.486-20.196.294-5.073-.415-9.446-1.79-13.183"/><path fill="#006baa" d="m97.448 300-2.25-.926 3.044-7.405-.046-.017-6.597 5.937-2.25-.92 6.914-6.075-.506-10.285 2.518 1.04.218 9.58.045.023 3.337-8.122 2.253.926zM69.506 269.636c.898-1.214.83-2.261.031-2.857-.822-.613-1.846-.37-2.744.844l-5.502 7.394c-1.028 1.388-1.04 2.382-.141 3.048.88.658 1.826.353 2.857-1.024zm-3.43 8.695c-1.465 1.967-3.402 3.232-6.058 1.256-2.519-1.874-2.346-3.774-.723-5.96l5.296-7.128c1.465-1.97 3.402-3.226 6.078-1.242 2.498 1.858 2.326 3.76.703 5.946zM39.204 248.832l-.399-.491c-1.21-1.494-1.66-1.47-3.703.178-2.022 1.637-2.12 1.905-1.172 3.077l.734.909zm-4.596 6.849-2.372-2.933c-2.236-2.758-1.728-3.64 1.26-6.056 1.834-1.488 2.828-1.88 4.553-.711l.04-.031c-.91-1.398-.6-2.366.685-3.41l2.97-2.397c.491-.398 1.172-.949 1.646-1.528l1.44 1.782c-.186.463-.497.776-1.045 1.222l-3.082 2.493c-1.285 1.042-1.443 1.544-.432 2.79l.522.646 5.934-4.808 1.533 1.891zM13.378 223.254l-2.806-5.994 1.852-.866 1.773 3.794 4.98-2.326-1.672-3.574 1.852-.864 1.672 3.565 5.375-2.512-1.776-3.789 1.852-.872 2.803 5.993zM11.428 183.604l-.585-3.026-8.026 3.083.009.042zm-10.894 1.83L0 182.66l16.569-6.831.46 2.388-4.243 1.632.72 3.726 4.545-.054.46 2.386zM8.5 124.783l.271-1.23c.353-1.621.127-1.841-2.462-2.409-2.591-.567-2.888-.457-3.243 1.158l-.269 1.242zm-8.22.694.857-3.92c.709-3.23 1.722-3.657 5.692-2.79 3.969.867 4.711 1.677 4.006 4.912l-.34 1.544 7.462 1.632-.52 2.377zM25.296 92.825c1.347.672 2.372.418 2.818-.468.454-.915.042-1.88-1.307-2.558l-8.244-4.124c-1.544-.774-2.526-.607-3.023.39-.491.976-.034 1.865 1.51 2.63zm-9.16-1.863c-2.197-1.104-3.772-2.789-2.296-5.745 1.406-2.806 3.309-2.967 5.745-1.753l7.942 3.975c2.196 1.095 3.774 2.783 2.283 5.767-1.394 2.784-3.297 2.95-5.733 1.725zM32.92 56.07l1.58-1.846 11.792 10.09 2.656-3.106 1.553 1.324-4.237 4.958zM56.737 32.742l1.957-1.446 6.095 4.692.04-.025-2.437-7.394 1.722-1.27 3.436 10.338 4.276 5.801-1.959 1.446-4.274-5.796zM89.914 12.815l7.645-3.16.779 1.892-2.696 1.113L101.567 27l-2.25.932-5.925-14.34-2.699 1.109zM126.56 1.727 133.1.73l.308 2.016-4.135.63.83 5.436 3.895-.595.308 2.024-3.896.596.895 5.866 4.136-.635.308 2.018-6.541 1.002zM162.486 4.268c.22-2.447 1.211-4.536 4.506-4.24 2.4.21 3.404 1.527 3.23 3.484l-.156 1.75-2.278-.206.107-1.211c.102-1.115-.223-1.855-1.242-1.942-1.26-.11-1.58.762-1.77 2.868l-.765 8.58c-.184 2.054.437 2.48 1.214 2.551.898.076 1.533-.502 1.663-1.956l.11-1.208 2.275.203-.172 1.942c-.164 1.84-1.042 3.176-3.854 2.928-3.049-.277-3.898-1.985-3.655-4.698zM200.056 6.843l2.298.8-2.476 7.125 3.054 1.064 2.479-7.125 2.295.798-5.77 16.586-2.298-.799 2.622-7.538-3.057-1.058-2.62 7.532-2.298-.794zM235.377 23.203l2.798 1.857-5.695 13.746.043.028 8.08-12.159 1.905 1.27-9.725 14.621-2.917-1.934 5.906-14.073-.04-.025-8.296 12.478-1.785-1.186zM265.606 48.015l1.66 1.781-12.853 11.97-1.655-1.781zM281.639 76.278c2.129-1.23 4.404-1.614 6.058 1.251 1.2 2.086.706 3.667-1 4.65l-1.518.875-1.14-1.98 1.053-.612c.968-.556 1.386-1.245.875-2.131-.633-1.098-1.533-.856-3.368.197l-7.459 4.306c-1.792 1.027-1.781 1.78-1.392 2.453.45.779 1.29.97 2.555.243l1.053-.605 1.14 1.98-1.685.968c-1.6.928-3.2.976-4.61-1.466-1.53-2.659-.615-4.333 1.745-5.696zM289.063 111.705l.675 2.343-1.38.392c-1.124.325-1.703.949-1.432 1.886.356 1.24 1.285 1.296 2.383.98 1.426-.413 1.874-.616 3.58-3.738 1.067-1.923 2.063-3.557 4.356-4.218 2.758-.793 4.322.15 5.053 2.696.364 1.262.206 2.295-.144 3.001-.263.511-.765.957-1.957 1.301l-1.589.458-.632-2.197 1.33-.383c.96-.277 1.405-.839 1.143-1.75-.277-.952-.94-1.246-2.25-.87-1.146.33-1.782.765-3.405 3.568-1.725 2.976-2.42 3.628-4.452 4.218-2.642.76-4.46.17-5.26-2.614-.62-2.146-.132-3.888 1.971-4.495z"/></svg>