<svg xmlns="http://www.w3.org/2000/svg" xml:space="preserve" width="456.54001" height="111.98827" viewBox="0 0 456.54001 111.98827"><defs><linearGradient id="a" x1="0" x2="1" y1="0" y2="0" gradientTransform="rotate(-90 52.433 4.87) scale(27.58449)" gradientUnits="userSpaceOnUse" spreadMethod="pad"><stop offset="0" style="stop-opacity:1;stop-color:#8cc63f"/><stop offset="1" style="stop-opacity:1;stop-color:#005bab"/></linearGradient><linearGradient id="b" x1="0" x2="1" y1="0" y2="0" gradientTransform="rotate(-84.921 43.87 16.128) scale(28.24298)" gradientUnits="userSpaceOnUse" spreadMethod="pad"><stop offset="0" style="stop-opacity:1;stop-color:#00aeef"/><stop offset="1" style="stop-opacity:1;stop-color:#2e3092"/></linearGradient></defs><path d="M74.959 27.616V16.061h-5.992v12.923c0 3.995.328 6.934.98 8.812.783 2.248 2.18 3.875 4.19 4.896 2.009 1.016 7.914 1.528 17.704 1.528v-4.899h-9.56c-2.553 0-4.357-.52-5.4-1.563a6.36 6.36 0 0 1-1.412-2.196c-.34-.914-.51-1.957-.51-3.132H91.84v-4.814zM95.756 44.219h6.187V16.062h-6.187z" style="fill:#0068a9;fill-opacity:1;fill-rule:nonzero;stroke:none" transform="matrix(1.33333 0 0 -1.33333 0 111.988)"/><path d="M165.819 47.317h3.438V12.963h-3.438z" style="fill:#58595b;fill-opacity:1;fill-rule:nonzero;stroke:none" transform="matrix(1.33333 0 0 -1.33333 0 111.988)"/><path d="M123.366 38.227c-.732.627-2.182.939-4.351.939h-7.241v-7.128h7.24c2.143 0 3.567.314 4.274.942.676.653 1.017 1.542 1.017 2.662 0 1.176-.314 2.038-.94 2.585m1.563-22.165-6.222 11.005h-6.932V16.061h-5.916v28.157h15.978l1.098-.194.823-.118c.26 0 .43-.012.506-.04.13-.028.445-.105.94-.233 1.646-.392 2.928-1.395 3.84-3.014.808-1.44 1.214-3.124 1.214-5.057 0-1.93-.455-3.576-1.37-4.933-.863-1.336-2.283-2.259-4.271-2.78l6.935-11.788z" style="fill:#0068a9;fill-opacity:1;fill-rule:nonzero;stroke:none" transform="matrix(1.33333 0 0 -1.33333 0 111.988)"/><path d="m146.197 38.538-8.5-22.477h-6.265L143.26 44.22h6.265l12.023-28.158h-6.58z" style="fill:#0068a9;fill-opacity:1;fill-rule:nonzero;stroke:none" transform="matrix(1.33333 0 0 -1.33333 0 111.988)"/><path d="M148.653 26.357a2.376 2.376 0 1 0-4.75 0 2.374 2.374 0 1 0 4.75 0" style="fill:#0068a9;fill-opacity:1;fill-rule:nonzero;stroke:none" transform="matrix(1.33333 0 0 -1.33333 0 111.988)"/><path d="M178.373 37.176a2.097 2.097 0 0 0 .623 1.51c.187.192.41.343.676.446.26.107.54.164.85.164.302 0 .594-.057.855-.158.263-.11.48-.255.663-.451a2.08 2.08 0 0 0 .442-.674c.107-.256.156-.541.156-.837 0-.636-.198-1.138-.581-1.54-.392-.403-.894-.6-1.534-.6a2.24 2.24 0 0 0-.851.16 2.09 2.09 0 0 0-.683.44c-.19.183-.343.415-.453.686a2.17 2.17 0 0 0-.163.854m2.127-4.478c.707 0 1.357.119 1.94.338a4.613 4.613 0 0 1 1.513.94c.428.396.758.878.995 1.412.24.534.364 1.12.364 1.749 0 .653-.143 1.263-.406 1.82a5.143 5.143 0 0 1-.561.865h1.552c.174 0 .312.14.312.316v1.524a.315.315 0 0 1-.312.318h-4v.614c0 .346-.08.652-.25.928-.19.305-.545.468-1.042.468h-1.685a.312.312 0 0 1-.308-.316c0-.1.047-.203.129-.26.179-.126.297-.275.375-.45.074-.188.119-.378.119-.566v-.418h-4.163a.316.316 0 0 1-.313-.318v-1.524c0-.176.139-.316.313-.316h1.593a4.699 4.699 0 0 1-.563-.864 4.184 4.184 0 0 1-.398-1.821c0-.628.116-1.215.357-1.75a4.24 4.24 0 0 1 .994-1.41 4.55 4.55 0 0 1 1.517-.941 5.445 5.445 0 0 1 1.928-.338M190.204 27.513h-9.24c-.14 0-.147.003-.147.139v3.729a.313.313 0 0 1-.317.314h-2.078a.315.315 0 0 1-.314-.314v-4.2c0-.61.189-1.078.564-1.386a1.966 1.966 0 0 1 1.29-.454h10.242c.176 0 .318.143.318.32v1.527a.325.325 0 0 1-.318.325M192.731 38.632h-2.54v3.717c0 .88-.481 1.372-1.372 1.372h-1.643a.31.31 0 0 1-.298-.23.329.329 0 0 1 .135-.36.898.898 0 0 0 .355-.4 1.47 1.47 0 0 0 .118-.587V30.629a.31.31 0 0 1 .309-.315h2.089c.167 0 .307.139.307.315v5.763h2.54c.172 0 .308.143.308.32v1.6c0 .178-.136.32-.308.32M211.207 37.065h-2.252v4.792c0 .585-.144 1.031-.422 1.357-.289.332-.742.506-1.357.506h-10.877a.318.318 0 0 1-.315-.319v-1.525c0-.17.143-.32.315-.32h9.679s.184-.019.229-.028v-.004h-.012c0-.002.012-.002.012-.007 0-.048.018-.193.018-.193v-4.259h-12.248a.31.31 0 0 1-.317-.313V35.22a.31.31 0 0 1 .317-.313h7.275v-2.666h-5.078a.318.318 0 0 1-.311-.316V30.4c0-.176.145-.322.311-.322h9.804s.229-.03.239-.03c0-.01.027-.083.027-.259V25.32a.32.32 0 0 1 .315-.32h2.087a.32.32 0 0 1 .309.32v5.062c0 .542-.133.99-.391 1.325-.275.352-.738.534-1.388.534h-3.209v2.666h7.24c.166 0 .314.14.314.313v1.532a.318.318 0 0 1-.314.313M230.238 34.166h-17.227a.313.313 0 0 1-.312-.321v-1.524c0-.176.137-.312.312-.312h7.284v-6.172c0-.169.138-.315.31-.315h2.086c.17 0 .31.146.31.315v6.172h7.237c.178 0 .318.136.318.312v1.524c0 .181-.14.321-.318.321M214.633 35.81a.312.312 0 0 1 .34-.18c.742.141 1.498.34 2.228.595.73.261 1.424.577 2.057.93.63.357 1.199.758 1.695 1.188.379.343.68.71.942 1.076.263-.374.54-.755.916-1.097.494-.448 1.047-.85 1.656-1.209a11.218 11.218 0 0 1 1.922-.9c.67-.237 1.344-.42 1.992-.545a.323.323 0 0 1 .344.18l.619 1.4a.332.332 0 0 1 0 .279.346.346 0 0 1-.23.166c-.592.1-1.262.304-1.981.598a9.07 9.07 0 0 0-1.965 1.119 6.462 6.462 0 0 0-1.5 1.514c-.381.545-.568 1.118-.568 1.728v.157c0 .348-.094.635-.293.87-.213.245-.56.363-1.055.363h-1.582a.316.316 0 0 1-.301-.22.312.312 0 0 1 .112-.355.706.706 0 0 0 .269-.328c0-.007.053-.487.069-.543a2.75 2.75 0 0 0-.57-1.652 6.433 6.433 0 0 0-1.511-1.415 10.028 10.028 0 0 0-2.015-1.045 10.775 10.775 0 0 0-2.104-.57.326.326 0 0 1-.222-.157.331.331 0 0 1-.008-.285zM237.322 36.041c.227.285.348.575.494.868.147-.248.264-.489.47-.733a8.401 8.401 0 0 1 1.124-1.096l1.31-.943 1.375-.697c.14-.075.282-.02.368.107l.884 1.258a.325.325 0 0 1 .05.265.338.338 0 0 1-.177.208 9.352 9.352 0 0 0-1.566.885c-.5.357-.957.777-1.336 1.235a6.39 6.39 0 0 0-.95 1.522 4.071 4.071 0 0 0-.349 1.702v1.357c0 .535-.074.928-.234 1.225-.123.231-.414.517-1.04.517h-1.767a.32.32 0 0 1-.197-.565.932.932 0 0 0 .31-.455l.1-.621v-1.541a4.97 4.97 0 0 0-.332-1.805 5.856 5.856 0 0 0-.924-1.571 7.992 7.992 0 0 0-1.39-1.315 10.537 10.537 0 0 0-1.746-1.019.303.303 0 0 1-.17-.21.299.299 0 0 1 .05-.265l1.045-1.419a.326.326 0 0 1 .37-.113 9.55 9.55 0 0 1 1.576.835c.535.339 1.027.715 1.465 1.114.445.403.85.828 1.187 1.27M247.701 27.513h-9.318c-.135 0-.149.003-.149.139v4.114a.312.312 0 0 1-.31.314h-2.086a.317.317 0 0 1-.315-.314V27.18c0-.61.194-1.078.567-1.386.357-.298.795-.454 1.314-.454h10.297c.18 0 .314.143.314.32v1.527a.319.319 0 0 1-.314.325M249.846 38.87h-2.531v3.48c0 .44-.114.79-.33 1.015-.227.236-.571.356-1.05.356h-1.642a.32.32 0 0 1-.3-.23.33.33 0 0 1 .136-.359.844.844 0 0 0 .352-.4c.078-.18.12-.374.12-.589V30.607c0-.176.145-.316.315-.316h2.088c.17 0 .31.14.31.316v6.106h2.532a.31.31 0 0 1 .31.316v1.528c0 .17-.134.313-.31.313M262.516 32.232c-.656.424-1.266.908-1.795 1.448a9.21 9.21 0 0 0-1.385 1.785 8.249 8.249 0 0 0-.89 2.09 8.974 8.974 0 0 0-.313 2.397v.814h3.483a.31.31 0 0 1 .304.314v1.531a.307.307 0 0 1-.304.311h-9.846a.31.31 0 0 1-.311-.31V41.08c0-.174.14-.314.31-.314h3.497v-.916c0-1.666-.365-3.167-1.094-4.465-.722-1.297-1.875-2.44-3.433-3.39a.345.345 0 0 1-.14-.215c-.005-.024-.005-.037-.005-.056 0-.074.022-.142.067-.194l1.162-1.523a.314.314 0 0 1 .41-.078c1.166.7 2.199 1.532 3.037 2.45.697.768 1.219 1.667 1.623 2.641.14-.305.252-.6.445-.906.33-.505.709-.997 1.117-1.466a12.52 12.52 0 0 1 1.358-1.302c.473-.395.953-.73 1.428-.994a.299.299 0 0 1 .398.09l.96 1.338a.307.307 0 0 1 .065.185c0 .016 0 .043-.013.055a.272.272 0 0 1-.135.212M268.986 37.915h-2.637v4.414c0 .372-.088.691-.26.948-.199.297-.574.444-1.117.444h-1.64a.32.32 0 0 1-.174-.582c.166-.119.283-.256.365-.423.078-.186.115-.376.115-.594V26.065a.32.32 0 0 1 .315-.314h2.09c.17 0 .306.143.306.314v9.694h2.637c.176 0 .31.14.31.314v1.533a.305.305 0 0 1-.31.309M275.283 31.057c0-.177.148-.321.314-.321h2.088c.172 0 .313.144.313.32v2.856h4.715c.175 0 .314.142.314.315v1.512a.316.316 0 0 1-.314.316h-12.23a.316.316 0 0 1-.305-.316v-1.512c0-.173.142-.315.304-.315h4.801zM274.803 41.332c.447.306 1.057.45 1.82.45.768 0 1.387-.144 1.828-.445.409-.282.602-.653.602-1.138 0-.502-.193-.88-.598-1.144-.44-.294-1.056-.448-1.832-.448-.763 0-1.377.154-1.824.448-.412.274-.607.642-.607 1.144 0 .485.195.856.61 1.133m-1.853-3.874c.446-.326.98-.576 1.606-.761.607-.177 1.305-.262 2.068-.262.785 0 1.498.085 2.108.262.625.185 1.158.435 1.603.761.449.335.8.741 1.037 1.199.235.46.354.978.354 1.542 0 .549-.121 1.065-.361 1.532-.245.469-.6.874-1.036 1.207a5.149 5.149 0 0 1-1.603.768 7.573 7.573 0 0 1-2.102.28 7.227 7.227 0 0 1-2.05-.28 5.427 5.427 0 0 1-1.614-.767 3.58 3.58 0 0 1-1.058-1.205 3.207 3.207 0 0 1-.381-1.535c0-.567.129-1.088.38-1.549.247-.459.598-.86 1.049-1.192M286.5 27.513h-9.662c-.192 0-.205.04-.205.18v2.655a.31.31 0 0 1-.313.31h-2.086a.309.309 0 0 1-.31-.31V27.18c0-.308.056-.584.18-.815l.431-.566.611-.35.657-.11H286.5c.174 0 .314.144.314.322v1.526c0 .174-.14.325-.314.325" style="fill:#58595b;fill-opacity:1;fill-rule:nonzero;stroke:none" transform="matrix(1.33333 0 0 -1.33333 0 111.988)"/><path d="M283.432 42.716c.092-.186.135-.38.135-.594v-8.887h-3.781a.315.315 0 0 1-.311-.315v-1.53a.31.31 0 0 1 .31-.311h3.782v-1.43c0-.17.14-.31.312-.31h2.08c.174 0 .313.14.313.31v12.68c0 .372-.09.692-.266.949-.2.296-.572.443-1.11.443h-1.638a.32.32 0 0 1-.318-.32c0-.098.053-.198.14-.262a.978.978 0 0 0 .352-.423M306.478 36.01h-8.037v3.214a.322.322 0 0 1-.32.323h-2.083a.318.318 0 0 1-.317-.323V36.01h-6.476a.313.313 0 0 1-.311-.312v-1.532c0-.17.14-.312.31-.312h17.234c.174 0 .314.143.314.312v1.532c0 .172-.14.312-.313.312" style="fill:#58595b;fill-opacity:1;fill-rule:nonzero;stroke:none" transform="matrix(1.33333 0 0 -1.33333 0 111.988)"/><path d="M291.568 41.557h9.68l.238-.032s0-.007.006-.01h-.006l.006-.004c0-.041.023-.186.023-.186v-4.393c0-.171.143-.312.313-.312h2.092a.31.31 0 0 1 .302.312v4.926c0 .585-.138 1.03-.412 1.357-.29.332-.748.506-1.359.506h-10.883a.319.319 0 0 1-.314-.32v-1.525c0-.171.144-.32.314-.32M301.04 28.213a2.143 2.143 0 0 0-.657-.612 4.24 4.24 0 0 0-1.09-.417 6.252 6.252 0 0 0-1.41-.156c-1.03 0-1.865.197-2.473.573-.568.357-.848.802-.848 1.367 0 .579.28 1.034.85 1.402.62.392 1.441.588 2.471.588.506 0 .978-.054 1.402-.162.424-.1.785-.25 1.084-.438.293-.177.512-.383.666-.633.15-.231.223-.48.223-.757 0-.28-.073-.527-.219-.755m1.28 3.808c-.512.37-1.153.667-1.899.879-.74.21-1.594.318-2.537.318-.93 0-1.78-.108-2.522-.318-.748-.212-1.384-.51-1.902-.88-.522-.377-.934-.825-1.215-1.341a3.424 3.424 0 0 1-.432-1.678c0-.6.145-1.172.432-1.691.281-.51.693-.966 1.215-1.34.518-.374 1.154-.662 1.902-.88.741-.205 1.592-.312 2.522-.312.95 0 1.802.107 2.537.313.746.217 1.387.505 1.898.88.528.373.934.826 1.215 1.339a3.49 3.49 0 0 1 0 3.369 4.002 4.002 0 0 1-1.215 1.342M326.075 39.496h-2.53v2.833c0 .372-.081.691-.263.948-.211.297-.584.444-1.11.444h-1.642a.305.305 0 0 1-.3-.224.243.243 0 0 1-.016-.096.33.33 0 0 1 .138-.262c.164-.119.287-.256.36-.423a1.44 1.44 0 0 0 .123-.594v-6.384h-8.825c-.195 0-.21.046-.21.191v5.101h6.08c.175 0 .31.144.31.318v1.523a.31.31 0 0 1-.31.321h-9.157a.318.318 0 0 1-.291-.207.296.296 0 0 1 .09-.348c.222-.19.367-.412.445-.668.08-.283.127-.567.127-.863V35.78c0-.842.188-1.407.568-1.732.362-.315.82-.468 1.362-.468h9.81v-2.972a.31.31 0 0 1 .315-.316h2.088c.17 0 .309.14.309.316v6.704h2.529a.32.32 0 0 1 .312.322v1.55a.315.315 0 0 1-.312.313M323.737 27.513h-9.244c-.166 0-.166.026-.166.139v3.889a.313.313 0 0 1-.315.315h-2.084a.308.308 0 0 1-.31-.315v-4.36c0-.596.19-1.06.576-1.38.357-.304.8-.46 1.3-.46h10.243c.17 0 .305.143.305.32v1.527c0 .174-.135.325-.305.325" style="fill:#58595b;fill-opacity:1;fill-rule:nonzero;stroke:none" transform="matrix(1.33333 0 0 -1.33333 0 111.988)"/><path d="M40.441 68.15c11.445-3.008 19.887-12.798 19.887-25.188 0-12.387-8.763-23.643-19.887-26.075-2.08-.545-2.838-.46-2.842-.814-.004-.205 1.305-.245 3.445-.128 13.503 1.148 24 13.146 24 27.017 0 13.875-10.644 24.736-24.177 26.027-1.716.154-4.034.324-4.078.021-.044-.302 1.512-.27 3.652-.86" style="fill:#0068a9;fill-opacity:1;fill-rule:nonzero;stroke:none" transform="matrix(1.33333 0 0 -1.33333 0 111.988)"/><path d="M39.485 63.933c9.029-2.975 10.676-9.22 8.244-10.256-1.876-.802-5.982 1.679-6.786 3.162 0 0-2.263-3.597 2.24-5.49 9.591-3.929 7.328-8.38 5.746-8.993-1.14-.444-3.657.695-5.464 2.365-1.412-4.438 4.025-3.625 4.219-11.165.113-4.374-1.279-9.427-6.218-13.623-2.248-1.884-4.017-2.558-3.921-2.898.087-.297 1.149-.331 4.932 1.03 5.948 2.119 15.955 8.949 16.307 24.137 0 13.04-9.66 23.466-22.02 25.732 0 0-.444-2.959 2.721-4.001" style="fill:url(#a);stroke:none" transform="matrix(1.33333 0 0 -1.33333 0 111.988)"/><path d="M27.081 67.238S12.99 61.646 11.194 46.863c-1.794-14.781 7.539-28.309 23.054-31 2.662-.454 2.996 1.157.549 1.759-3.967 1.112-8.352 5.034-9.488 11.17-.793 4.285-.62 7.483 1.776 12.111 1.961 3.785 5.217 5.421 8.29 6.231 5.993 1.575 2.934 11.26-3.936 8.607-6.91-2.663-9.83-8.931-10.441-15.305-.549-5.732-2.273-4.067-2.314-1.12-.159 11.434 4.973 15.667 10.479 18.42 6.194 3.096 6.78 6.189 5.009 8.878-.745 1.133-1.982 1.481-3.216 1.481-1.942 0-3.875-.857-3.875-.857" style="fill:url(#b);stroke:none" transform="matrix(1.33333 0 0 -1.33333 0 111.988)"/><path d="M178.2 22.167h1.2v-2.628l2.166 2.628h1.477l-2.465-2.883 2.568-3.233h-1.571l-2.156 2.838h-.018v-2.838h-1.2zM186.231 16.91c1.227 0 1.681 1.112 1.681 2.217 0 1.077-.488 2.18-1.681 2.18-1.194 0-1.684-1.103-1.684-2.18 0-1.105.455-2.218 1.684-2.218m0 5.362c1.879 0 2.937-1.295 2.937-3.144 0-1.85-1.041-3.18-2.937-3.18-1.924 0-2.937 1.304-2.937 3.18 0 1.876 1.029 3.144 2.937 3.144M191.024 19.556h.394c.592 0 1.27.087 1.27.85 0 .736-.67.798-1.27.798h-.394zm-1.203 2.61h1.296c1.289 0 2.825.044 2.825-1.656 0-.718-.473-1.313-1.237-1.42v-.014c.327-.03.517-.362.634-.632l.965-2.393h-1.341l-.72 1.909c-.172.456-.33.632-.834.632h-.385V16.05h-1.203zM194.829 22.167h3.537v-.963h-2.334v-1.508h2.136v-.964h-2.136v-1.717h2.35v-.964h-3.553zM201.637 20.94h-.016l-.867-2.524h1.75zm-.66 1.227h1.359l2.35-6.117h-1.33l-.516 1.403h-2.428l-.523-1.403h-1.248zM207.164 22.167h3.328v-.963h-2.129v-1.508h2.028v-.964h-2.028v-2.681h-1.199zM211.01 22.167h1.201V16.05h-1.201zM216.377 21.046a3.078 3.078 0 0 1-1.217.26c-.416 0-.947-.182-.947-.848 0-1.06 2.627-.613 2.627-2.664 0-1.341-1.037-1.848-2.25-1.848-.652 0-.943.087-1.535.238l.109 1.103c.412-.227.887-.378 1.358-.378.453 0 1.064.236 1.064.789 0 1.165-2.627.685-2.627 2.708 0 1.368 1.037 1.867 2.096 1.867.515 0 .996-.071 1.431-.22zM217.588 22.167h1.203v-2.471h2.404v2.471h1.204v-6.116h-1.204v2.681h-2.404v-2.681h-1.203zM223.445 22.167h3.54v-.963h-2.337v-1.508h2.14v-.964h-2.14v-1.717H227v-.964h-3.555zM228.977 19.556h.396c.592 0 1.27.087 1.27.85 0 .736-.67.798-1.27.798h-.396zm-1.203 2.61h1.299c1.287 0 2.824.044 2.824-1.656 0-.718-.471-1.313-1.236-1.42v-.014c.324-.03.515-.362.634-.632l.963-2.393h-1.34l-.72 1.909c-.172.456-.328.632-.836.632h-.385V16.05h-1.203zM232.68 22.167h1.203V16.05h-1.203zM234.824 22.167h3.54v-.963h-2.335v-1.508h2.14v-.964h-2.14v-1.717h2.352v-.964h-3.557zM242.478 21.046a3.083 3.083 0 0 1-1.22.26c-.413 0-.946-.182-.946-.848 0-1.06 2.631-.613 2.631-2.664 0-1.341-1.04-1.848-2.254-1.848-.65 0-.942.087-1.532.238l.109 1.103c.414-.227.885-.378 1.359-.378.454 0 1.063.236 1.063.789 0 1.165-2.627.685-2.627 2.708 0 1.368 1.039 1.867 2.098 1.867.513 0 .994-.071 1.43-.22zM246.834 19.556h.395c.591 0 1.269.087 1.269.85 0 .736-.668.798-1.269.798h-.395zm-1.201 2.61h1.295c1.287 0 2.826.044 2.826-1.656 0-.718-.473-1.313-1.238-1.42v-.014c.326-.03.515-.362.634-.632l.965-2.393h-1.342l-.72 1.909c-.17.456-.326.632-.832.632h-.387V16.05h-1.201zM250.639 22.167h3.537v-.963h-2.334v-1.508h2.137v-.964h-2.137v-1.717h2.352v-.964h-3.555zM258.291 21.046a3.083 3.083 0 0 1-1.221.26c-.412 0-.943-.182-.943-.848 0-1.06 2.629-.613 2.629-2.664 0-1.341-1.041-1.848-2.252-1.848-.652 0-.943.087-1.535.238l.109 1.103c.414-.227.885-.378 1.359-.378.454 0 1.063.236 1.063.789 0 1.165-2.627.685-2.627 2.708 0 1.368 1.039 1.867 2.096 1.867.513 0 .996-.071 1.433-.22zM262.147 16.91c1.229 0 1.684 1.112 1.684 2.217 0 1.077-.491 2.18-1.684 2.18s-1.68-1.103-1.68-2.18c0-1.105.453-2.218 1.68-2.218m0 5.362c1.88 0 2.938-1.295 2.938-3.144 0-1.85-1.042-3.18-2.938-3.18-1.924 0-2.936 1.304-2.936 3.18 0 1.876 1.03 3.144 2.936 3.144M265.799 22.167h1.2v-3.531c0-1.043.327-1.727 1.247-1.727.918 0 1.244.684 1.244 1.727v3.531h1.204v-3.908c0-1.64-.911-2.313-2.448-2.313s-2.447.673-2.447 2.313zM272.797 19.556h.396c.592 0 1.27.087 1.27.85 0 .736-.67.798-1.27.798h-.396zm-1.201 2.61h1.295c1.289 0 2.828.044 2.828-1.656 0-.718-.475-1.313-1.238-1.42v-.014c.326-.03.515-.362.634-.632l.963-2.393h-1.34l-.72 1.909c-.172.456-.328.632-.834.632h-.387V16.05h-1.201zM280.965 16.138c-.437-.104-.91-.191-1.365-.191-1.94 0-3.287.99-3.287 3.056 0 2.095 1.252 3.27 3.287 3.27.394 0 .918-.08 1.355-.254l-.086-1.034c-.453.262-.865.322-1.293.322-1.238 0-2.011-.962-2.011-2.216 0-1.245.755-2.182 2.035-2.182.474 0 1.03.106 1.314.255zM281.508 22.167h3.537v-.963h-2.336v-1.508h2.139v-.964h-2.14v-1.717h2.355v-.964h-3.555zM289.16 21.046a3.088 3.088 0 0 1-1.219.26c-.414 0-.945-.182-.945-.848 0-1.06 2.627-.613 2.627-2.664 0-1.341-1.039-1.848-2.25-1.848-.65 0-.943.087-1.537.238l.111 1.103c.412-.227.887-.378 1.358-.378.455 0 1.064.236 1.064.789 0 1.165-2.627.685-2.627 2.708 0 1.368 1.04 1.867 2.094 1.867a4.45 4.45 0 0 0 1.435-.22zM294.793 20.94h-.016l-.869-2.524h1.752zm-.66 1.227h1.357l2.352-6.117h-1.332l-.514 1.403h-2.43l-.523-1.403h-1.246zM302.951 20.984c-.463.22-1.062.322-1.543.322-1.4 0-2.174-.962-2.174-2.216 0-1.246.754-2.18 2.037-2.18.325 0 .58.033.79.088v1.593h-1.272v.964h2.42V16.26c-.635-.174-1.295-.314-1.938-.314-1.943 0-3.29.99-3.29 3.057 0 2.094 1.253 3.27 3.29 3.27a5.79 5.79 0 0 0 1.758-.255zM304.129 22.167h3.539v-.963h-2.336v-1.508h2.139v-.964h-2.14v-1.717h2.353v-.964h-3.555zM308.502 22.167h1.479l2.281-4.574h.019v4.574h1.151v-6.116h-1.469l-2.293 4.575h-.018v-4.575h-1.15zM318.782 16.138c-.437-.104-.908-.191-1.365-.191-1.942 0-3.287.99-3.287 3.056 0 2.095 1.254 3.27 3.287 3.27.396 0 .92-.08 1.355-.254l-.084-1.034c-.455.262-.867.322-1.297.322-1.236 0-2.007-.962-2.007-2.216 0-1.245.755-2.182 2.033-2.182.472 0 1.029.106 1.312.255zM320.913 18.469l-2.19 3.698h1.41l1.415-2.567 1.445 2.567h1.27l-2.147-3.698V16.05h-1.203z" style="fill:#58595b;fill-opacity:1;fill-rule:nonzero;stroke:none" transform="matrix(1.33333 0 0 -1.33333 0 111.988)"/></svg>