<svg xmlns="http://www.w3.org/2000/svg" xml:space="preserve" width="1218.905" height="200" viewBox="0 0 1218.905 200"><defs><linearGradient id="b" x1="0" x2="1" y1="0" y2="0" gradientTransform="scale(124.131 -124.131) rotate(-28.899 -18.32 -45.495)" gradientUnits="userSpaceOnUse" spreadMethod="pad"><stop offset="0" style="stop-opacity:1;stop-color:#2b3e83"/><stop offset="1" style="stop-opacity:1;stop-color:#52a5e0"/></linearGradient><linearGradient id="d" x1="0" x2="1" y1="0" y2="0" gradientTransform="scale(31.3147 -31.3147) rotate(58.861 95.027 43.307)" gradientUnits="userSpaceOnUse" spreadMethod="pad"><stop offset="0" style="stop-opacity:1;stop-color:#2b3e83"/><stop offset="1" style="stop-opacity:1;stop-color:#52a5e0"/></linearGradient><linearGradient id="f" x1="0" x2="1" y1="0" y2="0" gradientTransform="scale(49.9968 -49.9968) rotate(63.96 55.079 23.62)" gradientUnits="userSpaceOnUse" spreadMethod="pad"><stop offset="0" style="stop-opacity:1;stop-color:#005c28"/><stop offset="1" style="stop-opacity:1;stop-color:#7fcc28"/></linearGradient><linearGradient id="h" x1="0" x2="1" y1="0" y2="0" gradientTransform="scale(-87.4737 87.4737) rotate(49.87 -35.663 -22.04)" gradientUnits="userSpaceOnUse" spreadMethod="pad"><stop offset="0" style="stop-opacity:1;stop-color:#005c28"/><stop offset="1" style="stop-opacity:1;stop-color:#7fcc28"/></linearGradient><linearGradient id="j" x1="0" x2="1" y1="0" y2="0" gradientTransform="scale(322.21401 -322.21401) rotate(-89.315 -.844 -3.547)" gradientUnits="userSpaceOnUse" spreadMethod="pad"><stop offset="0" style="stop-opacity:1;stop-color:#005c28"/><stop offset="1" style="stop-opacity:1;stop-color:#7fcc28"/></linearGradient><linearGradient id="l" x1="0" x2="1" y1="0" y2="0" gradientTransform="matrix(254.073 0 0 -254.073 1300.41 1589.77)" gradientUnits="userSpaceOnUse" spreadMethod="pad"><stop offset="0" style="stop-opacity:1;stop-color:#335cad"/><stop offset="1" style="stop-opacity:1;stop-color:#2b3e83"/></linearGradient><linearGradient id="n" x1="0" x2="1" y1="0" y2="0" gradientTransform="matrix(235.929 0 0 -235.929 1741.25 1630.1)" gradientUnits="userSpaceOnUse" spreadMethod="pad"><stop offset="0" style="stop-opacity:1;stop-color:#335cad"/><stop offset="1" style="stop-opacity:1;stop-color:#2b3e83"/></linearGradient><linearGradient id="p" x1="0" x2="1" y1="0" y2="0" gradientTransform="matrix(249.385 0 0 -249.385 1980.5 1589.77)" gradientUnits="userSpaceOnUse" spreadMethod="pad"><stop offset="0" style="stop-opacity:1;stop-color:#335cad"/><stop offset="1" style="stop-opacity:1;stop-color:#2b3e83"/></linearGradient><linearGradient id="r" x1="0" x2="1" y1="0" y2="0" gradientTransform="matrix(242.295 0 0 -242.295 2232.24 1589.77)" gradientUnits="userSpaceOnUse" spreadMethod="pad"><stop offset="0" style="stop-opacity:1;stop-color:#335cad"/><stop offset="1" style="stop-opacity:1;stop-color:#2b3e83"/></linearGradient><linearGradient id="t" x1="0" x2="1" y1="0" y2="0" gradientTransform="matrix(221.917 0 0 -221.917 1092.54 1589.77)" gradientUnits="userSpaceOnUse" spreadMethod="pad"><stop offset="0" style="stop-opacity:1;stop-color:#335cad"/><stop offset="1" style="stop-opacity:1;stop-color:#2b3e83"/></linearGradient><linearGradient id="v" x1="0" x2="1" y1="0" y2="0" gradientTransform="matrix(324.137 0 0 -324.137 1551.29 1589.77)" gradientUnits="userSpaceOnUse" spreadMethod="pad"><stop offset="0" style="stop-opacity:1;stop-color:#335cad"/><stop offset="1" style="stop-opacity:1;stop-color:#2b3e83"/></linearGradient><linearGradient id="x" x1="0" x2="1" y1="0" y2="0" gradientTransform="scale(-207.267 207.267) rotate(48.334 -10.384 -2.396)" gradientUnits="userSpaceOnUse" spreadMethod="pad"><stop offset="0" style="stop-opacity:1;stop-color:#005c28"/><stop offset="1" style="stop-opacity:1;stop-color:#7fcc28"/></linearGradient><linearGradient id="z" x1="0" x2="1" y1="0" y2="0" gradientTransform="matrix(84.7411 90.0374 90.0374 -84.7411 959.102 1599.06)" gradientUnits="userSpaceOnUse" spreadMethod="pad"><stop offset="0" style="stop-opacity:1;stop-color:#005c28"/><stop offset="1" style="stop-opacity:1;stop-color:#7fcc28"/></linearGradient><clipPath id="a" clipPathUnits="userSpaceOnUse"><path d="m2551.69 1913.28-99.45-57.45v-102.75l41.36 23.87v55.02l99.14 57.55z"/></clipPath><clipPath id="c" clipPathUnits="userSpaceOnUse"><path d="m2660.05 1891.57-35.47-20.42-31.84 18.37-41.05-24 47.64-27.5 60.72 35z"/></clipPath><clipPath id="e" clipPathUnits="userSpaceOnUse"><path d="m2651.1 1857.26-97.81-56.94-.06-18.69 56.55 32.91v-84.74c0-8-2.84-13.95-10.1-18.46l36.36 21.01c9.32 5.33 15.06 15.33 15.06 26.08z"/></clipPath><clipPath id="g" clipPathUnits="userSpaceOnUse"><path d="M2609.78 1729.8v45.76c0-6.6-3.52-12.71-9.22-16.02l-39.61-22.87c-5.76-3.29-12.8-3.29-18.5 0l-39.63 22.87c-2.83 1.64-5.13 4.01-6.72 6.73l-39.8-22.94c2.64-4.49 6.35-8.33 10.99-10.98l69.32-40.04c9.32-5.36 20.78-5.36 30.14 0l32.93 19.03c7.26 4.51 10.1 10.46 10.1 18.46z"/></clipPath><clipPath id="i" clipPathUnits="userSpaceOnUse"><path d="M845.461 1479.64h65.508v299.2h-67.832v-299.2z"/></clipPath><clipPath id="k" clipPathUnits="userSpaceOnUse"><path d="m1410.58 1644.84 27.01-.1c12.09 0 20.9-.66 28.98-4.03 19.24-8.17 19.05-28.49 19.03-29.36l-.02-131.71h61.71v132.44c0 34.19-18.82 64.28-49.14 78.6-11.4 5.4-24.41 9.19-38.77 9.19l-69.39.02c-13.59 0-26.31-3.59-37.23-8.47-31.34-14.17-49.53-44.39-49.53-79.87l-.1-44.13c0-48.41 39.4-87.78 87.76-87.78h78.24v55.47h-72.01c-17.79 0-32.27 14.48-32.27 32.28l.08 43.54c-.02.83-.74 21.59 18.48 29.78 6.72 2.86 21.72 4.13 27.17 4.13z"/></clipPath><clipPath id="m" clipPathUnits="userSpaceOnUse"><path d="M1850.11 1534.84c2.97-.09 13.38-.04 13.38-.04 13.57.22 27.44.67 34.98 4.06 18.2 8.2 17.97 28.46 17.95 29.29l-.08 43.71c0 17.78-14.01 32.56-30.88 32.56h-68.73v55.47h74.59c45.56 0 83.12-39.36 83.12-87.8l.06-44.85c0-35.45-17.75-64.97-47.32-79.14-10.31-4.9-21.55-8.46-34.75-8.46h-65.7c-14.04 0-25.7 3.81-36.49 9.16-28.57 14.34-46.3 44.47-46.3 78.61v213.15h57.93v-212.37c0-1.71-.3-21.28 17.94-29.36 4.91-2.18 19.61-3.99 30.3-3.99z"/></clipPath><clipPath id="o" clipPathUnits="userSpaceOnUse"><path d="M2146.67 1539.19c-7.91-3.35-18.98-4.02-30.82-4.02h-26.7c-10.64.15-18.12.95-25.45 4.02-19.18 8.13-19.12 26.29-19.12 29.3l.02 45.94c0 6.03 3.98 19.68 18.69 25.89 6.08 2.58 16.99 4.14 27.09 4.14l26.95-.12c12.07 0 20.8-.66 28.89-4.02 19.16-8.15 18.89-27.43 18.89-29.29l.04-46.15c0-6.11-3.83-19.48-18.48-25.69zm-113.98 151.72c-28.6-12.76-49.52-42.17-49.52-71.51v-52.19c0-6.87.67-12.32 1.98-18.39.43-1.95.8-3.5 1.21-4.98.27-1.01.43-1.56.58-2.09l.61-1.81c2.64-7.94 6.05-14.99 10.43-21.4l.49-.72c.58-.87 1.29-1.85 1.95-2.76 16.48-22.18 42.77-35.42 70.31-35.42l69.67.02c8.14 0 15.29 2.09 21.88 3.77 5.23 1.35 10.13 3.01 14.96 5.17 28.79 13.01 47.34 39.99 49.7 72.12.14 2.3.28 4.62.28 6.96l-.06 44.6c0 6.16-1.04 12.38-2.35 18.41-.43 2.02-.82 3.48-1.25 4.99l-.58 2.11-.72 2.23c-2.48 7.47-5.92 14.52-10.3 20.97l-.45.65c-.64.94-1.3 1.85-2.01 2.81-16.48 22.18-42.75 35.43-70.27 35.43l-69.12.01c-12.62 0-28.24-4.88-37.42-8.98z"/></clipPath><clipPath id="q" clipPathUnits="userSpaceOnUse"><path d="M2315.65 1640.68c5.18 2.24 19.79 4.1 27.02 4.1l19.51-.05c12.34 0 20.94-.68 28.94-4.05 19.18-8.15 18.99-28.46 18.99-29.34l.13-131.7h61.61v132.45c0 34.13-18.85 64.25-49.18 78.59-11.39 5.36-23.89 9.18-38.7 9.18l-61.75.03c-14.07 0-26.35-3.61-37.29-8.45-31.31-14.24-50.02-43.89-50.02-79.35l.18-132.45h61.56v131.75c0 2.25-.21 20.98 19 29.29z"/></clipPath><clipPath id="s" clipPathUnits="userSpaceOnUse"><path d="M1213.19 1534.78c-15.06.27-29.22.76-36.95 4.06-19.28 8.12-19.06 28.47-19.04 29.34l.04 43.9c0 17.81 14.45 32.3 32.22 32.3h104.53v55.51h-110.78c-48.4 0-87.75-39.38-87.75-87.81v-44.63c0-35 19.18-65.43 50.02-79.35 10.96-4.93 22.44-7.56 37.11-8.46h111.35v55.14z"/></clipPath><clipPath id="u" clipPathUnits="userSpaceOnUse"><path d="M1644.25 1699.89c-14.49 0-26.08-3.57-36.96-8.44-31.34-14.21-50.03-43.88-50.03-79.34v-132.47h61.75v131.8c-.02.79-.27 21.12 19.01 29.28 7.91 3.34 22.32 4.04 36.99 4.04h59.78v55.13z"/></clipPath><clipPath id="w" clipPathUnits="userSpaceOnUse"><path d="m953.547 1643.56-28.266-27.75c-8.511-11.29-8.496-26.95-.015-38.24a28.38 28.38 0 0 1 2.246-2.71l86.988-95.22h89.87z"/></clipPath><clipPath id="y" clipPathUnits="userSpaceOnUse"><path d="M1101.36 1699.89h-90.22l-57.554-56.36 45.113-49.05z"/></clipPath></defs><g clip-path="url(#a)" transform="matrix(.32774 0 0 -.32774 -276.33 627.058)"><path d="m2551.69 1913.28-99.45-57.45v-102.75l41.36 23.87v55.02l99.14 57.55-41.05 23.76" style="fill:url(#b);fill-opacity:1;fill-rule:nonzero;stroke:none"/></g><g clip-path="url(#c)" transform="matrix(.32774 0 0 -.32774 -276.33 627.058)"><path d="m2660.05 1891.57-35.47-20.42-31.84 18.37-41.05-24 47.64-27.5 60.72 35v18.55" style="fill:url(#d);fill-opacity:1;fill-rule:nonzero;stroke:none"/></g><g clip-path="url(#e)" transform="matrix(.32774 0 0 -.32774 -276.33 627.058)"><path d="m2651.1 1857.26-97.81-56.94-.06-18.69 56.55 32.91v-84.74c0-8-2.84-13.95-10.1-18.46l36.36 21.01c9.32 5.33 15.06 15.33 15.06 26.08v98.83" style="fill:url(#f);fill-opacity:1;fill-rule:nonzero;stroke:none"/></g><g clip-path="url(#g)" transform="matrix(.32774 0 0 -.32774 -276.33 627.058)"><path d="M2609.78 1729.8v45.76c0-6.6-3.52-12.71-9.22-16.02l-39.61-22.87c-5.76-3.29-12.8-3.29-18.5 0l-39.63 22.87c-2.83 1.64-5.13 4.01-6.72 6.73l-39.8-22.94c2.64-4.49 6.35-8.33 10.99-10.98l69.32-40.04c9.32-5.36 20.78-5.36 30.14 0l32.93 19.03c7.26 4.51 10.1 10.46 10.1 18.46" style="fill:url(#h);fill-opacity:1;fill-rule:nonzero;stroke:none"/></g><g clip-path="url(#i)" transform="matrix(.32774 0 0 -.32774 -276.33 627.058)"><path d="M845.461 1479.64h65.508v299.2h-67.832v-299.2h2.324" style="fill:url(#j);fill-opacity:1;fill-rule:nonzero;stroke:none"/></g><g clip-path="url(#k)" transform="matrix(.32774 0 0 -.32774 -276.33 627.058)"><path d="m1410.58 1644.84 27.01-.1c12.09 0 20.9-.66 28.98-4.03 19.24-8.17 19.05-28.49 19.03-29.36l-.02-131.71h61.71v132.44c0 34.19-18.82 64.28-49.14 78.6-11.4 5.4-24.41 9.19-38.77 9.19l-69.39.02c-13.59 0-26.31-3.59-37.23-8.47-31.34-14.17-49.53-44.39-49.53-79.87l-.1-44.13c0-48.41 39.4-87.78 87.76-87.78h78.24v55.47h-72.01c-17.79 0-32.27 14.48-32.27 32.28l.08 43.54c-.02.83-.74 21.59 18.48 29.78 6.72 2.86 21.72 4.13 27.17 4.13" style="fill:url(#l);fill-opacity:1;fill-rule:nonzero;stroke:none"/></g><g clip-path="url(#m)" transform="matrix(.32774 0 0 -.32774 -276.33 627.058)"><path d="M1850.11 1534.84c2.97-.09 13.38-.04 13.38-.04 13.57.22 27.44.67 34.98 4.06 18.2 8.2 17.97 28.46 17.95 29.29l-.08 43.71c0 17.78-14.01 32.56-30.88 32.56h-68.73v55.47h74.59c45.56 0 83.12-39.36 83.12-87.8l.06-44.85c0-35.45-17.75-64.97-47.32-79.14-10.31-4.9-21.55-8.46-34.75-8.46h-65.7c-14.04 0-25.7 3.81-36.49 9.16-28.57 14.34-46.3 44.47-46.3 78.61v213.15h57.93v-212.37c0-1.71-.3-21.28 17.94-29.36 4.91-2.18 19.61-3.99 30.3-3.99" style="fill:url(#n);fill-opacity:1;fill-rule:nonzero;stroke:none"/></g><g clip-path="url(#o)" transform="matrix(.32774 0 0 -.32774 -276.33 627.058)"><path d="M2146.67 1539.19c-7.91-3.35-18.98-4.02-30.82-4.02h-26.7c-10.64.15-18.12.95-25.45 4.02-19.18 8.13-19.12 26.29-19.12 29.3l.02 45.94c0 6.03 3.98 19.68 18.69 25.89 6.08 2.58 16.99 4.14 27.09 4.14l26.95-.12c12.07 0 20.8-.66 28.89-4.02 19.16-8.15 18.89-27.43 18.89-29.29l.04-46.15c0-6.11-3.83-19.48-18.48-25.69zm-113.98 151.72c-28.6-12.76-49.52-42.17-49.52-71.51v-52.19c0-6.87.67-12.32 1.98-18.39.43-1.95.8-3.5 1.21-4.98.27-1.01.43-1.56.58-2.09l.61-1.81c2.64-7.94 6.05-14.99 10.43-21.4l.49-.72c.58-.87 1.29-1.85 1.95-2.76 16.48-22.18 42.77-35.42 70.31-35.42l69.67.02c8.14 0 15.29 2.09 21.88 3.77 5.23 1.35 10.13 3.01 14.96 5.17 28.79 13.01 47.34 39.99 49.7 72.12.14 2.3.28 4.62.28 6.96l-.06 44.6c0 6.16-1.04 12.38-2.35 18.41-.43 2.02-.82 3.48-1.25 4.99l-.58 2.11-.72 2.23c-2.48 7.47-5.92 14.52-10.3 20.97l-.45.65c-.64.94-1.3 1.85-2.01 2.81-16.48 22.18-42.75 35.43-70.27 35.43l-69.12.01c-12.62 0-28.24-4.88-37.42-8.98" style="fill:url(#p);fill-opacity:1;fill-rule:nonzero;stroke:none"/></g><g clip-path="url(#q)" transform="matrix(.32774 0 0 -.32774 -276.33 627.058)"><path d="M2315.65 1640.68c5.18 2.24 19.79 4.1 27.02 4.1l19.51-.05c12.34 0 20.94-.68 28.94-4.05 19.18-8.15 18.99-28.46 18.99-29.34l.13-131.7h61.61v132.45c0 34.13-18.85 64.25-49.18 78.59-11.39 5.36-23.89 9.18-38.7 9.18l-61.75.03c-14.07 0-26.35-3.61-37.29-8.45-31.31-14.24-50.02-43.89-50.02-79.35l.18-132.45h61.56v131.75c0 2.25-.21 20.98 19 29.29" style="fill:url(#r);fill-opacity:1;fill-rule:nonzero;stroke:none"/></g><g clip-path="url(#s)" transform="matrix(.32774 0 0 -.32774 -276.33 627.058)"><path d="M1213.19 1534.78c-15.06.27-29.22.76-36.95 4.06-19.28 8.12-19.06 28.47-19.04 29.34l.04 43.9c0 17.81 14.45 32.3 32.22 32.3h104.53v55.51h-110.78c-48.4 0-87.75-39.38-87.75-87.81v-44.63c0-35 19.18-65.43 50.02-79.35 10.96-4.93 22.44-7.56 37.11-8.46h111.35v55.14h-80.75" style="fill:url(#t);fill-opacity:1;fill-rule:nonzero;stroke:none"/></g><g clip-path="url(#u)" transform="matrix(.32774 0 0 -.32774 -276.33 627.058)"><path d="M1644.25 1699.89c-14.49 0-26.08-3.57-36.96-8.44-31.34-14.21-50.03-43.88-50.03-79.34v-132.47h61.75v131.8c-.02.79-.27 21.12 19.01 29.28 7.91 3.34 22.32 4.04 36.99 4.04h59.78v55.13h-90.54" style="fill:url(#v);fill-opacity:1;fill-rule:nonzero;stroke:none"/></g><g clip-path="url(#w)" transform="matrix(.32774 0 0 -.32774 -276.33 627.058)"><path d="m953.547 1643.56-28.266-27.75c-8.511-11.29-8.496-26.95-.015-38.24a28.38 28.38 0 0 1 2.246-2.71l86.988-95.22h89.87l-150.823 163.92" style="fill:url(#x);fill-opacity:1;fill-rule:nonzero;stroke:none"/></g><g clip-path="url(#y)" transform="matrix(.32774 0 0 -.32774 -276.33 627.058)"><path d="M1101.36 1699.89h-90.22l-57.554-56.36 45.113-49.05 102.661 105.41" style="fill:url(#z);fill-opacity:1;fill-rule:nonzero;stroke:none"/></g><path d="M786.493 330.51c-3.95 0-6.654 1.931-6.654 5.13 0 3.118 2.75 5.19 6.654 5.19 3.802 0 6.658-2.072 6.658-5.19 0-3.199-2.856-5.13-6.658-5.13zm18.958 11.092v6.423l-15.146-.01v4.194h-7.63v-4.204h-15.962l.01-6.41h7.676c-1.472-1.615-2.357-3.618-2.357-5.949 0-6.926 7.226-10.321 14.45-10.321 7.173 0 14.447 3.453 14.447 10.321 0 2.335-.836 4.346-2.277 5.956h6.79M696.22 302.64h-19.61v3.267h19.61zm0 14.323v-4.584h-19.61v4.584h-7.455v-14.869a5.933 5.933 0 0 1 5.939-5.929h25.08a3.494 3.494 0 0 1 3.49 3.49v17.308h-7.443M673.302 325.618c-4.191 0-7.45 3.569-7.45 8.755 0 5.106 3.259 8.687 7.45 8.687 4.37 0 7.755-3.581 7.755-8.687 0-5.186-3.385-8.755-7.755-8.755zm22.919 23.027v-10.659h-8.208c-1.605 6.155-7.268 10.659-14.711 10.659-8.68 0-14.896-6.345-14.896-14.34 0-8.188 6.216-14.338 14.896-14.338 7.816 0 13.66 4.75 14.96 11.543h7.959v-12.15h3.952a3.493 3.493 0 0 1 3.49 3.49v25.795h-7.442M786.493 301.45c-5.17 0-8.72 1.802-8.72 4.793 0 2.928 3.607 4.862 8.72 4.862 4.982 0 8.718-1.934 8.718-4.862 0-2.991-3.736-4.793-8.718-4.793zm0 15.23c-9.415 0-17.458-3.98-17.458-10.432 0-6.922 8.734-10.329 17.458-10.329 8.657 0 17.461 3.461 17.461 10.33 0 6.452-7.63 10.431-17.461 10.431M762.686 324.057v-6.224H806a3.49 3.49 0 0 1 3.485 3.498v2.726h-46.799M651.256 304.33v.097l-29.745-.012v11.412h-7.515V303.722c.025-3.272 2.67-5.905 5.93-5.905l27.918.004a3.486 3.486 0 0 1 3.412 3.476l.004.004v3.028h-.004M747.938 348.645V311.09h4.012c1.927 0 3.5 1.565 3.5 3.507v34.047h-7.512M579.871 304.355v11.993h-7.566v-11.993H550.39v-6.467h47.837c1.93 0 3.495 1.561 3.495 3.496v2.971h-21.85M545.046 304.33v.097l-29.755-.012-.004 11.412h-7.514V303.75l.014-.027a5.929 5.929 0 0 1 5.929-5.905l27.913.004a3.497 3.497 0 0 1 3.417 3.476v3.032M412.965 324.406c-3.505 0-5.597 2.836-5.597 6.292 0 3.621 2.087 6.386 5.597 6.386 3.318 0 5.42-2.748 5.42-6.373 0-3.469-2.087-6.305-5.42-6.305zm6.72 16.79 6.981.015v6.405l-10.066-.01v4.513h-7.634l.004-4.513-10.885-.004v-6.408l7.972.002c-3.67-1.959-6.074-5.565-6.074-10.422.004-7.492 5.722-11.843 12.99-11.843 7.019.01 12.613 4.363 12.613 11.843 0 4.865-2.333 8.48-5.902 10.422M440.45 304.014v.086l-29.751-.004v11.413l-7.512-.018v-12.106a5.934 5.934 0 0 1 5.934-5.895h27.916a3.502 3.502 0 0 1 3.414 3.478l.004.018v3.029h-.004M726.799 304.71v11.407h-7.514v-12.103a5.936 5.936 0 0 1 5.938-5.897h27.835l.084.008a3.477 3.477 0 0 1 3.407 3.476V304.725l-29.75-.014M833.402 346.772c3.707 0 6.025-2.842 6.025-6.755 0-3.653-2.318-6.664-6.025-6.664-3.591 0-6.02 3.011-6.02 6.664 0 3.913 2.429 6.755 6.02 6.755zm0-18.411c8.623 0 13.73 4.818 13.73 11.607 0 6.968-5.107 11.931-13.73 11.931-8.065 0-13.726-4.894-13.726-11.806 0-6.914 5.661-11.732 13.726-11.732M828.235 304.038v11.398h-7.517l.01-12.106c.025-3.252 2.66-5.899 5.924-5.899l31.279.01a3.499 3.499 0 0 1 3.407 3.483v3.102l-33.103.012M522.963 318.647c2.63 0 4.926.356 7.298 1.64V326.944a15.544 15.544 0 0 0-1.556-.516 16.735 16.735 0 0 0-2.065-.462c-.408-.05-.797-.096-1.2-.128a42.759 42.759 0 0 0-3.062-.177h-14.27v4.49h17.485v6.414h-17.484v4.208h18.47v6.536h-25.98v-22.742c0-3.22 2.574-5.838 5.787-5.921h16.577" style="fill:#231f20;fill-opacity:1;fill-rule:nonzero;stroke:none;stroke-width:.245804" transform="matrix(1.33333 0 0 -1.33333 70.222 539.325)"/><path d="M815.072 326.76v-6.21h14.2v-7.446h4.078a3.486 3.486 0 0 1 3.493 3.485v3.96h10.966a3.479 3.479 0 0 1 3.463 3.49v2.722h-36.2M446.879 340.83v7.475h-9.752a5.91 5.91 0 0 1-5.899-5.892v-.014l.014-29.555h4.137c1.925 0 3.48 1.56 3.5 3.485V319.36l-.01 11.855-.01 9.616h8.019M551.518 348.305h-9.754c-3.242-.008-5.872-2.632-5.892-5.892l-.004-.014v-29.555h4.16a3.491 3.491 0 0 1 3.487 3.485v.01l-.008 24.492h8.011v7.475M648.016 348.305a5.901 5.901 0 0 1-5.885-5.892v-.014l.008-29.555h4.14a3.486 3.486 0 0 1 3.38 2.64c.07.273.115.543.115.845v.01l-.004 24.492h6.26v7.475h-8.013" style="fill:#231f20;fill-opacity:1;fill-rule:nonzero;stroke:none;stroke-width:.245804" transform="matrix(1.33333 0 0 -1.33333 70.222 539.325)"/><path d="M860.268 348.025h-7.62v-29.6h-8.018v-7.487h9.761a5.95 5.95 0 0 1 5.897 5.904v.014l-.02 31.168M490.59 342.804a5.541 5.541 0 0 1-5.526 5.501H452.37v-6.656h31.163c.1-2.1.059-4.07-.135-6.103a24.066 24.066 0 0 0-.128-1.188c-.17-1.14-.467-2.298-.98-3.625h6.663c1.283 2.372 1.637 4.67 1.637 7.295v4.776M449.413 329.324v-6.528h18.934v-5.494h-16.159v-6.538h31.168V297.62h4.206c1.9 0 3.441 1.522 3.48 3.41v10.38c-.014 3.218-2.598 5.823-5.808 5.892h-9.257v5.494h16.356a3.499 3.499 0 0 1 3.495 3.505v3.018l-46.415.004M582.705 334.208c-1.43 2.454-2.28 6.401-2.28 9.616v3.486h-8.739v-3.486c0-10.289-8.434-17.882-17.54-20.424v-6.688c11.007 1.735 19.165 7.846 21.91 14.758l.032-.056.266-.467c2.797-6.37 10.191-11.978 20.163-13.945.5-.096 1.003-.194 1.512-.29v6.688c-6.275 1.763-12.226 5.379-15.323 10.808M636.94 323.84a25.348 25.348 0 0 0-5.078 3.85 26.612 26.612 0 0 0-2.151 2.414 22.735 22.735 0 0 0-1.824 2.694c-2.075 3.205-3.4 7.017-3.4 10.98v3.532h-7.561v-3.532c0-3.963-1.32-7.775-3.39-10.98-2.2-3.759-5.41-6.856-9.06-8.958-.388-.216-.766-.44-1.165-.636v-6.666c5.949 1.519 10.15 4.923 12.71 7.782 1.965 2.19 3.737 4.908 4.688 7.217.947-2.309 2.721-5.027 4.685-7.217a26.939 26.939 0 0 1 5.315-4.535c1.2-.782 2.549-1.49 4.024-2.102 1.057-.438 2.165-.84 3.37-1.145v6.666c-.394.196-.782.42-1.163.636M744 323.84a25.303 25.303 0 0 0-5.07 3.85 26.67 26.67 0 0 0-2.156 2.414 24.713 24.713 0 0 0-1.83 2.694c-1.769 2.748-2.998 5.96-3.305 9.325h11.383v6.472H712.52v-6.472h11.393c-.317-3.365-1.541-6.577-3.318-9.325-2.183-3.759-5.406-6.856-9.053-8.958-.384-.216-.775-.44-1.163-.636v-6.666c5.948 1.519 10.144 4.923 12.708 7.782 1.964 2.19 3.736 4.908 4.685 7.217.947-2.309 2.724-5.027 4.683-7.217a27.3 27.3 0 0 1 5.314-4.535c1.2-.782 2.55-1.49 4.026-2.102 1.062-.438 2.166-.84 3.38-1.145v6.666c-.403.196-.781.42-1.175.636" style="fill:#231f20;fill-opacity:1;fill-rule:nonzero;stroke:none;stroke-width:.245804" transform="matrix(1.33333 0 0 -1.33333 70.222 539.325)"/><path d="M423.672 262.96c-2.084 0-3.394 1.98-3.394 4.984 0 3 1.31 5.015 3.394 5.015 2.097 0 3.417-2.016 3.417-5.015 0-3.003-1.32-4.985-3.417-4.985zm0 12.462c-3.294 0-6.28-2.746-6.28-7.478 0-4.704 2.986-7.418 6.28-7.418 3.291 0 6.273 2.714 6.273 7.418 0 4.732-2.982 7.478-6.273 7.478M435.313 272.504h-.08l-.222 2.547h-2.271v-14.176h1.45c.725 0 1.31.585 1.31 1.313v7.531c.856 2.234 2.161 3.038 3.255 3.038.528 0 .875-.081 1.33-.228l.508 2.573c-.413.217-.848.32-1.501.32-1.431 0-2.832-1.09-3.778-2.918M443.68 269.227c.266 2.505 1.743 3.857 3.41 3.857 1.944 0 2.991-1.416 2.991-3.857zm8.786-.825.01.272c0 4.03-1.89 6.748-5.435 6.748-3.12 0-6.081-2.874-6.081-7.478 0-4.685 2.886-7.418 6.499-7.418 1.743 0 3.274.627 4.498 1.502l-.959 1.878c-.975-.666-1.988-1.055-3.173-1.055-2.306 0-3.903 1.623-4.13 4.324h7.345c.698 0 1.374.54 1.426 1.227M812.464 269.227c.266 2.505 1.743 3.857 3.41 3.857 1.944 0 2.991-1.416 2.991-3.857zm8.788-.825.01.272c0 4.03-1.893 6.748-5.435 6.748-3.122 0-6.084-2.874-6.084-7.478 0-4.685 2.886-7.418 6.502-7.418 1.743 0 3.274.627 4.498 1.502l-.961 1.878c-.973-.666-1.989-1.055-3.173-1.055-2.304 0-3.904 1.623-4.13 4.324h7.352c.69 0 1.367.54 1.42 1.227M461.959 264.53c-1.097-1.052-2.036-1.652-3.208-1.652-1.185 0-2.08.568-2.08 1.955 0 1.602 1.335 2.666 5.288 3.178zm-2.06 10.892c-2.136 0-4.004-.94-5.378-1.866l1.032-2.02c1.143.776 2.453 1.447 3.857 1.447 1.961 0 2.524-1.447 2.549-3.082-5.55-.646-7.974-2.24-7.974-5.265 0-2.5 1.617-4.11 3.92-4.11 1.6 0 3.031.86 4.245 1.962h.072l.24-1.613h.969a1.31 1.31 0 0 1 1.313 1.313v7.214c0 3.77-1.53 6.02-4.845 6.02M495.56 264.53c-1.091-1.052-2.03-1.652-3.198-1.652-1.187 0-2.084.568-2.084 1.955 0 1.602 1.33 2.666 5.282 3.178zm-2.06 10.892c-2.13 0-3.999-.94-5.383-1.866l1.047-2.02c1.139.776 2.444 1.447 3.855 1.447 1.964 0 2.517-1.447 2.541-3.082-5.55-.646-7.971-2.24-7.971-5.265 0-2.5 1.62-4.11 3.923-4.11 1.6 0 3.036.86 4.25 1.962h.066l.241-1.613h.969c.725 0 1.315.585 1.315 1.313v7.214c0 3.77-1.527 6.02-4.853 6.02M504.387 272.504h-.071l-.216 2.547h-2.279v-14.176h1.453a1.31 1.31 0 0 1 1.312 1.313v7.531c.848 2.234 2.158 3.038 3.255 3.038.523 0 .863-.081 1.325-.228l.513 2.573c-.417.217-.855.32-1.504.32-1.43 0-2.846-1.09-3.788-2.918M516.928 262.977c-.826 0-1.89.346-2.915 1.29v6.951c1.12 1.15 2.138 1.716 3.178 1.716 2.23 0 3.122-1.829 3.122-4.793 0-3.333-1.45-5.164-3.385-5.164zm.988 12.445c-1.4 0-2.831-.811-3.974-1.866l.07 2.429v5.44h-2.755v-20.55h2.18l.266 1.458h.071c1.138-1.153 2.478-1.807 3.682-1.807 3.007 0 5.742 2.797 5.742 7.672 0 4.35-1.912 7.224-5.282 7.224M531.354 262.96c-2.087 0-3.394 1.98-3.394 4.984 0 3 1.307 5.015 3.394 5.015 2.11 0 3.42-2.016 3.42-5.015 0-3.003-1.31-4.985-3.42-4.985zm0 12.462c-3.298 0-6.28-2.746-6.28-7.478 0-4.704 2.982-7.418 6.28-7.418 3.294 0 6.276 2.714 6.276 7.418 0 4.732-2.982 7.478-6.276 7.478M547.403 275.422c-1.819 0-3.176-1.06-4.41-2.338h-.078l-.212 1.967h-2.278v-14.176h2.76v10.053c1.19 1.259 2.04 1.928 3.274 1.928 1.573 0 2.257-.966 2.257-3.43v-8.551h1.462a1.31 1.31 0 0 1 1.313 1.313v7.61c0 3.603-1.254 5.624-4.088 5.624M560.28 260.875h1.503c.725 0 1.31.585 1.31 1.313v17.656h-2.812v-18.969M574.031 275.422c-1.826 0-3.178-1.06-4.417-2.338h-.074l-.216 1.967h-2.274v-14.176h2.756v10.053c1.19 1.259 2.04 1.928 3.269 1.928 1.583 0 2.256-.966 2.256-3.43v-8.551h1.478a1.31 1.31 0 0 1 1.312 1.313v7.61c0 3.603-1.263 5.624-4.09 5.624M589.974 264.707c-.966-1.18-1.908-1.73-3.026-1.73-2.087 0-3.274 1.784-3.274 5.012 0 3.062 1.504 4.945 3.37 4.945.995 0 1.94-.332 2.93-1.288zm0 11.45.13-2.338c-1.096.976-2.065 1.603-3.591 1.603-2.982 0-5.72-2.874-5.72-7.478 0-4.704 2.15-7.418 5.504-7.418 1.501 0 2.88.86 3.873 1.94h.072l.245-1.591h.964c.725 0 1.318.585 1.318 1.313v19.236h-2.795v-5.267M604.53 265.191c-1.118-1.497-1.963-2.106-3.197-2.106-1.58 0-2.232.96-2.232 3.402v8.564h-2.79v-8.928c0-3.608 1.239-5.597 4.07-5.597 1.844 0 3.15.983 4.366 2.48h.071l.216-2.131h.974c.725 0 1.31.585 1.31 1.313v12.863h-2.788v-9.86M615.774 269.146c-1.45.573-2.837 1.035-2.837 2.245 0 .978.671 1.745 2.131 1.745 1.119 0 2.065-.512 2.987-1.232l1.305 1.834c-1.089.905-2.54 1.684-4.331 1.684-2.942 0-4.734-1.792-4.734-4.157 0-2.404 2.037-3.414 3.812-4.13 1.45-.6 2.957-1.16 2.957-2.457 0-1.075-.757-1.903-2.357-1.903-1.436 0-2.596.615-3.778 1.625l-1.31-1.912c1.283-1.129 3.178-1.962 5.017-1.962 3.293 0 5.066 1.94 5.066 4.307 0 2.694-2.06 3.566-3.928 4.313M626.81 262.9c-1.381 0-1.944.878-1.944 2.589v7.187h2.156c.725 0 1.31.588 1.31 1.315v1.06h-3.466v3.925h-2.348l-.317-3.925-2.06-.15v-2.225h1.94v-7.17c0-2.991 1.042-4.98 4.048-4.98.974 0 1.873.25 2.616.524l-.51 2.19c-.383-.172-.968-.34-1.425-.34M633.334 272.504h-.076l-.217 2.547h-2.278v-14.176h1.448a1.31 1.31 0 0 1 1.312 1.313v7.531c.848 2.234 2.16 3.038 3.25 3.038.533 0 .877-.081 1.334-.228l.504 2.573c-.413.217-.845.32-1.492.32-1.435 0-2.844-1.09-3.785-2.918M646.64 267.75l-1.038-3.994h-.125c-.413 1.317-.826 2.73-1.215 3.994l-2.468 7.3h-2.86l5.284-14.082-.268-.98c-.489-1.522-1.335-2.66-2.785-2.66-.341 0-.73.133-.97.207l-.532-2.318c.455-.18.993-.278 1.67-.278 2.809 0 4.22 2.025 5.267 5.073l4.891 15.039h-2.716l-2.136-7.3M663.883 270.459h-2.424v6.988h2.328c2.831 0 4.311-.823 4.311-3.32 0-2.508-1.354-3.668-4.215-3.668zm.17 9.385h-5.404v-18.969h1.495c.725 0 1.315.585 1.315 1.313v5.872h2.689c3.879 0 6.715 1.915 6.715 6.066 0 4.285-2.836 5.718-6.81 5.718M676.173 272.504h-.071l-.217 2.547h-2.28v-14.176h1.45c.725 0 1.31.585 1.31 1.313v7.531c.845 2.234 2.155 3.038 3.252 3.038.535 0 .872-.081 1.33-.228l.513 2.573c-.413.217-.855.32-1.51.32-1.43 0-2.83-1.09-3.777-2.918M688.11 262.96c-2.09 0-3.395 1.98-3.395 4.984 0 3 1.305 5.015 3.394 5.015 2.102 0 3.407-2.016 3.407-5.015 0-3.003-1.305-4.985-3.407-4.985zm0 12.462c-3.3 0-6.286-2.746-6.286-7.478 0-4.704 2.986-7.418 6.285-7.418 3.289 0 6.273 2.714 6.273 7.418 0 4.732-2.984 7.478-6.273 7.478M711.883 275.422c-1.676 0-3.03-1.121-4.34-2.613-.576 1.617-1.692 2.613-3.683 2.613-1.652 0-2.981-1.06-4.12-2.35h-.07l-.227 1.979h-2.266v-14.176h2.76v10.053c1.104 1.284 2.114 1.928 3.006 1.928 1.527 0 2.227-.966 2.227-3.43v-8.551h2.785v10.053c1.114 1.284 2.087 1.928 3.007 1.928 1.511 0 2.227-.966 2.227-3.43v-8.551h1.482a1.31 1.31 0 0 1 1.312 1.313v7.61c0 3.603-1.312 5.624-4.1 5.624M724.864 262.96c-2.094 0-3.394 1.98-3.394 4.984 0 3 1.3 5.015 3.394 5.015 2.107 0 3.417-2.016 3.417-5.015 0-3.003-1.31-4.985-3.417-4.985zm0 12.462c-3.303 0-6.28-2.746-6.28-7.478 0-4.704 2.977-7.418 6.28-7.418 3.294 0 6.27 2.714 6.27 7.418 0 4.732-2.976 7.478-6.27 7.478M738.536 262.9c-1.386 0-1.944.878-1.944 2.589v7.187h2.155c.725 0 1.31.588 1.31 1.315v1.06h-3.465v3.925h-2.343l-.317-3.925-2.065-.15v-2.225h1.945v-7.17c0-2.991 1.042-4.98 4.048-4.98.964 0 1.863.25 2.61.524l-.503 2.19c-.394-.172-.974-.34-1.431-.34M742.489 260.875h1.45c.722 0 1.315.585 1.315 1.313v12.863h-2.765v-14.176M743.875 281.213c-1.023 0-1.775-.688-1.775-1.745 0-1.038.752-1.765 1.775-1.765 1.013 0 1.787.727 1.787 1.765 0 1.057-.774 1.745-1.787 1.745M754.297 262.96c-2.082 0-3.397 1.98-3.397 4.984 0 3 1.315 5.015 3.397 5.015 2.109 0 3.414-2.016 3.414-5.015 0-3.003-1.305-4.985-3.414-4.985zm0 12.462c-3.301 0-6.278-2.746-6.278-7.478 0-4.704 2.977-7.418 6.278-7.418 3.294 0 6.275 2.714 6.275 7.418 0 4.732-2.981 7.478-6.275 7.478M770.348 275.422c-1.812 0-3.178-1.06-4.412-2.338h-.074l-.209 1.967h-2.286v-14.176h2.765v10.053c1.185 1.259 2.036 1.928 3.265 1.928 1.58 0 2.256-.966 2.256-3.43v-8.551h1.48c.723 0 1.31.585 1.31 1.313v7.61c0 3.603-1.254 5.624-4.095 5.624M830.897 275.422c-1.811 0-3.178-1.06-4.412-2.338h-.074l-.211 1.967h-2.284v-14.176h2.766v10.053c1.184 1.259 2.035 1.928 3.264 1.928 1.578 0 2.256-.966 2.256-3.43v-8.551h1.478a1.31 1.31 0 0 1 1.312 1.313v7.61c0 3.603-1.253 5.624-4.095 5.624M858.794 275.05l-2.132-7.3-1.042-3.994h-.12c-.413 1.317-.821 2.73-1.214 3.994l-2.468 7.3h-2.862l5.288-14.082-.27-.98c-.485-1.522-1.33-2.66-2.79-2.66-.34 0-.728.133-.969.207l-.528-2.318c.452-.18.983-.278 1.666-.278 2.812 0 4.22 2.025 5.265 5.073l4.894 15.039h-2.718M785.912 268.62l.735 2.557c.58 2.067 1.131 4.161 1.645 6.327h.098c.56-2.139 1.084-4.26 1.694-6.327l.7-2.557zm2.808 11.224h-1.93l-5.914-18.969h2.856l1.522 5.408h6.211l1.5-5.408h2.986l-5.52 17.703c-.261.73-1.001 1.266-1.711 1.266M802.546 256.455c-2.207 0-3.562.831-3.562 2.213 0 .717.342 1.445 1.138 2.064a8.204 8.204 0 0 1 1.79-.206h2.018c1.622 0 2.495-.352 2.495-1.539 0-1.322-1.554-2.532-3.879-2.532zm-.317 16.87c1.408 0 2.522-1.113 2.522-3.028 0-1.87-1.143-3.034-2.522-3.034-1.377 0-2.515 1.163-2.515 3.034 0 1.951 1.114 3.028 2.515 3.028zm2.09-10.425h-2.444c-1.703 0-2.232.546-2.232 1.4 0 .673.288 1.08.725 1.498a4.284 4.284 0 0 1 1.86-.452c2.79 0 5 1.79 5 4.88 0 1.088-.366 2.037-.874 2.605h1.229c.725 0 1.31.585 1.31 1.313v.907h-4.72a5.335 5.335 0 0 1-1.944.37c-2.76 0-5.164-1.894-5.164-5.124 0-1.677.853-3.006 1.747-3.761v-.1c-.725-.566-1.48-1.513-1.48-2.624 0-1.17.539-1.917 1.21-2.352v-.128c-1.234-.806-1.935-1.905-1.935-3.097 0-2.473 2.326-3.741 5.526-3.741 4.27 0 6.98 2.217 6.98 4.948 0 2.431-1.65 3.458-4.795 3.458M416.92 260.902l-8.065 9.695 7.433 9.23h-3.328l-6.895-8.567v8.584h-2.812v-18.969h1.497c.725 0 1.315.585 1.315 1.313v7.762l7.53-9.048h3.325M480.955 263.018c-3.845 0-6.495 3.095-6.495 7.19 0 4.196 2.4 7.14 6.52 7.14 1.194 0 2.347-.164 3.46-.461l.573 2.613c-1.153.349-2.579.472-4.034.472-5.717 0-9.39-3.97-9.39-9.764 0-5.867 3.72-9.763 9.39-9.763 1.763 0 3.087.263 4.056.533l-.531 2.424c-.941-.283-2.018-.384-3.55-.384M844.756 262.488c-2.933 0-4.953 2.362-4.953 5.483 0 3.203 1.828 5.45 4.972 5.45.907 0 1.787-.128 2.64-.35l.438 1.99c-.883.267-1.97.36-3.078.36-4.363 0-7.162-3.028-7.162-7.45 0-4.473 2.836-7.445 7.162-7.445 1.345 0 2.353.202 3.093.408l-.404 1.848c-.72-.216-1.54-.294-2.708-.294" style="fill:#7b7979;fill-opacity:1;fill-rule:nonzero;stroke:none;stroke-width:.245804" transform="matrix(1.33333 0 0 -1.33333 70.222 539.325)"/></svg>