<svg xmlns="http://www.w3.org/2000/svg" width="1174.9072mm" height="200mm" viewBox="0 0 1174.9072 200"><path d="M-244.202 166.401c0 2.634-1.045 4.97-3.126 6.977-2.082 2.024-4.515 3.018-7.289 3.018-2.785 0-5.146-.994-7.088-3.018-1.948-2.006-2.914-4.343-2.914-6.977 0-2.774.966-5.107 2.914-6.973 1.942-1.888 4.303-2.82 7.088-2.82 2.774 0 5.207.932 7.289 2.82 2.081 1.866 3.126 4.2 3.126 6.973m-16.57 23.342h13.444v77.719h-13.444zM-150.123 220.832h-14.208c-3.09-10.185-13.429-17.588-24.622-17.588-13.706 0-24.813 11.11-24.813 24.827 0 13.648 11.024 24.723 24.665 24.81v-.008c.162.004.327.004.503.007h.021c26.32.438 48.697-31.882 48.697-31.882 23.366-32.21 45.455-31.819 47.62-31.697v-.01c.132 0 .258-.008.398-.008 21.421 0 38.784 17.367 38.784 38.788 0 21.41-17.363 38.773-38.784 38.773-8.585 0-18.357-2.792-24.777-7.507v47.034h-14.04v-66.56a.057.057 0 0 0-.014-.04h.014v-.022h14.04v.022h1.044c4.177 7.802 14.258 13.117 23.733 13.117 13.705 0 24.82-11.108 24.82-24.817 0-13.716-11.115-24.827-24.82-24.827-.14 0-.266.004-.399.004v-.01c-18.001-.432-40.366 29.98-40.366 29.98-25.233 33.275-53.319 33.68-56.158 33.62a2.903 2.903 0 0 1-.168.007c-21.415 0-38.777-17.363-38.777-38.774 0-21.421 17.362-38.787 38.777-38.787 9.033 0 18.21 3.086 24.79 8.257v-46.625h14.04zM-276.354 267.459-323.62 228.2l46.235-38.41h-21.034l-32.615 27.094v-47.027h-13.39v97.637h13.39v-27.979l33.652 27.943z" style="fill:#d11c2d;fill-opacity:1;fill-rule:nonzero;stroke:none;stroke-width:3.58879" transform="translate(443.114 -194.16) scale(1.28654)"/><path d="M14.681 205.783c-2.153 2.121-4.737 3.187-7.759 3.187-3.007 0-5.602-1.066-7.751-3.187-2.146-2.135-3.234-4.701-3.234-7.701 0-3.019 1.088-5.617 3.234-7.763 2.15-2.146 4.744-3.244 7.751-3.244 3.022 0 5.606 1.098 7.76 3.244 2.153 2.146 3.237 4.744 3.237 7.763 0 3-1.084 5.566-3.238 7.701m20.747 21.55h9.22v-36.041h7.127v-7.562h-7.127v-11.732h-9.22Zm-28.506-2.522h-9.216v24.31h46.906v-7.536H6.922Zm-16.59-35.253c-1.508 2.703-2.258 5.681-2.258 8.926 0 5.193 1.845 9.653 5.523 13.353 3.693 3.675 8.132 5.524 13.325 5.524 5.208 0 9.636-1.849 13.33-5.524 3.689-3.7 5.533-8.16 5.533-13.353 0-3.245-.757-6.223-2.243-8.926-1.536-2.71-3.535-4.934-6.054-6.657h10.386v-7.554h-16.25v-5.021H2.39v5.02h-16.426v7.555h10.4c-2.523 1.723-4.532 3.948-6.033 6.657M117.873 201.743h3.36v7.55H96.921v9.23h20.951v30.599h-9.23v-23.055H65.057v-7.543h22.642v-9.23H63.374v-7.551h45.269v-22.208h-45.27V172h54.5zM192.677 249.126h-9.198v-26.837h-44.716v-50.29h36.874v7.536H147.98v35.217h35.5V172h9.198zM209.815 171.998h41.924v7.544h-15.927l20.28 39.803-7.46 3.776-17.873-34.948-17.937 35.03-7.382-3.858 20.302-39.803h-15.927zm49.457 0h9.234v11.728h7.127v7.533h-7.127v57.862h-9.234zM316.89 200.099c-2.383 2.372-5.272 3.55-8.678 3.55-3.412 0-6.316-1.178-8.677-3.55-2.383-2.372-3.567-5.29-3.567-8.678 0-3.41 1.184-6.305 3.567-8.692 2.361-2.343 5.265-3.55 8.677-3.55 3.406 0 6.295 1.207 8.678 3.55 2.376 2.387 3.553 5.283 3.553 8.692 0 3.388-1.177 6.306-3.553 8.678m5.782-23.295c-3.995-4.02-8.81-6.015-14.46-6.015-5.634 0-10.457 1.996-14.466 6.015-3.998 3.98-5.993 8.81-5.993 14.452 0 5.635 1.995 10.469 5.993 14.452 4.009 3.995 8.832 6.004 14.466 6.004 5.65 0 10.465-2.01 14.46-6.004 3.998-3.983 5.993-8.817 5.993-14.452 0-5.641-1.995-10.472-5.993-14.452m23.915-4.845h-9.19v55.343h9.19zm-.082 69.594H307.94v-20.958h-9.22v28.495h47.785z" style="fill:#231f20;fill-opacity:1;fill-rule:nonzero;stroke:none;stroke-width:3.58879" transform="translate(443.114 -194.16) scale(1.28654)"/><path d="M424.118 227.403h-9.209V172h9.209zm-40.198-6.79h-9.216v28.51h49.443v-7.565H383.92zm27.555-10.141-7.045 4.36-18.016-29.597-18.048 29.514-7.127-4.277 18.98-30.932h-14.781v-7.544h41.08v7.544h-14z" style="fill:#231f20;fill-opacity:1;fill-rule:nonzero;stroke:none;stroke-width:3.58882" transform="translate(443.114 -194.16) scale(1.28654)"/><path d="M473.626 241.934c-1.557 1.543-3.434 2.336-5.691 2.336-2.23 0-4.135-.793-5.692-2.336-1.59-1.575-2.347-3.488-2.347-5.706 0-2.24.757-4.13 2.347-5.703 1.557-1.571 3.463-2.347 5.692-2.347 2.257 0 4.134.776 5.691 2.347 1.572 1.572 2.376 3.464 2.376 5.703 0 2.218-.804 4.13-2.376 5.706m5.915-17.405c-3.216-3.216-7.07-4.827-11.606-4.827-4.53 0-8.398 1.611-11.621 4.827-3.212 3.204-4.816 7.07-4.816 11.616 0 4.522 1.604 8.38 4.816 11.596 3.223 3.215 7.091 4.827 11.62 4.827 4.537 0 8.391-1.612 11.607-4.827 3.212-3.216 4.845-7.074 4.845-11.596 0-4.547-1.633-8.412-4.845-11.616m-5.523-27.34c-1.666 1.644-3.622 2.47-5.93 2.47-2.285 0-4.248-.826-5.881-2.47-1.673-1.661-2.48-3.621-2.48-5.896 0-2.294.807-4.289 2.48-5.925 1.633-1.648 3.596-2.462 5.882-2.462 2.307 0 4.263.814 5.929 2.462 1.647 1.636 2.461 3.631 2.461 5.925 0 2.275-.814 4.235-2.461 5.896m24.927 12.823h-61.957v7.55h61.957zm-46.776-22.933a16.74 16.74 0 0 0-.671 4.709c0 4.515 1.604 8.394 4.816 11.603 3.223 3.212 7.091 4.823 11.62 4.823 4.537 0 8.391-1.611 11.607-4.823 3.212-3.209 4.845-7.088 4.845-11.603 0-1.633-.237-3.187-.7-4.709-.449-1.482-1.073-2.896-1.92-4.173h10.479v-7.565h-19.598v-5.854h-9.242v5.854h-19.77v7.565h10.476c-.855 1.277-1.493 2.691-1.942 4.173M539.95 195.024c-1.957 1.97-4.347 2.975-7.128 2.975-2.735 0-5.096-1.005-7.088-2.975-1.97-1.999-2.972-4.364-2.972-7.102 0-2.789 1.002-5.168 2.972-7.113 1.992-1.963 4.353-2.94 7.088-2.94 2.781 0 5.171.977 7.127 2.94 1.956 1.945 2.929 4.324 2.929 7.113 0 2.738-.973 5.103-2.929 7.102m6.162-20.126c-3.617-3.603-7.985-5.405-13.117-5.405-5.093 0-9.46 1.802-13.085 5.405-3.632 3.603-5.448 7.967-5.448 13.113 0 5.097 1.816 9.457 5.448 13.074 3.625 3.636 7.992 5.47 13.085 5.47 5.132 0 9.5-1.834 13.117-5.47 3.603-3.617 5.398-7.977 5.398-13.074 0-5.146-1.795-9.51-5.398-13.113m22.674-2.9h-9.23v35.69H510.93v7.555h19.186v13.77h9.216v-13.77h20.223v4.127H547v6.719h12.554v4.608h9.23zm.022 69.587H527.71v-19.283h-9.22v26.834h50.316zM-8.79 275.712l8.14-8.746h4.224l-9.492 9.923 9.557 11.998H-.65l-7.508-9.726-.631.66v9.066h-3.216v-21.92h3.216zM27.358 277.945c0 6.442-4.637 11.37-10.946 11.37-6.31 0-10.946-4.928-10.946-11.37 0-6.442 4.637-11.37 10.946-11.37 6.31 0 10.946 4.928 10.946 11.37m-3.216 0c0-4.86-3.219-8.283-7.73-8.283-4.511 0-7.727 3.424-7.727 8.283 0 4.86 3.216 8.283 7.727 8.283s7.73-3.424 7.73-8.283M35.149 266.968c2.555 0 4.195.334 5.552 1.281 2.3 1.615 2.49 4.206 2.49 5.161 0 3.155-1.859 5.455-4.669 6.108l6.564 9.367h-3.88l-6.025-8.972h-.567v8.972h-3.22v-21.917zm-.535 10.06h1.008c.883 0 4.48-.108 4.48-3.582 0-3.094-2.807-3.392-4.386-3.392h-1.102zM59.846 270.126h-8.39v5.552h8.14v3.154h-8.14v6.902h8.39v3.154H48.24v-21.92h11.606zM76.374 283.598h-8.99l-2.3 5.29h-3.47l10.472-23.198 9.966 23.198h-3.47zm-1.292-3.158-3.122-7.422-3.251 7.422z" style="fill:#231f20;fill-opacity:1;fill-rule:nonzero;stroke:none;stroke-width:3.58879" transform="translate(443.114 -194.16) scale(1.28654)"/><path d="M92.05 288.887h3.216v-21.914H92.05z" style="fill:#231f20;fill-opacity:1;fill-rule:nonzero;stroke:none;stroke-width:3.58882" transform="translate(443.114 -194.16) scale(1.28654)"/><path d="M100.315 288.886v-23.399l15.266 16.66V266.97h3.216v23.262L103.53 273.57v15.317zM132.93 271.83a3.493 3.493 0 0 0-.948-1.379c-.66-.556-1.357-.79-2.268-.79-1.956 0-2.968 1.217-2.968 2.635 0 .656.222 1.805 2.272 2.655l2.113.887c3.88 1.643 4.953 3.947 4.953 6.442 0 4.17-2.839 7.03-6.783 7.03-2.43 0-3.88-.954-4.952-2.196-1.134-1.314-1.64-2.767-1.766-4.278l3.187-.721c0 1.087.377 2.103.883 2.799.599.782 1.482 1.313 2.745 1.313 1.956 0 3.467-1.478 3.467-3.685 0-2.236-1.64-3.155-3.026-3.747l-2.02-.886c-1.733-.758-4.289-2.265-4.289-5.556 0-2.953 2.207-5.781 6.152-5.781 2.271 0 3.563.886 4.224 1.478a7.51 7.51 0 0 1 1.61 2.207zM145.956 270.126v18.762h-3.215v-18.762h-4.827v-3.158h12.87v3.158z" style="fill:#231f20;fill-opacity:1;fill-rule:nonzero;stroke:none;stroke-width:3.58879" transform="translate(443.114 -194.16) scale(1.28654)"/><path d="M153.62 288.887h3.215v-21.914h-3.215z" style="fill:#231f20;fill-opacity:1;fill-rule:nonzero;stroke:none;stroke-width:3.58882" transform="translate(443.114 -194.16) scale(1.28654)"/><path d="M167.72 270.126v18.762h-3.215v-18.762h-4.827v-3.158h12.87v3.158zM178.602 266.968v13.214c0 1.18.033 2.623.664 3.772.628 1.123 2.05 2.268 3.909 2.268 1.862 0 3.28-1.145 3.911-2.268.632-1.149.664-2.591.664-3.772v-13.214h3.216v14.1c0 1.737-.345 3.84-1.956 5.685-1.102 1.242-2.964 2.563-5.835 2.563-2.868 0-4.73-1.321-5.836-2.563-1.608-1.845-1.952-3.948-1.952-5.685v-14.1zM201.849 270.126v18.762h-3.216v-18.762h-4.827v-3.158h12.87v3.158zM221.121 270.126h-8.39v5.552h8.139v3.154h-8.14v6.902h8.391v3.154h-11.606v-21.92h11.606zM253.515 277.945c0 6.442-4.637 11.37-10.946 11.37s-10.946-4.928-10.946-11.37c0-6.442 4.637-11.37 10.946-11.37 6.31 0 10.946 4.928 10.946 11.37m-3.216 0c0-4.86-3.219-8.283-7.73-8.283-4.511 0-7.727 3.424-7.727 8.283 0 4.86 3.216 8.283 7.727 8.283s7.73-3.424 7.73-8.283M268.087 270.126h-7.317v5.552h7.066v3.154h-7.066v10.056h-3.22v-21.92h10.537zM283.511 266.968c2.933 0 5.488.334 7.824 2.139 2.555 1.999 4.037 5.186 4.037 8.84 0 3.642-1.453 6.796-4.227 8.835-2.462 1.805-4.762 2.103-7.698 2.103h-4.35v-21.917zm-1.198 18.766h1.389c1.575 0 3.754-.136 5.58-1.547 1.454-1.148 2.871-3.251 2.871-6.24 0-2.893-1.324-5.165-2.838-6.31-1.83-1.385-4.07-1.51-5.613-1.51h-1.39zM311.016 270.126h-8.39v5.552h8.14v3.154h-8.14v6.902h8.39v3.154H299.41v-21.92h11.606zM324.263 271.83a3.493 3.493 0 0 0-.948-1.379c-.66-.556-1.356-.79-2.268-.79-1.956 0-2.968 1.217-2.968 2.635 0 .656.223 1.805 2.272 2.655l2.114.887c3.88 1.643 4.952 3.947 4.952 6.442 0 4.17-2.838 7.03-6.782 7.03-2.43 0-3.88-.954-4.953-2.196-1.134-1.314-1.64-2.767-1.766-4.278l3.187-.721c0 1.087.377 2.103.883 2.799.6.782 1.482 1.313 2.746 1.313 1.955 0 3.466-1.478 3.466-3.685 0-2.236-1.64-3.155-3.025-3.747l-2.02-.886c-1.734-.758-4.29-2.265-4.29-5.556 0-2.953 2.208-5.781 6.152-5.781 2.272 0 3.564.886 4.224 1.478a7.51 7.51 0 0 1 1.611 2.207z" style="fill:#231f20;fill-opacity:1;fill-rule:nonzero;stroke:none;stroke-width:3.58879" transform="translate(443.114 -194.16) scale(1.28654)"/><path d="M331.452 288.887h3.215v-21.914h-3.215z" style="fill:#231f20;fill-opacity:1;fill-rule:nonzero;stroke:none;stroke-width:3.58882" transform="translate(443.114 -194.16) scale(1.28654)"/><path d="M350.602 277.482h8.674v.169c0 3.747-1.073 6.793-3.123 8.871-2.178 2.2-4.762 2.792-7.16 2.792-3.06 0-5.235-.925-7.159-2.989-2.053-2.2-3.122-5.132-3.122-8.287 0-3.416 1.324-6.37 3.057-8.178 1.798-1.902 4.67-3.284 7.917-3.284 1.892 0 3.848.423 5.488 1.382 1.737 1.019 2.81 2.293 3.409 3.287l-2.555 1.866c-.632-.922-1.58-1.906-2.588-2.494-1.166-.721-2.43-.955-3.721-.955-2.746 0-4.511 1.181-5.552 2.268-1.39 1.443-2.24 3.783-2.24 6.144 0 2.2.79 4.407 2.175 5.947 1.454 1.611 3.252 2.207 5.269 2.207 1.83 0 3.344-.567 4.7-1.941 1.167-1.188 1.641-2.47 1.767-3.718h-5.236zM363.313 288.886v-23.399l15.267 16.66V266.97h3.215v23.262L366.53 273.57v15.317zM398.83 266.968c1.291 0 3.09.13 4.604 1.18 1.766 1.221 2.62 3.324 2.62 5.327 0 1.284-.316 3.255-2.053 4.794-1.669 1.486-3.596 1.708-5.14 1.708h-1.453v8.908h-3.215v-21.917zm-1.422 9.927h1.454c2.774 0 4.098-1.418 4.098-3.45 0-1.216-.47-3.39-4.13-3.39h-1.422zM413.086 266.968c2.555 0 4.195.334 5.551 1.281 2.3 1.615 2.491 4.206 2.491 5.161 0 3.155-1.859 5.455-4.669 6.108l6.564 9.367h-3.88l-6.025-8.972h-.567v8.972h-3.22v-21.917zm-.535 10.06h1.008c.883 0 4.48-.108 4.48-3.582 0-3.094-2.807-3.392-4.386-3.392h-1.102zM447.057 277.945c0 6.442-4.636 11.37-10.945 11.37-6.31 0-10.946-4.928-10.946-11.37 0-6.442 4.637-11.37 10.946-11.37s10.945 4.928 10.945 11.37m-3.215 0c0-4.86-3.22-8.283-7.73-8.283-4.511 0-7.727 3.424-7.727 8.283 0 4.86 3.216 8.283 7.727 8.283 4.51 0 7.73-3.424 7.73-8.283M450.463 288.886l4.414-23.557 7.322 17.019 7.378-17.019 3.977 23.557h-3.28l-2.147-13.214-6.115 14.23-6.061-14.255-2.208 13.24zM498.85 277.945c0 6.442-4.637 11.37-10.946 11.37-6.31 0-10.946-4.928-10.946-11.37 0-6.442 4.637-11.37 10.946-11.37s10.946 4.928 10.946 11.37m-3.216 0c0-4.86-3.22-8.283-7.73-8.283-4.511 0-7.727 3.424-7.727 8.283 0 4.86 3.216 8.283 7.727 8.283 4.51 0 7.73-3.424 7.73-8.283M508.722 270.126v18.762h-3.215v-18.762h-4.827v-3.158h12.87v3.158z" style="fill:#231f20;fill-opacity:1;fill-rule:nonzero;stroke:none;stroke-width:3.58879" transform="translate(443.114 -194.16) scale(1.28654)"/><path d="M516.386 288.887h3.215v-21.914h-3.215z" style="fill:#231f20;fill-opacity:1;fill-rule:nonzero;stroke:none;stroke-width:3.58882" transform="translate(443.114 -194.16) scale(1.28654)"/><path d="M545.532 277.945c0 6.442-4.637 11.37-10.946 11.37-6.31 0-10.946-4.928-10.946-11.37 0-6.442 4.637-11.37 10.946-11.37s10.946 4.928 10.946 11.37m-3.216 0c0-4.86-3.219-8.283-7.73-8.283-4.511 0-7.727 3.424-7.727 8.283 0 4.86 3.216 8.283 7.727 8.283s7.73-3.424 7.73-8.283M549.57 288.886v-23.399l15.266 16.66V266.97h3.215v23.262l-15.266-16.663v15.317z" style="fill:#231f20;fill-opacity:1;fill-rule:nonzero;stroke:none;stroke-width:3.58879" transform="translate(443.114 -194.16) scale(1.28654)"/></svg>