<svg xmlns="http://www.w3.org/2000/svg" xml:space="preserve" width="633.50916" height="200" viewBox="0 0 633.50918 200"><path d="M182.72-51.359h-4.867v-18.163h-4.907v3.906c-2.66-1-5.321-1.12-7.605-1.12h-17.292v4.32h5.86v12.593h4.575v-12.593l2.699-.04c1.83-.038 2.328 1.04 2.328 2.66v15.973a5.191 5.191 0 0 1-5.19 5.192h-8.442v4.282h9.35a9.15 9.15 0 0 0 9.15-9.15v-5.447c0-5.613-.085-10.679-1.037-13.47h2.822c1.622 0 2.782.667 2.782 2.416v27.436h4.907v-14.513h4.867zM396.498-54.888h-4.982v12.225h-6.112v4.03h6.112v5.943h4.982zm-12.719-3.369c-5.358 0-8.104-1.076-8.104-3.66 0-2.574 2.746-3.698 8.104-3.698 5.36 0 8.107 1.123 8.107 3.699 0 2.583-2.746 3.66-8.107 3.66m0-11.265c-8.311 0-12.971 2.244-12.971 7.565 0 5.322 4.66 7.606 12.971 7.606 8.314 0 12.974-2.284 12.974-7.606 0-5.32-4.66-7.565-12.974-7.565m1.956 17.586c-3.783 1.623-6.608 3.906-8.984 7.151-1.866-3.867-5.19-7.482-8.933-9.566l-2.662 3.99c7.028 2.953 8.729 9.69 8.729 14.266v2.536h5.035v-2.292c0-4.49 1.992-9.934 9.06-12.095zM7.007-93.159v11.248h1.378v-5.598l5.243 5.598h1.802l-4.383-4.528 4.529-6.72h-1.738l-3.732 5.697-1.72-1.751v-3.946zM19.86-86.018c-.658 0-1.216-.266-1.664-.793-.449-.532-.673-1.289-.673-2.272 0-.986.224-1.746.673-2.281.448-.535 1.006-.804 1.664-.804.64 0 1.183.269 1.631.804.448.535.675 1.295.675 2.28 0 .984-.227 1.741-.675 2.273-.448.527-.992.793-1.63.793m0-7.336c-1.18 0-2.083.415-2.702 1.245-.625.826-.933 1.835-.933 3.026 0 1.2.308 2.208.933 3.026.62.816 1.521 1.225 2.701 1.225 1.18 0 2.08-.41 2.701-1.225.625-.818.934-1.827.934-3.026 0-1.191-.309-2.2-.934-3.026-.622-.83-1.521-1.245-2.7-1.245M25.037-93.159v8.166h1.152v-1.723h.034c.302.638.67 1.118 1.101 1.44.434.317.986.465 1.656.445v-1.395c-.995 0-1.698-.294-2.11-.877-.409-.586-.614-1.39-.614-2.421v-3.635zM33.023-86.018c-.628 0-1.127-.224-1.494-.672-.367-.448-.58-.992-.633-1.63h4.318c-.045.646-.266 1.193-.667 1.638-.4.443-.908.664-1.524.664m.21-6.15c.507 0 .93.131 1.266.398.334.266.558.658.667 1.177h1.216c-.173-.889-.538-1.57-1.095-2.046-.558-.474-1.253-.715-2.088-.715-1.2 0-2.093.407-2.676 1.217-.586.812-.894 1.84-.925 3.085 0 1.213.33 2.219.99 3.02.66.8 1.499 1.2 2.516 1.2 1.33 0 2.239-.527 2.726-1.583.488-1.054.715-2.08.681-3.074h-5.615c-.012-.704.17-1.326.543-1.87.373-.54.973-.81 1.794-.81M40.277-92.168c.802 0 1.376.216 1.729.647.35.435.527.835.527 1.202v1.38c-.227-.194-.55-.315-.967-.365-.415-.048-.83-.112-1.241-.185a2.763 2.763 0 0 1-1.054-.432c-.303-.21-.454-.56-.454-1.045 0-.434.149-.742.446-.927a1.88 1.88 0 0 1 1.014-.275m3.878 0a1.041 1.041 0 0 1 .39.081v-1.04a1.197 1.197 0 0 0-.373-.17 2.013 2.013 0 0 0-.501-.056c-.326 0-.58.103-.765.308-.183.207-.275.527-.275.958a3.324 3.324 0 0 0-1.194-.958 3.46 3.46 0 0 0-1.451-.308c-.684 0-1.264.179-1.746.538-.482.356-.72.938-.72 1.751 0 .93.26 1.547.784 1.85a6.176 6.176 0 0 0 1.73.666c.68.13 1.274.233 1.776.317.504.081.756.376.756.883 0 .585-.179.952-.538 1.104a2.87 2.87 0 0 1-1.134.227c-.53 0-.967-.101-1.306-.308-.342-.205-.53-.611-.56-1.22H37.81c.031.998.359 1.699.98 2.105.623.406 1.346.608 2.17.608.68 0 1.32-.129 1.922-.39.6-.257.9-.87.9-1.832v-4.19c0-.313.016-.546.05-.697.03-.151.14-.227.322-.227M50.73-93.159v11.248h6.783v-1.263h-5.405v-3.556h4.741v-1.267h-4.741v-5.162zM62.22-86.018c-.659 0-1.216-.266-1.665-.793-.448-.532-.672-1.289-.672-2.272 0-.986.224-1.746.672-2.281.449-.535 1.006-.804 1.665-.804.639 0 1.182.269 1.63.804.452.535.676 1.295.676 2.28 0 .984-.224 1.741-.675 2.273-.449.527-.992.793-1.631.793m0-7.336c-1.18 0-2.08.415-2.701 1.245-.625.826-.934 1.835-.934 3.026 0 1.2.309 2.208.934 3.026.622.816 1.521 1.225 2.7 1.225 1.18 0 2.083-.41 2.702-1.225.625-.818.933-1.827.933-3.026 0-1.191-.308-2.2-.933-3.026-.62-.83-1.521-1.245-2.701-1.245M73.63-84.994v-8.166h-1.17v1.3h-.016c-.26-.51-.594-.885-1.006-1.129-.412-.24-.888-.364-1.429-.364-.984 0-1.659.28-2.029.838-.367.555-.549 1.272-.549 2.149v5.372h1.233v-5.537c0-.496.137-.894.412-1.191.277-.297.647-.446 1.112-.446.749 0 1.3.244 1.665.729.361.49.543 1.098.543 1.835v4.61zM75.61-93.159v8.166h1.168v-1.3h.017c.272.507.61.88 1.023 1.112.411.233.882.35 1.412.35.983 0 1.659-.28 2.029-.837.367-.558.549-1.267.549-2.133v-5.358h-1.233v5.52c0 .485-.132.878-.395 1.175-.266.3-.636.445-1.113.445-.759 0-1.317-.238-1.681-.72-.361-.482-.544-1.084-.544-1.807v-4.613zM86.94-86.018c-.844 0-1.43-.319-1.754-.963-.325-.645-.488-1.368-.488-2.17 0-.756.19-1.448.569-2.076.378-.627.964-.941 1.754-.941.821 0 1.407.322 1.751.966.348.642.519 1.351.519 2.119 0 .799-.177 1.51-.535 2.132-.356.622-.962.933-1.816.933m3.553 4.106v-11.245H89.26v1.1h-.034a1.972 1.972 0 0 0-.972-.98 3.291 3.291 0 0 0-1.43-.317c-1.145 0-2.003.432-2.572 1.292-.568.86-.851 1.864-.851 3.01 0 1.16.28 2.152.843 2.978.563.827 1.418 1.242 2.564 1.242.39 0 .824-.09 1.3-.266.474-.18.85-.519 1.118-1.015h.034v4.2zM94.892-92.168c.801 0 1.376.216 1.729.647.35.435.527.835.527 1.202v1.38c-.227-.194-.55-.315-.967-.365-.415-.048-.83-.112-1.241-.185a2.763 2.763 0 0 1-1.054-.432c-.303-.21-.454-.56-.454-1.045 0-.434.149-.742.446-.927a1.88 1.88 0 0 1 1.014-.275m3.878 0a1.041 1.041 0 0 1 .39.081v-1.04a1.227 1.227 0 0 0-.373-.17 2.021 2.021 0 0 0-.504-.056c-.325 0-.578.103-.762.308-.183.207-.275.527-.275.958a3.324 3.324 0 0 0-1.194-.958 3.46 3.46 0 0 0-1.451-.308c-.684 0-1.264.179-1.746.538-.482.356-.723.938-.723 1.751 0 .93.263 1.547.787 1.85a6.176 6.176 0 0 0 1.73.666c.68.13 1.274.233 1.776.317.504.081.754.376.754.883 0 .585-.18.952-.536 1.104a2.87 2.87 0 0 1-1.134.227c-.53 0-.967-.101-1.306-.308-.342-.205-.53-.611-.56-1.22h-1.217c.031.998.359 1.699.98 2.105.623.406 1.346.608 2.167.608.684 0 1.323-.129 1.925-.39.6-.257.9-.87.9-1.832v-4.19c0-.313.016-.546.05-.697.03-.151.137-.227.322-.227M102.31-82.576v-2.419h1.493v-1.185h-1.494v-5.064c0-.302.06-.498.177-.59.12-.093.37-.141.748-.141h.569v-1.182h-.925c-.639 0-1.098.106-1.381.322-.28.218-.42.703-.42 1.463v5.192h-1.284v1.185h1.283v2.419zM105.31-84.994h1.234v-8.166h-1.233zm1.236 1.46h-1.233v1.622h1.233zM111.754-86.018c-.658 0-1.213-.266-1.664-.793-.448-.532-.673-1.289-.673-2.272 0-.986.225-1.746.673-2.281.451-.535 1.006-.804 1.664-.804.64 0 1.183.269 1.631.804.451.535.676 1.295.676 2.28 0 .984-.225 1.741-.676 2.273-.448.527-.992.793-1.63.793m0-7.336c-1.18 0-2.08.415-2.702 1.245-.625.826-.933 1.835-.933 3.026 0 1.2.308 2.208.933 3.026.622.816 1.522 1.225 2.701 1.225 1.18 0 2.082-.41 2.705-1.225.622-.818.93-1.827.93-3.026 0-1.191-.308-2.2-.93-3.026-.623-.83-1.525-1.245-2.705-1.245M116.965-93.159v8.166h1.168v-1.3h.017c.27.507.611.88 1.023 1.112.409.233.88.35 1.412.35.984 0 1.66-.28 2.029-.837.364-.558.55-1.267.55-2.133v-5.358h-1.234v5.52c0 .485-.131.878-.398 1.175-.263.3-.636.445-1.112.445-.757 0-1.317-.238-1.679-.72-.361-.482-.543-1.084-.543-1.807v-4.613zM130.208-93.159v6.978h-1.266v1.188h1.266v1.182c0 .673.177 1.18.527 1.528.353.344.866.518 1.536.518.117 0 .252-.011.406-.03.151-.023.286-.062.403-.116v-1.168c-.106.053-.224.09-.347.106a2.732 2.732 0 0 1-.364.023c-.292 0-.522-.068-.684-.202-.163-.137-.244-.376-.244-.723v-1.118h1.463v-1.188h-1.463v-6.978zM137.301-86.018c-.658 0-1.216-.266-1.664-.793-.449-.532-.673-1.289-.673-2.272 0-.986.224-1.746.673-2.281.448-.535 1.006-.804 1.664-.804.639 0 1.183.269 1.63.804.45.535.676 1.295.676 2.28 0 .984-.227 1.741-.675 2.273-.448.527-.992.793-1.631.793m0-7.336c-1.18 0-2.08.415-2.701 1.245-.625.826-.933 1.835-.933 3.026 0 1.2.308 2.208.933 3.026.622.816 1.521 1.225 2.701 1.225 1.18 0 2.08-.41 2.701-1.225.625-.818.933-1.827.933-3.026 0-1.191-.308-2.2-.933-3.026-.622-.83-1.521-1.245-2.701-1.245M142.479-93.159v8.166h1.151v-1.723h.034c.303.638.67 1.118 1.101 1.44.435.317.987.465 1.656.445v-1.395c-.995 0-1.698-.294-2.11-.877-.409-.586-.613-1.39-.613-2.421v-3.635zM164.291-81.912l-2.757-11.247h-1.43l-2.37 9.446h-.048l-2.37-9.446h-1.43l-2.661 11.247h1.395l2.032-9.348h.047l2.29 9.348h1.507l2.29-9.348h.016l2.11 9.348zM168.852-86.018c-.659 0-1.214-.266-1.665-.793-.448-.532-.672-1.289-.672-2.272 0-.986.224-1.746.672-2.281.451-.535 1.006-.804 1.665-.804.638 0 1.182.269 1.63.804.452.535.676 1.295.676 2.28 0 .984-.224 1.741-.676 2.273-.448.527-.992.793-1.63.793m0-7.336c-1.18 0-2.08.415-2.702 1.245-.625.826-.933 1.835-.933 3.026 0 1.2.308 2.208.933 3.026.622.816 1.522 1.225 2.702 1.225s2.082-.41 2.704-1.225c.622-.818.93-1.827.93-3.026 0-1.191-.308-2.2-.93-3.026-.622-.83-1.525-1.245-2.704-1.245M174.062-93.159v8.166h1.168v-1.202h.017c.28.454.628.796 1.037 1.023.412.227.872.341 1.382.341.453 0 .874-.103 1.266-.31.387-.202.653-.555.793-1.054.25.423.589.754 1.015.997.428.244.88.367 1.356.367.748 0 1.345-.184 1.793-.554.449-.367.675-.973.675-1.816v-5.958h-1.235v5.358c0 .507-.09.933-.27 1.272-.176.342-.574.51-1.19.51-.583 0-1.051-.182-1.404-.549-.353-.367-.527-.871-.527-1.51v-5.08h-1.252v5.357c0 .53-.093.959-.284 1.29-.187.33-.552.492-1.095.492-.726 0-1.242-.263-1.55-.793-.308-.53-.462-.952-.462-1.266v-5.08zM189.659-86.018c-.628 0-1.124-.224-1.494-.672-.367-.448-.577-.992-.633-1.63h4.318c-.042.646-.266 1.193-.664 1.638-.4.443-.91.664-1.527.664m.21-6.15c.51 0 .933.131 1.266.398.337.266.558.658.667 1.177h1.216c-.173-.889-.538-1.57-1.095-2.046-.558-.474-1.253-.715-2.085-.715-1.202 0-2.093.407-2.679 1.217-.586.812-.891 1.84-.925 3.085 0 1.213.331 2.219.99 3.02.66.8 1.499 1.2 2.516 1.2 1.33 0 2.242-.527 2.726-1.583.488-1.054.715-2.08.684-3.074h-5.618c-.011-.704.17-1.326.546-1.87.373-.54.97-.81 1.79-.81M194.544-93.159v8.166h1.169v-1.3h.017c.269.507.61.88 1.023 1.112.409.233.88.35 1.412.35.983 0 1.659-.28 2.029-.837.364-.558.549-1.267.549-2.133v-5.358h-1.233v5.52c0 .485-.132.878-.398 1.175-.263.3-.636.445-1.11.445-.76 0-1.32-.238-1.681-.72s-.544-1.084-.544-1.807v-4.613zM207.528-81.912h1.382V-93.16h-1.382zM211.083-93.159v8.166h1.168v-1.3h.017c.272.507.61.88 1.023 1.112.409.233.88.35 1.412.35.984 0 1.659-.28 2.029-.837.364-.558.549-1.267.549-2.133v-5.358h-1.233v5.52c0 .485-.132.878-.398 1.175-.263.3-.636.445-1.11.445-.759 0-1.32-.238-1.68-.72-.362-.482-.544-1.084-.544-1.807v-4.613zM227.507-81.619c1.06 0 1.948-.288 2.662-.868.715-.58 1.093-1.48 1.135-2.702h-1.314c-.076.799-.345 1.385-.81 1.755-.465.367-1.05.549-1.754.549a3.13 3.13 0 0 1-1.58-.412c-.485-.278-.726-.788-.726-1.533 0-.684.344-1.132 1.025-1.35.681-.216 1.438-.427 2.273-.631a8.482 8.482 0 0 0 2.286-.958c.692-.424 1.04-1.186 1.04-2.29 0-1.2-.44-2.065-1.314-2.589-.877-.524-1.788-.785-2.727-.785-1.16 0-2.16.32-3.004.956-.843.639-1.266 1.64-1.266 3.004h1.283c0-.93.311-1.611.933-2.046a3.583 3.583 0 0 1 2.102-.65c.616 0 1.208.14 1.768.415.563.274.846.824.846 1.648 0 .767-.344 1.275-1.031 1.524-.69.25-1.443.476-2.264.684a9.25 9.25 0 0 0-2.281.857c-.698.381-1.048 1.079-1.048 2.096 0 1.146.392 1.987 1.177 2.525a4.495 4.495 0 0 0 2.589.801M236.466-84.831c.855 0 1.584-.225 2.192-.667.605-.443.952-1.152 1.04-2.127h-1.284c-.087.51-.286.905-.603 1.188-.31.28-.723.42-1.23.42-.9 0-1.513-.32-1.844-.958-.33-.636-.493-1.373-.493-2.205 0-.749.166-1.432.502-2.054.336-.622.9-.933 1.687-.933.597 0 1.067.179 1.412.535.348.358.558.846.633 1.46h1.267c-.14-.995-.493-1.777-1.056-2.337-.56-.564-1.31-.844-2.24-.844-1.146 0-2.017.393-2.611 1.177-.597.785-.894 1.782-.894 2.996 0 1.221.289 2.253.869 3.09.577.841 1.462 1.259 2.653 1.259M241.334-84.994h1.233v-8.166h-1.233zm1.236 1.46h-1.233v1.622h1.233zM247.567-86.018c-.628 0-1.124-.224-1.494-.672-.367-.448-.577-.992-.633-1.63h4.318c-.042.646-.266 1.193-.667 1.638-.4.443-.908.664-1.524.664m.21-6.15c.51 0 .933.131 1.267.398.336.266.557.658.667 1.177h1.216c-.174-.889-.538-1.57-1.096-2.046-.558-.474-1.252-.715-2.085-.715-1.202 0-2.096.407-2.679 1.217-.585.812-.89 1.84-.924 3.085 0 1.213.33 2.219.989 3.02.661.8 1.499 1.2 2.516 1.2 1.331 0 2.24-.527 2.727-1.583.487-1.054.714-2.08.683-3.074h-5.618c-.011-.704.171-1.326.547-1.87.37-.54.97-.81 1.79-.81M252.452-93.159v8.166h1.168v-1.3h.017c.272.507.61.88 1.023 1.112.412.233.882.35 1.412.35.986 0 1.659-.28 2.029-.837.367-.558.55-1.267.55-2.133v-5.358h-1.234v5.52c0 .485-.132.878-.395 1.175-.266.3-.636.445-1.112.445-.76 0-1.317-.238-1.682-.72-.361-.482-.543-1.084-.543-1.807v-4.613zM263.766-84.831c.854 0 1.583-.225 2.191-.667.605-.443.953-1.152 1.037-2.127h-1.28c-.088.51-.287.905-.603 1.188-.311.28-.723.42-1.23.42-.9 0-1.514-.32-1.844-.958-.33-.636-.496-1.373-.496-2.205 0-.749.168-1.432.504-2.054.334-.622.9-.933 1.687-.933.597 0 1.068.179 1.412.535.348.358.558.846.634 1.46h1.266c-.14-.995-.493-1.777-1.056-2.337-.56-.564-1.309-.844-2.24-.844-1.148 0-2.017.393-2.61 1.177-.598.785-.895 1.782-.895 2.996 0 1.221.289 2.253.87 3.09.576.841 1.462 1.259 2.653 1.259M271.588-86.018c-.628 0-1.124-.224-1.494-.672-.367-.448-.577-.992-.633-1.63h4.318c-.042.646-.266 1.193-.667 1.638-.4.443-.907.664-1.524.664m.21-6.15c.51 0 .93.131 1.267.398.336.266.557.658.667 1.177h1.216c-.174-.889-.538-1.57-1.096-2.046-.557-.474-1.252-.715-2.085-.715-1.202 0-2.096.407-2.679 1.217-.585.812-.89 1.84-.924 3.085 0 1.213.33 2.219.989 3.02.661.8 1.5 1.2 2.516 1.2 1.331 0 2.24-.527 2.727-1.583.487-1.054.714-2.08.684-3.074h-5.619c-.011-.704.171-1.326.547-1.87.37-.54.97-.81 1.79-.81M276.75-94.098v1.75h1.622v-1.588c0-.594-.13-1.076-.39-1.446-.258-.367-.658-.642-1.2-.826v.795c.315.087.536.264.665.536.129.269.185.53.162.779zM285.318-93.159v11.248h7.14v-1.263h-5.76v-3.556h5.374v-1.267h-5.375v-3.895h5.809v-1.267zM294.115-93.159v8.166h1.168v-1.3h.017c.272.507.61.88 1.023 1.112.412.233.883.35 1.412.35.984 0 1.659-.28 2.029-.837.367-.558.55-1.267.55-2.133v-5.358h-1.234v5.52c0 .485-.132.878-.398 1.175-.263.3-.633.445-1.11.445-.759 0-1.316-.238-1.68-.72-.362-.482-.544-1.084-.544-1.807v-4.613zM303.204-88.955c0-.735.149-1.44.446-2.11.3-.67.852-1.006 1.664-1.006.802 0 1.376.333 1.72 1 .348.664.52 1.376.52 2.132 0 .737-.16 1.407-.488 2.012-.323.606-.875.908-1.654.908-.79 0-1.356-.294-1.695-.882-.342-.592-.513-1.273-.513-2.054m5.551 3.962v-7.468c0-1.33-.28-2.331-.843-3.001-.563-.673-1.438-1.009-2.629-1.009-.692 0-1.373.18-2.037.538-.667.356-1.017.978-1.048 1.866h1.216c.034-.498.267-.843.698-1.04.434-.192.843-.29 1.236-.29.81 0 1.392.285 1.743.86.353.571.53 1.314.53 2.225v.549h-.034a2.216 2.216 0 0 0-.975-1.121 2.8 2.8 0 0 0-1.38-.373c-1.114 0-1.947.412-2.499 1.236-.552.821-.826 1.79-.826 2.903 0 .953.25 1.906.754 2.856.504.955 1.398 1.431 2.687 1.431.476 0 .913-.112 1.314-.333.4-.221.712-.555.942-.998h-.017.033v1.169zM310.833-84.994h1.233v-8.166h-1.233zm1.23 1.46h-1.232v1.622h1.233zM314.03-93.159v8.166h1.168v-1.3h.017c.27.507.611.88 1.023 1.112.412.233.88.35 1.412.35.984 0 1.66-.28 2.029-.837.364-.558.55-1.267.55-2.133v-5.358h-1.234v5.52c0 .485-.131.878-.398 1.175-.263.3-.636.445-1.112.445-.757 0-1.314-.238-1.679-.72-.361-.482-.543-1.084-.543-1.807v-4.613zM325.245-86.018c-.627 0-1.126-.224-1.493-.672-.367-.448-.58-.992-.634-1.63h4.319c-.045.646-.267 1.193-.667 1.638-.401.443-.908.664-1.525.664m.21-6.15c.51 0 .93.131 1.267.398.333.266.558.658.667 1.177h1.216c-.174-.889-.538-1.57-1.096-2.046-.557-.474-1.252-.715-2.087-.715-1.2 0-2.093.407-2.676 1.217-.586.812-.894 1.84-.925 3.085 0 1.213.33 2.219.99 3.02.66.8 1.498 1.2 2.515 1.2 1.332 0 2.24-.527 2.727-1.583.488-1.054.715-2.08.68-3.074h-5.615c-.01-.704.171-1.326.544-1.87.373-.54.972-.81 1.793-.81M333.165-86.018c-.628 0-1.124-.224-1.494-.672-.367-.448-.577-.992-.633-1.63h4.318c-.042.646-.266 1.193-.664 1.638-.404.443-.91.664-1.527.664m.21-6.15c.51 0 .933.131 1.266.398.337.266.558.658.667 1.177h1.217c-.174-.889-.538-1.57-1.096-2.046-.558-.474-1.253-.715-2.085-.715-1.202 0-2.093.407-2.679 1.217-.585.812-.89 1.84-.925 3.085 0 1.213.331 2.219.99 3.02.66.8 1.499 1.2 2.516 1.2 1.331 0 2.239-.527 2.727-1.583.487-1.054.714-2.08.683-3.074h-5.618c-.011-.704.17-1.326.546-1.87.373-.54.97-.81 1.79-.81M338.018-93.159v8.166h1.152v-1.723h.033c.303.638.67 1.118 1.104 1.44.432.317.984.465 1.656.445v-1.395c-.997 0-1.7-.294-2.113-.877-.409-.586-.613-1.39-.613-2.421v-3.635zM343.05-84.994h1.233v-8.166h-1.233zm1.233 1.46h-1.233v1.622h1.233zM346.246-93.159v8.166h1.169v-1.3h.017c.269.507.61.88 1.022 1.112.41.233.88.35 1.413.35.983 0 1.659-.28 2.026-.837.367-.558.552-1.267.552-2.133v-5.358h-1.233v5.52c0 .485-.132.878-.398 1.175-.263.3-.636.445-1.113.445-.756 0-1.317-.238-1.678-.72-.362-.482-.544-1.084-.544-1.807v-4.613zM355.334-88.955c0-.735.149-1.44.446-2.11.3-.67.852-1.006 1.664-1.006.802 0 1.376.333 1.721 1 .347.664.521 1.376.521 2.132 0 .737-.162 1.407-.49 2.012-.322.606-.874.908-1.653.908-.79 0-1.357-.294-1.696-.882-.342-.592-.513-1.273-.513-2.054m5.552 3.962v-7.468c0-1.33-.28-2.331-.844-3.001-.563-.673-1.437-1.009-2.628-1.009-.693 0-1.373.18-2.038.538-.666.356-1.014.978-1.048 1.866h1.22c.03-.498.263-.843.697-1.04.432-.192.84-.29 1.233-.29.81 0 1.393.285 1.743.86.353.571.53 1.314.53 2.225v.549h-.034a2.216 2.216 0 0 0-.975-1.121 2.8 2.8 0 0 0-1.379-.373c-1.115 0-1.947.412-2.497 1.236-.554.821-.829 1.79-.829 2.903 0 .953.25 1.906.754 2.856.504.955 1.398 1.431 2.687 1.431.476 0 .914-.112 1.314-.333.401-.221.715-.555.942-.998h-.017.034v1.169zM369.795-92.168c.802 0 1.376.216 1.73.647.35.435.526.835.526 1.202v1.38c-.227-.194-.55-.315-.967-.365a20.29 20.29 0 0 1-1.238-.185 2.758 2.758 0 0 1-1.057-.432c-.302-.21-.454-.56-.454-1.045 0-.434.149-.742.446-.927a1.88 1.88 0 0 1 1.014-.275m3.879 0a1.042 1.042 0 0 1 .39.081v-1.04a1.197 1.197 0 0 0-.374-.17 2.013 2.013 0 0 0-.501-.056c-.325 0-.58.103-.765.308-.182.207-.275.527-.275.958a3.324 3.324 0 0 0-1.194-.958 3.46 3.46 0 0 0-1.451-.308c-.684 0-1.264.179-1.746.538-.479.356-.72.938-.72 1.751 0 .93.26 1.547.785 1.85a6.21 6.21 0 0 0 1.729.666c.68.13 1.275.233 1.776.317.505.081.757.376.757.883 0 .585-.18.952-.538 1.104a2.87 2.87 0 0 1-1.135.227c-.53 0-.967-.101-1.306-.308-.342-.205-.53-.611-.56-1.22h-1.217c.031.998.36 1.699.981 2.105.622.406 1.345.608 2.17.608.68 0 1.319-.129 1.921-.39.6-.257.9-.87.9-1.832v-4.19c0-.313.017-.546.05-.697.031-.151.14-.227.322-.227M375.493-93.159v8.166h1.168v-1.3h.017c.269.507.61.88 1.023 1.112.409.233.88.35 1.412.35.984 0 1.659-.28 2.029-.837.364-.558.55-1.267.55-2.133v-5.358h-1.234v5.52c0 .485-.132.878-.398 1.175-.263.3-.636.445-1.112.445-.757 0-1.317-.238-1.679-.72-.361-.482-.543-1.084-.543-1.807v-4.613zM386.822-86.018c-.844 0-1.43-.319-1.754-.963-.325-.645-.485-1.368-.485-2.17 0-.756.188-1.448.566-2.076.381-.627.964-.941 1.754-.941.821 0 1.407.322 1.752.966.347.642.52 1.351.52 2.119 0 .799-.179 1.51-.537 2.132-.356.622-.961.933-1.816.933m3.553 4.106v-11.245h-1.233v1.1h-.033a1.972 1.972 0 0 0-.973-.98 3.291 3.291 0 0 0-1.429-.317c-1.146 0-2.004.432-2.57 1.292-.571.86-.854 1.864-.854 3.01 0 1.16.28 2.152.846 2.978.56.827 1.415 1.242 2.564 1.242.387 0 .821-.09 1.297-.266.477-.18.85-.519 1.119-1.015h.033v4.2zM399.514-93.159v9.985h-3.458v1.263h8.278v-1.263h-3.442v-9.985zM408.439-86.018c-.628 0-1.124-.224-1.494-.672-.367-.448-.577-.992-.63-1.63h4.315c-.042.646-.266 1.193-.664 1.638-.4.443-.91.664-1.527.664m.213-6.15c.507 0 .93.131 1.264.398.336.266.56.658.667 1.177h1.216c-.174-.889-.538-1.57-1.096-2.046-.557-.474-1.252-.715-2.085-.715-1.202 0-2.093.407-2.679 1.217-.582.812-.89 1.84-.924 3.085 0 1.213.33 2.219.989 3.02.661.8 1.5 1.2 2.516 1.2 1.331 0 2.242-.527 2.727-1.583.487-1.054.714-2.08.684-3.074h-5.616c-.011-.704.168-1.326.544-1.87.372-.54.97-.81 1.793-.81M416.458-84.831c.855 0 1.584-.225 2.192-.667.605-.443.952-1.152 1.036-2.127h-1.28c-.087.51-.289.905-.603 1.188-.31.28-.723.42-1.233.42-.896 0-1.513-.32-1.84-.958-.331-.636-.497-1.373-.497-2.205 0-.749.168-1.432.505-2.054.333-.622.896-.933 1.687-.933.597 0 1.067.179 1.412.535.347.358.558.846.633 1.46h1.264c-.137-.995-.49-1.777-1.054-2.337-.563-.564-1.308-.844-2.239-.844-1.148 0-2.017.393-2.611 1.177-.597.785-.894 1.782-.894 2.996 0 1.221.289 2.253.869 3.09.577.841 1.462 1.259 2.653 1.259M421.246-93.159v11.248h1.233v-4.284h.05c.194.487.524.838.99 1.045.464.213.913.32 1.347.32.984 0 1.66-.28 2.029-.838.364-.558.55-1.267.55-2.133v-5.358h-1.234v5.52c0 .485-.131.878-.398 1.175-.263.3-.636.445-1.112.445-.757 0-1.317-.238-1.679-.72-.364-.482-.543-1.084-.543-1.807v-4.613zM429.425-93.159v8.166h1.169v-1.3h.016c.272.507.611.88 1.023 1.112.412.233.883.35 1.412.35.984 0 1.66-.28 2.03-.837.366-.558.548-1.267.548-2.133v-5.358h-1.232v5.52c0 .485-.132.878-.398 1.175-.264.3-.634.445-1.11.445-.76 0-1.317-.238-1.681-.72-.362-.482-.544-1.084-.544-1.807v-4.613zM440.851-86.018c-.658 0-1.213-.266-1.664-.793-.448-.532-.673-1.289-.673-2.272 0-.986.225-1.746.673-2.281.451-.535 1.006-.804 1.664-.804.64 0 1.183.269 1.631.804.452.535.676 1.295.676 2.28 0 .984-.224 1.741-.676 2.273-.448.527-.992.793-1.63.793m0-7.336c-1.18 0-2.08.415-2.702 1.245-.622.826-.933 1.835-.933 3.026 0 1.2.311 2.208.933 3.026.622.816 1.522 1.225 2.702 1.225s2.082-.41 2.704-1.225c.622-.818.93-1.827.93-3.026 0-1.191-.308-2.2-.93-3.026-.622-.83-1.525-1.245-2.705-1.245M446.142-81.912h1.233V-93.16h-1.233zM452.586-86.018c-.659 0-1.217-.266-1.665-.793-.448-.532-.672-1.289-.672-2.272 0-.986.224-1.746.672-2.281.448-.535 1.006-.804 1.665-.804.639 0 1.182.269 1.63.804.452.535.676 1.295.676 2.28 0 .984-.224 1.741-.676 2.273-.448.527-.991.793-1.63.793m0-7.336c-1.18 0-2.08.415-2.702 1.245-.625.826-.933 1.835-.933 3.026 0 1.2.308 2.208.933 3.026.622.816 1.522 1.225 2.702 1.225s2.082-.41 2.704-1.225c.622-.818.93-1.827.93-3.026 0-1.191-.308-2.2-.93-3.026-.622-.83-1.525-1.245-2.704-1.245M458.704-88.955c0-.735.149-1.44.446-2.11.3-.67.852-1.006 1.664-1.006.802 0 1.374.333 1.721 1 .347.664.518 1.376.518 2.132 0 .737-.16 1.407-.487 2.012-.322.606-.874.908-1.653.908-.79 0-1.357-.294-1.699-.882-.339-.592-.51-1.273-.51-2.054m5.552 3.962v-7.468c0-1.33-.283-2.331-.844-3.001-.563-.673-1.44-1.009-2.631-1.009-.692 0-1.37.18-2.035.538-.666.356-1.017.978-1.048 1.866h1.217c.033-.498.266-.843.697-1.04.435-.192.844-.29 1.236-.29.81 0 1.393.285 1.743.86.353.571.53 1.314.53 2.225v.549h-.034a2.216 2.216 0 0 0-.975-1.121 2.8 2.8 0 0 0-1.379-.373c-1.115 0-1.947.412-2.5 1.236-.551.821-.826 1.79-.826 2.903 0 .953.25 1.906.754 2.856.501.955 1.398 1.431 2.687 1.431.477 0 .914-.112 1.314-.333.398-.221.712-.555.94-.998h-.015.034v1.169zM472.516-84.994l-3.245-9.253c-.272-.787-.564-1.348-.877-1.678-.314-.331-.749-.496-1.3-.496-.138 0-.284.01-.43.033a1.604 1.604 0 0 0-.428.13v1.201c.118-.033.235-.07.356-.112.117-.045.244-.067.372-.067.25 0 .452.062.6.188.154.123.294.305.423.543l.488 1.396-2.97 8.115h1.395l2.191-6.689h.034l2.093 6.689zM435.233-69.949h-4.9v18.323h-3.156v-18.323h-4.9v37.885h4.9V-47.19h3.155v15.126h4.901zm-17.13 4.901c-1.96 1.959-4.816 5.54-6.436 9.205-.939-3.833-3.365-7.97-5.243-10.228l-3.62 3.024c5.03 5.117 6.347 12.486 6.347 24.76h-5.237v4.433h15.339v-4.433h-5.201c0-10.993 1.194-18.066 7.333-23.354zM100.76-53.233v8.435h-6.446c.132-1.16.171-2.452.171-3.783 0-1.698-.087-3.237-.246-4.652zM85.341-37.608c-3.708 0-4.784-5.529-4.784-11.057 0-5.605 1.076-10.974 4.736-10.974 3.747 0 4.615 5.37 4.615 11.018 0 5.484-.868 11.013-4.567 11.013m15.417-3.152v8.266h4.904v-36.955h-4.904v12.226h-7.358c-1.331-4.161-3.946-6.358-8.06-6.358-6.405 0-9.359 5.273-9.359 14.916 0 9.566 2.954 14.972 9.36 14.972 4.36 0 7.02-2.5 8.275-7.067zM141.444-54.733h-4.982v12.226h-6.115v4.03h6.115v5.943h4.982zM128.725-58.1c-5.36 0-8.104-1.076-8.104-3.66 0-2.575 2.743-3.698 8.104-3.698 5.36 0 8.107 1.123 8.107 3.699 0 2.583-2.746 3.66-8.107 3.66m0-11.266c-8.311 0-12.971 2.248-12.971 7.57 0 5.318 4.66 7.601 12.971 7.601 8.314 0 12.971-2.283 12.971-7.602 0-5.321-4.657-7.569-12.971-7.569m1.953 17.587c-3.783 1.622-6.605 3.906-8.98 7.151-1.87-3.867-5.19-7.482-8.937-9.567l-2.66 3.993c7.029 2.951 8.73 9.688 8.73 14.264v2.536h5.035v-2.293c0-4.489 1.992-9.933 9.057-12.094zM32.447-69.522H13.969c-5.896 0-8.325 5.078-8.325 9.09v4.758h5.027v-5.013a4.447 4.447 0 0 1 4.447-4.447h17.329ZM11.905-49.238c-3.197 0-4.43 2.388-4.43 4.686 0 2.348 1.233 4.733 4.388 4.733 3.197 0 4.43-2.385 4.43-4.733 0-2.298-1.233-4.686-4.388-4.686m10.74 14.488h-8.182v3.752H9.436v-3.752H1.338v-4.13h3.066c-1.15-1.494-1.788-3.456-1.788-5.672 0-5.324 3.665-8.99 9.247-8.99s9.331 3.708 9.331 8.99c0 2.216-.639 4.178-1.83 5.671h3.282zM36.068-46h-4.6v-12.743h-4.986v26.637h4.985v-9.547h4.601zM219.258-46h-4.601v-8.818l-4.985-.022v22.734h4.985v-9.547h4.601zM42.607-33.3h18.478c5.895 0 8.325-5.078 8.325-9.09v-6.846h-5.027v7.1a4.446 4.446 0 0 1-4.444 4.448H42.607Z" style="fill:#00839b;fill-opacity:1;fill-rule:nonzero;stroke:none;stroke-width:2.80218" transform="matrix(1.33333 0 0 -1.33333 -.403 71.372)"/><path d="M58.227-56.1v4.73h14.106v4.392H39.094v-4.391H53.2v-4.73" style="fill:#00839b;fill-opacity:1;fill-rule:nonzero;stroke:none;stroke-width:2.80218" transform="matrix(1.33333 0 0 -1.33333 -.403 71.372)"/><path d="M65.497-64.936v-4.514h5.027v4.26c0 4.012-2.43 9.09-8.325 9.09H41.188v-4.389H61.05a4.447 4.447 0 0 0 4.447-4.447M195.096-49.238c-3.197 0-4.433 2.388-4.433 4.686 0 2.348 1.236 4.733 4.39 4.733 3.195 0 4.431-2.385 4.431-4.733 0-2.298-1.236-4.686-4.388-4.686m10.74 14.488h-8.182v3.752h-5.027v-3.752h-8.098v-4.13h3.065c-1.148-1.494-1.787-3.456-1.787-5.672 0-5.324 3.665-8.99 9.247-8.99s9.331 3.708 9.331 8.99c0 2.216-.639 4.178-1.83 5.671h3.282zM210.61-65.008v-4.515h5.028v4.26c0 4.012-2.43 9.09-8.329 9.09h-21.007v-4.388h19.861a4.449 4.449 0 0 0 4.447-4.447M301.993-48.532c-3.281 0-4.99 2.368-4.99 5.86 0 3.452 1.67 5.78 4.99 5.78 3.33 0 4.784-2.328 4.784-5.78 0-3.492-1.455-5.86-4.784-5.86m0 15.594c-5.565 0-9.519-3.208-9.519-9.734 0-6.521 3.99-9.805 9.52-9.805 5.405 0 9.31 3.284 9.31 9.805 0 6.49-3.905 9.734-9.31 9.734M322.488-58.138h-4.907v26.03h4.907zM302.224-60.686v4.514h-5.027v-4.259c0-4.013 2.43-9.09 8.328-9.09H324v4.388h-17.328a4.447 4.447 0 0 0-4.448 4.447M475.434-44.509h-5.027v-14.277h-4.985v7.504c-2.472-.641-4.475-.896-6.95-.896H445.65c-3.156 0-4.946 1.064-4.946 4.007v14.913h19.859v-4.346h-14.958V-47.79h16.92c1.745 0 2.897 1.023 2.897 2.516v13.168h4.985v-8.012h5.027zM449.696-60.686v4.514h-5.027v-4.259c0-4.013 2.43-9.09 8.325-9.09h18.477v4.388H454.14a4.446 4.446 0 0 0-4.444 4.447M251.576-69.45h-4.915v36.089h4.915zM288.693-51.467h-13.437v-2.513h10.92v-9.096h-21.963v-2.438h22.37v-3.528h-23.466c-1.788 0-3.654.97-3.654 3.206v5.926h21.882v2.396h-21.882v3.534h11.001v2.513h-13.436v3.898h31.665zM278.641-35.443c-.12.137-2.978 3.371-5.907 3.371-2.34 0-4.22-1.824-5.436-3.197l-9.003-10.192-.348-.398h5.753l6.005 6.877c1.502 1.77 2.886 1.751 2.909 1.751 1.415 0 2.497-1.208 2.853-1.605l5.84-6.776.212-.247h6.255zM234.889-43.309v-17.348h4.789v17.107c0 3.822-2.315 8.659-7.933 8.659h-9.828v-4.181h8.735a4.237 4.237 0 0 0 4.237-4.237M355.29-65.125v-4.396h4.898v4.147c0 3.912-2.368 8.858-8.113 8.858h-20.467v-4.276h19.35a4.332 4.332 0 0 0 4.331-4.333M345.248-36.68c7.776 0 8.675-1.751 8.675-3.068 0-1.446-.986-3.108-8.675-3.108-7.846 0-8.757 1.749-8.757 3.068 0 1.45.997 3.108 8.757 3.108m0-10.093c9.252 0 13.753 2.297 13.753 7.025 0 4.702-4.5 6.986-13.753 6.986-9.306 0-13.835-2.298-13.835-7.026 0-4.702 4.529-6.985 13.835-6.985" style="fill:#00839b;fill-opacity:1;fill-rule:nonzero;stroke:none;stroke-width:2.80218" transform="matrix(1.33333 0 0 -1.33333 -.403 71.372)"/><path d="M329.372-48.904v-4.436h6.728v-3.81h5.24v3.81h7.818v-3.81h5.198v3.81h6.767v4.436zM137.374 10.515c-1.48.922-3.195 1.695-5.1 2.295a63.29 63.29 0 0 1-5.666 1.5 39.93 39.93 0 0 0-3.881.935c-1.113.334-2.085.726-2.884 1.177-.728.412-1.28.872-1.65 1.379-.314.426-.465.9-.465 1.451 0 1.393.616 2.293 2.003 2.917 1.69.763 4.324 1.15 7.832 1.15h13.061v9.325h-13.383a48.75 48.75 0 0 1-7.199-.527c-2.41-.367-4.581-1.048-6.462-2.02-1.947-1.015-3.547-2.407-4.758-4.136-1.255-1.788-1.888-4.063-1.888-6.77 0-2.284.526-4.257 1.563-5.876a13.16 13.16 0 0 1 3.867-3.893c1.513-1 3.223-1.813 5.086-2.41a56.415 56.415 0 0 1 5.277-1.434 48.06 48.06 0 0 0 3.802-.939c1.155-.339 2.155-.734 2.982-1.171.756-.398 1.353-.85 1.77-1.34.323-.375.474-.754.474-1.19 0-.73-.182-1.304-.557-1.763-.443-.544-1.051-.995-1.816-1.345-.835-.393-1.816-.681-2.914-.86a22.116 22.116 0 0 0-3.587-.286h-15.182v-9.264h15.308c2.379 0 4.744.224 7.033.661 2.34.448 4.447 1.208 6.263 2.253a13.334 13.334 0 0 1 4.573 4.296c1.194 1.818 1.8 4.082 1.8 6.728 0 2.132-.508 3.979-1.511 5.5-.967 1.455-2.245 2.685-3.791 3.657M147.574.998c0-4.666 1.392-8.152 4.141-10.36 2.657-2.138 6.37-3.22 11.038-3.22h17.872v8.6h-16.527c-2.345 0-4.063.41-4.96 1.18-.849.728-1.28 2.11-1.28 4.102v5.128h21.837v8.538h-21.837v9.08h22.767v8.6h-33.051zM185.566 32.645v-9.69h12.568v-35.537h10.539v35.537h12.895v9.69z" style="fill:#00839b;fill-opacity:1;fill-rule:nonzero;stroke:none;stroke-width:2.80218" transform="matrix(1.33333 0 0 -1.33333 -.403 71.372)"/><path d="M107.235 47.696A8.84 8.84 0 1 0 90.61 41.68c-1.662 4.59.712 9.656 5.304 11.32 4.59 1.66 9.66-.714 11.321-5.304" style="fill:#ff9f19;fill-opacity:1;fill-rule:nonzero;stroke:none;stroke-width:2.80218" transform="matrix(1.33333 0 0 -1.33333 -.403 71.372)"/><path d="M97.605 24.497a8.149 8.149 0 0 1-16.297 0c0-.972.24-1.877.552-2.743l.18-.488c.691-2.286 3.365-10.037-4.95-12.893l-.832-.226c-4.623-1.191-8.11-5.199-8.11-10.192 0-5.918 4.798-10.716 10.72-10.716 5.917 0 10.715 4.798 10.715 10.716 0 1.72-.493 3.284-1.214 4.724l-.313.788s-4.33 9.152 4.937 13.736l.244.12c2.724 1.32 4.368 3.946 4.368 7.174M66.809 32.645H55.687L47.768 1.233l-8.474 31.412h-10.93L20.432 1.244l-8.726 31.401H.302l13.94-45.35h13.303l6.296 27.088 8.101-27.144h12.476Z" style="fill:#00839b;fill-opacity:1;fill-rule:nonzero;stroke:none;stroke-width:2.80218" transform="matrix(1.33333 0 0 -1.33333 -.403 71.372)"/></svg>