<svg xmlns="http://www.w3.org/2000/svg" xml:space="preserve" width="1251.1304" height="217.59822" viewBox="0 0 1251.1304 217.59822"><defs><linearGradient id="a" x1="0" x2="1" y1="0" y2="0" gradientTransform="matrix(111.29537 0 0 -111.29537 962.117 343.297)" gradientUnits="userSpaceOnUse" spreadMethod="pad"><stop offset="0" style="stop-opacity:1;stop-color:#dab42c"/><stop offset="0.385475" style="stop-opacity:1;stop-color:#dab42c"/><stop offset="0.65049102" style="stop-opacity:1;stop-color:#70b2dd"/><stop offset="0.659218" style="stop-opacity:1;stop-color:#70b2dd"/><stop offset="1" style="stop-opacity:1;stop-color:#70b2dd"/></linearGradient></defs><path d="m1123.633 316.168-55.463 97.148c-4.451 7.796-15.687 7.8-20.149.015l-6.329-11.056 38.375-65.988c4.496-7.736-1.082-17.44-10.03-17.44h-56.124c-8.912 0-14.5 9.634-10.069 17.37l1.918 3.35h-60.07c-.446 0-.876.045-1.302.09l-13.744-23.358c-4.547-7.736 1.026-17.49 10.004-17.49h172.904c8.913 0 14.496 9.624 10.08 17.36" style="fill:#ce9900;fill-opacity:1;fill-rule:nonzero;stroke:none;stroke-width:5.00708" transform="matrix(1.33333 0 0 -1.33333 -1238.703 610.516)"/><path d="m1010.026 417.271 20.439-34.589 11.226 19.593-28.986 49.84c-4.442 7.636-15.447 7.711-19.984.13l-56.98-95.11c-4.406-7.354.415-16.578 8.652-17.474l45.64 77.59c4.48 7.62 15.496 7.63 19.993.02" style="fill:#087b4f;fill-opacity:1;fill-rule:nonzero;stroke:none;stroke-width:5.00708" transform="matrix(1.33333 0 0 -1.33333 -1238.703 610.516)"/><path d="M966.928 358.302a4.814 4.814 0 0 1-4.812-4.817 4.81 4.81 0 0 1 4.812-4.812h50.026l-4.762-10.234a7.094 7.094 0 0 1 .446-6.845 7.104 7.104 0 0 1 6.018-3.3h49.94a4.81 4.81 0 0 1 4.813 4.812 4.807 4.807 0 0 1-4.812 4.812h-46.035l4.937 10.61a6.83 6.83 0 0 1-.43 6.595 6.844 6.844 0 0 1-5.794 3.179z" style="fill:url(#a);stroke:none;stroke-width:5.00708" transform="matrix(1.33333 0 0 -1.33333 -1238.703 610.516)"/><path d="M1214.935 420.78c0 1.301-.18 2.293-.536 2.979-.36.686-1.057 1.186-2.103 1.512-.456.13-.786.41-.977.836-.195.42-.29.841-.29 1.267 0 .425.13.796.386 1.126.265.326.62.486 1.076.486h15.142v-25.691h14.75l-1.266-6.94a4.514 4.514 0 0 0-1.072-2.293c-.59-.686-1.342-1.027-2.253-1.027h-10.16v-28.82h-12.697zm-24.325-24.916c0 3.525-.951 6.484-2.834 8.893-1.893 2.413-4.691 3.615-8.407 3.615-3.715 0-6.449-1.202-8.206-3.615-1.758-2.409-2.639-5.368-2.639-8.893 0-3.515.866-6.429 2.594-8.742 1.722-2.308 4.476-3.465 8.251-3.465 3.776 0 6.595 1.157 8.457 3.465 1.853 2.313 2.784 5.227 2.784 8.742m-12.703-44.453h43.377c1.367 0 2.638.08 3.805.25a99.75 99.75 0 0 1 2.934.436c2.088.39 2.87-.355 2.348-2.248l-2.438-8.697h-59.409c-.976 0-1.772.33-2.388.976-.621.651-.932 1.437-.932 2.349v16.117c0 1.302-.18 2.294-.535 2.985-.361.68-1.062 1.186-2.103 1.512-.456.13-.777.405-.977.83-.195.426-.29.842-.29 1.268 0 .425.125.806.39 1.121.26.33.616.49 1.077.49h15.141zm-18.366 69.273h13.675v2.344c0 1.296-.18 2.293-.536 2.979-.36.686-1.057 1.191-2.098 1.512-.46.135-.786.41-.981.831-.196.426-.29.846-.29 1.272 0 .426.13.801.385 1.121.265.331.62.491 1.076.491h15.142v-10.55h12.703c1.236 0 2.428.08 3.565.24 1.141.166 2.103.376 2.884.637 1.111.325 1.902.325 2.393 0 .486-.326.6-.942.346-1.853l-2.544-8.793h-9.478a16.958 16.958 0 0 0 5.182-6.158c1.232-2.474 1.853-5.473 1.853-8.988 0-3.064-.536-5.893-1.613-8.502-1.076-2.604-2.623-4.852-4.636-6.74-2.023-1.892-4.482-3.354-7.38-4.396-2.9-1.041-6.135-1.562-9.72-1.562-3.65 0-6.904.536-9.773 1.612-2.86 1.077-5.288 2.554-7.276 4.442a18.826 18.826 0 0 0-4.541 6.694c-1.047 2.574-1.562 5.388-1.562 8.452 0 6.845 2.278 11.887 6.834 15.146h-10.26l-2.533 8.793c-.265.911-.155 1.527.336 1.853.49.325 1.292.325 2.393 0 .786-.26 1.748-.471 2.884-.636 1.142-.16 2.324-.24 3.57-.24M1318.69 373.494v-33.608h-12.698v23.348h-50.116l-2.444 8.697c-.525 1.883.256 2.64 2.344 2.244.78-.126 1.757-.276 2.934-.441a28.08 28.08 0 0 1 3.805-.24h17.785v11.821h-35.57l-2.534 8.793c-.26.911-.15 1.527.341 1.857.49.326 1.287.326 2.398 0 .776-.26 1.738-.475 2.88-.636a25.552 25.552 0 0 1 3.564-.245h51.103c.58 2.018 1.001 4.281 1.267 6.79a75.66 75.66 0 0 1 .39 7.67v7.236h-47.097l-2.538 9.278c-.255.906-.145 1.527.345 1.852.491.331 1.282.331 2.394 0 .78-.255 1.737-.47 2.879-.63a24.882 24.882 0 0 1 3.57-.246h54.121v-17.49c0-2.608-.23-5.162-.68-7.67-.456-2.509-.977-4.772-1.563-6.79h5.959c1.236 0 2.423.085 3.56.245 1.141.16 2.103.376 2.889.636 1.101.326 1.902.326 2.393 0 .49-.33.601-.946.34-1.857l-2.538-8.793h-35.175v-11.821zM1402.323 420.78c0 1.301-.185 2.293-.535 2.979-.366.686-1.062 1.186-2.103 1.512-.456.13-.781.41-.982.836-.19.42-.285.841-.285 1.267 0 .425.125.796.39 1.126.26.326.616.486 1.077.486h15.136v-88.61h-12.698zm-56.184-4.202h12.803v4.201c0 1.302-.175 2.294-.536 2.98-.36.686-1.056 1.186-2.098 1.512-.46.13-.786.41-.981.836-.195.42-.29.841-.29 1.267 0 .425.13.796.395 1.126.255.326.616.486 1.072.486h15.136v-12.408h10.46c1.237 0 2.423.08 3.565.246 1.137.16 2.098.37 2.884.636 1.107.32 1.903.32 2.393 0 .486-.33.601-.947.34-1.863l-2.538-9.278h-17.104v-7.325c0-1.893.115-3.84.345-5.864.226-2.018.702-3.775 1.423-5.277 1.562-3.515 3.495-6.53 5.808-9.033 2.318-2.508 5.322-4.902 9.033-7.185.79-.52 1.487-.876 2.102-1.077.621-.19 1.352-.285 2.204-.285 1.231 0 2.052-.345 2.443-1.026.386-.686.326-1.422-.2-2.199l-6.35-8.792c-4.886 2.859-9.347 6.054-13.383 9.569-4.04 3.52-7.295 7.14-9.774 10.845-1.167-2.088-2.684-4.201-4.541-6.35a65.296 65.296 0 0 0-6.154-6.203 77.802 77.802 0 0 0-7.08-5.568c-2.479-1.727-4.857-3.18-7.135-4.346l-6.45 8.397c-.65.851-.815 1.642-.49 2.398.33.746 1.177 1.122 2.544 1.122.846 0 1.642.145 2.393.44.746.291 1.577.697 2.494 1.222 3.575 2.148 6.644 4.492 9.182 7.035 2.534 2.544 4.752 5.503 6.645 8.888 1.166 2.083 1.837 4.28 2.003 6.6.16 2.307.24 4.54.24 6.689v7.325H1339.5l-2.539 9.278c-.26.916-.15 1.532.34 1.863.486.32 1.287.32 2.399 0 .776-.266 1.742-.476 2.879-.636a24.842 24.842 0 0 1 3.56-.246M1486.055 420.78c0 1.301-.18 2.293-.535 2.979-.366.686-1.057 1.186-2.103 1.512-.456.13-.786.41-.982.836-.19.42-.285.841-.285 1.267 0 .425.125.796.385 1.126.266.326.616.486 1.077.486h15.141v-26.182h14.751l-1.267-6.94c-.13-.846-.49-1.607-1.071-2.293-.59-.681-1.342-1.027-2.253-1.027h-10.16v-26.572h-12.698zm-36.832-69.369h43.382c1.362 0 2.633.08 3.805.25 1.172.16 2.148.306 2.93.436 2.082.39 2.868-.355 2.347-2.248l-2.443-8.697h-59.399c-.981 0-1.783.33-2.398.976a3.307 3.307 0 0 0-.932 2.349v17.685c0 1.301-.175 2.293-.535 2.974-.35.69-1.057 1.191-2.098 1.517-.456.13-.782.405-.977.831-.195.42-.295.846-.295 1.272 0 .42.13.796.39 1.121.26.326.621.491 1.077.491h15.146zm23.158 37.719c.776-.526 1.507-.867 2.193-1.027a6.14 6.14 0 0 1 2.098-.145c1.107.06 1.858-.22 2.248-.836.39-.616.33-1.317-.195-2.103l-5.758-8.397c-2.023.846-4.096 1.933-6.209 3.27a72.306 72.306 0 0 0-6.154 4.35 71.973 71.973 0 0 0-5.618 4.888c-1.762 1.692-3.29 3.32-4.591 4.882-2.479-3.586-5.718-7.08-9.719-10.505-4.005-3.415-8.587-6.37-13.73-8.838l-6.153 8.202c-.59.851-.706 1.567-.345 2.148.355.59 1.031.886 2.007.886.842 0 1.608.095 2.294.285.686.2 1.477.556 2.388 1.077a53.528 53.528 0 0 1 8.207 6.259c2.543 2.338 4.366 4.426 5.472 6.249.716 1.171 1.277 2.213 1.663 3.124.39.916.67 1.778.831 2.594.16.81.26 1.627.295 2.438.03.816.05 1.743.05 2.784v7.721c0 1.302-.185 2.298-.535 2.98-.36.68-1.067 1.186-2.103 1.511-.46.13-.781.411-.977.832a3.03 3.03 0 0 0-.3 1.271c0 .426.135.797.395 1.122.256.325.616.49 1.072.49h15.146v-15.827c0-1.822.146-3.404.441-4.741.29-1.337 1.092-2.945 2.393-4.832 1.367-1.958 3.125-3.94 5.278-5.959 2.148-2.023 4.787-4.075 7.916-6.153M1583.068 420.78c0 1.301-.18 2.293-.536 2.979-.366.686-1.062 1.186-2.103 1.512-.456.13-.781.41-.982.836-.19.42-.285.841-.285 1.267 0 .425.125.796.39 1.126.261.326.622.486 1.077.486h15.137v-88.61h-12.698zm-16.804 2.052v-25.891c0-1.893-.03-3.535-.1-4.932a21.12 21.12 0 0 0-.531-3.906c-.3-1.212-.776-2.413-1.427-3.62-.646-1.202-1.557-2.488-2.729-3.86-1.632-1.888-3.86-3.991-6.69-6.3-2.838-2.313-5.933-4.576-9.282-6.789a148.815 148.815 0 0 0-10.31-6.209c-3.52-1.917-6.775-3.4-9.769-4.44l-5.958 8.892c-1.377 2.078-.726 3.184 1.947 3.32.786.064 1.583.15 2.399.245.811.095 1.707.375 2.684.83a96.517 96.517 0 0 1 7.085 3.716 94.611 94.611 0 0 1 6.74 4.241c2.117 1.467 4.045 2.92 5.762 4.351 1.728 1.437 3.14 2.8 4.256 4.106.842 1.042 1.492 1.988 1.953 2.83.45.85.781 1.676.976 2.493.19.81.29 1.632.29 2.443v18.221h-30.382l-2.544 9.283c-.26.911-.14 1.532.35 1.853.482.325 1.278.325 2.39 0 .775-.256 1.742-.471 2.878-.636 1.142-.16 2.334-.24 3.57-.24zM1677.547 409.254c1.236-.33 2.133-.52 2.688-.586.546-.07 1.187-.04 1.903.095 1.167.13 1.983-.115 2.443-.73.451-.622.421-1.353-.1-2.204l-4.781-7.816a127.75 127.75 0 0 0-16.469 5.082c-5.437 2.083-10.5 4.692-15.196 7.821-4.682-3.324-9.799-6.028-15.332-8.111a126.246 126.246 0 0 0-17.004-5.077l-4.491 7.225c-.656 1.041-.846 1.918-.586 2.639.265.716.941 1.036 2.053.976a18.788 18.788 0 0 1 2.343-.05c.716.03 1.562.18 2.544.44 5.658 1.307 10.224 2.72 13.674 4.252 3.445 1.532 6.119 3.039 8.011 4.541 1.107.846 1.808 1.562 2.103 2.148.286.586.436 1.307.436 2.148v.786c0 .521-.18 1.107-.536 1.758-.355.65-1.056 1.141-2.098 1.467a1.47 1.47 0 0 0-.981.826c-.19.426-.296.851-.296 1.272 0 .42.136.8.391 1.126.26.32.62.491 1.077.491h15.146v-6.064c0-1.627.21-2.753.63-3.37.427-.62 1.128-1.316 2.104-2.102 2.934-2.278 6.169-4.096 9.724-5.468a114.633 114.633 0 0 1 10.6-3.515m-52.955-31.46h16.999v7.036h-35.365l-2.544 8.787c-.26.916-.145 1.537.34 1.858.491.325 1.288.325 2.399 0 .781-.26 1.742-.476 2.88-.636 1.14-.16 2.327-.24 3.564-.24h70.154c1.237 0 2.424.08 3.565.24 1.137.16 2.098.375 2.885.636 1.101.325 1.902.325 2.388 0 .49-.32.606-.942.345-1.858l-2.543-8.787h-35.365v-7.035h25.791v-23.063h-51.002v-5.468h45.039c1.372 0 2.644.085 3.81.246 1.177.16 2.153.305 2.934.435 2.083.39 2.864-.355 2.349-2.243l-2.439-7.72h-61.557c-.981 0-1.772.325-2.393.975a3.283 3.283 0 0 0-.932 2.344v20.228h51.003v4.982h-48.945l-2.448 7.716c-.52 1.888.265 2.64 2.348 2.249.776-.13 1.758-.28 2.93-.441 1.171-.16 2.438-.24 3.81-.24" style="fill:#0f638e;fill-opacity:1;fill-rule:nonzero;stroke:none;stroke-width:5.00708" transform="matrix(1.33333 0 0 -1.33333 -1238.703 610.516)"/><path d="M1763.81 357.08h-37.027v-7.72h37.027zm-28.53 41.82c0 3.119-.987 5.647-2.98 7.57-1.982 1.918-4.736 2.88-8.251 2.88-3.52 0-6.204-.962-8.062-2.88-1.862-1.923-2.784-4.451-2.784-7.57 0-3.13.907-5.608 2.74-7.431 1.817-1.818 4.52-2.734 8.106-2.734 3.58 0 6.344.916 8.302 2.734 1.957 1.823 2.929 4.301 2.929 7.43m-21.195-55.012v23.648c-.07 1.042-.296 1.853-.686 2.439-.39.585-1.042 1.041-1.953 1.372-.456.13-.781.4-.976.826-.2.425-.296.85-.296 1.271 0 .421.13.797.39 1.127.261.32.617.486 1.077.486h15.147v-9.183h37.022v1.662c-.06 1.042-.29 1.853-.681 2.439-.395.585-1.046 1.041-1.958 1.372-.455.13-.776.4-.976.826-.196.425-.29.85-.29 1.271 0 .421.126.797.39 1.127.26.32.621.486 1.077.486h15.136v-31.17c0-.906-.305-1.692-.921-2.338-.621-.65-1.417-.981-2.399-.981h-55.784c-.976 0-1.777.33-2.393.981-.62.646-.926 1.432-.926 2.339m-9.87 77.284h13.675v2.343c0 1.302-.176 2.299-.536 2.984-.355.681-1.061 1.187-2.098 1.513-.455.13-.78.405-.976.83a3.007 3.007 0 0 0-.295 1.268c0 .425.126.796.39 1.126.26.326.616.486 1.077.486h15.141v-10.55h12.703c1.237 0 2.428.085 3.565.245 1.142.16 2.098.376 2.884.631 1.102.33 1.908.33 2.389 0 .49-.32.6-.941.345-1.852l-1.953-6.74h13.284v7.325c0 1.302-.18 2.294-.536 2.98-.36.686-1.056 1.186-2.103 1.512-.455.13-.776.41-.976.836-.196.42-.29.841-.29 1.267 0 .425.126.796.39 1.121.26.33.621.491 1.077.491h15.136v-49.044h-12.698v6.94h-9.769c-.916 0-1.662.335-2.243 1.016-.586.69-.951 1.452-1.076 2.303l-1.272 6.645h14.36v6.639h-9.769c-.916 0-1.662.345-2.243 1.026-.586.681-.951 1.452-1.076 2.294l-.882 4.596h-7.42c1.622-1.372 2.879-3.08 3.76-5.132.876-2.053 1.312-4.542 1.312-7.476 0-6.183-2.083-10.925-6.254-14.215-4.166-3.284-9.864-4.932-17.094-4.932-7.36 0-13.058 1.658-17.1 4.982-4.035 3.33-6.058 8.047-6.058 14.165 0 2.934.426 5.423 1.277 7.476.841 2.053 2.043 3.76 3.61 5.132h-8.302l-2.543 8.793c-.255.91-.14 1.532.345 1.852.491.33 1.282.33 2.394 0 .78-.255 1.737-.47 2.884-.63a25.566 25.566 0 0 1 3.565-.246" style="fill:#0f638e;fill-opacity:1;fill-rule:nonzero;stroke:none;stroke-width:5.00709" transform="matrix(1.33333 0 0 -1.33333 -1238.703 610.516)"/><path d="M1854.677 420.78c0 1.301-.185 2.293-.536 2.979-.365.686-1.061 1.186-2.103 1.512-.455.13-.78.41-.98.836-.191.42-.286.841-.286 1.267 0 .425.125.796.385 1.126.266.326.616.486 1.077.486h15.141v-88.61h-12.698zm-25.5-29.607c0 2.738-1.027 4.756-3.08 6.063-2.053 1.302-4.932 1.953-8.647 1.953-3.716 0-6.595-.651-8.648-1.953-2.043-1.307-3.069-3.325-3.069-6.063 0-2.734 1.026-4.747 3.07-6.054 2.052-1.302 4.931-1.953 8.647-1.953 3.715 0 6.594.651 8.647 1.953 2.053 1.307 3.08 3.32 3.08 6.054m-36.152 0c0 2.673.57 5.072 1.707 7.185 1.142 2.113 2.754 3.925 4.837 5.422 2.088 1.497 4.647 2.65 7.666 3.465 3.034.811 6.44 1.227 10.215 1.227 3.775 0 7.185-.416 10.209-1.227 3.034-.816 5.588-1.968 7.67-3.465 2.089-1.497 3.696-3.31 4.838-5.422 1.136-2.113 1.707-4.512 1.707-7.185 0-2.67-.57-5.063-1.707-7.18-1.142-2.119-2.75-3.921-4.837-5.423-2.083-1.497-4.637-2.649-7.671-3.465-3.024-.816-6.434-1.217-10.21-1.217-3.775 0-7.18.4-10.214 1.217-3.02.816-5.578 1.968-7.666 3.465-2.083 1.502-3.695 3.304-4.837 5.422-1.136 2.118-1.707 4.512-1.707 7.18m3.425 29.312h14.75v1.762c0 1.302-.184 2.294-.535 2.98-.36.68-1.061 1.186-2.103 1.512-.46.13-.786.41-.976.836-.196.416-.29.841-.29 1.267 0 .425.124.796.385 1.121.26.326.616.491 1.071.491h15.152v-9.969h13.379c1.236 0 2.428.085 3.565.25 1.141.156 2.103.37 2.884.631 1.106.33 1.902.33 2.393 0 .49-.325.601-.946.34-1.852l-2.533-8.502H1789.8l-2.538 8.502c-.265.906-.145 1.527.34 1.852.491.33 1.282.33 2.399 0 .776-.26 1.742-.475 2.879-.63a24.868 24.868 0 0 1 3.57-.251m53.34-61.837c0-1.498-.325-2.59-.976-3.28-.651-.681-1.437-1.057-2.348-1.122l-56.175-3.42-3.12 9.379c-.33.911-.19 1.582.431 2.003.621.425 1.512.445 2.69.05.91-.256 1.877-.491 2.883-.681 1.007-.196 2.158-.266 3.465-.196l16.318.782v1.757c0 1.302-.175 2.293-.536 2.98-.365.68-1.061 1.19-2.103 1.516-.455.13-.78.406-.98.832-.191.42-.286.84-.286 1.266 0 .421.125.802.39 1.122.26.325.616.49 1.077.49h15.136v-9.282l24.134 1.276zM1166.766 311.853l6.67 6.96h3.635l-8.107-8.617 8.888-9.328h-3.636l-7.45 7.596v-7.596h-2.824v16.453c0 .235 0 .356-.265.476-.436.185-.35 1.016.125 1.016h2.964zM1184.569 302.808c2.458 0 3.876 1.707 3.876 4.546 0 2.884-1.417 4.541-3.876 4.541-2.463 0-3.88-1.657-3.88-4.54 0-2.84 1.416-4.547 3.88-4.547m0 11.506c3.745 0 6.755-2.419 6.755-6.96 0-4.471-3.01-6.96-6.755-6.96-3.73 0-6.755 2.489-6.755 6.96 0 4.541 3.025 6.96 6.755 6.96M1193.478 300.869v11.716c0 .236 0 .356-.27.476-.43.19-.34 1.017.135 1.017h2.639l.325-1.017c.566.706 1.853 1.252 3.024 1.252 1.007 0 1.898-.356 2.634-.851l-.736-1.683c-.245-.59-.506-.165-1.092.025-.89.286-1.652.286-2.418-.19-.741-.496-1.302-1.207-1.412-2.248v-8.497zM1212.157 308.68c-.13 1.517-1.091 3.22-3.38 3.22-2.178 0-3.2-1.728-3.314-3.22zm1.763-4.521.806-1.778c-1.177-1.302-3.706-1.988-5.493-1.988-4.156 0-6.835 2.579-6.835 6.675 0 4.19 2.283 7.245 6.45 7.245 4.005 0 6.028-3.385 6.028-6.604 0-.33 0-.877-.085-1.397h-9.479c.2-2.369 2.118-3.505 4.031-3.505 1.177 0 2.353.47 3.295 1.066.606.38.996.901 1.282.286M1225.574 305.553v1.257c-.655.14-1.997.26-2.608.26-2.203 0-3.445-.45-3.445-2.228 0-1.322 1.066-2.033 2.634-2.033 1.767 0 3.42 1.017 3.42 2.744m-7.316 5.633-.68 1.923c2.072.85 4.18 1.206 5.537 1.206 3.415 0 5.272-1.517 5.272-5.187v-8.262h-2.488l-.326 1.207c-.63-.901-2.243-1.682-3.595-1.682-2.964 0-5.332 1.402-5.332 4.431 0 3.17 2.218 4.451 6.099 4.451.76 0 2.093-.12 2.829-.24 0 2.063-.827 2.889-2.654 2.864-.916 0-2.028-.165-3.225-.566-.851-.285-1.201-.831-1.437-.145M1242.253 307.685h5.468l-2.719 7.62zm.566 8.973c.22.565-.13.921-.586 1.086-.39.145-.305 1.072.105 1.072h4.031l6.75-17.946h-2.94l-1.582 4.402h-7.215l-1.562-4.402h-2.95zM1263.27 311.047c-.321-.616-.436-.21-1.197.165-.892.45-1.808.686-2.639.686-.931 0-1.803-.165-1.803-1.257 0-1.041 1.608-1.677 2.92-2.363 1.917-1.017 3.745-2.013 3.745-3.98 0-2.935-2.484-3.906-4.817-3.906-1.717 0-3.7.57-5.007 1.917l.996 1.728c.31.546.506-.09 1.137-.42.981-.526 1.873-.812 2.809-.812.981 0 2.028.195 2.028 1.397 0 1.137-1.527 1.707-2.554 2.203-1.737.881-4.05 2.013-4.05 4.286 0 2.82 2.353 3.62 4.446 3.62 1.652 0 3.62-.636 4.752-1.557zM1274.8 311.047c-.326-.616-.437-.21-1.198.165-.896.45-1.812.686-2.643.686-.932 0-1.803-.165-1.803-1.257 0-1.041 1.612-1.677 2.924-2.363 1.913-1.017 3.74-2.013 3.74-3.98 0-2.935-2.483-3.906-4.816-3.906-1.718 0-3.696.57-5.007 1.917l1.001 1.728c.31.546.506-.09 1.137-.42.976-.526 1.872-.812 2.809-.812.976 0 2.027.195 2.027 1.397 0 1.137-1.532 1.707-2.553 2.203-1.743.881-4.05 2.013-4.05 4.286 0 2.82 2.352 3.62 4.44 3.62 1.658 0 3.62-.636 4.752-1.557zM1284.021 302.808c2.464 0 3.88 1.707 3.88 4.546 0 2.884-1.416 4.541-3.88 4.541-2.458 0-3.875-1.657-3.875-4.54 0-2.84 1.417-4.547 3.875-4.547m0 11.506c3.75 0 6.755-2.419 6.755-6.96 0-4.471-3.005-6.96-6.755-6.96-3.725 0-6.75 2.489-6.75 6.96 0 4.541 3.025 6.96 6.75 6.96M1303.19 304.16l.916-1.733c-1.437-1.442-3.57-2.033-5.383-2.033-4.286 0-6.664 2.984-6.664 6.935 0 4.311 2.588 6.985 6.664 6.985 1.963 0 3.745-.826 4.972-1.753l-.896-1.657c-.286-.546-.566-.185-1.157.165-.74.45-1.612.826-2.919.826-2.178 0-3.785-1.657-3.785-4.586 0-2.89 1.652-4.501 3.875-4.501 1.067 0 2.263.425 3.24.991.616.36.856.901 1.136.36" style="fill:#0f638e;fill-opacity:1;fill-rule:nonzero;stroke:none;stroke-width:5.00708" transform="matrix(1.33333 0 0 -1.33333 -1238.703 610.516)"/><path d="M1306.248 319.287h3.28v-3.22h-3.28zm.28-6.7c0 .236 0 .356-.265.471-.435.19-.34 1.022.14 1.022h2.999v-13.21h-2.874z" style="fill:#0f638e;fill-opacity:1;fill-rule:nonzero;stroke:none;stroke-width:5.00709" transform="matrix(1.33333 0 0 -1.33333 -1238.703 610.516)"/><path d="M1321.266 305.553v1.257c-.656.14-1.998.26-2.608.26-2.203 0-3.445-.45-3.445-2.228 0-1.322 1.066-2.033 2.634-2.033 1.767 0 3.42 1.017 3.42 2.744m-7.316 5.633-.681 1.923c2.073.85 4.18 1.206 5.538 1.206 3.415 0 5.272-1.517 5.272-5.187v-8.262h-2.488l-.326 1.207c-.63-.901-2.243-1.682-3.595-1.682-2.964 0-5.332 1.402-5.332 4.431 0 3.17 2.218 4.451 6.098 4.451.761 0 2.093-.12 2.83-.24 0 2.063-.822 2.889-2.654 2.864-.917 0-2.028-.165-3.225-.566-.851-.285-1.202-.831-1.437-.145M1332.073 314.078c.545 0 1.196.02 1.547.095.57.115.586-.165.5-.45l-.57-2.038h-2.434v-8.547c0-.23.04-.33.28-.33h.747c.54 0 1.192.024 1.542.1.566.114.586-.171.506-.456l-.571-2.058h-4.156c-.681 0-1.232.565-1.232 1.276v10.015h-1.497l-.566 2.038c-.085.285-.065.565.506.45.34-.075.996-.095 1.542-.095h.015v2.058c0 .235 0 .355-.255.476-.436.185-.35 1.016.13 1.016h3.01v-3.55z" style="fill:#0f638e;fill-opacity:1;fill-rule:nonzero;stroke:none;stroke-width:5.00708" transform="matrix(1.33333 0 0 -1.33333 -1238.703 610.516)"/><path d="M1336.526 319.287h3.284v-3.22h-3.284zm.28-6.7c0 .236 0 .356-.26.471-.436.19-.346 1.022.135 1.022h3.004v-13.21h-2.88z" style="fill:#0f638e;fill-opacity:1;fill-rule:nonzero;stroke:none;stroke-width:5.00709" transform="matrix(1.33333 0 0 -1.33333 -1238.703 610.516)"/><path d="M1349.153 302.808c2.458 0 3.875 1.707 3.875 4.546 0 2.884-1.417 4.541-3.875 4.541-2.459 0-3.876-1.657-3.876-4.54 0-2.84 1.417-4.547 3.876-4.547m0 11.506c3.745 0 6.754-2.419 6.754-6.96 0-4.471-3.009-6.96-6.754-6.96-3.725 0-6.755 2.489-6.755 6.96 0 4.541 3.03 6.96 6.755 6.96M1360.898 312.822c.676.831 2.048 1.492 3.395 1.492 2.924 0 5.232-1.703 5.232-5.092v-8.352h-2.834v8.517c0 1.948-1.287 2.774-2.704 2.774-1.762 0-3.09-.972-3.09-3.06v-8.231h-2.828v11.716c0 .236 0 .356-.265.471-.431.19-.346 1.022.13 1.022h2.638zM1384.96 302.808c2.458 0 3.875 1.707 3.875 4.546 0 2.884-1.417 4.541-3.875 4.541-2.464 0-3.88-1.657-3.88-4.54 0-2.84 1.416-4.547 3.88-4.547m0 11.506c3.745 0 6.75-2.419 6.75-6.96 0-4.471-3.005-6.96-6.75-6.96-3.73 0-6.755 2.489-6.755 6.96 0 4.541 3.025 6.96 6.755 6.96M1392.583 313.724c-.095.285-.07.565.501.445.345-.07 1.001-.09 1.542-.09h.33v1.487c0 2.369 1.373 3.886 3.726 3.886 1.107 0 2.458-.33 3.415-1.022l-.886-1.772c-.29-.591-.531-.095-1.027.12-1.527.636-2.353.02-2.353-1.682v-1.017h1.482c.54 0 1.197.02 1.542.09.57.12.59-.16.506-.445l-.571-2.038h-2.96V300.87h-2.873v10.816h-1.813zM1420.044 318.814c.546 0 1.197.02 1.552.095.566.115.59-.17.496-.456l-.561-2.053h-8.582v-4.977h6.394c.55 0 1.207.025 1.557.095.56.12.586-.165.496-.445l-.566-2.013h-7.881v-8.192h-2.83v16.454c0 .235-.114.35-.375.47-.435.19-.35 1.022.13 1.022zM1429.662 302.808c2.459 0 3.876 1.707 3.876 4.546 0 2.884-1.417 4.541-3.876 4.541-2.458 0-3.875-1.657-3.875-4.54 0-2.84 1.417-4.547 3.875-4.547m0 11.506c3.745 0 6.755-2.419 6.755-6.96 0-4.471-3.01-6.96-6.755-6.96-3.725 0-6.754 2.489-6.754 6.96 0 4.541 3.029 6.96 6.754 6.96M1438.571 300.869v11.716c0 .236 0 .356-.265.476-.43.19-.346 1.017.135 1.017h2.634l.325-1.017c.566.706 1.853 1.252 3.024 1.252 1.007 0 1.898-.356 2.64-.851l-.742-1.683c-.24-.59-.506-.165-1.092.025-.89.286-1.652.286-2.413-.19-.74-.496-1.307-1.207-1.417-2.248v-8.497zM1457.25 308.68c-.13 1.517-1.092 3.22-3.375 3.22-2.178 0-3.205-1.728-3.315-3.22zm1.767-4.521.806-1.778c-1.182-1.302-3.71-1.988-5.493-1.988-4.16 0-6.834 2.579-6.834 6.675 0 4.19 2.283 7.245 6.444 7.245 4.01 0 6.033-3.385 6.033-6.604 0-.33 0-.877-.09-1.397h-9.473c.2-2.369 2.113-3.505 4.026-3.505 1.181 0 2.353.47 3.294 1.066.606.38 1.002.901 1.287.286M1470.584 311.047c-.326-.616-.436-.21-1.197.165-.896.45-1.812.686-2.643.686-.927 0-1.803-.165-1.803-1.257 0-1.041 1.612-1.677 2.919-2.363 1.918-1.017 3.745-2.013 3.745-3.98 0-2.935-2.483-3.906-4.816-3.906-1.718 0-3.696.57-5.007 1.917l1 1.728c.311.546.507-.09 1.138-.42.976-.526 1.872-.812 2.808-.812.977 0 2.028.195 2.028 1.397 0 1.137-1.532 1.707-2.553 2.203-1.743.881-4.051 2.013-4.051 4.286 0 2.82 2.353 3.62 4.441 3.62 1.658 0 3.62-.636 4.752-1.557zM1478.887 314.078c.545 0 1.201.02 1.547.095.57.115.586-.165.5-.45l-.57-2.038h-2.434v-8.547c0-.23.04-.33.28-.33h.747c.54 0 1.191.024 1.542.1.566.114.586-.171.506-.456l-.571-2.058h-4.156c-.681 0-1.232.565-1.232 1.276v10.015h-1.497l-.566 2.038c-.085.285-.065.565.506.45.34-.075.996-.095 1.542-.095h.015v2.058c0 .235 0 .355-.255.476-.436.185-.346 1.016.13 1.016h3.01v-3.55zM1499.795 318.814c.546 0 1.202.02 1.557.095.561.115.586-.17.491-.456l-.56-2.053h-8.688v-5.117h6.985c.54 0 1.197.025 1.552.095.56.12.586-.165.496-.45l-.566-2.013h-8.467v-5.638h7.596c.54 0 1.196.025 1.547.1.566.115.586-.165.5-.45l-.56-2.059h-11.261c-.396 0-.656.33-.656.826v15.628c0 .235-.11.35-.37.47-.436.19-.351 1.022.125 1.022zM1507.228 312.822c.67.831 2.048 1.492 3.394 1.492 2.92 0 5.233-1.703 5.233-5.092v-8.352h-2.834v8.517c0 1.948-1.287 2.774-2.704 2.774-1.762 0-3.09-.972-3.09-3.06v-8.231h-2.828v11.716c0 .236 0 .356-.27.471-.426.19-.341 1.022.134 1.022h2.64zM1520.586 314.078l2.85-8.192.57-1.967.586 1.993 2.829 8.166h2.879l-4.687-13.164h-3.224l-4.181 11.767c-.065.19-.22.26-.476.376-.435.19-.41 1.021.06 1.021z" style="fill:#0f638e;fill-opacity:1;fill-rule:nonzero;stroke:none;stroke-width:5.00708" transform="matrix(1.33333 0 0 -1.33333 -1238.703 610.516)"/><path d="M1532.413 319.287h3.285v-3.22h-3.285zm.28-6.7c0 .236 0 .356-.26.471-.436.19-.346 1.022.135 1.022h3.004v-13.21h-2.879z" style="fill:#0f638e;fill-opacity:1;fill-rule:nonzero;stroke:none;stroke-width:5.00709" transform="matrix(1.33333 0 0 -1.33333 -1238.703 610.516)"/><path d="M1539.162 300.869v11.716c0 .236 0 .356-.27.476-.43.19-.346 1.017.135 1.017h2.639l.32-1.017c.571.706 1.858 1.252 3.03 1.252 1.006 0 1.897-.356 2.633-.851l-.736-1.683c-.245-.59-.505-.165-1.091.025-.891.286-1.658.286-2.419-.19-.74-.496-1.301-1.207-1.417-2.248v-8.497zM1554.716 302.808c2.464 0 3.881 1.707 3.881 4.546 0 2.884-1.417 4.541-3.88 4.541-2.459 0-3.876-1.657-3.876-4.54 0-2.84 1.417-4.547 3.876-4.547m0 11.506c3.745 0 6.754-2.419 6.754-6.96 0-4.471-3.01-6.96-6.755-6.96-3.725 0-6.749 2.489-6.749 6.96 0 4.541 3.024 6.96 6.75 6.96M1563.284 310.905c-.09.285-.07.57.505.45.34-.07.997-.094 1.542-.094h5.879c.546 0 1.197.025 1.547.095.57.12.586-.166.5-.45l-.56-2.039h-8.853zM1586.197 304.16l.916-1.733c-1.437-1.442-3.57-2.033-5.377-2.033-4.292 0-6.665 2.984-6.665 6.935 0 4.311 2.589 6.985 6.665 6.985 1.957 0 3.745-.826 4.967-1.753l-.892-1.657c-.285-.546-.57-.185-1.161.165-.736.45-1.608.826-2.914.826-2.179 0-3.79-1.657-3.79-4.586 0-2.89 1.652-4.501 3.875-4.501 1.066 0 2.268.425 3.24.991.615.36.856.901 1.136.36M1594.876 302.808c2.459 0 3.876 1.707 3.876 4.546 0 2.884-1.417 4.541-3.876 4.541-2.458 0-3.875-1.657-3.875-4.54 0-2.84 1.417-4.547 3.875-4.547m0 11.506c3.745 0 6.755-2.419 6.755-6.96 0-4.471-3.01-6.96-6.755-6.96-3.725 0-6.754 2.489-6.754 6.96 0 4.541 3.029 6.96 6.754 6.96M1606.621 312.822c.676.831 2.048 1.492 3.395 1.492 2.924 0 5.232-1.703 5.232-5.092v-8.352h-2.833v8.517c0 1.948-1.287 2.774-2.704 2.774-1.758 0-3.09-.972-3.09-3.06v-8.231h-2.829v11.716c0 .236 0 .356-.265.471-.43.19-.346 1.022.13 1.022h2.639zM1626.463 311.047c-.325-.616-.435-.21-1.196.165-.892.45-1.808.686-2.639.686-.931 0-1.808-.165-1.808-1.257 0-1.041 1.613-1.677 2.925-2.363 1.912-1.017 3.745-2.013 3.745-3.98 0-2.935-2.484-3.906-4.822-3.906-1.712 0-3.695.57-5.002 1.917l.996 1.728c.31.546.506-.09 1.137-.42.981-.526 1.873-.812 2.809-.812.981 0 2.028.195 2.028 1.397 0 1.137-1.527 1.707-2.554 2.203-1.742.881-4.05 2.013-4.05 4.286 0 2.82 2.353 3.62 4.446 3.62 1.652 0 3.62-.636 4.752-1.557zM1638.8 308.68c-.135 1.517-1.091 3.22-3.38 3.22-2.177 0-3.199-1.728-3.304-3.22zm1.763-4.521.806-1.778c-1.177-1.302-3.705-1.988-5.493-1.988-4.156 0-6.834 2.579-6.834 6.675 0 4.19 2.283 7.245 6.449 7.245 4.005 0 6.028-3.385 6.028-6.604 0-.33 0-.877-.085-1.397h-9.478c.2-2.369 2.118-3.505 4.03-3.505 1.177 0 2.349.47 3.295 1.066.601.38.997.901 1.282.286M1643.945 300.869v11.716c0 .236 0 .356-.27.476-.431.19-.341 1.017.14 1.017h2.633l.326-1.017c.565.706 1.852 1.252 3.024 1.252 1.006 0 1.898-.356 2.634-.851l-.736-1.683c-.24-.59-.506-.165-1.092.025-.891.286-1.652.286-2.413-.19-.746-.496-1.307-1.207-1.417-2.248v-8.497zM1655.655 314.078l2.85-8.192.57-1.967.586 1.993 2.829 8.166h2.879l-4.687-13.164h-3.224l-4.181 11.767c-.065.19-.22.26-.476.376-.436.19-.41 1.021.065 1.021zM1675.498 305.553v1.257c-.656.14-1.998.26-2.614.26-2.198 0-3.445-.45-3.445-2.228 0-1.322 1.072-2.033 2.639-2.033 1.762 0 3.42 1.017 3.42 2.744m-7.316 5.633-.68 1.923c2.072.85 4.18 1.206 5.532 1.206 3.415 0 5.278-1.517 5.278-5.187v-8.262h-2.489l-.325 1.207c-.631-.901-2.244-1.682-3.595-1.682-2.965 0-5.333 1.402-5.333 4.431 0 3.17 2.218 4.451 6.099 4.451.76 0 2.088-.12 2.829-.24 0 2.063-.827 2.889-2.654 2.864-.916 0-2.028-.165-3.23-.566-.846-.285-1.196-.831-1.432-.145M1686.304 314.078c.54 0 1.197.02 1.547.095.566.115.586-.165.5-.45l-.57-2.038h-2.433v-8.547c0-.23.035-.33.28-.33h.741c.546 0 1.192.024 1.542.1.571.114.591-.171.506-.456l-.566-2.058h-4.16c-.677 0-1.227.565-1.227 1.276v10.015h-1.497l-.571 2.038c-.08.285-.06.565.505.45.346-.075 1.002-.095 1.542-.095h.02v2.058c0 .235 0 .355-.255.476-.436.185-.35 1.016.13 1.016h3.01v-3.55z" style="fill:#0f638e;fill-opacity:1;fill-rule:nonzero;stroke:none;stroke-width:5.00708" transform="matrix(1.33333 0 0 -1.33333 -1238.703 610.516)"/><path d="M1690.757 319.287h3.28v-3.22h-3.28zm.28-6.7c0 .236 0 .356-.265.471-.436.19-.34 1.022.139 1.022h3v-13.21h-2.875z" style="fill:#0f638e;fill-opacity:1;fill-rule:nonzero;stroke:none;stroke-width:5.00709" transform="matrix(1.33333 0 0 -1.33333 -1238.703 610.516)"/><path d="M1703.38 302.808c2.463 0 3.88 1.707 3.88 4.546 0 2.884-1.417 4.541-3.88 4.541-2.46 0-3.876-1.657-3.876-4.54 0-2.84 1.417-4.547 3.875-4.547m0 11.506c3.746 0 6.755-2.419 6.755-6.96 0-4.471-3.01-6.96-6.755-6.96-3.725 0-6.75 2.489-6.75 6.96 0 4.541 3.025 6.96 6.75 6.96M1715.13 312.822c.67.831 2.047 1.492 3.394 1.492 2.92 0 5.228-1.703 5.228-5.092v-8.352h-2.83v8.517c0 1.948-1.286 2.774-2.703 2.774-1.763 0-3.09-.972-3.09-3.06v-8.231h-2.829v11.716c0 .236 0 .356-.27.471-.43.19-.34 1.022.135 1.022h2.639zM1746.419 318.907c.56.12.585-.165.505-.45l-.576-2.059h-5.352v-15.532h-2.874v15.532h-5.363l-.566 2.058c-.08.286-.065.571.506.45.346-.07.997-.094 1.542-.094h10.63c.551 0 1.197.025 1.548.095M1755.66 308.68c-.13 1.517-1.091 3.22-3.375 3.22-2.178 0-3.204-1.728-3.31-3.22zm1.768-4.521.806-1.778c-1.182-1.302-3.71-1.988-5.493-1.988-4.161 0-6.835 2.579-6.835 6.675 0 4.19 2.283 7.245 6.444 7.245 4.011 0 6.034-3.385 6.034-6.604 0-.33 0-.877-.09-1.397h-9.474c.2-2.369 2.113-3.505 4.026-3.505 1.182 0 2.353.47 3.295 1.066.606.38 1.001.901 1.287.286M1771.063 304.16l.916-1.733c-1.437-1.442-3.57-2.033-5.382-2.033-4.286 0-6.665 2.984-6.665 6.935 0 4.311 2.589 6.985 6.665 6.985 1.962 0 3.745-.826 4.972-1.753l-.897-1.657c-.285-.546-.566-.185-1.156.165-.741.45-1.613.826-2.92.826-2.178 0-3.785-1.657-3.785-4.586 0-2.89 1.653-4.501 3.876-4.501 1.066 0 2.263.425 3.24.991.615.36.856.901 1.136.36M1776.686 313.083c.846.876 2.609 1.232 3.66 1.232 3.13 0 5.443-1.753 5.443-5.092v-8.352h-2.83v8.402c0 1.963-1.531 2.623-2.853 2.623-1.943 0-3.42-1.131-3.42-3.264v-7.761h-2.83v16.924c0 .235 0 .355-.265.475-.43.186-.345 1.017.13 1.017h2.965zM1791.653 312.822c.676.831 2.048 1.492 3.4 1.492 2.92 0 5.228-1.703 5.228-5.092v-8.352h-2.834v8.517c0 1.948-1.282 2.774-2.7 2.774-1.762 0-3.094-.972-3.094-3.06v-8.231h-2.824v11.716c0 .236 0 .356-.27.471-.43.19-.345 1.022.13 1.022h2.639zM1809.188 302.808c2.458 0 3.875 1.707 3.875 4.546 0 2.884-1.417 4.541-3.875 4.541-2.459 0-3.876-1.657-3.876-4.54 0-2.84 1.417-4.547 3.876-4.547m0 11.506c3.745 0 6.754-2.419 6.754-6.96 0-4.471-3.009-6.96-6.754-6.96-3.726 0-6.755 2.489-6.755 6.96 0 4.541 3.03 6.96 6.755 6.96M1818.909 300.869v16.924c0 .24 0 .355-.266.475-.43.186-.345 1.017.135 1.017h3.005v-18.416zM1830.991 302.808c2.459 0 3.876 1.707 3.876 4.546 0 2.884-1.417 4.541-3.876 4.541-2.463 0-3.88-1.657-3.88-4.54 0-2.84 1.417-4.547 3.88-4.547m0 11.506c3.745 0 6.75-2.419 6.75-6.96 0-4.471-3.005-6.96-6.75-6.96-3.73 0-6.754 2.489-6.754 6.96 0 4.541 3.024 6.96 6.754 6.96M1842.076 307.401c0-2.533 1.282-4.591 3.525-4.591 2.178 0 3.42 1.962 3.42 4.306v.806c0 2.368-1.477 3.975-3.42 3.975-2.458 0-3.525-1.842-3.525-4.496m7.075 5.468.33 1.207h2.42v-12.498c0-5.092-2.775-6.89-6.32-6.89-1.767 0-4.31.711-5.728 2.343l1.112 1.728c.37.57.646-.07 1.136-.446.756-.596 1.958-1.237 3.43-1.237 1.873 0 3.49 1.117 3.49 3.746v.78c-.716-.595-1.958-1.21-3.595-1.21-3.545 0-6.224 2.583-6.224 7.01 0 4.52 2.7 6.909 6.164 6.909 1.587 0 3.05-.566 3.785-1.442M1856.76 314.078l3.81-8.877 3.425 8.877h2.914l-7.47-19.132h-2.804l2.608 6.82-4.726 10.795c-.13.31-.28.38-.606.496-.436.17-.416 1.021.06 1.021z" style="fill:#0f638e;fill-opacity:1;fill-rule:nonzero;stroke:none;stroke-width:5.00708" transform="matrix(1.33333 0 0 -1.33333 -1238.703 610.516)"/></svg>