<svg xmlns="http://www.w3.org/2000/svg" xmlns:xlink="http://www.w3.org/1999/xlink" width="911.70526pt" height="150pt" viewBox="0 0 911.70525 150"><defs><clipPath id="a"><path d="M0 793.701h623.622V0H0Z"/></clipPath><clipPath id="B"><path d="M0 793.701h623.622V0H0Z"/></clipPath><clipPath id="E"><path d="M0 793.701h623.622V0H0Z"/></clipPath><clipPath id="H"><path d="M0 793.701h623.622V0H0Z"/></clipPath><clipPath id="I" clipPathUnits="userSpaceOnUse"><path d="M1077.08 4058.46c1.59-67.6 22.5-130.07 56.99-181.85 4.37-6.75 9.04-13.38 13.92-19.85 9.45-12.41 19.92-23.9 30.99-34.1 54.9-50.39 133.3-68.81 168.24-11.17 5.44 8.92 10.74 25.15 10.29 44.28-1.31 53.44-52.6 59.4-87.85 71.62-120.65 41.69-194.25 136.75-169.03 264.91 0-2.06-25.42-55.25-23.55-133.84z"/></clipPath><clipPath id="K" clipPathUnits="userSpaceOnUse"><path d="M1709.85 4058.46c-1.64-67.6-22.53-130.07-57.05-181.85-4.35-6.75-9.03-13.38-13.9-19.85-9.45-12.41-19.91-23.9-30.97-34.1-54.88-50.39-133.3-68.81-168.27-11.17-5.44 8.92-10.7 25.15-10.27 44.28 1.33 53.44 52.6 59.4 87.84 71.62 120.62 41.69 194.23 136.75 169.06 264.91 0-2.06 25.41-55.25 23.56-133.84z"/></clipPath><radialGradient id="J" cx="0" cy="0" r="1" fx="0" fy="0" gradientTransform="matrix(320.943 7.64667 7.99425 -334.325 1317.9 4086.51)" gradientUnits="userSpaceOnUse" spreadMethod="pad"><stop offset="0" style="stop-opacity:1;stop-color:#cce31c"/><stop offset="0.00549451" style="stop-opacity:1;stop-color:#cce31c"/><stop offset="0.38" style="stop-opacity:1;stop-color:#8bc01d"/><stop offset="1" style="stop-opacity:1;stop-color:#4e6c0e"/></radialGradient><radialGradient id="L" cx="0" cy="0" r="1" fx="0" fy="0" gradientTransform="matrix(-320.943 7.64667 -7.99425 -334.325 1469.01 4086.51)" gradientUnits="userSpaceOnUse" spreadMethod="pad"><stop offset="0" style="stop-opacity:1;stop-color:#cce31c"/><stop offset="0.00549451" style="stop-opacity:1;stop-color:#cce31c"/><stop offset="0.38" style="stop-opacity:1;stop-color:#8bc01d"/><stop offset="1" style="stop-opacity:1;stop-color:#4e6c0e"/></radialGradient></defs><g clip-path="url(#a)" transform="translate(-491.794 -280.641)"><symbol id="b"><path d="M.704 0v.328H.463v.168h.379v.076h-.17C.695.67.707.783.705.911H.137V.834h.479A.92.92 0 0 0 .584.572H0V.496h.377V.328H.13V.253h.487V0Z"/></symbol><symbol id="c"><path d="M.875.478v.077H.72v.278H.633V0H.72v.478h.155M.046.771V.694h.326C.354.506.222.355 0 .272.016.247.033.223.051.198c.237.096.414.276.417.573Z"/></symbol><symbol id="d"><path d="M.602.666c0-.084-.08-.15-.181-.15-.103 0-.18.066-.18.15 0 .084.078.148.18.148C.522.814.602.75.602.666M.303 0v.305h.236V0h.086v.305h.217v.076H0V.305h.218V0h.085M.69.666C.69.797.569.889.421.889.272.889.153.798.153.666c0-.135.121-.225.268-.225.145 0 .269.09.269.225z"/></symbol><symbol id="e"><path d="M.713.943H.132V.867h.492V.828A.861.861 0 0 0 .598.622l.083-.01a.928.928 0 0 1 .032.247v.084M.59.202C.59.128.522.071.421.071.319.071.252.128.252.202c0 .072.067.128.169.128C.522.33.59.274.59.202m.252.266v.076H.434v.185H.348V.544H0V.468h.842M.678.202c0 .116-.1.201-.257.201C.265.403.164.318.164.202.164.081.267 0 .421 0c.153 0 .257.082.257.202Z"/></symbol><symbol id="f"><path d="M.887.471v.076H.731v.286H.644V0h.087v.471h.156M.535.28C.406.345.311.452.311.63v.059h.195v.077H.025V.689h.196V.624A.384.384 0 0 0 0 .262L.055.197c.101.05.189.156.212.249A.449.449 0 0 1 .486.214Z"/></symbol><symbol id="g"><path d="M.627.29A5.708 5.708 0 0 0 0 .263L.01.184c.082 0 .205.003.292.007.097.004.234.015.333.027L.627.29M.056.587c0-.12.1-.213.237-.213.142 0 .237.093.237.213C.53.709.428.8.293.8.156.8.056.709.056.587m.087 0c0 .078.058.137.15.137C.384.724.44.665.44.587.44.511.384.449.293.449c-.092 0-.15.062-.15.138M.688 0h.086v.833H.688Z"/></symbol><symbol id="h"><path d="M0 0Z"/></symbol><symbol id="i"><path d="M.348.853v.076h-.23V.853h.23M.347.516C.347.471.302.435.238.435c-.068 0-.11.036-.11.081 0 .045.043.081.11.081.064 0 .109-.036.109-.081m.105.192v.075H0V.708h.452M.708.183C.708.119.644.071.546.071.444.071.38.119.38.183c0 .061.064.111.166.111.098 0 .162-.049.162-.111M.43.516C.43.604.349.667.238.667.124.667.046.604.046.516S.124.365.238.365c.11 0 .192.063.192.151M.805.38v.575H.719V.71H.603v.232H.517V.418h.086v.215h.116V.38h.086M.793.183c0 .101-.1.184-.247.184-.149 0-.25-.083-.25-.184C.296.078.397 0 .546 0c.147 0 .247.078.247.183Z"/></symbol><symbol id="j"><path d="M.613.648H.229v.105h.384V.648M.699 0v.317H.13V.24h.483V0h.086m.143.398v.076H.465v.098h.234v.361H.613V.829H.229v.104H.143V.572h.236V.474H0V.398Z"/></symbol><symbol id="k"><path d="M.747 0v.078H.289v.176H.202V0h.545M.532.687v.076H0V.687h.532M.399.831v.077H.144V.831h.255M.391.47C.391.418.338.376.273.376.205.376.154.418.154.47c0 .054.052.094.119.094.065 0 .118-.04.118-.094m.086 0c0 .102-.093.165-.204.165C.161.635.066.572.066.47c0-.103.095-.166.207-.166.11 0 .204.063.204.166m.399.091v.077H.721v.29H.634V.232h.087v.329z"/></symbol><symbol id="l"><path d="M.543.553C.427.596.32.692.32.841v.073H.227V.839C.227.688.132.584 0 .523L.053.458c.106.047.19.127.221.221A.38.38 0 0 1 .493.483l.05.07m.343.105v.076H.741v.203H.653V.445h.088v.213h.145M.182 0c.094 0 .174.005.246.018L.417.092A.952.952 0 0 0 .196.077v.086h.211v.232H.113V.32h.211V.236H.113V0h.069m.48.077H.543V.32h.119V.077M.744 0v.395H.459V0Z"/></symbol><symbol id="m"><path d="M.581.756C.581.675.514.627.421.627c-.099 0-.16.048-.16.129 0 .078.064.13.16.13.093 0 .16-.054.16-.13m.092 0c0 .124-.11.202-.252.202C.285.958.168.881.168.756c0-.134.128-.2.254-.2.125 0 .251.067.251.2M.724 0v.075H.228v.079h.469V.38H.144V.305h.469V.229H.144V0h.58m.118.437v.076H0V.437Z"/></symbol><symbol id="n"><path d="M.145.619c0 .07.061.126.152.126.089 0 .151-.056.151-.126S.386.493.297.493C.206.493.145.549.145.619M.334.005v.264c.094.005.205.014.285.026L.612.368A3.528 3.528 0 0 0 .288.343 7.283 7.283 0 0 0 0 .339L.009.261C.078.26.169.262.245.265v-.26h.089M.686 0h.086v.833H.686V0M.063.619c0-.116.096-.2.234-.2.141 0 .234.084.234.198 0 .115-.093.201-.234.201C.159.818.063.733.063.619z"/></symbol><symbol id="o"><path d="M.346.731v.076h-.23V.731h.23M.452.58v.076H0V.58h.452M.348.343A.104.104 0 0 0 .241.237a.102.102 0 0 0-.106.106c0 .062.044.103.106.103.06 0 .107-.041.107-.103m.083 0c0 .108-.09.177-.19.177C.138.52.051.451.051.343c0-.108.087-.18.19-.18.101 0 .19.072.19.18M.803 0v.833H.717V.529H.608v.292H.522V.027h.086v.425h.109V0Z"/></symbol><symbol id="p"><path d="M.015.133h.053A.09.09 0 0 0 0 .042L.012 0c.069.018.11.079.11.143v.094H.015Z"/></symbol><symbol id="q"><path d="M.532.733v.072H0V.733h.532M.399.875v.074H.144V.875h.255M.391.522C.391.473.338.433.273.433c-.068 0-.118.04-.118.089 0 .052.051.091.118.091.065 0 .118-.039.118-.091m.086 0c0 .098-.093.16-.204.16C.161.682.066.62.066.522c0-.097.095-.16.207-.16.11 0 .204.063.204.16M.634.077H.281v.152h.353V.077M.721 0v.305H.193V0h.528m.155.617v.076H.721v.256H.634V.362h.087v.255z"/></symbol><symbol id="r"><path d="M.076.25C.178.37.234.549.23.768H.025V.693h.118A.606.606 0 0 0 0 .295L.076.25M.724 0H.81v.833H.724V0M.295.209c.062.08.104.174.128.285h.128V.026h.085v.795H.551V.57H.436c.008.061.012.127.012.198H.277V.693h.084A.703.703 0 0 0 .217.252Z"/></symbol><symbol id="s"><path d="M.046.897V.823h.317C.341.66.209.54 0 .479L.042.408C.265.476.455.626.46.897H.046m.721-.61v.076H.228V0h.554v.077H.314v.21h.453m0 .137V.94H.681V.728h-.19V.651h.19V.424Z"/></symbol><symbol id="t"><path d="M.842.381v.076H0V.381h.842M.145.906V.581h.566v.076h-.48v.249H.145M.14.289V0h.571v.077H.227v.212z"/></symbol><symbol id="u"><path d="M.584.193C.584.124.52.072.421.072c-.1 0-.164.052-.164.121 0 .068.065.12.164.12S.584.261.584.193m.091 0c0 .11-.1.195-.254.195C.268.388.167.303.167.193.167.079.27 0 .421 0c.15 0 .254.079.254.193m.028.435v.077H.229v.172H.7v.077H.143V.628H.38v-.11H0V.443h.842v.075H.465v.11z"/></symbol><symbol id="v"><path d="M.727 0v.078H.266v.244H.178V0h.549M.424.42v.452H.338v-.15H.086v.15H0V.42h.424M.338.495H.086v.151h.252V.495m.516.103v.076H.698v.242H.612V.265h.086v.333z"/></symbol><symbol id="w"><path d="M.686 0h.086v.833H.686V0M.62.284A4.024 4.024 0 0 0 .343.261V.43h.181v.076H.163v.207h.351V.79H.076V.43h.181V.258A4.8 4.8 0 0 0 0 .253L.01.174c.085 0 .201.005.289.009.089.005.227.015.328.03z"/></symbol><symbol id="x"><path d="M.856.076a.263.263 0 0 0-.17.258v.039H.599V.33C.599.183.526.111.423.066L.468.005a.308.308 0 0 1 .175.179.31.31 0 0 1 .166-.171l.047.063m-.393.07C.401.177.351.225.351.337v.034H.267V.333C.267.192.187.112.076.064L.119 0c.09.039.163.107.191.19A.213.213 0 0 1 .407.086l.056.06M.039.894V.819H.32C.298.655.188.544 0 .479L.046.406C.25.483.415.634.414.894H.039M.528.662V.439h.086v.495H.528V.738H.4V.662h.128M.796.433v.514H.709V.433Z"/></symbol><symbol id="y"><path d="M.842.437v.075H0V.437h.842M.616.078h-.39v.109h.39V.078M.703 0v.365H.617V.263H.225v.102H.139V0h.564M.375.939V.901C.375.773.233.679.078.653l.035-.07c.148.026.26.097.309.19C.469.68.581.609.729.582l.035.07C.61.677.468.773.468.901v.038z"/></symbol><symbol id="z"><path d="M.52.372A2.02 2.02 0 0 0 .088.336V.78H0V.258c.21-.001.395.01.532.039L.52.372M.628 0h.087v.832H.628Z"/></symbol><symbol id="A"><path d="M.686.833H.6V0h.086v.478h.156v.077H.686v.278M.512.351A1.967 1.967 0 0 0 .088.326v.373h.331v.076H0V.246C.17.238.374.249.522.274Z"/></symbol><use xlink:href="#b" width="100%" height="100%" fill="#434141" transform="matrix(10.12 0 0 -11 1013.6 427.828)"/><use xlink:href="#c" width="100%" height="100%" fill="#434141" transform="matrix(10.12 0 0 -11 1022.708 426.618)"/><use xlink:href="#d" width="100%" height="100%" fill="#434141" transform="matrix(10.12 0 0 -11 1031.796 427.322)"/><use xlink:href="#e" width="100%" height="100%" fill="#434141" transform="matrix(10.12 0 0 -11 1040.894 428.103)"/><use xlink:href="#f" width="100%" height="100%" fill="#434141" transform="matrix(10.12 0 0 -11 1049.89 426.618)"/><use xlink:href="#g" width="100%" height="100%" fill="#434141" transform="matrix(10.12 0 0 -11 1059.05 426.618)"/><use xlink:href="#h" width="100%" height="100%" fill="#434141" transform="matrix(10.12 0 0 -11 1067.793 426.123)"/><use xlink:href="#i" width="100%" height="100%" fill="#434141" transform="matrix(10.12 0 0 -11 1070.718 427.938)"/><use xlink:href="#j" width="100%" height="100%" fill="#434141" transform="matrix(10.12 0 0 -11 1079.907 427.84)"/><use xlink:href="#k" width="100%" height="100%" fill="#434141" transform="matrix(10.12 0 0 -11 1089.005 427.652)"/><use xlink:href="#h" width="100%" height="100%" fill="#434141" transform="matrix(10.12 0 0 -11 1097.708 426.123)"/><use xlink:href="#l" width="100%" height="100%" fill="#434141" transform="matrix(10.12 0 0 -11 1100.531 427.74)"/><use xlink:href="#m" width="100%" height="100%" fill="#434141" transform="matrix(10.12 0 0 -11 1109.821 427.916)"/><use xlink:href="#h" width="100%" height="100%" fill="#434141" transform="matrix(10.12 0 0 -11 1118.525 426.123)"/><use xlink:href="#n" width="100%" height="100%" fill="#434141" transform="matrix(10.12 0 0 -11 1121.55 426.618)"/><use xlink:href="#o" width="100%" height="100%" fill="#434141" transform="matrix(10.12 0 0 -11 1130.568 426.618)"/><use xlink:href="#p" width="100%" height="100%" fill="#434141" transform="matrix(10.12 0 0 -11 1139.848 427.872)"/><use xlink:href="#h" width="100%" height="100%" fill="#434141" transform="matrix(10.12 0 0 -11 1141.629 426.123)"/><use xlink:href="#q" width="100%" height="100%" fill="#434141" transform="matrix(10.12 0 0 -11 1013.6 443.877)"/><use xlink:href="#r" width="100%" height="100%" fill="#434141" transform="matrix(10.12 0 0 -11 1022.708 442.623)"/><use xlink:href="#h" width="100%" height="100%" fill="#434141" transform="matrix(10.12 0 0 -11 1031.401 442.128)"/><use xlink:href="#s" width="100%" height="100%" fill="#434141" transform="matrix(10.12 0 0 -11 1034.6 443.778)"/><use xlink:href="#t" width="100%" height="100%" fill="#434141" transform="matrix(10.12 0 0 -11 1043.515 443.547)"/><use xlink:href="#h" width="100%" height="100%" fill="#434141" transform="matrix(10.12 0 0 -11 1052.218 442.128)"/><use xlink:href="#u" width="100%" height="100%" fill="#434141" transform="matrix(10.12 0 0 -11 1055.234 444.141)"/><use xlink:href="#v" width="100%" height="100%" fill="#434141" transform="matrix(10.12 0 0 -11 1064.555 443.525)"/><use xlink:href="#f" width="100%" height="100%" fill="#434141" transform="matrix(10.12 0 0 -11 1073.329 442.623)"/><use xlink:href="#c" width="100%" height="100%" fill="#434141" transform="matrix(10.12 0 0 -11 1082.538 442.623)"/><use xlink:href="#h" width="100%" height="100%" fill="#434141" transform="matrix(10.12 0 0 -11 1091.231 442.128)"/><use xlink:href="#w" width="100%" height="100%" fill="#434141" transform="matrix(10.12 0 0 -11 1094.267 442.623)"/><use xlink:href="#x" width="100%" height="100%" fill="#434141" transform="matrix(10.12 0 0 -11 1103.345 443.855)"/><use xlink:href="#y" width="100%" height="100%" fill="#434141" transform="matrix(10.12 0 0 -11 1112.443 443.888)"/><use xlink:href="#z" width="100%" height="100%" fill="#434141" transform="matrix(10.12 0 0 -11 1122.128 442.623)"/><use xlink:href="#A" width="100%" height="100%" fill="#434141" transform="matrix(10.12 0 0 -11 1130.982 442.623)"/><path fill="#7f8990" d="M1010.847 391.717c-.145-.282-.262-.579-.39-.87-.849-1.946-1.479-4.029-2.622-5.793-.798-1.232-2.156-2.314-3.513-2.96-3.347-1.594-6.896-2.02-10.564-.94-1.325.39-2.716.697-4.09.766-4.682.234-9.37.35-14.058.498-.477.015-.957-.06-1.73-.115 1.373-1.396 2.53-2.554 3.666-3.729 6.648-6.872 13.221-13.81 18.708-21.642 2.903-4.143 3.12-8.45.54-12.843-.185-.315-.5-.635-.506-.957-.03-1.91-1.249-2.333-2.873-2.366-.504-.01-1.002-.229-1.506-.25-2.263-.096-4.577-.479-6.778-.152-3.383.503-6.689 1.504-10.029 2.283-.249.058-.517.036-.992.064.376-.907.715-1.642.99-2.4 1.851-5.094 3.821-10.154 5.477-15.31.905-2.82.663-2.894 3.706-2.528.23.028.46.066.69.1 4.218.652 8.431 1.356 12.663 1.92 1.211.162 2.513.08 3.712-.172 1.78-.374 2.111-1.447.782-2.704-.976-.923-2.187-1.723-3.44-2.227-4.337-1.744-8.799-3.196-13.097-5.021a54.375 54.375 0 0 0-16.115-4.08c-3.083-.298-6.164-.158-9.037 1.05-1.187.499-2.352 1.333-3.183 2.299-1.424 1.655-1 3.664.746 5.008.802.617 1.56 1.29 2.364 1.907 1.627 1.25 1.818 1.197 2.556-.816 2.82.599 5.665 1.212 8.515 1.809 1.583.33 2.024.874 1.502 2.38-.655 1.893-1.396 3.77-2.283 5.567-2.952 5.98-6.004 11.915-8.979 17.886-1.009 2.025-1.338 4.144.134 6.086 1.445 1.907 3.596 2.258 5.781 1.766 2.613-.59 5.174-1.415 7.733-2.211 1.582-.492 3.118-1.12 5.127-1.852-.27 1.22-.308 2.063-.639 2.773-1.423 3.053-2.737 6.18-4.464 9.066-1.78 2.974-3.995 5.698-6.02 8.53-3.856 5.397-9.232 8.872-15.288 11.397-2.9 1.209-5.91 2.189-8.924 3.102-3.992 1.21-7.289 3.434-9.963 6.479-1.048 1.194-1.835 2.753-2.28 4.276-.643 2.198.621 3.87 2.368 5.13 1.61 1.159 3.342 1.249 5.1.257.442-.25.925-.441 1.336-.732 2.977-2.115 6.206-3.017 9.964-2.999 6.026.028 12.052-.652 18.08-.706 10.211-.089 20.423.134 30.635.097a42.87 42.87 0 0 0 8.152-.808c2.667-.53 3.567-2.921 2.336-5.313M988.12 425.825c-1.379 2.201-3.489 3.861-6.763 4.942.472-1.563.881-2.884 1.27-4.21.403-1.377.853-2.749 1.157-4.14.226-1.038.82-1.156 1.983-.823 2.682.768 3.6 2.238 2.352 4.231m1.46-9.314c-1.115-.209-2.265-.304-3.616-.479 1.5-5.058 3.831-9.686 7.421-14.049-6.136 2.634-10.363 5.357-13.947 12.47-1.415 2.807-2.56 5.707-3.632 8.61a236.96 236.96 0 0 0-4.063 11.946c-.685 2.208.454 3.951 2.704 4.732 1.57.544 2.95.293 4.138-.625 1.89-1.459 3.875-2.843 5.76-4.307 2.493-1.937 5.01-3.863 7.364-5.9 1.895-1.64 2.851-3.686 3.354-5.846.74-3.175-1.437-5.793-5.484-6.552M1093.774 353.173c-1.538-3.448-2.905-7.01-4.017-10.638-1.151-3.759-1.864-7.668-2.848-11.487-.44-1.705-.932-3.425-1.655-5.007-.775-1.698-2.6-2.518-4.182-2.208-1.742.342-2.362 1.744-2.673 3.385-.143.753-.193 1.53-.268 2.297-.432 4.432.19 8.81.736 13.186.309 2.483.209 2.755-1.994 3.706a7.745 7.745 0 0 1-.836.316c-4.16 1.242-8.33 2.45-11.855 5.298-.054.044-.161.015-.587.041-.187-1.747-.4-3.444-.542-5.147-.235-2.803-.245-5.64-.687-8.406-.397-2.488-1.987-4.192-4.232-5.059-1.727-.666-2.671-.248-3.584 1.441-.318.587-.705 1.128-1.031 1.71-.455.812-.992 1.598-1.3 2.475-.508 1.456.125 2.404 1.533 2.683.329.065.74.435.863.77.279.755.445 1.568.58 2.372.739 4.436 1.424 8.882 2.2 13.311.196 1.12.133 2.077-.257 3.155-1.505 4.161-1.156 8.186 1.18 11.972.753 1.218 1.785 1.641 3.085 1.226 2.448-.782 4.066-2.459 4.794-5.113.2-.729.31-1.605.757-2.115a52.03 52.03 0 0 1 4.3-4.382c3.536-3.19 7.714-5.575 10.523-9.679.033-.047.157-.022.306-.037 2.13 3.82 4.075 7.75 5.055 12.145.207.928.408 1.875.758 2.747.846 2.106 2.863 2.708 4.466 1.21.787-.738 1.5-1.81 1.787-2.877 1.19-4.432 1.608-8.843-.375-13.29M1034.33 360.717c-2.43 1.79-4.549 3.348-6.667 4.907l-.367-.298 2.364-7.746 4.67 3.137m1.454-16.029c2.491-3.658 5.24-7.116 7.872-10.665 1.193-1.608 1.341-3.64.394-5.072-.907-1.37-2.22-1.577-4.232-1.025-1.425.392-2.934.663-4.388.613-3.38-.115-6.784-.245-10.12-.755-5.582-.85-9.846 1.572-13.468 5.85-1.3 1.536-1.34 3.928-.266 5.581.974 1.5 2.82 1.346 3.585-.297 1.35-2.892 3.472-4.512 6.516-4.374 1.546.07 3.076.404 4.681.628-1.023 2.46-2.06 4.43-2.674 6.536-1.37 4.706-2.502 9.488-3.782 14.223-1.395 5.162-1.587 10.411-1.245 15.682.245 3.778 2.91 5.208 6.04 3.377 5.177-3.025 9.752-6.939 14.026-11.256 2.858-2.887 2.226-6.57-1.337-8.156-1.63-.726-3.329-1.29-5.024-1.838-.907-.293-1.199-.755-.704-1.661 1.356-2.477 2.553-5.08 4.126-7.39M1072.194 401.35c.63-2.597 1.22-5.026 1.87-7.696 3.403 3.189 2.701 6.006-1.87 7.697m9.89-26.535c-1.49.496-3.03 1.105-4.242 2.022-1.157.875-1.934 2.186-2.869 3.312-5.44 6.556-7.94 14.177-9.47 22.465.2.942.444 2.123.703 3.3.467 2.137 2.276 2.823 4.055 1.445 1.554-1.203 2.99-2.54 4.442-3.85.71-.642 1.38-1.05 2.489-.846.55.102 1.32-.256 1.83-.607 2.99-2.063 3.463-5.496 1.143-8.31-1.121-1.362-2.331-2.664-3.546-3.957-.602-.64-.782-1.241-.352-2.041 1.368-2.544 2.592-5.161 4.073-7.646.655-1.097 1.72-2.021 2.744-2.875.577-.483 1.293-.925.813-1.588-.338-.468-1.35-.977-1.812-.824M1043.428 300.878c-1.832-2.889-4.537-3.605-7.247-1.677-1.085.773-2.048 1.925-2.728 3.126-.893 1.578-1.573 3.331-2.128 5.087-1.07 3.385-1.987 6.826-2.888 9.966.355 1.572.53 2.741.894 3.838.345 1.04 1.032 1.196 1.759.437.598-.624 1.118-1.353 1.589-2.097 2.082-3.29 4.194-6.49 7.972-7.826 4.606-1.63 5.809-5.123 3.444-9.694a15.089 15.089 0 0 0-.667-1.16M938.419 249.857c-1.083-.398-2.333-.586-3.479-.465-5.878.624-11.688.151-17.511-.476-4.125-.445-8.278-.645-12.422-.923-5.929-.397-11.471 1.16-16.658 4.326-2.897 1.768-4.846 4.34-5.614 8.428-.331 2.081-.413 4.647 1.022 6.945.722 1.154 1.806 2.086 3.073 1.637 1.184-.42 2.183-1.489 3.252-2.29.068-.05.052-.252.056-.383.057-1.648 1.042-2.897 2.568-3.09a63.18 63.18 0 0 1 4.573-.395c7.507-.403 15.016-.729 22.52-1.189 5.977-.367 11.68-1.99 16.935-5.248 1.018-.629 2.005-1.457 2.76-2.414 1.369-1.735.89-3.74-1.075-4.463M918.013 287.614c.517-.731.972-1.382 1.433-2.025 2.481-3.463 4.935-6.958 6.264-11.298.4-1.303.761-2.708.78-4.065.036-2.713-2.152-4.064-4.082-2.608-.68.514-1.285 1.222-1.83 1.941-1.44 1.901-4.21 4.608-5.808 6.289-9.166 9.649-13.163 18.474-21.259 29.312-3.732 4.995-5.293 7.991-10.795 11.783-1.995 1.375-3.864 3.039-5.712 4.697-1.05.942-3.418 1.939-2.928 3.522.46 1.48 1.226 1.756 2.485 1.758 3.946.004 5.625-3.419 9.295-5.598 3.52-2.538 2.13-.414 12.763-10.885 6.806-6.702 6.88-9.965 12.622-17.601.366-.487 2.652-2.435 3.18-3.112 1.34 3.821 3.037 9.131 3.1 13.094a68.5 68.5 0 0 0 .614 8.111c.364 2.684 2.372 4.114 4.566 3.294 1.034-.386 2.093-1.118 2.866-2.026 2.787-3.272 3.44-7.203 2.014-11.424-1.896-5.62-4.806-10.275-9.568-13.159M880.503 200.083c.339.393.999.465 1.514.683.131-.53.225-1.076.402-1.588.164-.472.449-1.315.624-1.299 1.947.175 3.883.484 5.718.743-.132 1.922-.479 3.528-.304 5.063.609 5.355-.171 10.51-1.532 15.641a46.943 46.943 0 0 0-1.174 6.007c-.445 3.47 1.067 6.323 4.189 7.315 2.066.657 4.311.792 6.489.904 1.764.091 3.561-.09 5.319-.352 2.427-.36 4.871-.749 7.227-1.448 1.097-.324 2.153-1.254 2.956-2.182.929-1.076.573-1.896-.76-2.199-.655-.149-1.346-.253-2.011-.208-4.896.331-9.618-.436-14.197-2.31-.725-.298-.904-.623-.736-1.386.293-1.329.476-2.686.78-4.012 1.358-5.912 1.983-11.832.401-17.805-.087-.329-.061-.693-.097-1.158 2.114.484 4.112 1.036 6.142 1.37 1.188.196 2.479.287 3.633-.003 2.041-.513 2.575-2.867 1.102-4.452a10.842 10.842 0 0 0-2.099-1.738c-5.337-3.396-11.143-5.262-17.328-5.566-1.852-.09-3.833.248-5.586.912-2.617.99-3.508 3.821-2.313 6.512.412.927.991 1.804 1.641 2.556M939.375 223.802c-1.028-.21-2.101-.21-3.156-.223-3.301-.038-6.605.018-9.903-.088-1.211-.039-2.423-.374-3.605-.7-.3-.083-.691-.653-.688-.996.054-4.49.17-8.978.279-13.729.549.09 1.209.158 1.85.312 1.32.314 2.62.743 3.95.987.684.125 1.515.166 2.098-.148.545-.293 1.155-1.094 1.175-1.69.02-.576-.567-1.362-1.088-1.723-1.021-.705-2.186-1.164-3.281-1.75-2.816-1.507-5.737-2.747-8.885-3.046-1.144-.109-2.434.233-3.493.756-.994.49-1.391 1.703-.768 2.807.513.911.965 2.34 2.492 1.357.16-.103.513.14.618.173-.741 5.568-1.562 10.997-2.156 16.454-.38 3.485 1.162 5.863 4.258 6.98 1.147.414 2.396.738 3.594.717 5.098-.092 10.12-.91 15.043-2.358.828-.243 1.633-.785 2.3-1.38.438-.39.916-1.202.812-1.682-.097-.454-.894-.917-1.446-1.03M876.661 241.005c-2.96-.047-5.924.256-8.514 1.85-3.819 2.35-7.486 4.986-11.215 7.505-.374.253-.727.54-1.306.973-.033-.824-.056-1.352-.075-1.88-.12-3.452-.128-6.915-.385-10.355-.52-6.98-.45-13.906 1.135-20.76.16-.69.177-1.45.108-2.162-.156-1.607-1.063-2.75-2.31-3.083-1.239-.33-2.538.233-3.345 1.657-.637 1.122-1.154 2.336-1.62 3.554-2.832 7.407-4.775 15.091-6.267 22.92-.182.952-.423 2.091-1.02 2.722-3.6 3.8-7.03 7.885-11.06 11.08-4.312 3.417-9.223 5.958-13.877 8.873-.168.105-.383.123-.86.267.276-1.698.511-3.124.738-4.553.835-5.25 1.742-10.489 2.467-15.756.311-2.26-.122-1.83 1.953-2.308 2.097-.48 4.21-1.062 6.181-1.947 1.734-.779 2.428-2.589 2.11-4.249-.3-1.57-1.59-2.714-3.449-2.887a13.155 13.155 0 0 0-3.04.06c-5.73.811-11.416.462-17.089-.509-.58-.099-1.186-.158-1.768-.094-2.447.272-3.646 2.745-2.186 4.86.818 1.183 2.042 2.23 3.295 2.833 1.712.826 3.615 1.23 5.46 1.705 1.536.396 1.561.33 1.075 1.922-1.519 4.98-3.129 9.931-4.544 14.944-1.07 3.795-1.928 7.667-1.753 11.684.231 5.321 3.55 7.962 8.298 6.363 2.613-.88 5.253-1.952 7.591-3.46 8.112-5.235 15.688-11.23 21.7-19.234.315-.419.631-.88.797-1.38.798-2.4 1.54-4.823 2.314-7.234.092-.289.255-.553.426-.915.4 4.752.807 9.323 1.132 13.9.035.488-.317 1.105-.649 1.511-2.114 2.594-2.378 5.392-.645 8.261.526.87 1.14 1.706 1.83 2.426.997 1.04 1.448 2.24 1.6 3.72.732 7.193 1.536 14.375 3.61 21.304.32 1.063.48 2.195.602 3.31.227 2.082 1.95 3.307 3.66 2.29 1.02-.607 2.125-1.6 2.541-2.7.598-1.586.976-3.473.801-5.15-.984-9.445-2.134-18.869-3.31-28.287-.133-1.063.055-1.58.906-2.034 3.535-1.884 7.044-3.822 10.573-5.717 2.01-1.079 4.214-1.854 6.013-3.242 1.93-1.488 3.807-3.3 5.13-5.39 2.155-3.405.061-7.147-3.759-7.208"/><path fill="#7f8990" d="M803.394 244.594c-1.556.582-3.053 1.348-4.574 2.042-5.422 2.472-10.812 5.035-16.286 7.365-1.854.79-3.921.991-6.25 1.547.198-1.304.237-2.125.455-2.889 1.162-4.089 2.382-8.159 3.554-12.245.36-1.258.744-2.528.916-3.822.17-1.285-.221-2.458-1.401-3.095-1.164-.628-2.254-.313-3.18.557a17 17 0 0 0-2.015 2.272 39.935 39.935 0 0 0-6.776 14.567c-.57 2.38-1.113 4.77-1.801 7.111-1.454 4.948 1.366 8.853 6.196 8.415 3.896-.353 7.57-1.47 10.89-3.814 1.665-1.176 3.429-2.187 5.126-3.312 4.403-2.92 8.845-5.779 13.159-8.845 1.337-.952 2.378-2.436 3.416-3.796.367-.48.325-1.32.469-1.997-.637-.034-1.34-.27-1.898-.06M763.597 232.083c-1.713-1.641-1.55-2.725.697-3.34 1.917-.523 3.91-.763 5.883-.996 7.163-.848 14.326-1.584 21.447.383.62.17 1.387-.27 2.085-.427-.243-.776-.368-1.635-.767-2.303-.319-.534-.924-.952-1.486-1.22-1.23-.586-2.477-1.255-3.783-1.514-3.61-.715-7.256-1.236-10.888-1.834l-.044.42c-2.993-.22-5.986-.646-8.976-.61-3.403.04-6.62 1.08-9.273 3.558-2.015 1.88-2.395 3.907-1.338 6.49 1.222 2.986 2.795 3.959 6.184 3.724.44-.031.86-.408 1.288-.624-.215-.452-.415-.912-.65-1.35-.08-.148-.253-.236-.379-.357M965.856 277.99l2.044-8.398 6.036 1.674c-1.993 3.226-4.796 5.104-8.08 6.724m14.79-11.858c-1.025-.674-2.225-1.107-3.396-1.447-2.487-.72-5.007-1.31-7.717-2.005.277-.498.431-.876.666-1.182 2.378-3.095 3.977-6.668 5.514-10.279 1.2-2.817 2.385-5.643 3.589-8.458.84-1.962.388-3.964-.372-5.652-.371-.825-1.944-1.022-2.975-1.5-.077-.036-.164-.043-.245-.068-5.366-1.66-10.882-1.663-16.388-1.453-2.081.08-4.192.561-6.206 1.176-2.427.742-4.766 1.818-7.14 2.757-.155.062-.295.177-.429.287-1.575 1.3-2.274 4.027-1.307 5.941 1.636 3.24 2.898 4.261 5.314 3.803 2.285-.433 4.597-.72 6.907-.977 2.682-.297 5.374-.492 8.182-.742-.61 2.447-1.152 4.774-1.769 7.077-1.769 6.601-4.466 12.925-5.371 19.777-.383 2.91-.637 5.893-.475 8.81.146 2.63 1.729 3.7 4.194 3.612.291-.01.594.01.874.09 1.346.38 2.542-.007 3.566-.929 2.57-2.312 5.074-4.712 7.668-6.992.927-.815 1.998-1.475 3.073-2.054 1.397-.75 2.969-1.17 4.28-2.052 2.773-1.865 2.738-5.716-.037-7.54M1032.572 266.932c-.744-1.996-1.968-3.292-4.104-3.521a62.608 62.608 0 0 1-6.652-1.055c-4.455-.97-8.792-2.346-12.61-5.111-.554-.401-1.144-1.055-1.308-1.712-.722-2.893-1.552-5.797-1.862-8.757-.546-5.227-2.064-10.097-3.857-14.92-.878-2.36-2.397-3.924-4.6-4.728-1.206-.441-2.442-.562-3.415.594-.886 1.053-.786 2.219-.24 3.425.156.344.196.78.19 1.173-.054 3.723.487 7.39 1.662 10.83.984 2.887 1.112 5.729.962 8.695-.18 3.566.69 6.81 2.495 9.823 1.039 1.735 2.559 2.785 3.964 4.075 2.327 2.136 4.918 3.278 7.859 3.788.945.164 1.875.418 2.812.63l.139.464c-1.425.825-2.823 1.708-4.278 2.46-2.327 1.203-4.764 2.178-7.022 3.508-2.563 1.509-4.947 3.37-7.473 4.958-3.438 2.16-6.141 5.159-8.61 8.434-1.221 1.624-.702 3.69 1.1 4.466.649.278 1.396.339 2.105.397 2.322.186 4.652.263 6.968.495 4.074.407 8.123.316 12.146-.545 1.84-.393 3.6-.99 5.089-2.341.773-.702.923-1.473.649-2.425-.125-.433-.361-.844-.413-1.284-.1-.823-.514-1.002-1.214-.984-2.57.064-5.144-.002-7.71.128-3.245.165-6.486.475-9.73.722-.03-.153-.062-.306-.093-.458.266-.278.505-.594.8-.828 2.698-2.14 5.277-4.494 8.139-6.338 4.288-2.764 8.806-5.11 13.166-7.75 2.065-1.248 4.097-2.04 6.508-1.473 1.227.289 2.53.3 3.795.275.914-.018 1.884-.142 2.72-.508 1.794-.783 2.588-2.82 1.923-4.602M956.914 211.06c.46.225.902.51 1.381.67 1.397.47 2.086 1.575 2.45 3.001.644 2.535 1.23 5.091 1.956 7.6.331 1.144.847 2.257 1.446 3.27.455.768 1.133.618 1.43-.244.317-.928.49-1.913.64-2.526-.03-1.425.06-2.49-.096-3.509-.508-3.299-.833-6.673-1.743-9.845-.993-3.464-4.338-4.83-7.299-3.475-1.053.482-1.784 1.277-1.814 2.557-.029 1.232.647 2.011 1.65 2.501"/><path fill="#c2d835" d="M874.293 723.655h-.002c-2.467 1.017-4.866 2.675-6.935 4.957 2.216.037 4.647.329 6.934 1.13l.002-.001c2.287-.8 4.718-1.092 6.932-1.129-2.07-2.281-4.466-3.94-6.93-4.957"/><path fill="#6a924a" d="M874.291 729.742ZM874.293 723.655h-.001Z"/><path fill="#80a937" d="M878.247 721.967c-.56.09-1.38-.132-1.821-.492 0 0-.945-.771-2.135-.771s-2.133.771-2.133.771c-.442.36-1.262.582-1.823.492 0 0-.788-.125-1.634.146 1.749.276 3.67.75 5.59 1.542h.003c1.92-.792 3.839-1.266 5.59-1.542-.847-.271-1.637-.146-1.637-.146"/><path fill="#8ec744" d="M868.7 722.113c-.2.064-.4.148-.595.261-.034.02-.065.04-.096.06a.012.012 0 0 1-.005.005c-.955.611-1.366 1.679-1.366 1.679-.204.533-.803 1.139-1.334 1.344 0 0-.882.377-1.578 1.557-.278.475-.674 1.466-.858 2.205.04-.004.081-.011.121-.016.698-.361 2.85-.619 4.367-.596 2.07-2.282 4.47-3.94 6.935-4.957-1.92-.792-3.84-1.266-5.59-1.542"/><path fill="#c2d835" d="M862.989 729.208a.043.043 0 0 1-.012.005c-.252 2.071.188 3.893 1.16 5.408.413-2.4 1.732-4.369 3.219-6.009-1.518-.023-3.668.235-4.367.596"/><path fill="#e3e65e" d="M867.04 737.406c.326-4.059 4.254-7.065 7.25-7.664-2.287-.801-4.718-1.093-6.934-1.13-1.487 1.64-2.807 3.608-3.219 6.009.707 1.1 1.695 2.037 2.902 2.785"/><path fill="#8ec744" d="M885.534 729.212c.03.005.061.01.091.012-.183-.744-.49-1.73-.768-2.205-.696-1.18-1.579-1.557-1.579-1.557-.53-.205-1.13-.81-1.335-1.344 0 0-.409-1.068-1.365-1.679-.002 0-.002-.003-.005-.005-.03-.02-.06-.04-.094-.06a3.123 3.123 0 0 0-.596-.26c-1.75.275-3.67.748-5.59 1.541 2.465 1.017 4.86 2.676 6.93 4.957 1.542-.023 3.696.333 4.311.6"/><path fill="#c2d835" d="M885.537 729.213h-.003c-.615-.268-2.768-.624-4.31-.6 1.57 1.732 2.853 3.573 3.131 6.044.99-1.52 1.438-3.358 1.182-5.444"/><path fill="#e3e65e" d="M884.356 734.657c-.28-2.472-1.563-4.312-3.132-6.045-2.215.036-4.646.328-6.933 1.13 3.94 1.07 6.97 3.855 7.237 7.63 1.172-.735 2.131-1.646 2.827-2.715"/></g><g clip-path="url(#B)" transform="translate(-491.794 -280.641)"><clipPath id="C"><path d="m863.092 728.49.002-.01a.03.03 0 0 0-.002.01m-.897 5.093a13.034 13.034 0 0 0 2.173 6.932c.167.259.345.511.532.758.36.473.759.912 1.181 1.299 2.093 1.922 5.082 2.625 6.413.427.209-.34.411-.958.393-1.689-.049-2.037-2.006-2.264-3.349-2.729-4.597-1.589-7.403-5.21-6.446-10.091-.048.174-.966 2.173-.897 5.093"/></clipPath><g clip-path="url(#C)"><clipPath id="D"><path d="m861.727 728.49 11.172-.267.406 16.965-11.173.266z"/></clipPath></g></g><g clip-path="url(#E)" transform="translate(-491.794 -280.641)"><clipPath id="F"><path d="m885.423 728.49-.002-.01.002.01m-6.446 10.091c-1.345.465-3.299.692-3.349 2.729-.017.731.185 1.349.392 1.689 1.333 2.198 4.322 1.495 6.416-.427.42-.387.819-.826 1.18-1.299.186-.247.364-.499.531-.758a13.034 13.034 0 0 0 2.173-6.932c.069-2.919-.849-4.919-.897-5.093.955 4.881-1.85 8.502-6.446 10.091"/></clipPath><g clip-path="url(#F)"><clipPath id="G"><path d="m886.789 728.49-11.172-.267-.405 16.965 11.171.266z"/></clipPath></g></g><g fill="#7a9858" clip-path="url(#H)" transform="translate(-491.794 -280.641)"><path d="M944.853 727.691c.974 0 1.709.604 1.709 1.41 0 .802-.735 1.407-1.71 1.407-.973 0-1.71-.605-1.71-1.408 0-.805.737-1.409 1.71-1.409m-3.483 1.432c0 1.7 1.499 2.982 3.484 2.982 1.985 0 3.483-1.283 3.483-2.982 0-.467-.144-.915-.39-1.318h2.333v-1.58h-4.446v-1.356h-1.96v1.355h-4.446v1.581h2.33a2.535 2.535 0 0 0-.388 1.318m.57 8.273v-2.087h-1.96v2.662c0 .8.653 1.452 1.455 1.452h8.729v-1.58h-7.777a.449.449 0 0 1-.447-.447m-3.12-4.705v1.556h5.6v2.42h1.96v-2.42h4.506v-1.556ZM927.761 732.107v-2.526h6.393v2.526c0 .248-.2.448-.446.448h-5.5a.447.447 0 0 1-.447-.448m4.175 5.188v-3.159h2.723c.801 0 1.452-.653 1.452-1.455v-6.875h-1.957V728h-6.393v-2.194h-1.959v6.875c0 .802.653 1.455 1.454 1.455h2.722v3.16h-5.052v1.578h12.064v-1.579zM1034.314 728.946v-3.14h-1.96v9.775h1.96v-5.055h2.055v-1.58Zm-2.446 4.069v-1.581h-6.025a.444.444 0 0 1-.446-.446v-2.905c0-.246.198-.446.446-.446h4.712v-1.58h-5.664c-.8 0-1.455.653-1.455 1.453v4.051c0 .801.654 1.453 1.455 1.453zm-5.159 4.382v-2.779h-1.96v3.352c0 .803.653 1.453 1.456 1.453h8.255v-1.58h-7.305a.447.447 0 0 1-.446-.447M1018.322 727.834v3.541h1.96v-4.114c0-.802-.65-1.455-1.453-1.455h-8.94v1.581h7.986c.249 0 .447.2.447.447m-3.074 10.833c-1.443 0-2.53-1.006-2.53-2.338s1.087-2.337 2.53-2.337c1.442 0 2.528 1.005 2.528 2.337 0 1.332-1.086 2.338-2.528 2.338m6.063-6.804h-6.548v-2.826h-1.96v2.826h-3.637v1.554h3.022c-.884.686-1.41 1.7-1.41 2.912 0 2.276 1.838 3.866 4.47 3.866 2.63 0 4.468-1.59 4.468-3.866 0-1.213-.524-2.226-1.411-2.912h3.006zM1000.406 734.136h1.816v3.16h-1.816zm3.773 3.159v-3.159h2.289v-1.529h-7.984c-.249 0-.37-.122-.37-.366v-1.589h8.354v-3.729c0-.731-.386-1.117-1.115-1.117h-9.195v1.529h7.982c.247 0 .369.122.369.368v1.48h-8.351v3.578c0 .798.575 1.375 1.373 1.375h.916v3.159h-3.165v1.579h12.063v-1.579zM985.429 727.279c1.324 0 2.228 1.029 2.228 2.34 0 1.308-.904 2.338-2.228 2.338-1.326 0-2.23-1.03-2.23-2.338 0-1.312.904-2.34 2.23-2.34m0 6.22c2.515 0 4.175-1.623 4.175-3.88 0-2.257-1.66-3.882-4.175-3.882-2.513 0-4.175 1.625-4.175 3.882s1.662 3.88 4.175 3.88m5.314-7.657v9.7h-9.93v1.498h9.93v2.384h1.902v-13.582ZM976.794 739.423h1.957v-13.618h-1.957zM972 728.311v-.976h2.465v-1.529h-6.886v1.529h2.462v.976c0 .039-.013 3.658-3.271 6.133l1.118 1.333c1.678-1.293 2.591-2.736 3.062-3.725l.072-.149.071.149c.471.989 1.384 2.432 3.06 3.725l1.121-1.333c-3.259-2.475-3.274-6.094-3.274-6.133M955.738 729.501v-.755h6.393v.755c0 .247-.2.448-.446.448h-5.501a.447.447 0 0 1-.446-.448m4.175 3.072v-1.043h2.722c.802 0 1.453-.653 1.453-1.453v-4.27h-1.957v1.36h-6.393v-1.36h-1.96v4.27c0 .8.654 1.453 1.455 1.453h2.722v1.043h-5.052v1.527h12.064v-1.527zM953.871 734.86v1.529h7.8c.248 0 .37.12.37.367v2.667H964v-3.447c0-.73-.386-1.116-1.119-1.116ZM922.962 732.598v-1.527H910.9v1.527h5.052v1.852h-4.085v1.527h7.8c.25 0 .37.12.37.367v2.669h1.96v-3.45c0-.728-.386-1.113-1.117-1.113h-2.97v-1.852Zm-2.927-4.896v2.668h1.96v-3.448c0-.73-.386-1.116-1.117-1.116h-9.013v1.53h7.801c.25 0 .37.118.37.366M900.597 728.34h.006c1.052 0 1.743.85 1.743 1.948 0 1.102-.692 1.953-1.746 1.953-1.05 0-1.738-.85-1.738-1.953 0-1.098.687-1.948 1.735-1.949m.003 5.43c2.132 0 3.7-1.554 3.7-3.548 0-.697-.25-1.344-.658-1.882h.93v-1.527h-2.992v-1.45h-1.958v1.45h-2.991v1.527h.932c-.41.538-.661 1.185-.661 1.882 0 1.994 1.57 3.547 3.698 3.547m6.914-4.823v-3.139h-1.96v9.775h1.96v-5.055h2.055v-1.58zm-7.605 8.451v-2.84h-1.96v3.415c0 .802.653 1.453 1.454 1.453h8.257v-1.58h-7.305a.447.447 0 0 1-.446-.448"/></g><path fill="#7a9858" d="M448.964 25.656c4.915 0 8.647 3.057 8.647 7.13 0 4.05-3.732 7.113-8.647 7.113-4.925 0-8.647-3.062-8.647-7.113 0-4.073 3.722-7.13 8.647-7.13m-17.619 7.245c0 8.59 7.58 15.075 17.62 15.075 10.033 0 17.613-6.486 17.613-15.075 0-2.356-.728-4.633-1.963-6.664h11.782V18.24h-22.481v-6.851h-9.898v6.851h-22.492v7.998l11.793.006c-1.24 2.025-1.974 4.302-1.974 6.658m2.885 41.827V64.176h-9.909v13.468c0 4.046 3.303 7.338 7.354 7.338h44.141v-7.987h-39.325a2.266 2.266 0 0 1-2.261-2.267m-15.771-23.785v7.862h28.317v12.233h9.903V58.805h22.785v-7.862zM362.542 47.987V35.215h32.327v12.772a2.26 2.26 0 0 1-2.256 2.26h-27.815a2.254 2.254 0 0 1-2.256-2.26m21.115 26.229v-15.97h13.766c4.052 0 7.339-3.308 7.339-7.35V16.132h-9.893v11.086h-32.327V16.13h-9.909v34.766c0 4.04 3.309 7.349 7.35 7.349h13.77v15.97h-25.548v7.992h60.996v-7.992zM901.315 32.003v-15.87h-9.914v49.421h9.914V39.995h10.39v-7.992zm-12.369 20.576V44.58h-30.468a2.256 2.256 0 0 1-2.256-2.256V27.642a2.256 2.256 0 0 1 2.256-2.256h23.837v-7.982h-28.648c-4.046 0-7.349 3.287-7.349 7.339v20.481c0 4.047 3.303 7.355 7.35 7.355zM862.86 74.73V60.687h-9.904V77.64c0 4.05 3.298 7.343 7.365 7.343h41.733v-7.987H865.12a2.27 2.27 0 0 1-2.261-2.267M820.46 26.377V44.29h9.908V23.483c0-4.052-3.292-7.355-7.354-7.355h-45.203v7.988h40.388a2.269 2.269 0 0 1 2.26 2.261M804.91 81.16c-7.292 0-12.793-5.093-12.793-11.819 0-6.736 5.501-11.824 12.793-11.824 7.296 0 12.787 5.088 12.787 11.824 0 6.726-5.49 11.82-12.787 11.82m30.662-34.406H802.46v-14.29h-9.909v14.29h-18.393v7.857h15.284c-4.47 3.476-7.129 8.595-7.129 14.73 0 11.494 9.291 19.54 22.597 19.54 13.31 0 22.59-8.046 22.59-19.54 0-6.135-2.653-11.254-7.133-14.73h15.205zM729.86 58.242h9.186v15.97h-9.186zm19.084 15.975V58.242h11.573V50.51H720.15c-1.267 0-1.88-.613-1.88-1.853v-8.025h42.247V21.774c0-3.69-1.958-5.642-5.648-5.642h-46.486v7.73h40.362c1.24 0 1.858.613 1.858 1.859v7.485h-42.22v18.09c0 4.025 2.91 6.946 6.946 6.946h4.633v15.975H703.95v7.992h60.995v-7.992zM654.132 23.571c6.69 0 11.26 5.203 11.26 11.83 0 6.616-4.57 11.824-11.26 11.824-6.705 0-11.28-5.208-11.28-11.824 0-6.627 4.575-11.83 11.28-11.83m0 31.458c12.714 0 21.11-8.212 21.11-19.628 0-11.411-8.396-19.624-21.11-19.624-12.709 0-21.12 8.213-21.12 19.624 0 11.416 8.411 19.628 21.12 19.628m26.863-38.718v49.04h-50.197v7.58h50.197V84.98h9.62V16.311ZM610.47 84.978h9.904V16.121h-9.904zm-24.24-56.18v-4.935h12.468v-7.731H563.87v7.73h12.458v4.931c0 .194-.068 18.498-16.54 31.008l5.647 6.742c8.49-6.532 13.107-13.834 15.494-18.833l.356-.759.36.76c2.383 4.998 6.994 12.284 15.484 18.832l5.653-6.742c-16.483-12.51-16.55-30.814-16.55-31.002M504.004 34.816v-3.815h32.322v3.815a2.262 2.262 0 0 1-2.246 2.262h-27.82a2.26 2.26 0 0 1-2.256-2.262m21.105 15.53v-5.28h13.776c4.046 0 7.339-3.288 7.339-7.344V16.13h-9.898v6.873h-32.322V16.13H494.1v21.592c0 4.056 3.302 7.343 7.338 7.343h13.777v5.282h-25.538v7.726h60.985v-7.726zM494.565 61.916v7.715H534c1.256 0 1.869.612 1.869 1.858v13.494h9.908v-17.44c0-3.685-1.952-5.627-5.647-5.627zM338.28 50.466v-7.721h-61.001v7.72h25.543v9.365h-20.65v7.726h39.441c1.262 0 1.864.602 1.864 1.858v13.483h9.914v-17.43c0-3.69-1.953-5.637-5.648-5.637H312.72v-9.364zm-14.803-24.759v13.5h9.914V21.766c0-3.685-1.953-5.638-5.648-5.638h-45.57v7.732h39.44c1.262 0 1.864.601 1.864 1.847M225.197 28.93h.027c5.312.006 8.804 4.308 8.804 9.867 0 5.56-3.492 9.867-8.825 9.867-5.313 0-8.794-4.308-8.794-9.867 0-5.559 3.48-9.861 8.788-9.866m.005 27.464c10.783 0 18.713-7.862 18.713-17.943 0-3.528-1.261-6.794-3.334-9.521h4.7v-7.71h-15.116v-7.34h-9.904v7.34h-15.127v7.71h4.711c-2.073 2.727-3.34 5.993-3.34 9.52 0 10.082 7.941 17.944 18.698 17.944m34.965-24.392v-15.87h-9.92v49.422h9.92v-25.56h10.374v-7.992zm-38.462 42.728V60.363h-9.908V77.64c0 4.051 3.297 7.339 7.354 7.339h41.754v-7.983h-36.944a2.265 2.265 0 0 1-2.256-2.266M232.622 138.301l-9.202-16.31-4.632 5.543v10.767H211.8v-35.818h6.988v15.593l12.63-15.593h8.5l-11.876 14.243 12.73 21.575zM257.784 118.824c-.754-.749-1.764-1.142-3.067-1.142-1.304 0-2.267.393-3.02 1.142-1.356 1.366-1.513 3.627-1.513 6.349 0 2.711.157 5.03 1.513 6.386.753.753 1.716 1.151 3.02 1.151 1.303 0 2.313-.398 3.067-1.151 1.356-1.356 1.513-3.675 1.513-6.386 0-2.722-.157-4.983-1.513-6.35m5.077 16.562c-1.601 1.706-4.276 3.219-8.144 3.219-3.874 0-6.49-1.513-8.103-3.22-2.36-2.464-2.968-5.438-2.968-10.211 0-4.732.607-7.705 2.968-10.165 1.612-1.712 4.23-3.214 8.103-3.214 3.868 0 6.543 1.502 8.144 3.214 2.372 2.46 2.973 5.433 2.973 10.165 0 4.773-.601 7.747-2.973 10.212M286.315 119.232c-1.005-1-1.864-1.549-3.465-1.549-2.016 0-4.235 1.502-4.235 4.82v15.798h-6.538v-26.214h6.392v2.518c1.256-1.502 3.773-2.81 6.584-2.81 2.57 0 4.381.648 6.187 2.46zM307.904 119.938c-.707-1.555-2.167-2.727-4.381-2.727-2.215 0-3.675 1.172-4.376 2.727-.403.953-.55 1.654-.602 2.816h9.955c-.042-1.162-.199-1.863-.596-2.816m-9.36 7.286c0 3.376 2.063 5.836 5.738 5.836 2.863 0 4.276-.79 5.935-2.46l3.968 3.879c-2.664 2.664-5.23 4.124-9.961 4.124-6.182 0-12.123-2.82-12.123-13.43 0-8.554 4.627-13.38 11.422-13.38 7.296 0 11.42 5.329 11.42 12.526v2.905zM334.267 127.225h-5.177c-2.366 0-3.68 1.12-3.68 2.978 0 1.81 1.215 3.015 3.769 3.015 1.816 0 2.973-.157 4.13-1.256.707-.655.958-1.707.958-3.319zm.146 11.075v-2.266c-1.758 1.77-3.418 2.512-6.433 2.512-2.967 0-5.13-.743-6.689-2.303-1.413-1.465-2.172-3.58-2.172-5.883 0-4.188 2.884-7.606 8.956-7.606h6.192v-1.303c0-2.868-1.408-4.125-4.879-4.125-2.517 0-3.674.597-5.035 2.167l-4.166-4.088c2.56-2.816 5.077-3.611 9.458-3.611 7.344 0 11.16 3.114 11.16 9.249V138.3zM373.062 138.301h-5.23l-11.823-35.818h7.239l7.197 23.34 7.197-23.34h7.291zM401.237 119.938c-.701-1.555-2.162-2.727-4.37-2.727-2.22 0-3.68 1.172-4.376 2.727-.409.953-.56 1.654-.608 2.816h9.967c-.058-1.162-.205-1.863-.613-2.816m-9.354 7.286c0 3.376 2.058 5.836 5.732 5.836 2.874 0 4.276-.79 5.936-2.46l3.978 3.879c-2.67 2.664-5.235 4.124-9.961 4.124-6.192 0-12.128-2.82-12.128-13.43 0-8.554 4.632-13.38 11.427-13.38 7.286 0 11.41 5.329 11.41 12.526v2.905zM422.522 138.301c-5.323 0-7.595-3.774-7.595-7.49v-12.986h-2.764v-4.978h2.764v-7.752h6.538v7.752h4.632v4.978h-4.632v12.583c0 1.502.711 2.36 2.266 2.36h2.366v5.533zM446.375 119.938c-.706-1.555-2.167-2.727-4.376-2.727-2.214 0-3.674 1.172-4.376 2.727-.403.953-.554 1.654-.612 2.816h9.966c-.052-1.162-.199-1.863-.602-2.816m-9.364 7.286c0 3.376 2.068 5.836 5.747 5.836 2.863 0 4.272-.79 5.926-2.46l3.978 3.879c-2.665 2.664-5.235 4.124-9.961 4.124-6.182 0-12.123-2.82-12.123-13.43 0-8.554 4.627-13.38 11.421-13.38 7.297 0 11.416 5.329 11.416 12.526v2.905zM473.7 119.232c-1.006-1-1.864-1.549-3.476-1.549-2.015 0-4.224 1.502-4.224 4.82v15.798h-6.533v-26.214h6.38v2.518c1.262-1.502 3.775-2.81 6.59-2.81 2.566 0 4.382.648 6.188 2.46zM495.132 127.225h-5.187c-2.355 0-3.67 1.12-3.67 2.978 0 1.81 1.215 3.015 3.77 3.015 1.816 0 2.973-.157 4.13-1.256.7-.655.957-1.707.957-3.319zm.157 11.075v-2.266c-1.769 1.77-3.428 2.512-6.443 2.512-2.968 0-5.135-.743-6.695-2.303-1.408-1.465-2.156-3.58-2.156-5.883 0-4.188 2.863-7.606 8.95-7.606h6.187v-1.303c0-2.868-1.408-4.125-4.878-4.125-2.518 0-3.675.597-5.035 2.167l-4.167-4.088c2.554-2.816 5.072-3.611 9.458-3.611 7.339 0 11.16 3.114 11.16 9.249V138.3zM523.967 138.301v-15.85c0-3.564-2.272-4.768-4.329-4.768-2.067 0-4.38 1.204-4.38 4.769v15.85h-6.533v-26.214h6.386v2.424c1.711-1.822 4.119-2.717 6.537-2.717 2.617 0 4.727.843 6.187 2.303 2.115 2.115 2.67 4.575 2.67 7.448v16.755zM546.157 138.603c-4.125 0-7.852-.456-11.175-3.785l4.286-4.265c2.162 2.161 4.973 2.465 6.988 2.465 2.272 0 4.633-.743 4.633-2.722 0-1.303-.702-2.214-2.775-2.413l-4.119-.398c-4.727-.45-7.652-2.512-7.652-7.344 0-5.422 4.784-8.348 10.112-8.348 4.078 0 7.496.706 10.013 3.067l-4.02 4.078c-1.512-1.367-3.831-1.764-6.092-1.764-2.612 0-3.722 1.209-3.722 2.512 0 .958.403 2.057 2.717 2.272l4.124.398c5.188.502 7.8 3.271 7.8 7.7 0 5.783-4.931 8.547-11.118 8.547M594.053 138.301v-14.99H581.93v14.99h-6.993v-35.818h6.993v14.64h12.123v-14.64h6.988v35.818zM623.391 119.938c-.701-1.555-2.167-2.727-4.376-2.727-2.214 0-3.674 1.172-4.38 2.727-.399.953-.545 1.654-.608 2.816h9.966c-.052-1.162-.199-1.863-.602-2.816m-9.364 7.286c0 3.376 2.068 5.836 5.747 5.836 2.858 0 4.271-.79 5.936-2.46l3.968 3.879c-2.665 2.664-5.23 4.124-9.961 4.124-6.182 0-12.123-2.82-12.123-13.43 0-8.554 4.627-13.38 11.421-13.38 7.297 0 11.416 5.329 11.416 12.526v2.905zM649.757 127.225h-5.177c-2.366 0-3.68 1.12-3.68 2.978 0 1.81 1.215 3.015 3.774 3.015 1.811 0 2.973-.157 4.125-1.256.701-.655.958-1.707.958-3.319zm.152 11.075v-2.266c-1.764 1.77-3.424 2.512-6.439 2.512-2.973 0-5.134-.743-6.689-2.303-1.408-1.465-2.167-3.58-2.167-5.883 0-4.188 2.868-7.606 8.95-7.606h6.193v-1.303c0-2.868-1.413-4.125-4.878-4.125-2.518 0-3.675.597-5.036 2.167l-4.172-4.088c2.565-2.816 5.083-3.611 9.459-3.611 7.344 0 11.165 3.114 11.165 9.249V138.3zM670.745 138.301c-5.381 0-7.642-3.774-7.642-7.49v-28.328h6.532v27.925c0 1.555.655 2.36 2.314 2.36h2.512v5.533zM687.902 138.301c-5.333 0-7.595-3.774-7.595-7.49v-12.986h-2.768v-4.978h2.768v-7.752h6.538v7.752h4.632v4.978h-4.632v12.583c0 1.502.702 2.36 2.261 2.36h2.371v5.533zM712.453 138.301v-16.006c0-3.47-2.208-4.612-4.281-4.612-2.057 0-4.224 1.204-4.224 4.612V138.3h-6.538v-35.818h6.538v12.029c1.764-1.822 3.978-2.717 6.297-2.717 5.726 0 8.746 4.02 8.746 9.553V138.3zM748.074 138.603c-5.423 0-9.558-1.162-13.075-4.737l4.527-4.528c2.256 2.282 5.329 3.03 8.647 3.03 4.125 0 6.34-1.554 6.34-4.427 0-1.262-.346-2.314-1.095-3.02-.712-.655-1.518-1.01-3.172-1.262l-4.334-.602c-3.072-.45-5.328-1.413-6.94-2.973-1.712-1.701-2.56-4.02-2.56-7.04 0-6.386 4.727-10.861 12.468-10.861 4.936 0 8.506 1.209 11.573 4.166l-4.428 4.381c-2.267-2.167-4.978-2.465-7.339-2.465-3.726 0-5.538 2.062-5.538 4.527 0 .906.304 1.853 1.058 2.57.706.655 1.863 1.21 3.324 1.409l4.218.607c3.272.445 5.34 1.35 6.842 2.763 1.915 1.817 2.769 4.423 2.769 7.595 0 6.941-5.784 10.867-13.285 10.867M781.936 119.938c-.702-1.555-2.162-2.727-4.37-2.727-2.215 0-3.675 1.172-4.377 2.727-.408.953-.555 1.654-.607 2.816h9.966c-.057-1.162-.204-1.863-.612-2.816m-9.354 7.286c0 3.376 2.068 5.836 5.742 5.836 2.858 0 4.271-.79 5.93-2.46l3.973 3.879c-2.67 2.664-5.229 4.124-9.955 4.124-6.192 0-12.128-2.82-12.128-13.43 0-8.554 4.632-13.38 11.421-13.38 7.292 0 11.421 5.329 11.421 12.526v2.905zM809.26 119.232c-1.005-1-1.853-1.549-3.47-1.549-2.016 0-4.23 1.502-4.23 4.82v15.798h-6.537v-26.214h6.39v2.518c1.262-1.502 3.775-2.81 6.585-2.81 2.576 0 4.382.648 6.198 2.46zM829.234 138.301h-5.125l-9.657-26.213h6.888l5.334 16.2 5.287-16.2h6.888zM842.727 112.087h6.538V138.3h-6.538zm-.1-9.81h6.695v5.335h-6.694zM866.98 138.603c-5.234 0-11.724-2.821-11.724-13.426 0-10.626 6.49-13.384 11.725-13.384 3.617 0 6.333 1.099 8.652 3.517l-4.433 4.428c-1.356-1.46-2.508-2.057-4.22-2.057-1.56 0-2.773.55-3.726 1.701-1.005 1.262-1.455 3.02-1.455 5.795 0 2.764.45 4.57 1.455 5.83.953 1.152 2.167 1.707 3.727 1.707 1.711 0 2.863-.596 4.219-2.067l4.433 4.38c-2.319 2.414-5.035 3.576-8.652 3.576M894.297 119.938c-.696-1.555-2.162-2.727-4.381-2.727-2.209 0-3.664 1.172-4.37 2.727-.404.953-.556 1.654-.603 2.816h9.961c-.052-1.162-.21-1.863-.607-2.816m-9.354 7.286c0 3.376 2.063 5.836 5.737 5.836 2.858 0 4.271-.79 5.93-2.46l3.979 3.879c-2.67 2.664-5.235 4.124-9.961 4.124-6.192 0-12.128-2.82-12.128-13.43 0-8.554 4.632-13.38 11.416-13.38 7.297 0 11.421 5.329 11.421 12.526v2.905z" style="fill:#739741;fill-opacity:1;stroke-width:5.23431"/><path d="m35.386 266.861-.016-.004C6.696 278.68-21.199 297.961-45.259 324.49c25.754.421 54.016 3.817 80.616 13.138l.014-.009c26.587-9.312 54.85-12.708 80.585-13.129-24.06-26.52-51.897-45.81-80.567-57.628" style="fill:#b5dc17;fill-opacity:1;fill-rule:nonzero;stroke:none;stroke-width:.44326" transform="matrix(.54543 0 0 .54543 57.433 -126.841)"/><path d="M35.373 337.632v-.014l-.016.01zM35.386 266.857h-.014l.014.004z" style="fill:#619035;fill-opacity:1;fill-rule:nonzero;stroke:none;stroke-width:.44326" transform="matrix(.54543 0 0 .54543 57.433 -126.841)"/><path d="M81.353 247.22c-6.516 1.056-16.046-1.533-21.166-5.704 0 0-10.993-8.963-24.818-8.963-13.835 0-24.805 8.963-24.805 8.963-5.146 4.17-14.672 6.76-21.188 5.705 0 0-9.171-1.437-19.02 1.697 20.336 3.227 42.672 8.724 65.013 17.939h.016c22.322-9.215 44.65-14.712 64.995-17.939-9.845-3.134-19.03-1.697-19.03-1.697" style="fill:#73ab1d;fill-opacity:1;fill-rule:nonzero;stroke:none;stroke-width:.44326" transform="matrix(.54543 0 0 .54543 57.433 -126.841)"/><path d="M-29.644 248.918c-2.314.745-4.65 1.729-6.906 3.037l-1.109.709-.062.057c-11.112 7.12-15.882 19.522-15.882 19.522-2.371 6.192-9.348 13.24-15.505 15.616 0 0-10.266 4.38-18.355 18.102-3.232 5.537-7.846 17.053-9.965 25.643.461-.053.935-.124 1.392-.186 8.125-4.189 33.125-7.212 50.775-6.928 24.06-26.53 51.955-45.811 80.63-57.633-22.34-9.215-44.677-14.712-65.013-17.939" style="fill:#80cc28;fill-opacity:1;fill-rule:nonzero;stroke:none;stroke-width:.44326" transform="matrix(.54543 0 0 .54543 57.433 -126.841)"/><path d="m-96.036 331.418-.129.062c-2.943 24.07 2.177 45.266 13.484 62.872 4.779-27.925 20.133-50.789 37.42-69.862-17.65-.284-42.65 2.74-50.775 6.928" style="fill:#b5dc17;fill-opacity:1;fill-rule:nonzero;stroke:none;stroke-width:.44326" transform="matrix(.54543 0 0 .54543 57.433 -126.841)"/><path d="M-48.93 426.719c3.79-47.194 49.463-82.123 84.285-89.091-26.6-9.322-54.862-12.717-80.615-13.138-17.288 19.073-32.642 41.937-37.42 69.862 8.213 12.788 19.707 23.675 33.75 32.367" style="fill:#dbea3e;fill-opacity:1;fill-rule:nonzero;stroke:none;stroke-width:.44326" transform="matrix(.54543 0 0 .54543 57.433 -126.841)"/><path d="m166.077 331.462 1.06.142c-2.132-8.648-5.7-20.106-8.936-25.643-8.077-13.723-18.347-18.102-18.347-18.102-6.161-2.376-13.134-9.424-15.518-15.616 0 0-4.752-12.403-15.878-19.522l-.053-.057-1.1-.71a36.536 36.536 0 0 0-6.923-3.036c-20.346 3.227-42.673 8.724-64.996 17.939v.004c28.67 11.817 56.507 31.108 80.567 57.628 17.94-.283 42.992 3.874 50.124 6.973" style="fill:#80cc28;fill-opacity:1;fill-rule:nonzero;stroke:none;stroke-width:.44326" transform="matrix(.54543 0 0 .54543 57.433 -126.841)"/><path d="m166.108 331.48-.03-.016c-7.133-3.098-32.186-7.256-50.124-6.972 18.262 20.132 33.191 41.533 36.414 70.27 11.511-17.678 16.72-39.02 13.74-63.28" style="fill:#b5dc17;fill-opacity:1;fill-rule:nonzero;stroke:none;stroke-width:.44326" transform="matrix(.54543 0 0 .54543 57.433 -126.841)"/><path d="M152.367 394.76c-3.222-28.737-18.151-50.137-36.414-70.27-25.735.42-53.998 3.816-80.58 13.13v.013c45.776 12.434 81.033 44.823 84.131 88.701 13.608-8.533 24.778-19.14 32.863-31.573" style="fill:#dbea3e;fill-opacity:1;fill-rule:nonzero;stroke:none;stroke-width:.44326" transform="matrix(.54543 0 0 .54543 57.433 -126.841)"/><g clip-path="url(#I)" transform="matrix(.24177 0 0 -.24177 -260.379 1062.868)"><path d="M1077.08 4058.46c1.59-67.6 22.5-130.07 56.99-181.85 4.37-6.75 9.04-13.38 13.92-19.85 9.45-12.41 19.92-23.9 30.99-34.1 54.9-50.39 133.3-68.81 168.24-11.17 5.44 8.92 10.74 25.15 10.29 44.28-1.31 53.44-52.6 59.4-87.85 71.62-120.65 41.69-194.25 136.75-169.03 264.91 0-2.06-25.42-55.25-23.55-133.84" style="fill:url(#J);fill-opacity:1;fill-rule:nonzero;stroke:none"/></g><g clip-path="url(#K)" transform="matrix(.24177 0 0 -.24177 -260.379 1062.868)"><path d="M1709.85 4058.46c-1.64-67.6-22.53-130.07-57.05-181.85-4.35-6.75-9.03-13.38-13.9-19.85-9.45-12.41-19.91-23.9-30.97-34.1-54.88-50.39-133.3-68.81-168.27-11.17-5.44 8.92-10.7 25.15-10.27 44.28 1.33 53.44 52.6 59.4 87.84 71.62 120.62 41.69 194.23 136.75 169.06 264.91 0-2.06 25.41-55.25 23.56-133.84" style="fill:url(#L);fill-opacity:1;fill-rule:nonzero;stroke:none"/></g></svg>