<svg xmlns="http://www.w3.org/2000/svg" width="90.673447mm" height="15.241164mm" viewBox="0 0 90.673447 15.241164"><defs><linearGradient id="a" x1="0" x2="1" y1="0" y2="0" gradientTransform="matrix(-13.39294 0 0 13.39294 255.616 311.282)" gradientUnits="userSpaceOnUse" spreadMethod="pad"><stop offset="0" style="stop-opacity:1;stop-color:#142c61"/><stop offset="1" style="stop-opacity:1;stop-color:#51bbed"/></linearGradient><linearGradient id="b" x1="0" x2="1" y1="0" y2="0" gradientTransform="matrix(0 13.98349 13.98349 0 235.327 298.268)" gradientUnits="userSpaceOnUse" spreadMethod="pad"><stop offset="0" style="stop-opacity:1;stop-color:#1b377c"/><stop offset="0.86393835" style="stop-opacity:1;stop-color:#6ec72e"/><stop offset="1" style="stop-opacity:1;stop-color:#6ec72e"/></linearGradient><linearGradient id="d" x1="0" x2="1" y1="0" y2="0" gradientTransform="matrix(0 13.98349 13.98349 0 220.291 298.268)" gradientUnits="userSpaceOnUse" spreadMethod="pad"><stop offset="0" style="stop-opacity:1;stop-color:#1b377c"/><stop offset="0.86393835" style="stop-opacity:1;stop-color:#6ec72e"/><stop offset="1" style="stop-opacity:1;stop-color:#6ec72e"/></linearGradient><linearGradient id="f" x1="0" x2="1" y1="0" y2="0" gradientTransform="matrix(18.43184 0 0 -18.43184 208.541 316.927)" gradientUnits="userSpaceOnUse" spreadMethod="pad"><stop offset="0" style="stop-opacity:1;stop-color:#142c61"/><stop offset="1" style="stop-opacity:1;stop-color:#51bbed"/></linearGradient><clipPath id="c" clipPathUnits="userSpaceOnUse"><path d="M0 0h595.275v841.89H0Z"/></clipPath><clipPath id="e" clipPathUnits="userSpaceOnUse"><path d="M0 0h595.275v841.89H0Z"/></clipPath><clipPath id="g" clipPathUnits="userSpaceOnUse"><path d="M0 0h595.275v841.89H0Z"/></clipPath></defs><path d="M244.782 322.684c-1.315 0-2.33-.677-2.33-2.179v-6.426l9.824-.002a2.776 2.776 0 0 0 2.771-2.774 2.777 2.777 0 0 0-2.771-2.772h-11.45l.064-8.651h11.386c6.31.004 11.421 5.113 11.424 11.423-.003 6.313-5.114 11.379-11.424 11.381z" style="fill:url(#a);stroke:none" transform="matrix(.35278 0 0 -.35278 -71.267 117.822)"/><path d="M228.253 314.427h-.005a.52.52 0 0 1-.521-.521l.002-.022v-5.327s6.448.915 6.448-5.938v-6.628h.009v-3.364c0-.169.17-.255.505-.255h5.792c1.621 0 2.433.897 2.433 2.688v.931h.01v6.628c-.003 6.525-5.288 11.808-11.815 11.808z" style="fill:url(#b);stroke:none" transform="matrix(.35278 0 0 -.35278 -71.267 117.822)"/><g clip-path="url(#c)" transform="matrix(.35278 0 0 -.35278 -71.267 117.822)"><path d="M0 0a3.763 3.763 0 1 0-7.526 0A3.763 3.763 0 0 0 0 0" style="fill:#6ec72e;fill-opacity:1;fill-rule:nonzero;stroke:none" transform="translate(239.875 318.845)"/></g><path d="M210.889 314.427s.008-6.327 0-6.39c3.153 0 10.054 1.078 10.054-5.418v-4.554c-.001-.035-.003-.069-.003-.105v-5.333c0-.169.167-.255.505-.255h5.813c1.624 0 2.434.897 2.434 2.688v.87h.001v6.689c-.001 6.525-5.286 11.808-11.816 11.808z" style="fill:url(#d);stroke:none" transform="matrix(.35278 0 0 -.35278 -71.267 117.822)"/><g clip-path="url(#e)" transform="matrix(.35278 0 0 -.35278 -71.267 117.822)"><path d="M0 0a3.761 3.761 0 1 0-7.523 0A3.762 3.762 0 0 0 0 0" style="fill:#6ec72e;fill-opacity:1;fill-rule:nonzero;stroke:none" transform="translate(227.073 318.845)"/></g><path d="M221.345 333.983c-1.066 0-1.962-.393-2.688-1.179l-7.523-6.784v7.458c0 .281-.085.448-.252.505h-6.172c-1.795 0-2.692-.898-2.692-2.69v-31.167c0-.169.168-.254.504-.254h6.175c1.624 0 2.437.897 2.437 2.687v12.35c5.495 4.943 19.152 17.225 19.672 17.746.652.651.456 1.328-.326 1.328z" style="fill:url(#f);stroke:none" transform="matrix(.35278 0 0 -.35278 -71.267 117.822)"/><g clip-path="url(#g)" transform="matrix(.35278 0 0 -.35278 -71.267 117.822)"><path d="M0 0v16.548h3.65v-5.164h3.651V9.302H3.65V0Zm-10.546 8.193c0-1.73 1.056-3.191 2.191-3.191 1.163 0 2.19 1.461 2.19 3.191 0 1.731-1.027 3.163-2.19 3.163-1.135 0-2.191-1.432-2.191-3.163m3.462-11.979H4.435V-5.84H-8.221c-1.459 0-2.513.919-2.513 2.433v4.812h3.65zm2.325 15.846c1.244-.92 2.056-2.326 2.056-3.867 0-2.812-2.542-5.111-5.652-5.111-3.083 0-5.652 2.299-5.652 5.111 0 1.541.812 2.947 2.056 3.867h-2.866v2.054h4.624v2.678h3.65v-2.678h4.623V12.06Z" style="fill:#565354;fill-opacity:1;fill-rule:nonzero;stroke:none" transform="translate(284.616 312.516)"/><path d="M0 0h15.576v-4.921c0-1.243-.407-2.921-.893-3.569h3.516v-2.055h-8.6v-3.597h5.922v-8.112h-3.65v6.057H-.08v2.055h6.029v3.597h-8.435v2.055h13.978c.351.946.433 2.217.433 3.488v2.947H0Z" style="fill:#565354;fill-opacity:1;fill-rule:nonzero;stroke:none" transform="translate(293.538 328.901)"/><path d="M331.447 306.647h-3.648v22.39h3.648zm-18.359 21.66h12.168v-2.055h-4.246v-2.191c0-4.272 2.703-7.597 5.654-8.165l-1.787-1.568c-2.352.189-5.137 2.378-5.705 4.405-.541-2.027-3.354-4.191-5.707-4.405l-1.811 1.568c2.973.568 5.653 3.919 5.653 8.165v2.191h-4.219zM352.377 316.599h-3.652v12.438h3.652zm-3.652-3.732H336.07v2.082h16.307v-8.302h-3.652zm-7.11 15.927v-3.056c0-4.136 2.703-6.949 5.623-7.516l-1.758-1.516c-2.296.19-5.084 2.163-5.732 4.084-.566-1.921-3.434-3.867-5.678-4.084l-1.812 1.516c2.976.567 5.65 3.405 5.65 7.516v3.056z" style="fill:#565354;fill-opacity:1;fill-rule:nonzero;stroke:none"/><path d="M0 0v8.653l-1.189-1.001c-2.057.271-4.409 2.515-4.788 4.38-.351-1.865-2.73-4.082-4.812-4.38l-1.678 1.407c2.731.703 4.68 3.974 4.68 8.193v2.352h-3.192v2.055h9.735v-2.055h-2.947v-2.352c0-3.947 1.757-7.085 4.191-8.031V22.39h3.434v-6.084h1.865v6.084h3.433V0H5.299v14.25H3.434V0Z" style="fill:#565354;fill-opacity:1;fill-rule:nonzero;stroke:none" transform="translate(365.356 306.647)"/><path d="M0 0v16.549h3.648v-4.733h3.653V9.734H3.648V0Zm-7.275-3.759H4.461v-2.082H-8.383c-1.461 0-2.543.919-2.543 2.434v5.055h3.651zm.623 19.956v-3.514c0-4.139 2.703-6.95 5.652-7.491L-2.758 3.65c-2.297.19-5.111 2.163-5.734 4.083-.592-1.92-3.434-3.867-5.705-4.083l-1.785 1.542c2.976.541 5.652 3.408 5.652 7.491v3.514z" style="fill:#565354;fill-opacity:1;fill-rule:nonzero;stroke:none" transform="translate(389.988 312.488)"/><path d="M0 0h-3.246a5.584 5.584 0 0 0 .299-1.757c0-.623-.11-1.244-.324-1.839H0Zm-7.627-16.008H4.461v-2.082H-8.762c-1.459 0-2.515.919-2.515 2.434v5.489h3.65zm-4.162 14.251c0-2.083 1.162-3.786 2.566-3.786 1.434 0 2.625 1.703 2.625 3.786 0 2.082-1.191 3.785-2.625 3.785-1.404 0-2.566-1.703-2.566-3.785M3.65 4.3v-16.549H0v6.625h-4.518a6.496 6.496 0 0 0-4.705-2.001c-3.406 0-6.218 2.622-6.218 5.868 0 3.243 2.812 5.867 6.218 5.867a6.456 6.456 0 0 0 4.787-2.082H0V4.3Z" style="fill:#565354;fill-opacity:1;fill-rule:nonzero;stroke:none" transform="translate(412.188 324.737)"/><path d="M0 0v9.599h-8.408v2.082H5.518c.324.947.404 2.246.404 3.489v5.029H-6.652v2.055H9.572v-6.976c0-1.245-.377-2.947-.81-3.597h3.273V9.599H3.65V0Z" style="fill:#565354;fill-opacity:1;fill-rule:nonzero;stroke:none" transform="translate(426.111 306.647)"/><path d="M0 0v-17.035h-3.65v2.055h-4.922v1.811h4.922V0Zm-14.631-4.517c0-1.512.895-2.648 2.002-2.648 1.082 0 1.977 1.136 1.977 2.648 0 1.515-.895 2.651-1.977 2.651-1.107 0-2.002-1.136-2.002-2.651m2.867-15.791H.756v-2.082h-13.629c-1.459 0-2.539.919-2.539 2.434v3.704h3.648zm4.625 15.791c0-2.568-2.435-4.595-5.49-4.595-3.08 0-5.516 2.027-5.516 4.595 0 2.543 2.436 4.624 5.516 4.624 3.055 0 5.49-2.081 5.49-4.624m1.893-5.379v-1.949h-5.598v-3.298h-3.65v3.298h-4.975v1.949z" style="fill:#565354;fill-opacity:1;fill-rule:nonzero;stroke:none" transform="translate(458.29 329.037)"/><path d="m0 0-2.399 4.191L-4.058 2.2V0h-.839v7.873h.839V3.351l3.671 4.522H.642l-2.477-3.04L.996 0Z" style="fill:#565354;fill-opacity:1;fill-rule:nonzero;stroke:none" transform="translate(278.085 293.212)"/><path d="M0 0a1.387 1.387 0 0 1-.996.398c-.387 0-.729-.142-.984-.398-.397-.397-.442-1.072-.442-1.681 0-.607.045-1.281.442-1.679.255-.255.597-.399.984-.399.388 0 .742.144.996.399.398.398.432 1.072.432 1.679C.432-1.072.398-.397 0 0m.564-3.848c-.376-.375-.896-.619-1.56-.619-.662 0-1.182.244-1.559.619-.552.565-.663 1.327-.663 2.167 0 .842.111 1.604.663 2.168.377.376.897.62 1.559.62.664 0 1.184-.244 1.56-.62.553-.564.664-1.326.664-2.168 0-.84-.111-1.602-.664-2.167" style="fill:#565354;fill-opacity:1;fill-rule:nonzero;stroke:none" transform="translate(283.143 297.612)"/><path d="M0 0c-.3.3-.521.398-.941.398-.795 0-1.305-.629-1.305-1.459V-4.4h-.795v5.44h.795V.377c.299.452.896.73 1.526.73.521 0 .917-.122 1.306-.509z" style="fill:#565354;fill-opacity:1;fill-rule:nonzero;stroke:none" transform="translate(289.096 297.612)"/><path d="M0 0c-.21.498-.697.819-1.272.819-.575 0-1.063-.321-1.272-.819-.121-.298-.144-.464-.166-.907H.165C.144-.464.122-.298 0 0m-2.71-1.504c0-1.193.564-1.879 1.604-1.879.629 0 .996.188 1.426.619l.541-.475C.31-3.792-.2-4.08-1.128-4.08c-1.438 0-2.379.862-2.379 2.786 0 1.758.853 2.788 2.235 2.788C.132 1.494.962.477.962-1.139v-.365z" style="fill:#565354;fill-opacity:1;fill-rule:nonzero;stroke:none" transform="translate(293.519 297.226)"/><path d="M0 0h-1.527c-.818 0-1.216-.332-1.216-.961 0-.631.387-.93 1.249-.93.465 0 .874.035 1.217.365.187.177.277.487.277.941Zm0-2.51v.521c-.443-.444-.841-.587-1.57-.587-.753 0-1.195.143-1.538.499-.265.264-.409.674-.409 1.104 0 .952.664 1.57 1.881 1.57H0v.52c0 .797-.398 1.194-1.394 1.194-.695 0-1.051-.165-1.371-.619l-.541.498c.486.63 1.039.808 1.924.808 1.458 0 2.177-.631 2.177-1.814V-2.51Z" style="fill:#565354;fill-opacity:1;fill-rule:nonzero;stroke:none" transform="translate(299.238 295.722)"/><path d="M304.826 301.085h.84v-7.873h-.84z" style="fill:#565354;fill-opacity:1;fill-rule:nonzero;stroke:none"/><path d="M0 0v3.351c0 .962-.52 1.448-1.338 1.448-.818 0-1.35-.498-1.35-1.448V0h-.796v5.44h.796v-.597c.389.443.918.665 1.526.665.588 0 1.062-.178 1.394-.51.387-.376.565-.885.565-1.514V0Z" style="fill:#565354;fill-opacity:1;fill-rule:nonzero;stroke:none" transform="translate(311.264 293.212)"/><path d="M0 0c-.916 0-1.637.211-2.232.785l.529.531C-1.271.862-.686.686-.01.686c.895 0 1.449.32 1.449.961 0 .477-.279.742-.908.797l-.896.077c-1.061.088-1.625.565-1.625 1.459 0 .997.842 1.594 2.002 1.594.773 0 1.47-.188 1.957-.587l-.52-.52c-.388.3-.885.432-1.449.432-.795 0-1.215-.342-1.215-.895 0-.466.264-.741.949-.797l.875-.078c.95-.088 1.604-.452 1.604-1.47C2.213.609 1.316 0 0 0" style="fill:#565354;fill-opacity:1;fill-rule:nonzero;stroke:none" transform="translate(315.69 293.146)"/><path d="M0 0c-.926 0-1.391.653-1.391 1.46v3.339h-.687v.607h.687V7.11h.795V5.406h1.16v-.607h-1.16V1.482c0-.499.233-.796.741-.796h.419V0Z" style="fill:#565354;fill-opacity:1;fill-rule:nonzero;stroke:none" transform="translate(320.856 293.212)"/><path d="M322.982 298.652h.795v-5.44h-.795zm-.044 2.445h.895v-.896h-.895z" style="fill:#565354;fill-opacity:1;fill-rule:nonzero;stroke:none"/><path d="M0 0c-.93 0-1.395.653-1.395 1.46v3.339h-.685v.607h.685V7.11H-.6V5.406H.564v-.607H-.6V1.482c0-.499.233-.796.743-.796h.421V0Z" style="fill:#565354;fill-opacity:1;fill-rule:nonzero;stroke:none" transform="translate(327.285 293.212)"/><path d="M0 0v.608C-.387.166-.93-.066-1.537-.066c-.586 0-1.072.177-1.404.508-.387.376-.553.896-.553 1.527V5.44h.797V2.09c0-.962.508-1.448 1.326-1.448.818 0 1.359.497 1.359 1.448v3.35h.797V0Z" style="fill:#565354;fill-opacity:1;fill-rule:nonzero;stroke:none" transform="translate(332.848 293.212)"/><path d="M0 0c-.928 0-1.393.653-1.393 1.46v3.339h-.687v.607h.687V7.11h.795V5.406H.563v-.607H-.598V1.482c0-.499.233-.796.743-.796h.418V0Z" style="fill:#565354;fill-opacity:1;fill-rule:nonzero;stroke:none" transform="translate(337.13 293.212)"/><path d="M0 0c-.211.498-.697.819-1.271.819-.575 0-1.065-.321-1.274-.819-.121-.298-.143-.464-.166-.907H.166C.145-.464.121-.298 0 0m-2.711-1.504c0-1.193.565-1.879 1.606-1.879.628 0 .996.188 1.425.619l.541-.475c-.552-.553-1.06-.841-1.988-.841-1.439 0-2.379.862-2.379 2.786 0 1.758.852 2.788 2.235 2.788C.131 1.494.963.477.963-1.139v-.365z" style="fill:#565354;fill-opacity:1;fill-rule:nonzero;stroke:none" transform="translate(342.373 297.226)"/><path d="M0 0a1.382 1.382 0 0 1-.996.398c-.385 0-.727-.142-.983-.398-.4-.397-.443-1.072-.443-1.681 0-.607.043-1.281.443-1.679a1.37 1.37 0 0 1 .983-.399c.389 0 .744.144.996.399.398.398.432 1.072.432 1.679C.432-1.072.398-.397 0 0m.564-3.848c-.376-.375-.896-.619-1.56-.619-.66 0-1.182.244-1.557.619-.552.565-.666 1.327-.666 2.167 0 .842.114 1.604.666 2.168.375.376.897.62 1.557.62.664 0 1.184-.244 1.56-.62.553-.564.665-1.326.665-2.168 0-.84-.112-1.602-.665-2.167" style="fill:#565354;fill-opacity:1;fill-rule:nonzero;stroke:none" transform="translate(350.67 297.612)"/><path d="M0 0v-4.799h-.797V0h-.693v.607h.693v1.031c0 .806.455 1.458 1.383 1.458h.574v-.684H.73c-.507 0-.73-.3-.73-.797V.607h1.16V0Z" style="fill:#565354;fill-opacity:1;fill-rule:nonzero;stroke:none" transform="translate(354.555 298.01)"/><path d="M359.908 301.085h.842v-7.873h-.842z" style="fill:#565354;fill-opacity:1;fill-rule:nonzero;stroke:none"/><path d="M0 0v3.351c0 .962-.52 1.448-1.338 1.448-.818 0-1.348-.498-1.348-1.448V0h-.796v5.44h.796v-.597c.387.443.918.665 1.526.665.588 0 1.062-.178 1.392-.51.389-.376.565-.885.565-1.514V0Z" style="fill:#565354;fill-opacity:1;fill-rule:nonzero;stroke:none" transform="translate(366.346 293.212)"/><path d="M0 0c-.926 0-1.391.653-1.391 1.46v3.339h-.683v.607h.683V7.11h.795V5.406H.568v-.607H-.596V1.482c0-.499.235-.796.742-.796h.422V0Z" style="fill:#565354;fill-opacity:1;fill-rule:nonzero;stroke:none" transform="translate(370.582 293.212)"/><path d="M0 0c-.211.498-.695.819-1.273.819-.575 0-1.061-.321-1.272-.819-.121-.298-.143-.464-.164-.907H.166C.143-.464.121-.298 0 0m-2.709-1.504c0-1.193.564-1.879 1.604-1.879.628 0 .994.188 1.425.619l.541-.475c-.55-.553-1.06-.841-1.99-.841-1.437 0-2.377.862-2.377 2.786 0 1.758.852 2.788 2.233 2.788C.131 1.494.961.477.961-1.139v-.365z" style="fill:#565354;fill-opacity:1;fill-rule:nonzero;stroke:none" transform="translate(375.828 297.226)"/><path d="M0 0c-.951 0-1.383.619-1.383 1.449v6.424h.797V1.482c0-.53.178-.796.729-.796h.433V0Z" style="fill:#565354;fill-opacity:1;fill-rule:nonzero;stroke:none" transform="translate(379.822 293.212)"/><path d="M0 0c-.951 0-1.383.619-1.383 1.449v6.424h.797V1.482c0-.53.176-.796.731-.796h.429V0Z" style="fill:#565354;fill-opacity:1;fill-rule:nonzero;stroke:none" transform="translate(383.086 293.212)"/><path d="M0 0a1.356 1.356 0 0 1-1.273.819C-1.85.819-2.336.498-2.545 0c-.123-.298-.144-.464-.166-.907H.164C.143-.464.121-.298 0 0m-2.711-1.504c0-1.193.565-1.879 1.606-1.879.628 0 .992.188 1.423.619l.543-.475c-.552-.553-1.062-.841-1.99-.841-1.437 0-2.379.862-2.379 2.786 0 1.758.854 2.788 2.235 2.788C.131 1.494.961.477.961-1.139v-.365z" style="fill:#565354;fill-opacity:1;fill-rule:nonzero;stroke:none" transform="translate(387.92 297.226)"/><path d="M0 0c-1.373 0-2.412.929-2.412 2.786 0 1.859 1.039 2.788 2.412 2.788.75 0 1.227-.2 1.789-.807l-.541-.509c-.41.453-.728.607-1.248.607-.531 0-.975-.21-1.262-.619-.254-.353-.355-.773-.355-1.46 0-.684.101-1.105.355-1.458C-.975.919-.531.708 0 .708c.52 0 .838.166 1.248.62l.541-.52C1.227.199.75 0 0 0" style="fill:#565354;fill-opacity:1;fill-rule:nonzero;stroke:none" transform="translate(392.666 293.146)"/><path d="M0 0c-.93 0-1.395.653-1.395 1.46v3.339h-.683v.607h.683V7.11h.797V5.406H.564v-.607H-.598V1.482c0-.499.233-.796.741-.796h.421V0Z" style="fill:#565354;fill-opacity:1;fill-rule:nonzero;stroke:none" transform="translate(397.478 293.212)"/><path d="M0 0v.608C-.387.166-.93-.066-1.537-.066c-.586 0-1.07.177-1.404.508-.389.376-.551.896-.551 1.527V5.44h.793V2.09c0-.962.51-1.448 1.328-1.448.818 0 1.361.497 1.361 1.448v3.35h.795V0Z" style="fill:#565354;fill-opacity:1;fill-rule:nonzero;stroke:none" transform="translate(403.041 293.212)"/><path d="M0 0h-1.527c-.817 0-1.215-.332-1.215-.961 0-.631.388-.93 1.25-.93.465 0 .873.035 1.217.365.185.177.275.487.275.941Zm0-2.51v.521c-.441-.444-.84-.587-1.57-.587-.752 0-1.194.143-1.537.499-.264.264-.409.674-.409 1.104 0 .952.662 1.57 1.881 1.57H0v.52c0 .797-.398 1.194-1.393 1.194-.697 0-1.052-.165-1.371-.619l-.543.498c.487.63 1.041.808 1.924.808 1.461 0 2.178-.631 2.178-1.814V-2.51Z" style="fill:#565354;fill-opacity:1;fill-rule:nonzero;stroke:none" transform="translate(408.883 295.722)"/><path d="M0 0c-.951 0-1.383.619-1.383 1.449v6.424h.797V1.482c0-.53.178-.796.731-.796h.429V0Z" style="fill:#565354;fill-opacity:1;fill-rule:nonzero;stroke:none" transform="translate(412.955 293.212)"/><path d="M0 0h-2.012v-3.129H0c.982 0 1.67.53 1.67 1.569C1.67-.52.982 0 0 0m.076-3.881h-2.088v-3.24h-.842V.752h2.93c1.44 0 2.434-.896 2.434-2.312 0-1.415-.994-2.321-2.434-2.321" style="fill:#565354;fill-opacity:1;fill-rule:nonzero;stroke:none" transform="translate(420.588 300.333)"/><path d="M0 0c-.297.3-.52.398-.941.398-.793 0-1.303-.629-1.303-1.459V-4.4h-.797v5.44h.797V.377c.299.452.894.73 1.525.73.522 0 .918-.122 1.305-.509z" style="fill:#565354;fill-opacity:1;fill-rule:nonzero;stroke:none" transform="translate(427.58 297.612)"/><path d="M0 0a1.384 1.384 0 0 1-.994.398c-.387 0-.731-.142-.983-.398-.4-.397-.443-1.072-.443-1.681 0-.607.043-1.281.443-1.679a1.36 1.36 0 0 1 .983-.399c.387 0 .74.144.994.399.398.398.432 1.072.432 1.679C.432-1.072.398-.397 0 0m.564-3.848c-.375-.375-.896-.619-1.558-.619-.664 0-1.184.244-1.561.619-.552.565-.662 1.327-.662 2.167 0 .842.11 1.604.662 2.168.377.376.897.62 1.561.62.662 0 1.183-.244 1.558-.62.553-.564.665-1.326.665-2.168 0-.84-.112-1.602-.665-2.167" style="fill:#565354;fill-opacity:1;fill-rule:nonzero;stroke:none" transform="translate(431.727 297.612)"/><path d="M0 0c-1.184 0-1.373-1.017-1.373-2.079 0-1.061.189-2.078 1.373-2.078 1.182 0 1.361 1.017 1.361 2.078C1.361-1.017 1.182 0 0 0m1.49-4.39c-.285-.287-.771-.475-1.324-.475-.598 0-1.098.143-1.539.708v-3.074h-.795V.642h.795V0c.441.575.941.709 1.539.709.553 0 1.039-.188 1.324-.477.555-.553.664-1.459.664-2.311 0-.851-.109-1.758-.664-2.311" style="fill:#565354;fill-opacity:1;fill-rule:nonzero;stroke:none" transform="translate(436.807 298.01)"/><path d="M0 0c-.209.498-.697.819-1.271.819-.577 0-1.063-.321-1.272-.819-.121-.298-.143-.464-.168-.907H.166C.146-.464.121-.298 0 0m-2.711-1.504c0-1.193.565-1.879 1.606-1.879.63 0 .996.188 1.425.619l.543-.475c-.554-.553-1.06-.841-1.99-.841-1.437 0-2.377.862-2.377 2.786 0 1.758.852 2.788 2.233 2.788C.133 1.494.963.477.963-1.139v-.365z" style="fill:#565354;fill-opacity:1;fill-rule:nonzero;stroke:none" transform="translate(443.852 297.226)"/><path d="M0 0c-.301.3-.521.398-.943.398-.793 0-1.303-.629-1.303-1.459V-4.4h-.797v5.44h.797V.377c.297.452.894.73 1.525.73.522 0 .918-.122 1.305-.509z" style="fill:#565354;fill-opacity:1;fill-rule:nonzero;stroke:none" transform="translate(449.53 297.612)"/><path d="M0 0c-.93 0-1.393.653-1.393 1.46v3.339h-.685v.607h.685V7.11H-.6V5.406H.564v-.607H-.6V1.482c0-.499.235-.796.745-.796h.419V0Z" style="fill:#565354;fill-opacity:1;fill-rule:nonzero;stroke:none" transform="translate(452.648 293.212)"/><path d="M0 0c-.107-.298-.23-.498-.387-.642-.285-.276-.674-.376-1.06-.376h-.344v.707h.244c.553 0 .719.178.897.675l.386 1.063-1.957 5.329h.862L.133 2.389l1.482 4.367h.864z" style="fill:#565354;fill-opacity:1;fill-rule:nonzero;stroke:none" transform="translate(456.121 291.897)"/></g></svg>