<svg xmlns="http://www.w3.org/2000/svg" width="143.5587pt" height="26.6406pt" viewBox="0 0 143.5587 26.640601"><path fill="#cb7640" d="m19.152 14.062-.135.054a32.325 32.325 0 0 1-4.333 1.393l-.088.02 4.293 5.119.11-.08c.614-.43 1.273-.807 1.965-1.125l.124-.057z"/><path fill="#faa725" d="m14.595 15.53.09-.022a32.318 32.318 0 0 0 4.332-1.392l.134-.054-4.33-11.897-.144.058a30.735 30.735 0 0 0-7.436 4.305l-.12.094z"/><path fill="#386fad" d="m27.343 10.1-.203.08v8.128l.136.012c.74.064 1.49.2 2.229.402l.13.035 3.729-10.246-.088.012a24.431 24.431 0 0 0-5.933 1.576"/><path fill="#6b94cd" d="m27.14 10.18.203-.08a24.386 24.386 0 0 1 5.933-1.577l.088-.012 2.539-6.973-.146-.048A30.749 30.749 0 0 0 27.293.006L27.14 0v.154z"/><path fill="#4c943b" d="M23.882 11.768c-.95.537-1.927 1.04-2.899 1.495l-.148.07 1.975 5.424.133-.035a12.356 12.356 0 0 1 2.228-.402l.136-.012v-7.294l-.082.041c-.476.24-.914.471-1.343.713"/><path fill="#8ec744" d="m25.307 0-.154.006a30.702 30.702 0 0 0-8.465 1.485l-.144.047 4.292 11.794.147-.069a42.309 42.309 0 0 0 2.899-1.495c.428-.242.867-.474 1.343-.713l.082-.041z"/><path fill="#bb2125" d="m12.546 15.942-.26.04c-4.285.654-8.343.237-12.063-1.239l-.009-.003 15.645 9.032.076-.11c.434-.627.923-1.212 1.453-1.739l.097-.097z"/><path fill="#f3735d" d="m5.717 7.803-.116.102a30.868 30.868 0 0 0-5.519 6.581l-.082.13.214.124.01.003c3.719 1.477 7.778 1.894 12.062 1.24l.26-.04h.001z"/><path fill="#0257a0" d="m31.358 19.385.125.058c.69.317 1.352.695 1.963 1.126l.11.078 9.347-11.136a28.583 28.583 0 0 0-7.531-1.153z"/><path fill="#8d1353" d="m34.961 21.827.096.096c.533.53 1.021 1.114 1.453 1.738l.078.11 15.86-9.156c-2.209-1.878-4.807-3.403-7.677-4.48z"/><path fill="#4287c7" d="M45.205 6.528a30.774 30.774 0 0 0-7.437-4.305l-.141-.057-2.255 6.192c2.627.051 5.157.453 7.53 1.154l2.423-2.889z"/><path fill="#bf4b85" d="M52.298 14.381a30.867 30.867 0 0 0-5.455-6.476l-.114-.102-1.958 2.333c2.871 1.075 5.467 2.601 7.676 4.479l.002-.001z"/><path fill="#6a4f52" d="M64.713 7.181c.497.022 1.211.133 1.621 1.038h.734V6.257h-8.533v.635s1.1.735 1.1 1.345v8.467h2.367v-4.828h4.024V10.85h-4.024V7.181zM72.798 6.012c-1.626 0-2.928.492-3.868 1.465-.94.97-1.416 2.31-1.416 3.986 0 1.671.477 3.012 1.416 3.985.94.972 2.242 1.466 3.868 1.466 1.62 0 2.92-.494 3.86-1.466.939-.973 1.417-2.313 1.417-3.985 0-1.676-.478-3.019-1.416-3.986-.94-.973-2.24-1.465-3.861-1.465m-2.084 2.023c.468-.739 1.148-1.099 2.08-1.099.937 0 1.618.36 2.083 1.1.47.745.707 1.89.707 3.402 0 1.53-.237 2.686-.707 3.442-.465.747-1.146 1.11-2.082 1.11-.933 0-1.613-.363-2.081-1.11-.472-.756-.71-1.912-.71-3.442 0-1.513.238-2.657.71-3.403M84.53 6.012c-1.626 0-2.927.492-3.867 1.465-.938.967-1.416 2.31-1.416 3.986 0 1.673.478 3.012 1.416 3.985.94.972 2.243 1.466 3.867 1.466 1.622 0 2.92-.494 3.86-1.466.94-.973 1.418-2.314 1.418-3.985 0-1.676-.477-3.017-1.417-3.986-.94-.973-2.24-1.465-3.861-1.465m-2.082 2.023c.467-.739 1.148-1.099 2.079-1.099.938 0 1.62.36 2.085 1.1.468.745.706 1.89.706 3.402 0 1.528-.238 2.686-.707 3.442-.464.747-1.145 1.11-2.084 1.11-.932 0-1.613-.363-2.08-1.11-.47-.756-.711-1.912-.711-3.442 0-1.513.24-2.658.712-3.403M117.026 6.012c-1.626 0-2.928.492-3.868 1.465-.94.97-1.416 2.31-1.416 3.986 0 1.671.477 3.012 1.416 3.985.94.972 2.242 1.466 3.868 1.466 1.62 0 2.92-.494 3.86-1.466.94-.973 1.416-2.314 1.416-3.985 0-1.676-.476-3.017-1.415-3.986-.94-.973-2.241-1.465-3.861-1.465m-2.083 2.023c.466-.739 1.147-1.099 2.08-1.099.937 0 1.619.36 2.082 1.1.47.746.709 1.892.709 3.402 0 1.528-.238 2.684-.71 3.442-.462.747-1.143 1.11-2.081 1.11-.933 0-1.614-.363-2.08-1.11-.472-.758-.712-1.916-.712-3.442 0-1.51.24-2.655.712-3.403M126.542 15.671V8.358l.021-2.1-.122-.001h-3.367v.635s1.1.735 1.1 1.346v8.432h6.99v-.999zM134.53 6.257h-3.346v.635s1.1.735 1.1 1.345v8.401h2.366V6.258ZM99.63 7.56c-.873-.864-2.133-1.303-3.744-1.303h-5.43v.635s1.1.735 1.1 1.346v8.44h4.487c1.482 0 2.683-.497 3.568-1.477.881-.977 1.33-2.3 1.33-3.933 0-1.594-.44-2.842-1.31-3.707m-1.977 7.052c-.52.725-1.319 1.09-2.372 1.09h-1.36V7.189h.647c1.413 0 2.424.309 3.004.918.584.613.88 1.672.88 3.15 0 1.49-.269 2.62-.799 3.357M142.958 12.018h-.002c-.397-.462-1.111-.972-2.18-1.563l-.716-.396c-.567-.313-.955-.586-1.152-.813a1.192 1.192 0 0 1-.282-.806c0-.427.144-.778.439-1.072.293-.29.642-.432 1.064-.432.379 0 1.219.243 1.819.762l.103.087 1-1.267-.174-.061c-1.081-.295-2.056-.444-2.901-.444-1.094 0-1.983.273-2.646.812-.67.545-1.01 1.275-1.01 2.172 0 1.142.914 2.206 2.718 3.16l.708.37c.569.302.954.579 1.147.819.188.237.282.558.282.956 0 .504-.165.915-.49 1.224-.33.312-.75.465-1.287.465-.55 0-1.6-.434-2.037-.775l-.101-.078-1.082 1.366.187.04c1.135.245 2.156.37 3.033.37 1.255 0 2.27-.285 3.02-.854.757-.575 1.14-1.352 1.14-2.313 0-.676-.201-1.257-.6-1.73M110.788 9.134c-.115-.856-.473-1.529-1.076-2.003-.732-.579-1.836-.87-3.284-.87H101.708v.633s1.1.735 1.1 1.346v8.45h2.27v-3.784h1.35c1.448 0 2.552-.293 3.284-.87.603-.476.96-1.149 1.076-2.005.07-.573 0-.897 0-.897m-2.926 2.255c-.365.394-.924.594-1.664.594h-1.12v-4.8h1.12c.74 0 1.299.2 1.664.593.365.395.55 1.002.55 1.806s-.185 1.413-.55 1.807M66.923 22.788c0 .205-.036.392-.108.562-.072.17-.175.317-.311.439a1.42 1.42 0 0 1-.493.285 1.99 1.99 0 0 1-.651.1c-.24 0-.457-.033-.651-.1a1.435 1.435 0 0 1-.494-.285 1.234 1.234 0 0 1-.311-.44 1.426 1.426 0 0 1-.108-.561c0-.28.087-.52.262-.72h-.046c-.244-.008-.421-.045-.53-.111a.315.315 0 0 1-.163-.288v-.104c0-.11.056-.164.17-.164h3.604c.109 0 .164.057.164.17v.327c0 .114-.055.17-.164.17h-.438a.99.99 0 0 1 .203.334c.043.122.065.25.065.386m-.42-1.956c0 .113-.053.17-.162.17h-1.413c-.271 0-.467-.035-.59-.105a.329.329 0 0 1-.182-.301v-.111c0-.11.057-.163.17-.163h2.015c.109 0 .163.057.163.17zm1.866 5.383a5.79 5.79 0 0 1-.69.112 14.86 14.86 0 0 1-1.786.088 9.196 9.196 0 0 1-.801-.036 1.526 1.526 0 0 1-.338-.068.664.664 0 0 1-.235-.138.516.516 0 0 1-.138-.225 1.183 1.183 0 0 1-.042-.341v-.928c0-.114.055-.171.164-.171h.562c.109 0 .164.057.164.17v.805c0 .122.059.19.177.203.178.022.382.035.61.042.23.007.47.007.724 0a16.147 16.147 0 0 0 1.537-.114c.096-.013.173.008.229.062a.322.322 0 0 1 .102.19.335.335 0 0 1-.043.213.285.285 0 0 1-.196.136m-3.696-3.427c0 .218.06.392.183.523.122.13.29.197.504.197.213 0 .38-.066.504-.197a.74.74 0 0 0 .183-.523.758.758 0 0 0-.177-.513c-.118-.138-.288-.207-.51-.207-.223 0-.393.069-.511.207a.763.763 0 0 0-.176.513m4.553-.072c0 .114-.055.17-.164.17h-.66v1.158c0 .323-.04.549-.115.68a.362.362 0 0 1-.33.197h-.268c-.11 0-.164-.057-.164-.17v-4.155c0-.113.055-.17.164-.17h.549c.109 0 .164.057.164.17v1.597h.66c.109 0 .164.056.164.17zM75.163 23.108c0 .114-.054.17-.163.17h-2.29v.838h1.597c.108 0 .163.056.163.17v1.282c0 .322-.038.55-.114.68a.36.36 0 0 1-.33.196h-.268c-.11 0-.164-.057-.164-.17v-1.49h-2.748c-.27 0-.467-.034-.589-.1a.313.313 0 0 1-.182-.294v-.11c0-.11.055-.164.168-.164h1.59v-.838h-1.615c-.27 0-.467-.035-.589-.105a.328.328 0 0 1-.182-.3v-.099c0-.108.055-.163.17-.163h3.865c.022-.14.04-.29.057-.452.014-.16.021-.307.021-.438v-.53h-2.648c-.272 0-.468-.035-.59-.104a.331.331 0 0 1-.182-.302v-.097c0-.109.056-.164.17-.164h3.963c.11 0 .165.057.165.17v.838c0 .173-.013.355-.037.546-.023.19-.06.367-.107.533h.705c.11 0 .165.057.165.17zM77.883 21.158c0 .267-.042.515-.125.746.171.214.369.39.596.53.227.14.464.251.713.334.1.035.176.084.225.147.05.064.08.132.089.206a.47.47 0 0 1-.026.22.419.419 0 0 1-.596.226 2.864 2.864 0 0 1-.687-.443 3.8 3.8 0 0 1-.601-.65c-.349.51-.892.9-1.629 1.17a.301.301 0 0 1-.229 0 .273.273 0 0 1-.154-.333.306.306 0 0 1 .154-.177c.92-.528 1.38-1.186 1.38-1.976v-.497c0-.113.055-.17.164-.17h.562c.109 0 .164.057.164.17zm1.903 3.644h-2.524c-.271 0-.468-.034-.589-.105a.33.33 0 0 1-.184-.3v-.125c0-.109.057-.163.17-.163h3.84c.109 0 .164.057.164.17v1.29c0 .321-.038.548-.115.68a.36.36 0 0 1-.33.195h-.268c-.109 0-.164-.056-.164-.17zm0-4.206c0-.113.055-.17.164-.17h.549c.109 0 .164.057.164.17v2.277c0 .322-.038.55-.115.68a.363.363 0 0 1-.33.196h-.268c-.109 0-.164-.057-.164-.17zM84.68 26.307a13.61 13.61 0 0 1-.716.062c-.248.015-.495.027-.742.036-.246.01-.468.011-.664.006-.261-.004-.452-.066-.572-.186-.12-.12-.18-.315-.18-.586v-1.125c0-.113.055-.17.163-.17h1.564v-.529h-1.65c-.27 0-.465-.033-.587-.099a.313.313 0 0 1-.183-.294v-.11c0-.11.056-.165.17-.165h5.384c.108 0 .163.057.163.17v.327c0 .114-.055.171-.163.171H84.41v.53h1.563c.109 0 .164.056.164.17v1.02c0 .323-.04.55-.115.68a.362.362 0 0 1-.33.196h-.268c-.11 0-.164-.057-.164-.169v-.02c-.157.03-.35.06-.58.085m-2.462-5.116c-.27 0-.462-.035-.576-.105a.332.332 0 0 1-.17-.3v-.098c0-.109.057-.164.17-.164h4.665c.109 0 .163.057.163.17v.327c0 .114-.054.17-.163.17h-.661v.504c0 .21-.054.36-.164.452h.792c.109 0 .164.052.164.156v.327a.215.215 0 0 1-.04.131c-.026.035-.067.052-.124.052h-3.997c-.271 0-.467-.032-.59-.097a.317.317 0 0 1-.182-.295v-.11c0-.11.057-.164.17-.164h.74a.21.21 0 0 1-.092-.122.482.482 0 0 1-.026-.153v-.386c0-.06.013-.122.039-.183a.178.178 0 0 1 .13-.112zm.64 4.553c.158.01.34.012.547.01a22.104 22.104 0 0 0 1.21-.049c.186-.013.335-.029.449-.046.13-.018.196-.102.196-.255v-.392h-2.577v.55c0 .117.059.178.176.182m1.855-3.696a.307.307 0 0 0 .055-.183v-.674h-1.406c-.07 0-.12.021-.147.063a.242.242 0 0 0-.043.14v.57c0 .095.033.156.098.183h1.289a.242.242 0 0 0 .154-.099M89.472 21.29c0 .28-.04.538-.117.778.165.231.36.425.585.582.224.157.461.282.71.373a.435.435 0 0 1 .215.154.41.41 0 0 1 .079.212.46.46 0 0 1-.174.39.402.402 0 0 1-.209.081.445.445 0 0 1-.258-.058 2.991 2.991 0 0 1-.664-.465 3.602 3.602 0 0 1-.573-.667c-.336.51-.867.915-1.596 1.217-.087.035-.163.037-.229.006a.292.292 0 0 1-.143-.134.268.268 0 0 1-.02-.196c.017-.072.067-.134.15-.187.436-.26.771-.564 1.004-.909.234-.344.35-.737.35-1.178v-.614c0-.114.055-.17.164-.17h.563c.108 0 .163.056.163.17zm2.61 4.912a5.79 5.79 0 0 1-.69.112 15.507 15.507 0 0 1-1.786.088 9.196 9.196 0 0 1-.801-.036 1.458 1.458 0 0 1-.337-.069.644.644 0 0 1-.236-.137.503.503 0 0 1-.137-.226 1.18 1.18 0 0 1-.042-.34v-1.138c0-.113.054-.17.163-.17h.562c.11 0 .164.057.164.17v1.014c0 .122.059.19.177.202.178.022.383.037.611.043a14.514 14.514 0 0 0 1.498-.039c.264-.02.518-.045.763-.075.095-.014.172.007.229.061a.318.318 0 0 1 .058.402.281.281 0 0 1-.196.138m.857-3.93c0 .112-.055.17-.163.17h-.661v1.38c0 .322-.038.548-.115.68a.362.362 0 0 1-.33.196h-.268c-.109 0-.164-.057-.164-.17v-3.932c0-.113.055-.17.164-.17h.549c.109 0 .164.057.164.17v1.151h.661c.108 0 .163.057.163.171zM93.271 21.924c0-.23.038-.442.115-.63.076-.19.186-.353.33-.486.144-.133.32-.235.526-.307.208-.072.444-.108.71-.108.458 0 .827.104 1.11.311.28.207.458.49.532.846h.844v-.955c0-.112.055-.169.163-.169h.55c.11 0 .163.057.163.17v2.06c0 .323-.038.55-.114.681a.36.36 0 0 1-.33.196h-.269c-.108 0-.163-.057-.163-.17v-1.118h-.837c-.062.37-.233.664-.514.883-.28.218-.66.327-1.135.327-.266 0-.502-.036-.71-.108a1.48 1.48 0 0 1-.526-.308 1.32 1.32 0 0 1-.33-.484 1.66 1.66 0 0 1-.115-.63m.877 0c0 .265.071.471.215.617.144.146.34.22.59.22.247 0 .444-.074.588-.22.144-.146.216-.352.216-.618s-.072-.472-.216-.618c-.144-.146-.34-.22-.589-.22-.249 0-.445.074-.589.22-.144.146-.215.352-.215.618m3.29 3.18h-1.394c-.27 0-.466-.034-.588-.099a.316.316 0 0 1-.183-.295v-.11c0-.11.056-.164.17-.164h1.995v-.406c0-.113.055-.17.163-.17h.55c.11 0 .163.057.163.17v1.504c0 .324-.038.55-.114.681a.36.36 0 0 1-.33.196h-.269c-.108 0-.163-.056-.163-.169v-.033c-.153.03-.332.058-.54.085a16.14 16.14 0 0 1-1.315.111c-.22.01-.42.011-.598.006-.262-.004-.453-.067-.572-.186-.12-.12-.18-.315-.18-.586V24.03c0-.113.054-.17.163-.17h.55c.108 0 .163.057.163.17v1.518c0 .117.06.18.177.183.157.01.33.011.52.006.19-.004.376-.01.56-.019.182-.009.352-.02.51-.036a3.72 3.72 0 0 0 .366-.049c.131-.026.196-.11.196-.255zM100.154 22.205c-.27 0-.467-.035-.589-.105a.328.328 0 0 1-.183-.3v-.072c0-.109.057-.164.171-.164h2.145c.183 0 .358-.002.524-.007.165-.004.318-.02.457-.052a.333.333 0 0 0 .157-.078.187.187 0 0 0 .066-.145v-.143h-2.65c-.27 0-.466-.035-.588-.105a.33.33 0 0 1-.184-.3v-.073c0-.109.057-.163.17-.163h3.96c.108 0 .162.057.162.17v.93a3.9 3.9 0 0 1-.042.561 4.637 4.637 0 0 1-.114.543h.7c.11 0 .163.057.163.171v.3c0 .114-.054.17-.163.17H99.54c-.27 0-.466-.03-.589-.09a.303.303 0 0 1-.183-.289v-.098c0-.109.057-.164.171-.164h3.88a5.409 5.409 0 0 0 .078-.726.25.25 0 0 1-.112.09 1.12 1.12 0 0 1-.183.06 2.041 2.041 0 0 1-.262.04c-.096.01-.195.016-.298.023a7.793 7.793 0 0 1-.598.016zm3.54 4.043c-.12.03-.269.058-.442.082a12.815 12.815 0 0 1-1.21.101 21.352 21.352 0 0 1-1.283.013 5.496 5.496 0 0 1-.526-.033 1.516 1.516 0 0 1-.337-.068.656.656 0 0 1-.235-.138.498.498 0 0 1-.138-.225 1.147 1.147 0 0 1-.043-.34v-.68c0-.115.055-.17.164-.17h3.251v-.348h-2.643c-.27 0-.466-.028-.588-.085a.29.29 0 0 1-.184-.28v-.119c0-.056.014-.092.043-.108a.28.28 0 0 1 .127-.023h3.953c.056 0 .097.01.124.03.025.02.038.055.038.107v1.257c0 .113-.054.17-.162.17h-3.246v.183c0 .122.06.19.177.203.178.021.393.036.644.042a17.437 17.437 0 0 0 2.425-.114c.095-.013.171.004.228.052a.268.268 0 0 1 .058.363.3.3 0 0 1-.195.128M108.14 24.253c.106-.013.188.01.247.065a.339.339 0 0 1 .104.201.364.364 0 0 1-.042.227.268.268 0 0 1-.203.136 5.521 5.521 0 0 1-.573.085c-.215.021-.44.038-.67.052-.231.013-.463.02-.693.02-.231 0-.443-.01-.635-.027a1.648 1.648 0 0 1-.337-.066.6.6 0 0 1-.236-.137.525.525 0 0 1-.137-.229 1.18 1.18 0 0 1-.042-.34v-1.708c0-.113.054-.17.163-.17h1.969V21.27h-1.36c-.271 0-.467-.035-.59-.105a.329.329 0 0 1-.182-.3v-.125c0-.109.056-.163.17-.163h2.675c.109 0 .164.056.164.17v2.126c0 .113-.055.17-.164.17h-1.97v1.078c0 .127.06.193.178.197.144.01.307.015.49.017.184.001.373 0 .57-.007.196-.007.39-.015.582-.026.192-.01.366-.027.523-.049m.805-1.23h-.223c-.235 0-.404-.035-.506-.105a.335.335 0 0 1-.154-.294v-.13c0-.11.056-.164.17-.164h.713v-1.734c0-.113.054-.17.163-.17h.55c.109 0 .163.057.163.17v4.906c0 .323-.038.55-.114.681a.362.362 0 0 1-.331.196h-.268c-.11 0-.163-.057-.163-.17zM115.992 25.476c0 .114-.054.17-.164.17h-4.782c-.27 0-.466-.035-.588-.105a.328.328 0 0 1-.183-.3v-.125c0-.109.056-.163.17-.163h5.383c.11 0 .164.056.164.17zm-2.414-4.187c0 .25-.05.5-.15.753.231.213.502.4.814.556.312.157.634.277.965.36.148.04.253.107.314.206a.443.443 0 0 1 .072.297.377.377 0 0 1-.15.255c-.088.07-.205.094-.353.073a1.74 1.74 0 0 1-.468-.135 3.812 3.812 0 0 1-.51-.268 4.56 4.56 0 0 1-.977-.827c-.215.292-.5.551-.859.778-.357.227-.78.39-1.268.491-.092.022-.167.01-.227-.033a.298.298 0 0 1-.114-.167.31.31 0 0 1 .017-.203c.028-.068.088-.119.18-.153.31-.109.58-.243.807-.399.23-.158.42-.326.57-.504.15-.179.262-.36.336-.547a1.43 1.43 0 0 0 .111-.533v-.529c0-.114.055-.17.164-.17h.563c.11 0 .163.056.163.17zM119.3 21.1c0 .113-.055.17-.165.17h-1.968v1.073h1.674c.11 0 .164.056.164.17v.34c0 .114-.055.17-.164.17h-1.674v1.125c0 .096.054.153.163.17.087.018.22.03.396.033.176.004.366.005.57.003.202-.002.402-.01.601-.026.198-.015.365-.034.5-.056.096-.017.174 0 .233.05a.321.321 0 0 1 .108.18.312.312 0 0 1-.033.205.285.285 0 0 1-.183.141c-.14.04-.31.072-.51.098a9.129 9.129 0 0 1-.632.06c-.22.012-.44.02-.66.022a7.166 7.166 0 0 1-.592-.016c-.275-.018-.483-.08-.625-.19-.142-.109-.213-.295-.213-.556v-3.029c-.139-.026-.24-.07-.3-.134a.33.33 0 0 1-.092-.239v-.124c0-.109.057-.163.17-.163h3.067c.11 0 .164.056.164.17zm.98 1.923h-.24c-.272 0-.468-.035-.59-.105-.122-.07-.184-.17-.184-.3v-.125c0-.109.057-.163.17-.163h.844v-1.734c0-.113.055-.17.164-.17h.55c.108 0 .163.057.163.17v4.906c0 .323-.038.55-.115.681a.36.36 0 0 1-.33.196h-.268c-.109 0-.164-.057-.164-.17zM125.386 21.087c0 .114-.055.17-.164.17h-1.125v.268a1.97 1.97 0 0 1-.105.648c.166.222.36.406.58.549.22.144.46.255.722.334a.413.413 0 0 1 .311.333.41.41 0 0 1-.023.21.474.474 0 0 1-.114.177.38.38 0 0 1-.19.095.43.43 0 0 1-.252-.036 2.875 2.875 0 0 1-.713-.44 3.618 3.618 0 0 1-.615-.653c-.17.249-.395.472-.673.67-.28.199-.61.368-.995.508a.287.287 0 0 1-.37-.144.277.277 0 0 1-.012-.197c.02-.07.071-.126.153-.17.475-.252.83-.537 1.06-.854.231-.315.347-.66.347-1.03v-.268h-.629c-.27 0-.466-.035-.588-.105a.33.33 0 0 1-.184-.3v-.125c0-.11.057-.163.171-.163h3.244c.11 0 .164.056.164.17zm1.46 5.115a6.401 6.401 0 0 1-.71.112 15.647 15.647 0 0 1-1.799.088 9.24 9.24 0 0 1-.803-.036 1.518 1.518 0 0 1-.336-.068.684.684 0 0 1-.236-.138.503.503 0 0 1-.137-.226 1.14 1.14 0 0 1-.043-.34v-1.112c0-.113.055-.17.164-.17h.562c.11 0 .164.057.164.17v.988c0 .122.06.19.177.203.178.02.385.036.618.042a16.425 16.425 0 0 0 2.286-.115c.096-.012.172.009.23.063a.325.325 0 0 1 .101.19.332.332 0 0 1-.043.212.288.288 0 0 1-.196.137m-.844-5.606c0-.113.054-.17.163-.17h.55c.11 0 .163.057.163.17v3.25c0 .324-.038.55-.114.682a.36.36 0 0 1-.33.196h-.269c-.109 0-.163-.056-.163-.17zM133.047 24.103c0 .113-.055.169-.163.169h-4.782c-.27 0-.467-.032-.589-.097a.316.316 0 0 1-.183-.295v-.085c0-.108.057-.163.17-.163h5.384c.108 0 .163.057.163.17zm-.962-1.852c0 .166-.034.319-.104.458a.958.958 0 0 1-.334.364 1.817 1.817 0 0 1-.588.24c-.24.06-.53.09-.87.09-.34 0-.63-.03-.87-.09a1.814 1.814 0 0 1-.59-.24.963.963 0 0 1-.333-.364 1.005 1.005 0 0 1-.105-.458.82.82 0 0 1 .046-.271.698.698 0 0 1 .157-.251h-.098c-.27 0-.467-.031-.588-.092-.123-.061-.184-.155-.184-.282v-.084c0-.11.057-.164.17-.164h4.795c.11 0 .164.057.164.17v.282c0 .113-.055.17-.164.17h-.706a.698.698 0 0 1 .157.25c.03.09.045.18.045.272m-3.859 3.304c0-.34.157-.606.471-.798.314-.192.811-.287 1.491-.287.681 0 1.178.095 1.492.287.314.192.471.458.471.798s-.157.606-.47.798c-.315.192-.812.288-1.493.288-.68 0-1.177-.096-1.49-.288-.315-.192-.472-.458-.472-.798m3.245-4.858c0 .112-.055.168-.164.168h-1.694c-.27 0-.467-.035-.589-.107-.122-.071-.183-.172-.183-.301v-.071c0-.108.056-.162.17-.162h2.296c.11 0 .164.056.164.168zm-.197 4.858c0-.14-.085-.248-.255-.327-.17-.078-.447-.118-.83-.118-.384 0-.66.04-.83.118-.172.079-.256.188-.256.327 0 .14.084.249.255.328.17.077.447.117.83.117.384 0 .661-.04.831-.117.17-.08.255-.188.255-.328m-2.106-3.297c0 .065.015.129.046.19.03.06.085.116.163.167.08.05.184.089.314.118.131.028.297.042.497.042.201 0 .367-.014.498-.042a.98.98 0 0 0 .313-.118.44.44 0 0 0 .164-.167.416.416 0 0 0-.164-.553.958.958 0 0 0-.313-.117 2.368 2.368 0 0 0-.498-.043c-.2 0-.366.014-.497.043a.974.974 0 0 0-.314.117.431.431 0 0 0-.163.17.43.43 0 0 0-.046.193M138.533 26.202a6.321 6.321 0 0 1-.733.112 18.858 18.858 0 0 1-1.913.088 9.52 9.52 0 0 1-.827-.036 1.447 1.447 0 0 1-.337-.069.673.673 0 0 1-.236-.137.514.514 0 0 1-.137-.226 1.144 1.144 0 0 1-.043-.34v-.864c0-.113.055-.17.164-.17h.614v-.752h-1.006c-.271 0-.467-.033-.59-.098a.315.315 0 0 1-.182-.295v-.11c0-.11.056-.165.17-.165h2.557c.092 0 .19 0 .298-.003a12.051 12.051 0 0 0 .628-.035c.098-.009.184-.02.258-.034.083-.012.15.003.203.05a.318.318 0 0 1 .102.167.324.324 0 0 1-.017.196.24.24 0 0 1-.157.137 2.576 2.576 0 0 1-.281.075 5.039 5.039 0 0 1-1.086.115h-.02v.307c0 .323-.038.55-.114.68a.364.364 0 0 1-.331.197h-.32v.478c0 .122.059.19.177.202.178.022.392.036.64.042a17.245 17.245 0 0 0 2.427-.114c.096-.013.173.008.23.062a.318.318 0 0 1 .058.402.284.284 0 0 1-.196.138m-4.723-4.579c0-.183.039-.353.118-.507.078-.155.19-.288.337-.4.146-.11.325-.198.536-.26a2.54 2.54 0 0 1 .723-.095c.266 0 .506.031.72.094.214.063.393.151.539.261.146.112.259.245.337.4.079.154.118.324.118.507a1.1 1.1 0 0 1-.118.507 1.147 1.147 0 0 1-.337.4 1.652 1.652 0 0 1-.54.261 2.548 2.548 0 0 1-.72.094 2.54 2.54 0 0 1-.722-.094 1.665 1.665 0 0 1-.536-.262 1.147 1.147 0 0 1-.337-.399 1.1 1.1 0 0 1-.118-.507m.877 0c0 .175.074.313.222.416.148.102.353.153.615.153s.467-.05.615-.153a.481.481 0 0 0 .222-.416.483.483 0 0 0-.222-.416c-.148-.102-.353-.153-.615-.153s-.467.051-.615.153a.483.483 0 0 0-.222.416m3.002 3.088h-.425c-.271 0-.466-.03-.59-.092a.303.303 0 0 1-.182-.288v-.098c0-.109.057-.163.17-.163h1.027v-3.474c0-.113.055-.17.164-.17h.549c.109 0 .164.057.164.17v3.546c0 .322-.038.55-.115.68a.36.36 0 0 1-.33.196h-.268c-.11 0-.164-.057-.164-.17z"/></svg>