<svg xmlns="http://www.w3.org/2000/svg" width="228.91122mm" height="300mm" viewBox="0 0 228.91123 300"><path d="m-213.323-153.417-66.023-16.557-.159-.033-66.174 16.59c-6.143 1.546-10.121 7.095-10.121 14.157v92.955c0 42.064 34.223 76.298 76.295 76.298 42.075 0 76.312-34.234 76.312-76.298v-92.955c0-7.062-3.978-12.61-10.13-14.157" style="fill:#fff;fill-opacity:1;fill-rule:nonzero;stroke:none;stroke-width:2.4703" transform="matrix(1.5 0 0 1.5 533.7 255.01)"/><path d="M-227.31-120.794h-1.033v1.096h1.034v-1.096m0 4.857h-1.034v1.086h1.034v-1.086m12.13-29.058-64.329-15.812-64.315 15.812c-2.731.67-4.23 3.148-4.23 6.36v32.074h14.781v-20.374h4.97v1.635h27.781v16.129h-15.26v1.876h-3.981v5.24h-1.133v-5.24h-5.083v5.24h-1.118v-5.24h-5.096v5.24h-15.862v1.426h137.102v-1.426h-15.866v-5.24h-5.086v5.24h-1.119v-5.24h-5.08v5.24h-1.128v-5.24h-3.998l.007-1.876h-15.262v-16.13h27.78v-1.634h4.961v20.374h14.79v-32.074c0-3.212-1.491-5.69-4.227-6.36m-29.138 36.691-.005 6.25h-1.99v-3.344h-3.26v3.343h-.904v-3.343h-3.035v3.343h-.905v-3.343h-3.037v3.343h-.908v-3.343h-3.029v3.343h-.91v-3.343h-3.034v3.343h-.908v-3.343h-3.03v3.343h-.91v-3.343h-3.026v3.343h-.907v-3.343h-3.035v3.343h-.913v-3.343h-1.44l-.004-.01v.01h-1.44v3.343h-.907v-3.343h-3.038v3.343h-.904v-3.343h-3.033v3.343h-.907v-3.343h-3.026v3.343h-.91v-3.343h-3.036v3.343h-.907v-3.343h-3.032v3.343h-.91v-3.343h-3.032v3.343h-.905v-3.343h-3.034v3.343h-.907v-3.343h-3.257v3.343h-1.99v-6.249h70.366m-14.968-4.825-.002 3.958h-.819v-1.217h-2.533v1.217h-.768v-1.217h-2.53v1.217h-.76v-1.217h-2.53v1.217h-.77v-1.217h-2.533v1.217h-.757v-1.217h-2.533v1.217h-.768v-1.217h-2.53v1.217h-.769v-1.217h-2.527v1.217h-.764v-1.217h-2.533v1.217h-.762v-1.217h-2.533v1.217h-.762v-1.217h-2.533v1.217h-.77v-1.217h-2.531v1.217h-.765v-1.217h-2.525v1.217h-.825l-.007-3.958h40.442m-35.57-.844V-125.3h30.711v11.327h-30.711m39.36-12.085h-2.426v-1.502h-1.32v1.502h-.003v12.085h-4.252v-12.085h-.01v-1.502h-1.286v1.502h-1.48v-1.502h-1.317v1.502h-1.469v-1.502h-1.327v1.502h-1.477v-1.502h-1.316v1.502h-1.472v-1.502h-1.316v1.502h-1.48v-1.502h-1.322v1.502h-1.471v-1.502h-1.314v1.502h-1.48v-1.502h-1.318v1.502h-1.478v-1.502h-1.316v1.502h-1.473v-1.502h-1.323v1.502h-1.475v-1.502h-1.319v1.502h-1.475v-1.502h-1.277v1.502h-.02v12.085h-4.252v-12.085h-.002v-1.502h-1.322v1.502h-2.423v-6.162h48.013v6.162m28.184 7.687h-1.034v1.097h1.034v-1.097m-55.51-1.842h.975v-1.085h-.975v1.085m54.476 9.945h1.034v-1.096h-1.034v1.096m-1.016-10.526h-1.045v1.096h1.045v-1.096m0 2.423h-1.045v1.097h1.045v-1.097m2.05-4.846h-1.034v1.096h1.034v-1.096m-2.05 7.28h-1.045v1.086h1.045v-1.086m0-7.28h-1.045v1.096h1.045v-1.096m0 9.693h-1.045v1.096h1.045v-1.096m-1.045 3.256h1.045v-1.096h-1.045v1.096m-66.569-17.292h-1.316v1.941h1.316v-1.94m0 10.285h-1.316v1.951h1.316v-1.951m16.026-5.34h.979v-1.086h-.98v1.086m0 4.803h.98v-1.086h-.98v1.086m-1.871-4.803h.975v-1.086h-.975v1.086m1.872 7.204h.979v-1.085h-.98v1.085m20.238-12.15h-1.318v1.941h1.318v-1.94m19.03 14.035h-1.038v1.096h1.038v-1.096m10.27 0h-1.042v1.096h1.042v-1.096m-65.563-10.615h-1.316v1.953h1.316v-1.953m36.263 0h-1.318v1.953h1.318v-1.953m-36.263 3.433h-1.316v1.952h1.316v-1.952m36.263 0h-1.318v1.952h1.318v-1.952m0 3.432h-1.318v1.951h1.318v-1.951m33.401 3.75h-1.034v1.096h1.034v-1.096m-10.267-4.847h-1.033v1.097h1.033v-1.097m0-2.423h-1.033v1.096h1.033v-1.096m0 4.857h-1.033v1.086h1.033v-1.086m2.057-4.857h-1.043v1.096h1.043v-1.096m0-2.423h-1.043v1.096h1.043v-1.096m-3.09 12.95h1.033v-1.097h-1.033v1.096m1.033-3.256h-1.033v1.096h1.033v-1.096m0-9.693h-1.033v1.096h1.033v-1.096m-2.053 4.846h-1.039v1.097h1.039v-1.097m0-2.423h-1.039v1.096h1.039v-1.096m0-2.423h-1.039v1.096h1.039v-1.096m0 9.693h-1.039v1.096h1.039v-1.096m0-2.413h-1.039v1.086h1.039v-1.086m-1.039 5.67h1.039v-1.097h-1.039v1.096m9.258-8.103h-1.042v1.097h1.042v-1.097m-2.057 2.434h-1.038v1.086h1.038v-1.086m2.057-7.28h-1.042v1.096h1.042v-1.096m-3.095 12.95h1.038v-1.097h-1.038v1.096m1.038-3.256h-1.038v1.096h1.038v-1.096m2.057-2.413h-1.042v1.086h1.042v-1.086m0-4.857h-1.042v1.096h1.042v-1.096m-1.042 10.526h1.042v-1.096h-1.042v1.096m-3.067-3.256h-1.043v1.096h1.043v-1.096m0-4.847h-1.043v1.097h1.043v-1.097m-1.043 8.103h1.043v-1.096h-1.043v1.096m3.095-8.103h-1.038v1.097h1.038v-1.097m-2.053 2.434h-1.042v1.086h1.043v-1.086m2.052-4.857h-1.038v1.096h1.038v-1.096m0-2.423h-1.038v1.096h1.038v-1.096m-47.48 3.004h.979v-1.085h-.98v1.085m8.463 3.718h-.976v1.085h.976v-1.085m-1.87-7.205h-.972v1.086h.973v-1.086m1.87 4.803h-.977v1.086h.976v-1.086m-1.87-2.401h-.972v1.085h.973v-1.085m1.87 0h-.977v1.085h.976v-1.085m1.87 4.803h-.976v1.085h.976v-1.085m-1.87-7.205h-.976v1.086h.976v-1.086m-3.744 7.205h-.976v1.085h.976v-1.085m0-2.402h-.976v1.086h.976v-1.086m5.614 0h-.976v1.086h.976v-1.086m-5.614-2.401h-.976v1.085h.976v-1.085m0-2.402h-.976v1.086h.976v-1.086m1.875 4.803h-.973v1.086h.973v-1.086m0 2.402h-.973v1.085h.973v-1.085m5.62 0h-.984v1.085h.983v-1.085m3.782 0h-.98v1.085h.98v-1.085m-1.923-7.205h-.972v1.086h.972v-1.086m0 2.402h-.972v1.085h.972v-1.085m-3.74 0h-.975v1.085h.976v-1.085m5.662 2.401h-.98v1.086h.98v-1.086m-1.923 0h-.972v1.086h.972v-1.086m1.923-2.401h-.98v1.085h.98v-1.085m0-2.402h-.98v1.086h.98v-1.086m-13.145 0h-.976v1.086h.976v-1.086m9.363 4.803h-.983v1.086h.983v-1.086m-1.88-4.803h-.976v1.086h.976v-1.086m1.88 2.402h-.983v1.085h.983v-1.085m0-2.402h-.983v1.086h.983v-1.086m1.86 7.205h-.973v1.085h.972v-1.085m-21.555-1.316h.974v-1.086h-.974v1.086m1.87 2.401h.973v-1.085h-.973v1.085m-1.87-7.204h.974v-1.086h-.974v1.086m1.87 4.803h.973v-1.086h-.973v1.086m-1.87-2.402h.974v-1.085h-.974v1.085m0 4.803h.974v-1.085h-.974v1.085m1.87-4.803h.973v-1.085h-.973v1.085m3.742 2.402h.975v-1.086h-.975v1.086m0 2.401h.975v-1.085h-.975v1.085m-1.872-4.803h.973v-1.085h-.973v1.085m0-2.401h.973v-1.086h-.973v1.086m-5.618 0h.987v-1.086h-.987v1.086m3.748 0h.973v-1.086h-.973v1.086m1.87 4.803h.973v-1.086h-.973v1.086m0 2.401h.973v-1.085h-.973v1.085m-5.618-4.803h.987v-1.085h-.987v1.085m-3.739 4.803h.976v-1.085h-.976v1.085m0-7.204h.976v-1.086h-.976v1.086m0 2.401h.976v-1.085h-.976v1.085m15.95-1.085h-.976v1.085h.976v-1.085m0 2.401h-.976v1.086h.976v-1.086m0 2.402h-.976v1.085h.976v-1.085m-15.95-1.316h.976v-1.086h-.976v1.086m3.74 2.401h.986v-1.085h-.987v1.085m-1.87 0h.976v-1.085h-.975v1.085m0-7.204h.975v-1.086h-.975v1.086m1.87 4.803h.986v-1.086h-.987v1.086m-1.87-2.402h.976v-1.085h-.975v1.085m0 2.402h.975v-1.086h-.975v1.086m-37.461-1.887h1.036v-1.096h-1.036v1.096m12.314 4.847h1.047v-1.086h-1.047v1.086m0-2.423h1.047v-1.097h-1.047v1.097m-8.213 4.846h1.038v-1.096h-1.038v1.096m8.213 0h1.047v-1.096h-1.047v1.096m0 2.16h1.047v-1.096h-1.047v1.096m-2.05-2.16h1.027v-1.096h-1.028v1.096m0 2.16h1.028v-1.096h-1.028v1.096m2.05-9.43h1.048v-1.096h-1.047v1.096m-2.05 4.847h1.027v-1.086h-1.028v1.086m6.163-4.847h1.036v-1.096h-1.036v1.096m-2.056 0h1.037v-1.096h-1.037v1.096m3.092-3.52h-1.036v1.097h1.036v-1.096m-3.092 10.79h1.037v-1.097h-1.037v1.096m0 2.16h1.037v-1.096h-1.037v1.096m0-4.583h1.037v-1.086h-1.037v1.086m1.037-8.366h-1.037v1.096h1.037v-1.096m-1.037 5.943h1.037v-1.097h-1.037v1.097m-6.16 7.006h1.039v-1.096h-1.039v1.096m-2.056-4.583h1.05v-1.086h-1.05v1.086m0 2.423h1.05v-1.096h-1.05v1.096m0-4.846h1.05v-1.097h-1.05v1.097m0 7.006h1.05v-1.096h-1.05v1.096m1.05-12.95h-1.05v1.097h1.05v-1.096m-3.103 12.95h1.038v-1.097h-1.038v1.096m4.11-9.43h1.038v-1.096h-1.039v1.096m-2.056 0h1.05v-1.096h-1.05v1.096m3.095-3.52h-1.039v1.097h1.039v-1.096m1.014 3.52h1.028v-1.097h-1.028v1.096m1.028-3.52h-1.028v1.097h1.028v-1.096m5.135 5.943h1.036v-1.097h-1.036v1.097m-8.216 2.423h1.039v-1.086h-1.039v1.086m0 2.423h1.039v-1.096h-1.039v1.096m0-4.846h1.039v-1.097h-1.039v1.097m2.053 0h1.028v-1.097h-1.028v1.097m3.098-5.943h-1.047v1.096h1.047v-1.096m9.222 8.366h1.037v-1.086h-1.037v1.086m0 2.423h1.037v-1.096h-1.037v1.096m0-4.846h1.037v-1.097h-1.037v1.097m4.11 7.006h1.038v-1.096h-1.038v1.096m0-7.006h1.038v-1.097h-1.038v1.097m0 2.423h1.038v-1.086h-1.038v1.086m-3.073-8.366h-1.037v1.096h1.037v-1.096m3.073 10.79h1.038v-1.097h-1.038v1.096m1.038-10.79h-1.038v1.097h1.038v-1.096m-3.095 8.366h1.034v-1.086H-305v1.086m2.057-4.847h1.038v-1.096h-1.038v1.096m-2.057 7.27h1.034v-1.096H-305v1.096m0-4.846h1.034v-1.097H-305v1.097m62.285 7.006h1.038v-1.096h-1.038v1.096m-70.495-4.583h1.036v-1.086h-1.036v1.086m6.157 4.583h1.037v-1.096h-1.037v1.096m3.087-12.95H-305v1.097h1.034v-1.096m-1.034 3.52h1.034v-1.097H-305v1.096m-6.162 4.847h1.036v-1.086h-1.036v1.086m0 4.583h1.036v-1.096h-1.036v1.096m0-7.006h1.036v-1.097h-1.036v1.097m0 4.846h1.036v-1.096h-1.036v1.096m1.036-10.79h-1.036v1.097h1.036v-1.096m-3.084 10.79h1.036v-1.097h-1.036v1.096m0 2.16h1.036v-1.096h-1.036v1.096m2.048-9.43h1.036v-1.096h-1.036v1.096m2.059 0h1.036v-1.096h-1.036v1.096m0 7.27h1.036v-1.096h-1.036v1.096m2.05-7.27h1.037v-1.096h-1.037v1.096m93.73-33.719-66.023-16.557-.158-.033-66.175 16.59c-6.143 1.546-10.121 7.095-10.121 14.157v92.955c0 42.064 34.223 76.298 76.296 76.298 42.074 0 76.311-34.234 76.311-76.298v-92.955c0-7.062-3.978-12.61-10.13-14.157m8.837 107.112c0 41.362-33.65 75.004-75.018 75.004-41.36 0-75.008-33.642-75.008-75.004v-92.955c0-6.447 3.591-11.513 9.143-12.906l65.865-16.514 65.872 16.514c5.554 1.393 9.146 6.46 9.146 12.906v92.955m-104.617-63.963h1.036v-1.096h-1.036v1.096m1.036-12.95h-1.036v1.097h1.036v-1.096m-1.036 5.943h1.036v-1.097h-1.036v1.097m0 2.423h1.036v-1.086h-1.036v1.086m-19.497-8.366h-1.036v1.096h1.036v-1.096m78.704 9.693h-1.036v1.096h1.036v-1.096m2.06-7.27h-1.034v1.096h1.033v-1.096m0-2.423h-1.033v1.096h1.033v-1.096m-3.095 12.95h1.036v-1.097h-1.036v1.096m3.095-5.669h-1.033v1.086h1.033v-1.086m-1.033 5.67h1.033v-1.097h-1.033v1.096m1.033-8.103h-1.033v1.097h1.033v-1.097m-2.059 2.434h-1.036v1.086h1.036v-1.086m0-2.434h-1.036v1.097h1.036v-1.097m2.06 4.847h-1.034v1.096h1.033v-1.096m-4.11-2.413h-1.032v1.086h1.033v-1.086m0-4.857h-1.033v1.096h1.033v-1.096m-1.033 10.526h1.033v-1.096h-1.033v1.096m1.033-8.103h-1.033v1.097h1.033v-1.097m2.05-2.423h-1.036v1.096h1.036v-1.096m-2.05 7.27h-1.033v1.096h1.033v-1.096m2.05-9.693h-1.036v1.096h1.036v-1.096m6.163 4.846h-1.036v1.097h1.036v-1.097m-8.213-4.846h-1.033v1.096h1.033v-1.096m7.177 12.95h1.036v-1.097h-1.036v1.096m3.092-12.95h-1.038v1.097h1.038v-1.096m-2.056 7.28h-1.036v1.086h1.036v-1.086m0 2.413h-1.036v1.096h1.036v-1.096m-2.05-9.693h-1.037v1.096h1.036v-1.096m4.107 2.423h-1.038v1.096h1.038v-1.096m0 2.423h-1.038v1.097h1.038v-1.097m0 2.434h-1.038v1.086h1.038v-1.086m-4.107-2.434h-1.036v1.097h1.036v-1.097m0 2.434h-1.036v1.086h1.036v-1.086m0-4.857h-1.036v1.096h1.036v-1.096m-1.036 10.526h1.036v-1.096h-1.036v1.096m3.087-12.95h-1.036v1.097h1.036v-1.096m-2.05 9.693h-1.037v1.096h1.036v-1.096m2.05-7.27h-1.035v1.096h1.036v-1.096m-83.853 10.526h1.042v-1.096h-1.042v1.096m-4.112-2.16h1.042v-1.096h-1.042v1.096m2.062-2.423h1.036v-1.086h-1.036v1.086m3.092-8.366h-1.042v1.096h1.042v-1.096m-1.042 3.52h1.042v-1.097h-1.042v1.096m-2.05 7.27h1.036v-1.096h-1.036v1.096m0-4.846h1.036v-1.097h-1.036v1.097m-2.062 7.006h1.042v-1.096h-1.042v1.096m26.698 0h1.034v-1.096H-305v1.096m-24.636 0h1.036v-1.096h-1.036v1.096m4.1-9.43h1.04v-1.096h-1.04v1.096m1.04-3.52h-1.04v1.097h1.04v-1.096m70.497 9.693h-1.034v1.096h1.034v-1.096m-73.587-3.75h1.042v-1.097h-1.042v1.097m2.05 2.423h1.04v-1.086h-1.04v1.086m-2.05 0h1.042v-1.086h-1.042v1.086m0 2.423h1.042v-1.096h-1.042v1.096m2.05-4.846h1.04v-1.097h-1.04v1.097m69.489 3.75h-1.041v1.096h1.04v-1.096m2.049-9.693h-1.034v1.096h1.034v-1.096m-77.699 8.366h1.042v-1.086h-1.042v1.086m75.65-3.52h-1.04v1.097h1.04v-1.097m0 2.434h-1.04v1.086h1.04v-1.086m1.015 5.67h1.034v-1.097h-1.034v1.096m1.034-5.669h-1.034v1.086h1.034v-1.086m-2.048-4.857h-1.041v1.096h1.04v-1.096m2.049 2.423h-1.034v1.097h1.034v-1.097m0-2.423h-1.034v1.096h1.034v-1.096m-3.09 10.526h1.042v-1.096h-1.041v1.096m1.04-12.95h-1.04v1.097h1.04v-1.096m-75.65 3.52h1.042v-1.097h-1.042v1.096m0 2.424h1.042v-1.097h-1.042v1.097m1.042-5.943h-1.042v1.096h1.042v-1.096m24.47 33.16-4.776-.01c-.44 0-.847.35-.918.8l-3.175 19.19h5.592l3.276-19.98m60.68 19.98 3.233-20.001h-6.532c-.437 0-1.004.383-1.265.822l-5.628 11.371-2.936-12.193h-5.025a.987.987 0 0 0-.82.811l-3.188 19.19h5.294l1.88-10.955 2.136 10.055c.09.33.367.78.688.9.069.043 3.123 0 3.123 0l5.573-12.107-2.124 12.107h5.592m-83.801-19.99a.962.962 0 0 0-.926.8l-3.179 19.19h5.596l3.278-19.98-4.77-.01m15.41 0h-5.255c-.45 0-.976.351-1.204.801l-5.417 8.806s-.502.7-.156 1.568l2.708 8.047c.067.44.485.769.93.769h5.288l-3.416-9.957 6.522-10.034m19.196-.01c-1.572 0-8.025.01-8.025.01a.959.959 0 0 0-.92.801l-3.16 19.19h5.587l1.187-7.282h1.945c1.275 0 2.059.406 1.844 2.446l-.523 4.035c-.066.439.236.8.677.8h5.009s.416-4.44.517-5.625c.277-3.29-3.325-3.455-3.325-3.455s1.313-.164 2.28-.866c1.887-1.348 2.214-2.51 2.632-5.734.429-3.213-2.083-4.32-5.725-4.32m.158 6.063c-.386 2.281-1.467 2.796-2.605 2.796h-2.318l.99-5.581h2.51c1.53 0 1.788.659 1.423 2.785m13.855-6.053c-.444 0-.926.351-1.064.801l-7.519 19.19h5.557l2.135-5.406h6.086l.784 5.406h5.584l-2.947-19.99h-8.616m.606 10.8 2.957-7.49 1.081 7.49h-4.038m52.894 5.45c.308-1.371.422-2.358.53-3.29.066-.931.515-3.136-2.204-4.024-2.166-.713-4.254-1.184-5.34-1.557-.417-.132-1.275-.493-1.201-1.36.09-.943.372-2.116.372-2.116s.157-.8 1.544-.8c1.338 0 2.89-.045 2.799.965l-.181 1.206a.67.67 0 0 0 .68.789h4.342s.14-1.271.24-2.445c.188-2.423-1.084-3.926-6.12-3.926-4.066 0-7.728.088-8.682 3.937-1.086 4.386.101 5.647 1.546 6.119 2.58.833 4.804 1.523 4.804 1.523s2.277.286 2.042 1.602c-.132.68-.54 2.917-.54 2.917s-.055.965-2.391.965c-1.343 0-2.149-.033-2.081-1.064l.294-2.062a.678.678 0 0 0-.693-.79h-4.366s-.194 1.152-.471 2.621c-.603 3.137 1.21 4.53 6.144 4.53 4.063 0 8.067.22 8.933-3.74m-48.694 72.767v.954c.39-.296.578-.482.789-.756h.02v5.9h.943v-7.27h-.842c-.132.328-.674 1.008-.91 1.172m-17.49 6.097v-7.27h-1.01v7.27h1.01m-4.813-5.746c0-.57.191-.8.603-.8.394 0 .573.241.573.658v.57h.94v-.68c0-.515-.121-.767-.294-.933-.243-.218-.63-.394-1.17-.394-1.1 0-1.654.504-1.654 1.7 0 .986.535 1.568 1.183 2.215 1.036 1.03 1.077 1.228 1.077 1.853 0 .472-.14.834-.669.834-.404 0-.59-.308-.59-.79v-.593h-1v.867c0 .9.63 1.294 1.56 1.294 1.194 0 1.633-.658 1.633-1.787 0-.878-.178-1.229-1.162-2.26-.927-.964-1.03-1.26-1.03-1.754m10.08 5.746v-7.27h-.943V3.82h-.026l-1.187-6.041h-1.39v7.27h.886V-1.16h.022l1.185 6.207h1.453m4.8-1.294v-.8h-.946v.494c0 .614-.235.877-.612.877-.323 0-.592-.154-.592-1.009V-.248c0-.877.097-1.25.626-1.25.425 0 .578.296.578.757v.493h.946v-.713c0-.823-.461-1.316-1.459-1.316-1.365 0-1.702.888-1.702 1.908v3.673c0 1.13.412 1.799 1.68 1.799 1.174 0 1.48-.58 1.48-1.349m1.514 1.294h2.728v-.844h-1.735V1.747h1.63V.903h-1.63v-2.27h1.735v-.854h-2.728v7.27m12.512-1.733V-.62c0-1.272-.392-1.656-1.453-1.656-1.3 0-1.607.483-1.607 1.788V.739c0 1.042.209 1.765 1.141 1.765.444 0 .724-.12.954-.428h.01v1.338c0 .57-.135.91-.557.91-.408 0-.545-.22-.545-.79v-.35h-.94v.647c0 .79.419 1.272 1.485 1.272 1.083 0 1.512-.483 1.512-1.787m-1.512-1.602c-.449 0-.545-.295-.545-.679V-.653c0-.56 0-.9.545-.9.557 0 .557.417.557.9V.805c0 .636-.165.91-.557.91m10.985 1.601c0-1.744-.295-1.897-.924-2.007v-.022c.732-.132.891-.385.891-1.635 0-1.38-.243-1.93-1.417-1.93-1.198 0-1.505.483-1.505 1.876h.945v-.252c0-.57.146-.9.56-.9.285 0 .477.143.477.78v.8c0 .712-.158.876-.765.876h-.317v.844h.248c.689 0 .861.21.861.879v.855c0 .56-.14.898-.556.898-.417 0-.553-.339-.553-.898v-.395h-.944v.23c0 1.305.302 1.787 1.497 1.787 1.2 0 1.502-.482 1.502-1.786m-4.723 0v-1.24c0-1.041-.216-1.754-1.143-1.754-.441 0-.721.11-.957.416h-.015V-.589c0-.581.142-.91.567-.91.406 0 .54.208.54.779v.362h.952v-.647c0-.79-.428-1.272-1.492-1.272-1.086 0-1.51.482-1.51 1.787v3.926c0 1.272.392 1.666 1.44 1.666 1.317 0 1.618-.482 1.618-1.786m-1.008.164c0 .56 0 .898-.54.898-.567 0-.567-.416-.567-.898V2.02c0-.636.18-.921.567-.921.439 0 .54.297.54.68v1.7m-75.586-74.248h-6.613v2.5h.765v-1.578h2.238v1.48h.767v-1.48h2.076v1.579h.767v-2.5m-6.613 17.873h6.613v-.92h-6.613v.92m6.613-24.2h-6.613v.91h2.88v.318c0 .603-.174.702-.799.702h-1.49c-.267 0-.431.022-.59.12v.866c.27-.066.6-.066.835-.066h1.44c.622 0 .948-.21 1.014-.823h.014c.233.747.614.867 1.506.867 1.45 0 1.803-.143 1.803-1.48v-1.415m-.767 1.349c0 .57-.09.625-1.078.625-.987 0-1.123-.099-1.123-.823v-.241h2.2v.44m-5.844-11.877v1.042l3.506-1.656 3.106 1.535v-.921l-3.013-1.448v-.01h3.013v-.909h-6.612v.91h3.303v.01l-3.303 1.447m6.612 40.528h-5.501v-.022l5.501-1.075v-1.271h-6.612v.812h5.639v.01l-5.64 1.085v1.317h6.613v-.856m-4.937-33.444h3.356c1.025 0 1.641-.373 1.641-1.558 0-1.25-.82-1.546-1.749-1.546h-3.347c-1.02 0-1.634.373-1.634 1.546 0 1.262.818 1.558 1.733 1.558m-.146-2.193h3.476c.65 0 .95.23.95.635 0 .429-.3.647-.95.647h-3.476c-.567 0-.868-.263-.868-.647 0-.372.301-.635.868-.635m5.083 18.849-6.612-1.458v.921l1.675.307v1.414l-1.675.307v.921l6.612-1.348v-1.064m-.973.493-3.186.57v-1.162l3.186.581v.01m6.911 55.31 1.51 1.985.614-.472-.956-1.25 1.787-1.348.897 1.174.613-.46-.902-1.185 1.65-1.25.954 1.26.614-.471-1.51-1.984-5.27 4.002m.189-12.347-4.75 2.314c-.396.196-.678.153-.885-.275-.213-.427-.073-.68.33-.866l4.745-2.314-.398-.833-4.61 2.248c-.697.34-1.262.954-.708 2.083.542 1.118 1.384 1.053 2.072.713l4.603-2.248-.4-.822m-10.853-19.366c.8-.066 1.101-.252 1.963-1.227.814-.9 1.074-1.02 1.524-1.064.513-.033.737.12.776.504.012.35-.183.515-.562.549l-.515.043.068.866.62-.054c.458-.033.69-.165.822-.34.18-.23.31-.592.28-1.097-.086-.986-.601-1.458-1.673-1.37-.894.076-1.384.591-1.924 1.228-.855 1.02-1.036 1.075-1.598 1.118-.433.033-.771-.066-.806-.549-.033-.372.23-.558.668-.58l.54-.045-.077-.92-.788.065c-.815.067-1.127.67-1.058 1.514.087 1.086.715 1.448 1.74 1.36m23.356 36.022c-.901-.856-1.689-.472-2.327.196l-2.292 2.446c-.706.746-.855 1.448 0 2.258.913.856 1.697.472 2.33-.196l2.303-2.434c.702-.758.85-1.46-.014-2.27m-.682 1.654-2.38 2.533c-.394.418-.79.45-1.068.187-.275-.252-.254-.657.136-1.063l2.388-2.533c.449-.472.814-.537 1.116-.263.306.295.257.669-.192 1.14m-9.055-11.942.664-.405-1.65-2.643-.648.405.575.933-4.975 3.081.482.778 4.982-3.08.57.931m-8.424-20.198.756-.142-.56-3.071-.758.142.197 1.086-5.754 1.053.156.91 5.765-1.063.198 1.085m1.437 2.676-6.382 1.744.233.888 6.39-1.745-.241-.887m1.424 6.832.73-.275-1.077-2.917-.73.252.379 1.042-5.488 2.018.317.866 5.486-2.029.383 1.043m14.739 29.354.72.57 1.845-2.38 1.181.922.465-.614-1.17-.91 1.278-1.634 1.243.965.471-.614-1.966-1.535-4.067 5.23m102.072-21.284-1.714-.988c-1.67-.953-2.16-1.096-2.9.198l-.723 1.273 5.729 3.3.666-1.152c.724-1.26.409-1.786-1.058-2.63m.405 2.214-.224.383-4.398-2.522.176-.317c.392-.68.72-.603 1.58-.11l1.97 1.13c.987.559 1.23.855.896 1.436m-3.461 5.374-1.827-1.306.866-1.206-.63-.45-.86 1.217-1.692-1.206.92-1.283-.63-.449-1.441 2.029 5.384 3.837 1.452-2.028-.622-.45-.92 1.295m.646-12.6 6.012 2.774.383-.834-6.014-2.774-.38.834m7.691-4.485-.694-.263-.287.81.43.166c.524.186.667.471.549.789-.1.275-.313.46-1.047.198l-3.054-1.119c-.75-.263-1.034-.471-.877-.921.128-.351.437-.395.83-.263l.433.164.29-.81-.616-.231c-.702-.252-1.275-.01-1.585.833-.427 1.184.241 1.743 1.108 2.062l3.147 1.14c.968.35 1.675.208 2.073-.877.353-.998-.045-1.448-.7-1.678M-232.188-8.2l3.213 3.992-.01.01-4.337-2.72-.97 1.086 4.952 4.408.54-.603-4.456-3.959.007-.022 5.144 3.202.603-.69-3.826-4.662.005-.022 4.46 3.97.571-.647-4.945-4.398-.952 1.053m-25.355 22.567-.82.252.132.44c.168.525.033.822-.288.92-.285.088-.562.034-.797-.712l-.974-3.093c-.241-.767-.257-1.118.2-1.26.37-.12.584.098.716.493l.137.438.812-.263-.187-.625c-.22-.702-.77-1.02-1.63-.745-1.188.383-1.24 1.25-.957 2.126l1.008 3.203c.304.976.855 1.447 1.952 1.096 1.017-.318 1.13-.91.913-1.579l-.217-.69m37.848-46.286 6.08 3.015.22-.888-1.563-.702.34-1.392 1.708.109.222-.888-6.747-.285-.26 1.03m1.064-.24 3.231.208-.276 1.14-2.955-1.338v-.01m-36.556 40.573 1.258 6.667.844-.362-.386-1.678 1.32-.558.938 1.435.844-.362-3.84-5.56-.978.418m1.537 3.87-.72-3.168h.024l1.774 2.708-1.077.46m16.703-9.44-.82-1.053-.603.471.85 1.097-.014.01-1.407-.823c.135-.833.077-1.458-.405-2.072-.478-.614-1.039-.79-1.7-.274-.538.416-.624 1.086-.066 1.81.33.427.776.712 1.402.986-.349.691.12 1.37.605 1.995.666.857 1.226 1.196 2.061.55.242-.188.485-.483.567-.768l.196.11.724-.57-.862-.45c-.005-.22-.191-.593-.528-1.02m-3.584-1.35c-.273-.339-.345-.592-.1-.778.212-.164.449-.066.693.252.277.351.394.647.383 1.295-.545-.275-.762-.494-.976-.769m3.134 3.487c-.304.23-.603.023-1.061-.569-.436-.56-.6-.823-.612-1.042l1.93 1.064c-.015.273-.09.416-.257.547m-9.343 5.878-2.794-5.143-.81.439 3.162 5.822 2.16-1.183-.364-.67-1.354.735m28.87-74.149h6.617v-2.5h-.772v1.579h-2.243v-1.48h-.767v1.48h-2.068v-1.579h-.767v2.5m0-20.834v2.5h6.617v-2.5h-.772v1.579h-2.243v-1.48h-.767v1.48h-2.068v-1.58h-.767m0 25.167h6.617v-.922h-6.617v.922m5.192 21.733-5.792-.8-.127.91 6.558.91.338-2.433-.76-.1-.217 1.513m-.156-52.875c-.79 0-1.116.175-2.048 1.064-.89.845-1.16.942-1.61.942-.512 0-.718-.175-.718-.558 0-.362.211-.517.59-.517h.53v-.855h-.627c-.471 0-.696.11-.84.264-.21.219-.37.58-.37 1.074 0 .999.47 1.503 1.542 1.503.905 0 1.434-.483 2.016-1.075.956-.954 1.135-.987 1.69-.987.428 0 .765.121.765.614 0 .373-.275.537-.721.537h-.534v.91h.784c.83 0 1.188-.57 1.188-1.425 0-1.085-.598-1.49-1.637-1.49m.397 11.7h-.724v.854h.46c.549 0 .787.22.787.57 0 .286-.137.538-.92.538h-3.246c-.792 0-1.13-.1-1.13-.582 0-.383.26-.526.68-.526h.463v-.855h-.66c-.74 0-1.2.416-1.2 1.316 0 1.25.816 1.557 1.74 1.557h3.34c1.032 0 1.65-.374 1.65-1.535 0-1.053-.538-1.338-1.24-1.338m0 22.643h-.724v.867h.46c.549 0 .787.219.787.559 0 .296-.137.538-.92.538h-3.246c-.792 0-1.13-.088-1.13-.57 0-.384.26-.527.68-.527h.463v-.867h-.66c-.74 0-1.2.428-1.2 1.327 0 1.25.816 1.558 1.74 1.558h3.34c1.032 0 1.65-.385 1.65-1.535 0-1.064-.538-1.35-1.24-1.35m-.397 6.119c-.79 0-1.116.165-2.048 1.064-.89.844-1.16.943-1.61.943-.512 0-.718-.187-.718-.56 0-.35.211-.504.59-.504h.53v-.866h-.627c-.471 0-.696.11-.84.263-.21.22-.37.582-.37 1.086 0 .986.47 1.492 1.542 1.492.905 0 1.434-.495 2.016-1.076.956-.953 1.135-.987 1.69-.987.428 0 .765.133.765.615 0 .362-.275.537-.721.537h-.534v.91h.784c.83 0 1.188-.58 1.188-1.414 0-1.109-.598-1.503-1.637-1.503m-52.772 61.363 1.494 6.448.885-.208-1.488-6.448-.891.208m47.736-81.944v1.26h6.617v-.8h-5.65v-.023l5.65-1.086v-1.305h-6.617v.855h5.496v.013l-5.496 1.085m-80.285 80.673-1.41-.428-1.937 6.339 1.267.383c1.387.427 1.834 0 2.324-1.623l.584-1.885c.56-1.842.598-2.348-.828-2.786m.05 2.193-.664 2.182c-.334 1.086-.562 1.381-1.217 1.196l-.42-.132 1.487-4.857.36.098c.742.23.742.57.454 1.514m-11.681-7.106-1.245-.68-3.185 5.812.803.438 1.385-2.533.273.153c.535.286.546.483.25 1.031l-.721 1.316c-.123.23-.192.384-.183.582l.745.405c.093-.263.255-.548.37-.767l.694-1.262c.293-.547.269-.92-.25-1.282V8.73c.767.165 1.064-.109 1.489-.899.702-1.272.751-1.645-.425-2.292m-.39 1.887c-.484.877-.635.942-1.268.592l-.22-.11 1.066-1.94.384.218c.502.275.51.373.038 1.24m1.708 6.217.855.35.93-1.436 1.319.55-.379 1.677.85.362 1.332-6.634-.989-.418-3.918 5.549m3.998-4.452-.716 3.158-1.072-.45 1.777-2.72.01.01m34.697 6.536.107.758.6-.088.282 1.93c-.114.043-.317.11-.566.142-.38.056-.683-.241-.76-.767l-.483-3.302c-.095-.7.06-1.107.472-1.172.353-.045.62.197.689.657l.054.34.904-.13-.092-.604c-.121-.834-.678-1.107-1.648-.976-1.174.175-1.475.735-1.297 1.952l.494 3.31c.144 1.021.605 1.569 1.76 1.405a8.005 8.005 0 0 0 1.472-.384l-.49-3.289-1.498.218m-25.198 2.425.896.196 1.409-6.468-.894-.198-1.411 6.47m12.555-4.969-.922-.043-.284 6.612 2.464.11.033-.768-1.543-.066.252-5.845m7.627 1.503c-.05-1.031-.45-1.623-1.635-1.579-1.24.065-1.516.899-1.464 1.831l.163 3.334c.046 1.03.449 1.622 1.628 1.568 1.252-.055 1.519-.878 1.474-1.821l-.166-3.333m-1.346 4.441c-.381.022-.648-.275-.675-.844l-.161-3.465c-.034-.659.175-.965.584-.987.424-.022.657.274.693.92l.158 3.476c.026.571-.218.89-.6.9m-11.875-6.502c-1.242-.176-1.644.592-1.771 1.523l-.444 3.312c-.138 1.02.153 1.689 1.32 1.842 1.243.153 1.652-.603 1.784-1.524l.441-3.322c.134-1.02-.157-1.678-1.33-1.831m.417 1.732-.463 3.454c-.077.57-.37.823-.754.767-.373-.043-.59-.372-.508-.943l.455-3.442c.09-.648.348-.922.754-.855.425.054.6.372.516 1.019m-1.516-33.182c.584-.165 1.178-.329 1.779-.515a60.108 60.108 0 0 0 6.772-2.588c.353-.164.712-.319 1.055-.483.73-.34 1.46-.69 2.198-1.063.335-.175.669-.351 1.006-.526.87-.461 1.733-.933 2.597-1.426a89.721 89.721 0 0 0 2.565-1.546 69.9 69.9 0 0 0 .228-2.38 72.183 72.183 0 0 1-3.737 2.293 79.91 79.91 0 0 1-3.835 2.072c-.337.175-.68.34-1.022.493-.724.362-1.46.691-2.186 1.02-.353.142-.713.307-1.058.46a60.836 60.836 0 0 1-4.2 1.58c-.276.087-.547.175-.819.262-.603.198-1.21.373-1.793.527-.3.076-.589.153-.877.23-2.498.626-4.816.966-6.848.966-2.158 0-4.956-.407-6.028-2.27-1.198-2.073.02-5.57 3.358-9.628a40.6 40.6 0 0 1 1.96-2.193c-.463-.428-.91-.866-1.357-1.294a39.626 39.626 0 0 0-2.059 2.291c-3.912 4.76-5.165 8.937-3.539 11.767 1.212 2.094 3.862 3.201 7.665 3.201 2.166 0 4.64-.362 7.294-1.02.295-.076.582-.141.88-.23m35.058-1.951c1.63-2.83.377-7.007-3.543-11.767a38.209 38.209 0 0 0-2.042-2.28c-.216-.22-.422-.438-.644-.647a51.768 51.768 0 0 0-1.34-1.294c-.204-.186-.417-.384-.631-.57a63.53 63.53 0 0 0-4.978-3.992 25.18 25.18 0 0 0-.954-.668 46.742 46.742 0 0 0-2.016-1.372 40.984 40.984 0 0 1-.937-.603 92.62 92.62 0 0 0-2.565-1.545 89.96 89.96 0 0 0-2.597-1.426c-.724.306-1.459.636-2.182.987a70.49 70.49 0 0 1 3.835 2.072 69.979 69.979 0 0 1 3.737 2.303c.315.198.619.406.931.614.67.46 1.325.932 1.96 1.393.316.23.631.46.93.69a55.34 55.34 0 0 1 3.466 2.84c.218.198.435.384.646.582.464.427.905.855 1.34 1.294.218.207.431.427.645.636.697.723 1.354 1.469 1.957 2.182 3.326 4.057 4.545 7.555 3.356 9.628-1.083 1.863-3.888 2.27-6.04 2.27-2.022 0-4.344-.34-6.847-.965a74.472 74.472 0 0 1-.442 1.82c2.652.657 5.124 1.019 7.29 1.019 3.801 0 6.453-1.107 7.665-3.201m-13.036-11.274c-.03.823-.077 1.635-.142 2.435a59.093 59.093 0 0 0 4.935-3.958 36.692 36.692 0 0 0-1.34-1.283 59.46 59.46 0 0 1-3.453 2.806m-2.802-20.066a46.16 46.16 0 0 0-1.787.515c-.263.088-.535.176-.82.263a61.418 61.418 0 0 0-5.943 2.326c-.356.153-.71.317-1.063.482-.724.34-1.453.69-2.186 1.063-.34.165-.676.34-1.014.527-.864.46-1.732.931-2.59 1.426a85.9 85.9 0 0 0-2.563 1.545 75.087 75.087 0 0 0-.23 2.39 73.785 73.785 0 0 1 7.577-4.374c.336-.164.67-.34 1.006-.505a80.97 80.97 0 0 1 2.198-1.01c.357-.152.702-.306 1.05-.45a55.731 55.731 0 0 1 4.2-1.589c.276-.087.545-.175.83-.263a28.593 28.593 0 0 1 1.788-.526c.288-.088.583-.154.872-.23 2.503-.625 4.825-.954 6.847-.954 2.152 0 4.957.383 6.04 2.259 1.387 2.412-.535 6.886-5.31 11.832.463.427.899.855 1.334 1.283 5.231-5.44 7.547-10.681 5.602-14.058-1.212-2.096-3.864-3.203-7.666-3.203-2.165 0-4.637.362-7.289 1.02-.296.078-.584.143-.883.231m.64 2.675c-.59.164-1.187.34-1.802.537.288 1.383.531 2.863.718 4.409.696.428 1.38.877 2.045 1.338a63.133 63.133 0 0 0-.961-6.284m-10.253 43.346c3.895 0 7.291-4.616 9.383-11.875.077-.284.159-.57.23-.855a43.8 43.8 0 0 0 .453-1.82c.062-.286.126-.57.187-.855a63.158 63.158 0 0 0 1.066-7.435c.074-.801.128-1.6.167-2.434.027-.362.049-.735.06-1.118.03-.977.058-1.975.058-2.983 0-.998-.028-1.986-.058-2.962a85.512 85.512 0 0 0-1.952-1.402 74.814 74.814 0 0 1-.068 9.857 65.716 65.716 0 0 1-.222 2.39c-.035.395-.08.769-.134 1.152a52.237 52.237 0 0 1-.72 4.397c-.053.297-.12.581-.171.866-.151.626-.294 1.24-.453 1.832-.068.274-.147.559-.235.845-1.891 6.622-4.803 10.526-7.59 10.526-2.792 0-5.684-3.904-7.592-10.526-.595.185-1.196.361-1.78.525 2.096 7.26 5.475 11.875 9.371 11.875m-25.446-44.07c-1.626 2.83-.372 7.008 3.54 11.755.633.78 1.318 1.547 2.058 2.304.203.218.417.416.628.636a66.9 66.9 0 0 0 1.352 1.305c.216.196.444.394.666.592a62.117 62.117 0 0 0 4.934 3.958c.315.22.633.45.948.669.661.472 1.333.922 2.02 1.36.31.208.63.417.947.613a83.397 83.397 0 0 0 2.564 1.547c.857.493 1.726.965 2.59 1.425.727-.307 1.455-.646 2.193-.986a83.918 83.918 0 0 1-3.849-2.072 66.704 66.704 0 0 1-3.728-2.304 27.01 27.01 0 0 1-.932-.614 71.18 71.18 0 0 1-1.971-1.392 60.922 60.922 0 0 1-4.353-3.509c-.222-.198-.448-.396-.661-.592a41.559 41.559 0 0 1-1.368-1.305 43.05 43.05 0 0 1-.623-.625c-.7-.735-1.365-1.47-1.96-2.193-3.338-4.047-4.556-7.556-3.358-9.628 1.073-1.876 3.87-2.26 6.029-2.26 2.031 0 4.35.33 6.847.955.143-.625.289-1.228.447-1.82-2.654-.659-5.129-1.02-7.294-1.02-3.803 0-6.453 1.107-7.666 3.202m18.003.657a55.93 55.93 0 0 1 4.2 1.59 48.056 48.056 0 0 1 2.188-1.095 60.425 60.425 0 0 0-5.957-2.326c-.146.581-.291 1.195-.431 1.831m15.034-2.949c.6-.187 1.2-.351 1.792-.515-2.091-7.25-5.488-11.887-9.383-11.887-3.896 0-7.275 4.638-9.37 11.887-.083.274-.156.558-.236.855a37.595 37.595 0 0 0-.45 1.82c-.062.274-.134.57-.183.855a57.633 57.633 0 0 0-.962 6.284c-.052.383-.082.767-.119 1.162a81.99 81.99 0 0 0-.166 2.424c-.023.372-.033.756-.048 1.14-.043.975-.06 1.963-.06 2.96 0 .998.017 1.985.06 2.95.631.471 1.284.943 1.939 1.415a79.897 79.897 0 0 1-.123-4.364c0-1.503.046-2.962.123-4.364.025-.373.054-.758.08-1.13.062-.811.133-1.612.215-2.402.047-.384.09-.767.133-1.13.188-1.545.438-3.025.715-4.408.057-.295.123-.581.19-.866.131-.636.282-1.228.435-1.83.077-.286.164-.571.235-.856 1.908-6.612 4.801-10.516 7.592-10.516 2.788 0 5.7 3.904 7.59 10.516m-17.83 30.956a76.302 76.302 0 0 0 1.788-.538 58.09 58.09 0 0 1-.715-4.408 54.391 54.391 0 0 1-2.035-1.337c.222 2.204.543 4.308.963 6.283m-2.17-17.38c.037-.823.087-1.645.14-2.446-1.768 1.294-3.426 2.61-4.934 3.958.433.44.896.866 1.363 1.295a60.32 60.32 0 0 1 3.432-2.807m13.47 16.952a61.09 61.09 0 0 0 5.945 2.324c.158-.592.31-1.206.441-1.831a60.602 60.602 0 0 1-4.2-1.579c-.723.373-1.453.735-2.185 1.086m.068-19.86h-2.258a.976.976 0 0 0-.984.966v3.246h-3.226a.964.964 0 0 0-.971.965v2.27c0 .538.433.975.97.975h3.227v3.236c0 .537.446.964.984.964h2.258a.963.963 0 0 0 .974-.964v-3.236h3.237c.54 0 .974-.437.974-.975v-2.27a.965.965 0 0 0-.974-.965h-3.237v-3.246a.963.963 0 0 0-.974-.965z" style="fill:#0a51a1;fill-opacity:1;fill-rule:nonzero;stroke:none;stroke-width:2.4703" transform="matrix(1.5 0 0 1.5 533.7 255.01)"/></svg>