<svg xmlns="http://www.w3.org/2000/svg" width="803.47125pt" height="300pt" viewBox="0 0 803.47126 299.99999"><defs><linearGradient id="a" x1="0" x2="1" y1="0" y2="0" gradientTransform="matrix(293.7064 0 0 293.70095 509.763 116.51)" gradientUnits="userSpaceOnUse" spreadMethod="pad"><stop offset="0" style="stop-opacity:1;stop-color:#68bceb"/><stop offset="1" style="stop-opacity:1;stop-color:#165096"/></linearGradient><linearGradient id="b" x1="0" x2="1" y1="0" y2="0" gradientTransform="matrix(156.68922 0 0 156.68631 506.294 37.252)" gradientUnits="userSpaceOnUse" spreadMethod="pad"><stop offset="0" style="stop-opacity:1;stop-color:#e6ec21"/><stop offset="1" style="stop-opacity:1;stop-color:#0b905a"/></linearGradient><linearGradient id="c" x1="0" x2="1" y1="0" y2="0" gradientTransform="matrix(147.3486 0 0 147.34586 656.12 195.104)" gradientUnits="userSpaceOnUse" spreadMethod="pad"><stop offset="0" style="stop-opacity:1;stop-color:#f68712"/><stop offset="1" style="stop-opacity:1;stop-color:#fbc707"/></linearGradient></defs><path d="M523.853 99.334c-6.821 1.502-14.09 9.024-14.09 17.633 0 8.681 5.895 16.207 14.266 17.677 4.164.572 66.014 9.582 132.09 19.121 0 0 124.963-18.34 131.202-19.379 11.056-1.841 16.15-8.438 16.15-17.71 0-8.886-6.506-16.25-15.034-17.576L656.118 79.248S525.703 98.914 523.853 99.334" style="fill:url(#a);stroke:none;stroke-width:4.76973"/><path d="M790.81 173.467c5.428.844 10.035 4.15 12.659 8.724v-65.507c0 9.267-5.094 15.869-16.146 17.714-6.129 1.011-126.814 18.721-131.202 19.365z" style="fill:#162d66;fill-opacity:1;fill-rule:nonzero;stroke:none;stroke-width:4.76973"/><path d="M524.03 19.77C515.52 21.096 509 28.46 509 37.347c0 9.272 5.103 15.868 16.16 17.71 6.234 1.04 131.259 19.45 131.259 19.45V0Z" style="fill:url(#b);stroke:none;stroke-width:4.76973"/><path d="M512.989 49.04c-2.337-2.647-3.625-6.01-3.916-9.906v63.804c2.628-4.584 7.236-7.889 12.659-8.728L656.42 74.506c-4.388-.649-125.073-18.354-131.202-19.37-5.529-.92-9.578-3.043-12.23-6.095" style="fill:#162d66;fill-opacity:1;fill-rule:nonzero;stroke:none;stroke-width:4.76973"/><path d="M656.118 232.365s124.964-18.344 131.203-19.38c11.056-1.85 16.15-8.451 16.15-17.719 0-8.886-6.506-16.255-15.034-17.576l-132.319-19.842z" style="fill:url(#c);stroke:none;stroke-width:4.76973"/><path fill="#6f7173" d="M58.685 133.197c-3.24-3.667-8.336-9.403-15.442-17.37-7.452-8.38-13.512-15.362-18.004-20.723l-.398-.486h-8.69v55.597h10.185v-38.792l33.586 38.571.192.221h8.748V94.618H58.685ZM84.825 150.215H95V94.618H84.825ZM172.958 94.617h-17.055l-34.838 24.285V94.617h-10.177v55.596h10.177v-19.536l7.938-5.685 28.336 25.06.191.161h14.75l-34.934-30.942zM292.515 94.617l-22.29 41.053-22.04-40.707-.184-.346h-9.485v55.596h10.177v-33.336l17.887 32.99.184.346h6.988l18.064-33.336v33.336H302V94.617Z" style="stroke-width:7.36381"/><path fill="#6f7173" d="M219.265 122.834c0 13.675-10.722 18.557-20.751 18.557-10.03 0-20.751-4.882-20.751-18.557 0-13.682 10.721-18.557 20.75-18.557 10.03 0 20.752 4.875 20.752 18.557m-20.751-27.983c-18.903 0-31.105 10.987-31.105 27.983 0 16.996 12.202 27.983 31.105 27.983 18.888 0 31.105-10.987 31.105-27.983 0-16.996-12.217-27.983-31.105-27.983M57.283 231.345c-1.819 0-2.975-.87-2.975-2.688V175.82h7.762c1.568 0 2.805.354 2.805 2.35v19.197h11.561v9.389h-11.56v24.588zm-32.526-37.188h-.736c-5.118.17-8.093 4.087-8.093 10.604 0 5.994 3.137 10.685 8.498 10.685 5.206 0 8.505-4.69 8.505-10.685 0-6.517-3.137-10.434-8.174-10.604m-4.205 61.871c-3.637 0-6.03-3.041-6.03-5.655V229.09h10.567v15.376c0 1.657.33 2.349 2.142 2.349h39.294v9.212zm3.874-31.281c-10.81 0-18.896-8.432-18.896-19.986 0-3.829.987-7.474 2.887-10.604H2.725c-1.569 0-2.725-1.222-2.725-2.783v-6.606h19.146v-10.162h7.761c1.569 0 2.806.258 2.806 2.342v7.82h19.065v9.39h-8.329a20.466 20.466 0 0 1 2.96 10.603c0 11.554-8.166 19.986-18.983 19.986M119.5 214.926v11.73h17.083c2.563 0 3.638 1.127 3.638 3.042v27.194h-10.655v-21.024h-41.43v-9.212h20.715v-11.73H82.106c-1.73 0-2.798-1.134-2.798-2.784v-6.686h48.527c.825-3.74 1.326-8.608 1.326-11.296v-7.217H87.717v-9.212h48.373c2.143 0 3.711 1.392 3.711 3.476v12.688c0 2.518-.493 7.128-1.48 11.56h10.73v9.47zM209.984 231.345c-1.82 0-2.975-.87-2.975-2.688V175.82h7.761c1.569 0 2.806.354 2.806 2.35v19.197h11.56v9.389h-11.56v24.588zm-32.526-37.188h-.737c-5.118.17-8.093 4.087-8.093 10.604 0 5.994 3.137 10.685 8.498 10.685 5.207 0 8.506-4.69 8.506-10.685 0-6.517-3.137-10.434-8.174-10.604m-4.205 61.871c-3.638 0-6.031-3.041-6.031-5.655V229.09h10.567v15.376c0 1.657.331 2.349 2.143 2.349h39.293v9.212zm3.873-31.281c-10.81 0-18.895-8.432-18.895-19.986 0-3.829.986-7.474 2.886-10.604h-5.692c-1.568 0-2.724-1.222-2.724-2.783v-6.606h19.145v-10.162h7.762c1.568 0 2.806.258 2.806 2.342v7.82h19.064v9.39h-8.328a20.466 20.466 0 0 1 2.96 10.603c0 11.554-8.166 19.986-18.984 19.986M259.502 187.811c-6.76 0-10.648 5.913-10.648 13.034-.082 6.26 3.888 12.946 10.648 12.946 6.767 0 10.729-6.164 10.729-12.946 0-6.951-3.962-13.034-10.73-13.034m0 35.369c-12.871 0-21.288-10.17-21.288-22.335 0-12.157 8.417-22.423 21.289-22.423 12.879 0 21.377 10.266 21.377 22.423 0 12.165-8.498 22.335-21.377 22.335m33.262 33.284c-1.812 0-2.968-.957-2.968-2.783v-13.815c-5.692 1.73-12.798 2.953-19.234 2.953H236.8c-1.569 0-2.717-1.222-2.717-2.784v-6.686h37.393c5.03 0 11.966-.957 18.321-3.13v-54.396h7.762c1.568 0 2.798.434 2.798 2.349v78.292zM361.522 219.272v-43.447h7.762c1.65 0 2.805.516 2.805 2.519v6.34h11.554v9.47H372.09v7.563h11.554v9.381H372.09v8.174zm0 37.622V234.39h-39.787v-9.47h46.805c2.555 0 3.55 1.127 3.55 3.041v28.933zm-30.376-71.253c-6.443 0-10.235 5.302-10.316 11.296 0 5.472 3.873 11.385 10.316 11.385 6.355 0 10.236-5.39 10.236-11.385 0-5.913-3.88-11.296-10.236-11.296m0 31.893c-12.717 0-20.883-9.3-20.883-20.597 0-11.296 8.166-20.596 20.883-20.596 12.63 0 20.803 9.3 20.803 20.596 0 11.297-8.174 20.597-20.803 20.597M447.36 231.345c-1.818 0-2.974-.87-2.974-2.688V175.82h7.761c1.569 0 2.806.354 2.806 2.35v53.174zm-36.73 24.683c-3.63 0-6.024-3.041-6.024-5.655v-24.065h10.56v17.901c0 1.82.331 2.342 2.15 2.342h39.286v9.477zm21.046-34.153c-4.293-1.561-12.54-6.429-18.321-13.034-5.619 7.209-14.117 12.6-18.822 14.426l-5.2-4.78c-.824-.78-1.155-1.995.244-2.606 6.112-2.696 18.49-10.435 18.49-23.896v-3.13h-13.122c-1.568 0-2.806-1.215-2.806-2.695v-6.774h42.18v9.47h-15.604v3.129c0 13.122 12.298 19.463 17.917 22.415 1.399.781 1.075 1.738.243 2.607zM502.413 191.114h-2.232c-6.767.265-11.06 2.35-11.06 6.517 0 4.603 4.794 6.694 12.216 6.694 7.43 0 12.217-2.091 12.217-6.694 0-4.168-4.286-6.252-11.141-6.517m-1.076 46.23c-9.491 0-15.184 2.519-15.184 6.775 0 4.433 5.693 7.21 15.184 7.21 9.5 0 15.273-2.777 15.273-7.21 0-4.256-5.773-6.775-15.273-6.775m0 22.504c-14.933 0-25.832-4.779-25.832-15.817 0-10.862 10.899-15.641 25.832-15.641 14.942 0 25.921 4.779 25.921 15.64 0 11.039-10.98 15.818-25.92 15.818m0-46.834c-13.366 0-22.777-5.044-22.777-15.464 0-2.356.656-4.521 1.73-6.436h-7.672c-1.569 0-2.725-1.126-2.725-2.688v-6.259h26.083v-8.608h7.754c1.657 0 2.813.353 2.894 2.349v6.26h25.339v8.946h-9.573c1.148 1.915 1.811 4.08 1.811 6.436 0 10.42-9.492 15.464-22.865 15.464m-34.499 11.73c-1.73 0-2.806-1.133-2.806-2.694v-5.737h74.537v8.432zM600.553 237.344c-1.819 0-2.975-.876-2.975-2.695v-5.825h-14.772c-1.568 0-2.975-1.038-2.975-2.695v-5.56h17.747v-44.742h7.762c1.568 0 2.724.346 2.805 2.341v59.176zm-32.6-53.27c-6.774 0-11.067 2.26-11.067 6.952 0 4.61 4.293 7.047 11.068 7.047 6.76 0 11.053-2.438 11.053-7.047 0-4.603-4.293-6.952-11.053-6.952m-5.781 71.952c-3.638 0-6.031-3.041-6.031-5.648V232.91h10.648v11.296c0 1.826.331 2.35 2.32 2.35h40.685v9.469zm5.78-49.271c-13.21 0-21.715-5.825-21.715-15.73 0-9.904 8.505-15.633 21.716-15.633 13.203 0 21.708 5.73 21.708 15.634s-8.505 15.729-21.708 15.729m-7.512 23.203v-11.296h-15.03c-1.568 0-2.724-1.134-2.724-2.688v-6.001h29.72c3.712 0 12.792-.435 21.79-3.13v8.778c-6.605 2.084-17.172 3.04-22.04 3.04h-1.156v11.297zM14.524 294.138v-18.306H17.1l5.869 9.263a54.095 54.095 0 0 1 3.284 5.943l.052-.022c-.214-2.445-.273-4.684-.273-7.526v-7.658h2.224v18.306h-2.386l-5.81-9.286c-1.281-2.04-2.496-4.123-3.424-6.112l-.074.022c.126 2.32.185 4.514.185 7.556v7.82zM39.226 287.436c-2.606-.06-5.567.405-5.567 2.953 0 1.546 1.039 2.282 2.254 2.282 1.708 0 2.798-1.09 3.188-2.201.074-.243.125-.516.125-.751zm.354 6.7-.184-1.656h-.081c-.737 1.03-2.15 1.959-4.021 1.959-2.666 0-4.02-1.87-4.02-3.778 0-3.174 2.827-4.912 7.9-4.89v-.265c0-1.097-.301-3.048-2.989-3.048-1.215 0-2.496.375-3.417.98l-.552-1.577c1.09-.707 2.673-1.17 4.323-1.17 4.02 0 5 2.746 5 5.382v4.92c0 1.134.051 2.253.213 3.144zM48.163 277.216v3.778h3.417v1.819h-3.417v7.084c0 1.634.464 2.555 1.79 2.555.625 0 1.09-.081 1.384-.162l.11 1.79c-.464.19-1.193.323-2.113.323-1.112 0-2.01-.346-2.585-1.001-.677-.7-.92-1.87-.92-3.417v-7.172h-2.04v-1.82h2.04v-3.144zM54.272 280.996h2.386v13.144h-2.386zm2.666-3.69c.022.81-.575 1.459-1.525 1.459-.846 0-1.435-.648-1.435-1.458 0-.847.618-1.503 1.494-1.503.891 0 1.466.656 1.466 1.503M62.092 287.594c0 2.88 1.657 5.059 3.999 5.059 2.275 0 3.984-2.158 3.984-5.118 0-2.224-1.112-5.051-3.932-5.051-2.828 0-4.05 2.614-4.05 5.11m10.427-.14c0 4.86-3.366 6.988-6.54 6.988-3.564 0-6.303-2.614-6.303-6.767 0-4.396 2.88-6.974 6.517-6.974 3.778 0 6.326 2.732 6.326 6.753M75.53 284.553c0-1.363-.029-2.475-.102-3.557h2.113l.133 2.172h.058c.648-1.252 2.173-2.481 4.345-2.481 1.812 0 4.647 1.09 4.647 5.603v7.85H84.33v-7.577c0-2.114-.788-3.888-3.04-3.888-1.584 0-2.8 1.112-3.211 2.452-.104.294-.162.7-.162 1.112v7.901H75.53zM97.523 287.436c-2.607-.06-5.567.405-5.567 2.953 0 1.546 1.038 2.282 2.253 2.282 1.708 0 2.798-1.09 3.181-2.201.081-.243.133-.516.133-.751zm.353 6.7-.184-1.656h-.08c-.737 1.03-2.151 1.959-4.021 1.959-2.666 0-4.021-1.87-4.021-3.778 0-3.174 2.82-4.912 7.901-4.89v-.265c0-1.097-.302-3.048-2.99-3.048-1.214 0-2.496.375-3.424.98l-.545-1.577c1.09-.707 2.674-1.17 4.323-1.17 4.02 0 5 2.746 5 5.382v4.92c0 1.134.052 2.253.214 3.144zM103.683 275.54h2.394v18.6h-2.394zM460.097 292.746c.597.11 1.473.14 2.386.14 5.059 0 7.798-2.828 7.798-7.777.03-4.315-2.415-7.062-7.415-7.062-1.222 0-2.143.11-2.769.25zm-2.356-16.186a34.375 34.375 0 0 1 5.022-.383c3.395 0 5.81.795 7.415 2.29 1.628 1.488 2.57 3.616 2.57 6.569 0 2.99-.92 5.427-2.621 7.12-1.723 1.702-4.544 2.63-8.1 2.63-1.68 0-3.093-.082-4.286-.222zM484.186 286.774c.022-1.524-.626-3.88-3.314-3.88-2.423 0-3.476 2.223-3.667 3.88zm-7.01 1.701c.058 3.24 2.12 4.573 4.513 4.573 1.709 0 2.747-.302 3.638-.677l.405 1.708c-.84.376-2.283.81-4.367.81-4.05 0-6.465-2.65-6.465-6.62 0-3.969 2.334-7.091 6.163-7.091 4.286 0 5.428 3.777 5.428 6.193 0 .493-.052.876-.081 1.104zM490.376 281.477l2.57 7.386c.435 1.2.796 2.283 1.068 3.373h.074c.302-1.09.685-2.172 1.12-3.373l2.547-7.386h2.504l-5.162 13.145h-2.276l-5-13.145zM510.576 286.774c.022-1.524-.633-3.88-3.314-3.88-2.422 0-3.475 2.223-3.667 3.88zm-7.01 1.701c.059 3.24 2.12 4.573 4.514 4.573 1.708 0 2.74-.302 3.638-.677l.405 1.708c-.84.376-2.283.81-4.367.81-4.05 0-6.473-2.65-6.473-6.62 0-3.969 2.342-7.091 6.17-7.091 4.294 0 5.428 3.777 5.428 6.193 0 .493-.052.876-.08 1.104zM515.843 275.54h2.386v19.086h-2.386zM523.715 288.074c0 2.88 1.657 5.059 3.999 5.059 2.275 0 3.984-2.15 3.984-5.118 0-2.224-1.112-5.044-3.933-5.044-2.827 0-4.05 2.607-4.05 5.103m10.435-.133c0 4.86-3.373 6.981-6.547 6.981-3.564 0-6.303-2.606-6.303-6.76 0-4.403 2.88-6.98 6.517-6.98 3.778 0 6.333 2.739 6.333 6.76M539.512 289.27c0 .354.06.686.118.98.427 1.657 1.863 2.799 3.579 2.799 2.526 0 3.991-2.062 3.991-5.081 0-2.63-1.384-4.89-3.903-4.89-1.634 0-3.159 1.163-3.615 2.96-.081.302-.17.656-.17.98zm-2.356-3.504c0-1.68-.06-3.042-.11-4.286h2.142l.11 2.246h.06c.972-1.598 2.518-2.548 4.66-2.548 3.182 0 5.575 2.688 5.575 6.68 0 4.727-2.886 7.068-5.98 7.068-1.737 0-3.254-.773-4.042-2.069h-.059V300h-2.356zM552.609 285.037c0-1.363-.037-2.475-.11-3.557h2.09l.104 2.12h.088c.73-1.251 1.951-2.422 4.131-2.422 1.79 0 3.145 1.075 3.719 2.636h.059a5.188 5.188 0 0 1 1.458-1.708c.788-.597 1.657-.928 2.909-.928 1.737 0 4.322 1.141 4.322 5.707v7.74h-2.342v-7.438c0-2.533-.927-4.058-2.857-4.058-1.355 0-2.408 1.017-2.827 2.18a4.088 4.088 0 0 0-.185 1.186v8.13h-2.334v-7.887c0-2.084-.92-3.609-2.747-3.609-1.487 0-2.577 1.2-2.952 2.386-.14.368-.192.774-.192 1.179v7.93h-2.334zM583.588 286.774c.022-1.524-.633-3.88-3.313-3.88-2.423 0-3.476 2.223-3.668 3.88zm-7.01 1.701c.059 3.24 2.12 4.573 4.514 4.573 1.701 0 2.747-.302 3.638-.677l.405 1.708c-.84.376-2.283.81-4.367.81-4.05 0-6.465-2.65-6.465-6.62 0-3.969 2.334-7.091 6.163-7.091 4.286 0 5.427 3.777 5.427 6.193 0 .493-.051.876-.073 1.104zM588.857 285.037c0-1.363-.03-2.475-.11-3.557h2.12l.133 2.172h.052c.655-1.252 2.18-2.474 4.352-2.474 1.811 0 4.646 1.075 4.646 5.597v7.85h-2.393v-7.578c0-2.12-.795-3.888-3.041-3.888-1.583 0-2.798 1.112-3.203 2.445-.11.302-.17.707-.17 1.119v7.901h-2.386zM606.699 277.705v3.77h3.417v1.82h-3.417v7.09c0 1.628.457 2.556 1.79 2.556a5.31 5.31 0 0 0 1.384-.162l.11 1.782c-.464.199-1.193.331-2.12.331-1.113 0-2.01-.353-2.578-1.001-.677-.707-.92-1.878-.92-3.424v-7.173h-2.04v-1.819h2.04v-3.144zM118.838 293.846h-2.364v-18.307h2.364zM123.16 284.255c0-1.363-.037-2.482-.11-3.565h2.12l.133 2.18h.051c.656-1.252 2.18-2.467 4.352-2.467 1.812 0 4.647 1.075 4.647 5.59v7.85h-2.393v-7.578c0-2.114-.796-3.888-3.042-3.888-1.583 0-2.798 1.112-3.21 2.437a3.71 3.71 0 0 0-.162 1.127v7.901h-2.386zM137.9 291.39c.714.472 1.959.958 3.152.958 1.738 0 2.555-.869 2.555-1.959 0-1.14-.678-1.76-2.445-2.415-2.371-.847-3.476-2.15-3.476-3.719 0-2.12 1.709-3.866 4.53-3.866 1.34 0 2.51.39 3.232.825l-.597 1.738a5.04 5.04 0 0 0-2.687-.758c-1.407 0-2.202.81-2.202 1.782 0 1.09.795 1.575 2.504 2.238 2.282.87 3.453 2.01 3.453 3.955 0 2.312-1.797 3.94-4.919 3.94-1.443 0-2.769-.354-3.696-.9zM151.86 276.918v3.77h3.416v1.827h-3.416v7.084c0 1.634.456 2.555 1.789 2.555a5.31 5.31 0 0 0 1.384-.162l.11 1.79c-.463.19-1.192.323-2.12.323-1.112 0-2.01-.353-2.577-1.001-.678-.707-.92-1.87-.92-3.417v-7.172h-2.04v-1.827h2.04v-3.137zM157.97 280.701h2.385v13.145h-2.386zm2.658-3.704c.03.818-.567 1.473-1.517 1.473-.84 0-1.444-.655-1.444-1.473 0-.84.626-1.487 1.495-1.487.899 0 1.466.648 1.466 1.487M167.196 276.918v3.77h3.417v1.827h-3.417v7.084c0 1.634.457 2.555 1.797 2.555.626 0 1.082-.081 1.384-.162l.103 1.79c-.456.19-1.193.323-2.12.323-1.105 0-2.003-.353-2.578-1.001-.67-.707-.92-1.87-.92-3.417v-7.172h-2.04v-1.827h2.04v-3.137zM184.305 290.258c0 1.355.03 2.548.11 3.587h-2.12l-.14-2.15h-.052a4.922 4.922 0 0 1-4.338 2.444c-2.069 0-4.543-1.149-4.543-5.758v-7.688h2.393v7.283c0 2.496.759 4.175 2.93 4.175 1.606 0 2.718-1.112 3.153-2.172.14-.347.213-.788.213-1.216v-8.07h2.393zM191.15 276.918v3.77h3.416v1.827h-3.417v7.084c0 1.634.464 2.555 1.79 2.555a5.31 5.31 0 0 0 1.384-.162l.11 1.79c-.463.19-1.2.323-2.113.323-1.12 0-2.018-.353-2.585-1.001-.677-.707-.92-1.87-.92-3.417v-7.172h-2.04v-1.827h2.04v-3.137zM205.428 285.992c.022-1.525-.626-3.881-3.313-3.881-2.423 0-3.476 2.224-3.667 3.88zm-7.003 1.708c.052 3.24 2.121 4.558 4.507 4.558 1.708 0 2.74-.287 3.638-.677l.405 1.716c-.84.375-2.283.81-4.367.81-4.05 0-6.465-2.651-6.465-6.62 0-3.97 2.334-7.084 6.163-7.084 4.293 0 5.427 3.77 5.427 6.185 0 .494-.051.87-.08 1.112zM228.343 287.296c0 2.879 1.657 5.051 3.991 5.051 2.283 0 3.992-2.15 3.992-5.11 0-2.224-1.112-5.045-3.933-5.045-2.827 0-4.05 2.607-4.05 5.104m10.427-.14c0 4.86-3.365 6.988-6.539 6.988-3.564 0-6.303-2.614-6.303-6.76 0-4.411 2.879-6.981 6.517-6.981 3.777 0 6.325 2.732 6.325 6.753M219.98 294.138v-11.326h-1.848v-1.818h1.848v-.634c0-1.833.398-3.527 1.517-4.58.898-.862 2.091-1.222 3.203-1.222.847 0 1.583.191 2.04.375l-.324 1.856c-.353-.17-.847-.302-1.517-.302-2.04 0-2.555 1.79-2.555 3.8v.707h3.174v1.818h-3.174v11.326zM242.102 285.097c0-1.554-.03-2.88-.103-4.102h2.084l.081 2.578h.11c.597-1.768 2.04-2.887 3.638-2.887.273 0 .464.044.685.096v2.246a3.373 3.373 0 0 0-.817-.082c-1.687 0-2.88 1.274-3.203 3.071-.052.332-.111.707-.111 1.112v7.01h-2.364zM259 275.534h2.357v8.83h.089c.486-.7.972-1.355 1.436-1.96l5.589-6.87h2.938l-6.627 7.77 7.142 10.537h-2.79l-6.039-8.991-1.738 2.01v6.98h-2.356zM275.099 287.296c0 2.879 1.657 5.051 3.999 5.051 2.275 0 3.983-2.15 3.983-5.11 0-2.224-1.112-5.045-3.932-5.045-2.828 0-4.05 2.607-4.05 5.104m10.427-.14c0 4.86-3.365 6.988-6.539 6.988-3.564 0-6.303-2.614-6.303-6.76 0-4.411 2.879-6.981 6.517-6.981 3.77 0 6.325 2.732 6.325 6.753M288.545 284.8c0-1.554-.03-2.88-.104-4.11h2.084l.081 2.585h.11c.597-1.767 2.033-2.887 3.638-2.887.266 0 .457.037.685.096v2.246a3.398 3.398 0 0 0-.824-.08c-1.68 0-2.88 1.273-3.204 3.062a7.24 7.24 0 0 0-.103 1.12v7.01h-2.364zM305.485 285.992c.03-1.525-.626-3.881-3.314-3.881-2.422 0-3.475 2.224-3.667 3.88zm-7.01 1.708c.059 3.24 2.12 4.558 4.514 4.558 1.708 0 2.746-.287 3.637-.677l.405 1.716c-.84.375-2.275.81-4.366.81-4.05 0-6.458-2.651-6.458-6.62 0-3.97 2.327-7.084 6.156-7.084 4.293 0 5.427 3.77 5.427 6.185 0 .494-.052.87-.074 1.112zM317.68 287.137c-2.6-.059-5.568.405-5.568 2.953 0 1.547 1.039 2.283 2.261 2.283 1.701 0 2.791-1.09 3.174-2.202.08-.235.132-.515.132-.758zm.346 6.701-.177-1.656h-.081c-.744 1.03-2.15 1.958-4.02 1.958-2.666 0-4.029-1.877-4.029-3.777 0-3.174 2.828-4.912 7.909-4.897v-.258c0-1.09-.302-3.049-2.99-3.049-1.215 0-2.496.383-3.424.98l-.545-1.576c1.09-.7 2.666-1.164 4.323-1.164 4.02 0 4.992 2.74 4.992 5.376v4.92c0 1.133.06 2.252.221 3.143zM323.842 284.255c0-1.363-.03-2.482-.11-3.565h2.12l.133 2.18h.059c.648-1.252 2.172-2.467 4.345-2.467 1.811 0 4.646 1.075 4.646 5.59v7.85h-2.393v-7.578c0-2.114-.795-3.888-3.041-3.888-1.584 0-2.799 1.112-3.204 2.437-.11.31-.169.714-.169 1.127v7.901h-2.386zM361.343 285.805c-.14-2.555-.302-5.633-.272-7.909h-.081a117.328 117.328 0 0 1-2.305 6.952l-3.233 8.888h-1.796l-2.953-8.726c-.877-2.585-1.606-4.941-2.129-7.114h-.051a242.45 242.45 0 0 1-.354 8.093l-.486 7.85h-2.253l1.274-18.306h3.012l3.13 8.851c.758 2.26 1.384 4.271 1.84 6.17h.089c.456-1.847 1.104-3.858 1.922-6.17l3.262-8.851h3.012l1.141 18.306H361.8zM376.164 285.992c.022-1.525-.626-3.881-3.313-3.881-2.423 0-3.476 2.224-3.668 3.88zm-7.01 1.708c.059 3.24 2.12 4.558 4.514 4.558 1.708 0 2.747-.287 3.638-.677l.405 1.716c-.84.375-2.283.81-4.367.81-4.05 0-6.458-2.651-6.458-6.62 0-3.97 2.327-7.084 6.156-7.084 4.293 0 5.427 3.77 5.427 6.185 0 .494-.051.87-.073 1.112zM390.392 286.039c0-.295-.022-.7-.11-1.002-.346-1.51-1.65-2.768-3.447-2.768-2.474 0-3.94 2.18-3.94 5.073 0 2.673 1.311 4.86 3.889 4.86 1.598 0 3.063-1.053 3.498-2.842.088-.324.11-.648.11-1.038zm2.393-10.5v14.903c0 1.171.022 2.504.11 3.403h-2.142l-.11-2.283h-.06c-.736 1.465-2.334 2.577-4.477 2.577-3.181 0-5.618-2.688-5.618-6.686-.03-4.36 2.687-7.055 5.883-7.055 2.01 0 3.373.95 3.97 2.01h.051v-6.87zM396.748 280.701h2.386v13.145h-2.386zm2.666-3.704c.03.818-.582 1.473-1.524 1.473-.84 0-1.436-.655-1.436-1.473 0-.84.618-1.487 1.487-1.487.891 0 1.473.648 1.473 1.487M412.475 293.351c-.626.324-2.01.759-3.777.759-3.962 0-6.547-2.688-6.547-6.709 0-4.043 2.776-6.973 7.062-6.973 1.414 0 2.673.353 3.321.677l-.552 1.841c-.567-.324-1.465-.626-2.769-.626-3.012 0-4.639 2.231-4.639 4.97 0 3.05 1.951 4.912 4.558 4.912 1.362 0 2.254-.338 2.931-.64zM415.261 280.701h2.386v13.145h-2.386zm2.666-3.704c.03.818-.567 1.473-1.517 1.473-.847 0-1.443-.655-1.443-1.473 0-.84.618-1.487 1.494-1.487.899 0 1.466.648 1.466 1.487M421.621 284.255c0-1.363-.03-2.482-.103-3.565h2.114l.132 2.18h.052c.655-1.252 2.18-2.467 4.352-2.467 1.811 0 4.646 1.075 4.646 5.59v7.85h-2.393v-7.578c0-2.114-.795-3.888-3.041-3.888-1.583 0-2.798 1.112-3.21 2.437a3.71 3.71 0 0 0-.163 1.127v7.901h-2.386zM445.03 285.992c.022-1.525-.626-3.881-3.314-3.881-2.422 0-3.475 2.224-3.667 3.88zm-7.01 1.708c.059 3.24 2.113 4.558 4.506 4.558 1.716 0 2.754-.287 3.645-.677l.405 1.716c-.839.375-2.282.81-4.366.81-4.05 0-6.473-2.651-6.473-6.62 0-3.97 2.342-7.084 6.17-7.084 4.287 0 5.428 3.77 5.428 6.185 0 .494-.052.87-.081 1.112z" style="stroke-width:7.36381"/></svg>