<svg xmlns="http://www.w3.org/2000/svg" xml:space="preserve" width="968.01831" height="400" viewBox="0 0 968.01831 399.99999"><path d="m110.264 561.932-3.79 4.592h-1.01v-4.389c0-.222-.263-.335-.82-.335-.556 0-.82.113-.82.335v10.58h1.64v-4.768h.98l3.32 4.768h1.804l-3.791-5.399 4.375-5.384z" style="fill:#013766;fill-opacity:1;fill-rule:nonzero;stroke:none" transform="matrix(2.42886 0 0 -2.42886 -247.956 1764.386)"/><path d="M116.502 571.502c-2.253 0-3.364-1.946-3.364-4.171 0-2.241 1.111-4.171 3.364-4.171 2.21 0 3.324 1.93 3.324 4.17 0 2.226-1.114 4.172-3.324 4.172m-.014 1.42c2.884 0 5.006-2.24 5.006-5.591 0-3.364-2.122-5.591-5.006-5.591-2.883 0-5.005 2.227-5.005 5.59 0 3.352 2.122 5.593 5.005 5.593M127.09 567.478c1.332 0 1.9.643 1.9 1.917 0 1.271-.599 1.902-1.959 1.902h-2.68v-3.819zm-4.377 5.237h4.273c2.605 0 3.644-1.418 3.644-3.32 0-1.494-.658-2.724-2.195-3.162l2.707-4.3h-1.859l-2.532 4.125h-2.4v-3.923c0-.233-.292-.335-.818-.335-.527 0-.82.102-.82.335zM133.65 561.932c-.336 0-.836.334-1.142.658-.307.307-.6.746-.6 1.01v9.115h6.908c.264 0 .365-.204.365-.702 0-.496-.101-.716-.365-.716h-5.268v-3.087h4.918c.247 0 .35-.207.35-.703 0-.484-.103-.717-.35-.717h-4.918v-2.943c0-.394.145-.498.482-.498h4.904c.263 0 .366-.22.366-.718 0-.467-.103-.699-.366-.699zM144.777 570.344l-1.713-4.742h3.366zm2.898-8.412-.761 2.253h-4.333l-.79-2.253h-1.682l3.98 10.782h1.318l3.95-10.782zM161.205 564.77c-.221-.44-.528-.732-1.113-.732-.555 0-.922.292-1.142.732l-2.326 5.105h-.03v-7.74c0-.233-.292-.336-.82-.336-.526 0-.82.103-.82.335v10.58h2.035l3.103-6.773 3.104 6.773h2.017v-10.58c0-.22-.263-.335-.818-.335-.482 0-.806.087-.806.335v7.741h-.043zM170.987 570.344l-1.713-4.742h3.366zm2.898-8.412-.762 2.253h-4.332l-.789-2.253h-1.684l3.982 10.782h1.316l3.952-10.782zM181.045 567.478c1.333 0 1.903.643 1.903 1.917 0 1.271-.6 1.902-1.962 1.902h-2.677v-3.819zm-4.374 5.237h4.273c2.603 0 3.645-1.418 3.645-3.32 0-1.494-.66-2.724-2.198-3.162l2.71-4.3h-1.86l-2.532 4.125h-2.4v-3.923c0-.233-.292-.335-.82-.335-.525 0-.818.102-.818.335zM185.866 561.932v1.417h1.36v7.948h-1.36v1.418h4.095c.25 0 .353-.204.353-.702 0-.483-.103-.716-.353-.716h-1.095v-7.948h1.095c.25 0 .353-.204.353-.7 0-.469-.103-.717-.353-.717zM191.312 571.298v1.417h7.61c.25 0 .366-.204.366-.701 0-.483-.116-.716-.366-.716h-2.899v-9.163c0-.233-.29-.335-.833-.335-.526 0-.806.102-.806.335v9.163zM200.273 561.932v1.417h1.36v7.948h-1.36v1.418h4.097c.248 0 .351-.204.351-.702 0-.483-.103-.716-.35-.716h-1.098v-7.948h1.097c.248 0 .351-.204.351-.7 0-.469-.103-.717-.35-.717zM212.334 564.77c-.219-.44-.527-.732-1.11-.732-.56 0-.922.292-1.143.732l-2.327 5.105h-.03v-7.74c0-.233-.292-.336-.82-.336-.525 0-.82.103-.82.335v10.58h2.036l3.104-6.773 3.102 6.773h2.019v-10.58c0-.22-.264-.335-.82-.335-.483 0-.805.087-.805.335v7.741h-.043zM219.586 561.932c-.336 0-.835.334-1.142.658-.307.307-.6.746-.6 1.01v9.115h6.908c.263 0 .365-.204.365-.702 0-.496-.102-.716-.365-.716h-5.27v-3.087h4.918c.249 0 .352-.207.352-.703 0-.484-.103-.717-.352-.717h-4.917v-2.943c0-.394.146-.498.482-.498h4.903c.263 0 .366-.22.366-.718 0-.467-.103-.699-.366-.699zM230.569 571.298v1.417h7.609c.249 0 .367-.204.367-.701 0-.483-.118-.716-.367-.716h-2.898v-9.163c0-.233-.291-.335-.834-.335-.526 0-.805.102-.805.335v9.163zM243.905 567.478c1.33 0 1.902.643 1.902 1.917 0 1.271-.6 1.902-1.961 1.902h-2.678v-3.819zm-4.376 5.237h4.273c2.604 0 3.643-1.418 3.643-3.32 0-1.494-.657-2.724-2.195-3.162l2.707-4.3h-1.858l-2.531 4.125h-2.4v-3.923c0-.233-.293-.335-.82-.335-.526 0-.82.102-.82.335zM252.998 570.344l-1.713-4.742h3.366zm2.899-8.412-.763 2.253h-4.331l-.79-2.253h-1.684l3.98 10.782h1.319l3.95-10.782zM258.68 572.715h2.137l4.537-8.046h.058v8.046h1.64v-10.782h-1.873l-4.802 8.25h-.057v-8.048c0-.234-.294-.335-.82-.335s-.82.101-.82.335zM268.52 562.502c-.205.116-.335.279-.132.789.235.542.41.6.644.499.659-.277 1.757-.63 2.723-.63 1.652 0 2.75.543 2.75 1.655 0 .994-1.037 1.316-2.795 2.032-.804.323-1.653.746-2.239 1.332-.497.5-.79 1.129-.79 1.875 0 2.165 1.889 2.869 3.834 2.869 1.215 0 2.431-.498 2.928-.79.22-.12.348-.25.131-.763-.218-.541-.395-.614-.644-.513-.615.279-1.493.645-2.459.645-1.302 0-2.136-.47-2.136-1.434 0-.822.731-1.317 2.282-1.991.937-.41 1.904-.746 2.591-1.302.573-.467.952-1.084.952-1.96 0-.924-.41-1.786-1.23-2.343-.717-.498-1.756-.732-3.175-.732-1.362 0-2.736.482-3.235.762M281.842 567.478c1.331 0 1.902.643 1.902 1.917 0 1.271-.6 1.902-1.96 1.902h-2.679v-3.819zm-4.376 5.237h4.274c2.605 0 3.644-1.418 3.644-3.32 0-1.888-1.039-3.337-3.585-3.337h-2.694v-3.923c0-.233-.292-.335-.818-.335-.528 0-.82.102-.82.335zM291.243 571.502c-2.254 0-3.368-1.946-3.368-4.171 0-2.241 1.114-4.171 3.368-4.171 2.21 0 3.323 1.93 3.323 4.17 0 2.226-1.113 4.172-3.323 4.172m-.016 1.42c2.884 0 5.003-2.24 5.003-5.591 0-3.364-2.12-5.591-5.003-5.591-2.882 0-5.004 2.227-5.004 5.59 0 3.352 2.122 5.593 5.004 5.593M301.83 567.478c1.332 0 1.901.643 1.901 1.917 0 1.271-.599 1.902-1.96 1.902h-2.679v-3.819zm-4.375 5.237h4.271c2.604 0 3.645-1.418 3.645-3.32 0-1.494-.657-2.724-2.195-3.162l2.707-4.3h-1.86l-2.529 4.125h-2.402v-3.923c0-.233-.293-.335-.82-.335-.526 0-.817.102-.817.335zM305.992 571.298v1.417h7.608c.25 0 .367-.204.367-.701 0-.483-.117-.716-.367-.716h-2.897v-9.163c0-.233-.293-.335-.834-.335-.528 0-.807.102-.807.335v9.163zM318.053 570.344l-1.711-4.742h3.366zm2.898-8.412-.761 2.253h-4.332l-.79-2.253h-1.683l3.982 10.782h1.317l3.949-10.782zM322.2 571.298v1.417h7.608c.25 0 .368-.204.368-.701 0-.483-.118-.716-.368-.716h-2.897v-9.163c0-.233-.292-.335-.832-.335-.526 0-.806.102-.806.335v9.163zM331.16 561.932v1.417h1.362v7.948h-1.362v1.418h4.098c.25 0 .351-.204.351-.702 0-.483-.1-.716-.35-.716h-1.098v-7.948h1.097c.25 0 .351-.204.351-.7 0-.469-.1-.717-.35-.717zM341.408 571.502c-2.255 0-3.367-1.946-3.367-4.171 0-2.241 1.112-4.171 3.367-4.171 2.21 0 3.322 1.93 3.322 4.17 0 2.226-1.113 4.172-3.322 4.172m-.016 1.42c2.883 0 5.006-2.24 5.006-5.591 0-3.364-2.123-5.591-5.006-5.591-2.882 0-5.002 2.227-5.002 5.59 0 3.352 2.12 5.593 5.002 5.593M347.62 572.715h2.134l4.54-8.046h.056v8.046h1.64v-10.782h-1.876l-4.797 8.25h-.059v-8.048c0-.234-.293-.335-.82-.335-.526 0-.819.101-.819.335zM361.953 562.502c-.203.116-.337.279-.132.789.234.542.41.6.644.499.66-.277 1.756-.63 2.723-.63 1.654 0 2.75.543 2.75 1.655 0 .994-1.036 1.316-2.796 2.032-.802.323-1.652.746-2.237 1.332-.498.5-.792 1.129-.792 1.875 0 2.165 1.891 2.869 3.836 2.869 1.215 0 2.43-.498 2.926-.79.221-.12.351-.25.131-.763-.219-.541-.395-.614-.644-.513-.612.279-1.493.645-2.457.645-1.303 0-2.138-.47-2.138-1.434 0-.822.733-1.317 2.284-1.991.936-.41 1.902-.746 2.59-1.302.57-.467.95-1.084.95-1.96 0-.924-.408-1.786-1.229-2.343-.716-.498-1.754-.732-3.174-.732-1.36 0-2.739.482-3.235.762M374.734 570.344l-1.713-4.742h3.366zm2.898-8.412-.763 2.253h-4.332l-.787-2.253h-1.686l3.981 10.782h1.32l3.947-10.782zM382.057 562.134c0-.22-.264-.335-.82-.335-.483 0-.817.087-.817.335v10.58h6.92c.264 0 .365-.204.365-.7 0-.484-.101-.717-.365-.717h-5.283v-3.074h5.107c.25 0 .368-.22.368-.717 0-.483-.118-.716-.368-.716h-5.107zM390.607 561.932c-.336 0-.834.334-1.143.658-.306.307-.599.746-.599 1.01v9.115h6.91c.262 0 .362-.204.362-.702 0-.496-.1-.716-.362-.716h-5.27v-3.087h4.917c.247 0 .353-.207.353-.703 0-.484-.106-.717-.353-.717h-4.917v-2.943c0-.394.147-.498.485-.498h4.9c.264 0 .366-.22.366-.718 0-.467-.102-.699-.367-.699zM397.096 571.298v1.417h7.608c.25 0 .368-.204.368-.701 0-.483-.118-.716-.368-.716h-2.897v-9.163c0-.233-.291-.335-.834-.335-.525 0-.806.102-.806.335v9.163zM410.886 562.134c0-.248-.353-.335-.82-.335-.527 0-.82.114-.82.335v4.26l-3.584 6.32h1.813l2.592-4.83 2.558 4.83h1.828l-3.567-6.32zM424.325 570.344l-1.712-4.742h3.367zm2.9-8.412-.762 2.253h-4.332l-.79-2.253h-1.68l3.977 10.782h1.318l3.952-10.782zM436.3 566.04v6.676h1.642v-6.675c0-2.926-1.713-4.302-4.17-4.302-2.46 0-4.201 1.376-4.201 4.302v6.675h1.638v-6.675c0-1.867 1.055-2.882 2.563-2.882 1.506 0 2.529 1.015 2.529 2.882M439.088 571.298v1.417h7.61c.249 0 .365-.204.365-.701 0-.483-.116-.716-.364-.716h-2.897v-9.163c0-.233-.293-.335-.836-.335-.526 0-.804.102-.804.335v9.163zM456.201 562.134c0-.22-.263-.335-.822-.335-.48 0-.817.087-.817.335v4.595h-4.875v-4.595c0-.232-.289-.335-.818-.335-.525 0-.82.103-.82.335v10.58h1.638v-4.563h4.875v4.563h1.64zM462.426 571.502c-2.252 0-3.365-1.946-3.365-4.171 0-2.241 1.113-4.171 3.365-4.171 2.209 0 3.32 1.93 3.32 4.17 0 2.226-1.111 4.172-3.32 4.172m-.018 1.42c2.886 0 5.008-2.24 5.008-5.591 0-3.364-2.122-5.591-5.008-5.591-2.881 0-5.001 2.227-5.001 5.59 0 3.352 2.12 5.593 5 5.593M473.012 567.478c1.33 0 1.904.643 1.904 1.917 0 1.271-.601 1.902-1.961 1.902h-2.68v-3.819zm-4.377 5.237h4.273c2.607 0 3.645-1.418 3.645-3.32 0-1.494-.658-2.724-2.193-3.162l2.707-4.3h-1.856l-2.535 4.125h-2.401v-3.923c0-.233-.292-.335-.82-.335-.525 0-.82.102-.82.335zM477.831 561.932v1.417h1.361v7.948h-1.36v1.418h4.1c.247 0 .346-.204.346-.702 0-.483-.099-.716-.347-.716h-1.1v-7.948h1.1c.248 0 .347-.204.347-.7 0-.469-.099-.717-.347-.717zM483.277 571.298v1.417h7.608c.248 0 .368-.204.368-.701 0-.483-.12-.716-.368-.716h-2.896v-9.163c0-.233-.29-.335-.834-.335-.525 0-.805.102-.805.335v9.163zM497.07 562.134c0-.248-.356-.335-.823-.335-.526 0-.819.114-.819.335v4.26l-3.588 6.32h1.82l2.587-4.83 2.56 4.83h1.828l-3.566-6.32zM255.274 623.382h-4.831v-21.71c0-.058.015-.105.026-.157 0-.036-.01-.07-.01-.109 0-1.393 1.08-2.524 2.414-2.524 1.333 0 2.415 1.131 2.415 2.524 0 .077-.014.15-.021.226 0 .012.007.023.007.04v4.46h6.397v4.323h-6.397v4.87h6.397v4.324h-6.397z" style="fill:#013766;fill-opacity:1;fill-rule:nonzero;stroke:none" transform="matrix(2.42886 0 0 -2.42886 -247.956 1764.386)"/><path d="M243.828 586.159c-3.437 0-5.613 2.41-5.613 5.597 0 3.186 2.176 5.597 5.613 5.597 3.438 0 5.615-2.411 5.615-5.597 0-3.187-2.177-5.597-5.615-5.597m0 15.517c-5.787 0-10.399-3.958-10.399-9.92s4.612-9.92 10.4-9.92c5.79 0 10.4 3.958 10.4 9.92s-4.61 9.92-10.4 9.92M228.207 612.684c0 3.098 1.914 5.781 5.483 5.781 3.568 0 5.482-2.683 5.482-5.78 0-3.092-1.914-5.779-5.482-5.779-3.57 0-5.483 2.687-5.483 5.778m15.754 0c0 5.826-4.354 10.104-10.272 10.104-5.916 0-10.27-4.278-10.27-10.104 0-5.825 4.353-10.103 10.27-10.103 5.919 0 10.272 4.278 10.272 10.103M193.836 596.074c-2.568 0-3.959 2.094-3.959 4.96 0 2.867 1.391 4.962 3.96 4.962 2.567 0 3.961-2.095 3.961-4.961 0-2.867-1.394-4.961-3.962-4.961m0 14.2c-5.395 0-8.659-4.006-8.659-9.24 0-5.232 3.264-9.24 8.66-9.24 5.397 0 8.616 4.008 8.616 9.24 0 5.234-3.219 9.24-8.617 9.24M214.03 609.636h-4.048v12.835h-4.744v-37.729c-.01-.098-.03-.197-.03-.299 0-1.383 1.072-2.5 2.393-2.5 1.32 0 2.392 1.117 2.392 2.5 0 .07-.015.135-.02.203.001.024.01.046.01.07v20.507h4.046v-20.358a2.692 2.692 0 0 1-.045-.442c0-1.394 1.084-2.526 2.418-2.526 1.196 0 2.184.916 2.373 2.115.025.077.04.16.04.25v38.665h-4.786zM202.833 616.39a.816.816 0 0 1-.425.118h-6.134v6.054h-4.917v-6.054h-7.79v-4.415h18.841c.124 0 .232.028.33.067.993.155 1.755 1.04 1.755 2.12 0 1.045-.714 1.916-1.66 2.11M179.39 608.233c-.016 0-.032-.008-.05-.009h-5.374v10.15c0 .107-.016.219-.042.342-.17 2.629-2.26 4.711-4.82 4.711-.029 0-.054-.007-.08-.007-.022 0-.044.007-.063.007h-20.453v-4.371h19.233c.96 0 1.392-.318 1.392-1.501v-9.331h-26.152v-4.369h16.058v-5.871h-10.878v-4.416h21.627v-9.047c0-.033-.012-.065-.012-.098 0-1.394 1.084-2.526 2.416-2.526 1.223 0 2.224.957 2.382 2.192a.912.912 0 0 1 .042.285v11.608c0 1.548-.52 2.002-1.956 2.002h-8.79v5.871h15.491c.141 0 .266.035.38.096.971.175 1.714 1.053 1.714 2.121 0 1.194-.926 2.161-2.065 2.161M449.339 617.547v-7.74c0-.729.913-1.044 2.392-1.044 1.568 0 2.437.315 2.437 1.044v7.82c.034.232.05.468.05.707 0 2.793-2.166 5.059-4.833 5.059h-.005c-.071.009-.147.024-.215.024H428.8v-4.37h19.145c.957 0 1.394-.317 1.394-1.5M441.377 586.162c-3.18 0-5.702 2.14-5.702 5.053 0 2.956 2.522 5.05 5.702 5.05 3.263 0 5.785-2.094 5.785-5.05 0-2.912-2.522-5.053-5.785-5.053m.043 14.38c-5.398 0-10.531-3.14-10.531-9.327 0-6.147 5.133-9.331 10.531-9.331 5.396 0 10.529 3.184 10.529 9.33 0 6.188-5.133 9.329-10.529 9.329" style="fill:#013766;fill-opacity:1;fill-rule:nonzero;stroke:none" transform="matrix(2.42886 0 0 -2.42886 -247.956 1764.386)"/><path d="M458.76 606.035a.91.91 0 0 1-.27.044h-17.636v7.325h-4.832v-7.325h-13.055v-4.28h35.516c.019 0 .037-.005.058-.005 1.127 0 2.04.954 2.04 2.13 0 1.099-.796 1.995-1.82 2.11M494.24 612.638v10.742h-4.83v-27.853c0-.042.013-.076.018-.117 0-.024-.01-.048-.01-.075 0-1.384 1.077-2.51 2.403-2.51 1.328 0 2.402 1.126 2.402 2.51 0 .027-.007.048-.007.074.007.04.023.075.023.118v12.744h6.395v4.367zM484.708 601.444c.084 0 .159.012.231.03 1.05.114 1.871 1.03 1.871 2.154 0 1.145-.85 2.071-1.916 2.16-.064.01-.119.024-.186.024h-14.883c-.999 0-1.303.277-1.303 1.321v10.378h13.596c.012 0 .028-.005.043-.005.016 0 .03.005.043.005h.067c.092 0 .178.011.257.035.975.178 1.716 1.068 1.716 2.137 0 1.047-.708 1.916-1.647 2.127a.841.841 0 0 1-.326.071h-18.582v-15.34c0-.019.007-.04.01-.057-.003-.035-.01-.071-.01-.104 0-2.73 2.114-4.943 4.724-4.943.062 0 .123.016.183.019.035-.002.068-.012.101-.012zM492.526 586.25c-.029 0-.059-.008-.09-.01-.019.002-.039.01-.062.01H475.7c-.825 0-1.35.498-1.35 1.5v8.968h-4.828v-9.607c-.005-.072-.015-.145-.015-.22 0-2.791 2.163-5.057 4.836-5.057.035 0 .07.01.103.01.026 0 .053-.01.08-.01h17.848c.05 0 .093.012.142.018h.01c1.162 0 2.104.985 2.104 2.199s-.942 2.199-2.104 2.199M289.816 614.323V599.35c0-.728.913-1.047 2.394-1.047 1.566 0 2.437.319 2.437 1.047v15.395c.011.146.028.29.028.438 0 2.792-2.167 5.056-4.838 5.056-.04 0-.074-.007-.11-.01-.028.003-.059.01-.085.01h-20.889v-4.414h19.67c.956 0 1.393-.32 1.393-1.503" style="fill:#013766;fill-opacity:1;fill-rule:nonzero;stroke:none" transform="matrix(2.42886 0 0 -2.42886 -247.956 1764.386)"/><path d="M299.502 592.594c-.084 0-.162-.015-.244-.023h-13.881v13.194h-4.83v-13.194h-4.264v13.194h-4.832v-13.194h-8.267v-4.415h36.337c.084 0 .16.007.231.024 1.054.134 1.873 1.06 1.873 2.194 0 1.23-.953 2.22-2.123 2.22M321.272 586.005c-3.394 0-5.787 1.685-5.787 4.37 0 2.687 2.393 4.368 5.787 4.368 3.307 0 5.7-1.681 5.7-4.368 0-2.684-2.393-4.37-5.7-4.37m-.045 12.926c-5.742 0-10.531-3.139-10.531-8.557 0-5.416 4.788-8.556 10.53-8.556 5.745 0 10.533 3.14 10.533 8.556 0 5.418-4.788 8.557-10.533 8.557M339.31 603.448c-.03 0-.059-.007-.09-.01-.023.003-.04.008-.064.008h-15.492v3.322h9.312c.006 0 .01.004.016.004a.201.201 0 0 1 .05-.006c1.064 0 1.928.899 1.928 2.01 0 1.02-.73 1.854-1.67 1.988a1.027 1.027 0 0 1-.323.055h-18.54c-.78 0-.997.09-.997 1.002v1.365h18.67c.032-.002.063-.01.097-.01 1.065 0 1.926.902 1.926 2.012 0 1.114-.861 2.014-1.926 2.014-.037 0-.075-.01-.111-.011H313.44v2.187h19.105c.012 0 .02-.003.03-.003 1.068 0 1.936.907 1.936 2.026 0 1.12-.869 2.024-1.937 2.024l-.018-.001h-23.948V611.66c-.01-.125-.024-.247-.024-.376 0-.084.02-.161.024-.244v-.083c0-.11.016-.225.04-.342.283-1.97 1.77-3.51 3.66-3.786.134-.035.265-.06.39-.06h.172l.035-.002.04.002h5.888v-3.322h-16.055v-4.095h36.379c.017 0 .03.003.047.003.037-.002.07-.01.107-.01 1.082 0 1.965.916 1.965 2.052 0 1.135-.883 2.052-1.965 2.052M135.07 623.382h-4.831V594.16c0-.066.016-.132.032-.192-.001-.037-.01-.07-.01-.107 0-1.389 1.077-2.514 2.408-2.514 1.329 0 2.405 1.125 2.405 2.514 0 .075-.015.144-.02.214.003.03.017.056.017.085v12.745h6.396v4.37h-6.396zM125.45 615.35h.003c1.083 0 1.962.92 1.962 2.052 0 1.133-.88 2.052-1.962 2.052-.027 0-.051-.009-.077-.009a.965.965 0 0 1-.183.022h-7.834v3.958h-5.003v-3.958h-8.531v-4.143h21.368c.09 0 .177.01.257.026M110.744 605.405c0 2.186 1.611 4.188 4.266 4.188 2.74 0 4.351-2.002 4.351-4.188 0-2.143-1.612-4.188-4.35-4.188-2.656 0-4.267 2.045-4.267 4.188m13.403 0c0 5.003-4.049 8.28-9.093 8.28-5.049 0-9.097-3.277-9.097-8.28 0-5.008 4.048-8.284 9.097-8.284 5.044 0 9.093 3.276 9.093 8.284M133.001 586.1c-.037 0-.07-.01-.108-.013-.024.003-.044.012-.07.012h-16.306c-.828 0-1.35.498-1.35 1.5v7.146h-4.786v-7.963c0-.109.015-.226.041-.349.154-2.647 2.252-4.748 4.823-4.748.027 0 .054.006.082.006.02 0 .04-.006.058-.006h17.437c.064 0 .121.011.18.022 1.16 0 2.102.983 2.102 2.196s-.943 2.196-2.103 2.196M375.19 623.382h-4.83v-27.748c-.004-.07-.02-.138-.02-.207 0-1.395 1.083-2.525 2.413-2.525 1.327 0 2.4 1.117 2.416 2.497.004.044.021.083.021.127v12.743h6.397v4.37h-6.397zM348.123 611.82c0 3.279 2.002 6.19 5.485 6.19 3.48 0 5.484-2.911 5.484-6.19 0-3.276-2.004-6.188-5.484-6.188-3.483 0-5.485 2.912-5.485 6.189m15.754 0c0 5.826-3.871 10.514-10.269 10.514-6.395 0-10.27-4.688-10.27-10.514 0-5.825 3.875-10.513 10.27-10.513 6.398 0 10.269 4.688 10.269 10.513M373.02 586.236c-.033 0-.061-.009-.092-.01-.022.001-.041.008-.062.008h-16.212c-.826 0-1.35.5-1.35 1.502v8.966h-4.831v-9.787c0-.12.025-.255.058-.393.153-2.624 2.216-4.707 4.766-4.707.045 0 .086.011.133.011.018 0 .033-.007.049-.007h17.387c.085 0 .165.012.239.032 1.12.046 2.014 1.007 2.014 2.186 0 1.214-.94 2.199-2.1 2.199M404.307 609.726h8.095v-14.2c0-.01.005-.022.005-.034-.001-.03-.01-.058-.01-.084 0-1.396 1.084-2.526 2.416-2.526 1.334 0 2.416 1.13 2.416 2.526 0 .021-.005.045-.01.065.005.021.014.035.014.053v27.856h-4.831v-9.287h-8.095z" style="fill:#013766;fill-opacity:1;fill-rule:nonzero;stroke:none" transform="matrix(2.42886 0 0 -2.42886 -247.956 1764.386)"/><path d="M403.178 600.533c.092-.068.18-.117.27-.154.337-.24.745-.382 1.183-.382 1.168 0 2.112.988 2.112 2.204 0 .513-.173.978-.454 1.352a.802.802 0 0 1-.2.258c-3.784 3.504-8.091 7.965-8.437 13.7h6.563c.03-.001.06-.01.094-.01 1.154 0 2.092.979 2.092 2.187 0 1.147-.848 2.075-1.917 2.169-.058.01-.114.024-.177.024h-19.104v-4.37h7.399c-.252-5.95-3.946-10.25-8.368-14.135a2.394 2.394 0 0 1-1.036-1.988c0-1.315 1.019-2.38 2.273-2.38.57 0 1.088.229 1.489.594.082.038.164.09.246.157 2.568 2.003 6.66 6.33 8.267 10.423 1.567-3.504 4.832-7.462 7.705-9.65M415.049 586.236c-.02 0-.03-.008-.051-.008-.006 0-.014.006-.024.006h-16.28c-.825 0-1.35.5-1.35 1.502v8.966h-4.828v-9.787l.002-.015-.002-.031c0-2.792 2.164-5.054 4.835-5.054.043 0 .084.009.126.011.013 0 .029-.007.042-.007h17.455a.88.88 0 0 1 .26.044c1.073.1 1.918 1.03 1.918 2.174 0 1.214-.945 2.199-2.103 2.199" style="fill:#013766;fill-opacity:1;fill-rule:nonzero;stroke:none" transform="matrix(2.42886 0 0 -2.42886 -247.956 1764.386)"/><path d="M469.508 700.242a3.802 3.802 0 0 1-3.803-3.807v-3.74h7.61v3.74a3.803 3.803 0 0 1-3.807 3.807M206.45 726.335v-14.288c10.45-1.543 18.426-12.27 19.282-26.55h19.452c-1.156 22.602-17.545 39.544-38.734 40.838M162.496 685.497h19.454c.887 14.016 9.024 24.936 19.274 26.539v14.294c-20.867-1.345-37.53-18.652-38.728-40.833" style="fill:#0094d4;fill-opacity:1;fill-rule:nonzero;stroke:none" transform="matrix(2.42886 0 0 -2.42886 -247.956 1764.386)"/><path d="M249.83 648.31c0-4.984 4.048-9.03 9.037-9.03 4.989 0 9.03 4.046 9.03 9.03v.003h.046v29.726c-6.126-4.358-12.17-8.043-18.112-11.123v-18.603zM459.404 638.879v29.69h20.213v-29.69h19.448v26.119c-17.75 8.799-37.86 17.492-59.116 24.48v-50.6zM201.225 639.44v14.331c-11.055-.315-21.504 1.182-31.218 3.866 7.03-10.433 18.322-17.367 31.218-18.198M366.008 700.98c0-14.055 13.233-25.445 29.559-25.445 5.455 0 9.879-5.02 9.879-11.214 0-6.193-4.424-11.209-9.88-11.209s-9.88 5.016-9.88 11.21h-19.678c0-14.054 13.233-25.444 29.559-25.444 16.324 0 29.556 11.39 29.556 25.443s-13.232 25.446-29.556 25.446c-5.457 0-9.881 5.02-9.881 11.212v.002c0 .471.033.934.084 1.391a231.81 231.81 0 0 1-19.51 1.88 22.125 22.125 0 0 1-.252-3.27zM102.255 638.879h19.48v14.073c11.085-8.62 24.95-13.818 40.022-14.051v16.501c-17.02 3.786-31.18 13.5-39.233 26.363a2.919 2.919 0 0 0-.142.546 175.504 175.504 0 0 0-20.127 18.291V639.35zM206.45 639.442c14.805.958 27.492 10 34.046 23.092-11.238-4.732-22.085-7.354-32.444-8.342a17.317 17.317 0 0 0-1.602-.336zM292.404 682.937c0-.02-.003-.035-.003-.054l.003-.06v-34.327c0-.019-.003-.035-.003-.052 0-.019.003-.038.003-.054v-.078c.073-5.219 4.328-9.434 9.566-9.434 5.24 0 9.49 4.215 9.557 9.434h.06V698.962a137.233 137.233 0 0 1-19.183-6.798zM336.05 702.498v-54.185h.044v-.003c0-4.985 4.047-9.031 9.035-9.031 4.989 0 9.033 4.046 9.033 9.03v50.395a27.77 27.77 0 0 1-.621 5.835 180.75 180.75 0 0 1-17.562-1.01c.046-.34.072-.682.072-1.031" style="fill:#013766;fill-opacity:1;fill-rule:nonzero;stroke:none" transform="matrix(2.42886 0 0 -2.42886 -247.956 1764.386)"/><path d="M479.617 682.885h-20.213v19.005c0 5.581 4.524 10.105 10.105 10.105 5.584 0 10.108-4.524 10.108-10.105zm-10.108 43.54c-16.322 0-29.559-13.236-29.559-29.56v-7.389c21.256-6.987 41.364-15.68 59.115-24.479v31.867c0 16.325-13.234 29.56-29.556 29.56M395.566 712.191c5.455 0 9.881-5.021 9.881-11.211h19.677c0 14.052-13.235 25.443-29.558 25.443-15.034 0-27.435-9.666-29.302-22.171a232.088 232.088 0 0 0 19.504-1.88c.606 5.532 4.758 9.819 9.798 9.819M225.724 680.272c-.927-13.96-9.049-24.816-19.274-26.416.541.085 1.074.201 1.602.336 10.36.988 21.206 3.61 32.443 8.342 2.67 5.332 4.328 11.332 4.69 17.738zM201.056 653.771v.082c-10.225 1.588-18.35 12.381-19.271 26.42H162.32c.475-8.47 3.19-16.215 7.518-22.636 9.714-2.684 20.162-4.18 31.217-3.866M353.538 704.539c-2.68 12.506-13.788 21.886-27.096 21.886-10.585 0-19.776-5.938-24.446-14.656-4.674 8.718-13.863 14.656-24.446 14.656-15.308 0-27.72-12.411-27.72-27.721v-15.82h.011c-.003-.077-.01-.156-.01-.234v-15.733c5.942 3.079 11.985 6.765 18.111 11.122v24.459c0 5.31 5.475 9.61 12.233 9.61 6.752 0 12.23-4.3 12.23-9.61v-10.334a137.143 137.143 0 0 0 19.181 6.799v3.535c0 5.31 5.476 9.61 12.23 9.61 6.317 0 11.508-3.756 12.162-8.581v.002c5.806.624 11.668.953 17.56 1.01M121.566 725.95v.474h-19.479V700.6a175.66 175.66 0 0 1 20.126-18.29l.001-.001c-.02.109-.039.218-.049.329.025.313.084.615.191.898 8.052 12.86 22.21 22.573 39.233 26.362v16.5c-15.074-.231-28.939-5.43-40.023-14.05z" style="fill:#0094d4;fill-opacity:1;fill-rule:nonzero;stroke:none" transform="matrix(2.42886 0 0 -2.42886 -247.956 1764.386)"/></svg>