<svg xmlns="http://www.w3.org/2000/svg" width="653.6402pt" height="300.00003pt" viewBox="0 0 653.64017 300.00002"><defs><clipPath id="a"><path d="M0 0h595.275v841.89H0Z"/></clipPath></defs><g clip-path="url(#a)" transform="matrix(4.27649 0 0 4.27649 -609.879 -1601.357)"><path fill="#797a7d" d="m235.221 423.355-1.786-.003-.236 1.193 1.785.002-.515 2.62h1.634l1.165-5.915-1.634-.001zm-.42 4.452-6.464-.012-.237 1.193 5.568.009c.254.002.403.162.357.42l-.454 2.29 1.637.004.543-2.761c.142-.711-.264-1.142-.95-1.143m-4.148-2.687c.126.904 1.258 2.015 2.143 2.043l1.128-.832c-1.28-.374-2.32-1.586-1.935-3.528l.285-1.431-1.738-.004-.286 1.43c-.382 1.932-1.898 3.187-3.345 3.519l.811.838c.965-.168 2.495-1.135 2.937-2.035m6.11 3.25 2.357.004-.667 3.378 1.633.002.666-3.377h1.9l-.666 3.38 1.634.003.673-3.377 2.28.003.238-1.195-9.816-.02zm35.12 2.258c-.25 0-.402-.161-.353-.42l.255-1.29-1.636-.001-.349 1.759c-.14.71.268 1.145.954 1.145l6.283.01.237-1.194zm-46.456-7.086.005-.004.207-1.09c.142-.71-.265-1.14-.956-1.141l-5.885-.014-.236 1.196 4.993.012c.25.003.4.159.353.417l-.179.913a4.558 4.558 0 0 1-.469 1.227l-6.41-.013-.238 1.196 3.761.008-.304 1.54-2.625-.005-.236 1.196 5.273.009c.25.006.4.162.352.42l-.457 2.306 1.635.002.552-2.785c.136-.694-.252-1.121-.91-1.137l-1.94-.003.305-1.541 4.025.007.234-1.197-1.586-.002c.272-.283.62-.965.736-1.517m25.04 6.63.38-1.908-1.639-.003-.47 2.378c-.142.713.266 1.143.952 1.145l5.844.009.237-1.195-4.952-.008c-.25 0-.4-.16-.353-.418m7.065-8.871-1.637-.001-.984 4.993-3.75-.007.403-2.016-1.636-.004-.4 2.019-1.578-.003-.236 1.19 6.96.02-.31 1.563 1.636.004.881-4.461 1.574.004.236-1.2-1.574-.001zm12.757 6.969 1.625.002.224-1.105h3.146l.236-1.19-6.677-.014-.238 1.196 1.901.002zm-4.45-1.18-4.665-.008c-.232 0-.379-.138-.362-.361l.241-1.22 3.965.007.535-2.716c.138-.703-.269-1.14-.956-1.14l-4.302-.008v.008h-.01l-.236 1.188 3.532.008c.186.04.287.188.244.408l-.205 1.045-3.96-.008-.569 2.838c-.142.71.265 1.143.954 1.143l5.556.018-.694 3.52 1.637.003 2.07-10.492-1.636-.004zm7.153-4.938h.025c.64.016 1.051.54.925 1.186-.132.65-.765 1.18-1.419 1.18s-1.08-.531-.95-1.184c.128-.656.766-1.182 1.42-1.182m-.68 3.454c1.362.002 2.65-.998 2.901-2.267.25-1.255-.632-2.286-1.997-2.29-1.376 0-2.668 1.026-2.916 2.283-.256 1.268.634 2.27 2.012 2.274m-56.733-4.392-1.635-.003-1.539 7.76h1.638l.884-4.453h1.404l.238-1.194-1.405-.001zm37.353 2.025-.182.92c-.12.61-.278 1.207-.556 1.648l1.483.002c.294-.26.667-1.064.794-1.697l.27-1.35c.128-.695-.277-1.123-.956-1.123l-4.516-.008-.238 1.2 3.603.007c.211.024.337.168.298.4m-10.017-1.118c.951 0 1.572.773 1.383 1.727-.187.953-1.11 1.726-2.065 1.722-.953-.002-1.574-.776-1.384-1.727.187-.956 1.113-1.726 2.066-1.722m-.918 4.597c1.8.002 3.516-1.28 3.827-2.862.314-1.58-.884-2.883-2.686-2.886-1.8-.005-3.506 1.295-3.816 2.875-.314 1.58.874 2.869 2.675 2.873m-33.483 3.364.383-1.936-1.633-.001-.48 2.41c-.14.712.268 1.142.954 1.142l5.743.012.24-1.198-4.855-.01c-.248-.004-.399-.162-.352-.42M273.897 429h.222l-.003.005 1.563.006-.148.743h1.634l1.664-8.438-1.632-.006-1.282 6.498-1.784-.004zm-65.926-3.872c.136-.693.81-1.256 1.504-1.253.697.002 1.148.566 1.011 1.257-.139.696-.813 1.256-1.507 1.255-.696 0-1.148-.563-1.008-1.26m3.914 0c.142-.72-.106-1.38-.6-1.811h1.07l.238-1.2-1.945-.002.208-1.052h-1.636l-.206 1.047-1.947-.002-.236 1.199 1.078.002c-.669.43-1.183 1.09-1.322 1.81-.264 1.319.728 2.395 2.175 2.397 1.456.004 2.861-1.068 3.123-2.387"/><path fill="#56565b" d="m220.356 395.973-3.667-.018-1.56 7.556 3.75.024c3.115.014 5.1-1.238 5.61-3.755.08-.403.118-.776.117-1.112-.016-1.782-1.429-2.681-4.25-2.695m-2.69 11.049-3.243-.018-1.683 8.227-4.165-.022 4.65-22.835 7.214.039c9.574.046 8.256 6.532 8.074 7.418-.53 2.711-1.68 4.618-3.453 5.706-1.625 1.008-4.088 1.504-7.395 1.485M259.22 404.043l-2.188 11.268-3.754-.019 2.398-12.239c.734-3.385 3.2-4.573 5.566-4.57l6.643.013-.656 3.015-5.412-.01c-1.31-.003-2.141.705-2.597 2.542M251.691 412.262l-.655 3.038-3.75-.007c-3.258-.006-4.455-1.863-3.725-5.043l2.876-14.3 4.131-1.146-.727 3.681 4.434.007-.647 3.04-4.399-.008s-1.462 7.175-1.53 7.525c-.225 1.168-.7 2.493.328 3.026.407.216 1.08.183 2.001.185zM278.56 404.028c-.012.069-1.1 5.756-1.1 5.756-.431 1.836-1.254 2.547-2.564 2.543l-1.57-.026c-.92-.002-1.594.03-2.001-.183-.834-.432-.753-1.373-.578-2.34.054-.293.019-.103 1.097-5.751.435-1.836 1.257-2.546 2.564-2.542l1.574.026c.918 0 1.59-.028 2 .18.834.435.753 1.376.578 2.337m.124-5.552-4.886-.01c-2.365-.004-4.637 1.179-5.51 4.572l-1.454 7.254c-.69 3.177.527 5.037 3.789 5.043l4.88.007c2.369.004 4.643-1.18 5.515-4.572l1.45-7.252c.695-3.178-.525-5.037-3.784-5.042M235.107 415.27c-4.94-.008-7.356-2.014-7.5-5.865-.026-.805.144-2.37.31-3.155.416-1.941 1.25-4.134 2.888-5.618 1.952-1.762 4.255-2.125 6.81-2.12l5.96.008-.606 3.039-5.082-.01c-3.7-.006-5.378 1.8-5.905 3.845l10.213.017-.613 3.04-10.353-.02c-.416 3.299 1.716 3.796 4.665 3.802l4.925.012-.61 3.035ZM182.216 386.847l-5.832-.034c-.066 0-.125.007-.194.007-1.803-.009-2.408.618-2.72 1.942l-5.326 23.904c-.194 1.026-.093 2.477 2.045 2.517l5.703.026z"/><path fill="#8ec744" d="m205.501 386.832-14.731-.024c-.485 0-.969.157-1.136.77l-.272 1.303c-.228 1.017-.609 1.312-1.714 2.053l-5.353 3.494.004.002 5.156 5.307 18.05-12.117c.527-.345.411-.785-.004-.788"/><path fill="#56565b" d="m182.295 394.428-1.77 7.777c-.214 1.14-.113 1.73.858 2.62l9.48 9.681c.411.381.893.684 2.094.69l9.57.05-20.228-20.816z"/></g></svg>