<svg xmlns="http://www.w3.org/2000/svg" xmlns:xlink="http://www.w3.org/1999/xlink" width="908.8457pt" height="224.99998pt" viewBox="0 0 908.84566 224.99998"><defs><radialGradient xlink:href="#a" id="c" cx="83.739395" cy="164.62303" r="224.92955" fx="83.739395" fy="164.62303" gradientTransform="matrix(-1.30946 .24428 -.23534 -1.2616 193.297 345.707)" gradientUnits="userSpaceOnUse"/><linearGradient id="a"><stop offset="0" style="stop-color:#c7e7fa;stop-opacity:1"/><stop offset="0.18022764" style="stop-color:#bce4f9;stop-opacity:1"/><stop offset="0.2511709" style="stop-color:#a8dcf7;stop-opacity:1"/><stop offset="0.35362545" style="stop-color:#57c4f0;stop-opacity:1"/><stop offset="0.42269489" style="stop-color:#1abaee;stop-opacity:1"/><stop offset="0.49689832" style="stop-color:#00a8e7;stop-opacity:1"/><stop offset="0.56524938" style="stop-color:#009de2;stop-opacity:1"/><stop offset="0.69291401" style="stop-color:#007dc1;stop-opacity:1"/><stop offset="0.78081799" style="stop-color:#005ca0;stop-opacity:1"/><stop offset="0.85425836" style="stop-color:#004a90;stop-opacity:1"/><stop offset="0.89736688" style="stop-color:#073b82;stop-opacity:1"/><stop offset="0.93982607" style="stop-color:#0065a9;stop-opacity:1"/><stop offset="0.97771311" style="stop-color:#007bbf;stop-opacity:1"/><stop offset="1" style="stop-color:#0077bc;stop-opacity:1"/></linearGradient><clipPath id="b"><path d="M150.015 262.176c0 19.569 15.863 35.433 35.437 35.433 19.564 0 35.43-15.864 35.43-35.433 0-5.65-1.326-10.989-3.678-15.729-.128-.204-.213-.06-.131.193 4.733 14.752-1.617 28.049-1.617 28.049s2.688-13.074.801-21.26c-.189-.816-.379-1.256-.62-1.271-.31-.024-.513.224-.548 1.071-.92 21.926-12.809 34.071-12.809 34.071s7.842-18.482 8.001-34.565c.009-.926.046-1.276-.262-1.385-.326-.116-.638-.02-.854.603-9.856 28.249-27.278 38.989-27.278 38.989s16.567-25.771 21.909-41.89c.236-.713.396-1.097.086-1.337-.306-.223-.707-.128-1.133.414-18.131 22.99-38.008 34.524-38.008 34.524s11.518-19.906 34.67-37.881c.543-.425.641-.824.416-1.132-.238-.314-.615-.143-1.336.077-17.627 5.41-41.871 22.454-41.871 22.454s11.772-19.215 38.918-27.844c.627-.199.713-.483.598-.807-.106-.312-.459-.278-1.38-.27-17.449.12-34.483 8.205-34.483 8.205s12.279-11.991 34.126-13.053c.848-.041 1.143-.165 1.118-.478-.014-.239-.252-.458-1.073-.616-10.193-1.953-21.744.709-21.744.709s13.335-6.175 27.649-1.767c.261.09.304-.047.156-.141a35.217 35.217 0 0 0-15.053-3.366c-19.574 0-35.437 15.865-35.437 35.433"/></clipPath></defs><path fill="#fff" d="M82.831 199.587c0 62.132-50.365 112.5-112.502 112.5-62.135 0-112.5-50.368-112.5-112.5 0-62.131 50.365-112.5 112.5-112.5 62.137 0 112.502 50.369 112.502 112.5" style="stroke-width:3.17499" transform="translate(142.17 -87.088)"/><path fill="#004788" d="M283.68 302.654h-10.95v-21.457h-55.756V273h26.473v-12.287h-30.975v-8.198h58.477v-19.51h-53.124v-8.191h64.157v27.701h7.118v8.198h-34.54V273h29.12zM352.532 282.841c-3.906-1.62-8.659-2.423-14.262-2.423-5.614 0-10.325.804-14.17 2.423-3.902 1.702-5.861 3.75-5.861 6.163 0 2.394 1.959 4.42 5.86 6.038 3.846 1.626 8.557 2.436 14.17 2.436 5.604 0 10.357-.81 14.263-2.436 3.845-1.619 5.765-3.644 5.765-6.038 0-2.413-1.92-4.461-5.765-6.163m19.18-29.365c-16.63 0-27.788-3.788-33.442-11.395-5.668 7.607-16.812 11.395-33.443 11.395v-8.078c14.993 0 23.93-4.14 26.82-12.392H306.11v-8.191h64.243v8.191h-25.46c2.876 8.252 11.823 12.392 26.819 12.392zm-10.78 47.313c-6.222 3.26-13.776 4.89-22.662 4.89-8.887 0-16.434-1.63-22.66-4.89-6.274-3.235-9.42-7.175-9.42-11.785 0-4.106 2.517-7.706 7.553-10.83 5.029-3.07 11.338-4.944 18.913-5.661v-6.252H299.91v-8.191h76.632v8.191h-32.668v6.252c7.58.717 13.891 2.59 18.92 5.66 5.042 3.125 7.56 6.725 7.56 10.83 0 4.61-3.143 8.55-9.42 11.786M404.75 253.474h41.913V242.46H404.75zm53.039 8.201h-64.157v-36.861h11.118v9.757h41.917v-9.757h11.122zm6.197 16.402h-32.68v24.578h-11.201v-24.578H387.35v-8.197h76.635zM144.043 294.462V275.05h-11.125v27.603h62.296v-8.191zM195.215 239.926v-15.113h-11.033v58.963h11.033v-35.65h12.477v-8.2zM156.693 258.464c-2.159 2.4-4.813 3.617-7.975 3.617-3.175 0-5.877-1.216-8.08-3.617-2.207-2.4-3.306-5.432-3.306-9.064 0-3.575 1.099-6.61 3.305-9.074 2.204-2.404 4.906-3.614 8.08-3.614 3.163 0 5.817 1.21 7.976 3.614 2.2 2.463 3.305 5.499 3.305 9.074 0 3.632-1.104 6.664-3.305 9.064m17.65-30.432h-19.856v-8.195H142.84v8.195h-19.857v8.185h8.91c-3.95 3.388-5.928 7.776-5.928 13.183 0 4.184 1.171 7.928 3.48 11.214a22.452 22.452 0 0 0 3.13 3.606c4.416 4.04 9.785 6.046 16.142 6.046 6.33 0 11.671-2.007 16.03-6.046 4.417-4.098 6.623-9.032 6.623-14.82 0-5.407-1.978-9.795-5.94-13.183h8.912zM508.982 252.81h-21.387v-10.927h21.387zm11.205-27.996h-11.205v9.27h-21.39v-9.27h-11.1v36.182h43.695zM544.96 236.128v-11.313h-11.027v36.182h11.027v-16.684h12.484v-8.185zM493.88 289.29h51.08v-21.942H482.248v8.188h51.606v5.95h-51.178v22.142h63.233v-8.188h-52.028zM606.016 247.83h18.237v36.299h11.205v-59.315h-11.205v14.338h-18.237Z" style="stroke-width:3.17499" transform="translate(142.17 -87.088)"/><path fill="#004788" d="M585.98 253.398c5.55 8.715 13.697 13.525 24.45 14.414v-7.886c-4.88-.518-9.057-2.705-12.563-6.528-4.073-4.563-6.115-10.538-6.115-17.948v-2.445h16.812v-8.192h-45.148v8.192h16.798v2.445c0 7.41-2.035 13.385-6.108 17.948-3.505 3.823-7.696 6.01-12.557 6.528v7.886c10.744-.889 18.894-5.699 24.431-14.414M584.207 294.462V275.05h-11.12v27.603h62.374v-8.191zM708.087 107.78c-22.412 0-40.618 17.443-40.618 38.918 0 21.454 18.206 38.916 40.618 38.916 22.4 0 40.624-17.462 40.624-38.916 0-21.475-18.224-38.919-40.624-38.919m0 92.923c-32.309 0-58.594-24.222-58.594-54.004 0-29.778 26.285-54.003 58.594-54.003 32.315 0 58.588 24.225 58.588 54.003 0 29.782-26.273 54.004-58.588 54.004M282.267 107.78c-22.4 0-40.612 17.443-40.612 38.918 0 21.454 18.212 38.916 40.612 38.916 22.418 0 40.643-17.462 40.643-38.916 0-21.475-18.225-38.919-40.643-38.919m0 92.923c-32.303 0-58.582-24.222-58.582-54.004 0-29.778 26.28-54.003 58.582-54.003 32.321 0 58.626 24.225 58.626 54.003 0 29.782-26.305 54.004-58.626 54.004M518.437 197.093h-18.43V95.935h18.43zM477.107 197.095h-18.425l.032-81.213-30.299 81.213-24.65-.023-31.036-80.863v80.886H354.3V95.936h26.77l34.335 85.306 34.944-85.306h26.759z" style="stroke-width:3.17499" transform="translate(142.17 -87.088)"/><path fill="#004788" d="M233.395 197.095h-26.628l-57.137-51.33s-1.27-1.077-1.27-2.217c0-1.508 1.133-2.289 1.133-2.289l53.076-44.89h24.543l-54.178 46.78zM146.25 197.093h-18.425V95.935h18.424zM607.504 95.935h-66.89v101.159h18.44v-86.665h44.872c10.722 0 19.428 8.776 19.428 19.54 0 10.766-8.706 19.532-19.428 19.532h-31.353l-12.408 14.316h47.34c18.887 0 34.28-15.253 34.28-33.995 0-18.73-15.393-33.887-34.28-33.887" style="stroke-width:3.17499" transform="translate(142.17 -87.088)"/><g clip-path="url(#b)" transform="matrix(3.17499 0 0 3.17499 -476.295 -719.905)"><path d="M-276.783 69.855v.193l-.416-.02.006.414h-.026l.361 27.877-1.246 41.878v70.109c0 3.786-.002 7.667 0 11.162V415.13l168.21 73.955h54.181c11.03 33.547 34.058 1.112 51.39 0h18.641c15.703.278 104.987-71.482 118.297-71.779h33.53l4.288.002v-.002h.002l.008-26.457.01-26.459h-.02V262.791c-3.025-63.391.876-126.782 1.321-190.172l-122.342.465H-97.287v-.002l-133.989-2.641-18.697.001h-17.105l-5.014-.177-1.51-.078-.732-.053-1.356-.113z" style="fill:url(#c);fill-opacity:1;stroke-width:4.23332" transform="translate(194.793 199.313) scale(.23622)"/></g></svg>