<svg xmlns="http://www.w3.org/2000/svg" width="94.223877mm" height="17.318316mm" viewBox="0 0 94.223877 17.318316"><path d="m0 0 .033.049C.021.035.012.021 0 .01Z" style="fill:#231916;fill-opacity:1;fill-rule:nonzero;stroke:none" transform="matrix(.35278 0 0 -.35278 11.185 16.972)"/><path d="M0 0s-3.236.053-8.07-1.254c-.785-7.467-2.295-21.855-2.295-22.084 0 0-.006-.635-.231-.922l-5.867-8.611c.609.689 2.836 2.416 10.467 3.937 0 0 .228.022.324.309L.229-.211S.27 0 0 0" style="fill:#fabf00;fill-opacity:1;fill-rule:nonzero;stroke:none" transform="matrix(.35278 0 0 -.35278 17.046 5.38)"/><path d="M0 0c.057.377-.27.23-.27.23-4.789-1.955-8.849-8.054-8.849-8.054l.039.019A43.858 43.858 0 0 0-.5-4.473C-.227-1.848-.066-.457 0 0" style="fill:#ffd900;fill-opacity:1;fill-rule:nonzero;stroke:none" transform="matrix(.35278 0 0 -.35278 14.376 4.244)"/><path d="M0 0c-.014-.008-.027-.012-.035-.02l-.334-28.933s-.002-.088.07-.078c.096.015.174.299.483.744l5.869 8.615c.224.283.228.918.228.918 0 .229 1.512 14.617 2.299 22.084A44.094 44.094 0 0 1 0 0" style="fill:#f39700;fill-opacity:1;fill-rule:nonzero;stroke:none" transform="matrix(.35278 0 0 -.35278 11.173 6.997)"/><path d="M0 0s-.621.111-.518-.236l1.559-6.467c9.6-1.617 19.475-5.238 19.475-5.238S12.172-1.883 0 0" style="fill:#dcdddd;fill-opacity:1;fill-rule:nonzero;stroke:none" transform="matrix(.35278 0 0 -.35278 2.944 .006)"/><path d="m0 0-7.133 29.641c-2.988.504-5.951.816-8.582.761 0 0-.857 0-.799-.629L-6.57-6.455s.113-.572.912-.686c0 0 14.994-1.255 17.875-4.935C9.158-6.951 0 0 0 0" style="fill:#dbe000;fill-opacity:1;fill-rule:nonzero;stroke:none" transform="matrix(.35278 0 0 -.35278 5.827 12.827)"/><path d="M0 0s-9.875 3.621-19.477 5.238l7.133-29.638s9.158-6.954 12.217-12.079c.072-.091.129-.187.188-.281.068-.117.121-.236.175-.355.02-.039.053-.01.051.043C.279-37.021 0 0 0 0" style="fill:#85b81c;fill-opacity:1;fill-rule:nonzero;stroke:none" transform="matrix(.35278 0 0 -.35278 10.181 4.219)"/><path d="M0 0h-11.388v2.666H.881Z" style="fill:#727272;fill-opacity:1;fill-rule:nonzero;stroke:none" transform="matrix(.35278 0 0 -.35278 79.338 6.902)"/><path d="M0 0h-14.102v2.395H.792Z" style="fill:#727272;fill-opacity:1;fill-rule:nonzero;stroke:none" transform="matrix(.35278 0 0 -.35278 93.635 13.366)"/><path d="M339.22 417.324h-2.395v6.348h2.395zM314.595 425.906h-2.629v12.41h2.629z" style="fill:#727272;fill-opacity:1;fill-rule:nonzero;stroke:none" transform="matrix(.35278 0 0 -.35278 -30.164 160.589)"/><path d="M0 0h3.346l6.923 12.405H6.922Z" style="fill:#727272;fill-opacity:1;fill-rule:nonzero;stroke:none" transform="matrix(.35278 0 0 -.35278 61.044 10.34)"/><path d="M0 0h-3.328l-4.764 9.263 3.072.52z" style="fill:#727272;fill-opacity:1;fill-rule:nonzero;stroke:none" transform="matrix(.35278 0 0 -.35278 65.784 10.34)"/><path d="M275.662 425.913h-2.631v12.407h2.631z" style="fill:#727272;fill-opacity:1;fill-rule:nonzero;stroke:none" transform="matrix(.35278 0 0 -.35278 -30.164 160.589)"/><path d="M0 0h-4.926v2.649H.896Z" style="fill:#727272;fill-opacity:1;fill-rule:nonzero;stroke:none" transform="matrix(.35278 0 0 -.35278 68.213 6.894)"/><path d="M0 0h-14.1v2.395H.793Z" style="fill:#727272;fill-opacity:1;fill-rule:nonzero;stroke:none" transform="matrix(.35278 0 0 -.35278 67.265 13.366)"/><path d="M264.47 417.324h-2.394v6.348h2.394z" style="fill:#727272;fill-opacity:1;fill-rule:nonzero;stroke:none" transform="matrix(.35278 0 0 -.35278 -30.164 160.589)"/><path d="M0 0h-14.101v2.395H.793Z" style="fill:#727272;fill-opacity:1;fill-rule:nonzero;stroke:none" transform="matrix(.35278 0 0 -.35278 81.141 13.366)"/><path d="M303.805 417.324h-2.395v6.348h2.395z" style="fill:#727272;fill-opacity:1;fill-rule:nonzero;stroke:none" transform="matrix(.35278 0 0 -.35278 -30.164 160.589)"/><path d="M0 0h-5.459v2.619H.998Z" style="fill:#727272;fill-opacity:1;fill-rule:nonzero;stroke:none" transform="matrix(.35278 0 0 -.35278 61.107 7.187)"/><path d="M255.654 417.414h-2.621v20.045h2.621zM224.09 429.412h-2.645v8.9h2.645zM236.941 429.412h-2.645v8.9h2.645z" style="fill:#727272;fill-opacity:1;fill-rule:nonzero;stroke:none" transform="matrix(.35278 0 0 -.35278 -30.164 160.589)"/><path d="M221.445 438.313h15.496v-2.645h-15.496zM221.445 432.023h15.496v-2.645h-15.496z" style="fill:#727272;fill-opacity:1;fill-rule:nonzero;stroke:none" transform="matrix(.35278 0 0 -.35278 -30.164 160.589)"/><path d="M0 0h-15.5v2.67H.869Z" style="fill:#727272;fill-opacity:1;fill-rule:nonzero;stroke:none" transform="matrix(.35278 0 0 -.35278 53.425 10.775)"/><path d="M230.492 420.226h-2.646v7.009h2.646z" style="fill:#727272;fill-opacity:1;fill-rule:nonzero;stroke:none" transform="matrix(.35278 0 0 -.35278 -30.164 160.589)"/><path d="M0 0h-14.102v2.67H.793Z" style="fill:#727272;fill-opacity:1;fill-rule:nonzero;stroke:none" transform="matrix(.35278 0 0 -.35278 52.932 14.911)"/><path d="M223.84 412.943h-2.395v10.767h2.395z" style="fill:#727272;fill-opacity:1;fill-rule:nonzero;stroke:none" transform="matrix(.35278 0 0 -.35278 -30.164 160.589)"/><path d="M0 0h-10.959v2.65H.896Z" style="fill:#727272;fill-opacity:1;fill-rule:nonzero;stroke:none" transform="matrix(.35278 0 0 -.35278 44.392 6.897)"/><path d="M0 0h-10.959v2.649H.896Z" style="fill:#727272;fill-opacity:1;fill-rule:nonzero;stroke:none" transform="matrix(.35278 0 0 -.35278 44.392 10.336)"/><path d="M204.352 428.304h-2.334v8.58h2.334zM209.648 428.304h-2.334v8.58h2.334zM216.164 425.913h-2.631v12.407h2.631z" style="fill:#727272;fill-opacity:1;fill-rule:nonzero;stroke:none" transform="matrix(.35278 0 0 -.35278 -30.164 160.589)"/><path d="M0 0h-4.927v2.649H.896Z" style="fill:#727272;fill-opacity:1;fill-rule:nonzero;stroke:none" transform="matrix(.35278 0 0 -.35278 47.208 6.894)"/><path d="M0 0h-14.102v2.396H.793Z" style="fill:#727272;fill-opacity:1;fill-rule:nonzero;stroke:none" transform="matrix(.35278 0 0 -.35278 46.076 13.352)"/><path d="M204.407 417.364h-2.394v6.349h2.394z" style="fill:#727272;fill-opacity:1;fill-rule:nonzero;stroke:none" transform="matrix(.35278 0 0 -.35278 -30.164 160.589)"/><path d="M0 0h-16.128v2.361H.907Z" style="fill:#727272;fill-opacity:1;fill-rule:nonzero;stroke:none" transform="matrix(.35278 0 0 -.35278 39.524 10.6)"/><path d="M190.883 421.787h-2.756v5.643h2.756z" style="fill:#727272;fill-opacity:1;fill-rule:nonzero;stroke:none" transform="matrix(.35278 0 0 -.35278 -30.164 160.589)"/><path d="M197.592 420.947h-16.204v2.023h16.204z" style="fill:#727272;fill-opacity:1;fill-rule:nonzero;stroke:none" transform="matrix(.35278 0 0 -.35278 -30.164 160.589)"/><path d="M0 0h-16.204v2.07H.885Z" style="fill:#727272;fill-opacity:1;fill-rule:nonzero;stroke:none" transform="matrix(.35278 0 0 -.35278 39.542 14.932)"/><path d="M197.592 417.057h-16.204v1.758h16.204z" style="fill:#727272;fill-opacity:1;fill-rule:nonzero;stroke:none" transform="matrix(.35278 0 0 -.35278 -30.164 160.589)"/><path d="M194.819 422.249h2.772v-4.97h-2.772zM181.388 418.326h2.772v-4.969h-2.772z" style="fill:#727272;fill-opacity:1;fill-rule:nonzero;stroke:none" transform="matrix(.35278 0 0 -.35278 -30.164 160.589)"/><path d="M0 0h-16.258v2.665H.854Z" style="fill:#727272;fill-opacity:1;fill-rule:nonzero;stroke:none" transform="matrix(.35278 0 0 -.35278 39.553 7.2)"/><path d="M0 0h-2.892v2.666h4.297Z" style="fill:#727272;fill-opacity:1;fill-rule:nonzero;stroke:none" transform="matrix(.35278 0 0 -.35278 37.098 6.63)"/><path d="M0 0h4.041l4.376 3.502v3.759Z" style="fill:#727272;fill-opacity:1;fill-rule:nonzero;stroke:none" transform="matrix(.35278 0 0 -.35278 33.778 9.133)"/><path d="M0 0h-4.041l-4.378 3.502v3.759Z" style="fill:#727272;fill-opacity:1;fill-rule:nonzero;stroke:none" transform="matrix(.35278 0 0 -.35278 39.68 9.133)"/><path d="M0 0h-14.531v2.66H.816Z" style="fill:#727272;fill-opacity:1;fill-rule:nonzero;stroke:none" transform="matrix(.35278 0 0 -.35278 32.6 12.52)"/><path d="M0 0v-9.531h-2.613V.003Z" style="fill:#727272;fill-opacity:1;fill-rule:nonzero;stroke:none" transform="matrix(.35278 0 0 -.35278 32.887 11.583)"/><path d="M178.743 435.646h-15.487v2.666h15.487z" style="fill:#727272;fill-opacity:1;fill-rule:nonzero;stroke:none" transform="matrix(.35278 0 0 -.35278 -30.164 160.589)"/><path d="M176.076 437.16h2.667v-7.836h-2.667z" style="fill:#727272;fill-opacity:1;fill-rule:nonzero;stroke:none" transform="matrix(.35278 0 0 -.35278 -30.164 160.589)"/><path d="M0 0h-14.102v2.394H.792Z" style="fill:#727272;fill-opacity:1;fill-rule:nonzero;stroke:none" transform="matrix(.35278 0 0 -.35278 24.761 13.357)"/><path d="M0 0h-15.477v2.66H.871Z" style="fill:#727272;fill-opacity:1;fill-rule:nonzero;stroke:none" transform="matrix(.35278 0 0 -.35278 32.889 10.772)"/><path d="M143.986 417.351h-2.395v6.348h2.395z" style="fill:#727272;fill-opacity:1;fill-rule:nonzero;stroke:none" transform="matrix(.35278 0 0 -.35278 -30.164 160.589)"/><path d="M0 0h-5.459v2.619H1Z" style="fill:#727272;fill-opacity:1;fill-rule:nonzero;stroke:none" transform="matrix(.35278 0 0 -.35278 26.49 7.275)"/><path d="M157.527 424.789h-2.619v12.42h2.619z" style="fill:#727272;fill-opacity:1;fill-rule:nonzero;stroke:none" transform="matrix(.35278 0 0 -.35278 -30.164 160.589)"/><path d="M0 0h15.486l.877 2.428H0Z" style="fill:#727272;fill-opacity:1;fill-rule:nonzero;stroke:none" transform="matrix(.35278 0 0 -.35278 81.896 10.923)"/><path d="M0 0c-.546-.524-1.224-.784-2.032-.784-.828 0-1.522.253-2.087.759-.566.504-.849 1.153-.849 1.944 0 .809.276 1.478.833 2.012.558.534 1.231.798 2.024.798.824 0 1.521-.26 2.083-.786.565-.522.852-1.177.852-1.969C.824 1.183.549.525 0 0m-1.98 7.13c-1.561 0-2.88-.476-3.956-1.435-1.079-.954-1.617-2.178-1.617-3.666 0-1.525.526-2.823 1.59-3.889 1.06-1.066 2.342-1.599 3.852-1.599 1.557 0 2.883.512 3.97 1.53 1.084 1.02 1.63 2.294 1.63 3.823 0 1.524-.526 2.778-1.578 3.761C.864 6.637-.435 7.13-1.98 7.13" style="fill:#727272;fill-opacity:1;fill-rule:nonzero;stroke:none" transform="matrix(.35278 0 0 -.35278 85.368 13.73)"/><path d="M0 0c-1.563 0-2.829 1.299-2.829 2.9S-1.563 5.799 0 5.799c1.563 0 2.828-1.298 2.828-2.899S1.563 0 0 0m-.015 8.408c-3.011 0-5.452-2.47-5.452-5.517 0-3.045 2.441-5.517 5.452-5.517S5.438-.154 5.438 2.891c0 3.047-2.442 5.517-5.453 5.517" style="fill:#727272;fill-opacity:1;fill-rule:nonzero;stroke:none" transform="matrix(.35278 0 0 -.35278 21.867 9.802)"/><path d="M0 0h-11.384v2.666H.869Z" style="fill:#727272;fill-opacity:1;fill-rule:nonzero;stroke:none" transform="matrix(.35278 0 0 -.35278 23.802 7.301)"/><path d="M0 0h-2.359v2.666h3.797Z" style="fill:#727272;fill-opacity:1;fill-rule:nonzero;stroke:none" transform="matrix(.35278 0 0 -.35278 22.154 6.739)"/><path d="M172.33 420.881h-2.661v6.349h2.661z" style="fill:#727272;fill-opacity:1;fill-rule:nonzero;stroke:none" transform="matrix(.35278 0 0 -.35278 -30.164 160.589)"/><path d="M0 0h-10.906v2.655H.832Z" style="fill:#727272;fill-opacity:1;fill-rule:nonzero;stroke:none" transform="matrix(.35278 0 0 -.35278 58.294 7.203)"/><path d="M0 0h-2.191v2.404h3.527Z" style="fill:#727272;fill-opacity:1;fill-rule:nonzero;stroke:none" transform="matrix(.35278 0 0 -.35278 56.656 6.547)"/><path d="M0 0h-10.902v2.659H.874Z" style="fill:#727272;fill-opacity:1;fill-rule:nonzero;stroke:none" transform="matrix(.35278 0 0 -.35278 58.284 11.78)"/><path d="M246.641 428.277h-2.598v-6.347h2.598z" style="fill:#727272;fill-opacity:1;fill-rule:nonzero;stroke:none" transform="matrix(.35278 0 0 -.35278 -30.164 160.589)"/><path d="M0 0a2.25 2.25 0 0 0-2.251 2.247 2.25 2.25 0 1 0 4.498 0A2.246 2.246 0 0 0 0 0m.011 7.062a4.84 4.84 0 0 1-4.842-4.843A4.843 4.843 0 1 1 .011 7.062" style="fill:#727272;fill-opacity:1;fill-rule:nonzero;stroke:none" transform="matrix(.35278 0 0 -.35278 56.366 9.247)"/><path d="M283.267 412.95h-2.629v10.737h2.629zM296.081 425.906h-2.63v12.41h2.63z" style="fill:#727272;fill-opacity:1;fill-rule:nonzero;stroke:none" transform="matrix(.35278 0 0 -.35278 -30.164 160.589)"/><path d="M289.779 435.066h4.284v-2.675h-4.284z" style="fill:#727272;fill-opacity:1;fill-rule:nonzero;stroke:none" transform="matrix(.35278 0 0 -.35278 -30.164 160.589)"/><path d="M0 0c-1.745 0-3.157 1.434-3.157 3.199 0 1.766 1.412 3.197 3.157 3.197 1.742 0 3.156-1.431 3.156-3.197C3.156 1.434 1.742 0 0 0m0 9.071c-3.211 0-5.814-2.632-5.814-5.88 0-3.248 2.603-5.88 5.814-5.88 3.21 0 5.811 2.632 5.811 5.88 0 3.248-2.601 5.88-5.811 5.88" style="fill:#727272;fill-opacity:1;fill-rule:nonzero;stroke:none" transform="matrix(.35278 0 0 -.35278 70.38 9.065)"/><path d="M296.081 412.95h-2.63v10.737h2.63z" style="fill:#727272;fill-opacity:1;fill-rule:nonzero;stroke:none" transform="matrix(.35278 0 0 -.35278 -30.164 160.589)"/><path d="M281.191 415.61h13.599v-2.66h-13.599zM281.191 421.155h13.599v-2.378h-13.599z" style="fill:#727272;fill-opacity:1;fill-rule:nonzero;stroke:none" transform="matrix(.35278 0 0 -.35278 -30.164 160.589)"/><path d="M0 0h-10.447v2.348H.973Z" style="fill:#727272;fill-opacity:1;fill-rule:nonzero;stroke:none" transform="matrix(.35278 0 0 -.35278 92.315 10.397)"/><path d="M343.326 421.557h-2.645v6.436h2.645zM352.596 421.385h-2.63v16.328h2.63z" style="fill:#727272;fill-opacity:1;fill-rule:nonzero;stroke:none" transform="matrix(.35278 0 0 -.35278 -30.164 160.589)"/><path d="M346.449 426.133h4.162v-2.023h-4.162z" style="fill:#727272;fill-opacity:1;fill-rule:nonzero;stroke:none" transform="matrix(.35278 0 0 -.35278 -30.164 160.589)"/><path d="M0 0c-1.318 0-2.39 1.083-2.39 2.422 0 1.337 1.072 2.421 2.39 2.421 1.323 0 2.395-1.084 2.395-2.421C2.395 1.083 1.323 0 0 0m-.016 7.468c-2.78 0-5.03-2.281-5.03-5.093 0-2.813 2.25-5.095 5.03-5.095 2.777 0 5.032 2.282 5.032 5.095 0 2.812-2.255 5.093-5.032 5.093" style="fill:#727272;fill-opacity:1;fill-rule:nonzero;stroke:none" transform="matrix(.35278 0 0 -.35278 84.634 8.82)"/><path d="M0 0h-15.479v2.403H.916Z" style="fill:#727272;fill-opacity:1;fill-rule:nonzero;stroke:none" transform="matrix(.35278 0 0 -.35278 87.358 7.11)"/><path d="m0 0-2.701.156v2.405h4.095Z" style="fill:#727272;fill-opacity:1;fill-rule:nonzero;stroke:none" transform="matrix(.35278 0 0 -.35278 85.013 6.602)"/><path d="M0 0c-1.633 0-2.955 1.332-2.955 2.979 0 1.642 1.322 2.976 2.955 2.976a2.966 2.966 0 0 0 2.956-2.976C2.956 1.332 1.634 0 0 0m.084 8.688c-3.003 0-5.438-2.482-5.438-5.543S-2.919-2.397.084-2.397c3.004 0 5.437 2.481 5.437 5.542S3.088 8.688.084 8.688" style="fill:#727272;fill-opacity:1;fill-rule:nonzero;stroke:none" transform="matrix(.35278 0 0 -.35278 90.408 8.923)"/><path d="M0 0h3.346l6.923 12.405H6.922Z" style="fill:#727272;fill-opacity:1;fill-rule:nonzero;stroke:none" transform="matrix(.35278 0 0 -.35278 61.044 10.34)"/><path d="M0 0h-1.075l-5.816-12.463h3.067l3.286 6.529 3.282-6.529h3.071z" style="fill:#727272;fill-opacity:1;fill-rule:nonzero;stroke:none" transform="matrix(.35278 0 0 -.35278 77.482 5.962)"/></svg>