<svg xmlns="http://www.w3.org/2000/svg" xmlns:xlink="http://www.w3.org/1999/xlink" width="2323.9153pt" height="225.00002pt" viewBox="0 0 2323.9152 225.00002"><defs><linearGradient id="c"><stop offset="0" style="stop-color:#057360;stop-opacity:1"/><stop offset="0.61268264" style="stop-color:#489f4d;stop-opacity:1"/><stop offset="1" style="stop-color:#6eb844;stop-opacity:1"/></linearGradient><linearGradient id="b"><stop offset="0" style="stop-color:#f2a215;stop-opacity:1"/><stop offset="0.26639059" style="stop-color:#e57b0c;stop-opacity:1"/><stop offset="1" style="stop-color:#d95402;stop-opacity:1"/></linearGradient><linearGradient id="a"><stop offset="0" style="stop-color:#0052a3;stop-opacity:1"/><stop offset="0.37623215" style="stop-color:#1d89ca;stop-opacity:1"/><stop offset="0.78131992" style="stop-color:#279eda;stop-opacity:1"/><stop offset="1" style="stop-color:#2ba5df;stop-opacity:1"/></linearGradient><linearGradient xlink:href="#a" id="k" x1="215.95045" x2="226.51038" y1="75.767464" y2="10.823925" gradientUnits="userSpaceOnUse"/><linearGradient xlink:href="#b" id="m" x1="200.37456" x2="226.77437" y1="3.4319751" y2="36.167744" gradientUnits="userSpaceOnUse"/><linearGradient xlink:href="#c" id="i" x1="287.49396" x2="252.64619" y1="97.415306" y2="73.919479" gradientUnits="userSpaceOnUse"/><clipPath id="d"><path d="M0 0h841.89v595.276H0Z"/></clipPath><clipPath id="h"><path d="M698.513 43.484c-.21.38-.778.729-1.054 1.048.682 1.11 2.185 1.761 2.25 1.793a8.623 8.623 0 0 0 3.762.845l.055-.035c2.083-1.279 2.646-2.468 2.742-3.259a1.765 1.765 0 0 1-.656 1.031 1.886 1.886 0 0 1-.639.283c-.468.125-.985.149-1.232.161-.063.001-.124.003-.187.003-.467 0-.935-.076-1.387-.223-.531-.173-1.201-.54-1.83-1.286-.749-.888-.942-2.425-.94-2.442-.138.742-.556 1.492-.884 2.081"/></clipPath><clipPath id="j"><path d="M696.523 40.488c-.179 1.307-.643 2.657-1.649 3.664-.823.823-2.145 1.095-3.687 1.095a7.82 7.82 0 0 1-.401-.011s-.055.22-.047.51c.029 1.129.679 1.242.683 1.242 1.118 0 2.142-.041 3.106-.298 2.929-.779 4.881-3.165 5.127-6.061.164-1.954-1.305-3.633-2.407-4.465-.386-.286-.917-.619-1.39-.81.566.88.951 3.61.665 5.134"/></clipPath><clipPath id="n"><path d="M0 0h841.89v595.276H0Z"/></clipPath><clipPath id="l"><path d="M695.008 37.138c.211.124.409.274.588.462.964 1.016.92 2.959.929 2.888.286-1.524-.034-4.225-.601-5.106a7.236 7.236 0 0 0-.957-.306 11.41 11.41 0 0 0-2.628-.312c.52.343 1.721 1.207 2.669 2.374"/></clipPath></defs><g clip-path="url(#d)" transform="translate(-19.4 -34.621)"><clipPath id="e"><path d="M841.89 1240.945H0V645.67h841.89z"/></clipPath><g clip-path="url(#e)" opacity="0.5"><clipPath id="f"><path d="M631.616 687.89h93.654V559.715h-93.654z"/></clipPath><g clip-path="url(#f)"><clipPath id="g"><path d="M725.27 631.927c0 25.695-20.831 46.527-46.527 46.527-25.695 0-46.525-20.832-46.525-46.527s20.83-46.526 46.525-46.526c25.696 0 46.527 20.831 46.527 46.526"/></clipPath><g fill="#fff" clip-path="url(#g)"><path d="M633.626 560.721a1.004 1.004 0 1 1-2.009.001 1.004 1.004 0 0 1 2.009 0M638.398 560.721a1.005 1.005 0 1 1-2.011 0 1.005 1.005 0 0 1 2.01 0M643.168 560.721a1.005 1.005 0 1 1-2.01 0 1.005 1.005 0 0 1 2.01 0M647.938 560.721a1.005 1.005 0 1 1-2.01 0 1.005 1.005 0 0 1 2.01 0M652.709 560.721a1.005 1.005 0 1 1-2.01 0 1.005 1.005 0 0 1 2.01 0M657.48 560.721a1.005 1.005 0 1 1-2.01 0 1.005 1.005 0 0 1 2.01 0M662.251 560.721a1.005 1.005 0 1 1-2.01 0 1.005 1.005 0 0 1 2.01 0M667.021 560.721a1.005 1.005 0 1 1-2.01 0 1.005 1.005 0 0 1 2.01 0M671.792 560.721a1.005 1.005 0 1 1-2.01 0 1.005 1.005 0 0 1 2.01 0M676.563 560.721a1.005 1.005 0 1 1-2.01 0 1.005 1.005 0 0 1 2.01 0M633.626 565.41a1.005 1.005 0 1 1-2.01.003 1.005 1.005 0 0 1 2.01-.002M638.398 565.41a1.005 1.005 0 1 1-2.011.002 1.005 1.005 0 0 1 2.01-.001M643.168 565.41a1.005 1.005 0 1 1-2.01.002 1.005 1.005 0 0 1 2.01-.001M647.938 565.41a1.005 1.005 0 1 1-2.01.002 1.005 1.005 0 0 1 2.01-.001M652.709 565.41a1.005 1.005 0 1 1-2.01.002 1.005 1.005 0 0 1 2.01-.001M657.48 565.41a1.005 1.005 0 1 1-2.011.002 1.005 1.005 0 0 1 2.01-.001M662.251 565.41a1.005 1.005 0 1 1-2.011.002 1.005 1.005 0 0 1 2.011-.001M667.021 565.41a1.005 1.005 0 1 1-2.01.002 1.005 1.005 0 0 1 2.01-.001M671.792 565.41a1.005 1.005 0 1 1-2.01.002 1.005 1.005 0 0 1 2.01-.001M676.563 565.41a1.005 1.005 0 1 1-2.011.002 1.005 1.005 0 0 1 2.01-.001M633.626 570.101a1.004 1.004 0 1 1-2.009.001 1.004 1.004 0 0 1 2.009-.001M638.398 570.101a1.005 1.005 0 1 1-2.011 0 1.005 1.005 0 0 1 2.01 0M643.168 570.101a1.005 1.005 0 1 1-2.01 0 1.005 1.005 0 0 1 2.01 0M647.938 570.101a1.005 1.005 0 1 1-2.01 0 1.005 1.005 0 0 1 2.01 0M652.709 570.101a1.005 1.005 0 1 1-2.01 0 1.005 1.005 0 0 1 2.01 0M657.48 570.101a1.005 1.005 0 1 1-2.01 0 1.005 1.005 0 0 1 2.01 0M662.251 570.101a1.005 1.005 0 1 1-2.01 0 1.005 1.005 0 0 1 2.01 0M667.021 570.101a1.005 1.005 0 1 1-2.01 0 1.005 1.005 0 0 1 2.01 0M671.792 570.101a1.005 1.005 0 1 1-2.01 0 1.005 1.005 0 0 1 2.01 0M676.563 570.101a1.005 1.005 0 1 1-2.01 0 1.005 1.005 0 0 1 2.01 0M633.626 574.79a1.005 1.005 0 1 1-2.01.003 1.005 1.005 0 0 1 2.01-.003M638.398 574.79a1.005 1.005 0 1 1-2.011.002 1.005 1.005 0 0 1 2.01-.002M643.168 574.79a1.005 1.005 0 1 1-2.01.002 1.005 1.005 0 0 1 2.01-.002M647.938 574.79a1.005 1.005 0 1 1-2.01.002 1.005 1.005 0 0 1 2.01-.002M652.709 574.79a1.005 1.005 0 1 1-2.01.002 1.005 1.005 0 0 1 2.01-.002M657.48 574.79a1.005 1.005 0 1 1-2.011.002 1.005 1.005 0 0 1 2.01-.002M662.251 574.79a1.005 1.005 0 1 1-2.011.002 1.005 1.005 0 0 1 2.011-.002M667.021 574.79a1.005 1.005 0 1 1-2.01.002 1.005 1.005 0 0 1 2.01-.002M671.792 574.79a1.005 1.005 0 1 1-2.01.002 1.005 1.005 0 0 1 2.01-.002M676.563 574.79a1.005 1.005 0 1 1-2.011.002 1.005 1.005 0 0 1 2.01-.002M633.626 579.48a1.004 1.004 0 1 1-2.009.002 1.004 1.004 0 0 1 2.009-.001M638.398 579.48a1.005 1.005 0 1 1-2.011 0 1.005 1.005 0 0 1 2.01 0M643.168 579.48a1.005 1.005 0 1 1-2.01 0 1.005 1.005 0 0 1 2.01 0M647.938 579.48a1.005 1.005 0 1 1-2.01 0 1.005 1.005 0 0 1 2.01 0M652.709 579.48a1.005 1.005 0 1 1-2.01 0 1.005 1.005 0 0 1 2.01 0M657.48 579.48a1.005 1.005 0 1 1-2.01 0 1.005 1.005 0 0 1 2.01 0M662.251 579.48a1.005 1.005 0 1 1-2.01 0 1.005 1.005 0 0 1 2.01 0M667.021 579.48a1.005 1.005 0 1 1-2.01 0 1.005 1.005 0 0 1 2.01 0M671.792 579.48a1.005 1.005 0 1 1-2.01 0 1.005 1.005 0 0 1 2.01 0M676.563 579.48a1.005 1.005 0 1 1-2.01 0 1.005 1.005 0 0 1 2.01 0M633.626 584.171a1.004 1.004 0 1 1-2.009.001 1.004 1.004 0 0 1 2.009 0M638.398 584.171a1.005 1.005 0 1 1-2.011 0 1.005 1.005 0 0 1 2.01 0M643.168 584.171a1.005 1.005 0 1 1-2.01 0 1.005 1.005 0 0 1 2.01 0M647.938 584.171a1.005 1.005 0 1 1-2.01 0 1.005 1.005 0 0 1 2.01 0M652.709 584.171a1.005 1.005 0 1 1-2.01 0 1.005 1.005 0 0 1 2.01 0M657.48 584.171a1.005 1.005 0 1 1-2.01 0 1.005 1.005 0 0 1 2.01 0M662.251 584.171a1.005 1.005 0 1 1-2.01 0 1.005 1.005 0 0 1 2.01 0M667.021 584.171a1.005 1.005 0 1 1-2.01 0 1.005 1.005 0 0 1 2.01 0M671.792 584.171a1.005 1.005 0 1 1-2.01 0 1.005 1.005 0 0 1 2.01 0M676.563 584.171a1.005 1.005 0 1 1-2.01 0 1.005 1.005 0 0 1 2.01 0M633.626 588.86a1.005 1.005 0 1 1-2.01.004 1.005 1.005 0 0 1 2.01-.003M638.398 588.86a1.005 1.005 0 1 1-2.011.002 1.005 1.005 0 0 1 2.01-.001M643.168 588.86a1.005 1.005 0 1 1-2.01.002 1.005 1.005 0 0 1 2.01-.001M647.938 588.86a1.005 1.005 0 1 1-2.01.002 1.005 1.005 0 0 1 2.01-.001M652.709 588.86a1.005 1.005 0 1 1-2.01.002 1.005 1.005 0 0 1 2.01-.001M657.48 588.86a1.005 1.005 0 1 1-2.011.002 1.005 1.005 0 0 1 2.01-.001M662.251 588.86a1.005 1.005 0 1 1-2.011.002 1.005 1.005 0 0 1 2.011-.001M667.021 588.86a1.005 1.005 0 1 1-2.01.002 1.005 1.005 0 0 1 2.01-.001M671.792 588.86a1.005 1.005 0 1 1-2.01.002 1.005 1.005 0 0 1 2.01-.001M676.563 588.86a1.005 1.005 0 1 1-2.011.002 1.005 1.005 0 0 1 2.01-.001M633.626 593.551a1.004 1.004 0 1 1-2.01 0 1.005 1.005 0 0 1 2.01 0M638.398 593.551a1.005 1.005 0 1 1-2.01 0 1.005 1.005 0 0 1 2.01 0M643.168 593.551a1.004 1.004 0 1 1-2.009.001 1.004 1.004 0 0 1 2.009 0M647.938 593.551a1.004 1.004 0 1 1-2.008.001 1.004 1.004 0 0 1 2.009 0M652.709 593.551a1.004 1.004 0 1 1-2.009.001 1.004 1.004 0 0 1 2.009 0M657.48 593.551a1.004 1.004 0 1 1-2.01.001 1.004 1.004 0 0 1 2.01 0M662.251 593.551a1.005 1.005 0 1 1-2.01 0 1.005 1.005 0 0 1 2.01 0M667.021 593.551a1.005 1.005 0 1 1-2.009 0 1.005 1.005 0 0 1 2.01 0M671.792 593.551a1.004 1.004 0 1 1-2.009.001 1.004 1.004 0 0 1 2.009 0M676.563 593.551a1.004 1.004 0 1 1-2.01.001 1.004 1.004 0 0 1 2.01 0M681.295 560.721a1.005 1.005 0 1 1-2.01 0 1.005 1.005 0 0 1 2.01 0M686.065 560.721a1.004 1.004 0 1 1-2.008.001 1.004 1.004 0 0 1 2.008 0M690.836 560.721a1.004 1.004 0 1 1-2.009.001 1.004 1.004 0 0 1 2.009 0M695.606 560.721a1.004 1.004 0 1 1-2.008.001 1.004 1.004 0 0 1 2.008 0M700.378 560.721a1.005 1.005 0 1 1-2.01 0 1.005 1.005 0 0 1 2.01 0M705.148 560.721a1.005 1.005 0 1 1-2.01 0 1.005 1.005 0 0 1 2.01 0M709.919 560.721a1.005 1.005 0 1 1-2.01 0 1.005 1.005 0 0 1 2.01 0M714.69 560.721a1.005 1.005 0 1 1-2.01 0 1.005 1.005 0 0 1 2.01 0M719.46 560.721a1.004 1.004 0 1 1-2.009.001 1.004 1.004 0 0 1 2.009 0M724.23 560.721a1.004 1.004 0 1 1-2.008.001 1.004 1.004 0 0 1 2.009 0M681.295 565.41a1.005 1.005 0 1 1-2.01.002 1.005 1.005 0 0 1 2.01-.001M686.065 565.41a1.005 1.005 0 1 1-2.009.003 1.005 1.005 0 0 1 2.01-.002M690.836 565.41a1.005 1.005 0 1 1-2.01.003 1.005 1.005 0 0 1 2.01-.002M695.606 565.41a1.005 1.005 0 1 1-2.009.003 1.005 1.005 0 0 1 2.01-.002M700.378 565.41a1.005 1.005 0 1 1-2.011.002 1.005 1.005 0 0 1 2.01-.001M705.148 565.41a1.005 1.005 0 1 1-2.01.002 1.005 1.005 0 0 1 2.01-.001M709.919 565.41a1.005 1.005 0 1 1-2.01.002 1.005 1.005 0 0 1 2.01-.001M714.69 565.41a1.005 1.005 0 1 1-2.011.002 1.005 1.005 0 0 1 2.01-.001M719.46 565.41a1.005 1.005 0 1 1-2.01.003 1.005 1.005 0 0 1 2.01-.002M724.23 565.41a1.005 1.005 0 1 1-2.009.003 1.005 1.005 0 0 1 2.01-.002M681.295 570.101a1.005 1.005 0 1 1-2.01 0 1.005 1.005 0 0 1 2.01 0M686.065 570.101a1.004 1.004 0 1 1-2.008.001 1.004 1.004 0 0 1 2.008-.001M690.836 570.101a1.004 1.004 0 1 1-2.009.001 1.004 1.004 0 0 1 2.009-.001M695.606 570.101a1.004 1.004 0 1 1-2.008.001 1.004 1.004 0 0 1 2.008-.001M700.378 570.101a1.005 1.005 0 1 1-2.01 0 1.005 1.005 0 0 1 2.01 0M705.148 570.101a1.005 1.005 0 1 1-2.01 0 1.005 1.005 0 0 1 2.01 0M709.919 570.101a1.005 1.005 0 1 1-2.01 0 1.005 1.005 0 0 1 2.01 0M714.69 570.101a1.005 1.005 0 1 1-2.01 0 1.005 1.005 0 0 1 2.01 0M719.46 570.101a1.004 1.004 0 1 1-2.009.001 1.004 1.004 0 0 1 2.009-.001M724.23 570.101a1.004 1.004 0 1 1-2.008.001 1.004 1.004 0 0 1 2.009-.001M681.295 574.79a1.005 1.005 0 1 1-2.01.002 1.005 1.005 0 0 1 2.01-.002M686.065 574.79a1.005 1.005 0 1 1-2.009.003 1.005 1.005 0 0 1 2.01-.003M690.836 574.79a1.005 1.005 0 1 1-2.01.003 1.005 1.005 0 0 1 2.01-.003M695.606 574.79a1.005 1.005 0 1 1-2.009.003 1.005 1.005 0 0 1 2.01-.003M700.378 574.79a1.005 1.005 0 1 1-2.011.002 1.005 1.005 0 0 1 2.01-.002M705.148 574.79a1.005 1.005 0 1 1-2.01.002 1.005 1.005 0 0 1 2.01-.002M709.919 574.79a1.005 1.005 0 1 1-2.01.002 1.005 1.005 0 0 1 2.01-.002M714.69 574.79a1.005 1.005 0 1 1-2.011.002 1.005 1.005 0 0 1 2.01-.002M719.46 574.79a1.005 1.005 0 1 1-2.01.003 1.005 1.005 0 0 1 2.01-.003M724.23 574.79a1.005 1.005 0 1 1-2.009.003 1.005 1.005 0 0 1 2.01-.003M681.295 579.48a1.005 1.005 0 1 1-2.01 0 1.005 1.005 0 0 1 2.01 0M686.065 579.48a1.004 1.004 0 1 1-2.008.002 1.004 1.004 0 0 1 2.008-.001M690.836 579.48a1.004 1.004 0 1 1-2.009.002 1.004 1.004 0 0 1 2.009-.001M695.606 579.48a1.004 1.004 0 1 1-2.008.002 1.004 1.004 0 0 1 2.008-.001M700.378 579.48a1.005 1.005 0 1 1-2.01 0 1.005 1.005 0 0 1 2.01 0M705.148 579.48a1.005 1.005 0 1 1-2.01 0 1.005 1.005 0 0 1 2.01 0M709.919 579.48a1.005 1.005 0 1 1-2.01 0 1.005 1.005 0 0 1 2.01 0M714.69 579.48a1.005 1.005 0 1 1-2.01 0 1.005 1.005 0 0 1 2.01 0M719.46 579.48a1.004 1.004 0 1 1-2.009.002 1.004 1.004 0 0 1 2.009-.001M724.23 579.48a1.004 1.004 0 1 1-2.008.002 1.004 1.004 0 0 1 2.009-.001M681.295 584.171a1.005 1.005 0 1 1-2.01 0 1.005 1.005 0 0 1 2.01 0M686.065 584.171a1.004 1.004 0 1 1-2.008.001 1.004 1.004 0 0 1 2.008 0M690.836 584.171a1.004 1.004 0 1 1-2.009.001 1.004 1.004 0 0 1 2.009 0M695.606 584.171a1.004 1.004 0 1 1-2.008.001 1.004 1.004 0 0 1 2.008 0M700.378 584.171a1.005 1.005 0 1 1-2.01 0 1.005 1.005 0 0 1 2.01 0M705.148 584.171a1.005 1.005 0 1 1-2.01 0 1.005 1.005 0 0 1 2.01 0M709.919 584.171a1.005 1.005 0 1 1-2.01 0 1.005 1.005 0 0 1 2.01 0M714.69 584.171a1.005 1.005 0 1 1-2.01 0 1.005 1.005 0 0 1 2.01 0M719.46 584.171a1.004 1.004 0 1 1-2.009.001 1.004 1.004 0 0 1 2.009 0M724.23 584.171a1.004 1.004 0 1 1-2.008.001 1.004 1.004 0 0 1 2.009 0M681.295 588.86a1.005 1.005 0 1 1-2.01.002 1.005 1.005 0 0 1 2.01-.001M686.065 588.86a1.005 1.005 0 1 1-2.009.004 1.005 1.005 0 0 1 2.01-.003M690.836 588.86a1.005 1.005 0 1 1-2.01.004 1.005 1.005 0 0 1 2.01-.003M695.606 588.86a1.005 1.005 0 1 1-2.009.004 1.005 1.005 0 0 1 2.01-.003M700.378 588.86a1.005 1.005 0 1 1-2.011.002 1.005 1.005 0 0 1 2.01-.001M705.148 588.86a1.005 1.005 0 1 1-2.01.002 1.005 1.005 0 0 1 2.01-.001M709.919 588.86a1.005 1.005 0 1 1-2.01.002 1.005 1.005 0 0 1 2.01-.001M714.69 588.86a1.005 1.005 0 1 1-2.011.002 1.005 1.005 0 0 1 2.01-.001M719.46 588.86a1.005 1.005 0 1 1-2.01.004 1.005 1.005 0 0 1 2.01-.003M724.23 588.86a1.005 1.005 0 1 1-2.009.004 1.005 1.005 0 0 1 2.01-.003M681.295 593.551a1.004 1.004 0 1 1-2.009.001 1.004 1.004 0 0 1 2.009 0M686.065 593.551a1.004 1.004 0 1 1-2.01 0 1.005 1.005 0 0 1 2.01 0M690.836 593.551a1.004 1.004 0 1 1-2.01 0 1.004 1.004 0 1 1 2.01 0M695.606 593.551a1.004 1.004 0 1 1-2.01 0 1.005 1.005 0 0 1 2.01 0M700.378 593.551a1.005 1.005 0 1 1-2.01 0 1.005 1.005 0 0 1 2.01 0M705.148 593.551a1.004 1.004 0 1 1-2.008.001 1.004 1.004 0 0 1 2.008 0M709.919 593.551a1.004 1.004 0 1 1-2.009.001 1.004 1.004 0 0 1 2.009 0M714.69 593.551a1.004 1.004 0 1 1-2.01.001 1.004 1.004 0 0 1 2.01 0M719.46 593.551a1.004 1.004 0 1 1-2.01 0 1.005 1.005 0 0 1 2.01 0M724.23 593.551a1.004 1.004 0 1 1-2.01 0 1.005 1.005 0 0 1 2.01 0"/></g></g></g></g><g clip-path="url(#h)" transform="matrix(17.88647 0 0 17.88647 -11948.95 -619.247)"><path d="m310.678 46.973-.957 1.168-3.522 4.002c-.64-.76-1.316-1.176-2.017-1.176-.047 0-.101.017-.149.02-.063-.007-.127-.02-.191-.02l-.02.002-.015-.002c-.05 0-.106.01-.158.013-.36.023-.77.126-1.202.27a6.69 6.69 0 0 0-1.941-.283c-.045 0-.093.007-.139.008-.06-.002-.12-.008-.181-.008-.035 0-.073.009-.108.01-.077-.002-.152-.01-.23-.01-.011 0-.024.004-.035.004-.031 0-.061-.004-.092-.004-.017 0-.036.004-.053.004-.03 0-.06-.004-.09-.004-.043 0-.09.009-.135.01-3.621-1.488-7.988-1.487-12.99.091-4.292-.09-9.237-.101-15.15-.101-39.95 0-39.95 0-39.95 27.965 0 10.788.011 17.404 2.305 21.474l-3.775 6.49H311.252V78.233l-.002-.406c0-2.818-.011-5.364-.068-7.62l-.028-15.243-.209.4-.049-8.39-.146.187-.002-.187-.07.078z" style="fill:url(#i);fill-opacity:1;stroke-width:7.98988" transform="matrix(.12516 0 0 .12516 668.044 34.621)"/></g><path fill="#0733a1" d="M5.43 9.917c.407-4.782 8.952-8.528 16.64-8.528 6.358 0 14.813 2.38 17.672 7.113 7.484 12.399 12.985 27.541 17.42 36.398.113-2.774.275-2.702.461-4.944l3.284-38.639h18.385l-5.513 65.084c-.174 2.103-1.109 3.931-2.78 5.417-1.673 1.498-3.668 2.29-5.921 2.29h-9.289S29.183 18.682 27.811 16.25c-.635-.78-3.23-.857-3.308.107-.276 3.284-3.715 44.872-4.488 54.208-.102 1.132-.887 3.541-3.2 3.541H0ZM85.373 74.11l6.16-72.79h19.433l-5.507 65.077c-.18 2.104-1.114 3.937-2.774 5.418-1.684 1.498-3.68 2.295-5.933 2.295zM242.995 40.223c-3.745-3.343-9.947-6.232-16.677-8.605-4.464-1.546-8.533-3.343-10.78-5.225-2.05-1.702-2.972-3.955-2.739-6.7.09-1.006.378-2.06.881-3.128 1.762-3.78 8.174-4.781 11.763-4.781 4.615 0 10.295.73 16.81 3.493.928.402 4.859.821 6.639-3.224 1.917-4.314 3.757-9.384 3.757-9.384S240.029.194 226.624.194c-4.536 0-12.692.557-16.216 1.522-10.798 2.96-15.981 8.45-16.808 18.157-.432 5.1 2.373 10.32 6.615 13.837 4.015 3.332 9.498 6.124 16.282 8.287 4.159 1.438 8.311 3.338 10.3 5.274 2.17 2.133 2.86 5.237 2.236 8.185-.575 4.788-4.279 12.093-16.76 19.74.035 0 .065.005.107.005 5.717 0 11.595-.653 15.335-1.714 4.062-1.144 7.987-2.732 10.792-4.716 2.87-1.96 5.549-4.302 7.1-6.95 1.523-2.644 2.434-5.46 2.68-8.366.443-5.262-1.33-9.72-5.292-13.232" style="fill:#0052a3;fill-opacity:1;stroke-width:5.99241" transform="matrix(2.98485 0 0 2.98485 0 0)"/><g clip-path="url(#j)" transform="matrix(17.88647 0 0 17.88647 -11948.95 -619.247)"><path d="M175.424 3.03V98.905h80.863l-.795-9.543c.294-.679.38-1.376.254-2.082.276-1.288.136-2.657-.424-4.09V3.03h-39.949z" style="fill:url(#k);fill-opacity:1;stroke-width:7.98988" transform="matrix(.12516 0 0 .12516 668.044 34.621)"/></g><g clip-path="url(#l)" transform="matrix(17.88647 0 0 17.88647 -11948.95 -619.247)"><path d="M211.379-4.96c-17.502 0-19.975 3.462-19.975 27.964s2.473 27.963 19.975 27.963c.926 0 1.787-.015 2.63-.037.451.015.887.037 1.364.037.042 0 .079-.004.121-.004.043 0 .08.004.123.004.464 0 .888-.024 1.326-.04h.008c.777.027 1.575.04 2.385.04.336.087.672.136 1.004.152 1.168.295 2.257.253 3.26-.117 1.305 1.838 2.585 1.706 3.719-.037l.04.002c.367 0 .72-.385 1.057-1.05 2.41-1.658 2.938-9.66 2.938-26.913l-.002-.365.002-.108v-.193c0-.091-.004-.173-.004-.264-.001-.83-.01-1.607-.02-2.39-.004-.364-.004-.762-.01-1.116 0-.051 0-.11-.002-.162v-.021c-.018-.972-.05-1.873-.082-2.772-.01-.283-.014-.599-.025-.875-.05-1.167-.116-2.27-.196-3.312-.014-.186-.035-.351-.05-.533-.457-5.498-1.36-9.242-2.914-11.578-1.074-2.692-2.336-4.276-3.69-4.276l-.035.002-.027-.002-.012.002-.018-.002a2.05 2.05 0 0 0-.431.053c-.022-.005-.043-.014-.065-.018a2.326 2.326 0 0 0-.41-.035c-.46 0-.902.12-1.326.338a10.28 10.28 0 0 0-2.668-.338c-.38 0-.746.024-1.105.059-.519-.03-1.04-.059-1.596-.059-.048 0-.09.006-.137.006-.055 0-.103-.006-.158-.006l-.023.002-.047-.002c-.161 0-.302.012-.46.014-.16-.002-.305-.014-.47-.014-.477 0-.913.022-1.363.037a99.624 99.624 0 0 0-2.631-.037z" style="fill:url(#m);fill-opacity:1;stroke-width:7.98988" transform="matrix(.12516 0 0 .12516 668.044 34.621)"/></g><g clip-path="url(#n)" style="fill:#0052a3;fill-opacity:1" transform="matrix(17.88647 0 0 17.88647 -11948.95 -619.247)"><path fill="#0733a1" d="m0 0-.083.001c-1.563 0-2.548-.096-3.121-.182-.625-.096-.674-.373-.707-.657 0 0-.766-8.835-.837-10.002-.07-1.165 1.35-1.384 1.35-1.384h2.784-.238c-.004 0-.654.113-.682 1.243-.006.23.027.417.04.483l.725 8.553c.036.04.332.089.594.089 1 0 2.029-.046 2.843-.519C1.721-1.207.519-.343 0 0" style="fill:#0052a3;fill-opacity:1" transform="matrix(1 0 0 -1 692.34 34.764)"/></g><path fill="#595757" d="M291.584 22.472c.743 0 1.474-.156 2.17-.462a6.782 6.782 0 0 0 1.863-1.222 5.339 5.339 0 0 0 1.282-1.822c.306-.701.456-1.474.456-2.307 0-.869-.15-1.666-.456-2.385a5.704 5.704 0 0 0-1.282-1.882 6.26 6.26 0 0 0-1.864-1.216 5.54 5.54 0 0 0-2.169-.432c-1.57 0-2.882.558-3.955 1.648-1.079 1.109-1.612 2.53-1.612 4.267 0 .833.144 1.606.438 2.307a5.215 5.215 0 0 0 1.198 1.822c.51.503 1.097.91 1.768 1.222.659.306 1.378.462 2.163.462m27.026-11.728h6.43v6.137h-6.43v31.484h-32.73c-1.223 0-2.122-.306-2.68-.93-.563-.616-.85-1.437-.85-2.498V31.208h6.747v11.074h22.765V1.78h6.748zm-40.617-.922V3.895h10.271V0h6.742v3.895h10.469v5.927h-3.824c.678.934 1.199 1.989 1.552 3.152.36 1.156.54 2.385.54 3.685 0 1.702-.306 3.26-.923 4.674a11.61 11.61 0 0 1-2.529 3.685c-1.073 1.049-2.343 1.864-3.83 2.451-1.48.575-3.11.857-4.877.857-1.738 0-3.332-.282-4.776-.857-1.444-.587-2.702-1.384-3.781-2.42a10.915 10.915 0 0 1-2.505-3.698c-.587-1.42-.893-2.99-.893-4.692 0-1.3.18-2.529.54-3.685a10.47 10.47 0 0 1 1.558-3.152zM363.581 20.026h2.505v6.082H348.72v4.728h14.861V48.97h-6.741V36.966H327.11v-6.13h14.867v-4.728H324.66v-6.082h32.18V8.628h-29.573V2.492h33.246c.959 0 1.702.258 2.247.791.551.515.821 1.264.821 2.253zM385.327 20.626c.977 0 1.882-.186 2.703-.552a6.169 6.169 0 0 0 2.09-1.48 6.54 6.54 0 0 0 1.325-2.181 7.248 7.248 0 0 0 .462-2.577c0-.899-.156-1.774-.462-2.606-.3-.833-.749-1.57-1.324-2.194a6.133 6.133 0 0 0-2.091-1.498c-.821-.36-1.726-.54-2.703-.54-1.03 0-1.93.193-2.715.564a6.65 6.65 0 0 0-2.019 1.498 6.391 6.391 0 0 0-1.276 2.17 7.956 7.956 0 0 0 0 5.165c.293.833.719 1.546 1.276 2.163a6.65 6.65 0 0 0 2.02 1.498c.784.384 1.683.57 2.714.57m0-19.446c1.971 0 3.77.342 5.375 1.013 1.624.671 3.008 1.576 4.17 2.72a11.804 11.804 0 0 1 2.68 4.015c.635 1.535.946 3.176.946 4.908 0 1.702-.311 3.326-.947 4.86a12.165 12.165 0 0 1-2.678 4.045c-1.163 1.162-2.547 2.085-4.17 2.762-1.607.696-3.405 1.037-5.376 1.037-1.942 0-3.71-.341-5.291-1.037a12.688 12.688 0 0 1-6.795-6.831 12.557 12.557 0 0 1-.948-4.836c0-1.774.318-3.427.947-4.961.63-1.54 1.51-2.883 2.655-4.027 1.138-1.133 2.51-2.026 4.11-2.679 1.6-.647 3.38-.989 5.322-.989m19.511.6h6.736v46.584h-6.736v-11.35H370.46V30.94h34.378zM433.364 38.861h7.353v-7.43h-7.353zm14.094-7.43v7.43h10.265v6.076h-41.366v-6.076h10.265v-7.43h-3.937c-2.313 0-3.47-1.103-3.47-3.32V14.112h29.064V9.17h-29.063V3.14h35.805v17.103h-29.064v4.997h29.62v6.19zM496.476 1.78h6.795v46.585h-6.795ZM483.7 3.578c1.295 0 2.223.305 2.787.922.563.618.845 1.559.845 2.817 0 0 .713 20.338-16.294 33.827-1.042-.246-5.812-2.846-5.812-2.846s15.16-10.823 15.304-28.584h-17.144V3.578ZM542.815 1.78h6.79v46.585h-6.79zM530.04 3.578c1.3 0 2.224.305 2.787.922.563.618.85 1.559.85 2.817 0 0 .708 20.338-16.292 33.827-1.05-.246-5.825-2.846-5.825-2.846s15.16-10.823 15.322-28.584h-17.156V3.578ZM566.661 21.5c.99 0 1.9-.185 2.733-.55a6.936 6.936 0 0 0 2.17-1.469 6.566 6.566 0 0 0 1.437-2.17c.336-.826.51-1.737.51-2.714 0-1.012-.186-1.96-.54-2.852a6.83 6.83 0 0 0-1.456-2.253 7.1 7.1 0 0 0-2.175-1.468 6.764 6.764 0 0 0-2.679-.534c-.952 0-1.84.18-2.654.534a6.922 6.922 0 0 0-2.121 1.468 6.529 6.529 0 0 0-1.403 2.253 7.897 7.897 0 0 0-.509 2.852c0 .977.168 1.888.51 2.715.329.833.802 1.57 1.372 2.199a6.034 6.034 0 0 0 2.097 1.468c.82.348 1.72.521 2.708.521m33.456-10.702v6.082h-6.436v31.532h-31.586c-1.192 0-2.055-.3-2.594-.886-.552-.606-.821-1.427-.821-2.481V30.777h6.741v11.505h21.519V1.78h6.741v9.02ZM566.661 1.57c1.906 0 3.674.33 5.316.977a12.904 12.904 0 0 1 4.242 2.714c1.187 1.157 2.122 2.529 2.805 4.129.677 1.588 1.019 3.326 1.019 5.207 0 1.804-.348 3.494-1.043 5.052-.707 1.558-1.642 2.918-2.84 4.069-1.193 1.156-2.607 2.067-4.237 2.72-1.636.635-3.392.971-5.262.971-1.87 0-3.619-.336-5.23-1.007-1.625-.665-3.015-1.57-4.19-2.714a12.357 12.357 0 0 1-2.786-4.04c-.677-1.557-1.025-3.247-1.025-5.05 0-1.84.336-3.56 1.001-5.13a12.71 12.71 0 0 1 2.756-4.117c1.175-1.193 2.571-2.103 4.19-2.775 1.617-.677 3.379-1.006 5.284-1.006" style="stroke-width:5.99241" transform="matrix(2.98485 0 0 2.98485 0 0)"/><path fill="#595757" d="M634.059 1.782h6.747v46.585h-31.274c-1.235 0-2.157-.3-2.793-.899-.623-.599-.94-1.444-.94-2.534V31.319h6.747v10.96h21.513V17.914h-8.372v-6.088h8.372zm-19.967 13.196-9.804 13.081-5.567-4.554 11.392-14.28h-9.558v-6.13h27.074v6.13h-9.498l11.433 14.328-5.513 4.506zM669.954 44.999c.983 0 1.942-.18 2.859-.515a7.624 7.624 0 0 0 2.445-1.492 7.366 7.366 0 0 0 1.714-2.361c.425-.923.635-1.948.635-3.075 0-1.186-.21-2.24-.635-3.176a7.175 7.175 0 0 0-1.714-2.36 7.731 7.731 0 0 0-2.445-1.493 8.288 8.288 0 0 0-2.859-.515c-.952 0-1.87.18-2.738.545a7.104 7.104 0 0 0-2.301 1.522 7.368 7.368 0 0 0-1.6 2.361c-.414.93-.617 1.96-.617 3.116 0 1.127.203 2.152.617 3.075.401.916.94 1.701 1.6 2.36a6.928 6.928 0 0 0 2.3 1.493 7.56 7.56 0 0 0 2.74.515m-10.02-30.184-9.96 12.656-5.26-4.404 11.241-13.843h-9.558v-6.13h27.074v6.13h-9.498l11.284 13.843-1.474 1.252c1.192.288 2.295.701 3.307 1.247 1.031.539 1.972 1.198 2.817 1.953V17.368h-8.372v-6.076h8.372v-9.51h6.747v26.007h-6.436a13.248 13.248 0 0 1 2.96 4.35c.714 1.66 1.08 3.47 1.08 5.417 0 1.888-.372 3.644-1.103 5.298a13.567 13.567 0 0 1-3.014 4.308c-1.277 1.235-2.787 2.206-4.525 2.907-1.738.707-3.625 1.054-5.663 1.054-2.013 0-3.87-.347-5.578-1.054-1.702-.701-3.158-1.66-4.393-2.87a13.448 13.448 0 0 1-2.882-4.291c-.695-1.648-1.037-3.434-1.037-5.352 0-1.731.27-3.367.809-4.883.54-1.522 1.3-2.865 2.271-4.04.97-1.18 2.14-2.156 3.5-2.936 1.366-.773 2.882-1.3 4.548-1.6zM723.36 15.245h-22.32v7.113h22.32zm-7.873 23.568h17.372v6.124h-41.426v-6.124h17.312V28.494h-10.564c-1.373 0-2.362-.306-2.967-.929-.611-.611-.923-1.498-.923-2.648V2.493h6.748v6.628h22.322V2.493h6.735v26.001h-14.61zM752.549 17.963c1.606 0 2.954-.527 4.063-1.606 1.103-1.06 1.66-2.415 1.66-4.027 0-.839-.15-1.612-.462-2.319a6.01 6.01 0 0 0-1.222-1.846 5.267 5.267 0 0 0-1.81-1.216 5.736 5.736 0 0 0-2.229-.444 5.25 5.25 0 0 0-2.163.444 5.449 5.449 0 0 0-1.768 1.192 5.246 5.246 0 0 0-1.198 1.816c-.294.707-.438 1.492-.438 2.373 0 .785.144 1.522.438 2.211.281.69.677 1.289 1.174 1.792.497.51 1.079.905 1.756 1.193.689.3 1.414.437 2.199.437m19.056-16.18h6.741v46.633h-31.682c-1.126 0-1.959-.27-2.48-.815-.528-.545-.791-1.3-.791-2.277V32.572h5.686v-6.31h-11.29v-5.86h6.437a10.361 10.361 0 0 1-2.709-3.685 10.97 10.97 0 0 1-.917-4.387c0-1.57.282-3.032.84-4.404a10.88 10.88 0 0 1 2.408-3.62c1.03-1.024 2.295-1.851 3.775-2.463 1.486-.61 3.122-.928 4.926-.928 1.84 0 3.512.305 5.01.892 1.498.606 2.756 1.42 3.799 2.451 1.043 1.025 1.846 2.241 2.433 3.638.581 1.396.869 2.864.869 4.434 0 1.51-.312 2.966-.923 4.387a10.361 10.361 0 0 1-2.709 3.685h8.791v5.86h-14.004v8.432h-5.68v7.634h21.47v-7.682h-10.762v-5.37h10.762zM282.531 57.525h2.565l6.334 10.223h.036V57.525h2.32v13.872h-2.572l-6.31-10.199h-.06v10.2h-2.313zM302.153 66.367c-.336.222-.75.354-1.24.396-.492.048-.983.114-1.475.204-.479.084-.904.233-1.264.461-.366.222-.545.63-.545 1.21 0 .492.245.834.725 1.013.491.18.929.276 1.318.276.485 0 1.025-.144 1.606-.431.587-.288.875-.773.875-1.48zm2.217 2.799c0 .276.036.467.108.581.066.114.21.18.42.18.065 0 .137-.006.233-.012.09-.006.192-.018.312-.036v1.54a7.847 7.847 0 0 1-.69.168c-.293.054-.533.09-.718.09-.438 0-.803-.096-1.11-.276-.31-.18-.502-.497-.598-.953a3.88 3.88 0 0 1-1.618.935 6.477 6.477 0 0 1-1.858.294c-.905 0-1.708-.246-2.397-.731-.695-.486-1.043-1.223-1.043-2.205 0-1.259.408-2.062 1.235-2.41a10.082 10.082 0 0 1 2.637-.719c.797-.12 1.498-.221 2.109-.311.6-.09.899-.462.899-1.109 0-.569-.234-.94-.701-1.108a4.045 4.045 0 0 0-1.379-.252c-.623 0-1.132.132-1.534.39-.401.257-.629.659-.677 1.204h-2.217c.078-1.3.581-2.175 1.51-2.643a6.755 6.755 0 0 1 3.056-.7c.983 0 1.906.221 2.745.658.857.444 1.276 1.193 1.276 2.254zM305.4 61.352h1.667v-3.008h2.217v3.008h2.001v1.654h-2.001v5.363c0 .456.054.797.168 1.025.108.24.413.354.899.354.167 0 .311 0 .473-.006.15-.006.312-.03.461-.072v1.714a9.142 9.142 0 0 0-.719.066c-.233.03-.473.047-.713.047-1.156 0-1.905-.221-2.259-.659-.348-.443-.527-1.078-.527-1.905v-5.927H305.4zM313.324 61.35h2.217V71.4h-2.217zm0-3.823h2.217v2.104h-2.217zM322.559 69.925c1 0 1.72-.377 2.175-1.126a4.624 4.624 0 0 0 .683-2.433c0-.863-.227-1.672-.683-2.42-.455-.744-1.174-1.116-2.175-1.116-.983 0-1.708.372-2.17 1.115a4.589 4.589 0 0 0-.688 2.421c0 .869.233 1.678.689 2.433.461.749 1.186 1.126 2.169 1.126m0 1.75c-1.612 0-2.858-.503-3.745-1.498-.881-1-1.325-2.265-1.325-3.811 0-1.54.444-2.804 1.325-3.8.887-.994 2.133-1.485 3.745-1.485 1.624 0 2.87.491 3.751 1.486.875.995 1.318 2.259 1.318 3.799 0 1.546-.443 2.81-1.318 3.811-.88.995-2.127 1.498-3.751 1.498M329.476 61.352h2.103v1.48l.03.036a3.753 3.753 0 0 1 1.325-1.312 3.533 3.533 0 0 1 1.81-.473c1.084 0 1.953.287 2.594.863.641.575.959 1.432.959 2.558v6.898h-2.211v-6.316c0-.791-.168-1.36-.498-1.72-.33-.36-.82-.534-1.474-.534-.731 0-1.318.258-1.768.768-.437.509-.659 1.132-.659 1.875v5.927h-2.211zM347.02 66.367c-.336.222-.75.354-1.24.396-.492.048-.99.114-1.475.204-.485.084-.905.233-1.264.461-.366.222-.551.63-.551 1.21 0 .492.245.834.73 1.013.486.18.93.276 1.313.276.491 0 1.03-.144 1.612-.431.587-.288.875-.773.875-1.48zm2.217 2.799c0 .276.036.467.108.581.066.114.21.18.42.18.06 0 .137-.006.233-.012.09-.006.186-.018.312-.036v1.54a7.845 7.845 0 0 1-.69.168 4.24 4.24 0 0 1-.718.09c-.438 0-.81-.096-1.115-.276-.306-.18-.497-.497-.593-.953a3.918 3.918 0 0 1-1.618.935 6.509 6.509 0 0 1-1.858.294c-.905 0-1.708-.246-2.397-.731-.689-.486-1.043-1.223-1.043-2.205 0-1.259.414-2.062 1.235-2.41a10.018 10.018 0 0 1 2.637-.719c.797-.12 1.498-.221 2.103-.311.605-.09.905-.462.905-1.109 0-.569-.234-.94-.701-1.108a4.045 4.045 0 0 0-1.379-.252c-.623 0-1.132.132-1.534.39-.401.257-.635.659-.683 1.204h-2.211c.078-1.3.581-2.175 1.51-2.643a6.755 6.755 0 0 1 3.056-.7c.983 0 1.9.221 2.745.658.85.444 1.276 1.193 1.276 2.254zM352.07 57.527h2.218V71.4h-2.217zM363.187 57.527h2.427V71.4h-2.427zM368.666 61.352h2.104v1.48l.036.036a3.688 3.688 0 0 1 1.318-1.312 3.549 3.549 0 0 1 1.81-.473c1.09 0 1.947.287 2.594.863.642.575.965 1.432.965 2.558v6.898h-2.217v-6.316c0-.791-.168-1.36-.491-1.72-.336-.36-.821-.534-1.475-.534-.737 0-1.324.258-1.767.768-.438.509-.66 1.132-.66 1.875v5.927h-2.217zM381.593 68.176c.066.635.312 1.084.737 1.348.42.27.935.402 1.534.402.414 0 .893-.078 1.444-.234.552-.156.815-.516.791-1.09-.03-.582-.383-.966-1.06-1.151a60.398 60.398 0 0 0-2.223-.522 7.76 7.76 0 0 1-2.23-.85c-.665-.39-1-1.097-1-2.122 0-1.103.473-1.852 1.42-2.265.953-.408 1.875-.611 2.774-.611 1.043 0 1.966.24 2.78.713.822.473 1.29 1.264 1.421 2.379h-2.307c-.096-.534-.336-.887-.72-1.067a3.153 3.153 0 0 0-1.323-.275c-.324 0-.714.065-1.163.185-.443.12-.671.408-.671.845 0 .546.347.905 1.025 1.079a64.8 64.8 0 0 0 2.247.533 8.082 8.082 0 0 1 2.223.857c.677.39 1.019 1.079 1.019 2.08 0 1.192-.486 2.03-1.463 2.522-.982.492-1.989.743-3.026.743-1.252 0-2.307-.287-3.14-.869-.85-.575-1.282-1.456-1.306-2.63zM388.996 61.352h1.666v-3.008h2.217v3.008h2.002v1.654h-2.002v5.363c0 .456.054.797.168 1.025.108.24.407.354.899.354.162 0 .311 0 .467-.006.156-.006.312-.03.468-.072v1.714a9.571 9.571 0 0 0-.725.066c-.228.03-.468.047-.713.047-1.151 0-1.906-.221-2.254-.659-.347-.443-.527-1.078-.527-1.905v-5.927h-1.666zM396.918 61.35h2.217V71.4h-2.217zm0-3.823h2.217v2.104h-2.217zM400.513 61.352h1.672v-3.008h2.217v3.008h2.001v1.654h-2.001v5.363c0 .456.054.797.168 1.025.108.24.407.354.899.354.155 0 .317 0 .467-.006.162-.006.312-.03.467-.072v1.714a9.141 9.141 0 0 0-.719.066 5.64 5.64 0 0 1-.719.047c-1.15 0-1.905-.221-2.253-.659-.347-.443-.527-1.078-.527-1.905v-5.927h-1.672zM416.816 71.4h-2.169v-1.396h-.042a3.07 3.07 0 0 1-1.216 1.21 3.235 3.235 0 0 1-1.642.462c-1.306 0-2.265-.336-2.853-.995-.599-.66-.898-1.648-.898-2.954V61.35h2.21v6.166c0 .881.18 1.498.522 1.864.342.365.815.545 1.414.545.911 0 1.552-.264 1.918-.785.365-.527.545-1.18.545-1.96v-5.83h2.211zM418.238 61.352h1.666v-3.008h2.218v3.008h2.001v1.654h-2.001v5.363c0 .456.053.797.167 1.025.108.24.414.354.9.354.161 0 .31 0 .467-.006.155-.006.311-.03.467-.072v1.714a9.141 9.141 0 0 0-.719.066c-.234.03-.473.047-.713.047-1.157 0-1.906-.221-2.253-.659-.354-.443-.534-1.078-.534-1.905v-5.927h-1.666zM432.617 65.492a3.075 3.075 0 0 0-.731-1.857c-.444-.534-1.05-.803-1.792-.803-.767 0-1.39.257-1.876.767-.485.509-.737 1.144-.767 1.893zm-5.166 1.456c0 .791.216 1.487.66 2.08.437.599 1.12.899 2.037.899.647 0 1.168-.144 1.57-.426.395-.275.683-.689.88-1.252h2.098c-.246 1.102-.791 1.947-1.636 2.54-.833.588-1.816.887-2.912.887-1.57 0-2.78-.497-3.638-1.492-.85-.988-1.27-2.253-1.27-3.799 0-1.42.431-2.66 1.3-3.721.881-1.049 2.062-1.582 3.554-1.582 1.576 0 2.81.605 3.685 1.81.881 1.204 1.229 2.558 1.055 4.056zM447.305 69.925c1.001 0 1.72-.377 2.176-1.126.449-.755.689-1.564.689-2.433 0-.863-.24-1.672-.69-2.42-.455-.744-1.174-1.116-2.175-1.116-.982 0-1.708.372-2.163 1.115a4.582 4.582 0 0 0 0 4.854c.455.749 1.18 1.126 2.163 1.126m0 1.75c-1.606 0-2.858-.503-3.739-1.498-.88-1-1.33-2.265-1.33-3.811 0-1.54.45-2.804 1.33-3.8.88-.994 2.133-1.485 3.74-1.485 1.623 0 2.87.491 3.75 1.486.875.995 1.325 2.259 1.325 3.799 0 1.546-.45 2.81-1.324 3.811-.881.995-2.128 1.498-3.752 1.498M453.332 61.352h1.648v-.833c0-1.282.288-2.103.857-2.456.57-.36 1.21-.54 1.924-.54.353 0 .659.012.91.03.264.024.474.054.642.108v1.732a3.225 3.225 0 0 0-.456-.09 5.14 5.14 0 0 0-.575-.03c-.293 0-.557.072-.767.216-.21.144-.317.42-.317.839v1.024h1.881v1.654h-1.881v8.396h-2.218v-8.396h-1.648zM466.891 57.525h3.422l3.83 10.864h.035l3.734-10.864h3.38v13.872h-2.314V60.695h-.036l-3.853 10.702h-1.995l-3.848-10.702h-.041v10.702h-2.313zM491.025 65.492a3.076 3.076 0 0 0-.73-1.857c-.438-.534-1.043-.803-1.799-.803-.76 0-1.384.257-1.87.767-.485.509-.736 1.144-.766 1.893zm-5.165 1.456c0 .791.222 1.487.659 2.08.437.599 1.12.899 2.037.899.648 0 1.169-.144 1.57-.426.39-.275.69-.689.881-1.252h2.098c-.24 1.102-.791 1.947-1.63 2.54-.84.588-1.816.887-2.919.887-1.564 0-2.774-.497-3.631-1.492-.857-.988-1.276-2.253-1.276-3.799 0-1.42.431-2.66 1.306-3.721.875-1.049 2.055-1.582 3.541-1.582 1.582 0 2.817.605 3.698 1.81.88 1.204 1.228 2.558 1.048 4.056zM497.052 66.485c0 .869.222 1.66.666 2.373.455.707 1.15 1.067 2.109 1.067 1 0 1.714-.378 2.151-1.127a4.724 4.724 0 0 0 .671-2.433c0-1.115-.251-1.977-.749-2.6-.497-.624-1.18-.935-2.031-.935-1.037 0-1.768.389-2.193 1.144a5.149 5.149 0 0 0-.624 2.51m7.73 4.915h-2.103v-1.36h-.03c-.287.569-.725.988-1.294 1.246-.581.257-1.18.39-1.816.39-1.588 0-2.762-.522-3.541-1.559-.78-1.036-1.163-2.307-1.163-3.805 0-1.816.45-3.14 1.343-3.973.91-.839 1.911-1.252 3.008-1.252.635 0 1.264.12 1.893.365.63.246 1.109.653 1.45 1.205h.036v-5.13h2.218zM507.64 61.35h2.211V71.4h-2.211zm0-3.823h2.211v2.104h-2.211zM519.044 64.717c-.09-.611-.348-1.079-.755-1.402-.414-.324-.923-.486-1.534-.486-.575 0-1.175.228-1.81.683-.635.45-.953 1.445-.953 2.973 0 .827.204 1.606.618 2.343.401.73 1.084 1.096 2.049 1.096.641 0 1.18-.21 1.6-.61.413-.408.683-.972.785-1.685h2.217c-.21 1.295-.707 2.295-1.486 2.996-.79.696-1.828 1.05-3.116 1.05-1.57 0-2.768-.498-3.62-1.493-.844-.989-1.264-2.223-1.264-3.697 0-1.516.414-2.793 1.247-3.836.827-1.048 2.067-1.564 3.709-1.564 1.168 0 2.187.294 3.062.887.875.6 1.366 1.51 1.468 2.745zM529.654 66.367c-.342.222-.75.354-1.247.396-.485.048-.983.114-1.474.204-.48.084-.899.233-1.264.461-.36.222-.546.63-.546 1.21 0 .492.246.834.731 1.013.486.18.93.276 1.313.276.497 0 1.03-.144 1.612-.431.58-.288.875-.773.875-1.48zm2.217 2.799c0 .276.036.467.108.581.066.114.21.18.42.18.065 0 .13-.006.227-.012.096-.006.192-.018.317-.036v1.54a7.34 7.34 0 0 1-.689.168c-.293.054-.533.09-.719.09-.437 0-.809-.096-1.114-.276-.306-.18-.498-.497-.594-.953a3.956 3.956 0 0 1-1.618.935 6.541 6.541 0 0 1-1.857.294c-.905 0-1.708-.246-2.397-.731-.695-.486-1.043-1.223-1.043-2.205 0-1.259.408-2.062 1.229-2.41a10.061 10.061 0 0 1 2.642-.719c.797-.12 1.498-.221 2.104-.311.605-.09.898-.462.898-1.109 0-.569-.227-.94-.7-1.108a3.986 3.986 0 0 0-1.373-.252c-.623 0-1.133.132-1.534.39-.402.257-.635.659-.677 1.204h-2.217c.072-1.3.58-2.175 1.51-2.643a6.749 6.749 0 0 1 3.05-.7c.983 0 1.905.221 2.75.658.851.444 1.277 1.193 1.277 2.254zM534.708 57.527h2.211V71.4h-2.211zM548.252 69.42h2.385c1.911 0 3.152-.48 3.739-1.439.593-.959.887-2.133.887-3.517 0-1.385-.294-2.56-.887-3.518-.587-.959-1.828-1.438-3.74-1.438h-2.384zm-2.427-11.896h5.752c2.134 0 3.686.678 4.656 2.032.971 1.354 1.457 2.99 1.457 4.908 0 1.917-.486 3.553-1.457 4.901-.97 1.36-2.522 2.038-4.656 2.038h-5.752zM566.831 65.492a3.15 3.15 0 0 0-.731-1.857c-.45-.534-1.049-.803-1.798-.803-.767 0-1.39.257-1.875.767-.486.509-.737 1.144-.767 1.893zm-5.171 1.456c0 .791.215 1.487.659 2.08.437.599 1.12.899 2.037.899.647 0 1.169-.144 1.57-.426.396-.275.69-.689.881-1.252h2.097c-.245 1.102-.785 1.947-1.635 2.54-.833.588-1.81.887-2.913.887-1.564 0-2.78-.497-3.631-1.492-.851-.988-1.277-2.253-1.277-3.799 0-1.42.432-2.66 1.3-3.721.882-1.049 2.062-1.582 3.554-1.582 1.582 0 2.81.605 3.692 1.81.88 1.204 1.222 2.558 1.048 4.056zM568.985 61.352h2.409l2.54 7.719h.042l2.451-7.719h2.29l-3.596 10.05h-2.487zM580.448 61.35h2.211V71.4h-2.211zm0-3.823h2.211v2.104h-2.211zM591.848 64.717c-.09-.611-.341-1.079-.755-1.402-.407-.324-.923-.486-1.534-.486-.575 0-1.174.228-1.81.683-.629.45-.952 1.445-.952 2.973 0 .827.21 1.606.623 2.343.401.73 1.084 1.096 2.05 1.096.64 0 1.18-.21 1.593-.61.42-.408.683-.972.785-1.685h2.217c-.203 1.295-.7 2.295-1.486 2.996-.785.696-1.821 1.05-3.11 1.05-1.57 0-2.774-.498-3.62-1.493-.844-.989-1.264-2.223-1.264-3.697 0-1.516.414-2.793 1.24-3.836.834-1.048 2.074-1.564 3.716-1.564 1.169 0 2.181.294 3.062.887.87.6 1.366 1.51 1.462 2.745zM603.166 65.492a3.112 3.112 0 0 0-.731-1.857c-.45-.534-1.049-.803-1.798-.803-.767 0-1.39.257-1.875.767-.486.509-.737 1.144-.767 1.893zm-5.171 1.456c0 .791.221 1.487.659 2.08.437.599 1.126.899 2.043.899.641 0 1.163-.144 1.564-.426.396-.275.69-.689.887-1.252h2.091c-.24 1.102-.785 1.947-1.63 2.54-.838.588-1.815.887-2.912.887-1.57 0-2.78-.497-3.637-1.492-.851-.988-1.277-2.253-1.277-3.799 0-1.42.438-2.66 1.3-3.721.882-1.049 2.062-1.582 3.554-1.582 1.582 0 2.817.605 3.692 1.81.88 1.204 1.222 2.558 1.048 4.056zM615.15 66.777c0 1.06.348 1.822 1.032 2.277.689.468 1.516.695 2.486.695 1.08 0 1.834-.221 2.278-.665.437-.437.659-.917.659-1.432 0-.533-.12-.923-.36-1.174a1.97 1.97 0 0 0-.785-.54c-.48-.18-1.049-.347-1.708-.515a80.496 80.496 0 0 1-2.439-.635c-1.174-.318-1.983-.81-2.415-1.462-.431-.654-.647-1.337-.647-2.05 0-1.384.528-2.415 1.588-3.08a6.429 6.429 0 0 1 3.476-1c1.456 0 2.702.377 3.751 1.126 1.055.755 1.576 1.851 1.576 3.308h-2.427c-.054-.9-.353-1.528-.905-1.894-.551-.377-1.246-.563-2.085-.563-.563 0-1.12.132-1.696.383-.563.252-.85.731-.85 1.432 0 .474.149.857.455 1.145.305.282.7.497 1.192.641.108.024.707.186 1.81.474 1.102.293 1.834.491 2.193.593.929.27 1.6.749 2.037 1.426.444.683.66 1.384.66 2.11 0 1.551-.564 2.672-1.72 3.343-1.139.677-2.41 1.013-3.787 1.013-1.582 0-2.937-.396-4.07-1.187-1.126-.79-1.695-2.043-1.725-3.769zM632.62 66.367c-.336.222-.75.354-1.241.396a17.9 17.9 0 0 0-1.48.204c-.48.084-.9.233-1.265.461-.365.222-.539.63-.539 1.21 0 .492.24.834.725 1.013.486.18.929.276 1.313.276.497 0 1.03-.144 1.611-.431.582-.288.875-.773.875-1.48zm2.217 2.799c0 .276.035.467.107.581.066.114.21.18.42.18.066 0 .138-.006.228-.012.095-.006.191-.018.317-.036v1.54a7.845 7.845 0 0 1-.689.168c-.294.054-.533.09-.719.09-.437 0-.809-.096-1.115-.276-.305-.18-.497-.497-.593-.953a3.956 3.956 0 0 1-1.618.935 6.541 6.541 0 0 1-1.857.294c-.905 0-1.708-.246-2.397-.731-.696-.486-1.043-1.223-1.043-2.205 0-1.259.413-2.062 1.234-2.41a10.018 10.018 0 0 1 2.637-.719c.797-.12 1.498-.221 2.103-.311.606-.09.9-.462.9-1.109 0-.569-.229-.94-.702-1.108a3.961 3.961 0 0 0-1.372-.252c-.623 0-1.139.132-1.534.39-.402.257-.635.659-.677 1.204h-2.218c.072-1.3.582-2.175 1.51-2.643a6.749 6.749 0 0 1 3.05-.7c.99 0 1.906.221 2.751.658.851.444 1.277 1.193 1.277 2.254zM636.335 61.352h1.648v-.833c0-1.282.288-2.103.857-2.456.57-.36 1.21-.54 1.924-.54.353 0 .659.012.916.03.252.024.468.054.636.108v1.732c-.138-.042-.294-.066-.45-.09a5.425 5.425 0 0 0-.581-.03c-.3 0-.557.072-.767.216-.21.144-.318.42-.318.839v1.024h1.888v1.654H640.2v8.396h-2.217v-8.396h-1.648zM650.052 65.492a3.075 3.075 0 0 0-.731-1.857c-.444-.534-1.049-.803-1.798-.803-.767 0-1.384.257-1.87.767-.485.509-.743 1.144-.773 1.893zm-5.172 1.456c0 .791.222 1.487.66 2.08.437.599 1.126.899 2.043.899.647 0 1.169-.144 1.564-.426.396-.275.69-.689.887-1.252h2.097c-.245 1.102-.79 1.947-1.636 2.54-.839.588-1.815.887-2.912.887-1.57 0-2.78-.497-3.637-1.492-.851-.988-1.277-2.253-1.277-3.799 0-1.42.438-2.66 1.307-3.721.874-1.049 2.055-1.582 3.547-1.582 1.582 0 2.816.605 3.691 1.81.881 1.204 1.229 2.558 1.05 4.056zM652.949 61.352h1.665v-3.008h2.212v3.008h2.007v1.654h-2.007v5.363c0 .456.06.797.173 1.025.108.24.408.354.9.354.161 0 .31 0 .467-.006.156-.006.311-.03.467-.072v1.714a9.141 9.141 0 0 0-.719.066c-.234.03-.473.047-.719.047-1.157 0-1.9-.221-2.253-.659-.348-.443-.528-1.078-.528-1.905v-5.927h-1.665zM659.064 61.352h2.433l2.624 7.503h.036l2.541-7.503h2.32l-3.908 10.595c-.341.905-.725 1.702-1.168 2.397-.438.695-1.24 1.037-2.391 1.037-.258 0-.51-.006-.767-.024-.252-.024-.51-.054-.767-.09v-1.864c.185.024.365.054.533.084.18.036.354.048.521.048.516 0 .87-.12 1.067-.378.192-.251.354-.593.485-1.018l.252-.773zM676.752 57.527h2.427V71.4h-2.427zM682.232 61.352h2.098v1.48l.036.036a3.752 3.752 0 0 1 1.324-1.312 3.496 3.496 0 0 1 1.804-.473c1.09 0 1.953.287 2.6.863.636.575.96 1.432.96 2.558v6.898h-2.212v-6.316c0-.791-.174-1.36-.497-1.72-.336-.36-.821-.534-1.475-.534-.737 0-1.324.258-1.767.768-.438.509-.66 1.132-.66 1.875v5.927h-2.21zM692.783 61.352h1.648v-.833c0-1.282.282-2.103.857-2.456.57-.36 1.21-.54 1.924-.54.347 0 .653.012.91.03.258.024.474.054.642.108v1.732a3.403 3.403 0 0 0-.456-.09 5.222 5.222 0 0 0-.575-.03c-.3 0-.557.072-.767.216-.216.144-.318.42-.318.839v1.024h1.882v1.654h-1.882v8.396h-2.217v-8.396h-1.648zM704.206 69.925c.995 0 1.72-.377 2.175-1.126a4.68 4.68 0 0 0 .683-2.433c0-.863-.233-1.672-.683-2.42-.455-.744-1.18-1.116-2.175-1.116-.989 0-1.702.372-2.17 1.115a4.589 4.589 0 0 0-.688 2.421c0 .869.233 1.678.689 2.433.467.749 1.18 1.126 2.169 1.126m0 1.75c-1.612 0-2.859-.503-3.745-1.498-.881-1-1.33-2.265-1.33-3.811 0-1.54.449-2.804 1.33-3.8.886-.994 2.133-1.485 3.745-1.485 1.624 0 2.87.491 3.751 1.486.875.995 1.318 2.259 1.318 3.799 0 1.546-.443 2.81-1.318 3.811-.88.995-2.127 1.498-3.751 1.498M711.123 61.352h2.08v1.942h.041c.126-.527.48-1.03 1.055-1.504.581-.468 1.198-.707 1.876-.707.257 0 .437.006.545.018.102.012.198.03.288.042v2.133c-.15-.024-.312-.048-.474-.066a3.22 3.22 0 0 0-.48-.03c-.748 0-1.39.294-1.917.887-.533.587-.803 1.438-.803 2.553v4.782h-2.211zM718.737 61.352h2.103v1.403h.054c.342-.492.737-.9 1.21-1.205.462-.311 1.091-.467 1.882-.467.611 0 1.175.138 1.696.407.527.27.905.695 1.12 1.265a4.37 4.37 0 0 1 1.307-1.229c.503-.3 1.115-.443 1.84-.443 1.066 0 1.893.257 2.475.767.593.51.892 1.384.892 2.612v6.94H731.1v-5.873c0-.803-.09-1.45-.263-1.947-.18-.498-.702-.75-1.565-.75-.749 0-1.3.24-1.635.708-.336.473-.504 1.132-.504 1.971v5.89h-2.217v-6.453c0-.683-.12-1.21-.372-1.57-.257-.366-.719-.546-1.396-.546-.569 0-1.072.222-1.522.666-.45.45-.671 1.096-.671 1.941v5.963h-2.217zM742.425 66.367c-.335.222-.755.354-1.24.396-.497.048-.989.114-1.48.204-.48.084-.899.233-1.264.461-.366.222-.54.63-.54 1.21 0 .492.24.834.725 1.013.486.18.923.276 1.313.276.491 0 1.03-.144 1.612-.431.587-.288.874-.773.874-1.48zm2.218 2.799c0 .276.03.467.108.581.065.114.21.18.413.18.072 0 .144-.006.234-.012.09-.006.191-.018.317-.036v1.54a8.062 8.062 0 0 1-.695.168c-.293.054-.527.09-.713.09-.437 0-.809-.096-1.114-.276-.306-.18-.498-.497-.594-.953a3.918 3.918 0 0 1-1.618.935 6.548 6.548 0 0 1-1.863.294c-.9 0-1.702-.246-2.397-.731-.69-.486-1.037-1.223-1.037-2.205 0-1.259.407-2.062 1.234-2.41a10.038 10.038 0 0 1 2.631-.719c.803-.12 1.504-.221 2.11-.311.605-.09.898-.462.898-1.109 0-.569-.233-.94-.695-1.108a4.045 4.045 0 0 0-1.378-.252c-.623 0-1.139.132-1.534.39-.402.257-.63.659-.683 1.204h-2.211c.071-1.3.58-2.175 1.51-2.643a6.737 6.737 0 0 1 3.056-.7c.977 0 1.9.221 2.744.658.851.444 1.277 1.193 1.277 2.254zM745.673 61.352h1.666v-3.008h2.217v3.008h1.996v1.654h-1.996v5.363c0 .456.054.797.168 1.025.102.24.408.354.9.354.16 0 .31 0 .466-.006.156-.006.312-.03.462-.072v1.714c-.24.012-.48.036-.713.066-.234.03-.474.047-.72.047-1.15 0-1.899-.221-2.252-.659-.348-.443-.528-1.078-.528-1.905v-5.927h-1.666zM753.598 61.35h2.218V71.4h-2.218zm0-3.823h2.218v2.104h-2.218zM762.825 69.925c1.001 0 1.726-.377 2.182-1.126a4.68 4.68 0 0 0 .683-2.433c0-.863-.234-1.672-.683-2.42-.456-.744-1.18-1.116-2.182-1.116-.982 0-1.701.372-2.163 1.115a4.59 4.59 0 0 0-.689 2.421c0 .869.234 1.678.69 2.433.46.749 1.18 1.126 2.162 1.126m0 1.75c-1.606 0-2.852-.503-3.739-1.498-.88-1-1.33-2.265-1.33-3.811 0-1.54.45-2.804 1.33-3.8.887-.994 2.133-1.485 3.74-1.485 1.623 0 2.87.491 3.757 1.486.875.995 1.318 2.259 1.318 3.799 0 1.546-.443 2.81-1.318 3.811-.887.995-2.134 1.498-3.758 1.498M769.742 61.352h2.104v1.48l.036.036a3.736 3.736 0 0 1 1.318-1.312 3.555 3.555 0 0 1 1.816-.473c1.084 0 1.947.287 2.588.863.642.575.965 1.432.965 2.558v6.898h-2.217v-6.316c0-.791-.168-1.36-.491-1.72-.33-.36-.821-.534-1.474-.534-.738 0-1.325.258-1.768.768-.438.509-.66 1.132-.66 1.875v5.927h-2.217z" style="stroke-width:5.99241" transform="matrix(2.98485 0 0 2.98485 0 0)"/></svg>