<svg xmlns="http://www.w3.org/2000/svg" width="107.92874mm" height="23.691603mm" viewBox="0 0 107.92874 23.691603"><path d="M690.791 466.826h1.762v-10.421h-1.762zm7.304 0-3.615-4.834 3.855-5.587h-2.258l-3.509 5.557 3.388 4.864z" style="fill:#4f4c4d;fill-opacity:1;fill-rule:nonzero;stroke:none" transform="matrix(.35278 0 0 -.35278 -213.478 181.206)"/><path d="M0 0c2.711 0 4.277 2.108 4.277 5.361 0 3.042-1.416 5.376-4.352 5.376-2.605 0-4.352-1.926-4.352-5.36C-4.427 2.289-2.966 0 0 0m-.045 1.311c-1.777 0-2.455 1.491-2.455 4.171 0 2.499.663 3.915 2.41 3.915 1.867 0 2.394-1.596 2.394-4.141 0-2.801-.798-3.945-2.349-3.945" style="fill:#4f4c4d;fill-opacity:1;fill-rule:nonzero;stroke:none" transform="matrix(.35278 0 0 -.35278 34.66 20.255)"/><path d="m0 0-1.536 2.5c-.543.873-1.235 1.882-1.611 2.078 1.626 0 2.589 1.37 2.589 2.861 0 1.626-1.054 2.982-3.388 2.982h-3.178V0h1.702v4.503c.331-.016.482-.121.678-.316.572-.573 1.054-1.295 1.777-2.576L-2.063 0Zm-4.474 9.021c1.536 0 2.109-.542 2.109-1.596 0-.543-.181-.98-.467-1.266-.315-.316-.798-.436-1.701-.436h-.889v3.298z" style="fill:#4f4c4d;fill-opacity:1;fill-rule:nonzero;stroke:none" transform="matrix(.35278 0 0 -.35278 39.521 20.197)"/><path d="M0 0v10.421h5.782l-.225-1.415H1.731V6.159h3.208v-1.43H1.762V1.476h4.172V0Z" style="fill:#4f4c4d;fill-opacity:1;fill-rule:nonzero;stroke:none" transform="matrix(.35278 0 0 -.35278 40.307 20.197)"/><path d="m0 0-3.328 10.437h-2.003L-8.75 0h1.792l.844 2.741h3.373L-1.897 0Zm-3.133 4.187h-2.559c.241.692 1.309 4.442 1.309 4.442h.016c.075-.406 1.129-4.217 1.234-4.442" style="fill:#4f4c4d;fill-opacity:1;fill-rule:nonzero;stroke:none" transform="matrix(.35278 0 0 -.35278 45.87 20.197)"/><path d="M0 0c-1.386 0-2.484.527-3.298 1.506-.783.949-1.189 2.214-1.189 3.72 0 1.25.225 2.289.692 3.163.783 1.49 2.214 2.394 3.84 2.394 1.01 0 1.974-.302 2.591-.813l-.798-1.145a2.9 2.9 0 0 1-1.777.587c-.889 0-1.627-.451-2.079-1.25-.361-.632-.542-1.506-.542-2.74 0-1.28.135-2.003.407-2.59.452-.994 1.31-1.477 2.319-1.477.737 0 1.28.197 1.867.664l.814-1.1C2.033.302 1.114 0 0 0" style="fill:#4f4c4d;fill-opacity:1;fill-rule:nonzero;stroke:none" transform="matrix(.35278 0 0 -.35278 49.084 20.255)"/><path d="M0 0c2.711 0 4.276 2.108 4.276 5.361 0 3.042-1.415 5.376-4.351 5.376-2.606 0-4.353-1.926-4.353-5.36C-4.428 2.289-2.967 0 0 0m-.045 1.311c-1.777 0-2.455 1.491-2.455 4.171 0 2.499.663 3.915 2.409 3.915 1.868 0 2.395-1.596 2.395-4.141 0-2.801-.798-3.945-2.349-3.945" style="fill:#4f4c4d;fill-opacity:1;fill-rule:nonzero;stroke:none" transform="matrix(.35278 0 0 -.35278 52.058 20.255)"/><path d="M0 0c0 1.145-.512 2.078-1.431 2.62-.572.347-1.129.497-2.65.497h-2.771V-7.304h1.717v3.976h1.762C-1.49-3.328 0-2.048 0 0m-3.779 1.717c.677 0 1.129-.181 1.445-.512.286-.302.422-.738.422-1.31 0-1.235-.587-1.837-1.867-1.837h-1.356v3.659z" style="fill:#4f4c4d;fill-opacity:1;fill-rule:nonzero;stroke:none" transform="matrix(.35278 0 0 -.35278 56.786 17.62)"/><path d="M0 0v-4.201h-1.792V.016L-5.075 6.22h2.094l1.565-3.268c.316-.663.558-1.341.558-1.341s.3.739.572 1.311L1.311 6.22h2.017z" style="fill:#4f4c4d;fill-opacity:1;fill-rule:nonzero;stroke:none" transform="matrix(.35278 0 0 -.35278 58.762 18.714)"/><path d="m0 0-1.536 2.5c-.542.873-1.235 1.882-1.611 2.078 1.626 0 2.59 1.37 2.59 2.861 0 1.626-1.054 2.982-3.388 2.982h-3.178V0h1.702v4.503c.331-.016.482-.121.678-.316.572-.573 1.054-1.295 1.776-2.576L-2.063 0Zm-4.473 9.021c1.536 0 2.109-.542 2.109-1.596 0-.543-.181-.98-.467-1.266-.316-.316-.798-.436-1.702-.436h-.888v3.298z" style="fill:#4f4c4d;fill-opacity:1;fill-rule:nonzero;stroke:none" transform="matrix(.35278 0 0 -.35278 62.89 20.197)"/><path d="M785.589 466.826h1.777v-10.421h-1.777z" style="fill:#4f4c4d;fill-opacity:1;fill-rule:nonzero;stroke:none" transform="matrix(.35278 0 0 -.35278 -213.478 181.206)"/><path d="M0 0c-1.461 0-2.59.467-3.403 1.476-.798.979-1.159 2.154-1.159 3.795 0 2.138.647 3.644 1.957 4.608.752.572 1.566.813 2.575.813 1.19 0 2.244-.361 3.102-1.099l-.873-1.084c-.723.557-1.401.798-2.199.798-1.928 0-2.635-1.687-2.635-4.126 0-1.461.271-2.485.768-3.073.422-.497 1.175-.783 1.972-.783.542 0 .995.121 1.386.332v2.71H-.286l-.241 1.416h3.78V.874C2.305.302 1.16 0 0 0" style="fill:#4f4c4d;fill-opacity:1;fill-rule:nonzero;stroke:none" transform="matrix(.35278 0 0 -.35278 66.705 20.244)"/><path d="M0 0v4.819h-3.555V0h-1.716v10.421h1.716V6.234H0v4.187h1.747V0Z" style="fill:#4f4c4d;fill-opacity:1;fill-rule:nonzero;stroke:none" transform="matrix(.35278 0 0 -.35278 70.731 20.197)"/><path d="M0 0h-2.62v-8.976h-1.733V0h-2.634v1.445H.226z" style="fill:#4f4c4d;fill-opacity:1;fill-rule:nonzero;stroke:none" transform="matrix(.35278 0 0 -.35278 74.498 17.03)"/><path d="M0 0c-1.386 0-2.485.527-3.298 1.506-.783.949-1.19 2.214-1.19 3.72 0 1.25.226 2.289.693 3.163.783 1.49 2.214 2.394 3.84 2.394 1.009 0 1.973-.302 2.59-.813l-.798-1.145a2.896 2.896 0 0 1-1.777.587c-.888 0-1.626-.451-2.079-1.25-.361-.632-.542-1.506-.542-2.74 0-1.28.136-2.003.408-2.59.451-.994 1.309-1.477 2.318-1.477.738 0 1.28.197 1.868.664l.813-1.1C2.033.302 1.114 0 0 0" style="fill:#4f4c4d;fill-opacity:1;fill-rule:nonzero;stroke:none" transform="matrix(.35278 0 0 -.35278 77.754 20.255)"/><path d="M0 0c2.711 0 4.277 2.108 4.277 5.361 0 3.042-1.416 5.376-4.352 5.376-2.605 0-4.352-1.926-4.352-5.36C-4.427 2.289-2.966 0 0 0m-.045 1.311c-1.776 0-2.454 1.491-2.454 4.171 0 2.499.662 3.915 2.409 3.915 1.867 0 2.395-1.596 2.395-4.141 0-2.801-.798-3.945-2.35-3.945" style="fill:#4f4c4d;fill-opacity:1;fill-rule:nonzero;stroke:none" transform="matrix(.35278 0 0 -.35278 80.729 20.255)"/><path d="m0 0-.481 6.461a33.713 33.713 0 0 0-.076 1.762 22.526 22.526 0 0 0-.407-1.627L-2.861 0h-1.476l-1.731 6.31a24.284 24.284 0 0 0-.453 1.927c0-.345-.06-1.295-.105-1.942L-7.077 0h-1.702l.949 10.421h2.304l1.596-5.903c.241-.873.331-1.415.391-1.732.046.317.182.979.377 1.701l1.641 5.934H.783L1.702 0Z" style="fill:#4f4c4d;fill-opacity:1;fill-rule:nonzero;stroke:none" transform="matrix(.35278 0 0 -.35278 86.03 20.197)"/><path d="m0 0-.481 6.461a33.713 33.713 0 0 0-.076 1.762 22.526 22.526 0 0 0-.407-1.627L-2.861 0h-1.476l-1.731 6.31a24.284 24.284 0 0 0-.453 1.927c0-.345-.06-1.295-.105-1.942L-7.077 0h-1.702l.949 10.421h2.304l1.596-5.903c.241-.873.331-1.415.392-1.732.045.317.181.979.376 1.701l1.641 5.934H.783L1.702 0Z" style="fill:#4f4c4d;fill-opacity:1;fill-rule:nonzero;stroke:none" transform="matrix(.35278 0 0 -.35278 90.514 20.197)"/><path d="M866.137 466.826h1.777v-10.421h-1.777z" style="fill:#4f4c4d;fill-opacity:1;fill-rule:nonzero;stroke:none" transform="matrix(.35278 0 0 -.35278 -213.478 181.206)"/><path d="M0 0a6.65 6.65 0 0 0-3.418.934l.662 1.325C-1.822 1.717-.994 1.4.061 1.4c1.28 0 2.047.618 2.047 1.657 0 .767-.481 1.25-1.55 1.55l-1.115.317c-.949.271-1.627.663-2.018 1.25-.286.422-.437.919-.437 1.521 0 1.837 1.446 3.087 3.539 3.087 1.19 0 2.379-.346 3.298-.994l-.783-1.22c-.964.573-1.626.798-2.454.798-1.025 0-1.702-.556-1.702-1.415 0-.647.361-.979 1.385-1.28l1.235-.361c1.506-.437 2.56-1.401 2.56-2.967C4.066 1.611 2.666 0 0 0" style="fill:#4f4c4d;fill-opacity:1;fill-rule:nonzero;stroke:none" transform="matrix(.35278 0 0 -.35278 94.642 20.265)"/><path d="M0 0c-1.19 0-2.395.315-3.419.934l.663 1.325C-1.822 1.717-.994 1.4.06 1.4c1.28 0 2.048.618 2.048 1.657 0 .767-.482 1.25-1.551 1.55l-1.115.317c-.948.271-1.626.663-2.017 1.25-.286.422-.437.919-.437 1.521 0 1.837 1.446 3.087 3.538 3.087 1.191 0 2.38-.346 3.299-.994l-.783-1.22c-.964.573-1.627.798-2.455.798-1.024 0-1.701-.556-1.701-1.415 0-.647.361-.979 1.385-1.28l1.235-.361c1.506-.437 2.559-1.401 2.559-2.967C4.065 1.611 2.665 0 0 0" style="fill:#4f4c4d;fill-opacity:1;fill-rule:nonzero;stroke:none" transform="matrix(.35278 0 0 -.35278 97.819 20.265)"/><path d="M888.951 466.826h1.776v-10.421h-1.776z" style="fill:#4f4c4d;fill-opacity:1;fill-rule:nonzero;stroke:none" transform="matrix(.35278 0 0 -.35278 -213.478 181.206)"/><path d="M0 0c2.711 0 4.277 2.108 4.277 5.361 0 3.042-1.416 5.376-4.352 5.376-2.606 0-4.353-1.926-4.353-5.36C-4.428 2.289-2.967 0 0 0m-.045 1.311c-1.777 0-2.455 1.491-2.455 4.171 0 2.499.663 3.915 2.41 3.915 1.867 0 2.395-1.596 2.395-4.141 0-2.801-.799-3.945-2.35-3.945" style="fill:#4f4c4d;fill-opacity:1;fill-rule:nonzero;stroke:none" transform="matrix(.35278 0 0 -.35278 103.126 20.255)"/><path d="m0 0-2.335 4.895c-.557 1.159-1.129 2.469-1.325 3.086l-.045-.044c.075-.875.091-1.973.105-2.892L-3.539 0h-1.702v10.421h1.958l2.53-5.09C-.271 4.367.181 3.133.316 2.65l.045.045c-.045.528-.15 2.019-.15 2.967l-.03 4.759h1.641V0Z" style="fill:#4f4c4d;fill-opacity:1;fill-rule:nonzero;stroke:none" transform="matrix(.35278 0 0 -.35278 107.286 20.197)"/><path d="M0 0v-16.669h-4.863v-2.602H0v-3.927h3.584V0Z" style="fill:#4f4c4d;fill-opacity:1;fill-rule:nonzero;stroke:none" transform="matrix(.35278 0 0 -.35278 76.858 3.495)"/><path d="M0 0v-2.599h10.549v-9.743h3.576V0Z" style="fill:#4f4c4d;fill-opacity:1;fill-rule:nonzero;stroke:none" transform="matrix(.35278 0 0 -.35278 70.532 3.626)"/><path d="M0 0h-20.555v-2.6h7.635v-6.145h3.433V-2.6H0Z" style="fill:#4f4c4d;fill-opacity:1;fill-rule:nonzero;stroke:none" transform="matrix(.35278 0 0 -.35278 77.448 7.547)"/><path d="M0 0h-20.323v-2.597h7.604v-5.206h3.431v5.206H0Z" style="fill:#4f4c4d;fill-opacity:1;fill-rule:nonzero;stroke:none" transform="matrix(.35278 0 0 -.35278 97.23 8.392)"/><path d="M0 0v-18.429h-4.866v-2.604H0v-2.165h3.578V0Z" style="fill:#4f4c4d;fill-opacity:1;fill-rule:nonzero;stroke:none" transform="matrix(.35278 0 0 -.35278 96.712 3.495)"/><path d="M0 0c1.953 0 3.54 1.701 3.54 3.806C3.54 5.91 1.953 7.612 0 7.612c-1.955 0-3.544-1.702-3.544-3.806C-3.544 1.701-1.955 0 0 0m-7.201 3.806c0 3.586 3.223 6.495 7.201 6.495 3.976 0 7.201-2.909 7.201-6.495C7.201.215 3.976-2.691 0-2.691c-3.978 0-7.201 2.906-7.201 6.497" style="fill:#4f4c4d;fill-opacity:1;fill-rule:nonzero;stroke:none" transform="matrix(.35278 0 0 -.35278 93.233 7.018)"/><path d="M854.746 475.27h-3.579v28.479h3.579z" style="fill:#4f4c4d;fill-opacity:1;fill-rule:nonzero;stroke:none" transform="matrix(.35278 0 0 -.35278 -213.478 181.206)"/><path d="M0 0h-21.586v-2.604h7.239v-9.709h3.582v9.709H0Z" style="fill:#4f4c4d;fill-opacity:1;fill-rule:nonzero;stroke:none" transform="matrix(.35278 0 0 -.35278 87.508 9.197)"/><path d="M0 0c2.168 0 3.926 1.945 3.926 4.346 0 2.402-1.758 4.352-3.926 4.352-2.171 0-3.931-1.95-3.931-4.352C-3.931 1.945-2.171 0 0 0m-7.592 4.346c0 3.887 3.399 7.036 7.592 7.036 4.19 0 7.589-3.149 7.589-7.036C7.589.46 4.19-2.697 0-2.697c-4.193 0-7.592 3.157-7.592 7.043" style="fill:#4f4c4d;fill-opacity:1;fill-rule:nonzero;stroke:none" transform="matrix(.35278 0 0 -.35278 83.086 7.4)"/><path d="M911.055 475.27h-3.579v28.479h3.579z" style="fill:#4f4c4d;fill-opacity:1;fill-rule:nonzero;stroke:none" transform="matrix(.35278 0 0 -.35278 -213.478 181.206)"/><path d="M0 0v4.676h-3.583V0h-6.775v-2.594h20.02V0Z" style="fill:#4f4c4d;fill-opacity:1;fill-rule:nonzero;stroke:none" transform="matrix(.35278 0 0 -.35278 103.65 10.274)"/><path d="M0 0v3.002h-3.583V0H-9.7v-2.602H6.116V0Z" style="fill:#4f4c4d;fill-opacity:1;fill-rule:nonzero;stroke:none" transform="matrix(.35278 0 0 -.35278 103.65 4.332)"/><path d="M0 0c1.905 0 3.442 1.674 3.442 3.745C3.442 5.814 1.905 7.49 0 7.49c-1.9 0-3.443-1.676-3.443-3.745C-3.443 1.674-1.9 0 0 0m-7.152 3.745c0 3.626 3.205 6.556 7.152 6.556 3.95 0 7.15-2.93 7.15-6.556C7.15.127 3.95-2.813 0-2.813c-3.947 0-7.152 2.94-7.152 6.558" style="fill:#4f4c4d;fill-opacity:1;fill-rule:nonzero;stroke:none" transform="matrix(.35278 0 0 -.35278 103.017 8.323)"/><path d="M745.978 500.777h15.044v2.599h-15.044z" style="fill:#4f4c4d;fill-opacity:1;fill-rule:nonzero;stroke:none" transform="matrix(.35278 0 0 -.35278 -213.478 181.206)"/><path d="M0 0v-7.479h-5.271v-2.597H0v-18.403h3.578V0Z" style="fill:#4f4c4d;fill-opacity:1;fill-rule:nonzero;stroke:none" transform="matrix(.35278 0 0 -.35278 56.326 3.495)"/><path d="M0 0v2.779c2.771.976 6.268 3.542 6.268 10.756h2.811V7.596C8.725 6.201 6.493 1.528 0 0" style="fill:#4f4c4d;fill-opacity:1;fill-rule:nonzero;stroke:none" transform="matrix(.35278 0 0 -.35278 49.457 10.275)"/><path d="M0 0v2.779c-2.769.976-6.265 3.542-6.265 10.756h-2.819V7.596C-8.728 6.201-6.494 1.528 0 0" style="fill:#4f4c4d;fill-opacity:1;fill-rule:nonzero;stroke:none" transform="matrix(.35278 0 0 -.35278 55.224 10.275)"/><path d="M755.408 498.065h-3.813v3.862h3.813z" style="fill:#4f4c4d;fill-opacity:1;fill-rule:nonzero;stroke:none" transform="matrix(.35278 0 0 -.35278 -213.478 181.206)"/><path d="M0 0h-3.686v4.999h-3.585v-15.145h3.585V-2.6H0Z" style="fill:#4f4c4d;fill-opacity:1;fill-rule:nonzero;stroke:none" transform="matrix(.35278 0 0 -.35278 68.983 5.258)"/><path d="M0 0v-2.6h15.879v-8.704h3.585V0Z" style="fill:#4f4c4d;fill-opacity:1;fill-rule:nonzero;stroke:none" transform="matrix(.35278 0 0 -.35278 60.816 9.554)"/><path d="M790.451 500.777h-15.203v2.599h15.203z" style="fill:#4f4c4d;fill-opacity:1;fill-rule:nonzero;stroke:none" transform="matrix(.35278 0 0 -.35278 -213.478 181.206)"/><path d="M0 0v2.775c3.559 1.017 6.271 3.036 6.271 8.091h2.741V6.333C8.604 4.711 6.45 1.317 0 0" style="fill:#4f4c4d;fill-opacity:1;fill-rule:nonzero;stroke:none" transform="matrix(.35278 0 0 -.35278 59.81 8.565)"/><path d="M784.753 499.938h-3.81v2.639h3.81z" style="fill:#4f4c4d;fill-opacity:1;fill-rule:nonzero;stroke:none" transform="matrix(.35278 0 0 -.35278 -213.478 181.206)"/><path d="M0 0v2.775c-3.559 1.017-6.27 3.036-6.27 8.091h-2.738V6.333C-8.6 4.711-6.443 1.317 0 0" style="fill:#4f4c4d;fill-opacity:1;fill-rule:nonzero;stroke:none" transform="matrix(.35278 0 0 -.35278 65.578 8.565)"/><path d="M741.297 490.207h-25.725v2.597h25.725z" style="fill:#4f4c4d;fill-opacity:1;fill-rule:nonzero;stroke:none" transform="matrix(.35278 0 0 -.35278 -213.478 181.206)"/><path d="M0 0v-2.599h16.451v-8.854h3.584V0Z" style="fill:#4f4c4d;fill-opacity:1;fill-rule:nonzero;stroke:none" transform="matrix(.35278 0 0 -.35278 39.91 3.626)"/><path d="M0 0v-2.595h15.069v-8.439h3.574V0Z" style="fill:#4f4c4d;fill-opacity:1;fill-rule:nonzero;stroke:none" transform="matrix(.35278 0 0 -.35278 40.154 9.649)"/><path d="M729.568 485.024h-3.576v6.512h3.576z" style="fill:#4f4c4d;fill-opacity:1;fill-rule:nonzero;stroke:none" transform="matrix(.35278 0 0 -.35278 -213.478 181.206)"/><path d="M0 0c2.007 0 3.633 1.887 3.633 4.217 0 2.33-1.626 4.219-3.633 4.219-2.004 0-3.63-1.889-3.63-4.219S-2.004 0 0 0m-7.25 4.217c0 3.785 3.25 6.857 7.25 6.857 4.002 0 7.25-3.072 7.25-6.857C7.25.43 4.002-2.639 0-2.639c-4 0-7.25 3.069-7.25 6.856" style="fill:#4f4c4d;fill-opacity:1;fill-rule:nonzero;stroke:none" transform="matrix(.35278 0 0 -.35278 31.653 8.397)"/><path d="M702.764 499.394h-15.81v2.602h15.81zM713.359 494.929h-5.981v2.602h5.981z" style="fill:#4f4c4d;fill-opacity:1;fill-rule:nonzero;stroke:none" transform="matrix(.35278 0 0 -.35278 -213.478 181.206)"/><path d="M696.65 501.262h-3.579v3.733h3.579zM709.666 484.262h-3.583v19.486h3.583z" style="fill:#4f4c4d;fill-opacity:1;fill-rule:nonzero;stroke:none" transform="matrix(.35278 0 0 -.35278 -213.478 181.206)"/><path d="M0 0v6.593h-3.586V-.345c0-1.497.981-2.254 2.181-2.254h16.351V0Z" style="fill:#4f4c4d;fill-opacity:1;fill-rule:nonzero;stroke:none" transform="matrix(.35278 0 0 -.35278 31.76 12.625)"/><path d="M0 0h-16.793v7.835h-3.427v-8.18c0-1.497.981-2.254 2.188-2.254H0Z" style="fill:#4f4c4d;fill-opacity:1;fill-rule:nonzero;stroke:none" transform="matrix(.35278 0 0 -.35278 78.215 12.625)"/><path d="M0 0h-16.789v6.643h-3.429V-.345c0-1.497.976-2.254 2.18-2.254H0Z" style="fill:#4f4c4d;fill-opacity:1;fill-rule:nonzero;stroke:none" transform="matrix(.35278 0 0 -.35278 98.068 12.625)"/><path d="M0 0c0 .797.056 1.555.137 2.296-1.262-.3-2.667-.471-4.24-.471-8.485 0-15.053 6.071-15.053 15.289 0 2.35.361 4.46 1.044 6.307l-10.536-10.537a4.394 4.394 0 0 1 0-6.207L.543-22.517a4.402 4.402 0 0 1 6.21 0l7.275 7.275C6.044-14.77 0-8.84 0 0" style="fill:#f1471d;fill-opacity:1;fill-rule:nonzero;stroke:none" transform="matrix(.35278 0 0 -.35278 10.56 15.296)"/><path d="m0 0-29.193 29.193a4.402 4.402 0 0 1-6.21 0l-10.471-10.47c1.769.705 3.697 1.077 5.814 1.077 5.109 0 9.206-2.096 12.55-5.11l-4.045-4.106c-2.879 2.365-5.372 3.598-8.494 3.598-4.688 0-8.477-3.772-8.477-9.781 0-5.794 3.523-9.952 8.684-9.952 3.242 0 5.663 1.449 7.888 3.656l.003-.002c2.997 3.003 6.617 4.589 11.048 4.589 5.106 0 9.205-2.099 12.549-5.116l-4.049-4.101c-2.87 2.36-5.369 3.595-8.488 3.595-4.691 0-8.481-3.766-8.481-9.783 0-5.789 3.525-9.949 8.681-9.949 3.25 0 5.663 1.453 7.89 3.654L0-6.207A4.4 4.4 0 0 1 0 0" style="fill:#f1471d;fill-opacity:1;fill-rule:nonzero;stroke:none" transform="matrix(.35278 0 0 -.35278 23.24 10.75)"/></svg>