<svg xmlns="http://www.w3.org/2000/svg" xml:space="preserve" width="877.54651" height="200" viewBox="0 0 877.54652 199.99999"><defs><clipPath id="a" clipPathUnits="userSpaceOnUse"><path d="M0 841.89h595.28V0H0Z"/></clipPath></defs><path d="M0 0v-4.52h-1.915V5.755H0V1.388l3.347 4.367h2.247L1.569.773 5.676-4.52H3.469Z" style="fill:#231f20;fill-opacity:1;fill-rule:nonzero;stroke:none" transform="matrix(3.52771 0 0 -3.52771 272.875 158.204)"/><g clip-path="url(#a)" transform="matrix(3.52771 0 0 -3.52771 -610.444 1586.71)"><path d="M0 0c1.257 0 1.987.206 1.987 1.806 0 1.561-.688 1.812-1.987 1.812h-1.85V0Zm-3.765 5.108h3.731c2.454 0 3.991-.489 3.991-3.293 0-1.782-.658-2.595-1.846-2.986l2.087-3.995H2.089L.193-1.42H-1.85v-3.746h-1.915z" style="fill:#231f20;fill-opacity:1;fill-rule:nonzero;stroke:none" transform="translate(271.575 405.584)"/><path d="M0 0c1.258 0 1.99.206 1.99 1.806 0 1.561-.691 1.812-1.99 1.812h-1.845V0Zm-3.763 5.108h3.732c2.453 0 3.992-.489 3.992-3.293C3.961.033 3.3-.78 2.113-1.171L4.2-5.166H2.093L.199-1.42h-2.044v-3.746h-1.918z" style="fill:#231f20;fill-opacity:1;fill-rule:nonzero;stroke:none" transform="translate(334.346 405.584)"/><path d="M0 0h6.711v-1.491H1.92v-2.86h4.182v-1.42H1.92v-3.022h4.791v-1.481H0Z" style="fill:#231f20;fill-opacity:1;fill-rule:nonzero;stroke:none" transform="translate(278.043 410.693)"/><path d="M0 0h2.741L1.392 5.041h-.036Zm3.119-1.416H-.38l-.613-2.23h-1.981L.159 6.625h2.42L5.741-3.646H3.749Z" style="fill:#231f20;fill-opacity:1;fill-rule:nonzero;stroke:none" transform="translate(289.373 404.065)"/><path d="M0 0h6.707v-1.491h-4.79v-2.86h4.177v-1.42H1.917v-3.022h4.79v-1.481H0Z" style="fill:#231f20;fill-opacity:1;fill-rule:nonzero;stroke:none" transform="translate(301.527 410.693)"/><path d="M0 0h6.712v-1.491H1.914v-2.86H6.1v-1.42H1.914v-3.022h4.798v-1.481H0Z" style="fill:#231f20;fill-opacity:1;fill-rule:nonzero;stroke:none" transform="translate(321.363 410.693)"/><path d="M0 0c-3.078 0-3.975 1.354-3.975 3.684v3.254c0 2.581 1.15 3.685 3.975 3.685 2.49 0 3.869-.802 3.869-3.291h-1.92c0 1.246-.528 1.803-1.949 1.803-1.633 0-2.062-.69-2.062-2.02V3.508c0-1.178.308-2.022 2.149-2.022 1.157 0 2.038.24 2.038 1.801v1.395H.069V6.1h3.975V.176h-.961L2.769.98C1.964.217 1.124 0 0 0" style="fill:#231f20;fill-opacity:1;fill-rule:nonzero;stroke:none" transform="translate(344.532 400.243)"/><path d="M0 0c-3.083 0-3.98 1.354-3.98 3.684v3.254c0 2.581 1.152 3.685 3.98 3.685 2.486 0 3.87-.802 3.87-3.291H1.948c0 1.246-.53 1.803-1.948 1.803-1.636 0-2.063-.69-2.063-2.02V3.508c0-1.178.306-2.022 2.147-2.022 1.161 0 2.038.24 2.038 1.801v1.395H.067V6.1h3.978V.176h-.962L2.768.98C1.964.217 1.123 0 0 0" style="fill:#231f20;fill-opacity:1;fill-rule:nonzero;stroke:none" transform="translate(376.719 400.243)"/><path d="m0 0-3.265 6.39h2.102l2.1-4.666h.036L3.081 6.39h2.095L1.92 0v-3.886H0Z" style="fill:#231f20;fill-opacity:1;fill-rule:nonzero;stroke:none" transform="translate(352.898 404.305)"/><path d="M0 0h2.735L1.392 5.041h-.03zm3.116-1.416H-.381l-.612-2.23h-1.986L.155 6.625h2.431L5.74-3.646H3.746Z" style="fill:#231f20;fill-opacity:1;fill-rule:nonzero;stroke:none" transform="translate(365.588 404.065)"/><path d="M0 0h6.711v-1.491H1.914v-2.86h4.19v-1.42h-4.19v-3.022h4.797v-1.481H0Z" style="fill:#231f20;fill-opacity:1;fill-rule:nonzero;stroke:none" transform="translate(383.422 410.693)"/><path d="M0 0c1.196 0 1.946.311 1.946 1.803h1.921C3.867-.514 2.676-1.486 0-1.486c-3.378 0-3.985 1.682-3.985 3.683v3.254c0 2.717 1.301 3.687 3.985 3.687 2.178 0 3.867-.593 3.867-3.291H1.946c0 1.487-.821 1.802-1.946 1.802-1.578 0-2.061-.614-2.061-2.018v-3.61C-2.061.563-1.538 0 0 0" style="fill:#231f20;fill-opacity:1;fill-rule:nonzero;stroke:none" transform="translate(406.96 401.73)"/><path d="m0 0-3.261 6.39h2.096L.94 1.724h.035L3.09 6.39h2.089L1.917 0v-3.886H0Z" style="fill:#231f20;fill-opacity:1;fill-rule:nonzero;stroke:none" transform="translate(415.307 404.305)"/><path d="M0 0c0-1.588-.666-2.073-2.122-2.073-1.452 0-2.124.485-2.124 2.073v3.504c0 1.589.672 2.072 2.124 2.072C-.666 5.576 0 5.093 0 3.504Zm-2.122 7.063c-2.873 0-4.047-1.056-4.047-3.573V.017c0-2.521 1.174-3.577 4.047-3.577 2.875 0 4.048 1.056 4.048 3.577V3.49c0 2.517-1.173 3.573-4.048 3.573" style="fill:#231f20;fill-opacity:1;fill-rule:nonzero;stroke:none" transform="translate(263.378 403.803)"/><path d="M0 0v-7.928L-3.574 0h-2.405v-10.271h1.852v7.923l3.571-7.923H1.85V0Z" style="fill:#231f20;fill-opacity:1;fill-rule:nonzero;stroke:none" transform="translate(316.741 410.69)"/><path d="M0 0v-7.928L-3.569 0h-2.409v-10.271h1.85v7.923l3.575-7.923h2.407V0Z" style="fill:#231f20;fill-opacity:1;fill-rule:nonzero;stroke:none" transform="translate(398.614 410.69)"/><path d="M0 0c-2.611 0-4.72 1.203-4.72 2.689S-2.611 5.38 0 5.38c2.6 0 4.717-1.205 4.717-2.691C4.717 1.203 2.6 0 0 0m0 8.142c-4.667 0-8.443-2.44-8.443-5.453 0-3.008 3.776-5.445 8.443-5.445 4.657 0 8.434 2.437 8.434 5.445 0 3.013-3.777 5.453-8.434 5.453m-26.491 8.694v2.358h4.82v2.755h-13.692v-2.755h4.818v-2.358c0-1.322-.439-6.007-5.942-8.997l1.899-2.64c3.141 1.775 4.958 3.804 6.068 5.712 1.11-1.908 2.926-3.937 6.076-5.712l1.902 2.64c-5.51 2.99-5.949 7.675-5.949 8.997m35.55 2.831a2.291 2.291 0 0 1-2.292 2.282H-8.716v-2.755H5.339v-7.321H.677v4.426h-3.719v-4.426h-8.641V9.111h23.352v2.762h-2.61zm-143.216-4.956c0 1.862 1.195 3.371 2.68 3.371 1.49 0 2.695-1.509 2.695-3.371 0-1.871-1.205-3.378-2.695-3.378-1.485 0-2.68 1.507-2.68 3.378m9.094 0a5.899 5.899 0 0 1-1.065 3.371h2.066v2.765h-5.548v.807a1.45 1.45 0 0 1-1.453 1.446h-3.662v-.657s1.136-.221 1.326-1.596h-5.483v-2.765h2.064a5.946 5.946 0 0 1-1.068-3.371c0-3.393 2.873-6.14 6.409-6.14 3.542 0 6.414 2.747 6.414 6.14m108.301 7.872h-3.67v-.664s1.387-.195 1.387-1.917V-2.332h3.732v23.466c0 .796-.651 1.449-1.449 1.449m-25.242 0h-3.654v-.664s1.378-.195 1.378-1.917v-3.429h-6.607V13.81h6.607V8.712c-1.821-.691-5.297-.612-5.297-.612h-7.044v12.405c0 .801-.648 1.444-1.45 1.444h-3.664v-.655s1.39-.197 1.39-1.921V7.624a2.284 2.284 0 0 1 2.278-2.283h8.49s3.476-.078 5.297.607v-8.28h3.727v23.466c0 .796-.643 1.449-1.451 1.449m-50.329-2.916a2.289 2.289 0 0 1-2.286 2.282h-15.862v-2.755h14.433v-5.831h-17.022v-2.759h9.576V6.87h-6.987V4.109h14.433v-6.441h3.715v6.915a2.288 2.288 0 0 1-2.286 2.287h-5.162v3.734h10.062v2.759h-2.614zm125.606-4.476v5.943c0 .796-.64 1.449-1.443 1.449h-3.665v-.664s1.395-.195 1.395-1.917v-7.674c-1.822-.688-5.304-.61-5.304-.61H17.94v7.476h8.25v2.755H12.827v-.655s1.385-.197 1.385-1.921v-8.13a2.287 2.287 0 0 1 2.282-2.291h6.302v.008h1.46s3.482-.085 5.304.617v-4.77h3.713v7.622h3.638v2.762zM20.261 6.206h-3.723V.426a2.28 2.28 0 0 1 2.279-2.287h15.407V.895H20.261Zm-151.214 0h-3.729V.426a2.285 2.285 0 0 1 2.289-2.287h15.389V.895h-13.949zm64.67 16.377h-3.315v-.664s1.396-.195 1.396-1.917V-2.332h3.371v23.466c0 .796-.648 1.449-1.452 1.449M-81.463 8.96c-1.733 0-2.725 2.358-2.725 5.256 0 2.914.992 5.265 2.725 5.265 1.729 0 2.722-2.351 2.722-5.265 0-2.898-.993-5.256-2.722-5.256m10.36 13.623h-3.308v-.664s1.384-.195 1.384-1.917v-4.339h-2.085c-.459 3.74-2.705 6.587-6.351 6.587-4.106 0-6.452-3.591-6.452-8.034 0-4.42 2.346-8.01 6.452-8.01 3.682 0 5.928 2.897 6.355 6.692h2.081v-15.23h3.37v23.466c0 .796-.654 1.449-1.446 1.449m-46.835-1.449c0 .796-.656 1.449-1.453 1.449h-3.662v-.664s1.388-.195 1.388-1.917V4.807h3.727v7.622h3.634v2.762h-3.634z" style="fill:#231f20;fill-opacity:1;fill-rule:nonzero;stroke:none" transform="translate(384.89 419.81)"/><path d="M0 0v.001c0-13.439-8.471-26.323-27.744-26.955-19.277.632-27.745 13.516-27.745 26.955V0c0 13.439 8.468 26.321 27.745 26.956C-8.471 26.321 0 13.439 0 .001Zm-27.743 28.345h-.001C-46.797 27.843-58.561 14.366-58.561 0v-.002c0-14.367 11.764-27.843 30.817-28.347h.001c19.05.504 30.815 13.98 30.815 28.347V0c0 14.366-11.764 27.843-30.815 28.345M0 0v.001Z" style="fill:#065daa;fill-opacity:1;fill-rule:nonzero;stroke:none" transform="translate(231.603 421.44)"/><path d="M0 0h-.001Z" style="fill:#065daa;fill-opacity:1;fill-rule:nonzero;stroke:none" transform="translate(203.86 394.482)"/><path d="M0 0v-.003L.001 0Z" style="fill:#065daa;fill-opacity:1;fill-rule:nonzero;stroke:none" transform="translate(203.858 448.396)"/><path d="M0 0h-.002l-15.32-18.642-1.446 1.943L-1.583 1.922l-6.209 7.561-15.223-18.522-1.442 1.942 15.088 18.502-6.283 7.648L-31.304 0s-2.978-3.08-2.978-7.9c0-4.822 2.978-7.901 2.978-7.901l15.652-19.055L0-15.801S2.977-12.722 2.977-7.9C2.977-3.08 0 0 0 0" style="fill:#065daa;fill-opacity:1;fill-rule:nonzero;stroke:none" transform="translate(219.51 429.34)"/><path d="M0 0c-2.611 0-4.72 1.203-4.72 2.689S-2.611 5.38 0 5.38c2.6 0 4.717-1.205 4.717-2.691C4.717 1.203 2.6 0 0 0m0 8.142c-4.666 0-8.442-2.44-8.442-5.453 0-3.008 3.776-5.445 8.442-5.445 4.656 0 8.434 2.437 8.434 5.445 0 3.013-3.778 5.453-8.434 5.453m-26.491 8.694v2.358h4.819v2.755h-13.692v-2.755h4.818v-2.358c0-1.322-.438-6.006-5.941-8.997l1.899-2.64c3.14 1.774 4.958 3.805 6.067 5.712 1.11-1.907 2.927-3.938 6.077-5.712l1.901 2.64c-5.51 2.991-5.948 7.675-5.948 8.997m35.55 2.831a2.291 2.291 0 0 1-2.293 2.282H-8.717v-2.755H5.339v-7.32H.676v4.425h-3.719v-4.425h-8.641V9.111h23.353v2.763h-2.61zm-143.218-4.956c0 1.862 1.196 3.371 2.68 3.371 1.489 0 2.696-1.509 2.696-3.371 0-1.871-1.207-3.378-2.696-3.378-1.484 0-2.68 1.507-2.68 3.378m9.096 0a5.884 5.884 0 0 1-1.067 3.371h2.067v2.765h-5.549v.806c0 .795-.644 1.447-1.452 1.447h-3.661v-.656s1.136-.222 1.324-1.597h-5.482v-2.765h2.065a5.935 5.935 0 0 1-1.066-3.371c0-3.393 2.87-6.14 6.405-6.14 3.544 0 6.416 2.747 6.416 6.14m108.301 7.872h-3.67v-.664s1.388-.195 1.388-1.917V-2.332h3.731v23.466c0 .796-.651 1.449-1.449 1.449m-25.244 0h-3.652v-.664s1.377-.195 1.377-1.917v-3.429h-6.605v-2.762h6.605V8.712c-1.821-.691-5.298-.612-5.298-.612h-7.043v12.405c0 .801-.646 1.444-1.45 1.444h-3.663v-.656s1.391-.196 1.391-1.92V7.624a2.282 2.282 0 0 1 2.277-2.282h8.488s3.477-.078 5.298.607v-8.281h3.728v23.466a1.45 1.45 0 0 1-1.453 1.449m-50.329-2.916a2.286 2.286 0 0 1-2.285 2.282h-15.862v-2.755h14.433v-5.831h-17.022v-2.759h9.577V6.871h-6.988V4.11h14.433v-6.442h3.714v6.915a2.287 2.287 0 0 1-2.285 2.288h-5.16v3.733h10.059v2.759h-2.614zm125.607-4.475v5.942c0 .796-.639 1.449-1.444 1.449h-3.664v-.664s1.396-.195 1.396-1.917v-7.673c-1.823-.689-5.303-.609-5.303-.609H17.94v7.474h8.251v2.755H12.827v-.656s1.385-.196 1.385-1.92v-8.13a2.285 2.285 0 0 1 2.281-2.29h6.303v.007h1.461s3.48-.085 5.303.617v-4.77h3.712v7.622h3.637v2.763zM20.261 6.206h-3.724V.426a2.281 2.281 0 0 1 2.281-2.287h15.407V.896H20.261Zm-151.214 0h-3.731V.426a2.287 2.287 0 0 1 2.291-2.287h15.389V.896h-13.949zm64.669 16.377h-3.315v-.664s1.395-.195 1.395-1.917V-2.332h3.374v23.466c0 .796-.651 1.449-1.454 1.449M-81.464 8.96c-1.733 0-2.724 2.358-2.724 5.256 0 2.913.991 5.266 2.724 5.266 1.729 0 2.723-2.353 2.723-5.266 0-2.898-.994-5.256-2.723-5.256m10.361 13.623h-3.309v-.664s1.384-.195 1.384-1.917v-4.34h-2.085c-.458 3.742-2.704 6.588-6.351 6.588-4.105 0-6.452-3.59-6.452-8.034 0-4.42 2.347-8.01 6.452-8.01 3.682 0 5.927 2.898 6.355 6.692h2.081v-15.23h3.37v23.466c0 .796-.653 1.449-1.445 1.449m-46.836-1.449c0 .796-.658 1.449-1.453 1.449h-3.662v-.664s1.388-.195 1.388-1.917V4.807h3.727v7.622h3.634v2.763h-3.634z" style="fill:#231f20;fill-opacity:1;fill-rule:nonzero;stroke:none" transform="translate(384.89 419.81)"/></g></svg>