<svg xmlns="http://www.w3.org/2000/svg" width="1082.2639pt" height="225pt" viewBox="0 0 1082.2638 225"><path fill="#001a12" d="M824.842 82.718v-7.59h-9.536v7.59c0 14.678-9.569 20.359-15.2 22.013v6.47s15.276-2.214 19.971-11.655c4.683 9.441 19.965 11.655 19.965 11.655v-6.47c-5.63-1.654-15.2-7.335-15.2-22.013zM681.727 119.987h-9.543v14.671c0 2.271.764 4.078 2.316 5.389 1.546 1.298 3.486 1.953 5.834 1.953h37.23v-7.12h-35.837zM660.682 78.85v7.12h40.144v-7.12zM884.302 104.35c4.619 3.562 10.217 5.343 16.732 5.343 6.617 0 12.228-1.78 16.847-5.344 4.638-3.569 6.96-7.882 6.96-12.94 0-5.064-2.322-9.384-6.96-12.979-4.62-3.6-10.23-5.395-16.847-5.395-6.515 0-12.113 1.794-16.732 5.395-4.632 3.595-6.941 7.915-6.941 12.979 0 5.058 2.31 9.371 6.94 12.94m6.662-20.766c2.666-2.13 6.044-3.2 10.058-3.2 4.06 0 7.418 1.07 10.129 3.2 2.735 2.132 4.09 4.74 4.09 7.826 0 3.028-1.355 5.611-4.09 7.78-2.71 2.17-6.07 3.239-10.129 3.239-4.014 0-7.392-1.069-10.058-3.238-2.672-2.17-4.021-4.753-4.021-7.781 0-3.086 1.349-5.694 4.02-7.826zM988.881 91.631c0 1.96-.101 3.85-.311 5.675-.191 1.82-.617 3.442-1.26 4.855h6.661c3.55-2.628 4.44-8.844 4.44-10.854V75.294h-50.628v7.119h41.098zM989.486 117.697c-4.41-3.124-9.734-4.683-15.937-4.683-6.273 0-11.617 1.56-16.007 4.683-4.384 3.11-6.579 6.928-6.579 11.433 0 4.434 2.195 8.22 6.579 11.337 4.39 3.13 9.734 4.682 16.007 4.682 6.203 0 11.528-1.552 15.937-4.682 4.421-3.118 6.63-6.903 6.63-11.338 0-4.504-2.209-8.321-6.63-11.432m-6.916 17.438c-2.481 1.75-5.49 2.622-8.996 2.622-3.626 0-6.693-.872-9.155-2.622-2.5-1.75-3.753-3.76-3.753-6.018 0-2.316 1.253-4.377 3.753-6.178 2.462-1.8 5.529-2.704 9.155-2.704 3.506 0 6.515.904 8.996 2.704 2.507 1.8 3.754 3.862 3.754 6.178 0 2.258-1.247 4.269-3.754 6.018z" style="stroke-width:3.25738"/><path fill="#001a12" d="M973.835 92.987h-9.53v11.184h-24.488v7.151h67.005v-7.15h-32.987zM796.054 109.553v-7.119h-12.928c1.928-1.94 4.434-6.196 4.434-10.77v-16.37H737.11v7.119h40.914v9.498c0 1.903-.089 3.773-.273 5.63-.166 1.852-.535 3.48-1.133 4.893h-47.562v7.12zM736.848 116.45v7.125h41.004v18.45h9.53V116.45zM1037.717 84.016v-8.143H1028.183v8.143c0 18.24-8.118 23.654-16.548 27.497v6.432c3.448-.26 15.695-4.237 21.313-12.921 5.611 8.684 17.858 12.66 21.306 12.921v-6.432c-8.43-3.843-16.541-9.257-16.541-27.497zM717.565 74.27h-9.53v48.74h9.53V96.148h10.332v-7.126h-10.332zM1071.932 74.39h-9.537V142h9.537V97.682h10.325v-7.126h-10.325zM666.878 110.03c3.83 3.124 8.468 4.69 13.876 4.69 5.49 0 10.141-1.566 13.977-4.69 3.843-3.13 5.77-6.915 5.77-11.35 0-4.446-1.927-8.232-5.77-11.387-3.836-3.162-8.487-4.734-13.977-4.734-5.408 0-10.046 1.572-13.876 4.734-3.849 3.155-5.757 6.94-5.757 11.388 0 4.434 1.908 8.22 5.757 11.35m6.649-17.547c1.915-1.686 4.332-2.532 7.22-2.532 2.92 0 5.332.846 7.279 2.532 1.96 1.692 2.939 3.754 2.939 6.197 0 2.392-.98 4.44-2.94 6.158-1.946 1.712-4.357 2.558-7.277 2.558-2.889 0-5.306-.846-7.221-2.558-1.922-1.718-2.882-3.766-2.882-6.158 0-2.443.96-4.505 2.882-6.197z" style="stroke-width:3.25738"/><path fill="#001a12" d="M685.52 82.597h-9.531v-9.536h9.53zM766.884 106.729h-9.537v11.725h9.537zM909.648 118.422v23.45h9.53v-23.45M884.9 118.422c-.115 12.852-1.387 16.611-5.472 23.45h7.629c3.416-4.052 7.176-5.585 7.335-23.45" style="stroke-width:3.25738"/><path fill="#001a12" d="M934.944 119.345h-67.788v-7.126h67.788zM811.997 116.424v7.126h39.343V142h9.537v-25.576zM851.34 74.39h9.537v38.135h-9.537V93.604h-10.332v-7.12h10.332zM673.94 157.619h-3.378s-6.49 8.156-6.922 8.697v-8.697h-2.952v20.677h2.952V167.97c.458.662 6.928 10.326 6.928 10.326h3.748s-7.756-11.109-7.896-11.312c.146-.21 7.52-9.365 7.52-9.365zM682.682 157.205c-4.174 0-6.566 2.475-6.566 6.814v6.667c0 5.542 2.023 8.03 6.566 8.03 4.542 0 6.553-2.488 6.553-8.03v-6.667c0-4.339-2.386-6.814-6.553-6.814m3.562 13.59c0 4.479-1.367 5.382-3.562 5.382-2.208 0-3.57-.903-3.57-5.382v-6.865c0-3.646 2.24-4.205 3.57-4.205 1.336 0 3.562.56 3.562 4.205zM705.032 172.786c-.14-3.81-.936-4.842-2.94-5.3 2.049-.585 3.34-2.284 3.34-4.618 0-1.222-.369-5.25-5.064-5.25h-7.17v20.678h2.946v-9.34H699c.656 0 2.692 0 2.901 2.424l.128 2.297c.063 1.87.127 3.492.674 4.53l.038.088h3.06l-.07-.235c-.381-1.24-.668-4.39-.7-5.274m-5.185-6.451h-3.702v-6.108h3.728c1.89 0 2.551 1.508 2.551 2.901 0 1.489-.662 3.207-2.577 3.207zM711.686 169h7.336v-2.602h-7.336v-6.17h7.89v-2.61h-10.829v20.678h10.994v-2.603h-8.055v-6.692zM730.74 157.619h-3.416l-6.572 20.677h2.99s1.464-4.62 1.527-4.842h7.597l1.45 4.842h3.283l-6.737-20.677h-.121m-4.727 13.227c.14-.42 2.716-9.276 2.97-10.135.268.859 2.946 9.715 3.055 10.135h-6.025zM757.601 157.619v16.866a9662.292 9662.292 0 0 1-7.679-16.866h-3.938v20.677h2.653v-17.089c.547 1.152 7.787 17.089 7.787 17.089h3.837v-20.677h-.179zM772.527 157.619h-3.43l-6.552 20.677h2.983s1.445-4.62 1.527-4.842h7.59c.058.235 1.457 4.842 1.457 4.842h3.257l-6.705-20.677h-.127m-4.727 13.227c.133-.42 2.723-9.276 2.983-10.135.255.859 2.908 9.715 3.06 10.135H767.8zM777.546 157.619v2.608h5.35v18.069h2.934v-18.069h5.35v-2.608h-.184zM793.7 157.619v20.677h2.945v-20.677h-.171zM807.537 157.205c-4.173 0-6.578 2.475-6.578 6.814v6.667c0 5.542 2.03 8.03 6.578 8.03 4.517 0 6.566-2.488 6.566-8.03v-6.667c0-4.339-2.405-6.814-6.566-6.814m3.55 13.59c0 4.479-1.368 5.382-3.55 5.382-2.22 0-3.569-.903-3.569-5.382v-6.865c0-3.646 2.233-4.205 3.57-4.205 1.322 0 3.55.56 3.55 4.205zM829.868 157.619v16.866c-.547-1.146-7.685-16.866-7.685-16.866h-3.939v20.677h2.653v-17.089c.528 1.152 7.775 17.089 7.775 17.089h3.849v-20.677h-.178zM844.762 157.619h-3.417l-6.546 20.677h2.977s1.47-4.62 1.527-4.842h7.584c.088.235 1.475 4.842 1.475 4.842h3.277l-6.725-20.677h-.153m-4.708 13.227c.134-.42 2.736-9.276 2.978-10.135.267.859 2.933 9.715 3.054 10.135h-6.032zM856.716 157.619H853.77v20.677h10.409v-2.603h-7.463V157.62zM879.581 157.205c-4.173 0-6.546 2.475-6.546 6.814v6.667c0 5.542 2.023 8.03 6.546 8.03 4.543 0 6.579-2.488 6.579-8.03v-6.667c0-4.339-2.399-6.814-6.579-6.814m3.57 13.59c0 4.479-1.356 5.382-3.57 5.382-2.176 0-3.556-.903-3.556-5.382v-6.865c0-3.646 2.24-4.205 3.556-4.205 1.362 0 3.57.56 3.57 4.205zM890.498 157.619v20.677h2.965v-20.677h-.197zM900.799 157.619H897.853v20.677h10.383v-2.603h-7.437V157.62zM927.36 172.13c-.008 3.646-2.112 4.053-3.015 4.053-1.82 0-3.455-.407-3.455-5.382v-5.427c0-3.04.388-3.766.515-4.052.128-.37.93-1.572 2.952-1.572.458 0 1.642.21 2.157.814.54.643.554 1.94.54 2.844v.172h3.023l.02-.159c.127-2.176-.268-3.74-1.241-4.759-.923-.986-2.297-1.457-4.263-1.457-4.644 0-6.706 2.335-6.706 7.54v5.75c0 8.22 4.289 8.22 6.585 8.22.796 0 2.882 0 4.326-1.482 1.088-1.126 1.635-2.85 1.604-5.128v-.171h-3.041zM940.09 157.205c-4.166 0-6.559 2.475-6.559 6.814v6.667c0 5.548 2.024 8.03 6.56 8.03 4.542 0 6.565-2.482 6.565-8.03v-6.667c0-4.339-2.398-6.814-6.565-6.814m3.569 13.596c0 4.473-1.368 5.382-3.57 5.382-2.2 0-3.562-.91-3.562-5.382v-6.871c0-3.646 2.233-4.205 3.563-4.205s3.569.56 3.569 4.205zM962.434 172.786c-.12-3.81-.91-4.848-2.945-5.3 2.055-.585 3.333-2.284 3.333-4.618 0-1.222-.356-5.25-5.038-5.25h-7.17v20.678h2.932v-9.34h2.85c.688 0 2.717 0 2.914 2.418l.121 2.303c.083 1.87.14 3.492.687 4.53l.045.088h3.04l-.063-.235c-.388-1.24-.674-4.39-.706-5.274m-5.185-6.451h-3.703v-6.114h3.735c1.883 0 2.557 1.508 2.557 2.907 0 1.483-.674 3.207-2.59 3.207zM972.69 157.619h-6.171v20.677h2.926v-8.946h3.226c.986 0 5.866-.28 5.866-5.77 0-3.95-1.966-5.961-5.847-5.961m-.58 9.123h-2.665v-6.521h3.398c.273 0 2.697.101 2.697 3.25 0 2.838-2.144 3.271-3.43 3.271zM988.143 157.205c-4.16 0-6.546 2.475-6.546 6.814v6.667c0 5.548 2.01 8.03 6.546 8.03 4.537 0 6.566-2.482 6.566-8.03v-6.667c0-4.409-2.341-6.814-6.566-6.814m3.57 13.596c0 4.473-1.356 5.382-3.57 5.382-2.195 0-3.556-.91-3.556-5.382v-6.871c0-3.646 2.227-4.205 3.556-4.205 1.343 0 3.57.56 3.57 4.205zM1010.506 172.786c-.146-3.81-.916-4.848-2.958-5.3 2.061-.585 3.352-2.284 3.352-4.618 0-1.222-.375-5.25-5.045-5.25H998.673v20.678h2.926v-9.34h2.876c.674 0 2.672 0 2.882 2.418l.133 2.303c.057 1.87.147 3.492.668 4.53l.051.088h3.06l-.07-.235c-.4-1.24-.674-4.39-.693-5.274m-5.185-6.451h-3.722v-6.114h3.735c1.883 0 2.57 1.508 2.57 2.907 0 1.483-.687 3.207-2.583 3.207zM1022.27 157.619h-3.41l-6.573 20.677h2.997s1.45-4.62 1.527-4.842h7.583c.057.235 1.464 4.842 1.464 4.842h3.263l-6.712-20.677h-.14m-4.708 13.233c.134-.42 2.704-9.282 2.984-10.141.248.859 2.908 9.721 3.048 10.14h-6.032zM1027.302 157.619v2.602h5.35v18.075h2.933V160.22h5.35v-2.602h-.171zM1043.455 157.619v20.677h2.952v-20.677h-.178zM1057.28 157.205c-4.167 0-6.566 2.475-6.566 6.814v6.667c0 5.548 2.036 8.03 6.566 8.03 4.53 0 6.566-2.482 6.566-8.03v-6.667c0-4.339-2.412-6.814-6.566-6.814m3.569 13.596c0 4.517-1.304 5.382-3.57 5.382-2.251 0-3.562-.865-3.562-5.382v-6.871c0-3.646 2.227-4.205 3.563-4.205 1.33 0 3.569.56 3.569 4.205zM1082.092 157.619h-2.475v16.866c-.534-1.146-7.685-16.866-7.685-16.866h-3.945v20.677h2.653v-17.089c.535 1.152 7.8 17.089 7.8 17.089h3.824v-20.677ZM457.19 74.168h-20.3c-28.712.05-58.309 23.406-66.007 52.099-7.691 28.699 9.39 52.067 38.084 52.105h20.307c35.132 0 58.296-23.4 65.994-52.105 7.692-28.693-9.384-52.048-38.077-52.1m9.047 52.138c-4.473 16.713-20.982 30.277-36.78 30.277h-9.434c-15.536-.236-24.551-13.717-20.11-30.277 4.472-16.682 20.962-30.29 36.76-30.29h9.447c15.53.242 24.551 13.736 20.117 30.29zM336.655 178.36c5.122 0 10.37-4.162 11.757-9.27l25.595-94.922h-20.785c-5.121 0-10.383 4.16-11.757 9.282l-15.969 59.587-36.073-68.87H268.6c-5.134 0-10.395 4.161-11.763 9.283l-25.43 94.91h20.614c5.121 0 10.383-4.162 11.763-9.27l16.198-60.052 36.047 69.321h.007zM571.301 74.168c-28.712.05-58.308 23.406-66.006 52.099-7.686 28.699 9.41 51.99 38.108 52.029h47.029c5.007-.128 10.064-4.155 11.47-9.143l3.36-12.571h-50.82c-15.588 0-24.545-13.717-20.117-30.277 4.479-16.682 20.963-30.29 36.772-30.29h39.388c5.115 0 10.39-4.148 11.757-9.282l3.36-12.565zM157.678 156.067c-2.914-21.981-19.595-33.541-38.675-39.363-3.62-1.011-7.33-1.895-11.057-2.735h-.02l-14.054 52.85c-1.692 4.186-4.918 11.553-20.772 11.553H56.692l19.595-73.628C53.753 94.99 39.286 72.717 58.13 34.742c1.432-2.888.528-4.886-1.832-2.812-19.36 17.082-36.887 37.339-48.632 68.545C-7.92 141.885.687 185.122 29.61 207.128c22.445 18.68 56.928 22.319 84.558 12.775 29.342-10.624 45.572-32.923 43.51-63.836z" style="stroke-width:3.25738"/><path fill="#fc0019" d="M78.266 97.154c.008 0 .02.012.033.012l9.104-34.234c1.699-4.186 4.918-11.566 20.791-11.566h16.389l-14.563 54.758 53.989-49.363c4.001-3.366 10.726-5.35 18.698-5.35l-.146-.039 27.713-.007-63.468 57.647c29.43 5.974 53.861 30.296 39.763 74.938h.007c-.77 1.973-1.292 5.42 3.333.217 17.375-18.794 51.145-63.386 48.416-110.223-3.932-67.59-64.906-77.636-100.018-72.96-37.963 5.064-59.269 23.476-70.053 39.89C57.58 57.142 52.578 86.757 78.268 97.153Z" style="stroke-width:3.25738"/></svg>