<svg xmlns="http://www.w3.org/2000/svg" xml:space="preserve" width="803.02985" height="300" viewBox="0 0 803.02981 300"><defs><radialGradient id="b" cx="0" cy="0" r="1" fx="0" fy="0" gradientTransform="matrix(39.7105 0 0 -39.71048 1766.022 554.167)" gradientUnits="userSpaceOnUse" spreadMethod="pad"><stop offset="0" style="stop-opacity:1;stop-color:#00abbd"/><stop offset="0.350006" style="stop-opacity:1;stop-color:#00abbd"/><stop offset="0.859375" style="stop-opacity:1;stop-color:#065"/><stop offset="1" style="stop-opacity:1;stop-color:#003c2f"/></radialGradient><radialGradient id="d" cx="0" cy="0" r="1" fx="0" fy="0" gradientTransform="matrix(38.26355 0 0 -38.26355 1765.602 553.256)" gradientUnits="userSpaceOnUse" spreadMethod="pad"><stop offset="0" style="stop-opacity:1;stop-color:#fff200"/><stop offset="0.350006" style="stop-opacity:1;stop-color:#fff200"/><stop offset="1" style="stop-opacity:1;stop-color:#a6ce38"/></radialGradient><clipPath id="a" clipPathUnits="userSpaceOnUse"><path d="M1772.737 557.573c-5.031-2.574-10.029-4.224-14.728-4.955-1.205-.185-1.93-1.14-1.93-2.592v-20.527c0-1.447.725-3.17 1.93-4.432 4.699-4.926 9.697-8.928 14.728-12.009a3.953 3.953 0 0 1 4.172.001c5.032 3.08 10.029 7.082 14.731 12.006 1.205 1.266 1.928 2.988 1.928 4.434v20.527c0 1.452-.723 2.407-1.928 2.592-4.702.731-9.699 2.383-14.731 4.955a4.617 4.617 0 0 1-2.087.491c-.72 0-1.44-.163-2.085-.491"/></clipPath><clipPath id="c" clipPathUnits="userSpaceOnUse"><path d="M1769.075 551.276a10.071 10.071 0 0 1-2.49-2.152 10.376 10.376 0 0 1-1.754-3.043l-.01-.018v-.013c-.531-1.482-.771-3-.771-4.485 0-1.464.23-2.896.629-4.271.699-2.409 1.902-4.647 3.359-6.677a31.87 31.87 0 0 1 3.83-4.385 44.436 44.436 0 0 0-.836-.215c-3.919-.986-7.924-1.77-11.637-2.366a77.33 77.33 0 0 1 4.703-4.325c2.024.378 4.096.809 6.171 1.294 2.181.51 4.363 1.08 6.499 1.719 1.55-1.003 5.186-2.5 8.479-3.27a76.882 76.882 0 0 1 4.363 3.943c-2.459.378-5.961 1.506-6.078 1.661 0 0 2.35.986 3.455 1.521 1.582.77 3.065 1.598 4.416 2.504a24.995 24.995 0 0 1 2.167 1.628v17.87a9.28 9.28 0 0 1-.332.164c-1.481.696-3.067 1-4.626 1.003a11.632 11.632 0 0 1-4.445-.878 8.823 8.823 0 0 1-.358-.158 8.703 8.703 0 0 1-1.556 1.909 9.97 9.97 0 0 1-3.388 2.019c-1.235.439-2.542.66-3.864.66-2.025-.002-4.096-.516-5.924-1.639m2.824-17.347c-.869 1.258-1.576 2.565-2.053 3.855-.48 1.291-.732 2.561-.734 3.781 0 .94.148 1.852.471 2.766.235.615.535 1.123.894 1.55a5.206 5.206 0 0 0 1.995 1.466 6.497 6.497 0 0 0 2.527.502c.672 0 1.335-.102 1.938-.289 3.909-1.176 3.74-5.356 9.181-3.749a6.545 6.545 0 0 0 2.492.485c.592 0 1.176-.079 1.71-.233.8-.234 1.47-.62 1.98-1.15.255-.268.477-.572.66-.941.186-.369.336-.803.431-1.33.059-.339.087-.661.087-.971 0-.908-.227-1.738-.715-2.628-.428-.769-1.065-1.567-1.922-2.368-1.496-1.397-3.649-2.766-6.223-3.998-2.092-1.008-4.459-1.926-6.972-2.754-2.09 1.623-4.186 3.73-5.747 6.006"/></clipPath></defs><path d="m0 0-1.721 3.045-.864-1.034V0h-1.307v6.692h1.307V3.779l2.359 2.913h1.588l-2.217-2.66L1.522 0Z" style="fill:#004659;fill-opacity:1;fill-rule:nonzero;stroke:none" transform="matrix(2.64955 0 0 -2.64955 188.333 235.093)"/><path d="M0 0c-.142.141-.329.216-.574.216A.751.751 0 0 1-1.138 0c-.254-.254-.282-.677-.282-1.185 0-.507.028-.94.282-1.193a.751.751 0 0 1 .564-.216c.245 0 .432.075.574.216.253.253.281.686.281 1.193C.281-.677.253-.254 0 0m.949-3.092c-.301-.32-.799-.602-1.523-.602-.724 0-1.212.282-1.513.602-.442.46-.555 1.014-.555 1.907 0 .884.113 1.438.555 1.899.301.32.789.602 1.513.602.724 0 1.222-.282 1.523-.602.442-.461.555-1.015.555-1.899 0-.893-.113-1.447-.555-1.907" style="fill:#004659;fill-opacity:1;fill-rule:nonzero;stroke:none" transform="matrix(2.64955 0 0 -2.64955 200.794 225.455)"/><path d="M0 0c-.188.188-.349.292-.649.292-.376 0-.789-.283-.789-.903v-2.952H-2.66v4.897h1.193V.865c.236.281.705.526 1.232.526.479 0 .817-.122 1.156-.461z" style="fill:#004659;fill-opacity:1;fill-rule:nonzero;stroke:none" transform="matrix(2.64955 0 0 -2.64955 214.921 225.654)"/><path d="M0 0c-.132.292-.404.508-.818.508-.413 0-.686-.216-.818-.508a1.36 1.36 0 0 1-.113-.526H.112A1.343 1.343 0 0 1 0 0m-1.749-1.363c0-.63.386-1.09 1.072-1.09.535 0 .799.15 1.109.46l.743-.723c-.498-.498-.978-.771-1.862-.771-1.156 0-2.265.527-2.265 2.509 0 1.599.865 2.501 2.134 2.501 1.363 0 2.133-.997 2.133-2.341v-.545z" style="fill:#004659;fill-opacity:1;fill-rule:nonzero;stroke:none" transform="matrix(2.64955 0 0 -2.64955 225.61 226.003)"/><path d="M0 0h-.969c-.441 0-.685-.207-.685-.555 0-.338.225-.564.705-.564.338 0 .553.029.77.235.132.123.179.32.179.621Zm.027-2.068v.423c-.328-.329-.638-.47-1.203-.47-.553 0-.958.141-1.25.432-.262.273-.404.668-.404 1.1 0 .78.536 1.419 1.674 1.419H0v.245c0 .536-.264.771-.912.771-.47 0-.687-.113-.94-.405l-.78.762c.48.526.949.677 1.767.677 1.372 0 2.087-.583 2.087-1.73v-3.224z" style="fill:#004659;fill-opacity:1;fill-rule:nonzero;stroke:none" transform="matrix(2.64955 0 0 -2.64955 238.67 229.614)"/><path d="M1647.478 270.45h3.774V251.13h-3.774z" style="fill:#004659;fill-opacity:1;fill-rule:nonzero;stroke:none;stroke-width:2.88722" transform="matrix(.91768 0 0 -.91768 -1260.434 465.55)"/><path d="M0 0v2.961c0 .667-.423.893-.809.893-.384 0-.817-.226-.817-.893V0h-1.222v4.897h1.194v-.451c.319.338.77.508 1.221.508.49 0 .884-.161 1.157-.433.394-.395.498-.855.498-1.391V0Z" style="fill:#004659;fill-opacity:1;fill-rule:nonzero;stroke:none" transform="matrix(2.64955 0 0 -2.64955 266.326 235.093)"/><path d="M0 0c-.771 0-1.466.084-2.086.705l.799.799c.404-.404.931-.461 1.307-.461.422 0 .864.141.864.508 0 .244-.132.413-.517.451l-.77.075c-.884.085-1.429.47-1.429 1.372 0 1.015.893 1.561 1.889 1.561.761 0 1.4-.132 1.871-.573l-.752-.762c-.282.254-.715.329-1.138.329-.489 0-.695-.226-.695-.47 0-.179.075-.386.507-.423l.771-.075c.968-.094 1.457-.611 1.457-1.438C2.078.517 1.156 0 0 0" style="fill:#004659;fill-opacity:1;fill-rule:nonzero;stroke:none" transform="matrix(2.64955 0 0 -2.64955 277.315 235.242)"/><path d="M0 0c-.996 0-1.419.705-1.419 1.4v2.426h-.517v.93h.517v1.448h1.222V4.756h.865v-.93h-.865v-2.35c0-.282.132-.442.424-.442h.441V0Z" style="fill:#004659;fill-opacity:1;fill-rule:nonzero;stroke:none" transform="matrix(2.64955 0 0 -2.64955 289.352 235.093)"/><path d="M1693.94 265.268h3.528v-14.14h-3.529zm-.059 5.292h3.61v-2.876h-3.61z" style="fill:#004659;fill-opacity:1;fill-rule:nonzero;stroke:none;stroke-width:2.88722" transform="matrix(.91768 0 0 -.91768 -1260.434 465.55)"/><path d="M0 0c-.996 0-1.419.705-1.419 1.4v2.426h-.517v.93h.517v1.448h1.222V4.756h.865v-.93h-.865v-2.35c0-.282.132-.442.424-.442h.441V0Z" style="fill:#004659;fill-opacity:1;fill-rule:nonzero;stroke:none" transform="matrix(2.64955 0 0 -2.64955 304.975 235.093)"/><path d="M0 0v.451a1.676 1.676 0 0 0-1.222-.507c-.489 0-.883.16-1.156.432-.394.395-.498.855-.498 1.391v3.13h1.222V1.936c0-.667.423-.893.808-.893.386 0 .818.226.818.893v2.961h1.222V0Z" style="fill:#004659;fill-opacity:1;fill-rule:nonzero;stroke:none" transform="matrix(2.64955 0 0 -2.64955 317.16 235.093)"/><path d="M0 0c-.996 0-1.419.705-1.419 1.4v2.426h-.517v.93h.517v1.448h1.222V4.756h.865v-.93h-.865v-2.35c0-.282.132-.442.424-.442h.441V0Z" style="fill:#004659;fill-opacity:1;fill-rule:nonzero;stroke:none" transform="matrix(2.64955 0 0 -2.64955 328.024 235.093)"/><path d="M0 0c-.132.292-.404.508-.818.508-.413 0-.686-.216-.818-.508a1.36 1.36 0 0 1-.113-.526H.112A1.343 1.343 0 0 1 0 0m-1.749-1.363c0-.63.386-1.09 1.072-1.09.535 0 .799.15 1.109.46l.743-.723c-.498-.498-.978-.771-1.862-.771-1.156 0-2.265.527-2.265 2.509 0 1.599.865 2.501 2.134 2.501 1.363 0 2.133-.997 2.133-2.341v-.545z" style="fill:#004659;fill-opacity:1;fill-rule:nonzero;stroke:none" transform="matrix(2.64955 0 0 -2.64955 339.83 226.003)"/><path d="M0 0c-.142.141-.329.216-.574.216A.751.751 0 0 1-1.138 0c-.254-.254-.282-.677-.282-1.185 0-.507.028-.94.282-1.193a.751.751 0 0 1 .564-.216c.245 0 .432.075.574.216.253.253.281.686.281 1.193C.281-.677.253-.254 0 0m.949-3.092c-.301-.32-.799-.602-1.523-.602-.724 0-1.212.282-1.513.602-.442.46-.555 1.014-.555 1.907 0 .884.113 1.438.555 1.899.301.32.789.602 1.513.602.724 0 1.222-.282 1.523-.602.442-.461.555-1.015.555-1.899 0-.893-.113-1.447-.555-1.907" style="fill:#004659;fill-opacity:1;fill-rule:nonzero;stroke:none" transform="matrix(2.64955 0 0 -2.64955 358.546 225.455)"/><path d="M0 0v-3.826h-1.222V0h-.507v.931h.507v.611c0 .695.432 1.4 1.429 1.4h.695V1.908H.423c-.291 0-.423-.16-.423-.442V.931h.902V0Z" style="fill:#004659;fill-opacity:1;fill-rule:nonzero;stroke:none" transform="matrix(2.64955 0 0 -2.64955 369.26 224.957)"/><path d="M0 0c-.226.272-.526.414-.978.414h-.986v-4.362h.986c.452 0 .752.141.978.414.245.301.282.78.282 1.795S.245-.301 0 0m.912-4.474c-.441-.442-1.071-.639-1.766-.639h-2.417v6.692h2.417c.695 0 1.325-.197 1.766-.639.752-.752.677-1.673.677-2.679 0-1.006.075-1.983-.677-2.735" style="fill:#004659;fill-opacity:1;fill-rule:nonzero;stroke:none" transform="matrix(2.64955 0 0 -2.64955 388.842 221.545)"/><path d="M0 0c-.188.188-.348.292-.648.292-.376 0-.79-.283-.79-.903v-2.952h-1.221v4.897h1.193V.865c.236.281.705.526 1.232.526.479 0 .817-.122 1.156-.461z" style="fill:#004659;fill-opacity:1;fill-rule:nonzero;stroke:none" transform="matrix(2.64955 0 0 -2.64955 403.397 225.654)"/><path d="M0 0v.451a1.676 1.676 0 0 0-1.222-.507c-.489 0-.883.16-1.156.432-.394.395-.498.855-.498 1.391v3.13h1.222V1.936c0-.667.423-.893.808-.893.385 0 .818.226.818.893v2.961h1.221V0Z" style="fill:#004659;fill-opacity:1;fill-rule:nonzero;stroke:none" transform="matrix(2.64955 0 0 -2.64955 415.16 235.093)"/><path d="M0 0c-.724 0-.799-.621-.799-1.269 0-.649.075-1.278.799-1.278.724 0 .809.629.809 1.278C.809-.621.724 0 0 0m-.122-5.706c-.752 0-1.269.151-1.776.64l.761.77c.273-.263.545-.376.958-.376.734 0 .988.517.988 1.015v.499c-.32-.358-.687-.489-1.166-.489-.479 0-.893.16-1.165.432-.461.461-.499 1.09-.499 1.946 0 .855.038 1.476.499 1.936.272.272.695.433 1.174.433C.17 1.1.508.958.846.583v.46H2.03v-4.718c0-1.176-.836-2.031-2.152-2.031" style="fill:#004659;fill-opacity:1;fill-rule:nonzero;stroke:none" transform="matrix(2.64955 0 0 -2.64955 426.772 224.882)"/><path d="M0 0c-1.015 0-1.785.216-2.443.883l.845.846c.423-.423.996-.564 1.618-.564.77 0 1.183.292 1.183.827 0 .236-.065.433-.206.565-.132.122-.282.187-.593.235l-.808.112c-.574.085-.996.263-1.297.555-.32.319-.48.752-.48 1.315 0 1.194.884 2.031 2.331 2.031.922 0 1.589-.226 2.163-.78l-.828-.818c-.422.404-.93.46-1.372.46-.695 0-1.034-.385-1.034-.845a.65.65 0 0 1 .197-.48c.132-.122.348-.225.62-.263l.791-.113c.611-.084.996-.254 1.278-.517.357-.338.516-.827.516-1.419C2.481.733 1.4 0 0 0" style="fill:#004659;fill-opacity:1;fill-rule:nonzero;stroke:none" transform="matrix(2.64955 0 0 -2.64955 446.706 235.242)"/><path d="M0 0h-.969c-.441 0-.685-.207-.685-.555 0-.338.225-.564.704-.564.339 0 .554.029.771.235.131.123.179.32.179.621Zm.028-2.068v.423c-.329-.329-.639-.47-1.203-.47-.554 0-.959.141-1.251.432-.262.273-.403.668-.403 1.1 0 .78.535 1.419 1.673 1.419H0v.245c0 .536-.264.771-.912.771-.47 0-.687-.113-.941-.405l-.779.762c.479.526.949.677 1.767.677 1.372 0 2.087-.583 2.087-1.73v-3.224z" style="fill:#004659;fill-opacity:1;fill-rule:nonzero;stroke:none" transform="matrix(2.64955 0 0 -2.64955 462.88 229.614)"/><path d="M0 0v-3.826h-1.222V0h-.507v.931h.507v.611c0 .695.432 1.4 1.429 1.4h.695V1.908H.423c-.291 0-.423-.16-.423-.442V.931h.902V0Z" style="fill:#004659;fill-opacity:1;fill-rule:nonzero;stroke:none" transform="matrix(2.64955 0 0 -2.64955 473.248 224.957)"/><path d="M0 0c-.132.292-.404.508-.818.508-.413 0-.686-.216-.818-.508a1.36 1.36 0 0 1-.113-.526H.112A1.325 1.325 0 0 1 0 0m-1.749-1.363c0-.63.386-1.09 1.072-1.09.535 0 .799.15 1.109.46l.743-.723c-.498-.498-.978-.771-1.862-.771-1.156 0-2.265.527-2.265 2.509 0 1.599.865 2.501 2.134 2.501 1.363 0 2.133-.997 2.133-2.341v-.545z" style="fill:#004659;fill-opacity:1;fill-rule:nonzero;stroke:none" transform="matrix(2.64955 0 0 -2.64955 484.907 226.003)"/><path d="M0 0c-.996 0-1.419.705-1.419 1.4v2.426h-.517v.93h.517v1.448h1.222V4.756h.865v-.93h-.865v-2.35c0-.282.132-.442.424-.442h.441V0Z" style="fill:#004659;fill-opacity:1;fill-rule:nonzero;stroke:none" transform="matrix(2.64955 0 0 -2.64955 495.448 235.093)"/><path d="M0 0c-.104-.272-.216-.479-.366-.63-.282-.282-.65-.376-1.053-.376h-.479v1.1h.281c.348 0 .489.085.611.442l.207.601-1.673 4.55h1.287L-.169 2.66l.978 3.027h1.287z" style="fill:#004659;fill-opacity:1;fill-rule:nonzero;stroke:none" transform="matrix(2.64955 0 0 -2.64955 504.993 237.185)"/><path d="M0 0c-.366 0-.555-.235-.555-.545 0-.245.207-.479.442-.752a6.5 6.5 0 0 1 .282.188c.217.15.386.329.386.564C.555-.235.348 0 0 0m-.461-2.688c-.404-.282-.677-.545-.677-1.025 0-.555.451-.94 1.016-.94.394 0 .685.122.996.395zm2.566-3.018-.489.583c-.309-.244-.77-.639-1.729-.639-1.476 0-2.208.771-2.208 2.031 0 .855.62 1.409 1.203 1.794-.274.311-.668.781-.668 1.42 0 .912.668 1.56 1.786 1.56 1.053 0 1.711-.667 1.711-1.579 0-.517-.273-.864-.687-1.165 0 0-.31-.236-.479-.348l1.128-1.335c.217.291.319.696.339 1.175h1.155c-.047-.865-.244-1.551-.714-2.077l1.203-1.42z" style="fill:#004659;fill-opacity:1;fill-rule:nonzero;stroke:none" transform="matrix(2.64955 0 0 -2.64955 524.078 219.976)"/><path d="M0 0h-1.231v-1.767H0c.573 0 .949.367.949.883C.949-.367.573 0 0 0m1.015-5.527-1.307 2.67h-.939v-2.67h-1.307v6.693H.084c1.363 0 2.172-.931 2.172-2.05 0-.939-.574-1.522-1.223-1.757l1.495-2.886z" style="fill:#004659;fill-opacity:1;fill-rule:nonzero;stroke:none" transform="matrix(2.64955 0 0 -2.64955 548.972 220.45)"/><path d="M1981.867 265.268h3.528v-14.14h-3.528zm-.055 5.292h3.612v-2.876h-3.612z" style="fill:#004659;fill-opacity:1;fill-rule:nonzero;stroke:none;stroke-width:2.88722" transform="matrix(.91768 0 0 -.91768 -1260.434 465.55)"/><path d="M0 0c-.771 0-1.466.084-2.086.705l.799.799c.404-.404.931-.461 1.307-.461.422 0 .864.141.864.508 0 .244-.132.413-.517.451l-.77.075c-.884.085-1.429.47-1.429 1.372 0 1.015.893 1.561 1.889 1.561.761 0 1.4-.132 1.871-.573l-.752-.762c-.282.254-.715.329-1.138.329-.489 0-.695-.226-.695-.47 0-.179.075-.386.507-.423l.771-.075c.968-.094 1.457-.611 1.457-1.438C2.078.517 1.156 0 0 0" style="fill:#004659;fill-opacity:1;fill-rule:nonzero;stroke:none" transform="matrix(2.64955 0 0 -2.64955 569.403 235.242)"/><path d="m0 0-1.203 2.04-.517-.583V0h-1.221v6.692h1.221V2.895l1.626 2.002h1.476L-.366 2.923 1.514 0Z" style="fill:#004659;fill-opacity:1;fill-rule:nonzero;stroke:none" transform="matrix(2.64955 0 0 -2.64955 585.424 235.093)"/><path d="M0 0v3.901l-1.278-2.538h-.884l-1.287 2.538V0h-1.307v6.692h1.288l1.748-3.618L.019 6.692h1.288V0Z" style="fill:#004659;fill-opacity:1;fill-rule:nonzero;stroke:none" transform="matrix(2.64955 0 0 -2.64955 610.189 235.093)"/><path d="M0 0h-.969c-.441 0-.685-.207-.685-.555 0-.338.225-.564.705-.564.338 0 .553.029.77.235.132.123.179.32.179.621Zm.027-2.068v.423c-.328-.329-.638-.47-1.203-.47-.553 0-.958.141-1.25.432-.262.273-.404.668-.404 1.1 0 .78.536 1.419 1.674 1.419H0v.245c0 .536-.264.771-.912.771-.47 0-.687-.113-.94-.405l-.78.762c.48.526.949.677 1.767.677 1.372 0 2.087-.583 2.087-1.73v-3.224z" style="fill:#004659;fill-opacity:1;fill-rule:nonzero;stroke:none" transform="matrix(2.64955 0 0 -2.64955 624.122 229.614)"/><path d="M0 0v2.961c0 .667-.423.893-.809.893-.384 0-.817-.226-.817-.893V0h-1.222v4.897h1.194v-.451c.319.338.77.508 1.221.508.49 0 .884-.161 1.157-.433.394-.395.498-.855.498-1.391V0Z" style="fill:#004659;fill-opacity:1;fill-rule:nonzero;stroke:none" transform="matrix(2.64955 0 0 -2.64955 638.4 235.093)"/><path d="M0 0h-.969c-.441 0-.685-.207-.685-.555 0-.338.225-.564.704-.564.339 0 .554.029.771.235.131.123.179.32.179.621Zm.028-2.068v.423c-.329-.329-.639-.47-1.203-.47-.554 0-.959.141-1.251.432-.262.273-.403.668-.403 1.1 0 .78.535 1.419 1.673 1.419H0v.245c0 .536-.264.771-.912.771-.47 0-.687-.113-.941-.405l-.779.762c.479.526.949.677 1.767.677 1.372 0 2.087-.583 2.087-1.73v-3.224z" style="fill:#004659;fill-opacity:1;fill-rule:nonzero;stroke:none" transform="matrix(2.64955 0 0 -2.64955 651.707 229.614)"/><path d="M0 0c-.724 0-.799-.621-.799-1.269 0-.649.075-1.278.799-1.278.724 0 .809.629.809 1.278C.809-.621.724 0 0 0m-.122-5.706c-.752 0-1.269.151-1.776.64l.761.77c.273-.263.545-.376.958-.376.734 0 .988.517.988 1.015v.499c-.32-.358-.687-.489-1.166-.489-.479 0-.893.16-1.165.432-.461.461-.499 1.09-.499 1.946 0 .855.038 1.476.499 1.936.272.272.695.433 1.174.433C.17 1.1.508.958.846.583v.46H2.03v-4.718c0-1.176-.836-2.031-2.152-2.031" style="fill:#004659;fill-opacity:1;fill-rule:nonzero;stroke:none" transform="matrix(2.64955 0 0 -2.64955 663.244 224.882)"/><path d="M0 0c-.132.292-.404.508-.818.508-.413 0-.686-.216-.818-.508a1.36 1.36 0 0 1-.113-.526H.112A1.325 1.325 0 0 1 0 0m-1.749-1.363c0-.63.386-1.09 1.072-1.09.535 0 .799.15 1.109.46l.743-.723c-.498-.498-.978-.771-1.862-.771-1.156 0-2.265.527-2.265 2.509 0 1.599.865 2.501 2.134 2.501 1.363 0 2.133-.997 2.133-2.341v-.545z" style="fill:#004659;fill-opacity:1;fill-rule:nonzero;stroke:none" transform="matrix(2.64955 0 0 -2.64955 679.442 226.003)"/><path d="M0 0v2.961c0 .667-.423.893-.808.893-.376 0-.818-.226-.818-.865V0h-1.222v2.961c0 .667-.423.893-.808.893-.385 0-.818-.226-.818-.893V0h-1.221v4.897h1.193v-.451c.319.329.771.508 1.222.508.546 0 .987-.198 1.298-.621.413.433.854.621 1.465.621.49 0 .931-.161 1.204-.433.394-.395.536-.855.536-1.391V0Z" style="fill:#004659;fill-opacity:1;fill-rule:nonzero;stroke:none" transform="matrix(2.64955 0 0 -2.64955 701.016 235.093)"/><path d="M0 0c-.132.292-.404.508-.818.508-.413 0-.686-.216-.818-.508a1.36 1.36 0 0 1-.113-.526H.112A1.325 1.325 0 0 1 0 0m-1.749-1.363c0-.63.386-1.09 1.072-1.09.535 0 .799.15 1.109.46l.743-.723c-.498-.498-.978-.771-1.862-.771-1.156 0-2.265.527-2.265 2.509 0 1.599.865 2.501 2.134 2.501 1.363 0 2.133-.997 2.133-2.341v-.545z" style="fill:#004659;fill-opacity:1;fill-rule:nonzero;stroke:none" transform="matrix(2.64955 0 0 -2.64955 714.926 226.003)"/><path d="M0 0v2.961c0 .667-.423.893-.809.893-.384 0-.817-.226-.817-.893V0h-1.222v4.897h1.194v-.451c.319.338.77.508 1.221.508.49 0 .884-.161 1.157-.433.394-.395.498-.855.498-1.391V0Z" style="fill:#004659;fill-opacity:1;fill-rule:nonzero;stroke:none" transform="matrix(2.64955 0 0 -2.64955 728.955 235.093)"/><path d="M0 0c-.996 0-1.419.705-1.419 1.4v2.426h-.517v.93h.517v1.448h1.222V4.756h.865v-.93h-.865v-2.35c0-.282.132-.442.424-.442h.441V0Z" style="fill:#004659;fill-opacity:1;fill-rule:nonzero;stroke:none" transform="matrix(2.64955 0 0 -2.64955 739.745 235.093)"/><g clip-path="url(#a)" transform="matrix(2.64955 0 0 -2.64955 -4592.824 1538.62)"><path d="M1772.737 557.573c-5.031-2.574-10.029-4.224-14.728-4.955-1.205-.185-1.93-1.14-1.93-2.592v-20.527c0-1.447.725-3.17 1.93-4.432 4.699-4.926 9.697-8.928 14.728-12.009a3.953 3.953 0 0 1 4.172.001c5.032 3.08 10.029 7.082 14.731 12.006 1.205 1.266 1.928 2.988 1.928 4.434v20.527c0 1.452-.723 2.407-1.928 2.592-4.702.731-9.699 2.383-14.731 4.955a4.617 4.617 0 0 1-2.087.491c-.72 0-1.44-.163-2.085-.491" style="fill:url(#b);stroke:none"/></g><g clip-path="url(#c)" transform="matrix(2.64955 0 0 -2.64955 -4592.824 1538.62)"><path d="M1769.075 551.276a10.071 10.071 0 0 1-2.49-2.152 10.376 10.376 0 0 1-1.754-3.043l-.01-.018v-.013c-.531-1.482-.771-3-.771-4.485 0-1.464.23-2.896.629-4.271.699-2.409 1.902-4.647 3.359-6.677a31.87 31.87 0 0 1 3.83-4.385 44.436 44.436 0 0 0-.836-.215c-3.919-.986-7.924-1.77-11.637-2.366a77.33 77.33 0 0 1 4.703-4.325c2.024.378 4.096.809 6.171 1.294 2.181.51 4.363 1.08 6.499 1.719 1.55-1.003 5.186-2.5 8.479-3.27a76.882 76.882 0 0 1 4.363 3.943c-2.459.378-5.961 1.506-6.078 1.661 0 0 2.35.986 3.455 1.521 1.582.77 3.065 1.598 4.416 2.504a24.995 24.995 0 0 1 2.167 1.628v17.87a9.28 9.28 0 0 1-.332.164c-1.481.696-3.067 1-4.626 1.003a11.632 11.632 0 0 1-4.445-.878 8.823 8.823 0 0 1-.358-.158 8.703 8.703 0 0 1-1.556 1.909 9.97 9.97 0 0 1-3.388 2.019c-1.235.439-2.542.66-3.864.66-2.025-.002-4.096-.516-5.924-1.639m2.824-17.347c-.869 1.258-1.576 2.565-2.053 3.855-.48 1.291-.732 2.561-.734 3.781 0 .94.148 1.852.471 2.766.235.615.535 1.123.894 1.55a5.206 5.206 0 0 0 1.995 1.466 6.497 6.497 0 0 0 2.527.502c.672 0 1.335-.102 1.938-.289 3.909-1.176 3.74-5.356 9.181-3.749a6.545 6.545 0 0 0 2.492.485c.592 0 1.176-.079 1.71-.233.8-.234 1.47-.62 1.98-1.15.255-.268.477-.572.66-.941.186-.369.336-.803.431-1.33.059-.339.087-.661.087-.971 0-.908-.227-1.738-.715-2.628-.428-.769-1.065-1.567-1.922-2.368-1.496-1.397-3.649-2.766-6.223-3.998-2.092-1.008-4.459-1.926-6.972-2.754-2.09 1.623-4.186 3.73-5.747 6.006" style="fill:url(#d);stroke:none"/></g><path d="M1855.92 297.971h-20.186v8.662h20.187zm20.997 21.807v6.9h-61.815v-6.9h26.134v-6.317h-14.828v-18.19c.421-2.43 2.451-4.151 4.876-4.197h34.185v22.387h-14.465v6.317zm-25.991 19.163h-9.609l-.219 9.834h9.981zm16.596 0h-7.928l.147 9.834h6.906v6.9h-41.267v-6.9h6.976l.219-9.834h-7.928v-6.904h42.875z" style="fill:#004659;fill-opacity:1;fill-rule:nonzero;stroke:none;stroke-width:2.88722" transform="matrix(.91768 0 0 -.91768 -1260.434 465.55)"/><path d="M0 0c.863-.764 1.705-1.346 3.027-1.957 0 0 .162-.072.194-.088L4.807.076C3.436.814 1.984 1.857 1.172 2.822c-.84.992-1.475 2.543-1.475 4.069v1.22h4.067v2.416H-7.754V8.111h4.068V6.84c0-1.475-.636-3.104-1.425-4.195C-6 1.424-7.5.178-8.824-.584L-6.828-2.6l.142.082C-5.287-1.729-4.32-.941-3.381.051c.66.707 1.246 1.41 1.522 1.9C-1.439 1.379-.791.699 0 0m.281-8.951v4.883h-3.232v-5.426h.002v-.461a1.741 1.741 0 0 1 1.728-1.461h11.926v2.465zM6.969 6.18H2.594V3.764h4.375v-9.002h3.203v16.783h-.002a.525.525 0 0 1-.522.502H7.486a.52.52 0 0 1-.517-.502v-.008l-.002-.012v-.246h.002z" style="fill:#004659;fill-opacity:1;fill-rule:nonzero;stroke:none" transform="matrix(2.64955 0 0 -2.64955 543.787 168.054)"/><path d="M0 0h-3.23V-5.887a1.743 1.743 0 0 1 1.728-1.461H10.17v2.465H0Zm9.814 8.926v6.422h.004v.246a.52.52 0 0 1-.521.521H7.131a.522.522 0 0 1-.522-.502V-1.221h3.205v7.655h2.846v2.492Zm-14.115-1.42c0 1.633 1.164 2.957 2.602 2.957 1.437 0 2.601-1.324 2.601-2.957 0-1.633-1.164-2.957-2.601-2.957-1.438 0-2.602 1.324-2.602 2.957m2.533-5.494c.02 0 .041-.004.065-.004.019 0 .039.004.062.004.022 0 .041-.004.063-.004 3.154 0 5.621 2.416 5.621 5.367 0 1.551-.814 2.951-1.959 3.889h3.178v2.392H.049v2.567h-3.434v-2.567h-5.338v-2.392h3.229c-1.145-.938-1.93-2.338-1.93-3.889 0-2.951 2.438-5.367 5.592-5.367.021 0 .041.004.064.004" style="fill:#004659;fill-opacity:1;fill-rule:nonzero;stroke:none" transform="matrix(2.64955 0 0 -2.64955 192.82 178.833)"/><path d="M0 0c1.453 0 2.631-1.412 2.631-3.152 0-1.743-1.178-3.157-2.631-3.157-1.453 0-2.631 1.414-2.631 3.157C-2.631-1.412-1.453 0 0 0m-.139-8.736c.022 0 .041.006.063.006.021 0 .043-.006.064-.006.022 0 .043.006.065.006.021 0 .041-.006.064-.006 3.176 0 5.696 2.468 5.696 5.572 0 3.1-2.52 5.592-5.696 5.592-.023 0-.043-.004-.064-.004-.022 0-.043.004-.065.004-.021 0-.043-.004-.064-.004-.022 0-.041.004-.063.004-3.179 0-5.67-2.492-5.67-5.592 0-3.104 2.491-5.572 5.67-5.572m7.424-1.321c-2.39-.279-7.578-.611-11.01-.611h-3.482v-2.363h.254l4.373.025c3.281.026 8.137.356 10.119.637v2.344a32.896 32.896 0 0 1-.254-.032m3.526 13.496H8.619a.522.522 0 0 1-.523-.521v-.246h.006v-19.543h3.228V2.672h.002v.246a.522.522 0 0 1-.521.521" style="fill:#004659;fill-opacity:1;fill-rule:nonzero;stroke:none" transform="matrix(2.64955 0 0 -2.64955 309.483 145.248)"/><path d="M0 0h-3.234v-5.895a1.743 1.743 0 0 1 1.728-1.453h11.674v2.465H0Zm9.813 9.662v5.951h-.002a.524.524 0 0 1-.52.502H7.127a.52.52 0 0 1-.518-.502h-.002V-1.221h3.206V7.17h2.845v2.492ZM-4.98 9.027c0 1.846 1.24 3.344 2.773 3.344 1.533 0 2.773-1.498 2.773-3.344 0-1.845-1.24-3.343-2.773-3.343-1.533 0-2.773 1.498-2.773 3.343m2.701-5.922.064-.003c.022 0 .041.003.065.003.021 0 .043-.003.062-.003a5.895 5.895 0 0 1 5.901 5.925c0 3.28-2.62 5.924-5.901 5.924l-.062-.002-.065.002-.064-.002-.063.002c-3.281 0-5.898-2.644-5.898-5.924 0-3.279 2.617-5.925 5.898-5.925.022 0 .043.003.063.003" style="fill:#004659;fill-opacity:1;fill-rule:nonzero;stroke:none" transform="matrix(2.64955 0 0 -2.64955 485.445 178.833)"/><path d="M0 0v3.713h-3.23V-.543h.001v-.461a1.741 1.741 0 0 1 1.725-1.461h11.902V0Zm.025 4.68v3.076c2.543.152 5.112.355 6.432.533v2.297a23.319 23.319 0 0 0-.254-.033c-2.39-.28-7.578-.61-11.01-.61h-4.248V7.629h.256l5.137.023h.404V4.68Zm-1.57 13.39c1.363 0 2.465-1.185 2.465-2.646 0-1.461-1.102-2.647-2.465-2.647-1.363 0-2.467 1.186-2.467 2.647 0 1.461 1.104 2.646 2.467 2.646m-.135-7.568c.022 0 .043.002.065.004a.61.61 0 0 1 .064-.004c.022 0 .043.002.065.004a.606.606 0 0 1 .062-.004c2.922 0 5.645 2.109 5.645 4.908 0 2.797-2.518 5.086-5.645 5.086-.021 0-.043-.004-.062-.004-.022 0-.043.004-.065.004-.023 0-.045-.004-.064-.004-.022 0-.043.004-.065.004-3.127 0-5.646-2.289-5.646-5.086 0-2.799 2.697-4.908 5.646-4.908m3.944-5.619h4.779V3.002h3.203V20.477a.522.522 0 0 1-.521.521H7.564a.519.519 0 0 1-.519-.521v-.008h-.002V7.094H2.264Z" style="fill:#004659;fill-opacity:1;fill-rule:nonzero;stroke:none" transform="matrix(2.64955 0 0 -2.64955 715.48 191.77)"/><path d="M0 0c.494 2.068.889 5.367.938 7.723-.09.507-.522.869-1.032.871h-12.443V6.102h10.146c.075-1.45-.332-4.348-.816-6.102h-13.195v-2.391h9.05v-3.332h-5.414v-2.414h10.655v-5.849h3.23v7.396a1.046 1.046 0 0 1-1.029.867h-4.057v3.332h8.975V0Z" style="fill:#004659;fill-opacity:1;fill-rule:nonzero;stroke:none" transform="matrix(2.64955 0 0 -2.64955 273.874 162.258)"/><path d="M0 0h-3.23v-5.557a1.74 1.74 0 0 1 1.724-1.461h11.904v2.465H0Zm10.07 8.594v7.084h.002v.246a.522.522 0 0 1-.521.521H7.385a.522.522 0 0 1-.522-.521v-.246h.002V-.713h3.205v6.891h2.77v2.416ZM.023 5.898h3.233c.463 1.997.851 5.707.928 8.313v.191c-.09.514-.524.877-1.038.877l-9.808.002v-2.492h7.5C.889 10.883.533 7.855.023 5.898m6.231-.882A32.896 32.896 0 0 1 6 4.984c-1.654-.199-4.623-.42-7.449-.525v5.15h-3.18V4.373h-3.812V2.008l.127.002v-.002l.125.002v-.002l4.324.025c3.279.026 8.109.356 10.119.637Z" style="fill:#004659;fill-opacity:1;fill-rule:nonzero;stroke:none" transform="matrix(2.64955 0 0 -2.64955 599.38 179.707)"/><path d="M0 0c-2.746-.434-5.695-.611-7.629-.637L-9.713-.66v3.226h6.815v6.541h-.008v.278a1.044 1.044 0 0 1-1.035.877l-9.026.009V7.805h6.838V4.881h-6.863v-7.985h4.629c2.084 0 6.332.307 8.619.711V.031C.213.023 0 0 0 0m3.678 11.943H1.484a.526.526 0 0 1-.521-.521v-.246h.004V-8.367h3.23v19.543h.002v.246a.52.52 0 0 1-.521.521" style="fill:#004659;fill-opacity:1;fill-rule:nonzero;stroke:none" transform="matrix(2.64955 0 0 -2.64955 674.236 167.78)"/><path d="M0 0c0 1.748 1.205 3.166 2.691 3.166C4.18 3.166 5.383 1.748 5.383 0S4.18-3.164 2.691-3.164C1.205-3.164 0-1.748 0 0m2.631-5.75c.021 0 .039-.004.064-.004.022 0 .039.004.065.004.021 0 .039-.004.062-.004 3.229 0 5.797 2.568 5.797 5.748 0 3.178-2.568 5.746-5.797 5.746-.023 0-.041-.004-.062-.004-.026 0-.043.004-.065.004-.025 0-.043-.004-.064-.004-.022 0-.041.004-.065.004-3.228 0-5.796-2.568-5.796-5.746 0-3.18 2.568-5.748 5.796-5.748.024 0 .043.004.065.004m12.113 4.244V.959h2.822v2.342h-2.822v3.031a.521.521 0 0 1-.519.522h-2.161a.523.523 0 0 1-.523-.522V-7.254h3.203v3.408h2.871v2.34zm-1.021-6.84H1.574v-2.39h9.942v-6.102h3.228v7.617a1.04 1.04 0 0 1-1.021.875" style="fill:#004659;fill-opacity:1;fill-rule:nonzero;stroke:none" transform="matrix(2.64955 0 0 -2.64955 355.679 154.293)"/></svg>