<svg xmlns="http://www.w3.org/2000/svg" width="1122.3997pt" height="225pt" viewBox="0 0 1122.3996 225"><defs><clipPath id="a"><path d="M238.927 750.909h145.768V721.69H238.927Z"/></clipPath></defs><g clip-path="url(#a)" transform="matrix(7.7005 0 0 7.7005 -1839.857 -5557.372)"><path fill="#73c5d1" d="M255.973 736.3a2.436 2.436 0 0 1-2.436 2.436 2.436 2.436 0 1 1 0-4.872 2.437 2.437 0 0 1 2.436 2.436"/><path fill="#8fbee2" d="M268.145 736.3c0 8.067-6.541 14.609-14.608 14.609-8.068 0-14.61-6.542-14.61-14.61 0-8.066 6.542-14.61 14.61-14.61 8.067 0 14.608 6.544 14.608 14.61"/><path fill="#fff" d="M265.031 736.3c0 6.347-5.146 11.492-11.494 11.492-6.349 0-11.494-5.145-11.494-11.492 0-6.35 5.145-11.493 11.494-11.493 6.348 0 11.494 5.144 11.494 11.493"/><path fill="#fff" d="M254.22 723.953c.126-.23.2-.519.2-.829 0-.759-.434-1.372-.971-1.372-.539 0-.975.613-.975 1.372 0 .31.075.6.2.83.101.254.214.696-.023.936h1.595c-.24-.24-.125-.68-.026-.937M245.29 727.085a1.75 1.75 0 0 0-.447-.728c-.534-.533-1.275-.66-1.657-.28-.379.377-.254 1.122.282 1.655.219.223.475.373.727.446.255.11.645.34.645.68l.514-.512.104-.104.514-.51c-.342 0-.572-.393-.682-.647M241.189 735.616a1.762 1.762 0 0 0-.828-.2c-.757 0-1.371.434-1.371.973 0 .537.614.972 1.371.972.311 0 .596-.074.828-.2.257-.1.696-.217.938.026v-1.597c-.242.241-.681.124-.938.026M244.323 744.546a1.748 1.748 0 0 0-.729.448c-.534.533-.662 1.275-.28 1.655.38.38 1.122.254 1.655-.28.224-.223.371-.479.447-.73.111-.253.339-.644.68-.644l-.512-.513-.104-.104-.512-.513c0 .341-.392.57-.645.681M252.852 748.646c-.122.23-.2.519-.2.833 0 .75.435 1.365.973 1.365.539 0 .972-.614.972-1.365 0-.314-.074-.603-.199-.833-.1-.255-.214-.696.025-.94h-.723l-.148.003h-.724c.239.24.126.68.024.937M261.783 745.513c.078.252.226.508.446.728.534.538 1.279.663 1.659.284.38-.384.253-1.123-.284-1.658a1.731 1.731 0 0 0-.726-.445c-.254-.111-.647-.341-.647-.682l-.512.513-.105.1-.511.515c.34 0 .57.394.68.645M265.884 736.983c.231.124.517.199.83.199.756 0 1.369-.433 1.369-.973 0-.536-.613-.972-1.369-.972-.313 0-.599.075-.83.2-.258.1-.697.215-.941-.024V737.01c.244-.245.683-.13.941-.028M262.75 728.052a1.72 1.72 0 0 0 .728-.447c.535-.533.663-1.273.281-1.656-.378-.379-1.121-.252-1.656.281-.22.222-.371.479-.447.729-.108.253-.339.645-.68.645l.511.514.106.103.511.513c0-.34.392-.57.646-.682"/><path fill="#2d9bc3" d="M249.997 736.072s4.852-1.223 6.17-1.223c0 0 4.352-.271 6.84 1.195-.132-5.115-4.322-9.22-9.47-9.22a9.473 9.473 0 0 0-9.469 9.159c1.133.246 3.416.585 5.929.089"/><path fill="#2a2f89" d="M256.166 734.849c-1.317 0-6.17 1.223-6.17 1.223-2.514.497-4.796.158-5.929-.09a6.67 6.67 0 0 0-.006.319c0 5.23 4.241 9.477 9.475 9.477 5.233 0 9.476-4.247 9.476-9.477l-.006-.258c-2.489-1.467-6.84-1.194-6.84-1.194"/><path fill="#fff" d="M245.99 736.996s.526.69 5.128.903c0 0 2.104.034 5.002-.866 0 0 4.64-1.34 8.48-.07 0 0-2.39-1.485-6.576-1.043-1.512.158-2.969.512-4.447.857-.431.098-.862.19-1.299.253-1.2.172-2.42.223-3.629.19a20.238 20.238 0 0 1-1.301-.069c-.225-.017-.452-.046-.677-.068-.109-.013-.619-.008-.681-.087"/><path fill="#fff" d="M243.923 735.865s.812.637 4.767.78c-.034.033 2.085-.018 4.54-.76 0 0 5.79-2.033 10.152.386 0 0-2.085-2.295-8.37-1.572-.94.11-1.874.284-2.791.508-.97.236-1.922.455-2.909.597-1.147.17-2.311.276-3.471.255a15.744 15.744 0 0 1-.995-.053c-.214-.024-.75-.002-.923-.14"/><path fill="#fff" d="M253.644 733.358c-1.511.17-2.97.515-4.447.86-.429.102-.862.189-1.301.249a21.646 21.646 0 0 1-3.626.194l-.184-.005a1.74 1.74 0 0 1-.136.445c.701.094 1.612.183 2.788.236 0 0 2.103.036 5.003-.866 0 0 4.736-1.518 9.523.37 0 0-2.561-2.048-7.62-1.483M247.617 740.467l-.067-.057-.06-.05-.063-.003-.489.265-.12.062-.062.016-.035-.017-.035-.057-.008-.02.005-.131c.024-.022.089-.067.192-.125l.024-.013.632-.335.093-.029.087.063.033.081-.017.108v.027l.017.023.013.02.029.097-.093.08-.076-.005m-.592-.804-.019-.175-.135-.123-.153.029-.1.139.02.2.138.086.157-.035.092-.121m.22.204-.063-.036-.05.067-.087.058-.189.084-.178.002-.06-.062-.029-.106-.007-.008-.014.004-.062.028-.047-.048a.678.678 0 0 1-.087-.422c.021-.127.077-.215.167-.264l.118-.054.084-.029-.004-.066.074-.057.131-.041.075.084.128.23.01-.006.07-.015.084.102.038.124-.067.046.098.18.01.019.021.079-.076.074-.088.033m-.954 1.169-.059-.076-.59-1.094-.03-.052-.054-.099.056-.09.076-.033h.08l.175-.104.032-.026.015-.02.012-.017.019-.017.019-.012.034-.022.041.004.055.054.075.129.015.089-.05.026-.019.005-.018.011-.264.145-.007.001v.021l.529.979.026.079-.069.084-.099.035M248.647 741.97l-.024-.027-.023.019-.052.016-.079-.061-.012-.008-.047-.07.048-.08.178-.175.017-.036-.031-.038-.575-.598-.06-.048-.069-.031-.026-.051.022-.083.043-.075.047-.026.092.04.091.077.689.712.011.01.014.013.043.04.022.11-.009.116-.039.027-.028.01-.03.028Zm-.718.692h-.027l-.017.012-.014.014-.011.016-.016.022-.027.029-.066.007-.091-.065-.054-.081.053-.095.166-.16.016-.04-.026-.036-.613-.631-.058-.046-.067-.033-.027-.056.022-.081.044-.076.043-.024.094.042.091.073.371.388.016-.042.041-.028.026-.017.023-.013.052-.052-.223-.233-.044-.04-.057-.036-.083-.057-.075-.071-.001-.004-.072-.08-.028-.051.025-.053.065-.067.11-.002.114.089.985 1.027.041.084-.041.07-.097.055-.052-.04-.011-.015-.353-.363-.084.076-.057.04-.053-.004.147.157.025.02.026.019.057.056.03.106-.007.12-.047.037-.045.013-.053.045-.068.069zM250.534 742.929l-.058.029-.636 1.056-.081.113-.085-.03-.03-.017-.021-.134.089-.166.011-.034-.009-.008-.01-.014.024-.057.468-.78.012-.051-.012-.046-.029-.032-.024.01-.588.983-.111.134-.105-.006-.033-.016-.066-.055.038-.136.072-.115.039-.037.026-.051.017-.035.023-.034.58-.972.014-.03.062-.072.112.038.081.062.037.056.027.046.046.044h.024l.026-.013.031-.016.039.006.024.016.112.087-.05.16-.086.117m-.984-.444-.069-.143-.156.01-.125.122-.032.167.063.124.15-.01.117-.114.052-.156m.014.458-.155.07-.056-.008-.036-.077-.019-.045-.058.015-.032.03-.055.039-.069-.01c-.106-.06-.166-.16-.183-.303a.522.522 0 0 1 .072-.332l.072-.102.059-.053-.028-.062.031-.084.108-.117.121.013.148.09.073-.024.101.047.095.083.008.059.103.063.082.066-.035.116-.053.072-.052.002-.021.115-.077.163-.144.174M252.482 743.47l-.093.009h-.074l-.037.034-.028.09.102.03.082.044.004.106-.063.134-.061.002-.02-.005-.12-.033-.028.117-.045.105-.068-.001-.03-.007-.093-.048v-.056h.003l.016-.044.001-.021-.008-.012-.012-.03.02-.095.155-.575.016-.056.03-.072.106.022.081.032.062.084.024.02.03.008.02.002.088.045-.004.12-.056.05m-1.054 1.067.118-.014.099-.127-.026-.1-.127-.082-.153-.005-.084.088.014.104.05.052.02.012.05.029.025.043zm.071-1.295-.125-.108-.152.028-.091.133.004.172.119.126.16-.047.086-.161-.001-.143m.297 1.44-.212.08-.084-.024-.041-.085-.02-.034-.034-.018h-.002l-.007.015-.069.065-.064-.007-.01-.001c-.14-.04-.229-.11-.266-.214a.403.403 0 0 1 .007-.27.313.313 0 0 1 .194-.22c.098-.041.227-.041.383 0a.51.51 0 0 1 .316.217.372.372 0 0 1 .042.29l-.133.206m-.122-.984a.787.787 0 0 1-.215.1h-.041l-.031-.022-.02-.02-.028-.021-.044.02-.041.036-.035.038-.04-.001-.026-.003a.443.443 0 0 1-.298-.263.469.469 0 0 1-.029-.32c.049-.161.122-.27.221-.32.096-.051.224-.056.384-.012a.481.481 0 0 1 .317.24c.058.112.07.229.035.354a.45.45 0 0 1-.109.194M253.955 743.857l-.084-.041-.009-.005-.362-.26-.049-.011-.041.02-.26.25-.137.092-.132-.061-.053-.122.088-.094.007-.007.265-.24.026-.033.019-.032.055-.066.13-.035.143.019.057.043.02.025.032.027.382.279.003.002.081.073-.057.128-.124.049m.446.482-.064.02h-.016l-.556.009.005.462-.035.107-.11.025-.152-.03-.001-.088.005-.027.005-.031-.009-.418-.278.007-.057.008-.07.029-.097.035-.101.02-.162-.042c-.02-.023-.03-.084-.031-.176l.073-.088.143-.025 1.424-.024.085.026.027.086-.028.115M256.305 743.014l-.073.056-.06.048-.02.056.15.536.03.129.007.068-.027.028-.065.02-.019.005-.125-.033a.903.903 0 0 1-.08-.217l-.006-.026-.185-.691-.009-.094.083-.072.084-.014.101.04.028.007.026-.011.021-.007.103-.01.057.109-.021.073m.258 1.42-.09.04-1.201.33-.058.019-.109.025-.072-.071-.016-.08.016-.08-.062-.192-.016-.041-.016-.017-.015-.014-.01-.025-.008-.02-.014-.041.012-.04.065-.036.143-.044.089.005.014.054.003.018.007.022.081.29.004.006.013.004 1.076-.294.084-.006.063.083.017.105m-.689-.694-.052.019-.075-.024-.115-.072-.06-.033-.069-.004-.204-.15-.05-.026-.024.024-.105.352-.047.043-.036.058-.072.092-.137-.017-.056-.123.057-.144.033-.063.127-.336.019-.05.009-.05.026-.098.115-.07.105.018.103.07.05.039.462.3.09.077-.038.109-.056.059M258.255 742.86l-.055.062-.139.049-.07-.083-.152-.254-.146.029-.118-.091-.007-.094.125-.091-.055-.088-.152.045-.108-.096-.026-.093.134-.1.006-.004.003-.01.015-.034.068-.053.109-.037.067.053.477.78.024.11m.383.468-.076.06-1.071.647-.052.032-.097.057-.09-.05-.038-.077-.004-.08-.109-.166-.027-.034-.022-.014-.018-.01-.015-.021-.015-.015-.023-.032.001-.041.052-.057.125-.083.089-.02.029.05.007.017.01.016.157.26.005.007.015-.003.963-.576.08-.029.083.065.041.096m-1.486-.742-.165.013-.081.133.033.152.127.122.171-.006.079-.14-.057-.176-.107-.098m.45.183a.63.63 0 0 1-.075.226l-.029.03-.039.006-.027.004-.031.004-.02.048v.053l.005.06-.034.025-.018.013a.45.45 0 0 1-.395.03.484.484 0 0 1-.252-.199c-.083-.147-.106-.274-.078-.38.029-.104.118-.2.258-.286a.48.48 0 0 1 .397-.062.473.473 0 0 1 .275.217l.063.21M259.966 741.259l-.031.056-.012.015-.386.399.334.322.047.101-.058.096-.126.089-.062-.06-.018-.026-.02-.024-.299-.29-.197.202-.031.053-.029.063-.044.097-.055.085-.145.087-.148-.103-.01-.113.083-.123.985-1.024.082-.045.076.041.064.102m-.658-.022-.089.031-.011.001-.436.079-.046.023-.011.042-.006.362-.033.161-.133.052-.127-.051-.007-.13.005-.006.013-.356-.004-.042-.009-.039-.01-.084.069-.116.114-.09.069-.007.031.001.043-.001.466-.076h.004l.11-.008.05.13zM261.528 739.73l-.031.097-.594 1.095-.027.058-.053.097-.106.004-.067-.046-.044-.067-.14-.065-.039-.016h-.046l-.025-.011-.022-.007-.057-.051c0-.04.028-.106.087-.21l.063-.06.053.027.012.012.019.01.224.12.007.004.014-.01.534-.987.051-.065.104.013.083.058m-.543-.227.066.054-.036.085-.069.09-.082-.01-.162-.091-.025-.004-.025.028-.256.473.125.066.081.08-.03.104-.069.088-.065-.02-.032-.017-.133-.073-.095.173-.008.042.002.032.001.024-.008.039-.013.022-.067.069-.147-.05-.047-.104.052-.138.515-.961-.266-.143-.042.072-.081.073-.133-.04-.069-.1.034-.115-.023-.053.045-.116.076-.09.066.016.039.02.877.472zm-1.061.48-.001-.044-.004-.016-.002-.034-.016-.03-.108.009-.093.078-.028.084.028.085.078.016.076-.034.041-.06.048-.023-.019-.03m.23-.274.029.106-.018.139-.095.068-.035.01-.03.005.017.01.04.09-.033.084-.005.009c-.055.096-.127.154-.22.172l-.252-.041-.123-.168c-.018-.09.012-.201.083-.34a.481.481 0 0 1 .274-.251.377.377 0 0 1 .292.023l.076.084M252.089 741.281l-.391-.583-.142.146v.437h-.196v-1.257h.196v.604l.512-.604h.25l-.497.532.509.725M252.491 741.281h.195v-1.256h-.195zM254.059 741.281v-1.098l-.332 1.098h-.198l-.329-1.098v1.098h-.197v-1.257h.335l.301 1.061.302-1.06h.316v1.256M254.735 740.173v.371h.493v.149h-.493v.588h-.196v-1.255h.729v.147M255.931 740.173v1.108h-.198v-1.108h-.385v-.147h.957v.147"/><path fill="#231916" d="M285.623 728.479a2.226 2.226 0 0 1-.499.207 2.673 2.673 0 0 0-.437.175c-.128.082-.193.18-.193.305v3.358c0 .406-.005.674-.012.804-.007.18-.031.308-.075.38a.305.305 0 0 1-.207.12 2.374 2.374 0 0 1-.392.019h-.13c-.355 0-.58-.132-.673-.4-.068-.19-.107-.646-.118-1.367v-.163l.03-4.304c.008-.264.039-.45.099-.566.102-.197.298-.29.597-.284.261 0 .434.019.521.056.108.045.279.175.51.392l.153.075.174-.01.141-.012c.297-.014.492.027.587.119.109.11.164.35.164.719 0 .15-.081.277-.24.377m-5.932.85a1.326 1.326 0 0 0-.977-.402c-.473 0-.821.119-1.045.358-.197.213-.293.509-.293.89 0 .334.155.647.466.936.327.303.693.458 1.099.458.37 0 .652-.16.847-.48.159-.245.249-.556.271-.935 0-.295-.123-.571-.368-.825m5.172 7.79c-.066.065-.262.098-.588.098H276.8l-.37.009c-.334.037-.559.036-.674-.01-.202-.072-.303-.252-.303-.541 0-.204.014-.37.043-.501.036-.143.106-.285.218-.423l-.043-1.206c0-.1-.013-.186-.034-.251l-.077-.14-.053-.108-.022-.151-.021-.133a.866.866 0 0 1-.02-.253l.139-.201c.088-.06.23-.101.435-.134.217-.027.514-.035.892-.02.275 0 .449.057.521.165.034.063.034.18 0 .347l-.022.117v.12l.01 1.816.012.04.075.046h6.704c.255.007.421.039.5.098.116.087.193.282.228.586.022.348-.003.556-.075.63m-3.478-8.378c-.051.125-.171.202-.357.228.087.133.151.282.195.457.043.184.064.392.064.63 0 .53-.032.943-.098 1.24-.093.418-.259.732-.498.93a.675.675 0 0 1-.5.158 2.048 2.048 0 0 1-.642-.166l-.065.023-.01.087c.035.204.021.34-.044.413-.059.073-.182.107-.369.107-1.006 0-1.841-.25-2.501-.75-.608-.47-.908-1.011-.902-1.626 0-.35.013-.61.033-.784.016-.213.049-.385.099-.522-.174-.015-.294-.07-.359-.163-.059-.101-.087-.282-.087-.544 0-.435.05-.71.152-.826.101-.116.326-.17.675-.163h1.561v-.087c0-.21.041-.346.12-.411.117-.108.376-.164.784-.164.404 0 .66.053.758.15.069.077.082.239.047.492l1.238.009h.131c.238.007.393.04.467.098.123.096.186.304.186.63 0 .275-.028.46-.078.554M297.096 730.078h-.215v.164c-.023.166-.071.271-.142.314-.087.06-.288.086-.597.086h-.1c-.255 0-.419-.023-.488-.074-.098-.083-.142-.26-.142-.544l-.031-1.49c0-.122-.029-.197-.088-.229-.044-.027-.141-.032-.294-.019h-4.977c-.136 0-.292.02-.467.063-.158.045-.295.1-.412.164-.11.044-.221.007-.337-.109a1.334 1.334 0 0 1-.273-.435 2.12 2.12 0 0 1-.14-.499c-.015-.167.013-.265.087-.305.18-.102.37-.175.564-.227a2.66 2.66 0 0 1 .705-.089l5.945-.008.098-.01.11-.024a.918.918 0 0 1 .358-.01c.167.044.358.163.576.368.254.233.402.407.445.522.038.073.025.163-.033.272l-.064.164a.698.698 0 0 0-.023.25Zm.033 6-.054.063-.067.057-.019.117v.118l.019.121.024.151c.015.072.022.156.022.252 0 .143-.076.248-.228.313-.146.074-.375.11-.684.11-.299 0-.489-.03-.577-.098-.13-.087-.192-.293-.184-.62l-.012-1.39c-.009-.132-.041-.209-.097-.24-.044-.027-.138-.038-.283-.032l-5.259.032c-.148 0-.298.02-.456.054-.16.04-.302.09-.424.155-.108.042-.223.004-.336-.109a1.31 1.31 0 0 1-.271-.437 1.533 1.533 0 0 1-.143-.5c-.023-.157.003-.254.076-.292.181-.109.368-.188.566-.238.201-.05.432-.082.696-.089l3.237.011a.266.266 0 0 1-.131-.239c0-.064.019-.168.056-.314l.042-.164.02-.162v-.446h-1.943c-.097 0-.213.011-.349.032a8.146 8.146 0 0 0-.402.09c-.255.056-.449.096-.585.118a2.882 2.882 0 0 1-.608.042l-.033-.009a5.41 5.41 0 0 1-.642-.024c-.152-.013-.265-.05-.337-.108-.065-.059-.108-.157-.13-.304a3.983 3.983 0 0 1-.012-.576c0-.217.145-.377.435-.479.225-.078.515-.117.87-.117l8.553-.013c.252 0 .428.06.532.175.085.094.129.25.129.466-.009.332-.065.55-.174.652-.072.06-.203.081-.391.066H294.424v.694a.9.9 0 0 1-.078.403.558.558 0 0 1-.237.217l1.282.012.218-.023.183-.03c.217-.03.38-.036.489-.013.176.03.367.132.577.305.273.23.439.411.49.543.036.086.016.198-.056.337a1.312 1.312 0 0 0-.141.675l.021.583-.043.102M310.221 728.72c-.042.16-.112.264-.207.315l-.021 7.42c.037.45.015.727-.065.827-.058.08-.235.114-.532.108h-.208c-.253 0-.421-.201-.509-.607-.042-.234-.066-.611-.066-1.143 0-.108-.014-.175-.043-.204l-.076-.023-.098-.032c-.036-.06-.053-.183-.053-.37l.011-5.466a.53.53 0 0 0-.098-.303l-.219-.195-.227-.066-.098.109v6.888c0 .502-.052.843-.152 1.033-.103.188-.29.287-.566.293l-.207.012c-.275.014-.452-.012-.531-.076-.125-.11-.189-.378-.195-.805v-.826a.853.853 0 0 0 .087-.313c.005-.073 0-.19-.022-.35a3.333 3.333 0 0 0-.023-.215v-7.043l-.009-.205c0-.321.032-.511.097-.58.072-.077.302-.124.684-.14a1.79 1.79 0 0 1 .61.078c.098.028.223.087.367.173.116.074.207.118.274.142.109.043.234.074.379.084l.132-.064.085-.151.11-.175.217-.087.185-.01c.447-.016.726.026.835.12.146.122.222.446.229.968 0 .397-.026.69-.077.88m-6.444.759c-.172-.361-.437-.542-.791-.542-.32 0-.581.178-.785.533a2.037 2.037 0 0 0-.258 1.02c0 .333.115.654.348.955.23.298.469.447.714.447.3 0 .543-.17.73-.511.158-.283.242-.598.251-.956a2.288 2.288 0 0 0-.209-.946m1.49 2.317a1.99 1.99 0 0 1-.587.834c-.11.102-.211.139-.304.109-.065-.014-.207-.105-.425-.27l-.237-.175a1.346 1.346 0 0 0-.263.249.34.34 0 0 0-.063.282.46.46 0 0 1-.165.34.513.513 0 0 1-.379.173c-.74.013-1.362-.32-1.87-1.001-.456-.615-.677-1.26-.661-1.934 0-.305.013-.552.042-.75.027-.174.076-.326.141-.456-.165-.051-.277-.122-.338-.217-.063-.107-.097-.286-.097-.532 0-.435.066-.75.197-.946.137-.197.358-.293.661-.293h1.044c.044-.191.146-.31.306-.36.108-.035.327-.054.662-.054.325 0 .571.04.737.123a.44.44 0 0 1 .239.29h.709c.339-.005.553.022.639.085.115.096.176.326.176.698 0 .284-.015.465-.045.54-.037.104-.127.165-.27.189.108.18.189.395.248.639.067.307.101.664.101 1.076-.011.575-.075 1.027-.198 1.36M322.999 728.47a2.66 2.66 0 0 1-.522.197 2.62 2.62 0 0 0-.424.129c-.117.064-.171.15-.171.25v.578h.618c.273 0 .456.039.543.118.109.094.173.3.193.62.016.449-.037.74-.15.879-.059.072-.174.106-.348.097h-.119l-.737.012.02.729c-.014.36-.052.586-.11.673-.05.064-.182.096-.392.096h-.183c-.313.006-.516-.032-.609-.12-.057-.05-.087-.156-.087-.313l.012-.023.012-.283-.024-.13-.054-.04-.11-.142c-.037-.116-.053-.317-.053-.598v-3.578l-.011-.345c-.006-.262.018-.415.076-.468.072-.058.282-.074.63-.045.262 0 .437.019.534.055.1.045.265.174.498.392l.162.074.176-.008.131-.012c.304-.015.499.026.586.119.108.103.163.338.163.705 0 .16-.084.287-.25.382m-4.412 7.845c.299-.071.516-.163.663-.272.247-.202.371-.493.371-.88 0-.188-.103-.366-.307-.533-.231-.18-.516-.271-.856-.271-.369 0-.667.064-.893.198-.241.142-.357.359-.357.65 0 .216.082.413.25.587.13.128.25.207.357.228l.13.02c.168.038.28.07.338.1.1.043.175.11.217.207zm2.369.273c-.255.339-.619.607-1.098.802a.546.546 0 0 1-.532-.01c-.159-.086-.285-.236-.381-.446l-.162-.151a1.644 1.644 0 0 0-.228-.042h-.012l-.008.083c-.061.256-.158.424-.295.5-.082.046-.211.066-.391.066h-.054c-.878 0-1.508-.271-1.894-.812-.279-.406-.409-.938-.387-1.587.019-.682.277-1.21.771-1.577.513-.397 1.254-.598 2.228-.598.925 0 1.65.246 2.171.739.449.428.683.967.697 1.62.013.552-.127 1.023-.425 1.413m-4.02-7.88c-.204-.296-.501-.435-.891-.422a1.05 1.05 0 0 0-.837.4 1.392 1.392 0 0 0-.305.893c0 .377.095.712.282 1.01.217.346.514.522.891.522.378 0 .662-.168.86-.501.165-.282.25-.636.25-1.065 0-.326-.085-.603-.25-.836m1.749 2.347c-.166.24-.533.554-1.097.944a.432.432 0 0 1-.241.054.76.76 0 0 1-.216-.084l-.141-.078-.196-.074-.229.173a.663.663 0 0 0-.172.283c-.052.152-.102.249-.154.294-.036.027-.112.046-.226.054l-.154.009c-.883-.02-1.595-.372-2.139-1.055-.457-.57-.681-1.172-.675-1.8.023-1.008.273-1.745.761-2.21.479-.453 1.217-.682 2.217-.682.926 0 1.665.3 2.217.902.506.55.76 1.215.76 1.99-.022.569-.125.997-.315 1.28M332.714 730.664c-.146-.028-.312-.117-.501-.26l-.046-.033-2.161-1.566c-.116-.078-.215-.11-.292-.096a.627.627 0 0 0-.241.12l-1.584 1.478c-.341.326-.62.503-.838.531-.233.038-.496-.08-.793-.359-.297-.267-.397-.517-.293-.749.056-.13.237-.322.543-.577l.031-.01 1.611-1.422.163-.197.118-.194c.117-.198.227-.329.337-.402.175-.116.438-.174.794-.174.39.007.673.046.846.12.11.044.218.131.327.258l.13.152.196.176 2.26 1.705.01.012c.291.182.452.33.489.447.049.174-.068.421-.359.747-.245.248-.495.343-.747.293m2.628 2.956c-.071.071-.199.107-.379.1h-3.436v2.782c.014.295-.07.505-.249.63-.137.092-.354.138-.652.138-.501.017-.805-.046-.912-.184-.065-.087-.065-.262 0-.522l.043-.173.021-.185v-2.512h-1.682c-.095 0-.212.025-.349.068-.088.028-.224.08-.415.151-.26.1-.455.171-.585.21a2.16 2.16 0 0 1-.609.105c-.528-.013-.855-.102-.979-.259-.107-.146-.162-.502-.162-1.078 0-.223.148-.393.446-.507.239-.096.528-.144.869-.144h8.551c.247 0 .42.06.524.175.092.1.14.267.14.498-.009.362-.071.597-.185.707M347.933 728.479c-.093.062-.259.13-.499.207a2.532 2.532 0 0 0-.434.175c-.129.082-.195.18-.195.305v3.358c0 .406-.005.674-.013.804-.007.18-.03.308-.076.38-.042.064-.111.104-.206.12a2.343 2.343 0 0 1-.391.019h-.13c-.357 0-.58-.132-.673-.4-.065-.19-.108-.646-.121-1.367v-.163l.034-4.304c.007-.264.04-.45.098-.566.101-.197.299-.29.597-.284.26 0 .436.019.521.056.11.045.278.175.511.392l.153.075.175-.01.141-.012c.295-.014.49.027.587.119.107.11.161.35.161.719 0 .15-.08.277-.24.377m-.76 8.64c-.064.065-.259.098-.587.098h-7.474l-.37.009c-.333.037-.56.036-.674-.01-.202-.072-.305-.252-.305-.541 0-.204.014-.37.044-.501.036-.143.109-.285.219-.423l-.047-1.206c0-.1-.008-.186-.029-.251l-.078-.14-.054-.108-.021-.151-.022-.133c-.021-.116-.029-.2-.021-.253l.139-.201c.086-.06.233-.101.435-.134.219-.027.515-.035.892-.02.274 0 .447.057.522.165.035.063.035.18 0 .347l-.02.117v.12l.008 1.816.012.04.077.046h6.702c.254.007.42.039.5.098.117.087.193.282.227.586.022.348-.001.556-.075.63m-2.88-5.118a.495.495 0 0 1-.336.034 1.184 1.184 0 0 1-.391-.261 11 11 0 0 1-.566-.596 1.876 1.876 0 0 0-.281-.287.705.705 0 0 0-.403-.138l-.944-1.197c-.102-.13-.178-.205-.227-.227-.067-.03-.133.004-.197.097l-1.162 1.892a.794.794 0 0 0-.338.162 2.436 2.436 0 0 0-.304.282c-.241.239-.428.378-.566.41-.232.069-.486-.032-.76-.3-.225-.232-.268-.5-.13-.803.077-.178.268-.426.565-.752l.272-.305 1.281-1.747c.067-.08.127-.17.186-.273.028-.057.071-.152.129-.281.109-.255.214-.428.315-.525.176-.142.432-.214.772-.214.188 0 .381.089.577.269.123.108.284.303.488.578l.239.293 2.184 2.499c.247.26.381.448.401.567.023.164-.112.358-.401.575-.182.13-.315.214-.403.248M359.149 733.523c-.096.102-.256.15-.48.15-.456 0-.747-.053-.87-.172-.101-.093-.137-.304-.106-.63v-1.792c-.387-.03-.671-.125-.85-.293-.203-.19-.307-.473-.314-.848-.015-.262.067-.432.249-.511.144-.057.453-.082.923-.075l-.008-.621c-.48-.063-.783-.144-.915-.237-.174-.133-.262-.408-.262-.828-.007-.311.04-.494.143-.553.115-.066.449-.1 1-.1l.054-.02.044-.043.185-.12a1.49 1.49 0 0 1 .51-.067c.297 0 .516.052.663.156.151.106.216.265.195.476l.042 5.488c-.021.312-.088.525-.203.64m-4.838-4.826c-.202-.295-.501-.44-.891-.432a1.076 1.076 0 0 0-.826.422 1.394 1.394 0 0 0-.304.893c0 .377.093.71.284 1.009.218.346.511.522.891.522.368 0 .652-.168.846-.501.16-.273.239-.632.239-1.065 0-.331-.079-.615-.239-.848m1.75 2.347c-.159.24-.522.553-1.086.937a.478.478 0 0 1-.239.054.696.696 0 0 1-.219-.09l-.15-.061-.187-.076-.237.184a.553.553 0 0 0-.165.28c-.058.168-.11.269-.16.306-.043.029-.133.045-.262.045h-.109c-.885-.016-1.602-.368-2.152-1.055-.45-.572-.674-1.184-.674-1.824.03-1.002.288-1.73.773-2.187.478-.448 1.216-.673 2.217-.673.933 0 1.677.3 2.228.902.499.547.748 1.2.748 1.977-.021.574-.131.998-.326 1.28m3.608 6.077c-.066.064-.261.098-.586.098h-7.51l-.37.009c-.334.036-.558.035-.673-.01-.202-.073-.304-.253-.304-.542 0-.204.015-.37.044-.501.036-.144.109-.285.217-.423l-.043-1.206a.834.834 0 0 0-.033-.251l-.079-.14-.051-.108-.025-.151-.02-.133c-.021-.115-.026-.198-.021-.252l.141-.202c.088-.06.232-.101.435-.133.216-.028.513-.036.888-.021.279 0 .452.057.525.164.037.064.037.18 0 .348l-.023.117v.12l.012 1.817.011.039.075.046h6.749c.254.007.42.04.5.097.113.087.189.283.228.586.013.35-.014.557-.087.632M370.099 730.664c-.143-.028-.31-.117-.502-.26l-.041-.033-2.162-1.566c-.114-.078-.214-.11-.294-.096a.622.622 0 0 0-.239.12l-1.586 1.478c-.341.326-.618.503-.839.531-.228.038-.493-.08-.791-.359-.299-.267-.396-.517-.293-.749.058-.13.238-.322.544-.577l.031-.01 1.61-1.422.162-.197.119-.194c.117-.198.229-.329.337-.402.173-.116.437-.174.794-.174.39.007.672.046.848.12a.896.896 0 0 1 .325.258l.128.152.199.176 2.258 1.705.012.012c.29.182.452.33.489.447.05.174-.07.421-.361.747-.243.248-.493.343-.748.293m2.631 2.956c-.072.071-.2.107-.382.1h-3.434v2.782c.014.295-.067.505-.25.63-.136.092-.354.138-.651.138-.5.017-.805-.046-.913-.184-.065-.087-.065-.262 0-.522l.043-.173.022-.185v-2.512h-1.685c-.092 0-.208.025-.347.068-.087.028-.224.08-.413.151-.262.1-.456.171-.588.21a2.13 2.13 0 0 1-.606.105c-.529-.013-.855-.102-.979-.259-.111-.146-.162-.502-.162-1.078 0-.223.15-.393.446-.507.238-.096.53-.144.869-.144h8.549c.249 0 .423.06.524.175.095.1.141.267.141.498-.009.362-.069.597-.184.707M378.683 729.352a.624.624 0 0 1 .227-.144l.066-.053.186-.12.096-.162c0-.182-.112-.366-.338-.555-.224-.181-.45-.272-.674-.272a1.47 1.47 0 0 0-.532.097c-.225.09-.341.218-.346.39 0 .162.04.317.12.47.091.183.222.279.39.293.201.007.348.025.435.056a.416.416 0 0 1 .251.173l.119-.173m2.096.435a1.778 1.778 0 0 1-.456.456c-.341.21-.609.303-.806.294-.15-.008-.36-.11-.63-.307l-.15-.151-.108-.153-.013.13c-.043.233-.167.385-.37.457-.115.043-.29.066-.519.066h-.066c-.659-.007-1.177-.227-1.554-.663-.339-.391-.509-.875-.499-1.446.012-.478.191-.858.531-1.141.435-.347 1.116-.521 2.045-.521.908 0 1.62.242 2.129.729.441.425.674.964.694 1.607 0 .204-.074.417-.228.643m3.813 7.333c-.065.065-.259.098-.586.098h-7.51l-.369.009c-.332.032-.557.025-.672-.01-.204-.073-.305-.254-.305-.542 0-.195.015-.36.045-.49.034-.146.109-.282.215-.411l-.042-.936a.803.803 0 0 0-.034-.25l-.076-.14-.054-.111-.02-.153-.024-.14c-.035-.221.008-.372.13-.444.19-.117.634-.162 1.336-.143.27.01.438.064.502.163.035.066.035.182 0 .349l-.022.109v.117l.012 1.534.01.054.076.046h6.747c.252 0 .419.026.5.085.118.087.192.284.229.587.015.34-.015.544-.088.619m-.336-3.533c0 .292-.03.458-.087.499-.057.052-.245.072-.564.056-.362-.006-.591-.045-.686-.11-.079-.057-.133-.21-.164-.467v-1.108l-.043-.14c-.042-.043-.114-.065-.216-.065l-3.238.01v.849c.016.31-.052.528-.197.652-.121.093-.328.14-.617.14-.371-.03-.596-.068-.676-.121-.058-.048-.078-.18-.064-.39l.01-.226v-.914h-1.193a.635.635 0 0 0-.251.065l-.143.099-.142.096a.39.39 0 0 1-.226.056l-.163-.012c-.297-.006-.482-.054-.554-.14-.118-.133-.167-.44-.153-.925 0-.247.145-.426.435-.544.224-.087.508-.13.847-.13l6.574-.01v-1.837h-.51c-.32-.014-.529-.087-.631-.22-.108-.132-.162-.406-.162-.812 0-.298.11-.514.339-.653.172-.101.409-.152.704-.152.013-.122.089-.213.217-.27.16-.081.411-.114.751-.1.362.016.589.067.682.155.068.047.102.185.109.4l.012.25v5.977M277.883 741.506l-1.529 1.887v-1.892h-.369v4.18h.369v-2.132l1.526 2.131h.436l-1.579-2.225 1.579-1.949ZM280.208 745.192c-.103.174-.272.26-.505.26-.245 0-.416-.087-.515-.266-.097-.178-.148-.497-.148-.962 0-.46.051-.782.148-.962.101-.178.272-.27.515-.27.242 0 .413.093.51.276.098.184.147.529.147 1.032 0 .42-.049.716-.152.893m-.505-2.497c-.368 0-.63.116-.788.344-.155.229-.234.625-.234 1.185 0 .552.079.944.239 1.177.158.233.42.35.787.35.366 0 .627-.115.78-.341.156-.227.232-.623.232-1.186 0-.56-.077-.956-.234-1.185-.157-.228-.417-.344-.782-.344M281.996 742.807a.98.98 0 0 0-.32.336l-.036-.415h-.367l.036.235.012.18v2.537h.36v-1.862c0-.257.065-.458.194-.603a.676.676 0 0 1 .529-.218h.073v-.3h-.066a.775.775 0 0 0-.415.11M284.476 743.986h-1.315v-.095c0-.306.056-.532.167-.68.11-.143.279-.218.506-.218.223 0 .385.07.49.207.1.137.152.356.152.66Zm-.636-1.29c-.167 0-.32.027-.456.082a.834.834 0 0 0-.331.233.922.922 0 0 0-.198.399c-.038.158-.057.402-.057.731 0 .62.075 1.042.23 1.27.152.226.425.342.812.342.316 0 .556-.08.721-.239.162-.156.253-.397.268-.716h-.375c0 .218-.053.381-.16.49-.107.11-.266.164-.475.164-.23 0-.396-.072-.503-.222-.107-.148-.158-.382-.158-.7v-.25h1.671v-.462c0-.359-.085-.635-.256-.832-.172-.192-.417-.29-.733-.29M286.665 745.182c-.126.163-.314.243-.558.243a.46.46 0 0 1-.368-.155c-.091-.104-.135-.247-.135-.432 0-.257.087-.435.262-.535.174-.098.504-.151.986-.155l.004.326c0 .31-.063.548-.191.708m.55-.034v-1.606c0-.29-.072-.504-.219-.641-.145-.138-.374-.205-.686-.205-.311 0-.55.063-.709.196-.162.13-.24.322-.24.578l.354-.002c.002-.165.049-.288.136-.371.088-.08.221-.12.398-.12.216 0 .369.045.465.134.094.09.142.24.142.448v.322l-.307.01c-.438.017-.762.1-.971.256-.211.154-.315.386-.315.69 0 .264.069.473.211.627.142.16.33.24.566.24.169 0 .325-.036.47-.107.141-.071.269-.175.38-.316l.035.399h.324a3.763 3.763 0 0 1-.024-.276l-.01-.256M289.297 745.68h.376v-4.179h-.376zM291.529 742.697a.918.918 0 0 0-.439.104.902.902 0 0 0-.325.309l-.031-.343h-.347c.009.104.019.185.023.247l.006.159v2.507h.349v-1.693c0-.32.056-.563.171-.733a.558.558 0 0 1 .492-.256c.174 0 .302.053.381.159.083.105.121.27.121.492v2.03h.348v-2.169c0-.254-.064-.455-.199-.597-.133-.144-.318-.216-.55-.216M294.128 744.148l-.452-.244a.897.897 0 0 1-.301-.226.444.444 0 0 1-.086-.273c0-.132.039-.232.123-.305a.526.526 0 0 1 .351-.107c.173 0 .295.04.371.119.078.077.114.206.114.385v.042h.329v-.053c0-.268-.065-.466-.196-.598-.132-.128-.334-.191-.606-.191-.264 0-.469.063-.613.195-.144.13-.216.313-.216.547 0 .164.039.31.12.429a1 1 0 0 0 .378.322l.481.254a.943.943 0 0 1 .287.226c.058.08.09.167.09.268 0 .172-.051.305-.152.399-.1.099-.239.146-.418.146-.16 0-.28-.051-.365-.154-.086-.102-.126-.25-.126-.445v-.067h-.365v.08c0 .284.071.497.215.64.145.143.359.214.645.214.289 0 .512-.071.666-.211.157-.143.234-.345.234-.607a.801.801 0 0 0-.121-.454 1.025 1.025 0 0 0-.387-.331M295.782 741.975l-.347.172v.62h-.456v.277h.456v1.9c0 .309.038.508.118.599.081.092.232.137.456.137.113 0 .197 0 .247-.004l.129-.011v-.323l-.127.029-.128.009c-.135 0-.226-.03-.276-.086-.048-.056-.072-.184-.072-.383v-1.867h.603v-.277h-.603ZM296.855 741.947h.409v-.446h-.409zM296.872 745.68h.376v-2.913h-.376ZM298.463 741.975l-.347.172v.62h-.454v.277h.454v1.9c0 .309.04.508.12.599.081.092.231.137.454.137.116 0 .198 0 .248-.004l.127-.011v-.323l-.126.029-.127.009c-.134 0-.226-.03-.274-.086-.05-.056-.075-.184-.075-.383v-1.867h.602v-.277h-.602ZM301.414 745.276v-2.51h-.349v1.696c0 .319-.055.563-.171.73a.562.562 0 0 1-.493.252c-.174 0-.301-.052-.382-.157-.081-.105-.121-.267-.121-.487v-2.033h-.347v2.17c0 .255.065.455.199.599.134.144.316.217.553.217a.936.936 0 0 0 .436-.104.914.914 0 0 0 .326-.312l.026.343h.349l-.019-.256-.007-.148M302.629 741.975l-.35.172v.62h-.454v.277h.454v1.9c0 .309.041.508.121.599.081.092.232.137.454.137.117 0 .198 0 .247-.004l.129-.011v-.323l-.127.029-.127.009c-.133 0-.225-.03-.274-.086-.052-.056-.073-.184-.073-.383v-1.867h.601v-.277h-.601ZM305.324 743.986h-1.314v-.095c0-.306.053-.532.163-.68.111-.143.28-.218.509-.218.222 0 .385.07.487.207.102.137.155.356.155.66Zm-.636-1.29c-.169 0-.32.027-.456.082a.834.834 0 0 0-.333.233.957.957 0 0 0-.198.399c-.038.158-.058.402-.058.731 0 .62.078 1.042.231 1.27.154.226.424.342.814.342.317 0 .555-.08.717-.239.164-.156.254-.397.272-.716h-.376c0 .218-.054.381-.161.49-.106.11-.265.164-.477.164-.227 0-.394-.072-.501-.222-.106-.148-.16-.382-.16-.7v-.25h1.675v-.462c0-.359-.088-.635-.258-.832-.171-.192-.414-.29-.731-.29M309.06 745.192c-.102.174-.271.26-.506.26-.243 0-.414-.087-.514-.266-.098-.178-.148-.497-.148-.962 0-.46.051-.782.151-.962.098-.178.269-.27.511-.27.243 0 .414.093.511.276.099.184.147.529.147 1.032 0 .42-.049.716-.152.893m-.506-2.497c-.368 0-.629.116-.787.344-.155.229-.233.625-.233 1.185 0 .552.078.944.237 1.177.157.233.421.35.788.35.365 0 .625-.115.781-.341.153-.227.231-.623.231-1.186 0-.56-.078-.956-.234-1.185-.158-.228-.418-.344-.783-.344M310.66 742.31c0-.25.034-.41.102-.473.064-.066.197-.097.396-.097h.081v-.302c-.198 0-.354.012-.466.032a.698.698 0 0 0-.273.112l-.15.198a1.164 1.164 0 0 0-.043.37v.617h-.469v.294h.469v2.619h.353v-2.62h.586v-.293h-.586ZM315.007 744.502a3.7 3.7 0 0 0-.064.231c-.029.115-.082.326-.156.633a18.197 18.197 0 0 0-.122-.502 5.002 5.002 0 0 0-.104-.362l-1.001-3h-.608v4.178h.348v-3.14c0-.08-.003-.183-.007-.307-.005-.125-.014-.294-.021-.509l1.293 3.956h.42l1.298-3.938c-.009.186-.015.353-.019.502-.004.15-.007.246-.007.296v3.14h.359v-4.179h-.608ZM318.558 745.182c-.126.163-.312.243-.558.243a.456.456 0 0 1-.367-.155c-.091-.104-.136-.247-.136-.432 0-.257.088-.435.262-.535.174-.098.503-.151.987-.155l.004.326c0 .31-.064.548-.192.708m.551-.034v-1.606c0-.29-.073-.504-.22-.641-.144-.138-.374-.205-.685-.205-.312 0-.549.063-.71.196-.16.13-.24.322-.24.578l.354-.002c.004-.165.049-.288.138-.371.085-.08.22-.12.396-.12.216 0 .369.045.466.134.095.09.142.24.142.448v.322l-.308.01c-.437.017-.762.1-.971.256-.211.154-.317.386-.317.69 0 .264.072.473.213.627a.72.72 0 0 0 .566.24 1.046 1.046 0 0 0 .851-.423l.034.399h.324c-.01-.093-.02-.185-.024-.276l-.009-.256M320.475 742.807a.96.96 0 0 0-.319.336l-.038-.415h-.365l.037.235.013.18v2.537h.357v-1.862c0-.257.064-.458.193-.603a.68.68 0 0 1 .53-.218h.074v-.3h-.066a.779.779 0 0 0-.416.11M321.337 741.947h.41v-.446h-.41zM321.354 745.68h.375v-2.913h-.375zM322.945 741.975l-.348.172v.62h-.454v.277h.454v1.9c0 .309.042.508.12.599.081.092.233.137.456.137.114 0 .197 0 .246-.004l.129-.011v-.323l-.126.029-.128.009c-.134 0-.225-.03-.276-.086-.049-.056-.073-.184-.073-.383v-1.867h.603v-.277h-.603ZM324.02 741.947h.409v-.446h-.409zM324.036 745.68h.376v-2.913h-.376ZM327.715 742.695a.885.885 0 0 0-.472.127.885.885 0 0 0-.329.361.734.734 0 0 0-.27-.364.774.774 0 0 0-.449-.124.891.891 0 0 0-.436.107.868.868 0 0 0-.326.307l-.031-.343h-.345c.01.104.015.185.02.247l.007.16v2.506h.349v-1.693c0-.32.055-.563.171-.733a.562.562 0 0 1 .495-.256c.17 0 .296.053.376.157.08.106.119.273.119.494v2.031h.359v-1.693c0-.32.058-.563.172-.733a.56.56 0 0 1 .496-.256c.171 0 .297.053.375.157.082.106.122.273.122.494v2.031h.354v-2.169c0-.25-.069-.453-.204-.596-.134-.147-.321-.219-.553-.219M330.743 743.986h-1.315v-.095c0-.306.054-.532.165-.68.111-.143.279-.218.507-.218.224 0 .386.07.487.207.105.137.156.356.156.66Zm-.637-1.29c-.167 0-.319.027-.455.082a.84.84 0 0 0-.333.233.92.92 0 0 0-.197.399c-.039.158-.058.402-.058.731 0 .62.076 1.042.231 1.27.154.226.423.342.812.342.317 0 .557-.08.719-.239.164-.156.253-.397.27-.716h-.375c0 .218-.053.381-.161.49-.105.11-.264.164-.476.164-.226 0-.396-.072-.501-.222-.108-.148-.16-.382-.16-.7v-.25h1.673v-.462c0-.359-.084-.635-.256-.832-.171-.192-.416-.29-.733-.29M334.262 745.182c-.126.163-.314.243-.559.243a.455.455 0 0 1-.367-.155c-.09-.104-.133-.247-.133-.432 0-.257.084-.435.26-.535.174-.098.504-.151.986-.155l.004.326c0 .31-.063.548-.191.708m.55-.034v-1.606c0-.29-.073-.504-.219-.641-.146-.138-.374-.205-.686-.205-.312 0-.55.063-.71.196-.16.13-.239.322-.239.578l.355-.002c.001-.165.048-.288.135-.371.089-.08.221-.12.397-.12.216 0 .37.045.466.134.095.09.142.24.142.448v.322l-.308.01c-.436.017-.76.1-.97.256-.211.154-.315.386-.315.69 0 .264.069.473.211.627.142.16.33.24.566.24a1.048 1.048 0 0 0 .85-.423l.035.399h.323c-.01-.093-.02-.185-.023-.276l-.01-.256M336.611 742.697a.906.906 0 0 0-.436.104.877.877 0 0 0-.327.309l-.031-.343h-.346l.022.247.006.159v2.507h.349v-1.693c0-.32.055-.563.17-.733a.566.566 0 0 1 .494-.256c.173 0 .301.053.382.159.08.105.122.27.122.492v2.03h.346v-2.169c0-.254-.066-.455-.199-.597-.135-.144-.318-.216-.552-.216M339.426 745.168a.54.54 0 0 1-.501.28c-.218 0-.376-.088-.475-.265-.095-.174-.143-.465-.143-.872 0-.507.048-.85.141-1.032.094-.18.259-.268.494-.268.23 0 .396.097.496.296.099.197.148.53.148 1 0 .388-.054.676-.16.861m.515-.008v-3.659h-.336v1.612a.97.97 0 0 0-.32-.3.79.79 0 0 0-.398-.1c-.33 0-.569.116-.715.352-.146.234-.219.623-.219 1.163s.075.925.222 1.164c.147.24.382.36.712.36a.8.8 0 0 0 .408-.1.912.912 0 0 0 .31-.31l.022.338h.336l-.019-.198a12.633 12.633 0 0 1-.003-.322M342.004 745.68h.376v-2.002h1.28v-.308h-1.28v-1.544h1.374v-.325h-1.75ZM344.195 741.947h.408v-.446h-.408zM344.212 745.68h.377v-2.913h-.377ZM346.443 744.148l-.452-.244a.913.913 0 0 1-.302-.226.439.439 0 0 1-.087-.273c0-.132.042-.232.127-.305.081-.071.198-.107.35-.107.171 0 .294.04.371.119.076.077.114.206.114.385v.042h.329v-.053c0-.268-.066-.466-.197-.598-.132-.128-.333-.191-.606-.191-.265 0-.468.063-.613.195-.144.13-.217.313-.217.547 0 .164.04.31.119.429.081.12.206.229.379.322l.482.254a.937.937 0 0 1 .286.226c.059.08.089.167.089.268a.528.528 0 0 1-.149.399c-.1.099-.241.146-.418.146-.159 0-.281-.051-.365-.154-.084-.102-.127-.25-.127-.445v-.067h-.365v.08c0 .284.072.497.217.64.143.143.359.214.644.214.289 0 .511-.071.667-.211.155-.143.233-.345.233-.607a.802.802 0 0 0-.122-.454 1.033 1.033 0 0 0-.387-.331M348.666 742.697a.91.91 0 0 0-.437.104.894.894 0 0 0-.328.309v-1.608h-.346v4.178h.346v-1.693c0-.32.058-.563.171-.733a.564.564 0 0 1 .493-.256c.171 0 .298.053.378.158.081.105.12.27.12.493v2.03h.353v-2.169c0-.254-.065-.455-.198-.597-.135-.144-.32-.216-.552-.216M351.687 743.986h-1.315v-.095c0-.306.054-.532.166-.68.11-.143.279-.218.506-.218.223 0 .385.07.49.207.101.137.153.356.153.66Zm-.635-1.29c-.171 0-.322.027-.457.082a.84.84 0 0 0-.333.233.945.945 0 0 0-.198.399c-.038.158-.058.402-.058.731 0 .62.078 1.042.232 1.27.153.226.424.342.814.342.314 0 .555-.08.718-.239.164-.156.253-.397.269-.716h-.374c0 .218-.053.381-.161.49-.106.11-.264.164-.477.164-.227 0-.396-.072-.502-.222-.106-.148-.158-.382-.158-.7v-.25h1.672v-.462c0-.359-.084-.635-.256-.832-.171-.192-.417-.29-.731-.29M353.321 742.807a.942.942 0 0 0-.319.336l-.038-.415h-.365l.037.235.012.18v2.537h.357v-1.862c0-.257.067-.458.193-.603a.685.685 0 0 1 .534-.218h.072v-.3h-.069a.774.774 0 0 0-.414.11M354.184 741.947h.408v-.446h-.408ZM354.199 745.68h.375v-2.913h-.375zM356.85 743.986h-1.312v-.095c0-.306.053-.532.165-.68.108-.143.28-.218.507-.218.222 0 .384.07.489.207.101.137.151.356.151.66Zm-.635-1.29c-.169 0-.321.027-.456.082a.851.851 0 0 0-.334.233.928.928 0 0 0-.194.399c-.041.158-.06.402-.06.731 0 .62.077 1.042.232 1.27.152.226.424.342.812.342.317 0 .557-.08.72-.239.162-.156.253-.397.268-.716h-.375c0 .218-.052.381-.161.49-.105.11-.263.164-.474.164-.229 0-.397-.072-.503-.222-.105-.148-.159-.382-.159-.7v-.25h1.672v-.462c0-.359-.085-.635-.255-.832-.171-.192-.416-.29-.733-.29M358.989 744.148l-.452-.244a.908.908 0 0 1-.303-.226.444.444 0 0 1-.086-.273c0-.132.043-.232.124-.305a.525.525 0 0 1 .352-.107c.172 0 .296.04.373.119.074.077.113.206.113.385v.042h.328v-.053c0-.268-.064-.466-.195-.598-.133-.128-.334-.191-.609-.191-.264 0-.466.063-.612.195-.142.13-.216.313-.216.547 0 .164.041.31.119.429.08.12.206.229.379.322l.482.254a.92.92 0 0 1 .285.226c.061.08.09.167.09.268a.525.525 0 0 1-.15.399c-.099.099-.24.146-.419.146-.159 0-.279-.051-.364-.154-.085-.102-.128-.25-.128-.445v-.067h-.365v.08c0 .284.073.497.218.64.143.143.36.214.645.214.287 0 .509-.071.666-.211.155-.143.233-.345.233-.607a.817.817 0 0 0-.121-.454 1.041 1.041 0 0 0-.387-.331M361.123 741.826h1.014v3.854h.359v-3.854h1.017v-.325h-2.39ZM365.487 743.986h-1.314v-.095c0-.306.054-.532.167-.68.108-.143.279-.218.506-.218.222 0 .386.07.488.207.103.137.153.356.153.66Zm-.636-1.29a1.22 1.22 0 0 0-.454.082.837.837 0 0 0-.334.233.93.93 0 0 0-.196.399c-.04.158-.06.402-.06.731 0 .62.078 1.042.233 1.27.154.226.425.342.811.342.319 0 .559-.08.72-.239.161-.156.253-.397.27-.716h-.375c0 .218-.055.381-.162.49-.106.11-.263.164-.475.164-.228 0-.396-.072-.501-.222-.107-.148-.159-.382-.159-.7v-.25h1.672v-.462c0-.359-.086-.635-.257-.832-.173-.192-.414-.29-.733-.29M367.356 742.966c.177 0 .315.054.412.162.099.107.151.261.162.467l.348.003c-.017-.3-.104-.528-.267-.677-.161-.152-.394-.225-.706-.225-.337 0-.579.119-.727.359-.15.242-.222.64-.222 1.198 0 .542.076.928.227 1.161.152.235.401.35.752.35.295 0 .526-.084.686-.244.161-.16.245-.398.257-.703h-.334c-.008.215-.063.377-.158.481-.099.107-.245.16-.442.16-.228 0-.39-.085-.481-.258-.092-.173-.136-.502-.136-.987 0-.48.046-.808.139-.983.094-.177.257-.264.49-.264M369.98 742.697a.921.921 0 0 0-.439.104.905.905 0 0 0-.326.309v-1.608h-.346v4.178h.346v-1.693c0-.32.059-.563.172-.733a.56.56 0 0 1 .494-.256c.173 0 .297.053.377.158.079.105.119.27.119.493v2.03h.355v-2.168c0-.254-.066-.455-.2-.597-.135-.145-.32-.217-.552-.217M372.509 742.697a.906.906 0 0 0-.436.104.892.892 0 0 0-.327.309l-.032-.343h-.343l.021.247.006.159v2.507h.348v-1.693c0-.32.055-.563.171-.733a.563.563 0 0 1 .494-.256c.172 0 .3.053.383.159.078.105.12.27.12.492v2.03h.347v-2.169c0-.254-.067-.455-.199-.597-.135-.144-.32-.216-.553-.216M375.378 745.192c-.102.174-.27.26-.506.26-.243 0-.414-.087-.514-.266-.098-.178-.146-.497-.146-.962 0-.46.048-.782.149-.962.1-.178.27-.27.511-.27.244 0 .415.093.512.276.098.184.148.529.148 1.032 0 .42-.051.716-.154.893m-.506-2.497c-.367 0-.629.116-.786.344-.156.229-.233.625-.233 1.185 0 .552.077.944.238 1.177.157.233.42.35.787.35.366 0 .624-.115.782-.341.153-.227.229-.623.229-1.186 0-.56-.076-.956-.234-1.185-.157-.228-.416-.344-.783-.344M376.492 745.68h.359v-4.179h-.359zM378.986 745.192c-.1.174-.27.26-.507.26-.24 0-.412-.087-.513-.266-.098-.178-.147-.497-.147-.962 0-.46.049-.782.15-.962.101-.178.271-.27.51-.27.245 0 .414.093.514.276.097.184.146.529.146 1.032 0 .42-.051.716-.153.893m-.507-2.497c-.366 0-.629.116-.784.344-.156.229-.236.625-.236 1.185 0 .552.08.944.238 1.177.157.233.421.35.79.35.365 0 .624-.115.778-.341.156-.227.234-.623.234-1.186 0-.56-.078-.956-.237-1.185-.154-.228-.418-.344-.783-.344M381.496 745.052c-.103.183-.271.274-.505.274-.227 0-.387-.089-.478-.261-.096-.176-.141-.485-.141-.929 0-.423.048-.716.145-.887.098-.169.259-.256.492-.256a.52.52 0 0 1 .486.279c.105.186.157.475.157.864 0 .428-.051.732-.156.916m.171-1.955a.897.897 0 0 0-.31-.304.836.836 0 0 0-.407-.096c-.32 0-.559.116-.708.34-.148.231-.224.592-.224 1.089 0 .526.074.903.22 1.136.148.233.385.348.712.348a.858.858 0 0 0 .416-.096.737.737 0 0 0 .281-.293v.504c0 .277-.049.474-.145.594-.096.118-.253.174-.475.174-.193 0-.333-.042-.419-.134-.088-.092-.132-.238-.132-.434h-.38c.009.283.089.496.239.642.152.144.372.216.66.216.191 0 .359-.031.507-.089a.803.803 0 0 0 .346-.253.765.765 0 0 0 .122-.279 3.14 3.14 0 0 0 .035-.564v-2.355c0-.145.002-.252.006-.324l.016-.198h-.336ZM384.184 742.768l-.664 2.427-.746-2.427h-.358l.923 2.88-.341 1.136h.352l1.182-4.016Z"/></g></svg>