<svg xmlns="http://www.w3.org/2000/svg" width="1164.7677mm" height="200mm" viewBox="0 0 1164.7677 200"><path d="M-184.922 125.372c.952-2.435 1.768-3.933 2.915-6.82l3.157-7.076h2.995l-5.485 11.292 6.55 15.286h-3.123l-5.046-12.75-1.99 3.893v8.857h-2.833v-26.578h2.833v7.083c0 2.853-.013 4.425-.08 6.813zM-169.941 124.772c0 10.139 2.516 13.822 6.496 13.822 3.98 0 6.51-3.683 6.51-13.822 0-10.16-2.53-13.822-6.51-13.822s-6.496 3.663-6.496 13.795zm6.496-11.819c2.003 0 3.69 2.746 3.69 11.832 0 9.046-1.687 11.798-3.69 11.798-1.99 0-3.663-2.752-3.663-11.798 0-9.086 1.673-11.832 3.636-11.832zM-143.578 125.997c2.24-.479 4.48-2.09 4.48-7.008 0-5.856-3.11-7.515-7.104-7.515h-4.411v26.578h2.792v-11.61h1.781l5.06 11.61h3.183zm-4.243-1.558v-10.928h1.727c2.962 0 4.135 1.68 4.135 5.505 0 3.872-1.477 5.423-3.872 5.423zM-125.053 123.132v2.037h-4.877v10.847h6.287v2.037h-9.08v-26.578h8.884v2.037h-6.091v9.62zM-109.388 120.652c-.458-2.32-.91-4.533-1.329-7.157h-.176c-.404 2.61-.856 4.917-1.288 7.198l-1.41 7.062h5.572zm-4.627 9.188-1.646 8.216h-3.002l5.956-26.578h3.818l5.984 26.578h-3.056l-1.646-8.216zM-70.218 138.053h-2.793v-12.837h-6.287v12.837h-2.792v-26.578h2.792v11.697h6.287v-11.697h2.793zM-55.79 123.132v2.037h-4.878v10.847h6.314v2.037h-9.107v-26.578h8.884v2.037h-6.091v9.62zM-38.307 129.838l1.632 8.217h3.029l-5.963-26.578h-3.825l-5.97 26.578h3.036l1.646-8.217zm-.418-2.084h-5.58l1.384-7.056c.452-2.287.883-4.594 1.295-7.205h.181c.425 2.625.857 4.837 1.316 7.158zM-18.623 138.053h-9.33v-26.578h2.82v24.534h6.51zM-1.944 113.517H-6.49v24.534h-2.82v-24.534h-4.56v-2.044h11.926zM15.698 138.053h-2.792v-12.837H6.619v12.837h-2.78v-26.578h2.78v11.697h6.287v-11.697h2.792zM40.718 138.053v-11.198h1.633c4.688 0 7.38-1.996 7.38-7.777 0-5.04-2.112-7.603-7.104-7.603H37.9v26.578zm0-13.242V113.52h1.977c2.82 0 4.148 1.626 4.148 5.559 0 4.384-1.538 5.733-4.452 5.733zM63.419 123.132v2.037h-4.877v10.847h6.3v2.037H55.75v-26.578h8.884v2.037h-6.091v9.62zM78.188 125.997c2.267-.479 4.493-2.09 4.493-7.008 0-5.856-3.124-7.515-7.077-7.515h-4.452v26.578h2.807v-11.61h1.767l5.073 11.61h3.17zm-4.23-1.558v-10.928H75.7c2.948 0 4.122 1.68 4.122 5.505 0 3.872-1.478 5.423-3.886 5.423zM97.148 116.074c-.21-1.113-.776-3.11-2.672-3.11-.991 0-1.807.654-2.266 1.423-.439.641-.62 1.579-.62 2.57 0 1.363.39 2.598 1.092 3.461.708.89 1.464 1.72 3.11 3.15 1.646 1.62 2.543 2.435 3.184 3.285.701 1.1 1.349 2.557 1.349 4.567 0 1.572-.385 3.178-1.336 4.432-.843 1.16-2.199 2.739-4.782 2.739-3.886 0-5.438-2.314-5.795-5.289l2.691-.122c.297 1.437 1.012 3.393 3.07 3.393 1.302 0 2.104-.965 2.604-1.821.465-.817.674-1.95.674-3.016a5.991 5.991 0 0 0-.991-3.38c-.513-.7-1.14-1.321-2.975-3.028-1.808-1.62-2.672-2.563-3.36-3.609-.735-1.106-1.329-2.617-1.329-4.574 0-1.551.365-2.968 1.289-4.027.938-1.261 2.307-2.165 4.425-2.165 3.48 0 4.985 2.422 5.262 5.039zM105.817 124.772c0 10.139 2.53 13.822 6.51 13.822s6.509-3.683 6.509-13.822c0-10.16-2.53-13.822-6.51-13.822s-6.51 3.663-6.51 13.795zm6.51-11.819c2.003 0 3.662 2.746 3.662 11.832 0 9.046-1.66 11.798-3.663 11.798s-3.676-2.752-3.676-11.798c0-9.086 1.673-11.832 3.636-11.832zM135.276 134.442c-.195-3.98-.263-11.906-.263-22.969h2.53v26.578h-3.555c-3.312-11.319-5.525-19.09-6.381-22.969h-.115c.141 3.913.195 11.771.195 22.97h-2.556v-26.579h3.622c3.258 11.063 5.485 19.01 6.402 22.97zM154.658 134.442c-.223-3.98-.29-11.906-.29-22.969h2.556v26.578h-3.555c-3.312-11.319-5.525-19.09-6.381-22.969h-.128c.141 3.913.209 11.771.209 22.97h-2.557v-26.579h3.609c3.272 11.063 5.484 19.01 6.415 22.97zM171.443 123.132v2.037h-4.89v10.847h6.3v2.037h-9.08v-26.578h8.884v2.037h-6.105v9.62zM188.558 136.011h-6.51v-24.534h-2.82v26.578h9.33zM219.137 138.053h-9.356v-26.578h2.833v24.534h6.523zM225.082 111.476h2.792v26.578h-2.792zM245.422 131.02c-.317 4.372-2.408 7.576-5.2 7.576-1.836 0-3.354-.924-4.352-3.096-1.052-2.105-1.7-5.491-1.7-10.847 0-4.54.513-8.115 1.7-10.483 1.012-2.078 2.388-3.218 4.371-3.218 2.53 0 4.628 1.99 4.904 7.063l-2.624.094c-.236-3.447-.89-5.167-2.313-5.167-1.613 0-3.218 2.3-3.218 11.852 0 9.835 1.565 11.798 3.19 11.798 1.687 0 2.409-2.826 2.57-5.68zM259.098 123.132v2.037h-4.864v10.847h6.287v2.037h-9.093v-26.578h8.87v2.037h-6.064v9.62zM276.95 134.442c-.222-3.98-.263-11.906-.263-22.969h2.53v26.578h-3.555c-3.312-11.319-5.511-19.09-6.382-22.969h-.114c.141 3.913.209 11.771.209 22.97h-2.57v-26.579h3.622c3.258 11.063 5.484 19.01 6.402 22.97zM294.184 116.074c-.223-1.113-.776-3.11-2.699-3.11-.964 0-1.78.654-2.253 1.423-.438.641-.607 1.579-.607 2.57 0 1.363.378 2.598 1.093 3.461.695.89 1.45 1.72 3.096 3.15 1.646 1.62 2.543 2.435 3.177 3.285.722 1.1 1.37 2.557 1.37 4.567 0 1.572-.398 3.178-1.336 4.432-.857 1.16-2.199 2.739-4.803 2.739-3.865 0-5.444-2.314-5.788-5.289l2.705-.122c.277 1.437.999 3.393 3.043 3.393 1.329 0 2.104-.965 2.617-1.821.466-.817.661-1.95.661-3.016 0-1.443-.411-2.496-.965-3.38-.526-.7-1.153-1.321-2.988-3.028-1.801-1.62-2.671-2.563-3.36-3.609-.735-1.106-1.315-2.617-1.315-4.574 0-1.551.365-2.968 1.275-4.027.951-1.261 2.307-2.165 4.425-2.165 3.468 0 4.986 2.422 5.276 5.039zM303.548 111.476h2.806v26.578h-2.806zM323.498 134.442c-.209-3.98-.263-11.906-.263-22.969h2.53v26.578h-3.555c-3.299-11.319-5.525-19.09-6.381-22.969h-.129c.142 3.913.21 11.771.21 22.97h-2.544v-26.579h3.596c3.285 11.063 5.498 19.01 6.415 22.97zM344.803 135.892c-1.106 1.295-3.043 2.698-5.626 2.698-4.837 0-6.995-4.391-6.995-13.923 0-10.51 2.934-13.714 6.94-13.714 3.165 0 4.905 2.408 5.64 6.577l-2.765.23c-.54-3.461-1.275-4.797-2.86-4.797-2.065 0-4.082 3.333-4.082 11.792 0 8.176 1.565 11.818 4.216 11.818 1.18 0 2.226-.54 2.867-1.126v-7.738h-2.779v-2.044h5.444zM374.25 123.132v2.037h-4.864v10.847h6.287v2.037h-9.08v-26.578h8.87v2.037h-6.077v9.62zM392.18 111.476h3.07l-5.43 12.931 5.693 13.647h-3.11l-4.108-11.34h-.094l-4.095 11.34h-3.123l5.707-13.647-5.444-12.931h3.07l3.898 11.03h.081zM411.087 129.838l1.632 8.217h3.043l-5.95-26.578h-3.852l-5.97 26.578h3.05l1.632-8.217zm-.411-2.084h-5.572l1.396-7.056c.438-2.287.87-4.594 1.295-7.205h.169c.425 2.625.87 4.837 1.315 7.158zM430.363 134.888c.722-4.418 2.28-11.845 4.783-23.414h4.121v26.578h-2.543c0-11.832.014-19.873.149-24.102h-.081c-.776 4.195-2.422 12.047-5.073 24.102h-2.86c-2.503-11.852-4.216-19.873-5.02-24.102h-.1c.168 4.236.182 12.256.182 24.102h-2.53v-26.578h4.122c2.462 11.683 4.047 19.023 4.756 23.414zM446.267 111.476h2.807v26.578h-2.807zM466.2 134.442c-.183-3.98-.25-11.906-.25-22.969h2.557v26.578h-3.569c-3.312-11.319-5.538-19.09-6.408-22.969h-.101c.141 3.913.182 11.771.182 22.97h-2.544v-26.579h3.623c3.258 11.063 5.484 19.01 6.402 22.97zM485.185 129.838l1.632 8.217h3.03l-5.95-26.578h-3.825l-5.957 26.578h3.022l1.633-8.217zm-.418-2.084H479.2l1.383-7.056c.452-2.287.87-4.594 1.295-7.205h.183c.425 2.625.87 4.837 1.315 7.158zM506.279 113.517h-4.533v24.534h-2.82v-24.534h-4.56v-2.044h11.913zM512.18 111.476h2.806v26.578h-2.806zM521.351 124.772c0 10.139 2.53 13.822 6.51 13.822s6.496-3.683 6.496-13.822c0-10.16-2.516-13.822-6.496-13.822-3.98 0-6.51 3.663-6.51 13.795zm6.51-11.819c1.99 0 3.663 2.746 3.663 11.832 0 9.046-1.673 11.798-3.663 11.798-1.99 0-3.676-2.752-3.676-11.798 0-9.086 1.686-11.832 3.635-11.832zM550.798 134.442c-.21-3.98-.263-11.906-.263-22.969h2.556v26.578h-3.568c-3.299-11.319-5.538-19.09-6.382-22.969h-.128c.142 3.913.196 11.771.196 22.97h-2.543v-26.579h3.622c3.258 11.063 5.47 19.01 6.388 22.97zM575.367 111.476h2.806v26.578h-2.806zM595.317 134.442c-.196-3.98-.263-11.906-.263-22.969h2.556v26.578h-3.568c-3.299-11.319-5.525-19.09-6.395-22.969h-.115c.142 3.913.21 11.771.21 22.97h-2.557v-26.579h3.622c3.272 11.063 5.484 19.01 6.402 22.97zM612.55 116.074c-.222-1.113-.776-3.11-2.698-3.11-.951 0-1.754.654-2.24 1.423-.438.641-.634 1.579-.634 2.57 0 1.363.378 2.598 1.134 3.461.694.89 1.45 1.72 3.096 3.15 1.66 1.62 2.53 2.435 3.17 3.285.702 1.1 1.35 2.557 1.35 4.567 0 1.572-.371 3.178-1.296 4.432-.883 1.16-2.253 2.739-4.823 2.739-3.872 0-5.45-2.314-5.808-5.289l2.712-.122c.303 1.437.978 3.393 3.063 3.393 1.315 0 2.118-.965 2.59-1.821.465-.817.701-1.95.701-3.016 0-1.443-.452-2.496-.991-3.38-.54-.7-1.18-1.321-2.989-3.028-1.807-1.62-2.67-2.563-3.359-3.609-.722-1.106-1.329-2.617-1.329-4.574 0-1.551.364-2.968 1.275-4.027.978-1.261 2.307-2.165 4.439-2.165 3.467 0 4.998 2.422 5.262 5.039zM632.695 113.517h-4.56v24.534h-2.82v-24.534h-4.567v-2.044h11.947zM638.581 111.476h2.793v26.578h-2.793zM659.204 111.476h-11.94v2.044h4.56v24.534h2.82V113.52h4.56zM676.871 130.715c0 5.032-1.261 7.879-6.024 7.879-4.593 0-5.922-2.732-5.922-7.913v-19.205h2.792v19.158c0 3.454.486 5.943 3.144 5.943 2.732 0 3.218-2.415 3.218-5.943v-19.158h2.792zM694.513 111.476h-11.926v2.044h4.547v24.534h2.82V113.52h4.56zM707.912 123.132v2.037h-4.877v10.847h6.3v2.037h-9.092v-26.578h8.884v2.037h-6.092v9.62zM-136.16 49.76v8.377c0 4.985-.702 12.176-1.275 15.887l-5.842.937c-.33-2.718-.668-10.064-.668-14.038V24.166c0-3.386-2.968-5.33-10.145-7.117l1.275-3.035c5.47.668 13.437 2.206 17.58 2.961-.44 2.03-.925 6.26-.925 7.36v20.864c4.648-.33 11.32-1.08 16.143-1.936l-.77 6.496c-3.885-.08-10.725 0-15.373 0m-45.311 1.788c0 5.235 3.966 9.552 9.04 9.552 4.917 0 9.052-4.142 9.052-9.552 0-4.91-3.886-9.397-9.053-9.397-5.073 0-9.04 3.913-9.04 9.397m51.558 32.697-1.079 6.428c-13.613-.337-28.5.088-38.315.675-3.798.27-5.404-1.855-5.404-4.304v-8.54c0-4.823-.512-5.498-7.19-7.184l1.45-3.036c3.11.418 10.644 1.343 14.03 1.855-.189 1.356-.512 4.473-.512 6.429v7.865c0 2.017.418 2.267 2.854 2.355 8.304.168 24.702-1.1 34.167-2.544m-30.33-64.394-1.368 5.234c-3.636-.074-9.215.169-12.176.169-1.532 0-6.153.337-9.04.762l-3.386-6.247c2.637.594 8.54 1.343 11.333 1.343 2.698 0 9.633-.58 14.638-1.262m5.06 32.036c0 7.34-7.529 13.437-17.33 13.437-9.64 0-17.256-6.26-17.256-13.437 0-7.873 7.703-13.438 17.255-13.438 10.24 0 17.33 6.328 17.33 13.438m6.847-23.502-1.025 6.091c-7.434-.088-26.875.425-33.796.762-2.726.163-9.14.749-11.832 1.174l-3.137-6.76c2.955.594 9.383 1.269 12.338 1.269 7.454-.08 26.652-.587 37.452-2.537M-63.142 45.787c1.686-6.914 3.056-15.38 3.217-21.883-8.21 0-18.78.163-25.539.668-3.197.27-9.97.681-14.355 1.62l-3.656-6.76c4.31.492 10.503 1.012 13.943 1.012 11.67 0 27.402-.594 37.21-2.2l2.185 2.119c-1.423 7.596-3.453 17.492-6.51 25.182 6.854-.425 14.113-1.107 19.604-1.855l-.998 6.745c-4.405-.256-12.096-.418-19.354-.492-3.049 0-8.04.075-13.694.236v5.424c0 2.961-.25 6.503-.58 9.127 7.515-.425 14.773-.85 19.09-1.35-.337 2.793-.526 4.142-.526 5.903v11.846c0 3.217-.317 7.94-1.342 11.67l-5.747 1.005c-.324-2.624-.75-7.947-.75-10.82V68.446c-8.458-.337-20.473.587-28.986 1.181-3.474.256-6.678.762-10.314 1.275l-3.137-6.51c3.137.419 8.183.83 11.4.83 3.724 0 8.298-.053 13.121-.236-.107-2.617-.263-6.091-.263-8.21v-6.408c-8.709.243-17.154.486-20.527.755-4.061.25-9.316.763-13.202 1.269l-2.806-7.191c4.911.587 11.016 1.018 15.913 1.187 6.935.25 26.363-.256 36.603-.6M10.85 55.51v-14.2c-8.554-.242-19.273-.074-28.238.426v10.32c0 1.606-.061 3.036-.25 4.473 8.54-.176 19.61-.506 28.488-1.018m.33 4.816c-3.015-.08-6.428-.163-10.05-.08v16.392c4.91-.169 9.14-.324 11.75-.425 7.366-.324 15.482-1.18 21.472-1.943l-1.026 6.766c-4.384-.243-12.081-.337-19.353-.412-9.12-.088-32.791.837-39.382 1.262-4.216.256-9.302.681-13.356 1.174l-2.624-7.259c4.897.594 10.813 1.019 15.9 1.18 3.98.169 11.4.081 18.854-.08v-16.48c-3.967.068-7.947.169-11.583.338-.168 1.1-.418 2.024-.6 2.874l-5.322.843c-.331-2.112-.756-5.734-.756-8.797V32.097c0-3.447-1.288-4.816-6.941-6.078l1.2-2.786c3.697.331 9.876 1.1 14.173 1.943-.391 2.03-.924 5.586-.924 6.84v5.41c8.46-.162 19.117-.505 28.238-1.173v-7.367c0-3.453-1.505-4.553-7.785-6.07l1.275-3.05c4.574.5 10.908 1.35 15.063 2.2-.33 2.023-.755 5.578-.755 6.846v21.964c0 5.073-.857 9.39-1.478 11.927l-5.572.85c-.14-.85-.236-2.03-.418-3.225M89.875 48.748c-6.429.256-13.714.681-18.524 1.78l-2.94-6.252c2.266.33 7.851.674 10.974.593 3.056-.093 7.448-.176 10.49-.337V24.167c0-3.387-3.137-5.336-10.314-7.117l1.437-3.036c5.322.668 13.248 2.206 17.586 2.962-.418 2.03-.924 6.26-.924 7.36v33.802c0 4.985-.695 12.176-1.464 15.886l-5.646.938c-.344-2.719-.675-10.065-.675-14.038zm12 35.597-1.106 6.503c-13.45-.513-28.392-.088-38.221.492-3.778.27-5.39-1.848-5.39-4.297v-10.22c0-4.816-.512-5.504-7.19-7.197l1.26-3.029c3.3.412 10.834 1.356 14.207 1.848-.168 1.356-.499 4.486-.499 6.422v9.566c0 2.017.405 2.266 2.725 2.354 8.277.168 24.744-1.012 34.215-2.442M73.894 24.504l2.888 1.76c-5.35 16.48-22.403 33.648-40.488 42.02l-2.03-2.53c14.347-7.866 27.023-22.416 32.122-35.422-4.823 0-10.671.344-12.864.506-2.199.163-8.297.58-11.832 1.45l-4.317-6.78c2.476.345 9.552 1.013 13.201 1.013 8.959 0 19.435-1.093 23.32-2.017M149.11 40.9c0-6.423-5.167-11.414-11.238-11.414-6.179 0-11.238 4.991-11.238 11.413 0 6.503 5.06 11.158 11.238 11.158 6.26 0 11.239-4.655 11.239-11.158m-7.535-15.043c9.208 1.35 15.73 7.603 15.73 15.38 0 8.784-8.364 15.543-19.616 15.543-11.056 0-19.266-6.76-19.266-15.542 0-8.122 7.023-14.713 16.905-15.556-.168-1.423-.938-2.2-3.454-3.036l1.336-2.455c2.368.492 6.847 1.35 9.552 1.936-.33 1.005-.843 2.294-1.187 3.73M167.54 66.5c-13.539 2.962-29.93 5.505-40.562 6.341-2.307.169-9.147.844-12.857 1.43l-4.156-7.008c3.548.593 10.24 1.025 13.377.937 15.44-.593 31.766-2.624 44.198-5.329v-38.7c0-3.393-3.144-5.336-10.328-7.117l1.45-3.035c5.323.667 13.27 2.206 17.573 2.961-.418 2.024-.93 6.253-.93 7.353v45.716c0 6.772-.662 18.854-1.505 23.758l-5.505.756c-.411-3.636-.755-12.257-.755-18.585zM216.384 77.233c5.322-.08 10.739-.257 15.11-.412V63.033c-5.073 0-10.3 0-15.11.093zm-7.697.175V63.384c-1.7 0-3.306.075-4.648.168-3.717.237-5.18-1.963-5.18-4.654v-9.559c0-4.047-.75-4.729-5.903-6.415l1.362-2.536c11.063 1.18 28.811.85 41.338.263l.58-13.195c-5.322-.25-20.945.163-26.517.6-2.388.163-8.223.594-12.358 1.343l-3.636-6.753c2.354.486 8.958 1.424 12.345 1.424 8.378.093 29.249-.169 39.732-1.1-.35 1.012-1.106 4.068-1.356 6.092l-1.7 11.063a77.76 77.76 0 0 0 3.123-.243l-.58 5.234c-12.344-.586-32.966 0-38.444.257-.094.93-.094 1.862-.094 2.705v9.046c0 1.686.148 1.774 2.253 1.848 8.04.256 30.025-.836 39.314-2.36l-1.437 6.596c-2.273-.08-4.79-.175-7.69-.175v13.532c7.103-.425 14.793-1.188 20.568-1.957l-1.046 6.773c-4.385-.256-12.068-.35-19.326-.432-9.154-.08-32.832.857-39.409 1.282-4.243.243-9.302.668-13.343 1.093l-2.637-7.184c4.89.586 10.833 1.011 15.892 1.187 2.132.08 5.255.08 8.797.08M307.649 17.052l1.437-3.036c5.335.668 13.282 2.206 17.572 2.962-.405 2.03-.93 6.26-.93 7.36v33.795c0 4.992-.662 12.183-1.424 15.893l-5.666.931c-.331-2.712-.675-10.058-.675-14.038V24.17c0-3.394-3.123-5.336-10.314-7.117m23.583 67.194-1.107 6.429c-13.424-.338-28.224.088-38.025.667-3.987.27-5.397-1.848-5.397-4.303v-10.22c0-4.817-.506-5.498-7.366-7.191l1.423-3.036c3.306.419 10.827 1.356 14.213 1.855-.168 1.356-.512 4.486-.512 6.422v9.566c0 2.017.418 2.266 2.712 2.354 8.304.163 24.588-1.106 34.059-2.543m-34.903-41.992c0-6.362-4.897-11.34-10.894-11.34-6.18 0-11.103 4.978-11.103 11.34 0 6.664 4.924 11.225 11.103 11.225 6.085 0 10.894-4.56 10.894-11.225m-7.366-14.888c9.12 1.282 15.468 7.535 15.468 15.3 0 8.796-8.19 15.467-19.117 15.467-11.036 0-19.064-6.671-19.064-15.468 0-8.108 6.908-14.611 16.628-15.461-.141-1.35-.998-2.118-3.541-2.867l1.37-2.374c2.502.499 6.745 1.355 9.443 1.942-.344.844-.843 2.03-1.187 3.46M386.937 45.787c1.673-6.914 3.03-15.38 3.205-21.883-8.197 0-18.767.163-25.54.668-3.21.27-9.97.681-14.368 1.62l-3.63-6.76c4.311.492 10.477 1.012 13.958 1.012 11.656 0 27.36-.594 37.195-2.2l2.173 2.119c-1.41 7.595-3.454 17.491-6.497 25.182 6.854-.425 14.112-1.107 19.617-1.855l-1.012 6.745c-4.405-.256-12.108-.418-19.353-.492-3.063 0-8.041.074-13.708.236v5.424c0 2.961-.263 6.502-.593 9.127 7.514-.425 14.786-.85 19.104-1.35-.338 2.793-.5 4.142-.5 5.903v11.845c0 3.218-.344 7.94-1.369 11.67l-5.734 1.006c-.35-2.625-.776-7.947-.776-10.82V68.445c-8.445-.337-20.446.587-28.972 1.18-3.475.257-6.692.763-10.328 1.276l-3.123-6.51c3.123.418 8.21.83 11.427.83 3.696 0 8.27-.054 13.107-.236-.108-2.618-.263-6.092-.263-8.21v-6.408c-8.723.243-17.182.486-20.541.755-4.061.25-9.302.763-13.188 1.268l-2.793-7.19c4.898.586 10.976 1.018 15.887 1.187 6.948.25 26.375-.256 36.615-.6M473.472 54.756V70.05c0 6.773-.674 18.854-1.342 23.758l-5.68.75c-.398-3.637-.762-12.251-.762-18.578V24.165c0-3.387-2.942-5.33-10.132-7.11l1.261-3.043c5.498.675 13.424 2.213 17.58 2.962-.412 2.03-.925 6.26-.925 7.36v25.68c4.742-.337 11.407-1.012 16.23-1.855l-.748 6.678c-3.9-.175-10.74-.08-15.482-.08m-20.959-26.7 2.618 2.436c-6.51 19.266-21.978 36.103-39.895 45.56l-2.293-2.53c15.73-9.302 27.738-26.206 31.718-39.644-3.231.08-10.665.344-13.707.418-2.368.088-8.446.776-12.17 1.363l-4.229-6.685c2.793.506 9.302 1.1 12.952 1.1 8.034.08 18.84-.594 25.006-2.018M535.58 17.052l1.45-3.036c5.31.668 13.27 2.206 17.573 2.962-.418 2.03-.93 6.26-.93 7.36v45.708c0 6.773-.675 18.855-1.519 23.759l-5.49.755c-.426-3.636-.77-12.257-.77-18.584V24.169c0-3.394-3.137-5.336-10.314-7.117M517.582 45.04c5.997 6.085 13.519 12.931 21.29 18.672l-5.99 5.916c-5.498-6.415-11.583-13.862-17.674-20.797-5.74 8.46-13.357 15.805-23.158 22.659l-2.348-2.294c12.925-10.22 21.796-24.757 25.074-37.27.526-1.774.358-2.024-.222-2.793-.776-.917-2.793-2.097-5.249-3.116l1.613-2.536c4.465 1.092 10.381 2.873 14.685 4.317-2.105 6.246-4.634 11.906-8.02 17.242M621.114 84.848l.263-14.8c-6.854-.338-17.762 0-23.765.425l.324 13.194v1.936c7.21-.08 15.987-.418 23.178-.755m6.853-.506a42.707 42.707 0 0 1 3.043-.338l-1.437 5.99c-8.04-.505-22.322-.505-31.874-.162-.181.924-.35 2.03-.58 3.13l-5.35.843c-.748-3.723-.748-5.754-.997-8.54l-1.012-11.481c-.344-4.074-.77-4.587-5.829-5.936l1.424-2.955c14.375 1.7 30.092 1.107 44.812-.162-.844 5.66-1.687 13.774-2.2 19.61m-45.074-35.173c0 5.08 3.993 9.29 8.877 9.29 5.086 0 9.066-3.96 9.066-9.29 0-4.978-3.717-9.289-9.066-9.289-4.884 0-8.877 3.71-8.877 9.29m21.303-30.255-1.343 5.342c-3.622-.093-9.383.163-12.176.163-1.51 0-6.334.25-9.04.668l-3.385-6.254c2.624.594 8.54 1.356 11.346 1.356 2.53 0 9.633-.587 14.598-1.275m4.668 31.86c-.688 6.773-7.866 12.095-17.094 12.095-9.444 0-17.14-6.165-17.14-13.269 0-7.872 7.763-13.444 17.14-13.444 8.129 0 14.22 3.967 16.25 9.134 2.173.256 4.635.418 6.43.337 2.09 0 4.99-.08 7.52-.168V24.163c0-3.387-3.123-5.33-10.314-7.11l1.424-3.036c5.35.668 13.275 2.206 17.6 2.955-.425 2.03-.925 6.26-.925 7.36v24.237c0 3.892-.856 11.17-1.45 13.963l-5.66.85c-.344-2.374-.674-7.36-.674-10.402v-3.379c-4.837.155-9.566.675-13.107 1.174m7.272-23.738-1.032 6.078c-7.427-.08-26.875.425-33.803.762-2.705.168-9.147.755-11.832 1.194l-3.204-6.773c3.028.587 9.288 1.268 12.412 1.268 7.433-.088 26.625-.593 37.459-2.53M700.402 65.164c-6.604.23-14.388.911-18.523 1.842l-2.968-6.166c2.455.257 7.696.75 10.988.682 2.968-.094 7.104-.176 10.503-.425V24.164c0-3.387-3.15-5.33-10.327-7.11l1.45-3.043c5.309.675 13.262 2.213 17.478 2.962-.323 2.03-.843 6.26-.843 7.36v34.983c0 3.98-.843 13.35-1.437 16.486l-5.821.837c-.169-2.193-.432-8.122-.5-11.475m-20.884-30.268c0-5.329-4.48-9.552-9.903-9.552-5.262 0-9.896 4.223-9.896 9.552 0 5.66 4.567 9.464 9.896 9.464 5.599 0 9.903-3.804 9.903-9.464m33.728 49.77-1.106 6.517c-13.438-.756-30.686-.426-40.501.162-3.967.27-5.397-1.855-5.397-4.304v-5.916c0-4.91-.506-5.572-7.184-7.184l1.268-3.042c3.305.425 10.813 1.349 14.2 1.862-.182 1.349-.513 4.391-.513 6.422v5.248c0 2.017.418 2.266 2.712 2.36 8.277.163 27.05-.687 36.521-2.124M673.09 21.965c8.277 1.167 14.112 6.59 14.112 13.168 0 7.791-7.616 13.7-17.917 13.7-10.226 0-17.748-5.909-17.748-13.7 0-6.914 6.402-12.574 15.468-13.336-.176-1.268-.937-1.876-2.968-2.61l1.019-2.214c2.367.425 6.584 1.269 9.039 1.694-.567 1.362-.843 2.287-1.005 3.298m.843 34.491v2.699c0 4.054-.593 7.94-1.275 10.557l-5.558.856c-.358-2.287-1.032-7.184-1.032-10.24v-3.035c-2.355.168-4.648.323-7.01.499-2.38.182-9.22.85-12.924 1.437l-4.081-7.097c3.474.6 9.734 1.1 13.37 1.019 16.217-.344 29.155-1.862 42.006-4.061v3.373a286.315 286.315 0 0 1-23.496 3.993" style="fill:#0a2d66;fill-opacity:1;fill-rule:nonzero;stroke:none;stroke-width:6.74574" transform="translate(451.521 49.464)"/><path d="M-430.758 99.87h-20.763v50.66h76.193v-20.783h-55.43z" style="fill:#babfc3;fill-opacity:1;fill-rule:nonzero;stroke:none;stroke-width:6.74574" transform="translate(451.521 49.464)"/><path d="M-361.193 99.56h26.443v34.431h20.818v-55.47h-47.26zM-324.487-21.736l26.612 25.08 14.733-13.882-41.345-38.923v.014l-.013-.014-41.345 38.923 14.72 13.883zM-280.165 107.16h-20.885v43.376h49.527v-20.79h-28.642zM-272.194 78.524h-28.852v21.06h49.52V17.13h-20.668zM-272.389 8.975h20.872v-58.439h-20.872zM-451.39-49.464v20.972h55.28V9.001h20.818l.067-58.465zM-404.092 48.85l-.154-10.948 29.02-.122V16.95h-76.295V37.9h26.585V48.85h-26.585v20.884h55.417v29.87h20.837V48.85ZM-299.876 34.11a17.936 17.936 0 0 0-11.791-2.927c1.383 2.32 2.213 5.019 2.213 7.92 0 8.472-6.868 15.34-15.333 15.34-5.58 0-10.45-2.983-13.128-7.428-4.027.398-8.169-.52-11.778-2.928-8.283-5.51-10.51-16.648-5.005-24.912-3.805 5.687-6.03 12.547-6.03 19.934 0 19.846 16.081 35.935 35.954 35.935 12.446 0 23.448-6.341 29.877-16.001 5.498-8.257 3.272-19.415-4.979-24.933" style="fill:#0a2d66;fill-opacity:1;fill-rule:nonzero;stroke:none;stroke-width:6.74574" transform="translate(451.521 49.464)"/><path d="M-324.777 3.171c-12.506 0-23.455 6.341-29.924 16.001-5.504 8.27-3.278 19.4 5.012 24.912 3.61 2.408 7.744 3.332 11.778 2.928a15.379 15.379 0 0 1-2.212-7.913c0-8.466 6.847-15.333 15.333-15.333 5.572 0 10.435 2.981 13.12 7.42 4.007-.411 8.17.52 11.792 2.921 8.25 5.525 10.476 16.682 4.985 24.939a35.75 35.75 0 0 0 6.03-19.94c0-19.853-16.088-35.935-35.914-35.935" style="fill:#dd1823;fill-opacity:1;fill-rule:nonzero;stroke:none;stroke-width:6.74574" transform="translate(451.521 49.464)"/><path d="M-25.672-31.813c0 .567-.014 1.235-.053 1.983-.04.756-.088 1.559-.182 2.415-.08.857-.196 1.727-.317 2.618-.122.89-.263 1.754-.432 2.59h5.437c.136 0 .236.08.385.21.115.135.195.27.195.384v2.422c0 .122-.08.242-.195.364-.15.136-.25.19-.385.19h-14.307v5.537h7.231c1.005 0 1.673.163 1.99.513.304.337.465 1.066.465 2.145v9.99c0 .123-.067.243-.176.358-.114.101-.222.155-.344.155h-3.238a.568.568 0 0 1-.384-.155c-.115-.115-.182-.236-.182-.357v-8.54c0-.25-.053-.405-.12-.473-.115-.08-.31-.122-.58-.122h-18.234a.774.774 0 0 1-.391-.12c-.123-.094-.176-.196-.176-.324v-2.624c0-.163.053-.27.176-.344a.811.811 0 0 1 .391-.102h9.289v-5.538h-13.716a.44.44 0 0 1-.384-.19.636.636 0 0 1-.142-.364v-2.422c0-.384.155-.593.526-.593h22.929c.222-1.208.391-2.462.553-3.758.155-1.308.21-2.698.21-4.168 0-.358-.054-.574-.25-.655-.176-.094-.425-.128-.783-.128h-17.296c-.122 0-.236-.053-.37-.162-.129-.088-.156-.21-.156-.324v-2.557c0-.155.027-.27.155-.344a.82.82 0 0 1 .371-.101h20.042c.789 0 1.423.202 1.828.607.438.411.62 1.08.62 1.983M10.363-10.583c0 .33-.169.485-.5.485H6.578a.463.463 0 0 1-.337-.155.436.436 0 0 1-.176-.37v-24.049c0-.115.053-.236.176-.33a.449.449 0 0 1 .337-.142h3.285c.33 0 .5.162.5.472zm.95 9.916a.76.76 0 0 1-.343.101H-8.451c-1.107 0-1.855-.195-2.253-.593-.398-.398-.608-1.066-.608-2.051v-8.075c0-.135.067-.243.169-.364a.59.59 0 0 1 .384-.162h3.191c.168 0 .29.06.418.162.12.122.19.23.19.364v6.564c0 .25.034.418.141.486.107.074.263.107.513.107h17.275c.115 0 .223.053.344.149.115.107.169.209.169.337v2.631c0 .15-.054.263-.169.344m-15.312-28.65c0-.201-.027-.343-.107-.39-.048-.067-.169-.094-.378-.094h-7.05c-.195 0-.317.021-.384.075-.067.034-.101.175-.101.37v9.492c0 .222.034.364.101.411.067.048.19.08.385.08h7.049c.209 0 .33-.034.378-.08.08-.048.107-.189.107-.411zm3.582 12.804c-.378.365-1.04.553-1.99.553h-11.01c-1.059 0-1.767-.189-2.165-.553-.391-.377-.593-1.052-.593-2.01v-12.203c0-.951.19-1.592.566-1.956.398-.364 1.06-.54 1.99-.54h11.212c.95 0 1.612.163 1.99.506.384.337.58.998.58 1.99v12.203c0 .958-.196 1.633-.58 2.01M45.593-.412c0 .317-.168.472-.486.472h-3.299c-.323 0-.499-.155-.499-.472v-34.262c0-.31.176-.472.5-.472h3.298c.317 0 .486.163.486.472zM32.183-20.71c0-1.147-.108-2.22-.318-3.245-.25-1.032-.553-1.936-.991-2.705-.405-.762-.918-1.37-1.525-1.814-.594-.439-1.309-.661-2.111-.661-.776 0-1.471.222-2.092.66-.607.446-1.12 1.053-1.544 1.815a9.66 9.66 0 0 0-.945 2.705 14.775 14.775 0 0 0-.344 3.245c0 1.106.115 2.179.344 3.204.196 1.032.54 1.93.945 2.705.425.776.937 1.403 1.544 1.862.62.459 1.316.695 2.092.695.802 0 1.517-.236 2.111-.695.607-.459 1.12-1.086 1.525-1.862.438-.776.741-1.673.991-2.705.21-1.025.317-2.098.317-3.204M27.238-8.467c-1.397 0-2.672-.303-3.805-.897a8.255 8.255 0 0 1-2.887-2.496c-.762-1.079-1.383-2.374-1.801-3.878-.425-1.518-.62-3.17-.62-4.972 0-1.862.195-3.548.62-5.053.418-1.51 1.039-2.786 1.8-3.838a8.19 8.19 0 0 1 2.888-2.449c1.133-.58 2.408-.87 3.805-.87 1.45 0 2.718.29 3.865.87a8.16 8.16 0 0 1 2.84 2.45c.796 1.051 1.39 2.326 1.794 3.837.439 1.505.634 3.191.634 5.053 0 1.848-.195 3.535-.634 5.046-.405 1.504-.998 2.792-1.794 3.852-.776 1.065-1.72 1.895-2.84 2.469-1.147.586-2.415.876-3.865.876M90.533-10.583c0 .33-.168.485-.485.485h-3.306c-.317 0-.492-.168-.492-.526v-24.048c0-.31.176-.473.492-.473h3.306c.317 0 .485.163.485.473zm.979 9.977a.652.652 0 0 1-.344.114H71.693c-1.107 0-1.842-.195-2.226-.587-.385-.397-.58-1.086-.58-2.044v-8.465c0-.12.053-.243.154-.344.12-.115.243-.169.358-.169h3.231c.168 0 .29.054.391.169a.441.441 0 0 1 .176.344v6.948c0 .236.048.405.128.479.12.067.317.114.567.114h17.276c.115 0 .222.04.344.15a.4.4 0 0 1 .168.323v2.638c0 .141-.054.27-.168.33M64.71-14.225c-.33.197-.594.277-.749.223-.19-.047-.33-.154-.479-.323l-1.524-1.747c-.264-.27-.344-.506-.29-.688.06-.182.222-.351.431-.5 1.383-.944 2.61-1.942 3.636-2.995a15.19 15.19 0 0 0 2.624-3.5 17.425 17.425 0 0 0 1.592-4.291c.358-1.565.527-3.34.527-5.316 0-.176.067-.337.202-.472.115-.128.236-.202.364-.202l3.272.19c.317 0 .472.18.472.546 0 1.045-.04 2.037-.136 3.001a21.652 21.652 0 0 1-.378 2.726 10.98 10.98 0 0 0 1.33 2.981 17.206 17.206 0 0 0 2.003 2.618 17.396 17.396 0 0 0 2.266 2.111c.79.62 1.538 1.127 2.267 1.49.371.196.418.493.141.898l-1.41 1.997c-.249.378-.566.438-.957.222a16.27 16.27 0 0 1-4.243-3.042 17.846 17.846 0 0 1-3.178-4.19 20.082 20.082 0 0 1-3.224 4.46c-1.282 1.356-2.806 2.617-4.56 3.804M125.264.147h-3.265c-.135 0-.23-.048-.344-.141-.135-.08-.182-.203-.182-.351v-34.33c0-.114.047-.235.182-.323.115-.107.209-.15.344-.15h3.265c.344 0 .526.163.526.473V-.346c0 .33-.182.492-.526.492m-8.25-15.724a.457.457 0 0 1-.324.163h-6.564v4.789c1.633-.122 3.198-.243 4.716-.391a66.291 66.291 0 0 0 4.216-.493.987.987 0 0 1 .425.021c.168.04.276.15.303.351l.21 2.449c.013.202-.028.344-.149.445a.57.57 0 0 1-.344.19 115.54 115.54 0 0 1-4.857.573c-1.862.182-3.798.337-5.849.459a206.23 206.23 0 0 1-6.145.283c-2.05.061-3.953.08-5.713.054-.371 0-.54-.203-.54-.594v-2.53c0-.337.168-.512.54-.512 1.423.053 2.887.067 4.425.04 1.545-.027 3.083-.067 4.64-.12v-5.013h-4.296c-.978 0-1.62-.168-1.977-.512s-.512-.924-.512-1.714v-5.336c0-.789.154-1.356.499-1.713.33-.344.971-.513 1.95-.513h9.936c.209 0 .323-.04.377-.094.067-.06.107-.195.107-.424v-2.57c0-.196-.04-.304-.107-.351-.053-.035-.181-.054-.418-.054h-11.73a.569.569 0 0 1-.352-.128.368.368 0 0 1-.149-.31v-2.375c0-.128.04-.243.15-.364.114-.102.249-.163.35-.163h13.93c.999 0 1.687.155 2.044.473.337.296.513.877.513 1.72v5.538c0 .857-.176 1.437-.513 1.754-.357.31-1.045.472-2.044.472h-9.842c-.181 0-.317.021-.37.08-.054.075-.075.196-.075.385v2.422c0 .222.02.35.074.384.054.04.203.067.412.067h12.688c.129 0 .25.04.365.115a.528.528 0 0 1 .148.391v2.307a.538.538 0 0 1-.148.35M164.5-17.744a.603.603 0 0 1-.398.142h-4.992V-.414c0 .323-.169.479-.472.479h-3.32c-.33 0-.492-.155-.492-.48v-34.254c0-.317.162-.48.493-.48h3.319c.303 0 .472.163.472.48v13.518h4.992c.162 0 .276.035.398.115.121.094.182.196.182.33v2.632c0 .122-.06.229-.182.33m-22.093-1.12c-1.268 0-2.253.398-3.022 1.18-.748.777-1.133 1.782-1.133 3.023 0 1.208.385 2.213 1.133 3.002.77.796 1.754 1.194 3.022 1.194 1.302 0 2.328-.398 3.083-1.194.749-.79 1.107-1.795 1.107-3.002 0-1.241-.358-2.246-1.107-3.022-.755-.783-1.78-1.18-3.083-1.18m5.437-11.313a.595.595 0 0 1-.418.19h-10.435a.652.652 0 0 1-.358-.142.53.53 0 0 1-.209-.419v-2.448c0-.169.08-.31.21-.412a.564.564 0 0 1 .357-.141h10.435a.58.58 0 0 1 .405.181.616.616 0 0 1 .175.412v2.374a.621.621 0 0 1-.162.405m-5.437 7.933c1.208 0 2.314.182 3.333.553 1.012.351 1.882.857 2.597 1.511a7.174 7.174 0 0 1 1.686 2.355c.405.924.628 1.942.628 3.049 0 1.12-.223 2.131-.628 3.076-.411.944-.964 1.76-1.7 2.442a8.68 8.68 0 0 1-2.61 1.612c-1.019.391-2.139.587-3.36.587-1.2 0-2.307-.19-3.292-.574-1.018-.391-1.888-.924-2.597-1.612-.701-.695-1.281-1.511-1.66-2.455-.41-.945-.593-1.957-.593-3.077 0-1.079.182-2.09.594-3.008a6.49 6.49 0 0 1 1.686-2.348c.722-.668 1.592-1.167 2.59-1.544 1.006-.378 2.099-.567 3.326-.567m10.18-1.997a.503.503 0 0 1-.378.182h-20.123a.543.543 0 0 1-.418-.202c-.148-.136-.209-.277-.209-.425v-2.267c0-.128.06-.243.21-.364a.564.564 0 0 1 .417-.182h20.123c.128 0 .263.048.378.163a.5.5 0 0 1 .175.384v2.3c0 .163-.054.29-.175.412M194.776-29.951c0 3.332-.135 6.395-.358 9.16-.25 2.773-.54 5.073-.904 6.908a1.962 1.962 0 0 1-.256.52.445.445 0 0 1-.459.176l-2.94-.257c-.196-.02-.325-.101-.406-.25a.719.719 0 0 1-.027-.532c.17-.904.318-1.97.46-3.164.134-1.2.256-2.442.33-3.71.094-1.275.162-2.537.209-3.778.04-1.22.067-2.354.067-3.373 0-.344-.074-.56-.236-.647-.168-.08-.418-.128-.762-.128h-18.26c-.122 0-.237-.048-.372-.129-.108-.093-.168-.189-.168-.317v-2.67a.39.39 0 0 1 .168-.338.742.742 0 0 1 .371-.107h21.04c.803 0 1.41.209 1.828.634.439.425.675 1.079.675 2.003m4.074 23.556c-.121.136-.256.19-.357.19H166.16a.41.41 0 0 1-.37-.19.503.503 0 0 1-.156-.37V-9.22a.5.5 0 0 1 .155-.378.464.464 0 0 1 .371-.168h12.46V-20.08c0-.378.175-.567.533-.567h3.224c.358 0 .5.19.5.567v10.314h15.616c.1 0 .236.061.357.182.115.135.182.256.182.364v2.455c0 .136-.067.25-.182.371M244.631-23.054a.506.506 0 0 1-.357.155h-5.005v6.975c0 .317-.183.472-.54.472h-3.251a.55.55 0 0 1-.358-.15c-.121-.087-.162-.222-.162-.363v-18.706c0-.123.04-.236.162-.33a.546.546 0 0 1 .358-.142h3.251c.357 0 .54.155.54.472v8.196h5.005c.121 0 .25.054.357.163.142.088.196.209.196.33v2.59c0 .123-.054.243-.196.338m-9.605 13.363c0-.195-.041-.337-.081-.391-.06-.061-.21-.094-.378-.094h-12.385c-.21 0-.371.027-.425.075-.047.053-.088.176-.088.37v5.337c0 .229.04.364.088.411.054.054.216.08.425.08h12.385c.169 0 .317-.026.378-.08.04-.048.08-.182.08-.411zm3.636 8.614c-.405.385-1.093.587-2.038.587h-16.338c-1.12 0-1.889-.202-2.253-.587-.398-.397-.594-1.086-.594-2.044v-7.798c0-.93.21-1.619.641-2.037.412-.425 1.1-.64 2.03-.64h16.339c1.106 0 1.862.209 2.253.613.398.412.607 1.12.607 2.105v7.791c0 .938-.223 1.612-.648 2.01m-24.176-13.7c-.62.25-1.012.128-1.187-.33l-.972-1.937c-.108-.202-.155-.398-.108-.593.041-.203.203-.358.466-.48 3.042-1.315 5.585-2.893 7.65-4.735 2.057-1.835 3.413-3.879 4.128-6.138.101-.392.141-.668.101-.81-.034-.149-.276-.236-.627-.236h-10.092a.423.423 0 0 1-.357-.182.648.648 0 0 1-.135-.404v-2.45c0-.35.175-.518.512-.518h12.601c1.08 0 1.842.168 2.28.519.419.35.641.917.641 1.713 0 .088-.014.237-.04.432 0 .176-.034.364-.088.567-.027.195-.081.37-.108.533-.04.155-.081.283-.108.35-.93 3.394-2.617 6.294-5.06 8.689-2.434 2.402-5.598 4.405-9.497 6.01M262.457-9.397c-2.476 0-4.337.303-5.572.91-1.268.614-1.875 1.35-1.875 2.253 0 .857.607 1.606 1.875 2.2 1.235.607 3.096.917 5.572.917s4.324-.31 5.586-.918c1.268-.593 1.868-1.342 1.868-2.199 0-.903-.6-1.639-1.868-2.253-1.262-.607-3.11-.91-5.586-.91m11.684 3.123c0 2.03-1.012 3.602-3.03 4.708-2.003 1.12-4.87 1.673-8.654 1.673-3.77 0-6.638-.553-8.655-1.673-2.017-1.106-3.042-2.678-3.042-4.708 0-2.004 1.025-3.569 3.042-4.695 2.017-1.134 4.884-1.687 8.655-1.687 3.784 0 6.651.553 8.655 1.687 2.017 1.126 3.029 2.691 3.029 4.695m-.142-16.055a.373.373 0 0 1-.304.128h-9.066v3.825h13.97c.129 0 .237.061.365.182.135.128.189.256.189.364v2.455a.486.486 0 0 1-.19.371c-.127.128-.235.182-.363.182H246.3a.499.499 0 0 1-.378-.163.727.727 0 0 1-.121-.39v-2.456c0-.142.054-.263.121-.385a.59.59 0 0 1 .378-.162h14.038v-3.825h-6.483c-1.005 0-1.673-.23-2.084-.675-.398-.432-.607-1.093-.607-1.963v-7.272c0-.937.222-1.578.647-1.909.405-.33 1.093-.492 2.044-.492h19.509c.344 0 .526.155.526.472v2.53c0 .344-.182.512-.526.512h-17.181c-.446 0-.709.216-.709.641v4c0 .203.054.365.155.48.108.135.277.189.553.189h17.357c.196 0 .364.02.445.074.108.054.155.176.155.371v2.49c0 .195-.047.337-.141.424M314.42-17.744a.594.594 0 0 1-.384.142h-5.005V-.414c0 .323-.169.479-.486.479h-3.305c-.317 0-.48-.155-.48-.48v-34.254c0-.317.163-.48.48-.48h3.305c.317 0 .486.163.486.48v13.518h5.005a.65.65 0 0 1 .385.115.385.385 0 0 1 .168.33v2.632c0 .122-.047.229-.168.33m-22.093-1.12c-1.268 0-2.28.398-3.035 1.18-.762.777-1.12 1.782-1.12 3.023 0 1.208.358 2.213 1.12 3.002.755.796 1.767 1.194 3.035 1.194 1.289 0 2.341-.398 3.07-1.194.749-.79 1.12-1.795 1.12-3.002 0-1.241-.371-2.246-1.12-3.022-.729-.783-1.781-1.18-3.07-1.18m5.438-11.313a.558.558 0 0 1-.432.19h-10.436c-.108 0-.195-.054-.344-.142a.481.481 0 0 1-.195-.419v-2.448c0-.169.054-.31.195-.412.149-.101.236-.141.344-.141h10.436c.155 0 .276.053.405.181.12.123.202.257.202.412v2.374c0 .142-.067.277-.175.405m-5.438 7.933c1.208 0 2.328.182 3.333.553 1.025.351 1.895.857 2.604 1.511a7.414 7.414 0 0 1 1.7 2.355 7.64 7.64 0 0 1 .607 3.049c0 1.12-.21 2.131-.607 3.076a7.478 7.478 0 0 1-1.707 2.442 8.585 8.585 0 0 1-2.624 1.612c-1.019.391-2.125.587-3.333.587-1.2 0-2.334-.19-3.332-.574a7.968 7.968 0 0 1-2.597-1.612 7.182 7.182 0 0 1-1.632-2.455 7.572 7.572 0 0 1-.621-3.077 7.3 7.3 0 0 1 .62-3.008c.378-.91.931-1.693 1.66-2.348.735-.668 1.592-1.167 2.604-1.544 1.005-.378 2.125-.567 3.325-.567m10.18-1.997a.472.472 0 0 1-.391.182h-20.11a.59.59 0 0 1-.431-.202c-.108-.136-.196-.277-.196-.425v-2.267c0-.128.088-.243.196-.364a.614.614 0 0 1 .432-.182h20.109c.155 0 .29.048.39.163a.55.55 0 0 1 .176.384v2.3a.6.6 0 0 1-.175.412M344.144-22.082a.623.623 0 0 1-.358.101h-19.88c-1.133 0-1.895-.202-2.28-.607-.384-.405-.58-1.093-.58-2.064v-9.31c0-.127.054-.242.176-.35a.49.49 0 0 1 .35-.176h3.232c.128 0 .276.061.378.176a.439.439 0 0 1 .162.35v7.833c0 .242.054.404.155.479.107.074.276.114.566.114h17.721c.135 0 .263.048.358.128.108.088.155.19.155.324v2.618c0 .189-.047.303-.155.384m.418 21.188a.617.617 0 0 1-.364.102h-20.413c-1.133 0-1.895-.196-2.266-.594-.392-.391-.574-1.066-.574-2.03v-8.055c0-.128.047-.243.155-.357.122-.108.223-.169.358-.169h3.184c.162 0 .276.061.398.169.121.114.182.229.182.357v6.53c0 .25.027.405.121.486.108.06.304.101.567.101h18.288c.128 0 .263.054.364.136.121.088.216.19.216.317v2.671c0 .155-.094.257-.216.337m4.182-13.902c-.135.141-.242.202-.384.202h-32.292a.495.495 0 0 1-.371-.182.772.772 0 0 1-.142-.411v-2.449c0-.35.169-.513.513-.513h32.292c.141 0 .25.054.384.163.129.12.183.23.183.35v2.45c0 .135-.054.256-.183.39M390.745-.412c0 .317-.169.472-.513.472h-3.272a.557.557 0 0 1-.35-.12.403.403 0 0 1-.176-.351v-34.262c0-.114.054-.236.175-.323a.464.464 0 0 1 .351-.15h3.272c.344 0 .513.163.513.473zm-25.681-7.724c-.446.378-.884.358-1.302-.034l-1.7-1.64c-.398-.337-.358-.722.108-1.146a24.833 24.833 0 0 0 4.094-4.864 25.643 25.643 0 0 0 2.766-5.707 32.46 32.46 0 0 0 .769-2.658c.196-.883.378-1.76.513-2.678.141-.897.236-1.835.29-2.82.027-.971.047-2.003.027-3.09 0-.148.047-.283.155-.384.135-.128.236-.168.357-.168l3.306.101c.135 0 .222.067.33.169a.574.574 0 0 1 .155.39c0 1.485-.054 2.868-.168 4.163a39.314 39.314 0 0 1-.466 3.703c.243 1.16.594 2.334 1.147 3.522a22.139 22.139 0 0 0 1.848 3.406 26.634 26.634 0 0 0 2.267 2.982 22.18 22.18 0 0 0 2.422 2.34c.411.304.424.689.08 1.147l-1.571 1.896a.613.613 0 0 1-.486.283.766.766 0 0 1-.641-.216c-.648-.465-1.268-1.038-1.943-1.74-.681-.681-1.315-1.45-1.95-2.267-.627-.809-1.22-1.639-1.713-2.502-.54-.857-.958-1.68-1.275-2.47-.431 1.04-.964 2.058-1.517 3.043-.58.992-1.167 1.93-1.842 2.827a30.14 30.14 0 0 1-2.017 2.469c-.695.748-1.37 1.403-2.044 1.942M416.094-21.341v-2.564c0-.128.054-.23.182-.317a.525.525 0 0 1 .33-.128h4.756v-10.32c0-.311.19-.473.513-.473h3.272c.114 0 .236.034.357.141.101.094.155.21.155.331v21.263a.534.534 0 0 1-.155.357c-.121.115-.243.168-.357.168h-3.272a.43.43 0 0 1-.365-.168.557.557 0 0 1-.148-.357v-7.488h-4.756a.475.475 0 0 1-.33-.142.344.344 0 0 1-.182-.303M421.389-7.5c0-.202-.027-.33-.094-.398-.048-.061-.183-.088-.378-.088h-12.73c-.195 0-.316.021-.384.075-.074.053-.1.176-.1.37v3.144c0 .23.026.364.1.412.068.06.19.08.385.08h12.729c.196 0 .33-.021.378-.08.067-.048.094-.182.094-.412zm3.65 6.422c-.432.391-1.107.587-2.045.587h-16.688c-1.12 0-1.882-.196-2.267-.587-.384-.398-.553-1.086-.553-2.044v-5.606c0-.938.182-1.619.594-2.044.404-.425 1.092-.634 2.03-.634h16.702c1.107 0 1.869.202 2.267.614.398.411.58 1.113.58 2.105v5.605c0 .931-.209 1.606-.62 2.004m-20.447-20.487c-.735.492-1.106 1.167-1.106 2.044 0 .857.37 1.565 1.106 2.105.736.553 1.687.816 2.874.816 1.174 0 2.118-.263 2.86-.816.735-.54 1.093-1.248 1.093-2.105 0-.877-.358-1.552-1.093-2.044-.742-.506-1.686-.749-2.86-.749-1.187 0-2.138.243-2.874.749m8.034-10.173a.617.617 0 0 1-.458.19h-9.498c-.122 0-.236-.048-.358-.163-.142-.088-.209-.23-.209-.432v-2.125c0-.162.067-.296.21-.404.12-.088.235-.15.357-.15h9.498c.155 0 .317.067.431.19a.521.521 0 0 1 .19.405v2.044a.657.657 0 0 1-.163.445m-2.037 6.59a8.164 8.164 0 0 1 2.557 1.228c.722.526 1.302 1.167 1.693 1.902.411.736.62 1.565.62 2.496 0 .904-.209 1.74-.627 2.496a6.174 6.174 0 0 1-1.686 1.936 8.989 8.989 0 0 1-2.557 1.235c-.991.303-2.044.445-3.177.445-1.106 0-2.159-.142-3.123-.445a8.26 8.26 0 0 1-2.516-1.235c-.722-.54-1.289-1.173-1.687-1.936-.425-.755-.62-1.592-.62-2.496 0-.93.195-1.76.62-2.496a5.693 5.693 0 0 1 1.7-1.902 7.959 7.959 0 0 1 2.543-1.228c.945-.29 2.017-.425 3.137-.425 1.08 0 2.132.136 3.123.425m6.942-1.821a.617.617 0 0 1-.398.168h-19.577c-.107 0-.236-.067-.384-.19a.526.526 0 0 1-.182-.404v-2.084c0-.115.067-.236.209-.371.148-.115.276-.19.398-.19h19.536c.135 0 .276.062.398.169a.545.545 0 0 1 .155.391v2.118c0 .15-.048.277-.155.391M451.575-29.437h4.661v-5.235c0-.31.19-.472.533-.472h3.265a.55.55 0 0 1 .358.142.519.519 0 0 1 .155.33v19.893a.6.6 0 0 1-.155.412.522.522 0 0 1-.358.141h-3.265c-.344 0-.533-.154-.533-.472v-6.2h-4.634a.501.501 0 0 1-.344-.154.478.478 0 0 1-.169-.33v-2.233c0-.115.068-.23.169-.304a.518.518 0 0 1 .344-.142h4.634v-2.226h-4.661a.512.512 0 0 1-.358-.128.358.358 0 0 1-.168-.303v-2.274c0-.115.054-.222.168-.303a.526.526 0 0 1 .358-.142m4.297 21.195c-.385-.445-.924-.81-1.572-1.1-.654-.29-1.41-.492-2.266-.633a17.985 17.985 0 0 0-2.658-.203c-.992 0-1.91.075-2.753.203-.87.141-1.612.344-2.24.634-.633.29-1.105.654-1.476 1.1-.371.438-.527.977-.527 1.598 0 .594.169 1.093.54 1.518.364.418.87.755 1.498 1.032.647.27 1.376.472 2.232.6.864.123 1.775.19 2.726.19.91 0 1.8-.067 2.658-.19a9.717 9.717 0 0 0 2.266-.6c.648-.277 1.187-.614 1.572-1.032a2.16 2.16 0 0 0 .594-1.518c0-.62-.203-1.16-.594-1.599m-14.22-10.975c.755-.014 1.49-.027 2.199-.054v-10.76h-4.493v10.841c.783 0 1.559-.013 2.294-.027m18.328 15.28c-.62.843-1.45 1.551-2.476 2.151-1.038.587-2.253 1.046-3.65 1.356-1.409.304-2.9.452-4.478.452-1.714 0-3.258-.149-4.641-.452-1.424-.31-2.618-.762-3.61-1.342-1.011-.58-1.773-1.288-2.32-2.125-.54-.843-.816-1.794-.816-2.867 0-1.039.277-1.97.816-2.8.547-.829 1.309-1.53 2.32-2.11.992-.58 2.186-1.033 3.61-1.363 1.383-.317 2.927-.473 4.64-.473 1.58 0 3.07.15 4.48.466 1.396.303 2.61.755 3.65 1.329 1.025.58 1.854 1.281 2.475 2.111a4.76 4.76 0 0 1 .897 2.84 4.807 4.807 0 0 1-.897 2.827M432.127-19.23c.567.021 1.106.04 1.619.04h1.558v-10.84h-2.806c-.121 0-.263-.068-.425-.182-.128-.12-.21-.27-.21-.412v-2.293c0-.128.082-.25.21-.385.162-.115.304-.181.425-.181h18.22c.169 0 .304.06.439.168a.567.567 0 0 1 .141.398v2.334c0 .141-.04.283-.141.391a.703.703 0 0 1-.439.163h-2.874v10.57c.702-.04 1.397-.088 2.058-.141.661-.062 1.356-.108 2.07-.19a.672.672 0 0 1 .406.061.356.356 0 0 1 .222.27l.304 2.233a.597.597 0 0 1-.142.445c-.135.142-.25.236-.371.27-2.9.31-6.098.533-9.606.654-3.487.129-7.063.155-10.658.075-.169 0-.317-.054-.405-.163a.539.539 0 0 1-.148-.39v-2.369c0-.35.175-.526.553-.526M499.243-18.195a.567.567 0 0 1-.398.149h-5.005V-.413c0 .324-.155.48-.473.48h-3.305c-.33 0-.493-.156-.493-.48v-34.255c0-.317.162-.479.493-.479h3.305c.317 0 .473.163.473.48v13.06h5.005c.15 0 .276.047.398.135a.38.38 0 0 1 .155.324v2.59a.46.46 0 0 1-.155.364M484.368-29.58A24.233 24.233 0 0 1 483-23.078a24.594 24.594 0 0 1-3.056 5.93 30.742 30.742 0 0 1-4.695 5.194c-1.841 1.612-3.899 3.042-6.192 4.304a1.4 1.4 0 0 1-.6.136c-.244-.014-.385-.115-.52-.304l-1.484-1.842c-.122-.176-.162-.357-.108-.533a.761.761 0 0 1 .33-.431c3.677-2.017 6.665-4.5 8.945-7.461 2.267-2.968 3.663-6.125 4.149-9.491.08-.5.054-.823-.074-.978-.162-.163-.439-.25-.884-.25h-10.463c-.317 0-.485-.168-.485-.513v-2.59c0-.31.168-.452.485-.452h13.384c1.133 0 1.862.23 2.213.675.357.465.506 1.167.425 2.104M530.244-.412c0 .317-.155.472-.472.472h-3.319c-.303 0-.479-.155-.479-.472v-34.262c0-.31.176-.472.48-.472h3.318c.317 0 .472.163.472.472zM520.22-29.587c-.202 2.401-.702 4.674-1.518 6.793a24.342 24.342 0 0 1-3.19 5.936c-1.302 1.828-2.867 3.528-4.689 5.086a42.091 42.091 0 0 1-5.956 4.27.93.93 0 0 1-.654.128.746.746 0 0 1-.54-.337l-1.268-1.828c-.128-.19-.155-.358-.107-.54a.626.626 0 0 1 .33-.391c3.677-2.22 6.645-4.783 8.858-7.67 2.212-2.907 3.662-6.05 4.33-9.437.094-.5.067-.823-.088-.978-.149-.163-.452-.25-.924-.25h-10.476c-.344 0-.513-.168-.513-.512v-2.59c0-.311.169-.453.513-.453h13.296c1.093 0 1.841.223 2.199.675.344.465.472 1.167.398 2.098M568.993-19.303a.486.486 0 0 1-.33.142h-4.871v9.208c0 .317-.163.485-.492.485h-3.292c-.33 0-.5-.168-.5-.485V-34.67c0-.317.169-.479.5-.479h3.292c.33 0 .492.163.492.48v11.953h4.87c.12 0 .223.04.331.149.122.093.182.209.182.324v2.603c0 .128-.062.237-.182.338M564.959-.82a.742.742 0 0 1-.391.107h-20.082c-1.106 0-1.855-.202-2.253-.594-.405-.398-.594-1.086-.594-2.044v-7.09c0-.122.04-.236.163-.35a.52.52 0 0 1 .377-.168h3.205a.61.61 0 0 1 .411.168c.115.115.182.23.182.35v5.573c0 .242.053.411.141.472.107.088.277.128.52.128h17.93c.115 0 .25.034.364.12.136.088.202.19.202.317v2.665c0 .155-.067.27-.176.344m-9.113-29.62c0 .728-.027 1.47-.067 2.246-.054.782-.12 1.565-.196 2.354-.067.79-.162 1.552-.276 2.287-.12.722-.236 1.39-.385 1.99-.053.19-.128.364-.29.506a.476.476 0 0 1-.445.196l-2.914-.257c-.304-.026-.432-.27-.371-.715.12-.459.216-1.032.303-1.68.094-.654.19-1.322.264-1.976.067-.681.135-1.309.162-1.91.04-.586.067-1.065.067-1.409 0-.337-.08-.56-.27-.648-.181-.088-.431-.128-.775-.128h-11.684a.652.652 0 0 1-.371-.128c-.128-.088-.196-.196-.196-.324v-2.59c0-.15.067-.27.196-.33a.645.645 0 0 1 .371-.123h14.389c.789 0 1.41.216 1.828.634.452.425.66 1.093.66 2.004M536.25-17.484c1.127.04 2.233.067 3.373.067h3.494v-7.056c0-.364.169-.553.513-.553h3.164c.357 0 .513.19.513.553v6.948c1.767-.048 3.48-.136 5.167-.243a92.19 92.19 0 0 0 4.782-.432.72.72 0 0 1 .392.04c.136.054.216.156.243.331l.181 2.274c.027.176-.027.31-.107.445a.68.68 0 0 1-.344.222 93.115 93.115 0 0 1-5.37.472c-1.888.136-3.757.23-5.612.304a270.99 270.99 0 0 1-5.47.15 97.631 97.631 0 0 1-4.918-.04c-.142 0-.277-.054-.351-.17a.544.544 0 0 1-.176-.384v-2.367c0-.378.19-.56.526-.56" style="fill:#050000;fill-opacity:1;fill-rule:nonzero;stroke:none;stroke-width:6.74574" transform="translate(451.521 49.464)"/></svg>