<svg xmlns="http://www.w3.org/2000/svg" xml:space="preserve" width="1556.4772" height="300" viewBox="0 0 1556.4772 299.99999"><defs><radialGradient id="a" cx="0" cy="0" r="1" fx="0" fy="0" gradientTransform="matrix(55.64166 0 0 -55.64166 -201.447 350.63)" gradientUnits="userSpaceOnUse" spreadMethod="pad"><stop offset="0" style="stop-opacity:1;stop-color:#99def9"/><stop offset="0.148352" style="stop-opacity:1;stop-color:#99def9"/><stop offset="1" style="stop-opacity:1;stop-color:#5a8fd2"/></radialGradient><radialGradient id="b" cx="0" cy="0" r="1" fx="0" fy="0" gradientTransform="matrix(-55.64226 0 0 -55.64226 -96.291 350.63)" gradientUnits="userSpaceOnUse" spreadMethod="pad"><stop offset="0" style="stop-opacity:1;stop-color:#99def9"/><stop offset="0.148352" style="stop-opacity:1;stop-color:#99def9"/><stop offset="1" style="stop-opacity:1;stop-color:#5a8fd2"/></radialGradient></defs><path d="M-183.53 284.002s5.78 15.12 1.783 35.467c0 0-1.658 9.54-6.286 18.865 0 0-8.11 17.004-16.505 28.073 0 0-2.46 3.29-5.954 7.87 3.11-4.73 6.253-10.352 7.72-20.025 3.426-22.65-15.41-32.257-4.858-47.795l23.612-25.047c-.189.284-.3.978.487 2.592" style="fill:#4b5ab2;fill-opacity:1;fill-rule:nonzero;stroke:none;stroke-width:3.69328" transform="matrix(1.37243 0 0 -1.37243 337.49 685.764)"/><path d="M-238.183 414.223s-.953-3.387 3.848-9.337l-.011.011c10.493-13.133 16.886-21.495 24.11-30.994 3.49-4.58 5.695-7.494 5.695-7.494 8.398-11.068 16.509-28.072 16.509-28.072 4.627-9.33 6.286-18.87 6.286-18.87 3.996-20.345-1.784-35.466-1.784-35.466-.787-1.61-.676-2.304-.488-2.592.093-.167.21-.204.21-.204 1.053-.712 2.594 1.899 2.594 1.899.125.203.25.41.376.613 21.262 34.506 15.49 65.995 15.49 65.995-.477 7.283-2.157 14.297-4.214 20.46-4.292 12.883-10.216 22.02-10.216 22.02l-17.724 27.977h-33.454l-.04.004s-6.63.048-7.187-5.95" style="fill:url(#a);stroke:none;stroke-width:3.69328" transform="matrix(1.37243 0 0 -1.37243 337.49 685.764)"/><path d="M-205.96 452.04c0-11.025-8.935-19.974-19.974-19.974-11.036 0-19.973 8.95-19.973 19.974 0 11.032 8.937 19.98 19.973 19.98 11.039 0 19.973-8.948 19.973-19.98" style="fill:#5a8fd2;fill-opacity:1;fill-rule:nonzero;stroke:none;stroke-width:3.69328" transform="matrix(1.37243 0 0 -1.37243 337.49 685.764)"/><path d="M-114.206 284.002s-5.776 15.12-1.788 35.467c0 0 1.659 9.54 6.283 18.865 0 0 8.11 17.004 16.52 28.073 0 0 2.463 3.29 5.942 7.87-3.102-4.73-6.249-10.352-7.708-20.025-3.427-22.65 15.398-32.257 4.842-47.795l-23.604-25.047c.181.284.307.978-.487 2.592" style="fill:#4b5ab2;fill-opacity:1;fill-rule:nonzero;stroke:none;stroke-width:3.69328" transform="matrix(1.37243 0 0 -1.37243 337.49 685.764)"/><path d="m-66.737 420.173-.048-.004h-33.447l-17.728-27.977s-5.927-9.137-10.226-22.02c-2.054-6.164-3.73-13.177-4.203-20.46 0 0-5.78-31.49 15.486-65.996.129-.203.255-.41.38-.613 0 0 1.548-2.61 2.59-1.898 0 0 .114.037.213.203.181.288.31.983-.487 2.593 0 0-5.777 15.12-1.788 35.466 0 0 1.659 9.54 6.283 18.87 0 0 8.11 17.003 16.52 28.072 0 0 2.2 2.914 5.68 7.494 7.239 9.499 13.632 17.86 24.124 30.994l-.007-.011c4.79 5.95 3.841 9.336 3.841 9.336-.55 5.906-6.984 5.95-7.18 5.95h-.003" style="fill:url(#b);stroke:none;stroke-width:3.69328" transform="matrix(1.37243 0 0 -1.37243 337.49 685.764)"/><path d="M-91.776 452.04c0-11.025 8.942-19.974 19.977-19.974 11.025 0 19.97 8.95 19.97 19.974 0 11.032-8.945 19.98-19.97 19.98-11.035 0-19.977-8.948-19.977-19.98" style="fill:#5a8fd2;fill-opacity:1;fill-rule:nonzero;stroke:none;stroke-width:3.69328" transform="matrix(1.37243 0 0 -1.37243 337.49 685.764)"/><path d="M-168.884 479.707c0-11.036 8.945-19.977 19.977-19.977 11.035 0 19.97 8.941 19.97 19.977 0 11.035-8.935 19.966-19.97 19.966-11.032 0-19.977-8.93-19.977-19.966M-139.688 447.852l-33.472-.01c.019-.023.026-.049.056-.075.048-.114.08-.214.122-.321 10.108-25.465 7.449-52.267 7.449-52.267s-.399-10.859-4.03-25.008c2.058-6.16 3.742-13.177 4.215-20.457 0 0 1.414-7.722.254-19.722-1.17-12.21-5.008-28.852-15.744-46.273 43.19 59.602 53.866 137.217 53.866 137.217 2.781 20.18 5.492 27.178-12.716 26.916" style="fill:#4b5ab2;fill-opacity:1;fill-rule:nonzero;stroke:none;stroke-width:3.69328" transform="matrix(1.37243 0 0 -1.37243 337.49 685.764)"/><path d="M857.401 402.274c.07.056 13.714.03 20.313.011v-10.164h9.256v63.325h-9.256v-47.458h-20.313zm-18.939-.953h9.507v11.9h21.864v5.89h-49.309v-5.89h17.938zm7.686 52.822c6.15 0 11.253-5.522 11.253-13.008 0-7.494-5.104-13.019-11.253-13.019-6.172 0-11.287 5.525-11.287 13.019 0 7.486 5.115 13.008 11.287 13.008m0-31.607c11.811 0 21.207 8.276 21.207 18.599 0 10.341-9.396 18.699-21.207 18.699-11.848 0-21.236-8.358-21.236-18.7 0-10.322 9.388-18.598 21.236-18.598m-2.282-41.531v16.889h-9.237v-14.7c0-5.259 3.512-8.313 8.28-8.313h44.245v6.124zm-304.504 57.36h33.793v-9.713h-33.793Zm21.52-15.84h21.54v32.6h-9.267v-10.633h-33.793v10.633h-9.245v-24.283c0-5.256 3.088-8.318 8.336-8.318h13.185v-8.963c-15.91-.004-30.54-.004-30.577.033v-6.13h70.398v6.13s-14.647-.011-30.577-.026zm-32.42-22.85v-6.14h45.207v-18.654h9.24v24.793s-54.365-.103-54.446 0m-273.647 31.378c3.417-8.58 18.965-19.534 29.166-19.534l4.52 4.813c-12.12.347-29.01 14.998-29.01 31.2h-.007l-.007 7.86h-9.237c.166-.1 0-7.86 0-7.86l-.007-.006c0-16.2-16.982-30.754-29.1-31.194l4.521-4.812c10.36 0 25.905 10.954 29.163 19.534m3.682-22.437h-8.705c.184-.11 0-16.56 0-16.56s-30.056-.082-30.137 0v-6.135h70.42v6.134h-31.563zm55.432-6.936h-9.255v-18.485c0-5.26 3.516-8.314 8.284-8.314h43.832v6.124h-42.86zm33.61 44.39h-24.17v-6.131c.081.074 19.058.018 24.17 0v-6.693h-24.17v-6.134c.081.074 19.058.018 24.17 0V395.9h9.25v59.547h-9.25zm-9.138-28.106c-.17-.082-33.376 0-33.376 0v37.431h-9.245v-35.234c0-5.263 3.502-8.325 8.262-8.325h34.359zm-138.325 16.054s-17.502-.096-17.572 0v-6.138h17.572v-18.463h9.507l.018 46.137h-9.525zm-12.79-57.674c-6.747 0-12.19 6.112-12.19 13.628 0 7.52 5.443 13.625 12.19 13.625 6.733 0 12.196-6.105 12.196-13.625 0-7.516-5.463-13.628-12.195-13.628m0 33.24c-12.122 0-21.924-8.78-21.924-19.612 0-10.836 9.802-19.622 21.924-19.622 12.102 0 21.927 8.786 21.927 19.622 0 10.833-9.825 19.612-21.927 19.612m.31 1.909 4.938 4.388c-8.908 1.695-19.013 12.147-20.882 25.694h17.31v6.142h-17.524l-.015 9.632h-9.233c.166-.082 0-9.632 0-9.632s-17.444-.089-17.521 0v-6.142h17.244c-1.85-13.547-11.97-24.077-20.86-25.694l4.923-4.388c7.346.953 18.393 10.094 20.812 17.28 2.508-7.098 13.55-16.327 20.808-17.28m221.316-35.149c-6.736 0-12.214 6.112-12.214 13.628 0 7.52 5.478 13.625 12.214 13.625 6.733 0 12.199-6.105 12.199-13.625 0-7.516-5.466-13.628-12.199-13.628m0 33.24c-12.1 0-21.916-8.78-21.916-19.612 0-10.836 9.817-19.622 21.916-19.622 12.118 0 21.923 8.786 21.923 19.622 0 10.833-9.805 19.612-21.923 19.612m21.698 30.47v15.393h-9.24V410.61h9.24v23.301h12.55v6.142c-.092-.11-12.55 0-12.55 0m-20.394-26.632 4.934 4.384c-9.953 1.935-20.94 12.867-20.94 29.166v8.313h-9.592v-8.313c0-16.203-11.006-27.334-20.949-29.166l4.92-4.384c7.364.975 18.222 9.292 20.826 16.465 2.678-7.099 13.529-15.49 20.8-16.465m-280.755 23.412.044 17.24s-52.899-.081-52.991 0v-6.12h43.694V436.5c0-4.554-.34-9.008-1.507-12.443H67.38v-6.116h30.994l-.03-.015v-14.001s-22.787-.048-22.865.037v-6.172l44.393-.055v-22.754h9.263l.06 28.98-21.607-.036v14.001h30.895v6.131h-12.026c1.588 2.364 3.007 8.317 3.007 12.775m599.309-4.155h-9.485v22.77h-8.646c.248-.178 0-80.566 0-80.566h8.646v51.673h9.485V374.88h8.66v80.565h-8.66zm-57.357 20.15v-6.134h21.997v-2.016c0-23.032-11.131-35.378-26.695-39.145l5.946-3.853c15.966 3.24 30.09 18.293 30.09 43.965v7.184s-31.253-.078-31.338 0m95.885-63.06h40.818l.052 20.842s-50.358-.085-50.42 0v-6.046h41.117v-8.742h-40.811v-12.627c0-5.26 3.076-8.314 8.354-8.314h43.363v6.046H767.3zm40.818 46.865h12.528v6.116c-.081-.078-12.528 0-12.528 0v12.697h-9.251v-39.145h9.251zm-30.573-12.628H757.18v12.886h20.365zm9.248 30.307h-9.233l-.015-11.379H757.18v11.38h-9.255v-28.114c0-5.259 3.088-8.317 8.373-8.317h30.495Zm-163.202-16.815v9.196h16.12v6.135s-41.711-.078-41.796 0v-6.135h16.084v-9.196c0-15.146-10.732-28.376-20.933-30.392l4.934-4.543c7.94.79 18.381 10.995 20.812 18.005 2.419-6.914 12.867-17.395 20.804-18.005l4.945 4.543c-10.13 2.016-20.97 15.246-20.97 30.392m27.995-62.616h9.251v80.565h-9.251Zm-596.669 56.06h12.547l-.015 6.113c-.07-.078-12.532 0-12.532 0v18.392H45.67V395.9h9.248zM15.03 401.68H5.767l.011-18.485c0-5.26 3.509-8.314 8.262-8.314h43.84v6.124H15.03ZM3.378 426.775c0 7.527 4.83 13.632 10.773 13.632 5.931 0 10.747-6.105 10.747-13.632 0-7.523-4.816-13.624-10.747-13.624-5.942 0-10.773 6.101-10.773 13.624m31.064 0c0 5.972-2.763 11.317-7.113 14.918h8.945v6.127H18.753l-.011 9.628h-9.23v-9.628s-17.45-.082-17.532 0v-6.135H.96c-4.351-3.593-7.11-8.938-7.11-14.91 0-10.84 9.097-19.618 20.302-19.618s20.29 8.779 20.29 19.618m486.853 14.666c-.066-.092-12.546 0-12.546 0v14.005h-9.244v-30.392c-3.095-1.566-10.138-2.973-15.985-2.973h-25.454v25.484h28.546v6.138h-37.783v-29.875c0-5.233 3.18-7.881 7.94-7.881h26.256c5.684 0 12.809 2.286 16.48 4.65v-8.152h9.244v22.866h12.546zm-52.773-41.161h30.983v-19.275H468.52zm-9.248-17.085c0-5.26 3.006-8.314 8.27-8.314h41.205v31.53h-49.475zM-.66 347.088h4.352v-16.27h.151a98.154 98.154 0 0 0 2.652 3.602l10.311 12.668h5.411l-12.214-14.323 13.167-19.43h-5.16L6.901 329.91l-3.21-3.7v-12.875h-4.35zM29.017 325.4c0-5.3 3.065-9.307 7.375-9.307 4.196 0 7.354 3.952 7.354 9.418 0 4.107-2.054 9.315-7.265 9.315-5.208 0-7.464-4.813-7.464-9.426m19.238.255c0-8.96-6.212-12.867-12.077-12.867-6.563 0-11.608 4.805-11.608 12.472 0 8.1 5.296 12.867 12.014 12.867 6.962 0 11.671-5.067 11.671-12.472M53.795 330.014c0 2.854-.044 5.31-.196 7.56h3.86l.148-4.76h.195c1.108 3.268 3.764 5.314 6.711 5.314.502 0 .853-.056 1.245-.16v-4.154c-.436.114-.89.162-1.492.162-3.1 0-5.3-2.348-5.91-5.672-.096-.602-.2-1.293-.2-2.054v-12.915h-4.36zM85.04 327.806c.048 2.8-1.145 7.165-6.105 7.165-4.454 0-6.415-4.107-6.762-7.165zm-12.915-3.154c.1-5.965 3.904-8.413 8.31-8.413 3.157 0 5.056.561 6.714 1.252l.75-3.15c-1.555-.695-4.203-1.552-8.066-1.552-7.464 0-11.922 4.95-11.922 12.266 0 7.312 4.314 13.074 11.371 13.074 7.911 0 10.02-6.97 10.02-11.423 0-.909-.096-1.6-.162-2.054zM107.52 325.71c-4.811.085-10.26-.76-10.26-5.462 0-2.851 1.892-4.203 4.152-4.203 3.143 0 5.16 2.01 5.861 4.055.156.44.248.953.248 1.396zm4.256-6.559c0-2.09.1-4.158.398-5.817h-4.003l-.351 3.066h-.148c-1.348-1.906-3.959-3.612-7.408-3.612-4.909 0-7.417 3.453-7.417 6.958 0 5.865 5.212 9.052 14.582 9.008v.52c0 1.988-.55 5.589-5.522 5.589-2.253 0-4.605-.691-6.312-1.795l-.993 2.902c1.998 1.308 4.904 2.157 7.955 2.157 7.409 0 9.219-5.06 9.219-9.905zM134.845 313.336v14.333l-10.655 19.423h4.95l4.752-9.314c1.315-2.56 2.316-4.613 3.35-6.962h.115c.949 2.194 2.097 4.403 3.39 6.962l4.864 9.314h4.96l-11.309-19.39v-14.366zM153.175 325.4c0-5.3 3.047-9.307 7.364-9.307 4.203 0 7.353 3.952 7.353 9.418 0 4.107-2.042 9.315-7.257 9.315-5.211 0-7.46-4.813-7.46-9.426m19.223.255c0-8.96-6.205-12.867-12.07-12.867-6.548 0-11.611 4.805-11.611 12.472 0 8.1 5.303 12.867 12.025 12.867 6.955 0 11.656-5.067 11.656-12.472M198.237 319.947c0-2.508.044-4.698.189-6.61h-3.897l-.255 3.951h-.107c-1.137-1.946-3.7-4.498-8-4.498-3.804 0-8.372 2.101-8.372 10.618v14.164h4.417v-13.407c0-4.624 1.403-7.72 5.407-7.72 2.944 0 5.004 2.047 5.806 4.008.247.65.41 1.455.41 2.25v14.869h4.402zM210.846 343.384v-5.81h6.304v-3.364h-6.304v-13.053c0-3.01.846-4.712 3.31-4.712 1.192 0 1.894.096 2.548.295l.203-3.309c-.857-.34-2.213-.643-3.904-.643-2.057 0-3.708.695-4.768 1.903-1.252 1.3-1.699 3.456-1.699 6.308v13.21h-3.752v3.365h3.752v4.462zM222.106 348.887h4.392v-15.109h.122c.694 1.245 1.795 2.338 3.15 3.088 1.304.76 2.862 1.263 4.506 1.263 3.246 0 8.454-2.013 8.454-10.375v-14.418h-4.399v13.927c0 3.897-1.459 7.224-5.606 7.224-2.855 0-5.112-2.024-5.91-4.424-.258-.595-.317-1.263-.317-2.117v-14.61h-4.392zM284.24 314.429c-1.596-.783-4.813-1.64-8.916-1.64-9.514 0-16.675 6.057-16.675 17.118 0 10.57 7.16 17.724 17.62 17.724 4.21 0 6.873-.893 8.03-1.503l-1.06-3.55c-1.655.806-3.997 1.404-6.807 1.404-7.908 0-13.174-5.06-13.174-13.92 0-8.262 4.753-13.569 12.967-13.569 2.648 0 5.359.55 7.124 1.396zM291.698 325.4c0-5.3 3.058-9.307 7.364-9.307 4.207 0 7.361 3.952 7.361 9.418 0 4.107-2.05 9.315-7.272 9.315-5.204 0-7.453-4.813-7.453-9.426m19.235.255c0-8.96-6.216-12.867-12.078-12.867-6.559 0-11.611 4.805-11.611 12.472 0 8.1 5.296 12.867 12.018 12.867 6.969 0 11.67-5.067 11.67-12.472M336.764 319.947c0-2.508.052-4.698.203-6.61h-3.904l-.254 3.951h-.1c-1.149-1.946-3.7-4.498-8.01-4.498-3.812 0-8.366 2.101-8.366 10.618v14.164h4.406v-13.407c0-4.624 1.403-7.72 5.407-7.72 2.97 0 5 2.047 5.81 4.008.269.65.398 1.455.398 2.25v14.869h4.41zM344.071 331.013c0 2.5-.055 4.568-.2 6.559h3.897l.255-4.007h.1c1.211 2.312 4.014 4.565 8.014 4.565 3.357 0 8.554-2.013 8.554-10.323v-14.47H360.3v13.975c0 3.904-1.46 7.172-5.614 7.172-2.91 0-5.16-2.06-5.91-4.52-.203-.554-.299-1.297-.299-2.05v-14.577h-4.406zM371.252 317.83c1.303-.846 3.608-1.736 5.798-1.736 3.217 0 4.72 1.603 4.72 3.597 0 2.11-1.252 3.269-4.513 4.473-4.355 1.547-6.404 3.937-6.404 6.847 0 3.897 3.157 7.117 8.354 7.117 2.452 0 4.617-.698 5.972-1.503l-1.104-3.202a9.483 9.483 0 0 1-4.96 1.403c-2.604 0-4.052-1.51-4.052-3.32 0-1.998 1.448-2.91 4.598-4.092 4.214-1.618 6.356-3.704 6.356-7.313 0-4.258-3.301-7.313-9.052-7.313-2.663 0-5.115.695-6.81 1.707zM407.048 327.806c.056 2.8-1.152 7.165-6.12 7.165-4.446 0-6.4-4.107-6.754-7.165zm-12.911-3.154c.1-5.965 3.903-8.413 8.298-8.413 3.158 0 5.068.561 6.711 1.252l.754-3.15c-1.548-.695-4.21-1.552-8.044-1.552-7.476 0-11.919 4.95-11.919 12.266 0 7.312 4.3 13.074 11.357 13.074 7.915 0 10.005-6.97 10.005-11.423 0-.909-.096-1.6-.133-2.054zM416.761 348.888h4.395v-35.551h-4.395zM428.569 337.572h4.402v-24.235h-4.402zm4.904 6.807c.06-1.503-1.041-2.692-2.8-2.692-1.55 0-2.655 1.189-2.655 2.692 0 1.551 1.16 2.755 2.763 2.755 1.65 0 2.692-1.204 2.692-2.755M440.288 331.013c0 2.5-.052 4.568-.214 6.559h3.915l.247-4.007h.115c1.189 2.312 4.003 4.565 8 4.565 3.353 0 8.568-2.013 8.568-10.323v-14.47h-4.407v13.975c0 3.904-1.451 7.172-5.62 7.172-2.896 0-5.142-2.06-5.895-4.52-.203-.554-.31-1.297-.31-2.05v-14.577h-4.4zM484.38 328c0 .754-.037 1.412-.23 2.014-.8 2.544-2.965 4.664-6.163 4.664-4.203 0-7.22-3.568-7.22-9.167 0-4.753 2.422-8.712 7.16-8.712 2.7 0 5.164 1.695 6.117 4.498.25.754.336 1.6.336 2.364zm4.365-11.157c0-5.554-1.093-8.963-3.453-11.061-2.364-2.205-5.758-2.9-8.812-2.9-2.888 0-6.098.695-8.055 1.991l1.09 3.354c1.606-1.005 4.106-1.902 7.113-1.902 4.513 0 7.818 2.36 7.818 8.461v2.704h-.103c-1.344-2.242-3.948-4.06-7.715-4.06-6.006 0-10.312 5.112-10.312 11.83 0 8.207 5.363 12.868 10.91 12.868 4.221 0 6.522-2.205 7.56-4.21h.115l.203 3.656h3.844c-.092-1.758-.203-3.7-.203-6.656zM525.926 317.887c-2.47 2.143-6.604 6.19-7.723 7.394-1.119 1.179-3.87 4.288-4.594 5.356-1.455-1.068-2.962-3.095-2.962-6.53 0-5.366 3.785-8.797 8.236-8.797 3.313 0 6.138 1.72 7.043 2.577m-13.429 14.375c-1.798 2.415-2.146 4.17-2.197 6.086-.045 3.41 2.958 7.911 10.433 7.911 2.098 0 4.044-.443 5.193-.894.739-.262.739-.616.739-1.122 0-1.422-.359-4.853-.473-5.496-.089-.635-.266-.731-.52-.731-.267 0-.285.184-.285.823 0 1.116-.307 2.475-1.252 3.594-.865 1.034-2.368 1.946-4.765 1.946-1.82 0-4.598-1.252-4.598-4.908 0-4.018 3.69-7.457 7.125-11.283 1.455-1.677 6.74-6.445 7.552-7.165.865 1.197 2.065 3.989 2.065 6.611 0 .643-.185 1.407-.82 1.965-.554.524-1.455.66-2.105.66-.244 0-.521.082-.521.326 0 .354.355.432.69.432 1.042 0 2.756-.04 5.15-.3.815-.08 1.454-.331 1.454-.86 0-3.29-1.754-7.283-4.192-10.167 2.874-2.36 4.802-3.516 5.969-4.203 1.366-.816 3.726-1.507 4.576-1.507.402 0 .605-.033.605-.388 0-.255-.325-.391-1.277-.391h-3.306c-4.886 0-6.452.483-10.138 3.316-1.407-1.289-4.288-3.904-10.164-3.904-9.185 0-11.933 5.743-11.933 9.496 0 5.008 4.425 8.908 6.995 10.153M557.539 313.336l-8.554 33.756h4.613l4.003-17.077c1.001-4.218 1.899-8.414 2.482-11.678h.115c.554 3.357 1.599 7.375 2.762 11.726l4.491 17.03h4.569l4.103-17.137c.95-4.004 1.865-8.011 2.35-11.568h.088c.724 3.72 1.665 7.472 2.718 11.675l4.447 17.03h4.469l-9.566-33.757h-4.554l-4.258 17.584c-1.053 4.299-1.747 7.604-2.209 11.013h-.11c-.584-3.368-1.33-6.666-2.59-11.013l-4.812-17.584zM607.957 327.806c.067 2.8-1.152 7.165-6.112 7.165-4.454 0-6.4-4.107-6.763-7.165zm-12.923-3.154c.111-5.965 3.908-8.413 8.314-8.413 3.154 0 5.056.561 6.707 1.252l.75-3.15c-1.544-.695-4.192-1.552-8.055-1.552-7.46 0-11.919 4.95-11.919 12.266 0 7.312 4.314 13.074 11.357 13.074 7.926 0 10.031-6.97 10.031-11.423 0-.909-.107-1.6-.159-2.054zM617.669 348.888h4.402v-35.551h-4.402zM629.933 313.336v20.87h-3.41v3.365h3.41v1.156c0 3.394.76 6.508 2.796 8.44 1.665 1.628 3.86 2.278 5.92 2.278 1.529 0 2.892-.362 3.752-.71l-.598-3.39c-.657.289-1.566.54-2.814.54-3.753 0-4.702-3.306-4.702-7.01v-1.304h5.865v-3.364h-5.865v-20.871zM656.853 325.71c-4.797.085-10.26-.76-10.26-5.462 0-2.851 1.91-4.203 4.163-4.203 3.143 0 5.163 2.01 5.857 4.055.155.44.24.953.24 1.396zm4.255-6.559c0-2.09.107-4.158.399-5.817h-3.978l-.377 3.066h-.144c-1.344-1.906-3.948-3.612-7.408-3.612-4.901 0-7.417 3.453-7.417 6.958 0 5.865 5.204 9.052 14.585 9.008v.52c0 1.988-.55 5.589-5.514 5.589-2.264 0-4.613-.691-6.308-1.795l-.986 2.902c1.998 1.308 4.897 2.157 7.944 2.157 7.413 0 9.204-5.06 9.204-9.905zM668.226 330.014c0 2.854-.045 5.31-.204 7.56h3.852l.152-4.76h.2c1.096 3.268 3.76 5.314 6.714 5.314.502 0 .842-.056 1.248-.16v-4.154c-.45.114-.897.162-1.492.162-3.106 0-5.315-2.348-5.917-5.672-.107-.602-.2-1.293-.2-2.054v-12.915h-4.353zM699.46 327.806c.059 2.8-1.149 7.165-6.094 7.165-4.462 0-6.427-4.107-6.766-7.165zm-12.92-3.154c.1-5.965 3.912-8.413 8.314-8.413 3.173 0 5.075.561 6.718 1.252l.754-3.15c-1.57-.695-4.21-1.552-8.063-1.552-7.479 0-11.933 4.95-11.933 12.266 0 7.312 4.31 13.074 11.372 13.074 7.914 0 10.016-6.97 10.016-11.423 0-.909-.103-1.6-.133-2.054zM724.29 313.337h-4.358v33.753h4.358zM732.245 331.013c0 2.5-.045 4.568-.207 6.559h3.915l.262-4.007h.092c1.193 2.312 4.004 4.565 8.015 4.565 3.35 0 8.568-2.013 8.568-10.323v-14.47h-4.417v13.975c0 3.904-1.44 7.172-5.618 7.172-2.895 0-5.152-2.06-5.894-4.52-.21-.554-.314-1.297-.314-2.05v-14.577h-4.403zM759.421 317.83c1.315-.846 3.627-1.736 5.817-1.736 3.198 0 4.705 1.603 4.705 3.597 0 2.11-1.248 3.269-4.494 4.473-4.377 1.547-6.423 3.937-6.423 6.847 0 3.897 3.158 7.117 8.365 7.117 2.456 0 4.61-.698 5.969-1.503l-1.101-3.202a9.498 9.498 0 0 1-4.975 1.403c-2.589 0-4.037-1.51-4.037-3.32 0-1.998 1.448-2.91 4.599-4.092 4.199-1.618 6.356-3.704 6.356-7.313 0-4.258-3.317-7.313-9.06-7.313-2.648 0-5.108.695-6.803 1.707zM785.155 343.384v-5.81h6.327v-3.364h-6.327v-13.053c0-3.01.857-4.712 3.313-4.712 1.208 0 1.906.096 2.545.295l.2-3.309c-.84-.34-2.195-.643-3.894-.643-2.06 0-3.708.695-4.753 1.903-1.255 1.3-1.717 3.456-1.717 6.308v13.21h-3.753v3.365h3.753v4.462zM796.427 337.572h4.403v-24.235h-4.403zm4.905 6.807c.066-1.503-1.042-2.692-2.792-2.692-1.566 0-2.656 1.189-2.656 2.692 0 1.551 1.134 2.755 2.74 2.755 1.666 0 2.708-1.204 2.708-2.755M813.457 343.384v-5.81h6.312v-3.364h-6.312v-13.053c0-3.01.842-4.712 3.287-4.712 1.219 0 1.906.096 2.57.295l.193-3.309c-.857-.34-2.201-.643-3.908-.643-2.053 0-3.719.695-4.738 1.903-1.263 1.3-1.725 3.456-1.725 6.308v13.21h-3.752v3.365h3.752v4.462zM844.995 319.947c0-2.508.044-4.698.188-6.61h-3.897l-.254 3.951h-.107c-1.145-1.946-3.686-4.498-7.996-4.498-3.804 0-8.362 2.101-8.362 10.618v14.164h4.395v-13.407c0-4.624 1.403-7.72 5.418-7.72 2.966 0 5 2.047 5.813 4.008.23.65.384 1.455.384 2.25v14.869h4.418zM857.6 343.384v-5.81h6.319v-3.364h-6.32v-13.053c0-3.01.846-4.712 3.31-4.712 1.197 0 1.898.096 2.545.295l.217-3.309c-.864-.34-2.2-.643-3.914-.643-2.046 0-3.701.695-4.761 1.903-1.241 1.3-1.703 3.456-1.703 6.308v13.21h-3.752v3.365h3.752v4.462zM883.944 327.806c.036 2.8-1.153 7.165-6.105 7.165-4.47 0-6.43-4.107-6.774-7.165zm-12.93-3.154c.1-5.965 3.914-8.413 8.317-8.413 3.15 0 5.06.561 6.714 1.252l.757-3.15c-1.555-.695-4.218-1.552-8.073-1.552-7.46 0-11.908 4.95-11.908 12.266 0 7.312 4.292 13.074 11.357 13.074 7.922 0 10.02-6.97 10.02-11.423 0-.909-.092-1.6-.148-2.054z" style="fill:#231f20;fill-opacity:1;fill-rule:nonzero;stroke:none;stroke-width:3.69328" transform="matrix(1.37243 0 0 -1.37243 337.49 685.764)"/></svg>