<svg xmlns="http://www.w3.org/2000/svg" width="715.59644pt" height="149.99973pt" viewBox="0 0 715.59646 149.99974"><symbol id="a" transform="translate(-264.47 -474.783)" viewBox="0 0 1826 2055"><image width="1826" height="2055"/></symbol><path fill="#2c292a" d="M218.009 105.178h5.8l-7.058 11.322 7.058 13.902h-5.942l-6.043-12.928h-.069v12.928h-5.274v-25.224h5.274v10.796h.069zM225.555 121.354c0-4.821.7-8.943 7.196-8.943 6.5 0 7.2 4.122 7.2 8.943 0 5.522-.842 9.401-7.2 9.401-6.359 0-7.196-3.879-7.196-9.4m9.47-.28c0-3.668-.174-5.521-2.274-5.521-2.095 0-2.269 1.853-2.269 5.521 0 5.38.453 6.533 2.269 6.533 1.82 0 2.274-1.153 2.274-6.533M248.125 112.76v2.268h.068c.91-2.021 2.585-2.616 4.58-2.616v4.4c-4.332-.279-4.406 2.237-4.406 3.985v9.606h-4.922V112.76zM259.62 122.368c0 2.094.068 5.242 2.236 5.242 1.748 0 2.095-1.679 2.095-3.148h4.995c-.068 1.922-.7 3.496-1.884 4.58-1.153 1.084-2.9 1.71-5.206 1.71-6.358 0-7.2-3.879-7.2-9.4 0-4.817.7-8.943 7.2-8.943 6.638 0 7.37 4.3 7.196 9.959zm4.505-2.759c0-1.716.068-4.158-2.269-4.158-2.274 0-2.237 2.653-2.237 4.158zM285.928 127.12c0 1.083.142 2.2.242 3.284h-4.574l-.21-2.343h-.07c-1.047 1.816-2.478 2.69-4.61 2.69-3.427 0-4.685-2.548-4.685-5.622 0-5.837 4.506-6.08 9.085-6.01v-1.364c0-1.5-.21-2.584-1.99-2.584-1.715 0-1.852 1.294-1.852 2.69h-4.822c0-2.133.663-3.496 1.816-4.296 1.116-.842 2.727-1.153 4.611-1.153 6.253 0 7.059 2.69 7.059 5.9zm-9.085-2.201c0 1.258.21 2.795 1.816 2.795 2.9 0 2.447-3.916 2.447-5.838-2.447.106-4.263-.105-4.263 3.043M298.016 105.177h5.274V130.4h-5.274zM312.41 114.542h.068c.49-.806 1.084-1.327 1.747-1.643.7-.347 1.506-.49 2.411-.49 2.342 0 4.406 1.4 4.406 3.843v14.15h-4.927v-12.155c0-1.574-.279-2.795-1.853-2.795-1.574 0-1.853 1.221-1.853 2.795v12.154h-4.927v-17.644h4.927zM328.83 124.743c-.036.805 0 1.574.248 2.132.279.558.8.837 1.779.837.98 0 1.816-.627 1.816-1.816 0-3.737-8.664-2.9-8.664-8.527 0-3.806 3.774-4.959 6.953-4.959 3.353 0 6.396 1.606 6.111 5.417h-4.816c0-1.227-.142-1.958-.49-2.274-.315-.31-.736-.385-1.257-.385-1.085 0-1.68.7-1.68 1.89 0 2.795 8.665 2.653 8.665 8.311 0 3.08-2.517 5.385-6.601 5.385-4.3 0-7.164-1.084-6.885-6.01zM338.473 112.76h1.99v-2.796l4.926-2.2v4.995h2.553v3.043h-2.553v9.432c0 1.327-.032 2.2 1.574 2.2.316 0 .626 0 .874-.068v3.037c-.664.069-1.364.174-2.553.174-4.259 0-4.822-2.827-4.822-3.911v-10.864h-1.99zM350.595 109.056h4.927v-3.88h-4.927zm0 21.35h4.927v-17.65h-4.927zM357.898 112.76h1.99v-2.796l4.926-2.2v4.995h2.553v3.043h-2.553v9.432c0 1.327-.031 2.2 1.574 2.2.316 0 .626 0 .874-.068v3.037c-.663.069-1.364.174-2.553.174-4.258 0-4.822-2.827-4.822-3.911v-10.864h-1.99zM378.232 128.621h-.069c-.979 1.574-2.305 2.132-4.158 2.132-2.342 0-4.4-1.4-4.4-3.842v-14.15h4.921v12.228c0 1.569.284 2.722 1.853 2.722 1.574 0 1.853-1.153 1.853-2.722v-12.227h4.927v14.149c0 1.152.068 2.337.173 3.495h-5.1zM385.08 112.76h1.989v-2.796l4.927-2.2v4.995h2.553v3.043h-2.553v9.432c0 1.327-.032 2.2 1.574 2.2.316 0 .626 0 .873-.068v3.037c-.663.069-1.363.174-2.552.174-4.259 0-4.822-2.827-4.822-3.911v-10.864h-1.99zM401.326 122.368c0 2.094.068 5.242 2.237 5.242 1.747 0 2.095-1.679 2.095-3.148h4.995c-.068 1.922-.7 3.496-1.884 4.58-1.153 1.084-2.9 1.71-5.206 1.71-6.359 0-7.2-3.879-7.2-9.4 0-4.817.7-8.943 7.2-8.943 6.637 0 7.369 4.3 7.195 9.959zm4.505-2.759c0-1.716.069-4.158-2.268-4.158-2.274 0-2.237 2.653-2.237 4.158zM421.589 121.354c0-4.821.7-8.943 7.195-8.943 6.501 0 7.201 4.122 7.201 8.943 0 5.522-.842 9.401-7.2 9.401-6.36 0-7.196-3.879-7.196-9.4m9.47-.28c0-3.668-.174-5.521-2.275-5.521-2.095 0-2.268 1.853-2.268 5.521 0 5.38.452 6.533 2.268 6.533 1.822 0 2.274-1.153 2.274-6.533M447.059 108.218c-1.99-.142-2.41.626-2.41 2.41v2.132h2.305v3.037h-2.306v14.607h-4.927v-14.607h-2.2v-3.037h2.237c-.037-5.069-.458-7.758 5.553-7.758.595 0 1.153.036 1.748.073zM457.225 105.178h9.501c4.822 0 6.711 2.937 6.711 7.548 0 2.863-.842 7.406-7.021 7.406h-3.917v10.27h-5.274zm5.274 11.075h2.938c1.573 0 2.652-1.711 2.652-3.39 0-2.058-.558-3.806-2.931-3.806h-2.659zM489.752 127.12c0 1.083.142 2.2.248 3.284h-4.58l-.21-2.343h-.069c-1.047 1.816-2.479 2.69-4.61 2.69-3.428 0-4.686-2.548-4.686-5.622 0-5.837 4.506-6.08 9.086-6.01v-1.364c0-1.5-.21-2.584-1.99-2.584-1.716 0-1.853 1.294-1.853 2.69h-4.821c0-2.133.663-3.496 1.816-4.296 1.115-.842 2.726-1.153 4.61-1.153 6.254 0 7.06 2.69 7.06 5.9zm-9.085-2.201c0 1.258.21 2.795 1.816 2.795 2.9 0 2.448-3.916 2.448-5.838-2.448.106-4.264-.105-4.264 3.043M491.848 112.76h1.99v-2.796l4.927-2.2v4.995h2.553v3.043h-2.553v9.432c0 1.327-.032 2.2 1.573 2.2.316 0 .627 0 .874-.068v3.037c-.663.069-1.363.174-2.553.174-4.258 0-4.821-2.827-4.821-3.911v-10.864h-1.99zM508.094 122.368c0 2.094.068 5.242 2.237 5.242 1.748 0 2.095-1.679 2.095-3.148h4.995c-.068 1.922-.695 3.496-1.884 4.58-1.153 1.084-2.9 1.71-5.206 1.71-6.358 0-7.2-3.879-7.2-9.4 0-4.817.7-8.943 7.2-8.943 6.638 0 7.37 4.3 7.196 9.959zm4.506-2.759c0-1.716.073-4.158-2.269-4.158-2.274 0-2.237 2.653-2.237 4.158zM525.947 114.542h.069c.49-.806 1.084-1.327 1.747-1.643.7-.347 1.506-.49 2.411-.49 2.342 0 4.406 1.4 4.406 3.843v14.15h-4.927v-12.155c0-1.574-.279-2.795-1.853-2.795-1.574 0-1.853 1.221-1.853 2.795v12.154h-4.926v-17.644h4.926zM536.499 112.76h1.99v-2.796l4.926-2.2v4.995h2.553v3.043h-2.553v9.432c0 1.327-.031 2.2 1.574 2.2.316 0 .627 0 .874-.068v3.037c-.663.069-1.363.174-2.553.174-4.263 0-4.821-2.827-4.821-3.911v-10.864h-1.99ZM556.205 105.177h5.274V130.4h-5.274zM570.598 114.542h.068c.49-.806 1.084-1.327 1.748-1.643.7-.347 1.505-.49 2.41-.49 2.343 0 4.4 1.4 4.4 3.843v14.15h-4.92v-12.155c0-1.574-.285-2.795-1.853-2.795-1.574 0-1.853 1.221-1.853 2.795v12.154h-4.927v-17.644h4.927zM590.721 108.218c-1.99-.142-2.41.626-2.41 2.41v2.132h2.305v3.037h-2.305v14.607h-4.927v-14.607h-2.2v-3.037h2.237c-.037-5.069-.458-7.758 5.553-7.758.595 0 1.153.036 1.747.073zM592.433 121.354c0-4.821.7-8.943 7.196-8.943 6.5 0 7.2 4.122 7.2 8.943 0 5.522-.842 9.401-7.2 9.401-6.359 0-7.196-3.879-7.196-9.4m9.47-.28c0-3.668-.174-5.521-2.274-5.521-2.095 0-2.27 1.853-2.27 5.521 0 5.38.454 6.533 2.27 6.533s2.274-1.153 2.274-6.533M615.003 112.76v2.268h.069c.91-2.021 2.584-2.616 4.58-2.616v4.4c-4.333-.279-4.401 2.237-4.401 3.985v9.606h-4.927V112.76zM626.498 114.542h.068c.98-1.574 2.306-2.132 4.158-2.132 1.748 0 3.148.837 3.948 2.237 1.153-1.537 2.553-2.237 4.58-2.237 2.337 0 4.4 1.4 4.4 3.842v14.15h-4.927v-12.155c0-1.574-.279-2.795-1.853-2.795-1.568 0-1.847 1.221-1.847 2.795v12.154h-4.822v-12.154c0-1.574-.284-2.795-1.853-2.795-1.573 0-1.852 1.221-1.852 2.795v12.154h-4.927v-17.644h4.927zM660.561 127.12c0 1.083.142 2.2.247 3.284h-4.579l-.21-2.343h-.069c-1.047 1.816-2.48 2.69-4.61 2.69-3.428 0-4.686-2.548-4.686-5.622 0-5.837 4.511-6.08 9.086-6.01v-1.364c0-1.5-.211-2.584-1.99-2.584-1.716 0-1.853 1.294-1.853 2.69h-4.821c0-2.133.663-3.496 1.816-4.296 1.115-.842 2.726-1.153 4.61-1.153 6.254 0 7.06 2.69 7.06 5.9zm-9.085-2.201c0 1.258.21 2.795 1.816 2.795 2.9 0 2.448-3.916 2.448-5.838-2.448.106-4.264-.105-4.264 3.043M662.658 112.76h1.99v-2.796l4.926-2.2v4.995h2.553v3.043h-2.553v9.432c0 1.327-.031 2.2 1.574 2.2.316 0 .626 0 .874-.068v3.037c-.663.069-1.364.174-2.553.174-4.264 0-4.822-2.827-4.822-3.911v-10.864h-1.99zM674.78 109.056h4.927v-3.88h-4.927zm0 21.35h4.927v-17.65h-4.927zM683.655 121.354c0-4.821.7-8.943 7.195-8.943 6.501 0 7.201 4.122 7.201 8.943 0 5.522-.842 9.401-7.2 9.401-6.36 0-7.196-3.88-7.196-9.4m9.47-.28c0-3.668-.174-5.521-2.275-5.521-2.094 0-2.268 1.853-2.268 5.521 0 5.38.452 6.533 2.268 6.533 1.822 0 2.274-1.153 2.274-6.533M706.47 114.542h.068c.49-.806 1.084-1.327 1.747-1.643.7-.347 1.5-.49 2.411-.49 2.342 0 4.406 1.4 4.406 3.843v14.149h-4.927v-12.154c0-1.574-.279-2.795-1.853-2.795-1.574 0-1.853 1.221-1.853 2.795v12.154h-4.926v-17.644h4.926z" style="stroke-width:5.26369"/><path fill="#ec3435" d="M48.02 130.148c-8.823-2.221-17.266-4.98-23.424-12.843-.037-.026-.053-.058-.084-.095-.116-.153-.232-.31-.343-.458-.152-.21-.315-.416-.463-.626-.016-.027-.026-.048-.052-.08a22.15 22.15 0 0 1-.643-.973C9.49 93.876 25.906 58.646 59.673 36.376c16.507-10.88 34.109-16.718 49.373-17.302 8.522-.263 15.807 2.542 19.624 8.538 7.269 11.385-.674 29.718-17.723 40.972-6.533 4.3-13.444 6.932-19.902 7.917l17.428-35.14H71.737l-37.182 75.502h36.73l14.807-30.377 23.355 33.15c5.937-2.436 11.832-5.542 17.564-9.321 34.593-22.813 52.043-63.533 36.146-88.451C144.32-7.666 92.534-6.718 50.051 21.29 7.578 49.298-11.592 95.94 7.241 125.474c.358.563.732 1.11 1.111 1.653v.005c.3.416.61.826.905 1.232.216.279.443.563.664.842a48.235 48.235 0 0 0 1.453 1.732c.131.158.278.32.42.479.169.184.343.379.516.568 7.727 8.3 17.407 12.822 25.692 14.912 47.79 12.043 97.163-13.88 119.528-28.119h-18.065c-25.47 10.76-59.09 19.534-91.446 11.37" style="stroke-width:5.26369"/><path fill="#2c292a" d="M538.018 62.046c-20.192 0-26.935 6.969-26.935 15.56 0 8.61 6.964 15.574 26.935 15.574 20.565 0 26.94-6.963 26.94-15.575 0-8.59-7.238-15.56-26.94-15.56m0 23.808c-12.08 0-15.555-3.695-15.555-8.248 0-4.537 2.985-8.232 15.555-8.232 11.274 0 15.554 3.695 15.554 8.232 0 4.553-4.037 8.248-15.554 8.248M204.03 40.814h5.658a16.228 16.228 0 0 0-1.98 7.775c0 8.99 7.29 16.265 16.265 16.265 8.996 0 16.27-7.275 16.27-16.265 0-2.81-.72-5.464-1.973-7.775h5.98v-8.442h-15.576V27.66h-4.927a72.016 72.016 0 0 1-4.858-.295v4.774h-.053v.232h-9.496c-2.09-.037-3.91-.137-5.31-.222v6.612zm19.943.706c3.911 0 7.07 3.163 7.07 7.069a7.068 7.068 0 0 1-7.07 7.074c-3.9 0-7.058-3.168-7.058-7.074 0-3.906 3.158-7.07 7.058-7.07M217.808 77.914v-10.69h-2.18c-3.815 0-6.737-.195-8.432-.343v12.202h-.042v2.626s-.568 7.754 8.801 7.754h46.063v-8.901h-40.71s-3.5.847-3.5-2.648M261.346 29.804h-5.359a85.142 85.142 0 0 1-5.19-.284v6.906c.01.3.021.62.021.947v-.005 33.577h10.528V52.169h5.853v-8.437h-5.853zM340.363 59.57v-8.448h-3.206v-13.98c0-7.506-7.406-6.77-7.406-6.77h-41.82a106.89 106.89 0 0 1-5.327-.225v6.537c.01.026.01.053.01.074v2.063h40.478c3.938 0 3.748 3.527 3.748 3.527v8.774H286.7c-2.448-.042-4.69-.147-6.375-.247v6.437c0 .064.016.132.021.2v2.059h23.676v7.821h-16.101a142.32 142.32 0 0 1-5.317-.22v6.521c.01.021.01.053.01.08v2.068h41.431c3.953 0 3.753 3.51 3.753 3.51v12.697h10.317V74.162c0-7.512-7.411-6.77-7.411-6.77h-16.85v-7.821zM365.059 60.426a216.506 216.506 0 0 1-6.211-.236v8.685h58.264v-8.449zM410.224 72.35h-45.062a112.237 112.237 0 0 1-5.217-.215v7.296h40.868c3.942 0 3.753 3.516 3.753 3.516v9.1h10.311V77.316c0-4.964-4.653-4.964-4.653-4.964M360.124 35.922v13.88s-.568 7.07 8.796 7.07h45.594v-7.527H372.22c-1.484.01-2.279-.032-2.279-2.248v-.795h44.573v-6.395H369.94v-2.969h44.573v-7.074h-47.99c-2.984-.026-5.12-.174-6.431-.295v5.369c.015.31.026.632.031.984M459.366 40.814h10.338v-8.442h-15.59V27.66h-4.928c-2.274-.069-3.89-.195-4.9-.3v5.011h-9.501a123.02 123.02 0 0 1-5.295-.222v8.664h9.716zm-10.485 4.027c-8.18.2-14.922 4.816-16.249 17.276 0 0-.142 1.605-.116 2.379-.026.774.116 2.379.116 2.379 1.369 12.738 8.359 17.286 16.797 17.286 8.442 0 15.448-4.353 16.79-17.286 0 0 .143-1.605.111-2.38.032-.773-.11-2.378-.11-2.378-1.311-12.644-8.033-17.076-16.228-17.276zm-6.332 21.855c-.074-.69-.074-1.416-.105-2.2.031-.78.031-1.5.105-2.19l.052-.458c.827-7.069 3.564-8.995 6.827-8.995 3.274 0 6.027 1.684 6.833 8.995l.052.458c.058.69.058 1.406.095 2.19-.037.79-.037 1.51-.095 2.2l-.052.463c-.806 7.301-3.559 8.99-6.833 8.99-3.263 0-6-1.926-6.827-8.99zM482.799 29.804a92.004 92.004 0 0 1-5.18-.279v7.848l.027-.005v9.259h-9.38v8.443h9.38v37.62h10.506V29.803zM532.79 39.126h13.827v-8.443h-34.925c-2.079-.047-3.9-.136-5.3-.226v8.67h13.843c-.816 3.105-4.116 10.795-17.402 15.654l2.77 7.274s13.474-1.88 20.896-13.107c7.117 7.401 18.433 10.096 18.433 10.096l2.759-7.295c-10.975-2.169-14.07-9.549-14.902-12.623M559.726 29.804c-2.258-.063-4-.179-5.164-.279v11.154h-6.932v8.443h6.932v13.912h10.512v-33.23ZM617.085 76.067V62.703h22.576V29.804h-5.348a96.585 96.585 0 0 1-5.164-.279v8.901H594.66v-8.732h-2.184c-3.88 0-6.832-.184-8.512-.332v6.496c.021.415.037.842.037 1.31v17.786s-.563 7.749 8.796 7.749h13.775v13.364h-18.986c-2.469-.042-4.7-.153-6.39-.253v6.433c.005.079.005.147.026.22v2.048h61.085v-8.448Zm-18.94-22.255s-3.484.237-3.484-2.663v-4.964h34.488v7.627zM673.213 80.563s-3.484.847-3.484-2.648v-10.69h-2.19.005c-3.884 0-6.848-.2-8.517-.343v6.264c.016.48.043.985.043 1.532v7.027s-.564 7.748 8.795 7.748h47.731v-8.89z" style="stroke-width:5.26369"/><path fill="#2c292a" d="M674.605 74.818h10.511V61.1h19.286v5.321h-11.017v8.449h21.487v-3.922h.047V29.803h-5.348a91.566 91.566 0 0 1-5.163-.28V39.63h-.005v13.028h-14.765c2.6-2.874 4.18-6.7 4.18-10.896 0-8.98-7.275-16.254-16.255-16.254-8.985 0-16.265 7.274-16.265 16.254 0 4.195 1.585 8.022 4.185 10.896h-2.569c-2.09-.048-3.905-.121-5.316-.216V61.101h17.007zm-4.1-33.056c0-3.9 3.152-7.059 7.058-7.059a7.054 7.054 0 0 1 7.064 7.059c0 3.91-3.153 7.07-7.064 7.07a7.055 7.055 0 0 1-7.059-7.07" style="stroke-width:5.26369"/></svg>