<svg xmlns="http://www.w3.org/2000/svg" xml:space="preserve" width="983.67383" height="200" viewBox="0 0 983.67381 200"><defs><radialGradient id="b" cx="0" cy="0" r="1" fx="0" fy="0" gradientTransform="matrix(27.1674 0 0 -27.1674 51.34 447.248)" gradientUnits="userSpaceOnUse" spreadMethod="pad"><stop offset="0" style="stop-opacity:1;stop-color:#bfd72f"/><stop offset="0.5" style="stop-opacity:1;stop-color:#bfd72f"/><stop offset="0.63151844" style="stop-opacity:1;stop-color:#bfd72f"/><stop offset="1" style="stop-opacity:1;stop-color:#49a842"/></radialGradient><clipPath id="a" clipPathUnits="userSpaceOnUse"><path d="M48.35 474.997s-5.785-2.852-10.039-5.322c-4.255-2.472-9.599-6.087-9.599-6.087-1.476-.998-2.781-3.271-2.897-5.051 0 0-.424-6.444-.41-11.359.013-4.918.469-11.358.469-11.358.128-1.778 1.444-4.044 2.927-5.036 0 0 5.366-3.583 9.631-6.033 4.268-2.449 10.07-5.267 10.07-5.267 1.604-.782 4.225-.775 5.823.013 0 0 5.787 2.853 10.043 5.325 4.253 2.471 9.599 6.087 9.599 6.087 1.476.996 2.78 3.272 2.897 5.049 0 0 .424 6.442.409 11.36-.013 4.92-.47 11.359-.47 11.359-.127 1.776-1.443 4.044-2.927 5.032 0 0-5.363 3.585-9.631 6.033-4.266 2.451-10.069 5.272-10.069 5.272-.797.387-1.844.581-2.893.581-1.063 0-2.128-.2-2.933-.598"/></clipPath></defs><g clip-path="url(#a)" transform="matrix(3.52776 0 0 -3.52776 -89.621 1677.783)"><path d="M48.35 474.997s-5.785-2.852-10.039-5.322c-4.255-2.472-9.599-6.087-9.599-6.087-1.476-.998-2.781-3.271-2.897-5.051 0 0-.424-6.444-.41-11.359.013-4.918.469-11.358.469-11.358.128-1.778 1.444-4.044 2.927-5.036 0 0 5.366-3.583 9.631-6.033 4.268-2.449 10.07-5.267 10.07-5.267 1.604-.782 4.225-.775 5.823.013 0 0 5.787 2.853 10.043 5.325 4.253 2.471 9.599 6.087 9.599 6.087 1.476.996 2.78 3.272 2.897 5.049 0 0 .424 6.442.409 11.36-.013 4.92-.47 11.359-.47 11.359-.127 1.776-1.443 4.044-2.927 5.032 0 0-5.363 3.585-9.631 6.033-4.266 2.451-10.069 5.272-10.069 5.272-.797.387-1.844.581-2.893.581-1.063 0-2.128-.2-2.933-.598" style="fill:url(#b);stroke:none"/></g><path d="M62.931 431.693h62.187v-62.195H62.931Z" style="fill:#fff;fill-opacity:1;fill-rule:nonzero;stroke:none;stroke-width:2.64582" transform="matrix(1.33333 0 0 -1.33333 -33.873 634.127)"/><path d="M0 0h-14.604v-2.457h5.818v-3.29h3.113v3.32H0Z" style="fill:#003768;fill-opacity:1;fill-rule:nonzero;stroke:none" transform="matrix(3.52776 0 0 -3.52776 457.863 72.229)"/><path d="M833.393 35.693v8.971h44.632c.921 0 1.457.445 1.457 1.658v23.192h-17.2l.007-16.52h-11.082v16.52H823.43v8.931h78.074v-8.931h-11.488l1.623-27.75c.092-2.621-1.167-6.07-6.293-6.07z" style="fill:#003768;fill-opacity:1;fill-rule:nonzero;stroke:none;stroke-width:3.52776"/><path d="M0 0h-3.15v-17.248H0v7.538h3.803v2.637H0Z" style="fill:#003768;fill-opacity:1;fill-rule:nonzero;stroke:none" transform="matrix(3.52776 0 0 -3.52776 303.48 35.621)"/><path d="M0 0h5.108v-2.048h3.141v18.35H5.108V2.379H0Z" style="fill:#003768;fill-opacity:1;fill-rule:nonzero;stroke:none" transform="matrix(3.52776 0 0 -3.52776 448.5 93.13)"/><path d="M0 0c-4.032 3.129-5.861 6.021-5.861 11.461l-.002 1.194h4.884v2.639h-13.109v-2.639h4.86v-1.191c0-5.144-1.69-8.323-5.762-11.699l1.809-2.307c1.606.974 5.072 4.559 5.732 6.564.848-2.028 4.255-5.531 5.719-6.337z" style="fill:#003768;fill-opacity:1;fill-rule:nonzero;stroke:none" transform="matrix(3.52776 0 0 -3.52776 541.092 90.925)"/><path d="M254.27 32.797v9.623h-21.041v9.314h10.253c-2.897 3.554-4.45 8.164-4.45 13.207 0 11.233 7.683 20.338 20.863 20.338 13.183 0 20.863-9.105 20.863-20.338 0-5.042-1.55-9.653-4.447-13.207h9.726V42.42h-20.613v-9.623zm5.625 21.27c6.353 0 10.054 4.867 10.054 10.874 0 6.005-3.701 10.881-10.054 10.881-6.354 0-10.061-4.876-10.061-10.88 0-6.008 3.707-10.876 10.06-10.876zM960.05 35.621v31.654c-2.314 1.785-6.643 4.168-13.255 4.168h-25.188c-1.34 0-2.367-.903-2.367-2.62V46.1h27.555v-9.32h-39.066v33.78c0 5.984 3.502 10.196 9.92 10.196h29.146c7.45 0 11.281-1.706 13.256-3.313v16.205h11.14V65.17h12.483v-9.315H971.19V35.621Z" style="fill:#003768;fill-opacity:1;fill-rule:nonzero;stroke:none;stroke-width:3.52776"/><path d="M0 0c5.092 1.441 9.051 4.536 9.767 8.528h5.341V6.076H8.83V3.513h6.272L15.108.94h3.14v13.082h-3.14v-2.928h-4.955l.031.69c.038.749-.28 1.877-1.914 1.877H-.8v-2.635h6.874c.506 0 .7-.155.682-.753 0-4.494-5.435-7.075-7.886-7.809z" style="fill:#003768;fill-opacity:1;fill-rule:nonzero;stroke:none" transform="matrix(3.52776 0 0 -3.52776 749.22 85.09)"/><path d="M0 0h3.779v-2.127H0v-2.54h3.779v-3.909h3.138V5.33H3.779V2.56H0Zm-1.163 3.464c.047.878-.416 1.56-1.551 1.56h-9.587V2.487h7.44c.36 0 .457-.062.457-.517V-.121h-7.85V-5.49c0-1.647.95-2.552 2.278-2.552H-.46V-5.4h-8.085c-.397 0-.565.209-.565.555v2.235h7.642z" style="fill:#003768;fill-opacity:1;fill-rule:nonzero;stroke:none" transform="matrix(3.52776 0 0 -3.52776 623.635 54.423)"/><path d="M0 0h-3.13v-23.987H0v13.97l3.798-.003v2.64H0Z" style="fill:#003768;fill-opacity:1;fill-rule:nonzero;stroke:none" transform="matrix(3.52776 0 0 -3.52776 558.98 35.621)"/><path d="M681.436 31.805v8.529h-19.823v9.043h8.678c-1.689 2.676-2.57 5.85-2.57 9.264 0 7.992 4.776 14.696 13.715 16.623v5.002H661.02v8.931h46.02c7.232 0 10.733-1.861 11.715-2.48v11.935h11.092v-30.59h12.427V58.76H729.84V35.62h-11.084V77.21c-1.063.9-4.358 3.057-11.713 3.057h-14.611v-5.02c8.885-1.95 13.629-8.637 13.629-16.605 0-3.414-.88-6.588-2.569-9.264h8.338v-9.043h-19.303v-8.53zm5.459 18.76c5.312 0 8.183 3.62 8.183 8.076 0 4.466-2.87 8.078-8.183 8.078-5.32 0-8.188-3.612-8.188-8.078 0-4.456 2.868-8.077 8.188-8.077z" style="fill:#003768;fill-opacity:1;fill-rule:nonzero;stroke:none;stroke-width:3.52776"/><path d="M0 0v4.517h-3.139v-5.536c0-1.284.776-2.094 2.148-2.094h13.969v2.62H.488C.171-.493 0-.336 0 0" style="fill:#003768;fill-opacity:1;fill-rule:nonzero;stroke:none" transform="matrix(3.52776 0 0 -3.52776 259.823 107.892)"/><path d="M0 0v3.377h-3.138v-4.396c0-1.284.776-2.094 2.149-2.094h14.502v2.62H.491C.17-.493 0-.336 0 0" style="fill:#003768;fill-opacity:1;fill-rule:nonzero;stroke:none" transform="matrix(3.52776 0 0 -3.52776 431.734 107.892)"/><path d="M0 0v3.847h-3.137v-4.866c0-1.284.779-2.094 2.15-2.094h14.796v2.62H.491C.172-.493 0-.336 0 0" style="fill:#003768;fill-opacity:1;fill-rule:nonzero;stroke:none" transform="matrix(3.52776 0 0 -3.52776 682.883 107.892)"/><path d="M0 0v5.207h-3.135v-6.226c0-1.284.775-2.094 2.148-2.094h13.274v2.62H.493C.173-.493 0-.336 0 0" style="fill:#003768;fill-opacity:1;fill-rule:nonzero;stroke:none" transform="matrix(3.52776 0 0 -3.52776 930.513 107.892)"/><path d="M0 0c-2.291 0-3.524 1.375-3.524 3.066 0 1.698 1.233 3.069 3.524 3.069 2.289 0 3.526-1.371 3.526-3.069C3.526 1.375 2.289 0 0 0m0 8.946c-4.451 0-6.85-2.633-6.85-5.88 0-3.244 2.399-5.875 6.85-5.875 4.452 0 6.851 2.631 6.851 5.875 0 3.247-2.399 5.88-6.851 5.88" style="fill:#003768;fill-opacity:1;fill-rule:nonzero;stroke:none" transform="matrix(3.52776 0 0 -3.52776 789.256 112.862)"/><path d="M0 0c-2.392 0-3.68 1.363-3.68 3.045 0 1.681 1.288 3.046 3.68 3.046 2.389 0 3.678-1.365 3.678-3.046C3.678 1.363 2.389 0 0 0m.001 8.878c-4.532 0-6.972-2.61-6.972-5.833 0-3.22 2.44-5.832 6.972-5.832 4.527 0 6.973 2.612 6.973 5.832 0 3.223-2.446 5.833-6.973 5.833" style="fill:#003768;fill-opacity:1;fill-rule:nonzero;stroke:none" transform="matrix(3.52776 0 0 -3.52776 862.085 112.937)"/><path d="M0 0v2.636h-3.265l.441 6.989c.043.757-.603 1.345-1.349 1.345h-14.929V8.332h12.088c.436 0 .669-.11.669-.689l-.001-5.007H-22.3V0h9.214v-3.792h-6.429v-2.639h12.926c.343 0 .596-.23.596-.561v-5.972h3.212v7.587c0 .847-.366 1.585-1.54 1.585h-5.626V0Z" style="fill:#003768;fill-opacity:1;fill-rule:nonzero;stroke:none" transform="matrix(3.52776 0 0 -3.52776 400.57 74.508)"/><path d="M0 0v-2.642h12.457c.341 0 .594-.228.594-.561v-5.802h3.212v7.416c0 .848-.366 1.589-1.538 1.589Z" style="fill:#003768;fill-opacity:1;fill-rule:nonzero;stroke:none" transform="matrix(3.52776 0 0 -3.52776 590.923 88.496)"/><path d="M0 0c-1.774 0-2.801 1.083-2.801 2.418 0 1.336 1.027 2.416 2.801 2.416 1.774 0 2.803-1.08 2.803-2.416C2.803 1.083 1.774 0 0 0m0 7.338c-4.02 0-6.05-2.202-6.05-4.92 0-2.717 2.03-4.919 6.05-4.919 4.022 0 6.051 2.202 6.051 4.919 0 2.718-2.029 4.92-6.051 4.92" style="fill:#003768;fill-opacity:1;fill-rule:nonzero;stroke:none" transform="matrix(3.52776 0 0 -3.52776 432.926 59.828)"/><path d="M0 0h-1.54l-2.469 3.502-1.125-1.247V0h-1.273v7.786h1.273V3.869l3.439 3.917h1.559l-3.003-3.352Z" style="fill:#003768;fill-opacity:1;fill-rule:nonzero;stroke:none" transform="matrix(3.52776 0 0 -3.52776 271.35 167.73)"/><path d="M0 0c-1.437 0-2.437-1.234-2.437-2.759 0-1.519 1.02-2.781 2.458-2.781 1.434 0 2.436 1.235 2.436 2.761C2.457-1.256 1.437 0 0 0m0-6.794c-2.222 0-3.771 1.811-3.771 4.015 0 2.2 1.571 4.005 3.792 4.005 2.22 0 3.771-1.782 3.771-3.985 0-2.2-1.573-4.035-3.792-4.035" style="fill:#003768;fill-opacity:1;fill-rule:nonzero;stroke:none" transform="matrix(3.52776 0 0 -3.52776 285.23 144.232)"/><path d="M0 0h-1.85v-2.611H.011c.909 0 1.486.507 1.486 1.311C1.497-.443.94 0 0 0m1.52-6.538L-.257-3.825H-1.85v-2.713h-1.268v7.786H.104c1.663 0 2.685-.948 2.685-2.47 0-1.291-.712-2.068-1.725-2.37l1.954-2.946z" style="fill:#003768;fill-opacity:1;fill-rule:nonzero;stroke:none" transform="matrix(3.52776 0 0 -3.52776 314.529 144.667)"/><path d="M0 0h-4.091v-2.024h3.626V-3.25h-3.626v-2.093H.052v-1.22h-5.41v7.785H0Z" style="fill:#003768;fill-opacity:1;fill-rule:nonzero;stroke:none" transform="matrix(3.52776 0 0 -3.52776 348.298 144.575)"/><path d="m0 0-1.241-3.112h2.49zm3.792-6.206H2.447l-.732 1.88h-3.421l-.741-1.88H-3.75l3.182 7.841H.609z" style="fill:#003768;fill-opacity:1;fill-rule:nonzero;stroke:none" transform="matrix(3.52776 0 0 -3.52776 364.661 145.838)"/><path d="M0 0h-1.85v-2.611H.009c.91 0 1.489.507 1.489 1.311C1.498-.443.942 0 0 0m1.518-6.538L-.256-3.825H-1.85v-2.713h-1.269v7.786H.103c1.664 0 2.686-.948 2.686-2.47 0-1.291-.714-2.068-1.725-2.37l1.953-2.946z" style="fill:#003768;fill-opacity:1;fill-rule:nonzero;stroke:none" transform="matrix(3.52776 0 0 -3.52776 406.641 144.667)"/><path d="m0 0-1.241-3.112h2.489Zm3.789-6.206H2.446l-.732 1.88h-3.42l-.743-1.88h-1.302l3.182 7.841H.607z" style="fill:#003768;fill-opacity:1;fill-rule:nonzero;stroke:none" transform="matrix(3.52776 0 0 -3.52776 433.156 145.838)"/><path d="M0 0h-1.425v-5.29H0c1.519 0 2.51 1.099 2.51 2.634S1.519 0 0 0m0-6.538h-2.696v7.786H0c2.274 0 3.842-1.681 3.842-3.884 0-2.2-1.568-3.902-3.842-3.902" style="fill:#003768;fill-opacity:1;fill-rule:nonzero;stroke:none" transform="matrix(3.52776 0 0 -3.52776 459.623 144.667)"/><path d="M387.361 349.797h-3.352v20.6h3.352z" style="fill:#003768;fill-opacity:1;fill-rule:nonzero;stroke:none;stroke-width:2.64582" transform="matrix(1.33333 0 0 -1.33333 -33.873 634.127)"/><path d="M0 0c-1.434 0-2.435-1.234-2.435-2.759 0-1.519 1.02-2.781 2.457-2.781 1.435 0 2.438 1.235 2.438 2.761C2.46-1.256 1.437 0 0 0m0-6.794c-2.22 0-3.769 1.811-3.769 4.015 0 2.2 1.569 4.005 3.791 4.005 2.219 0 3.77-1.782 3.77-3.985 0-2.2-1.57-4.035-3.792-4.035" style="fill:#003768;fill-opacity:1;fill-rule:nonzero;stroke:none" transform="matrix(3.52776 0 0 -3.52776 500.859 144.232)"/><path d="m0 0-1.238-3.112h2.489Zm3.795-6.206H2.451l-.734 1.88h-3.42l-.743-1.88H-3.75l3.182 7.841h1.18z" style="fill:#003768;fill-opacity:1;fill-rule:nonzero;stroke:none" transform="matrix(3.52776 0 0 -3.52776 528.478 145.838)"/><path d="M0 0c-2.104 0-3.677 1.767-3.677 4.015 0 2.224 1.541 4.006 3.731 4.006 1.331 0 2.137-.471 2.831-1.184l-.817-1.009c-.581.575-1.199.966-2.027.966-1.384 0-2.387-1.223-2.387-2.759 0-1.535 1.003-2.78 2.387-2.78.892 0 1.459.389 2.077 1.013l.818-.886C2.18.533 1.355 0 0 0" style="fill:#003768;fill-opacity:1;fill-rule:nonzero;stroke:none" transform="matrix(3.52776 0 0 -3.52776 555.85 168.202)"/><path d="M0 0h-1.282v6.517h-2.294v1.269h5.868V6.517H0Z" style="fill:#003768;fill-opacity:1;fill-rule:nonzero;stroke:none" transform="matrix(3.52776 0 0 -3.52776 581.55 167.73)"/><path d="M473.895 349.797h-3.36v20.6h3.36z" style="fill:#003768;fill-opacity:1;fill-rule:nonzero;stroke:none;stroke-width:2.64582" transform="matrix(1.33333 0 0 -1.33333 -33.873 634.127)"/><path d="M0 0h1.374L-1.63-7.843h-1.117L-5.753 0h1.404l2.18-5.987z" style="fill:#003768;fill-opacity:1;fill-rule:nonzero;stroke:none" transform="matrix(3.52776 0 0 -3.52776 621.922 140.264)"/><path d="M0 0h-4.089v-2.024h3.626V-3.25h-3.626v-2.093H.053v-1.22h-5.412v7.785H0Z" style="fill:#003768;fill-opacity:1;fill-rule:nonzero;stroke:none" transform="matrix(3.52776 0 0 -3.52776 649.266 144.575)"/><path d="M0 0h1.072L2.85-5.792 4.574-.021h1.333L3.386-7.865H2.292L.515-2.27l-1.778-5.595h-1.094l-2.52 7.844h1.373l1.725-5.771z" style="fill:#003768;fill-opacity:1;fill-rule:nonzero;stroke:none" transform="matrix(3.52776 0 0 -3.52776 683.689 140.188)"/><path d="m0 0-1.24-3.112h2.488Zm3.79-6.206H2.451l-.736 1.88h-3.422l-.743-1.88h-1.299l3.18 7.841H.61Z" style="fill:#003768;fill-opacity:1;fill-rule:nonzero;stroke:none" transform="matrix(3.52776 0 0 -3.52776 716.991 145.838)"/><path d="M0 0c1.529-.402 2.324-.989 2.324-2.291 0-1.468-1.064-2.333-2.582-2.333-1.106 0-2.147.409-3.017 1.243l.765.985c.693-.649 1.385-1.015 2.283-1.015.785 0 1.282.386 1.282.988 0 .568-.289.866-1.634 1.2-1.54.4-2.406.89-2.406 2.336 0 1.36 1.032 2.27 2.467 2.27a3.833 3.833 0 0 0 2.624-.977l-.679-1.034c-.649.519-1.303.799-1.965.799-.744 0-1.175-.415-1.175-.936C-1.713.625-1.383.359 0 0" style="fill:#003768;fill-opacity:1;fill-rule:nonzero;stroke:none" transform="matrix(3.52776 0 0 -3.52776 743.952 151.808)"/><path d="M0 0h-1.282v6.517h-2.29v1.269h5.866V6.517H0Z" style="fill:#003768;fill-opacity:1;fill-rule:nonzero;stroke:none" transform="matrix(3.52776 0 0 -3.52776 767.47 167.73)"/><path d="M0 0h-4.089v-2.023h3.628v-1.226h-3.628v-2.09H.054v-1.223h-5.417v7.786H0Z" style="fill:#003768;fill-opacity:1;fill-rule:nonzero;stroke:none" transform="matrix(3.52776 0 0 -3.52776 798.219 144.58)"/><path d="m0 0-1.243-3.112h2.489Zm3.787-6.206H2.446l-.734 1.88h-3.42l-.743-1.88h-1.302l3.18 7.841h1.18z" style="fill:#003768;fill-opacity:1;fill-rule:nonzero;stroke:none" transform="matrix(3.52776 0 0 -3.52776 829.37 145.838)"/><path d="M0 0c-2.261 0-3.751 1.733-3.751 4.014 0 2.191 1.547 4.004 3.729 4.004 1.262 0 2.035-.345 2.779-1.023l-.804-1.037c-.558.51-1.106.835-2.026.835-1.334 0-2.346-1.246-2.346-2.759 0-1.613.981-2.787 2.458-2.787.684 0 1.305.232 1.748.585v1.459h-1.85V4.48h3.078V1.211C2.302.553 1.28 0 0 0" style="fill:#003768;fill-opacity:1;fill-rule:nonzero;stroke:none" transform="matrix(3.52776 0 0 -3.52776 857.033 168.196)"/><path d="M0 0h-4.092v-2.023h3.626v-1.226h-3.626v-2.09H.052v-1.223h-5.413v7.786H0Z" style="fill:#003768;fill-opacity:1;fill-rule:nonzero;stroke:none" transform="matrix(3.52776 0 0 -3.52776 892.128 144.58)"/><path d="M0 0h1.248v-7.786H.185l-3.988 5.537v-5.537h-1.249V0h1.177L0-5.384Z" style="fill:#003768;fill-opacity:1;fill-rule:nonzero;stroke:none" transform="matrix(3.52776 0 0 -3.52776 915.052 140.264)"/><path d="M0 0c-2.108 0-3.678 1.766-3.678 4.014 0 2.223 1.539 4.004 3.728 4.004 1.334 0 2.138-.47 2.833-1.183l-.819-1.01c-.576.577-1.197.968-2.022.968-1.385 0-2.388-1.224-2.388-2.759S-1.343 1.255.042 1.255c.889 0 1.454.388 2.077 1.011l.817-.886C2.18.533 1.352 0 0 0" style="fill:#003768;fill-opacity:1;fill-rule:nonzero;stroke:none" transform="matrix(3.52776 0 0 -3.52776 937.332 168.196)"/><path d="M0 0h-1.282v3.066l-2.873 4.72h1.5L-.63 4.339l2.043 3.447h1.459L0 3.101Z" style="fill:#003768;fill-opacity:1;fill-rule:nonzero;stroke:none" transform="matrix(3.52776 0 0 -3.52776 963.732 167.73)"/></svg>