<svg xmlns="http://www.w3.org/2000/svg" xml:space="preserve" width="686.19751" height="100.00001" viewBox="0 0 686.19751 100.00001"><path d="M167.246 678.956c0 2.756 2.517 4.991 5.622 4.991s5.623-2.235 5.623-4.99c0-2.757-2.518-4.992-5.623-4.992-3.105 0-5.622 2.235-5.622 4.991m17.242 0c0 3.182-3.767 5.844-8.84 6.57h9.903v2.515h-25.527l2.127-2.514h7.938c-5.072-.727-8.84-3.39-8.84-6.57 0-3.742 5.202-6.774 11.619-6.774s11.62 3.032 11.62 6.773M181.263 688.395v2.537h-16.78l2.146-2.537z" style="fill:#231f20;fill-opacity:1;fill-rule:nonzero;stroke:none;stroke-width:1.06943" transform="matrix(1.33333 0 0 -1.33333 -82.026 929.942)"/><path d="M192.975 679.226v12.725c0 .618-.557.552-.557.552h-8.013v-1.337h2.55c.257 0 .317-.046.317-.322v-27.216h5.703v12.448h6.528v3.15z" style="fill:#231f20;fill-opacity:1;fill-rule:nonzero;stroke:none;stroke-width:1.06943" transform="matrix(1.33333 0 0 -1.33333 -82.026 929.942)"/><path d="M175.14 661.834v8.871c.061.516-.557.432-.557.432h-8.013v-1.329h2.55c.129-.03.257-.119.317-.319v-11.024s-.111-.57.574-.522h1.296v-.003h23.199v3.236H176.08c-.707.004-.895.403-.94.659M258.02 689.81c3.106 0 5.624-2.234 5.624-4.99 0-2.757-2.518-4.99-5.623-4.99-3.105 0-5.622 2.233-5.622 4.99 0 2.756 2.517 4.99 5.622 4.99m0-11.763c6.417 0 11.62 3.031 11.62 6.772 0 3.742-5.203 6.774-11.62 6.774-6.417 0-11.62-3.032-11.62-6.774 0-3.74 5.203-6.772 11.62-6.772" style="fill:#231f20;fill-opacity:1;fill-rule:nonzero;stroke:none;stroke-width:1.06943" transform="matrix(1.33333 0 0 -1.33333 -82.026 929.942)"/><path d="M250.719 669.323h6.044s2.21 1.442 3.102 4.822h15.091v-2.55H264.25l.93-2.514h9.777v-5.454h5.704v28.324c0 .617-.558.55-.558.55h-8.013v-1.336h2.55c.257 0 .317-.046.317-.32v-14.186h-31.095l2.127-2.514h8.387c-.561-1.33-1.794-3.764-3.656-4.822" style="fill:#231f20;fill-opacity:1;fill-rule:nonzero;stroke:none;stroke-width:1.06943" transform="matrix(1.33333 0 0 -1.33333 -82.026 929.942)"/><path d="M262.295 660.403c-.708.003-.895.306-.94.501v6.751c.06.392-.558.329-.558.329h-8.014v-1.012h2.55c.13-.023.257-.09.317-.243v-8.39s-.111-.432.574-.397h1.297v-.002h23.198v2.463zM553.013 689.81c3.105 0 5.623-2.234 5.623-4.99 0-2.757-2.518-4.99-5.623-4.99-3.104 0-5.622 2.233-5.622 4.99 0 2.756 2.518 4.99 5.622 4.99m0-11.763c6.418 0 11.62 3.031 11.62 6.772 0 3.742-5.202 6.774-11.62 6.774-6.417 0-11.62-3.032-11.62-6.774 0-3.74 5.203-6.772 11.62-6.772" style="fill:#231f20;fill-opacity:1;fill-rule:nonzero;stroke:none;stroke-width:1.06943" transform="matrix(1.33333 0 0 -1.33333 -82.026 929.942)"/><path d="M545.711 669.323h6.044s2.211 1.442 3.102 4.822h15.09v-2.55h-10.705l.93-2.514h9.776v-5.454h5.704v28.324c0 .617-.557.55-.557.55h-8.013v-1.336h2.548c.26 0 .318-.046.318-.32v-14.186h-31.095l2.127-2.514h8.388c-.562-1.33-1.795-3.764-3.657-4.822" style="fill:#231f20;fill-opacity:1;fill-rule:nonzero;stroke:none;stroke-width:1.06943" transform="matrix(1.33333 0 0 -1.33333 -82.026 929.942)"/><path d="M557.288 660.403c-.708.003-.896.306-.942.501v6.751c.061.392-.557.329-.557.329h-8.013v-1.012h2.548c.13-.023.259-.09.318-.243v-8.39s-.11-.432.574-.397h1.297v-.002h23.198v2.463zM328.991 681.235h-5.85V691.842c0 .74-.558.66-.558.66h-8.013v-1.6h2.55c.259 0 .317-.055.317-.384V657.94h5.704v20.146h5.85zM302.944 677.972c.276.992.571 2.476.512 4.242v5.399h9.378v2.514h-25.527l1.499-2.514h9.097v-5.515s.274-3.744-1.756-6.944c0 0-3.658-5.74-8.331-8.28l.712-1.219s10.29 2.152 13.771 10.513c1.225-1.104 3.73-3.506 5.58-6.246l2.642-4.52s1.169-1.575 2.793-1.066c0 0 2.795.71 1.655 4.082 0 0-2.511 5.381-12.025 9.554M445.107 691.294v-10.06h-6.7l1.581-3.15h5.119v-14.978h5.703V692.101c0 .449-.557.4-.557.4h-8.014v-.972h2.549c.259 0 .319-.035.319-.235" style="fill:#231f20;fill-opacity:1;fill-rule:nonzero;stroke:none;stroke-width:1.06943" transform="matrix(1.33333 0 0 -1.33333 -82.026 929.942)"/><path d="M432.851 660.403c-.708.003-.896.306-.942.501v8.537c.062.392-.556.329-.556.329h-8.015v-1.013h2.55c.13-.023.258-.09.318-.243v-9.938s-.112-.67.574-.634h1.296v-.002h23.2v2.463zM428.495 679.534s.244.358.54.937c.705-.53 3.317-2.563 5.234-5.018l2.357-3.463s1.018-1.193 2.286-.698c0 0 2.193.72 1.099 3.348 0 0-2.353 4.274-10.434 7.084.233.64.439 1.375.519 2.173v3.716h9.111v2.515h-22.89l1.499-2.515h7.837v-3.653s-.673-4.386-3.09-5.912c0 0-2.987-3.368-6.671-5.214l.807-1.373s7.648 1.054 11.796 8.073M238.036 676.751v2.514h-4.362c.368.255 2.463 2.091 2.21 10.778v.246c0 .725-.833.643-.833.643h-30.258l2.147-2.537h22.025c.09-1.919.182-7.655-1.789-9.13H201.81l2.127-2.514h13.98v-6.713h-12.363l1.818-2.52h21.671c.2-.02.597-.135.645-.648v-8.94h6.822v10.574h-.004v.729c0 .887-1.029.805-1.029.805h-10.738v6.713zM364.63 692.502h-8.014v-.974h2.55c.258 0 .318-.033.318-.233v-3.82h-6.033v.502h.001v2.515h-21.305l.93-2.515h14.655v-5.025h-15.585l.912-2.466v-6.88h.016l.01-.817s-.189-.927 1.048-.927h17.62l1.7 2.514-14.673.006v6.056h14.673v2.514h-.001v2.01h6.032v-5.968H349.3l.93-2.514h9.254v-5.014h5.704v20.635c0 .449-.558.4-.558.4M365.128 669.233c0 .887-1.028.805-1.028.805h-29.922l1.818-2.52h21.67c.199-.02.597-.134.644-.648v-8.94h6.822v10.573h-.004zM406.653 681.235V692.1c0 .45-.557.401-.557.401h-8.013v-.974h2.548c.259 0 .319-.033.319-.233v-28.188h5.703v14.978h6.706v3.15z" style="fill:#231f20;fill-opacity:1;fill-rule:nonzero;stroke:none;stroke-width:1.06943" transform="matrix(1.33333 0 0 -1.33333 -82.026 929.942)"/><path d="M389.062 660.904V669.44c.062.392-.557.328-.557.328h-8.014v-1.011h2.55c.13-.024.258-.091.318-.243v-10.176s-.112-.433.574-.397h1.296v-.001h23.198v2.461h-18.423c-.708.003-.896.307-.942.502M378.467 681.918c0 3.746 2.445 6.783 5.462 6.783 3.018 0 5.464-3.037 5.464-6.783 0-3.747-2.446-6.784-5.464-6.784-3.017 0-5.462 3.037-5.462 6.784m16.496 0c0 5.397-4.94 9.772-11.034 9.772-6.092 0-11.032-4.375-11.032-9.772 0-5.398 4.94-9.774 11.032-9.774 6.094 0 11.034 4.376 11.034 9.774M489.385 692.502h-8.014v-.974h2.549c.259 0 .318-.033.318-.233v-33.31h5.704v34.116c0 .45-.557.401-.557.401M479.801 690.127h-22.495l1.5-2.514h13.592v-4.815c-1.527-13.74-15.27-19.257-15.27-19.257.332-.311.388-.508.388-.508 20.174 2.847 22.287 21.241 22.287 21.241v4.404h-.001zM535.335 675.674v2.514h-41.77l2.128-2.514h16.89v-3.135h-12.67l.931-2.514h24.146v-3.292l-25.076-.014.911-2.462v-4.635h.01l-.011-.76s-.126-.95 1.05-.928h27.264l1.7 2.514-24.291.01v3.75l24.165.015v2.514h-.002v3.289h.003v2.514h-12.206v3.134zM512.074 684.028s1.948.944 3.681 3.07c1.028-.315 3.443-1.176 6.467-3.061l7.037-4.044s2.627-1.418 3.73.21c0 0 2.1 2.154-1.68 3.992 0 0-6.306 2.508-14.524 4.384.351.594.673 1.244.93 1.968 0 0 .2 1.006.213 1.24.016.3.04 1.126.04 1.126l-6.325-.047s.354-1.171-.11-2.488c-.397-1.122-1.836-3.455-5.044-5.38 0 0-4.56-2.984-9.517-4.223l.775-.93s7.812.374 14.327 4.183" style="fill:#231f20;fill-opacity:1;fill-rule:nonzero;stroke:none;stroke-width:1.06943" transform="matrix(1.33333 0 0 -1.33333 -82.026 929.942)"/><path d="M145.23 697.457H61.52V646.97c3.172 2.757 7.908 5.076 13.56 6.857 1.794 2.257 4.19 4.615 6.922 6.9-6.27 5.366-10.017 10.862-8.123 14.563 2.262 4.423 10.579 3.619 18.603 1.607 2.518 8.303 7.294 13.936 11.61 14.101 5.186.2 8.984-6.572 11.03-14.1 8.97 2.04 16.515 2.023 18.47-1.994 1.95-4.001-2.376-9.367-7.922-14.182 2.985-2.509 5.425-5.07 7-7.463 4.937-1.674 9.265-3.735 12.56-6.074z" style="fill:#b5181d;fill-opacity:1;fill-rule:nonzero;stroke:none;stroke-width:1.06943" transform="matrix(1.33333 0 0 -1.33333 -82.026 929.942)"/><path d="M111.297 675.93c-1.527 6.165-3.99 11.216-7.218 11.047-2.77-.145-5.773-4.371-7.633-11.168a131.41 131.41 0 0 0 7.124-2.355c2.583.932 5.187 1.77 7.727 2.475M126.613 655.043c-.982 1.109-2.225 2.264-3.659 3.433a97.699 97.699 0 0 0-2.709-2.064 91.572 91.572 0 0 0 6.368-1.37M91.746 674.102c-6.997 1.838-13.622 2.463-14.472-.41-.527-1.783 2.172-6.222 7.464-10.787a84.059 84.059 0 0 0 6.033 4.177c.137 2.458.477 4.812.975 7.02M99.277 671.721a83.37 83.37 0 0 1-3.516 1.21 52.816 52.816 0 0 1-.554-3.248 65.1 65.1 0 0 0 4.07 2.038M122.85 662.96c5.108 4.365 8.86 9.034 7.277 11.326-1.113 1.613-7.027 1.769-14.395.11a49.46 49.46 0 0 0 1.041-7.337 76.33 76.33 0 0 0 6.077-4.1M84.502 658.698c-1.318-1.107-2.463-2.199-3.383-3.25 2 .453 4.073.848 6.197 1.18-.97.68-1.91 1.372-2.814 2.07M112.512 669.475a64.734 64.734 0 0 1-.65 3.913 63.748 63.748 0 0 1-4.411-1.477 74.022 74.022 0 0 0 5.061-2.436M90.714 663.24a74.137 74.137 0 0 1-3.441-2.373 52.09 52.09 0 0 1 3.735-2.56 66.009 66.009 0 0 0-.294 4.933M116.53 658.176a69.669 69.669 0 0 1 3.51 2.514 77.574 77.574 0 0 1-3.22 2.166 69.604 69.604 0 0 0-.29-4.68M103.213 670.138l-.045-.02a105.472 105.472 0 0 1-8.374-4.372 63.642 63.642 0 0 1-.16-4.139c-.008-1.353.02-2.724.081-4.096 2.99.25 6.026.383 9.059.383 3.05 0 6.136-.163 9.192-.47.071 1.453.107 2.905.107 4.337 0 1.078-.041 2.234-.124 3.436-3.1 1.779-6.36 3.435-9.494 4.834-.08.035-.16.072-.242.107" style="fill:#b5181d;fill-opacity:1;fill-rule:nonzero;stroke:none;stroke-width:1.06943" transform="matrix(1.33333 0 0 -1.33333 -82.026 929.942)"/><path d="M85.714 643.085h-9.046l-7.494-7.723v7.723H61.52v-20.41h7.654v8.244l7.294-8.243h9.568l-9.84 10.6zM86.873 622.675h7.654v20.409h-7.654zM115.573 643.085H98.034v-20.41h7.653v15.467h6.378s1.755.16 1.755-3.349v-12.117h7.653v13.234s.797 5.9-5.9 7.175M140.386 634.862h-7.425a1.507 1.507 0 0 0 0 3.013h3.738c.832 0 1.477-.562 1.477-1.394l.03-.38h7.244v3.022c-.22 2.633-3.714 3.962-5.902 3.962h-10.15c-2.236.305-5.33-1.774-5.33-3.962v-4.481c0-2.188 2.94-4.139 5.613-3.961h7.018c.832 0 1.704-.647 1.704-1.48l.037-.742c0-.832-.909-1.305-1.74-1.305h-3.74c-1.16-.022-1.456.49-1.456 1.32l.005.725h-7.692v-2.546c-.045-2.483 2.933-4.196 5.594-4.196h11.406c2.188 0 4.681 1.127 5.224 4.28v4.164c-.22 2.632-3.468 3.961-5.656 3.961M163.549 645.667h1.611v-9.226l7.7 9.226h1.941l-6.715-8.028 6.593-8.577h-2.011l-5.634 7.356-1.874-2.236v-5.12h-1.611zM182.098 645.391a8.166 8.166 0 0 1-2.665-1.798 8.646 8.646 0 0 1-1.94-2.817 8.397 8.397 0 0 1-.662-3.31c0-2.472.81-4.545 2.431-6.222 1.62-1.678 3.624-2.517 6.014-2.517 1.248 0 2.403.236 3.468.707 1.066.472 2.02 1.171 2.865 2.1a8.281 8.281 0 0 1 1.645 2.686c.363.986.546 2.068.546 3.247 0 1.186-.217 2.299-.65 3.337a8.32 8.32 0 0 1-1.894 2.767 8.498 8.498 0 0 1-2.722 1.82c-.994.407-2.072.61-3.235.61-1.15 0-2.217-.203-3.2-.61m8.018-3.019c1.34-1.363 2.01-2.989 2.01-4.873 0-2.014-.65-3.711-1.952-5.09-1.303-1.38-2.899-2.069-4.787-2.069-1.92 0-3.54.678-4.866 2.035-1.325 1.356-1.988 3.018-1.988 4.988 0 1.945.657 3.606 1.97 4.987 1.315 1.38 2.904 2.07 4.77 2.07 1.888 0 3.503-.682 4.843-2.048M197.374 645.667h4.474c1.969 0 3.49-.448 4.562-1.348 1.072-.897 1.609-2.168 1.609-3.812 0-1.349-.38-2.489-1.142-3.42-.76-.933-1.729-1.448-2.908-1.547l4.08-6.478h-1.987l-4.909 7.998h1.563c1.046 0 1.898.308 2.553.924.657.615.985 1.404.985 2.37 0 1.3-.369 2.235-1.104 2.81-.737.574-1.985.861-3.747.861h-2.387v-14.963h-1.642zM211.61 645.667h8.66v-1.582h-7.017v-5.9h6.994v-1.582h-6.994v-5.96h6.994v-1.581h-8.636zM223.28 629.062h1.71l1.985 5.23h7.399l1.961-5.23h1.756l-6.396 16.605H229.7zm10.536 6.721h-6.282l3.123 8.323zM247.736 645.667h1.641v-16.605h-1.641zM253.593 645.667h1.95l8.967-14.62v14.62h1.582v-16.605h-1.98l-8.967 14.644v-14.644h-1.552zM278.637 641.591h-1.55c-.084.906-.356 1.604-.815 2.093-.457.491-1.071.736-1.843.736-.832 0-1.51-.265-2.031-.794-.524-.53-.785-1.21-.785-2.04 0-.443.081-.83.246-1.161.163-.332.41-.616.738-.853.357-.265 1.038-.555 2.041-.866.555-.182.98-.33 1.277-.445.997-.418 1.755-1.004 2.275-1.761.522-.756.782-1.675.782-2.754.007-1.377-.431-2.557-1.316-3.542-.884-.984-2.05-1.477-3.499-1.477-1.357 0-2.465.469-3.322 1.404-.858.936-1.298 2.16-1.321 3.675h1.611c.024-1.042.315-1.88.873-2.514.557-.635 1.306-.952 2.247-.952.925 0 1.67.317 2.236.952.566.633.848 1.471.848 2.512 0 1.58-1.172 2.72-3.52 3.42a7.92 7.92 0 0 0-.387.126c-1.217.395-2.095.919-2.638 1.573-.542.654-.814 1.497-.814 2.532 0 1.322.414 2.406 1.242 3.25.826.843 1.895 1.266 3.206 1.266 1.25 0 2.244-.383 2.984-1.149.739-.767 1.151-1.843 1.235-3.23M280.964 645.667h8.333v-1.642h-3.345v-14.963h-1.643v14.963h-3.345zM291.88 645.667h1.643v-16.605h-1.642zM296.188 645.667h8.333v-1.642h-3.345v-14.963h-1.643v14.963h-3.345zM307.653 645.667h1.642v-10.003c0-1.073.048-1.853.143-2.334.096-.485.248-.902.462-1.251a3.54 3.54 0 0 1 1.307-1.245 3.617 3.617 0 0 1 1.763-.434c.654 0 1.249.146 1.786.44.535.292.967.706 1.295 1.239.221.357.376.776.468 1.256.091.478.136 1.256.136 2.33v10.002h1.613v-10.574c0-2.151-.43-3.755-1.285-4.81-.856-1.058-2.159-1.586-3.909-1.586-1.856 0-3.223.518-4.103 1.55-.878 1.035-1.318 2.649-1.318 4.846zM321.426 645.667h8.333v-1.642h-3.345v-14.963h-1.643v14.963h-3.345zM332.496 645.667h8.66v-1.582h-7.018v-5.9h6.995v-1.582h-6.995v-5.96h6.995v-1.581h-8.637zM356.447 645.391a8.15 8.15 0 0 1-2.664-1.798 8.65 8.65 0 0 1-1.942-2.817 8.416 8.416 0 0 1-.661-3.31c0-2.472.81-4.545 2.43-6.222 1.62-1.678 3.626-2.517 6.014-2.517 1.248 0 2.404.236 3.47.707 1.065.472 2.02 1.171 2.864 2.1a8.318 8.318 0 0 1 1.645 2.686c.364.986.547 2.068.547 3.247 0 1.186-.218 2.299-.65 3.337a8.32 8.32 0 0 1-1.896 2.767 8.498 8.498 0 0 1-2.721 1.82c-.994.407-2.072.61-3.235.61-1.15 0-2.217-.203-3.201-.61m8.02-3.019c1.338-1.363 2.009-2.989 2.009-4.873 0-2.014-.65-3.711-1.953-5.09-1.302-1.38-2.898-2.069-4.786-2.069-1.92 0-3.54.678-4.866 2.035-1.326 1.356-1.988 3.018-1.988 4.988 0 1.945.656 3.606 1.971 4.987 1.314 1.38 2.903 2.07 4.769 2.07 1.888 0 3.503-.682 4.843-2.048M371.389 645.667h8.21v-1.642H373v-5.81h6.6v-1.641H373v-7.512h-1.611zM390 645.667h1.95l8.967-14.62v14.62h1.583v-16.605h-1.982l-8.966 14.644v-14.644H390zM407.259 645.667h1.642v-10.003c0-1.073.048-1.853.143-2.334a3.75 3.75 0 0 1 .462-1.251 3.545 3.545 0 0 1 1.305-1.245 3.62 3.62 0 0 1 1.764-.434c.653 0 1.25.146 1.786.44.536.292.968.706 1.295 1.239.221.357.376.776.468 1.256.091.478.136 1.256.136 2.33v10.002h1.612v-10.574c0-2.151-.428-3.755-1.285-4.81-.855-1.058-2.158-1.586-3.907-1.586-1.857 0-3.223.518-4.104 1.55-.878 1.035-1.317 2.649-1.317 4.846zM437.667 641.379h-1.978c-.75 1.042-1.583 1.804-2.494 2.286-.912.483-1.955.724-3.131.724-1.862 0-3.447-.685-4.757-2.06-1.31-1.372-1.964-3.028-1.964-4.968 0-1.956.657-3.62 1.975-4.993 1.316-1.373 2.896-2.06 4.74-2.06 1.154 0 2.188.238 3.102.712.914.475 1.718 1.19 2.408 2.148h1.946c-.776-1.438-1.8-2.538-3.07-3.3-1.274-.76-2.735-1.14-4.382-1.14-2.38 0-4.378.838-5.995 2.515-1.618 1.678-2.428 3.75-2.428 6.224 0 1.162.22 2.266.662 3.309a8.736 8.736 0 0 0 1.927 2.817 8.16 8.16 0 0 0 2.664 1.804c.976.403 2.036.604 3.177.604 1.65 0 3.133-.401 4.448-1.2 1.317-.802 2.367-1.942 3.15-3.422M441.327 645.667h1.643v-14.994h5.839v-1.611h-7.482zM451.933 645.667h8.66v-1.582h-7.017v-5.9h6.994v-1.582h-6.994v-5.96h6.994v-1.581h-8.637zM463.603 629.062h1.71l1.985 5.23h7.4l1.96-5.23h1.756l-6.396 16.605h-1.996zm10.535 6.721h-6.282l3.123 8.323zM481.683 645.667h4.474c1.97 0 3.49-.448 4.562-1.348 1.072-.897 1.608-2.168 1.608-3.812 0-1.349-.38-2.489-1.14-3.42-.76-.933-1.73-1.448-2.909-1.547l4.079-6.478h-1.986l-4.91 7.998h1.564c1.047 0 1.898.308 2.554.924.655.615.984 1.404.984 2.37 0 1.3-.368 2.235-1.104 2.81-.737.574-1.985.861-3.746.861h-2.387v-14.963h-1.643zM510.566 641.591h-1.55c-.085.906-.356 1.604-.814 2.093-.458.491-1.073.736-1.844.736-.833 0-1.509-.265-2.032-.794-.523-.53-.785-1.21-.785-2.04 0-.443.082-.83.246-1.161.164-.332.411-.616.74-.853.356-.265 1.037-.555 2.04-.866.556-.182.98-.33 1.278-.445.995-.418 1.754-1.004 2.275-1.761.521-.756.78-1.675.78-2.754.01-1.377-.43-2.557-1.314-3.542-.886-.984-2.051-1.477-3.5-1.477-1.357 0-2.464.469-3.322 1.404-.858.936-1.298 2.16-1.32 3.675h1.61c.023-1.042.315-1.88.872-2.514.559-.635 1.307-.952 2.248-.952.924 0 1.67.317 2.235.952.566.633.85 1.471.85 2.512 0 1.58-1.174 2.72-3.519 3.42a7.794 7.794 0 0 0-.39.126c-1.215.395-2.093.919-2.637 1.573-.542.654-.814 1.497-.814 2.532 0 1.322.413 2.406 1.241 3.25.827.843 1.895 1.266 3.208 1.266 1.249 0 2.244-.383 2.983-1.149.74-.767 1.152-1.843 1.235-3.23M513.167 629.062h1.71l1.984 5.23h7.4l1.96-5.23h1.756l-6.396 16.605h-1.996zm10.534 6.721h-6.281l3.123 8.323zM530.912 645.667h8.21v-1.642h-6.599v-5.81h6.6v-1.641h-6.6v-7.512h-1.611zM542.631 645.667h8.66v-1.582h-7.017v-5.9h6.995v-1.582h-6.995v-5.96h6.995v-1.581h-8.638zM554.028 645.667h8.333v-1.642h-3.345v-14.963h-1.643v14.963h-3.345zM563.912 645.667h1.859l4.25-8.622 4.299 8.622h1.848l-5.353-10.504v-6.101h-1.612v6.124z" style="fill:#231f20;fill-opacity:1;fill-rule:nonzero;stroke:none;stroke-width:1.06943" transform="matrix(1.33333 0 0 -1.33333 -82.026 929.942)"/></svg>