<svg xmlns="http://www.w3.org/2000/svg" width="1231.7778pt" height="225pt" viewBox="0 0 1231.7778 225"><defs><clipPath id="a"><path d="M0 0h841.89v595.276H0Z"/></clipPath></defs><path fill="#00529c" d="M322.642 139.639H305.55v45.692h92.679v-12.8h-75.588zM532.906 42.521h-97.444v12.786h80.534v46.288H429.94v12.78h47.628v25.37h-41.562v12.771h82.748v32.814h16.915v-45.584h-41.01v-25.37h47.632v-12.781h-9.384zM1084.473 42.571h-95.802v12.785h78.887v58.2h-85.793v12.941h48.2v58.834h17.086v-58.834h48.19v-12.942h-10.768zM1149.572 171v-32.676h-17.086v46.836h99.292V171z"/><g clip-path="url(#a)" transform="matrix(4.88737 0 0 4.88737 -618.743 -1057.962)"><path fill="#00529c" d="M187.936 235.311c0-2.498 2.127-4.52 4.75-4.52s4.752 2.022 4.752 4.52c0 2.498-2.129 4.518-4.752 4.518-2.623 0-4.75-2.02-4.75-4.518m12.538 0c0-2.423-1.226-4.566-3.115-5.917h3.932v-2.666h-6.532v-1.896h-4.028v1.896h-6.598v2.666h3.883c-1.888 1.351-3.115 3.494-3.115 5.917 0 4.09 3.484 7.406 7.785 7.406 4.302 0 7.788-3.316 7.788-7.406M364.222 227.939c2.182 0 3.95 1.68 3.95 3.75 0 2.075-1.768 3.754-3.95 3.754-2.182 0-3.95-1.68-3.95-3.753 0-2.071 1.768-3.751 3.95-3.751m0 10.346c3.834 0 6.939-2.953 6.939-6.595s-3.105-6.593-6.94-6.593c-3.832 0-6.937 2.95-6.937 6.593 0 3.642 3.105 6.595 6.938 6.595M249.313 237.766c-2.182 0-3.95-1.679-3.95-3.75 0-2.075 1.768-3.754 3.95-3.754 2.18 0 3.95 1.68 3.95 3.753 0 2.072-1.77 3.751-3.95 3.751m6.937-3.75c0-1.8-.762-3.433-1.994-4.622h2.316v-2.914h-5.213v-1.896h-4.026v1.896h-5.245v2.914h2.28c-1.233 1.19-1.994 2.822-1.994 4.621 0 3.642 3.105 6.595 6.939 6.595 3.83 0 6.937-2.953 6.937-6.595"/><path fill="#00529c" d="M363.762 246.227h3.423v-4.622c2.744-.202 6.607-.586 7.93-.72v1.487h-4.344v3.066h4.345v.95h3.179V225.198h-3.196v2.959h.017v10.097c-1.78.188-8.172.845-10.477.845h-9.635v2.633h8.758ZM207.696 225.147h-3.416v17.829h3.416v-10.433h4.108v-3.067h-4.108ZM258.398 251.624c-2.513 0-4.546-1.937-4.546-4.328 0-2.39 2.033-4.327 4.546-4.327 2.514 0 4.55 1.937 4.55 4.327 0 2.391-2.036 4.328-4.55 4.328m5.442-22.148h-2.528v-4.279h-3.238v13.901h3.238v-6.555h2.528v9.916a7.606 7.606 0 0 0-5.442-2.252c-4.116 0-7.453 3.173-7.453 7.09 0 3.916 3.337 7.092 7.453 7.092 4.12 0 7.456-3.176 7.456-7.093 0-1.632-.586-3.13-1.56-4.33h2.756v-17.769h-3.21zM307.203 244.66h-3.463v9.728h18.96v-2.899h-15.497ZM319.239 233.363h-2.835a8.012 8.012 0 0 0-.582-2.978h3.417Zm-11.264 5.159c-2.916 0-5.277-2.307-5.277-5.151 0-2.841 2.36-5.148 5.277-5.148 2.914 0 5.276 2.307 5.276 5.148 0 2.844-2.362 5.15-5.276 5.15m11.257-11.205h-5.57a8.49 8.49 0 0 0-5.687-2.17c-4.658 0-8.434 3.686-8.434 8.225 0 4.545 3.776 8.228 8.434 8.228 3.546 0 6.576-2.142 7.822-5.17h3.442v6.529h3.46V224.98h-3.467zM286.458 251.624c-2.513 0-4.549-1.937-4.549-4.328 0-2.39 2.036-4.327 4.549-4.327 2.514 0 4.551 1.937 4.551 4.327 0 2.391-2.037 4.328-4.551 4.328m5.408-22.148h-4.071v3.067h4.071v9.882a7.61 7.61 0 0 0-5.408-2.218c-4.117 0-7.454 3.173-7.454 7.09 0 3.916 3.337 7.092 7.454 7.092 4.116 0 7.456-3.176 7.456-7.093 0-1.684-.621-3.23-1.653-4.446h3.059v-17.703h-3.454Z"/><path fill="#00529c" d="m285.085 238.177 2.38-1.812-6.231-8.177h6.231v-2.99h-15.673v2.99h6.231l-6.231 8.177 2.379 1.812 5.457-7.165ZM172.635 239.487c0 12.712-10.303 23.018-23.02 23.018-12.713 0-23.015-10.306-23.015-23.018 0-12.713 10.302-23.019 23.015-23.019 12.717 0 23.02 10.306 23.02 23.02"/><path fill="#fff" d="M165.57 234.274c-.874-3.204-4.148-3.162-4.148-3.162s-1.186-2.565-4.345-2.069c0 0 .198-2.567-2.961-3.459 0 0-1.084-3.059-4.511-3.059-3.428 0-4.512 3.059-4.512 3.059-3.158.892-2.962 3.459-2.962 3.459-3.157-.496-4.343 2.069-4.343 2.069s-3.275-.042-4.15 3.162c-.884 3.261 1.385 4.938 1.385 4.938-.198 3.557 2.466 4.345 2.466 4.345-1.301 2.992.599 4.546.599 4.546-.203.984-.23 3.254 1.28 4.538 2.854 2.432 5.828.691 5.828.691 2.728 1.061 4.136-.802 4.409-1.218.273.416 1.68 2.279 4.408 1.218 0 0 2.975 1.741 5.829-.691 1.508-1.284 1.482-3.554 1.28-4.538 0 0 1.899-1.554.598-4.546 0 0 2.664-.788 2.469-4.345 0 0 2.268-1.677 1.382-4.938"/><path fill="#b1b3b6" d="M134.946 234.595c.804-2.942 3.812-2.904 3.812-2.904s1.089-2.359 3.989-1.902c0 0-.18-2.359 2.72-3.178 0 0 .997-2.808 4.145-2.808 3.147 0 4.142 2.808 4.142 2.808 2.903.82 2.722 3.178 2.722 3.178a3.683 3.683 0 0 1 3.989 1.902s3.008-.038 3.81 2.904c.814 2.993-1.27 4.535-1.27 4.535.182 3.265-2.266 3.993-2.266 3.993 1.196 2.746-.548 4.174-.548 4.174.185.903.209 2.986-1.177 4.168-2.621 2.234-5.353.633-5.353.633-2.506.975-3.8-.736-4.05-1.118-.252.382-1.542 2.093-4.05 1.118 0 0-2.732 1.601-5.352-.633-1.385-1.182-1.363-3.265-1.176-4.168 0 0-1.745-1.428-.55-4.174 0 0-2.447-.728-2.266-3.993 0 0-2.084-1.542-1.271-4.535"/><path fill="#fff" d="m131.58 238.578-3.29-.394.078-.659 1.461.177-1.299-1.519.11-.888 1.122 1.39 2.171-1.055-.102.852-1.654.717.49.601.988.115ZM131.734 234.79c.376-.179.639-.503.789-.97.153-.457.127-.872-.072-1.24-.198-.37-.552-.639-1.056-.805-.515-.167-.961-.159-1.341.021-.374.185-.638.507-.79.971a1.734 1.734 0 0 0-.095.715c.01.17.063.333.152.497.086.167.2.308.333.432.19.168.443.305.766.41.5.16.937.15 1.314-.03m-1.862-1.135a.837.837 0 0 1-.062-.72.838.838 0 0 1 .467-.542c.233-.099.524-.094.888.023.365.122.615.295.743.512.132.221.157.46.072.715a.83.83 0 0 1-.48.537c-.235.105-.534.097-.892-.02-.366-.116-.61-.283-.736-.505M133.576 231.318l-1.203-.675.062-.12c.074-.129.14-.22.195-.269a.54.54 0 0 1 .216-.112c.09-.017.29-.042.598-.062l.858-.062.385-.692-.756.034c-.3.01-.519.03-.656.065-.128.03-.27.09-.412.169.103-.269.118-.509.048-.71a.92.92 0 0 0-.432-.492 1.016 1.016 0 0 0-.525-.129.803.803 0 0 0-.463.181c-.133.108-.282.317-.452.623l-.68 1.215 2.894 1.611zm-2.404-1.343.253-.45c.132-.233.21-.374.244-.415a.38.38 0 0 1 .234-.155.376.376 0 0 1 .276.056.49.49 0 0 1 .19.177.38.38 0 0 1 .031.231c-.016.083-.099.26-.255.536l-.239.427ZM134.907 229.045l-2.56-2.103 1.544-1.878.433.35-1.119 1.369.565.47 1.041-1.271.433.35-1.042 1.27.698.572 1.156-1.411.436.354ZM136 223.089l-.526.456 1.17 3.351.54-.455-.282-.748 1.006-.86.71.378.546-.465zm.696 2.044-.46-1.227 1.15.64zM140.75 223.827 139.021 221l.57-.346 1.724 2.825ZM141.862 223.2l-1.172-3.096.605-.23 2.048 1.6-.783-2.076.576-.222 1.17 3.103-.62.233-2.016-1.565.769 2.036ZM144.72 221.026l.632-.176a.792.792 0 0 0 .312.433c.134.077.299.1.498.066.207-.041.354-.116.45-.222a.4.4 0 0 0 .1-.341.286.286 0 0 0-.103-.18.503.503 0 0 0-.261-.104 7.484 7.484 0 0 0-.541-.05c-.365-.022-.632-.087-.794-.19a.857.857 0 0 1-.412-.596.891.891 0 0 1 .053-.494.915.915 0 0 1 .344-.403 1.64 1.64 0 0 1 .613-.223c.41-.077.728-.037.962.106.242.144.388.36.453.666l-.648.137c-.06-.162-.144-.273-.246-.328-.104-.058-.248-.071-.431-.04-.186.037-.33.105-.42.2a.24.24 0 0 0-.066.218.235.235 0 0 0 .134.182c.096.057.3.092.637.113.333.017.58.05.745.109a.854.854 0 0 1 .414.263.97.97 0 0 1 .22.498.925.925 0 0 1-.058.545.91.91 0 0 1-.37.449c-.173.11-.402.195-.683.244-.405.072-.737.035-.992-.114-.252-.153-.431-.41-.542-.768M148.785 221.536l-.045-2.753-.97.013-.01-.56 2.606-.041.01.562-.974.009.052 2.758ZM150.973 221.575l.321-3.294.66.065-.318 3.299ZM153.09 221.873l.595-2.686-.947-.21.125-.543 2.544.56-.123.546-.945-.208-.603 2.687ZM156.487 219.256l.612.263-.704 1.654a3.361 3.361 0 0 0-.195.521.533.533 0 0 0 .058.38.658.658 0 0 0 .353.28c.173.076.317.096.436.06a.475.475 0 0 0 .268-.196c.06-.098.145-.269.25-.507l.714-1.697.612.26-.679 1.606c-.159.368-.285.621-.383.757a.906.906 0 0 1-.343.308.997.997 0 0 1-.46.1c-.173-.002-.383-.057-.62-.153-.286-.12-.493-.249-.612-.38a1.114 1.114 0 0 1-.242-.41.91.91 0 0 1-.026-.415c.033-.193.123-.457.266-.798zM158.926 224.095l1.485-2.318-.818-.524.303-.47 2.196 1.402-.3.471-.823-.52-1.48 2.316ZM160.662 225.283l2.226-2.449 1.797 1.64-.372.411-1.303-1.19-.5.544 1.216 1.108-.377.41-1.212-1.1-.607.661 1.352 1.236-.38.406ZM164.29 228.365c-.091.405-.01.814.259 1.223.269.405.606.647 1.017.72.41.079.843-.031 1.287-.322.45-.295.725-.65.819-1.06.094-.406.008-.817-.26-1.221a1.746 1.746 0 0 0-.498-.522 1.268 1.268 0 0 0-.483-.195 1.596 1.596 0 0 0-.548-.005c-.246.038-.513.154-.796.339-.438.29-.707.632-.796 1.043m2.046-.744c.25.036.45.17.603.4a.858.858 0 0 1 .13.71c-.066.24-.26.464-.58.675-.319.209-.603.3-.862.26a.841.841 0 0 1-.6-.391.831.831 0 0 1-.117-.71c.067-.25.257-.48.573-.69.319-.206.603-.288.852-.254M165.743 231.468l3.043-1.297.887 2.074-.513.222-.626-1.466-.724.314.532 1.255-.515.215-.534-1.25-1.29.546ZM167.212 235.963l1.23-.208.073.425c.046.295.101.522.157.67a.947.947 0 0 0 .583.535c.146.043.321.056.521.018.263-.043.466-.143.604-.294a.855.855 0 0 0 .246-.517c.013-.129-.016-.39-.082-.784l-.175-1.053-3.268.553Zm2.772-.14c.035.23.051.386.053.469a.473.473 0 0 1-.105.29.403.403 0 0 1-.274.149.471.471 0 0 1-.27-.028.456.456 0 0 1-.198-.176c-.05-.084-.094-.246-.137-.506l-.062-.36.938-.154zM170.865 238.42l-.009.661-1.8-.02a4.07 4.07 0 0 0-.554.02.52.52 0 0 0-.332.197c-.084.105-.127.253-.13.435.002.184.042.326.113.422.08.098.173.154.288.171.11.017.297.033.562.035l1.836.024-.008.666-1.74-.021c-.4-.001-.679-.027-.848-.067a.886.886 0 0 1-.414-.199.987.987 0 0 1-.266-.387 1.704 1.704 0 0 1-.09-.632c.003-.317.044-.549.118-.711.077-.164.17-.287.288-.38a.926.926 0 0 1 .373-.182c.19-.039.465-.06.84-.056zM168.613 243.236c-.06.296-.114.483-.166.564a.446.446 0 0 1-.188.177.443.443 0 0 1-.266.02.422.422 0 0 1-.252-.144.5.5 0 0 1-.08-.268c.002-.066.022-.213.071-.449l.124-.604.862.178Zm-1.167-1.471-.229 1.097c-.082.417-.123.678-.136.788a.897.897 0 0 0 .066.471.83.83 0 0 0 .275.347.998.998 0 0 0 .408.191.814.814 0 0 0 .52-.055.88.88 0 0 0 .388-.393.73.73 0 0 0 .212.384.745.745 0 0 0 .403.206.718.718 0 0 0 .398-.018.942.942 0 0 0 .32-.193.79.79 0 0 0 .207-.307c.045-.118.095-.311.148-.564l.262-1.289Zm2.488 1.582c-.059.299-.098.486-.117.552a.403.403 0 0 1-.168.218.427.427 0 0 1-.264.032.35.35 0 0 1-.232-.149.415.415 0 0 1-.062-.283c.001-.059.028-.217.082-.474l.087-.421.756.154ZM166.735 244.97l3.058 1.188-.245.62-2.535-.985-.595 1.535-.521-.203zM165.652 247.635l2.925 1.552-.312.587-2.928-1.55ZM164.718 251.257l-.542.41c-.236-.294-.358-.585-.37-.872-.006-.293.093-.581.296-.87.255-.357.59-.559.994-.613.407-.054.824.068 1.249.37.445.324.709.687.793 1.09.084.408-.006.803-.277 1.182-.234.324-.52.519-.86.587-.206.041-.435.013-.696-.078l.26-.63a.699.699 0 0 0 .853-.243.764.764 0 0 0 .13-.643c-.054-.225-.24-.451-.56-.683-.342-.244-.627-.354-.861-.335a.718.718 0 0 0-.555.326.655.655 0 0 0-.132.467c.02.172.113.351.278.535M162.612 256.282l.55-.433-1.052-3.39-.554.434.251.755-1.035.824-.692-.408-.567.445Zm-.617-2.067.415 1.24-1.124-.675zM159.148 254.696l-1.088.612a2.299 2.299 0 0 0-.477.344c-.135.153-.23.308-.276.462a1.433 1.433 0 0 0-.015.683c.033.206.12.425.255.66.149.276.31.483.473.636.17.149.352.249.542.312.189.06.387.066.58.026a2.73 2.73 0 0 0 .58-.254l1.049-.596zm.512 2.87c-.237.136-.398.215-.49.24a.7.7 0 0 1-.344.016.776.776 0 0 1-.321-.188c-.11-.1-.221-.26-.348-.481a2.003 2.003 0 0 1-.24-.564c-.03-.147-.037-.27-.008-.361a.64.64 0 0 1 .168-.255c.06-.06.168-.13.335-.221l.427-.243 1.082 1.912zM156.41 256.233l.87 3.199-.962.259-1.165-2.022.029 2.331-.964.268-.868-3.203.594-.156.686 2.512-.06-2.687.619-.168 1.307 2.347-.68-2.513zM152.35 257.255l.475 3.274-.66.1-.477-3.276zM150.935 257.442l.034 3.312-.643.01-1.377-2.204.023 2.22-.615.004-.034-3.312.667-.008 1.353 2.164-.022-2.173zM147.466 257.308l-.424 3.29-.658-.085.424-3.29zM145.98 258.194l-.644-.101c.016-.22-.018-.396-.108-.524-.088-.125-.23-.215-.423-.268-.206-.051-.375-.048-.5.017a.398.398 0 0 0-.237.265.3.3 0 0 0 .019.209.57.57 0 0 0 .191.201c.066.045.227.133.478.271.322.169.533.34.64.5.15.224.192.466.124.721a.871.871 0 0 1-.251.421.871.871 0 0 1-.478.222 1.538 1.538 0 0 1-.656-.053c-.396-.096-.673-.262-.833-.494-.151-.23-.193-.493-.133-.793l.654.148c-.018.166.011.303.084.398.068.092.193.166.374.215a.785.785 0 0 0 .464-.004.256.256 0 0 0 .155-.175.27.27 0 0 0-.046-.221c-.065-.088-.243-.21-.537-.366-.287-.151-.501-.288-.631-.409a.957.957 0 0 1-.269-.413 1.1 1.1 0 0 1 .006-.546.998.998 0 0 1 .283-.474.945.945 0 0 1 .524-.248c.205-.034.446-.013.721.059.403.105.689.279.855.52.165.24.226.55.174.922M142.515 255.971l-1.097 2.53.89.382-.221.513-2.391-1.037.22-.512.89.39 1.1-2.53zM140.17 254.789l-.76 1.155-.11-.068a.965.965 0 0 1-.26-.22.438.438 0 0 1-.089-.227 5.088 5.088 0 0 1-.025-.596l.003-.863-.662-.432-.024.76c-.01.298-.006.516.018.65.022.134.071.283.141.424-.259-.113-.496-.15-.708-.093-.21.055-.379.185-.52.39a1.01 1.01 0 0 0-.166.516.75.75 0 0 0 .146.478c.098.136.293.302.585.49l1.164.772 1.824-2.771zm-1.517 2.298-.429-.28a5.77 5.77 0 0 1-.396-.273.407.407 0 0 1-.134-.248.395.395 0 0 1 .073-.268.45.45 0 0 1 .194-.175.367.367 0 0 1 .232-.015c.08.022.254.119.52.29l.404.272zM134.4 254.378l.498.48 3.226-1.492-.508-.49-.717.35-.95-.916.311-.744-.513-.498Zm1.967-.891-1.179.578.524-1.207ZM135.433 250.487l-2.185 1.674.592.773-.445.337-1.586-2.07.443-.342.59.772 2.187-1.675zM134.236 248.754l-2.85 1.69-.338-.572 2.85-1.696zM133.024 247.456c.167-.382.155-.803-.033-1.25-.185-.447-.472-.752-.862-.902-.392-.148-.832-.123-1.323.086-.5.205-.832.5-1 .886-.167.386-.162.802.027 1.25.104.25.235.452.393.605.119.115.266.208.44.281.17.065.353.104.536.106.252.004.53-.057.845-.184.487-.203.813-.498.977-.878m-2.146.347c-.244-.076-.415-.252-.52-.502-.107-.256-.106-.494.003-.719.112-.224.34-.409.688-.56.358-.145.656-.18.898-.092a.823.823 0 0 1 .52.495c.1.245.097.487-.014.716-.115.237-.345.423-.69.572-.353.145-.647.177-.885.09M132.214 244.166l-3.249.63-.13-.634 1.925-1.753-2.18.428-.118-.606 3.254-.632.123.65-1.88 1.728 2.14-.421z"/><path fill="#fff200" d="M155.46 232.702c-.052-.487-.31-.912-.775-1.256-1.542-1.16-3.792-3.894-3.814-3.918l-.356-.434-.034.554c-.006.116-.222 2.976-4.656 3.757-1.42.247-2.215.659-2.42 1.262-.245.718.423 1.422.82 1.838l.181.196 2.632 2.54.063.06h4.872l2.38-2.168c.806-.904 1.18-1.72 1.106-2.431"/><path fill="#00529c" d="M146.897 248.713v-1.881a2.027 2.027 0 0 1-.24.173 1.615 1.615 0 0 1-.317.155v-.26c.214-.099.401-.222.556-.38h.273v2.193h.546v.244h-1.375v-.244ZM149.193 247.725c0 .308-.052.557-.166.76-.112.2-.266.301-.47.301a.985.985 0 0 1-.455-.127v.295c.143.051.29.074.448.074a.79.79 0 0 0 .676-.35c.167-.236.25-.56.25-.962 0-.366-.065-.668-.195-.909a.644.644 0 0 0-.596-.35.655.655 0 0 0-.541.252.929.929 0 0 0-.208.601c0 .144.027.275.082.386a.587.587 0 0 0 .237.256.67.67 0 0 0 .338.091.602.602 0 0 0 .34-.105.927.927 0 0 0 .26-.273zm-.233-.878a.57.57 0 0 1 .132.392.64.64 0 0 1-.132.396.429.429 0 0 1-.34.164.371.371 0 0 1-.31-.142.588.588 0 0 1-.105-.36.82.82 0 0 1 .064-.319.484.484 0 0 1 .174-.21.436.436 0 0 1 .22-.076c.11 0 .214.054.297.155M150.964 247.725c0 .308-.058.557-.17.76-.107.2-.268.301-.471.301-.142 0-.293-.043-.457-.127v.295c.148.051.295.074.447.074a.797.797 0 0 0 .68-.35c.167-.236.252-.56.252-.962 0-.366-.067-.668-.197-.909a.65.65 0 0 0-.597-.35.671.671 0 0 0-.544.252.95.95 0 0 0-.206.601c0 .144.027.275.082.386a.592.592 0 0 0 .242.256.657.657 0 0 0 .332.091.597.597 0 0 0 .343-.105.969.969 0 0 0 .264-.273Zm-.234-.878a.594.594 0 0 1 .128.392.611.611 0 0 1-.133.396.426.426 0 0 1-.337.164.378.378 0 0 1-.312-.142.594.594 0 0 1-.104-.36c0-.114.024-.22.065-.319a.454.454 0 0 1 .172-.21.428.428 0 0 1 .223-.076c.11 0 .21.054.298.155M152.197 248.713v-1.881a1.935 1.935 0 0 1-.237.173c-.08.053-.186.104-.32.155v-.26c.214-.099.397-.222.557-.38h.271v2.193h.552v.244h-1.38v-.244Z"/><path fill="#b1b3b6" d="M151.354 231.125s.947 1.006-.92 2.192c0 0-.789.412-1.952.687-1.116.269-2.318.779-1.712 1.955.606 1.177.723 1.387.723 1.387l.609-.71s.073-.292-.336-.883c-.368-.528.304-.817.685-.957.14-.052 1.809-.545 2.486-1.028.675-.49 1.87-1.92.417-2.643"/><path fill="#00529c" d="M146.207 239.91a.54.54 0 0 0-.38.153l.011-.01c-.278.233-4.593 3.836-4.721 3.93-.293.267-.178.606-.032.77.27.275.595.3.904.075l4.737-3.962.023-.025c.097-.1.357-.364-.044-.744a.727.727 0 0 0-.498-.187M152.549 238.769a.132.132 0 0 0-.075.094c-.004.017-.376 1.565-1.758 2.272-1.007.515-2.296.47-3.831-.127a.144.144 0 0 0-.154.027l-4.103 3.602c-.045.038-.058.099-.045.15.02.056.069.095.127.103.158.018 3.887.44 5.625-.805 1.637-1.164 2.718-2.02 2.729-2.027.212-.113.244-.116.526-.154l.078-.01a2.11 2.11 0 0 1 .512.03c.07.02 2.109.679 1.464 2.98a.15.15 0 0 0 .073.166.151.151 0 0 0 .178-.028l4.247-4.447a.142.142 0 0 0 .02-.164c-.036-.068-.905-1.613-2.68-2.03-.725-.168-1.95-.125-2.933.368"/><path fill="#fff" d="m146.828 241.139-4.103 3.604s3.812.45 5.52-.771c1.656-1.178 2.724-2.027 2.724-2.027.283-.152.319-.145.678-.196.233-.028.56.034.56.034s2.27.69 1.58 3.16l4.244-4.444s-.854-1.552-2.582-1.957c-.746-.176-1.938-.094-2.832.35 0 0-.95 4.136-5.79 2.247"/><path fill="#00529c" d="M158.35 239.717c.002-.009-4.97 5.056-5.058 5.157-.114.14-.11.224-.119.282-.002.156.078.326.231.472a.867.867 0 0 0 .591.233.61.61 0 0 0 .442-.177c1.688-1.72 4.901-4.99 4.996-5.08.156-.17.126-.466.126-.466a.695.695 0 0 0-.126-.304c-.107-.156-.358-.272-.613-.285-.205-.009-.372.051-.47.168"/><path fill="#fff" d="M159.309 239.911c-.144-.2-.662-.319-.848-.103l-5.063 5.167c-.11.101-.12.327.11.553.183.178.592.288.822.058 0 0 4.995-5.088 5.002-5.088.03-.032.043-.075.055-.115a.561.561 0 0 0 .019-.254.564.564 0 0 0-.097-.218M145.934 240.16c-.135.119-4.646 3.883-4.728 3.938-.225.203-.098.46-.008.562.1.104.354.309.703.053l4.723-3.954c.095-.092.294-.26-.023-.56-.181-.174-.517-.194-.667-.04"/><path fill="#00529c" d="m152.74 237.704 1.66-1.657s.048-.047.03-.098c-.011-.042-.065-.05-.065-.05h-3.037s-.072.004-.093.024c-.024.021-.027.073-.047.118-.3.754-1.578.718-1.583.718-.004 0-1.286.036-1.583-.718-.02-.045-.024-.097-.048-.118-.02-.02-.094-.024-.094-.024h-3.035s-.056.008-.067.05c-.017.051.03.098.03.098l1.663 1.657s.028.025.022.037c-.007.018-.047.014-.047.014-.03 0-.28 0-.302.01-.03.01-.038.03-.044.053-.01.061.097.434.097.434.018.07.029.11.164.204.168.12.633.46 1.18.704.995.458 1.154 1.17 1.158 1.175.015.033.022.045.036.057.018.02.04.02.062.02H150.412c.022 0 .045 0 .062-.02.014-.012.022-.024.036-.057.006-.005.163-.717 1.158-1.175.549-.245 1.013-.584 1.182-.704.132-.094.143-.134.164-.204 0 0 .104-.373.094-.434-.005-.024-.012-.043-.041-.054-.024-.01-.274-.009-.304-.009 0 0-.04.004-.047-.014-.006-.012.024-.037.024-.037"/><path fill="#fff" d="M130.457 240.112a.388.388 0 1 1-.776 0 .388.388 0 0 1 .775 0"/></g></svg>