<svg xmlns="http://www.w3.org/2000/svg" width="1484.099mm" height="300mm" viewBox="0 0 1484.099 300"><defs><linearGradient id="a" x1="273.53516" x2="322.90039" y1="548.29688" y2="548.29688" gradientTransform="matrix(4.58205 0 0 -4.58205 -1646.982 2628.2)" gradientUnits="userSpaceOnUse" spreadMethod="pad"><stop offset="0" style="stop-opacity:1;stop-color:#cce310"/><stop offset="0.39999" style="stop-opacity:1;stop-color:#cce310"/><stop offset="0.69124647" style="stop-opacity:1;stop-color:#cce310"/><stop offset="1" style="stop-opacity:1;stop-color:#3a500a"/></linearGradient></defs><path d="M168.234 86.361h26.839c4.52 0 6.792 1.544 6.792 4.656 0 3.1-2.272 4.66-6.792 4.66h-19.724c5.468 1.795 9.933 4.547 13.424 8.283 3.463 3.735 5.208 8.028 5.208 12.854 0 6.951-3.48 12.869-10.425 17.78-6.946 4.877-15.009 7.316-24.155 7.316-9.155 0-17.21-2.336-24.154-7.02-6.945-4.675-10.426-10.51-10.426-17.425 0-4.96 1.808-9.35 5.378-13.191 3.58-3.848 8.109-6.708 13.568-8.596h-14.042c-1.906 0-4.931-.821-9.092-2.454-4.135-1.634-6.22-3.238-6.22-4.822 0-.942.492-1.524 1.494-1.727 1.003-.201 1.87-.313 2.614-.313h32.351v-2.846c0-2.629-1.709-4.414-5.128-5.376-3.418-.931-5.119-2.2-5.119-3.793 0-.848.313-1.362.94-1.559.627-.214 1.468-.316 2.533-.316h22.553c.545 0 .93.104 1.19.316.277.197.394.526.394.938v12.636m3.016 86.341c0 .642.17 1.072.555 1.354.357.239 1.002.375 1.96.375h54.313c4.627 0 6.936 1.508 6.936 4.504 0 3.002-2.31 4.501-6.936 4.501h-58.896c-4.179 0-7.991-.618-11.356-1.886-3.383-1.262-5.056-3.736-5.056-7.414v-14.518c0-3.482-2.014-5.732-6.086-6.72-4.054-.997-6.059-2.344-6.059-4.033 0-.938.331-1.535 1.021-1.734.68-.201 1.61-.312 2.747-.312h25.264c.528 0 .914.104 1.181.312.26.199.412.577.412 1.103v24.468m-27.94-55.408c0 4.215 1.252 8.184 3.768 11.922 2.541 3.723 6.586 5.607 12.162 5.607 5.468 0 9.558-1.854 12.305-5.528 2.739-3.687 4.117-7.584 4.117-11.683 0-4.316-1.316-8.334-3.956-12.082-2.63-3.727-6.703-5.589-12.305-5.589-5.37 0-9.379 1.844-12.1 5.513-2.657 3.678-3.99 7.631-3.99 11.84m86.342-12.31h14.373c4.94 0 7.401 1.501 7.401 4.504 0 2.996-2.461 4.486-7.401 4.486h-14.373v32.215c0 4.414-.787 7.314-2.372 8.683-1.574 1.37-3.937 2.05-7.105 2.05h-6.945c-.43 0-.805-.134-1.118-.394-.322-.273-.456-.548-.456-.869V84.153c0-4.32-2.077-6.896-6.229-7.737-4.17-.841-6.238-2.37-6.238-4.575 0-.938.493-1.535 1.504-1.734.984-.222 2.157-.326 3.535-.326h23.85c.51 0 .913.104 1.171.326.27.199.403.521.403.926zM346.379 113.798l2.524-29.054c0-.316-.027-.514-.104-.62-.052-.103-.331-.16-.859-.16h-60.443c-1.7 0-4.716-.837-9.093-2.527-4.376-1.689-6.541-3.197-6.541-4.584 0-.82.455-1.383 1.342-1.64.904-.275 1.7-.405 2.434-.405h90.773c2.622 0 4.466.514 5.441 1.488 1.012 1.009 1.298 2.346.877 4.045-.734 3.465-2.48 8.672-5.2 15.639-2.747 6.915-5.54 12.871-8.376 17.818h23.062c4.725 0 7.079 1.503 7.079 4.495 0 3.016-2.354 4.51-7.079 4.51h-50.062v20.049h34.902c.412 0 .77.09 1.092.324.304.198.474.508.474.93v33.787c0 3.367-.554 5.714-1.664 7.106-1.1 1.362-3.347 2.049-6.694 2.049h-8.377c-.43 0-.787-.138-1.11-.396-.303-.264-.455-.56-.455-.877v-33.78h-62.824c-2.023 0-4.958-.764-8.86-2.28-3.893-1.527-5.844-3.026-5.844-4.516 0-1.146.456-1.826 1.351-2.023.904-.235 1.817-.324 2.766-.324h35.359v-20.05h-40.406c-2.104 0-5.164-.782-9.156-2.299-3.99-1.52-6.005-2.91-6.005-4.175 0-1.043.198-1.75.636-2.05.402-.319 1.207-.48 2.37-.48zM469.602 162.626h54.323c5.145 0 7.723 1.508 7.723 4.566 0 3.05-2.578 4.593-7.723 4.593H413.249c-2.954 0-6.211-.792-9.791-2.365-3.589-1.597-5.37-3.012-5.37-4.269 0-1.052.224-1.74.636-2.058.42-.307 1.207-.468 2.371-.468h48.46V132.16c0-3.051-1.905-5.145-5.69-6.228-3.787-1.115-5.684-2.556-5.684-4.356 0-.938.403-1.542 1.208-1.723a8.125 8.125 0 0 1 2.256-.338h26.391c.528 0 .913.117 1.173.338.26.182.394.51.394.938v41.836m-40.263-72.77c-1.772-.22-4.994-1.192-9.63-2.922-4.618-1.738-6.936-3.29-6.936-4.664 0-.951.403-1.553 1.19-1.82a7.227 7.227 0 0 1 2.291-.384h94.854c3.079 0 5.128.635 6.166 1.882 1.056 1.272 1.477 2.837 1.261 4.736-1.037 7.679-2.756 15.796-5.137 24.324-2.362 8.507-5.45 17.091-9.217 25.732-1.898 4.099-4.117 6.144-6.632 6.144-2.542 0-3.687-2.092-3.472-6.312V91.58c0-.61-.17-1.072-.492-1.338-.297-.255-.877-.385-1.719-.385zM594.669 114.12c-.528.43-1.083.861-1.665 1.295-.573.387-1.118.832-1.646 1.253a195.965 195.965 0 0 1-21.148 13.42c-7.481 4.11-14.363 7.253-20.7 9.466-3.257 1.05-5.092 1.13-5.494.25-.43-.91.439-2.047 2.667-3.416 3.248-2.114 7.651-5.076 13.182-8.9 5.513-3.853 10.757-8.027 15.706-12.571 3.696-3.354 7.652-7.74 11.903-13.17 4.286-5.423 7.043-9.663 8.314-12.694h-30.795c-1.566 0-4.215-.796-7.885-2.378-3.686-1.584-5.53-2.99-5.53-4.26 0-.848.358-1.423 1.1-1.745.734-.31 1.629-.48 2.685-.48h61.884c1.665 0 2.757.48 3.222 1.424.493.96.447 1.957-.078 3.006-1.36 2.744-4.009 6.489-7.955 11.279a154.984 154.984 0 0 1-12.709 13.67 78.041 78.041 0 0 0 8.824 4.172c3.07 1.208 5.898 2.077 8.538 2.598 1.36.329 2.497.436 3.383.329.895-.091 1.71.353 2.461 1.414a48.029 48.029 0 0 1 6.452 12.392c1.593 4.48 1.325 7.283-.778 8.44-2.21 1.267-5.566.026-10.103-3.703a309.845 309.845 0 0 1-13.102-11.447 408.126 408.126 0 0 1-5.674-5.132 476.28 476.28 0 0 0-5.057-4.513m5.209 58.583c0 .641.188 1.071.536 1.353.394.24 1.047.375 1.987.375h54.313c4.618 0 6.945 1.508 6.945 4.504 0 3.003-2.327 4.502-6.945 4.502H597.83c-4.216 0-8-.618-11.366-1.886-3.383-1.263-5.047-3.737-5.047-7.415v-17.071c0-3.462-2.032-5.695-6.094-6.71-4.046-.989-6.06-2.336-6.06-4.01 0-.947.332-1.528 1.012-1.729.68-.22 1.611-.329 2.757-.329h25.273c.545 0 .913.104 1.19.329.25.201.384.512.384.938v27.15m41.999-70.563V84.154c0-4.32-2.085-6.896-6.238-7.737-4.17-.842-6.228-2.37-6.228-4.575 0-.938.492-1.535 1.494-1.734.985-.222 2.184-.326 3.553-.326h23.832c.528 0 .921.104 1.181.326.269.199.394.52.394.926v73.892c0 4.41-.778 7.312-2.363 8.676-1.593 1.368-3.956 2.059-7.106 2.059h-6.962c-.412 0-.787-.13-1.093-.396-.313-.272-.465-.561-.465-.868v-43.409h-17.066c-1.047 0-3.257-.877-6.613-2.61-3.374-1.726-5.056-3.133-5.056-4.175 0-1.062.34-1.674 1.028-1.829a10.047 10.047 0 0 1 2.121-.235zM783.902 101.04V84.154c0-4.32-2.05-6.895-6.228-7.736-4.144-.842-6.22-2.37-6.22-4.576 0-.937.492-1.535 1.494-1.733.985-.222 2.175-.326 3.535-.326h23.859c.52 0 .913.103 1.173.326.269.198.393.52.393.926v74.518c0 4.439-.778 7.299-2.353 8.6-1.584 1.307-3.956 1.985-7.115 1.985h-6.945a1.89 1.89 0 0 1-1.109-.326 1.097 1.097 0 0 1-.483-.938V109.57h-14.981c-.833 0-2.04-.303-3.616-.884a25.21 25.21 0 0 1-4.438-2.114v22.575c0 2.61-.456 4.595-1.334 5.913-.895 1.309-2.881 1.98-5.907 1.98h-8.707c-.403 0-.815-.104-1.172-.325-.367-.21-.536-.483-.536-.797v-3.154h-29.685c0 1.171-.555 2.237-1.665 3.232-1.109 1.003-3.025 1.51-5.78 1.51h-8.35c-.422 0-.824-.117-1.183-.313-.375-.22-.545-.479-.545-.805V91.55c0-2.723-1.7-4.672-5.057-5.833-3.373-1.158-5.056-2.526-5.056-4.103 0-.622.251-1.069.787-1.325.528-.266 1.164-.405 1.898-.405h23.536c.51 0 .895.09 1.164.307.26.228.403.526.403.971v16.713h29.532V88.72c0-2.739-1.682-4.696-4.994-5.916-3.32-1.205-4.957-2.443-4.957-3.703 0-.626.214-1.116.69-1.416.473-.322 1.028-.477 1.664-.477h23.689c.52 0 .93.091 1.173.31.268.211.393.522.393.957v22.566h23.036m-41.982 71.661c0 .642.198 1.072.555 1.354.377.24 1.029.375 1.969.375h54.331c4.627 0 6.927 1.508 6.927 4.504 0 3.003-2.3 4.502-6.927 4.502h-58.904c-4.216 0-7.992-.618-11.366-1.887-3.374-1.262-5.047-3.736-5.047-7.414v-17.373c0-3.483-2.032-5.707-6.077-6.71-4.054-.978-6.076-2.295-6.076-3.864 0-.945.349-1.534 1.028-1.734.672-.22 1.594-.326 2.766-.326h25.246c.527 0 .922.104 1.18.326.27.199.394.51.394.942v27.305m1.288-66.472h-29.532v18.006h29.532zM900.431 90.297h25.407v-6.611c0-4.338-2.067-6.833-6.237-7.51-4.162-.684-6.256-2.129-6.256-4.335 0-.937.51-1.535 1.53-1.733.994-.222 2.184-.326 3.544-.326h23.841c.51 0 .913.103 1.191.326.26.198.403.52.403.926v56.83c0 4.414-.814 7.025-2.38 7.822-1.584.796-3.956 1.199-7.115 1.199h-6.927c-.43 0-.797-.146-1.127-.403-.304-.275-.465-.564-.465-.866v-18.004h-24.772c-3.257 4.197-7.75 7.605-13.424 10.182-5.683 2.585-11.947 3.868-18.784 3.868-9.898 0-18.499-2.635-25.81-7.897-7.32-5.258-10.963-11.73-10.963-19.413 0-7.786 3.642-14.312 10.963-19.577 7.311-5.262 15.912-7.893 25.81-7.893 6.515 0 12.6 1.241 18.23 3.713 5.629 2.475 10.067 5.703 13.343 9.702m-49.58 14.055c0 4.642 1.46 9 4.35 13.112 2.89 4.097 7.446 6.146 13.657 6.146 6.192 0 10.757-2.05 13.638-6.146 2.91-4.112 4.35-8.47 4.35-13.112 0-4.84-1.414-9.279-4.269-13.335-2.828-4.052-7.4-6.079-13.72-6.079-6.318 0-10.89 2.027-13.737 6.079-2.845 4.056-4.268 8.495-4.268 13.335m92.044 73.232c0 3.908-.564 6.48-1.665 7.752-1.118 1.253-3.553 1.88-7.33 1.88h-7.428c-.42 0-.787-.137-1.109-.393-.313-.253-.474-.545-.474-.867V151.23h-57.625c-1.459 0-4.215-.787-8.26-2.365-4.072-1.575-6.086-3.157-6.086-4.736 0-.521.153-1.032.456-1.497.322-.459 1.164-.722 2.533-.722h85.422c.51 0 .904.117 1.163.347.26.19.403.501.403.935v34.392M925.84 98.68h-20.977c.196.832.376 1.745.528 2.752.16 1 .25 1.973.25 2.92 0 .839-.078 1.653-.16 2.445a18.717 18.717 0 0 1-.466 2.3h20.825zM1006.794 127.097l-24.146 1.89c-1.387.186-4.09-.69-8.143-2.687-4.045-2.002-6.068-3.683-6.068-5.054 0-.964.304-1.58.948-1.89.618-.328 1.468-.481 2.524-.481l84.929-1.908c4.618-.091 7.034.796 7.258 2.7.206 1.895-1.799 3.043-5.987 3.477l-32.683 2.51v12.632c0 3.484-.788 5.768-2.372 6.887-1.584 1.092-4.045 1.648-7.419 1.648h-7.267c-.402 0-.796-.132-1.092-.404-.34-.257-.483-.548-.483-.863v-18.456m9.62-54.624c8.636 0 16.136 2.02 22.49 6.063 6.399 4.065 9.557 9.085 9.557 15.073 0 5.904-3.158 10.913-9.557 14.992-6.354 4.114-13.854 6.175-22.49 6.175-8.627 0-16.127-2.06-22.499-6.175-6.353-4.079-9.54-9.088-9.54-14.992 0-5.988 3.187-11.008 9.54-15.073 6.372-4.043 13.872-6.063 22.5-6.063m9.011 100.23c0 .641.178 1.071.546 1.353.367.24 1.02.376 1.978.376h55.557c4.644 0 6.962 1.507 6.962 4.503 0 3.003-2.318 4.502-6.962 4.502h-60.453c-4.215 0-7.991-.618-11.374-1.886-3.365-1.263-5.048-3.737-5.048-7.414v-10.745c0-3.483-2.022-5.763-6.067-6.863-4.063-1.115-6.086-2.399-6.086-3.87 0-.948.332-1.538 1.012-1.74.698-.21 1.62-.315 2.792-.315h25.55c.529 0 .94.104 1.191.316.251.201.403.526.403.95v20.832m-22.732-79.094c0 3.383 1.093 6.535 3.303 9.477 2.22 2.943 5.683 4.42 10.417 4.42 4.841 0 8.358-1.477 10.506-4.42 2.166-2.942 3.249-6.094 3.249-9.477 0-3.25-1.065-6.414-3.177-9.455-2.094-3.067-5.638-4.584-10.578-4.584-4.95 0-8.448 1.517-10.56 4.584-2.121 3.041-3.16 6.204-3.16 9.455m65.975 39.326V83.686c0-4.337-2.067-6.832-6.229-7.51-4.152-.683-6.237-2.128-6.237-4.334 0-.937.492-1.535 1.503-1.734.994-.222 2.175-.326 3.544-.326h23.85c.52 0 .913.104 1.18.326.27.2.377.521.377.927v77.2c0 4.424-.761 7.225-2.363 8.454-1.575 1.201-3.929 1.807-7.105 1.807h-6.945c-.412 0-.778-.117-1.1-.38-.314-.276-.475-.567-.475-.886v-15.79h-21.621c-1.468 0-3.929-.782-7.33-2.362-3.436-1.57-5.146-2.935-5.146-4.103 0-.626.215-1.123.636-1.488.42-.375 1.002-.552 1.736-.552z" style="fill:#231f20;fill-opacity:1;fill-rule:nonzero;stroke:none;stroke-width:4.58205" transform="translate(393.63 34.08)"/><path d="M-166.909 3.381S-98.84 58.948.023 58.948V265.92H68.35V3.38Z" style="fill:#1c6520;fill-opacity:1;fill-rule:nonzero;stroke:none;stroke-width:4.58205" transform="translate(393.63 34.08)"/><path d="M-393.63 265.822s168.47-66.22 226.193 0V3.382s-8.269-36.697-79.908-37.45c-59.603-.625-135.86 22.618-72.838 42.63 0 0-68.892 57.773-73.448 257.26z" style="fill:url(#a);fill-opacity:1;fill-rule:nonzero;stroke:none;stroke-width:4.58205" transform="translate(393.63 34.08)"/><path d="M219.464 207.676v29.925h-3.906v-29.925zM224.973 221.928c0-2.264-.052-4.04-.18-5.817h3.463l.22 3.508h.09c1.066-1.998 3.554-3.996 7.107-3.996 2.975 0 7.593 1.777 7.593 9.147v12.83h-3.91v-12.388c0-3.46-1.285-6.392-4.972-6.392-2.528 0-4.529 1.822-5.24 3.996-.175.487-.264 1.2-.264 1.82V237.6h-3.906zM247.968 233.65c1.199.708 3.244 1.51 5.195 1.51 2.797 0 4.13-1.378 4.13-3.197 0-1.866-1.11-2.887-3.951-3.952-3.906-1.42-5.728-3.508-5.728-6.083 0-3.463 2.842-6.305 7.415-6.305 2.175 0 4.085.577 5.24 1.331l-.936 2.8c-.841-.49-2.393-1.245-4.393-1.245-2.31 0-3.553 1.331-3.553 2.93 0 1.82 1.244 2.62 4.04 3.685 3.687 1.376 5.638 3.24 5.638 6.482 0 3.819-2.975 6.482-7.992 6.482-2.353 0-4.528-.623-6.036-1.508zM269.68 210.96v5.15h5.593v2.977h-5.594v11.587c0 2.665.756 4.175 2.93 4.175 1.066 0 1.688-.091 2.265-.267l.18 2.973c-.757.267-1.956.533-3.464.533-1.821 0-3.285-.622-4.22-1.642-1.065-1.2-1.508-3.108-1.508-5.638v-11.722h-3.329v-2.975h3.33v-3.952zM280.423 212.16c-1.464 0-2.443-1.155-2.443-2.53 0-1.376 1.024-2.486 2.532-2.486s2.488 1.11 2.488 2.486c0 1.376-.98 2.53-2.533 2.53h-.052m-1.866 25.44v-21.49h3.911v21.49zM292.545 210.96v5.15h5.593v2.977h-5.593v11.587c0 2.665.756 4.175 2.93 4.175 1.065 0 1.687-.091 2.265-.267l.174 2.973c-.752.267-1.951.533-3.46.533-1.82 0-3.288-.622-4.219-1.642-1.065-1.2-1.508-3.108-1.508-5.638v-11.722h-3.334v-2.975h3.334v-3.952zM319.406 231.74c0 2.22.052 4.174.174 5.86h-3.464l-.22-3.508h-.09c-.976 1.732-3.285 3.996-7.106 3.996-3.374 0-7.41-1.908-7.41-9.412V216.11h3.907v11.855c0 4.084 1.284 6.883 4.792 6.883 2.622 0 4.439-1.822 5.15-3.598.225-.533.359-1.242.359-1.998v-13.142h3.906zM329.483 210.96v5.15h5.593v2.977h-5.593v11.587c0 2.665.756 4.175 2.93 4.175 1.066 0 1.687-.091 2.265-.267l.18 2.973c-.757.267-1.956.533-3.464.533-1.822 0-3.29-.622-4.22-1.642-1.065-1.2-1.508-3.108-1.508-5.638v-11.722h-3.33v-2.975h3.33v-3.952zM340.32 227.521c.091 5.285 3.419 7.46 7.33 7.46 2.796 0 4.528-.489 5.947-1.065l.711 2.751c-1.378.622-3.776 1.376-7.195 1.376-6.569 0-10.564-4.394-10.564-10.833 0-6.526 3.861-11.632 10.121-11.632 7.016 0 8.838 6.173 8.838 10.124 0 .799-.052 1.42-.134 1.864l-15.053-.052m11.41-2.797c.053-2.44-1.02-6.349-5.369-6.349-3.996 0-5.683 3.642-5.996 6.35zM367.893 237.6v-18.513h-2.975v-2.976h2.975v-1.02c0-3.018.712-5.772 2.528-7.504 1.468-1.42 3.42-1.998 5.196-1.998 1.422 0 2.577.312 3.328.622l-.487 3.02c-.622-.267-1.373-.49-2.528-.49-3.289 0-4.175 2.932-4.175 6.216v1.155h5.195v2.976h-5.15v18.514zM387.609 238.088c-5.773 0-10.301-4.262-10.301-11.054 0-7.193 4.747-11.41 10.654-11.41 6.17 0 10.345 4.483 10.345 11.01 0 7.99-5.548 11.454-10.658 11.454h-.04m.13-2.929c3.732 0 6.53-3.508 6.53-8.392 0-3.64-1.822-8.213-6.44-8.213-4.573 0-6.569 4.262-6.569 8.348 0 4.705 2.663 8.257 6.435 8.257h.051zM402.17 222.816c0-2.53-.053-4.707-.18-6.705h3.418l.18 4.22h.133c.976-2.887 3.374-4.708 5.992-4.708.402 0 .712.052 1.065.134v3.64c-.443-.052-.842-.09-1.374-.09-2.752 0-4.707 2.086-5.24 4.973-.09.576-.133 1.196-.133 1.864v11.455h-3.907l.052-14.785zM428.543 210.96v5.15h5.593v2.977h-5.593v11.587c0 2.665.75 4.175 2.926 4.175 1.069 0 1.692-.091 2.264-.267l.18 2.973c-.752.267-1.951.533-3.463.533-1.822 0-3.285-.622-4.216-1.642-1.065-1.2-1.512-3.108-1.512-5.638v-11.722h-3.33v-2.975h3.33v-3.952zM437.42 206.079h3.907v13.408h.09c.623-1.112 1.599-2.132 2.798-2.754a7.625 7.625 0 0 1 3.995-1.11c2.887 0 7.504 1.777 7.504 9.192V237.6h-3.906v-12.343c0-3.506-1.288-6.392-4.976-6.392-2.528 0-4.483 1.776-5.235 3.906-.224.532-.269 1.11-.269 1.864V237.6h-3.906zM463.172 227.521c.091 5.285 3.419 7.46 7.325 7.46 2.797 0 4.529-.489 5.947-1.065l.712 2.751c-1.374.622-3.772 1.376-7.19 1.376-6.574 0-10.57-4.394-10.57-10.833 0-6.526 3.866-11.632 10.126-11.632 7.012 0 8.833 6.173 8.833 10.124 0 .799-.052 1.42-.134 1.864l-15.048-.052m11.41-2.797c.053-2.44-1.02-6.349-5.373-6.349-3.996 0-5.683 3.642-5.992 6.35zM494.392 210.96h-9.102v-3.284h22.154v3.285h-9.146v26.64h-3.906zM507.583 222.816c0-2.53-.052-4.707-.18-6.705h3.42l.179 4.22h.13c.979-2.887 3.378-4.708 5.996-4.708.398 0 .711.052 1.065.134v3.64c-.443-.052-.842-.09-1.374-.09-2.757 0-4.708 2.086-5.24 4.973a11.97 11.97 0 0 0-.134 1.864v11.455h-3.906l.052-14.785zM535.827 232.45c0 1.866.091 3.685.31 5.15h-3.509l-.353-2.707h-.134c-1.154 1.687-3.508 3.195-6.569 3.195-4.354 0-6.573-3.063-6.573-6.17 0-5.196 4.618-8.037 12.919-7.992v-.443c0-1.776-.488-5.018-4.882-4.973-2.04 0-4.13.576-5.638 1.597l-.891-2.618c1.776-1.111 4.398-1.865 7.105-1.865 6.614 0 8.216 4.483 8.216 8.79v8.036m-3.822-5.817c-4.26-.09-9.101.667-9.101 4.84 0 2.575 1.687 3.73 3.642 3.73 2.842 0 4.663-1.775 5.285-3.596.13-.4.174-.843.174-1.243zM540.973 221.928c0-2.264-.039-4.04-.174-5.817h3.463l.22 3.508h.09c1.066-1.998 3.554-3.996 7.107-3.996 2.97 0 7.588 1.777 7.588 9.147v12.83h-3.906v-12.388c0-3.46-1.288-6.392-4.971-6.392-2.533 0-4.528 1.822-5.24 3.996-.18.487-.263 1.2-.263 1.82V237.6h-3.911zM563.973 233.65c1.199.708 3.24 1.51 5.195 1.51 2.796 0 4.13-1.378 4.13-3.197 0-1.866-1.11-2.887-3.951-3.952-3.911-1.42-5.728-3.508-5.728-6.083 0-3.463 2.842-6.305 7.415-6.305 2.174 0 4.08.577 5.235 1.331l-.931 2.8c-.842-.49-2.399-1.245-4.394-1.245-2.31 0-3.553 1.331-3.553 2.93 0 1.82 1.244 2.62 4.04 3.685 3.683 1.376 5.638 3.24 5.638 6.482 0 3.819-2.975 6.482-7.992 6.482-2.353 0-4.528-.623-6.036-1.508zM580.976 206.079h3.907V237.6h-3.907zM605.394 232.45c0 1.866.091 3.685.313 5.15H602.2l-.353-2.707h-.134c-1.154 1.687-3.508 3.195-6.573 3.195-4.35 0-6.568-3.063-6.568-6.17 0-5.196 4.617-8.037 12.918-7.992v-.443c0-1.776-.489-5.018-4.882-4.973-2.045 0-4.13.576-5.638 1.597l-.89-2.618c1.776-1.111 4.394-1.865 7.105-1.865 6.614 0 8.211 4.483 8.211 8.79v8.036m-3.816-5.817c-4.264-.09-9.102.667-9.102 4.84 0 2.575 1.687 3.73 3.643 3.73 2.84 0 4.658-1.775 5.28-3.596.134-.4.18-.843.18-1.243zM615.078 210.96v5.15h5.593v2.977h-5.593v11.587c0 2.665.756 4.175 2.93 4.175 1.066 0 1.687-.091 2.265-.267l.18 2.973c-.757.267-1.957.533-3.465.533-1.82 0-3.284-.622-4.22-1.642-1.064-1.2-1.507-3.108-1.507-5.638v-11.722h-3.33v-2.975h3.33v-3.952zM625.866 212.16c1.557 0 2.533-1.155 2.533-2.53 0-1.376-.976-2.486-2.488-2.486-1.508 0-2.528 1.11-2.528 2.486 0 1.376.975 2.53 2.438 2.53h.052m2 25.44v-21.49h-3.906v21.49zM641.984 238.088c-5.773 0-10.301-4.262-10.301-11.054 0-7.193 4.752-11.41 10.654-11.41 6.17 0 10.346 4.483 10.346 11.01 0 7.99-5.549 11.454-10.655 11.454h-.052m.134-2.929c3.728 0 6.524-3.508 6.524-8.392 0-3.64-1.821-8.213-6.435-8.213-4.572 0-6.573 4.262-6.573 8.348 0 4.705 2.663 8.257 6.44 8.257h.051zM656.5 221.928c0-2.264-.052-4.04-.174-5.817h3.463l.22 3.508h.09c1.066-1.998 3.553-3.996 7.106-3.996 2.971 0 7.59 1.777 7.59 9.147v12.83h-3.907v-12.388c0-3.46-1.288-6.392-4.972-6.392-2.532 0-4.528 1.822-5.239 3.996-.18.487-.264 1.2-.264 1.82V237.6h-3.91zM697.08 238.088c-5.772 0-10.3-4.262-10.3-11.054 0-7.193 4.752-11.41 10.654-11.41 6.175 0 10.345 4.483 10.345 11.01 0 7.99-5.549 11.454-10.654 11.454h-.052m.134-2.929c3.727 0 6.524-3.508 6.524-8.392 0-3.64-1.817-8.213-6.435-8.213-4.572 0-6.573 4.262-6.573 8.348 0 4.705 2.667 8.257 6.44 8.257h.051zM715.86 237.6v-18.513h5.151v-2.976h-5.195v-1.155c0-3.284.89-6.215 4.175-6.215 1.154 0 1.91.222 2.528.49l.492-3.02c-.756-.311-1.91-.623-3.334-.623-1.772 0-3.727.577-5.19 1.998-1.821 1.732-2.533 4.486-2.533 7.504v1.02h-2.975v2.975h2.975V237.6zM731.889 207.676h3.86v14.429h.135a71.688 71.688 0 0 1 2.354-3.195l9.146-11.234h4.792l-10.833 12.697 11.68 17.228h-4.574l-9.813-14.695-2.887 3.284v11.41h-3.86zM763.413 238.088c-5.773 0-10.301-4.262-10.301-11.054 0-7.193 4.747-11.41 10.654-11.41 6.17 0 10.345 4.483 10.345 11.01 0 7.99-5.548 11.454-10.654 11.454h-.052m.13-2.929c3.732 0 6.529-3.508 6.529-8.392 0-3.64-1.822-8.213-6.44-8.213-4.572 0-6.568 4.262-6.568 8.348 0 4.705 2.662 8.257 6.439 8.257h.039zM777.973 222.816c0-2.53-.052-4.707-.18-6.705h3.42l.179 4.22h.134c.975-2.887 3.373-4.708 5.991-4.708.403 0 .712.052 1.07.134v3.64c-.449-.052-.846-.09-1.38-.09-2.751 0-4.706 2.086-5.239 4.973a11.97 11.97 0 0 0-.134 1.864v11.455h-3.906l.052-14.785zM793.299 227.521c.09 5.285 3.418 7.46 7.325 7.46 2.796 0 4.528-.489 5.947-1.065l.711 2.751c-1.373.622-3.772 1.376-7.19 1.376-6.574 0-10.57-4.394-10.57-10.833 0-6.526 3.862-11.632 10.122-11.632 7.016 0 8.837 6.173 8.837 10.124 0 .799-.052 1.42-.133 1.864l-15.049-.052m11.41-2.797c.053-2.44-1.024-6.349-5.373-6.349-3.996 0-5.683 3.642-5.992 6.35zM827.351 232.45c0 1.866.091 3.685.308 5.15h-3.508l-.353-2.707h-.134c-1.155 1.687-3.509 3.195-6.569 3.195-4.354 0-6.573-3.063-6.573-6.17 0-5.196 4.617-8.037 12.922-7.992v-.443c0-1.776-.487-5.018-4.886-4.973-2.04 0-4.13.576-5.638 1.597l-.886-2.618c1.777-1.111 4.394-1.865 7.101-1.865 6.618 0 8.216 4.483 8.216 8.79v8.036m-3.817-5.817c-4.264-.09-9.106.667-9.106 4.84 0 2.575 1.691 3.73 3.643 3.73 2.84 0 4.662-1.775 5.284-3.596.134-.4.18-.843.18-1.243zM832.501 221.928c0-2.264-.052-4.04-.179-5.817h3.464l.223 3.508h.091c1.07-1.998 3.553-3.996 7.106-3.996 2.976 0 7.593 1.777 7.593 9.147v12.83h-3.906v-12.388c0-3.46-1.289-6.392-4.976-6.392-2.528 0-4.528 1.822-5.24 3.996-.174.487-.264 1.2-.264 1.82V237.6h-3.906zM885.334 236.667c-1.379.712-4.265 1.421-7.903 1.421-8.435 0-14.739-5.327-14.739-15.182 0-9.413 6.35-15.718 15.625-15.718 3.687 0 6.086.8 7.106 1.332l-.975 3.152c-1.423-.711-3.508-1.244-5.996-1.244-7.016 0-11.674 4.486-11.674 12.343 0 7.37 4.215 12.032 11.45 12.032 2.398 0 4.797-.487 6.35-1.244zM888.842 206.079h3.91V237.6h-3.91zM913.264 232.45c0 1.866.091 3.685.31 5.15h-3.508l-.354-2.707h-.134c-1.154 1.687-3.508 3.195-6.568 3.195-4.354 0-6.574-3.063-6.574-6.17 0-5.196 4.618-8.037 12.918-7.992v-.443c0-1.776-.487-5.018-4.881-4.973-2.04 0-4.13.576-5.638 1.597l-.89-2.618c1.776-1.111 4.399-1.865 7.106-1.865 6.613 0 8.215 4.483 8.215 8.79v8.036m-3.821-5.817c-4.26-.09-9.102.667-9.102 4.84 0 2.575 1.687 3.73 3.643 3.73 2.841 0 4.662-1.775 5.284-3.596.13-.4.174-.843.174-1.243zM917.878 233.65c1.199.708 3.244 1.51 5.195 1.51 2.796 0 4.13-1.378 4.13-3.197 0-1.866-1.11-2.887-3.951-3.952-3.907-1.42-5.728-3.508-5.728-6.083 0-3.463 2.842-6.305 7.415-6.305 2.174 0 4.085.577 5.24 1.331l-.935 2.8c-.842-.49-2.395-1.245-4.395-1.245-2.309 0-3.553 1.331-3.553 2.93 0 1.82 1.245 2.62 4.04 3.685 3.688 1.376 5.639 3.24 5.639 6.482 0 3.819-2.971 6.482-7.991 6.482-2.35 0-4.529-.623-6.037-1.508zM934.349 233.65c1.199.708 3.244 1.51 5.195 1.51 2.797 0 4.13-1.378 4.13-3.197 0-1.866-1.11-2.887-3.951-3.952-3.906-1.42-5.727-3.508-5.727-6.083 0-3.463 2.84-6.305 7.414-6.305 2.174 0 4.085.577 5.24 1.331l-.93 2.8c-.846-.49-2.399-1.245-4.399-1.245-2.309 0-3.553 1.331-3.553 2.93 0 1.82 1.244 2.62 4.041 3.685 3.687 1.376 5.642 3.24 5.642 6.482 0 3.819-2.975 6.482-7.991 6.482-2.354 0-4.533-.623-6.041-1.508zM953.264 212.16c1.556 0 2.532-1.155 2.532-2.53 0-1.376-.975-2.486-2.488-2.486-1.508 0-2.528 1.11-2.528 2.486 0 1.376.975 2.53 2.439 2.53h.052m2 25.44v-21.49h-3.907v21.49zM975.95 236.846c-1.02.488-3.285 1.242-6.171 1.242-6.479 0-10.699-4.394-10.699-11.01s4.529-11.455 11.545-11.455c2.309 0 4.35.577 5.415 1.155l-.886 2.976c-.935-.49-2.398-1.023-4.529-1.023-4.931 0-7.593 3.685-7.593 8.171 0 4.972 3.195 8.034 7.46 8.034 2.219 0 3.686-.532 4.796-1.02zM978.88 233.65c1.2.708 3.245 1.51 5.196 1.51 2.796 0 4.13-1.378 4.13-3.197 0-1.866-1.11-2.887-3.951-3.952-3.907-1.42-5.728-3.508-5.728-6.083 0-3.463 2.841-6.305 7.415-6.305 2.174 0 4.085.577 5.24 1.331l-.936 2.8c-.841-.49-2.393-1.245-4.394-1.245-2.308 0-3.552 1.331-3.552 2.93 0 1.82 1.244 2.62 4.04 3.685 3.687 1.376 5.638 3.24 5.638 6.482 0 3.819-2.971 6.482-7.992 6.482-2.353 0-4.528-.623-6.036-1.508z" style="fill:#859b2a;fill-opacity:1;fill-rule:nonzero;stroke:none;stroke-width:4.58205" transform="translate(393.63 34.08)"/></svg>