<svg xmlns="http://www.w3.org/2000/svg" xml:space="preserve" width="541.74274" height="100" viewBox="0 0 541.74274 99.999998"><defs><clipPath id="a" clipPathUnits="userSpaceOnUse"><path d="M356.32 183.593c-3.933-2.203-8.341-1.459-10.437-.896-.434.107-1.232.298-.228-.444 6.216-4.781 12.109-2.291 15.408-.093 5.734 3.823 11.43 3.052 13.987 2.398.552-.126.651-.02.08.287-3.263 1.707-5.933 2.403-8.357 2.403-3.65 0-6.741-1.578-10.453-3.655"/></clipPath><clipPath id="c" clipPathUnits="userSpaceOnUse"><path d="M0 841.89h595.28V0H0Z"/></clipPath><clipPath id="d" clipPathUnits="userSpaceOnUse"><path d="M394.601 204.31c-.64-.198-1.118-.608-1.359-1.142l-.811-1.786 2.007-1.077c1.157-.621 2.664-.431 3.402.53.82 1.068.339 2.615-1.116 3.303a3.04 3.04 0 0 1-1.297.295 2.8 2.8 0 0 1-.826-.123"/></clipPath><clipPath id="f" clipPathUnits="userSpaceOnUse"><path d="M390.28 208.989c-.561-.326-.945-.887-1.089-1.558a2.994 2.994 0 0 1 .238-1.916l1.023-2.14 1.962.636c1.242.403 1.92 1.916 1.361 3.417-.434 1.161-1.43 1.851-2.426 1.851-.366 0-.732-.093-1.069-.29"/></clipPath><clipPath id="h" clipPathUnits="userSpaceOnUse"><path d="M390.37 197.046c-.237-.528.212-1.322 1.003-1.817.805-.503 1.75-.558 2.115-.081.19.244.197.589.014.967-.185.385-.541.749-.992 1.017l-1.658.976z"/></clipPath><clipPath id="j" clipPathUnits="userSpaceOnUse"><path d="M384.874 207.403a3.141 3.141 0 0 1 .416-1.631c.283-.504.67-.902 1.104-1.136l1.684-.905.377 1.855c.236 1.175-.477 2.662-1.583 3.184a1.633 1.633 0 0 1-.695.169c-.732 0-1.266-.61-1.303-1.536"/></clipPath><clipPath id="l" clipPathUnits="userSpaceOnUse"><path d="m394.408 199.368-1.883-.232.752-1.572c.39-.817 1.487-1.463 2.536-1.471 1.128-.009 1.843.728 1.488 1.686-.179.48-.596.919-1.164 1.228-.46.25-.963.378-1.434.378-.1 0-.199-.005-.295-.017"/></clipPath><clipPath id="n" clipPathUnits="userSpaceOnUse"><path d="M383.702 205.09c-.562-.327-.535-1.303.005-2.165.255-.407.59-.746.953-.96.367-.215.726-.283 1.018-.189l1.194.385-.974 1.727c-.455.801-1.186 1.31-1.773 1.31a.835.835 0 0 1-.423-.108"/></clipPath><clipPath id="p" clipPathUnits="userSpaceOnUse"><path d="M397.804 210.746c-.724-.061-1.405-.411-1.916-.961-.486-.522-.757-1.165-.784-1.808l-.099-2.23 2.224-.078c1.339-.047 2.7.987 2.977 2.417.283 1.471-.71 2.67-2.165 2.67-.078 0-.157-.003-.237-.01"/></clipPath><clipPath id="r" clipPathUnits="userSpaceOnUse"><path d="M386.527 213.5c-.218-.543-.269-1.19-.148-1.824.117-.612.381-1.152.746-1.534l1.364-1.428.993 1.65c.621 1.037.462 2.721-.42 3.673-.36.388-.765.571-1.152.571-.566 0-1.093-.392-1.383-1.108"/></clipPath><clipPath id="t" clipPathUnits="userSpaceOnUse"><path d="M394.474 194.587c-.021-.487.561-1.071 1.324-1.332.792-.272 1.534-.111 1.632.386.049.25-.073.544-.344.821-.272.277-.657.5-1.073.623l-1.494.442z"/></clipPath><clipPath id="v" clipPathUnits="userSpaceOnUse"><path d="M382.033 209.323c-.582-.051-.778-.833-.473-1.706.143-.407.376-.783.655-1.065.277-.279.578-.439.848-.449l1.069-.04-.458 1.594c-.265.918-.98 1.668-1.582 1.668-.02 0-.04 0-.059-.002"/></clipPath><clipPath id="x" clipPathUnits="userSpaceOnUse"><path d="m399.09 200.085-1.655-.821 1.214-1.269c.664-.694 1.98-.993 3.017-.646 1.123.377 1.501 1.371.74 2.187-.369.401-.939.676-1.587.775-.173.027-.345.04-.514.04-.445 0-.864-.091-1.215-.266"/></clipPath><linearGradient id="b" x1="0" x2="1" y1="0" y2="0" gradientTransform="matrix(17.31017 0 0 -17.31017 352.256 183.382)" gradientUnits="userSpaceOnUse" spreadMethod="pad"><stop offset="0" style="stop-opacity:1;stop-color:#00a5e3"/><stop offset="0.5" style="stop-opacity:1;stop-color:#00a1e4"/><stop offset="1" style="stop-opacity:1;stop-color:#005daa"/></linearGradient><linearGradient id="e" x1="0" x2="1" y1="0" y2="0" gradientTransform="scale(13.6943 -13.6943) rotate(-45 -3.164 -41.745)" gradientUnits="userSpaceOnUse" spreadMethod="pad"><stop offset="0" style="stop-opacity:1;stop-color:#005daa"/><stop offset="0.300003" style="stop-opacity:1;stop-color:#00accd"/><stop offset="0.649994" style="stop-opacity:1;stop-color:#46b97c"/><stop offset="1" style="stop-opacity:1;stop-color:#a6ce38"/></linearGradient><linearGradient id="g" x1="0" x2="1" y1="0" y2="0" gradientTransform="scale(13.69624 -13.69624) rotate(-45 -3.694 -41.52)" gradientUnits="userSpaceOnUse" spreadMethod="pad"><stop offset="0" style="stop-opacity:1;stop-color:#005daa"/><stop offset="0.300003" style="stop-opacity:1;stop-color:#00accd"/><stop offset="0.649994" style="stop-opacity:1;stop-color:#46b97c"/><stop offset="1" style="stop-opacity:1;stop-color:#a6ce38"/></linearGradient><linearGradient id="i" x1="0" x2="1" y1="0" y2="0" gradientTransform="scale(13.68755 -13.68755) rotate(-45 -3.036 -41.82)" gradientUnits="userSpaceOnUse" spreadMethod="pad"><stop offset="0" style="stop-opacity:1;stop-color:#005daa"/><stop offset="0.300003" style="stop-opacity:1;stop-color:#00accd"/><stop offset="0.649994" style="stop-opacity:1;stop-color:#46b97c"/><stop offset="1" style="stop-opacity:1;stop-color:#a6ce38"/></linearGradient><linearGradient id="k" x1="0" x2="1" y1="0" y2="0" gradientTransform="scale(13.6945 -13.6945) rotate(-45 -3.97 -41.411)" gradientUnits="userSpaceOnUse" spreadMethod="pad"><stop offset="0" style="stop-opacity:1;stop-color:#005daa"/><stop offset="0.300003" style="stop-opacity:1;stop-color:#00accd"/><stop offset="0.649994" style="stop-opacity:1;stop-color:#46b97c"/><stop offset="1" style="stop-opacity:1;stop-color:#a6ce38"/></linearGradient><linearGradient id="m" x1="0" x2="1" y1="0" y2="0" gradientTransform="matrix(9.684 9.684 9.684 -9.684 393.294 196.328)" gradientUnits="userSpaceOnUse" spreadMethod="pad"><stop offset="0" style="stop-opacity:1;stop-color:#005daa"/><stop offset="0.300003" style="stop-opacity:1;stop-color:#00accd"/><stop offset="0.649994" style="stop-opacity:1;stop-color:#46b97c"/><stop offset="1" style="stop-opacity:1;stop-color:#a6ce38"/></linearGradient><linearGradient id="o" x1="0" x2="1" y1="0" y2="0" gradientTransform="scale(13.69489 -13.69489) rotate(-45 -3.9 -41.438)" gradientUnits="userSpaceOnUse" spreadMethod="pad"><stop offset="0" style="stop-opacity:1;stop-color:#005daa"/><stop offset="0.300003" style="stop-opacity:1;stop-color:#00accd"/><stop offset="0.649994" style="stop-opacity:1;stop-color:#46b97c"/><stop offset="1" style="stop-opacity:1;stop-color:#a6ce38"/></linearGradient><linearGradient id="q" x1="0" x2="1" y1="0" y2="0" gradientTransform="scale(13.69484 -13.69484) rotate(-45 -3.413 -41.64)" gradientUnits="userSpaceOnUse" spreadMethod="pad"><stop offset="0" style="stop-opacity:1;stop-color:#005daa"/><stop offset="0.300003" style="stop-opacity:1;stop-color:#00accd"/><stop offset="0.649994" style="stop-opacity:1;stop-color:#46b97c"/><stop offset="1" style="stop-opacity:1;stop-color:#a6ce38"/></linearGradient><linearGradient id="s" x1="0" x2="1" y1="0" y2="0" gradientTransform="scale(13.695 -13.695) rotate(-45 -4.235 -41.3)" gradientUnits="userSpaceOnUse" spreadMethod="pad"><stop offset="0" style="stop-opacity:1;stop-color:#005daa"/><stop offset="0.300003" style="stop-opacity:1;stop-color:#00accd"/><stop offset="0.649994" style="stop-opacity:1;stop-color:#46b97c"/><stop offset="1" style="stop-opacity:1;stop-color:#a6ce38"/></linearGradient><linearGradient id="u" x1="0" x2="1" y1="0" y2="0" gradientTransform="scale(13.70155 -13.70155) rotate(-45 -2.665 -41.93)" gradientUnits="userSpaceOnUse" spreadMethod="pad"><stop offset="0" style="stop-opacity:1;stop-color:#005daa"/><stop offset="0.300003" style="stop-opacity:1;stop-color:#00accd"/><stop offset="0.649994" style="stop-opacity:1;stop-color:#46b97c"/><stop offset="1" style="stop-opacity:1;stop-color:#a6ce38"/></linearGradient><linearGradient id="w" x1="0" x2="1" y1="0" y2="0" gradientTransform="scale(13.69387 -13.69387) rotate(-45 -4.297 -41.278)" gradientUnits="userSpaceOnUse" spreadMethod="pad"><stop offset="0" style="stop-opacity:1;stop-color:#005daa"/><stop offset="0.300003" style="stop-opacity:1;stop-color:#00accd"/><stop offset="0.649994" style="stop-opacity:1;stop-color:#46b97c"/><stop offset="1" style="stop-opacity:1;stop-color:#a6ce38"/></linearGradient><linearGradient id="y" x1="0" x2="1" y1="0" y2="0" gradientTransform="matrix(9.68169 9.68169 9.68169 -9.68167 395.513 194.11)" gradientUnits="userSpaceOnUse" spreadMethod="pad"><stop offset="0" style="stop-opacity:1;stop-color:#005daa"/><stop offset="0.300003" style="stop-opacity:1;stop-color:#00accd"/><stop offset="0.649994" style="stop-opacity:1;stop-color:#46b97c"/><stop offset="1" style="stop-opacity:1;stop-color:#a6ce38"/></linearGradient></defs><path d="M0 0h-1.432v-5.286H0v2.182h1.039v1.246H0Z" style="fill:#415a68;fill-opacity:1;fill-rule:nonzero;stroke:none" transform="matrix(2.84969 0 0 -2.84969 234.968 41.395)"/><path d="M0 0h4.382v-3.531h1.43V0h4.359v1.246H0Z" style="fill:#415a68;fill-opacity:1;fill-rule:nonzero;stroke:none" transform="matrix(2.84969 0 0 -2.84969 276.047 58.434)"/><path d="M0 0v1.249h-6.34V0h2.084l-2.123-4.73h1.432l1.775 4.015 1.779-4.015h1.43L-2.088 0Z" style="fill:#415a68;fill-opacity:1;fill-rule:nonzero;stroke:none" transform="matrix(2.84969 0 0 -2.84969 328.301 44.954)"/><path d="M0 0h-1.432v-9.511H0v6.458h1.038v1.245H0Z" style="fill:#415a68;fill-opacity:1;fill-rule:nonzero;stroke:none" transform="matrix(2.84969 0 0 -2.84969 337.446 41.395)"/><path d="M0 0v1.249h-9.718V0h3.025l-3.14-4.73h1.754L-4.871 0l3.208-4.73H.092L-3.024 0Z" style="fill:#415a68;fill-opacity:1;fill-rule:nonzero;stroke:none" transform="matrix(2.84969 0 0 -2.84969 406.573 44.954)"/><path d="M0 0h-1.432v-2.285H-5.68v-1.246h9.903v1.246H0Z" style="fill:#415a68;fill-opacity:1;fill-rule:nonzero;stroke:none" transform="matrix(2.84969 0 0 -2.84969 394.801 58.434)"/><path d="M0 0h-1.432v-9.511H0v6.625h1.039v1.246H0Z" style="fill:#415a68;fill-opacity:1;fill-rule:nonzero;stroke:none" transform="matrix(2.84969 0 0 -2.84969 439.917 41.395)"/><path d="M0 0a.656.656 0 0 1-.592-.374L-3.223-6.2h1.385l1.824 4.132L1.811-6.2h1.384L.588-.374A.653.653 0 0 1 0 0" style="fill:#415a68;fill-opacity:1;fill-rule:nonzero;stroke:none" transform="matrix(2.84969 0 0 -2.84969 421.779 40.766)"/><path d="M685.567 163.235h3.056v20.327h-3.056z" style="fill:#415a68;fill-opacity:1;fill-rule:nonzero;stroke:none;stroke-width:2.13726" transform="matrix(1.33333 0 0 -1.33333 -443.978 286.144)"/><path d="M0 0a1.13 1.13 0 0 0-1.13 1.129A1.128 1.128 0 1 0 0 0m0-1.338a2.467 2.467 0 0 1 2.465 2.467c0 .45-.129.866-.342 1.228h.924v1.247H.761v.808H-.67v-.808h-2.377V2.357h.922a2.42 2.42 0 0 1-.342-1.228A2.468 2.468 0 0 1 0-1.338" style="fill:#415a68;fill-opacity:1;fill-rule:nonzero;stroke:none" transform="matrix(2.84969 0 0 -2.84969 215.7 51.672)"/><path d="M0 0a.977.977 0 0 1-.704-.294l-4.394-4.161h1.893L0-1.444l3.226-3.011h1.87L.701-.294A.972.972 0 0 1 0 0" style="fill:#415a68;fill-opacity:1;fill-rule:nonzero;stroke:none" transform="matrix(2.84969 0 0 -2.84969 290.51 40.768)"/><path d="M0 0h-1.431v-2.533c0-.552.448-.998.999-.998h8.229v1.246H0Z" style="fill:#415a68;fill-opacity:1;fill-rule:nonzero;stroke:none" transform="matrix(2.84969 0 0 -2.84969 212.75 58.434)"/><path d="M0 0h4.34v-1.121H.607v-1.245H8.07v-2.286h1.433v2.532a1 1 0 0 1-.999.999H5.77V0h4.339v1.246H0Z" style="fill:#415a68;fill-opacity:1;fill-rule:nonzero;stroke:none" transform="matrix(2.84969 0 0 -2.84969 242.009 55.24)"/><path d="M0 0h1.433v1.84c0 .553-.449 1.001-.999 1.001h-7.897V1.592H0Z" style="fill:#415a68;fill-opacity:1;fill-rule:nonzero;stroke:none" transform="matrix(2.84969 0 0 -2.84969 265.007 49.49)"/><path d="M0 0a1.085 1.085 0 1 0 0-2.172A1.085 1.085 0 0 0 0 0m-.714-5.793h1.43v1.661h2.1v1.246H1.477c.522.43.862 1.073.862 1.801a2.34 2.34 0 1 1-4.678 0c0-.728.34-1.371.863-1.801h-1.339v-1.246h2.101z" style="fill:#415a68;fill-opacity:1;fill-rule:nonzero;stroke:none" transform="matrix(2.84969 0 0 -2.84969 352.877 43.765)"/><path d="M0 0h-1.431v-1.888a1 1 0 0 1 .999-.998h8.765v1.246H0Z" style="fill:#415a68;fill-opacity:1;fill-rule:nonzero;stroke:none" transform="matrix(2.84969 0 0 -2.84969 348.93 60.274)"/><path d="M0 0h-1.963v-1.246H.432c.55 0 1 .447 1 1v4.979H0Z" style="fill:#415a68;fill-opacity:1;fill-rule:nonzero;stroke:none" transform="matrix(2.84969 0 0 -2.84969 368.597 54.883)"/><path d="M0 0a1.085 1.085 0 1 0 0-2.17A1.085 1.085 0 0 0 0 0m-.716-5.793H.717v1.661h2.1v1.246h-1.34c.524.43.864 1.073.864 1.801a2.34 2.34 0 1 1-4.679 0c0-.728.34-1.371.863-1.801h-1.341v-1.246h2.1z" style="fill:#415a68;fill-opacity:1;fill-rule:nonzero;stroke:none" transform="matrix(2.84969 0 0 -2.84969 521.676 43.765)"/><path d="M0 0h-1.433v-1.888a1 1 0 0 1 1.001-.998h8.764v1.246H0Z" style="fill:#415a68;fill-opacity:1;fill-rule:nonzero;stroke:none" transform="matrix(2.84969 0 0 -2.84969 517.733 60.274)"/><path d="M0 0v-4.733h-1.961v-1.246H.432a1 1 0 0 1 1 1V0Z" style="fill:#415a68;fill-opacity:1;fill-rule:nonzero;stroke:none" transform="matrix(2.84969 0 0 -2.84969 537.397 41.395)"/><path d="M0 0h-5.095v-1.249h4.662v-4.73H.999v4.978A1 1 0 0 1 0 0" style="fill:#415a68;fill-opacity:1;fill-rule:nonzero;stroke:none" transform="matrix(2.84969 0 0 -2.84969 461.605 41.395)"/><path d="m0 0 3.07-2.238h1.892L.731.952A1.19 1.19 0 0 1 0 1.201 1.18 1.18 0 0 1-.731.952l-4.232-3.19h1.915z" style="fill:#415a68;fill-opacity:1;fill-rule:nonzero;stroke:none" transform="matrix(2.84969 0 0 -2.84969 493.725 44.097)"/><path d="M0 0h4.247v-.393H0V-1.64h8.379v-.44H0v-1.584a1 1 0 0 1 1-.998h8.811v1.246H1.432v.437h8.379v1.586a1 1 0 0 1-.999 1H5.679V0h4.34v1.246H0Z" style="fill:#415a68;fill-opacity:1;fill-rule:nonzero;stroke:none" transform="matrix(2.84969 0 0 -2.84969 479.646 55.212)"/><path d="M0 0h.84v-2.188L2.98 0h1.036L2.099-1.918 4.15-4.805H3.102L1.527-2.51.84-3.189v-1.616H0Z" style="fill:#415a68;fill-opacity:1;fill-rule:nonzero;stroke:none" transform="matrix(2.84969 0 0 -2.84969 208.681 76.951)"/><path d="M0 0a.904.904 0 0 1 .31.279c.08.117.14.247.181.394a1.704 1.704 0 0 1 0 .904 1.368 1.368 0 0 1-.181.395.875.875 0 0 1-.31.279.928.928 0 0 1-.438.1.92.92 0 0 1-.436-.1.87.87 0 0 1-.311-.279c-.08-.119-.14-.25-.181-.395a1.704 1.704 0 0 1 0-.904c.041-.147.101-.277.181-.394A.904.904 0 0 1-.872 0a.904.904 0 0 1 .434-.104c.167 0 .312.035.438.104m-1.726-.202c-.312.339-.467.781-.467 1.329 0 .542.155.983.467 1.321.312.339.741.508 1.288.508.548 0 .977-.169 1.289-.508.312-.338.467-.779.467-1.321 0-.548-.155-.99-.467-1.329C.539-.54.11-.71-.438-.71c-.547 0-.976.17-1.288.508" style="fill:#415a68;fill-opacity:1;fill-rule:nonzero;stroke:none" transform="matrix(2.84969 0 0 -2.84969 227.296 88.887)"/><path d="M0 0h.719v-.672h.013a.839.839 0 0 0 .128.276 1.286 1.286 0 0 0 .552.423.898.898 0 0 0 .336.067 1.952 1.952 0 0 0 .29-.02v-.74c-.018.004-.043.01-.074.014a2.536 2.536 0 0 1-.256.019.846.846 0 0 1-.676-.315c-.177-.211-.266-.503-.266-.875v-1.656H0Z" style="fill:#415a68;fill-opacity:1;fill-rule:nonzero;stroke:none" transform="matrix(2.84969 0 0 -2.84969 232.875 80.73)"/><path d="M0 0c-.014.255-.1.474-.259.652a.786.786 0 0 1-.616.269.865.865 0 0 1-.646-.262A.951.951 0 0 1-1.789 0Zm-1.789-.505c0-.291.08-.536.242-.733.161-.198.393-.296.693-.296.43 0 .713.193.847.578H.72a1.403 1.403 0 0 0-.555-.871A1.704 1.704 0 0 0-.854-2.14c-.535 0-.951.168-1.251.504-.301.337-.452.78-.452 1.326 0 .247.039.481.118.704.079.221.192.418.339.587a1.574 1.574 0 0 0 1.225.545c.247 0 .473-.047.677-.14.204-.094.38-.225.528-.391A1.69 1.69 0 0 0 .666.424C.742.208.78-.017.78-.249c0-.086-.005-.17-.012-.256z" style="fill:#415a68;fill-opacity:1;fill-rule:nonzero;stroke:none" transform="matrix(2.84969 0 0 -2.84969 246.083 84.813)"/><path d="M0 0a.795.795 0 0 0-.266-.108 4.303 4.303 0 0 0-.38-.061 3.58 3.58 0 0 1-.295-.04.993.993 0 0 1-.457-.175c-.114-.085-.168-.22-.168-.403A.33.33 0 0 1-1.5-.996a.466.466 0 0 1 .176-.138.976.976 0 0 1 .231-.074 1.154 1.154 0 0 1 .801.131.704.704 0 0 1 .212.205c.054.084.08.184.08.3zm.768-.969c0-.094.013-.161.04-.202.026-.041.074-.06.141-.06.072 0 .135.003.189.013v-.531a1.552 1.552 0 0 0-.243-.061 1.5 1.5 0 0 0-.243-.027.728.728 0 0 0-.399.098c-.101.064-.165.174-.192.326a1.386 1.386 0 0 0-.545-.316 2.105 2.105 0 0 0-.659-.108c-.336 0-.619.089-.847.266-.23.177-.344.427-.344.75 0 .207.037.378.111.515a.8.8 0 0 0 .299.316c.125.074.264.129.414.165.151.035.322.064.515.088.076.012.188.029.337.047.25.031.431.072.541.124.109.051.164.158.164.319a.415.415 0 0 1-.063.236.425.425 0 0 1-.169.145.855.855 0 0 1-.228.07c-.083.014-.169.02-.259.02-.224 0-.404-.045-.539-.137a.534.534 0 0 1-.228-.414h-.767c.013.215.065.397.155.548.089.15.208.27.356.36.148.09.313.153.495.191.181.039.373.057.575.057.175 0 .346-.018.512-.057.165-.038.314-.097.447-.177a.94.94 0 0 0 .316-.317.867.867 0 0 0 .118-.457Z" style="fill:#415a68;fill-opacity:1;fill-rule:nonzero;stroke:none" transform="matrix(2.84969 0 0 -2.84969 256.051 85.676)"/><path d="M532.656 156.893h1.8v-10.27h-1.8z" style="fill:#415a68;fill-opacity:1;fill-rule:nonzero;stroke:none;stroke-width:2.13726" transform="matrix(1.33333 0 0 -1.33333 -443.978 286.144)"/><path d="M0 0h.727v-.512l.012-.012c.116.192.269.344.458.454.188.109.397.164.625.164.386 0 .688-.102.906-.306.217-.204.326-.497.326-.878v-2.389h-.767v2.188c-.005.269-.062.466-.172.592-.109.125-.279.187-.508.187a.775.775 0 0 1-.609-.261.954.954 0 0 1-.232-.653v-2.053H0Z" style="fill:#415a68;fill-opacity:1;fill-rule:nonzero;stroke:none" transform="matrix(2.84969 0 0 -2.84969 271.257 80.73)"/><path d="M0 0c.018-.211.1-.364.242-.461a.965.965 0 0 1 .545-.144c.086 0 .171.005.256.017a.91.91 0 0 1 .249.067.482.482 0 0 1 .195.141c.05.061.074.138.074.232a.365.365 0 0 1-.229.33 3.25 3.25 0 0 1-.666.195 10.44 10.44 0 0 0-.242.054 3.552 3.552 0 0 0-.438.121 1.331 1.331 0 0 0-.342.181.841.841 0 0 0-.246.292.961.961 0 0 0-.091.435c0 .179.045.334.131.464a.959.959 0 0 0 .347.312c.144.079.299.135.467.169.169.034.338.05.509.05.389 0 .71-.08.962-.242.134-.09.244-.202.33-.34.084-.137.138-.299.161-.486h-.801a.484.484 0 0 1-.235.359.968.968 0 0 1-.471.104c-.062 0-.131-.004-.202-.013A.756.756 0 0 1 .3 1.783a.429.429 0 0 1-.161-.111.255.255 0 0 1-.065-.178c0-.144.072-.248.215-.313.145-.066.368-.129.674-.192.134-.032.215-.05.242-.053.166-.041.311-.084.438-.128.125-.045.24-.105.345-.179a.778.778 0 0 0 .249-.285.906.906 0 0 0 .091-.424.968.968 0 0 0-.494-.869 1.736 1.736 0 0 0-.502-.197 2.44 2.44 0 0 0-.559-.065c-.457 0-.827.104-1.109.31-.283.206-.426.506-.431.901z" style="fill:#415a68;fill-opacity:1;fill-rule:nonzero;stroke:none" transform="matrix(2.84969 0 0 -2.84969 283.908 87.46)"/><path d="M0 0h.579v1.043h.767V0h.692v-.572h-.692v-1.857c0-.178.022-.303.067-.373.045-.069.146-.104.303-.104.143 0 .251.009.322.027v-.592l-.168-.021a3.94 3.94 0 0 0-.33-.02c-.376 0-.629.07-.756.209-.128.139-.197.365-.205.68v2.051H0Z" style="fill:#415a68;fill-opacity:1;fill-rule:nonzero;stroke:none" transform="matrix(2.84969 0 0 -2.84969 291.213 80.73)"/><path d="M556.972 154.06h1.642v-7.436h-1.642zm0 2.833h1.642v-1.553h-1.642z" style="fill:#415a68;fill-opacity:1;fill-rule:nonzero;stroke:none;stroke-width:2.13726" transform="matrix(1.33333 0 0 -1.33333 -443.978 286.144)"/><path d="M0 0h.579v1.043h.767V0h.692v-.572h-.692v-1.857c0-.178.022-.303.067-.373.045-.069.146-.104.303-.104.143 0 .251.009.322.027v-.592l-.168-.021a3.94 3.94 0 0 0-.33-.02c-.376 0-.629.07-.756.209-.128.139-.197.365-.205.68v2.051H0Z" style="fill:#415a68;fill-opacity:1;fill-rule:nonzero;stroke:none" transform="matrix(2.84969 0 0 -2.84969 302.217 80.73)"/><path d="M0 0h-.753v.484h-.014a1.092 1.092 0 0 0-.418-.416 1.11 1.11 0 0 0-.571-.162c-.448 0-.776.114-.985.34-.209.227-.313.568-.313 1.025v2.208h.766V1.346c0-.296.057-.509.169-.639.112-.131.278-.195.497-.195.301 0 .518.086.653.256s.202.401.202.693v2.018H0Z" style="fill:#415a68;fill-opacity:1;fill-rule:nonzero;stroke:none" transform="matrix(2.84969 0 0 -2.84969 318.302 90.643)"/><path d="M0 0h.578v1.043h.768V0h.692v-.572h-.692v-1.857c0-.178.021-.303.066-.373.045-.069.147-.104.303-.104.144 0 .252.009.323.027v-.592c-.04-.005-.097-.011-.168-.021a3.965 3.965 0 0 0-.33-.02c-.376 0-.629.07-.757.209-.127.139-.196.365-.205.68v2.051H0Z" style="fill:#415a68;fill-opacity:1;fill-rule:nonzero;stroke:none" transform="matrix(2.84969 0 0 -2.84969 319.607 80.73)"/><path d="M0 0a1.037 1.037 0 0 1-.26.652.785.785 0 0 1-.615.269.863.863 0 0 1-.646-.262A.956.956 0 0 1-1.79 0Zm-1.79-.505c0-.291.081-.536.242-.733.161-.198.393-.296.693-.296.431 0 .713.193.847.578h.727a1.4 1.4 0 0 0-.555-.871A1.7 1.7 0 0 0-.855-2.14c-.534 0-.951.168-1.251.504-.3.337-.451.78-.451 1.326 0 .247.039.481.118.704.078.221.191.418.339.587a1.574 1.574 0 0 0 1.225.545c.246 0 .472-.047.676-.14.204-.094.381-.225.528-.391C.477.829.59.64.666.424.742.208.779-.017.779-.249c0-.086-.004-.17-.012-.256z" style="fill:#415a68;fill-opacity:1;fill-rule:nonzero;stroke:none" transform="matrix(2.84969 0 0 -2.84969 333.795 84.813)"/><path d="M0 0a.913.913 0 0 1 .31.279c.081.117.141.247.181.394a1.704 1.704 0 0 1 0 .904c-.04.145-.1.276-.181.395a.883.883 0 0 1-.31.279.928.928 0 0 1-.438.1.927.927 0 0 1-.437-.1.871.871 0 0 1-.309-.279 1.27 1.27 0 0 1-.181-.395 1.62 1.62 0 0 1-.061-.45c0-.157.02-.309.061-.454.039-.147.099-.277.181-.394a.887.887 0 0 1 .746-.383c.167 0 .312.035.438.104m-1.726-.202c-.311.339-.467.781-.467 1.329 0 .542.156.983.467 1.321.312.339.742.508 1.288.508.547 0 .977-.169 1.29-.508.31-.338.466-.779.466-1.321 0-.548-.156-.99-.466-1.329C.539-.54.109-.71-.438-.71c-.546 0-.976.17-1.288.508" style="fill:#415a68;fill-opacity:1;fill-rule:nonzero;stroke:none" transform="matrix(2.84969 0 0 -2.84969 348.767 88.887)"/><path d="M0 0h.571v.289c0 .211.027.387.078.525a.728.728 0 0 0 .212.32.74.74 0 0 0 .3.151c.11.028.235.041.373.041.246 0 .426-.016.538-.048V.68a1.361 1.361 0 0 1-.356.041.428.428 0 0 1-.276-.082C1.372.586 1.339.491 1.339.357V0h.652v-.572h-.652v-2.907H.571v2.907H0Z" style="fill:#415a68;fill-opacity:1;fill-rule:nonzero;stroke:none" transform="matrix(2.84969 0 0 -2.84969 353.367 80.73)"/><path d="M0 0h.841v-1.911h2.186V0h.841v-4.805h-.841v2.167H.841v-2.167H0Z" style="fill:#415a68;fill-opacity:1;fill-rule:nonzero;stroke:none" transform="matrix(2.84969 0 0 -2.84969 365.962 76.951)"/><path d="M0 0h.842l.908-2.597h.014L2.645 0h.8L2.093-3.666a1.701 1.701 0 0 1-.034-.095 8.318 8.318 0 0 0-.202-.464 1.385 1.385 0 0 0-.209-.316.88.88 0 0 0-.318-.232 1.174 1.174 0 0 0-.469-.084c-.179 0-.355.013-.531.041v.645l.074-.014c.125-.022.223-.034.289-.034.166 0 .284.039.354.115.069.077.131.2.185.37l.087.269z" style="fill:#415a68;fill-opacity:1;fill-rule:nonzero;stroke:none" transform="matrix(2.84969 0 0 -2.84969 378.46 80.73)"/><path d="M0 0c.163-.232.402-.35.716-.35.166 0 .31.036.434.105a.919.919 0 0 1 .306.279c.081.116.14.247.179.394.037.145.056.297.056.454 0 .381-.086.681-.258.897a.85.85 0 0 1-.704.326.928.928 0 0 1-.447-.103.814.814 0 0 1-.305-.286 1.306 1.306 0 0 1-.169-.407A1.95 1.95 0 0 1-.246.842C-.246.514-.164.233 0 0m2.432-.861h-.727v.47h-.014a.912.912 0 0 0-.433-.423 1.463 1.463 0 0 0-.643-.141c-.525 0-.928.173-1.208.517-.28.346-.421.792-.421 1.34 0 .305.042.572.125.801.083.229.196.418.336.568.142.15.303.261.482.333.178.072.368.107.565.107.237 0 .462-.045.672-.137.211-.093.373-.228.484-.408h.014v1.777h.768z" style="fill:#415a68;fill-opacity:1;fill-rule:nonzero;stroke:none" transform="matrix(2.84969 0 0 -2.84969 391.912 88.189)"/><path d="M0 0h.72v-.672h.013a.839.839 0 0 0 .128.276c.063.089.143.171.239.245.096.074.201.133.312.178a.903.903 0 0 0 .337.067 1.952 1.952 0 0 0 .29-.02v-.74c-.018.004-.043.01-.074.014a2.556 2.556 0 0 1-.256.019.845.845 0 0 1-.676-.315c-.178-.211-.266-.503-.266-.875v-1.656H0Z" style="fill:#415a68;fill-opacity:1;fill-rule:nonzero;stroke:none" transform="matrix(2.84969 0 0 -2.84969 401.218 80.73)"/><path d="M0 0a.9.9 0 0 1 .309.279C.39.396.45.526.49.673c.041.145.061.297.061.454 0 .157-.02.308-.061.45-.04.145-.1.276-.181.395A.871.871 0 0 1 0 2.251a.93.93 0 0 1-.438.1.924.924 0 0 1-.437-.1.875.875 0 0 1-.31-.279 1.317 1.317 0 0 1-.181-.395 1.704 1.704 0 0 1 0-.904c.04-.147.1-.277.181-.394a.896.896 0 0 1 .747-.383c.167 0 .311.035.438.104m-1.727-.202c-.311.339-.466.781-.466 1.329 0 .542.155.983.466 1.321.313.339.742.508 1.289.508.547 0 .977-.169 1.289-.508.311-.338.467-.779.467-1.321 0-.548-.156-.99-.467-1.329C.539-.54.109-.71-.438-.71c-.547 0-.976.17-1.289.508" style="fill:#415a68;fill-opacity:1;fill-rule:nonzero;stroke:none" transform="matrix(2.84969 0 0 -2.84969 413.413 88.887)"/><path d="M647.267 156.893h1.642v-10.27h-1.642z" style="fill:#415a68;fill-opacity:1;fill-rule:nonzero;stroke:none;stroke-width:2.13726" transform="matrix(1.33333 0 0 -1.33333 -443.978 286.144)"/><path d="M0 0a.904.904 0 0 1 .31.279c.08.117.14.247.181.394a1.704 1.704 0 0 1 0 .904 1.368 1.368 0 0 1-.181.395.875.875 0 0 1-.31.279.928.928 0 0 1-.438.1.92.92 0 0 1-.436-.1.87.87 0 0 1-.311-.279c-.08-.119-.14-.25-.181-.395a1.704 1.704 0 0 1 0-.904c.041-.147.101-.277.181-.394A.904.904 0 0 1-.872 0a.904.904 0 0 1 .434-.104c.167 0 .312.035.438.104m-1.726-.202c-.312.339-.467.781-.467 1.329 0 .542.155.983.467 1.321.312.339.741.508 1.288.508.548 0 .977-.169 1.289-.508.312-.338.467-.779.467-1.321 0-.548-.155-.99-.467-1.329C.539-.54.11-.71-.438-.71c-.547 0-.976.17-1.288.508" style="fill:#415a68;fill-opacity:1;fill-rule:nonzero;stroke:none" transform="matrix(2.84969 0 0 -2.84969 429.401 88.887)"/><path d="M0 0a.795.795 0 0 1 .292.275c.074.118.129.247.165.391.035.144.054.291.054.443 0 .329-.077.602-.232.822-.155.219-.389.329-.703.329a.812.812 0 0 1-.421-.104.813.813 0 0 1-.286-.279 1.297 1.297 0 0 1-.158-.387 1.936 1.936 0 0 1-.051-.441c0-.148.019-.29.055-.427.035-.137.09-.257.161-.36a.801.801 0 0 1 .7-.364c.16 0 .303.035.424.102m1.277-.525c0-.516-.146-.905-.44-1.167-.294-.263-.716-.394-1.269-.394-.183 0-.363.02-.537.058a1.658 1.658 0 0 0-.484.184c-.149.086-.27.199-.363.34a1.063 1.063 0 0 0-.169.502h.766c.045-.203.139-.338.28-.408.141-.069.326-.104.554-.104.306 0 .531.076.677.225.146.15.219.371.219.663v.532H.497A1.19 1.19 0 0 0-.545-.707a1.6 1.6 0 0 0-.697.142 1.299 1.299 0 0 0-.49.393 1.681 1.681 0 0 0-.284.582c-.06.22-.09.457-.09.713 0 .238.036.461.108.67a1.7 1.7 0 0 0 .312.555c.137.162.303.288.498.381.196.091.414.136.656.136.229 0 .434-.048.616-.144a.948.948 0 0 0 .413-.427h.014v.477h.766z" style="fill:#415a68;fill-opacity:1;fill-rule:nonzero;stroke:none" transform="matrix(2.84969 0 0 -2.84969 440.502 88.629)"/><path d="M667.787 154.06h1.64v-7.436h-1.64zm0 2.833h1.64v-1.553h-1.64z" style="fill:#415a68;fill-opacity:1;fill-rule:nonzero;stroke:none;stroke-width:2.13726" transform="matrix(1.33333 0 0 -1.33333 -443.978 286.144)"/><path d="M0 0a.73.73 0 0 1-.258.481.82.82 0 0 1-.535.171c-.112 0-.224-.017-.334-.052a.806.806 0 0 1-.305-.193.972.972 0 0 1-.229-.389 1.955 1.955 0 0 1-.087-.629c0-.153.018-.299.053-.438.037-.139.091-.265.166-.381a.807.807 0 0 1 .703-.373.77.77 0 0 1 .555.212.978.978 0 0 1 .271.582h.768c-.073-.453-.245-.8-.518-1.04-.273-.239-.633-.359-1.076-.359-.529 0-.944.167-1.242.502-.298.334-.448.765-.448 1.295 0 .547.149.995.445 1.345.296.35.719.524 1.271.524.426 0 .784-.108 1.076-.322C.568.721.731.408.768 0Z" style="fill:#415a68;fill-opacity:1;fill-rule:nonzero;stroke:none" transform="matrix(2.84969 0 0 -2.84969 457.656 84.048)"/><path d="M0 0a.795.795 0 0 0-.266-.108 4.303 4.303 0 0 0-.38-.061 3.58 3.58 0 0 1-.295-.04.993.993 0 0 1-.457-.175c-.114-.085-.168-.22-.168-.403A.33.33 0 0 1-1.5-.996a.466.466 0 0 1 .176-.138.976.976 0 0 1 .231-.074 1.154 1.154 0 0 1 .801.131.704.704 0 0 1 .212.205c.054.084.08.184.08.3zm.768-.969c0-.094.013-.161.04-.202.026-.041.074-.06.141-.06.072 0 .135.003.189.013v-.531a1.552 1.552 0 0 0-.243-.061 1.5 1.5 0 0 0-.243-.027.728.728 0 0 0-.399.098c-.101.064-.165.174-.192.326a1.386 1.386 0 0 0-.545-.316 2.105 2.105 0 0 0-.659-.108c-.336 0-.619.089-.847.266-.23.177-.344.427-.344.75 0 .207.037.378.111.515a.8.8 0 0 0 .299.316c.125.074.264.129.414.165.151.035.322.064.515.088.076.012.188.029.337.047.25.031.431.072.541.124.109.051.164.158.164.319a.415.415 0 0 1-.063.236.425.425 0 0 1-.169.145.855.855 0 0 1-.228.07c-.083.014-.169.02-.259.02-.224 0-.404-.045-.539-.137a.534.534 0 0 1-.228-.414h-.767c.013.215.065.397.155.548.089.15.208.27.356.36.148.09.313.153.495.191.181.039.373.057.575.057.175 0 .346-.018.512-.057.165-.038.314-.097.447-.177a.94.94 0 0 0 .316-.317.867.867 0 0 0 .118-.457Z" style="fill:#415a68;fill-opacity:1;fill-rule:nonzero;stroke:none" transform="matrix(2.84969 0 0 -2.84969 467.74 85.676)"/><path d="M687.24 156.893h1.642v-10.27h-1.641z" style="fill:#415a68;fill-opacity:1;fill-rule:nonzero;stroke:none;stroke-width:2.13726" transform="matrix(1.33333 0 0 -1.33333 -443.978 286.144)"/><path d="M0 0c0-.35.111-.609.336-.777.225-.168.518-.252.881-.252.346 0 .601.07.767.212a.65.65 0 0 1 .248.514c0 .17-.036.301-.11.391a.673.673 0 0 1-.286.201 8.458 8.458 0 0 1-.793.229C.746.594.533.65.403.687c-.382.102-.653.262-.817.477a1.188 1.188 0 0 0-.246.74c0 .233.049.438.144.616a1.3 1.3 0 0 0 .398.444c.168.118.356.207.565.265.208.058.424.087.649.087.256 0 .495-.032.717-.097.222-.065.417-.163.588-.295.171-.133.303-.295.398-.488.094-.194.14-.411.14-.653h-.84c-.019.296-.119.512-.3.646-.182.134-.427.202-.736.202-.108 0-.212-.01-.313-.03a.982.982 0 0 1-.283-.105.585.585 0 0 1-.209-.195.543.543 0 0 1-.076-.296c0-.161.049-.292.15-.394a.935.935 0 0 1 .421-.224l.188-.048.565-.151a217.73 217.73 0 0 0 .633-.172 1.275 1.275 0 0 0 .935-1.225c0-.26-.053-.486-.158-.68a1.324 1.324 0 0 0-.428-.47 1.933 1.933 0 0 0-.611-.269 2.895 2.895 0 0 0-.713-.087c-.279 0-.539.034-.781.104-.242.07-.454.173-.636.312-.182.14-.323.319-.427.539A1.847 1.847 0 0 0-.842 0z" style="fill:#415a68;fill-opacity:1;fill-rule:nonzero;stroke:none" transform="matrix(2.84969 0 0 -2.84969 484.116 86.08)"/><path d="M0 0h-.754v.484h-.014a1.086 1.086 0 0 0-.416-.416 1.116 1.116 0 0 0-.572-.162c-.449 0-.777.114-.986.34-.208.227-.313.568-.313 1.025v2.208h.768V1.346c0-.296.056-.509.168-.639.111-.131.277-.195.498-.195.301 0 .517.086.652.256s.201.401.201.693v2.018H0Z" style="fill:#415a68;fill-opacity:1;fill-rule:nonzero;stroke:none" transform="matrix(2.84969 0 0 -2.84969 503.362 90.643)"/><path d="M0 0h.72v-.672h.013a.816.816 0 0 0 .127.276 1.292 1.292 0 0 0 .553.423.89.89 0 0 0 .336.067 1.963 1.963 0 0 0 .289-.02v-.74a.713.713 0 0 1-.074.014 2.517 2.517 0 0 1-.256.019.848.848 0 0 1-.676-.315c-.177-.211-.265-.503-.265-.875v-1.656H0Z" style="fill:#415a68;fill-opacity:1;fill-rule:nonzero;stroke:none" transform="matrix(2.84969 0 0 -2.84969 505.663 80.73)"/><path d="M0 0h.835l.881-2.671h.013L2.577 0h.794L2.127-3.479h-.861Z" style="fill:#415a68;fill-opacity:1;fill-rule:nonzero;stroke:none" transform="matrix(2.84969 0 0 -2.84969 511.432 80.73)"/><path d="M0 0a1.041 1.041 0 0 1-.259.652.788.788 0 0 1-.615.269.864.864 0 0 1-.647-.262A.965.965 0 0 1-1.79 0Zm-1.79-.505c0-.291.081-.536.242-.733.162-.198.393-.296.694-.296.43 0 .712.193.847.578H.72a1.4 1.4 0 0 0-.555-.871A1.7 1.7 0 0 0-.854-2.14c-.534 0-.952.168-1.252.504-.3.337-.451.78-.451 1.326 0 .247.04.481.119.704.078.221.191.418.339.587.148.171.327.305.536.401.208.097.437.144.689.144.246 0 .471-.047.676-.14A1.676 1.676 0 0 0 .666.424C.742.208.78-.017.78-.249c0-.086-.004-.17-.013-.256z" style="fill:#415a68;fill-opacity:1;fill-rule:nonzero;stroke:none" transform="matrix(2.84969 0 0 -2.84969 529.168 84.813)"/><path d="M0 0h.841l.908-2.597h.014L2.644 0h.8L2.093-3.666a1.15 1.15 0 0 1-.034-.095 8.201 8.201 0 0 0-.203-.464 1.38 1.38 0 0 0-.208-.316.883.883 0 0 0-.319-.232 1.166 1.166 0 0 0-.468-.084c-.179 0-.356.013-.532.041v.645l.074-.014c.126-.022.223-.034.289-.034.166 0 .285.039.354.115.07.077.132.2.185.37l.088.269z" style="fill:#415a68;fill-opacity:1;fill-rule:nonzero;stroke:none" transform="matrix(2.84969 0 0 -2.84969 531.928 80.73)"/><path d="M0 0c-.995 0-2.337-.602-1.7-1.975 1.041-2.482 4.107-3.736 7.728-3.736 4.479 0 8.11 1.559 8.11 5.27 0 4.406-4.698 4.455-8.11 5.271-1.857.445-2.828.82-2.828 1.652s1.267 1.504 2.828 1.504c3.324 0 3.05-1.825 3.05-1.825h2.318c.995 0 2.377.78 1.677 1.976-1.168 1.799-3.883 3.06-7.045 3.06-4.227 0-7.654-2.254-7.654-5.036 0-3.415 3.143-4.45 7.654-5.18C7.53.739 9.265.439 9.265-.758c0-1.198-1.536-1.506-3.237-1.506-1.7 0-3.34.668-3.34 2.264z" style="fill:#005daa;fill-opacity:1;fill-rule:nonzero;stroke:none" transform="matrix(2.84969 0 0 -2.84969 122.53 69.86)"/><g clip-path="url(#a)" transform="matrix(2.84969 0 0 -2.84969 -948.898 611.565)"><path d="M356.32 183.593c-3.933-2.203-8.341-1.459-10.437-.896-.434.107-1.232.298-.228-.444 6.216-4.781 12.109-2.291 15.408-.093 5.734 3.823 11.43 3.052 13.987 2.398.552-.126.651-.02.08.287-3.263 1.707-5.933 2.403-8.357 2.403-3.65 0-6.741-1.578-10.453-3.655" style="fill:url(#b);stroke:none"/></g><g clip-path="url(#c)" transform="matrix(2.84969 0 0 -2.84969 -948.898 611.565)"><path d="M0 0c1.318-1.11 4.143-1.482 4.143-1.482v15.968H1.801A1.8 1.8 0 0 1 0 12.687Z" style="fill:#005daa;fill-opacity:1;fill-rule:nonzero;stroke:none" transform="translate(350.512 186.286)"/><path d="M0 0h-7.248v6.21h-2.34a1.8 1.8 0 0 1-1.801-1.8V-9.435c1.428.782 2.787 1.481 4.141 2.028v3.956H0v-2.773c1.328-.126 2.701-.451 4.14-.961V6.21H1.801A1.8 1.8 0 0 1 0 4.41Z" style="fill:#005daa;fill-opacity:1;fill-rule:nonzero;stroke:none" transform="translate(368.096 194.563)"/><path d="M0 0c0-.995.807-1.803 1.802-1.803h2.326v5.992L8.452-.244c5.6-5.06 12.971-2.461 12.971-2.461-1.52 0-4.735.249-8.718 4.252a166.546 166.546 0 0 0-5.288 5.568l7.819 6.955H9.899L4.128 9.014v5.056H1.802A1.8 1.8 0 0 1 0 12.271Z" style="fill:#00a5e3;fill-opacity:1;fill-rule:nonzero;stroke:none" transform="translate(332.983 186.702)"/></g><g clip-path="url(#d)" transform="matrix(2.84969 0 0 -2.84969 -948.898 611.565)"><path d="M394.601 204.31c-.64-.198-1.118-.608-1.359-1.142l-.811-1.786 2.007-1.077c1.157-.621 2.664-.431 3.402.53.82 1.068.339 2.615-1.116 3.303a3.04 3.04 0 0 1-1.297.295 2.8 2.8 0 0 1-.826-.123" style="fill:url(#e);stroke:none"/></g><g clip-path="url(#f)" transform="matrix(2.84969 0 0 -2.84969 -948.898 611.565)"><path d="M390.28 208.989c-.561-.326-.945-.887-1.089-1.558a2.994 2.994 0 0 1 .238-1.916l1.023-2.14 1.962.636c1.242.403 1.92 1.916 1.361 3.417-.434 1.161-1.43 1.851-2.426 1.851-.366 0-.732-.093-1.069-.29" style="fill:url(#g);stroke:none"/></g><g clip-path="url(#h)" transform="matrix(2.84969 0 0 -2.84969 -948.898 611.565)"><path d="M390.37 197.046c-.237-.528.212-1.322 1.003-1.817.805-.503 1.75-.558 2.115-.081.19.244.197.589.014.967-.185.385-.541.749-.992 1.017l-1.658.976z" style="fill:url(#i);stroke:none"/></g><g clip-path="url(#j)" transform="matrix(2.84969 0 0 -2.84969 -948.898 611.565)"><path d="M384.874 207.403a3.141 3.141 0 0 1 .416-1.631c.283-.504.67-.902 1.104-1.136l1.684-.905.377 1.855c.236 1.175-.477 2.662-1.583 3.184a1.633 1.633 0 0 1-.695.169c-.732 0-1.266-.61-1.303-1.536" style="fill:url(#k);stroke:none"/></g><g clip-path="url(#l)" transform="matrix(2.84969 0 0 -2.84969 -948.898 611.565)"><path d="m394.408 199.368-1.883-.232.752-1.572c.39-.817 1.487-1.463 2.536-1.471 1.128-.009 1.843.728 1.488 1.686-.179.48-.596.919-1.164 1.228-.46.25-.963.378-1.434.378-.1 0-.199-.005-.295-.017" style="fill:url(#m);stroke:none"/></g><g clip-path="url(#n)" transform="matrix(2.84969 0 0 -2.84969 -948.898 611.565)"><path d="M383.702 205.09c-.562-.327-.535-1.303.005-2.165.255-.407.59-.746.953-.96.367-.215.726-.283 1.018-.189l1.194.385-.974 1.727c-.455.801-1.186 1.31-1.773 1.31a.835.835 0 0 1-.423-.108" style="fill:url(#o);stroke:none"/></g><g clip-path="url(#p)" transform="matrix(2.84969 0 0 -2.84969 -948.898 611.565)"><path d="M397.804 210.746c-.724-.061-1.405-.411-1.916-.961-.486-.522-.757-1.165-.784-1.808l-.099-2.23 2.224-.078c1.339-.047 2.7.987 2.977 2.417.283 1.471-.71 2.67-2.165 2.67-.078 0-.157-.003-.237-.01" style="fill:url(#q);stroke:none"/></g><g clip-path="url(#r)" transform="matrix(2.84969 0 0 -2.84969 -948.898 611.565)"><path d="M386.527 213.5c-.218-.543-.269-1.19-.148-1.824.117-.612.381-1.152.746-1.534l1.364-1.428.993 1.65c.621 1.037.462 2.721-.42 3.673-.36.388-.765.571-1.152.571-.566 0-1.093-.392-1.383-1.108" style="fill:url(#s);stroke:none"/></g><g clip-path="url(#t)" transform="matrix(2.84969 0 0 -2.84969 -948.898 611.565)"><path d="M394.474 194.587c-.021-.487.561-1.071 1.324-1.332.792-.272 1.534-.111 1.632.386.049.25-.073.544-.344.821-.272.277-.657.5-1.073.623l-1.494.442z" style="fill:url(#u);stroke:none"/></g><g clip-path="url(#v)" transform="matrix(2.84969 0 0 -2.84969 -948.898 611.565)"><path d="M382.033 209.323c-.582-.051-.778-.833-.473-1.706.143-.407.376-.783.655-1.065.277-.279.578-.439.848-.449l1.069-.04-.458 1.594c-.265.918-.98 1.668-1.582 1.668-.02 0-.04 0-.059-.002" style="fill:url(#w);stroke:none"/></g><g clip-path="url(#x)" transform="matrix(2.84969 0 0 -2.84969 -948.898 611.565)"><path d="m399.09 200.085-1.655-.821 1.214-1.269c.664-.694 1.98-.993 3.017-.646 1.123.377 1.501 1.371.74 2.187-.369.401-.939.676-1.587.775-.173.027-.345.04-.514.04-.445 0-.864-.091-1.215-.266" style="fill:url(#y);stroke:none"/></g></svg>