<svg xmlns="http://www.w3.org/2000/svg" xml:space="preserve" width="1256.6919" height="200" viewBox="0 0 1256.6919 200"><defs><clipPath id="a" clipPathUnits="userSpaceOnUse"><path d="M0 841.89h595.28V0H0Z"/></clipPath></defs><g clip-path="url(#a)" transform="matrix(2.51059 0 0 -2.51059 -108.232 1979.896)"><path d="M0 0v25.657h6.13v-7.984h6.19v-3.242H6.13V0Zm-16.716 16.15c-.742-.95-1.138-2.096-1.138-3.465 0-1.33.396-2.487 1.138-3.462.749-.979 1.627-1.463 2.553-1.463.983 0 1.85.484 2.602 1.463.742.975 1.119 2.132 1.119 3.462 0 1.369-.377 2.515-1.119 3.465-.752.987-1.619 1.464-2.602 1.464-.926 0-1.804-.477-2.553-1.464m4.724-22.016H7.472v-3.171H-13.95c-1.192 0-2.237.329-3.02 1.005-.774.671-1.205 1.602-1.205 2.743v7.476h6.183zm3.928 24.576c1.063-.703 1.917-1.581 2.54-2.632.609-1.045.954-2.167.954-3.393 0-2.159-.954-4.034-2.81-5.562-1.899-1.564-4.139-2.341-6.783-2.341-2.57 0-4.824.777-6.712 2.341-1.874 1.528-2.807 3.403-2.807 5.562a6.42 6.42 0 0 0 .933 3.393 8.443 8.443 0 0 0 2.516 2.632h-4.849v3.167h7.818v4.152h6.167v-4.152h7.833V18.71Z" style="fill:#354480;fill-opacity:1;fill-rule:nonzero;stroke:none" transform="translate(171.818 729.884)"/><path d="M0 0h26.354v-7.614c0-.955-.144-1.999-.464-3.115-.255-1.11-.617-1.914-1.063-2.438h5.953v-3.183H16.258v-5.559h9.983v-12.584h-6.162v9.393H-.131v3.191h10.19v5.559H-4.183v3.183h23.63c.303.736.497 1.582.598 2.519.083.976.126 1.93.126 2.898v4.577H0Z" style="fill:#354480;fill-opacity:1;fill-rule:nonzero;stroke:none" transform="translate(191.513 755.272)"/><path d="M0 0v-26.409h-6.157v3.194h-8.317v2.8h8.317V0Zm-23.768-4.053c-.632-.805-.968-1.781-.968-2.944 0-1.174.336-2.159.968-2.933.669-.795 1.479-1.202 2.414-1.202.91 0 1.693.407 2.352 1.202.66.774.978 1.759.978 2.933 0 1.163-.318 2.139-.978 2.944-.659.769-1.442 1.152-2.352 1.152-.935 0-1.745-.383-2.414-1.152m3.871-27.43H1.296v-3.23h-23.039c-1.23 0-2.268.338-3.087 1.015-.8.66-1.247 1.587-1.247 2.754v5.744h6.18zm5.131 29.536c1.804-1.386 2.712-3.078 2.712-5.05 0-1.999-.908-3.672-2.712-5.061-1.808-1.376-4.006-2.08-6.588-2.08-2.598 0-4.785.704-6.622 2.08-1.806 1.389-2.714 3.062-2.714 5.061 0 1.972.908 3.664 2.714 5.05 1.837 1.415 4.024 2.09 6.622 2.09 2.582 0 4.78-.675 6.588-2.09m5.9-13.392v-3.027h-9.476v-5.114h-6.167v5.114h-8.408v3.027z" style="fill:#354480;fill-opacity:1;fill-rule:nonzero;stroke:none" transform="translate(260.65 755.515)"/><path d="M0 0h6.148v-8.675l6.183.058v-3.221H6.148v-22.847H0Zm-24.138-4.339v3.221h20.584v-3.221l-7.116.041v-3.399c0-3.305.952-6.123 2.892-8.468 1.929-2.337 4.163-3.743 6.653-4.183l-3.034-2.438c-1.958.119-3.93.936-5.939 2.344-1.987 1.435-3.23 2.926-3.757 4.469-.425-1.543-1.613-3.034-3.613-4.433-2-1.425-3.996-2.213-5.988-2.38l-3.061 2.438c2.546.44 4.73 1.846 6.67 4.183 1.948 2.345 2.891 5.163 2.891 8.468v3.399z" style="fill:#354480;fill-opacity:1;fill-rule:nonzero;stroke:none" transform="translate(292.506 755.42)"/><path d="M0 0v-20.028h-6.185v5.379h-5.569v3.191h5.569v3.601h-5.569v3.194h5.569V0Zm-6.185-25.621H-27.86v3.215H0v-12.279h-6.185zM-19.173-8.498v4.58H-31.09v3.167h18.125v-10.934h-11.536v-4.556h13.813v-3.187h-15.753c-1.29 0-2.356.321-3.106 1.013-.759.652-1.162 1.558-1.162 2.654v7.263z" style="fill:#354480;fill-opacity:1;fill-rule:nonzero;stroke:none" transform="translate(340.478 755.42)"/><path d="M0 0a4.54 4.54 0 0 1-1.061-2.968c0-1.118.319-2.121 1.061-3.034.701-.895 1.568-1.355 2.59-1.355.985 0 1.833.46 2.53 1.355.751.913 1.113 1.916 1.113 3.034C6.233-1.906 5.871-.902 5.12 0c-.697.913-1.545 1.344-2.53 1.344C1.568 1.344.701.913 0 0m9.496 2.289c1.915-1.46 2.866-3.208 2.866-5.257 0-2.104-.951-3.87-2.866-5.34-1.888-1.445-4.207-2.173-6.906-2.173-2.717 0-5.028.728-6.966 2.173-1.913 1.47-2.878 3.236-2.878 5.34 0 2.049.965 3.797 2.878 5.257C-2.438 3.73-.127 4.431 2.59 4.431c2.699 0 5.018-.701 6.906-2.142M-4.317 16.754v-2.251h20.703v-3.117H5.668V8.778h14.421V5.611h-34.968v3.167H-.466v2.608h-5.781c-1.275 0-2.295.338-3.079 1.013-.795.676-1.175 1.589-1.175 2.676v10.307h26.482v-3.125H-4.317v-2.334h20.115v-3.169z" style="fill:#354480;fill-opacity:1;fill-rule:nonzero;stroke:none" transform="translate(363.195 729.8)"/><path d="M421.937 720.736h-5.804v34.685h5.804zm-8.224 0h-5.804v13.954l-2.738-2.097c-1.773.209-3.469 1.062-5.129 2.48-1.651 1.425-2.658 2.871-2.985 4.309-.305-1.438-1.307-2.884-2.961-4.309-1.68-1.418-3.4-2.271-5.16-2.48l-2.87 2.18c2.321.56 4.249 2.004 5.719 4.323 1.485 2.309 2.202 5.11 2.202 8.377v3.65h-5.374v3.18h16.454v-3.18h-4.992v-3.65c0-3.243.759-6.026 2.244-8.342 1.509-2.319 3.356-3.779 5.59-4.358v8.963h-5.056v3.236h5.056v8.449h5.804zM461.236 720.736h-6.166v34.685h6.166zm-30.688 33.567h18.832v-3.486c0-5.942-1.899-10.474-5.677-13.567-3.763-3.111-7.743-4.775-11.94-4.984l-3.359 2.257c4.142.557 7.583 2.083 10.325 4.573 2.738 2.463 4.124 6.249 4.124 11.303v.724h-12.305z" style="fill:#354480;fill-opacity:1;fill-rule:nonzero;stroke:none"/><path d="M0 0v-2.897c0-2.373 1.493-4.382 4.378-5.97 2.925-1.606 5.993-2.4 9.133-2.424l-2.927-2.446c-2.528 0-5.204.498-8.059 1.509-2.887 1.013-4.751 2.302-5.629 3.897-.851-1.602-2.675-2.925-5.548-3.922-2.868-.986-5.569-1.484-8.141-1.484l-2.909 2.446c3.17.024 6.207.818 9.115 2.424 2.895 1.588 4.378 3.597 4.378 5.97V0Zm14.573-15.496v-3.148H0v-2.38h10.115v-8.307H-9.228v-2.173h20.082v-3.181h-21.945c-1.296 0-2.327.355-3.13 1.066-.805.676-1.184 1.589-1.184 2.697v4.608H3.933v2.103h-19.747v3.187h9.625v2.38h-14.617v3.148z" style="fill:#354480;fill-opacity:1;fill-rule:nonzero;stroke:none" transform="translate(489.607 755.42)"/><path d="M0 0v-26.409h-6.166v3.194h-8.324v2.8h8.324V0Zm-23.759-4.053c-.683-.805-.969-1.781-.969-2.944 0-1.174.286-2.159.969-2.933.669-.795 1.443-1.202 2.389-1.202.934 0 1.712.407 2.377 1.202.644.774.971 1.759.971 2.933 0 1.163-.327 2.139-.971 2.944-.665.769-1.443 1.152-2.377 1.152-.946 0-1.72-.383-2.389-1.152m3.857-27.43H1.273v-3.23h-23.055c-1.206 0-2.227.338-3.056 1.015-.832.66-1.23 1.587-1.23 2.754v5.744h6.166zm5.136 29.536c1.802-1.386 2.699-3.078 2.699-5.05 0-1.999-.897-3.672-2.699-5.061-1.824-1.376-3.997-2.08-6.604-2.08-2.574 0-4.781.704-6.579 2.08-1.839 1.389-2.772 3.062-2.772 5.061 0 1.972.933 3.664 2.772 5.05 1.798 1.415 4.005 2.09 6.579 2.09 2.607 0 4.78-.675 6.604-2.09m5.883-13.392v-3.027h-9.452v-5.114h-6.181v5.114h-8.4v3.027z" style="fill:#354480;fill-opacity:1;fill-rule:nonzero;stroke:none" transform="translate(542.394 755.515)"/><path d="M0 0c3.59 2.493 8.166 4.054 12.424 4.951 7.071 1.516 14.625 1.363 21.705-.081 1.981-.413 3.958-.942 5.853-1.637 3.072-1.104 6.498-2.739 8.412-5.487 1.527-2.204 1.651-5.315.52-7.674-1.29-2.685-4.113-4.354-6.835-5.286-1.51-.516-3.109-.854-4.694-1.091-3.072-.438-6.174-.457-9.256-.899-2.342-.328-5.009-.64-6.918-2.176-2.475-1.983-2.004-5.352.079-7.365 2.004-1.939 5.015-3.225 7.717-3.861 2.188-.519 4.529-.844 6.79-.87 3.544-.042 6.992.325 10.648.954.118.023.298-.038.33-.197.037-.172-.057-.28-.189-.323-7.782-2.307-18.926-2.354-28.375-.292-8.158 1.741-14.726 5.183-19.367 9.582-2.706 2.727-5.116 6.574-5.183 10.227C-6.457-6.688-3.869-2.676 0 0" style="fill:#354480;fill-opacity:1;fill-rule:nonzero;stroke:none" transform="translate(49.453 741.784)"/><path d="M0 0c-6.583 4.361-13.92 5.696-21.326 7.57-19.884 5.043-25.288 23.703-26.599 30.356 0 0 6.849-.452 16.407-2.182 16.927-3.064 42.153-8.892 53.517-25.931C24.642 5.223 26.22-.39 25.601-7.148c-.602-3.935-2.077-7.738-4.566-11.11-2.116-2.857-4.985-5.95-7.932-7.954-4.715-3.23-10.007-5.452-15.542-6.783a50.477 50.477 0 0 0-4.849-.928c-2.615-.39-5.256-.539-7.895-.552-.322 0-.636 0-.958.007-3.302.038-5.937.334-7.09.509-2.195.328-1.667 1.465-1.667 1.465h.032c.098.369.618.45.966.505a9.734 9.734 0 0 0 1.576.108c1.801 0 6.199.208 6.314.211.387.032.777.071 1.166.12 2.45.28 4.917.663 7.278 1.367 5.579 1.665 11.117 4.373 14.184 9.555C11.585-12.24 7.183-4.762 0 0" style="fill:#b4b4a5;fill-opacity:1;fill-rule:nonzero;stroke:none" transform="translate(103.952 750.692)"/></g></svg>