<svg xmlns="http://www.w3.org/2000/svg" width="64.216843mm" height="20.496037mm" viewBox="0 0 64.216843 20.496037"><defs><clipPath id="a" clipPathUnits="userSpaceOnUse"><path d="M62.779 366.502h200v150h-200z"/></clipPath></defs><path d="M0 0h7.795v-2.658h2.126V0h7.796v1.949H0Z" style="fill:#223e80;fill-opacity:1;fill-rule:nonzero;stroke:none" transform="matrix(.35278 0 0 -.35278 24.467 8.313)"/><path d="M0 0h12.934v-4.429h2.125v6.378H0Z" style="fill:#223e80;fill-opacity:1;fill-rule:nonzero;stroke:none" transform="matrix(.35278 0 0 -.35278 24.904 10.437)"/><path d="M0 0h2.126v6.378h-15.059V4.429H0Z" style="fill:#223e80;fill-opacity:1;fill-rule:nonzero;stroke:none" transform="matrix(.35278 0 0 -.35278 29.467 7.125)"/><path d="M0 0h-2.126v-12.933H0v6.201h2.48v1.949H0Z" style="fill:#223e80;fill-opacity:1;fill-rule:nonzero;stroke:none" transform="matrix(.35278 0 0 -.35278 43.842 4.688)"/><g clip-path="url(#a)" transform="matrix(.35278 0 0 -.35278 -25.201 165.84)"><path d="M0 0a1.948 1.948 0 1 0-3.896-.002A1.948 1.948 0 0 0 0 0m-5.935 0a3.987 3.987 0 1 1 7.973.001A3.987 3.987 0 0 1-5.935 0" style="fill:#223e80;fill-opacity:1;fill-rule:nonzero;stroke:none" transform="translate(186.853 448.215)"/><path d="M0 0h-4.075v2.303h-2.126V0h-4.073v-1.949H0Z" style="fill:#223e80;fill-opacity:1;fill-rule:nonzero;stroke:none" transform="translate(190.043 455.036)"/><path d="M0 0h12.756v-4.429h2.126v6.378H0Z" style="fill:#223e80;fill-opacity:1;fill-rule:nonzero;stroke:none" transform="translate(180.83 440.509)"/><path d="M0 0h-2.834v-1.949H0V-4.11h-2.834v-1.949H0v-3.508h2.126V2.834H0Z" style="fill:#223e80;fill-opacity:1;fill-rule:nonzero;stroke:none" transform="translate(232.208 453.973)"/><path d="M0 0a2.745 2.745 0 1 0 5.49.001A2.745 2.745 0 0 0 0 0m7.529 0a4.783 4.783 0 1 1-9.567.001A4.783 4.783 0 0 1 7.53 0" style="fill:#223e80;fill-opacity:1;fill-rule:nonzero;stroke:none" transform="translate(220.072 450.855)"/><path d="M0 0h12.756v-4.96h2.126v6.909H0Z" style="fill:#223e80;fill-opacity:1;fill-rule:nonzero;stroke:none" transform="translate(219.452 441.04)"/><path d="M0 0h-2.126v-13.819H0v6.555h2.48v1.949H0Z" style="fill:#223e80;fill-opacity:1;fill-rule:nonzero;stroke:none" transform="translate(137.602 456.808)"/><path d="M0 0a1.949 1.949 0 1 0-3.898 0A1.949 1.949 0 0 0 0 0m-5.936 0a3.987 3.987 0 1 1 7.973.001A3.987 3.987 0 0 1-5.936 0" style="fill:#223e80;fill-opacity:1;fill-rule:nonzero;stroke:none" transform="translate(128.744 448.215)"/><path d="M0 0h-4.075v2.303h-2.126V0h-4.073v-1.949H0Z" style="fill:#223e80;fill-opacity:1;fill-rule:nonzero;stroke:none" transform="translate(131.933 455.036)"/><path d="M0 0h-2.126v-5.847h14.882v1.949H0Z" style="fill:#223e80;fill-opacity:1;fill-rule:nonzero;stroke:none" transform="translate(125.023 442.457)"/><path d="M0 0h2.126v-12.756H0v5.847h-2.835v1.949H0Z" style="fill:#223e80;fill-opacity:1;fill-rule:nonzero;stroke:none" transform="translate(213.783 456.808)"/><path d="M206.696 447.418h-4.604v3.543h4.604zm2.126 8.682h-2.126v-3.189h-4.606v3.189h-2.126v-10.631h8.858z" style="fill:#223e80;fill-opacity:1;fill-rule:nonzero;stroke:none"/><path d="M0 0h-2.126v-6.378h14.882v1.949H0Z" style="fill:#223e80;fill-opacity:1;fill-rule:nonzero;stroke:none" transform="translate(203.33 442.989)"/><path d="M0 0h7.796v-2.657h2.126V0h7.795v1.949H0Z" style="fill:#223e80;fill-opacity:1;fill-rule:nonzero;stroke:none" transform="translate(160.456 444.3)"/><path d="M174.452 450.252h-10.273v4.075h10.273zm2.127 6.024h-14.526v-7.973h14.526z" style="fill:#223e80;fill-opacity:1;fill-rule:nonzero;stroke:none"/><path d="M0 0h-2.126v-5.669h15.06v1.948H0Z" style="fill:#223e80;fill-opacity:1;fill-rule:nonzero;stroke:none" transform="translate(164 442.28)"/><path d="M0 0h2.126v2.303h4.961v1.949H-4.604V2.303H0Z" style="fill:#223e80;fill-opacity:1;fill-rule:nonzero;stroke:none" transform="translate(241.598 442.28)"/><path d="M0 0a2.214 2.214 0 1 0 0-4.429A2.215 2.215 0 1 0 0 0m0-6.466a4.251 4.251 0 0 1 4.252 4.252 4.251 4.251 0 1 1-8.504 0A4.252 4.252 0 0 1 0-6.466" style="fill:#223e80;fill-opacity:1;fill-rule:nonzero;stroke:none" transform="translate(242.307 454.416)"/><path d="M0 0h-2.126v-4.961h14.882v1.949H0Z" style="fill:#223e80;fill-opacity:1;fill-rule:nonzero;stroke:none" transform="translate(240.712 441.572)"/><path d="M0 0h2.126v-14.882H0v5.492h-2.835v1.949H0Z" style="fill:#223e80;fill-opacity:1;fill-rule:nonzero;stroke:none" transform="translate(251.165 456.808)"/><path d="M0 0v-8.504h2.126v6.093l35.037-4.412v-48.448L2.126-45.172v6.903H0v-8.502l39.289-11.328v53.151z" style="fill:#e51b47;fill-opacity:1;fill-rule:nonzero;stroke:none" transform="translate(71.738 470.095)"/><path d="M0 0v3.749h.74V.635h1.156V0Z" style="fill:#223e80;fill-opacity:1;fill-rule:nonzero;stroke:none" transform="translate(71.728 454.398)"/><path d="M0 0h-1.501v.41l.378.162v2.604l-.378.163v.41H0v-.41l-.383-.163V.572L0 .41Z" style="fill:#223e80;fill-opacity:1;fill-rule:nonzero;stroke:none" transform="translate(75.524 454.398)"/><path d="M0 0h-.734v3.113h-.793v.636h2.32v-.636H0Z" style="fill:#223e80;fill-opacity:1;fill-rule:nonzero;stroke:none" transform="translate(77.42 454.398)"/><path d="M0 0h-1.827v3.749H0v-.625h-1.087v-.867h1.008v-.624h-1.008V.635H0Z" style="fill:#223e80;fill-opacity:1;fill-rule:nonzero;stroke:none" transform="translate(80.633 454.398)"/><path d="M0 0h-.174v-1.076h.19c.375 0 .561.189.561.567 0 .175-.048.303-.141.386C.341-.041.195 0 0 0m.021.62C.465.62.795.528 1.01.347c.217-.182.323-.457.323-.825 0-.238-.051-.44-.151-.606a1.142 1.142 0 0 0-.432-.402l.872-1.643H.803l-.699 1.46h-.278v-1.46h-.74V.62Z" style="fill:#223e80;fill-opacity:1;fill-rule:nonzero;stroke:none" transform="translate(82.303 457.527)"/><path d="m0 0-.227.956a7.09 7.09 0 0 1-.073.356c-.027.126-.05.239-.061.336-.016-.094-.035-.207-.065-.338-.028-.131-.053-.248-.078-.349L-.725 0Zm.352-1.538L.136-.64h-.997l-.215-.898h-.799L-.84 2.216H.1l1.045-3.754z" style="fill:#223e80;fill-opacity:1;fill-rule:nonzero;stroke:none" transform="translate(85.936 455.936)"/><path d="M0 0h-.735v3.113h-.791v.636H.793v-.636H0Z" style="fill:#223e80;fill-opacity:1;fill-rule:nonzero;stroke:none" transform="translate(88.65 454.398)"/><path d="M0 0v-2.488c0-.417-.107-.74-.322-.969-.216-.23-.537-.344-.964-.344-.409 0-.722.112-.937.336-.215.224-.323.548-.323.971V0h.739v-2.441c0-.259.045-.443.135-.552.089-.108.222-.162.397-.162.181 0 .316.055.404.165.087.11.131.295.131.554V0Z" style="fill:#223e80;fill-opacity:1;fill-rule:nonzero;stroke:none" transform="translate(92.56 458.147)"/><path d="M0 0h-.173v-1.076h.19c.375 0 .561.189.561.567 0 .175-.048.303-.141.386C.342-.041.196 0 0 0m.021.62c.445 0 .775-.092.99-.273.217-.182.323-.457.323-.825 0-.238-.051-.44-.151-.606a1.142 1.142 0 0 0-.432-.402l.871-1.643H.804l-.7 1.46h-.277v-1.46h-.74V.62Z" style="fill:#223e80;fill-opacity:1;fill-rule:nonzero;stroke:none" transform="translate(94.335 457.527)"/><path d="M0 0h-1.827v3.749H0v-.625h-1.087v-.867h1.009v-.624h-1.009V.635H0Z" style="fill:#223e80;fill-opacity:1;fill-rule:nonzero;stroke:none" transform="translate(98.299 454.398)"/><path d="M0 0h-.734v3.113h-.793v.636h2.32v-.636H0Z" style="fill:#223e80;fill-opacity:1;fill-rule:nonzero;stroke:none" transform="translate(72.963 448.023)"/><path d="M0 0h-.173v-1.076h.191c.373 0 .56.189.56.567 0 .175-.049.303-.141.386C.342-.041.195 0 0 0m.021.62c.445 0 .775-.092.991-.273.215-.182.322-.457.322-.825 0-.238-.051-.44-.152-.606a1.131 1.131 0 0 0-.431-.402l.872-1.643H.805l-.7 1.46h-.278v-1.46h-.74V.62Z" style="fill:#223e80;fill-opacity:1;fill-rule:nonzero;stroke:none" transform="translate(75.262 451.152)"/><path d="m0 0-.226.956a8.49 8.49 0 0 1-.074.356 4.556 4.556 0 0 0-.062.336 5.7 5.7 0 0 0-.064-.338c-.028-.131-.053-.248-.078-.349L-.726 0Zm.353-1.538L.136-.64H-.86l-.216-.898h-.799L-.84 2.216h.941l1.045-3.754z" style="fill:#223e80;fill-opacity:1;fill-rule:nonzero;stroke:none" transform="translate(78.895 449.561)"/><path d="M0 0h-.898l-1.254 2.683h-.022c.014-.186.024-.355.028-.51l.014-.43V0h-.682v3.749h.887l1.254-2.631h.017l-.022.486c-.008.152-.011.292-.015.417v1.728H0Z" style="fill:#223e80;fill-opacity:1;fill-rule:nonzero;stroke:none" transform="translate(83.363 448.023)"/><path d="M0 0c0-.224-.049-.422-.145-.593a.986.986 0 0 0-.41-.399 1.308 1.308 0 0 0-.632-.142 2.45 2.45 0 0 0-.483.047 1.623 1.623 0 0 0-.445.163v.735c.149-.084.304-.152.465-.205.158-.052.311-.079.459-.079.153 0 .266.04.337.119a.408.408 0 0 1 .108.291.425.425 0 0 1-.128.315 2.292 2.292 0 0 1-.444.305c-.137.076-.263.16-.381.252-.117.09-.21.203-.28.338a1.095 1.095 0 0 0-.106.512c-.003.325.097.585.297.777.201.192.477.287.832.283.165 0 .325-.021.479-.063.159-.042.312-.101.466-.178l-.219-.635a2.385 2.385 0 0 1-.379.165 1.103 1.103 0 0 1-.336.055c-.13 0-.23-.034-.299-.102a.355.355 0 0 1-.106-.265c0-.088.018-.163.053-.226a.549.549 0 0 1 .182-.181c.086-.058.201-.127.347-.207.248-.137.44-.287.571-.449C-.066.47 0 .259 0 0" style="fill:#223e80;fill-opacity:1;fill-rule:nonzero;stroke:none" transform="translate(86.172 449.104)"/><path d="M0 0v3.749h.74V.635h1.156V0Z" style="fill:#223e80;fill-opacity:1;fill-rule:nonzero;stroke:none" transform="translate(86.855 448.023)"/><path d="m0 0-.227.956a7.09 7.09 0 0 1-.073.356c-.027.126-.05.239-.061.336-.016-.094-.035-.207-.065-.338-.028-.131-.053-.248-.078-.349L-.725 0Zm.352-1.538L.136-.64h-.997l-.215-.898h-.799L-.84 2.216H.1l1.045-3.754z" style="fill:#223e80;fill-opacity:1;fill-rule:nonzero;stroke:none" transform="translate(90.865 449.561)"/><path d="M0 0h-.735v3.113h-.791v.636H.793v-.636H0Z" style="fill:#223e80;fill-opacity:1;fill-rule:nonzero;stroke:none" transform="translate(93.58 448.023)"/><path d="M0 0h-1.501v.41l.378.162v2.604l-.378.163v.41H0v-.41l-.383-.163V.572L0 .41Z" style="fill:#223e80;fill-opacity:1;fill-rule:nonzero;stroke:none" transform="translate(96.246 448.023)"/><path d="M0 0c0-.42.058-.739.17-.958.114-.219.288-.328.522-.328.239 0 .412.107.526.323.112.215.168.536.168.963 0 .427-.056.749-.164.966a.552.552 0 0 1-.524.326A.56.56 0 0 1 .17.961C.058.74 0 .42 0 0m2.157 0A3.03 3.03 0 0 0 2-1.023a1.387 1.387 0 0 0-.483-.673c-.217-.157-.493-.236-.825-.236-.332 0-.607.079-.824.239a1.39 1.39 0 0 0-.482.672A2.982 2.982 0 0 0-.772.005c0 .613.123 1.086.369 1.42.244.335.611.502 1.101.502.332 0 .608-.078.823-.234.212-.155.375-.378.479-.667.104-.288.157-.63.157-1.026" style="fill:#223e80;fill-opacity:1;fill-rule:nonzero;stroke:none" transform="translate(97.554 449.902)"/><path d="M0 0h-.897l-1.254 2.683h-.022c.014-.186.024-.355.027-.51l.015-.43V0h-.682v3.749h.886l1.255-2.631h.016l-.021.486c-.008.152-.011.292-.015.417v1.728H0Z" style="fill:#223e80;fill-opacity:1;fill-rule:nonzero;stroke:none" transform="translate(103.286 448.023)"/><path d="M0 0h-1.501v.41l.378.162v2.604l-.378.163v.41H0v-.41l-.383-.163V.572L0 .41Z" style="fill:#223e80;fill-opacity:1;fill-rule:nonzero;stroke:none" transform="translate(73.01 441.648)"/><path d="M0 0h-.897l-1.254 2.683h-.023a8.44 8.44 0 0 0 .028-.51c.006-.153.01-.297.014-.43V0h-.681v3.749h.886l1.255-2.631h.016c-.007.172-.014.334-.023.486-.006.152-.009.292-.013.417v1.728H0Z" style="fill:#223e80;fill-opacity:1;fill-rule:nonzero;stroke:none" transform="translate(76.485 441.648)"/><path d="M0 0c0-.224-.048-.422-.146-.593a.975.975 0 0 0-.408-.399 1.31 1.31 0 0 0-.633-.142c-.167 0-.33.016-.483.047a1.641 1.641 0 0 0-.446.163v.735c.151-.084.304-.152.465-.205a1.48 1.48 0 0 1 .461-.079c.152 0 .265.04.336.119a.41.41 0 0 1 .109.291.422.422 0 0 1-.129.315 2.278 2.278 0 0 1-.443.305c-.137.076-.264.16-.381.252-.117.09-.211.203-.281.338-.07.135-.105.306-.105.512-.004.325.095.585.296.777.202.192.478.287.833.283.164 0 .324-.021.479-.063.157-.042.311-.101.465-.178l-.22-.635a2.295 2.295 0 0 1-.377.165 1.117 1.117 0 0 1-.336.055c-.13 0-.23-.034-.3-.102a.36.36 0 0 1-.107-.265c0-.088.019-.163.054-.226a.549.549 0 0 1 .182-.181c.085-.058.202-.127.348-.207.248-.137.439-.287.57-.449C-.065.47 0 .259 0 0" style="fill:#223e80;fill-opacity:1;fill-rule:nonzero;stroke:none" transform="translate(79.294 442.73)"/><path d="M0 0h-.733v3.113h-.793v.636H.793v-.636H0Z" style="fill:#223e80;fill-opacity:1;fill-rule:nonzero;stroke:none" transform="translate(81.21 441.648)"/><path d="M0 0h-1.501v.41l.378.162v2.604l-.378.163v.41H0v-.41l-.383-.163V.572L0 .41Z" style="fill:#223e80;fill-opacity:1;fill-rule:nonzero;stroke:none" transform="translate(83.877 441.648)"/><path d="M0 0h-.735v3.113h-.793v.636H.793v-.636H0Z" style="fill:#223e80;fill-opacity:1;fill-rule:nonzero;stroke:none" transform="translate(85.772 441.648)"/><path d="M0 0v-2.488c0-.417-.107-.74-.322-.969-.216-.23-.537-.344-.964-.344-.409 0-.722.112-.939.336-.213.224-.321.548-.321.971V0h.739v-2.441c0-.259.045-.443.135-.552.089-.108.221-.162.397-.162.181 0 .316.055.404.165.087.11.131.295.131.554V0Z" style="fill:#223e80;fill-opacity:1;fill-rule:nonzero;stroke:none" transform="translate(89.684 445.397)"/><path d="M0 0h-.735v3.113h-.791v.636H.793v-.636H0Z" style="fill:#223e80;fill-opacity:1;fill-rule:nonzero;stroke:none" transform="translate(91.778 441.648)"/><path d="M0 0h-1.827v3.749H0v-.625h-1.087v-.867h1.008v-.624h-1.008V.635H0Z" style="fill:#223e80;fill-opacity:1;fill-rule:nonzero;stroke:none" transform="translate(94.991 441.648)"/><path d="M0 0c0-.42.057-.739.171-.958a.554.554 0 0 1 .522-.328c.239 0 .412.107.525.323.112.215.168.536.168.963 0 .427-.055.749-.165.966a.551.551 0 0 1-.524.326.558.558 0 0 1-.526-.331C.057.74 0 .42 0 0m2.158 0c0-.392-.053-.733-.158-1.023a1.385 1.385 0 0 0-.482-.673c-.217-.157-.493-.236-.825-.236-.334 0-.607.079-.824.239a1.385 1.385 0 0 0-.483.672A3.007 3.007 0 0 0-.771.005c0 .613.123 1.086.367 1.42.245.335.612.502 1.101.502.334 0 .608-.078.823-.234.214-.155.376-.378.48-.667.105-.288.158-.63.158-1.026" style="fill:#223e80;fill-opacity:1;fill-rule:nonzero;stroke:none" transform="translate(97.59 443.527)"/><path d="M0 0h-.734v3.749h1.815v-.625H0V2.121h1.008v-.625H0Z" style="fill:#223e80;fill-opacity:1;fill-rule:nonzero;stroke:none" transform="translate(101.244 441.648)"/><path d="M0 0h-.83l-.739 1.543-.264-.22V0h-.74v3.749h.74V2.025c.023.072.059.146.104.225.042.079.091.165.148.259l.762 1.24h.808l-1.034-1.665Z" style="fill:#223e80;fill-opacity:1;fill-rule:nonzero;stroke:none" transform="translate(74.302 435.273)"/><path d="M0 0c0-.42.058-.738.171-.958a.552.552 0 0 1 .521-.327c.239 0 .412.106.526.322.112.215.168.536.168.963 0 .428-.055.749-.164.967a.551.551 0 0 1-.524.325.556.556 0 0 1-.527-.331C.058.74 0 .42 0 0m2.157 0c0-.392-.053-.732-.157-1.022a1.392 1.392 0 0 0-.481-.673c-.219-.158-.495-.237-.827-.237-.332 0-.606.079-.824.24a1.38 1.38 0 0 0-.482.671C-.72-.731-.771-.39-.771.005c0 .613.122 1.087.368 1.421.244.335.611.502 1.101.502.332 0 .608-.078.823-.235.214-.155.375-.378.479-.667.104-.288.157-.63.157-1.026" style="fill:#223e80;fill-opacity:1;fill-rule:nonzero;stroke:none" transform="translate(75.394 437.152)"/><path d="M0 0h-.173v-1.076h.19c.375 0 .561.189.561.567 0 .175-.048.303-.141.386C.342-.041.196 0 0 0m.021.62c.445 0 .775-.092.99-.273.217-.182.323-.457.323-.826 0-.237-.051-.439-.151-.605a1.142 1.142 0 0 0-.432-.402l.871-1.643H.804l-.7 1.46h-.277v-1.46h-.74V.62Z" style="fill:#223e80;fill-opacity:1;fill-rule:nonzero;stroke:none" transform="translate(79.226 438.402)"/><path d="M0 0h-1.827v3.749H0v-.625h-1.087v-.867h1.008v-.624h-1.008V.635H0Z" style="fill:#223e80;fill-opacity:1;fill-rule:nonzero;stroke:none" transform="translate(83.19 435.273)"/><path d="m0 0-.227.956a7.037 7.037 0 0 1-.072.356 4.067 4.067 0 0 0-.062.335A11.5 11.5 0 0 0-.504.961L-.725 0Zm.354-1.538L.137-.64h-.996l-.217-.898h-.798L-.84 2.216h.942l1.043-3.754z" style="fill:#223e80;fill-opacity:1;fill-rule:nonzero;stroke:none" transform="translate(85.441 436.811)"/></g></svg>