<svg xmlns="http://www.w3.org/2000/svg" width="947.60925mm" height="200mm" viewBox="0 0 947.60925 200"><defs><linearGradient id="b" x1="0" x2="1" y1="0" y2="0" gradientTransform="matrix(22.30072 -14.31663 -14.31663 -22.3007 64.727 441.926)" gradientUnits="userSpaceOnUse" spreadMethod="pad"><stop offset="0" style="stop-opacity:1;stop-color:#e9e9e9"/><stop offset="1" style="stop-opacity:1;stop-color:#9c9a9b"/></linearGradient><linearGradient id="d" x1="0" x2="1" y1="0" y2="0" gradientTransform="scale(59.35768 -59.35768) rotate(-61.142 -5.207 -4.063)" gradientUnits="userSpaceOnUse" spreadMethod="pad"><stop offset="0" style="stop-opacity:1;stop-color:#f04338"/><stop offset="0.550003" style="stop-opacity:1;stop-color:#ed1c24"/><stop offset="1" style="stop-opacity:1;stop-color:#b01419"/></linearGradient><linearGradient id="f" x1="0" x2="1" y1="0" y2="0" gradientTransform="matrix(-22.3014 14.3171 14.3171 22.30142 184.665 350.053)" gradientUnits="userSpaceOnUse" spreadMethod="pad"><stop offset="0" style="stop-opacity:1;stop-color:#e9e9e9"/><stop offset="1" style="stop-opacity:1;stop-color:#9c9a9b"/></linearGradient><linearGradient id="h" x1="0" x2="1" y1="0" y2="0" gradientTransform="scale(-59.35805 59.35805) rotate(-61.142 3.986 6.164)" gradientUnits="userSpaceOnUse" spreadMethod="pad"><stop offset="0" style="stop-opacity:1;stop-color:#f04338"/><stop offset="0.550003" style="stop-opacity:1;stop-color:#ed1c24"/><stop offset="1" style="stop-opacity:1;stop-color:#b01419"/></linearGradient><clipPath id="a" clipPathUnits="userSpaceOnUse"><path d="M101.444 452.808c-6.342-.707-35.522-5.899-49.006-41.578 9.567 15.386 27.198 28.426 46.562 31.13l8.385 10.766a57.76 57.76 0 0 1-5.941-.318"/></clipPath><clipPath id="c" clipPathUnits="userSpaceOnUse"><path d="M35.339 391.779h12.007c8.83 54.182 47.905 60.394 54.415 61.056-33.842-2.444-61.247-28.045-66.422-61.056"/></clipPath><clipPath id="e" clipPathUnits="userSpaceOnUse"><path d="m150.362 349.634-8.391-10.758c2.023 0 4.003.104 5.957.302 6.342.715 35.526 5.901 48.997 41.589-9.558-15.39-27.189-28.422-46.563-31.133"/></clipPath><clipPath id="g" clipPathUnits="userSpaceOnUse"><path d="M202.005 400.217c-8.814-54.192-47.894-60.412-54.394-61.076 33.848 2.465 61.242 28.06 66.417 61.076z"/></clipPath></defs><g clip-path="url(#a)" transform="matrix(1.75055 0 0 -1.75055 -61.863 793.218)"><path d="M101.444 452.808c-6.342-.707-35.522-5.899-49.006-41.578 9.567 15.386 27.198 28.426 46.562 31.13l8.385 10.766a57.76 57.76 0 0 1-5.941-.318" style="fill:url(#b);stroke:none"/></g><g clip-path="url(#c)" transform="matrix(1.75055 0 0 -1.75055 -61.863 793.218)"><path d="M35.339 391.779h12.007c8.83 54.182 47.905 60.394 54.415 61.056-33.842-2.444-61.247-28.045-66.422-61.056" style="fill:url(#d);stroke:none"/></g><g clip-path="url(#e)" transform="matrix(1.75055 0 0 -1.75055 -61.863 793.218)"><path d="m150.362 349.634-8.391-10.758c2.023 0 4.003.104 5.957.302 6.342.715 35.526 5.901 48.997 41.589-9.558-15.39-27.189-28.422-46.563-31.133" style="fill:url(#f);stroke:none"/></g><g clip-path="url(#g)" transform="matrix(1.75055 0 0 -1.75055 -61.863 793.218)"><path d="M202.005 400.217c-8.814-54.192-47.894-60.412-54.394-61.076 33.848 2.465 61.242 28.06 66.417 61.076z" style="fill:url(#h);stroke:none"/></g><path d="M0 0h-23.925v-5.913h20.943c7.687 0 10.333-3.525 10.714-9.031h-31.657v-5.913H7.784v-16.63H-3.901v9.006h-11.495v-9.006h-14.485v-5.921H14.78c2.677 0 4.505 2.189 4.505 4.859v17.882C19.285-9.268 11.491 0 0 0" style="fill:#153a75;fill-opacity:1;fill-rule:nonzero;stroke:none" transform="matrix(1.75055 0 0 -1.75055 217.972 65.24)"/><path d="M0 0v-14.944h-3.649V0h-10.329v-32.484h10.329v11.627H0v-11.627h10.322V0Z" style="fill:#153a75;fill-opacity:1;fill-rule:nonzero;stroke:none" transform="matrix(1.75055 0 0 -1.75055 138.683 65.24)"/><path d="M0 0h19.005v-12.817c0-1.492-.561-2.466-2.498-2.466H10.74C2.909-15.283.302-11.645 0-5.944zm-11.131-.522c0-11.397 7.783-20.672 19.263-20.672h16.713c2.676 0 4.482 2.178 4.482 4.85V5.921h-40.458z" style="fill:#153a75;fill-opacity:1;fill-rule:nonzero;stroke:none" transform="matrix(1.75055 0 0 -1.75055 105.414 141.229)"/><path d="M0 0h11.49v11.688c0 11.398-7.788 20.667-19.268 20.667h-8.712v-5.919h5.728c7.625 0 10.276-3.454 10.688-8.896H-16.49v-5.913H0Z" style="fill:#153a75;fill-opacity:1;fill-rule:nonzero;stroke:none" transform="matrix(1.75055 0 0 -1.75055 85.929 122.106)"/><path d="M-97.014 163.832v-20.234h-19.255c8.735 3.79 15.585 10.991 19.255 20.234" style="fill:#ed1c24;fill-opacity:1;fill-rule:nonzero;stroke:none;stroke-width:1.75055" transform="translate(348.727 -78.349)"/><path d="M0 0v11.93h-6.643v-31.978h3.316A3.333 3.333 0 0 1 0-16.721v12.036h3.976c1.283 0 2.334 1.066 2.334 2.366V0Z" style="fill:#153a75;fill-opacity:1;fill-rule:nonzero;stroke:none" transform="matrix(1.75055 0 0 -1.75055 415.013 88.434)"/><path d="M0 0c1.431 1.684 1.926 4.57 1.926 7.272v4.268a4.004 4.004 0 0 1-4.017 4.009h-24.417v-4.676H-4.71V5.042c0-1.987-.308-3.912-1.468-5.042h-26.281v-4.678h15.878v-5.227h-10.751v-4.685h22.764v-11.816h3.331c1.827 0 3.306 1.507 3.306 3.321v9.152c0 2.233-1.773 4.028-3.991 4.028h-8v5.227H5.903a2.326 2.326 0 0 1 2.324 2.34V0Z" style="fill:#153a75;fill-opacity:1;fill-rule:nonzero;stroke:none" transform="matrix(1.75055 0 0 -1.75055 484.618 94.769)"/><path d="M0 0c-2.814 0-5.095 2.654-5.095 5.898 0 2.963 1.848 5.839 5.095 5.839 3.232 0 5.111-2.876 5.111-5.839C5.111 2.654 2.831 0 0 0m3.454 16.424v5.767h-6.892v-5.767h-11.061v-4.665h5.111c-1.314-1.655-2.085-3.677-2.085-5.861C-11.473.284-6.336-4.258 0-4.258c6.354 0 11.485 4.542 11.485 10.156 0 2.184-.771 4.206-2.096 5.861h3.184a2.322 2.322 0 0 1 2.335 2.323v2.342z" style="fill:#153a75;fill-opacity:1;fill-rule:nonzero;stroke:none" transform="matrix(1.75055 0 0 -1.75055 374.977 104.088)"/><path d="M0 0c-1.676-1.42-3.628-2.139-5.846-2.139-2.197 0-4.145.719-5.823 2.139-1.685 1.424-2.531 3.111-2.531 5.109 0 5.148 4.78 7.638 8.354 7.638 3.576 0 8.348-2.49 8.348-7.638C2.502 3.111 1.694 1.424 0 0m8.296 18.696c1.536 2.101 1.864 5.406 1.864 8.32v5.59c0 2.214-1.811 3.998-4.018 3.998h-27.877V31.94H3.512v-6.722c0-2.056-.113-4.532-1.22-6.522h-6.823v8.384h-6.632v-8.384h-16.332v-4.7h11.801c-2.898-1.559-5.248-5.61-5.248-9.002 0-3.431 1.479-6.163 4.435-8.506 2.952-2.356 6.516-3.54 10.683-3.54 4.16 0 7.72 1.184 10.686 3.54 2.963 2.343 4.431 5.075 4.431 8.506 0 3.392-2.351 7.443-5.254 9.002h9.52a2.344 2.344 0 0 1 2.335 2.343v2.357z" style="fill:#153a75;fill-opacity:1;fill-rule:nonzero;stroke:none" transform="matrix(1.75055 0 0 -1.75055 844.268 131.628)"/><path d="M0 0v9.276h-6.642v-29.695h3.316A3.329 3.329 0 0 1 0-17.072v12.391h3.972a2.35 2.35 0 0 1 2.354 2.352V0Z" style="fill:#153a75;fill-opacity:1;fill-rule:nonzero;stroke:none" transform="matrix(1.75055 0 0 -1.75055 638.4 83.788)"/><path d="M0 0v10.952h-6.643v-41.845h3.316A3.319 3.319 0 0 1 0-27.565v22.867h3.985c1.281 0 2.335 1.057 2.335 2.358V0Z" style="fill:#153a75;fill-opacity:1;fill-rule:nonzero;stroke:none" transform="matrix(1.75055 0 0 -1.75055 936.546 86.722)"/><path d="M0 0v10.239h-6.628V.499c0-1.863.392-3.188 1.184-3.994.744-.747 2.006-1.126 3.715-1.165v-.03h22.876c.75 0 1.352.247 1.812.728.374.467.571 1.019.571 1.64V0Z" style="fill:#153a75;fill-opacity:1;fill-rule:nonzero;stroke:none" transform="matrix(1.75055 0 0 -1.75055 598.444 132.784)"/><path d="M0 0v8.203h-6.627V.505c0-1.871.391-3.196 1.178-3.998.744-.739 1.985-1.134 3.717-1.164v-.019h22.87c.733 0 1.351.237 1.811.729.375.454.564 1.008.564 1.633V0Z" style="fill:#153a75;fill-opacity:1;fill-rule:nonzero;stroke:none" transform="matrix(1.75055 0 0 -1.75055 377.549 132.81)"/><path d="M0 0h3.321a3.33 3.33 0 0 1 3.326 3.321v9.547a3.998 3.998 0 0 1-4.011 4.008h-18.059v-4.675H0Z" style="fill:#153a75;fill-opacity:1;fill-rule:nonzero;stroke:none" transform="matrix(1.75055 0 0 -1.75055 682.771 97.093)"/><path d="M0 0v10.952h-6.659V-7.575c-1.779-.67-4.076-1.069-6.267-1.069h-8.665V.941h-6.642v-9.585h-7.266v-4.697h22.04c2.365 0 5.001.403 6.8 1.162v-7.856h3.345c1.831 0 3.314 1.494 3.314 3.339v11.998h3.977c1.299 0 2.329 1.057 2.329 2.358V0Z" style="fill:#153a75;fill-opacity:1;fill-rule:nonzero;stroke:none" transform="matrix(1.75055 0 0 -1.75055 713.496 86.722)"/><path d="M0 0h-6.642v-8.365c0-1.864.417-3.189 1.187-3.994.739-.747 2.002-1.126 3.724-1.165v-.031h22.857c.75 0 1.364.247 1.823.729a2.61 2.61 0 0 1 .56 1.639v2.323H0Z" style="fill:#153a75;fill-opacity:1;fill-rule:nonzero;stroke:none" transform="matrix(1.75055 0 0 -1.75055 674.195 117.266)"/><path d="M0 0v-22.876c-1.775-.664-3.998-1.048-6.152-1.048h-15.023v7.374h10.942c2.455 0 3.679 1.196 3.679 3.606v8.13a3.997 3.997 0 0 1-4.009 3.992h-16.602v-4.666h13.957v-6.14h-14.621V-24.61a4.018 4.018 0 0 1 4.014-4.005h17.139c2.303 0 4.875.396 6.676 1.106v-14.336h3.314a3.329 3.329 0 0 1 3.35 3.327V0Z" style="fill:#153a75;fill-opacity:1;fill-rule:nonzero;stroke:none" transform="matrix(1.75055 0 0 -1.75055 779.111 67.55)"/><path d="M0 0v10.263h-6.665v-41.955h3.327A3.336 3.336 0 0 1 0-28.361v23.672h3.971a2.336 2.336 0 0 1 2.335 2.332V0Z" style="fill:#153a75;fill-opacity:1;fill-rule:nonzero;stroke:none" transform="matrix(1.75055 0 0 -1.75055 564.185 85.515)"/><path d="M0 0v1.204h5.85a2.336 2.336 0 0 1 2.339 2.334v2.333h-24.877V1.204h8.809V0c0-7.257-4.151-13.659-9.547-17.679l2.862-4.473c3.939 2.471 8.164 6.836 10.619 11.255 2.444-4.419 6.69-8.784 10.612-11.255l2.873 4.473C4.145-13.659 0-7.257 0 0" style="fill:#153a75;fill-opacity:1;fill-rule:nonzero;stroke:none" transform="matrix(1.75055 0 0 -1.75055 532.686 79.265)"/><path d="M0 0v5.007h-7.056V0c0-7.245-4.747-13.658-10.154-17.68l2.868-4.467c4.033 2.529 8.38 7.022 10.81 11.562 2.423-4.54 6.79-9.033 10.814-11.562l2.866 4.467C4.736-13.658 0-7.245 0 0" style="fill:#153a75;fill-opacity:1;fill-rule:nonzero;stroke:none" transform="matrix(1.75055 0 0 -1.75055 903.085 77.754)"/><path d="M0 0v-2.994c0-3.151-1.156-6.905-3.13-9.339-1.823-2.244-4.844-3.891-7.927-5l3.01-4.649c4.488 1.446 9.135 4.708 11.494 8.179 2.357-3.471 7.014-6.733 11.507-8.179l3 4.649c-3.078 1.109-6.114 2.756-7.927 5-1.964 2.434-3.13 6.188-3.13 9.339V0Z" style="fill:#153a75;fill-opacity:1;fill-rule:nonzero;stroke:none" transform="matrix(1.75055 0 0 -1.75055 592.74 68.989)"/></svg>