<svg xmlns="http://www.w3.org/2000/svg" xml:space="preserve" width="1455.152" height="200" viewBox="0 0 1455.152 200"><defs><clipPath id="a" clipPathUnits="userSpaceOnUse"><path d="M0 841.89h595.28V0H0Z"/></clipPath></defs><g clip-path="url(#a)" transform="matrix(2.5732 0 0 -2.5732 -43.917 1289.316)"><path d="M0 0v49.874h8.134V38.367h8.131v-4.634H8.134V0Zm-21.982 36.226c-1.005-1.383-1.508-3.038-1.508-4.963 0-1.927.503-3.6 1.508-5.002 1.003-1.402 2.128-2.108 3.373-2.108 1.285 0 2.421.706 3.402 2.108.983 1.402 1.474 3.075 1.474 5.002 0 1.925-.491 3.58-1.474 4.963-.981 1.392-2.117 2.084-3.402 2.084-1.245 0-2.37-.692-3.373-2.084m3.697-31.647H5.387V0h-26.201c-1.608 0-2.945.484-4.007 1.448-1.065.962-1.599 2.288-1.599 3.976v10.72h8.135zm7.691 35.296a11.103 11.103 0 0 0 3.338-3.769 9.929 9.929 0 0 0 1.235-4.843c0-3.134-1.235-5.811-3.704-8.042-2.472-2.228-5.433-3.346-8.884-3.346-3.412 0-6.364 1.118-8.854 3.346-2.489 2.231-3.73 4.908-3.73 8.042a9.75 9.75 0 0 0 1.26 4.843 11.654 11.654 0 0 0 3.314 3.769h-6.384v4.575H-22.7v5.96h8.129v-5.96h10.296v-4.575z" style="fill:#0066b3;fill-opacity:1;fill-rule:nonzero;stroke:none" transform="translate(152.291 450.644)"/><path d="M0 0h34.691v-10.959c0-1.367-.191-2.854-.573-4.464-.385-1.601-.852-2.769-1.415-3.489h7.829v-4.58H21.379v-8.011H34.57v-18.068h-8.132v13.492H-.182v4.576h13.43v8.011h-18.79v4.58h31.139c.401 1.04.664 2.249.779 3.61.124 1.37.185 2.753.185 4.158v6.567H0Z" style="fill:#0066b3;fill-opacity:1;fill-rule:nonzero;stroke:none" transform="translate(176.99 500.155)"/><path d="M0 0h8.191v-10.541h8.128v-4.64H8.191v-34.693H0Zm-26.782-32.225h8.133v-13.009h26.84v-4.64h-29.308c-1.609 0-2.953.484-4.033 1.45-1.087.962-1.632 2.289-1.632 3.974zm3.352 24.692c-1.121-1.645-1.687-3.634-1.687-5.962 0-2.326.566-4.315 1.687-5.959 1.127-1.651 2.472-2.473 4.036-2.473 1.608 0 2.973.822 4.095 2.473 1.125 1.644 1.686 3.633 1.686 5.959 0 2.328-.561 4.317-1.686 5.962-1.122 1.646-2.487 2.471-4.095 2.471-1.564 0-2.909-.825-4.036-2.471m13.855 3.286c2.729-2.55 4.093-5.633 4.093-9.248 0-3.61-1.364-6.693-4.093-9.241-2.728-2.55-6.004-3.825-9.819-3.825-3.776 0-7.026 1.275-9.754 3.825-2.735 2.548-4.096 5.631-4.096 9.241 0 3.615 1.361 6.698 4.096 9.248 2.728 2.552 5.978 3.823 9.754 3.823 3.815 0 7.091-1.271 9.819-3.823" style="fill:#0066b3;fill-opacity:1;fill-rule:nonzero;stroke:none" transform="translate(411.158 500.458)"/><path d="M0 0v-49.874h-8.131v33.609h-9.514v4.639h9.514V0Zm-27.623-45.234H-.979v-4.64h-29.176c-1.605 0-2.939.484-4.002 1.45-1.07.962-1.597 2.289-1.597 3.974v11.262h8.131zM-41.197-1.628h26.682v-4.578h-9.275v-2.952c0-4.617 1.27-8.404 3.824-11.351 2.548-2.951 5.47-4.729 8.762-5.332l-3.974-3.434c-2.527.204-5.113 1.236-7.737 3.105-2.629 1.865-4.288 3.86-4.97 5.995-.642-2.135-2.291-4.12-4.937-5.967-2.652-1.849-5.241-2.891-7.773-3.133l-3.971 3.434c3.33.603 6.262 2.397 8.79 5.391 2.528 2.987 3.795 6.754 3.795 11.292v2.952h-9.216z" style="fill:#0066b3;fill-opacity:1;fill-rule:nonzero;stroke:none" transform="translate(473.435 500.458)"/><path d="M0 0v19.274l-2.646-2.225c-2.296.318-4.532 1.504-6.718 3.55-2.188 2.048-3.507 4.117-3.946 6.206-.404-2.089-1.707-4.158-3.918-6.206-2.206-2.046-4.474-3.232-6.801-3.55l-3.735 3.129c3.048.802 5.548 2.871 7.498 6.208 1.948 3.326 2.919 7.344 2.919 12.042v5.24h-7.102v4.578h21.68v-4.578h-6.57v-5.24c0-4.375.887-8.189 2.655-11.444 1.762-3.252 3.995-5.398 6.684-6.443v29.333h7.649V36.323h4.157v13.551h7.646V0h-7.646v31.745H7.649V0Z" style="fill:#0066b3;fill-opacity:1;fill-rule:nonzero;stroke:none" transform="translate(506.802 450.584)"/><path d="M0 0h26.102v-4.64H-2.529c-1.608 0-2.943.485-4.005 1.451C-7.599-2.228-8.131-.9-8.131.784V12.47H0Zm26.961 45.234V34.693h8.13v-4.639h-8.13V-4.64h-8.13v24.76c-1.083-.568-2.369-1.04-3.852-1.421-1.487-.379-3.073-.568-4.759-.568H-6.586c-1.728 0-3.096.48-4.093 1.443-1.007.962-1.507 2.248-1.507 3.856v20.176h24.755v-4.578H-4.057V22.766h14.761c1.641 0 3.159.108 4.542.33 1.386.22 2.582.512 3.585.874v21.264z" style="fill:#0066b3;fill-opacity:1;fill-rule:nonzero;stroke:none" transform="translate(547.479 455.224)"/><path d="M0 0v-47.139h-8.138v13.743h-9.659v4.038h9.659V0Zm-30.007-5.844c-.864-1.128-1.297-2.53-1.297-4.223 0-1.685.433-3.093 1.297-4.218.866-1.124 1.921-1.69 3.167-1.69 1.204 0 2.24.566 3.105 1.69.861 1.125 1.297 2.533 1.297 4.218 0 1.693-.436 3.095-1.297 4.223-.865 1.125-1.901 1.686-3.105 1.686-1.246 0-2.301-.561-3.167-1.686m3.276-39.428H0v-4.64h-29.201c-1.61 0-2.957.48-4.04 1.443-1.086.969-1.629 2.293-1.629 3.981v8.259h8.139zm8.57 42.501c2.371-2.01 3.558-4.442 3.558-7.296 0-2.851-1.187-5.273-3.558-7.262-2.369-1.989-5.266-2.984-8.679-2.984-3.414 0-6.319.995-8.712 2.984-2.393 1.989-3.587 4.411-3.587 7.262 0 2.854 1.194 5.286 3.587 7.296C-33.159-.761-30.254.246-26.84.246c3.413 0 6.31-1.007 8.679-3.017m10.674-19.29v-4.341h-15.377v-7.356h-8.134v7.356h-11.095v4.341z" style="fill:#0066b3;fill-opacity:1;fill-rule:nonzero;stroke:none" transform="translate(267.116 500.531)"/><path d="M0 0h8.08v-12.476l8.141.058v-4.637H8.08v-32.857H0Zm-31.83-6.265v4.64h27.129v-4.64l-9.404.058v-4.882c0-4.744 1.274-8.802 3.825-12.18 2.554-3.375 5.478-5.382 8.775-6.026l-3.979-3.497c-2.614.199-5.226 1.327-7.838 3.373-2.615 2.049-4.262 4.2-4.944 6.453-.562-2.253-2.159-4.394-4.793-6.42-2.631-2.028-5.255-3.166-7.869-3.406l-4.036 3.497c3.334.644 6.27 2.651 8.798 6.026 2.536 3.378 3.799 7.436 3.799 12.18v4.882z" style="fill:#0066b3;fill-opacity:1;fill-rule:nonzero;stroke:none" transform="translate(307.867 500.531)"/><path d="M0 0v-28.815h-8.14v7.716h-7.353v4.582h7.353v5.187h-7.353v4.581h7.353V0Zm-8.14-36.892h-28.572v4.643H0v-17.663h-8.14zm-17.12 24.656v6.574h-15.733v4.581h23.873v-15.738h-15.194v-6.568h18.207v-4.582h-20.739c-1.727 0-3.095.481-4.097 1.447-1.004.962-1.508 2.25-1.508 3.859v10.427z" style="fill:#0066b3;fill-opacity:1;fill-rule:nonzero;stroke:none" transform="translate(369.9 500.531)"/><path d="M0 0h3.561v-7.033h.049c.352.616.73 1.183 1.107 1.75L8.305 0h4.439L7.482-6.771 13-15.903H8.823L4.907-9.036l-1.346-1.678v-5.189H0Z" style="fill:#0066b3;fill-opacity:1;fill-rule:nonzero;stroke:none" transform="translate(125.96 440.196)"/><path d="M0 0c0-3.14 1.461-5.332 3.87-5.332 2.43 0 3.823 2.31 3.823 5.404 0 2.875-1.346 5.33-3.823 5.33C1.414 5.402 0 3.095 0 0m11.491.188c0-5.237-3.138-8.376-7.811-8.376-4.696 0-7.481 3.563-7.481 8.116 0 4.771 3.069 8.333 7.742 8.333 4.885 0 7.55-3.657 7.55-8.073" style="fill:#0066b3;fill-opacity:1;fill-rule:nonzero;stroke:none" transform="translate(142.267 432.222)"/><path d="M0 0h1.417C3.21 0 4.272.896 4.272 2.287c0 1.439-.991 2.192-2.643 2.192C.756 4.479.26 4.436 0 4.362Zm-3.563 6.841c1.158.19 2.855.331 4.79.331 2.357 0 4.013-.352 5.147-1.251.965-.755 1.485-1.887 1.485-3.351 0-2.006-1.44-3.399-2.807-3.893v-.071c1.109-.448 1.72-1.488 2.123-2.95.495-1.817.968-3.895 1.272-4.508h-3.68c-.235.472-.638 1.748-1.085 3.707-.45 2.005-1.134 2.524-2.619 2.547H0v-6.254h-3.563z" style="fill:#0066b3;fill-opacity:1;fill-rule:nonzero;stroke:none" transform="translate(159.21 433.144)"/><path d="M0 0h-5.848v-3.779H.689v-2.948H-9.436V9.177H.355V6.228h-6.203V2.927H0Z" style="fill:#0066b3;fill-opacity:1;fill-rule:nonzero;stroke:none" transform="translate(178.63 431.02)"/><path d="m0 0-.989 3.378c-.283.942-.564 2.123-.803 3.064h-.045c-.239-.941-.476-2.145-.734-3.064L-3.517 0Zm-4.035-2.688-1.131-4.083h-3.708l4.839 15.903H.687L5.645-6.771H1.749L.521-2.688z" style="fill:#0066b3;fill-opacity:1;fill-rule:nonzero;stroke:none" transform="translate(189.038 431.065)"/><path d="M0 0h9.7v-2.949H3.586v-3.634H9.3v-2.929H3.586v-6.391H0Z" style="fill:#0066b3;fill-opacity:1;fill-rule:nonzero;stroke:none" transform="translate(205.199 440.196)"/><path d="M0 0c0-3.14 1.466-5.332 3.875-5.332 2.43 0 3.818 2.31 3.818 5.404 0 2.875-1.341 5.33-3.818 5.33C1.418 5.402 0 3.095 0 0m11.495.188c0-5.237-3.141-8.376-7.813-8.376-4.695 0-7.482 3.563-7.482 8.116 0 4.771 3.071 8.333 7.743 8.333 4.885 0 7.552-3.657 7.552-8.073" style="fill:#0066b3;fill-opacity:1;fill-rule:nonzero;stroke:none" transform="translate(220.207 432.222)"/><path d="M0 0v-9.132c0-2.76 1.06-4.154 2.882-4.154 1.886 0 2.921 1.324 2.921 4.154V0h3.589v-8.917c0-4.908-2.477-7.246-6.632-7.246-4.011 0-6.347 2.242-6.347 7.291V0Z" style="fill:#0066b3;fill-opacity:1;fill-rule:nonzero;stroke:none" transform="translate(237.177 440.196)"/><path d="M0 0v15.903h4.201l3.305-5.826c.943-1.675 1.863-3.657 2.595-5.452h.046c-.212 2.102-.283 4.245-.283 6.656v4.622h3.305V0H9.395l-3.4 6.134c-.945 1.701-2.006 3.754-2.759 5.621h-.097c.12-2.125.164-4.367.164-6.966V0Z" style="fill:#0066b3;fill-opacity:1;fill-rule:nonzero;stroke:none" transform="translate(249.211 424.293)"/><path d="M0 0c.305-.072.827-.072 1.252-.072 3.279-.027 5.429 1.768 5.429 5.568 0 3.306-1.938 5.054-5.053 5.054-.776 0-1.323-.072-1.628-.146Zm-3.587 12.956c1.321.211 3.045.352 4.839.352 3.045 0 5.025-.568 6.534-1.7 1.652-1.227 2.693-3.185 2.693-5.992 0-3.046-1.112-5.147-2.621-6.443C6.184-2.224 3.612-2.882.498-2.882c-1.868 0-3.215.119-4.085.236z" style="fill:#0066b3;fill-opacity:1;fill-rule:nonzero;stroke:none" transform="translate(268.61 427.009)"/><path d="m0 0-.989 3.378c-.283.942-.57 2.123-.804 3.064h-.049c-.234-.941-.469-2.145-.728-3.064L-3.516 0Zm-4.033-2.688-1.133-4.083h-3.707l4.84 15.903H.684L5.638-6.771H1.746L.52-2.688Z" style="fill:#0066b3;fill-opacity:1;fill-rule:nonzero;stroke:none" transform="translate(288.34 431.065)"/><path d="M0 0h-4.295v3.018H7.93V0H3.586v-12.886H0Z" style="fill:#0066b3;fill-opacity:1;fill-rule:nonzero;stroke:none" transform="translate(296.742 437.179)"/><path d="M309.717 424.293h-3.588v15.903h3.588z" style="fill:#0066b3;fill-opacity:1;fill-rule:nonzero;stroke:none"/><path d="M0 0c0-3.14 1.465-5.332 3.871-5.332 2.432 0 3.822 2.31 3.822 5.404 0 2.875-1.343 5.33-3.822 5.33C1.416 5.402 0 3.095 0 0m11.492.188c0-5.237-3.137-8.376-7.81-8.376-4.694 0-7.481 3.563-7.481 8.116 0 4.771 3.07 8.333 7.74 8.333 4.887 0 7.551-3.657 7.551-8.073" style="fill:#0066b3;fill-opacity:1;fill-rule:nonzero;stroke:none" transform="translate(315.43 432.222)"/><path d="M0 0v15.903h4.203l3.299-5.826c.947-1.675 1.869-3.657 2.6-5.452h.046c-.21 2.102-.281 4.245-.281 6.656v4.622h3.303V0H9.395L5.994 6.134c-.941 1.701-2.004 3.754-2.76 5.621h-.097c.121-2.125.168-4.367.168-6.966V0Z" style="fill:#0066b3;fill-opacity:1;fill-rule:nonzero;stroke:none" transform="translate(328.81 424.293)"/><path d="M0 0c0-3.14 1.463-5.332 3.869-5.332 2.43 0 3.822 2.31 3.822 5.404 0 2.875-1.347 5.33-3.822 5.33C1.416 5.402 0 3.095 0 0m11.494.188c0-5.237-3.142-8.376-7.812-8.376-4.698 0-7.481 3.563-7.481 8.116 0 4.771 3.067 8.333 7.738 8.333 4.885 0 7.555-3.657 7.555-8.073" style="fill:#0066b3;fill-opacity:1;fill-rule:nonzero;stroke:none" transform="translate(356.559 432.222)"/><path d="M0 0h9.705v-2.949H3.59v-3.634h5.709v-2.929H3.59v-6.391H0Z" style="fill:#0066b3;fill-opacity:1;fill-rule:nonzero;stroke:none" transform="translate(369.96 440.196)"/><path d="M0 0v15.903h4.201l3.303-5.826c.941-1.675 1.863-3.657 2.598-5.452h.044c-.21 2.102-.283 4.245-.283 6.656v4.622h3.303V0H9.391L5.99 6.134c-.943 1.701-2.002 3.754-2.76 5.621h-.093c.121-2.125.166-4.367.166-6.966V0Z" style="fill:#0066b3;fill-opacity:1;fill-rule:nonzero;stroke:none" transform="translate(390.775 424.293)"/><path d="M0 0v-9.132c0-2.76 1.063-4.154 2.881-4.154 1.887 0 2.928 1.324 2.928 4.154V0h3.584v-8.917c0-4.908-2.477-7.246-6.633-7.246-4.012 0-6.348 2.242-6.348 7.291V0Z" style="fill:#0066b3;fill-opacity:1;fill-rule:nonzero;stroke:none" transform="translate(410.172 440.196)"/><path d="M0 0c-.635-.307-2.148-.687-4.061-.687-5.496 0-8.328 3.445-8.328 7.978 0 5.429 3.871 8.423 8.684 8.423 1.867 0 3.281-.355 3.916-.705l-.752-2.835c-.705.308-1.725.593-3.022.593-2.833 0-5.054-1.723-5.054-5.265 0-3.187 1.89-5.191 5.078-5.191 1.107 0 2.293.21 3.021.519z" style="fill:#0066b3;fill-opacity:1;fill-rule:nonzero;stroke:none" transform="translate(433.865 424.72)"/><path d="M0 0h3.588v-12.883h6.318v-3.02H0Z" style="fill:#0066b3;fill-opacity:1;fill-rule:nonzero;stroke:none" transform="translate(435.8 440.196)"/><path d="M0 0h-5.852v-3.779H.686v-2.948H-9.438V9.177H.357V6.228h-6.209V2.927H0Z" style="fill:#0066b3;fill-opacity:1;fill-rule:nonzero;stroke:none" transform="translate(456.826 431.02)"/><path d="m0 0-.99 3.378c-.289.942-.569 2.123-.807 3.064h-.045c-.234-.941-.472-2.145-.732-3.064L-3.518 0Zm-4.035-2.688-1.133-4.083h-3.705l4.838 15.903H.684L5.639-6.771H1.746L.518-2.688z" style="fill:#0066b3;fill-opacity:1;fill-rule:nonzero;stroke:none" transform="translate(467.236 431.065)"/><path d="M0 0h1.414c1.797 0 2.857.896 2.857 2.287 0 1.439-.99 2.192-2.642 2.192-.873 0-1.367-.043-1.629-.117Zm-3.561 6.841c1.153.19 2.854.331 4.79.331 2.359 0 4.011-.352 5.144-1.251.971-.755 1.486-1.887 1.486-3.351 0-2.006-1.439-3.399-2.806-3.893v-.071c1.105-.448 1.72-1.488 2.121-2.95.498-1.817.971-3.895 1.275-4.508H4.766c-.231.472-.633 1.748-1.084 3.707-.45 2.005-1.135 2.524-2.619 2.547H0v-6.254h-3.561z" style="fill:#0066b3;fill-opacity:1;fill-rule:nonzero;stroke:none" transform="translate(478.066 433.144)"/><path d="M0 0c.951-.499 2.457-.991 3.992-.991 1.654 0 2.526.681 2.526 1.721 0 .992-.754 1.556-2.668 2.219C1.205 3.892-.539 5.355-.539 7.67c0 2.711 2.287 4.764 6.018 4.764 1.818 0 3.109-.355 4.06-.804l-.805-2.875a7.477 7.477 0 0 1-3.306.752c-1.553 0-2.309-.731-2.309-1.534 0-1.013.873-1.462 2.947-2.243 2.811-1.035 4.108-2.5 4.108-4.742 0-2.664-2.031-4.928-6.399-4.928-1.818 0-3.609.491-4.504.988z" style="fill:#0066b3;fill-opacity:1;fill-rule:nonzero;stroke:none" transform="translate(497.01 428)"/><path d="m0 0-.994 3.378c-.279.942-.563 2.123-.803 3.064h-.043c-.24-.941-.474-2.145-.734-3.064L-3.521 0Zm-4.039-2.688-1.129-4.083h-3.703l4.832 15.903H.686L5.641-6.771H1.746L.518-2.688z" style="fill:#0066b3;fill-opacity:1;fill-rule:nonzero;stroke:none" transform="translate(516.906 431.065)"/><path d="M0 0h9.693v-2.949H3.586v-3.634h5.711v-2.929H3.586v-6.391H0Z" style="fill:#0066b3;fill-opacity:1;fill-rule:nonzero;stroke:none" transform="translate(524.201 440.196)"/><path d="M0 0h-5.852v-3.779H.686v-2.948H-9.438V9.177h9.79V6.228h-6.204V2.927H0Z" style="fill:#0066b3;fill-opacity:1;fill-rule:nonzero;stroke:none" transform="translate(545.604 431.02)"/><path d="M0 0h-4.299v3.018H7.93V0H3.586v-12.886H0Z" style="fill:#0066b3;fill-opacity:1;fill-rule:nonzero;stroke:none" transform="translate(551.48 437.179)"/><path d="M0 0v6.511l-5.023 9.392h4.128l1.608-3.821c.494-1.154.85-2.005 1.223-3.045h.048c.352.993.731 1.914 1.202 3.045l1.607 3.821h4.035l-5.24-9.272V0Z" style="fill:#0066b3;fill-opacity:1;fill-rule:nonzero;stroke:none" transform="translate(564.691 424.293)"/><path d="M0 0v11.845c-.001 10.642-4.308 20.257-11.281 27.23-6.974 6.976-16.59 11.279-27.231 11.28-10.642-.001-20.257-4.304-27.233-11.28-6.97-6.973-11.276-16.588-11.277-27.23V0h-4.206v11.845c.002 23.592 19.124 42.714 42.716 42.715 23.592-.001 42.714-19.123 42.715-42.715V0Z" style="fill:#0066b3;fill-opacity:1;fill-rule:nonzero;stroke:none" transform="translate(98.295 446.495)"/><path d="M0 0c-18.286-.001-33.107-14.82-33.109-33.108v-11.717h1.964v11.204C-31.143-16.137-17.2-1.967 0-1.965c17.201-.002 31.142-14.172 31.145-31.656v-11.204h1.962v11.717C33.106-14.82 18.286-.001 0 0" style="fill:#0066b3;fill-opacity:1;fill-rule:nonzero;stroke:none" transform="translate(59.783 491.32)"/><path d="M0 0c.002 6.065 11.255 11.042 25.603 11.563l2.974.041c5.957-.041 11.461-.846 15.962-2.19l.674-.209c6.682-2.124 10.992-5.459 10.992-9.21-.001-4.089-5.117-7.679-12.843-9.749 6.261 1.927 10.322 5.011 10.321 8.482.001 3.153-3.34 5.979-8.631 7.918l-.51.181c-4.445 1.545-10.179 2.476-16.438 2.476-.405.001-.807-.006-1.208-.014l-2.868-.122C13.562 8.477 5.215 5.161 3.064.905 2.849.439 1.177-3.704 9.189-7.428c3.105-1.442 5.385-2.11 6.68-2.41l-.159-.623c-.942.142-1.326.254-2.867.708 0 0-.121.032-.329.092C4.974-7.576 0-4.028 0 0" style="fill:#bfd73b;fill-opacity:1;fill-rule:nonzero;stroke:none" transform="translate(31.68 458.05)"/><path d="M0 0a3.642 3.642 0 0 1-4.966-1.375 3.64 3.64 0 0 1 1.374-4.964A3.643 3.643 0 1 1 0 0" style="fill:#0066b3;fill-opacity:1;fill-rule:nonzero;stroke:none" transform="translate(64.273 456.493)"/><path d="M0 0c-.06.44-.149.845-.256 1.227-.014.054-.024.108-.039.161l-.012.019c-.401 1.312-1.089 2.256-2.097 2.73C-5.205 5.45-9.79 2.875-14.622-2.178l-.482-.512c-3.192-3.437-6.468-7.931-9.392-13.082l-1.415-2.599c-2.073-3.977-3.665-7.842-4.735-11.339h2.14c.834 2.825 2.045 5.923 3.619 9.135l1.301 2.529c.19.352.381.703.578 1.054 3.043 5.434 6.523 10.081 9.837 13.399l.383.377C-11.33-1.794-9.91-.643-8.579.202c1.2.745 3.218 1.776 4.956 1.573.124-.016.243-.046.362-.076C-.199.805.934-6.768-3.986-16.321c0 0 5.24 8.544 3.986 16.321" style="fill:#0066b3;fill-opacity:1;fill-rule:nonzero;stroke:none" transform="translate(75.593 476.205)"/><path d="M0 0c-2.252 0-2.28-1.568-2.28-1.568v-12.433h1.837c1.804 0 1.833 1.511 1.833 1.541V0Z" style="fill:#0066b3;fill-opacity:1;fill-rule:nonzero;stroke:none" transform="translate(19.348 440.216)"/><path d="M0 0h-2.707S-8.18 8.588-8.771 9.502V1.531C-8.771 1.5-8.798 0-10.593 0h-1.765v13.886h4.59s5.354-8.676 5.941-9.622v8.092s.03 1.561 2.267 1.561h1.381V1.531C1.821 1.5 1.793 0 0 0" style="fill:#0066b3;fill-opacity:1;fill-rule:nonzero;stroke:none" transform="translate(85.528 426.285)"/><path d="M0 0h-2.98c-.164 0-1.415-.058-2.553-1.434L-10.142-7l4.609-5.567c1.138-1.375 2.389-1.432 2.553-1.434H0L-5.793-7Z" style="fill:#0066b3;fill-opacity:1;fill-rule:nonzero;stroke:none" transform="translate(31.126 440.216)"/><path d="M0 0c-.558-.879-1.528-1.32-2.885-1.32-1.616 0-2.705.441-3.293 1.32-.41.678-.619 1.708-.619 3.123 0 1.232.267 2.234.795 2.97.648.914 1.62 1.354 2.884 1.354 1.295 0 2.238-.384 2.883-1.207.589-.765.882-1.763.882-3.059C.647 1.799.412.71 0 0m-3.087 10.243c-2.474 0-4.387-.647-5.621-1.974-1.146-1.174-1.766-2.881-1.766-4.997 0-2.618.677-4.535 2.002-5.741 1.177-1.086 3.058-1.647 5.5-1.647 2.238 0 3.942.472 5.119 1.415C3.591-1.557 4.324.385 4.324 3.063c0 2.383-.528 4.145-1.527 5.268-1.15 1.265-3.119 1.912-5.884 1.912" style="fill:#0066b3;fill-opacity:1;fill-rule:nonzero;stroke:none" transform="translate(67.299 430.164)"/><path d="M0 0c-.37-.584-1.015-.876-1.914-.876-1.074 0-1.797.292-2.189.876-.27.45-.411 1.135-.411 2.074 0 .819.178 1.484.529 1.972.43.607 1.075.9 1.915.9.86 0 1.486-.256 1.915-.801.391-.509.586-1.172.586-2.033C.431 1.194.274.472 0 0m2.264 5.896c-.842.928-2.287 1.403-4.315 1.403-1.813 0-3.216-.475-4.122-1.446-.84-.862-1.293-2.115-1.293-3.665 0-1.92.495-3.326 1.468-4.21.863-.796 2.241-1.208 4.032-1.208 1.641 0 2.891.346 3.755 1.038 1.059.839 1.596 2.263 1.596 4.226 0 1.749-.388 3.04-1.121 3.862" style="fill:#0066b3;fill-opacity:1;fill-rule:nonzero;stroke:none" transform="translate(38.444 429.278)"/><path d="M0 0c-1.279.003-2.308-.364-3.067-1.107-.762-.731-1.139-1.75-1.138-3.02v-9.759h2.631s1.168.007 1.168 1.168v4.101l6.618.003.101.002c.843-.008 1.324.414 1.337 1.275l.004.037.001 1.266H-.406v1.907c.002.47.147.834.422 1.105.283.289.668.441 1.198.441h6.194l.103.003c.841-.006 1.322.414 1.336 1.275l.005.038L8.853 0Z" style="fill:#0066b3;fill-opacity:1;fill-rule:nonzero;stroke:none" transform="translate(47.533 440.17)"/><path d="M0 0h-.435" style="fill:none;stroke:#0066b3;stroke-width:.75;stroke-linecap:round;stroke-linejoin:round;stroke-miterlimit:4;stroke-dasharray:none;stroke-opacity:1" transform="translate(49.182 437.59)"/><path d="M0 0c-.76.737-1.799 1.102-3.072 1.102h-4.206c-.534.002-.916.144-1.198.429-.273.273-.421.648-.422 1.114.001.469.148.835.421 1.108.285.289.666.437 1.199.437h5.901c1.259 0 1.338 1.339 1.338 1.339v1.243h-8.453c-1.279.003-2.309-.364-3.069-1.106-.76-.731-1.136-1.75-1.135-3.021-.001-1.272.375-2.289 1.135-3.029.76-.735 1.79-1.101 3.069-1.1h4.236c.51-.001.884-.141 1.162-.419.284-.284.422-.648.422-1.118 0-.476-.138-.839-.422-1.132-.28-.287-.656-.437-1.162-.438h-6.35c-1.465 0-1.461-1.577-1.461-1.577v-.977H-3.065c1.268 0 2.306.356 3.066 1.101.762.731 1.137 1.747 1.134 3.023C1.138-1.751.763-.733 0 0" style="fill:#0066b3;fill-opacity:1;fill-rule:nonzero;stroke:none" transform="translate(101.493 433.43)"/><path d="M0 0c0-.326-14.718-.59-32.874-.59-18.155 0-32.873.264-32.873.59 0 .324 14.718.589 32.873.589C-14.718.589 0 .324 0 0" style="fill:#bfd73b;fill-opacity:1;fill-rule:nonzero;stroke:none" transform="translate(105.49 423.92)"/></g></svg>