<svg xmlns="http://www.w3.org/2000/svg" width="1147.7264mm" height="300mm" viewBox="0 0 1147.7264 300"><path d="M-103.256 235.1c-.237 1.025-.985 2.347-.985 2.347a50.116 50.116 0 0 1-20.151 20.153s-1.323.748-2.344.982c-1.026-.234-2.34-.982-2.34-.982a48.741 48.741 0 0 1-14.896-12.525h5.427a47.808 47.808 0 0 0 10.239 8.344s1.1.671 1.57.801c.47-.13 1.565-.801 1.565-.801a50.085 50.085 0 0 0 16.75-16.75s.677-1.096.8-1.57c-.123-.468-.8-1.563-.8-1.563a50.082 50.082 0 0 0-16.75-16.75s-1.095-.673-1.565-.797c-.47.124-1.57.799-1.57.799a47.708 47.708 0 0 0-10.24 8.34h-5.426a48.71 48.71 0 0 1 14.895-12.523s1.315-.746 2.341-.985c1.021.24 2.344.985 2.344.985a50.097 50.097 0 0 1 20.151 20.154s.748 1.315.985 2.34" style="fill:#80bf26;fill-opacity:1;fill-rule:nonzero;stroke:none;stroke-width:.352778" transform="matrix(6.38813 0 0 6.38813 979.51 -1351.856)"/><path d="M-120.504 243.416h4.572v-16.625h-4.572zM-139.633 226.79h-5.38a49.743 49.743 0 0 0-3.96 6.251v-6.25h-4.36v16.625h4.36v-6.255a50.386 50.386 0 0 0 3.96 6.255h5.38a49.951 49.951 0 0 1-5.836-8.316 49.935 49.935 0 0 1 5.836-8.31M-137.126 243.416h4.363v-5.405h8.106v-3.738h-8.106v-3.535h8.52v-3.947h-12.883z" style="fill:#e70;fill-opacity:1;fill-rule:nonzero;stroke:none;stroke-width:.352778" transform="matrix(6.38813 0 0 6.38813 979.51 -1351.856)"/><path d="M-63.46 226.58c1.08 1.262 3.021 2.45 5.855 2.926l.385-1.642c-3.376-.636-5.163-2.519-5.163-4.14v-.91h-2.145v.91c0 1.621-1.793 3.504-5.167 4.14l.386 1.642c2.834-.476 4.775-1.664 5.85-2.925m1.038 3.632h-2.075v4.566h-5.364v1.751h12.803v-1.75h-5.364zm19.664-4.936h-1.936v-2.464h-2.021v7.221h2.021v-3.045h1.936zm4.262 2.29c.674 1.144 1.759 2.23 3.434 3.076l.883-1.617c-2.567-1.29-3.195-3.324-3.227-4.918v-1.295h-2.18v1.295c-.035 1.594-.657 3.628-3.23 4.918l.885 1.617c1.675-.846 2.759-1.932 3.435-3.077m.262 4.272h-2.025v5.41h9.734v-1.71h-7.709zm20.849 3.7h-5.51v-1.896h5.51zm0-3.566h-5.51v-1.343h-2.021v6.619h9.552v-6.619h-2.021zm-31.693 4.29c-1.257 0-2.276-.93-2.276-2.075 0-1.15 1.02-2.08 2.276-2.08 1.256 0 2.273.93 2.273 2.08 0 1.145-1.017 2.074-2.273 2.074m0-5.868c-2.376 0-4.296 1.435-4.296 3.791 0 2.36 1.92 3.793 4.296 3.793 2.373 0 4.296-1.434 4.296-3.793 0-2.356-1.923-3.791-4.296-3.791m35.97-5.504h4.772v.146c0 2.656-1.174 5.08-5.316 6.44l.56 1.679c3.77-1.209 6.808-3.557 6.808-8.2v-1.78h-6.824zm-17.597-2.076h-2.023v10.291h2.023v-5.756h1.934v-1.718h-1.934zm26.53 14.62h2.025v-14.62h-2.025Zm-21.441-11.324c0-1.074.684-1.943 1.77-1.943 1.082 0 1.772.869 1.772 1.943 0 1.073-.69 1.94-1.771 1.94-1.087 0-1.771-.867-1.771-1.94m5.56 0c0-2.31-1.698-3.656-3.79-3.656-2.091 0-3.79 1.345-3.79 3.656 0 2.306 1.699 3.653 3.79 3.653 2.092 0 3.79-1.347 3.79-3.653m-52.54-3.058h-10.361v1.716h8.341v3.281h-9.333v1.714h5.051v2.165h-4.282v1.715h8.772v3.79h2.02v-5.505h-4.421v-2.165h5.244v-1.714h-1.03zm-23.37 4.15c0-1.032.71-1.87 1.589-1.87.876 0 1.584.838 1.584 1.87 0 1.033-.708 1.868-1.584 1.868-.878 0-1.59-.835-1.59-1.868m5.2 0c0-.912-.27-1.585-.725-2.065h1.128v-1.67h-2.972v-1.376h-2.077v1.377h-2.977v1.67h1.13c-.455.479-.725 1.152-.725 2.064 0 2.226 1.614 3.58 3.61 3.58 1.994 0 3.609-1.354 3.609-3.58m-3.599 4.637h-2.023v5.41h9.73v-1.71h-7.707zm100.66-7.176c.858.912 2.424 1.851 5.188 2.27l.483-1.6c-3.146-.416-4.563-2.03-4.563-2.684v-.105H5.188v.105c0 .654-1.416 2.268-4.566 2.684l.486 1.6c2.765-.419 4.328-1.358 5.189-2.27m10.664 1.047c0-.956.751-1.73 1.686-1.73.93 0 1.689.774 1.689 1.73 0 .955-.759 1.73-1.689 1.73-.935 0-1.686-.775-1.686-1.73m1.212 9.841v-2.984h1.88v-2.453h4.075v1.508H21.7v1.667h2.43v1.226h2.022v-11.7h-2.023v5.63h-3.383c.936-.511 1.542-1.42 1.542-2.732 0-2.151-1.631-3.402-3.64-3.402-2.014 0-3.643 1.25-3.643 3.402 0 1.313.61 2.221 1.541 2.731h-2.311v1.67h3.746v1.82h-1.83v5.315h10.183v-1.698zm-18.49-6.084H5.26v.92H.973v1.673h8.663v.863H.973v4.326h10.74v-1.664h-8.72v-1.039h8.628v-4.16H7.334v-.92h5.575v-1.674H-.316Zm-86.521-6.653h-2.02v10.291h2.02v-5.756h1.934v-1.718h-1.934zm36.175 5.146h-3.071v-1.95h3.07zm2.025-5.072h-2.025v1.45h-3.071v-1.45h-2.02v6.786h7.116zm31.254 2.386h-1.986v1.673h1.986v2.873h2.02v-7.006h-2.02zM-96.7 240.52h1.099v2.35l1.972-2.35h1.346l-2.246 2.58 2.343 2.89h-1.434l-1.968-2.538h-.013v2.538H-96.7zM-86.913 245.488c.86 0 1.245-.781 1.245-1.495 0-.761-.46-1.5-1.245-1.5-.791 0-1.255.739-1.255 1.5 0 .714.384 1.495 1.255 1.495m0-3.588c1.215 0 2.028.876 2.028 2.093 0 1.14-.83 2.09-2.028 2.09-1.209 0-2.038-.95-2.038-2.09 0-1.217.815-2.093 2.038-2.093M-81.1 241.992h.69v.622h.016c.197-.416.619-.714 1.041-.714.22 0 .329.023.488.055v.659a1.087 1.087 0 0 0-.408-.07c-.659 0-1.092.624-1.092 1.628v1.818h-.735zM-72.67 243.608c0-.613-.36-1.115-.995-1.115-.72 0-1.018.599-1.074 1.115zm.48 2.217c-.283.101-.604.259-1.263.259-1.419 0-2.069-.862-2.069-2.163 0-1.183.745-2.021 1.872-2.021 1.333 0 1.764.97 1.764 2.26h-2.853c0 .787.62 1.328 1.318 1.328.485 0 1.05-.25 1.23-.4zM-65.727 244.085c-.158 0-.313-.016-.471-.016-.399 0-1.386.063-1.386.769 0 .422.408.65.744.65.73 0 1.113-.455 1.113-1.05zm-2.184-1.81a2.541 2.541 0 0 1 1.314-.375c1.144 0 1.607.563 1.607 1.651v1.657c0 .45.014.663.031.782h-.689v-.518h-.017c-.172.246-.563.611-1.236.611-.862 0-1.466-.376-1.466-1.245 0-1.005 1.096-1.318 1.858-1.318.287 0 .493 0 .782.016 0-.687-.248-1.043-.987-1.043-.416 0-.863.159-1.16.41zM-55.965 240.52h3.04v.862h-1.941v1.349h1.849v.863h-1.849v2.396h-1.099zM-49.165 245.99h.739v-3.998h-.739zm.784-5.72h-.83v.83h.83zM-44.282 245.99h.737v-1.818c0-1.004.429-1.628 1.09-1.628.125 0 .273.014.408.07v-.66c-.16-.031-.269-.054-.488-.054-.423 0-.845.298-1.041.714h-.016v-.622h-.69zM-35.85 243.608c0-.613-.36-1.115-.996-1.115-.721 0-1.02.599-1.073 1.115zm.477 2.217c-.283.101-.602.259-1.26.259-1.42 0-2.07-.862-2.07-2.163 0-1.183.745-2.021 1.87-2.021 1.334 0 1.765.97 1.765 2.26h-2.851c0 .787.62 1.328 1.318 1.328.484 0 1.05-.25 1.228-.4zM-26.393 240.52h1.095v5.47h-1.095zM-21.332 241.992h.714v.638h.014c.22-.456.754-.73 1.308-.73 1.036 0 1.5.644 1.5 1.716v2.374h-.74v-2.07c0-.932-.202-1.386-.845-1.427-.84 0-1.214.675-1.214 1.649v1.848h-.737zM-14.085 245.864c.338.182.72.22 1.097.22.713 0 1.395-.395 1.395-1.246 0-1.278-1.73-1.043-1.73-1.857 0-.33.328-.488.704-.488.173 0 .613.105.775.204l.062-.64a2.973 2.973 0 0 0-.914-.157c-.792 0-1.412.4-1.412 1.231 0 1.118 1.733 1.057 1.733 1.785 0 .43-.417.572-.754.572-.21 0-.626-.093-.917-.28zM-5.78 242.59h-1.058v2.185c0 .463.284.713.622.713.225 0 .39-.07.5-.142v.628c-.163.046-.392.11-.627.11-.76 0-1.23-.36-1.23-1.159v-2.335h-.901v-.598h.901v-.923l.735-.235v1.158h1.058zM-1.964 241.992h.738v3.998h-.738zm.784-.892h-.83v-.83h.83zM5.04 241.992H3.984v-1.158l-.735.235v.923h-.9v.598h.9v2.335c0 .798.47 1.159 1.23 1.159.235 0 .464-.064.626-.11v-.628a.902.902 0 0 1-.502.142c-.338 0-.619-.25-.619-.713v-2.185h1.058zM12.296 245.99h-.712v-.634h-.015c-.22.452-.751.728-1.308.728-1.034 0-1.499-.644-1.499-1.717v-2.375H9.5v2.07c0 .934.203 1.386.847 1.426.838 0 1.213-.673 1.213-1.646v-1.85h.736zM18.472 242.59h-1.06v2.185c0 .463.284.713.62.713.227 0 .391-.07.502-.142v.628c-.163.046-.392.11-.627.11-.76 0-1.23-.36-1.23-1.159v-2.335h-.9v-.598h.9v-.923l.734-.235v1.158h1.061zM24.778 243.608c0-.613-.36-1.115-.995-1.115-.72 0-1.018.599-1.072 1.115zm.48 2.217c-.283.101-.604.259-1.264.259-1.418 0-2.067-.862-2.067-2.163 0-1.183.745-2.021 1.872-2.021 1.333 0 1.764.97 1.764 2.26H22.71c0 .787.619 1.328 1.315 1.328.486 0 1.05-.25 1.233-.4z" style="fill:#7d7d7d;fill-opacity:1;fill-rule:nonzero;stroke:none;stroke-width:.352778" transform="matrix(6.38813 0 0 6.38813 979.51 -1351.856)"/></svg>