<svg xmlns="http://www.w3.org/2000/svg" xmlns:xlink="http://www.w3.org/1999/xlink" width="327.22" height="45.28" viewBox="260.27704511955034 454.1952475795259 331.21952067037006 49.276552796237524"><defs><path id="a" d="M279.39 480.04h-18.11c7.71.49 7.83 5.5 7.83 5.5v13.71h16.27v-13.71c0-5.5-5.99-5.5-5.99-5.5"/><path id="b" d="M394.05 488.48c-1.35 0-2.45-.12-3.55-.37-5.63-1.1-8.08-5.99-9.79-7.34-1.35-.98-4.4-.73-5.51-.73-1.13 0-6.8.05-17.01.12h.86c1.59.24 6.36.98 7.71 4.65 0 .25.12.49.24.73v.13c3.31 9.91 12.85 14.8 24.11 14.8 4.16 0 8.81-.85 11.87-1.71-.04-1.2-.33-10.79-.37-11.99-3.05 1.1-5.62 1.71-8.56 1.71"/><path id="c" d="M285.38 468.53v-11.62h-16.27v11.62s-.13 4.9-7.83 5.39h17.37s6.73.24 6.73-5.39"/><path id="d" d="M296.64 473.92s5.51 0 9.18-5.39c.55-.77 3.33-4.65 8.32-11.62h-18.6c-4.85 8.07-7.54 12.56-8.08 13.46 0 0-2.08 3.3-5.75 3.55h14.93Z"/><path id="e" d="M334.33 473.92h14.69s6.24.24 4.52-5.39c-.27-.77-1.66-4.65-4.16-11.62h-22.27c-2.42 6.97-3.77 10.85-4.04 11.62 0 0-1.47 4.9-8.69 5.39h15.3s5.51.49 7.47-5.39c.05-.16.34-.98.85-2.44h.12c.52 1.46.8 2.28.86 2.44 0 0 2.33 5.02-4.65 5.39"/><path id="f" d="M365.29 473.92h12.36c1.96-.25 2.45-.25 5.26-2.7 1.6-1.83 4.04-3.67 7.71-4.4 1.1-.25 2.45-.37 3.67-.37 2.57 0 6.12.98 8.32 2.21 0-.98.37-11.26.37-11.87-1.71-.49-6.85-1.59-11.5-1.59-4.78 0-8.93.85-12.48 2.44h-.13c-1.34.61-7.22 2.82-11.13 10.53-2.7 5.5-8.2 5.75-9.55 5.75H365.29Z"/><path id="g" d="M327.97 480.04H312.3c6.86 0 5.39 3.54 5.39 3.54-.03.09-.2.49-.49 1.23l-3.92 11.38c-4.4-6.39-6.85-9.94-7.34-10.65-4.16-5.87-9.42-5.5-9.42-5.5h-14.56c3.55.73 4.77 3.42 4.77 3.42.62 1.06 3.72 6.32 9.3 15.79h32.43c2.35-8.3 3.65-12.91 3.91-13.83 0 0 .13-.36.13-.73.01-.05.1-.45.12-.49 0 0 .98-3.92-4.65-4.16"/><path id="h" d="m358.8 483.58 5.64 15.67H347.3c-2.79-9.4-4.34-14.62-4.65-15.67 0 0-1.1-3.54-7.7-3.54h16.15s6.24-.13 7.7 3.54"/><path id="i" d="M419.13 491.3h1.96v2.81l2.08-2.81h2.33l-2.69 3.3 2.93 3.79h-2.45l-2.2-3.3v3.3h-1.96v-7.09Z"/><path id="j" d="M428.19 494.84c0-1.22.49-2.32 1.59-2.32v-1.35c-2.32 0-3.55 1.35-3.55 3.67 0 2.21 1.23 3.68 3.55 3.68v-1.47c-1.1 0-1.59-1.11-1.59-2.21m1.59-2.32c1.22 0 1.59 1.1 1.59 2.32 0 1.1-.37 2.21-1.59 2.21v1.47c2.33 0 3.55-1.47 3.55-3.68 0-2.32-1.22-3.67-3.55-3.67v1.35Z"/><path id="k" d="M436.27 492.64h.97v-1.34h-2.93v7.09h1.96v-2.81h.36c.25 0 .37 0 .61.12v-1.47h-.97v-1.59Zm.97 0c.5 0 .86.25.86.74 0 .61-.36.73-.86.85v1.47c.25.12.5.49.74 1.35.02.09.15.53.37 1.34h1.96c-.37-1.17-.58-1.82-.62-1.96-.36-.85-.36-1.34-.98-1.59.86-.24 1.35-.85 1.35-1.83 0-1.23-1.1-1.71-2.32-1.71h-.5v1.34Z"/><path id="l" d="M441.16 491.3h5.02v1.34H443v1.47h2.93v1.35H443v1.59h3.3v1.34h-5.14v-7.09Z"/><path id="m" d="M450.58 495.46h-.85l.85-2.7v-1.46h-1.1l-2.69 7.09h1.96l.61-1.59h1.22v-1.34Zm.98 0h-.98v1.34h1.35l.61 1.59h2.08l-2.81-7.09h-1.23v1.46h.13l.85 2.7Z"/><path id="n" d="M461.6 495.46h-.86l.86-2.7v-1.46h-1.1l-2.7 7.09h1.96l.61-1.59h1.23v-1.34Zm.98 0h-.98v1.34h1.34l.62 1.59h2.08l-2.82-7.09h-1.22v1.46h.12l.86 2.7Z"/><path id="o" d="M466.37 491.3h1.96v7.09h-1.96v-7.09Z"/><path id="p" d="M471.51 492.64h.98v-1.34h-2.82v7.09h1.84v-2.81h.49c.12 0 .37 0 .49.12v-1.47h-.98v-1.59Zm.98 0c.49 0 .98.25.98.74 0 .61-.49.73-.98.85v1.47c.36.12.49.49.73 1.35.03.09.2.53.49 1.34h1.96c-.44-1.17-.69-1.82-.74-1.96-.36-.85-.36-1.34-.97-1.59.97-.24 1.34-.85 1.34-1.83 0-1.23-.98-1.71-2.2-1.71h-.61v1.34Z"/><path id="q" d="M478.24 492.64h.86v-1.34h-2.7v7.09h1.84v-2.57h.86v-1.34c-.13 0-.25.12-.37.12h-.49v-1.96Zm.86 0c.49.12.85.37.85.98 0 .49-.36.86-.85.86v1.34c1.71 0 2.69-.85 2.69-2.2 0-1.47-.86-2.2-2.69-2.32v1.34Z"/><path id="r" d="M484.36 494.84c0-1.22.49-2.32 1.59-2.32v-1.35c-2.33 0-3.55 1.35-3.55 3.67 0 2.21 1.22 3.68 3.55 3.68v-1.47c-1.1 0-1.59-1.11-1.59-2.21m1.59-2.32c1.22 0 1.71 1.1 1.71 2.32 0 1.1-.49 2.21-1.71 2.21v1.47c2.32 0 3.55-1.47 3.55-3.68 0-2.32-1.23-3.67-3.55-3.67v1.35Z"/><path id="s" d="M492.44 492.64h.97v-1.34h-2.81v7.09h1.84v-2.81h.36c.25 0 .49 0 .61.12v-1.47h-.97v-1.59Zm.97 0c.49 0 .98.25.98.74 0 .61-.49.73-.98.85v1.47c.25.12.49.49.74 1.35.03.09.19.53.49 1.34h1.96c-.45-1.17-.69-1.82-.74-1.96-.37-.85-.37-1.34-.98-1.59.86-.24 1.35-.85 1.35-1.83 0-1.23-.98-1.71-2.33-1.71h-.49v1.34Z"/><path id="t" d="M498.43 492.64h-1.71v-1.34h5.38v1.34h-1.83v5.75h-1.84v-5.75Z"/><path id="u" d="M502.84 496.56c.49.36 1.22.49 1.95.49.62 0 1.23-.13 1.23-.62 0-1.34-3.43-.49-3.43-3.06 0-1.71 1.71-2.2 3.18-2.2.61 0 1.35.13 1.84.25-.01.14-.11 1.32-.12 1.47-.49-.25-1.11-.37-1.59-.37-.49 0-1.35.12-1.35.73 0 1.1 3.43.37 3.43 2.94 0 1.83-1.6 2.33-3.19 2.33-.61 0-1.46-.13-2.08-.37.03-.32.1-1.27.13-1.59Z"/><path id="v" d="M518.13 498.15c-.61.12-1.22.37-2.08.37-1.95 0-4.16-.98-4.16-3.68 0-2.44 1.71-3.67 4.04-3.67.73 0 1.47.13 2.2.37-.02.15-.22 1.32-.24 1.47-.61-.25-1.1-.49-1.84-.49-1.34 0-2.2.98-2.2 2.32 0 1.35.98 2.21 2.32 2.21.74 0 1.35-.13 1.84-.37.02.29.1 1.17.12 1.47Z"/><path id="w" d="M520.7 494.84c0-1.22.37-2.32 1.59-2.32v-1.35c-2.32 0-3.55 1.35-3.55 3.67 0 2.21 1.23 3.68 3.55 3.68v-1.47c-1.22 0-1.59-1.11-1.59-2.21m1.59-2.32c1.1 0 1.6 1.1 1.6 2.32 0 1.1-.5 2.21-1.6 2.21v1.47c2.33 0 3.55-1.47 3.55-3.68 0-2.32-1.22-3.67-3.55-3.67v1.35Z"/><path id="x" d="M528.66 492.64h.98v-1.34h-2.82v7.09h1.84v-2.81h.49c.12 0 .36 0 .49.12v-1.47h-.98v-1.59Zm.98 0c.49 0 .97.25.97.74 0 .61-.48.73-.97.85v1.47c.36.12.49.49.85 1.35.03.09.15.53.37 1.34h1.96c-.44-1.17-.69-1.82-.74-1.96-.36-.85-.36-1.34-.98-1.59.98-.24 1.35-.85 1.35-1.83 0-1.23-.98-1.71-2.2-1.71h-.61v1.34Z"/><path id="y" d="M535.39 492.64h.85v-1.34H533.55v7.09h1.84v-2.57h.85v-1.34c-.12 0-.24.12-.36.12h-.49v-1.96Zm.85 0c.49.12.86.37.86.98 0 .49-.37.86-.86.86v1.34c1.72 0 2.7-.85 2.7-2.2 0-1.47-.86-2.2-2.7-2.32v1.34Z"/><path id="z" d="M541.5 494.84c0-1.22.5-2.32 1.6-2.32v-1.35c-2.33 0-3.55 1.35-3.55 3.67 0 2.21 1.22 3.68 3.55 3.68v-1.47c-1.1 0-1.6-1.11-1.6-2.21m1.6-2.32c1.22 0 1.71 1.1 1.71 2.32 0 1.1-.49 2.21-1.71 2.21v1.47c2.32 0 3.54-1.47 3.54-3.68 0-2.32-1.1-3.67-3.54-3.67v1.35Z"/><path id="A" d="M549.58 492.64h.98v-1.34h-2.81v7.09h1.83v-2.81h.37c.24 0 .49 0 .61.12v-1.47h-.98v-1.59Zm.98 0c.49 0 .98.25.98.74 0 .61-.49.73-.98.85v1.47c.25.12.49.49.73 1.35.04.09.2.53.5 1.34h1.95c-.44-1.17-.68-1.82-.73-1.96-.37-.85-.37-1.34-.98-1.59.85-.24 1.35-.85 1.35-1.83 0-1.23-.98-1.71-2.33-1.71h-.49v1.34Z"/><path id="B" d="M557.78 495.46h-.86l.86-2.7v-1.46h-1.1l-2.69 7.09h1.83l.61-1.59h1.35v-1.34Zm.86 0h-.86v1.34h1.35l.49 1.59h2.08l-2.69-7.09h-1.23v1.46l.86 2.7Z"/><path id="C" d="M562.92 492.64h-1.71v-1.34h5.38v1.34h-1.71v5.75h-1.96v-5.75Z"/><path id="D" d="M567.45 491.3h1.95v7.09h-1.95v-7.09Z"/><path id="E" d="M572.47 494.84c0-1.22.48-2.32 1.59-2.32v-1.35c-2.33 0-3.55 1.35-3.55 3.67 0 2.21 1.22 3.68 3.55 3.68v-1.47c-1.11 0-1.59-1.11-1.59-2.21m1.59-2.32c1.22 0 1.59 1.1 1.59 2.32 0 1.1-.37 2.21-1.59 2.21v1.47c2.32 0 3.54-1.47 3.54-3.68 0-2.32-1.22-3.67-3.54-3.67v1.35Z"/><path id="F" d="M578.71 491.3h2.44l2.45 4.77-.12-4.77h1.83v7.09h-2.44l-2.45-4.89v4.89h-1.71v-7.09Z"/><path id="G" d="M470.78 472.33v-2.82h-2.21c.12-.49.49-1.83.62-5.01v-3.68H447.4v2.7h17.26v2.45c0 .73-.12 2.56-.98 3.54h-17.63v2.82h9.8v3.06h-8.69V478.2h17.62v6.98h4.53v-9.79h-8.94v-3.06h10.41Z"/><path id="H" d="M487.3 473.67c-5.51 0-9.92 2.82-9.92 6.24 0 3.31 4.41 6.12 9.92 6.12v-2.93c-3.06 0-5.51-1.47-5.51-3.31 0-1.83 2.45-3.3 5.51-3.3v-2.82Zm0 0v2.82c3.05 0 5.5 1.47 5.5 3.3 0 1.84-2.45 3.31-5.5 3.31v2.93c5.38 0 9.91-2.81 9.91-6.12 0-3.42-4.53-6.24-9.91-6.24"/><path id="I" d="M517.4 473.67c-5.51 0-9.91 2.82-9.91 6.24 0 3.31 4.4 6.12 9.91 6.12v-2.93c-3.06 0-5.51-1.47-5.51-3.31 0-1.83 2.45-3.3 5.51-3.3v-2.82Zm0 0v2.82c3.06 0 5.51 1.47 5.51 3.3 0 1.84-2.45 3.31-5.51 3.31v2.93c5.51 0 9.91-2.81 9.91-6.12 0-3.42-4.4-6.24-9.91-6.24"/><path id="J" d="M497.94 470c.12-.61.61-2.2.61-5.5v-4.17h-21.9v2.82h17.25V466.09c0 .85-.12 2.57-.98 3.91h-5.14v-4.16h-4.65V470h-8.07v2.7h25.21V470h-2.33Z"/><path id="K" d="M546.4 473.67c-5.51 0-9.91 2.82-9.91 6.24 0 3.31 4.4 6.12 9.91 6.12v-2.93c-3.06 0-5.51-1.47-5.51-3.31 0-1.83 2.45-3.3 5.51-3.3v-2.82Zm0 0v2.82c2.94 0 5.39 1.47 5.39 3.3 0 1.84-2.45 3.31-5.39 3.31v2.93c5.39 0 9.79-2.81 9.79-6.12 0-3.42-4.4-6.24-9.79-6.24"/><path id="L" d="M556.92 470c.25-.61.74-2.2.74-5.5v-4.17h-21.91v2.82h17.26V466.09c0 .85-.12 2.57-.98 3.91h-5.26v-4.16h-4.65c.12 3.8.12 3.67.12 4.16h-8.2v2.7h25.33V470h-2.45Z"/><path id="M" d="M512.87 461.44c-4.28.12-7.71 2.57-7.71 5.63 0 3.18 3.43 5.62 7.71 5.62v-2.93c-1.83 0-3.3-1.23-3.3-2.94 0-1.59 1.47-2.81 3.3-2.81v-2.57Zm0 0v2.57c1.84 0 3.3 1.22 3.3 2.81 0 1.71-1.46 2.94-3.3 2.94v2.93c4.16 0 7.71-2.44 7.71-5.62 0-3.06-3.55-5.63-7.71-5.63"/><path id="N" d="M515.07 460.46v-2.08h-4.4v2.08h-5.88v2.57h16.28v-2.57h-6Z"/><path id="O" d="M585.31 467.68v-7.47h-4.4v23.99h4.4v-13.59h3.19v-2.93h-3.19Z"/><path id="P" d="M567.33 465.6v-5.39h4.77v5.39c0 10.28 6.97 13.83 6.97 13.83v2.69s-5.5-.49-9.3-6.37c-3.54 6-8.68 6.49-8.68 6.49v-2.81s6.24-3.31 6.24-13.83"/><path id="Q" d="M425.25 459.11h-2.2v2.08h-5.75v2.69h2.32c-1.1 1.23-1.71 2.45-1.71 3.92 0 3.3 3.31 6.12 7.34 6.12v-2.82c-1.71 0-3.18-1.59-3.18-3.42 0-1.96 1.47-3.55 3.18-3.55v-5.02Zm8.2 2.08h-5.99v-2.08h-2.21v5.02c1.84 0 3.19 1.59 3.19 3.55 0 1.83-1.35 3.42-3.19 3.42v2.82c4.16 0 7.47-2.82 7.47-6.12 0-1.47-.74-2.69-1.72-3.92h2.45v-2.69Z"/><path id="R" d="M423.78 482.36v-6.85h-4.65v9.67h21.05v-2.82h-16.4Z"/><path id="S" d="M443.49 467.43v-2.69h-3.31v-4.28H435.66v17.25h4.52v-10.28h3.31Z"/><path id="T" d="M530.98 466.33v-2.69h-3.3v-4.04h-4.29s-.12 14.93-.12 14.32h4.41v-7.59h3.3Z"/></defs><use xlink:href="#a" fill="#861810"/><use xlink:href="#a" fill-opacity="0" stroke="#000" stroke-opacity="0"/><use xlink:href="#b" fill="#861810"/><use xlink:href="#b" fill-opacity="0" stroke="#000" stroke-opacity="0"/><use xlink:href="#c" fill="#861810"/><use xlink:href="#c" fill-opacity="0" stroke="#000" stroke-opacity="0"/><use xlink:href="#d" fill="#861810"/><use xlink:href="#d" fill-opacity="0" stroke="#000" stroke-opacity="0"/><use xlink:href="#e" fill="#861810"/><use xlink:href="#e" fill-opacity="0" stroke="#000" stroke-opacity="0"/><use xlink:href="#f" fill="#861810"/><use xlink:href="#f" fill-opacity="0" stroke="#000" stroke-opacity="0"/><use xlink:href="#g" fill="#861810"/><use xlink:href="#g" fill-opacity="0" stroke="#000" stroke-opacity="0"/><use xlink:href="#h" fill="#861810"/><use xlink:href="#h" fill-opacity="0" stroke="#000" stroke-opacity="0"/><use xlink:href="#i" fill="#514e4f"/><use xlink:href="#i" fill-opacity="0" stroke="#000" stroke-opacity="0"/><use xlink:href="#j" fill="#514e4f"/><use xlink:href="#j" fill-opacity="0" stroke="#000" stroke-opacity="0"/><use xlink:href="#k" fill="#514e4f"/><use xlink:href="#k" fill-opacity="0" stroke="#000" stroke-opacity="0"/><use xlink:href="#l" fill="#514e4f"/><use xlink:href="#l" fill-opacity="0" stroke="#000" stroke-opacity="0"/><use xlink:href="#m" fill="#514e4f"/><use xlink:href="#m" fill-opacity="0" stroke="#000" stroke-opacity="0"/><use xlink:href="#n" fill="#514e4f"/><use xlink:href="#n" fill-opacity="0" stroke="#000" stroke-opacity="0"/><use xlink:href="#o" fill="#514e4f"/><use xlink:href="#o" fill-opacity="0" stroke="#000" stroke-opacity="0"/><use xlink:href="#p" fill="#514e4f"/><use xlink:href="#p" fill-opacity="0" stroke="#000" stroke-opacity="0"/><use xlink:href="#q" fill="#514e4f"/><use xlink:href="#q" fill-opacity="0" stroke="#000" stroke-opacity="0"/><use xlink:href="#r" fill="#514e4f"/><use xlink:href="#r" fill-opacity="0" stroke="#000" stroke-opacity="0"/><use xlink:href="#s" fill="#514e4f"/><use xlink:href="#s" fill-opacity="0" stroke="#000" stroke-opacity="0"/><use xlink:href="#t" fill="#514e4f"/><use xlink:href="#t" fill-opacity="0" stroke="#000" stroke-opacity="0"/><use xlink:href="#u" fill="#514e4f"/><use xlink:href="#u" fill-opacity="0" stroke="#000" stroke-opacity="0"/><use xlink:href="#v" fill="#514e4f"/><use xlink:href="#v" fill-opacity="0" stroke="#000" stroke-opacity="0"/><use xlink:href="#w" fill="#514e4f"/><use xlink:href="#w" fill-opacity="0" stroke="#000" stroke-opacity="0"/><use xlink:href="#x" fill="#514e4f"/><use xlink:href="#x" fill-opacity="0" stroke="#000" stroke-opacity="0"/><use xlink:href="#y" fill="#514e4f"/><use xlink:href="#y" fill-opacity="0" stroke="#000" stroke-opacity="0"/><use xlink:href="#z" fill="#514e4f"/><use xlink:href="#z" fill-opacity="0" stroke="#000" stroke-opacity="0"/><use xlink:href="#A" fill="#514e4f"/><use xlink:href="#A" fill-opacity="0" stroke="#000" stroke-opacity="0"/><use xlink:href="#B" fill="#514e4f"/><use xlink:href="#B" fill-opacity="0" stroke="#000" stroke-opacity="0"/><use xlink:href="#C" fill="#514e4f"/><use xlink:href="#C" fill-opacity="0" stroke="#000" stroke-opacity="0"/><use xlink:href="#D" fill="#514e4f"/><use xlink:href="#D" fill-opacity="0" stroke="#000" stroke-opacity="0"/><use xlink:href="#E" fill="#514e4f"/><use xlink:href="#E" fill-opacity="0" stroke="#000" stroke-opacity="0"/><use xlink:href="#F" fill="#514e4f"/><use xlink:href="#F" fill-opacity="0" stroke="#000" stroke-opacity="0"/><use xlink:href="#G" fill="#514e4f"/><use xlink:href="#G" fill-opacity="0" stroke="#000" stroke-opacity="0"/><use xlink:href="#H" fill="#514e4f"/><use xlink:href="#H" fill-opacity="0" stroke="#000" stroke-opacity="0"/><use xlink:href="#I" fill="#514e4f"/><use xlink:href="#I" fill-opacity="0" stroke="#000" stroke-opacity="0"/><use xlink:href="#J" fill="#514e4f"/><use xlink:href="#J" fill-opacity="0" stroke="#000" stroke-opacity="0"/><use xlink:href="#K" fill="#514e4f"/><use xlink:href="#K" fill-opacity="0" stroke="#000" stroke-opacity="0"/><use xlink:href="#L" fill="#514e4f"/><use xlink:href="#L" fill-opacity="0" stroke="#000" stroke-opacity="0"/><use xlink:href="#M" fill="#514e4f"/><use xlink:href="#M" fill-opacity="0" stroke="#000" stroke-opacity="0"/><use xlink:href="#N" fill="#514e4f"/><use xlink:href="#N" fill-opacity="0" stroke="#000" stroke-opacity="0"/><use xlink:href="#O" fill="#514e4f"/><use xlink:href="#O" fill-opacity="0" stroke="#000" stroke-opacity="0"/><use xlink:href="#P" fill="#514e4f"/><use xlink:href="#P" fill-opacity="0" stroke="#000" stroke-opacity="0"/><use xlink:href="#Q" fill="#514e4f"/><use xlink:href="#Q" fill-opacity="0" stroke="#000" stroke-opacity="0"/><use xlink:href="#R" fill="#514e4f"/><use xlink:href="#R" fill-opacity="0" stroke="#000" stroke-opacity="0"/><use xlink:href="#S" fill="#514e4f"/><use xlink:href="#S" fill-opacity="0" stroke="#000" stroke-opacity="0"/><use xlink:href="#T" fill="#514e4f"/><use xlink:href="#T" fill-opacity="0" stroke="#000" stroke-opacity="0"/></svg>