<svg xmlns="http://www.w3.org/2000/svg" xmlns:xlink="http://www.w3.org/1999/xlink" width="912.716mm" height="100mm" viewBox="0 0 912.716 100"><defs><clipPath id="b" clipPathUnits="userSpaceOnUse"><path d="M0 595.276h841.89V0H0Z"/></clipPath><clipPath id="c" clipPathUnits="userSpaceOnUse"><path d="M334.065 308.98c-6.433-2.325-13.668-8.765-16.948-16.897 2.67-6.722 10.898-9.133 17.381-9.099-5.796 1.455-10.089 6.7-10.089 12.946 0 2.451.664 4.744 1.817 6.719 1.674 3.158 4.497 5.065 7.843 6.326l.007.007z"/></clipPath><clipPath id="d" clipPathUnits="userSpaceOnUse"><path d="m329.726 275.191-24.227 14.908 16.393 26.639 24.227-14.907z"/></clipPath><clipPath id="e" clipPathUnits="userSpaceOnUse"><path d="M329.726 275.19 305.499 290.1l16.393 26.64 24.227-14.909z"/></clipPath><clipPath id="g" clipPathUnits="userSpaceOnUse"><path d="M314.699 300.573c-7.2-8.541-8.09-17.374-8.09-17.374h8.72c0 12.507 10.771 23.354 19.586 26.066.108.035.219.072.328.104-8.892-.534-15.201-2.599-20.544-8.796"/></clipPath><clipPath id="h" clipPathUnits="userSpaceOnUse"><path d="M-42.521-264.546h.895v.881h-.895z"/></clipPath><clipPath id="i" clipPathUnits="userSpaceOnUse"><path d="M-42.521-264.546h.895v.882h-.895z"/></clipPath><linearGradient id="f" x1="0" x2="1" y1="0" y2="0" gradientTransform="scale(-12.88312 12.88312) rotate(31.606 -53.485 -33.64)" gradientUnits="userSpaceOnUse" spreadMethod="pad"><stop offset="0" style="stop-opacity:1;stop-color:#e60013"/><stop offset="1" style="stop-opacity:1;stop-color:#000"/></linearGradient><linearGradient id="a" x1="0" x2="1" y1="0" y2="0" gradientTransform="translate(-42.254 -264.1)" gradientUnits="userSpaceOnUse" spreadMethod="pad"><stop offset="0" style="stop-opacity:1;stop-color:#e60013"/><stop offset="1" style="stop-opacity:1;stop-color:#000"/></linearGradient><linearGradient xlink:href="#a" id="j" x1="0" x2="1" y1="0" y2="0" gradientTransform="translate(-42.254 -264.1)" gradientUnits="userSpaceOnUse" spreadMethod="pad"/></defs><g clip-path="url(#b)" transform="matrix(3.75657 0 0 -3.75657 -1151.8 1162.415)"><path d="M427.056 288.97h.584v-2.173h.02c.117.174.24.333.355.48l1.375 1.693h.723l-1.632-1.914 1.759-2.595h-.688l-1.478 2.215-.434-.496v-1.719h-.584zM432.487 284.862c.925 0 1.445.851 1.445 1.872 0 .899-.465 1.833-1.437 1.833-.969 0-1.45-.901-1.45-1.879 0-.95.52-1.826 1.436-1.826zm-.022-.475c-1.199 0-2.028.925-2.028 2.289 0 1.43.88 2.367 2.085 2.367 1.238 0 2.035-.943 2.035-2.281 0-1.545-.945-2.375-2.088-2.375zM436.063 286.857h.591c.621 0 1.016.34 1.016.856 0 .582-.418.834-1.033.834-.28 0-.476-.025-.574-.053zm-.584 2.046c.296.058.723.101 1.117.101.621 0 1.03-.121 1.311-.375.22-.194.353-.502.353-.856 0-.59-.381-.984-.849-1.144v-.021c.341-.12.55-.44.664-.91.146-.629.254-1.063.34-1.237h-.601c-.076.127-.175.515-.296 1.076-.133.624-.381.858-.909.877h-.546v-1.953h-.584zM441.572 286.575h-1.748v-1.625h1.959v-.489h-2.547v4.51h2.446v-.49h-1.858v-1.426h1.748zM444.91 286.335l-.446 1.297c-.095.295-.16.561-.232.822h-.014a13.006 13.006 0 0 0-.226-.813l-.44-1.306zm-1.479-.457-.467-1.417h-.605l1.536 4.51h.702l1.539-4.51h-.625l-.48 1.417zM449.135 288.476h-1.373v.494h3.341v-.494h-1.382v-4.015h-.586zM452.35 286.857h.598c.618 0 1.015.34 1.015.856 0 .582-.422.834-1.037.834-.28 0-.472-.025-.576-.053zm-.582 2.046c.296.058.725.101 1.117.101.623 0 1.033-.121 1.311-.375.22-.194.357-.502.357-.856 0-.59-.381-.984-.849-1.144v-.021c.337-.12.546-.44.66-.91.15-.629.256-1.063.341-1.237h-.6c-.073.127-.173.515-.296 1.076-.135.624-.381.858-.909.877h-.55v-1.953h-.582zM457.773 286.335l-.446 1.297c-.091.295-.158.561-.227.822h-.019a11.124 11.124 0 0 0-.22-.813l-.442-1.306zm-1.476-.457-.468-1.417h-.602l1.533 4.51h.703l1.538-4.51h-.623l-.483 1.417zM460.41 284.916c.147-.025.36-.025.592-.025 1.242-.009 1.916.692 1.916 1.912.009 1.077-.594 1.739-1.821 1.739-.304 0-.533-.026-.687-.062zm-.588 3.993c.36.053.783.094 1.244.094.838 0 1.432-.189 1.825-.556.409-.366.644-.895.644-1.625 0-.735-.235-1.34-.647-1.754-.431-.42-1.123-.648-2-.648-.424 0-.763.014-1.066.055zM466.781 286.575h-1.746v-1.625h1.951v-.489h-2.543v4.51h2.443v-.49h-1.851v-1.426h1.746zM470.081 284.461h-.595v4.51h.595zM475.756 285.169c.26-.166.637-.293 1.037-.293.596 0 .942.308.942.769 0 .416-.241.661-.848.89-.735.268-1.192.654-1.192 1.283 0 .705.584 1.224 1.461 1.224.454 0 .793-.104.987-.22l-.158-.474a1.673 1.673 0 0 1-.85.215c-.617 0-.848-.37-.848-.676 0-.421.27-.63.895-.871.762-.3 1.14-.661 1.14-1.325 0-.695-.507-1.303-1.57-1.303-.432 0-.91.133-1.148.296zM479.877 288.97v-2.676c0-1.005.449-1.431 1.049-1.431.662 0 1.099.441 1.099 1.431v2.676h.588v-2.636c0-1.385-.728-1.946-1.707-1.946-.924 0-1.619.52-1.619 1.928v2.654zM484.371 286.857h.599c.619 0 1.014.34 1.014.856 0 .582-.421.834-1.037.834a2.39 2.39 0 0 1-.576-.053zm-.582 2.046a6.31 6.31 0 0 0 1.119.101c.619 0 1.028-.121 1.31-.375.221-.194.356-.502.356-.856 0-.59-.385-.984-.85-1.144v-.021c.34-.12.549-.44.664-.91.145-.629.252-1.063.338-1.237h-.603c-.073.127-.174.515-.293 1.076-.131.624-.383.858-.91.877h-.549v-1.953h-.582zM489.795 286.335l-.446 1.297c-.093.295-.161.561-.23.822h-.018a9.093 9.093 0 0 0-.222-.813l-.439-1.306zm-1.479-.457-.465-1.417h-.603l1.531 4.51h.703l1.54-4.51h-.622l-.482 1.417zM499.563 284.602c-.208-.108-.643-.214-1.191-.214-1.27 0-2.22.802-2.22 2.288 0 1.417.953 2.365 2.354 2.365.555 0 .916-.118 1.073-.198l-.151-.476c-.215.109-.53.189-.903.189-1.054 0-1.759-.677-1.759-1.861 0-1.113.636-1.813 1.727-1.813.361 0 .72.073.955.187zM502.791 286.575h-1.742v-1.625h1.953v-.489h-2.543v4.51h2.441v-.49h-1.851v-1.426h1.742zM508.652 284.602c-.205-.108-.642-.214-1.188-.214-1.273 0-2.222.802-2.222 2.288 0 1.417.957 2.365 2.354 2.365.554 0 .916-.118 1.071-.198l-.149-.476c-.211.109-.532.189-.903.189-1.054 0-1.758-.677-1.758-1.861 0-1.113.633-1.813 1.726-1.813.362 0 .724.073.957.187zM511.182 284.862c.923 0 1.445.851 1.445 1.872 0 .899-.468 1.833-1.438 1.833-.968 0-1.452-.901-1.452-1.879 0-.95.523-1.826 1.439-1.826zm-.025-.475c-1.196 0-2.026.925-2.026 2.289 0 1.43.885 2.367 2.084 2.367 1.24 0 2.033-.943 2.033-2.281 0-1.545-.941-2.375-2.086-2.375zM514.756 286.857h.592c.627 0 1.019.34 1.019.856 0 .582-.422.834-1.037.834-.281 0-.472-.025-.574-.053zm-.582 2.046c.293.058.723.101 1.115.101.623 0 1.031-.121 1.314-.375.219-.194.354-.502.354-.856 0-.59-.383-.984-.849-1.144v-.021c.341-.12.546-.44.66-.91.148-.629.254-1.063.342-1.237h-.6c-.073.127-.178.515-.295 1.076-.135.624-.385.858-.912.877h-.547v-1.953h-.582zM518.52 286.743c.126-.033.294-.048.479-.048.714 0 1.134.349 1.134.958 0 .599-.42.889-1.065.889a2.92 2.92 0 0 1-.548-.048zm-.584 2.166a5.97 5.97 0 0 0 1.119.095c.574 0 .996-.133 1.265-.375.248-.215.403-.541.403-.943 0-.409-.121-.73-.355-.963-.309-.328-.811-.498-1.382-.498-.172 0-.332.008-.466.041v-1.805h-.584zM523.449 284.862c.926 0 1.447.851 1.447 1.872 0 .899-.467 1.833-1.441 1.833-.965 0-1.446-.901-1.446-1.879 0-.95.522-1.826 1.432-1.826zm-.024-.475c-1.198 0-2.025.925-2.025 2.289 0 1.43.879 2.367 2.084 2.367 1.239 0 2.034-.943 2.034-2.281 0-1.545-.944-2.375-2.088-2.375zM527.023 286.857h.597c.618 0 1.015.34 1.015.856 0 .582-.418.834-1.037.834-.282 0-.474-.025-.575-.053zm-.582 2.046c.293.058.728.101 1.12.101.621 0 1.027-.121 1.309-.375.222-.194.355-.502.355-.856 0-.59-.383-.984-.849-1.144v-.021c.339-.12.546-.44.662-.91.146-.629.254-1.063.34-1.237h-.603c-.073.127-.173.515-.295 1.076-.134.624-.38.858-.908.877h-.549v-1.953h-.582zM532.447 286.335l-.447 1.297c-.094.295-.16.561-.229.822h-.017a12.294 12.294 0 0 0-.223-.813l-.439-1.306zm-1.478-.457-.467-1.417h-.603l1.529 4.51h.707l1.539-4.51h-.625l-.481 1.417zM534.83 288.476h-1.371v.494h3.34v-.494h-1.379v-4.015h-.59zM538.049 284.461h-.592v4.51h.592zM541.018 284.862c.923 0 1.447.851 1.447 1.872 0 .899-.468 1.833-1.442 1.833-.97 0-1.453-.901-1.453-1.879 0-.95.526-1.826 1.44-1.826zm-.03-.475c-1.197 0-2.025.925-2.025 2.289 0 1.43.885 2.367 2.088 2.367 1.238 0 2.035-.943 2.035-2.281 0-1.545-.945-2.375-2.088-2.375zM544.557 284.461h-.549v4.509h.64l2.19-3.495.006 3.495h.549v-4.509h-.588l-2.248 3.652zM492.361 284.461h-.545v4.509h.642l2.192-3.495.004 3.495h.547v-4.509h-.586l-2.254 3.652zM471.811 284.461h-.549v4.509h.64l2.188-3.495.008 3.495h.548v-4.509h-.589l-2.246 3.652z" style="fill:#59544b;fill-opacity:1;fill-rule:nonzero;stroke:none"/><g clip-path="url(#c)"><g clip-path="url(#d)"><g clip-path="url(#e)"><path d="m329.726 275.191-24.227 14.908 16.393 26.639 24.227-14.907z" style="fill:url(#f);stroke:none"/></g></g></g><path d="M306.616 283.199h8.713v25.515h-8.713z" style="fill:#e60013;fill-opacity:1;fill-rule:nonzero;stroke:none"/><g clip-path="url(#g)"><g clip-path="url(#h)" transform="matrix(-35.00987 -25.05795 -25.05795 35.00989 -7770 8488.275)"><g clip-path="url(#i)"><path d="M-42.521-264.546h.895v.881h-.895z" style="fill:url(#j);stroke:none"/></g></g></g><path d="M336.009 282.896c-.341.046.159.11.68.13 2.9.114 6.238 1.834 6.354 5.425.071 2.191-1.122 4.43-4.263 5.584-4.978 1.676-7.02 4.4-7.02 7.439 0 4.503 3.719 7.961 9.638 7.961 2.828 0 5.645-.682 7.164-1.518l-.001-5.531c-1.483 1.114-4.682 2.647-7.058 2.647-2.306 0-3.562-1.307-3.562-2.88 0-1.623 1.204-2.356 4.452-3.561 4.662-1.625 7.112-3.982 7.165-7.752 0-4.661-3.021-8.014-10.727-8.014-.921 0-1.973-.05-2.822.07M403.566 305.032c4.026 0 4.65-3.877 4.603-6.236h-9.795c.246 2.62 1.46 6.236 5.192 6.236m7.912-16.262c-1.726-.555-3.868-1.082-6.095-1.082-3.831 0-6.862 1.99-7.009 6.603h15.649c.1.575.197 1.518.197 2.725 0 5.606-1.603 12.416-10.311 12.416-8.611 0-11.685-6.652-11.685-13.726 0-7.81 4.567-12.891 12.323-12.891 3.437 0 6.037.684 8.099 1.627l.055 3.367-.005-.006c0 1.039-.317 1.223-1.218.967M373.345 283.199h-4.092c-1.403 0-2.056.524-2.056 1.774l.001.793c-1.122-1.496-2.487-2.951-6.182-2.951-4.261 0-8.161 2.535-8.161 9.959v15.94h6.148v-15.575c0-1.467-.084-5.447 4.013-5.447 4.339 0 4.181 3.99 4.181 5.447v15.575h6.148zM383.286 304.535v4.179h-5.668v-23.741c0-1.25.653-1.774 2.058-1.774h4.089v13.715c0 3.488 2.141 7.778 7.94 6.433l2.143 5.419c-6.521 2.062-9.541-1.125-10.562-4.231M463.361 306.462h5.05v-3.354h-5.05zm-1.64-5.06h8.836v6.762h-9.286v-6.312c0-.246.204-.45.45-.45m-3.056-3.349h6.196v-5.248h2.196v5.248h6.108v1.739h-14.5zm-3.707 10.111h-9.706v-1.798h7.5c.055-1.04-.128-2.229-.613-3.49h-9.394v-1.723h6.314v-2.399h-4.073v-1.739h8.022v-4.21h2.088v5.949h-3.84v2.399h6.348v1.723h-3.352c.514 1.627.743 3.603.706 5.288m-15.135.55h-2.073v-11.766h2.073v5.358h2.265v1.795h-2.265zm-6.943-10.886h-2.091v-4.577c0-.245.202-.446.447-.446h8.834v1.776h-7.19zM489.268 295.23h14.879v1.74h-14.879zM497.745 299.612h-2.074v-2.642h2.074zM494.186 303.661h5.043v-2.328h-5.043zm7.117-4.049v8.552h-2.074v-2.8h-5.043v2.8h-2.072v-8.104c0-.247.2-.448.447-.448zM524.9 305.402h2.073v-3.111h7.582v-1.656h-14.86v1.656h5.205zM527.182 294.398c-1.127 0-2.075.729-2.075 1.737 0 1.01.948 1.738 2.075 1.738 1.127 0 2.078-.728 2.078-1.738 0-1.008-.951-1.737-2.078-1.737m0 5.501c-2.322 0-4.104-1.686-4.104-3.764 0-2.077 1.782-3.76 4.104-3.76 2.32 0 4.103 1.683 4.103 3.76 0 2.078-1.783 3.764-4.103 3.764" style="fill:#59544b;fill-opacity:1;fill-rule:nonzero;stroke:none"/><path d="M529.039 301.976c.41 1.178.818 4.009.781 5.013h-7.527v1.724h9.59c.035-1.566-.261-4.97-.858-6.737zM538.799 308.028v-1.549c0-1.769-.139-4.902-3.863-6.827l1.255-1.305c1.737.689 3.289 2.476 3.666 3.593.375-1.117 1.928-2.904 3.666-3.593l1.252 1.305c-3.722 1.966-3.857 5.058-3.857 6.827v1.549zM549.574 304.099v-1.672h-2.181v-9.622h-2.073v15.908h2.073v-4.614zM515.584 308.714v-4.613h-3.313v-1.778h3.313v-2.852h2.072v9.243z" style="fill:#59544b;fill-opacity:1;fill-rule:nonzero;stroke:none"/><path d="M514.088 305.581v1.723h-3.664v1.847h-2.232v-1.847h-3.752v-1.723zM510.713 296.782h4.854v-2.259h-4.854zm-2.088-3.531c0-.245.2-.446.445-.446h8.587v5.699h-9.032z" style="fill:#59544b;fill-opacity:1;fill-rule:nonzero;stroke:none"/><path d="M509.264 301.417a1.73 1.73 0 1 0 .001 3.461 1.73 1.73 0 0 0-.001-3.461m0 5.484a3.754 3.754 0 1 1 0-7.51 3.754 3.754 0 0 1 0 7.51M477.932 302.224a1.91 1.91 0 1 0 0 3.821 1.91 1.91 0 1 0 0-3.821m0 5.848a3.939 3.939 0 1 1 .001-7.877 3.939 3.939 0 0 1-.001 7.877M477.166 297.032h7.431v-4.227h2.091v5.949h-9.522z" style="fill:#59544b;fill-opacity:1;fill-rule:nonzero;stroke:none"/><path d="M484.611 308.714v-1.942h-4.151v-1.703h4.151v-2.07h-4.151v-1.702h4.151v-1.826h2.077v9.243zM436.625 305.581v1.723h-3.662v1.847h-2.234v-1.847h-3.75v-1.723z" style="fill:#59544b;fill-opacity:1;fill-rule:nonzero;stroke:none"/><path d="M431.803 301.417a1.73 1.73 0 1 0 0 3.458 1.73 1.73 0 0 0 0-3.458m0 5.484a3.755 3.755 0 1 1-.002-7.51 3.755 3.755 0 0 1 .002 7.51" style="fill:#59544b;fill-opacity:1;fill-rule:nonzero;stroke:none"/></g></svg>