<svg xmlns="http://www.w3.org/2000/svg" width="1312.6002mm" height="200mm" viewBox="0 0 1312.6002 200"><path d="M327.335 312.013h29.534v5.737h-32.46c-1.852 0-3.394-.612-4.624-1.817-1.24-1.201-1.855-2.863-1.855-4.974v-13.41h9.405zm-7.206-39.596c-1.145 1.729-1.728 3.808-1.728 6.218 0 2.407.583 4.49 1.728 6.254 1.146 1.76 2.456 2.634 3.91 2.634 1.472 0 2.78-.874 3.914-2.634 1.135-1.764 1.693-3.847 1.693-6.254 0-2.41-.558-4.49-1.693-6.218-1.135-1.732-2.442-2.6-3.914-2.6-1.454 0-2.764.868-3.91 2.6m13.146-4.563c1.648 1.257 2.923 2.831 3.858 4.71.92 1.89 1.38 3.91 1.38 6.071 0 3.917-1.409 7.272-4.25 10.058-2.807 2.786-6.222 4.177-10.224 4.177-3.917 0-7.31-1.39-10.202-4.177-2.866-2.786-4.307-6.14-4.307-10.058 0-2.16.489-4.18 1.469-6.07.97-1.88 2.255-3.454 3.854-4.711h-7.402v-5.727h11.87v-7.458h9.412v7.458h11.863v5.727zm12.187 33.606v-46.12h9.394v14.4h9.334v5.797h-9.334v25.923zM373.936 255.769h40.003v13.708c0 1.707-.204 3.569-.64 5.578-.442 2.01-.994 3.468-1.658 4.37h9.015v5.727h-22.048v10.03h15.187v22.61h-9.334v-16.89h-30.677v-5.72h15.42v-10.03h-21.578v-5.726h35.83c.474-1.304.759-2.807.892-4.522.13-1.704.186-3.439.186-5.196v-8.224h-30.598zM478.361 290.495v5.727h-21.809v21.626h-9.418v-21.626h-21.806v-5.727zm-36.989-17.182v5.582h31.365v5.72h-34.295c-1.963 0-3.52-.626-4.707-1.884-1.18-1.257-1.778-2.884-1.778-4.9v-21.7h40.158v5.719h-30.743v5.807h30.511v5.656zM523.596 255.4h9.264v15.598l9.404-.07v5.804h-9.404v41.071h-9.264zM567.298 299.974c-1.17 1.76-1.767 3.77-1.767 6.028 0 2.21.597 4.174 1.767 5.888 1.18 1.7 2.632 2.55 4.328 2.55 1.687 0 3.12-.85 4.28-2.55 1.159-1.714 1.735-3.678 1.735-5.888 0-2.259-.576-4.268-1.736-6.028-1.159-1.757-2.592-2.639-4.279-2.639-1.696 0-3.147.882-4.328 2.639m15.279-4.188c3.02 2.8 4.546 6.19 4.546 10.216 0 3.966-1.525 7.346-4.546 10.139-3.036 2.79-6.686 4.177-10.95 4.177-4.329 0-7.979-1.388-10.99-4.177-3.01-2.793-4.507-6.173-4.507-10.139 0-4.026 1.497-7.416 4.508-10.216 3.01-2.786 6.66-4.184 10.988-4.184 4.265 0 7.915 1.398 10.95 4.184m-31.304-39.901h40.077v12.513c0 1.855-.26 3.805-.77 5.842-.498 2.03-1.096 3.422-1.767 4.18h-8.1c.516-1.306.86-2.799 1.007-4.482.155-1.682.243-3.432.243-5.238v-7.008h-30.69zm46.713 32.106h-53.033v-5.73h16.96v-13.712h9.402v13.712h26.671zM507.344 263.199v6.067c0 5.934 1.434 11.024 4.392 15.226 2.367 3.369 6.78 6.46 10.093 7.528l-4.61 4.374c-2.283-.647-5.603-2.596-8.01-4.61-2.785-2.322-5.63-4.83-6.61-7.675-.977 2.845-3.82 5.353-6.595 7.676-2.417 2.013-5.73 3.962-8.013 4.609l-4.627-4.374c3.32-1.068 7.725-4.16 10.1-7.528 2.958-4.202 4.395-9.292 4.395-15.226v-6.067h-10.947v-5.772h31.21v5.772h-10.778M649.61 270.316h9.408v5.73h-9.408V317.8h-9.328v-62.4h9.328zM623.096 256.749v12.517c0 5.933 1.437 11.024 4.378 15.225 2.375 3.37 6.794 6.461 10.1 7.53l-4.616 4.373c-2.273-.647-5.597-2.596-8.007-4.61-2.785-2.322-5.62-4.83-6.597-7.675-.994 2.845-3.822 5.353-6.612 7.676-2.392 2.013-5.73 3.962-7.996 4.609l-4.63-4.374c3.313-1.068 7.718-4.16 10.093-7.529 2.965-4.201 4.399-9.292 4.399-15.225v-12.517zM323.699 325.791h3.298l-6.868 8.72 7.11 10.047h-3.41l-6.7-10.023zm-9.349 0h2.674v18.767h-2.674zM339.992 337.862c0-4.114-1.96-7.335-6.004-7.335-3.593 0-5.849 2.786-5.849 7.198 0 4.437 2.256 7.223 5.906 7.223 3.629 0 5.947-2.758 5.947-7.086m-2.81.109c0 3.569-1.174 5.037-3.085 5.037-2.122 0-3.176-1.387-3.176-5.561 0-3.429.89-4.981 3.067-4.981 1.968 0 3.194 1.282 3.194 5.505M349.745 333.12c-.25-.08-.436-.134-.7-.134-1.538 0-2.842 1.272-2.842 2.775v8.797h-2.515v-10.023c0-1.661-.183-2.56-.51-3.404l2.421-.63c.239.52.467 1.416.467 2.101v.242c1.09-1.577 2.256-2.367 3.707-2.367.326 0 .629.05.836.137zM362.796 338.266v-.432c-.022-3.137-.468-4.658-1.662-5.888-.952-.98-2.182-1.469-3.706-1.469-1.687 0-3.022.598-4.118 1.88-1.173 1.391-1.623 2.912-1.623 5.284 0 4.475 2.305 7.219 6.092 7.219 1.778 0 3.383-.573 4.721-1.742l-.952-1.497c-.99.871-2.076 1.307-3.358 1.307-1.307 0-2.424-.513-3.137-1.61-.404-.652-.573-1.548-.573-2.722v-.33zm-2.614-1.851h-5.67c0-2.48.962-4.033 2.86-4.033.874 0 1.524.414 1.96.959.548.678.85 1.767.85 3.074M376.915 343.448c-1.072-.653-1.125-1.42-1.125-3.302 0-1.985.106-4.083.106-5.063 0-1.335-.053-1.798-.257-2.396-.53-1.447-1.97-2.185-3.966-2.185-2.638 0-4.377 1.04-5.72 1.799l1.143 1.799c1.12-.844 2.757-1.553 4.201-1.553 1.904 0 2.126 1.092 2.126 2.701v.897c-.359-.031-.626-.031-.952-.031-4.413 0-6.953 1.69-6.953 4.848 0 2.62 1.694 4.005 4.42 4.005 2.368 0 3.51-1.36 3.86-1.795.334.952.991 1.63 1.842 1.964zm-3.552-5.586-.08 3.489c-.622 1.078-1.715 1.795-2.853 1.795-1.395 0-2.16-.872-2.16-2.368 0-.9.2-1.391.712-1.992.548-.625 1.69-.98 3.57-.98.22 0 .439.03.811.06M386.639 325.791h2.67v18.767h-2.67zM401.654 344.558v-9.204c0-1.226-.106-1.665-.436-2.098-.28-.354-.77-.544-1.391-.544-.987 0-2.452.766-3.383 1.739v10.107h-2.477v-10.156c0-1.634-.133-2.263-.523-3.247l2.375-.653c.323.653.467 1.25.467 2.101.783-.657 1.198-1.008 1.763-1.335a5.007 5.007 0 0 1 2.53-.681c1.458 0 2.733.762 3.225 1.936.221.488.326 1.089.326 1.714v10.321zM413.535 344.674h-2.35l-4.87-13.708 2.576-.404 2.712 8.252c.291.927.59 2.016.815 2.944h.053c.158-.815.425-1.88.818-2.997l2.586-7.845h2.642zM430.696 338.266v-.432c-.021-3.137-.46-4.658-1.661-5.888-.949-.98-2.175-1.469-3.707-1.469-1.686 0-3.028.598-4.117 1.88-1.17 1.391-1.627 2.912-1.627 5.284 0 4.475 2.308 7.219 6.096 7.219 1.77 0 3.383-.573 4.714-1.742l-.952-1.497c-.977.871-2.076 1.307-3.351 1.307-1.31 0-2.417-.513-3.127-1.61-.415-.652-.58-1.548-.58-2.722v-.33zm-2.61-1.851h-5.674c0-2.48.956-4.033 2.86-4.033.875 0 1.525.414 1.967.959.548.678.847 1.767.847 3.074M438.133 344.948c-1.661 0-3.51-.52-5.09-1.447l.903-1.8c1.3.728 2.856 1.367 4.38 1.367 1.5 0 2.53-.878 2.53-2.21 0-1.173-.71-1.854-2.284-2.153l-1.661-.33c-2.154-.405-3.327-1.764-3.327-3.784 0-2.508 1.985-4.254 4.94-4.254 1.647 0 3.179.464 4.296 1.12l-.843 1.77c-1.251-.624-2.26-.979-3.352-.979-1.44 0-2.371.819-2.371 2.045 0 .977.488 1.524 1.935 1.851l1.775.411c2.497.573 3.534 2.013 3.534 3.816 0 2.722-2.175 4.577-5.365 4.577M452.09 332.687h-2.697v8.224c0 1.69.404 2.207 1.77 2.207.464 0 .844-.08 1.283-.274l.291 1.524a5.39 5.39 0 0 1-2.47.58c-.902 0-1.882-.274-2.321-.685-.566-.524-1.009-.79-1.009-2.779v-8.797h-1.633v-1.77h1.633c0-1.072.025-2.456.165-3.492l2.586-.598c-.105.973-.239 2.698-.239 4.09h3.32zM470.285 344.558v-9.777c0-1.553-.485-2.094-1.634-2.094-1.254 0-2.15.808-3.186 1.848v10.023h-2.449v-9.72c0-1.525-.439-2.102-1.693-2.102-.93 0-1.964.465-3.134 1.585v10.237h-2.476v-10.023c0-1.932-.11-2.452-.489-3.404l2.344-.57c.266.46.456 1.142.456 1.905 1.17-1.227 2.561-1.94 3.844-1.94 1.275 0 2.557.685 3.246 2.16 1.363-1.447 2.771-2.16 4.17-2.16 2.129 0 3.485 1.342 3.485 3.844v10.187zM487.344 338.266v-.432c-.024-3.137-.456-4.658-1.661-5.888-.952-.98-2.185-1.469-3.714-1.469-1.686 0-3.01.598-4.106 1.88-1.167 1.391-1.634 2.912-1.634 5.284 0 4.475 2.312 7.219 6.106 7.219 1.77 0 3.372-.573 4.714-1.742l-.962-1.497c-.97.871-2.066 1.307-3.348 1.307-1.304 0-2.42-.513-3.134-1.61-.407-.652-.572-1.548-.572-2.722v-.33zm-2.613-1.851h-5.67c0-2.48.959-4.033 2.863-4.033.878 0 1.52.414 1.953.959.555.678.854 1.767.854 3.074M498.727 344.558v-9.204c0-1.226-.099-1.665-.432-2.098-.27-.354-.756-.544-1.388-.544-.98 0-2.452.766-3.38 1.739v10.107h-2.483v-10.156c0-1.634-.127-2.263-.51-3.247l2.375-.653c.323.653.46 1.25.46 2.101.787-.657 1.198-1.008 1.764-1.335a5.036 5.036 0 0 1 2.54-.681c1.444 0 2.726.762 3.214 1.936.222.488.323 1.089.323 1.714v10.321zM510.78 332.687h-2.701v8.224c0 1.69.407 2.207 1.777 2.207.46 0 .84-.08 1.275-.274l.303 1.524a5.427 5.427 0 0 1-2.484.58c-.896 0-1.88-.274-2.319-.685-.569-.524-1.001-.79-1.001-2.779v-8.797h-1.64v-1.77h1.64c0-1.072.035-2.456.158-3.492l2.593-.598c-.11.973-.243 2.698-.243 4.09h3.32zM527.506 344.839c-2.449 0-4.406-1.008-5.828-2.81-1.339-1.718-2.052-3.977-2.052-6.7 0-2.182.44-4.06 1.23-5.59 1.394-2.67 3.867-4.303 6.759-4.303 1.767 0 3.429.52 4.602 1.472l-1.275 1.718c-1.037-.762-2.07-1.096-3.327-1.096-1.855 0-3.288.96-4.174 2.702-.594 1.201-.892 2.779-.892 5.037 0 2.098.214 3.327.681 4.416.875 2.073 2.614 3.053 4.61 3.053 1.44 0 2.441-.383 3.45-1.173l1.285 1.725c-1.44 1.03-3.165 1.549-5.07 1.549M546.382 337.862c0-4.114-1.96-7.335-5.98-7.335-3.608 0-5.86 2.786-5.86 7.198 0 4.437 2.252 7.223 5.91 7.223 3.621 0 5.93-2.758 5.93-7.086m-2.797.109c0 3.569-1.17 5.037-3.08 5.037-2.126 0-3.19-1.387-3.19-5.561 0-3.429.902-4.981 3.087-4.981 1.957 0 3.183 1.282 3.183 5.505M556.14 333.12c-.241-.08-.428-.134-.702-.134-1.531 0-2.835 1.272-2.835 2.775v8.797h-2.512v-10.023c0-1.661-.193-2.56-.505-3.404l2.413-.63c.242.52.467 1.416.467 2.101v.242c1.09-1.577 2.263-2.367 3.7-2.367.33 0 .628.05.85.137zM570.608 337.51c0-4.693-2.333-6.948-5.119-6.948-1.444 0-2.807.621-3.864 1.904 0-1.145-.053-1.55-.165-1.964l-2.431.414c.203.865.305 1.736.305 3.341v16.055l2.456-.568v-4.796c0-.495 0-1.092-.06-1.525 1.058.946 2.29 1.416 3.538 1.416 3.488 0 5.34-3.08 5.34-7.328m-2.698.295c0 3.323-1.001 5.016-3.204 5.016-1.008 0-2.08-.597-2.916-1.503v-6.95c.913-1.085 2.038-1.682 3.267-1.682 2.15 0 2.853 1.873 2.853 5.119M585.053 337.862c0-4.114-1.96-7.335-6-7.335-3.594 0-5.853 2.786-5.853 7.198 0 4.437 2.26 7.223 5.91 7.223 3.628 0 5.943-2.758 5.943-7.086m-2.814.109c0 3.569-1.17 5.037-3.07 5.037-2.125 0-3.19-1.387-3.19-5.561 0-3.429.903-4.981 3.074-4.981 1.97 0 3.186 1.282 3.186 5.505M594.813 333.12c-.25-.08-.443-.134-.706-.134-1.529 0-2.839 1.272-2.839 2.775v8.797h-2.505v-10.023c0-1.661-.2-2.56-.523-3.404l2.424-.63c.25.52.467 1.416.467 2.101v.242c1.09-1.577 2.255-2.367 3.703-2.367.33 0 .632.05.847.137zM608.134 343.448c-1.064-.653-1.113-1.42-1.113-3.302 0-1.985.105-4.083.105-5.063 0-1.335-.055-1.798-.27-2.396-.52-1.447-1.968-2.185-3.96-2.185-2.638 0-4.384 1.04-5.715 1.799l1.141 1.799c1.117-.844 2.758-1.553 4.198-1.553 1.898 0 2.126 1.092 2.126 2.701v.897c-.362-.031-.629-.031-.952-.031-4.42 0-6.953 1.69-6.953 4.848 0 2.62 1.697 4.005 4.42 4.005 2.368 0 3.502-1.36 3.864-1.795.33.952.98 1.63 1.83 1.964zm-3.544-5.586-.078 3.489c-.633 1.078-1.725 1.795-2.863 1.795-1.392 0-2.15-.872-2.15-2.368 0-.9.186-1.391.702-1.992.548-.625 1.7-.98 3.573-.98.21 0 .425.03.815.06M616.682 332.687h-2.688v8.224c0 1.69.404 2.207 1.767 2.207.464 0 .847-.08 1.279-.274l.298 1.524a5.419 5.419 0 0 1-2.476.58c-.896 0-1.873-.274-2.319-.685-.566-.524-1.015-.79-1.015-2.779v-8.797H609.9v-1.77h1.627c0-1.072.038-2.456.172-3.492l2.586-.598c-.106.973-.246 2.698-.246 4.09h3.326zM622.872 344.558v-13.971l-2.586.407v13.564zm.505-17.846c0-1.033-.8-1.82-1.784-1.82-.98 0-1.774.818-1.774 1.82 0 .984.762 1.805 1.75 1.805a1.81 1.81 0 0 0 1.808-1.805M638.153 337.862c0-4.114-1.96-7.335-5.993-7.335-3.597 0-5.853 2.786-5.853 7.198 0 4.437 2.256 7.223 5.91 7.223 3.621 0 5.936-2.758 5.936-7.086m-2.803.109c0 3.569-1.177 5.037-3.07 5.037-2.136 0-3.2-1.387-3.2-5.561 0-3.429.899-4.981 3.08-4.981 1.964 0 3.19 1.282 3.19 5.505M649.553 344.558v-9.204c0-1.226-.108-1.665-.439-2.098-.28-.354-.762-.544-1.391-.544-.984 0-2.449.766-3.376 1.739v10.107h-2.484v-10.156c0-1.634-.14-2.263-.52-3.247l2.365-.653c.33.653.467 1.25.467 2.101.797-.657 1.198-1.008 1.777-1.335a5.017 5.017 0 0 1 2.54-.681c1.434 0 2.709.762 3.211 1.936.215.488.317 1.089.317 1.714v10.321z" style="fill:#656263;fill-opacity:1;fill-rule:nonzero;stroke:none;stroke-width:3.51308" transform="matrix(2.05533 0 0 2.05533 -41.895 -520.005)"/><path d="M219.17 311.76v14.569c0 4.827-3.983 8.74-8.912 8.74-4.932 0-8.916-3.913-8.916-8.74v-53.571c0-4.83 3.984-8.74 8.916-8.74 4.929 0 8.913 3.91 8.913 8.74v14.414h25.515v-1.525c0-14.554.963-32.643-34.428-32.643-35.401 0-34.428 18.089-34.428 32.643v27.8c0 14.554-.973 32.64 34.428 32.64 35.39 0 34.428-18.086 34.428-32.64v-1.687zM20.384 344.073h25.505v-89.21H20.384ZM107.308 344.073 73.86 299.387l26.218-44.521h-27.09L54.436 287.26c-3.327 5.86-6.345 13.09-.597 21.507l24.233 35.306zM124.02 344.365h25.504v-89.211H124.02z" style="fill:#17559e;fill-opacity:1;fill-rule:nonzero;stroke:none;stroke-width:3.51308" transform="matrix(2.05533 0 0 2.05533 -41.895 -520.005)"/></svg>