<svg xmlns="http://www.w3.org/2000/svg" width="594.552pt" height="590.66699pt" viewBox="0 0 594.55197 590.66698"><path fill="#4c4d4e" d="M199.393 679.09c0-2.587 2.065-4.683 4.612-4.683s4.612 2.096 4.612 4.682c0 2.584-2.065 4.679-4.612 4.679s-4.612-2.095-4.612-4.679m12.717 0c0-2.761-1.444-5.19-3.634-6.608h4.329v-3.24h-6.843v-2.065h-3.891v2.065h-6.96v3.24h4.423c-2.188 1.419-3.633 3.847-3.633 6.608 0 4.374 3.627 7.924 8.104 7.924 4.477 0 8.105-3.55 8.105-7.924M465.692 680.262c-2.447 0-4.432-2.013-4.432-4.499 0-2.485 1.985-4.5 4.432-4.5 2.452 0 4.437 2.015 4.437 4.5 0 2.486-1.985 4.499-4.437 4.499m-7.79-4.499c0 4.21 3.489 7.621 7.79 7.621 4.304 0 7.795-3.411 7.795-7.621 0-1.745-.609-3.35-1.62-4.635h4.388v-3.244h-8.615v-1.9h-3.891v1.9h-8.615v3.244h4.387a7.474 7.474 0 0 0-1.62 4.635M256.187 675.924c0-2.895 2.322-5.247 5.19-5.247 2.862 0 5.185 2.352 5.185 5.247 0 2.894-2.323 5.246-5.186 5.246-2.867 0-5.19-2.352-5.19-5.246m13.868 0c0-4.684-3.886-8.486-8.678-8.486-4.795 0-8.68 3.802-8.68 8.486 0 4.687 3.885 8.485 8.68 8.485 4.792 0 8.678-3.798 8.678-8.485M364.25 679.835v-3.24h-17.602v-5.428h17.602v-3.245h-21.493v11.913h3.891zM353.575 697.918c-2.765 0-5.006-2.262-5.006-5.055 0-2.793 2.24-5.058 5.006-5.058 2.764 0 5.006 2.265 5.006 5.058 0 2.793-2.242 5.055-5.006 5.055m-13.084-12.223h8.802c-2.521 1.442-4.217 4.108-4.217 7.168 0 4.587 3.803 8.31 8.5 8.31 4.693 0 8.497-3.723 8.497-8.31 0-3.06-1.698-5.726-4.218-7.168h8.804v-3.246h-26.168zM219.88 667.884h-3.892v23.352h3.892V676.06h3.058v-3.244h-3.058zM448.948 667.885h-3.896v23.352h3.896z" style="stroke-width:1.95167" transform="translate(-84.819 -256.661)"/><path fill="#4c4d4e" d="M269.194 697.918c-2.766 0-5.006-2.262-5.006-5.055 0-2.793 2.24-5.058 5.006-5.058 2.765 0 5.006 2.265 5.006 5.058 0 2.793-2.24 5.055-5.006 5.055m8.374-30.034h-3.893v17.928a8.61 8.61 0 0 0-4.481-1.259c-4.694 0-8.502 3.722-8.502 8.31 0 4.587 3.808 8.31 8.502 8.31 4.694 0 8.5-3.723 8.5-8.31 0-2.656-1.283-5.016-3.268-6.536h3.142v-6.314h3.057v-3.243h-3.057v-2.772h3.057v-3.243h-3.057zM327.975 697.918c-2.766 0-5.006-2.262-5.006-5.055 0-2.793 2.24-5.058 5.006-5.058 2.765 0 5.006 2.265 5.006 5.058 0 2.793-2.24 5.055-5.006 5.055m5.234-11.59h3.138v-18.444h-3.891v4.063h-3.51v3.242h3.51v1.183h-3.51v3.245h3.51v6.197a8.593 8.593 0 0 0-4.481-1.26c-4.696 0-8.498 3.72-8.498 8.31 0 4.586 3.802 8.31 8.498 8.31 4.695 0 8.497-3.724 8.497-8.31 0-2.657-1.278-5.017-3.263-6.537M408.709 668.914c2.767 0 5.008 2.26 5.008 5.054 0 2.791-2.24 5.055-5.008 5.055-2.764 0-5.008-2.264-5.008-5.055 0-2.794 2.244-5.054 5.008-5.054m0 13.365c4.696 0 8.5-3.722 8.5-8.31 0-4.591-3.804-8.31-8.5-8.31-4.692 0-8.498 3.719-8.498 8.31 0 4.588 3.806 8.31 8.498 8.31M465.692 698.688c-2.765 0-5.004-2.266-5.004-5.055 0-2.793 2.239-5.058 5.004-5.058 2.764 0 5.008 2.265 5.008 5.058 0 2.79-2.244 5.055-5.008 5.055m-14.413-11.897h9.595c-2.22 1.499-3.68 4.003-3.68 6.842 0 4.587 3.807 8.307 8.498 8.307 4.696 0 8.5-3.72 8.5-8.307 0-2.84-1.46-5.343-3.68-6.842h9.594v-3.246h-28.827zM299.673 697.918c-2.765 0-5.006-2.262-5.006-5.055 0-2.793 2.241-5.058 5.007-5.058 2.765 0 5.006 2.265 5.006 5.058 0 2.793-2.241 5.055-5.007 5.055m5.233-11.59h3.14v-18.444h-3.895v4.639h-4.245v3.244h4.245v10.045a8.596 8.596 0 0 0-4.478-1.259c-4.695 0-8.499 3.722-8.499 8.31 0 4.587 3.804 8.31 8.5 8.31 4.693 0 8.497-3.723 8.497-8.31 0-2.656-1.28-5.016-3.265-6.536M490.992 692.36h3.891v-5.622h6.67v1.385h-4.622v3.246h4.621v2.432h3.892v-25.917h-3.892v15.608h-19.801v3.246h9.24zM440.633 685.621l3.191-1.924-7.642-12.57h5.847v-3.243h-16.777v3.244h6.197l-7.641 12.569 3.195 1.924 6.815-11.203zM247.792 671.166v-3.243h-20.885v3.243H243.9v8.843h-19.507v3.244h11.456v4.231h-9.157v3.244h18.002v9.778h3.895v-13.022h-8.848v-4.23H250v-3.245h-2.209zM387.476 689.345h3.892V667.922h-21.682v3.245h17.79z" style="stroke-width:1.95167" transform="translate(-84.819 -256.661)"/><path fill="#4c4d4e" d="M383.892 678.396H380v10.976h-3.583v-10.976h-3.89v10.976h-4.953v3.243h26.006v-3.243h-9.688zM318.611 671.242h3.343v8.578h-3.343zm9.48 8.578h-2.245v-8.578h2.244V668h-15.564v3.242h2.191v8.578h-2.191v3.243h15.564zM491.518 669.672c2.549 0 4.612 2.096 4.612 4.68 0 2.586-2.063 4.682-4.612 4.682-2.547 0-4.612-2.096-4.612-4.682 0-2.584 2.065-4.68 4.612-4.68m0 12.606c4.477 0 8.103-3.548 8.103-7.926 0-4.375-3.626-7.924-8.103-7.924s-8.103 3.549-8.103 7.924c0 4.378 3.626 7.926 8.103 7.926M411.113 689.371h-4.901v-3.244h4.9zm-15.196-3.244h6.403v3.244h-4.163v3.246h18.004v7.89h3.892v-11.136h-5.05v-3.244h6.403v-3.243h-25.49zM203.162 690.18h-3.894V700.434h20.967v-3.24h-17.073zM488.655 697.194v-8.18h-3.891v11.42h21.363v-3.24zM432.224 689.014h-3.89v11.42H449.299v-3.24h-17.074zM298.716 682.69l3.05-1.911-8.62-13.58h-1.96l-8.622 13.58 3.05 1.91 6.554-10.27zM197.01 712.018h1.843v4.364h.043l4.327-4.364h2.486l-4.84 4.667 5.16 5.433h-2.588l-4.545-5.064h-.043v5.064h-1.842zM208.105 717.038c0 .543.084 1.04.256 1.491a3.407 3.407 0 0 0 1.856 1.956c.433.185.913.277 1.44.277.525 0 1.007-.092 1.448-.277a3.381 3.381 0 0 0 1.132-.779c.316-.332.56-.724.73-1.177a4.16 4.16 0 0 0 .256-1.49c0-.524-.084-1.01-.256-1.455a3.537 3.537 0 0 0-.722-1.17 3.378 3.378 0 0 0-1.126-.785 3.658 3.658 0 0 0-1.462-.285c-.537 0-1.023.095-1.454.285-.435.193-.808.45-1.118.784a3.51 3.51 0 0 0-.724 1.171c-.172.445-.256.931-.256 1.454m-2.003 0c0-.808.139-1.54.416-2.19a4.852 4.852 0 0 1 1.154-1.662 5.169 5.169 0 0 1 1.756-1.056 6.393 6.393 0 0 1 2.213-.371c.808 0 1.556.123 2.237.37a5.212 5.212 0 0 1 1.77 1.057 4.792 4.792 0 0 1 1.161 1.663c.277.65.416 1.381.416 2.19 0 .788-.139 1.508-.416 2.16a5.038 5.038 0 0 1-1.16 1.686 5.335 5.335 0 0 1-1.771 1.097c-.681.263-1.429.392-2.237.392a6.052 6.052 0 0 1-2.213-.392 5.293 5.293 0 0 1-1.756-1.097 5.104 5.104 0 0 1-1.154-1.686c-.277-.652-.416-1.372-.416-2.16M222.358 716.368c.261 0 .526-.02.788-.057.264-.04.5-.111.71-.215a1.4 1.4 0 0 0 .52-.449c.134-.195.203-.445.203-.747 0-.277-.065-.504-.19-.68a1.416 1.416 0 0 0-.484-.419 2.058 2.058 0 0 0-.663-.217 4.92 4.92 0 0 0-.724-.056h-1.667v2.84zm-3.348-4.35h3.595c.488 0 .96.05 1.42.15.456.097.862.261 1.22.491.354.229.64.527.854.9.215.369.322.822.322 1.355 0 .733-.213 1.329-.636 1.79-.424.46-1.002.772-1.731.934l2.761 4.48h-2.22l-2.4-4.279h-1.344v4.278h-1.84zM228.204 712.018h6.856v1.567h-5.016v2.569h4.753v1.514h-4.753v2.85h5.278v1.6h-7.118zM242.702 718.266l-1.592-4.108-1.622 4.108zm-2.338-6.247h1.595l4.457 10.1h-2.105l-.965-2.313h-4.486l-.935 2.312h-2.061zM247.44 712.018h2.44l4.809 7.563h.03v-7.563h1.842v10.1h-2.339l-4.912-7.805h-.03v7.805h-1.84zM262.495 712.018h1.842v10.1h-1.842zM266.618 712.018h2.442l4.808 7.563h.03v-7.563h1.842v10.1h-2.338l-4.912-7.805h-.032v7.805h-1.84zM283.297 714.13c-.197-.25-.473-.457-.826-.62a2.495 2.495 0 0 0-1.717-.172c-.217.05-.412.132-.586.244-.175.105-.32.251-.431.427a1.136 1.136 0 0 0-.168.632c0 .229.049.424.146.586.098.162.233.298.403.412.17.117.376.214.62.302.244.084.511.172.804.256.332.105.676.224 1.03.357.356.135.684.308.98.529.297.218.541.494.73.825.192.334.287.748.287 1.242 0 .542-.103 1.016-.308 1.419a2.854 2.854 0 0 1-.818 1.005c-.343.267-.741.47-1.2.6a5.23 5.23 0 0 1-1.446.202c-.672 0-1.33-.123-1.973-.363-.644-.244-1.17-.603-1.58-1.08l1.316-1.198c.254.342.591.615 1.017.814.423.2.84.299 1.249.299.215 0 .433-.024.658-.078.224-.053.427-.141.607-.262.18-.127.326-.281.439-.466.111-.186.166-.416.166-.69 0-.267-.063-.49-.19-.667a1.662 1.662 0 0 0-.511-.455 3.665 3.665 0 0 0-.76-.333l-.92-.303a8.855 8.855 0 0 1-.935-.341 3.097 3.097 0 0 1-.841-.53 2.508 2.508 0 0 1-.607-.805c-.156-.317-.235-.715-.235-1.189 0-.515.11-.958.33-1.327.219-.37.506-.68.863-.921.355-.242.76-.424 1.212-.543a5.076 5.076 0 0 1 2.984.092 3.972 3.972 0 0 1 1.41.816zM288.266 713.585h-3.172v-1.567h8.185v1.567h-3.173v8.533h-1.84zM294.479 712.018h1.84v10.1h-1.84zM300.691 713.585h-3.171v-1.567h8.185v1.567h-3.173v8.533h-1.84zM315.147 718.409c0 .609-.108 1.157-.322 1.649a3.644 3.644 0 0 1-.879 1.245 3.852 3.852 0 0 1-1.315.794 4.813 4.813 0 0 1-1.651.278 4.814 4.814 0 0 1-1.651-.278 3.964 3.964 0 0 1-1.323-.794 3.513 3.513 0 0 1-.877-1.245c-.21-.492-.314-1.04-.314-1.65v-6.389h1.84v6.318c0 .294.04.589.12.878.076.29.206.548.386.779.18.226.418.411.716.556.297.14.664.213 1.103.213.439 0 .806-.073 1.105-.213.296-.145.534-.33.716-.556.18-.23.308-.488.386-.78.078-.288.12-.583.12-.877v-6.318h1.84zM319.43 713.585h-3.172v-1.567h8.185v1.567h-3.173v8.533h-1.84zM325.643 712.018h6.854v1.567h-5.014v2.569h4.752v1.514h-4.752v2.85h5.275v1.6h-7.115zM338.212 712.018h6.681v1.567h-4.84v2.77h4.56v1.51h-4.56v4.253h-1.84zM348.095 717.038c0 .543.084 1.04.253 1.491a3.376 3.376 0 0 0 1.858 1.956c.434.185.916.277 1.44.277.526 0 1.008-.092 1.447-.277a3.37 3.37 0 0 0 1.134-.779c.316-.332.56-.724.73-1.177a4.16 4.16 0 0 0 .255-1.49c0-.524-.083-1.01-.255-1.455a3.537 3.537 0 0 0-.722-1.17 3.418 3.418 0 0 0-1.126-.785 3.658 3.658 0 0 0-1.462-.285c-.537 0-1.023.095-1.456.285-.432.193-.806.45-1.117.784a3.546 3.546 0 0 0-.726 1.171 4.05 4.05 0 0 0-.253 1.454m-2.003 0c0-.808.139-1.54.418-2.19a4.773 4.773 0 0 1 1.153-1.662 5.141 5.141 0 0 1 1.755-1.056 6.385 6.385 0 0 1 2.213-.371c.81 0 1.554.123 2.237.37a5.23 5.23 0 0 1 1.77 1.057 4.766 4.766 0 0 1 1.161 1.663c.277.65.416 1.381.416 2.19 0 .788-.139 1.508-.416 2.16a5.01 5.01 0 0 1-1.161 1.686 5.355 5.355 0 0 1-1.77 1.097 6.156 6.156 0 0 1-2.237.392 6.044 6.044 0 0 1-2.213-.392 5.264 5.264 0 0 1-1.755-1.097 5.018 5.018 0 0 1-1.153-1.686c-.28-.652-.418-1.372-.418-2.16M362.346 716.368c.262 0 .527-.02.789-.057.263-.04.5-.111.708-.215a1.39 1.39 0 0 0 .521-.449c.135-.195.203-.445.203-.747 0-.277-.064-.504-.19-.68a1.416 1.416 0 0 0-.483-.419 2.058 2.058 0 0 0-.664-.217 4.92 4.92 0 0 0-.724-.056h-1.666v2.84zm-3.347-4.35h3.595c.488 0 .96.05 1.419.15.457.097.863.261 1.22.491.355.229.64.527.855.9.214.369.322.822.322 1.355 0 .733-.213 1.329-.639 1.79-.421.46-.999.772-1.73.934l2.763 4.48h-2.221l-2.399-4.279h-1.344v4.278H359zM380.909 721.59a8.05 8.05 0 0 1-1.731.577c-.629.137-1.353.207-2.172.207-.838 0-1.603-.128-2.294-.392a5.3 5.3 0 0 1-1.783-1.097 5.001 5.001 0 0 1-1.162-1.686c-.279-.652-.417-1.372-.417-2.16 0-.809.144-1.54.433-2.19a4.845 4.845 0 0 1 1.183-1.663 5.295 5.295 0 0 1 1.776-1.056 6.453 6.453 0 0 1 2.22-.37c.83 0 1.587.116 2.274.35.687.233 1.24.54 1.66.92l-1.273 1.34c-.262-.286-.63-.526-1.103-.727a3.934 3.934 0 0 0-1.542-.299c-.546 0-1.04.096-1.483.285-.445.193-.822.45-1.134.784a3.542 3.542 0 0 0-.724 1.171 4.05 4.05 0 0 0-.254 1.454c0 .543.084 1.04.254 1.492.172.452.416.845.732 1.176.318.332.7.594 1.155.78.453.185.966.276 1.542.276.789 0 1.476-.117 2.06-.355v-2.568h-2.177v-1.486h3.96zM383.147 712.018H390v1.567h-5.014v2.569h4.75v1.514h-4.75v2.85h5.277v1.6h-7.117zM392.063 712.018h2.441l4.81 7.563h.026v-7.563h1.845v10.1h-2.34l-4.91-7.805h-.032v7.805h-1.84zM406.841 720.55c.476 0 .952-.055 1.433-.165a3.8 3.8 0 0 0 1.292-.556c.386-.264.7-.619.942-1.064.244-.447.365-1.015.365-1.696 0-.724-.12-1.313-.365-1.772a2.86 2.86 0 0 0-.942-1.067 3.508 3.508 0 0 0-1.292-.531 7.454 7.454 0 0 0-1.433-.14h-1.536v6.99zm-3.376-8.532h3.667c.673 0 1.35.084 2.032.256a5.362 5.362 0 0 1 1.844.847c.544.394.987.913 1.327 1.558.342.64.513 1.438.513 2.39 0 .884-.171 1.644-.513 2.284a4.674 4.674 0 0 1-1.327 1.565 5.634 5.634 0 0 1-1.844.908 7.348 7.348 0 0 1-2.032.292h-3.667zM414.633 712.018h6.854v1.567h-5.014v2.569h4.75v1.514h-4.75v2.85h5.275v1.6h-7.115zM426.895 716.368c.264 0 .527-.02.789-.057.263-.04.5-.111.71-.215a1.38 1.38 0 0 0 .517-.449c.139-.195.207-.445.207-.747 0-.277-.066-.504-.191-.68a1.398 1.398 0 0 0-.484-.419 2.058 2.058 0 0 0-.664-.217 4.941 4.941 0 0 0-.724-.056h-1.664v2.84zm-3.347-4.35h3.595c.488 0 .96.05 1.419.15.457.097.865.261 1.22.491.357.229.642.527.855.9.214.369.322.822.322 1.355 0 .733-.213 1.329-.637 1.79-.423.46-1 .772-1.733.934l2.762 4.48h-2.22l-2.398-4.279h-1.342v4.278h-1.843zM436.398 712.018h6.855v1.567h-5.014v2.569h4.75v1.514h-4.75v2.85h5.275v1.6h-7.116zM450.255 713.371c-.5 0-.965.092-1.398.272a3.44 3.44 0 0 0-1.118.743 3.454 3.454 0 0 0-.74 1.128c-.18.434-.27.91-.27 1.425 0 .54.087 1.032.258 1.477.168.443.408.818.715 1.134.308.313.673.557 1.104.734.43.178.9.266 1.417.266a3.69 3.69 0 0 0 1.411-.266 3.365 3.365 0 0 0 1.119-.734c.31-.316.554-.69.73-1.134.175-.445.263-.936.263-1.477 0-.515-.082-.991-.248-1.425a3.234 3.234 0 0 0-.708-1.128 3.34 3.34 0 0 0-1.105-.743 3.665 3.665 0 0 0-1.43-.272m6.21 8.746h-6.242c-.827 0-1.58-.115-2.26-.348a4.923 4.923 0 0 1-1.737-1.015 4.436 4.436 0 0 1-1.118-1.627c-.262-.64-.396-1.368-.396-2.188 0-.77.138-1.472.417-2.104a4.848 4.848 0 0 1 1.164-1.635 5.438 5.438 0 0 1 1.76-1.064 6.269 6.269 0 0 1 2.201-.377c.787 0 1.519.125 2.192.377.672.256 1.255.61 1.747 1.064a4.776 4.776 0 0 1 1.146 1.635c.273.632.41 1.333.41 2.104 0 .459-.053.876-.16 1.255-.108.38-.246.728-.416 1.036a4.115 4.115 0 0 1-1.267 1.403v.03h2.559zM466.01 718.409c0 .609-.107 1.157-.321 1.649a3.666 3.666 0 0 1-.877 1.245 3.89 3.89 0 0 1-1.315.794 4.833 4.833 0 0 1-1.653.278 4.822 4.822 0 0 1-1.651-.278 3.964 3.964 0 0 1-1.323-.794 3.537 3.537 0 0 1-.877-1.245 4.141 4.141 0 0 1-.316-1.65v-6.389h1.844v6.318c0 .294.038.589.116.878.078.29.208.548.388.779.18.226.418.411.716.556.297.14.666.213 1.103.213.439 0 .806-.073 1.105-.213.296-.145.534-.33.716-.556.18-.23.308-.488.386-.78.078-.288.117-.583.117-.877v-6.318h1.843zM473.581 718.266l-1.59-4.108-1.622 4.108zm-2.338-6.247h1.593l4.46 10.1h-2.107l-.964-2.313h-4.487l-.935 2.312h-2.063zM478.317 712.018h1.843v8.5h4.4v1.6h-6.243zM485.79 712.018h1.84v10.1h-1.84zM492 713.585h-3.173v-1.567h8.187v1.567h-3.174v8.533H492z" style="stroke-width:1.95167" transform="translate(-84.819 -256.661)"/><path fill="#4c4d4e" d="m500.537 717.736-3.888-5.718h2.248l2.604 4.25 2.63-4.25h2.136l-3.89 5.718v4.381h-1.84zM200.14 733.546c.3 0 .589-.022.86-.063.273-.045.517-.119.732-.228.214-.111.384-.26.511-.451s.191-.437.191-.742c0-.294-.064-.534-.191-.72a1.305 1.305 0 0 0-.504-.437 2.326 2.326 0 0 0-.716-.205 6.366 6.366 0 0 0-.825-.049h-1.345v2.895zm-3.13-4.41h3.377c.593 0 1.13.056 1.608.157.478.107.886.28 1.228.515.34.236.605.54.788.914.186.37.28.817.28 1.34 0 .56-.11 1.033-.323 1.413-.212.381-.503.685-.87.92a3.819 3.819 0 0 1-1.279.505 7.32 7.32 0 0 1-1.55.156h-1.416v4.183h-1.842zM209.274 733.487c.264 0 .527-.018.789-.055.263-.037.5-.11.71-.215.209-.103.383-.254.52-.449.136-.195.204-.445.204-.75 0-.274-.066-.5-.191-.676a1.407 1.407 0 0 0-.482-.42 2.054 2.054 0 0 0-.666-.217 5.173 5.173 0 0 0-.722-.054h-1.667v2.835zm-3.347-4.35h3.595c.488 0 .96.05 1.419.15.458.1.864.263 1.22.493.355.227.642.527.854.898.215.373.323.822.323 1.357 0 .731-.211 1.33-.637 1.79-.423.462-.999.77-1.73.934l2.76 4.48h-2.22l-2.397-4.28h-1.345v4.28h-1.842zM216.627 734.16c0 .542.084 1.038.254 1.492.172.45.416.842.732 1.173.316.336.693.596 1.128.78.431.184.913.276 1.438.276.525 0 1.007-.092 1.446-.277.44-.183.816-.443 1.134-.779.317-.331.56-.724.73-1.173.172-.454.256-.95.256-1.493a4 4 0 0 0-.256-1.454 3.537 3.537 0 0 0-.722-1.17 3.342 3.342 0 0 0-1.126-.785 3.625 3.625 0 0 0-1.462-.287c-.536 0-1.022.096-1.454.287a3.357 3.357 0 0 0-1.12.784 3.542 3.542 0 0 0-.724 1.171c-.17.445-.254.93-.254 1.454m-2.002 0c0-.81.138-1.538.417-2.19a4.781 4.781 0 0 1 1.154-1.662 5.141 5.141 0 0 1 1.754-1.056 6.385 6.385 0 0 1 2.214-.37c.81 0 1.553.122 2.236.37.683.248 1.273.6 1.77 1.056a4.748 4.748 0 0 1 1.162 1.663c.279.651.415 1.38.415 2.19 0 .79-.136 1.51-.415 2.16a5.03 5.03 0 0 1-1.162 1.686 5.335 5.335 0 0 1-1.77 1.097 6.197 6.197 0 0 1-2.236.39 6.085 6.085 0 0 1-2.214-.39 5.264 5.264 0 0 1-1.754-1.097 5.066 5.066 0 0 1-1.154-1.686c-.279-.65-.417-1.37-.417-2.16M227.531 729.137h2.879l2.691 7.177h.043l2.66-7.177h2.894v10.102h-1.826v-8.119h-.03l-3.142 8.12h-1.288l-3.099-8.12h-.03v8.12h-1.752zM242.485 734.16c0 .542.084 1.038.254 1.492.171.45.413.842.732 1.173.316.336.69.596 1.126.78.433.184.913.276 1.44.276.525 0 1.007-.092 1.446-.277.44-.183.816-.443 1.134-.779.316-.331.56-.724.73-1.173.172-.454.256-.95.256-1.493 0-.525-.084-1.009-.256-1.454a3.537 3.537 0 0 0-.722-1.17 3.36 3.36 0 0 0-1.126-.785 3.625 3.625 0 0 0-1.462-.287 3.57 3.57 0 0 0-1.456.287 3.321 3.321 0 0 0-1.116.784 3.547 3.547 0 0 0-.726 1.171c-.17.445-.254.93-.254 1.454m-2.002 0c0-.81.138-1.538.415-2.19a4.786 4.786 0 0 1 1.156-1.662 5.141 5.141 0 0 1 1.754-1.056 6.385 6.385 0 0 1 2.213-.37c.81 0 1.554.122 2.237.37.681.248 1.27.6 1.768 1.056a4.728 4.728 0 0 1 1.163 1.663c.278.651.416 1.38.416 2.19 0 .79-.138 1.51-.416 2.16a5.006 5.006 0 0 1-1.163 1.686 5.346 5.346 0 0 1-1.768 1.097 6.197 6.197 0 0 1-2.237.39 6.085 6.085 0 0 1-2.213-.39 5.264 5.264 0 0 1-1.754-1.097 5.07 5.07 0 0 1-1.156-1.686c-.277-.65-.415-1.37-.415-2.16M255.041 730.706h-3.173v-1.57h8.187v1.57h-3.173v8.533h-1.84zM261.253 729.136h1.84v10.102h-1.84zM266.88 734.16c0 .542.085 1.038.255 1.492.171.45.415.842.731 1.173.317.336.691.596 1.127.78.433.184.913.276 1.44.276.525 0 1.007-.092 1.446-.277.44-.183.816-.443 1.134-.779.316-.331.56-.724.73-1.173.172-.454.256-.95.256-1.493 0-.525-.084-1.009-.256-1.454a3.537 3.537 0 0 0-.722-1.17 3.361 3.361 0 0 0-1.126-.785 3.625 3.625 0 0 0-1.462-.287 3.57 3.57 0 0 0-1.456.287 3.349 3.349 0 0 0-1.118.784c-.31.334-.553.722-.724 1.171-.17.445-.254.93-.254 1.454m-2.003 0c0-.81.139-1.538.416-2.19a4.76 4.76 0 0 1 1.156-1.662 5.141 5.141 0 0 1 1.754-1.056 6.385 6.385 0 0 1 2.213-.37c.808 0 1.556.122 2.237.37.683.248 1.27.6 1.768 1.056a4.753 4.753 0 0 1 1.163 1.663c.277.651.416 1.38.416 2.19 0 .79-.139 1.51-.416 2.16a5.035 5.035 0 0 1-1.163 1.686 5.326 5.326 0 0 1-1.768 1.097 6.197 6.197 0 0 1-2.237.39 6.085 6.085 0 0 1-2.213-.39 5.264 5.264 0 0 1-1.754-1.097 5.043 5.043 0 0 1-1.156-1.686c-.277-.65-.416-1.37-.416-2.16M277.786 729.137h2.441l4.807 7.563h.03v-7.563h1.842v10.102h-2.338l-4.913-7.805h-.029v7.805h-1.84zM298.162 735.387l-1.592-4.108-1.622 4.108zm-2.338-6.25h1.593l4.46 10.102h-2.107l-.964-2.31h-4.487l-.937 2.31h-2.059zM302.897 729.137h2.442l4.807 7.563h.03v-7.563h1.843v10.102h-2.34l-4.91-7.805h-.031v7.805h-1.84zM317.675 737.668c.478 0 .954-.053 1.432-.164.479-.109.91-.292 1.294-.556.385-.26.7-.617.943-1.06.244-.45.365-1.015.365-1.7 0-.724-.12-1.311-.365-1.768a2.876 2.876 0 0 0-.943-1.071 3.545 3.545 0 0 0-1.294-.527 7.282 7.282 0 0 0-1.432-.145h-1.536v6.991zm-3.376-8.53h3.669c.673 0 1.348.085 2.031.257a5.336 5.336 0 0 1 1.843.847c.544.396.99.913 1.329 1.556.341.644.513 1.438.513 2.39 0 .884-.172 1.648-.513 2.284a4.705 4.705 0 0 1-1.33 1.567c-.546.41-1.159.712-1.842.906a7.361 7.361 0 0 1-2.031.294h-3.67zM329.121 729.137h6.854v1.57h-5.013v2.566h4.752v1.514h-4.752v2.852h5.277v1.6h-7.118zM341.414 737.668c.478 0 .955-.053 1.433-.164a3.75 3.75 0 0 0 1.294-.556c.384-.26.699-.617.94-1.06.246-.45.367-1.015.367-1.7 0-.724-.12-1.311-.366-1.768a2.855 2.855 0 0 0-.941-1.071 3.559 3.559 0 0 0-1.294-.527 7.282 7.282 0 0 0-1.433-.145h-1.536v6.991zm-3.376-8.53h3.67c.67 0 1.348.085 2.03.257a5.326 5.326 0 0 1 1.841.847c.547.396.99.913 1.331 1.556.342.644.512 1.438.512 2.39 0 .884-.17 1.648-.512 2.284a4.71 4.71 0 0 1-1.33 1.567 5.553 5.553 0 0 1-1.841.906 7.372 7.372 0 0 1-2.032.294h-3.67zM357.448 735.53a4.06 4.06 0 0 1-.322 1.647 3.648 3.648 0 0 1-.876 1.247 3.871 3.871 0 0 1-1.316.794 4.813 4.813 0 0 1-1.651.276 4.813 4.813 0 0 1-1.651-.276 3.964 3.964 0 0 1-1.323-.794 3.55 3.55 0 0 1-.879-1.247 4.16 4.16 0 0 1-.314-1.647v-6.392h1.84v6.32c0 .292.042.587.12.876.078.29.207.548.386.779.182.228.42.413.716.556.299.142.666.213 1.105.213.44 0 .806-.07 1.103-.213.296-.143.536-.328.716-.556.18-.23.31-.488.388-.78.078-.288.117-.583.117-.875v-6.32h1.84zM367.11 731.504a2.368 2.368 0 0 0-1.066-.79 3.647 3.647 0 0 0-2.748.035c-.439.191-.817.451-1.133.787-.317.333-.56.722-.73 1.169a4.017 4.017 0 0 0-.258 1.454c0 .552.084 1.056.25 1.512a3.4 3.4 0 0 0 .708 1.177c.307.328.676.584 1.105.763.427.184.91.271 1.446.271.556 0 1.048-.107 1.478-.32a2.856 2.856 0 0 0 1.036-.849l1.477 1.013a4.687 4.687 0 0 1-1.682 1.304c-.662.312-1.435.465-2.323.465-.81 0-1.551-.131-2.23-.39a5.175 5.175 0 0 1-1.747-1.1 5.003 5.003 0 0 1-1.14-1.684c-.271-.65-.408-1.37-.408-2.162 0-.81.143-1.538.432-2.19a4.826 4.826 0 0 1 1.182-1.661 5.263 5.263 0 0 1 1.776-1.056 6.453 6.453 0 0 1 3.26-.279c.36.06.706.156 1.038.287a5.2 5.2 0 0 1 .935.476c.293.19.542.42.745.685zM375.224 735.387l-1.593-4.108-1.622 4.108zm-2.339-6.25h1.595l4.458 10.102h-2.106l-.964-2.31h-4.49l-.934 2.31h-2.061zM381.174 730.706h-3.173v-1.57h8.187v1.57h-3.174v8.533h-1.84zM387.386 729.136h1.84v10.102h-1.84zM393.012 734.16c0 .542.086 1.038.255 1.492.172.45.416.842.732 1.173.316.336.693.596 1.124.78.436.184.916.276 1.44.276.528 0 1.01-.092 1.449-.277.439-.183.816-.443 1.134-.779.316-.331.56-.724.73-1.173.17-.454.255-.95.255-1.493 0-.525-.085-1.009-.255-1.454a3.51 3.51 0 0 0-.724-1.17 3.322 3.322 0 0 0-1.126-.785 3.605 3.605 0 0 0-1.462-.287c-.535 0-1.021.096-1.454.287a3.368 3.368 0 0 0-1.119.784 3.542 3.542 0 0 0-.724 1.171c-.17.445-.255.93-.255 1.454m-2 0c0-.81.136-1.538.415-2.19a4.78 4.78 0 0 1 1.153-1.662 5.141 5.141 0 0 1 1.755-1.056 6.4 6.4 0 0 1 2.213-.37c.81 0 1.556.122 2.239.37.683.248 1.272.6 1.768 1.056a4.779 4.779 0 0 1 1.163 1.663c.277.651.416 1.38.416 2.19 0 .79-.139 1.51-.416 2.16a5.063 5.063 0 0 1-1.163 1.686 5.306 5.306 0 0 1-1.768 1.097 6.208 6.208 0 0 1-2.239.39 6.1 6.1 0 0 1-2.213-.39 5.264 5.264 0 0 1-1.755-1.097 5.066 5.066 0 0 1-1.153-1.686c-.28-.65-.416-1.37-.416-2.16M403.917 729.137h2.442l4.809 7.563h.03v-7.563h1.842v10.102h-2.34l-4.911-7.805h-.031v7.805h-1.84z" style="stroke-width:1.95167" transform="translate(-84.819 -256.661)"/><path fill="#fbb037" d="M233.817 419.942c-3.53.864-7.376 1.296-11.538 1.296-4.318 0-8.287-.685-11.921-2.06-3.628-1.368-6.751-3.296-9.366-5.784-2.614-2.485-4.659-5.47-6.133-8.953-1.471-3.474-2.207-7.348-2.207-11.612 0-4.313.751-8.226 2.246-11.726 1.5-3.505 3.566-6.489 6.209-8.95 2.64-2.463 5.738-4.352 9.292-5.674 3.554-1.32 7.389-1.984 11.497-1.984 4.266 0 8.226.65 11.882 1.945 3.655 1.296 6.626 3.035 8.911 5.217l-8.224 9.372c-1.27-1.477-2.947-2.68-5.03-3.618-2.082-.937-4.44-1.413-7.082-1.413-2.288 0-4.392.417-6.318 1.257a15.181 15.181 0 0 0-5.03 3.507c-1.422 1.495-2.525 3.27-3.313 5.326-.785 2.057-1.175 4.305-1.175 6.741 0 2.49.353 4.778 1.062 6.854.712 2.085 1.766 3.874 3.163 5.373 1.394 1.495 3.119 2.662 5.178 3.5 2.057.839 4.401 1.258 7.042 1.258a26.69 26.69 0 0 0 4.346-.343c1.366-.23 2.64-.591 3.804-1.105v-9.824H220.83V388.03h22.242v28.56c-2.641 1.369-5.725 2.487-9.255 3.352M253.734 419.866v-53.921h36.25v10.968h-23.687v10.203h22.391v10.436h-22.391v11.195h25.055v11.119zM334.233 419.866l-21.707-35.263h-.228l.302 35.263h-12.64v-53.921h14.852l21.626 35.186h.225l-.299-35.186h12.643v53.92zM396.902 392.753c0-3.047-.49-5.57-1.478-7.58-.995-2.003-2.308-3.603-3.96-4.794-1.65-1.19-3.53-2.043-5.638-2.55a27.52 27.52 0 0 0-6.513-.764h-6.471v31.527h6.169c2.332 0 4.58-.265 6.737-.796 2.16-.535 4.065-1.41 5.716-2.627 1.652-1.225 2.965-2.845 3.96-4.875.988-2.034 1.478-4.545 1.478-7.541m13.564 0c0 4.723-.876 8.8-2.629 12.223-1.755 3.427-4.063 6.247-6.932 8.457-2.865 2.209-6.105 3.83-9.708 4.869a39.317 39.317 0 0 1-10.966 1.563h-20.109v-53.92h19.498c3.807 0 7.564.448 11.273 1.332 3.704.889 7.006 2.364 9.898 4.417 2.895 2.061 5.231 4.815 7.007 8.265 1.776 3.45 2.668 7.72 2.668 12.794M419.07 419.866v-53.921h36.25v10.968h-23.683v10.203h22.391v10.436h-22.392v11.195h25.056v11.119zM493.63 382.475c0-1.269-.272-2.301-.806-3.086a5.435 5.435 0 0 0-2.07-1.83c-.836-.432-1.78-.722-2.827-.875a21.067 21.067 0 0 0-3.027-.228h-6.96v12.567h6.199c1.071 0 2.172-.086 3.292-.267a10.408 10.408 0 0 0 3.058-.957 5.807 5.807 0 0 0 2.26-1.975c.584-.863.88-1.979.88-3.349m.532 37.39-11.709-21.398h-4.436v21.398H465.3v-53.92h20.565c2.586 0 5.113.267 7.574.802 2.46.53 4.673 1.436 6.63 2.7 1.952 1.271 3.511 2.946 4.68 5.028 1.171 2.083 1.755 4.674 1.755 7.77 0 3.653-.992 6.73-2.974 9.218-1.977 2.484-4.724 4.264-8.223 5.326l14.09 23.076zM195.168 578.924h314.18v-53.92h-314.18Z" style="stroke-width:1.95167" transform="translate(-84.819 -256.661)"/><path fill="#4c4d4e" d="M195.168 484.566V430.65h36.255v10.963H207.73v10.21h22.392v10.43H207.73v11.198h25.06v11.116zM283.055 457.077c0-2.336-.37-4.495-1.105-6.472-.743-1.98-1.78-3.687-3.124-5.11-1.345-1.414-2.961-2.523-4.839-3.311-1.877-.785-3.932-1.175-6.169-1.175-2.186 0-4.2.39-6.054 1.175a14.738 14.738 0 0 0-4.836 3.312c-1.368 1.422-2.436 3.128-3.193 5.11-.763 1.976-1.144 4.135-1.144 6.47 0 2.437.365 4.656 1.105 6.664.734 2.006 1.776 3.73 3.12 5.176a13.83 13.83 0 0 0 4.796 3.353c1.856.79 3.901 1.18 6.13 1.18 2.184 0 4.22-.39 6.097-1.18a14.184 14.184 0 0 0 4.871-3.353c1.372-1.446 2.438-3.17 3.2-5.176.762-2.008 1.145-4.227 1.145-6.663m-15.692 27.49c-4.264 0-8.171-.606-11.727-1.83-3.554-1.22-6.587-3.003-9.103-5.367-2.512-2.36-4.467-5.255-5.865-8.68-1.393-3.43-2.094-7.347-2.094-11.77 0-4.113.738-7.863 2.21-11.268 1.473-3.404 3.516-6.32 6.13-8.76 2.613-2.437 5.714-4.326 9.292-5.67 3.58-1.348 7.451-2.02 11.612-2.02 4.165 0 8.025.672 11.577 2.02 3.556 1.344 6.628 3.22 9.218 5.634 2.588 2.416 4.604 5.306 6.052 8.679 1.45 3.38 2.173 7.098 2.173 11.161 0 2.08-.229 4.025-.686 5.82-.456 1.81-1.067 3.445-1.824 4.918a21.031 21.031 0 0 1-2.596 3.921c-.962 1.14-1.928 2.095-2.892 2.852v.232l11.345-.232v10.36zM350.716 473.106c-1.09 2.664-2.654 4.953-4.682 6.856-2.032 1.903-4.483 3.386-7.35 4.45-2.869 1.07-6.052 1.604-9.555 1.604-3.558 0-6.755-.535-9.595-1.604-2.85-1.064-5.257-2.547-7.236-4.45-1.981-1.903-3.502-4.192-4.575-6.856-1.062-2.664-1.597-5.62-1.597-8.874v-33.583h12.952v32.515c0 1.476.183 2.875.568 4.19.38 1.326.964 2.504 1.752 3.545.785 1.04 1.83 1.865 3.123 2.474 1.294.61 2.855.914 4.684.914 1.83 0 3.39-.305 4.684-.914s2.346-1.434 3.154-2.474a9.742 9.742 0 0 0 1.756-3.545 16.11 16.11 0 0 0 .531-4.19V430.65h13.028v33.583c0 3.253-.549 6.21-1.642 8.874M383.581 445.039l-6.854 18.508h13.556zm14.47 39.527-4.192-10.584h-20.864l-3.96 10.584H354.87l22.62-53.917h12.64l22.39 53.917zM417.01 484.566V430.65h13.103v42.574h20.867v11.343zM457.074 430.65h13.098v53.916h-13.098zM556.306 430.65l-11.5 19.955-11.498-19.956h-57.2v11.12h15.233v42.797h13.023v-42.798H519.6v-7.973l18.203 27.929v22.842h13.02v-22.842l20.715-31.075zM195.168 640.927h376.325v-53.915H195.168Z" style="stroke-width:1.95167" transform="translate(-84.819 -256.661)"/></svg>