<svg xmlns="http://www.w3.org/2000/svg" width="792.16144pt" height="450.00003pt" viewBox="0 0 792.16146 450.00003"><path fill="#e71f2a" d="M686.015 0c-8.681 0-15.725 7.052-15.725 15.725v99.59c-.008 6.764-5.806 10.318-11.532 10.318-3.25 0-6.366-.918-10.774-5.295-.503-.543-31.921-34.676-45.107-48.996L654.684 0h-31.003c-5.23.12-9.87 2.444-13.121 6.054-18.536 25.62-52.27 72.14-67.221 92.69l-2.212 3.385c-2.229 3.403-5.144 2.524-5.144-1.11V0h-22.665c-5.255 0-9.527 4.265-9.527 9.52v114.652c0 30.148 29.533 42.152 54.65 8.37l25.604-35.22 41.098 44.651c.144.16.303.328.455.463 9.847 9.872 20.685 14.655 33.16 14.655 24.118 0 42.982-18.328 42.982-41.776V88.48h67.596c5.263 0 9.52-4.257 9.52-9.504V59.362h-77.108V31.466h80.934c5.239 0 9.48-4.265 9.48-9.52V0Z" style="fill:#fa142f;fill-opacity:1;stroke-width:7.98634"/><path d="M.012 330.459v2.94H778.84v-2.94z" style="color:#000;font-style:normal;font-variant:normal;font-weight:400;font-stretch:normal;font-size:medium;font-family:sans-serif;font-variant-ligatures:normal;font-variant-position:normal;font-variant-caps:normal;font-variant-numeric:normal;font-variant-alternates:normal;font-variant-east-asian:normal;font-feature-settings:normal;text-indent:0;text-decoration:none;text-decoration-line:none;text-decoration-style:solid;text-decoration-color:#000;letter-spacing:normal;word-spacing:normal;text-transform:none;writing-mode:lr-tb;direction:ltr;text-orientation:mixed;dominant-baseline:auto;baseline-shift:baseline;text-anchor:start;clip-rule:nonzero;display:inline;overflow:visible;visibility:visible;opacity:1;color-interpolation:sRGB;vector-effect:none;fill:#7f7f79;fill-opacity:1;fill-rule:nonzero;stroke:none;stroke-width:2.93898;stroke-linecap:butt;stroke-linejoin:miter;stroke-miterlimit:4;stroke-dasharray:none;stroke-dashoffset:0;stroke-opacity:1;color-rendering:auto;image-rendering:auto;shape-rendering:auto;text-rendering:auto;enable-background:accumulate;stop-color:#000;stop-opacity:1"/><path fill="#bdbaba" d="m59.291 144.24-28.255-35.085L67.03 70.102v-.152H53.198L16.1 111.807l30.268 38.63c4.545 5.774 9.704 6.644 16.556 6.644h13.122v-.4c-7.1-3.297-12.435-7.003-16.756-12.442" style="fill:#7f7f79;fill-opacity:1;stroke-width:7.98634"/><path fill="#bdbaba" d="M0 157.09h14.28V69.95H0Z" style="fill:#7f7f79;fill-opacity:1;stroke-width:7.98635"/><path fill="#bdbaba" d="m231.233 148.683-27.489-34.117c11.525-1.981 21.564-10.558 21.564-22.202 0-12.052-10.215-22.41-28.951-22.41h-27.114v87.13H183.5V79.499h9.488c7.778 0 18.057 2.523 18.057 13.369 0 12.442-12.994 17.338-24.207 18.943 0 0 19.383 25.453 23.64 30.476 27.76 32.513 51.304 26.49 51.304 26.49s-14.727-1.548-30.548-20.093" style="fill:#7f7f79;fill-opacity:1;stroke-width:7.98634"/><path fill="#bdbaba" d="M252.206 157.078h50.649v-9.496c-5.782-.024-28.136.04-36.394 0v-31.626h27.729v-9.543H266.46V79.515c6.453-.024 22.41-.024 36.394-.024v-9.536h-50.65z" style="fill:#7f7f79;fill-opacity:1;stroke-width:7.98634"/><path fill="#bdbaba" d="m340.01 114.579 13.178-31.043 13.122 31.043zm22.93-44.636h-15.143l-36.929 87.139h11.141l13.953-32.968h34.413l13.96 32.968h15.525z" style="fill:#7f7f79;fill-opacity:1;stroke-width:7.98635"/><path fill="#bdbaba" d="M224.5 255.697c0 4.768.12 8.082-2.946 12.043-4.616 6.246-12.595 9.305-20.405 9.305-14.408 0-22.258-8.226-22.258-25.86v-53.916h-14.264v53.916c0 9.543-.255 18.424 7.132 26.123 6.325 6.469 16.085 9.232 25.3 9.232 9.808 0 21.284-3.154 27.442-10.837v8.72h14.264V197.27H224.5zM321.369 264.568l-55.25-67.277h-13.145v87.123h10.079v-68.451l47.894 58.236c6.157 7.531 10.55 11.317 20.493 14.48V197.29h-10.071z" style="fill:#7f7f79;fill-opacity:1;stroke-width:7.98634"/><path fill="#bdbaba" d="M494.486 206.819h26.228v77.595h14.28v-77.595h27.888v-9.552h-68.396zM573.26 284.424h14.256v-87.147H573.26z" style="fill:#7f7f79;fill-opacity:1;stroke-width:7.98635"/><path fill="#bdbaba" d="M.012 284.396h14.28v-42.544h38.773v-9.432c0-.032-31.594-.016-38.773 0v-25.644h44.555v-9.496c-14.311-.008-58.835 0-58.835 0z" style="fill:#7f7f79;fill-opacity:1;stroke-width:7.98634"/><path fill="#bdbaba" d="m446.924 241.896 13.145-31.05 13.17 31.05zm7.787-44.628L417.758 284.4h11.149l13.952-32.983h34.42l13.945 32.983h15.534l-36.905-87.13z" style="fill:#7f7f79;fill-opacity:1;stroke-width:7.98635"/><path fill="#bdbaba" d="M768.776 197.27v67.292L713.55 197.27H700.39v87.147h10.078V215.95l47.903 58.229c6.141 7.563 10.55 11.332 20.469 14.51V197.27zM113.482 152.168c-21.867 0-28.935-21.284-28.935-38.406 0-17.083 7.068-38.383 28.935-38.383 21.898 0 28.958 21.3 28.958 38.383 0 17.122-7.06 38.406-28.958 38.406m43.685-38.406c0-22.186-9.456-46.05-43.661-46.05v-.008h-.032v.008c-34.222 0-43.685 23.864-43.685 46.05 0 22.226 9.463 46.057 43.685 46.073v.016h.032v-.016c34.205-.016 43.661-23.847 43.661-46.073M108.879 279.717c-21.883 0-28.943-21.3-28.943-38.398 0-17.115 7.06-38.39 28.943-38.39 21.874 0 28.942 21.275 28.942 38.39 0 17.098-7.068 38.398-28.942 38.398m43.693-38.398c0-22.218-9.464-46.058-43.685-46.066h-.024c-34.222.008-43.686 23.848-43.686 46.066 0 22.21 9.464 46.057 43.686 46.065h.024c34.221-.008 43.685-23.855 43.685-46.065M643.97 279.717c-21.9 0-28.951-21.3-28.951-38.398 0-17.115 7.052-38.39 28.95-38.39 21.85 0 28.943 21.275 28.943 38.39 0 17.098-7.092 38.398-28.943 38.398m43.678-38.398c0-22.218-9.464-46.058-43.678-46.066h-.032c-34.213.008-43.67 23.848-43.67 46.066 0 22.186 9.457 46.057 43.67 46.065h.032c34.214-.008 43.678-23.88 43.678-46.065M381.467 275.241l-21.531-.343v-68.451h21.53c18.338 0 24.255 19.055 24.255 34.39 0 15.317-5.917 34.404-24.254 34.404m-1.741-77.97v-.008h-.032v.008h-34.046v87.123H379.726c32.057-.008 40.922-22.562 40.922-43.558s-8.865-43.565-40.922-43.565M332.962 424.603h-19.056v-12.722h27.673v-5.375h-11.077c.727-1.038 1.334-2.66 1.94-4.912.56-2.268.831-4.368.831-6.293v-15.733h-48.445v5.399h38.422v10.614c0 1.996-.071 3.937-.231 5.854-.216 1.892-.56 3.602-1.118 5.071h-45.674v5.375h27.665v12.722h-20.07v5.39h39.157V450h5.862a4.12 4.12 0 0 0 4.12-4.121s0-.024.025-.032zM485.606 379.117h-9.368l-.016 70.855h5.215c.016-.056.016-.056.04-.056 2.3 0 4.129-1.853 4.129-4.097v-.064zM470.315 379.117h-9.296v17.338h-10.99v5.351h10.99l-.032 48.166h5.167c.016-.056.016-.056.048-.056a4.109 4.109 0 0 0 4.113-4.097v-.064zM442.234 384.625h-7.914v10.782c0 6.828-1.158 12.89-4.257 17.722-3.346 5.183-8.61 8.058-11.26 9.152l4.527 3.546c2.309-.471 7.643-3.554 10.135-5.974 3.426-3.378 5.782-7.267 6.317-10.741z" style="fill:#7f7f79;fill-opacity:1;stroke-width:7.98634"/><path fill="#bdbaba" d="M436.26 384.625h7.907v10.782c0 6.828 1.174 12.89 4.273 17.722 3.346 5.183 8.609 8.058 11.252 9.152l-4.512 3.546c-2.308-.471-7.627-3.554-10.119-5.974-3.466-3.378-5.822-7.267-6.349-10.741z" style="fill:#7f7f79;fill-opacity:1;stroke-width:7.98634"/><path fill="#bdbaba" d="M424.268 381.417v5.374h29.997v-5.374z" style="fill:#7f7f79;fill-opacity:1;stroke-width:7.98635"/><path fill="#bdbaba" d="M541.21 407.217c0 5.295-.144 9.64-.456 13.073-.335 3.443-1.213 6.39-2.707 8.85h8.522c1.381-2.26 2.467-5.144 3.25-8.666.767-3.514 1.15-7.659 1.15-12.419v-27.433h-50.442v5.399h40.683z" style="fill:#7f7f79;fill-opacity:1;stroke-width:7.98634"/><path fill="#bdbaba" d="M534.05 405.262h-9.608v29.278h-7.067v-29.278h-9.616v29.278H495.14v5.383h63.06v-5.383h-24.15z" style="fill:#7f7f79;fill-opacity:1;stroke-width:7.98635"/><path fill="#bdbaba" d="M611.201 394.023h-38.326v12.354c0 2.277.63 4.034 1.853 5.192 1.206 1.158 3.034 1.717 5.446 1.717h42.168v-5.391h-39.484v-8.458h38.358v-19.542h-49.1v5.367h39.085zM613.824 425.606h15.829v-5.407h-65.384v5.407h17.218v24.326h5.79c.024 0 .04-.024.04-.024 2.284 0 4.145-1.829 4.145-4.113v-.048l.024-20.141h12.3v24.326h5.83c.015 0 .015-.024.047-.024 2.26 0 4.121-1.829 4.121-4.113 0-.048.008-.048.008-.048zM658.35 384.625h-7.9v10.782c0 6.828-1.157 12.89-4.272 17.722-3.33 5.183-8.61 8.058-11.26 9.152l4.544 3.546c2.292-.471 7.627-3.554 10.086-5.974 3.467-3.378 5.815-7.267 6.382-10.741z" style="fill:#7f7f79;fill-opacity:1;stroke-width:7.98634"/><path fill="#bdbaba" d="M652.365 384.625h7.915v10.782c0 6.828 1.166 12.89 4.28 17.722 3.315 5.183 8.602 8.058 11.261 9.152l-4.552 3.546c-2.3-.471-7.635-3.554-10.103-5.974-3.434-3.378-5.798-7.267-6.341-10.741z" style="fill:#7f7f79;fill-opacity:1;stroke-width:7.98634"/><path fill="#bdbaba" d="M640.387 381.417v5.374H670.36v-5.374z" style="fill:#7f7f79;fill-opacity:1;stroke-width:7.98635"/><path fill="#bdbaba" d="M701.936 379.117h-9.4v19.23h-6.684v-19.23h-9.36v70.799h5.2c.015 0 .039-.016.055-.016a4.095 4.095 0 0 0 4.105-4.09v-42.047h6.685l.008 46.153h5.199c.024 0 .04-.016.056-.016 2.292 0 4.12-1.837 4.12-4.09 0-.055.017-.055.017-.055zM237.077 416.664c3.442-3.162 5.207-6.956 5.207-11.388 0-2.707-.703-5.215-2.108-7.5-1.43-2.267-3.243-4.136-5.503-5.59h10.31v-5.35h-15.397v-8.498h-9.975v8.497h-15.406v5.351h10.247c-2.213 1.454-4.01 3.323-5.423 5.59-1.406 2.285-2.108 4.793-2.108 7.5 0 4.432 1.733 8.226 5.223 11.388 3.482 3.203 7.659 4.784 12.466 4.784 4.864 0 9-1.581 12.467-4.784m-18.017-3.673c-1.526-2.157-2.324-4.728-2.324-7.715 0-2.963.798-5.535 2.324-7.69 1.533-2.157 3.378-3.251 5.55-3.251 2.213 0 4.05 1.094 5.559 3.25 1.517 2.156 2.284 4.728 2.284 7.69 0 2.988-.767 5.56-2.284 7.716-1.51 2.132-3.346 3.226-5.559 3.226-2.172 0-4.017-1.094-5.55-3.226M226.911 426.983h-10.007v15.637c0 2.308.72 4.089 2.157 5.383 1.453 1.278 3.274 1.917 5.446 1.917h40.084v-5.391h-37.68zM262.13 379.117h-10.007v52.35h5.886c2.26 0 4.113-1.868 4.113-4.16 0 0 .008-.009.008-.04v-26.611h11.516v-5.375H262.13zM394.886 450h5.822c.008-.008.008-.008.04-.008a4.116 4.116 0 0 0 4.128-4.113s0-.024.024-.04l-.024-21.212h-19.055v-12.746h27.665v-5.375H402.44c.686-1.03 1.333-2.643 1.9-4.895.56-2.284.855-4.369.855-6.325v-15.702h-48.47v5.383h38.463v10.614c0 2.005-.088 3.953-.272 5.846-.2 1.909-.559 3.61-1.118 5.08h-45.658v5.374h27.673v12.746h-20.07v5.367h39.142zM731.857 425.606h-9.983v17.019c0 2.316.726 4.08 2.148 5.382 1.453 1.27 3.274 1.925 5.455 1.925h40.091v-5.399h-37.711zM757.293 431.459h5.87c2.284 0 4.12-1.861 4.12-4.145 0 0 0-.008.025-.04v-27.777h11.556v-5.383h-11.556v-15.006h-10v29.949c-1.42.663-3.297 1.27-5.645 1.813-2.316.519-4.848.798-7.564.798h-21.682v-24.877h24.526v-5.375H712.41v28.703c0 2.332.679 4.057 1.996 5.207 1.35 1.166 3.1 1.733 5.311 1.733h23.927c2.612 0 5.12-.423 7.531-1.262 2.412-.83 4.449-1.805 6.134-2.795z" style="fill:#7f7f79;fill-opacity:1;stroke-width:7.98634"/></svg>