<svg xmlns="http://www.w3.org/2000/svg" width="410.08pt" height="62.75pt" viewBox="0 0 410.08 62.75"><defs><clipPath id="a"><path d="M395 4h15.078v31H395Zm0 0"/></clipPath><clipPath id="b"><path d="M335 40h24v22.75h-24Zm0 0"/></clipPath><clipPath id="c"><path d="M294 40h24v22.75h-24Zm0 0"/></clipPath></defs><path d="m31.027 30.047-8.687 5.015 15.539 26.91h11.578ZM42.043 23.688l-8.684 5.011 19.207 33.274h11.582ZM22.75.344H12.734v31.804l10.016-9.406ZM0 61.973h10.027V.343H0Zm0 0" style="stroke:none;fill-rule:nonzero;fill:#1c3993;fill-opacity:1"/><path d="M12.734 61.973H22.75c0-21.473 17.406-38.88 38.879-38.88V13.079c-26.961 0-48.895 21.934-48.895 48.895" style="stroke:none;fill-rule:nonzero;fill:#00a73c;fill-opacity:1"/><path d="M61.629 10.371V.344C27.589.344 0 27.934 0 61.973h10.027c0-28.453 23.149-51.602 51.602-51.602" style="stroke:none;fill-rule:nonzero;fill:#00a73b;fill-opacity:1"/><g clip-path="url(#a)"><path d="M395.902 34.105h7.602V21.191h6.582v-6.015h-6.582V4.62h-7.602" style="stroke:none;fill-rule:nonzero;fill:#1c3993;fill-opacity:1"/></g><path d="M204.148 57.57c-2.21 0-4.007-1.8-4.007-4.011a4.01 4.01 0 0 1 4.007-4.008 4.014 4.014 0 0 1 4.012 4.008c0 2.21-1.8 4.011-4.012 4.011m0-11.433c-4.09 0-7.421 3.332-7.421 7.422 0 4.093 3.332 7.425 7.421 7.425 4.094 0 7.426-3.332 7.426-7.425 0-4.09-3.332-7.422-7.426-7.422M235.941 57.57a4.01 4.01 0 0 1 0-8.02 4.01 4.01 0 0 1 4.012 4.009 4.015 4.015 0 0 1-4.012 4.011m0-11.433c-4.09 0-7.421 3.332-7.421 7.422 0 4.093 3.332 7.425 7.421 7.425 4.094 0 7.426-3.332 7.426-7.425 0-4.09-3.332-7.422-7.426-7.422M217.285 49.82h3.918c1.074 0 1.95.875 1.95 1.95a1.95 1.95 0 0 1-1.95 1.945h-3.918Zm9.3 1.95a5.39 5.39 0 0 0-5.382-5.383h-7.332v14.347h3.414v-3.586h3.918c.059 0 .113-.011.168-.015l1.926 3.601h3.89l-2.59-4.824c1.204-.988 1.989-2.465 1.989-4.14M266.895 57.3h-2.844v-7.48h2.844a3.743 3.743 0 0 1 3.738 3.739 3.747 3.747 0 0 1-3.738 3.742m0-10.914h-6.282v14.347h6.282c3.953 0 7.171-3.218 7.171-7.175 0-3.954-3.218-7.172-7.171-7.172M249.688 55.129l1.492-3.856 1.492 3.856Zm3.382-8.742h-3.78l-5.556 14.347h3.786l.984-2.543h5.355l.985 2.543h3.781zM196.45 46.387h-4.579l-5.344 6.058v-6.058H183v14.347h3.527v-3.082l1.578-1.789 4.032 4.871h4.578l-6.25-7.55M79.46 11.516h24.392V5.504H95.57V-.004h-7.433v5.508H79.46M328.004 38.02h37.887v-6.012h-18.383V20.434h-7.602v11.574h-11.902" style="stroke:none;fill-rule:nonzero;fill:#1c3993;fill-opacity:1"/><g clip-path="url(#b)"><path d="M346.945 55.426a3.99 3.99 0 0 1-3.984-3.985c0-2.199 1.789-3.988 3.984-3.988 2.2 0 3.989 1.79 3.989 3.988a3.99 3.99 0 0 1-3.989 3.985m0-15.293c-6.234 0-11.308 5.074-11.308 11.308 0 6.235 5.074 11.309 11.308 11.309 6.239 0 11.313-5.074 11.313-11.309s-5.074-11.308-11.313-11.308" style="stroke:none;fill-rule:nonzero;fill:#1c3993;fill-opacity:1"/></g><g clip-path="url(#c)"><path d="M305.824 55.426a3.99 3.99 0 0 1-3.988-3.985c0-2.199 1.789-3.988 3.988-3.988a3.986 3.986 0 0 1 0 7.973m0-15.293c-6.234 0-11.308 5.074-11.308 11.308 0 6.235 5.074 11.309 11.308 11.309 6.235 0 11.309-5.074 11.309-11.309s-5.074-11.308-11.309-11.308" style="stroke:none;fill-rule:nonzero;fill:#1c3993;fill-opacity:1"/></g><path d="M91.656 28.11c-2.199 0-3.988-1.79-3.988-3.985 0-2.2 1.789-3.988 3.988-3.988a3.99 3.99 0 0 1 3.985 3.988 3.99 3.99 0 0 1-3.985 3.984m0-15.297c-6.238 0-11.312 5.075-11.312 11.313 0 6.234 5.074 11.309 11.312 11.309 6.235 0 11.309-5.075 11.309-11.309 0-6.238-5.074-11.312-11.309-11.312M204.633 38.02h37.89v-6.012H227.38v-3.055h9.348v-5.902h-17.278c-.816 0-1.476-.66-1.476-1.473v-1.68h18.593V5.121h-26.195v5.899h18.594V14H210.37v9.363a5.596 5.596 0 0 0 5.59 5.59h3.816v3.055h-15.144M286.879 38.02h37.89v-6.012h-15.144v-3.055h9.348v-5.902h-17.278c-.812 0-1.476-.66-1.476-1.473v-1.683h18.433v-5.899H300.22V11.02h18.754V5.12h-26.356v18.242a5.596 5.596 0 0 0 5.586 5.59h3.82v3.055H286.88M163.508 38.02h37.89v-6.012h-15.144v-5.559h9.187v-6.015h-17.117c-.812 0-1.476-.66-1.476-1.473v-7.828h18.593V5.12h-26.195v15.742a5.596 5.596 0 0 0 5.59 5.586h3.816v5.559h-15.144M146.207 59.477h7.602v-14.43a5.59 5.59 0 0 0-5.586-5.586h-3.09v-5.356h15.14v-6.011h-37.886v6.011h15.14v5.356h-8.675v6.012h15.882c.813 0 1.473.664 1.473 1.476M245.754 38.02h37.89v-6.012h-15.316V20.434h-6.8v11.574h-3.247V20.434h-6.797v11.574h-5.73M369.07 5.121v21.371a5.596 5.596 0 0 0 5.586 5.59h15.992v-6.016h-12.503c-.813 0-1.473-.66-1.473-1.472V11.133h13.976V5.12M381.633 40.695v13.192a5.59 5.59 0 0 0 5.586 5.586h16.57V53.46h-13.078c-.816 0-1.477-.66-1.477-1.477V40.695M107.82 34.105h7.602V21.191H122v-6.015h-6.578V4.62h-7.602M93.55 40.695v13.192a5.59 5.59 0 0 0 5.587 5.586h16.57V53.46h-13.078c-.817 0-1.477-.66-1.477-1.477V40.695" style="stroke:none;fill-rule:nonzero;fill:#1c3993;fill-opacity:1"/><path d="M271.563 26.73h7.601V10.707a5.59 5.59 0 0 0-5.586-5.586h-22.094v6.012h18.606c.812 0 1.473.664 1.473 1.476M352.39 26.73h7.602V10.707a5.59 5.59 0 0 0-5.586-5.586h-22.094v6.012h18.606c.812 0 1.473.664 1.473 1.476M146.207 24.121h7.602V10.707a5.59 5.59 0 0 0-5.586-5.586h-19.371v6.012h15.882c.813 0 1.473.66 1.473 1.476" style="stroke:none;fill-rule:nonzero;fill:#1c3993;fill-opacity:1"/></svg>