<svg xmlns="http://www.w3.org/2000/svg" xml:space="preserve" width="837.37036" height="700" viewBox="0 0 837.37036 699.99999"><defs><clipPath id="a" clipPathUnits="userSpaceOnUse"><path d="M0 841.89h595.276V0H0Z"/></clipPath></defs><g clip-path="url(#a)" transform="matrix(4.50876 0 0 -4.50876 -922.378 2252.348)"><path d="M0 0h23.481s54.057 40.706 88.113 33.845c0 0-2.82 11.574-15.367 12.431-11.45.788-22.019-3.026-22.019-3.026S35.662 32.674 0 0" style="fill:#0c4f9f;fill-opacity:1;fill-rule:nonzero;stroke:none" transform="translate(261.132 453.166)"/><path d="M0 0s5.086-13.432-8.094-32.744l7.57-16.045s14.999 19.042 9.919 36.266c0 0-2.877 7.69-9.395 12.523" style="fill:#0c4f9f;fill-opacity:1;fill-rule:nonzero;stroke:none" transform="translate(375.462 489.24)"/><path d="M0 0h14.773s-6.8-11.393-9.097-20.444c0 0-1.372-4.602-1.176-9.838 0 0-7.921 7.435-8.364 14.581 0 0-.782 8.606 3.864 15.701" style="fill:#0c4f9f;fill-opacity:1;fill-rule:nonzero;stroke:none" transform="translate(208.488 391.229)"/><path d="M0 0s2.938-3.229 8.81-4.156c0 0 20.939-1.625 35.907 5.62 0 0 13.216 5.58 24.95 12.23 0 0 18.002 10.373 25.732 16.538h24.172s-16.05-15.267-49.313-33.461C36.984-21.432 13.305-14.873 13.305-14.873S6.65-12.926 0 0" style="fill:#0c4f9f;fill-opacity:1;fill-rule:nonzero;stroke:none" transform="translate(209.709 360.32)"/><path d="M0 0h12.741v-22.401L29.132 0h12.902l-16.55-24.551 22.468-25.813H32.347L12.709-27.912v-22.452H0Z" style="fill:#231f20;fill-opacity:1;fill-rule:nonzero;stroke:none" transform="translate(205.476 447.464)"/><path d="M0 0h11.993v-50.364H-.893V0Z" style="fill:#231f20;fill-opacity:1;fill-rule:nonzero;stroke:none" transform="translate(259.614 447.464)"/><path d="M0 0s-2.876-3.976-9.204-4.348h-11.019l-.065 30.907h11.149s6.263-.211 9.793-4.771c0 0 8.8-10.566-.654-21.788m5.298 32.887s-6.944 4.268-16.585 4.268h-20.964v-50.364h23.35s11.453-.282 17.059 4.814c0 0 9.071 6.943 9.182 19.828 0 0 1.009 14.4-12.042 21.454" style="fill:#231f20;fill-opacity:1;fill-rule:nonzero;stroke:none" transform="translate(315.846 410.31)"/><path d="m0 0 7.286 18.879L15.459 0Zm13.451 31.917H.394l-21.333-50.292H-7.24l4.163 9.736h21.472l4.546-9.736h13.457z" style="fill:#231f20;fill-opacity:1;fill-rule:nonzero;stroke:none" transform="translate(353.897 415.527)"/></g></svg>