<svg xmlns="http://www.w3.org/2000/svg" xmlns:xlink="http://www.w3.org/1999/xlink" width="649.04535pt" height="75pt" viewBox="0 0 649.04532 74.999997"><defs><clipPath id="b"><path d="M204.095 684.486h38.908v-1.319h-38.908z"/></clipPath><clipPath id="d"><path d="M0 728.504h532.913V0H0Z"/></clipPath><clipPath id="e"><path d="M0 728.504h532.913V0H0Z"/></clipPath><clipPath id="f"><path d="M0 728.504h532.913V0H0Z"/></clipPath><clipPath id="g"><path d="M0 728.504h532.913V0H0Z"/></clipPath><clipPath id="h"><path d="M0 728.504h532.913V0H0Z"/></clipPath><clipPath id="i"><path d="M0 728.504h532.913V0H0Z"/></clipPath><clipPath id="j"><path d="M0 728.504h532.913V0H0Z"/></clipPath><clipPath id="k"><path d="M0 728.504h532.913V0H0Z"/></clipPath><clipPath id="l"><path d="M0 728.504h532.913V0H0Z"/></clipPath><linearGradient id="a"><stop offset="0" style="stop-color:#c21e24;stop-opacity:1"/><stop offset="0.13238247" style="stop-color:#b22132;stop-opacity:1"/><stop offset="0.25489059" style="stop-color:#9a2549;stop-opacity:1"/><stop offset="0.3905246" style="stop-color:#7b2a62;stop-opacity:1"/><stop offset="0.5013653" style="stop-color:#6d2c6c;stop-opacity:1"/><stop offset="0.61949813" style="stop-color:#542e7c;stop-opacity:1"/><stop offset="0.73179722" style="stop-color:#462f84;stop-opacity:1"/><stop offset="0.87472337" style="stop-color:#34308e;stop-opacity:1"/><stop offset="1" style="stop-color:#2e3091;stop-opacity:1"/></linearGradient><linearGradient xlink:href="#a" id="c" x1="-49.880875" x2="144.5264" y1="858.83441" y2="858.54059" gradientUnits="userSpaceOnUse"/></defs><g clip-path="url(#b)" transform="translate(-763.585 -2491.486) scale(3.74132)"><path d="M-40.627 854.186c-5.314 0-10.602-2.44-10.872.185-.018.084-.028.17-.028.256 0 .085-1.015 8.513-.998 8.598.27 2.625 6.584.937 11.898.937.484 0 .958-.023 1.424-.056.35.034.706.056 1.07.056.282 0 .56-.013.834-.033.546.02 1.098.033 1.66.033.389 0 .771-.01 1.153-.02h.017c.44.01.877.02 1.324.02.393 0 .778-.01 1.165-.017.442.007.882.017 1.332.017.396 0 .783-.01 1.173-.015.44.006.875.015 1.32.015.4 0 .788-.009 1.182-.014h.037c.426.004.846.014 1.276.014.762 0 1.51-.01 2.256-.023h.068c.879.012 1.764.023 2.664.023.402 0 .792-.007 1.19-.01.436.003 88.88-.078 89.322-.078 72.098-16.824 80.631-10.823 14.244-9.888-.441 0-103.13.007-103.566.01-.398-.003-.788-.01-1.19-.01-5.046-.041-9.993.07-14.967 0-.562 0-1.114.012-1.66.033a11.17 11.17 0 0 0-.834-.033c-.364 0-.72.022-1.07.056-.136-.01-.269-.024-.406-.031a19.954 19.954 0 0 0-1.018-.025zm110.467 9.888c4.501.059 9.256.088 14.244.088 1.384 0 2.607-.02 3.955-.025 1.201.005 2.295.025 3.527.025.447 0 .835-.009 1.278-.01 10.39.045 20.741-.05 31.148.01.443 0 .875-.009 1.313-.014.393.005.783.014 1.181.014.952 0 1.885-.017 2.807-.043a58.592 58.592 0 0 0 6.943-.15c.867.124 1.778.193 2.721.193 5.487 0 9.977-2.245 9.977-4.988 0-2.744-4.49-4.988-9.977-4.988-.943 0-1.854.07-2.72.193a58.601 58.601 0 0 0-6.944-.15 99.63 99.63 0 0 0-2.807-.043c-.398 0-.788.009-1.181.013-.438-.005-.87-.013-1.313-.013-.761 0-1.511.01-2.256.023-.9-.013-1.809-.023-2.732-.023-.402 0-.792.007-1.19.01-.436-.003-.863-.01-1.304-.01-.387 0-.761.006-1.145.008-.452-.002-.892-.008-1.35-.008-1.075 0-2.13.007-3.175.019-.618-.003-1.185-.02-1.813-.02-.417 0-.792.013-1.205.014-.442 0-.841-.013-1.289-.013-.415 0-.785.01-1.195.011-.447 0-.847-.011-1.299-.011-.42 0-.794.01-1.21.011-.444 0-.839-.011-1.286-.011-.82 0-1.551.018-2.355.021-.9-.003-1.715-.021-2.633-.021-.427 0-.8.009-1.223.01-.44-.001-.828-.01-1.271-.01-.425 0-.796.009-1.217.01-.443-.001-.831-.01-1.278-.01-1.232 0-2.326.02-3.527.025-1.349-.005-2.57-.025-3.955-.025-68.998-.869-85.402 8.884-14.244 9.888z" style="fill:url(#c);stroke-width:4.98843" transform="matrix(.20046 0 0 .20046 214.144 511.767)"/></g><path fill="#56585d" d="M-29.75 579.356h8.32v17.827l14.974-17.827h10.22l-17.056 19.548 17.768 21.928H-6.397l-14.916-19.253h-.116v19.253h-8.32zM17.748 579.356h8.321v41.476h-8.32z" style="stroke-width:3.74132" transform="translate(37.597 -576.803)"/><g fill="#56585d" clip-path="url(#d)" transform="translate(-763.585 -2491.486) scale(3.74132)"><path d="M233.706 677.547c-.81.19-1.684.35-2.525.35-3.59 0-6.083-1.795-6.083-5.544 0-3.796 2.318-5.924 6.083-5.924.73 0 1.7.143 2.51.461l-.16 1.874c-.84-.477-1.604-.588-2.398-.588-2.287 0-3.717 1.747-3.717 4.02 0 2.254 1.398 3.953 3.765 3.953.873 0 1.906-.19 2.43-.46zM236.34 675.769c.302.11.619.19 1.064.19 1.445 0 1.445-1.16 1.445-1.953v-7.386h2.224v8.45c0 1.175-.762 2.827-3.034 2.827a6.33 6.33 0 0 1-1.699-.206zM300.412 671.082a.766.766 0 1 1-1.533.001.766.766 0 0 1 1.533 0M258.328 672.132c.323-.12.594-.284.812-.491.219-.207.386-.449.502-.728.117-.278.175-.579.175-.902 0-.309-.054-.598-.163-.869a2.234 2.234 0 0 0-.468-.722h1.049v-1.083h-2.291v-.474a.858.858 0 0 0-.152-.502c-.102-.147-.276-.22-.525-.22h-.733V667.337h-2.392v1.083h1.14a2.143 2.143 0 0 0-.48.722c-.11.271-.163.56-.163.869 0 .323.06.624.18.902.12.279.292.521.514.728.22.207.492.371.812.491.319.12.682.18 1.089.18.406 0 .77-.06 1.094-.18m-2.256-2.166c0-.158.026-.309.078-.451a1.105 1.105 0 0 1 .604-.638c.147-.064.31-.096.49-.096.189 0 .356.032.503.096.147.064.267.15.36.259.095.109.167.235.216.379.048.142.073.293.073.451 0 .323-.096.6-.288.829-.192.229-.48.344-.863.344-.361 0-.647-.115-.857-.344a1.18 1.18 0 0 1-.316-.829M257.73 675.257c-.045-.038-.068-.113-.068-.226l-.001-1.917h-1.49l.002 2.346c0 .286.09.513.27.683.182.169.422.254.723.254h5.799v-1.084h-4.987c-.12 0-.203-.018-.248-.056M262.603 669.311v-2.652c0-.473-.256-.71-.767-.71h-.721v7.581h1.488v-3.136h1.536v-1.083ZM295.927 669.525v-2.866c0-.473-.256-.71-.767-.71h-.62v10.447h1.387v-5.788h1.557v-1.082ZM292.006 671.088a4.286 4.286 0 0 1-.502-1.122 4.855 4.855 0 0 1-.18-1.366v-.947c0-.234-.052-.44-.153-.62-.102-.18-.276-.272-.524-.272h-.735c.001.612.014 1.223.004 1.834-.006.358.016.815-.134 1.37a4.206 4.206 0 0 1-.495 1.123s-.23.363-.535.681a4.098 4.098 0 0 1-.22.216 5.837 5.837 0 0 1-.943.7l.666.89c.218-.097.451-.243.7-.439.247-.196.482-.416.704-.66.222-.245.422-.498.598-.762.177-.263.307-.508.39-.733.082.225.212.47.39.733.175.264.375.517.597.762.222.244.456.464.705.66.248.196.481.342.7.44l.665-.892a5.88 5.88 0 0 1-.942-.699 4.409 4.409 0 0 1-.756-.897M280.74 671.867a2.41 2.41 0 0 0 .796-.474c.218-.2.383-.432.496-.7.113-.266.169-.554.169-.863 0-.624-.223-1.146-.666-1.568h1.071v-1.083h-2.2v-.52a.858.858 0 0 0-.152-.501c-.1-.146-.277-.22-.525-.22h-.732v1.241h-2.37v1.083h1.196a1.97 1.97 0 0 0-.49.706 2.258 2.258 0 0 0-.165.862c0 .309.057.597.17.863.113.268.278.5.496.7.218.2.481.358.79.474.308.117.662.175 1.06.175a2.99 2.99 0 0 0 1.055-.175m-2.193-2.082c0-.331.099-.611.299-.84.198-.23.478-.344.84-.344.368 0 .65.115.846.344.195.229.293.509.293.84 0 .339-.098.619-.293.84-.196.223-.478.334-.847.334-.36 0-.64-.111-.84-.333-.2-.222-.299-.502-.299-.841M285.303 673.548a2.09 2.09 0 0 0-.626-.7 3.19 3.19 0 0 0-1.01-.468 4.971 4.971 0 0 0-1.353-.17c-.512 0-.964.057-1.36.17-.395.113-.73.269-1.004.468-.274.2-.483.433-.627.7a1.812 1.812 0 0 0-.214.863c0 .308.072.596.214.863.143.267.352.499.627.694.274.195.61.352 1.004.468.395.117.847.175 1.36.175a4.81 4.81 0 0 0 1.353-.175 3.35 3.35 0 0 0 1.01-.468c.274-.195.483-.427.626-.694a1.8 1.8 0 0 0 .214-.863 1.8 1.8 0 0 0-.214-.863M283.6 675.2c-.316.21-.744.316-1.286.316s-.97-.106-1.286-.316c-.316-.211-.474-.474-.474-.79 0-.331.158-.598.474-.801.316-.203.744-.305 1.286-.305s.97.102 1.286.305c.316.203.474.47.474.8 0 .317-.158.58-.474.79M284.74 665.95h-.723v2.447h-1.388v1.038h1.388v.76h-1.388v1.038h1.388v.774h1.49v-5.347c0-.474-.256-.71-.768-.71M308.889 673.35h-3.644v-.948h-1.478v2.877c0 .383.096.666.288.846.19.181.434.271.727.271h5.596v-4.05h-1.49Zm0 2.031h-3.305c-.136 0-.226-.033-.271-.096-.045-.064-.068-.164-.068-.299v-.542h3.644ZM313.898 668.538v1.27c0 .384.096.666.288.846.192.18.434.27.727.27h5.878v-3.463a1.1 1.1 0 0 0-.225-.688c-.151-.195-.395-.293-.734-.293h-5.934v1.06Zm1.489-.975h3.633c.188 0 .282.075.282.226v2.053h-3.543c-.135 0-.231-.023-.287-.068-.057-.045-.085-.135-.085-.271z"/></g><path fill="#56585d" d="M367.934 599.301v4.052h15.365l.019 12.578h5.575l-.023-12.578h15.366v-4.052z" style="stroke-width:3.74132" transform="translate(37.597 -576.803)"/><g fill="#56585d" clip-path="url(#e)" transform="translate(-763.585 -2491.486) scale(3.74132)"><path d="M330.708 667.113v1.182h-1.974v1.083h1.974v2.46h1.489v-5.179c0-.473-.255-.71-.767-.71h-.722v.756ZM332.016 673.384a2.196 2.196 0 0 0-.615-.745 3.015 3.015 0 0 0-.98-.496 4.443 4.443 0 0 0-1.327-.18c-.496 0-.94.06-1.33.18a3.07 3.07 0 0 0-.994.496 2.155 2.155 0 0 0-.62.745c-.143.286-.215.59-.215.914 0 .323.072.626.215.908.142.282.35.526.62.733.271.207.601.37.993.491.391.12.835.18 1.331.18.497 0 .94-.06 1.326-.18.387-.12.714-.284.981-.49.267-.208.472-.452.615-.734a1.98 1.98 0 0 0 .214-.908c0-.324-.07-.628-.214-.914m-1.68 1.765c-.302.222-.712.333-1.23.333-.519 0-.93-.11-1.236-.333-.305-.222-.457-.502-.457-.84 0-.36.152-.654.457-.88.305-.226.717-.338 1.235-.338.52 0 .93.112 1.23.338.301.226.451.52.451.88 0 .338-.15.618-.45.84"/><path d="M328.824 670.18a3.705 3.705 0 0 1-.74-.626 3.043 3.043 0 0 1-.518-.79 2.216 2.216 0 0 1-.197-.93v-.272h1.985v-1.083h-5.371v1.083h1.986v.271c0 .331-.065.642-.197.931-.132.29-.305.553-.52.79a3.762 3.762 0 0 1-.738.626c-.278.18-.564.327-.858.44l.61.914a5.252 5.252 0 0 0 1.393-.728c.222-.16.42-.334.598-.519.177-.184.314-.378.412-.58.098.202.235.396.412.58.176.185.376.358.598.52.22.161.453.304.694.428.24.124.473.224.699.3l.61-.915a4.643 4.643 0 0 1-.858-.44M342.626 672.617h-6.363v1.083h5.495c.135 0 .231.023.287.068.057.045.085.135.085.27v2.359h1.49v-2.753c0-.34-.076-.594-.227-.767-.15-.174-.406-.26-.767-.26M342.863 665.994h-.643v2.9h-1.026v-2.009c0-.225-.05-.398-.153-.519-.1-.12-.272-.18-.513-.18h-.71v5.901h1.376v-2.11h1.026v2.143h1.4v-5.359c0-.51-.253-.767-.757-.767M338.238 670.01c-.324-.435-.504-.973-.542-1.612l1.458.004v-1.083l-1.447-.004v-.52c0-.187-.041-.355-.124-.502-.083-.146-.247-.22-.496-.22h-.79v1.242h-1.558v1.083h1.67c-.037.639-.217 1.177-.541 1.613-.323.436-.592.709-1.21 1.018l.576.823c.203-.067.209-.064.42-.188.21-.124.408-.263.592-.418.185-.154.349-.32.49-.496.144-.177.249-.351.317-.525.068.174.173.348.316.525.143.177.307.342.49.496.185.155.383.294.593.418.21.124.217.12.42.188l.576-.823c-.617-.31-.887-.582-1.21-1.018M309.61 665.95h-.721v2.38h-1.591v-1.275c0-.226-.05-.399-.152-.519s-.273-.18-.513-.18h-.824v1.613h-2.268v-.914c0-.226-.051-.399-.152-.519-.102-.12-.273-.18-.513-.18h-.701v4.095c0 .383.097.665.288.846.192.181.31.271.604.271h4.23v-2.155h1.592v2.37h1.489v-5.123c0-.474-.256-.71-.767-.71m-3.802 4.591h-1.895c-.136 0-.232-.023-.288-.068-.057-.045-.085-.135-.085-.27v-1.15h2.268zM364.914 671.252h-.737c.056-.033.132-.084.21-.158.149-.14.227-.28.28-.381l.035-.068c.048-.204.053-.29.053-.481v-2.511c0-.34-.075-.594-.225-.767-.151-.173-.406-.26-.767-.26h-5.742v1.083h4.88c.135 0 .232.023.288.068.056.045.084.136.084.27v2.14c-.06.575-.477 1.065-1.065 1.065h-5.597v1.083h4.106v4.062h1.489v-4.062h4.107v-1.083ZM369.08 669.638c.218.188.489.337.812.446.324.11.696.163 1.117.163.414 0 .784-.054 1.112-.163.326-.109.603-.258.829-.446.225-.188.396-.41.513-.666.117-.255.175-.526.175-.812a1.92 1.92 0 0 0-.175-.818 1.893 1.893 0 0 0-.513-.66 2.544 2.544 0 0 0-.829-.446 3.543 3.543 0 0 0-1.112-.163c-.421 0-.793.055-1.117.163a2.406 2.406 0 0 0-.812.446 1.92 1.92 0 0 0-.677 1.478 1.925 1.925 0 0 0 .677 1.478m1.032-2.166c.207-.188.51-.282.909-.282.39 0 .691.094.902.282a.89.89 0 0 1 .316.688c0 .278-.106.51-.316.694-.211.184-.512.276-.902.276-.399 0-.702-.092-.909-.276a.89.89 0 0 1-.31-.694c0-.27.103-.5.31-.688M371.55 675.313c-.135 0-.23-.023-.287-.068-.056-.045-.084-.135-.084-.27v-1.433h-1.49v1.918c0 .285.09.513.27.682.182.17.422.254.723.254h6.127v-1.083ZM375.703 665.994h-.722V672.075h-2.008v1.083h2.008v1.004h1.489v-7.457c0-.474-.255-.71-.767-.71"/><path d="M372.417 670.626c-.497.024-.878.027-.965.027-.597.004-2.016.002-3.907-.01v1.083h2.764v1.433h1.49v-1.433h.74a7.56 7.56 0 0 0 1.923-.295v-1.102a7.392 7.392 0 0 1-1.314.245c-.122.013-.335.034-.73.053M271.553 671.184h3.613v-1.083H273.365c.32-.289.4-.429.4-.874v-1.72c0-.34-.076-.595-.226-.768-.15-.173-.406-.26-.767-.26h-5.9v1.083h5.031c.136 0 .232.023.288.068.057.045.084.136.084.271v1.538a.661.661 0 0 1-.66.662h-6.153v1.083h4.107v1.614h-2.843v1.082h5.189c.135 0 .232.023.288.068.056.045.084.135.084.271l-.007 2.177h1.478l.008-2.572c0-.339-.076-.594-.226-.767-.151-.173-.406-.259-.767-.259h-1.716v-1.614ZM349.823 675.313c-.12 0-.203-.019-.248-.056-.045-.038-.068-.113-.068-.226v-1.974h-1.49v2.403c0 .285.092.513.272.682.18.17.42.254.722.254h6.025v-1.083ZM349.88 671.737c.345-.135.638-.322.88-.558.24-.237.423-.517.547-.841.123-.323.185-.669.185-1.038 0-.361-.062-.703-.185-1.027a2.446 2.446 0 0 0-.548-.851 2.548 2.548 0 0 0-.88-.576 3.157 3.157 0 0 0-1.184-.209c-.444 0-.839.07-1.185.209a2.548 2.548 0 0 0-.88.576 2.444 2.444 0 0 0-.547.851 2.847 2.847 0 0 0-.186 1.027c0 .369.062.715.186 1.038.124.324.306.604.547.841.241.236.534.423.88.558.346.136.741.203 1.185.203a3.22 3.22 0 0 0 1.184-.203m-2.2-1.388a1.338 1.338 0 0 1-.27-.474 1.78 1.78 0 0 1-.09-.575c0-.203.03-.391.09-.564a1.3 1.3 0 0 1 .27-.457 1.29 1.29 0 0 1 .44-.31c.17-.074.362-.111.576-.112.213.001.405.038.575.112a1.28 1.28 0 0 1 .711.767c.06.173.09.361.09.564 0 .203-.03.395-.09.575a1.296 1.296 0 0 1-.711.796c-.17.077-.362.116-.575.118a1.414 1.414 0 0 1-.576-.118 1.306 1.306 0 0 1-.44-.322M353.196 671.094v2.493h1.49v-6.882c0-.474-.256-.71-.768-.71h-.722V667.46h-1.388v1.039h1.388v1.537h-1.388v1.038h1.388Z"/></g><path fill="#56585d" d="M152.213 631.728h3.057v6.548l5.496-6.548h3.756l-6.263 7.18 6.525 8.051h-3.996l-5.477-7.067h-.041v7.067h-3.057z" style="stroke-width:3.74132" transform="translate(37.597 -576.803)"/><g fill="#56585d" clip-path="url(#f)" transform="translate(-763.585 -2491.486) scale(3.74132)"><path d="M260.142 681.616c.892 0 1.575.6 1.575 1.593 0 .863-.578 1.55-1.575 1.55-.992 0-1.569-.687-1.569-1.55 0-.992.683-1.593 1.57-1.593m0 2.537c.6 0 .758-.536.758-1.038 0-.461-.246-.892-.759-.892-.508 0-.753.443-.753.892 0 .496.158 1.038.753 1.038M262.464 681.686h.694v.683h.012c.035-.28.356-.753.822-.753.076 0 .158 0 .24.023v.788c-.07-.041-.21-.064-.35-.064-.636 0-.636.793-.636 1.224v1.103h-.782ZM267.137 684.52c-.286.158-.613.24-1.032.24-.992 0-1.57-.572-1.57-1.558 0-.869.46-1.587 1.394-1.587 1.115 0 1.43.765 1.43 1.814h-2.077c.035.485.373.76.857.76.38 0 .706-.14.998-.304zm-.525-1.627c-.023-.379-.198-.706-.636-.706-.437 0-.66.303-.694.706zM268.222 681.843c.303-.14.711-.227 1.044-.227.916 0 1.295.38 1.295 1.265v.385c0 .303.006.531.011.753.006.227.018.437.035.671h-.688c-.029-.158-.029-.356-.035-.45h-.012c-.18.333-.57.52-.927.52-.53 0-1.05-.32-1.05-.893 0-.449.216-.712.513-.858.298-.145.683-.174 1.01-.174h.431c0-.484-.216-.648-.677-.648-.332 0-.664.128-.927.327zm.916 2.345a.665.665 0 0 0 .548-.268c.128-.17.163-.385.163-.619h-.338c-.35 0-.869.058-.869.52 0 .256.215.367.496.367M271.448 681.686h.74v.408h.012c.245-.344.578-.478.986-.478.712 0 1.02.502 1.02 1.178v1.896h-.781v-1.604c0-.368-.005-.863-.507-.863-.566 0-.688.612-.688.997v1.47h-.782Z"/></g><path fill="#56585d" d="M234.666 646.962h3.057v-15.235h-3.057z" style="stroke-width:3.74132" transform="translate(37.597 -576.803)"/><g fill="#56585d" clip-path="url(#g)" transform="translate(-763.585 -2491.486) scale(3.74132)"><path d="M278.606 681.686h.74v.408h.012c.245-.344.578-.478.986-.478.712 0 1.02.502 1.02 1.178v1.896h-.781v-1.604c0-.368-.005-.863-.507-.863-.566 0-.688.612-.688.997v1.47h-.782ZM284.071 682.316a1.909 1.909 0 0 0-.7-.128c-.21 0-.46.075-.46.332 0 .479 1.358.175 1.358 1.26 0 .7-.624.98-1.26.98-.297 0-.6-.053-.886-.128l.046-.642c.245.123.502.199.77.199.2 0 .514-.076.514-.368 0-.59-1.359-.187-1.359-1.272 0-.647.565-.933 1.178-.933.367 0 .607.058.852.11zM285.25 682.257h-.578v-.572h.578v-.6l.782-.25v.85h.693v.572h-.693v1.4c0 .257.069.495.367.495.14 0 .274-.029.356-.08l.023.617a2.04 2.04 0 0 1-.577.07c-.613 0-.951-.379-.951-.974Z"/></g><path fill="#56585d" d="M274.059 633.669h2.925v-2.791h-2.925zm0 13.293h2.925v-11.24h-2.925z" style="stroke-width:3.74132" transform="translate(37.597 -576.803)"/><g fill="#56585d" clip-path="url(#h)" transform="translate(-763.585 -2491.486) scale(3.74132)"><path d="M289.374 682.257h-.578v-.572h.578v-.6l.782-.25v.85h.693v.572h-.693v1.4c0 .257.069.495.367.495.14 0 .274-.029.356-.08l.023.617a2.04 2.04 0 0 1-.577.07c-.613 0-.951-.379-.951-.974ZM294.262 684.69h-.74v-.409h-.012c-.24.292-.578.479-.986.479-.712 0-1.02-.502-1.02-1.178v-1.896h.781v1.603c0 .368.006.863.507.863.566 0 .688-.612.688-.997v-1.47h.782ZM295.44 682.257h-.576v-.572h.577v-.6l.782-.25v.85h.693v.572h-.693v1.4c0 .257.07.495.367.495.14 0 .274-.029.356-.08l.023.617a2.04 2.04 0 0 1-.577.07c-.612 0-.951-.379-.951-.974ZM299.979 684.52c-.286.158-.613.24-1.032.24-.992 0-1.57-.572-1.57-1.558 0-.869.46-1.587 1.395-1.587 1.114 0 1.429.765 1.429 1.814h-2.077c.035.485.373.76.857.76.38 0 .706-.14.998-.304zm-.525-1.627c-.023-.379-.198-.706-.636-.706-.437 0-.66.303-.694.706zM304.045 681.616c.893 0 1.575.6 1.575 1.593 0 .863-.577 1.55-1.575 1.55-.992 0-1.57-.687-1.57-1.55 0-.992.683-1.593 1.57-1.593m0 2.537c.6 0 .758-.536.758-1.038 0-.461-.245-.892-.758-.892-.507 0-.752.443-.752.892 0 .496.157 1.038.752 1.038M306.635 682.257h-.578v-.572h.578v-.42c0-.6.338-1.02.957-1.02.198 0 .42.03.571.064l-.064.647c-.07-.04-.169-.105-.338-.105-.263 0-.345.227-.345.461v.373h.683v.572h-.683v2.432h-.78ZM313.506 684.631c-.298.07-.618.128-.928.128-1.318 0-2.233-.659-2.233-2.035 0-1.394.851-2.176 2.233-2.176.27 0 .625.053.922.17l-.058.688a1.68 1.68 0 0 0-.88-.216c-.84 0-1.366.642-1.366 1.475 0 .83.514 1.453 1.382 1.453.321 0 .7-.07.893-.169zM314.172 681.686h.694v.683h.012c.035-.28.356-.753.822-.753.076 0 .158 0 .24.023v.788c-.07-.041-.21-.064-.351-.064-.635 0-.635.793-.635 1.224v1.103h-.782Z"/></g><path fill="#56585d" d="M383.163 633.669h2.922v-2.791h-2.922zm0 13.293h2.922v-11.24h-2.922z" style="stroke-width:3.74132" transform="translate(37.597 -576.803)"/><g clip-path="url(#i)" transform="translate(-763.585 -2491.486) scale(3.74132)"><path fill="#56585d" d="M318.267 681.686h.729v.42h.012a1.06 1.06 0 0 1 .892-.49c.42 0 .718.158.887.53.18-.361.57-.53.939-.53.74 0 .95.507.95 1.178v1.896h-.781v-1.791c0-.28 0-.676-.45-.676-.518 0-.583.618-.583 1.009v1.458h-.781v-1.791c0-.28 0-.676-.45-.676-.518 0-.583.618-.583 1.009v1.458h-.781Z"/></g><path fill="#56585d" d="M409.506 633.669h2.922v-2.791h-2.922zm0 13.293h2.922v-11.24h-2.922z" style="stroke-width:3.74132" transform="translate(37.597 -576.803)"/><g fill="#56585d" clip-path="url(#j)" transform="translate(-763.585 -2491.486) scale(3.74132)"><path d="M325.32 681.686h.74v.408h.012c.245-.344.577-.478.986-.478.712 0 1.02.502 1.02 1.178v1.896h-.781v-1.604c0-.368-.006-.863-.508-.863-.566 0-.689.612-.689.997v1.47h-.78ZM330.377 681.616c.893 0 1.575.6 1.575 1.593 0 .863-.577 1.55-1.575 1.55-.992 0-1.57-.687-1.57-1.55 0-.992.683-1.593 1.57-1.593m0 2.537c.6 0 .758-.536.758-1.038 0-.461-.245-.892-.758-.892-.507 0-.752.443-.752.892 0 .496.157 1.038.752 1.038"/></g><path fill="#56585d" d="M443.552 646.962h2.922v-16.369h-2.922z" style="stroke-width:3.74132" transform="translate(37.597 -576.803)"/><g fill="#56585d" clip-path="url(#k)" transform="translate(-763.585 -2491.486) scale(3.74132)"><path d="M335.796 681.616c.893 0 1.575.6 1.575 1.593 0 .863-.577 1.55-1.575 1.55-.992 0-1.569-.687-1.569-1.55 0-.992.682-1.593 1.57-1.593m0 2.537c.6 0 .757-.536.757-1.038 0-.461-.245-.892-.758-.892-.507 0-.752.443-.752.892 0 .496.157 1.038.752 1.038M340.86 681.686v2.712c0 .816-.327 1.586-1.587 1.586-.31 0-.666-.046-1.039-.204l.064-.665c.24.128.63.263.875.263.864 0 .905-.647.905-1.167h-.012c-.146.257-.496.48-.933.48-.887 0-1.225-.713-1.225-1.518 0-.723.373-1.557 1.271-1.557.397 0 .706.134.922.478h.012v-.408Zm-.782 1.47c0-.514-.199-.934-.654-.934-.53 0-.7.49-.7.951 0 .408.216.91.665.91.49 0 .69-.426.69-.928M343.03 683.879h.012l.723-2.193h.793l-1.126 2.98c-.251.665-.431 1.318-1.248 1.318-.186 0-.373-.03-.554-.081l.053-.577c.098.034.209.052.402.052.315 0 .507-.216.507-.537l-1.15-3.155h.864zM347.014 681.843c.303-.14.711-.227 1.044-.227.916 0 1.295.38 1.295 1.265v.385c0 .303.006.531.012.753.005.227.017.437.035.671h-.689c-.029-.158-.029-.356-.035-.45h-.011c-.181.333-.572.52-.928.52-.53 0-1.05-.32-1.05-.893 0-.449.216-.712.513-.858.298-.145.683-.174 1.01-.174h.431c0-.484-.216-.648-.676-.648a1.57 1.57 0 0 0-.928.327zm.916 2.345a.665.665 0 0 0 .548-.268c.128-.17.163-.385.163-.619h-.338c-.35 0-.869.058-.869.52 0 .256.216.367.496.367M350.24 681.686h.74v.408h.013c.245-.344.577-.478.985-.478.712 0 1.02.502 1.02 1.178v1.896h-.78v-1.604c0-.368-.006-.863-.508-.863-.566 0-.688.612-.688.997v1.47h-.782ZM355.921 684.351h-.01c-.235.292-.556.408-.923.408-.922 0-1.26-.758-1.26-1.58 0-.829.338-1.564 1.26-1.564.39 0 .665.135.898.42h.012v-1.72h.781v4.374h-.758Zm-.717-.198c.52 0 .688-.549.688-.974 0-.42-.198-.957-.7-.957-.508 0-.648.554-.648.957 0 .414.146.974.66.974M359.066 683.978c.111.041.228.07.391.07.531 0 .531-.426.531-.717v-2.713h.816v3.103c0 .432-.28 1.04-1.114 1.04-.222 0-.396-.019-.624-.077zM364.485 684.69h-.741v-.409h-.011c-.24.292-.578.479-.986.479-.712 0-1.021-.502-1.021-1.178v-1.896h.782v1.603c0 .368.006.863.507.863.566 0 .689-.612.689-.997v-1.47h.78ZM367.192 682.316a1.909 1.909 0 0 0-.7-.128c-.21 0-.461.075-.461.332 0 .479 1.359.175 1.359 1.26 0 .7-.624.98-1.26.98-.297 0-.6-.053-.886-.128l.046-.642c.245.123.502.199.77.199.199 0 .514-.076.514-.368 0-.59-1.36-.187-1.36-1.272 0-.647.567-.933 1.179-.933.367 0 .607.058.852.11zM368.37 682.257h-.578v-.572h.578v-.6l.781-.25v.85h.694v.572h-.694v1.4c0 .257.07.495.368.495.14 0 .274-.029.356-.08l.023.617a2.04 2.04 0 0 1-.577.07c-.613 0-.95-.379-.95-.974Z"/></g><path fill="#56585d" d="M585.037 633.669h2.926v-2.791h-2.926zm0 13.293h2.926v-11.24h-2.926z" style="stroke-width:3.74132" transform="translate(37.597 -576.803)"/><g fill="#56585d" clip-path="url(#l)" transform="translate(-763.585 -2491.486) scale(3.74132)"><path d="M374.186 682.333a1.182 1.182 0 0 0-.53-.111c-.485 0-.794.385-.794.951 0 .554.263.98.81.98.222 0 .467-.082.6-.14l.036.647c-.227.07-.46.099-.781.099-.986 0-1.482-.67-1.482-1.586 0-.869.514-1.557 1.453-1.557.315 0 .542.035.758.099zM377.353 684.52c-.286.158-.613.24-1.032.24-.992 0-1.569-.572-1.569-1.558 0-.869.46-1.587 1.394-1.587 1.114 0 1.43.765 1.43 1.814h-2.078c.035.485.373.76.858.76.38 0 .705-.14.997-.304zm-.525-1.627c-.023-.379-.198-.706-.636-.706-.437 0-.659.303-.694.706z"/></g></svg>