<svg xmlns="http://www.w3.org/2000/svg" xml:space="preserve" width="503.45041" height="153.34407" viewBox="0 0 503.45041 153.34407"><g style="fill:#171c8f;fill-opacity:1"><g style="fill:#171c8f;fill-opacity:1;stroke-width:.329905"><path d="M0 0h2.099v-14.936H0v8.92h-2.332v1.45H0Z" style="fill:#171c8f;fill-opacity:1;fill-rule:nonzero;stroke:none;stroke-width:.329905" transform="matrix(4.04157 0 0 -4.04157 378.962 90.519)"/></g><g style="fill:#171c8f;fill-opacity:1;stroke-width:.329905"><path d="M0 0h-2.1v-14.936H0v8.92h1.746v1.45H0Z" style="fill:#171c8f;fill-opacity:1;fill-rule:nonzero;stroke:none;stroke-width:.329905" transform="matrix(4.04157 0 0 -4.04157 329.125 90.519)"/></g><g style="fill:#171c8f;fill-opacity:1;stroke-width:.329905"><path d="M0 0v3.084h-2.102V0c0-2.523-1.005-4.615-3.357-6.082l.924-1.188a8.65 8.65 0 0 1 3.484 3.393A8.64 8.64 0 0 1 2.431-7.27l.926 1.188C1.005-4.615 0-2.523 0 0" style="fill:#171c8f;fill-opacity:1;fill-rule:nonzero;stroke:none;stroke-width:.329905" transform="matrix(4.04157 0 0 -4.04157 302.76 103.472)"/></g><path d="M352.011 77.637h6.366v45.274h-6.366z" style="fill:#171c8f;fill-opacity:1;fill-rule:nonzero;stroke:none;stroke-width:1" transform="matrix(1.33333 0 0 -1.33333 -32.189 254.4)"/><g style="fill:#171c8f;fill-opacity:1;stroke-width:.329905"><path d="M0 0v3.084h-2.098V0c0-2.523-1.007-4.615-3.359-6.082l.924-1.188a8.65 8.65 0 0 1 3.486 3.393A8.65 8.65 0 0 1 2.434-7.27l.925 1.188C1.006-4.615 0-2.523 0 0" style="fill:#171c8f;fill-opacity:1;fill-rule:nonzero;stroke:none;stroke-width:.329905" transform="matrix(4.04157 0 0 -4.04157 359.531 103.472)"/></g><g style="fill:#171c8f;fill-opacity:1;stroke-width:.329905"><path d="M0 0v3.916h-2.099V-6.961H0v5.512h1.747V0Z" style="fill:#171c8f;fill-opacity:1;fill-rule:nonzero;stroke:none;stroke-width:.329905" transform="matrix(4.04157 0 0 -4.04157 47.862 106.337)"/></g><g style="fill:#171c8f;fill-opacity:1;stroke-width:.329905"><path d="M0 0c0 1.275.792 2.311 1.77 2.311.977 0 1.77-1.036 1.77-2.311s-.793-2.311-1.77-2.311C.792-2.311 0-1.275 0 0m5.64 0c0 1.139-.536 2.096-1.377 2.723h1.466v1.449H2.794v1.324h-2.1V4.172h-2.936V2.723h1.519C-1.563 2.096-2.1 1.139-2.1 0c0-2.051 1.734-3.715 3.87-3.715 2.138 0 3.87 1.664 3.87 3.715" style="fill:#171c8f;fill-opacity:1;fill-rule:nonzero;stroke:none;stroke-width:.329905" transform="matrix(4.04157 0 0 -4.04157 9.061 110.624)"/></g><g style="fill:#171c8f;fill-opacity:1;stroke-width:.329905"><path d="M0 0v1.449h-7.869v3.244H-9.97V1.236C-9.97.596-9.463 0-8.649 0Z" style="fill:#171c8f;fill-opacity:1;fill-rule:nonzero;stroke:none;stroke-width:.329905" transform="matrix(4.04157 0 0 -4.04157 48.316 150.684)"/></g><g style="fill:#171c8f;fill-opacity:1;stroke-width:.329905"><path d="M0 0v-6.574c0-.643.508-1.24 1.321-1.24H4.02v-4.37H-.772v-1.451h11.681v1.451h-4.79v4.37H9.9v1.453H2.101v4.91H9.9V0Z" style="fill:#171c8f;fill-opacity:1;fill-rule:nonzero;stroke:none;stroke-width:.329905" transform="matrix(4.04157 0 0 -4.04157 121.949 91.324)"/></g><g style="fill:#171c8f;fill-opacity:1;stroke-width:.329905"><path d="M0 0v2.506h5.013v1.449H3.957v3.922c0 .643-.509 1.24-1.322 1.24h-9.009V7.666h8.229V3.955H-7.11V2.506h5.011V0h-4.275v-1.453h8.229v-4.166h2.102V0Z" style="fill:#171c8f;fill-opacity:1;fill-rule:nonzero;stroke:none;stroke-width:.329905" transform="matrix(4.04157 0 0 -4.04157 89.083 128.172)"/></g><g style="fill:#171c8f;fill-opacity:1;stroke-width:.329905"><path d="M0 0c0-.643.507-1.238 1.32-1.238h2.809v-3.485H-.772v-1.451h11.903v1.451H6.23v3.485h3.891V.213H2.098v2.072h8.023v3.936c0 .642-.507 1.24-1.32 1.24H0V6.01h8.021V3.734H0Z" style="fill:#171c8f;fill-opacity:1;fill-rule:nonzero;stroke:none;stroke-width:.329905" transform="matrix(4.04157 0 0 -4.04157 176.541 121.477)"/></g><g style="fill:#171c8f;fill-opacity:1;stroke-width:.329905"><path d="M0 0v-1.451h8.121v-4.764H5.19v2.82H3.091v-2.82h-4.159v-1.451h12.567v1.451H10.22v4.975C10.22-.598 9.712 0 8.9 0Z" style="fill:#171c8f;fill-opacity:1;fill-rule:nonzero;stroke:none;stroke-width:.329905" transform="matrix(4.04157 0 0 -4.04157 231.718 91.324)"/></g><g style="fill:#171c8f;fill-opacity:1;stroke-width:.329905"><path d="M0 0c-1.324 0-2.396.912-2.396 2.033 0 1.123 1.072 2.033 2.396 2.033s2.396-.91 2.396-2.033C2.396.912 1.323 0 0 0m0 5.479c-2.481 0-4.497-1.541-4.497-3.446C-4.497.129-2.481-1.414 0-1.414c2.484 0 4.496 1.543 4.496 3.447S2.484 5.479 0 5.479" style="fill:#171c8f;fill-opacity:1;fill-rule:nonzero;stroke:none;stroke-width:.329905" transform="matrix(4.04157 0 0 -4.04157 252.518 147.63)"/></g><g style="fill:#171c8f;fill-opacity:1;stroke-width:.329905"><path d="m0 0-.008 3.607h3.146L3.13 0Zm3.148 9.57-.007-4.513H-.012L-.021 9.57h-2.081V-.213c0-.642.508-1.24 1.321-1.24h4.689c.815 0 1.321.598 1.321 1.24V9.57Z" style="fill:#171c8f;fill-opacity:1;fill-rule:nonzero;stroke:none;stroke-width:.329905" transform="matrix(4.04157 0 0 -4.04157 407.067 129.253)"/></g><g style="fill:#171c8f;fill-opacity:1;stroke-width:.329905"><path d="M0 0h-4.9v-1.449H7.002V0Z" style="fill:#171c8f;fill-opacity:1;fill-rule:nonzero;stroke:none;stroke-width:.329905" transform="matrix(4.04157 0 0 -4.04157 474.598 140.715)"/></g><g style="fill:#171c8f;fill-opacity:1;stroke-width:.329905"><path d="M0 0v1.533h-2.191V0c0-2.521-2.535-5.098-4.993-6.566l.966-1.366c1.625.817 4.027 2.856 5.122 4.659z" style="fill:#171c8f;fill-opacity:1;fill-rule:nonzero;stroke:none;stroke-width:.329905" transform="matrix(4.04157 0 0 -4.04157 483.272 97.205)"/></g><g style="fill:#171c8f;fill-opacity:1;stroke-width:.329905"><path d="M0 0v1.533h2.191V0c0-2.521 2.536-5.275 4.993-6.744l-.965-1.188c-1.625.817-4.028 2.856-5.123 4.659z" style="fill:#171c8f;fill-opacity:1;fill-rule:nonzero;stroke:none;stroke-width:.329905" transform="matrix(4.04157 0 0 -4.04157 474.416 97.205)"/></g></g><g style="stroke-width:1.81483"><g style="stroke-width:1.81483"><path d="M0 0c-6.827-6.716-14.891-8.092-24.905-8.092h-85.825c-6.829 0-12.895 5.519-15.728 13.295h-22.299c4.058-18.764 19.564-32.777 38.027-32.777h85.825c12.208 0 27.887 1.641 40.879 14.427L30.023.68 15.354 15.114z" style="fill:#e60021;fill-opacity:1;fill-rule:nonzero;stroke:none;stroke-width:1.81483" transform="matrix(.73468 0 0 -.7347 281.568 42.22)"/></g><g style="stroke-width:1.81483"><path d="M0 0h55.938c2.471 0 5.221-2.728 5.221-6.643 0-3.921-2.75-6.654-5.221-6.654h-71.667a28.5 28.5 0 0 1-1.7-9.741c0-3.457.615-6.763 1.7-9.741h71.667c14.817 0 26.873 11.724 26.873 26.136 0 14.405-12.056 26.126-26.873 26.126H0c-18.466 0-33.97-14.015-38.027-32.78h22.298C-12.895-5.519-6.832 0 0 0" style="fill:#e60021;fill-opacity:1;fill-rule:nonzero;stroke:none;stroke-width:1.81483" transform="matrix(.73468 0 0 -.7347 200.218 14.314)"/></g><g style="stroke-width:1.81483"><path d="M0 0c0 3.456.614 6.763 1.7 9.74h-22.299A46 46 0 0 1-21.647 0c0-3.353.372-6.611 1.048-9.742H1.7A28.5 28.5 0 0 0 0 0" style="fill:#802629;fill-opacity:1;fill-rule:nonzero;stroke:none;stroke-width:1.81483" transform="matrix(.73468 0 0 -.7347 187.414 31.24)"/></g><g style="stroke-width:1.81483"><path d="M0 0h-24.356c-5.979 0-10.825-4.361-10.825-9.74 0-5.381 4.846-9.742 10.825-9.742H0A46 46 0 0 0-1.049-9.74C-1.049-6.389-.677-3.131 0 0" style="fill:#e60021;fill-opacity:1;fill-rule:nonzero;stroke:none;stroke-width:1.81483" transform="matrix(.73468 0 0 -.7347 172.28 24.084)"/></g><g style="stroke-width:1.81483"><path d="M0 0c6.824 6.714 14.893 8.092 24.906 8.092h7.128c5.978 0 10.826 4.362 10.826 9.741s-4.848 9.742-10.826 9.742h-7.128c-12.21 0-27.886-1.641-40.88-14.427L-29.675-.341l14.664-14.435z" style="fill:#e60021;fill-opacity:1;fill-rule:nonzero;stroke:none;stroke-width:1.81483" transform="matrix(.73468 0 0 -.7347 325.427 20.26)"/></g><g style="stroke-width:1.81483"><path d="M0 0c-6.185 6.086-13.896 10.74-22.437 12.453-5.819 1.167-11.724-1.594-13.326-6.778-1.6-5.183 1.772-10.553 7.53-11.994 4.865-1.215 8.762-3.387 12.257-6.828L.786-29.608l14.669 14.435z" style="fill:#0071ce;fill-opacity:1;fill-rule:nonzero;stroke:none;stroke-width:1.81483" transform="matrix(.73468 0 0 -.7347 292.271 9.363)"/></g><g style="stroke-width:1.81483"><path d="M0 0h-7.131c-10.011 0-18.078 1.377-24.902 8.093l-15.145 14.944-14.664-14.435 13.834-13.657c12.991-12.787 28.669-14.426 40.877-14.426H0c5.979 0 10.824 4.361 10.824 9.74S5.979 0 0 0" style="fill:#0071ce;fill-opacity:1;fill-rule:nonzero;stroke:none;stroke-width:1.81483" transform="matrix(.73468 0 0 -.7347 349.06 48.04)"/></g><g style="stroke-width:1.81483"><path d="m0 0-14.669-14.435L0-28.87l14.664 14.435Z" style="fill:#0b1f8f;fill-opacity:1;fill-rule:nonzero;stroke:none;stroke-width:1.81483" transform="matrix(.73468 0 0 -.7347 303.626 20.51)"/></g></g></svg>