<svg xmlns="http://www.w3.org/2000/svg" width="793.1925pt" height="150pt" viewBox="0 0 793.19249 150"><path fill="#939598" d="M376.875 37.68v4.633h2.477v1.677h-2.477v4.174h-2.518V37.681zm-2.518 16.492v-3.018h-5.829v2.22c0 .458.22.798.798.798zm2.518-4.695v6.372h-8.467c-1.597 0-2.395-.856-2.395-2.395v-3.977zm-9.484-3.03c1.076 0 1.955-.939 1.955-2.597 0-1.657-.879-2.616-1.955-2.616-1.08 0-1.958.959-1.958 2.616 0 1.658.879 2.597 1.958 2.597m-5.294-5.213v-1.677h4.113v-1.876h2.518v1.876h4.113v1.677h-1.936c.52.698.837 1.598.837 2.616 0 2.576-1.956 4.274-4.351 4.274-2.398 0-4.354-1.698-4.354-4.274 0-1.018.3-1.918.818-2.616zM399.522 52.397h-2.336V37.682h2.336zm-7.288-11.742c0 .599-.039 1.478-.2 2.477h1.557V37.68h2.337v14.717h-2.337v-7.588h-1.896c-.54 1.936-1.557 4.113-3.574 5.97l-1.639-1.537c2.717-2.656 3.415-5.391 3.415-8.487v-.698h-1.695v.598c0 1.938-.7 5.652-4.514 8.485l-1.378-1.677c2.717-1.996 3.556-4.412 3.556-6.708v-.698h-2.636V38.38h7.687c.818 0 1.317.378 1.317 1.317zM418.935 37.68v5.612h2.475v1.677h-2.475v7.427h-2.517V37.68zm-7.229 6.77c0-1.618-.818-3.016-2.255-3.016h-.122c-1.357.081-2.135 1.439-2.135 3.016 0 1.616.818 2.994 2.257 2.994 1.437 0 2.255-1.378 2.255-2.994m-6.91 0c0-1.178.363-2.216 1.02-3.016h-1.656v-1.677h4.11V37.68h2.518v2.076h4.114v1.677h-1.818c.64.8 1.02 1.838 1.02 3.016 0 2.695-1.978 4.67-4.653 4.67-2.676 0-4.654-1.975-4.654-4.67M438.986 55.85h-9.783c-1.657 0-2.396-.859-2.396-2.395V49.52h2.516v3.854c0 .458.26.798.8.798h8.863zm0-11.222h-9.783c-1.657 0-2.396-.857-2.396-2.396V37.5h2.516v4.653c0 .458.26.798.8.798h8.863zm-14.356 1.958h16.332v1.677H424.63zM463.043 45.188h-1.976v-1.677h1.976v-1.577h-1.976v-1.677h1.976V37.68h2.518v10.304h-2.518zm-2.416 9.385c1.2 0 2.158-.9 2.158-2.357 0-1.458-.959-2.355-2.158-2.355-1.196 0-2.155.897-2.155 2.355 0 1.457.959 2.357 2.155 2.357m0-6.391c2.516 0 4.553 1.679 4.553 4.034 0 2.357-2.037 4.034-4.553 4.034-2.515 0-4.552-1.677-4.552-4.034 0-2.355 2.037-4.034 4.552-4.034m-4.831-2.475c.58-.739.859-1.938.859-3.533v-2.337h-2.557v5.87zm-4.154-5.87h-1.736V38.16h10.941v1.677h-1.736v2.135c0 1.659-.38 2.937-.9 3.735h2.797v1.677h-11.102v-1.677h1.736zM482.558 37.68v3.853h1.636v-3.852h2.336v10.103h-2.336V43.21h-1.636v4.133h-2.337v-9.663zM481.2 54.572c1.197 0 2.155-.897 2.155-2.354 0-1.458-.958-2.357-2.155-2.357-1.199 0-2.157.9-2.157 2.357 0 1.457.958 2.354 2.157 2.354m0-6.388c2.516 0 4.553 1.677 4.553 4.034 0 2.354-2.037 4.033-4.553 4.033-2.518 0-4.555-1.679-4.555-4.033 0-2.357 2.037-4.034 4.555-4.034m-5.072-6.11c0 .279-.04.56-.1.838l3.454 3.055-1.278 1.398-3.075-2.696c-.26.32-.54.62-.818.9-1.158 1.117-2.457 1.957-3.234 2.356l-1.22-1.996c1.279-.8 2.158-1.44 2.736-2.097.76-.859.997-1.738.997-3.036v-2.876h2.538zM507.042 55.85h-8.627c-1.657 0-2.394-.859-2.394-2.395V48.98h2.514v4.392c0 .46.26.8.8.8h7.707zm-.22-18.168V49.6h-2.515v-5.75h-3.794v-1.677h3.794v-4.491zm-8.165.457c.816 0 1.317.379 1.317 1.32v.598c0 3.533-3.635 6.889-7.169 8.546l-1.158-1.997c2.856-1.319 5.79-4.074 5.79-6.13v-.66h-5.23V38.14zM526.654 37.68v4.053h2.475v1.679h-2.475v4.172h-2.518v-9.903zm-4.934 16.891c1.2 0 2.158-.897 2.158-2.354 0-1.458-.959-2.357-2.158-2.357-1.196 0-2.155.9-2.155 2.357 0 1.457.959 2.354 2.155 2.354m0-6.388c2.518 0 4.553 1.677 4.553 4.034 0 2.354-2.035 4.033-4.553 4.033-2.513 0-4.55-1.679-4.55-4.033 0-2.357 2.037-4.034 4.55-4.034m-2.434-10.044c.816 0 1.317.38 1.317 1.318v.4c0 3.535-3.635 6.889-7.168 8.545l-1.158-1.996c2.855-1.319 5.79-4.073 5.79-6.13v-.458h-5.23v-1.68z" style="stroke-width:2.03526"/><path fill="#00ab70" d="M59.47 101.504c0 6.073-4.917 10.996-10.984 10.996S37.5 107.577 37.5 101.504c0-6.074 4.92-10.997 10.986-10.997 6.067 0 10.985 4.923 10.985 10.997" style="stroke-width:2.03526"/><path fill="#e88529" d="M339.598 48.496c0 6.074-4.918 10.997-10.985 10.997-6.067 0-10.986-4.923-10.986-10.997 0-6.073 4.92-10.996 10.986-10.996 6.067 0 10.985 4.923 10.985 10.996" style="stroke-width:2.03526"/><path fill="#414042" d="M38.983 38.952h19.005V75H38.983Z" style="stroke-width:2.03526"/><path fill="#414042" d="M104.385 38.95H83.447L57.987 75l25.46 36.05h20.938L78.928 75ZM172.807 38.95v72.1h-19.005V82.4h-22.436v28.65H112.36v-72.1h19.006v27.69h22.436V38.95ZM239.796 96.348v14.702h-52.394V38.951h51.922v14.701h-33.11V67.41h29.078v14.22h-29.078v14.718zM288.49 71.094c1.982-1.698 2.975-4.116 2.975-7.256 0-3.138-.993-5.572-2.975-7.302-1.985-1.73-4.928-2.593-8.831-2.593h-8.626v19.695h8.626c3.903 0 6.846-.847 8.83-2.544m8.16-29.115c4.478 2.017 7.933 4.9 10.366 8.646 2.432 3.75 3.649 8.153 3.649 13.213 0 5.062-1.217 9.45-3.65 13.164-2.432 3.716-5.887 6.582-10.365 8.601-4.48 2.017-9.76 3.026-15.836 3.026h-9.78v22.42h-19.005V38.952h28.785c6.077 0 11.356 1.007 15.836 3.028M319.111 71.746h19.005v39.303h-19.005z" style="stroke-width:2.03526"/><path fill="#6d6e71" d="M444.034 68.962v4.113c0 5.21-.957 8.968-1.25 9.993.002-.002-.42 1.35-.42 1.35l-.052.165h5.764v4.55H430.01v6.843h14.874v14.918h-5.638v-10.32h-27.985v-4.598h13.111v-6.843h-15.382v-4.55h27.836l.18-.458c.895-2.54 1.39-5.823 1.39-9.242v-1.376H411.79v-4.545zM518.89 68.962v3.906c0 1.595-.855 7.066-3.61 10.548-3.57 4.578-9.454 7.852-17.017 9.479-.075-.19-1.68-4.138-1.775-4.378 10.032-2.245 16.329-7.602 16.858-14.349l.053-.661h-14.752v-4.545zM515.48 83.575ZM531.8 68.261v9.663h5.797v4.649h-5.796v10.252h-5.591V68.26Z" style="stroke-width:2.03526"/><path fill="#6d6e71" d="M518.231 95.55c-4.04 0-7.089 2.617-7.089 6.089 0 3.468 3.05 6.087 7.09 6.087h.166c4.04 0 7.089-2.62 7.089-6.087 0-3.472-3.049-6.09-7.089-6.09zm-12.675 6.089c0-6.092 5.448-10.683 12.675-10.683h.167c7.227 0 12.676 4.591 12.676 10.683 0 6.146-5.449 10.783-12.676 10.783h-.167c-7.227 0-12.675-4.637-12.675-10.783M579.112 81.378c-4.079-.315-12.955-2.456-14.35-7.074l-.225-.743h13.39v-4.6h-32.674v4.6h13.392l-.228.743c-1.396 4.618-10.27 6.759-14.348 7.074l-.185.015 1.286 4.656.13-.012c5.334-.557 12.407-2.82 16.29-6.614 3.884 3.793 10.954 6.057 16.29 6.614l.129.014 1.288-4.658zM561.472 93.643c-4.04 0-7.089 3.024-7.089 7.04 0 4.044 3.049 7.093 7.089 7.093h.106c4.042 0 7.09-3.05 7.09-7.093 0-4.016-3.048-7.04-7.09-7.04zm19.622-4.897v4.596h-9.922l.175.211c1.43 1.71 2.908 3.479 2.908 7.834 0 6.19-5.57 11.035-12.677 11.035h-.106c-7.107 0-12.674-4.846-12.674-11.035 0-4.355 1.476-6.124 2.905-7.834l.175-.211h-9.922v-4.596ZM611.291 68.962v4.496h-8.861v.765c0 5.886 3.76 10.883 10.316 13.73-.144.228-2.525 3.914-2.625 4.07-3.71-1.648-7.333-4.528-9.702-7.723l-.521-.707-.483.735c-2.303 3.495-6.134 6.68-10.257 8.54-.112-.183-2.463-3.924-2.548-4.062 6.533-2.878 10.282-7.89 10.282-13.781v-1.567h-8.862v-4.496zM667.243 68.261v42.64h-5.49V85.773h-3.69v24.425h-5.493V68.654h5.494v12.47h3.69V68.26ZM708.712 68.261v9.024h5.799v4.649h-5.799v21.72h-25.03v3.149h25.03v4.09h-30.616V99.71h25.027v-3.098h-25.027v-4.044h25.027V68.261Z" style="stroke-width:2.03526"/><path fill="#6d6e71" d="M690.87 78.77h-10.586v5.714h10.713V78.77zm5.62-9.807v19.99h-21.697v-19.99h5.49v5.44h10.714v-5.44zM476.053 68.962v3.906c0 1.595-.857 7.066-3.61 10.548-3.497 4.48-9.233 7.72-16.59 9.377l-1.718-4.394c4.76-1.126 8.77-3 11.593-5.43 2.87-2.467 4.522-5.512 4.783-8.8l.05-.662H454.96v-4.545zM398.847 68.962v10.162h5.654v4.693h-5.654V96.48h-5.587V68.962ZM375.344 89.059h-.034c-3.21 0-5.628-2.616-5.628-6.088 0-3.525 2.367-6.087 5.628-6.087h.034c3.263 0 5.63 2.562 5.63 6.087 0 3.472-2.42 6.088-5.63 6.088m12.934-16.875h-10.223v-4.762h-5.542v4.762h-10.416v4.394h4.41c-1.317 1.661-2.316 4.107-2.316 6.704 0 5.547 4.78 10.173 11.119 10.173h.034c6.34 0 11.119-4.626 11.119-10.173 0-2.597-1-5.043-2.314-6.704h4.13zM374.807 96.735v9.513h24.305v4.646h-29.894v-14.16ZM466.444 96.735v9.513h24.005v4.646h-29.643v-14.16ZM490.185 68.261v28.217h-5.59V83.71h-7.015v-4.647h7.016V68.261ZM599.004 96.735v9.513h24.382v4.646h-30.02v-14.16ZM623.122 96.478h-5.591V68.261h5.59zM755.427 68.261v31.435h-5.589v-4.114h-8.766V91.19h8.766V68.261zM730.482 98.413v7.987l25.21-.004v4.497h-30.799v-12.48Z" style="stroke-width:2.03526"/><path fill="#6d6e71" d="M726.627 77.427c0 3.08 2.601 5.68 5.679 5.68 3.075 0 5.676-2.6 5.676-5.68 0-3.077-2.601-5.678-5.676-5.678-3.078 0-5.679 2.601-5.679 5.678m19.938 8.035v4.378c-2.424.566-5.17.682-8.795.682l-4.25.012v6.086h-5.588v-6.098h-9.106V86.08l7.933.01a10.281 10.281 0 0 1-2.202-1.428c-2.14-1.816-3.274-4.317-3.274-7.234 0-2.912 1.133-5.413 3.274-7.229 2.011-1.712 4.763-2.652 7.749-2.652 2.98 0 5.733.94 7.75 2.652 2.139 1.816 3.272 4.317 3.275 7.23 0 2.916-1.136 5.417-3.275 7.233a10.551 10.551 0 0 1-2.237 1.445l4.264.006c1.184 0 3.002-.267 4.482-.65M647.913 68.962v5.109c0 10.65-4.99 19.145-14.837 25.253-.13-.177-2.841-3.881-2.992-4.085 4.175-2.538 7.189-5.387 9.204-8.713 2.11-3.486 3.136-7.496 3.136-12.254v-.613h-11.72v-4.697z" style="stroke-width:2.03526"/></svg>