<svg xmlns="http://www.w3.org/2000/svg" xml:space="preserve" width="1076.918" height="300" viewBox="0 0 1076.918 299.99999"><path d="M291.211 606.07c-11.49-6.345-25.95-2.183-32.288 9.3-6.351 11.49-2.18 25.944 9.297 32.296 11.487 6.344 25.948 2.186 32.285-9.301 6.365-11.49 2.197-25.948-9.294-32.296" style="fill:#009345;fill-opacity:1;fill-rule:nonzero;stroke:none;stroke-width:3.39449" transform="matrix(1.33333 0 0 -1.33333 -126.682 932.256)"/><path d="M291.211 606.07c-11.49-6.345-25.95-2.183-32.288 9.3-6.351 11.49-2.18 25.944 9.297 32.296 11.487 6.344 25.948 2.186 32.285-9.301 6.365-11.49 2.197-25.948-9.294-32.296z" style="fill:none;stroke:#009345;stroke-width:3.39449;stroke-linecap:butt;stroke-linejoin:miter;stroke-miterlimit:4;stroke-dasharray:none;stroke-opacity:1" transform="matrix(1.33333 0 0 -1.33333 -126.682 932.256)"/><path d="M154.971 607.336c-11.49-6.351-25.947-2.18-32.302 9.308-6.347 11.48-2.179 25.94 9.311 32.288 11.487 6.344 25.951 2.183 32.289-9.308 6.347-11.483 2.179-25.934-9.298-32.288" style="fill:#f6901e;fill-opacity:1;fill-rule:nonzero;stroke:none;stroke-width:3.39449" transform="matrix(1.33333 0 0 -1.33333 -126.682 932.256)"/><path d="M154.971 607.336c-11.49-6.351-25.947-2.18-32.302 9.308-6.347 11.48-2.179 25.94 9.311 32.288 11.487 6.344 25.951 2.183 32.289-9.308 6.347-11.483 2.179-25.934-9.298-32.288z" style="fill:none;stroke:#f6901e;stroke-width:3.39449;stroke-linecap:butt;stroke-linejoin:miter;stroke-miterlimit:4;stroke-dasharray:none;stroke-opacity:1" transform="matrix(1.33333 0 0 -1.33333 -126.682 932.256)"/><path d="M219.728 690.034s-108.4 17.56-94.451-47.856c0 0 29.925 49.352 94.451 47.856M124.306 640.435s-63.846-19.84-3.027-98.45c0 0-26.012 48.371 3.027 98.45" style="fill:#f6901e;fill-opacity:1;fill-rule:nonzero;stroke:none;stroke-width:3.39449" transform="matrix(1.33333 0 0 -1.33333 -126.682 932.256)"/><path d="M221.752 490.725c-11.48-6.344-25.924-2.183-32.288 9.3-6.338 11.491-2.183 25.952 9.307 32.296 11.49 6.348 25.951 2.18 32.302-9.304 6.334-11.49 2.17-25.941-9.321-32.292" style="fill:#6c57a4;fill-opacity:1;fill-rule:nonzero;stroke:none;stroke-width:3.39449" transform="matrix(1.33333 0 0 -1.33333 -126.682 932.256)"/><path d="M221.752 490.725c-11.48-6.344-25.924-2.183-32.288 9.3-6.338 11.491-2.183 25.952 9.307 32.296 11.49 6.348 25.951 2.18 32.302-9.304 6.334-11.49 2.17-25.941-9.321-32.292z" style="fill:none;stroke:#6c57a4;stroke-width:3.39449;stroke-linecap:butt;stroke-linejoin:miter;stroke-miterlimit:4;stroke-dasharray:none;stroke-opacity:1" transform="matrix(1.33333 0 0 -1.33333 -126.682 932.256)"/><path d="M209.522 488.421s-48.806-54.482-88.393 53.904c1.253-2.243 28.918-53.106 88.393-53.904M210.99 488.282s48.08-55.13 89.092 52.71c-1.27-2.23-29.617-52.71-89.092-52.71" style="fill:#6c57a4;fill-opacity:1;fill-rule:nonzero;stroke:none;stroke-width:3.39449" transform="matrix(1.33333 0 0 -1.33333 -126.682 932.256)"/><path d="M219.728 690.034s48.857-.398 78.634-48.379l1.989-3.377s13.136 63.99-80.623 51.755M299.03 539.403s27.828 40.15 5.767 92.133l-1.613 3.565s59.862-26.128-4.154-95.698" style="fill:#009345;fill-opacity:1;fill-rule:nonzero;stroke:none;stroke-width:3.39449" transform="matrix(1.33333 0 0 -1.33333 -126.682 932.256)"/><path d="M125.932 533.829a7.171 7.171 0 0 0-9.759 2.81c-1.924 3.47-.651 7.845 2.814 9.76 3.466 1.914 7.842.665 9.756-2.814 1.928-3.463.665-7.841-2.81-9.756" style="fill:#6c57a4;fill-opacity:1;fill-rule:nonzero;stroke:none;stroke-width:3.39449" transform="matrix(1.33333 0 0 -1.33333 -126.682 932.256)"/><path d="M125.932 533.829a7.171 7.171 0 0 0-9.759 2.81c-1.924 3.47-.651 7.845 2.814 9.76 3.466 1.914 7.842.665 9.756-2.814 1.928-3.463.665-7.841-2.81-9.756z" style="fill:none;stroke:#6c57a4;stroke-width:3.39449;stroke-linecap:butt;stroke-linejoin:miter;stroke-miterlimit:4;stroke-dasharray:none;stroke-opacity:1" transform="matrix(1.33333 0 0 -1.33333 -126.682 932.256)"/><path d="M218.88 684.032c-3.476-1.918-7.855-.652-9.77 2.814a7.197 7.197 0 0 0 2.81 9.762 7.194 7.194 0 0 0 9.77-2.817c1.915-3.47.655-7.845-2.81-9.76" style="fill:#f6901e;fill-opacity:1;fill-rule:nonzero;stroke:none;stroke-width:3.39449" transform="matrix(1.33333 0 0 -1.33333 -126.682 932.256)"/><path d="M218.88 684.032c-3.476-1.918-7.855-.652-9.77 2.814a7.197 7.197 0 0 0 2.81 9.762 7.194 7.194 0 0 0 9.77-2.817c1.915-3.47.655-7.845-2.81-9.76z" style="fill:none;stroke:#f6901e;stroke-width:3.39449;stroke-linecap:butt;stroke-linejoin:miter;stroke-miterlimit:4;stroke-dasharray:none;stroke-opacity:1" transform="matrix(1.33333 0 0 -1.33333 -126.682 932.256)"/><path d="M302.664 533.032a7.18 7.18 0 0 0-9.759 2.81c-1.91 3.466-.652 7.842 2.814 9.756 3.48 1.918 7.845.665 9.76-2.81a7.184 7.184 0 0 0-2.815-9.756" style="fill:#009345;fill-opacity:1;fill-rule:nonzero;stroke:none;stroke-width:3.39449" transform="matrix(1.33333 0 0 -1.33333 -126.682 932.256)"/><path d="M302.664 533.032a7.18 7.18 0 0 0-9.759 2.81c-1.91 3.466-.652 7.842 2.814 9.756 3.48 1.918 7.845.665 9.76-2.81a7.184 7.184 0 0 0-2.815-9.756z" style="fill:none;stroke:#009345;stroke-width:3.39449;stroke-linecap:butt;stroke-linejoin:miter;stroke-miterlimit:4;stroke-dasharray:none;stroke-opacity:1" transform="matrix(1.33333 0 0 -1.33333 -126.682 932.256)"/><path d="m157.164 572.557 15.526 20.017h11.345l-16.922-20.017 16.12-20.523h-11.378zm-.302-20.523h-8.608v40.544h8.608z" style="fill:#404040;fill-opacity:1;fill-rule:nonzero;stroke:none;stroke-width:3.39449" transform="matrix(1.33333 0 0 -1.33333 -126.682 932.256)"/><path d="M216.418 559.258v-7.224h-14.145c-2.688 0-4.748.136-6.167.411-4.97.97-8.507 3.758-10.618 8.354-1.382 3.069-2.071 6.87-2.071 11.402 0 5.448 1.052 9.885 3.184 13.31 1.517 2.447 3.564 4.24 6.134 5.373 2.56 1.127 5.88 1.69 9.966 1.69h13.717v-7.216h-12.736c-3.87 0-6.704-1.025-8.496-3.086-1.49-1.697-2.23-4.8-2.23-9.27 0-5.974 1.15-9.908 3.479-11.792 1.622-1.3 4.131-1.952 7.573-1.952zM231.147 573.42h11.765c2.098 0 3.574.339 4.426 1.01 1.27 1.006 1.901 2.764 1.901 5.262 0 2.726-.957 4.484-2.885 5.248-.69.279-1.779.418-3.259.418h-11.948zm0-7.217v-14.169h-8.609v40.544h20.231c3.673 0 6.328-.258 7.926-.77 2.655-.894 4.75-2.75 6.3-5.558 1.141-2.074 1.722-4.361 1.722-6.863 0-2.06-.374-4.012-1.124-5.852-.767-1.83-1.81-3.357-3.153-4.539-1.189-1.049-2.461-1.778-3.833-2.19-1.368-.403-3.235-.603-5.584-.603z" style="fill:#404040;fill-opacity:1;fill-rule:nonzero;stroke:none;stroke-width:3.39449" transform="matrix(1.33333 0 0 -1.33333 -126.682 932.256)"/><path d="M264.244 592.577h8.605v-40.543h-8.605z" style="fill:#404040;fill-opacity:1;fill-rule:nonzero;stroke:none;stroke-width:3.3945" transform="matrix(1.33333 0 0 -1.33333 -126.682 932.256)"/><path d="M429.621 597.92v-12.8h-10.16v-34.764h-10.566v77.3h10.567V597.92zm-41.066-40.48v-21.952h32.023v-12.695h-42.665v34.647zm-.153 41.681c-1.66 2.553-3.476 3.836-5.445 3.836-1.979 0-3.795-1.283-5.445-3.836-1.66-2.552-2.48-5.502-2.48-8.856 0-3.282.82-6.178 2.48-8.69 1.65-2.515 3.466-3.778 5.445-3.778 1.969 0 3.785 1.263 5.445 3.778 1.65 2.512 2.478 5.408 2.478 8.69 0 3.354-.828 6.304-2.478 8.856m16.721 19.73v-12.347h-9.12c1.544-2.135 2.813-4.633 3.804-7.495.985-2.858 1.477-5.926 1.477-9.199 0-6.867-1.755-12.74-5.282-17.614-3.523-4.881-7.872-7.315-13.045-7.315-5.176 0-9.518 2.434-13.007 7.315-3.497 4.875-5.248 10.747-5.248 17.614 0 3.273.488 6.341 1.442 9.2.958 2.86 2.24 5.36 3.85 7.494h-9.37v12.346h16.807v11.552h11.283V618.85zM484.536 599.067c.37 4.8.557 8.917.557 12.352h-32.02v12.808h42.91c.105-5.031-.126-11.375-.683-19.04-.56-7.658-1.3-14.274-2.203-19.844h15.686v-12.346h-28.252v-13.72h16.008v-38.202h-10.652v25.734h-33.53v12.467h17.047v13.721h-28.497v12.346h41.786c.852 4.348 1.466 8.92 1.843 13.724" style="fill:#231f20;fill-opacity:1;fill-rule:nonzero;stroke:none;stroke-width:3.39449" transform="matrix(1.33333 0 0 -1.33333 -126.682 932.256)"/><path d="M544.252 583.402h21.138v14.067h-21.138zm-10.564-12.352v53.405h10.564v-14.752h21.134v14.752h10.56V571.05h-15.37v-12.577h28.337v-12.465h-67.957v12.465h28.496v12.577zM631.494 557.33h7.93v8.92h-7.93zm-2.678 39.793c1.737-2.441 3.75-3.656 6.042-3.656 2.355 0 4.375 1.215 6.086 3.656 1.704 2.444 2.563 5.417 2.563 8.92 0 3.436-.859 6.365-2.563 8.81-1.71 2.436-3.73 3.658-6.086 3.658-2.292 0-4.305-1.222-6.042-3.659-1.732-2.444-2.6-5.373-2.6-8.809 0-3.503.868-6.476 2.6-8.92m19.535 26.53c3.649-4.877 5.478-10.746 5.478-17.61 0-6.86-1.843-12.729-5.522-17.607-3.677-4.881-8.157-7.322-13.45-7.322-5.274 0-9.762 2.44-13.441 7.322-3.687 4.878-5.53 10.747-5.53 17.607 0 6.864 1.83 12.733 5.489 17.61 3.66 4.879 8.15 7.323 13.483 7.323 5.34 0 9.837-2.444 13.493-7.322m-47.428-57.404v12.349h68.199v-12.35h-19.047v-8.92h6.558v-36.253h-10.648v23.789h-33.538v12.464h8.412v8.92zM731.482 627.656h10.563v-77.418h-10.563Zm-20.574-70.215V535.49h32.818v-12.695h-43.47v34.647zm-25.377 53.182v12.457h36.738v-12.457h-12.8v-3.09c0-2.898.397-5.926 1.198-9.097.797-3.16 1.731-5.733 2.8-7.715 1.277-2.363 2.974-4.75 5.082-7.15 2.108-2.402 4.525-4.551 7.244-6.455l-5.367-10.52c-1.324.838-2.77 1.921-4.311 3.252a59.51 59.51 0 0 0-4.566 4.406 63.993 63.993 0 0 0-4.05 4.976c-1.248 1.718-2.274 3.405-3.078 5.089-.69-1.528-1.572-3.15-2.644-4.868a79.925 79.925 0 0 0-3.436-5.078 60.82 60.82 0 0 0-4.806-5.835c-1.711-1.83-3.357-3.357-4.963-4.58l-6.646 10.065c2.4 1.983 4.735 4.406 7.01 7.264 2.26 2.855 4.06 5.622 5.403 8.286 1.066 2.22 1.996 5 2.804 8.347.794 3.357 1.198 6.484 1.198 9.383v3.32z" style="fill:#231f20;fill-opacity:1;fill-rule:nonzero;stroke:none;stroke-width:3.3945" transform="matrix(1.33333 0 0 -1.33333 -126.682 932.256)"/><path d="M800.118 608.16c-1.412 1.863-3.137 2.797-5.163 2.797-1.973 0-3.677-.934-5.085-2.798-1.409-1.87-2.122-4.25-2.122-7.145 0-2.824.713-5.187 2.122-7.091 1.408-1.908 3.112-2.855 5.085-2.855 2.026 0 3.75.947 5.163 2.855 1.408 1.904 2.121 4.267 2.121 7.091 0 2.896-.713 5.275-2.121 7.145m.8-75.815c1.627 2.023 2.438 4.555 2.438 7.607 0 2.973-.767 5.482-2.318 7.552-1.552 2.05-3.47 3.083-5.764 3.083-2.292 0-4.26-1.012-5.876-3.028-1.636-2.023-2.444-4.562-2.444-7.607 0-3.052.767-5.584 2.318-7.607 1.548-2.02 3.466-3.032 5.764-3.032 2.291 0 4.257 1.012 5.883 3.032m7.685 23.388c3.656-4.42 5.485-9.681 5.485-15.781 0-6.022-1.83-11.243-5.485-15.663-3.656-4.426-8.096-6.636-13.33-6.636-5.18 0-9.607 2.21-13.29 6.636-3.68 4.42-5.523 9.64-5.523 15.663 0 6.1 1.844 11.361 5.523 15.78 3.683 4.417 8.11 6.63 13.29 6.63 5.234 0 9.674-2.213 13.33-6.63m10.204 67.228v-12.002h-8.405c.798-1.365 1.426-2.893 1.887-4.57.445-1.683.676-3.469.676-5.373 0-5.947-1.779-11.022-5.326-15.21-3.544-4.193-7.774-6.287-12.685-6.287-4.909 0-9.125 2.125-12.648 6.398-3.517 4.274-5.279 9.305-5.279 15.1 0 1.903.21 3.689.635 5.373.428 1.676 1.039 3.204 1.843 4.569h-8.411v12.002h18.259v8.925h11.28v-8.925zm-57.873-45.964h68.355V565.33h-68.355zM876.603 555.85v11.202h15.051v60.49h10.564v-80.277h-10.564v8.585zm-6.643-4.355V535.49h32.74v-12.695h-43.385v28.7zm.075 46.202c1.547 2.06 2.325 4.495 2.325 7.315 0 2.97-.733 5.432-2.196 7.377-1.474 1.945-3.296 2.919-5.49 2.919-2.134 0-3.934-.974-5.4-2.92-1.466-1.944-2.206-4.405-2.206-7.376 0-2.82.777-5.254 2.325-7.315 1.544-2.057 3.306-3.085 5.282-3.085 2.026 0 3.812 1.028 5.36 3.085m7.77 23.436c3.621-4.494 5.438-9.868 5.438-16.12 0-6.253-1.817-11.64-5.438-16.179-3.63-4.535-8.008-6.799-13.13-6.799-5.068 0-9.42 2.264-13.049 6.8-3.632 4.538-5.444 9.925-5.444 16.177 0 6.253 1.812 11.627 5.444 16.12 3.629 4.505 7.98 6.76 13.049 6.76 5.122 0 9.5-2.255 13.13-6.76m-20.652-53.167-16.172-.112v11.775h13.364c5.387 0 11.694.33 18.894.971 7.21.645 12.675 1.283 16.409 1.891v-11.551c-1.976-.384-4.746-.781-8.317-1.199-3.58-.42-7.345-.825-11.296-1.205v-13.832h-10.802v13.262z" style="fill:#231f20;fill-opacity:1;fill-rule:nonzero;stroke:none;stroke-width:3.39449" transform="matrix(1.33333 0 0 -1.33333 -126.682 932.256)"/></svg>