<svg xmlns="http://www.w3.org/2000/svg" width="984.24976mm" height="200mm" viewBox="0 0 984.24976 200"><defs><clipPath id="a" clipPathUnits="userSpaceOnUse"><path d="M0 737.01h510.24V0H0Z"/></clipPath><clipPath id="b" clipPathUnits="userSpaceOnUse"><path d="M245.972 399.19c-19.293 0-34.997-15.686-35.019-34.983-.003-7.307 2.217-14.313 6.431-20.255l3.274 2.32a30.8 30.8 0 0 0-5.687 17.93c.019 17.096 13.936 30.988 31.03 30.973l.004 4.014v.001z"/></clipPath><clipPath id="d" clipPathUnits="userSpaceOnUse"><path d="M0 737.01h510.24V0H0Z"/></clipPath><linearGradient id="c" x1="0" x2="1" y1="0" y2="0" gradientTransform="scale(-34.36882) rotate(-74.876 -10.049 -.626)" gradientUnits="userSpaceOnUse" spreadMethod="pad"><stop offset="0" style="stop-opacity:1;stop-color:#fff"/><stop offset="0.32609724" style="stop-opacity:1;stop-color:#00a597"/><stop offset="1" style="stop-opacity:1;stop-color:#00a597"/></linearGradient></defs><path d="M-187.192 247.29h-15.007v72.895h15.007z" style="fill:#144883;fill-opacity:1;fill-rule:nonzero;stroke:none;stroke-width:2.46465" transform="translate(297.04 -313.614) scale(1.46905)"/><g clip-path="url(#a)" transform="matrix(3.6207 0 0 -3.6207 -628.162 1445.346)"><path d="m0 0-20.931-13.763c-.432-.286-.67-.65-.67-1.025 0-.375.238-.738.67-1.024L0-29.576h-10.154l-16.283 10.715c-1.646 1.081-2.552 2.525-2.552 4.073 0 1.552.906 2.996 2.552 4.074L-10.154 0Z" style="fill:#144883;fill-opacity:1;fill-rule:nonzero;stroke:none" transform="translate(209.616 385.471)"/><path d="M0 0c0 5.351-5.092 8.481-11.84 8.481h-26.746V4.276h25.454c3.68 0 6.673-1.384 6.673-4.276 0-2.888-2.993-4.276-6.673-4.276h-9.279c-2.853 0-5.08-.828-5.958-2.218-.682-1.075-.825-2.799 2.349-4.883l14.8-9.72h10.154L-20.282-8.48h8.442C-5.092-8.48 0-5.345 0 0" style="fill:#144883;fill-opacity:1;fill-rule:nonzero;stroke:none" transform="translate(249.643 376.99)"/><path d="m0 0-17.929 26.914c-1.679 2.516-4.145 2.894-5.464 2.894-1.325 0-3.788-.378-5.464-2.894L-46.79 0h7.505s13.367 20.064 15.892 23.849C-20.874 20.064-7.507 0-7.507 0Z" style="fill:#144883;fill-opacity:1;fill-rule:nonzero;stroke:none" transform="translate(296.11 355.894)"/></g><g clip-path="url(#b)" transform="matrix(3.6207 0 0 -3.6207 -628.162 1445.346)"><path d="M245.972 399.19c-19.293 0-34.997-15.686-35.019-34.983-.003-7.307 2.217-14.313 6.431-20.255l3.274 2.32a30.8 30.8 0 0 0-5.687 17.93c.019 17.096 13.936 30.988 31.03 30.973l.004 4.014v.001z" style="fill:url(#c);stroke:none"/></g><g clip-path="url(#d)" transform="matrix(4.69696 0 0 -4.69696 -633.284 1660.178)"><path d="M0 0c-.437-.666-.947-1.005-1.521-1.005-.568 0-1.083.337-1.526 1.005-.437.656-.659 1.438-.659 2.326 0 .89.222 1.67.659 2.32.443.655.958.989 1.526.989.574 0 1.084-.334 1.521-.989.428-.652.643-1.43.643-2.32C.643 1.438.428.656 0 0m4.598 6.354v1.939H.146v2.738h-3.354V8.293h-4.451V6.354h2.873l-.169-.131a5.401 5.401 0 0 1-1.396-1.707 4.617 4.617 0 0 1-.537-2.19c0-1.397.533-2.619 1.578-3.623 1.053-1.014 2.327-1.524 3.789-1.524 1.468 0 2.738.51 3.781 1.521C3.299-.293 3.827.929 3.827 2.326c0 .778-.181 1.515-.537 2.19a5.393 5.393 0 0 1-1.4 1.707l-.165.131Z" style="fill:#515252;fill-opacity:1;fill-rule:nonzero;stroke:none" transform="translate(246.128 332.03)"/><path d="M0 0v1.965h-11.093v5.294h-3.356V2.413c0-.736.226-1.331.675-1.764C-13.326.22-12.759 0-12.086 0Z" style="fill:#515252;fill-opacity:1;fill-rule:nonzero;stroke:none" transform="translate(256.821 320.084)"/><path d="M0 0h-3.356v-16.758H0v9.522h3.507v1.963H0Z" style="fill:#515252;fill-opacity:1;fill-rule:nonzero;stroke:none" transform="translate(256.047 342.81)"/><path d="M0 0v1.965h-3.42l.08.114c.224.32.421.847.588 1.567.162.721.242 1.41.242 2.047v4.949h-14.792V8.677h11.441V5.593c0-.643-.026-1.283-.076-1.907a6.122 6.122 0 0 0-.352-1.675l-.016-.046h-13.404V0h8.105v-3.807h-5.794V-5.77h11.487v-6.193h3.353v8.156h-5.691V0Z" style="fill:#515252;fill-opacity:1;fill-rule:nonzero;stroke:none" transform="translate(280 332.045)"/><path d="M286.094 340.103h3.908v-9.846h-3.908zm7.266 1.963h-10.62v-11.389c0-.723.215-1.308.639-1.74.421-.431.992-.648 1.697-.648h8.284z" style="fill:#515252;fill-opacity:1;fill-rule:nonzero;stroke:none"/><path d="M0 0h-3.356v-22.727H0v15.168h3.507v1.963H0Z" style="fill:#515252;fill-opacity:1;fill-rule:nonzero;stroke:none" transform="translate(299.55 342.81)"/><path d="M0 0c-1.37.313-2.605 1.232-3.681 2.743-1.105 1.556-1.668 3.454-1.668 5.651v4.326h-3.402V8.394c0-2.178-.553-4.073-1.645-5.64C-11.454 1.237-12.699.313-14.095 0l1.611-1.499c1.095.119 2.213.639 3.322 1.542 1.121.915 1.807 1.896 2.05 2.922l.068.286.078-.284c.275-1.028.975-2.011 2.077-2.935C-3.8-.879-2.682-1.394-1.571-1.499z" style="fill:#515252;fill-opacity:1;fill-rule:nonzero;stroke:none" transform="translate(316.821 329.594)"/><path d="M0 0h-3.355v-22.727H0v15.29h3.505v1.967H0Z" style="fill:#515252;fill-opacity:1;fill-rule:nonzero;stroke:none" transform="translate(321.27 342.81)"/><path d="M0 0c-.569 0-1.075.338-1.491 1.004-.412.654-.62 1.43-.62 2.302 0 .871.208 1.646.62 2.303.421.665.922 1.004 1.491 1.004.588 0 1.094-.339 1.506-1.004.404-.654.608-1.432.608-2.303 0-.874-.204-1.648-.608-2.302C1.096.338.588 0 0 0m8.179 11.536V-2.84l-.046-.017a9.512 9.512 0 0 0-1.608-.375 13.537 13.537 0 0 0-2.095-.152H1.668v1.794l.053.021A5.32 5.32 0 0 1 4.294.304a4.89 4.89 0 0 1 1.003 3.002c0 .681-.14 1.338-.417 1.946a5.34 5.34 0 0 1-1.103 1.606l-.128.128h2.544v1.941H1.668v2.735h-3.355V8.927H-6.19V6.986h2.548l-.134-.128a5.088 5.088 0 0 1-1.117-1.606 4.855 4.855 0 0 1-.4-1.946c0-1.106.336-2.117 1.004-3.002A5.204 5.204 0 0 1-1.74-1.549l.053-.013v-1.822h-4.626v-1.965H4.304c.717 0 1.416.082 2.072.236a9.61 9.61 0 0 1 1.702.555l.101.046v-6.679h3.361v22.727z" style="fill:#515252;fill-opacity:1;fill-rule:nonzero;stroke:none" transform="translate(332.839 331.275)"/></g></svg>