<svg xmlns="http://www.w3.org/2000/svg" xml:space="preserve" width="770.6322" height="500" viewBox="0 0 770.6322 500"><path d="m402.743 274.971-.058.343z" style="fill:#fff;fill-opacity:1;fill-rule:nonzero;stroke:none;stroke-width:7.2919" transform="matrix(1.33333 0 0 -1.33333 -302.667 519.236)"/><path d="M400.098 225.224c.218 14.846 14.131 35.016 32.704 46.588 11.762 7.35 12.112 7.35 19.674 10.58 6.249 2.691 14.787 7.22 21.117 11.354 21.256 13.825 26.754 23.246 31.982 35.497l-.08.27c1.867-2.851 2.698-6.278 2.632-10.056-.248-14.81-14.11-35-32.747-46.624-11.704-7.292-12.112-7.292-19.674-10.588-6.25-2.676-14.722-7.219-21.117-11.28-21.256-13.826-26.689-23.32-31.902-35.563l.058-.277c-1.881 2.866-2.712 6.307-2.647 10.1" style="fill:#d5e4dd;fill-opacity:1;fill-rule:nonzero;stroke:none;stroke-width:7.2919" transform="matrix(1.33333 0 0 -1.33333 -302.667 519.236)"/><path d="M400.098 255.139c.218 14.854 14.131 35.037 32.704 46.653 11.762 7.292 12.112 7.292 19.674 10.523 6.249 2.756 14.787 7.292 21.117 11.419 21.256 13.76 26.754 23.18 31.982 35.497l-.08.27c1.867-2.859 2.698-6.3 2.632-10.092-.248-14.847-14.11-35.016-32.747-46.588-11.704-7.35-12.112-7.35-19.674-10.588-6.25-2.676-14.722-7.219-21.117-11.339-21.256-13.833-26.689-23.261-31.902-35.562l.058-.277c-1.881 2.858-2.712 6.307-2.647 10.084" style="fill:#6dab9c;fill-opacity:1;fill-rule:nonzero;stroke:none;stroke-width:7.2919" transform="matrix(1.33333 0 0 -1.33333 -302.667 519.236)"/><path d="M432.8 331.718c11.762 7.292 12.105 7.292 19.674 10.581 6.25 2.683 14.788 7.234 21.117 11.36 21.256 13.753 26.754 23.24 31.983 35.498l-.08.27c9.15-14.044-6.731-42.162-30.116-56.687-11.704-7.285-12.112-7.285-19.674-10.588-6.256-2.684-14.73-7.227-21.117-11.347-21.256-13.825-26.689-23.26-31.91-35.49l.066-.342c-9.21 14.154 6.738 42.162 30.057 56.746M323.771 209.28l-36.736-54.507v54.507H227V97.357h60.035v55.68l36.736-55.68h60.02l-37.313 57.154 37.313 54.77zM464.785 97.31h-60.056v111.908h60.056v-91.477h71.665V97.31ZM553.987 209.217h60.057V97.308h-60.057z" style="fill:#087558;fill-opacity:1;fill-rule:nonzero;stroke:none;stroke-width:7.2919" transform="matrix(1.33333 0 0 -1.33333 -302.667 519.236)"/><path d="M532.815 45.376a4.391 4.391 0 0 0-4.404 4.404V71.38h7.839v-18.85h41.812v-7.153zM513.61 19.306v14.24h-41.804v7.162h21.175v4.74h-21.175V52.6h41.804v11.688h-41.804v7.154h45.188c2.479 0 4.397-1.918 4.397-4.397V45.447H500.747v-4.74h20.644V19.307ZM719.756 19.377v25.93h-21.19v7.154h42.365v11.834H699.12v7.154h45.26c2.48 0 4.463-1.925 4.463-4.405V45.307h-21.256v-25.93ZM528.13 19.249v7.146h21.044v14.3h7.853v-14.3h21.038v-7.146zM415.461 19.306c-2.414 0-4.404 1.998-4.404 4.411v13.06h7.853v-10.31h31.093v44.976h15.736v-7.154h-7.905V19.306Z" style="fill:#231916;fill-opacity:1;fill-rule:nonzero;stroke:none;stroke-width:7.2919" transform="matrix(1.33333 0 0 -1.33333 -302.667 519.236)"/><path d="M408.46 53.843c0 3.916 1.364 7.555 3.712 10.457h-7.503v7.146h17.063v6.125h7.153v-6.125h17.064V64.3h-7.511c2.275-2.902 3.711-6.541 3.711-10.457 0-9.29-7.561-16.859-16.851-16.859-9.275 0-16.837 7.57-16.837 16.86m7.219 0a9.607 9.607 0 0 1 9.618-9.633c5.294 0 9.632 4.265 9.632 9.632 0 5.294-4.338 9.625-9.632 9.625s-9.618-4.33-9.618-9.625M594.29 31.205c0 3.923 1.32 7.438 3.508 10.26h-11.762v7.146h21.19v4.813h-17.34c-2.413 0-4.397 1.932-4.397 4.346V71.165h50.767v-5.98h-42.92v-5.228h42.92v-6.533h-21.19V48.61h21.19v-7.146H624.42c2.195-2.822 3.58-6.337 3.58-10.26 0-9.275-7.569-16.778-16.852-16.778-9.355 0-16.858 7.503-16.858 16.778m7.16 0c0-5.286 4.339-9.625 9.698-9.625 5.294 0 9.64 4.339 9.64 9.625 0 5.367-4.346 9.706-9.64 9.706-5.36 0-9.698-4.339-9.698-9.706M649.927 19.306c-2.392 0-4.404 1.998-4.404 4.411v13.06h7.853v-10.31h31.085v18.842h-14.299v.904c-3.04-2.69-6.956-4.339-11.215-4.339-9.348 0-16.852 7.562-16.852 16.852 0 9.275 7.504 16.844 16.852 16.844 4.324 0 8.255-1.64 11.273-4.404h22.081V19.306zm-.67 39.42c0-5.301 4.33-9.633 9.69-9.633 5.294 0 9.64 4.332 9.64 9.633 0 5.374-4.346 9.698-9.64 9.698a9.678 9.678 0 0 1-9.69-9.698m26.476 0c0-2.202-.466-4.332-1.24-6.264h9.968v11.55h-9.552c.554-1.648.824-3.434.824-5.286M760.815 19.306a4.393 4.393 0 0 0-4.404 4.411v13.06h7.838v-10.31h32.807v5.498h-7.7v7.153h7.7v32.048h7.919V19.379h-1.867v-.073z" style="fill:#231916;fill-opacity:1;fill-rule:nonzero;stroke:none;stroke-width:7.2919" transform="matrix(1.33333 0 0 -1.33333 -302.667 519.236)"/><path d="M769.816 31.903v9.83h-15.393v7.219h5.636a16.622 16.622 0 0 0-3.157 9.778c0 9.275 7.562 16.844 16.844 16.844 9.283 0 16.845-7.569 16.845-16.844 0-3.653-1.233-7.022-3.158-9.778h5.571v-7.22h-15.327v-9.829zm-5.768 26.827c0-5.308 4.332-9.632 9.698-9.632 5.302 0 9.618 4.324 9.618 9.632 0 5.36-4.316 9.698-9.618 9.698a9.69 9.69 0 0 1-9.698-9.698" style="fill:#231916;fill-opacity:1;fill-rule:nonzero;stroke:none;stroke-width:7.2919" transform="matrix(1.33333 0 0 -1.33333 -302.667 519.236)"/></svg>