<svg xmlns="http://www.w3.org/2000/svg" width="114.08773mm" height="12.287765mm" viewBox="0 0 114.08773 12.287765"><defs><clipPath id="a" clipPathUnits="userSpaceOnUse"><path d="M0 0h841.89v595.276H0Z"/></clipPath><clipPath id="b" clipPathUnits="userSpaceOnUse"><path d="M0 0h841.89v595.276H0Z"/></clipPath><clipPath id="c" clipPathUnits="userSpaceOnUse"><path d="M0 0h841.89v595.276H0Z"/></clipPath><clipPath id="d" clipPathUnits="userSpaceOnUse"><path d="M0 0h841.89v595.276H0Z"/></clipPath><clipPath id="e" clipPathUnits="userSpaceOnUse"><path d="M0 0h841.89v595.276H0Z"/></clipPath></defs><path d="M0 0c-5.619-.148-10.251-5.149-11.882-11.67 4.585-1.234 7.62-3.862 7.858-9.049.151-3.272-2.02-6.264-5.696-8.157 1.895-2.528 4.947-4.022 9.72-3.831 9.673.387 12.566 5.518 12.566 14.549C12.566-9.241 9.223.004.343.005.229.005.116.003 0 0" style="fill:#f9be2d;fill-opacity:1;fill-rule:nonzero;stroke:none" transform="matrix(.35278 0 0 -.35278 18.557 .744)"/><path d="M0 0c-.179-5.051 7.576-10.1 17.316-10.1 3.69 0 6.932.785 9.459 2.088-2.282 3.042-2.888 7.59-2.786 12.522.035 1.614.251 3.189.624 4.683-2.463.663-5.373.923-8.536.96-.123.002-.246.002-.367.002C4.766 10.156.16 4.457 0 0" style="fill:#4d8dcb;fill-opacity:1;fill-rule:nonzero;stroke:none" transform="matrix(.35278 0 0 -.35278 5.682 8.11)"/><path d="M0 0c-.238 5.187-3.273 7.815-7.859 9.049a21.282 21.282 0 0 1-.624-4.683c-.102-4.933.504-9.48 2.786-12.523C-2.02-6.263.15-3.272 0 0" style="fill:#0d114a;fill-opacity:1;fill-rule:nonzero;stroke:none" transform="matrix(.35278 0 0 -.35278 17.137 8.058)"/><path d="M0 0c0-3.896 2.348-6.196 6.318-6.196 3.708 0 6.319 2.3 6.319 6.196 0 3.895-1.712 6.195-6.319 6.195S0 3.895 0 0" style="fill:#d6007f;fill-opacity:1;fill-rule:nonzero;stroke:none" transform="matrix(.35278 0 0 -.35278 23.066 2.185)"/><path d="M0 0c0-3.054 1.477-5.102 6.613-5.102 5.137 0 6.614 2.048 6.614 5.102 0 3.055-3.107 8.606-6.614 8.606C3.107 8.606 0 3.055 0 0" style="fill:#a4b31a;fill-opacity:1;fill-rule:nonzero;stroke:none" transform="matrix(.35278 0 0 -.35278 0 8.63)"/><path d="M0 0c0-3.628 3.344-5.55 16.142-5.55 8.913 0 16.046 2.944 16.143 6.57l.001.047v.041c-.032 4.366-10.921 7.049-19.775 7.049C3.594 8.157 0 3.63 0 0" style="fill:#b3b2b1;fill-opacity:1;fill-rule:nonzero;stroke:none" transform="matrix(.35278 0 0 -.35278 24.127 8.56)"/><path d="M0 0h-3.065v-6.256h14.2v2.808H0Z" style="fill:#000;fill-opacity:1;fill-rule:nonzero;stroke:none" transform="matrix(.35278 0 0 -.35278 101.521 9.11)"/><g clip-path="url(#a)" transform="matrix(.35278 0 0 -.35278 -17.431 163.719)"><path d="M0 0a6.2 6.2 0 0 1-.906 3.223H.857v2.808h-5.51l-.054.014v1.908h-3.066V6.049a.797.797 0 0 1-.07-.018h-5.531V3.223h1.784A6.2 6.2 0 0 1-12.496 0a6.256 6.256 0 0 1 6.248-6.247A6.256 6.256 0 0 1 0 0m-9.51 0a3.26 3.26 0 0 0 2.446 3.154c.261.067.534.106.816.106.282 0 .554-.039.815-.106A3.263 3.263 0 0 0-2.981 0 3.264 3.264 0 0 0-9.51 0" style="fill:#000;fill-opacity:1;fill-rule:nonzero;stroke:none" transform="translate(176.148 451.274)"/><path d="M0 0v-15.967h-8.162v2.736c2.71.684 4.726 3.136 4.726 6.055a6.196 6.196 0 0 1-.907 3.225h1.765v2.81h-5.514l-.054.014V.782h-3.068v-1.905l-.07-.018h-5.535v-2.81h1.786a6.196 6.196 0 0 1-.907-3.225c0-2.915 2.01-5.364 4.715-6.052v-2.739h-5.602v-2.811H0v-7.66h3.065V0Zm-12.952-7.176a3.261 3.261 0 0 0 2.448 3.156c.261.067.534.107.816.107.282 0 .555-.04.816-.107a3.266 3.266 0 0 0 2.454-3.156 3.271 3.271 0 0 0-3.27-3.264 3.265 3.265 0 0 0-3.264 3.264" style="fill:#000;fill-opacity:1;fill-rule:nonzero;stroke:none" transform="translate(369.744 458.425)"/></g><path d="M0 0h-16.124v-2.808h5.812v-9.095h3.06v9.095H0v-9.095h3.065v26.438H0Z" style="fill:#000;fill-opacity:1;fill-rule:nonzero;stroke:none" transform="matrix(.35278 0 0 -.35278 96.078 7.124)"/><g clip-path="url(#b)" transform="matrix(.35278 0 0 -.35278 -17.431 163.719)"><path d="M0 0a6.374 6.374 0 0 1 6.368 6.367A6.376 6.376 0 0 1 0 12.736c-3.51 0-6.368-2.86-6.368-6.369A6.376 6.376 0 0 1 0 0m-.003 9.755a3.397 3.397 0 0 0 3.391-3.388A3.397 3.397 0 0 0-.003 2.976a3.395 3.395 0 0 0-3.391 3.391A3.394 3.394 0 0 0-.003 9.755" style="fill:#000;fill-opacity:1;fill-rule:nonzero;stroke:none" transform="translate(312.352 445.62)"/></g><path d="M0 0h-3.064v-18.737H0v9.536h2.639v2.811H0Z" style="fill:#000;fill-opacity:1;fill-rule:nonzero;stroke:none" transform="matrix(.35278 0 0 -.35278 46.965 1.997)"/><path d="M0 0h-3.066v-9.138l14.979.028v2.807L0-6.331Z" style="fill:#000;fill-opacity:1;fill-rule:nonzero;stroke:none" transform="matrix(.35278 0 0 -.35278 42.765 8.11)"/><path d="M0 0h8.508v-3.051h-6.08v-2.808h12.104v-6.302h3.066v9.11h-6.022V0h8.45v2.812H0Z" style="fill:#000;fill-opacity:1;fill-rule:nonzero;stroke:none" transform="matrix(.35278 0 0 -.35278 48.415 7.033)"/><path d="M0 0h9.064v-5.027h3.065V0h7.897v2.812H0Z" style="fill:#000;fill-opacity:1;fill-rule:nonzero;stroke:none" transform="matrix(.35278 0 0 -.35278 56.225 7.031)"/><path d="M0 0h-3.069v-9.11H11.39v2.547H0Z" style="fill:#000;fill-opacity:1;fill-rule:nonzero;stroke:none" transform="matrix(.35278 0 0 -.35278 58.392 8.11)"/><path d="M0 0h8.588v-1.651H2.516v-2.544h12.195V-5.63H2.52v-6.526h15.265v2.546H5.582v1.432h12.191v6.527h-6.119V0h8.566v2.817H0Z" style="fill:#000;fill-opacity:1;fill-rule:nonzero;stroke:none" transform="matrix(.35278 0 0 -.35278 82.225 7.035)"/><path d="M276.332 431.987h2.75v26.438h-2.75z" style="fill:#000;fill-opacity:1;fill-rule:nonzero;stroke:none" transform="matrix(.35278 0 0 -.35278 -17.431 163.719)"/><g clip-path="url(#c)" transform="matrix(.35278 0 0 -.35278 -17.431 163.719)"><path d="M0 0h-3.247a6.743 6.743 0 0 1-5.535 2.919c-3.708 0-6.727-3.018-6.727-6.726s3.019-6.722 6.727-6.722c1.755 0 3.419.675 4.713 1.917H0V-22.52h2.75V3.918H0Zm-8.786-7.597a3.794 3.794 0 0 0-3.791 3.79A3.796 3.796 0 0 0-8.786-.012a3.8 3.8 0 0 0 3.792-3.795 3.798 3.798 0 0 0-3.792-3.79M0-5.801h-2.363l.018.058c.193.634.286 1.284.286 1.936l-.077.982H0Z" style="fill:#000;fill-opacity:1;fill-rule:nonzero;stroke:none" transform="translate(272.231 454.507)"/><path d="m0 0-8.088-9.211h4.033L2.049-2.27l.035-.041s6.038-6.876 6.038-6.9h4.061C11.523-8.457 4.13-.021 4.13 0Z" style="fill:#000;fill-opacity:1;fill-rule:nonzero;stroke:none" transform="translate(290.552 458.449)"/></g><path d="M0 0h3.067v9.163h-15.33V6.356H0Z" style="fill:#000;fill-opacity:1;fill-rule:nonzero;stroke:none" transform="matrix(.35278 0 0 -.35278 53.64 5.23)"/><g clip-path="url(#d)" transform="matrix(.35278 0 0 -.35278 -17.431 163.719)"><path d="m0 0-15.989-.004-.002-9.167H-.003L0 0m-3.062-6.364h-9.872v3.551h9.872z" style="fill:#000;fill-opacity:1;fill-rule:nonzero;stroke:none" transform="translate(226.983 458.433)"/></g><path d="M0 0h3.067v3.392h6.824v2.813H-4.91V3.392H0Z" style="fill:#000;fill-opacity:1;fill-rule:nonzero;stroke:none" transform="matrix(.35278 0 0 -.35278 100.44 8.616)"/><path d="M0 0h-.004v-2.781h-2.623v-2.81h2.623V-16.058h3.063v3.392h.007V2.705H0Z" style="fill:#000;fill-opacity:1;fill-rule:nonzero;stroke:none" transform="matrix(.35278 0 0 -.35278 104.368 2.95)"/><g clip-path="url(#e)" transform="matrix(.35278 0 0 -.35278 -17.431 163.719)"><path d="M0 0h-3.065v-16.009h-8.157v2.789h-.149c2.782.621 4.871 3.106 4.871 6.072a6.177 6.177 0 0 1-.903 3.212h1.757v2.799h-5.491l-.054.014v1.9h-3.055v-1.896l-.07-.018h-5.512v-2.799h1.778a6.177 6.177 0 0 1-.903-3.212c0-2.959 2.08-5.439 4.853-6.067h-.189v-2.794h-5.598v-2.811h16.822v-7.618H0v17.144h2.652v2.809H0Zm-15.976-7.148a3.247 3.247 0 0 0 2.437 3.143c.26.067.531.106.812.106.282 0 .553-.039.813-.106A3.252 3.252 0 0 0-9.47-7.148a3.258 3.258 0 0 0-3.257-3.25 3.251 3.251 0 0 0-3.249 3.25" style="fill:#000;fill-opacity:1;fill-rule:nonzero;stroke:none" transform="translate(251.904 458.425)"/><path d="M0 0a6 6 0 0 1 5.992 5.991A5.998 5.998 0 0 1 0 11.981a6 6 0 0 1-5.993-5.99A6 6 0 0 1 0 0m0 8.938a2.952 2.952 0 0 0 2.953-2.947 2.95 2.95 0 0 0-5.901 0A2.947 2.947 0 0 0 0 8.938" style="fill:#000;fill-opacity:1;fill-rule:nonzero;stroke:none" transform="translate(335.673 446.962)"/></g></svg>