<svg xmlns="http://www.w3.org/2000/svg" xml:space="preserve" width="1785.1331" height="300" viewBox="0 0 1785.1331 299.99999"><path d="M0 0c0-.458-.041-.838-.128-1.147-.098-.316-.223-.514-.376-.616-.125-.081-.299-.138-.529-.169-.225-.029-.41.009-.546.108a1.027 1.027 0 0 0-.275.327c-.058.12-.086.33-.086.629v17.001c0 .439-.074.847-.212 1.228-.138.373-.659.682-1.551.923-.496.127-.687.341-.568.661.122.314.432.421.955.327.037 0 .346-.018.924-.071.581-.054 1.298-.202 2.151-.437.082-.021.184-.044.317-.069.127-.038.205-.049.225-.049 0-.043-.049-.37-.149-1A10.006 10.006 0 0 1 0 16.077V9.591h.268c.298.023.62.13.957.33.338.199.513.309.541.324.037 0 .389-.031 1.052-.09a5.847 5.847 0 0 0 1.929-.508c.364-.14.514-.413.453-.835-.062-.416-.291-.636-.686-.656H0Zm-1.434-6.729c.239.2.365.315.391.333.034 0 .435-.031 1.182-.118.744-.081 1.406-.256 1.985-.543.333-.133.48-.422.434-.843-.051-.434-.274-.665-.673-.707-.382-.039-.757-.06-1.12-.06-.372 0-.822.013-1.359.033l-7.714-.033c-.738 0-1.456.102-2.149.309-.696.217-.967.836-.813 1.872.147.882.181 1.553.111 2.036-.07.473-.111.723-.111.746 0 .48-.059.848-.189 1.116-.131.274-.664.501-1.594.705-.425.094-.583.304-.496.613.086.31.402.422.945.345.035 0 .393-.026 1.069-.076a19.27 19.27 0 0 0 2.007-.253c.097-.021.227-.038.387-.056.16-.026.245-.033.266-.033 0-.021-.051-.245-.148-.672a5.206 5.206 0 0 1-.154-1.18c0-.044-.004-.381-.024-1.02a8.516 8.516 0 0 1 .178-2.002c0-.399.082-.629.252-.7.173-.069.387-.11.642-.11.081 0 .701-.025 1.855-.069a43.136 43.136 0 0 1 3.882.039c.399.027.725.14.958.328m-8.59 15.914c-.705.647-1.56.97-2.554.97-.938 0-1.768-.323-2.494-.97-.731-.646-1.092-1.466-1.092-2.462 0-.978.361-1.803 1.092-2.486.726-.674 1.556-1.016 2.494-1.016.975 0 1.822.342 2.544 1.016.714.683 1.067 1.508 1.067 2.486 0 .996-.353 1.816-1.057 2.462m1.404-6.051c-1.266-.874-2.597-1.315-3.984-1.315-1.4 0-2.718.441-3.949 1.315-1.234.882-1.848 2.076-1.848 3.589 0 1.494.617 2.672 1.862 3.522 1.243.866 2.565 1.287 3.961 1.287 1.355 0 2.668-.421 3.939-1.287 1.277-.85 1.915-2.028 1.915-3.522 0-1.513-.632-2.707-1.896-3.589m-5.011 12.488c0 .662-.025 1.127-.082 1.41-.06.275-.3.482-.725.629-.475.137-.652.344-.53.615.116.263.423.37.924.311.04 0 .301-.015.78-.048a9.113 9.113 0 0 0 1.579-.255c.101-.023.25-.065.447-.113-.016-.023-.075-.28-.173-.779a7.643 7.643 0 0 1-.152-1.525v-1.285c.639.021 1.194.028 1.672.028.481 0 .754.011.837.031.358.056.67.176.925.344.26.161.399.264.42.289.034 0 .383-.038 1.031-.109a4.994 4.994 0 0 0 1.779-.524c.362-.197.514-.488.479-.866-.041-.378-.275-.59-.687-.625a15.407 15.407 0 0 0-1.032-.033c-.33 0-.74.009-1.24.033-.853.035-1.98.076-3.364.13-1.384.048-3.321.028-5.81-.074-.179 0-.424-.085-.736-.248-.305-.174-.475-.271-.49-.291-.021 0-.301.061-.838.176-.538.125-1.199.445-1.997.963-.438.279-.562.549-.347.804.207.258.541.35.995.271.721-.099 1.3-.16 1.754-.192.448-.03 1.098-.068 1.961-.107.158-.018.475-.031.965-.031h1.655z" style="fill:#231f20;fill-opacity:1;fill-rule:nonzero;stroke:none" transform="matrix(5.91352 0 0 -5.91352 496.77 121.135)"/><path d="M0 0a4.154 4.154 0 0 1-.409-.207c-.016 0-.286.077-.817.225-.52.146-1.14.442-1.84.881-.531.34-.679.649-.429.925.25.283.638.375 1.181.274.836-.103 1.338-.162 1.506-.182.169-.016.828-.072 1.957-.148.522-.018 1.804-.018 3.852 0 2.06.02 3.511.036 4.369.056.219 0 .449.061.704.182.25.125.384.193.397.204.047 0 .227-.065.557-.197.328-.125.573-.284.727-.486.261-.26.408-.507.455-.745.036-.246.005-.621-.094-1.134-.197-.818-.504-1.873-.908-3.155-.412-1.282-.904-2.365-1.481-3.244-.302-.434-.654-.612-1.073-.524-.425.09-.562.294-.425.614a18.278 18.278 0 0 1 1.034 3.244c.23 1.064.396 1.982.494 2.733.041.317.015.566-.077.735-.085.167-.29.248-.607.248-.123 0-1.088.026-2.898.081A47.924 47.924 0 0 1 .704.21 2.04 2.04 0 0 1 0 0m-.256-10.263c-1.149-.01-2.344-.036-3.585-.071a1.897 1.897 0 0 1-.91-.285 4.9 4.9 0 0 1-.43-.285c-.04 0-.388.061-1.033.181-.641.115-1.398.457-2.263 1.012-.489.321-.627.62-.392.901.224.266.598.375 1.121.299a66.407 66.407 0 0 1 2.026-.212c.511-.04 1.258-.076 2.212-.12.521-.018 3.188-.033 8.005-.041 4.824-.012 7.336-.01 7.537.014.434.015.79.135 1.072.341.286.213.428.324.445.345.035 0 .444-.036 1.21-.117a7.521 7.521 0 0 0 2.053-.509c.358-.161.507-.462.445-.901-.062-.432-.286-.671-.69-.715a12.801 12.801 0 0 0-1.165-.059c-.378 0-.852.023-1.434.059-.614.063-1.692.112-3.225.151-1.532.037-3.401.063-5.613.063v-5.443c.811.018 1.711.043 2.701.061.982.015 2.008.046 3.061.084v-7.973c0-.496-.046-.874-.149-1.135-.101-.263-.225-.437-.389-.541a1.31 1.31 0 0 0-.488-.165c-.215-.025-.4.006-.558.108a1.012 1.012 0 0 0-.281.363c-.077.138-.102.291-.102.48v7.252c-2.589.087-4.349.115-5.262.11-.915-.013-2.022-.041-3.315-.077a3.232 3.232 0 0 1-.721-.222c-.24-.113-.368-.174-.389-.197-.02 0-.255.041-.716.12-.459.082-1.077.367-1.853.864-.5.321-.644.594-.424.837.225.246.571.33 1.052.274a22.417 22.417 0 0 1 1.538-.126c.47-.015 1.129-.048 1.993-.088.173 0 .455 0 .833-.011.382-.01.852-.018 1.399-.018v5.443c-1.058-.026-2.161-.038-3.316-.051" style="fill:#231f20;fill-opacity:1;fill-rule:nonzero;stroke:none" transform="matrix(5.91352 0 0 -5.91352 593.032 27.532)"/><path d="M0 0c0 .439-.07.848-.209 1.229-.14.373-.658.681-1.555.922-.498.127-.685.342-.567.661.121.314.44.421.958.327.035 0 .352-.017.922-.071.58-.054 1.301-.202 2.153-.437a4.34 4.34 0 0 1 .315-.069c.128-.038.202-.049.226-.049 0-.043-.051-.37-.15-1a9.639 9.639 0 0 1-.151-1.569v-19.458c0-.456-.04-.882-.135-1.265-.089-.391-.208-.636-.37-.733-.124-.105-.297-.169-.524-.194-.227-.031-.417.005-.55.104a.941.941 0 0 0-.271.432c-.066.189-.092.434-.092.733v9.087a6.929 6.929 0 0 0-.684-.042 24.348 24.348 0 0 1-.811-.051 2.327 2.327 0 0 1-.655-.194c-.261-.106-.398-.171-.418-.189-.021 0-.282.033-.783.109-.492.084-1.152.374-1.961.874-.403.24-.55.485-.44.754.117.278.412.385.913.318a41.586 41.586 0 0 1 1.971-.137c.44-.005 1.125-.033 2.062-.069H0v5.885c-.222 0-.458-.005-.729-.015a12.812 12.812 0 0 1-.916-.072 2.342 2.342 0 0 1-.668-.199 5.254 5.254 0 0 1-.404-.187c-.023 0-.279.034-.782.112-.494.08-1.154.356-1.967.836-.403.268-.547.526-.449.799.1.259.397.366.896.312a27.853 27.853 0 0 1 1.986-.133c.45-.01 1.137-.038 2.073-.079H0Zm-8.725-3.972c-.818.853-1.872 1.285-3.167 1.285-1.238 0-2.286-.432-3.152-1.285-.869-.856-1.298-1.931-1.298-3.223 0-1.321.429-2.409 1.298-3.275.866-.866 1.914-1.302 3.152-1.302 1.278 0 2.327.436 3.153 1.314.821.881 1.236 1.962 1.236 3.263 0 1.292-.404 2.367-1.222 3.223m-4.409 3.301c-.072.171-.033.375.107.615.182.275.548.416 1.123.383.564-.021.946-.166 1.147-.442.143-.204.189-.403.135-.616-.045-.206-.097-.432-.135-.672 1.44-.201 2.699-.804 3.795-1.808 1.093-1.006 1.65-2.335 1.65-3.984 0-1.89-.693-3.375-2.048-4.442-1.365-1.066-2.887-1.6-4.562-1.6-1.691 0-3.216.524-4.568 1.585-1.361 1.049-2.029 2.538-2.029 4.457 0 1.688.551 3.034 1.667 4.03a7.202 7.202 0 0 0 3.918 1.796 3.88 3.88 0 0 1-.2.698" style="fill:#231f20;fill-opacity:1;fill-rule:nonzero;stroke:none" transform="matrix(5.91352 0 0 -5.91352 817.664 25.733)"/><path d="M0 0c0 .439-.071.848-.209 1.229-.142.373-.654.681-1.558.922-.501.127-.679.342-.562.661.117.314.433.421.954.327.042 0 .349-.017.927-.071.577-.054 1.291-.202 2.15-.437.082-.021.184-.044.315-.069.129-.038.206-.049.22-.049 0-.043-.046-.37-.148-1C1.993.884 1.94.36 1.94-.056v-12.223c0-.454-.045-.84-.13-1.151-.087-.304-.215-.517-.379-.644-.118-.077-.297-.133-.521-.166-.229-.023-.414.004-.552.107a.902.902 0 0 0-.265.342c-.063.135-.093.345-.093.639v8.462c-.296-.02-.675-.046-1.117-.056a74.984 74.984 0 0 1-1.452-.095 2.513 2.513 0 0 1-.66-.189c-.26-.115-.397-.173-.417-.196-.017 0-.278.036-.762.117-.491.087-1.139.368-1.955.872-.426.239-.579.489-.473.765.114.284.42.399.915.333.878-.097 1.533-.154 1.979-.161.438-.005 1.138-.036 2.088-.077.277-.018.593-.018.94 0 .348.028.654.041.914.072zm-1.241-17.896c-.772.721-1.732 1.074-2.881 1.074-1.094 0-2.045-.353-2.84-1.074-.798-.718-1.201-1.596-1.201-2.633 0-1.034.393-1.911 1.165-2.631.781-.713 1.741-1.069 2.876-1.069 1.149 0 2.109.356 2.881 1.069.766.72 1.155 1.597 1.155 2.631 0 1.037-.389 1.915-1.155 2.633m1.399-6.383a7.074 7.074 0 0 0-4.28-1.391c-1.573 0-3.005.48-4.276 1.424-1.276.946-1.911 2.179-1.911 3.717 0 1.594.635 2.85 1.911 3.768 1.271.919 2.703 1.374 4.276 1.374 1.595 0 3.018-.455 4.28-1.374 1.273-.918 1.902-2.174 1.902-3.768 0-1.574-.629-2.817-1.902-3.75M-13.69-9.004c-1.094-1.111-2.478-2.118-4.15-3.006a4.59 4.59 0 0 0-.913-.355c-.347-.103-.591-.07-.731.086-.118.12-.158.231-.118.327.037.097.19.23.446.389 1.95 1.116 3.699 2.833 5.246 5.144 1.542 2.309 2.411 4 2.62 5.076.057.319.098.623.133.914.027.286-.511.549-1.604.789-.439.105-.603.314-.495.628.112.322.418.437.919.358.393-.061.823-.096 1.292-.117a8.185 8.185 0 0 0 1.63-.274c.399-.099.67-.278.824-.536.147-.258.152-.611.014-1.037a21.343 21.343 0 0 0-.945-2.34 18.017 18.017 0 0 0-.965-1.757 321.861 321.861 0 0 0 4.51-3.275c1.052-.789 1.584-1.481 1.584-2.076v-1.352c0-.375-.2-.59-.603-.633-.392-.056-.699.09-.925.429a48.231 48.231 0 0 1-2.09 3.017c-.673.899-1.674 1.92-2.988 3.077a16.576 16.576 0 0 0-2.691-3.476" style="fill:#231f20;fill-opacity:1;fill-rule:nonzero;stroke:none" transform="matrix(5.91352 0 0 -5.91352 965.098 25.733)"/><path d="M0 0c-.089-.316-.21-.514-.373-.616-.12-.081-.297-.138-.521-.169-.232-.029-.418.009-.552.108a1.094 1.094 0 0 0-.271.327c-.055.12-.092.329-.092.629V17.28c0 .439-.065.847-.208 1.228-.137.373-.658.682-1.553.923-.496.127-.686.341-.567.661.121.314.441.421.959.327.036 0 .349-.018.925-.071.577-.054 1.298-.202 2.15-.437.082-.021.184-.044.307-.069.139-.038.209-.049.236-.049 0-.043-.055-.37-.156-1.001-.095-.628-.151-1.152-.151-1.568V1.147C.133.689.092.309 0 0m-1.467-5.582c.237.2.359.315.379.333.041 0 .437-.031 1.194-.118.757-.081 1.416-.256 1.973-.543.358-.133.516-.422.465-.843-.056-.434-.274-.665-.675-.707-.378-.04-.755-.061-1.131-.061-.384 0-.83.014-1.346.034l-7.709-.034c-.739 0-1.46.103-2.161.31-.69.217-.948.836-.773 1.872a10.3 10.3 0 0 1 .108 2.555c-.072.83-.108 1.275-.108 1.33 0 .498-.069.879-.208 1.153-.133.268-.679.497-1.609.699-.398.102-.557.294-.47.601.093.298.404.413.94.36.04 0 .404-.031 1.084-.08.668-.05 1.343-.132 1.996-.247.103-.026.231-.046.389-.067.163-.018.254-.027.271-.027 0-.021-.046-.249-.15-.672A5.32 5.32 0 0 1-9.16-.915c0-.079-.005-.617-.025-1.614-.021-.991.041-1.846.177-2.541 0-.399.078-.629.24-.701.16-.068.379-.109.658-.109.08 0 .689-.025 1.822-.069a42.52 42.52 0 0 1 3.852.039c.419.027.745.139.969.328m-9.067 20.43c-.732.807-1.752 1.213-3.044 1.213-1.217 0-2.207-.416-2.974-1.233-.765-.815-1.152-1.829-1.152-3.048 0-1.208.387-2.237 1.152-3.057.767-.83 1.757-1.244 2.974-1.244 1.257 0 2.258.414 3.019 1.244.754.82 1.133 1.849 1.133 3.057 0 1.239-.368 2.259-1.108 3.068m-4.345 3.078c-.074.169-.034.358.106.582.178.3.556.437 1.123.411.559-.015.951-.176 1.155-.47.136-.201.182-.39.143-.587a9.814 9.814 0 0 1-.117-.613c1.37-.197 2.585-.774 3.64-1.716 1.059-.946 1.586-2.195 1.586-3.753 0-1.709-.657-3.093-1.972-4.156-1.319-1.047-2.78-1.583-4.395-1.583-1.609 0-3.066.536-4.363 1.604-1.291 1.065-1.94 2.441-1.94 4.135 0 1.558.52 2.807 1.567 3.753a6.775 6.775 0 0 0 3.659 1.716 4.093 4.093 0 0 1-.192.677" style="fill:#231f20;fill-opacity:1;fill-rule:nonzero;stroke:none" transform="matrix(5.91352 0 0 -5.91352 1125.808 127.917)"/><path d="M0 0a52.109 52.109 0 0 1-1.446-.087 2.44 2.44 0 0 1-.658-.209 4.465 4.465 0 0 1-.414-.21c-.027 0-.282.038-.767.118-.486.073-1.138.37-1.956.866-.419.242-.573.5-.461.776.107.283.409.391.909.332.88-.082 1.533-.129 1.973-.133.434-.015 1.133-.038 2.089-.084.281-.013.597-.013.946 0 .347.023.648.046.914.066v12.069c0 .439-.076.848-.209 1.229-.144.373-.666.682-1.56.922-.5.128-.682.342-.565.661.116.314.438.422.955.328.04 0 .349-.018.923-.071.579-.054 1.304-.203 2.151-.438.076-.02.185-.043.317-.069.129-.038.201-.048.226-.048 0-.044-.052-.371-.149-1.001a10.073 10.073 0 0 1-.149-1.569V-2.721c0-.459-.046-.817-.142-1.088-.086-.268-.21-.454-.367-.553-.119-.08-.302-.129-.522-.167-.235-.031-.413.008-.558.105a1.006 1.006 0 0 0-.264.319c-.062.105-.087.309-.087.608v3.53C.816.033.449.022 0 0m1.466-9.357c.23.2.357.315.379.333.035 0 .434-.031 1.189-.118.761-.082 1.42-.256 1.972-.544.357-.133.516-.421.465-.843-.051-.434-.282-.664-.67-.707-.382-.039-.755-.06-1.133-.06-.384 0-.833.013-1.35.034l-8.25-.034c-.734 0-1.45.103-2.15.31-.695.216-.959.835-.808 1.872.145.882.174 1.589.113 2.12-.073.542-.113.818-.113.836 0 .48-.061.85-.187 1.123-.134.274-.666.506-1.606.701-.393.099-.55.3-.459.614.092.312.393.433.914.371.041 0 .399-.023 1.088-.076.684-.042 1.349-.14 1.988-.282.123-.015.255-.033.419-.056.159-.025.245-.033.265-.033 0 0-.052-.238-.148-.657a5.015 5.015 0 0 1-.148-1.193c0-.045-.009-.411-.032-1.107a9.478 9.478 0 0 1 .18-2.093c0-.398.082-.628.24-.7.153-.068.368-.11.623-.11.103 0 .814-.025 2.141-.069a48.41 48.41 0 0 1 4.107.039c.425.028.74.14.971.329m-14.176 21.65c-.24-.104-.368-.168-.389-.191-.02 0-.287.069-.807.207-.516.138-1.114.434-1.792.866-.536.363-.686.672-.436.945.251.268.624.353 1.125.248.813-.09 1.314-.156 1.492-.181.183-.008.827-.067 1.941-.141.5-.021 1.389-.021 2.661 0 1.278.016 2.33.036 3.162.054.205 0 .424.063.674.186.251.117.384.187.405.207.04 0 .22-.069.536-.195.322-.13.563-.288.72-.467.261-.278.419-.539.475-.789.056-.253.024-.608-.118-1.088a28.349 28.349 0 0 0-.836-2.496c-.338-.891-.726-1.647-1.165-2.291-.324-.434-.664-.61-1.048-.531-.378.079-.495.289-.358.657.358.916.613 1.749.766 2.495.154.74.288 1.418.398 2.018.042.239.036.426-.025.564-.061.138-.224.209-.51.209-.062 0-.66.029-1.793.072-1.135.049-2.605-.005-4.425-.164a1.811 1.811 0 0 1-.653-.194M-8.797-.506c0-.44-.047-.748-.129-.93a1.092 1.092 0 0 0-.377-.418 1.015 1.015 0 0 0-.536-.19c-.241-.033-.431.013-.567.133a1.34 1.34 0 0 0-.277.296c-.054.102-.081.248-.081.45v4.84c-.481-.02-.962-.053-1.441-.089a82.387 82.387 0 0 0-1.49-.117 1.989 1.989 0 0 1-.722-.228c-.255-.13-.393-.207-.419-.222-.02 0-.296.074-.838.222-.536.149-1.184.47-1.94.973-.414.279-.536.529-.353.766.173.22.485.315.92.249.705-.082 1.25-.133 1.66-.162a35.99 35.99 0 0 1 1.746-.079c.818-.017 2.596.095 5.34.348 2.737.247 4.995.539 6.768.879.393.08.597-.065.607-.432.011-.368-.172-.605-.551-.7a57.451 57.451 0 0 0-3.499-.692 92.33 92.33 0 0 0-3.821-.542Z" style="fill:#231f20;fill-opacity:1;fill-rule:nonzero;stroke:none" transform="matrix(5.91352 0 0 -5.91352 1265.717 105.591)"/><path d="M0 0c-.084-.316-.216-.514-.376-.616-.114-.081-.291-.138-.522-.169-.223-.029-.413.009-.55.108a1.08 1.08 0 0 0-.271.327c-.057.12-.088.329-.088.629V17.28c0 .439-.07.847-.209 1.228-.136.373-.66.682-1.554.923-.498.127-.689.341-.565.661.116.314.434.421.954.327.036 0 .349-.018.925-.071.581-.054 1.293-.202 2.152-.437.083-.021.183-.044.316-.069.129-.038.199-.049.224-.049 0-.043-.049-.37-.148-1.001a9.54 9.54 0 0 1-.153-1.568V1.147C.135.689.09.309 0 0m-1.465-5.582c.234.2.355.315.374.333.036 0 .44-.031 1.195-.118.76-.081 1.42-.256 1.972-.543.358-.133.519-.422.471-.843-.053-.434-.281-.665-.677-.707a10.76 10.76 0 0 0-1.135-.061c-.378 0-.831.014-1.348.034l-7.526-.034c-.74 0-1.463.103-2.17.31-.705.217-.968.836-.788 1.872.137.882.173 1.669.106 2.394a26.52 26.52 0 0 0-.106 1.132c0 .5-.074.873-.214 1.136-.137.258-.671.488-1.609.69-.401.094-.557.304-.469.608.094.311.407.434.942.378.046 0 .404-.029 1.077-.077.678-.054 1.348-.13 2.005-.255.095-.018.228-.038.386-.054.16-.026.252-.033.273-.033 0-.023-.051-.246-.152-.672a5.29 5.29 0 0 1-.148-1.211c0-.064-.015-.526-.033-1.407-.018-.871.041-1.665.181-2.36 0-.399.079-.629.24-.701.16-.068.375-.109.656-.109.063 0 .637-.025 1.729-.069 1.1-.044 2.368-.036 3.794.039.423.027.745.139.974.328m-5.42 13.27c.871-.612 1.312-1.251 1.312-1.913V4.583c0-.338-.207-.54-.627-.616-.419-.07-.737.053-.954.377a79.682 79.682 0 0 1-1.852 2.568c-.616.817-1.596 1.775-2.93 2.869-.799-1.017-1.9-2.136-3.316-3.357a16.913 16.913 0 0 0-4.78-2.917 3.34 3.34 0 0 0-.72-.196c-.278-.054-.466-.003-.566.137-.144.156-.157.309-.063.449.1.137.253.258.451.356 2.33 1.254 4.324 2.851 5.975 4.792 1.657 1.949 2.957 3.943 3.916 5.992.1.202.118.401.059.585-.059.187-.191.289-.39.289-.755 0-1.389.002-1.899.026-.499.022-1.345-.024-2.519-.116a1.08 1.08 0 0 1-.465-.184c-.148-.096-.27-.174-.376-.204-.16-.089-.457-.069-.886.041-.421.107-1.043.416-1.86.914-.479.274-.611.562-.391.851.219.283.571.401 1.045.309.825-.074 1.298-.132 1.451-.161.154-.031.747-.064 1.779-.107l4.868.089c.144.026.327.076.568.169.239.084.398.115.479.068.122-.032.306-.107.555-.219.247-.112.442-.248.58-.404.317-.321.464-.605.431-.866-.026-.26-.124-.592-.276-.986a42.624 42.624 0 0 0-1.154-2.02c-.483-.807-1.109-1.676-1.871-2.616 2.076-1.251 3.551-2.191 4.426-2.807" style="fill:#231f20;fill-opacity:1;fill-rule:nonzero;stroke:none" transform="matrix(5.91352 0 0 -5.91352 1443.128 127.917)"/><path d="M0 0c-.69.588-1.56.878-2.611.878-1.037 0-1.915-.305-2.631-.906-.715-.612-1.073-1.325-1.073-2.135 0-.879.358-1.607 1.073-2.189.716-.575 1.594-.861 2.631-.861 1.051 0 1.921.289 2.611.881.688.585 1.026 1.306 1.026 2.169C1.026-1.313.688-.587 0 0m.162-14.446c-.77.63-1.706.95-2.804.95-1.057 0-1.982-.32-2.78-.95-.801-.639-1.193-1.467-1.193-2.481 0-1.04.392-1.872 1.178-2.509.788-.638 1.717-.957 2.795-.957 1.098 0 2.034.319 2.804.957.782.637 1.171 1.469 1.171 2.509 0 1.014-.389 1.842-1.171 2.481m1.324 9.034C.305-6.199-1.068-6.586-2.642-6.586c-1.579 0-2.947.397-4.128 1.186-1.17.799-1.756 1.878-1.756 3.237 0 1.435.586 2.526 1.766 3.282 1.192.756 2.57 1.136 4.149 1.136 1.553 0 2.916-.37 4.097-1.12C2.655.391 3.237-.717 3.237-2.163c0-1.38-.582-2.456-1.751-3.249m.081-15.15a7.506 7.506 0 0 0-4.209-1.271c-1.512 0-2.912.436-4.199 1.307-1.283.863-1.932 2.062-1.932 3.599 0 1.589.649 2.802 1.932 3.63a7.643 7.643 0 0 0 4.199 1.241 7.59 7.59 0 0 0 4.209-1.241c1.278-.828 1.916-2.041 1.916-3.63 0-1.573-.638-2.782-1.916-3.635M-3.72 5.98c-.06.263-.296.462-.71.58-.486.158-.659.37-.546.641.122.271.428.37.929.317.041 0 .296-.021.776-.046a9.324 9.324 0 0 0 1.584-.262c.097-.017.247-.052.451-.114-.016-.026-.082-.256-.179-.697a6.27 6.27 0 0 1-.16-1.393V4.7H.944c.735 0 1.145.013 1.226.036.399.02.73.138.997.36.271.214.412.337.439.358.04 0 .418-.049 1.133-.118.717-.084 1.365-.261 1.937-.544.343-.135.479-.414.409-.848-.072-.432-.287-.661-.639-.71a13.059 13.059 0 0 0-1.123-.053c-.353 0-.793.018-1.334.053-.915.103-2.304.181-4.169.215-1.859.038-4.27 0-7.238-.123a1.831 1.831 0 0 1-.874-.265c-.261-.154-.389-.248-.419-.262-.02 0-.338.052-.955.18-.612.115-1.323.45-2.12 1.009-.502.319-.639.602-.419.87.22.253.578.332 1.072.238a34.858 34.858 0 0 1 1.932-.215c.485-.04 1.17-.076 2.044-.114.198-.024.627-.031 1.287-.031.653 0 1.404-.013 2.242-.036 0 .582-.025 1.009-.092 1.28M10.508-9.249c-.067-.437-.292-.679-.691-.715a10.098 10.098 0 0 0-1.164-.064c-.378 0-.853.018-1.429.064-.982.094-3.09.163-6.327.189-3.238.033-7.069-.005-11.488-.104a1.942 1.942 0 0 1-.916-.281 7.38 7.38 0 0 1-.428-.287c-.045 0-.383.064-1.031.18-.649.124-1.394.461-2.259 1.018-.494.32-.633.618-.397.897.228.274.597.375 1.118.293.833-.087 1.512-.16 2.032-.206a76.23 76.23 0 0 1 2.213-.115c.516-.023 3.183-.038 8.006-.044 4.822-.018 7.324-.005 7.529.01.44.02.791.139 1.073.346.281.209.43.318.449.341.037 0 .445-.038 1.217-.119.766-.08 1.441-.246 2.044-.506.357-.164.504-.454.449-.897" style="fill:#231f20;fill-opacity:1;fill-rule:nonzero;stroke:none" transform="matrix(5.91352 0 0 -5.91352 1569.19 48.423)"/><path d="M0 0c-.45-.027-.935-.056-1.456-.094a2.217 2.217 0 0 1-.648-.197 4.18 4.18 0 0 1-.429-.194c-.016 0-.267.043-.757.12-.487.082-1.138.365-1.956.836-.423.257-.577.526-.459.791.106.268.408.378.914.315a29.397 29.397 0 0 1 1.966-.134c.44-.005 1.134-.035 2.094-.073.271-.023.594-.023.938 0 .35.015.647.038.912.053v13.152c0 .439-.074.848-.204 1.229-.148.373-.663.681-1.559.922-.5.128-.686.342-.571.661.125.314.444.422.957.327.039 0 .354-.017.928-.07.574-.055 1.297-.203 2.157-.438.075-.02.176-.043.302-.069.129-.038.208-.049.228-.049 0-.043-.048-.37-.149-1a10.217 10.217 0 0 1-.15-1.569V-1.65c0-.459-.043-.817-.135-1.088-.087-.268-.215-.454-.372-.554-.119-.079-.289-.128-.52-.166-.232-.031-.411.007-.553.104a1.085 1.085 0 0 0-.269.32c-.06.104-.09.309-.09.608V.021C.82.021.439.013 0 0m1.342-8.286c.235.2.346.314.37.332.044 0 .438-.03 1.195-.117.759-.082 1.414-.256 1.98-.544.355-.133.511-.422.458-.843-.046-.434-.274-.665-.667-.707-.384-.039-.762-.06-1.14-.06-.376 0-.83.013-1.346.034l-8.248-.034c-.735 0-1.448.102-2.147.309-.7.217-.961.836-.805 1.873.133.881.17 1.492.099 1.855-.066.357-.099.544-.099.562 0 .502-.064.882-.2 1.151-.127.269-.657.506-1.599.708-.416.099-.574.288-.472.593.097.306.403.416.918.362.052 0 .405-.028 1.082-.074a21.297 21.297 0 0 0 2-.253c.099-.025.236-.041.403-.064.173-.015.267-.033.284-.033 0-.015-.051-.243-.147-.669a5.144 5.144 0 0 1-.152-1.182l-.026-.836c-.028-.532.031-1.157.178-1.852 0-.398.079-.628.237-.7.163-.068.367-.11.622-.11.104 0 .818-.025 2.129-.069a48.958 48.958 0 0 1 4.124.039c.415.028.739.14.969.329m-8.247 21.893c-.688.664-1.586 1.001-2.703 1.001-1.137 0-2.066-.337-2.767-1.001-.701-.667-1.055-1.468-1.055-2.409 0-.893.354-1.683 1.055-2.362.701-.673 1.63-1.014 2.767-1.014 1.117 0 2.015.347 2.703 1.031.686.692 1.025 1.475 1.025 2.345 0 .941-.339 1.742-1.025 2.409m-4.078 2.845c-.062.182-.024.369.12.578.181.294.559.436 1.149.411.585-.018.983-.177 1.181-.475a.683.683 0 0 0 .151-.564c-.037-.202-.083-.412-.123-.629 1.314-.161 2.467-.641 3.443-1.435.968-.793 1.456-1.845 1.456-3.14 0-1.494-.614-2.666-1.836-3.522-1.227-.856-2.62-1.29-4.198-1.29-1.571 0-2.977.434-4.199 1.29-1.221.856-1.839 2.028-1.839 3.522 0 1.295.485 2.34 1.456 3.127.96.792 2.105 1.272 3.415 1.448a5.172 5.172 0 0 1-.176.679M-8.621.23c0-.437-.049-.748-.134-.932a1.033 1.033 0 0 0-.374-.437c-.122-.084-.296-.138-.525-.169-.231-.03-.424.008-.582.11a.99.99 0 0 0-.27.312.982.982 0 0 0-.089.457v3.5a27.232 27.232 0 0 1-1.508-.093c-.514-.036-1.047-.074-1.597-.12a1.955 1.955 0 0 1-.722-.219c-.262-.13-.397-.205-.406-.223-.032 0-.309.07-.85.208-.535.137-1.18.461-1.941.958-.415.277-.541.536-.363.775.184.242.499.328.933.269.692-.077 1.254-.14 1.655-.166.412-.028.991-.048 1.749-.076.819-.021 2.6.099 5.333.346 2.74.251 4.998.54 6.77.887.398.072.605-.069.61-.437.013-.37-.173-.605-.549-.7a60.108 60.108 0 0 0-3.425-.689 54.853 54.853 0 0 0-3.715-.511Z" style="fill:#231f20;fill-opacity:1;fill-rule:nonzero;stroke:none" transform="matrix(5.91352 0 0 -5.91352 1750.724 111.924)"/><path d="M0 0s-.794 13.208 13.658 11.096c0 0-1.007-12.537-13.658-11.096" style="fill:#73c167;fill-opacity:1;fill-rule:nonzero;stroke:none" transform="matrix(5.91352 0 0 -5.91352 137.062 66.97)"/><path d="M0 0h12.483c7.551 0 17.998-17.431 18.867-34.261H18.87s-.291 15.099-6.971 23.227C5.227-2.899 0 0 0 0" style="fill:#ffc424;fill-opacity:1;fill-rule:nonzero;stroke:none" transform="matrix(5.91352 0 0 -5.91352 139.03 86.454)"/><path d="M0 0s-16.549 5.239-22.064 29.331h-14.224S-27.579 3.204-17.42.299z" style="fill:#12b5ea;fill-opacity:1;fill-rule:nonzero;stroke:none" transform="matrix(5.91352 0 0 -5.91352 214.59 189.533)"/><path d="M203.007 561.301h1.562v-4.499h-1.562z" style="fill:#939598;fill-opacity:1;fill-rule:nonzero;stroke:none;stroke-width:1.37956" transform="matrix(4.28652 0 0 -4.28652 -235.892 2636.898)"/><path d="M0 0h1.924c1.105-4.725 1.214-5.325 1.37-6.312h.024c.156.902.288 1.78 1.203 6.312h1.911c1.01-4.736 1.094-5.193 1.287-6.312h.024c.144.818.288 1.564 1.406 6.312h1.827L8.548-8.632H6.816C5.927-4.4 5.771-3.558 5.482-1.899h-.024c-.264-1.659-.408-2.285-1.334-6.733H2.44Z" style="fill:#939598;fill-opacity:1;fill-rule:nonzero;stroke:none" transform="matrix(5.91352 0 0 -5.91352 381.387 233.532)"/><path d="M0 0c-1.298 0-1.539-1.13-1.539-1.947 0-.819.241-1.949 1.539-1.949s1.539 1.13 1.539 1.949C1.539-1.13 1.298 0 0 0m0-5.313c-1.72 0-3.27 1.057-3.27 3.366C-3.27.361-1.72 1.419 0 1.419c1.719 0 3.27-1.058 3.27-3.366 0-2.309-1.551-3.366-3.27-3.366" style="fill:#939598;fill-opacity:1;fill-rule:nonzero;stroke:none" transform="matrix(5.91352 0 0 -5.91352 464.834 254.148)"/><path d="M0 0h-1.683v3.884c0 .949-.421 1.262-.914 1.262-.841 0-1.142-.554-1.142-1.311V0h-1.683v3.848c0 .54 0 1.298-1.01 1.298-.794 0-1.046-.554-1.046-1.25V0h-1.683v6.396h1.611v-.938h.024c.216.421.685 1.106 1.816 1.106.925 0 1.346-.336 1.779-1.022.216.313.685 1.022 1.706 1.022C-.974 6.564 0 5.831 0 4.425Z" style="fill:#939598;fill-opacity:1;fill-rule:nonzero;stroke:none" transform="matrix(5.91352 0 0 -5.91352 545.224 284.576)"/><path d="M0 0c-.096 1.034-.758 1.347-1.298 1.347-.794 0-1.215-.505-1.311-1.347Zm1.659-1.959C1.214-3.499-.06-4.003-1.154-4.003c-1.804 0-3.186.865-3.186 3.498 0 .77.264 3.234 3.066 3.234 1.262 0 3.005-.601 3.005-3.523v-.3h-4.389c.049-.481.145-1.562 1.504-1.562.468 0 .95.24 1.082.697z" style="fill:#939598;fill-opacity:1;fill-rule:nonzero;stroke:none" transform="matrix(5.91352 0 0 -5.91352 576.986 261.898)"/><path d="M0 0h-1.683v3.884c0 .468-.024 1.262-1.094 1.262-.745 0-1.323-.505-1.323-1.479V0h-1.683v6.396h1.611v-.938h.025c.228.385.709 1.106 1.923 1.106C-.974 6.564 0 5.831 0 4.425Z" style="fill:#939598;fill-opacity:1;fill-rule:nonzero;stroke:none" transform="matrix(5.91352 0 0 -5.91352 628.022 284.576)"/><path d="M0 0c-.072.409-.216.842-1.129.842-.914 0-1.035-.349-1.035-.625 0-1.011 4.004-.278 4.004-2.633 0-1.864-1.804-2.2-2.801-2.2-1.455 0-3.03.504-3.078 2.212h1.731c0-.541.336-.938 1.395-.938.865 0 1.07.42 1.07.66 0 1.071-3.968.266-3.968 2.659 0 .937.589 2.139 2.585 2.139 1.25 0 2.741-.312 2.873-2.116z" style="fill:#939598;fill-opacity:1;fill-rule:nonzero;stroke:none" transform="matrix(5.91352 0 0 -5.91352 670.49 258.272)"/><path d="M0 0v-3.871h-1.804v8.632H0v-3.27h3.366v3.27H5.17v-8.632H3.366V0Z" style="fill:#939598;fill-opacity:1;fill-rule:nonzero;stroke:none" transform="matrix(5.91352 0 0 -5.91352 719.462 261.685)"/><path d="M0 0h-1.611v.901h-.024C-2.02.216-2.693-.168-3.583-.168c-1.262 0-2.176.722-2.176 2.356v4.208h1.684V2.429c0-.987.576-1.179 1.094-1.179.552 0 1.297.312 1.297 1.455v3.691H0Z" style="fill:#939598;fill-opacity:1;fill-rule:nonzero;stroke:none" transform="matrix(5.91352 0 0 -5.91352 793.808 284.576)"/><path d="M0 0h-1.683v3.884c0 .949-.421 1.262-.914 1.262-.841 0-1.142-.554-1.142-1.311V0h-1.683v3.848c0 .54 0 1.298-1.01 1.298-.794 0-1.046-.554-1.046-1.25V0h-1.683v6.396h1.611v-.938h.024c.216.421.685 1.106 1.816 1.106.925 0 1.347-.336 1.778-1.022.217.313.686 1.022 1.707 1.022C-.974 6.564 0 5.831 0 4.425Z" style="fill:#939598;fill-opacity:1;fill-rule:nonzero;stroke:none" transform="matrix(5.91352 0 0 -5.91352 857.21 284.576)"/><path d="M0 0c-.168-.133-.444-.241-1.143-.35-.625-.107-1.141-.263-1.141-.962 0-.588.457-.768.781-.768C-.758-2.08 0-1.6 0-.818zm1.647-1.864c0-.757.168-.926.374-.998v-.252H.205a2.778 2.778 0 0 0-.157.758c-.385-.398-.926-.926-2.068-.926-.961 0-1.947.541-1.947 1.862 0 1.251.793 1.889 1.863 2.045l1.515.229c.264.035.589.143.589.504 0 .709-.673.746-1.105.746-.842 0-.987-.518-1.036-.89h-1.622C-3.57 3.174-2.212 3.45-.901 3.45c.901 0 2.548-.276 2.548-1.851Z" style="fill:#939598;fill-opacity:1;fill-rule:nonzero;stroke:none" transform="matrix(5.91352 0 0 -5.91352 887.194 266.16)"/><path d="M0 0h-1.683v3.884c0 .468-.024 1.262-1.094 1.262-.745 0-1.323-.505-1.323-1.479V0h-1.683v6.396h1.611v-.938h.025c.227.385.709 1.106 1.923 1.106C-.975 6.564 0 5.831 0 4.425Z" style="fill:#939598;fill-opacity:1;fill-rule:nonzero;stroke:none" transform="matrix(5.91352 0 0 -5.91352 940.006 284.576)"/><path d="M0 0c.937 0 1.394.325 1.394 1.178 0 .457-.205 1.131-1.262 1.131h-2.248V0Zm-3.884 3.799H.479c2.297 0 2.719-1.695 2.719-2.441 0-.949-.481-1.766-1.336-2.055.709-.313 1.094-.577 1.094-2.188 0-1.262 0-1.575.386-1.719v-.229H1.346c-.12.408-.192.854-.192 1.744 0 1.178-.073 1.634-1.407 1.634h-1.863v-3.378h-1.768z" style="fill:#939598;fill-opacity:1;fill-rule:nonzero;stroke:none" transform="matrix(5.91352 0 0 -5.91352 992.743 255.996)"/><path d="M295.446 548.772h-2.323v8.824h2.323zm0 9.87h-2.323v2.154h2.323z" style="fill:#939598;fill-opacity:1;fill-rule:nonzero;stroke:none;stroke-width:1.37956" transform="matrix(4.28652 0 0 -4.28652 -235.892 2636.898)"/><path d="M0 0c1.143 0 1.431.974 1.431 1.852 0 1.033-.504 1.875-1.443 1.875-.626 0-1.322-.457-1.322-1.948C-1.334.962-.997 0 0 0m3.102 5.013v-6.06c0-1.105-.084-2.944-3.235-2.944-1.322 0-2.716.564-2.788 1.924h1.827c.073-.326.205-.651 1.178-.651.902 0 1.335.433 1.335 1.468v.769l-.024.024C1.118-.95.697-1.419-.312-1.419c-1.54 0-2.753 1.07-2.753 3.307 0 2.211 1.251 3.294 2.656 3.294 1.191 0 1.672-.698 1.876-1.119h.024v.95z" style="fill:#939598;fill-opacity:1;fill-rule:nonzero;stroke:none" transform="matrix(5.91352 0 0 -5.91352 1056.417 276.4)"/><path d="M0 0h-1.683v3.884c0 .468-.024 1.262-1.094 1.262-.744 0-1.323-.505-1.323-1.479V0h-1.683v8.632H-4.1V5.566h.025c.216.529.937.998 1.85.998C-.974 6.564 0 5.831 0 4.425Z" style="fill:#939598;fill-opacity:1;fill-rule:nonzero;stroke:none" transform="matrix(5.91352 0 0 -5.91352 1117.689 284.576)"/><path d="M0 0h1.046v-1.202H0v-3.475c0-.372.013-.517.697-.517.11 0 .229.012.349.025v-1.275a17.45 17.45 0 0 0-.793-.024H.036c-1.454 0-1.719.552-1.719 1.383v3.883h-.865V0h.865v1.731H0Z" style="fill:#939598;fill-opacity:1;fill-rule:nonzero;stroke:none" transform="matrix(5.91352 0 0 -5.91352 1138.074 246.754)"/><path d="M0 0c-.072.409-.217.842-1.131.842-.912 0-1.034-.349-1.034-.625 0-1.011 4.004-.278 4.004-2.633 0-1.864-1.804-2.2-2.802-2.2-1.454 0-3.029.504-3.078 2.212h1.732c0-.541.337-.938 1.395-.938.866 0 1.07.42 1.07.66 0 1.071-3.968.266-3.968 2.659 0 .937.589 2.139 2.585 2.139 1.25 0 2.741-.312 2.873-2.116z" style="fill:#939598;fill-opacity:1;fill-rule:nonzero;stroke:none" transform="matrix(5.91352 0 0 -5.91352 1171.984 258.272)"/><path d="M339.75 548.772h-2.488v11.908h2.489z" style="fill:#939598;fill-opacity:1;fill-rule:nonzero;stroke:none;stroke-width:1.37956" transform="matrix(4.28652 0 0 -4.28652 -235.892 2636.898)"/><path d="M0 0h-1.684v3.884c0 .468-.023 1.262-1.094 1.262-.744 0-1.323-.505-1.323-1.479V0h-1.682v6.396h1.611v-.938h.024c.228.385.71 1.106 1.923 1.106C-.974 6.564 0 5.831 0 4.425Z" style="fill:#939598;fill-opacity:1;fill-rule:nonzero;stroke:none" transform="matrix(5.91352 0 0 -5.91352 1263.817 284.576)"/><path d="M0 0c-.071.409-.217.842-1.131.842-.913 0-1.034-.349-1.034-.625 0-1.011 4.004-.278 4.004-2.633 0-1.864-1.804-2.2-2.801-2.2-1.454 0-3.03.504-3.078 2.212h1.731c0-.541.337-.938 1.395-.938.865 0 1.07.42 1.07.66 0 1.071-3.969.266-3.969 2.659 0 .937.59 2.139 2.587 2.139 1.249 0 2.741-.312 2.873-2.116z" style="fill:#939598;fill-opacity:1;fill-rule:nonzero;stroke:none" transform="matrix(5.91352 0 0 -5.91352 1294.441 258.272)"/><path d="M0 0h1.046v-1.202H0v-3.475c0-.372.012-.517.697-.517.108 0 .229.012.349.025v-1.275c-.266-.012-.53-.024-.794-.024H.035c-1.454 0-1.72.552-1.72 1.383v3.883h-.865V0h.865v1.731H0Z" style="fill:#939598;fill-opacity:1;fill-rule:nonzero;stroke:none" transform="matrix(5.91352 0 0 -5.91352 1323.726 246.754)"/><path d="M369.147 548.772h-2.322v8.824h2.322zm0 9.87h-2.322v2.154h2.322z" style="fill:#939598;fill-opacity:1;fill-rule:nonzero;stroke:none;stroke-width:1.37956" transform="matrix(4.28652 0 0 -4.28652 -235.892 2636.898)"/><path d="M0 0h1.046v-1.202H0v-3.475c0-.372.014-.517.698-.517.108 0 .228.012.348.025v-1.275a17.45 17.45 0 0 0-.793-.024H.037c-1.454 0-1.72.552-1.72 1.383v3.883h-.866V0h.866v1.731H0Z" style="fill:#939598;fill-opacity:1;fill-rule:nonzero;stroke:none" transform="matrix(5.91352 0 0 -5.91352 1367.142 246.754)"/><path d="M0 0h-1.61v.901h-.025C-2.02.216-2.692-.168-3.582-.168c-1.263 0-2.177.722-2.177 2.356v4.208h1.684V2.429c0-.987.576-1.179 1.095-1.179.552 0 1.297.312 1.297 1.455v3.691H0Z" style="fill:#939598;fill-opacity:1;fill-rule:nonzero;stroke:none" transform="matrix(5.91352 0 0 -5.91352 1413.774 284.576)"/><path d="M0 0h1.046v-1.202H0v-3.475c0-.372.013-.517.697-.517.11 0 .23.012.349.025v-1.275a17.363 17.363 0 0 0-.793-.024H.037c-1.454 0-1.719.552-1.719 1.383v3.883h-.866V0h.866v1.731H0Z" style="fill:#939598;fill-opacity:1;fill-rule:nonzero;stroke:none" transform="matrix(5.91352 0 0 -5.91352 1434.235 246.754)"/><path d="M0 0c-.097 1.034-.758 1.347-1.299 1.347-.793 0-1.215-.505-1.31-1.347Zm1.659-1.959c-.445-1.54-1.72-2.044-2.813-2.044-1.804 0-3.186.865-3.186 3.498 0 .77.264 3.234 3.066 3.234 1.262 0 3.004-.601 3.004-3.523v-.3h-4.388c.049-.481.144-1.562 1.504-1.562.468 0 .949.24 1.081.697z" style="fill:#939598;fill-opacity:1;fill-rule:nonzero;stroke:none" transform="matrix(5.91352 0 0 -5.91352 1469.428 261.898)"/><path d="M0 0c-1.299 0-1.539-1.13-1.539-1.947 0-.819.24-1.949 1.539-1.949 1.297 0 1.538 1.13 1.538 1.949C1.538-1.13 1.297 0 0 0m0-5.313c-1.72 0-3.271 1.057-3.271 3.366C-3.271.361-1.72 1.419 0 1.419c1.719 0 3.269-1.058 3.269-3.366 0-2.309-1.55-3.366-3.269-3.366" style="fill:#939598;fill-opacity:1;fill-rule:nonzero;stroke:none" transform="matrix(5.91352 0 0 -5.91352 1523.157 254.148)"/><path d="M0 0h-1.683v5.194h-.925v1.202h.925v.517c0 1.322.721 1.827 1.875 1.827.494 0 .722-.012.867-.024V7.358H.59c-.577 0-.59-.181-.59-.71v-.252h1.094V5.194H0Z" style="fill:#939598;fill-opacity:1;fill-rule:nonzero;stroke:none" transform="matrix(5.91352 0 0 -5.91352 1560.96 284.576)"/><path d="M0 0h-1.804v8.632H0v-3.51l3.294 3.51h2.332L2.104 5.098 5.831 0H3.51L.841 3.787 0 2.922Z" style="fill:#939598;fill-opacity:1;fill-rule:nonzero;stroke:none" transform="matrix(5.91352 0 0 -5.91352 1605.103 284.576)"/><path d="M0 0c-1.299 0-1.539-1.13-1.539-1.947 0-.819.24-1.949 1.539-1.949 1.298 0 1.538 1.13 1.538 1.949C1.538-1.13 1.298 0 0 0m0-5.313c-1.72 0-3.271 1.057-3.271 3.366C-3.271.361-1.72 1.419 0 1.419c1.719 0 3.269-1.058 3.269-3.366 0-2.309-1.55-3.366-3.269-3.366" style="fill:#939598;fill-opacity:1;fill-rule:nonzero;stroke:none" transform="matrix(5.91352 0 0 -5.91352 1658.833 254.148)"/><path d="M0 0h1.611v-1.106h.025C1.983-.457 2.369.168 3.39.168c.108 0 .216-.012.324-.024v-1.707c-.143.024-.324.024-.48.024-1.31 0-1.551-.818-1.551-1.527v-3.33H0Z" style="fill:#939598;fill-opacity:1;fill-rule:nonzero;stroke:none" transform="matrix(5.91352 0 0 -5.91352 1685.05 246.754)"/><path d="M0 0c-.096 1.034-.758 1.347-1.299 1.347-.793 0-1.214-.505-1.31-1.347Zm1.659-1.959C1.215-3.499-.06-4.003-1.154-4.003c-1.804 0-3.186.865-3.186 3.498 0 .77.265 3.234 3.066 3.234 1.262 0 3.004-.601 3.004-3.523v-.3h-4.388c.049-.481.145-1.562 1.504-1.562.468 0 .95.24 1.081.697z" style="fill:#939598;fill-opacity:1;fill-rule:nonzero;stroke:none" transform="matrix(5.91352 0 0 -5.91352 1735.449 261.898)"/><path d="M0 0c-.169-.133-.445-.241-1.142-.35-.626-.107-1.142-.263-1.142-.962 0-.588.456-.768.781-.768C-.757-2.08 0-1.6 0-.818zm1.646-1.864c0-.757.168-.926.374-.998v-.252H.204c-.097.301-.12.396-.156.758-.385-.398-.926-.926-2.068-.926-.962 0-1.948.541-1.948 1.862 0 1.251.794 1.889 1.864 2.045l1.515.229c.264.035.589.143.589.504 0 .709-.674.746-1.106.746-.842 0-.987-.518-1.035-.89h-1.622c.192 1.96 1.55 2.236 2.862 2.236.901 0 2.547-.276 2.547-1.851Z" style="fill:#939598;fill-opacity:1;fill-rule:nonzero;stroke:none" transform="matrix(5.91352 0 0 -5.91352 1773.188 266.16)"/></svg>