<svg xmlns="http://www.w3.org/2000/svg" width="904.82623pt" height="150.00006pt" fill-rule="evenodd" viewBox="0 0 904.82623 150.00006"><path d="M145.303 1156.214v80.138c0 9.525 5.723 12.978 14.415 12.978h16.67v-93.116zM-.487 1156.214v80.138c0 9.525 5.747 12.978 14.439 12.978h16.671v-93.116zM-19.557 1172.422v-16.208h-71.529v80.138c0 9.525 5.747 12.978 14.439 12.978h57.09v-16.2h-40.419v-23.034h37.45v-16.21h-37.45v-21.464zM-195.791 1156.214v80.138c0 9.525 5.723 12.978 14.415 12.978h16.671v-93.116z" style="fill:#005d80;stroke:none;stroke-width:2.37481" transform="translate(195.791 -1103.396)"/><path d="m-152.403 1189.566-13.466 12.86 24.39 34.923c5.652 8.702 11.28 11.981 23.012 11.981h18.974l-40.134-57.036z" style="fill:#005d80;stroke:none;stroke-width:2.37481" transform="translate(195.791 -1103.396)"/><path d="m-169.288 1202.425 40.656-46.211h23.535l-34.767 38.503-17.313 6.426zM55.179 1156.214H42.616v17.414h29.78v62.724c0 9.525 5.747 12.978 14.439 12.978h16.671v-54.366c0-13.784-11.755-38.75-48.327-38.75zM133.31 1173.628v-17.414H91.204c5.273 5.217 9.381 11.14 12.302 17.438v-.024z" style="fill:#005d80;stroke:none;stroke-width:2.37481" transform="translate(195.791 -1103.396)"/><path d="M85.315 1147.038c-30.825-45.77-71.885-46.687-97.462-41.495-30.16 6.129-57.067 19.321-95.539 15.538 9.357 10.076 22.015 19.317 35.1 22.029 16.814 3.49 39.184-.791 52.412-5.467 17.692-6.243 33.224-13.354 53.1-12.311 19.95 1.04 39.613 10.596 52.39 21.706z" style="fill:#97c124;stroke:none;stroke-width:2.37481" transform="translate(195.791 -1103.396)"/><path d="M263.497 1201.786h-8.716v-44.997h8.716z" style="fill:#005d80;stroke:none;stroke-width:2.37481" transform="translate(195.791 -1103.396)"/><path d="M271.429 1176.369h-11.47v-5.583h11.47zM238.87 1164.932h-8.692v-8.72h8.692z" style="fill:#005d80;stroke:none;stroke-width:2.37481" transform="translate(195.791 -1103.396)"/><path d="M250.245 1168.133h-31.442v-5.593h31.443zM237.255 1212.17v-13.618h-8.692v12.834c0 4.08 3.017 6.366 6.864 6.366h28.759v-5.583z" style="fill:#005d80;stroke:none;stroke-width:2.37481" transform="translate(195.791 -1103.396)"/><path d="M234.524 1163.913c-8.145 0-14.724 6.497-14.724 14.515 0 8.008 6.579 14.512 14.724 14.512 8.122 0 14.724-6.504 14.724-14.512 0-8.018-6.602-14.515-14.724-14.515zm0 23.523c-3.324 0-6.032-4.106-6.032-9.162 0-5.068 2.708-9.153 6.032-9.153 3.325 0 6.032 4.085 6.032 9.152 0 5.057-2.707 9.163-6.032 9.163zM348.705 1212.17v-10.21h-8.692v9.426c0 4.08 2.993 6.366 6.84 6.366h28.759v-5.583zM374.923 1203.736h-8.716v-46.947h8.716z" style="fill:#005d80;stroke:none;stroke-width:2.37481" transform="translate(195.791 -1103.396)"/><path d="M354.547 1198.58h-24.294v-5.575h24.294c6.365 0 10.734-.635 15.009-2.473v4.489c-3.064 1.676-6.53 3.56-15.009 3.56zM382.807 1177.081h-11.422v-5.561h11.422zM350.771 1164.932h-8.692v-8.72h8.692z" style="fill:#005d80;stroke:none;stroke-width:2.37481" transform="translate(195.791 -1103.396)"/><path d="M362.123 1168.133h-31.395v-5.593h31.395zM350.771 1195.581h-8.692v-9.658h8.692z" style="fill:#005d80;stroke:none;stroke-width:2.37481" transform="translate(195.791 -1103.396)"/><path d="M346.425 1164.203c-7.765 0-14.035 5.666-14.035 12.65 0 6.99 6.27 12.649 14.035 12.649 7.766 0 14.035-5.66 14.035-12.649 0-6.984-6.27-12.65-14.035-12.65zm0 19.981c-3.277 0-5.96-3.472-5.96-7.758 0-4.287 2.683-7.754 5.96-7.754 3.301 0 5.961 3.467 5.961 7.754 0 4.286-2.66 7.758-5.96 7.758zM536.719 1175.512h-11.47v-5.581h11.47zM537.146 1205.836h-23.653v-5.586h23.653z" style="fill:#005d80;stroke:none;stroke-width:2.37481" transform="translate(195.791 -1103.396)"/><path d="M517.15 1212.15v-19.1h-8.691v18.336c0 4.08 2.968 6.366 6.839 6.366h28.616v-5.602zM543.914 1188.516h-8.691v-31.727h8.691z" style="fill:#005d80;stroke:none;stroke-width:2.37481" transform="translate(195.791 -1103.396)"/><path d="M543.914 1215.49h-8.691v-22.44h8.691zM513.303 1157.247c-8.407 0-15.246 6.915-15.246 15.455 0 8.519 6.84 15.432 15.246 15.432 8.43 0 15.27-6.913 15.27-15.432 0-8.54-6.84-15.455-15.27-15.455zm0 25.225c-3.61 0-6.554-4.37-6.554-9.77 0-5.429 2.944-9.789 6.554-9.789 3.634 0 6.578 4.36 6.578 9.79 0 5.4-2.944 9.77-6.578 9.77zM681.582 1212.17v-10.215h-8.668v9.43c0 4.08 2.969 6.367 6.84 6.367h28.759v-5.583zM681.63 1198.148h-8.692v-10.494h8.692z" style="fill:#005d80;stroke:none;stroke-width:2.37481" transform="translate(195.791 -1103.396)"/><path d="M695.309 1191.083H660.66v-5.312h34.649zM707.824 1203.306h-8.692v-46.517h8.692z" style="fill:#005d80;stroke:none;stroke-width:2.37481" transform="translate(195.791 -1103.396)"/><path d="M701.982 1199.435h-14.368v-5.295h14.368zM677.118 1156.789c-7.956 0-14.44 5.934-14.44 13.27 0 7.307 6.484 13.247 14.44 13.247 7.979 0 14.462-5.94 14.462-13.247 0-7.336-6.483-13.27-14.462-13.27zm0 20.92c-3.444 0-6.222-3.437-6.222-7.65 0-4.246 2.778-7.675 6.222-7.675 3.467 0 6.245 3.429 6.245 7.675 0 4.213-2.778 7.65-6.245 7.65zM303.156 1198.91h-8.692v-14.82h8.692z" style="fill:#005d80;stroke:none;stroke-width:2.37481" transform="translate(195.791 -1103.396)"/><path d="M318.45 1201.062h-38.14v-5.583h38.14z" style="fill:#005d80;stroke:none;stroke-width:2.37481" transform="translate(195.791 -1103.396)"/><path d="M318.45 1217.752h-8.716v-20.133h8.716zM324.363 1185.985h-49.99v-5.565h49.99zM317.856 1163.896h-37.403v-5.58h37.855z" style="fill:#005d80;stroke:none;stroke-width:2.37481" transform="translate(195.791 -1103.396)"/><path d="M308.428 1181.722c.689-5.013 1.022-14.34 1.022-18.55l8.858-4.856c0 5.732-.808 16.495-2.114 23.406zM485.708 1201.786h-8.716v-44.997h8.716z" style="fill:#005d80;stroke:none;stroke-width:2.37481" transform="translate(195.791 -1103.396)"/><path d="M493.64 1176.369h-11.494v-5.583h11.494zM459.466 1212.17v-14.813h-8.692v14.029c0 4.08 2.993 6.366 6.84 6.366h28.783v-5.583zM452.437 1158.356h9.499c-.831 9.445-5.01 23.52-20.922 33.61l-3.515-3.58c9.357-7.45 13.917-17.57 14.938-30.03z" style="fill:#005d80;stroke:none;stroke-width:2.37481" transform="translate(195.791 -1103.396)"/><path d="m454.1 1176.447 14.818 14.781 4.868-6.032-17.573-12.971zM597.894 1217.752h-8.692v-60.963h8.692zM581.745 1162.528l-1.757 3.228H554.53v-5.59h27.785z" style="fill:#005d80;stroke:none;stroke-width:2.37481" transform="translate(195.791 -1103.396)"/><path d="M582.315 1160.166c-1.164 15.305-6.15 29.837-27.12 39.714l-3.182-3.93c18.048-10.343 19.568-25.673 19.877-30.301M635.582 1198.006h-8.692V1187.5h8.692z" style="fill:#005d80;stroke:none;stroke-width:2.37481" transform="translate(195.791 -1103.396)"/><path d="M656.48 1189.409h-50.488v-5.303h50.488zM649.831 1199.122h-37.166v-5.32h37.166zM649.831 1208.517h-37.166v-5.315h37.166z" style="fill:#005d80;stroke:none;stroke-width:2.37481" transform="translate(195.791 -1103.396)"/><path d="M649.831 1208.44h-8.716v-14.571h8.716zM621.357 1212.438v-7.892h-8.692v6.84c0 4.08 2.992 6.366 6.84 6.366h30.326v-5.314zM628.125 1156.789h9.784c-2.113 9.532-10.425 18.587-25.742 23.921l-3.491-3.59c13.013-5.51 17.882-13.938 19.45-20.331z" style="fill:#005d80;stroke:none;stroke-width:2.37481" transform="translate(195.791 -1103.396)"/><path d="m629.835 1167.677 18.999 13.06 4.678-6.18-21.04-10.912zM432.465 1191.257h-8.692v-34.468h8.692z" style="fill:#005d80;stroke:none;stroke-width:2.37481" transform="translate(195.791 -1103.396)"/><path d="M425.245 1171.636h-9.879v-5.58h9.88zM425.245 1183.557h-9.879v-5.569h9.88zM415.271 1191.943c-8.668 0-15.697 6.274-15.697 13.992 0 7.73 7.029 14.007 15.697 14.007s15.698-6.277 15.698-14.007c0-7.718-7.03-13.992-15.698-13.992zm0 22.326c-3.705 0-6.72-3.72-6.72-8.334 0-4.595 3.015-8.307 6.72-8.307 3.728 0 6.744 3.712 6.744 8.307 0 4.615-3.016 8.333-6.744 8.333zM414.464 1160.396l-6.697 3.496H388.53v-5.576h26.835z" style="fill:#005d80;stroke:none;stroke-width:2.37481" transform="translate(195.791 -1103.396)"/><path d="M405.107 1163.386c-.808 6.892-4.536 18.193-17.74 25.574l3.182 3.921c14.25-7.155 23.178-16.4 24.817-34.565l-5.795 2.12zM224.194 1231.49h2.968v7.182h.048l5.058-7.181h3.135l-5.628 7.445 6.222 9.074h-3.634l-5.153-7.996h-.048v7.996h-2.968zM239.108 1242.31c0-2.512.166-4.835 2.042-4.835s1.995 2.323 1.995 4.835c0 2.515-.119 4.838-1.995 4.838-1.876 0-2.042-2.323-2.042-4.838zm2.042 5.963c3.063 0 4.963-1.629 4.963-5.963 0-4.331-1.9-5.96-4.963-5.96-3.087 0-5.01 1.629-5.01 5.96 0 4.334 1.923 5.963 5.01 5.963zM248.227 1236.613h2.755v2.85h.047c.76-1.484 1.615-2.969 3.657-3.113v2.994c-2.754 0-3.704 1.028-3.704 3.567v5.099h-2.755zM257.964 1239.869c.07-.525.403-2.394 1.994-2.394 1.497 0 1.805 1.582 1.805 2.394zm6.27 6.417c-.666.263-1.402.503-2.114.503-3.111 0-4.156-3.783-4.156-5.723h6.46v-.43c0-2.61-1.378-4.287-4.37-4.287-3.586 0-4.845 2.3-4.845 5.436 0 4.764 2.683 6.488 5.51 6.488 1.59 0 2.28-.24 3.514-.79zM272.118 1243.58c0 1.604-.76 3.04-2.043 3.04-.807 0-1.258-.645-1.258-1.605 0-1.866 2.374-2.178 3.3-2.273zm0 4.43h2.754v-7.709c0-2.275-.688-3.951-4.084-3.951-2.898 0-4.418 1.27-4.418 3.664h2.921c.048-.743.024-2.539 1.473-2.539.879 0 1.353.551 1.353 2.228v1.914c-1.543.074-6.15.287-6.15 3.807 0 1.652 1.33 2.85 3.04 2.85s2.778-1.224 3.063-1.775h.047zM284.087 1231.49h9.166v1.891h-6.198v5.077h5.866v1.89h-5.866v5.674h6.388v1.988h-9.356zM295.438 1236.613h2.731v2.562h.048c.45-.933 1.33-2.825 3.562-2.825 2.018 0 2.73 1.389 2.73 3.806v7.854h-2.754v-7.11c0-1.413-.119-2.468-1.187-2.468-1.924 0-2.399 3.28-2.399 5.099v4.479h-2.73zM305.792 1236.613h2.803l2.493 7.614h.048l2.303-7.614h2.423l-3.753 11.397h-2.303zM317.12 1234.124h2.755v-2.633h-2.755zm0 13.886h2.755v-11.397h-2.755zM322.677 1236.613h2.755v2.85h.047c.737-1.484 1.615-2.969 3.658-3.113v2.994c-2.755 0-3.705 1.028-3.705 3.567v5.099h-2.755zM332.675 1242.31c0-2.512.166-4.835 2.042-4.835 1.877 0 1.995 2.323 1.995 4.835 0 2.515-.118 4.838-1.995 4.838-1.876 0-2.042-2.323-2.042-4.838zm2.042 5.963c3.064 0 4.964-1.629 4.964-5.963 0-4.331-1.9-5.96-4.964-5.96-3.087 0-5.01 1.629-5.01 5.96 0 4.334 1.923 5.963 5.01 5.963zM341.794 1236.613h2.755v2.562h.048c.427-.933 1.33-2.825 3.562-2.825 2.019 0 2.731 1.389 2.731 3.806v7.854h-2.755v-7.11c0-1.413-.119-2.468-1.187-2.468-1.948 0-2.399 3.28-2.399 5.099v4.479h-2.755zM353.692 1236.613h2.755v2.562h.047c.285-1.004 1.188-2.825 3.111-2.825 2.02 0 2.589 1.7 2.732 2.707h.047c.404-.886 1.092-2.707 3.135-2.707 2.327 0 2.755 2.108 2.755 4.046v7.614h-2.755v-7.398c0-.862-.119-2.18-1.164-2.18-1.852 0-1.995 3.425-1.995 4.453v5.125h-2.755v-7.11c0-1.413-.118-2.468-1.187-2.468-1.947 0-1.971 3.928-1.971 5.099v4.479h-2.755zM373.142 1239.869c.071-.525.38-2.394 1.971-2.394 1.52 0 1.829 1.582 1.829 2.394zm6.246 6.417c-.642.263-1.378.503-2.114.503-3.087 0-4.132-3.783-4.132-5.723h6.46v-.43c0-2.61-1.378-4.287-4.394-4.287-3.562 0-4.82 2.3-4.82 5.436 0 4.764 2.659 6.488 5.509 6.488 1.59 0 2.28-.24 3.49-.79zM381.691 1236.613h2.755v2.562h.047c.428-.933 1.307-2.825 3.539-2.825 2.042 0 2.731 1.389 2.731 3.806v7.854h-2.755v-7.11c0-1.413-.095-2.468-1.163-2.468-1.948 0-2.399 3.28-2.399 5.099v4.479h-2.755zM399.906 1248.129c-.665.07-1.282.144-1.924.144-2.137 0-3.467-.574-3.467-3.16v-7.11h-2.018v-1.39h2.018v-2.681l2.755-1.746v4.427h3.04v1.39h-3.04v6.75c0 1.509.404 1.868 1.401 1.868.404 0 .855-.025 1.235-.17zM407.268 1243.58c0 1.604-.736 3.04-2.042 3.04-.784 0-1.235-.645-1.235-1.605 0-1.866 2.35-2.178 3.277-2.273zm0 4.43h2.755v-7.709c0-2.275-.665-3.951-4.085-3.951-2.897 0-4.417 1.27-4.417 3.664h2.945c.047-.743.023-2.539 1.448-2.539.879 0 1.354.551 1.354 2.228v1.914c-1.544.074-6.127.287-6.127 3.807 0 1.652 1.306 2.85 3.016 2.85s2.778-1.224 3.087-1.775h.024zM412.73 1231.49h2.755v16.52h-2.755zM424.818 1231.49h2.968v16.52h-2.968zM430.684 1236.613h2.754v2.562h.048c.427-.933 1.306-2.825 3.538-2.825 2.019 0 2.731 1.389 2.731 3.806v7.854h-2.754v-7.11c0-1.413-.12-2.468-1.188-2.468-1.923 0-2.375 3.28-2.375 5.099v4.479h-2.754zM444.909 1242.384c0-1.772.213-4.382 1.828-4.382s1.686 2.61 1.686 4.382c0 1.532-.07 4.094-1.638 4.094-1.663 0-1.876-2.562-1.876-4.094zm3.657 5.626h2.73v-16.52h-2.73v6.655h-.048c-.332-.67-.878-1.795-2.612-1.795-2.802 0-3.966 2.203-3.966 6.034 0 3.208.903 5.89 3.61 5.89 1.805 0 2.636-1.461 2.968-2.18h.048zM460.274 1245.447h-.048c-.404.934-1.258 2.826-3.325 2.826-2.09 0-2.944-1.389-2.944-3.806v-7.854h2.73v7.11c0 1.413.38 2.468 1.402 2.468 1.78 0 2.185-3.28 2.185-5.099v-4.479h2.754v11.397h-2.754zM471.554 1239.152c-.641-.575-1.544-1.318-2.636-1.318-.57 0-1.354.29-1.354 1.078 0 1.102 1.995 1.914 3.064 2.873 1.187 1.029 1.615 1.746 1.615 3.064 0 2.489-1.924 3.424-4.156 3.424-1.306 0-2.351-.31-2.85-.456v-2.586c.522.456 1.615 1.39 2.897 1.39.998 0 1.615-.456 1.615-1.15 0-1.15-2.018-1.988-3.11-2.945-1.188-1.052-1.473-1.7-1.473-2.8 0-1.724 1.116-3.376 3.847-3.376 1.187 0 2.137.337 2.541.432zM480.34 1248.129c-.64.07-1.282.144-1.923.144-2.137 0-3.467-.574-3.467-3.16v-7.11h-2.019v-1.39h2.019v-2.681l2.755-1.746v4.427h3.063v1.39h-3.063v6.75c0 1.509.403 1.868 1.425 1.868.38 0 .83-.025 1.21-.17zM482.122 1236.613h2.755v2.85h.047c.736-1.484 1.615-2.969 3.657-3.113v2.994c-2.754 0-3.704 1.028-3.704 3.567v5.099h-2.755zM492.737 1248.176l-4.037-11.563h2.826l2.446 7.782h.048l2.517-7.782h2.232l-5.414 16.52h-2.233zM511.332 1244.73c-.546.717-1.377 1.268-2.375 1.268-1.045 0-2.493-.91-2.493-2.728 0-1.558.783-2.37 1.662-2.945zm-.499-10.126c0 1.387-1.116 2.32-2.018 2.942-.594-.693-1.449-1.579-1.449-2.8 0-1.101.784-1.819 1.758-1.819.973 0 1.71.599 1.71 1.677zm2.945 13.406h3.087l-2.493-3.351c1.353-1.7 1.876-4.215 1.876-5.937h-2.541c0 1.195-.166 2.705-.855 3.804l-2.517-3.422c1.092-.79 2.944-2.156 2.944-4.405 0-1.677-1.092-3.64-4.037-3.64-3.182 0-4.322 2.25-4.322 3.806 0 1.724.879 2.681 1.662 3.712-1.02.527-2.944 1.89-2.944 4.811 0 2.563 1.638 4.86 5.2 4.86 2.02 0 2.85-.742 3.8-1.77zM524.892 1233.381h-3.776v-1.89h10.544v1.89h-3.775v14.629h-2.993zM534.51 1239.869c.071-.525.38-2.394 1.971-2.394 1.496 0 1.829 1.582 1.829 2.394zm6.246 6.417c-.665.263-1.377.503-2.114.503-3.087 0-4.132-3.783-4.132-5.723h6.46v-.43c0-2.61-1.401-4.287-4.394-4.287-3.586 0-4.82 2.3-4.82 5.436 0 4.764 2.66 6.488 5.509 6.488 1.591 0 2.256-.24 3.491-.79zM551.371 1247.578c-1.116.432-1.97.695-3.372.695-3.158 0-5.628-1.845-5.628-6.416 0-3.28 1.496-5.507 4.892-5.507 3.206 0 4.18 1.534 4.18 4.117h-2.921c0-2.009-.19-2.992-1.378-2.992-1.258 0-1.805 1.772-1.805 3.4 0 2.97 1.425 5.914 3.895 5.914.855 0 1.472-.192 2.137-.432zM552.844 1231.49h2.73v7.686h.048c.38-.862 1.33-2.826 3.563-2.826 2.018 0 2.73 1.389 2.73 3.806v7.854h-2.754v-7.11c0-1.413-.119-2.468-1.188-2.468-1.923 0-2.398 3.28-2.398 5.099v4.479h-2.731zM564.718 1236.613h2.755v2.562h.047c.428-.933 1.33-2.825 3.562-2.825 2.019 0 2.708 1.389 2.708 3.806v7.854h-2.731v-7.11c0-1.413-.12-2.468-1.188-2.468-1.947 0-2.398 3.28-2.398 5.099v4.479h-2.755zM578.967 1242.31c0-2.512.166-4.835 2.018-4.835 1.9 0 1.995 2.323 1.995 4.835 0 2.515-.095 4.838-1.995 4.838-1.852 0-2.018-2.323-2.018-4.838zm2.018 5.963c3.064 0 4.987-1.629 4.987-5.963 0-4.331-1.923-5.96-4.987-5.96-3.063 0-5.01 1.629-5.01 5.96 0 4.334 1.947 5.963 5.01 5.963zM588.11 1231.49h2.754v16.52h-2.754zM595.994 1242.31c0-2.512.166-4.835 2.019-4.835 1.9 0 2.018 2.323 2.018 4.835 0 2.515-.119 4.838-2.018 4.838-1.853 0-2.019-2.323-2.019-4.838zm2.019 5.963c3.087 0 4.987-1.629 4.987-5.963 0-4.331-1.9-5.96-4.987-5.96-3.064 0-4.987 1.629-4.987 5.96 0 4.334 1.923 5.963 4.987 5.963zM607.464 1242.286c0-1.674.19-4.141 1.805-4.141s1.686 2.491 1.686 4.215c0 1.484 0 3.997-1.662 3.997-1.639 0-1.829-2.489-1.829-4.07zm6.389-5.673h-2.755v1.845h-.048c-.427-.814-1.163-2.109-2.873-2.109-2.755 0-3.705 2.85-3.705 5.748 0 3.495 1.045 5.913 3.99 5.913 1.71 0 2.208-.912 2.588-1.653h.048v1.7c0 2.107-.238 3.71-2.351 3.71-1.473 0-2.897-1.1-3.467-1.556v2.705c.688.192 1.662.48 3.23.48 4.25 0 5.343-2.18 5.343-5.004zM619.1 1248.176l-4.036-11.563h2.802l2.47 7.782h.047l2.518-7.782h2.232l-5.415 16.52h-2.232zM632.875 1231.49h2.992v16.52h-2.992zM638.74 1236.613h2.755v2.562h.048c.427-.933 1.33-2.825 3.562-2.825 2.019 0 2.731 1.389 2.731 3.806v7.854h-2.755v-7.11c0-1.413-.118-2.468-1.187-2.468-1.924 0-2.399 3.28-2.399 5.099v4.479h-2.754zM656.267 1239.152c-.641-.575-1.544-1.318-2.636-1.318-.57 0-1.354.29-1.354 1.078 0 1.102 2.019 1.914 3.087 2.873 1.164 1.029 1.615 1.746 1.615 3.064 0 2.489-1.947 3.424-4.18 3.424-1.306 0-2.35-.31-2.826-.456v-2.586c.5.456 1.592 1.39 2.874 1.39.997 0 1.615-.456 1.615-1.15 0-1.15-2.019-1.988-3.111-2.945-1.188-1.052-1.473-1.7-1.473-2.8 0-1.724 1.117-3.376 3.871-3.376 1.164 0 2.138.337 2.518.432zM665.054 1248.129c-.642.07-1.283.144-1.924.144-2.137 0-3.467-.574-3.467-3.16v-7.11h-2.019v-1.39h2.019v-2.681l2.754-1.746v4.427h3.064v1.39h-3.064v6.75c0 1.509.428 1.868 1.425 1.868.38 0 .832-.025 1.212-.17zM666.858 1234.124h2.755v-2.633h-2.755zm0 13.886h2.755v-11.397h-2.755zM678.732 1248.129c-.665.07-1.306.144-1.923.144-2.138 0-3.467-.574-3.467-3.16v-7.11h-2.019v-1.39h2.019v-2.681l2.754-1.746v4.427h3.04v1.39h-3.04v6.75c0 1.509.404 1.868 1.402 1.868.403 0 .854-.025 1.234-.17zM686.736 1245.447h-.048c-.404.934-1.259 2.826-3.325 2.826-2.09 0-2.944-1.389-2.944-3.806v-7.854h2.754v7.11c0 1.413.357 2.468 1.378 2.468 1.78 0 2.185-3.28 2.185-5.099v-4.479h2.754v11.397h-2.754zM698.728 1248.129c-.665.07-1.306.144-1.947.144-2.137 0-3.444-.574-3.444-3.16v-7.11h-2.018v-1.39h2.018v-2.681l2.755-1.746v4.427h3.04v1.39h-3.04v6.75c0 1.509.404 1.868 1.401 1.868.38 0 .832-.025 1.235-.17zM702.576 1239.869c.047-.525.38-2.394 1.97-2.394 1.497 0 1.805 1.582 1.805 2.394zm6.245 6.417c-.665.263-1.4.503-2.113.503-3.088 0-4.132-3.783-4.132-5.723h6.459v-.43c0-2.61-1.401-4.287-4.393-4.287-3.586 0-4.821 2.3-4.821 5.436 0 4.764 2.66 6.488 5.486 6.488 1.59 0 2.28-.24 3.514-.79z" style="fill:#005d80;stroke:none;stroke-width:2.37481" transform="translate(195.791 -1103.396)"/></svg>