<svg xmlns="http://www.w3.org/2000/svg" xml:space="preserve" width="1105.5801" height="200" viewBox="0 0 1105.5801 200"><path d="M154.603 463.781h13.21v31.552h-13.21z" style="fill:#30a8e1;fill-opacity:1;fill-rule:nonzero;stroke:none" transform="matrix(2.75753 0 0 -2.75753 -253.092 1379.585)"/><path d="M91.782 436.202h13.21v51.218h-13.21zM133.663 443.026h13.21v38.279h-13.21z" style="fill:#046eb8;fill-opacity:1;fill-rule:nonzero;stroke:none" transform="matrix(2.75753 0 0 -2.75753 -253.092 1379.585)"/><path d="M112.722 462.018h13.21v38.279h-13.21z" style="fill:#30a8e1;fill-opacity:1;fill-rule:nonzero;stroke:none" transform="matrix(2.75753 0 0 -2.75753 -253.092 1379.585)"/><path d="M112.722 430.175h13.21v24.8h-13.21z" style="fill:#898989;fill-opacity:1;fill-rule:nonzero;stroke:none" transform="matrix(2.75753 0 0 -2.75753 -253.092 1379.585)"/><path d="M199.434 430.138h-1.318l-3.965 4.409h-.026v-4.41h-.988v9.009h.988v-4.03h.026l3.573 4.03h1.178l-3.776-4.22zM205.857 433.267c0 .312-.036.621-.108.925a2.439 2.439 0 0 1-.348.811 1.846 1.846 0 0 1-.62.57c-.254.143-.563.215-.926.215-.346 0-.642-.069-.887-.209a1.857 1.857 0 0 1-.608-.551 2.439 2.439 0 0 1-.348-.811 4.167 4.167 0 0 1-.108-.963c0-.329.036-.642.108-.937.072-.296.192-.558.361-.786.16-.228.367-.41.621-.545.253-.135.557-.202.912-.202.346 0 .641.067.887.202.245.135.447.322.608.558.152.228.266.492.342.792.076.3.114.61.114.931m1.064 0c0-.963-.268-1.74-.804-2.331-.537-.591-1.278-.887-2.224-.887-.887 0-1.613.279-2.179.836-.566.558-.849 1.347-.849 2.369 0 .439.061.855.184 1.248.122.393.306.742.551 1.045.254.296.568.533.944.71.375.177.817.266 1.324.266.946 0 1.691-.3 2.236-.9.545-.599.817-1.385.817-2.356M213.04 435.56c-.27 0-.542-.032-.816-.095a2.806 2.806 0 0 1-.767-.298 2.255 2.255 0 0 1-.621-.525 1.946 1.946 0 0 1-.38-.767 3.93 3.93 0 0 1-.095-.538 5.506 5.506 0 0 1-.031-.602v-2.572h-.926v6.208h.925v-1.381h.025c.245.498.59.876 1.033 1.134.443.257.994.386 1.653.386zM219.249 433.938c0 .186-.023.386-.07.602a1.833 1.833 0 0 1-.247.602c-.11.185-.262.34-.456.462-.194.123-.435.184-.722.184-.541 0-.995-.163-1.362-.488-.368-.325-.581-.779-.64-1.362zm1.026-.748h-4.51a3.16 3.16 0 0 1 .317-1.146c.185-.393.519-.72 1-.982.102-.067.264-.126.488-.177.224-.05.479-.08.767-.089.278 0 .572.03.88.09.308.058.602.172.88.341v-.747a3.733 3.733 0 0 0-1.184-.387 4.882 4.882 0 0 0-1.235-.032 4.16 4.16 0 0 0-1.128.273 2.393 2.393 0 0 0-.848.551 3.27 3.27 0 0 0-.71 1.057c-.186.427-.28.923-.28 1.49 0 .911.269 1.657.806 2.235.536.58 1.294.868 2.274.868.414 0 .777-.08 1.089-.24a2.33 2.33 0 0 0 .773-.62 2.76 2.76 0 0 0 .463-.857c.105-.316.158-.635.158-.956zM226.508 432.52v.645c-.22.008-.483.011-.792.006a4.528 4.528 0 0 1-.918-.107 4.804 4.804 0 0 1-.45-.159 1.905 1.905 0 0 1-.437-.247 1.268 1.268 0 0 1-.33-.36.893.893 0 0 1-.126-.476c0-.405.13-.678.393-.817a1.78 1.78 0 0 1 .848-.209c.127 0 .273.025.437.076.165.051.332.123.5.215.16.093.309.203.444.33.136.126.237.27.305.431.05.101.084.207.1.317.018.11.026.228.026.354m.963-2.318h-.963v.785h-.025a1.244 1.244 0 0 0-.253-.259 2.563 2.563 0 0 0-.494-.31 3.463 3.463 0 0 0-.704-.254 3.497 3.497 0 0 0-.868-.102c-.22 0-.432.036-.64.108a1.746 1.746 0 0 0-.563.323 1.64 1.64 0 0 0-.406.52 1.516 1.516 0 0 0-.151.684c0 .456.143.855.43 1.197.287.342.633.576 1.039.703.253.076.515.131.785.165a6.4 6.4 0 0 0 .773.05c.237.01.45.011.64.007a17.4 17.4 0 0 1 .437-.007v.621c0 .102-.017.233-.05.393-.034.16-.102.312-.203.456a1.295 1.295 0 0 1-.437.374c-.19.105-.442.158-.754.158-.406 0-.735-.093-.988-.279a.868.868 0 0 1-.381-.735h-1.114c0 .212.052.421.158.628.105.207.264.394.475.563.21.17.47.306.779.412a3.29 3.29 0 0 0 1.07.16c.812 0 1.416-.202 1.813-.603.397-.4.595-.894.595-1.476zM236.656 430.15h-1.052v8.995h1.052zM244.828 430.176h-.887v3.446c0 .22-.01.446-.025.678a1.969 1.969 0 0 1-.152.64 1.06 1.06 0 0 1-.38.48c-.178.128-.427.204-.748.229-.431.026-.822-.152-1.172-.532s-.602-.866-.754-1.457a7.152 7.152 0 0 1-.076-.488 3.817 3.817 0 0 1-.025-.437v-2.56h-.887v6.209h.887v-1.432h.025c.034.11.102.254.203.43.1.178.237.352.406.52.177.17.394.317.652.444.258.126.572.19.944.19.557 0 1.028-.182 1.412-.545.385-.363.577-.823.577-1.381zM250.934 435.56h-1.825v-3.345c0-.194.01-.378.026-.551.017-.173.063-.327.14-.462a.72.72 0 0 1 .316-.317c.143-.076.338-.114.583-.114.143 0 .28.006.405.019.127.013.232.032.317.057v-.786a3.484 3.484 0 0 0-.462-.043 12.943 12.943 0 0 0-.437-.007c-.626 0-1.09.129-1.395.386-.303.258-.456.653-.456 1.185v3.978h-1.102v.748h1.102v1.52l.963.583v-2.103h1.825zM257.383 433.938c0 .186-.023.386-.07.602a1.833 1.833 0 0 1-.247.602c-.11.185-.262.34-.456.462-.194.123-.435.184-.722.184-.541 0-.995-.163-1.362-.488-.368-.325-.581-.779-.64-1.362zm1.026-.748h-4.51a3.16 3.16 0 0 1 .317-1.146c.185-.393.519-.72 1-.982.102-.067.264-.126.488-.177.224-.05.479-.08.767-.089.278 0 .572.03.88.09.308.058.602.172.88.341v-.747a3.733 3.733 0 0 0-1.184-.387 4.882 4.882 0 0 0-1.235-.032 4.16 4.16 0 0 0-1.128.273 2.393 2.393 0 0 0-.848.551 3.27 3.27 0 0 0-.71 1.057c-.186.427-.28.923-.28 1.49 0 .911.269 1.657.806 2.235.536.58 1.294.868 2.274.868.414 0 .777-.08 1.089-.24a2.33 2.33 0 0 0 .773-.62 2.76 2.76 0 0 0 .463-.857c.105-.316.158-.635.158-.956zM261.906 430.15h-.963v8.995h.963zM265.833 430.15h-.963v8.995h.963zM272.902 433.938c0 .186-.023.386-.07.602a1.833 1.833 0 0 1-.247.602c-.11.185-.262.34-.456.462-.194.123-.435.184-.722.184-.54 0-.995-.163-1.362-.488-.368-.325-.58-.779-.64-1.362zm1.026-.748h-4.51a3.16 3.16 0 0 1 .317-1.146c.185-.393.52-.72 1-.982.102-.067.264-.126.488-.177.224-.05.48-.08.767-.089.278 0 .572.03.88.09.308.058.602.172.881.341v-.747a3.733 3.733 0 0 0-1.185-.387 4.882 4.882 0 0 0-1.235-.032 4.16 4.16 0 0 0-1.128.273 2.393 2.393 0 0 0-.848.551 3.27 3.27 0 0 0-.71 1.057c-.186.427-.279.923-.279 1.49 0 .911.268 1.657.805 2.235.536.58 1.294.868 2.274.868.414 0 .777-.08 1.09-.24a2.33 2.33 0 0 0 .772-.62 2.76 2.76 0 0 0 .463-.857c.105-.316.158-.635.158-.956zM281.606 434.458h-1.051c0 .338-.121.644-.362.918-.24.275-.614.412-1.121.412-.583 0-1.064-.201-1.444-.601-.38-.402-.57-.932-.57-1.59 0-.203.014-.421.044-.653a2.574 2.574 0 0 1 .589-1.337c.178-.211.414-.397.71-.557a1.84 1.84 0 0 1 .488-.165c.223-.051.479-.08.766-.09.279 0 .572.03.881.09.308.059.601.173.88.342v-.747a3.758 3.758 0 0 0-1.185-.387 4.879 4.879 0 0 0-1.235-.031c-.405.05-.783.146-1.134.285-.35.139-.635.323-.855.55a3.409 3.409 0 0 0-.696 1.052c-.186.423-.279.917-.279 1.483 0 .447.067.86.202 1.24s.334.71.596.99c.261.27.585.483.969.639a3.44 3.44 0 0 0 1.311.235c.338 0 .657-.047.957-.14.3-.093.563-.228.791-.405.228-.178.41-.395.545-.653.136-.257.203-.55.203-.88M287.105 435.56h-1.825v-3.345c0-.194.009-.378.026-.551.017-.173.063-.327.139-.462a.72.72 0 0 1 .317-.317c.143-.076.338-.114.583-.114.143 0 .279.006.405.019.127.013.232.032.317.057v-.786a3.484 3.484 0 0 0-.462-.043 12.943 12.943 0 0 0-.437-.007c-.626 0-1.09.129-1.395.386-.303.258-.456.653-.456 1.185v3.978h-1.102v.748h1.102v1.52l.963.583v-2.103h1.825zM294.655 430.201h-.874v1.457h-.025c-.136-.439-.402-.815-.799-1.128-.397-.312-.95-.469-1.659-.469-.279 0-.537.049-.773.146a1.742 1.742 0 0 0-.608.412c-.169.169-.303.37-.399.602a1.933 1.933 0 0 0-.146.753v4.435h.925v-3.953c0-.186.02-.374.057-.564a1.42 1.42 0 0 1 .21-.513c.1-.152.24-.274.417-.367.177-.093.405-.14.684-.14.498 0 .923.19 1.273.571.351.38.59.836.716 1.368.025.16.046.321.064.481.016.16.03.321.038.482v2.635h.9zM301.32 432.52v.645c-.22.008-.484.011-.793.006a4.528 4.528 0 0 1-.918-.107 4.804 4.804 0 0 1-.45-.159 1.905 1.905 0 0 1-.437-.247 1.268 1.268 0 0 1-.329-.36.893.893 0 0 1-.127-.476c0-.405.131-.678.393-.817a1.78 1.78 0 0 1 .848-.209c.127 0 .273.025.438.076.164.051.331.123.5.215.16.093.31.203.443.33.135.126.237.27.304.431.051.101.085.207.102.317.016.11.025.228.025.354m.963-2.318h-.963v.785h-.025a1.218 1.218 0 0 0-.253-.259 2.563 2.563 0 0 0-.494-.31 3.463 3.463 0 0 0-.704-.254 3.49 3.49 0 0 0-.868-.102c-.219 0-.432.036-.639.108a1.746 1.746 0 0 0-.564.323 1.64 1.64 0 0 0-.406.52 1.516 1.516 0 0 0-.15.684c0 .456.142.855.43 1.197.286.342.632.576 1.038.703.253.076.515.131.785.165a6.4 6.4 0 0 0 .773.05c.236.01.45.011.64.007.19-.005.335-.007.437-.007v.621c0 .102-.017.233-.05.393a1.204 1.204 0 0 1-.64.83c-.19.105-.442.158-.754.158-.406 0-.735-.093-.988-.279a.868.868 0 0 1-.38-.735h-1.115c0 .212.052.421.158.628.105.207.264.394.475.563.211.17.471.306.78.412.308.106.664.16 1.07.16.811 0 1.415-.202 1.811-.603.398-.4.596-.894.596-1.476zM306.058 430.15h-.963v8.995h.963zM318.55 433.242c0 .338-.036.663-.107.976a2.88 2.88 0 0 1-.311.81 1.783 1.783 0 0 1-.526.564 1.27 1.27 0 0 1-.73.209c-.48 0-.89-.224-1.227-.671-.338-.448-.507-1.04-.507-1.774 0-.253.029-.528.089-.823.058-.296.16-.575.303-.836.135-.254.315-.465.539-.634.224-.17.5-.254.83-.254.279 0 .52.068.728.203.207.135.378.313.514.532.134.228.236.488.303.78.068.29.102.597.102.918m1.014-.013c0-.405-.058-.8-.171-1.184a3.227 3.227 0 0 0-.501-1.02 2.632 2.632 0 0 0-.83-.71 2.334 2.334 0 0 0-1.134-.266c-.507 0-.905.123-1.197.368-.291.244-.5.54-.627.887h-.026v-3.522h-.924v8.627h.924v-1.178h.026c.05.152.127.306.228.463.1.156.232.297.393.424.15.126.33.23.538.31.207.08.45.12.728.12a2.307 2.307 0 0 0 1.812-.861c.236-.278.423-.625.558-1.04.134-.413.203-.885.203-1.418M325.606 435.56c-.271 0-.542-.032-.816-.095a2.781 2.781 0 0 1-.767-.298 2.24 2.24 0 0 1-.621-.525 1.947 1.947 0 0 1-.38-.767 3.932 3.932 0 0 1-.095-.538 5.5 5.5 0 0 1-.032-.602v-2.572h-.925v6.208h.925v-1.381h.025c.246.498.589.876 1.033 1.134.443.257.995.386 1.653.386zM332.231 433.267c0 .312-.035.621-.107.925a2.42 2.42 0 0 1-.349.811c-.16.236-.367.426-.62.57-.254.143-.563.215-.925.215-.347 0-.643-.069-.887-.209a1.847 1.847 0 0 1-.608-.551 2.42 2.42 0 0 1-.349-.811 4.168 4.168 0 0 1-.107-.963c0-.329.035-.642.107-.937.072-.296.193-.558.362-.786.16-.228.367-.41.62-.545.254-.135.557-.202.913-.202.346 0 .641.067.887.202.244.135.447.322.607.558.152.228.267.492.343.792.076.3.113.61.113.931m1.064 0c0-.963-.267-1.74-.804-2.331-.536-.591-1.278-.887-2.223-.887-.888 0-1.614.279-2.18.836-.565.558-.848 1.347-.848 2.369 0 .439.061.855.183 1.248s.306.742.551 1.045c.254.296.57.533.944.71.376.177.818.266 1.325.266.945 0 1.691-.3 2.235-.9.545-.599.817-1.385.817-2.356M340.15 433.242c0 .338-.036.663-.107.976a2.88 2.88 0 0 1-.31.81 1.783 1.783 0 0 1-.527.564 1.27 1.27 0 0 1-.729.209c-.48 0-.89-.224-1.228-.671-.338-.448-.507-1.04-.507-1.774 0-.253.03-.528.09-.823.057-.296.16-.575.302-.836.135-.254.315-.465.54-.634.223-.17.5-.254.83-.254.278 0 .52.068.727.203.207.135.378.313.514.532.134.228.236.488.303.78.068.29.102.597.102.918m1.014-.013c0-.405-.058-.8-.17-1.184a3.227 3.227 0 0 0-.502-1.02 2.632 2.632 0 0 0-.83-.71 2.334 2.334 0 0 0-1.134-.266c-.507 0-.905.123-1.197.368-.29.244-.5.54-.627.887h-.026v-3.522h-.924v8.627h.924v-1.178h.026c.05.152.127.306.228.463.101.156.232.297.393.424.151.126.331.23.538.31.207.08.45.12.728.12a2.307 2.307 0 0 0 1.812-.861c.236-.278.423-.625.558-1.04.134-.413.203-.885.203-1.418M347.714 433.938c0 .186-.023.386-.07.602a1.855 1.855 0 0 1-.246.602 1.388 1.388 0 0 1-.456.462c-.195.123-.436.184-.723.184-.54 0-.994-.163-1.361-.488-.368-.325-.582-.779-.64-1.362zm1.026-.748h-4.51c.026-.37.13-.753.317-1.146.186-.393.52-.72 1-.982.103-.067.265-.126.488-.177.224-.05.48-.08.767-.089.279 0 .572.03.88.09.309.058.602.172.882.341v-.747a3.733 3.733 0 0 0-1.185-.387 4.883 4.883 0 0 0-1.235-.032 4.151 4.151 0 0 0-1.128.273 2.397 2.397 0 0 0-.85.551 3.286 3.286 0 0 0-.71 1.057c-.184.427-.277.923-.277 1.49 0 .911.267 1.657.805 2.235.536.58 1.293.868 2.273.868.414 0 .777-.08 1.09-.24.312-.16.57-.368.772-.62a2.74 2.74 0 0 0 .463-.857c.106-.316.158-.635.158-.956zM354.871 435.56c-.27 0-.542-.032-.816-.095a2.781 2.781 0 0 1-.767-.298 2.24 2.24 0 0 1-.62-.525 1.947 1.947 0 0 1-.38-.767 3.932 3.932 0 0 1-.096-.538 5.5 5.5 0 0 1-.032-.602v-2.572h-.925v6.208h.925v-1.381h.025c.246.498.59.876 1.033 1.134.443.257.995.386 1.653.386zM360.142 435.56h-1.824v-3.345c0-.194.009-.378.025-.551.017-.173.064-.327.14-.462a.717.717 0 0 1 .316-.317c.144-.076.338-.114.583-.114.144 0 .279.006.406.019.126.013.232.032.316.057v-.786a3.469 3.469 0 0 0-.462-.043 12.943 12.943 0 0 0-.437-.007c-.625 0-1.09.129-1.394.386-.304.258-.456.653-.456 1.185v3.978h-1.103v.748h1.103v1.52l.963.583v-2.103h1.824zM367.352 436.396l-3.193-8.628h-.963l.926 2.508-2.573 6.12h.95l2.053-4.827h.026l1.824 4.827zM380.464 436.586c0-.515-.1-.946-.298-1.292a2.468 2.468 0 0 0-.766-.836 3.23 3.23 0 0 0-1.052-.437 5.156 5.156 0 0 0-1.153-.134h-.811v.887h.799c.269 0 .538.028.803.083.267.055.5.15.704.285.212.143.382.331.513.564.13.232.197.525.197.88 0 .312-.07.577-.21.792-.14.215-.314.391-.525.525-.22.136-.465.235-.735.298a3.514 3.514 0 0 1-.811.095h-1.304v-8.146h-1.001v8.982h2.318c.396 0 .794-.04 1.19-.12.398-.08.752-.218 1.065-.41a2.28 2.28 0 0 0 .779-.787c.198-.33.298-.739.298-1.229M386.354 435.56c-.27 0-.542-.032-.816-.095a2.781 2.781 0 0 1-.767-.298 2.24 2.24 0 0 1-.62-.525 1.947 1.947 0 0 1-.38-.767 3.932 3.932 0 0 1-.095-.538 5.5 5.5 0 0 1-.032-.602v-2.572h-.925v6.208h.925v-1.381h.025c.246.498.589.876 1.033 1.134.443.257.995.386 1.653.386zM392.98 433.267c0 .312-.035.621-.107.925a2.42 2.42 0 0 1-.349.811c-.16.236-.367.426-.62.57-.254.143-.563.215-.925.215-.347 0-.643-.069-.887-.209a1.847 1.847 0 0 1-.608-.551 2.42 2.42 0 0 1-.349-.811 4.168 4.168 0 0 1-.107-.963c0-.329.035-.642.107-.937.072-.296.193-.558.362-.786.16-.228.367-.41.62-.545.254-.135.557-.202.913-.202.347 0 .642.067.888.202.244.135.447.322.607.558.152.228.267.492.343.792.076.3.113.61.113.931m1.064 0c0-.963-.267-1.74-.804-2.331-.536-.591-1.278-.887-2.223-.887-.888 0-1.614.279-2.18.836-.565.558-.848 1.347-.848 2.369 0 .439.06.855.183 1.248.122.393.306.742.55 1.045.255.296.57.533.945.71.376.177.818.266 1.325.266.945 0 1.69-.3 2.235-.9.545-.599.817-1.385.817-2.356M399.733 435.56h-1.824v-3.345c0-.194.01-.378.025-.551.017-.173.064-.327.14-.462a.717.717 0 0 1 .316-.317c.144-.076.338-.114.583-.114.144 0 .28.006.406.019s.232.032.316.057v-.786a3.469 3.469 0 0 0-.462-.043 12.943 12.943 0 0 0-.437-.007c-.625 0-1.089.129-1.394.386-.304.258-.456.653-.456 1.185v3.978h-1.103v.748h1.103v1.52l.963.583v-2.103h1.824zM406.182 433.938c0 .186-.023.386-.07.602a1.855 1.855 0 0 1-.246.602 1.388 1.388 0 0 1-.456.462c-.195.123-.436.184-.723.184-.54 0-.994-.163-1.361-.488-.368-.325-.582-.779-.64-1.362zm1.026-.748h-4.51c.026-.37.13-.753.317-1.146.186-.393.52-.72 1-.982.103-.067.265-.126.488-.177.224-.05.48-.08.767-.089.279 0 .572.03.88.09.309.058.602.172.882.341v-.747a3.733 3.733 0 0 0-1.185-.387 4.883 4.883 0 0 0-1.235-.032 4.151 4.151 0 0 0-1.128.273 2.397 2.397 0 0 0-.85.551 3.286 3.286 0 0 0-.71 1.057c-.184.427-.277.923-.277 1.49 0 .911.267 1.657.805 2.235.536.58 1.293.868 2.273.868.414 0 .777-.08 1.09-.24.312-.16.57-.368.772-.62a2.74 2.74 0 0 0 .463-.857c.106-.316.158-.635.158-.956zM414.886 434.458h-1.052c0 .338-.12.644-.36.918-.241.275-.615.412-1.122.412-.582 0-1.064-.201-1.444-.601-.38-.402-.57-.932-.57-1.59 0-.203.015-.421.044-.653.029-.233.09-.458.184-.678.092-.228.228-.448.405-.66.178-.21.414-.396.71-.556.1-.06.264-.114.487-.165.224-.051.48-.08.767-.09.279 0 .572.03.88.09.309.059.602.173.882.342v-.747a3.766 3.766 0 0 0-1.185-.387 4.882 4.882 0 0 0-1.235-.031c-.407.05-.785.146-1.134.285a2.393 2.393 0 0 0-.856.55 3.41 3.41 0 0 0-.697 1.052c-.185.423-.278.917-.278 1.483 0 .447.067.86.202 1.24.136.38.334.71.596.99.26.27.585.483.969.639.384.157.822.235 1.31.235.339 0 .658-.047.958-.14.3-.093.563-.228.792-.405.227-.178.409-.395.545-.653.135-.257.202-.55.202-.88M420.384 435.56h-1.824v-3.345c0-.194.009-.378.025-.551.017-.173.064-.327.14-.462a.717.717 0 0 1 .316-.317c.144-.076.338-.114.583-.114.144 0 .279.006.406.019.126.013.232.032.316.057v-.786a3.469 3.469 0 0 0-.462-.043 12.943 12.943 0 0 0-.437-.007c-.625 0-1.09.129-1.394.386-.304.258-.456.653-.456 1.185v3.978h-1.103v.748h1.103v1.52l.963.583v-2.103h1.824zM423.716 430.112h-1.014v6.208h1.014zm.089 7.779h-1.217v1.216h1.217zM431.178 433.267c0 .312-.035.621-.107.925a2.42 2.42 0 0 1-.35.811c-.16.236-.366.426-.62.57-.253.143-.562.215-.924.215-.347 0-.643-.069-.887-.209a1.847 1.847 0 0 1-.608-.551 2.42 2.42 0 0 1-.35-.811 4.168 4.168 0 0 1-.106-.963c0-.329.035-.642.107-.937.072-.296.193-.558.362-.786.16-.228.367-.41.62-.545.254-.135.557-.202.913-.202.346 0 .64.067.887.202.244.135.447.322.607.558.152.228.267.492.343.792.076.3.113.61.113.931m1.064 0c0-.963-.267-1.74-.804-2.331-.536-.591-1.278-.887-2.223-.887-.888 0-1.614.279-2.18.836-.565.558-.848 1.347-.848 2.369 0 .439.06.855.183 1.248.122.393.306.742.55 1.045.255.296.57.533.945.71.376.177.818.266 1.325.266.945 0 1.69-.3 2.235-.9.545-.599.817-1.385.817-2.356M439.806 430.176h-.887v3.446c0 .22-.008.446-.025.678a1.968 1.968 0 0 1-.151.64 1.068 1.068 0 0 1-.381.48c-.177.128-.426.204-.747.229-.431.026-.822-.152-1.172-.532-.351-.38-.602-.866-.754-1.457a6.091 6.091 0 0 1-.076-.488 3.82 3.82 0 0 1-.026-.437v-2.56h-.886v6.209h.886v-1.432h.026c.034.11.1.254.203.43.1.178.236.352.405.52.178.17.395.317.652.444.258.126.573.19.945.19.556 0 1.027-.182 1.412-.545.385-.363.576-.823.576-1.381zM452.26 433.786l-1.457 4.308h-.025l-1.445-4.308zm2.356-3.624h-1.127l-.938 2.775h-3.483l-.99-2.775h-1l3.155 9.008h1.204zM460.785 433.47c0 .287-.04.574-.12.86-.08.288-.192.542-.336.762a1.918 1.918 0 0 1-.544.55 1.287 1.287 0 0 1-.723.21c-.312 0-.625-.127-.937-.38-.313-.253-.52-.647-.62-1.178a1.928 1.928 0 0 1-.039-.266 4.032 4.032 0 0 1-.013-.317 4.4 4.4 0 0 1-.013-.317v-.254c0-.236.028-.481.083-.734.055-.253.146-.481.273-.685a1.53 1.53 0 0 1 .5-.512c.207-.132.463-.197.766-.197.498 0 .911.224 1.236.672.325.447.487 1.043.487 1.786m1.026-2.927c0-.988-.265-1.698-.797-2.128-.533-.431-1.285-.646-2.255-.646a7.37 7.37 0 0 0-1.052.082c-.38.055-.68.129-.9.222v.963c.237-.135.547-.243.931-.323.385-.08.767-.12 1.147-.12.625 0 1.088.134 1.387.405.3.27.484.62.551 1.05.01.06.015.166.02.318.004.152.005.312.005.48-.007.162-.012.369-.012.622h-.026a1.655 1.655 0 0 0-.494-.709 2.209 2.209 0 0 0-.576-.336c-.232-.097-.517-.146-.855-.146-.726 0-1.33.249-1.812.748-.48.498-.722 1.22-.722 2.166 0 .254.011.503.032.748s.052.464.095.658c.05.254.146.5.285.742.14.24.315.449.526.627.211.186.458.334.741.443.282.11.598.165.943.165.524 0 .932-.13 1.223-.386.292-.258.496-.526.614-.805h.026v1.039h.975zM468.831 433.938c0 .186-.023.386-.069.602a1.855 1.855 0 0 1-.247.602 1.388 1.388 0 0 1-.456.462c-.195.123-.436.184-.723.184-.54 0-.994-.163-1.36-.488-.369-.325-.583-.779-.64-1.362zm1.026-.748h-4.509c.025-.37.13-.753.316-1.146.186-.393.52-.72 1.001-.982.102-.067.264-.126.487-.177.224-.05.48-.08.767-.089.28 0 .572.03.881.09.308.058.601.172.881.341v-.747a3.733 3.733 0 0 0-1.185-.387 4.883 4.883 0 0 0-1.235-.032 4.151 4.151 0 0 0-1.128.273 2.397 2.397 0 0 0-.849.551 3.286 3.286 0 0 0-.71 1.057c-.185.427-.278.923-.278 1.49 0 .911.267 1.657.805 2.235.536.58 1.293.868 2.273.868.414 0 .777-.08 1.09-.24.312-.16.57-.368.772-.62a2.74 2.74 0 0 0 .463-.857c.106-.316.158-.635.158-.956zM477.433 430.176h-.887v3.446c0 .22-.008.446-.025.678a1.968 1.968 0 0 1-.151.64 1.068 1.068 0 0 1-.381.48c-.177.128-.426.204-.747.229-.431.026-.822-.152-1.172-.532-.351-.38-.602-.866-.754-1.457a6.091 6.091 0 0 1-.076-.488 3.82 3.82 0 0 1-.026-.437v-2.56h-.886v6.209h.886v-1.432h.026c.034.11.1.254.203.43.1.178.236.352.405.52.178.17.395.317.652.444.258.126.573.19.945.19.556 0 1.027-.182 1.412-.545.385-.363.576-.823.576-1.381zM485.516 434.458h-1.052c0 .338-.12.644-.36.918-.241.275-.615.412-1.122.412-.582 0-1.064-.201-1.444-.601-.38-.402-.57-.932-.57-1.59 0-.203.015-.421.044-.653.029-.233.09-.458.184-.678.092-.228.228-.448.405-.66.178-.21.414-.396.71-.556.1-.06.264-.114.487-.165.224-.051.48-.08.767-.09.279 0 .572.03.88.09.309.059.602.173.882.342v-.747a3.766 3.766 0 0 0-1.185-.387 4.882 4.882 0 0 0-1.235-.031c-.407.05-.785.146-1.134.285a2.393 2.393 0 0 0-.856.55 3.41 3.41 0 0 0-.697 1.052c-.185.423-.278.917-.278 1.483 0 .447.067.86.202 1.24.136.38.334.71.596.99.26.27.585.483.969.639.384.157.822.235 1.31.235.339 0 .658-.047.958-.14.3-.093.563-.228.792-.405.227-.178.409-.395.545-.653.135-.257.202-.55.202-.88M492.713 436.396l-3.193-8.628h-.963l.926 2.508-2.573 6.12h.95l2.053-4.827h.026l1.824 4.827z" style="fill:#595757;fill-opacity:1;fill-rule:nonzero;stroke:none" transform="matrix(2.75753 0 0 -2.75753 -253.092 1379.585)"/><path d="M236.554 457.663h-8.925v-2.217h17.408v-8.236h4.441l.004 10.453H241v5.227h12.312v2.226l-4.925-.009c.32.422.604 1.097.855 2.027.25.93.377 1.794.377 2.597v6.462h-21.547v-2.22l17.1.003v-4.372c0-.823-.039-1.625-.119-2.407-.08-.78-.246-1.478-.496-2.09l-20.317.01v-2.227h12.313zM196.54 462.414c-.685.887-1.028 1.943-1.028 3.168 0 1.224.343 2.281 1.027 3.167.684.887 1.505 1.331 2.462 1.331.98 0 1.806-.444 2.48-1.33.673-.887 1.008-1.944 1.008-3.168 0-1.225-.335-2.28-1.008-3.168-.674-.886-1.5-1.33-2.48-1.33-.957 0-1.778.444-2.462 1.33m8.021-1.52c1.54 1.31 2.308 2.872 2.308 4.688a5.45 5.45 0 0 1-.942 3.088 7.426 7.426 0 0 1-2.445 2.297h2.771l.033-.004h1.78v2.221h-6.84v.86h-.005v2.624h-4.44v-3.484h-6.842v-2.22h1.781l.02.003h2.747a7.553 7.553 0 0 1-2.41-2.297 5.447 5.447 0 0 1-.94-3.088c0-1.816.774-3.379 2.325-4.688 1.55-1.31 3.397-1.964 5.54-1.964 2.166 0 4.02.654 5.56 1.964M285.4 476.352h-4.46v-29.141h4.46zM491.185 476.352h-4.451l.005-17.263h-7.352v-2.027h7.352l-.005-2.883h4.45zM489.865 449.43l-15.85-.002.002 5.702h-4.45l.004-4.91c0-.95.317-1.69.956-2.217.639-.528 1.448-.792 2.429-.792h19.22v2.219z" style="fill:#3f3b3a;fill-opacity:1;fill-rule:nonzero;stroke:none" transform="matrix(2.75753 0 0 -2.75753 -253.092 1379.585)"/><path d="M471.007 456.776h4.447v4.308h8.72v2.128h-20.178v-2.128h7.01zM471.296 473.216c.65.717 1.432 1.077 2.344 1.077.911 0 1.692-.36 2.342-1.077.651-.718.974-1.626.974-2.724 0-1.098-.323-2.007-.974-2.724-.65-.718-1.43-1.077-2.342-1.077-.912 0-1.694.359-2.344 1.077-.649.717-.974 1.626-.974 2.724 0 1.098.325 2.006.974 2.724m2.344-8.71c2.166 0 3.995.58 5.488 1.742 1.494 1.16 2.241 2.576 2.241 4.244 0 1.668-.747 3.089-2.24 4.26-1.494 1.172-3.323 1.758-5.489 1.758-2.144 0-3.968-.586-5.472-1.758-1.505-1.171-2.259-2.592-2.259-4.26 0-1.668.754-3.083 2.26-4.244 1.504-1.162 3.328-1.742 5.472-1.742M440.517 460.847c-.97 1.003-1.454 2.233-1.454 3.69 0 1.458.484 2.687 1.454 3.69.968 1.003 2.126 1.505 3.47 1.505 1.346 0 2.504-.502 3.473-1.505.969-1.003 1.453-2.232 1.453-3.69 0-1.457-.484-2.687-1.453-3.69-.97-1.003-2.127-1.504-3.472-1.504-1.345 0-2.503.5-3.471 1.504m5.694-7.301v3.833c2.053.38 3.757 1.235 5.113 2.565 1.357 1.33 2.035 2.862 2.035 4.593 0 1.267-.371 2.439-1.111 3.517-.741 1.076-1.74 1.942-2.992 2.597l6.943-.002v2.219h-9.954l-.006 3.484h-4.508v-3.484h-9.953v-2.22l6.944.003c-1.255-.655-2.253-1.521-2.993-2.597-.741-1.078-1.112-2.25-1.112-3.517 0-1.731.678-3.262 2.035-4.593 1.356-1.33 3.062-2.185 5.113-2.565v-3.833l-11.97.008v-2.225h28.387v2.225zM403.528 468.211h12.517v-6.366h-12.517zm8.481-14.665v6.081h8.482l.001 16.091h-4.446l-.001-5.29h-12.517l-.006 5.29h-4.44l-.001-13.081c0-.951.302-1.69.906-2.218.604-.528 1.442-.792 2.514-.792h5.061v-6.081l-11.799.002v-2.22h28.045v2.22zM386.527 470.017v6.335h-4.45v-21.54h4.45V467.8l5.131-.005v2.225zM384.052 449.427v.001h-13.188l.012 7.443h-4.448l-.01-6.65c0-.95.319-1.69.958-2.219.637-.527 1.446-.79 2.428-.79h17.818v2.215zM369.667 465.74c.524-1.287 1.704-2.596 3.54-3.927 1.835-1.33 3.493-2.08 4.976-2.25l2.018 1.585c-2.03.359-3.911 1.494-5.643 3.405-1.733 1.91-2.6 4.366-2.6 7.364l-.002 3.96h-4.586l.006-3.96c0-2.977-.868-5.432-2.6-7.364-1.733-1.932-3.614-3.068-5.643-3.405l2.018-1.584c1.505.169 3.175.914 5.01 2.233 1.836 1.32 3.004 2.634 3.506 3.944M354.655 476.352h-4.178l.003-7.919h-2.976l-.004 7.92h-4.167V447.21h4.167l.004 19.005h2.976l-.003-19.005h4.178zM338.133 462.335c-1.277 2.06-1.916 4.493-1.916 7.301v3.548l4.481.01v2.207H327.36v-2.208l4.48-.009v-3.548c0-2.808-.633-5.237-1.898-7.285-1.266-2.048-2.936-3.305-5.01-3.77l2.017-1.456c1.46.21 2.947.997 4.463 2.36 1.517 1.361 2.39 2.644 2.617 3.848.274-1.204 1.163-2.492 2.668-3.864 1.505-1.373 2.975-2.154 4.411-2.344l2.02 1.456c-2.054.444-3.718 1.695-4.995 3.754M319.67 447.21l-.005 10.834h-22.504v-2.217h18.058l.005-8.616zM302.223 466.533c.547-1.288 1.732-2.571 3.556-3.848 1.825-1.278 3.477-2.001 4.96-2.17l2.018 1.584c-2.03.358-3.911 1.483-5.643 3.373-1.733 1.89-2.6 4.302-2.6 7.237v.015h-.008v3.312h-4.575v-3.327c0-2.935-.867-5.352-2.6-7.253-1.732-1.9-3.613-3.02-5.643-3.357l2.019-1.584c1.505.169 3.169.892 4.994 2.17 1.823 1.277 2.997 2.56 3.522 3.848M315.22 460.324h4.444l.003 16.028h-4.457zM200.028 449.428l-.005 7.222h-4.432l-.01-6.43c0-.95.32-1.69.958-2.217.637-.528 1.448-.792 2.428-.792h17.82v2.224zM215.692 467.483l5.13.002v2.222l-5.13-.007v6.652h-4.45v-21.54h4.45zM273.048 462.573c-1.71 2.111-2.566 4.54-2.566 7.285v3.326h6.26v2.217h-17.1v-2.217h6.258v-3.326c0-2.745-.85-5.174-2.548-7.285-1.7-2.112-3.598-3.347-5.695-3.706l2.018-1.647c1.618.147 3.318.902 5.096 2.264 1.778 1.362 2.918 2.677 3.42 3.944.502-1.246 1.642-2.565 3.42-3.959 1.778-1.394 3.476-2.144 5.096-2.249l2.018 1.647c-2.075.36-3.967 1.594-5.677 3.706" style="fill:#3f3b3a;fill-opacity:1;fill-rule:nonzero;stroke:none" transform="matrix(2.75753 0 0 -2.75753 -253.092 1379.585)"/><path d="m204.738 485.19-7.95 6.456c.32.219.648.502 1.01.878 1.03 1.069 6.79 7.13 6.79 7.13.257.465-.34.275-.67.339h-1.07c-.641.03-.785-.288-.785-.288l-6.004-6.231c-.83-.713-2.765-.506-2.765-.506v6.518c-.014.274-.185.439-.46.439h-1.18c-.273 0-.443-.165-.456-.446v-14.32c.016-.265.185-.426.45-.43h1.193c.273.004.442.17.453.45l.024 5.77s1.08 0 1.418.029l7.526-5.892s.24-.331.815-.371l1.042-.005c.394.034.809.08.619.48M217.197 495.956h-.919c-.336 0-.569-.227-.582-.574v-10.067a.552.552 0 0 1 .578-.547h.932c.332.002.564.231.577.576v10.054c-.013.333-.25.558-.585.558M217.197 499.976h-.919c-.336 0-.569-.225-.582-.572v-1.92a.56.56 0 0 1 .578-.547h.934c.336.007.561.23.574.579v1.902c-.013.333-.249.558-.585.558M205.517 492.479c.002.21.129.343.338.356h5.882c.221-.01.35-.146.35-.36v-.926c0-.215-.129-.352-.344-.361h-5.873c-.219.009-.349.142-.353.354v.002zM230.29 495.265c-.81.556-1.59.667-2.59.667h-6.68c-.329-.011-.567-.242-.567-.554-.004-.175-.004-2.728-.004-13.143a.56.56 0 0 1 .58-.55h.932c.336.005.561.232.574.579v11.742l5.067-.002c.656 0 1.32-.078 1.733-.647.37-.512.445-3.582-.02-4.082-.432-.467-1.32-.574-1.953-.616-.138-.01-2.209-.01-3.203-.01a.695.695 0 0 1-.679-.678v-.633a.65.65 0 0 1 .652-.648l3.957.045.158.024c.638.094 1.36.198 1.788.445 1.175.67 1.633 1.822 1.633 4.11 0 2.194-.374 3.264-1.379 3.95M246.253 495.927l-6.833.004c-.434 0-2.596-.124-2.596-2.604v-5.946c-.033-.89.427-2.442 2.38-2.607l7.062-.006c.316.011.527.233.527.551v.828c0 .316-.215.538-.54.551h-6.673c-.556.036-.827.301-.827.808v5.923s-.007.245.138.405c.104.11.262.165.47.165h6.905a.525.525 0 0 1 .527.551v.825c0 .321-.215.541-.54.552M271.444 495.927l-6.833.004c-.434 0-2.596-.124-2.596-2.604v-7.999a.524.524 0 0 1 .55-.527h.825c.316 0 .536.216.55.536v.005l.004 8.087s-.007.247.138.405c.104.11.262.165.471.165h6.904a.526.526 0 0 1 .528.551v.825c0 .321-.216.541-.54.552M281.711 490.758H277.555c-.32-.013-.536-.234-.536-.55v-.825c0-.315.211-.536.532-.55h4.16a3.555 3.555 0 0 1 3.55 3.55 3.553 3.553 0 0 1-3.55 3.549h-5.347c-.434 0-2.596-.125-2.596-2.605v-5.946c-.033-.89.427-2.442 2.38-2.606l7.062-.007c.316.01.527.233.527.552v.827c0 .316-.215.538-.54.552h-6.673c-.556.035-.828.3-.828.807v5.923s-.006.245.138.405c.105.109.263.165.472.165l5.405.009c.896 0 1.626-.73 1.626-1.624 0-.896-.73-1.626-1.626-1.626M251.787 489.942h4.156c.32.013.536.234.536.549v.826c0 .315-.21.536-.532.549h-4.16a3.555 3.555 0 0 1-3.55-3.55 3.553 3.553 0 0 1 3.55-3.548h5.347c.434 0 2.596.125 2.596 2.605v5.945c.033.89-.427 2.443-2.38 2.607l-7.062.007c-.316-.011-.527-.233-.527-.552v-.827c0-.316.215-.538.54-.552h6.673c.556-.035.828-.3.828-.807v-5.924s.006-.245-.138-.405c-.105-.109-.263-.165-.472-.165l-5.405-.009c-.896 0-1.626.73-1.626 1.624 0 .896.73 1.626 1.626 1.626" style="fill:#046eb8;fill-opacity:1;fill-rule:nonzero;stroke:none" transform="matrix(2.75753 0 0 -2.75753 -253.092 1379.585)"/></svg>