<svg xmlns="http://www.w3.org/2000/svg" xml:space="preserve" width="949.43213" height="200" viewBox="0 0 949.43211 200"><path d="M0 0c0-1.611.892-2.839 3.103-2.839h12.266v4.161H5.578c-.321 0-.482.157-.482.418v3.466h9.259v4.161H5.096v3.357h10.273v4.161H0Z" style="fill:#81827e;fill-opacity:1;fill-rule:nonzero;stroke:none" transform="matrix(6.75968 0 0 -6.75968 129.44 180.805)"/><path d="m0 0 8.113 9.596H1.922l-5.888-6.965v6.965h-5.096V-8.343c0-1.013.56-1.785 1.951-1.785h3.145v6.669a11.343 11.343 0 0 0 7.094-6.669h5.118A16.282 16.282 0 0 1 0 0" style="fill:#81827e;fill-opacity:1;fill-rule:nonzero;stroke:none" transform="matrix(6.75968 0 0 -6.75968 61.256 131.534)"/><path d="M0 0v-17.94c0-1.012.561-1.785 1.951-1.785h3.145V0Z" style="fill:#81827e;fill-opacity:1;fill-rule:nonzero;stroke:none" transform="matrix(6.75968 0 0 -6.75968 258.88 66.665)"/><path d="M0 0a3.945 3.945 0 0 0-5.489-3.631v-4.106A7.89 7.89 0 0 1 3.945 0c0 .682-.095 1.341-.258 1.973H-.532A3.93 3.93 0 0 0 0 0" style="fill:#00b48d;fill-opacity:1;fill-rule:nonzero;stroke:none" transform="matrix(6.75968 0 0 -6.75968 393.332 53.334)"/><path d="M0 0a3.945 3.945 0 0 0 5.49 3.631v4.106A7.89 7.89 0 0 1-3.945 0c0-.682.095-1.341.258-1.973H.532A3.93 3.93 0 0 0 0 0" style="fill:#00a4e0;fill-opacity:1;fill-rule:nonzero;stroke:none" transform="matrix(6.75968 0 0 -6.75968 339.997 53.334)"/><path d="M0 0v2.311h-1.657V-.221c0-.798.564-1.339 1.538-1.339h4.776c.853 0 1.131.391 1.131.668v.671H.211C-.007-.221 0-.123 0 0" style="fill:#81827e;fill-opacity:1;fill-rule:nonzero;stroke:none" transform="matrix(6.75968 0 0 -6.75968 468.865 140.764)"/><path d="M0 0h-7.751v-1.337h6.079c0-.616-.07-1.835-.31-2.798h-6.432v-1.337h3.763v-1.892h-3.1v-1.337h6.034v-3.323h.672c.511 0 .986.223.986 1.159V-7.364H-2.994v1.892h4.11v1.337H-.335C-.085-2.984 0-1.524 0 0" style="fill:#81827e;fill-opacity:1;fill-rule:nonzero;stroke:none" transform="matrix(6.75968 0 0 -6.75968 580.652 71.046)"/><path d="M0 0h-7.666v-1.336h6.009c0-.503-.121-2.934-.351-4.107h-6.42v-1.338h3.854v-5.244h.67c.511 0 .986.224.986 1.16v4.084h4.021v1.338H-.405C-.166-4.161 0-1.675 0 0" style="fill:#81827e;fill-opacity:1;fill-rule:nonzero;stroke:none" transform="matrix(6.75968 0 0 -6.75968 873.45 71.031)"/><path d="M0 0h-1.654v-9.214h.665c.515 0 .989.223.989 1.159v3.718h1.721v1.34H0Z" style="fill:#81827e;fill-opacity:1;fill-rule:nonzero;stroke:none" transform="matrix(6.75968 0 0 -6.75968 506.468 68.168)"/><path d="M0 0h-1.94c.063.437.093.904.093 1.406h-5.155V.069h3.501c0-1.752-1.472-3.592-3.746-4.67l.575-1.164c1.97.886 3.695 2.096 4.44 4.428H0v-1.224h-2.344v-1.337H0v-1.361h.67c.513 0 .986.223.986 1.161v5.93H0Z" style="fill:#81827e;fill-opacity:1;fill-rule:nonzero;stroke:none" transform="matrix(6.75968 0 0 -6.75968 722.193 80.552)"/><path d="M0 0c0 .692.494 1.157 1.176 1.157.681 0 1.172-.465 1.172-1.157 0-.694-.491-1.156-1.172-1.156C.494-1.156 0-.694 0 0m6.654 3.662h-1.66v-6.613a5.581 5.581 0 0 0-1.853-.317H1.993v.865c1.203.278 2.01 1.173 2.01 2.402 0 .645-.223 1.138-.607 1.489h1.052v1.337H1.993v1.06H.337v-1.06h-2.456V1.488h1.073c-.387-.351-.608-.844-.608-1.489 0-1.224.804-2.116 1.991-2.397v-.87h-2.53v-1.337h5.334c.713 0 1.287.067 1.853.258v-1.717h.671c.515 0 .989.221.989 1.157v4.232h1.722v1.34H6.654Z" style="fill:#81827e;fill-opacity:1;fill-rule:nonzero;stroke:none" transform="matrix(6.75968 0 0 -6.75968 612.736 92.925)"/><path d="M0 0v2.512h-1.654V-.222c0-.796.564-1.339 1.538-1.339H4.66c.855 0 1.13.393 1.13.67v.669H.214C-.003-.222 0-.121 0 0" style="fill:#81827e;fill-opacity:1;fill-rule:nonzero;stroke:none" transform="matrix(6.75968 0 0 -6.75968 769.501 140.757)"/><path d="M0 0h1.656v1.771h1.52c.714 0 1.318.071 1.91.27v-1H3.277V-.298h1.809v-1.146h.671c.512 0 .987.224.987 1.159v8.846H5.086V3.422c-.634-.238-1.274-.313-1.91-.313h-5.28V1.771H0Z" style="fill:#81827e;fill-opacity:1;fill-rule:nonzero;stroke:none" transform="matrix(6.75968 0 0 -6.75968 902.323 126.028)"/><path d="M0 0c-.219 0-.211.1-.211.222v1.609H-1.87V0c0-.797.566-1.339 1.539-1.339h5.003c.855 0 1.131.393 1.131.67V0Z" style="fill:#81827e;fill-opacity:1;fill-rule:nonzero;stroke:none" transform="matrix(6.75968 0 0 -6.75968 910.206 142.257)"/><path d="M0 0c-.219 0-.211.1-.211.222v1.609h-1.658V0c0-.797.565-1.339 1.538-1.339h5.003c.855 0 1.131.393 1.131.67V0Z" style="fill:#81827e;fill-opacity:1;fill-rule:nonzero;stroke:none" transform="matrix(6.75968 0 0 -6.75968 620.016 142.257)"/><path d="M0 0c0 .858.547 1.434 1.295 1.434.747 0 1.294-.576 1.294-1.434 0-.859-.547-1.435-1.294-1.435C.547-1.435 0-.859 0 0m4.241 0c0 1.061-.507 1.873-1.319 2.325h1.719v1.337H2.11v1.21H.455v-1.21h-2.533V2.325h1.743C-1.147 1.873-1.654 1.061-1.654 0c0-1.659 1.245-2.772 2.949-2.772 1.704 0 2.946 1.113 2.946 2.772" style="fill:#81827e;fill-opacity:1;fill-rule:nonzero;stroke:none" transform="matrix(6.75968 0 0 -6.75968 460.709 100.679)"/><path d="M0 0c0 1.056.547 1.765 1.293 1.765.748 0 1.293-.709 1.293-1.765s-.545-1.764-1.293-1.764C.547-1.764 0-1.056 0 0m5.911.745V-.722h-1.74c.045.229.067.468.067.722 0 .264-.022.51-.07.745zm-2.284-2.73h2.284v-3.546h.665c.515 0 .987.224.987 1.16v7.783H5.911V2.008h-2.3c-.529.691-1.349 1.095-2.318 1.095-1.702 0-2.948-1.245-2.948-3.103 0-1.857 1.246-3.102 2.948-3.102.981 0 1.808.414 2.334 1.117" style="fill:#81827e;fill-opacity:1;fill-rule:nonzero;stroke:none" transform="matrix(6.75968 0 0 -6.75968 755.986 91.233)"/><path d="M0 0c-1.179 0-2.038.542-2.038 1.349 0 .809.859 1.352 2.038 1.352 1.179 0 2.036-.543 2.036-1.352C2.036.542 1.179 0 0 0m0 4.039c-2.136 0-3.695-1.079-3.695-2.688 0-1.607 1.559-2.685 3.695-2.685 2.13 0 3.69 1.078 3.69 2.685C3.69 2.96 2.13 4.039 0 4.039" style="fill:#81827e;fill-opacity:1;fill-rule:nonzero;stroke:none" transform="matrix(6.75968 0 0 -6.75968 708.425 144.17)"/><path d="M0 0c.679 0 1.171-.463 1.171-1.158 0-.691-.492-1.154-1.171-1.154-.677 0-1.175.463-1.175 1.154C-1.175-.463-.677 0 0 0m0-3.651c1.636 0 2.829 1.001 2.829 2.493C2.829.336 1.636 1.337 0 1.337c-1.636 0-2.831-1.001-2.831-2.495 0-1.492 1.195-2.493 2.831-2.493" style="fill:#81827e;fill-opacity:1;fill-rule:nonzero;stroke:none" transform="matrix(6.75968 0 0 -6.75968 910.735 76.774)"/><path d="m0 0-1.473 1.797V-.395h-.532v4.309h.532V1.839L.276 3.914h.602L-.865 1.86.464.235C.601.061.712.013.857.013c.035 0 .076 0 .118.008v-.43A1.38 1.38 0 0 0 .747-.43C.464-.43.263-.319 0 0" style="fill:#81827e;fill-opacity:1;fill-rule:nonzero;stroke:none" transform="matrix(6.75968 0 0 -6.75968 471.217 196.953)"/><path d="M0 0c0 .622-.173 1.328-.94 1.328-.768 0-.927-.706-.927-1.328 0-.623.166-1.32.934-1.32C-.166-1.32 0-.623 0 0m-2.406 0c0 .906.449 1.742 1.473 1.742C.09 1.742.533.976.533 0c0-.906-.457-1.735-1.473-1.735-1.017 0-1.466.76-1.466 1.735" style="fill:#81827e;fill-opacity:1;fill-rule:nonzero;stroke:none" transform="matrix(6.75968 0 0 -6.75968 495.108 188.266)"/><path d="M0 0h.512v-.353c.194.235.464.408.844.408.083 0 .207-.02.29-.041v-.477c-.083.02-.201.048-.346.048-.415 0-.601-.152-.788-.325v-2.627H0Z" style="fill:#81827e;fill-opacity:1;fill-rule:nonzero;stroke:none" transform="matrix(6.75968 0 0 -6.75968 502.967 176.858)"/><path d="M0 0h1.674v.035c0 .449-.249.878-.747.878C.54.913.111.747 0 0m-.553-.415c0 1.024.56 1.749 1.494 1.749.933 0 1.265-.732 1.265-1.459 0-.084-.006-.173-.014-.256h-2.22v-.014c0-.774.312-1.327 1.093-1.327.401 0 .706.09.941.207v-.436a2.533 2.533 0 0 0-.955-.193c-1.085 0-1.604.698-1.604 1.729" style="fill:#81827e;fill-opacity:1;fill-rule:nonzero;stroke:none" transform="matrix(6.75968 0 0 -6.75968 518.956 185.504)"/><path d="M0 0c-.657 0-1.023-.187-1.023-.617 0-.352.229-.559.63-.559.29 0 .545.11.691.256v.906C.228-.007.09 0 0 0m.872-1.598a.519.519 0 0 0-.512.359c-.159-.186-.504-.359-.878-.359-.643 0-1.045.373-1.045.934 0 .67.561 1.03 1.487 1.03.111 0 .27-.008.374-.014v.375c0 .531-.222.724-.747.724-.359 0-.63-.11-.823-.207v.45c.228.096.546.186.913.186C.374 1.88.809 1.563.809.836V-.871c0-.222.111-.298.277-.298.042 0 .083.008.125.013v-.386a.887.887 0 0 0-.339-.056" style="fill:#81827e;fill-opacity:1;fill-rule:nonzero;stroke:none" transform="matrix(6.75968 0 0 -6.75968 547.007 189.196)"/><path d="M0 0h2.295v-.444H.532v-1.334H2.04v-.436H.532v-1.653h1.763v-.442H0Z" style="fill:#81827e;fill-opacity:1;fill-rule:nonzero;stroke:none" transform="matrix(6.75968 0 0 -6.75968 569.318 170.495)"/><path d="M0 0h.512v-.27c.159.124.497.325.933.325.816 0 1.093-.511 1.093-1.195v-2.227h-.511v2.144c0 .525-.153.849-.74.849-.312 0-.595-.131-.775-.248v-2.745H0Z" style="fill:#81827e;fill-opacity:1;fill-rule:nonzero;stroke:none" transform="matrix(6.75968 0 0 -6.75968 590.03 176.858)"/><path d="M0 0h.539l.92-2.78L2.365 0h.511L1.701-3.367h-.532Z" style="fill:#81827e;fill-opacity:1;fill-rule:nonzero;stroke:none" transform="matrix(6.75968 0 0 -6.75968 610.231 176.858)"/><path d="M668.244 277.702h2.591v-17.07h-2.59zm-.491 5.192a1.79 1.79 0 0 0 1.784 1.784c.984 0 1.79-.8 1.79-1.784s-.806-1.79-1.79-1.79c-.978 0-1.784.806-1.784 1.79" style="fill:#81827e;fill-opacity:1;fill-rule:nonzero;stroke:none;stroke-width:5.06976" transform="matrix(1.33333 0 0 -1.33333 -257.662 547.128)"/><path d="M0 0h.512v-.353c.193.235.463.408.843.408.083 0 .207-.02.291-.041v-.477c-.084.02-.201.048-.346.048-.415 0-.602-.152-.788-.325v-2.627H0Z" style="fill:#81827e;fill-opacity:1;fill-rule:nonzero;stroke:none" transform="matrix(6.75968 0 0 -6.75968 643.194 176.858)"/><path d="M0 0c0 .622-.173 1.328-.94 1.328-.768 0-.927-.706-.927-1.328 0-.623.166-1.32.934-1.32C-.166-1.32 0-.623 0 0m-2.406 0c0 .906.449 1.742 1.473 1.742C.09 1.742.533.976.533 0c0-.906-.457-1.735-1.473-1.735-1.017 0-1.466.76-1.466 1.735" style="fill:#81827e;fill-opacity:1;fill-rule:nonzero;stroke:none" transform="matrix(6.75968 0 0 -6.75968 671.71 188.266)"/><path d="M0 0h.512v-.27c.159.124.498.325.934.325.815 0 1.092-.511 1.092-1.195v-2.227h-.512v2.144c0 .525-.152.849-.74.849-.311 0-.594-.131-.774-.248v-2.745H0Z" style="fill:#81827e;fill-opacity:1;fill-rule:nonzero;stroke:none" transform="matrix(6.75968 0 0 -6.75968 679.661 176.858)"/><path d="M0 0h.512v-.27c.18.138.525.325.961.325A.94.94 0 0 0 2.22-.29c.284.2.637.345 1.058.345.795 0 1.072-.498 1.072-1.195v-2.227h-.512v2.144c0 .497-.124.849-.732.849-.291 0-.581-.124-.741-.207.028-.096.07-.27.07-.476v-2.31h-.512v2.178c0 .58-.249.815-.699.815-.27 0-.525-.131-.712-.248v-2.745H0Z" style="fill:#81827e;fill-opacity:1;fill-rule:nonzero;stroke:none" transform="matrix(6.75968 0 0 -6.75968 702.76 176.858)"/><path d="M0 0h1.673v.035c0 .449-.249.878-.746.878C.54.913.111.747 0 0m-.553-.415c0 1.024.56 1.749 1.494 1.749.933 0 1.266-.732 1.266-1.459 0-.084-.008-.173-.014-.256h-2.22v-.014c0-.774.311-1.327 1.092-1.327.401 0 .706.09.941.207v-.436a2.533 2.533 0 0 0-.955-.193c-1.085 0-1.604.698-1.604 1.729" style="fill:#81827e;fill-opacity:1;fill-rule:nonzero;stroke:none" transform="matrix(6.75968 0 0 -6.75968 740.073 185.504)"/><path d="M0 0h.512v-.27c.159.124.497.325.933.325.816 0 1.093-.511 1.093-1.195v-2.227h-.512v2.144c0 .525-.152.849-.74.849a1.47 1.47 0 0 1-.774-.248v-2.745H0Z" style="fill:#81827e;fill-opacity:1;fill-rule:nonzero;stroke:none" transform="matrix(6.75968 0 0 -6.75968 759.246 176.858)"/><path d="M0 0h.463L.56.9h.415V0h.775v-.395H.975v-2.026c0-.408.139-.574.477-.574.166 0 .325.043.416.084v-.422a1.662 1.662 0 0 0-.519-.09c-.595 0-.886.256-.886.934v2.094H0Z" style="fill:#81827e;fill-opacity:1;fill-rule:nonzero;stroke:none" transform="matrix(6.75968 0 0 -6.75968 779.677 176.858)"/><path d="M798.066 282.468h2.732v-21.84h-2.732z" style="fill:#81827e;fill-opacity:1;fill-rule:nonzero;stroke:none;stroke-width:5.06976" transform="matrix(1.33333 0 0 -1.33333 -257.662 547.128)"/><path d="M0 0h.512v-.27c.159.124.497.325.934.325.816 0 1.092-.511 1.092-1.196v-2.226h-.512v2.143c0 .525-.152.85-.74.85-.311 0-.594-.131-.774-.248v-2.745H0Z" style="fill:#81827e;fill-opacity:1;fill-rule:nonzero;stroke:none" transform="matrix(6.75968 0 0 -6.75968 816.945 176.858)"/><path d="M0 0v.443C.207.346.594.235.906.235c.483 0 .74.166.74.546 0 .353-.222.429-.734.616-.525.187-.885.429-.885.961 0 .643.457.933 1.127.933.36 0 .671-.082.823-.152V2.69c-.158.076-.484.18-.808.18-.423 0-.643-.166-.643-.47 0-.284.186-.408.614-.553.471-.159 1.025-.367 1.025-1.031C2.165.2 1.687-.187.982-.187.643-.187.235-.118 0 0" style="fill:#81827e;fill-opacity:1;fill-rule:nonzero;stroke:none" transform="matrix(6.75968 0 0 -6.75968 838.27 198.735)"/><path d="M0 0h.463l.098.899h.414V0h.774v-.395H.975v-2.026c0-.408.139-.574.477-.574.166 0 .327.042.416.084v-.422a1.65 1.65 0 0 0-.519-.09c-.595 0-.886.256-.886.933v2.095H0Z" style="fill:#81827e;fill-opacity:1;fill-rule:nonzero;stroke:none" transform="matrix(6.75968 0 0 -6.75968 854.537 176.858)"/><path d="M846.533 277.702h2.595v-17.07h-2.595zm-.492 5.192c0 .978.806 1.784 1.784 1.784.984 0 1.79-.806 1.79-1.784 0-.984-.806-1.79-1.79-1.79-.978 0-1.784.806-1.784 1.79" style="fill:#81827e;fill-opacity:1;fill-rule:nonzero;stroke:none;stroke-width:5.06976" transform="matrix(1.33333 0 0 -1.33333 -257.662 547.128)"/><path d="M0 0h.464l.097.899h.415V0h.774v-.395H.976v-2.026c0-.408.138-.574.476-.574.167 0 .326.042.416.084v-.422a1.65 1.65 0 0 0-.519-.09c-.594 0-.885.256-.885.933v2.095H0Z" style="fill:#81827e;fill-opacity:1;fill-rule:nonzero;stroke:none" transform="matrix(6.75968 0 0 -6.75968 878.336 176.858)"/><path d="M0 0v2.227h.511V.084c0-.527.153-.852.741-.852.311 0 .594.132.774.249v2.746h.512V-1.14h-.512v.268a1.57 1.57 0 0 0-.934-.324C.276-1.196 0-.684 0 0" style="fill:#81827e;fill-opacity:1;fill-rule:nonzero;stroke:none" transform="matrix(6.75968 0 0 -6.75968 894.285 191.913)"/><path d="M0 0h.463L.56.899h.415V0h.775v-.395H.975v-2.026c0-.408.139-.574.478-.574.166 0 .325.042.415.084v-.422a1.656 1.656 0 0 0-.519-.09c-.595 0-.886.256-.886.933v2.095H0Z" style="fill:#81827e;fill-opacity:1;fill-rule:nonzero;stroke:none" transform="matrix(6.75968 0 0 -6.75968 914.899 176.858)"/><path d="M0 0h1.674v.035c0 .449-.249.877-.748.877C.539.912.11.746 0 0m-.554-.415c0 1.024.561 1.749 1.495 1.749.933 0 1.265-.733 1.265-1.459 0-.084-.007-.173-.013-.256h-2.22v-.014c0-.774.31-1.328 1.092-1.328.401 0 .706.091.94.208v-.436a2.519 2.519 0 0 0-.954-.193c-1.085 0-1.605.698-1.605 1.729" style="fill:#81827e;fill-opacity:1;fill-rule:nonzero;stroke:none" transform="matrix(6.75968 0 0 -6.75968 932.995 185.504)"/></svg>