<svg xmlns="http://www.w3.org/2000/svg" xml:space="preserve" width="903.48065" height="100" viewBox="0 0 903.48066 99.999998"><defs><linearGradient id="b" x1="0" x2="1" y1="0" y2="0" gradientTransform="matrix(47.51063 0 0 47.51063 122.969 102.938)" gradientUnits="userSpaceOnUse" spreadMethod="pad"><stop offset="0" style="stop-opacity:1;stop-color:#00a19a"/><stop offset="0.525024" style="stop-opacity:1;stop-color:#fff"/><stop offset="0.743793" style="stop-opacity:1;stop-color:#222a89"/><stop offset="1" style="stop-opacity:1;stop-color:#222a89"/></linearGradient><linearGradient id="d" x1="0" x2="1" y1="0" y2="0" gradientTransform="matrix(47.51036 0 0 47.51036 122.969 103.031)" gradientUnits="userSpaceOnUse" spreadMethod="pad"><stop offset="0" style="stop-opacity:1;stop-color:#fff"/><stop offset="0.525024" style="stop-opacity:1;stop-color:#fff"/><stop offset="0.743793" style="stop-opacity:1;stop-color:#222a89"/><stop offset="1" style="stop-opacity:1;stop-color:#222a89"/></linearGradient><linearGradient id="f" x1="0" x2="1" y1="0" y2="0" gradientTransform="matrix(47.51996 0 0 47.51996 122.969 103.031)" gradientUnits="userSpaceOnUse" spreadMethod="pad"><stop offset="0" style="stop-opacity:1;stop-color:#00a19a"/><stop offset="0.525024" style="stop-opacity:1;stop-color:#00a19a"/><stop offset="0.743793" style="stop-opacity:1;stop-color:#222a89"/><stop offset="1" style="stop-opacity:1;stop-color:#222a89"/></linearGradient><clipPath id="a" clipPathUnits="userSpaceOnUse"><path d="M90.2 129.143c-.6 0-1.191-.109-1.759-.322a8.019 8.019 0 0 1-1.682-.878 10.265 10.265 0 0 1-1.499-1.259 10.992 10.992 0 0 1-1.213-1.462l-13.916-20.458v24.379H58.568V76.708h11.563v25.86l14.992-21.866c.838-1.245 1.538-2.249 2.356-3.175.768-.865 1.257-.819 2.654-.819h10.364l-15.931 25.058c-1.439 1.832-.747 2.776-.24 3.465.075.103.153.208.223.316l16.021 23.596z"/></clipPath><clipPath id="c" clipPathUnits="userSpaceOnUse"><path d="M208.42 129.18v-8.192c0-1.238 1.035-2.241 2.311-2.241h13.022V76.708h11.566v42.039h13.32c1.072 0 1.947.828 1.979 1.86v8.573z"/></clipPath><clipPath id="e" clipPathUnits="userSpaceOnUse"><path d="M163.646 122.738c-2.171-2.187-5.767-8.237-3.472-14.379.617-1.65 1.261-2.487 1.955-2.839 1.109-.564 2.446.203 2.681 1.405.329 1.688 1.254 4.959 3.717 7.514 2.3 2.389 5.05 3.793 8.087 4.384 10.068 1.949 19.685-4.926 20.174-14.974.447-9.236-7.061-16.863-16.385-16.863-4.88 0-9.279 2.071-12.268 4.557-1.261 1.051-2.855 2.875-4.031 4.334l-7.177 9.157-10.722 14.021c-5.513 6.608-14.003 10.979-23.684 10.095-13.022-1.187-23.431-11.743-24.196-24.584-.906-15.229 11.383-27.858 26.672-27.858 6.535 0 12.512 2.24 17.647 6.657.135.115.785.678.523 1.483-.164.502-.36 1.007-.564 1.52-.003.001-2.364 5.388-4.546 7.995-2.497 2.986-4.577 4.925-8.192 6.81-.233.121-.37.365-.281.586.056.137.321.143.587.07 2.396-.668 4.988-1.592 8.19-4.79 2.101-2.1 4.515-6.038 6.195-9.591.189-.399.791-.28.822.157.462 6.997-2.048 11.891-5.927 14.797-4.281 3.208-10.387 3.776-16.381 2.52-1.953-.409-2.12-1.595-.427-2.637 6.939-4.27 7.037-10.625 9.225-13.767-.28-.297-.686-.449-.85-.515a16.53 16.53 0 0 0-7.122-1.14c-8.211.504-14.893 7.181-15.284 15.263-.444 9.234 7.036 16.858 16.328 16.858 5.077 0 9.614-2.276 12.611-5.849l13.03-15.633 8.481-10.585c5.534-6.608 14.052-10.979 23.769-10.097 6.53.595 12.39 3.544 16.729 7.934a.804.804 0 0 0 1.288-.179c.607-1.148 1.211-2.082 1.814-2.799 1.201-1.43 2.344-2.54 3.426-3.333 1.312-.928 2.487-1.472 3.523-1.634.465-.073.9-.112 1.303-.117h.194a5.31 5.31 0 0 1 1.159.132l.025.006c1.546.367 2.285 2.158 1.414 3.486-2.21 3.371-5.286 8.717-6.657 24.998-1.128 13.428-12.696 23.949-26.703 23.949-6.559 0-11.806-1.593-16.7-6.525"/></clipPath></defs><path d="M0 0c.077.104.154.209.225.316l16.02 23.596H5.876a4.97 4.97 0 0 1-1.759-.322 7.959 7.959 0 0 1-1.681-.877 10.176 10.176 0 0 1-1.5-1.26 10.962 10.962 0 0 1-1.212-1.461L-14.193-.467v24.379h-11.568v-52.434h11.568v25.86L.798-24.528c.839-1.245 1.538-2.249 2.357-3.175.768-.865 1.258-.819 2.654-.819h10.364L.241-3.465C-1.198-1.633-.506-.688 0 0" style="fill:#00a199;fill-opacity:1;fill-rule:evenodd;stroke:none" transform="matrix(1.90213 0 0 -1.90213 49 45.715)"/><path d="M0 0v-8.19c0-1.239 1.035-2.243 2.313-2.243h13.02v-42.039H26.9v42.039h13.322c1.091 0 1.976.859 1.976 1.918V0Z" style="fill:#00a199;fill-opacity:1;fill-rule:evenodd;stroke:none" transform="matrix(1.90213 0 0 -1.90213 285.044 .162)"/><path d="M0 0c-1.13 13.428-12.695 23.949-26.703 23.949-6.561 0-11.808-1.594-16.699-6.525-2.172-2.189-5.77-8.237-3.475-14.379.617-1.65 1.262-2.487 1.955-2.84 1.109-.563 2.446.203 2.682 1.405.33 1.689 1.256 4.96 3.718 7.515 2.299 2.389 5.049 3.793 8.086 4.383 10.069 1.949 19.685-4.926 20.173-14.973.45-9.236-7.058-16.863-16.383-16.863-4.879 0-9.281 2.07-12.268 4.557-1.263 1.05-2.857 2.875-4.03 4.333l-7.179 9.157-10.723 14.021c-5.512 6.609-14.002 10.98-23.683 10.096-13.022-1.188-23.431-11.744-24.196-24.584-.907-15.23 11.382-27.858 26.671-27.858 6.537 0 12.512 2.239 17.649 6.657.134.115.785.678.521 1.482a26.725 26.725 0 0 1-.561 1.521c-.004.001-2.366 5.387-4.547 7.995-2.498 2.986-4.578 4.925-8.193 6.809-.232.121-.37.366-.281.586.056.138.322.144.587.071 2.397-.668 4.988-1.593 8.19-4.79 2.101-2.1 4.514-6.038 6.197-9.592.186-.399.791-.279.819.158.464 6.996-2.048 11.891-5.927 14.797C-71.881.295-77.985.863-83.98-.393c-1.954-.408-2.12-1.594-.426-2.636 6.937-4.27 7.035-10.626 9.223-13.768-.279-.297-.684-.449-.848-.515a16.536 16.536 0 0 0-7.122-1.139c-8.212.502-14.894 7.18-15.285 15.263-.444 9.233 7.037 16.858 16.328 16.858 5.077 0 9.614-2.276 12.612-5.851L-56.47-7.812l8.484-10.585c5.532-6.609 14.05-10.98 23.766-10.097 6.533.595 12.391 3.543 16.73 7.933a.805.805 0 0 0 1.289-.178c.605-1.148 1.211-2.082 1.812-2.8 1.201-1.43 2.344-2.539 3.426-3.332 1.315-.928 2.487-1.473 3.526-1.635 1.037-.162 1.92-.156 2.654.016l.024.006c1.546.367 2.285 2.158 1.414 3.486C4.445-21.627 1.369-16.283 0 0" style="fill:#00a199;fill-opacity:1;fill-rule:evenodd;stroke:none" transform="matrix(1.90213 0 0 -1.90213 282.44 45.555)"/><g clip-path="url(#a)" style="opacity:.850006" transform="matrix(1.90213 0 0 -1.90213 -111.395 245.876)"><path d="M90.2 129.143c-.6 0-1.191-.109-1.759-.322a8.019 8.019 0 0 1-1.682-.878 10.265 10.265 0 0 1-1.499-1.259 10.992 10.992 0 0 1-1.213-1.462l-13.916-20.458v24.379H58.568V76.708h11.563v25.86l14.992-21.866c.838-1.245 1.538-2.249 2.356-3.175.768-.865 1.257-.819 2.654-.819h10.364l-15.931 25.058c-1.439 1.832-.747 2.776-.24 3.465.075.103.153.208.223.316l16.021 23.596z" style="fill:url(#b);stroke:none"/></g><g clip-path="url(#c)" style="opacity:.850006" transform="matrix(1.90213 0 0 -1.90213 -111.395 245.876)"><path d="M208.42 129.18v-8.192c0-1.238 1.035-2.241 2.311-2.241h13.022V76.708h11.566v42.039h13.32c1.072 0 1.947.828 1.979 1.86v8.573z" style="fill:url(#d);stroke:none"/></g><g clip-path="url(#e)" style="opacity:.850006" transform="matrix(1.90213 0 0 -1.90213 -111.395 245.876)"><path d="M163.646 122.738c-2.171-2.187-5.767-8.237-3.472-14.379.617-1.65 1.261-2.487 1.955-2.839 1.109-.564 2.446.203 2.681 1.405.329 1.688 1.254 4.959 3.717 7.514 2.3 2.389 5.05 3.793 8.087 4.384 10.068 1.949 19.685-4.926 20.174-14.974.447-9.236-7.061-16.863-16.385-16.863-4.88 0-9.279 2.071-12.268 4.557-1.261 1.051-2.855 2.875-4.031 4.334l-7.177 9.157-10.722 14.021c-5.513 6.608-14.003 10.979-23.684 10.095-13.022-1.187-23.431-11.743-24.196-24.584-.906-15.229 11.383-27.858 26.672-27.858 6.535 0 12.512 2.24 17.647 6.657.135.115.785.678.523 1.483-.164.502-.36 1.007-.564 1.52-.003.001-2.364 5.388-4.546 7.995-2.497 2.986-4.577 4.925-8.192 6.81-.233.121-.37.365-.281.586.056.137.321.143.587.07 2.396-.668 4.988-1.592 8.19-4.79 2.101-2.1 4.515-6.038 6.195-9.591.189-.399.791-.28.822.157.462 6.997-2.048 11.891-5.927 14.797-4.281 3.208-10.387 3.776-16.381 2.52-1.953-.409-2.12-1.595-.427-2.637 6.939-4.27 7.037-10.625 9.225-13.767-.28-.297-.686-.449-.85-.515a16.53 16.53 0 0 0-7.122-1.14c-8.211.504-14.893 7.181-15.284 15.263-.444 9.234 7.036 16.858 16.328 16.858 5.077 0 9.614-2.276 12.611-5.849l13.03-15.633 8.481-10.585c5.534-6.608 14.052-10.979 23.769-10.097 6.53.595 12.39 3.544 16.729 7.934a.804.804 0 0 0 1.288-.179c.607-1.148 1.211-2.082 1.814-2.799 1.201-1.43 2.344-2.54 3.426-3.333 1.312-.928 2.487-1.472 3.523-1.634.465-.073.9-.112 1.303-.117h.194a5.31 5.31 0 0 1 1.159.132l.025.006c1.546.367 2.285 2.158 1.414 3.486-2.21 3.371-5.286 8.717-6.657 24.998-1.128 13.428-12.696 23.949-26.703 23.949-6.559 0-11.806-1.593-16.7-6.525" style="fill:url(#f);stroke:none"/></g><path d="M0 0h-19.588v6.104a.32.32 0 0 1-.317.324h-2.904a.326.326 0 0 1-.323-.324V-.814c0-.818.178-1.397.528-1.756.354-.404.934-.6 1.774-.6H0a.32.32 0 0 1 .326.322v2.524A.323.323 0 0 1 0 0" style="fill:#002f87;fill-opacity:1;fill-rule:nonzero;stroke:none" transform="matrix(1.90213 0 0 -1.90213 423.266 61.76)"/><path d="M0 0c0 .786.345 1.451 1.029 1.978.672.539 1.868.81 3.556.81 1.676 0 2.894-.274 3.617-.81C8.884 1.422 9.231.756 9.231 0c0-.774-.335-1.412-1.017-1.939-.735-.546-1.953-.821-3.629-.821-1.688 0-2.884.272-3.569.821C.337-1.437 0-.809 0 0m.988-5.426c.958-.297 2.133-.439 3.597-.439 1.42 0 2.607.142 3.62.435 1.083.299 1.915.697 2.524 1.2a4.653 4.653 0 0 1 1.535 1.859c.34.697.51 1.496.51 2.371 0 .838-.17 1.635-.51 2.369-.339.699-.85 1.332-1.535 1.893-.666.48-1.533.893-2.527 1.196-1.124.29-2.342.44-3.617.44-1.325 0-2.53-.15-3.595-.443-.974-.287-1.82-.688-2.536-1.206-.684-.567-1.189-1.205-1.49-1.89A5.704 5.704 0 0 1-3.541 0c0-.847.175-1.655.502-2.316a4.28 4.28 0 0 1 1.493-1.902c.656-.54 1.463-.923 2.534-1.208" style="fill:#002f87;fill-opacity:1;fill-rule:nonzero;stroke:none" transform="matrix(1.90213 0 0 -1.90213 383.524 36.49)"/><path d="M0 0h-4.516v8.954a.322.322 0 0 1-.326.323h-2.899a.321.321 0 0 1-.322-.323v-21.968a.32.32 0 0 1 .322-.323h2.899a.32.32 0 0 1 .326.323v9.844H0c.184 0 .325.142.325.32v2.523A.323.323 0 0 1 0 0" style="fill:#002f87;fill-opacity:1;fill-rule:nonzero;stroke:none" transform="matrix(1.90213 0 0 -1.90213 431.324 27.64)"/><path d="M0 0h10.449c.18 0 .322.146.322.327v2.455a.318.318 0 0 1-.322.322H0a.317.317 0 0 1-.321-.322V.327C-.321.146-.18 0 0 0" style="fill:#002f87;fill-opacity:1;fill-rule:nonzero;stroke:none" transform="matrix(1.90213 0 0 -1.90213 382.305 15.216)"/><path d="M0 0v2.46a.32.32 0 0 1-.321.321h-18.125a.32.32 0 0 1-.322-.321V0c0-.182.142-.326.322-.326H-.321C-.142-.326 0-.182 0 0" style="fill:#002f87;fill-opacity:1;fill-rule:nonzero;stroke:none" transform="matrix(1.90213 0 0 -1.90213 410.122 22.58)"/><path d="M0 0h-2.322v11.023a.323.323 0 0 1-.32.325h-23.129a.322.322 0 0 1-.319-.325V8.564c0-.176.143-.322.319-.322h19.907V0h-22.615a.321.321 0 0 1-.322-.322v-2.524a.32.32 0 0 1 .322-.324h12.453v-3.977h-9.937a.322.322 0 0 1-.322-.324v-2.458c0-.178.142-.324.322-.324h20.257v-8.039a.32.32 0 0 1 .322-.323h2.896c.181 0 .323.144.323.323v10.821a.322.322 0 0 1-.323.324h-9.992v3.977H0c.183 0 .325.143.325.324v2.524A.322.322 0 0 1 0 0" style="fill:#002f87;fill-opacity:1;fill-rule:nonzero;stroke:none" transform="matrix(1.90213 0 0 -1.90213 489.198 32.385)"/><path d="M0 0h-12.452v2.234h9.811c.177 0 .318.147.318.329v2.458a.32.32 0 0 1-.318.323h-19.56v8.136a.319.319 0 0 1-.321.321h-2.894a.32.32 0 0 1-.325-.321V4.562c0-.814.191-1.386.554-1.722.351-.401.948-.606 1.775-.606h7.419V0h-12.453a.323.323 0 0 1-.32-.327v-2.524c0-.178.143-.32.32-.32H0c.184 0 .325.142.325.32v2.524A.323.323 0 0 1 0 0" style="fill:#002f87;fill-opacity:1;fill-rule:nonzero;stroke:none" transform="matrix(1.90213 0 0 -1.90213 548.522 37.058)"/><path d="M0 0c0-.632-.158-1.162-.466-1.596-.332-.4-.787-.74-1.37-1.023a9.698 9.698 0 0 0-2.017-.567c-1.884-.226-3.209-.22-4.976-.002-.812.129-1.512.316-2.083.565-.606.281-1.072.617-1.408 1.018-.341.437-.508.963-.508 1.605 0 .645.167 1.167.498 1.598.342.407.809.746 1.412 1.024.649.28 1.354.484 2.079.598.89.109 1.676.161 2.475.161.785 0 1.587-.052 2.492-.158a9.555 9.555 0 0 0 2.014-.594c.605-.295 1.06-.633 1.382-1.012C-.158 1.161 0 .634 0 0m.732 5.006c-.877.469-1.921.845-3.117 1.115-2.603.494-5.526.483-7.933 0-1.235-.267-2.292-.642-3.158-1.121-.955-.562-1.65-1.221-2.11-2.003-.52-.805-.783-1.804-.783-2.963 0-1.161.263-2.155.776-2.95.467-.793 1.162-1.455 2.117-2.017.837-.499 1.87-.873 3.163-1.153 1.221-.244 2.55-.37 3.949-.37 1.352 0 2.691.126 3.991.37 1.237.283 2.256.66 3.125 1.159.867.55 1.537 1.202 2.052 2.014.489.858.743 1.881.743 2.947 0 1.069-.254 2.086-.753 2.96-.505.797-1.175 1.453-2.062 2.012" style="fill:#002f87;fill-opacity:1;fill-rule:nonzero;stroke:none" transform="matrix(1.90213 0 0 -1.90213 533.545 57.387)"/><path d="M0 0c-.824 0-1.519.1-2.143.317a3.704 3.704 0 0 0-1.631.921c-.46.381-.815.889-1.064 1.522-.256.561-.382 1.267-.382 2.097 0 .838.126 1.536.388 2.143a4.125 4.125 0 0 0 1.063 1.52c.456.407.992.703 1.629.913.723.213 1.42.317 2.14.317a7.93 7.93 0 0 0 2.124-.311 5.305 5.305 0 0 0 1.662-.91c.443-.42.803-.937 1.074-1.526a5.896 5.896 0 0 0 .391-2.146c0-.755-.136-1.486-.388-2.097-.274-.629-.632-1.145-1.071-1.531A4.148 4.148 0 0 0 2.127.314C1.489.104.792 0 0 0m17.612 12.691h-2.893a.323.323 0 0 1-.325-.323V6.46H8.647a8.52 8.52 0 0 1-.881 2.495c-.426.75-1.026 1.445-1.84 2.13-.747.568-1.602 1.015-2.619 1.364A11.51 11.51 0 0 1 0 12.92c-1.339 0-2.565-.193-3.652-.579-1.066-.401-1.991-.962-2.747-1.673-.74-.689-1.32-1.545-1.737-2.533-.413-.996-.628-2.094-.628-3.278 0-1.224.215-2.316.625-3.232.413-1.059.985-1.902 1.732-2.571.723-.715 1.654-1.271 2.753-1.645C-2.643-2.982-1.445-3.17 0-3.17c1.269 0 2.354.154 3.311.472 1.005.314 1.868.759 2.613 1.364A6.628 6.628 0 0 1 7.766.799c.42.74.708 1.547.881 2.459h5.747v-6.761c0-.181.142-.326.325-.326h2.893c.181 0 .325.145.325.326v15.871a.324.324 0 0 1-.325.323" style="fill:#002f87;fill-opacity:1;fill-rule:nonzero;stroke:none" transform="matrix(1.90213 0 0 -1.90213 571.01 34.131)"/><path d="M373.152 96.729H356.12v3.06h17.032zm3.219 9.773h-2.897a.324.324 0 0 1-.322-.327v-3.28H356.12v3.28a.325.325 0 0 1-.325.327h-2.897a.325.325 0 0 1-.326-.327V95.98c0-.783.198-1.377.56-1.755.353-.404.933-.6 1.77-.6h21.469a.32.32 0 0 1 .321.321v12.229c0 .181-.14.327-.321.327" style="fill:#002f87;fill-opacity:1;fill-rule:nonzero;stroke:none" transform="matrix(1.90213 0 0 -1.90213 -111.395 245.876)"/><path d="M0 0h-2.893a.324.324 0 0 1-.326-.323v-29.74c0-.177.145-.322.326-.322H0c.184 0 .325.145.325.322v29.74A.321.321 0 0 1 0 0" style="fill:#002f87;fill-opacity:1;fill-rule:nonzero;stroke:none" transform="matrix(1.90213 0 0 -1.90213 663.896 9.994)"/><path d="M0 0h-15.287a.321.321 0 0 1-.323-.324v-2.522a.32.32 0 0 1 .323-.324h11.955c-.183-2.725-.647-5.042-1.427-7.067-.857-2.171-1.915-4.052-3.137-5.594-1.264-1.622-2.667-3.003-4.168-4.101-1.638-1.177-3.174-2.097-4.696-2.822a.328.328 0 0 1-.136-.472l1.468-2.229a.322.322 0 0 1 .416-.11 35.82 35.82 0 0 1 5.784 3.607 23.297 23.297 0 0 1 4.905 5.086c1.423 1.991 2.56 4.35 3.392 7.009C-.095-7.219.325-4.079.325-.521v.197A.322.322 0 0 1 0 0" style="fill:#002f87;fill-opacity:1;fill-rule:nonzero;stroke:none" transform="matrix(1.90213 0 0 -1.90213 645.839 11.428)"/><path d="M0 0a.331.331 0 0 1 .366-.173c2.291.561 4.453 1.397 6.421 2.494a17.453 17.453 0 0 1 4.776 3.849 18.254 18.254 0 0 1 2.398-1.862c1.124-.799 2.029-1.361 2.923-1.82A25.481 25.481 0 0 1 19.907.999a34.75 34.75 0 0 1 2.991-1.193.33.33 0 0 1 .393.154l1.211 2.297a.307.307 0 0 1 .01.277.32.32 0 0 1-.205.183c-.931.262-1.87.622-2.8 1.067-1.017.444-1.994.93-2.903 1.467a22.588 22.588 0 0 0-2.809 1.788 19.48 19.48 0 0 0-2.316 1.819c.125.227.251.485.394.808.092.23.199.454.306.694l.141.311a.343.343 0 0 1-.015.285.318.318 0 0 1-.231.164l-2.704.458a.327.327 0 0 1-.352-.19 11.932 11.932 0 0 0-1.923-3.063c-.761-.873-1.658-1.672-2.751-2.444a18.25 18.25 0 0 0-3.349-1.9A22.708 22.708 0 0 0-.896 2.688a.308.308 0 0 1-.221-.178.356.356 0 0 1 .003-.281Z" style="fill:#002f87;fill-opacity:1;fill-rule:nonzero;stroke:none" transform="matrix(1.90213 0 0 -1.90213 677.289 31.651)"/><path d="M0 0h-28.445a.322.322 0 0 1-.32-.326V-2.85c0-.178.142-.324.32-.324h12.455v-1.68h-9.909a.322.322 0 0 1-.32-.327v-2.455a.32.32 0 0 1 .32-.323h20.225v-1.552h-20.225a.32.32 0 0 1-.32-.323v-5.212c0-.817.174-1.396.529-1.755.349-.406.929-.603 1.769-.603h22.074a.32.32 0 0 1 .32.323v2.461a.32.32 0 0 1-.32.321h-20.83v1.684h20.223c.18 0 .324.144.324.323v7.111a.325.325 0 0 1-.324.327h-9.998v1.68H0c.183 0 .325.146.325.324v2.524C.325-.146.183 0 0 0" style="fill:#002f87;fill-opacity:1;fill-rule:nonzero;stroke:none" transform="matrix(1.90213 0 0 -1.90213 726.68 34.688)"/><path d="M0 0a27.72 27.72 0 0 1 3.279-2.848 24.923 24.923 0 0 1 3.807-2.488.315.315 0 0 1 .406.087l1.622 2.097c.06.078.086.178.06.268a.33.33 0 0 1-.171.222 22.525 22.525 0 0 0-3.68 2.328A27.246 27.246 0 0 0 2.152 2.38c.915 1.165 1.663 2.276 2.276 3.401a17.277 17.277 0 0 1 1.568 4.145c.003.033.016.076.028.123l.035.181c0 .118-.025.219-.066.405a.315.315 0 0 1-.085.144c-.045.049-.086.114-.157.219a.305.305 0 0 1-.121.107c-.173.09-.382.137-.622.137H-8.66a.322.322 0 0 1-.319-.324V8.461c0-.179.143-.324.319-.324H1.837A18.62 18.62 0 0 0-.092 4.815c-.843-1.141-1.82-2.23-2.985-3.333C-4.342.329-5.529-.605-6.706-1.37a29.53 29.53 0 0 0-4.097-2.306.304.304 0 0 1-.173-.213.32.32 0 0 1 .051-.271l1.495-2.035a.335.335 0 0 1 .259-.129c.047 0 .092.008.136.029 1.362.639 2.871 1.515 4.598 2.678A29.475 29.475 0 0 1 0 0" style="fill:#002f87;fill-opacity:1;fill-rule:nonzero;stroke:none" transform="matrix(1.90213 0 0 -1.90213 752.852 32.184)"/><path d="M0 0h-20.86v7.416a.321.321 0 0 1-.322.323h-2.898a.323.323 0 0 1-.325-.323v-8.23c0-.818.177-1.397.528-1.752.347-.401.94-.604 1.771-.604H0c.184 0 .324.142.324.322v2.524C.324-.146.184 0 0 0" style="fill:#002f87;fill-opacity:1;fill-rule:nonzero;stroke:none" transform="matrix(1.90213 0 0 -1.90213 783.82 61.76)"/><path d="M0 0h2.898c.18 0 .322.146.322.323v22.298a.32.32 0 0 1-.322.323H0a.32.32 0 0 1-.321-.323V.323C-.321.146-.18 0 0 0" style="fill:#002f87;fill-opacity:1;fill-rule:nonzero;stroke:none" transform="matrix(1.90213 0 0 -1.90213 777.156 53.633)"/><path d="M0 0h23.445a.32.32 0 0 1 .323.324v2.459a.32.32 0 0 1-.323.323H0a.32.32 0 0 1-.321-.323V.324C-.321.146-.18 0 0 0" style="fill:#002f87;fill-opacity:1;fill-rule:nonzero;stroke:none" transform="matrix(1.90213 0 0 -1.90213 796.185 22.324)"/><path d="M0 0h11.436c.183 0 .325.146.325.324v2.363a.322.322 0 0 1-.325.323H0a.32.32 0 0 1-.322-.323V.324C-.322.146-.182 0 0 0" style="fill:#002f87;fill-opacity:1;fill-rule:nonzero;stroke:none" transform="matrix(1.90213 0 0 -1.90213 807.58 14.965)"/><path d="M0 0c0-.488-.687-.799-1.271-.975-.945-.302-2.438-.437-4.713-.437-2.303 0-3.79.135-4.696.445-1.256.322-1.256.809-1.256.967 0 .145 0 .594 1.268 1.005.944.286 2.564.441 4.684.441 2.112 0 3.695-.151 4.709-.441C-.467.736 0 .367 0 0m-2.218 4.355a33.195 33.195 0 0 1-3.766.198c-1.354 0-2.61-.065-3.74-.199-1.161-.167-2.133-.395-2.975-.709-.905-.359-1.6-.821-2.065-1.367-.516-.601-.779-1.372-.779-2.278 0-.937.259-1.674.773-2.233.471-.595 1.171-1.06 2.067-1.378.84-.345 1.818-.576 2.986-.709a32.04 32.04 0 0 1 3.733-.201c1.344 0 2.611.068 3.758.201 1.119.095 2.138.326 3.011.672.847.312 1.534.775 2.045 1.373.518.607.777 1.374.777 2.275 0 .863-.259 1.625-.783 2.284-.54.592-1.221 1.061-2.045 1.4-.883.312-1.892.54-2.997.671" style="fill:#002f87;fill-opacity:1;fill-rule:nonzero;stroke:none" transform="matrix(1.90213 0 0 -1.90213 829.808 32.125)"/><path d="M0 0c.881 0 1.758-.065 2.571-.13a16.752 16.752 0 0 0 2.144-.377c.594-.184 1.066-.43 1.404-.718.303-.284.44-.594.44-1.008 0-.398-.15-.737-.43-1.002-.352-.297-.82-.539-1.402-.721a17.594 17.594 0 0 0-2.142-.383 34.155 34.155 0 0 0-5.128 0c-.818.1-1.541.229-2.137.38-.596.185-1.069.427-1.417.724a1.283 1.283 0 0 0-.461 1.002c0 .417.146.724.461.999.348.297.821.543 1.405.719.615.162 1.34.292 2.135.385C-1.659-.058-.849 0 0 0m7.193 2.032c-.884.36-1.92.635-3.178.844-2.913.312-5.183.31-8.013-.003-1.325-.213-2.364-.491-3.172-.844-.932-.41-1.65-.966-2.133-1.638-.53-.685-.799-1.558-.799-2.593 0-1.033.269-1.905.791-2.581.494-.681 1.209-1.237 2.132-1.645.788-.375 1.798-.655 3.197-.884A35.4 35.4 0 0 1 0-7.543c1.266 0 2.578.074 4.032.235 1.302.217 2.308.496 3.175.88A6.172 6.172 0 0 1 9.349-4.78c.501.738.75 1.606.75 2.578 0 .962-.263 1.853-.77 2.599-.553.676-1.266 1.222-2.136 1.635" style="fill:#002f87;fill-opacity:1;fill-rule:nonzero;stroke:none" transform="matrix(1.90213 0 0 -1.90213 818.306 55.32)"/><path d="M0 0h-28.479a.32.32 0 0 1-.321-.323v-2.523a.32.32 0 0 1 .321-.324H0c.183 0 .325.143.325.324v2.523A.322.322 0 0 1 0 0" style="fill:#002f87;fill-opacity:1;fill-rule:nonzero;stroke:none" transform="matrix(1.90213 0 0 -1.90213 845.512 42.115)"/><path d="M0 0c0-.178.141-.323.324-.323h2.897c.183 0 .326.145.326.323v5.023h9.644c.184 0 .325.145.325.323v2.523a.322.322 0 0 1-.325.327H-8.947a.325.325 0 0 1-.323-.327V5.346c0-.178.146-.323.323-.323H0Z" style="fill:#002f87;fill-opacity:1;fill-rule:nonzero;stroke:none" transform="matrix(1.90213 0 0 -1.90213 867.747 53.145)"/><path d="M0 0h-20.509v6.266c0 .18-.141.326-.319.326h-2.903a.323.323 0 0 1-.32-.326v-7.08c0-.818.174-1.397.529-1.752.339-.401.939-.604 1.769-.604H0a.32.32 0 0 1 .326.322v2.524A.323.323 0 0 1 0 0" style="fill:#002f87;fill-opacity:1;fill-rule:nonzero;stroke:none" transform="matrix(1.90213 0 0 -1.90213 902.59 61.76)"/><path d="M0 0v-2.56c0-.178.143-.323.325-.323h6.779v-2.562c0-.178.143-.325.323-.325h2.896c.18 0 .323.147.323.325v24.499a.32.32 0 0 1-.323.319H7.427a.32.32 0 0 1-.323-.319V.323H.325A.323.323 0 0 1 0 0" style="fill:#002f87;fill-opacity:1;fill-rule:nonzero;stroke:none" transform="matrix(1.90213 0 0 -1.90213 881.803 46.844)"/><path d="M0 0c.832.61 1.997.921 3.471.921 1.454 0 2.603-.305 3.493-.918.827-.633 1.247-1.573 1.247-2.791 0-1.245-.407-2.147-1.232-2.751-.905-.623-2.054-.927-3.508-.927-1.474 0-2.639.311-3.479.924-.84.599-1.232 1.471-1.232 2.754C-1.24-1.536-.834-.62 0 0m3.471-9.571c2.644 0 4.638.582 6.097 1.776 1.452 1.183 2.19 2.88 2.19 5.038 0 2.127-.738 3.82-2.194 5.041C8.09 3.454 6.1 4.026 3.471 4.026c-2.601 0-4.643-.588-6.069-1.744-1.453-1.19-2.184-2.886-2.184-5.039 0-2.165.731-3.848 2.178-4.999C-1.187-8.978.801-9.571 3.471-9.571" style="fill:#002f87;fill-opacity:1;fill-rule:nonzero;stroke:none" transform="matrix(1.90213 0 0 -1.90213 864.548 16.902)"/><path d="M0 0v-3.665L3.575 0h1.777l-3.31-3.384 3.391-4.987H3.769L1.091-4.362 0-5.462v-2.909h-1.393V0Z" style="fill:#002f87;fill-opacity:1;fill-rule:nonzero;stroke:none" transform="matrix(1.90213 0 0 -1.90213 378.078 76.314)"/><path d="M0 0c0-.271.034-.529.099-.771.066-.242.158-.452.28-.632.124-.181.273-.324.448-.429.178-.106.376-.16.592-.16.22 0 .418.054.593.16.176.105.326.248.451.429.125.18.221.39.29.632.068.242.103.5.103.771 0 .269-.035.523-.103.764a2.16 2.16 0 0 1-.29.638 1.436 1.436 0 0 1-.451.432c-.175.105-.373.16-.593.16-.216 0-.414-.055-.592-.16a1.427 1.427 0 0 1-.448-.432 2.146 2.146 0 0 1-.28-.638A2.918 2.918 0 0 1 0 0m-1.393 0c0 .432.063.842.187 1.229.128.384.31.722.549 1.013.24.289.534.519.884.687.343.169.743.252 1.192.252.446 0 .844-.083 1.193-.252a2.61 2.61 0 0 0 .886-.687c.239-.291.421-.629.549-1.013.127-.387.19-.797.19-1.229 0-.434-.061-.846-.186-1.229a3.077 3.077 0 0 0-.545-1.009 2.548 2.548 0 0 0-.882-.68 2.74 2.74 0 0 0-1.192-.25c-.45 0-.85.083-1.2.25a2.593 2.593 0 0 0-.884.68 3.087 3.087 0 0 0-.55 1.009A3.863 3.863 0 0 0-1.393 0" style="fill:#002f87;fill-opacity:1;fill-rule:nonzero;stroke:none" transform="matrix(1.90213 0 0 -1.90213 393.464 86.44)"/><path d="M0 0h1.02l.229-.75c.179.284.365.5.563.649.195.146.406.222.634.222.074 0 .187-.016.341-.046.154-.03.34-.108.561-.237V-1.38a4.086 4.086 0 0 1-.625.194 1.55 1.55 0 0 1-.157.026.974.974 0 0 1-.548-.106 1.063 1.063 0 0 1-.348-.289 1.405 1.405 0 0 1-.215-.425 1.718 1.718 0 0 1-.077-.504v-3.625H0Z" style="fill:#002f87;fill-opacity:1;fill-rule:nonzero;stroke:none" transform="matrix(1.90213 0 0 -1.90213 404.627 80.618)"/><path d="M0 0a1.58 1.58 0 0 1-.139.524 1.402 1.402 0 0 1-.287.411 1.269 1.269 0 0 1-.417.263 1.483 1.483 0 0 1-.528.092c-.17 0-.332-.034-.483-.104a1.505 1.505 0 0 1-.402-.28 1.533 1.533 0 0 1-.289-.411A1.77 1.77 0 0 1-2.7 0Zm-2.7-1.073c.018-.221.068-.431.145-.63.078-.2.18-.376.303-.526.124-.151.264-.268.425-.356.161-.089.336-.133.52-.133.336 0 .62.096.841.287.228.192.404.477.536.854h1.272a2.93 2.93 0 0 0-.988-1.687 2.617 2.617 0 0 0-1.672-.606c-.428 0-.817.088-1.162.264a2.717 2.717 0 0 0-.882.708 3.236 3.236 0 0 0-.56 1.035 3.915 3.915 0 0 0-.195 1.245c0 .408.064.799.195 1.174.131.373.318.703.56.988.243.288.535.515.882.683.345.167.734.252 1.162.252.416 0 .79-.079 1.126-.23.335-.156.621-.367.859-.635a2.86 2.86 0 0 0 .545-.948 3.57 3.57 0 0 0 .191-1.183v-.556z" style="fill:#002f87;fill-opacity:1;fill-rule:nonzero;stroke:none" transform="matrix(1.90213 0 0 -1.90213 420.517 85.104)"/><path d="M0 0a1.802 1.802 0 0 0-.353-.144c-.142-.044-.3-.086-.465-.131a10.392 10.392 0 0 1-.51-.148 3.06 3.06 0 0 1-.46-.186 1.263 1.263 0 0 1-.337-.245.479.479 0 0 1-.13-.334.73.73 0 0 1 .212-.538.606.606 0 0 1 .221-.125.826.826 0 0 1 .25-.039c.271 0 .547.094.82.283.278.188.528.469.752.846zm2.097-2.759a1.95 1.95 0 0 0-.531-.25.757.757 0 0 0-.168-.03l-.125-.001a.983.983 0 0 0-.39.072.995.995 0 0 0-.307.209 1.415 1.415 0 0 0-.226.299 1.701 1.701 0 0 0-.158.359 4.26 4.26 0 0 0-.498-.463 2.515 2.515 0 0 0-.467-.289A1.95 1.95 0 0 0-1.229-3a2.636 2.636 0 0 0-.476-.04 2.11 2.11 0 0 0-.747.128 1.746 1.746 0 0 0-1.015.94 1.856 1.856 0 0 0-.148.748c0 .237.051.44.155.612.103.174.24.322.412.449.167.131.36.238.579.331.215.093.436.177.662.25.223.072.445.143.663.209.215.065.409.137.58.21.168.074.305.16.408.253A.448.448 0 0 1 0 1.429a.518.518 0 0 1-.098.324.719.719 0 0 1-.246.213c-.098.054-.21.093-.331.117-.122.024-.24.037-.355.037a1.23 1.23 0 0 1-.357-.054.924.924 0 0 1-.557-.436 1.052 1.052 0 0 1-.129-.411H-3.48c.018.356.103.664.251.927.149.261.335.479.564.65.226.174.48.301.766.385.286.084.575.126.869.126.313 0 .617-.036.911-.109a2.27 2.27 0 0 0 .769-.342c.224-.155.399-.354.531-.596.13-.241.196-.531.196-.866v-2.977c0-.072.027-.145.079-.215a.27.27 0 0 1 .225-.104.987.987 0 0 1 .416.137z" style="fill:#002f87;fill-opacity:1;fill-rule:nonzero;stroke:none" transform="matrix(1.90213 0 0 -1.90213 432.617 86.68)"/><path d="m0 0-1.042-2.977h2.074Zm.807 1.759 2.985-8.371H2.356l-.889 2.449h-2.942a50.53 50.53 0 0 0-.431-1.228 67.927 67.927 0 0 1-.43-1.221h-1.44l2.985 8.371z" style="fill:#002f87;fill-opacity:1;fill-rule:nonzero;stroke:none" transform="matrix(1.90213 0 0 -1.90213 452.4 79.66)"/><path d="M0 0a3.5 3.5 0 0 1-.098.744 2.123 2.123 0 0 1-.24.61 1.248 1.248 0 0 1-.377.414.892.892 0 0 1-.509.154c-.201 0-.383-.054-.555-.157a1.47 1.47 0 0 1-.441-.425 2.225 2.225 0 0 1-.295-.631 2.785 2.785 0 0 1-.104-.769c0-.276.035-.536.104-.784.071-.244.17-.461.295-.644.124-.184.271-.33.441-.438.172-.107.354-.162.555-.162.196 0 .369.054.52.158.153.107.28.25.386.431.102.179.18.391.234.636.056.242.084.504.084.779Zm1.376-3.047a2.7 2.7 0 0 0-.22-1.126A2.409 2.409 0 0 0-.261-5.475a2.904 2.904 0 0 0-.975-.166c-.293 0-.569.043-.828.127-.26.083-.501.213-.72.389a2.77 2.77 0 0 0-.599.67c-.18.269-.326.593-.447.968h1.356c.151-.347.326-.599.525-.751.203-.155.438-.233.713-.233.167 0 .327.034.478.104.149.067.281.161.397.283.111.123.2.267.263.436.065.168.098.351.098.552v.54a2.114 2.114 0 0 0-.676-.504 1.808 1.808 0 0 0-.765-.178c-.399 0-.754.08-1.07.248a2.354 2.354 0 0 0-.796.679 3.145 3.145 0 0 0-.496 1.012c-.111.385-.168.8-.168 1.239 0 .437.059.847.176 1.232.12.383.292.719.513 1.008.222.286.493.513.804.678.316.167.669.25 1.06.25.105 0 .215-.005.332-.02a1.564 1.564 0 0 0 .721-.302A1.94 1.94 0 0 0 0 2.424v.564h1.376z" style="fill:#002f87;fill-opacity:1;fill-rule:nonzero;stroke:none" transform="matrix(1.90213 0 0 -1.90213 470.206 86.302)"/><path d="M0 0h1.019l.228-.75c.18.284.366.5.564.649.193.146.406.222.634.222.073 0 .186-.016.34-.046.155-.03.341-.108.56-.237V-1.38a3.782 3.782 0 0 1-.624.194c-.07.014-.12.023-.158.026a.982.982 0 0 1-.547-.106 1.046 1.046 0 0 1-.346-.289 1.389 1.389 0 0 1-.218-.425 1.718 1.718 0 0 1-.076-.504v-3.625H0Z" style="fill:#002f87;fill-opacity:1;fill-rule:nonzero;stroke:none" transform="matrix(1.90213 0 0 -1.90213 476.555 80.618)"/><path d="M314.993 80.772h-1.384v6.108h1.384zm0 6.957h-1.384v1.415h1.384z" style="fill:#002f87;fill-opacity:1;fill-rule:nonzero;stroke:none" transform="matrix(1.90213 0 0 -1.90213 -111.395 245.876)"/><path d="M0 0c-.107.4-.258.689-.439.865a.979.979 0 0 1-.704.268c-.21 0-.399-.052-.569-.158a1.364 1.364 0 0 1-.42-.422 2.046 2.046 0 0 1-.261-.614 2.878 2.878 0 0 1-.09-.724c0-.269.03-.529.09-.781s.147-.477.265-.674c.114-.199.253-.359.414-.479a.903.903 0 0 1 .55-.179c.157 0 .302.036.429.111.126.074.238.174.33.301.094.131.173.277.236.443.064.165.11.342.146.531h1.435a3.777 3.777 0 0 0-.279-1.066 2.6 2.6 0 0 0-.547-.797 2.273 2.273 0 0 0-.785-.501A2.732 2.732 0 0 0-1.2-4.051c-.305 0-.584.045-.837.129a2.284 2.284 0 0 0-.672.356c-.198.15-.37.327-.514.535-.144.21-.264.434-.36.676a3.91 3.91 0 0 0-.214.761c-.047.268-.07.535-.07.809 0 .447.064.86.197 1.238.129.379.316.702.555.976.236.271.525.485.86.638.335.154.711.231 1.123.231.364 0 .689-.06.974-.177a2.33 2.33 0 0 0 .744-.485c.212-.206.385-.45.52-.73.136-.28.24-.582.306-.906Z" style="fill:#002f87;fill-opacity:1;fill-rule:nonzero;stroke:none" transform="matrix(1.90213 0 0 -1.90213 498.132 84.76)"/><path d="M0 0h-1.382v.689A3.252 3.252 0 0 0-1.816.3a2.345 2.345 0 0 0-.415-.25 1.845 1.845 0 0 0-.415-.131 2.478 2.478 0 0 0-.435-.039 2.23 2.23 0 0 0-.804.139c-.237.091-.439.22-.604.392-.166.17-.294.373-.383.611a2.288 2.288 0 0 0-.132.796v4.29h1.379V1.931c0-.159.02-.293.061-.403a.676.676 0 0 1 .168-.267.671.671 0 0 1 .259-.149 1.164 1.164 0 0 1 .847.086c.171.084.325.201.46.346.135.147.241.316.325.508.081.193.123.397.123.612v3.444H0Z" style="fill:#002f87;fill-opacity:1;fill-rule:nonzero;stroke:none" transform="matrix(1.90213 0 0 -1.90213 513.54 92.237)"/><path d="M331.932 80.772h-1.383v8.371h1.383z" style="fill:#002f87;fill-opacity:1;fill-rule:nonzero;stroke:none" transform="matrix(1.90213 0 0 -1.90213 -111.395 245.876)"/><path d="M0 0v-1.68h1.089v-1.158H0v-3.33a.74.74 0 0 1 .11-.419.361.361 0 0 1 .317-.17 2.17 2.17 0 0 1 .79.187v-1.122a2.862 2.862 0 0 0-.686-.178A4.869 4.869 0 0 0 0-7.908c-.188 0-.365.038-.534.114a1.333 1.333 0 0 0-.444.325 1.58 1.58 0 0 0-.301.503 1.792 1.792 0 0 0-.117.654v3.474h-.835v1.158h.835V0Z" style="fill:#002f87;fill-opacity:1;fill-rule:nonzero;stroke:none" transform="matrix(1.90213 0 0 -1.90213 526.975 77.423)"/><path d="M0 0h-1.383v.689A3.307 3.307 0 0 0-1.815.3a2.47 2.47 0 0 0-.417-.25 1.829 1.829 0 0 0-.415-.131 2.501 2.501 0 0 0-.437-.039c-.293 0-.562.047-.802.139-.237.091-.439.22-.604.392-.167.17-.295.373-.382.611a2.311 2.311 0 0 0-.133.796v4.29h1.378V1.931c0-.159.02-.293.063-.403a.644.644 0 0 1 .426-.416 1.156 1.156 0 0 1 .846.086c.172.084.325.201.46.346.135.147.244.316.325.508.084.193.124.397.124.612v3.444H0Z" style="fill:#002f87;fill-opacity:1;fill-rule:nonzero;stroke:none" transform="matrix(1.90213 0 0 -1.90213 541.67 92.237)"/><path d="M0 0h1.02l.229-.75c.181.284.368.5.562.649.197.146.407.222.634.222.075 0 .19-.016.343-.046.153-.03.341-.108.561-.237V-1.38a4.2 4.2 0 0 1-.625.194 1.43 1.43 0 0 1-.161.026l-.077.003a.974.974 0 0 1-.468-.109 1.056 1.056 0 0 1-.346-.289 1.367 1.367 0 0 1-.218-.425 1.751 1.751 0 0 1-.075-.504v-3.625H0Z" style="fill:#002f87;fill-opacity:1;fill-rule:nonzero;stroke:none" transform="matrix(1.90213 0 0 -1.90213 545.53 80.618)"/><path d="M0 0a1.557 1.557 0 0 1-.14.524 1.381 1.381 0 0 1-.286.411 1.279 1.279 0 0 1-.417.263 1.483 1.483 0 0 1-.528.092c-.17 0-.332-.034-.483-.104a1.505 1.505 0 0 1-.402-.28 1.533 1.533 0 0 1-.289-.411A1.707 1.707 0 0 1-2.7 0Zm-2.7-1.073c.018-.221.068-.431.145-.63.08-.2.18-.376.303-.526a1.41 1.41 0 0 1 .425-.356c.161-.089.333-.133.52-.133.337 0 .62.096.841.287.228.192.404.477.536.854h1.272a2.93 2.93 0 0 0-.988-1.687 2.609 2.609 0 0 0-1.673-.606c-.427 0-.816.088-1.161.264a2.717 2.717 0 0 0-.882.708 3.236 3.236 0 0 0-.56 1.035 3.915 3.915 0 0 0-.195 1.245c0 .408.064.799.195 1.174.131.373.318.703.56.988.243.288.535.515.882.683.345.167.734.252 1.161.252.414 0 .79-.079 1.127-.23.337-.156.621-.367.857-.635a2.83 2.83 0 0 0 .547-.948 3.57 3.57 0 0 0 .191-1.183v-.556z" style="fill:#002f87;fill-opacity:1;fill-rule:nonzero;stroke:none" transform="matrix(1.90213 0 0 -1.90213 561.419 85.104)"/><path d="M0 0v-1.194h-2.577v-7.177h-1.394v7.177H-6.55V0Z" style="fill:#002f87;fill-opacity:1;fill-rule:nonzero;stroke:none" transform="matrix(1.90213 0 0 -1.90213 585.818 76.314)"/><path d="M0 0a1.534 1.534 0 0 1-.14.524 1.238 1.238 0 0 1-.703.674 1.47 1.47 0 0 1-.527.092 1.13 1.13 0 0 1-.483-.104 1.474 1.474 0 0 1-.402-.28 1.536 1.536 0 0 1-.29-.411A1.738 1.738 0 0 1-2.7 0Zm-2.7-1.073c.018-.221.068-.431.145-.63.08-.2.18-.376.303-.526a1.46 1.46 0 0 1 .425-.356 1.06 1.06 0 0 1 .521-.133c.338 0 .619.096.84.287.228.192.405.477.536.854h1.273a2.906 2.906 0 0 0-.989-1.687 2.697 2.697 0 0 0-.789-.451 2.593 2.593 0 0 0-.882-.155c-.429 0-.816.088-1.163.264a2.703 2.703 0 0 0-.881.708c-.243.296-.43.642-.561 1.035a3.915 3.915 0 0 0-.195 1.245c0 .408.064.799.195 1.174.131.373.318.703.561.988.242.288.534.515.881.683.347.167.734.252 1.163.252.413 0 .788-.079 1.125-.23.337-.156.622-.367.857-.635a2.83 2.83 0 0 0 .547-.948 3.57 3.57 0 0 0 .191-1.183v-.556z" style="fill:#002f87;fill-opacity:1;fill-rule:nonzero;stroke:none" transform="matrix(1.90213 0 0 -1.90213 596.478 85.104)"/><path d="M0 0c-.107.4-.259.689-.44.865a.971.971 0 0 1-.703.268c-.211 0-.398-.052-.568-.158a1.354 1.354 0 0 1-.42-.422 2.046 2.046 0 0 1-.261-.614 2.79 2.79 0 0 1-.092-.724c0-.269.03-.529.092-.781.06-.252.147-.477.263-.674a1.56 1.56 0 0 1 .414-.479.905.905 0 0 1 .55-.179c.159 0 .304.036.429.111.127.074.239.174.331.301.094.131.174.277.236.443.063.165.11.342.146.531h1.435a3.744 3.744 0 0 0-.279-1.066 2.602 2.602 0 0 0-.548-.797A2.245 2.245 0 0 0-.2-3.876a2.724 2.724 0 0 0-1.001-.175c-.305 0-.584.045-.835.129a2.355 2.355 0 0 0-1.188.891c-.143.21-.262.434-.358.676a3.775 3.775 0 0 0-.214.761c-.046.268-.07.535-.07.809 0 .447.063.86.195 1.238.131.379.317.702.556.976.235.271.525.485.859.638a2.67 2.67 0 0 0 1.124.231c.365 0 .691-.06.975-.177.283-.118.532-.28.742-.485a2.62 2.62 0 0 0 .522-.73c.136-.28.239-.582.305-.906Z" style="fill:#002f87;fill-opacity:1;fill-rule:nonzero;stroke:none" transform="matrix(1.90213 0 0 -1.90213 608.99 84.76)"/><path d="M0 0v-2.927c.43.524.974.784 1.635.784.303 0 .579-.049.827-.149a1.863 1.863 0 0 0 1.035-1.033c.095-.236.142-.488.142-.755v-4.291H2.258v3.972c0 .189-.029.349-.076.488a.985.985 0 0 1-.204.332.803.803 0 0 1-.291.187.93.93 0 0 1-.341.062 1.2 1.2 0 0 1-.479-.108 1.524 1.524 0 0 1-.747-.741A1.27 1.27 0 0 1 0-4.722v-3.649h-1.377V0Z" style="fill:#002f87;fill-opacity:1;fill-rule:nonzero;stroke:none" transform="matrix(1.90213 0 0 -1.90213 617.502 76.314)"/><path d="M0 0h1.379v-.725c.254.299.524.515.813.648.286.132.577.198.868.198.306 0 .578-.048.818-.139a1.706 1.706 0 0 0 1.005-1.003c.089-.241.135-.505.135-.796v-4.292H3.624v4.07c0 .152-.022.287-.064.407a.972.972 0 0 1-.175.305.666.666 0 0 1-.261.192.797.797 0 0 1-.327.067c-.184 0-.359-.041-.532-.119a1.589 1.589 0 0 1-.77-.772 1.264 1.264 0 0 1-.116-.525v-3.625H0Z" style="fill:#002f87;fill-opacity:1;fill-rule:nonzero;stroke:none" transform="matrix(1.90213 0 0 -1.90213 628.437 80.618)"/><path d="M0 0c0-.271.034-.529.099-.771a2.05 2.05 0 0 1 .28-.632c.122-.181.272-.324.447-.429.178-.106.375-.16.592-.16.219 0 .417.054.592.16.178.105.326.248.453.429.123.18.219.39.288.632.068.242.103.5.103.771 0 .269-.035.523-.103.764a2.209 2.209 0 0 1-.288.638 1.442 1.442 0 0 1-.453.432c-.175.105-.373.16-.592.16-.217 0-.414-.055-.592-.16a1.403 1.403 0 0 1-.447-.432 2.097 2.097 0 0 1-.28-.638A2.918 2.918 0 0 1 0 0m-1.395 0c0 .432.064.842.189 1.229.126.384.31.722.548 1.013.239.289.533.519.883.687.345.169.744.252 1.193.252a2.7 2.7 0 0 0 1.192-.252 2.6 2.6 0 0 0 .886-.687c.239-.291.423-.629.55-1.013.127-.387.189-.797.189-1.229 0-.434-.06-.846-.186-1.229a3.056 3.056 0 0 0-.544-1.009 2.558 2.558 0 0 0-.882-.68 2.738 2.738 0 0 0-1.193-.25c-.45 0-.85.083-1.2.25a2.59 2.59 0 0 0-.883.68 3.126 3.126 0 0 0-.551 1.009A3.891 3.891 0 0 0-1.395 0" style="fill:#002f87;fill-opacity:1;fill-rule:nonzero;stroke:none" transform="matrix(1.90213 0 0 -1.90213 643.85 86.44)"/><path d="M404.276 80.772h-1.382v8.371h1.382z" style="fill:#002f87;fill-opacity:1;fill-rule:nonzero;stroke:none" transform="matrix(1.90213 0 0 -1.90213 -111.395 245.876)"/><path d="M0 0c0-.271.034-.529.099-.771a2.07 2.07 0 0 1 .277-.632c.125-.181.273-.324.451-.429.176-.106.373-.16.591-.16.218 0 .416.054.592.16.176.105.325.248.45.429.127.18.223.39.29.632.069.242.104.5.104.771 0 .269-.035.523-.104.764a2.063 2.063 0 0 1-.29.638 1.433 1.433 0 0 1-.45.432c-.176.105-.374.16-.592.16-.218 0-.415-.055-.591-.16a1.415 1.415 0 0 1-.451-.432A2.117 2.117 0 0 1 .099.764 2.918 2.918 0 0 1 0 0m-1.396 0c0 .432.064.842.19 1.229.125.384.306.722.547 1.013.24.289.533.519.883.687a2.69 2.69 0 0 0 1.194.252c.446 0 .842-.083 1.191-.252.351-.168.646-.398.888-.687.237-.291.422-.629.55-1.013.126-.387.188-.797.188-1.229 0-.434-.062-.846-.186-1.229a3.042 3.042 0 0 0-.546-1.009 2.517 2.517 0 0 0-.881-.68 2.735 2.735 0 0 0-1.193-.25c-.45 0-.848.083-1.199.25a2.576 2.576 0 0 0-.882.68 3.037 3.037 0 0 0-.552 1.009A3.891 3.891 0 0 0-1.396 0" style="fill:#002f87;fill-opacity:1;fill-rule:nonzero;stroke:none" transform="matrix(1.90213 0 0 -1.90213 663.277 86.44)"/><path d="M0 0a3.438 3.438 0 0 1-.097.744 2.15 2.15 0 0 1-.238.61 1.286 1.286 0 0 1-.379.414.89.89 0 0 1-.509.154c-.199 0-.383-.054-.554-.157a1.5 1.5 0 0 1-.443-.425 2.17 2.17 0 0 1-.293-.631 2.748 2.748 0 0 1-.105-.769c0-.276.035-.536.105-.784a2.2 2.2 0 0 1 .293-.644c.126-.184.273-.33.443-.438.171-.107.355-.162.554-.162.196 0 .367.054.523.158.15.107.279.25.382.431.103.179.182.391.237.636.056.242.081.504.081.779Zm1.378-3.047c0-.429-.073-.805-.221-1.126a2.35 2.35 0 0 0-.582-.809 2.417 2.417 0 0 0-.835-.493 2.895 2.895 0 0 0-.975-.166c-.293 0-.568.043-.828.127a2.248 2.248 0 0 0-.721.389c-.223.177-.422.4-.599.67a3.984 3.984 0 0 0-.446.968h1.357c.151-.347.326-.599.525-.751.203-.155.438-.233.712-.233.168 0 .326.034.48.104.148.067.28.161.395.283.112.123.2.267.263.436.065.168.097.351.097.552v.54a2.065 2.065 0 0 0-.677-.504 1.796 1.796 0 0 0-.763-.178c-.4 0-.753.08-1.07.248a2.37 2.37 0 0 0-.795.679 3.169 3.169 0 0 0-.498 1.012c-.112.385-.167.8-.167 1.239 0 .437.058.847.177 1.232.119.383.291.719.513 1.008.225.286.493.513.805.678.315.167.669.25 1.06.25.103 0 .213-.005.331-.02.115-.014.231-.046.353-.094.122-.047.242-.116.368-.208.123-.089.244-.21.363-.362v.564h1.378z" style="fill:#002f87;fill-opacity:1;fill-rule:nonzero;stroke:none" transform="matrix(1.90213 0 0 -1.90213 681.56 86.302)"/><path d="m0 0 1.347 4.032H2.76L.287-3.192a2.308 2.308 0 0 0-.308-.61 1.947 1.947 0 0 0-.398-.418 1.582 1.582 0 0 0-.437-.249 1.262 1.262 0 0 0-.415-.079 2.091 2.091 0 0 0-.914.259v1.097c.147-.08.274-.135.381-.164a.956.956 0 0 1 .259-.046c.096 0 .183.03.257.089a.744.744 0 0 1 .205.269c.063.121.124.274.186.459.059.188.127.41.2.671-.052.14-.102.284-.157.435-.05.149-.113.328-.187.534-.071.206-.157.448-.257.724-.099.281-.221.617-.362 1.01l-.502 1.387-.669 1.856h1.467z" style="fill:#002f87;fill-opacity:1;fill-rule:nonzero;stroke:none" transform="matrix(1.90213 0 0 -1.90213 691.99 88.288)"/><path d="M0 0h1.559c.284 0 .524.034.716.102.195.067.35.16.469.28.12.118.205.258.259.419.053.164.079.337.079.526 0 .186-.032.361-.097.518a1.082 1.082 0 0 1-.29.408 1.386 1.386 0 0 1-.477.268c-.19.064-.41.096-.659.096H0Zm-1.384 3.811h3.231c.421 0 .797-.074 1.122-.222.326-.149.599-.342.821-.579.225-.239.391-.506.504-.801A2.458 2.458 0 0 0 4.292.388a2.326 2.326 0 0 0-.508-.805 2.455 2.455 0 0 0-.819-.564 2.773 2.773 0 0 0-1.118-.212H0v-3.368h-1.384z" style="fill:#002f87;fill-opacity:1;fill-rule:nonzero;stroke:none" transform="matrix(1.90213 0 0 -1.90213 709.434 83.562)"/><path d="M0 0h1.02l.228-.75c.18.284.366.5.563.649.195.146.407.222.634.222.075 0 .186-.016.342-.046.153-.03.34-.108.559-.237V-1.38a3.97 3.97 0 0 1-.625.194c-.068.014-.12.023-.158.026a.985.985 0 0 1-.547-.106 1.076 1.076 0 0 1-.346-.289 1.385 1.385 0 0 1-.216-.425 1.685 1.685 0 0 1-.076-.504v-3.625H0Z" style="fill:#002f87;fill-opacity:1;fill-rule:nonzero;stroke:none" transform="matrix(1.90213 0 0 -1.90213 721.443 80.618)"/><path d="M0 0c0-.271.033-.529.098-.771.066-.242.157-.452.281-.632.122-.181.271-.324.446-.429.179-.106.377-.16.593-.16.22 0 .417.054.592.16.178.105.327.248.452.429.125.18.221.39.29.632.067.242.102.5.102.771 0 .269-.035.523-.102.764a2.16 2.16 0 0 1-.29.638 1.418 1.418 0 0 1-.452.432 1.13 1.13 0 0 1-.592.16c-.216 0-.414-.055-.593-.16a1.4 1.4 0 0 1-.446-.432A2.098 2.098 0 0 1 .098.764 2.919 2.919 0 0 1 0 0m-1.395 0c0 .432.064.842.188 1.229.127.384.31.722.55 1.013.238.289.532.519.882.687.345.169.744.252 1.193.252a2.7 2.7 0 0 0 1.192-.252c.352-.168.645-.398.887-.687.238-.291.421-.629.548-1.013A3.89 3.89 0 0 0 4.235 0c0-.434-.06-.846-.186-1.229a3.04 3.04 0 0 0-.545-1.009 2.545 2.545 0 0 0-.881-.68 2.741 2.741 0 0 0-1.193-.25c-.45 0-.85.083-1.2.25a2.603 2.603 0 0 0-.884.68 3.143 3.143 0 0 0-.55 1.009A3.891 3.891 0 0 0-1.395 0" style="fill:#002f87;fill-opacity:1;fill-rule:nonzero;stroke:none" transform="matrix(1.90213 0 0 -1.90213 732.103 86.44)"/><path d="M0 0h1.383v-.653c.233.271.48.467.733.591.254.122.496.183.73.183.142 0 .277-.016.405-.042.129-.028.255-.082.378-.159.119-.079.237-.188.355-.332.117-.141.235-.328.353-.561.143.21.289.384.44.524.153.14.303.252.458.336.155.084.309.144.462.179.157.036.308.055.46.055.302 0 .572-.055.818-.165.247-.112.452-.261.626-.454.17-.191.302-.418.397-.678.094-.261.141-.539.141-.841v-4.092H6.757v4.034c0 .196-.025.357-.073.487a.8.8 0 0 1-.185.311.696.696 0 0 1-.265.161.91.91 0 0 1-.294.048.945.945 0 0 1-.412-.102 1.268 1.268 0 0 1-.373-.282 1.501 1.501 0 0 1-.266-.425 1.36 1.36 0 0 1-.103-.535v-3.697H3.409v4.034c0 .196-.024.357-.073.487a.803.803 0 0 1-.188.311.704.704 0 0 1-.495.209.989.989 0 0 1-.498-.135 1.469 1.469 0 0 1-.404-.339 1.726 1.726 0 0 1-.27-.45 1.256 1.256 0 0 1-.098-.468v-3.649H0Z" style="fill:#002f87;fill-opacity:1;fill-rule:nonzero;stroke:none" transform="matrix(1.90213 0 0 -1.90213 743.58 80.618)"/><path d="M0 0c0-.271.034-.529.099-.771.063-.242.156-.452.278-.632.124-.181.273-.324.449-.429.176-.106.374-.16.593-.16.217 0 .415.054.591.16.177.105.325.248.451.429.125.18.223.39.289.632.069.242.104.5.104.771 0 .269-.035.523-.104.764a2.085 2.085 0 0 1-.289.638 1.436 1.436 0 0 1-.451.432c-.176.105-.374.16-.591.16-.219 0-.417-.055-.593-.16a1.42 1.42 0 0 1-.449-.432A2.07 2.07 0 0 1 .099.764 2.918 2.918 0 0 1 0 0m-1.395 0c0 .432.062.842.189 1.229.126.384.308.722.547 1.013.24.289.534.519.884.687.345.169.745.252 1.194.252.445 0 .841-.083 1.19-.252a2.64 2.64 0 0 0 .889-.687c.237-.291.421-.629.548-1.013A3.89 3.89 0 0 0 4.236 0c0-.434-.062-.846-.186-1.229a3.042 3.042 0 0 0-.546-1.009 2.524 2.524 0 0 0-.883-.68 2.73 2.73 0 0 0-1.191-.25c-.45 0-.849.083-1.199.25a2.603 2.603 0 0 0-.884.68c-.24.289-.425.625-.551 1.009A3.92 3.92 0 0 0-1.395 0" style="fill:#002f87;fill-opacity:1;fill-rule:nonzero;stroke:none" transform="matrix(1.90213 0 0 -1.90213 765.106 86.44)"/><path d="M0 0v-1.68h1.09v-1.158H0v-3.33c0-.168.037-.308.112-.419a.358.358 0 0 1 .316-.17 2.18 2.18 0 0 1 .791.187v-1.122a2.874 2.874 0 0 0-.686-.178A4.934 4.934 0 0 0 0-7.908a1.29 1.29 0 0 0-.976.439 1.603 1.603 0 0 0-.303.503 1.792 1.792 0 0 0-.116.654v3.474h-.837v1.158h.837V0Z" style="fill:#002f87;fill-opacity:1;fill-rule:nonzero;stroke:none" transform="matrix(1.90213 0 0 -1.90213 779.6 77.423)"/><path d="M472.415 80.772h-1.384v6.108h1.384zm0 6.957h-1.384v1.415h1.384z" style="fill:#002f87;fill-opacity:1;fill-rule:nonzero;stroke:none" transform="matrix(1.90213 0 0 -1.90213 -111.395 245.876)"/><path d="M0 0c0-.271.033-.529.098-.771.064-.242.156-.452.279-.632.124-.181.273-.324.449-.429a1.13 1.13 0 0 1 .592-.16c.218 0 .415.054.592.16.177.105.324.248.451.429.126.18.222.39.29.632.069.242.102.5.102.771 0 .269-.033.523-.102.764a2.11 2.11 0 0 1-.29.638 1.446 1.446 0 0 1-.451.432 1.14 1.14 0 0 1-.592.16 1.14 1.14 0 0 1-.592-.16 1.42 1.42 0 0 1-.449-.432A2.071 2.071 0 0 1 .098.764 2.919 2.919 0 0 1 0 0m-1.395 0c0 .432.062.842.188 1.229.126.384.309.722.548 1.013.241.289.533.519.883.687a2.69 2.69 0 0 0 1.194.252c.445 0 .842-.083 1.19-.252a2.64 2.64 0 0 0 .889-.687c.238-.291.421-.629.549-1.013.127-.387.19-.797.19-1.229 0-.434-.063-.846-.186-1.229a3.062 3.062 0 0 0-.547-1.009 2.526 2.526 0 0 0-.881-.68 2.738 2.738 0 0 0-1.193-.25c-.449 0-.848.083-1.198.25a2.593 2.593 0 0 0-.884.68c-.24.289-.425.625-.55 1.009A3.863 3.863 0 0 0-1.395 0" style="fill:#002f87;fill-opacity:1;fill-rule:nonzero;stroke:none" transform="matrix(1.90213 0 0 -1.90213 792.887 86.44)"/><path d="M0 0h1.378v-.725c.253.299.524.515.812.648.286.132.577.198.87.198.305 0 .577-.048.817-.139.239-.091.444-.222.616-.394a1.71 1.71 0 0 0 .389-.609c.089-.241.135-.505.135-.796v-4.292H3.622v4.07c0 .152-.022.287-.063.407a.953.953 0 0 1-.175.305.669.669 0 0 1-.262.192.787.787 0 0 1-.327.067c-.183 0-.359-.041-.53-.119a1.7 1.7 0 0 1-.454-.319 1.547 1.547 0 0 1-.316-.453 1.234 1.234 0 0 1-.117-.525v-3.625H0Z" style="fill:#002f87;fill-opacity:1;fill-rule:nonzero;stroke:none" transform="matrix(1.90213 0 0 -1.90213 804.206 80.618)"/><path d="m0 0-1.043-2.977h2.076Zm.806 1.759 2.987-8.371H2.355l-.889 2.449h-2.941a50.53 50.53 0 0 0-.431-1.228 60.937 60.937 0 0 1-.43-1.221h-1.441L-.79 1.759z" style="fill:#002f87;fill-opacity:1;fill-rule:nonzero;stroke:none" transform="matrix(1.90213 0 0 -1.90213 830.956 79.66)"/><path d="M0 0a3.437 3.437 0 0 1-.098.744 2.122 2.122 0 0 1-.239.61 1.261 1.261 0 0 1-.378.414.89.89 0 0 1-.508.154c-.199 0-.384-.054-.554-.157a1.519 1.519 0 0 1-.445-.425 2.248 2.248 0 0 1-.292-.631 2.748 2.748 0 0 1-.105-.769c0-.276.035-.536.105-.784a2.28 2.28 0 0 1 .292-.644c.126-.184.276-.33.445-.438.17-.107.355-.162.554-.162.195 0 .367.054.521.158.15.107.279.25.384.431.103.179.18.391.236.636.055.242.082.504.082.779Zm1.378-3.047c0-.429-.073-.805-.221-1.126A2.376 2.376 0 0 0-.262-5.475a2.902 2.902 0 0 0-.974-.166c-.293 0-.568.043-.828.127a2.222 2.222 0 0 0-.72.389 2.77 2.77 0 0 0-.599.67 3.948 3.948 0 0 0-.448.968h1.36c.149-.347.323-.599.525-.751.2-.155.437-.233.71-.233.168 0 .327.034.479.104.15.067.28.161.396.283.111.123.199.267.263.436.065.168.098.351.098.552v.54a2.086 2.086 0 0 0-.677-.504 1.798 1.798 0 0 0-.765-.178c-.398 0-.752.08-1.068.248a2.377 2.377 0 0 0-.797.679 3.207 3.207 0 0 0-.496 1.012c-.111.385-.169.8-.169 1.239 0 .437.06.847.178 1.232.12.383.291.719.512 1.008.225.286.494.513.808.678.313.167.667.25 1.058.25.103 0 .213-.005.332-.02.112-.014.23-.046.352-.094.121-.047.243-.116.368-.208.124-.089.242-.21.364-.362v.564h1.378z" style="fill:#002f87;fill-opacity:1;fill-rule:nonzero;stroke:none" transform="matrix(1.90213 0 0 -1.90213 848.762 86.302)"/><path d="M0 0c-.02.193-.066.367-.141.524a1.397 1.397 0 0 1-.285.411c-.12.113-.257.201-.419.263a1.462 1.462 0 0 1-.525.092c-.172 0-.335-.034-.485-.104a1.465 1.465 0 0 1-.691-.691A1.803 1.803 0 0 1-2.701 0Zm-2.701-1.073c.02-.221.069-.431.146-.63.08-.2.179-.376.301-.526.127-.151.265-.268.425-.356.163-.089.337-.133.523-.133.338 0 .616.096.84.287.226.192.403.477.536.854h1.271a2.902 2.902 0 0 0-.987-1.687 2.74 2.74 0 0 0-.79-.451 2.592 2.592 0 0 0-.881-.155c-.429 0-.818.088-1.164.264a2.752 2.752 0 0 0-.883.708 3.295 3.295 0 0 0-.56 1.035c-.13.393-.195.809-.195 1.245 0 .408.065.799.195 1.174.133.373.319.703.56.988.244.288.538.515.883.683.346.167.735.252 1.164.252.413 0 .788-.079 1.125-.23.337-.156.621-.367.857-.635s.418-.584.547-.948a3.57 3.57 0 0 0 .19-1.183v-.556z" style="fill:#002f87;fill-opacity:1;fill-rule:nonzero;stroke:none" transform="matrix(1.90213 0 0 -1.90213 862.365 85.104)"/><path d="M0 0h1.376v-.725c.255.299.524.515.813.648.287.132.578.198.87.198.306 0 .576-.048.819-.139A1.703 1.703 0 0 0 4.88-1.021c.091-.241.135-.505.135-.796v-4.292H3.622v4.07c0 .152-.022.287-.063.407-.045.12-.104.222-.175.305a.676.676 0 0 1-.262.192.797.797 0 0 1-.327.067c-.185 0-.359-.041-.53-.119a1.638 1.638 0 0 1-.454-.319 1.556 1.556 0 0 1-.319-.453 1.264 1.264 0 0 1-.116-.525v-3.625H0Z" style="fill:#002f87;fill-opacity:1;fill-rule:nonzero;stroke:none" transform="matrix(1.90213 0 0 -1.90213 868.324 80.618)"/><path d="M0 0c-.109.4-.259.689-.442.865a.968.968 0 0 1-.703.268c-.209 0-.398-.052-.567-.158a1.346 1.346 0 0 1-.421-.422 2.098 2.098 0 0 1-.261-.614 2.925 2.925 0 0 1-.092-.724c0-.269.033-.529.092-.781a2.43 2.43 0 0 1 .264-.674c.115-.199.254-.359.415-.479a.901.901 0 0 1 .55-.179c.157 0 .302.036.428.111.128.074.24.174.332.301.095.131.173.277.236.443.061.165.109.342.145.531h1.435a3.68 3.68 0 0 0-.28-1.066 2.58 2.58 0 0 0-.546-.797A2.263 2.263 0 0 0-.2-3.876a2.735 2.735 0 0 0-1.003-.175c-.305 0-.583.045-.834.129a2.368 2.368 0 0 0-1.187.891 3.26 3.26 0 0 0-.358.676 3.715 3.715 0 0 0-.216.761c-.045.268-.07.535-.07.809 0 .447.065.86.195 1.238.133.379.316.702.555.976.238.271.526.485.861.638a2.67 2.67 0 0 0 1.124.231c.365 0 .687-.06.973-.177.285-.118.533-.28.745-.485.212-.206.385-.45.521-.73.136-.28.239-.582.305-.906Z" style="fill:#002f87;fill-opacity:1;fill-rule:nonzero;stroke:none" transform="matrix(1.90213 0 0 -1.90213 888.415 84.76)"/><path d="m0 0 1.347 4.032h1.414L.287-3.192a2.37 2.37 0 0 0-.309-.61A1.996 1.996 0 0 0-.42-4.22a1.647 1.647 0 0 0-.435-.249 1.288 1.288 0 0 0-.418-.079 2.134 2.134 0 0 0-.915.259v1.097c.15-.08.278-.135.384-.164a.938.938 0 0 1 .257-.046c.096 0 .184.03.259.089a.767.767 0 0 1 .205.269c.061.121.124.274.183.459.061.188.128.41.203.671-.052.14-.105.284-.157.435-.053.149-.114.328-.188.534-.071.206-.157.448-.257.724-.099.281-.221.617-.364 1.01-.141.394-.31.857-.501 1.387-.19.531-.414 1.149-.666 1.856h1.463z" style="fill:#002f87;fill-opacity:1;fill-rule:nonzero;stroke:none" transform="matrix(1.90213 0 0 -1.90213 898.229 88.288)"/></svg>