<svg xmlns="http://www.w3.org/2000/svg" viewBox="0 0 419.832 79.702"><path fill="#58595B" d="M112.089 17.077c.752.86 1.343 1.801 1.774 2.822a8.19 8.19 0 0 1 .685 3.307c0 2.499-.913 4.665-2.742 6.491-1.854 1.854-4.099 2.782-6.734 2.782s-4.879-.928-6.732-2.782c-1.803-1.8-2.702-3.965-2.702-6.491 0-1.156.214-2.258.646-3.307a9.2 9.2 0 0 1 1.773-2.822h-3.588v-3.975h7.58V8.609h6.129v4.494h7.539v3.975h-3.628zM98.783 42.351v-8.138h5.766v8.162h20.846v3.975h-22.613a3.998 3.998 0 0 1-3.999-3.999zm3.593-15.43c.724 1.082 1.623 1.623 2.697 1.623 1.047 0 1.933-.541 2.658-1.623.697-1.08 1.046-2.359 1.046-3.832 0-1.507-.349-2.801-1.046-3.883-.726-1.08-1.611-1.621-2.658-1.621-1.073 0-1.973.541-2.697 1.621-.672 1.083-1.007 2.376-1.007 3.883 0 1.473.335 2.752 1.007 3.832zm22.172-1.588v11.339h-5.766V10.101h5.766v10.775h4.961v4.457h-4.961zM156.688 46.35V36.211h-21.572v-4.015h10.726v-5.985h-13.749v-4.055h24.595v-8.041h-21.531v-4.014h23.557a3.741 3.741 0 0 1 3.741 3.741v8.315h3.266v4.055h-13.789v5.985h6.783a3.741 3.741 0 0 1 3.741 3.741V46.35h-5.768zM225.257 12.723c-.241 5.054-2.137 8.288-5.684 11.352-3.145 2.715-7.137 4.315-11.976 4.798l-1.532-4.015c3.494-.268 6.371-1.223 8.629-2.863 2.42-1.774 3.75-4.098 3.992-7.799h-11.532v-3.975h18.145l-.042 2.502zm6.17 33.063c-2.07 1.8-4.557 2.702-7.46 2.702-2.93 0-5.402-.902-7.419-2.702-2.043-1.828-3.064-4.086-3.064-6.774 0-2.714 1.021-5 3.064-6.855 2.017-1.827 4.489-2.742 7.419-2.742 1.049 0 2.069.121 3.064.362.968.27 1.881.659 2.742 1.17V10.101h5.766v8.274h4.96v4.458h-4.96v8.879h-4.678a9.805 9.805 0 0 1 2.702 3.145 8.875 8.875 0 0 1 1.008 4.153c.001 2.689-1.047 4.948-3.144 6.776zm-4.113-10.949c-.941-1.071-2.057-1.608-3.347-1.608-1.317 0-2.419.536-3.306 1.608-.915 1.105-1.372 2.503-1.372 4.192 0 1.625.457 2.972 1.372 4.045.887 1.039 1.988 1.56 3.306 1.56s2.434-.521 3.347-1.56c.968-1.073 1.452-2.42 1.452-4.045 0-1.658-.484-3.054-1.452-4.192zM261.69 14.819c0 5.402-1.612 9.323-4.838 13.409-3.064 3.951-7.138 6.693-12.218 8.226l-2.419-3.974c4.112-1.155 7.351-3.212 9.717-6.169 2.474-3.09 3.71-6.841 3.71-12.073h-12.419v-3.975h18.467v4.556zm5.12 31.531V10.101h5.767V46.35h-5.767zM294.952 27.197c-2.016 1.991-4.462 2.984-7.338 2.984-2.93 0-5.417-.994-7.459-2.984-2.044-2.016-3.064-4.489-3.064-7.419 0-2.929 1.021-5.416 3.064-7.46 2.042-2.015 4.529-3.024 7.459-3.024 2.876 0 5.322 1.009 7.338 3.024 2.043 2.044 3.064 4.53 3.064 7.46 0 2.93-1.021 5.403-3.064 7.419zm-13.144 15.154v-9.187h5.766v9.17h20.564v4.015h-22.331a3.997 3.997 0 0 1-3.999-3.998zm9.071-27.352c-.886-1.228-1.975-1.842-3.266-1.842-1.344 0-2.473.614-3.387 1.842-.914 1.292-1.371 2.89-1.371 4.795 0 1.907.457 3.456 1.371 4.65.914 1.195 2.043 1.793 3.387 1.793 1.316 0 2.405-.598 3.266-1.793.914-1.194 1.372-2.744 1.372-4.65 0-1.905-.458-3.503-1.372-4.795zm16.411 8.924v12.75h-5.766V10.101h5.766v9.404h4.96v4.419h-4.96zM316.476 30.93l-2.379-3.733c2.392-.994 4.274-2.472 5.645-4.434 1.478-2.151 2.258-4.759 2.339-8.647h-6.572v-4.014h18.871v4.014h-6.613c.053 3.888.832 6.496 2.338 8.647 1.372 1.962 3.268 3.441 5.686 4.434l-2.38 3.733c-2.075-.695-7.473-5.037-8.468-6.757-1.048 1.721-6.373 6.034-8.467 6.757zm2.298 11.421v-9.187h5.767v9.17h20.967v4.015h-22.734a3.998 3.998 0 0 1-4-3.998zm13.952-20.162v-4.216h6.571v-7.872h5.767v26.572h-5.767V22.189h-6.571zM391.595 25.965v-11.85h12.742v-4.014h-18.509v15.88a3.999 3.999 0 0 0 3.999 3.998h16.845v-4.015h-15.077zM394.458 33.367h-5.767v8.984a4 4 0 0 0 3.999 3.999h22.37v-4.015h-20.603v-8.968zM414.912 19.303v-9.202h-5.767V36.673h5.767V23.721h4.92v-4.418zM348.995 29.027v-4.055h11.652v-6.384h5.767v6.384h7.177V14.115H352.06v-4.014h23.557a3.741 3.741 0 0 1 3.741 3.741v11.13h3.266v4.055h-33.629zM374.335 33.809c-2.359-1.604-5.211-2.403-8.557-2.397-3.407.007-6.27.816-8.587 2.429-2.381 1.64-3.567 3.664-3.56 6.077.009 2.437 1.207 4.482 3.598 6.135 2.327 1.628 5.195 2.44 8.603 2.434 3.346-.006 6.191-.83 8.541-2.466 2.411-1.663 3.611-3.712 3.604-6.15-.008-2.413-1.221-4.433-3.642-6.062zm-4.358 9.689c-1.111.92-2.496 1.383-4.15 1.386-1.69.003-3.111-.455-4.264-1.371-1.186-.946-1.781-2.152-1.786-3.617-.005-1.436.582-2.614 1.763-3.537 1.146-.892 2.564-1.339 4.253-1.342 1.622-.003 3.009.44 4.16 1.327 1.187.919 1.782 2.095 1.787 3.531.005 1.464-.582 2.673-1.763 3.623zM177.813 29.317h-8.678v-3.974h33.627v3.974H177.813zm-5.211-6.21-1.653-4.135c3.467-.403 6.33-1.518 8.588-3.346 2.204-1.801 3.333-3.912 3.387-6.332h5.968c.026 2.42 1.155 4.531 3.387 6.332 2.232 1.829 5.107 2.943 8.63 3.346l-1.694 4.135c-5.825-.899-11.828-4.672-13.305-6.635-1.508 1.963-7.171 5.614-13.308 6.635zM194.48 33.809c-2.359-1.604-5.211-2.403-8.556-2.397-3.408.007-6.27.816-8.587 2.429-2.381 1.64-3.567 3.664-3.56 6.077.008 2.437 1.206 4.482 3.597 6.135 2.328 1.628 5.196 2.44 8.603 2.434 3.345-.006 6.191-.83 8.541-2.466 2.411-1.663 3.612-3.712 3.604-6.15-.007-2.413-1.221-4.433-3.642-6.062zm-4.357 9.689c-1.111.92-2.496 1.383-4.151 1.386-1.691.003-3.112-.455-4.263-1.371-1.187-.946-1.781-2.152-1.787-3.617-.005-1.436.582-2.614 1.763-3.537 1.146-.892 2.564-1.339 4.253-1.342 1.623-.003 3.009.44 4.161 1.327 1.186.919 1.782 2.095 1.787 3.531.004 1.464-.584 2.673-1.763 3.623zM98.783 56.219h2.86v6.614h.068l4.447-6.614h3.285l-5.296 7.351 5.72 8.246h-3.463l-4.693-7.329h-.068v7.329h-2.86V56.219z"/><path fill="#58595B" d="M109.8 60.454c.328-1.021.783-1.862 1.364-2.526.579-.662 1.243-1.151 1.987-1.463a6.057 6.057 0 0 1 2.37-.47c.834 0 1.622.156 2.369.47.744.312 1.408.801 1.989 1.463.581.664 1.034 1.505 1.362 2.526.328 1.02.491 2.209.491 3.564 0 1.357-.163 2.545-.491 3.564-.328 1.021-.781 1.859-1.362 2.515a5.624 5.624 0 0 1-1.989 1.463c-.747.32-1.535.48-2.369.48-.836 0-1.625-.16-2.37-.48a5.603 5.603 0 0 1-1.987-1.463c-.581-.656-1.036-1.494-1.364-2.515-.328-1.019-.491-2.207-.491-3.564 0-1.355.163-2.545.491-3.564zm2.704 6.257c.163.751.394 1.354.693 1.809.297.455.64.79 1.028 1.007a2.61 2.61 0 0 0 1.296.324c.476 0 .907-.108 1.296-.324.387-.217.73-.556 1.027-1.018.299-.462.53-1.065.693-1.81.165-.746.246-1.639.246-2.682s-.081-1.939-.246-2.693c-.163-.751-.394-1.355-.693-1.81-.297-.455-.64-.79-1.027-1.006a2.619 2.619 0 0 0-1.296-.324c-.479 0-.909.108-1.296.324-.389.216-.731.556-1.028 1.018-.299.462-.53 1.065-.693 1.81-.165.746-.246 1.639-.246 2.682.001 1.043.081 1.941.246 2.693zM124.281 56.219h4.871c1.445 0 2.581.339 3.408 1.016.827.678 1.241 1.71 1.241 3.096 0 .997-.28 1.824-.838 2.48-.559.654-1.285 1.05-2.18 1.184v.066c.357.061.678.213.96.459.284.246.538.697.761 1.353l2.033 5.943h-3.04l-1.542-5.073c-.178-.596-.448-1.018-.805-1.263-.357-.246-.812-.369-1.362-.369h-.649v6.704h-2.86V56.219zm4.022 6.792c.79 0 1.412-.2 1.866-.603.455-.401.682-.99.682-1.766 0-.849-.209-1.433-.627-1.754-.416-.319-1.058-.48-1.921-.48h-1.162v4.604h1.162zM136.839 56.219h8.202v2.279h-5.342v4.156h5.051v2.281h-5.051v4.603h5.566v2.279h-8.426V56.219zM155.835 68.062h-5.364l-1.119 3.754h-2.86l5.23-15.597h3.128l5.029 15.597h-2.95l-1.094-3.754zm-.605-2.189-1.965-7.285h-.046l-2.145 7.285h4.156zM167.478 56.219h8.202v2.279h-5.342v4.156h5.05v2.281h-5.05v4.603h5.565v2.279h-8.425V56.219zM178.518 56.219h2.859v13.318h5.141v2.279h-8V56.219zM188.573 56.219h8.202v2.279h-5.342v4.156h5.05v2.281h-5.05v4.603h5.565v2.279h-8.426V56.219zM198.273 56.219h3.083l3.151 12.022h.044l3.239-12.022h2.952l-4.761 15.597h-3.018l-4.69-15.597zM219.278 68.062h-5.363l-1.119 3.754h-2.859l5.23-15.597h3.127l5.029 15.597h-2.95l-1.095-3.754zm-.605-2.189-1.966-7.285h-.046l-2.145 7.285h4.157zM226.184 58.498h-3.487v-2.279h9.81v2.279h-3.463v13.318h-2.859V58.498zM233.492 60.454c.328-1.021.782-1.862 1.363-2.526.579-.662 1.243-1.151 1.987-1.463a6.057 6.057 0 0 1 2.37-.47c.835 0 1.623.156 2.369.47.744.312 1.407.801 1.989 1.463.581.664 1.033 1.505 1.361 2.526.328 1.02.492 2.209.492 3.564 0 1.357-.164 2.545-.492 3.564-.328 1.021-.78 1.859-1.361 2.515a5.633 5.633 0 0 1-1.989 1.463 5.94 5.94 0 0 1-2.369.48c-.836 0-1.624-.16-2.37-.48a5.612 5.612 0 0 1-1.987-1.463c-.581-.656-1.035-1.494-1.363-2.515-.328-1.019-.492-2.207-.492-3.564-.001-1.355.164-2.545.492-3.564zm2.704 6.257c.163.751.394 1.354.692 1.809.297.455.64.79 1.028 1.007.387.216.817.324 1.296.324.477 0 .908-.108 1.296-.324.388-.217.73-.556 1.027-1.018.299-.462.529-1.065.693-1.81.164-.746.245-1.639.245-2.682s-.081-1.939-.245-2.693c-.164-.751-.395-1.355-.693-1.81-.297-.455-.64-.79-1.027-1.006s-.818-.324-1.296-.324c-.479 0-.909.108-1.296.324-.389.216-.731.556-1.028 1.018-.299.462-.529 1.065-.692 1.81-.166.746-.246 1.639-.246 2.682s.08 1.941.246 2.693zM247.972 56.219h4.871c1.444 0 2.581.339 3.407 1.016.827.678 1.241 1.71 1.241 3.096 0 .997-.28 1.824-.838 2.48-.559.654-1.284 1.05-2.18 1.184v.066c.357.061.679.213.961.459.284.246.537.697.761 1.353l2.033 5.943h-3.039l-1.542-5.073c-.178-.596-.447-1.018-.805-1.263-.358-.246-.812-.369-1.362-.369h-.65v6.704h-2.859V56.219zm4.022 6.792c.791 0 1.412-.2 1.867-.603.454-.401.682-.99.682-1.766 0-.849-.209-1.433-.627-1.754-.416-.319-1.058-.48-1.922-.48h-1.162v4.604h1.162zM266.139 68.801c.389.238.869.457 1.443.658a5.593 5.593 0 0 0 1.864.302c.671 0 1.233-.19 1.689-.57.455-.379.682-.942.682-1.687 0-.522-.15-.942-.447-1.263-.299-.321-.826-.689-1.588-1.107l-1.451-.803c-.82-.447-1.448-1.003-1.889-1.667-.439-.662-.66-1.47-.66-2.423 0-1.342.474-2.383 1.419-3.129.946-.744 2.112-1.117 3.498-1.117.64 0 1.206.048 1.699.145.491.098.961.22 1.408.369l.156.044-.134 2.392s-.068-.022-.158-.067a11.655 11.655 0 0 0-1.351-.447 5.861 5.861 0 0 0-1.419-.156c-.701 0-1.238.169-1.609.502-.373.335-.56.779-.56 1.331 0 .521.136.924.403 1.207.267.282.685.581 1.25.895l1.678.938c.968.535 1.66 1.109 2.077 1.719.417.611.627 1.439.627 2.48 0 1.52-.48 2.682-1.443 3.487-.96.805-2.222 1.207-3.787 1.207-1.593 0-2.779-.231-3.553-.693l.156-2.547zM285.337 68.062h-5.364l-1.118 3.754h-2.86l5.23-15.597h3.128l5.028 15.597h-2.949l-1.095-3.754zm-.604-2.189-1.966-7.285h-.046l-2.145 7.285h4.157zM291.168 56.219h7.889v2.279h-5.028v4.246h4.805v2.279h-4.805v6.794h-2.86V56.219zM301.516 56.219h8.201v2.279h-5.342v4.156h5.051v2.281h-5.051v4.603h5.566v2.279h-8.426V56.219zM314.992 58.498h-3.486v-2.279h9.81v2.279h-3.463v13.318h-2.86V58.498zM326.567 65.56l-4.603-9.34h3.084l3.039 6.235 2.86-6.235h3.083l-4.603 9.408v6.189h-2.86V65.56zM348.265 68.062h-5.364l-1.118 3.754h-2.859l5.23-15.597h3.127l5.028 15.597h-2.949l-1.095-3.754zm-.604-2.189-1.966-7.285h-.046l-2.145 7.285h4.157zM359.752 63.079h5.051v8.156c-.447.238-1.029.433-1.743.581-.716.148-1.542.224-2.48.224-1.224 0-2.313-.198-3.274-.592-.961-.394-1.766-.953-2.413-1.676a7.338 7.338 0 0 1-1.476-2.548c-.336-.975-.502-2.044-.502-3.207 0-1.162.166-2.231.502-3.206a7.332 7.332 0 0 1 1.476-2.548c.647-.722 1.452-1.282 2.413-1.676.961-.394 2.051-.592 3.274-.592.805 0 1.545.07 2.224.213.678.141 1.202.293 1.574.457l-.155 2.57a6.69 6.69 0 0 0-1.654-.704 7.227 7.227 0 0 0-1.944-.257c-1.475 0-2.622.537-3.441 1.61-.819 1.072-1.228 2.451-1.228 4.134 0 1.773.391 3.173 1.174 4.202.781 1.026 1.895 1.541 3.34 1.541.625 0 1.177-.097 1.653-.291v-4.2h-2.368v-2.191zM368.02 56.219h8.202v2.279h-5.342v4.156h5.05v2.281h-5.05v4.603h5.565v2.279h-8.426V56.219zM379.172 56.219h3.396l5.185 12.246h.044V56.219h2.592v15.597h-3.418l-5.163-12.156h-.044v12.156h-2.592V56.219zM403.596 71.481c-.297.165-.759.299-1.384.403-.627.104-1.289.156-1.989.156-1.162 0-2.19-.202-3.084-.604a6.277 6.277 0 0 1-2.258-1.686 7.234 7.234 0 0 1-1.373-2.548c-.307-.976-.459-2.037-.459-3.185 0-1.147.152-2.209.459-3.184a7.487 7.487 0 0 1 1.361-2.56 6.078 6.078 0 0 1 2.235-1.687c.887-.394 1.895-.592 3.028-.592.7 0 1.348.066 1.943.2.596.136 1.104.284 1.52.447l-.156 2.57-.178-.09a8.926 8.926 0 0 0-1.285-.546c-.425-.141-.92-.212-1.486-.212-.61 0-1.181.108-1.71.324-.528.216-.994.55-1.395 1.005-.403.455-.721 1.043-.949 1.765-.233.722-.347 1.577-.347 2.559 0 .983.113 1.837.347 2.56.228.722.546 1.311.949 1.765.401.455.867.79 1.395 1.005.529.216 1.1.324 1.71.324.656 0 1.225-.069 1.711-.212a3.923 3.923 0 0 0 1.238-.592l.157 2.615zM409.228 65.56l-4.603-9.34h3.084l3.039 6.235 2.86-6.235h3.083l-4.602 9.408v6.189h-2.86V65.56z"/><linearGradient id="a" x1="60.5539" x2="39.3003" y1="73.8985" y2="37.0862" gradientUnits="userSpaceOnUse"><stop offset="0" style="stop-color:#00bff2"/><stop offset="0.6" style="stop-color:#0094d9"/><stop offset="0.6997" style="stop-color:#0088ce"/><stop offset="0.8769" style="stop-color:#006ab2"/><stop offset="1" style="stop-color:#00519b"/></linearGradient><path fill="url(#a)" d="M29.88 77.696c-4.945 0-9.622-1-13.727-2.799 7.73 3.491 16.049 4.805 23.698 4.805 21.919 0 39.851-17.842 39.851-39.851a39.66 39.66 0 0 0-5.332-19.924 2.67 2.67 0 0 0-3.646-.983L47.641 32.271c-1.13.652-.997 2.327.225 2.786 5.334 2.007 9.382 5.956 10.839 10.761a21.565 21.565 0 0 1 1.056 6.646C59.76 66.399 46.382 77.696 29.88 77.696z"/><linearGradient id="b" x1="-2111.1223" x2="-2073.6396" y1="-1954.1881" y2="-1954.1881" gradientTransform="rotate(180 -1027.688 -946.24)" gradientUnits="userSpaceOnUse"><stop offset="0" style="stop-color:#58595b"/><stop offset="0.5" style="stop-color:#a6a8ab"/><stop offset="1" style="stop-color:#c5c7c9"/></linearGradient><path fill="url(#b)" d="M29.88 77.696c16.502 0 29.88-11.296 29.88-25.231a21.57 21.57 0 0 0-1.087-6.747c.404 1.295.621 2.652.621 4.053 0 8.918-8.704 16.148-19.443 16.148-5.971 0-11.311-2.237-14.877-5.755a1.543 1.543 0 0 0-2.264.115L13.378 71.4a1.549 1.549 0 0 0 .443 2.356c4.625 2.513 10.151 3.94 16.059 3.94z"/><linearGradient id="c" x1="22.3646" x2="40.1316" y1="11.3743" y2="42.1477" gradientUnits="userSpaceOnUse"><stop offset="0" style="stop-color:#fbae16"/><stop offset="0.6" style="stop-color:#f26f20"/><stop offset="1" style="stop-color:#ee4022"/></linearGradient><path fill="url(#c)" d="M49.822 2.006c4.945 0 9.622 1 13.727 2.799C55.819 1.314 47.499 0 39.851 0 17.932 0 0 17.842 0 39.851a39.66 39.66 0 0 0 5.332 19.924 2.67 2.67 0 0 0 3.646.983l23.084-13.327c1.13-.653.997-2.327-.225-2.787-5.334-2.007-9.382-5.956-10.838-10.76a21.565 21.565 0 0 1-1.056-6.646C19.942 13.302 33.32 2.006 49.822 2.006z"/><linearGradient id="d" x1="23.9544" x2="61.437" y1="17.9951" y2="17.9951" gradientUnits="userSpaceOnUse"><stop offset="0" style="stop-color:#58595b"/><stop offset="0.5" style="stop-color:#a6a8ab"/><stop offset="1" style="stop-color:#c5c7c9"/></linearGradient><path fill="url(#d)" d="M49.822 2.006c-16.502 0-29.88 11.296-29.88 25.231 0 2.338.382 4.599 1.087 6.748a13.573 13.573 0 0 1-.621-4.053c0-8.919 8.705-16.148 19.443-16.148 5.971 0 11.311 2.236 14.877 5.755.64.632 1.686.574 2.264-.115l9.331-11.121a1.55 1.55 0 0 0-.443-2.357c-4.625-2.512-10.15-3.94-16.058-3.94z"/></svg>