<svg xmlns="http://www.w3.org/2000/svg" width="741.26776pt" height="75pt" viewBox="0 0 741.26776 74.999999"><path fill="#201c70" d="M-259.58 267.924h13.568V223.65h-13.567zM-199.561 233.63h12.89v34.294h13.575v-34.295h13.118v-9.979h-39.583zM-140.033 250.584h18.146v-9.596h-18.146v-7.617h20.315v-9.723h-33.87v44.274h33.87v-9.716h-20.315zM-279.72 223.65l-15.684 22.135 15.683 22.138h14.846l-15.71-22.138 15.71-22.136zM-296.378 223.65h-13.408v44.279h13.408zM-96.756 223.65h-16.715v44.273h13.418v-35.339h3.558c5.098 0 6.314 2.23 6.314 5.513 0 3.812-1.067 6.182-6.314 6.182h-3.558l4.759 8.952c17.252-.283 18.526-10.763 18.526-15.39 0-4.535-2.074-14.192-19.988-14.192" style="stroke-width:2.44053" transform="matrix(.87649 0 0 .87649 271.524 -161.813)"/><path fill="#f15a22" d="M-309.786 197.16v11.634a554.49 554.49 0 0 1 116.506-12.54 554.524 554.524 0 0 1 116.513 12.54V197.16a553.723 553.723 0 0 0-116.513-12.545 553.69 553.69 0 0 0-116.506 12.545" style="stroke-width:2.44053" transform="matrix(.87649 0 0 .87649 271.524 -161.813)"/><path fill="#201c70" d="M-216.31 241.123c-6.38-2.104-9.074-3.024-9.074-5.257 0-1.975 2.25-3.283 6.37-3.283 0 0 7.431-.298 13.586 2.5v-9.936c-3.267-1.279-7.558-2.226-13.435-2.226-12.742 0-20.312 6.05-20.312 13.865 0 6.636 5.696 10.775 14.243 13.398 5.693 1.714 7.941 2.96 7.941 5.067 0 2.23-2.248 3.673-6.892 3.673 0 0-8.144.327-14.81-2.765v10.089c3.157.961 9.363 2.406 13.983 2.406 14.765 0 21.515-6.506 21.515-14.133 0-6.172-4.05-10.511-13.115-13.398" style="stroke-width:2.44053" transform="matrix(.87649 0 0 .87649 271.524 -161.813)"/><path fill="#404041" d="M97.965 228.453v-13.657c0-.442-.55-.55-.545-.55 0 0-6.218-.556-7.826-.695v34.243l-.19.056c-2.537.769-6.005 1.208-9.514 1.208H69.252v-17.34c0-.405-.5-.5-.49-.5 0 0-5.81-.515-7.35-.65v18.49H53.73c.32 1.057 1.16 3.868 1.16 3.868.092.281.226.676 1.405.676H79.49c3.307 0 6.855-.659 9.73-1.867l.374-.16v16.417h8.37v-35.024h8.972v-4.515h-8.703ZM40.67 234.703l.324-.432c1.137-1.515 2.135-5.542 2.135-8.61v-11.824H5.484c.312 1.056 1.152 3.873 1.152 3.873.09.256.227.651 1.406.651l26.653-.014v7.514c0 2.475-.113 6.058-1.079 8.669l-.063.173H-.632c.312 1.057 1.15 3.873 1.15 3.873.092.259.239.652 1.413.652l18.08-.01v9.374H5.283c.317 1.06 1.152 3.87 1.152 3.87.095.264.232.652 1.406.652l26.723-.01v14.888H43v-19.4H28.445v-9.374h21.13v-4.515zM155.052 224.734V214.72c0-.451-.556-.554-.551-.554 0 0-6.275-.564-7.888-.705v31.407h8.44v-15.554h8.966v-4.58h-8.703zM120.291 232.77c0-4.254 2.529-7.839 5.521-7.839 2.987 0 5.513 3.585 5.513 7.84 0 4.363-2.47 7.916-5.513 7.916-2.992 0-5.52-3.629-5.52-7.917m19.006 0c0-3.343-1.566-6.452-4.42-8.759l-.59-.476h7.073v-4.385H129.995v-5.296c0-.444-.552-.557-.547-.557l-7.887-.698v6.551H110.29c.31 1.035 1.11 3.75 1.11 3.75.1.262.225.633 1.365.633l1.252.002h3.234l-.571.469c-2.77 2.296-4.36 5.493-4.36 8.766 0 6.67 6.056 12.098 13.492 12.098 7.436 0 13.486-5.428 13.486-12.098M117.355 252.915c.093.276.23.652 1.399.652l1.886.005h25.972v14.35h8.44v-18.865H116.2c.317 1.054 1.154 3.859 1.154 3.859M505.171 217.556c2.873 0 5.123 2.975 5.123 6.773 0 3.804-2.25 6.784-5.123 6.784-2.902 0-5.186-2.98-5.186-6.784 0-3.798 2.284-6.773 5.186-6.773m0 17.801c7.417 0 13.225-4.842 13.225-11.028 0-6.114-5.935-11.095-13.225-11.095-7.324 0-13.289 4.981-13.289 11.095 0 6.186 5.838 11.028 13.289 11.028M-45.388 233.703c0-4.283 2.638-8.041 5.647-8.041 3.068 0 5.655 3.675 5.655 8.041 0 4.393-2.587 8.11-5.655 8.11-3.009 0-5.647-3.79-5.647-8.11m19.27 0c0-3.58-1.803-6.965-4.944-9.288l-.652-.486h7.524v-4.513H-35.558v-5.296c0-.446-.544-.554-.544-.554s-6.28-.563-7.89-.7v6.55h-11.363v4.513H-47.763l-.651.486c-3.146 2.323-4.95 5.708-4.95 9.288 0 6.778 6.114 12.293 13.623 12.293 7.515 0 13.623-5.515 13.623-12.293M244.52 226.346l.235-.498.246.493c2.475 4.94 12.247 8.39 19.527 8.422l3.673-3.336c-9.194-.33-19.19-6.077-19.19-13.608v-3.022c0-.451-.554-.564-.55-.564 0 0-6.33-.558-7.95-.705v4.29c0 7.532-9.992 13.28-19.195 13.609l3.675 3.336c7.36-.032 17.155-3.482 19.53-8.417M516.501 249.23c.078.23.195.552 1.203.552h9.804v5.05h8.43v-40.049c0-.445-.552-.552-.547-.552l-7.883-.703v32.337h-12.012c.285.962 1.005 3.358 1.005 3.366M-36.882 263.41v-11.476c0-.45-.556-.557-.547-.557l-7.892-.7v11.532c0 3.47 2.323 5.715 5.913 5.715h30.834v-4.515z" style="stroke-width:2.44053" transform="matrix(.87649 0 0 .87649 271.524 -161.813)"/><path fill="#404041" d="m57.82 219.822 18.28-.01v11.631c0 6.463-.098 10.114-2.19 13.823h7.16c2.431-3.741 3.469-8.044 3.469-14.357v-15.612H55.262c.312 1.061 1.154 3.868 1.154 3.868.098.28.232.656 1.404.656M-10.499 226.127v-11.405c0-.451-.556-.556-.546-.556l-7.893-.706v40.113h8.44v-22.865h8.966v-4.581zM426.979 214.354l-7.888-.705v8.559h-7.441v4.38h7.441v4.391h-7.441v4.379h7.441v9.573h8.437v-30.023c0-.449-.554-.554-.55-.554M169.827 219.154c.102.276.234.654 1.398.654l1.482.005h13.754v1.396c0 14.216-7.3 23.2-20.583 25.353l4.31 3.153c12.564-.81 25.24-11.068 25.24-29.172v-5.247h-26.75c.316 1.057 1.149 3.858 1.149 3.858M411.18 265.54c-3.422 0-6.312-3.656-6.312-7.983 0-4.317 2.949-8.108 6.312-8.108 3.365 0 6.32 3.79 6.32 8.108 0 4.254-2.955 7.983-6.32 7.983m0-20.67c-8.059 0-14.617 5.69-14.617 12.687 0 6.968 6.558 12.627 14.617 12.627 8.066 0 14.623-5.66 14.623-12.627 0-6.997-6.557-12.686-14.623-12.686" style="stroke-width:2.44053" transform="matrix(.87649 0 0 .87649 271.524 -161.813)"/><path fill="#404041" d="M401.017 220.146v17.349h-5.583v-17.62h5.583zm13.82 17.35H409.316V219.874H414.438v-4.442h-32.203a960.845 960.845 0 0 1 1.135 3.793c.092.273.226.639 1.374.639l.368.01h2.013V237.496h-5.222l1.135 3.802c.097.273.227.647 1.378.647h30.422zM477.286 226.06v-11.277c0-.444-.556-.551-.547-.551l-7.887-.706V267.992h8.434v-37.416H486.253v-4.515h-8.703zM500.588 242.033h.263v8.151h8.442v-8.151h13.752v-4.207h-34.323c.3 1.003 1.064 3.575 1.064 3.575.088.249.21.632 1.289.632h.644zM434.453 215.296c.312 1.056 1.15 3.863 1.15 3.863.097.273.231.654 1.403.654H452.303v1.396c0 14.209-7.327 23.19-20.647 25.352l4.373 3.153c12.52-.81 25.172-11.067 25.172-29.171v-5.247h-23.214zM220.532 241.893c.098.274.234.645 1.381.645h18.665v4.327h-13.93l1.15 3.86c.097.272.231.647 1.398.647l2.106.005H255.261v3.859H227.153v7.04c0 3.418 2.402 5.714 5.98 5.714h31.629v-4.515h-29.174v-3.988H263.698v-12.622H249.01v-4.327H270.207v-4.447h-50.805c.315 1.045 1.13 3.803 1.13 3.803M275.203 219.154c.098.276.235.654 1.401.654l1.672.005h13.562v1.396c0 14.216-7.305 23.2-20.584 25.353l4.308 3.153c12.561-.81 25.24-11.068 25.24-29.172v-5.247h-26.748c.312 1.057 1.15 3.858 1.15 3.858M343.54 236.03c-2.608 0-4.983-3.074-4.983-6.447 0-3.376 2.375-6.448 4.984-6.448 2.662 0 4.986 3.011 4.986 6.448 0 3.431-2.324 6.448-4.986 6.448m29.418-21.316c0-.447-.552-.55-.547-.55l-7.87-.704v28.668l-.174.064c-2.497.957-6.092 1.479-10.128 1.479h-6.446v-4.325l.196-.053c5.008-1.404 8.378-5.309 8.378-9.711 0-2.385-.984-4.591-2.846-6.385l-.476-.463h6.641v-4.381h-11.893v-.269l-.02-2.609v-1.364c0-.449-.546-.554-.546-.554l-7.87-.7v5.496h-11.805c.307 1.037 1.115 3.75 1.115 3.75.093.267.224.63 1.364.63h4.005l-.476.464c-1.86 1.794-2.843 4-2.843 6.385 0 4.346 3.395 8.249 8.444 9.71l.195.06v4.319H326.95c.31 1.027 1.103 3.692 1.103 3.692.093.264.224.62 1.34.62l.961.002h23.554c3.558 0 7.385-.808 10.255-2.164l.378-.179v3.144h8.44l-.022-32.357zM212.097 214.231s-6.277-.558-7.887-.705v54.465h8.437v-53.208c0-.447-.554-.552-.55-.552M317.467 214.231s-6.275-.558-7.888-.705v54.465h8.44v-53.208c0-.447-.557-.552-.552-.552M334.668 255.985c.092.268.229.644 1.38.644h28.494v11.295h8.44v-15.741h-39.45c.313 1.044 1.136 3.802 1.136 3.802M507.3 263.41h-.264v-8.66c0-.449-.56-.556-.55-.556l-7.892-.7v8.783c0 3.417 2.404 5.713 5.982 5.713h31.36v-4.58z" style="stroke-width:2.44053" transform="matrix(.87649 0 0 .87649 271.524 -161.813)"/></svg>