<svg xmlns="http://www.w3.org/2000/svg" width="774.338pt" height="179.334pt" viewBox="0 0 774.338 179.334"><clipPath id="a"><path d="M0 0h774.338v179.334H0Z"/></clipPath><g clip-path="url(#a)"><path fill="#f7941d" d="M627.5 58.766v17.668c0-3.897 4.346-7.494 11.686-10.43 0 0 .951-.371 1.328-.513 5.189-2.137 8.203-5.731 8.203-11.993v-8.183c-12.994 3.267-21.217 8.082-21.217 13.45M677.822 26.326c0 6.051-4.896 10.955-10.947 10.955-6.049 0-10.95-4.904-10.95-10.955 0-6.05 4.901-10.955 10.95-10.955 6.051 0 10.947 4.904 10.947 10.955M689.102 40.94c-5.775 0-13.33.23-18.613.826-8.77.998-14.35 7.219-14.35 16.256v58.86c0 3.55 4.799 6.42 10.736 6.42 5.928 0 10.739-2.87 10.739-6.42v-54.42c0-2.005 1.595-3.425 3.588-3.683 2.597-.105 5.21-.172 7.9-.172 34.023 0 61.607 7.983 61.607 17.827V58.766c0-9.842-27.584-17.826-61.607-17.826"/><path fill="#0054a6" d="M724.498 73.357v8.057c0 4.37 4.404 8.623 10.883 6.777 9.537-3.137 15.328-7.252 15.328-11.758V58.765c0 6.037-10.371 11.365-26.211 14.592M717.291 60.861c0 6.051-4.908 10.955-10.957 10.955-6.051 0-10.953-4.904-10.953-10.955 0-6.047 4.902-10.957 10.953-10.957 6.049 0 10.957 4.91 10.957 10.957M700.644 76.283s-7.587.312-11.543.312c-34.023 0-61.601-7.984-61.601-17.83v17.668c0 9.846 27.578 17.827 61.601 17.827.947 0 2.79-.02 2.79-.02a3.706 3.706 0 0 1 3.705 3.707v59.59c0 3.551 4.804 6.426 10.737 6.426 5.928 0 10.744-2.875 10.744-6.426V92.711c0-9.076-7.36-17.145-16.433-16.428M271.92 73.928h-4.561V55.682h-8.57v59.85a4.29 4.29 0 0 0 4.287 4.289 4.288 4.288 0 0 0 4.283-4.288v-34.86h4.56v34.86a4.29 4.29 0 0 0 4.278 4.288 4.291 4.291 0 0 0 4.287-4.288V55.682h-8.564ZM389.303 94.834a4.796 4.796 0 0 0 4.795 4.793 4.783 4.783 0 0 0 4.779-4.793V64.908c0-3.191-2.592-5.781-5.771-5.781h-38.643v6.746h34.84ZM77.822 112.469H46.67V98.074h-9.565v15.358a5.774 5.774 0 0 0 5.772 5.78h34.945a3.377 3.377 0 0 0 3.38-3.376 3.364 3.364 0 0 0-3.38-3.367M85.205 72.762H79.47v-17.08h-9.58v41.176a4.791 4.791 0 0 0 9.58 0V79.51h5.736a3.363 3.363 0 0 0 3.36-3.375 3.37 3.37 0 0 0-3.36-3.373M217.52 67.639h-5.728V55.682h-9.57v29.594a4.79 4.79 0 0 0 4.79 4.793 4.787 4.787 0 0 0 4.78-4.793V74.393h5.727a3.376 3.376 0 0 0 3.37-3.381 3.375 3.375 0 0 0-3.37-3.373M61.06 78.242c0-2.006-.582-3.736-1.895-5.293-1.532-1.809-5.025-2.049-6.474-.498-1.338 1.424-1.445 2.848-.957 5.074.957 4.41-2.373 9.221-7.207 9.221-4.072 0-7.35-3.81-7.35-8.504 0-4.426 2.858-8.422 7.867-8.422h17.578a3.372 3.372 0 1 0 0-6.746h-13.14V54.76H39.56v8.314H23.628v6.746h7.373c-1.904 2.387-3.017 5.28-3.017 8.422 0 8.088 7.396 14.654 16.543 14.654 9.584 0 16.533-6.566 16.533-14.654M339.088 112.496l-30.465.01v-15.78h-9.564v16.75a5.773 5.773 0 0 0 5.77 5.776h34.259a3.387 3.387 0 0 0 3.379-3.379 3.381 3.381 0 0 0-3.38-3.377"/><path fill="#0054a6" d="M403.912 104.06h-26.246V81.525h-9.58v22.537h-20.752v6.738h56.578a3.37 3.37 0 0 0 3.38-3.363 3.373 3.373 0 0 0-3.38-3.375M529.41 82.943h-7.574c2.193-3.027 2.672-7.793 2.672-12.023v-8.028c0-3.185-2.604-5.775-5.79-5.775h-40.163v6.748h36.363v9.666c0 2.951-.143 6.53-1.738 9.412h-9.825V70.847h-9.57v12.096H470.26v6.746h17.011c-4.185 2.277-7.568 8.092-7.568 13.004 0 4.922 2.123 8.852 6.396 12.246 4.252 3.39 9.385 5.078 15.381 5.078s11.137-1.689 15.434-5.078c4.293-3.394 6.441-7.324 6.441-12.246 0-3.852-1.543-7.023-4.625-9.639-1.982-1.673-5.16-1.86-7.045-.127-1.718 1.592-1.543 4.47.147 5.942 2.353 2.062 2.787 7.121-1.895 11.015-2.47 2.036-5.293 3.047-8.472 3.047-3.178 0-5.98-1.01-8.403-3.047-2.422-2.039-3.638-4.492-3.638-7.369 0-8.77 9.668-12.826 14.595-12.826h25.391a3.369 3.369 0 0 0 3.37-3.375 3.369 3.369 0 0 0-3.37-3.37M592.764 72.338h-5.713V55.682h-9.58v25.486c-2.646 1.158-6.367 1.775-9.814 1.775h-21.645V63.865h20.092a3.372 3.372 0 0 0 3.375-3.371 3.377 3.377 0 0 0-3.375-3.377h-29.672v26.795a5.78 5.78 0 0 0 5.78 5.778h24.689c3.724 0 8.002-.657 10.57-1.961v9.168a4.78 4.78 0 0 0 4.795 4.785 4.783 4.783 0 0 0 4.785-4.785V79.082h5.713a3.373 3.373 0 0 0 3.385-3.37 3.377 3.377 0 0 0-3.385-3.374M584.938 112.506h-30.23V96.033h-9.565v17.442a5.769 5.769 0 0 0 5.771 5.777h34.024a3.38 3.38 0 0 0 3.379-3.38 3.366 3.366 0 0 0-3.38-3.366M336.402 101.682a4.789 4.789 0 0 0 4.8-4.785V55.682h-9.58v41.215a4.775 4.775 0 0 0 4.78 4.785M176.953 77.656c2.486 3.955 7.506 6.902 11.602 8.631 4.127 1.742 7.53 1.988 8.877-.315.953-1.64-.088-3.972-1.635-4.435-2.369-.695-6.696-3.047-8.975-5.307-2.926-2.908-4.55-8.455-4.873-12.365h9.688a3.371 3.371 0 0 0 3.373-3.37 3.376 3.376 0 0 0-3.373-3.378h-32.086v6.748h12.476c-.322 3.91-1.959 9.457-4.902 12.365-2.949 2.906-7.28 4.994-12.07 6.283l4.306 5.567c7.367-1.789 13.994-5.727 17.592-10.424M149.615 79.064h-8.506c2.07-2.44 2.777-6.566 2.777-10.487v-5.684a5.777 5.777 0 0 0-5.78-5.776H98.178v6.748h36.133v7.95c0 2.886-.426 5.635-2.105 7.25H89.883v6.745h26.441v8.65H98.18v6.746h35.44v13.828a4.786 4.786 0 0 0 4.785 4.786 4.78 4.78 0 0 0 4.785-4.786v-14.802c0-3.186-2.584-5.773-5.762-5.773h-11.529V85.81h23.717a3.374 3.374 0 0 0 0-6.746M191.7 114.475c-5.21 0-9.435-4.035-9.435-9.018 0-4.986 4.225-9.023 9.434-9.023 5.215 0 9.434 4.037 9.434 9.023 0 4.983-4.219 9.018-9.434 9.018m0-24.742c-10.58 0-19.164 7.039-19.164 15.724 0 8.686 8.584 15.729 19.164 15.729 10.586 0 19.17-7.043 19.17-15.73 0-8.684-8.584-15.723-19.17-15.723M430.615 85.236v-4.414c2.203.582 4.586.914 7.076.914 2.592 0 5.072-.352 7.367-.986v4.486Zm7.076-25.949c5.89 0 10.65 3.558 10.65 7.937 0 4.385-4.76 7.94-10.65 7.94-5.889 0-10.664-3.555-10.664-7.94 0-4.379 4.775-7.937 10.664-7.937m28.1 25.95h-11.303v-9.759c2.28-2.346 3.633-5.185 3.633-8.254 0-8.01-9.147-14.513-20.43-14.513-11.285 0-20.439 6.502-20.439 14.513 0 3.194 1.468 6.135 3.935 8.533v9.48h-14.54v6.743h17.142c-3.975 2.65-7.012 7.065-7.012 11.592 0 4.691 2.051 8.422 6.162 11.637 4.112 3.211 9.078 4.826 14.922 4.826 5.846 0 10.83-1.62 14.977-4.865 4.134-3.243 6.201-6.96 6.201-11.598 0-3.285-2.002-6.397-4.069-8.12-2.177-1.83-5.166-2.593-7.18-.575-1.232 1.224-1.98 3.02.194 6.121 1.738 2.48.551 6.853-2.295 9.205-2.246 1.842-4.853 2.763-7.828 2.763-2.963 0-5.557-.92-7.764-2.763-2.207-1.85-3.304-4.096-3.304-6.76 0-6.812 7.461-11.463 14.38-11.463h24.618a3.37 3.37 0 0 0 3.38-3.369 3.367 3.367 0 0 0-3.38-3.375M238.717 83.55c-4.141 0-7.5-4.42-7.5-9.87 0-5.461 3.359-9.877 7.5-9.877 4.145 0 7.51 4.416 7.51 9.877 0 5.45-3.365 9.87-7.51 9.87m0-26.958c-9.395 0-17.018 7.648-17.018 17.088 0 9.434 7.623 17.076 17.018 17.076 9.404 0 17.025-7.642 17.025-17.076 0-9.44-7.621-17.088-17.025-17.088M296.367 73.756c0-5.66 3.863-10.242 8.623-10.242 4.762 0 8.623 4.582 8.623 10.242 0 5.666-3.86 10.256-8.623 10.256-4.76 0-8.623-4.59-8.623-10.256m26.69 0c0-9.48-8.086-17.164-18.067-17.164-9.97 0-18.066 7.685-18.066 17.164 0 9.484 8.095 17.176 18.066 17.176 9.981 0 18.066-7.692 18.066-17.176M295.453 160.3l-.082.255h2.738l6.416-19.518h-2.86s-2.9 9.899-3.204 10.885c-.297-.986-3.203-10.885-3.203-10.885h-3.037s4.791 14.14 4.794 14.14c-.033 0-1.562 5.124-1.562 5.124M40.992 135.08h-3.369l-6.707 8.438v-8.438h-2.922v20.23h2.922v-10.035c.513.768 6.726 10.035 6.726 10.035h3.741s-7.596-10.83-7.754-11.074c.172-.218 7.363-9.156 7.363-9.156"/><path fill="#0054a6" d="M46.54 153.348c-2.11 0-2.716-1.334-2.716-5.932 0-3.664 1.082-4.414 2.715-4.414 1.623 0 2.717.75 2.717 4.414 0 4.598-.617 5.932-2.717 5.932m0-12.588c-5.055 0-5.469 3.604-5.469 7.617 0 5.98 2.182 7.203 5.47 7.203 3.28 0 5.468-1.222 5.468-7.203 0-4.013-.41-7.617-5.469-7.617M61.438 140.76h-.202c-1.895 0-3.157.225-4.15 1.949v-1.672h-2.633v14.274h2.632v-8.395c0-2.363 1-3.558 2.943-3.558l.848.082.562.084v-.225ZM65.299 147.006c.072-3.594 1.2-4.141 2.416-4.141 1.438 0 2.549.332 2.576 4.14Zm2.635-6.246c-5.047 0-5.465 3.603-5.465 7.617 0 5.98 2.187 7.203 5.465 7.203 3.226 0 5.01-1.656 5.039-4.674l.006-.195h-2.846l-.03.182c-.058 1.136-.683 2.455-2.216 2.455-1.611 0-2.545-.737-2.588-4.248h7.793v-1.383c0-4.402-.85-6.957-5.158-6.957M81.705 152.678c-.426.445-.992.67-1.67.67-1.453 0-1.976-1.211-1.976-2.357 0-2.551 2.332-2.56 4.398-2.575h.242c.004.192.014.38.014.563 0 1.758-.33 2.996-1.008 3.699m3.633-7.54c0-2.942-1.533-4.378-4.707-4.378-3.276 0-4.787 1.352-4.885 4.365v.209h2.855l-.019-.218c-.068-.688.088-1.28.45-1.676.353-.371.878-.575 1.521-.575.703 0 1.203.17 1.543.522.527.533.607 1.426.607 2.338 0 .207-.004.396-.004.586-2.387-.043-4.754.117-6.15 1.476-.756.727-1.14 1.752-1.14 3.04 0 3.238 1.267 4.753 3.995 4.753 1.584 0 2.617-.597 3.334-1.832v1.563h2.897l-.297-3.496ZM96.504 146.244h7.139v-2.598h-7.14v-5.976h7.7v-2.59H93.59v20.23h10.775v-2.597h-7.861ZM118.639 140.76c-.994 0-2.383.225-3.281 1.656-.68-1.187-2.123-1.656-3.242-1.656-1.598 0-2.643.537-3.33 1.602v-1.325h-2.79l.143 3.078v11.196h2.648v-9.531c0-.27.04-1.176.497-1.95.277-.43 1.123-.828 1.777-.828 1.39 0 2.006.766 2.006 2.494v9.815h2.642v-9.531c0-.645.157-1.846.698-2.305.566-.46.76-.473 1.582-.473 1.392 0 2.002.766 2.002 2.494v9.815h2.646v-10.752c0-2.514-1.342-3.8-3.998-3.8M130.527 153.348c-2.143 0-2.424-2.314-2.424-4.584v-.484c-.014-1.586-.03-3.766.951-4.756.358-.346.807-.522 1.383-.522 2.635 0 2.635 2.856 2.635 4.942 0 3.812-.357 5.404-2.545 5.404m.621-12.588c-1.32 0-2.262.59-3.045 1.69v-1.413h-2.644l.088 19.518h2.646s-.09-5.807-.09-6.475c.791.96 1.738 1.5 2.928 1.5 4.801 0 4.801-4.41 4.801-7.636 0-6.364-2.504-7.184-4.684-7.184M138.115 135.08v20.23h2.646v-20.23h-.185ZM148.545 153.348c-2.11 0-2.725-1.334-2.725-5.932 0-3.664 1.098-4.414 2.725-4.414 1.63 0 2.719.75 2.719 4.414 0 4.598-.606 5.932-2.72 5.932m5.464-4.971c0-4.013-.42-7.617-5.463-7.617-5.055 0-5.47 3.604-5.47 7.617 0 5.98 2.189 7.203 5.47 7.203 3.275 0 5.463-1.222 5.463-7.203M166.576 141.037h-2.61s-2.908 9.898-3.204 10.885c-.293-.987-3.194-10.885-3.194-10.885h-3.033l4.775 14.141c-.023 0-1.543 5.377-1.543 5.377h2.741l6.338-19.518ZM175.043 145.496v9.814h2.643v-9.53c0-.645.15-1.846.703-2.305.56-.459.752-.473 1.576-.473 1.387 0 2.002.765 2.002 2.494v9.814h2.642v-10.75c0-2.515-1.337-3.8-3.99-3.8-.996 0-2.387.224-3.281 1.656-.668-1.188-2.123-1.656-3.256-1.656-1.588 0-2.637.537-3.32 1.601v-1.324h-2.789l.146 3.078v11.195h2.643v-9.53c0-.27.039-1.177.502-1.95.273-.43 1.119-.828 1.777-.828 1.387 0 2.002.765 2.002 2.494M192.266 142.865c1.436 0 2.539.332 2.588 4.141h-5c.072-3.594 1.195-4.14 2.412-4.14m.225 12.714c3.226 0 5.019-1.656 5.043-4.674v-.195h-2.852l-.014.181c-.068 1.137-.703 2.455-2.226 2.455-1.344 0-2.56-.345-2.604-4.248h7.813v-1.382c0-4.403-.86-6.957-5.16-6.957-5.05 0-5.47 3.603-5.47 7.617 0 5.98 2.192 7.203 5.47 7.203M206.42 140.76c-1.762 0-2.783.527-3.623 1.8v-1.523h-2.777l.136 3.078v11.196h2.64v-8.414c0-2.7.82-3.895 2.638-3.895 1.543 0 2.252.789 2.252 2.494v9.815h2.64v-9.815c0-2.338-.46-4.736-3.906-4.736M217.978 155.19l1.06-.113.008-.186v-1.947l-.692.078-.528.053c-1.865 0-1.865-.918-1.865-1.807v-8.297h3.027v-2.094h-3.028v-3.79l-.273.123-2.367 1.066v2.6h-2.28v2.095h2.28v9.674c0 1.772 1.108 2.666 3.292 2.666ZM230.004 147.99c.143-.453 2.598-8.832 2.867-9.789.293.947 2.813 9.332 2.963 9.79Zm8.063 7.32h3.232l-6.582-20.23h-3.487l-6.435 20.23h2.979s1.396-4.472 1.484-4.73h7.377c.084.267 1.432 4.73 1.432 4.73M249.799 148.28c0 1.376 0 3.27-.932 4.208-.371.377-.875.557-1.513.557-1.494 0-2.491-.899-2.491-5.297 0-2.453.297-4.719 2.436-4.719.68 0 1.207.188 1.588.578.922.922.912 2.832.912 4.223Zm2.594 8.226v-15.469h-2.653v1.451c-.668-1.074-1.693-1.729-3.1-1.729-1.362 0-4.54.684-4.54 6.99 0 3.733.566 7.561 4.71 7.561 1.202 0 2.286-.64 2.93-1.543v2.5c0 1.377-.83 2.188-2.226 2.188-1.166 0-1.895-.668-1.904-1.813v-.189h-2.915l-.01.185c-.083 1.051.206 1.924.825 2.614.78.843 2.05 1.302 3.57 1.302 2.617 0 5.313-.482 5.313-4.048M260.352 142.865c1.436 0 2.533.332 2.578 4.141h-5c.078-3.594 1.2-4.14 2.422-4.14m5.254 8.04v-.195h-2.852l-.02.181c-.068 1.137-.683 2.455-2.222 2.455-1.605 0-2.55-.736-2.588-4.248h7.793v-1.382c0-4.403-.85-6.957-5.15-6.957-5.05 0-5.46 3.603-5.46 7.617 0 5.98 2.179 7.203 5.46 7.203 3.226 0 5.01-1.656 5.039-4.674M274.506 140.76c-1.768 0-2.787.527-3.633 1.8v-1.523h-2.787l.147 3.078v11.196h2.64v-8.414c0-2.7.82-3.895 2.647-3.895 1.529 0 2.242.789 2.242 2.494v9.815h2.65v-9.815c0-2.338-.468-4.736-3.906-4.736M288.47 150.295l.02.207c.02.996-.218 1.79-.712 2.305-.414.429-.91.54-1.104.54-2.11 0-2.705-1.333-2.705-5.931 0-3.664 1.074-4.414 2.705-4.414.24 0 .713.053 1.09.443.443.469.664 1.21.639 2.233l-.01.209h2.73l.004-.19c.078-1.601-.306-2.847-1.133-3.711-.765-.812-1.888-1.226-3.32-1.226-5.062 0-5.478 3.603-5.478 7.617 0 5.98 2.197 7.203 5.478 7.203.947 0 2.305-.351 3.277-1.347.889-.911 1.319-2.165 1.293-3.747l-.01-.191ZM316.133 134.994c-2.828 0-3.707 1.16-3.707 3.56v2.475h-2.14v2.133h2.14v12.148h2.676v-12.148h2.799v-2.133h-2.8v-2.148c0-.924.255-1.778 2.08-1.778.153 0 .323.004.495.014l.225.02-.49-2.032-.174-.029a6.002 6.002 0 0 0-1.104-.082M323.916 143.016c1.617 0 2.695.748 2.695 4.395 0 4.58-.605 5.908-2.695 5.908-2.096 0-2.695-1.328-2.695-5.908 0-3.647 1.084-4.395 2.695-4.395m0-2.266c-5.059 0-5.479 3.604-5.479 7.623 0 5.98 2.188 7.207 5.479 7.207s5.479-1.226 5.479-7.207c0-4.02-.415-7.623-5.479-7.623M334.463 142.537v-1.508h-2.67v14.281h2.67v-8.394c0-2.352.982-3.539 2.916-3.539.205 0 .38.023.57.05l.807.11.043.006v-2.793h-.205c-2.07 0-3.246.273-4.131 1.787M353.799 140.803c0 2.75-2.064 3.16-3.291 3.16h-2.56v-6.265h3.269c.268 0 2.582.084 2.582 3.105m-3.207-5.73H345v20.238h2.949v-8.727h3.106c.957 0 5.752-.273 5.752-5.644 0-3.891-2.416-5.867-6.215-5.867M362.066 142.879c1.43 0 2.52.307 2.563 4.102h-4.98c.073-3.604 1.206-4.102 2.417-4.102m.225-2.13c-5.069 0-5.485 3.605-5.485 7.624 0 5.98 2.188 7.207 5.485 7.207 3.222 0 5.02-1.66 5.04-4.683v-.22h-2.888l-.014.204c-.054 1.125-.679 2.437-2.193 2.437-1.61 0-2.559-.693-2.588-4.214h7.79v-1.391c0-4.41-.84-6.963-5.147-6.963M371.94 142.537v-1.508h-2.666v14.281h2.666v-8.394c0-2.352.986-3.539 2.923-3.539.206 0 .372.023.572.05l.796.11.048.006v-2.793h-.208c-2.07 0-3.233.273-4.132 1.787M382.555 146.649c-1.412-.645-2.633-1.201-2.633-2.12 0-1.005.762-1.65 1.94-1.65.638 0 1.136.17 1.474.502.317.332.489.84.473 1.504l-.004.215h2.914l.016-.2c.078-1.147-.221-2.094-.89-2.813-.8-.862-2.124-1.336-3.72-1.336-4.746 0-4.98 3.33-4.98 3.998 0 2.472 2.26 3.535 4.238 4.472 1.436.675 2.67 1.256 2.67 2.194 0 1.19-.814 1.904-2.172 1.904-2.09 0-2.09-1.72-2.09-2.445v-.215h-2.974v.199c-.043 1.484.328 2.633 1.109 3.428.83.859 2.139 1.294 3.877 1.294 3.246 0 5.039-1.575 5.039-4.44 0-2.532-2.38-3.618-4.287-4.491M393.707 143.016c1.615 0 2.689.748 2.689 4.395 0 4.58-.605 5.908-2.689 5.908-2.086 0-2.701-1.328-2.701-5.908 0-3.647 1.084-4.395 2.701-4.395m0-2.266c-5.055 0-5.484 3.604-5.484 7.623 0 5.98 2.193 7.207 5.484 7.207 3.285 0 5.473-1.226 5.473-7.207 0-4.02-.414-7.623-5.473-7.623M407.291 140.75c-1.748 0-2.779.479-3.604 1.699v-1.42h-2.828l.02.229c.094 1.064.133 2.006.133 2.861v11.192h2.675v-8.418c0-2.68.805-3.877 2.618-3.877 1.523 0 2.226.791 2.226 2.48v9.815h2.68v-9.815c0-2.344-.469-4.746-3.92-4.746M418.525 146.649c-1.41-.645-2.627-1.201-2.627-2.12 0-1.005.758-1.65 1.924-1.65.65 0 1.152.17 1.474.502.33.332.49.84.475 1.504l-.006.215h2.916l.014-.2c.088-1.147-.215-2.094-.889-2.813-.8-.862-2.123-1.336-3.71-1.336-4.747 0-4.99 3.33-4.99 3.998 0 2.472 2.255 3.535 4.243 4.472 1.436.675 2.67 1.256 2.67 2.194 0 1.19-.81 1.904-2.172 1.904-2.09 0-2.09-1.72-2.09-2.445v-.215h-2.974l-.004.199c-.039 1.484.342 2.633 1.113 3.428.84.859 2.15 1.294 3.871 1.294 3.258 0 5.04-1.575 5.04-4.44 0-2.532-2.374-3.618-4.278-4.491M443.135 152.352l-2.67-11.29-.01-.032h-3.521l-2.91 11.322-2.364-11.29v-.032h-2.95l3.523 14.115.043.166h3.339l2.965-11.26 2.817 11.225.015.035h3.34l3.754-14.014.068-.267h-2.832ZM449.43 155.311h2.666V141.03h-2.666ZM449.287 137.912h2.945v-2.84h-2.945ZM460.572 152.986l-.01.004c-.224.025-.429.051-.527.051-1.842 0-1.842-.87-1.842-1.789v-8.256h3.014v-2.135h-3.014v-3.793l-2.68 1.207v2.586h-2.285v2.135h2.285v9.63c0 1.782 1.114 2.684 3.315 2.684.45 0 .898-.062 1.353-.12h.004c.29-.04.586-.079.885-.099l.195-.019v-2.164l-.24.023-.453.055M468.932 140.75c-1.816 0-2.828.463-3.648 1.693l.234-7.371h-2.67l-.244 20.239h2.68v-8.364c0-2.715.8-3.931 2.613-3.931 1.556 0 2.25.83 2.25 2.695v9.6h2.672v-10.04c0-3.082-1.231-4.521-3.887-4.521M482.871 137.697h3.105c2.594 0 3.663 1.53 3.663 5.27v4.003c0 4.327-1.127 5.713-4.594 5.713h-2.174Zm3.6-2.625h-6.543v20.238h4.765c3.428 0 5.561-.843 6.694-2.656.865-1.37 1.25-3.867 1.25-8.096 0-.049-.014-4.478-.899-6.347-.98-2.116-2.553-3.139-5.267-3.139M494.459 137.912h2.953v-2.84h-2.953ZM494.596 155.311h2.68V141.03h-2.68ZM504.97 146.649c-1.405-.645-2.62-1.201-2.62-2.12 0-1.005.752-1.65 1.924-1.65.654 0 1.146.17 1.474.502.332.332.493.84.483 1.504l-.01.215h2.91l.01-.2c.084-1.147-.205-2.094-.88-2.813-.804-.862-2.128-1.336-3.71-1.336-4.75 0-4.99 3.33-4.99 3.998 0 2.472 2.252 3.535 4.238 4.472 1.442.675 2.676 1.256 2.676 2.194 0 1.19-.815 1.904-2.172 1.904-2.09 0-2.09-1.72-2.09-2.445v-.215h-2.984v.199c-.04 1.484.338 2.633 1.109 3.428.85.859 2.143 1.294 3.877 1.294 3.256 0 5.039-1.575 5.039-4.44 0-2.532-2.37-3.618-4.283-4.491M515.709 153.318c-1.441 0-1.953-1.21-1.953-2.344 0-2.529 2.328-2.539 4.365-2.549l.238-.005c.069 2.037-.263 3.462-.996 4.23-.424.438-.98.668-1.654.668m5.312-1.52v-6.664c0-2.953-1.533-4.384-4.712-4.384-3.286 0-4.799 1.353-4.907 4.375v.22h2.891l-.02-.23c-.064-.688.098-1.27.45-1.664.341-.37.873-.572 1.507-.572.694 0 1.198.17 1.534.521.595.611.625 1.715.595 2.887-.254-.004-.472-.01-.683-.01-2.836 0-6.596.475-6.596 4.537 0 3.25 1.274 4.766 3.994 4.766 1.553 0 2.617-.547 3.33-1.715v1.445h2.934l-.039-.25a20.89 20.89 0 0 1-.278-3.262M528.477 143.016c2.164 0 2.529 1.67 2.529 5.41 0 2.06 0 4.893-2.607 4.893-.576 0-1.03-.176-1.381-.528-.967-.98-.947-3.125-.934-4.703v-.488c0-2.266.28-4.584 2.393-4.584m.527-2.266c-1.181 0-2.138.444-2.92 1.373v-7.05h-2.675v20.238h2.675v-1.24c.768 1.029 1.735 1.509 3.024 1.509 2.178 0 4.68-.816 4.68-7.183 0-3.223 0-7.647-4.784-7.647M535.918 137.912h2.949v-2.84h-2.949ZM536.051 155.311h2.68V141.03h-2.68ZM541.318 155.311h2.676v-20.238h-2.676ZM546.445 137.912h2.955v-2.84h-2.955ZM546.582 155.311h2.682V141.03h-2.682ZM558.271 153.147l-.062.006c-.225.025-.43.053-.534.053-1.83 0-1.83-.873-1.83-1.791v-8.256h3.012v-2.135h-3.012v-3.796l-2.685 1.212v2.584h-2.275v2.135h2.275v9.629c0 1.78 1.113 2.683 3.31 2.683.453 0 .908-.059 1.352-.118l.015-.004c.279-.034.577-.077.87-.097l.195-.016v-2.161l-.23.025c-.147.014-.288.026-.4.047M560.348 137.912h2.953v-2.84h-2.953ZM560.488 155.311h2.682V141.03h-2.682ZM570.02 142.879c1.426 0 2.52.307 2.558 4.102h-4.975c.063-3.604 1.212-4.102 2.417-4.102m.22-2.13c-5.065 0-5.479 3.605-5.479 7.624 0 5.98 2.188 7.207 5.48 7.207 3.221 0 5.013-1.66 5.043-4.683v-.22h-2.881l-.014.204c-.058 1.125-.68 2.437-2.203 2.437-1.612 0-2.55-.693-2.583-4.214h7.793v-1.391c0-4.41-.846-6.963-5.155-6.963M582.764 146.649c-1.41-.645-2.627-1.201-2.627-2.12 0-1.005.758-1.65 1.924-1.65.66 0 1.152.17 1.474.502.333.332.495.84.485 1.504l-.006.215h2.92l.01-.2c.078-1.147-.215-2.094-.89-2.813-.8-.862-2.122-1.336-3.72-1.336-4.746 0-4.99 3.33-4.99 3.998 0 2.472 2.256 3.535 4.248 4.472 1.436.675 2.672 1.256 2.672 2.194 0 1.19-.811 1.904-2.168 1.904-2.09 0-2.09-1.72-2.09-2.445v-.215h-2.974l-.01.199c-.033 1.484.328 2.633 1.109 3.428.83.859 2.139 1.294 3.87 1.294 3.259 0 5.05-1.575 5.05-4.44 0-2.532-2.377-3.618-4.287-4.491"/></g></svg>