<svg xmlns="http://www.w3.org/2000/svg" xml:space="preserve" width="1149.8223" height="200" viewBox="0 0 1149.8223 200"><path d="M341.4 264.169h1.268V259.5l4.973 4.668h1.671l-5.975-5.582 6.44-6.858h-1.656l-5.453 5.795v-5.795H341.4zM355.79 260.009c-.985 0-1.83-.364-2.538-1.091-.708-.727-1.06-1.607-1.06-2.638 0-.666.161-1.286.483-1.861a3.424 3.424 0 0 1 1.307-1.332 3.584 3.584 0 0 1 1.807-.47c.656 0 1.26.157 1.81.47a3.42 3.42 0 0 1 1.304 1.332c.324.575.486 1.195.486 1.86 0 1.032-.357 1.912-1.066 2.639-.71.727-1.554 1.09-2.534 1.09m.006 1.159c1.417 0 2.592-.513 3.524-1.54.846-.934 1.27-2.043 1.27-3.323 0-1.285-.448-2.408-1.344-3.37-.895-.961-2.046-1.442-3.45-1.442-1.412 0-2.567.48-3.462 1.442-.896.962-1.342 2.085-1.342 3.37 0 1.275.422 2.379 1.27 3.316.932 1.032 2.11 1.547 3.534 1.547M362.332 260.93h1.21v-1.345c.36.53.741.926 1.142 1.188.398.263.816.393 1.25.393.327 0 .676-.104 1.05-.312l-.618-.999c-.248.108-.456.161-.625.161-.396 0-.776-.16-1.142-.486-.368-.324-.647-.827-.838-1.509-.147-.525-.219-1.585-.219-3.18v-3.113h-1.21zM375.735 257.26c-.158.631-.388 1.136-.69 1.514a3.297 3.297 0 0 1-1.198.913 3.67 3.67 0 0 1-1.567.346c-.902 0-1.678-.29-2.327-.87-.474-.423-.833-1.057-1.075-1.903zm0-2.478.998-.524c-.327-.643-.706-1.162-1.134-1.557a4.501 4.501 0 0 0-1.447-.9c-.537-.206-1.144-.309-1.82-.309-1.502 0-2.675.491-3.523 1.476-.845.984-1.268 2.096-1.268 3.336 0 1.167.358 2.207 1.076 3.121.908 1.161 2.123 1.742 3.647 1.742 1.568 0 2.822-.595 3.758-1.785.665-.84 1.004-1.889 1.017-3.145h-8.281c.022-1.069.364-1.945 1.024-2.629.662-.683 1.476-1.025 2.447-1.025.469 0 .925.082 1.368.244.443.163.82.379 1.13.649.31.27.648.705 1.008 1.306M383.68 260.025a3.572 3.572 0 0 1-3.155-1.85 3.739 3.739 0 0 1-.493-1.858c0-.648.167-1.268.498-1.859a3.63 3.63 0 0 1 1.34-1.38 3.486 3.486 0 0 1 1.804-.495c.647 0 1.26.163 1.84.49a3.418 3.418 0 0 1 1.34 1.326c.313.557.469 1.185.469 1.884 0 1.064-.351 1.954-1.051 2.67-.703.714-1.565 1.072-2.591 1.072m4.732.905v-9.2h-1.167v1.58c-.497-.603-1.054-1.057-1.67-1.36a4.513 4.513 0 0 0-2.025-.458c-1.302 0-2.414.472-3.337 1.416-.921.945-1.383 2.093-1.383 3.446 0 1.326.465 2.458 1.395 3.401.93.941 2.05 1.412 3.358 1.412.755 0 1.439-.16 2.05-.482.614-.322 1.15-.803 1.612-1.446v1.691zM396.065 264.169h6.234v-1.218h-4.99v-3.898h4.99v-1.218h-4.99v-6.106h-1.244zM404.091 260.93h1.184v-9.202h-1.184zm.589 3.789a.937.937 0 0 0 .689-.288.946.946 0 0 0 .287-.693.936.936 0 0 0-.287-.685.937.937 0 0 0-.689-.288.924.924 0 0 0-.682.288.936.936 0 0 0-.287.685c0 .27.096.502.287.693a.924.924 0 0 0 .682.288M412.363 259.924l-.761-.787c-.634.615-1.252.922-1.857.922-.384 0-.713-.127-.99-.38-.273-.254-.41-.55-.41-.888 0-.3.113-.584.339-.854.226-.277.7-.601 1.425-.973.88-.457 1.48-.896 1.796-1.32.31-.428.465-.91.465-1.446 0-.756-.264-1.395-.796-1.92-.53-.523-1.193-.786-1.99-.786-.53 0-1.038.116-1.52.347-.483.23-.882.55-1.198.955l.745.846c.604-.682 1.244-1.023 1.923-1.023.474 0 .878.153 1.213.457.333.304.5.662.5 1.074 0 .338-.11.639-.331.905-.221.259-.72.586-1.491.98-.831.429-1.397.852-1.695 1.269-.3.418-.45.894-.45 1.43 0 .698.239 1.279.717 1.742.476.462 1.079.693 1.807.693.847 0 1.7-.415 2.559-1.243M414.46 264.482h1.185v-5.2c.478.63 1.006 1.102 1.58 1.416a3.853 3.853 0 0 0 1.869.468c.689 0 1.298-.174 1.83-.524.534-.35.928-.819 1.18-1.408.255-.589.382-1.512.382-2.769v-4.736h-1.184v4.39c0 1.06-.042 1.767-.127 2.121-.147.61-.414 1.068-.8 1.375-.386.307-.891.46-1.516.46a2.92 2.92 0 0 1-1.925-.709 3.33 3.33 0 0 1-1.12-1.76c-.114-.45-.17-1.285-.17-2.503v-3.374h-1.183zM432.77 257.26c-.158.631-.388 1.136-.69 1.514a3.297 3.297 0 0 1-1.198.913 3.669 3.669 0 0 1-1.566.346c-.903 0-1.68-.29-2.328-.87-.474-.423-.833-1.057-1.075-1.903zm0-2.478.998-.524c-.327-.643-.706-1.162-1.134-1.557a4.501 4.501 0 0 0-1.447-.9c-.537-.206-1.143-.309-1.82-.309-1.502 0-2.675.491-3.523 1.476-.845.984-1.268 2.096-1.268 3.336 0 1.167.358 2.207 1.076 3.121.908 1.161 2.123 1.742 3.647 1.742 1.568 0 2.822-.595 3.758-1.785.665-.84 1.004-1.889 1.017-3.145h-8.281c.022-1.069.364-1.945 1.024-2.629.662-.683 1.476-1.025 2.447-1.025.469 0 .925.082 1.368.244.443.163.82.379 1.13.649.31.27.648.705 1.008 1.306M435.831 260.93h1.21v-1.345c.36.53.741.926 1.141 1.188a2.24 2.24 0 0 0 1.251.393c.327 0 .676-.104 1.049-.312l-.617-.999c-.249.108-.456.161-.626.161-.395 0-.775-.16-1.141-.486-.368-.324-.647-.827-.839-1.509-.147-.525-.218-1.585-.218-3.18v-3.113h-1.21zM441.311 260.93h1.184v-9.202h-1.184zm.589 3.789a.937.937 0 0 0 .689-.288.946.946 0 0 0 .287-.693.936.936 0 0 0-.287-.685.937.937 0 0 0-.689-.288.924.924 0 0 0-.682.288.936.936 0 0 0-.287.685c0 .27.096.502.287.693a.924.924 0 0 0 .682.288M452.703 257.26c-.158.631-.388 1.136-.69 1.514a3.285 3.285 0 0 1-1.198.913 3.673 3.673 0 0 1-1.567.346c-.902 0-1.678-.29-2.327-.87-.474-.423-.833-1.057-1.076-1.903zm0-2.478.998-.524c-.327-.643-.706-1.162-1.134-1.557a4.501 4.501 0 0 0-1.447-.9c-.537-.206-1.144-.309-1.82-.309-1.502 0-2.675.491-3.523 1.476-.845.984-1.268 2.096-1.268 3.336a4.92 4.92 0 0 0 1.075 3.121c.909 1.161 2.124 1.742 3.648 1.742 1.568 0 2.822-.595 3.758-1.785.665-.84 1.004-1.889 1.016-3.145h-8.28c.022-1.069.364-1.945 1.024-2.629.662-.683 1.476-1.025 2.447-1.025.469 0 .925.082 1.368.244.443.163.82.379 1.13.649.31.27.648.705 1.008 1.306M460.838 259.924l-.761-.787c-.634.615-1.252.922-1.857.922-.384 0-.713-.127-.99-.38-.273-.254-.41-.55-.41-.888 0-.3.113-.584.339-.854.227-.277.7-.601 1.425-.973.88-.457 1.48-.896 1.796-1.32.31-.428.465-.91.465-1.446 0-.756-.264-1.395-.796-1.92-.53-.523-1.193-.786-1.99-.786-.53 0-1.038.116-1.52.347-.483.23-.882.55-1.198.955l.745.846c.604-.682 1.244-1.023 1.923-1.023.474 0 .878.153 1.213.457.333.304.5.662.5 1.074 0 .338-.11.639-.331.905-.221.259-.72.586-1.491.98-.831.429-1.397.852-1.695 1.269-.3.418-.45.894-.45 1.43 0 .698.239 1.279.717 1.742.476.462 1.079.693 1.807.693.847 0 1.7-.415 2.559-1.243M467.747 264.169h1.243v-12.44h-1.243zM471.646 260.93h1.184v-1.649c.472.631.996 1.103 1.572 1.416a3.86 3.86 0 0 0 1.877.47c.69 0 1.298-.174 1.831-.524.533-.35.927-.821 1.18-1.413.254-.593.381-1.514.381-2.766v-4.736h-1.184v4.39c0 1.06-.044 1.767-.132 2.122-.136.61-.399 1.067-.789 1.375-.39.307-.897.46-1.522.46a2.917 2.917 0 0 1-1.925-.71 3.33 3.33 0 0 1-1.12-1.759c-.114-.457-.169-1.29-.169-2.503v-3.375h-1.184zM485.998 264.482v-1.159c-.434.187-.805.28-1.116.28-.232 0-.423-.048-.575-.14-.151-.093-.25-.2-.287-.322-.04-.12-.06-.444-.06-.968l-.001-1.243h1.92v-1.024h-1.92l-.007-8.177h-1.184v8.177h-1.21v1.024h1.21v1.438c0 .66.06 1.13.182 1.412.12.282.327.508.618.681.29.172.64.257 1.053.257.382 0 .842-.079 1.377-.236M487.198 260.93h1.21v-1.345c.36.53.741.926 1.141 1.188a2.24 2.24 0 0 0 1.251.393c.327 0 .676-.104 1.05-.312l-.618-.999c-.249.108-.456.161-.626.161-.395 0-.775-.16-1.14-.486-.369-.324-.648-.827-.84-1.509-.147-.525-.218-1.585-.218-3.18v-3.113h-1.21zM497.291 260.025a3.572 3.572 0 0 1-3.155-1.85 3.74 3.74 0 0 1-.495-1.858c0-.648.168-1.268.5-1.859a3.63 3.63 0 0 1 1.34-1.38 3.486 3.486 0 0 1 1.803-.495c.647 0 1.261.163 1.84.49a3.418 3.418 0 0 1 1.34 1.326c.313.557.47 1.185.47 1.884 0 1.064-.352 1.954-1.053 2.67-.702.714-1.564 1.072-2.59 1.072m4.732.905v-9.2h-1.167v1.58c-.497-.603-1.054-1.057-1.67-1.36a4.507 4.507 0 0 0-2.026-.458c-1.3 0-2.413.472-3.336 1.416-.92.945-1.383 2.093-1.383 3.446 0 1.326.465 2.458 1.395 3.401.931.941 2.05 1.412 3.357 1.412.756 0 1.44-.16 2.052-.482.612-.322 1.15-.803 1.611-1.446v1.691zM509.313 259.924l-.761-.787c-.634.615-1.252.922-1.857.922-.384 0-.713-.127-.989-.38-.274-.254-.41-.55-.41-.888 0-.3.112-.584.338-.854.227-.277.701-.601 1.425-.973.881-.457 1.48-.896 1.796-1.32.311-.428.465-.91.465-1.446 0-.756-.264-1.395-.796-1.92-.529-.523-1.193-.786-1.989-.786-.531 0-1.039.116-1.52.347-.484.23-.883.55-1.199.955l.745.846c.604-.682 1.244-1.023 1.923-1.023.474 0 .878.153 1.213.457.333.304.5.662.5 1.074 0 .338-.11.639-.331.905-.22.259-.719.586-1.491.98-.831.429-1.397.852-1.695 1.269-.3.418-.45.894-.45 1.43 0 .698.239 1.279.717 1.742.476.462 1.079.693 1.807.693.847 0 1.701-.415 2.559-1.243M512.442 264.346h1.184v-3.416h1.877v-1.024h-1.877v-8.177h-1.184v8.177h-1.616v1.024h1.616zM516.832 260.93h1.21v-1.345c.36.53.741.926 1.142 1.188.399.263.817.393 1.25.393.328 0 .677-.104 1.05-.312l-.617-.999c-.248.108-.456.161-.625.161-.396 0-.776-.16-1.142-.486-.368-.324-.647-.827-.84-1.509-.147-.525-.218-1.585-.218-3.18v-3.113h-1.21zM522.337 260.93h1.184v-4.297c0-1.048.055-1.77.169-2.164.169-.565.493-1.01.969-1.337.478-.327 1.046-.49 1.708-.49.66 0 1.22.16 1.68.477.46.32.778.737.953 1.257.119.355.178 1.107.178 2.257v4.297h1.21v-4.516c0-1.269-.147-2.225-.445-2.867a3.378 3.378 0 0 0-1.335-1.51c-.596-.364-1.34-.546-2.237-.546-.898 0-1.646.182-2.245.546a3.358 3.358 0 0 0-1.346 1.523c-.296.65-.443 1.63-.443 2.938zM541.948 259.018l-.938-.583c-.81 1.077-1.917 1.615-3.32 1.615-1.121 0-2.052-.36-2.793-1.082-.74-.72-1.11-1.595-1.11-2.626 0-.67.17-1.302.51-1.892.34-.592.81-1.05 1.404-1.378.594-.326 1.259-.49 1.997-.49 1.353 0 2.456.54 3.312 1.616l.938-.617a4.42 4.42 0 0 0-1.77-1.542c-.743-.365-1.587-.548-2.534-.548-1.454 0-2.662.463-3.62 1.387-.958.925-1.438 2.05-1.438 3.375 0 .891.225 1.718.673 2.482a4.73 4.73 0 0 0 1.848 1.79c.783.427 1.66.641 2.629.641.61 0 1.197-.093 1.765-.278a4.953 4.953 0 0 0 1.44-.728c.395-.299.73-.679 1.007-1.142M545.255 264.346h1.184v-3.416h1.877v-1.024h-1.877v-8.177h-1.184v8.177h-1.616v1.024h1.616zM549.942 260.93h1.184v-4.297c0-1.048.055-1.77.169-2.164.169-.565.493-1.01.969-1.337.478-.327 1.046-.49 1.708-.49.66 0 1.22.16 1.68.477.46.32.778.737.953 1.257.119.355.178 1.107.178 2.257v4.297h1.21v-4.516c0-1.269-.147-2.225-.445-2.867a3.378 3.378 0 0 0-1.335-1.51c-.596-.364-1.34-.546-2.237-.546-.898 0-1.646.182-2.245.546a3.358 3.358 0 0 0-1.346 1.523c-.296.65-.443 1.63-.443 2.938zM560.175 260.93h1.21v-1.345c.36.53.74.926 1.14 1.188a2.24 2.24 0 0 0 1.252.393c.327 0 .676-.104 1.049-.312l-.617-.999c-.25.108-.456.161-.626.161-.395 0-.775-.16-1.141-.486-.368-.324-.647-.827-.84-1.509-.146-.525-.217-1.585-.217-3.18v-3.113h-1.21zM573.577 257.26c-.158.631-.388 1.136-.69 1.514a3.285 3.285 0 0 1-1.198.913 3.673 3.673 0 0 1-1.567.346c-.902 0-1.678-.29-2.327-.87-.474-.423-.833-1.057-1.076-1.903zm0-2.478.998-.524c-.327-.643-.706-1.162-1.134-1.557a4.512 4.512 0 0 0-1.447-.9c-.537-.206-1.144-.309-1.82-.309-1.502 0-2.675.491-3.523 1.476-.845.984-1.268 2.096-1.268 3.336a4.92 4.92 0 0 0 1.075 3.121c.91 1.161 2.124 1.742 3.648 1.742 1.568 0 2.822-.595 3.758-1.785.665-.84 1.003-1.889 1.016-3.145h-8.28c.022-1.069.364-1.945 1.024-2.629.662-.683 1.476-1.025 2.447-1.025.47 0 .925.082 1.368.244.443.163.82.379 1.13.649.311.27.648.705 1.008 1.306M583.312 262.951v-4.219l2.105-.026c.851 0 1.474.077 1.87.232.395.155.704.405.93.751.226.346.338.733.338 1.161 0 .416-.112.797-.338 1.143a1.865 1.865 0 0 1-.892.739c-.369.146-.974.219-1.814.219zm-1.243 1.218h2.478c1.42 0 2.379-.062 2.876-.186a3.188 3.188 0 0 0 1.741-1.078c.452-.544.676-1.228.676-2.051 0-.829-.218-1.513-.66-2.051-.439-.538-1.044-.9-1.818-1.086-.563-.136-1.618-.203-3.162-.203h-.888v-5.785h-1.243zM591.98 260.93h1.184v-4.297c0-1.048.055-1.77.17-2.164.168-.565.492-1.01.968-1.337.478-.327 1.046-.49 1.708-.49.66 0 1.221.16 1.68.477.46.32.778.737.953 1.257.12.355.178 1.107.178 2.257v4.297h1.21v-4.516c0-1.269-.147-2.225-.445-2.867a3.378 3.378 0 0 0-1.335-1.51c-.596-.364-1.34-.546-2.237-.546-.898 0-1.646.182-2.245.546a3.358 3.358 0 0 0-1.346 1.523c-.296.65-.443 1.63-.443 2.938zM607.473 252.633a3.57 3.57 0 0 1 3.151 1.852 3.75 3.75 0 0 1-.003 3.73 3.634 3.634 0 0 1-1.339 1.384 3.476 3.476 0 0 1-1.792.495 3.694 3.694 0 0 1-1.844-.495 3.448 3.448 0 0 1-1.34-1.332c-.313-.56-.469-1.188-.469-1.886 0-1.066.35-1.956 1.05-2.672.7-.718 1.562-1.076 2.586-1.076m-4.736-.905v12.754h1.184v-5.134c.497.61 1.05 1.065 1.664 1.366a4.527 4.527 0 0 0 2.021.452c1.3 0 2.411-.472 3.331-1.416.921-.944 1.382-2.09 1.382-3.438 0-1.33-.465-2.467-1.393-3.408-.93-.941-2.048-1.412-3.355-1.412-.749 0-1.427.16-2.036.483-.608.32-1.147.803-1.614 1.446v-1.692zM614.298 264.482h1.184v-12.753h-1.184zM617.765 260.93h1.184v-9.202h-1.184zm.588 3.789a.938.938 0 0 0 .69-.288.946.946 0 0 0 .287-.693.936.936 0 0 0-.287-.685.938.938 0 0 0-.69-.288.927.927 0 0 0-.682.288.936.936 0 0 0-.287.685c0 .27.096.502.287.693.19.192.418.288.682.288M630.34 259.018l-.938-.583c-.81 1.077-1.917 1.615-3.32 1.615-1.12 0-2.052-.36-2.793-1.082-.738-.72-1.11-1.595-1.11-2.626 0-.67.171-1.302.511-1.892.34-.592.81-1.05 1.403-1.378.594-.326 1.26-.49 1.997-.49 1.353 0 2.456.54 3.312 1.616l.938-.617a4.427 4.427 0 0 0-1.77-1.542c-.743-.365-1.587-.548-2.534-.548-1.454 0-2.662.463-3.62 1.387-.958.925-1.438 2.05-1.438 3.375 0 .891.225 1.718.673 2.482a4.73 4.73 0 0 0 1.848 1.79c.783.427 1.66.641 2.63.641.61 0 1.196-.093 1.764-.278a4.972 4.972 0 0 0 1.442-.728 3.967 3.967 0 0 0 1.005-1.142M642.533 261.526l-2.133-4.503h4.253zm.156 2.643 5.802-12.44h-1.343l-1.957 4.093h-5.359l-1.937-4.093h-1.389l5.878 12.44zM654.665 260.025a3.75 3.75 0 0 1-1.87-.486 3.525 3.525 0 0 1-1.353-1.345 3.678 3.678 0 0 1-.49-1.856c0-1.009.338-1.844 1.014-2.503.677-.66 1.554-.99 2.631-.99 1.088 0 1.963.327 2.625.982.662.653.995 1.513.995 2.58 0 .692-.153 1.311-.458 1.855a3.322 3.322 0 0 1-1.294 1.29 3.6 3.6 0 0 1-1.8.473m3.491.905h1.184v-7.332c0-1.29-.112-2.236-.338-2.833a3.676 3.676 0 0 0-1.614-1.954c-.767-.457-1.69-.685-2.765-.685-.79 0-1.499.112-2.127.335-.629.223-1.142.523-1.535.9-.396.376-.76.926-1.093 1.65h1.287c.35-.61.802-1.06 1.354-1.354.553-.293 1.24-.439 2.06-.439.806 0 1.486.15 2.043.45.555.301.952.678 1.19 1.133.237.456.354 1.191.354 2.205v.473a4.487 4.487 0 0 0-1.632-1.298 4.785 4.785 0 0 0-2.05-.452c-.846 0-1.642.21-2.387.63a4.507 4.507 0 0 0-1.728 1.695 4.642 4.642 0 0 0-.608 2.343c0 .851.211 1.645.634 2.381a4.663 4.663 0 0 0 1.758 1.746 4.695 4.695 0 0 0 2.366.643 4.42 4.42 0 0 0 1.925-.427c.595-.285 1.171-.755 1.722-1.408zM669.623 257.26c-.158.631-.388 1.136-.69 1.514a3.285 3.285 0 0 1-1.198.913 3.673 3.673 0 0 1-1.567.346c-.902 0-1.678-.29-2.327-.87-.474-.423-.833-1.057-1.076-1.903zm0-2.478.998-.524c-.327-.643-.706-1.162-1.134-1.557a4.501 4.501 0 0 0-1.447-.9c-.537-.206-1.144-.309-1.82-.309-1.502 0-2.675.491-3.523 1.476-.845.984-1.268 2.096-1.268 3.336a4.92 4.92 0 0 0 1.075 3.121c.909 1.161 2.124 1.742 3.648 1.742 1.568 0 2.822-.595 3.758-1.785.665-.84 1.003-1.889 1.016-3.145h-8.28c.022-1.069.364-1.945 1.024-2.629.662-.683 1.476-1.025 2.447-1.025.469 0 .925.082 1.368.244.443.163.82.379 1.13.649.311.27.648.705 1.008 1.306M673.134 260.93h1.184v-1.649c.473.631.997 1.103 1.572 1.416a3.86 3.86 0 0 0 1.877.47c.69 0 1.298-.174 1.831-.524.533-.35.927-.821 1.18-1.413.254-.593.381-1.514.381-2.766v-4.736h-1.184v4.39c0 1.06-.044 1.767-.132 2.122-.136.61-.399 1.067-.789 1.375-.39.307-.897.46-1.522.46a2.917 2.917 0 0 1-1.925-.71 3.324 3.324 0 0 1-1.12-1.759c-.114-.457-.169-1.29-.169-2.503v-3.375h-1.184zM692.626 259.018l-.938-.583c-.81 1.077-1.917 1.615-3.32 1.615-1.121 0-2.052-.36-2.793-1.082-.739-.72-1.11-1.595-1.11-2.626 0-.67.171-1.302.511-1.892.34-.592.809-1.05 1.403-1.378a4.079 4.079 0 0 1 1.996-.49c1.354 0 2.457.54 3.313 1.616l.938-.617a4.424 4.424 0 0 0-1.771-1.542c-.742-.365-1.586-.548-2.533-.548-1.454 0-2.662.463-3.62 1.387-.958.925-1.438 2.05-1.438 3.375 0 .891.225 1.718.673 2.482a4.73 4.73 0 0 0 1.848 1.79c.783.427 1.66.641 2.629.641.61 0 1.197-.093 1.765-.278a4.953 4.953 0 0 0 1.441-.728c.394-.299.73-.679 1.006-1.142M693.911 260.93h1.252l3.162-7.086 3.07 7.086h1.262l-5.49-12.568h-1.25l1.772 4.063z" style="fill:#00269a;fill-opacity:1;fill-rule:nonzero;stroke:none" transform="matrix(2.0093 0 0 -2.0093 -270.774 698.562)"/><path d="M257.663 248.684h7.604s6.418-.217 10.719 3.657c0 0 2.68 1.868 6.188 8.88 0 0 3.903 7.78 6.213 9.985 0 0 3.184 3.747 8.323 2 0 0 3.376-1.415 3.549-4.108 0 0-1.272 2.004-3.994 1.803 0 0-1.274-.057-2.201-.867-.926-.809-1.67-1.862-1.544-4.042 0 0 .643-7.72 9.212-13 0 0 7.073-4.318 16.325-4.313l2.796.01-31.776 67.532zM174.99 302.62c5.029 0 7.543 2.596 7.543 7.788v4.39H134.76v-66.126h6.3c6.467 0 9.699 2.843 9.699 8.525v20.926h23.494c5.03 0 7.544 2.612 7.544 7.837v3.76H150.76v12.9zM234.702 302.834V286.39h11.02c5.486 0 8.908 3.194 8.908 8.223 0 5.028-3.422 8.222-8.908 8.222zm0-28.722v-16.916c0-5.68-3.233-8.523-9.698-8.523h-6.3v65.93h31.641c15.253 0 18.98-11.516 18.98-19.727 0-15.952-14.005-20.764-21.33-20.764zM208.688 314.799a8.438 8.438 0 1 0-16.876 0 8.438 8.438 0 0 0 16.876 0M201.95 300.83c-6.467 0-9.7-2.841-9.7-8.523v-43.633h6.3c6.466 0 9.7 2.84 9.7 8.523v43.633z" style="fill:#0075c9;fill-opacity:1;fill-rule:nonzero;stroke:none" transform="matrix(2.0093 0 0 -2.0093 -270.774 698.562)"/><path d="M306.697 314.406c-7.832 0-14.204 6.372-14.204 14.204 0 4.109 1.78 8.015 4.88 10.715a3.485 3.485 0 1 0 4.577-5.257 7.237 7.237 0 0 1-2.487-5.458c0-3.99 3.246-7.234 7.234-7.234 3.99 0 7.234 3.245 7.234 7.234a7.217 7.217 0 0 1-1.81 4.786l-8.229 8.333a3.487 3.487 0 0 0 4.96 4.898l8.4-8.512a14.175 14.175 0 0 0 3.65-9.505c0-7.832-6.373-14.204-14.205-14.204" style="fill:#00a8e2;fill-opacity:1;fill-rule:nonzero;stroke:none" transform="matrix(2.0093 0 0 -2.0093 -270.774 698.562)"/><path d="M309.529 328.605a2.828 2.828 0 1 0-5.656 0 2.828 2.828 0 0 0 5.656 0" style="fill:#00a8e2;fill-opacity:1;fill-rule:nonzero;stroke:none" transform="matrix(2.0093 0 0 -2.0093 -270.774 698.562)"/><path d="M349.698 301.645c.808.834 1.764 1.256 2.84 1.256 1.09 0 2.017-.41 2.838-1.256.812-.838 1.223-1.827 1.223-2.939a4.023 4.023 0 0 0-1.179-2.893c-.792-.817-1.707-1.214-2.797-1.214-1.078 0-2.05.41-2.889 1.22-.847.815-1.259 1.76-1.259 2.887 0 1.13.4 2.09 1.223 2.94m-6.887-.42a7.888 7.888 0 0 1-.337-2.326c0-2.607 1-4.882 2.971-6.762 1.968-1.877 4.34-2.829 7.047-2.829 2.766 0 5.166.937 7.135 2.784 1.973 1.855 2.974 4.117 2.974 6.722 0 .81-.108 1.604-.32 2.362a7.507 7.507 0 0 1-.728 1.724h3.002v5.292h-8.795v3.108h-6v-3.108h-9.152v-5.292h2.903a9.325 9.325 0 0 1-.7-1.675M378.86 309.08h-6.002v-21.523h6.001v11.525h3.998v5.29h-3.998zM467.855 299.623h-9.106v-5.29h9.106v-23.058h6.001v37.806h-6zM503.589 297.853h-6.001v-5.474h-16.702v-5.29h39.405v5.29h-16.702z" style="fill:#00269a;fill-opacity:1;fill-rule:nonzero;stroke:none" transform="matrix(2.0093 0 0 -2.0093 -270.774 698.562)"/><path d="M519.491 302.902v5.29H503.59v3.465h-6.002v-3.464h-16.346v-5.291h10.648l-11.565-8.973h8.511l11.487 8.82 11.485-8.82h8.513l-11.566 8.973zM560.485 299.623h-9.106v-5.29h9.106v-23.058h6v37.806h-6zM587.298 295.813c-.792-.816-1.707-1.213-2.795-1.213-1.147 0-2.089.397-2.882 1.213-.783.806-1.18 1.779-1.18 2.894 0 1.17.397 2.174 1.18 2.98.793.818 1.707 1.215 2.796 1.215 1.147 0 2.09-.397 2.881-1.214.782-.806 1.18-1.81 1.18-2.981a4.023 4.023 0 0 0-1.18-2.894m7.181 2.976c0 .814-.108 1.613-.32 2.375a7.552 7.552 0 0 1-.729 1.738h3.003v5.29h-8.795v3.109h-6v-3.108h-9.152v-5.291h2.902a7.936 7.936 0 0 1-.659-1.7 9.205 9.205 0 0 1-.288-2.327c0-2.624.984-4.9 2.925-6.761 1.937-1.861 4.294-2.804 7.004-2.804 2.766 0 5.166.928 7.134 2.759 1.974 1.836 2.975 4.096 2.975 6.72M610.737 309.08h-6v-18.704h6v8.706h3.998v5.29h-3.998zM602.871 280.227c0-1.342-.44-2.509-1.308-3.47-.873-.967-1.905-1.436-3.157-1.436-1.313 0-2.389.47-3.29 1.44-.894.957-1.347 2.123-1.347 3.466 0 1.34.453 2.506 1.347 3.466.901.97 1.978 1.441 3.29 1.441 1.251 0 2.283-.47 3.157-1.438.868-.962 1.308-2.13 1.308-3.469m-4.506 10.197c-2.899 0-5.416-1.016-7.481-3.02-2.068-2.006-3.117-4.45-3.117-7.265 0-2.758 1.049-5.159 3.118-7.135 2.064-1.973 4.581-2.973 7.48-2.973 2.898 0 5.4 1.001 7.435 2.974 2.038 1.977 3.071 4.377 3.071 7.134 0 2.813-1.033 5.256-3.07 7.264-2.036 2.004-4.538 3.021-7.436 3.021M643.444 280.672c0-1.411-.509-2.67-1.512-3.741-.998-1.068-2.215-1.61-3.616-1.61-1.402 0-2.618.542-3.617 1.61-1.003 1.072-1.512 2.33-1.512 3.74 0 1.467.508 2.74 1.51 3.783 1 1.04 2.216 1.568 3.62 1.568 1.401 0 2.62-.528 3.618-1.568 1.001-1.043 1.51-2.315 1.51-3.782m-1.818 18.103h-6v-6.396H618.48v-5.29h10.958a10.707 10.707 0 0 1-1.578-2.708 9.624 9.624 0 0 1-.674-3.573c0-2.96 1.12-5.523 3.328-7.621 2.205-2.094 4.845-3.155 7.848-3.155 3.061 0 5.702 1.062 7.848 3.158 2.147 2.098 3.235 4.66 3.235 7.618 0 1.24-.214 2.44-.637 3.569a10.886 10.886 0 0 1-1.499 2.712h11.02v5.29h-16.702zM703.01 304.372v4.709h-6V288.8h6v10.28h3.998v5.29zM444.852 312.378l-4.002-3.84 8.639-8.247.073-.072a6.389 6.389 0 0 0 1.975-4.643 6.45 6.45 0 0 0-6.442-6.442 6.444 6.444 0 0 0-2.562 12.357l.282.174-.131.302-3.926 3.784-.218-.142a11.948 11.948 0 0 1-5.433-10.033c0-6.61 5.378-11.986 11.988-11.986 6.609 0 11.986 5.377 11.986 11.986 0 3.27-1.291 6.324-3.636 8.6zM537.68 312.378l-4.001-3.84 8.639-8.247.073-.072a6.389 6.389 0 0 0 1.975-4.643 6.45 6.45 0 0 0-6.442-6.442 6.45 6.45 0 0 0-6.444 6.442 6.445 6.445 0 0 0 3.882 5.915l.282.174-.131.302-3.926 3.785-.218-.143a11.95 11.95 0 0 1-5.433-10.033c0-6.61 5.378-11.986 11.988-11.986 6.609 0 11.986 5.377 11.986 11.986 0 3.27-1.291 6.324-3.636 8.6zM347.41 277.276v9.95h-6.002v-10.849c.075-1.29.76-4.391 5.65-4.391h31.801v5.29zM671.205 277.276v9.594h-6v-9.937h.012s-.517-4.947 5.649-4.947h32.145v5.29zM688.707 303.79v5.29h-23.858v-13.842h.007s-.004-.055-.007-.133v-.313c.044-1.215.629-4.5 5.656-4.5v-.005h18.202v5.29H670.85v8.214z" style="fill:#00269a;fill-opacity:1;fill-rule:nonzero;stroke:none" transform="matrix(2.0093 0 0 -2.0093 -270.774 698.562)"/><path d="M664.856 295.238h-.007v-.134c.003.08.007.134.007.134" style="fill:#fff;fill-opacity:1;fill-rule:nonzero;stroke:none" transform="matrix(2.0093 0 0 -2.0093 -270.774 698.562)"/><path d="M487.241 277.276v7.196h-6v-7.54h.007s-.004-.052-.007-.126v-.331c.048-1.226.648-4.49 5.656-4.49h32.594v5.29z" style="fill:#00269a;fill-opacity:1;fill-rule:nonzero;stroke:none" transform="matrix(2.0093 0 0 -2.0093 -270.774 698.562)"/><path d="M481.248 276.933h-.007v-.127c.003.074.007.127.007.127" style="fill:#fff;fill-opacity:1;fill-rule:nonzero;stroke:none" transform="matrix(2.0093 0 0 -2.0093 -270.774 698.562)"/><path d="M427.638 304.229v.394c-.053 1.225-.668 4.38-5.484 4.458h-33.98v-5.29h33.464v-6.13h6v6.482h-.006l.006.086" style="fill:#00269a;fill-opacity:1;fill-rule:nonzero;stroke:none" transform="matrix(2.0093 0 0 -2.0093 -270.774 698.562)"/><path d="M427.632 304.143h.006v.086l-.006-.086" style="fill:#fff;fill-opacity:1;fill-rule:nonzero;stroke:none" transform="matrix(2.0093 0 0 -2.0093 -270.774 698.562)"/><path d="M657.53 304.147v.547c-.073 1.27-.748 4.31-5.479 4.386h-32.682v-5.29h32.161v-8.794h6v9.147z" style="fill:#00269a;fill-opacity:1;fill-rule:nonzero;stroke:none" transform="matrix(2.0093 0 0 -2.0093 -270.774 698.562)"/><path d="M657.53 304.143v.005z" style="fill:#fff;fill-opacity:1;fill-rule:nonzero;stroke:none" transform="matrix(2.0093 0 0 -2.0093 -270.774 698.562)"/><path d="M427.638 281.219v.394c-.053 1.225-.668 4.38-5.483 4.458H410.95v3.683h17.487v5.289h-40.975v-5.29h17.487v-3.682h-16.776v-5.29h33.464v-9.506h6v9.858h-.006l.006.086" style="fill:#00269a;fill-opacity:1;fill-rule:nonzero;stroke:none" transform="matrix(2.0093 0 0 -2.0093 -270.774 698.562)"/><path d="M427.632 281.133h.006v.086l-.006-.086" style="fill:#fff;fill-opacity:1;fill-rule:nonzero;stroke:none" transform="matrix(2.0093 0 0 -2.0093 -270.774 698.562)"/></svg>