<svg xmlns="http://www.w3.org/2000/svg" xml:space="preserve" width="777.39642" height="200" viewBox="0 0 777.39642 200"><path d="M253.981 283.109s-5.723 1.214-5.723-1.621v-42.17s5.723-1.175 5.723 1.63zM240.535 281.488v-11.374h-3.341s-2.47-.053-2.47-4.066h5.811v-26.73s5.648-1.172 5.648 1.63v42.16s-5.648 1.215-5.648-1.62" style="fill:#231f20;fill-opacity:1;fill-rule:nonzero;stroke:none;stroke-width:2.78492" transform="matrix(2.16542 0 0 -2.16542 -31.771 715.95)"/><path d="M237.998 257.715c-5.027 3.259-6.6 5.409-6.6 11.906v7.313h4.692s2.448 0 2.448 3.982h-17.536s-2.52 0-2.52-3.982h6.984v-7.313c0-6.653-2.192-10.683-8.146-14.134 0 0 .398-1.994 3.094-1.994 3.4 0 7.533 4.757 8.043 7.191.493-2.434 5.706-6.907 10.9-7.224 0 0 1.376 2.515-1.359 4.255M31.397 243.584c-1.905 0-2.359 1.175-2.359 2.72v6.907s-6.352 1.254-6.352-1.579v-6.544c0-1.666.27-5.528 5.59-5.528l.036.047.022-.047h19.842s2.496 0 2.496 4.024zM275.586 243.584c-2.03 0-2.392 1.175-2.392 2.72v6.907s-6.38 1.254-6.38-1.579v-6.544c0-1.666.242-5.528 5.612-5.528v.047l.033-.047h19.868s2.478 0 2.478 4.024zM49.717 271.007v12.02s-6.414 1.134-6.414-1.704v-29.857s6.414-1.176 6.414 1.623v13.855h2.95s2.467.036 2.467 4.063zM58.677 265.355s-2.52-.036-2.535-4.022h15.415v-7.307s6.41-1.217 6.41 1.62v5.687h14.825s2.517.034 2.517 4.022zM120.127 263.484v7.6s-6.41 1.175-6.41-1.624v-5.976H99.431s-2.478-.042-2.478-4.022h36.677s2.462 0 2.482 4.022zM207.062 281.322v-3.5h-3.807s-2.481 0-2.481-3.98h6.288v-5.197h-3.807s-2.481-.08-2.481-4.06h6.288v-5.445s6.417-1.133 6.417 1.626v22.221s-6.417 1.175-6.417-1.665M160.646 259.31v5.803s-6.378 1.18-6.378-1.63v-4.174h-14.052s-2.462-.042-2.501-3.985h36.7s2.49 0 2.49 3.985zM161.127 279.408v5.406s-6.397 1.178-6.397-1.63v-3.776H144.09s-2.49-.039-2.512-3.938h29.974s2.462 0 2.462 3.938zM148.76 243.584v9.06s-6.385 1.133-6.385-1.705v-5.851c0-1.666.279-5.528 5.62-5.528l.036.047.023-.047h22.71s2.429 0 2.449 4.024zM27.402 261.702c-1.952 0-3.492 2.635-3.492 5.971 0 3.334 1.54 6.013 3.492 6.013 1.891 0 3.45-2.68 3.45-6.013 0-3.336-1.559-5.97-3.45-5.97m2.782 16.65v5.328s-6.436 1.214-6.436-1.63v-3.698h-6.605s-2.454-.039-2.47-4.024h5.023c-1.473-1.785-2.347-4.141-2.347-6.656 0-5.729 4.508-10.354 10.053-10.354 5.54 0 10.012 4.625 10.012 10.354 0 2.515-.877 4.87-2.331 6.656h2.467s2.465 0 2.493 4.024zM350.49 279.611c-1.918 0-3.422-2.272-3.422-5.158 0-2.882 1.504-5.154 3.423-5.154 1.902 0 3.442 2.272 3.442 5.154 0 2.886-1.54 5.158-3.442 5.158m10.034-5.158c0-4.993-4.476-8.936-10.034-8.936-5.49 0-9.993 3.943-9.993 8.936 0 4.916 4.504 8.893 9.993 8.893 5.558 0 10.034-3.977 10.034-8.893M116.941 253.777c-2.637 0-4.832-2.481-4.832-5.514 0-3.086 2.195-5.614 4.832-5.614 2.632 0 4.83 2.528 4.83 5.614 0 3.033-2.198 5.514-4.83 5.514m11.39-5.514c0-5.567-5.118-9.995-11.39-9.995-6.308 0-11.37 4.428-11.37 9.995 0 5.472 5.062 9.948 11.37 9.948 6.272 0 11.39-4.476 11.39-9.948M201.081 254.025c-2.459 0-4.439-2.601-4.439-5.762 0-3.217 1.98-5.815 4.44-5.815 2.428 0 4.42 2.598 4.42 5.815 0 3.16-1.992 5.762-4.42 5.762m11.37-5.762c0-5.567-5.065-9.995-11.37-9.995-6.275 0-11.4 4.428-11.4 9.995 0 5.472 5.125 9.947 11.4 9.947 6.305 0 11.37-4.475 11.37-9.947M372.79 283.027s-6.345 1.134-6.345-1.704v-22.34h-4.798s-2.429 0-2.429-3.986h7.227v-3.531s6.344-1.176 6.344 1.623zM355.073 243.584c-1.95 0-2.35 1.175-2.35 2.72v5.768s-6.386 1.223-6.386-1.62v-5.364c0-1.666.29-5.528 5.581-5.528l.07.047v-.047h19.18s2.509 0 2.509 4.024zM287.45 281.322v-3.5h-3.454s-2.479 0-2.479-3.98h5.932v-5.197h-3.453s-2.479-.08-2.479-4.06h5.932v-13.12s6.383-1.175 6.383 1.623v29.938s-6.383 1.137-6.383-1.704M269.82 277.497c-2.595 0-4.792-3.32-4.792-7.47 0-4.138 2.197-7.472 4.793-7.472 2.684 0 4.87 3.334 4.87 7.472 0 4.15-2.186 7.47-4.87 7.47m11.423-7.47c0-6.497-5.08-11.777-11.423-11.777-6.258 0-11.371 5.28-11.371 11.777 0 6.498 5.113 11.772 11.37 11.772 6.345 0 11.424-5.274 11.424-11.772" style="fill:#231f20;fill-opacity:1;fill-rule:nonzero;stroke:none;stroke-width:2.78492" transform="matrix(2.16542 0 0 -2.16542 -31.771 715.95)"/><path d="M91.372 276.322c0 1.751-.284 5.567-5.606 5.567l-.036-.09-.022.09H61.74s-2.476 0-2.498-4.025h23.354c1.95 0 2.365-1.183 2.365-2.715v-12.916s6.41-1.142 6.41 1.62zM101.332 273.843c0-1.702.264-5.517 5.584-5.517l.03.042.02-.042h23.025s2.53 0 2.53 3.977h-22.447c-1.95 0-2.354 1.217-2.37 2.682v7.065s-6.372 1.133-6.372-1.63zM85.541 255.488l-.05-.05v.05H61.318s-2.478 0-2.478-3.944h23.532c1.941 0 2.331-1.22 2.362-2.64v-9.708s6.397-1.18 6.397 1.671v9.101c0 1.699-.268 5.52-5.59 5.52M299.467 261.9s-2.481 0-2.481-3.979h15.398v-18.76s6.422-1.219 6.422 1.624v17.136h14.866s2.437 0 2.517 3.98zM340.417 263.853s-2.515-.041-2.515-3.98h9.413v-5.605s6.372-1.178 6.372 1.629v3.977h6.993s2.52 0 2.52 3.98z" style="fill:#231f20;fill-opacity:1;fill-rule:nonzero;stroke:none;stroke-width:2.78492" transform="matrix(2.16542 0 0 -2.16542 -31.771 715.95)"/><path d="M331.723 276.322c0 1.751-.29 5.567-5.606 5.567v-.09l-.081.09h-23.962s-2.44 0-2.44-4.025h23.355c1.947 0 2.359-1.183 2.359-2.715v-16.372s6.375-1.178 6.375 1.66zM183.306 281.16s-2.448 0-2.468-3.98h13.193c-.034-8.616-4.88-14.214-15.19-16.328 0 0 .148-3.094 3.51-2.846 5.038.245 12.532 3.167 15.843 9.51 2.03 3.978 2.228 9.21 2.228 13.644zM161.233 276.12c0-2.842 4.902-6.498 10.4-7.793 2.358-.577 3.636-1.549 3.394-4.314-5.208-.688-13.98 1.952-17.127 6.5-3.108-4.548-10.842-6.5-15.376-6.5-3.492 0-3.629 3.217-3.629 3.217 10.622 1.097 15.738 6.455 15.738 8.89" style="fill:#231f20;fill-opacity:1;fill-rule:nonzero;stroke:none;stroke-width:2.78492" transform="matrix(2.16542 0 0 -2.16542 -31.771 715.95)"/><path d="m46.324 328.92-14.576-12.666 14.576-13.242s1.49-1.217-.81-1.423h-6.191c-2.153 0-2.71.61-3.128 1.016l-14.3 13.318v.573l14.888 12.997s.972.978 2.687.814h6.044s2.665.164.81-1.387M120.982 301.186h-11.134c-4.89 0-8.647.279-12.532 2.554-4.16 2.353-6.168 6.422-6.168 11.658 0 10.15 5.962 15.23 18.926 15.23h13.977c0-5.035-2.784-4.996-2.784-4.996h-10.995c-6.169 0-9.221-2.515-9.553-7.023h23.332c0-4.958-3.069-4.958-3.069-4.958H100.67c.05-5.199 2.846-7.469 9.603-7.469h13.78c0-5.246-3.07-4.996-3.07-4.996M77.238 313.896c5.175.852 8.088 3.651 8.088 8.118 0 6.016-4.565 8.614-14.017 8.614H61.295c-10.129 0-10.767-7.149-10.767-9.421v-19.7s8.391-1.546 8.391 2.15v8.733l-.044 2.927c-.162 3.04.39 7.962 5.711 9.867 6.052 2.197 7.982 1.59 12.427 3.33 0 0-.323-7.143-6.848-10.477-2.724-1.42-7.33-2.436-9.82-4.386 1.192.159 2.983.245 5.297-.651 4.024-1.543 6.778-5.529 8.015-7.436 1.242-1.986 4.194-3.933 7.723-3.933l6.076-.041zM138.796 330.305s-8.368 1.543-8.368-2.152v-26.566s8.368-1.543 8.368 2.15z" style="fill:#196e76;fill-opacity:1;fill-rule:nonzero;stroke:none;stroke-width:2.78492" transform="matrix(2.16542 0 0 -2.16542 -31.771 715.95)"/><path d="M23.055 330.305s-8.383 1.543-8.383-2.152v-26.566s8.419-1.543 8.419 2.15z" style="fill:#196e76;fill-opacity:1;fill-rule:nonzero;stroke:none;stroke-width:2.78492" transform="matrix(2.16542 0 0 -2.16542 -31.771 715.95)"/></svg>