<svg xmlns="http://www.w3.org/2000/svg" width="520.69446mm" height="200mm" viewBox="0 0 520.69446 200"><path d="M0 0v-5.496h-2.569V6.923H0V2.106h2.588V0Zm-8.118-.214c-.928 0-1.356-.499-1.356-1.124 0-.57.446-1.016 1.356-1.016.892 0 1.338.446 1.338 1.016 0 .625-.446 1.124-1.338 1.124m-1.499-9.51v4.728h2.552v-2.568H.446v-2.16zm-.857 16.452h4.55V4.64h-4.55zm2.356-11.045c-2.177 0-3.837 1.088-3.837 3.015s1.66 3.104 3.837 3.104c2.141 0 3.711-1.177 3.711-3.104s-1.588-3.015-3.711-3.015m-4.925 8.457h9.493V2.088h-9.493z" style="fill:#002e6e;fill-opacity:1;fill-rule:nonzero;stroke:none" transform="matrix(1.87866 0 0 -1.87866 211.56 112.034)"/><path d="M0 0v4.068h-7.922v2.105h4.032v2.356h-6.245v2.195h9.956c.251 1.142.304 2.533.268 3.587h-7.994v2.158h10.51c.089-2.444-.107-4.211-.411-5.745h2.695V8.529h-6.191V6.173h3.889V0Z" style="fill:#002e6e;fill-opacity:1;fill-rule:nonzero;stroke:none" transform="matrix(1.87866 0 0 -1.87866 240.3 130.872)"/><path d="M227.69 258.95h-9.922v4.057h9.922zm-2.48 8.013v4.323h11.632v3.922h-28.225v-3.922h11.767v-4.323h-7.442v-16.09h4.826v4.123h9.922v-4.124h4.796v16.091z" style="fill:#002e6e;fill-opacity:1;fill-rule:nonzero;stroke:none;stroke-width:1.87866" transform="translate(46.844 -150.84)"/><path d="M0 0v5.424h-2.552v2.105H0v4.033h2.551V0Zm-7.37-4.872v5.996h2.552V-2.73h7.691v-2.142zm4.533 15.596c-.125-4.89-3.355-7.958-7.316-9.297l-1.178 2.034c3.354.857 5.157 3.212 5.621 5.157h-4.889v2.106z" style="fill:#002e6e;fill-opacity:1;fill-rule:nonzero;stroke:none" transform="matrix(1.87866 0 0 -1.87866 311.487 120.749)"/><path d="M0 0v-8.118h-2.569V6.745H0V2.106h2.605V0Zm-5.229-4.299c-1.391 1.034-2.622 2.247-3.3 3.747-.517-1.446-1.731-3.016-3.336-4.087l-1.589 1.856c2.48 1.552 3.551 3.622 3.551 6.602v2.355h2.713V3.908c0-2.962 1.319-4.978 3.568-6.388z" style="fill:#002e6e;fill-opacity:1;fill-rule:nonzero;stroke:none" transform="matrix(1.87866 0 0 -1.87866 348.37 111.732)"/><path d="M332.545 249.901h4.792v27.923h-4.792zm-14.146 12.672c0 1.271.939 2.378 2.95 2.378 1.977 0 2.85-1.107 2.85-2.378 0-1.41-.873-2.516-2.85-2.516-2.011 0-2.95 1.107-2.95 2.516m-1.441-12.672h8.414v3.887h-8.414zm14.01 22.927c-1.607.235-5.866.804-9.184.973-2.782.134-7.107.3-10.09.267l-.47-4.289c1.843.1 5.03.1 7.744.066v-1.441c-3.42-.705-5.097-2.984-5.097-5.832 0-1.576.639-2.917 1.745-3.922h-3.922v-3.722h18.873v3.722h-3.421c1.074 1.039 1.711 2.38 1.711 3.988 0 2.814-1.51 5.095-5.097 5.8v1.24c2.852-.134 5.766-.403 6.906-.57z" style="fill:#002e6e;fill-opacity:1;fill-rule:nonzero;stroke:none;stroke-width:1.87866" transform="translate(46.844 -150.84)"/><path d="M0 0h2.534v1.785H-.035c.071-.322.124-.643.124-.982A3.79 3.79 0 0 0 0 0m-4.925-10.527v5.977h2.57v-3.854h7.637v-2.123zm.5 13.382A1.976 1.976 0 0 1-6.423.839c0-1.231.927-2.017 1.998-2.017 1.053 0 1.998.786 1.998 2.017a1.987 1.987 0 0 1-1.998 2.016m6.959 3.033h2.534V-5.585H2.534v3.408H-1.16c-.785-.784-1.926-1.249-3.265-1.249-2.694 0-4.496 1.874-4.496 4.229 0 2.338 1.802 4.247 4.496 4.247 1.231 0 2.284-.429 3.069-1.088h3.89z" style="fill:#002e6e;fill-opacity:1;fill-rule:nonzero;stroke:none" transform="matrix(1.87866 0 0 -1.87866 409.367 110.09)"/><path d="M0 0v6.103h-6.245v2.159h9.814c.374 1.481.481 3.836.41 5.067h-8.064v2.159H6.513c.071-2.569-.125-5.246-.536-7.226h2.802V6.103H2.587V0Z" style="fill:#002e6e;fill-opacity:1;fill-rule:nonzero;stroke:none" transform="matrix(1.87866 0 0 -1.87866 438.204 129.096)"/><path d="M0 0h-3.105v2.017H0v9.456h2.552V-1.356H0Zm-7.422-5.085v4.55h2.515v-2.391h7.726v-2.159Zm-.536 13.061c0-.678.643-1.249 1.606-1.249 1.017 0 1.606.571 1.606 1.249 0 .732-.589 1.285-1.606 1.285-.963 0-1.606-.553-1.606-1.285m1.606-3.354c-2.373 0-4.05 1.392-4.05 3.39 0 1.963 1.677 3.39 4.05 3.39 2.552 0 4.068-1.445 4.068-3.426 0-1.962-1.516-3.354-4.068-3.354M-7.636.161v1.944c-1.285-.07-2.731-.124-3.819-.106l-.321 2.373c1.213-.072 3.712-.072 5.245-.018 1.892.053 4.212.179 5.193.321l.161-2.016c-.84-.125-2.427-.268-3.872-.375V.161Z" style="fill:#002e6e;fill-opacity:1;fill-rule:nonzero;stroke:none" transform="matrix(1.87866 0 0 -1.87866 482.53 120.582)"/><path d="m0 0 5.751 7.484h5.825L4.38-1.107l7.87-9.554H6.137L0-2.792v-7.869h-4.717V7.484H0Z" style="fill:#002e6e;fill-opacity:1;fill-rule:nonzero;stroke:none" transform="matrix(1.87866 0 0 -1.87866 197.301 65.288)"/><path d="M208.87 236.157h-8.862v-34.09h8.861z" style="fill:#002e6e;fill-opacity:1;fill-rule:nonzero;stroke:none;stroke-width:1.87866" transform="translate(46.844 -150.84)"/><path d="M0 0h6.81v7.003h4.717v-18.145H6.81v7.484H0v-7.484h-4.717V7.003H0Z" style="fill:#002e6e;fill-opacity:1;fill-rule:nonzero;stroke:none" transform="matrix(1.87866 0 0 -1.87866 294.323 64.384)"/><path d="m0 0-2.117 6.04L-4.235 0Zm1.251-3.586h-6.737L-6.57-6.738h-5.03l6.908 18.145h5.15L7.364-6.738h-5.03z" style="fill:#002e6e;fill-opacity:1;fill-rule:nonzero;stroke:none" transform="matrix(1.87866 0 0 -1.87866 364.263 72.658)"/><path d="M0 0c-.513.417-1.026.726-1.54.926a4.084 4.084 0 0 1-1.492.301c-.61 0-1.107-.144-1.492-.433-.385-.289-.578-.666-.578-1.131 0-.321.096-.585.29-.794.191-.208.444-.389.757-.541a6.382 6.382 0 0 1 1.059-.398c.392-.112.782-.233 1.167-.361C-.289-2.944.838-3.63 1.552-4.488c.714-.858 1.071-1.978 1.071-3.357 0-.931-.157-1.773-.469-2.528A5.292 5.292 0 0 0 .783-12.31c-.603-.537-1.341-.954-2.215-1.251-.875-.296-1.865-.445-2.972-.445-2.295 0-4.42.682-6.377 2.045l2.022 3.803c.705-.626 1.403-1.092 2.093-1.396.689-.305 1.372-.457 2.045-.457.771 0 1.344.176 1.722.53.376.352.565.753.565 1.203 0 .272-.049.509-.145.71a1.53 1.53 0 0 1-.481.553 3.864 3.864 0 0 1-.878.47c-.361.144-.798.304-1.311.48a26.79 26.79 0 0 0-1.794.638 5.657 5.657 0 0 0-1.564.927c-.457.384-.827.87-1.107 1.456-.281.586-.422 1.327-.422 2.226 0 .898.149 1.712.446 2.443a5.437 5.437 0 0 0 1.251 1.876c.538.522 1.195.928 1.973 1.216.779.289 1.649.433 2.612.433.898 0 1.837-.125 2.816-.373a12.447 12.447 0 0 0 2.815-1.095Z" style="fill:#002e6e;fill-opacity:1;fill-rule:nonzero;stroke:none" transform="matrix(1.87866 0 0 -1.87866 423.308 59.954)"/><path d="m0 0-2.117 6.04L-4.235 0Zm1.251-3.586h-6.738L-6.57-6.738h-5.03l6.908 18.145h5.15L7.364-6.738h-5.03z" style="fill:#002e6e;fill-opacity:1;fill-rule:nonzero;stroke:none" transform="matrix(1.87866 0 0 -1.87866 474.305 72.658)"/><path d="m0 0 1.299 1.691h1.316L.99-.25l1.777-2.158H1.386L0-.631v-1.777h-1.065v4.099H0Z" style="fill:#002e6e;fill-opacity:1;fill-rule:nonzero;stroke:none" transform="matrix(1.87866 0 0 -1.87866 190.646 143.882)"/><path d="M0 0a1.099 1.099 0 0 1 .342-.81 1.15 1.15 0 0 1 .811-.32 1.163 1.163 0 0 1 .812.32c.107.102.191.221.253.359.062.138.093.287.093.451 0 .163-.031.313-.093.451a1.129 1.129 0 0 1-.623.595A1.185 1.185 0 0 1 .342.81 1.102 1.102 0 0 1 0 0m-1.114 0c0 .305.056.588.168.851.113.262.269.492.467.688.2.195.438.348.716.459.277.11.582.166.916.166.329 0 .634-.056.912-.166a2.18 2.18 0 0 0 .721-.459A2.11 2.11 0 0 0 3.425 0a2.134 2.134 0 0 0-.639-1.538 2.149 2.149 0 0 0-.721-.459 2.441 2.441 0 0 0-.912-.166 2.44 2.44 0 0 0-.916.166c-.278.11-.516.263-.716.459a2.162 2.162 0 0 0-.467.687A2.15 2.15 0 0 0-1.114 0" style="fill:#002e6e;fill-opacity:1;fill-rule:nonzero;stroke:none" transform="matrix(1.87866 0 0 -1.87866 198.315 144.556)"/><path d="M0 0h.201c.211 0 .372.043.484.13a.45.45 0 0 1 .168.376.446.446 0 0 1-.168.374c-.112.088-.273.132-.484.132H0Zm2.343-2.267H1.017L0-.69v-1.577h-1.065v4.1H.592c.229 0 .428-.035.599-.102.169-.067.31-.158.42-.274.111-.116.195-.25.251-.402.056-.153.084-.316.084-.49 0-.311-.075-.565-.225-.758-.151-.194-.372-.325-.667-.394Z" style="fill:#002e6e;fill-opacity:1;fill-rule:nonzero;stroke:none" transform="matrix(1.87866 0 0 -1.87866 208.323 144.148)"/><path d="M0 0h-1.267v-.684H-.07v-.902h-1.197v-.707H0v-.903h-2.332V.903H0Z" style="fill:#002e6e;fill-opacity:1;fill-rule:nonzero;stroke:none" transform="matrix(1.87866 0 0 -1.87866 218.248 142.402)"/><path d="m0 0-.478 1.364L-.957 0Zm.283-.81h-1.522l-.244-.712H-2.62l1.56 4.099H.103l1.561-4.099H.528Z" style="fill:#002e6e;fill-opacity:1;fill-rule:nonzero;stroke:none" transform="matrix(1.87866 0 0 -1.87866 224.181 145.546)"/><path d="M187.426 299.246h-2v-7.7h2z" style="fill:#002e6e;fill-opacity:1;fill-rule:nonzero;stroke:none;stroke-width:1.87866" transform="translate(46.844 -150.84)"/><path d="M0 0v4.099h1.065l1.968-2.506v2.506h1.06V0h-1.06L1.065 2.506V0Z" style="fill:#002e6e;fill-opacity:1;fill-rule:nonzero;stroke:none" transform="matrix(1.87866 0 0 -1.87866 236.193 148.406)"/><path d="M0 0a1.277 1.277 0 0 1-.347.208.912.912 0 0 1-.337.068.545.545 0 0 1-.337-.097.306.306 0 0 1-.131-.255c0-.073.022-.133.065-.179a.56.56 0 0 1 .171-.123c.071-.035.151-.064.239-.09.089-.025.177-.052.264-.082.349-.116.602-.27.764-.464.161-.194.242-.447.242-.758 0-.21-.036-.401-.106-.571a1.183 1.183 0 0 0-.31-.438 1.43 1.43 0 0 0-.5-.282 2.088 2.088 0 0 0-.671-.101c-.519 0-.999.154-1.441.462l.456.859c.161-.142.318-.246.474-.315.155-.07.31-.103.462-.103.173 0 .303.039.388.119.085.079.128.17.128.272a.385.385 0 0 1-.032.161.368.368 0 0 1-.109.125.89.89 0 0 1-.199.105c-.081.032-.18.069-.296.108a6.857 6.857 0 0 0-.404.144 1.276 1.276 0 0 0-.354.21.974.974 0 0 0-.25.329c-.064.132-.096.3-.096.502 0 .204.034.388.101.552.067.165.161.307.283.425.122.117.27.209.446.274.175.065.372.098.589.098.203 0 .415-.028.637-.084A2.87 2.87 0 0 0 .425.832Z" style="fill:#002e6e;fill-opacity:1;fill-rule:nonzero;stroke:none" transform="matrix(1.87866 0 0 -1.87866 250.028 142.676)"/><path d="M0 0v-3.196h-1.065V0h-.875v.903H.875V0Z" style="fill:#002e6e;fill-opacity:1;fill-rule:nonzero;stroke:none" transform="matrix(1.87866 0 0 -1.87866 255.676 142.402)"/><path d="M213.673 299.246h-2v-7.7h2z" style="fill:#002e6e;fill-opacity:1;fill-rule:nonzero;stroke:none;stroke-width:1.87866" transform="translate(46.844 -150.84)"/><path d="M0 0v-3.196h-1.065V0h-.875v.903H.875V0Z" style="fill:#002e6e;fill-opacity:1;fill-rule:nonzero;stroke:none" transform="matrix(1.87866 0 0 -1.87866 265.357 142.402)"/><path d="M0 0v-2.229c0-.12.004-.242.014-.367a.992.992 0 0 1 .081-.34.563.563 0 0 1 .215-.247c.098-.064.236-.095.413-.095.178 0 .314.031.411.095a.603.603 0 0 1 .215.247.97.97 0 0 1 .083.34c.009.125.014.247.014.367V0h1.06v-2.376c0-.638-.146-1.103-.438-1.397-.291-.294-.74-.44-1.345-.44s-1.055.146-1.348.44c-.294.294-.44.759-.44 1.397V0Z" style="fill:#002e6e;fill-opacity:1;fill-rule:nonzero;stroke:none" transform="matrix(1.87866 0 0 -1.87866 270.197 140.705)"/><path d="M0 0v-3.196h-1.065V0h-.875v.903H.875V0Z" style="fill:#002e6e;fill-opacity:1;fill-rule:nonzero;stroke:none" transform="matrix(1.87866 0 0 -1.87866 279.746 142.402)"/><path d="M0 0h-1.266v-.684H-.07v-.902h-1.196v-.707H0v-.903h-2.331V.903H0Z" style="fill:#002e6e;fill-opacity:1;fill-rule:nonzero;stroke:none" transform="matrix(1.87866 0 0 -1.87866 286.964 142.402)"/><path d="M0 0h-1.283v-.684h1.169v-.902h-1.169v-1.61h-1.065V.903H0Z" style="fill:#002e6e;fill-opacity:1;fill-rule:nonzero;stroke:none" transform="matrix(1.87866 0 0 -1.87866 296.901 142.402)"/><path d="M0 0a1.099 1.099 0 0 1 .342-.81 1.15 1.15 0 0 1 .811-.32 1.163 1.163 0 0 1 .812.32A1.099 1.099 0 0 1 2.31 0a1.102 1.102 0 0 1-.345.81 1.175 1.175 0 0 1-.812.321A1.185 1.185 0 0 1 .342.81 1.102 1.102 0 0 1 0 0m-1.114 0c0 .305.056.588.168.851.113.262.268.492.467.688.2.195.438.348.716.459.276.11.581.166.916.166.329 0 .634-.056.912-.166a2.19 2.19 0 0 0 .721-.459A2.11 2.11 0 0 0 3.424 0a2.107 2.107 0 0 0-1.359-1.997 2.441 2.441 0 0 0-.912-.166c-.335 0-.64.055-.916.166-.278.11-.516.263-.716.459a2.146 2.146 0 0 0-.467.687A2.15 2.15 0 0 0-1.114 0" style="fill:#002e6e;fill-opacity:1;fill-rule:nonzero;stroke:none" transform="matrix(1.87866 0 0 -1.87866 300.14 144.556)"/><path d="M0 0h.202c.21 0 .371.043.484.13a.45.45 0 0 1 .168.376.446.446 0 0 1-.168.374c-.113.088-.274.132-.484.132H0Zm2.343-2.267H1.017L0-.69v-1.577h-1.065v4.1H.593c.228 0 .427-.035.598-.102.17-.067.311-.158.421-.274.111-.116.194-.25.25-.402.056-.153.084-.316.084-.49 0-.311-.075-.565-.225-.758-.151-.194-.372-.325-.666-.394Z" style="fill:#002e6e;fill-opacity:1;fill-rule:nonzero;stroke:none" transform="matrix(1.87866 0 0 -1.87866 310.146 144.148)"/><path d="M0 0h1.538v1.583h1.066v-4.1H1.538v1.691H0v-1.691h-1.065v4.1H0Z" style="fill:#002e6e;fill-opacity:1;fill-rule:nonzero;stroke:none" transform="matrix(1.87866 0 0 -1.87866 321.471 143.678)"/><path d="M0 0h-1.266v-.684H-.07v-.902h-1.196v-.707H0v-.903h-2.332V.903H0Z" style="fill:#002e6e;fill-opacity:1;fill-rule:nonzero;stroke:none" transform="matrix(1.87866 0 0 -1.87866 332.664 142.402)"/><path d="m0 0-.478 1.364L-.957 0Zm.283-.81h-1.522l-.244-.712H-2.62l1.56 4.099H.104l1.56-4.099H.528Z" style="fill:#002e6e;fill-opacity:1;fill-rule:nonzero;stroke:none" transform="matrix(1.87866 0 0 -1.87866 338.597 145.546)"/><path d="M0 0v-3.197h1.277v-.902h-2.342V0Z" style="fill:#002e6e;fill-opacity:1;fill-rule:nonzero;stroke:none" transform="matrix(1.87866 0 0 -1.87866 344.909 140.705)"/><path d="M0 0v-3.196h-1.065V0h-.875v.903H.875V0Z" style="fill:#002e6e;fill-opacity:1;fill-rule:nonzero;stroke:none" transform="matrix(1.87866 0 0 -1.87866 351.158 142.402)"/><path d="M0 0h1.538v1.583h1.066v-4.1H1.538v1.691H0v-1.691h-1.065v4.1H0Z" style="fill:#002e6e;fill-opacity:1;fill-rule:nonzero;stroke:none" transform="matrix(1.87866 0 0 -1.87866 355.998 143.678)"/><path d="m0 0-.478 1.364L-.957 0Zm.283-.81h-1.522l-.244-.712H-2.62l1.56 4.099H.104l1.56-4.099H.528Z" style="fill:#002e6e;fill-opacity:1;fill-rule:nonzero;stroke:none" transform="matrix(1.87866 0 0 -1.87866 370.774 145.546)"/><path d="M0 0v4.099h1.065l1.968-2.506v2.506h1.06V0h-1.06L1.065 2.506V0Z" style="fill:#002e6e;fill-opacity:1;fill-rule:nonzero;stroke:none" transform="matrix(1.87866 0 0 -1.87866 375.085 148.406)"/><path d="M0 0h.245C.43 0 .595.029.74.087a1.026 1.026 0 0 1 .595.6c.052.14.079.293.079.46 0 .163-.028.315-.082.457a1.06 1.06 0 0 1-.23.364 1.08 1.08 0 0 1-.368.239 1.307 1.307 0 0 1-.489.086H0Zm-1.065 3.197H.511c.279 0 .541-.057.786-.169.245-.112.458-.262.641-.449a2.073 2.073 0 0 0 .59-1.432c0-.268-.052-.527-.155-.775A2.092 2.092 0 0 0 1.302-.733a1.845 1.845 0 0 0-.791-.169h-1.576z" style="fill:#002e6e;fill-opacity:1;fill-rule:nonzero;stroke:none" transform="matrix(1.87866 0 0 -1.87866 386.695 146.71)"/><path d="M0 0a1.277 1.277 0 0 1-.347.208.912.912 0 0 1-.337.068.545.545 0 0 1-.337-.097.306.306 0 0 1-.131-.255c0-.073.022-.133.065-.179a.56.56 0 0 1 .171-.123c.071-.035.151-.064.239-.09.089-.025.177-.052.264-.082.349-.116.602-.27.764-.464.161-.194.242-.447.242-.758 0-.21-.036-.401-.106-.571a1.183 1.183 0 0 0-.31-.438 1.43 1.43 0 0 0-.5-.282 2.088 2.088 0 0 0-.671-.101c-.519 0-.999.154-1.441.462l.456.859c.161-.142.318-.246.474-.315.155-.07.31-.103.462-.103.173 0 .303.039.388.119.085.079.128.17.128.272a.385.385 0 0 1-.032.161.368.368 0 0 1-.109.125.89.89 0 0 1-.199.105c-.081.032-.18.069-.296.108a6.857 6.857 0 0 0-.404.144 1.276 1.276 0 0 0-.354.21.974.974 0 0 0-.25.329c-.064.132-.096.3-.096.502 0 .204.034.388.101.552.067.165.161.307.283.425.122.117.27.209.446.274.175.065.372.098.589.098.203 0 .415-.028.637-.084A2.87 2.87 0 0 0 .425.832Z" style="fill:#002e6e;fill-opacity:1;fill-rule:nonzero;stroke:none" transform="matrix(1.87866 0 0 -1.87866 401.033 142.676)"/><path d="M0 0a1.099 1.099 0 0 1 .342-.81 1.15 1.15 0 0 1 .811-.32 1.163 1.163 0 0 1 .812.32c.107.102.191.221.253.359.062.138.093.287.093.451 0 .163-.031.313-.093.451a1.129 1.129 0 0 1-.623.595A1.185 1.185 0 0 1 .342.81 1.102 1.102 0 0 1 0 0m-1.114 0c0 .305.056.588.168.851.113.262.269.492.467.688.2.195.438.348.716.459.277.11.582.166.916.166.329 0 .634-.056.912-.166.28-.111.52-.264.721-.459A2.11 2.11 0 0 0 3.425 0a2.134 2.134 0 0 0-.639-1.538 2.139 2.139 0 0 0-.721-.459 2.441 2.441 0 0 0-.912-.166 2.44 2.44 0 0 0-.916.166c-.278.11-.516.263-.716.459a2.162 2.162 0 0 0-.467.687A2.15 2.15 0 0 0-1.114 0" style="fill:#002e6e;fill-opacity:1;fill-rule:nonzero;stroke:none" transform="matrix(1.87866 0 0 -1.87866 405.455 144.556)"/><path d="M0 0c-.247.301-.551.452-.914.452a1.123 1.123 0 0 1-.794-.324 1.148 1.148 0 0 1-.314-.802c0-.162.027-.313.084-.451a1.091 1.091 0 0 1 .584-.598c.134-.058.279-.087.435-.087.341 0 .647.145.919.435v-1.261l-.109-.038a3.257 3.257 0 0 0-.456-.128 2.241 2.241 0 0 0-.419-.04 2.126 2.126 0 0 0-1.497.611 2.203 2.203 0 0 0-.476.69c-.12.267-.179.558-.179.873 0 .314.058.604.176.866a2.145 2.145 0 0 0 1.161 1.126 2.201 2.201 0 0 0 1.301.108A2.83 2.83 0 0 0 0 1.272Z" style="fill:#002e6e;fill-opacity:1;fill-rule:nonzero;stroke:none" transform="matrix(1.87866 0 0 -1.87866 419.008 143.28)"/><path d="M375.737 299.246h-2v-7.7h2z" style="fill:#002e6e;fill-opacity:1;fill-rule:nonzero;stroke:none;stroke-width:1.87866" transform="translate(46.844 -150.84)"/><path d="m0 0-.478 1.364L-.957 0Zm.283-.81h-1.522l-.244-.712H-2.62l1.56 4.099H.104l1.56-4.099H.528Z" style="fill:#002e6e;fill-opacity:1;fill-rule:nonzero;stroke:none" transform="matrix(1.87866 0 0 -1.87866 428.686 145.546)"/><path d="M0 0v-3.197h1.277v-.902h-2.342V0Z" style="fill:#002e6e;fill-opacity:1;fill-rule:nonzero;stroke:none" transform="matrix(1.87866 0 0 -1.87866 434.998 140.705)"/><path d="m0 0-.478 1.364L-.957 0Zm.283-.81h-1.522l-.244-.712H-2.62l1.56 4.099H.103l1.561-4.099H.527Z" style="fill:#002e6e;fill-opacity:1;fill-rule:nonzero;stroke:none" transform="matrix(1.87866 0 0 -1.87866 446.7 145.546)"/><path d="M0 0h-1.283v-.684h1.169v-.902h-1.169v-1.61h-1.065V.903H0Z" style="fill:#002e6e;fill-opacity:1;fill-rule:nonzero;stroke:none" transform="matrix(1.87866 0 0 -1.87866 455.422 142.402)"/><path d="M0 0h-1.283v-.684h1.169v-.902h-1.169v-1.61h-1.065V.903H0Z" style="fill:#002e6e;fill-opacity:1;fill-rule:nonzero;stroke:none" transform="matrix(1.87866 0 0 -1.87866 461.335 142.402)"/><path d="m0 0-.478 1.364L-.957 0Zm.282-.81h-1.521l-.245-.712H-2.62l1.56 4.099H.103l1.56-4.099H.527Z" style="fill:#002e6e;fill-opacity:1;fill-rule:nonzero;stroke:none" transform="matrix(1.87866 0 0 -1.87866 466.707 145.546)"/><path d="M426.173 299.246h-2v-7.7h2z" style="fill:#002e6e;fill-opacity:1;fill-rule:nonzero;stroke:none;stroke-width:1.87866" transform="translate(46.844 -150.84)"/><path d="M0 0h.202c.21 0 .371.043.484.13a.45.45 0 0 1 .168.376.446.446 0 0 1-.168.374c-.113.088-.274.132-.484.132H0Zm2.343-2.267H1.017L0-.69v-1.577h-1.065v4.1H.593c.228 0 .427-.035.598-.102.17-.067.311-.158.421-.274.111-.116.194-.25.25-.402.056-.153.084-.316.084-.49 0-.311-.075-.565-.225-.758-.151-.194-.372-.325-.666-.394Z" style="fill:#002e6e;fill-opacity:1;fill-rule:nonzero;stroke:none" transform="matrix(1.87866 0 0 -1.87866 476.939 144.148)"/><path d="M0 0a1.267 1.267 0 0 1-.348.208.909.909 0 0 1-.337.068.542.542 0 0 1-.336-.097.304.304 0 0 1-.132-.255c0-.073.022-.133.066-.179a.549.549 0 0 1 .171-.123c.071-.035.151-.064.239-.09.089-.025.177-.052.264-.082.348-.116.602-.27.764-.464.161-.194.241-.447.241-.758 0-.21-.035-.401-.105-.571a1.207 1.207 0 0 0-.31-.438 1.435 1.435 0 0 0-.501-.282 2.08 2.08 0 0 0-.671-.101c-.518 0-.998.154-1.44.462l.456.859c.16-.142.317-.246.474-.315.155-.07.309-.103.462-.103.173 0 .303.039.388.119.085.079.128.17.128.272a.385.385 0 0 1-.033.161.368.368 0 0 1-.109.125.881.881 0 0 1-.198.105c-.081.032-.18.069-.296.108a7.158 7.158 0 0 0-.405.144 1.27 1.27 0 0 0-.353.21.977.977 0 0 0-.251.329c-.063.132-.095.3-.095.502 0 .204.034.388.1.552.067.165.162.307.283.425.122.117.271.209.447.274.175.065.372.098.589.098.202 0 .415-.028.636-.084C.009 1.023.221.94.424.832Z" style="fill:#002e6e;fill-opacity:1;fill-rule:nonzero;stroke:none" transform="matrix(1.87866 0 0 -1.87866 486.712 142.676)"/><path d="M0 0c.726-3.966 1.634-7.965 2.976-11.455.44.045.879.105 1.319.18 5.788.993 10.848 4.469 13.883 9.538 4.662 7.787 4.039 15.379 2.696 20.376-1.108 4.123-4.777 10.425-10.344 10.893-4.67.385-7.744-1.247-9.976-5.308-.952-1.733-1.367-3.208-1.805-4.77-.614-2.189-1.249-4.452-3.312-7.185a78.555 78.555 0 0 0-.708-.913c-1.84-2.342-3.179-4.247-2.324-5.664.322-.533 1.39-.854 2.424-1.166 1.057-.317 2.254-.677 3.244-1.409A4.965 4.965 0 0 0 0-.001Zm4.622-15.031c2.352-4.242 5.718-7.115 10.772-7.153h.151c8.226 0 13.408 5.01 15.406 14.894l.147.732c.846 4.269 2.005 10.116 7.39 11.369.893.207 2.036.63 2.408 1.463.297.663.134 1.65-.445 2.705-.196.356-.931 1.226-1.643 2.066-2.246 2.652-5.64 6.66-7.116 11.245l-.313.977c-1.818 5.7-3.39 10.622-9.321 14.591-5.699 3.813-13.156 4.788-20.457 2.668-7.675-2.226-13.816-7.435-16.847-14.291-6.156-13.921-2.241-27.52 4.807-33.759 2.657-2.199 5.945-3.545 9.438-3.922C-2.21-7.979-3.045-4.247-3.698-.677v.001c-.06.327-.217.586-.466.771-.462.342-1.253.58-2.089.831-1.555.468-3.49 1.05-4.561 2.823-2.265 3.754.654 7.471 2.585 9.93.233.295.458.581.665.856 1.635 2.166 2.126 3.913 2.693 5.934.454 1.619.97 3.454 2.13 5.565 2.963 5.392 7.408 7.766 13.585 7.244 7.021-.59 12.003-7.495 13.661-13.663 1.532-5.699 2.238-14.366-3.102-23.283A23.902 23.902 0 0 0 4.931-14.98l-.309-.051m10.919-10.913-.175.001c-7.407.055-11.904 4.57-14.794 10.634-4.945.1-9.686 1.809-13.456 4.93-10.71 9.478-11.012 26.348-5.801 38.135C-15.203 35.63-8.191 41.601.553 44.137c8.372 2.428 16.972 1.279 23.596-3.154 7.022-4.7 8.949-10.736 10.812-16.572l.31-.97c1.248-3.875 4.352-7.54 6.406-9.966.982-1.161 1.692-1.999 2.069-2.686 1.168-2.127 1.375-4.275.583-6.048-.553-1.238-1.868-2.867-4.989-3.592-2.799-.651-3.686-4.055-4.554-8.438l-.149-.745c-2.336-11.556-9.115-17.91-19.096-17.91" style="fill:#f37b70;fill-opacity:1;fill-rule:nonzero;stroke:none" transform="matrix(1.87866 0 0 -1.87866 74.19 117.048)"/></svg>