<svg xmlns="http://www.w3.org/2000/svg" xml:space="preserve" width="1332.3463" height="400" viewBox="0 0 1332.3463 399.99999"><defs><clipPath id="a" clipPathUnits="userSpaceOnUse"><path d="M177.343 309.063a109.473 109.473 0 0 1-24.169-16.894 82.267 82.267 0 0 1 2.114-12.632c.287-1.286.698-2.543 1.035-3.816.363-1.266.801-2.512 1.196-3.768.891-2.48 1.826-4.945 2.889-7.352a99.848 99.848 0 0 1 1.838-3.902 90 90 0 0 0 18.575 12.846.474.474 0 0 0 .639-.201c.006-.011.006-.023.011-.034a.476.476 0 0 0-.146-.563c-6.206-4.768-12.085-9.852-17.275-15.509a92.778 92.778 0 0 1 3.881-6.47 90.497 90.497 0 0 1 4.678-6.312 106.567 106.567 0 0 1 5.186-5.978 136.84 136.84 0 0 1 6.461-6.468 58.771 58.771 0 0 0 4.551 4.215 78.172 78.172 0 0 0 8.392 6.113 88.048 88.048 0 0 0 6.109 3.461c-3.729 7.121-7.332 14.313-10.736 21.603-1.496 3.251-3.028 6.488-4.467 9.766a136.107 136.107 0 0 0-1.82 4.321c-1.879 4.792-3.437 9.719-4.289 14.906a.478.478 0 0 0 .305.52 1.224 1.224 0 0 0-.022.054c35.198 15.447 66.852 13.94 69.168 9.78 1.337-2.404-.599-5.301-2.528-7.362-.343-.365.111-.92.533-.65 4.381 2.813 10.918 8.126 7.247 13.009-3.655 4.864-15.369 8.241-30.513 8.241-14.49.001-32.119-3.09-48.843-10.924"/></clipPath><clipPath id="c" clipPathUnits="userSpaceOnUse"><path d="M199.235 239.297c-2.694-1.912-5.274-3.97-7.684-6.195a71.883 71.883 0 0 1-4.04-4.056 159.336 159.336 0 0 1 14.334-11.252 195.47 195.47 0 0 1 9.146-6.013c2.232 2.532 4.855 4.647 7.696 6.403a670.892 670.892 0 0 0-12.238 21.679c-.553 1.032-1.095 2.071-1.644 3.106a83.767 83.767 0 0 1-5.57-3.672"/></clipPath><clipPath id="e" clipPathUnits="userSpaceOnUse"><path d="M243.236 215.918a81.287 81.287 0 0 0-2.094-3.046 68.99 68.99 0 0 1 8.156 6.685 10.3 10.3 0 0 1-2.959 1.517c-.956-1.765-2.008-3.476-3.103-5.156"/></clipPath><clipPath id="g" clipPathUnits="userSpaceOnUse"><path d="M213.079 210.501a294.615 294.615 0 0 1 11.034-6.349c.838.295 1.672.609 2.504.937a769.06 769.06 0 0 0-4.908 8.011c-.566.939-1.119 1.886-1.68 2.827-2.53-1.541-4.892-3.33-6.95-5.426"/></clipPath><clipPath id="i" clipPathUnits="userSpaceOnUse"><path d="M238.982 222.017a33.647 33.647 0 0 1-3.331-.304l-.14-.024a196.358 196.358 0 0 0-1.85-13.343c.883.466 1.76.935 2.616 1.433.188.286.38.572.568.858a330.382 330.382 0 0 1 4.273 6.635l2.69 4.42c-1.32.23-2.669.338-4.022.338-.268 0-.536-.004-.804-.013"/></clipPath><clipPath id="k" clipPathUnits="userSpaceOnUse"><path d="M231.538 220.88a47.677 47.677 0 0 1-6.963-2.499 52.81 52.81 0 0 1-1.766-.882c.515-.966 1.026-1.933 1.542-2.897l4.636-8.551c.331.142.665.273.994.423.144.066.281.138.423.206 0 0 .756 5.184 1.913 14.392a14.462 14.462 0 0 1-.779-.192"/></clipPath><clipPath id="m" clipPathUnits="userSpaceOnUse"><path d="M226.651 290.499c-10.113-1.648-20.461-4.734-30.631-9.36a119.793 119.793 0 0 1-3.732-1.784c.451-1.005.898-2.011 1.339-3.021l3.162-6.971a907.022 907.022 0 0 1 10.421-21.675c5.946 2.675 12.164 4.724 18.537 5.863a.475.475 0 0 0 .549-.383c.004-.025-.001-.049-.001-.074a.468.468 0 0 0-.32-.46c-6.075-1.978-11.939-4.468-17.467-7.532.552-1.1 1.099-2.203 1.656-3.3 3.716-7.367 7.538-14.686 11.411-21.982a45.9 45.9 0 0 0 1.92.935c2.629 1.156 5.379 2.085 8.201 2.691.331.081.644.151.943.212.669 5.409 1.446 11.979 2.275 19.537.134 1.213 1.253 1.627 1.301.407.188-4.747.27-11.104-.475-19.532l.151.004c1.02.088 2.043.142 3.073.125 1.969-.029 3.959-.265 5.878-.809l.372.611c1.373 2.242 2.705 4.509 4.178 6.738a.47.47 0 0 0 .58.17c.027-.01.056-.016.081-.032a.48.48 0 0 0 .197-.53c-.739-2.594-1.8-5.067-2.981-7.475-.051-.102-.106-.201-.157-.304a11.813 11.813 0 0 0 3.177-2.055 69.708 69.708 0 0 1 16.733 26.824c-2.561 2.618-5.987 4.597-10.043 5.928-6.215 2.04-13.913 2.545-22.283 1.438-.591 6.22-1.642 12.39-3.133 18.726 13.657 4.183 32.81 3.1 33.905-.283.93-2.88-2.961-5.892-5.151-7.416-.438-.304-.153-.983.374-.899 3.678.588 10.805 2.896 10.022 11.967-.874 10.121-14.837 15.174-29.951 15.174-4.713.001-9.536-.491-14.111-1.473"/></clipPath><clipPath id="o" clipPathUnits="userSpaceOnUse"><path d="M176.95 209.093c-.174-1.495-.169-2.989.055-4.431.002-.034.011-.064.014-.097a69.646 69.646 0 0 1 26.598-4.277c-12.159 2.954-19.388 5.064-26.606 9.234-.02-.143-.046-.286-.061-.429"/></clipPath><clipPath id="q" clipPathUnits="userSpaceOnUse"><path d="M179.685 217.904a31.057 31.057 0 0 1-1.169-2.639s-.179-.513-.404-1.197c14.268-8.381 25.774-10.723 28.094-11.131.094.486.232 1.054.442 1.606.607 1.825 1.524 3.503 2.611 5.049a155.802 155.802 0 0 0-9.26 5.435 137.655 137.655 0 0 0-15.021 11.087c-2.067-2.572-3.878-5.306-5.293-8.21"/></clipPath><clipPath id="s" clipPathUnits="userSpaceOnUse"><path d="M208.321 200.705c8.593.188 13.687 2.578 13.687 2.578-.231.121-.709.377-1.002.507a168.137 168.137 0 0 0-9.736 4.723c-1.981-2.372-2.949-5.839-2.949-7.808"/></clipPath><clipPath id="u" clipPathUnits="userSpaceOnUse"><path d="M151.069 238.953s-.246-.4-.553-.994a69.683 69.683 0 0 1 10.078-11.135 112.16 112.16 0 0 1 13.277-10.134c.133.355.279.718.457 1.096.332.774.688 1.533 1.067 2.276 1.634 3.206 3.712 6.102 5.976 8.788.072.086.147.166.219.25a118.189 118.189 0 0 0-6.733 6.645c-3.717 3.984-7.218 8.224-10.221 12.857a85.672 85.672 0 0 0-3.278 5.567c-3.992-4.714-7.504-9.798-10.289-15.216"/></clipPath><clipPath id="w" clipPathUnits="userSpaceOnUse"><path d="M148.509 233.383a60.97 60.97 0 0 1-2.203-6.441c6.908-8.839 15.742-15.693 25.602-20.251-.006.996.052 1.985.173 2.958.109.917.281 1.815.482 2.702-3.908 2.7-8.091 6.131-13.274 10.728-3.941 3.495-7.285 7.584-10.097 11.885-.228-.527-.468-1.049-.683-1.581"/></clipPath><clipPath id="y" clipPathUnits="userSpaceOnUse"><path d="M189.159 338.469a69.798 69.798 0 0 1-20.171-6.848 69.378 69.378 0 0 1-14.348-9.918 69.34 69.34 0 0 1-13.687-16.868 70.012 70.012 0 0 1-5.4-11.664c-3.219-9.055-4.592-18.77-3.858-28.54a69.519 69.519 0 0 1 6.07-23.602 70.16 70.16 0 0 1 4.727-8.69 59.423 59.423 0 0 0 1.205 3.05 62.974 62.974 0 0 0 2.355 4.864 83.548 83.548 0 0 0-6.386 15.369c-.824 2.941-.126 3.482 1.153.332l.001-.001a79.588 79.588 0 0 1 6.568-13.328c.233.411.373.667.373.667 3.181 5.31 7.046 10.174 11.373 14.491.081.081.167.156.25.237a90.108 90.108 0 0 0-2.317 5.168c-.294.713-.555 1.438-.829 2.159a83.793 83.793 0 0 0-3.898 13.534 76.337 76.337 0 0 0-1.248 9.378 66.191 66.191 0 0 0-.157 5.336c.002 6.089.603 11.976 1.486 17.375 5.485 6.137 21.319 21.176 46.737 23.796 18.876 1.946 20.591-1.154 19.334-3.674-.427-.686-.981-1.314-1.453-1.796h.002c-.472-.461-.407-.779.312-.546 2.512.78 7.728 2.837 6.431 6.173-1.092 2.808-10.259 4.831-20.685 4.832-4.596 0-9.436-.393-13.94-1.286"/></clipPath><clipPath id="A" clipPathUnits="userSpaceOnUse"><path d="M0 540h780.095V0H0Z"/></clipPath><radialGradient id="b" cx="0" cy="0" r="1" fx="0" fy="0" gradientTransform="matrix(110.47257 0 0 -110.47257 227.04 206.945)" gradientUnits="userSpaceOnUse" spreadMethod="pad"><stop offset="0" style="stop-opacity:1;stop-color:#271d67"/><stop offset="0.22050164" style="stop-opacity:1;stop-color:#271d67"/><stop offset="0.640825" style="stop-opacity:1;stop-color:#009fe3"/><stop offset="0.72568869" style="stop-opacity:1;stop-color:#009fe3"/><stop offset="1" style="stop-opacity:1;stop-color:#89bd24"/></radialGradient><radialGradient id="d" cx="0" cy="0" r="1" fx="0" fy="0" gradientTransform="matrix(110.47723 0 0 -110.47723 227.04 206.944)" gradientUnits="userSpaceOnUse" spreadMethod="pad"><stop offset="0" style="stop-opacity:1;stop-color:#271d67"/><stop offset="0.22050164" style="stop-opacity:1;stop-color:#271d67"/><stop offset="0.640825" style="stop-opacity:1;stop-color:#009fe3"/><stop offset="0.72568869" style="stop-opacity:1;stop-color:#009fe3"/><stop offset="1" style="stop-opacity:1;stop-color:#89bd24"/></radialGradient><radialGradient id="f" cx="0" cy="0" r="1" fx="0" fy="0" gradientTransform="matrix(110.46918 0 0 -110.46918 227.04 206.944)" gradientUnits="userSpaceOnUse" spreadMethod="pad"><stop offset="0" style="stop-opacity:1;stop-color:#271d67"/><stop offset="0.22050164" style="stop-opacity:1;stop-color:#271d67"/><stop offset="0.640825" style="stop-opacity:1;stop-color:#009fe3"/><stop offset="0.72568869" style="stop-opacity:1;stop-color:#009fe3"/><stop offset="1" style="stop-opacity:1;stop-color:#89bd24"/></radialGradient><radialGradient id="h" cx="0" cy="0" r="1" fx="0" fy="0" gradientTransform="matrix(110.45197 0 0 -110.45197 227.04 206.944)" gradientUnits="userSpaceOnUse" spreadMethod="pad"><stop offset="0" style="stop-opacity:1;stop-color:#271d67"/><stop offset="0.22050164" style="stop-opacity:1;stop-color:#271d67"/><stop offset="0.640825" style="stop-opacity:1;stop-color:#009fe3"/><stop offset="0.72568869" style="stop-opacity:1;stop-color:#009fe3"/><stop offset="1" style="stop-opacity:1;stop-color:#89bd24"/></radialGradient><radialGradient id="j" cx="0" cy="0" r="1" fx="0" fy="0" gradientTransform="matrix(110.4758 0 0 -110.4758 227.04 206.945)" gradientUnits="userSpaceOnUse" spreadMethod="pad"><stop offset="0" style="stop-opacity:1;stop-color:#271d67"/><stop offset="0.22050164" style="stop-opacity:1;stop-color:#271d67"/><stop offset="0.640825" style="stop-opacity:1;stop-color:#009fe3"/><stop offset="0.72568869" style="stop-opacity:1;stop-color:#009fe3"/><stop offset="1" style="stop-opacity:1;stop-color:#89bd24"/></radialGradient><radialGradient id="l" cx="0" cy="0" r="1" fx="0" fy="0" gradientTransform="matrix(110.47494 0 0 -110.47494 227.04 206.945)" gradientUnits="userSpaceOnUse" spreadMethod="pad"><stop offset="0" style="stop-opacity:1;stop-color:#271d67"/><stop offset="0.22050164" style="stop-opacity:1;stop-color:#271d67"/><stop offset="0.640825" style="stop-opacity:1;stop-color:#009fe3"/><stop offset="0.72568869" style="stop-opacity:1;stop-color:#009fe3"/><stop offset="1" style="stop-opacity:1;stop-color:#89bd24"/></radialGradient><radialGradient id="n" cx="0" cy="0" r="1" fx="0" fy="0" gradientTransform="matrix(110.4728 0 0 -110.4728 227.04 206.945)" gradientUnits="userSpaceOnUse" spreadMethod="pad"><stop offset="0" style="stop-opacity:1;stop-color:#271d67"/><stop offset="0.22050164" style="stop-opacity:1;stop-color:#271d67"/><stop offset="0.640825" style="stop-opacity:1;stop-color:#009fe3"/><stop offset="0.72568869" style="stop-opacity:1;stop-color:#009fe3"/><stop offset="1" style="stop-opacity:1;stop-color:#89bd24"/></radialGradient><radialGradient id="p" cx="0" cy="0" r="1" fx="0" fy="0" gradientTransform="matrix(110.47102 0 0 -110.47102 227.04 206.944)" gradientUnits="userSpaceOnUse" spreadMethod="pad"><stop offset="0" style="stop-opacity:1;stop-color:#271d67"/><stop offset="0.22050164" style="stop-opacity:1;stop-color:#271d67"/><stop offset="0.640825" style="stop-opacity:1;stop-color:#009fe3"/><stop offset="0.72568869" style="stop-opacity:1;stop-color:#009fe3"/><stop offset="1" style="stop-opacity:1;stop-color:#89bd24"/></radialGradient><radialGradient id="r" cx="0" cy="0" r="1" fx="0" fy="0" gradientTransform="matrix(110.47044 0 0 -110.47044 227.04 206.944)" gradientUnits="userSpaceOnUse" spreadMethod="pad"><stop offset="0" style="stop-opacity:1;stop-color:#271d67"/><stop offset="0.22050164" style="stop-opacity:1;stop-color:#271d67"/><stop offset="0.640825" style="stop-opacity:1;stop-color:#009fe3"/><stop offset="0.72568869" style="stop-opacity:1;stop-color:#009fe3"/><stop offset="1" style="stop-opacity:1;stop-color:#89bd24"/></radialGradient><radialGradient id="t" cx="0" cy="0" r="1" fx="0" fy="0" gradientTransform="matrix(116.29969 0 0 -116.29969 227.313 206.833)" gradientUnits="userSpaceOnUse" spreadMethod="pad"><stop offset="0" style="stop-opacity:1;stop-color:#271d67"/><stop offset="0.22050164" style="stop-opacity:1;stop-color:#271d67"/><stop offset="0.640825" style="stop-opacity:1;stop-color:#009fe3"/><stop offset="0.72568869" style="stop-opacity:1;stop-color:#009fe3"/><stop offset="1" style="stop-opacity:1;stop-color:#89bd24"/></radialGradient><radialGradient id="v" cx="0" cy="0" r="1" fx="0" fy="0" gradientTransform="matrix(110.47427 0 0 -110.47427 227.04 206.944)" gradientUnits="userSpaceOnUse" spreadMethod="pad"><stop offset="0" style="stop-opacity:1;stop-color:#271d67"/><stop offset="0.22050164" style="stop-opacity:1;stop-color:#271d67"/><stop offset="0.640825" style="stop-opacity:1;stop-color:#009fe3"/><stop offset="0.72568869" style="stop-opacity:1;stop-color:#009fe3"/><stop offset="1" style="stop-opacity:1;stop-color:#89bd24"/></radialGradient><radialGradient id="x" cx="0" cy="0" r="1" fx="0" fy="0" gradientTransform="matrix(110.47231 0 0 -110.47231 227.04 206.945)" gradientUnits="userSpaceOnUse" spreadMethod="pad"><stop offset="0" style="stop-opacity:1;stop-color:#271d67"/><stop offset="0.22050164" style="stop-opacity:1;stop-color:#271d67"/><stop offset="0.640825" style="stop-opacity:1;stop-color:#009fe3"/><stop offset="0.72568869" style="stop-opacity:1;stop-color:#009fe3"/><stop offset="1" style="stop-opacity:1;stop-color:#89bd24"/></radialGradient><radialGradient id="z" cx="0" cy="0" r="1" fx="0" fy="0" gradientTransform="matrix(110.47372 0 0 -110.47372 227.04 206.945)" gradientUnits="userSpaceOnUse" spreadMethod="pad"><stop offset="0" style="stop-opacity:1;stop-color:#271d67"/><stop offset="0.22050164" style="stop-opacity:1;stop-color:#271d67"/><stop offset="0.640825" style="stop-opacity:1;stop-color:#009fe3"/><stop offset="0.72568869" style="stop-opacity:1;stop-color:#009fe3"/><stop offset="1" style="stop-opacity:1;stop-color:#89bd24"/></radialGradient></defs><g clip-path="url(#a)" transform="matrix(2.86718 0 0 -2.86718 -377.04 974.14)"><path d="M177.343 309.063a109.473 109.473 0 0 1-24.169-16.894 82.267 82.267 0 0 1 2.114-12.632c.287-1.286.698-2.543 1.035-3.816.363-1.266.801-2.512 1.196-3.768.891-2.48 1.826-4.945 2.889-7.352a99.848 99.848 0 0 1 1.838-3.902 90 90 0 0 0 18.575 12.846.474.474 0 0 0 .639-.201c.006-.011.006-.023.011-.034a.476.476 0 0 0-.146-.563c-6.206-4.768-12.085-9.852-17.275-15.509a92.778 92.778 0 0 1 3.881-6.47 90.497 90.497 0 0 1 4.678-6.312 106.567 106.567 0 0 1 5.186-5.978 136.84 136.84 0 0 1 6.461-6.468 58.771 58.771 0 0 0 4.551 4.215 78.172 78.172 0 0 0 8.392 6.113 88.048 88.048 0 0 0 6.109 3.461c-3.729 7.121-7.332 14.313-10.736 21.603-1.496 3.251-3.028 6.488-4.467 9.766a136.107 136.107 0 0 0-1.82 4.321c-1.879 4.792-3.437 9.719-4.289 14.906a.478.478 0 0 0 .305.52 1.224 1.224 0 0 0-.022.054c35.198 15.447 66.852 13.94 69.168 9.78 1.337-2.404-.599-5.301-2.528-7.362-.343-.365.111-.92.533-.65 4.381 2.813 10.918 8.126 7.247 13.009-3.655 4.864-15.369 8.241-30.513 8.241-14.49.001-32.119-3.09-48.843-10.924" style="fill:url(#b);stroke:none"/></g><g clip-path="url(#c)" transform="matrix(2.86718 0 0 -2.86718 -377.04 974.14)"><path d="M199.235 239.297c-2.694-1.912-5.274-3.97-7.684-6.195a71.883 71.883 0 0 1-4.04-4.056 159.336 159.336 0 0 1 14.334-11.252 195.47 195.47 0 0 1 9.146-6.013c2.232 2.532 4.855 4.647 7.696 6.403a670.892 670.892 0 0 0-12.238 21.679c-.553 1.032-1.095 2.071-1.644 3.106a83.767 83.767 0 0 1-5.57-3.672" style="fill:url(#d);stroke:none"/></g><g clip-path="url(#e)" transform="matrix(2.86718 0 0 -2.86718 -377.04 974.14)"><path d="M243.236 215.918a81.287 81.287 0 0 0-2.094-3.046 68.99 68.99 0 0 1 8.156 6.685 10.3 10.3 0 0 1-2.959 1.517c-.956-1.765-2.008-3.476-3.103-5.156" style="fill:url(#f);stroke:none"/></g><g clip-path="url(#g)" transform="matrix(2.86718 0 0 -2.86718 -377.04 974.14)"><path d="M213.079 210.501a294.615 294.615 0 0 1 11.034-6.349c.838.295 1.672.609 2.504.937a769.06 769.06 0 0 0-4.908 8.011c-.566.939-1.119 1.886-1.68 2.827-2.53-1.541-4.892-3.33-6.95-5.426" style="fill:url(#h);stroke:none"/></g><g clip-path="url(#i)" transform="matrix(2.86718 0 0 -2.86718 -377.04 974.14)"><path d="M238.982 222.017a33.647 33.647 0 0 1-3.331-.304l-.14-.024a196.358 196.358 0 0 0-1.85-13.343c.883.466 1.76.935 2.616 1.433.188.286.38.572.568.858a330.382 330.382 0 0 1 4.273 6.635l2.69 4.42c-1.32.23-2.669.338-4.022.338-.268 0-.536-.004-.804-.013" style="fill:url(#j);stroke:none"/></g><g clip-path="url(#k)" transform="matrix(2.86718 0 0 -2.86718 -377.04 974.14)"><path d="M231.538 220.88a47.677 47.677 0 0 1-6.963-2.499 52.81 52.81 0 0 1-1.766-.882c.515-.966 1.026-1.933 1.542-2.897l4.636-8.551c.331.142.665.273.994.423.144.066.281.138.423.206 0 0 .756 5.184 1.913 14.392a14.462 14.462 0 0 1-.779-.192" style="fill:url(#l);stroke:none"/></g><g clip-path="url(#m)" transform="matrix(2.86718 0 0 -2.86718 -377.04 974.14)"><path d="M226.651 290.499c-10.113-1.648-20.461-4.734-30.631-9.36a119.793 119.793 0 0 1-3.732-1.784c.451-1.005.898-2.011 1.339-3.021l3.162-6.971a907.022 907.022 0 0 1 10.421-21.675c5.946 2.675 12.164 4.724 18.537 5.863a.475.475 0 0 0 .549-.383c.004-.025-.001-.049-.001-.074a.468.468 0 0 0-.32-.46c-6.075-1.978-11.939-4.468-17.467-7.532.552-1.1 1.099-2.203 1.656-3.3 3.716-7.367 7.538-14.686 11.411-21.982a45.9 45.9 0 0 0 1.92.935c2.629 1.156 5.379 2.085 8.201 2.691.331.081.644.151.943.212.669 5.409 1.446 11.979 2.275 19.537.134 1.213 1.253 1.627 1.301.407.188-4.747.27-11.104-.475-19.532l.151.004c1.02.088 2.043.142 3.073.125 1.969-.029 3.959-.265 5.878-.809l.372.611c1.373 2.242 2.705 4.509 4.178 6.738a.47.47 0 0 0 .58.17c.027-.01.056-.016.081-.032a.48.48 0 0 0 .197-.53c-.739-2.594-1.8-5.067-2.981-7.475-.051-.102-.106-.201-.157-.304a11.813 11.813 0 0 0 3.177-2.055 69.708 69.708 0 0 1 16.733 26.824c-2.561 2.618-5.987 4.597-10.043 5.928-6.215 2.04-13.913 2.545-22.283 1.438-.591 6.22-1.642 12.39-3.133 18.726 13.657 4.183 32.81 3.1 33.905-.283.93-2.88-2.961-5.892-5.151-7.416-.438-.304-.153-.983.374-.899 3.678.588 10.805 2.896 10.022 11.967-.874 10.121-14.837 15.174-29.951 15.174-4.713.001-9.536-.491-14.111-1.473" style="fill:url(#n);stroke:none"/></g><g clip-path="url(#o)" transform="matrix(2.86718 0 0 -2.86718 -377.04 974.14)"><path d="M176.95 209.093c-.174-1.495-.169-2.989.055-4.431.002-.034.011-.064.014-.097a69.646 69.646 0 0 1 26.598-4.277c-12.159 2.954-19.388 5.064-26.606 9.234-.02-.143-.046-.286-.061-.429" style="fill:url(#p);stroke:none"/></g><g clip-path="url(#q)" transform="matrix(2.86718 0 0 -2.86718 -377.04 974.14)"><path d="M179.685 217.904a31.057 31.057 0 0 1-1.169-2.639s-.179-.513-.404-1.197c14.268-8.381 25.774-10.723 28.094-11.131.094.486.232 1.054.442 1.606.607 1.825 1.524 3.503 2.611 5.049a155.802 155.802 0 0 0-9.26 5.435 137.655 137.655 0 0 0-15.021 11.087c-2.067-2.572-3.878-5.306-5.293-8.21" style="fill:url(#r);stroke:none"/></g><g clip-path="url(#s)" transform="matrix(2.86718 0 0 -2.86718 -377.04 974.14)"><path d="M208.321 200.705c8.593.188 13.687 2.578 13.687 2.578-.231.121-.709.377-1.002.507a168.137 168.137 0 0 0-9.736 4.723c-1.981-2.372-2.949-5.839-2.949-7.808" style="fill:url(#t);stroke:none"/></g><g clip-path="url(#u)" transform="matrix(2.86718 0 0 -2.86718 -377.04 974.14)"><path d="M151.069 238.953s-.246-.4-.553-.994a69.683 69.683 0 0 1 10.078-11.135 112.16 112.16 0 0 1 13.277-10.134c.133.355.279.718.457 1.096.332.774.688 1.533 1.067 2.276 1.634 3.206 3.712 6.102 5.976 8.788.072.086.147.166.219.25a118.189 118.189 0 0 0-6.733 6.645c-3.717 3.984-7.218 8.224-10.221 12.857a85.672 85.672 0 0 0-3.278 5.567c-3.992-4.714-7.504-9.798-10.289-15.216" style="fill:url(#v);stroke:none"/></g><g clip-path="url(#w)" transform="matrix(2.86718 0 0 -2.86718 -377.04 974.14)"><path d="M148.509 233.383a60.97 60.97 0 0 1-2.203-6.441c6.908-8.839 15.742-15.693 25.602-20.251-.006.996.052 1.985.173 2.958.109.917.281 1.815.482 2.702-3.908 2.7-8.091 6.131-13.274 10.728-3.941 3.495-7.285 7.584-10.097 11.885-.228-.527-.468-1.049-.683-1.581" style="fill:url(#x);stroke:none"/></g><g clip-path="url(#y)" transform="matrix(2.86718 0 0 -2.86718 -377.04 974.14)"><path d="M189.159 338.469a69.798 69.798 0 0 1-20.171-6.848 69.378 69.378 0 0 1-14.348-9.918 69.34 69.34 0 0 1-13.687-16.868 70.012 70.012 0 0 1-5.4-11.664c-3.219-9.055-4.592-18.77-3.858-28.54a69.519 69.519 0 0 1 6.07-23.602 70.16 70.16 0 0 1 4.727-8.69 59.423 59.423 0 0 0 1.205 3.05 62.974 62.974 0 0 0 2.355 4.864 83.548 83.548 0 0 0-6.386 15.369c-.824 2.941-.126 3.482 1.153.332l.001-.001a79.588 79.588 0 0 1 6.568-13.328c.233.411.373.667.373.667 3.181 5.31 7.046 10.174 11.373 14.491.081.081.167.156.25.237a90.108 90.108 0 0 0-2.317 5.168c-.294.713-.555 1.438-.829 2.159a83.793 83.793 0 0 0-3.898 13.534 76.337 76.337 0 0 0-1.248 9.378 66.191 66.191 0 0 0-.157 5.336c.002 6.089.603 11.976 1.486 17.375 5.485 6.137 21.319 21.176 46.737 23.796 18.876 1.946 20.591-1.154 19.334-3.674-.427-.686-.981-1.314-1.453-1.796h.002c-.472-.461-.407-.779.312-.546 2.512.78 7.728 2.837 6.431 6.173-1.092 2.808-10.259 4.831-20.685 4.832-4.596 0-9.436-.393-13.94-1.286" style="fill:url(#z);stroke:none"/></g><g clip-path="url(#A)" transform="matrix(2.86718 0 0 -2.86718 -377.04 974.14)"><path d="m0 0 38.61 45.102a.785.785 0 0 1-.596 1.294H15.681a.786.786 0 0 1-.599-.279L-21.319 2.949v42.783a.784.784 0 0 1-.785.785h-18.178a.784.784 0 0 1-.784-.785v-88.409c0-.433.351-.784.784-.784h18.178c.434 0 .785.351.785.784v38.314l38.522-38.866a.784.784 0 0 1 .556-.232H41.78a.783.783 0 0 1 .553 1.339z" style="fill:#2b2560;fill-opacity:1;fill-rule:nonzero;stroke:none" transform="translate(334.267 275.002)"/><path d="M0 0h-18.178a.784.784 0 0 1-.784-.784v-88.289c0-.432.351-.784.784-.784H0c.433 0 .784.352.784.784V-.784A.784.784 0 0 1 0 0" style="fill:#2b2560;fill-opacity:1;fill-rule:nonzero;stroke:none" transform="translate(401.34 321.397)"/><path d="M0 0h-18.179a.785.785 0 0 1-.784-.784v-51.682L-80.124-.188a.789.789 0 0 1-.51.188h-1.947a.784.784 0 0 1-.784-.784v-88.289c0-.432.351-.784.784-.784h18.179c.432 0 .784.352.784.784v50.854l61.17-51.453a.778.778 0 0 1 .505-.185H0c.433 0 .784.352.784.784V-.784A.784.784 0 0 1 0 0" style="fill:#2b2560;fill-opacity:1;fill-rule:nonzero;stroke:none" transform="translate(498.438 321.397)"/><path d="M0 0c0-5.976-.892-10.86-2.65-14.517-1.751-3.65-4.01-6.541-6.714-8.591a22.58 22.58 0 0 0-9.099-4.145c-3.395-.71-6.793-1.071-10.099-1.071h-18.561v56.647h18.561c3.223 0 6.577-.36 9.967-1.071a23.63 23.63 0 0 0 9.178-4.091c2.739-2.01 5.015-4.897 6.766-8.582C-.892 10.879 0 5.975 0 0m16.118 19.208a38.87 38.87 0 0 1-10.78 14.603c-8.837 7.497-20.261 11.298-33.954 11.298h-37.47a.784.784 0 0 1-.784-.784v-88.409c0-.433.351-.785.784-.785h37.47c6.794 0 13.134.949 18.844 2.818 5.734 1.876 10.819 4.689 15.109 8.359 4.736 4.003 8.363 8.916 10.781 14.604 2.408 5.669 3.629 12.131 3.629 19.209 0 6.994-1.221 13.416-3.629 19.087" style="fill:#2b2560;fill-opacity:1;fill-rule:nonzero;stroke:none" transform="translate(576.443 276.409)"/><path d="M0 0c-.476 0-.779.216-.779.671v13.156h2.034c.411 0 .735-.087.735-.583V8.461h3.03V6.124H1.99V0Zm-8.526 9.261h-.195c-1.341-.042-2.12-1.016-2.12-2.64 0-1.493.821-2.661 2.229-2.661 1.362 0 2.228 1.168 2.228 2.661 0 1.624-.822 2.598-2.142 2.64M-9.63-6.146c-.951 0-1.579.757-1.579 1.407V.562h2.77v-3.831c0-.41.085-.584.563-.584h10.3v-2.293zm1.018 7.791c-2.835 0-4.956 2.097-4.956 4.976 0 .953.259 1.86.757 2.64h-1.493c-.411 0-.715.303-.715.693v1.645h5.022v2.532h2.033c.412 0 .737-.066.737-.585v-1.947h4.998V9.261h-2.186c.498-.78.78-1.687.78-2.64 0-2.879-2.143-4.976-4.977-4.976" style="fill:#2b2560;fill-opacity:1;fill-rule:nonzero;stroke:none" transform="translate(309.003 207.578)"/><path d="M0 0v-2.922h4.479c.671 0 .952-.281.952-.757v-6.773H2.64v5.237H-8.223v2.293h5.432V0h-7.639c-.454 0-.736.281-.736.691v1.668H2.186c.215.93.345 2.142.345 2.812v1.796H-8.331v2.294H4.35c.562 0 .974-.346.974-.865v-3.16c0-.627-.13-1.774-.39-2.877h3.441V0Z" style="fill:#2b2560;fill-opacity:1;fill-rule:nonzero;stroke:none" transform="translate(325.408 211.668)"/><path d="M0 0c-.498 0-.802.173-.802.649v18.566h2.034c.412 0 .715-.108.736-.606v-7.206H3.57v8.007h2.012c.434 0 .736-.087.758-.583V-.671H4.371c-.498 0-.801.238-.801.692v9.046H1.968V0Zm-6.449 10.841c-1.148 0-1.774-1.406-1.774-3.246 0-1.861.626-3.245 1.774-3.245 1.168 0 1.796 1.384 1.796 3.245 0 1.84-.628 3.246-1.796 3.246m0-8.807c-2.618 0-4.502 2.316-4.502 5.561 0 3.224 1.884 5.54 4.502 5.54 2.617 0 4.522-2.316 4.522-5.54 0-3.245-1.905-5.561-4.522-5.561m-4.783 12.184c-.411 0-.714.28-.714.67v1.666h4.09v2.943h2.034c.411 0 .736-.108.736-.584v-2.359h3.549v-2.336z" style="fill:#2b2560;fill-opacity:1;fill-rule:nonzero;stroke:none" transform="translate(346.378 201.995)"/><path d="M0 0c-1.795 0-2.834-1.341-2.834-2.899C-2.857-4.306-1.795-5.842 0-5.842c1.796 0 2.835 1.385 2.835 2.943C2.835-1.385 1.796 0 0 0m1.385-8.028v-3.766h1.796c1.32 0 3.138.26 4.804.801V2.986h2.035c.41 0 .735-.087.735-.583v-19.498h-1.99c-.478 0-.78.239-.78.692v3.03c-1.471-.433-3.354-.757-5.043-.757h-8.85c-.411 0-.715.302-.715.692v1.644h5.238v3.766c-2.64.563-4.242 2.662-4.242 5.129C-5.627-.086-3.44 2.315 0 2.315c3.419 0 5.626-2.401 5.626-5.214 0-2.446-1.624-4.566-4.241-5.129" style="fill:#2b2560;fill-opacity:1;fill-rule:nonzero;stroke:none" transform="translate(361.505 218.419)"/><path d="M0 0c-.476 0-.779.216-.779.671v13.156h2.034c.411 0 .735-.087.735-.583V0Zm-9.629-6.146c-.952 0-1.58.757-1.58 1.407v5.971h2.77v-4.435c0-.455.085-.585.563-.585h10.3v-2.358zm.475 17.442c-1.709 0-2.705-1.45-2.726-3.095 0-1.514 1.017-3.137 2.726-3.137 1.689 0 2.705 1.449 2.705 3.137 0 1.623-1.016 3.095-2.705 3.095m0-8.526c-3.375 0-5.496 2.445-5.496 5.431 0 2.965 2.121 5.389 5.496 5.389 3.355 0 5.498-2.424 5.498-5.389 0-2.986-2.143-5.431-5.498-5.431" style="fill:#2b2560;fill-opacity:1;fill-rule:nonzero;stroke:none" transform="translate(389.075 207.578)"/><path d="M395.092 220.433h15.386v-2.338h-15.386zm-.41-10.713v2.359h3.44l-.411 5.107h2.769l.412-5.107h3.765l.433 5.107h2.77l-.433-5.107h3.463v-2.359zm-.931-6.362c-.454 0-.735.282-.735.693v1.667h19.54v-2.36z" style="fill:#2b2560;fill-opacity:1;fill-rule:nonzero;stroke:none"/><path d="M0 0c-.476 0-.779.238-.779.691v19.39h2.034c.411 0 .735-.107.735-.583v-6.363h3.031v-2.36H1.99V0Zm-2.294 4.306c-1.362-.454-4.046-.757-5.41-.757h-4.414c-.887 0-1.536.649-1.536 1.385v7.833h6.945v3.874h-6.945v2.314h8.59c.736 0 1.148-.346 1.148-.995v-7.53h-6.969V6.491c0-.411-.021-.605.476-.605h2.879c.951 0 2.965.13 5.236.714z" style="fill:#2b2560;fill-opacity:1;fill-rule:nonzero;stroke:none" transform="translate(427.293 201.324)"/><path d="M0 0c-.455 0-.735.281-.735.692v1.667h8.374v4.912H3.635c-.865 0-1.535.691-1.535 1.341v8.462h13.762v-2.338H4.89v-4.522c0-.412.065-.628.563-.628h5.8c1.255 0 3.895.216 5.236.541V7.812c-.951-.238-3.872-.541-5.452-.541h-.628V2.359h8.396V0Z" style="fill:#2b2560;fill-opacity:1;fill-rule:nonzero;stroke:none" transform="translate(433.701 203.358)"/><path d="M0 0c-.477 0-.778.238-.778.691v19.39h2.033c.412 0 .736-.107.736-.583V0Zm-3.981 3.7c-1.169.564-3.506 2.164-5.085 4.35-1.559-2.316-3.896-3.83-5.043-4.394l-1.341 1.255c-.196.195-.217.455.086.629 2.098 1.189 4.913 3.7 4.913 7.205v6.665h1.925c.475 0 .844-.086.866-.715v-5.95c0-3.484 2.964-6.016 5.019-7.205.39-.217.26-.455.044-.649z" style="fill:#2b2560;fill-opacity:1;fill-rule:nonzero;stroke:none" transform="translate(468.326 201.324)"/><path d="M0 0c-.497 0-.779.173-.779.649v18.566h2.012c.412 0 .736-.108.757-.606v-6.145h1.905v6.946h2.013c.432 0 .736-.087.757-.583V-.671h-1.97c-.497 0-.8.238-.8.692v10.083H1.99V0Zm-9.76 3.008-1.47 1.342c-.304.259-.174.454.107.605C-7.25 7.379-5.106 11.75-4.955 15.97h-5.519v2.314h7.401c.672 0 1.061-.389 1.061-.93-.022-5.885-2.597-11.186-7.748-14.346" style="fill:#2b2560;fill-opacity:1;fill-rule:nonzero;stroke:none" transform="translate(483.476 201.995)"/><path d="M0 0v9.997h2.034c.411 0 .737-.107.737-.583v-3.29H5.8V3.766H2.771V0Zm-5.409 2.619v2.186h-4.697V3.246c0-.411.043-.627.563-.627zM-8.916-10.3c-.735 0-1.514.606-1.514 1.406v4.133H0v1.256h-10.43v2.12H1.687c.694 0 1.084-.345 1.084-.953v-4.521H-7.66v-.866c0-.325.086-.433.367-.433H3.311V-10.3ZM-11.404.281c-.8 0-1.472.67-1.472 1.364v7.79h2.77V7.032h4.697v2.403h2.769V.281Z" style="fill:#2b2560;fill-opacity:1;fill-rule:nonzero;stroke:none" transform="translate(505.614 211.408)"/><path d="M0 0c-.478 0-.779.238-.779.691v19.39h2.034c.411 0 .735-.107.735-.583V0Zm-3.723 3.7c-1.169.564-3.506 2.164-5.085 4.35-1.558-2.316-3.895-3.83-5.042-4.394l-1.342 1.255c-.195.195-.216.455.087.629 2.098 1.189 4.912 3.7 4.912 7.205v3.896h-3.375c-.476 0-.736.302-.736.67v1.644h10.927v-2.314h-4.025v-3.896c0-3.484 2.965-6.016 5.02-7.205.39-.217.26-.455.044-.649z" style="fill:#2b2560;fill-opacity:1;fill-rule:nonzero;stroke:none" transform="translate(527.19 201.324)"/><path d="M0 0c-.476 0-.778.216-.778.67v1.45h-3.873c-.411 0-.78.26-.78.671v1.385h4.653V15.32h2.033c.412 0 .715-.087.737-.583V0Zm-8.547 13.265c-1.774 0-2.899-.563-2.899-1.732 0-1.145 1.125-1.753 2.899-1.753 1.775 0 2.9.608 2.9 1.753 0 1.147-1.125 1.732-2.9 1.732m-1.515-17.917c-.953 0-1.58.756-1.58 1.406v4.35h2.791V-1.71c0-.455.088-.585.606-.585H2.424v-2.357zm1.515 12.269c-3.463 0-5.692 1.45-5.692 3.916 0 2.467 2.229 3.896 5.692 3.896 3.462 0 5.691-1.429 5.691-3.896 0-2.466-2.229-3.916-5.691-3.916m-1.97-5.778v2.814h-3.938c-.411 0-.714.281-.714.67v1.492h7.791c.973 0 3.353.109 5.712.78V5.409c-1.73-.519-4.501-.756-5.776-.756h-.304V1.839Z" style="fill:#2b2560;fill-opacity:1;fill-rule:nonzero;stroke:none" transform="translate(546.515 206.085)"/><path d="M0 0c-2.487 0-4.176-.951-4.176-2.25 0-1.32 1.689-2.294 4.176-2.294 2.51 0 4.198.974 4.198 2.294C4.198-.951 2.51 0 0 0m0-6.708c-3.981 0-6.945 1.493-6.945 4.479C-6.945.735-3.981 2.229 0 2.229c4.004 0 6.969-1.494 6.969-4.458 0-2.986-2.987-4.479-6.969-4.479m6.882 16.771c0-.865-.217-2.467-.584-3.614H4.284c-.41 0-.67.13-.54.562.238.823.368 2.403.368 3.052v1.167H-6.945v2.294H5.908c.564 0 .974-.345.974-.865zM-9.045 3.376c-.455 0-.735.282-.735.67v1.645h7.205v3.83h1.928c.54 0 .865-.021.865-.692V5.691H9.76V3.376Z" style="fill:#2b2560;fill-opacity:1;fill-rule:nonzero;stroke:none" transform="translate(560.235 207.404)"/><path d="M0 0c-.476 0-.779.238-.779.691v19.39h2.034c.411 0 .736-.107.736-.583v-6.363h3.03v-2.36h-3.03V0Zm-3.549 3.7c-1.169.564-3.506 2.164-5.085 4.35-1.558-2.316-3.895-3.83-5.043-4.394l-1.341 1.255c-.195.195-.216.455.086.629 2.099 1.189 4.912 3.7 4.912 7.205v6.665h1.926c.477 0 .845-.086.865-.715v-5.95c0-3.484 2.965-6.016 5.021-7.205.39-.217.26-.455.044-.649z" style="fill:#2b2560;fill-opacity:1;fill-rule:nonzero;stroke:none" transform="translate(585.383 201.324)"/></g></svg>