<svg xmlns="http://www.w3.org/2000/svg" width="430.44754pt" height="75pt" viewBox="0 0 430.44753 75"><path fill="#6f7173" d="m98.182 55.219 5.532 7.367h-2.27l-4.486-6.07-1.425 1.532v4.538h-1.782V49.599h1.782v6.216l5.692-6.216h2.183zM112.857 57.038v1.207c0 2.847-1.693 4.486-4.395 4.486-2.701 0-4.396-1.64-4.396-4.486v-1.207c0-2.864 1.695-4.485 4.396-4.485 2.702 0 4.395 1.639 4.395 4.485m-1.765 1.065v-.92c0-2.091-1.062-3.098-2.63-3.098-1.567 0-2.63 1.007-2.63 3.098v.92c0 2.087 1.063 3.097 2.63 3.097 1.568 0 2.63-1.01 2.63-3.097M120.346 54.444a3.106 3.106 0 0 0-1.209-.234c-1.296 0-2.413 1.082-2.413 2.63v5.746h-1.746v-9.855h1.692v1.57h.018c.577-1.102 1.459-1.748 2.901-1.748.45 0 .883.07 1.279.198zM129.87 61.65c-.864.594-2.017 1.08-3.801 1.08-2.433 0-4.324-1.35-4.324-4.538v-1.118c0-2.99 1.801-4.521 4.234-4.521 2.523 0 4.125 1.604 4.125 4.413v1.316h-6.628v.07c0 1.857 1.096 2.866 2.665 2.866 1.278 0 2.144-.343 2.989-.883zm-6.394-5.044v.252h4.935v-.324c0-1.513-.936-2.487-2.432-2.487-1.46 0-2.503 1.045-2.503 2.559M131.683 59.956v-.486c0-1.674 1.063-2.847 3.586-2.847h2.504v-.576c0-1.313-.596-1.947-2.036-1.947-1.154 0-1.91.398-2.83.993l-.863-1.297c.954-.668 2.124-1.242 3.71-1.242 2.2 0 3.748 1.152 3.748 3.133v6.9h-1.676V61.4h-.018c-.179.36-.54.666-.919.882-.522.288-1.1.45-1.963.45-1.982 0-3.243-1.044-3.243-2.775m6.09-1.854h-2.468c-1.37 0-1.911.556-1.911 1.494v.252c0 .957.774 1.37 1.713 1.37.864 0 1.476-.2 1.998-.613.469-.36.668-.793.668-1.531zM155.741 61.127c-1.296 1.245-2.847 1.659-4.593 1.659-3.1 0-5.206-1.893-5.206-5.712v-1.963c0-3.783 2.125-5.712 5.206-5.712 1.784 0 3.079.433 4.287 1.389l-.918 1.458c-1.17-.954-2.199-1.188-3.37-1.188-1.964 0-3.405 1.314-3.405 4.287v1.495c0 2.973 1.441 4.287 3.406 4.287 1.242 0 2.54-.306 3.62-1.368zM162.778 54.444a3.106 3.106 0 0 0-1.209-.234c-1.296 0-2.414 1.082-2.414 2.63v5.746h-1.745v-9.855h1.69v1.57h.02c.577-1.102 1.459-1.748 2.901-1.748.45 0 .883.07 1.277.198zM163.89 59.956v-.486c0-1.674 1.064-2.847 3.585-2.847h2.504v-.576c0-1.313-.596-1.947-2.036-1.947-1.153 0-1.909.398-2.83.993l-.863-1.297c.954-.668 2.124-1.242 3.71-1.242 2.2 0 3.748 1.152 3.748 3.133v6.9h-1.676V61.4h-.018c-.179.36-.54.666-.919.882-.522.288-1.098.45-1.963.45-1.98 0-3.243-1.044-3.243-2.775m6.09-1.854h-2.468c-1.369 0-1.91.556-1.91 1.494v.252c0 .957.773 1.37 1.712 1.37.864 0 1.476-.2 1.998-.613.47-.36.668-.793.668-1.531zM174.728 54.228h-1.623v-1.495h1.623v-.974c0-1.98.99-2.899 2.865-2.899.628 0 1.368.108 1.764.252l-.27 1.423a4.95 4.95 0 0 0-1.332-.18c-.667 0-1.28.198-1.28 1.478v.9h2.594v1.495h-2.595v8.359h-1.746zM181.424 54.228h-1.622v-1.495h1.622v-2.486h1.747v2.486h2.595v1.495h-2.595v5.602c0 1.206.524 1.406 1.262 1.406a3.72 3.72 0 0 0 1.297-.234l.27 1.405c-.394.164-1.135.324-1.837.324-1.874 0-2.739-.918-2.739-2.901zM201.648 55.615c0 1.82-.378 3.315-1.135 4.487l2.09 2.467h-2.055l-1.063-1.262c-1.062 1.01-2.503 1.478-3.837 1.478h-.108c-2.179 0-4.252-1.062-4.252-3.35v-.415c0-1.657 1.009-2.703 3.1-3.747-.72-.847-1.55-1.765-1.55-2.901v-.324c0-1.407 1.117-2.647 3.224-2.647 2 0 3.245 1.368 3.245 2.647v.342c0 1.154-.56 2.162-2.523 3.333l2.63 3.08c.397-.757.595-1.674.595-3.188zm-3.19 4.503-3.044-3.639c-1.693.902-2.45 1.55-2.45 2.613v.288c0 1.009 1.135 1.857 2.648 1.857 1.136 0 2.127-.415 2.847-1.119m-3.998-7.8c0 .648.719 1.496 1.35 2.234 1.566-.9 1.856-1.604 1.856-2.234v-.198c0-.667-.723-1.207-1.605-1.207-.99 0-1.6.596-1.6 1.207zM212.662 49.599c3.567 0 5.458 1.982 5.458 5.566v1.854c0 3.585-1.8 5.568-5.458 5.568h-4.305V49.599Zm-2.523 11.403h2.361c2.323 0 3.8-1.154 3.8-4.071v-1.676c0-2.918-1.477-4.09-3.8-4.09h-2.36zM227.947 61.65c-.862.594-2.017 1.08-3.8 1.08-2.432 0-4.325-1.35-4.325-4.538v-1.118c0-2.99 1.803-4.521 4.234-4.521 2.524 0 4.127 1.604 4.127 4.413v1.316h-6.63v.07c0 1.857 1.1 2.866 2.667 2.866 1.276 0 2.144-.343 2.987-.883zm-6.394-5.044v.252h4.936v-.324c0-1.513-.937-2.487-2.433-2.487-1.459 0-2.503 1.045-2.503 2.559M235.471 59.939v-.144c0-.829-.396-1.099-2.252-1.479-2.18-.448-3.388-1.152-3.388-2.883v-.214c0-1.37 1.119-2.667 3.678-2.667 1.332 0 2.52.29 3.493.973l-.774 1.316c-.649-.488-1.605-.792-2.593-.792-1.46 0-2.055.502-2.055 1.188v.162c0 .774.594 1.063 2.125 1.35 2.397.453 3.531 1.173 3.531 2.992v.234c0 1.548-1.459 2.757-3.747 2.757-1.637 0-3.025-.469-3.964-1.19l.812-1.37c.883.595 1.891 1.045 3.08 1.045 1.298 0 2.054-.484 2.054-1.278M240.994 51.112h-1.855v-1.91h1.855zm-.054 11.474h-1.747v-9.853h1.747zM251.55 62.461c0 2.755-1.496 4.144-4.395 4.144-1.335 0-2.467-.414-3.281-1.046l.794-1.369c.648.488 1.568.83 2.539.83 1.694 0 2.596-.812 2.596-2.559v-1.206c-.56.934-1.64 1.296-2.828 1.296-2.487 0-3.838-1.532-3.838-4.197v-1.567c0-2.668 1.603-4.235 3.91-4.235 1.494 0 2.359.632 2.756 1.206v-1.026h1.747zm-1.73-6.288c0-1.026-1.08-2.09-2.593-2.09-1.479 0-2.361 1.1-2.361 2.956v1.025c0 1.875.902 2.955 2.36 2.955 1.425 0 2.594-.954 2.594-2.485zM262.296 62.587h-1.743v-6.125c0-1.656-.688-2.36-2.146-2.36-1.19 0-2.487.828-2.487 2.377v6.108h-1.748v-9.854h1.694v1.243h.016c.598-.919 1.605-1.423 2.957-1.423 1.909 0 3.457 1.134 3.457 3.511zM277.202 49.599v1.53h-6.25v4.342h5.872V57h-5.872v5.586h-1.782V49.599zM287.158 57.038v1.207c0 2.847-1.693 4.486-4.396 4.486-2.699 0-4.395-1.64-4.395-4.486v-1.207c0-2.864 1.696-4.485 4.395-4.485 2.703 0 4.396 1.639 4.396 4.485m-1.765 1.065v-.92c0-2.091-1.062-3.098-2.63-3.098-1.569 0-2.63 1.007-2.63 3.098v.92c0 2.087 1.061 3.097 2.63 3.097 1.568 0 2.63-1.01 2.63-3.097M288.955 52.733h1.745v6.124c0 1.658.65 2.36 2.109 2.36 1.19 0 2.45-.828 2.45-2.376v-6.108h1.745v9.855h-1.693v-1.244h-.018c-.592.92-1.568 1.422-2.918 1.422-1.907 0-3.42-1.134-3.42-3.511zM307.483 62.587h-1.746v-6.125c0-1.656-.685-2.36-2.143-2.36-1.189 0-2.487.828-2.487 2.377v6.108h-1.748v-9.854h1.692v1.243h.02c.594-.919 1.603-1.423 2.955-1.423 1.907 0 3.457 1.134 3.457 3.511zM315.908 61.361c-.538.992-1.639 1.37-2.865 1.37-2.487 0-3.835-1.532-3.835-4.197v-1.747c0-2.668 1.602-4.233 3.907-4.233 1.495 0 2.36.628 2.757 1.204v-4.79h1.748v13.618h-1.674V61.36zm-.018-5.188c0-1.026-1.08-2.089-2.595-2.089-1.476 0-2.36 1.099-2.36 2.954v1.208c0 1.873.903 2.953 2.36 2.953 1.425 0 2.595-.954 2.595-2.485zM319.558 59.956v-.486c0-1.674 1.064-2.847 3.585-2.847h2.505v-.576c0-1.313-.596-1.947-2.035-1.947-1.156 0-1.91.398-2.83.993l-.863-1.297c.952-.668 2.124-1.242 3.71-1.242 2.198 0 3.745 1.152 3.745 3.133v6.9H325.7V61.4h-.016c-.18.36-.54.666-.92.882-.52.288-1.099.45-1.963.45-1.983 0-3.243-1.044-3.243-2.775m6.09-1.854h-2.47c-1.37 0-1.906.556-1.906 1.494v.252c0 .957.772 1.37 1.71 1.37.863 0 1.475-.2 2-.613.466-.36.666-.793.666-1.531zM330.255 54.228h-1.625v-1.495h1.625v-2.486h1.743v2.486h2.596v1.495h-2.596v5.602c0 1.206.527 1.406 1.262 1.406a3.72 3.72 0 0 0 1.296-.234l.274 1.405c-.4.164-1.138.324-1.84.324-1.875 0-2.735-.918-2.735-2.901zM338.409 51.112h-1.857v-1.91h1.857zm-.052 11.474h-1.749v-9.853h1.749zM349.322 57.038v1.207c0 2.847-1.691 4.486-4.394 4.486-2.703 0-4.4-1.64-4.4-4.486v-1.207c0-2.864 1.697-4.485 4.4-4.485 2.703 0 4.394 1.639 4.394 4.485m-1.765 1.065v-.92c0-2.091-1.064-3.098-2.629-3.098-1.568 0-2.63 1.007-2.63 3.098v.92c0 2.087 1.062 3.097 2.63 3.097 1.565 0 2.629-1.01 2.629-3.097M359.295 62.587h-1.746v-6.125c0-1.656-.685-2.36-2.145-2.36-1.187 0-2.483.828-2.483 2.377v6.108h-1.75v-9.854h1.696v1.243h.016c.596-.919 1.603-1.423 2.955-1.423 1.907 0 3.457 1.134 3.457 3.511z" style="stroke-width:1.80071"/><path fill="#0071b7" d="M18.827 0C29.145.043 37.5 8.418 37.5 18.749c0 10.356-8.395 18.753-18.75 18.753C8.419 37.502.042 29.146 0 18.826z" style="stroke-width:1.80071"/><path fill="#b72c6b" d="M0 56.174C.043 45.854 8.418 37.5 18.749 37.5c10.356 0 18.75 8.395 18.75 18.751 0 10.33-8.353 18.706-18.673 18.749z" style="stroke-width:1.80071"/><path fill="#009d50" d="M56.174.001c-10.32.042-18.675 8.419-18.675 18.75 0 10.355 8.397 18.752 18.752 18.752 10.331 0 18.706-8.355 18.75-18.675z" style="stroke-width:1.80071"/><path fill="#f26c2b" d="M75 56.25c0 10.354-8.395 18.749-18.749 18.749-10.355 0-18.75-8.395-18.75-18.75 0-10.353 8.395-18.748 18.75-18.748 10.354 0 18.75 8.395 18.75 18.749" style="stroke-width:1.80071"/><path fill="#454546" d="M106.02 15.1H90.002v-2.545h6.54v-3.36h2.968v3.36h6.51zm-14.503 7.116v-.91c0-2.634 2.179-5.148 6.51-5.148 4.328 0 6.509 2.544 6.509 5.148v.91c0 2.603-2.18 5.146-6.51 5.146s-6.51-2.543-6.51-5.146m10.173-.153v-.604c0-1.483-1.18-2.908-3.663-2.908-2.483 0-3.666 1.425-3.666 2.908v.604c0 1.485 1.212 2.906 3.666 2.906 2.451 0 3.663-1.42 3.663-2.906M97.663 34.48h14.805v2.604H94.664v-7.723h2.999zm18.017-14.112h-3.968v9.357h-2.968V9.468h2.968v8.296h3.968zM120.52 27.877h7.903v-4.845h-11.204V20.49h18.016c.513-2.244.697-4.423.697-6.238v-1.121h-15.353v-2.543h18.38v3.785c0 1.694-.213 3.996-.605 6.117h4.482v2.54H131.45v4.846h7.811v9.782h-2.996v-7.237h-15.746zM170.385 22.306v2.545h-25.617v-2.545h9.75v-5.481h3.028v5.481zm-22.257-11.719h18.441v3.544c0 1.302-.241 4.298-.758 6.448l-2.966-.333c.515-2.27.697-4.45.697-6.084v-1.03h-15.414zm18.17 21.38v1.09c0 3.208-3.816 5.117-8.722 5.117-4.905 0-8.72-1.909-8.72-5.118v-1.089c0-3.212 3.815-5.118 8.72-5.118 4.906 0 8.721 1.906 8.721 5.118m-2.967.906v-.724c0-1.577-2.545-2.849-5.754-2.849-3.208 0-5.753 1.272-5.753 2.849v.724c0 1.575 2.545 2.847 5.753 2.847 3.21 0 5.754-1.272 5.754-2.847M184.672 15.614h3.755v-5.571h2.908v25.98h-2.908v-9.66h-3.695c-.847 2.785-2.725 4.21-5.631 4.21-3.998 0-6.117-2.727-6.117-8.024V19.58c0-5.3 2.09-8.024 6.117-8.024 2.816 0 4.723 1.392 5.571 4.057m-2.27 6.602v-2.302c0-3.754-.97-5.694-3.301-5.694-2.332 0-3.3 1.94-3.3 5.694v2.302c0 3.754.968 5.722 3.3 5.722 2.362 0 3.3-1.999 3.3-5.722m2.817.333c0 .423-.03.848-.06 1.24h3.269v-5.602h-3.269c.03.456.06.91.06 1.394zm11.415 14.837h-2.936V9.468h2.936zM230.172 14.585h-10.205v12.84h1.909c3.934 0 7.388-.303 10.626-.85l.364 2.574c-3.058.605-6.994.879-11.628.879h-4.269V11.979h13.203zm4.934-5.118h2.998v27.919h-2.998zM250.879 23.578c-.274.666-.82 1.33-1.789 2.391-1.24 1.364-2.755 2.909-4.786 4.787l-1.964-2.03c1.815-1.635 3.298-3.119 4.66-4.631 2-2.211 2.333-3.364 2.333-5.604v-3.875h-5.996V12.01h14.869v2.606h-5.844v3.875c0 2.391.33 3.299 2.483 5.633 1.3 1.42 2.572 2.602 4.358 4.18l-1.968 2.025c-2.056-1.876-3.328-3.148-4.478-4.39-.85-.908-1.607-1.756-1.851-2.36zm17.774-1.181h-4.3v14.989h-2.996V9.466h2.996v10.327h4.3zM271.252 16.977c0-2.755 2.269-6.389 6.994-6.389 4.723 0 6.994 3.634 6.994 6.39v1.573c0 2.757-2.27 6.39-6.994 6.39-4.725 0-6.994-3.633-6.994-6.39zm11.112.12c0-1.847-1.212-3.905-4.118-3.905-2.907 0-4.118 2.058-4.118 3.906v1.332c0 1.848 1.242 3.906 4.118 3.906 2.906 0 4.118-2.058 4.118-3.906zm-3.603 17.383h15.02v2.602h-18.018v-9.264h2.998zm11.478-25.013h2.965V29.39h-2.965zM309.045 31.36v-5.39h-11.661v-2.544h25.619v2.544H312.07v5.39zm-4.966 3.119h15.774v2.604H301.08v-8.237h3zm15.2-13.686h-18.17V10.56h18.17zm-2.968-7.723H304.08v5.21h12.232zM342.924 31.573c-5.027.515-8.328.725-17.897.725v-2.542c2.968 0 5.36 0 7.417-.06V26.94c-3.418-.425-5.418-2.513-5.418-4.692v-1.153c0-2.452 2.544-4.754 6.753-4.754 4.211 0 6.752 2.302 6.752 4.754v1.153c0 2.12-1.907 4.116-5.116 4.631v2.726c2.692-.091 4.843-.273 7.266-.484zm-1.273-16.381h-16.046v-2.576h6.69V9.255h2.966v3.361h6.39zm-4.026 6.781v-.605c0-1.333-1.424-2.575-3.846-2.575-2.455 0-3.845 1.242-3.845 2.575v.605c0 1.33 1.423 2.573 3.845 2.573 2.452 0 3.846-1.242 3.846-2.573m6.69 15.414V9.469h2.969V20.64h4.178v2.606h-4.178v14.141zM361.926 20.339c-.182.515-1.09 1.512-2.028 2.36-1.271 1.153-2.998 2.453-4.696 3.634l-1.754-2.148c1.936-1.365 3.844-2.816 4.905-3.816 1.486-1.393 1.968-2.605 1.968-4.815v-1.727h-5.935v-2.573h14.562v2.573h-5.6v1.607c0 1.935.272 3.088 1.576 4.208 1.451 1.273 3.09 2.454 4.844 3.634l-1.697 2.179a59.864 59.864 0 0 1-4.388-3.33c-.91-.756-1.514-1.332-1.727-1.786zm-.483 14.14h15.018v2.605h-18.018v-9.418h3zm11.474-25.011h2.97v19.894h-2.97zM405.2 27.334h-25.615V24.85h25.616zm-22.98-15.686h8.66V9.044h2.998v2.604h8.69v2.483H382.22zm1.453 22.073v-.757c0-2.693 3.24-4.512 8.72-4.512s8.722 1.819 8.722 4.512v.757c0 2.636-3.242 4.512-8.721 4.512-5.481 0-8.72-1.876-8.72-4.512m.302-13.867v-.849c0-2.544 3.421-3.907 8.418-3.907 4.993 0 8.418 1.363 8.418 3.907v.849c0 2.544-3.425 3.905-8.418 3.905-4.997 0-8.418-1.361-8.418-3.905m2.663 13.292v.395c0 1.24 2.213 2.24 5.755 2.24 3.546 0 5.753-1 5.753-2.24v-.395c0-1.24-2.207-2.24-5.753-2.24-3.542 0-5.755 1-5.755 2.24m.306-13.867v.3c0 1.123 1.968 1.789 5.449 1.789 3.482 0 5.452-.666 5.452-1.788v-.3c0-1.121-1.97-1.789-5.452-1.789-3.48 0-5.449.668-5.449 1.788M413.976 28.513v-3.995c-2.119.059-4.42.09-6.903.09v-2.604c6.691.03 11.173-.12 17.805-.668l.21 2.515c-2.573.272-5.205.454-8.142.575v4.087zm-5.088-12.808v-.969c0-2.483 2.605-4.754 6.877-4.754 4.265 0 6.87 2.27 6.87 4.754v.969c0 2.483-2.605 4.754-6.87 4.754-4.272 0-6.877-2.271-6.877-4.754m5.694 18.833h15.866v2.574h-18.865v-7.479h2.999zm5.205-19.015v-.605c0-1.18-1.45-2.391-4.022-2.391-2.577 0-4.029 1.212-4.029 2.391v.605c0 1.181 1.452 2.424 4.029 2.424 2.573 0 4.022-1.243 4.022-2.424m7.119 15.565v-2.483h-5.903v-2.514h5.903V9.467h2.967v21.621zM209.03 23.275a2.531 2.531 0 0 1-5.06 0 2.53 2.53 0 1 1 5.06 0" style="stroke-width:1.80071"/></svg>