<svg xmlns="http://www.w3.org/2000/svg" width="714.92108pt" height="150pt" fill-rule="evenodd" viewBox="0 0 714.92108 150"><path d="M135.994 11.815C112.037-5.597 74.502 1.381 74.502 1.381 34.165 7.233 16.438 29.5 16.438 29.5-3.388 49.473 4.508 64.498 4.508 64.498-2.818 81.653 9.552 94.36 9.552 94.36c22.097 21.408 64.95 13.468 64.95 13.468 46.256-6.843 62.524-33.41 62.524-33.41 14.058-17.687 7.4-29.8 7.4-29.8 8.42-20.012-8.431-32.803-8.431-32.803zM8.714 58.503s3.37-34.75 65.788-44.339c0 0 49.914-8.712 54.45 18.479 0 0 4.445 22.56-46.7 27.958V29.119s-53.515.954-73.537 29.384zm65.788 36.558s-49.923 8.716-54.458-18.473c0 0-4.127-23.736 46.681-27.963V80.1s50.376-1.775 73.547-29.384c0 0-5.017 34.352-65.77 44.344z" style="fill:#006eb5;stroke:none;stroke-width:1.37467"/><path d="M191.034 134.252h4.308l-5.326 7.215 5.806 7.998h-4.509l-4.498-6.579h-.035v6.58h-3.487v-15.214h3.487v6.292h.035zM565.278 134.252h4.332l-5.335 7.215 5.815 7.998h-4.518l-4.5-6.579h-.035v6.58h-3.476v-15.214h3.476v6.292h.035zM203.51 137.603c2.076 0 3.784 1.912 3.784 4.006 0 2.621-1.708 4.549-3.783 4.549-2.087 0-3.793-1.928-3.793-4.549 0-2.094 1.706-4.006 3.793-4.006zm0-3.849c-3.863 0-7.42 3.237-7.42 7.843 0 4.922 3.111 8.403 7.42 8.403 4.3 0 7.403-3.48 7.403-8.403 0-4.606-3.548-7.843-7.402-7.843zM216.027 137.284h.333c1.142 0 2.423.25 2.423 1.904 0 1.662-1.28 1.903-2.423 1.903h-.333zm3.45 5.964c1.903-.384 2.926-2.203 2.926-4.302 0-3.254-2.002-4.694-4.656-4.694h-5.206v15.213h3.486v-5.831h.036l3.281 5.831h4.348zM546.639 137.284h.34c1.146 0 2.426.25 2.426 1.904 0 1.662-1.28 1.903-2.426 1.903h-.34zm3.45 5.964c1.904-.384 2.927-2.203 2.927-4.302 0-3.254-2.001-4.694-4.652-4.694h-5.21v15.213h3.485v-5.831h.037l3.298 5.831h4.341zM228.112 137.611v2.546h3.93v3.35h-3.93v2.625h4.147v3.333h-7.633v-15.213h7.633v3.36zM241.677 143.82h-2.895l1.437-4.846h.048zm.947 3.022.872 2.623h3.717l-5.052-15.213h-3.805l-5.162 15.213h3.703l.926-2.623zM258.951 144.104h.036l2.8-9.852h2.766l2.633 9.852h.035l2.526-9.852h3.627l-4.282 15.213h-3.556l-2.344-8.802h-.036l-2.63 8.802h-3.54l-3.998-15.213h3.615zM276.238 146.842l-.921 2.623h-3.694l5.156-15.213h3.803l5.046 15.213h-3.713l-.875-2.623zm2.436-7.868h-.026l-1.441 4.845h2.891zM290.99 149.465h-3.494v-11.854h-2.877v-3.36h9.249v3.36h-2.877zM298.612 137.611v2.546h3.93v3.35h-3.93v2.625h4.135v3.333h-7.617v-15.213h7.617v3.36zM316.058 149.465h-4.338l-3.287-5.831h-.04v5.831h-3.485v-15.213h5.21c2.65 0 4.656 1.44 4.656 4.694 0 2.1-1.027 3.918-2.93 4.302zm-7.665-8.374h.328c1.144 0 2.434-.24 2.434-1.903 0-1.654-1.29-1.904-2.434-1.904h-.328zM330.367 143.82h-2.9l1.451-4.846h.035zm.943 3.022.862 2.623h3.727l-5.052-15.213h-3.803l-5.166 15.213h3.705l.925-2.623zM336.983 134.252h3.485l6.385 9.319h.027v-9.32h3.486v15.214h-3.486l-6.376-9.308h-.036v9.308h-3.485zM356.128 137.611h.816c2.24 0 3.825 1.536 3.825 4.266 0 2.97-1.779 4.255-3.86 4.255h-.78zm-3.484 11.854h4.95c3.707 0 6.802-3.307 6.802-7.588 0-4.274-3.067-7.625-6.802-7.625h-4.95zM376.667 144.104h.036l2.802-9.852h2.774l2.642 9.852h.026l2.534-9.852h3.619l-4.294 15.213h-3.548l-2.348-8.802h-.028l-2.64 8.802h-3.53l-4.002-15.213h3.619zM397.824 143.82h-2.9l1.441-4.846h.036zm.941 3.022.872 2.623h3.717l-5.042-15.213h-3.805l-5.158 15.213h3.69l.934-2.623zM411.803 138.18c-.65-.603-1.459-1.011-2.312-1.011-.641 0-1.495.434-1.495 1.271 0 .89.935 1.236 1.548 1.459l.888.3c1.86.632 3.309 1.7 3.309 4.162 0 1.512-.329 3.07-1.387 4.092-1.05.997-2.454 1.423-3.807 1.423-1.689 0-3.343-.63-4.712-1.726l1.485-3.183c.88.866 1.91 1.574 3.104 1.574.816 0 1.69-.463 1.69-1.53 0-1.119-1.38-1.504-2.118-1.739-2.179-.709-3.629-1.355-3.629-4.298 0-3.099 1.932-5.124 4.626-5.124 1.351 0 2.995.486 4.197 1.254zM579.862 138.18c-.64-.603-1.457-1.011-2.31-1.011-.641 0-1.487.434-1.487 1.271 0 .89.935 1.236 1.53 1.459l.898.3c1.868.632 3.309 1.7 3.309 4.162 0 1.512-.322 3.07-1.387 4.092-1.05.997-2.455 1.423-3.808 1.423-1.688 0-3.342-.63-4.711-1.726l1.501-3.183c.863.866 1.894 1.574 3.088 1.574.808 0 1.688-.463 1.688-1.53 0-1.119-1.37-1.504-2.108-1.739-2.196-.709-3.637-1.355-3.637-4.298 0-3.099 1.938-5.124 4.624-5.124 1.353 0 3.007.486 4.197 1.254zM420.722 149.465h-3.477v-11.854h-2.89v-3.36h9.248v3.36h-2.881zM428.352 137.611v2.546h3.93v3.35h-3.93v2.625h4.152v3.333h-7.638v-15.213h7.638v3.36zM439.83 144.104h.038l2.81-9.852h2.774l2.623 9.852h.045l2.517-9.852h3.636l-4.286 15.213h-3.558l-2.356-8.802h-.034l-2.624 8.802h-3.549l-3.993-15.213h3.63zM510.661 144.104h.036l2.82-9.852h2.765l2.631 9.852h.036l2.535-9.852h3.62l-4.288 15.213h-3.557l-2.348-8.802h-.045l-2.613 8.802h-3.548l-3.994-15.213h3.62zM460.997 143.82h-2.908l1.448-4.846h.037zm.933 3.022.88 2.623h3.707l-5.05-15.213h-3.805l-5.158 15.213h3.708l.915-2.623zM471.872 149.465h-3.486v-11.854h-2.872v-3.36h9.247v3.36h-2.89zM479.493 137.611v2.546h3.938v3.35h-3.938v2.625h4.161v3.333h-7.639v-15.213h7.64v3.36zM489.274 137.284h.338c1.148 0 2.42.25 2.42 1.904 0 1.662-1.272 1.903-2.42 1.903h-.338zm3.45 5.964c1.92-.384 2.935-2.203 2.935-4.302 0-3.254-2.01-4.694-4.66-4.694h-5.202v15.213h3.477v-5.831h.044l3.29 5.831h4.34zM595.744 143.82h-2.888l1.43-4.846h.045zm.944 3.022.872 2.623h3.717l-5.052-15.213h-3.797l-5.158 15.213h3.691l.932-2.623zM609.724 138.18c-.632-.603-1.45-1.011-2.304-1.011-.649 0-1.502.434-1.502 1.271 0 .89.943 1.236 1.556 1.459l.881.3c1.867.632 3.307 1.7 3.307 4.162 0 1.512-.32 3.07-1.387 4.092-1.048.997-2.455 1.423-3.806 1.423-1.681 0-3.345-.63-4.714-1.726l1.494-3.183c.882.866 1.904 1.574 3.095 1.574.82 0 1.69-.463 1.69-1.53 0-1.119-1.369-1.504-2.116-1.739-2.187-.709-3.628-1.355-3.628-4.298 0-3.099 1.938-5.124 4.623-5.124 1.36 0 3.006.486 4.198 1.254zM620.67 138.18c-.64-.603-1.45-1.011-2.303-1.011-.64 0-1.495.434-1.495 1.271 0 .89.945 1.236 1.54 1.459l.898.3c1.867.632 3.307 1.7 3.307 4.162 0 1.512-.319 3.07-1.396 4.092-1.038.997-2.445 1.423-3.806 1.423-1.689 0-3.343-.63-4.704-1.726l1.495-3.183c.871.866 1.903 1.574 3.094 1.574.82 0 1.69-.463 1.69-1.53 0-1.119-1.37-1.504-2.118-1.739-2.187-.709-3.626-1.355-3.626-4.298 0-3.099 1.938-5.124 4.623-5.124 1.351 0 2.998.486 4.198 1.254zM631.014 137.603c2.07 0 3.777 1.912 3.777 4.006 0 2.621-1.707 4.549-3.777 4.549-2.082 0-3.798-1.928-3.798-4.549 0-2.094 1.716-4.006 3.798-4.006zm0-3.849c-3.87 0-7.428 3.237-7.428 7.843 0 4.922 3.114 8.403 7.428 8.403 4.294 0 7.406-3.48 7.406-8.403 0-4.606-3.557-7.843-7.406-7.843zM533.328 137.603c2.081 0 3.789 1.912 3.789 4.006 0 2.621-1.708 4.549-3.789 4.549-2.072 0-3.789-1.928-3.789-4.549 0-2.094 1.717-4.006 3.789-4.006zm0-3.849c-3.86 0-7.408 3.237-7.408 7.843 0 4.922 3.104 8.403 7.408 8.403s7.416-3.48 7.416-8.403c0-4.606-3.557-7.843-7.416-7.843zM649.624 139.366c-.72-1.078-1.867-1.673-3.059-1.673-2.134 0-3.575 1.858-3.575 4.224 0 2.41 1.46 4.145 3.629 4.145 1.138 0 2.267-.631 3.005-1.62v4.73c-1.164.41-1.992.704-3.076.704-1.867 0-3.646-.783-5.033-2.223-1.477-1.521-2.152-3.49-2.152-5.754 0-2.08.693-4.08 1.973-5.58 1.316-1.534 3.22-2.469 5.096-2.469 1.13 0 2.153.285 3.192.776zM655.263 149.465h-3.486v-15.213h3.486zM664.803 143.82h-2.907l1.45-4.846h.034zm.943 3.022.872 2.623h3.727l-5.07-15.213h-3.796l-5.158 15.213h3.698l.925-2.623zM675.68 149.465h-3.478v-11.854h-2.88v-3.36h9.247v3.36h-2.89zM683.317 149.465h-3.484v-15.213h3.484zM692.335 137.603c2.08 0 3.78 1.912 3.78 4.006 0 2.621-1.7 4.549-3.78 4.549-2.081 0-3.787-1.928-3.787-4.549 0-2.094 1.706-4.006 3.787-4.006zm0-3.849c-3.86 0-7.416 3.237-7.416 7.843 0 4.922 3.112 8.403 7.416 8.403 4.296 0 7.417-3.48 7.417-8.403 0-4.606-3.558-7.843-7.417-7.843zM701.361 134.252h3.485l6.387 9.319h.026v-9.32h3.486v15.214h-3.486l-6.376-9.308h-.037v9.308h-3.485zM0 118.965h10.805l-.25 13.232h.25c.24-1.262.924-2.347 1.534-3.44l5.34-9.792h12.093l-9.546 14.843 10.551 15.657H17.918l-5.255-9.225c-.65-1.167-1.619-2.297-1.858-3.56h-.25l.25 12.785H0ZM42.018 118.965l3.85 18.204h.244c.191-1.859.44-3.808.93-5.625l3.236-12.579h8.493l4.161 18.204h.25c.16-1.78.364-3.642.765-5.38l3.072-12.824h11.528l-10.76 30.5h-9.665l-3.486-16.584h-.351c-.12 1.576-.214 3.114-.574 4.607l-3.068 11.977h-9.426l-10.684-30.5Z" style="fill:#273785;stroke:none;stroke-width:1.37467"/><path d="m89.868 118.965 3.842 18.204h.24c.204-1.859.454-3.808.928-5.625l3.242-12.579h8.493l4.17 18.204h.241c.16-1.78.364-3.642.773-5.38l3.068-12.824h11.524l-10.754 30.5h-9.663l-3.476-16.584h-.374c-.116 1.576-.205 3.114-.564 4.607l-3.072 11.977h-9.422l-10.676-30.5ZM136.625 138.422l2.027-9.305h.41c.205 1.297.404 2.631.72 3.925l1.308 5.38zm-1.979 7.24h8.378l1.005 3.803h11.732l-10.884-30.5h-12.244l-10.605 30.5h11.733zM192.159 29.552v-5.615h11.72v5.615h12.974v10.17h-5.637c1.285 1.338 2.294 2.986 3.05 4.917a16.542 16.542 0 0 1 1.133 6.056c0 4.7-1.756 8.658-5.268 11.867-3.36 3.06-7.324 4.59-11.881 4.59-4.561 0-8.519-1.53-11.88-4.59-3.433-3.21-5.158-7.163-5.158-11.867 0-2.096.33-4.032 1.01-5.829.662-1.788 1.708-3.501 3.121-5.144h-5.918v-10.17Zm1.343 15.745c-1.112 1.295-1.676 2.848-1.676 4.642 0 1.8.564 3.349 1.676 4.649 1.271 1.434 2.85 2.15 4.748 2.15 1.904 0 3.478-.716 4.74-2.15 1.201-1.3 1.796-2.848 1.796-4.65 0-1.852-.595-3.403-1.796-4.641-1.262-1.365-2.836-2.05-4.74-2.05-1.899 0-3.477.685-4.748 2.05zm42.404-18.49v13.809h11.777v11.282h-11.777V77H224.19V26.807Zm-28.491 52.516v28.17h26.806v11.295h-38.514V79.323ZM299.496 26.807v35.105h-11.72V38.095H256.5V26.807Zm-46.3 40.601h48.537V78.69h-18.35v7.044h-11.708V78.69h-18.478zm46.3 18.326v33.516h-11.72V97.019H256.5V85.734ZM405.996 29.552v-5.615h11.72v5.615h11.837v10.17h-4.501c1.281 1.338 2.304 2.986 3.05 4.917a16.538 16.538 0 0 1 1.129 6.056c0 4.7-1.752 8.658-5.264 11.867-3.36 3.06-7.327 4.59-11.888 4.59-4.564 0-8.512-1.53-11.873-4.59-3.44-3.21-5.148-7.163-5.148-11.867 0-2.096.32-4.032.996-5.829.675-1.788 1.708-3.501 3.13-5.144h-4.801v-10.17Zm1.538 15.335c-1.066 1.414-1.619 3.096-1.619 5.052 0 1.952.553 3.64 1.62 5.049 1.217 1.547 2.728 2.327 4.544 2.327 1.831 0 3.351-.78 4.561-2.327 1.147-1.409 1.725-3.097 1.725-5.05 0-2.02-.578-3.698-1.725-5.051-1.21-1.482-2.73-2.223-4.561-2.223-1.816 0-3.327.741-4.545 2.223zm42.204-18.08v13.809h11.784v11.282h-11.784v67.887h-11.71V26.807ZM471.934 59.772l22.764-35.69 22.66 35.69-8.868 5.607-13.792-20.322-13.782 20.322zm.569 11.006h44.108V82.06h-16.14v37.18h-11.713v-37.18h-16.255zM575.203 26.807v11.288H547.28v14.837h27.923v11.281h-13.9v7.671h17.261v11.28h-46.338v-11.28h17.358v-7.67h-14.006V26.806ZM643.899 26.906V80.35h-11.722V62.206h-9.55v-6.833c-1.04 3.516-3.139 6.354-6.287 8.533-3.07 2.158-6.439 3.245-10.102 3.245-4.561 0-8.519-1.53-11.888-4.589-3.433-3.21-5.15-7.163-5.15-11.867 0-2.096.338-4.032 1.005-5.829.665-1.788 1.716-3.501 3.139-5.144h-4.812v-10.17h11.605v-5.615h11.73v5.615h10.716v3.414h9.594v-6.06zm-42.215 17.98c-1.075 1.415-1.617 3.097-1.617 5.053 0 1.952.542 3.64 1.617 5.049 1.219 1.547 2.731 2.327 4.544 2.327 1.833 0 3.345-.78 4.571-2.327 1.148-1.409 1.709-3.097 1.709-5.05 0-2.02-.561-3.698-1.709-5.051-1.226-1.482-2.738-2.223-4.57-2.223-1.814 0-3.326.741-4.545 2.223zm17.546-5.164c1.262 1.342 2.285 2.987 3.023 4.931a16.457 16.457 0 0 1 1.13 6.046v.223h8.794v-7.784h-9.585v-3.416zm-6.065 44.028v8.538h18.399V83.75h11.72v36.15h-40.701V83.75Zm0 25.976h18.399v-7.265h-18.399zM312.16 59.772l20.527-35.69 20.423 35.69-8.871 5.607-11.552-19.21-11.555 19.21zm58.185-32.926v13.801h11.784v11.28h-11.784v27.342h-11.71V26.846Zm-4.374 58.313c3.966 4.065 5.958 8.996 5.958 14.839 0 5.744-1.992 10.657-5.958 14.709-3.967 4.13-8.743 6.197-14.334 6.197-5.663 0-10.439-2.068-14.33-6.197-3.97-4.052-5.953-8.965-5.953-14.71 0-5.842 1.984-10.773 5.954-14.838 3.89-4.04 8.666-6.077 14.33-6.077 5.59 0 10.366 2.037 14.333 6.077zm-20.45 8.214c-1.585 1.857-2.376 4.065-2.376 6.625 0 2.49.791 4.652 2.375 6.522 1.663 1.925 3.7 2.896 6.117 2.896 2.348 0 4.358-.971 6.01-2.896 1.662-1.87 2.49-4.033 2.49-6.522 0-2.56-.828-4.768-2.49-6.625-1.652-1.864-3.662-2.793-6.01-2.793-2.418 0-4.454.929-6.117 2.793zM703.202 26.855v94.122h11.72V26.855ZM681.922 66.142c3.068-1.09 5.657-2.806 7.665-5.211 2.473-2.917 3.71-6.314 3.71-10.214 0-2.092-.375-4.11-1.121-6.057-.766-1.945-1.787-3.596-3.05-4.938h4.499v-9.05h-11.846v-6.735h-11.71v6.734h-11.624v9.051h4.812c-1.433 1.643-2.464 3.365-3.14 5.165-.665 1.791-.995 3.738-.995 5.83 0 3.742 1.148 7.12 3.458 10.104 2.002 2.466 4.563 4.209 7.613 5.307v4.129h-14.006v11.28h40.755v-11.28h-15.02Zm-10.618-21.57c1.298-1.578 2.907-2.37 4.847-2.37 1.94 0 3.556.792 4.847 2.37 1.209 1.433 1.823 3.226 1.823 5.376 0 2.093-.614 3.883-1.823 5.393-1.29 1.653-2.907 2.482-4.847 2.482-1.94 0-3.55-.83-4.847-2.482-1.146-1.51-1.716-3.3-1.716-5.393 0-2.073.57-3.87 1.716-5.376z" style="fill:#273785;stroke:none;stroke-width:1.37467"/></svg>