<svg xmlns="http://www.w3.org/2000/svg" xml:space="preserve" width="616.34253" height="118.30357" viewBox="0 0 616.34253 118.30355"><path d="M0 0c0 .413.333 1.068.496 1.295h-5.785c.161-.227.494-.882.494-1.295v-10.267a2.416 2.416 0 0 1 2.417-2.415h20.854v4.119H0Z" style="fill:#6e7465;fill-opacity:1;fill-rule:nonzero;stroke:none" transform="matrix(1.33333 0 0 -1.33333 214.404 98.349)"/><path d="M0 0c0 2.984 1.647 5.403 3.679 5.403 2.03 0 3.676-2.419 3.676-5.403 0-2.984-1.646-5.408-3.676-5.408C1.647-5.408 0-2.984 0 0m11.814 0c0 2.182-.57 4.014-1.596 5.414h2.626v3.875H6.07v1.521c0 .413.333 1.069.494 1.297H.787c.158-.228.493-.884.493-1.297V9.289h-6.759V5.414h2.617C-3.888 4.014-4.459 2.182-4.459 0c0-5.178 3.188-9.379 8.138-9.379 4.949 0 8.135 4.201 8.135 9.379" style="fill:#6e7465;fill-opacity:1;fill-rule:nonzero;stroke:none" transform="matrix(1.33333 0 0 -1.33333 209.491 78.747)"/><path d="M458.903 418.905H445.64v5.758h13.263zm-.309 13.392c.159-.229.309-.513.309-.928v-2.753h-13.262v2.423c0 .414.336 1.066.496 1.295h-5.784c.159-.229.497-.881.497-1.295V417.2a2.414 2.414 0 0 1 2.412-2.416h20.487l-.012 16.218c0 .413.334 1.066.494 1.295z" style="fill:#6e7465;fill-opacity:1;fill-rule:nonzero;stroke:none" transform="matrix(1.33333 0 0 -1.33333 -95.244 668.32)"/><path d="M0 0c0 2.443 1.646 4.419 3.676 4.419 2.033 0 3.678-1.976 3.678-4.419 0-2.44-1.645-4.421-3.678-4.421C1.646-4.421 0-2.44 0 0m11.815 0c0 1.774-.497 3.263-1.392 4.428h2.419v3.874H6.068v1.523c0 .414.331 1.067.495 1.295H.784c.159-.228.494-.881.494-1.295V8.302H-5.48V4.428h2.411C-3.964 3.263-4.461 1.774-4.461 0c0-4.519 3.186-8.187 8.137-8.187 4.952 0 8.139 3.668 8.139 8.187" style="fill:#6e7465;fill-opacity:1;fill-rule:nonzero;stroke:none" transform="matrix(1.33333 0 0 -1.33333 493.05 77.347)"/><path d="M0 0c0 2.615 1.818 4.736 4.065 4.736C6.308 4.736 8.13 2.615 8.13 0c0-2.615-1.822-4.736-4.065-4.736C1.818-4.736 0-2.615 0 0m22.535 9.443c0 .414.335 1.07.496 1.297h-5.782c.162-.227.494-.883.494-1.297v-23.172H6.455v5.444c3.963.961 6.406 4.301 6.406 8.285 0 1.905-.564 3.506-1.579 4.744h2.604v3.875H6.455v1.525c0 .413.334 1.067.494 1.294H1.173c.162-.227.494-.881.494-1.294V8.619h-7.413V4.744h2.595C-4.167 3.506-4.733 1.905-4.733 0c0-3.98 2.442-7.321 6.4-8.285v-5.444h-7.396v-4.101h23.472v-10.344h4.792z" style="fill:#6e7465;fill-opacity:1;fill-rule:nonzero;stroke:none" transform="matrix(1.33333 0 0 -1.33333 355.694 77.742)"/><path d="M0 0c0 2.617 1.82 4.736 4.064 4.736 2.245 0 4.063-2.119 4.063-4.736 0-2.614-1.818-4.736-4.063-4.736C1.82-4.736 0-2.614 0 0m22.535 9.444c0 .414.335 1.07.495 1.298h-5.783c.16-.228.494-.884.494-1.298v-23.172H6.458v5.444C10.417-7.32 12.86-3.982 12.86 0c0 1.906-.565 3.504-1.58 4.744h2.604v3.879H6.458v1.523c0 .41.33 1.066.491 1.294H1.171c.163-.228.494-.884.494-1.294V8.623h-7.413V4.744h2.594C-4.168 3.504-4.733 1.906-4.733 0c0-3.981 2.442-7.318 6.398-8.284v-5.444h-7.396v-4.102h23.472v-10.168h4.794z" style="fill:#6e7465;fill-opacity:1;fill-rule:nonzero;stroke:none" transform="matrix(1.33333 0 0 -1.33333 585.636 77.976)"/><path d="M0 0c0 .408.333 1.046.495 1.275h-11.571v5.637H2.487v4.095H-.017l.025 12.226c0 .412.335 1.081.494 1.312h-25.685v-4.092h20.434v-9.446h-22.198V6.912h11.08V1.275h-9.316v-4.099h20.392v-11.494H0Z" style="fill:#6e7465;fill-opacity:1;fill-rule:nonzero;stroke:none" transform="matrix(1.33333 0 0 -1.33333 286.76 96.216)"/><path d="M0 0c0 .413.336 1.07.497 1.297h-5.785c.163-.227.495-.884.495-1.297v-37.566H0Z" style="fill:#6e7465;fill-opacity:1;fill-rule:nonzero;stroke:none" transform="matrix(1.33333 0 0 -1.33333 477.167 65.218)"/><path d="M0 0c2.857-7.341 9.694-9.859 9.694-9.859v4.819C2.5-.733 2.534 9.29 2.534 9.29v3.625H8.66v4.012H-8.662v-4.012h6.127V9.29S-2.504-.733-9.697-5.04v-4.819S-2.858-7.341 0 0" style="fill:#6e7465;fill-opacity:1;fill-rule:nonzero;stroke:none" transform="matrix(1.33333 0 0 -1.33333 452.136 87.923)"/><path d="M0 0c0 .411.334 1.066.492 1.296H-5.29c.161-.23.495-.885.495-1.296v-23.177h-23.476v-4.097h23.476v-10.278H0Z" style="fill:#6e7465;fill-opacity:1;fill-rule:nonzero;stroke:none" transform="matrix(1.33333 0 0 -1.33333 569.136 65.238)"/><path d="M0 0c2.371 0 4.291-2.464 4.291-5.5 0-3.04-1.92-5.504-4.291-5.504-2.368 0-4.285 2.464-4.285 5.504C-4.285-2.464-2.368 0 0 0m0-15.039c5.491 0 9.026 4.268 9.026 9.539C9.026-.235 5.491 4.035 0 4.035c-5.485 0-9.022-4.27-9.022-9.535 0-5.271 3.537-9.539 9.022-9.539" style="fill:#6e7465;fill-opacity:1;fill-rule:nonzero;stroke:none" transform="matrix(1.33333 0 0 -1.33333 544.366 68.9)"/><path d="M0 0c3.046-7.883 10.94-9.715 10.94-9.715v4.453C2.342-2.393 2.536 13.473 2.536 13.473v3.002c0 .414.332 1.068.493 1.293h-6.057c.163-.225.494-.879.494-1.293v-3.002s.25-15.919-8.407-18.735v-4.453S-3.045-7.883 0 0" style="fill:#6e7465;fill-opacity:1;fill-rule:nonzero;stroke:none" transform="matrix(1.33333 0 0 -1.33333 309.489 88.161)"/><path d="M0 0h4.793v4.103H0v7.907c0 .412.335 1.068.496 1.295h-5.784c.16-.227.493-.883.493-1.295v-37.535H0Z" style="fill:#6e7465;fill-opacity:1;fill-rule:nonzero;stroke:none" transform="matrix(1.33333 0 0 -1.33333 333.318 81.273)"/><path d="M0 0c0 .413.333 1.067.495 1.294l-25.68-.032v-4.083H-4.79v-10.994H0Z" style="fill:#6e7465;fill-opacity:1;fill-rule:nonzero;stroke:none" transform="matrix(1.33333 0 0 -1.33333 429.611 96.886)"/><path d="M373.954 446.918h14.941v-2.908h-14.941zm22.177-10.217h-12.339v3.19h9.828l.022 12.367c0 .412.333 1.068.495 1.293h-5.551c.159-.225.31-.514.31-.924v-1.812h-14.942v1.47c0 .414.333 1.067.494 1.295h-5.78c.162-.228.494-.881.494-1.295v-9.979a2.415 2.415 0 0 1 2.415-2.415H379v-3.19h-12.303v-4.094h29.434z" style="fill:#6e7465;fill-opacity:1;fill-rule:nonzero;stroke:none" transform="matrix(1.33333 0 0 -1.33333 -95.244 668.32)"/><path d="M0 0h4.792v18.313c0 .414.332 1.067.495 1.295H-.492c.159-.228.492-.881.492-1.295v-3.421h-4.034v-4.098H0V8.297h-4.034V4.198H0Z" style="fill:#6e7465;fill-opacity:1;fill-rule:nonzero;stroke:none" transform="matrix(1.33333 0 0 -1.33333 516.654 89.564)"/><path d="M0 0v6.439c0 .413.333 1.069.495 1.295h-5.78c.161-.226.495-.882.495-1.295v-25.316H0v14.773h4.722V0Z" style="fill:#6e7465;fill-opacity:1;fill-rule:nonzero;stroke:none" transform="matrix(1.33333 0 0 -1.33333 238.559 73.846)"/><path d="m0 0-4.845-9.12c7.186-4.385 18.031-4.643 18.031-4.643 15.246 0 22.33 7.909 22.33 17.223 0 7.829-4.532 12.935-14.335 16.565-7.253 2.719-10.303 4.286-10.303 7.829 0 2.8 2.636 5.356 8.078 5.356 2.709 0 5.08-.399 7.038-.933 0 0 4.529-1.517 6.556 2.167l2.749 5.218c-6.199 3.718-16.18 3.772-16.18 3.772-13.019 0-21.016-7.174-21.016-16.652 0-8.073 6.102-13.186 15.331-16.479 6.674-2.308 9.312-4.287 9.312-7.749 0-3.626-3.05-6.018-8.818-6.018C8.569-3.464 3.296-1.732 0 0" style="fill:#2d7bc8;fill-opacity:1;fill-rule:nonzero;stroke:none" transform="matrix(1.33333 0 0 -1.33333 63.588 99.953)"/><path d="m0 0-4.845-9.12c7.188-4.385 18.032-4.643 18.032-4.643 15.247 0 22.331 7.909 22.331 17.223 0 7.829-4.532 12.935-14.335 16.565-7.255 2.719-10.303 4.286-10.303 7.829 0 2.8 2.638 5.356 8.077 5.356 2.71 0 5.079-.399 7.039-.933 0 0 4.528-1.517 6.554 2.167l2.751 5.218c-6.199 3.718-16.179 3.772-16.179 3.772-13.023 0-21.018-7.174-21.018-16.652 0-8.073 6.099-13.186 15.33-16.479 6.674-2.308 9.313-4.287 9.313-7.749 0-3.626-3.049-6.018-8.819-6.018C8.572-3.464 3.296-1.732 0 0" style="fill:#2d7bc8;fill-opacity:1;fill-rule:nonzero;stroke:none" transform="matrix(1.33333 0 0 -1.33333 6.46 99.953)"/><path d="M0 0v31.623C10.26 22.402 17.412 12.821 23.035-5.3h12.053v55.386h-7.869c-4.315 0-4.136-3.935-4.136-3.935v-26.95C16.229 31.044 7.21 38.579.16 43.113c-6.962 4.483-12.443 6.09-12.644 6.149V-5.3h7.462S0-5.3 0 0" style="fill:#2d7bc8;fill-opacity:1;fill-rule:nonzero;stroke:none" transform="matrix(1.33333 0 0 -1.33333 136.733 110.138)"/><path d="M0 0c-16.219 6.055-27.951-2.977-36.998-15.652-.732-1.037-1.217 0-1.217 0v-.002c-5.709 11.513-17.778 13.67-17.778 13.67s-5.819 1.117-8.982-.37c0 0-1.536-.742-.031-1.562 0 0 4.002-2.248 4.406-7.017.887-11.794 8.319-16.545 11.107-16.286.2.018-.094.613-.094.613-3.922 8.831 2.278 12.944 5.492 10.001 3.741-3.438 2.47-8.332 1.975-9.875 0 0-.166-.413.016-.397 3.772.352 7.616 2.326 13.543 7.138 2.924 2.264 8.66 7.608 12.206 10.729 1.437 1.452 3.675 2.6 1.812-1.084-2.48-4.925-8.452-14.228-17.681-21.51-1.412-1.115.573-1.062.573-1.062 15.309 1.057 22.463 13.971 22.463 13.971 1.371 2.179 4.034 7.898 4.034 7.898C-2.479-4.844.578-3.685.578-3.685 4.563-1.705 0 0 0 0" style="fill:#b5dc17;fill-opacity:1;fill-rule:nonzero;stroke:none" transform="matrix(1.33333 0 0 -1.33333 184.731 2.57)"/></svg>