<svg xmlns="http://www.w3.org/2000/svg" xml:space="preserve" width="843.12805" height="300" viewBox="0 0 843.12804 300"><path d="M0 0h2.144v-2.109H0v-5.36h-2.28V4.168H0Zm-6.466-3.147c0 .867-.748 1.395-2.058 1.395-1.293 0-2.041-.528-2.041-1.395 0-.851.748-1.378 2.041-1.378 1.31 0 2.058.527 2.058 1.378m-1.922-7.027H.34v-1.991h-11.008v4.815h2.28zm4.253 7.027c0-1.804-1.616-3.233-4.389-3.233-2.756 0-4.372 1.429-4.372 3.233 0 1.82 1.616 3.232 4.372 3.232 2.773 0 4.389-1.412 4.389-3.232m-3.181 5.835h3.641V.885h-9.647v1.803h3.641v1.821h2.365z" style="fill:#8b5b29;fill-opacity:1;fill-rule:nonzero;stroke:none" transform="matrix(3.91235 0 0 -3.91235 306.41 17.64)"/><path d="m0 0-.425-4.253h2.093v-2.008h-6.159v-2.348h4.287v-5.972h-2.297v3.981h-8.728v1.991h4.39v2.348h-6.057v2.008h10.362l.17 3.93h-8.848v2.008H0Z" style="fill:#8b5b29;fill-opacity:1;fill-rule:nonzero;stroke:none" transform="matrix(3.91235 0 0 -3.91235 371.353 9.52)"/><path d="M576.702 505.826h-2.16v-14.87h2.16zm-5.717-7.027v2.485h-1.683a10.469 10.469 0 0 0 .051-2.485zm-5.444 4.475c-1.208 0-1.684-1.242-1.684-3.42 0-2.194.51-3.47 1.702-3.47 1.19 0 1.667 1.259 1.667 3.436 0 2.161-.494 3.454-1.685 3.454m0-9c-2.722 0-3.861 2.467-3.861 5.546 0 3.097 1.174 5.564 3.879 5.564 1.513 0 2.535-.783 3.147-1.991h2.279v2.11h2.161v-13.73h-2.161v4.917h-2.109c-.596-1.463-1.667-2.416-3.335-2.416" style="fill:#8b5b29;fill-opacity:1;fill-rule:nonzero;stroke:none" transform="matrix(3.91235 0 0 -3.91235 -1811.779 1980.303)"/><path d="M0 0h2.518v-1.6l5.036-2.603-.953-1.82-5.342 2.858-5.343-2.858-.952 1.82L0-1.6Zm8.626-8.473H2.433v-1.14h4.389v-4.542h-8.915v-.97h9.255v-1.889H-4.305v4.56H4.61v.953h-8.915v1.888h4.39v1.14h-6.193v1.855H8.626Z" style="fill:#8b5b29;fill-opacity:1;fill-rule:nonzero;stroke:none" transform="matrix(3.91235 0 0 -3.91235 477.544 0)"/><path d="M609.578 505.826h-2.28v-11.348h2.28zm.34-16.044v1.991h-8.728v3.607h-2.28v-5.598zm-9.459 8.796c1.36 0 2.144 1.14 2.144 2.467 0 1.328-.784 2.467-2.144 2.467-1.361 0-2.145-1.139-2.145-2.467 0-1.327.784-2.467 2.145-2.467m0 6.908c2.824 0 4.457-1.94 4.457-4.441 0-2.483-1.633-4.44-4.457-4.44-2.808 0-4.458 1.957-4.458 4.44 0 2.501 1.65 4.441 4.458 4.441M623.098 502.475h-6.533v-1.412h6.533zm2.143-13.322h-2.297v3.555h-8.727v2.008h11.024zm.103 9.97h-4.339v-1.344h6.108v-1.991H612.55v1.974h6.107v1.344h-4.338v6.72h2.245v-1.429h6.534v1.429h2.246zM640.565 505.826h2.279v-14.87h-2.279zm-6.363-7.537h-.068l-3.693-3.828-1.632 1.565 4.219 4.339v2.841h-3.539v1.974h9.188v-1.974h-3.369v-2.841l4.185-4.322-1.65-1.582z" style="fill:#8b5b29;fill-opacity:1;fill-rule:nonzero;stroke:none" transform="matrix(3.91235 0 0 -3.91235 -1811.779 1980.303)"/><path d="M0 0v-14.87h-2.16v7.962h-1.566v-7.145h-2.161v13.73h2.161v-4.475h1.566V0Zm-9.851-5.376 3.369-4.73-1.736-1.259-2.687 3.675h-.137l-2.687-3.675-1.736 1.259 3.368 4.627v2.859h-2.654v1.974h7.384V-2.62h-2.484z" style="fill:#8b5b29;fill-opacity:1;fill-rule:nonzero;stroke:none" transform="matrix(3.91235 0 0 -3.91235 773.527 1.332)"/><path d="M0 0v-11.348h2.279v5.189h2.144v2.11H2.279V0Zm-8.388-10.446v-5.598H2.62v1.991h-8.728v3.607zm6.023 7.809h-5.614v-4.271h6.822v-2.024h-9.103v8.286h7.895z" style="fill:#8b5b29;fill-opacity:1;fill-rule:nonzero;stroke:none" transform="matrix(3.91235 0 0 -3.91235 825.824 1.332)"/><path d="M0 0v11.348h2.212V7.197l3.811 4.151h2.722L4.169 6.295 9.119 0H6.312l-4.1 5.393V0Z" style="fill:#9c0;fill-opacity:1;fill-rule:nonzero;stroke:none" transform="matrix(3.91235 0 0 -3.91235 259.507 144.198)"/><path d="M0 0c1.361 0 2.144 1.208 2.144 2.62 0 1.412-.783 2.62-2.144 2.62-1.361 0-2.144-1.208-2.144-2.62C-2.144 1.208-1.361 0 0 0m0 7.043c2.756 0 4.355-1.939 4.355-4.423S2.756-1.804 0-1.804c-2.756 0-4.355 1.94-4.355 4.424 0 2.484 1.599 4.423 4.355 4.423" style="fill:#9c0;fill-opacity:1;fill-rule:nonzero;stroke:none" transform="matrix(3.91235 0 0 -3.91235 314.012 137.674)"/><path d="M0 0v8.575h2.11V7.18c.613 1.004 1.566 1.531 2.536 1.531.374 0 .697-.068 1.037-.17l-.391-1.957a1.636 1.636 0 0 1-.885.238c-1.225 0-2.297-1.003-2.297-3.777V0Z" style="fill:#9c0;fill-opacity:1;fill-rule:nonzero;stroke:none" transform="matrix(3.91235 0 0 -3.91235 337.826 144.198)"/><path d="M0 0h3.692c-.187.851-.714 1.633-1.838 1.633C.783 1.633.153.816 0 0m5.854-1.667H-.051C0-2.62.664-3.607 1.974-3.607c.969 0 1.565.442 2.076 1.327l1.701-.63c-.663-1.514-1.82-2.501-3.897-2.501-2.943 0-4.117 2.399-4.117 4.424 0 2.025 1.174 4.424 4.117 4.424 2.859 0 4-2.365 4-4.237z" style="fill:#9c0;fill-opacity:1;fill-rule:nonzero;stroke:none" transform="matrix(3.91235 0 0 -3.91235 371.964 123.563)"/><path d="M0 0c.97 0 1.99.664 1.99 1.769v.17H.578c-.901 0-1.463-.34-1.463-1.106C-.885.425-.596 0 0 0m-2.773 4.662C-2.501 6.074-1.26 7.043.493 7.043c2.041 0 3.607-.85 3.607-3.589v-5.121H2.364l-.22 1.088C1.548-1.31.731-1.804-.494-1.804c-1.463 0-2.603.902-2.603 2.603 0 1.702 1.497 2.808 3.658 2.808H1.99v.374c0 .953-.715 1.259-1.497 1.259-.596 0-1.208-.187-1.48-.987z" style="fill:#9c0;fill-opacity:1;fill-rule:nonzero;stroke:none" transform="matrix(3.91235 0 0 -3.91235 412.157 137.674)"/><path d="M0 0v-1.378C.629-.476 1.548.136 2.654.136c1.532 0 2.637-.867 2.637-2.586v-6.125H3.182v5.496c0 1.02-.511 1.412-1.226 1.412C.936-1.667 0-2.892 0-5.155v-3.42h-2.11V0Z" style="fill:#9c0;fill-opacity:1;fill-rule:nonzero;stroke:none" transform="matrix(3.91235 0 0 -3.91235 443.697 110.65)"/><path d="M0 0v-2.042h-5.325v-2.722h4.287v-2.042h-4.287v-4.542h-2.212V0Z" style="fill:#9c0;fill-opacity:1;fill-rule:nonzero;stroke:none" transform="matrix(3.91235 0 0 -3.91235 288.995 255.068)"/><path d="M0 0c1.361 0 2.145 1.208 2.145 2.62 0 1.412-.784 2.62-2.145 2.62-1.36 0-2.144-1.208-2.144-2.62C-2.144 1.208-1.36 0 0 0m0 7.043c2.757 0 4.355-1.939 4.355-4.423S2.757-1.804 0-1.804c-2.756 0-4.355 1.94-4.355 4.424 0 2.484 1.599 4.423 4.355 4.423" style="fill:#9c0;fill-opacity:1;fill-rule:nonzero;stroke:none" transform="matrix(3.91235 0 0 -3.91235 307.888 292.942)"/><path d="M0 0v1.378C-.629.477-1.548-.136-2.653-.136c-1.532 0-2.638.867-2.638 2.586v6.125h2.109V3.08c0-1.021.511-1.413 1.226-1.413C-.936 1.667 0 2.892 0 5.155v3.42h2.11V0Z" style="fill:#9c0;fill-opacity:1;fill-rule:nonzero;stroke:none" transform="matrix(3.91235 0 0 -3.91235 352.605 299.466)"/><path d="M0 0v-1.378C.63-.476 1.549.136 2.654.136c1.532 0 2.638-.867 2.638-2.586v-6.125h-2.11v5.496c0 1.02-.51 1.412-1.225 1.412C.937-1.667 0-2.892 0-5.155v-3.42h-2.109V0Z" style="fill:#9c0;fill-opacity:1;fill-rule:nonzero;stroke:none" transform="matrix(3.91235 0 0 -3.91235 377.821 265.918)"/><path d="M0 0c1.106 0 1.974.918 1.974 2.62 0 1.701-.868 2.62-1.974 2.62-1.105 0-1.99-.919-1.99-2.62C-1.99.918-1.105 0 0 0m-.289 7.043c.867 0 1.701-.442 2.075-.918v4.253h2.11V-1.667h-2.11v.884C1.548-1.225.766-1.804-.289-1.804c-2.586 0-3.913 1.787-3.913 4.424 0 2.637 1.327 4.423 3.913 4.423" style="fill:#9c0;fill-opacity:1;fill-rule:nonzero;stroke:none" transform="matrix(3.91235 0 0 -3.91235 421.873 292.942)"/><path d="M0 0c.97 0 1.99.664 1.99 1.769v.17H.578c-.901 0-1.463-.34-1.463-1.106C-.885.425-.596 0 0 0m-2.773 4.662c.272 1.412 1.514 2.381 3.266 2.381 2.042 0 3.608-.85 3.608-3.589v-5.121H2.365L2.144-.579C1.548-1.31.731-1.804-.493-1.804c-1.463 0-2.604.902-2.604 2.603 0 1.702 1.497 2.808 3.659 2.808H1.99v.374c0 .953-.714 1.259-1.497 1.259-.595 0-1.208-.187-1.479-.987z" style="fill:#9c0;fill-opacity:1;fill-rule:nonzero;stroke:none" transform="matrix(3.91235 0 0 -3.91235 456.007 292.942)"/><path d="M0 0a3.244 3.244 0 0 0-1.396-.306c-1.939 0-3.147 1.038-3.147 3.164v3.744H-5.87v1.803h1.327v2.144l2.11 1.326v-3.47H-.17V6.602h-2.263V2.893c0-1.055.409-1.395 1.122-1.395.29 0 .528.05.818.204z" style="fill:#9c0;fill-opacity:1;fill-rule:nonzero;stroke:none" transform="matrix(3.91235 0 0 -3.91235 499.662 298.8)"/><path d="M594.444 429.623h-2.11v8.575h2.11zm-1.054 12.403c.782 0 1.36-.595 1.36-1.361s-.578-1.361-1.36-1.361c-.784 0-1.362.595-1.362 1.361s.578 1.361 1.362 1.361" style="fill:#9c0;fill-opacity:1;fill-rule:nonzero;stroke:none" transform="matrix(3.91235 0 0 -3.91235 -1811.779 1980.303)"/><path d="M0 0c1.361 0 2.145 1.208 2.145 2.62 0 1.412-.784 2.62-2.145 2.62-1.36 0-2.144-1.208-2.144-2.62C-2.144 1.208-1.36 0 0 0m0 7.043c2.757 0 4.355-1.939 4.355-4.423S2.757-1.804 0-1.804c-2.756 0-4.355 1.94-4.355 4.424 0 2.484 1.599 4.423 4.355 4.423" style="fill:#9c0;fill-opacity:1;fill-rule:nonzero;stroke:none" transform="matrix(3.91235 0 0 -3.91235 538.449 292.942)"/><path d="M0 0v-1.378C.629-.476 1.548.136 2.654.136c1.532 0 2.637-.867 2.637-2.586v-6.125H3.182v5.496c0 1.02-.511 1.412-1.226 1.412C.936-1.667 0-2.892 0-5.155v-3.42h-2.11V0Z" style="fill:#9c0;fill-opacity:1;fill-rule:nonzero;stroke:none" transform="matrix(3.91235 0 0 -3.91235 570.722 265.918)"/><path d="M0 0h2.519l-1.26 4.134Zm-3.691-4.288L.153 7.061h2.212L6.21-4.288H3.845l-.698 2.246H-.63l-.697-2.246z" style="fill:#9c0;fill-opacity:1;fill-rule:nonzero;stroke:none" transform="matrix(3.91235 0 0 -3.91235 269.024 205.057)"/><path d="m0 0 2.109 1.327v-3.471h2.263v-1.803H2.109v-3.709c0-1.055.409-1.395 1.123-1.395.289 0 .528.051.817.204l.494-1.702a3.247 3.247 0 0 0-1.396-.306C1.208-10.855 0-9.817 0-7.69Zm-1.361-2.076v-2.058a1.636 1.636 0 0 1-.885.238c-1.225 0-2.297-1.004-2.297-3.777v-3.046h-2.109v8.575h2.109v-1.395c.613 1.004 1.565 1.531 2.535 1.531.222 0 .443-.034.647-.068" style="fill:#9c0;fill-opacity:1;fill-rule:nonzero;stroke:none" transform="matrix(3.91235 0 0 -3.91235 324.527 179.896)"/><path d="M554.22 449.466h-2.109v8.575h2.109zm-1.055 12.403c.783 0 1.361-.595 1.361-1.361 0-.765-.578-1.361-1.361-1.361-.782 0-1.361.596-1.361 1.361 0 .766.579 1.361 1.361 1.361" style="fill:#9c0;fill-opacity:1;fill-rule:nonzero;stroke:none" transform="matrix(3.91235 0 0 -3.91235 -1811.779 1980.303)"/><path d="m0 0-1.259-1.157c-.391.511-.953.749-1.429.749-.409 0-.783-.238-.783-.715 0-.374.306-.647.817-.834C-1.48-2.382.442-2.756.442-4.594c0-1.548-1.191-2.858-3.046-2.858-1.786 0-2.977 1.259-3.402 2.314l1.685.902c.305-.834.884-1.412 1.717-1.412.647 0 1.055.289 1.055.918 0 .715-1.105.868-2.143 1.31-.936.392-1.736.987-1.736 2.314s1.073 2.501 2.74 2.501C-1.531 1.395-.527.833 0 0" style="fill:#9c0;fill-opacity:1;fill-rule:nonzero;stroke:none" transform="matrix(3.91235 0 0 -3.91235 386.34 193.21)"/><path d="M0 0a3.244 3.244 0 0 0-1.396-.306c-1.939 0-3.147 1.038-3.147 3.164v3.744H-5.87v1.803h1.327v2.144l2.11 1.326v-3.47H-.17V6.602h-2.263V2.893c0-1.055.409-1.395 1.122-1.395.29 0 .528.05.818.204z" style="fill:#9c0;fill-opacity:1;fill-rule:nonzero;stroke:none" transform="matrix(3.91235 0 0 -3.91235 414.022 221.167)"/><path d="m0 0-1.259-1.157c-.391.511-.953.749-1.429.749-.409 0-.783-.238-.783-.715 0-.374.306-.647.817-.834C-1.48-2.382.442-2.756.442-4.594c0-1.548-1.191-2.858-3.046-2.858-1.786 0-2.977 1.259-3.402 2.314l1.685.902c.305-.834.884-1.412 1.717-1.412.647 0 1.055.289 1.055.918 0 .715-1.105.868-2.143 1.31-.936.392-1.736.987-1.736 2.314s1.073 2.501 2.74 2.501C-1.531 1.395-.527.833 0 0" style="fill:#9c0;fill-opacity:1;fill-rule:nonzero;stroke:none" transform="matrix(3.91235 0 0 -3.91235 441.37 193.21)"/><path d="m0 0-2.961-11.348h-2.245l-2.008 6.499-2.008-6.499h-2.246L-14.428 0h2.314l1.872-8.201 2.075 6.993h1.905l2.076-6.993L-2.331 0Z" style="fill:#9c0;fill-opacity:1;fill-rule:nonzero;stroke:none" transform="matrix(3.91235 0 0 -3.91235 515.242 177.434)"/><path d="M0 0h3.691c-.187.851-.714 1.633-1.837 1.633C.782 1.633.152.816 0 0m5.853-1.667H-.052C0-2.62.663-3.607 1.973-3.607c.969 0 1.565.442 2.076 1.327l1.701-.63c-.663-1.514-1.82-2.501-3.896-2.501-2.943 0-4.118 2.399-4.118 4.424 0 2.025 1.175 4.424 4.118 4.424 2.858 0 3.999-2.365 3.999-4.237z" style="fill:#9c0;fill-opacity:1;fill-rule:nonzero;stroke:none" transform="matrix(3.91235 0 0 -3.91235 524.675 201.197)"/><path d="M606.91 449.466h-2.109v12.045h2.109z" style="fill:#9c0;fill-opacity:1;fill-rule:nonzero;stroke:none" transform="matrix(3.91235 0 0 -3.91235 -1811.779 1980.303)"/><path d="M0 0h1.089v.442c0 2.093 1.191 3.029 2.961 3.029.663 0 1.224-.136 1.598-.341l-.459-1.701c-.357.154-.664.238-1.02.238-.596 0-.97-.306-.97-1.071V0h1.803v-1.803H3.199v-6.772h-2.11v6.772H0Z" style="fill:#9c0;fill-opacity:1;fill-rule:nonzero;stroke:none" transform="matrix(3.91235 0 0 -3.91235 569.186 188.285)"/><path d="M0 0c.97 0 1.99.664 1.99 1.769v.17H.578c-.901 0-1.463-.34-1.463-1.106C-.885.425-.596 0 0 0m-2.773 4.662c.272 1.412 1.514 2.381 3.266 2.381 2.042 0 3.608-.85 3.608-3.589v-5.121H2.365L2.144-.579C1.548-1.31.731-1.804-.493-1.804c-1.463 0-2.604.902-2.604 2.603 0 1.702 1.497 2.808 3.659 2.808H1.99v.374c0 .953-.714 1.259-1.497 1.259-.595 0-1.208-.187-1.479-.987z" style="fill:#9c0;fill-opacity:1;fill-rule:nonzero;stroke:none" transform="matrix(3.91235 0 0 -3.91235 604.856 215.308)"/><path d="M0 0v8.575h2.109V7.18c.613 1.004 1.566 1.531 2.536 1.531.374 0 .697-.068 1.037-.17l-.391-1.957a1.636 1.636 0 0 1-.885.238c-1.225 0-2.297-1.003-2.297-3.777V0Z" style="fill:#9c0;fill-opacity:1;fill-rule:nonzero;stroke:none" transform="matrix(3.91235 0 0 -3.91235 628.345 221.832)"/><path d="M0 0h3.691c-.187.851-.714 1.633-1.837 1.633C.782 1.633.152.816 0 0m5.853-1.667H-.052C0-2.62.663-3.607 1.973-3.607c.969 0 1.565.442 2.076 1.327l1.701-.63c-.663-1.514-1.82-2.501-3.896-2.501-2.943 0-4.118 2.399-4.118 4.424 0 2.025 1.175 4.424 4.118 4.424 2.858 0 3.999-2.365 3.999-4.237z" style="fill:#9c0;fill-opacity:1;fill-rule:nonzero;stroke:none" transform="matrix(3.91235 0 0 -3.91235 662.483 201.197)"/><path d="m0 0 8.505 17.008H2.836L-5.669 0Z" style="fill:#9c0;fill-opacity:1;fill-rule:nonzero;stroke:none" transform="matrix(3.91235 0 0 -3.91235 199.618 66.566)"/><path d="m0 0 8.504 17.008h3.401L20.409 0H14.74l-4.536 9.071L5.669 0Z" style="fill:#8b5b29;fill-opacity:1;fill-rule:nonzero;stroke:none" transform="matrix(3.91235 0 0 -3.91235 0 66.566)"/><path d="m0 0 8.505 17.008h3.401L20.409 0H14.74l-4.535 9.071L5.67 0Z" style="fill:#9c0;fill-opacity:1;fill-rule:nonzero;stroke:none" transform="matrix(3.91235 0 0 -3.91235 88.72 66.566)"/></svg>