<svg xmlns="http://www.w3.org/2000/svg" width="1352.4369mm" height="200mm" viewBox="0 0 1352.4369 200"><path d="M-62.786 504.69h.683v1.565h.011l1.158-1.565h.72l-1.288 1.622 1.424 1.978h-.835l-1.179-1.742h-.01v1.742h-.684zM-58.82 508.102c.434 0 .46-.506.46-1.054s-.026-1.054-.46-1.054c-.427 0-.463.506-.463 1.054s.036 1.054.463 1.054m-1.147-1.054c0-.945.443-1.3 1.147-1.3.705 0 1.144.355 1.144 1.3 0 .945-.44 1.3-1.144 1.3s-1.147-.355-1.147-1.3M-57.113 505.806h.632v.62h.01c.172-.322.37-.646.84-.677v.652c-.631 0-.85.224-.85.778v1.111h-.632zM-53.928 506.516c0-.177-.074-.522-.418-.522-.366 0-.439.407-.454.522zm.563 1.66c-.282.119-.439.171-.804.171-.651 0-1.263-.375-1.263-1.414 0-.683.288-1.184 1.107-1.184.689 0 1.007.365 1.007.934v.094H-54.8c0 .423.24 1.247.95 1.247a1.4 1.4 0 0 0 .485-.11zM-51.476 507.142c-.214.021-.757.089-.757.496 0 .208.105.35.287.35.297 0 .47-.314.47-.663zm0 .819h-.01a.84.84 0 0 1-.705.386c-.391 0-.694-.26-.694-.62 0-.768 1.054-.814 1.41-.83v-.417c0-.366-.11-.486-.314-.486-.329 0-.324.392-.334.554h-.673c0-.523.35-.8 1.012-.8.783 0 .94.366.94.862v1.68h-.632zM-47.897 507.857h.142c.448 0 .892-.052.892-.632 0-.49-.303-.667-.892-.667h-.142zm0-1.68h.142c.37 0 .709-.063.709-.553 0-.47-.272-.553-.71-.553h-.14zm-.683-1.487h1.007c.6 0 1.21.136 1.21.85 0 .512-.35.747-.63.825v.01c.37.078.813.271.813.93 0 .922-.845.985-1.393.985h-1.007zM-45.6 505.806h.63v.62h.01c.174-.322.371-.646.842-.677v.652c-.632 0-.851.224-.851.778v1.111h-.632zM-42.762 508.102c.434 0 .46-.506.46-1.054s-.026-1.054-.46-1.054c-.427 0-.463.506-.463 1.054s.036 1.054.463 1.054m-1.147-1.054c0-.945.444-1.3 1.147-1.3.705 0 1.144.355 1.144 1.3 0 .945-.439 1.3-1.144 1.3-.703 0-1.147-.355-1.147-1.3M-39.77 507.142c-.215.021-.758.089-.758.496 0 .208.105.35.287.35.298 0 .47-.314.47-.663zm0 .819h-.012a.84.84 0 0 1-.704.386c-.391 0-.694-.26-.694-.62 0-.768 1.054-.814 1.41-.83v-.417c0-.366-.11-.486-.314-.486-.329 0-.324.392-.334.554h-.673c0-.523.35-.8 1.012-.8.783 0 .94.366.94.862v1.68h-.632zM-37.48 507.956c.36 0 .375-.558.375-.892 0-.386-.015-.955-.386-.955-.37 0-.418.569-.418.955 0 .334.048.892.429.892m.407-.083h-.011c-.072.156-.266.474-.678.474-.621 0-.83-.584-.83-1.283 0-.835.266-1.315.908-1.315.402 0 .528.245.6.39h.01v-1.45h.632v3.6h-.631zM-33.828 508.196a2 2 0 0 1-.772.151c-.725 0-1.294-.401-1.294-1.398 0-.715.344-1.2 1.122-1.2.735 0 .96.334.96.897h-.674c0-.438-.041-.652-.313-.652-.287 0-.411.386-.411.74 0 .648.322 1.29.892 1.29.193 0 .34-.042.49-.094zM-32.132 507.142c-.214.021-.756.089-.756.496 0 .208.104.35.286.35.298 0 .47-.314.47-.663zm0 .819h-.01a.84.84 0 0 1-.705.386c-.39 0-.694-.26-.694-.62 0-.768 1.054-.814 1.41-.83v-.417c0-.366-.11-.486-.314-.486-.329 0-.324.392-.334.554h-.673c0-.523.35-.8 1.012-.8.783 0 .94.366.94.862v1.68h-.632zM-29.518 506.36c-.145-.125-.355-.287-.605-.287-.13 0-.308.062-.308.234 0 .24.46.418.704.626.272.225.371.381.371.668 0 .543-.443.746-.955.746a2.33 2.33 0 0 1-.652-.099v-.563c.115.099.365.302.663.302.23 0 .37-.099.37-.25 0-.25-.464-.433-.715-.642-.27-.23-.338-.37-.338-.61 0-.377.255-.736.886-.736.272 0 .49.073.58.094zM-27.42 508.316c-.15.016-.298.032-.444.032-.49 0-.793-.126-.793-.69v-1.55h-.464v-.302h.464v-.584l.631-.38v.964h.7v.303h-.7v1.471c0 .33.095.407.324.407a.864.864 0 0 0 .282-.036zM-24.691 506.887h.992l-.486-1.592h-.01zm.193-2.197h.7l1.252 3.6h-.726l-.313-1.023h-1.226l-.323 1.023h-.606zM-21.226 507.956c.36 0 .376-.558.376-.892 0-.386-.016-.955-.387-.955-.37 0-.417.569-.417.955 0 .334.047.892.428.892m.407-.083h-.01c-.073.156-.266.474-.679.474-.621 0-.83-.584-.83-1.283 0-.835.267-1.315.908-1.315.402 0 .528.245.6.39h.011v-1.45h.632v3.6h-.632zM-19.833 505.806h.642l.574 1.66h.01l.528-1.66h.552l-.86 2.484h-.527zM-15.815 506.516c0-.177-.073-.522-.417-.522-.366 0-.439.407-.454.522zm.564 1.66c-.282.119-.44.171-.804.171-.652 0-1.263-.375-1.263-1.414 0-.683.287-1.184 1.107-1.184.689 0 1.007.365 1.007.934v.094h-1.482c0 .423.24 1.247.95 1.247a1.4 1.4 0 0 0 .485-.11zM-14.646 505.806h.632v.62h.01c.172-.322.37-.646.84-.677v.652c-.632 0-.85.224-.85.778v1.111h-.632zM-11.26 508.316c-.15.016-.297.032-.443.032-.49 0-.793-.126-.793-.69v-1.55h-.465v-.302h.465v-.584l.631-.38v.964h.7v.303h-.7v1.471c0 .33.094.407.324.407a.867.867 0 0 0 .281-.036zM-10.77 505.806h.632v2.484h-.631zm0-1.116h.632v.573h-.631zM-8.129 506.36c-.146-.125-.354-.287-.605-.287-.13 0-.308.062-.308.234 0 .24.459.418.704.626.272.225.37.381.37.668 0 .543-.443.746-.954.746-.303 0-.543-.068-.653-.099v-.563c.116.099.366.302.663.302.23 0 .37-.099.37-.25 0-.25-.464-.433-.715-.642-.27-.23-.338-.37-.338-.61 0-.377.255-.736.887-.736.272 0 .49.073.58.094zM-7.476 505.806h.631v2.484h-.631zm0-1.116h.631v.573h-.631zM-6.125 505.806h.631v.559h.01c.1-.204.303-.616.815-.616.464 0 .626.303.626.83v1.711h-.632v-1.55c0-.308-.026-.537-.271-.537-.443 0-.548.714-.548 1.111v.976h-.631zM-2.358 507.93c.382 0 .382-.548.382-.872 0-.375-.016-.918-.387-.918-.37 0-.418.538-.418.903 0 .344.047.887.423.887m1.044.444c0 .616-.25 1.09-1.227 1.09-.36 0-.584-.063-.74-.104v-.59c.13.1.459.34.798.34.486 0 .538-.35.538-.81v-.37h-.01c-.09.162-.205.36-.595.36-.674 0-.914-.527-.914-1.288 0-.632.214-1.253.85-1.253.392 0 .559.282.658.46h.011v-.403h.631zM3.408 508.123c-.23.089-.585.224-1.017.224-1.138 0-1.57-.907-1.57-1.925 0-.955.38-1.79 1.47-1.79.851 0 1.263.407 1.263 1.04h-.777c0-.283-.089-.695-.527-.695-.605 0-.71.85-.71 1.33 0 .418.016 1.607.976 1.607.454 0 .762-.255.892-.355zM4.942 508.102c.434 0 .46-.506.46-1.054s-.026-1.054-.46-1.054c-.427 0-.464.506-.464 1.054s.037 1.054.464 1.054m-1.148-1.054c0-.945.444-1.3 1.148-1.3s1.144.355 1.144 1.3c0 .945-.44 1.3-1.144 1.3s-1.148-.355-1.148-1.3M6.649 505.806h.631v.62h.01c.173-.322.371-.646.84-.677v.652c-.63 0-.85.224-.85.778v1.111H6.65ZM9.633 507.987c.366 0 .413-.569.413-.955 0-.333-.047-.892-.428-.892-.355 0-.37.559-.37.892 0 .386.015.955.385.955m-1.048-2.18h.631v.417h.01c.079-.157.272-.475.673-.475.621 0 .83.584.83 1.283 0 .835-.266 1.316-.908 1.316-.391 0-.522-.245-.595-.392h-.01v1.45h-.631ZM11.204 507.57h.72v.72h-.72z" style="fill:#656263;fill-opacity:1;fill-rule:nonzero;stroke:none;stroke-width:.536141" transform="matrix(9.12133 0 0 9.12133 1243.67 -4446.99)"/><path d="M-77.585 488.765a1.228 1.228 0 1 1-2.451 0 1.228 1.228 0 0 1 2.451 0M-82.545 489.803c.48.48.48 1.256 0 1.734a1.227 1.227 0 1 1 0-1.733M-85.32 494.047a1.228 1.228 0 1 1 .002 2.455 1.228 1.228 0 0 1-.002-2.455M-80.037 501.783a1.226 1.226 0 1 1 2.452 0 1.227 1.227 0 1 1-2.452 0M-75.077 500.745a1.228 1.228 0 1 1 1.738-1.735 1.228 1.228 0 0 1-1.738 1.735M-72.301 496.501a1.226 1.226 0 1 1 0-2.454 1.227 1.227 0 1 1 0 2.454M-73.34 491.54a1.227 1.227 0 0 1-1.735-.003 1.225 1.225 0 0 1-.001-1.734 1.229 1.229 0 0 1 1.737 1.737M-136.348 494.61h2.2v7.85l3.055-3.607h2.637l-3.49 4.084 3.807 5.353h-2.637l-3.33-4.758h-.042v4.758h-2.2zM-123.607 508.51c2.716 0 4.164-1.845 4.164-4.939 0-3.093-1.448-4.937-4.164-4.937-2.716 0-4.163 1.844-4.163 4.937 0 3.094 1.447 4.938 4.163 4.938m-1.824-4.938c0-1.764.239-3.39 1.824-3.39 1.587 0 1.824 1.626 1.824 3.39 0 1.765-.237 3.391-1.824 3.391-1.585 0-1.824-1.626-1.824-3.39M-115.704 494.61h-2.2v9.676c0 2.814 1.467 4.223 3.945 4.223 3.074 0 3.986-2.3 3.986-4.938 0-3.013-.991-4.937-3.252-4.937-1.447 0-2.14.872-2.44 1.348h-.039zm0 8.961c0-1.585.417-3.528 1.745-3.528 1.468 0 1.647 1.824 1.647 3.528 0 1.547-.239 3.392-1.647 3.392-1.388 0-1.745-1.032-1.745-3.392M-103.362 508.29h2.103v-6.722c0-1.923-1.092-2.934-3.431-2.934-2.399 0-3.589 1.19-3.589 2.994h2.142c0-.633.237-1.447 1.447-1.447 1.09 0 1.328.794 1.328 1.726v.93c-1.309.04-5.274.061-5.274 3.193 0 1.527 1.189 2.48 2.776 2.48 1.506 0 2.162-.696 2.458-1.31h.04zm-3.132-2.458c0-1.269 1.705-1.706 3.132-1.706 0 1.29-.534 2.836-1.962 2.836-.754 0-1.17-.397-1.17-1.13M-91.936 508.072a9.344 9.344 0 0 1-2.756.437c-2.834 0-5.055-1.527-5.055-5.353 0-2.461 1.249-4.522 4.321-4.522 2.837 0 3.589 1.705 3.589 3.45h-2.34c0-.912-.237-1.903-1.426-1.903-1.21 0-1.805 1.15-1.805 2.578 0 1.924 1.03 4.204 3.886 4.204.635 0 1.13-.08 1.586-.24zM-86.498 508.51c2.716 0 4.165-1.845 4.165-4.939 0-3.093-1.449-4.937-4.165-4.937s-4.164 1.844-4.164 4.937c0 3.094 1.448 4.938 4.164 4.938m-1.823-4.938c0-1.764.236-3.39 1.823-3.39s1.824 1.626 1.824 3.39c0 1.765-.237 3.391-1.824 3.391-1.587 0-1.823-1.626-1.823-3.39" style="fill:#ed1443;fill-opacity:1;fill-rule:nonzero;stroke:none;stroke-width:.536141" transform="matrix(9.12133 0 0 9.12133 1243.67 -4446.99)"/><path d="M-12.863 495.11v5.137h1.073v-5.632h-1.327v.148c.135.026.254.152.254.347m-2.683 4.78h-1.328v.15c.136.026.256.151.256.349v1.393c0 .264.076.467.23.612.153.147.349.22.588.22h4.14v-.746h-3.886zm1.509-.65.84-.822-1.877-1.17c.604-.697.97-1.402 1.092-1.986.018-.092.041-.18-.009-.244-.034-.046-.09-.048-.142-.048h-3.868l.484.753h2.16c-.567 1.438-2.014 2.589-3.1 3.117l.579.486a8.857 8.857 0 0 0 2.308-1.562zm24.844-2.186v-2.44H9.479v.149c.138.026.257.152.257.347v7.514h1.07v-4.821h1.107v-.75zm-3.263-2.177H6.03v.149c.134.017.257.15.244.346a6.918 6.918 0 0 1-.457 2.207c-.342.857-.833 1.614-1.948 2.405l.643.414a6.122 6.122 0 0 0 2.2-2.35l1.219 2.275 1.125-.737-1.971-2.354c.25-.624.444-1.536.459-2.355m-14.652 7.136c-.508 0-.944-.364-.944-.85 0-.479.436-.853.944-.853.52 0 .948.374.948.853 0 .486-.428.85-.948.85m0-2.445c-1.122 0-2.028.727-2.028 1.595 0 .866.906 1.586 2.028 1.586 1.125 0 2.04-.72 2.04-1.586 0-.868-.915-1.595-2.04-1.595m-3.517-.306h7.182v-.704H-11.2zm3.517-3.36c.52 0 .948.355.948.812 0 .463-.428.81-.948.81-.508 0-.944-.347-.944-.81 0-.457.436-.813.944-.813m-3.319-.705.613.705h.988a1.28 1.28 0 0 0-.31.813c0 .84.906 1.54 2.028 1.54 1.125 0 2.04-.7 2.04-1.54a1.27 1.27 0 0 0-.315-.813h1.224v-.705h-2.365v-.833h-1.42v.149c.136.026.256.166.256.364v.32zm-26.399 1.974h-1.328v.147c.137.026.256.151.256.35v.576h-3.423l.616.745h6.981v-.745h-3.102zm-.537 4.807a.956.956 0 0 1-.946-.971c0-.545.437-.97.946-.97.518 0 .947.425.947.97a.951.951 0 0 1-.947.97m0-2.723c-1.125 0-2.03.8-2.03 1.753 0 .953.905 1.743 2.03 1.743 1.125 0 2.039-.79 2.039-1.743 0-.953-.914-1.753-2.039-1.753m.008-2.912 2.07 1.407 1.036-.828-2.66-1.164c.183-.297.38-.776.437-1.23h-1.567v.149c.065.022.21.111.196.302a2.187 2.187 0 0 1-.175.52c-.321.653-1.147 1.35-2.624 1.77l.647.536c.982-.213 1.982-.75 2.64-1.462m-24.428 3.55h-1.328v.148c.137.027.257.152.257.35v1.393c0 .264.076.467.23.612.153.147.348.22.587.22h4.055v-.746h-3.801zm-1.22-2.462c0-.636.347-1.162.817-1.162.476 0 .816.526.816 1.162 0 .627-.34 1.143-.816 1.143-.47 0-.817-.516-.817-1.143m2.725 0c0-.467-.17-.899-.454-1.23h.809v-.747h-1.673v-.994h-1.423v.149c.14.025.258.15.258.347v.498h-2.157l.652.746h.623a1.895 1.895 0 0 0-.452 1.23c0 1.033.872 1.898 1.909 1.898 1.034 0 1.908-.865 1.908-1.897m2.167-2.815h-1.327v.149c.137.026.256.152.256.347v5.137h1.071v-2.803h1.106v-.748h-1.106zm28.396 1.01v1.805h1.071v-2.155a.384.384 0 0 0-.109-.292.39.39 0 0 0-.28-.105h-3.946l.469.747zm.675 6.354c-.502 0-.906-.481-.906-1.098 0-.61.404-1.1.906-1.1.508 0 .906.49.906 1.1 0 .617-.398 1.098-.906 1.098m0-2.967c-1.101 0-1.99.853-1.99 1.87 0 1.014.889 1.868 1.99 1.868 1.1 0 1.998-.854 1.998-1.869 0-1.016-.897-1.87-1.998-1.87m3.381-2.663h-1.116v-1.733h-1.329v.149c.138.026.258.152.258.347v2.902h-2.604v-1.643h-1.327v.148c.137.025.257.152.257.35v1.145h-2.058l.597.747h5.14v.426h1.066v-2.092h1.116zm-19.95 1.477h-1.698v-1.05h1.698zm1.072-3.082h-1.328v.149c.136.025.256.151.256.35v.785h-1.698v-1.284h-1.33v.145c.137.028.258.155.258.352v2.499c0 .264.076.468.23.612.152.147.348.22.587.22h3.025zm3.254 1.432h-1.112v-1.56h-1.328v.149c.138.026.258.152.258.347v3.904h1.07v-2.094h1.112zm-3.38 5.805c-.502 0-.906-.502-.906-1.144 0-.654.404-1.162.906-1.162.509 0 .906.508.906 1.162 0 .642-.397 1.144-.906 1.144m0-3.077c-1.1 0-1.99.882-1.99 1.933 0 1.033.89 1.914 1.99 1.914s1.997-.881 1.997-1.914c0-1.051-.897-1.933-1.997-1.933M.49 501.978c-.519 0-.946-.457-.946-1.026 0-.563.427-1.027.946-1.027.518 0 .947.464.947 1.027 0 .57-.43 1.026-.947 1.026m0-2.825c-1.124 0-2.03.82-2.03 1.8 0 .979.906 1.796 2.03 1.796 1.123 0 2.038-.817 2.038-1.797s-.915-1.799-2.038-1.799m3.638-1.127H.721v-1.739H-.606v.15c.136.026.256.152.256.348v1.241h-3.13l.632.747h6.976zm-2.069-2.573v2.058h1.072v-2.408a.386.386 0 0 0-.11-.293.397.397 0 0 0-.28-.104h-5.126l.478.747zm-24.16 2.237h-1.33v.147c.138.027.258.154.258.35v2.692h-3.075l.663.747h6.97v-.747h-3.487zm1.47-1.967v3.69h1.07v-4.04c0-.127-.034-.222-.108-.293a.392.392 0 0 0-.28-.105h-5.165l.47.748zm-29.634-.62c0-.127-.035-.223-.109-.293a.394.394 0 0 0-.28-.104h-5.067l.468.747h3.917v2.088h-5.49l.634.747h2.795v1.388h-2.248l.473.747h3.835v2.2h1.072v-2.552a.385.385 0 0 0-.109-.292.396.396 0 0 0-.28-.103h-1.672v-1.388h3.105v-.747h-1.044z" style="fill:#656263;fill-opacity:1;fill-rule:nonzero;stroke:none;stroke-width:.536141" transform="matrix(9.12133 0 0 9.12133 1243.67 -4446.99)"/></svg>