<svg xmlns="http://www.w3.org/2000/svg" xml:space="preserve" width="1138.4614" height="400" viewBox="0 0 1138.4614 400"><path d="M273.327 314.231v3.688h-6.747v8.188h-5.307c.673-1.709.814-3.01.814-4.313V298.9h4.493v15.331h6.747zM275.237 304.25h17.09v-7.003h4.497v7.003h17.094v3.64h-38.68v-3.64zM342.706 326.107c.677-1.709.813-3.01.813-4.313v-3.875h-6.66l.225-3.688h6.435v-15.33h4.494v27.206h-5.307z" style="fill:#656263;fill-opacity:1;fill-rule:nonzero;stroke:none" transform="matrix(2.3612 0 0 -2.3612 -480.523 930.803)"/><path d="M282.451 293.885h19.581v-11.402h4.093c.315 1.841.407 3.28.407 4.859v10.233h-24.08v-3.69zM329.169 323.677v1.981h-5.037c.181-.771.313-1.444.405-2.03l4.632.049zM459.51 318.55h4.358v3.643h-9.851v3.465h-5.038c.316-1.21.454-2.25.454-2.788v-.677h-9.85v-3.642h4.361M301.995 315.224c0-1.752-.311-4.05-.808-6.024h3.874c.85 1.707 1.434 4.624 1.434 6.923v7.738h-24.062v-3.647h19.562v-4.99zM256.683 318.55v3.692h-8.95v3.416H242.7c.314-1.167.451-2.25.451-2.788v-.628h-8.949v-3.691h22.481zM247.468 296.335h-5.307c.673-1.757.809-3.058.809-4.317v-9.083h23.386v3.682h-18.888v9.718zM328.954 296.335h-5.308c.67-1.757.808-3.058.808-4.317v-9.083h23.381v3.682h-18.88v9.718zM366.438 296.335h-5.31c.674-1.757.808-3.058.808-4.317v-9.083h23.39v3.682h-18.888v9.718zM409.257 296.335h-5.304c.671-1.757.807-3.058.807-4.317v-9.083h23.385v3.682h-18.888v9.718zM432.82 301.379h37.816v3.639h-37.817v-3.64zM504.32 326.107c.673-1.709.805-3.01.805-4.313v-3.875h-2.69v8.188h-5.317c.68-1.709.816-3.01.816-4.313V298.9h4.5v15.331h2.691v-15.33h4.499v27.206h-5.304zM486.954 319.99v.27h7.158v3.688H475.22v-3.687h7.153v-.27c0-3.824-3.646-7.826-9.225-10.39l2.882-2.34c3.639 1.395 6.746 3.685 8.636 6.026 1.888-2.34 4.947-4.585 8.678-6.026l2.882 2.34c-5.624 2.564-9.272 6.566-9.272 10.39zM538.185 308.928v3.237c-2.653-.356-4.904-.543-7.199-.543h-10.788v8.639h16.183v3.687h-21.496c.678-1.706.81-3.013.81-4.317v-10.346c0-.67.672-1.302 1.355-1.302H530c3.325 0 5.798.316 8.185.945zM553.922 314.231v3.688h-6.742v8.188h-5.307c.675-1.709.807-3.01.807-4.313V298.9h4.5v15.331h6.742zM546.951 286.617h-18.888v9.718h-5.303c.673-1.757.806-3.058.806-4.317v-9.083h23.385v3.682zM407.65 313.52c1.982-2.388 5.62-4.818 9.355-6.26l2.878 2.39c-5.664 2.515-9.946 6.473-9.946 10.34v.27h7.605v3.688H397.76v-3.687h7.597v-.27c0-3.868-4.274-7.826-9.894-10.39l2.88-2.34c3.64 1.395 7.282 3.87 9.307 6.259zM375.74 307.674h9.93v3.643h-19.636v2.652h19.407v9.892h-24.126v-3.647h19.631v-2.555H361c.316-1.44.542-2.699.542-3.866v-4.856c0-.628.673-1.263 1.342-1.263h8.357v-3.911h-16.743v-3.639H392.4v3.639H375.74v3.91zM423.03 326.107c.671-1.709.81-3.01.81-4.313V298.9h4.5v27.207h-5.31z" style="fill:#656263;fill-opacity:1;fill-rule:nonzero;stroke:none" transform="matrix(2.3612 0 0 -2.3612 -480.523 930.803)"/><path d="M245.258 305.592a4.997 4.997 0 0 0-4.994 4.993 4.994 4.994 0 0 0 9.985 0 4.995 4.995 0 0 0-4.991-4.993zm0 14.053a9.06 9.06 0 0 1-9.062-9.06c0-5.004 4.057-9.064 9.062-9.064 5.002 0 9.06 4.06 9.06 9.064 0 5.004-4.058 9.06-9.06 9.06zM452.012 307.57a4.992 4.992 0 0 0-4.995 4.99 4.995 4.995 0 0 0 4.995 4.99 4.996 4.996 0 0 0 4.99-4.99c0-2.76-2.24-4.99-4.99-4.99zm0 14.048c-5.003 0-9.065-4.054-9.065-9.058 0-5.005 4.062-9.067 9.065-9.067 5.002 0 9.064 4.062 9.064 9.067 0 5.004-4.062 9.058-9.064 9.058zM452.012 284.867a4.99 4.99 0 0 0-4.995 4.987 4.998 4.998 0 0 0 4.995 4.998 4.998 4.998 0 0 0 4.99-4.998 4.99 4.99 0 0 0-4.99-4.987zm0 14.047c-5.003 0-9.065-4.055-9.065-9.06 0-5.005 4.062-9.064 9.065-9.064 5.002 0 9.064 4.059 9.064 9.064s-4.062 9.06-9.064 9.06zM326.78 309.9a4.993 4.993 0 0 0-4.993 4.989 4.992 4.992 0 1 0 4.993-4.99zm0 14.058c-5 0-9.064-4.063-9.064-9.07 0-5 4.063-9.058 9.064-9.058 5.003 0 9.063 4.059 9.063 9.059 0 5.006-4.06 9.069-9.063 9.069zM255.875 269.623h-2.169c-.224-.308-5.435-7.465-5.719-7.853l6.26-10.89h2.195c-.602 1.07-6.162 10.929-6.162 10.929l5.595 7.814zM262.464 251.984c-1.596 0-3.5.957-3.5 5.52 0 1.328.193 2.46.574 3.367.582 1.399 1.594 2.139 2.926 2.139.913 0 2.156-.373 2.9-2.155.381-.925.574-2.052.574-3.351 0-4.563-1.89-5.52-3.474-5.52zm.007 12.762c-1.873 0-3.236-.713-4.164-2.174-.806-1.277-1.215-2.982-1.215-5.068 0-2.108.404-3.817 1.2-5.08.93-1.463 2.297-2.174 4.179-2.174 1.866 0 3.224.715 4.154 2.184.807 1.28 1.215 2.986 1.215 5.07 0 2.074-.408 3.775-1.215 5.055-.93 1.47-2.289 2.187-4.154 2.187zM285.48 258.781h-6.236l.025.201c.004.063.095 1.57.735 2.672.568.922 1.435 1.41 2.51 1.41 1.1 0 1.954-.539 2.472-1.558.328-.652.494-1.432.494-2.318v-.407zm-3.047 5.965c-1.75 0-3.16-.861-3.971-2.424-.74-1.424-1.096-3.238-1.028-5.248.067-1.972.484-3.648 1.173-4.717.928-1.437 2.135-2.107 3.8-2.107 1.99 0 3.505 1.066 4.178 2.822-.36.137-1.124.43-1.397.533-.344-.666-1.18-1.785-2.632-1.785-1.022 0-1.867.49-2.444 1.418-.807 1.307-.882 2.99-.882 3.567 0 .115-.01.582-.01.582h7.979c.009.197.02.369.02.654 0 1.162-.115 2.91-.714 4.113-.867 1.744-2.2 2.592-4.073 2.592zM335.96 258.781h-6.236l.024.201c.004.063.096 1.57.735 2.672.569.922 1.436 1.41 2.51 1.41 1.1 0 1.954-.539 2.473-1.558.328-.652.495-1.432.495-2.318v-.407zm-3.048 5.965c-1.749 0-3.16-.861-3.97-2.424-.74-1.424-1.096-3.238-1.029-5.248.068-1.972.485-3.648 1.174-4.717.928-1.437 2.135-2.107 3.799-2.107 1.99 0 3.506 1.066 4.178 2.822-.358.137-1.124.43-1.397.533-.344-.666-1.18-1.785-2.632-1.785-1.021 0-1.866.49-2.443 1.418-.807 1.307-.882 2.99-.882 3.567 0 .115-.01.582-.01.582h7.978c.01.197.02.369.02.654 0 1.162-.114 2.91-.714 4.113-.866 1.744-2.2 2.592-4.072 2.592zM289.457 261.813c-.01-.034-.026-.063-.038-.096h-.003c.012.033.03.062.04.095zm7.113-3.604v-1.838c0-2.111-1.341-4.453-3.51-4.553-1.26-.058-2.027.293-2.341 1.077a2.426 2.426 0 0 0-.166.9c0 .61.204 1.23.576 1.65.38.432 1.183.936 1.868 1.172 1.703.588 2.44.932 2.758 1.115l.815.477zm-2.602 6.607c-2.378 0-3.984-1.087-4.642-3.144.044-.088.35-.193.35-.193l1.265-.43c.644 1.459 1.645 2.148 3.149 2.148 1.565 0 2.467-.777 2.473-2.133 0-.937-.44-1.63-1.242-1.968l-4.022-1.565c-2.22-1.039-2.562-2.767-2.562-3.705-.003-.058-.058-1.558.947-2.61.62-.648 1.508-.978 2.64-.978 2.834 0 3.988 1.569 4.337 2.194v-1.748h1.708l.07 9.974c0 2.758-1.504 4.158-4.471 4.158zM424.349 261.813c-.012-.034-.028-.063-.038-.096h-.004c.012.033.029.062.042.095zm7.113-3.604v-1.838c0-2.111-1.342-4.453-3.51-4.553-1.26-.058-2.027.293-2.342 1.077a2.426 2.426 0 0 0-.166.9c0 .61.204 1.23.577 1.65.38.432 1.183.936 1.868 1.172 1.703.588 2.44.932 2.757 1.115l.816.477zm-2.603 6.607c-2.378 0-3.983-1.087-4.642-3.144.045-.088.35-.193.35-.193l1.266-.43c.644 1.459 1.645 2.148 3.148 2.148 1.566 0 2.467-.777 2.474-2.133 0-.937-.44-1.63-1.243-1.968l-4.022-1.565c-2.22-1.039-2.561-2.767-2.561-3.705-.003-.058-.059-1.558.946-2.61.62-.648 1.509-.978 2.64-.978 2.834 0 3.988 1.569 4.338 2.194v-1.748h1.708l.07 9.974c0 2.758-1.505 4.158-4.472 4.158zM381.568 251.984c-1.596 0-3.5.957-3.5 5.52 0 1.324.194 2.457.575 3.367.58 1.399 1.593 2.139 2.925 2.139.911 0 2.156-.375 2.904-2.158.379-.934.571-2.059.571-3.348 0-4.563-1.89-5.52-3.475-5.52zm.008 12.762c-1.874 0-3.236-.713-4.165-2.174-.806-1.279-1.216-2.984-1.216-5.068 0-2.104.404-3.815 1.2-5.082.93-1.461 2.298-2.172 4.181-2.172 1.866 0 3.224.715 4.154 2.184.805 1.28 1.215 2.986 1.215 5.07 0 2.076-.41 3.777-1.215 5.055-.931 1.47-2.29 2.187-4.154 2.187zM396.276 256.236c0-2.937-2.154-3.925-3.137-3.925-1.084 0-1.996.52-2.377 1.355-.225.48-.33 1.197-.33 2.256v8.605h-1.872v-9.334c0-3.162 1.543-4.634 4.199-4.634 2.102 0 3.111.978 3.517 1.595v-1.244h1.873v13.617h-1.873v-8.29zM405.622 264.879c-2.102 0-3.111-.979-3.518-1.596v1.244h-1.873V250.91h1.873v8.291c0 2.94 2.156 3.928 3.138 3.928 1.084 0 1.996-.522 2.377-1.358.225-.48.33-1.197.33-2.253v-8.608h1.872v9.334c0 3.162-1.543 4.635-4.199 4.635zM465.073 264.879c-2.102 0-3.111-.979-3.517-1.596v1.244h-1.874V250.91h1.874v8.291c0 2.94 2.154 3.928 3.136 3.928 1.085 0 1.997-.522 2.378-1.358.225-.48.33-1.197.33-2.253v-8.608h1.871v9.334c0 3.162-1.542 4.635-4.198 4.635zM439.278 251.969c-.934.164-1.06.955-1.06 1.707v9.418h2.645v1.402h-2.644v3.748h-1.876v-3.748h-1.685v-1.402h1.685v-10.518c0-1.566.803-2.326 2.453-2.326.014 0 1.315.059 2.412.516v1.464c-.611-.207-1.309-.37-1.93-.261zM443.444 267.445h1.875v2.178h-1.875v-2.178zM443.444 250.88h1.875v13.616h-1.875v-13.615zM452.555 251.984c-1.598 0-3.501.957-3.501 5.52 0 1.326.193 2.459.575 3.367.581 1.399 1.593 2.139 2.926 2.139.912 0 2.156-.375 2.9-2.156.38-.924.573-2.051.573-3.35 0-4.563-1.888-5.52-3.473-5.52zm.008 12.762c-1.876 0-3.24-.713-4.167-2.174-.807-1.279-1.216-2.984-1.216-5.068 0-2.104.405-3.815 1.201-5.08.93-1.463 2.298-2.174 4.182-2.174 1.867 0 3.225.715 4.151 2.184.807 1.279 1.217 2.984 1.217 5.07 0 2.076-.41 3.777-1.217 5.055-.93 1.472-2.289 2.187-4.151 2.187zM367.972 267.898h8.319v1.725h-10.266v-18.742h1.947v9.293h6.905v1.697h-6.905v6.027zM243.983 250.88h1.945v18.743h-1.945v-18.742zM419.726 254.21c-.68-1.839-1.887-2.226-2.78-2.226-.892 0-2.1.387-2.776 2.221-.338.89-.51 1.996-.51 3.283 0 4.541 1.788 5.494 3.286 5.494 2.172 0 3.274-1.847 3.274-5.494 0-1.287-.166-2.388-.494-3.277zm.493 8.788s-.918 1.748-3.515 1.748c-1.52 0-3.135-.824-3.92-2.316-.699-1.334-1.054-2.9-1.054-4.659 0-2.087.416-3.884 1.234-5.337.839-1.49 2.473-2.184 3.496-2.184 2.35 0 3.335.95 3.745 1.623v-.992h1.89v18.742h-1.875l-.001-6.625zM315.031 260.17h-4.57v7.728h4.586c1.685 0 2.774-1.45 2.774-3.7 0-3.833-2.324-4.028-2.79-4.028zm-.238 9.453h-6.275v-18.742h1.944v7.564h4.59c2.358 0 4.738 1.72 4.738 5.559 0 2.098-.65 5.619-4.997 5.619zM275.204 264.871c-1.757 0-3.107-.437-4.002-1.287-.596-.629-1.376-1.738-1.376-4.113 0 0-.002-7.848 0-8.576h1.9v8.437c0 2.414 1.132 3.799 3.106 3.799.623 0 1.134-.125 1.61-.342l1.076 1.588c-.704.295-1.677.494-2.314.494zM325.969 264.871c-1.756 0-3.107-.437-4.001-1.287-.596-.629-1.376-1.738-1.376-4.113 0 0-.002-7.848 0-8.576h1.9v8.437c0 2.414 1.132 3.799 3.106 3.799.623 0 1.133-.125 1.61-.342.227.334.758 1.117 1.075 1.588-.704.295-1.677.494-2.314.494zM346.139 257.676l-.013.004-3.878 1.45c-.322.11-1.304.44-1.304 1.854 0 .666.306 1.329.815 1.766.459.404 1.119.645 1.766.645 1.458 0 2.435-.76 2.96-2.186l1.581.592c-.203.691-.518 1.295-.996 1.748-.887.838-2.043 1.281-3.342 1.281-2.251 0-4.524-1.277-4.524-4.129 0-1.595.845-2.691 2.51-3.256l3.183-1.068c1.093-.377 1.705-1.195 1.722-2.307.01-.625-.191-1.152-.597-1.564-.607-.617-1.507-.781-1.944-.781-1.686 0-2.823.7-3.377 1.97-.37-.132-1.29-.464-1.572-.568.43-1.05 1.764-2.924 4.521-2.924 1.825 0 4.886.559 4.886 4.291 0 2.309-2.151 3.098-2.397 3.182zM356.884 257.676l-.013.004-3.878 1.45c-.321.11-1.303.44-1.303 1.854 0 .666.305 1.329.814 1.766.459.404 1.119.645 1.767.645 1.458 0 2.434-.76 2.96-2.186l1.58.592c-.202.691-.517 1.295-.996 1.748-.886.838-2.043 1.281-3.342 1.281-2.251 0-4.524-1.277-4.524-4.129 0-1.595.846-2.691 2.51-3.256l3.185-1.068c1.091-.377 1.703-1.195 1.72-2.307.01-.625-.191-1.152-.596-1.564-.608-.617-1.508-.781-1.944-.781-1.686 0-2.824.7-3.378 1.97-.37-.132-1.29-.464-1.572-.568.43-1.05 1.764-2.924 4.522-2.924 1.825 0 4.886.559 4.886 4.291 0 2.309-2.152 3.098-2.398 3.182z" style="fill:#656263;fill-opacity:1;fill-rule:nonzero;stroke:none" transform="matrix(2.3612 0 0 -2.3612 -480.523 930.803)"/><path d="M563.35 342.753c4.57-4.356 8.877-9.514 12.727-14.728a134.314 134.314 0 0 0 5.384-7.333c1.483.67 2.978 1.345 4.486 2.024 5.592 2.528 11.398 5.185 17.158 8.026l.212.105c-4.51 4.507-12.91 12.324-22.08 17.98a326.088 326.088 0 0 0-17.886-6.074zM639.307 356.367c-7.822 2.217-16.641 4.992-25.001 8.232a287.979 287.979 0 0 0-12.922-5.63c-.166-.067-.334-.13-.5-.197 10.339-5.182 19.26-9.074 25.638-11.683 4.247 2.785 9.334 6.334 12.785 9.278z" style="fill:#4b93d6;fill-opacity:1;fill-rule:nonzero;stroke:none" transform="matrix(2.3612 0 0 -2.3612 -480.523 930.803)"/><path d="M614.306 364.599c-3.418 1.327-6.76 2.73-9.922 4.208-24.172-7.681-50.997-12.48-61.925-14.436.144-.058.29-.108.437-.163 5.76-.623 11.546-3.832 17.044-8.413 12.716 3.387 26.25 7.202 38.996 12.21.824.323 1.637.637 2.448.965a287.979 287.979 0 0 1 12.922 5.629zM641.833 355.665c-5.304-4.61-11.795-9.169-17.964-13.245-6.34-4.167-13.106-7.867-19.944-11.274v-.007c-.272-.136-.547-.263-.82-.397-5.742-2.842-11.525-5.484-17.158-8.026-1.512-.685-3.011-1.359-4.485-2.026 6.582-9.644 10.326-17.696 10.797-18.734.021-.036.039-.071.058-.11 28.09 17.388 52.182 38.029 62.654 50.435-3.603.863-8.12 2-13.138 3.384z" style="fill:#235489;fill-opacity:1;fill-rule:nonzero;stroke:none" transform="matrix(2.3612 0 0 -2.3612 -480.523 930.803)"/></svg>