<svg xmlns="http://www.w3.org/2000/svg" width="476.03867" height="121.85239" viewBox="0 0 476.03866 121.85237"><defs><clipPath id="a" clipPathUnits="userSpaceOnUse"><path d="M0 595.275h841.89V0H0Z"/></clipPath></defs><g clip-path="url(#a)" transform="matrix(1.33333 0 0 -1.33333 -323.833 686.546)"><path d="M0 0v.721h2.548v1.494H0v1.793h-2.133V2.215h-2.549V.721h2.549V0c0-3.086-1.111-4.866-2.976-6.529l1.215-1.007c1.073.772 2.402 2.134 2.826 3.565.416-1.404 1.756-2.794 2.826-3.565l1.218 1.007C1.11-4.866 0-3.086 0 0" style="fill:#164789;fill-opacity:1;fill-rule:nonzero;stroke:none" transform="translate(116.463 264.478)"/><path d="M0 0c1.261 0 2.079-.746 2.079-1.914 0-1.167-.818-1.915-2.079-1.915-1.26 0-2.078.748-2.078 1.915C-2.078-.746-1.26 0 0 0m0-5.372c2.609 0 4.297 1.347 4.297 3.458C4.297.196 2.609 1.543 0 1.543c-2.607 0-4.295-1.347-4.295-3.457 0-2.111 1.688-3.458 4.295-3.458" style="fill:#164789;fill-opacity:1;fill-rule:nonzero;stroke:none" transform="translate(134.187 267.434)"/><path d="M132.792 259.793h2.793v-1.636h-2.793zm-5.819 0h3.665v-1.636h-1.866v-1.495h8.137c.12 0 .216-.094.216-.215v-3.775h2.154v4.45c0 .569-.463 1.035-1.037 1.035h-.502v1.636h3.662v1.492h-14.429z" style="fill:#164789;fill-opacity:1;fill-rule:nonzero;stroke:none"/><path d="M0 0h-2.171v-7.868H0v3.471h2.208v1.492H0Z" style="fill:#164789;fill-opacity:1;fill-rule:nonzero;stroke:none" transform="translate(199.78 268.284)"/><path d="M0 0v.675c0 .573-.465 1.038-1.038 1.038h-9.199V.22h7.856a.217.217 0 0 0 .216-.216v-.526c0-1.934-.567-3.436-.567-3.436h-9.582v-1.493h6.122V-7.88h-3.965v-1.492h7.749c.12 0 .216-.097.216-.216v-4.223h2.164v4.895c0 .572-.464 1.036-1.037 1.036h-2.963v2.429H2.11v1.493H-.634S0-2.256 0 0" style="fill:#164789;fill-opacity:1;fill-rule:nonzero;stroke:none" transform="translate(108.932 266.538)"/><path d="M0 0a.224.224 0 0 0-.221-.219h-4.945A.22.22 0 0 0-5.384 0v1.437H0Zm0 2.934h-5.384v1.769h-2.17v-5.39c0-.578.465-1.041 1.04-1.041h7.642c.576 0 1.041.463 1.041 1.041v5.39H0Z" style="fill:#164789;fill-opacity:1;fill-rule:nonzero;stroke:none" transform="translate(168.774 254.79)"/><path d="M0 0c-1.142 0-1.884.88-1.884 2.253 0 1.377.742 2.256 1.884 2.256s1.882-.879 1.882-2.256C1.882.88 1.142 0 0 0m6.561 3.063h-2.47C3.755 5.003 2.195 6.202 0 6.202c-2.488 0-4.158-1.537-4.158-3.949 0-2.408 1.67-3.945 4.158-3.945 2.244 0 3.813 1.248 4.106 3.255h2.455v-3.521h2.171v8.187H6.561Z" style="fill:#164789;fill-opacity:1;fill-rule:nonzero;stroke:none" transform="translate(162.213 262.056)"/><path d="M0 0v3.734h-2.164V-.66c0-.582.47-1.05 1.047-1.05h8.816v1.494H.221A.22.22 0 0 0 0 0" style="fill:#164789;fill-opacity:1;fill-rule:nonzero;stroke:none" transform="translate(147.653 254.772)"/><path d="m0 0 .819 1.379C-2.476 2.784-2.732 6.141-2.748 7.47v.692h-2.199V7.47c-.015-1.329-.235-4.648-3.567-6.091L-7.695 0s2.586.936 3.85 3.222C-2.587.936 0 0 0 0" style="fill:#164789;fill-opacity:1;fill-rule:nonzero;stroke:none" transform="translate(150.29 259.898)"/><path d="M0 0h-1.167v4.419h-2.024v-15.471h2.024v9.559H0v-9.559h2.022V4.419H0Z" style="fill:#164789;fill-opacity:1;fill-rule:nonzero;stroke:none" transform="translate(183.69 263.865)"/><path d="M0 0h-5.368v-1.492h3.959a.22.22 0 0 0 .22-.205c0-2.207-.937-5.816-4.5-8.397l1.087-1.072C-.216-8.469 1.056-3.94 1.056-1.492v.565A1.051 1.051 0 0 1 0 0" style="fill:#164789;fill-opacity:1;fill-rule:nonzero;stroke:none" transform="translate(178.305 267.842)"/><path d="M0 0a.222.222 0 0 0-.22-.218h-2.771A.219.219 0 0 0-3.21 0v1.821H0Zm2.172-.686v6.119H0V3.318h-3.21v2.115h-2.172V-.686c0-.578.465-1.041 1.041-1.041h5.472c.576 0 1.041.463 1.041 1.041" style="fill:#164789;fill-opacity:1;fill-rule:nonzero;stroke:none" transform="translate(193.446 262.538)"/><path d="M0 0v.697c0 .117.094.214.213.214H6.39c.564 0 1.023.458 1.023 1.023V3.91c0 .566-.459 1.025-1.023 1.025h-8.562V3.506h7.2a.212.212 0 0 0 .213-.212V2.55a.213.213 0 0 0-.213-.213h-6.176a1.023 1.023 0 0 1-1.024-1.024v-1.93c0-.565.458-1.023 1.024-1.023h8.652v1.425H.213A.214.214 0 0 0 0 0" style="fill:#164789;fill-opacity:1;fill-rule:nonzero;stroke:none" transform="translate(192.387 254.701)"/><path d="M0 0v3.555h-2.164V-.671c0-.572.465-1.036 1.037-1.036v-.001h8.936v1.494H.215A.214.214 0 0 0 0 0" style="fill:#164789;fill-opacity:1;fill-rule:nonzero;stroke:none" transform="translate(86.552 254.776)"/><path d="M0 0h-2.171v-10.617H0v5.385h2.177v1.506H0Z" style="fill:#164789;fill-opacity:1;fill-rule:nonzero;stroke:none" transform="translate(94.098 268.284)"/><path d="M0 0c0 1.289.68 2.11 1.726 2.11 1.046 0 1.726-.821 1.726-2.11 0-1.287-.68-2.111-1.726-2.111C.68-2.111 0-1.287 0 0m5.65 0c0 .941-.312 1.735-.837 2.341h1.548v1.492H2.793v1.796H.66V3.833h-3.57V2.341h1.548c-.524-.606-.836-1.4-.836-2.341 0-2.221 1.722-3.636 3.924-3.636S5.65-2.221 5.65 0" style="fill:#164789;fill-opacity:1;fill-rule:nonzero;stroke:none" transform="translate(83.84 263.118)"/><path d="M0 0h-2.171v-10.617H0v5.385h2.177v1.506H0Z" style="fill:#164789;fill-opacity:1;fill-rule:nonzero;stroke:none" transform="translate(154.944 268.284)"/><path d="M0 0v2.147h-2.222V0c0-1.743-.503-5.65-3.827-7.769l.944-1.161c.563.295 3.04 1.892 3.994 4.194.953-2.302 3.432-3.899 3.994-4.194l.942 1.161C.501-5.65 0-1.743 0 0" style="fill:#164789;fill-opacity:1;fill-rule:nonzero;stroke:none" transform="translate(252.301 265.911)"/><path d="M0 0v4.569h-2.164v-15.47H0v9.411h2.197V0Z" style="fill:#164789;fill-opacity:1;fill-rule:nonzero;stroke:none" transform="translate(259.195 263.715)"/><path d="M0 0c1.258-2.286 3.845-3.222 3.845-3.222l.82 1.379C1.369-.438 1.112 2.919 1.098 4.248v.692h-2.2v-.692c-.016-1.329-.234-4.647-3.567-6.091l.819-1.379S-1.264-2.286 0 0" style="fill:#164789;fill-opacity:1;fill-rule:nonzero;stroke:none" transform="translate(221.445 263.12)"/><path d="M227.708 259.742h2.172v8.542h-2.172z" style="fill:#164789;fill-opacity:1;fill-rule:nonzero;stroke:none"/><path d="M0 0h-9.024v-1.493h7.682a.216.216 0 0 0 .215-.216v-4.144h2.165v4.816C1.038-.465.573 0 0 0" style="fill:#164789;fill-opacity:1;fill-rule:nonzero;stroke:none" transform="translate(228.842 258.666)"/><path d="M0 0c0 1.104.64 1.809 1.625 1.809.987 0 1.627-.705 1.627-1.809s-.64-1.81-1.627-1.81C.64-1.81 0-1.104 0 0m7.415-3.718c-.989-.837-2.271-1.204-4.356-1.321-.084-.007-.294-.014-.366-.02v1.846C4.303-2.854 5.452-1.681 5.452 0c0 .849-.296 1.566-.794 2.117h1.643V3.61H2.693v1.924H.56V3.61h-3.609V2.117h1.642C-1.904 1.566-2.2.849-2.2 0c0-1.668 1.131-2.839 2.722-3.206v-1.88h-3.847v-1.495H.672c1.722 0 4.598-.078 6.743 1.204v-4.762h2.17V5.332h-2.17z" style="fill:#164789;fill-opacity:1;fill-rule:nonzero;stroke:none" transform="translate(235.381 262.952)"/><path d="M0 0h6.108v-5.441h2.151V0h6.1v1.494H0Z" style="fill:#164789;fill-opacity:1;fill-rule:nonzero;stroke:none" transform="translate(202.245 258.255)"/><path d="m0 0 .437-1.369c2.565.355 4.451 1.115 5.714 2.777C7.414-.254 9.3-1.014 11.866-1.369L12.303 0c-2.362.473-4.64 1.546-5.011 4.021h3.92v1.48H1.089v-1.48h3.922C4.639 1.546 2.361.473 0 0" style="fill:#164789;fill-opacity:1;fill-rule:nonzero;stroke:none" transform="translate(203.273 262.493)"/><path d="M0 0h-10.829c-5.062 0-7.358-3.268-7.987-5.613l-4.291-16.008h1.669c2.312 0 4.002.705 4.394 2.012.892 3.334 2.669 9.964 3.563 13.301.352 1.297 1.665 1.992 2.571 1.992 2.915 0 7.933-.004 7.933-.004 1.378 0 3.069-.223 2.308-2.763-.429-1.507-1.783-2.266-4.061-2.266h-3.551c-2.339 0-4.052-.718-4.412-2.063l-.611-2.254h7.716c4.757 0 8.945 1.004 10.49 6.749C6.207-2.055 3.908 0 0 0" style="fill:#164789;fill-opacity:1;fill-rule:nonzero;stroke:none" transform="translate(161.941 298.934)"/><path d="m0 0-.239-.888c-1.162-4.337-4.635-6.69-7.488-6.69h-1.072c-2.848 0-5.066 2.353-3.898 6.69l.238.888c1.159 4.342 4.633 6.691 7.484 6.691h1.074C-1.053 6.691 1.163 4.342 0 0m-2.74 11.057h-1.102c-6.242 0-12.417-4.137-14.03-10.167l-.673-2.514c-1.619-6.025 2.338-10.165 8.583-10.165h1.102c6.245 0 12.417 4.14 14.033 10.165L5.846.89C7.465 6.92 3.507 11.057-2.74 11.057" style="fill:#164789;fill-opacity:1;fill-rule:nonzero;stroke:none" transform="translate(185.496 288.488)"/><path d="m0 0-.239-.888c-1.166-4.337-4.634-6.69-7.487-6.69h-1.075c-2.843 0-5.064 2.353-3.894 6.69l.235.888c1.16 4.342 4.633 6.691 7.485 6.691h1.074C-1.055 6.691 1.162 4.342 0 0m-2.738 11.057h-1.104c-6.244 0-12.416-4.137-14.031-10.167l-.673-2.514c-1.62-6.025 2.339-10.165 8.584-10.165h1.103c6.244 0 12.416 4.14 14.032 10.165L5.847.89c1.616 6.03-2.339 10.167-8.585 10.167" style="fill:#164789;fill-opacity:1;fill-rule:nonzero;stroke:none" transform="translate(256.989 288.488)"/><path d="M0 0h-5.6c-2.285 0-4.151-.776-5.197-1.668l-13.536-9.756C-23.25-7.388-22.188-3.418-21.271 0h-3.911c-2.424 0-4.199-.735-4.618-2.101l-6.339-23.645h3.9c2.467 0 4.27.758 4.649 2.172v-.013c.783 2.927 1.644 6.134 2.511 9.37l7.827-9.789c.763-.951 1.608-1.74 4.375-1.74h5.979l-10.207 12.662z" style="fill:#164789;fill-opacity:1;fill-rule:nonzero;stroke:none" transform="translate(117.069 303.059)"/><path d="m0 0-7.507-.005c-2.035 0-2.988.403-2.467 2.151.428 1.502 1.711 1.987 3.984 1.987h9.486c2.342 0 4.048.719 4.411 2.058l.604 2.262H-5.128c-4.753 0-8.975-1.096-10.416-6.476-1.004-3.736.825-6.316 5.06-6.299h7.505c2.09 0 2.972-.449 2.436-2.263-.43-1.508-1.785-2.263-4.062-2.263h-9.597c-2.343 0-4.05-.716-4.412-2.059l-.606-2.261h13.755c5.144 0 9.007 1.222 10.49 6.748C6.194-2.057 3.714 0 0 0" style="fill:#164789;fill-opacity:1;fill-rule:nonzero;stroke:none" transform="translate(133.332 290.48)"/><path d="M0 0c-2.702 0-3.346 1.836-3.114 2.695.4 1.503 2.347 2.496 4.563 3.526l3.439-4.644C3.804.747 1.475 0 0 0m5.154 14.969c3.463 0 2.041-2.689.672-3.459-.403-.229-1.692-.92-2.385-1.197-.515.691-.837 1.359-.977 1.628-.875 1.659.828 3.028 2.69 3.028m10.04-7.078H12.69c-1.149 0-2.218-.531-2.642-1.311-.463-.84-1.217-1.975-1.864-2.557L5.226 7.926c6.217 2.291 6.931 6.571 4.854 8.439-1.816 1.637-5.852 1.802-8.965.035-3.834-2.172-3.009-5.312-1.537-7.658l-.599-.265c-3.285-1.446-5.314-2.973-5.978-5.744-.711-2.97 1.797-5.874 6.245-5.874 3.394 0 5.465.973 7.51 2.196l1.282-1.734h5.12l-3.024 4.062c1.782 1.345 4.356 4.736 5.06 6.508" style="fill:#164789;fill-opacity:1;fill-rule:nonzero;stroke:none" transform="translate(198.873 279.945)"/><path d="M0 0c.353 1.297 1.666 1.991 2.571 1.991l10.31-.002c1.715 0 2.892.975 3.13 1.854l.659 2.467H2.653c-5.062 0-7.357-3.27-7.988-5.614l-2.648-9.713c-.975-3.644.735-6.316 5.063-6.296H8.798c1.715 0 2.894.973 3.128 1.855l.661 2.465H-.017c-1.926.012-2.923.381-2.392 2.146 0 0 1.516 5.514 2.409 8.847" style="fill:#164789;fill-opacity:1;fill-rule:nonzero;stroke:none" transform="translate(223.553 292.626)"/><path d="M0 0c-.447.257-.648.263-1.015-.134-1.459-1.572-4.058-4.535-5.373-6.024 1.769-2.552 3.101-6.659 2.334-11.918-.105-.358.115-.601.436-.278l-.005-.004c3.318 3.359 7.022 7.048 10.346 9.561C5.399-4.771 2.481-1.417 0 0" style="fill:#f68712;fill-opacity:1;fill-rule:nonzero;stroke:none" transform="translate(274.372 307.454)"/><path d="M0 0c-.178-.102-.178-.362.002-.36 4.712.108 7.854-.966 10.466-2.868 2.977 2.433 8.011 6.247 10.458 7.505.97.229 2.696.432 3.866.474-1.021-1.093-2.456-2.687-3.274-3.585-.209-.232.003-.434.244-.34 6.686 2.626 15.57 4.643 22.811 5.164C28.049 9.441 12.052 6.78 0 0" style="fill:#164789;fill-opacity:1;fill-rule:nonzero;stroke:none" transform="translate(253.794 308.32)"/><path d="M0 0c-6.438-.771-15.052-3.604-19.444-5.882-.613-.319-.495-.544-.031-.751 1.428-.64 3.974-2.217 5.412-4.44 9.449 5.639 17.49 8.432 20.217 9.354A77.813 77.813 0 0 1 0 0" style="fill:#1da7e7;fill-opacity:1;fill-rule:nonzero;stroke:none" transform="translate(300.776 313.746)"/><path d="M147.732 63.688h2.245v17.165h-2.245z" style="fill:#164789;fill-opacity:1;fill-rule:nonzero;stroke:none"/><path d="M0 0h-2.572v-1.656H0v-9.724h2.245V5.785H0Z" style="fill:#164789;fill-opacity:1;fill-rule:nonzero;stroke:none" transform="translate(144.503 75.068)"/><path d="M0 0v.801h2.827v1.656H0v1.992h-2.367V2.457h-2.828V.801h2.828V0c0-3.422-1.233-5.398-3.302-7.244l1.349-1.117c1.19.857 2.664 2.367 3.134 3.956C-.724-5.963.762-7.504 1.95-8.361l1.351 1.117C1.231-5.398 0-3.422 0 0" style="fill:#164789;fill-opacity:1;fill-rule:nonzero;stroke:none" transform="translate(140.208 76.63)"/><path d="M0 0c1.399 0 2.307-.826 2.307-2.123 0-1.295-.908-2.125-2.307-2.125-1.398 0-2.306.83-2.306 2.125C-2.306-.826-1.398 0 0 0m0-5.96c2.894 0 4.767 1.493 4.767 3.837C4.767.219 2.894 1.712 0 1.712c-2.893 0-4.766-1.493-4.766-3.835C-4.766-4.467-2.893-5.96 0-5.96" style="fill:#164789;fill-opacity:1;fill-rule:nonzero;stroke:none" transform="translate(159.872 79.91)"/><path d="M158.324 71.434h3.099v-1.816h-3.099zm-6.457 0h4.067v-1.817h-2.07V67.96h9.028c.133 0 .24-.106.24-.239V63.53h2.389v4.939c0 .633-.513 1.148-1.15 1.148h-.558v1.817h4.064v1.655h-16.01z" style="fill:#164789;fill-opacity:1;fill-rule:nonzero;stroke:none"/><path d="M0 0h-2.409v-8.729H0v3.851h2.45v1.654H0Z" style="fill:#164789;fill-opacity:1;fill-rule:nonzero;stroke:none" transform="translate(232.647 80.853)"/><path d="M0 0v.75C0 1.385-.516 1.9-1.151 1.9h-10.206V.243h8.715c.133 0 .24-.107.24-.238v-.584c0-2.145-.63-3.814-.63-3.814h-10.63v-1.655h6.792v-2.695h-4.398v-1.656h8.596c.134 0 .24-.107.24-.239v-4.683h2.401v5.428a1.15 1.15 0 0 1-1.151 1.15h-3.286v2.695h6.81v1.655H-.703S0-2.504 0 0" style="fill:#164789;fill-opacity:1;fill-rule:nonzero;stroke:none" transform="translate(131.852 78.916)"/><path d="M0 0a.247.247 0 0 0-.245-.243h-5.486A.243.243 0 0 0-5.974 0v1.594H0Zm0 3.255h-5.974v1.963h-2.408V-.763c0-.64.517-1.153 1.155-1.153h8.478c.639 0 1.156.513 1.156 1.153v5.981H0Z" style="fill:#164789;fill-opacity:1;fill-rule:nonzero;stroke:none" transform="translate(198.246 65.88)"/><path d="M0 0c-1.267 0-2.09.976-2.09 2.5 0 1.528.823 2.503 2.09 2.503S2.088 4.028 2.088 2.5C2.088.976 1.267 0 0 0m7.279 3.398h-2.74C4.166 5.551 2.436 6.881 0 6.881c-2.761 0-4.613-1.705-4.613-4.381 0-2.672 1.852-4.376 4.613-4.376 2.489 0 4.231 1.382 4.556 3.612h2.723v-3.908h2.409v9.083H7.279Z" style="fill:#164789;fill-opacity:1;fill-rule:nonzero;stroke:none" transform="translate(190.967 73.942)"/><path d="M0 0v4.143h-2.401V-.732A1.16 1.16 0 0 1-1.24-1.896h9.781v1.657H.245A.243.243 0 0 0 0 0" style="fill:#164789;fill-opacity:1;fill-rule:nonzero;stroke:none" transform="translate(174.813 65.86)"/><path d="m0 0 .909 1.528c-3.656 1.56-3.94 5.284-3.957 6.758v.768h-2.44v-.768c-.018-1.474-.261-5.157-3.958-6.758L-8.537 0s2.868 1.036 4.27 3.573C-2.87 1.036 0 0 0 0" style="fill:#164789;fill-opacity:1;fill-rule:nonzero;stroke:none" transform="translate(177.737 71.55)"/><path d="M0 0h-1.295v4.903h-2.246v-17.165h2.246v10.606H0v-10.606h2.244V4.903H0Z" style="fill:#164789;fill-opacity:1;fill-rule:nonzero;stroke:none" transform="translate(214.794 75.95)"/><path d="M0 0h-5.956v-1.655h4.392a.244.244 0 0 0 .244-.229c0-2.447-1.039-6.453-4.992-9.316l1.206-1.189C-.24-9.396 1.171-4.371 1.171-1.655v.627A1.166 1.166 0 0 1 0 0" style="fill:#164789;fill-opacity:1;fill-rule:nonzero;stroke:none" transform="translate(208.82 80.362)"/><path d="M0 0a.247.247 0 0 0-.245-.242H-3.32A.242.242 0 0 0-3.563 0v2.02H0Zm2.41-.761v6.788H0V3.681h-3.563v2.346h-2.409V-.761c0-.642.516-1.156 1.156-1.156h6.07c.639 0 1.156.514 1.156 1.156" style="fill:#164789;fill-opacity:1;fill-rule:nonzero;stroke:none" transform="translate(225.62 74.478)"/><path d="M0 0v.774c0 .131.105.238.237.238h6.852c.626 0 1.136.509 1.136 1.134v2.193c0 .629-.51 1.137-1.136 1.137h-9.498V3.892h7.988a.236.236 0 0 0 .236-.237V2.83a.236.236 0 0 0-.236-.236h-6.852a1.135 1.135 0 0 1-1.136-1.136V-.685c0-.624.508-1.131 1.136-1.131h9.599v1.579H.237A.237.237 0 0 0 0 0" style="fill:#164789;fill-opacity:1;fill-rule:nonzero;stroke:none" transform="translate(224.443 65.781)"/><path d="M0 0v3.944h-2.401V-.745c0-.634.515-1.15 1.151-1.15h9.914v1.659H.239A.236.236 0 0 0 0 0" style="fill:#164789;fill-opacity:1;fill-rule:nonzero;stroke:none" transform="translate(107.022 65.866)"/><path d="M0 0h-2.409v-11.78H0v5.972h2.415v1.674H0Z" style="fill:#164789;fill-opacity:1;fill-rule:nonzero;stroke:none" transform="translate(115.394 80.853)"/><path d="M0 0c0 1.429.753 2.341 1.914 2.341 1.162 0 1.915-.912 1.915-2.341 0-1.428-.753-2.342-1.915-2.342C.753-2.342 0-1.428 0 0m6.268 0c0 1.044-.345 1.925-.928 2.596h1.718v1.659H3.099v1.989H.731V4.255h-3.96V2.596h1.718c-.583-.671-.928-1.552-.928-2.596 0-2.463 1.912-4.033 4.353-4.033 2.443 0 4.354 1.57 4.354 4.033" style="fill:#164789;fill-opacity:1;fill-rule:nonzero;stroke:none" transform="translate(104.013 75.121)"/><path d="M0 0h-2.409v-11.78H0v5.972h2.417v1.674H0Z" style="fill:#164789;fill-opacity:1;fill-rule:nonzero;stroke:none" transform="translate(182.901 80.853)"/><path d="M0 0h-15.354v-1.657h6.488V-7.55h2.387v5.893H0Z" style="fill:#164789;fill-opacity:1;fill-rule:nonzero;stroke:none" transform="translate(257.177 71.383)"/><path d="m0 0 .483-1.52c2.847.394 4.652 1.237 6.053 3.082C7.937-.283 9.742-1.126 12.589-1.52L13.072 0c-2.619.522-4.859 1.57-5.27 4.316h4.062v1.642H1.208V4.316h4.063C4.859 1.57 2.619.522 0 0" style="fill:#164789;fill-opacity:1;fill-rule:nonzero;stroke:none" transform="translate(242.964 74.429)"/><path d="M0 0h-1.605c1.771-2.038 2.67-6.842 2.67-9.075 0-2.234-.88-7.095-2.669-9.075h1.59c1.983 1.98 3.145 5.831 3.145 9.075C3.131-5.831 1.969-2.116 0 0" style="fill:#164789;fill-opacity:1;fill-rule:nonzero;stroke:none" transform="translate(258.26 81.347)"/><path d="M0 0h-1.605c-1.968-2.116-3.13-5.831-3.13-9.075 0-3.244 1.162-7.095 3.145-9.075H0c-1.789 1.98-2.67 6.841-2.67 9.075 0 2.233.9 7.037 2.67 9.075" style="fill:#164789;fill-opacity:1;fill-rule:nonzero;stroke:none" transform="translate(242.343 81.347)"/><path d="M0 0h-10.829c-5.062 0-7.358-3.268-7.987-5.613l-4.291-16.008h1.669c2.312 0 4.002.705 4.394 2.012.892 3.334 2.669 9.964 3.563 13.301.352 1.297 1.665 1.992 2.571 1.992 2.915 0 7.933-.004 7.933-.004 1.378 0 3.069-.223 2.308-2.763-.429-1.507-1.783-2.266-4.061-2.266h-3.551c-2.339 0-4.052-.718-4.412-2.063l-.611-2.254h7.716c4.757 0 8.945 1.004 10.49 6.749C6.207-2.055 3.908 0 0 0" style="fill:#164789;fill-opacity:1;fill-rule:nonzero;stroke:none" transform="translate(161.941 111.532)"/><path d="m0 0-.239-.888c-1.162-4.337-4.635-6.69-7.488-6.69h-1.072c-2.848 0-5.066 2.353-3.898 6.69l.238.888c1.159 4.342 4.633 6.691 7.484 6.691h1.074C-1.053 6.691 1.163 4.342 0 0m-2.74 11.057h-1.102c-6.242 0-12.417-4.137-14.03-10.167l-.673-2.514c-1.619-6.025 2.338-10.165 8.583-10.165h1.102c6.245 0 12.417 4.14 14.033 10.165L5.846.89C7.465 6.92 3.507 11.057-2.74 11.057" style="fill:#164789;fill-opacity:1;fill-rule:nonzero;stroke:none" transform="translate(185.496 101.087)"/><path d="m0 0-.239-.888c-1.166-4.337-4.634-6.69-7.487-6.69h-1.075c-2.843 0-5.064 2.353-3.894 6.69l.235.888c1.16 4.342 4.633 6.691 7.485 6.691h1.074C-1.055 6.691 1.162 4.342 0 0m-2.738 11.057h-1.104c-6.244 0-12.416-4.137-14.031-10.167l-.673-2.514c-1.62-6.025 2.339-10.165 8.584-10.165h1.103c6.244 0 12.416 4.14 14.032 10.165L5.847.89c1.616 6.03-2.339 10.167-8.585 10.167" style="fill:#164789;fill-opacity:1;fill-rule:nonzero;stroke:none" transform="translate(256.989 101.087)"/><path d="M0 0h-5.6c-2.285 0-4.151-.776-5.197-1.668l-13.536-9.756C-23.25-7.388-22.188-3.418-21.271 0h-3.911c-2.424 0-4.199-.735-4.618-2.101l-6.339-23.645h3.9c2.467 0 4.27.758 4.649 2.172v-.013c.783 2.927 1.644 6.134 2.511 9.37l7.827-9.789c.763-.951 1.608-1.74 4.375-1.74h5.979l-10.207 12.662z" style="fill:#164789;fill-opacity:1;fill-rule:nonzero;stroke:none" transform="translate(117.069 115.657)"/><path d="m0 0-7.507-.005c-2.035 0-2.988.403-2.467 2.151.428 1.502 1.711 1.987 3.984 1.987h9.486c2.342 0 4.048.719 4.411 2.058l.604 2.262H-5.128c-4.753 0-8.975-1.096-10.416-6.476-1.004-3.736.825-6.316 5.06-6.299h7.505c2.09 0 2.972-.449 2.436-2.263-.43-1.508-1.785-2.263-4.062-2.263h-9.597c-2.343 0-4.05-.716-4.412-2.059l-.606-2.261h13.755c5.144 0 9.007 1.222 10.49 6.748C6.194-2.057 3.714 0 0 0" style="fill:#164789;fill-opacity:1;fill-rule:nonzero;stroke:none" transform="translate(133.332 103.08)"/><path d="M0 0c-2.702 0-3.346 1.836-3.114 2.695.4 1.503 2.347 2.496 4.563 3.526l3.439-4.644C3.804.747 1.475 0 0 0m5.154 14.969c3.463 0 2.041-2.689.672-3.459-.403-.229-1.692-.92-2.385-1.197-.515.691-.837 1.359-.977 1.628-.875 1.659.828 3.028 2.69 3.028m10.04-7.078H12.69c-1.149 0-2.218-.531-2.642-1.311-.463-.84-1.217-1.975-1.864-2.557L5.226 7.926c6.217 2.291 6.931 6.571 4.854 8.439-1.816 1.637-5.852 1.802-8.965.035-3.834-2.172-3.009-5.312-1.537-7.658l-.599-.265c-3.285-1.446-5.314-2.973-5.978-5.744-.711-2.97 1.797-5.874 6.245-5.874 3.394 0 5.465.973 7.51 2.196l1.282-1.734h5.12l-3.024 4.062c1.782 1.345 4.356 4.736 5.06 6.508" style="fill:#164789;fill-opacity:1;fill-rule:nonzero;stroke:none" transform="translate(198.873 92.544)"/><path d="M0 0c.353 1.297 1.666 1.991 2.571 1.991l10.31-.002c1.715 0 2.892.975 3.13 1.854l.659 2.467H2.653c-5.062 0-7.357-3.27-7.988-5.614l-2.648-9.713c-.975-3.644.735-6.316 5.063-6.296H8.798c1.715 0 2.894.973 3.128 1.855l.661 2.465H-.017c-1.926.012-2.923.381-2.392 2.146 0 0 1.516 5.514 2.409 8.847" style="fill:#164789;fill-opacity:1;fill-rule:nonzero;stroke:none" transform="translate(223.553 105.225)"/><path d="M0 0c-.447.257-.648.263-1.015-.134-1.459-1.572-4.058-4.535-5.373-6.024 1.769-2.552 3.101-6.659 2.334-11.918-.105-.358.115-.601.436-.278l-.005-.004c3.318 3.359 7.022 7.048 10.346 9.561C5.399-4.771 2.481-1.417 0 0" style="fill:#f68712;fill-opacity:1;fill-rule:nonzero;stroke:none" transform="translate(274.372 120.053)"/><path d="M0 0c-.178-.102-.178-.362.002-.36 4.712.108 7.854-.966 10.466-2.868 2.977 2.433 8.011 6.247 10.458 7.505.97.229 2.696.432 3.866.474-1.021-1.093-2.456-2.687-3.274-3.585-.209-.232.003-.434.244-.34 6.686 2.626 15.57 4.643 22.811 5.164C28.049 9.441 12.052 6.78 0 0" style="fill:#164789;fill-opacity:1;fill-rule:nonzero;stroke:none" transform="translate(253.794 120.919)"/><path d="M0 0c-6.438-.771-15.052-3.604-19.444-5.882-.613-.319-.495-.544-.031-.751 1.428-.64 3.974-2.217 5.412-4.44 9.449 5.639 17.49 8.432 20.217 9.354A77.813 77.813 0 0 1 0 0" style="fill:#1da7e7;fill-opacity:1;fill-rule:nonzero;stroke:none" transform="translate(300.776 126.345)"/><path d="M0 0h-10.828c-5.063 0-7.356-3.269-7.986-5.613l-4.291-16.008h1.667c2.313 0 4.002.705 4.393 2.012.895 3.336 2.672 9.965 3.565 13.303.353 1.296 1.664 1.989 2.572 1.989 2.914 0 7.931-.003 7.931-.003 1.377 0 3.069-.222 2.309-2.764-.43-1.507-1.781-2.262-4.061-2.262h-3.55c-2.34 0-4.053-.72-4.414-2.066l-.61-2.254h7.717c4.756 0 8.943 1.003 10.488 6.747C6.207-2.054 3.908 0 0 0" style="fill:#164789;fill-opacity:1;fill-rule:nonzero;stroke:none" transform="translate(513.035 298.934)"/><path d="m0 0-.24-.888c-1.162-4.338-4.635-6.691-7.487-6.691h-1.074c-2.845 0-5.064 2.353-3.896 6.691l.236.888c1.158 4.341 4.633 6.69 7.486 6.69h1.073C-1.055 6.69 1.162 4.341 0 0m-2.74 11.058h-1.104c-6.242 0-12.416-4.139-14.029-10.167l-.674-2.515c-1.619-6.027 2.34-10.167 8.582-10.167h1.106c6.242 0 12.416 4.14 14.031 10.167L5.846.891c1.617 6.028-2.34 10.167-8.586 10.167" style="fill:#164789;fill-opacity:1;fill-rule:nonzero;stroke:none" transform="translate(536.592 288.49)"/><path d="m0 0-.24-.888c-1.164-4.338-4.635-6.691-7.487-6.691h-1.076c-2.842 0-5.064 2.353-3.892 6.691l.234.888c1.162 4.341 4.635 6.69 7.484 6.69h1.075C-1.055 6.69 1.162 4.341 0 0m-2.738 11.058h-1.104c-6.242 0-12.418-4.139-14.031-10.167l-.674-2.515c-1.619-6.027 2.34-10.167 8.584-10.167h1.104c6.244 0 12.416 4.14 14.033 10.167L5.848.891c1.615 6.028-2.34 10.167-8.586 10.167" style="fill:#164789;fill-opacity:1;fill-rule:nonzero;stroke:none" transform="translate(608.084 288.49)"/><path d="M0 0h-5.598c-2.285 0-4.15-.776-5.197-1.667l-13.537-9.756C-23.248-7.386-22.186-3.417-21.27 0h-3.91c-2.425 0-4.199-.733-4.619-2.099l-6.34-23.646h3.901c2.467 0 4.269.758 4.65 2.172v-.014c.783 2.93 1.645 6.136 2.51 9.371l7.828-9.787c.762-.953 1.607-1.742 4.373-1.742h5.981l-10.209 12.662z" style="fill:#164789;fill-opacity:1;fill-rule:nonzero;stroke:none" transform="translate(468.162 303.058)"/><path d="m0 0-7.508-.006c-2.035 0-2.988.407-2.467 2.152.428 1.502 1.711 1.988 3.983 1.988h9.486c2.344 0 4.051.72 4.412 2.06l.604 2.26H-5.131c-4.752 0-8.973-1.098-10.414-6.475-1.002-3.736.826-6.318 5.061-6.297h7.504c2.089 0 2.972-.453 2.435-2.265-.428-1.509-1.783-2.264-4.06-2.264h-9.598c-2.344 0-4.049-.718-4.412-2.058l-.606-2.262h13.756c5.143 0 9.006 1.221 10.49 6.748C6.193-2.056 3.715 0 0 0" style="fill:#164789;fill-opacity:1;fill-rule:nonzero;stroke:none" transform="translate(484.428 290.48)"/><path d="M0 0c-2.701 0-3.346 1.838-3.115 2.696.4 1.503 2.347 2.497 4.562 3.525l3.438-4.643C3.803.749 1.475 0 0 0m5.154 14.967c3.463 0 2.039-2.686.672-3.455-.404-.227-1.693-.922-2.387-1.199-.513.689-.835 1.357-.976 1.628-.873 1.658.826 3.026 2.691 3.026m10.039-7.074h-2.504c-1.148 0-2.216-.533-2.64-1.313-.463-.84-1.219-1.975-1.865-2.556L5.227 7.927c6.216 2.29 6.929 6.572 4.851 8.439-1.816 1.637-5.851 1.802-8.963.036-3.834-2.175-3.01-5.314-1.537-7.658l-.599-.267C-4.307 7.03-6.336 5.505-7 2.736-7.711-.238-5.203-3.141-.756-3.141c3.395 0 5.467.973 7.512 2.197L8.039-2.68h5.119l-3.025 4.063c1.781 1.344 4.357 4.736 5.06 6.51" style="fill:#164789;fill-opacity:1;fill-rule:nonzero;stroke:none" transform="translate(549.969 279.945)"/><path d="M0 0c.352 1.296 1.666 1.989 2.572 1.989l10.309-.002c1.715 0 2.894.974 3.129 1.854l.66 2.467H2.652c-5.06 0-7.357-3.271-7.988-5.614l-2.646-9.711c-.977-3.647.734-6.317 5.06-6.296H8.797c1.715 0 2.896.971 3.131 1.853l.658 2.464H-.018c-1.923.013-2.923.382-2.39 2.146 0 0 1.515 5.513 2.408 8.85" style="fill:#164789;fill-opacity:1;fill-rule:nonzero;stroke:none" transform="translate(574.648 292.628)"/><path d="M0 0c-.447.26-.65.266-1.016-.131-1.459-1.574-4.058-4.535-5.373-6.025 1.77-2.553 3.102-6.66 2.334-11.92-.105-.357.116-.6.438-.278l-.006-.003C-.305-15 3.4-11.309 6.723-8.795 5.4-4.768 2.48-1.416 0 0" style="fill:#f68712;fill-opacity:1;fill-rule:nonzero;stroke:none" transform="translate(625.467 307.453)"/><path d="M0 0c-.18-.1-.178-.361.002-.359 4.713.105 7.855-.967 10.465-2.868 2.978 2.432 8.012 6.245 10.461 7.504.967.231 2.693.434 3.865.475-1.022-1.094-2.457-2.688-3.273-3.586-.209-.232.001-.435.244-.341 6.685 2.626 15.568 4.644 22.812 5.165C28.049 9.441 12.051 6.781 0 0" style="fill:#164789;fill-opacity:1;fill-rule:nonzero;stroke:none" transform="translate(604.889 308.32)"/><path d="M0 0c-6.438-.768-15.053-3.602-19.443-5.881-.616-.317-.496-.543-.032-.75 1.428-.642 3.973-2.219 5.411-4.438 9.451 5.635 17.492 8.43 20.218 9.352A75.59 75.59 0 0 1 0 0" style="fill:#1da7e7;fill-opacity:1;fill-rule:nonzero;stroke:none" transform="translate(651.871 313.744)"/><path d="M669.848 277.278h1.588v12.144h-1.588z" style="fill:#164789;fill-opacity:1;fill-rule:nonzero;stroke:none"/><path d="M0 0h-1.82v-1.173H0v-6.88h1.588V4.091H0Z" style="fill:#164789;fill-opacity:1;fill-rule:nonzero;stroke:none" transform="translate(667.564 285.331)"/><path d="M0 0v.565h2.002v1.174H0v1.407h-1.674V1.739h-2.002V.565h2.002V0c0-2.422-.873-3.819-2.336-5.125l.953-.791c.844.606 1.885 1.675 2.219 2.799.326-1.102 1.379-2.194 2.219-2.799l.955.791C.873-3.819 0-2.422 0 0" style="fill:#164789;fill-opacity:1;fill-rule:nonzero;stroke:none" transform="translate(664.523 286.435)"/><path d="M0 0c.992 0 1.633-.585 1.633-1.502 0-.916-.641-1.504-1.633-1.504-.986 0-1.629.588-1.629 1.504C-1.629-.585-.986 0 0 0m0-4.217c2.049 0 3.373 1.058 3.373 2.715C3.373.154 2.049 1.211 0 1.211c-2.045 0-3.371-1.057-3.371-2.713 0-1.657 1.326-2.715 3.371-2.715" style="fill:#164789;fill-opacity:1;fill-rule:nonzero;stroke:none" transform="translate(678.436 288.755)"/><path d="M677.34 282.758h2.193v-1.284h-2.193zm-4.567 0h2.877v-1.284h-1.464V280.3h6.388a.166.166 0 0 0 .168-.168v-2.964h1.692v3.493a.815.815 0 0 1-.815.813h-.394v1.284h2.875v1.171h-11.327z" style="fill:#164789;fill-opacity:1;fill-rule:nonzero;stroke:none"/><path d="M0 0h-1.705v-6.176H0v2.725h1.732v1.172H0Z" style="fill:#164789;fill-opacity:1;fill-rule:nonzero;stroke:none" transform="translate(729.926 289.422)"/><path d="M0 0v.528a.816.816 0 0 1-.814.817h-7.221V.172h6.168a.17.17 0 0 0 .168-.169V-.41a8.425 8.425 0 0 0-.446-2.697h-7.521v-1.172h4.807v-1.908h-3.114v-1.17h6.084a.169.169 0 0 0 .168-.169v-3.315h1.7v3.842a.813.813 0 0 1-.815.812H-3.16v1.908h4.818v1.172H-.498S0-1.771 0 0" style="fill:#164789;fill-opacity:1;fill-rule:nonzero;stroke:none" transform="translate(658.611 288.053)"/><path d="M0 0a.175.175 0 0 0-.174-.172h-3.881a.17.17 0 0 0-.17.172v1.126H0Zm0 2.302h-4.225v1.389H-5.93V-.54c0-.452.366-.815.817-.815h6c.451 0 .816.363.816.815v4.231H0Z" style="fill:#164789;fill-opacity:1;fill-rule:nonzero;stroke:none" transform="translate(705.586 278.83)"/><path d="M0 0c-.896 0-1.479.69-1.479 1.768 0 1.081.583 1.771 1.479 1.771.896 0 1.479-.69 1.479-1.771C1.479.69.896 0 0 0m5.15 2.404H3.213C2.949 3.926 1.725 4.867 0 4.867c-1.953 0-3.264-1.205-3.264-3.099 0-1.89 1.311-3.097 3.264-3.097 1.762 0 2.994.98 3.225 2.556H5.15v-2.764h1.705v6.425H5.15Z" style="fill:#164789;fill-opacity:1;fill-rule:nonzero;stroke:none" transform="translate(700.436 284.534)"/><path d="M0 0v2.932h-1.699v-3.45c0-.457.369-.823.822-.823h6.92v1.172H.172A.171.171 0 0 0 0 0" style="fill:#164789;fill-opacity:1;fill-rule:nonzero;stroke:none" transform="translate(689.008 278.815)"/><path d="m0 0 .645 1.083c-2.588 1.104-2.79 3.737-2.801 4.78v.544h-1.727v-.544c-.012-1.043-.183-3.647-2.799-4.78L-6.039 0s2.029.735 3.021 2.529C-2.031.735 0 0 0 0" style="fill:#164789;fill-opacity:1;fill-rule:nonzero;stroke:none" transform="translate(691.076 282.84)"/><path d="M0 0h-.918v3.468h-1.588V-8.676h1.588v7.504H0v-7.504h1.588V3.468H0Z" style="fill:#164789;fill-opacity:1;fill-rule:nonzero;stroke:none" transform="translate(717.295 285.954)"/><path d="M0 0h-4.215v-1.172h3.108a.172.172 0 0 0 .173-.161c0-1.732-.736-4.564-3.533-6.591l.854-.842C-.17-6.648.828-3.094.828-1.172v.444A.826.826 0 0 1 0 0" style="fill:#164789;fill-opacity:1;fill-rule:nonzero;stroke:none" transform="translate(713.068 289.076)"/><path d="M0 0a.174.174 0 0 0-.174-.171H-2.35A.171.171 0 0 0-2.52 0v1.431H0Zm1.705-.538v4.803H0V2.604h-2.52v1.661h-1.705V-.538c0-.453.364-.817.817-.817H.887c.453 0 .818.364.818.817" style="fill:#164789;fill-opacity:1;fill-rule:nonzero;stroke:none" transform="translate(724.953 284.912)"/><path d="M0 0v.547c0 .092.074.166.168.166h4.848c.443 0 .802.36.802.804v1.551a.803.803 0 0 1-.802.804h-6.721V2.751h5.652a.166.166 0 0 0 .166-.166V2a.166.166 0 0 0-.166-.166H-.902a.803.803 0 0 1-.803-.803V-.485c0-.443.359-.802.803-.802h6.793v1.116H.168A.169.169 0 0 0 0 0" style="fill:#164789;fill-opacity:1;fill-rule:nonzero;stroke:none" transform="translate(724.121 278.762)"/><path d="M0 0v2.791h-1.701V-.526c0-.45.365-.814.814-.814v-.001h7.014v1.173H.168A.168.168 0 0 0 0 0" style="fill:#164789;fill-opacity:1;fill-rule:nonzero;stroke:none" transform="translate(641.047 278.82)"/><path d="M0 0h-1.703v-8.333H0v4.227h1.711v1.183H0Z" style="fill:#164789;fill-opacity:1;fill-rule:nonzero;stroke:none" transform="translate(646.967 289.422)"/><path d="M0 0c0 1.013.533 1.657 1.354 1.657.822 0 1.355-.644 1.355-1.657 0-1.01-.533-1.657-1.355-1.657C.533-1.657 0-1.01 0 0m4.434 0c0 .739-.243 1.362-.657 1.838h1.217v1.171H2.191v1.41H.518v-1.41h-2.803V1.838h1.217C-1.48 1.362-1.727.739-1.727 0c0-1.743 1.352-2.853 3.081-2.853 1.728 0 3.08 1.11 3.08 2.853" style="fill:#164789;fill-opacity:1;fill-rule:nonzero;stroke:none" transform="translate(638.916 285.367)"/><path d="M0 0h-1.705v-8.333H0v4.227h1.709v1.183H0Z" style="fill:#164789;fill-opacity:1;fill-rule:nonzero;stroke:none" transform="translate(694.73 289.422)"/><path d="M0 0v1.686h-1.744V0c0-1.369-.395-4.436-3.006-6.099l.742-.911c.442.232 2.387 1.485 3.135 3.291.748-1.806 2.695-3.059 3.135-3.291l.74.911C.393-4.436 0-1.369 0 0" style="fill:#164789;fill-opacity:1;fill-rule:nonzero;stroke:none" transform="translate(771.152 287.56)"/><path d="M0 0v3.585h-1.697V-8.559H0v7.388h1.725V0Z" style="fill:#164789;fill-opacity:1;fill-rule:nonzero;stroke:none" transform="translate(776.563 285.837)"/><path d="M0 0c.986-1.794 3.018-2.529 3.018-2.529l.642 1.083C1.074-.343.871 2.291.861 3.334v.544H-.865v-.544c-.014-1.043-.184-3.647-2.801-4.78l.645-1.083S-.994-1.794 0 0" style="fill:#164789;fill-opacity:1;fill-rule:nonzero;stroke:none" transform="translate(746.932 285.37)"/><path d="M751.848 282.718h1.705v6.704h-1.705z" style="fill:#164789;fill-opacity:1;fill-rule:nonzero;stroke:none"/><path d="M0 0h-7.086v-1.172h6.031a.169.169 0 0 0 .168-.17v-3.253H.814v3.782A.815.815 0 0 1 0 0" style="fill:#164789;fill-opacity:1;fill-rule:nonzero;stroke:none" transform="translate(752.738 281.873)"/><path d="M0 0c0 .867.502 1.42 1.275 1.42.774 0 1.278-.553 1.278-1.42 0-.867-.504-1.42-1.278-1.42C.502-1.42 0-.867 0 0m5.818-2.918c-.775-.658-1.781-.945-3.418-1.038-.066-.005-.23-.011-.287-.014v1.449C3.377-2.24 4.277-1.318 4.277 0c0 .666-.23 1.229-.623 1.662h1.291v1.173H2.113v1.51H.439v-1.51h-2.834V1.662h1.29A2.436 2.436 0 0 1-1.729 0c0-1.31.889-2.228 2.139-2.517v-1.475h-3.021v-1.174H.527c1.352 0 3.608-.062 5.291.945v-3.738h1.705V4.185H5.818Z" style="fill:#164789;fill-opacity:1;fill-rule:nonzero;stroke:none" transform="translate(757.871 285.237)"/><path d="M0 0h4.795v-4.272h1.689V0h4.787v1.172H0Z" style="fill:#164789;fill-opacity:1;fill-rule:nonzero;stroke:none" transform="translate(731.86 281.55)"/><path d="m0 0 .344-1.075c2.013.278 3.494.876 4.486 2.179.99-1.303 2.471-1.901 4.484-2.179L9.658 0c-1.853.37-3.64 1.213-3.933 3.155h3.078v1.162H.855V3.155h3.081C3.643 1.213 1.854.37 0 0" style="fill:#164789;fill-opacity:1;fill-rule:nonzero;stroke:none" transform="translate(732.666 284.878)"/><path d="M0 0h-10.828c-5.063 0-7.356-3.269-7.986-5.613l-4.291-16.008h1.667c2.313 0 4.002.705 4.393 2.012.895 3.336 2.672 9.965 3.565 13.303.353 1.296 1.664 1.989 2.572 1.989 2.914 0 7.931-.003 7.931-.003 1.377 0 3.069-.222 2.309-2.764-.43-1.507-1.781-2.262-4.061-2.262h-3.55c-2.34 0-4.053-.72-4.414-2.066l-.61-2.254h7.717c4.756 0 8.943 1.003 10.488 6.747C6.207-2.054 3.908 0 0 0" style="fill:#164789;fill-opacity:1;fill-rule:nonzero;stroke:none" transform="translate(513.035 111.532)"/><path d="m0 0-.24-.888c-1.162-4.338-4.635-6.691-7.487-6.691h-1.074c-2.845 0-5.064 2.353-3.896 6.691l.236.888c1.158 4.341 4.633 6.69 7.486 6.69h1.073C-1.055 6.69 1.162 4.341 0 0m-2.74 11.058h-1.104c-6.242 0-12.416-4.139-14.029-10.167l-.674-2.515c-1.619-6.027 2.34-10.167 8.582-10.167h1.106c6.242 0 12.416 4.14 14.031 10.167L5.846.891c1.617 6.028-2.34 10.167-8.586 10.167" style="fill:#164789;fill-opacity:1;fill-rule:nonzero;stroke:none" transform="translate(536.592 101.088)"/><path d="m0 0-.24-.888c-1.164-4.338-4.635-6.691-7.487-6.691h-1.076c-2.842 0-5.064 2.353-3.892 6.691l.234.888c1.162 4.341 4.635 6.69 7.484 6.69h1.075C-1.055 6.69 1.162 4.341 0 0m-2.738 11.058h-1.104c-6.242 0-12.418-4.139-14.031-10.167l-.674-2.515c-1.619-6.027 2.34-10.167 8.584-10.167h1.104c6.244 0 12.416 4.14 14.033 10.167L5.848.891c1.615 6.028-2.34 10.167-8.586 10.167" style="fill:#164789;fill-opacity:1;fill-rule:nonzero;stroke:none" transform="translate(608.084 101.088)"/><path d="M0 0h-5.598c-2.285 0-4.15-.776-5.197-1.667l-13.537-9.756C-23.248-7.386-22.186-3.417-21.27 0h-3.91c-2.425 0-4.199-.733-4.619-2.099l-6.34-23.646h3.901c2.467 0 4.269.758 4.65 2.172v-.014c.783 2.93 1.645 6.136 2.51 9.371l7.828-9.787c.762-.953 1.607-1.742 4.373-1.742h5.981l-10.209 12.662z" style="fill:#164789;fill-opacity:1;fill-rule:nonzero;stroke:none" transform="translate(468.162 115.656)"/><path d="m0 0-7.508-.006c-2.035 0-2.988.407-2.467 2.152.428 1.502 1.711 1.988 3.983 1.988h9.486c2.344 0 4.051.72 4.412 2.06l.604 2.26H-5.131c-4.752 0-8.973-1.098-10.414-6.475-1.002-3.736.826-6.318 5.061-6.297h7.504c2.089 0 2.972-.453 2.435-2.265-.428-1.509-1.783-2.264-4.06-2.264h-9.598c-2.344 0-4.049-.718-4.412-2.058l-.606-2.262h13.756c5.143 0 9.006 1.221 10.49 6.748C6.193-2.056 3.715 0 0 0" style="fill:#164789;fill-opacity:1;fill-rule:nonzero;stroke:none" transform="translate(484.428 103.078)"/><path d="M0 0c-2.701 0-3.346 1.838-3.115 2.696.4 1.503 2.347 2.497 4.562 3.525l3.438-4.643C3.803.749 1.475 0 0 0m5.154 14.967c3.463 0 2.039-2.686.672-3.455-.404-.227-1.693-.922-2.387-1.199-.513.689-.835 1.357-.976 1.628-.873 1.658.826 3.026 2.691 3.026m10.039-7.074h-2.504c-1.148 0-2.216-.533-2.64-1.313-.463-.84-1.219-1.975-1.865-2.556L5.227 7.927c6.216 2.29 6.929 6.572 4.851 8.439-1.816 1.637-5.851 1.802-8.963.036-3.834-2.175-3.01-5.314-1.537-7.658l-.599-.267C-4.307 7.03-6.336 5.505-7 2.736-7.711-.238-5.203-3.141-.756-3.141c3.395 0 5.467.973 7.512 2.197L8.039-2.68h5.119l-3.025 4.063c1.781 1.344 4.357 4.736 5.06 6.51" style="fill:#164789;fill-opacity:1;fill-rule:nonzero;stroke:none" transform="translate(549.969 92.544)"/><path d="M0 0c.352 1.296 1.666 1.989 2.572 1.989l10.309-.002c1.715 0 2.894.974 3.129 1.854l.66 2.467H2.652c-5.06 0-7.357-3.271-7.988-5.614l-2.646-9.711c-.977-3.647.734-6.317 5.06-6.296H8.797c1.715 0 2.896.971 3.131 1.853l.658 2.464H-.018c-1.923.013-2.923.382-2.39 2.146 0 0 1.515 5.513 2.408 8.85" style="fill:#164789;fill-opacity:1;fill-rule:nonzero;stroke:none" transform="translate(574.648 105.227)"/><path d="M0 0c-.447.26-.65.266-1.016-.131-1.459-1.574-4.058-4.535-5.373-6.025 1.77-2.553 3.102-6.66 2.334-11.92-.105-.357.116-.6.438-.278l-.006-.003C-.305-15 3.4-11.309 6.723-8.795 5.4-4.768 2.48-1.416 0 0" style="fill:#f68712;fill-opacity:1;fill-rule:nonzero;stroke:none" transform="translate(625.467 120.052)"/><path d="M0 0c-.18-.1-.178-.361.002-.359 4.713.105 7.855-.967 10.465-2.868 2.978 2.432 8.012 6.245 10.461 7.504.967.231 2.693.434 3.865.475-1.022-1.094-2.457-2.688-3.273-3.586-.209-.232.001-.435.244-.341 6.685 2.626 15.568 4.644 22.812 5.165C28.049 9.441 12.051 6.781 0 0" style="fill:#164789;fill-opacity:1;fill-rule:nonzero;stroke:none" transform="translate(604.889 120.919)"/><path d="M0 0c-6.438-.768-15.053-3.602-19.443-5.881-.616-.317-.496-.543-.032-.75 1.428-.642 3.973-2.219 5.411-4.438 9.451 5.635 17.492 8.43 20.218 9.352A75.59 75.59 0 0 1 0 0" style="fill:#1da7e7;fill-opacity:1;fill-rule:nonzero;stroke:none" transform="translate(651.871 126.343)"/><path d="M672.889 89.896h1.734v13.257h-1.734z" style="fill:#164789;fill-opacity:1;fill-rule:nonzero;stroke:none"/><path d="M0 0h-1.986v-1.28H0v-7.509h1.734V4.468H0Z" style="fill:#164789;fill-opacity:1;fill-rule:nonzero;stroke:none" transform="translate(670.394 98.686)"/><path d="M0 0v.619h2.182v1.278H0v1.54h-1.828v-1.54h-2.184V.619h2.184V0c0-2.644-.953-4.17-2.549-5.595l1.039-.862c.92.662 2.059 1.828 2.422 3.056.357-1.204 1.504-2.394 2.422-3.056l1.043.862C.951-4.17 0-2.644 0 0" style="fill:#164789;fill-opacity:1;fill-rule:nonzero;stroke:none" transform="translate(667.078 99.89)"/><path d="M0 0c1.08 0 1.781-.639 1.781-1.641 0-1-.701-1.639-1.781-1.639s-1.781.639-1.781 1.639C-1.781-.639-1.08 0 0 0m0-4.603c2.234 0 3.682 1.153 3.682 2.962C3.682.167 2.234 1.322 0 1.322S-3.68.167-3.68-1.641c0-1.809 1.446-2.962 3.68-2.962" style="fill:#164789;fill-opacity:1;fill-rule:nonzero;stroke:none" transform="translate(682.264 102.424)"/><path d="M681.068 95.877h2.393v-1.403h-2.393zm-4.986 0h3.141v-1.403h-1.6v-1.28h6.973c.103 0 .185-.08.185-.184v-3.237h1.846v3.815a.888.888 0 0 1-.889.886h-.429v1.403h3.136v1.278h-12.363z" style="fill:#164789;fill-opacity:1;fill-rule:nonzero;stroke:none"/><path d="M0 0h-1.861v-6.741H0v2.973h1.891v1.278H0Z" style="fill:#164789;fill-opacity:1;fill-rule:nonzero;stroke:none" transform="translate(738.467 103.153)"/><path d="M0 0v.579a.89.89 0 0 1-.891.889h-7.88V.188h6.73a.187.187 0 0 0 .186-.184v-.451c0-1.657-.487-2.945-.487-2.945h-8.211V-4.67h5.246v-2.083h-3.396v-1.278h6.639a.184.184 0 0 0 .185-.185v-3.617h1.854v4.193a.887.887 0 0 1-.889.887h-2.537v2.083h5.258v1.278H-.545S0-1.934 0 0" style="fill:#164789;fill-opacity:1;fill-rule:nonzero;stroke:none" transform="translate(660.625 101.656)"/><path d="M0 0a.19.19 0 0 0-.188-.187h-4.238A.187.187 0 0 0-4.613 0v1.231H0Zm0 2.515h-4.613V4.03h-1.86V-.587a.89.89 0 0 1 .893-.892H.967c.494 0 .892.396.892.892V4.03H0Z" style="fill:#164789;fill-opacity:1;fill-rule:nonzero;stroke:none" transform="translate(711.898 91.589)"/><path d="M0 0c-.979 0-1.613.753-1.613 1.93 0 1.18.634 1.933 1.613 1.933S1.613 3.11 1.613 1.93C1.613.753.979 0 0 0m5.621 2.624H3.506C3.217 4.286 1.881 5.313 0 5.313c-2.133 0-3.563-1.316-3.563-3.383 0-2.063 1.43-3.378 3.563-3.378 1.922 0 3.268 1.067 3.52 2.789h2.101v-3.018h1.861v7.015H5.621Z" style="fill:#164789;fill-opacity:1;fill-rule:nonzero;stroke:none" transform="translate(706.277 97.815)"/><path d="M0 0v3.199h-1.854V-.567c0-.498.401-.897.895-.897h7.555v1.278H.188A.188.188 0 0 0 0 0" style="fill:#164789;fill-opacity:1;fill-rule:nonzero;stroke:none" transform="translate(693.803 91.574)"/><path d="m0 0 .701 1.18C-2.121 2.385-2.34 5.26-2.354 6.397v.595h-1.884v-.595c-.014-1.137-.201-3.981-3.057-5.217L-6.594 0s2.217.8 3.299 2.759C-2.217.8 0 0 0 0" style="fill:#164789;fill-opacity:1;fill-rule:nonzero;stroke:none" transform="translate(696.06 95.969)"/><path d="M0 0h-1.002v3.788h-1.734V-9.469h1.734v8.192H0v-8.192h1.732V3.788H0Z" style="fill:#164789;fill-opacity:1;fill-rule:nonzero;stroke:none" transform="translate(724.68 99.365)"/><path d="M0 0h-4.6v-1.278h3.393a.187.187 0 0 0 .189-.177c0-1.889-.804-4.983-3.857-7.194l.932-.917C-.186-7.255.906-3.376.906-1.278v.484A.903.903 0 0 1 0 0" style="fill:#164789;fill-opacity:1;fill-rule:nonzero;stroke:none" transform="translate(720.064 102.772)"/><path d="M0 0a.19.19 0 0 0-.188-.188h-2.375A.188.188 0 0 0-2.75 0v1.56H0Zm1.863-.588v5.243H0V2.842h-2.75v1.813h-1.861V-.588c0-.496.4-.893.892-.893h4.69c.492 0 .892.397.892.893" style="fill:#164789;fill-opacity:1;fill-rule:nonzero;stroke:none" transform="translate(733.037 98.23)"/><path d="M0 0v.598c0 .101.08.183.182.183h5.293c.484 0 .877.393.877.876v1.695a.877.877 0 0 1-.877.877h-7.336V3.005h6.17a.182.182 0 0 0 .181-.181v-.638c0-.1-.082-.183-.181-.183H-.984a.876.876 0 0 1-.877-.877V-.529c0-.482.392-.873.877-.873H6.43v1.218H.182A.182.182 0 0 0 0 0" style="fill:#164789;fill-opacity:1;fill-rule:nonzero;stroke:none" transform="translate(732.13 91.513)"/><path d="M0 0v3.046h-1.854v-3.62c0-.491.397-.889.887-.889h7.658v1.28H.186A.183.183 0 0 0 0 0" style="fill:#164789;fill-opacity:1;fill-rule:nonzero;stroke:none" transform="translate(641.45 91.578)"/><path d="M0 0h-1.859v-9.099H0v4.614h1.867v1.292H0Z" style="fill:#164789;fill-opacity:1;fill-rule:nonzero;stroke:none" transform="translate(647.914 103.153)"/><path d="M0 0c0 1.104.582 1.808 1.479 1.808.896 0 1.478-.704 1.478-1.808s-.582-1.808-1.478-1.808C.582-1.808 0-1.104 0 0m4.84 0c0 .806-.266 1.486-.715 2.006h1.326v1.279H2.393v1.536H.564V3.285h-3.058V2.006h1.326c-.449-.52-.715-1.2-.715-2.006 0-1.902 1.475-3.115 3.362-3.115C3.365-3.115 4.84-1.902 4.84 0" style="fill:#164789;fill-opacity:1;fill-rule:nonzero;stroke:none" transform="translate(639.125 98.726)"/><path d="M0 0h-1.859v-9.099H0v4.614h1.865v1.292H0Z" style="fill:#164789;fill-opacity:1;fill-rule:nonzero;stroke:none" transform="translate(700.049 103.153)"/><path d="M0 0h-11.857v-1.278h5.009v-4.553h1.844v4.553H0Z" style="fill:#164789;fill-opacity:1;fill-rule:nonzero;stroke:none" transform="translate(757.41 95.839)"/><path d="m0 0 .373-1.174c2.197.305 3.592.956 4.674 2.379C6.129-.218 7.523-.869 9.723-1.174L10.096 0C8.072.403 6.344 1.213 6.025 3.333h3.137v1.269H.934V3.333H4.07C3.752 1.213 2.021.403 0 0" style="fill:#164789;fill-opacity:1;fill-rule:nonzero;stroke:none" transform="translate(746.434 98.19)"/><path d="M0 0h-1.24C.127-1.574.822-5.283.822-7.009c0-1.724-.679-5.477-2.062-7.009h1.228c1.532 1.532 2.428 4.504 2.428 7.009C2.416-4.502 1.52-1.635 0 0" style="fill:#164789;fill-opacity:1;fill-rule:nonzero;stroke:none" transform="translate(758.248 103.533)"/><path d="M0 0h-1.24c-1.52-1.635-2.418-4.502-2.418-7.009 0-2.505.898-5.477 2.429-7.009H0c-1.383 1.532-2.063 5.285-2.063 7.009C-2.063-5.283-1.367-1.574 0 0" style="fill:#164789;fill-opacity:1;fill-rule:nonzero;stroke:none" transform="translate(745.955 103.533)"/><path d="M670.196 192.848h1.59v12.16h-1.59z" style="fill:#164789;fill-opacity:1;fill-rule:nonzero;stroke:none"/><path d="M0 0h-1.824v-1.172H0v-6.891h1.59V4.098H0Z" style="fill:#164789;fill-opacity:1;fill-rule:nonzero;stroke:none" transform="translate(667.91 200.91)"/><path d="M0 0v.564h2.001v1.177H0V3.15h-1.677V1.741H-3.68V.564h2.003V0c0-2.426-.876-3.825-2.339-5.132l.953-.792c.844.608 1.888 1.676 2.221 2.803.331-1.104 1.381-2.195 2.223-2.803l.957.792C.871-3.825 0-2.426 0 0" style="fill:#164789;fill-opacity:1;fill-rule:nonzero;stroke:none" transform="translate(664.866 202.018)"/><path d="M0 0c.989 0 1.634-.585 1.634-1.505 0-.916-.645-1.504-1.634-1.504-.99 0-1.634.588-1.634 1.504C-1.634-.585-.99 0 0 0m0-4.223c2.048 0 3.376 1.061 3.376 2.718C3.376.155 2.048 1.213 0 1.213c-2.051 0-3.375-1.058-3.375-2.718 0-1.657 1.324-2.718 3.375-2.718" style="fill:#164789;fill-opacity:1;fill-rule:nonzero;stroke:none" transform="translate(678.797 204.339)"/><path d="M677.7 198.336h2.193v-1.287H677.7Zm-4.574 0h2.881v-1.287h-1.467v-1.176h6.394c.096 0 .17-.074.17-.168v-2.967h1.692v3.497a.813.813 0 0 1-.813.814h-.396v1.287h2.882v1.172h-11.343z" style="fill:#164789;fill-opacity:1;fill-rule:nonzero;stroke:none"/><path d="M0 0h-1.707v-6.183H0v2.728h1.737v1.174H0Z" style="fill:#164789;fill-opacity:1;fill-rule:nonzero;stroke:none" transform="translate(730.35 205.008)"/><path d="M0 0v.527a.816.816 0 0 1-.814.818h-7.231V.171h6.176A.17.17 0 0 0-1.699 0v-.411c0-1.52-.447-2.701-.447-2.701h-7.531v-1.173h4.811v-1.911h-3.116v-1.171h6.089a.17.17 0 0 0 .17-.171v-3.318h1.701v3.846c0 .45-.364.814-.815.814h-2.328v1.911h4.824v1.173H-.499S0-1.774 0 0" style="fill:#164789;fill-opacity:1;fill-rule:nonzero;stroke:none" transform="translate(658.945 203.638)"/><path d="M0 0a.176.176 0 0 0-.175-.173h-3.884A.174.174 0 0 0-4.233 0v1.126H0Zm0 2.304h-4.233v1.391h-1.705V-.542c0-.452.365-.816.818-.816H.884c.454 0 .822.364.822.816v4.237H0Z" style="fill:#164789;fill-opacity:1;fill-rule:nonzero;stroke:none" transform="translate(705.98 194.403)"/><path d="M0 0c-.895 0-1.479.691-1.479 1.77 0 1.083.584 1.773 1.479 1.773.898 0 1.48-.69 1.48-1.773C1.48.691.898 0 0 0m5.159 2.407H3.217C2.951 3.931 1.728 4.873 0 4.873c-1.956 0-3.266-1.207-3.266-3.103 0-1.891 1.31-3.1 3.266-3.1 1.766 0 3 .981 3.229 2.559h1.93V-1.54h1.706v6.435H5.159Z" style="fill:#164789;fill-opacity:1;fill-rule:nonzero;stroke:none" transform="translate(700.821 200.113)"/><path d="M0 0v2.936h-1.7V-.519c0-.457.369-.823.821-.823h6.932v1.174H.175A.173.173 0 0 0 0 0" style="fill:#164789;fill-opacity:1;fill-rule:nonzero;stroke:none" transform="translate(689.379 194.387)"/><path d="m0 0 .646 1.082C-1.945 2.188-2.146 4.826-2.16 5.87v.544h-1.728V5.87c-.013-1.044-.184-3.653-2.802-4.788L-6.047 0s2.031.734 3.024 2.531C-2.031.734 0 0 0 0" style="fill:#164789;fill-opacity:1;fill-rule:nonzero;stroke:none" transform="translate(691.451 198.418)"/><path d="M0 0h-.921v3.473h-1.591V-8.688h1.591v7.514H0v-7.514h1.589V3.473H0Z" style="fill:#164789;fill-opacity:1;fill-rule:nonzero;stroke:none" transform="translate(717.703 201.535)"/><path d="M0 0h-4.22v-1.173h3.112a.172.172 0 0 0 .172-.163c0-1.734-.737-4.57-3.537-6.598l.855-.843C-.17-6.657.828-3.098.828-1.173v.443A.825.825 0 0 1 0 0" style="fill:#164789;fill-opacity:1;fill-rule:nonzero;stroke:none" transform="translate(713.47 204.662)"/><path d="M0 0a.174.174 0 0 0-.172-.172h-2.177A.171.171 0 0 0-2.521 0v1.432H0Zm1.708-.539V4.27H0V2.606h-2.521V4.27h-1.708V-.539c0-.454.366-.818.818-.818H.89c.454 0 .818.364.818.818" style="fill:#164789;fill-opacity:1;fill-rule:nonzero;stroke:none" transform="translate(725.37 200.492)"/><path d="M0 0v.547c0 .094.071.168.166.168h4.855c.442 0 .803.359.803.803v1.554a.805.805 0 0 1-.803.805h-6.734V2.754H3.95a.167.167 0 0 0 .168-.167v-.584a.166.166 0 0 0-.168-.166H-.905a.809.809 0 0 1-.808-.804V-.486c0-.443.364-.803.808-.803h6.8v1.117H.166A.168.168 0 0 0 0 0" style="fill:#164789;fill-opacity:1;fill-rule:nonzero;stroke:none" transform="translate(724.54 194.334)"/><path d="M0 0v2.795h-1.703v-3.32c0-.451.364-.817.813-.817h7.025v1.174H.163A.165.165 0 0 0 0 0" style="fill:#164789;fill-opacity:1;fill-rule:nonzero;stroke:none" transform="translate(641.36 194.39)"/><path d="M0 0h-1.708v-8.344H0v4.232h1.71v1.184H0Z" style="fill:#164789;fill-opacity:1;fill-rule:nonzero;stroke:none" transform="translate(647.288 205.008)"/><path d="M0 0c0 1.013.535 1.658 1.357 1.658.823 0 1.358-.645 1.358-1.658 0-1.011-.535-1.66-1.358-1.66C.535-1.66 0-1.011 0 0m4.443 0c0 .739-.246 1.363-.661 1.84h1.219v1.171H2.197v1.412H.52V3.011h-2.806V1.84h1.218C-1.481 1.363-1.729.739-1.729 0c0-1.747 1.356-2.856 3.086-2.856C3.09-2.856 4.443-1.747 4.443 0" style="fill:#164789;fill-opacity:1;fill-rule:nonzero;stroke:none" transform="translate(639.224 200.948)"/><path d="M0 0h-1.71v-8.344H0v4.232h1.709v1.184H0Z" style="fill:#164789;fill-opacity:1;fill-rule:nonzero;stroke:none" transform="translate(695.11 205.008)"/><path d="M0 0v1.688h-1.744V0c0-1.371-.396-4.441-3.009-6.107l.742-.912c.441.232 2.388 1.486 3.139 3.294.748-1.808 2.697-3.062 3.138-3.294l.742.912C.396-4.441 0-1.371 0 0" style="fill:#164789;fill-opacity:1;fill-rule:nonzero;stroke:none" transform="translate(771.627 203.144)"/><path d="M0 0v3.59h-1.702V-8.57H0v7.398h1.725V0Z" style="fill:#164789;fill-opacity:1;fill-rule:nonzero;stroke:none" transform="translate(777.047 201.418)"/><path d="M0 0c.989-1.797 3.021-2.531 3.021-2.531l.646 1.082C1.074-.344.872 2.295.862 3.339v.544H-.866v-.544C-.88 2.295-1.051-.314-3.668-1.449l.642-1.082S-.993-1.797 0 0" style="fill:#164789;fill-opacity:1;fill-rule:nonzero;stroke:none" transform="translate(747.377 200.95)"/><path d="M752.298 198.294h1.707v6.714h-1.707z" style="fill:#164789;fill-opacity:1;fill-rule:nonzero;stroke:none"/><path d="M0 0h-7.092v-1.175h6.039a.169.169 0 0 0 .168-.17v-3.258H.816v3.788A.816.816 0 0 1 0 0" style="fill:#164789;fill-opacity:1;fill-rule:nonzero;stroke:none" transform="translate(753.188 197.45)"/><path d="M0 0c0 .869.503 1.423 1.277 1.423.776 0 1.28-.554 1.28-1.423 0-.867-.504-1.421-1.28-1.421C.503-1.421 0-.867 0 0m5.829-2.92c-.778-.66-1.788-.948-3.426-1.039a7.63 7.63 0 0 0-.289-.014v1.449C3.381-2.243 4.283-1.32 4.283 0c0 .667-.232 1.232-.623 1.665h1.29V2.84H2.114v1.512H.44V2.84h-2.836V1.665h1.288A2.436 2.436 0 0 1-1.73 0c0-1.309.886-2.229 2.141-2.518v-1.478h-3.025v-1.176H.527c1.355 0 3.613-.062 5.302.945v-3.742h1.706v12.16H5.829Z" style="fill:#164789;fill-opacity:1;fill-rule:nonzero;stroke:none" transform="translate(758.33 200.816)"/><path d="M0 0h4.801v-4.278h1.691V0h4.792v1.174H0Z" style="fill:#164789;fill-opacity:1;fill-rule:nonzero;stroke:none" transform="translate(732.286 197.126)"/><path d="m0 0 .343-1.075c2.016.276 3.499.876 4.491 2.182.992-1.306 2.475-1.906 4.492-2.182L9.669 0C7.812.373 6.021 1.214 5.732 3.16h3.08v1.164H.855V3.16h3.084C3.646 1.214 1.855.373 0 0" style="fill:#164789;fill-opacity:1;fill-rule:nonzero;stroke:none" transform="translate(733.095 200.457)"/><path d="M0 0h-10.843c-5.066 0-7.365-3.271-7.996-5.62l-4.298-16.028h1.671c2.317 0 4.01.705 4.401 2.014.891 3.338 2.672 9.978 3.567 13.318.353 1.298 1.667 1.995 2.573 1.995 2.921 0 7.945-.004 7.945-.004 1.38 0 3.074-.224 2.311-2.768-.429-1.507-1.785-2.268-4.066-2.268H-8.29c-2.345 0-4.058-.719-4.42-2.066l-.609-2.256h7.723c4.765 0 8.96 1.005 10.506 6.756C6.214-2.059 3.913 0 0 0" style="fill:#164789;fill-opacity:1;fill-rule:nonzero;stroke:none" transform="translate(513.186 214.531)"/><path d="m0 0-.239-.89c-1.163-4.34-4.642-6.696-7.495-6.696H-8.81c-2.85 0-5.073 2.356-3.902 6.696l.238.89c1.162 4.348 4.639 6.7 7.494 6.7h1.073C-1.054 6.7 1.164 4.348 0 0m-2.743 11.07h-1.104c-6.249 0-12.433-4.14-14.047-10.179l-.674-2.518c-1.62-6.032 2.342-10.177 8.592-10.177h1.107c6.251 0 12.429 4.145 14.047 10.177L5.856.891C7.474 6.93 3.514 11.07-2.743 11.07" style="fill:#164789;fill-opacity:1;fill-rule:nonzero;stroke:none" transform="translate(536.77 204.072)"/><path d="m0 0-.239-.89c-1.168-4.34-4.639-6.696-7.496-6.696h-1.078c-2.845 0-5.071 2.356-3.899 6.696l.236.89c1.161 4.348 4.638 6.7 7.495 6.7h1.076C-1.056 6.7 1.165 4.348 0 0m-2.743 11.07h-1.104c-6.253 0-12.431-4.14-14.048-10.179l-.675-2.518c-1.62-6.032 2.341-10.177 8.596-10.177h1.103c6.253 0 12.434 4.145 14.05 10.177L5.856.891C7.472 6.93 3.512 11.07-2.743 11.07" style="fill:#164789;fill-opacity:1;fill-rule:nonzero;stroke:none" transform="translate(608.354 204.072)"/><path d="M0 0h-5.607c-2.288 0-4.157-.777-5.203-1.668l-13.553-9.769L-21.297 0h-3.916c-2.428 0-4.207-.736-4.625-2.103l-6.347-23.674h3.906c2.468 0 4.273.759 4.653 2.175v-.013c.788 2.93 1.646 6.142 2.515 9.383l7.836-9.803c.764-.952 1.613-1.742 4.379-1.742h5.989l-10.22 12.678z" style="fill:#164789;fill-opacity:1;fill-rule:nonzero;stroke:none" transform="translate(468.257 218.66)"/><path d="m0 0-7.516-.006c-2.037 0-2.991.404-2.47 2.152.428 1.506 1.715 1.992 3.989 1.992h9.499c2.344 0 4.054.719 4.415 2.06l.604 2.265H-5.135c-4.758 0-8.986-1.098-10.428-6.484-1.006-3.741.826-6.325 5.067-6.307h7.513c2.094 0 2.975-.45 2.44-2.268-.431-1.509-1.789-2.263-4.068-2.263h-9.61c-2.346 0-4.054-.717-4.415-2.063l-.607-2.264h13.772c5.151 0 9.02 1.223 10.503 6.756C6.201-2.061 3.719 0 0 0" style="fill:#164789;fill-opacity:1;fill-rule:nonzero;stroke:none" transform="translate(484.54 206.068)"/><path d="M0 0c-2.704 0-3.348 1.838-3.117 2.698.401 1.505 2.35 2.499 4.568 3.531l3.444-4.651C3.81.747 1.479 0 0 0m5.162 14.987c3.465 0 2.043-2.692.673-3.464-.402-.228-1.693-.92-2.388-1.197-.514.692-.838 1.36-.978 1.631-.875 1.66.828 3.03 2.693 3.03M15.215 7.9h-2.506c-1.15 0-2.224-.531-2.646-1.312-.463-.841-1.22-1.977-1.871-2.56L5.234 7.935c6.226 2.294 6.94 6.58 4.86 8.451-1.817 1.637-5.859 1.803-8.977.034-3.84-2.176-3.012-5.318-1.539-7.667l-.599-.267c-3.29-1.446-5.322-2.975-5.985-5.75C-7.72-.24-5.209-3.146-.753-3.146c3.399 0 5.47.976 7.518 2.2l1.286-1.738h5.123l-3.025 4.069c1.784 1.344 4.362 4.742 5.066 6.515" style="fill:#164789;fill-opacity:1;fill-rule:nonzero;stroke:none" transform="translate(550.163 195.52)"/><path d="M0 0c.354 1.299 1.667 1.995 2.575 1.995l10.323-.002c1.718 0 2.896.976 3.135 1.854l.66 2.47H2.656c-5.065 0-7.366-3.272-7.997-5.618l-2.651-9.725c-.977-3.65.737-6.326 5.068-6.306H8.811c1.716 0 2.897.975 3.131 1.857l.662 2.469H-.016c-1.927.012-2.927.381-2.393 2.15 0 0 1.516 5.52 2.409 8.856" style="fill:#164789;fill-opacity:1;fill-rule:nonzero;stroke:none" transform="translate(574.874 208.215)"/><path d="M0 0c-.446.259-.651.264-1.015-.133-1.461-1.574-4.064-4.541-5.381-6.032 1.772-2.554 3.105-6.666 2.338-11.933-.106-.357.114-.599.438-.277l-.006-.006c3.32 3.365 7.031 7.059 10.357 9.574C5.405-4.774 2.485-1.417 0 0" style="fill:#f68712;fill-opacity:1;fill-rule:nonzero;stroke:none" transform="translate(625.758 223.06)"/><path d="M0 0c-.178-.104-.178-.363.004-.361 4.72.109 7.865-.967 10.48-2.871 2.979 2.435 8.018 6.253 10.47 7.514.971.23 2.698.432 3.872.473-1.024-1.093-2.461-2.689-3.281-3.588-.208-.231.003-.434.245-.341 6.694 2.629 15.59 4.649 22.841 5.171C28.086 9.452 12.07 6.787 0 0" style="fill:#164789;fill-opacity:1;fill-rule:nonzero;stroke:none" transform="translate(605.153 223.93)"/><path d="M0 0c-6.445-.772-15.069-3.608-19.469-5.891-.613-.318-.494-.544-.031-.751 1.431-.64 3.979-2.219 5.418-4.447C-4.62-5.44 3.43-2.645 6.16-1.722A77.982 77.982 0 0 1 0 0" style="fill:#1da7e7;fill-opacity:1;fill-rule:nonzero;stroke:none" transform="translate(652.196 229.362)"/><path d="M525.279 167.03h2.475v17.297h-2.475z" style="fill:#164789;fill-opacity:1;fill-rule:nonzero;stroke:none"/><path d="M0 0h-1.996c.229.859.374 1.784.374 2.779v.631a1.177 1.177 0 0 1-1.183 1.04h-6.442V2.779h4.796a.244.244 0 0 0 .247-.228C-4.229 1.822-4.282.952-4.538 0H-9.46v-1.672h4.317c-.784-1.718-2.09-3.783-4.462-5.175l1.217-1.198c1.323.722 4.213 2.859 5.798 6.373H0v-10.916h2.387V4.709H0Z" style="fill:#164789;fill-opacity:1;fill-rule:nonzero;stroke:none" transform="translate(521.785 179.618)"/><path d="M0 0c-1.452 0-2.396 1.3-2.396 3.334 0 2.038.944 3.332 2.396 3.332 1.45 0 2.394-1.294 2.394-3.332C2.394 1.3 1.45 0 0 0m0 8.394c-3.011 0-5.033-1.969-5.033-5.06C-5.033.245-3.011-1.728 0-1.728c3.014 0 5.031 1.973 5.031 5.062 0 3.091-2.017 5.06-5.031 5.06" style="fill:#164789;fill-opacity:1;fill-rule:nonzero;stroke:none" transform="translate(534.72 175.607)"/><path d="M541.696 166.987h2.644v17.34h-2.644zM545.917 170.341h16.223v1.67h-16.223z" style="fill:#164789;fill-opacity:1;fill-rule:nonzero;stroke:none"/><path d="M0 0c1.692-2.738 4.336-3.512 6.314-4.18l.757 1.637C1.753-.888 1.43 3.18 1.43 4.191v.51h-2.861v-.51c0-1.011-.324-5.079-5.644-6.734l.762-1.637C-4.335-3.512-1.693-2.738 0 0" style="fill:#164789;fill-opacity:1;fill-rule:nonzero;stroke:none" transform="translate(554.03 179.278)"/><path d="M0 0v3.937h-2.643V0h-5.753v-1.67H7.829V0Z" style="fill:#164789;fill-opacity:1;fill-rule:nonzero;stroke:none" transform="translate(605.281 172.01)"/><path d="M0 0h2.571c.718 2.253 1 5.134 1 7.263v1.384c0 .642-.535 1.163-1.195 1.163H-8.338V8.138H.677c.136 0 .249-.11.249-.24V6.679c0-.415-.018-.881-.049-1.375h-9.308v-1.67H.714C.565 2.419.327 1.141 0 0" style="fill:#164789;fill-opacity:1;fill-rule:nonzero;stroke:none" transform="translate(607.51 174.154)"/><path d="M0 0v.623h3.237V0c0-1.335-.017-3.308-.276-4.956H.271C.018-3.308 0-1.335 0 0m2.865-6.627h4.742v1.671H5.538c.342 1.805.342 3.829.342 5.411v.168h1.891v1.672H-4.688V.623h2.043V.455c0-1.582-.001-3.606.343-5.411h-2.224v-1.671h4.75v-3.031h-6.793v-1.67H9.654v1.67H2.865Z" style="fill:#164789;fill-opacity:1;fill-rule:nonzero;stroke:none" transform="translate(569.637 181.669)"/><path d="M0 0h.898v-5.236h2.106V5.68H.898V1.669H0V5.68h-2.109V-5.236H0Z" style="fill:#164789;fill-opacity:1;fill-rule:nonzero;stroke:none" transform="translate(591.927 178.648)"/><path d="M0 0c0 1.688.789 2.766 1.998 2.766 1.21 0 1.999-1.078 1.999-2.766s-.789-2.764-1.999-2.764C.789-2.764 0-1.688 0 0m6.443 0c0 2.693-1.785 4.412-4.445 4.412-2.661 0-4.447-1.719-4.447-4.412 0-2.692 1.786-4.411 4.447-4.411 2.66 0 4.445 1.719 4.445 4.411" style="fill:#164789;fill-opacity:1;fill-rule:nonzero;stroke:none" transform="translate(582.425 179.589)"/><path d="M0 0v3.997h-2.535V-.728c0-.623.519-1.128 1.16-1.128h9.83v1.623H.243A.237.237 0 0 0 0 0" style="fill:#164789;fill-opacity:1;fill-rule:nonzero;stroke:none" transform="translate(586.542 169.082)"/><path d="M123.236 168.447h2.022v15.465h-2.022z" style="fill:#164789;fill-opacity:1;fill-rule:nonzero;stroke:none"/><path d="M0 0h-2.317v-1.494H0v-8.76h2.022V5.211H0Z" style="fill:#164789;fill-opacity:1;fill-rule:nonzero;stroke:none" transform="translate(120.328 178.701)"/><path d="M0 0v.721h2.547v1.492H0v1.793h-2.133V2.213h-2.548V.721h2.548V0c0-3.086-1.11-4.865-2.973-6.527l1.214-1.008c1.072.773 2.401 2.133 2.825 3.566.416-1.404 1.755-2.795 2.825-3.566l1.217 1.008C1.11-4.865 0-3.086 0 0" style="fill:#164789;fill-opacity:1;fill-rule:nonzero;stroke:none" transform="translate(116.456 180.11)"/><path d="M0 0c1.261 0 2.078-.746 2.078-1.912 0-1.168-.817-1.916-2.078-1.916-1.26 0-2.077.748-2.077 1.916C-2.077-.746-1.26 0 0 0m0-5.371c2.608 0 4.295 1.348 4.295 3.459C4.295.197 2.608 1.543 0 1.543c-2.607 0-4.294-1.346-4.294-3.455 0-2.111 1.687-3.459 4.294-3.459" style="fill:#164789;fill-opacity:1;fill-rule:nonzero;stroke:none" transform="translate(134.175 183.063)"/><path d="M132.78 175.426h2.792v-1.637h-2.792zm-5.818 0h3.664v-1.637h-1.865v-1.494h8.135a.215.215 0 0 0 .217-.215v-3.773h2.152v4.447c0 .57-.463 1.035-1.036 1.035h-.503v1.637h3.661v1.492h-14.425z" style="fill:#164789;fill-opacity:1;fill-rule:nonzero;stroke:none"/><path d="M0 0h-2.169v-7.865H0v3.47h2.208v1.493H0Z" style="fill:#164789;fill-opacity:1;fill-rule:nonzero;stroke:none" transform="translate(199.747 183.912)"/><path d="M0 0v.676c0 .572-.466 1.035-1.037 1.035h-9.197V.221h7.854a.217.217 0 0 0 .216-.217v-.525c0-1.934-.567-3.436-.567-3.436h-9.579v-1.494h6.121v-2.426h-3.964v-1.492h7.746a.217.217 0 0 0 .216-.217v-4.221h2.163v4.893c0 .572-.464 1.037-1.038 1.037h-2.96v2.426h6.135v1.494H-.634S0-2.256 0 0" style="fill:#164789;fill-opacity:1;fill-rule:nonzero;stroke:none" transform="translate(108.927 182.168)"/><path d="M0 0a.222.222 0 0 0-.22-.219h-4.944A.217.217 0 0 0-5.382 0v1.434H0Zm0 2.932h-5.382v1.769h-2.17V-.688c0-.578.465-1.041 1.04-1.041h7.639c.576 0 1.041.463 1.041 1.041v5.389H0Z" style="fill:#164789;fill-opacity:1;fill-rule:nonzero;stroke:none" transform="translate(168.751 170.424)"/><path d="M0 0c-1.141 0-1.883.881-1.883 2.254 0 1.375.742 2.254 1.883 2.254 1.142 0 1.88-.879 1.88-2.254C1.88.881 1.142 0 0 0m6.559 3.063H4.09C3.754 5.002 2.196 6.201 0 6.201c-2.487 0-4.157-1.537-4.157-3.947 0-2.408 1.67-3.945 4.157-3.945 2.243 0 3.812 1.248 4.105 3.255h2.454v-3.519h2.17v8.182h-2.17z" style="fill:#164789;fill-opacity:1;fill-rule:nonzero;stroke:none" transform="translate(162.192 177.685)"/><path d="M0 0v3.734h-2.165V-.658a1.05 1.05 0 0 1 1.048-1.051h8.813v1.494H.219A.22.22 0 0 0 0 0" style="fill:#164789;fill-opacity:1;fill-rule:nonzero;stroke:none" transform="translate(147.638 170.404)"/><path d="m0 0 .818 1.381c-3.294 1.402-3.549 4.76-3.566 6.088v.691h-2.198v-.691c-.015-1.328-.234-4.647-3.565-6.088L-7.693 0s2.586.938 3.848 3.221C-2.586.938 0 0 0 0" style="fill:#164789;fill-opacity:1;fill-rule:nonzero;stroke:none" transform="translate(150.273 175.53)"/><path d="M0 0h-1.167v4.416H-3.19v-15.465h2.023v9.555H0v-9.555h2.022V4.416H0Z" style="fill:#164789;fill-opacity:1;fill-rule:nonzero;stroke:none" transform="translate(183.661 179.496)"/><path d="M0 0h-5.366v-1.492h3.958c.118 0 .213-.09.219-.203 0-2.207-.936-5.815-4.497-8.395l1.086-1.072c4.384 2.695 5.656 7.223 5.656 9.67v.566A1.051 1.051 0 0 1 0 0" style="fill:#164789;fill-opacity:1;fill-rule:nonzero;stroke:none" transform="translate(178.278 183.47)"/><path d="M0 0a.222.222 0 0 0-.218-.217H-2.99A.22.22 0 0 0-3.209 0v1.822H0Zm2.171-.684v6.116H0V3.318h-3.209v2.114h-2.17V-.684a1.04 1.04 0 0 1 1.04-1.043H1.13A1.04 1.04 0 0 1 2.171-.684" style="fill:#164789;fill-opacity:1;fill-rule:nonzero;stroke:none" transform="translate(193.414 178.168)"/><path d="M0 0v.699A.21.21 0 0 0 .212.91h6.175c.564 0 1.023.461 1.023 1.024v1.974c0 .567-.459 1.026-1.023 1.026h-8.559V3.506h7.198a.213.213 0 0 0 .213-.213v-.744a.214.214 0 0 0-.213-.213h-6.174a1.023 1.023 0 0 1-1.024-1.023v-1.93c0-.565.458-1.022 1.024-1.022h8.649v1.424H.212A.213.213 0 0 0 0 0" style="fill:#164789;fill-opacity:1;fill-rule:nonzero;stroke:none" transform="translate(192.356 170.334)"/><path d="M0 0v3.555h-2.163V-.668c0-.574.464-1.037 1.037-1.037h8.932v1.494H.215A.213.213 0 0 0 0 0" style="fill:#164789;fill-opacity:1;fill-rule:nonzero;stroke:none" transform="translate(86.555 170.408)"/><path d="M0 0h-2.17v-10.615H0v5.385h2.177v1.507H0Z" style="fill:#164789;fill-opacity:1;fill-rule:nonzero;stroke:none" transform="translate(94.098 183.912)"/><path d="M0 0c0 1.289.68 2.109 1.726 2.109 1.046 0 1.726-.82 1.726-2.109 0-1.285-.68-2.109-1.726-2.109C.68-2.109 0-1.285 0 0m5.648 0c0 .941-.311 1.736-.836 2.34h1.546v1.492H2.792v1.795H.659V3.832h-3.568V2.34h1.548C-1.886 1.736-2.197.941-2.197 0c0-2.221 1.721-3.633 3.923-3.633 2.201 0 3.922 1.412 3.922 3.633" style="fill:#164789;fill-opacity:1;fill-rule:nonzero;stroke:none" transform="translate(83.843 178.748)"/><path d="M0 0h-2.171v-10.615H0v5.385h2.177v1.507H0Z" style="fill:#164789;fill-opacity:1;fill-rule:nonzero;stroke:none" transform="translate(154.925 183.912)"/><path d="M0 0v2.148h-2.22V0c0-1.742-.503-5.648-3.827-7.766l.945-1.16c.562.293 3.039 1.891 3.991 4.192.953-2.301 3.432-3.899 3.993-4.192l.944 1.16C.502-5.648 0-1.742 0 0" style="fill:#164789;fill-opacity:1;fill-rule:nonzero;stroke:none" transform="translate(252.25 181.541)"/><path d="M0 0v4.566h-2.162v-15.464H0v9.408h2.196V0Z" style="fill:#164789;fill-opacity:1;fill-rule:nonzero;stroke:none" transform="translate(259.143 179.346)"/><path d="M0 0c1.257-2.283 3.844-3.221 3.844-3.221l.819 1.381C1.369-.438 1.111 2.92 1.097 4.248v.691h-2.198v-.691C-1.117 2.92-1.336-.398-4.668-1.84l.819-1.381S-1.264-2.283 0 0" style="fill:#164789;fill-opacity:1;fill-rule:nonzero;stroke:none" transform="translate(221.405 178.75)"/><path d="M227.667 175.375h2.171v8.537h-2.171z" style="fill:#164789;fill-opacity:1;fill-rule:nonzero;stroke:none"/><path d="M0 0h-9.021v-1.492h7.679c.12 0 .215-.096.215-.215V-5.85h2.165v4.815C1.038-.463.574 0 0 0" style="fill:#164789;fill-opacity:1;fill-rule:nonzero;stroke:none" transform="translate(228.8 174.297)"/><path d="M0 0c0 1.104.641 1.809 1.625 1.809.987 0 1.626-.705 1.626-1.809 0-1.102-.639-1.809-1.626-1.809C.641-1.809 0-1.102 0 0m7.414-3.715c-.99-.838-2.271-1.205-4.356-1.322-.084-.006-.293-.014-.365-.02v1.846C4.301-2.852 5.452-1.68 5.452 0c0 .85-.297 1.566-.794 2.115H6.3v1.496H2.693v1.922H.56V3.611h-3.607V2.115h1.641C-1.902 1.566-2.198.85-2.198 0c0-1.668 1.13-2.836 2.721-3.203v-1.881h-3.846v-1.492H.673c1.721 0 4.596-.08 6.741 1.201v-4.76h2.169V5.33H7.414Z" style="fill:#164789;fill-opacity:1;fill-rule:nonzero;stroke:none" transform="translate(235.336 178.582)"/><path d="M0 0h6.106v-5.439h2.15V0h6.098v1.492H0Z" style="fill:#164789;fill-opacity:1;fill-rule:nonzero;stroke:none" transform="translate(202.21 173.887)"/><path d="m0 0 .435-1.367C3-1.014 4.887-.252 6.148 1.408c1.263-1.66 3.149-2.422 5.713-2.775L12.298 0C9.938.475 7.66 1.547 7.289 4.02h3.919V5.5H1.089V4.02h3.919C4.637 1.547 2.359.475 0 0" style="fill:#164789;fill-opacity:1;fill-rule:nonzero;stroke:none" transform="translate(203.24 178.123)"/><path d="M0 0h-10.827c-5.059 0-7.354-3.269-7.984-5.612L-23.1-21.614h1.668c2.31 0 4.002.705 4.392 2.011l3.561 13.296c.353 1.296 1.665 1.992 2.573 1.992 2.913 0 7.93-.004 7.93-.004 1.377 0 3.068-.222 2.306-2.764-.428-1.504-1.782-2.265-4.06-2.265h-3.549c-2.338 0-4.051-.717-4.411-2.061l-.611-2.254h7.713c4.757 0 8.943 1.004 10.488 6.747C6.203-2.056 3.906 0 0 0" style="fill:#164789;fill-opacity:1;fill-rule:nonzero;stroke:none" transform="translate(161.92 214.554)"/><path d="m0 0-.239-.889C-1.4-5.223-4.872-7.575-7.723-7.575h-1.073c-2.847 0-5.064 2.352-3.897 6.686l.238.889c1.159 4.34 4.632 6.689 7.483 6.689H-3.9C-1.053 6.689 1.163 4.34 0 0m-2.738 11.053h-1.103c-6.24 0-12.413-4.135-14.025-10.164l-.673-2.514c-1.618-6.023 2.338-10.16 8.58-10.16h1.102c6.242 0 12.412 4.137 14.028 10.16L5.844.889c1.618 6.029-2.337 10.164-8.582 10.164" style="fill:#164789;fill-opacity:1;fill-rule:nonzero;stroke:none" transform="translate(185.467 204.111)"/><path d="m0 0-.238-.889c-1.166-4.334-4.633-6.686-7.485-6.686h-1.075c-2.842 0-5.064 2.352-3.893 6.686l.235.889c1.16 4.34 4.633 6.689 7.483 6.689h1.074C-1.054 6.689 1.161 4.34 0 0m-2.737 11.053h-1.104c-6.242 0-12.413-4.135-14.027-10.164l-.673-2.514c-1.618-6.023 2.341-10.16 8.583-10.16h1.102c6.242 0 12.412 4.137 14.027 10.16L5.845.889C7.46 6.918 3.506 11.053-2.737 11.053" style="fill:#164789;fill-opacity:1;fill-rule:nonzero;stroke:none" transform="translate(256.937 204.111)"/><path d="M0 0h-5.598c-2.284 0-4.149-.776-5.195-1.667l-13.532-9.754L-21.263 0h-3.91c-2.424 0-4.199-.735-4.619-2.101l-6.335-23.636h3.898c2.467 0 4.269.758 4.648 2.17v-.013l2.51 9.367 7.824-9.786c.763-.95 1.608-1.738 4.374-1.738h5.977L-17.1-13.079Z" style="fill:#164789;fill-opacity:1;fill-rule:nonzero;stroke:none" transform="translate(117.061 218.677)"/><path d="m0 0-7.505-.006c-2.033 0-2.986.405-2.465 2.151.428 1.502 1.71 1.987 3.983 1.987h9.482c2.341 0 4.047.719 4.41 2.056l.603 2.263H-5.126c-4.752 0-8.972-1.097-10.412-6.475-1.005-3.735.824-6.313 5.059-6.297h7.5c2.091 0 2.972-.45 2.437-2.262-.431-1.508-1.784-2.262-4.062-2.262h-9.592c-2.343 0-4.049-.717-4.41-2.06l-.608-2.258h13.751c5.142 0 9.005 1.219 10.487 6.745C6.192-2.056 3.713 0 0 0" style="fill:#164789;fill-opacity:1;fill-rule:nonzero;stroke:none" transform="translate(133.32 206.102)"/><path d="M0 0c-2.699 0-3.344 1.834-3.112 2.693.4 1.5 2.346 2.495 4.562 3.524l3.436-4.643C3.804.744 1.474 0 0 0m5.153 14.963c3.462 0 2.041-2.69.672-3.459-.402-.228-1.691-.918-2.384-1.195-.516.69-.838 1.358-.976 1.628-.876 1.656.826 3.026 2.688 3.026M15.19 7.887h-2.502c-1.15 0-2.218-.531-2.641-1.311-.464-.84-1.217-1.973-1.866-2.555L5.225 7.922c6.215 2.29 6.929 6.568 4.853 8.436-1.816 1.636-5.85 1.8-8.962.035-3.833-2.172-3.009-5.31-1.537-7.654l-.599-.266C-4.305 7.028-6.332 5.501-6.996 2.73-7.707-.239-5.2-3.141-.753-3.141c3.393 0 5.463.973 7.507 2.195L8.037-2.68h5.117l-3.021 4.061c1.78 1.344 4.353 4.734 5.057 6.506" style="fill:#164789;fill-opacity:1;fill-rule:nonzero;stroke:none" transform="translate(198.84 195.572)"/><path d="M0 0c.353 1.296 1.666 1.991 2.571 1.991 2.915 0 10.307-.004 10.307-.004 1.713 0 2.891.977 3.129 1.856l.659 2.465H2.652c-5.06 0-7.353-3.27-7.984-5.612l-2.647-9.709c-.975-3.642.735-6.314 5.061-6.295H8.796c1.714 0 2.892.973 3.126 1.855l.662 2.464H-.017c-1.925.011-2.921.381-2.391 2.145 0 0 1.515 5.513 2.408 8.844" style="fill:#164789;fill-opacity:1;fill-rule:nonzero;stroke:none" transform="translate(223.512 208.247)"/><path d="M0 0c-.447.258-.648.263-1.014-.133-1.458-1.572-4.056-4.533-5.371-6.023 1.767-2.551 3.1-6.657 2.334-11.914-.106-.358.113-.6.435-.278l-.005-.004c3.316 3.358 7.02 7.047 10.344 9.557C5.398-4.769 2.482-1.416 0 0" style="fill:#f68712;fill-opacity:1;fill-rule:nonzero;stroke:none" transform="translate(274.314 223.07)"/><path d="M0 0c-.179-.102-.179-.363.003-.361 4.71.108 7.851-.965 10.461-2.868 2.977 2.432 8.008 6.245 10.456 7.504.969.228 2.696.432 3.864.473-1.021-1.092-2.456-2.685-3.273-3.583-.209-.232.003-.435.244-.34 6.684 2.624 15.565 4.642 22.803 5.162C28.039 9.438 12.048 6.775 0 0" style="fill:#164789;fill-opacity:1;fill-rule:nonzero;stroke:none" transform="translate(253.744 223.938)"/><path d="M0 0c-6.435-.772-15.046-3.604-19.436-5.881-.614-.318-.495-.543-.032-.75 1.427-.64 3.973-2.217 5.41-4.44 9.446 5.638 17.485 8.43 20.211 9.352A78.535 78.535 0 0 1 0 0" style="fill:#1da7e7;fill-opacity:1;fill-rule:nonzero;stroke:none" transform="translate(300.71 229.361)"/><path d="M180.458 145.564h2.218v15.494h-2.218z" style="fill:#164789;fill-opacity:1;fill-rule:nonzero;stroke:none"/><path d="M0 0h-1.791c.207.771.335 1.598.335 2.49v.565a1.05 1.05 0 0 1-1.058.929h-5.771V2.49h4.297a.218.218 0 0 0 .22-.207c-.021-.65-.07-1.429-.3-2.283h-4.407v-1.498h3.867c-.703-1.539-1.875-3.389-3.999-4.635l1.09-1.074c1.187.646 3.775 2.561 5.194 5.709H0v-9.779h2.135V4.217H0Z" style="fill:#164789;fill-opacity:1;fill-rule:nonzero;stroke:none" transform="translate(177.331 156.842)"/><path d="M0 0c-1.298 0-2.144 1.164-2.144 2.986 0 1.825.846 2.985 2.144 2.985 1.3 0 2.146-1.16 2.146-2.985C2.146 1.164 1.3 0 0 0m0 7.518c-2.698 0-4.506-1.764-4.506-4.532C-4.506.219-2.698-1.549 0-1.549c2.698 0 4.51 1.768 4.51 4.535 0 2.768-1.812 4.532-4.51 4.532" style="fill:#164789;fill-opacity:1;fill-rule:nonzero;stroke:none" transform="translate(188.916 153.25)"/><path d="M195.166 145.525h2.369v15.533h-2.369zM198.949 148.531h14.533v1.494h-14.533z" style="fill:#164789;fill-opacity:1;fill-rule:nonzero;stroke:none"/><path d="M0 0c1.516-2.453 3.884-3.146 5.656-3.744l.681 1.467C1.571-.797 1.28 2.848 1.28 3.756v.457h-2.56v-.457c0-.908-.29-4.553-5.058-6.033l.683-1.467C-3.885-3.146-1.518-2.453 0 0" style="fill:#164789;fill-opacity:1;fill-rule:nonzero;stroke:none" transform="translate(206.216 156.537)"/><path d="M0 0v3.527h-2.368V0h-5.153v-1.494H7.013V0Z" style="fill:#164789;fill-opacity:1;fill-rule:nonzero;stroke:none" transform="translate(252.13 150.025)"/><path d="M0 0h2.301c.645 2.018.896 4.598.896 6.506v1.24c0 .576-.479 1.041-1.069 1.041H-7.47V7.289H.607a.222.222 0 0 0 .224-.215V5.982c0-.371-.019-.789-.048-1.232h-8.338V3.254H.638C.502 2.168.293 1.021 0 0" style="fill:#164789;fill-opacity:1;fill-rule:nonzero;stroke:none" transform="translate(254.127 151.947)"/><path d="M0 0v.559h2.901V0c0-1.195-.019-2.963-.247-4.439H.243C.015-2.963 0-1.195 0 0m2.567-5.936h4.25v1.497H4.961c.308 1.617.308 3.429.308 4.847v.151h1.694v1.498H-4.2V.559h1.833V.408c0-1.418-.003-3.23.304-4.847h-1.992v-1.497H.198v-2.716h-6.085v-1.494H8.649v1.494H2.567Z" style="fill:#164789;fill-opacity:1;fill-rule:nonzero;stroke:none" transform="translate(220.198 158.678)"/><path d="M0 0h.805v-4.689h1.886v9.777H.805V1.496H0v3.592h-1.889v-9.777H0Z" style="fill:#164789;fill-opacity:1;fill-rule:nonzero;stroke:none" transform="translate(240.167 155.97)"/><path d="M0 0c0 1.514.706 2.48 1.791 2.48S3.58 1.514 3.58 0c0-1.51-.704-2.475-1.789-2.475S0-1.51 0 0m5.773 0c0 2.412-1.601 3.953-3.982 3.953-2.385 0-3.983-1.541-3.983-3.953s1.598-3.951 3.983-3.951c2.381 0 3.982 1.539 3.982 3.951" style="fill:#164789;fill-opacity:1;fill-rule:nonzero;stroke:none" transform="translate(231.654 156.815)"/><path d="M0 0v3.58h-2.272V-.652c0-.557.467-1.01 1.039-1.01h8.808v1.455H.216A.211.211 0 0 0 0 0" style="fill:#164789;fill-opacity:1;fill-rule:nonzero;stroke:none" transform="translate(235.343 147.402)"/><path d="M0 0c-8.001-.906-18.716-4.527-24.149-7.245-.756-.452-.604-.755 0-1.056 1.81-.755 4.98-2.717 6.64-5.433C-5.736-6.792 4.377-3.321 7.697-2.113 5.131-1.358 2.564-.604 0 0" style="fill:#1da7e7;fill-opacity:1;fill-rule:nonzero;stroke:none" transform="translate(517.494 512.005)"/><path d="M0 0c-.15 0-.15-.454 0-.454 5.887.152 9.812-1.206 12.98-3.47 3.775 3.018 9.963 7.697 13.132 9.357 1.207.302 3.32.453 4.83.604-1.358-1.358-3.17-3.472-4.076-4.528-.302-.302 0-.604.302-.453 8.301 3.321 19.32 5.736 28.376 6.49C34.865 11.772 15.094 8.452 0 0" style="fill:#164789;fill-opacity:1;fill-rule:nonzero;stroke:none" transform="translate(459.082 505.213)"/><path d="M0 0c-.604.301-.906.301-1.358-.151C-3.17-2.113-6.339-5.736-8-7.547c2.264-3.32 3.924-8.301 2.868-14.942 0-.453.152-.755.604-.302 4.075 4.226 8.754 8.754 12.829 11.924C6.642-5.886 3.019-1.661 0 0" style="fill:#f68712;fill-opacity:1;fill-rule:nonzero;stroke:none" transform="translate(484.741 504.157)"/><path d="M0 0c-.452-.302-.905-.905-1.056-1.509l-.755-2.718H0Zm0 27.771v-1.357l-19.471-14.943 12.83-15.698h-7.547c-3.471 0-4.376.906-5.433 2.115l-9.659 12.225c-1.057-4.076-2.264-7.999-3.171-11.622-.452-1.812-2.716-2.718-5.735-2.718h-4.83l7.849 29.433c.452 1.66 2.716 2.565 5.735 2.565h4.83c-1.056-4.226-2.414-9.207-3.773-14.187l16.753 12.075c1.359 1.207 3.623 2.112 6.491 2.112zm0-1.357v1.357h1.812ZM30.791 2.716l-1.812-6.943h1.812zm0 19.925v-4.378c-.905-.603-2.566-1.057-4.377-1.057H14.64c-2.867 0-4.376-.604-4.98-2.414-.603-2.114.604-2.717 3.17-2.717h9.207c4.678 0 7.697-2.566 6.339-8-1.811-6.792-6.641-8.302-13.132-8.302H0V0c1.056.754 2.566 1.056 4.377 1.056h11.924c2.867 0 4.528 1.058 5.132 2.868.604 2.264-.453 2.868-3.019 2.868H9.057c-5.283 0-7.547 3.169-6.34 7.848 1.811 6.641 7.094 8.001 12.981 8.001zm0-4.378c.603.453 1.056.905 1.207 1.509l.754 2.869h-1.961ZM63.845 7.396c-.452-2.113-.452-4.076 0-5.736zm0 12.074v-5.433C61.883 6.943 56.6 5.584 50.713 5.584h-9.508l.754 2.869c.453 1.66 2.567 2.565 5.434 2.565h4.378c2.867 0 4.527.905 5.131 2.868.906 3.17-1.208 3.32-2.868 3.32h-9.962c-1.056 0-2.716-.754-3.169-2.414-1.056-4.075-3.32-12.377-4.377-16.604-.453-1.509-2.566-2.415-5.434-2.415h-.301v6.943l3.471 12.981c.755 2.867 3.623 6.944 9.962 6.944h13.432c3.02 0 5.283-1.058 6.189-3.171m0-5.282c.604 2.264.453 3.924 0 5.282zm15.244 8.905V17.81c-3.169-.754-6.339-3.622-7.547-8.151l-.302-1.056C69.731 3.17 72.448.302 76.07.302h1.359c.453 0 1.056 0 1.66.151v-5.132c-1.056-.302-2.112-.302-3.169-.302h-1.359c-5.434 0-9.508 2.566-10.716 6.641v6.037l.905 3.02c1.812 6.489 7.698 11.32 14.339 12.376m0-27.772C85.73-3.622 91.617 1.208 93.427 7.697l.906 3.02c1.962 7.546-3.019 12.678-10.716 12.678h-1.358c-1.056 0-2.113-.152-3.17-.302V17.81c.604.15 1.208.15 1.661.15h1.357c3.623 0 6.34-2.866 4.831-8.301l-.302-1.056c-1.208-4.528-4.377-7.395-7.547-8.15Zm30.489 25.659v-3.32c-2.113-.302-3.925-1.812-2.868-3.774.151-.302.603-1.208 1.207-1.963.454.152 1.057.454 1.661.755V1.208l-4.076 5.584c-2.868-1.358-5.282-2.566-5.734-4.377-.303-1.057.452-3.32 3.924-3.32 1.66 0 4.527.754 5.886 1.811v-4.378c-1.811-.905-3.925-1.357-6.944-1.357-5.433 0-8.603 3.622-7.697 7.244.754 3.471 3.321 5.434 7.396 7.094l.755.452c-1.812 2.869-2.868 6.793 1.962 9.509 1.358.755 3.019 1.208 4.528 1.51m0-24.452V.906s.151 0 .151.15l-.151.152v11.47c.603.302 1.056.453 1.358.604 1.66 1.057 3.472 4.378-.905 4.378h-.453v3.32c2.566.301 5.131-.302 6.64-1.66 2.566-2.264 1.66-7.547-6.037-10.415l3.623-4.83c.755.755 1.812 2.113 2.263 3.17.605.906 1.963 1.66 3.322 1.66h3.17c-.907-2.264-4.077-6.49-6.341-8.151l3.774-5.131h-6.339l-1.66 2.265c-.755-.454-1.51-.907-2.415-1.36m44.072 14.49V-.453c-1.358 2.113-1.811 4.829-.905 8.15l.754 3.02c0 .15 0 .15.151.301m-19.47 3.774c.453 1.66 2.113 2.414 3.169 2.414h12.83c1.509 0 2.717.754 3.471 1.51v3.925H137.5c-6.187 0-9.057-4.077-9.811-6.944l-3.32-12.074c-1.208-4.528.906-7.85 6.339-7.85h14.338c2.265 0 3.623 1.208 3.925 2.265l.906 3.018H134.18c-2.264.152-3.472.604-2.867 2.718 0 0 1.961 6.943 2.867 11.018m33.658 8.301V17.81c-3.02-.754-6.339-3.622-7.546-8.151l-.303-1.056c-1.51-5.433 1.36-8.301 4.829-8.301h1.359c.604 0 1.056 0 1.661.151v-5.132c-1.057-.302-2.112-.302-3.02-.302h-1.508c-4.377 0-7.848 1.66-9.66 4.528v11.471c1.812 6.34 7.699 11.019 14.188 12.075m-14.188-4.377c.151.302.301.604.453.905l.754 3.02h-1.207zm14.188-23.395V.453c3.17.755 6.34 3.622 7.698 8.15l.302 1.056c1.358 5.435-1.359 8.301-4.983 8.301h-1.206c-.603 0-1.208 0-1.811-.15v5.283c1.056.15 2.113.302 3.17.302h1.358c7.697 0 12.678-5.132 10.715-12.678l-.904-3.02c-1.66-6.489-7.698-11.319-14.339-12.376" style="fill:#164789;fill-opacity:1;fill-rule:nonzero;stroke:none" transform="translate(287.32 470.951)"/><path d="M0 0v-10.415h-.302c-1.056 0-1.962.905-1.962 2.114V0Zm0 20.678v-7.094c-2.113 0-3.472-1.51-3.472-4.076 0-2.565 1.359-4.225 3.472-4.225V2.264c-4.377 0-7.697 2.867-7.697 7.244 0 1.812.603 3.472 1.66 4.68h-3.17v2.867h7.094v3.623zM0 2.264v3.019c2.113 0 3.471 1.66 3.471 4.225 0 2.566-1.358 4.076-3.471 4.076v7.094h2.113v-3.623h7.094v-2.867h-3.17c1.056-1.208 1.66-2.868 1.66-4.68 0-4.377-3.32-7.244-7.697-7.244m14.942-9.66H2.415c-.302 0-.453.151-.453.453V0H0v-10.415h14.942zm0 6.188h-2.415v20.829h2.415zm31.243 17.509v1.207c0 1.207-.905 2.113-2.113 2.113H25.96v-2.868h15.546c.152 0 .454-.302.454-.452v-1.057c0-3.924-1.208-6.793-1.208-6.793H21.885V5.434H33.96V.604h-7.848v-2.868h15.244c.302 0 .452-.152.452-.453v-8.303h4.377v9.662c0 1.055-.905 1.962-2.113 1.962h-5.886v4.83h12.226v3.017h-5.434s1.207 3.32 1.207 7.85M14.942-1.208v20.829h1.962v-7.245h4.227V9.357h-4.227V-1.208Zm0-6.188h2.415v-3.019h-2.415ZM65.505 9.357h-1.358V6.49h1.358zm0 7.246v-3.019h-4.377v-1.358c0-5.283 1.509-8.603 4.377-11.622v-2.417l-.906-.904c-2.112 1.509-4.829 4.226-5.584 7.094-.906-2.868-3.472-5.585-5.585-7.094L51.015-.756c3.623 3.32 5.887 6.793 5.887 12.982v1.358H51.77v3.019h5.132v3.47h4.226v-3.47zm0 0h.604v-3.019h-.604zm0-10.113h3.169v-17.357h4.076v30.488h-4.076V9.357h-3.169zm0-8.303V.604l1.358-1.36zm30.639 7.7v-3.02h-2.867v-3.17h2.867V-3.32H85.428v3.017h3.623v3.17h-7.245v3.02zm0 15.244v-3.17c-2.565 0-4.226-1.358-4.226-3.773 0-2.264 1.661-3.774 4.226-3.774V7.396c-5.283 0-8.603 2.715-8.603 6.792 0 4.225 3.32 6.943 8.603 6.943M74.41-10.867h4.075v30.488H74.41Zm53.43 14.036 1.66 2.718c-6.489 2.717-6.942 9.357-7.093 11.924v1.507h-4.226v-1.507c-.151-2.567-.604-9.057-7.095-11.924l1.662-2.718s4.98 1.811 7.545 6.339c2.416-4.528 7.547-6.339 7.547-6.339M96.144 7.396v3.018c2.416 0 4.076 1.51 4.076 3.774 0 2.415-1.66 3.773-4.076 3.773v3.17c5.132 0 8.453-2.718 8.453-6.943 0-4.077-3.321-6.792-8.453-6.792m0-10.716v3.017h2.717v3.17h-2.717v3.02h14.188v-3.02h-7.245v-3.17h1.057c1.057 0 1.961-.905 1.961-2.113v-8.754h-4.225v7.547c0 .15-.151.303-.453.303zm39.243-4.076h-12.226c-.302 0-.452.151-.452.453V.453h-4.378v-8.754c0-1.209 1.058-2.114 2.114-2.114h14.942zm0 6.188h-2.566v20.829h2.566zm0 0v20.829h1.66v-7.245h4.377V9.357h-4.377V-1.208Zm0-6.188h2.566v-3.019h-2.566zm15.999 9.66v-12.679c-1.057.151-1.962.905-1.962 2.114V2.264Zm0 17.357v-3.32c-2.265 0-3.623-1.811-3.623-4.53 0-2.715 1.358-4.375 3.623-4.375V4.074c-4.83 0-8.15 3.02-8.15 7.697 0 4.832 3.32 7.85 8.15 7.85m7.698-20.829v-2.868h-5.282v-2.867c0-.302.15-.453.452-.453h4.83v-3.019H151.386V2.264h2.416v-3.472zm0 16.301V8.754c-1.208-3.02-3.925-4.68-7.698-4.68v3.322c2.263 0 3.773 1.66 3.773 4.375 0 2.719-1.51 4.53-3.773 4.53v3.32c3.773 0 6.49-1.66 7.698-4.528m23.998 3.774h-10.565v-3.019h7.848c.151 0 .302-.151.302-.453 0-4.227-1.812-11.471-8.755-16.452l2.114-2.113c8.603 5.283 11.168 14.188 11.168 19.018v1.207c-.15.906-1.056 1.812-2.112 1.812m10.716-7.849h-2.415v8.603h-3.925v-30.488h3.925V8h2.415v-18.867h3.924v30.488h-3.924zm-34.714-2.264v6.339c.15-.603.301-1.057.452-1.66h4.829v6.188h4.378V3.471h-4.378v6.943h-4.829c0-.603-.302-1.207-.452-1.66m0-19.169v3.019h4.829c.303 0 .452.151.452.453v2.867h-5.281v2.868h5.281v3.472h4.378V-8.301c0-1.209-.906-2.114-2.113-2.114zm50.714 7.849v-7.849h-1.209c-1.056 0-1.962.905-1.962 2.114v3.773c0 1.055.906 1.962 1.962 1.962zm0 2.415h-3.171v2.716h3.171zm0 15.093v-3.018h-3.171V8.301c0-.151.151-.453.454-.453h2.717V4.98h-5.435c-1.056 0-1.962.907-1.962 1.963v12.075h4.226v-4.076zm22.639-6.641.906-2.717c4.98.604 8.753 2.113 11.169 5.434 2.565-3.321 6.339-4.83 11.32-5.434l.905 2.717c-4.679.906-9.207 3.019-9.961 7.849h7.848v3.018H234.55V16.15h7.698c-.603-4.83-5.133-6.943-9.811-7.849m-2.113-8.452h12.074v-10.716h4.226V-.151h12.075v3.018h-28.375zm52.675.905h-17.96v-3.018h15.244c.302 0 .452-.152.452-.453v-8.15h4.227v9.509c0 1.207-.906 2.112-1.963 2.112m-2.264 2.113h4.227v16.754h-4.227zm-12.376 6.641c2.415-4.528 7.546-6.339 7.546-6.339l1.66 2.718c-6.489 2.717-7.093 9.357-7.093 11.924v1.507h-4.377v-1.507c0-2.567-.452-9.057-6.943-11.924l1.509-2.718s5.133 1.811 7.698 6.339m-42.866 10.113h-4.225V4.225h4.225v6.793h4.377v2.868h-4.377zM209.798 4.98v2.868h2.716c.301 0 .452.302.452.453v3.623h-3.168v3.018h3.168v4.076h4.379V6.943c0-1.056-.907-1.963-2.115-1.963zm0-15.395v7.849h11.017c.302 0 .453.302.453.453v1.509c0 .151-.151.453-.453.453h-11.017v2.715h13.734c1.056 0 1.961-.904 1.961-1.96V-3.32c0-1.057-.905-1.963-1.961-1.963h-12.226c-.151 0-.452-.301-.452-.453v-1.358c0-.302.301-.453.452-.453h14.49v-2.868zm89.2 30.488v-7.395c-1.81 0-3.169-1.358-3.169-3.471 0-2.264 1.359-3.623 3.169-3.623v-9.357h-9.659v2.867h7.547v3.773c-3.17.756-5.435 3.02-5.435 6.34 0 1.66.605 3.019 1.66 4.074h-3.32v3.02h7.095v3.772zm43.922-9.357v8.905h-4.226v-30.488h4.226V7.697h4.377v3.019zm-13.584 4.226v4.376h-4.376v-4.376c0-3.321-1.057-11.169-7.699-15.245l1.963-2.263c1.056.453 6.038 3.623 7.848 8.15 1.962-4.527 6.792-7.697 7.849-8.15l1.962 2.263c-6.641 4.076-7.547 11.924-7.547 15.245M298.998-3.773v9.357c1.962 0 3.321 1.359 3.321 3.623 0 2.113-1.359 3.471-3.321 3.471v7.395h2.113v-3.772h7.246v-3.02h-3.321c1.057-1.055 1.509-2.414 1.509-4.074 0-3.32-2.264-5.736-5.434-6.34V-.906c.151.15.604.15.755.15 4.074.152 6.642.906 8.604 2.567v17.81h4.376v-30.488h-4.376v9.357c-3.473-2.113-8-2.263-11.472-2.263" style="fill:#164789;fill-opacity:1;fill-rule:nonzero;stroke:none" transform="translate(252.455 434.728)"/><path d="M508.891 465.97h2.414v16.15h-2.414zm9.659 15.698v-1.51c-.452 0-1.056-.302-1.359-.754-.453-.604-.603-1.359-.603-2.264 0-.906.15-1.51.603-2.114.303-.603.907-.905 1.359-.905v-1.51a4.688 4.688 0 0 0-3.321 1.359c-.906.905-1.358 1.962-1.358 3.17 0 1.358.452 2.414 1.358 3.32a5.282 5.282 0 0 0 3.321 1.208m-10.866.452h-2.416v-4.98h-1.66c.15.452.15.905.302 1.358v3.17h-6.641v-1.51h4.075v-.604c0-.302 0-.604-.152-.906v-1.056h-3.923v-1.509h3.623c-.303-1.057-.907-1.962-1.661-2.566-.755-.604-1.661-1.056-2.868-1.358l1.359-.906c1.207.151 2.414.604 3.32 1.358.906.755 1.66 1.812 2.112 3.019h2.114v-9.66h2.416zm37.582-12.225h-14.641v-1.51h14.641zm-8.755 12.225v-2.264c0-1.509-.604-2.868-1.811-3.924-1.359-1.057-2.566-1.509-3.924-1.661l1.207-1.056c1.057 0 2.264.302 3.621.906 1.209.604 1.963 1.358 2.265 2.264.302-.906 1.208-1.66 2.416-2.264 1.206-.604 2.415-.906 3.621-.906l1.058 1.056c-1.208.152-2.567.604-3.774 1.661-1.359 1.056-1.962 2.415-1.962 3.924v2.264zm-8.753 0h-2.718v-16.15h2.718zm-9.208-9.509v1.51c.604 0 1.056.302 1.509.905.454.604.604 1.359.604 2.114 0 .905-.15 1.66-.604 2.264-.453.452-.905.754-1.509.754v1.51c1.358 0 2.415-.454 3.321-1.208.906-.906 1.358-1.962 1.358-3.32 0-1.208-.452-2.265-1.358-3.17-.906-.905-1.963-1.359-3.321-1.359m36.224 9.358v-1.509h-1.359v-5.886h1.359v-6.189h-7.245v1.51h5.886v3.17h-4.678v1.509h2.113v5.886h-1.962v1.509zm0-13.584v6.189h1.358v5.886h-1.358v1.509h5.886v-1.509h-1.962v-5.886h2.115v-1.509h-4.681v-3.17h5.887v-1.51zm12.98 3.019v-5.282c-.15.15-.302.15-.453.302-.301.301-.451.755-.451 1.206v3.774zm0 10.264v-1.51c-.453 0-.754-.302-1.207-.754a4.18 4.18 0 0 1-.453-1.963c0-.604.151-1.358.453-1.811.453-.453.754-.755 1.207-.755v-1.509c-1.207 0-2.112.453-2.867 1.208-.907.754-1.208 1.811-1.208 2.867 0 1.207.301 2.113 1.208 3.019.755.754 1.66 1.208 2.867 1.208m0-8.302v1.509c.453 0 .755.302 1.208.755.302.453.452 1.207.452 1.811a4.18 4.18 0 0 1-.452 1.963c-.453.452-.755.754-1.208.754v1.51c1.208 0 2.113-.454 2.868-1.208.906-.906 1.207-1.812 1.207-3.019 0-1.056-.301-2.113-1.207-2.867-.755-.755-1.66-1.208-2.868-1.208m7.698-5.887h-6.038v3.925h-1.66v-5.282c.302-.152.604-.152.905-.152h6.793zm0 11.019v-1.51h-.453v-6.792h-2.565v11.924h2.565v-3.622zm0-1.51v1.51h.604v3.622h2.415v-11.924h-2.415v6.792zm0-9.509h3.471v-1.51h-3.471zm12.678 6.642v-5.736h-6.942v1.51h4.375v4.226zm0 1.509h-5.734v1.51h5.734zm0 4.83h-5.734v1.509h5.734zm0-4.83h3.17v-2.867c-.151-.756-.302-1.359-.604-1.963h2.264c.303.453.603 1.207.755 1.963.15.904.302 1.811.302 2.867v6.339h-5.887v-1.509h3.17v-3.32h-3.17zm0-7.245v5.736-4.226h7.395v-1.51z" style="fill:#164789;fill-opacity:1;fill-rule:nonzero;stroke:none"/><path d="M0 0h-3.16v-1.296h1.64V-4h-.6v2.16h-3.16v.544h1.52V0h-3.016v.536h4.328a8.087 8.087 0 0 1 .184 1.184c.021.202.037.393.048.572.011.179.016.327.016.444h-3.152v.552h3.784c0-.47-.025-.95-.076-1.44A14.996 14.996 0 0 0-1.832.536H0Z" style="fill:#505256;fill-opacity:1;fill-rule:nonzero;stroke:none" transform="translate(88.984 328.38)"/><path d="M93.6 331.124h-2.44v-1.464h2.44zm.84-6.536h-3.856v2.288h.592v-1.744h3.264zm-.248 4.52H90.56v2.568h3.632zm1.592-1.392h-2.928v-1.544h-.6v1.544h-3.24v.528h6.768z" style="fill:#505256;fill-opacity:1;fill-rule:nonzero;stroke:none"/><path d="M0 0h-1.296v-2.088h-.6v4.392h.6V.552H0Zm-1.976-3.76c0 .32-.108.567-.324.74-.216.173-.492.26-.828.26-.336 0-.609-.095-.82-.284a.912.912 0 0 1-.316-.708c0-.315.109-.561.328-.74.219-.179.488-.268.808-.268.32 0 .592.093.816.28a.896.896 0 0 1 .336.72m.616 0c0-.23-.048-.439-.144-.628a1.602 1.602 0 0 0-.384-.492 1.755 1.755 0 0 0-.56-.312 2.008 2.008 0 0 0-.672-.112c-.251 0-.484.037-.7.112a1.68 1.68 0 0 0-.564.32c-.16.139-.285.303-.376.492a1.411 1.411 0 0 0-.136.62c0 .213.047.413.14.6.093.186.223.349.388.488.16.138.347.248.56.328a2.06 2.06 0 0 0 1.36.008c.214-.075.4-.182.56-.32.16-.134.288-.295.384-.484.096-.19.144-.396.144-.62m-1.704 2.568-.4-.4-1.544 1.528a3.12 3.12 0 0 0-.368-.588 4.037 4.037 0 0 0-.416-.452 2.606 2.606 0 0 0-.408-.328 3.671 3.671 0 0 0-.344-.2l-.392.432c.171.069.355.18.552.332.197.152.379.34.544.564.165.224.304.482.416.776.112.293.168.624.168.992v.528h.608v-.528a4.802 4.802 0 0 0-.04-.5A3.524 3.524 0 0 0-4.776.52Z" style="fill:#505256;fill-opacity:1;fill-rule:nonzero;stroke:none" transform="translate(104.888 329.644)"/><path d="M0 0h-1.352v-3.776h-.6v7.208h.6V.544H0Zm-3.632 2.088a13.02 13.02 0 0 0-.892-.032 11.3 11.3 0 0 0-.764.024c-.187.011-.357.04-.512.088-.155.048-.29.112-.408.192l.184.456a2.425 2.425 0 0 1 .792-.192 11.084 11.084 0 0 1 1.6.008zM-2.704.76h-1.688c-.32 0-.58-.05-.78-.148a1.324 1.324 0 0 1-.484-.396 1.085 1.085 0 0 1-.148-.308 1.246 1.246 0 0 1-.052-.356c.005-.117.031-.235.076-.352a.822.822 0 0 1 .22-.312 1.042 1.042 0 0 1 .792-.28 1.074 1.074 0 0 1 .76.36c.075.08.128.177.16.292a.955.955 0 0 1 .032.348.865.865 0 0 1-.096.328.64.64 0 0 1-.232.248l.408.384c.128-.096.236-.216.324-.36.088-.144.145-.301.172-.472a1.41 1.41 0 0 0-.272-1.064 1.366 1.366 0 0 0-.444-.388 1.72 1.72 0 0 0-.604-.204 1.909 1.909 0 0 0-.672.024 1.536 1.536 0 0 0-.64.304c-.187.138-.325.3-.416.484A1.564 1.564 0 0 0-6.4 0a1.2 1.2 0 0 0 .232.456.95.95 0 0 0 .12.136c.064.064.144.12.24.168h-1.216v.528h4.32z" style="fill:#505256;fill-opacity:1;fill-rule:nonzero;stroke:none" transform="translate(111.752 328.548)"/><path d="M0 0c-.123.075-.234.141-.336.2a13.77 13.77 0 0 1-.336.216l-.384.24a46.202 46.202 0 0 1-.728.456l-.328.208a7.783 7.783 0 0 0-1.136-.8A5.21 5.21 0 0 0-4.456 0l-.376.48c.374.096.74.243 1.1.44.36.197.692.416.996.656.304.24.569.488.796.744.227.256.396.496.508.72h-2.832v.52h3.768C-.549 3.293-.68 3-.888 2.68a5.812 5.812 0 0 0-.776-.944c.118-.075.224-.141.32-.2.096-.058.205-.127.328-.204l.376-.236.376-.236.328-.204a6.88 6.88 0 0 1 .32-.2Zm1.184-1.888h-6.768v.552h3.04V.288h.616v-1.624h3.112z" style="fill:#505256;fill-opacity:1;fill-rule:nonzero;stroke:none" transform="translate(117.24 327.572)"/><path d="M0 0h-1.288v-1.84h-.584v4.288h.584V.56H0Zm-2.064-3.64h-2.392v-.848h2.392zm.616-1.4h-3.616v2.816h.608v-.872h2.392v.872h.616zm-2.256 6.648A10.42 10.42 0 0 0-5.248 1.6c-.187.01-.357.04-.512.088a1.508 1.508 0 0 0-.408.192l.184.456a2.445 2.445 0 0 1 .792-.192 10.223 10.223 0 0 1 1.488.008zm.896-.992H-4.48c-.304 0-.535-.039-.692-.116a1.16 1.16 0 0 1-.404-.332.722.722 0 0 1-.128-.264 1.055 1.055 0 0 1-.032-.312.99.99 0 0 1 .088-.316.697.697 0 0 1 .224-.268.93.93 0 0 1 .656-.204.974.974 0 0 1 .608.268.656.656 0 0 1 .144.224c.037.09.056.184.056.28a.74.74 0 0 1-.072.28.58.58 0 0 1-.208.232l.432.36a.946.946 0 0 0 .28-.296c.075-.123.123-.261.144-.416.021-.15.013-.307-.024-.472a1.233 1.233 0 0 0-.224-.472 1.094 1.094 0 0 0-.412-.336 1.65 1.65 0 0 0-.556-.16 1.812 1.812 0 0 0-.6.02c-.203.04-.384.119-.544.236A1.296 1.296 0 0 0-6.312-.08c.037.16.099.304.184.432.022.032.059.074.112.128a.784.784 0 0 0 .184.136h-1.104v.536h4.128z" style="fill:#505256;fill-opacity:1;fill-rule:nonzero;stroke:none" transform="translate(125.265 329.54)"/><path d="M0 0h-3.16v-1.296h1.639V-4h-.6v2.16H-5.28v.544h1.52V0h-3.016v.536h4.328c.042.176.08.367.112.572.031.205.056.409.072.612A12.083 12.083 0 0 1-2.2 2.736h-3.153v.552h3.785c0-.47-.026-.95-.077-1.44-.05-.491-.113-.928-.187-1.312H0Z" style="fill:#505256;fill-opacity:1;fill-rule:nonzero;stroke:none" transform="translate(436.836 328.38)"/><path d="M441.451 331.124h-2.439v-1.464h2.439zm.841-6.536h-3.856v2.288h.591v-1.744h3.265zm-.248 4.52h-3.632v2.568h3.632zm1.592-1.392h-2.928v-1.544h-.601v1.544h-3.24v.528h6.769z" style="fill:#505256;fill-opacity:1;fill-rule:nonzero;stroke:none"/><path d="M0 0h-1.353v-3.904h-.591v7.208h.591V.552H0Zm-2.889-.208-.4-.432L-4.736.416a4.956 4.956 0 0 0-.901-.648 6.433 6.433 0 0 0-.939-.44l-.401.464c.284.08.565.196.844.348a5 5 0 0 1 .773.516c.234.192.438.393.612.604.173.211.294.412.363.604h-2.176v.544h2.953a2.67 2.67 0 0 0-.245-.844A3.579 3.579 0 0 0-4.32.84Zm.641-1.648c-.203-.038-.39-.071-.561-.1-.17-.029-.363-.058-.576-.084a13.313 13.313 0 0 0-.763-.052c-.296-.013-.674-.02-1.132-.02h-1.985v.544h1.993v1.264h.6v-1.264c.416-.006.834.016 1.256.064.421.048.811.109 1.168.184z" style="fill:#505256;fill-opacity:1;fill-rule:nonzero;stroke:none" transform="translate(453.004 328.668)"/><path d="M0 0a.906.906 0 0 1-.108.444c-.072.13-.169.241-.291.332a1.461 1.461 0 0 1-.873.288 1.429 1.429 0 0 1-.864-.296.978.978 0 0 1-.275-.332.912.912 0 0 1-.101-.428c0-.331.118-.588.357-.772.236-.184.531-.276.883-.276s.652.093.9.28A.9.9 0 0 1 0 0m.624 0a1.415 1.415 0 0 0-.552-1.144 1.88 1.88 0 0 0-.608-.316 2.444 2.444 0 0 0-.736-.108c-.261 0-.505.034-.732.104a1.736 1.736 0 0 0-.588.304 1.34 1.34 0 0 0-.395.492 1.498 1.498 0 0 0-.141.66c0 .224.049.433.149.628.097.194.232.364.404.508.164.144.361.257.588.34.226.082.465.124.715.124.256 0 .5-.039.728-.116a1.9 1.9 0 0 0 .6-.324c.172-.139.308-.305.412-.5C.572.457.624.24.624 0m1.6-2.856H-.848V-5.52h-.616v2.664h-3.08v.552h6.768z" style="fill:#505256;fill-opacity:1;fill-rule:nonzero;stroke:none" transform="translate(457.411 330.124)"/><path d="M0 0a14.45 14.45 0 0 1-.336.2 13.77 13.77 0 0 1-.336.216l-.384.24c-.132.085-.263.168-.392.248-.127.08-.24.149-.336.208l-.328.208a7.783 7.783 0 0 0-1.136-.8A5.21 5.21 0 0 0-4.456 0l-.376.48c.374.096.74.243 1.101.44.359.197.691.416.996.656.303.24.568.488.795.744.226.256.396.496.508.72h-2.832v.52h3.769C-.55 3.293-.68 3-.888 2.68a5.856 5.856 0 0 0-.775-.944c.117-.075.223-.141.319-.2.096-.058.205-.127.328-.204l.376-.236.376-.236.327-.204a7.52 7.52 0 0 1 .321-.2Zm1.185-1.888h-6.769v.552h3.04V.288h.616v-1.624h3.113z" style="fill:#505256;fill-opacity:1;fill-rule:nonzero;stroke:none" transform="translate(465.251 327.572)"/><path d="M0 0h-1.288v-1.84h-.584v4.288h.584V.56H0Zm-2.064-3.64h-2.392v-.848h2.392zm.617-1.4h-3.617v2.816h.608v-.872h2.392v.872h.617zm-2.257 6.648A10.398 10.398 0 0 0-5.248 1.6c-.187.01-.357.04-.512.088a1.523 1.523 0 0 0-.408.192l.184.456a2.326 2.326 0 0 1 .793-.192 10.194 10.194 0 0 1 1.487.008zm.895-.992H-4.48c-.303 0-.535-.039-.692-.116a1.16 1.16 0 0 1-.404-.332.707.707 0 0 1-.128-.264 1.055 1.055 0 0 1-.032-.312c.011-.107.041-.212.088-.316a.697.697 0 0 1 .224-.268.93.93 0 0 1 .656-.204.972.972 0 0 1 .608.268.733.733 0 0 1 .2.504.757.757 0 0 1-.071.28.59.59 0 0 1-.209.232l.431.36a.94.94 0 0 0 .282-.296c.074-.123.122-.261.143-.416.021-.15.013-.307-.024-.472a1.233 1.233 0 0 0-.224-.472 1.094 1.094 0 0 0-.412-.336 1.644 1.644 0 0 0-.556-.16 1.805 1.805 0 0 0-.599.02c-.203.04-.385.119-.545.236A1.296 1.296 0 0 0-6.313-.08c.038.16.1.304.185.432.022.032.059.074.112.128a.784.784 0 0 0 .184.136h-1.104v.536h4.127z" style="fill:#505256;fill-opacity:1;fill-rule:nonzero;stroke:none" transform="translate(473.275 329.54)"/></g></svg>