<svg xmlns="http://www.w3.org/2000/svg" xml:space="preserve" width="701.39087" height="200" viewBox="0 0 701.39086 200"><path d="M0 0c4.784 1.046 10.352 4.205 15.417 11.975 0 0-7.545-3.77-17.213-2.239.003-.041.003-.08.005-.119C-1.602 6.698-1.047 3.489 0 0" style="fill:#ed1c24;fill-opacity:1;fill-rule:nonzero;stroke:none" transform="matrix(2.72915 0 0 -2.72915 92.58 84.712)"/><path d="M0 0a32.15 32.15 0 0 1-1.661.336c-.142.025-.28.041-.424.067a130.305 130.305 0 0 1-5.158-8.837c.369-.101.739-.203 1.114-.32.295-.09.596-.197.898-.299.122.236.243.468.368.704A123.714 123.714 0 0 0 0 0" style="fill:#008bd0;fill-opacity:1;fill-rule:nonzero;stroke:none" transform="matrix(2.72915 0 0 -2.72915 61.815 51.195)"/><path d="M0 0c-7.655.311-13.908-2.688-17.093-8.941 0 0 5.093 1.582 12.102.459A73.37 73.37 0 0 0 .07-.003L0 0" style="fill:#008bd0;fill-opacity:1;fill-rule:nonzero;stroke:none" transform="matrix(2.72915 0 0 -2.72915 46.65 49.127)"/><path d="m0 0 .092-.017a30.503 30.503 0 0 1 1.724-.322c-.865 14.003 6.52 21.303 6.52 21.303C2.189 15.892-3.035 9.405-7.378 2.658c-.097-.151-.188-.301-.283-.452A38.13 38.13 0 0 0-3.307.952 29.647 29.647 0 0 1 0 0" style="fill:#008bd0;fill-opacity:1;fill-rule:nonzero;stroke:none" transform="matrix(2.72915 0 0 -2.72915 82.722 57.215)"/><path d="M0 0c2.997-2.043 5.727-4.61 13.979-9.374C10.157-3.461 7.661 1.928 6.125 6.781c-.078.249-.148.49-.221.737a16.646 16.646 0 0 0-1.589-.283c-5.984-.78-10.398 1.567-10.398 1.567a32.25 32.25 0 0 1-4.517 1.944c-7.751-14.783-11.382-28.243-11.382-28.243 5.877 7.25 12.4 13.349 16.436 16.882.136.115.265.232.393.342C-4.328.37-2.293 1.568 0 0" style="fill:#ed1c24;fill-opacity:1;fill-rule:nonzero;stroke:none" transform="matrix(2.72915 0 0 -2.72915 76.466 105.229)"/><path d="M0 0c.284.037.57.082.857.133.241.043.487.096.732.15C.542 3.772-.013 6.981-.202 9.899l-.006.12c-.566.09-1.141.195-1.723.322l-.092.017a29.724 29.724 0 0 0-3.308.952c-1.478.521-2.93.936-4.353 1.254a123.714 123.714 0 0 1-4.863-8.349 79.117 79.117 0 0 1-.368-.704 32.122 32.122 0 0 0 4.516-1.944S-5.985-.78 0 0" style="fill:#2a2777;fill-opacity:1;fill-rule:nonzero;stroke:none" transform="matrix(2.72915 0 0 -2.72915 88.244 85.483)"/><path d="m0 0-1.096-.989s10.721-7.044 20.787-9.522c0 0-7.867 3.169-17.626 10.341C2.065-.17.946.925 0 0" style="fill:#ed1c24;fill-opacity:1;fill-rule:nonzero;stroke:none" transform="matrix(2.72915 0 0 -2.72915 66.26 108.652)"/><path d="M0 0c.209-.028.424-.065.636-.1C4.764 6.349 9.73 12.74 15.633 18.256c0 0-9.662-5.393-18.398-18.004A30.008 30.008 0 0 0 0 0" style="fill:#008bd0;fill-opacity:1;fill-rule:nonzero;stroke:none" transform="matrix(2.72915 0 0 -2.72915 54.388 49.823)"/><path d="M0 0c-.696.174-1.377.321-2.043.443-.219.038-.428.067-.643.1-3.999-7.852-7.224-17.629-8.32-29.573 0 0 3.451 13.505 11.625 28.863C.5-.134.377-.095.258-.064.172-.04.086-.021 0 0" style="fill:#ed1c24;fill-opacity:1;fill-rule:nonzero;stroke:none" transform="matrix(2.72915 0 0 -2.72915 40.36 73.758)"/><path d="M0 0a30.008 30.008 0 0 1-2.765.252 73.087 73.087 0 0 1-5.061-8.479c.215-.033.424-.062.643-.1A32.765 32.765 0 0 0-5.14-8.77c.086-.021.172-.04.258-.064.119-.031.242-.07.361-.103A129.38 129.38 0 0 0 .636-.1C.424-.065.209-.028 0 0" style="fill:#2a2777;fill-opacity:1;fill-rule:nonzero;stroke:none" transform="matrix(2.72915 0 0 -2.72915 54.388 49.823)"/><path d="M0 0c-.455-.896-1.042-1.426-1.837-1.734-.073-.028-.102-.131 0-.176.853-.382 1.469-.985 1.926-1.882l1.705-3.204c.073-.132.015-.219-.146-.219H-.543c-.103 0-.176.042-.221.132l-1.191 2.277c-.631 1.191-1.513 1.911-2.351 1.911h-.309v-4.129c0-.119-.073-.191-.19-.191h-2c-.117 0-.191.072-.191.191v10.04c0 .117.074.19.191.19h2c.117 0 .19-.073.19-.19V-.822h.294c.837 0 1.69.662 2.264 1.749l1.118 2.147a.228.228 0 0 0 .22.132h2.146c.147 0 .206-.089.132-.222z" style="fill:#77787b;fill-opacity:1;fill-rule:nonzero;stroke:none" transform="matrix(2.72915 0 0 -2.72915 19.093 177.231)"/><path d="M0 0c-.427 1.16-.898 2.543-1.074 3.5-.044.174-.22.174-.264 0-.192-.957-.647-2.324-1.073-3.5l-.207-.588H.203zm-3.367-2.661-.441-1.235c-.044-.103-.117-.146-.219-.146h-2.074c-.146 0-.206.088-.163.22l2.075 5.615c.543 1.5 1.028 2.94 1.395 4.425.029.102.104.161.221.161H.161c.117 0 .191-.059.221-.161.367-1.485.852-2.925 1.396-4.425l2.073-5.615c.043-.132-.016-.22-.163-.22H1.616a.218.218 0 0 0-.22.146L.954-2.661z" style="fill:#77787b;fill-opacity:1;fill-rule:nonzero;stroke:none" transform="matrix(2.72915 0 0 -2.72915 42.804 185.893)"/><path d="M0 0c-2.014.75-2.749 1.484-2.749 3.086 0 1.925 1.456 3.013 3.778 3.013.853 0 1.646-.146 2.352-.382l.969-.322c.133-.045.163-.118.133-.236l-.602-1.646c-.045-.117-.116-.162-.236-.117l-.868.263c-.587.176-1.144.31-1.748.31-.824 0-1.382-.353-1.382-.883 0-.514.456-.749 1.294-1.058l1.235-.455C4.22.808 4.954.044 4.954-1.557c0-2.015-1.367-3.088-3.865-3.088-.884 0-1.676.088-2.896.485l-.97.309c-.133.044-.163.117-.133.236l.587 1.631c.045.116.12.161.236.116l1.029-.307c.867-.265 1.514-.353 2.147-.353.793 0 1.469.191 1.469.971 0 .439-.515.778-1.323 1.086z" style="fill:#77787b;fill-opacity:1;fill-rule:nonzero;stroke:none" transform="matrix(2.72915 0 0 -2.72915 63.216 184.688)"/><path d="M0 0c-2.8 1.177-4.942-.203-5.851-1.262-.17-.197-.091-.267.096-.113 1.112.903 2.952 1.504 4.973.706 2.389-.943 3.718-3.671 2.9-6.081-.179-.529-.371-.982-.674-1.402-.068-.093.013-.19.101-.093.603.669 1.059 1.33 1.307 2.28C3.517-3.427 2.12-.89 0 0" style="fill:#ed1c24;fill-opacity:1;fill-rule:evenodd;stroke:none" transform="matrix(2.72915 0 0 -2.72915 122.213 167.152)"/><path d="M0 0c-.232.145-.295.008-.092-.139.737-.516 2.016-2.327 1.797-4.651-.261-2.747-2.666-5.054-5.374-5.086-.596-.008-1.118.025-1.636.184-.114.034-.193-.082-.066-.136.322-.139.637-.257.959-.349l.046-.009a4.79 4.79 0 0 1 1.464-.165c.084.003.167.006.254.014 2.857.253 4.943 2.498 5.2 4.954C2.881-2.266.838-.524 0 0" style="fill:#008bd0;fill-opacity:1;fill-rule:evenodd;stroke:none" transform="matrix(2.72915 0 0 -2.72915 126.76 167.666)"/><path d="M0 0c-.169-.978-1.277-3.243-3.663-4.197l-.049-.019c-1.089-.425-2.308-.586-3.459-.359a6.459 6.459 0 0 0-2.854 1.377l-.031.029c-.354.3-.67.638-.94 1.006l.086-.078c-.08.092-.156.183-.224.274a4.979 4.979 0 0 0-.329.568c-.15.304-.285.598-.39.893-.096.264-.172.53-.215.808-.019.129-.113.135-.109-.014.041-1.029.27-1.901.835-2.889.104-.18.218-.351.338-.516.006-.011.014-.018.021-.029 1.639-2.23 4.692-3.033 7.045-2.119C-.721-4.015.033-1.15.155-.067.189.231.033.188 0 0" style="fill:#ed1c24;fill-opacity:1;fill-rule:evenodd;stroke:none" transform="matrix(2.72915 0 0 -2.72915 134.946 183.764)"/><path d="M0 0c-.396.685-1.008 1.221-1.745 1.624a4.34 4.34 0 0 1-2.768.471l-.036-.004c-.087-.013-.175-.035-.262-.052A4.543 4.543 0 0 1-7.763-.176c-.009-.018-.02-.032-.029-.048-.835-1.531-.729-3.246.121-4.576.111-.174.242-.338.38-.495a5.64 5.64 0 0 1 .87-.806c.196-.147.314-.058.146.094-1.419 1.297-1.756 3.402-.801 5.15a4.295 4.295 0 0 0 5.83 1.7A4.403 4.403 0 0 0-.104-.062c.045-.048.093-.049.112-.022C.02-.068.023-.04 0 0" style="fill:#008bd0;fill-opacity:1;fill-rule:evenodd;stroke:none" transform="matrix(2.72915 0 0 -2.72915 125.902 174.893)"/><path d="M0 0a3.837 3.837 0 0 1-4.567-2.351l.001-.001a3.76 3.76 0 0 1-.232-1.205c.002-.057.003-.111.008-.17.019.142.042.282.08.424a3.354 3.354 0 1 0 3.197-4.205c.705-.1 1.401.002 2.025.265A3.817 3.817 0 0 1 1.903-6.24c.382.433.674.956.83 1.552A3.838 3.838 0 0 1 0 0" style="fill:#77787b;fill-opacity:1;fill-rule:nonzero;stroke:none" transform="matrix(2.72915 0 0 -2.72915 119.095 172.843)"/><path d="M0 0c.004.102-.051.168-.163.168h-5.134c-.749 0-1.29-.148-1.627-.444-.334-.297-.501-.819-.501-1.567v-8.219c0-.118.072-.191.191-.191h1.999c.118 0 .191.073.191.191v3.629h4.11c.117 0 .191.075.191.192v1.692c0 .116-.074.19-.191.19h-4.11v1.819c.004.205.049.362.135.467.068.08.183.131.349.153h4.374c.118 0 .191.075.191.192v1.706C.005-.015.001-.007 0 0" style="fill:#77787b;fill-opacity:1;fill-rule:nonzero;stroke:none" transform="matrix(2.72915 0 0 -2.72915 100.25 168.941)"/><path d="M0 0c.318-.101.569-.235.75-.406.182-.17.331-.376.448-.615L2.27-3.333h-.997c-.073.156-.143.313-.213.469-.069.156-.142.313-.214.469a110.076 110.076 0 0 1-.436.921 1.98 1.98 0 0 1-.356.482c-.142.142-.347.255-.615.339l-.67-.787v-1.893h-.963v5.871h.963V-.109l2.253 2.647h1.139z" style="fill:#77787b;fill-opacity:1;fill-rule:nonzero;stroke:none" transform="matrix(3.93223 0 0 -3.93223 172.689 179.155)"/><path d="M0 0c.145-.218.401-.328.77-.328.368 0 .625.11.771.328.145.217.217.541.217.971 0 .447-.072.776-.217.988-.146.213-.4.318-.763.318-.374 0-.633-.105-.778-.318-.146-.212-.219-.541-.219-.988C-.219.541-.146.217 0 0m2.185 2.567c.346-.338.519-.87.519-1.596 0-.686-.173-1.209-.519-1.566-.346-.357-.817-.536-1.415-.536-.603 0-1.076.179-1.42.536-.344.357-.514.88-.514 1.566 0 .726.17 1.258.514 1.596.344.337.817.506 1.42.506.598 0 1.069-.169 1.415-.506" style="fill:#77787b;fill-opacity:1;fill-rule:nonzero;stroke:none" transform="matrix(3.93223 0 0 -3.93223 187.018 188.142)"/><path d="M0 0v3.995h.829l.101-.393c.138.183.305.316.498.397.192.081.389.122.59.122.084 0 .179-.012.284-.035.107-.021.21-.058.311-.108v-.804c-.145.05-.278.087-.398.109a1.519 1.519 0 0 1-.854-.062 1.175 1.175 0 0 1-.423-.29V0Z" style="fill:#77787b;fill-opacity:1;fill-rule:nonzero;stroke:none" transform="matrix(3.93223 0 0 -3.93223 200.452 192.261)"/><path d="M0 0a.902.902 0 0 1-.289-.674h1.432c.168 0 .282.037.344.112a.47.47 0 0 1 .092.306c-.005.151-.083.274-.23.368C1.202.208.992.255.725.255.429.255.187.17 0 0m1.449-2.278c.237.047.465.118.683.213l.235-.695a4.08 4.08 0 0 0-.717-.272 2.868 2.868 0 0 0-.791-.121c-.703 0-1.232.156-1.587.468-.355.313-.533.857-.533 1.633 0 .654.163 1.167.487 1.542.323.374.82.561 1.491.561.603 0 1.056-.137 1.36-.411.304-.273.449-.602.431-.988-.028-.435-.166-.724-.414-.867-.248-.141-.58-.213-.992-.213H-.289c0-.341.083-.58.247-.716.165-.138.466-.206.901-.206.156 0 .352.024.59.072" style="fill:#77787b;fill-opacity:1;fill-rule:nonzero;stroke:none" transform="matrix(3.93223 0 0 -3.93223 216.834 180.19)"/><path d="M0 0a12.397 12.397 0 0 1-1.147-.067c-.201-.028-.33-.1-.386-.218a.72.72 0 0 1-.074-.352c0-.128.034-.239.099-.334.068-.095.218-.143.453-.143.168 0 .335.025.503.075.167.051.351.163.552.336zm.93-.871c0-.111.014-.181.041-.21.029-.027.085-.041.168-.041.034 0 .078.005.134.017.057.011.115.024.176.042l.151-.604a1.113 1.113 0 0 0-.348-.167 1.335 1.335 0 0 0-.356-.05c-.184 0-.344.036-.481.109a.773.773 0 0 0-.314.292 1.78 1.78 0 0 0-.523-.297 2.095 2.095 0 0 0-.708-.104c-.474 0-.828.118-1.059.356a1.2 1.2 0 0 0-.348.875c0 .424.106.737.318.938.212.201.53.326.955.377.195.016.356.03.481.042.125.011.275.016.448.016H0v.235c0 .217-.077.367-.234.448a1.16 1.16 0 0 1-.536.121c-.224 0-.441-.02-.653-.059a9.097 9.097 0 0 1-.612-.134l-.141.754a4.09 4.09 0 0 0 1.397.235c.582 0 1.011-.098 1.29-.294.279-.194.419-.529.419-1.004Z" style="fill:#77787b;fill-opacity:1;fill-rule:nonzero;stroke:none" transform="matrix(3.93223 0 0 -3.93223 238.584 185.18)"/><path d="m0 0-1.029 3.007L-2.051 0Zm1.643-2.043H.687L.235-.695h-2.52l-.453-1.348h-.955l2.086 5.871h1.164z" style="fill:#77787b;fill-opacity:1;fill-rule:nonzero;stroke:none" transform="matrix(3.93223 0 0 -3.93223 267.63 184.226)"/><path d="M0 0c-.123-.243-.184-.548-.184-.917 0-.458.082-.789.247-.993.166-.203.368-.306.607-.306.201 0 .381.045.541.134.159.09.3.207.424.353V.247a2.698 2.698 0 0 0-.181.042c-.065.017-.136.03-.213.042a2.531 2.531 0 0 1-.503.05C.369.37.124.243 0 0m2.572-2.936h-.829l-.068.353a2.285 2.285 0 0 0-.502-.327c-.167-.079-.413-.115-.737-.109-.262 0-.492.058-.691.176a1.518 1.518 0 0 0-.49.46 2.112 2.112 0 0 0-.297.67 3.25 3.25 0 0 0-.097.804c0 .682.141 1.201.424 1.558.281.357.73.536 1.344.536.117 0 .219-.004.306-.013.086-.008.165-.018.238-.029.073-.011.143-.026.214-.046a3.24 3.24 0 0 1 .248-.055v2.061h.937z" style="fill:#77787b;fill-opacity:1;fill-rule:nonzero;stroke:none" transform="matrix(3.93223 0 0 -3.93223 279.719 180.718)"/><path d="M0 0c-.463.62-.788 1.227-.972 1.822-.183.595-.276 1.139-.276 1.637v.536h.938v-.536c0-.402.061-.834.185-1.294.122-.461.348-.942.677-1.445.33.509.556.991.678 1.449.124.458.185.888.185 1.29v.536h.938v-.536c0-.491-.093-1.041-.28-1.646-.187-.605-.51-1.21-.968-1.813Z" style="fill:#77787b;fill-opacity:1;fill-rule:nonzero;stroke:none" transform="matrix(3.93223 0 0 -3.93223 297.208 192.261)"/><path d="M0 0a12.397 12.397 0 0 1-1.147-.067c-.201-.028-.33-.1-.386-.218a.72.72 0 0 1-.075-.352.57.57 0 0 1 .1-.334c.068-.095.218-.143.453-.143.167 0 .335.025.503.075.166.051.35.163.552.336zm.93-.871c0-.111.014-.181.041-.21.028-.027.084-.041.168-.041.034 0 .078.005.134.017.056.011.115.024.176.042l.151-.604a1.108 1.108 0 0 0-.349-.167 1.328 1.328 0 0 0-.355-.05c-.184 0-.344.036-.481.109a.766.766 0 0 0-.314.292 1.773 1.773 0 0 0-.524-.297 2.09 2.09 0 0 0-.708-.104c-.473 0-.827.118-1.059.356a1.2 1.2 0 0 0-.348.875c0 .424.107.737.319.938.212.201.53.326.955.377.195.016.355.03.481.042.125.011.275.016.448.016H0v.235c0 .217-.078.367-.235.448-.156.08-.334.121-.535.121-.224 0-.441-.02-.653-.059a9.129 9.129 0 0 1-.613-.134l-.141.754A4.08 4.08 0 0 0-.78 2.32c.582 0 1.012-.098 1.291-.294.279-.194.419-.529.419-1.004Z" style="fill:#77787b;fill-opacity:1;fill-rule:nonzero;stroke:none" transform="matrix(3.93223 0 0 -3.93223 318.974 185.18)"/><path d="M0 0v2.722c0 .207-.045.36-.134.46-.089.101-.232.151-.427.151-.251 0-.473-.06-.662-.18-.19-.12-.352-.25-.485-.389V0h-.939v3.995h.846l.084-.36c.19.145.396.262.62.351.223.09.464.135.72.135.452 0 .784-.102.997-.306.212-.204.318-.506.318-.909V0Z" style="fill:#77787b;fill-opacity:1;fill-rule:nonzero;stroke:none" transform="matrix(3.93223 0 0 -3.93223 337.483 192.261)"/><path d="M0 0a1.725 1.725 0 0 0-.574-.277 2.89 2.89 0 0 0-.801-.1c-.653 0-1.156.176-1.511.527-.354.352-.532.871-.532 1.558 0 .425.059.773.176 1.047.117.273.27.489.461.645.195.162.416.273.661.335.246.061.497.092.754.092.251 0 .501-.036.745-.109.246-.072.445-.154.596-.243l-.244-.711c-.173.078-.359.14-.556.188a2.375 2.375 0 0 1-.541.071c-.418 0-.71-.12-.875-.36-.165-.24-.247-.559-.247-.955 0-.446.093-.772.28-.98.187-.207.465-.31.833-.31.185 0 .37.019.553.055.185.036.38.107.587.214z" style="fill:#77787b;fill-opacity:1;fill-rule:nonzero;stroke:none" transform="matrix(3.93223 0 0 -3.93223 357.442 191.107)"/><path d="M269.379 312.767h1.96v-2.01h-1.96zm2.933-10.17c.191.05.366.112.53.191l.376-1.29a3.211 3.211 0 0 0-.914-.402 3.447 3.447 0 0 0-.914-.124c-.719 0-1.21.174-1.48.523-.266.349-.397.848-.397 1.501v4.443h-.982v1.488h2.809v-5.898c0-.161.037-.288.099-.373.062-.087.195-.133.39-.133.133 0 .293.025.483.074" style="fill:#77787b;fill-opacity:1;fill-rule:nonzero;stroke:none;stroke-width:1.95013" transform="matrix(2.01639 0 0 -2.01639 -181.88 799.47)"/><path d="M0 0v2.722c0 .207-.045.36-.134.46-.09.101-.232.151-.428.151-.251 0-.472-.06-.661-.18-.19-.12-.352-.25-.485-.389V0h-.939v3.995h.846l.084-.36c.19.145.396.262.619.351.224.09.465.135.721.135.452 0 .784-.102.997-.306.212-.204.318-.506.318-.909V0Z" style="fill:#77787b;fill-opacity:1;fill-rule:nonzero;stroke:none" transform="matrix(3.93223 0 0 -3.93223 380.921 192.261)"/><path d="M0 0c.148.022.309.078.482.167V2.01a1.675 1.675 0 0 1-.452.41.989.989 0 0 1-.519.159.68.68 0 0 1-.62-.343c-.141-.229-.21-.552-.21-.972 0-.178.011-.346.034-.502a1.12 1.12 0 0 1 .134-.41.715.715 0 0 1 .276-.285.908.908 0 0 1 .452-.101c.134 0 .276.011.423.034m1.256-1.801a1.543 1.543 0 0 0-.431-.536 1.922 1.922 0 0 0-.616-.289 2.704 2.704 0 0 0-.715-.096 16.461 16.461 0 0 0-1.131.042v.795c.201-.017.387-.026.561-.029.173-.003.364-.003.57-.003.251 0 .479.07.682.213.203.141.306.389.306.741v.268A4.678 4.678 0 0 0-.045-.8a3.768 3.768 0 0 0-.521-.037c-.574 0-1.003.195-1.284.586-.283.39-.423.896-.423 1.515 0 .302.029.581.088.838.059.256.151.481.28.67.128.184.296.329.503.436.206.105.461.159.761.159.246 0 .46-.034.641-.105.182-.07.34-.178.473-.322l.101.301h.846v-4.246c0-.313-.054-.578-.164-.796" style="fill:#77787b;fill-opacity:1;fill-rule:nonzero;stroke:none" transform="matrix(3.93223 0 0 -3.93223 396.347 189.296)"/><path d="M0 0a.75.75 0 0 1 .301.616c-.005.229-.063.402-.175.519-.112.116-.29.223-.536.318l-1.173.452c-.401.151-.701.339-.896.562-.195.222-.293.524-.293.905 0 .272.052.51.155.711.103.202.25.369.44.502.185.129.402.227.654.294.25.066.524.1.82.1.251 0 .53-.04.837-.121.307-.081.62-.194.939-.34l-.26-.787c-.302.14-.567.243-.796.31a2.551 2.551 0 0 1-.72.101c-.369 0-.641-.075-.818-.223a.699.699 0 0 1-.262-.556c0-.168.056-.302.171-.403.114-.1.275-.189.482-.267.1-.045.198-.085.293-.122.095-.036.19-.074.285-.113a4.94 4.94 0 0 1 .28-.113c.099-.036.197-.071.298-.104.179-.074.344-.153.497-.24.154-.086.287-.19.399-.313.117-.128.207-.278.272-.448.064-.171.096-.373.096-.608a1.7 1.7 0 0 0-.129-.661 1.451 1.451 0 0 0-.39-.536A1.825 1.825 0 0 0 .129-.93a2.772 2.772 0 0 0-.891-.129c-.318 0-.636.039-.955.117a4.004 4.004 0 0 0-1.029.435l.393.788c.323-.162.598-.285.821-.368.222-.085.48-.13.77-.135.307-.011.561.063.762.222" style="fill:#77787b;fill-opacity:1;fill-rule:nonzero;stroke:none" transform="matrix(3.93223 0 0 -3.93223 424.027 188.425)"/><path d="M0 0a1.725 1.725 0 0 0-.574-.277 2.895 2.895 0 0 0-.801-.1c-.652 0-1.156.176-1.511.527-.354.352-.531.871-.531 1.558 0 .425.058.773.175 1.047.117.273.271.489.461.645.195.162.416.273.66.335.247.061.498.092.754.092a2.6 2.6 0 0 0 .746-.109c.246-.072.444-.154.595-.243l-.243-.711c-.173.078-.358.14-.556.188a2.369 2.369 0 0 1-.542.071c-.418 0-.71-.12-.875-.36-.164-.24-.246-.559-.246-.955 0-.446.093-.772.28-.98.187-.207.466-.31.833-.31.185 0 .37.019.554.055.184.036.379.107.586.214z" style="fill:#77787b;fill-opacity:1;fill-rule:nonzero;stroke:none" transform="matrix(3.93223 0 0 -3.93223 445.372 191.107)"/><path d="M0 0v2.688c0 .207-.047.364-.142.474a.497.497 0 0 1-.394.163c-.239 0-.471-.062-.691-.184a2.253 2.253 0 0 1-.531-.393V0h-.939v5.955h.939V3.652c.167.122.357.231.569.326.212.095.478.143.795.143.492 0 .837-.115 1.034-.344.198-.229.298-.545.298-.946V0Z" style="fill:#77787b;fill-opacity:1;fill-rule:nonzero;stroke:none" transform="matrix(3.93223 0 0 -3.93223 458.773 192.261)"/><path d="M0 0c.145-.218.401-.328.77-.328.368 0 .625.11.771.328.145.217.217.541.217.971 0 .447-.072.776-.217.988-.146.213-.4.318-.762.318-.375 0-.634-.105-.779-.318-.146-.212-.218-.541-.218-.988C-.218.541-.146.217 0 0m2.185 2.567c.347-.338.519-.87.519-1.596 0-.686-.172-1.209-.519-1.566-.347-.357-.818-.536-1.415-.536-.603 0-1.077.179-1.419.536-.344.357-.516.88-.516 1.566 0 .726.172 1.258.516 1.596.342.337.816.506 1.419.506.597 0 1.068-.169 1.415-.506" style="fill:#77787b;fill-opacity:1;fill-rule:nonzero;stroke:none" transform="matrix(3.93223 0 0 -3.93223 469.84 188.142)"/><path d="M0 0c.146-.218.402-.328.771-.328.368 0 .625.11.77.328.146.217.218.541.218.971 0 .447-.072.776-.218.988-.145.213-.399.318-.762.318-.374 0-.633-.105-.779-.318-.146-.212-.218-.541-.218-.988C-.218.541-.146.217 0 0m2.186 2.567c.346-.338.519-.87.519-1.596 0-.686-.173-1.209-.519-1.566-.347-.357-.818-.536-1.415-.536-.603 0-1.077.179-1.42.536-.344.357-.516.88-.516 1.566 0 .726.172 1.258.516 1.596.343.337.817.506 1.42.506.597 0 1.068-.169 1.415-.506" style="fill:#77787b;fill-opacity:1;fill-rule:nonzero;stroke:none" transform="matrix(3.93223 0 0 -3.93223 487.194 188.142)"/><path d="M0 0v-5.084c0-.101.016-.172.05-.214.033-.041.092-.062.176-.062.049 0 .114.004.192.012a.9.9 0 0 1 .193.038l.108-.653a.953.953 0 0 0-.355-.135 2.578 2.578 0 0 0-.424-.033c-.351 0-.586.103-.703.31a1.47 1.47 0 0 0-.176.737V0Z" style="fill:#77787b;fill-opacity:1;fill-rule:nonzero;stroke:none" transform="matrix(3.93223 0 0 -3.93223 504.386 168.481)"/><path d="M0 0c.167.05.251.159.251.326a.29.29 0 0 1-.129.256 1.43 1.43 0 0 1-.323.155l-1.005.309c-.375.118-.63.269-.767.457a1.137 1.137 0 0 0-.204.683c0 .212.046.392.137.54.093.148.217.267.373.356.151.089.328.155.533.196a2.908 2.908 0 0 0 .987.039c.131-.018.267-.04.406-.068a3.729 3.729 0 0 0 .729-.209l-.159-.746a6.023 6.023 0 0 1-.699.185c-.248.05-.483.075-.699.075-.241 0-.413-.032-.515-.096a.304.304 0 0 1-.156-.272c0-.112.034-.202.1-.268.068-.068.197-.129.386-.185.167-.05.334-.104.499-.158.164-.057.356-.117.573-.185.296-.1.515-.227.658-.381.142-.154.213-.364.213-.633a1.02 1.02 0 0 0-.163-.59 1.232 1.232 0 0 0-.415-.381 1.696 1.696 0 0 0-.566-.21 3.417 3.417 0 0 0-.819-.054c-.059.004-.122.01-.189.021a3.302 3.302 0 0 0-.692.13 3.25 3.25 0 0 0-.582.247l.211.737c.251-.106.491-.192.72-.256.229-.063.474-.096.737-.096.211 0 .402.026.569.076" style="fill:#77787b;fill-opacity:1;fill-rule:nonzero;stroke:none" transform="matrix(3.93223 0 0 -3.93223 517.161 189.197)"/><path d="M0 0v4.917c0 .317.079.557.238.715.159.16.397.239.716.239h2.63v-.788H1.238c-.116 0-.193-.024-.23-.075a.379.379 0 0 1-.054-.218V3.393h2.522v-.788H.954V0Z" style="fill:#77787b;fill-opacity:1;fill-rule:nonzero;stroke:none" transform="matrix(3.93223 0 0 -3.93223 533.038 192.261)"/><path d="M0 0c.145-.218.401-.328.77-.328s.625.11.771.328c.145.217.217.541.217.971 0 .447-.072.776-.217.988-.146.213-.4.318-.762.318-.374 0-.634-.105-.779-.318-.146-.212-.218-.541-.218-.988C-.218.541-.146.217 0 0m2.186 2.567c.346-.338.519-.87.519-1.596 0-.686-.173-1.209-.519-1.566-.347-.357-.819-.536-1.416-.536-.603 0-1.076.179-1.419.536-.344.357-.516.88-.516 1.566 0 .726.172 1.258.516 1.596.343.337.816.506 1.419.506.597 0 1.069-.169 1.416-.506" style="fill:#77787b;fill-opacity:1;fill-rule:nonzero;stroke:none" transform="matrix(3.93223 0 0 -3.93223 553.36 188.142)"/><path d="M0 0v-3.115c0-.079.013-.132.038-.16.025-.028.071-.041.137-.041a.946.946 0 0 1 .336.058l.135-.62a1.268 1.268 0 0 0-.671-.201c-.202 0-.373.039-.515.118a.704.704 0 0 0-.314.343 1.845 1.845 0 0 0-1.248-.461c-.453 0-.799.103-1.039.31-.24.206-.359.511-.359.913V0h.937v-2.755c0-.213.043-.355.13-.428.086-.072.227-.109.424-.109a1.456 1.456 0 0 1 1.071.478V0Z" style="fill:#77787b;fill-opacity:1;fill-rule:nonzero;stroke:none" transform="matrix(3.93223 0 0 -3.93223 580.56 176.551)"/><path d="M0 0v2.722c0 .207-.045.36-.134.46-.09.101-.233.151-.428.151-.251 0-.473-.06-.662-.18a2.59 2.59 0 0 1-.485-.389V0h-.938v3.995h.846l.084-.36c.19.145.396.262.619.351.223.09.464.135.72.135.453 0 .784-.102.997-.306.212-.204.319-.506.319-.909V0Z" style="fill:#77787b;fill-opacity:1;fill-rule:nonzero;stroke:none" transform="matrix(3.93223 0 0 -3.93223 594.986 192.261)"/><path d="M0 0c-.122-.243-.185-.548-.185-.917 0-.458.083-.789.248-.993.165-.203.367-.306.607-.306.202 0 .381.045.541.134.159.09.3.207.423.353V.247a2.826 2.826 0 0 0-.18.042c-.064.017-.136.03-.214.042a2.504 2.504 0 0 1-.503.05C.369.37.123.243 0 0m2.572-2.936h-.829l-.068.353a2.29 2.29 0 0 0-.503-.327c-.167-.079-.413-.115-.735-.109-.263 0-.494.058-.693.176a1.525 1.525 0 0 0-.489.46 2.09 2.09 0 0 0-.297.67 3.25 3.25 0 0 0-.097.804c0 .682.141 1.201.423 1.558.282.357.731.536 1.345.536.117 0 .219-.004.305-.013.086-.008.167-.018.238-.029a1.75 1.75 0 0 0 .215-.046c.069-.019.152-.037.247-.055v2.061h.938z" style="fill:#77787b;fill-opacity:1;fill-rule:nonzero;stroke:none" transform="matrix(3.93223 0 0 -3.93223 605.947 180.718)"/><path d="M0 0a12.397 12.397 0 0 1-1.148-.067c-.201-.028-.329-.1-.385-.218a.732.732 0 0 1-.075-.352.57.57 0 0 1 .1-.334c.067-.095.217-.143.452-.143.168 0 .335.025.503.075.168.051.352.163.553.336zm.929-.871c0-.111.014-.181.042-.21.028-.027.084-.041.168-.041.033 0 .078.005.133.017.057.011.115.024.177.042l.151-.604a1.118 1.118 0 0 0-.349-.167 1.334 1.334 0 0 0-.355-.05c-.185 0-.345.036-.481.109a.775.775 0 0 0-.315.292 1.78 1.78 0 0 0-.523-.297 2.09 2.09 0 0 0-.708-.104c-.474 0-.828.118-1.06.356a1.203 1.203 0 0 0-.347.875c0 .424.106.737.319.938.212.201.53.326.954.377l.482.042c.125.011.274.016.448.016H0v.235c0 .217-.078.367-.234.448-.157.08-.335.121-.537.121-.223 0-.442-.02-.653-.059a9.066 9.066 0 0 1-.611-.134l-.143.754a4.083 4.083 0 0 0 1.399.235c.581 0 1.01-.098 1.29-.294.279-.194.418-.529.418-1.004Z" style="fill:#77787b;fill-opacity:1;fill-rule:nonzero;stroke:none" transform="matrix(3.93223 0 0 -3.93223 629.234 185.18)"/><path d="M0 0v-2.396c0-.094.02-.154.062-.18a.336.336 0 0 1 .171-.037c.073 0 .165.013.277.042.112.027.224.071.335.133l.227-.644a1.682 1.682 0 0 0-.487-.231 1.934 1.934 0 0 0-.552-.079c-.369 0-.621.088-.758.264-.138.175-.206.406-.206.69V0h-.728v.77h.728v1.415L0 2.378V.77h.929V0Z" style="fill:#77787b;fill-opacity:1;fill-rule:nonzero;stroke:none" transform="matrix(3.93223 0 0 -3.93223 642.541 179.251)"/><path d="M412.86 312.767h1.96v-2.01h-1.96zm2.933-10.17c.191.05.366.112.53.191l.377-1.29a3.195 3.195 0 0 0-.917-.402 3.418 3.418 0 0 0-.913-.124c-.72 0-1.213.174-1.48.523-.265.349-.398.848-.398 1.501v4.443h-.98v1.488h2.81v-5.898c0-.161.037-.288.099-.373.062-.087.197-.133.393-.133.13 0 .291.025.482.074" style="fill:#77787b;fill-opacity:1;fill-rule:nonzero;stroke:none;stroke-width:1.95013" transform="matrix(2.01639 0 0 -2.01639 -181.88 799.47)"/><path d="M0 0c.146-.218.402-.328.771-.328.368 0 .625.11.77.328.146.217.218.541.218.971 0 .447-.072.776-.218.988-.145.213-.399.318-.762.318-.374 0-.633-.105-.779-.318-.145-.212-.218-.541-.218-.988C-.218.541-.145.217 0 0m2.186 2.567c.346-.338.519-.87.519-1.596 0-.686-.173-1.209-.519-1.566-.346-.357-.818-.536-1.415-.536-.603 0-1.076.179-1.42.536-.344.357-.515.88-.515 1.566 0 .726.171 1.258.515 1.596.344.337.817.506 1.42.506.597 0 1.069-.169 1.415-.506" style="fill:#77787b;fill-opacity:1;fill-rule:nonzero;stroke:none" transform="matrix(3.93223 0 0 -3.93223 664.073 188.142)"/><path d="M0 0v2.722c0 .207-.045.36-.134.46-.089.101-.231.151-.427.151-.251 0-.472-.06-.662-.18-.19-.12-.352-.25-.485-.389V0h-.938v3.995h.845l.084-.36c.19.145.396.262.62.351.223.09.464.135.72.135.452 0 .784-.102.997-.306.212-.204.318-.506.318-.909V0Z" style="fill:#77787b;fill-opacity:1;fill-rule:nonzero;stroke:none" transform="matrix(3.93223 0 0 -3.93223 687.917 192.261)"/><path d="M0 0h-2.853v-5.438h-2.339V7.119h2.339V1.887H0Zm-10.588.994c-.424.267-.936.4-1.538.4-.589 0-1.095-.133-1.519-.4-.424-.266-.637-.694-.637-1.284 0-.615.213-1.052.637-1.312.424-.259.93-.39 1.519-.39.602 0 1.114.131 1.538.39.423.26.636.697.636 1.312 0 .59-.213 1.018-.636 1.284m-3.549-10.957c-.303.39-.453.866-.453 1.427v3.632h2.361v-3.202c0-.191.034-.332.103-.421.067-.087.197-.134.389-.134h4.883c.821 0 1.549.047 2.186.134a16.15 16.15 0 0 1 2.124.463l.45-1.766c-.902-.286-1.678-.477-2.328-.573a14.918 14.918 0 0 0-2.186-.145h-5.848c-.82 0-1.38.195-1.681.585m6.103 8.157a3.447 3.447 0 0 0-.953-1.109 4.529 4.529 0 0 0-1.426-.687 6.117 6.117 0 0 0-1.713-.236c-.616 0-1.194.075-1.734.226a4.14 4.14 0 0 0-1.406.676 3.31 3.31 0 0 0-.943 1.119c-.233.445-.35.955-.35 1.527 0 .562.113 1.061.338 1.498.226.438.537.808.934 1.109.397.301.865.531 1.406.688a6.3 6.3 0 0 0 1.755.235c1.286 0 2.349-.31 3.189-.933.841-.623 1.263-1.488 1.263-2.597 0-.572-.12-1.079-.36-1.516m1.201 5.518H-17.4V5.56h3.796c.109.191.187.399.236.625.048.226.051.49.01.79a5.7 5.7 0 0 1-.184.739l2.277.677c.082-.205.147-.418.195-.637.047-.218.071-.423.071-.615a3.307 3.307 0 0 0-.389-1.579h4.555z" style="fill:#77787b;fill-opacity:1;fill-rule:nonzero;stroke:none" transform="matrix(3.93223 0 0 -3.93223 222.342 86.707)"/><path d="M0 0h10.463v1.744H5.874l.04.075c.119.227.215.474.283.739.068.26.102.536.102.817 0 .187-.024.39-.072.604a3.81 3.81 0 0 1-.174.585l-2.182-.648a5.726 5.726 0 0 0 .17-.697 2.344 2.344 0 0 0-.012-.808 2.206 2.206 0 0 0-.241-.641l-.015-.026H0Zm10.566-.103H-.104v1.95h3.819c.097.178.171.375.214.585.048.218.05.479.01.772a4.228 4.228 0 0 1-.07.334 4.17 4.17 0 0 1-.113.395l-.016.051 2.373.706.017-.044c.082-.206.149-.422.197-.643.05-.223.074-.434.074-.628a3.392 3.392 0 0 0-.358-1.528h4.523zM5.222-2.421c-.576 0-1.077-.131-1.491-.392-.407-.256-.613-.672-.613-1.24 0-.593.205-1.021.611-1.269.415-.254.917-.381 1.493-.381.589 0 1.098.127 1.511.381.406.25.612.676.612 1.269 0 .568-.206.984-.613 1.24-.414.261-.922.392-1.51.392m0-3.386c-.596 0-1.116.134-1.546.398-.438.268-.66.725-.66 1.356 0 .605.222 1.052.66 1.327.43.27.95.407 1.546.407.608 0 1.134-.137 1.565-.407.438-.275.661-.722.661-1.327 0-.631-.223-1.088-.661-1.356-.431-.264-.957-.398-1.565-.398m0 5.232A6.27 6.27 0 0 1 3.48-.808a4.235 4.235 0 0 1-1.387-.679 3.215 3.215 0 0 1-.919-1.09A3.193 3.193 0 0 1 .84-4.053c0-.563.116-1.07.344-1.503.228-.437.541-.808.929-1.102A4.086 4.086 0 0 1 3.5-7.327a6.446 6.446 0 0 1 1.722-.224c.595 0 1.165.079 1.699.234a4.447 4.447 0 0 1 1.409.681c.389.293.705.66.94 1.09.233.428.353.932.353 1.493 0 1.086-.418 1.946-1.242 2.555-.828.613-1.891.923-3.159.923m0-7.078c-.618 0-1.206.076-1.748.228a4.186 4.186 0 0 0-1.423.686 3.326 3.326 0 0 0-.957 1.135c-.237.448-.355.971-.355 1.551 0 .568.116 1.078.343 1.522.229.443.547.821.948 1.125.4.305.878.538 1.424.696a6.282 6.282 0 0 0 1.768.239c1.29 0 2.374-.318 3.221-.944.85-.63 1.282-1.518 1.282-2.638 0-.579-.123-1.098-.365-1.543a3.516 3.516 0 0 0-.969-1.124 4.62 4.62 0 0 0-1.442-.695 6.17 6.17 0 0 0-1.727-.238m6.986-1.498h2.237v5.438h2.852v1.784h-2.852v5.232h-2.237zm2.339-.102h-2.443v12.66h2.443v-5.233h2.852v-1.99h-2.852ZM2.811-8.72v-3.58c0-.548.149-1.017.44-1.394.29-.376.842-.565 1.642-.565h5.847c.8 0 1.534.048 2.179.142.634.094 1.399.283 2.274.558l-.427 1.667a16.62 16.62 0 0 0-2.079-.449 16.234 16.234 0 0 0-2.193-.134H5.611c-.207 0-.352.053-.431.154-.075.099-.112.248-.112.451v3.15zm7.929-5.642H4.893c-.834 0-1.414.203-1.723.605-.307.396-.462.885-.462 1.457v3.682H5.17v-3.252c0-.179.03-.31.092-.388.058-.076.176-.114.349-.114h4.883c.815 0 1.547.044 2.179.132.629.09 1.343.244 2.117.461l.05.014.477-1.862-.046-.014c-.899-.287-1.687-.481-2.337-.577a15.221 15.221 0 0 0-2.194-.144" style="fill:#77787b;fill-opacity:1;fill-rule:nonzero;stroke:none" transform="matrix(3.93223 0 0 -3.93223 154.126 71.907)"/><path d="M0 0h-6.854v-2.709h3.366c.545 0 .937-.14 1.169-.42.232-.28.341-.667.328-1.159l-.225-5.068h-2.197v4.021c0 .261-.031.448-.092.564-.06.117-.215.175-.461.175h-9.111v1.887h4.904V0h-6.628v1.887h10.855c.11.726.206 1.485.287 2.279.083.792.123 1.414.123 1.867 0 .286-.044.468-.133.543-.09.075-.257.113-.503.113h-8.618v1.867h10.013c.424 0 .783-.102 1.078-.307.294-.206.448-.567.462-1.088 0-.67-.055-1.498-.166-2.482a37.185 37.185 0 0 0-.409-2.792H0Z" style="fill:#77787b;fill-opacity:1;fill-rule:nonzero;stroke:none" transform="matrix(3.93223 0 0 -3.93223 286.65 92.198)"/><path d="M0 0h2.095l.223 5.019c.014.476-.094.855-.317 1.124-.221.266-.602.403-1.128.403h-3.418v2.81h6.853v1.784H1.487l.012.06c.162.87.301 1.809.409 2.787.109.979.165 1.813.165 2.478-.014.499-.162.851-.441 1.044-.284.199-.636.3-1.049.3h-9.96v-1.766h8.566c.261 0 .437-.04.536-.124.102-.086.151-.276.151-.582 0-.451-.041-1.081-.124-1.872a47.732 47.732 0 0 0-.286-2.28l-.008-.045h-10.846V9.356h6.627v-2.81h-4.904V4.759h9.06c.265 0 .435-.068.507-.2.065-.127.098-.319.098-.59Zm2.193-.103H-.104v4.072c0 .251-.027.432-.085.541-.053.097-.191.146-.416.146h-9.162v1.991h4.904v2.606h-6.626v1.991h10.86c.106.71.2 1.461.28 2.232.082.786.122 1.413.122 1.861 0 .336-.062.459-.114.504-.079.067-.238.101-.47.101H-9.48v1.969H.583c.434 0 .807-.106 1.107-.318.309-.213.471-.592.486-1.127 0-.67-.058-1.507-.165-2.489a38.055 38.055 0 0 0-.4-2.733h2.8V9.253h-6.853V6.647H.873c.558 0 .965-.148 1.208-.439.239-.29.353-.69.34-1.194z" style="fill:#77787b;fill-opacity:1;fill-rule:nonzero;stroke:none" transform="matrix(3.93223 0 0 -3.93223 269.502 128.784)"/><path d="M0 0h-2.892v-8.352h-2.361V8.002h2.361V1.97H0Zm-11.222 7.837c.231-.437.388-.875.471-1.313.082-.438.122-.881.122-1.333a11.7 11.7 0 0 0-.143-1.867 12.419 12.419 0 0 0-.39-1.682c.383-.057.759-.18 1.128-.37.37-.192.685-.451.944-.779.357-.48.742-1.051 1.159-1.714.418-.664.893-1.441 1.427-2.329l-1.744-1.251c-.493.821-.961 1.583-1.405 2.288-.446.703-.811 1.241-1.098 1.609a2.518 2.518 0 0 1-.503.453 2.832 2.832 0 0 1-.647.328 11.927 11.927 0 0 0-1.866-2.534 18.472 18.472 0 0 0-2.586-2.226l-1.334 1.682a17.781 17.781 0 0 1 2.104 1.784A9.776 9.776 0 0 1-14.136.431a7.86 7.86 0 0 1 .82 2.072c.178.739.266 1.566.266 2.482 0 .466-.044.869-.134 1.211a4.471 4.471 0 0 1-.317.882z" style="fill:#77787b;fill-opacity:1;fill-rule:nonzero;stroke:none" transform="matrix(3.93223 0 0 -3.93223 358.29 90.986)"/><path d="m0 0 1.271-1.601A18.52 18.52 0 0 1 3.811.59c.745.78 1.371 1.628 1.859 2.523l.019.038.041-.014c.235-.083.456-.196.659-.336.202-.137.375-.293.513-.46.289-.368.657-.911 1.101-1.616.446-.707.91-1.461 1.378-2.241l1.66 1.191c-.521.87-.992 1.64-1.4 2.289a26.987 26.987 0 0 1-1.158 1.709 2.882 2.882 0 0 1-.925.765c-.362.187-.738.31-1.113.365l-.06.008.018.057c.163.528.293 1.091.389 1.674.095.584.142 1.211.142 1.86 0 .446-.041.891-.122 1.325-.078.416-.228.84-.445 1.259l-2.182-.727c.113-.237.212-.519.296-.838.089-.347.135-.757.135-1.224 0-.914-.09-1.754-.267-2.496a7.936 7.936 0 0 0-.827-2.085 9.802 9.802 0 0 0-1.456-1.857A17.448 17.448 0 0 0 0 0m1.252-1.742L-.146.02l.044.032a17.813 17.813 0 0 1 2.097 1.779 9.739 9.739 0 0 1 1.438 1.837c.364.634.639 1.326.816 2.059.175.731.265 1.564.265 2.47 0 .457-.044.861-.134 1.197a4.399 4.399 0 0 1-.313.873l-.026.053 2.374.791.022-.039c.233-.441.394-.886.477-1.327.082-.439.124-.891.124-1.343 0-.655-.05-1.287-.145-1.875a13.02 13.02 0 0 0-.373-1.632 3.675 3.675 0 0 0 1.084-.366c.373-.195.698-.462.961-.795a27.18 27.18 0 0 0 1.162-1.715c.416-.661.896-1.445 1.426-2.332l.025-.039L9.35-1.664l-.028.048C8.843-.82 8.371-.051 7.917.67c-.443.7-.811 1.242-1.096 1.607a2.41 2.41 0 0 1-.489.44c-.184.127-.383.23-.595.308A11.942 11.942 0 0 0 3.883.52a18.284 18.284 0 0 0-2.592-2.233Zm11.162-3.346h2.256v8.35h2.892v1.867H14.67v6.033h-2.256zm2.357-.103h-2.46v16.457h2.46V5.232h2.896V3.159h-2.896z" style="fill:#77787b;fill-opacity:1;fill-rule:nonzero;stroke:none" transform="matrix(3.93223 0 0 -3.93223 289.027 103.615)"/><path d="M0 0c-.356.438-.896.657-1.621.657-.726 0-1.27-.219-1.631-.657-.363-.438-.545-.917-.545-1.437 0-.546.182-1.037.545-1.466.361-.432.905-.648 1.631-.648.725 0 1.265.216 1.621.648.354.429.534.92.534 1.466C.534-.917.354-.438 0 0m7.282-13.851H5.109v4.536c0 .164-.039.283-.113.358-.076.075-.209.113-.4.113h-8.967v1.888h8.823c.301.259.516.619.646 1.078.131.457.195.926.195 1.405v8.494h2.339V-.351h2.852v-1.865H7.632v-2.299c0-.561-.113-1.04-.338-1.436a3.785 3.785 0 0 0-.81-1.005c.327-.028.588-.172.779-.431.192-.26.279-.575.267-.944ZM3.652.759h-1.54a4.34 4.34 0 0 0 .513-1.046c.124-.37.185-.753.185-1.15 0-.561-.106-1.08-.316-1.56A4.027 4.027 0 0 0 1.6-4.269a4.485 4.485 0 0 0-1.405-.84c-.541-.206-1.146-.309-1.816-.309-.697 0-1.323.103-1.879.309a4.184 4.184 0 0 0-1.404.84c-.383.37-.674.794-.871 1.272a4.03 4.03 0 0 0-.298 1.56A3.767 3.767 0 0 0-5.377.759h-1.538v1.846h3.878c.082.164.137.349.164.554.027.205.027.445 0 .718a5.802 5.802 0 0 1-.184.74l2.277.676c.083-.205.146-.418.195-.636a2.887 2.887 0 0 0-.019-1.375 4.23 4.23 0 0 0-.236-.677h4.492z" style="fill:#77787b;fill-opacity:1;fill-rule:nonzero;stroke:none" transform="matrix(3.93223 0 0 -3.93223 389.944 74.526)"/><path d="M0 0c-.707 0-1.241-.215-1.592-.638-.352-.425-.531-.898-.531-1.403 0-.533.179-1.016.531-1.435.349-.417.885-.627 1.592-.627.706 0 1.238.21 1.583.627.344.419.52.902.52 1.435 0 .505-.176.978-.522 1.403C1.238-.215.706 0 0 0m0-4.206c-.737 0-1.3.225-1.671.664a2.274 2.274 0 0 0-.555 1.501c0 .529.186 1.024.555 1.468.371.448.934.676 1.671.676s1.296-.228 1.66-.676c.362-.446.544-.939.544-1.468 0-.557-.182-1.061-.544-1.501-.364-.439-.923-.664-1.66-.664M-5.244.206h1.588l-.057-.082a3.697 3.697 0 0 1-.688-2.165c0-.553.097-1.07.293-1.541.195-.469.485-.891.86-1.254a4.13 4.13 0 0 1 1.388-.83C-1.314-5.868-.688-5.97 0-5.97c.66 0 1.266.102 1.797.304.533.201.999.482 1.39.832.375.361.671.783.879 1.254.21.471.315.988.315 1.539 0 .389-.062.77-.183 1.132A4.34 4.34 0 0 1 3.691.126l-.052.08h1.582V1.95H.699l.035.072c.094.203.171.427.232.669.06.24.09.491.09.746 0 .186-.024.389-.069.604a4.263 4.263 0 0 1-.176.585l-2.182-.649a5.46 5.46 0 0 0 .17-.696c.028-.28.028-.525 0-.733a1.767 1.767 0 0 0-.17-.569l-.012-.029h-3.861ZM0-6.074c-.701 0-1.338.105-1.895.312a4.202 4.202 0 0 0-1.423.852 3.804 3.804 0 0 0-.885 1.291 4.07 4.07 0 0 0-.3 1.578A3.798 3.798 0 0 0-3.854.103h-1.492v1.95h3.899c.072.15.118.322.144.508.027.201.027.439 0 .706a4.427 4.427 0 0 1-.071.333 4.06 4.06 0 0 1-.112.395l-.015.05 2.372.707.019-.045c.081-.205.147-.422.196-.643.049-.222.073-.433.073-.627 0-.263-.032-.522-.093-.771a4.005 4.005 0 0 0-.207-.613h4.465V.103H3.828c.196-.308.354-.637.467-.979.124-.374.188-.766.188-1.165 0-.566-.108-1.097-.323-1.58a4.063 4.063 0 0 0-.903-1.289 4.532 4.532 0 0 0-1.424-.852A5.141 5.141 0 0 0 0-6.074m6.781-8.329h2.074L9.1-8.934c.013.357-.073.663-.257.912a.981.981 0 0 1-.743.411l-.121.009.091.081c.31.269.579.602.8.992.221.384.333.861.333 1.41v2.349h2.85v1.765h-2.85v4.37H6.965v-8.443a5.2 5.2 0 0 0-.197-1.42c-.131-.466-.355-.836-.662-1.101l-.014-.012h-8.79v-1.785h8.915c.207 0 .349-.043.435-.129.086-.085.129-.219.129-.394zm2.172-.103H6.679v4.587c0 .148-.033.257-.098.32-.066.066-.188.099-.364.099h-9.018v1.991h8.855c.285.251.491.6.616 1.04.128.451.194.919.194 1.391v8.546h2.441V-.903h2.851v-1.97H9.305v-2.246c0-.568-.117-1.06-.346-1.461a3.875 3.875 0 0 0-.737-.944c.291-.051.525-.197.703-.438.197-.267.291-.596.278-.975Z" style="fill:#77787b;fill-opacity:1;fill-rule:nonzero;stroke:none" transform="matrix(3.93223 0 0 -3.93223 383.57 72.15)"/><path d="M329.441 367.369h4.563V344.48h-4.563zm-13.844-29.611c0-.402.087-.694.263-.88.172-.187.446-.283.819-.283h8.924c1.599 0 3.065.1 4.4.284 1.333.185 2.76.52 4.278.998l.965-3.44a36.33 36.33 0 0 0-2.403-.719 30.657 30.657 0 0 0-2.16-.482 27.486 27.486 0 0 0-2.28-.238 44.33 44.33 0 0 0-2.762-.087H315.48c-1.388 0-2.474.305-3.262.923-.787.612-1.18 1.558-1.18 2.839v9.004h4.56zm-8.6 29.053h12.882c1.067 0 1.781-.29 2.142-.863.359-.574.513-1.235.46-1.982a14.425 14.425 0 0 0-.96-3.841c-.506-1.282-1.203-2.52-2.082-3.72a4.601 4.601 0 0 0 1.44-.44c.428-.215.842-.482 1.242-.801.642-.615 1.4-1.436 2.281-2.46a148.68 148.68 0 0 0 2.643-3.18l-2.924-2.563a94.083 94.083 0 0 1-2.44 2.922c-.748.854-1.481 1.68-2.201 2.48-.32.295-.66.554-1.02.783-.36.225-.807.392-1.341.499-1.225-1.281-2.653-2.469-4.283-3.561a37.49 37.49 0 0 0-5.32-2.962l-1.92 3.559c3.28 1.525 5.908 3.278 7.882 5.265 1.973 1.985 3.282 4.021 3.923 6.1.1.401.087.688-.062.862-.147.172-.379.261-.7.261h-9.642z" style="fill:#77787b;fill-opacity:1;fill-rule:nonzero;stroke:none;stroke-width:1.95013" transform="matrix(2.01639 0 0 -2.01639 -181.88 799.47)"/><path d="m0 0 .028-.006a2.11 2.11 0 0 0 .706-.265c.185-.116.362-.252.529-.405.364-.404.743-.831 1.133-1.277.375-.428.785-.919 1.219-1.457l1.421 1.246c-.439.544-.884 1.08-1.323 1.592-.448.521-.841.946-1.166 1.258a3.445 3.445 0 0 1-.623.4 2.378 2.378 0 0 1-.724.223l-.083.011.05.069a8.57 8.57 0 0 1 1.061 1.898c.256.647.42 1.305.488 1.955.028.368-.051.7-.229.983-.172.277-.527.418-1.053.418h-6.556V4.878h4.893c.179 0 .314-.05.398-.153.088-.102.103-.262.043-.486C-.118 3.167-.8 2.106-1.812 1.086-2.814.078-4.163-.825-5.82-1.599l.937-1.737c.961.446 1.862.947 2.676 1.496A13.194 13.194 0 0 1-.02-.021zm3.603-3.556-.034.04a47.913 47.913 0 0 1-1.251 1.497c-.387.444-.769.872-1.128 1.271a3.795 3.795 0 0 1-.512.392c-.172.107-.387.19-.642.243a13.487 13.487 0 0 0-2.184-1.813 19.454 19.454 0 0 0-2.737-1.522l-.044-.021-.022.043-1.012 1.874.05.022c1.669.775 3.024 1.679 4.027 2.689C-.885 2.167-.211 3.213.112 4.267c.05.186.044.319-.02.393-.065.076-.172.115-.321.115h-4.995v1.969h6.658c.562 0 .947-.156 1.141-.463a1.71 1.71 0 0 0 .244-1.049 7.491 7.491 0 0 0-.497-1.984 8.603 8.603 0 0 0-1.023-1.853 2.49 2.49 0 0 0 .671-.215c.221-.113.44-.254.645-.418.331-.317.726-.742 1.176-1.267.449-.526.906-1.075 1.356-1.633l.031-.038-.037-.033Zm2.786-1.149h2.236V6.929H6.389Zm2.34-.102H6.287v11.84h2.442zm-11.78.615v-4.564c0-.637.198-1.114.588-1.416.391-.307.943-.461 1.641-.461h5.211c.529 0 1.004.013 1.412.039.408.03.799.071 1.166.123a16.869 16.869 0 0 1 2.283.598l-.465 1.667a13.563 13.563 0 0 0-2.153-.498 16.439 16.439 0 0 0-2.264-.145H-.208c-.205 0-.359.054-.458.161-.099.105-.146.265-.146.486v4.01zm7.44-6.544H-.822c-.721 0-1.293.161-1.705.483-.414.323-.626.826-.626 1.497v4.668H-.71v-4.114c0-.192.041-.331.12-.417.078-.084.207-.127.382-.127h4.576c.812 0 1.569.048 2.249.142.68.096 1.416.268 2.187.512l.051.016.52-1.862-.047-.015c-.45-.152-.866-.276-1.233-.372-.37-.095-.742-.177-1.112-.247a14.65 14.65 0 0 0-1.174-.123 22.009 22.009 0 0 0-1.42-.041" style="fill:#77787b;fill-opacity:1;fill-rule:nonzero;stroke:none" transform="matrix(3.93223 0 0 -3.93223 457.483 86.166)"/><path d="M0 0c-.376.258-.982.389-1.815.389-.85 0-1.457-.131-1.827-.389-.369-.26-.554-.631-.554-1.108 0-.493.195-.867.584-1.119.391-.253.989-.378 1.797-.378.792 0 1.388.125 1.784.378.397.252.596.626.596 1.119C.565-.631.375-.26 0 0m.092-10.373c-.479.322-1.088.483-1.826.483-.753 0-1.369-.161-1.846-.483-.479-.322-.718-.769-.718-1.343 0-.575.239-1.026.718-1.354.477-.328 1.093-.493 1.846-.493.738 0 1.347.165 1.826.493.478.328.718.779.718 1.354 0 .574-.24 1.021-.718 1.343m2.657-2.955a3.489 3.489 0 0 0-1.058-1.138 4.642 4.642 0 0 0-1.558-.688 7.934 7.934 0 0 0-1.867-.215c-.67 0-1.302.073-1.896.215a4.903 4.903 0 0 0-1.573.668c-.449.3-.806.68-1.065 1.138-.26.459-.389 1.003-.389 1.632 0 .614.129 1.155.389 1.621.259.464.616.848 1.065 1.148.453.315.976.547 1.573.697a7.625 7.625 0 0 0 1.896.227c.669 0 1.299-.075 1.888-.227a4.751 4.751 0 0 0 1.559-.697 3.37 3.37 0 0 0 1.047-1.148c.26-.466.391-1.007.391-1.621 0-.617-.135-1.152-.402-1.612M4.278.431H2.473a3.16 3.16 0 0 0 .328-.719c.082-.26.123-.533.123-.82 0-.576-.123-1.071-.37-1.488a3.03 3.03 0 0 0-1.025-1.036A4.612 4.612 0 0 0 .03-4.238a8.332 8.332 0 0 0-1.845-.196c-.672 0-1.294.066-1.868.196a4.616 4.616 0 0 0-1.498.606 2.94 2.94 0 0 0-1.015 1.036c-.24.417-.36.912-.36 1.488 0 .287.039.56.113.82.075.26.188.5.34.719H-7.91v1.825h4.782c.081.233.104.471.072.719a4.967 4.967 0 0 1-.174.759l2.296.636c.055-.192.106-.376.153-.554.05-.178.073-.364.073-.554 0-.178-.017-.353-.051-.524a2.208 2.208 0 0 0-.154-.482h5.191ZM6.227-7.12H-9.571v1.847H6.227Z" style="fill:#77787b;fill-opacity:1;fill-rule:nonzero;stroke:none" transform="matrix(3.93223 0 0 -3.93223 536.479 70.17)"/><path d="M0 0c-.834 0-1.438-.128-1.797-.381-.359-.251-.532-.601-.532-1.065 0-.473.189-.834.56-1.076.381-.246.975-.372 1.769-.372.78 0 1.369.126 1.755.372.386.245.572.596.572 1.076 0 .457-.181.816-.542 1.065C1.419-.128.818 0 0 0m0-2.996c-.814 0-1.427.131-1.823.389-.405.261-.609.652-.609 1.161 0 .493.193.88.576 1.149.378.265 1.001.399 1.856.399.84 0 1.461-.134 1.845-.399.388-.269.586-.656.586-1.149 0-.511-.209-.9-.619-1.163C1.409-2.865.799-2.996 0-2.996M-6.043.143h1.853l-.057-.08a2.406 2.406 0 0 1-.331-.704 2.868 2.868 0 0 1-.112-.805c0-.564.119-1.056.353-1.462.234-.409.57-.752.999-1.019.417-.27.915-.47 1.481-.599A8.457 8.457 0 0 1 0-4.719c.649 0 1.267.065 1.834.193a4.597 4.597 0 0 1 1.481.599c.43.267.769.61 1.01 1.019.24.407.362.898.362 1.462 0 .28-.04.55-.121.804a3.024 3.024 0 0 1-.322.706l-.05.079h1.848v1.724H.822l.032.073c.068.144.118.304.151.47.034.168.051.34.051.513 0 .186-.025.368-.07.541-.045.162-.09.331-.14.505l-2.199-.61c.076-.242.129-.484.163-.716a1.583 1.583 0 0 0-.075-.742l-.012-.034h-4.766ZM0-4.822c-.673 0-1.303.065-1.88.196a4.691 4.691 0 0 0-1.514.612c-.442.277-.79.632-1.032 1.055-.243.422-.366.931-.366 1.513 0 .291.039.572.115.834.068.233.164.452.293.653h-1.762v1.928h4.795c.07.212.089.435.059.661a4.857 4.857 0 0 1-.173.75l-.016.05 2.398.664.014-.048.153-.556c.049-.181.075-.372.075-.567 0-.178-.018-.359-.053-.532a2.265 2.265 0 0 0-.127-.422h5.167V.041H4.378c.117-.202.213-.42.286-.652.084-.263.127-.544.127-.835 0-.582-.128-1.091-.378-1.513A3.076 3.076 0 0 0 3.37-4.014a4.664 4.664 0 0 0-1.514-.612A8.38 8.38 0 0 0 0-4.822m-7.706-2.585H7.991v1.745H-7.706Zm15.8-.103H-7.807v1.95H8.094ZM.081-10.28c-.739 0-1.35-.159-1.818-.474-.469-.313-.695-.74-.695-1.301 0-.553.234-.996.695-1.312.468-.321 1.079-.483 1.818-.483.725 0 1.329.162 1.797.483.462.316.697.759.697 1.312 0 .554-.235.992-.697 1.301-.468.315-1.072.474-1.797.474m0-3.673c-.76 0-1.391.169-1.875.502-.49.336-.741.805-.741 1.396 0 .59.251 1.057.741 1.387.484.325 1.117.491 1.875.491.744 0 1.37-.166 1.857-.491.49-.33.739-.797.739-1.387 0-.591-.249-1.06-.739-1.396-.487-.333-1.111-.502-1.857-.502m0 5.541a7.74 7.74 0 0 1-1.885-.225 4.715 4.715 0 0 1-1.553-.69 3.298 3.298 0 0 1-1.052-1.131c-.254-.456-.383-.993-.383-1.597 0-.617.129-1.157.383-1.606a3.32 3.32 0 0 1 1.051-1.121 4.817 4.817 0 0 1 1.553-.659 8 8 0 0 1 1.886-.215c.65 0 1.273.072 1.857.215a4.56 4.56 0 0 1 1.54.679c.43.296.781.673 1.043 1.122.259.449.392.982.392 1.585 0 .604-.128 1.141-.384 1.597-.254.454-.6.837-1.03 1.131-.444.31-.964.542-1.543.69a7.616 7.616 0 0 1-1.875.225m0-7.348c-.672 0-1.313.074-1.909.219a4.933 4.933 0 0 0-1.587.674 3.392 3.392 0 0 0-1.084 1.156c-.264.464-.396 1.021-.396 1.656 0 .621.132 1.176.396 1.646.263.47.628.864 1.084 1.165a4.79 4.79 0 0 0 1.587.706 7.778 7.778 0 0 0 1.909.227c.671 0 1.311-.076 1.901-.227a4.815 4.815 0 0 0 1.576-.706 3.427 3.427 0 0 0 1.061-1.165c.262-.472.397-1.026.397-1.646 0-.62-.137-1.172-.407-1.636a3.589 3.589 0 0 0-1.072-1.155 4.688 4.688 0 0 0-1.576-.695 7.887 7.887 0 0 0-1.88-.219" style="fill:#77787b;fill-opacity:1;fill-rule:nonzero;stroke:none" transform="matrix(3.93223 0 0 -3.93223 529.342 68.84)"/><path d="M0 0v15.942h2.175v-5.93H4.33v5.93h2.195V-.412H4.33v8.414H2.175V0Zm-10.238 4.615C-8.557 6.053-7.301 7.43-6.473 8.75c.828 1.32 1.378 2.636 1.651 3.95.042.205.035.359-.019.462-.055.102-.185.153-.391.153H-9.52v1.928h5.684c.547 0 .919-.139 1.117-.42.199-.281.293-.666.278-1.158a9.688 9.688 0 0 0-.502-2.647 13.78 13.78 0 0 0-1.16-2.546c.288-.068.554-.17.8-.306.246-.138.465-.328.658-.576.136-.204.29-.434.461-.687.171-.252.345-.524.523-.81.19-.286.386-.592.585-.913.197-.322.4-.645.603-.974l-1.68-1.231c-.451.738-.825 1.343-1.118 1.815-.295.472-.58.899-.852 1.282-.07.069-.134.145-.196.227-.061.08-.132.157-.215.224a4.527 4.527 0 0 1-.267.207 1.284 1.284 0 0 1-.327.164 19.058 19.058 0 0 0-1.756-2.093 24.519 24.519 0 0 0-1.999-1.848Z" style="fill:#77787b;fill-opacity:1;fill-rule:nonzero;stroke:none" transform="matrix(3.93223 0 0 -3.93223 601.624 122.208)"/><path d="m0 0 1.291-1.583c.677.56 1.334 1.17 1.956 1.81.629.65 1.218 1.353 1.749 2.087l.023.03.034-.011c.125-.042.24-.1.343-.171.096-.072.187-.141.269-.207.085-.072.16-.151.225-.235.06-.082.123-.156.188-.22.279-.39.567-.823.86-1.293.287-.459.652-1.054 1.089-1.769L9.626-.391l-.581.934a31.84 31.84 0 0 1-.582.912c-.18.289-.356.563-.524.81l-.461.688a2.115 2.115 0 0 1-.64.558 3.06 3.06 0 0 1-.787.303l-.068.016.036.059c.475.814.862 1.667 1.154 2.535.292.868.461 1.753.499 2.633.016.479-.075.858-.266 1.128-.187.264-.549.399-1.076.399H.697V8.758h4.237c.224 0 .371-.062.437-.182.06-.115.068-.277.025-.495-.274-1.313-.833-2.648-1.66-3.968C2.916 2.807 1.66 1.422 0 0m1.275-1.728-.031.04-1.388 1.7.039.033C1.566 1.473 2.83 2.859 3.65 4.167c.819 1.31 1.373 2.632 1.644 3.934.038.192.034.335-.015.426-.046.085-.161.128-.345.128H.595v2.031H6.33c.562 0 .952-.149 1.159-.442.204-.288.302-.687.288-1.19a9.79 9.79 0 0 0-.506-2.662 13.906 13.906 0 0 0-1.13-2.496c.266-.068.516-.167.747-.296a2.21 2.21 0 0 0 .672-.587c.139-.208.293-.437.465-.69.168-.25.344-.523.523-.811.188-.283.386-.59.585-.915l.604-.974.027-.04L7.998-1.71l-.029.049c-.45.734-.825 1.346-1.118 1.815-.292.467-.578.898-.851 1.28a2.286 2.286 0 0 0-.194.224 1.315 1.315 0 0 1-.206.217 4.365 4.365 0 0 1-.266.204 1.142 1.142 0 0 1-.278.144A18.956 18.956 0 0 0 3.319.155a24.242 24.242 0 0 0-2.004-1.85Zm13.272-3.241h2.094v16.25h-2.094V5.352h-2.256v5.929h-2.073v-15.84h2.073v8.001h2.256zm2.197-.103h-2.3v8.413h-2.05v-8.003h-2.279v16.047h2.279V5.454h2.05v5.931h2.3z" style="fill:#77787b;fill-opacity:1;fill-rule:nonzero;stroke:none" transform="matrix(3.93223 0 0 -3.93223 561.649 104.083)"/><path d="M0 0c.048-.096.167-.145.36-.145h4.882c.821 0 1.543.042 2.166.125.622.082 1.323.232 2.102.451l.492-1.744c-.901-.287-1.679-.478-2.328-.574a14.874 14.874 0 0 0-2.185-.145H-.317c-.712 0-1.239.147-1.58.443-.342.293-.512.719-.512 1.28v4.7h2.338V.431C-.071.239-.048.096 0 0m-2.081 6.484c-.809 0-1.418.18-1.825.543-.412.362-.617.933-.617 1.714v6.608h8.638v-1.89h-6.321V8.966c0-.205.038-.355.113-.45.075-.097.209-.144.4-.144h2.831c.371 0 .798.02 1.283.061.486.041.982.116 1.488.226.521.109 1.036.26 1.549.45.514.193.996.437 1.447.74v5.786h2.34v-4.659h2.851V9.109H9.245V3.694h-2.34v4.041a10.297 10.297 0 0 0-2.832-.964 15.426 15.426 0 0 0-2.872-.287Z" style="fill:#77787b;fill-opacity:1;fill-rule:nonzero;stroke:none" transform="matrix(3.93223 0 0 -3.93223 653.622 120.194)"/><path d="M0 0h2.236v5.417h2.852v1.764H2.236v4.657H0V6.077l-.024-.015a7.059 7.059 0 0 0-1.455-.745 11.879 11.879 0 0 0-3.051-.68 15.621 15.621 0 0 0-1.288-.062h-2.831c-.206 0-.355.056-.439.164-.083.106-.123.264-.123.483v4.545h6.318v1.785h-8.535V4.997c0-.763.201-1.326.598-1.675.4-.352 1.001-.532 1.793-.532h3.282c.898 0 1.86.096 2.862.287 1.003.19 1.952.512 2.818.96L0 4.074Zm2.34-.102H-.102v4.009a10.483 10.483 0 0 0-2.771-.931 15.6 15.6 0 0 0-2.882-.289h-3.282c-.818 0-1.444.189-1.861.558-.42.37-.632.959-.632 1.752v6.656h8.741V9.665h-6.32V5.222c0-.194.034-.335.101-.42.065-.081.186-.124.359-.124h2.831c.366 0 .797.021 1.279.061.484.042.982.117 1.48.226.518.107 1.038.26 1.543.448.499.185.974.426 1.414.718v5.811H2.34V7.284h2.852v-1.97H2.34ZM-9.314.595v-4.648c0-.541.166-.96.494-1.243.33-.284.851-.428 1.547-.428h5.806c.799 0 1.533.048 2.177.142.635.094 1.4.283 2.274.557L2.52-3.376a15.125 15.125 0 0 0-2.063-.44 16.867 16.867 0 0 0-2.171-.123h-4.882c-.212 0-.349.057-.405.172-.051.102-.078.252-.078.454V.595zm7.847-6.422h-5.806c-.72 0-1.264.153-1.614.454-.353.303-.53.748-.53 1.32V.698h2.44v-4.011c0-.184.023-.321.067-.409.039-.076.144-.115.314-.115h4.882c.816 0 1.542.042 2.159.123.616.082 1.323.233 2.097.45l.05.014.518-1.842-.047-.014c-.899-.287-1.687-.481-2.337-.577a15.187 15.187 0 0 0-2.193-.144" style="fill:#77787b;fill-opacity:1;fill-rule:nonzero;stroke:none" transform="matrix(3.93223 0 0 -3.93223 680.975 105.47)"/></svg>