<svg xmlns="http://www.w3.org/2000/svg" width="2683.1438mm" height="400mm" viewBox="0 0 2683.1438 400"><defs><linearGradient id="b" x1="0" x2="1" y1="0" y2="0" gradientTransform="rotate(-108.315 -486.255 345.955) scale(340.93204)" gradientUnits="userSpaceOnUse" spreadMethod="pad"><stop offset="0" style="stop-opacity:1;stop-color:#002d76"/><stop offset="0.0395792" style="stop-opacity:1;stop-color:#002d76"/><stop offset="0.10863409" style="stop-opacity:1;stop-color:#002d76"/><stop offset="0.557684" style="stop-opacity:1;stop-color:#0090ca"/><stop offset="0.58244325" style="stop-opacity:1;stop-color:#0090ca"/><stop offset="0.948867" style="stop-opacity:1;stop-color:#1eb8ce"/><stop offset="1" style="stop-opacity:1;stop-color:#1eb8ce"/></linearGradient><linearGradient id="c" x1="0" x2="1" y1="0" y2="0" gradientTransform="scale(260.5784) rotate(44.789 -1.749 -5.834)" gradientUnits="userSpaceOnUse" spreadMethod="pad"><stop offset="0" style="stop-opacity:1;stop-color:#002d76"/><stop offset="0.08031619" style="stop-opacity:1;stop-color:#002d76"/><stop offset="0.602596" style="stop-opacity:1;stop-color:#0090ca"/><stop offset="0.62451263" style="stop-opacity:1;stop-color:#0090ca"/><stop offset="0.948867" style="stop-opacity:1;stop-color:#1eb8ce"/><stop offset="1" style="stop-opacity:1;stop-color:#1eb8ce"/></linearGradient><linearGradient id="d" x1="0" x2="1" y1="0" y2="0" gradientTransform="scale(-256.64298) rotate(-40.272 3.4 -5.321)" gradientUnits="userSpaceOnUse" spreadMethod="pad"><stop offset="0" style="stop-opacity:1;stop-color:#002d76"/><stop offset="0.07957513" style="stop-opacity:1;stop-color:#002d76"/><stop offset="0.597036" style="stop-opacity:1;stop-color:#0090ca"/><stop offset="0.61930454" style="stop-opacity:1;stop-color:#0090ca"/><stop offset="0.948867" style="stop-opacity:1;stop-color:#1eb8ce"/><stop offset="1" style="stop-opacity:1;stop-color:#1eb8ce"/></linearGradient><clipPath id="a" clipPathUnits="userSpaceOnUse"><path d="M0 95h493V0H0Z"/></clipPath><clipPath id="e" clipPathUnits="userSpaceOnUse"><path d="M0 95h493V0H0Z"/></clipPath></defs><g clip-path="url(#a)" transform="matrix(5.87389 0 0 -5.87389 -88.72 479.01)"><path d="M0 0h-20.48a4.408 4.408 0 0 0 0 8.814H0A4.407 4.407 0 1 0 0 0" style="fill:#2286b4;fill-opacity:1;fill-rule:nonzero;stroke:none" transform="translate(190.35 43.093)"/><path d="M0 0c-1.032 0-2.069.36-2.906 1.096l-18.205 15.985a4.406 4.406 0 0 0 2.908 7.718h2.311c6.334 0 11.487 5.153 11.487 11.486 0 6.334-5.153 11.486-11.487 11.486h-20.516a4.408 4.408 0 0 0 0 8.814h20.516c11.194 0 20.301-9.106 20.301-20.3 0-8.48-5.227-15.763-12.629-18.795L2.91 7.719A4.409 4.409 0 0 0 0 0" style="fill:#2286b4;fill-opacity:1;fill-rule:nonzero;stroke:none" transform="translate(137.66 19.352)"/><path d="M0 0a4.407 4.407 0 0 0-4.407 4.407v18.934c0 9.546 7.766 17.311 17.312 17.311h5.044a4.406 4.406 0 1 0 0-8.813h-5.044c-4.686 0-8.498-3.812-8.498-8.498V4.407A4.407 4.407 0 0 0 0 0" style="fill:#2286b4;fill-opacity:1;fill-rule:nonzero;stroke:none" transform="translate(101.252 19.2)"/><path d="M0 0h-25.054c-8.691 0-15.763 7.071-15.763 15.763v25.075c0 8.692 7.072 15.764 15.763 15.764H0a4.408 4.408 0 0 0 0-8.814h-25.054c-3.831 0-6.949-3.118-6.949-6.95V15.763c0-3.832 3.118-6.95 6.949-6.95H0A4.406 4.406 0 1 0 0 0" style="fill:#2286b4;fill-opacity:1;fill-rule:nonzero;stroke:none" transform="translate(190.315 19.2)"/><path d="M0 0c3.198 2.987 5.203 7.236 5.203 11.947 0 9.017-7.336 16.354-16.354 16.354h-24.463a4.407 4.407 0 1 1 0-8.814h24.463c4.157 0 7.54-3.383 7.54-7.54s-3.383-7.54-7.54-7.54h-24.463a4.407 4.407 0 1 1 0-8.814h24.463c4.157 0 7.54-3.382 7.54-7.54 0-4.157-3.383-7.54-7.54-7.54h-24.463a4.407 4.407 0 1 1 0-8.814h24.463c9.018 0 16.354 7.336 16.354 16.354C5.203-7.236 3.198-2.987 0 0" style="fill:#00b9ef;fill-opacity:1;fill-rule:nonzero;stroke:none" transform="translate(242.357 47.5)"/></g><path d="M-1155.357-311.724a154.975 154.975 0 0 1 61.893 21.91c25.205 15.565 45.317 37.986 58.151 64.841 21.328 44.624 19.725 97.172-3.818 140.815-15.084 27.977-36.594 47.22-48.119 56.935 21.534 13.299 46.11 20.271 71.744 20.271 38.932 0 76.02-16.6 102.024-45.616 7.495-21.305 11.29-43.626 11.29-66.364 0-110.282-89.713-200-199.995-200a200.39 200.39 0 0 0-53.17 7.208" style="fill:url(#b);stroke:none;stroke-width:5.87389" transform="translate(1302.187 318.932)"/><path d="M-1200.128-146.04c-25.2 25.74-39.08 59.756-39.08 95.792 0 50.057 27.232 96.032 71.104 120.156 21.223 7.413 43.397 11.16 65.917 11.16 69.987 0 134.142-36.84 170.102-94.804-19.93 13.18-51.579 24.917-83.42 24.465-43.362-.611-74.076-16.477-92.538-30.744-47.314-36.577-69.47-76.596-69.676-109.413-.094-15.93 4.934-30.744 13.38-42.962-13.128 6.69-25.204 15.53-35.79 26.35" style="fill:url(#c);stroke:none;stroke-width:5.87389" transform="translate(1302.187 318.932)"/><path d="M-1201.062-292.763c-62.41 35.572-101.125 102.053-101.125 173.831 0 59.115 26.15 113.913 69.112 151.183a154.579 154.579 0 0 1-23.813-82.5c0-40.688 15.672-79.097 44.125-108.16 28.377-28.994 63.244-47.78 107.375-48.067 26.779-.17 53.546 15.53 66.962 36.606-1.363-16.294-5.633-32.412-12.846-47.484-19.578-40.965-66.275-78.24-122.782-78.24-8.787 0-17.81.904-27.008 2.83" style="fill:url(#d);stroke:none;stroke-width:5.87389" transform="translate(1302.187 318.932)"/><g clip-path="url(#e)" transform="matrix(5.87389 0 0 -5.87389 -88.72 479.01)"><path d="M0 0h-2.553l-5.981-5.607V0h-1.79v-11.888h1.79v3.875l2.073 1.938 4.364-5.813H.146l-5.292 7.034z" style="fill:#727272;fill-opacity:1;fill-rule:nonzero;stroke:none" transform="translate(277.547 30.976)"/><path d="M0 0c0-.752-.21-1.507-.656-2.073-.447-.567-1.128-.946-2.071-.946-.941 0-1.622.379-2.068.946-.446.566-.657 1.321-.657 2.073 0 .751.211 1.506.657 2.072.446.568 1.127.947 2.068.947.943 0 1.624-.379 2.071-.947C-.21 1.506 0 .751 0 0m-2.727 4.688c-1.329 0-2.458-.482-3.254-1.309C-6.778 2.552-7.243 1.38-7.243 0c0-1.358.475-2.531 1.277-3.364.802-.832 1.931-1.325 3.239-1.325 1.309 0 2.439.493 3.241 1.325C1.315-2.531 1.79-1.358 1.79 0c0 1.38-.464 2.552-1.261 3.379-.797.827-1.925 1.309-3.256 1.309" style="fill:#727272;fill-opacity:1;fill-rule:nonzero;stroke:none" transform="translate(284.773 23.639)"/><path d="M0 0V1.333H-1.789V-7.77H0v4.036c0 .827.25 1.679.73 2.326.481.646 1.193 1.087 2.118 1.087h.404V1.47h-.336a3.578 3.578 0 0 1-1.801-.459A3.608 3.608 0 0 1 0 0" style="fill:#727272;fill-opacity:1;fill-rule:nonzero;stroke:none" transform="translate(290.419 26.857)"/><path d="M0 0v-3.248h-4.891v-11.618h-3.936v25.871h3.936V0Z" style="fill:#727272;fill-opacity:1;fill-rule:nonzero;stroke:none" transform="translate(296.794 64.87)"/><path d="M0 0a5.412 5.412 0 0 0-5.405 5.406A5.413 5.413 0 0 0 0 10.813a5.413 5.413 0 0 0 5.406-5.407A5.412 5.412 0 0 0 0 0m10.185 14.406H1.969v3.974h-3.937v-3.974h-8.216v-3.134h3.604a8.783 8.783 0 0 1-2.24-5.866C-8.82.542-4.863-3.415 0-3.415c4.864 0 8.821 3.957 8.821 8.821a8.783 8.783 0 0 1-2.24 5.866h3.604z" style="fill:#727272;fill-opacity:1;fill-rule:nonzero;stroke:none" transform="translate(275.184 57.533)"/><path d="M0 0h-18.395c-3.261 0-5.916 2.732-5.916 6.091v4.153h3.415V6.091c0-1.475 1.123-2.676 2.501-2.676H0Z" style="fill:#727272;fill-opacity:1;fill-rule:nonzero;stroke:none" transform="translate(292.38 41.418)"/><path d="M0 0v-3.248h-4.892v-11.847h-3.936v25.451h3.936V0Zm-13.49-9.707c-3.822 1.338-6.611 4.089-8.14 7.452-1.49-3.783-4.356-6.725-8.407-8.178l-2.14 3.058c5.541 1.872 8.484 6.534 8.484 11.578v4.013h3.974V4.165c0-4.585 2.981-8.942 8.216-10.738z" style="fill:#727272;fill-opacity:1;fill-rule:nonzero;stroke:none" transform="translate(440.322 65.557)"/><path d="M0 0h-18.091c-3.262 0-5.915 2.732-5.915 6.091v4.153h3.414V6.091c0-1.475 1.122-2.676 2.501-2.676H0Z" style="fill:#727272;fill-opacity:1;fill-rule:nonzero;stroke:none" transform="translate(436.356 41.418)"/><path d="M0 0v3.172h-4.786c.422 2.287.649 5.388.768 7.739a4.095 4.095 0 0 1-1.117 3.018 4.11 4.11 0 0 1-2.966 1.272h-20.211v-3.415h20.211a.672.672 0 0 0 .673-.702c-.176-3.489-.474-6.28-.842-7.912h-22.99V0h12.922v-5.656h-11.799v-3.172h22.17a.968.968 0 0 0 .969-.967v-7.822h3.935v8.089a3.871 3.871 0 0 1-3.872 3.872h-7.429V0Z" style="fill:#727272;fill-opacity:1;fill-rule:nonzero;stroke:none" transform="translate(333.001 59.035)"/><path d="M0 0h-13.796v-11.197h-3.935V0h-13.567v3.172H0Z" style="fill:#727272;fill-opacity:1;fill-rule:nonzero;stroke:none" transform="translate(368.87 52.526)"/><path d="M0 0h-17.669c-.295 0-.457.171-.457.229v3.94H.457V.229C.457.171.295 0 0 0m.457 12.019V7.584h-18.583v4.244h-3.415V.229c0-2.01 1.737-3.644 3.872-3.644H0c2.135 0 3.872 1.634 3.872 3.644v11.79z" style="fill:#727272;fill-opacity:1;fill-rule:nonzero;stroke:none" transform="translate(362.055 61.835)"/><path d="M0 0v-3.21h-31.183V0h13.605v3.439h-7.809a1.936 1.936 0 0 0-1.936 1.936v7.822c0 1.069.867 1.936 1.936 1.936h21.566V12h-18.94a.968.968 0 0 1-.968-.969V7.579c0-.535.433-.968.968-.968h19.169V3.439h-10.051V0Z" style="fill:#727272;fill-opacity:1;fill-rule:nonzero;stroke:none" transform="translate(404.457 59.213)"/><path d="M0 0a4.732 4.732 0 0 1-4.726-4.726A4.732 4.732 0 0 1 0-9.451a4.73 4.73 0 0 1 4.725 4.725A4.731 4.731 0 0 1 0 0m0-12.866c-4.489 0-8.141 3.652-8.141 8.14 0 4.489 3.652 8.141 8.141 8.141 4.488 0 8.14-3.652 8.14-8.141 0-4.488-3.652-8.14-8.14-8.14" style="fill:#727272;fill-opacity:1;fill-rule:nonzero;stroke:none" transform="translate(388.866 51.857)"/><path d="M0 0v21.658h3.937V-5.961H0v2.869h-5.397V0Zm-14.525.458c-3.287-.152-7.104-.19-9.817-.19l-.497 3.21c6.344.038 14.827.114 22.126 1.031l.306-2.827A87.494 87.494 0 0 0-10.59.688v-5.284h-3.935z" style="fill:#727272;fill-opacity:1;fill-rule:nonzero;stroke:none" transform="translate(467.84 54.255)"/><path d="M0 0h-20.424a6.098 6.098 0 0 0-6.091 6.091v4.153h3.415V6.091a2.68 2.68 0 0 1 2.676-2.676H0Z" style="fill:#727272;fill-opacity:1;fill-rule:nonzero;stroke:none" transform="translate(471.777 41.418)"/><path d="M0 0a4.25 4.25 0 0 1-4.246-4.246A4.25 4.25 0 0 1 0-8.491a4.25 4.25 0 0 1 4.245 4.245A4.25 4.25 0 0 1 0 0m0-11.906c-4.225 0-7.66 3.437-7.66 7.66 0 4.224 3.435 7.661 7.66 7.661 4.224 0 7.659-3.437 7.659-7.661 0-4.223-3.435-7.66-7.659-7.66" style="fill:#727272;fill-opacity:1;fill-rule:nonzero;stroke:none" transform="translate(454.575 71.239)"/><path d="M0 0c.161.646.487 1.165.937 1.523.45.36 1.023.557 1.68.557.658 0 1.233-.197 1.683-.557.449-.358.775-.877.935-1.523H2.618Zm2.617 3.75c-1.329 0-2.458-.482-3.255-1.31-.797-.827-1.261-1.999-1.261-3.378 0-1.359.484-2.532 1.301-3.365.818-.832 1.969-1.325 3.302-1.325.992 0 1.858.246 2.562.716.704.47 1.246 1.164 1.593 2.058l.067.17.065.171H5.065l-.035-.065-.035-.066a2.51 2.51 0 0 0-.774-.881c-.367-.254-.855-.432-1.501-.432-.707 0-1.324.219-1.799.609-.476.391-.81.954-.951 1.644h7.165v.766c0 1.379-.464 2.551-1.261 3.378-.797.828-1.927 1.31-3.257 1.31" style="fill:#727272;fill-opacity:1;fill-rule:nonzero;stroke:none" transform="translate(296.568 24.577)"/><path d="M0 0c0-.752-.21-1.507-.656-2.073-.447-.567-1.128-.946-2.071-.946-.96 0-1.658.391-2.117.964-.459.573-.677 1.327-.677 2.055 0 .727.218 1.481.677 2.055.459.572 1.157.964 2.117.964.943 0 1.624-.379 2.071-.947C-.21 1.506 0 .751 0 0m-.069 3.601a3.6 3.6 0 0 1-1.252.811 4.364 4.364 0 0 1-1.578.276c-1.279 0-2.381-.493-3.165-1.326C-6.848 2.53-7.312 1.358-7.312 0s.464-2.531 1.248-3.364c.784-.832 1.886-1.325 3.165-1.325.577 0 1.106.091 1.581.272a3.55 3.55 0 0 1 1.249.803v-.937h1.79v9.103h-1.79v-.476Z" style="fill:#727272;fill-opacity:1;fill-rule:nonzero;stroke:none" transform="translate(312.428 23.639)"/><path d="M0 0c0-.896-.44-1.393-.976-1.665-.535-.272-1.165-.32-1.544-.32h-3.689v3.508c0 .314.254.568.567.568h3.192c.756 0 1.369-.2 1.792-.562C-.234 1.167 0 .645 0 0m1.791 0c0 1.157-.4 2.109-1.112 2.772-.711.665-1.734 1.039-2.975 1.039h-4.003A1.702 1.702 0 0 1-8 2.109V-8.077h1.791v4.37h3.568l1.377-2.186L.112-8.077h2.129L.714-5.732-.813-3.388c.864.251 1.515.661 1.951 1.227.434.566.653 1.287.653 2.161" style="fill:#727272;fill-opacity:1;fill-rule:nonzero;stroke:none" transform="translate(329.549 27.165)"/><path d="M0 0c.161.646.487 1.165.937 1.523.45.36 1.023.557 1.68.557s1.232-.197 1.682-.557c.45-.358.775-.877.936-1.523H2.618Zm2.617 3.75c-1.329 0-2.458-.482-3.255-1.31-.797-.827-1.261-1.999-1.261-3.378 0-1.359.484-2.532 1.301-3.365.818-.832 1.969-1.325 3.302-1.325.992 0 1.858.246 2.562.716.704.47 1.246 1.164 1.593 2.058l.067.17.065.171H5.065l-.035-.065-.035-.066a2.51 2.51 0 0 0-.774-.881c-.367-.254-.855-.432-1.501-.432-.707 0-1.324.219-1.799.609-.476.391-.81.954-.951 1.644h7.165v.766c0 1.379-.464 2.551-1.261 3.378-.797.828-1.927 1.31-3.257 1.31" style="fill:#727272;fill-opacity:1;fill-rule:nonzero;stroke:none" transform="translate(334.806 24.577)"/><path d="M0 0c0-.752-.21-1.507-.656-2.073-.447-.567-1.128-.946-2.071-.946-.822 0-1.52.31-2.013.843-.493.532-.781 1.287-.781 2.176 0 .727.219 1.481.678 2.055.458.572 1.156.964 2.116.964.943 0 1.624-.379 2.071-.947C-.21 1.506 0 .751 0 0m-.068 3.601a3.6 3.6 0 0 1-1.252.811 4.364 4.364 0 0 1-1.578.276c-1.279 0-2.381-.493-3.165-1.326C-6.847 2.53-7.312 1.358-7.312 0s.465-2.531 1.249-3.364c.784-.832 1.886-1.325 3.165-1.325.577 0 1.106.091 1.581.272a3.55 3.55 0 0 1 1.249.803v-.937h1.79v9.103h-1.79v-.476Z" style="fill:#727272;fill-opacity:1;fill-rule:nonzero;stroke:none" transform="translate(350.663 23.639)"/><path d="M0 0H1.789v12.542H0V6.271Z" style="fill:#727272;fill-opacity:1;fill-rule:nonzero;stroke:none" transform="translate(354.984 19.088)"/><path d="M0 0a1.7 1.7 0 0 1 1.701-1.7h7.177V.039h-6.52a.567.567 0 0 0-.567.566v2.769h6.33V5.131h-6.33v2.752c0 .313.254.567.567.567h6.52v1.738H1.701A1.702 1.702 0 0 1 0 8.486V4.243Z" style="fill:#727272;fill-opacity:1;fill-rule:nonzero;stroke:none" transform="translate(364.173 20.788)"/><path d="M0 0c-.681.147-1.229.277-1.605.455-.377.177-.584.401-.584.735 0 .122 0 .369.225.585.225.216.674.403 1.572.403.563 0 .999-.095 1.308-.283.31-.189.49-.47.542-.843l.016-.109.014-.107h1.81l-.018.14-.017.14c-.103.834-.492 1.499-1.115 1.957-.622.457-1.475.706-2.505.706-1.152 0-2.057-.247-2.675-.709-.618-.463-.948-1.139-.948-2.001 0-.963.481-1.549 1.155-1.938s1.54-.579 2.312-.749c.704-.155 1.27-.293 1.659-.482.39-.188.603-.428.603-.788 0-.528-.406-.805-.853-.951a3.845 3.845 0 0 0-1.099-.158c-.908 0-1.437.264-1.744.585a1.557 1.557 0 0 0-.415.927l-.011.112-.012.113H-4.218l.008-.133.007-.131a3.034 3.034 0 0 1 1.038-2.112c.656-.577 1.63-.963 2.945-.963 1.177 0 2.117.265 2.763.751.645.487.996 1.195.996 2.081 0 .999-.49 1.606-1.178 2.004C1.674-.363.789-.172 0 0" style="fill:#727272;fill-opacity:1;fill-rule:nonzero;stroke:none" transform="translate(378.685 24.548)"/><path d="M0 0h-1.79v-3.078h-1.755v-1.637h1.755v-7.466H0v7.466h1.979v1.637H0v1.539z" style="fill:#727272;fill-opacity:1;fill-rule:nonzero;stroke:none" transform="translate(386.957 31.269)"/><path d="M0 0c0-.752-.21-1.507-.656-2.073-.447-.567-1.128-.946-2.071-.946-.822 0-1.52.31-2.013.843-.493.532-.781 1.287-.781 2.176 0 .727.219 1.481.678 2.055.458.572 1.156.964 2.116.964.943 0 1.624-.379 2.071-.947C-.21 1.506 0 .751 0 0m-.068 3.601a3.6 3.6 0 0 1-1.252.811 4.364 4.364 0 0 1-1.578.276c-1.279 0-2.381-.493-3.165-1.326C-6.847 2.53-7.312 1.358-7.312 0s.465-2.531 1.249-3.364c.784-.832 1.886-1.325 3.165-1.325.577 0 1.106.091 1.581.272a3.55 3.55 0 0 1 1.249.803v-.937h1.79v9.103h-1.79v-.476Z" style="fill:#727272;fill-opacity:1;fill-rule:nonzero;stroke:none" transform="translate(397.315 23.639)"/><path d="M0 0h-1.79v-3.078h-1.755v-1.637h1.755v-7.466H0v7.466h1.979v1.637H0v1.539z" style="fill:#727272;fill-opacity:1;fill-rule:nonzero;stroke:none" transform="translate(404.354 31.269)"/><path d="M0 0c.161.646.487 1.165.937 1.523.451.36 1.024.557 1.681.557S3.85 1.883 4.3 1.523c.45-.358.775-.877.936-1.523H2.618Zm2.618 3.75C1.289 3.75.16 3.268-.637 2.44-1.434 1.613-1.898.441-1.898-.938c0-1.359.484-2.532 1.301-3.365.818-.832 1.968-1.325 3.301-1.325.993 0 1.858.246 2.563.716.703.47 1.246 1.164 1.592 2.058l.067.17.065.171H5.066l-.035-.065-.035-.066a2.51 2.51 0 0 0-.774-.881c-.367-.254-.855-.432-1.501-.432-.696 0-1.312.223-1.79.616-.478.394-.818.957-.96 1.637h7.164v.766c0 1.379-.464 2.551-1.261 3.378-.797.828-1.926 1.31-3.256 1.31" style="fill:#727272;fill-opacity:1;fill-rule:nonzero;stroke:none" transform="translate(409.299 24.577)"/><path d="M0 0c0-.707-.346-1.113-.795-1.343-.45-.229-1.003-.282-1.416-.282h-3.431a.567.567 0 0 0-.567.566V1.78H-2.348c.866 0 1.452-.23 1.824-.567C-.154.875 0 .43 0 0m-2.641 3.449h-3.568V6.254c0 .313.254.567.567.567H-2.503c.89 0 1.369-.314 1.627-.677a1.71 1.71 0 0 0 .291-.966c0-.638-.265-1.07-.654-1.343-.39-.272-.905-.386-1.402-.386m2.643-.694c.311.212.612.508.836.918.223.41.367.935.367 1.608 0 .752-.251 1.567-.857 2.194-.608.627-1.569 1.066-2.989 1.066h-3.658A1.702 1.702 0 0 1-8 6.84v-8.486a1.7 1.7 0 0 1 1.701-1.701h3.951c1.277 0 2.311.311 3.027.871.715.561 1.111 1.372 1.111 2.372 0 .839-.256 1.461-.607 1.919a3.296 3.296 0 0 1-1.181.94" style="fill:#727272;fill-opacity:1;fill-rule:nonzero;stroke:none" transform="translate(431.18 22.435)"/><path d="M0 0c0-.752-.21-1.507-.656-2.073-.447-.567-1.128-.946-2.071-.946-.941 0-1.622.379-2.068.946-.446.566-.657 1.321-.657 2.073 0 .751.211 1.506.657 2.072.446.568 1.127.947 2.068.947.943 0 1.624-.379 2.071-.947C-.21 1.506 0 .751 0 0m-2.727 4.688c-1.329 0-2.458-.482-3.254-1.309C-6.778 2.552-7.243 1.38-7.243 0c0-1.358.475-2.531 1.277-3.364.802-.832 1.931-1.325 3.239-1.325 1.309 0 2.439.493 3.241 1.325C1.315-2.531 1.79-1.358 1.79 0c0 1.38-.464 2.552-1.261 3.379-.797.827-1.925 1.309-3.256 1.309" style="fill:#727272;fill-opacity:1;fill-rule:nonzero;stroke:none" transform="translate(441.867 23.639)"/><path d="M0 0c0-.752-.21-1.507-.656-2.073-.447-.567-1.128-.946-2.071-.946-.822 0-1.52.31-2.013.843-.493.532-.781 1.287-.781 2.176 0 .727.219 1.481.678 2.055.458.572 1.156.964 2.116.964.943 0 1.624-.379 2.071-.947C-.21 1.506 0 .751 0 0m-.068 3.601a3.6 3.6 0 0 1-1.252.811 4.364 4.364 0 0 1-1.578.276c-1.279 0-2.381-.493-3.165-1.326C-6.847 2.53-7.312 1.358-7.312 0s.465-2.531 1.249-3.364c.784-.832 1.886-1.325 3.165-1.325.577 0 1.106.091 1.581.272a3.55 3.55 0 0 1 1.249.803v-.937h1.79v9.103h-1.79v-.476Z" style="fill:#727272;fill-opacity:1;fill-rule:nonzero;stroke:none" transform="translate(452.501 23.639)"/><path d="M0 0V1.333h-1.79V-7.77H0v4.036c0 .827.25 1.679.73 2.326.481.646 1.193 1.087 2.117 1.087h.404V1.47h-.335a3.578 3.578 0 0 1-1.801-.459A3.608 3.608 0 0 1 0 0" style="fill:#727272;fill-opacity:1;fill-rule:nonzero;stroke:none" transform="translate(458.612 26.857)"/><path d="M0 0c0-.752-.21-1.507-.656-2.073-.447-.567-1.128-.946-2.071-.946-.822 0-1.521.31-2.013.843-.493.532-.781 1.287-.781 2.176 0 .727.218 1.481.677 2.055.459.572 1.157.964 2.117.964.943 0 1.624-.379 2.071-.947C-.21 1.506 0 .751 0 0m-.069 7.991v-4.39a3.592 3.592 0 0 1-1.251.811 4.364 4.364 0 0 1-1.578.276c-1.279 0-2.381-.493-3.165-1.326C-6.847 2.53-7.312 1.358-7.312 0s.465-2.531 1.249-3.364c.784-.832 1.886-1.325 3.165-1.325.577 0 1.106.091 1.581.272.473.181.892.449 1.248.802v-.936h1.791V7.991H.826Z" style="fill:#727272;fill-opacity:1;fill-rule:nonzero;stroke:none" transform="translate(470.174 23.639)"/></g></svg>