<svg xmlns="http://www.w3.org/2000/svg" width="871.29657pt" height="375pt" fill-rule="evenodd" viewBox="0 0 871.2965 374.99999"><path d="M15.639 318.374c0-11.003-9.704-16.731-17.33-19.19v-12.382h53.5v152.813H-6.404l-91.337-103.579v103.58H-133.9V318.373c0-11.003-9.704-16.731-17.336-19.19v-12.382h62.382L15.64 404.618ZM261.692 286.809v23.88H134.1v37.643h119.918v23.934H134.1v43.578h127.592l6.502 23.765H89.966V317.861c0-10.188-9.613-16.097-17.305-18.605v-12.447zM322.624 363.281c0-37.861 31.638-58.34 59.336-58.34 20.387 0 42.756 10.998 53.282 31.736h44.69c-13.239-39.089-55.62-58.648-97.972-58.648-50.98 0-102.086 28.417-102.086 85.252 0 56.63 51.106 85.108 102.086 85.108 42.376 0 84.781-19.626 97.996-58.642h-44.641c-10.496 20.816-32.92 31.813-53.355 31.813-27.698 0-59.336-20.393-59.336-58.279z" style="fill:#0089cd;stroke:none;stroke-width:6.04242" transform="translate(188.625 -200.608) scale(.90673)"/><path d="M290.909 341.417h-7.423l12.779-25.833h7.85zM311.616 341.417l-8.984-16.31 3.266-6.39 12.918 22.7z" style="fill:#b1c918;stroke:none" transform="matrix(5.47885 0 0 5.47885 -926.935 -1672.574)"/><path d="M117.041 319.72h-13.423v46.845c0 3.216-1.612 4.828-4.828 4.828H84.832v-93.81h10.462c5.555 0 8.324 2.682 8.324 8.045v23.893h13.423c3.671 0 5.499 1.652 5.499 4.964 0 3.495-1.828 5.235-5.499 5.235zM73.819 301.47h-9.52c3.391 3.846 4.963 9.616 4.692 17.317-.36 8.946-3.759 16.057-10.2 21.332-5.817 4.836-12.792 7.254-20.94 7.254-7.693 0-14.269-2.242-19.727-6.711-5.994-4.924-9.17-11.676-9.53-20.27-.358-8.14 1.613-14.445 5.906-18.922H3.623L0 291.134h30.876v-13.55h13.551c3.136 0 4.7 1.491 4.7 4.468v9.082H73.82c3.759 0 5.642 1.652 5.642 4.964 0 3.583-1.883 5.37-5.642 5.37zm30.206 94.751c3.663 0 5.498-1.74 5.498-5.235 0-3.216-1.835-4.828-5.498-4.828h-59.19c-1.613 0-2.419-.941-2.419-2.817v-15.977c0-5.458-2.777-8.18-8.316-8.18H23.63v25.227c0 3.495 1.093 6.336 3.28 8.522 2.195 2.195 5.036 3.288 8.523 3.288zM50.74 319.457c.175-5.595-.99-10.096-3.488-13.471-2.33-3.017-5.147-4.517-8.46-4.517-3.311 0-6.04 1.5-8.187 4.517-2.506 3.288-3.623 7.789-3.352 13.47.176 5.14 1.477 9.17 3.887 12.099 2.146 2.666 4.748 4.006 7.789 4.006 3.04 0 5.722-1.436 8.052-4.277 2.322-2.841 3.575-6.776 3.759-11.827zm185.672 1.07c0 3.135-1.604 4.7-4.828 4.7h-13.958v-26.448c0-1.787-.893-2.681-2.681-2.681h-77.314l-3.488-10.199h93.954c5.546 0 8.315 2.73 8.315 8.188zm3.224 18.929H194.54v9.52c0 2.953-.67 4.66-2.011 5.1h35.569c5.546 0 8.315 2.737 8.315 8.196v29.392c0 3.04-1.604 4.557-4.828 4.557h-13.958v-29.257c0-1.7-.893-2.546-2.681-2.546h-77.314l-3.895-10.342h42.017v-14.62h-46.446l-4.022-10.47h114.351c3.312 0 4.964 1.74 4.964 5.235 0 3.487-1.652 5.235-4.964 5.235zm122.843-7.654c0 2.419-.782 4.406-2.354 5.97-1.564 1.564-3.551 2.346-5.97 2.346h-79.19c-3.487 0-6.328-1.117-8.522-3.352-2.187-2.234-3.288-5.1-3.288-8.587V285.5h11.14c5.547 0 8.324 2.721 8.324 8.18v9.265h61.066V285.5h10.47c5.547 0 8.324 2.721 8.324 8.18zm2.41 56.366H254.703l-4.165-10.47h56.238V349.647h10.199c5.554 0 8.323 2.737 8.323 8.196v19.855h39.591c3.496 0 5.235 1.708 5.235 5.107 0 3.576-1.74 5.363-5.235 5.363zm-21.204-61.202v-12.609H282.62v12.61c0 1.883.846 2.824 2.546 2.824h55.839c1.788 0 2.681-.941 2.681-2.825zm144.183 39.6c0 3.215-1.612 4.827-4.828 4.827h-13.958V329.52h-25.905l-4.293-10.47h30.198v-41.467h10.598c5.458 0 8.188 2.722 8.188 8.18zm-41.61-73.15c.359-5.011-1.876-7.517-6.712-7.517h-58.512l4.158 10.071h37.58c2.146.264 2.864 1.652 2.146 4.158-3.04 10.2-9.48 19.728-19.32 28.586-9.042 8.14-18.97 14.133-29.8 17.98l3.76 6.448c15.928-3.67 30.014-10.518 42.28-20.534 13.862-11.364 22.01-24.428 24.42-39.191zm42.017 102.805c3.575 0 5.363-1.7 5.363-5.1 0-3.312-1.788-4.964-5.363-4.964h-67.379c-1.612 0-2.418-.941-2.418-2.817v-17.182c0-5.458-2.777-8.188-8.324-8.188h-10.47v26.439c0 3.584 1.101 6.449 3.296 8.595 2.187 2.147 5.076 3.217 8.659 3.217zm91.83-82.67c.184 8.858-3.527 15.921-11.14 21.204-6.887 4.74-15.25 7.11-25.099 7.11-9.568 0-17.62-2.282-24.156-6.838-7.334-5.196-11.053-12.218-11.141-21.077-.088-8.858 3.535-15.88 10.87-21.068 6.623-4.66 14.763-6.983 24.428-6.983 9.664 0 17.9 2.322 24.699 6.983 7.518 5.1 11.364 11.986 11.54 20.67zm32.082 78.113v-105.9c0-5.46-2.777-8.18-8.324-8.18h-10.462v71.257c0 1.795-.902 2.69-2.69 2.69h-89.66l4.03 10.334h88.32v34.355h13.958c3.216 0 4.828-1.516 4.828-4.556zm-51.402-78.113c-.096-4.924-1.836-8.818-5.235-11.683-3.136-2.594-6.895-3.887-11.277-3.887-4.476 0-8.275 1.341-11.412 4.023-3.487 2.952-5.235 6.934-5.235 11.946 0 4.924 1.748 8.859 5.235 11.811 3.137 2.682 6.983 4.03 11.548 4.03 4.47 0 8.276-1.348 11.404-4.03 3.4-3.04 5.06-7.11 4.972-12.21zm174.11 25.769h-83.349c-3.583 0-6.424-1.117-8.523-3.36-2.106-2.234-3.152-5.14-3.152-8.722V307.103h74.09c1.876 0 2.81-.894 2.81-2.681v-6.17c0-1.707-.934-2.553-2.81-2.553h-73.827l-4.022-10.335h90.73c5.546 0 8.323 2.73 8.323 8.188v15.97c0 2.417-.782 4.404-2.354 5.968-1.564 1.573-3.551 2.355-5.97 2.355h-65.766c-1.787 0-2.69.846-2.69 2.545v5.906c0 1.7.903 2.554 2.69 2.554h73.82c3.582 0 5.37 1.74 5.37 5.235 0 3.487-1.788 5.235-5.37 5.235zm5.769 48.72H630.342l-4.03-10.47h34.093v-26.982h10.334c5.547 0 8.316 2.73 8.316 8.188v18.794h18.523v-26.982h10.342c5.547 0 8.316 2.73 8.316 8.188v18.794h24.428c3.312 0 4.972 1.7 4.972 5.1 0 3.575-1.66 5.37-4.972 5.37zm119.89-21.475c0 3.216-1.612 4.828-4.836 4.828H841.76v-39.59h-13.55l-4.565-10.335h18.115v-9.401h-15.697l-4.294-10.2h19.991v-24.284h10.47c5.547 0 8.324 2.722 8.324 8.18zm-38.785-48.992c.176-9.752-3.4-17.493-10.742-23.215-6.623-5.195-14.715-7.789-24.292-7.789-9.393 0-17.318 2.506-23.758 7.518-7.246 5.546-10.957 13.064-11.14 22.553-.176 9.84 3.36 17.62 10.606 23.35 6.623 5.275 14.715 7.917 24.292 7.917 9.305 0 17.27-2.554 23.893-7.653 7.247-5.547 10.958-13.104 11.141-22.68zm39.056 78.647c3.76 0 5.635-1.651 5.635-4.963 0-3.4-1.876-5.1-5.635-5.1h-64.561c-1.7 0-2.546-.941-2.546-2.817v-17.182c0-5.458-2.777-8.188-8.324-8.188H775.06v26.439c0 3.496 1.093 6.337 3.288 8.524 2.186 2.194 5.035 3.287 8.523 3.287zm-58.384-79.453c0 6.448-1.613 11.54-4.837 15.299-2.865 3.312-6.4 4.972-10.598 4.972-4.301 0-7.964-1.7-11.013-5.1-3.304-3.846-4.963-8.954-4.963-15.298 0-6.273 1.66-11.237 4.963-14.9 2.953-3.312 6.536-4.972 10.742-4.972 4.293 0 7.917 1.66 10.87 4.972 3.223 3.751 4.836 8.763 4.836 15.027zm185.52 14.628c0 3.137-1.611 4.7-4.836 4.7h-13.957V298.78c0-1.787-.894-2.681-2.682-2.681h-77.314l-3.488-10.199h93.954c5.546 0 8.324 2.73 8.324 8.188zm3.217 25.099H946.08v35.17c0 3.04-1.564 4.556-4.692 4.556h-14.094v-39.726h-46.438l-4.03-10.335h114.352c3.312 0 4.972 1.66 4.972 4.972 0 3.575-1.66 5.363-4.972 5.363zm122.037 10.071c0 3.216-1.604 4.828-4.829 4.828h-13.957v-14.9h-21.212l-4.023-10.334h25.235V277.583h10.462c5.554 0 8.324 2.722 8.324 8.18zm-34.628-59.59c-.088-6.711-3.67-12.082-10.733-16.112-6.536-3.575-14.413-5.363-23.622-5.363-9.13 0-16.87 1.788-23.223 5.363-6.975 4.03-10.423 9.44-10.335 16.24.088 6.8 3.67 12.218 10.742 16.24 6.344 3.671 14.133 5.507 23.35 5.507 9.218 0 16.999-1.836 23.351-5.507 7.07-4.022 10.558-9.48 10.47-16.368zm4.43 36.774c3.4 0 5.1-1.748 5.1-5.235 0-3.4-1.7-5.1-5.1-5.1h-80.93l4.022 10.335h29.8v13.687h14.093c1.253 0 2.322-.447 3.216-1.341.893-.894 1.34-1.971 1.34-3.224v-9.122zm30.469 52.471c3.759 0 5.634-1.651 5.634-4.963 0-3.4-1.875-5.1-5.634-5.1h-64.562c-1.7 0-2.546-.941-2.546-2.817v-14.229c0-5.459-2.777-8.188-8.323-8.188h-10.335v23.486c0 3.496 1.093 6.337 3.288 8.524 2.195 2.194 5.036 3.287 8.523 3.287zm-54.227-89.38c0 3.575-1.453 6.376-4.357 8.387-2.913 2.011-6.337 3.017-10.271 3.017-3.847 0-7.11-.942-9.8-2.817-2.953-2.06-4.47-4.876-4.565-8.452-.08-3.495 1.436-6.264 4.565-8.323 2.777-1.884 6.177-2.825 10.207-2.825 3.846 0 7.11.901 9.792 2.69 2.952 2.058 4.429 4.827 4.429 8.323z" style="fill:#0089cd;stroke:none;stroke-width:7.98045" transform="matrix(.68654 0 0 .68654 51.49 51.49)"/></svg>