<svg xmlns="http://www.w3.org/2000/svg" xml:space="preserve" width="849.06616" height="400.00009" viewBox="0 0 849.06616 400.00009"><defs><clipPath id="a" clipPathUnits="userSpaceOnUse"><path d="M0 792h612V0H0Z"/></clipPath><clipPath id="b" clipPathUnits="userSpaceOnUse"><path d="M136.906 507.318v-10.045h30.773c-2.414 7.695-9.857 13.233-19.035 13.257h-.053a22.973 22.973 0 0 1-11.685-3.212"/></clipPath><clipPath id="c" clipPathUnits="userSpaceOnUse"><path d="M0 792h612V0H0Z"/></clipPath><clipPath id="d" clipPathUnits="userSpaceOnUse"><path d="M168.476 528.258c-7.501-3.872-11.431-11.313-8.777-16.622 2.07-4.143 7.537-5.746 13.403-4.421v22.778a21.004 21.004 0 0 1-4.626-1.735"/></clipPath><clipPath id="f" clipPathUnits="userSpaceOnUse"><path d="M169.765 528.864v-22.089c1.085.038 2.202.183 3.337.44v22.778a20.798 20.798 0 0 1-3.337-1.129"/></clipPath><clipPath id="h" clipPathUnits="userSpaceOnUse"><path d="M142.913 522.769c-1.21-8.721 2.308-17.085 8.685-22.162h17.683a.468.468 0 0 1 .47.47v11.84c-6.037 6.281-14.481 10.028-23.468 10.028a32.42 32.42 0 0 1-3.37-.176"/></clipPath><clipPath id="j" clipPathUnits="userSpaceOnUse"><path d="M159.699 511.636c2.07-4.143 7.537-5.746 13.403-4.421v1.617a32.605 32.605 0 0 1-13.098 11.069c-1.332-2.834-1.546-5.783-.305-8.265"/></clipPath><clipPath id="l" clipPathUnits="userSpaceOnUse"><path d="M169.765 506.775c1.085.038 2.202.183 3.337.44v1.617a32.234 32.234 0 0 1-3.337 4.067z"/></clipPath><clipPath id="n" clipPathUnits="userSpaceOnUse"><path d="M144.48 510.154c2.352-5.794 6.907-10.532 12.834-12.881h10.365c-2.414 7.695-9.857 13.233-19.035 13.257h-.043c-1.4 0-2.785-.13-4.121-.376"/></clipPath><clipPath id="p" clipPathUnits="userSpaceOnUse"><path d="M151.603 500.607a22.407 22.407 0 0 1 5.711-3.334h10.365a18.008 18.008 0 0 1-1.446 3.334z"/></clipPath><linearGradient id="e" x1="0" x2="1" y1="0" y2="0" gradientTransform="matrix(14.2056 0 0 -14.2056 158.896 518.377)" gradientUnits="userSpaceOnUse" spreadMethod="pad"><stop offset="0" style="stop-opacity:1;stop-color:#fbc83f"/><stop offset="0.7240941" style="stop-opacity:1;stop-color:#f89c35"/><stop offset="0.735962" style="stop-opacity:1;stop-color:#f89c35"/><stop offset="0.9957422" style="stop-opacity:1;stop-color:#f89c35"/><stop offset="1" style="stop-opacity:1;stop-color:#f89c35"/></linearGradient><linearGradient id="g" x1="0" x2="1" y1="0" y2="0" gradientTransform="matrix(3.3628 0 0 -3.3628 169.748 518.384)" gradientUnits="userSpaceOnUse" spreadMethod="pad"><stop offset="0" style="stop-opacity:1;stop-color:#f89c35"/><stop offset="0.0786591" style="stop-opacity:1;stop-color:#f89c35"/><stop offset="0.98514273" style="stop-opacity:1;stop-color:#cb6c27"/><stop offset="1" style="stop-opacity:1;stop-color:#cb6c27"/></linearGradient><linearGradient id="i" x1="0" x2="1" y1="0" y2="0" gradientTransform="matrix(26.8872 0 0 -26.8872 142.863 511.776)" gradientUnits="userSpaceOnUse" spreadMethod="pad"><stop offset="0" style="stop-opacity:1;stop-color:#c7e112"/><stop offset="0.578659" style="stop-opacity:1;stop-color:#85c522"/><stop offset="0.81080119" style="stop-opacity:1;stop-color:#61ba2d"/><stop offset="0.814606" style="stop-opacity:1;stop-color:#61ba2d"/><stop offset="0.99701039" style="stop-opacity:1;stop-color:#48b335"/><stop offset="1" style="stop-opacity:1;stop-color:#48b335"/></linearGradient><linearGradient id="k" x1="0" x2="1" y1="0" y2="0" gradientTransform="matrix(14.2246 0 0 -14.2246 158.876 513.331)" gradientUnits="userSpaceOnUse" spreadMethod="pad"><stop offset="0" style="stop-opacity:1;stop-color:#b49b1e"/><stop offset="0.544937" style="stop-opacity:1;stop-color:#a48d1b"/><stop offset="0.74680602" style="stop-opacity:1;stop-color:#a48d1b"/><stop offset="1" style="stop-opacity:1;stop-color:#a48d1b"/></linearGradient><linearGradient id="m" x1="0" x2="1" y1="0" y2="0" gradientTransform="matrix(3.3438 0 0 -3.3438 169.758 509.837)" gradientUnits="userSpaceOnUse" spreadMethod="pad"><stop offset="0" style="stop-opacity:1;stop-color:#a48d1b"/><stop offset="1" style="stop-opacity:1;stop-color:#756316"/></linearGradient><linearGradient id="o" x1="0" x2="1" y1="0" y2="0" gradientTransform="matrix(4.458 -9.7637 -9.7637 -4.458 152.275 512.187)" gradientUnits="userSpaceOnUse" spreadMethod="pad"><stop offset="0" style="stop-opacity:1;stop-color:#46ac32"/><stop offset="1" style="stop-opacity:1;stop-color:#288d30"/></linearGradient><linearGradient id="q" x1="0" x2="1" y1="0" y2="0" gradientTransform="matrix(0 -3.0576 -3.0576 0 159.641 500.429)" gradientUnits="userSpaceOnUse" spreadMethod="pad"><stop offset="0" style="stop-opacity:1;stop-color:#288d30"/><stop offset="0.0842743" style="stop-opacity:1;stop-color:#288d30"/><stop offset="0.98523328" style="stop-opacity:1;stop-color:#046b33"/><stop offset="1" style="stop-opacity:1;stop-color:#046b33"/></linearGradient></defs><g clip-path="url(#a)" transform="matrix(6.07796 0 0 -6.07796 -832.11 3242.689)"><path d="M0 0c6.33 0 11.465-5.131 11.465-11.461v-24.67h-99.598V0Z" style="fill:#214074;fill-opacity:1;fill-rule:nonzero;stroke:none" transform="translate(265.137 526.848)"/><path d="M0 0h7.6v3.518H0v4.166h8.115v3.48H-4.959V-7.873H8.117V-4.4H0Z" style="fill:#fff;fill-opacity:1;fill-rule:nonzero;stroke:none" transform="translate(212.002 506.87)"/><path d="M0 0c-.191 4.07-2.885 5.9-6.916 5.873h-7.945v-19.035h4.965V2.365h.916c1.837 0 3.9-.586 3.9-2.785 0-2.195-2.063-2.777-3.9-2.777l-.905.004 5.403-9.969h5.66l-4.793 7.967C-1.297-4.887.125-2.6 0 0" style="fill:#fff;fill-opacity:1;fill-rule:nonzero;stroke:none" transform="translate(238.644 512.16)"/><path d="M242.68 499h4.965v19.037h-4.965z" style="fill:#fff;fill-opacity:1;fill-rule:nonzero;stroke:none"/><path d="M0 0h-5.928l-5.197-9.445V.078h-4.988v-19.111h4.988v9.582l5.197-9.586H.105l-5.787 9.568z" style="fill:#fff;fill-opacity:1;fill-rule:nonzero;stroke:none" transform="translate(204.115 518.033)"/><path d="M0 0c0-1.826-.693-3.311-2.08-4.449-1.385-1.143-3.272-1.713-5.654-1.713-1.381 0-2.584.135-3.606.402-1.021.268-1.98.608-2.873 1.02v4.189l1.09-.644c1.217-.571 1.258-.645 2.332-.981 1.125-.349 2.17-.57 3.182-.57.265 0 .607.023 1.031.074.42.051.767.133 1.041.25.324.151.592.338.807.563.214.224.324.558.324 1 0 .406-.157.755-.467 1.052-.309.295-.762.52-1.357.678-.627.166-1.29.32-1.983.467a13.82 13.82 0 0 0-1.961.555c-1.394.505-2.4 1.191-3.012 2.058-.611.869-.916 1.945-.916 3.231 0 1.726.692 3.134 2.077 4.226 1.384 1.09 3.168 1.637 5.349 1.637 1.09 0 2.172-.119 3.242-.356 1.071-.236 1.995-.531 2.772-.888V7.734l-.703.348c-.891.445-1.244.545-2.215.947-.971.401-1.961.6-2.969.6-.355 0-.711-.027-1.066-.08a3.693 3.693 0 0 1-1.014-.305 1.97 1.97 0 0 1-.75-.564 1.31 1.31 0 0 1-.316-.864c0-.49.168-.865.502-1.127.334-.261.968-.5 1.902-.714.603-.141 1.186-.28 1.748-.412a17.547 17.547 0 0 0 1.822-.547c1.274-.465 2.211-1.098 2.815-1.899C-.301 2.316 0 1.277 0 0" style="fill:#fff;fill-opacity:1;fill-rule:nonzero;stroke:none" transform="translate(265.602 505.047)"/><path d="M0 0h-25.008c-5.862 0-10.613-4.751-10.613-10.612v-25.63H.574V0Z" style="fill:#d3d2d2;fill-opacity:1;fill-rule:nonzero;stroke:none" transform="translate(172.527 533.516)"/><path d="M0 0c-5.839 0-10.571-4.732-10.571-10.571v-24.956c0-.003.001-.568.003-.57.002-.002.567-.003.569-.003H24.91c.003 0 .568.001.569.003.002.002.003.567.003.57V-.572c0 .003-.001.567-.003.569A53.68 53.68 0 0 1 24.91 0Z" style="fill:#d4d3d3;fill-opacity:1;fill-rule:nonzero;stroke:none" transform="translate(147.548 533.444)"/><path d="M0 0c-5.815 0-10.529-4.714-10.529-10.528v-24.859c0-.005.002-.56.006-.564.003-.004.559-.006.565-.006h34.77c.005 0 .561.002.564.006.003.004.006.559.006.564V-.57c0 .006-.003.56-.006.564-.004.004-.559.006-.564.006Z" style="fill:#d5d4d4;fill-opacity:1;fill-rule:nonzero;stroke:none" transform="translate(147.577 533.373)"/><path d="M0 0c-5.793 0-10.488-4.694-10.488-10.486v-24.76c0-.009.003-.555.009-.561.005-.005.551-.008.559-.008h34.634c.008 0 .553.003.558.008.006.006.009.552.009.561V-.567c0 .007-.003.553-.009.558-.005.006-.55.009-.558.009Z" style="fill:#d5d5d5;fill-opacity:1;fill-rule:nonzero;stroke:none" transform="translate(147.607 533.302)"/><path d="M0 0c-5.77 0-10.447-4.677-10.447-10.445v-24.662c0-.012.005-.547.012-.555a14.5 14.5 0 0 1 .555-.012h34.496c.011 0 .546.005.553.012.008.008.012.543.012.555V-.566c0 .01-.004.547-.012.554-.007.007-.542.012-.553.012Z" style="fill:#d6d6d6;fill-opacity:1;fill-rule:nonzero;stroke:none" transform="translate(147.636 533.231)"/><path d="M0 0c-5.747 0-10.405-4.658-10.405-10.404v-24.563c0-.014.006-.541.015-.55.009-.009.536-.014.55-.014h34.358c.013 0 .539.006.548.014.009.009.015.536.015.55V-.563c0 .013-.006.54-.015.548-.009.009-.535.015-.548.015Z" style="fill:#d7d6d7;fill-opacity:1;fill-rule:nonzero;stroke:none" transform="translate(147.666 533.16)"/><path d="M0 0c-5.723 0-10.362-4.639-10.362-10.362v-24.465c0-.017.006-.533.017-.544.011-.011.528-.018.544-.018H24.42c.017 0 .533.007.543.018.011.011.018.527.018.544V-.562c0 .017-.007.534-.018.544-.01.011-.526.018-.543.018Z" style="fill:#d8d7d8;fill-opacity:1;fill-rule:nonzero;stroke:none" transform="translate(147.694 533.089)"/><path d="M0 0c-5.7 0-10.32-4.62-10.32-10.32v-24.368c0-.019.007-.525.02-.538.013-.012.519-.02.539-.02h34.083c.019 0 .526.008.538.02.013.013.02.519.02.538V-.559c0 .02-.007.526-.02.538-.013.013-.519.021-.538.021Z" style="fill:#d9d8d8;fill-opacity:1;fill-rule:nonzero;stroke:none" transform="translate(147.724 533.018)"/><path d="M0 0c-5.677 0-10.279-4.602-10.279-10.278v-24.269c0-.022.008-.519.023-.534.015-.015.511-.023.533-.023h33.946c.022 0 .519.008.533.023.015.015.024.512.024.534v33.99c0 .023-.009.52-.024.534-.014.014-.511.023-.533.023Z" style="fill:#dad9d9;fill-opacity:1;fill-rule:nonzero;stroke:none" transform="translate(147.753 532.946)"/><path d="M0 0c-5.654 0-10.238-4.584-10.238-10.237v-24.171c0-.025.01-.512.027-.529.016-.016.503-.026.528-.026h33.808c.025 0 .512.011.528.026.016.017.026.504.026.529V-.556c0 .026-.01.513-.026.53-.016.015-.503.026-.528.026Z" style="fill:#dbdada;fill-opacity:1;fill-rule:nonzero;stroke:none" transform="translate(147.783 532.876)"/><path d="M0 0c-5.632 0-10.196-4.564-10.196-10.195v-24.073c0-.027.011-.504.029-.523.019-.018.496-.029.523-.029h33.671c.028 0 .505.011.523.029.018.019.03.496.03.523V-.553c0 .028-.012.505-.03.524-.018.017-.495.029-.523.029Z" style="fill:#dbdbdb;fill-opacity:1;fill-rule:nonzero;stroke:none" transform="translate(147.812 532.805)"/><path d="M0 0c-5.608 0-10.154-4.546-10.154-10.154v-23.973c0-.031.012-.499.032-.519.02-.02.488-.032.518-.032h33.533c.03 0 .498.012.518.032.02.02.032.488.032.519V-.551c0 .031-.012.499-.032.519-.02.02-.488.032-.518.032Z" style="fill:#dcdcdc;fill-opacity:1;fill-rule:nonzero;stroke:none" transform="translate(147.841 532.733)"/><path d="M0 0c-5.585 0-10.113-4.527-10.113-10.112v-23.875c0-.034.014-.492.035-.513.022-.022.48-.035.513-.035h33.396c.033 0 .491.013.513.034.021.022.035.48.035.514V-.548c0 .033-.014.491-.035.513-.022.021-.48.035-.513.035Z" style="fill:#ddd;fill-opacity:1;fill-rule:nonzero;stroke:none" transform="translate(147.87 532.662)"/><path d="M0 0c-5.563 0-10.071-4.509-10.071-10.07v-23.777c0-.036.014-.485.038-.507.024-.025.472-.039.508-.039h33.257c.037 0 .485.015.508.038.023.023.038.472.038.508V-.546c0 .036-.015.485-.038.509-.024.023-.471.037-.508.037Z" style="fill:#deddde;fill-opacity:1;fill-rule:nonzero;stroke:none" transform="translate(147.9 532.59)"/><path d="M0 0c-5.54 0-10.03-4.49-10.03-10.028v-23.679c0-.039.016-.478.042-.503.025-.025.464-.041.502-.041h33.121c.038 0 .477.016.502.041.025.025.041.464.041.503V-.543c0 .039-.016.478-.041.503-.026.025-.464.04-.502.04Z" style="fill:#dfdede;fill-opacity:1;fill-rule:nonzero;stroke:none" transform="translate(147.93 532.52)"/><path d="M0 0c-5.516 0-9.987-4.471-9.987-9.986v-23.58c0-.042.016-.471.044-.498.026-.028.456-.044.497-.044h32.984c.041 0 .469.016.496.044.027.027.044.456.044.498V-.541c0 .042-.017.471-.044.498-.027.026-.455.043-.496.043Z" style="fill:#e0dfdf;fill-opacity:1;fill-rule:nonzero;stroke:none" transform="translate(147.958 532.448)"/><path d="M0 0c-5.493 0-9.945-4.453-9.945-9.946v-23.482c0-.044.017-.464.047-.492.028-.029.448-.047.491-.047h32.846c.044 0 .463.019.492.046.028.029.047.449.047.493V-.539c0 .044-.019.464-.047.492-.029.029-.448.047-.492.047Z" style="fill:#e0e0e0;fill-opacity:1;fill-rule:nonzero;stroke:none" transform="translate(147.988 532.378)"/><path d="M0 0c-5.47 0-9.904-4.434-9.904-9.904v-23.383c0-.048.019-.457.05-.487.03-.032.44-.05.486-.05h32.709c.046 0 .456.018.487.049.03.031.049.44.049.488v32.75c0 .048-.019.457-.049.487-.032.031-.441.05-.487.05Z" style="fill:#e1e1e1;fill-opacity:1;fill-rule:nonzero;stroke:none" transform="translate(148.018 532.307)"/><path d="M0 0c-5.447 0-9.863-4.415-9.863-9.862v-23.285c0-.05.02-.45.053-.482.033-.033.433-.053.481-.053h32.572c.049 0 .449.02.481.052.032.033.053.433.053.483V-.534c0 .05-.021.45-.053.482-.033.032-.432.052-.481.052Z" style="fill:#e2e2e2;fill-opacity:1;fill-rule:nonzero;stroke:none" transform="translate(148.047 532.235)"/><path d="M0 0c-5.424 0-9.821-4.396-9.821-9.82v-23.187c0-.054.022-.443.056-.476.035-.036.424-.056.476-.056h32.434c.052 0 .442.02.476.055.034.034.055.423.055.477V-.532c0 .053-.021.443-.055.477-.035.034-.424.055-.476.055Z" style="fill:#e3e3e3;fill-opacity:1;fill-rule:nonzero;stroke:none" transform="translate(148.076 532.164)"/><path d="M0 0c-5.401 0-9.779-4.379-9.779-9.779v-23.089c0-.056.022-.436.058-.472.037-.036.417-.058.472-.058h32.295c.056 0 .436.022.472.057.036.037.058.417.058.473V-.53c0 .055-.022.435-.058.471-.037.037-.416.059-.472.059Z" style="fill:#e4e3e4;fill-opacity:1;fill-rule:nonzero;stroke:none" transform="translate(148.106 532.094)"/><path d="M0 0c-5.378 0-9.738-4.36-9.738-9.738v-22.99c0-.058.024-.429.062-.466.038-.038.409-.062.466-.062h32.159c.057 0 .427.024.466.061.037.038.061.409.061.467v32.2c0 .058-.024.429-.061.466-.039.039-.409.062-.466.062Z" style="fill:#e5e4e4;fill-opacity:1;fill-rule:nonzero;stroke:none" transform="translate(148.135 532.023)"/><path d="M0 0c-5.355 0-9.696-4.341-9.696-9.696v-22.892c0-.061.025-.422.065-.461.04-.04.401-.064.461-.064h32.021c.06 0 .421.024.461.063.039.04.063.401.063.462V-.525c0 .061-.024.421-.063.461-.041.04-.401.064-.461.064Z" style="fill:#e5e5e5;fill-opacity:1;fill-rule:nonzero;stroke:none" transform="translate(148.164 531.951)"/><path d="M0 0a9.654 9.654 0 0 1-9.654-9.654v-22.793c0-.065.026-.415.068-.457.041-.042.392-.068.455-.068h31.883c.064 0 .415.027.456.068.042.042.067.392.067.457V-.523c0 .064-.025.415-.067.456-.041.042-.392.067-.456.067Z" style="fill:#e6e6e6;fill-opacity:1;fill-rule:nonzero;stroke:none" transform="translate(148.193 531.88)"/><path d="M0 0c-5.31 0-9.613-4.304-9.613-9.612v-22.696c0-.066.027-.408.071-.451.043-.043.384-.07.45-.07h31.746c.066 0 .407.027.45.069.043.044.07.386.07.452V-.521c0 .067-.027.409-.07.451-.043.044-.384.07-.45.07Z" style="fill:#e7e7e7;fill-opacity:1;fill-rule:nonzero;stroke:none" transform="translate(148.223 531.809)"/><path d="M0 0c-5.286 0-9.571-4.285-9.571-9.57v-22.597c0-.069.028-.401.073-.446.045-.046.377-.074.445-.074h31.609c.069 0 .401.029.445.073.045.046.073.378.073.447V-.519c0 .071-.028.402-.073.447-.045.045-.376.072-.445.072Z" style="fill:#e8e8e8;fill-opacity:1;fill-rule:nonzero;stroke:none" transform="translate(148.252 531.737)"/><path d="M0 0a9.529 9.529 0 0 1-9.529-9.529v-22.498c0-.073.029-.395.076-.441.047-.048.369-.076.44-.076h31.471c.071 0 .394.029.44.075.047.047.076.369.076.442V-.516c0 .073-.029.394-.076.441-.047.047-.369.075-.44.075Z" style="fill:#e9e9e9;fill-opacity:1;fill-rule:nonzero;stroke:none" transform="translate(148.282 531.666)"/><path d="M0 0a9.488 9.488 0 0 1-9.488-9.488v-22.4c0-.075.03-.387.08-.435.049-.05.361-.079.434-.079H22.36c.074 0 .386.03.435.078.048.049.079.361.079.436V-.515c0 .076-.031.388-.079.436-.049.049-.361.079-.435.079Z" style="fill:#eae9e9;fill-opacity:1;fill-rule:nonzero;stroke:none" transform="translate(148.311 531.596)"/><path d="M0 0a9.446 9.446 0 0 1-9.446-9.446v-22.302c0-.078.031-.38.082-.43.051-.051.353-.082.43-.082h31.196c.077 0 .379.031.429.08.051.052.082.354.082.432V-.512c0 .077-.031.38-.082.43-.05.051-.352.082-.429.082Z" style="fill:#ebeaea;fill-opacity:1;fill-rule:nonzero;stroke:none" transform="translate(148.34 531.524)"/><path d="M0 0a9.404 9.404 0 0 1-9.404-9.404v-22.203c0-.081.032-.374.085-.426.052-.053.345-.085.424-.085h31.059c.08 0 .373.033.424.084.053.053.085.346.085.427V-.51c0 .081-.032.374-.085.426-.052.052-.344.084-.424.084Z" style="fill:#ebebeb;fill-opacity:1;fill-rule:nonzero;stroke:none" transform="translate(148.37 531.453)"/><path d="M0 0a9.361 9.361 0 0 1-9.362-9.362v-22.106c0-.083.033-.366.088-.42.054-.054.337-.088.419-.088h30.92c.083 0 .366.035.42.087.054.055.088.338.088.421V-.507c0 .083-.034.366-.088.42-.054.054-.337.087-.42.087Z" style="fill:#ececec;fill-opacity:1;fill-rule:nonzero;stroke:none" transform="translate(148.399 531.382)"/><path d="M0 0c-5.147 0-9.321-4.173-9.321-9.32v-22.007c0-.087.035-.36.091-.415.056-.057.329-.091.414-.091h30.784c.085 0 .358.035.414.09.056.056.091.329.091.416V-.505c0 .086-.035.359-.091.415-.056.056-.329.09-.414.09Z" style="fill:#ededed;fill-opacity:1;fill-rule:nonzero;stroke:none" transform="translate(148.428 531.31)"/><path d="M0 0a9.278 9.278 0 0 1-9.279-9.278v-21.91c0-.088.036-.352.094-.409.058-.058.321-.093.409-.093H21.87c.088 0 .352.036.409.091.057.059.094.323.094.411V-.502c0 .089-.037.352-.094.409-.058.058-.321.093-.409.093Z" style="fill:#eee;fill-opacity:1;fill-rule:nonzero;stroke:none" transform="translate(148.458 531.24)"/><path d="M0 0a9.237 9.237 0 0 1-9.237-9.238v-21.81c0-.092.037-.346.097-.404.059-.061.313-.097.403-.097h30.508c.091 0 .345.037.405.095.059.06.096.314.096.406V-.501c0 .092-.037.346-.096.404-.06.06-.314.097-.405.097Z" style="fill:#efeeef;fill-opacity:1;fill-rule:nonzero;stroke:none" transform="translate(148.487 531.169)"/><path d="M0 0a9.196 9.196 0 0 1-9.196-9.196v-21.712c0-.094.038-.338.1-.399.061-.062.305-.099.398-.099h30.371c.094 0 .338.038.399.097.061.063.099.307.099.401v30.41c0 .094-.038.338-.099.399-.062.061-.305.099-.399.099Z" style="fill:#f0efef;fill-opacity:1;fill-rule:nonzero;stroke:none" transform="translate(148.517 531.098)"/><path d="M0 0a9.154 9.154 0 0 1-9.154-9.154v-21.614c0-.097.039-.332.102-.394.064-.064.298-.103.393-.103h30.234c.096 0 .331.039.394.102s.102.298.102.395V-.496c0 .098-.039.332-.102.394-.064.064-.298.102-.394.102Z" style="fill:#f0f0f0;fill-opacity:1;fill-rule:nonzero;stroke:none" transform="translate(148.546 531.026)"/><path d="M0 0a9.113 9.113 0 0 1-9.113-9.112v-21.516c0-.1.041-.324.106-.389s.29-.105.388-.105h30.096c.099 0 .324.04.389.104.064.066.105.29.105.39V-.493c0 .099-.041.324-.105.389-.066.064-.29.104-.389.104Z" style="fill:#f1f1f1;fill-opacity:1;fill-rule:nonzero;stroke:none" transform="translate(148.575 530.955)"/><path d="M0 0a9.071 9.071 0 0 1-9.071-9.07v-21.417c0-.104.042-.318.109-.384.066-.067.281-.108.382-.108h29.959c.101 0 .317.041.383.106.067.068.109.282.109.386V-.491c0 .103-.042.317-.109.384S21.48 0 21.379 0Z" style="fill:#f2f2f2;fill-opacity:1;fill-rule:nonzero;stroke:none" transform="translate(148.605 530.884)"/><path d="M0 0a9.03 9.03 0 0 1-9.029-9.029v-21.319c0-.105.042-.31.112-.378.068-.069.273-.111.377-.111h29.821c.104 0 .31.042.378.109.069.07.111.275.111.38v29.86c0 .105-.042.31-.111.378-.069.069-.274.11-.378.11Z" style="fill:#f3f3f3;fill-opacity:1;fill-rule:nonzero;stroke:none" transform="translate(148.634 530.813)"/><path d="M0 0a8.989 8.989 0 0 1-8.988-8.988v-21.22c0-.108.044-.304.115-.373.071-.071.266-.114.372-.114h29.684c.107 0 .303.043.373.112.07.071.114.267.114.375V-.487c0 .108-.044.303-.114.373-.071.071-.266.114-.373.114Z" style="fill:#f4f4f4;fill-opacity:1;fill-rule:nonzero;stroke:none" transform="translate(148.663 530.742)"/><path d="M0 0a8.947 8.947 0 0 1-8.946-8.946v-21.122c0-.112.045-.296.118-.369.072-.073.257-.117.367-.117h29.545c.111 0 .297.045.369.116.072.074.117.258.117.37V-.484c0 .111-.045.296-.117.368-.073.072-.258.116-.369.116Z" style="fill:#f5f4f5;fill-opacity:1;fill-rule:nonzero;stroke:none" transform="translate(148.692 530.67)"/><path d="M0 0a8.905 8.905 0 0 1-8.904-8.904v-21.024c0-.114.046-.29.12-.363.075-.075.25-.12.362-.12h29.409c.113 0 .289.046.363.118.073.075.119.251.119.365V-.482c0 .114-.046.29-.119.363-.075.074-.25.119-.363.119Z" style="fill:#f6f5f5;fill-opacity:1;fill-rule:nonzero;stroke:none" transform="translate(148.722 530.6)"/><path d="M0 0a8.862 8.862 0 0 1-8.862-8.862v-20.926c0-.116.047-.282.123-.358.076-.077.242-.123.357-.123h29.271c.115 0 .282.047.358.122.075.077.122.243.122.359V-.479c0 .116-.047.282-.122.357-.077.076-.243.122-.358.122Z" style="fill:#f6f6f6;fill-opacity:1;fill-rule:nonzero;stroke:none" transform="translate(148.751 530.528)"/><path d="M0 0a8.82 8.82 0 0 1-8.821-8.82v-20.827c0-.121.048-.277.126-.353a.547.547 0 0 1 .352-.126H20.79c.119 0 .275.048.353.124a.56.56 0 0 1 .125.355V-.478c0 .121-.048.277-.125.353A.554.554 0 0 1 20.79 0Z" style="fill:#f7f7f7;fill-opacity:1;fill-rule:nonzero;stroke:none" transform="translate(148.78 530.457)"/><path d="M0 0a8.779 8.779 0 0 1-8.779-8.778v-20.73a.52.52 0 0 1 .129-.346.517.517 0 0 1 .346-.129h28.996c.121 0 .268.048.348.127.079.08.128.226.128.348V-.475a.527.527 0 0 1-.128.347.532.532 0 0 1-.348.128Z" style="fill:#f8f8f8;fill-opacity:1;fill-rule:nonzero;stroke:none" transform="translate(148.81 530.386)"/><path d="M0 0a8.738 8.738 0 0 1-8.738-8.738v-20.63a.5.5 0 0 1 .133-.343.503.503 0 0 1 .34-.132h28.859c.124 0 .261.051.343.13.08.083.131.22.131.345V-.474a.514.514 0 0 1-.131.343.514.514 0 0 1-.343.131Z" style="fill:#f9f9f9;fill-opacity:1;fill-rule:nonzero;stroke:none" transform="translate(148.84 530.315)"/><path d="M0 0a8.697 8.697 0 0 1-8.696-8.696v-20.533c0-.127.051-.254.135-.336a.483.483 0 0 1 .336-.135h28.721c.127 0 .254.052.337.133a.491.491 0 0 1 .134.338V-.471a.483.483 0 0 1-.134.337.487.487 0 0 1-.337.134Z" style="fill:#fafafa;fill-opacity:1;fill-rule:nonzero;stroke:none" transform="translate(148.869 530.244)"/><path d="M0 0h28.583c.13 0 .248.053.333.136a.476.476 0 0 1 .137.334v28.619a.468.468 0 0 1-.47.469H8.186a8.655 8.655 0 0 1-8.655-8.655V.47c0-.131.053-.248.138-.332A.465.465 0 0 1 0 0" style="fill:#fbfbfb;fill-opacity:1;fill-rule:nonzero;stroke:none" transform="translate(140.712 500.615)"/></g><g clip-path="url(#b)" transform="matrix(6.07796 0 0 -6.07796 -832.11 3242.689)"><path d="M0 0c-4.262.01-8.294-.724-11.738-2.758v-10.498h30.773C16.621-5.561 9.178-.023 0 0" style="fill:#218acc;fill-opacity:1;fill-rule:nonzero;stroke:none" transform="translate(148.644 510.53)"/><path d="M0 0c-4.236.01-8.247-.714-11.674-2.729v-9.89l.002-.57.571-.002h30.108C16.577-5.531 9.151-.023 0 0" style="fill:#228acc;fill-opacity:1;fill-rule:nonzero;stroke:none" transform="translate(148.644 510.53)"/><path d="M0 0c-4.211.01-8.199-.704-11.61-2.7v-9.856c0-.006.002-.563.005-.566.003-.004.561-.006.565-.006h30.019C16.532-5.501 9.124-.023 0 0" style="fill:#238bcc;fill-opacity:1;fill-rule:nonzero;stroke:none" transform="translate(148.644 510.53)"/><path d="M0 0c-4.187.01-8.15-.695-11.547-2.672v-9.822c0-.008.003-.557.008-.562.005-.005.554-.007.561-.007h29.929C16.488-5.472 9.097-.023 0 0" style="fill:#248bcc;fill-opacity:1;fill-rule:nonzero;stroke:none" transform="translate(148.644 510.53)"/><path d="M0 0c-4.162.01-8.103-.687-11.483-2.643v-9.79c0-.009.004-.549.011-.556.006-.007.546-.011.556-.011h29.839C16.443-5.442 9.07-.023 0 0" style="fill:#248ccd;fill-opacity:1;fill-rule:nonzero;stroke:none" transform="translate(148.644 510.53)"/><path d="M0 0c-4.136.01-8.054-.677-11.418-2.614v-9.756c0-.013.004-.544.013-.552.008-.009.539-.014.551-.014h29.75C16.399-5.412 9.044-.023 0 0" style="fill:#258dcd;fill-opacity:1;fill-rule:nonzero;stroke:none" transform="translate(148.644 510.53)"/><path d="M0 0c-4.111.01-8.006-.667-11.355-2.585v-9.724c0-.014.006-.537.016-.546.01-.01.532-.016.547-.016h29.66C16.354-5.382 9.017-.023 0 0" style="fill:#268dcd;fill-opacity:1;fill-rule:nonzero;stroke:none" transform="translate(148.644 510.53)"/><path d="M0 0c-4.086.01-7.958-.658-11.291-2.557v-9.689c0-.018.007-.531.019-.542.011-.012.525-.019.542-.019h29.57C16.31-5.353 8.99-.023 0 0" style="fill:#278ecd;fill-opacity:1;fill-rule:nonzero;stroke:none" transform="translate(148.644 510.53)"/><path d="M0 0c-4.061.01-7.91-.648-11.227-2.527v-9.657c0-.02.009-.525.021-.538a7.91 7.91 0 0 1 .539-.021h29.48C16.266-5.322 8.964-.022 0 0" style="fill:#288ece;fill-opacity:1;fill-rule:nonzero;stroke:none" transform="translate(148.644 510.53)"/><path d="M0 0c-4.037.009-7.863-.64-11.164-2.5v-9.622c0-.023.01-.519.024-.533.015-.015.511-.024.534-.024h29.39C16.221-5.293 8.937-.023 0 0" style="fill:#298fce;fill-opacity:1;fill-rule:nonzero;stroke:none" transform="translate(148.644 510.53)"/><path d="M0 0c-4.011.01-7.814-.63-11.099-2.471v-9.589c0-.025.01-.512.026-.528.017-.016.504-.027.529-.027h29.301C16.177-5.264 8.91-.022 0 0" style="fill:#2a90ce;fill-opacity:1;fill-rule:nonzero;stroke:none" transform="translate(148.644 510.53)"/><path d="M0 0c-3.985.009-7.766-.62-11.035-2.442v-9.555c0-.028.012-.507.029-.524.018-.019.497-.03.524-.03h29.211C16.133-5.233 8.883-.022 0 0" style="fill:#2a90ce;fill-opacity:1;fill-rule:nonzero;stroke:none" transform="translate(148.644 510.53)"/><path d="M0 0c-3.961.009-7.719-.611-10.972-2.414v-9.522c0-.03.013-.5.032-.519.02-.02.489-.031.52-.031h29.121C16.087-5.204 8.856-.023 0 0" style="fill:#2b91ce;fill-opacity:1;fill-rule:nonzero;stroke:none" transform="translate(148.644 510.53)"/><path d="M0 0c-3.936.009-7.67-.602-10.907-2.385v-9.489c0-.032.013-.493.034-.514.021-.021.482-.035.515-.035h29.031C16.043-5.174 8.83-.022 0 0" style="fill:#2c92cf;fill-opacity:1;fill-rule:nonzero;stroke:none" transform="translate(148.644 510.53)"/><path d="M0 0c-3.911.009-7.623-.593-10.843-2.355v-9.457c0-.035.014-.487.036-.509.024-.024.475-.037.511-.037h28.942C15.999-5.145 8.803-.022 0 0" style="fill:#2d92cf;fill-opacity:1;fill-rule:nonzero;stroke:none" transform="translate(148.644 510.53)"/><path d="M0 0c-3.885.009-7.575-.583-10.78-2.327v-9.422c0-.038.015-.481.04-.505.025-.025.468-.04.505-.04h28.853C15.955-5.114 8.776-.022 0 0" style="fill:#2e93cf;fill-opacity:1;fill-rule:nonzero;stroke:none" transform="translate(148.644 510.53)"/><path d="M0 0c-3.86.009-7.526-.573-10.716-2.299v-9.389c0-.04.017-.474.043-.5.026-.026.46-.041.5-.041H18.59C15.91-5.085 8.75-.022 0 0" style="fill:#2f94cf;fill-opacity:1;fill-rule:nonzero;stroke:none" transform="translate(148.644 510.53)"/><path d="M0 0c-3.835.009-7.479-.564-10.652-2.27v-9.355c0-.043.018-.469.045-.496.028-.028.454-.045.496-.045h28.673C15.866-5.055 8.723-.022 0 0" style="fill:#3094d0;fill-opacity:1;fill-rule:nonzero;stroke:none" transform="translate(148.644 510.53)"/><path d="M0 0c-3.81.009-7.431-.556-10.587-2.241v-9.322c0-.045.018-.462.047-.491.03-.03.446-.048.491-.048h28.584C15.821-5.025 8.696-.022 0 0" style="fill:#3195d0;fill-opacity:1;fill-rule:nonzero;stroke:none" transform="translate(148.644 510.53)"/><path d="M0 0c-3.785.009-7.383-.546-10.524-2.213v-9.288c0-.048.02-.456.05-.486.032-.032.439-.05.487-.05h28.493C15.777-4.996 8.669-.022 0 0" style="fill:#3295d0;fill-opacity:1;fill-rule:nonzero;stroke:none" transform="translate(148.644 510.53)"/><path d="M0 0c-3.76.009-7.334-.536-10.46-2.184v-9.254c0-.051.021-.451.053-.483.033-.032.432-.053.482-.053h28.404C15.732-4.966 8.643-.022 0 0" style="fill:#3396d0;fill-opacity:1;fill-rule:nonzero;stroke:none" transform="translate(148.644 510.53)"/><path d="M0 0c-3.735.009-7.287-.526-10.396-2.155v-9.222c0-.053.021-.442.056-.477.034-.035.424-.055.476-.055h28.315C15.688-4.937 8.615-.022 0 0" style="fill:#3397d1;fill-opacity:1;fill-rule:nonzero;stroke:none" transform="translate(148.644 510.53)"/><path d="M0 0c-3.71.009-7.239-.518-10.332-2.126v-9.188c0-.056.022-.437.058-.473.036-.036.418-.058.472-.058h28.225C15.644-4.906 8.588-.022 0 0" style="fill:#3497d1;fill-opacity:1;fill-rule:nonzero;stroke:none" transform="translate(148.644 510.53)"/><path d="M0 0c-3.685.009-7.191-.509-10.268-2.098v-9.155c0-.058.023-.43.06-.467.038-.038.411-.061.468-.061h28.135C15.599-4.877 8.562-.022 0 0" style="fill:#3598d1;fill-opacity:1;fill-rule:nonzero;stroke:none" transform="translate(148.644 510.53)"/><path d="M0 0c-3.659.009-7.143-.499-10.204-2.069v-9.121c0-.061.024-.424.063-.463.039-.04.403-.064.463-.064h28.046C15.555-4.847 8.535-.022 0 0" style="fill:#3699d1;fill-opacity:1;fill-rule:nonzero;stroke:none" transform="translate(148.644 510.53)"/><path d="M0 0c-3.634.008-7.095-.489-10.14-2.04v-9.089c0-.062.025-.417.066-.458.041-.041.396-.065.458-.065H18.34C15.51-4.817 8.508-.021 0 0" style="fill:#3799d2;fill-opacity:1;fill-rule:nonzero;stroke:none" transform="translate(148.644 510.53)"/><path d="M0 0c-3.609.009-7.047-.479-10.077-2.012v-9.054c0-.066.027-.412.069-.454.043-.043.389-.069.454-.069h27.866C15.466-4.787 8.481-.021 0 0" style="fill:#389ad2;fill-opacity:1;fill-rule:nonzero;stroke:none" transform="translate(148.644 510.53)"/><path d="M0 0c-3.584.008-6.999-.471-10.012-1.983v-9.021c0-.068.027-.405.071-.449.044-.045.381-.071.449-.071h27.776C15.421-4.758 8.455-.022 0 0" style="fill:#399bd2;fill-opacity:1;fill-rule:nonzero;stroke:none" transform="translate(148.644 510.53)"/><path d="M0 0c-3.559.008-6.951-.461-9.949-1.954v-8.988c0-.071.029-.4.074-.445.046-.046.375-.074.444-.074h27.687C15.377-4.729 8.428-.021 0 0" style="fill:#3a9cd2;fill-opacity:1;fill-rule:nonzero;stroke:none" transform="translate(148.644 510.53)"/><path d="M0 0c-3.534.008-6.903-.452-9.885-1.926v-8.954c0-.073.03-.392.077-.439.047-.049.367-.077.439-.077h27.597C15.333-4.698 8.401-.021 0 0" style="fill:#3b9cd2;fill-opacity:1;fill-rule:nonzero;stroke:none" transform="translate(148.644 510.53)"/><path d="M0 0c-3.509.008-6.854-.442-9.821-1.897v-8.921c0-.076.031-.386.079-.435.05-.05.361-.079.435-.079h27.508C15.288-4.669 8.375-.021 0 0" style="fill:#3b9dd3;fill-opacity:1;fill-rule:nonzero;stroke:none" transform="translate(148.644 510.53)"/><path d="M0 0c-3.484.008-6.807-.434-9.757-1.868v-8.888c0-.078.032-.38.082-.431.051-.05.353-.082.43-.082h27.418C15.244-4.639 8.348-.021 0 0" style="fill:#3c9ed3;fill-opacity:1;fill-rule:nonzero;stroke:none" transform="translate(148.644 510.53)"/><path d="M0 0c-3.459.008-6.759-.424-9.693-1.84v-8.854c0-.08.033-.373.085-.425.052-.053.346-.085.425-.085h27.328C15.199-4.609 8.321-.021 0 0" style="fill:#3d9ed3;fill-opacity:1;fill-rule:nonzero;stroke:none" transform="translate(148.644 510.53)"/><path d="M0 0c-3.434.008-6.71-.414-9.629-1.811v-8.821c0-.083.034-.367.087-.421.054-.054.339-.087.421-.087h27.238C15.155-4.579 8.294-.021 0 0" style="fill:#3e9fd3;fill-opacity:1;fill-rule:nonzero;stroke:none" transform="translate(148.644 510.53)"/><path d="M0 0c-3.409.008-6.663-.405-9.565-1.782v-8.787c0-.086.035-.362.089-.417.057-.056.332-.09.417-.09h27.148C15.11-4.55 8.267-.021 0 0" style="fill:#3fa0d3;fill-opacity:1;fill-rule:nonzero;stroke:none" transform="translate(148.644 510.53)"/><path d="M0 0c-3.384.008-6.615-.396-9.501-1.753v-8.755c0-.088.036-.354.092-.411.058-.058.325-.093.412-.093h27.059C15.066-4.521 8.241-.021 0 0" style="fill:#40a0d4;fill-opacity:1;fill-rule:nonzero;stroke:none" transform="translate(148.644 510.53)"/><path d="M0 0c-3.358.008-6.567-.387-9.437-1.725v-8.72c0-.091.037-.349.095-.408.059-.059.317-.094.406-.094h26.97C15.021-4.49 8.214-.021 0 0" style="fill:#41a1d4;fill-opacity:1;fill-rule:nonzero;stroke:none" transform="translate(148.644 510.53)"/><path d="M0 0c-3.333.008-6.519-.377-9.374-1.696v-8.688c0-.093.039-.342.098-.401.061-.062.311-.099.402-.099h26.88C14.977-4.461 8.187-.021 0 0" style="fill:#42a2d4;fill-opacity:1;fill-rule:nonzero;stroke:none" transform="translate(148.644 510.53)"/><path d="M0 0c-3.308.008-6.471-.367-9.31-1.667v-8.654c0-.096.039-.336.101-.398.063-.062.303-.1.397-.1h26.79C14.933-4.431 8.16-.021 0 0" style="fill:#43a2d4;fill-opacity:1;fill-rule:nonzero;stroke:none" transform="translate(148.644 510.53)"/><path d="M0 0c-3.283.008-6.423-.358-9.246-1.639v-8.62c0-.098.04-.33.103-.393.064-.065.296-.103.393-.103h26.7C14.888-4.401 8.133-.021 0 0" style="fill:#44a3d4;fill-opacity:1;fill-rule:nonzero;stroke:none" transform="translate(148.644 510.53)"/><path d="M0 0c-3.258.008-6.375-.349-9.182-1.61v-8.587c0-.101.041-.324.106-.388.066-.066.288-.106.388-.106h26.61C14.844-4.371 8.106-.021 0 0" style="fill:#45a4d5;fill-opacity:1;fill-rule:nonzero;stroke:none" transform="translate(148.644 510.53)"/><path d="M0 0c-3.233.008-6.327-.339-9.118-1.581v-8.554c0-.103.042-.317.109-.384s.281-.108.383-.108h26.521C14.799-4.342 8.08-.021 0 0" style="fill:#46a5d5;fill-opacity:1;fill-rule:nonzero;stroke:none" transform="translate(148.644 510.53)"/><path d="M0 0c-3.208.008-6.279-.33-9.054-1.553v-8.52c0-.106.043-.311.111-.379.069-.069.275-.111.379-.111h26.431C14.755-4.312 8.053-.021 0 0" style="fill:#47a5d5;fill-opacity:1;fill-rule:nonzero;stroke:none" transform="translate(148.644 510.53)"/><path d="M0 0c-3.183.008-6.231-.32-8.99-1.523v-8.488c0-.108.044-.304.114-.374.07-.071.267-.114.374-.114h26.341C14.71-4.282 8.026-.021 0 0" style="fill:#48a6d5;fill-opacity:1;fill-rule:nonzero;stroke:none" transform="translate(148.644 510.53)"/><path d="M0 0c-3.158.008-6.183-.312-8.926-1.495v-8.454c0-.111.045-.298.116-.369.073-.073.26-.117.37-.117h26.251C14.666-4.253 8-.021 0 0" style="fill:#49a7d5;fill-opacity:1;fill-rule:nonzero;stroke:none" transform="translate(148.644 510.53)"/><path d="M0 0c-3.133.007-6.135-.302-8.862-1.467v-8.42c0-.113.046-.292.119-.365.074-.074.253-.119.365-.119h26.161C14.622-4.223 7.973-.021 0 0" style="fill:#4aa8d6;fill-opacity:1;fill-rule:nonzero;stroke:none" transform="translate(148.644 510.53)"/><path d="M0 0c-3.107.007-6.087-.293-8.798-1.438v-8.386c0-.116.047-.286.121-.361.076-.076.246-.122.361-.122h26.071C14.577-4.193 7.946-.021 0 0" style="fill:#4ba8d6;fill-opacity:1;fill-rule:nonzero;stroke:none" transform="translate(148.644 510.53)"/><path d="M0 0c-3.083.007-6.039-.283-8.734-1.409v-8.354c0-.118.048-.279.124-.355.077-.077.238-.124.355-.124h25.983C14.533-4.163 7.919-.021 0 0" style="fill:#4ca9d6;fill-opacity:1;fill-rule:nonzero;stroke:none" transform="translate(148.644 510.53)"/><path d="M0 0c-3.058.007-5.991-.273-8.67-1.381V-9.7c0-.121.049-.274.127-.351a.533.533 0 0 1 .35-.128H17.7C14.488-4.134 7.892-.021 0 0" style="fill:#4daad6;fill-opacity:1;fill-rule:nonzero;stroke:none" transform="translate(148.644 510.53)"/><path d="M0 0c-3.032.007-5.943-.265-8.606-1.352v-8.287c0-.123.05-.266.129-.345a.521.521 0 0 1 .346-.13h25.803C14.444-4.104 7.866-.021 0 0" style="fill:#4daad6;fill-opacity:1;fill-rule:nonzero;stroke:none" transform="translate(148.644 510.53)"/><path d="M0 0c-3.007.007-5.895-.255-8.542-1.323v-8.253c0-.126.051-.261.131-.342a.508.508 0 0 1 .342-.132h25.713C14.399-4.074 7.839-.021 0 0" style="fill:#4eabd7;fill-opacity:1;fill-rule:nonzero;stroke:none" transform="translate(148.644 510.53)"/><path d="M0 0c-2.982.007-5.847-.246-8.479-1.294v-8.221c0-.128.053-.254.135-.336a.48.48 0 0 1 .337-.135h25.623C14.355-4.044 7.812-.021 0 0" style="fill:#50acd7;fill-opacity:1;fill-rule:nonzero;stroke:none" transform="translate(148.644 510.53)"/><path d="M0 0c-2.957.007-5.799-.236-8.415-1.266v-8.186a.468.468 0 0 1 .47-.47h25.533C14.311-4.015 7.785-.021 0 0" style="fill:#51add7;fill-opacity:1;fill-rule:nonzero;stroke:none" transform="translate(148.644 510.53)"/></g><g clip-path="url(#c)" transform="matrix(6.07796 0 0 -6.07796 -832.11 3242.689)"><path d="m0 0-15.511-9.757c2.363-5.792 6.895-10.522 12.822-12.871H13.098v11.559A32.584 32.584 0 0 1 0 0" style="fill:#2f882a;fill-opacity:1;fill-rule:nonzero;stroke:none" transform="translate(160.003 519.901)"/><path d="M0 0v10.996A32.542 32.542 0 0 1-13.044 22l-15.511-9.757c1.737-4.257 4.646-7.941 8.42-10.525a22.328 22.328 0 0 1 4.352-2.292H-.572l.57.002L0 0" style="fill:#2f882a;fill-opacity:1;fill-rule:nonzero;stroke:none" transform="translate(173.047 497.901)"/><path d="M0 0v11.011a32.486 32.486 0 0 1-12.99 10.936l-15.51-9.756c1.732-4.248 4.634-7.925 8.397-10.509C-18.792.786-17.29.026-15.778-.572H-.57c.005 0 .563.002.566.005C-.002-.564 0-.005 0 0" style="fill:#30892a;fill-opacity:1;fill-rule:nonzero;stroke:none" transform="translate(172.993 497.953)"/><path d="M0 0v11.024a32.43 32.43 0 0 1-12.937 10.872l-15.509-9.756c1.729-4.241 4.623-7.912 8.376-10.494 1.288-.88 2.81-1.626 4.296-2.215H-.568c.006 0 .557.002.562.006C-.002-.559 0-.007 0 0" style="fill:#308a2b;fill-opacity:1;fill-rule:nonzero;stroke:none" transform="translate(172.939 498.005)"/><path d="M0 0v11.039a32.392 32.392 0 0 1-12.883 10.805l-15.51-9.756c1.726-4.232 4.613-7.897 8.355-10.477C-18.771.745-17.23.012-15.77-.568H-.567c.009 0 .552.004.558.008C-.003-.554 0-.008 0 0" style="fill:#308a2b;fill-opacity:1;fill-rule:nonzero;stroke:none" transform="translate(172.885 498.057)"/><path d="M0 0v11.053a32.348 32.348 0 0 1-12.829 10.738l-15.51-9.756c1.723-4.223 4.601-7.882 8.334-10.461 1.245-.85 2.804-1.572 4.24-2.14H-.565c.01 0 .547.003.554.01C-.004-.549 0-.011 0 0" style="fill:#318b2b;fill-opacity:1;fill-rule:nonzero;stroke:none" transform="translate(172.831 498.11)"/><path d="M0 0v11.066a32.304 32.304 0 0 1-12.775 10.673l-15.51-9.756c1.72-4.214 4.591-7.867 8.313-10.445C-18.75.702-17.171-.006-15.76-.565H-.563c.012 0 .542.005.55.013C-.005-.544 0-.013 0 0" style="fill:#318c2b;fill-opacity:1;fill-rule:nonzero;stroke:none" transform="translate(172.777 498.161)"/><path d="M0 0v11.08a32.26 32.26 0 0 1-12.722 10.607l-15.509-9.755c1.716-4.207 4.58-7.853 8.291-10.429 1.201-.821 2.798-1.517 4.184-2.066H-.562c.015 0 .537.005.546.015.01.01.016.533.016.548" style="fill:#318d2b;fill-opacity:1;fill-rule:nonzero;stroke:none" transform="translate(172.723 498.213)"/><path d="M0 0v11.095a32.228 32.228 0 0 1-12.668 10.54l-15.509-9.755c1.713-4.198 4.569-7.838 8.27-10.412 1.179-.807 2.796-1.489 4.156-2.03H-.56c.017 0 .531.007.542.018C-.007-.533 0-.017 0 0" style="fill:#328d2b;fill-opacity:1;fill-rule:nonzero;stroke:none" transform="translate(172.669 498.265)"/><path d="M0 0v11.107a32.162 32.162 0 0 1-12.614 10.475l-15.508-9.755c1.709-4.189 4.557-7.823 8.247-10.396C-18.717.64-17.081-.03-15.746-.56H-.558c.019 0 .526.008.538.02.013.013.02.521.02.54" style="fill:#328e2c;fill-opacity:1;fill-rule:nonzero;stroke:none" transform="translate(172.614 498.317)"/><path d="M0 0v11.122A32.135 32.135 0 0 1-12.561 21.53l-15.508-9.755c1.706-4.181 4.546-7.808 8.226-10.379 1.135-.777 2.791-1.435 4.101-1.954H-.557c.021 0 .521.008.535.022C-.009-.522 0-.021 0 0" style="fill:#338f2c;fill-opacity:1;fill-rule:nonzero;stroke:none" transform="translate(172.561 498.37)"/><path d="M0 0v11.136a32.108 32.108 0 0 1-12.507 10.342l-15.508-9.754c1.703-4.173 4.536-7.794 8.205-10.364 1.114-.761 2.788-1.407 4.072-1.916H-.555c.023 0 .515.009.531.024C-.009-.517 0-.022 0 0" style="fill:#338f2c;fill-opacity:1;fill-rule:nonzero;stroke:none" transform="translate(172.507 498.42)"/><path d="M0 0v11.149a32.054 32.054 0 0 1-12.453 10.277l-15.508-9.755c1.7-4.164 4.524-7.778 8.184-10.348 1.092-.746 2.785-1.379 4.044-1.878H-.553c.025 0 .51.01.527.027C-.01-.512 0-.025 0 0" style="fill:#33902c;fill-opacity:1;fill-rule:nonzero;stroke:none" transform="translate(172.452 498.474)"/><path d="M0 0v11.162a32.019 32.019 0 0 1-12.399 10.21s-15.507-9.754-15.508-9.753c1.696-4.156 4.513-7.765 8.162-10.332 1.07-.731 2.782-1.351 4.016-1.841H-.551c.027 0 .505.011.522.029C-.011-.507 0-.028 0 0" style="fill:#34912c;fill-opacity:1;fill-rule:nonzero;stroke:none" transform="translate(172.398 498.526)"/><path d="M0 0v11.177A31.99 31.99 0 0 1-12.346 21.32l-15.507-9.754c1.692-4.147 4.502-7.749 8.14-10.315 1.048-.717 2.78-1.323 3.988-1.803H-.55c.029 0 .5.012.519.031C-.012-.502 0-.03 0 0" style="fill:#34912d;fill-opacity:1;fill-rule:nonzero;stroke:none" transform="translate(172.345 498.578)"/><path d="M0 0v11.19a31.936 31.936 0 0 1-12.292 10.078l-15.507-9.753c1.689-4.139 4.491-7.735 8.119-10.299 1.027-.702 2.777-1.297 3.96-1.766H-.548c.032 0 .495.013.515.032C-.012-.496 0-.032 0 0" style="fill:#34922d;fill-opacity:1;fill-rule:nonzero;stroke:none" transform="translate(172.29 498.63)"/><path d="M0 0v11.204a31.903 31.903 0 0 1-12.239 10.012l-15.506-9.753c1.686-4.131 4.48-7.72 8.098-10.283 1.004-.687 2.773-1.269 3.932-1.728H-.547c.034 0 .49.014.511.034C-.014-.491 0-.034 0 0" style="fill:#35932d;fill-opacity:1;fill-rule:nonzero;stroke:none" transform="translate(172.237 498.682)"/><path d="M0 0v11.218a31.857 31.857 0 0 1-12.185 9.945s-15.504-9.753-15.506-9.753c1.682-4.122 4.469-7.704 8.076-10.266.983-.672 2.771-1.242 3.905-1.691H-.545c.036 0 .484.015.507.037C-.014-.485 0-.036 0 0" style="fill:#35932d;fill-opacity:1;fill-rule:nonzero;stroke:none" transform="translate(172.182 498.734)"/><path d="M0 0v11.231a31.84 31.84 0 0 1-12.131 9.88s-15.505-9.753-15.506-9.752c1.679-4.114 4.458-7.69 8.054-10.251.961-.657 2.768-1.213 3.876-1.653H-.543c.038 0 .479.016.503.04C-.015-.48 0-.038 0 0" style="fill:#36942d;fill-opacity:1;fill-rule:nonzero;stroke:none" transform="translate(172.128 498.786)"/><path d="M0 0v11.246a31.825 31.825 0 0 1-12.077 9.814l-15.506-9.753c1.676-4.106 4.447-7.675 8.033-10.235.94-.641 2.765-1.185 3.848-1.615h15.16c.041 0 .474.017.5.042C-.016-.475 0-.04 0 0" style="fill:#36952d;fill-opacity:1;fill-rule:nonzero;stroke:none" transform="translate(172.074 498.838)"/><path d="M0 0v11.26a31.782 31.782 0 0 1-12.023 9.747l-15.506-9.752c1.672-4.097 4.436-7.661 8.011-10.218.917-.628 2.763-1.159 3.821-1.578H-.54c.042 0 .469.017.496.044C-.017-.47 0-.042 0 0" style="fill:#36952e;fill-opacity:1;fill-rule:nonzero;stroke:none" transform="translate(172.02 498.89)"/><path d="M0 0v11.273a31.747 31.747 0 0 1-11.97 9.681s-15.503-9.752-15.505-9.752C-25.806 7.114-23.05 3.557-19.485 1c.896-.612 2.76-1.131 3.793-1.54H-.538c.045 0 .463.019.492.047C-.018-.465 0-.044 0 0" style="fill:#37962e;fill-opacity:1;fill-rule:nonzero;stroke:none" transform="translate(171.966 498.942)"/><path d="M0 0v11.287a31.71 31.71 0 0 1-11.917 9.615s-15.502-9.752-15.504-9.752c1.665-4.079 4.414-7.63 7.968-10.185.874-.597 2.757-1.103 3.764-1.502H-.537c.047 0 .458.018.488.048.03.03.049.443.049.489" style="fill:#37972e;fill-opacity:1;fill-rule:nonzero;stroke:none" transform="translate(171.912 498.994)"/><path d="M0 0v11.302a31.717 31.717 0 0 1-11.862 9.549s-15.503-9.752-15.505-9.751c1.662-4.073 4.403-7.618 7.947-10.17.852-.583 2.754-1.076 3.736-1.466H-.535c.049 0 .453.019.484.051C-.019-.453 0-.048 0 0" style="fill:#38972e;fill-opacity:1;fill-rule:nonzero;stroke:none" transform="translate(171.858 499.046)"/><path d="M0 0v11.314a31.66 31.66 0 0 1-11.809 9.483l-15.504-9.751c1.659-4.064 4.391-7.602 7.925-10.153.83-.568 2.752-1.048 3.709-1.427H-.533c.051 0 .448.019.48.052C-.02-.449 0-.051 0 0" style="fill:#38982e;fill-opacity:1;fill-rule:nonzero;stroke:none" transform="translate(171.804 499.099)"/><path d="M0 0v11.329a31.661 31.661 0 0 1-11.755 9.417s-15.502-9.752-15.504-9.751c1.655-4.056 4.381-7.587 7.904-10.138.808-.552 2.748-1.02 3.68-1.389H-.531c.052 0 .442.02.475.054C-.021-.443 0-.053 0 0" style="fill:#38992f;fill-opacity:1;fill-rule:nonzero;stroke:none" transform="translate(171.75 499.15)"/><path d="M0 0v11.342a31.634 31.634 0 0 1-11.701 9.35s-15.502-9.751-15.504-9.75c1.652-4.046 4.369-7.572 7.882-10.121.787-.538 2.746-.993 3.653-1.352H-.53c.055 0 .437.022.472.056C-.021-.438 0-.056 0 0" style="fill:#399a2f;fill-opacity:1;fill-rule:nonzero;stroke:none" transform="translate(171.696 499.203)"/><path d="M0 0v11.356a31.632 31.632 0 0 1-11.648 9.285s-15.501-9.751-15.503-9.751c1.648-4.037 4.358-7.557 7.861-10.105.764-.522 2.743-.965 3.624-1.314H-.528c.057 0 .431.022.468.058.038.037.06.413.06.471" style="fill:#399a2f;fill-opacity:1;fill-rule:nonzero;stroke:none" transform="translate(171.642 499.255)"/><path d="M0 0v11.37a31.619 31.619 0 0 1-11.594 9.218s-15.501-9.75-15.503-9.75c1.645-4.029 4.347-7.542 7.84-10.089.742-.507 2.739-.937 3.596-1.276H-.526c.059 0 .426.023.464.061C-.023-.428 0-.06 0 0" style="fill:#3a9b2f;fill-opacity:1;fill-rule:nonzero;stroke:none" transform="translate(171.588 499.307)"/><path d="M0 0v11.385a31.612 31.612 0 0 1-11.54 9.152s-15.501-9.751-15.503-9.751c1.642-4.02 4.336-7.527 7.818-10.072.721-.492 2.737-.91 3.568-1.239H-.525c.062 0 .421.024.461.063.04.04.064.401.064.462" style="fill:#3a9c2f;fill-opacity:1;fill-rule:nonzero;stroke:none" transform="translate(171.534 499.358)"/><path d="M0 0v11.397a31.587 31.587 0 0 1-11.486 9.087s-15.501-9.751-15.503-9.75c1.638-4.012 4.325-7.512 7.797-10.056.699-.478 2.734-.882 3.54-1.202H-.523c.064 0 .416.025.457.065C-.025-.417 0-.063 0 0" style="fill:#3a9c2f;fill-opacity:1;fill-rule:nonzero;stroke:none" transform="translate(171.48 499.411)"/><path d="M0 0v11.411a31.588 31.588 0 0 1-11.433 9.021s-15.5-9.75-15.503-9.75C-25.3 6.678-22.621 3.184-19.16.642c.677-.463 2.731-.855 3.512-1.164H-.521c.065 0 .41.026.452.067C-.026-.412 0-.065 0 0" style="fill:#3b9d30;fill-opacity:1;fill-rule:nonzero;stroke:none" transform="translate(171.426 499.463)"/><path d="M0 0v11.426a31.572 31.572 0 0 1-11.379 8.954s-15.5-9.75-15.503-9.749c1.632-3.996 4.303-7.485 7.754-10.025.655-.448 2.729-.827 3.484-1.127H-.52c.067 0 .406.028.449.071C-.027-.406 0-.067 0 0" style="fill:#3b9e30;fill-opacity:1;fill-rule:nonzero;stroke:none" transform="translate(171.372 499.515)"/><path d="M0 0v11.439a31.569 31.569 0 0 1-11.326 8.888s-15.499-9.75-15.502-9.75c1.629-3.986 4.293-7.468 7.733-10.007.633-.433 2.725-.799 3.456-1.09H-.518c.07 0 .4.029.445.073C-.028-.401 0-.07 0 0" style="fill:#3c9e30;fill-opacity:1;fill-rule:nonzero;stroke:none" transform="translate(171.318 499.567)"/><path d="M0 0v11.453a31.548 31.548 0 0 1-11.272 8.821s-15.499-9.749-15.502-9.749c1.626-3.977 4.282-7.453 7.711-9.991.612-.418 2.723-.771 3.428-1.052H-.517c.073 0 .395.03.441.075C-.028-.396 0-.072 0 0" style="fill:#3c9f30;fill-opacity:1;fill-rule:nonzero;stroke:none" transform="translate(171.264 499.62)"/><path d="M0 0v11.467a31.557 31.557 0 0 1-11.218 8.756s-15.499-9.749-15.502-9.748c1.622-3.971 4.271-7.44 7.69-9.976.59-.403 2.72-.745 3.4-1.015H-.515c.075 0 .39.031.437.078C-.029-.391 0-.073 0 0" style="fill:#3ca030;fill-opacity:1;fill-rule:nonzero;stroke:none" transform="translate(171.21 499.67)"/><path d="M0 0v11.48a31.563 31.563 0 0 1-11.164 8.69s-15.499-9.749-15.502-9.748c1.619-3.962 4.26-7.425 7.669-9.96.568-.388 2.717-.717 3.372-.977H-.513c.076 0 .385.032.433.079.05.05.08.36.08.436" style="fill:#3da030;fill-opacity:1;fill-rule:nonzero;stroke:none" transform="translate(171.155 499.724)"/><path d="M0 0v11.494a31.56 31.56 0 0 1-11.11 8.624s-15.499-9.749-15.502-9.748c1.615-3.953 4.248-7.41 7.647-9.943.546-.373 2.715-.69 3.344-.94H-.512c.079 0 .38.033.43.081C-.031-.38 0-.078 0 0" style="fill:#3da131;fill-opacity:1;fill-rule:nonzero;stroke:none" transform="translate(171.102 499.775)"/><path d="M0 0v11.509a31.552 31.552 0 0 1-11.057 8.556s-15.498-9.748-15.501-9.747c1.612-3.945 4.238-7.395 7.626-9.926.524-.359 2.711-.663 3.316-.903H-.51c.081 0 .375.032.426.084C-.032-.374 0-.08 0 0" style="fill:#3ea231;fill-opacity:1;fill-rule:nonzero;stroke:none" transform="translate(171.047 499.827)"/><path d="M0 0v11.521a31.56 31.56 0 0 1-11.003 8.492s-15.498-9.748-15.501-9.747c1.608-3.937 4.226-7.38 7.604-9.912.502-.342 2.709-.633 3.288-.863H-.508c.082 0 .369.033.421.085C-.033-.37 0-.083 0 0" style="fill:#3ea331;fill-opacity:1;fill-rule:nonzero;stroke:none" transform="translate(170.994 499.88)"/><path d="M0 0v11.536a31.57 31.57 0 0 1-10.95 8.425s-15.497-9.748-15.5-9.747c1.605-3.928 4.215-7.365 7.582-9.895.481-.328 2.706-.606 3.261-.826H-.506c.084 0 .363.033.417.087C-.034-.364 0-.085 0 0" style="fill:#3fa331;fill-opacity:1;fill-rule:nonzero;stroke:none" transform="translate(170.94 499.932)"/><path d="M0 0v11.55a31.59 31.59 0 0 1-10.896 8.359s-15.497-9.748-15.5-9.747c1.602-3.92 4.204-7.35 7.561-9.879.459-.313 2.703-.579 3.232-.788H-.505c.087 0 .359.034.414.09C-.034-.358 0-.086 0 0" style="fill:#3fa431;fill-opacity:1;fill-rule:nonzero;stroke:none" transform="translate(170.885 499.983)"/><path d="M0 0v11.564a31.584 31.584 0 0 1-10.842 8.292s-15.497-9.747-15.5-9.746c1.598-3.911 4.193-7.336 7.539-9.862.437-.299 2.7-.552 3.204-.751H-.503c.089 0 .353.035.41.092C-.035-.354 0-.088 0 0" style="fill:#40a531;fill-opacity:1;fill-rule:nonzero;stroke:none" transform="translate(170.832 500.035)"/><path d="M0 0v11.577a31.622 31.622 0 0 1-10.789 8.227s-15.496-9.747-15.499-9.746c1.595-3.903 4.182-7.322 7.518-9.846.415-.284 2.697-.525 3.176-.714H-.501c.091 0 .347.036.405.094C-.036-.349 0-.091 0 0" style="fill:#40a532;fill-opacity:1;fill-rule:nonzero;stroke:none" transform="translate(170.777 500.088)"/><path d="M0 0v11.592a31.654 31.654 0 0 1-10.734 8.16s-15.496-9.747-15.5-9.746c1.591-3.895 4.171-7.307 7.497-9.83.393-.269 2.694-.496 3.147-.676H-.5c.093 0 .343.037.402.096C-.037-.343 0-.093 0 0" style="fill:#40a632;fill-opacity:1;fill-rule:nonzero;stroke:none" transform="translate(170.723 500.14)"/><path d="M0 0v11.604a31.66 31.66 0 0 1-10.681 8.095S-26.176 9.952-26.18 9.953c1.588-3.886 4.16-7.291 7.475-9.813.372-.254 2.692-.469 3.12-.639H-.498c.096 0 .338.038.398.099.062.062.1.304.1.4" style="fill:#41a732;fill-opacity:1;fill-rule:nonzero;stroke:none" transform="translate(170.669 500.192)"/><path d="M0 0v11.619a31.705 31.705 0 0 1-10.627 8.028S-26.123 9.9-26.126 9.901c1.584-3.878 4.148-7.276 7.454-9.797.349-.239 2.689-.441 3.091-.601H-.497c.098 0 .333.039.395.101C-.039-.333 0-.098 0 0" style="fill:#41a732;fill-opacity:1;fill-rule:nonzero;stroke:none" transform="translate(170.615 500.244)"/><path d="M0 0v11.633a31.724 31.724 0 0 1-10.574 7.962S-26.068 9.849-26.072 9.85c1.581-3.87 4.138-7.262 7.432-9.782.327-.223 2.686-.414 3.064-.563H-.495c.1 0 .328.04.391.102C-.039-.327 0-.099 0 0" style="fill:#42a832;fill-opacity:1;fill-rule:nonzero;stroke:none" transform="translate(170.561 500.296)"/><path d="M0 0v11.647a31.756 31.756 0 0 1-10.52 7.896s-15.494-9.746-15.498-9.745c1.578-3.86 4.127-7.247 7.411-9.765.306-.209 2.683-.387 3.036-.526H-.493c.102 0 .322.041.387.105C-.04-.321 0-.101 0 0" style="fill:#42a932;fill-opacity:1;fill-rule:nonzero;stroke:none" transform="translate(170.507 500.348)"/><path d="M0 0v11.66a31.778 31.778 0 0 1-10.466 7.83S-25.96 9.744-25.964 9.745c1.574-3.852 4.115-7.232 7.389-9.749.284-.194 2.68-.358 3.008-.488H-.492c.104 0 .317.042.383.107C-.041-.316 0-.104 0 0" style="fill:#43aa33;fill-opacity:1;fill-rule:nonzero;stroke:none" transform="translate(170.453 500.4)"/><path d="M0 0v11.674a31.822 31.822 0 0 1-10.413 7.764S-25.906 9.692-25.91 9.693c1.571-3.843 4.104-7.217 7.368-9.732.262-.18 2.677-.331 2.979-.451H-.49c.106 0 .312.043.379.109C-.042-.312 0-.105 0 0" style="fill:#43aa33;fill-opacity:1;fill-rule:nonzero;stroke:none" transform="translate(170.399 500.452)"/><path d="M0 0v11.688a31.897 31.897 0 0 1-10.358 7.698s-15.494-9.745-15.498-9.744c1.568-3.835 4.093-7.204 7.346-9.717.24-.164 2.675-.303 2.952-.413h15.07c.108 0 .306.044.375.112C-.042-.306 0-.107 0 0" style="fill:#43ab33;fill-opacity:1;fill-rule:nonzero;stroke:none" transform="translate(170.345 500.504)"/><path d="M0 0v11.701a31.938 31.938 0 0 1-10.305 7.632s-15.493-9.745-15.497-9.744c1.564-3.827 4.082-7.189 7.324-9.7.219-.15 2.672-.276 2.924-.376H-.486c.11 0 .3.045.37.114C-.043-.301 0-.11 0 0" style="fill:#44ac33;fill-opacity:1;fill-rule:nonzero;stroke:none" transform="translate(170.291 500.557)"/><path d="M0 0v11.716a32.013 32.013 0 0 1-10.251 7.565s-15.493-9.745-15.498-9.744c1.562-3.818 4.072-7.173 7.304-9.683.197-.135 2.669-.25 2.896-.339H-.485c.112 0 .296.046.367.116C-.044-.296 0-.111 0 0" style="fill:#44ac33;fill-opacity:1;fill-rule:nonzero;stroke:none" transform="translate(170.237 500.608)"/><path d="M0 0v11.729a32.043 32.043 0 0 1-10.197 7.5S-25.69 9.484-25.694 9.485c1.558-3.809 4.06-7.158 7.282-9.668.175-.119 2.666-.22 2.868-.3H-.483c.114 0 .291.045.363.119C-.045-.29 0-.113 0 0" style="fill:#45ad33;fill-opacity:1;fill-rule:nonzero;stroke:none" transform="translate(170.183 500.66)"/><path d="M0 0v11.743a32.14 32.14 0 0 1-10.144 7.434s-15.492-9.745-15.497-9.744c1.555-3.802 4.05-7.144 7.261-9.652.153-.104 2.663-.193 2.839-.262H-.481c.116 0 .285.045.359.12C-.046-.285 0-.116 0 0" style="fill:#45ae34;fill-opacity:1;fill-rule:nonzero;stroke:none" transform="translate(170.129 500.713)"/><path d="M0 0v11.757a32.2 32.2 0 0 1-10.09 7.367S-25.582 9.38-25.586 9.381c1.55-3.793 4.038-7.129 7.239-9.636.131-.089 2.66-.165 2.811-.224H-.479c.118 0 .279.046.354.122C-.047-.279 0-.118 0 0" style="fill:#46af34;fill-opacity:1;fill-rule:nonzero;stroke:none" transform="translate(170.075 500.765)"/><path d="M0 0v11.771a32.248 32.248 0 0 1-10.037 7.301s-15.491-9.744-15.495-9.743c1.547-3.784 4.027-7.114 7.218-9.619.108-.074 2.657-.138 2.783-.188H-.478c.121 0 .275.048.352.124C-.047-.274 0-.12 0 0" style="fill:#46af34;fill-opacity:1;fill-rule:nonzero;stroke:none" transform="translate(170.02 500.816)"/><path d="M0 0v11.784a32.373 32.373 0 0 1-9.983 7.236s-15.491-9.745-15.496-9.744c1.544-3.776 4.017-7.099 7.196-9.602.088-.061 2.656-.111 2.756-.151H-.477c.123 0 .27.049.348.127C-.048-.27 0-.123 0 0" style="fill:#47b034;fill-opacity:1;fill-rule:nonzero;stroke:none" transform="translate(169.967 500.87)"/><path d="M0 0v11.799a32.47 32.47 0 0 1-9.929 7.169S-25.42 9.224-25.425 9.225c1.541-3.768 4.006-7.084 7.175-9.587.066-.045 2.652-.083 2.728-.113H-.475c.125 0 .265.05.344.129A.515.515 0 0 1 0 0" style="fill:#47b134;fill-opacity:1;fill-rule:nonzero;stroke:none" transform="translate(169.913 500.92)"/><path d="M0 0v11.813a32.552 32.552 0 0 1-9.875 7.102s-15.491-9.743-15.496-9.742c1.538-3.759 3.995-7.069 7.154-9.57.044-.031 2.649-.056 2.699-.076H-.473c.127 0 .259.051.34.131A.502.502 0 0 1 0 0" style="fill:#47b134;fill-opacity:1;fill-rule:nonzero;stroke:none" transform="translate(169.858 500.973)"/><path d="M0 0v11.826a32.635 32.635 0 0 1-9.822 7.036s-15.49-9.743-15.495-9.742c1.534-3.751 3.984-7.055 7.132-9.555.022-.014 2.646-.027 2.671-.037H-.472c.13 0 .254.052.336.134A.48.48 0 0 1 0 0" style="fill:#48b234;fill-opacity:1;fill-rule:nonzero;stroke:none" transform="translate(169.805 501.025)"/><path d="m0 0-15.49-9.743-.005.001c1.531-3.742 3.973-7.04 7.111-9.538H9.298a.467.467 0 0 1 .47.469v11.84A32.74 32.74 0 0 1 0 0" style="fill:#48b335;fill-opacity:1;fill-rule:nonzero;stroke:none" transform="translate(159.982 519.888)"/></g><g clip-path="url(#d)" transform="matrix(6.07796 0 0 -6.07796 -832.11 3242.689)"><path d="M168.476 528.258c-7.501-3.872-11.431-11.313-8.777-16.622 2.07-4.143 7.537-5.746 13.403-4.421v22.778a21.004 21.004 0 0 1-4.626-1.735" style="fill:url(#e);stroke:none"/></g><g clip-path="url(#f)" transform="matrix(6.07796 0 0 -6.07796 -832.11 3242.689)"><path d="M169.765 528.864v-22.089c1.085.038 2.202.183 3.337.44v22.778a20.798 20.798 0 0 1-3.337-1.129" style="fill:url(#g);stroke:none"/></g><g clip-path="url(#h)" transform="matrix(6.07796 0 0 -6.07796 -832.11 3242.689)"><path d="M142.913 522.769c-1.21-8.721 2.308-17.085 8.685-22.162h17.683a.468.468 0 0 1 .47.47v11.84c-6.037 6.281-14.481 10.028-23.468 10.028a32.42 32.42 0 0 1-3.37-.176" style="fill:url(#i);stroke:none"/></g><g clip-path="url(#j)" transform="matrix(6.07796 0 0 -6.07796 -832.11 3242.689)"><path d="M159.699 511.636c2.07-4.143 7.537-5.746 13.403-4.421v1.617a32.605 32.605 0 0 1-13.098 11.069c-1.332-2.834-1.546-5.783-.305-8.265" style="fill:url(#k);stroke:none"/></g><g clip-path="url(#l)" transform="matrix(6.07796 0 0 -6.07796 -832.11 3242.689)"><path d="M169.765 506.775c1.085.038 2.202.183 3.337.44v1.617a32.234 32.234 0 0 1-3.337 4.067z" style="fill:url(#m);stroke:none"/></g><g clip-path="url(#n)" transform="matrix(6.07796 0 0 -6.07796 -832.11 3242.689)"><path d="M144.48 510.154c2.352-5.794 6.907-10.532 12.834-12.881h10.365c-2.414 7.695-9.857 13.233-19.035 13.257h-.043c-1.4 0-2.785-.13-4.121-.376" style="fill:url(#o);stroke:none"/></g><g clip-path="url(#p)" transform="matrix(6.07796 0 0 -6.07796 -832.11 3242.689)"><path d="M151.603 500.607a22.407 22.407 0 0 1 5.711-3.334h10.365a18.008 18.008 0 0 1-1.446 3.334z" style="fill:url(#q);stroke:none"/></g><path d="M0 0c-.221-.326-.474-.491-.77-.491-.282 0-.535.165-.758.491-.226.329-.336.715-.336 1.162 0 .443.11.828.336 1.155.223.325.476.486.758.486.296 0 .549-.161.77-.486.218-.327.329-.712.329-1.155C.329.715.218.329 0 0m1.038 3.166h.75v.003h.671v1.056H.227v1.019h-1.989V4.225h-2.237V3.169h.663v-.003h.766a2.656 2.656 0 0 1-.748-.876 2.406 2.406 0 0 1-.279-1.128c0-.725.279-1.344.836-1.866A2.819 2.819 0 0 1-.77-1.485c.782 0 1.449.261 2 .781.55.522.829 1.141.829 1.866 0 .404-.092.779-.279 1.128a2.662 2.662 0 0 1-.742.876" style="fill:#214074;fill-opacity:1;fill-rule:nonzero;stroke:none" transform="matrix(6.07796 0 0 -6.07796 272.383 326.75)"/><path d="M0 0h-4.961v2.688h-1.825V.191c0-.386.119-.695.357-.917.241-.231.542-.343.909-.343H.82V0Z" style="fill:#214074;fill-opacity:1;fill-rule:nonzero;stroke:none" transform="matrix(6.07796 0 0 -6.07796 301.722 357.413)"/><path d="M0 0c-.214-.326-.466-.491-.766-.491-.282 0-.534.165-.757.491-.226.329-.338.715-.338 1.162 0 .443.112.828.338 1.155.223.325.475.486.757.486.3 0 .552-.161.766-.486.228-.327.331-.712.331-1.155C.331.715.228.329 0 0m1.043 3.166h.75v.003h.677v1.056H.228v1.019h-1.983V4.225h-2.237V3.169h.661v-.003h.765a2.633 2.633 0 0 1-.744-.876 2.347 2.347 0 0 1-.278-1.128c0-.725.273-1.344.831-1.866a2.817 2.817 0 0 1 1.991-.781c.782 0 1.449.261 2.001.781.558.522.83 1.141.83 1.866 0 .404-.092.779-.282 1.128a2.588 2.588 0 0 1-.74.876" style="fill:#214074;fill-opacity:1;fill-rule:nonzero;stroke:none" transform="matrix(6.07796 0 0 -6.07796 539.356 326.75)"/><path d="M0 0h4.961L4.96-2.687h1.836L6.789-.191c0 .385-.12.693-.361.924-.238.225-.539.338-.907.338H-.816V0Z" style="fill:#214074;fill-opacity:1;fill-rule:nonzero;stroke:none" transform="matrix(6.07796 0 0 -6.07796 529.978 347.58)"/><path d="M0 0v4.288h-1.525V0h-.929l.002 4.288h-1.524V0l-1.777.007v-1.074h9.564V.007z" style="fill:#214074;fill-opacity:1;fill-rule:nonzero;stroke:none" transform="matrix(6.07796 0 0 -6.07796 421.05 350.928)"/><path d="M0 0c-.863.526-1.297 1.31-1.299 2.113h-.003v.301h-1.853v-.288c0-.811-.431-1.596-1.291-2.126-.863-.527-1.76-.8-2.697-.806l.868-.818c.756 0 1.558.164 2.402.503.848.333 1.397.773 1.646 1.31.259-.537.817-.977 1.665-1.31.852-.339 1.643-.503 2.384-.503l.868.818C1.761-.8.867-.527 0 0" style="fill:#214074;fill-opacity:1;fill-rule:nonzero;stroke:none" transform="matrix(6.07796 0 0 -6.07796 627.73 309.893)"/><path d="M0 0c.592-.436 1.172-.675 1.742-.724l.888.793C1.887.21 1.233.514.661 1.201.089 1.89-.2 2.696-.2 3.761V4h2.087v1.074h-5.996V4h2.059v-.239c0-1.061-.285-1.857-.852-2.553C-3.473.514-4.131.21-4.879.069l.903-.793c.565.056 1.145.3 1.74.728.594.434.966.892 1.112 1.388C-.961.896-.59.432 0 0" style="fill:#214074;fill-opacity:1;fill-rule:nonzero;stroke:none" transform="matrix(6.07796 0 0 -6.07796 677.754 331.929)"/><path d="m0 0-.001 6.171h-1.832l.004-2.16h-2.162V2.939h2.162V0Z" style="fill:#214074;fill-opacity:1;fill-rule:nonzero;stroke:none" transform="matrix(6.07796 0 0 -6.07796 709.005 338.582)"/><path d="M689.886 294.416h18.457v-9.823h-18.457zm13.406-24.064v9.354h13.388l-.014 27.994h-8.323v-8.397h-18.458v8.397h-8.346l.014-22.305c0-1.714.533-3.1 1.563-4.144 1.08-1.02 2.466-1.545 4.217-1.545h7.608v-9.354h-18.608v-4.896H721.9v4.896h-18.608" style="fill:#214074;fill-opacity:1;fill-rule:nonzero;stroke:none;stroke-width:4.55848" transform="matrix(1.33333 0 0 -1.33333 -182.541 711.354)"/><path d="M0 0c.194.258.427.391.707.391.275 0 .509-.133.7-.391.199-.258.298-.587.298-.986 0-.385-.099-.711-.298-.978-.191-.263-.425-.396-.7-.396-.28 0-.513.133-.707.396-.194.267-.293.593-.293.978 0 .399.099.728.293.986m-1.245-2.674c.537-.461 1.186-.692 1.952-.692.772 0 1.424.231 1.955.692.536.464.803 1.025.803 1.688 0 .665-.267 1.236-.803 1.701-.531.463-1.183.696-1.955.696-.766 0-1.415-.233-1.952-.696C-1.781.25-2.05-.321-2.05-.986c0-.663.269-1.224.805-1.688" style="fill:#214074;fill-opacity:1;fill-rule:nonzero;stroke:none" transform="matrix(6.07796 0 0 -6.07796 801.284 306.804)"/><path d="M0 0v-1.014h2.498v-1.242h1.827v1.242h2.654V0Z" style="fill:#214074;fill-opacity:1;fill-rule:nonzero;stroke:none" transform="matrix(6.07796 0 0 -6.07796 784.76 328.931)"/><path d="M0 0v8.22h-1.829V2.338h-1.584v-.946h1.584L-1.833 0Z" style="fill:#214074;fill-opacity:1;fill-rule:nonzero;stroke:none" transform="matrix(6.07796 0 0 -6.07796 844.026 351.035)"/><path d="M0 0v2.106h-1.832l.003-1.919c0-.386.121-.691.359-.917.24-.23.541-.343.909-.343h6.837V0Z" style="fill:#214074;fill-opacity:1;fill-rule:nonzero;stroke:none" transform="matrix(6.07796 0 0 -6.07796 808.253 357.413)"/><path d="M499.264 277.71h-4.855v5.32h4.855zm-6.838 25.614c1.272 1.568 2.822 2.324 4.627 2.324 1.833 0 3.369-.756 4.645-2.324 1.272-1.505 1.924-3.374 1.924-5.566 0-2.166-.652-4.053-1.924-5.575-1.276-1.532-2.812-2.298-4.645-2.298-1.805 0-3.355.766-4.627 2.298-1.294 1.522-1.91 3.41-1.91 5.575 0 2.192.616 4.061 1.91 5.566m26.257-20.29v4.86H505.896c.575.373 1.145.76 1.692 1.203 2.876 2.416 4.307 5.297 4.307 8.66 0 3.429-1.43 6.319-4.307 8.707-2.904 2.412-6.4 3.602-10.535 3.602-4.107 0-7.599-1.19-10.498-3.602-2.886-2.388-4.326-5.278-4.326-8.706 0-3.364 1.44-6.245 4.326-8.661.542-.443 1.103-.83 1.677-1.204h-12.79v-4.86h11.655v-5.323h-9.117v-4.878h30.196v-12.249h8.342v11.378c0 1.75-.547 3.16-1.65 4.212-1.085 1.021-2.462 1.537-4.126 1.537h-4.212v5.324z" style="fill:#214074;fill-opacity:1;fill-rule:nonzero;stroke:none;stroke-width:4.55848" transform="matrix(1.33333 0 0 -1.33333 -182.541 711.354)"/><path d="M0 0v1.069h-9.48V0h3.698v-.883h-2.909v-1.059l5.85-.002v-.707h-5.858l.001-1.533c0-.377.115-.683.351-.91.241-.233.549-.349.93-.349h6.431v1.074l-5.882-.001v.709h5.858v2.778h-2.95V0Z" style="fill:#214074;fill-opacity:1;fill-rule:nonzero;stroke:none" transform="matrix(6.07796 0 0 -6.07796 643.026 330.825)"/><path d="M0 0c.267.321.595.483.979.483S1.696.321 1.965 0c.269-.322.399-.711.399-1.171 0-.459-.13-.85-.399-1.171-.269-.324-.602-.479-.986-.479s-.712.155-.979.479c-.276.321-.408.712-.408 1.171 0 .46.132.849.408 1.171m-1.322-3.07c.634-.524 1.403-.786 2.301-.786.903 0 1.67.262 2.31.786.631.525.945 1.156.945 1.899 0 .748-.314 1.383-.945 1.914-.64.522-1.407.787-2.31.787-.898 0-1.667-.265-2.301-.787-.635-.531-.949-1.166-.949-1.914 0-.743.314-1.374.949-1.899" style="fill:#214074;fill-opacity:1;fill-rule:nonzero;stroke:none" transform="matrix(6.07796 0 0 -6.07796 682.83 347.014)"/><path d="M0 0v1.068h-.876c.122.168.227.439.317.805.089.369.133.718.133 1.048v.838h-.009a1.229 1.229 0 0 1-1.237 1.22l-.002-.001v.008h-7.193V3.913h6.611V2.871c0-.331-.015-.649-.041-.964a3.32 3.32 0 0 0-.179-.839h-7.009V0h3.698v-1.613h-3.134v-1.071h6.624v-2.687h1.835L-.47-2.875c0 .385-.116.693-.359.924-.237.224-.537.338-.906.338h-2.221V0Z" style="fill:#214074;fill-opacity:1;fill-rule:nonzero;stroke:none" transform="matrix(6.07796 0 0 -6.07796 375.916 331.267)"/><path d="M0 0h-7.515v-1.059l6.824-.017v-1.9c0-.864-.025-1.579-.072-2.14-.049-.564-.191-1.047-.427-1.451H.416c.219.37.395.838.518 1.417.119.576.178 1.256.178 2.035v1.954A1.22 1.22 0 0 1 0 0" style="fill:#214074;fill-opacity:1;fill-rule:nonzero;stroke:none" transform="matrix(6.07796 0 0 -6.07796 434.019 301.073)"/><path d="M0 0v-.004h-.517a1.225 1.225 0 0 1-1.221-1.18l.001-4.521H.095l.003 4.639h1.403V0Z" style="fill:#214074;fill-opacity:1;fill-rule:nonzero;stroke:none" transform="matrix(6.07796 0 0 -6.07796 570.69 301.049)"/><path d="M0 0h-.621a1.23 1.23 0 0 1-1.213-1.171l.001-6.158H0v6.264h1.409V0Z" style="fill:#214074;fill-opacity:1;fill-rule:nonzero;stroke:none" transform="matrix(6.07796 0 0 -6.07796 304.268 300.975)"/><path d="M0 0v-1.356h.017L.764 0h.554L.522-1.356l.862-1.445h-.62L.008-1.356h-.01v-1.445h-.541V0Z" style="fill:#214074;fill-opacity:1;fill-rule:nonzero;stroke:none" transform="matrix(6.07796 0 0 -6.07796 260.977 382.766)"/><path d="M0 0c0-.598.059-1.089.486-1.089.423 0 .483.491.483 1.089 0 .593-.06 1.085-.483 1.085C.059 1.085 0 .593 0 0m1.541 0c0-.507-.011-1.438-1.055-1.438S-.571-.507-.571 0c0 .503.013 1.434 1.057 1.434S1.541.503 1.541 0" style="fill:#214074;fill-opacity:1;fill-rule:nonzero;stroke:none" transform="matrix(6.07796 0 0 -6.07796 273.858 391.26)"/><path d="M0 0c0 .268-.051.489-.458.483h-.087v-.925C-.141-.459 0-.285 0 0m-1.083.797h.647C-.042.797.57.782.57.08c0-.262-.114-.664-.56-.72l.747-1.363H.199L-.536-.632h-.009v-1.371h-.538z" style="fill:#214074;fill-opacity:1;fill-rule:nonzero;stroke:none" transform="matrix(6.07796 0 0 -6.07796 292.63 387.613)"/><path d="M0 0v-.322h-.908v-.881h.811v-.323h-.811v-.951H0v-.324h-1.449V0Z" style="fill:#214074;fill-opacity:1;fill-rule:nonzero;stroke:none" transform="matrix(6.07796 0 0 -6.07796 308.622 382.766)"/><path d="m0 0-.207 1.019h-.01L-.542-.402h.648Zm.008 1.561L.88-1.24H.335l-.146.546h-.811l-.149-.546h-.528l.883 2.801z" style="fill:#214074;fill-opacity:1;fill-rule:nonzero;stroke:none" transform="matrix(6.07796 0 0 -6.07796 318.804 392.251)"/><path d="M0 0v-.322h-.907v-.881h.811v-.323h-.811v-.951H0v-.324h-1.446V0Z" style="fill:#214074;fill-opacity:1;fill-rule:nonzero;stroke:none" transform="matrix(6.07796 0 0 -6.07796 343.553 382.766)"/><path d="M0 0v-2.171c.891-.016.851.562.851 1.039C.851-.704.911.035 0 0m.069.314c.632 0 1.355-.029 1.355-1.446 0-1.294-.624-1.355-1.588-1.355h-.37V.314z" style="fill:#214074;fill-opacity:1;fill-rule:nonzero;stroke:none" transform="matrix(6.07796 0 0 -6.07796 349.538 384.675)"/><path d="M0 0v-2.171c.891-.016.851.562.851 1.039C.851-.704.91.035 0 0m.069.314c.632 0 1.355-.029 1.355-1.446 0-1.294-.624-1.355-1.589-1.355h-.369V.314z" style="fill:#214074;fill-opacity:1;fill-rule:nonzero;stroke:none" transform="matrix(6.07796 0 0 -6.07796 489.533 384.675)"/><path d="M0 0v-2.054c0-.358.153-.432.374-.432.374 0 .406.163.411.393V0h.54v-1.986c0-.368.002-.849-.934-.849-.856 0-.932.401-.932.903V0Z" style="fill:#214074;fill-opacity:1;fill-rule:nonzero;stroke:none" transform="matrix(6.07796 0 0 -6.07796 364.27 382.766)"/><path d="M0 0a1.033 1.033 0 0 1-.344.071c-.752 0-.759-.756-.759-1.107 0-.369.042-1.068.783-1.068.114 0 .218.018.32.056v-.327a.987.987 0 0 0-.43-.077c-1.098 0-1.246.805-1.246 1.39 0 .56.104 1.481 1.209 1.481.184 0 .311-.017.467-.08z" style="fill:#214074;fill-opacity:1;fill-rule:nonzero;stroke:none" transform="matrix(6.07796 0 0 -6.07796 385.276 385.093)"/><path d="m0 0-.204 1.019h-.01L-.535-.402h.644Zm.011 1.561L.882-1.24H.339l-.151.546h-.806l-.151-.546h-.525l.88 2.801z" style="fill:#214074;fill-opacity:1;fill-rule:nonzero;stroke:none" transform="matrix(6.07796 0 0 -6.07796 394.696 392.251)"/><path d="m0 0-.204 1.019h-.01L-.535-.402h.644Zm.01 1.561L.882-1.24H.338l-.15.546h-.806l-.151-.546h-.525l.879 2.801z" style="fill:#214074;fill-opacity:1;fill-rule:nonzero;stroke:none" transform="matrix(6.07796 0 0 -6.07796 464.628 392.251)"/><path d="M0 0v-.322h-.611v-2.479h-.537v2.479h-.634V0Z" style="fill:#214074;fill-opacity:1;fill-rule:nonzero;stroke:none" transform="matrix(6.07796 0 0 -6.07796 409.897 382.766)"/><path d="M448.843 233.675h-2.457v12.768h2.457z" style="fill:#214074;fill-opacity:1;fill-rule:nonzero;stroke:none;stroke-width:4.55848" transform="matrix(1.33333 0 0 -1.33333 -182.541 711.354)"/><path d="M0 0c0-.598.06-1.089.486-1.089.429 0 .485.491.485 1.089 0 .593-.056 1.085-.485 1.085C.06 1.085 0 .593 0 0m1.542 0c0-.507-.009-1.438-1.056-1.438C-.557-1.438-.569-.507-.569 0c0 .503.012 1.434 1.055 1.434C1.533 1.434 1.542.503 1.542 0" style="fill:#214074;fill-opacity:1;fill-rule:nonzero;stroke:none" transform="matrix(6.07796 0 0 -6.07796 422.195 391.26)"/><path d="M0 0h-.401v2.801h.516L1.071.679v2.122h.411V0H.98L0 2.156Z" style="fill:#214074;fill-opacity:1;fill-rule:nonzero;stroke:none" transform="matrix(6.07796 0 0 -6.07796 436.847 399.79)"/><path d="M0 0h-.402v2.801h.516L1.071.679v2.122h.41V0H.98L0 2.156Z" style="fill:#214074;fill-opacity:1;fill-rule:nonzero;stroke:none" transform="matrix(6.07796 0 0 -6.07796 474.407 399.79)"/><path d="M0 0c0 .267-.047.489-.454.484h-.088v-.926C-.14-.459 0-.285 0 0m-1.081.798h.644C-.045.798.575.782.575.08c0-.262-.115-.664-.562-.719l.745-1.364H.201L-.532-.632h-.01v-1.371h-.539z" style="fill:#214074;fill-opacity:1;fill-rule:nonzero;stroke:none" transform="matrix(6.07796 0 0 -6.07796 516.231 387.25)"/><path d="M0 0v-.324h-.911v-.88h.812v-.323h-.812v-.95H0v-.325h-1.45V0Z" style="fill:#214074;fill-opacity:1;fill-rule:nonzero;stroke:none" transform="matrix(6.07796 0 0 -6.07796 531.536 382.398)"/><path d="M0 0a.98.98 0 0 1-.456.12c-.297 0-.481-.168-.481-.36 0-.123.044-.209.154-.302l.408-.309c.367-.257.575-.445.575-.822 0-.394-.354-.73-.953-.73-.211 0-.427.04-.591.131v.376c.16-.083.32-.145.531-.145.334 0 .472.185.472.389 0 .558-1.13.669-1.13 1.404 0 .394.298.716.906.716.206 0 .398-.021.569-.092z" style="fill:#214074;fill-opacity:1;fill-rule:nonzero;stroke:none" transform="matrix(6.07796 0 0 -6.07796 541.84 385.028)"/><path d="M0 0v-.324h-.91v-.88h.814v-.323H-.91v-.95H0v-.325h-1.449V0Z" style="fill:#214074;fill-opacity:1;fill-rule:nonzero;stroke:none" transform="matrix(6.07796 0 0 -6.07796 554.1 382.398)"/><path d="m0 0-.205 1.019h-.013L-.539-.402H.11Zm.013 1.562L.88-1.24H.338l-.152.547h-.807l-.15-.547h-.527l.882 2.802z" style="fill:#214074;fill-opacity:1;fill-rule:nonzero;stroke:none" transform="matrix(6.07796 0 0 -6.07796 563.558 391.889)"/><path d="M0 0c0 .267-.049.489-.454.484h-.088v-.926C-.137-.459 0-.285 0 0m-1.079.798h.643C-.04.798.572.782.572.08c0-.262-.114-.664-.556-.719L.76-2.003H.202L-.533-.632h-.009v-1.371h-.537z" style="fill:#214074;fill-opacity:1;fill-rule:nonzero;stroke:none" transform="matrix(6.07796 0 0 -6.07796 577.097 387.25)"/><path d="M0 0a1.04 1.04 0 0 1-.346.071c-.749 0-.757-.756-.757-1.107 0-.369.044-1.068.782-1.068.116 0 .219.018.321.056v-.327a.992.992 0 0 0-.43-.077c-1.096 0-1.244.805-1.244 1.39 0 .561.105 1.481 1.209 1.481.177 0 .309-.016.465-.08z" style="fill:#214074;fill-opacity:1;fill-rule:nonzero;stroke:none" transform="matrix(6.07796 0 0 -6.07796 593.153 384.731)"/><path d="M0 0v-1.093h.813V0h.539v-2.802H.813v1.386H0v-1.386h-.538V0Z" style="fill:#214074;fill-opacity:1;fill-rule:nonzero;stroke:none" transform="matrix(6.07796 0 0 -6.07796 599.118 382.398)"/><path d="M603.904 233.825h-2.471v12.76h2.47z" style="fill:#214074;fill-opacity:1;fill-rule:nonzero;stroke:none;stroke-width:4.55848" transform="matrix(1.33333 0 0 -1.33333 -182.541 711.354)"/><path d="m0 0 .079-.938v-1.029h-.537v2.8H.06l.947-2.127.012.005L.888-.165v.998h.539v-2.8H.925L-.022.192-.033.184Z" style="fill:#214074;fill-opacity:1;fill-rule:nonzero;stroke:none" transform="matrix(6.07796 0 0 -6.07796 629.594 387.63)"/><path d="M0 0v-.324h-.921v-.878h.83v-.321h-.83v-1.276h-.538V0Z" style="fill:#214074;fill-opacity:1;fill-rule:nonzero;stroke:none" transform="matrix(6.07796 0 0 -6.07796 651.288 382.57)"/><path d="M0 0c0-.593.06-1.085.486-1.085.424 0 .483.492.483 1.085C.969.596.91 1.089.486 1.089.06 1.089 0 .596 0 0m1.54 0c0-.504-.013-1.435-1.054-1.435C-.557-1.435-.568-.504-.568 0c0 .506.011 1.438 1.054 1.438C1.527 1.438 1.54.506 1.54 0" style="fill:#214074;fill-opacity:1;fill-rule:nonzero;stroke:none" transform="matrix(6.07796 0 0 -6.07796 655.912 391.076)"/><path d="M0 0c0 .271-.049.492-.458.482h-.086v-.924C-.141-.459 0-.28 0 0m-1.083.798h.645C-.045.798.571.784.571.083c0-.267-.115-.666-.563-.72l.75-1.364H.197l-.731 1.37h-.01v-1.37h-.539z" style="fill:#214074;fill-opacity:1;fill-rule:nonzero;stroke:none" transform="matrix(6.07796 0 0 -6.07796 674.686 387.42)"/><path d="m0 0 .577-2.019h.01l.017.115.162.671L1.112 0h.475l.38-2.799h-.529L1.34-1.756l-.034.522-.011.364h-.008l-.092-.397-.421-1.532H.402L-.118-.87H-.13l-.154-1.929h-.513L-.463 0Z" style="fill:#214074;fill-opacity:1;fill-rule:nonzero;stroke:none" transform="matrix(6.07796 0 0 -6.07796 685.515 382.57)"/><path d="m0 0-.204 1.019h-.011L-.538-.403h.646zm.009 1.56.873-2.8H.341l-.154.547H-.62l-.15-.547h-.527l.881 2.8z" style="fill:#214074;fill-opacity:1;fill-rule:nonzero;stroke:none" transform="matrix(6.07796 0 0 -6.07796 707.141 392.05)"/><path d="M0 0v-.324h-.605v-2.475h-.539v2.475h-.637V0Z" style="fill:#214074;fill-opacity:1;fill-rule:nonzero;stroke:none" transform="matrix(6.07796 0 0 -6.07796 722.321 382.57)"/><path d="M682.633 233.825h-2.47v12.76h2.47z" style="fill:#214074;fill-opacity:1;fill-rule:nonzero;stroke:none;stroke-width:4.55848" transform="matrix(1.33333 0 0 -1.33333 -182.541 711.354)"/><path d="M0 0c0-.593.059-1.085.484-1.085S.966-.593.966 0c0 .596-.057 1.089-.482 1.089S0 .596 0 0m1.538 0c0-.504-.008-1.435-1.054-1.435C-.563-1.435-.571-.504-.571 0c0 .506.008 1.438 1.055 1.438C1.53 1.438 1.538.506 1.538 0" style="fill:#214074;fill-opacity:1;fill-rule:nonzero;stroke:none" transform="matrix(6.07796 0 0 -6.07796 733.94 391.076)"/><path d="m0 0 .079-.938v-1.029h-.536v2.8H.06l.946-2.127.011.005-.13 1.124v.998h.539v-2.8H.924L-.021.192-.032.184Z" style="fill:#214074;fill-opacity:1;fill-rule:nonzero;stroke:none" transform="matrix(6.07796 0 0 -6.07796 748.91 387.63)"/><path d="M0 0a.968.968 0 0 1-.458.118c-.295 0-.479-.168-.479-.362 0-.12.041-.207.15-.303l.409-.31c.366-.255.58-.44.58-.818 0-.394-.358-.731-.955-.731-.21 0-.426.041-.59.132v.375c.161-.08.321-.144.53-.144.336 0 .474.181.474.389 0 .559-1.135.669-1.135 1.402 0 .396.303.719.91.719.202 0 .398-.023.57-.093z" style="fill:#214074;fill-opacity:1;fill-rule:nonzero;stroke:none" transform="matrix(6.07796 0 0 -6.07796 777.614 385.173)"/><path d="M0 0v-.324h-.908v-.878h.81v-.321h-.81v-.953H0v-.323h-1.446V0Z" style="fill:#214074;fill-opacity:1;fill-rule:nonzero;stroke:none" transform="matrix(6.07796 0 0 -6.07796 789.861 382.57)"/><path d="M0 0c0 .271-.048.492-.46.482h-.085v-.924C-.14-.459 0-.28 0 0m-1.08.798h.643C-.042.798.568.784.568.083c0-.267-.11-.666-.558-.72l.746-1.364H.2l-.734 1.37h-.011v-1.37h-.535Z" style="fill:#214074;fill-opacity:1;fill-rule:nonzero;stroke:none" transform="matrix(6.07796 0 0 -6.07796 799.168 387.42)"/><path d="m0 0 .462-2.104h.01l.027.174.213.942L.959 0h.514L.676-2.799H.247L-.542 0Z" style="fill:#214074;fill-opacity:1;fill-rule:nonzero;stroke:none" transform="matrix(6.07796 0 0 -6.07796 806.894 382.57)"/><path d="M753.007 233.825h-2.448v12.76h2.448z" style="fill:#214074;fill-opacity:1;fill-rule:nonzero;stroke:none;stroke-width:4.55848" transform="matrix(1.33333 0 0 -1.33333 -182.541 711.354)"/><path d="M0 0c-.107.035-.22.07-.346.07-.751 0-.758-.758-.758-1.107 0-.371.041-1.067.778-1.067.119 0 .223.015.326.052v-.325a1.072 1.072 0 0 0-.431-.078c-1.096 0-1.244.804-1.244 1.392 0 .56.103 1.481 1.206 1.481.18 0 .31-.019.469-.081z" style="fill:#214074;fill-opacity:1;fill-rule:nonzero;stroke:none" transform="matrix(6.07796 0 0 -6.07796 834.484 384.88)"/><path d="M0 0v-.324h-.913v-.878H-.1v-.321h-.813v-.953H0v-.323h-1.446V0Z" style="fill:#214074;fill-opacity:1;fill-rule:nonzero;stroke:none" transform="matrix(6.07796 0 0 -6.07796 845.97 382.57)"/></svg>