<svg xmlns="http://www.w3.org/2000/svg" xml:space="preserve" width="1638.1707" height="300" viewBox="0 0 1638.1707 299.99999"><path d="M-179.57 410.76V289.73h103.978v225h-225.052V410.76h112.526z" style="fill:#62bb46;fill-opacity:1;fill-rule:nonzero;stroke:none;stroke-width:4.03031" transform="matrix(1.33333 0 0 -1.33333 400.859 686.306)"/><path d="M-300.644 289.73h104.002v103.954h-104.002z" style="fill:#f5822a;fill-opacity:1;fill-rule:nonzero;stroke:none;stroke-width:4.03031" transform="matrix(1.33333 0 0 -1.33333 400.859 686.306)"/><path d="M72.867 465.712H88.55v-12.728H72.867v-39.082H58.556v85.959h14.311zM10.83 420.133h14.428v-24.794h49.335v-12.595H10.83zm19.978 38.18c0 7.919-6.42 15.31-13.2 15.31-6.657 0-13.198-7.391-13.198-15.31 0-7.796 6.658-15.058 13.199-15.058 6.779 0 13.2 7.262 13.2 15.057m-5.289 31.55h25.266v-12.208h-15.42c5.55-4.809 9.496-11.942 9.496-19.862 0-15.057-12.212-27.41-27.253-27.41-15.186 0-27.132 12.353-27.132 27.41 0 7.92 3.825 15.053 9.374 19.862h-15.657v12.207h25.906v13.115h15.42zM157.126 452.086c2.08 8.17 4.204 24.134 3.946 31.15h-49.214v12.728h64.138c.258-11.172-1.987-32.851-4.558-43.878h24.299v-12.208h-43.548v-17.004h24.678V380.79h-14.449v29.731h-51.697v12.353h26.286v17.004H93.105v12.208z" style="fill:#231f20;fill-opacity:1;fill-rule:nonzero;stroke:none;stroke-width:4.03031" transform="matrix(1.33333 0 0 -1.33333 400.859 686.306)"/><path d="M279.385 469.742v30.119h14.28v-85.959h-14.28v43.237h-20.74v12.603zm-48.13-49.609h14.429v-24.794h50.58v-12.595h-65.009zm-18.374 8.572-8.266 9.875c9.73 4.534 18.987 10.648 26.261 18.04 7.062 7.266 12.232 15.847 13.34 24.81h-33.79v12.337h51.17c-1.105-14.949-5.784-27.797-13.696-38.562-8.383-11.43-20.328-20.406-35.019-26.5M391.242 473.245h15.569v-12.728h-15.57v-29.473h-14.31v68.688h14.31zm-15.537-69.994c0 8.185-5.92 14.545-13.195 14.545s-13.445-6.493-13.445-14.545c0-7.662 5.795-14.292 13.082-14.292 7.134 0 13.558 6.63 13.558 14.292m14.308 0c0-14.812-12.325-26.878-27.503-26.878-15.05 0-27.487 12.066-27.487 26.878 0 15.065 12.438 27.132 27.487 27.132 15.178 0 27.503-12.067 27.503-27.132m-76.983 25.455-8.234 9.87c9.729 4.535 18.987 10.653 26.257 18.044 7.037 7.267 12.204 15.847 13.32 24.81h-33.802v12.337h51.197c-1.1-14.948-5.807-27.797-13.695-38.566-8.375-11.43-20.357-20.4-35.043-26.495" style="fill:#62bb46;fill-opacity:1;fill-rule:nonzero;stroke:none;stroke-width:4.03031" transform="matrix(1.33333 0 0 -1.33333 400.859 686.306)"/><path d="M497.353 465.972h15.65v-12.35h-15.65v-54.791h-14.2V499.6h14.2zm-76.608-41.94-9.383 9.613c9.73 4.288 19.49 11.168 27.015 19.095 7.779 8.178 12.833 17.782 13.824 27.777h-33.298v12.587h49.452c-.617-16.222-5.433-30.248-13.32-41.537-8.267-11.833-19.979-20.909-34.29-27.535M595.166 473.623v26.237h14.312v-71.28h-14.312v32.976h-21.094v12.067zm-16.04-84.66c7.161 0 13.554 6.625 13.554 14.287 0 8.185-5.905 14.545-13.18 14.545-7.286 0-13.46-6.493-13.46-14.545 0-7.662 5.811-14.288 13.086-14.288m27.893 14.288c0-14.808-12.357-26.874-27.519-26.874-15.033 0-27.535 12.066-27.535 26.874 0 15.065 12.502 27.132 27.535 27.132 15.162 0 27.52-12.067 27.52-27.132m-63.289 79.086h-19.74v12.329h54.643v-12.329h-19.74v-3.377c0-7.4 3.087-14.924 7.036-19.608 4.08-5.054 11.1-10.003 17.633-13.521l-7.275-10.108c-4.437 2.075-10.97 5.832-14.924 9.342-4.312 3.643-7.887 7.674-9.507 10.39-1.117-2.47-3.575-5.59-8.392-10.64-5.054-5.203-10.72-9.233-15.508-11.95l-9.258 9.87c6.755 3.495 13.792 9.472 18.233 15.848 3.825 5.304 6.8 13.223 6.8 20.119z" style="fill:#f5822a;fill-opacity:1;fill-rule:nonzero;stroke:none;stroke-width:4.03031" transform="matrix(1.33333 0 0 -1.33333 400.859 686.306)"/><path d="M698.788 499.859h14.28v-85.564h-14.28zm-48.126-79.591h14.453v-24.931h50.552v-12.595h-65.005zm-2.692 62.07h-19.74v12.325h54.642V482.34h-19.724v-4.559c0-7.391 2.958-15.186 6.783-20.24 4.062-5.203 11.208-10.515 17.995-14.545l-7.4-10.39c-6.424 3.115-10.595 6.09-14.924 10.128-4.078 4.014-7.903 8.173-9.507 10.89-.98-2.459-3.341-5.703-8.125-10.89-5.054-5.594-9.02-8.972-15.807-13.115l-9.117 9.991c6.787 4.164 14.203 10.777 18.612 17.411 3.446 5.316 6.312 13.369 6.312 20.515zM785.614 470.521c0 6.88-5.433 12.192-12.2 12.192-6.549 0-12.09-5.312-12.09-12.192 0-6.887 5.541-12.207 12.09-12.207 6.767 0 12.2 5.32 12.2 12.207m-11.95-82.6c7.509 0 13.792 5.73 13.792 13.126 0 7.138-5.92 12.994-13.429 12.994s-13.824-5.74-13.824-12.994c0-7.396 5.937-13.127 13.461-13.127m.363 37.805c15.178 0 28.007-11.031 28.007-24.678 0-13.772-12.829-24.674-28.007-24.674-15.05 0-27.99 10.902-27.99 24.674 0 13.647 12.94 24.678 27.99 24.678m7.146 68.938h28.01v-11.672h-13.932c3.099-3.252 4.94-7.67 4.94-12.47 0-13.24-12.594-23.496-26.777-23.496-14.203 0-26.64 10.515-26.64 23.496 0 4.8 1.842 9.218 4.691 12.47H737.63v11.672h28.132v10.527h15.412zm-59.193-52.072h103.357v-11.816H721.98zM911.057 420.135H887.9v11.288h23.158v68.31h14.312v-89.21h-14.312zm-49.794-5.973h14.42v-18.826h50.44v-12.595h-64.86zm20.087 59.72c0 7.55-6.424 13.643-12.579 13.643-6.045 0-12.594-6.093-12.594-13.642 0-7.392 6.549-13.486 12.594-13.486 6.155 0 12.579 6.094 12.579 13.486m-39.973 0c0 14.428 12.579 25.975 27.394 25.975 14.8 0 27.362-11.547 27.362-25.975 0-14.288-13.667-25.04-27.362-25.04-13.932 0-27.394 10.752-27.394 25.04m19.74-39.602h-3.211l-24.92-.125v11.813h20.591c14.924 0 42.822 1.834 53.45 3.12v-11.552c-6.424-.918-18.894-1.817-31.219-2.736v-15.706h-14.69z" style="fill:#231f20;fill-opacity:1;fill-rule:nonzero;stroke:none;stroke-width:4.03031" transform="matrix(1.33333 0 0 -1.33333 400.859 686.306)"/><path d="M-12.517 344.91h4.599v-19.566h.165c.935 1.555 1.906 2.998 2.797 4.336l10.878 15.23h5.695l-12.885-17.229 13.9-23.355H7.183l-11.66 19.922-3.441-4.454v-15.468h-4.599zM29.579 307.938c7.311 0 11.434 7.65 11.434 16.862 0 8.07-3.708 16.497-11.37 16.497-7.665 0-11.478-8.122-11.478-16.932 0-8.548 4.123-16.427 11.374-16.427zm-.206-4.297c-9.447 0-15.996 8.31-15.996 20.607 0 12.901 6.965 21.309 16.472 21.309 9.778 0 16.057-8.48 16.057-20.523 0-13.908-7.46-21.393-16.492-21.393zM57.008 325.877h4.703c4.91 0 8.017 3.08 8.017 7.706 0 5.243-3.317 7.524-8.182 7.524-2.216 0-3.752-.25-4.538-.487zm-4.598 18.418c2.321.553 5.694.907 8.826.907 4.909 0 8.117-1.088 10.358-3.361 1.74-1.75 2.797-4.526 2.797-7.714 0-5.312-3.027-8.855-6.715-10.297v-.19c2.693-1.084 4.333-3.966 5.224-8.193 1.156-5.643 2.007-9.564 2.692-11.124h-4.744c-.58 1.136-1.39 4.63-2.321 9.685-1.056 5.61-3.027 7.722-7.19 7.887h-4.329v-17.572H52.41zM99.726 323.358H85.95v-14.642h15.432v-4.393H81.287v40.59h19.29v-4.41H85.95v-12.824h13.776zM125.31 321.186l-3.542 11.68c-.746 2.655-1.262 5.054-1.802 7.4h-.165a89.372 89.372 0 0 0-1.741-7.344l-3.482-11.736zm-11.683-4.111-3.708-12.752h-4.744l12.1 40.59h5.549l12.143-40.59h-4.913l-3.812 12.752zM140.724 304.324v40.586h5.078l11.373-20.543c2.568-4.747 4.68-8.967 6.316-13.179l.145.057c-.395 5.408-.496 10.365-.496 16.616v17.049h4.309v-40.586h-4.643l-11.29 20.591c-2.506 4.514-4.868 9.141-6.605 13.558l-.165-.072c.266-5.123.31-9.987.31-16.742v-17.334zM197.611 304.324h-4.639v40.585h4.639zM206.169 304.324v40.586h5.074l11.353-20.543c2.612-4.747 4.703-8.967 6.34-13.179l.165.057c-.435 5.408-.536 10.365-.536 16.616v17.049h4.329v-40.586h-4.643l-11.31 20.591c-2.466 4.514-4.868 9.141-6.589 13.558l-.165-.072c.27-5.123.31-9.987.31-16.742v-17.334zM240.889 310.7c2.051-1.51 5.014-2.643 8.161-2.643 4.724 0 7.46 2.76 7.46 6.92 0 3.728-1.886 5.964-6.69 8.02-5.824 2.394-9.427 5.888-9.427 11.555 0 6.303 4.599 11.003 11.519 11.003 3.603 0 6.295-.952 7.83-1.967l-1.265-4.288c-1.096.793-3.498 1.926-6.73 1.926-4.849 0-6.695-3.305-6.695-6.086 0-3.784 2.156-5.65 7.065-7.815 6.03-2.716 9.052-5.972 9.052-11.925 0-6.267-4.018-11.76-12.43-11.76-3.417 0-7.185 1.229-9.071 2.667zM274.782 340.455H263.97v4.454h26.35v-4.454h-10.878v-36.131h-4.659zM299.417 304.324h-4.663v40.585h4.663zM314.723 340.455H303.89v4.454h26.37v-4.454h-10.874v-36.131h-4.663zM339.338 344.91v-24.1c0-9.024 3.535-12.873 8.286-12.873 5.264 0 8.661 3.97 8.661 12.873v24.1h4.655v-23.726c0-12.465-5.759-17.543-13.465-17.543-7.295 0-12.78 4.723-12.78 17.354v23.916zM376.215 340.455h-10.842v4.454h26.375v-4.454h-10.894v-36.131h-4.639zM414.621 323.358h-13.796v-14.642h15.428v-4.393h-20.067v40.59h19.265v-4.41h-14.626v-12.824h13.796zM439.704 344.91h19.169v-4.408h-14.53V327.02h13.425v-4.332h-13.425v-18.362h-4.639zM480.102 307.938c7.295 0 11.422 7.65 11.422 16.862 0 8.07-3.688 16.497-11.354 16.497-7.665 0-11.462-8.122-11.462-16.932 0-8.548 4.099-16.427 11.35-16.427zm-.182-4.297c-9.475 0-16.02 8.31-16.02 20.607 0 12.901 6.96 21.309 16.476 21.309 9.75 0 16.053-8.48 16.053-20.523 0-13.908-7.432-21.393-16.492-21.393zM507.515 325.877h4.724c4.905 0 8.012 3.08 8.012 7.706 0 5.243-3.317 7.524-8.178 7.524-2.224 0-3.756-.25-4.558-.487zm-4.586 18.418c2.321.553 5.719.907 8.83.907 4.913 0 8.117-1.088 10.354-3.361 1.729-1.75 2.805-4.526 2.805-7.714 0-5.312-3.027-8.855-6.714-10.297v-.19c2.696-1.084 4.328-3.966 5.223-8.193 1.16-5.643 2.003-9.564 2.692-11.124h-4.748c-.596 1.136-1.382 4.63-2.325 9.685-1.044 5.61-2.995 7.722-7.178 7.887h-4.353v-17.572h-4.586zM553.478 344.91v-16.979h17.221v16.98h4.66v-40.585h-4.66v19.03h-17.221v-19.03h-4.651v40.585zM602.23 323.358h-13.783v-14.642h15.444v-4.393h-20.083v40.59h19.298v-4.41h-14.659v-12.824h13.784zM627.81 321.186l-3.534 11.68c-.734 2.655-1.27 5.054-1.81 7.4h-.137c-.484-2.346-1.064-4.865-1.77-7.344l-3.478-11.736zm-11.68-4.111-3.704-12.752h-4.723l12.07 40.59h5.554l12.14-40.59h-4.905l-3.813 12.752zM643.184 344.91h4.639V308.72h15.234v-4.393h-19.873zM670.723 340.455h-10.854v4.454h26.362v-4.454h-10.87v-36.131h-4.638zM695.334 344.91v-16.979h17.209v16.98h4.639v-40.585h-4.64v19.03h-17.208v-19.03h-4.668v40.585zM733.617 304.324v17.214L722.32 344.91h5.264l5.038-11.209c1.326-3.07 2.422-5.533 3.539-8.358h.08c.984 2.643 2.237 5.287 3.608 8.358l5.122 11.209h5.18l-11.878-23.3v-17.286zM771.752 344.91h19.184v-4.408h-14.545V327.02h13.421v-4.332h-13.42v-18.362h-4.64zM811.39 321.186l-3.55 11.68c-.722 2.655-1.258 5.054-1.794 7.4h-.153a94.872 94.872 0 0 0-1.758-7.344l-3.478-11.736zm-11.684-4.111-3.688-12.752h-4.768l12.1 40.59h5.553l12.14-40.59h-4.918l-3.784 12.752zM856.813 322.13c-.262 5.667-.584 12.539-.584 17.54h-.12c-1.254-4.691-2.665-9.818-4.474-15.424l-6.3-19.684h-3.478l-5.8 19.318c-1.7 5.8-3.067 10.97-4.074 15.79h-.11c-.1-5.054-.374-11.809-.676-17.943l-.96-17.403h-4.376l2.474 40.586h5.856l6.086-19.64a209.685 209.685 0 0 0 3.595-13.655h.093c.96 4.083 2.225 8.532 3.817 13.655l6.323 19.64h5.885l2.208-40.586h-4.558zM874.409 304.324h-4.64v40.585h4.64zM882.9 304.324h19.862v4.394h-15.207v36.192H882.9zM911.451 304.324v17.214l-11.313 23.372h5.276l5.013-11.209c1.326-3.07 2.447-5.533 3.551-8.358h.093c.96 2.643 2.24 5.287 3.607 8.358l5.123 11.209h5.183l-11.894-23.3v-17.286z" style="fill:#808285;fill-opacity:1;fill-rule:nonzero;stroke:none;stroke-width:4.03031" transform="matrix(1.33333 0 0 -1.33333 400.859 686.306)"/></svg>