<svg xmlns="http://www.w3.org/2000/svg" xml:space="preserve" width="958.65521" height="300" viewBox="0 0 958.65523 300"><path d="M0 0c0-4.233 0-4.233-3.959-4.598l-1.539-.14-.925.132c-2.177.301-3.365.772-6.353 4.29-2.467 2.964-8.527 10.361-13.721 17.564 3.165 3.273 6.318 6.512 9.353 9.38 3.466 3.223 5.356 3.875 9.641 4.33l1.693.168v-.006l1.851-.169C0 30.586 0 30.586 0 26.354Zm15.802 30.951 1.849.169v6.047H-26.847v-5.941s3.305-.492 3.385-.505a2.746 2.746 0 0 0-.133-.169c-2.611-3.448-6.045-7.297-9.931-11.117a24.11 24.11 0 0 0-1.545-1.38v8.164c0 4.376 0 4.376 3.696 4.732l1.843.175v6.041h-23.129V31.12l1.851-.169c3.963-.365 3.963-.365 3.963-4.732V.141c0-4.381 0-4.381-3.767-4.739l-1.844-.175v-6.041h23.33v6.054l-1.854.162c-4.089.365-4.089.365-4.089 4.739v8.753c5.511-7.513 10.86-14.58 14.343-18.946l.61-.762H17.651v6.048l-1.849.168c-3.893.358-3.893.358-3.893 4.598v26.354c0 4.241 0 4.241 3.893 4.597" style="fill:#a7a9ac;fill-opacity:1;fill-rule:nonzero;stroke:none" transform="matrix(1.05804 0 0 -1.05804 144.818 168.05)"/><path d="M0 0s2.26 6.195 2.821 7.725L5.509 0Zm-60.539 4.528c-1.119-.94-2.843-1.346-5.588-1.346h-.262V17.69c0 .702.032 1.066-.017 1.164.242.071.796.182 1.898.182 1.988 0 6.613-.769 6.613-7.891 0-3.014-.837-5.118-2.644-6.617m88.123-20.69c-3.264.349-3.684.406-5.755 5.93-3.024 8.003-5.981 16.259-8.927 24.459L8.291 27.04l-5.758-1.57-14.299-35.886c-2.088-5.283-2.451-5.326-5.928-5.76l-.39-.043-.605.057c-3.894.349-3.894.349-3.894 4.598v26.353c0 4.233 0 4.233 3.894 4.599l1.849.167v6.055h-23.461v-6.055l1.85-.167c3.96-.366 3.96-.366 3.96-4.599v-26.353c0-4.235 0-4.235-3.96-4.598l-1.752-.154c-.988.252-1.949.295-3.309 1.766-1.408 1.47-2.797 3.488-5.032 6.939-1.458 2.226-3.336 5.341-4.629 7.625 6.328 3.393 7.731 8.382 7.731 12.14 0 4.528-1.928 8.312-5.404 10.653-3.343 2.326-7.528 2.803-12.781 2.803h-20.144v-6.055l1.843-.167c3.764-.366 3.764-.366 3.764-4.531v-26.421c0-4.235 0-4.235-4.029-4.598l-1.85-.168v-6.057h23.465v6.057l-1.85.168c-3.961.363-3.961.363-3.961 4.598v8.158c1.5-.072 2.004-.533 2.746-1.795l1.577-2.817c1.481-2.664 2.98-5.355 4.453-7.584 3.49-5.201 6.998-6.365 14.525-6.714l2.787-.055v-.016h39.83v6l-1.787.211c-1.906.238-2.631.463-2.824.463-.041 0-.06 0-.06-.029-.02.14.005.588.459 2.047.656 2.172 1.4 4.303 2.118 6.308H8.039c1.02-2.748 1.955-5.355 2.604-7.291.2-.558.284-.895.361-.994-.274-.113-.89-.295-2.257-.504l-1.735-.267v-5.944h22.384v6.015z" style="fill:#a7a9ac;fill-opacity:1;fill-rule:nonzero;stroke:none" transform="matrix(1.05804 0 0 -1.05804 253.554 156.193)"/><path d="M0 0c-3.711 4.688-9.325 12.131-14.543 19.225-1.472 1.947-2.361 2.283-3.435 2.144V8.936c0-5.797.596-6.283 5.948-6.75V0h-19.272v2.186c5.005.467 5.617.953 5.617 6.75v26.107c0 5.874-.612 6.273-5.808 6.757v2.172h19.064V41.8c-4.999-.484-5.549-.883-5.549-6.757V23.415c1.413.386 2.976 1.437 5.012 3.37 4.255 4.186 7.625 8.041 10.125 11.355 1.776 2.173 1.622 3.043-1.486 3.443l-1.354.217v2.172h17.106V41.8c-4.524-.484-6.893-1.24-10.821-4.893-3.445-3.231-7.013-6.952-10.598-10.647C-5.425 19.771.474 12.369 4.791 7.203 7.907 3.518 9.532 2.6 12.445 2.186V0Z" style="fill:#002659;fill-opacity:1;fill-rule:nonzero;stroke:none" transform="matrix(1.05804 0 0 -1.05804 124.576 177.733)"/><path d="M0 0v2.186c5.207.467 5.81.877 5.81 6.617v26.381c0 5.733-.603 6.132-5.81 6.616v2.172h19.406V41.8c-5.207-.484-5.758-.883-5.758-6.616V8.803c0-5.74.551-6.15 5.758-6.617V0Z" style="fill:#002659;fill-opacity:1;fill-rule:nonzero;stroke:none" transform="matrix(1.05804 0 0 -1.05804 140.822 177.733)"/><path d="M0 0c3.031 0 5.258.471 6.894 1.838 2.358 1.955 3.37 4.674 3.37 8.178 0 7.303-4.391 9.904-8.661 9.904-1.82 0-2.839-.245-3.289-.646-.49-.414-.61-1.162-.61-2.69V0Zm25.135-22.086c-.543 0-1.289.072-2.088.072-7.301.309-9.943 2.061-12.85 6.4C8.229-12.637 6.203-8.775 4.24-5.325 3.109-3.391 1.953-2.508-.75-2.508h-1.546v-10.197c0-5.608.61-6.149 5.812-6.617v-2.186h-19.425v2.186c5.218.468 5.897 1.009 5.897 6.617v26.429c0 5.55-.613 6.085-5.611 6.568v2.172H2.495c5.601 0 8.999-.63 11.628-2.432 2.682-1.836 4.528-4.806 4.528-9.026 0-5.861-3.796-9.252-8.522-11.23 1.096-2.059 3.718-6.53 5.75-9.608 2.369-3.688 3.774-5.713 5.271-7.248 1.549-1.724 2.842-2.494 4.401-2.964z" style="fill:#002659;fill-opacity:1;fill-rule:nonzero;stroke:none" transform="matrix(1.05804 0 0 -1.05804 183.598 154.977)"/><path d="M0 0v2.186c5.204.467 5.807.877 5.807 6.617v26.381c0 5.733-.603 6.132-5.807 6.616v2.172h19.414V41.8c-5.219-.484-5.766-.883-5.766-6.616V8.803c0-5.74.547-6.15 5.766-6.617V0Z" style="fill:#002659;fill-opacity:1;fill-rule:nonzero;stroke:none" transform="matrix(1.05804 0 0 -1.05804 213.058 177.733)"/><path d="M0 0h-.15c-2.033-5.214-3.86-10.478-5.742-15.566H5.394Zm6.095-33.893v2.186c4.032.603 4.503 1.332 3.486 4.189-.746 2.225-1.892 5.413-3.112 8.658H-6.98c-.87-2.468-1.821-5.054-2.623-7.794-1.155-3.623-.812-4.45 4.111-5.053v-2.186h-14.932v2.186c4.395.519 5.278 1.219 7.552 7.035L1.072 10.271l2.972.798C8.305-.7 12.566-12.839 16.957-24.494c2.223-5.932 3.106-6.745 7.434-7.213v-2.186z" style="fill:#002659;fill-opacity:1;fill-rule:nonzero;stroke:none" transform="matrix(1.05804 0 0 -1.05804 256.706 141.874)"/><path d="M0 0c-6.409 4.121-13.089 7.837-20.045 10.938-3.08 1.37-6.221 2.621-9.437 3.639-2.983.945-6.039 1.691-9.14 2.072-2.762.337-5.558.393-8.306-.031-1.728-.266-3.431-.722-5.025-1.433a16.29 16.29 0 0 1-5.82-4.37c-2.264-2.705-3.593-6.171-4.034-9.687-.385-3.066-.099-6.168.561-9.185.554-2.544 1.373-5.025 2.35-7.44 1.809-4.467 4.154-8.697 6.814-12.714-7.367 6.351-14.113 13.398-20.295 20.925C-79.42 1.3-85.729 10.513-90.043 20.768c-1.605 3.823-2.936 7.794-3.162 11.928-.201 3.762.514 7.66 2.846 10.686 1.459 1.763 3.449 2.959 5.583 3.696 2.137.735 4.419 1.013 6.683 1.048 6.189.092 12.234-1.618 18.066-3.76 14.862-5.461 28.302-13.736 41.113-22.996C-4.531 10.979 9.059-.648 19.864-14.651 13.541-9.378 6.929-4.451 0 0m23.396-14.253C12.936-.294-.273 11.36-14.301 21.786c-12.223 9.084-25.063 17.232-39.068 23.231-4.892 2.097-9.924 3.931-15.101 5.078-3.508.779-7.075 1.242-10.68 1.052-5.079-.263-10.235-1.822-13.567-5.832-2.771-3.621-3.753-8.295-3.522-12.805.228-4.476 1.651-8.788 3.392-12.935C-88.424 9.049-81.961-.409-74.735-9.217c6.61-8.054 13.856-15.559 21.799-22.28 1.057-.899 2.045-2.447 3.366-.821 1.177 1.459.14 2.432-.489 3.644a99.143 99.143 0 0 0-5.139 11.741c-1.22 3.364-2.263 6.798-2.87 10.327-.543 3.165-.736 6.398.056 9.519.585 2.312 1.717 4.558 3.357 6.262 2.183 2.267 5.266 3.566 8.393 4.083 4.108.671 8.288-.011 12.343-1.042 7.075-1.799 13.773-4.654 20.267-7.899C-1.685-1.665 9.592-8.978 20.361-16.927c1.164-.862 2.061-2.148 3.676-.918 1.734 1.322.234 2.422-.641 3.592" style="fill:#a7a9ac;fill-opacity:1;fill-rule:nonzero;stroke:none" transform="matrix(1.05804 0 0 -1.05804 101.859 54.16)"/><path d="M0 0a.61.61 0 0 1 .939.776c-4.544 6.638-8.232 13.869-9.781 20.795-1.486 6.554-.988 12.691 2.758 17.597 8.328 11.281 27.486 6.091 45.961-3.922 11.506-6.227 23.018-14.521 32.084-22.207.617-.526 1.394.294.838.883a319.476 319.476 0 0 1-5.706 5.916C61.5 25.5 55.633 30.742 49.486 35.903 37.739 45.98 24.282 55.695 10.621 63.474c-11.172 6.204-24.783 12.337-35.988 12.87-5.175.21-9.674-.877-12.528-4.221-1.632-2.115-2.459-4.59-2.584-7.407-.156-5.503 2.025-12.034 5.171-18.538 5.173-10.451 12.407-20.678 20.439-30.062C-9.98 10.41-4.923 4.989 0 0" style="fill:#003974;fill-opacity:1;fill-rule:nonzero;stroke:none" transform="matrix(1.05804 0 0 -1.05804 47.52 85.52)"/><path d="M0 0c-.168-2.123-.609-4.24-1.373-6.236-.768-1.993-1.854-3.856-3.301-5.426-1.22-1.332-2.695-2.454-4.314-3.225-1.623-.778-3.389-1.213-5.168-1.485-4.213-.631-8.503-.345-12.687.449-4.185.784-8.266 2.08-12.239 3.602-9.671 3.715-18.709 8.802-27.211 14.76C-72.1 6.52-77.657 10.99-82.998 15.623c-2.759 2.391-5.461 4.83-8.047 7.381-.574.575.091 1.387.764.945 5.513-3.624 11.263-6.854 17.207-9.792 8.754-4.329 17.932-8.016 27.636-9.026 5.116-.519 10.379-.301 14.997 2.005 2.339 1.176 4.509 2.887 6.062 4.975 1.541 2.075 2.466 4.53 3.08 7.03 2.186 8.917.379 18.448-3.375 26.867h3.481A112.312 112.312 0 0 0-7.576 26.313c1.903-3.512 3.613-7.129 4.976-10.879.897-2.473 1.648-5.004 2.124-7.584C0 5.264.207 2.621 0 0m2.342 6.828c-.765 5.508-2.713 10.764-5.078 15.813-4.178 8.9-9.659 17.115-16.023 24.586h-8.22c.114-.274.227-.561.342-.842 1.714-4.191 2.647-8.641 3.27-13.147.607-4.41.922-8.873-.302-13.15-1.194-4.178-3.854-8.186-7.474-10.332-3.683-2.2-8.366-2.473-12.844-2.123-9.093.715-17.362 4.015-25.527 7.669-8.242 3.694-16.38 7.743-23.892 12.749-1.362.911-2.485 2.361-4.16.742-1.75-1.695-.022-2.754 1.1-3.974 5.487-5.978 11.581-11.36 17.937-16.436 9.117-7.289 18.765-13.947 29.199-19.134 7.131-3.534 14.637-6.38 22.515-7.823 5.225-.959 10.614-1.301 15.686.162 2.68.771 5.27 2.047 7.352 3.896 2.201 1.964 3.83 4.572 4.881 7.346C2.79-2.733 2.996 2.146 2.342 6.828" style="fill:#a7a9ac;fill-opacity:1;fill-rule:nonzero;stroke:none" transform="matrix(1.05804 0 0 -1.05804 223.894 239.738)"/><path d="M0 0a.61.61 0 0 1-.774-.941 259.233 259.233 0 0 1 9.866-8.893 222.238 222.238 0 0 1 6.234-5.167 200.672 200.672 0 0 1 6.417-4.933 181.392 181.392 0 0 1 6.612-4.67c2.237-1.513 4.51-2.97 6.813-4.373A152.019 152.019 0 0 1 42.194-33a116.823 116.823 0 0 1 7.254-3.588 99.33 99.33 0 0 1 7.5-3.041c2.541-.912 5.124-1.712 7.752-2.314a50.649 50.649 0 0 1 8.001-1.184c2.697-.169 5.414-.105 8.053.505 2.639.609 5.197 1.758 7.176 3.554 1.98 1.787 3.383 4.225 4.14 6.812.753 2.592.862 5.34.666 8.039-.197 2.698-.701 5.355-1.418 7.955-.716 2.6-1.645 5.145-2.696 7.624a101.319 101.319 0 0 1-3.48 7.304 123.43 123.43 0 0 1-3.971 7.059 139.636 139.636 0 0 1-4.404 6.792 196.069 196.069 0 0 1-4.746 6.56h-4.349a51.53 51.53 0 0 0 3.623-10.556c.884-3.917 1.287-7.926.95-12.07-.333-4.14-1.405-8.416-3.95-11.592-2.54-3.168-6.553-5.243-10.635-6.083-4.083-.848-8.236-.469-12.263.265-4.03.73-7.934 1.815-11.747 3.141-3.812 1.332-7.534 2.908-11.171 4.632A152.44 152.44 0 0 0 0 0" style="fill:#004a90;fill-opacity:1;fill-rule:nonzero;stroke:none" transform="matrix(1.05804 0 0 -1.05804 124.71 210.592)"/><path d="M0 0h-.746c-3.129 13.972-7.625 25.529-13.729 35.301-2.978 4.762-5.816 8.212-8.931 10.854-2.838 2.408-5.793 4.032-8.782 4.822-1.489.391-3.002.59-4.499.59-.817 0-1.627-.06-2.407-.181-2.064-.319-4.169-1.092-6.386-2.348a38.171 38.171 0 0 0 5.628 10.522c1.389 1.841 2.76 3.291 4.192 4.435a17.014 17.014 0 0 0 4.271 2.526c1.207.488 2.377.778 3.477.865.229.016.469.025.709.025.918 0 1.854-.125 2.778-.369 2.345-.619 4.673-2.042 6.924-4.228 1.958-1.899 3.726-4.236 5.405-7.145 1.875-3.254 3.474-6.916 5.031-11.525 1.188-3.532 2.225-7.215 3.169-11.262a161.035 161.035 0 0 0 2.743-14.936C-.242 11.247.137 5.357 0 0m3.021 18.188C1.92 26.459.244 34.638-2.197 42.61c-1.301 4.239-2.815 8.414-4.795 12.372-1.184 2.361-2.533 4.647-4.104 6.777-2.088 2.84-4.562 5.404-7.569 7.248-2.208 1.352-4.699 2.315-7.255 2.523-2.869.236-5.82-.477-8.422-1.758-3.937-1.933-7.071-5.164-9.618-8.763a42.807 42.807 0 0 1-6.583-14.355c-.63-2.523 1.774-2.897 3.631-1.565 2.215 1.591 4.656 3.038 7.286 3.62 2.523.56 5.226.329 7.718-.483 2.531-.825 4.842-2.252 6.861-3.975 2.036-1.738 3.772-3.777 5.377-5.911 5.098-6.784 8.852-14.525 11.732-22.52C-5.818 9.925-4.17 3.898-2.863-2.216c.035-.181.072-.349.111-.531h6.813c.01.169.017.322.025.49.353 6.826-.161 13.668-1.065 20.445" style="fill:#a7a9ac;fill-opacity:1;fill-rule:nonzero;stroke:none" transform="matrix(1.05804 0 0 -1.05804 180.759 114.561)"/><path d="M0 0a226.027 226.027 0 0 1-.361 5.018 216.731 216.731 0 0 1-.459 5.004 275.53 275.53 0 0 1-.565 5.005 249.123 249.123 0 0 1-.672 4.983 244.42 244.42 0 0 1-.781 4.97 193.898 193.898 0 0 1-.894 4.948 134.276 134.276 0 0 1-1.055 4.92c-.379 1.64-.791 3.258-1.231 4.882a129.001 129.001 0 0 1-1.405 4.829 114.864 114.864 0 0 1-1.615 4.761c-.575 1.578-1.181 3.145-1.882 4.666-.705 1.524-1.504 3-2.373 4.437a46.563 46.563 0 0 1-2.832 4.153c-1.019 1.336-2.123 2.617-3.378 3.717a17.628 17.628 0 0 1-4.208 2.728c-1.532.709-3.185 1.208-4.851 1.26-1.661.052-3.333-.343-4.881-.996-1.553-.648-2.983-1.553-4.286-2.603-1.304-1.055-2.482-2.256-3.572-3.536a38.093 38.093 0 0 1-2.992-4.037 47.44 47.44 0 0 1-2.495-4.365c-.757-1.498-1.444-3.029-2.135-4.557-.302-.663-.598-1.33-.9-1.994-.329-.724.507-1.255 1.023-.642 2.318 2.744 6.068 4.857 9.837 5.113 3.771.256 7.559-1.343 10.721-3.453 3.161-2.111 5.69-4.729 7.89-7.572 2.204-2.845 4.074-5.916 5.721-9.07 1.643-3.153 3.066-6.391 4.328-9.678a116.07 116.07 0 0 0 3.304-10.024A114.276 114.276 0 0 0-4.605 2.635 811.5 811.5 0 0 0-4.117 0Z" style="fill:#005bab;fill-opacity:1;fill-rule:nonzero;stroke:none" transform="matrix(1.05804 0 0 -1.05804 182.505 116.815)"/><path d="M0 0c.231.771-.715 1.179-1.115.478-2.565-4.459-5.603-8.945-9.903-11.832-5.279-3.534-12.455-4.66-18.574-2.776-6.119 1.879-11.181 6.771-15.203 12-4.023 5.229-7.001 10.793-9.308 16.647-2.301 5.851-3.934 11.99-5.116 18.173-1.183 6.182-1.917 12.407-2.312 18.643a180.34 180.34 0 0 0-.198 18.744c.258 6.236.829 12.461 1.69 18.644.863 6.179 2.018 12.312 3.544 18.369 1.524 6.056 3.421 12.033 6.184 17.67l1.01 2.059a.61.61 0 0 1-1.052.619c-1.982-2.875-3.75-5.881-5.4-8.959a141.854 141.854 0 0 1-5.021-10.316 151.271 151.271 0 0 1-4.205-10.669 199.382 199.382 0 0 1-3.466-10.947 233.458 233.458 0 0 1-2.909-11.101 230.743 230.743 0 0 1-2.338-11.228 240.52 240.52 0 0 1-3.031-22.752c-.322-3.813-.55-7.627-.698-11.453a268.004 268.004 0 0 1-.196-11.475c.021-3.825.123-7.652.33-11.473.206-3.82.518-7.632.953-11.437a161.25 161.25 0 0 1 1.692-11.348 130.995 130.995 0 0 1 2.587-11.179c1.034-3.688 2.242-7.319 3.683-10.864 1.44-3.547 3.112-6.994 5.163-10.232 2.049-3.233 4.475-6.24 7.52-8.602 3.044-2.355 6.71-4.057 10.457-4.31 3.746-.252 7.58.947 10.945 2.817 3.364 1.878 6.258 4.416 8.887 7.206 2.631 2.776 4.998 5.79 7.149 8.957 2.147 3.169 4.079 6.476 5.853 9.869a142.66 142.66 0 0 1 4.875 10.387 172.39 172.39 0 0 1 4.105 10.71A191.968 191.968 0 0 1 0 0" style="fill:#002659;fill-opacity:1;fill-rule:nonzero;stroke:none" transform="matrix(1.05804 0 0 -1.05804 125.17 228.719)"/><path d="M0 0c-2.089-4.997-4.514-9.854-7.461-14.396-2.924-4.5-6.353-8.683-10.52-12.077-3.236-2.628-6.917-4.786-10.923-5.907-2.499-.701-5.128-1.012-7.707-.751-2.926.301-5.793 1.319-8.358 2.777-4.636 2.627-8.306 6.678-11.25 11.136-2.975 4.506-5.207 9.426-7.026 14.494-1.829 5.103-3.237 10.346-4.366 15.645-2.267 10.639-3.41 21.488-3.782 32.351-.638 18.659.981 37.387 5.187 55.561 2.454 10.59 5.782 20.991 10.083 30.986 4.277 9.938 9.521 19.484 15.814 28.295l-.955-1.955c-4.326-8.816-6.705-18.475-8.458-28.148a209.824 209.824 0 0 1-2.112-14.488 182.724 182.724 0 0 1-.961-26.459c.33-8.83 1.328-17.633 3.18-26.284 1.037-4.848 2.34-9.658 4.093-14.282 2.129-5.608 4.922-10.963 8.371-15.903 3.003-4.31 6.501-8.306 10.879-11.195 2.148-1.416 4.509-2.564 6.991-3.237a21.193 21.193 0 0 1 7.744-.639c4.783.486 9.428 2.559 13.013 5.719 3.129 2.77 5.456 6.371 7.547 10.016C7.043 20.551 4.198 10.009 0 0m8.169 31.841c-2.103-2.873-4.35-5.725-7.106-7.997-2.758-2.263-6.026-3.939-9.515-4.781-3.491-.826-7.206-.826-10.598.205-3.393 1.03-6.458 3.069-9.116 5.495-2.652 2.425-4.895 5.22-6.898 8.185a68.857 68.857 0 0 0-5.307 9.317c-1.529 3.238-2.804 6.588-3.873 9.993-1.069 3.423-1.93 6.898-2.647 10.401a139.325 139.325 0 0 0-1.723 10.584 157.161 157.161 0 0 0-.952 10.69 185.436 185.436 0 0 0-.274 10.73c.014 3.572.125 7.149.312 10.723.185 3.575.444 7.135.788 10.696a239.36 239.36 0 0 0 1.261 10.66c.501 3.539 1.08 7.071 1.82 10.576.739 3.492 1.636 6.96 2.698 10.374a123.055 123.055 0 0 0 3.645 10.093c.568 1.389 1.611 2.628-.08 3.868-1.802 1.333-2.455-.448-3.33-1.68-7.195-10.053-13.041-21.049-17.676-32.516-5.741-14.194-9.624-29.106-11.868-44.247-2.441-16.512-2.933-33.307-1.589-49.938.478-5.922 1.19-11.826 2.217-17.671 1.357-7.709 3.263-15.334 6.025-22.673 2.238-5.935 5.039-11.699 8.919-16.716 2.263-2.93 4.898-5.608 7.94-7.738 3.553-2.495 7.672-4.246 11.947-4.639 3.663-.337 7.444.322 10.938 1.611 4.594 1.697 8.69 4.5 12.24 7.828 4.477 4.2 8.082 9.26 11.12 14.615C-.515-8.593 1.234-4.935 2.801-1.218c4.293 10.217 7.201 20.989 9.209 31.89.719 3.909-1.613 4.218-3.841 1.169" style="fill:#a7a9ac;fill-opacity:1;fill-rule:nonzero;stroke:none" transform="matrix(1.05804 0 0 -1.05804 115.003 261.644)"/><path d="M0 0v-33.262h-9.214v63.945H0V8.199h7.389V0Zm-26.808 7.281c-1.859 2.087-4.121 3.135-6.737 3.135-2.638 0-4.879-1.048-6.751-3.135-1.855-2.059-2.791-4.549-2.791-7.468 0-2.926.936-5.436 2.791-7.495 1.872-2.06 4.113-3.088 6.751-3.088 2.616 0 4.878 1.028 6.737 3.088 1.866 2.059 2.805 4.569 2.805 7.495 0 2.919-.939 5.409-2.805 7.468m-21.219-58.997v29.222h9.211v-21.01H1.96v-8.212zm-6.237 70.144v8.226h16.102v5.679h9.214v-5.679h15.95v-8.226h-16.447c4.161-.953 7.657-3.135 10.441-6.551C-16.212 8.48-14.81 4.51-14.81-.107c0-5.208-1.825-9.663-5.503-13.36-3.676-3.693-8.091-5.551-13.232-5.551-5.161 0-9.572 1.858-13.236 5.551-3.678 3.697-5.503 8.152-5.503 13.36 0 4.617 1.406 8.587 4.224 11.984 2.822 3.416 6.345 5.598 10.555 6.551z" style="fill:#636466;fill-opacity:1;fill-rule:nonzero;stroke:none" transform="matrix(1.05804 0 0 -1.05804 370.359 163.29)"/><path d="M0 0v-14.246h19.407v-30.706h-9.214v22.491H-30.74v8.215h21.547V0h-25.003v8.213h44.389v20.998h-40.772v8.235h49.986V8.213h5.583V0Z" style="fill:#636466;fill-opacity:1;fill-rule:nonzero;stroke:none" transform="matrix(1.05804 0 0 -1.05804 422.883 170.447)"/><path d="M0 0v8.233h24.989v13.515H5.582v29.211h38.794v12.609H5.582v8.236h48.027V42.746H14.797V29.963H55.73v-8.215H34.183V8.233h25.003V0Z" style="fill:#636466;fill-opacity:1;fill-rule:nonzero;stroke:none" transform="matrix(1.05804 0 0 -1.05804 459.76 206.798)"/><path d="M820.443 3177.513h-29.601v-10.227h29.601zm1.483-65.953-16.294 20.823-16.272-20.823h-10.846l22.18 28.883h9.885l22.199-28.883zm-45.875 33.264v8.214h24.984v6.02h-19.407v34.905h9.214v-8.236h29.601v8.236h9.2v-34.905H810.25l.154-6.02h24.836v-8.214z" style="fill:#636466;fill-opacity:1;fill-rule:nonzero;stroke:none;stroke-width:1.00006" transform="matrix(1.05798 0 0 -1.05798 -288.218 3509.965)"/><path d="M0 0v-37.25h-9.213v64.302H0V8.234h7.389V0Zm-47.993-55.347v31.048h9.201v-22.836H1.813v-8.212zm25.795 37.083-12.481 32.873-12.334-32.873h-9.71l17.098 45.316h10.039l17.105-45.316z" style="fill:#636466;fill-opacity:1;fill-rule:nonzero;stroke:none" transform="matrix(1.05804 0 0 -1.05804 662.583 159.45)"/><path d="M960.371 3132.383h-31.414v-12.61h31.414zm-20.489 50.806c-2.026 2.302-4.47 3.477-7.307 3.477-2.745 0-5.16-1.175-7.235-3.477-2.088-2.308-3.114-5.086-3.114-8.326 0-3.228 1.026-6.05 3.114-8.416 2.074-2.367 4.49-3.538 7.235-3.538 2.838 0 5.28 1.17 7.307 3.538 2.027 2.367 3.041 5.188 3.041 8.416 0 3.24-1.014 6.018-3.041 8.326m-20.126-71.63v37.086h9.201v-8.016h31.414v8.016h9.194v-37.085zm40.615 43.116v15.355h-8.375c-.98-4.313-3.243-7.953-6.8-10.898-3.549-2.973-7.71-4.457-12.527-4.457-5.362 0-9.96 1.982-13.845 5.953-3.88 3.946-5.81 8.716-5.81 14.235 0 5.641 1.93 10.4 5.81 14.233 3.885 3.832 8.483 5.785 13.845 5.785 4.818 0 9.04-1.59 12.703-4.758 3.65-3.182 5.925-7.121 6.778-11.879h8.221v16.637h9.194v-40.206zM1029.426 3193.963h9.198v-63.748h-9.198zm-40.623-82.403v31.05h9.195v-22.838h42.587v-8.212zm25.985 37.27-12.019 25.736-11.986-25.735h-9.718l17.121 36.896H983.53v8.236h38.648v-8.236h-14.638l16.925-36.896z" style="fill:#636466;fill-opacity:1;fill-rule:nonzero;stroke:none;stroke-width:1.00006" transform="matrix(1.05798 0 0 -1.05798 -288.218 3509.965)"/><path d="M0 0c-1.67 1.918-3.662 2.884-5.984 2.884-2.428 0-4.475-.966-6.141-2.884-1.656-1.901-2.482-4.222-2.482-6.884 0-2.685.826-4.974 2.482-6.906 1.666-1.919 3.713-2.873 6.141-2.873 2.322 0 4.314.954 5.984 2.873 1.652 1.932 2.477 4.221 2.477 6.906C2.477-4.222 1.652-1.901 0 0m.639-47.229c-1.871 2.121-4.174 3.18-6.858 3.18-2.709 0-4.97-1.059-6.799-3.18-1.837-2.133-2.736-4.629-2.736-7.514 0-3.041.899-5.578 2.736-7.604 1.829-2.06 4.09-3.088 6.799-3.088 2.684 0 4.987 1.028 6.858 3.088 1.884 2.026 2.824 4.563 2.824 7.604 0 2.885-.94 5.381-2.824 7.514m6.502-20.87c-3.698-3.697-8.12-5.569-13.28-5.569-5.066 0-9.48 1.872-13.218 5.569-3.758 3.739-5.631 8.215-5.631 13.436 0 5.252 1.873 9.663 5.631 13.326 3.738 3.663 8.152 5.488 13.218 5.488 5.16 0 9.582-1.825 13.28-5.488 3.693-3.663 5.531-8.074 5.531-13.326 0-5.221-1.838-9.697-5.531-13.436m-37.86 70.983V11.1h20.213v3.838h9.213V11.1h20.547V2.884H8.576a17.372 17.372 0 0 0 2.289-4.723c.565-1.699.826-3.536.826-5.422 0-4.879-1.711-9.013-5.14-12.468-3.463-3.45-7.623-5.147-12.535-5.147s-9.12 1.697-12.608 5.147c-3.476 3.455-5.221 7.589-5.221 12.468 0 1.886.274 3.723.872 5.422.591 1.731 1.369 3.307 2.336 4.723zm-4.945-29.785h59.186v-8.215h-59.186z" style="fill:#636466;fill-opacity:1;fill-rule:nonzero;stroke:none" transform="matrix(1.05804 0 0 -1.05804 862.783 144.127)"/><path d="M0 0v6.201h-14.469v8.213H0v49.888h9.193V0Zm-19.473 53.777c-1.818 2.027-4.033 3.04-6.672 3.04-2.63 0-4.845-1.013-6.656-3.04-1.804-2.011-2.711-4.394-2.711-7.105 0-2.859.907-5.287 2.711-7.301 1.811-2.027 4.026-3.019 6.656-3.019 2.639 0 4.854.992 6.672 3.019 1.797 2.014 2.698 4.442 2.698 7.301 0 2.711-.901 5.094-2.698 7.105m-22.769-71.874V6.389h9.193V-9.885H11.02v-8.212zm29.258 51.716c-3.618-3.676-8-5.482-13.161-5.482-5.031 0-9.4 1.806-13.058 5.482-3.684 3.631-5.522 7.965-5.522 13.053 0 5.059 1.838 9.394 5.522 12.964 3.658 3.605 8.027 5.394 13.058 5.394 5.161 0 9.543-1.789 13.161-5.394 3.617-3.57 5.421-7.905 5.421-12.964 0-5.088-1.804-9.422-5.421-13.053m-7.563-14.633V.168h-9.213v18.818h-18.254v8.211h44.397v-8.211z" style="fill:#636466;fill-opacity:1;fill-rule:nonzero;stroke:none" transform="matrix(1.05804 0 0 -1.05804 946.996 198.861)"/><path d="m0 0-5.158 10.651-2.851-4.025V0h-3.408v22.697h3.408V12.175l7.272 10.522H3.43l-6.318-8.978L3.979 0Z" style="fill:#636466;fill-opacity:1;fill-rule:nonzero;stroke:none" transform="matrix(1.05804 0 0 -1.05804 274.01 263.175)"/><path d="M0 0c-1.066 0-1.912-.413-2.585-1.264-.527-.658-.854-1.707-.973-3.116-.051-.513-.078-1.716-.078-3.585s.027-3.073.078-3.579c.119-1.415.446-2.464.972-3.121.674-.851 1.52-1.265 2.586-1.265 1.065 0 1.911.414 2.585 1.264.527.658.853 1.707.972 3.116.052.512.079 1.716.079 3.585s-.027 3.072-.078 3.579c-.12 1.415-.446 2.464-.972 3.12C1.911-.413 1.065 0 0 0m0-19.5c-2.033 0-3.767.828-5.154 2.461-.876 1.031-1.44 2.311-1.675 3.807-.145.933-.215 2.657-.215 5.267 0 2.61.07 4.332.215 5.268.235 1.495.799 2.776 1.675 3.806C-3.767 2.742-2.032 3.57 0 3.57c2.049 0 3.792-.828 5.181-2.461.876-1.031 1.43-2.312 1.648-3.808.143-.901.215-2.672.215-5.266 0-2.595-.072-4.366-.215-5.268-.218-1.493-.772-2.775-1.648-3.806C3.792-18.672 2.05-19.5 0-19.5" style="fill:#636466;fill-opacity:1;fill-rule:nonzero;stroke:none" transform="matrix(1.05804 0 0 -1.05804 286.36 242.74)"/><path d="M0 0c.897 0 1.593.273 2.125.834.527.559.796 1.352.796 2.357 0 1.006-.269 1.804-.798 2.372-.531.573-1.227.85-2.123.85h-3.953V0Zm3.12-12.714-3.965 9.33h-3.108v-9.33h-3.408V9.983H.211c1.836 0 3.333-.637 4.449-1.897 1.109-1.249 1.67-2.881 1.67-4.848 0-1.563-.367-2.896-1.092-3.967-.668-.983-1.529-1.679-2.564-2.074l4.387-9.911z" style="fill:#636466;fill-opacity:1;fill-rule:nonzero;stroke:none" transform="matrix(1.05804 0 0 -1.05804 304.793 249.723)"/><path d="M0 0v22.697h12.581v-3.57H3.408v-5.915h7.825V9.673H3.408V3.571h9.173V0Z" style="fill:#636466;fill-opacity:1;fill-rule:nonzero;stroke:none" transform="matrix(1.05804 0 0 -1.05804 314.624 263.175)"/><path d="m0 0-2.49 8.6L-5.05 0Zm2.249-7.831L.954-3.384h-7.013l-1.295-4.447h-3.625l7.073 22.697h2.707L5.873-7.831Z" style="fill:#636466;fill-opacity:1;fill-rule:nonzero;stroke:none" transform="matrix(1.05804 0 0 -1.05804 339.923 254.89)"/><path d="M606.633 3091.566h3.409v-22.698h-3.41z" style="fill:#636466;fill-opacity:1;fill-rule:nonzero;stroke:none;stroke-width:1.00006" transform="matrix(1.05798 0 0 -1.05798 -288.218 3509.965)"/><path d="m0 0-8.258 14.794V0h-3.409v22.697h3.057L-.353 7.933v14.764h3.41V0Z" style="fill:#636466;fill-opacity:1;fill-rule:nonzero;stroke:none" transform="matrix(1.05804 0 0 -1.05804 373.451 263.175)"/><path d="M0 0c-2.875 0-5.188 1.018-6.874 3.022l-.151.181 2.268 2.631.209-.246C-3.409 4.25-1.862 3.57.053 3.57c1.159 0 2.062.276 2.686.82.621.54.923 1.291.923 2.293 0 .92-.224 1.63-.668 2.115-.378.407-1.018.693-1.905.847l-2.219.373c-1.607.279-2.861.904-3.727 1.86-.96 1.063-1.447 2.55-1.447 4.416 0 2.012.594 3.662 1.768 4.902 1.177 1.243 2.792 1.874 4.801 1.874 2.431 0 4.465-.878 6.046-2.609l.166-.182-2.191-2.539-.21.235c-.963 1.074-2.272 1.619-3.891 1.619-1.004 0-1.764-.288-2.324-.879-.562-.593-.836-1.346-.836-2.297 0-.805.213-1.419.651-1.877.44-.462 1.096-.775 1.95-.93l2.14-.373c1.602-.277 2.837-.859 3.669-1.729 1.067-1.106 1.609-2.698 1.609-4.732 0-2.082-.661-3.751-1.965-4.962C3.781.611 2.072 0 0 0" style="fill:#636466;fill-opacity:1;fill-rule:nonzero;stroke:none" transform="matrix(1.05804 0 0 -1.05804 386.209 263.372)"/><path d="M0 0v19.127h-5.181v3.57H8.591v-3.57H3.409V0Z" style="fill:#636466;fill-opacity:1;fill-rule:nonzero;stroke:none" transform="matrix(1.05804 0 0 -1.05804 400.123 263.175)"/><path d="M661.249 3091.566h3.409v-22.698h-3.41z" style="fill:#636466;fill-opacity:1;fill-rule:nonzero;stroke:none;stroke-width:1.00006" transform="matrix(1.05798 0 0 -1.05798 -288.218 3509.965)"/><path d="M0 0v19.127h-5.182v3.57H8.59v-3.57H3.408V0Z" style="fill:#636466;fill-opacity:1;fill-rule:nonzero;stroke:none" transform="matrix(1.05804 0 0 -1.05804 422.61 263.175)"/><path d="M0 0c-2.012 0-3.704.748-5.03 2.223-1.319 1.465-1.988 3.384-1.988 5.705v14.956h3.409V8.083c0-1.4.335-2.519.995-3.323.655-.801 1.51-1.19 2.614-1.19 1.104 0 1.965.391 2.629 1.192.668.804 1.007 1.922 1.007 3.321v14.801h3.409V7.928c0-2.321-.674-4.24-2.002-5.706C3.708.747 2.012 0 0 0" style="fill:#636466;fill-opacity:1;fill-rule:nonzero;stroke:none" transform="matrix(1.05804 0 0 -1.05804 440.971 263.372)"/><path d="M0 0v19.127h-5.181v3.57H8.591v-3.57H3.409V0Z" style="fill:#636466;fill-opacity:1;fill-rule:nonzero;stroke:none" transform="matrix(1.05804 0 0 -1.05804 455.753 263.175)"/><path d="M0 0v22.697h12.582v-3.57H3.409v-5.915h7.824V9.673H3.409V3.571h9.173V0Z" style="fill:#636466;fill-opacity:1;fill-rule:nonzero;stroke:none" transform="matrix(1.05804 0 0 -1.05804 466.996 263.175)"/><path d="M0 0v22.697h12.581v-3.57H3.408v-6.195h7.825V9.361H3.408V0Z" style="fill:#636466;fill-opacity:1;fill-rule:nonzero;stroke:none" transform="matrix(1.05804 0 0 -1.05804 489.176 263.175)"/><path d="M0 0c-1.066 0-1.911-.413-2.585-1.264-.528-.658-.854-1.707-.972-3.116-.052-.513-.079-1.716-.079-3.585s.027-3.073.078-3.579c.119-1.415.445-2.464.972-3.121.674-.851 1.52-1.265 2.586-1.265 1.065 0 1.911.414 2.585 1.264.526.658.854 1.706.972 3.116.052.512.078 1.716.078 3.585s-.026 3.072-.077 3.579c-.119 1.415-.447 2.464-.972 3.12C1.911-.413 1.065 0 0 0m0-19.5c-2.033 0-3.767.828-5.154 2.461-.876 1.031-1.44 2.311-1.676 3.807-.145.933-.215 2.657-.215 5.267 0 2.61.07 4.332.215 5.268.236 1.495.8 2.776 1.676 3.806C-3.766 2.742-2.032 3.57 0 3.57c2.049 0 3.792-.828 5.181-2.461.876-1.031 1.43-2.312 1.649-3.808.142-.901.214-2.672.214-5.266 0-2.595-.072-4.366-.215-5.268-.218-1.493-.772-2.775-1.648-3.806C3.793-18.672 2.049-19.5 0-19.5" style="fill:#636466;fill-opacity:1;fill-rule:nonzero;stroke:none" transform="matrix(1.05804 0 0 -1.05804 511.564 242.74)"/><path d="M0 0c.898 0 1.594.273 2.126.834.528.559.796 1.352.796 2.357 0 1.006-.269 1.804-.798 2.372-.531.573-1.227.85-2.124.85h-3.952V0Zm3.121-12.714-3.965 9.33h-3.108v-9.33h-3.409V9.983H.212c1.836 0 3.333-.637 4.449-1.897 1.109-1.249 1.67-2.881 1.67-4.848 0-1.563-.367-2.896-1.092-3.967-.668-.983-1.529-1.679-2.564-2.074l4.387-9.911z" style="fill:#636466;fill-opacity:1;fill-rule:nonzero;stroke:none" transform="matrix(1.05804 0 0 -1.05804 529.995 249.723)"/><path d="M0 0c.897 0 1.593.273 2.125.834.528.559.796 1.352.796 2.357 0 1.006-.269 1.804-.798 2.372-.531.573-1.227.85-2.123.85h-3.953V0Zm3.12-12.714-3.965 9.33h-3.108v-9.33h-3.409V9.983H.211c1.836 0 3.333-.637 4.449-1.897 1.109-1.249 1.67-2.881 1.67-4.848 0-1.563-.367-2.896-1.092-3.967-.668-.983-1.529-1.679-2.564-2.074l4.387-9.911z" style="fill:#636466;fill-opacity:1;fill-rule:nonzero;stroke:none" transform="matrix(1.05804 0 0 -1.05804 553.63 249.723)"/><path d="M0 0c-1.066 0-1.912-.413-2.585-1.264-.527-.658-.854-1.707-.973-3.116-.052-.513-.078-1.716-.078-3.585s.026-3.073.078-3.579c.119-1.415.446-2.464.971-3.121.675-.851 1.52-1.265 2.587-1.265 1.065 0 1.911.414 2.585 1.264.526.658.853 1.706.972 3.116.051.512.079 1.716.079 3.585s-.028 3.072-.079 3.579c-.119 1.415-.446 2.464-.972 3.12C1.91-.413 1.065 0 0 0m0-19.5c-2.033 0-3.767.828-5.155 2.461-.875 1.031-1.44 2.311-1.675 3.807-.145.933-.215 2.657-.215 5.267 0 2.61.07 4.332.215 5.268.235 1.495.8 2.776 1.675 3.806C-3.767 2.742-2.032 3.57 0 3.57c2.048 0 3.792-.828 5.181-2.461.875-1.031 1.43-2.312 1.648-3.808.143-.901.215-2.672.215-5.266 0-2.595-.072-4.366-.215-5.268-.218-1.493-.773-2.775-1.648-3.806C3.793-18.672 2.049-19.5 0-19.5" style="fill:#636466;fill-opacity:1;fill-rule:nonzero;stroke:none" transform="matrix(1.05804 0 0 -1.05804 570.187 242.74)"/><path d="M0 0c.867 0 1.534.243 2.039.743.498.494.751 1.217.751 2.153 0 .933-.253 1.659-.751 2.151-.506.501-1.173.744-2.039.744h-3.952V0Zm.266-9.765c.893 0 1.568.275 2.064.838.498.568.75 1.332.75 2.276 0 .92-.252 1.674-.75 2.242-.496.563-1.171.839-2.064.839h-4.218v-6.195zm-7.627-3.571V9.361H.238c1.816 0 3.281-.579 4.352-1.719 1.068-1.138 1.608-2.693 1.608-4.621 0-1.167-.28-2.23-.832-3.159-.395-.656-.868-1.168-1.409-1.529 1.681-.99 2.532-2.718 2.532-5.141 0-2.054-.55-3.672-1.635-4.809-1.091-1.14-2.545-1.719-4.325-1.719z" style="fill:#636466;fill-opacity:1;fill-rule:nonzero;stroke:none" transform="matrix(1.05804 0 0 -1.05804 588.618 249.065)"/><path d="M0 0c-1.065 0-1.911-.413-2.585-1.264-.527-.659-.854-1.707-.972-3.116-.051-.511-.078-1.715-.078-3.585 0-1.87.027-3.075.077-3.579.119-1.415.446-2.463.973-3.121.673-.851 1.52-1.265 2.585-1.265 1.066 0 1.911.414 2.585 1.264.528.658.853 1.706.972 3.116.052.51.079 1.715.079 3.585 0 1.87-.027 3.074-.078 3.579-.12 1.415-.445 2.464-.971 3.12C1.911-.413 1.065 0 0 0m0-19.5c-2.032 0-3.767.828-5.154 2.461-.876 1.031-1.44 2.312-1.674 3.807-.146.931-.216 2.654-.216 5.267 0 2.611.07 4.336.216 5.268.235 1.495.798 2.775 1.674 3.806C-3.766 2.742-2.031 3.57 0 3.57c2.05 0 3.792-.828 5.181-2.461.876-1.03 1.43-2.311 1.649-3.808.142-.901.215-2.674.215-5.266 0-2.594-.073-4.365-.215-5.268-.219-1.494-.773-2.775-1.649-3.806C3.792-18.672 2.05-19.5 0-19.5" style="fill:#636466;fill-opacity:1;fill-rule:nonzero;stroke:none" transform="matrix(1.05804 0 0 -1.05804 605.399 242.74)"/><path d="M0 0v19.127h-5.182v3.57H8.59v-3.57H3.409V0Z" style="fill:#636466;fill-opacity:1;fill-rule:nonzero;stroke:none" transform="matrix(1.05804 0 0 -1.05804 619.762 263.175)"/><path d="M874.533 3091.566h3.41v-22.698h-3.41z" style="fill:#636466;fill-opacity:1;fill-rule:nonzero;stroke:none;stroke-width:1.00006" transform="matrix(1.05798 0 0 -1.05798 -288.218 3509.965)"/><path d="m0 0-8.257 14.794V0h-3.41v22.697h3.057L-.354 7.933v14.764h3.411V0Z" style="fill:#636466;fill-opacity:1;fill-rule:nonzero;stroke:none" transform="matrix(1.05804 0 0 -1.05804 656.885 263.175)"/><path d="M0 0c1.293 0 2.268.451 2.977 1.383.408.538.683 1.402.818 2.57.086.776.131 2.114.131 3.98 0 1.823-.045 3.11-.131 3.823-.135 1.064-.41 1.877-.818 2.416-.709.932-1.684 1.384-2.977 1.384h-3.188V0Zm-6.596-3.571v22.697H.289c2.139 0 3.844-.734 5.076-2.181.93-1.092 1.53-2.522 1.781-4.245.125-.883.188-2.486.188-4.767 0-2.343-.063-3.997-.188-4.92-.251-1.829-.851-3.31-1.781-4.404-1.232-1.446-2.937-2.18-5.076-2.18Z" style="fill:#636466;fill-opacity:1;fill-rule:nonzero;stroke:none" transform="matrix(1.05804 0 0 -1.05804 671.014 259.396)"/><path d="M0 0c-2.01 0-3.703.748-5.029 2.223-1.319 1.465-1.987 3.383-1.987 5.705v14.956h3.409V8.083c0-1.4.334-2.519.994-3.323.656-.801 1.511-1.19 2.613-1.19 1.105 0 1.965.391 2.631 1.192.666.803 1.006 1.921 1.006 3.321v14.801h3.408V7.928c0-2.321-.672-4.24-2-5.706C3.709.747 2.014 0 0 0" style="fill:#636466;fill-opacity:1;fill-rule:nonzero;stroke:none" transform="matrix(1.05804 0 0 -1.05804 689.079 263.372)"/><path d="M0 0c-2.875 0-5.188 1.018-6.873 3.022l-.152.181 2.267 2.631.211-.246C-3.41 4.25-1.861 3.57.055 3.57c1.158 0 2.06.276 2.685.82.621.54.922 1.291.922 2.293 0 .92-.224 1.63-.668 2.115-.377.407-1.017.693-1.904.847l-2.219.373c-1.607.279-2.861.904-3.728 1.86-.961 1.063-1.448 2.55-1.448 4.416 0 2.012.596 3.662 1.768 4.902 1.178 1.243 2.793 1.874 4.803 1.874 2.429 0 4.464-.878 6.047-2.609l.164-.182-2.19-2.539-.211.235c-.963 1.074-2.271 1.619-3.89 1.619-1.006 0-1.766-.288-2.325-.879-.562-.594-.836-1.346-.836-2.297 0-.794.219-1.426.651-1.877.441-.462 1.095-.775 1.949-.93l2.143-.373c1.601-.277 2.836-.859 3.666-1.729 1.068-1.106 1.611-2.698 1.611-4.732 0-2.082-.662-3.751-1.967-4.962C3.781.611 2.072 0 0 0" style="fill:#636466;fill-opacity:1;fill-rule:nonzero;stroke:none" transform="matrix(1.05804 0 0 -1.05804 705.75 263.372)"/><path d="M0 0v19.127h-5.182v3.57H8.59v-3.57H3.408V0Z" style="fill:#636466;fill-opacity:1;fill-rule:nonzero;stroke:none" transform="matrix(1.05804 0 0 -1.05804 719.665 263.175)"/><path d="M0 0c.898 0 1.594.273 2.125.834.527.559.797 1.352.797 2.357 0 1.006-.27 1.803-.799 2.372-.531.573-1.227.85-2.123.85h-3.953V0Zm3.121-12.714-3.965 9.33h-3.109v-9.33h-3.408V9.983H.211c1.836 0 3.334-.637 4.451-1.897C5.77 6.837 6.33 5.205 6.33 3.238c0-1.563-.367-2.897-1.092-3.967-.668-.983-1.529-1.679-2.564-2.074l4.387-9.911z" style="fill:#636466;fill-opacity:1;fill-rule:nonzero;stroke:none" transform="matrix(1.05804 0 0 -1.05804 738.697 249.723)"/><path d="M0 0v9.332l-5.775 13.365h3.726l3.752-9.272 3.752 9.272h3.727L3.408 9.332V0Z" style="fill:#636466;fill-opacity:1;fill-rule:nonzero;stroke:none" transform="matrix(1.05804 0 0 -1.05804 752.026 263.175)"/><path d="m0 0-2.49 8.6L-5.049 0Zm2.25-7.831L.955-3.384h-7.014l-1.295-4.447h-3.623l7.071 22.697h2.707L5.873-7.831Z" style="fill:#636466;fill-opacity:1;fill-rule:nonzero;stroke:none" transform="matrix(1.05804 0 0 -1.05804 778.19 254.89)"/><path d="M0 0c1.295 0 2.27.451 2.979 1.383.408.538.683 1.402.818 2.57.086.776.131 2.114.131 3.98 0 1.823-.045 3.11-.131 3.823-.135 1.064-.41 1.877-.818 2.416-.709.932-1.684 1.384-2.979 1.384h-3.186V0Zm-6.596-3.571v22.697H.289c2.139 0 3.846-.734 5.078-2.181.928-1.092 1.528-2.522 1.779-4.245.125-.883.19-2.486.19-4.767 0-2.343-.065-3.997-.188-4.92-.253-1.829-.853-3.31-1.781-4.404-1.232-1.446-2.939-2.18-5.078-2.18Z" style="fill:#636466;fill-opacity:1;fill-rule:nonzero;stroke:none" transform="matrix(1.05804 0 0 -1.05804 792.816 259.396)"/><path d="m0 0-6.34 22.697h3.537L1.32 7.376l4.123 15.321h3.592L2.641 0Z" style="fill:#636466;fill-opacity:1;fill-rule:nonzero;stroke:none" transform="matrix(1.05804 0 0 -1.05804 807.92 263.175)"/><path d="m0 0-2.49 8.6L-5.051 0Zm2.248-7.831L.953-3.384h-7.014l-1.294-4.447h-3.625l7.074 22.697h2.707L5.873-7.831Z" style="fill:#636466;fill-opacity:1;fill-rule:nonzero;stroke:none" transform="matrix(1.05804 0 0 -1.05804 827.975 254.89)"/><path d="m0 0-8.256 14.794V0h-3.41v22.697h3.057L-.354 7.933v14.764h3.411V0Z" style="fill:#636466;fill-opacity:1;fill-rule:nonzero;stroke:none" transform="matrix(1.05804 0 0 -1.05804 847.966 263.175)"/><path d="M0 0c-2.033 0-3.768.828-5.154 2.461-.875 1.031-1.44 2.312-1.674 3.807-.147.931-.217 2.654-.217 5.267 0 2.611.07 4.336.217 5.268.234 1.495.799 2.775 1.674 3.806C-3.766 22.242-2.031 23.07 0 23.07c1.828 0 3.387-.623 4.635-1.852 1.236-1.219 2.027-2.968 2.353-5.195l.047-.318H3.578l-.043.223C3.049 18.332 1.893 19.5 0 19.5c-1.066 0-1.904-.403-2.559-1.232-.527-.679-.863-1.741-.998-3.151-.052-.508-.08-1.712-.08-3.582 0-1.87.028-3.075.08-3.579.135-1.414.471-2.475 1-3.155C-1.904 3.974-1.066 3.57 0 3.57c1.91 0 3.074 1.169 3.561 3.573l.044.221h3.43l-.047-.317c-.326-2.206-1.121-3.948-2.367-5.178C3.367.629 1.811 0 0 0" style="fill:#636466;fill-opacity:1;fill-rule:nonzero;stroke:none" transform="matrix(1.05804 0 0 -1.05804 861.842 263.372)"/><path d="M0 0v22.697h12.582v-3.57H3.408v-5.915h7.826V9.673H3.408V3.571h9.174V0Z" style="fill:#636466;fill-opacity:1;fill-rule:nonzero;stroke:none" transform="matrix(1.05804 0 0 -1.05804 871.98 263.175)"/><path d="M0 0v13.649l-3.871-9.637h-2.488l-3.979 9.669V0h-3.408v22.697h3.32l5.307-13.301L.088 22.697h3.32V0Z" style="fill:#636466;fill-opacity:1;fill-rule:nonzero;stroke:none" transform="matrix(1.05804 0 0 -1.05804 902.69 263.175)"/><path d="M0 0v22.697h12.582v-3.57H3.41v-5.915h7.824V9.673H3.41V3.571h9.172V0Z" style="fill:#636466;fill-opacity:1;fill-rule:nonzero;stroke:none" transform="matrix(1.05804 0 0 -1.05804 910.186 263.175)"/><path d="m0 0-8.256 14.794V0h-3.41v22.697h3.057L-.354 7.933v14.764h3.411V0Z" style="fill:#636466;fill-opacity:1;fill-rule:nonzero;stroke:none" transform="matrix(1.05804 0 0 -1.05804 938.695 263.175)"/><path d="M0 0v19.127h-5.182v3.57H8.59v-3.57H3.408V0Z" style="fill:#636466;fill-opacity:1;fill-rule:nonzero;stroke:none" transform="matrix(1.05804 0 0 -1.05804 949.566 263.175)"/></svg>