<svg xmlns="http://www.w3.org/2000/svg" xml:space="preserve" width="897.21472" height="500" viewBox="0 0 897.21475 500"><path d="M220.84 1929.083v-107.002c21.418 2.305 42.838 31.657 42.838 55.317v107c-21.42-2.302-42.837-31.657-42.837-55.315" style="fill:#00945f;fill-opacity:1;fill-rule:nonzero;stroke:none;stroke-width:2.50001" transform="matrix(1.33333 0 0 -1.33333 -156.017 2645.865)"/><path d="M291.234 1889.271a34.855 34.855 0 0 0 3.84 9.063 35.541 35.541 0 0 0 2.143 3.192c.455.593.947 1.15 1.437 1.713-.49.562-.982 1.117-1.437 1.712a35.848 35.848 0 0 0-2.143 3.19 34.872 34.872 0 0 0-3.84 9.065c-3.757 14.283 1.935 28.8 13.183 37.01.097.072.2.138.297.205 0 0-.19-.12-.29-.177-19.137-10.655-29.965-30.51-29.99-51.005.025-20.495 10.853-40.35 29.99-51.008.1-.055.29-.177.29-.177-.097.07-.2.135-.297.205-11.248 8.212-16.94 22.73-13.183 37.012" style="fill:#007953;fill-opacity:1;fill-rule:nonzero;stroke:none;stroke-width:2.50001" transform="matrix(1.33333 0 0 -1.33333 -156.017 2645.865)"/><path d="m307.512 1895.902 26.01-14.21c7.953-4.345 15.04-12.108 20.128-21.005 1.832-3.205 3.43-6.543 4.68-9.943 3.697-10.065 4.595-20.525 1.227-28.657l-54.685 29.877-.16.09c-.097.07-.197.135-.295.203-11.247 8.215-16.94 22.732-13.182 37.015a34.855 34.855 0 0 0 3.84 9.063 34.512 34.512 0 0 0 2.142 3.192c.455.595.948 1.153 1.438 1.715 2.505-2.882 5.432-5.343 8.692-7.25.055-.035.11-.06.165-.09M643.226 1929.083v-107.002c21.418 2.305 42.838 31.657 42.838 55.317v107c-21.42-2.302-42.838-31.654-42.838-55.315M583.889 1862.741a41.703 41.703 0 0 0-10.295-1.417c-22.528-.283-41.798 18.177-42.435 40.695-.675 23.713 18.345 43.143 41.902 43.143 3.74 0 7.36-.493 10.808-1.415 15.452-4.14 31.925-.628 43.237 10.685l1.723 1.722c-13.968 14.645-33.655 23.783-55.49 23.783h-.025c-33.08 0-63.276-20.875-72.973-52.505-16.145-52.656 22.792-100.888 72.995-100.888h.002c21.893 0 41.628 9.187 55.603 23.9l-1.655 1.655c-11.353 11.355-27.888 14.805-43.398 10.642" style="fill:#00945f;fill-opacity:1;fill-rule:nonzero;stroke:none;stroke-width:2.50001" transform="matrix(1.33333 0 0 -1.33333 -156.017 2645.865)"/><path d="M494.54 1852.1c-11.355 11.354-27.89 14.804-43.397 10.642a41.839 41.839 0 0 0-10.295-1.42c-19.463-.243-36.466 13.513-41.153 31.778h53.72c.463 3.217.738 6.614.738 10.142a71.31 71.31 0 0 1-.738 10.14h-53.738c4.543 18.243 20.988 31.78 40.636 31.78 3.74 0 7.362-.492 10.807-1.417 15.455-4.138 31.928-.625 43.24 10.687l1.723 1.723c-13.968 14.642-33.658 23.782-55.493 23.782h-.022c-33.083 0-63.278-20.875-72.976-52.502-16.142-52.656 22.795-100.893 72.998-100.893 21.895 0 41.63 9.19 55.605 23.902z" style="fill:#00945f;fill-opacity:1;fill-rule:nonzero;stroke:none;stroke-width:2.50001" transform="matrix(1.33333 0 0 -1.33333 -156.017 2645.865)"/><path d="m307.512 1910.579 26.01 14.21c7.953 4.345 15.04 12.107 20.128 21.005 1.832 3.205 3.43 6.542 4.68 9.942 3.697 10.065 4.595 20.525 1.227 28.658l-54.685-29.878-.16-.092c-.097-.068-.197-.132-.295-.205-11.247-8.21-16.94-22.727-13.182-37.01a34.908 34.908 0 0 1 3.84-9.065 34.813 34.813 0 0 1 2.142-3.19c.455-.595.948-1.152 1.438-1.715 2.505 2.88 5.432 5.343 8.692 7.25.055.033.11.058.165.09M458.434 1918.472h14.255a35.884 35.884 0 0 1-9.362 12.19c-.303.257-.618.49-.928.732a35.414 35.414 0 0 1-3.177 2.22 35.709 35.709 0 0 1-8.023 3.743c3.218-4.848 5.73-11.575 7.235-18.885M440.314 1867.43c4.01 0 9.455 8.428 12.163 20.578H428.15c2.708-12.15 8.153-20.578 12.163-20.578M407.938 1918.472h13.985c1.27 7.167 3.448 13.722 6.485 18.512-1.785-.63-3.522-1.362-5.165-2.252-6.685-3.633-12.05-9.353-15.305-16.26M407.938 1888.009c4.21-8.93 11.97-15.848 21.49-18.883-3.217 4.848-5.73 11.573-7.235 18.883zM427.89 1918.472h24.587c-2.707 12.152-8.155 20.577-12.162 20.577-5.16 0-10.09-8.425-12.425-20.577M472.69 1888.009h-14.255c-1.505-7.31-4.02-14.035-7.235-18.883a35.634 35.634 0 0 1 6.185 2.626c6.687 3.63 12.05 9.35 15.305 16.257M474.646 1913.381H459.3c.462-3.37.725-6.785.725-10.14 0-3.355-.263-6.772-.725-10.142h15.347a35.856 35.856 0 0 1 1.48 10.142c0 3.525-.532 6.92-1.48 10.14" style="fill:#94d600;fill-opacity:1;fill-rule:nonzero;stroke:none;stroke-width:2.50001" transform="matrix(1.33333 0 0 -1.33333 -156.017 2645.865)"/><path d="M178.763 1733.847c0-1.112-.9-2.012-2.012-2.012h-26.708c-4.3-.833-7.43-2.308-9.388-4.413-2.87-3.165-4.302-6.52-4.302-10.065s1.137-6.32 3.39-8.315c2.262-1.992 5.02-2.998 8.262-2.998 2.793 0 5.62.658 7.838 2.625 2.23 1.958 3.66 4.063 3.66 7.608 0 .798-.172 1.653-.487 2.52-1.523 4.195-.453 8.875 3.217 11.418l1.038.717c5.202-4.3 7.802-9.22 7.802-13.892 0-6.485-2.297-11.353-6.9-15.46-4.595-4.11-9.953-6.168-16.055-6.168-6.865 0-12.595 2.092-17.19 6.28-4.605 4.188-6.9 9.44-6.9 15.778 0 5.052 1.957 9.84 5.877 14.365h-10.877c-1.113 0-2.015.9-2.015 2.012v6.148c0 1.115.902 2.017 2.015 2.017h57.723a2.014 2.014 0 0 0 2.012-2.017zm-12.665 12.915h-20.58c-3.038 0-5.97.325-8.795.973-5.558 1.277-8.47 7.465-6.248 12.715 6.938-2.038 12.475-3.06 16.62-3.06h8.376c5.867 0 10.627-4.758 10.627-10.628m30.678-90.255h-43.253c-6.485 0-11.743 5.257-11.743 11.745v19.497c0 1.113.903 2.015 2.015 2.015h8.3a2.013 2.013 0 0 0 2.013-2.015v-20.612h42.668c1.112 0 2.012-.9 2.012-2.013v-6.602c0-1.113-.9-2.015-2.012-2.015m16.167 62.663h-15.402v-33.393c0-1.11-.903-2.013-2.013-2.013h-8.302a2.013 2.013 0 0 0-2.013 2.013v76.388c0 1.112.9 2.012 2.013 2.012h8.302c1.11 0 2.013-.9 2.013-2.012v-31.805h15.402c1.113 0 2.013-.9 2.013-2.013v-7.165c0-1.112-.9-2.012-2.013-2.012M294.332 1759.652c1.133 0 2.063-.918 2.05-2.05-.082-6.825-.572-13.868-1.462-21.13a780.45 780.45 0 0 0-2.038-14.253h22.188a2.017 2.017 0 0 0 2.017-2.018v-6.71a2.013 2.013 0 0 0-2.012-2.012h-41.308v-16.853h9.41c6.485 0 11.743-5.257 11.743-11.745v-26.51c0-1.112-.9-2.012-2.013-2.012h-8.527c-1.11 0-2.013.9-2.013 2.012v27.618H238.8c-1.112 0-2.012.9-2.012 2.012v6.61c0 1.113.9 2.015 2.012 2.015h22.303v16.853h-41.298c-1.11 0-2.012.9-2.012 2.013v6.715c0 1.11.902 2.012 2.012 2.012h60.75c.833 4.75 1.51 9.387 2.038 13.912.755 6.78 1.128 11.08 1.128 12.893h-36.306c-5.87 0-10.627 4.758-10.627 10.628zM383.894 1738.485c0-1.113-.9-2.013-2.012-2.013h-30.003c-2.252-.607-4.065-1.44-5.427-2.49-3.015-2.487-4.525-5.13-4.525-7.915 0-2.947.962-5.165 2.887-6.673 1.925-1.51 4.43-2.265 7.525-2.265 3.233 0 6.058.755 8.018 2.265 1.957 1.508 3.152 3.136 3.152 5.996v.098a11.421 11.421 0 0 0 5.745 9.972l1.178.673c1.43-1.438 2.565-2.98 3.39-4.638.832-1.665 1.247-3.467 1.247-5.427 0-5.885-2.185-10.48-6.562-13.8-2.94-2.263-6.293-3.77-10.065-4.526v-6.215c2.567 0 5.392.035 8.487.113 6.043.13 12.3.772 18.768 1.93 1.232.22 2.375-.703 2.375-1.955v-6.567c0-.968-.688-1.818-1.638-2.006a108.84 108.84 0 0 0-18.665-2.04c-6.822-.147-12.83-.225-18.03-.225h-28.868c-1.11 0-2.012.9-2.012 2.013v6.603c0 1.112.902 2.012 2.012 2.012h25.243v6.338c-3.615.832-6.858 2.34-9.728 4.525-4.367 3.32-6.56 7.915-6.56 13.8 0 3.01 1.023 5.8 3.06 8.367.52.675 1.125 1.36 1.803 2.038h-11.668c-1.11 0-2.012.9-2.012 2.012v6.263c0 1.112.902 2.015 2.012 2.015h58.86a2.013 2.013 0 0 0 2.013-2.015zm17.778-81.978h-45.513c-6.485 0-11.745 5.26-11.745 11.745v15.423c0 1.112.903 2.015 2.015 2.015h8.188a2.013 2.013 0 0 0 2.012-2.015v-16.306h45.043c1.112 0 2.015-.9 2.015-2.012v-6.835a2.015 2.015 0 0 0-2.015-2.015m16.957 60.622h-15.855v-37.905c0-1.112-.9-2.015-2.012-2.015h-8.3a2.015 2.015 0 0 0-2.015 2.015v82.94c0 1.113.902 2.013 2.015 2.013h8.3c1.112 0 2.012-.9 2.012-2.012v-34.405h15.855a2.013 2.013 0 0 0 2.013-2.015v-6.6c0-1.113-.9-2.016-2.013-2.016M472.038 1753.912c-3.013-18.64-12.795-35.015-29.34-49.11-5.245-4.47-13.393-4.308-18.265.565 18.542 13.115 29.665 26.535 33.367 40.267h-21.725c-5.807 0-10.515 4.708-10.515 10.515v.113h44.453c1.24 0 2.222-1.125 2.025-2.35m31.897-76.928c0-6.267-2.445-11.667-7.35-16.237-4.9-4.56-11.495-6.84-19.792-6.84-8.14 0-14.66 2.28-19.565 6.84-4.898 4.57-7.353 9.97-7.353 16.237 0 6.25 2.455 11.66 7.353 16.23 4.905 4.558 11.425 6.84 19.565 6.84 8.217 0 14.797-2.282 19.74-6.84 4.932-4.57 7.402-9.98 7.402-16.23m-12.44 0c0 3.313-1.257 6.215-3.787 8.705-2.523 2.488-6.165 3.735-10.915 3.735-4.673 0-8.253-1.247-10.74-3.735-2.488-2.49-3.738-5.392-3.738-8.705 0-3.32 1.25-6.222 3.738-8.712 2.487-2.488 6.067-3.735 10.74-3.735 4.75 0 8.392 1.247 10.915 3.735 2.53 2.49 3.787 5.392 3.787 8.712m1.25 56.315h-19.702c-1.113 0-2.015.9-2.015 2.013v6.61c0 1.112.902 2.012 2.015 2.012h19.702v18.23c0 1.113.9 2.013 2.013 2.013h8.187c1.113 0 2.013-.9 2.013-2.013v-61c0-1.112-.9-2.012-2.013-2.012h-8.187c-1.113 0-2.013.9-2.013 2.012v10.653h-19.702c-1.113 0-2.015.9-2.015 2.012v6.603c0 1.112.902 2.012 2.015 2.012h19.702zM611.712 1671.888h-95.268c-1.112 0-2.012.9-2.012 2.012v6.723c0 1.112.9 2.015 2.012 2.015h41.298v12.687c0 1.113.9 2.015 2.013 2.015h8.637a2.015 2.015 0 0 0 2.015-2.015v-12.687h41.305a2.013 2.013 0 0 0 2.013-2.015v-6.723c0-1.112-.9-2.012-2.013-2.012m-21.167 28.277h-52.943c-1.12 0-2.027.908-2.027 2.028v52.597c6.87 0 12.44-5.57 12.44-12.442v-5.765h32.117v18.207c6.873 0 12.44-5.57 12.44-12.442v-40.155c0-1.12-.907-2.028-2.027-2.028m-10.413 25.783h-32.117v-15.153h32.117zM649.048 1727.308l22.965-21.49c-4.923-4.345-12.355-4.183-17.085.37l-12.885 12.407c-4.643-5.05-10.095-9.997-16.36-14.837-5.16-3.988-12.51-3.475-17.218 1.037l-.128.12c21.413 15.008 33.888 28.313 37.433 39.92h-20.24c-5.81 0-10.518 4.71-10.518 10.518h43.283c1.253 0 2.245-1.14 2.02-2.373-1.625-8.81-5.38-17.365-11.267-25.672m43.455-70.8h-44.49c-6.485 0-11.743 5.257-11.743 11.742v23.565c0 1.113.903 2.013 2.013 2.013h8.3c1.112 0 2.015-.9 2.015-2.013v-24.677h43.905a2.015 2.015 0 0 0 2.015-2.015v-6.6a2.015 2.015 0 0 0-2.015-2.015m-.675 30.082h-8.3c-1.113 0-2.015.9-2.015 2.013v35.315h-18.238c-1.11 0-2.012.902-2.012 2.015v6.712c0 1.113.902 2.015 2.012 2.015h18.238v27.505c0 1.11.902 2.013 2.015 2.013h8.3a2.013 2.013 0 0 0 2.012-2.013v-73.562c0-1.113-.9-2.013-2.012-2.013M740.614 1703.33v-12.915c0-1.113-.9-2.013-2.013-2.013h-8.422c-1.113 0-2.013.9-2.013 2.013v12.915H704.51c-1.11 0-2.013.902-2.013 2.012v6.612c0 1.11.903 2.013 2.013 2.013h30.445c4.377 0 10.142.113 17.302.338 6.388.2 12.838.877 19.35 2.045 1.233.22 2.365-.705 2.365-1.955v-6.57c0-.968-.68-1.815-1.627-2.003-6.203-1.227-12.595-1.947-19.178-2.155-4.602-.147-8.79-.26-12.552-.337m-30.315 34.952c-.078 5.723 2.28 10.613 7.072 14.643 4.788 4.032 10.985 6.052 18.605 6.052 7.613 0 13.835-2.02 18.655-6.052 4.83-4.03 7.24-8.92 7.24-14.643 0-5.807-2.41-10.712-7.24-14.702-4.82-4.005-11.042-5.998-18.655-5.998-7.62 0-13.785 1.993-18.492 5.998-4.715 3.99-7.108 8.895-7.185 14.702m12.44 0c0-2.79 1.152-5.192 3.45-7.185 2.297-1.995 5.557-3 9.787-3 4.223 0 7.515 1.005 9.893 3 2.375 1.993 3.562 4.395 3.562 7.185 0 2.783-1.187 5.178-3.562 7.18-2.378 1.993-5.67 2.998-9.893 2.998-4.23 0-7.49-1.005-9.787-2.998-2.298-2.002-3.45-4.397-3.45-7.18m65.17-81.775h-48.113c-6.487 0-11.745 5.26-11.745 11.745v15.535c0 1.113.903 2.015 2.015 2.015h8.535a2.013 2.013 0 0 0 2.013-2.015v-16.65h47.295a2.015 2.015 0 0 0 2.015-2.013v-6.602a2.015 2.015 0 0 0-2.015-2.015m-10.885 23.842v8.39h-22.415a2.015 2.015 0 0 0-2.015 2.013v6.498c0 1.112.902 2.015 2.015 2.015h22.415v62.9c0 1.112.902 2.012 2.012 2.012h8.303c1.11 0 2.012-.9 2.012-2.012v-81.816c0-1.11-.902-2.012-2.012-2.012h-8.303c-1.11 0-2.012.902-2.012 2.012M370.637 1750.606h-20.58c-3.037 0-5.97.325-8.795.975-5.557 1.275-8.47 7.463-6.245 12.713 6.935-2.038 12.475-3.06 16.618-3.06h8.375c5.87 0 10.627-4.758 10.627-10.628M134.28 1619.014v-8.617a.537.537 0 0 0-.537-.538h-2.878a.538.538 0 0 0-.537.537v24.46a3.953 3.953 0 0 0 3.952-3.952v-6.13l7.663 8.162a6.083 6.083 0 0 0 4.435 1.92h2.545z" style="fill:#4a4a49;fill-opacity:1;fill-rule:nonzero;stroke:none;stroke-width:2.50001" transform="matrix(1.33333 0 0 -1.33333 -156.017 2645.865)"/><path d="M138.099 1620.77h-2.048l6.698-8.574a6.082 6.082 0 0 1 4.792-2.338h2.05l-6.7 8.575a6.082 6.082 0 0 1-4.792 2.338M148.863 1617.884v2.297c0 5.575 3.952 8.425 8.518 8.425 4.565 0 8.545-2.85 8.545-8.425v-2.297c0-5.608-3.98-8.485-8.545-8.485-4.566 0-8.518 2.877-8.518 8.485m13.113.092v2.082c0 3.34-2.145 4.963-4.595 4.963-2.453 0-4.566-1.623-4.566-4.963v-2.082c0-3.34 2.113-4.993 4.566-4.993 2.45 0 4.595 1.653 4.595 4.993M229.875 1613.351h11.808c.297 0 .537-.24.537-.537v-2.418a.537.537 0 0 0-.537-.537H229.07a3.149 3.149 0 0 0-3.147 3.147v18.703a3.149 3.149 0 0 0 3.147 3.147h12.845a3.493 3.493 0 0 0-3.492-3.492h-8.548v-6.863h10.918c.297 0 .54-.24.54-.537v-2.418a.54.54 0 0 0-.54-.537h-10.918ZM261.062 1620.916v-10.52a.537.537 0 0 0-.538-.537h-2.875c-.297 0-.54.24-.54.537v10.338c0 3.092-1.685 4.287-4.042 4.287-2.298 0-4.198-1.53-4.198-4.043v-10.582a.537.537 0 0 0-.537-.537h-2.878a.537.537 0 0 0-.537.537v19.125a3.864 3.864 0 0 0 3.86-3.672v-.03c1.072 1.685 2.972 2.787 5.392 2.787 3.828 0 6.893-2.94 6.893-7.69M403.114 1620.916v-10.52a.537.537 0 0 0-.537-.537h-2.875c-.298 0-.54.24-.54.537v10.338c0 3.092-1.685 4.287-4.043 4.287-2.297 0-4.197-1.53-4.197-4.043v-10.582a.537.537 0 0 0-.538-.537h-2.875c-.297 0-.54.24-.54.537v19.125a3.864 3.864 0 0 0 3.86-3.672v-.03c1.073 1.685 2.973 2.787 5.393 2.787 3.827 0 6.892-2.94 6.892-7.69M336.33 1620.916v-10.52a.537.537 0 0 0-.537-.537h-2.875c-.298 0-.54.24-.54.537v10.338c0 3.092-1.685 4.287-4.043 4.287-2.297 0-4.197-1.53-4.197-4.043v-10.582a.537.537 0 0 0-.538-.537h-2.875c-.297 0-.54.24-.54.537v19.125a3.864 3.864 0 0 0 3.86-3.672v-.03c1.073 1.685 2.973 2.787 5.393 2.787 3.827 0 6.892-2.94 6.892-7.69M279.748 1628.147l-6.732-17.94a.535.535 0 0 0-.503-.347h-3.512a.533.533 0 0 0-.503.347l-6.732 17.94h.007a5.87 5.87 0 0 0 5.552-3.96l3.448-10.01 3.42 10a5.87 5.87 0 0 0 5.555 3.97M281.525 1632.808a2.326 2.326 0 0 0 2.327 2.328c1.288 0 2.33-1.04 2.33-2.328a2.308 2.308 0 0 0-2.33-2.327 2.308 2.308 0 0 0-2.327 2.327m.367-22.41v17.21c0 .298.243.538.54.538h2.873c.297 0 .54-.24.54-.538v-17.21a.54.54 0 0 0-.54-.54h-2.873a.54.54 0 0 0-.54.54M300.356 1627.723l-.677-2.538c-.078-.29-.375-.442-.665-.37a6.54 6.54 0 0 1-1.59.208c-1.838 0-3.678-1.318-3.678-4.073v-10.552a.537.537 0 0 0-.537-.538h-2.875c-.298 0-.54.24-.54.538v19.122a3.858 3.858 0 0 0 3.855-3.672l.007-.153c.887 1.778 2.357 2.913 4.47 2.913.602 0 1.29-.07 1.855-.223a.54.54 0 0 0 .375-.662M178.729 1627.723l-.678-2.538c-.077-.29-.375-.442-.665-.37a6.54 6.54 0 0 1-1.59.208c-1.837 0-3.677-1.318-3.677-4.073v-10.552a.537.537 0 0 0-.538-.538h-2.875c-.297 0-.54.24-.54.538v19.122a3.858 3.858 0 0 0 3.855-3.672l.005-.153c.89 1.778 2.36 2.913 4.473 2.913.602 0 1.29-.07 1.852-.223a.54.54 0 0 0 .378-.662M300.579 1617.884v2.297c0 5.575 3.952 8.425 8.517 8.425 4.565 0 8.545-2.85 8.545-8.425v-2.297c0-5.608-3.98-8.485-8.545-8.485-4.565 0-8.517 2.877-8.517 8.485m13.112.092v2.082c0 3.34-2.145 4.963-4.595 4.963-2.452 0-4.565-1.623-4.565-4.963v-2.082c0-3.34 2.113-4.993 4.565-4.993 2.45 0 4.595 1.653 4.595 4.993M364.973 1620.916v-10.52a.537.537 0 0 0-.537-.537h-2.875c-.298 0-.54.24-.54.537v10.553c0 3.002-1.5 4.102-3.46 4.102-1.93 0-3.433-1.438-3.433-4.072v-10.583a.537.537 0 0 0-.537-.537h-2.753a.537.537 0 0 0-.537.538v10.552c0 3.063-1.5 4.135-3.433 4.135-1.93 0-3.43-1.225-3.43-4.105v-10.582a.537.537 0 0 0-.537-.538h-2.878a.537.537 0 0 0-.537.538v19.125h.062a3.803 3.803 0 0 0 3.798-3.61c.95 1.562 2.542 2.695 4.717 2.695 2.33 0 4.168-1.195 5.178-3.34 1.042 1.93 3.002 3.34 5.545 3.34 3.615 0 6.187-2.94 6.187-7.69M383.583 1617.579h-12.36c.215-3.125 2.237-4.688 4.535-4.688 1.137 0 2.195.29 3.03.882 1.452 1.028 3.322 1.266 5.027.74-1.072-3.367-4.287-5.114-8.057-5.114-4.535 0-8.395 2.942-8.395 8.7v1.837c0 5.73 3.83 8.67 8.365 8.67 4.595 0 8.392-2.94 8.392-8.76v-1.73a.537.537 0 0 0-.537-.537m-3.353 3.247c0 2.513-1.96 4.32-4.502 4.32-2.238 0-4.135-1.44-4.473-4.32zM195.018 1617.579h-12.36c.215-3.125 2.237-4.688 4.535-4.688 1.137 0 2.195.29 3.03.882 1.452 1.028 3.322 1.266 5.027.74-1.072-3.367-4.29-5.114-8.057-5.114-4.535 0-8.395 2.942-8.395 8.7v1.837c0 5.73 3.83 8.67 8.365 8.67 4.595 0 8.392-2.94 8.392-8.76v-1.73a.537.537 0 0 0-.537-.537m-3.353 3.247c0 2.513-1.96 4.32-4.502 4.32-2.238 0-4.135-1.44-4.473-4.32zM416.507 1610.694a.533.533 0 0 0-.29-.63c-1.06-.45-2.413-.665-3.575-.665-3.185 0-5.208 1.685-5.208 5.022v10.14h-2.495a.539.539 0 0 0-.537.54v2.508c0 .297.24.537.537.537h2.495v4.87a3.92 3.92 0 0 0 3.92-3.92v-.95h3.965c.298 0 .54-.24.54-.537v-2.508a.54.54 0 0 0-.54-.54h-3.965v-9.557c0-1.593.705-2.02 1.87-2.02.74 0 1.35.147 1.975.372.293.105.61-.07.693-.367zM433.106 1621.529v-11.133a.537.537 0 0 0-.538-.537h-2.58a.54.54 0 0 0-.537.495l-.143 1.832c-.982-1.747-2.757-2.787-5.087-2.787h-1.163c-3.31 0-5.822 2.42-5.822 5.88 0 3.247 2.36 5.637 6.802 5.637h5.178v.46c0 2.083-1.258 3.645-3.893 3.645-.802 0-1.502-.162-2.102-.47-1.628-.835-3.495-1.07-5.175-.352l-.135.058c1.377 2.51 4.227 4.35 7.69 4.35 4.257 0 7.505-2.605 7.505-7.078m-8.088-8.515c2.023 0 3.92 1.133 4.198 3.125v1.408h-5.055c-1.993 0-3.033-.888-3.033-2.268 0-1.407 1.103-2.265 2.755-2.265zM213.049 1621.529v-11.133a.537.537 0 0 0-.538-.537h-2.58a.54.54 0 0 0-.537.495l-.143 1.832c-.982-1.747-2.757-2.787-5.085-2.787h-1.165c-3.307 0-5.822 2.42-5.822 5.88 0 3.247 2.36 5.637 6.802 5.637h5.178v.46c0 2.083-1.258 3.645-3.893 3.645-.802 0-1.502-.162-2.102-.47-1.628-.835-3.493-1.07-5.175-.352l-.135.058c1.38 2.51 4.227 4.35 7.69 4.35 4.257 0 7.505-2.605 7.505-7.078m-8.088-8.515c2.023 0 3.92 1.133 4.198 3.125v1.408h-5.055c-1.993 0-3.033-.888-3.033-2.268 0-1.407 1.103-2.265 2.758-2.265zM436.259 1610.397v24.458a3.951 3.951 0 0 0 3.952-3.953v-20.505a.537.537 0 0 0-.537-.538h-2.878a.537.537 0 0 0-.537.538M452.75 1620.182v4.38c0 6.8 4.902 10.753 10.692 10.753 5.237 0 8.945-3.063 10.17-8.088a4.5 4.5 0 0 0-4.98 1.843c-1.12 1.69-2.815 2.57-5.19 2.57-3.708 0-6.74-2.45-6.74-7.293v-3.982c0-4.84 3.032-7.29 6.74-7.29 2.375 0 4.07.88 5.19 2.57a4.503 4.503 0 0 0 4.98 1.842c-1.225-5.025-4.933-8.087-10.17-8.087-5.79 0-10.693 3.92-10.693 10.782M511.568 1620.916v-10.52a.537.537 0 0 0-.538-.537h-2.875c-.297 0-.54.24-.54.537v10.338c0 3.092-1.685 4.287-4.042 4.287-2.298 0-4.198-1.53-4.198-4.043v-10.582a.537.537 0 0 0-.537-.537h-2.875c-.298 0-.54.24-.54.537v19.125a3.864 3.864 0 0 0 3.86-3.672v-.03c1.072 1.685 2.972 2.787 5.392 2.787 3.828 0 6.893-2.94 6.893-7.69M652.949 1620.916v-10.52a.537.537 0 0 0-.538-.537h-2.875c-.297 0-.54.24-.54.537v10.338c0 3.092-1.685 4.287-4.042 4.287-2.298 0-4.198-1.53-4.198-4.043v-10.582a.537.537 0 0 0-.537-.537h-2.875c-.298 0-.54.24-.54.537v19.125a3.864 3.864 0 0 0 3.86-3.672v-.03c1.072 1.685 2.972 2.787 5.392 2.787 3.828 0 6.893-2.94 6.893-7.69M689.504 1620.916v-10.52a.537.537 0 0 0-.537-.537h-2.875c-.298 0-.54.24-.54.537v10.338c0 3.092-1.685 4.287-4.043 4.287-2.297 0-4.197-1.53-4.197-4.043v-10.582a.537.537 0 0 0-.538-.537H673.9c-.297 0-.54.24-.54.537v19.125a3.864 3.864 0 0 0 3.86-3.672v-.03c1.073 1.685 2.973 2.787 5.393 2.787 3.827 0 6.892-2.94 6.892-7.69M579.88 1628.147l-6.733-17.94a.535.535 0 0 0-.502-.347h-3.513a.533.533 0 0 0-.502.347l-6.733 17.94h.008a5.87 5.87 0 0 0 5.553-3.96l3.447-10.01 3.42 10a5.87 5.87 0 0 0 5.555 3.97M560.845 1627.723l-.677-2.538c-.078-.29-.375-.442-.665-.37a6.54 6.54 0 0 1-1.59.208c-1.838 0-3.678-1.318-3.678-4.073v-10.552a.537.537 0 0 0-.537-.538h-2.875c-.298 0-.54.24-.54.538v19.122a3.858 3.858 0 0 0 3.855-3.672l.007-.153c.887 1.778 2.357 2.913 4.472 2.913.6 0 1.288-.07 1.853-.223a.54.54 0 0 0 .375-.662M546.84 1617.579h-12.36c.215-3.125 2.238-4.688 4.535-4.688 1.138 0 2.195.29 3.03.882 1.453 1.028 3.323 1.266 5.028.74-1.073-3.367-4.29-5.114-8.058-5.114-4.535 0-8.395 2.942-8.395 8.7v1.837c0 5.73 3.83 8.67 8.365 8.67 4.595 0 8.393-2.94 8.393-8.76v-1.73a.537.537 0 0 0-.538-.537m-3.352 3.247c0 2.513-1.96 4.32-4.503 4.32-2.237 0-4.137-1.44-4.472-4.32zM789.385 1617.579h-12.36c.217-3.125 2.237-4.688 4.535-4.688 1.137 0 2.195.29 3.03.882 1.452 1.028 3.325 1.266 5.027.74-1.072-3.367-4.287-5.114-8.057-5.114-4.535 0-8.395 2.942-8.395 8.7v1.837c0 5.73 3.83 8.67 8.365 8.67 4.595 0 8.392-2.94 8.392-8.76v-1.73a.537.537 0 0 0-.537-.537m-3.353 3.247c0 2.513-1.96 4.32-4.502 4.32-2.238 0-4.135-1.44-4.473-4.32zM608.776 1610.694a.533.533 0 0 0-.29-.63c-1.06-.45-2.412-.665-3.575-.665-3.185 0-5.207 1.685-5.207 5.022v10.14h-2.495a.539.539 0 0 0-.538.54v2.508c0 .297.24.537.538.537h2.495v4.87a3.922 3.922 0 0 0 3.922-3.92v-.95h3.963c.297 0 .54-.24.54-.537v-2.508a.54.54 0 0 0-.54-.54h-3.963v-9.557c0-1.593.703-2.02 1.868-2.02.74 0 1.35.147 1.975.372.292.105.61-.07.692-.367zM719.716 1610.694a.533.533 0 0 0-.29-.63c-1.06-.45-2.413-.665-3.575-.665-3.186 0-5.208 1.685-5.208 5.022v10.14h-2.495a.539.539 0 0 0-.538.54v2.508c0 .297.24.537.538.537h2.495v4.87a3.922 3.922 0 0 0 3.923-3.92v-.95h3.962c.298 0 .54-.24.54-.537v-2.508a.54.54 0 0 0-.54-.54h-3.962v-9.557c0-1.593.702-2.02 1.867-2.02.74 0 1.35.147 1.975.372.293.105.61-.07.693-.367zM772.333 1610.694a.533.533 0 0 0-.29-.63c-1.06-.45-2.413-.665-3.575-.665-3.185 0-5.208 1.685-5.208 5.022v10.14h-2.495a.539.539 0 0 0-.537.54v2.508c0 .297.24.537.537.537h2.495v4.87a3.922 3.922 0 0 0 3.923-3.92v-.95h3.962c.298 0 .54-.24.54-.537v-2.508a.54.54 0 0 0-.54-.54h-3.962v-9.557c0-1.593.702-2.02 1.867-2.02.74 0 1.35.147 1.975.372a.535.535 0 0 0 .693-.367zM740.486 1610.694a.533.533 0 0 0-.29-.63c-1.06-.45-2.413-.665-3.575-.665-3.185 0-5.208 1.685-5.208 5.022v10.14h-2.495a.539.539 0 0 0-.537.54v2.508c0 .297.24.537.537.537h2.495v4.87a3.922 3.922 0 0 0 3.923-3.92v-.95h3.962c.298 0 .54-.24.54-.537v-2.508a.54.54 0 0 0-.54-.54h-3.962v-9.557c0-1.593.702-2.02 1.867-2.02.74 0 1.35.147 1.975.372.293.105.61-.07.693-.367zM595.26 1621.529v-11.133a.537.537 0 0 0-.537-.537h-2.58a.54.54 0 0 0-.537.495l-.143 1.832c-.982-1.747-2.757-2.787-5.085-2.787h-1.165c-3.307 0-5.822 2.42-5.822 5.88 0 3.247 2.36 5.637 6.802 5.637h5.178v.46c0 2.083-1.258 3.645-3.893 3.645-.802 0-1.502-.162-2.102-.47-1.628-.835-3.493-1.07-5.175-.352l-.135.058c1.38 2.51 4.227 4.35 7.69 4.35 4.257 0 7.505-2.605 7.505-7.078m-8.088-8.515c2.023 0 3.92 1.133 4.198 3.125v1.408h-5.055c-1.993 0-3.033-.888-3.033-2.268 0-1.407 1.103-2.265 2.758-2.265zM475.51 1617.884v2.297c0 5.575 3.952 8.425 8.517 8.425 4.565 0 8.545-2.85 8.545-8.425v-2.297c0-5.608-3.98-8.485-8.545-8.485-4.565 0-8.518 2.877-8.518 8.485m13.113.092v2.082c0 3.34-2.145 4.963-4.595 4.963-2.45 0-4.565-1.623-4.565-4.963v-2.082c0-3.34 2.115-4.993 4.565-4.993s4.595 1.653 4.595 4.993M513.047 1613.787c1.498 1.008 3.435.96 4.948-.03a6.368 6.368 0 0 1 3.467-1.018c1.808 0 3.43.613 3.43 2.053 0 1.408-1.225 1.928-2.88 2.358l-2.145.552c-2.817.703-5.542 2.143-5.542 5.605 0 3.463 2.88 5.3 6.707 5.3 3.646 0 6.006-1.655 7.568-3.925-1.407-1.042-3.333-1.207-4.813-.272-.872.55-1.83.86-2.815.86-1.777 0-2.85-.738-2.85-1.963 0-1.255.858-1.837 2.513-2.297l2.113-.52c2.82-.705 5.945-2.053 5.945-5.698 0-3.707-3.555-5.392-7.323-5.392-3.705 0-6.74 1.502-8.333 4.38zM690.985 1613.787c1.497 1.008 3.435.96 4.947-.03a6.368 6.368 0 0 1 3.468-1.018c1.807 0 3.43.613 3.43 2.053 0 1.408-1.225 1.928-2.88 2.358l-2.145.552c-2.818.703-5.543 2.143-5.543 5.605 0 3.463 2.88 5.3 6.708 5.3 3.645 0 6.005-1.655 7.567-3.925-1.405-1.042-3.332-1.207-4.812-.272-.873.55-1.83.86-2.815.86-1.778 0-2.85-.738-2.85-1.963 0-1.255.857-1.837 2.512-2.297l2.113-.52c2.82-.705 5.945-2.053 5.945-5.698 0-3.707-3.555-5.392-7.323-5.392-3.705 0-6.74 1.502-8.332 4.38zM610.607 1632.808a2.326 2.326 0 0 0 2.328 2.328c1.287 0 2.33-1.04 2.33-2.328a2.308 2.308 0 0 0-2.33-2.327 2.308 2.308 0 0 0-2.328 2.327m.368-22.41v17.21c0 .298.242.538.54.538h2.872c.298 0 .54-.24.54-.538v-17.21a.54.54 0 0 0-.54-.54h-2.872a.54.54 0 0 0-.54.54M721.671 1632.808a2.326 2.326 0 0 0 2.328 2.328c1.287 0 2.33-1.04 2.33-2.328a2.308 2.308 0 0 0-2.33-2.327 2.308 2.308 0 0 0-2.328 2.327m.368-22.41v17.21c0 .298.24.538.537.538h2.875c.298 0 .54-.24.54-.538v-17.21a.54.54 0 0 0-.54-.54h-2.875a.539.539 0 0 0-.537.54M617.654 1617.884v2.297c0 5.575 3.952 8.425 8.517 8.425 4.565 0 8.545-2.85 8.545-8.425v-2.297c0-5.608-3.98-8.485-8.545-8.485-4.565 0-8.518 2.877-8.518 8.485m13.113.092v2.082c0 3.34-2.145 4.963-4.595 4.963-2.452 0-4.565-1.623-4.565-4.963v-2.082c0-3.34 2.113-4.993 4.565-4.993 2.45 0 4.595 1.653 4.595 4.993M665.824 1609.859v24.997a3.953 3.953 0 0 0 3.952-3.952v-21.045zM758.125 1628.147v-17.75a.537.537 0 0 0-.538-.537h-2.64a.537.537 0 0 0-.537.495l-.145 1.832c-1.103-1.655-2.97-2.787-5.39-2.787-3.83 0-6.893 2.94-6.893 7.72v11.027c2.18 0 3.95-1.77 3.95-3.952v-6.923c0-3.095 1.685-4.287 4.015-4.287 2.295 0 4.225 1.56 4.225 4.042v7.168a3.953 3.953 0 0 0 3.953 3.952" style="fill:#4a4a49;fill-opacity:1;fill-rule:nonzero;stroke:none;stroke-width:2.50001" transform="matrix(1.33333 0 0 -1.33333 -156.017 2645.865)"/></svg>