<svg xmlns="http://www.w3.org/2000/svg" width="1182.2817mm" height="200mm" viewBox="0 0 1182.2817 200"><g style="fill:#003c68;fill-opacity:1"><path d="M0 0h1.722v-3.689L4.821 0h2.116l-3.53-4.046 3.677-4.538H4.833L1.747-4.6h-.025v-3.984H0Z" style="fill:#003c68;fill-opacity:1;fill-rule:nonzero;stroke:none" transform="matrix(2.55904 0 0 -2.55904 481.951 171.424)"/></g><g style="fill:#003c68;fill-opacity:1"><path d="M0 0c1.267 0 1.599 1.131 1.599 2.189 0 .972-.516 1.882-1.599 1.882-1.07 0-1.586-.935-1.586-1.882C-1.586 1.144-1.254 0 0 0m0 5.35c1.882 0 3.321-1.267 3.321-3.357C3.321.172 2.103-1.279 0-1.279c-2.091 0-3.308 1.451-3.308 3.272 0 2.09 1.439 3.357 3.308 3.357" style="fill:#003c68;fill-opacity:1;fill-rule:nonzero;stroke:none" transform="matrix(2.55904 0 0 -2.55904 508.734 190.496)"/></g><g style="fill:#003c68;fill-opacity:1"><path d="M0 0h1.464v-1.439h.024c.074.59.751 1.586 1.735 1.586.159 0 .332 0 .504-.049v-1.66c-.148.086-.443.135-.738.135-1.341 0-1.341-1.673-1.341-2.583v-2.324H0Z" style="fill:#003c68;fill-opacity:1;fill-rule:nonzero;stroke:none" transform="matrix(2.55904 0 0 -2.55904 519.37 177.183)"/></g><g style="fill:#003c68;fill-opacity:1"><path d="M0 0c-.049.799-.418 1.488-1.341 1.488-.922 0-1.389-.639-1.463-1.488Zm1.106-3.432c-.602-.332-1.291-.504-2.176-.504-2.091 0-3.308 1.206-3.308 3.284 0 1.833.971 3.345 2.939 3.345 2.349 0 3.013-1.611 3.013-3.825h-4.378c.074-1.02.787-1.598 1.807-1.598.8 0 1.489.295 2.103.639z" style="fill:#003c68;fill-opacity:1;fill-rule:nonzero;stroke:none" transform="matrix(2.55904 0 0 -2.55904 539.86 183.698)"/></g><g style="fill:#003c68;fill-opacity:1"><path d="M0 0c.504 0 .897.222 1.156.566.27.356.344.811.344 1.304H.787c-.738 0-1.832-.123-1.832-1.095C-1.045.234-.59 0 0 0m-1.931 4.944c.639.295 1.5.48 2.202.48C2.201 5.424 3 4.625 3 2.755v-.812c0-.639.013-1.119.025-1.586.013-.48.037-.922.074-1.415H1.648c-.062.332-.062.75-.074.947h-.025C1.168-.812.344-1.205-.406-1.205c-1.119 0-2.214.676-2.214 1.881 0 .948.455 1.501 1.082 1.808.628.308 1.439.37 2.128.37h.91c0 1.02-.455 1.364-1.426 1.364-.701 0-1.403-.27-1.956-.688z" style="fill:#003c68;fill-opacity:1;fill-rule:nonzero;stroke:none" transform="matrix(2.55904 0 0 -2.55904 551.598 190.685)"/></g><g style="fill:#003c68;fill-opacity:1"><path d="M0 0h1.722v-7.231h3.333v-1.353H0Z" style="fill:#003c68;fill-opacity:1;fill-rule:nonzero;stroke:none" transform="matrix(2.55904 0 0 -2.55904 570.038 171.424)"/></g><g style="fill:#003c68;fill-opacity:1"><path d="M0 0a1.4 1.4 0 0 1 1.156.566c.272.356.344.811.344 1.304H.787c-.737 0-1.833-.123-1.833-1.095C-1.046.234-.591 0 0 0m-1.931 4.944c.64.295 1.5.48 2.202.48 1.93 0 2.73-.799 2.73-2.669v-.812c0-.639.013-1.119.024-1.586.012-.48.038-.922.075-1.415H1.647c-.06.332-.06.75-.073.947h-.023C1.169-.812.345-1.205-.405-1.205c-1.119 0-2.214.676-2.214 1.881 0 .948.454 1.501 1.083 1.808.627.308 1.437.37 2.127.37H1.5c0 1.02-.454 1.364-1.427 1.364-.7 0-1.4-.27-1.955-.688z" style="fill:#003c68;fill-opacity:1;fill-rule:nonzero;stroke:none" transform="matrix(2.55904 0 0 -2.55904 589.802 190.685)"/></g><g style="fill:#003c68;fill-opacity:1"><path d="M0 0h1.562v-.861h.025C2.103-.136 2.804.147 3.664.147c1.5 0 2.152-1.057 2.152-2.484v-3.997H4.169v3.382c0 .775-.013 1.82-1.069 1.82-1.195 0-1.453-1.291-1.453-2.103v-3.099H0Z" style="fill:#003c68;fill-opacity:1;fill-rule:nonzero;stroke:none" transform="matrix(2.55904 0 0 -2.55904 600.378 177.183)"/></g><g style="fill:#003c68;fill-opacity:1"><path d="M0 0c1.095 0 1.451 1.156 1.451 2.054 0 .885-.419 2.017-1.475 2.017-1.071 0-1.366-1.168-1.366-2.017C-1.39 1.181-1.082 0 0 0m1.514-.418h-.027C.996-1.033.319-1.279-.454-1.279c-1.943 0-2.657 1.599-2.657 3.333 0 1.746.714 3.296 2.657 3.296.822 0 1.4-.283 1.892-.886h.026v3.629h1.647v-9.224H1.514Z" style="fill:#003c68;fill-opacity:1;fill-rule:nonzero;stroke:none" transform="matrix(2.55904 0 0 -2.55904 625.271 190.496)"/></g><g style="fill:#003c68;fill-opacity:1"><path d="M0 0a1.4 1.4 0 0 1 1.156.566c.272.356.344.811.344 1.304H.787c-.737 0-1.833-.123-1.833-1.095C-1.046.234-.591 0 0 0m-1.931 4.944c.639.295 1.5.48 2.202.48 1.93 0 2.73-.799 2.73-2.669v-.812c0-.639.013-1.119.024-1.586.013-.48.038-.922.075-1.415H1.647c-.06.332-.06.75-.073.947h-.023C1.168-.812.345-1.205-.405-1.205c-1.119 0-2.214.676-2.214 1.881 0 .948.455 1.501 1.083 1.808.627.308 1.437.37 2.127.37H1.5c0 1.02-.454 1.364-1.427 1.364-.7 0-1.4-.27-1.955-.688z" style="fill:#003c68;fill-opacity:1;fill-rule:nonzero;stroke:none" transform="matrix(2.55904 0 0 -2.55904 649.472 190.685)"/></g><g style="fill:#003c68;fill-opacity:1"><path d="M0 0h1.562v-.861h.025C2.104-.136 2.804.147 3.664.147c1.5 0 2.152-1.057 2.152-2.484v-3.997H4.169v3.382c0 .775-.013 1.82-1.069 1.82-1.195 0-1.453-1.291-1.453-2.103v-3.099H0Z" style="fill:#003c68;fill-opacity:1;fill-rule:nonzero;stroke:none" transform="matrix(2.55904 0 0 -2.55904 660.048 177.183)"/></g><g style="fill:#003c68;fill-opacity:1"><path d="M0 0c1.095 0 1.451 1.156 1.451 2.054 0 .885-.419 2.017-1.475 2.017-1.071 0-1.366-1.168-1.366-2.017C-1.39 1.181-1.082 0 0 0m1.514-.418h-.027C.996-1.033.319-1.279-.454-1.279c-1.943 0-2.657 1.599-2.657 3.333 0 1.746.714 3.296 2.657 3.296.822 0 1.4-.283 1.892-.886h.026v3.629h1.647v-9.224H1.514Z" style="fill:#003c68;fill-opacity:1;fill-rule:nonzero;stroke:none" transform="matrix(2.55904 0 0 -2.55904 684.939 190.496)"/></g><g style="fill:#003c68;fill-opacity:1"><path d="M0 0c-.664.307-1.524.455-2.214.455-2.005 0-3.11-1.353-3.11-3.112 0-1.746 1.082-3.062 2.914-3.062.468 0 .837.049 1.132.123v2.238H-3.1v1.353H.368v-4.624c-.909-.246-1.855-.443-2.778-.443-2.779 0-4.71 1.39-4.71 4.292 0 2.94 1.796 4.588 4.71 4.588.995 0 1.782-.136 2.52-.357z" style="fill:#003c68;fill-opacity:1;fill-rule:nonzero;stroke:none" transform="matrix(2.55904 0 0 -2.55904 721.005 175.672)"/></g><g style="fill:#003c68;fill-opacity:1"><path d="M0 0c-.05.799-.418 1.488-1.341 1.488S-2.729.849-2.805 0Zm1.106-3.432c-.601-.332-1.291-.504-2.175-.504-2.091 0-3.31 1.206-3.31 3.284 0 1.833.973 3.345 2.941 3.345 2.348 0 3.012-1.611 3.012-3.825h-4.379c.076-1.02.787-1.598 1.81-1.598.799 0 1.487.295 2.101.639z" style="fill:#003c68;fill-opacity:1;fill-rule:nonzero;stroke:none" transform="matrix(2.55904 0 0 -2.55904 735.102 183.698)"/></g><g style="fill:#003c68;fill-opacity:1"><path d="M0 0c1.268 0 1.6 1.131 1.6 2.189 0 .972-.518 1.882-1.6 1.882-1.069 0-1.587-.935-1.587-1.882C-1.587 1.144-1.254 0 0 0m0 5.35c1.883 0 3.32-1.267 3.32-3.357C3.32.172 2.104-1.279 0-1.279c-2.091 0-3.309 1.451-3.309 3.272 0 2.09 1.441 3.357 3.309 3.357" style="fill:#003c68;fill-opacity:1;fill-rule:nonzero;stroke:none" transform="matrix(2.55904 0 0 -2.55904 748.605 190.496)"/></g><g style="fill:#003c68;fill-opacity:1"><path d="M0 0c-.505.172-.874.271-1.477.271-.442 0-.97-.16-.97-.701 0-1.009 2.865-.369 2.865-2.657 0-1.476-1.315-2.066-2.655-2.066-.628 0-1.269.111-1.87.271l.097 1.352c.518-.258 1.059-.418 1.623-.418.419 0 1.083.16 1.083.775 0 1.242-2.866.394-2.866 2.681 0 1.366 1.193 1.968 2.484 1.968.777 0 1.281-.123 1.796-.234z" style="fill:#003c68;fill-opacity:1;fill-rule:nonzero;stroke:none" transform="matrix(2.55904 0 0 -2.55904 768.777 180.583)"/></g><g style="fill:#003c68;fill-opacity:1"><path d="M0 0c0-.898.355-2.054 1.45-2.054 1.082 0 1.391 1.18 1.391 2.054 0 .849-.295 2.017-1.365 2.017C.418 2.017 0 .885 0 0m-1.66 3.148h1.573V2.25h.024c.371.615.998 1.046 1.968 1.046 1.945 0 2.658-1.55 2.658-3.296 0-1.734-.713-3.333-2.695-3.333-.699 0-1.277.172-1.855.873h-.026v-3.308H-1.66Z" style="fill:#003c68;fill-opacity:1;fill-rule:nonzero;stroke:none" transform="matrix(2.55904 0 0 -2.55904 776.112 185.24)"/></g><g style="fill:#003c68;fill-opacity:1"><path d="M0 0a1.4 1.4 0 0 1 1.156.566c.272.356.344.811.344 1.304H.787c-.737 0-1.833-.123-1.833-1.095C-1.046.234-.591 0 0 0m-1.931 4.944c.64.295 1.5.48 2.202.48 1.93 0 2.73-.799 2.73-2.669v-.812c0-.639.013-1.119.024-1.586.012-.48.038-.922.075-1.415H1.647c-.06.332-.06.75-.073.947h-.023C1.169-.812.345-1.205-.405-1.205c-1.119 0-2.214.676-2.214 1.881 0 .948.454 1.501 1.083 1.808.627.308 1.437.37 2.127.37H1.5c0 1.02-.454 1.364-1.427 1.364-.7 0-1.4-.27-1.955-.688z" style="fill:#003c68;fill-opacity:1;fill-rule:nonzero;stroke:none" transform="matrix(2.55904 0 0 -2.55904 795.495 190.685)"/></g><g style="fill:#003c68;fill-opacity:1"><path d="M0 0h-1.218v1.206H0v1.266l1.648.529V1.206h1.463V0H1.648v-2.952c0-.541.149-1.045.776-1.045.295 0 .578.061.75.172l.05-1.303c-.345-.099-.727-.148-1.218-.148C.715-5.276 0-4.477 0-3.222Z" style="fill:#003c68;fill-opacity:1;fill-rule:nonzero;stroke:none" transform="matrix(2.55904 0 0 -2.55904 807.452 180.268)"/></g><path d="M108.267-159.313h1.942v7.467h-1.942zm0-3.22h1.942v1.857h-1.942z" style="fill:#003c68;fill-opacity:1;fill-rule:nonzero;stroke:none;stroke-width:1.17901" transform="matrix(2.1705 0 0 2.1705 582.154 522.973)"/><g style="fill:#003c68;fill-opacity:1"><path d="M0 0a1.4 1.4 0 0 1 1.155.566c.272.356.345.811.345 1.304H.786c-.737 0-1.833-.123-1.833-1.095C-1.047.234-.592 0 0 0m-1.932 4.944c.641.295 1.5.48 2.203.48C2.2 5.424 3 4.625 3 2.755v-.812c0-.639.013-1.119.024-1.586.012-.48.039-.922.075-1.415H1.646c-.06.332-.06.75-.073.947H1.55C1.168-.812.344-1.205-.406-1.205c-1.119 0-2.214.676-2.214 1.881 0 .948.455 1.501 1.083 1.808.627.308 1.437.37 2.127.37h.91c0 1.02-.455 1.364-1.428 1.364-.7 0-1.4-.27-1.955-.688z" style="fill:#003c68;fill-opacity:1;fill-rule:nonzero;stroke:none" transform="matrix(2.55904 0 0 -2.55904 830.209 190.685)"/></g><path d="M119.2-162.72h1.942v10.874H119.2zM126.058-161.967h2.031v10.12h-2.031z" style="fill:#003c68;fill-opacity:1;fill-rule:nonzero;stroke:none;stroke-width:1.17901" transform="matrix(2.1705 0 0 2.1705 582.154 522.973)"/><g style="fill:#003c68;fill-opacity:1"><path d="M0 0h1.562v-.861h.025C2.103-.136 2.804.147 3.664.147c1.5 0 2.152-1.057 2.152-2.484v-3.997H4.169v3.382c0 .775-.013 1.82-1.069 1.82-1.195 0-1.453-1.291-1.453-2.103v-3.099H0Z" style="fill:#003c68;fill-opacity:1;fill-rule:nonzero;stroke:none" transform="matrix(2.55904 0 0 -2.55904 863.254 177.183)"/></g><g style="fill:#003c68;fill-opacity:1"><path d="M0 0h-1.219v1.206H0v.885c0 1.266.714 2.152 2.017 2.152a5.82 5.82 0 0 0 1.206-.135l-.136-1.365c-.149.086-.358.221-.713.221-.555 0-.727-.48-.727-.971v-.787h1.44V0h-1.44v-5.128H0Z" style="fill:#003c68;fill-opacity:1;fill-rule:nonzero;stroke:none" transform="matrix(2.55904 0 0 -2.55904 882.767 180.268)"/></g><g style="fill:#003c68;fill-opacity:1"><path d="M0 0c1.267 0 1.599 1.131 1.599 2.189 0 .972-.518 1.882-1.599 1.882-1.07 0-1.588-.935-1.588-1.882C-1.588 1.144-1.255 0 0 0m0 5.35c1.882 0 3.319-1.267 3.319-3.357C3.319.172 2.104-1.279 0-1.279c-2.092 0-3.31 1.451-3.31 3.272 0 2.09 1.441 3.357 3.31 3.357" style="fill:#003c68;fill-opacity:1;fill-rule:nonzero;stroke:none" transform="matrix(2.55904 0 0 -2.55904 899.635 190.496)"/></g><g style="fill:#003c68;fill-opacity:1"><path d="M0 0h1.464v-1.439h.024c.075.59.75 1.586 1.735 1.586.16 0 .332 0 .505-.049v-1.66c-.149.086-.445.135-.74.135-1.341 0-1.341-1.673-1.341-2.583v-2.324H0Z" style="fill:#003c68;fill-opacity:1;fill-rule:nonzero;stroke:none" transform="matrix(2.55904 0 0 -2.55904 910.269 177.183)"/></g><g style="fill:#003c68;fill-opacity:1"><path d="M0 0h1.537v-.886h.026C2.078-.111 2.828.147 3.443.147c.886 0 1.513-.332 1.87-1.119C5.694-.209 6.519.147 7.294.147c1.56 0 2.005-1.07 2.005-2.484v-3.997h-1.65v3.776c0 .59 0 1.426-.947 1.426-1.094 0-1.228-1.304-1.228-2.127v-3.075h-1.65v3.776c0 .59 0 1.426-.945 1.426-1.096 0-1.232-1.304-1.232-2.127v-3.075H0Z" style="fill:#003c68;fill-opacity:1;fill-rule:nonzero;stroke:none" transform="matrix(2.55904 0 0 -2.55904 921.095 177.183)"/></g><g style="fill:#003c68;fill-opacity:1"><path d="M0 0a1.4 1.4 0 0 1 1.156.566c.272.356.344.811.344 1.304H.787c-.737 0-1.833-.123-1.833-1.095C-1.046.234-.591 0 0 0m-1.931 4.944c.639.295 1.5.48 2.202.48 1.93 0 2.731-.799 2.731-2.669v-.812c0-.639.012-1.119.023-1.586.013-.48.038-.922.075-1.415H1.647c-.06.332-.06.75-.073.947h-.023C1.169-.812.345-1.205-.405-1.205c-1.119 0-2.214.676-2.214 1.881 0 .948.455 1.501 1.083 1.808.627.308 1.437.37 2.127.37H1.5c0 1.02-.454 1.364-1.427 1.364-.7 0-1.4-.27-1.955-.688z" style="fill:#003c68;fill-opacity:1;fill-rule:nonzero;stroke:none" transform="matrix(2.55904 0 0 -2.55904 953.543 190.685)"/></g><g style="fill:#003c68;fill-opacity:1"><path d="M0 0h-1.218v1.206H0v1.266l1.648.529V1.206h1.463V0H1.648v-2.952c0-.541.149-1.045.776-1.045.295 0 .577.061.75.172l.05-1.303c-.345-.099-.727-.148-1.218-.148C.715-5.276 0-4.477 0-3.222Z" style="fill:#003c68;fill-opacity:1;fill-rule:nonzero;stroke:none" transform="matrix(2.55904 0 0 -2.55904 965.5 180.268)"/></g><path d="M181.084-159.313h1.941v7.467h-1.941zm0-3.22h1.941v1.857h-1.941z" style="fill:#003c68;fill-opacity:1;fill-rule:nonzero;stroke:none;stroke-width:1.17901" transform="matrix(2.1705 0 0 2.1705 582.154 522.973)"/><g style="fill:#003c68;fill-opacity:1"><path d="m0 0-2.559 4.12h1.995l1.793-3.062L3.063 4.12h1.844L2.324 0l2.818-4.464H3.111L1.133-1.119-.872-4.464h-1.943z" style="fill:#003c68;fill-opacity:1;fill-rule:nonzero;stroke:none" transform="matrix(2.55904 0 0 -2.55904 987.94 181.967)"/></g><g style="fill:#003c68;fill-opacity:1"><path d="M0 0c-.629-.147-1.305-.271-1.956-.271-2.779 0-4.71 1.39-4.71 4.292 0 2.94 1.796 4.588 4.71 4.588.565 0 1.315-.111 1.942-.357l-.123-1.451c-.65.369-1.242.455-1.855.455-1.773 0-2.878-1.353-2.878-3.111 0-1.747 1.082-3.063 2.914-3.063.677 0 1.477.148 1.882.357z" style="fill:#003c68;fill-opacity:1;fill-rule:nonzero;stroke:none" transform="matrix(2.55904 0 0 -2.55904 1026.18 193.077)"/></g><g style="fill:#003c68;fill-opacity:1"><path d="M0 0c1.267 0 1.599 1.131 1.599 2.189 0 .972-.518 1.882-1.599 1.882-1.07 0-1.587-.935-1.587-1.882C-1.587 1.144-1.255 0 0 0m0 5.35c1.882 0 3.319-1.267 3.319-3.357C3.319.172 2.104-1.279 0-1.279c-2.092 0-3.31 1.451-3.31 3.272 0 2.09 1.441 3.357 3.31 3.357" style="fill:#003c68;fill-opacity:1;fill-rule:nonzero;stroke:none" transform="matrix(2.55904 0 0 -2.55904 1035.212 190.496)"/></g><g style="fill:#003c68;fill-opacity:1"><path d="M0 0h1.464v-1.439h.024c.075.59.75 1.586 1.735 1.586.16 0 .332 0 .505-.049v-1.66c-.149.086-.445.135-.74.135-1.341 0-1.341-1.673-1.341-2.583v-2.324H0Z" style="fill:#003c68;fill-opacity:1;fill-rule:nonzero;stroke:none" transform="matrix(2.55904 0 0 -2.55904 1045.845 177.183)"/></g><g style="fill:#003c68;fill-opacity:1"><path d="M0 0c0-.898.355-2.054 1.45-2.054 1.082 0 1.391 1.18 1.391 2.054 0 .849-.295 2.017-1.365 2.017C.418 2.017 0 .885 0 0m-1.66 3.148h1.573V2.25h.024c.371.615.998 1.046 1.968 1.046 1.945 0 2.658-1.55 2.658-3.296 0-1.734-.713-3.333-2.695-3.333-.699 0-1.277.172-1.855.873h-.026v-3.308H-1.66Z" style="fill:#003c68;fill-opacity:1;fill-rule:nonzero;stroke:none" transform="matrix(2.55904 0 0 -2.55904 1060.985 185.24)"/></g><g style="fill:#003c68;fill-opacity:1"><path d="M0 0c1.267 0 1.599 1.131 1.599 2.189 0 .972-.518 1.882-1.599 1.882-1.07 0-1.587-.935-1.587-1.882C-1.587 1.144-1.255 0 0 0m0 5.35c1.882 0 3.319-1.267 3.319-3.357C3.319.172 2.104-1.279 0-1.279c-2.092 0-3.31 1.451-3.31 3.272 0 2.09 1.441 3.357 3.31 3.357" style="fill:#003c68;fill-opacity:1;fill-rule:nonzero;stroke:none" transform="matrix(2.55904 0 0 -2.55904 1082.134 190.496)"/></g><g style="fill:#003c68;fill-opacity:1"><path d="M0 0h1.463v-1.439h.024c.075.59.75 1.586 1.735 1.586.16 0 .332 0 .505-.049v-1.66c-.149.086-.445.135-.74.135-1.341 0-1.341-1.673-1.341-2.583v-2.324H0Z" style="fill:#003c68;fill-opacity:1;fill-rule:nonzero;stroke:none" transform="matrix(2.55904 0 0 -2.55904 1092.77 177.183)"/></g><g style="fill:#003c68;fill-opacity:1"><path d="M0 0a1.4 1.4 0 0 1 1.155.566c.272.356.345.811.345 1.304H.786c-.737 0-1.833-.123-1.833-1.095C-1.047.234-.592 0 0 0m-1.932 4.944c.641.295 1.5.48 2.203.48C2.2 5.424 3 4.625 3 2.755v-.812c0-.639.013-1.119.024-1.586.012-.48.039-.922.075-1.415H1.646c-.06.332-.06.75-.073.947H1.55C1.168-.812.344-1.205-.406-1.205c-1.119 0-2.214.676-2.214 1.881 0 .948.455 1.501 1.083 1.808.627.308 1.437.37 2.127.37h.91c0 1.02-.455 1.364-1.428 1.364-.7 0-1.4-.27-1.955-.688z" style="fill:#003c68;fill-opacity:1;fill-rule:nonzero;stroke:none" transform="matrix(2.55904 0 0 -2.55904 1109.324 190.685)"/></g><g style="fill:#003c68;fill-opacity:1"><path d="M0 0h-1.219v1.206H0v1.266l1.647.529V1.206H3.11V0H1.647v-2.952c0-.541.149-1.045.776-1.045.295 0 .578.061.75.172l.05-1.303c-.345-.099-.727-.148-1.218-.148C.714-5.276 0-4.477 0-3.222Z" style="fill:#003c68;fill-opacity:1;fill-rule:nonzero;stroke:none" transform="matrix(2.55904 0 0 -2.55904 1121.282 180.268)"/></g><path d="M252.855-159.313h1.941v7.467h-1.941zm0-3.22h1.941v1.857h-1.941z" style="fill:#003c68;fill-opacity:1;fill-rule:nonzero;stroke:none;stroke-width:1.17901" transform="matrix(2.1705 0 0 2.1705 582.154 522.973)"/><g style="fill:#003c68;fill-opacity:1"><path d="M0 0c1.267 0 1.599 1.131 1.599 2.189 0 .972-.518 1.882-1.599 1.882-1.07 0-1.587-.935-1.587-1.882C-1.587 1.144-1.255 0 0 0m0 5.35c1.882 0 3.319-1.267 3.319-3.357C3.319.172 2.104-1.279 0-1.279c-2.092 0-3.31 1.451-3.31 3.272 0 2.09 1.441 3.357 3.31 3.357" style="fill:#003c68;fill-opacity:1;fill-rule:nonzero;stroke:none" transform="matrix(2.55904 0 0 -2.55904 1145.8 190.496)"/></g><g style="fill:#003c68;fill-opacity:1"><path d="M0 0h1.562v-.861h.025C2.104-.136 2.804.147 3.664.147c1.5 0 2.152-1.057 2.152-2.484v-3.997H4.169v3.382c0 .775-.013 1.82-1.069 1.82-1.195 0-1.453-1.291-1.453-2.103v-3.099H0Z" style="fill:#003c68;fill-opacity:1;fill-rule:nonzero;stroke:none" transform="matrix(2.55904 0 0 -2.55904 1156.341 177.183)"/></g><g style="fill:#009982;fill-opacity:1"><path d="M0 0a42.482 42.482 0 0 1-3.311 3.26 42.263 42.263 0 0 1 2.208 2.333l28.418 34.511H3.007l-16.33-19.881c-4.457-5.367-7.159-7.669-12.02-7.669-4.865 0-7.566 2.302-12.02 7.669l-16.332 19.881-24.308.006 28.425-34.517a42.281 42.281 0 0 1 2.303-2.429A42.78 42.78 0 0 1-50.473 0l-14.502-16.774h-28.702c-16.526 0-26.79 9.894-26.79 25.818V39.16h-21.367V9.044c0-35.462 25.488-44.596 47.196-44.596h35.144c2.712 0 4.191.593 5.605 2.285l16.135 18.714c4.64 5.339 7.452 7.624 12.518 7.624 5.057 0 7.875-2.285 12.512-7.624L5.323-35.537H30.68Z" style="fill:#009982;fill-opacity:1;fill-rule:nonzero;stroke:none" transform="matrix(2.55904 0 0 -2.55904 362.958 102.643)"/></g><g style="fill:#003c68;fill-opacity:1"><path d="M0 0c.278 1.134.424 2.18.424 3.147v7.738h-22.368V7.651h17.198V3.018c0-.993-.045-1.971-.129-2.932-.096-.961-.283-1.809-.582-2.545H-25.34v-3.237h11.837v-5.06h-9.259v-3.232h18.85v-10.107h5.169v13.339h-9.578v5.06H6.341v3.237h-7.377C-.629-1.953-.276-1.136 0 0" style="fill:#003c68;fill-opacity:1;fill-rule:nonzero;stroke:none" transform="matrix(2.55904 0 0 -2.55904 645.588 90.496)"/></g><g style="fill:#003c68;fill-opacity:1"><path d="M0 0c.277 1.134.423 2.18.423 3.147v7.738h-22.368V7.651h17.198V3.018c0-.993-.041-1.971-.135-2.932-.083-.961-.278-1.809-.572-2.545h-19.889v-3.237h11.83v-5.06h-9.254v-3.232h18.852v-10.107h5.172v13.339h-9.584v5.06H6.344v3.237h-7.383C-.629-1.953-.284-1.136 0 0" style="fill:#003c68;fill-opacity:1;fill-rule:nonzero;stroke:none" transform="matrix(2.55904 0 0 -2.55904 738.173 90.496)"/></g><g style="fill:#003c68;fill-opacity:1"><path d="M0 0v13.962h5.168V.594c0-1.353-.401-2.141-1.128-2.767-.708-.602-1.731-.957-3.005-.957h-13.997c-1.275 0-2.305.355-3.011.957-.725.626-1.131 1.414-1.131 2.767v13.368h5.169V0Z" style="fill:#003c68;fill-opacity:1;fill-rule:nonzero;stroke:none" transform="matrix(2.55904 0 0 -2.55904 984.046 98.62)"/></g><g style="fill:#003c68;fill-opacity:1"><path d="M0 0v3.234h-21.655v-13.465c0-1.133.369-2.056 1.125-2.768.75-.7 1.762-1.059 3.031-1.059H0v3.232h-16.494v3.979H-.567v3.232h-15.927V0Z" style="fill:#003c68;fill-opacity:1;fill-rule:nonzero;stroke:none" transform="matrix(2.55904 0 0 -2.55904 825.566 70.916)"/></g><path d="M167.233-201.909h21.79v-3.808h-21.79z" style="fill:#003c68;fill-opacity:1;fill-rule:nonzero;stroke:none;stroke-width:1.17901" transform="matrix(2.1705 0 0 2.1705 582.154 522.973)"/><g style="fill:#003c68;fill-opacity:1"><path d="M0 0c0-1.023-.06-2.008-.159-2.955-.105-.946-.312-1.794-.637-2.527h4.371c.408.421.781 1.212 1.107 2.358.317 1.145.482 2.242.482 3.293v7.053h-22.35V3.954H0Z" style="fill:#003c68;fill-opacity:1;fill-rule:nonzero;stroke:none" transform="matrix(2.55904 0 0 -2.55904 1064.946 81.28)"/></g><g style="fill:#003c68;fill-opacity:1"><path d="M0 0h-5.163v-6.721h-8.773v-3.228h30.264v3.228H0Z" style="fill:#003c68;fill-opacity:1;fill-rule:nonzero;stroke:none" transform="matrix(2.55904 0 0 -2.55904 1046.912 83.66)"/></g><g style="fill:#003c68;fill-opacity:1"><path d="M0 0v5.941h-5.467V0h-11.568v-3.231h28.903V0Z" style="fill:#003c68;fill-opacity:1;fill-rule:nonzero;stroke:none" transform="matrix(2.55904 0 0 -2.55904 805.863 129.413)"/></g><g style="fill:#003c68;fill-opacity:1"><path d="M0 0v5.941h-5.16V0h-11.574v-3.231h28.31V0Z" style="fill:#003c68;fill-opacity:1;fill-rule:nonzero;stroke:none" transform="matrix(2.55904 0 0 -2.55904 975.374 129.413)"/></g><g style="fill:#003c68;fill-opacity:1"><path d="M0 0v8.417h-5.167v-35.189H0V-3.23h5.34V0Z" style="fill:#003c68;fill-opacity:1;fill-rule:nonzero;stroke:none" transform="matrix(2.55904 0 0 -2.55904 1168.617 83.619)"/></g><g style="fill:#003c68;fill-opacity:1"><path d="M0 0h-5.638v-3.234H0v-8.804h5.168V6.065H0Z" style="fill:#003c68;fill-opacity:1;fill-rule:nonzero;stroke:none" transform="matrix(2.55904 0 0 -2.55904 904.311 77.882)"/></g><g style="fill:#003c68;fill-opacity:1"><path d="M0 0c3.088-.625 7.193-2.716 9.303-4.566l2.127 2.642C9.902-.29 4.871 2.596 2.104 3.457a10.73 10.73 0 0 1 .679 3.768v2.003h6.001v3.23H-8.403v-3.23h5.999V7.225c0-2.384-.951-7.475-7.263-8.707V-4.65c.78 0 1.51.153 2.247.334C-4.701-3.646-1.956-2.19 0 0" style="fill:#003c68;fill-opacity:1;fill-rule:nonzero;stroke:none" transform="matrix(2.55904 0 0 -2.55904 869.377 95.081)"/></g><g style="fill:#003c68;fill-opacity:1"><path d="M0 0h-5.17v-22.086H0v10.698h4.873v3.27H0Z" style="fill:#003c68;fill-opacity:1;fill-rule:nonzero;stroke:none" transform="matrix(2.55904 0 0 -2.55904 559.69 62.073)"/></g><g style="fill:#003c68;fill-opacity:1"><path d="M0 0h-5.17v-8.152c0-1.192.388-2.124 1.17-2.806.784-.681 1.761-1.024 2.943-1.024h18.828v3.232H0Z" style="fill:#003c68;fill-opacity:1;fill-rule:nonzero;stroke:none" transform="matrix(2.55904 0 0 -2.55904 517.495 121.467)"/></g><g style="fill:#003c68;fill-opacity:1"><path d="M0 0c-2.587 0-4.685 2.229-4.685 4.979S-2.587 9.961 0 9.961c2.577 0 4.67-2.232 4.67-4.982S2.577 0 0 0m6.966 10.74c-1.923 1.6-4.25 2.405-6.995 2.405-2.713 0-5.031-.805-6.946-2.405-1.921-1.604-2.879-3.534-2.879-5.805 0-2.265.958-4.193 2.879-5.777C-5.06-2.431-2.742-3.224-.029-3.224c2.745 0 5.072.793 6.995 2.382C8.882.742 9.844 2.67 9.844 4.935c0 2.271-.962 4.201-2.878 5.805" style="fill:#003c68;fill-opacity:1;fill-rule:nonzero;stroke:none" transform="matrix(2.55904 0 0 -2.55904 892.056 146.124)"/></g><g style="fill:#003c68;fill-opacity:1"><path d="M0 0c-2.587 0-4.674 2.229-4.674 4.979S-2.587 9.961 0 9.961c2.591 0 4.675-2.232 4.675-4.982S2.591 0 0 0m6.971 10.74c-1.921 1.6-4.246 2.405-6.992 2.405-2.714 0-5.028-.805-6.951-2.405-1.911-1.604-2.876-3.534-2.876-5.805 0-2.265.965-4.193 2.876-5.777 1.923-1.589 4.237-2.382 6.951-2.382 2.746 0 5.071.793 6.992 2.382C8.89.742 9.845 2.67 9.845 4.935c0 2.271-.955 4.201-2.874 5.805" style="fill:#003c68;fill-opacity:1;fill-rule:nonzero;stroke:none" transform="matrix(2.55904 0 0 -2.55904 1049.621 146.124)"/></g><g style="fill:#003c68;fill-opacity:1"><path d="M0 0c0 2.693 2.05 4.882 4.585 4.882 2.531 0 4.582-2.189 4.582-4.882 0-2.696-2.051-4.879-4.582-4.879C2.05-4.879 0-2.696 0 0m11.413-5.708c1.879 1.552 2.821 3.44 2.821 5.665 0 2.066-.829 3.849-2.452 5.348h2.843v3.229H7.062v2.542H1.895V8.534h-7.571V5.305h3.063C-4.241 3.806-5.064 2.023-5.064-.043c0-2.225.939-4.113 2.82-5.665C-.367-7.264 1.901-8.042 4.56-8.042c2.69 0 4.972.778 6.853 2.334" style="fill:#003c68;fill-opacity:1;fill-rule:nonzero;stroke:none" transform="matrix(2.55904 0 0 -2.55904 498.93 90.29)"/></g><g style="fill:#003c68;fill-opacity:1"><path d="M0 0c.344 1 .56 2.143.56 3.461v8.02h-5.374V4.499c0-4.141-1.5-8.158-7.257-9.448v-3.503c1.852.139 5.258 1.28 6.986 2.469.732.509 1.826 1.248 2.858 2.337 2.918-1.16 5.696-3.096 7.741-5.25l2.541 2.695C6.962-4.231 2.753-1.228 0 0" style="fill:#003c68;fill-opacity:1;fill-rule:nonzero;stroke:none" transform="matrix(2.55904 0 0 -2.55904 1128.827 92.328)"/></g></svg>