<svg xmlns="http://www.w3.org/2000/svg" xml:space="preserve" width="1491.3629" height="300" viewBox="0 0 1491.3629 300"><defs><clipPath id="a" clipPathUnits="userSpaceOnUse"><path d="M0 481.89h524.409V0H0Z"/></clipPath><clipPath id="b" clipPathUnits="userSpaceOnUse"><path d="M130.976 253.904h.072c2.952-4.824 4.68-10.08 5.472-15.12.288-1.728.504-3.456.576-5.112V232.664l.072-.072V231.224c.288-6.48-1.224-12.672-3.528-17.496-3.96-7.993-15.408-2.52-10.728 7.848 1.296 2.952 4.752 7.128 7.128 11.376 2.736 4.897 5.184 12.168 1.512 19.8-.072.216-.216.432-.288.648a6.332 6.332 0 0 1-.432.72s0 .072 0 0z" clip-rule="evenodd"/></clipPath><clipPath id="d" clipPathUnits="userSpaceOnUse"><path d="m136.88 254.624-.072-.144V254.264l-.072-.216V253.616l-.072-.216v-.288l-.072-.144v-.648l-.072-.072v-1.44a3.488 3.488 0 0 1 0-1.224c.144-4.608 1.8-9.216 5.4-13.681.144-.215.36-.431.504-.575l.072-.072v-.071c.144-.145.288-.289.36-.433h.072v-.071H143l.072-.145.072-.072.216-.216c.936-1.008 1.944-1.944 2.88-2.88 4.32-3.744 9.792-6.84 15.84-9.144 15.192-5.472 21.672 15.839 2.88 16.92-8.64.576-16.848.503-23.184 6.12-4.896 4.248-4.752 9.648-4.104 12.6-.216-.72-.432-1.512-.648-2.304V255.344l-.072-.072V255.056c0-.144-.072-.288-.072-.432" clip-rule="evenodd"/></clipPath><clipPath id="f" clipPathUnits="userSpaceOnUse"><path d="M138.968 229.353c-8.136-2.881-24.336-7.416-28.224-1.657-3.096 4.68 6.984 14.04 22.464 20.808 1.944.864 3.816 1.656 5.76 2.304v-2.376a38.58 38.58 0 0 1-4.464-1.8c-12.096-5.256-18.576-11.52-16.2-15.119.072-.073.072-.145.144-.217 3.312-4.248 14.616-1.512 20.52.504zm4.176 1.655H143c-.216-.144-.432-.216-.648-.288-.144-.073-.288-.144-.36-.216a.545.545 0 0 1-.36-.144h-.072c-.72-.289-1.584-.576-2.592-1.007v2.447c.72.288 1.44.504 2.016.721.216.071.36.143.576.214v.073c.216.072.36.144.576.216.144.073.36.144.504.216h.072c.144.072.36.144.504.216 12.096 5.328 18.72 12.24 16.344 15.84v.072c-.072 0-.072.072-.144.072v.072l-.072.072-.144.144c-2.664 2.736-10.656 2.232-20.232-1.296v2.376c12.888 4.752 24.84 6.048 28.224 2.52v-.072h.072v-.072c.144-.072.216-.216.288-.36 3.096-4.68-7.56-14.4-23.04-21.24-.504-.216-.936-.36-1.368-.576"/></clipPath><clipPath id="h" clipPathUnits="userSpaceOnUse"><path d="M138.824 260.816c-3.528-7.776-3.528-16.704 3.096-24.913.576-.718 1.152-1.367 1.656-1.943-1.512 1.872-4.032 6.336-1.728 12.24 1.224 3.384 3.816 6.12 6.552 8.64 2.376 2.232 5.544 3.96 7.92 6.264 3.456 2.52 2.664 9.648-3.96 10.584-2.376.36-4.32-.144-5.976-1.08-3.528-2.016-5.904-6.12-7.56-9.792" clip-rule="evenodd"/></clipPath><clipPath id="j" clipPathUnits="userSpaceOnUse"><path d="M136.52 250.88zm0 0v-.072c-.072-.216 0-.432 0-.648zm0 .072v-.072zm1.152 6.912-.432-1.512c0-.144-.072-.216-.072-.36v-.072c-.072-.216-.144-.504-.216-.72v-.288l-.072-.216-.072-.216v-.072c0-.144 0-.216-.072-.36v-.432c-.072-.144-.072-.216-.072-.36v-.072c0-.072-.072-.216-.072-.288v-.432c0-.144-.072-.216-.072-.36V249.152c0-.432.072-.864.144-1.224v-.072c0-.216.072-.432.072-.648v-.216l.072-.216v-.072c0-.072.072-.216.072-.288v-.216l.072-.144.072-.216v-.216l.072-.216v-.144c.072-.072.072-.144.072-.216l.072-.144c0-.144.072-.216.072-.288v-.144c.072-.072.072-.216.144-.288v-.072c0-.144.072-.216.072-.36l.072-.072c0-.072.072-.216.072-.288v-.072a.55.55 0 0 0 .144-.36h.072c0-.144.072-.288.072-.36l.072-.072c0-.144.072-.216.072-.288l.072-.144c.072-.144.072-.216.144-.288l.072-.144c0-.072.072-.216.072-.288l.072-.072c.072-.216.216-.504.36-.72.072-.144.144-.288.144-.36l.072-.072c.072-.144.144-.216.144-.36h.072c.072-.145.144-.288.216-.359v-.073c.504-.864 1.152-1.8 1.8-2.736.072-.072.216-.216.288-.359l.072-.073c.072-.072.144-.216.216-.289l.072-.071.072-.072v-.072h.072v-.072h.072v-.072l.072-.072v-.073h.072v-.071h.072c.36-.504.792-.936 1.152-1.368-1.44 1.8-3.816 5.976-2.016 11.448-4.68 4.248-4.536 9.504-3.888 12.456" clip-rule="evenodd"/></clipPath><clipPath id="l" clipPathUnits="userSpaceOnUse"><path d="M124.712 261.32c7.2-6.336 10.512-14.76 11.808-22.536.288-1.801.504-3.528.576-5.256 0-.793.072-1.297.072-2.304-.576 6.984-4.248 11.232-7.704 14.04-3.096 2.592-6.912 4.68-11.016 5.76-12.816 2.952-2.304 18.864 6.264 10.296" clip-rule="evenodd"/></clipPath><clipPath id="n" clipPathUnits="userSpaceOnUse"><path d="M137.168 231.944V232.592h-.072V233.672l-.216 2.16v.576l-.072.071v.073c0 .217 0 .431-.072.576v.432l-.072.072v.431l-.072.073v.36l-.072.144v.144c0 .144-.072.287-.072.432v.072l-.072.216v.072l-.072.288v.072l-.072.288v.072c0 .216-.072.432-.144.648v.072l-.072.288v.072l-.072.288V241.88l-.072.216-.072.36h-.072l-.072.288v.216l-.072.144v.216l-.072.216-.072.216v.072l-.072.144v.072l-.072.216-.072.144v.144l-.144.36v.144l-.072.072c0 .072-.072.216-.072.288v.072l-.144.288v.144l-.072.216-.072.144-.216.648h-.072c-.072.216-.144.504-.216.72l-.072.144L134 248l-.072.072-.072.288-.072.072-.144.288v.072l-.072.216v.072l-.072.144-.144.216v.072l-.072.072-.072.216-.072.144-.144.288v.072l-.144.216-.072.144-.072.216-.072.144-.144.288-.216.36v.072l-.144.288h-.072l-.144.36h-.072c0 .144-.072.216-.144.36l-.216.288v.072l-.216.288-.072.144-.072.216-.072.072a.994.994 0 0 1-.216.288h.072c.072-.216.216-.432.36-.72.072-.216.216-.432.288-.648 1.296-2.664 1.8-5.328 1.872-7.848 0-1.152-.072-2.232-.288-3.312 2.016-2.592 3.672-5.904 4.032-10.368V231.872z" clip-rule="evenodd"/></clipPath><linearGradient id="c" x1="0" x2="1" y1="0" y2="0" gradientTransform="scale(-26.6908 26.6908) rotate(-78 3.059 7.588)" gradientUnits="userSpaceOnUse" spreadMethod="pad"><stop offset="0" style="stop-opacity:1;stop-color:#00b9ef"/><stop offset="0.45" style="stop-opacity:1;stop-color:#00a1e9"/><stop offset="1" style="stop-opacity:1;stop-color:#0075c2"/></linearGradient><linearGradient id="e" x1="0" x2="1" y1="0" y2="0" gradientTransform="scale(-41.30569 41.30569) rotate(39 -9.71 -3.253)" gradientUnits="userSpaceOnUse" spreadMethod="pad"><stop offset="0" style="stop-opacity:1;stop-color:#fdd23f"/><stop offset="0.36" style="stop-opacity:1;stop-color:#f5a100"/><stop offset="1" style="stop-opacity:1;stop-color:#ea5505"/></linearGradient><linearGradient id="g" x1="0" x2="1" y1="0" y2="0" gradientTransform="scale(-65.34756 65.34756) rotate(-28 6.555 7.103)" gradientUnits="userSpaceOnUse" spreadMethod="pad"><stop offset="0" style="stop-opacity:1;stop-color:#929199"/><stop offset="0.2" style="stop-opacity:1;stop-color:#b9b7c1"/><stop offset="0.38" style="stop-opacity:1;stop-color:#e5e5ea"/><stop offset="0.53" style="stop-opacity:1;stop-color:#e5e5ea"/><stop offset="0.84" style="stop-opacity:1;stop-color:#b9b7c1"/><stop offset="1" style="stop-opacity:1;stop-color:#929199"/></linearGradient><linearGradient id="i" x1="0" x2="1" y1="0" y2="0" gradientTransform="scale(44.9466 -44.9466) rotate(-53 -3.81 -5.598)" gradientUnits="userSpaceOnUse" spreadMethod="pad"><stop offset="0" style="stop-opacity:1;stop-color:#e2e300"/><stop offset="0.22" style="stop-opacity:1;stop-color:#dbe000"/><stop offset="0.49" style="stop-opacity:1;stop-color:#c4d700"/><stop offset="0.77" style="stop-opacity:1;stop-color:#6fba2c"/><stop offset="1" style="stop-opacity:1;stop-color:#00a73c"/></linearGradient><linearGradient id="k" x1="0" x2="1" y1="0" y2="0" gradientTransform="scale(13.44214 -13.44214) rotate(76 17.115 -2.816)" gradientUnits="userSpaceOnUse" spreadMethod="pad"><stop offset="0" style="stop-opacity:1;stop-color:#ea5505"/><stop offset="1" style="stop-opacity:1;stop-color:#d80010"/></linearGradient><linearGradient id="m" x1="0" x2="1" y1="0" y2="0" gradientTransform="scale(26.4128 -26.4128) rotate(39 16.043 1.214)" gradientUnits="userSpaceOnUse" spreadMethod="pad"><stop offset="0" style="stop-opacity:1;stop-color:#fdd23f"/><stop offset="0.36" style="stop-opacity:1;stop-color:#f5a100"/><stop offset="1" style="stop-opacity:1;stop-color:#ea5505"/></linearGradient><linearGradient id="o" x1="0" x2="1" y1="0" y2="0" gradientTransform="scale(-10.768 10.768) rotate(73 -21.278 2.589)" gradientUnits="userSpaceOnUse" spreadMethod="pad"><stop offset="0" style="stop-opacity:1;stop-color:#0075c2"/><stop offset="1" style="stop-opacity:1;stop-color:#008cd6"/></linearGradient></defs><g clip-path="url(#a)" transform="matrix(4.84664 0 0 -4.84664 -534.027 1317.339)"><g clip-path="url(#b)"><path d="M130.976 253.904h.072c2.952-4.824 4.68-10.08 5.472-15.12.288-1.728.504-3.456.576-5.112V232.664l.072-.072V231.224c.288-6.48-1.224-12.672-3.528-17.496-3.96-7.993-15.408-2.52-10.728 7.848 1.296 2.952 4.752 7.128 7.128 11.376 2.736 4.897 5.184 12.168 1.512 19.8-.072.216-.216.432-.288.648a6.332 6.332 0 0 1-.432.72s0 .072 0 0z" style="fill:url(#c);fill-rule:evenodd;stroke:none"/></g><g clip-path="url(#d)"><path d="m136.88 254.624-.072-.144V254.264l-.072-.216V253.616l-.072-.216v-.288l-.072-.144v-.648l-.072-.072v-1.44a3.488 3.488 0 0 1 0-1.224c.144-4.608 1.8-9.216 5.4-13.681.144-.215.36-.431.504-.575l.072-.072v-.071c.144-.145.288-.289.36-.433h.072v-.071H143l.072-.145.072-.072.216-.216c.936-1.008 1.944-1.944 2.88-2.88 4.32-3.744 9.792-6.84 15.84-9.144 15.192-5.472 21.672 15.839 2.88 16.92-8.64.576-16.848.503-23.184 6.12-4.896 4.248-4.752 9.648-4.104 12.6-.216-.72-.432-1.512-.648-2.304V255.344l-.072-.072V255.056c0-.144-.072-.288-.072-.432" style="fill:url(#e);fill-rule:evenodd;stroke:none"/></g><g clip-path="url(#f)"><path d="M138.968 229.353c-8.136-2.881-24.336-7.416-28.224-1.657-3.096 4.68 6.984 14.04 22.464 20.808 1.944.864 3.816 1.656 5.76 2.304v-2.376a38.58 38.58 0 0 1-4.464-1.8c-12.096-5.256-18.576-11.52-16.2-15.119.072-.073.072-.145.144-.217 3.312-4.248 14.616-1.512 20.52.504zm4.176 1.655H143c-.216-.144-.432-.216-.648-.288-.144-.073-.288-.144-.36-.216a.545.545 0 0 1-.36-.144h-.072c-.72-.289-1.584-.576-2.592-1.007v2.447c.72.288 1.44.504 2.016.721.216.071.36.143.576.214v.073c.216.072.36.144.576.216.144.073.36.144.504.216h.072c.144.072.36.144.504.216 12.096 5.328 18.72 12.24 16.344 15.84v.072c-.072 0-.072.072-.144.072v.072l-.072.072-.144.144c-2.664 2.736-10.656 2.232-20.232-1.296v2.376c12.888 4.752 24.84 6.048 28.224 2.52v-.072h.072v-.072c.144-.072.216-.216.288-.36 3.096-4.68-7.56-14.4-23.04-21.24-.504-.216-.936-.36-1.368-.576" style="fill:url(#g);stroke:none"/></g><g clip-path="url(#h)"><path d="M138.824 260.816c-3.528-7.776-3.528-16.704 3.096-24.913.576-.718 1.152-1.367 1.656-1.943-1.512 1.872-4.032 6.336-1.728 12.24 1.224 3.384 3.816 6.12 6.552 8.64 2.376 2.232 5.544 3.96 7.92 6.264 3.456 2.52 2.664 9.648-3.96 10.584-2.376.36-4.32-.144-5.976-1.08-3.528-2.016-5.904-6.12-7.56-9.792" style="fill:url(#i);fill-rule:evenodd;stroke:none"/></g><g clip-path="url(#j)"><path d="M136.52 250.88zm0 0v-.072c-.072-.216 0-.432 0-.648zm0 .072v-.072zm1.152 6.912-.432-1.512c0-.144-.072-.216-.072-.36v-.072c-.072-.216-.144-.504-.216-.72v-.288l-.072-.216-.072-.216v-.072c0-.144 0-.216-.072-.36v-.432c-.072-.144-.072-.216-.072-.36v-.072c0-.072-.072-.216-.072-.288v-.432c0-.144-.072-.216-.072-.36V249.152c0-.432.072-.864.144-1.224v-.072c0-.216.072-.432.072-.648v-.216l.072-.216v-.072c0-.072.072-.216.072-.288v-.216l.072-.144.072-.216v-.216l.072-.216v-.144c.072-.072.072-.144.072-.216l.072-.144c0-.144.072-.216.072-.288v-.144c.072-.072.072-.216.144-.288v-.072c0-.144.072-.216.072-.36l.072-.072c0-.072.072-.216.072-.288v-.072a.55.55 0 0 0 .144-.36h.072c0-.144.072-.288.072-.36l.072-.072c0-.144.072-.216.072-.288l.072-.144c.072-.144.072-.216.144-.288l.072-.144c0-.072.072-.216.072-.288l.072-.072c.072-.216.216-.504.36-.72.072-.144.144-.288.144-.36l.072-.072c.072-.144.144-.216.144-.36h.072c.072-.145.144-.288.216-.359v-.073c.504-.864 1.152-1.8 1.8-2.736.072-.072.216-.216.288-.359l.072-.073c.072-.072.144-.216.216-.289l.072-.071.072-.072v-.072h.072v-.072h.072v-.072l.072-.072v-.073h.072v-.071h.072c.36-.504.792-.936 1.152-1.368-1.44 1.8-3.816 5.976-2.016 11.448-4.68 4.248-4.536 9.504-3.888 12.456" style="fill:url(#k);fill-rule:evenodd;stroke:none"/></g><g clip-path="url(#l)"><path d="M124.712 261.32c7.2-6.336 10.512-14.76 11.808-22.536.288-1.801.504-3.528.576-5.256 0-.793.072-1.297.072-2.304-.576 6.984-4.248 11.232-7.704 14.04-3.096 2.592-6.912 4.68-11.016 5.76-12.816 2.952-2.304 18.864 6.264 10.296" style="fill:url(#m);fill-rule:evenodd;stroke:none"/></g><g clip-path="url(#n)"><path d="M137.168 231.944V232.592h-.072V233.672l-.216 2.16v.576l-.072.071v.073c0 .217 0 .431-.072.576v.432l-.072.072v.431l-.072.073v.36l-.072.144v.144c0 .144-.072.287-.072.432v.072l-.072.216v.072l-.072.288v.072l-.072.288v.072c0 .216-.072.432-.144.648v.072l-.072.288v.072l-.072.288V241.88l-.072.216-.072.36h-.072l-.072.288v.216l-.072.144v.216l-.072.216-.072.216v.072l-.072.144v.072l-.072.216-.072.144v.144l-.144.36v.144l-.072.072c0 .072-.072.216-.072.288v.072l-.144.288v.144l-.072.216-.072.144-.216.648h-.072c-.072.216-.144.504-.216.72l-.072.144L134 248l-.072.072-.072.288-.072.072-.144.288v.072l-.072.216v.072l-.072.144-.144.216v.072l-.072.072-.072.216-.072.144-.144.288v.072l-.144.216-.072.144-.072.216-.072.144-.144.288-.216.36v.072l-.144.288h-.072l-.144.36h-.072c0 .144-.072.216-.144.36l-.216.288v.072l-.216.288-.072.144-.072.216-.072.072a.994.994 0 0 1-.216.288h.072c.072-.216.216-.432.36-.72.072-.216.216-.432.288-.648 1.296-2.664 1.8-5.328 1.872-7.848 0-1.152-.072-2.232-.288-3.312 2.016-2.592 3.672-5.904 4.032-10.368V231.872z" style="fill:url(#o);fill-rule:evenodd;stroke:none"/></g><path d="m197.144 213.944-4.536 6.264 4.32 3.6h-1.8l-5.04-4.032v4.032h-1.368v-9.864h1.368v4.321l1.584 1.079 3.672-5.4zm3.744 7.344v-1.008c-.576 0-1.152-.217-1.512-.72-.216-.216-.36-.504-.432-.864-.504-1.584 0-3.888 1.944-3.888V213.8c-2.664 0-4.176 2.736-3.24 5.328.504 1.439 1.8 2.088 3.24 2.16m8.64-1.368c-.216.072-.504.072-.864.072-.648 0-1.224-.72-1.728-1.44v-4.608h-1.296v7.127h1.296v-1.008c.576.793 1.224 1.225 1.944 1.225.216 0 .432-.072.648-.072zm-8.64-6.12v1.008c1.512 0 2.16 1.368 2.16 2.736s-.648 2.736-2.16 2.736v1.008c2.16 0 3.528-1.584 3.528-3.744 0-2.232-1.368-3.744-3.528-3.744m12.24 7.488v-1.008c-1.152 0-1.944-.864-2.088-2.088h2.088v-.936h-2.088c.072-1.008.432-1.944 1.368-2.304.288-.072.504-.144.72-.144V213.8c-.432 0-.936.072-1.296.288-1.512.504-2.16 1.944-2.16 3.456 0 .576.072 1.08.216 1.512.504 1.44 1.8 2.16 3.24 2.232m0-4.032v.936h2.16c-.216 1.224-.936 2.088-2.16 2.088v1.008c1.512 0 2.808-.721 3.312-2.232.144-.432.216-.936.216-1.512v-.288zm0-3.456v1.008h.144c.792 0 1.872.36 1.872 1.296h1.368c-.216-1.656-1.728-2.304-3.24-2.304zm7.56 4.465v-.937c-1.224-.143-1.872-.576-1.872-1.368 0-.432.144-.648.432-.863.288-.217.648-.289 1.08-.289h.36v-.936c-.216-.072-.432-.072-.72-.072-.36 0-.648.072-1.008.144a1.725 1.725 0 0 0-.792.432c-.216.145-.432.359-.504.648-.144.216-.216.504-.216.864 0 1.368 1.08 2.232 3.24 2.377m0 3.095v-1.007c-.864 0-1.656-.433-1.728-1.297h-1.296c.072 1.511 1.512 2.304 3.024 2.304m8.856-7.416h-1.368v9.863h1.368zm3.312 6.264c1.656 1.8 4.752 1.368 4.752-1.584v-4.68h-1.296v4.608c0 2.377-2.304 1.801-3.456.504v-5.112h-1.296v7.127h1.296zm-12.168-6.336v.936c.36.072.648.144.936.289.432.143.72.431 1.008.718v1.584h-.936c-.36 0-.72 0-1.008-.071v.937c.36.071.792.071 1.296.071h.648c0 1.296-1.008 1.944-1.944 2.017v1.007c1.584 0 3.24-.936 3.24-2.808v-4.608h-1.296v.791c-.576-.504-1.224-.791-1.944-.863m21.384 7.344v-.936c-1.512 0-1.872-1.584-1.872-2.808 0-1.224.36-2.664 1.8-2.664h.072V213.8h-.216c-.432 0-.936.072-1.296.288-1.296.576-1.728 2.016-1.728 3.384 0 1.944 1.08 3.816 3.168 3.816zm9.72-6.336c-1.656-1.8-4.824-1.367-4.824 1.584v4.607h1.368v-4.607c0-2.233 2.304-1.872 3.456-.504v5.111h1.296v-7.127h-1.296zm5.616-1.08c-2.016 0-3.096.792-3.168 2.304h1.296c.072-.864.648-1.296 1.872-1.296.576 0 1.008.072 1.296.289.288.215.432.504.432.863 0 .144-.072.288-.072.359-.072.145-.216.217-.36.289a3.28 3.28 0 0 1-.648.216c-.288.072-.648.216-1.08.288-.504.144-.864.216-1.152.36-.36.072-.576.216-.792.36-.504.36-.648.792-.648 1.368 0 1.512 1.584 2.088 2.808 2.088 1.944 0 2.952-.721 3.024-2.016h-1.368c0 .648-.576 1.008-1.584 1.008-1.44 0-2.232-1.297-.576-1.801.216-.071.648-.143 1.08-.287.432-.072.864-.216 1.224-.289.288-.143.576-.287.792-.431.216-.144.36-.36.504-.576a2.68 2.68 0 0 0 .144-.864c0-.288-.072-.576-.216-.864-.144-.288-.288-.504-.576-.72a3.845 3.845 0 0 0-.936-.504c-.432-.072-.792-.144-1.296-.144m7.199.144c-2.015-.36-2.735.287-2.735 2.088v4.031h-.936v1.008h.936v1.801h1.368v-1.801h1.224v-1.008h-1.224v-4.031c0-1.152.504-1.224 1.367-1.08zm4.681 5.976c-.143.072-.433.072-.792.072-.648 0-1.225-.72-1.728-1.44v-4.608H265.4v7.127h1.368v-1.008c.576.793 1.224 1.225 1.944 1.225.216 0 .36-.072.576-.072zm1.944-5.976h-1.297v7.127h1.297zm0 8.496h-1.297v1.367h1.297zm-29.16-8.64v1.008c.72 0 1.368.432 1.944 1.224v3.384c-.576.504-1.224.792-1.944.864v.936c.792 0 1.44-.216 1.944-.72v3.312h1.368v-9.864h-1.368v.864c-.576-.577-1.152-.936-1.944-1.008m33.696 4.465v-.937c-1.224-.143-1.872-.576-1.872-1.368 0-.432.144-.648.432-.863.36-.289.936-.362 1.44-.289v-.936c-1.512-.217-3.241.216-3.241 2.016 0 1.368 1.08 2.232 3.241 2.377m0 3.095v-1.007c-.864 0-1.657-.433-1.728-1.297h-1.296c.072 1.511 1.512 2.304 3.024 2.304m6.264-7.416h-1.368v9.863h1.368zm12.529 6.84h-1.37c0 .36-.071.649-.287.863-.144.29-.288.504-.576.649a4.828 4.828 0 0 1-.864.432 4.358 4.358 0 0 1-1.08.144c-.504 0-.936-.144-1.368-.288-.432-.144-.791-.433-1.08-.792-.288-.288-.504-.721-.72-1.225a6.135 6.135 0 0 1-.216-1.655c0-.647.072-1.224.216-1.727a4.98 4.98 0 0 1 .72-1.225c.289-.359.648-.576 1.08-.792.36-.144.864-.216 1.368-.216.792 0 1.44.145 1.944.504s.792.936.863 1.656h1.37c0-.576-.145-1.008-.361-1.44-.216-.36-.576-.72-.936-1.008a3.628 3.628 0 0 0-1.296-.647c-.432-.145-1.008-.217-1.584-.217-.72 0-1.368.144-1.945.36a3.293 3.293 0 0 0-1.511 1.008 4.585 4.585 0 0 0-1.008 1.584 6.783 6.783 0 0 0-.359 2.16c0 .72.143 1.441.359 2.088s.576 1.151 1.008 1.584c.36.433.864.792 1.511 1.008.577.288 1.225.36 1.945.36.576 0 1.08-.072 1.584-.217a3.628 3.628 0 0 0 1.296-.647c.36-.288.648-.575.864-1.008.288-.36.433-.792.433-1.296m-18.793-6.912v.936a3.012 3.012 0 0 1 1.944 1.007v1.584h-.937c-.359 0-.718 0-1.007-.071v.937c.36.071.793.071 1.296.071h.648c0 1.296-1.008 1.944-1.944 2.017v1.007c1.584 0 3.24-.936 3.24-2.808v-4.608h-1.296v.791c-.504-.431-1.151-.718-1.944-.863m23.328 7.416v-1.008c-.648 0-1.153-.217-1.584-.72a4.86 4.86 0 0 1-.432-.864c-.432-1.584 0-3.888 2.016-3.888V213.8c-2.737 0-4.248 2.736-3.312 5.328.575 1.439 1.8 2.088 3.312 2.16m14.759-7.344h-1.294v4.608c0 2.232-1.945 1.944-3.097.504v-5.112h-1.296v4.608c0 2.232-1.943 1.872-3.096.504v-5.112h-1.297v7.127h1.297v-.863c1.08 1.152 3.528 1.729 4.248-.216 1.512 1.728 4.535 2.159 4.535-1.368zm-14.759-.144v1.008c1.511 0 2.088 1.368 2.088 2.736s-.577 2.736-2.088 2.736v1.008c2.16 0 3.456-1.584 3.456-3.744 0-2.232-1.296-3.744-3.456-3.744m19.656 7.416v-.936c-.72-.072-1.368-.504-1.943-1.224v-3.384c.718-.648 1.367-.937 1.943-.864V213.8c-.648 0-1.368.288-1.943.721v-3.241h-1.297v9.791h1.297v-.863c.575.648 1.223 1.008 1.943 1.008m5.832-7.272h-1.296v9.863h1.296zm-5.832-.144v1.008c1.08 0 1.943 1.152 1.943 2.808 0 .863-.143 1.512-.504 1.944-.287.503-.718.72-1.295.72h-.144v.936c.072 0 .144.072.216.072.505 0 .936-.144 1.296-.288.431-.216.72-.433 1.007-.72.29-.36.433-.72.577-1.152a5.481 5.481 0 0 0 .216-1.512c0-.576-.072-1.152-.216-1.584a4.991 4.991 0 0 0-.72-1.224c-.576-.648-1.512-1.008-2.376-1.008m10.512 7.488v-1.008c-1.153 0-1.944-.864-2.088-2.088h2.088v-.936h-2.088c.072-1.008.431-1.944 1.368-2.304.288-.072.504-.144.72-.144V213.8c-.432 0-.936.072-1.296.288-1.512.504-2.159 1.944-2.159 3.456 0 .576.071 1.08.214 1.512.504 1.44 1.801 2.16 3.241 2.232m10.872-7.344h-1.656l-1.873 2.808-1.871-2.808h-1.584l2.737 3.744-2.521 3.383h1.584l1.655-2.447 1.657 2.447h1.656l-2.52-3.383zm11.664 6.84h-1.368c0 .36-.073.649-.216.863-.216.29-.361.504-.648.649a4.794 4.794 0 0 1-.864.432 4.35 4.35 0 0 1-1.08.144c-.504 0-.936-.144-1.368-.288-.432-.144-.792-.433-1.08-.792-.287-.288-.504-.721-.72-1.225a6.175 6.175 0 0 1-.216-1.655c0-.647.073-1.224.216-1.727.216-.504.433-.866.72-1.225.288-.359.648-.576 1.08-.792.36-.144.864-.216 1.368-.216.792 0 1.44.145 1.944.504s.791.936.864 1.656h1.368c0-.576-.144-1.008-.361-1.44a3.049 3.049 0 0 0-.935-1.008 3.96 3.96 0 0 0-1.225-.647 6.09 6.09 0 0 0-1.655-.217c-.72 0-1.368.144-1.944.36a3.286 3.286 0 0 0-1.512 1.008 4.585 4.585 0 0 0-1.008 1.584c-.217.647-.288 1.368-.288 2.16 0 .72.071 1.441.288 2.088.216.647.576 1.151 1.008 1.584.359.433.864.792 1.512 1.008.576.288 1.224.36 1.944.36.576 0 1.08-.072 1.584-.217a3.628 3.628 0 0 0 1.296-.647c.359-.288.648-.575.935-1.008.217-.36.361-.792.361-1.296m-22.536-3.528v.936h2.16c-.216 1.224-.936 2.088-2.16 2.088v1.008c1.511 0 2.808-.721 3.312-2.232.145-.432.216-.936.216-1.512v-.288zm0-3.456v1.008h.144c.792 0 1.871.36 1.871 1.296h1.369c-.216-1.656-1.728-2.304-3.24-2.304zm27.072 7.488v-1.008c-.648 0-1.152-.217-1.584-.72a4.729 4.729 0 0 1-.432-.864c-.431-1.584 0-3.888 2.016-3.888V213.8c-2.736 0-4.248 2.736-3.313 5.328.577 1.439 1.801 2.088 3.313 2.16m0-7.488v1.008c1.512 0 2.088 1.368 2.088 2.736s-.576 2.736-2.088 2.736v1.008c2.16 0 3.527-1.584 3.527-3.744 0-2.232-1.367-3.744-3.527-3.744m12.456 7.416v-.936c-.72-.072-1.368-.504-1.944-1.224v-3.384c.576-.575 1.224-.864 1.944-.864V213.8c-.792 0-1.44.288-1.944.721v-3.241h-1.296v9.791h1.296v-.863c.576.648 1.224 1.008 1.944 1.008m-3.888-1.296c-.216.072-.431.072-.793.072-.718 0-1.295-.72-1.798-1.44v-4.608h-1.297v7.127h1.297v-1.008c.576.793 1.223 1.225 2.015 1.225.145 0 .36-.072.576-.072zm3.888-6.12v1.008h.071c.505 0 1.009.216 1.297.72.36.432.504 1.153.504 2.088 0 .863-.144 1.512-.432 1.944-.36.503-.793.72-1.369.72h-.071v.936c.071 0 .144.072.216.072.504 0 .935-.144 1.297-.288.359-.216.718-.433.935-.72.287-.36.504-.72.649-1.152a5.517 5.517 0 0 0 .215-1.512c0-.576-.144-1.152-.288-1.584a3.318 3.318 0 0 0-.648-1.224c-.288-.287-.648-.577-1.008-.72-.36-.216-.792-.288-1.224-.288zm7.487 7.488v-1.008c-.575 0-1.151-.217-1.511-.72a4.794 4.794 0 0 1-.432-.864c-.504-1.584 0-3.888 1.943-3.888V213.8c-2.663 0-4.175 2.736-3.239 5.328.504 1.439 1.8 2.088 3.239 2.16m8.641-1.368c-.216.072-.504.072-.863.072-.649 0-1.225-.72-1.729-1.44v-4.608h-1.296v7.127h1.296v-1.008c.576.793 1.224 1.225 1.943 1.225.217 0 .433-.072.649-.072zm-8.641-6.12v1.008h.073c1.511 0 2.087 1.368 2.087 2.736s-.576 2.736-2.087 2.736h-.073v1.008h.073c2.16 0 3.457-1.584 3.457-3.744 0-2.232-1.297-3.744-3.457-3.744zm12.097 4.465v-.937c-1.296-.143-1.944-.647-1.944-1.44 0-.36.144-.648.431-.864a2.721 2.721 0 0 1 1.153-.289c.144 0 .216 0 .36.073V213.8c-.216 0-.504-.072-.72-.072a2.3 2.3 0 0 0-1.008.216 2.693 2.693 0 0 0-.793.36c-.214.217-.431.431-.576.648-.143.288-.143.576-.143.863 0 1.441 1.08 2.233 3.24 2.45m0 3.023v-1.008c-.864 0-1.655-.431-1.728-1.297h-1.369c.145 1.513 1.584 2.305 3.097 2.305m7.776-7.344c-.289 0-.576-.072-.936-.072-.361 0-.72.072-.937.145-.215.071-.431.214-.504.431-.143.144-.214.36-.287.649V220.063h-.936v1.008h.936v1.801h1.296v-1.801h1.224v-1.008h-1.224v-4.031c0-.288 0-.504.071-.648 0-.144.073-.216.145-.36.072-.072.145-.072.216-.144h.647c.073 0 .217 0 .289.072zm2.161 0h-1.297v7.127h1.297zm0 8.496h-1.297v1.367h1.297zm-9.937-8.64v1.008c.288 0 .647.072.937.216.359.216.719.432.935.791v1.584h-.864c-.361 0-.72-.071-1.008-.071v.937c.36 0 .792.071 1.224.071h.648c0 1.296-.935 1.944-1.872 1.944v1.008c1.584 0 3.24-.864 3.24-2.736v-4.608h-1.368v.72c-.504-.433-1.152-.72-1.872-.864m14.688 7.488v-1.008c-.648 0-1.152-.217-1.584-.72a4.729 4.729 0 0 1-.432-.864c-.432-1.584 0-3.888 2.016-3.888V213.8c-2.736 0-4.248 2.736-3.312 5.328.576 1.439 1.8 2.088 3.312 2.16m5.976-1.08c.72.721 1.44 1.08 2.231 1.08 1.729 0 2.592-.935 2.592-2.664v-4.68h-1.367v4.608c0 .576-.144 1.008-.36 1.297-.216.214-.575.359-1.008.359-.72 0-1.368-.359-2.088-1.152v-5.112h-1.296v7.127h1.296zm-5.976-6.408v1.008c1.512 0 2.088 1.368 2.088 2.736s-.576 2.736-2.088 2.736v1.008c2.161 0 3.528-1.584 3.528-3.744 0-2.232-1.367-3.744-3.528-3.744" style="fill:#9f9fa0;fill-opacity:1;fill-rule:nonzero;stroke:none"/><path d="M191.168 239.936V228.56h-2.592v9.72c0 1.008.792 1.8 1.8 1.8.288 0 .576-.072.792-.144m-4.032 8.928v-.648l.072-.216v-.216l.072-.216.072-.144.072-.216.072-.216.144-.144.072-.216.072-.144.144-.216.144-.144.144-.144.072-.144.144-.144.144-.144.216-.144.144-.072.144-.144.144-.072.216-.144.144-.072.216-.072.216-.072.144-.072h.216l.216-.072h.144l.216-.072h.216v-3.096h-.36l-.216.072h-.576l-.144.072h-.216l-.144.072h-.216l-.144.072-.216.072-.144.072h-.144l-.216.072-.144.072-.216.072-.144.072-.144.144-.144.072-.216.072-.144.072-.144.144-.144.072-.144.072-.144.144-.144.072-.144.144-.144.072-.144.144-.144.144-.144.072-.072.144-.144.144-.144.144-.072.144-.144.144-.072.072-.144.144-.072.144-.144.216-.072.144-.072.144-.144.144-.072.144-.072.144-.072.216-.072.144-.072.144-.072.216-.072.144-.072.144-.072.216v.144l-.072.216v.144l-.072.216v.144l-.072.216V248.72l-.072.144.072.216V249.872l.072.144v.216l.072.144v.216l.072.216.072.144.072.216v.144l.072.144.072.216.144.144.072.216.072.144.072.144.072.144.144.144.072.216.144.144.072.144.144.144.072.144.144.144.144.072v.072H182.672c-.792 0-1.368.648-1.368 1.44 0 .792.576 1.44 1.368 1.44h6.48v1.008c0 1.08.936 2.016 2.016 2.016v-6.408h-.576l-.216-.072h-.216l-.144-.072-.216-.072-.216-.072-.144-.072-.216-.144-.144-.072-.144-.144-.144-.072-.216-.144-.144-.144-.144-.144-.072-.144-.144-.144-.144-.216-.144-.144-.072-.144-.072-.216-.144-.216-.072-.144-.072-.216-.072-.216-.072-.216v-.216l-.072-.216v-.432zm18.36-17.064h-13.248v6.48a1.82 1.82 0 0 1-1.08 1.656V228.56h14.328zm0 27.36v-23.184c-.144-.073-.288-.073-.432-.073-1.008 0-1.8.793-1.8 1.801v19.728c0 1.008.792 1.8 1.8 1.8.144 0 .288 0 .432-.072m-14.328-14.616h.216l.216.072h.216l.144.072h.216l.216.072.144.072.216.072.144.072.216.144.144.072.216.144.144.072.144.144.144.144.144.144.144.144.144.144.072.144.144.216.072.144.144.216.072.144.072.216.072.216.072.144.072.216.072.216v.432l.072.216v.432l-.072.216v.432l-.072.216-.072.216-.072.216-.072.216-.072.144-.072.216-.144.216-.072.144-.144.144-.072.216-.144.144-.144.144-.144.144-.144.144-.144.144-.144.072-.216.144-.144.072-.216.144-.144.072-.216.072-.144.072-.216.072h-.216l-.144.072h-.648v6.408a2.012 2.012 0 0 0 2.016-2.016v-1.008h6.48c.792 0 1.512-.648 1.512-1.44 0-.792-.72-1.44-1.512-1.44H196.856v-.072l.072-.072.144-.144.144-.144.072-.144.144-.144.072-.144.144-.216.072-.144.072-.144.072-.144.144-.144.072-.216.072-.144.072-.216.072-.144.072-.144.072-.216v-.144l.072-.216.072-.216v-.144l.072-.216v-.36l.072-.216v-1.152l-.072-.144v-.432l-.072-.144v-.216l-.072-.144v-.216l-.072-.144-.072-.216-.072-.144-.072-.144v-.216l-.072-.144-.144-.144-.072-.216-.072-.144-.072-.144-.072-.144-.144-.144-.072-.144-.072-.216-.144-.144-.072-.144-.144-.072-.072-.144-.144-.144-.144-.144-.072-.144-.144-.144-.144-.072-.144-.144-.144-.144-.144-.072-.072-.144-.144-.072-.144-.144-.216-.072-.144-.072-.144-.144-.144-.072-.144-.072-.144-.072-.216-.144-.144-.072-.144-.072-.216-.072-.144-.072h-.216l-.144-.072-.216-.072-.144-.072h-.144l-.216-.072h-.216l-.144-.072h-.576l-.216-.072h-.36zm14.328-8.568v23.184c.792-.216 1.368-.864 1.368-1.728v-4.608h3.744c1.008 0 1.8-.864 1.8-1.872s-.792-1.8-1.8-1.8h-3.744v-11.376c0-.864-.576-1.584-1.368-1.8m0-7.416v3.24h.576c.936 0 1.584-.72 1.584-1.656 0-.864-.648-1.584-1.584-1.584zM259.856 244.328c.432-.288.792-.792.792-1.368 0-.864-.72-1.584-1.584-1.584-.288 0-.576.072-.792.216l-.504.288-.216.144-.216.144-.288.144-.216.216-.288.216-.288.216-.216.216-.288.216-.288.216-.288.288-.216.216-.288.216-.288.288-.216.288-.288.288-.072.144-.144.072-.144.144-.072.144-.144.144-.144.144-.072.144-.144.144-.072.144-.144.144-.072.144-.144.144-.072.144-.144.216-.072.144-.144.144-.072.144-.072.144-.144.144-.072.144-.072.144-.072.144-.072.144-.072.144-.072.144-.072.144-.072.144v-.144l-.072-.144-.072-.144-.072-.144-.072-.144-.072-.144-.144-.144-.072-.144-.072-.216-.072-.144-.144-.144-.072-.144-.072-.144-.144-.144-.072-.216-.144-.144-.072-.144-.144-.144-.072-.144-.144-.144-.144-.144-.072-.144-.144-.144-.072-.216-.144-.144-.144-.144-.144-.144-.216-.288-.288-.288-.216-.216-.288-.288-.288-.288-.216-.216-.288-.288-.288-.216-.288-.288-.216-.216-.288-.144-.288-.216-.216-.216-.216-.144-.288-.144-.288-.216c-.072 0-.072 0-.144-.072-.216-.144-.504-.144-.72-.144-.864 0-1.584.648-1.584 1.584 0 .504.288 1.008.72 1.296l.36.288.144.072.144.144.216.144.144.144.144.072.144.144.144.144.144.144.144.144.144.144.144.144.144.144.216.144.144.144.144.144.144.144.072.144.144.216.144.144.144.144.144.144.144.144.144.216.072.144.144.144.144.216.072.144.144.216.144.144.072.144.144.216.144.288.144.216.144.288.144.288.144.288.072.216.144.288.072.288.144.216.072.288.072.216.072.288.072.288.072.216v.288l.072.288.072.216v.288l.072.288v.288l.072.288v.504c.072.792.072.792.072 1.584v.576c0 1.152.936 2.016 2.016 2.016 1.152 0 2.088-.864 2.088-2.016v-2.376l.072-.288v-.504l.072-.288v-.288l.072-.288.072-.216v-.288l.072-.216.072-.288.072-.288.072-.216.072-.288.144-.216.072-.288.144-.288.072-.216.144-.288.144-.216.144-.288.144-.288.144-.216.144-.216.144-.144.072-.144.144-.216.072-.144.144-.144.144-.144.144-.144.072-.216.144-.144.144-.144.144-.144.144-.144.144-.144.144-.144.144-.144.144-.144.144-.144.144-.144.144-.144.144-.144.144-.144.144-.144.144-.144.144-.072.144-.144.216-.144.144-.144.144-.072.144-.144.144-.144zm5.4 14.904h-.36c-1.007 0-1.8-.792-1.8-1.728v-19.296c0-.936.793-1.729 1.8-1.729h.36zm-16.848-30.672v9.648c0 1.008.792 1.872 1.8 1.872s1.872-.864 1.872-1.872V231.8h13.176v-3.24zm16.848 7.919v22.753c.792-.216 1.439-.936 1.439-1.728v-4.68h3.241c1.007 0 1.8-.864 1.8-1.872s-.793-1.8-1.8-1.8h-3.241v-10.944c0-.864-.647-1.512-1.439-1.729m0-4.679h.576c.863 0 1.584-.72 1.584-1.656 0-.864-.721-1.584-1.584-1.584h-.576zM348.775 239.936c.433-.289.721-.792.721-1.369 0-.863-.648-1.511-1.512-1.511-.432 0-.793.144-1.007.36l-.361.216-.216.144-.289.216-.215.216-.289.216-.214.216-.289.216-.215.288-.145.144-.144.145-.144.143-.143.144-.145.144-.072.144-.144.144-.143.144-.145.144-.072.144-.144.144-.143.144-.145.144-.072.216-.145.144-.143.144-.071.144-.145.216-.145.144-.071.144-.143.144-.073.216-.144.144-.145.144-.071.216-.144.144-.072.144-.072.216-.145.144-.071.216-.143.144-.073.144-.072.216-.145.144-.071.216-.072.144-.071.144-.073.216-.144.144-.072.144v.216l-.073.144-.071.144-.072-.144-.072-.144-.072-.216-.072-.144-.072-.144-.073-.216-.071-.144-.072-.144-.144-.216-.072-.144-.072-.216-.144-.144-.072-.144-.071-.216-.145-.144-.072-.216-.145-.144-.071-.144-.144-.216-.072-.144-.144-.144-.073-.216-.143-.144-.144-.144-.072-.144-.144-.216-.144-.144-.071-.144-.145-.144-.144-.216-.073-.144-.143-.144-.144-.144-.144-.144-.073-.144-.143-.144-.144-.144-.144-.144-.144-.144-.072-.144-.144-.143-.144-.145-.145-.144-.214-.216-.29-.288-.287-.216-.216-.216-.288-.216-.216-.216-.216-.144-.361-.216c-.214-.216-.576-.36-1.007-.36-.864 0-1.512.648-1.512 1.511 0 .577.288 1.08.721 1.369l.359.288.145.216.214.144.145.144.217.144.142.216.145.144.217.144.143.216.144.144.217.216.143.144.144.144.144.216.145.216.143.144.144.216.217.144.143.216.071.216.145.144.145.216.143.216.144.144.144.216.072.216.144.144.144.216.072.216.144.216.073.216.143.144.144.288.072.288.144.216.144.288.071.216.145.288.072.288.072.216.073.288.143.216.072.288.072.216v.288l.072.288.072.216.073.288v.216l.071.288.072.288v.288l.071.216v.576l.073.288v1.368l.072.288v.36h-4.824c-.864 0-1.584.72-1.584 1.584 0 .864.72 1.584 1.584 1.584h13.248c.864 0 1.584-.72 1.584-1.584a1.59 1.59 0 0 0-1.728-1.584h-4.536V253.616l.072-.288V252.248l.073-.288v-.576l.071-.216v-.288l.072-.288v-.288l.071-.216.073-.288.072-.216v-.288l.072-.288.073-.216.071-.288.072-.216.144-.288.072-.216.072-.288.145-.288.071-.216.144-.288.072-.216.144-.288.144-.288.143-.144.073-.216.144-.216.073-.216.143-.216.144-.144.072-.216.144-.216.144-.144.144-.216.144-.216.072-.144.144-.216.143-.216.145-.144.216-.216.143-.144.145-.216.144-.216.144-.144.144-.144.216-.216.144-.144.143-.216.145-.144.216-.144.143-.216.217-.144.145-.144.214-.144.145-.216zm3.961-9.865v27.361c0 1.008.791 1.8 1.8 1.8.937 0 1.728-.792 1.728-1.8V230c.072-.937-.791-1.728-1.728-1.728-1.009 0-1.8.791-1.8 1.728zM373.688 242.168v-3.024h-.288l-.216-.073h-.504l-.216-.071-.216-.072-.216-.072-.288-.072-.144-.072-.216-.072-.216-.073-.216-.143-.143-.071-.217-.145-.144-.145-.216-.071-.144-.143-.145-.145-.143-.144-.144-.144-.072-.144-.145-.216-.071-.144-.143-.216-.073-.144-.072-.216-.072-.144v-.216l-.072-.216v-.216l-.073-.216v-.36l.073-.216v-.216l.072-.217v-.215l.072-.144.072-.216.073-.143.143-.217.071-.144.145-.143.072-.217.144-.145.143-.143.145-.144.144-.144.216-.073.144-.143.217-.144.143-.072.216-.144.216-.073.143-.071.217-.071.216-.073.288-.072h.216l.216-.072h.216l.288-.072h.504V228.2h-1.081l-.214.072h-.217l-.144.072h-.216l-.216.072h-.216l-.144.071-.217.073h-.214l-.145.072-.216.072-.143.072-.217.073-.216.071-.143.072-.145.071-.216.073-.143.072-.145.145-.217.071-.142.072-.145.144-.144.072-.216.072-.144.145-.144.071-.144.144-.288.216-.217.287-.287.217-.217.287-.214.289-.217.288-.216.289-.144.359-.072.145-.144.143-.073.216v.144l-.071.144-.072.216-.072.144v.216l-.072.144v.216l-.072.144v.36l-.072.216v.72l.072.216v.36l.072.145v.214l.072.145v.216l.072.143.072.217.071.144v.143l.073.217.144.145.072.143.144.288.216.36.217.288.214.288.217.217.287.287.217.216.288.288.144.072.144.144.144.072.216.144.144.072.145.144.142.072.217.072.145.072.143.144.216.072.145.072.214.072.145.072.217.072.143.072.216.072h.145l.214.072.217.072h.144l.216.072.216.072h.36l.217.072h.431l.216.072h.576zm0 13.32h-9.504a1.59 1.59 0 1 0 0 3.168h9.504zm-3.24-8.856v4.392a1.86 1.86 0 0 0 1.872 1.872c.504 0 1.008-.216 1.368-.504v-9h-13.463c-.866 0-1.584.72-1.584 1.656 0 .864.718 1.584 1.584 1.584zm3.24-18.432v3.024h.432l.216.072h.288l.216.072h.217l.214.072.217.073.216.071.216.071.216.145.216.072.144.072.216.144.143.143.145.073.216.144.143.144.145.143.144.145.073.217.142.143.073.144.144.217.072.143.073.216.071.216.072.143v.217l.071.216V235.544l-.071.216v.216l-.072.216-.071.144-.073.216-.072.144-.144.216-.073.144-.142.144-.073.216-.144.144-.145.144-.143.145-.216.143-.145.071-.143.145-.216.145-.144.071-.216.143-.216.073-.216.072-.216.072-.217.072-.214.072-.217.072-.216.071h-.504l-.216.073h-.216v3.024h.576l.216-.072h.36l.217-.072h.431l.216-.072h.144l.216-.072.215-.072.145-.072h.217l.214-.072.145-.072.216-.072.216-.072.144-.072.145-.072.215-.072.144-.144.216-.072.143-.072.145-.072.145-.144.214-.072.145-.144.144-.072.144-.144.144-.072.289-.288.287-.216.217-.287.214-.217.217-.288.216-.288.216-.36.144-.288.144-.143.072-.145.071-.217.073-.143.072-.144v-.217l.072-.143.072-.216v-.145l.072-.214v-.362l.072-.143v-1.152l-.072-.144v-.36l-.072-.216v-.144l-.072-.216-.072-.144v-.216l-.072-.144-.073-.144-.071-.216-.072-.143-.144-.145-.144-.359-.216-.289-.216-.288-.217-.289-.214-.287-.217-.217-.287-.287-.289-.216-.144-.144-.144-.071-.144-.145-.145-.072-.214-.072-.145-.144-.145-.072-.143-.071-.216-.145-.144-.072-.144-.073-.216-.071-.144-.072-.216-.071-.216-.073-.145-.072-.214-.072-.217-.072h-.145l-.215-.073-.216-.071h-.144l-.216-.072h-.217l-.214-.072h-.145l-.217-.072h-.863zm0 24.192c.289-.36.503-.864.503-1.368v-4.392h5.545v8.856h-6.048v3.168h9.72v-12.024h3.384c.864 0 1.584-.72 1.584-1.584 0-.936-.72-1.656-1.584-1.656h-13.104zM232.424 246.632v8.856h-14.76a1.59 1.59 0 0 0-1.728 1.584c0 .864.72 1.584 1.584 1.584h18.576v-12.024h3.384c.864 0 1.584-.72 1.584-1.584 0-.864-.72-1.584-1.584-1.584h-11.016v-3.096h7.992V230c0-.937-.792-1.728-1.8-1.728s-1.8.791-1.8 1.728v7.128h-15.768a1.63 1.63 0 0 0-1.656 1.656c0 .863.72 1.584 1.656 1.584h7.488v3.096h-10.872c-.864 0-1.584.72-1.584 1.584 0 .864.72 1.584 1.584 1.584zM316.592 258.44v-2.736a1.913 1.913 0 0 0-.863-.216h-8.857v-8.928h9.72v-3.24h-13.321v15.336h12.458c.287 0 .576-.072.863-.216m-9.72-29.88v9.648c0 1.008.792 1.872 1.8 1.872s1.872-.864 1.872-1.872V231.8h6.048v-3.24zm9.72 27.144c.431.288.721.792.721 1.368 0 .576-.29 1.08-.721 1.368zm0-12.384v3.24h4.969v10.872c0 1.008.791 1.8 1.798 1.8a1.783 1.783 0 0 0 1.801-1.8v-4.608h3.168c1.008 0 1.872-.864 1.872-1.872s-.864-1.8-1.872-1.8h-3.168c0-3.816-.072-7.128 0-10.944 0-2.376-3.599-2.376-3.599 0v5.112zm0-11.52h8.064c.864 0 1.584-.72 1.584-1.656 0-.864-.72-1.584-1.584-1.584h-8.064zM404.216 258.44v-2.736a1.451 1.451 0 0 0-.792-.216h-8.856v-8.928h9.648v-3.24h-13.248v15.336h12.456c.288 0 .576-.072.792-.216m-9.648-29.88v9.648c0 1.008.791 1.872 1.8 1.872 1.008 0 1.872-.864 1.872-1.872V231.8h5.976v-3.24zm9.648 27.144c.505.288.792.792.792 1.368 0 .576-.287 1.08-.792 1.368zm0-12.384v3.24h5.04v10.872c0 1.008.792 1.8 1.801 1.8.935 0 1.798-.792 1.798-1.8v-4.608h3.168c1.009 0 1.873-.864 1.873-1.872s-.864-1.8-1.873-1.8h-3.168c0-3.816-.071-7.128 0-10.944 0-2.376-3.599-2.376-3.599 0v5.112zm0-11.52h8.136c.864 0 1.584-.72 1.584-1.656 0-.864-.72-1.584-1.584-1.584h-8.136zM281.24 243.104h-.792l-.36.072-.432.072-.36.072-.36.144-.432.072-.359.144-.361.216-.288.144-.359.216-.362.216-.287.216-.288.216-.288.216-.288.288-.288.216-.216.288-.288.288-.216.36-.216.288-.216.36-.144.288-.144.36-.144.36-.145.36-.143.36-.071.36-.073.432-.072.36v1.512l.072.432.073.36.071.36.143.36.145.36.144.36.144.36.144.36.216.288.216.36.216.288.288.288.216.288.288.288.288.216.288.288.288.216.287.216.362.216.359.144.288.216.361.144.359.144.432.144.36.072.36.072.432.072.36.072h.792v-3.096h-.217l-.214-.072h-.217l-.216-.072h-.216l-.217-.072-.214-.072-.217-.072-.216-.144-.144-.072-.216-.144-.215-.072-.145-.144-.144-.144-.216-.144-.144-.144-.144-.144-.144-.216-.143-.144-.145-.216-.072-.144-.145-.216-.071-.216-.144-.216-.072-.216-.072-.216-.072-.216v-.216l-.073-.216v-.432l-.071-.216.071-.288v-.432l.073-.216v-.216l.072-.216.072-.216.072-.216.144-.216.071-.216.145-.144.072-.216.145-.216.143-.144.144-.144.144-.144.144-.216.216-.144.144-.072.145-.144.215-.144.216-.144.144-.072.216-.072.217-.072.214-.144h.217l.216-.072.216-.072h.648zm-.288-1.296h.288V228.56h-2.088v11.52c0 .936.791 1.728 1.8 1.728m7.344 5.328-.144-.288-.216-.288-.215-.36-.289-.288-.216-.288-.288-.216-.287-.288-.289-.216-.288-.216-.289-.216-.359-.216-.359-.216-.289-.144-.36-.216-.431-.144-.361-.072-.36-.144-.36-.072-.432-.072-.36-.072h-.864v3.168h.72l.216.072.217.072h.214l.217.144.216.072.216.072.144.072.216.144.216.144.145.144.143.072.216.144.144.216.144.144.144.144.144.144.145.216.071.216.143.144.073.216.072.216.145.216.071.216.072.216v.216l.071.216V251.528l-.071.216v.216l-.072.216-.071.216-.145.216-.072.216-.073.216-.143.216-.071.144-.145.216-.144.144-.144.216-.144.144-.144.144-.216.144-.143.144-.145.144-.216.072-.216.144-.144.072-.216.144-.216.072-.217.072-.214.072h-.217l-.216.072h-.216l-.217.072h-.287v3.096h.864l.36-.072.432-.072.36-.072.36-.072.361-.144.431-.144.36-.144.289-.216.359-.144.359-.216.289-.216.288-.216.289-.288.287-.216.288-.288.216-.288.289-.288.215-.288.216-.36.144-.288zm-7.056-5.328c.864-.144 1.512-.864 1.512-1.728v-1.656h5.544v-3.025h-5.544V231.8h5.544v-3.24h-7.056zm7.056-3.384h5.616v10.944h-4.752v-.072l-.072-.36-.145-.36-.143-.36-.144-.36-.144-.36-.216-.288v-.072 7.416l.216-.36.144-.36.144-.36.143-.36.073-.288h4.896v4.68c0 1.008.792 1.8 1.729 1.8a1.781 1.781 0 0 0 1.798-1.8V228.56h-9.143v3.24h5.616v3.599h-5.616z" style="fill:#0076b4;fill-opacity:1;fill-rule:evenodd;stroke:none"/></g></svg>