<svg xmlns="http://www.w3.org/2000/svg" xml:space="preserve" width="495.34027" height="299.98279" viewBox="0 0 495.34028 299.98279"><path d="M-22.499 68.666h-44.557v44.52h11.122V79.783H-22.5z" style="fill:#9c9a93;fill-opacity:1;fill-rule:nonzero;stroke:none;stroke-width:1.11209" transform="matrix(1.33333 0 0 -1.33333 132.818 348.816)"/><path d="M194.959 229.05h44.556v-44.518h-11.12v33.403h-33.436Z" style="fill:#f47216;fill-opacity:1;fill-rule:nonzero;stroke:none;stroke-width:1.11209" transform="matrix(1.33333 0 0 -1.33333 132.818 348.816)"/><path d="M162.807 149.19c0 11.049-2.348 20.555-7.027 28.518-5.084 8.662-12.4 14.578-21.965 17.765-4.986 1.695-10.71 2.546-17.185 2.546H82.906c-.008-.002-.013-.007-.022-.007-.77-.002-1.9-.002-3.503-.002-5.156 0-9.067-3.571-9.067-8.732V99.457h51.395c13.243 0 23.56 4.928 30.933 14.787 6.77 9.056 10.165 20.71 10.165 34.946m-30.103-.046c0-9.45-1.696-16.326-5.086-20.601-3.384-4.283-10.02-6.423-17.499-6.423H99.214v53.296h9.557c7.481 0 14.365-2.478 18.256-7.457 3.783-4.583 5.677-10.847 5.677-18.815zM208.659 198.019v-89.821c0-5.163-3.913-8.731-9.072-8.731-3.451 0-3.59-.01-3.59-.01l-17.345.003v89.818c0 5.165 3.905 8.734 9.067 8.734zM60.697 99.457l-36.283 52.416 36.06 46.146h-34.04l-32.638-41.362v41.362l-20.94-.007c-5.154 0-9.067-3.57-9.067-8.734V99.46l16.151-.003s1.335.01 4.79.01c5.154 0 9.066 3.568 9.066 8.73v38.227L26.07 99.457Z" style="fill:#59564f;fill-opacity:1;fill-rule:nonzero;stroke:none;stroke-width:1.11209" transform="matrix(1.33333 0 0 -1.33333 132.818 348.816)"/></svg>