<svg xmlns="http://www.w3.org/2000/svg" xml:space="preserve" width="383.21826" height="90.967995" viewBox="0 0 383.21826 90.967995"><path d="M332.998 297.221c0 15.823 12.785 28.66 28.586 28.746v5.367c-18.766-.088-33.952-15.325-33.952-34.113 0-18.787 15.186-34.025 33.952-34.113v5.365c-15.801.088-28.586 12.926-28.586 28.748" style="fill:#ec6707;fill-opacity:1;fill-rule:nonzero;stroke:none" transform="matrix(1.33333 0 0 -1.33333 -387.194 441.779)"/><path d="m315.894 309.961-1.333-1.737s2.68-.797 3.006-.936v-22.807h5.309v25.48zM315.134 284.481c-1.25 1.32-13.262 13.327-13.262 13.327s9.93 10.852 11.102 12.153h-5.82c-.214-.23-7.19-7.469-8.723-9.118v9.118h-6.702l-1.334-1.737s2.681-.797 3.006-.936v-22.807h5.03v10.133c1.581-1.697 9.802-9.908 10.011-10.133z" style="fill:#164194;fill-opacity:1;fill-rule:nonzero;stroke:none" transform="matrix(1.33333 0 0 -1.33333 -387.194 441.779)"/><path d="M348.313 295.71h9.814v4.121h-9.814v5.808h10.702v4.322h-17.359l-1.206-1.785s2.574-.788 2.894-.929v-22.766h16.91v4.368h-11.94zM361.647 309.961v-4.272h7.356v-21.208h5.062v21.208h7.401v4.272z" style="fill:#ec6707;fill-opacity:1;fill-rule:nonzero;stroke:none" transform="matrix(1.33333 0 0 -1.33333 -387.194 441.779)"/><path d="m398.42 277.577-1.527 2.357a5.905 5.905 0 0 1-.211-.242l-.185-.205v-1.902h-.702v5.101h.702v-2.099c.246.295.522.635.823 1.02.307.384.569.747.79 1.087h.853c-.254-.4-.52-.783-.798-1.154a70.617 70.617 0 0 0-.772-1l1.87-2.963zM402.287 278.786c.2.352.302.801.302 1.35 0 .54-.103.982-.302 1.33-.2.35-.475.523-.816.523-.352 0-.625-.174-.825-.523-.198-.348-.297-.79-.297-1.33 0-.549.1-.998.297-1.35.2-.35.473-.527.825-.527.341 0 .615.177.816.527m.541 3.283c.337-.496.505-1.142.505-1.933 0-.793-.168-1.44-.505-1.942-.338-.498-.79-.75-1.357-.75-.57 0-1.024.252-1.364.75-.337.502-.508 1.15-.508 1.942 0 .791.171 1.437.508 1.933.34.502.794.75 1.364.75.567 0 1.02-.248 1.357-.75M406.308 280.599c.147.12.22.307.22.557 0 .238-.073.422-.22.547a.81.81 0 0 1-.54.185h-.875v-1.467l.875-.008a.8.8 0 0 1 .54.186m.346-3.033-1.125 1.986h-.615v-1.986h-.706v5.117h1.68c.38 0 .704-.146.974-.441.27-.293.406-.657.406-1.086 0-.36-.09-.684-.265-.975-.174-.29-.391-.475-.648-.555l1.162-2.06zM408.164 277.581v5.102h2.847v-.823h-2.146v-1.26h2.043v-.818h-2.043v-1.379l2.207.006v-.828zM413.498 281.647l-.643-2.1h1.272zm-1.246-4.07h-.729l1.561 5.117h.821l1.566-5.11h-.742l-.351 1.155h-1.774zM417.986 282.683h.696v-5.102h-.696zM422.322 277.565l-1.617 3.645-.012-3.645h-.719v5.117h.856l1.644-3.638v3.638h.713v-5.117zM427.33 279.706c.124-.23.175-.508.148-.824a1.587 1.587 0 0 0-.445-1.008c-.27-.293-.647-.439-1.124-.439-.516 0-.923.205-1.226.615-.303.41-.446.832-.427 1.265h.696c0-.289.092-.537.276-.742a.884.884 0 0 1 .681-.308c.244 0 .437.056.567.17a.728.728 0 0 1 .248.44.617.617 0 0 1-.063.425.769.769 0 0 1-.296.29 1.727 1.727 0 0 1-.555.231 2.306 2.306 0 0 0-.602.223c-.26.133-.464.31-.612.54-.148.227-.21.515-.194.858.018.325.145.635.381.934.235.303.598.453 1.087.453.55 0 .941-.205 1.172-.62.228-.417.336-.773.316-1.07h-.694a1.038 1.038 0 0 1-.193.598c-.124.176-.323.262-.59.262-.272 0-.459-.064-.56-.197a.742.742 0 0 1-.163-.42.48.48 0 0 1 .15-.41 1.43 1.43 0 0 1 .367-.248c.143-.063.323-.125.534-.184.213-.059.428-.158.644-.299.194-.123.352-.3.476-.535M429.8 281.847v-4.293l-.71.008v4.285h-1.271v.814h3.253v-.814zM432.029 282.683h.695v-5.102h-.695zM435.639 281.847v-4.293l-.71.008v4.285h-1.273v.814h3.254v-.814zM440.73 279.196c0-.523-.144-.947-.432-1.27-.289-.328-.674-.492-1.16-.492-.488 0-.876.164-1.16.491-.285.324-.428.748-.428 1.271l.006 3.477h.713v-3.24c0-.278.048-.542.144-.796.095-.254.338-.38.724-.38.388 0 .63.128.73.382.097.258.146.522.146.793l-.007 3.241h.724zM443.373 281.847v-4.293l-.713.008v4.285h-1.27v.814h3.256v-.814zM445.315 277.581v5.102h2.848v-.823h-2.146v-1.26h2.043v-.818h-2.043v-1.379l2.204.006v-.828zM453.36 278.786c.201.352.302.801.302 1.35 0 .54-.1.982-.302 1.33-.202.35-.475.523-.818.523-.353 0-.626-.174-.823-.523-.198-.348-.297-.79-.297-1.33 0-.549.1-.998.297-1.35.197-.35.47-.527.823-.527.343 0 .616.177.818.527m.54 3.283c.336-.496.505-1.142.505-1.933 0-.793-.169-1.44-.505-1.942-.336-.498-.79-.75-1.358-.75-.57 0-1.024.252-1.362.75-.339.502-.508 1.15-.508 1.942 0 .791.17 1.437.508 1.933.338.502.792.75 1.362.75.568 0 1.022-.248 1.358-.75M455.861 281.85v-1.331h1.872v-.828h-1.872v-2.12h-.704v5.102h2.852v-.822zM463.818 279.28c-.066-.398-.242-.805-.534-1.219-.29-.41-.705-.617-1.24-.617-.578 0-1.035.252-1.369.75-.336.502-.502 1.15-.502 1.941 0 .791.166 1.438.502 1.934.334.502.791.75 1.368.75.56 0 .982-.213 1.265-.635.281-.424.447-.806.495-1.144l-.766-.008a1.728 1.728 0 0 1-.289.64c-.152.212-.38.317-.684.317-.348 0-.625-.17-.83-.508-.208-.342-.312-.789-.312-1.346 0-.562.104-1.015.311-1.359.206-.344.483-.517.831-.517.29 0 .516.115.677.337.16.225.267.452.317.684zM464.634 277.581v5.102h2.848v-.823h-2.147v-1.26h2.042v-.818h-2.042v-1.379l2.207.006v-.828zM470.647 280.599c.147.12.22.307.22.557 0 .238-.073.422-.22.547a.814.814 0 0 1-.54.185h-.875v-1.467l.875-.008c.212 0 .394.06.54.186m.346-3.033-1.125 1.986h-.613v-1.986h-.708v5.117h1.68c.38 0 .706-.146.974-.441.27-.293.407-.657.407-1.086 0-.36-.089-.684-.266-.975-.176-.29-.39-.475-.648-.555l1.164-2.06zM474.142 281.647l-.643-2.1h1.276zm-1.244-4.07h-.73l1.563 5.117h.818l1.567-5.11h-.74l-.353 1.155h-1.774zM479.879 277.599v2.879l-.811-2.885h-.82l-.811 2.865v-2.86h-.701v5.097h.856l1.074-3.975 1.054 3.975h.854l.006-5.096zM481.721 282.683h.695v-5.102h-.695zM487.144 279.28c-.064-.398-.244-.805-.534-1.219-.294-.41-.708-.617-1.242-.617-.578 0-1.034.252-1.368.75-.335.502-.502 1.15-.502 1.941 0 .791.167 1.438.502 1.934.334.502.79.75 1.368.75.56 0 .981-.213 1.265-.635.282-.424.448-.806.493-1.144l-.763-.008a1.695 1.695 0 0 1-.294.64c-.149.212-.376.317-.68.317-.349 0-.625-.17-.833-.508-.206-.342-.308-.789-.308-1.346 0-.562.102-1.015.308-1.359.208-.344.484-.517.833-.517.29 0 .515.115.677.337.162.225.266.452.316.684zM489.818 277.581v5.102h2.847v-.823h-2.148v-1.26h2.044v-.818h-2.044v-1.379l2.205.006v-.828zM495.908 277.565l-1.618 3.645-.01-3.645h-.72v5.117h.853l1.647-3.638v3.638h.712v-5.117zM500.557 277.585l-.004.516a1.377 1.377 0 0 0-.398-.44 1.061 1.061 0 0 0-.653-.205c-.555 0-1.006.25-1.351.754-.34.502-.511 1.148-.511 1.936 0 .791.166 1.437.502 1.935.333.5.789.748 1.36.748.55 0 .968-.201 1.252-.601.284-.401.458-.774.514-1.118l-.776.006a1.64 1.64 0 0 1-.298.574c-.153.202-.374.305-.663.305-.365 0-.642-.174-.844-.517-.2-.346-.298-.788-.298-1.332 0-.547.098-.997.298-1.344.202-.35.479-.524.844-.524.325 0 .567.139.723.416.159.28.26.549.308.805h-.983v.764h1.712l.005-2.678zM502.486 282.683h.694v-5.102h-.694zM506.751 277.565l-1.62 3.645-.012-3.645h-.717v5.117h.855l1.643-3.638v3.638h.713v-5.117zM508.647 277.581v5.102h2.848v-.823h-2.15v-1.26h2.044v-.818h-2.044v-1.379l2.207.006v-.828zM512.392 277.581v5.102h2.847v-.823h-2.146v-1.26h2.042v-.818h-2.042v-1.379l2.206.006v-.828zM518.229 280.599c.145.12.218.307.218.557 0 .238-.073.422-.218.547a.825.825 0 0 1-.543.185h-.874v-1.467l.874-.008c.212 0 .395.06.543.186m.344-3.033-1.126 1.986h-.614v-1.986h-.707v5.117h1.68c.378 0 .706-.146.974-.441.27-.293.406-.657.406-1.086 0-.36-.088-.684-.265-.975-.174-.29-.391-.475-.65-.555l1.163-2.06zM520.23 282.683h.695v-5.102h-.695zM524.404 277.565l-1.619 3.645-.01-3.645h-.72v5.117h.855l1.645-3.638v3.638h.712v-5.117zM529.05 277.585l-.004.516a1.353 1.353 0 0 0-.398-.44 1.056 1.056 0 0 0-.652-.205c-.556 0-1.008.25-1.348.754-.342.502-.514 1.148-.514 1.936 0 .791.167 1.437.505 1.935.332.5.789.748 1.357.748.55 0 .969-.201 1.256-.601.28-.401.455-.774.51-1.118l-.776.006a1.65 1.65 0 0 1-.296.574c-.155.202-.376.305-.664.305-.363 0-.644-.174-.842-.517-.2-.346-.3-.788-.3-1.332 0-.547.1-.997.3-1.344.198-.35.479-.524.842-.524.327 0 .569.139.723.416.156.28.263.549.312.805h-.987v.764h1.709l.008-2.678zM533.668 281.196a.522.522 0 0 1 .175.328c.018.182-.021.317-.112.404a.448.448 0 0 1-.318.133.439.439 0 0 1-.323-.156c-.096-.105-.122-.246-.078-.422.041-.123.088-.224.142-.305.058-.082.12-.168.189-.259.117.088.225.177.325.277m-.51-1.28a2.361 2.361 0 0 1-.347-.343c-.118-.135-.176-.32-.176-.555 0-.209.054-.375.164-.5a.564.564 0 0 1 .405-.2.86.86 0 0 1 .42.091c.125.066.237.162.351.29zm1.555-2.33-.316.47a2.186 2.186 0 0 0-.612-.462 1.466 1.466 0 0 0-.622-.138c-.351 0-.641.142-.87.424-.231.283-.346.638-.346 1.07 0 .316.071.61.216.877.148.265.335.498.572.691a5.738 5.738 0 0 0-.284.514c-.083.17-.124.353-.124.553 0 .35.096.642.283.882.188.241.467.362.836.362a.982.982 0 0 0 .805-.397c.211-.267.3-.568.271-.908a1.287 1.287 0 0 0-.235-.71 2.28 2.28 0 0 0-.543-.499l.609-.91c.042.117.071.23.088.344.019.11.027.207.027.295h.694a2.9 2.9 0 0 0-.14-.815 4.758 4.758 0 0 0-.192-.539l.758-1.105zM539.02 281.847v-4.293l-.71.008v4.285h-1.271v.814h3.252v-.814zM540.963 277.581v5.102h2.849v-.823h-2.15v-1.26h2.045v-.818h-2.045v-1.379l2.21.006v-.828zM548.19 279.28c-.067-.398-.246-.805-.538-1.219-.292-.41-.705-.617-1.242-.617-.578 0-1.034.252-1.367.75-.333.502-.502 1.15-.502 1.941 0 .791.17 1.438.502 1.934.333.502.79.75 1.367.75.564 0 .984-.213 1.265-.635.286-.424.448-.806.495-1.144l-.765-.008a1.778 1.778 0 0 1-.289.64c-.155.212-.38.317-.688.317-.344 0-.623-.17-.828-.508-.208-.342-.309-.789-.309-1.346 0-.562.101-1.015.31-1.359.205-.344.484-.517.828-.517a.8.8 0 0 1 .682.337c.16.225.266.452.317.684zM551.457 277.565v2.277h-1.739v-2.269h-.708v5.11h.708v-2.01h1.739v2.01h.708l.005-5.118zM555.543 277.565l-1.617 3.645-.013-3.645h-.717v5.117h.853l1.647-3.638v3.638h.712v-5.117zM559.97 278.786c.2.352.303.801.303 1.35 0 .54-.102.982-.303 1.33-.197.35-.474.523-.815.523-.356 0-.624-.174-.826-.523-.197-.348-.294-.79-.294-1.33 0-.549.097-.998.294-1.35.202-.35.47-.527.826-.527.34 0 .618.177.815.527m.542 3.283c.338-.496.506-1.142.506-1.933 0-.793-.168-1.44-.506-1.942-.336-.498-.791-.75-1.357-.75-.571 0-1.024.252-1.362.75-.34.502-.51 1.15-.51 1.942 0 .791.17 1.437.51 1.933.338.502.79.75 1.362.75.566 0 1.02-.248 1.357-.75M561.912 277.599v5.096h.696l.007-4.274h2.048v-.822zM567.654 278.786c.201.352.3.801.3 1.35 0 .54-.099.982-.3 1.33-.203.35-.476.523-.817.523-.354 0-.627-.174-.826-.523-.197-.348-.294-.79-.294-1.33 0-.549.097-.998.294-1.35.2-.35.472-.527.826-.527.341 0 .614.177.817.527m.54 3.283c.336-.496.505-1.142.505-1.933 0-.793-.169-1.44-.505-1.942-.337-.498-.79-.75-1.357-.75-.57 0-1.026.252-1.365.75-.336.502-.506 1.15-.506 1.942 0 .791.17 1.437.506 1.933.34.502.794.75 1.365.75.567 0 1.02-.248 1.357-.75M572.334 277.585l-.002.516a1.365 1.365 0 0 0-.398-.44 1.072 1.072 0 0 0-.654-.205c-.555 0-1.006.25-1.349.754-.341.502-.511 1.148-.511 1.936 0 .791.165 1.437.498 1.935.338.5.792.748 1.362.748.552 0 .972-.201 1.252-.601.286-.401.459-.774.516-1.118l-.776.006a1.67 1.67 0 0 1-.301.574c-.149.202-.373.305-.66.305-.364 0-.648-.174-.843-.517-.2-.346-.3-.788-.3-1.332 0-.547.1-.997.3-1.344.195-.35.479-.524.843-.524.323 0 .566.139.724.416.156.28.26.549.307.805h-.984v.764h1.71l.008-2.678zM575.727 279.497v-1.902h-.65l-.005 1.902-1.414 3.143h.727l1.012-2.235 1.02 2.235h.73zM454.791 309.177s.688-.204.89-.273v-20.519h2.492v21.333h-2.967zm38.363-16.7h10.373v-6.322h2.574v8.443h-12.947zm-12.21 17.241h-2.995l-.417-.54s.698-.208.894-.276V288.44h2.518v12.258h3.37v2.147h-3.37zm-11.805-12.549-2.333-.027v3.74h7.029v7.668h-9.63v-2.2h7.059v-3.424h-7.083v-7.958h3.924c1.094 0 2.529.06 4.297.185 1.771.123 3.245.291 4.43.504v2.122a41.157 41.157 0 0 0-4.166-.463 84.284 84.284 0 0 0-3.527-.147m33.523 12.008s.693-.206.892-.275V296.02h2.547v13.698h-3.024zm22.664 0s.703-.209.895-.275V288.36h2.574v21.358h-3.054zm41.126-20.817v3.815h-3.053l-.416-.54s.703-.208.894-.277v-5.26h13.932v2.262zm-2.601 8.324v-3.263h2.628v3.343c1.361.07 2.678.153 3.953.251 1.27.097 2.27.2 2.997.306v1.99c-1.238-.144-2.972-.28-5.199-.41a101.308 101.308 0 0 0-6.023-.202h-4.404v-2.043l5.332.028zm-51.714 9.784h7.187c-.123-1.062-.292-1.993-.943-3.408-.457-1.004-1.145-1.889-1.922-2.72a15.958 15.958 0 0 0-2.652-2.309 19.14 19.14 0 0 0-3.078-1.75l1.592-1.618a20.198 20.198 0 0 1 4.113 2.465 15.792 15.792 0 0 1 3.104 3.211 14.24 14.24 0 0 1 1.935 3.73c.459 1.333.724 3.141.797 4.645h-10.133zm21.564-8.75h8.886v-1.838h-5.252v-2.23h10.374v-1.62h-10.374v-5.94h13.788v2.288h-11.03v1.767h10.348v5.735h-5.122v1.838h8.833v2.226h-20.451zm-37.336 2.27h-5.305v6.472h5.305zm2.572 8.695h-10.478v-10.947h10.478zm-104.791-7.277c0 .884.315 1.658.943 2.321.628.663 1.348.996 2.162.996.814 0 1.535-.333 2.162-.996.628-.663.942-1.437.942-2.32 0-.868-.314-1.627-.942-2.283-.627-.654-1.348-.982-2.162-.982-.814 0-1.534.328-2.162.982-.628.656-.943 1.415-.943 2.282m7.071-3.926c1.087 1.061 1.631 2.335 1.631 3.82 0 .884-.225 1.692-.676 2.427a6.01 6.01 0 0 1-1.711 1.818h3.662v2.122h-5.44v2.678h-3.26l-.415-.539s.694-.208.89-.275v-1.864h-5.571v-2.122h3.687a6.316 6.316 0 0 1-1.658-1.818 4.547 4.547 0 0 1-.675-2.427c0-1.485.538-2.759 1.617-3.82 1.079-1.062 2.397-1.593 3.953-1.593 1.557 0 2.879.531 3.966 1.593m137.922 4.275c.673.307 1.316.656 1.937 1.047.581.371 1.123.777 1.618 1.221.494.441.91.927 1.245 1.458a7.203 7.203 0 0 1 1.315-1.512 14.083 14.083 0 0 1 1.683-1.272 15.377 15.377 0 0 1 1.898-1.022 17.864 17.864 0 0 1 1.869-.73l1.222 1.778c-.691.194-1.435.476-2.229.85-.797.37-1.529.83-2.201 1.377a7.91 7.91 0 0 0-1.513 1.711 3.705 3.705 0 0 0-.61 2.057v.98h-3.427l-.414-.539s.704-.21.896-.277v-.164c0-.744-.195-1.425-.583-2.043a6.812 6.812 0 0 0-1.511-1.672 10.503 10.503 0 0 0-2.244-1.392 21.238 21.238 0 0 0-2.269-.914l1.302-1.752c.672.23 1.344.5 2.016.81m-140.725-8.334h-3.053l-.416-.54s.709-.21.898-.277v-6.478h13.717v2.201h-11.146zm52.206 15.344s.699-.209.894-.276v-5.687h-3.341v-2.234h3.341v-11.612h2.385v20.35h-2.865zm112.475-2.068c.61.593 1.323.89 2.135.89.832 0 1.549-.297 2.151-.89a2.888 2.888 0 0 0 .901-2.135c0-.83-.3-1.543-.901-2.136a2.958 2.958 0 0 0-2.151-.888c-.812 0-1.525.295-2.135.888-.612.593-.914 1.306-.914 2.136 0 .831.302 1.544.914 2.135m2.135-7.254c1.557 0 2.88.5 3.967 1.498 1.088 1 1.63 2.198 1.63 3.595 0 1.414-.542 2.62-1.63 3.608-1.087.991-2.41 1.486-3.967 1.486-1.554 0-2.872-.495-3.953-1.486-1.076-.989-1.617-2.194-1.617-3.608 0-1.397.541-2.595 1.617-3.595 1.081-.999 2.399-1.498 3.953-1.498m9.366-3.636h-4.989v-2.015h4.989v-1.785h2.546v17.711h-3.026l-.415-.54s.703-.21.895-.276zm-142.94 8.538c.194 1.73.276 3.03.24 4.318h-13.265v-2.226h10.558c.036-.832-.031-1.722-.199-3.103-.168-1.379-.383-2.51-.65-3.393h-13.052v-2.252h8.756v-3.079h-5.651v-2.15h11.116v-6.305h2.571v8.455h-5.305v3.08h8.675v2.251h-4.535c.3 1.202.547 2.67.741 4.404m-22.786 5.364h-3.018l-.415-.54s.686-.204.888-.272v-15.822h2.545v7.472h3.369v2.238h-3.369zm38.96-11.412a8.944 8.944 0 0 0-1.206 1.99 8.886 8.886 0 0 0-.704 2.322 16.498 16.498 0 0 0-.199 2.638v3.476h-3.18l-.415-.54s.693-.206.891-.276v-2.713c0-.972-.071-1.858-.213-2.654a10.877 10.877 0 0 0-.664-2.28 9.94 9.94 0 0 0-1.313-2.122c-.54-.674-1.216-1.37-2.029-2.096l1.751-1.594a9.68 9.68 0 0 1 1.14 1.035c.407.426.804.885 1.194 1.381.353.442.668.884.941 1.326.276.441.483.848.623 1.22a5.94 5.94 0 0 1 .598-1.22c.273-.442.579-.884.917-1.326.352-.442.727-.854 1.127-1.234a9.399 9.399 0 0 1 1.128-.942l1.459 1.753a12.371 12.371 0 0 0-1.846 1.856" style="fill:#4a4949;fill-opacity:1;fill-rule:nonzero;stroke:none" transform="matrix(1.33333 0 0 -1.33333 -387.194 441.779)"/></svg>