<svg xmlns="http://www.w3.org/2000/svg" xml:space="preserve" width="685.57831" height="400" viewBox="0 0 685.5783 400"><path d="M0 0h612v357H0Z" style="fill:#130657;fill-opacity:1;fill-rule:nonzero;stroke:none" transform="matrix(.55585 0 0 -.55585 50.392 741.125)"/><path d="M0 0v-.235c-3.954-1.504-3.475-10.271-3.475-13.84v-29.917c0-3.573-.479-9.352 3.475-10.856v-.234h-15.04v.234c3.966 1.426 3.488 7.283 3.488 10.856v29.917c0 3.651.552 12.336-3.488 13.84V0S-8.232-2.957 0 0" style="fill:#fff;fill-opacity:1;fill-rule:nonzero;stroke:none" transform="matrix(.55585 0 0 -.55585 223.372 602.93)"/><path d="M0 0h-15.208v.246c4.043 1.503 3.567 7.364 3.567 10.926v29.933c0 3.557.476 9.337-3.567 10.85v.231H0v-.231c-4.041-1.435-3.564-7.293-3.564-10.85V11.172c0-3.638-.477-9.423 3.564-10.926Zm31.503 0h-7.435c-3.965 0-7.602 1.508-9.031 3.411L-2.536 27.088 7.827 40.935c2.615 3.727 7.361 8.639 2.069 11.02v.231h14.319v-.083L5.932 28.665 21.997 7.687c2.456-3.242 5.469-5.47 9.506-7.441V0" style="fill:#fff;fill-opacity:1;fill-rule:nonzero;stroke:none" transform="matrix(.55585 0 0 -.55585 177.07 633.623)"/><path d="M0 0c0-8.479-8.856-16.396-21.215-16.396-4.828 0-9.658.716-14.165 2.382l-2.307 9.888c4.684-4.032 11.159-6.567 17.331-6.567 4.529 0 11.335 2.701 11.335 8.234 0 12.353-27.245 10.139-27.245 27.006 0 9.969 10.223 13.766 19.876 13.766 3.953 0 7.997-.552 11.81-1.744v-8.947c-3.09 3.174-8.007 4.993-12.44 4.993-4.516 0-10.213-1.749-10.213-7.207C-27.233 14.482 0 14.64 0 0" style="fill:#fff;fill-opacity:1;fill-rule:nonzero;stroke:none" transform="matrix(.55585 0 0 -.55585 246.16 625.911)"/><path d="M0 0a5.21 5.21 0 0 0-7.157 1.738 5.214 5.214 0 0 0 1.738 7.154l-.096-.009c-6.581-4.008-8.652-12.597-4.646-19.174 2.419-3.972 6.511-6.3 10.817-6.645 2.83-.228 5.758.407 8.364 1.997l.065.054a8.688 8.688 0 0 1 1.763 13.414A8.694 8.694 0 0 1 1.043.488S.47.29 0 0" style="fill:#d61f26;fill-opacity:1;fill-rule:nonzero;stroke:none" transform="matrix(.55585 0 0 -.55585 218.562 592.395)"/><path d="m0 0-15.71 41.443c-.748 2.22-.772 3.467 1.948 4.696v.231h-6.596V34.171l7.405-20.139h-7.405V7.378H-11.373l2.601-8.174c.43-1.302.99-4.434-1.522-4.831v-.237H5.181v.222C1.908-4.424.758-1.979 0 0m-26.96 46.37v-.231c2.723-1.229 2.697-2.476 1.949-4.696L-40.721 0c-.759-1.979-1.909-4.424-5.18-5.642v-.222h15.473v.237c-2.511.397-1.951 3.529-1.521 4.831l2.6 8.174H-20.363v6.654h-7.405l7.405 20.139V46.37h-.032z" style="fill:#fff;fill-opacity:1;fill-rule:nonzero;stroke:none" transform="matrix(.55585 0 0 -.55585 269.467 630.351)"/><path d="m0 0-4.03-9.189c-3.718-1.743-7.917-2.381-12.027-2.381-18.693 0-30.246 10.462-30.246 27.402 0 16.471 11.553 27.317 27.782 27.317 4.834 0 9.75-.875 14.491-1.984v-9.107c-4.433 2.771-9.507 4.512-14.721 4.512-10.938 0-18.536-8.08-18.536-19.558 0-11.637 7.922-22.007 20.114-22.007 5.94 0 11.964 2.143 16.947 4.995z" style="fill:#fff;fill-opacity:1;fill-rule:nonzero;stroke:none" transform="matrix(.55585 0 0 -.55585 215.596 628.62)"/><path d="M0 0h-4.494L.908 6.206h4.49z" style="fill:#fff;fill-opacity:1;fill-rule:nonzero;stroke:none" transform="matrix(.55585 0 0 -.55585 220.79 644.753)"/><path d="M0 0h4.487L-.911-6.202h-4.488Z" style="fill:#fff;fill-opacity:1;fill-rule:nonzero;stroke:none" transform="matrix(.55585 0 0 -.55585 223.081 644.398)"/><path d="M306.53 173.371h-94.653v.655h94.653zM400.122 173.371H310.69v.655h89.432z" style="fill:#fff;fill-opacity:1;fill-rule:nonzero;stroke:none" transform="matrix(.55585 0 0 -.55585 50.392 741.125)"/><path d="M0 0h-6.804v-15.398c0-1.366-.706-2.039-2.094-2.039h-3.21v27.579c0 2.582-.593 4.647-1.808 6.129h7.112V3.163H0Zm-6.538-35.784h-21.15c-.534 0-1 .214-1.411.612-.408.427-.631.899-.631 1.413v10.19c0 2.172-.453 4.011-1.411 5.519h6.715v-14.537h17.888v-3.197M-23.421-.946c0 2.129-.561 3.986-1.719 5.546-1.132 1.544-2.47 2.339-4.021 2.339-1.493 0-2.828-.795-3.96-2.339-1.15-1.56-1.72-3.417-1.72-5.546 0-2.098.57-3.935 1.72-5.498 1.132-1.541 2.467-2.328 3.96-2.328 1.551 0 2.889.787 4.021 2.328 1.158 1.563 1.719 3.4 1.719 5.498m-8.546 11.424v1.742c0 1.161-.235 2.338-.68 3.497h6.191v-5.239h8.666v-3.21h-4.218c2.482-2.178 3.705-4.914 3.705-8.214 0-2.998-1.064-5.587-3.203-7.742-2.138-2.161-4.689-3.241-7.655-3.241-2.958 0-5.519 1.08-7.652 3.241-2.14 2.155-3.207 4.744-3.207 7.742 0 3.258 1.235 6.002 3.716 8.214h-4.165v3.21h8.502" style="fill:#fff;fill-opacity:1;fill-rule:nonzero;stroke:none" transform="matrix(.55585 0 0 -.55585 160.263 663.941)"/><path d="M0 0c0-1.361-.692-2.032-2.1-2.032h-3.201v15.425h-18.793V16.6H0Zm-5.186 29.701c.428 2.707.631 7.948.631 15.704h-19.539v3.207H.847c-.03-9.222-.679-15.541-1.93-18.911h9.857v-3.2H-9.398V16.6h-5.295v9.901h-18.18v3.2h27.687" style="fill:#fff;fill-opacity:1;fill-rule:nonzero;stroke:none" transform="matrix(.55585 0 0 -.55585 179.09 682.863)"/><path d="M270.437 149.708h-13.515v-10.476h13.515zm5.286-13.683h-22.01c-.556 0-1.046.195-1.458.595-.407.399-.625.864-.625 1.424v9.35c0 2.181-.461 4.035-1.401 5.518h25.494v-16.887m.276-32.922h-22.566c-.565 0-1.04.202-1.462.626-.41.414-.613.878-.613 1.392v7.89c0 2.166-.472 4.016-1.418 5.515h6.691v-12.211h19.368v-3.212m8.509 23.015h-16.443v-9.07c0-1.335-.667-2.008-2.024-2.008h-3.272v11.078h-19.914v3.214h41.653v-3.214" style="fill:#fff;fill-opacity:1;fill-rule:nonzero;stroke:none" transform="matrix(.55585 0 0 -.55585 50.392 741.125)"/><path d="M0 0c0 1.589-.527 2.995-1.548 4.223-1.043 1.24-2.248 1.852-3.622 1.852-1.392 0-2.61-.612-3.662-1.852C-9.866 2.995-10.391 1.589-10.391 0c0-1.566.525-2.98 1.559-4.221 1.052-1.235 2.27-1.862 3.662-1.862 1.374 0 2.579.627 3.622 1.862C-.527-2.98 0-1.566 0 0m11.515-14.594V10.02c0 2.582-.619 4.647-1.822 6.128h7.12V-.506H23.6v-3.221h-6.787v-23.085c0-1.35-.674-2.035-2.039-2.035h-3.259v11.86C6.333-18.09.963-18.631-4.587-18.631h-14.371v3.2h11.249v6.536c-2.222.546-4.064 1.614-5.558 3.279-1.487 1.642-2.222 3.539-2.222 5.641 0 2.855 1.282 5.224 3.852 7.112h-5.287v3.194h8.964v1.199a8.256 8.256 0 0 1-.766 3.505h6.31v-4.704h8.95V7.137H1.292C3.843 5.289 5.106 2.918 5.106.025c0-2.102-.75-3.999-2.217-5.641C1.398-7.281-.456-8.349-2.67-8.895v-6.536h1.911c5.098 0 9.189.276 12.274.837" style="fill:#fff;fill-opacity:1;fill-rule:nonzero;stroke:none" transform="matrix(.55585 0 0 -.55585 220.427 663.873)"/><path d="M0 0c0-1.35-.682-2.02-2.064-2.02h-3.323v12.772h-8.673v3.207h8.673v5.797c0 2.505-.62 4.544-1.866 6.129H0Zm-6.007-15.647c0 2.183-.642 4.017-1.912 5.514-1.274 1.501-2.769 2.253-4.515 2.253-1.721 0-3.21-.752-4.501-2.253-1.273-1.497-1.903-3.331-1.903-5.514 0-2.141.63-3.96 1.903-5.46 1.291-1.497 2.78-2.253 4.501-2.253 1.746 0 3.241.756 4.515 2.253 1.27 1.5 1.912 3.319 1.912 5.46m5.401 0c0-2.999-1.161-5.541-3.462-7.65-2.304-2.102-5.093-3.148-8.366-3.148-3.246 0-6.034 1.046-8.351 3.148-2.301 2.109-3.456 4.651-3.456 7.65 0 3.002 1.155 5.553 3.456 7.679 2.317 2.124 5.105 3.18 8.351 3.18 3.273 0 6.062-1.056 8.366-3.18 2.301-2.126 3.462-4.677 3.462-7.679m-19.861 25.72c4.24-2.78 7.423-5.012 9.57-6.695l-4.564-3.715c-1.649 1.839-4.076 4.441-7.26 7.82-2.666-2.856-6.01-5.632-10.018-8.339L-35.1 1.305c3.028 2.045 5.7 4.581 7.992 7.583 2.547 3.346 4.055 6.593 4.504 9.735h-10.974v3.211h18.002c-.18-3.897-1.826-7.817-4.891-11.761" style="fill:#fff;fill-opacity:1;fill-rule:nonzero;stroke:none" transform="matrix(.55585 0 0 -.55585 254.88 669.285)"/><path d="M401.453 142.225h-14.627v-7.937h14.627zm-14.627 3.266h14.627v3.821c0 1.682-.298 3.168-.901 4.451h6.197v-22.742h-9.97v-9.73h18.178v-3.266h-41.641v3.266h18.18v9.73h-7.932c-.535 0-1.007.212-1.404.623-.409.413-.638.898-.638 1.475v15.354c0 1.873-.378 3.554-1.161 5.004h6.465v-7.986" style="fill:#fff;fill-opacity:1;fill-rule:nonzero;stroke:none" transform="matrix(.55585 0 0 -.55585 50.392 741.125)"/><path d="M0 0h-22.008c-.552 0-1.043.214-1.453.611-.424.427-.618.9-.618 1.414v10.189c0 2.105-.496 3.938-1.467 5.519h6.806V3.196H0V0" style="fill:#fff;fill-opacity:1;fill-rule:nonzero;stroke:none" transform="matrix(.55585 0 0 -.55585 303.195 683.811)"/><path d="M0 0c0 1.98-.584 3.643-1.735 5.002-1.157 1.36-2.511 2.043-4.093 2.043-1.564 0-2.912-.683-4.084-2.043C-11.065 3.643-11.638 1.98-11.638 0c0-1.941.573-3.591 1.726-4.953 1.172-1.356 2.52-2.043 4.084-2.043 1.582 0 2.936.687 4.093 2.043C-.584-3.591 0-1.941 0 0m4.898 0c0-2.719-1.053-5.026-3.139-6.938-2.093-1.907-4.621-2.855-7.587-2.855-2.944 0-5.474.948-7.577 2.855-2.083 1.912-3.134 4.219-3.134 6.938 0 2.724 1.051 5.037 3.134 6.966 2.103 1.927 4.633 2.883 7.577 2.883 2.966 0 5.494-.956 7.587-2.883C3.845 5.037 4.898 2.724 4.898 0" style="fill:#fff;fill-opacity:1;fill-rule:nonzero;stroke:none" transform="matrix(.55585 0 0 -.55585 293.553 660.333)"/><path d="M0 0v-3.213h11.773v-8.058h2.898c1.204 0 1.794.672 1.794 2.009v6.049h11.787V0Z" style="fill:#fff;fill-opacity:1;fill-rule:nonzero;stroke:none" transform="matrix(.55585 0 0 -.55585 282.467 666.634)"/><path d="M0 0c1.011-1.608 1.517-3.739 1.517-6.414v-5.512h-5.622v-3.207h5.622v-17.439h2.694c1.391 0 2.095.669 2.095 2.014V0Z" style="fill:#fff;fill-opacity:1;fill-rule:nonzero;stroke:none" transform="matrix(.55585 0 0 -.55585 299.69 654.878)"/><path d="M0 0v-.235c-3.954-1.503-3.475-10.27-3.475-13.839v-29.918c0-3.573-.479-9.351 3.475-10.855v-.234h-15.04v.234c3.966 1.426 3.488 7.282 3.488 10.855v29.918c0 3.651.552 12.336-3.488 13.839V0S-8.232-2.957 0 0" style="fill:#130657;fill-opacity:1;fill-rule:nonzero;stroke:none" transform="matrix(2.29974 0 0 -2.29974 354.748 64.04)"/><path d="M0 0h-15.208v.246c4.043 1.503 3.567 7.364 3.567 10.926v29.933c0 3.557.476 9.337-3.567 10.851v.229H0v-.229c-4.041-1.436-3.564-7.294-3.564-10.851V11.172c0-3.637-.477-9.423 3.564-10.926Zm31.503 0h-7.435c-3.965 0-7.602 1.508-9.031 3.411L-2.536 27.088 7.827 40.935c2.615 3.727 7.361 8.639 2.069 11.021v.229h14.319v-.082L5.932 28.666 21.997 7.687c2.456-3.242 5.469-5.471 9.506-7.441V0" style="fill:#130657;fill-opacity:1;fill-rule:nonzero;stroke:none" transform="matrix(2.29974 0 0 -2.29974 163.178 191.028)"/><path d="M0 0c0-8.479-8.856-16.396-21.215-16.396-4.828 0-9.658.716-14.165 2.383l-2.307 9.888c4.684-4.033 11.159-6.568 17.331-6.568 4.529 0 11.335 2.701 11.335 8.235 0 12.352-27.245 10.138-27.245 27.005 0 9.969 10.223 13.766 19.876 13.766 3.953 0 7.997-.553 11.81-1.743v-8.948c-3.09 3.174-8.007 4.993-12.44 4.993-4.516 0-10.213-1.748-10.213-7.207C-27.233 14.482 0 14.64 0 0" style="fill:#130657;fill-opacity:1;fill-rule:nonzero;stroke:none" transform="matrix(2.29974 0 0 -2.29974 449.028 159.12)"/><path d="M0 0a5.21 5.21 0 0 0-7.157 1.738 5.215 5.215 0 0 0 1.738 7.154l-.096-.009c-6.581-4.008-8.652-12.598-4.646-19.175 2.419-3.971 6.511-6.299 10.817-6.645 2.83-.227 5.758.407 8.364 1.997l.065.055a8.687 8.687 0 0 1 1.763 13.414A8.694 8.694 0 0 1 1.043.488S.47.29 0 0" style="fill:#d72829;fill-opacity:1;fill-rule:nonzero;stroke:none" transform="matrix(2.29974 0 0 -2.29974 334.846 20.45)"/><path d="m0 0-15.71 41.443c-.748 2.22-.772 3.467 1.948 4.696v.23h-6.596V34.17l7.405-20.138h-7.405V7.377H-11.373l2.601-8.173c.43-1.302.99-4.435-1.522-4.831v-.237H5.181v.222C1.908-4.424.758-1.979 0 0m-26.96 46.369v-.23c2.723-1.229 2.697-2.476 1.949-4.696L-40.721 0c-.759-1.979-1.909-4.424-5.18-5.642v-.222h15.473v.237c-2.511.396-1.951 3.529-1.521 4.831l2.6 8.173H-20.363v6.655h-7.405l7.405 20.138v12.199h-.032z" style="fill:#130657;fill-opacity:1;fill-rule:nonzero;stroke:none" transform="matrix(2.29974 0 0 -2.29974 545.46 177.49)"/><path d="m0 0-4.03-9.189c-3.718-1.743-7.917-2.38-12.027-2.38-18.693 0-30.246 10.461-30.246 27.401 0 16.471 11.553 27.318 27.782 27.318 4.834 0 9.75-.875 14.491-1.985v-9.107c-4.433 2.772-9.507 4.513-14.721 4.513-10.938 0-18.536-8.08-18.536-19.558 0-11.638 7.922-22.008 20.114-22.008 5.94 0 11.964 2.143 16.947 4.995z" style="fill:#130657;fill-opacity:1;fill-rule:nonzero;stroke:none" transform="matrix(2.29974 0 0 -2.29974 322.574 170.325)"/><path d="M0 0h-4.494L.908 6.206h4.49z" style="fill:#130657;fill-opacity:1;fill-rule:nonzero;stroke:none" transform="matrix(2.29974 0 0 -2.29974 344.06 237.077)"/><path d="M0 0h4.487L-.911-6.203h-4.488Z" style="fill:#130657;fill-opacity:1;fill-rule:nonzero;stroke:none" transform="matrix(2.29974 0 0 -2.29974 353.544 235.607)"/><path d="M306.53 535.132h-94.653v.656h94.653zM400.122 535.132H310.69v.656h89.432z" style="fill:#130657;fill-opacity:1;fill-rule:nonzero;stroke:none" transform="matrix(2.29974 0 0 -2.29974 -360.932 1467.756)"/><path d="M0 0h-6.804v-15.398c0-1.365-.706-2.039-2.094-2.039h-3.21v27.579c0 2.581-.593 4.647-1.808 6.128h7.112V3.163H0Zm-6.538-35.784h-21.15c-.534 0-1 .214-1.411.613-.408.426-.631.898-.631 1.413v10.189c0 2.172-.453 4.011-1.411 5.519h6.715v-14.537h17.888v-3.197M-23.421-.946c0 2.129-.561 3.987-1.719 5.546-1.132 1.543-2.47 2.34-4.021 2.34-1.493 0-2.828-.797-3.96-2.34-1.15-1.559-1.72-3.417-1.72-5.546 0-2.098.57-3.935 1.72-5.499 1.132-1.54 2.467-2.328 3.96-2.328 1.551 0 2.889.788 4.021 2.328 1.158 1.564 1.719 3.401 1.719 5.499m-8.546 11.424v1.742c0 1.161-.235 2.337-.68 3.497h6.191v-5.239h8.666v-3.21h-4.218c2.482-2.178 3.705-4.914 3.705-8.214 0-2.998-1.064-5.587-3.203-7.741-2.138-2.162-4.689-3.242-7.655-3.242-2.958 0-5.519 1.08-7.652 3.242-2.14 2.154-3.207 4.743-3.207 7.741 0 3.258 1.235 6.002 3.716 8.214h-4.165v3.21h8.502" style="fill:#130657;fill-opacity:1;fill-rule:nonzero;stroke:none" transform="matrix(2.29974 0 0 -2.29974 93.643 316.463)"/><path d="M0 0h-6.804v-15.398c0-1.365-.706-2.039-2.094-2.039h-3.21v27.579c0 2.581-.593 4.647-1.808 6.128h7.112V3.163H0Zm-6.538-35.784h-21.15c-.534 0-1 .214-1.411.613-.408.426-.631.898-.631 1.413v10.189c0 2.172-.453 4.011-1.411 5.519h6.715v-14.537h17.888v-3.197M-23.421-.946c0 2.129-.561 3.987-1.719 5.546-1.132 1.543-2.47 2.34-4.021 2.34-1.493 0-2.828-.797-3.96-2.34-1.15-1.559-1.72-3.417-1.72-5.546 0-2.098.57-3.935 1.72-5.499 1.132-1.54 2.467-2.328 3.96-2.328 1.551 0 2.889.788 4.021 2.328 1.158 1.564 1.719 3.401 1.719 5.499m-8.546 11.424v1.742c0 1.161-.235 2.337-.68 3.497h6.191v-5.239h8.666v-3.21h-4.218c2.482-2.178 3.705-4.914 3.705-8.214 0-2.998-1.064-5.587-3.203-7.741-2.138-2.162-4.689-3.242-7.655-3.242-2.958 0-5.519 1.08-7.652 3.242-2.14 2.154-3.207 4.743-3.207 7.741 0 3.258 1.235 6.002 3.716 8.214h-4.165v3.21h8.502" style="fill:none;stroke:#130657;stroke-width:.5;stroke-linecap:butt;stroke-linejoin:miter;stroke-miterlimit:10;stroke-dasharray:none;stroke-opacity:1" transform="matrix(2.29974 0 0 -2.29974 93.643 316.463)"/><path d="M0 0c0-1.362-.692-2.033-2.1-2.033h-3.201v15.425h-18.793v3.207H0Zm-5.186 29.701c.428 2.707.631 7.947.631 15.704h-19.539v3.207H.847C.817 39.39.168 33.07-1.083 29.701h9.857V26.5H-9.398v-9.901h-5.295V26.5h-18.18v3.201h27.687" style="fill:#130657;fill-opacity:1;fill-rule:nonzero;stroke:none" transform="matrix(2.29974 0 0 -2.29974 171.539 394.75)"/><path d="M0 0c0-1.362-.692-2.033-2.1-2.033h-3.201v15.425h-18.793v3.207H0Zm-5.186 29.701c.428 2.707.631 7.947.631 15.704h-19.539v3.207H.847C.817 39.39.168 33.07-1.083 29.701h9.857V26.5H-9.398v-9.901h-5.295V26.5h-18.18v3.201h27.687" style="fill:none;stroke:#130657;stroke-width:.5;stroke-linecap:butt;stroke-linejoin:miter;stroke-miterlimit:10;stroke-dasharray:none;stroke-opacity:1" transform="matrix(2.29974 0 0 -2.29974 171.539 394.75)"/><path d="M270.437 511.469h-13.515v-10.475h13.515zm5.286-13.683h-22.01c-.556 0-1.046.195-1.458.595-.407.398-.625.864-.625 1.424v9.349c0 2.182-.461 4.035-1.401 5.519h25.494v-16.887m.276-32.923h-22.566c-.565 0-1.04.202-1.462.627-.41.413-.613.878-.613 1.391v7.891c0 2.166-.472 4.016-1.418 5.515h6.691v-12.21h19.368v-3.214m8.509 23.016h-16.443v-9.07c0-1.336-.667-2.009-2.024-2.009h-3.272v11.079h-19.914v3.213h41.653v-3.213" style="fill:#130657;fill-opacity:1;fill-rule:nonzero;stroke:#130657;stroke-width:.5;stroke-linecap:butt;stroke-linejoin:miter;stroke-miterlimit:10;stroke-dasharray:none;stroke-opacity:1" transform="matrix(2.29974 0 0 -2.29974 -360.932 1467.756)"/><path d="M0 0c0 1.589-.527 2.995-1.548 4.223-1.043 1.24-2.248 1.853-3.622 1.853-1.392 0-2.61-.613-3.662-1.853C-9.866 2.995-10.391 1.589-10.391 0c0-1.567.525-2.98 1.559-4.221 1.052-1.235 2.27-1.862 3.662-1.862 1.374 0 2.579.627 3.622 1.862C-.527-2.98 0-1.567 0 0m11.515-14.594V10.02c0 2.581-.619 4.647-1.822 6.128h7.12V-.506H23.6v-3.221h-6.787v-23.085c0-1.35-.674-2.034-2.039-2.034h-3.259v11.859C6.333-18.089.963-18.631-4.587-18.631h-14.371v3.2h11.249v6.536c-2.222.546-4.064 1.614-5.558 3.278-1.487 1.644-2.222 3.54-2.222 5.642 0 2.855 1.282 5.225 3.852 7.112h-5.287v3.194h8.964v1.199a8.268 8.268 0 0 1-.766 3.506h6.31v-4.705h8.95V7.137H1.292C3.843 5.29 5.106 2.918 5.106.025c0-2.102-.75-3.998-2.217-5.642C1.398-7.281-.456-8.349-2.67-8.895v-6.536h1.911c5.098 0 9.189.276 12.274.837" style="fill:#130657;fill-opacity:1;fill-rule:nonzero;stroke:none" transform="matrix(2.29974 0 0 -2.29974 342.562 316.182)"/><path d="M0 0c0 1.589-.527 2.995-1.548 4.223-1.043 1.24-2.248 1.853-3.622 1.853-1.392 0-2.61-.613-3.662-1.853C-9.866 2.995-10.391 1.589-10.391 0c0-1.567.525-2.98 1.559-4.221 1.052-1.235 2.27-1.862 3.662-1.862 1.374 0 2.579.627 3.622 1.862C-.527-2.98 0-1.567 0 0Zm11.515-14.594V10.02c0 2.581-.619 4.647-1.822 6.128h7.12V-.506H23.6v-3.221h-6.787v-23.085c0-1.35-.674-2.034-2.039-2.034h-3.259v11.859C6.333-18.089.963-18.631-4.587-18.631h-14.371v3.2h11.249v6.536c-2.222.546-4.064 1.614-5.558 3.278-1.487 1.644-2.222 3.54-2.222 5.642 0 2.855 1.282 5.225 3.852 7.112h-5.287v3.194h8.964v1.199a8.268 8.268 0 0 1-.766 3.506h6.31v-4.705h8.95V7.137H1.292C3.843 5.29 5.106 2.918 5.106.025c0-2.102-.75-3.998-2.217-5.642C1.398-7.281-.456-8.349-2.67-8.895v-6.536h1.911c5.098 0 9.189.276 12.274.837" style="fill:none;stroke:#130657;stroke-width:.5;stroke-linecap:butt;stroke-linejoin:miter;stroke-miterlimit:10;stroke-dasharray:none;stroke-opacity:1" transform="matrix(2.29974 0 0 -2.29974 342.562 316.182)"/><path d="M0 0c0-1.35-.682-2.02-2.064-2.02h-3.323v12.771h-8.673v3.207h8.673v5.797c0 2.505-.62 4.544-1.866 6.129H0Zm-6.007-15.648c0 2.184-.642 4.018-1.912 5.515-1.274 1.501-2.769 2.253-4.515 2.253-1.721 0-3.21-.752-4.501-2.253-1.273-1.497-1.903-3.331-1.903-5.515 0-2.141.63-3.959 1.903-5.46 1.291-1.496 2.78-2.253 4.501-2.253 1.746 0 3.241.757 4.515 2.253 1.27 1.501 1.912 3.319 1.912 5.46m5.401 0c0-2.998-1.161-5.541-3.462-7.649-2.304-2.103-5.093-3.149-8.366-3.149-3.246 0-6.034 1.046-8.351 3.149-2.301 2.108-3.456 4.651-3.456 7.649 0 3.002 1.155 5.553 3.456 7.68 2.317 2.124 5.105 3.179 8.351 3.179 3.273 0 6.062-1.055 8.366-3.179 2.301-2.127 3.462-4.678 3.462-7.68m-19.861 25.72c4.24-2.78 7.423-5.011 9.57-6.695l-4.564-3.715c-1.649 1.84-4.076 4.442-7.26 7.821-2.666-2.856-6.01-5.633-10.018-8.34L-35.1 1.304c3.028 2.045 5.7 4.581 7.992 7.584 2.547 3.346 4.055 6.593 4.504 9.734h-10.974v3.212h18.002c-.18-3.898-1.826-7.818-4.891-11.762" style="fill:#130657;fill-opacity:1;fill-rule:nonzero;stroke:none" transform="matrix(2.29974 0 0 -2.29974 485.11 338.572)"/><path d="M0 0c0-1.35-.682-2.02-2.064-2.02h-3.323v12.771h-8.673v3.207h8.673v5.797c0 2.505-.62 4.544-1.866 6.129H0Zm-6.007-15.648c0 2.184-.642 4.018-1.912 5.515-1.274 1.501-2.769 2.253-4.515 2.253-1.721 0-3.21-.752-4.501-2.253-1.273-1.497-1.903-3.331-1.903-5.515 0-2.141.63-3.959 1.903-5.46 1.291-1.496 2.78-2.253 4.501-2.253 1.746 0 3.241.757 4.515 2.253 1.27 1.501 1.912 3.319 1.912 5.46m5.401 0c0-2.998-1.161-5.541-3.462-7.649-2.304-2.103-5.093-3.149-8.366-3.149-3.246 0-6.034 1.046-8.351 3.149-2.301 2.108-3.456 4.651-3.456 7.649 0 3.002 1.155 5.553 3.456 7.68 2.317 2.124 5.105 3.179 8.351 3.179 3.273 0 6.062-1.055 8.366-3.179 2.301-2.127 3.462-4.678 3.462-7.68m-19.861 25.72c4.24-2.78 7.423-5.011 9.57-6.695l-4.564-3.715c-1.649 1.84-4.076 4.442-7.26 7.821-2.666-2.856-6.01-5.633-10.018-8.34L-35.1 1.304c3.028 2.045 5.7 4.581 7.992 7.584 2.547 3.346 4.055 6.593 4.504 9.734h-10.974v3.212h18.002c-.18-3.898-1.826-7.818-4.891-11.762" style="fill:none;stroke:#130657;stroke-width:.5;stroke-linecap:butt;stroke-linejoin:miter;stroke-miterlimit:10;stroke-dasharray:none;stroke-opacity:1" transform="matrix(2.29974 0 0 -2.29974 485.11 338.572)"/><path d="M401.453 503.986h-14.627v-7.937h14.627zm-14.627 3.266h14.627v3.82c0 1.683-.298 3.169-.901 4.451h6.197v-22.741h-9.97v-9.73h18.178v-3.265h-41.641v3.265h18.18v9.73h-7.932c-.535 0-1.007.212-1.404.622-.409.413-.638.899-.638 1.475v15.355c0 1.872-.378 3.554-1.161 5.003h6.465v-7.985" style="fill:#130657;fill-opacity:1;fill-rule:nonzero;stroke:#130657;stroke-width:.5;stroke-linecap:butt;stroke-linejoin:miter;stroke-miterlimit:10;stroke-dasharray:none;stroke-opacity:1" transform="matrix(2.29974 0 0 -2.29974 -360.932 1467.756)"/><path d="M0 0h-22.008c-.552 0-1.043.214-1.453.612-.424.427-.618.899-.618 1.414v10.189c0 2.105-.496 3.937-1.467 5.519h6.806V3.197H0V0" style="fill:#130657;fill-opacity:1;fill-rule:nonzero;stroke:#130657;stroke-width:.5;stroke-linecap:butt;stroke-linejoin:miter;stroke-miterlimit:10;stroke-dasharray:none;stroke-opacity:1" transform="matrix(2.29974 0 0 -2.29974 685.003 398.675)"/><path d="M0 0c0 1.98-.584 3.643-1.735 5.001-1.157 1.361-2.511 2.044-4.093 2.044-1.564 0-2.912-.683-4.084-2.044C-11.065 3.643-11.638 1.98-11.638 0c0-1.941.573-3.591 1.726-4.953 1.172-1.356 2.52-2.043 4.084-2.043 1.582 0 2.936.687 4.093 2.043C-.584-3.591 0-1.941 0 0m4.898 0c0-2.719-1.053-5.026-3.139-6.938-2.093-1.907-4.621-2.855-7.587-2.855-2.944 0-5.474.948-7.577 2.855-2.083 1.912-3.134 4.219-3.134 6.938 0 2.724 1.051 5.037 3.134 6.965 2.103 1.927 4.633 2.883 7.577 2.883 2.966 0 5.494-.956 7.587-2.883C3.845 5.037 4.898 2.724 4.898 0" style="fill:#130657;fill-opacity:1;fill-rule:nonzero;stroke:#130657;stroke-width:.5;stroke-linecap:butt;stroke-linejoin:miter;stroke-miterlimit:10;stroke-dasharray:none;stroke-opacity:1" transform="matrix(2.29974 0 0 -2.29974 645.112 301.535)"/><path d="M0 0v-3.213h11.773v-8.059h2.898c1.204 0 1.794.673 1.794 2.009v6.05h11.787V0Z" style="fill:#130657;fill-opacity:1;fill-rule:nonzero;stroke:none" transform="matrix(2.29974 0 0 -2.29974 599.243 327.606)"/><path d="M0 0v-3.213h11.773v-8.059h2.898c1.204 0 1.794.673 1.794 2.009v6.05h11.787V0Z" style="fill:none;stroke:#130657;stroke-width:.5;stroke-linecap:butt;stroke-linejoin:miter;stroke-miterlimit:10;stroke-dasharray:none;stroke-opacity:1" transform="matrix(2.29974 0 0 -2.29974 599.243 327.606)"/><path d="M0 0c1.011-1.608 1.517-3.739 1.517-6.414v-5.511h-5.622v-3.208h5.622v-17.439h2.694c1.391 0 2.095.669 2.095 2.014V0Z" style="fill:#130657;fill-opacity:1;fill-rule:nonzero;stroke:none" transform="matrix(2.29974 0 0 -2.29974 670.501 278.964)"/><path d="M0 0c1.011-1.608 1.517-3.739 1.517-6.414v-5.511h-5.622v-3.208h5.622v-17.439h2.694c1.391 0 2.095.669 2.095 2.014V0Z" style="fill:none;stroke:#130657;stroke-width:.5;stroke-linecap:butt;stroke-linejoin:miter;stroke-miterlimit:10;stroke-dasharray:none;stroke-opacity:1" transform="matrix(2.29974 0 0 -2.29974 670.501 278.964)"/></svg>