<svg xmlns="http://www.w3.org/2000/svg" width="1059.5413pt" height="224.99998pt" fill-rule="evenodd" viewBox="0 0 1059.5413 224.99998"><path d="M25.627-1375.81s-3.535-4.66 16.645-18.98c0 0 5.032-4.07 11.239.45 0 0 4.83 3.27 2.764 7.86 0 0-3.417 7.84-22.163 11.9-1.491.32-3.523.78-5.371.72 0 0-2.164.01-3.114-1.95z" style="fill:#82c52d;stroke:none" transform="matrix(2.35114 0 0 2.35114 69.865 3387.984)"/><path d="M23.875-1363.4s1.915-4.68 31.578-2.73c0 0 7.9.19 8.18 6.19 0 0 .461 4.52-5.667 6.2 0 0-10.397 2.95-28.798-4.45-1.461-.59-3.478-1.39-4.825-2.4 0 0-1.68-1.13-.467-2.81z" style="fill:#ffa100;stroke:none" transform="matrix(2.35114 0 0 2.35114 69.865 3387.984)"/><path d="M25.965-1414.98s33.8-24.67 43.671-13.7c0 0 11.145 12.79-16.444 20.09 0 0-41.429 7.77-37.223 32.8 0 0 1.013 5.95 2.866 11.97 0 0 4.32 15.2-6.275 18.4 0 0-14.2 3.99-14.187-33.38 0 0 1.108-15.29-10.05-22.48 0 0-10.413-8.58-12.789-9.86 0 0-8.955-6.95-3.472-16.45 0 0 6.213-8.58 17.175 6.03 0 0 13.156 19.18 25.765 12.79 0 0 6.171-3 10.963-6.21z" style="fill:#137ab6;stroke:none" transform="matrix(2.35114 0 0 2.35114 69.865 3387.984)"/><path d="M16.079-1426.94c-1.782 6.18-7.223 10.03-12.141 8.61-4.92-1.42-7.465-7.58-5.68-13.76 1.784-6.18 7.219-10.03 12.143-8.61 4.921 1.42 7.464 7.58 5.678 13.76z" style="fill:#ff4100;stroke:none" transform="matrix(2.35114 0 0 2.35114 69.865 3387.984)"/><path d="M179.171-1418.82h-38.446v4.47h29.666v9.79H138.506v4.42h17.471v5.5h-15.269v4.43h29.65v9.96h.983c1.656 0 3.218-.27 4.679-.8 2.082-.73 3.124-1.79 3.124-3.17v-1.72h.027v-8.7h-14.877v-5.5h17.079v-4.42h-2.202zM219.086-1401h-.003v11.62h.986c1.655 0 3.214-.27 4.679-.79 2.076-.74 3.118-1.8 3.118-3.18v-7.65h-.003v-17.82h-38.446v4.83h29.669z" style="fill:#232f51;stroke:none" transform="matrix(2.35114 0 0 2.35114 69.865 3387.984)"/><path d="M215.102-1405.19h-8.78v17.77h-3.018v-17.77h-8.775v17.77h-7.281v4.33h42.799v-4.33h-14.945zM342.307-1387.4h27.692v-11.14h-36.471v4.53h27.695v2.09h-27.695v6.84c0 1.42.567 2.52 1.7 3.29 1.17.8 2.852 1.2 5.056 1.2h30.033v-4.57h-28.01zM369.999-1419.62h-8.783v19.13h.983c1.659 0 3.216-.27 4.681-.8 2.083-.73 3.119-1.79 3.119-3.17v-2.49h5.016v-4.75h-5.016zM235.651-1397.77h8.927v4.43h-6.476v4.47h29.661v8.59h.982c1.658 0 3.213-.27 4.678-.8 2.081-.73 3.12-1.79 3.12-3.18v-9.08h-6.155v-4.43h8.624v-4.43h-43.361zm18.159 0h7.346v4.43h-7.346zM242.762-1406.05c3.532 1.66 8.391 2.5 14.567 2.5 6.138 0 10.995-.84 14.566-2.5 3.237-1.53 4.859-3.42 4.859-5.65 0-2.26-1.622-4.16-4.859-5.69-3.571-1.64-8.428-2.46-14.566-2.46-6.176 0-11.035.82-14.567 2.46-3.206 1.53-4.808 3.43-4.808 5.69 0 2.23 1.602 4.12 4.808 5.65zm6.535-8.19c1.915-.68 4.559-1.02 7.933-1.02 3.376 0 6.033.34 7.982 1.02 1.76.66 2.641 1.5 2.641 2.54 0 1.01-.881 1.85-2.641 2.5-1.949.71-4.606 1.06-7.982 1.06-3.374 0-6.018-.35-7.933-1.06-1.766-.65-2.647-1.49-2.647-2.5 0-1.04.881-1.88 2.647-2.54zM102.305-1395.62c3.902 0 7.172-.7 9.808-2.09 2.374-1.26 3.875-2.82 4.506-4.71.599-2.32.284-4.34-.95-6.06-1.334-1.91-3.656-3.22-6.962-3.93h7.712v-4.28h-9.755v-3.16h-8.318v3.16h-10.11v4.28h7.662c-3.172.76-5.41 2.07-6.713 3.93-1.235 1.72-1.531 3.69-.9 5.9.603 1.91 2.056 3.51 4.359 4.79 2.6 1.45 5.821 2.17 9.661 2.17zm-4.6-12.68c1.107-.99 2.645-1.48 4.618-1.48 2.032 0 3.649.52 4.845 1.55 1.075.96 1.614 2.13 1.614 3.53 0 1.31-.57 2.42-1.706 3.31-1.197.99-2.778 1.48-4.753 1.48-1.944 0-3.481-.51-4.617-1.52-1.02-.92-1.528-2.08-1.528-3.44 0-1.39.509-2.54 1.528-3.43zM128.942-1419.64h-8.774v28.58h.983c1.658 0 3.217-.26 4.677-.79 2.085-.73 3.122-1.79 3.122-3.18v-7.95h5.099v-4.67h-5.107zM98.946-1393.33H90.17v8.6c0 1.34.432 2.37 1.303 3.08.835.65 2.002.98 3.501.98h34.241v-4.43h-30.27ZM301.129-1418.84h-18.913v4.47h10.268v32.06h.979c1.662 0 3.217-.26 4.679-.79 2.086-.73 3.119-1.79 3.119-3.18v-32.5h-.132zM324.036-1419.55h-8.205v14.87h-3.021v-14.87h-8.287v39.25h.917c1.54 0 3-.26 4.359-.79 1.941-.73 2.909-1.8 3.02-3.18l-.009-15.84h2.996l-.012 19.81h.913c1.547 0 2.994-.26 4.36-.79 1.941-.73 2.909-1.8 2.978-3.18v-15.16h-.009zM349.913-1401.29c2.193 0 3.797-.33 4.801-1.02.997-.7 1.501-1.82 1.501-3.35v-13.62h-8.724v4.01h-7.672v-4.01h-8.72v13.62c0 1.53.497 2.65 1.504 3.35.998.69 2.601 1.02 4.804 1.02zm-10.094-9.64h7.672v5.31h-7.672zM391.119-1397.94h-12.346v-4.38h33.09v-17.4h8.78l.028 28.75c0 1.38-1.044 2.44-3.123 3.18-1.463.53-3.025.8-4.683.8h-.999l-.003-4.76h-6.946v-4h6.946v-2.19h-11.965v6.19l-8.782-.01z" style="fill:#232f51;stroke:none" transform="matrix(2.35114 0 0 2.35114 69.865 3387.984)"/><path d="M384.397-1405.96c2.634 1.69 6.24 2.54 10.809 2.54 4.61 0 8.232-.85 10.868-2.54 2.37-1.53 3.554-3.43 3.554-5.69 0-2.32-1.184-4.23-3.554-5.73-2.636-1.7-6.258-2.54-10.868-2.54-4.598 0-8.208.84-10.809 2.54-2.332 1.5-3.501 3.41-3.501 5.73 0 2.26 1.169 4.16 3.501 5.69zm5.93-8.44c1.174-.76 2.812-1.14 4.889-1.14 2.11 0 3.749.38 4.933 1.14 1.051.71 1.58 1.64 1.58 2.79 0 1.06-.529 1.93-1.58 2.62-1.184.79-2.823 1.19-4.933 1.19-2.077 0-3.715-.4-4.889-1.19-1.025-.69-1.538-1.56-1.538-2.62 0-1.12.513-2.05 1.538-2.79zM390.363-1385.1h30.242v4.43h-32.463c-2.363 0-4.071-.33-5.104-1.02-.968-.68-1.448-1.79-1.448-3.32v-6.74h8.77zM90.098-1372.73h1.393v5.2h.05c.285-.41.576-.8.847-1.15l3.293-4.05h1.727l-3.9 4.58 4.205 6.2h-1.646l-3.534-5.29-1.042 1.18v4.11h-1.393zM102.623-1361.77c-2.862 0-4.843-2.2-4.843-5.47 0-3.42 2.11-5.66 4.987-5.66 2.957 0 4.863 2.25 4.863 5.45 0 3.7-2.256 5.68-4.994 5.68zm.065-1.14c2.205 0 3.454-2.03 3.454-4.47 0-2.14-1.121-4.38-3.437-4.38-2.32 0-3.473 2.16-3.473 4.49 0 2.27 1.246 4.36 3.437 4.36zM109.436-1372.57c.701-.14 1.729-.24 2.672-.24 1.49 0 2.46.29 3.134.9.523.46.844 1.2.844 2.05 0 1.4-.905 2.35-2.025 2.73v.05c.812.29 1.309 1.06 1.579 2.17.353 1.51.61 2.55.816 2.96h-1.436c-.178-.3-.418-1.23-.705-2.58-.319-1.48-.917-2.04-2.176-2.09h-1.312v4.67h-1.391zm1.391 4.89h1.425c1.486 0 2.431-.81 2.431-2.04 0-1.39-1.01-2-2.479-2-.678 0-1.139.07-1.377.13zM123.605-1367h-4.17v3.88h4.668v1.17h-6.077v-10.78h5.837v1.17h-4.428v3.41h4.17zM127.65-1365.34l-1.117 3.39h-1.443l3.666-10.78h1.678l3.677 10.78h-1.485l-1.15-3.39zm3.536-1.08-1.069-3.1c-.224-.71-.386-1.35-.546-1.97h-.048c-.144.62-.318 1.29-.528 1.95l-1.053 3.12zM135.695-1361.95v-10.78h1.537l3.438 5.46c.786 1.26 1.422 2.38 1.921 3.5l.045-.01c-.125-1.44-.16-2.75-.16-4.42v-4.53h1.314v10.78h-1.409l-3.421-5.47c-.754-1.19-1.472-2.43-2-3.59l-.049.01c.083 1.36.095 2.66.095 4.45v4.6zM155.176-1367h-4.177v3.88h4.671v1.17h-6.077v-10.78h5.839v1.17h-4.433v3.41h4.177zM157.464-1372.58c.865-.13 1.871-.23 2.974-.23 1.997 0 3.421.45 4.367 1.34.971.87 1.533 2.14 1.533 3.88 0 1.76-.562 3.19-1.552 4.19-1.022 1-2.686 1.55-4.782 1.55-1.005 0-1.823-.03-2.54-.13zm1.406 9.55c.351.06.863.06 1.407.06 2.973.02 4.59-1.66 4.59-4.57.015-2.58-1.424-4.16-4.368-4.16-.719 0-1.263.06-1.629.14zM169.523-1372.73v6.4c0 2.4 1.067 3.42 2.507 3.42 1.587 0 2.625-1.05 2.625-3.42v-6.4h1.405v6.31c0 3.3-1.743 4.65-4.076 4.65-2.211 0-3.867-1.25-3.867-4.61v-6.35zM185.992-1362.28c-.495.25-1.537.51-2.847.51-3.039 0-5.31-1.92-5.31-5.47 0-3.39 2.289-5.66 5.63-5.66 1.326 0 2.191.29 2.56.48l-.351 1.13c-.512-.25-1.263-.44-2.161-.44-2.525 0-4.205 1.61-4.205 4.44 0 2.66 1.518 4.34 4.127 4.34.861 0 1.727-.18 2.286-.45zM189.561-1365.34l-1.121 3.39h-1.439l3.663-10.78h1.677l3.68 10.78h-1.488l-1.154-3.39zm3.535-1.08-1.075-3.1c-.223-.71-.383-1.35-.545-1.97h-.046c-.144.62-.319 1.29-.529 1.95l-1.055 3.12zM198.39-1371.54h-3.283v-1.19h7.983v1.19h-3.296v9.59h-1.404zM205.677-1372.73v10.78h-1.4v-10.78zM212.314-1361.77c-2.86 0-4.842-2.2-4.842-5.47 0-3.42 2.109-5.66 4.988-5.66 2.959 0 4.863 2.25 4.863 5.45 0 3.7-2.254 5.68-4.992 5.68zm.067-1.14c2.204 0 3.455-2.03 3.455-4.47 0-2.14-1.117-4.38-3.441-4.38-2.317 0-3.468 2.16-3.468 4.49 0 2.27 1.246 4.36 3.439 4.36zM219.13-1361.95v-10.78h1.536l3.436 5.46c.786 1.26 1.422 2.38 1.921 3.5l.046-.01c-.13-1.44-.156-2.75-.156-4.42v-4.53h1.308v10.78h-1.407l-3.421-5.47c-.754-1.19-1.476-2.43-1.998-3.59l-.05.01c.079 1.36.095 2.66.095 4.45v4.6zM231.399-1365.34l-1.124 3.39h-1.437l3.661-10.78h1.679l3.681 10.78h-1.488l-1.153-3.39zm3.533-1.08-1.073-3.1c-.227-.71-.383-1.35-.543-1.97h-.047c-.145.62-.322 1.29-.532 1.95l-1.053 3.12zM239.424-1372.73h1.41v9.61h4.602v1.17h-6.012zM250.363-1372.58c.863-.13 1.874-.23 2.977-.23 1.997 0 3.423.45 4.367 1.34.973.87 1.532 2.14 1.532 3.88 0 1.76-.559 3.19-1.549 4.19-1.025 1-2.689 1.55-4.784 1.55-1.008 0-1.825-.03-2.543-.13zm1.409 9.55c.352.06.859.06 1.407.06 2.973.02 4.59-1.66 4.59-4.57.015-2.58-1.424-4.16-4.368-4.16-.717 0-1.262.06-1.629.14zM266.597-1367h-4.175v3.88h4.668v1.17h-6.077v-10.78h5.839v1.17h-4.43v3.41h4.175zM271.392-1361.95l-3.534-10.78h1.523l1.679 5.31c.442 1.46.844 2.79 1.149 4.03h.03c.304-1.24.739-2.6 1.233-4.01l1.823-5.33h1.486l-3.852 10.78zM283.516-1367h-4.176v3.88h4.67v1.17h-6.074v-10.78h5.838v1.17h-4.434v3.41h4.176zM285.801-1372.73h1.41v9.61h4.604v1.17h-6.014zM296.945-1361.77c-2.858 0-4.842-2.2-4.842-5.47 0-3.42 2.107-5.66 4.99-5.66 2.96 0 4.865 2.25 4.865 5.45 0 3.7-2.257 5.68-4.992 5.68zm.07-1.14c2.203 0 3.454-2.03 3.454-4.47 0-2.14-1.121-4.38-3.44-4.38-2.318 0-3.472 2.16-3.472 4.49 0 2.27 1.251 4.36 3.439 4.36zM303.761-1372.58c.672-.13 1.552-.23 2.674-.23 1.371 0 2.381.33 3.02.9.591.51.962 1.29.962 2.26 0 .97-.29 1.74-.851 2.3-.735.78-1.932 1.18-3.294 1.18-.419 0-.796-.01-1.122-.1v4.32h-1.389zm1.389 5.18c.308.08.703.11 1.155.11 1.697 0 2.707-.83 2.707-2.29 0-1.43-1.01-2.12-2.547-2.12-.612 0-1.07.06-1.315.11zM321.356-1366.68c-.082-1.51-.178-3.33-.178-4.65h-.033c-.383 1.25-.817 2.6-1.356 4.09l-1.906 5.23h-1.054l-1.761-5.13c-.509-1.54-.929-2.92-1.23-4.19h-.033a155.8 155.8 0 0 1-.205 4.76l-.292 4.62h-1.324l.751-10.78h1.769l1.842 5.22a46.69 46.69 0 0 1 1.091 3.63h.03c.29-1.09.672-2.27 1.152-3.63l1.924-5.22h1.772l.669 10.78h-1.374zM330.695-1367h-4.175v3.88h4.666v1.17h-6.074v-10.78h5.836v1.17h-4.428v3.41h4.175zM332.998-1361.95v-10.78h1.531l3.443 5.46c.781 1.26 1.423 2.38 1.917 3.5l.051-.01c-.13-1.44-.162-2.75-.162-4.42v-4.53h1.311v10.78h-1.404l-3.428-5.47c-.749-1.19-1.468-2.43-1.996-3.59l-.048.01c.078 1.36.096 2.66.096 4.45v4.6zM345.568-1371.54h-3.28v-1.19h7.979v1.19h-3.291v9.59h-1.408zM356.252-1372.73v10.78h-1.411v-10.78zM358.683-1361.95v-10.78h1.532l3.44 5.46c.784 1.26 1.42 2.38 1.914 3.5l.054-.01c-.13-1.44-.158-2.75-.158-4.42v-4.53h1.311v10.78h-1.411l-3.423-5.47c-.753-1.19-1.472-2.43-1.995-3.59l-.054.01c.085 1.36.099 2.66.099 4.45v4.6zM369.027-1363.64c.622.4 1.525.7 2.474.7 1.43 0 2.261-.73 2.261-1.84 0-.98-.579-1.58-2.032-2.12-1.76-.64-2.844-1.57-2.844-3.08 0-1.67 1.389-2.92 3.48-2.92 1.089 0 1.909.26 2.37.52l-.383 1.14c-.338-.21-1.054-.51-2.034-.51-1.474 0-2.03.88-2.03 1.61 0 1.01.654 1.5 2.143 2.08 1.824.72 2.738 1.59 2.738 3.17 0 1.66-1.218 3.12-3.758 3.12-1.04 0-2.177-.32-2.75-.7zM379.13-1371.54h-3.27v-1.19h7.977v1.19h-3.291v9.59h-1.416zM390.904-1371.54h-3.278v-1.19h7.977v1.19h-3.294v9.59h-1.405zM386.429-1372.73v10.78h-1.413v-10.78zM397.963-1372.73v6.4c0 2.4 1.071 3.42 2.509 3.42 1.581 0 2.621-1.05 2.621-3.42v-6.4h1.41v6.31c0 3.3-1.741 4.65-4.076 4.65-2.208 0-3.874-1.25-3.874-4.61v-6.35zM408.959-1371.54h-3.274v-1.19h7.98v1.19h-3.292v9.59h-1.414zM420.433-1367h-4.175v3.88h4.676v1.17h-6.086v-10.78h5.837v1.17h-4.427v3.41h4.175z" style="fill:#232f51;stroke:none" transform="matrix(2.35114 0 0 2.35114 69.865 3387.984)"/></svg>