<svg xmlns="http://www.w3.org/2000/svg" xml:space="preserve" width="948.06604" height="400" viewBox="0 0 948.06605 400"><path d="M146.178 44.11c.218 1.541-1.625 2.368-5.532 2.48-2.915.106-5.181.258-6.806.447a152.49 152.49 0 0 0-5.572.786c-1.979.329-3.356.193-4.125-.411-.773-.605-.47-1.403.909-2.394 1.595-1.049 2.994-1.883 4.207-2.517 1.213-.633 2.34-1.003 3.384-1.114a99.614 99.614 0 0 1 4.17-.082c1.399 0 3.064.082 4.993.242 2.694.169 4.154 1.024 4.372 2.562m4.33-6.19c-2.5.165-4.77-.139-6.806-.908-1.596-.609-4.483-.958-8.665-1.073-4.183-.107-7.32-.136-9.406-.078a130.59 130.59 0 0 0-5.946.246c-1.596.107-3.11.247-4.54.412-1.699.217-3.188.053-4.459-.494-1.262-.555-.41-1.6 2.567-3.138 4.672-2.365 7.698-3.167 9.072-2.393 1.374.769 3.249 1.266 5.61 1.484 2.92.276 7.538.412 13.871.412 6.325 0 10.697-.054 13.115-.165 1.768 0 2.862.58 3.302 1.736.44 1.155-.41 2.175-2.554 3.051-.933.44-2.652.744-5.16.909m31.567-20.88c2.751 0 4.294.823 4.627 2.476.329 1.65-.963 2.747-3.883 3.303-1.204.16-2.627.23-4.252.205-1.62-.029-2.652-.263-3.088-.703-.556-.547-1.366-.95-2.443-1.197a27.366 27.366 0 0 0-3.175-.534l-.16 22.45c0 2.036.189 3.656.571 4.865.387 1.213-.218 2.093-1.81 2.645-1.102.435-2.85.847-5.243 1.233-2.393.383-3.89.605-4.495.662-2.698.165-4.145-.205-4.335-1.118-.193-.905.506-1.715 2.106-2.427 2.032-.83 3.475-1.57 4.33-2.229.852-.662 1.28-1.875 1.28-3.631l.329-39.37c.049-2.973.222-5.588.497-7.842.276-2.258 1.012-3.356 2.225-3.298 1.267.053 2.381 1.468 3.344 4.248.962 2.78 1.443 6.366 1.443 10.77l-.082 9.493zm-14.233-31.362c-1.954-.11-3.315-.436-4.08-.99a6.611 6.611 0 0 0-2.85-1.033 24.28 24.28 0 0 0-3.019-.206l-13.205-.164c-.658 0-1.258.193-1.81.58-.555.382-.83.962-.83 1.731v7.678c0 1.485.11 2.719.329 3.71.222.99-.712 1.624-2.8 1.9-1.16.16-2.682.292-4.586.37-1.892.086-3.475.07-4.742-.037-3.52-.39-4.915-1.024-4.17-1.9.74-.88 1.723-1.46 2.932-1.732 1.76-.333 2.998-.756 3.714-1.283.715-.522 1.077-1.5 1.077-2.928v-5.86c0-2.64.86-4.33 2.6-5.071 1.726-.748 3.692-1.123 5.9-1.123l29.706.333c2.75 0 4.318.815 4.704 2.435.383 1.624-.937 2.768-3.96 3.426-1.324.222-2.957.271-4.91.164m-22.739 40.357c-4.071 1.266-6.107 1.928-6.107 1.982.058.604.239 1.032.539 1.279.3.247.123.703-.539 1.361-.547.605-2.13 1.02-4.746 1.238-2.615.218-3.919-.276-3.919-1.485 0-.386.304-.703.909-.954.605-.242.63-.695.082-1.357-.053-.057-2.2-.74-6.436-2.064-4.24-1.32-6.358-4.73-6.358-10.232 0-4.179 1.756-7.403 5.28-9.652 3.52-2.258 7.21-3.39 11.063-3.39 3.854 0 7.534 1.132 11.059 3.39 3.52 2.25 5.285 5.473 5.285 9.652 0 5.556-2.04 8.965-6.112 10.232m-4.21-15.928c-1.646-1.65-3.657-2.472-6.022-2.472-2.369 0-4.375.823-6.025 2.472-1.649 1.653-2.471 3.66-2.471 6.025 0 2.364.822 4.371 2.471 6.025 1.65 1.653 3.656 2.475 6.025 2.475 2.365 0 4.376-.822 6.021-2.475 1.657-1.654 2.48-3.66 2.48-6.025s-.823-4.372-2.48-6.025M242.985 21.6c.11.876.32 1.991.62 3.344.305 1.345.618 2.9.947 4.664.386 2.089.72 4.33.995 6.724.271 2.393.436 4.466.494 6.23a5372.26 5372.26 0 0 0-12.712-.37c-6.663-.197-10.01-.288-10.072-.288-2.472-.222-4.45-.637-5.938-1.242-1.485-.604-4.923.362-10.315 2.891a4.146 4.146 0 0 0-2.064 2.06c-.44.934 1.32 1.267 5.28.992 2.863-.383 8.994-.53 18.408-.453 9.405.083 14.768.317 16.088.704 1.213.436 2.628.74 4.253.904 1.624.165 3.063.111 4.334-.164 2.53-.551 3.422-1.407 2.682-2.558a10.84 10.84 0 0 1-1.526-3.714 483.24 483.24 0 0 1-.995-4.577c-.6-2.838-1.296-5.38-2.06-7.637-.445-1.378-.88-2.669-1.32-3.878a19.39 19.39 0 0 0-1.49-3.22c.276.057.527.098.745.123.222.029.386.07.497.128 3.303 1.209 7.152 1.686 11.557 1.439 4.396-.243 6.543-1.332 6.436-3.253-.058-1.382-1.074-2.192-3.06-2.443-1.974-.247-4.129-.312-6.432-.201-2.698.164-5.922.246-9.656.246-3.743 0-8.472-.028-14.197-.082V3.86c1.93.107 3.55.206 4.87.284 1.32.082 2.175.177 2.558.292 1.427.382 2.82.658 4.17.822 1.349.165 2.652.14 3.923-.082 2.245-.436 3.117-1.226 2.595-2.348a9.436 9.436 0 0 1-.868-3.59l.078-10.648c.062-3.413-.464-6.33-1.562-8.751-1.103-2.419-2.147-3.656-3.138-3.714-.88-.053-1.584.925-2.102 2.932-.522 2.007-.81 4.195-.868 6.564L243.894.059c-1.538-.053-5.285-.177-11.223-.374-5.947-.19-8.941-.288-8.999-.288-2.64-.107-4.758-.63-6.353-1.567-1.592-.938-5.256.111-10.973 3.138-.888.493-1.505 1.25-1.863 2.27-.358 1.016 1.25 1.332 4.828.95 1.6-.222 4.018-.374 7.267-.456 3.245-.087 6.572-.095 9.981-.042v14.197c-4.018-.115-7.007-.263-8.998-.457-1.974-.193-3.023-.288-3.134-.288-2.582-.217-4.684-.727-6.312-1.53-1.625-.793-5.676.24-12.173 3.097-2.53 1.098-3.414 2.011-2.64 2.727.768.711 2.31 1.016 4.626.905 2.418-.111 4.544-.26 6.39-.453 1.847-.193 4.829-.288 8.954-.288h17.33c1.102 0 2.866-.012 5.285-.04 2.418-.03 4.79-.013 7.098.04M326.344 21.6c.112.876.313 1.991.613 3.344.3 1.345.621 2.9.95 4.664.387 2.089.716 4.33.987 6.724.276 2.393.449 4.466.502 6.23-1.818-.057-6.054-.18-12.716-.37-6.654-.197-10.01-.288-10.063-.288-2.476-.222-4.458-.637-5.939-1.242-1.493-.604-4.93.362-10.322 2.891a4.13 4.13 0 0 0-2.057 2.06c-.44.934 1.312 1.267 5.277.992 2.862-.383 8.994-.53 18.4-.453 9.413.083 14.78.317 16.096.704 1.209.436 2.628.74 4.252.904 1.62.165 3.068.111 4.335-.164 2.529-.551 3.417-1.407 2.677-2.558a10.913 10.913 0 0 1-1.522-3.714c-.061-.218-.39-1.748-.995-4.577-.604-2.838-1.287-5.38-2.056-7.637a119.435 119.435 0 0 0-1.329-3.878 19.73 19.73 0 0 0-1.48-3.22c.271.057.522.098.74.123.222.029.387.07.494.128 3.302 1.209 7.156 1.686 11.556 1.439 4.4-.243 6.547-1.332 6.44-3.253-.057-1.382-1.077-2.192-3.051-2.443-1.99-.247-4.13-.312-6.445-.201-2.693.164-5.91.246-9.652.246-3.742 0-8.476-.028-14.192-.082V3.86c1.92.107 3.545.206 4.865.284 1.32.082 2.171.177 2.562.292 1.427.382 2.813.658 4.166.822 1.345.165 2.653.14 3.915-.082 2.258-.436 3.122-1.226 2.6-2.348a9.504 9.504 0 0 1-.86-3.59l.082-10.648c.058-3.413-.473-6.33-1.575-8.751-1.098-2.419-2.143-3.656-3.13-3.714-.884-.053-1.587.925-2.11 2.932-.518 2.007-.805 4.195-.863 6.564L327.249.059c-1.542-.053-5.28-.177-11.227-.374-5.934-.19-8.94-.288-8.994-.288-2.636-.107-4.758-.63-6.35-1.567-1.6-.938-5.26.111-10.985 3.138-.876.493-1.497 1.25-1.854 2.27-.358 1.016 1.254 1.332 4.832.95 1.591-.222 4.018-.374 7.259-.456 3.244-.087 6.576-.095 9.989-.042v14.197c-4.014-.115-7.016-.263-8.994-.457-1.99-.193-3.027-.288-3.138-.288-2.595-.217-4.697-.727-6.317-1.53-1.62-.793-5.68.24-12.165 3.097-2.537 1.098-3.417 2.011-2.648 2.727.769.711 2.31 1.016 4.622.905 2.427-.111 4.549-.26 6.395-.453 1.847-.193 4.828-.288 8.957-.288h17.33c1.099 0 2.863-.012 5.281-.04a202.88 202.88 0 0 1 7.102.04M382.91 14.482c-3.027-3.96-6.025-7.32-8.995-10.072-2.973-2.747-5.58-4.725-7.842-5.938-2.694-1.431-4.36-1.777-4.993-1.032-.633.74-.506 1.386.374 1.937 4.236 2.973 8.637 7.637 13.202 13.99 4.569 6.359 8.34 13.276 11.31 20.752a52.41 52.41 0 0 1-3.55-.366 31.1 31.1 0 0 0-2.809-.287 14.45 14.45 0 0 1-2.471-.334c-.716-.164-1.103-.246-1.156-.246a15.274 15.274 0 0 0-3.636-1.156c-1.213-.222-3.545.691-7.011 2.723-1.707 1.044-2.37 1.94-1.979 2.685.379.74 1.736.975 4.043.703.605-.057 1.604-.144 3.015-.25a60.472 60.472 0 0 1 4.737-.17c2.427 0 4.57.058 6.445.17 1.867.106 3.355.415 4.453.904.827.44 2.382.621 4.66.539 2.287-.082 3.598-.206 3.927-.37 1.423-.551 1.876-1.571 1.358-3.056-.523-1.489-1.329-2.994-2.435-4.536a166.197 166.197 0 0 0-4.006-6.851 121.57 121.57 0 0 0-4.08-6.19 40.149 40.149 0 0 1 3.093-3.421c1.18-1.189 1.941-1.917 2.275-2.188.818-.555 1.525-.88 2.097-.991.58-.116 1.283-.527 2.11-1.238.876-.72 1.702-2.069 2.471-4.043.77-1.986 1.267-3.306 1.49-3.964.604-2.205.118-3.426-1.444-3.673-1.571-.247-3.204.84-4.915 3.261-.551.77-1.855 2.5-3.92 5.199a707.485 707.485 0 0 1-5.818 7.51m34.253 28.557c0 1.76-.432 2.969-1.283 3.631-.851.658-2.241 1.398-4.162 2.229-1.546.711-2.217 1.522-2.023 2.426.193.913 1.583 1.283 4.161 1.119.605-.058 2.07-.28 4.372-.662 2.315-.383 3.993-.798 5.038-1.234 1.542-.551 2.13-1.431 1.773-2.644-.358-1.21-.531-2.83-.531-4.865l.329-48.528c.107-5.779-.267-10.401-1.119-13.872-.847-3.459-1.994-5.223-3.421-5.276-1.271-.058-2.048 1.414-2.349 4.416-.304 2.999-.456 6.338-.456 10.027zm-13.617-21.957-.168 18.321c0 1.76-.428 2.973-1.28 3.636-.85.658-2.24 1.398-4.165 2.224-1.547.716-2.217 1.526-2.024 2.435.194.909 1.584 1.283 4.166 1.115.605-.058 2.065-.276 4.372-.663 2.315-.382 3.993-.797 5.038-1.233 1.542-.547 2.13-1.431 1.776-2.64-.361-1.214-.538-2.838-.538-4.874l.337-42.088c.111-5.778-.267-10.396-1.119-13.867-.855-3.467-1.998-5.223-3.43-5.28-1.262-.054-2.048 1.418-2.352 4.416-.3 2.998-.448 6.342-.448 10.027l-.165 24.264a13.14 13.14 0 0 1-1.817-.54c-.498-.188-.774-.287-.827-.287a64.104 64.104 0 0 0-2.64-.868c-1.156-.358-3.599.564-7.345 2.768-.88.547-1.46 1.291-1.736 2.229-.271.934 1.02 1.263 3.878.987 1.271-.165 2.85-.234 4.75-.206 1.896.03 3.809.07 5.737.124M480.436 44.934c.218 1.542-1.624 2.37-5.531 2.48-2.916.107-5.182.26-6.807.452-1.624.19-3.487.453-5.568.786-1.986.329-3.36.19-4.129-.415-.769-.605-.473-1.407.905-2.394 1.595-1.044 2.998-1.883 4.211-2.52 1.205-.63 2.336-1.004 3.38-1.111a107.36 107.36 0 0 1 4.17-.083c1.399 0 3.065.083 4.997.247 2.686.16 4.15 1.016 4.372 2.558m-15.554-11.556a1.058 1.058 0 0 1-.46-.905c0-.386.3-.703.905-.95.604-.247.633-.703.086-1.361-.058-.053-2.134-.732-6.235-2.02-4.096-1.299-6.144-4.527-6.144-9.697 0-3.853 1.682-6.892 5.034-9.121 3.352-2.23 6.987-3.344 10.89-3.344 2.92 0 5.741.646 8.464 1.941 2.722 1.292 4.741 3.068 6.066 5.322 3.907-2.147 6.448-3.04 7.637-2.681 1.176.353 2.101.645 2.76.867.057.054.493.218 1.32.49a12.8 12.8 0 0 0 2.64.58c.28.053.526.082.744.082.11-1.76.354-3.146.744-4.166.383-1.016.963-1.497 1.736-1.444 1.098.058 2.167 1.172 3.212 3.344 1.048 2.171 1.575 5.375 1.575 9.61l-.247 23.113c0 2.036.19 3.656.576 4.87.382 1.209-.218 2.089-1.818 2.64-1.102.44-2.85.851-5.235 1.234-2.402.382-3.899.608-4.504.666-2.697.164-4.145-.21-4.334-1.119-.19-.909.51-1.719 2.11-2.43 2.031-.827 3.475-1.571 4.326-2.23.851-.661 1.283-1.87 1.283-3.63l.16-13.206a245.106 245.106 0 0 0-6.851-.247c-2.36-.053-4.29.025-5.77.247-3.03.276-4.388-.058-4.088-.995.3-.934.921-1.678 1.86-2.225 4.017-2.2 6.612-3.122 7.8-2.764 1.177.354 2.102.646 2.76.868.058.053.494.222 1.32.493.827.276 1.711.47 2.64.58.17.054.309.083.416.083l.164-9.245v-.087c-2.253-.107-4.581-.189-6.975-.242-2.393-.058-4.363.024-5.897.242a2.26 2.26 0 0 0-.456.045c-.136.025-.26.042-.37.042.057.275.094.559.123.863.033.305.041.592.041.872 0 5.112-1.966 8.332-5.902 9.656-3.935 1.32-5.901 2.007-5.901 2.065.053.6.238 1.028.539 1.275.3.242.123.699-.539 1.361-.218.271-.732.522-1.53.74-.798.222-1.661.358-2.599.416 3.471.107 7.14.152 11.022.123 3.878-.029 6.666-.095 8.377-.206 1.76 0 2.858.576 3.302 1.732.436 1.155-.411 2.171-2.562 3.055-.933.44-2.653.745-5.153.905-2.504.169-4.779-.136-6.814-.905-1.592-.608-4.343-.966-8.254-1.073-3.903-.111-6.905-.136-8.994-.086-2.365.057-4.343.144-5.939.255-1.6.107-3.109.242-4.536.407-1.71.222-3.195.057-4.462-.494-1.267-.55-.411-1.595 2.558-3.134 4.676-2.368 7.707-3.166 9.076-2.397 1.382.773 3.25 1.267 5.614 1.485.497.057 1.077.098 1.735.127.658.029 1.345.07 2.065.123-.448-.053-.81-.193-1.11-.415m9.816-20.217c-1.57-1.538-3.48-2.312-5.741-2.312-2.192 0-4.096.774-5.688 2.312-1.6 1.542-2.397 3.413-2.397 5.613 0 2.254.798 4.138 2.397 5.651 1.592 1.513 3.496 2.27 5.688 2.27 2.262 0 4.17-.757 5.741-2.27 1.563-1.513 2.352-3.397 2.352-5.65 0-2.2-.79-4.072-2.352-5.614M505.115-.295c0 1.377.173 2.504.527 3.388.358.88-.42 1.625-2.348 2.225-1.205.444-2.546.773-4.002.991-1.464.222-2.657.33-3.59.33-2.694-.161-3.948-.618-3.755-1.358.193-.748.757-1.308 1.69-1.694 1.431-.494 2.44-.979 3.015-1.444.576-.469.868-1.225.868-2.27v-3.138l-20.966-.16-.078 1.238c0 1.102.05 2.072.164 2.924.107.851-.633 1.554-2.229 2.11a38.183 38.183 0 0 1-3.8.822c-1.32.222-2.558.329-3.713.329-2.805-.218-4.06-.74-3.76-1.563.305-.83.762-1.324 1.366-1.489C466.1.564 467.231.08 467.89-.497c.662-.58.987-1.448.987-2.6l.168-13.126c.054-2.69.412-4.586 1.074-5.692.658-1.098 1.464-1.653 2.393-1.653 1.045 0 1.954.485 2.727 1.443.769.967 1.18 1.699 1.238 2.192l21.126.165c.053-.436.341-1.016.863-1.736.523-.711 1.275-1.073 2.275-1.073 1.155 0 2.167.76 3.047 2.27.88 1.517 1.328 3.512 1.328 5.988zM476.64-15.64l-.086 7.92 20.966.165v-7.917ZM587.187-11.43c.058-3.414-.473-6.33-1.567-8.752-1.098-2.418-2.146-3.66-3.133-3.713-.884-.054-1.592.92-2.114 2.932-.518 2.007-.806 4.195-.86 6.56l-.246 11.967c-1.547-.058-5.29-.181-11.224-.374-5.946-.19-8.944-.288-8.998-.288-2.644-.107-4.758-.634-6.362-1.567-1.587-.938-5.252.107-10.968 3.138-.88.49-1.501 1.246-1.855 2.266-.362 1.02 1.25 1.336 4.824.95 3.299-.494 9.229-.675 17.783-.535 8.558.136 13.497.4 14.813.782a29.46 29.46 0 0 0 4.166.826c1.357.165 2.657.136 3.928-.082 2.253-.444 3.117-1.226 2.595-2.352a9.395 9.395 0 0 1-.864-3.59zm-6.933 47.701-.083 6.77c0 1.755-.427 2.969-1.279 3.627-.851.662-2.294 1.402-4.33 2.229-1.596.715-2.3 1.525-2.11 2.43.193.913 1.637 1.283 4.339 1.119.6-.058 2.101-.28 4.495-.662 2.393-.387 4.141-.798 5.235-1.234 1.604-.551 2.209-1.431 1.826-2.644-.39-1.21-.58-2.83-.58-4.866l.251-24.51c0-4.24-.53-7.666-1.575-10.278-1.045-2.615-2.118-3.952-3.216-4.005-1.049-.054-1.736.925-2.065 2.928-.329 2.011-.522 4.503-.575 7.472l-.083 3.385c-.222 0-.522-.029-.908-.082a14.63 14.63 0 0 1-2.768-.58c-.856-.276-1.304-.44-1.357-.498-.72-.214-1.695-.506-2.933-.867-1.237-.358-3.976.567-8.212 2.767-.991.551-1.641 1.292-1.941 2.23-.3.933 1.147 1.262 4.338.99 1.427-.168 3.447-.234 6.062-.205 2.612.024 5.157.07 7.637.123l-.086 10.4h-.165a13.931 13.931 0 0 1-2.76-.58c-.855-.275-1.307-.44-1.36-.493-.72-.226-1.699-.514-2.933-.867-1.246-.358-3.98.559-8.217 2.763a2.957 2.957 0 0 0-.575.375c-.165.131-.33.259-.498.366l-1.152-6.103c.058 0 .449-.087 1.193-.251.744-.16 1.115-.576 1.115-1.238 0-.712-.206-1.28-.617-1.69-.407-.412-1.497-.621-3.257-.621h-18.486V13.82c0-.827.259-1.403.785-1.732.519-.329 1.218-.497 2.106-.497 2.356 0 5.938.382 10.721 1.155 4.787.77 8.883 1.65 12.297 2.64 1.707.498 2.463.182 2.274-.945-.197-1.131-.843-1.913-1.945-2.348-3.52-1.382-7.93-2.756-13.243-4.13-5.309-1.381-9.886-2.122-13.74-2.228-2.644-.058-4.499.37-5.572 1.274-1.073.913-1.608 2.628-1.608 5.162v9.41c0 1.595-.374 2.57-1.115 2.927-.744.354-1.854.675-3.343.95-1.703.33-2.311.946-1.814 1.86.494.904 1.814 1.467 3.965 1.69 1.534.11 3.323.024 5.358-.247 2.04-.276 3.747-.498 5.116-.662.44-.058 2.423-.083 5.943-.083h7.18l.17 11.22c-.938 0-2.563-.021-4.874-.079-2.311-.053-3.932-.136-4.865-.25a23.03 23.03 0 0 1-2.645-.289c-.826-.135-1.262-.201-1.32-.201-.822-.222-1.953-.514-3.384-.868-1.427-.362-4.13.617-8.09 2.928-1.044.609-1.427 1.28-1.155 2.024.28.74 1.6 1.032 3.964.867 1.592-.11 3.134-.222 4.623-.329 1.48-.11 3.084-.226 4.787-.333 1.986-.057 4.4-.045 7.262.041 2.859.083 4.619.292 5.28.621 1.099.49 2.501.81 4.208.946 1.707.14 3.249.017 4.622-.37 1.872-.547 2.41-1.39 1.609-2.517-.794-1.13-1.308-2.192-1.526-3.179l-.33-1.978c.33.107.745.181 1.234.206a8.205 8.205 0 0 0 1.74-.124c1.316-.168 3.204-.234 5.65-.21 2.448.025 4.882.07 7.305.128M665.948 22.57c1.045.112 2.11.289 3.175.535 1.074.247 1.884.646 2.435 1.197.44.44 1.476.674 3.092.703 1.629.03 3.035-.04 4.257-.205 2.907-.551 4.207-1.654 3.878-3.303-.329-1.653-1.875-2.475-4.618-2.475h-12.219l.087-11.47c0-4.409-.49-7.995-1.448-10.775-.962-2.776-2.077-4.195-3.343-4.248-1.214-.054-1.958 1.044-2.234 3.302-.271 2.25-.435 4.87-.493 7.838l-.082 13.124c-3.96-1.654-9.973-3.59-18.034-5.816-8.06-2.229-14.237-3.343-18.531-3.343-2.303 0-3.985.382-5.03 1.151-1.044.77-1.566 2.423-1.566 4.956v18.65c0 1.538-.412 2.505-1.234 2.887-.835.383-2.151.774-3.96 1.156-1.058.276-1.83.855-2.353 1.731-.535.88.724 1.543 3.75 1.983 1.21.164 2.958.152 5.244-.037 2.278-.198 4.466-.432 6.56-.708.769-.053 2.69-.123 5.774-.205 3.084-.083 5.062.205 5.946.867 1.263.823 2.83 1.296 4.705 1.403 1.867.11 3.623.053 5.277-.16 2.529-.33 3.725-1.284 3.586-2.855-.132-1.567-1.608-2.517-4.405-2.846-1.71-.16-5.297-.259-10.77-.287-5.483-.03-8.85-.042-10.113-.042V15.966c0-.88.25-1.456.744-1.736.49-.271 1.094-.407 1.81-.407 3.248 0 8.517.753 15.812 2.27 7.284 1.51 12.856 2.9 16.705 4.162l-.164 22.784c0 1.76-.428 2.969-1.28 3.631-.85.658-2.294 1.403-4.325 2.23-1.604.71-2.3 1.52-2.106 2.43.19.909 1.628 1.283 4.33 1.118.6-.061 2.102-.283 4.5-.666 2.389-.382 4.133-.794 5.235-1.234 1.595-.55 2.204-1.43 1.822-2.64-.387-1.213-.58-2.834-.58-4.87zm2.883-37.057c3.031-.654 4.347-1.802 3.965-3.426-.387-1.62-1.954-2.435-4.705-2.435l-29.878-.333c-2.192 0-4.157.378-5.897 1.123-1.731.74-2.603 2.434-2.603 5.07v8.501c0 1.431-.354 2.41-1.07 2.928-.715.527-1.949.95-3.713 1.283-1.21.272-2.192.852-2.932 1.732-.74.884.641 1.513 4.166 1.9 1.27.11 2.854.123 4.745.037 1.905-.078 3.426-.206 4.59-.37 2.085-.272 3.019-.905 2.797-1.896-.214-.991-.33-2.23-.33-3.71V-14.4c0-.77.276-1.349.823-1.736a3.115 3.115 0 0 1 1.822-.58l13.37.165c.933 0 1.937.07 3.01.21 1.074.135 2.02.481 2.846 1.032.765.551 2.13.876 4.092.991 1.95.107 3.586.054 4.902-.168" style="fill:#004a90;fill-opacity:1;fill-rule:nonzero;stroke:none;stroke-width:4.11254" transform="matrix(1.33333 0 0 -1.33333 -146.828 367.15)"/><path d="M413.038 97.392h-30.536v175.424h30.536z" style="fill:#004a90;fill-opacity:1;fill-rule:nonzero;stroke:none;stroke-width:4.11253" transform="matrix(1.33333 0 0 -1.33333 -146.828 367.15)"/><path d="m220.993 97.37-55.87 91.026 47.793 84.418H182.47l-36.88-65.78v65.784h-29.998V97.37h29.997v68.33l42.812-68.33zM307.734 125.105c0-11.881-5.556-16.635-18.128-16.635-12.556 0-18.12 4.754-18.12 16.635v119.971c0 11.865 5.564 16.631 18.12 16.631 12.563 0 18.128-4.766 18.128-16.631zm19.489 141.726c-9.122 7.016-19.95 8.53-37.617 8.53-17.672 0-28.484-1.514-37.59-8.53-9.15-7.044-10.112-14.653-10.112-24.835V128.18c0-10.19.962-17.795 10.113-24.827 9.105-7.037 19.917-8.546 37.589-8.546 17.667 0 28.495 1.51 37.617 8.546 9.126 7.032 10.1 14.636 10.1 24.827v113.815c0 10.182-.974 17.79-10.1 24.835M517.487 121.545c0-7.148-3.746-13.111-14.209-13.111-9.968 0-15.385 4.618-15.385 13.185v126.954c0 8.381 4.319 13.107 15.381 13.107 9.817 0 14.213-4.726 14.213-13.025v-20.242h31.383v12.807c0 10.19-.942 18.592-10.096 25.613-8.468 6.49-17.993 8.529-34.303 8.529-16.98 0-26.954-1.513-36.071-8.53-9.138-7.044-10.1-14.652-10.1-24.835V128.182c0-10.195.962-17.795 10.1-24.827 9.117-7.04 19.09-8.546 36.071-8.546 16.31 0 25.177 1.505 34.303 8.546 9.134 7.032 10.096 15.41 10.096 25.592v16.282h-31.383zM728.592 177.974s9.59.584 18.507-3.747c8.928-4.326 13.822-11.955 13.822-11.955s-9.599-.596-18.51 3.73c-8.925 4.335-13.819 11.972-13.819 11.972M670.123 185.875s9.796-.485 19.131 3.841c9.344 4.318 14.682 11.811 14.682 11.811s-9.808.486-19.152-3.84c-9.34-4.327-14.661-11.812-14.661-11.812M671.844 183.229s9.315 1.336 18.19-1.933c8.85-3.282 13.945-9.92 13.945-9.92s-9.286-1.34-18.165 1.93c-8.883 3.277-13.97 9.923-13.97 9.923M701.188 187.315s9.158-2.385 19.152-.045c9.981 2.336 17.014 8.509 17.014 8.509s-9.163 2.389-19.148.061c-9.99-2.336-17.018-8.525-17.018-8.525M701.525 184.831s2.789-8.04 10.002-13.666c7.193-5.605 16.125-6.695 16.125-6.695s-2.784 8.04-10.001 13.653c-7.205 5.614-16.126 6.708-16.126 6.708M728.773 180.566s10.014-1.797 20.242 1.225c10.228 2.994 16.84 9.644 16.84 9.644s-10 1.769-20.241-1.225c-10.232-3.01-16.84-9.644-16.84-9.644M764.892 178.98s8.591 1.74 15.554 7.402c6.95 5.667 9.62 13.107 9.62 13.107s-8.592-1.74-15.538-7.415c-6.963-5.659-9.636-13.094-9.636-13.094M788.612 183.54s10.199.358 19.185 6.054c8.986 5.683 13.374 14.575 13.374 14.575s-10.17-1.045-19.14-6.75c-9.01-5.679-13.42-13.879-13.42-13.879M761.733 174.83s7.267-4.922 16.529-5.732c9.306-.794 17.055 2.838 17.055 2.838s-7.3 4.947-16.562 5.737c-9.294.798-17.022-2.842-17.022-2.842M668.246 182.094c-11.01-2.578-20.02-6.539-27.398-11.091l-1.205 6.259a.056.056 0 0 0-.012-.017v.008c-7.555-3.413-15.879-8.22-23.993-14.957l13.04 67.495h.976l-.112-.304 10.089-52.234c14.768 6.675 26.558 8.049 27.965 8.197l-16.858 87.058h-43.305l-33.92-175.025h29.61l7.276 37.695.382 1.222c1.559 4.129 9.142 21.697 30.059 34.586l14.254-73.812H684.7z" style="fill:#004a90;fill-opacity:1;fill-rule:nonzero;stroke:none;stroke-width:4.11254" transform="matrix(1.33333 0 0 -1.33333 -146.828 367.15)"/></svg>