<svg xmlns="http://www.w3.org/2000/svg" width="500mm" height="500mm" viewBox="0 0 500 500"><path d="M944.871 22.334a940.067 940.067 0 0 0-47.475 1.201 931.23 931.23 0 0 0-46.851 3.563 924.528 924.528 0 0 0-46.17 5.867 919.962 919.962 0 0 0-45.432 8.113 916.951 916.951 0 0 0-88.412 22.733 915.264 915.264 0 0 0-125.625 49.498 918.956 918.956 0 0 0-20.029 9.95 920.868 920.868 0 0 0-95.813 56.63 924.83 924.83 0 0 0-53.763 39.213 927.067 927.067 0 0 0-98.233 89.277 928.234 928.234 0 0 0-44.08 49.676 926.965 926.965 0 0 0-13.896 17.257 926.434 926.434 0 0 0-26.563 35.518 924.696 924.696 0 0 0-12.646 18.246 923.938 923.938 0 0 0-12.219 18.56 922.907 922.907 0 0 0-44.412 77.253 919.001 919.001 0 0 0-44.943 102.789 915.473 915.473 0 0 0-26.936 86.642 916.2 916.2 0 0 0-10.3 44.635 918.235 918.235 0 0 0-11.33 68.426 924.55 924.55 0 0 0-6.214 70.025 935.33 935.33 0 0 0-1.199 47.473 940.12 940.12 0 0 0 1.2 47.473 931.114 931.114 0 0 0 3.562 46.85 924.537 924.537 0 0 0 9.646 68.978 918.25 918.25 0 0 0 14.635 67.252 915.369 915.369 0 0 0 43.453 128.533 917.1 917.1 0 0 0 38.848 80.64 921.143 921.143 0 0 0 46.209 76.063 924.934 924.934 0 0 0 25.719 36.168 926.15 926.15 0 0 0 13.49 17.594 927.03 927.03 0 0 0 28.197 34.17 928.006 928.006 0 0 0 93.842 93.84 926.803 926.803 0 0 0 34.17 28.197 926.312 926.312 0 0 0 17.594 13.49 925.94 925.94 0 0 0 73.6 49.715 922.15 922.15 0 0 0 78.411 42.586 917.685 917.685 0 0 0 61.688 26.98 915.715 915.715 0 0 0 63.937 22.516 914.83 914.83 0 0 0 65.992 17.851 917.18 917.18 0 0 0 67.852 12.995 921.454 921.454 0 0 0 46.17 5.865 928.14 928.14 0 0 0 70.516 4.463 940.415 940.415 0 0 0 71.289-.9 928.238 928.238 0 0 0 93.025-9.428 919.408 919.408 0 0 0 67.853-12.995 916.87 916.87 0 0 0 44.215-11.373 915.117 915.117 0 0 0 106.543-37.5 916.914 916.914 0 0 0 60.899-28.427 919.894 919.894 0 0 0 58.384-32.633 922.551 922.551 0 0 0 37.432-23.996 926.037 926.037 0 0 0 36.172-25.719 926.029 926.029 0 0 0 17.594-13.49 926.868 926.868 0 0 0 34.172-28.197 927.812 927.812 0 0 0 32.763-29.778 928.289 928.289 0 0 0 61.082-64.062 927.798 927.798 0 0 0 41.69-51.764 925.024 925.024 0 0 0 37.94-54.729 922.982 922.982 0 0 0 23.11-38.039 921.086 921.086 0 0 0 31.257-59.24 917.95 917.95 0 0 0 18.474-40.863 916.142 916.142 0 0 0 37.502-106.535 915.44 915.44 0 0 0 20.588-89.25 919.648 919.648 0 0 0 6.998-45.805 924.557 924.557 0 0 0 4.72-46.518 931.268 931.268 0 0 0 2.39-47.168 939.931 939.931 0 0 0 0-47.62 935.091 935.091 0 0 0-2.39-47.17 927.674 927.674 0 0 0-4.72-46.518 921.937 921.937 0 0 0-11.332-68.426 916.722 916.722 0 0 0-22.732-88.412 915.252 915.252 0 0 0-6.998-21.55 915.29 915.29 0 0 0-42.5-104.075 919.025 919.025 0 0 0-31.256-59.242 922.15 922.15 0 0 0-23.112-38.04 924.027 924.027 0 0 0-24.867-36.806 925.193 925.193 0 0 0-40.46-52.775 927.662 927.662 0 0 0-75.384-80.977 927.732 927.732 0 0 0-16.203-15.082 927.797 927.797 0 0 0-16.56-14.697 927.32 927.32 0 0 0-34.172-28.197 926.108 926.108 0 0 0-35.52-26.563 924.77 924.77 0 0 0-55.678-36.644 922.222 922.222 0 0 0-58.384-32.635 919.083 919.083 0 0 0-40.332-19.43 916.356 916.356 0 0 0-62.46-25.516 915.626 915.626 0 0 0-86.65-26.935 916.247 916.247 0 0 0-44.636-10.3 918.142 918.142 0 0 0-45.432-8.114 922.171 922.171 0 0 0-69.518-7.94 931.216 931.216 0 0 0-47.173-2.388 940.22 940.22 0 0 0-23.813-.303z" style="fill:#fff;fill-rule:evenodd;stroke-width:9;stroke-linejoin:round" transform="scale(.26458)"/><path d="m194.543 250.546-23.288-13.715-2.266 3.85 27.368 16.123 10.93-18.548-4.087-2.405zM160.263 258.456c-3.973 4.847-3.021 12.19 2.121 16.403 5.141 4.206 12.52 3.687 16.49-1.166 3.97-4.855 3.028-12.193-2.12-16.401-5.133-4.202-12.518-3.683-16.491 1.164m19.446-4.768c7.2 5.89 8.503 16.223 2.899 23.06-5.59 6.841-15.973 7.61-23.181 1.714-7.203-5.89-8.493-16.22-2.897-23.058 5.598-6.843 15.979-7.608 23.179-1.716M137.149 282.34c-4.716 4.119-5 11.52-.63 16.519 4.368 5.005 11.728 5.714 16.454 1.59 4.718-4.127 5.005-11.521.631-16.524-4.373-5.002-11.743-5.713-16.455-1.585m19.962-1.48c6.126 7.01 5.69 17.405-.965 23.227-6.653 5.81-17.017 4.85-23.142-2.158-6.124-7.005-5.682-17.406.968-23.227 6.65-5.816 17.016-4.85 23.139 2.157M92.6 338.159c-5.786 2.42-12.543-.586-15.107-6.713-2.562-6.127.047-13.054 5.822-15.468 3.809-1.591 8.04-.821 11.213 1.622l4.767-1.99c-4.57-4.845-11.595-6.69-17.838-4.082-8.155 3.41-11.853 13.135-8.26 21.723 3.592 8.58 13.106 12.773 21.258 9.363 6.269-2.62 9.896-8.966 9.614-15.664l-4.753 1.983c-.454 4.03-2.876 7.624-6.716 9.226M-173.147 243.383l-4.015 2.5 5.673 9.126c-4.84 1.237-9.995-.539-12.651-4.794-3.305-5.315-1.422-12.468 4.21-15.98 5.645-3.508 12.901-2.037 16.207 3.28 2.184 3.502 2.097 7.787.183 11.317l2.734 4.391c4.048-5.294 4.756-12.517 1.18-18.26-4.669-7.508-14.857-9.605-22.755-4.686-7.903 4.924-10.527 14.986-5.86 22.499 4.015 6.449 12.09 8.883 19.304 6.339 1.184-.431 2.357-.965 3.463-1.66.261-.163.51-.352.759-.524zM116.094 293.977l6.794 10.965-14.491 8.974-6.788-10.965-3.807 2.355 16.732 27.008 3.8-2.364-7.442-12.005 14.493-8.97 7.433 12.009 3.818-2.361-16.724-27.002zM64.371 351.916c5.056-1.257 8.13-6.377 6.869-11.433a9.423 9.423 0 0 0-11.435-6.872l-7.688 1.916c-2.238.556-4.478-.764-5.026-2.952-.54-2.194.822-4.412 3.051-4.969l15.468-3.864-1.139-4.588-15.475 3.86c-4.728 1.178-7.61 5.964-6.432 10.688 1.175 4.733 5.97 7.605 10.697 6.43l7.698-1.928c2.553-.63 5.132.892 5.76 3.405.627 2.522-.93 5.077-3.495 5.711l-15.722 3.924 1.145 4.596zM28.643 358.707l-.239-4.733-18.643.928-.462-9.382 18.639-.926-.228-4.733-18.647.926-.408-8.155 18.646-.922-.236-4.733-23.119 1.148 1.578 31.725zM-24.93 325.802l-.425 4.712 10.575.97-2.462 26.918 4.457.408 2.46-26.917 10.594.971.436-4.712zM-38.934 341.883l-9.283-2.2 7.503-11.02zm1.867 13.818 4.642 1.105-4.536-33.715-4.615-1.088-19.152 28.11 4.655 1.1 4.998-7.341 12.825 3.033zM-63.415 336.533c-2.71 6.65-10.286 9.851-16.942 7.143-6.644-2.701-9.843-10.287-7.141-16.945l7.44-18.266 4.15 1.683-7.432 18.28c-1.704 4.182.436 9 4.806 10.777 4.362 1.77 9.276-.175 10.977-4.358l7.433-18.274 4.144 1.682zM-102.33 323.438c-2.532.857-4.955.588-7.257-.803l-7.685-4.64 11.51-19.087 6.961 4.202c2.578 1.556 4.112 3.705 4.628 6.446.505 2.742-.116 5.572-1.88 8.487-1.651 2.74-3.745 4.537-6.277 5.395m-10.02 3.065c3.43 2.067 7.031 2.597 10.8 1.594 4.048-1.077 7.244-3.55 9.583-7.434 2.558-4.23 3.414-8.323 2.58-12.257-.827-3.936-3.267-7.118-7.284-9.546l-10.47-6.316-16.405 27.203zM-129.05 298.943l-7.29-6.16 11.679-6.43zm-4.596 13.17 3.651 3.08 11.205-32.11-3.624-3.063-29.79 16.403 3.638 3.086 7.782-4.28 10.056 8.494zM-150.665 257.741l7.588 8.678c1.89 2.144 1.695 5.395-.416 7.24-2.124 1.853-5.36 1.618-7.24-.534l-7.602-8.676zm-11.23 9.824 5.828 6.66-4.297 13.48 3.43 3.915 4.574-13.68c3.61 2.412 8.509 2.229 11.932-.77 4.087-3.58 4.495-9.785.92-13.871l-10.55-12.046-23.89 20.926 2.936 3.368z" style="fill:#690300;fill-opacity:1;fill-rule:nonzero;stroke:none;stroke-width:1.35538" transform="translate(244.23 117.987)"/><path d="M5.767-42.316c-96.29 0-174.333 78.055-174.333 174.329 0 96.28 78.044 174.323 174.333 174.323 96.282 0 174.332-78.043 174.332-174.323 0-96.274-78.05-174.329-174.332-174.329m179.782 174.329c0 99.285-80.494 179.774-179.782 179.774-99.295 0-179.774-80.489-179.774-179.774 0-99.286 80.479-179.777 179.774-179.777 99.288 0 179.782 80.491 179.782 179.777" style="fill:#ccc;fill-opacity:1;fill-rule:nonzero;stroke:none;stroke-width:1.35538" transform="translate(244.23 117.987)"/><path d="m-137.39-2.18-24.56-20.134-2.837 3.46 19.03 15.598-29.697-2.586-3.021 3.68 24.566 20.134 2.84-3.46L-169.933-.95l29.434 2.563zM-186.287 9.957l2.444-3.756 26.638 17.304-2.443 3.756zM-184.758 177.885l.86 4.4-31.18 6.091-.856-4.4z" style="fill:#690300;fill-opacity:1;fill-rule:nonzero;stroke:none;stroke-width:1.35538" transform="translate(244.23 117.987)"/><path d="m-187.758 162.563-1.121-5.769-12.616 18.24-18.56-12.153 1.123 5.771 18.589 12.305zM-190.35 130.182l-4.736.241.93 18.64-9.374.466-.932-18.642-4.74.237.93 18.64-8.153.408-.92-18.64-4.734.233 1.155 23.121 31.72-1.583zM-177.312 52.405c2.492-5.74-.42-12.551-6.512-15.2-6.09-2.645-13.051-.132-15.545 5.613-2.5 5.744.413 12.552 6.5 15.196 6.089 2.65 13.054.141 15.557-5.61m-17.419 9.887c-8.535-3.71-12.598-13.286-9.069-21.402 3.523-8.1 13.3-11.668 21.835-7.954 8.54 3.71 12.597 13.293 9.073 21.396-3.52 8.106-13.3 11.673-21.839 7.96M-187.643 82.512c-1.534 6.075-7.996 9.677-14.434 8.048-6.443-1.628-10.412-7.873-8.873-13.95 1.008-3.999 4.166-6.913 8.029-7.985l1.267-5.006c-6.618.747-12.315 5.254-13.982 11.806-2.155 8.57 3.393 17.368 12.41 19.653 9.019 2.284 18.1-2.818 20.262-11.385 1.672-6.583-1.231-13.289-6.749-17.085l-1.264 4.99c2.942 2.783 4.357 6.882 3.334 10.914M-205.468 107.449l-1.163 11.473-10.126-1.023 1.162-11.473c.287-2.848 2.785-4.92 5.581-4.633 2.805.282 4.831 2.814 4.546 5.656m3.553 11.949 1.161-11.47c.548-5.4-3.385-10.222-8.785-10.768-5.395-.551-10.212 3.386-10.763 8.783l-1.619 15.928 31.593 3.207.46-4.455zM128.472-26.716l17.187-20.856-3.45-2.844L122-25.91l16.605 13.695 3.024-3.658zM117.93-44.185l-8.173-4.935 10.535-8.182zm-2.476 13.732 4.086 2.472 6.03-33.48-4.058-2.458-26.855 20.89 4.093 2.473 7.007-5.454 11.265 6.814zM79.615-82.891l-12.29 29.302 4.128 1.724 9.524-22.686 5.99 29.192 4.397 1.846 12.278-29.29-4.122-1.738-9.437 22.5-5.938-28.943zM49.663-62.745c6.11 1.377 12.254-2.76 13.702-9.238 1.466-6.479-2.31-12.85-8.415-14.224-6.12-1.377-12.248 2.757-13.713 9.236-1.467 6.48 2.304 12.846 8.426 14.226m-12.98-15.252c2.053-9.077 10.698-14.864 19.326-12.915 8.627 1.936 13.96 10.88 11.915 19.952-2.047 9.078-10.697 14.865-19.325 12.917-8.622-1.94-13.955-10.878-11.915-19.954M28.51-94.411l4.443.49-3.483 31.57-4.442-.49z" style="fill:#690300;fill-opacity:1;fill-rule:nonzero;stroke:none;stroke-width:1.35538" transform="translate(244.23 117.987)"/><path d="m28.51-94.411 4.443.49-3.483 31.57-4.442-.49zM-3.775-95.702l-.064 4.736 10.64.152-.39 27.022 4.47.068.393-27.024 10.62.155.07-4.735zM-36.63-59.57l-8.902-30.488-4.3 1.252 6.904 23.622-23.045-18.905-4.57 1.34 8.898 30.486 4.3-1.254-6.845-23.416 22.858 18.74zM-97.368-65.685l10.416-4.935c2.586-1.226 5.655-.154 6.85 2.386 1.208 2.54.094 5.59-2.483 6.815l-10.42 4.94zm6.399 13.489 8-3.795 11.777 7.811 4.708-2.234-11.91-8.128c3.306-2.815 4.455-7.585 2.507-11.693-2.323-4.902-8.18-6.99-13.094-4.66l-14.458 6.859 13.612 28.697 4.048-1.92zM-94.211-36.723l-2.657-3.925-15.47 10.453-5.256-7.786 15.473-10.45-2.643-3.925-15.48 10.45-4.564-6.764 15.468-10.452-2.647-3.926-19.184 12.957 17.776 26.326zM-156.392-28.137l3.173 3.516 7.886-7.132 18.135 20.046 3.318-3.004-18.129-20.047 7.89-7.13-3.176-3.511zM-22.416-87.449l6.318 11.743-9.46 1.217zm-4.338 17.886 13.053-1.678 4.213 7.819 4.73-.613-16.111-29.95-4.695.604-8.03 33.053 4.747-.61zM165.131 17.535l24.522-20.198-2.852-3.46L167.815 9.53l8.284-28.632-3.035-3.673-24.51 20.2 2.851 3.46 18.825-15.519-8.213 28.387zM194.543 250.546l-23.29-13.715-2.264 3.847 27.365 16.129 10.933-18.549-4.087-2.401zM200.263 82.811l26.4-5.808-.972-4.37-31.015 6.824 4.62 21.026 4.627-1.024zM178.823 16.216c-6.196 3.607-8.306 11.569-4.69 17.776 3.61 6.196 11.576 8.294 17.772 4.687l17.053-9.93-2.253-3.862-17.048 9.927c-3.903 2.27-8.983.81-11.352-3.26-2.368-4.06-1.127-9.202 2.772-11.472l17.048-9.932-2.254-3.866zM201.826 126.98l4.725-.397-1.58-18.594 9.357-.799 1.58 18.595 4.725-.397-1.58-18.599 8.139-.687 1.575 18.596 4.718-.402-1.96-23.063-31.648 2.684zM192.468 61.305c-2.23-5.848.984-12.515 7.191-14.883 6.208-2.37 13.042.451 15.284 6.305 1.472 3.85.562 8.05-1.983 11.153l1.844 4.823c4.984-4.415 7.06-11.387 4.639-17.695-3.144-8.26-12.76-12.263-21.45-8.946-8.691 3.322-13.175 12.708-10.025 20.964 2.426 6.35 8.655 10.166 15.347 10.1l-1.84-4.81c-4-.588-7.51-3.125-9.007-7.01M160.263 258.456c-3.973 4.847-3.023 12.19 2.121 16.4 5.138 4.206 12.52 3.69 16.49-1.163 3.967-4.852 3.025-12.193-2.12-16.401-5.133-4.204-12.518-3.68-16.491 1.164m19.446-4.77c7.2 5.898 8.5 16.225 2.896 23.062-5.587 6.838-15.973 7.608-23.181 1.716-7.203-5.898-8.49-16.222-2.898-23.06 5.6-6.84 15.98-7.61 23.183-1.719M137.145 282.34c-4.713 4.119-5 11.518-.627 16.519 4.369 5.005 11.726 5.711 16.45 1.59 4.72-4.127 5.007-11.518.634-16.524-4.376-5.001-11.743-5.713-16.457-1.585m19.963-1.478c6.126 7.007 5.69 17.403-.965 23.222-6.652 5.81-17.014 4.855-23.143-2.158-6.12-7.004-5.678-17.403.972-23.222 6.65-5.816 17.014-4.85 23.136 2.158M92.6 338.161c-5.79 2.417-12.543-.585-15.107-6.715-2.562-6.127.047-13.054 5.822-15.47 3.806-1.595 8.036-.82 11.21 1.624l4.77-1.993c-4.57-4.842-11.599-6.686-17.842-4.081-8.155 3.411-11.851 13.135-8.258 21.722 3.592 8.588 13.105 12.776 21.26 9.369 6.266-2.62 9.893-8.969 9.611-15.666l-4.753 1.984c-.454 4.027-2.873 7.622-6.713 9.226M-173.147 243.38l-4.017 2.505 5.672 9.124c-4.837 1.234-9.992-.542-12.651-4.788-3.305-5.324-1.42-12.474 4.214-15.987 5.644-3.507 12.898-2.041 16.206 3.278 2.18 3.505 2.095 7.79.18 11.318l2.737 4.39c4.046-5.294 4.753-12.514 1.178-18.258-4.667-7.505-14.858-9.601-22.756-4.683-7.9 4.922-10.524 14.987-5.856 22.497 4.014 6.446 12.09 8.88 19.303 6.336a18.162 18.162 0 0 0 3.463-1.656c.259-.164.51-.35.759-.53zM116.091 293.977l6.795 10.967-14.492 8.972-6.79-10.965-3.802 2.355 16.732 27.005 3.798-2.364-7.443-12.005 14.496-8.964 7.433 12.003 3.815-2.36-16.721-27zM64.371 351.916a9.43 9.43 0 0 0 6.869-11.433c-1.265-5.056-6.374-8.135-11.438-6.872l-7.685 1.916c-2.24.559-4.478-.767-5.03-2.952-.54-2.191.822-4.409 3.052-4.966l15.468-3.861-1.138-4.594-15.473 3.858c-4.73 1.178-7.61 5.963-6.432 10.69 1.173 4.735 5.965 7.605 10.697 6.43l7.696-1.928c2.552-.63 5.134.895 5.759 3.406.627 2.518-.93 5.076-3.494 5.713l-15.72 3.921 1.142 4.594zM28.643 358.704l-.242-4.73-18.64.925-.465-9.379 18.64-.926-.23-4.735-18.646.928-.408-8.155 18.646-.924-.236-4.73-23.118 1.147 1.58 31.726zM-24.933 325.802l-.424 4.712 10.574.968-2.458 26.923 4.453.405 2.46-26.92 10.594.974.436-4.715zM-38.934 341.88l-9.283-2.196 7.502-11.018zm1.867 13.824 4.64 1.105-4.537-33.718-4.615-1.085-19.151 28.105 4.655 1.104 5-7.343 12.825 3.033zM-63.415 336.536c-2.713 6.647-10.288 9.85-16.945 7.143-6.644-2.704-9.84-10.293-7.138-16.948l7.438-18.269 4.149 1.683-7.432 18.28c-1.7 4.186.437 9.003 4.806 10.78 4.363 1.77 9.277-.175 10.978-4.36l7.433-18.272 4.143 1.684zM-102.333 323.438c-2.529.855-4.955.59-7.255-.803l-7.684-4.64 11.51-19.087 6.959 4.202c2.58 1.553 4.114 3.702 4.627 6.446.505 2.742-.115 5.572-1.88 8.488-1.651 2.741-3.742 4.536-6.277 5.394m-10.02 3.063c3.433 2.072 7.03 2.602 10.8 1.596 4.048-1.077 7.244-3.553 9.583-7.431 2.558-4.233 3.415-8.324 2.581-12.26-.828-3.936-3.265-7.118-7.282-9.543l-10.47-6.316-16.408 27.197zM-129.05 298.943l-7.293-6.16 11.682-6.433zm-4.599 13.17 3.654 3.08 11.205-32.112-3.625-3.06-29.789 16.405 3.635 3.08 7.783-4.277 10.058 8.494zM-150.667 257.739l7.59 8.677c1.888 2.15 1.693 5.398-.418 7.243-2.125 1.853-5.359 1.62-7.239-.534l-7.6-8.676zm-11.232 9.826 5.832 6.663-4.297 13.472 3.427 3.92 4.577-13.678c3.607 2.407 8.509 2.224 11.93-.778 4.086-3.574 4.497-9.782.919-13.865l-10.546-12.046-23.894 20.923 2.94 3.368zM225.237 171.424l-2.466 11.264c-.614 2.787-3.333 4.564-6.082 3.96-2.747-.604-4.476-3.351-3.868-6.145l2.472-11.258zm-14.576-3.198-1.896 8.65-13.388 4.544-1.116 5.09 13.722-4.455c.2 4.341 3.265 8.174 7.713 9.149 5.3 1.159 10.54-2.2 11.702-7.507l3.42-15.63-31.026-6.798-.96 4.371zM213.931 149.158l.563-9.521 12.15 5.5zm-13.3 4.21-.282 4.771 32.429-10.253.287-4.748-30.992-14.028-.287 4.765 8.093 3.67-.78 13.145zM-182.562 211.661a7.811 7.811 0 0 0-7.812-7.812 7.813 7.813 0 1 0 7.811 7.812M210.637 213.864a7.811 7.811 0 1 0-15.622 0 7.812 7.812 0 1 0 15.622 0" style="fill:#690300;fill-opacity:1;fill-rule:nonzero;stroke:none;stroke-width:1.35538" transform="translate(244.23 117.987)"/><path d="M48.507 92.15c63.426 65.113 96.898 135.397 74.735 156.972-22.142 21.583-91.53-13.678-154.974-78.79C-95.16 105.23-128.62 34.959-106.47 13.363-84.308-8.22-14.93 27.06 48.507 92.151Z" style="fill:none;stroke:#ccc;stroke-width:2.71076;stroke-linecap:butt;stroke-linejoin:miter;stroke-miterlimit:4;stroke-dasharray:none;stroke-opacity:1" transform="translate(244.23 117.987)"/><path d="M-30.025 90.455C35.085 27.019 105.36-6.446 126.937 15.702c21.589 22.155-13.68 91.546-78.792 154.97-65.099 63.446-135.365 96.906-156.96 74.749-21.583-22.14 13.699-91.529 78.79-154.966z" style="fill:none;stroke:#ccc;stroke-width:2.71076;stroke-linecap:butt;stroke-linejoin:miter;stroke-miterlimit:4;stroke-dasharray:none;stroke-opacity:1" transform="translate(244.23 117.987)"/><path d="M44.987 39.894c0 7.08-5.723 12.826-12.809 12.826-7.091 0-12.817-5.746-12.817-12.826 0-7.081 5.726-12.828 12.817-12.828 7.086 0 12.809 5.747 12.809 12.828M125.305 175.905c0 7.088-5.73 12.837-12.8 12.837-7.097 0-12.83-5.75-12.83-12.837 0-7.082 5.733-12.826 12.83-12.826 7.07 0 12.8 5.744 12.8 12.826" style="fill:#ccc;fill-opacity:1;fill-rule:nonzero;stroke:none;stroke-width:1.35538" transform="translate(244.23 117.987)"/><path d="M-73.347 100.85v65.929h14.77V100.85zM-43.223 100.89l14.675-.039 30.383 41.214.092-41.326h14.847l-.03 65.792-14.483-.04-30.792-40.847v41.024h-14.773zM-142.109 100.89v65.672h14.771V100.891z" style="fill:#690300;fill-opacity:1;fill-rule:nonzero;stroke:none;stroke-width:1.35538" transform="translate(244.23 117.987)"/><path d="m-101.076 100.85-26.467 30.976 25.726 34.717 17.497-.015-24.576-34.157 26.37-31.52zM85.57 100.696v13.26H60.204s-5.581-.083-9.524 1.988c0 0-2.373 1.018-4.495 3.57 0 0-1.385 1.287-2.69 3.84 0 0-1.862 3.167-2.196 8.173 0 0-.339 3.018.334 7.142 0 0 .684 4.262 2.988 7.555 0 0 1.896 3.482 6.859 5.46 0 0 4 1.466 9.127 1.472H70.94v-18.957h14.63v32.268H57.91s-5.513.127-11.375-1.894c0 0-5.019-1.507-9.678-5.615 0 0-4.083-3.48-6.784-8.197 0 0-2.77-4.262-3.822-10.208 0 0-.88-4.37-.575-8.776.305-4.4.931-6.86 1.89-9.711.967-2.852 2.708-5.96 4.594-8.527 0 0 3.35-4.627 7.806-7.559 0 0 4.356-3.152 10.592-4.445 0 0 3.582-.84 7.903-.84zM94.455 146.19h15.79c.593 3.594 2.345 6.261 5.231 7.99 2.886 1.741 7.052 2.614 12.513 2.614 4.65 0 8.157-.698 10.512-2.103 2.35-1.383 3.535-3.449 3.535-6.185 0-3.978-6.777-7.274-20.335-9.889-.172-.031-.335-.058-.471-.09a45.616 45.616 0 0 1-1.64-.317c-7.253-1.332-12.425-2.83-15.524-4.493-2.752-1.486-4.845-3.483-6.289-5.996-1.447-2.509-2.165-5.466-2.165-8.886 0-6.38 2.568-11.283 7.713-14.68 5.144-3.398 14.14-5.097 23.853-5.097 9.094 0 16.192 1.81 21.32 5.43 5.12 3.628 7.828 8.732 8.104 15.327h-15.37c-.282-3.182-1.718-5.595-4.334-7.265-2.603-1.659-7.898-2.488-12.708-2.488-4.197 0-7.426.687-9.691 2.068-2.277 1.377-3.404 3.355-3.404 5.907 0 3.471 4.415 6.067 13.25 7.793 2.396.472 4.258.84 5.593 1.116 5.678 1.218 9.696 2.166 12.07 2.848 2.38.68 4.448 1.44 6.207 2.273 3.173 1.48 5.541 3.452 7.128 5.904 1.593 2.453 2.373 5.379 2.373 8.799 0 6.828-2.718 12.12-8.178 15.88-5.455 3.758-13.151 5.639-23.085 5.639-9.787 0-17.467-1.925-23.025-5.752-5.564-3.83-8.558-9.278-8.973-16.347" style="fill:#690300;fill-opacity:1;fill-rule:nonzero;stroke:none;stroke-width:1.35538" transform="translate(244.23 117.987)"/><path d="M5.767-112.077c-134.81 0-244.09 109.282-244.09 244.09 0 134.803 109.28 244.083 244.09 244.083 134.815 0 244.1-109.28 244.1-244.083 0-134.808-109.285-244.09-244.1-244.09m250.002 244.09c0 138.07-111.927 250-250.002 250-138.076 0-249.998-111.93-249.998-250 0-138.074 111.922-250 249.998-250 138.075 0 250.002 111.926 250.002 250" style="fill:#ccc;fill-opacity:1;fill-rule:nonzero;stroke:none;stroke-width:1.35538" transform="translate(244.23 117.987)"/></svg>