<svg xmlns="http://www.w3.org/2000/svg" width="435.84695mm" height="300mm" viewBox="0 0 435.84694 300"><defs><clipPath id="a" clipPathUnits="userSpaceOnUse"><path d="M0 595.28h841.89V0H0Z"/></clipPath><clipPath id="b" clipPathUnits="userSpaceOnUse"><path d="M510.753 397.237c1.662-.953 2.924-2.487 4.381-3.78 22.839-20.288 28.232-54.861 9.044-81.998l26.471-19.395a76.11 76.11 0 0 1 1.693 2.225c28.921 39.476 20.369 94.936-19.117 123.852a91.128 91.128 0 0 1-4.772 3.265z"/></clipPath><clipPath id="d" clipPathUnits="userSpaceOnUse"><path d="M0 595.28h841.89V0H0Z"/></clipPath><clipPath id="e" clipPathUnits="userSpaceOnUse"><path d="M436.247 414.936h57.789v-23.352h-57.789z"/></clipPath><clipPath id="f" clipPathUnits="userSpaceOnUse"><path d="m443.421 391.584-7.174 14.683c17.741 10.037 38.749 11.692 57.789 3.213l-9.704-14.7c-13.22 4.666-28.03 3.384-40.911-3.196"/></clipPath><clipPath id="h" clipPathUnits="userSpaceOnUse"><path d="M484.332 414.058h57.99v-67.197h-57.99z"/></clipPath><clipPath id="i" clipPathUnits="userSpaceOnUse"><path d="M471.267 404.562h48.315v-42.001h-48.315z"/></clipPath><linearGradient id="c" x1="0" x2="1" y1="0" y2="0" gradientTransform="scale(114.32442) rotate(-87.735 4.27 -.606)" gradientUnits="userSpaceOnUse" spreadMethod="pad"><stop offset="0" style="stop-opacity:1;stop-color:#6dcff6"/><stop offset="1" style="stop-opacity:1;stop-color:#313a5d"/></linearGradient><linearGradient id="g" x1="0" x2="1" y1="0" y2="0" gradientTransform="rotate(8.344 -2521.322 3222.573) scale(48.92436)" gradientUnits="userSpaceOnUse" spreadMethod="pad"><stop offset="0" style="stop-opacity:1;stop-color:#b0c936"/><stop offset="0.14309408" style="stop-opacity:1;stop-color:#b0c936"/><stop offset="0.567416" style="stop-opacity:1;stop-color:#239ed9"/><stop offset="0.865168" style="stop-opacity:1;stop-color:#0075be"/><stop offset="0.994382" style="stop-opacity:1;stop-color:#005b97"/><stop offset="1" style="stop-opacity:1;stop-color:#005b97"/></linearGradient></defs><path d="m0 0-5.928 9.851-3.556-4.041V0h-3.202v19.982h3.202V9.936l8.625 10.046h3.912l-6.847-7.83L3.764 0Z" style="fill:#103d84;fill-opacity:1;fill-rule:nonzero;stroke:none" transform="matrix(1.17921 0 0 -1.17921 14.96 292.52)"/><g clip-path="url(#a)" transform="matrix(1.17921 0 0 -1.17921 -268.811 496.927)"><path d="M0 0c-.02.393-.069.776-.148 1.15-.08.374-.198.725-.356 1.053a3.312 3.312 0 0 1-.622.884c-.711.674-1.601 1.011-2.667 1.011-1.048 0-1.927-.337-2.639-1.011a2.813 2.813 0 0 1-.636-.884 5.766 5.766 0 0 1-.356-1.053A6.348 6.348 0 0 1-7.587 0a23.194 23.194 0 0 1 0-2.357 6.37 6.37 0 0 1 .519-2.218c.148-.336.36-.627.636-.87.712-.673 1.591-1.01 2.639-1.01 1.066 0 1.956.337 2.667 1.01.257.243.464.534.622.87.158.337.276.692.356 1.066.079.375.128.758.148 1.152A23.125 23.125 0 0 1 0 0m1.823-4.196C1.596-5.141 1.116-5.969.386-6.68a5.747 5.747 0 0 0-1.809-1.15c-.691-.281-1.481-.421-2.37-.421-.89 0-1.68.14-2.371.421a5.736 5.736 0 0 0-1.809 1.15 4.646 4.646 0 0 0-.903 1.165 6.409 6.409 0 0 0-.534 1.319 8.38 8.38 0 0 0-.267 1.445c-.05.506-.074 1.029-.074 1.572 0 .524.024 1.043.074 1.558.049.515.139 1.001.267 1.459.129.459.306.898.534 1.319.227.421.528.81.903 1.165.514.487 1.117.87 1.809 1.151.691.28 1.481.421 2.371.421.889 0 1.679-.141 2.37-.421A5.75 5.75 0 0 0 .386 4.322c.73-.712 1.21-1.539 1.437-2.484.227-.944.341-1.95.341-3.017 0-1.066-.114-2.072-.341-3.017" style="fill:#103d84;fill-opacity:1;fill-rule:nonzero;stroke:none" transform="translate(255.611 181.424)"/><path d="M0 0c-.396.374-.771.636-1.126.786-.355.15-.82.225-1.393.225A3.616 3.616 0 0 1-3.971.729a3.012 3.012 0 0 1-1.096-.785 3.739 3.739 0 0 1-.697-1.178 4.12 4.12 0 0 1-.252-1.46v-8.476H-8.15V2.639h2.134V.954c.395.58.963 1.034 1.704 1.361a5.83 5.83 0 0 0 2.386.492c.692 0 1.319-.094 1.882-.281.564-.187 1.102-.524 1.615-1.01Z" style="fill:#103d84;fill-opacity:1;fill-rule:nonzero;stroke:none" transform="translate(269.748 184.511)"/><path d="M0 0c-.02.206-.044.393-.074.562-.03.167-.07.332-.118.491-.05.158-.115.332-.193.518a3.275 3.275 0 0 1-1.334 1.516c-.612.374-1.303.561-2.074.561-.771 0-1.463-.187-2.075-.561a3.275 3.275 0 0 1-1.334-1.516A5.197 5.197 0 0 1-7.527.562c-.06-.3-.1-.731-.119-1.291H.06C.04-.449.02-.206 0 0m-7.646-2.245c0-1.507.365-2.675 1.096-3.502.731-.828 1.798-1.241 3.201-1.241.849 0 1.556.126 2.12.379.562.253 1.13.649 1.704 1.192l1.452-1.207a11.265 11.265 0 0 0-1.112-.935 6.194 6.194 0 0 0-1.17-.67 6.48 6.48 0 0 0-1.378-.413 9.165 9.165 0 0 0-1.675-.142c-.969 0-1.843.139-2.623.421a5.09 5.09 0 0 0-2 1.291c-.554.579-.984 1.313-1.29 2.203-.307.888-.459 1.94-.459 3.157 0 2.245.533 3.985 1.6 5.22C-7.113 4.743-5.651 5.36-3.793 5.36c1.897 0 3.368-.598 4.416-1.796C1.67 2.366 2.193.739 2.193-1.319v-.926z" style="fill:#103d84;fill-opacity:1;fill-rule:nonzero;stroke:none" transform="translate(281.307 181.958)"/><path d="M0 0h-4.09c-2.174 0-3.261-.814-3.261-2.442 0-.805.267-1.399.801-1.782.533-.383 1.383-.576 2.549-.576.632 0 1.22.047 1.763.141.544.094 1.042.355 1.497.786.494.449.741 1.244.741 2.386Zm0-6.371v1.319c-.593-.561-1.2-.95-1.823-1.165-.622-.215-1.418-.322-2.386-.322-1.008 0-1.833.098-2.475.294a3.931 3.931 0 0 0-1.644.969 3.301 3.301 0 0 0-.816 1.249 4.37 4.37 0 0 0-.281 1.557c0 1.216.43 2.184 1.289 2.905.86.72 2.11 1.081 3.749 1.081H0v1.318c0 1.011-.287 1.769-.859 2.273-.574.506-1.532.758-2.875.758-.949 0-1.69-.117-2.223-.35-.534-.235-1.019-.641-1.452-1.221l-1.453 1.263c.652.804 1.379 1.347 2.178 1.628.801.28 1.793.42 2.979.42 1.976 0 3.442-.388 4.401-1.165.958-.776 1.438-1.921 1.438-3.437v-9.374z" style="fill:#103d84;fill-opacity:1;fill-rule:nonzero;stroke:none" transform="translate(295.563 179.713)"/><path d="M0 0v13.359L-4.86 3.62h-2.371l-4.98 9.739V0h-3.201v19.982h3.201L-6.046 7.55 0 19.982h3.201V0Z" style="fill:#103d84;fill-opacity:1;fill-rule:nonzero;stroke:none" transform="translate(324.281 173.341)"/><path d="M0 0c-.02.206-.044.393-.074.562-.03.167-.07.332-.118.491-.05.158-.115.332-.193.518a3.275 3.275 0 0 1-1.334 1.516c-.612.374-1.303.561-2.074.561-.771 0-1.463-.187-2.075-.561a3.275 3.275 0 0 1-1.334-1.516A5.197 5.197 0 0 1-7.527.562c-.06-.3-.1-.731-.119-1.291H.06C.04-.449.02-.206 0 0m-7.646-2.245c0-1.507.365-2.675 1.096-3.502.731-.828 1.798-1.241 3.201-1.241.849 0 1.556.126 2.12.379.562.253 1.13.649 1.704 1.192l1.452-1.207a11.265 11.265 0 0 0-1.112-.935 6.194 6.194 0 0 0-1.17-.67 6.48 6.48 0 0 0-1.378-.413 9.165 9.165 0 0 0-1.675-.142c-.969 0-1.843.139-2.623.421a5.09 5.09 0 0 0-2 1.291c-.554.579-.984 1.313-1.29 2.203-.307.888-.459 1.94-.459 3.157 0 2.245.533 3.985 1.6 5.22C-7.113 4.743-5.651 5.36-3.793 5.36c1.897 0 3.368-.598 4.416-1.796C1.67 2.366 2.193.739 2.193-1.319v-.926z" style="fill:#103d84;fill-opacity:1;fill-rule:nonzero;stroke:none" transform="translate(341.115 181.958)"/><path d="M0 0c-.633 0-1.182.099-1.646.295a3.241 3.241 0 0 0-1.155.8 3.42 3.42 0 0 0-.697 1.178c-.158.45-.236.926-.236 1.432v8.476h-1.838v1.543h1.838v4.322h2.133v-4.322h3.112v-1.543h-3.112v-8.42c0-.637.158-1.132.474-1.488.316-.355.82-.533 1.512-.533h1.126V0Z" style="fill:#103d84;fill-opacity:1;fill-rule:nonzero;stroke:none" transform="translate(351.192 173.341)"/><path d="M0 0c-.02.206-.044.393-.074.562-.03.167-.07.332-.118.491-.05.158-.115.332-.193.518a3.275 3.275 0 0 1-1.334 1.516c-.612.374-1.303.561-2.074.561-.771 0-1.463-.187-2.075-.561a3.275 3.275 0 0 1-1.334-1.516A5.197 5.197 0 0 1-7.527.562c-.06-.3-.1-.731-.119-1.291H.06C.04-.449.02-.206 0 0m-7.646-2.245c0-1.507.365-2.675 1.096-3.502.731-.828 1.798-1.241 3.201-1.241.849 0 1.556.126 2.12.379.562.253 1.13.649 1.704 1.192l1.452-1.207a11.265 11.265 0 0 0-1.112-.935 6.194 6.194 0 0 0-1.17-.67 6.48 6.48 0 0 0-1.378-.413 9.165 9.165 0 0 0-1.675-.142c-.969 0-1.843.139-2.623.421a5.09 5.09 0 0 0-2 1.291c-.554.579-.984 1.313-1.29 2.203-.307.888-.459 1.94-.459 3.157 0 2.245.533 3.985 1.6 5.22C-7.113 4.743-5.651 5.36-3.793 5.36c1.897 0 3.368-.598 4.416-1.796C1.67 2.366 2.193.739 2.193-1.319v-.926z" style="fill:#103d84;fill-opacity:1;fill-rule:nonzero;stroke:none" transform="translate(364.943 181.958)"/><path d="M0 0c-.02.393-.069.776-.148 1.15-.08.374-.198.725-.356 1.053a3.312 3.312 0 0 1-.622.884c-.711.674-1.601 1.011-2.667 1.011-1.048 0-1.927-.337-2.639-1.011a2.813 2.813 0 0 1-.636-.884 5.766 5.766 0 0 1-.356-1.053A6.348 6.348 0 0 1-7.587 0a23.194 23.194 0 0 1 0-2.357 6.37 6.37 0 0 1 .519-2.218c.148-.336.36-.627.636-.87.712-.673 1.591-1.01 2.639-1.01 1.066 0 1.956.337 2.667 1.01.257.243.464.534.622.87.158.337.276.692.356 1.066.079.375.128.758.148 1.152A23.125 23.125 0 0 1 0 0m1.823-4.196C1.596-5.141 1.116-5.969.386-6.68a5.747 5.747 0 0 0-1.809-1.15c-.691-.281-1.481-.421-2.37-.421-.89 0-1.68.14-2.371.421a5.736 5.736 0 0 0-1.809 1.15 4.646 4.646 0 0 0-.903 1.165 6.409 6.409 0 0 0-.534 1.319 8.38 8.38 0 0 0-.267 1.445c-.05.506-.074 1.029-.074 1.572 0 .524.024 1.043.074 1.558.049.515.139 1.001.267 1.459.129.459.306.898.534 1.319.227.421.528.81.903 1.165.514.487 1.117.87 1.809 1.151.691.28 1.481.421 2.371.421.889 0 1.679-.141 2.37-.421A5.75 5.75 0 0 0 .386 4.322c.73-.712 1.21-1.539 1.437-2.484.227-.944.341-1.95.341-3.017 0-1.066-.114-2.072-.341-3.017" style="fill:#103d84;fill-opacity:1;fill-rule:nonzero;stroke:none" transform="translate(379.91 181.424)"/><path d="M0 0c-.396.374-.771.636-1.126.786-.355.15-.82.225-1.393.225A3.616 3.616 0 0 1-3.971.729a3.012 3.012 0 0 1-1.096-.785 3.739 3.739 0 0 1-.697-1.178 4.12 4.12 0 0 1-.252-1.46v-8.476H-8.15V2.639h2.134V.954c.395.58.963 1.034 1.704 1.361a5.83 5.83 0 0 0 2.386.492c.692 0 1.319-.094 1.882-.281.564-.187 1.102-.524 1.615-1.01Z" style="fill:#103d84;fill-opacity:1;fill-rule:nonzero;stroke:none" transform="translate(394.048 184.511)"/><path d="M0 0c-.02.393-.069.776-.148 1.15-.08.374-.198.725-.356 1.053a3.312 3.312 0 0 1-.622.884c-.711.674-1.601 1.011-2.667 1.011-1.048 0-1.927-.337-2.639-1.011a2.813 2.813 0 0 1-.636-.884 5.766 5.766 0 0 1-.356-1.053A6.348 6.348 0 0 1-7.587 0a23.194 23.194 0 0 1 0-2.357 6.37 6.37 0 0 1 .519-2.218c.148-.336.36-.627.636-.87.712-.673 1.591-1.01 2.639-1.01 1.066 0 1.956.337 2.667 1.01.257.243.464.534.622.87.158.337.276.692.356 1.066.079.375.128.758.148 1.152A23.125 23.125 0 0 1 0 0m1.823-4.196C1.596-5.141 1.116-5.969.386-6.68a5.747 5.747 0 0 0-1.809-1.15c-.691-.281-1.481-.421-2.37-.421-.89 0-1.68.14-2.371.421a5.736 5.736 0 0 0-1.809 1.15 4.646 4.646 0 0 0-.903 1.165 6.409 6.409 0 0 0-.534 1.319 8.38 8.38 0 0 0-.267 1.445c-.05.506-.074 1.029-.074 1.572 0 .524.024 1.043.074 1.558.049.515.139 1.001.267 1.459.129.459.306.898.534 1.319.227.421.528.81.903 1.165.514.487 1.117.87 1.809 1.151.691.28 1.481.421 2.371.421.889 0 1.679-.141 2.37-.421A5.75 5.75 0 0 0 .386 4.322c.73-.712 1.21-1.539 1.437-2.484.227-.944.341-1.95.341-3.017 0-1.066-.114-2.072-.341-3.017" style="fill:#103d84;fill-opacity:1;fill-rule:nonzero;stroke:none" transform="translate(405.606 181.424)"/><path d="M0 0c-1.284 0-2.223.351-2.815 1.053-.593.701-.889 1.576-.889 2.624v16.305h2.134V3.761c0-.674.137-1.179.415-1.516.276-.337.79-.505 1.541-.505h1.156V0Z" style="fill:#103d84;fill-opacity:1;fill-rule:nonzero;stroke:none" transform="translate(415.238 173.341)"/><path d="M0 0c-.02.393-.069.776-.148 1.15-.08.374-.198.725-.356 1.053a3.312 3.312 0 0 1-.622.884c-.711.674-1.601 1.011-2.667 1.011-1.048 0-1.927-.337-2.639-1.011a2.813 2.813 0 0 1-.636-.884 5.766 5.766 0 0 1-.356-1.053A6.348 6.348 0 0 1-7.587 0a23.194 23.194 0 0 1 0-2.357 6.37 6.37 0 0 1 .519-2.218c.148-.336.36-.627.636-.87.712-.673 1.591-1.01 2.639-1.01 1.066 0 1.956.337 2.667 1.01.257.243.464.534.622.87.158.337.276.692.356 1.066.079.375.128.758.148 1.152A23.125 23.125 0 0 1 0 0m1.823-4.196C1.596-5.141 1.116-5.969.386-6.68a5.747 5.747 0 0 0-1.809-1.15c-.691-.281-1.481-.421-2.37-.421-.89 0-1.68.14-2.371.421a5.736 5.736 0 0 0-1.809 1.15 4.646 4.646 0 0 0-.903 1.165 6.409 6.409 0 0 0-.534 1.319 8.38 8.38 0 0 0-.267 1.445c-.05.506-.074 1.029-.074 1.572 0 .524.024 1.043.074 1.558.049.515.139 1.001.267 1.459.129.459.306.898.534 1.319.227.421.528.81.903 1.165.514.487 1.117.87 1.809 1.151.691.28 1.481.421 2.371.421.889 0 1.679-.141 2.37-.421A5.75 5.75 0 0 0 .386 4.322c.73-.712 1.21-1.539 1.437-2.484.227-.944.341-1.95.341-3.017 0-1.066-.114-2.072-.341-3.017" style="fill:#103d84;fill-opacity:1;fill-rule:nonzero;stroke:none" transform="translate(428.042 181.424)"/><path d="M0 0a4.744 4.744 0 0 1-.504 1.66 3.116 3.116 0 0 1-1.097 1.168c-.474.3-1.107.45-1.897.45s-1.428-.15-1.911-.45A3.072 3.072 0 0 1-6.521 1.66 4.722 4.722 0 0 1-7.024 0a15.052 15.052 0 0 1 0-3.813 4.71 4.71 0 0 1 .503-1.647 3.065 3.065 0 0 1 1.112-1.168c.483-.3 1.121-.45 1.911-.45s1.423.15 1.897.45c.474.3.84.69 1.097 1.168A4.73 4.73 0 0 1 0-3.813 15.433 15.433 0 0 1 0 0m1.837-11.695a5.395 5.395 0 0 0-1.186-1.867c-.513-.523-1.151-.935-1.911-1.234-.761-.299-1.615-.449-2.563-.449-.554 0-1.048.033-1.483.099a5.71 5.71 0 0 0-1.229.329 6.292 6.292 0 0 0-1.127.584 8.835 8.835 0 0 0-1.111.868l1.393 1.291c.256-.224.508-.421.756-.589.246-.168.504-.314.77-.436.267-.121.558-.21.875-.266a6.33 6.33 0 0 1 1.096-.084c.711 0 1.319.111 1.822.334.504.223.919.519 1.246.89.326.371.563.812.711 1.322.148.51.222 1.062.222 1.655v2.143c-.593-.701-1.225-1.17-1.896-1.41a6.482 6.482 0 0 0-2.194-.359c-.751 0-1.427.112-2.03.337-.602.224-1.102.523-1.497.897a4.94 4.94 0 0 0-1.438 2.555 14.614 14.614 0 0 0-.34 3.199c0 1.122.114 2.189.34 3.199a4.932 4.932 0 0 0 1.438 2.554c.395.374.899.669 1.512.885.612.215 1.294.322 2.045.322.81 0 1.546-.117 2.208-.35.662-.235 1.289-.716 1.881-1.446v1.628h2.105V-9.323c0-.861-.139-1.652-.415-2.372" style="fill:#103d84;fill-opacity:1;fill-rule:nonzero;stroke:none" transform="translate(442.535 182.244)"/><path d="M449.381 187.15h2.135v-13.809h-2.135zm2.104 4.224a1.484 1.484 0 0 0-1.037-.407c-.395 0-.736.135-1.022.407-.287.27-.43.593-.43.968 0 .374.143.697.43.968.286.271.627.407 1.022.407s.741-.136 1.037-.407c.297-.271.445-.594.445-.968 0-.375-.148-.698-.445-.968" style="fill:#103d84;fill-opacity:1;fill-rule:nonzero;stroke:none"/><path d="M0 0c-.722-.299-1.586-.448-2.594-.448-.928 0-1.783.144-2.563.434-.781.29-1.463.73-2.045 1.32-.583.589-1.037 1.328-1.363 2.216-.327.889-.49 1.923-.49 3.102 0 1.179.163 2.207.49 3.087.326.879.78 1.614 1.363 2.203a5.702 5.702 0 0 0 2.045 1.333c.78.3 1.635.449 2.563.449 1.008 0 1.872-.149 2.594-.449.721-.299 1.457-.832 2.208-1.6L.756 10.356c-.554.581-1.077.983-1.571 1.207-.495.225-1.087.337-1.779.337-.711 0-1.353-.13-1.927-.393a3.752 3.752 0 0 1-1.452-1.179 4.32 4.32 0 0 1-.725-1.529c-.149-.571-.223-1.296-.223-2.175 0-.88.074-1.604.223-2.175a4.325 4.325 0 0 1 .725-1.53A3.77 3.77 0 0 1-4.521 1.74c.574-.261 1.216-.392 1.927-.392.692 0 1.284.116 1.779.35.494.234 1.017.641 1.571 1.221l1.452-1.318C1.457.833.721.3 0 0" style="fill:#103d84;fill-opacity:1;fill-rule:nonzero;stroke:none" transform="translate(464.394 173.622)"/><path d="M0 0h-4.09c-2.174 0-3.261-.814-3.261-2.442 0-.805.267-1.399.801-1.782.533-.383 1.383-.576 2.549-.576.632 0 1.22.047 1.763.141.544.094 1.042.355 1.497.786.494.449.741 1.244.741 2.386Zm0-6.371v1.319c-.593-.561-1.2-.95-1.823-1.165-.622-.215-1.418-.322-2.386-.322-1.008 0-1.833.098-2.475.294a3.931 3.931 0 0 0-1.644.969 3.301 3.301 0 0 0-.816 1.249 4.37 4.37 0 0 0-.281 1.557c0 1.216.43 2.184 1.289 2.905.86.72 2.11 1.081 3.749 1.081H0v1.318c0 1.011-.287 1.769-.859 2.273-.574.506-1.532.758-2.875.758-.949 0-1.69-.117-2.223-.35-.534-.235-1.019-.641-1.452-1.221l-1.453 1.263c.652.804 1.379 1.347 2.178 1.628.801.28 1.793.42 2.979.42 1.976 0 3.442-.388 4.401-1.165.958-.776 1.438-1.921 1.438-3.437v-9.374z" style="fill:#103d84;fill-opacity:1;fill-rule:nonzero;stroke:none" transform="translate(477.834 179.713)"/><path d="M0 0c-1.284 0-2.223.351-2.815 1.053-.593.701-.889 1.576-.889 2.624v16.305h2.134V3.761c0-.674.137-1.179.415-1.516.276-.337.79-.505 1.541-.505h1.156V0Z" style="fill:#103d84;fill-opacity:1;fill-rule:nonzero;stroke:none" transform="translate(488.058 173.341)"/><path d="M499.201 193.324h3.201v-19.982h-3.201z" style="fill:#103d84;fill-opacity:1;fill-rule:nonzero;stroke:none"/><path d="M0 0v8.504c0 1.234-.321 2.156-.963 2.765-.642.607-1.516.912-2.623.912-1.106 0-1.985-.309-2.638-.927-.652-.617-.977-1.534-.977-2.75V0h-2.135v13.809h2.135v-1.516a4.941 4.941 0 0 0 1.807 1.263c.692.28 1.453.421 2.283.421 1.58 0 2.825-.431 3.734-1.291 1.008-.936 1.512-2.217 1.512-3.845V0Z" style="fill:#103d84;fill-opacity:1;fill-rule:nonzero;stroke:none" transform="translate(516.42 173.341)"/><path d="M0 0a3.906 3.906 0 0 0-1.215-1.319c-.523-.366-1.146-.642-1.867-.828-.722-.187-1.526-.281-2.415-.281-1.245 0-2.352.15-3.32.449-.968.299-1.858.814-2.667 1.543l1.422 1.348A4.83 4.83 0 0 1-8.046-.323a8.334 8.334 0 0 1 2.519-.365c1.205 0 2.153.201 2.845.603C-1.99.317-1.645.93-1.645 1.754c0 .599-.192 1.066-.578 1.403-.384.337-1.003.542-1.852.617l-2.401.197c-1.422.112-2.503.472-3.245 1.081-.741.607-1.111 1.482-1.111 2.624 0 .636.133 1.202.399 1.697a3.78 3.78 0 0 0 1.112 1.264c.474.345 1.042.612 1.705.8a7.91 7.91 0 0 0 2.148.28c1.047 0 2.02-.122 2.919-.365.9-.244 1.675-.618 2.327-1.123L-1.615 8.91a5.295 5.295 0 0 1-1.763.828 8.141 8.141 0 0 1-2.119.267c-1.067 0-1.878-.201-2.431-.604-.553-.402-.83-.959-.83-1.67 0-.598.193-1.066.578-1.403.385-.337 1.042-.543 1.971-.617l2.342-.196a9.75 9.75 0 0 0 1.748-.309 3.81 3.81 0 0 0 1.363-.674c.376-.3.667-.674.875-1.123.207-.449.311-.991.311-1.628C.43 1.108.286.514 0 0" style="fill:#103d84;fill-opacity:1;fill-rule:nonzero;stroke:none" transform="translate(533.092 175.601)"/><path d="M0 0c-.633 0-1.182.099-1.646.295a3.241 3.241 0 0 0-1.155.8 3.42 3.42 0 0 0-.697 1.178c-.158.45-.236.926-.236 1.432v8.476h-1.838v1.543h1.838v4.322h2.133v-4.322h3.112v-1.543h-3.112v-8.42c0-.637.158-1.132.474-1.488.316-.355.82-.533 1.512-.533h1.126V0Z" style="fill:#103d84;fill-opacity:1;fill-rule:nonzero;stroke:none" transform="translate(540.754 173.341)"/><path d="M545.761 187.15h2.135v-13.809h-2.135zm2.104 4.224a1.484 1.484 0 0 0-1.037-.407c-.395 0-.736.135-1.022.407-.287.27-.43.593-.43.968 0 .374.143.697.43.968.286.271.627.407 1.022.407s.741-.136 1.037-.407c.297-.271.445-.594.445-.968 0-.375-.148-.698-.445-.968" style="fill:#103d84;fill-opacity:1;fill-rule:nonzero;stroke:none"/><path d="M0 0c-.633 0-1.182.099-1.646.295a3.241 3.241 0 0 0-1.155.8 3.42 3.42 0 0 0-.697 1.178c-.158.45-.236.926-.236 1.432v8.476h-1.838v1.543h1.838v4.322h2.133v-4.322h3.112v-1.543h-3.112v-8.42c0-.637.158-1.132.474-1.488.316-.355.82-.533 1.512-.533h1.126V0Z" style="fill:#103d84;fill-opacity:1;fill-rule:nonzero;stroke:none" transform="translate(556.61 173.341)"/><path d="M0 0v1.544A5.052 5.052 0 0 0-1.817.267a5.924 5.924 0 0 0-2.29-.435c-1.595 0-2.846.43-3.752 1.291A4.401 4.401 0 0 0-8.982 2.82c-.236.646-.354 1.371-.354 2.176v8.813h2.134V5.305c0-1.236.314-2.158.944-2.765.63-.608 1.495-.912 2.598-.912 1.101 0 1.982.309 2.641.926.66.618.989 1.534.989 2.751v8.504h2.164V0Z" style="fill:#103d84;fill-opacity:1;fill-rule:nonzero;stroke:none" transform="translate(570.805 173.341)"/><path d="M0 0c-.633 0-1.182.099-1.646.295a3.241 3.241 0 0 0-1.155.8 3.42 3.42 0 0 0-.697 1.178c-.158.45-.236.926-.236 1.432v8.476h-1.838v1.543h1.838v4.322h2.133v-4.322h3.112v-1.543h-3.112v-8.42c0-.637.158-1.132.474-1.488.316-.355.82-.533 1.512-.533h1.126V0Z" style="fill:#103d84;fill-opacity:1;fill-rule:nonzero;stroke:none" transform="translate(581.623 173.341)"/><path d="M0 0c-.02.206-.044.393-.074.562-.03.167-.07.332-.118.491-.05.158-.115.332-.193.518a3.275 3.275 0 0 1-1.334 1.516c-.612.374-1.303.561-2.074.561-.771 0-1.463-.187-2.075-.561a3.275 3.275 0 0 1-1.334-1.516A5.197 5.197 0 0 1-7.527.562c-.06-.3-.1-.731-.119-1.291H.06C.04-.449.02-.206 0 0m-7.646-2.245c0-1.507.365-2.675 1.096-3.502.731-.828 1.798-1.241 3.201-1.241.849 0 1.556.126 2.12.379.562.253 1.13.649 1.704 1.192l1.452-1.207a11.265 11.265 0 0 0-1.112-.935 6.194 6.194 0 0 0-1.17-.67 6.48 6.48 0 0 0-1.378-.413 9.165 9.165 0 0 0-1.675-.142c-.969 0-1.843.139-2.623.421a5.09 5.09 0 0 0-2 1.291c-.554.579-.984 1.313-1.29 2.203-.307.888-.459 1.94-.459 3.157 0 2.245.533 3.985 1.6 5.22C-7.113 4.743-5.651 5.36-3.793 5.36c1.897 0 3.368-.598 4.416-1.796C1.67 2.366 2.193.739 2.193-1.319v-.926z" style="fill:#103d84;fill-opacity:1;fill-rule:nonzero;stroke:none" transform="translate(595.374 181.958)"/><path d="M0 0c0 1.02-.83 1.853-1.852 1.853h-3.932l.004-30.269h3.928c1.022 0 1.852.832 1.852 1.853v12.498h5.539v4.706H0Z" style="fill:#103d84;fill-opacity:1;fill-rule:nonzero;stroke:none" transform="translate(264.946 243.513)"/><path d="M0 0h-19.293v-4.706h13.928c-.017-3.085-.473-5.758-1.356-7.946-.907-2.239-2.108-4.143-3.571-5.653a17.96 17.96 0 0 0-5.083-3.636 27.667 27.667 0 0 0-5.787-2.013c-.279-.061-.444-.191-.487-.38-.044-.178.017-.359.175-.524l2.467-2.923.184.03c2.122.332 4.361 1.05 6.654 2.135 2.299 1.09 4.437 2.608 6.357 4.508 1.895 1.934 3.478 4.333 4.714 7.14C.134-11.159.762-7.808.762-4.011v3.229c0 .275-.058.463-.181.591C.459-.063.268 0 0 0" style="fill:#103d84;fill-opacity:1;fill-rule:nonzero;stroke:none" transform="translate(334.031 242.673)"/><path d="M0 0h-3.881l-.003-41.927H0c1.023 0 1.856.829 1.856 1.853v38.221A1.857 1.857 0 0 1 0 0" style="fill:#103d84;fill-opacity:1;fill-rule:nonzero;stroke:none" transform="translate(345.804 245.365)"/><path d="M0 0c.734.836 1.286 1.732 1.64 2.672l.011-.02c.329-.93.873-1.816 1.618-2.636a14.839 14.839 0 0 1 2.515-2.184 14.93 14.93 0 0 1 2.899-1.491c1.004-.383 1.961-.607 2.841-.671l.167-.01 2.743 3.165a.549.549 0 0 1 .148.494c-.024.121-.115.332-.487.426-.937.087-1.971.339-3.068.745-1.088.4-2.112 1.054-3.038 1.943-.954.921-1.76 2.156-2.393 3.68-.632 1.517-.953 3.47-.953 5.811v2.699c0 1.02-.834 1.852-1.854 1.852h-4.142l-.011-4.8c-.022-2.236-.339-4.102-.942-5.542-.632-1.501-1.437-2.729-2.397-3.653-.928-.892-1.95-1.554-3.039-1.97-1.101-.42-2.142-.678-3.105-.772-.376-.081-.47-.298-.489-.416a.47.47 0 0 1 .191-.497l2.735-3.162.158.007c.913.03 1.891.248 2.903.651.992.392 1.964.903 2.898 1.514C-1.552-1.554-.725-.825 0 0" style="fill:#103d84;fill-opacity:1;fill-rule:nonzero;stroke:none" transform="translate(361.83 227.769)"/><path d="M0 0c0-1.386-.844-2.548-2.508-3.454C-4.21-4.381-6.166-4.83-8.49-4.83c-2.373 0-4.33.449-5.975 1.373-1.621.909-2.444 2.071-2.444 3.457 0 1.359.823 2.518 2.447 3.441 1.646.936 3.599 1.389 5.972 1.389 2.324 0 4.277-.456 5.978-1.393C-.844 2.514 0 1.359 0 0m1.498 6.596-.004.004c-1.31.825-2.851 1.496-4.58 1.997-1.729.5-3.594.752-5.542.752-1.983 0-3.87-.252-5.603-.752-1.73-.501-3.249-1.175-4.513-1.997-1.324-.836-2.368-1.833-3.109-2.965-.743-1.138-1.118-2.362-1.118-3.635 0-1.303.375-2.538 1.118-3.676.738-1.131 1.781-2.128 3.102-2.963 1.271-.827 2.795-1.491 4.524-1.978 1.736-.486 3.62-.732 5.599-.732 1.945 0 3.808.246 5.539.732 1.729.483 3.273 1.151 4.587 1.978 1.278.835 2.312 1.832 3.07 2.96C5.33-2.534 5.719-1.296 5.719 0c0 1.269-.389 2.494-1.151 3.635-.762 1.135-1.795 2.129-3.07 2.961" style="fill:#103d84;fill-opacity:1;fill-rule:nonzero;stroke:none" transform="translate(379.993 211.844)"/><path d="M0 0c1.124.933 2.457 1.383 4.075 1.383 1.585 0 2.918-.453 4.079-1.387 1.144-.919 1.722-2.077 1.722-3.444 0-1.393-.578-2.558-1.722-3.464-1.158-.919-2.494-1.366-4.079-1.366-1.618 0-2.954.443-4.075 1.363-1.111.906-1.675 2.074-1.675 3.467C-1.675-2.081-1.111-.923 0 0m3.968-12.796c1.568 0 3.072.248 4.468.731 1.393.487 2.638 1.155 3.699 1.985a9.856 9.856 0 0 1 2.474 2.964 7.65 7.65 0 0 1 .924 3.668c0 1.266-.31 2.488-.924 3.629a9.852 9.852 0 0 1-2.474 2.961l-.003.004c-.202.157-.413.302-.625.446h5.532v4.663H7.368v3.525a1.855 1.855 0 0 1-1.852 1.856H1.245V8.255h-9.587V3.592h4.75c-.204-.144-.412-.289-.607-.446C-5.264 2.31-6.107 1.312-6.701.178a7.711 7.711 0 0 1-.902-3.626 7.8 7.8 0 0 1 .902-3.668c.594-1.132 1.434-2.128 2.498-2.964 1.024-.83 2.253-1.495 3.652-1.985 1.397-.486 2.918-.731 4.519-.731" style="fill:#103d84;fill-opacity:1;fill-rule:nonzero;stroke:none" transform="translate(238.746 231.955)"/><path d="M0 0c0 1.299.531 2.404 1.579 3.28 1.053.883 2.305 1.312 3.827 1.312 1.489 0 2.742-.429 3.832-1.316 1.075-.875 1.62-1.977 1.62-3.276 0-1.322-.545-2.427-1.62-3.289-1.087-.876-2.343-1.3-3.832-1.3-1.522 0-2.776.424-3.83 1.296C.531-2.43 0-1.322 0 0m-2.872-6.311C-1.846-7.1-.621-7.734.779-8.197c1.397-.463 2.917-.699 4.516-.699 1.567 0 3.072.236 4.467.699 1.393.46 2.639 1.094 3.7 1.886a9.432 9.432 0 0 1 2.473 2.817A7.004 7.004 0 0 1 16.862 0c0 1.206-.311 2.37-.927 3.458a9.46 9.46 0 0 1-2.473 2.816l-.004.004c-1.057.789-2.299 1.426-3.693 1.903a13.812 13.812 0 0 1-4.47.718c-1.599 0-3.119-.242-4.519-.718-1.399-.477-2.625-1.118-3.643-1.903-1.066-.796-1.909-1.746-2.503-2.823a7.135 7.135 0 0 1 0-6.946c.594-1.078 1.434-2.027 2.498-2.82" style="fill:#103d84;fill-opacity:1;fill-rule:nonzero;stroke:none" transform="translate(561.068 237.138)"/><path d="M0 0c0 1.02-.833 1.853-1.854 1.853h-3.921l-.007-23.81h3.928c1.021 0 1.854.829 1.854 1.852v8.282h5.535v5.153H0Z" style="fill:#103d84;fill-opacity:1;fill-rule:nonzero;stroke:none" transform="translate(385.942 243.513)"/><path d="M0 0c.732.816 1.27 1.708 1.598 2.648a.05.05 0 0 0 .011-.013c.355-.933.915-1.826 1.661-2.659a12.811 12.811 0 0 1 2.507-2.158 13.82 13.82 0 0 1 2.884-1.541c.993-.386 1.946-.598 2.837-.627l.158-.007 2.738 3.205a.556.556 0 0 1 .144.497c-.022.121-.116.332-.487.424-.932.087-1.965.332-3.07.724-1.085.383-2.105 1.045-3.035 1.964-.953.92-1.759 2.172-2.39 3.723-.635 1.551-.957 3.564-.957 5.992v4.941a1.856 1.856 0 0 1-1.852 1.853H-1.4l.003-6.794c0-2.424-.322-4.435-.953-5.969-.633-1.537-1.44-2.782-2.397-3.703C-5.672 1.581-6.693.913-7.781.513c-1.101-.406-2.141-.657-3.105-.748-.356-.077-.467-.272-.497-.426-.014-.077-.037-.33.191-.487l2.74-3.209.16.007c.887.029 1.854.247 2.877.651a13.98 13.98 0 0 1 2.917 1.557C-1.567-1.534-.729-.812 0 0" style="fill:#103d84;fill-opacity:1;fill-rule:nonzero;stroke:none" transform="translate(402.987 224.785)"/><path d="M0 0c0 1.02-.83 1.853-1.853 1.853h-3.924l-.003-30.269h3.927c1.023 0 1.853.832 1.853 1.853v12.498h5.539v4.706H0Z" style="fill:#103d84;fill-opacity:1;fill-rule:nonzero;stroke:none" transform="translate(427.056 243.513)"/><path d="M0 0v.003c-.054.053-.08.141-.08.262v7.898c0 1.021-.83 1.854-1.854 1.854h-4.055V-.812c0-1.34.31-2.347.924-2.988.614-.651 1.577-.98 2.863-.98h25.961v4.706H.224C.12-.074.047-.051 0 0" style="fill:#103d84;fill-opacity:1;fill-rule:nonzero;stroke:none" transform="translate(403.723 208.665)"/><path d="M0 0c0-1.695-.588-3.112-1.748-4.213-1.176-1.114-2.529-1.654-4.13-1.654-1.642 0-2.992.54-4.126 1.651-1.13 1.1-1.704 2.521-1.704 4.216 0 1.662.574 3.075 1.704 4.196 1.138 1.125 2.488 1.672 4.126 1.672 1.601 0 2.95-.547 4.126-1.679C-.588 3.072 0 1.662 0 0m14.039 11.883h-3.931l.003-8.522H4.744c-.112.345-.239.684-.383 1.016-.606 1.367-1.42 2.572-2.434 3.576l-.003.007a12.5 12.5 0 0 1-3.632 2.419c-1.38.608-2.862.917-4.408.917-1.578 0-3.079-.309-4.455-.917a11.85 11.85 0 0 1-3.588-2.419 10.882 10.882 0 0 1-2.458-3.586A11.056 11.056 0 0 1-17.499 0c0-1.567.296-3.055.882-4.421a10.927 10.927 0 0 1 2.454-3.585c1.007-1 2.22-1.809 3.596-2.4s2.873-.89 4.451-.89c1.545 0 3.028.299 4.401.89a12.125 12.125 0 0 1 3.642 2.4 11.659 11.659 0 0 1 2.434 3.582c.365.835.607 1.718.751 2.631h4.999v-9.506h3.928c1.023 0 1.856.833 1.856 1.853v19.477c0 1.02-.833 1.852-1.856 1.852" style="fill:#103d84;fill-opacity:1;fill-rule:nonzero;stroke:none" transform="translate(453.13 233.482)"/><path d="M0 0v-3.253c0-.265-.056-.328-.056-.328s-.057-.054-.292-.054h-17.916c-.164 0-.265.01-.326.017-.01.05-.024.147-.024.322V0Zm4.013 9.37H0V4.663h-18.614V7.07c0 1.02-.828 1.853-1.853 1.853h-4.011V-4.239c0-1.279.332-2.269.986-2.947.663-.675 1.576-1.018 2.714-1.018H2.166c1.108 0 2.014.343 2.689 1.018.671.674 1.014 1.668 1.014 2.947V7.516A1.856 1.856 0 0 1 4.013 9.37" style="fill:#103d84;fill-opacity:1;fill-rule:nonzero;stroke:none" transform="translate(463.155 211.642)"/><path d="M0 0h-19.294v-4.706h13.93c-.02-3.085-.477-5.758-1.359-7.946-.903-2.239-2.105-4.143-3.569-5.653a18.007 18.007 0 0 0-5.081-3.636 27.695 27.695 0 0 0-5.788-2.013c-.283-.061-.447-.191-.487-.38-.043-.178.016-.359.174-.524l2.465-2.923.188.03c2.12.332 4.359 1.05 6.653 2.135 2.297 1.09 4.434 2.608 6.358 4.508 1.893 1.934 3.477 4.333 4.709 7.14C.134-11.159.758-7.808.758-4.011v3.229c0 .275-.054.463-.177.591C.457-.063.27 0 0 0" style="fill:#103d84;fill-opacity:1;fill-rule:nonzero;stroke:none" transform="translate(494.882 242.673)"/><path d="M0 0h-3.888l.004-41.927h5.736v40.074A1.853 1.853 0 0 1 0 0" style="fill:#103d84;fill-opacity:1;fill-rule:nonzero;stroke:none" transform="translate(506.654 245.365)"/><path d="M0 0v-4.3h8.518v-3.579h3.928c1.024 0 1.854.833 1.854 1.854v28.392c0 1.02-.83 1.853-1.854 1.853H8.518V0Z" style="fill:#103d84;fill-opacity:1;fill-rule:nonzero;stroke:none" transform="translate(574.226 221.146)"/><path d="M0 0h4.182c1.024 0 1.854.83 1.854 1.854v4.682h11.333v4.706H-9.715V6.536H0Z" style="fill:#103d84;fill-opacity:1;fill-rule:nonzero;stroke:none" transform="translate(563.063 216.184)"/><path d="M0 0c-.104 0-.179.023-.226.077-.052.053-.08.141-.08.262v4.938A1.857 1.857 0 0 1-2.159 7.13h-4.058l.004-7.868c0-1.34.308-2.347.922-2.988.617-.652 1.581-.98 2.861-.98h26.304V0Z" style="fill:#103d84;fill-opacity:1;fill-rule:nonzero;stroke:none" transform="translate(565.078 208.591)"/><path d="m0 0 .028-.033h.151c1.091 0 2.343.107 3.716.318A21.42 21.42 0 0 1 7.96 1.333a17.673 17.673 0 0 1 3.78 1.876c1.172.769 2.111 1.733 2.802 2.874a.39.39 0 0 0 .031.054c.026-.004.061-.011.105-.088.675-1.111 1.617-2.074 2.805-2.863a16.333 16.333 0 0 1 3.801-1.853A22.513 22.513 0 0 1 25.372.285c1.36-.211 2.588-.318 3.649-.318h.152l3.033 3.471c.126.134.178.315.152.54-.037.286-.242.47-.524.47-1.232 0-2.679.115-4.3.336a18.024 18.024 0 0 0-4.61 1.256c-1.449.577-2.685 1.402-3.668 2.453-.96 1.021-1.444 2.357-1.444 3.965v2.696c0 1.02-.831 1.852-1.852 1.852h-4.57l-.005-4.629c-.014-1.578-.484-2.886-1.397-3.887-.96-1.051-2.152-1.877-3.552-2.454a17.295 17.295 0 0 0-4.575-1.252c-1.635-.221-3.15-.336-4.494-.336-.378 0-.541-.255-.566-.47-.029-.231.047-.44.195-.54z" style="fill:#103d84;fill-opacity:1;fill-rule:nonzero;stroke:none" transform="translate(516.821 229.03)"/><path d="M0 0c-.053.053-.077.138-.077.262v7.18a1.857 1.857 0 0 1-1.857 1.853h-4.054V-.816c0-1.336.309-2.343.923-2.987.617-.652 1.581-.98 2.86-.98h25.754v4.706H.225C.074-.077.021-.024 0 0" style="fill:#103d84;fill-opacity:1;fill-rule:nonzero;stroke:none" transform="translate(241.824 208.669)"/><path d="M0 0h15.892v-2.334H4.26v-4.527h23.304v-1.706H4.596l-.004-6.526c0-1.474.273-2.494.83-3.115.56-.624 1.541-.94 2.914-.94h25.523v4.613H10.592c-.037 0-.068.003-.091.003V-13.049h21.742c.379 0 .678.108.883.326.202.215.305.504.305.86v7.493c-.005.668-.204 1.184-.586 1.536-.552.511-1.296.507-1.427.498l-9.148.002V0h15.889v4.616H0Z" style="fill:#103d84;fill-opacity:1;fill-rule:nonzero;stroke:none" transform="translate(512.236 222.586)"/><path d="M0 0c.231.906.353 2.36.353 4.323v5.999c-.007 1.816-1.411 2.027-1.847 2.048h-28.435V7.663h23.853c.353 0 .423-.08.423-.08.029-.034.094-.141.094-.436V4.814c0-1.763-.084-3.18-.253-4.206a7.912 7.912 0 0 0-.881-2.589h-27.242v-4.706H-18v-6.055h-11.745v-4.707h23.669c.044 0 .057-.007.057-.007a.178.178 0 0 0 .037-.107v-10.649H.01v13.415c-.01 1.94-1.619 2.051-1.953 2.055-.028 0-.054-.004-.068-.004l-9.61.004v6.055H4.27v4.706H-.816C-.458-1.373-.181-.709 0 0" style="fill:#103d84;fill-opacity:1;fill-rule:nonzero;stroke:none" transform="translate(305.8 231.65)"/></g><g clip-path="url(#b)" transform="matrix(1.17921 0 0 -1.17921 -268.811 496.927)"><path d="M510.753 397.237c1.662-.953 2.924-2.487 4.381-3.78 22.839-20.288 28.232-54.861 9.044-81.998l26.471-19.395a76.11 76.11 0 0 1 1.693 2.225c28.921 39.476 20.369 94.936-19.117 123.852a91.128 91.128 0 0 1-4.772 3.265z" style="fill:url(#c);stroke:none"/></g><g clip-path="url(#d)" transform="matrix(1.17921 0 0 -1.17921 -268.811 496.927)"><g clip-path="url(#e)"><g clip-path="url(#f)"><path d="m443.421 391.584-7.174 14.683c17.741 10.037 38.749 11.692 57.789 3.213l-9.704-14.7c-13.22 4.666-28.03 3.384-40.911-3.196" style="fill:url(#g);stroke:none"/></g></g><g clip-path="url(#h)"><path d="M0 0c.252 16.106-6.6 31.642-19.95 41.417a47.516 47.516 0 0 1-10.913 5.989c-.47.181-.947.342-1.406.513l9.705 14.7c.459-.198.923-.406 1.396-.621-.88.41-1.396.621-1.396.621l3.357 4.578s9.17-2.715 18.525-9.775c0 0 28.456-20.681 26.285-52.585z" style="fill:#a8aaad;fill-opacity:1;fill-rule:nonzero;stroke:none" transform="translate(516.6 346.86)"/></g><g clip-path="url(#i)"><path d="M0 0c8.083-.857 14.378-.212 27.635-9.92 11.312-8.288 14.672-15.727 17.932-23.162l-20.548-8.919a30.035 30.035 0 0 1-9.637 11.842 30.066 30.066 0 0 1-18.13 5.848z" style="fill:#90bbba;fill-opacity:1;fill-rule:nonzero;stroke:none" transform="translate(474.015 404.562)"/></g><path d="m0 0 45.428 50.413h22.94L22.94 0Z" style="fill:#009bdf;fill-opacity:1;fill-rule:nonzero;stroke:none" transform="translate(376.993 302.594)"/><path d="m0 0 29.981-50.413H7.04L-22.943 0Z" style="fill:#8cc63f;fill-opacity:1;fill-rule:nonzero;stroke:none" transform="translate(370.07 353.007)"/><path d="M0 0h-29.536l-18.598 33.609-9.907-7.939L-61.974 0h-25.05l12.558 81.955h25.05l-4.445-29.007 34.276 29.007H11.4l-40.266-33.153Z" style="fill:#103d84;fill-opacity:1;fill-rule:nonzero;stroke:none" transform="translate(317.894 271.052)"/><path d="M0 0h-28.388l12.554 81.955h28.393z" style="fill:#103d84;fill-opacity:1;fill-rule:nonzero;stroke:none" transform="translate(480.141 271.052)"/><path d="M0 0h-28.393l12.559 81.955h28.388z" style="fill:#103d84;fill-opacity:1;fill-rule:nonzero;stroke:none" transform="translate(357.48 271.052)"/><path d="M0 0h-28.39l12.559 81.955h28.388z" style="fill:#103d84;fill-opacity:1;fill-rule:nonzero;stroke:none" transform="translate(438.262 271.052)"/></g></svg>