<svg xmlns="http://www.w3.org/2000/svg" width="593.80688pt" height="225pt" viewBox="0 0 593.80688 224.99999"><path fill="#f58648" d="M108.171 39.083c-.295 0-.591.025-.886.082-.022.002-.05.002-.074.013a4.95 4.95 0 0 0-2.133.95v-.004L90.934 51.046l-29.71 22.82-.99.759a10.15 10.15 0 0 0-3.51 7.532v22.986l25.961-19.95a5.107 5.107 0 0 1 8.25 4.005v46.128l18.343-17.484c.01-.01.023-.027.041-.041 2.173-1.833 3.637-4.295 3.905-7.112.013-.12.023-.24.032-.363v-.117c.004-.155.013-.296.013-.452V44.18a5.096 5.096 0 0 0-5.098-5.096" style="stroke-width:1.7879"/><path fill="#2fc0cd" d="M90.923 137.765c-.021-1.263-.511-2.543-1.527-3.581l.004-.008-.077-.073c-.027-.025-.048-.05-.073-.079l-1.843-1.616-30.682-27.269V157.092c.023 1.355.31 2.657.818 3.839a10.248 10.248 0 0 0 2.748 3.713c-.032-.036-.085-.059-.121-.093h-.005l22.288 19.669c3.341 2.746 8.339.642 8.482-3.77v-42.682zM172.93 112.553v4.854h-5.542V130.9h-4.857v-25.781h4.857v7.434zm-26.381 28.4V130.9h5.07v8.764h16.628v4.04h-18.948c-1.676 0-2.75-1.075-2.75-2.75m-3.224-22.342c0 2.362 1.978 4.294 4.382 4.294 2.409 0 4.384-1.932 4.384-4.294 0-2.364-1.975-4.298-4.384-4.298-2.404 0-4.382 1.934-4.382 4.298m15.64-5.802h-4.424c1.416 1.547 2.277 3.567 2.277 5.802 0 4.854-4.081 8.807-9.11 8.807-5.026 0-9.108-3.953-9.108-8.807 0-2.235.858-4.255 2.278-5.802h-4.427v-4.039h8.723v-4.081h5.07v4.081h8.722zM198.203 111.65v-1.632H180.59v-4.039h22.469v5.671c-.13 4.168-.902 7.09-1.416 7.692h-4.554c.515-1.248 1.115-5.07 1.115-7.692m-8.721 19.55v-5.629h-14.823v-3.996h34.715v3.996h-14.779v5.628h8.463v12.503h-4.855v-8.464h-17.185V131.2zM217.034 122.134v-15.726h22.04v4.039h-17.186v10.398h17.185v4.04h-8.59v8.206h14.478v4.038h-33.857v-4.038h14.523v-8.207h-5.843c-1.675 0-2.75-1.074-2.75-2.75M283.811 112.553v4.854h-5.54v8.766h-4.858v-21.054h4.858v7.434zm-26.81 17.058h21.27v14.092h-4.858V133.65h-16.411zm5.886-14.48h-9.193v5.585h9.193zm3.868 9.624h-15.169c-1.675 0-2.75-1.074-2.75-2.75v-15.812h4.858v4.899h9.193v-4.899h4.856v17.573c0 .646-.345.989-.988.989M309.087 109.975h-12.332v7.09h12.332zM291.9 140.952v-8.464h4.983v7.177h17.918v4.037h-20.151c-1.675 0-2.75-1.073-2.75-2.75m0-22.642v-12.33h22.041v14.091c0 .644-.343.99-.988.99H294.65c-1.675 0-2.75-1.075-2.75-2.75m9.237 16.755v-6.314h-15.596v-3.998h34.717v3.998h-14.264v6.314zM349.357 105.12h4.641v37.293h-4.64zm-6.831 15.423h-3.954v-4.596h3.954V105.55h4.64v35.576h-4.64zm-11 1.461c-1.117 4.813-4.813 8.637-7.003 9.84l-1.891-3.995c5.07-4.34 6.488-10.356 6.488-15.038v-1.506h-5.414v-4.037h15.64v4.037h-5.415v1.506c0 4.682 1.42 10.699 6.49 15.038l-1.891 3.996c-2.192-1.204-5.886-5.028-7.004-9.84M386.104 105.12h4.641v37.293h-4.641zm-9.498 10.784c.088.688.174 1.418.174 2.149 0 .901-.086 1.718-.258 2.535h2.75v-4.684zm-13.575 2.149c0 3.436 1.976 5.929 4.597 5.929 2.62 0 4.64-2.493 4.64-5.93s-2.02-5.93-4.64-5.93c-2.621 0-4.597 2.493-4.597 5.93m-4.511 0c0-5.93 3.994-10.355 9.108-10.355 3.652 0 6.788 2.278 8.249 5.757v-1.718h3.395v-6.186h4.64v35.576h-4.64v-16.372h-3.395v-2.104c-1.46 3.48-4.597 5.757-8.25 5.757-5.113 0-9.107-4.425-9.107-10.354M431.957 112.553v4.854h-5.54v7.906h-4.858v-20.194h4.858v7.434zm-21.18 23.459c0 2.492 2.191 4.468 4.982 4.468 2.793 0 5.028-1.976 5.028-4.468 0-2.49-2.235-4.511-5.028-4.511-2.79 0-4.983 2.02-4.983 4.51m-4.727 0c0-5.111 4.34-9.021 9.71-9.021 5.37 0 9.755 3.91 9.755 9.022 0 5.113-4.384 8.98-9.755 8.98-5.37 0-9.71-3.867-9.71-8.98m4.985-21.31h-9.194v5.156h9.194zm3.867 9.195h-15.169c-1.675 0-2.75-1.075-2.75-2.752v-14.952h4.858v4.47h9.194v-4.47h4.855v16.713c0 .646-.343.99-.988.99M460.627 105.12h4.854v37.293h-4.854zm-5.629 9.194h-7.262v.601c0 6.016 3.955 10.313 8.337 12.934l-1.806 3.996c-3.781-1.375-7.906-5.93-9.066-9.238-1.159 3.307-5.283 7.863-9.067 9.238l-1.804-3.996c4.382-2.621 8.337-6.918 8.337-12.934v-.6h-7.262v-4.04h7.262v-4.725h5.069v4.726h7.262zM480.83 114.615c0 2.621 2.45 4.598 5.671 4.598 3.222 0 5.714-1.977 5.714-4.598 0-2.621-2.492-4.64-5.714-4.64-3.221 0-5.67 2.019-5.67 4.64m-4.857 0c0-4.985 4.684-9.065 10.527-9.065 5.843 0 10.569 4.08 10.569 9.065 0 4.985-4.726 9.024-10.569 9.024-5.843 0-10.527-4.04-10.527-9.024m7.606 28.658h-4.856v-13.277h-9.152v-4.039h33.859v4.04h-9.152v13.276h-4.856v-13.277h-5.843zM524.621 132.06v-3.782h7.047V105.12h4.855v26.94zm-10.482-19.163c0 2.061 1.716 3.565 4.125 3.565 2.404 0 4.124-1.504 4.124-3.565 0-2.063-1.72-3.61-4.124-3.61-2.409 0-4.125 1.547-4.125 3.61m-.088 28.055v-8.463h4.985v7.174h17.917v4.04H516.8c-1.675 0-2.75-1.075-2.75-2.75m-4.81-28.056c0-4.511 3.907-7.778 9.023-7.778 5.111 0 9.021 3.267 9.021 7.778 0 4.51-3.91 7.732-9.021 7.732-5.116 0-9.024-3.221-9.024-7.732m-4.083 9.238h24.363v3.994h-9.54v4.298h-5.283v-4.298h-9.54zM144.723 168.526l6.408 8.783h-3.53l-4.751-6.755-1.461 1.591v5.164h-2.79v-15.712h2.79v7.19l6.19-7.19h3.225zM157.32 175.087a3.52 3.52 0 0 0 1.133-.175c.35-.117.651-.297.905-.546.254-.245.454-.572.6-.98.144-.407.217-.893.217-1.46v-1.329c0-1.147-.257-1.96-.774-2.44-.515-.48-1.209-.72-2.081-.72-.873 0-1.566.24-2.081.72-.515.48-.774 1.293-.774 2.44v1.329c0 .567.073 1.053.218 1.46.145.408.345.735.6.98.253.249.555.43.903.546a3.52 3.52 0 0 0 1.134.175m0 2.397c-.858 0-1.63-.125-2.32-.37a4.942 4.942 0 0 1-1.767-1.069 4.722 4.722 0 0 1-1.132-1.732c-.27-.69-.404-1.472-.404-2.342v-1.418c0-.885.134-1.67.404-2.353a4.739 4.739 0 0 1 1.132-1.722 4.914 4.914 0 0 1 1.766-1.067c.69-.247 1.463-.37 2.321-.37.842 0 1.613.123 2.31.37.697.246 1.289.602 1.777 1.067a4.739 4.739 0 0 1 1.132 1.722c.27.683.404 1.468.404 2.353v1.418c0 .87-.134 1.652-.404 2.342a4.722 4.722 0 0 1-1.132 1.732c-.488.465-1.08.82-1.777 1.07a6.932 6.932 0 0 1-2.31.37M172.532 167.764a3.058 3.058 0 0 0-.654-.196 4.933 4.933 0 0 0-.872-.065c-.378 0-.73.065-1.057.195a2.51 2.51 0 0 0-.85.556c-.239.24-.428.524-.566.85a2.755 2.755 0 0 0-.207 1.08v7.126h-2.747v-12.008h2.637v1.744h.045a3.93 3.93 0 0 1 1.275-1.461c.53-.363 1.223-.546 2.081-.546.304 0 .61.022.915.067.306.042.567.102.785.173zM182.558 170.227v-.524c0-.32-.048-.624-.141-.915a1.897 1.897 0 0 0-.469-.762 2.371 2.371 0 0 0-.828-.524c-.336-.13-.742-.196-1.22-.196-.916 0-1.603.241-2.06.72-.458.48-.687 1.06-.687 1.743v.458zm2.331 5.972c-.58.391-1.264.704-2.047.937-.785.23-1.745.348-2.878.348a7.565 7.565 0 0 1-2.026-.272 4.684 4.684 0 0 1-1.756-.917c-.515-.427-.928-1.001-1.24-1.72-.313-.72-.469-1.616-.469-2.692v-1.243c0-.972.141-1.811.426-2.517.282-.705.67-1.286 1.163-1.743a4.705 4.705 0 0 1 1.735-1.014 6.807 6.807 0 0 1 2.147-.326c.754 0 1.455.108 2.103.326a4.437 4.437 0 0 1 1.666.992c.465.444.828.996 1.09 1.657.262.66.392 1.427.392 2.3v1.983h-8.042c0 .958.254 1.682.764 2.168.507.487 1.242.73 2.2.73.712 0 1.345-.077 1.897-.23a7.678 7.678 0 0 0 1.744-.75zM194.457 172.145h-2.68c-.728 0-1.232.137-1.514.413-.284.277-.426.647-.426 1.112v.26c0 .394.138.698.413.916.277.218.683.327 1.221.327 1.12 0 1.947-.268 2.484-.806.248-.247.393-.511.438-.796.043-.282.064-.649.064-1.1zm-3.204 5.338c-1.292 0-2.295-.293-3.007-.883-.712-.586-1.067-1.412-1.067-2.473v-.697c0-.493.075-.947.227-1.362.154-.413.407-.774.763-1.078.356-.306.826-.546 1.405-.72.582-.174 1.295-.26 2.137-.26h2.746v-.46c0-.74-.171-1.274-.511-1.602-.342-.325-.883-.49-1.624-.49-1.25 0-2.385.401-3.4 1.198l-1.352-2.004c.61-.422 1.3-.795 2.07-1.123.77-.325 1.67-.49 2.702-.49.697 0 1.345.088 1.94.263a4.64 4.64 0 0 1 1.538.751c.429.327.763.728 1 1.198.242.472.362 1.014.362 1.624v8.435h-2.464l-.043-1.482a1.964 1.964 0 0 1-.556.708 3.513 3.513 0 0 1-.861.524 5.223 5.223 0 0 1-2.005.423M208.644 163.928v4.99h2.768c.917 0 1.634-.173 2.158-.522.522-.348.785-.98.785-1.897v-.391c0-.436-.067-.792-.197-1.068a1.66 1.66 0 0 0-.556-.665 2.2 2.2 0 0 0-.86-.348 5.617 5.617 0 0 0-1.09-.099zm-2.79-2.331h5.928c.946 0 1.755.113 2.431.336.674.227 1.232.538 1.667.939.436.398.76.874.97 1.426.21.553.315 1.148.315 1.788v.456c0 .64-.107 1.248-.325 1.822a4.044 4.044 0 0 1-1.003 1.504c-.45.429-1.01.77-1.68 1.022-.668.256-1.46.383-2.375.383h-3.138v6.036h-2.79zM226.538 167.764a3.058 3.058 0 0 0-.654-.196 4.933 4.933 0 0 0-.873-.065c-.377 0-.73.065-1.056.195-.328.13-.61.317-.85.556-.24.24-.429.524-.566.85-.14.327-.208.686-.208 1.08v7.126h-2.746v-12.008h2.637v1.744h.045a3.93 3.93 0 0 1 1.275-1.461c.529-.363 1.223-.546 2.079-.546.306 0 .611.022.917.067.306.042.567.102.785.173zM234.1 175.087a3.52 3.52 0 0 0 1.133-.175c.349-.117.651-.297.905-.546.254-.245.454-.572.599-.98.145-.407.218-.893.218-1.46v-1.329c0-1.147-.258-1.96-.774-2.44-.515-.48-1.209-.72-2.081-.72-.871 0-1.567.24-2.081.72-.515.48-.775 1.293-.775 2.44v1.329c0 .567.074 1.053.219 1.46.144.408.345.735.6.98.252.249.555.43.903.546a3.52 3.52 0 0 0 1.134.175m0 2.397c-.859 0-1.63-.125-2.321-.37a4.957 4.957 0 0 1-1.766-1.069 4.722 4.722 0 0 1-1.132-1.732c-.268-.69-.404-1.472-.404-2.342v-1.418c0-.885.136-1.67.404-2.353a4.739 4.739 0 0 1 1.132-1.722 4.929 4.929 0 0 1 1.766-1.067c.69-.247 1.462-.37 2.32-.37.843 0 1.613.123 2.31.37.698.246 1.292.602 1.778 1.067a4.739 4.739 0 0 1 1.132 1.722c.27.683.404 1.468.404 2.353v1.418c0 .87-.134 1.652-.404 2.342a4.722 4.722 0 0 1-1.132 1.732c-.486.465-1.08.82-1.777 1.07a6.932 6.932 0 0 1-2.31.37M250.358 170.597c0-1.017-.197-1.806-.588-2.365-.393-.558-1.032-.839-1.919-.839-.915 0-1.609.267-2.08.796-.473.53-.709 1.208-.709 2.038v2.55c0 .275.072.556.217.838.146.284.343.538.59.763.246.226.545.412.894.556.348.145.733.217 1.153.217.8 0 1.407-.277 1.822-.837.413-.56.62-1.34.62-2.344zm-5.383 5.317v1.395h-2.616v-16.476h2.746v5.645c.188-.276.426-.508.708-.698a4.2 4.2 0 0 1 .873-.447c.297-.109.595-.184.894-.228a5.74 5.74 0 0 1 .817-.065c.769 0 1.448.12 2.038.36.588.24 1.078.584 1.471 1.035.392.45.685.988.882 1.612.196.626.295 1.329.295 2.114v2.115c0 .813-.116 1.543-.349 2.19-.234.645-.56 1.19-.981 1.634a4.302 4.302 0 0 1-1.515 1.025c-.588.24-1.246.359-1.974.359-.797 0-1.466-.145-2.004-.436-.538-.292-.944-.669-1.22-1.134zM255.72 160.834h2.746v16.475h-2.746zM269.187 170.227v-.524c0-.32-.049-.624-.142-.915a1.897 1.897 0 0 0-.468-.762 2.371 2.371 0 0 0-.828-.524c-.334-.13-.742-.196-1.221-.196-.915 0-1.602.241-2.06.72-.457.48-.686 1.06-.686 1.743v.458zm2.331 5.972c-.581.391-1.264.704-2.047.937-.785.23-1.745.348-2.879.348a7.565 7.565 0 0 1-2.025-.272 4.684 4.684 0 0 1-1.756-.917c-.515-.427-.928-1.001-1.24-1.72-.314-.72-.47-1.616-.47-2.692v-1.243c0-.972.142-1.811.426-2.517.283-.705.67-1.286 1.166-1.743a4.683 4.683 0 0 1 1.732-1.014 6.804 6.804 0 0 1 2.146-.326c.756 0 1.457.108 2.104.326a4.437 4.437 0 0 1 1.667.992c.464.444.827.996 1.09 1.657.261.66.392 1.427.392 2.3v1.983h-8.042c0 .958.254 1.682.763 2.168.508.487 1.243.73 2.201.73.712 0 1.345-.077 1.897-.23a7.678 7.678 0 0 0 1.743-.75zM287.275 165.04c.553 0 1.08.095 1.58.282.501.19.941.472 1.318.852.38.377.68.849.905 1.416.225.566.338 1.228.338 1.982v7.737h-2.746v-7.168c0-.538-.057-.982-.175-1.33-.117-.349-.276-.623-.48-.82a1.628 1.628 0 0 0-.697-.401 3.045 3.045 0 0 0-.828-.11c-.26 0-.525.042-.795.12-.268.08-.504.218-.708.415-.204.195-.37.461-.5.796-.131.334-.198.747-.198 1.242v7.256h-2.746v-7.213c0-.508-.057-.93-.173-1.264a2.188 2.188 0 0 0-.469-.806 1.593 1.593 0 0 0-.686-.426 2.948 2.948 0 0 0-.851-.12c-.653 0-1.184.204-1.591.61-.406.408-.61 1.025-.61 1.854v7.365h-2.746V165.3h2.594v1.525h.043c.29-.55.715-.987 1.275-1.307.56-.318 1.231-.479 2.016-.479.74 0 1.406.168 1.994.5.588.335.992.778 1.21 1.33.422-.609.92-1.068 1.493-1.372.574-.306 1.318-.458 2.233-.458M306.563 161.356c.93 0 1.852.13 2.768.392.915.262 1.78.72 2.594 1.373l-1.504 2.136a5.102 5.102 0 0 0-1.875-1.067 6.768 6.768 0 0 0-1.983-.306c-.61 0-1.17.07-1.679.208-.508.139-.948.384-1.318.74-.37.357-.661.85-.872 1.484-.211.63-.315 1.448-.315 2.45v1.614c0 .856.11 1.58.327 2.168.217.589.519 1.068.903 1.438.386.372.842.636 1.373.795.531.161 1.116.24 1.756.24.508 0 .966-.036 1.373-.109a5.824 5.824 0 0 0 1.198-.349v-3.769h-3.291v-2.333h6.059v7.65a7.003 7.003 0 0 1-1.177.621c-.436.182-.894.33-1.373.447a13.61 13.61 0 0 1-1.471.272c-.503.066-.984.098-1.45.098a9.944 9.944 0 0 1-2.779-.37 5.952 5.952 0 0 1-2.222-1.176c-.633-.539-1.126-1.222-1.482-2.05-.356-.827-.533-1.83-.533-3.007v-2.812c0-1.176.174-2.19.522-3.04.349-.849.832-1.553 1.45-2.115a5.762 5.762 0 0 1 2.212-1.231 9.526 9.526 0 0 1 2.789-.392M321.645 172.145h-2.68c-.728 0-1.232.137-1.515.413-.284.277-.425.647-.425 1.112v.26c0 .394.137.698.413.916.277.218.683.327 1.22.327 1.12 0 1.948-.268 2.484-.806.249-.247.394-.511.438-.796.043-.282.065-.649.065-1.1zm-3.204 5.338c-1.293 0-2.296-.293-3.007-.883-.712-.586-1.068-1.412-1.068-2.473v-.697c0-.493.075-.947.227-1.362.154-.413.408-.774.764-1.078.355-.306.826-.546 1.405-.72.581-.174 1.294-.26 2.136-.26h2.747v-.46c0-.74-.172-1.274-.512-1.602-.341-.325-.883-.49-1.623-.49-1.25 0-2.385.401-3.4 1.198l-1.352-2.004c.61-.422 1.3-.795 2.07-1.123.769-.325 1.67-.49 2.702-.49.697 0 1.344.088 1.94.263a4.64 4.64 0 0 1 1.537.751c.43.327.764.728 1.001 1.198.242.472.361 1.014.361 1.624v8.435h-2.463l-.043-1.482a1.964 1.964 0 0 1-.556.708 3.513 3.513 0 0 1-.862.524 5.223 5.223 0 0 1-2.004.423M340.322 165.04c.553 0 1.08.095 1.58.282.501.19.941.472 1.318.852.38.377.68.849.905 1.416.225.566.338 1.228.338 1.982v7.737h-2.746v-7.168c0-.538-.058-.982-.176-1.33-.116-.349-.275-.623-.479-.82a1.617 1.617 0 0 0-.697-.401 3.045 3.045 0 0 0-.828-.11c-.26 0-.525.042-.795.12-.269.08-.505.218-.708.415-.204.195-.37.461-.501.796-.13.334-.197.747-.197 1.242v7.256h-2.746v-7.213c0-.508-.057-.93-.173-1.264a2.188 2.188 0 0 0-.469-.806 1.593 1.593 0 0 0-.686-.426 2.948 2.948 0 0 0-.851-.12c-.653 0-1.184.204-1.592.61-.405.408-.61 1.025-.61 1.854v7.365h-2.745V165.3h2.594v1.525h.043c.29-.55.715-.987 1.274-1.307.56-.318 1.232-.479 2.017-.479.74 0 1.406.168 1.994.5.588.335.992.778 1.21 1.33.42-.609.92-1.068 1.493-1.372.574-.306 1.318-.458 2.233-.458M355.622 170.597c0-1.017-.197-1.806-.589-2.365-.393-.558-1.031-.839-1.918-.839-.915 0-1.61.267-2.081.796-.472.53-.708 1.208-.708 2.038v2.55c0 .275.071.556.218.838.145.284.342.538.588.763.247.226.546.412.894.556a2.98 2.98 0 0 0 1.155.217c.8 0 1.405-.277 1.82-.837.413-.56.62-1.34.62-2.344zm-5.384 5.317v1.395h-2.615v-16.476h2.746v5.645c.188-.276.425-.508.708-.698a4.2 4.2 0 0 1 .872-.447c.297-.109.596-.184.894-.228a5.74 5.74 0 0 1 .817-.065c.77 0 1.449.12 2.039.36.588.24 1.078.584 1.471 1.035.392.45.685.988.881 1.612.197.626.295 1.329.295 2.114v2.115c0 .813-.116 1.543-.348 2.19-.234.645-.56 1.19-.982 1.634a4.302 4.302 0 0 1-1.514 1.025c-.588.24-1.246.359-1.974.359-.797 0-1.466-.145-2.004-.436-.538-.292-.944-.669-1.22-1.134zM360.982 160.834h2.746v16.475h-2.746zM367.063 165.302h2.746v12.007h-2.746zm-.067-4.731h2.877v2.964h-2.877zM379.332 165.04c.538 0 1.057.08 1.557.24.503.159.95.416 1.341.774.394.356.705.817.939 1.384.23.566.349 1.25.349 2.047v7.824h-2.748v-7.234c0-1.758-.762-2.637-2.289-2.637-.216 0-.474.032-.772.098a2.226 2.226 0 0 0-.851.391c-.268.195-.497.476-.685.839-.19.363-.284.842-.284 1.44v7.103h-2.746V165.3h2.594v1.373h.043c.42-.61.94-1.035 1.557-1.275a5.477 5.477 0 0 1 1.995-.359M388.748 171.73c0 1.018.207 1.806.62 2.366.415.56 1.02.838 1.82.838.45 0 .853-.077 1.21-.229a2.47 2.47 0 0 0 .893-.633c.24-.268.425-.579.556-.937.13-.355.196-.736.196-1.144v-2.222c0-.275-.055-.556-.164-.839a2.185 2.185 0 0 0-.5-.763 2.693 2.693 0 0 0-.85-.556c-.341-.145-.753-.218-1.232-.218-.872 0-1.514.284-1.929.85-.413.568-.62 1.352-.62 2.354zm5.295 3.968H394a2.604 2.604 0 0 1-1.373 1.219 5.41 5.41 0 0 1-1.981.349c-1.542 0-2.693-.446-3.456-1.34-.762-.894-1.145-2.154-1.145-3.781v-1.897c0-.8.113-1.521.338-2.169a4.6 4.6 0 0 1 .97-1.645c.421-.45.925-.795 1.515-1.035.589-.24 1.245-.36 1.972-.36.465 0 .878.046 1.243.131.363.088.68.197.948.328.268.13.49.271.665.425.173.152.304.293.391.424h.023V165.3h2.638v11.9c0 1.67-.46 2.916-1.375 3.739-.914.82-2.36 1.23-4.336 1.23a7.16 7.16 0 0 1-2.256-.37c-.75-.249-1.37-.56-1.863-.937l1.242-2.137c.117.102.283.215.501.338a5.584 5.584 0 0 0 1.546.588c.292.067.583.099.873.099.973 0 1.711-.208 2.212-.62.502-.416.752-1.066.752-1.953zM409.43 170.663h3.683l-1.07-3.204a33.976 33.976 0 0 1-.446-1.318c-.108-.357-.222-.724-.336-1.1a26.592 26.592 0 0 1-.328 1.12l-.186.58c-.064.203-.148.441-.25.718zm9.045 6.646h-3.03l-1.526-4.315h-5.296l-1.548 4.315h-2.855l5.84-15.712h2.508zM422.484 171.73c0 1.018.208 1.806.623 2.366.413.56 1.019.838 1.818.838.45 0 .853-.077 1.21-.229a2.47 2.47 0 0 0 .893-.633c.24-.268.425-.579.556-.937.132-.355.196-.736.196-1.144v-2.222c0-.275-.055-.556-.162-.839a2.215 2.215 0 0 0-.503-.763 2.693 2.693 0 0 0-.85-.556c-.34-.145-.752-.218-1.231-.218-.872 0-1.514.284-1.927.85-.415.568-.623 1.352-.623 2.354zm5.296 3.968h-.043c-.32.58-.777.986-1.375 1.219a5.41 5.41 0 0 1-1.98.349c-1.542 0-2.693-.446-3.457-1.34-.761-.894-1.144-2.154-1.144-3.781v-1.897c0-.8.113-1.521.338-2.169a4.6 4.6 0 0 1 .97-1.645c.421-.45.925-.795 1.515-1.035.589-.24 1.246-.36 1.972-.36.465 0 .878.046 1.243.131.363.088.68.197.948.328.268.13.49.271.665.425.173.152.305.293.391.424h.023V165.3h2.638v11.9c0 1.67-.46 2.916-1.374 3.739-.915.82-2.361 1.23-4.337 1.23a7.16 7.16 0 0 1-2.256-.37c-.75-.249-1.37-.56-1.863-.937l1.242-2.137c.116.102.283.215.5.338a5.585 5.585 0 0 0 1.547.588c.292.067.583.099.873.099.972 0 1.71-.208 2.212-.62.502-.416.752-1.066.752-1.953zM441.205 170.227v-.524c0-.32-.049-.624-.142-.915a1.897 1.897 0 0 0-.468-.762 2.371 2.371 0 0 0-.828-.524c-.334-.13-.742-.196-1.221-.196-.915 0-1.602.241-2.06.72-.457.48-.686 1.06-.686 1.743v.458zm2.331 5.972c-.581.391-1.264.704-2.047.937-.785.23-1.745.348-2.879.348a7.565 7.565 0 0 1-2.025-.272 4.684 4.684 0 0 1-1.756-.917c-.515-.427-.928-1.001-1.24-1.72-.314-.72-.47-1.616-.47-2.692v-1.243c0-.972.142-1.811.426-2.517.283-.705.67-1.286 1.164-1.743a4.705 4.705 0 0 1 1.734-1.014 6.808 6.808 0 0 1 2.148-.326c.754 0 1.455.108 2.102.326a4.437 4.437 0 0 1 1.667.992c.464.444.827.996 1.09 1.657.261.66.392 1.427.392 2.3v1.983H435.8c0 .958.254 1.682.763 2.168.508.487 1.243.73 2.201.73.712 0 1.345-.077 1.897-.23a7.678 7.678 0 0 0 1.743-.75zM452.624 165.04c.539 0 1.057.08 1.558.24.502.159.95.416 1.34.774.394.356.705.817.94 1.384.23.566.348 1.25.348 2.047v7.824h-2.748v-7.234c0-1.758-.762-2.637-2.289-2.637-.216 0-.473.032-.772.098a2.238 2.238 0 0 0-.851.391c-.268.195-.497.476-.685.839-.19.363-.284.842-.284 1.44v7.103h-2.746V165.3h2.594v1.373h.043c.42-.61.94-1.035 1.557-1.275a5.477 5.477 0 0 1 1.995-.359M464.764 165.04c.567 0 1.067.04 1.504.12.436.08.828.186 1.176.316.349.13.662.283.937.456.277.175.531.349.763.524l-1.33 2.006c-.493-.393-.983-.661-1.47-.806a5.527 5.527 0 0 0-1.58-.218c-.349 0-.683.053-1.003.162-.32.11-.602.285-.85.522a2.534 2.534 0 0 0-.59.939c-.144.384-.217.853-.217 1.405v1.461c0 .61.086 1.12.252 1.525.166.408.38.731.642.97a2.2 2.2 0 0 0 .872.502c.32.094.633.14.937.14.756 0 1.384-.09 1.886-.271a5.21 5.21 0 0 0 1.382-.753l1.309 2.006c-.408.378-1.003.71-1.788 1.002-.783.29-1.722.436-2.81.436-1.774 0-3.124-.49-4.055-1.472-.928-.98-1.395-2.328-1.395-4.042v-1.504c0-1.714.485-3.048 1.45-4 .965-.95 2.292-1.426 3.978-1.426M473.852 165.302l2.725 8.87h.087l2.747-8.87h2.92l-6.233 16.999-2.571-.894 1.544-3.944-4.27-12.161z" style="stroke-width:1.7879"/></svg>