<svg xmlns="http://www.w3.org/2000/svg" xmlns:xlink="http://www.w3.org/1999/xlink" xml:space="preserve" width="1134.9399" height="200" viewBox="0 0 1134.94 200"><defs><clipPath id="b" clipPathUnits="userSpaceOnUse"><path d="M0 596.276h842.89V0H0Z"/></clipPath><clipPath id="c" clipPathUnits="userSpaceOnUse"><path d="M-666.51 169.255H27.442V0H-666.51Z"/></clipPath><clipPath id="d" clipPathUnits="userSpaceOnUse"><path d="M-618.075 0h603.902v66.157l-112.7 70.26z"/></clipPath><clipPath id="f" clipPathUnits="userSpaceOnUse"><path d="m203.955 359.445 25.041-21.005 1.69.684c1.154.424 1.924 1.548 1.924 2.807v23.54c0 1.258-.77 2.382-1.924 2.806l-5.827 2.42z"/></clipPath><clipPath id="h" clipPathUnits="userSpaceOnUse"><path d="m193.215 368.45 8.97-7.516v11.258z"/></clipPath><clipPath id="j" clipPathUnits="userSpaceOnUse"><path d="M203.934 372.943v-12.965l20.328 10.964-12.574 5.227z"/></clipPath><clipPath id="l" clipPathUnits="userSpaceOnUse"><path d="M190.766 365.471v-23.54c0-1.259.769-2.383 1.924-2.807l9.495-3.953v24.59l-9.917 8.313a3.022 3.022 0 0 1-1.502-2.603"/></clipPath><clipPath id="n" clipPathUnits="userSpaceOnUse"><path d="m203.934 334.443 7.754-3.211 16.345 6.821-24.099 20.232z"/></clipPath><linearGradient id="e" x1="0" x2="1" y1="0" y2="0" gradientTransform="scale(514.88446 -514.88446) rotate(-55.62 -.047 1.049)" gradientUnits="userSpaceOnUse" spreadMethod="pad"><stop offset="0" style="stop-opacity:1;stop-color:#329aca"/><stop offset="1" style="stop-opacity:1;stop-color:#273780"/></linearGradient><linearGradient id="a" x1="0" x2="1" y1="0" y2="0" gradientTransform="scale(39.07049 -39.07049) rotate(34.38 17.954 3.714)" gradientUnits="userSpaceOnUse" spreadMethod="pad"><stop offset="0" style="stop-opacity:1;stop-color:#309bcc"/><stop offset="1" style="stop-opacity:1;stop-color:#293780"/></linearGradient><linearGradient id="i" x1="0" x2="1" y1="0" y2="0" gradientTransform="scale(41.32357 -41.32357) rotate(34.38 16.795 3.435)" gradientUnits="userSpaceOnUse" spreadMethod="pad"><stop offset="0" style="stop-opacity:1;stop-color:#309bcc"/><stop offset="1" style="stop-opacity:1;stop-color:#293780"/></linearGradient><linearGradient id="k" x1="0" x2="1" y1="0" y2="0" gradientTransform="scale(36.54877 -36.54877) rotate(34.38 19.252 3.944)" gradientUnits="userSpaceOnUse" spreadMethod="pad"><stop offset="0" style="stop-opacity:1;stop-color:#309bcc"/><stop offset="1" style="stop-opacity:1;stop-color:#293780"/></linearGradient><linearGradient id="m" x1="0" x2="1" y1="0" y2="0" gradientTransform="scale(42.73418 -42.73418) rotate(34.38 15.624 3.14)" gradientUnits="userSpaceOnUse" spreadMethod="pad"><stop offset="0" style="stop-opacity:1;stop-color:#309bcc"/><stop offset="1" style="stop-opacity:1;stop-color:#293780"/></linearGradient><linearGradient id="o" x1="0" x2="1" y1="0" y2="0" gradientTransform="scale(40.54136 -40.54136) rotate(34.38 16.49 3.32)" gradientUnits="userSpaceOnUse" spreadMethod="pad"><stop offset="0" style="stop-opacity:1;stop-color:#309bcc"/><stop offset="1" style="stop-opacity:1;stop-color:#293780"/></linearGradient><linearGradient xlink:href="#a" id="g" x1="0" x2="1" y1="0" y2="0" gradientTransform="scale(39.07049 -39.07049) rotate(34.38 17.954 3.714)" gradientUnits="userSpaceOnUse" spreadMethod="pad"/></defs><g clip-path="url(#b)" transform="matrix(1.33333 0 0 -1.33333 149.877 572.793)"><g clip-path="url(#c)" opacity="0.699997"><g clip-path="url(#d)"><path d="M-618.075 0h603.902v66.157l-112.7 70.26z" style="fill:url(#e);stroke:none"/></g></g></g><g clip-path="url(#f)" transform="matrix(4.45068 0 0 -4.45068 -849.038 1674.206)"><path d="m203.955 359.445 25.041-21.005 1.69.684c1.154.424 1.924 1.548 1.924 2.807v23.54c0 1.258-.77 2.382-1.924 2.806l-5.827 2.42z" style="fill:url(#g);stroke:none"/></g><g clip-path="url(#h)" transform="matrix(4.45068 0 0 -4.45068 -849.038 1674.206)"><path d="m193.215 368.45 8.97-7.516v11.258z" style="fill:url(#i);stroke:none"/></g><g clip-path="url(#j)" transform="matrix(4.45068 0 0 -4.45068 -849.038 1674.206)"><path d="M203.934 372.943v-12.965l20.328 10.964-12.574 5.227z" style="fill:url(#k);stroke:none"/></g><g clip-path="url(#l)" transform="matrix(4.45068 0 0 -4.45068 -849.038 1674.206)"><path d="M190.766 365.471v-23.54c0-1.259.769-2.383 1.924-2.807l9.495-3.953v24.59l-9.917 8.313a3.022 3.022 0 0 1-1.502-2.603" style="fill:url(#m);stroke:none"/></g><g clip-path="url(#n)" transform="matrix(4.45068 0 0 -4.45068 -849.038 1674.206)"><path d="m203.934 334.443 7.754-3.211 16.345 6.821-24.099 20.232z" style="fill:url(#o);stroke:none"/></g><path d="M0 0h-2.2v-10.683H0v4.59h2.121v1.804H0Z" style="fill:#003089;fill-opacity:1;fill-rule:nonzero;stroke:none" transform="matrix(4.45068 0 0 -4.45068 778.53 85.703)"/><path d="M0 0h-2.216v-3.07c0-.444.095-.76.301-.934.19-.159.506-.238.918-.238H9.607v1.804H0Z" style="fill:#003089;fill-opacity:1;fill-rule:nonzero;stroke:none" transform="matrix(4.45068 0 0 -4.45068 736.968 131.418)"/><path d="M0 0c.285.206.744.316 1.409.316.649 0 1.123-.11 1.408-.316.285-.222.428-.506.428-.823 0-.333-.143-.602-.428-.807-.285-.222-.759-.332-1.408-.332-.665 0-1.124.11-1.409.332-.285.221-.427.49-.427.807 0 .317.142.601.427.823m-.364-3.435c.49-.158 1.076-.221 1.773-.221.68 0 1.266.063 1.772.221.491.143.902.349 1.235.602.316.253.569.554.728.902.142.333.221.696.221 1.108 0 .38-.079.76-.221 1.108a2.496 2.496 0 0 1-.728.902c-.333.253-.744.443-1.235.602a6.546 6.546 0 0 1-1.772.221c-.697 0-1.283-.079-1.773-.221-.507-.159-.918-.349-1.234-.602a2.156 2.156 0 0 1-.713-.902 2.685 2.685 0 0 1-.237-1.108c0-.412.079-.775.237-1.108.143-.348.38-.649.713-.902.316-.253.727-.459 1.234-.602" style="fill:#003089;fill-opacity:1;fill-rule:nonzero;stroke:none" transform="matrix(4.45068 0 0 -4.45068 735.56 112.822)"/><path d="M758.077 321.697H711.88v-7.968h46.197zM748.74 332.645h-27.204v-7.968h27.205z" style="fill:#003089;fill-opacity:1;fill-rule:nonzero;stroke:none;stroke-width:5.08493" transform="matrix(.87527 0 0 -.87527 98.387 376.01)"/><path d="M0 0h-11.649v-1.805h9.418v-3.419h-10.763v-1.804h6.046v-1.804h-4.796v-1.804h9.591v-3.672H.079v5.476h-4.827v1.804h6.062v1.804H0Z" style="fill:#003089;fill-opacity:1;fill-rule:nonzero;stroke:none" transform="matrix(4.45068 0 0 -4.45068 849.034 86.616)"/><path d="M0 0h-2.216v-3.861c0-.444.095-.76.301-.934.19-.159.506-.238.918-.238H10.24v1.804H0Z" style="fill:#003089;fill-opacity:1;fill-rule:nonzero;stroke:none" transform="matrix(4.45068 0 0 -4.45068 876.781 127.898)"/><path d="M885.134 310.353h11.35V300.29h-11.35Zm22.7-19.236v16.261h6.035v-30.021h11.105v53.519H913.87v-14.33h-6.036v14.09h-11.35v-11.11h-11.349v11.11h-11.263v-33.565c0-2.334.483-3.865 1.525-4.668.966-.885 2.578-1.286 4.668-1.286zM940.265 331.68h-11.106v-55.127h11.106z" style="fill:#003089;fill-opacity:1;fill-rule:nonzero;stroke:none;stroke-width:5.08493" transform="matrix(.87527 0 0 -.87527 98.387 376.01)"/><path d="M0 0h-2.184v-1.805H0v-7.201h2.201V5.507H0Z" style="fill:#003089;fill-opacity:1;fill-rule:nonzero;stroke:none" transform="matrix(4.45068 0 0 -4.45068 979.125 110.214)"/><path d="M0 0c.443.633.823 1.314 1.156 2.042.316.712.537 1.488.68 2.311.016.11 0 .237-.047.364-.064.126-.19.189-.396.189h-7.17V3.103h5.096A8.58 8.58 0 0 0-1.804.965 12.446 12.446 0 0 0-3.387-.838a15.68 15.68 0 0 0-1.804-1.504 23.925 23.925 0 0 0-1.836-1.203l1.171-1.535c.728.395 1.504.886 2.295 1.472.791.569 1.536 1.25 2.263 2.009A15.896 15.896 0 0 1 .491-3.387a17.199 17.199 0 0 1 1.867-1.472l1.172 1.71c-.634.443-1.251.918-1.837 1.456A15.641 15.641 0 0 0 0 0" style="fill:#003089;fill-opacity:1;fill-rule:nonzero;stroke:none" transform="matrix(4.45068 0 0 -4.45068 958.697 119.022)"/><path d="M985.968 331.435h-25.994v-8.772h25.994z" style="fill:#003089;fill-opacity:1;fill-rule:nonzero;stroke:none;stroke-width:5.08493" transform="matrix(.87527 0 0 -.87527 98.387 376.01)"/><path d="M0 0h6.014v-3.625h2.2V0h6.094v1.804H0Z" style="fill:#003089;fill-opacity:1;fill-rule:nonzero;stroke:none" transform="matrix(4.45068 0 0 -4.45068 998.282 133.813)"/><path d="M0 0h10.747v1.805H.997v1.076h9.433v1.804H.997v1.107h9.433v1.806H-1.219V1.171c0-.459.095-.759.301-.918C-.728.079-.412 0 0 0" style="fill:#003089;fill-opacity:1;fill-rule:nonzero;stroke:none" transform="matrix(4.45068 0 0 -4.45068 1009.693 120.43)"/><path d="M0 0v5.492h-2.2V-9.021H0v7.216h2.121V0Z" style="fill:#003089;fill-opacity:1;fill-rule:nonzero;stroke:none" transform="matrix(4.45068 0 0 -4.45068 1123.66 110.145)"/><path d="M0 0a17.485 17.485 0 0 0-1.709 2.327c.474.822.87 1.709 1.218 2.627.333.902.57 1.852.728 2.849a.74.74 0 0 1-.048.364c-.063.126-.189.19-.395.19h-7.17V6.553h5.097A13.216 13.216 0 0 0-3.34 3.941 19.268 19.268 0 0 0-6.743-.633 19.865 19.865 0 0 0-8.737-2.39l1.52-1.487a24.387 24.387 0 0 1 2.231 1.946A19.22 19.22 0 0 1-2.928.459c.506-.791 1.06-1.52 1.678-2.2A18.075 18.075 0 0 1 .57-3.577l1.361 1.551A16.93 16.93 0 0 0 0 0" style="fill:#003089;fill-opacity:1;fill-rule:nonzero;stroke:none" transform="matrix(4.45068 0 0 -4.45068 1102.458 124.516)"/><path d="m0 0-1.359 1.962-.328-.374V0h-.814v4.559h.814V2.701l1.563 1.858H.889L-.833 2.573 1.025 0Z" style="fill:#8c8c8c;fill-opacity:1;fill-rule:nonzero;stroke:none" transform="matrix(4.45068 0 0 -4.45068 733.408 67.181)"/><path d="M0 0a1.175 1.175 0 0 1-.157.369A.797.797 0 0 1-.42.62a.708.708 0 0 1-.368.092.674.674 0 0 1-.358-.094.9.9 0 0 1-.265-.254 1.168 1.168 0 0 1-.157-.37 1.777 1.777 0 0 1-.053-.444c0-.158.017-.307.053-.446.034-.138.087-.258.157-.36a.718.718 0 0 1 .623-.336c.285 0 .496.111.633.333.138.222.208.492.208.809C.053-.29.036-.141 0 0m.753-1.125a1.763 1.763 0 0 0-.324-.565 1.607 1.607 0 0 0-.522-.382 1.62 1.62 0 0 0-.695-.143c-.258 0-.492.048-.697.143a1.543 1.543 0 0 0-.519.382 1.72 1.72 0 0 0-.321.565 2.051 2.051 0 0 0-.112.675c0 .265.041.507.124.725.082.218.198.407.347.565.143.155.316.276.518.364.201.088.422.131.66.131A1.617 1.617 0 0 0 .393.84C.541.682.657.493.741.275.825.057.868-.185.868-.45c0-.236-.038-.461-.115-.675" style="fill:#8c8c8c;fill-opacity:1;fill-rule:nonzero;stroke:none" transform="matrix(4.45068 0 0 -4.45068 750.19 57.675)"/><path d="M0 0a1.256 1.256 0 0 1-.201.016.53.53 0 0 1-.383-.136A.843.843 0 0 1-.8-.449c-.05-.134-.08-.28-.093-.434a5.677 5.677 0 0 1-.019-.434v-1.381h-.778V.694h.692V.003h.013a.758.758 0 0 0 .092.251c.049.089.111.173.185.25.074.074.162.137.26.19a.679.679 0 0 0 .327.079c.049 0 .098-.003.145-.008A1.24 1.24 0 0 0 .169.736v-.787A.527.527 0 0 1 0 0" style="fill:#8c8c8c;fill-opacity:1;fill-rule:nonzero;stroke:none" transform="matrix(4.45068 0 0 -4.45068 764.563 55.174)"/><path d="M0 0a.91.91 0 0 1-.129.278.697.697 0 0 1-.214.198.566.566 0 0 1-.299.077.643.643 0 0 1-.321-.077.764.764 0 0 1-.229-.192.979.979 0 0 1-.145-.278 1.358 1.358 0 0 1-.065-.32H.056C.048-.208.029-.104 0 0m-1.402-.865c.013-.281.106-.508.282-.678a.902.902 0 0 1 .657-.258c.202 0 .398.03.589.09.193.059.362.139.51.241v-.672a2.005 2.005 0 0 0-.5-.19A2.705 2.705 0 0 0-.5-2.399c-.544 0-.955.155-1.235.464-.28.31-.42.746-.42 1.308 0 .245.031.475.093.691.062.216.155.404.277.562.124.163.279.291.464.385.186.094.399.14.642.14.288 0 .527-.05.717-.151C.227.896.378.758.495.583.61.404.69.191.738-.056.785-.302.81-.571.81-.865Z" style="fill:#8c8c8c;fill-opacity:1;fill-rule:nonzero;stroke:none" transform="matrix(4.45068 0 0 -4.45068 775.926 56.858)"/><path d="M0 0c-.095 0-.198-.008-.309-.027a1.165 1.165 0 0 1-.308-.095.706.706 0 0 1-.245-.195.492.492 0 0 1-.096-.312c0-.151.053-.262.158-.333a.656.656 0 0 1 .38-.107c.222 0 .392.066.51.199.117.132.196.306.237.522.008.057.016.114.021.171.007.057.01.116.01.177zm.432-1.582a.747.747 0 0 0-.015.128 2.45 2.45 0 0 1-.009.129c0 .039-.001.078-.003.115a1.202 1.202 0 0 0-.004.099H.389a1.018 1.018 0 0 0-.411-.398 1.167 1.167 0 0 0-.571-.153c-.329 0-.598.081-.806.241-.208.162-.312.414-.312.755 0 .245.049.444.145.596a.975.975 0 0 0 .374.351c.152.086.321.143.509.172.187.028.372.042.554.042h.487c0 .266-.058.463-.175.597-.118.132-.303.198-.554.198a1.43 1.43 0 0 1-.518-.098 1.897 1.897 0 0 1-.457-.25l-.019.685c.156.076.332.14.526.188.192.05.382.074.567.074.478 0 .822-.121 1.032-.363.21-.243.315-.601.315-1.073V-.819a5.067 5.067 0 0 1 .061-.763z" style="fill:#8c8c8c;fill-opacity:1;fill-rule:nonzero;stroke:none" transform="matrix(4.45068 0 0 -4.45068 789.232 60.14)"/><path d="M0 0h-1.001l-1.494 4.559h.884L-.488.886h.025L.66 4.559h.817z" style="fill:#8c8c8c;fill-opacity:1;fill-rule:nonzero;stroke:none" transform="matrix(4.45068 0 0 -4.45068 815.537 67.181)"/><path d="M0 0a.91.91 0 0 1-.129.278.709.709 0 0 1-.214.198.566.566 0 0 1-.299.077.643.643 0 0 1-.321-.077.764.764 0 0 1-.229-.192.979.979 0 0 1-.145-.278 1.358 1.358 0 0 1-.065-.32H.056C.048-.208.029-.104 0 0m-1.402-.865c.013-.281.106-.508.282-.678a.902.902 0 0 1 .657-.258c.202 0 .398.03.589.09.193.059.362.139.51.241v-.672a2.005 2.005 0 0 0-.5-.19A2.71 2.71 0 0 0-.5-2.399c-.544 0-.955.155-1.235.464-.28.31-.42.746-.42 1.308 0 .245.03.475.092.691.063.216.155.404.278.562.124.163.279.291.463.385.186.094.4.14.643.14.288 0 .527-.05.717-.151C.227.896.378.758.495.583.61.404.69.191.738-.056.786-.302.81-.571.81-.865Z" style="fill:#8c8c8c;fill-opacity:1;fill-rule:nonzero;stroke:none" transform="matrix(4.45068 0 0 -4.45068 831.557 56.858)"/><path d="M0 0v1.858c0 .113-.005.229-.015.348a1.18 1.18 0 0 1-.071.318.532.532 0 0 1-.17.235.49.49 0 0 1-.306.089.628.628 0 0 1-.383-.11.851.851 0 0 1-.241-.275 1.275 1.275 0 0 1-.12-.37 2.23 2.23 0 0 1-.034-.382V0h-.779v3.392h.743v-.459h.011c.12.188.268.324.445.41.177.086.376.128.598.128.384 0 .663-.123.838-.369.174-.247.261-.56.261-.939V0Z" style="fill:#8c8c8c;fill-opacity:1;fill-rule:nonzero;stroke:none" transform="matrix(4.45068 0 0 -4.45068 847.585 67.181)"/><path d="M0 0a3.341 3.341 0 0 0-.346-.018c-.321 0-.569.091-.741.275-.173.183-.26.438-.26.764v1.833h-.525v.594h.525v.666l.779.257v-.923h.802v-.594h-.802V1.162c0-.151.029-.281.089-.391.06-.11.166-.165.318-.165.075 0 .15.007.228.021.079.014.149.04.21.077L.296.062A1.432 1.432 0 0 0 0 0" style="fill:#8c8c8c;fill-opacity:1;fill-rule:nonzero;stroke:none" transform="matrix(4.45068 0 0 -4.45068 861.934 67.457)"/><path d="M0 0v.458h-.012A1.348 1.348 0 0 0-.46.067a1.23 1.23 0 0 0-.596-.147c-.383 0-.662.123-.836.367-.175.244-.264.556-.264.935v2.17h.779V1.527c0-.118.004-.236.012-.354a1.06 1.06 0 0 1 .069-.318.493.493 0 0 1 .169-.226.51.51 0 0 1 .312-.085.594.594 0 0 1 .377.104.865.865 0 0 1 .241.275c.057.114.098.238.123.372.025.135.037.263.037.386v1.711h.778V0Z" style="fill:#8c8c8c;fill-opacity:1;fill-rule:nonzero;stroke:none" transform="matrix(4.45068 0 0 -4.45068 875.234 67.181)"/><path d="M0 0a1.256 1.256 0 0 1-.201.016.53.53 0 0 1-.383-.136.83.83 0 0 1-.215-.329 1.596 1.596 0 0 1-.094-.434 5.677 5.677 0 0 1-.019-.434v-1.381h-.778V.694h.692V.003h.013a.78.78 0 0 0 .092.251c.049.089.111.173.185.25.074.074.162.137.26.19a.679.679 0 0 0 .327.079c.049 0 .098-.003.145-.008A1.24 1.24 0 0 0 .169.736v-.787A.527.527 0 0 1 0 0" style="fill:#8c8c8c;fill-opacity:1;fill-rule:nonzero;stroke:none" transform="matrix(4.45068 0 0 -4.45068 889.95 55.174)"/><path d="M0 0a.887.887 0 0 1-.129.278.697.697 0 0 1-.214.198.566.566 0 0 1-.299.077.646.646 0 0 1-.321-.077.764.764 0 0 1-.229-.192.979.979 0 0 1-.145-.278 1.358 1.358 0 0 1-.065-.32H.056C.048-.208.029-.104 0 0m-1.402-.865c.013-.281.106-.508.282-.678a.902.902 0 0 1 .657-.258c.203 0 .398.03.589.09.193.059.362.139.51.241v-.672a2.005 2.005 0 0 0-.5-.19A2.7 2.7 0 0 0-.5-2.399c-.543 0-.955.155-1.235.464-.28.31-.42.746-.42 1.308 0 .245.031.475.093.691.062.216.154.404.277.562.124.163.279.291.464.385.186.094.399.14.642.14.288 0 .527-.05.717-.151C.227.896.378.758.495.583.61.404.69.191.738-.056.786-.302.81-.571.81-.865Z" style="fill:#8c8c8c;fill-opacity:1;fill-rule:nonzero;stroke:none" transform="matrix(4.45068 0 0 -4.45068 901.314 56.858)"/><path d="M934.753 376.025h4.144v-23.182h-4.144z" style="fill:#8c8c8c;fill-opacity:1;fill-rule:nonzero;stroke:none;stroke-width:5.08493" transform="matrix(.87527 0 0 -.87527 98.387 376.01)"/><path d="M0 0v1.858c0 .113-.005.229-.016.348-.01.119-.034.225-.07.318a.527.527 0 0 1-.171.235.485.485 0 0 1-.305.089.628.628 0 0 1-.383-.11.851.851 0 0 1-.241-.275 1.275 1.275 0 0 1-.12-.37 2.23 2.23 0 0 1-.034-.382V0h-.779v3.392h.742v-.459h.012c.12.188.268.324.445.41.177.086.376.128.598.128.384 0 .663-.123.838-.369.174-.247.262-.56.262-.939V0Z" style="fill:#8c8c8c;fill-opacity:1;fill-rule:nonzero;stroke:none" transform="matrix(4.45068 0 0 -4.45068 933.886 67.181)"/><path d="M0 0h-.883l-1.192 3.392h.84L-.407.831h.012l.803 2.561h.779z" style="fill:#8c8c8c;fill-opacity:1;fill-rule:nonzero;stroke:none" transform="matrix(4.45068 0 0 -4.45068 948.92 67.181)"/><path d="M0 0a.91.91 0 0 1-.129.278.709.709 0 0 1-.214.198.567.567 0 0 1-.3.077.642.642 0 0 1-.32-.077.764.764 0 0 1-.229-.192.954.954 0 0 1-.145-.278 1.264 1.264 0 0 1-.065-.32H.055C.048-.208.029-.104 0 0m-1.402-.865c.013-.281.106-.508.282-.678a.9.9 0 0 1 .657-.258c.202 0 .398.03.589.09.192.059.362.139.51.241v-.672a2.005 2.005 0 0 0-.5-.19A2.71 2.71 0 0 0-.5-2.399c-.544 0-.955.155-1.235.464-.28.31-.42.746-.42 1.308 0 .245.03.475.092.691.062.216.155.404.278.562.124.163.279.291.464.385.185.094.399.14.642.14.288 0 .527-.05.717-.151C.227.896.378.758.495.583.609.404.69.191.738-.056.785-.302.81-.571.81-.865Z" style="fill:#8c8c8c;fill-opacity:1;fill-rule:nonzero;stroke:none" transform="matrix(4.45068 0 0 -4.45068 965.221 56.858)"/><path d="M0 0c-.259-.167-.586-.25-.982-.25a3.408 3.408 0 0 0-.988.152l.044.666a1.61 1.61 0 0 1 .422-.161c.159-.039.306-.059.442-.059.061 0 .13.006.204.019a.697.697 0 0 1 .21.067.485.485 0 0 1 .157.131.326.326 0 0 1 .065.205.317.317 0 0 1-.065.199.724.724 0 0 1-.164.15c-.07.04-.148.079-.234.115-.086.037-.175.076-.265.117a2.304 2.304 0 0 0-.272.137.872.872 0 0 0-.457.798c0 .175.034.326.101.452a.939.939 0 0 0 .276.318c.115.081.247.142.398.183.15.041.307.061.472.061a2.971 2.971 0 0 0 .871-.122l-.049-.617a1.946 1.946 0 0 1-.729.14.816.816 0 0 1-.358-.079c-.112-.053-.167-.148-.167-.288 0-.069.021-.128.062-.177a.683.683 0 0 1 .16-.135 2.51 2.51 0 0 1 .235-.106l.272-.114c.09-.044.179-.093.265-.146A.988.988 0 0 0 .16 1.46.967.967 0 0 0 .39.819C.39.44.26.167 0 0" style="fill:#8c8c8c;fill-opacity:1;fill-rule:nonzero;stroke:none" transform="matrix(4.45068 0 0 -4.45068 979.377 66.42)"/><path d="M0 0a3.341 3.341 0 0 0-.346-.018c-.321 0-.569.091-.741.275-.172.183-.26.438-.26.764v1.833h-.524v.594h.524v.666l.779.257v-.923h.802v-.594h-.802V1.162c0-.151.029-.281.089-.391.06-.11.166-.165.318-.165.075 0 .15.007.228.021.079.014.149.04.211.077L.296.062A1.432 1.432 0 0 0 0 0" style="fill:#8c8c8c;fill-opacity:1;fill-rule:nonzero;stroke:none" transform="matrix(4.45068 0 0 -4.45068 991.004 67.457)"/><path d="M0 0v2.072c0 .076-.004.161-.012.254a.847.847 0 0 1-.062.252.419.419 0 0 1-.145.193.444.444 0 0 1-.275.077.511.511 0 0 1-.346-.113.728.728 0 0 1-.197-.278 1.205 1.205 0 0 1-.097-.364 3.516 3.516 0 0 1-.02-.37V0h-.779v2.072c0 .076-.004.161-.012.254a.847.847 0 0 1-.062.252.419.419 0 0 1-.145.193.442.442 0 0 1-.275.077.5.5 0 0 1-.34-.113.8.8 0 0 1-.203-.278 1.369 1.369 0 0 1-.093-.364 2.91 2.91 0 0 1-.025-.37V0h-.778v3.392h.728v-.459h.013c.124.196.271.334.442.416.17.081.343.122.516.122.209 0 .394-.047.555-.144a.92.92 0 0 0 .371-.449.945.945 0 0 0 .431.449c.191.097.378.144.563.144a1.1 1.1 0 0 0 .488-.098.8.8 0 0 0 .314-.268c.079-.114.135-.25.171-.407.035-.157.052-.325.052-.505V0Z" style="fill:#8c8c8c;fill-opacity:1;fill-rule:nonzero;stroke:none" transform="matrix(4.45068 0 0 -4.45068 1011.864 67.181)"/><path d="M0 0a.91.91 0 0 1-.129.278.709.709 0 0 1-.214.198.57.57 0 0 1-.3.077.642.642 0 0 1-.32-.077.764.764 0 0 1-.229-.192.954.954 0 0 1-.145-.278 1.264 1.264 0 0 1-.065-.32H.055C.047-.208.029-.104 0 0m-1.402-.865c.013-.281.106-.508.281-.678a.904.904 0 0 1 .658-.258c.202 0 .398.03.589.09.192.059.362.139.51.241v-.672a2.02 2.02 0 0 0-.5-.19A2.71 2.71 0 0 0-.5-2.399c-.544 0-.956.155-1.235.464-.28.31-.421.746-.421 1.308 0 .245.031.475.093.691.062.216.155.404.278.562.124.163.278.291.463.385.186.094.4.14.643.14.287 0 .526-.05.717-.151C.227.896.378.758.494.583.609.404.69.191.737-.056.785-.302.81-.571.81-.865Z" style="fill:#8c8c8c;fill-opacity:1;fill-rule:nonzero;stroke:none" transform="matrix(4.45068 0 0 -4.45068 1027.833 56.858)"/><path d="M0 0v1.858c0 .113-.006.229-.016.348a1.181 1.181 0 0 1-.07.318.527.527 0 0 1-.171.235.485.485 0 0 1-.305.089.633.633 0 0 1-.384-.11.86.86 0 0 1-.24-.275 1.275 1.275 0 0 1-.12-.37 2.137 2.137 0 0 1-.035-.382V0h-.778v3.392h.742v-.459h.012c.119.188.268.324.445.41.176.086.376.128.598.128.384 0 .662-.123.837-.369.175-.247.262-.56.262-.939V0Z" style="fill:#8c8c8c;fill-opacity:1;fill-rule:nonzero;stroke:none" transform="matrix(4.45068 0 0 -4.45068 1043.86 67.181)"/><path d="M0 0a3.341 3.341 0 0 0-.346-.018c-.321 0-.569.091-.741.275-.173.183-.26.438-.26.764v1.833h-.524v.594h.524v.666l.779.257v-.923h.802v-.594h-.802V1.162c0-.151.029-.281.089-.391.06-.11.166-.165.319-.165.074 0 .149.007.227.021.079.014.149.04.211.077L.296.062A1.432 1.432 0 0 0 0 0" style="fill:#8c8c8c;fill-opacity:1;fill-rule:nonzero;stroke:none" transform="matrix(4.45068 0 0 -4.45068 1058.207 67.457)"/><path d="M0 0a3.24 3.24 0 0 0-.484-.04c-.35 0-.669.051-.958.15a2.01 2.01 0 0 0-.741.443 2.007 2.007 0 0 0-.479.721 2.702 2.702 0 0 0-.169.99c0 .371.054.706.164 1.003a2.052 2.052 0 0 0 1.209 1.24c.291.115.615.172.974.172.148 0 .307-.016.478-.046a2.44 2.44 0 0 0 .497-.144l-.062-.721c-.16.09-.316.152-.467.186-.15.035-.3.052-.453.052-.231 0-.438-.046-.62-.138a1.442 1.442 0 0 1-.467-.363 1.62 1.62 0 0 1-.3-.541 2.107 2.107 0 0 1-.101-.657c0-.232.035-.45.104-.654.07-.204.17-.381.297-.532.132-.15.29-.268.472-.354.184-.085.391-.128.622-.128.164 0 .337.015.519.049.179.032.322.079.425.14L.497.107A4.213 4.213 0 0 0 0 0" style="fill:#8c8c8c;fill-opacity:1;fill-rule:nonzero;stroke:none" transform="matrix(4.45068 0 0 -4.45068 1082.158 67.36)"/><path d="M0 0a1.198 1.198 0 0 1-.157.369A.797.797 0 0 1-.42.62a.71.71 0 0 1-.368.092.671.671 0 0 1-.358-.094.916.916 0 0 1-.266-.254 1.19 1.19 0 0 1-.156-.37 1.777 1.777 0 0 1-.054-.444c0-.158.018-.307.054-.446.034-.138.087-.258.156-.36a.715.715 0 0 1 .624-.336c.285 0 .496.111.633.333.138.222.208.492.208.809C.053-.29.035-.141 0 0m.753-1.125a1.763 1.763 0 0 0-.324-.565 1.618 1.618 0 0 0-.522-.382 1.626 1.626 0 0 0-.695-.143c-.258 0-.492.048-.697.143a1.543 1.543 0 0 0-.84.947 2.051 2.051 0 0 0-.112.675c0 .265.041.507.124.725.082.218.198.407.346.565.144.155.317.276.519.364.201.088.422.131.66.131A1.617 1.617 0 0 0 .392.84C.541.682.657.493.741.275.825.057.868-.185.868-.45c0-.236-.039-.461-.115-.675" style="fill:#8c8c8c;fill-opacity:1;fill-rule:nonzero;stroke:none" transform="matrix(4.45068 0 0 -4.45068 1096.892 57.675)"/><path d="M0 0a1.268 1.268 0 0 1-.202.016.528.528 0 0 1-.382-.136A.833.833 0 0 1-.8-.449a1.595 1.595 0 0 1-.093-.434 5.677 5.677 0 0 1-.019-.434v-1.381h-.778V.694h.692V.003h.012a.785.785 0 0 0 .093.251c.049.089.111.173.185.25.074.074.162.137.26.19a.679.679 0 0 0 .327.079c.049 0 .098-.003.145-.008C.071.758.12.749.169.736v-.787A.527.527 0 0 1 0 0" style="fill:#8c8c8c;fill-opacity:1;fill-rule:nonzero;stroke:none" transform="matrix(4.45068 0 0 -4.45068 1111.266 55.174)"/><path d="M0 0a1.51 1.51 0 0 1-.117.37.913.913 0 0 1-.226.281.513.513 0 0 1-.343.117.59.59 0 0 1-.358-.11.834.834 0 0 1-.24-.282A1.358 1.358 0 0 1-1.42.003a1.814 1.814 0 0 1-.043-.384c0-.122.012-.251.036-.386a1.31 1.31 0 0 1 .13-.373.925.925 0 0 1 .237-.284.578.578 0 0 1 .362-.112.52.52 0 0 1 .349.115.876.876 0 0 1 .225.294c.058.114.1.239.124.376.024.137.038.264.038.382C.038-.255.024-.132 0 0m.778-1.026a1.878 1.878 0 0 0-.235-.578 1.243 1.243 0 0 0-.416-.403A1.213 1.213 0 0 0-.5-2.16a1.29 1.29 0 0 0-.525.101 1.15 1.15 0 0 0-.433.364h-.012v-1.528h-.779v4.535h.748V.848h.012c.087.15.213.278.378.384.164.106.372.159.623.159.239 0 .443-.05.612-.149.168-.101.309-.232.419-.394A1.74 1.74 0 0 0 .778.284a2.854 2.854 0 0 0 0-1.31" style="fill:#8c8c8c;fill-opacity:1;fill-rule:nonzero;stroke:none" transform="matrix(4.45068 0 0 -4.45068 1124.446 57.923)"/><path d="M1180.065 356.29h4.205v-4.663h-4.205z" style="fill:#8c8c8c;fill-opacity:1;fill-rule:nonzero;stroke:none;stroke-width:5.08493" transform="matrix(.87527 0 0 -.87527 98.387 376.01)"/><path d="M0 0h14.462v5.634H.356c-3.638 0-6.71-1.001-8.872-3.642-1.957-2.383-2.765-4.738-2.765-8.123 0-3.331.621-5.782 2.543-8.057 2.145-2.532 5.403-3.447 9.094-3.447h14.106v5.569H0c-1.666 0-3.336.582-4.332 2.097-.909 1.381-1.024 2.335-1.024 4.284 0 1.895.097 2.424.973 3.71C-3.404-.541-1.716 0 0 0" style="fill:#003089;fill-opacity:1;fill-rule:nonzero;stroke:none" transform="matrix(4.45068 0 0 -4.45068 627.909 71.61)"/><path d="M498.527 258.11h32.731V375.97h-32.731zM169.933 257.881h33.398v117.656h-33.398z" style="fill:#003089;fill-opacity:1;fill-rule:nonzero;stroke:none;stroke-width:5.08493" transform="matrix(.87527 0 0 -.87527 98.387 376.01)"/><path d="m0 0-8.702 12.399h-8.014C-11.486 5.648-5.264-4.006-.018-10.779c.006.008.018 0 .018 0s.014.008.019 0l15.852 23.178H8.227Z" style="fill:#003089;fill-opacity:1;fill-rule:nonzero;stroke:none" transform="matrix(4.45068 0 0 -4.45068 450.888 102.123)"/><path d="M0 0h-8.653L-21-11.524-8.651-23.03H.002l-12.059 11.504z" style="fill:#003089;fill-opacity:1;fill-rule:nonzero;stroke:none" transform="matrix(4.45068 0 0 -4.45068 371.72 47.318)"/></svg>