<svg xmlns="http://www.w3.org/2000/svg" xml:space="preserve" width="941.19159" height="189.13133" viewBox="0 0 941.19157 189.13133"><defs><clipPath id="a" clipPathUnits="userSpaceOnUse"><path d="M0 595.28h841.89V0H0Z"/></clipPath></defs><path d="M0 0h3.167v-9.15L11.223 0h3.901L7.903-8.025l7.727-12.073h-3.951l-5.928 9.596-2.584-2.841v-6.755H0Z" style="fill:#231916;fill-opacity:1;fill-rule:nonzero;stroke:none" transform="matrix(1.33333 0 0 -1.33333 244.034 152.068)"/><g clip-path="url(#a)" transform="matrix(1.33333 0 0 -1.33333 -53.436 731.212)"><path d="M0 0c-1.942 0-3.345-.792-4.205-2.379-.861-1.586-1.292-3.343-1.292-5.275 0-1.934.431-3.693 1.292-5.281.86-1.586 2.263-2.378 4.205-2.378 1.941 0 3.345.792 4.206 2.378.859 1.588 1.291 3.347 1.291 5.281 0 1.932-.432 3.689-1.291 5.275C3.345-.792 1.941 0 0 0m0 2.873c2.718 0 4.843-1.039 6.371-3.112 1.528-2.074 2.293-4.547 2.293-7.415 0-2.873-.765-5.347-2.293-7.42C4.843-17.147 2.718-18.181 0-18.181c-2.702 0-4.822 1.034-6.358 3.107-1.538 2.073-2.306 4.547-2.306 7.42 0 2.868.768 5.341 2.306 7.415C-4.822 1.834-2.702 2.873 0 2.873" style="fill:#231916;fill-opacity:1;fill-rule:nonzero;stroke:none" transform="translate(248.157 431.963)"/><path d="M0 0h5.193c.996 0 1.76.272 2.292.816.532.544.798 1.344.798 2.395 0 1.273-.316 2.106-.95 2.489-.633.383-1.365.577-2.191.577H0Zm-3.168 9.15h8.64c1.976 0 3.466-.478 4.469-1.438 1.006-.956 1.51-2.288 1.51-3.995 0-1.932-.427-3.235-1.281-3.899-.853-.667-1.422-1.055-1.71-1.17v-.054c.54-.078 1.123-.404 1.747-.985.627-.581.938-1.673.938-3.264 0-1.167.081-2.234.241-3.211.161-.977.411-1.67.749-2.082H8.74a3.484 3.484 0 0 0-.418 1.435c-.043.523-.064 1.03-.064 1.521 0 1.838-.237 3.186-.71 4.039-.473.853-1.436 1.278-2.889 1.278H0v-8.273h-3.168z" style="fill:#231916;fill-opacity:1;fill-rule:nonzero;stroke:none" transform="translate(262.876 425.207)"/><path d="M0 0h13.02v-3.042H3.167v-5.264h9.12v-2.869h-9.12v-5.886h10.031v-3.037H0Z" style="fill:#231916;fill-opacity:1;fill-rule:nonzero;stroke:none" transform="translate(277.544 434.358)"/><path d="M0 0h5.523l-2.71 8.643h-.076Zm1.115 12.106h3.369l6.967-20.098H8.056L6.358-2.675H-.861l-1.697-5.317h-3.268z" style="fill:#231916;fill-opacity:1;fill-rule:nonzero;stroke:none" transform="translate(297.225 422.252)"/><path d="M0 0c-.27 1.167-.76 2.123-1.469 2.874-.709.75-1.723 1.125-3.04 1.125-1.941 0-3.345-.792-4.204-2.379-.862-1.586-1.292-3.343-1.292-5.275 0-1.934.43-3.693 1.292-5.281.859-1.586 2.263-2.378 4.204-2.378 1.401 0 2.492.511 3.269 1.533C-.463-8.758-.017-7.514.102-6.05h3.091c-.12-2.404-.882-4.357-2.295-5.87-1.409-1.509-3.212-2.262-5.407-2.262-2.701 0-4.823 1.034-6.358 3.107-1.537 2.073-2.306 4.547-2.306 7.42 0 2.868.769 5.345 2.306 7.431 1.535 2.082 3.657 3.113 6.358 3.096 2.043 0 3.788-.602 5.231-1.802C2.167 3.866 2.981 2.177 3.168 0Z" style="fill:#231916;fill-opacity:1;fill-rule:nonzero;stroke:none" transform="translate(329.651 427.964)"/><path d="M0 0c-1.941 0-3.345-.792-4.205-2.379-.861-1.586-1.292-3.343-1.292-5.275 0-1.934.431-3.693 1.292-5.281.86-1.586 2.264-2.378 4.205-2.378 1.94 0 3.344.792 4.206 2.378.859 1.588 1.29 3.347 1.29 5.281 0 1.932-.431 3.689-1.29 5.275C3.344-.792 1.94 0 0 0m0 2.873c2.718 0 4.843-1.039 6.37-3.112 1.529-2.074 2.294-4.547 2.294-7.415 0-2.873-.765-5.347-2.294-7.42-1.527-2.073-3.652-3.107-6.37-3.107-2.702 0-4.823 1.034-6.359 3.107-1.537 2.073-2.306 4.547-2.306 7.42 0 2.868.769 5.341 2.306 7.415C-4.823 1.834-2.702 2.873 0 2.873" style="fill:#231916;fill-opacity:1;fill-rule:nonzero;stroke:none" transform="translate(343.434 431.963)"/><path d="M0 0h4.634c.71 0 1.415.239 2.118.722.7.478 1.05 1.344 1.05 2.601 0 1.331-.309 2.221-.925 2.663-.616.436-1.348.659-2.19.659H0Zm-3.167 9.518h7.979c2.584 0 4.255-.726 5.016-2.168.76-1.447 1.14-2.799 1.14-4.056 0-1.236-.38-2.572-1.14-4.011-.761-1.433-2.432-2.151-5.016-2.151H0v-7.712h-3.167z" style="fill:#231916;fill-opacity:1;fill-rule:nonzero;stroke:none" transform="translate(358.152 424.84)"/><path d="m0 0-6.791 12.217h3.675l4.788-9.01 4.71 9.01H9.93L3.166 0v-7.881H0Z" style="fill:#231916;fill-opacity:1;fill-rule:nonzero;stroke:none" transform="translate(376.595 422.141)"/><path d="M0 0h5.194c.995 0 1.76.272 2.291.816.532.544.798 1.344.798 2.395 0 1.273-.315 2.106-.95 2.489-.632.383-1.365.577-2.191.577H0Zm-3.167 9.15h8.639c1.976 0 3.466-.478 4.47-1.438 1.006-.956 1.509-2.288 1.509-3.995 0-1.932-.427-3.235-1.28-3.899-.853-.667-1.422-1.055-1.711-1.17v-.054c.54-.078 1.123-.404 1.748-.985.626-.581.938-1.673.938-3.264 0-1.167.08-2.234.241-3.211.16-.977.41-1.67.748-2.082H8.741a3.454 3.454 0 0 0-.418 1.435 18.14 18.14 0 0 0-.065 1.521c0 1.838-.237 3.186-.709 4.039-.474.853-1.436 1.278-2.889 1.278H0v-8.273h-3.167z" style="fill:#231916;fill-opacity:1;fill-rule:nonzero;stroke:none" transform="translate(391.465 425.207)"/><path d="M406.133 434.358h3.167V414.26h-3.167z" style="fill:#231916;fill-opacity:1;fill-rule:nonzero;stroke:none"/><path d="M0 0h-2.025l-.483 2.362C-3.354 1.294-4.195.552-5.041.14c-.845-.412-1.815-.618-2.914-.618-2.702 0-4.82 1.035-6.358 3.108-1.538 2.073-2.304 4.546-2.304 7.419 0 2.869.766 5.342 2.304 7.415 1.538 2.074 3.656 3.113 6.358 3.113 1.976 0 3.703-.577 5.182-1.732 1.477-1.154 2.334-2.869 2.572-5.14h-3.092c-.152 1.336-.681 2.333-1.584 3.001a5.065 5.065 0 0 1-3.078.998c-1.942 0-3.343-.792-4.204-2.38-.862-1.585-1.292-3.342-1.292-5.275 0-1.933.43-3.689 1.292-5.264.861-1.578 2.262-2.374 4.204-2.394 1.623-.016 2.866.47 3.739 1.463.869.997 1.312 2.345 1.329 4.055h-4.815v2.671H0Z" style="fill:#231916;fill-opacity:1;fill-rule:nonzero;stroke:none" transform="translate(428.957 414.26)"/><path d="M0 0h3.168v-7.996h8.233V0h3.166v-20.098h-3.166v9.063H3.168v-9.063H0Z" style="fill:#231916;fill-opacity:1;fill-rule:nonzero;stroke:none" transform="translate(432.324 434.358)"/><path d="M0 0h14.644v-3.042H8.893v-17.056H5.726v17.056H0Z" style="fill:#231916;fill-opacity:1;fill-rule:nonzero;stroke:none" transform="translate(448.969 434.358)"/><path d="M0 0h4.635c.709 0 1.414.239 2.117.722.7.478 1.051 1.344 1.051 2.601 0 1.331-.309 2.221-.926 2.663-.616.436-1.348.659-2.19.659H0Zm-3.167 9.518h7.979c2.584 0 4.256-.726 5.016-2.168.761-1.447 1.14-2.799 1.14-4.056 0-1.236-.379-2.572-1.14-4.011-.76-1.433-2.432-2.151-5.016-2.151H0v-7.712h-3.167z" style="fill:#231916;fill-opacity:1;fill-rule:nonzero;stroke:none" transform="translate(475.924 424.84)"/><path d="M0 0h5.193c.995 0 1.761.272 2.292.816.532.544.797 1.344.797 2.395 0 1.273-.314 2.106-.949 2.489-.633.383-1.365.577-2.19.577H0Zm-3.168 9.15h8.64c1.976 0 3.466-.478 4.47-1.438 1.005-.956 1.508-2.288 1.508-3.995 0-1.932-.427-3.235-1.279-3.899-.854-.667-1.422-1.055-1.711-1.17v-.054c.54-.078 1.123-.404 1.748-.985.626-.581.938-1.673.938-3.264 0-1.167.08-2.234.241-3.211.16-.977.41-1.67.748-2.082H8.739a3.514 3.514 0 0 0-.417 1.435 18.13 18.13 0 0 0-.064 1.521c0 1.838-.237 3.186-.709 4.039-.474.853-1.437 1.278-2.89 1.278H0v-8.273h-3.168z" style="fill:#231916;fill-opacity:1;fill-rule:nonzero;stroke:none" transform="translate(492.821 425.207)"/><path d="M0 0c-1.941 0-3.345-.792-4.204-2.379-.861-1.586-1.292-3.343-1.292-5.275 0-1.934.431-3.693 1.292-5.281.859-1.586 2.263-2.378 4.204-2.378 1.941 0 3.345.792 4.206 2.378.859 1.588 1.29 3.347 1.29 5.281 0 1.932-.431 3.689-1.29 5.275C3.345-.792 1.941 0 0 0m0 2.873c2.718 0 4.843-1.039 6.37-3.112 1.529-2.074 2.294-4.547 2.294-7.415 0-2.873-.765-5.347-2.294-7.42-1.527-2.073-3.652-3.107-6.37-3.107-2.701 0-4.823 1.034-6.358 3.107-1.538 2.073-2.306 4.547-2.306 7.42 0 2.868.768 5.341 2.306 7.415C-4.823 1.834-2.701 2.873 0 2.873" style="fill:#231916;fill-opacity:1;fill-rule:nonzero;stroke:none" transform="translate(515.19 431.963)"/><path d="M0 0h14.643v-3.042H8.894v-17.056H5.726v17.056H0Z" style="fill:#231916;fill-opacity:1;fill-rule:nonzero;stroke:none" transform="translate(525.019 434.358)"/><path d="M0 0h13.021v-3.042H3.167v-5.264h9.119v-2.869H3.167v-5.886h10.03v-3.037H0Z" style="fill:#231916;fill-opacity:1;fill-rule:nonzero;stroke:none" transform="translate(541.765 434.358)"/><path d="M0 0c-.27 1.167-.761 2.123-1.47 2.874-.709.75-1.722 1.125-3.039 1.125-1.941 0-3.345-.792-4.205-2.379-.861-1.586-1.292-3.343-1.292-5.275 0-1.934.431-3.693 1.292-5.281.86-1.586 2.264-2.378 4.205-2.378 1.402 0 2.491.511 3.268 1.533C-.464-8.758-.016-7.514.102-6.05h3.09c-.119-2.404-.881-4.357-2.294-5.87-1.409-1.509-3.212-2.262-5.407-2.262-2.702 0-4.823 1.034-6.358 3.107-1.537 2.073-2.306 4.547-2.306 7.42 0 2.868.769 5.345 2.306 7.431 1.535 2.082 3.656 3.113 6.358 3.096 2.042 0 3.787-.602 5.231-1.802C2.166 3.866 2.98 2.177 3.168 0Z" style="fill:#231916;fill-opacity:1;fill-rule:nonzero;stroke:none" transform="translate(569.935 427.964)"/><path d="M0 0h14.644v-3.042H8.893v-17.056H5.726v17.056H0Z" style="fill:#231916;fill-opacity:1;fill-rule:nonzero;stroke:none" transform="translate(574.29 434.358)"/><path d="M591.034 434.358h3.168V414.26h-3.168z" style="fill:#231916;fill-opacity:1;fill-rule:nonzero;stroke:none"/><path d="M0 0c-1.94 0-3.346-.792-4.204-2.379-.861-1.586-1.292-3.343-1.292-5.275 0-1.934.431-3.693 1.292-5.281.858-1.586 2.264-2.378 4.204-2.378 1.941 0 3.345.792 4.206 2.378.859 1.588 1.291 3.347 1.291 5.281 0 1.932-.432 3.689-1.291 5.275C3.345-.792 1.941 0 0 0m0 2.873c2.719 0 4.844-1.039 6.37-3.112C7.9-2.313 8.664-4.786 8.664-7.654c0-2.873-.764-5.347-2.294-7.42-1.526-2.073-3.651-3.107-6.37-3.107-2.701 0-4.823 1.034-6.358 3.107-1.538 2.073-2.306 4.547-2.306 7.42 0 2.868.768 5.341 2.306 7.415C-4.823 1.834-2.701 2.873 0 2.873" style="fill:#231916;fill-opacity:1;fill-rule:nonzero;stroke:none" transform="translate(605.78 431.963)"/><path d="M0 0h3.344l8.26-14.806h.049V0h3.016v-20.098h-3.345L3.09-5.321h-.074v-14.777H0Z" style="fill:#231916;fill-opacity:1;fill-rule:nonzero;stroke:none" transform="translate(617.203 434.358)"/><path d="M0 0h5.522L2.813 8.643h-.077Zm1.115 12.106h3.369l6.965-20.098H8.057l-1.7 5.317H-.861l-1.697-5.317h-3.269z" style="fill:#231916;fill-opacity:1;fill-rule:nonzero;stroke:none" transform="translate(646.387 422.252)"/><path d="M0 0h-2.027l-.483 2.362C-3.355 1.294-4.196.552-5.042.14c-.845-.412-1.815-.618-2.915-.618-2.701 0-4.819 1.035-6.357 3.108-1.539 2.073-2.305 4.546-2.305 7.419 0 2.869.766 5.342 2.305 7.415 1.538 2.074 3.656 3.113 6.357 3.113 1.978 0 3.704-.577 5.183-1.732 1.476-1.154 2.335-2.869 2.571-5.14h-3.092c-.151 1.336-.68 2.333-1.583 3.001a5.066 5.066 0 0 1-3.079.998c-1.94 0-3.341-.792-4.204-2.38-.86-1.585-1.29-3.342-1.29-5.275 0-1.933.43-3.689 1.29-5.264.863-1.578 2.264-2.374 4.204-2.394 1.622-.016 2.868.47 3.738 1.463.87.997 1.314 2.345 1.33 4.055h-4.814v2.671H0Z" style="fill:#231916;fill-opacity:1;fill-rule:nonzero;stroke:none" transform="translate(675.344 414.26)"/><path d="M0 0h13.02v-3.042H3.167v-5.264h9.12v-2.869h-9.12v-5.886h10.03v-3.037H0Z" style="fill:#231916;fill-opacity:1;fill-rule:nonzero;stroke:none" transform="translate(678.79 434.358)"/><path d="M0 0h3.344l8.26-14.806h.047V0h3.016v-20.098h-3.345L3.09-5.321h-.074v-14.777H0Z" style="fill:#231916;fill-opacity:1;fill-rule:nonzero;stroke:none" transform="translate(694.623 434.358)"/><path d="M0 0c-.271 1.167-.76 2.123-1.468 2.874-.71.75-1.723 1.125-3.04 1.125-1.941 0-3.346-.792-4.205-2.379-.861-1.586-1.292-3.343-1.292-5.275 0-1.934.431-3.693 1.292-5.281.859-1.586 2.264-2.378 4.205-2.378 1.403 0 2.491.511 3.267 1.533C-.464-8.758-.017-7.514.102-6.05h3.092c-.121-2.404-.883-4.357-2.295-5.87-1.409-1.509-3.213-2.262-5.407-2.262-2.702 0-4.823 1.034-6.36 3.107-1.536 2.073-2.303 4.547-2.303 7.42 0 2.868.767 5.345 2.303 7.431 1.537 2.082 3.658 3.113 6.36 3.096 2.042 0 3.789-.602 5.23-1.802C2.167 3.866 2.979 2.177 3.168 0Z" style="fill:#231916;fill-opacity:1;fill-rule:nonzero;stroke:none" transform="translate(725.247 427.964)"/><path d="m0 0-6.792 12.217h3.676l4.788-9.01 4.71 9.01H9.93L3.166 0v-7.881H0Z" style="fill:#231916;fill-opacity:1;fill-rule:nonzero;stroke:none" transform="translate(736.041 422.141)"/><path d="M0 0v8.165h16.563v6.117h10.126V8.165h16.654V0Z" style="fill:#231916;fill-opacity:1;fill-rule:nonzero;stroke:none" transform="translate(215.182 506.255)"/><path d="M0 0c-3.226 0-4.926 1.355-5.191 4.15l.006 18.553H4.934V8.31h42.997V0Z" style="fill:#231916;fill-opacity:1;fill-rule:nonzero;stroke:none" transform="translate(228.413 446.55)"/><path d="M0 0v48.048h10.123V32.974h9.783v-8.318h-9.783V0Z" style="fill:#231916;fill-opacity:1;fill-rule:nonzero;stroke:none" transform="translate(265.28 468.438)"/><path d="M0 0v10.3h-25.419v8.153H35.71V10.3H10.127V0Z" style="fill:#231916;fill-opacity:1;fill-rule:nonzero;stroke:none" transform="translate(312.387 471.607)"/><path d="M0 0v20.123h-42.123v8.166h46.95c3.41 0 5.3-1.728 5.3-4.839V0Z" style="fill:#231916;fill-opacity:1;fill-rule:nonzero;stroke:none" transform="translate(333.141 445.75)"/><path d="M0 0v20.123h-41.533v8.166H4.833c3.413 0 5.295-1.728 5.295-4.839V0Z" style="fill:#231916;fill-opacity:1;fill-rule:nonzero;stroke:none" transform="translate(472.315 445.75)"/><path d="M0 0v15.342h-42.123v8.157h46.95c3.41 0 5.3-1.719 5.3-4.827V0Z" style="fill:#231916;fill-opacity:1;fill-rule:nonzero;stroke:none" transform="translate(333.141 492.183)"/><path d="M0 0v18.26h-27.894v8.157H4.828c3.423 0 5.297-1.719 5.297-4.827V0Z" style="fill:#231916;fill-opacity:1;fill-rule:nonzero;stroke:none" transform="translate(522.856 489.265)"/><path d="M0 0v46.351h-12.421v8.145H0v16.239h10.123V0Z" style="fill:#231916;fill-opacity:1;fill-rule:nonzero;stroke:none" transform="translate(404.729 445.75)"/><path d="M0 0v38.027h10.124V22.966h11.067v-8.309H10.124V0Z" style="fill:#231916;fill-opacity:1;fill-rule:nonzero;stroke:none" transform="translate(471.266 478.458)"/><path d="M0 0v4.947h-12.97v7.431H0v3.932h-19.286l-1.711-11.355h-9.952l1.722 11.355h-19.96v8.17H0v28.832h9.962V0Z" style="fill:#231916;fill-opacity:1;fill-rule:nonzero;stroke:none" transform="translate(540.312 463.173)"/><path d="M0 0c-3.066 0-4.712 1.41-5.024 4.312v16.009h9.948V8.148h43.725V0Z" style="fill:#231916;fill-opacity:1;fill-rule:nonzero;stroke:none" transform="translate(502.567 446.55)"/><path d="M0 0v2.086h-12.209v7.023H0v4.003h-18.523l-1.613-10.083h-9.937l1.603 10.083h-19.947v7.843H0v33.062h9.948V0Z" style="fill:#231916;fill-opacity:1;fill-rule:nonzero;stroke:none" transform="translate(735 462.469)"/><path d="M0 0c-3.047 0-4.697 1.41-5.016 4.312v16.009h9.952V8.148h42.95V0Z" style="fill:#231916;fill-opacity:1;fill-rule:nonzero;stroke:none" transform="translate(698.006 446.55)"/><path d="M0 0v8.157h24.09v15.235h10.123V8.157h23.902V0Z" style="fill:#231916;fill-opacity:1;fill-rule:nonzero;stroke:none" transform="translate(559.346 448.356)"/><path d="M573.053 479.678h30.699v13.219h-30.699zm-5.273-8.318c-3.051 0-4.633 1.306-4.85 3.985l.008 38.226h10.115v-12.369h30.699v12.369h10.13v-37.516c0-2.131-.826-4.695-4.738-4.695z" style="fill:#231916;fill-opacity:1;fill-rule:nonzero;stroke:none"/><path d="M0 0v8.31h24.079v13.438H34.2V8.31h23.908V0Z" style="fill:#231916;fill-opacity:1;fill-rule:nonzero;stroke:none" transform="translate(624.37 448.356)"/><path d="M0 0v8.157h20.803v7.407h10.14V8.157h20.734V0Z" style="fill:#231916;fill-opacity:1;fill-rule:nonzero;stroke:none" transform="translate(627.594 503.11)"/><path d="M0 0c-11.02 21.042-11.144 21.162-11.202 21.203l-.445.416-.156-.565C-13.148 16.297-20.997 2.011-21.984.235H-32.99c1.868 3.396 12.803 23.498 15.004 32.105 1.09 4.27 1.014 8.285 1.014 8.326l-.008.322h-14.217v8.318H6.835v-8.318H-7.494v-.335c0-4.059-.302-6.953-.302-6.986l-.014-.099L11.529 0Z" style="fill:#231916;fill-opacity:1;fill-rule:nonzero;stroke:none" transform="translate(387.211 466.385)"/><path d="M0 0c-7.809 11.549-11.815 17.452-11.92 17.546l-.425.409-.171-.54C-13.991 12.896-20.998 1.525-21.928 0h-10.997c1.898 3.074 11.794 19.406 14.585 28.502l.133.413h-13.414v8.317H6.405v-8.317H-8.18l-.027-.297c-.01-.174-.01-.178 19.319-28.618Z" style="fill:#231916;fill-opacity:1;fill-rule:nonzero;stroke:none" transform="translate(455.656 478.458)"/><path d="M0 0c-6.212 0-11.257-4.971-11.257-11.088 0-6.125 5.045-11.096 11.257-11.096 6.201 0 11.254 4.971 11.254 11.096C11.254-4.971 6.201 0 0 0m0-30.457c-11.888 0-21.568 8.689-21.568 19.369 0 10.671 9.68 19.36 21.568 19.36 11.883 0 21.559-8.689 21.559-19.36 0-10.68-9.676-19.369-21.559-19.369" style="fill:#231916;fill-opacity:1;fill-rule:nonzero;stroke:none" transform="translate(236.857 503.218)"/><path d="M0 0c-6.976 0-12.635-5.498-12.635-12.254C-12.635-19.018-6.976-24.5 0-24.5c6.96 0 12.634 5.482 12.634 12.246C12.634-5.498 6.96 0 0 0m0-32.929c-12.915 0-23.422 9.286-23.422 20.675C-23.422-.853-12.915 8.417 0 8.417c12.931 0 23.415-9.27 23.415-20.671 0-11.389-10.484-20.675-23.415-20.675" style="fill:#231916;fill-opacity:1;fill-rule:nonzero;stroke:none" transform="translate(653.428 502.537)"/><path d="M0 0c-6.05 0-10.965-4.781-10.965-10.667 0-5.878 4.915-10.659 10.965-10.659 6.059 0 10.98 4.781 10.98 10.659C10.98-4.781 6.059 0 0 0m0-28.428c-11.572 0-20.999 8.095-20.999 18.057C-20.999-.433-11.572 7.683 0 7.683c11.582 0 21.004-8.116 21.004-18.054 0-9.962-9.422-18.057-21.004-18.057" style="fill:#231916;fill-opacity:1;fill-rule:nonzero;stroke:none" transform="translate(710.05 510.105)"/><path d="m0 0-15.747 15.745h-40.061L0-40.061Z" style="fill:#005098;fill-opacity:1;fill-rule:nonzero;stroke:none" transform="translate(123.357 446.802)"/><path d="M0 0h40.041l15.705 15.705v40.043Z" style="fill:#0090d4;fill-opacity:1;fill-rule:nonzero;stroke:none" transform="translate(67.612 465.478)"/><path d="M0 0v-40.039l51.321 51.304H11.28Z" style="fill:#005098;fill-opacity:1;fill-rule:nonzero;stroke:none" transform="translate(126.282 446.6)"/><path d="M0 0h51.257L0 51.275Z" style="fill:#0090d4;fill-opacity:1;fill-rule:nonzero;stroke:none" transform="translate(126.315 470.025)"/><path d="M0 0c0 42.917 34.792 77.709 77.711 77.709 18.66 0 35.774-6.582 49.172-17.538C112.627 77.603 90.965 88.727 66.7 88.727c-42.917 0-77.714-34.804-77.714-77.718 0-24.269 11.125-45.932 28.549-60.178C6.576-35.778 0-18.664 0 0" style="fill:#0090d4;fill-opacity:1;fill-rule:nonzero;stroke:none" transform="translate(51.091 459.682)"/></g></svg>