<svg xmlns="http://www.w3.org/2000/svg" xml:space="preserve" width="1052.1575" height="199.99994" viewBox="0 0 1052.1575 199.99994"><defs><linearGradient id="b" x1="0" x2="1" y1="0" y2="0" gradientTransform="scale(-39.86123 39.86123) rotate(-47.116 11.368 11.48)" gradientUnits="userSpaceOnUse" spreadMethod="pad"><stop offset="0" style="stop-opacity:1;stop-color:#72bf44"/><stop offset="0.149994" style="stop-opacity:1;stop-color:#72bf44"/><stop offset="0.850006" style="stop-opacity:1;stop-color:#009a4e"/><stop offset="1" style="stop-opacity:1;stop-color:#009a4e"/></linearGradient><clipPath id="a" clipPathUnits="userSpaceOnUse"><path d="M172.919 470.356c-7.601-3.333-11.769-11.011-10.382-20.219 5.461 11.76 15.961 12.478 22.66 21.09.186.24.392.078.228-.184-5.738-9.162-14.19-8.994-20.464-21.147 0 0 .671-.04 1.248-.04 13.051 0 23.631 10.579 23.631 23.63a23.63 23.63 0 0 1-.799 6.091c-4.8-4.993-9.973-6.524-16.122-9.221"/></clipPath></defs><path d="M0 0v11.58h.78c1.863 0 2.167-.869 2.167-1.859V0Z" style="fill:#6d6f71;fill-opacity:1;fill-rule:nonzero;stroke:none" transform="matrix(4.23211 0 0 -4.23211 471.039 79.676)"/><path d="M-9.894 417.868H3.364v-7.774H-9.894z" style="fill:#6d6f71;fill-opacity:1;fill-rule:nonzero;stroke:none;stroke-width:3.17409" transform="matrix(1.33333 0 0 -1.33333 468.88 608.673)"/><path d="M-13.935 405.257h-16.362v9.402h16.362zm2.476 28.065h-2.476V422.43h-16.362v4.993c0 3.142-.959 5.9-6.869 5.9h-2.485v-27.367c0-5.729 2.853-8.474 7.843-8.474h27.227v29.94c0 3.143-.958 5.901-6.878 5.901M1.488 374.659h-27.373v5.256H1.488Zm2.48 19.765h-2.48v-6.732h-27.37v.825c0 3.145-.965 5.907-6.875 5.907h-2.479v-19.067c0-5.732 2.847-8.465 7.834-8.465h38.247v21.625c0 3.145-.961 5.907-6.878 5.907" style="fill:#6d6f71;fill-opacity:1;fill-rule:nonzero;stroke:none;stroke-width:3.17409" transform="matrix(1.33333 0 0 -1.33333 468.88 608.673)"/><path d="M0 0h-7.185v-4.686h-2.904V0h-7.104v2.408H0Z" style="fill:#6d6f71;fill-opacity:1;fill-rule:nonzero;stroke:none" transform="matrix(4.23211 0 0 -4.23211 567.371 100.622)"/><path d="M0 0c-.698 0-.978.305-.978 1.003v5.391c0 .99-.303 1.858-2.166 1.858h-.782V.305c0-1.805.899-2.67 2.47-2.67h12.764V0Z" style="fill:#6d6f71;fill-opacity:1;fill-rule:nonzero;stroke:none" transform="matrix(4.23211 0 0 -4.23211 515.288 68.584)"/><path d="M0 0h-12.764v-2.364h11.308c.698 0 .977-.303.977-1.001v-5.392c0-.99.303-1.859 2.167-1.859h.782v7.949C2.47-.862 1.57 0 0 0" style="fill:#6d6f71;fill-opacity:1;fill-rule:nonzero;stroke:none" transform="matrix(4.23211 0 0 -4.23211 552.69 32.466)"/><path d="M120.818 401.62h-28.98v12.858h28.98zm2.485 30.42h-2.485v-9.789h-28.98v3.895c0 3.136-.958 5.894-6.871 5.894h-2.482v-29.725c0-5.73 2.853-8.472 7.836-8.472h39.854v32.303c0 3.136-.962 5.894-6.872 5.894" style="fill:#6d6f71;fill-opacity:1;fill-rule:nonzero;stroke:none;stroke-width:3.17409" transform="matrix(1.33333 0 0 -1.33333 468.88 608.673)"/><path d="M0 0v-5.369h7.005v-2.326H-10.19v2.326h7.243V0Z" style="fill:#6d6f71;fill-opacity:1;fill-rule:nonzero;stroke:none" transform="matrix(4.23211 0 0 -4.23211 617.392 81.42)"/><path d="M0 0c-.769-.59-1.152-1.273-1.152-2.053 0-.763.383-1.431 1.152-2.006.859-.662 2.004-.991 3.434-.991 1.427 0 2.578.329 3.453.991.779.575 1.17 1.243 1.17 2.006 0 .78-.391 1.463-1.17 2.053-.875.648-2.026.97-3.453.97C2.004.97.859.648 0 0m11.244 4.819V2.496H6.162c1.76-.266 3.097-.98 4.01-2.14.848-1.075 1.124-2.235.834-3.486-.264-1.089-.854-1.991-1.767-2.712-1.085-.826-2.526-1.326-4.325-1.501v-3.484h7.183v-2.325H-5.137v2.325h7.145v3.462c-1.813.176-3.262.683-4.346 1.523-.94.734-1.529 1.64-1.766 2.712-.278 1.308-.007 2.493.813 3.553.887 1.116 2.209 1.807 3.969 2.073h-5.04v2.323z" style="fill:#6d6f71;fill-opacity:1;fill-rule:nonzero;stroke:none" transform="matrix(4.23211 0 0 -4.23211 677.852 58.317)"/><path d="M0 0v3.106h.78c1.863 0 2.166-.87 2.166-1.858V0Z" style="fill:#6d6f71;fill-opacity:1;fill-rule:nonzero;stroke:none" transform="matrix(4.23211 0 0 -4.23211 686.35 43.323)"/><path d="M0 0v-2.368h-7.14v-3.874h-2.947v3.874h-6.926V0Z" style="fill:#6d6f71;fill-opacity:1;fill-rule:nonzero;stroke:none" transform="matrix(4.23211 0 0 -4.23211 404.422 65.88)"/><path d="M0 0c.381 1.518.473 2.172.54 2.909.052.616.08 1.315.08 2.094v.211c0 .7-.281 1.002-.979 1.002h-11.326v2.406H1.4c1.863 0 2.166-.868 2.166-1.858v-.411c0-.885-.033-1.783-.1-2.694C3.387 2.629 3.28 1.727 2.888 0Z" style="fill:#6d6f71;fill-opacity:1;fill-rule:nonzero;stroke:none" transform="matrix(4.23211 0 0 -4.23211 385.64 68.956)"/><path d="M0 0c0 1.806-.899 2.67-2.47 2.67h-12.802V.305h11.346c.699 0 .979-.305.979-1V-5.04H0Z" style="fill:#6d6f71;fill-opacity:1;fill-rule:nonzero;stroke:none" transform="matrix(4.23211 0 0 -4.23211 400.734 98.91)"/><path d="M241.71 411.65h-28.983v4.64h28.982zm2.481 20.39h-2.482v-7.976H212.73v2.082c0 3.136-.955 5.894-6.869 5.894h-2.485v-19.692c0-5.73 2.85-8.465 7.84-8.465h39.85v22.263c0 3.136-.961 5.894-6.874 5.894" style="fill:#6d6f71;fill-opacity:1;fill-rule:nonzero;stroke:none;stroke-width:3.17409" transform="matrix(1.33333 0 0 -1.33333 468.88 608.673)"/><path d="M0 0v-1.881h7.005v-2.323h-17.194v2.323h7.243V0Z" style="fill:#6d6f71;fill-opacity:1;fill-rule:nonzero;stroke:none" transform="matrix(4.23211 0 0 -4.23211 778.58 68.65)"/><path d="M0 0c0 1.807-.897 2.669-2.47 2.669h-12.801V.305h11.346c.698 0 .979-.305.979-1.003v-3.484H0Z" style="fill:#6d6f71;fill-opacity:1;fill-rule:nonzero;stroke:none" transform="matrix(4.23211 0 0 -4.23211 805.167 102.544)"/><path d="M0 0v-2.324h-3.691v-4.851c0-2.573.509-4.778 1.527-6.615.872-1.559 2.044-2.734 3.514-3.529l-1.708-1.917c-1.177.748-2.144 1.578-2.897 2.49a9.953 9.953 0 0 0-1.91 3.506c-.372-1.264-1.023-2.433-1.949-3.506-.755-.881-1.713-1.712-2.878-2.49l-1.488 1.917c1.362.809 2.465 1.992 3.313 3.549 1.02 1.854 1.529 4.045 1.529 6.572v4.874h-3.713V0Z" style="fill:#6d6f71;fill-opacity:1;fill-rule:nonzero;stroke:none" transform="matrix(4.23211 0 0 -4.23211 862.838 34.074)"/><path d="M0 0c0 .99-.303 1.859-2.165 1.859h-.781v-21.22H0Z" style="fill:#6d6f71;fill-opacity:1;fill-rule:nonzero;stroke:none" transform="matrix(4.23211 0 0 -4.23211 885.507 38.537)"/><path d="M0 0c-.807-.428-1.211-.947-1.211-1.563 0-.621.404-1.141 1.211-1.567.886-.471 2.083-.706 3.592-.706 1.495 0 2.698.235 3.611.706.834.442 1.25.962 1.25 1.567 0 .616-.416 1.135-1.25 1.563-.913.471-2.116.706-3.611.706C2.083.706.886.471 0 0m9.406 1.654c1.324-.882 1.985-1.957 1.985-3.217 0-1.249-.661-2.316-1.985-3.2C7.951-5.748 6.013-6.24 3.592-6.24c-2.434 0-4.373.492-5.815 1.477-1.296.884-1.944 1.951-1.944 3.2 0 1.26.648 2.335 1.944 3.217C-.768 2.625 1.17 3.11 3.592 3.11c2.421 0 4.359-.485 5.814-1.456" style="fill:#6d6f71;fill-opacity:1;fill-rule:nonzero;stroke:none" transform="matrix(4.23211 0 0 -4.23211 916.967 96.472)"/><path d="M374.472 398.179h-54.004v7.51h54.004z" style="fill:#6d6f71;fill-opacity:1;fill-rule:nonzero;stroke:none;stroke-width:3.17409" transform="matrix(1.33333 0 0 -1.33333 468.88 608.673)"/><path d="M0 0c.379 1.518.472 2.172.538 2.909.054.616.079 1.315.079 2.094v.211c0 .7-.279 1.002-.978 1.002h-11.325v2.406H1.398c1.864 0 2.166-.868 2.166-1.858v-.411c0-.885-.033-1.783-.098-2.694-.08-1.03-.187-1.932-.579-3.659Z" style="fill:#6d6f71;fill-opacity:1;fill-rule:nonzero;stroke:none" transform="matrix(4.23211 0 0 -4.23211 949.394 68.956)"/><path d="M0 0c0 .99-.302 1.858-2.165 1.858h-.78v-5.236H0Z" style="fill:#6d6f71;fill-opacity:1;fill-rule:nonzero;stroke:none" transform="matrix(4.23211 0 0 -4.23211 932.986 59.917)"/><path d="M0 0c1.864 0 2.167-.869 2.167-1.859v-3.437H4.19v-2.513H2.167v-6.7H-.781V0Z" style="fill:#6d6f71;fill-opacity:1;fill-rule:nonzero;stroke:none" transform="matrix(4.23211 0 0 -4.23211 308.908 30.668)"/><path d="M0 0c.487.529 1.17.795 2.042.795.9 0 1.615-.279 2.145-.839.476-.515.713-1.147.713-1.896 0-.706-.251-1.302-.754-1.786-.529-.528-1.23-.795-2.104-.795-.859 0-1.54.273-2.042.816-.451.5-.676 1.119-.676 1.851 0 .751.225 1.37.676 1.854m2.06-6.838c1.551 0 2.849.375 3.895 1.125.938.674 1.534 1.522 1.785 2.533.239 1.249.113 2.338-.377 3.265-.529 1.028-1.448 1.733-2.757 2.119h3.055v2.312H3.613c0 .99-.302 1.708-2.166 1.708H.666V4.516h-4.187V2.204h3.036c-1.256-.415-2.144-1.12-2.659-2.119-.49-.927-.609-1.985-.357-3.176.237-1.028.813-1.889 1.726-2.578C-.743-6.451.535-6.838 2.06-6.838m0-5.653c-.699 0-.978.301-.978 1.002v2.153c0 .989-.303 1.859-2.166 1.859h-.781v-4.713c0-1.804.897-2.667 2.469-2.667h12.107v2.366z" style="fill:#6d6f71;fill-opacity:1;fill-rule:nonzero;stroke:none" transform="matrix(4.23211 0 0 -4.23211 265.688 56.515)"/><path d="M0 0c0 .99-.302 1.859-2.164 1.859h-.783v-15.327H0Z" style="fill:#6d6f71;fill-opacity:1;fill-rule:nonzero;stroke:none" transform="matrix(4.23211 0 0 -4.23211 1043.633 38.537)"/><path d="M425.238 416.658h12.22v-7.973h-12.22z" style="fill:#6d6f71;fill-opacity:1;fill-rule:nonzero;stroke:none;stroke-width:3.17409" transform="matrix(1.33333 0 0 -1.33333 468.88 608.673)"/><path d="M0 0v-5.673c0-.697.28-1 .978-1H11.63v-2.366H-.478c-1.572 0-2.469.863-2.469 2.669v8.231h.781C-.304 1.861 0 .99 0 0" style="fill:#6d6f71;fill-opacity:1;fill-rule:nonzero;stroke:none" transform="matrix(4.23211 0 0 -4.23211 990.719 42.12)"/><path d="M415.84 432.19h-33.814v-7.635h33.814z" style="fill:#6d6f71;fill-opacity:1;fill-rule:nonzero;stroke:none;stroke-width:3.17409" transform="matrix(1.33333 0 0 -1.33333 468.88 608.673)"/><path d="M0 0v-1.964c0-.701.279-1.002.979-1.002H11.63v-2.366H-.478c-1.572 0-2.469.863-2.469 2.667v4.524h.781C-.304 1.859 0 .99 0 0" style="fill:#6d6f71;fill-opacity:1;fill-rule:nonzero;stroke:none" transform="matrix(4.23211 0 0 -4.23211 995.7 96.828)"/><path d="m0 0-2.089 3.619V0H-3.87v7.706h1.781V4.305L.023 7.706h2.158L-.365 3.995 2.306 0Z" style="fill:#6d6f71;fill-opacity:1;fill-rule:nonzero;stroke:none" transform="matrix(4.23211 0 0 -4.23211 274.047 171.027)"/><path d="M0 0c-.925 0-1.804-.719-1.804-2.328 0-1.485.548-2.42 1.769-2.42.846 0 1.839.627 1.839 2.373C1.804-.822 1.176 0 0 0m-.137-6.382c-2.386 0-3.551 1.485-3.551 3.904 0 2.512 1.725 4.099 3.825 4.099 2.032 0 3.551-1.175 3.551-3.881 0-2.535-1.69-4.122-3.825-4.122" style="fill:#6d6f71;fill-opacity:1;fill-rule:nonzero;stroke:none" transform="matrix(4.23211 0 0 -4.23211 301.395 144.646)"/><path d="M0 0c-.183 0-.388-.014-.491-.023v-1.976c.092-.013.274-.023.446-.023.753 0 1.233.399 1.233 1.049C1.188-.367.833 0 0 0m1.404-6.304L-.422-3.289h-.069v-3.015h-1.78v7.706c.65.046 1.483.058 2.408.058 1.815 0 2.911-.651 2.911-2.284 0-1.039-.673-1.883-1.701-2.134.206-.298.411-.582.594-.868l1.632-2.478z" style="fill:#6d6f71;fill-opacity:1;fill-rule:nonzero;stroke:none" transform="matrix(4.23211 0 0 -4.23211 335.167 144.348)"/><path d="M0 0v7.706h4.338V6.21H1.781V4.681h2.42v-1.45h-2.42V1.53h2.557V0Z" style="fill:#6d6f71;fill-opacity:1;fill-rule:nonzero;stroke:none" transform="matrix(4.23211 0 0 -4.23211 357.634 171.027)"/><path d="M0 0c-.148.434-.274.823-.354 1.28h-.022A10.486 10.486 0 0 0-.742-.091l-.503-1.45H.537zm1.461-4.372L.982-2.943h-2.66l-.468-1.429h-1.77l2.603 7.706H.708l2.706-7.706z" style="fill:#6d6f71;fill-opacity:1;fill-rule:nonzero;stroke:none" transform="matrix(4.23211 0 0 -4.23211 398.944 152.523)"/><path d="M0 0c-.183 0-.388-.014-.491-.023v-1.976c.092-.013.274-.023.446-.023.753 0 1.233.399 1.233 1.049C1.188-.367.833 0 0 0m1.404-6.304L-.422-3.289h-.069v-3.015h-1.781v7.706c.651.046 1.484.058 2.409.058 1.816 0 2.911-.651 2.911-2.284 0-1.039-.673-1.883-1.701-2.134.205-.298.411-.582.594-.868l1.633-2.478z" style="fill:#6d6f71;fill-opacity:1;fill-rule:nonzero;stroke:none" transform="matrix(4.23211 0 0 -4.23211 444.795 144.348)"/><path d="M0 0v7.706h4.338V6.21H1.781V4.681h2.42v-1.45h-2.42V1.53h2.557V0Z" style="fill:#6d6f71;fill-opacity:1;fill-rule:nonzero;stroke:none" transform="matrix(4.23211 0 0 -4.23211 467.264 171.027)"/><path d="M0 0v3.208h-2.82V0h-1.781v7.706h1.781V4.749H0v2.957h1.781V0Z" style="fill:#6d6f71;fill-opacity:1;fill-rule:nonzero;stroke:none" transform="matrix(4.23211 0 0 -4.23211 514.565 171.027)"/><path d="M0 0c-.148.434-.274.823-.354 1.28h-.023A10.023 10.023 0 0 0-.742-.091l-.502-1.45h1.78zm1.462-4.372L.981-2.943h-2.659l-.468-1.429h-1.77l2.603 7.706H.708l2.705-7.706z" style="fill:#6d6f71;fill-opacity:1;fill-rule:nonzero;stroke:none" transform="matrix(4.23211 0 0 -4.23211 545.677 152.523)"/><path d="M0 0c-.092 0-.457 0-.594-.011v-1.815c.149-.024.41-.033.685-.033.788 0 1.233.363 1.233.957C1.324-.309.833 0 0 0m.148 3.037c-.274 0-.525-.012-.742-.021V1.324c.149-.011.32-.011.526-.011.867 0 1.289.353 1.289.936 0 .492-.33.788-1.073.788M.057-3.311c-.457 0-1.313.023-2.432.023v7.695c.708.034 1.861.057 2.809.057 1.677 0 2.671-.651 2.671-1.941 0-.719-.457-1.371-1.119-1.668V.823C2.773.617 3.23-.114 3.23-.879c0-1.233-.902-2.432-3.173-2.432" style="fill:#6d6f71;fill-opacity:1;fill-rule:nonzero;stroke:none" transform="matrix(4.23211 0 0 -4.23211 577.133 157.11)"/><path d="M98.11 352.694h5.654v-24.46H98.11z" style="fill:#6d6f71;fill-opacity:1;fill-rule:nonzero;stroke:none;stroke-width:3.17409" transform="matrix(1.33333 0 0 -1.33333 468.88 608.673)"/><path d="M0 0v7.706h1.781V1.575h2.328V0Z" style="fill:#6d6f71;fill-opacity:1;fill-rule:nonzero;stroke:none" transform="matrix(4.23211 0 0 -4.23211 617.33 171.027)"/><path d="M130.143 352.694h5.653v-24.46h-5.653z" style="fill:#6d6f71;fill-opacity:1;fill-rule:nonzero;stroke:none;stroke-width:3.17409" transform="matrix(1.33333 0 0 -1.33333 468.88 608.673)"/><path d="M0 0v-6.188h-1.77V0h-1.849v1.519H1.85V0Z" style="fill:#6d6f71;fill-opacity:1;fill-rule:nonzero;stroke:none" transform="matrix(4.23211 0 0 -4.23211 673.133 144.84)"/><path d="M0 0c-.149.434-.274.823-.354 1.28h-.023A10.32 10.32 0 0 0-.742-.091l-.503-1.45H.536zm1.461-4.372-.48 1.429h-2.66l-.467-1.429h-1.77l2.603 7.706h2.02l2.706-7.706z" style="fill:#6d6f71;fill-opacity:1;fill-rule:nonzero;stroke:none" transform="matrix(4.23211 0 0 -4.23211 700.385 152.523)"/><path d="M0 0v-6.188h-1.771V0h-1.848v1.519H1.85V0Z" style="fill:#6d6f71;fill-opacity:1;fill-rule:nonzero;stroke:none" transform="matrix(4.23211 0 0 -4.23211 732.948 144.84)"/><path d="M209.829 352.694h5.653v-24.46h-5.653z" style="fill:#6d6f71;fill-opacity:1;fill-rule:nonzero;stroke:none;stroke-width:3.17409" transform="matrix(1.33333 0 0 -1.33333 468.88 608.673)"/><path d="M0 0c-.925 0-1.804-.719-1.804-2.328 0-1.485.548-2.42 1.77-2.42.845 0 1.838.627 1.838 2.373C1.804-.822 1.176 0 0 0m-.138-6.382c-2.385 0-3.55 1.485-3.55 3.904 0 2.512 1.724 4.099 3.825 4.099 2.032 0 3.551-1.175 3.551-3.881 0-2.535-1.69-4.122-3.826-4.122" style="fill:#6d6f71;fill-opacity:1;fill-rule:nonzero;stroke:none" transform="matrix(4.23211 0 0 -4.23211 780.345 144.646)"/><path d="m0 0-1.814 3.322a15.534 15.534 0 0 0-.8 1.692c.034-.574.057-1.349.057-2.079V0H-4.27v7.706h2.284l1.69-3.049c.342-.638.661-1.301.936-1.893C.582 3.425.56 4.44.56 5.172v2.534h1.712V0Z" style="fill:#6d6f71;fill-opacity:1;fill-rule:nonzero;stroke:none" transform="matrix(4.23211 0 0 -4.23211 822.571 171.027)"/><path d="M0 0c-.148.434-.273.823-.354 1.28h-.022A10.18 10.18 0 0 0-.742-.091l-.502-1.45H.537zm1.462-4.372-.48 1.429h-2.66l-.468-1.429h-1.77l2.603 7.706H.708l2.706-7.706z" style="fill:#6d6f71;fill-opacity:1;fill-rule:nonzero;stroke:none" transform="matrix(4.23211 0 0 -4.23211 870.595 152.523)"/><path d="M0 0a5.585 5.585 0 0 1-2.044.388c-1.461 0-2.397-.925-2.397-2.43 0-1.43.753-2.318 2.192-2.318.273 0 .525.033.73.101v2.525H.263v-3.735c-.754-.307-1.713-.503-2.706-.503-2.5 0-3.916 1.451-3.916 3.791 0 2.454 1.678 4.157 4.418 4.157.777 0 1.564-.139 2.214-.332z" style="fill:#6d6f71;fill-opacity:1;fill-rule:nonzero;stroke:none" transform="matrix(4.23211 0 0 -4.23211 915.628 146.286)"/><path d="M0 0v7.706h4.338V6.21H1.78V4.681H4.2v-1.45H1.78V1.53h2.558V0Z" style="fill:#6d6f71;fill-opacity:1;fill-rule:nonzero;stroke:none" transform="matrix(4.23211 0 0 -4.23211 926.741 171.027)"/><path d="m0 0-1.815 3.322a15.513 15.513 0 0 0-.799 1.692c.034-.574.056-1.349.056-2.079V0h-1.713v7.706h2.284l1.69-3.049A37.5 37.5 0 0 0 .64 2.764C.582 3.425.56 4.44.56 5.172v2.534h1.711V0Z" style="fill:#6d6f71;fill-opacity:1;fill-rule:nonzero;stroke:none" transform="matrix(4.23211 0 0 -4.23211 972.641 171.027)"/><path d="M0 0c-2.843 0-3.607 1.93-3.607 3.676 0 2.5 1.358 4.19 3.904 4.19.536 0 1.096-.068 1.575-.193l-.205-1.61a5.178 5.178 0 0 1-1.404.205c-1.244 0-1.918-.902-1.918-2.295 0-1.519.616-2.352 2.009-2.352.399 0 .982.103 1.347.274L1.906.309A6.01 6.01 0 0 0 0 0" style="fill:#6d6f71;fill-opacity:1;fill-rule:nonzero;stroke:none" transform="matrix(4.23211 0 0 -4.23211 1006.317 171.46)"/><path d="M0 0v-2.695h-1.78v2.682l-2.409 5.024h1.941l.879-1.963c.205-.457.365-.858.49-1.233h.024c.148.434.365.901.593 1.392l.833 1.804h1.872z" style="fill:#6d6f71;fill-opacity:1;fill-rule:nonzero;stroke:none" transform="matrix(4.23211 0 0 -4.23211 1037.235 159.62)"/><path d="M0 0c0-13.051-10.58-23.628-23.63-23.628-13.051 0-23.63 10.577-23.63 23.628s10.579 23.629 23.63 23.629C-10.58 23.629 0 13.051 0 0" style="fill:#fff;fill-opacity:1;fill-rule:nonzero;stroke:none" transform="matrix(4.23211 0 0 -4.23211 200.01 100.002)"/><path d="M0 0c-3.755 8.082-11.942 13.684-21.439 13.684-9.499 0-17.686-5.604-21.44-13.684 5.689-4.266 13.195-7.205 21.44-7.205C-13.197-7.205-5.69-4.264 0 0" style="fill:#0d4e96;fill-opacity:1;fill-rule:nonzero;stroke:none" transform="matrix(4.23211 0 0 -4.23211 190.738 57.912)"/><path d="M0 0a23.624 23.624 0 0 1-.784-6.051c0-9.89 6.077-18.361 14.7-21.882v19.597C8.59-6.78 3.826-3.871 0 0" style="fill:#0d4e96;fill-opacity:1;fill-rule:nonzero;stroke:none" transform="matrix(4.23211 0 0 -4.23211 3.318 74.386)"/><path d="M0 0a4.484 4.484 0 0 1 0 8.967A4.483 4.483 0 1 1 0 0" style="fill:#f7931d;fill-opacity:1;fill-rule:nonzero;stroke:none" transform="matrix(4.23211 0 0 -4.23211 99.644 79.668)"/><g clip-path="url(#a)" transform="matrix(4.23211 0 0 -4.23211 -603.412 2103.842)"><path d="M172.919 470.356c-7.601-3.333-11.769-11.011-10.382-20.219 5.461 11.76 15.961 12.478 22.66 21.09.186.24.392.078.228-.184-5.738-9.162-14.19-8.994-20.464-21.147 0 0 .671-.04 1.248-.04 13.051 0 23.631 10.579 23.631 23.63a23.63 23.63 0 0 1-.799 6.091c-4.8-4.993-9.973-6.524-16.122-9.221" style="fill:url(#b);stroke:none"/></g></svg>