<svg xmlns="http://www.w3.org/2000/svg" width="276.744pt" height="37.185pt" viewBox="0 0 276.744 37.185"><path fill="#003686" d="M127.169 25.651h.698v2.364h1.936v-2.364h.698v5.538h-.698v-2.57h-1.936v2.57h-.698Z"/><clipPath id="a"><path d="M0 0h276.744v37.185H0Z"/></clipPath><g clip-path="url(#a)"><path fill="#003686" d="M134.451 30.317c0 .294.023.587.031.873h-.642l-.024-.603h-.016c-.214.459-.555.659-1.024.659-.706 0-1.18-.405-1.18-1.294v-2.808h.665v2.61c0 .642.238.92.667.92.523 0 .856-.366.856-1.095v-2.435h.667ZM135.418 28.015c0-.293-.024-.587-.032-.872h.642l.025.602h.015c.214-.459.556-.658 1-.658.428 0 .746.223.953.635.213-.396.523-.635.983-.635.698 0 1.175.404 1.175 1.293v2.81h-.667v-2.778c0-.517-.222-.754-.619-.754-.492 0-.762.302-.762 1.032v2.5h-.666v-2.778c0-.517-.223-.754-.619-.754-.492 0-.762.302-.762 1.032v2.5h-.666ZM143.24 29.206c-.12-.016-.287-.016-.47-.016-.785 0-1.158.373-1.158.84 0 .43.222.708.683.708.58 0 .944-.47.944-1.024Zm-1.938-1.786a2.169 2.169 0 0 1 1.143-.333c.596 0 .952.254 1.08.382.174.173.35.42.35.992v2.11c0 .237.014.475.03.618h-.603l-.04-.547h-.015c-.183.31-.516.604-1.135.604-.667 0-1.167-.39-1.167-1.167 0-.786.517-1.364 1.904-1.364h.39v-.184c0-.301-.024-.475-.15-.65-.136-.182-.398-.254-.675-.254-.413 0-.81.167-1.04.42ZM144.816 28.015c0-.293-.024-.587-.032-.872h.642l.025.602h.015c.214-.459.556-.658 1.024-.658.706 0 1.182.404 1.182 1.293v2.81h-.667v-2.61c0-.644-.238-.922-.666-.922-.524 0-.857.365-.857 1.095v2.436h-.666ZM151.368 28.111h.54c.745 0 1.03-.492 1.03-.977 0-.618-.404-.912-1.015-.912h-.555Zm-.698-2.46h1.42c.587 0 .912.144 1.166.381.286.27.413.651.413 1.055 0 .587-.279 1.15-1.095 1.325v.016c.333.063.491.222.603.54l.777 2.221h-.753l-.635-1.872c-.159-.46-.357-.635-.88-.635h-.318v2.507h-.698ZM156.777 28.857c0-.842-.262-1.262-.793-1.262-.429 0-.81.317-.826 1.262Zm-1.619.508c0 .935.365 1.372 1.103 1.372.333 0 .7-.167.928-.334l.032.604c-.317.15-.729.238-1.134.238-1.072 0-1.626-.81-1.626-2.079 0-1.27.554-2.079 1.562-2.079.912 0 1.42.731 1.42 1.92v.358ZM158.006 30.404c.302.183.619.302.952.302.508 0 .77-.261.77-.571 0-.277-.143-.47-.516-.635l-.444-.198c-.58-.263-.794-.524-.794-1.04 0-.667.516-1.174 1.302-1.174.333 0 .626.056.856.143l-.031.57a1.955 1.955 0 0 0-.794-.174c-.436 0-.666.238-.666.556 0 .325.238.508.682.682l.238.096c.492.197.8.53.8 1.03 0 .699-.372 1.255-1.3 1.255-.42 0-.801-.088-1.095-.238ZM162.543 30.706c.635 0 .929-.524.929-1.54s-.294-1.54-.929-1.54-.928.524-.928 1.54.293 1.54.928 1.54m0-3.62c1.071 0 1.627.81 1.627 2.08 0 1.269-.556 2.08-1.627 2.08s-1.627-.811-1.627-2.08c0-1.27.556-2.08 1.627-2.08M167.795 30.317c0 .294.023.587.03.873h-.641l-.024-.603h-.016c-.214.459-.555.659-1.024.659-.706 0-1.181-.405-1.181-1.294v-2.808h.666v2.61c0 .642.238.92.667.92.523 0 .856-.366.856-1.095v-2.435h.667ZM168.762 28.015c0-.293-.024-.587-.032-.872h.642l.025.635h.015c.214-.492.556-.69 1.15-.69v.657a1.387 1.387 0 0 0-.253-.023c-.516 0-.881.444-.881 1.325v2.142h-.666ZM173.49 27.85a1.493 1.493 0 0 0-.77-.192c-.65 0-1.11.453-1.11 1.547 0 .936.442 1.468 1.094 1.468.317 0 .587-.095.817-.214l.031.611a2.403 2.403 0 0 1-.848.175c-1.206 0-1.794-.897-1.794-2.04 0-1.31.683-2.118 1.81-2.118.277 0 .586.056.801.158ZM176.313 28.857c0-.842-.262-1.262-.793-1.262-.43 0-.81.317-.827 1.262Zm-1.62.508c0 .935.365 1.372 1.103 1.372.334 0 .7-.167.929-.334l.031.604c-.316.15-.728.238-1.133.238-1.072 0-1.626-.81-1.626-2.079 0-1.27.553-2.079 1.561-2.079.912 0 1.42.731 1.42 1.92v.358ZM177.541 30.404c.302.183.619.302.952.302.508 0 .77-.261.77-.571 0-.277-.143-.47-.516-.635l-.444-.198c-.579-.263-.794-.524-.794-1.04 0-.667.516-1.174 1.302-1.174.333 0 .626.056.856.143l-.031.57a1.955 1.955 0 0 0-.794-.174c-.436 0-.666.238-.666.556 0 .325.238.508.682.682l.238.096c.492.197.801.53.801 1.03 0 .699-.373 1.255-1.301 1.255-.42 0-.801-.088-1.095-.238ZM183.299 30.587h.42c1.223 0 1.857-.833 1.857-2.253 0-1.16-.492-2.08-1.856-2.08h-.421Zm-.698-4.936h1.206c.738 0 1.159.175 1.476.398.492.34 1.024 1.038 1.024 2.285 0 1.603-.762 2.856-2.841 2.856h-.865ZM189.225 28.857c0-.842-.262-1.262-.793-1.262-.43 0-.81.317-.826 1.262Zm-1.62.508c0 .935.366 1.372 1.104 1.372.333 0 .699-.167.928-.334l.032.604c-.317.15-.73.238-1.134.238-1.072 0-1.626-.81-1.626-2.079 0-1.27.554-2.079 1.562-2.079.912 0 1.42.731 1.42 1.92v.358ZM190.215 27.143h.73l.889 3.38h.016l.904-3.38h.698l-1.214 4.046h-.793ZM196.125 28.857c0-.842-.262-1.262-.793-1.262-.429 0-.81.317-.826 1.262Zm-1.619.508c0 .935.365 1.372 1.103 1.372.333 0 .699-.167.928-.334l.032.604c-.317.15-.729.238-1.134.238-1.072 0-1.626-.81-1.626-2.079 0-1.27.554-2.079 1.562-2.079.912 0 1.42.731 1.42 1.92v.358ZM197.592 25.239h.666v5.95h-.666ZM200.717 30.706c.635 0 .929-.524.929-1.54s-.294-1.54-.93-1.54c-.634 0-.927.524-.927 1.54s.293 1.54.928 1.54m0-3.62c1.07 0 1.627.81 1.627 2.08 0 1.269-.556 2.08-1.627 2.08s-1.627-.811-1.627-2.08c0-1.27.556-2.08 1.627-2.08M204.603 30.706c.611 0 .89-.524.89-1.54s-.279-1.54-.89-1.54c-.61 0-.889.524-.889 1.54s.279 1.54.89 1.54m-1.556-2.817c0-.247-.024-.5-.031-.746h.643l.024.595h.016c.174-.318.475-.651 1.063-.651.832 0 1.397.682 1.397 2.079 0 1.396-.565 2.08-1.398 2.08-.46 0-.762-.184-1.031-.611h-.017v2.269h-.666ZM206.927 28.015c0-.293-.024-.587-.032-.872h.642l.025.602h.015c.214-.459.556-.658 1-.658.428 0 .746.223.953.635.213-.396.523-.635.983-.635.698 0 1.175.404 1.175 1.293v2.81h-.667v-2.778c0-.517-.222-.754-.62-.754-.491 0-.761.302-.761 1.032v2.5h-.666v-2.778c0-.517-.223-.754-.62-.754-.491 0-.761.302-.761 1.032v2.5h-.666ZM214.772 28.857c0-.842-.262-1.262-.793-1.262-.43 0-.81.317-.827 1.262Zm-1.62.508c0 .935.366 1.372 1.104 1.372.333 0 .698-.167.928-.334l.031.604c-.316.15-.728.238-1.133.238-1.072 0-1.626-.81-1.626-2.079 0-1.27.554-2.079 1.562-2.079.911 0 1.42.731 1.42 1.92v.358ZM216.175 28.015c0-.293-.024-.587-.032-.872h.642l.025.602h.015c.214-.459.556-.658 1.024-.658.706 0 1.182.404 1.182 1.293v2.81h-.667v-2.61c0-.644-.238-.922-.666-.922-.524 0-.857.365-.857 1.095v2.436h-.666ZM221.783 31.142a1.886 1.886 0 0 1-.563.104c-.612 0-.937-.247-.937-.961v-2.602h-.643v-.54h.643v-.825l.667-.2v1.025h.833v.54h-.833v2.388c0 .46.118.635.42.635a.954.954 0 0 0 .413-.104ZM226.661 26.453a1.877 1.877 0 0 0-.944-.254c-.524 0-.866.358-.866.825 0 .357.143.579.937 1.039.856.493 1.143.976 1.143 1.61 0 .88-.548 1.572-1.61 1.572-.446 0-.866-.095-1.16-.237v-.723c.317.19.73.357 1.056.357.627 0 .983-.421.983-.873 0-.428-.11-.674-.856-1.127-1-.602-1.222-.943-1.222-1.658 0-.912.698-1.39 1.54-1.39.364 0 .753.08 1 .184ZM229.889 28.857c0-.842-.262-1.262-.793-1.262-.43 0-.81.317-.826 1.262Zm-1.62.508c0 .935.366 1.372 1.104 1.372.333 0 .699-.167.928-.334l.032.604c-.317.15-.73.238-1.134.238-1.072 0-1.626-.81-1.626-2.079 0-1.27.554-2.079 1.562-2.079.912 0 1.42.731 1.42 1.92v.358ZM231.292 28.015c0-.293-.024-.587-.032-.872h.642l.025.635h.015c.214-.492.556-.69 1.151-.69v.657a1.387 1.387 0 0 0-.254-.023c-.516 0-.881.444-.881 1.325v2.142h-.666ZM233.227 27.143h.73l.889 3.38h.016l.904-3.38h.698l-1.214 4.046h-.793ZM237.082 27.143h.666v4.046h-.666Zm.698-.873h-.73v-.793h.73ZM241.16 27.85a1.493 1.493 0 0 0-.77-.192c-.65 0-1.11.453-1.11 1.547 0 .936.442 1.468 1.094 1.468.317 0 .587-.095.817-.214l.031.611a2.403 2.403 0 0 1-.848.175c-1.206 0-1.794-.897-1.794-2.04 0-1.31.683-2.118 1.81-2.118.277 0 .586.056.801.158ZM243.982 28.857c0-.842-.262-1.262-.793-1.262-.429 0-.81.317-.826 1.262Zm-1.619.508c0 .935.365 1.372 1.103 1.372.333 0 .7-.167.928-.334l.032.604c-.317.15-.729.238-1.134.238-1.072 0-1.626-.81-1.626-2.079 0-1.27.554-2.079 1.562-2.079.912 0 1.42.731 1.42 1.92v.358ZM248.717 30.706c.635 0 .929-.524.929-1.54s-.294-1.54-.93-1.54c-.634 0-.927.524-.927 1.54s.293 1.54.928 1.54m0-3.62c1.07 0 1.627.81 1.627 2.08 0 1.269-.556 2.08-1.627 2.08s-1.627-.811-1.627-2.08c0-1.27.556-2.08 1.627-2.08M251.398 27.682h-.643v-.539h.643v-.906c0-.658.302-1.094 1.008-1.094.181 0 .373.024.523.063v.572c-.08-.064-.221-.096-.381-.096-.374 0-.483.207-.483.612v.85h.728v.538h-.728v3.507h-.667ZM255.268 25.651h.698v2.404h.017l1.832-2.404h.834l-2.08 2.618 2.254 2.92h-.905l-1.935-2.682h-.017v2.682h-.698ZM260.473 30.706c.635 0 .929-.524.929-1.54s-.294-1.54-.93-1.54c-.634 0-.927.524-.927 1.54s.293 1.54.928 1.54m0-3.62c1.07 0 1.627.81 1.627 2.08 0 1.269-.556 2.08-1.627 2.08s-1.627-.811-1.627-2.08c0-1.27.556-2.08 1.627-2.08M262.868 28.015c0-.293-.024-.587-.032-.872h.642l.025.635h.015c.214-.492.556-.69 1.151-.69v.657a1.387 1.387 0 0 0-.254-.023c-.516 0-.88.444-.88 1.325v2.142h-.667ZM267.334 28.857c0-.842-.262-1.262-.793-1.262-.429 0-.81.317-.826 1.262Zm-1.619.508c0 .935.365 1.372 1.103 1.372.333 0 .699-.167.928-.334l.032.604c-.317.15-.729.238-1.134.238-1.072 0-1.626-.81-1.626-2.079 0-1.27.554-2.079 1.562-2.079.912 0 1.42.731 1.42 1.92v.358ZM270.832 29.206c-.119-.016-.286-.016-.469-.016-.785 0-1.158.373-1.158.84 0 .43.223.708.683.708.579 0 .944-.47.944-1.024Zm-1.937-1.786a2.169 2.169 0 0 1 1.143-.333c.595 0 .952.254 1.079.382.175.173.35.42.35.992v2.11c0 .237.015.475.031.618h-.603l-.04-.547h-.015c-.183.31-.516.604-1.135.604-.667 0-1.166-.39-1.166-1.167 0-.786.516-1.364 1.904-1.364h.389v-.184c0-.301-.024-.475-.151-.65-.135-.182-.397-.254-.674-.254-.413 0-.81.167-1.04.42ZM118.272 3.472h-6.66c-1.362 0-2.398.664-3.285 1.556l-11.05 10.823a2.07 2.07 0 0 0 0 2.95l11.05 10.822c.886.893 1.922 1.558 3.285 1.558h6.66l-14.258-13.855ZM93.692 3.472h-3.96v27.71h6.046V5.556a2.07 2.07 0 0 0-2.086-2.085"/><path fill="#00a1e9" d="M24.33 3.472a3.69 3.69 0 0 0-3.69 3.688 3.686 3.686 0 0 0 3.69 3.69 3.686 3.686 0 0 0 3.687-3.69 3.69 3.69 0 0 0-3.688-3.688M7.792 3.472h-3.91v27.71h5.996V5.556a2.07 2.07 0 0 0-2.086-2.085M25.468 13.858h-12.78v3.912c0 1.166.92 2.086 2.085 2.086h6.787v9.239a2.07 2.07 0 0 0 2.086 2.087h3.906V15.944a2.07 2.07 0 0 0-2.084-2.086M63.708 10.85a3.686 3.686 0 0 0 3.689-3.689 3.691 3.691 0 0 0-3.689-3.689 3.692 3.692 0 0 0-3.691 3.69 3.687 3.687 0 0 0 3.691 3.687"/><path fill="#00a1e9" d="M71.821 3.472h-2.4v3.89c0 1.165.921 2.085 2.084 2.085l.316.001c4.201 0 7.62 3.94 7.62 8.14 0 4.2-3.419 7.616-7.62 7.616H66.48v-8.77a2.07 2.07 0 0 0-2.086-2.086h-3.91v16.833h11.338c7.494 0 13.594-6.1 13.594-13.594s-6.1-14.115-13.594-14.115M55.65 13.01v-.078c0-2.57-.819-5.18-2.337-6.7-1.789-1.787-4.475-2.76-7.939-2.76H32.917v27.71h5.996V8.88h5.955c2.918 0 4.707 1.793 4.707 4.36v.078c0 2.297-1.67 3.857-4.59 3.857l-3.945-.001a.776.776 0 0 0-.778.776c0 .193.07.375.184.509l9.09 11.164c.701.893 1.597 1.558 2.961 1.558h6.256l-8.555-9.883c3.312-1.362 5.451-4.004 5.451-8.29"/><path fill="#003686" d="M178.357 3.466h-2.736v13.801h2.736V9.69h2.625V7.984h-2.625ZM195.349 20.22h-5.996a.879.879 0 0 1-.88-.88v-1.258h6.876Zm0-3.84h-6.875v-2.032h-2.74v5.13a2.445 2.445 0 0 0 2.445 2.446h9.906v-7.576h-2.736ZM168.741 19.34v-4.182h-2.736v4.32a2.444 2.444 0 0 0 2.447 2.446h10.32V20.22h-9.15a.88.88 0 0 1-.88-.88M216.8 3.466h-2.736v13.801h2.736ZM232.79 5.49h-2.6v1.703h2.6V8.68h-2.6v1.703h2.6v3.531h2.736V3.466h-2.736ZM207.185 19.34v-4.182h-2.736v4.32a2.445 2.445 0 0 0 2.445 2.446h10.029V20.22h-8.861a.877.877 0 0 1-.877-.88M168.72 10.208c1.014 1.331 2.656 2.566 5.037 3.097v-1.714c-3.85-1.08-3.666-4.972-3.666-5.137V3.95h-2.74l.002 2.505c0 .165.18 4.056-3.668 5.137v1.714c2.379-.53 4.02-1.766 5.035-3.097M253.487 8.275v-2.13a2.456 2.456 0 0 0-2.453-2.444h-10.303v1.703h9.133a.893.893 0 0 1 .887.88v1.99c.002.407-.043 2.048-.758 2.87h-3.209V7.6h-2.736v3.545h-5.51v1.703h17.117v-1.703h-2.93c.717-.823.762-2.464.762-2.87"/><path fill="#003686" d="M231.204 13.102v-1.704c-.648.363-2.719.37-2.719.37l-4.19.001a.88.88 0 0 1-.88-.879V9.45h5.754l-.002-3.72a1.78 1.78 0 0 0-1.783-1.78h-6.707V5.65h5.123a.64.64 0 0 1 .625.64l.004 1.454h-5.752v3.282a2.444 2.444 0 0 0 2.445 2.445h5.363s2.071-.008 2.72-.37M159.698 7.59V6.146a2.446 2.446 0 0 0-2.447-2.445H146.83v1.703l9.248-.001c.486 0 .881.396.881.88V7.59c.002.39-.039 1.929-.68 2.777h-11.646v1.702h7.19v2.9h-4.993v1.703h9.265a.88.88 0 0 1 .868.88v4.372h2.736v-4.51a2.445 2.445 0 0 0-2.445-2.445h-2.692v-2.9h7.19v-1.702h-2.739c.643-.848.686-2.386.686-2.777M233.081 14.969h-9.14v1.703h7.982a.88.88 0 0 1 .867.88v4.372h2.736v-4.51a2.443 2.443 0 0 0-2.445-2.445M140.782 3.466h-2.738v13.801h2.738V9.69h2.627V7.984h-2.627ZM128.733 8.664c0-1.48.994-2.678 2.225-2.678 1.228 0 2.222 1.199 2.222 2.678 0 1.48-.994 2.68-2.222 2.68-1.23 0-2.225-1.2-2.225-2.68m7.186 0c0-1.096-.459-2.096-1.213-2.865h1.502V4.096h-3.883V2.613h-2.737v1.483h-3.88v1.703h1.5c-.752.769-1.213 1.769-1.213 2.865 0 2.42 2.222 4.382 4.963 4.382 2.74 0 4.961-1.961 4.961-4.382M131.169 19.34v-4.182h-2.738v4.32a2.445 2.445 0 0 0 2.447 2.446H141.2V20.22h-9.152a.879.879 0 0 1-.879-.88M271.565 7.984V3.466h-2.74v7.992c-.754.304-2.586.31-2.586.31l-4.908.002a.878.878 0 0 1-.879-.88V6.26a.64.64 0 0 1 .623-.61h5.011V3.95h-6.593c-.983 0-1.782.797-1.782 1.782v5.296a2.445 2.445 0 0 0 2.448 2.446h6.08s1.832-.007 2.586-.311v4.105h2.74V9.69h2.625V7.984ZM261.952 19.34v-4.182h-2.736v4.32a2.444 2.444 0 0 0 2.445 2.446h10.322V20.22h-9.15a.88.88 0 0 1-.88-.88M247.107 20.736c-1.656 0-2.994-1.149-2.994-2.568s1.338-2.569 2.994-2.569c1.651 0 2.994 1.15 2.994 2.57 0 1.418-1.343 2.567-2.994 2.567m0-6.84c-3.166 0-5.732 1.912-5.732 4.272 0 2.36 2.566 4.272 5.732 4.272 3.163 0 5.732-1.913 5.732-4.272 0-2.36-2.569-4.272-5.732-4.272M204.208 8.406c0-1.582 1.104-2.863 2.465-2.863 1.363 0 2.467 1.281 2.467 2.863s-1.104 2.863-2.467 2.863c-1.361 0-2.465-1.281-2.465-2.863m7.668-.001c0-2.522-2.328-4.565-5.203-4.565-2.873 0-5.203 2.043-5.203 4.565 0 2.522 2.33 4.567 5.203 4.567 2.875 0 5.203-2.045 5.203-4.567M187.749 10.888c-1.244 0-2.25-1.198-2.25-2.673 0-1.478 1.006-2.673 2.25-2.673 1.242 0 2.252 1.195 2.252 2.673 0 1.475-1.01 2.673-2.252 2.673m7.6-3.524h-2.709c-.452-2.01-2.471-3.525-4.893-3.525-2.752 0-4.986 1.96-4.986 4.377 0 2.415 2.234 4.374 4.986 4.374 2.424 0 4.441-1.516 4.893-3.524h2.709v4.143h2.736V3.466h-2.736Z"/></g></svg>