<svg xmlns="http://www.w3.org/2000/svg" width="588.23584pt" height="104.47125pt" viewBox="0 0 588.23582 104.47125"><path fill="#456e33" d="m139.016 92.468 5.745 7.636h-2.2l-5.496-7.619 5.54-6.777h2.206zm-3.775-6.76h1.74v14.396h-1.74zM155.759 92.045c-.224-.462-.539-.803-.953-1.014a2.716 2.716 0 0 0-1.272-.326c-.457 0-.885.102-1.278.304-.39.204-.674.478-.86.821-.168.324-.288.7-.378 1.133-.084.437-.123.962-.123 1.594 0 .738.054 1.416.171 2.018.122.61.284 1.077.473 1.395.198.313.488.574.874.758.386.191.797.29 1.249.29.542 0 1.021-.138 1.404-.41.396-.275.684-.663.86-1.165.117-.32.196-.647.244-.988.05-.33.073-.758.073-1.27 0-1.438-.161-2.488-.484-3.14m2.016 5.302c-.225.66-.535 1.216-.933 1.67a3.902 3.902 0 0 1-1.418 1.014c-.541.23-1.147.35-1.805.35-1.439 0-2.553-.498-3.338-1.492-.783-.993-1.169-2.35-1.169-4.074 0-1.703.392-3.039 1.184-4.016.788-.973 1.88-1.46 3.26-1.46.881 0 1.612.18 2.184.526.572.35 1.044.784 1.406 1.303.328.471.561 1.027.726 1.657.156.621.233 1.374.233 2.225 0 .864-.112 1.633-.33 2.297M169.171 91.226a1.252 1.252 0 0 0-.465-.078c-.658 0-1.238.249-1.745.757-.232.227-.398.465-.479.675-.079.223-.123.546-.123.98v6.544h-1.637v-8.055c0-.771-.119-1.511-.358-2.228l1.64-.438c.01.008.044.093.103.243.056.147.11.354.168.632.056.269.077.545.061.823a4.439 4.439 0 0 1 1.357-1.27c.525-.313 1.042-.472 1.58-.472.14 0 .33.033.568.106zM180.677 92.487a2.91 2.91 0 0 0-.347-.931c-.177-.287-.438-.51-.772-.682a2.447 2.447 0 0 0-1.115-.252c-1.523 0-2.33 1.097-2.412 3.294h4.786c-.013-.58-.058-1.057-.14-1.43m-4.646 2.668v.25c0 .494.035.922.105 1.306.068.376.197.7.378.986.297.439.67.77 1.12.975.458.202.952.302 1.483.302.994 0 1.848-.326 2.556-.99l.632 1.048c-.464.43-.999.747-1.602.973a5.643 5.643 0 0 1-1.923.332c-1.452 0-2.59-.494-3.41-1.487-.82-.988-1.23-2.356-1.23-4.098 0-.881.098-1.626.298-2.24a5.04 5.04 0 0 1 .962-1.716c.834-.974 1.874-1.455 3.131-1.455 1.16 0 2.102.38 2.831 1.14.23.244.412.49.565.74.156.256.28.557.37.885.091.343.155.736.201 1.185.038.454.06.997.06 1.627v.237zM193.953 94.765c-.124-.006-.264-.015-.412-.015-.654 0-1.208.057-1.666.174-.462.115-.82.269-1.102.481a1.749 1.749 0 0 0-.6.789c-.124.315-.19.67-.19 1.058 0 1.274.598 1.905 1.788 1.905.527 0 1.02-.14 1.474-.448a2.884 2.884 0 0 0 1.042-1.186l.064-2.735c-.14-.01-.271-.018-.398-.023m1.967 5.735a1.83 1.83 0 0 1-.905-.576 2.204 2.204 0 0 1-.517-.951c-.505.502-.983.865-1.44 1.08-.46.214-.983.328-1.582.328-.643 0-1.188-.094-1.618-.277a2.938 2.938 0 0 1-1.035-.695 2.342 2.342 0 0 1-.55-.956 3.797 3.797 0 0 1-.158-1.069c0-1.19.483-2.117 1.442-2.773.966-.665 2.323-.993 4.083-.993.22 0 .463.006.727.02V92.9c0-.46-.013-.816-.047-1.042a1.147 1.147 0 0 0-.285-.606 1.568 1.568 0 0 0-.59-.426 2.156 2.156 0 0 0-.814-.139c-.296 0-.604.037-.924.107a5.679 5.679 0 0 0-.934.285c-.305.114-.582.25-.841.401a3.39 3.39 0 0 0-.641.45l-.818-1.179c1.398-.939 2.859-1.412 4.384-1.412 1.489 0 2.462.545 2.918 1.644.114.282.18.617.21 1.012.028.397.038.831.02 1.305l-.085 3.45c-.006.426-.006.775 0 1.057.017.285.052.517.118.704.065.19.152.351.269.475.104.132.26.241.455.339zM223.435 100.104l-.841-10.556c-.017-.218-.025-.476-.044-.765a18.309 18.309 0 0 1-.029-.805 72.49 72.49 0 0 0-.026-.88c-.02.029-.048.152-.096.378-.052.219-.121.51-.218.877-.089.365-.172.702-.261 1.012l-3.081 10.739h-1.474l-2.851-10.22c-.234-.81-.475-1.75-.712-2.808-.032.419-.052.78-.064 1.069-.015.295-.032.599-.052.91-.017.316-.036.592-.047.81l-.805 10.239h-1.653l1.256-14.396h2.517l2.626 9.404c.199.702.38 1.538.569 2.518.038-.264.084-.507.129-.724.052-.22.108-.467.177-.754.064-.286.128-.582.217-.875l2.708-9.57h2.534l1.241 14.397zM237.888 92.045c-.226-.462-.54-.803-.95-1.014a2.738 2.738 0 0 0-2.552-.022c-.39.204-.682.478-.863.821-.167.324-.289.7-.375 1.133a8.846 8.846 0 0 0-.123 1.594c0 .738.056 1.416.17 2.018.127.61.281 1.077.478 1.395.192.313.487.574.87.758a2.78 2.78 0 0 0 1.247.29c.546 0 1.013-.138 1.41-.41.387-.275.673-.663.855-1.165.112-.32.19-.647.24-.988a8.28 8.28 0 0 0 .082-1.27c0-1.438-.165-2.488-.489-3.14m2.018 5.302c-.228.66-.539 1.216-.933 1.67a3.843 3.843 0 0 1-1.42 1.014 4.62 4.62 0 0 1-1.804.35c-1.446 0-2.558-.498-3.336-1.492-.785-.993-1.177-2.35-1.177-4.074 0-1.703.4-3.039 1.19-4.016.79-.973 1.875-1.46 3.26-1.46.884 0 1.61.18 2.181.526.575.35 1.046.784 1.41 1.303.323.471.556 1.027.722 1.657.161.621.238 1.374.238 2.225 0 .864-.11 1.633-.33 2.297M254.242 100.546c-.354-.279-.611-.54-.783-.784a2.422 2.422 0 0 1-.36-.89c-.797 1.052-1.904 1.591-3.326 1.591-.667 0-1.238-.132-1.713-.396a2.534 2.534 0 0 1-1.041-1.094 2.337 2.337 0 0 1-.207-.696 5.184 5.184 0 0 1-.066-.858v-7.682l1.635-.31v7.505c0 .493.047.865.139 1.13.08.256.254.471.49.632.167.116.36.205.586.264.218.068.449.1.69.1.513 0 1.01-.176 1.5-.514a3.527 3.527 0 0 0 1.149-1.377v-7.409l1.639-.272v7.618c0 .66.053 1.15.157 1.483.106.324.292.606.555.847zM267.708 100.104v-7.07c0-.281-.004-.506-.015-.692a5.047 5.047 0 0 0-.062-.462 1.222 1.222 0 0 0-.121-.324 1.708 1.708 0 0 0-.174-.26c-.254-.296-.63-.446-1.147-.446-.203 0-.438.04-.696.12a4.281 4.281 0 0 0-.767.31 6.103 6.103 0 0 0-.758.472 4.3 4.3 0 0 0-.64.57v7.782h-1.641v-8.055a6.31 6.31 0 0 0-.4-2.21l1.587-.435c.017.012.057.089.107.233.055.14.115.338.18.6.064.253.097.525.097.805 1.075-1.077 2.167-1.616 3.283-1.616.57 0 1.092.137 1.546.413.467.289.797.657 1.008 1.117.167.377.254.784.254 1.213v7.935zM280.523 90.89h-2.178v6.74c0 .588.094.996.285 1.219.18.224.543.328 1.06.328.238 0 .427-.012.58-.051a2.86 2.86 0 0 0 .451-.153l.23 1.049c-.534.282-1.148.421-1.845.421-.282 0-.53-.025-.753-.078a2.932 2.932 0 0 1-.62-.215c-.372-.184-.638-.447-.795-.781-.152-.338-.227-.767-.227-1.299v-7.18h-1.364v-1.232h1.364a29.004 29.004 0 0 1 .07-1.701c.023-.268.06-.582.101-.945l1.734-.375c-.034.362-.076.687-.107.982a44.16 44.16 0 0 0-.07.976c-.02.353-.03.716-.03 1.063h2.626zM291.675 94.765c-.128-.006-.264-.015-.414-.015-.649 0-1.206.057-1.665.174-.453.115-.818.269-1.103.481a1.738 1.738 0 0 0-.598.789c-.133.315-.192.67-.192 1.058 0 1.274.6 1.905 1.786 1.905.534 0 1.03-.14 1.478-.448a2.82 2.82 0 0 0 1.036-1.186l.071-2.735c-.142-.01-.275-.018-.399-.023m1.967 5.735a1.926 1.926 0 0 1-.91-.576 2.186 2.186 0 0 1-.514-.951c-.506.502-.986.865-1.442 1.08-.455.214-.98.328-1.58.328-.648 0-1.184-.094-1.609-.277-.44-.182-.788-.417-1.047-.695a2.421 2.421 0 0 1-.549-.956 4.027 4.027 0 0 1-.158-1.069c0-1.19.488-2.117 1.445-2.773.968-.665 2.325-.993 4.084-.993.21 0 .463.006.726.02V92.9c0-.46-.014-.816-.052-1.042a1.198 1.198 0 0 0-.276-.606 1.587 1.587 0 0 0-.59-.426 2.202 2.202 0 0 0-.822-.139 4.3 4.3 0 0 0-.92.107 5.632 5.632 0 0 0-.935.285c-.299.114-.584.25-.842.401a3.56 3.56 0 0 0-.64.45l-.819-1.179c1.4-.939 2.864-1.412 4.395-1.412 1.483 0 2.446.545 2.907 1.644.111.282.181.617.205 1.012.032.397.044.831.03 1.305l-.087 3.45c-.01.426-.01.775 0 1.057.018.285.05.517.117.704.061.19.153.351.26.475.112.132.263.241.467.339zM301.035 100.104V89.7l1.692-.275v10.678zm1.79-12.764a1.248 1.248 0 0 1-.908.369c-.372 0-.674-.126-.915-.37a1.211 1.211 0 0 1-.37-.897c0-.363.118-.664.37-.92a1.21 1.21 0 0 1 .915-.376c.357 0 .663.123.908.368.24.243.366.544.366.912 0 .357-.125.666-.366.914M316.096 100.104v-7.07c0-.281-.01-.506-.024-.692a3.674 3.674 0 0 0-.056-.462 1.259 1.259 0 0 0-.12-.324 1.512 1.512 0 0 0-.174-.26c-.256-.296-.63-.446-1.146-.446-.206 0-.437.04-.7.12a4.515 4.515 0 0 0-.765.31 6.02 6.02 0 0 0-.757.472 4.35 4.35 0 0 0-.645.57v7.782h-1.635v-8.055a6.29 6.29 0 0 0-.403-2.21l1.6-.435c.01.012.043.089.098.233.054.14.112.338.176.6.067.253.1.525.1.805 1.07-1.077 2.171-1.616 3.287-1.616.563 0 1.087.137 1.546.413.46.289.79.657 1.004 1.117.162.377.253.784.253 1.213v7.935zM331.005 92.487a2.887 2.887 0 0 0-.347-.931 1.995 1.995 0 0 0-.77-.682 2.515 2.515 0 0 0-1.12-.252c-1.523 0-2.328 1.097-2.41 3.294h4.783a8.357 8.357 0 0 0-.136-1.43m-4.646 2.668v.25c0 .494.036.922.103 1.306.07.376.199.7.374.986.297.439.677.77 1.128.975.453.202.946.302 1.478.302.99 0 1.846-.326 2.564-.99l.623 1.048a4.66 4.66 0 0 1-1.604.973 5.58 5.58 0 0 1-1.918.332c-1.455 0-2.59-.494-3.412-1.487-.817-.988-1.226-2.356-1.226-4.098 0-.881.1-1.626.293-2.24a4.962 4.962 0 0 1 .969-1.716c.823-.974 1.863-1.455 3.12-1.455 1.16 0 2.106.38 2.843 1.14.22.244.407.49.55.74.16.256.29.557.379.885.087.343.156.736.199 1.185.04.454.06.997.06 1.627v.237zM345.297 92.487a2.983 2.983 0 0 0-.346-.931c-.183-.287-.446-.51-.78-.682a2.44 2.44 0 0 0-1.11-.252c-1.528 0-2.33 1.097-2.416 3.294h4.788c-.017-.58-.06-1.057-.136-1.43m-4.652 2.668v.25c0 .494.035.922.109 1.306.066.376.198.7.378.986.29.439.672.77 1.125.975.454.202.94.302 1.472.302.995 0 1.85-.326 2.563-.99l.627 1.048c-.462.43-.997.747-1.601.973-.613.22-1.25.332-1.922.332-1.453 0-2.59-.494-3.412-1.487-.82-.988-1.224-2.356-1.224-4.098 0-.881.1-1.626.29-2.24a5.041 5.041 0 0 1 .969-1.716c.822-.974 1.868-1.455 3.125-1.455 1.16 0 2.107.38 2.838 1.14.223.244.406.49.559.74.156.256.278.557.372.885.09.343.156.736.197 1.185.049.454.062.997.062 1.627v.237zM358.127 91.226a1.23 1.23 0 0 0-.461-.078c-.66 0-1.242.249-1.743.757a1.983 1.983 0 0 0-.477.675c-.086.223-.134.546-.134.98v6.544h-1.631v-8.055c0-.771-.125-1.511-.363-2.228l1.64-.438c.01.008.053.093.102.243.058.147.116.354.168.632.057.269.077.545.065.823a4.569 4.569 0 0 1 1.354-1.27c.523-.313 1.057-.472 1.585-.472.136 0 .333.033.566.106zM363.837 100.104V89.7l1.698-.275v10.678zm1.792-12.764a1.265 1.265 0 0 1-.923.369c-.35 0-.66-.126-.91-.37a1.26 1.26 0 0 1-.356-.897c0-.363.119-.664.356-.92.25-.251.56-.376.91-.376a1.256 1.256 0 0 1 1.29 1.28c0 .357-.128.666-.367.914M378.902 100.104v-7.07a7.53 7.53 0 0 0-.022-.692 4.938 4.938 0 0 0-.065-.462.999.999 0 0 0-.113-.324 1.332 1.332 0 0 0-.178-.26c-.25-.296-.627-.446-1.14-.446-.21 0-.44.04-.694.12a3.985 3.985 0 0 0-.774.31 6.03 6.03 0 0 0-.758.472c-.247.186-.465.37-.646.57v7.782h-1.63v-8.055a6.43 6.43 0 0 0-.404-2.21l1.591-.435c.017.012.053.089.108.233.055.14.113.338.173.6.064.253.1.525.1.805 1.073-1.077 2.17-1.616 3.288-1.616.561 0 1.082.137 1.54.413a2.56 2.56 0 0 1 1.007 1.117c.17.377.25.784.25 1.213v7.935zM392.392 91.3c-.29-.345-.778-.512-1.48-.512-1.307 0-1.962.721-1.962 2.163 0 .668.169 1.187.499 1.54.334.357.84.538 1.506.538 1.255 0 1.88-.716 1.88-2.144 0-.716-.15-1.246-.443-1.585m3.278-.247a2.64 2.64 0 0 1-.882.13c-.297 0-.531-.035-.71-.12.413.528.623 1.13.623 1.781 0 .588-.131 1.137-.411 1.646-.27.514-.655.92-1.14 1.227a2.769 2.769 0 0 1-.894.356 4.85 4.85 0 0 1-1.06.106c-.707.252-1.206.475-1.482.662-.271.19-.405.37-.405.558 0 .34.282.501.833.501h1.685c.614 0 1.108.046 1.48.132.37.08.715.233 1.039.458.412.283.72.61.91.983.188.37.28.782.28 1.231 0 1.142-.37 1.976-1.117 2.502-.748.538-1.76.803-3.03.803-.828 0-1.527-.072-2.101-.207-.574-.145-1.04-.336-1.4-.567-.356-.244-.616-.518-.783-.842a2.26 2.26 0 0 1-.251-1.053c0-.193.013-.373.057-.543.03-.17.08-.354.146-.567l1.725-.149c-.068.115-.138.26-.195.43a1.512 1.512 0 0 0-.102.518c0 .561.209.965.617 1.215.246.155.56.277.93.355.37.09.768.128 1.187.128.809 0 1.44-.14 1.88-.423.439-.278.656-.738.656-1.4 0-.589-.187-1.01-.563-1.258-.2-.14-.462-.238-.79-.29a7.234 7.234 0 0 0-1.27-.092h-.397c-.143 0-.287.004-.445.013-.155.002-.294.014-.44.014h-.33c-.631 0-1.115-.14-1.458-.402-.35-.263-.515-.638-.515-1.12 0-.416.137-.765.407-1.039.273-.275.77-.52 1.478-.742-.707-.228-1.28-.616-1.707-1.163a2.92 2.92 0 0 1-.642-1.868c0-.517.093-.992.282-1.428a3.28 3.28 0 0 1 .785-1.125 3.28 3.28 0 0 1 1.209-.726 4.602 4.602 0 0 1 1.564-.252c.388 0 .715.03.982.093.268.064.5.135.722.198.21.068.43.132.655.198.224.065.492.097.817.097.273 0 .52-.037.738-.103a3.06 3.06 0 0 0 .7-.36l1.015 1.01a3.764 3.764 0 0 1-.882.494M418.367 97.964a4.158 4.158 0 0 1-1.448 1.533c-.466.308-.96.53-1.468.673a6.76 6.76 0 0 1-1.763.211 9.137 9.137 0 0 1-2.423-.314 8.378 8.378 0 0 1-2.193-.987l.758-1.34c.6.424 1.211.744 1.838.942a6.722 6.722 0 0 0 2.02.291c.546 0 .99-.043 1.325-.138.335-.096.655-.256.97-.493.678-.519 1.025-1.2 1.025-2.052 0-1.277-.864-2.17-2.58-2.69l-1.45-.443c-.662-.194-1.179-.38-1.562-.563a3.343 3.343 0 0 1-.999-.714c-.599-.644-.899-1.428-.899-2.354 0-.61.108-1.173.332-1.67a3.67 3.67 0 0 1 .942-1.3 4.266 4.266 0 0 1 1.475-.853 5.597 5.597 0 0 1 1.905-.309c1.521 0 2.974.461 4.348 1.386l-.762 1.241a11.03 11.03 0 0 0-.965-.57 5.972 5.972 0 0 0-.852-.376 4.106 4.106 0 0 0-.813-.21 6.087 6.087 0 0 0-.869-.066c-.91 0-1.617.213-2.123.632-.5.425-.754 1.005-.754 1.74 0 .587.184 1.06.55 1.415.366.341.977.656 1.833.94l1.644.523c.643.196 1.15.398 1.526.62.373.216.705.488 1.001.827.293.334.52.731.685 1.183.165.456.25.903.25 1.355a3.95 3.95 0 0 1-.504 1.93M432.7 100.546c-.35-.279-.61-.54-.783-.784a2.527 2.527 0 0 1-.355-.89c-.796 1.052-1.906 1.591-3.323 1.591-.672 0-1.243-.132-1.716-.396a2.509 2.509 0 0 1-1.04-1.094 2.425 2.425 0 0 1-.215-.696 6.156 6.156 0 0 1-.054-.858v-7.682l1.63-.31v7.505c0 .493.048.865.133 1.13.097.256.26.471.495.632.167.116.364.205.582.264.227.068.457.1.694.1.516 0 1.015-.176 1.505-.514.48-.347.868-.803 1.143-1.377v-7.409l1.643-.272v7.618c0 .66.051 1.15.156 1.483.102.324.285.606.554.847zM447.076 93.335a4.864 4.864 0 0 0-.354-1.268 1.93 1.93 0 0 0-.785-.852 2.31 2.31 0 0 0-1.145-.3c-1.057 0-1.986.492-2.792 1.471v5.266c.788.91 1.646 1.365 2.555 1.365.49 0 .932-.119 1.336-.362.396-.235.69-.547.868-.94.154-.339.263-.713.332-1.134.072-.419.111-.929.111-1.513 0-.629-.043-1.207-.126-1.733m1.668 3.597a5.468 5.468 0 0 1-.638 1.538c-.387.612-.839 1.085-1.384 1.415a3.52 3.52 0 0 1-1.848.496 4.036 4.036 0 0 1-1.57-.328 3.719 3.719 0 0 1-1.304-.897v5.001l-1.637.314V91.884c0-.797-.077-1.55-.233-2.247l1.677-.298c.07.5.102 1.05.102 1.64.867-1.02 1.898-1.535 3.087-1.535.53 0 1.051.106 1.537.341a3.27 3.27 0 0 1 1.26.957c.387.494.677 1.066.865 1.726.188.658.286 1.453.286 2.388 0 .84-.07 1.538-.2 2.076M462.264 93.335c-.08-.52-.198-.943-.354-1.268a1.886 1.886 0 0 0-.773-.852 2.358 2.358 0 0 0-1.157-.3c-1.047 0-1.978.492-2.787 1.471v5.266c.794.91 1.647 1.365 2.558 1.365a2.49 2.49 0 0 0 1.33-.362c.396-.235.689-.547.87-.94.154-.339.264-.713.335-1.134.072-.419.112-.929.112-1.513 0-.629-.045-1.207-.134-1.733m1.674 3.597a5.598 5.598 0 0 1-.642 1.538c-.378.612-.843 1.085-1.386 1.415a3.512 3.512 0 0 1-1.847.496 4.033 4.033 0 0 1-1.564-.328 3.85 3.85 0 0 1-1.306-.897v5.001l-1.64.314V91.884c0-.797-.081-1.55-.235-2.247L457 89.34c.069.5.104 1.05.104 1.64.873-1.02 1.898-1.535 3.083-1.535.53 0 1.052.106 1.544.341.49.221.917.534 1.248.957.39.494.687 1.066.875 1.726.18.658.283 1.453.283 2.388 0 .84-.068 1.538-.2 2.076M476.764 92.045c-.228-.462-.54-.803-.951-1.014a2.72 2.72 0 0 0-1.276-.326c-.454 0-.882.102-1.28.304-.382.204-.673.478-.86.821-.163.324-.285.7-.371 1.133a8.62 8.62 0 0 0-.128 1.594c0 .738.06 1.416.177 2.018.117.61.28 1.077.476 1.395.192.313.487.574.863.758.393.191.809.29 1.257.29.541 0 1.015-.138 1.4-.41.396-.275.682-.663.864-1.165.114-.32.19-.647.235-.988a7.93 7.93 0 0 0 .081-1.27c0-1.438-.161-2.488-.487-3.14m2.019 5.302c-.227.66-.537 1.216-.936 1.67-.395.447-.87.788-1.415 1.014a4.61 4.61 0 0 1-1.807.35c-1.439 0-2.556-.498-3.338-1.492-.781-.993-1.172-2.35-1.172-4.074 0-1.703.397-3.039 1.184-4.016.792-.973 1.881-1.46 3.264-1.46.881 0 1.613.18 2.182.526.576.35 1.046.784 1.406 1.303.323.471.559 1.027.724 1.657.163.621.24 1.374.24 2.225 0 .864-.111 1.633-.332 2.297M490.176 91.226a1.241 1.241 0 0 0-.463-.078c-.66 0-1.237.249-1.743.757a1.978 1.978 0 0 0-.479.675c-.084.223-.128.546-.128.98v6.544h-1.636v-8.055a7.04 7.04 0 0 0-.354-2.228l1.635-.438c.011.008.048.093.1.243.061.147.115.354.172.632.052.269.078.545.064.823a4.535 4.535 0 0 1 1.351-1.27c.525-.313 1.055-.472 1.585-.472.14 0 .33.033.567.106zM500.015 90.89h-2.178v6.74c0 .588.094.996.28 1.219.19.224.542.328 1.06.328.24 0 .43-.012.573-.051.153-.033.301-.087.453-.153l.236 1.049c-.532.282-1.15.421-1.85.421-.28 0-.525-.025-.748-.078a3.123 3.123 0 0 1-.623-.215c-.37-.184-.634-.447-.783-.781-.158-.338-.233-.767-.233-1.299v-7.18h-1.368v-1.232h1.368c0-.254 0-.538.015-.842.014-.31.035-.593.053-.86.025-.267.055-.581.097-.944l1.743-.375c-.044.362-.079.687-.11.982-.024.294-.051.623-.069.976-.02.353-.03.716-.03 1.063h2.618zM521.841 100.032a7.39 7.39 0 0 1-2.102.304c-.78 0-1.536-.165-2.259-.477a5.614 5.614 0 0 1-1.939-1.434 6.32 6.32 0 0 1-1.316-2.452 11.165 11.165 0 0 1-.399-3.021c0-1.067.15-2.054.45-2.958.3-.912.72-1.696 1.258-2.364a5.762 5.762 0 0 1 1.918-1.551 5.337 5.337 0 0 1 2.417-.557c.696 0 1.354.102 1.972.31a5.419 5.419 0 0 1 1.656.886l-.917 1.112a4.622 4.622 0 0 0-1.297-.694 4.69 4.69 0 0 0-1.436-.208c-.84 0-1.555.208-2.14.63-.587.413-1.059 1.037-1.408 1.84a7.062 7.062 0 0 0-.456 1.639c-.106.592-.153 1.329-.153 2.177 0 .695.037 1.277.107 1.725.07.456.19.89.357 1.315.364.9.891 1.572 1.583 2.016.692.44 1.454.66 2.28.66.53 0 1.015-.072 1.452-.22.44-.147.896-.384 1.357-.702l.923 1.149a7.068 7.068 0 0 1-1.908.875M535.11 92.487a2.82 2.82 0 0 0-.348-.931c-.175-.287-.441-.51-.766-.682a2.489 2.489 0 0 0-1.117-.252c-1.529 0-2.336 1.097-2.412 3.294h4.782c-.017-.58-.06-1.057-.139-1.43m-4.643 2.668v.25c0 .494.031.922.099 1.306.081.376.202.7.382.986.295.439.669.77 1.121.975.453.202.951.302 1.477.302.993 0 1.849-.326 2.563-.99l.632 1.048c-.464.43-.999.747-1.613.973a5.566 5.566 0 0 1-1.914.332c-1.455 0-2.592-.494-3.415-1.487-.813-.988-1.226-2.356-1.226-4.098 0-.881.1-1.626.296-2.24a4.956 4.956 0 0 1 .967-1.716c.829-.974 1.866-1.455 3.121-1.455 1.167 0 2.108.38 2.839 1.14.222.244.414.49.567.74.148.256.271.557.37.885.086.343.15.736.195 1.185.042.454.061.997.061 1.627v.237zM549.515 100.104v-7.07c0-.281-.01-.506-.019-.692a4.065 4.065 0 0 0-.057-.462 1.155 1.155 0 0 0-.123-.324 1.327 1.327 0 0 0-.168-.26c-.25-.296-.632-.446-1.148-.446-.207 0-.444.04-.7.12-.26.072-.505.178-.76.31a5.9 5.9 0 0 0-.76.472c-.247.186-.47.37-.652.57v7.782H543.5v-8.055c0-.753-.138-1.49-.408-2.21l1.597-.435c.014.012.05.089.102.233.06.14.117.338.177.6.068.253.095.525.095.805 1.075-1.077 2.174-1.616 3.288-1.616.571 0 1.09.137 1.547.413.465.289.801.657 1.005 1.117.161.377.254.784.254 1.213v7.935zM562.333 90.89h-2.177v6.74c0 .588.094.996.286 1.219.187.224.534.328 1.059.328.232 0 .426-.012.576-.051.143-.033.29-.087.45-.153l.228 1.049c-.531.282-1.145.421-1.843.421a3.191 3.191 0 0 1-1.374-.293 1.657 1.657 0 0 1-.787-.781c-.154-.338-.226-.767-.226-1.299v-7.18h-1.368v-1.232h1.368c0-.254 0-.538.01-.842.014-.31.038-.593.057-.86.02-.267.05-.581.098-.944l1.734-.375c-.04.362-.075.687-.098.982-.035.294-.052.623-.076.976-.02.353-.031.716-.031 1.063h2.622zM574.39 92.487a2.863 2.863 0 0 0-.344-.931c-.177-.287-.44-.51-.774-.682a2.457 2.457 0 0 0-1.11-.252c-1.53 0-2.333 1.097-2.42 3.294h4.79c-.02-.58-.063-1.057-.143-1.43m-4.648 2.668v.25c0 .494.044.922.107 1.306.068.376.196.7.376.986.293.439.675.77 1.125.975.456.202.947.302 1.48.302.987 0 1.854-.326 2.558-.99l.637 1.048a4.875 4.875 0 0 1-1.613.973 5.61 5.61 0 0 1-1.915.332c-1.46 0-2.592-.494-3.412-1.487-.818-.988-1.228-2.356-1.228-4.098 0-.881.097-1.626.288-2.24a5.22 5.22 0 0 1 .97-1.716c.821-.974 1.867-1.455 3.131-1.455 1.155 0 2.096.38 2.835 1.14.216.244.411.49.56.74.15.256.274.557.371.885.088.343.154.736.193 1.185.046.454.07.997.07 1.627v.237zM587.222 91.226a1.23 1.23 0 0 0-.463-.078c-.656 0-1.235.249-1.737.757-.24.227-.404.465-.483.675-.086.223-.128.546-.128.98v6.544h-1.634v-8.055c0-.771-.125-1.511-.363-2.228l1.64-.438c.014.008.051.093.1.243.06.147.118.354.174.632.053.269.076.545.065.823a4.528 4.528 0 0 1 1.35-1.27c.527-.313 1.05-.472 1.589-.472.136 0 .326.033.563.106zM42.935 99.004h9.1l-9.1-21.14zM69.703 99.004h-9.129l9.073-21.14z" style="stroke-width:1"/><path fill="#456e33" d="M107.574 84.81c-4.616-10.382-2.553-17.76-4.736-23.684-4.147-11.252-6.907-12.038-8.485-27.828-.689-6.881-3.174-15.423-5.332-18.948-3.296-5.393-2.328-7.66-4.144-10.686-2.848-4.745-6.25-3.522-6.25-3.522L78.61.17l-.006-.028L56.342 45.75 34.076.14s-3.405-1.222-6.25 3.523c-1.817 3.027-.848 5.293-4.145 10.686-2.157 3.525-4.64 12.067-5.33 18.948-1.58 15.79-4.342 16.576-8.486 27.828C7.68 67.05 9.744 74.428 5.128 84.81.595 94.997 0 99.004 0 99.004h34.076V55.672c-4.17 2.376-6.28 5.238-6.443 5.459a2.74 2.74 0 0 1-3.808.635 2.733 2.733 0 0 1-.653-3.797c.235-.332 3.816-5.273 10.904-8.412v-.024a5.754 5.754 0 0 1-4.86-5.682 5.758 5.758 0 0 1 4.86-5.684v-.251l.107.235c.262-.034.523-.064.792-.064a5.766 5.766 0 0 1 5.766 5.764c0 1.56-.622 2.967-1.627 4.008 3.353-.806 7.243-1.131 11.681-.595a2.735 2.735 0 0 1-.659 5.43c-3.437-.42-6.464-.217-9.094.342L56.747 87.14l15.108-34.025c-2.713-.617-5.854-.86-9.443-.421a2.738 2.738 0 0 1-3.044-2.382 2.737 2.737 0 0 1 2.385-3.048c4.437-.536 8.325-.211 11.678.595a5.748 5.748 0 0 1-1.627-4.008 5.766 5.766 0 0 1 5.766-5.764c.32 0 .634.035.941.085l.094-.2v.217a5.757 5.757 0 0 1 4.728 5.662c0 2.829-2.043 5.167-4.728 5.655v.116c6.997 3.14 10.533 8.018 10.767 8.347a2.734 2.734 0 0 1-4.46 3.159c-.167-.231-2.243-3.023-6.307-5.376v43.252h34.098s-.596-4.007-5.129-14.194M135.043 64.654h.58c.662 0 1.188.275 1.561.822.346.517.528 1.113.528 1.779v7.013c0 1.449.263 2.518.79 3.177.514.634 1.36.957 2.506.957h22.178v-4.294h-19.639a.914.914 0 0 1-.718-.322c-.173-.22-.253-.507-.253-.844v-10.37h-7.533zM158.002 66.325h4.738V48.652h5.782v-4.294h-5.782v-13.8h-7.409v2.08h.587c.701 0 1.24.31 1.598.923a3.64 3.64 0 0 1 .486 1.787zM144.907 51.404a8.327 8.327 0 0 1-1.028 2.22c-.408.621-.904 1.144-1.463 1.522-.578.398-1.205.604-1.854.604a3.267 3.267 0 0 1-1.89-.604c-.579-.39-1.08-.92-1.512-1.576-.406-.656-.72-1.402-.958-2.227a9.396 9.396 0 0 1-.347-2.61 8.79 8.79 0 0 1 1.396-4.736 6.653 6.653 0 0 1 1.498-1.547c1.166-.838 2.56-.838 3.696 0a6.479 6.479 0 0 1 1.48 1.601c.4.661.73 1.405.982 2.217a8.96 8.96 0 0 1 .37 2.582c0 .874-.123 1.733-.37 2.554m8.263-14.214h-10.106v-6.619h-6.912v1.694h.41c.328 0 .66.208.961.616.303.394.451.85.451 1.376v2.933h-10.012v4.243h5.216l-.334.532a13.291 13.291 0 0 0-1.425 3.176 12.276 12.276 0 0 0-.524 3.592c0 1.565.26 3.048.763 4.398.501 1.351 1.186 2.56 2.055 3.6a9.886 9.886 0 0 0 3.036 2.373 8.294 8.294 0 0 0 3.77.888 8.213 8.213 0 0 0 3.732-.888 9.883 9.883 0 0 0 3.038-2.385c.85-1.015 1.552-2.237 2.075-3.594.511-1.34.77-2.824.77-4.392 0-1.246-.163-2.456-.515-3.592a13.122 13.122 0 0 0-1.424-3.176l-.34-.532h5.315zM199.633 78.955h4.955V61.62c0-.123-.027-.168-.034-.184-.012-.013-.054-.027-.108-.027h-11.144v-8.966h15.74v-4.285h-6.737l.315-.533a9.234 9.234 0 0 0 1.115-2.844c.235-1.056.346-2.786.346-5.139v-8.9c0-.182-.032-.233-.032-.233-.008-.003-.04-.024-.105-.024H177.29v4.291h20.73c.456 0 .776.12.952.373.154.23.243.557.243 1.014v2.87c0 2.221-.09 3.996-.268 5.301-.184 1.325-.553 2.55-1.109 3.65l-.088.174h-25.583v4.285h15.775v8.966h-10.836v4.294h21.781c.311 0 .487.162.578.302.107.17.168.373.168.59zM236.774 73.177c-1.099 1.314-2.395 1.979-3.877 1.979-.755 0-1.47-.173-2.137-.526a5.534 5.534 0 0 1-1.736-1.466c-.493-.565-.897-1.272-1.194-2.083a7.451 7.451 0 0 1-.443-2.56c0-.851.147-1.694.443-2.493.291-.81.701-1.524 1.197-2.096a5.77 5.77 0 0 1 1.728-1.481 4.287 4.287 0 0 1 2.142-.557c1.473 0 2.778.678 3.88 2.008 1.082 1.333 1.632 2.888 1.632 4.619 0 1.776-.55 3.33-1.635 4.656m5.638-8.905a11.755 11.755 0 0 0-2.208-3.511 11.15 11.15 0 0 0-3.313-2.396 9.404 9.404 0 0 0-3.994-.882 9.52 9.52 0 0 0-4.043.882 10.763 10.763 0 0 0-3.27 2.396c-.941 1-1.694 2.176-2.218 3.51a11.307 11.307 0 0 0-.801 4.25c0 1.53.264 2.98.8 4.315.525 1.322 1.269 2.483 2.217 3.444a10.11 10.11 0 0 0 3.269 2.368c2.472 1.127 5.519 1.151 8.049 0a10.734 10.734 0 0 0 3.312-2.362 11.115 11.115 0 0 0 2.2-3.461c.542-1.328.824-2.773.824-4.304 0-1.481-.282-2.912-.824-4.25M213.623 54.986h38.552v-4.299h-38.552zM216.616 32.617h.589c.659 0 1.187.277 1.553.818.359.523.533 1.13.533 1.79v5.417c0 2.288.349 3.876 1.032 4.714.675.823 1.875 1.238 3.555 1.238h23.207V42.35h-21.74c-.353 0-.643-.122-.843-.385-.207-.249-.302-.598-.302-1.047V34.88h22.663v-4.345h-30.247zM263.646 63.772h.588c.66 0 1.18.283 1.558.82a3.13 3.13 0 0 1 .525 1.78v7.896c0 1.448.267 2.518.784 3.177.521.634 1.365.957 2.522.957h22.387v-4.294h-19.857a.91.91 0 0 1-.715-.322c-.177-.22-.26-.507-.26-.844V61.68h-7.532zM286.83 66.325h4.736V48.661h5.788v-4.303h-5.788v-13.8h-7.411v2.08h.593c.699 0 1.232.31 1.589.934a3.47 3.47 0 0 1 .493 1.781zM268.692 49.09s1.567 2.61 2.298 3.576a13.255 13.255 0 0 0 2.49 2.531c.935.758 1.904 1.374 2.878 1.822.917.413 1.781.648 2.605.704l2.59-3.578c-.981-.118-2.077-.433-3.232-.916-1.224-.515-2.371-1.384-3.405-2.592-1.055-1.205-1.951-2.831-2.644-4.837-.69-2.006-1.045-4.587-1.045-7.668v-7.61h-7.622v2.028h.499c.712 0 1.269.283 1.643.852a3.19 3.19 0 0 1 .525 1.751v2.979c0 3.088-.36 5.656-1.046 7.636-.695 1.989-1.587 3.599-2.647 4.815-1.033 1.212-2.176 2.087-3.406 2.614-1.145.504-2.234.825-3.227.948l2.592 3.578c.805-.056 1.691-.302 2.637-.739a13.905 13.905 0 0 0 2.929-1.837 13.514 13.514 0 0 0 2.472-2.515c.72-.937 2.116-3.542 2.116-3.542M306.092 73.43h38.55v-4.285h-38.55zM309.36 32.617h.582c.658 0 1.184.27 1.563.818.344.523.521 1.126.521 1.78V53.82c0 2.285.382 3.923 1.147 4.856.748.912 1.984 1.384 3.67 1.384h22.364v-4.243H318.09c-.354 0-.64-.13-.854-.39-.193-.255-.3-.596-.3-1.052v-6.86h21.82v-4.232h-21.82v-8.41h22.043v-4.35H309.36zM580.874 30.559v2.08h.592c.685 0 1.236.325 1.58.933.326.563.496 1.163.496 1.782v9.462h-7.832v4.293h7.832v29.846h4.694V30.559z" style="stroke-width:1"/><path fill="#456e33" d="M560.721 59.21c-.167-.218-.258-.517-.264-.89l.01-.286v-8.886h11.971V44.91h-11.97v-9.942h15.526v-4.289h-22.98v2.086h.59c.663 0 1.183.272 1.561.821.347.52.523 1.987.523 2.646V57.26c0 2.297.425 3.973 1.25 4.986.836 1.01 2.102 1.527 3.785 1.527h17.054V59.47h-16.17c-.647 0-.788-.145-.882-.26M413.59 73.218c-1.09 1.394-2.41 2.101-3.922 2.101-1.545 0-2.864-.707-3.927-2.1-1.047-1.378-1.583-3.148-1.583-5.242 0-2.064.536-3.817 1.583-5.222 1.063-1.419 2.382-2.134 3.927-2.134 1.512 0 2.832.715 3.925 2.134 1.086 1.405 1.628 3.163 1.628 5.222 0 2.094-.542 3.864-1.631 5.241m5.593-9.724c-.555-1.403-1.294-2.637-2.205-3.68a11.266 11.266 0 0 0-3.316-2.489 8.778 8.778 0 0 0-3.994-.938c-1.435 0-2.785.31-4.038.938a10.91 10.91 0 0 0-3.265 2.489 11.364 11.364 0 0 0-2.228 3.68 12.712 12.712 0 0 0-.803 4.483c0 1.6.277 3.13.803 4.534.536 1.396 1.279 2.638 2.226 3.67a10.447 10.447 0 0 0 3.265 2.47c2.464 1.193 5.523 1.212 8.034 0a11.002 11.002 0 0 0 3.316-2.47c.911-1.032 1.65-2.278 2.205-3.682.545-1.402.821-2.927.821-4.522a12.33 12.33 0 0 0-.821-4.483M388.402 54.917l2.325 3.353c1.841-.412 3.822-1.2 5.903-2.367 2.146-1.193 4.146-2.82 5.954-4.844 1.831-1.993 3.372-4.419 4.57-7.228 1.187-2.787 1.797-6.059 1.797-9.712v-3.257a.421.421 0 0 0-.063-.18c-.012-.017-.026-.036-.082-.036h-17.809v4.292h12.596v1.002c0 .824-.044 1.637-.128 2.427a19.48 19.48 0 0 1-.419 2.253l-.067.241h-11.755v4.24h10.101l-.32.522a19.462 19.462 0 0 1-5.543 5.958c-2.204 1.544-4.58 2.664-7.06 3.336M417.226 58.649h4.73v-28.09h-7.4v2.08h.587c.697 0 1.232.31 1.593.933a3.53 3.53 0 0 1 .49 1.782zM458.801 78.955h4.697v-48.37h-7.36v2.08h.581c.703 0 1.231.31 1.589.931.326.565.493 1.17.493 1.781zM441.242 52.515s1.605 2.952 2.326 4.089a20.683 20.683 0 0 0 2.455 3.117c.873.936 1.805 1.76 2.778 2.42.89.614 1.757 1.072 2.569 1.358l2.69-3.603c-1.14-.321-2.298-.954-3.466-1.885-1.194-.95-2.295-2.23-3.289-3.806-.96-1.523-1.77-3.36-2.406-5.443-.632-2.091-.939-4.45-.939-7.016V34.78h7.73v-4.24h-20.757v4.24h7.752v6.966c0 2.536-.328 4.88-.973 6.969-.645 2.067-1.459 3.917-2.413 5.49-.995 1.534-2.11 2.806-3.302 3.777-1.162.96-2.316 1.599-3.424 1.909l2.7 3.608c.804-.291 1.671-.744 2.561-1.357.98-.661 1.904-1.485 2.78-2.416a19.318 19.318 0 0 0 2.428-3.122c.708-1.135 2.2-4.09 2.2-4.09M476.248 67.411h.586c.662 0 1.183.282 1.548.83.351.51.535 1.114.535 1.775v4.251c0 1.45.26 2.518.793 3.177.512.634 1.351.957 2.506.957h22.751v-4.294h-20.22a.915.915 0 0 1-.712-.322c-.17-.219-.257-.507-.257-.844v-7.61h-7.53zM499.783 67.71h4.736V30.56h-7.402v2.08h.586c.695 0 1.234.309 1.587.933.33.563.493 1.162.493 1.782v25.023h-8.896v3.797h8.896z" style="stroke-width:1"/><path fill="#456e33" d="M479.23 63.448h4.994v-7.17h11.838v-4.3h-26.985v4.3h10.153zM485.15 44.77c-.852 1.212-1.858 1.815-3.026 1.815-1.187 0-2.208-.601-3.025-1.785-.79-1.166-1.191-2.59-1.191-4.235 0-1.622.402-3.033 1.19-4.211.818-1.213 1.839-1.824 3.026-1.824 1.168 0 2.174.6 3.02 1.784.83 1.16 1.249 2.576 1.249 4.192 0 1.657-.42 3.083-1.243 4.264m5.126-8.19a11.32 11.32 0 0 0-1.87-3.242 9.586 9.586 0 0 0-2.823-2.134 7.7 7.7 0 0 0-3.46-.795c-1.253 0-2.421.264-3.475.795a9.416 9.416 0 0 0-2.803 2.136 10.31 10.31 0 0 0-1.87 3.233 11.763 11.763 0 0 0-.674 3.992c0 1.456.236 2.813.675 4.038a10.27 10.27 0 0 0 1.872 3.233 9.086 9.086 0 0 0 2.795 2.106 7.994 7.994 0 0 0 3.48.772 8.035 8.035 0 0 0 3.465-.772 8.933 8.933 0 0 0 2.822-2.117c.764-.903 1.394-1.996 1.866-3.222.472-1.225.712-2.582.712-4.038 0-1.43-.24-2.77-.712-3.984M518.971 64.102h.59c.663 0 1.188.279 1.56.824.348.515.524 1.12.524 1.777v7.565c0 1.448.267 2.518.788 3.177.514.634 1.361.957 2.517.957h22.518v-4.294h-19.987a.894.894 0 0 1-.712-.322c-.174-.22-.26-.507-.26-.844V62.014h-7.538zM542.643 66.188h4.388V30.417h-6.654v2.089h.184c.763 0 1.314.266 1.641.808.295.5.441 1.1.441 1.79zM535.084 66.188h4.37V30.417h-6.642v2.089h.192c.755 0 1.304.266 1.63.808.296.5.45 1.1.45 1.79v8.573h-6.63v4.29h6.63z" style="stroke-width:1"/><path fill="#456e33" d="m520.923 50.686.085.002s1.576 2.51 2.274 3.374c.712.882 1.462 1.667 2.248 2.31.803.655 1.55 1.172 2.284 1.556.63.344 1.141.544 1.542.613l2.551-3.317c-1.013-.302-2.013-.818-2.989-1.527-1-.737-1.929-1.718-2.75-2.927-.792-1.205-1.445-2.692-1.94-4.44-.49-1.746-.747-3.807-.747-6.147v-9.611h-7.45v2.48h.95c.946 0 1.323.507 1.464.929a5.34 5.34 0 0 1 .261 1.669v4.477c0 2.333-.242 4.409-.725 6.142-.477 1.744-1.13 3.235-1.912 4.438-.794 1.248-1.714 2.245-2.732 2.958-.994.7-2.023 1.21-3.052 1.508l2.543 3.318c.4-.072.926-.263 1.576-.586.75-.382 1.54-.862 2.302-1.533 2.422-2.16 4.105-5.686 4.217-5.686M366.095 57.874c-.14.032-.254.081-.398.107-.874.187-1.978.29-3.283.29h-7.864v-9.794h8.314c.21 0 .346-.059.436-.17.098-.12.154-.294.154-.542V30.806c0-.155-.037-.21-.042-.22l-15.153.01v4.235h10.505v9.457h-11.166v2.201h.128c.664 0 1.18.276 1.559.822.353.513.523 1.121.523 1.78v9.274c0 1.606.243 2.73.712 3.35.456.593 1.314.904 2.545.904h7.567c1.732 0 3.175-.08 4.284-.219.415-.058.797-.155 1.179-.255zM377.768 50.968v27.987h4.38V30.652h-6.644v2.083h.184c.755 0 1.306.275 1.632.816.293.496.448 1.096.448 1.792v11.328z" style="stroke-width:1"/><path fill="#456e33" d="M367.05 30.651v2.083h.187c.749 0 1.297.275 1.626.816.299.491.454 1.097.454 1.792v8.838h-4.782v4.296h4.782v8.614l-.008.006v4.217l.008-.003v17.646h4.373V30.65zM305.888 53.798c0 1.634-1.184 2.948-2.645 2.948-1.462 0-2.644-1.314-2.644-2.948 0-1.63 1.182-2.95 2.644-2.95 1.46 0 2.645 1.32 2.645 2.95" style="stroke-width:1"/></svg>