<svg xmlns="http://www.w3.org/2000/svg" width="309.10596mm" height="103.19147mm" viewBox="0 0 309.10596 103.19148"><defs><clipPath id="a" clipPathUnits="userSpaceOnUse"><path d="M108.522 252.343h35.052v-35.051h-35.052z"/></clipPath></defs><g style="stroke-width:.193891"><path d="M0 0h1.834c.634 0 .951-.273.951-.824 0-.55-.317-.823-.951-.823H0v-5.276c0-.715-.133-1.17-.404-1.357-.268-.196-.605-.291-1.004-.291h-.971c-.053 0-.1.023-.144.06a.219.219 0 0 0-.059.145V3.113c0 .686-.266 1.084-.798 1.196-.53.108-.793.34-.793.7 0 .148.06.241.192.273.127.037.278.057.451.057l3.329-.629c.068 0 .117-.018.148-.054.036-.036.053-.085.053-.154Zm-10.789-2.429c0-.631.141-1.232.422-1.806.284-.571.74-.855 1.371-.855.618 0 1.082.28 1.392.835a3.57 3.57 0 0 1 .465 1.781c0 .648-.145 1.253-.444 1.818-.296.56-.757.843-1.39.843-.607 0-1.058-.278-1.364-.835a3.684 3.684 0 0 1-.452-1.781m3.508-8.634c0-.112.024-.186.068-.229.049-.039.135-.059.256-.059h6.756c.59 0 .887-.279.887-.826 0-.551-.297-.824-.887-.824h-7.524c-.537 0-1.027.147-1.472.445-.444.295-.662.717-.662 1.264v2c0 .563-.262.906-.78 1.041-.519.131-.775.359-.775.691 0 .151.043.241.131.278.086.033.204.051.35.051h3.452a.22.22 0 0 0 .153-.051c.031-.037.047-.084.047-.156zm-.36 13.719h3.225c.575 0 .865-.272.865-.822 0-.55-.29-.824-.865-.824h-2.379A4.112 4.112 0 0 0-5.184-.341c.418-.583.625-1.252.625-2.008 0-1.128-.441-2.082-1.329-2.873-.887-.789-1.916-1.187-3.085-1.187a4.644 4.644 0 0 0-3.09 1.133c-.888.76-1.33 1.699-1.33 2.822 0 .77.216 1.459.649 2.063a4.373 4.373 0 0 0 1.63 1.401h-1.655c-.239 0-.626.141-1.159.422-.531.283-.796.589-.796.917 0 .151.064.239.197.268.123.029.234.039.326.039h3.994v.478c0 .426-.229.712-.687.864-.454.15-.682.355-.682.616 0 .124.04.208.12.249a.717.717 0 0 0 .323.062l3.289-.312c.067 0 .113-.02.149-.051a.225.225 0 0 0 .054-.159z" style="fill:#777576;fill-opacity:1;fill-rule:nonzero;stroke:none;stroke-width:.193891" transform="matrix(1.81946 0 0 -1.81946 127.018 50.47)"/></g><g style="stroke-width:.193891"><path d="m0 0 .322 4.327c0 .04-.002.072-.007.089-.008.024-.044.035-.114.035h-7.502c-.217 0-.616.157-1.209.473-.592.315-.888.601-.888.865 0 .152.058.247.169.286a.915.915 0 0 0 .315.064H2.357c.34 0 .618-.104.84-.319a.883.883 0 0 0 .293-.751c-.051-.539-.258-1.325-.615-2.361A25.173 25.173 0 0 0 1.793 0h2.943c.61 0 .91-.275.91-.825 0-.553-.3-.827-.91-.827H-1.41v-3.046h4.215c.052 0 .099-.02.142-.053.039-.033.061-.086.061-.158v-5.539c0-.549-.094-.944-.274-1.186-.182-.236-.515-.357-.996-.357H.583a.185.185 0 0 0-.138.058.2.2 0 0 0-.06.145v5.398h-7.582c-.313 0-.735.162-1.276.473-.535.32-.808.598-.808.848 0 .177.057.285.175.318.111.033.229.053.352.053h4.479v3.046h-5.084c-.348 0-.758.156-1.229.465-.473.312-.709.567-.709.775 0 .163.027.275.086.328.051.057.15.084.299.084z" style="fill:#777576;fill-opacity:1;fill-rule:nonzero;stroke:none;stroke-width:.193891" transform="matrix(1.81946 0 0 -1.81946 156.25 53.47)"/></g><g style="stroke-width:.193891"><path d="M0 0c0-.111.022-.186.07-.229.05-.039.131-.058.256-.058h7.159c.591 0 .885-.279.885-.826 0-.551-.294-.825-.885-.825H-.442a2.56 2.56 0 0 0-1.473.446c-.443.295-.668.717-.668 1.263V1.75c0 .563-.257.914-.775 1.041-.518.129-.776.359-.776.693 0 .151.046.241.136.274a.928.928 0 0 0 .348.053h3.448c.068 0 .122-.018.155-.053.03-.033.047-.084.047-.154Zm2.276 8.879c-.348-.589-.699-.856-1.051-.792-.36.062-.512.366-.458.916.028.523.064 1.144.114 1.864.044.721.074 1.362.087 1.911h-5.586c-.228 0-.587.169-1.067.519-.485.354-.727.651-.727.9 0 .153.032.245.101.287a.476.476 0 0 0 .259.061h8.939c.537 0 .874-.337 1.006-1.009-.132-.797-.361-1.64-.672-2.537-.32-.89-.632-1.596-.945-2.12m2.828-2.926L-5.182 4.906c-.203 0-.586.153-1.148.473-.566.312-.849.602-.849.86 0 .168.037.275.119.333.081.054.206.082.364.082l3.431.166v1.77c0 .636-.236 1.016-.706 1.154-.472.139-.707.353-.707.641 0 .11.028.179.079.203a.485.485 0 0 0 .223.043h3.408c.068 0 .119-.016.154-.055.033-.03.047-.081.047-.151v-3.48l5.871.306v6.926c0 .685-.262 1.084-.8 1.195-.525.108-.794.341-.794.7 0 .149.061.241.189.274.129.037.279.056.456.056l3.33-.629c.068 0 .117-.017.15-.053.035-.036.052-.085.052-.155v-4.252h1.834c.633 0 .947-.278.947-.827 0-.549-.314-.821-.947-.821H7.687V3.977c0-.715-.134-1.168-.406-1.36-.269-.193-.602-.289-1.008-.289h-.969a.195.195 0 0 0-.14.063.188.188 0 0 0-.06.144Z" style="fill:#777576;fill-opacity:1;fill-rule:nonzero;stroke:none;stroke-width:.193891" transform="matrix(1.81946 0 0 -1.81946 183.99 70.6)"/></g><g style="stroke-width:.193891"><path d="M0 0c0-.742.19-1.359.565-1.854.376-.494.868-.742 1.474-.742.63 0 1.129.248 1.492.742.362.495.547 1.112.547 1.854 0 .74-.185 1.361-.547 1.865-.363.502-.862.754-1.492.754-.621 0-1.111-.252-1.484-.754C.186 1.361 0 .74 0 0m2.059 4.18c1.157 0 2.222-.393 3.21-1.182C6.246 2.209 6.738 1.207 6.738 0c0-1.211-.492-2.207-1.469-3-.988-.791-2.053-1.184-3.21-1.184C.914-4.184-.15-3.791-1.147-3c-.998.793-1.496 1.789-1.496 3 0 1.207.498 2.209 1.496 2.998C-.15 3.787.914 4.18 2.059 4.18m-.08 3.895c-.35-.591-.709-.853-1.078-.792-.374.061-.528.37-.473.919l.079 1.737c.027.638.048 1.235.058 1.784h-5.629c-.252 0-.62.152-1.085.452-.471.305-.705.559-.705.764 0 .151.032.249.097.287a.502.502 0 0 0 .265.062h9.015c.538 0 .873-.337 1.008-1.007a11.144 11.144 0 0 0-.646-2.307 13.704 13.704 0 0 0-.906-1.899m2.787-2.778L-5.606 4.244c-.294-.027-.708.129-1.24.465-.531.333-.795.629-.795.876 0 .163.037.273.12.327.083.055.199.083.362.083l3.553.189v1.314c0 .634-.238 1.019-.708 1.155-.471.136-.709.35-.709.639 0 .11.029.179.084.205a.48.48 0 0 0 .22.039h3.406c.071 0 .122-.011.156-.05.036-.033.049-.084.049-.153V6.304l5.874.288v6.122c0 .685-.268 1.084-.801 1.195-.531.109-.797.341-.797.7 0 .149.061.242.193.274.127.037.278.056.453.056l3.329-.628c.07 0 .115-.018.149-.054.034-.036.05-.085.05-.154v-3.678h1.839c.632 0 .948-.272.948-.824 0-.548-.316-.825-.948-.825H7.342v-3.54c0-.717-.129-1.136-.403-1.261-.27-.121-.607-.184-1.01-.184h-.962a.184.184 0 0 0-.145.063.192.192 0 0 0-.056.144Z" style="fill:#777576;fill-opacity:1;fill-rule:nonzero;stroke:none;stroke-width:.193891" transform="matrix(1.81946 0 0 -1.81946 221.052 67.938)"/></g><g style="stroke-width:.193891"><path d="M0 0c0-.68.165-1.299.501-1.875.338-.58.867-.869 1.598-.869.722 0 1.255.289 1.591.869A3.63 3.63 0 0 1 4.192 0c0 .615-.165 1.238-.502 1.863-.336.623-.869.936-1.591.936-.703 0-1.225-.313-1.575-.936C.173 1.238 0 .615 0 0m2.117 4.221c1.29 0 2.418-.391 3.378-1.174C6.454 2.264 6.938 1.27 6.938.08c0-1.236-.484-2.254-1.443-3.049-.96-.799-2.094-1.195-3.396-1.195-1.306 0-2.44.396-3.401 1.195-.964.795-1.442 1.813-1.442 3.049 0 1.19.496 2.184 1.479 2.967a5.31 5.31 0 0 0 3.382 1.174m-4.297 8.223c-.255 0-.672.158-1.241.473-.569.315-.856.602-.856.865 0 .153.056.247.172.286a.912.912 0 0 0 .311.064H7.602c.339 0 .602-.093.8-.277.196-.187.275-.423.249-.712-.053-.535-.19-1.264-.414-2.183a9.626 9.626 0 0 0-.974-2.516c-.325-.575-.698-.855-1.121-.843-.423.014-.595.357-.513 1.03v3.689c0 .04-.003.073-.015.089-.004.025-.04.035-.109.035zm2.141-5.872v1.977c0 .426-.234.698-.708.823-.475.125-.709.34-.709.64 0 .151.05.232.144.249.09.011.187.016.281.016H2.54c.066 0 .117-.016.152-.051.032-.032.05-.083.05-.154v-3.5h6.917c.604 0 .906-.277.906-.828 0-.548-.302-.822-.906-.822H-4.438c-.349 0-.759.154-1.234.463-.467.308-.703.566-.703.775 0 .161.026.274.082.326.05.061.154.086.299.086z" style="fill:#777576;fill-opacity:1;fill-rule:nonzero;stroke:none;stroke-width:.193891" transform="matrix(1.81946 0 0 -1.81946 254.094 68.013)"/></g><g style="stroke-width:.193891"><path d="M0 0h1.837c.601 0 .906-.278.906-.828 0-.547-.305-.824-.906-.824H0v-8.858c0-.836-.132-1.385-.403-1.66-.267-.266-.604-.396-1.008-.396h-.964a.204.204 0 0 0-.147.058.198.198 0 0 0-.059.145V3.914c0 .701-.283 1.139-.848 1.319-.562.179-.843.437-.843.785 0 .152.059.25.189.295.127.05.278.076.455.076l3.43-.629c.066 0 .121-.018.151-.054.032-.036.047-.085.047-.154Zm-9.014-1.545c-.067-.14-.145-.269-.225-.402A8.506 8.506 0 0 0-9.5-2.35a21.007 21.007 0 0 0-2.218-2.855c-.876-.953-1.748-1.723-2.623-2.316-.377-.249-.631-.309-.767-.192-.134.129-.075.348.183.666.442.563.956 1.258 1.529 2.09.581.834 1.127 1.75 1.635 2.752.391.769.748 1.606 1.071 2.514.321.905.527 1.683.607 2.328.092.592-.114.965-.628 1.124-.511.154-.766.382-.766.67 0 .137.05.229.164.274a.872.872 0 0 0 .383.075l3.572-.626c.266 0 .433-.075.509-.219a.707.707 0 0 0 .055-.482c-.123-.541-.308-.549-.557-1.291a23.2 23.2 0 0 0-.938-2.329c.392-.521.833-1.024 1.329-1.517.5-.482.875-.843 1.129-1.079.312-.258.555-.401.729-.43.173-.031.306-.161.404-.391.254-.633.434-1.43.547-2.391.105-.963-.037-1.546-.425-1.754-.343-.177-.757.129-1.255.92a143.76 143.76 0 0 0-1.388 2.256c-.294.51-.6 1.021-.921 1.544-.313.523-.607 1.011-.874 1.464" style="fill:#777576;fill-opacity:1;fill-rule:nonzero;stroke:none;stroke-width:.193891" transform="matrix(1.81946 0 0 -1.81946 304.115 52.38)"/></g><g style="stroke-width:.193891"><g style="stroke-width:.193891"><path d="M0 0a7.82 7.82 0 0 0-7.852 7.855A7.853 7.853 0 0 0 0 15.707 7.853 7.853 0 1 0 0 0m0 25.378c-9.678 0-17.524-7.846-17.524-17.524 0-9.68 7.846-17.526 17.524-17.526 9.682 0 17.527 7.846 17.527 17.526 0 9.678-7.845 17.524-17.527 17.524" style="fill:#eb83b2;fill-opacity:1;fill-rule:nonzero;stroke:none;stroke-width:.193891" transform="matrix(1.81946 0 0 -1.81946 44.869 85.59)"/></g><g style="stroke-width:.193891"><path d="M0 0c2.198-7.088 8.767-12.242 16.557-12.32 1.754 4.662.609 8.304.046 9.674-3.6.06-6.602 2.542-7.464 5.886C3.11 4.133.825 1.574 0 0" style="fill:#e1002b;fill-opacity:1;fill-rule:nonzero;stroke:none;stroke-width:.193891" transform="matrix(1.81946 0 0 -1.81946 14.41 80.774)"/></g><g style="stroke-width:.193891"><path d="M0 0c7.954 0 14.655 5.313 16.798 12.57-.578.879-3.178 4.143-9.208 2.965C6.707 12.164 3.648 9.672 0 9.672h-.152c.32-.779 1.79-4.811-.058-9.674C-.141-.004-.069 0 0 0" style="fill:#fff265;fill-opacity:1;fill-rule:nonzero;stroke:none;stroke-width:.193891" transform="matrix(1.81946 0 0 -1.81946 44.895 103.187)"/></g><g style="stroke-width:.193891"><path d="m0 0-.051-.001v-9.673c.019 0 .035.003.051.003a7.853 7.853 0 0 0 7.855-7.851c0-.786-.118-1.54-.332-2.252.028.086.059.171.081.259 6.002 1.174 8.615-2.066 9.209-2.964.462 1.572.714 3.234.714 4.955C17.527-7.846 9.682 0 0 0" style="fill:#f49c00;fill-opacity:1;fill-rule:nonzero;stroke:none;stroke-width:.193891" transform="matrix(1.81946 0 0 -1.81946 44.869 39.415)"/></g><g style="opacity:.1;stroke-width:.193891"><g clip-path="url(#a)" style="stroke-width:.193891" transform="matrix(1.81946 0 0 -1.81946 -184.467 498.545)"><g style="stroke-width:.193891"><path d="M0 0a7.82 7.82 0 0 0-7.852 7.855A7.853 7.853 0 0 0 0 15.707 7.853 7.853 0 1 0 0 0m.002 25.379c-9.68 0-17.525-7.846-17.525-17.525 0-9.678 7.845-17.526 17.525-17.526 9.681 0 17.526 7.848 17.526 17.526 0 9.679-7.845 17.525-17.526 17.525" style="fill:#b9bdc3;fill-opacity:1;fill-rule:nonzero;stroke:none;stroke-width:.193891" transform="translate(126.046 226.964)"/></g><g style="stroke-width:.193891"><path d="M0 0c-9.651 0-17.474-7.823-17.474-17.474 0-9.65 7.823-17.474 17.474-17.474 9.652 0 17.475 7.824 17.475 17.474C17.475-7.823 9.652 0 0 0m-.002-25.378a7.87 7.87 0 0 0-7.902 7.906A7.902 7.902 0 0 0-.002-9.57a7.904 7.904 0 1 0 0-15.808" style="fill:#babec4;fill-opacity:1;fill-rule:nonzero;stroke:none;stroke-width:.193891" transform="translate(126.048 252.292)"/></g><g style="stroke-width:.193891"><path d="M0 0c-9.623 0-17.423-7.8-17.423-17.423 0-9.621 7.8-17.423 17.423-17.423 9.624 0 17.424 7.802 17.424 17.423C17.424-7.8 9.624 0 0 0m-.002-25.377a7.92 7.92 0 0 0-7.952 7.956A7.952 7.952 0 0 0-.002-9.469a7.953 7.953 0 0 0 7.956-7.952 7.956 7.956 0 0 0-7.956-7.956" style="fill:#bbbfc4;fill-opacity:1;fill-rule:nonzero;stroke:none;stroke-width:.193891" transform="translate(126.048 252.24)"/></g><g style="stroke-width:.193891"><path d="M0 0c-9.595 0-17.372-7.777-17.372-17.372 0-9.593 7.777-17.372 17.372-17.372 9.596 0 17.373 7.779 17.373 17.372C17.373-7.777 9.596 0 0 0m-.002-25.376a7.972 7.972 0 0 0-8.002 8.006A8.002 8.002 0 0 0-.002-9.368a8.004 8.004 0 1 0 0-16.008" style="fill:#bcc0c5;fill-opacity:1;fill-rule:nonzero;stroke:none;stroke-width:.193891" transform="translate(126.048 252.19)"/></g><g style="stroke-width:.193891"><path d="M0 0c-9.566 0-17.321-7.754-17.321-17.321 0-9.565 7.755-17.321 17.321-17.321 9.567 0 17.322 7.756 17.322 17.321C17.322-7.754 9.567 0 0 0m-.002-25.375a8.022 8.022 0 0 0-8.052 8.056A8.052 8.052 0 0 0-.002-9.267a8.053 8.053 0 1 0 0-16.108" style="fill:#bdc1c6;fill-opacity:1;fill-rule:nonzero;stroke:none;stroke-width:.193891" transform="translate(126.048 252.138)"/></g><g style="stroke-width:.193891"><path d="M0 0c-9.539 0-17.27-7.731-17.27-17.27 0-9.536 7.731-17.269 17.27-17.269s17.271 7.733 17.271 17.269C17.271-7.731 9.539 0 0 0m-.002-25.374a8.072 8.072 0 0 0-8.102 8.106A8.102 8.102 0 0 0-.002-9.165a8.104 8.104 0 0 0 8.106-8.103 8.106 8.106 0 0 0-8.106-8.106" style="fill:#bec2c7;fill-opacity:1;fill-rule:nonzero;stroke:none;stroke-width:.193891" transform="translate(126.048 252.087)"/></g><g style="stroke-width:.193891"><path d="M0 0c-9.51 0-17.218-7.708-17.218-17.218 0-9.509 7.708-17.219 17.218-17.219 9.511 0 17.219 7.71 17.219 17.219C17.219-7.708 9.511 0 0 0m-.002-25.373a8.124 8.124 0 0 0-8.153 8.157 8.155 8.155 0 1 0 8.153-8.157" style="fill:#bfc2c8;fill-opacity:1;fill-rule:nonzero;stroke:none;stroke-width:.193891" transform="translate(126.048 252.036)"/></g><g style="stroke-width:.193891"><path d="M0 0c-9.482 0-17.167-7.685-17.167-17.167 0-9.48 7.685-17.167 17.167-17.167 9.482 0 17.168 7.687 17.168 17.167C17.168-7.685 9.482 0 0 0m-.002-25.372a8.174 8.174 0 0 0-8.203 8.207A8.204 8.204 0 0 0-.002-8.962a8.205 8.205 0 1 0 0-16.41" style="fill:#c0c3c8;fill-opacity:1;fill-rule:nonzero;stroke:none;stroke-width:.193891" transform="translate(126.048 251.984)"/></g><g style="stroke-width:.193891"><path d="M0 0c-9.454 0-17.116-7.663-17.116-17.116 0-9.452 7.662-17.116 17.116-17.116s17.117 7.664 17.117 17.116C17.117-7.663 9.454 0 0 0m-.002-25.371a8.224 8.224 0 0 0-8.253 8.257A8.254 8.254 0 0 0-.002-8.861a8.255 8.255 0 1 0 0-16.51" style="fill:#c1c4c9;fill-opacity:1;fill-rule:nonzero;stroke:none;stroke-width:.193891" transform="translate(126.048 251.934)"/></g><g style="stroke-width:.193891"><path d="M0 0c-9.425 0-17.065-7.64-17.065-17.065 0-9.423 7.64-17.065 17.065-17.065 9.426 0 17.066 7.642 17.066 17.065C17.066-7.64 9.426 0 0 0m-.002-25.37a8.275 8.275 0 0 0-8.303 8.307A8.305 8.305 0 1 0-.002-25.37" style="fill:#c2c5c9;fill-opacity:1;fill-rule:nonzero;stroke:none;stroke-width:.193891" transform="translate(126.048 251.882)"/></g><g style="stroke-width:.193891"><path d="M0 0c-9.397 0-17.014-7.617-17.014-17.014 0-9.395 7.617-17.013 17.014-17.013 9.398 0 17.015 7.618 17.015 17.013C17.015-7.617 9.398 0 0 0m-.002-25.369a8.326 8.326 0 0 0-8.353 8.357A8.354 8.354 0 0 0-.002-8.658a8.355 8.355 0 1 0 0-16.711" style="fill:#c2c6ca;fill-opacity:1;fill-rule:nonzero;stroke:none;stroke-width:.193891" transform="translate(126.048 251.831)"/></g><g style="stroke-width:.193891"><path d="M0 0c-9.369 0-16.962-7.594-16.962-16.962 0-9.367 7.593-16.963 16.962-16.963 9.37 0 16.963 7.596 16.963 16.963C16.963-7.594 9.37 0 0 0m-.002-25.368a8.377 8.377 0 0 0-8.404 8.408A8.404 8.404 0 0 0-.002-8.557c4.644 0 8.408-3.762 8.408-8.403a8.408 8.408 0 0 0-8.408-8.408" style="fill:#c3c7ca;fill-opacity:1;fill-rule:nonzero;stroke:none;stroke-width:.193891" transform="translate(126.048 251.78)"/></g><g style="stroke-width:.193891"><path d="M0 0c-9.34 0-16.911-7.57-16.911-16.911 0-9.339 7.571-16.911 16.911-16.911 9.341 0 16.912 7.572 16.912 16.911C16.912-7.57 9.341 0 0 0m-.002-25.367a8.427 8.427 0 0 0-8.454 8.458A8.455 8.455 0 0 0-.002-8.455c4.671 0 8.458-3.786 8.458-8.454a8.458 8.458 0 0 0-8.458-8.458" style="fill:#c5c7cc;fill-opacity:1;fill-rule:nonzero;stroke:none;stroke-width:.193891" transform="translate(126.048 251.728)"/></g><g style="stroke-width:.193891"><path d="M0 0c-9.312 0-16.86-7.548-16.86-16.86 0-9.311 7.548-16.86 16.86-16.86 9.313 0 16.861 7.549 16.861 16.86C16.861-7.548 9.313 0 0 0m-.002-25.366a8.478 8.478 0 0 0-8.504 8.508A8.505 8.505 0 0 0-.002-8.354c4.699 0 8.508-3.808 8.508-8.504a8.508 8.508 0 0 0-8.508-8.508" style="fill:#c5c8cd;fill-opacity:1;fill-rule:nonzero;stroke:none;stroke-width:.193891" transform="translate(126.048 251.678)"/></g><g style="stroke-width:.193891"><path d="M0 0c-9.284 0-16.809-7.525-16.809-16.809 0-9.282 7.525-16.809 16.809-16.809 9.285 0 16.81 7.527 16.81 16.809C16.81-7.525 9.285 0 0 0m-.002-25.365a8.528 8.528 0 0 0-8.554 8.558A8.554 8.554 0 0 0-.002-8.253c4.727 0 8.559-3.83 8.559-8.554a8.559 8.559 0 0 0-8.559-8.558" style="fill:#c6c9cd;fill-opacity:1;fill-rule:nonzero;stroke:none;stroke-width:.193891" transform="translate(126.048 251.626)"/></g><g style="stroke-width:.193891"><path d="M0 0c-9.256 0-16.758-7.502-16.758-16.758 0-9.254 7.502-16.758 16.758-16.758s16.759 7.504 16.759 16.758C16.759-7.502 9.256 0 0 0m-.002-25.364a8.579 8.579 0 0 0-8.604 8.608 8.607 8.607 0 1 0 8.604-8.608" style="fill:#c7cace;fill-opacity:1;fill-rule:nonzero;stroke:none;stroke-width:.193891" transform="translate(126.048 251.575)"/></g><g style="stroke-width:.193891"><path d="M0 0c-9.228 0-16.707-7.479-16.707-16.707 0-9.225 7.479-16.706 16.707-16.706 9.228 0 16.708 7.481 16.708 16.706C16.708-7.479 9.228 0 0 0m-.002-25.363a8.63 8.63 0 0 0-8.654 8.658A8.655 8.655 0 0 0-.002-8.05c4.782 0 8.659-3.875 8.659-8.655a8.66 8.66 0 0 0-8.659-8.658" style="fill:#c8cbcf;fill-opacity:1;fill-rule:nonzero;stroke:none;stroke-width:.193891" transform="translate(126.048 251.524)"/></g><g style="stroke-width:.193891"><path d="M0 0c-9.199 0-16.655-7.456-16.655-16.655 0-9.198 7.456-16.656 16.655-16.656 9.2 0 16.656 7.458 16.656 16.656C16.656-7.456 9.2 0 0 0m-.002-25.362a8.681 8.681 0 0 0-8.705 8.709A8.706 8.706 0 0 0-.002-7.948c4.81 0 8.709-3.898 8.709-8.705a8.71 8.71 0 0 0-8.709-8.709" style="fill:#c9cccf;fill-opacity:1;fill-rule:nonzero;stroke:none;stroke-width:.193891" transform="translate(126.048 251.473)"/></g><g style="stroke-width:.193891"><path d="M0 0c-9.171 0-16.604-7.434-16.604-16.604 0-9.169 7.433-16.604 16.604-16.604s16.605 7.435 16.605 16.604C16.605-7.434 9.171 0 0 0m-.002-25.361a8.73 8.73 0 0 0-8.755 8.758A8.755 8.755 0 0 0-.002-7.848c4.838 0 8.759-3.92 8.759-8.755a8.759 8.759 0 0 0-8.759-8.758" style="fill:#caccd1;fill-opacity:1;fill-rule:nonzero;stroke:none;stroke-width:.193891" transform="translate(126.048 251.422)"/></g><g style="stroke-width:.193891"><path d="M0 0c-9.143 0-16.553-7.411-16.553-16.553 0-9.141 7.41-16.553 16.553-16.553s16.554 7.412 16.554 16.553C16.554-7.411 9.143 0 0 0m-.002-25.36a8.781 8.781 0 0 0-8.805 8.809A8.805 8.805 0 0 0-.002-7.746c4.865 0 8.81-3.942 8.81-8.805a8.81 8.81 0 0 0-8.81-8.809" style="fill:#cbcdd1;fill-opacity:1;fill-rule:nonzero;stroke:none;stroke-width:.193891" transform="translate(126.048 251.37)"/></g><g style="stroke-width:.193891"><path d="M0 0c-9.114 0-16.502-7.387-16.502-16.502 0-9.113 7.388-16.501 16.502-16.501 9.115 0 16.503 7.388 16.503 16.501C16.503-7.387 9.115 0 0 0m-.002-25.359A8.832 8.832 0 0 0-8.857-16.5 8.855 8.855 0 0 0-.002-7.645c4.893 0 8.86-3.964 8.86-8.855a8.86 8.86 0 0 0-8.86-8.859" style="fill:#ccced2;fill-opacity:1;fill-rule:nonzero;stroke:none;stroke-width:.193891" transform="translate(126.048 251.32)"/></g><g style="stroke-width:.193891"><path d="M0 0c-9.086 0-16.451-7.364-16.451-16.451 0-9.084 7.365-16.45 16.451-16.45s16.452 7.366 16.452 16.45C16.452-7.364 9.086 0 0 0m-.002-25.358a8.882 8.882 0 0 0-8.905 8.909A8.906 8.906 0 0 0-.002-7.543c4.921 0 8.91-3.988 8.91-8.906a8.91 8.91 0 0 0-8.91-8.909" style="fill:#cdcfd3;fill-opacity:1;fill-rule:nonzero;stroke:none;stroke-width:.193891" transform="translate(126.048 251.268)"/></g><g style="stroke-width:.193891"><path d="M0 0c-9.058 0-16.399-7.341-16.399-16.399 0-9.057 7.341-16.4 16.399-16.4s16.4 7.343 16.4 16.4C16.4-7.341 9.058 0 0 0m-.002-25.357a8.934 8.934 0 0 0-8.956 8.96A8.957 8.957 0 0 0-.002-7.441c4.949 0 8.96-4.011 8.96-8.956a8.96 8.96 0 0 0-8.96-8.96" style="fill:#ced0d3;fill-opacity:1;fill-rule:nonzero;stroke:none;stroke-width:.193891" transform="translate(126.048 251.217)"/></g><g style="stroke-width:.193891"><path d="M0 0c-9.029 0-16.348-7.318-16.348-16.348 0-9.028 7.319-16.348 16.348-16.348 9.03 0 16.349 7.32 16.349 16.348C16.349-7.318 9.03 0 0 0m-.002-25.356c-5 0-9.006 4.024-9.006 9.01A9.007 9.007 0 0 0-.002-7.34c4.976 0 9.01-4.033 9.01-9.006a9.01 9.01 0 0 0-9.01-9.01" style="fill:#cfd1d5;fill-opacity:1;fill-rule:nonzero;stroke:none;stroke-width:.193891" transform="translate(126.048 251.166)"/></g><g style="stroke-width:.193891"><path d="M0 0c-9.001 0-16.297-7.296-16.297-16.297 0-9 7.296-16.297 16.297-16.297 9.001 0 16.298 7.297 16.298 16.297C16.298-7.296 9.001 0 0 0m-.002-25.355a9.035 9.035 0 0 0-9.056 9.06A9.057 9.057 0 0 0-.002-7.239c5.004 0 9.061-4.055 9.061-9.056a9.061 9.061 0 0 0-9.061-9.06" style="fill:#d0d2d5;fill-opacity:1;fill-rule:nonzero;stroke:none;stroke-width:.193891" transform="translate(126.048 251.115)"/></g><g style="stroke-width:.193891"><path d="M0 0c-8.973 0-16.246-7.273-16.246-16.246 0-8.971 7.273-16.246 16.246-16.246 8.973 0 16.247 7.275 16.247 16.246C16.247-7.273 8.973 0 0 0m-.002-25.354a9.085 9.085 0 0 0-9.106 9.11A9.106 9.106 0 0 0-.002-7.138c5.032 0 9.111-4.077 9.111-9.106 0-5.03-4.079-9.11-9.111-9.11" style="fill:#d0d3d6;fill-opacity:1;fill-rule:nonzero;stroke:none;stroke-width:.193891" transform="translate(126.048 251.064)"/></g><g style="stroke-width:.193891"><path d="M0 0c-8.945 0-16.195-7.25-16.195-16.195 0-8.943 7.25-16.194 16.195-16.194s16.196 7.251 16.196 16.194C16.196-7.25 8.945 0 0 0m-.002-25.354a9.137 9.137 0 0 0-9.156 9.161A9.156 9.156 0 0 0-.002-7.036c5.06 0 9.161-4.1 9.161-9.157a9.162 9.162 0 0 0-9.161-9.161" style="fill:#d1d3d7;fill-opacity:1;fill-rule:nonzero;stroke:none;stroke-width:.193891" transform="translate(126.048 251.012)"/></g><g style="stroke-width:.193891"><path d="M0 0c-8.917 0-16.144-7.227-16.144-16.144 0-8.915 7.227-16.143 16.144-16.143 8.917 0 16.145 7.228 16.145 16.143C16.145-7.227 8.917 0 0 0m-.002-25.353a9.188 9.188 0 0 0-9.206 9.211A9.207 9.207 0 0 0-.002-6.935c5.087 0 9.211-4.122 9.211-9.207a9.212 9.212 0 0 0-9.211-9.211" style="fill:#d3d4d8;fill-opacity:1;fill-rule:nonzero;stroke:none;stroke-width:.193891" transform="translate(126.048 250.96)"/></g><g style="stroke-width:.193891"><path d="M0 0c-8.888 0-16.092-7.204-16.092-16.092 0-8.887 7.204-16.093 16.092-16.093 8.888 0 16.093 7.206 16.093 16.093C16.093-7.204 8.888 0 0 0m-.002-25.352a9.238 9.238 0 0 0-9.257 9.262A9.258 9.258 0 0 0-.002-6.833c5.115 0 9.261-4.145 9.261-9.257 0-5.114-4.146-9.262-9.261-9.262" style="fill:#d4d6d9;fill-opacity:1;fill-rule:nonzero;stroke:none;stroke-width:.193891" transform="translate(126.048 250.91)"/></g><g style="stroke-width:.193891"><path d="M0 0c-8.86 0-16.042-7.181-16.042-16.042C-16.042-24.9-8.86-32.083 0-32.083c8.86 0 16.042 7.183 16.042 16.041C16.042-7.181 8.86 0 0 0m-.002-25.351a9.289 9.289 0 0 0-9.307 9.311A9.307 9.307 0 0 0-.002-6.732c5.143 0 9.312-4.167 9.312-9.308s-4.169-9.311-9.312-9.311" style="fill:#d4d6d9;fill-opacity:1;fill-rule:nonzero;stroke:none;stroke-width:.193891" transform="translate(126.048 250.859)"/></g><g style="stroke-width:.193891"><path d="M0 0c-8.832 0-15.99-7.158-15.99-15.99 0-8.83 7.158-15.99 15.99-15.99s15.991 7.16 15.991 15.99C15.991-7.158 8.832 0 0 0m-.002-25.35a9.34 9.34 0 0 0-9.357 9.362A9.358 9.358 0 0 0-.002-6.631c5.17 0 9.362-4.19 9.362-9.357 0-5.169-4.192-9.362-9.362-9.362" style="fill:#d5d7da;fill-opacity:1;fill-rule:nonzero;stroke:none;stroke-width:.193891" transform="translate(126.048 250.808)"/></g><g style="stroke-width:.193891"><path d="M0 0c-8.803 0-15.939-7.135-15.939-15.939 0-8.802 7.136-15.938 15.939-15.938 8.804 0 15.94 7.136 15.94 15.938C15.94-7.135 8.804 0 0 0m-.002-25.349a9.39 9.39 0 0 0-9.407 9.412c0 5.195 4.212 9.408 9.407 9.408 5.198 0 9.412-4.213 9.412-9.408 0-5.197-4.214-9.412-9.412-9.412" style="fill:#d6d8db;fill-opacity:1;fill-rule:nonzero;stroke:none;stroke-width:.193891" transform="translate(126.048 250.756)"/></g><g style="stroke-width:.193891"><path d="M0 0c-8.775 0-15.888-7.112-15.888-15.888 0-8.773 7.113-15.887 15.888-15.887 8.775 0 15.889 7.114 15.889 15.887C15.889-7.112 8.775 0 0 0m-.002-25.348a9.44 9.44 0 0 0-9.457 9.462c0 5.223 4.234 9.458 9.457 9.458 5.226 0 9.462-4.235 9.462-9.458 0-5.224-4.236-9.462-9.462-9.462" style="fill:#d7d8dc;fill-opacity:1;fill-rule:nonzero;stroke:none;stroke-width:.193891" transform="translate(126.048 250.705)"/></g><g style="stroke-width:.193891"><path d="M0 0c-8.747 0-15.836-7.089-15.836-15.836 0-8.746 7.089-15.837 15.836-15.837s15.837 7.091 15.837 15.837C15.837-7.089 8.747 0 0 0m-.002-25.347a9.492 9.492 0 0 0-9.508 9.513c0 5.251 4.258 9.508 9.508 9.508 5.253 0 9.512-4.257 9.512-9.508 0-5.252-4.259-9.513-9.512-9.513" style="fill:#d8d9dd;fill-opacity:1;fill-rule:nonzero;stroke:none;stroke-width:.193891" transform="translate(126.048 250.654)"/></g><g style="stroke-width:.193891"><path d="M0 0c-8.719 0-15.786-7.067-15.786-15.786 0-8.716 7.067-15.785 15.786-15.785s15.787 7.069 15.787 15.785C15.787-7.067 8.719 0 0 0m-.002-25.346a9.542 9.542 0 0 0-9.558 9.562c0 5.279 4.28 9.558 9.558 9.558 5.281 0 9.563-4.279 9.563-9.558s-4.282-9.562-9.563-9.562" style="fill:#d9dadd;fill-opacity:1;fill-rule:nonzero;stroke:none;stroke-width:.193891" transform="translate(126.048 250.603)"/></g><g style="stroke-width:.193891"><path d="M0 0c-8.69 0-15.734-7.043-15.734-15.734 0-8.689 7.044-15.734 15.734-15.734 8.69 0 15.735 7.045 15.735 15.734C15.735-7.043 8.69 0 0 0m-.002-25.345a9.593 9.593 0 0 0-9.608 9.613c0 5.306 4.302 9.608 9.608 9.608 5.309 0 9.613-4.302 9.613-9.608 0-5.308-4.304-9.613-9.613-9.613" style="fill:#d9dbde;fill-opacity:1;fill-rule:nonzero;stroke:none;stroke-width:.193891" transform="translate(126.048 250.552)"/></g><g style="stroke-width:.193891"><path d="M0 0c-8.662 0-15.683-7.021-15.683-15.683 0-8.661 7.021-15.683 15.683-15.683 8.662 0 15.684 7.022 15.684 15.683C15.684-7.021 8.662 0 0 0m-.002-25.344a9.644 9.644 0 0 0-9.658 9.663c0 5.334 4.325 9.659 9.658 9.659 5.336 0 9.663-4.325 9.663-9.659 0-5.335-4.327-9.663-9.663-9.663" style="fill:#dadce0;fill-opacity:1;fill-rule:nonzero;stroke:none;stroke-width:.193891" transform="translate(126.048 250.5)"/></g><g style="stroke-width:.193891"><path d="M0 0c-8.634 0-15.632-6.998-15.632-15.632 0-8.632 6.998-15.631 15.632-15.631s15.633 6.999 15.633 15.631C15.633-6.998 8.634 0 0 0m-.002-25.343A9.694 9.694 0 0 0-9.71-15.63c0 5.362 4.347 9.709 9.708 9.709 5.364 0 9.713-4.347 9.713-9.709 0-5.363-4.349-9.713-9.713-9.713" style="fill:#dbdde0;fill-opacity:1;fill-rule:nonzero;stroke:none;stroke-width:.193891" transform="translate(126.048 250.45)"/></g><g style="stroke-width:.193891"><path d="M0 0c-8.605 0-15.581-6.975-15.581-15.581 0-8.604 6.976-15.58 15.581-15.58s15.582 6.976 15.582 15.58C15.582-6.975 8.605 0 0 0m-.002-25.342a9.745 9.745 0 0 0-9.759 9.763c0 5.39 4.37 9.76 9.759 9.76 5.392 0 9.764-4.37 9.764-9.76S5.39-25.342-.002-25.342" style="fill:#dcdee1;fill-opacity:1;fill-rule:nonzero;stroke:none;stroke-width:.193891" transform="translate(126.048 250.398)"/></g><g style="stroke-width:.193891"><path d="M0 0c-8.577 0-15.53-6.952-15.53-15.53 0-8.575 6.953-15.529 15.53-15.529 8.577 0 15.531 6.954 15.531 15.529C15.531-6.952 8.577 0 0 0m-.002-25.341a9.795 9.795 0 0 0-9.809 9.813c0 5.417 4.393 9.809 9.809 9.809 5.419 0 9.814-4.392 9.814-9.809 0-5.418-4.395-9.813-9.814-9.813" style="fill:#dedfe1;fill-opacity:1;fill-rule:nonzero;stroke:none;stroke-width:.193891" transform="translate(126.048 250.347)"/></g><g style="stroke-width:.193891"><path d="M0 0c-8.549 0-15.479-6.929-15.479-15.479 0-8.547 6.93-15.478 15.479-15.478s15.479 6.931 15.479 15.478C15.479-6.929 8.549 0 0 0m-.002-25.34a9.846 9.846 0 0 0-9.859 9.863c0 5.445 4.415 9.86 9.859 9.86 5.447 0 9.864-4.415 9.864-9.86 0-5.445-4.417-9.863-9.864-9.863" style="fill:#dfe0e2;fill-opacity:1;fill-rule:nonzero;stroke:none;stroke-width:.193891" transform="translate(126.048 250.296)"/></g><g style="stroke-width:.193891"><path d="M0 0c-8.521 0-15.427-6.906-15.427-15.427 0-8.519 6.906-15.427 15.427-15.427s15.428 6.908 15.428 15.427C15.428-6.906 8.521 0 0 0m-.002-25.339a9.897 9.897 0 0 0-9.909 9.914c0 5.472 4.437 9.909 9.909 9.909 5.475 0 9.914-4.437 9.914-9.909 0-5.474-4.439-9.914-9.914-9.914" style="fill:#e0e1e4;fill-opacity:1;fill-rule:nonzero;stroke:none;stroke-width:.193891" transform="translate(126.048 250.245)"/></g><g style="stroke-width:.193891"><path d="M0 0c-8.492 0-15.376-6.883-15.376-15.376 0-8.491 6.884-15.375 15.376-15.375 8.492 0 15.377 6.884 15.377 15.375C15.377-6.883 8.492 0 0 0m-.002-25.338a9.947 9.947 0 0 0-9.959 9.964c0 5.5 4.459 9.96 9.959 9.96 5.503 0 9.964-4.46 9.964-9.96 0-5.501-4.461-9.964-9.964-9.964" style="fill:#e0e2e4;fill-opacity:1;fill-rule:nonzero;stroke:none;stroke-width:.193891" transform="translate(126.048 250.193)"/></g><g style="stroke-width:.193891"><path d="M0 0c-8.464 0-15.325-6.86-15.325-15.325 0-8.463 6.861-15.324 15.325-15.324 8.464 0 15.326 6.861 15.326 15.324C15.326-6.86 8.464 0 0 0m-.002-25.337a9.999 9.999 0 0 0-10.01 10.014c0 5.529 4.483 10.01 10.01 10.01 5.53 0 10.015-4.481 10.015-10.01S5.528-25.337-.002-25.337" style="fill:#e1e2e5;fill-opacity:1;fill-rule:nonzero;stroke:none;stroke-width:.193891" transform="translate(126.048 250.142)"/></g><g style="stroke-width:.193891"><path d="M0 0c-8.436 0-15.274-6.837-15.274-15.274 0-8.434 6.838-15.273 15.274-15.273s15.275 6.839 15.275 15.273C15.275-6.837 8.436 0 0 0m-.002-25.336a10.049 10.049 0 0 0-10.06 10.064c0 5.556 4.505 10.06 10.06 10.06 5.558 0 10.065-4.504 10.065-10.06 0-5.557-4.507-10.064-10.065-10.064" style="fill:#e2e3e6;fill-opacity:1;fill-rule:nonzero;stroke:none;stroke-width:.193891" transform="translate(126.048 250.091)"/></g><g style="stroke-width:.193891"><path d="M0 0c-8.408 0-15.223-6.814-15.223-15.223 0-8.406 6.815-15.222 15.223-15.222 8.407 0 15.224 6.816 15.224 15.222C15.224-6.814 8.407 0 0 0m-.002-25.335a10.099 10.099 0 0 0-10.11 10.114c0 5.584 4.527 10.111 10.11 10.111 5.586 0 10.115-4.527 10.115-10.111 0-5.584-4.529-10.114-10.115-10.114" style="fill:#e3e4e7;fill-opacity:1;fill-rule:nonzero;stroke:none;stroke-width:.193891" transform="translate(126.048 250.04)"/></g><g style="stroke-width:.193891"><path d="M0 0c-8.379 0-15.171-6.792-15.171-15.171 0-8.378 6.792-15.171 15.171-15.171s15.172 6.793 15.172 15.171C15.172-6.792 8.379 0 0 0m-.002-25.334a10.15 10.15 0 0 0-10.16 10.165c0 5.611 4.549 10.16 10.16 10.16 5.614 0 10.165-4.549 10.165-10.16 0-5.612-4.551-10.165-10.165-10.165" style="fill:#e4e5e7;fill-opacity:1;fill-rule:nonzero;stroke:none;stroke-width:.193891" transform="translate(126.048 249.989)"/></g><g style="stroke-width:.193891"><path d="M0 0c-8.351 0-15.12-6.769-15.12-15.12 0-8.35 6.769-15.12 15.12-15.12 8.351 0 15.121 6.77 15.121 15.12C15.121-6.769 8.351 0 0 0m-.002-25.333a10.2 10.2 0 0 0-10.21 10.215c0 5.639 4.572 10.211 10.21 10.211 5.641 0 10.215-4.572 10.215-10.211 0-5.64-4.574-10.215-10.215-10.215" style="fill:#e4e6e8;fill-opacity:1;fill-rule:nonzero;stroke:none;stroke-width:.193891" transform="translate(126.048 249.938)"/></g><g style="stroke-width:.193891"><path d="M0 0c-8.323 0-15.069-6.746-15.069-15.069 0-8.321 6.746-15.068 15.069-15.068 8.322 0 15.07 6.747 15.07 15.068C15.07-6.746 8.322 0 0 0m-.002-25.332a10.25 10.25 0 0 0-10.26 10.265c0 5.667 4.594 10.261 10.26 10.261 5.669 0 10.266-4.594 10.266-10.261 0-5.667-4.597-10.265-10.266-10.265" style="fill:#e5e7e9;fill-opacity:1;fill-rule:nonzero;stroke:none;stroke-width:.193891" transform="translate(126.048 249.886)"/></g><g style="stroke-width:.193891"><path d="M0 0c-8.294 0-15.018-6.723-15.018-15.018 0-8.293 6.724-15.017 15.018-15.017s15.019 6.724 15.019 15.017C15.019-6.723 8.294 0 0 0m-.002-25.331a10.302 10.302 0 0 0-10.311 10.315c0 5.694 4.617 10.311 10.311 10.311 5.697 0 10.316-4.617 10.316-10.311 0-5.695-4.619-10.315-10.316-10.315" style="fill:#e6e7e9;fill-opacity:1;fill-rule:nonzero;stroke:none;stroke-width:.193891" transform="translate(126.048 249.835)"/></g><g style="stroke-width:.193891"><path d="M0 0c-8.266 0-14.967-6.7-14.967-14.967 0-8.264 6.701-14.966 14.967-14.966 8.266 0 14.968 6.702 14.968 14.966C14.968-6.7 8.266 0 0 0m-.002-25.33a10.353 10.353 0 0 0-10.361 10.365c0 5.722 4.639 10.361 10.361 10.361 5.725 0 10.366-4.639 10.366-10.361 0-5.723-4.641-10.365-10.366-10.365" style="fill:#e7e8eb;fill-opacity:1;fill-rule:nonzero;stroke:none;stroke-width:.193891" transform="translate(126.048 249.784)"/></g><g style="stroke-width:.193891"><path d="M0 0c-8.238 0-14.916-6.677-14.916-14.916 0-8.236 6.678-14.915 14.916-14.915s14.917 6.679 14.917 14.915C14.917-6.677 8.238 0 0 0m-.002-25.329a10.403 10.403 0 0 0-10.411 10.415c0 5.75 4.662 10.412 10.411 10.412 5.752 0 10.416-4.662 10.416-10.412 0-5.75-4.664-10.415-10.416-10.415" style="fill:#e8eaeb;fill-opacity:1;fill-rule:nonzero;stroke:none;stroke-width:.193891" transform="translate(126.048 249.733)"/></g><g style="stroke-width:.193891"><path d="M0 0c-8.209 0-14.864-6.654-14.864-14.864 0-8.209 6.655-14.864 14.864-14.864s14.865 6.655 14.865 14.864C14.865-6.654 8.209 0 0 0m-.002-25.328a10.453 10.453 0 0 0-10.461 10.466C-10.463-9.084-5.779-4.4-.002-4.4c5.78 0 10.466-4.684 10.466-10.462 0-5.779-4.686-10.466-10.466-10.466" style="fill:#e9eaec;fill-opacity:1;fill-rule:nonzero;stroke:none;stroke-width:.193891" transform="translate(126.048 249.682)"/></g><g style="stroke-width:.193891"><path d="M0 0c-8.182 0-14.813-6.631-14.813-14.813 0-8.18 6.631-14.812 14.813-14.812 8.181 0 14.814 6.632 14.814 14.812C14.814-6.631 8.181 0 0 0m-.002-25.327c-5.817 0-10.511 4.705-10.511 10.516 0 5.805 4.706 10.512 10.511 10.512 5.808 0 10.517-4.707 10.517-10.512 0-5.806-4.709-10.516-10.517-10.516" style="fill:#eaebed;fill-opacity:1;fill-rule:nonzero;stroke:none;stroke-width:.193891" transform="translate(126.048 249.63)"/></g><g style="stroke-width:.193891"><path d="M0 0c-8.153 0-14.762-6.608-14.762-14.762 0-8.152 6.609-14.761 14.762-14.761s14.763 6.609 14.763 14.761C14.763-6.608 8.153 0 0 0m-.002-25.326c-5.844 0-10.561 4.727-10.561 10.566 0 5.833 4.729 10.562 10.561 10.562 5.835 0 10.567-4.729 10.567-10.562 0-5.834-4.732-10.566-10.567-10.566" style="fill:#ebecee;fill-opacity:1;fill-rule:nonzero;stroke:none;stroke-width:.193891" transform="translate(126.048 249.58)"/></g><g style="stroke-width:.193891"><path d="M0 0c-8.125 0-14.711-6.585-14.711-14.711 0-8.123 6.586-14.71 14.711-14.71s14.712 6.587 14.712 14.71C14.712-6.585 8.125 0 0 0m-.002-25.325c-5.871 0-10.612 4.75-10.612 10.616 0 5.861 4.752 10.612 10.612 10.612 5.863 0 10.617-4.751 10.617-10.612S5.861-25.325-.002-25.325" style="fill:#ececef;fill-opacity:1;fill-rule:nonzero;stroke:none;stroke-width:.193891" transform="translate(126.048 249.528)"/></g><g style="stroke-width:.193891"><path d="M0 0c-8.097 0-14.66-6.563-14.66-14.66 0-8.095 6.563-14.658 14.66-14.658 8.096 0 14.661 6.563 14.661 14.658C14.661-6.563 8.096 0 0 0m-.002-25.324c-5.898 0-10.662 4.773-10.662 10.666 0 5.889 4.774 10.663 10.662 10.663 5.891 0 10.668-4.774 10.668-10.663S5.889-25.324-.002-25.324" style="fill:#ededf0;fill-opacity:1;fill-rule:nonzero;stroke:none;stroke-width:.193891" transform="translate(126.048 249.477)"/></g><g style="stroke-width:.193891"><path d="M0 0c-8.068 0-14.608-6.54-14.608-14.608 0-8.067 6.54-14.608 14.608-14.608 8.068 0 14.609 6.541 14.609 14.608C14.609-6.54 8.068 0 0 0m-.002-25.323c-5.926 0-10.712 4.796-10.712 10.717 0 5.916 4.797 10.712 10.712 10.712 5.919 0 10.717-4.796 10.717-10.712 0-5.917-4.798-10.717-10.717-10.717" style="fill:#eeeef0;fill-opacity:1;fill-rule:nonzero;stroke:none;stroke-width:.193891" transform="translate(126.048 249.426)"/></g><g style="stroke-width:.193891"><path d="M0 0c-8.04 0-14.557-6.516-14.557-14.557 0-8.039 6.517-14.557 14.557-14.557s14.558 6.518 14.558 14.557C14.558-6.516 8.04 0 0 0m-.002-25.322c-5.953 0-10.762 4.819-10.762 10.767 0 5.944 4.819 10.763 10.762 10.763 5.946 0 10.768-4.819 10.768-10.763 0-5.945-4.822-10.767-10.768-10.767" style="fill:#eef0f1;fill-opacity:1;fill-rule:nonzero;stroke:none;stroke-width:.193891" transform="translate(126.048 249.375)"/></g><g style="stroke-width:.193891"><path d="M0 0c-8.012 0-14.506-6.493-14.506-14.506 0-8.011 6.494-14.505 14.506-14.505 8.011 0 14.507 6.494 14.507 14.505C14.507-6.493 8.011 0 0 0m-.002-25.321c-5.98 0-10.812 4.842-10.812 10.817 0 5.972 4.841 10.814 10.812 10.814 5.974 0 10.818-4.842 10.818-10.814S5.972-25.321-.002-25.321" style="fill:#f0f0f2;fill-opacity:1;fill-rule:nonzero;stroke:none;stroke-width:.193891" transform="translate(126.048 249.323)"/></g><g style="stroke-width:.193891"><path d="M0 0c-7.983 0-14.455-6.471-14.455-14.455 0-7.983 6.472-14.454 14.455-14.454s14.456 6.471 14.456 14.454C14.456-6.471 7.983 0 0 0m-.002-25.32c-6.007 0-10.863 4.863-10.863 10.867C-10.865-8.454-6-3.59-.002-3.59 6-3.59 10.866-8.454 10.866-14.453c0-6-4.866-10.867-10.868-10.867" style="fill:#f1f1f3;fill-opacity:1;fill-rule:nonzero;stroke:none;stroke-width:.193891" transform="translate(126.048 249.273)"/></g><g style="stroke-width:.193891"><path d="M0 0c-7.955 0-14.404-6.448-14.404-14.404 0-7.954 6.449-14.403 14.404-14.403s14.405 6.449 14.405 14.403C14.405-6.448 7.955 0 0 0m-.002-25.319c-6.035 0-10.913 4.886-10.913 10.917 0 6.027 4.887 10.914 10.913 10.914 6.029 0 10.919-4.887 10.919-10.914S6.027-25.319-.002-25.319" style="fill:#f1f2f4;fill-opacity:1;fill-rule:nonzero;stroke:none;stroke-width:.193891" transform="translate(126.048 249.221)"/></g><g style="stroke-width:.193891"><path d="M0 0c-7.927 0-14.353-6.425-14.353-14.353 0-7.925 6.426-14.351 14.353-14.351 7.926 0 14.354 6.426 14.354 14.351C14.354-6.425 7.926 0 0 0m-.002-25.318c-6.061 0-10.963 4.909-10.963 10.967 0 6.055 4.909 10.964 10.963 10.964 6.057 0 10.969-4.909 10.969-10.964 0-6.055-4.912-10.967-10.969-10.967" style="fill:#f2f3f5;fill-opacity:1;fill-rule:nonzero;stroke:none;stroke-width:.193891" transform="translate(126.048 249.17)"/></g><g style="stroke-width:.193891"><path d="M0 0c-7.899 0-14.301-6.402-14.301-14.301 0-7.898 6.402-14.301 14.301-14.301 7.898 0 14.302 6.403 14.302 14.301C14.302-6.402 7.898 0 0 0m-.002-25.317c-6.089 0-11.013 4.932-11.013 11.018 0 6.082 4.932 11.014 11.013 11.014 6.085 0 11.019-4.932 11.019-11.014 0-6.083-4.934-11.018-11.019-11.018" style="fill:#f3f4f6;fill-opacity:1;fill-rule:nonzero;stroke:none;stroke-width:.193891" transform="translate(126.048 249.119)"/></g><g style="stroke-width:.193891"><path d="M0 0c-7.871 0-14.25-6.379-14.25-14.25 0-7.869 6.379-14.25 14.25-14.25 7.87 0 14.251 6.381 14.251 14.25C14.251-6.379 7.87 0 0 0m-.002-25.316c-6.116 0-11.063 4.955-11.063 11.068 0 6.11 4.954 11.064 11.063 11.064 6.112 0 11.069-4.954 11.069-11.064 0-6.111-4.957-11.068-11.069-11.068" style="fill:#f4f5f6;fill-opacity:1;fill-rule:nonzero;stroke:none;stroke-width:.193891" transform="translate(126.048 249.067)"/></g><g style="stroke-width:.193891"><path d="M0 0c-7.842 0-14.199-6.356-14.199-14.199 0-7.841 6.357-14.198 14.199-14.198 7.841 0 14.2 6.357 14.2 14.198C14.2-6.356 7.841 0 0 0m-.002-25.315c-6.143 0-11.114 4.977-11.114 11.118 0 6.138 4.977 11.114 11.114 11.114 6.14 0 11.119-4.976 11.119-11.114 0-6.138-4.979-11.118-11.119-11.118" style="fill:#f5f6f7;fill-opacity:1;fill-rule:nonzero;stroke:none;stroke-width:.193891" transform="translate(126.048 249.017)"/></g><g style="stroke-width:.193891"><path d="M0 0c-7.814 0-14.148-6.333-14.148-14.148 0-7.813 6.334-14.147 14.148-14.147 7.813 0 14.149 6.334 14.149 14.147C14.149-6.333 7.813 0 0 0m-.002-25.314c-6.17 0-11.164 5-11.164 11.168 0 6.166 4.999 11.165 11.164 11.165 6.168 0 11.169-4.999 11.169-11.165 0-6.166-5.001-11.168-11.169-11.168" style="fill:#f6f6f7;fill-opacity:1;fill-rule:nonzero;stroke:none;stroke-width:.193891" transform="translate(126.048 248.965)"/></g><g style="stroke-width:.193891"><path d="M0 0c-7.786 0-14.097-6.31-14.097-14.097 0-7.784 6.311-14.095 14.097-14.095 7.785 0 14.098 6.311 14.098 14.095C14.098-6.31 7.785 0 0 0m-.002-25.313c-6.198 0-11.214 5.022-11.214 11.218 0 6.194 5.022 11.215 11.214 11.215 6.195 0 11.22-5.021 11.22-11.215S6.193-25.313-.002-25.313" style="fill:#f7f8f9;fill-opacity:1;fill-rule:nonzero;stroke:none;stroke-width:.193891" transform="translate(126.048 248.914)"/></g><g style="stroke-width:.193891"><path d="M0 0c-7.757 0-14.045-6.287-14.045-14.045 0-7.757 6.288-14.045 14.045-14.045s14.046 6.288 14.046 14.045C14.046-6.287 7.757 0 0 0m-.002-25.313c-6.225 0-11.264 5.046-11.264 11.27 0 6.221 5.044 11.265 11.264 11.265 6.223 0 11.27-5.044 11.27-11.265 0-6.222-5.047-11.27-11.27-11.27" style="fill:#f8f9fa;fill-opacity:1;fill-rule:nonzero;stroke:none;stroke-width:.193891" transform="translate(126.048 248.863)"/></g><g style="stroke-width:.193891"><path d="M0 0c-7.729 0-13.994-6.264-13.994-13.994 0-7.728 6.265-13.994 13.994-13.994s13.995 6.266 13.995 13.994C13.995-6.264 7.729 0 0 0m-.002-25.312c-6.252 0-11.314 5.069-11.314 11.32 0 6.249 5.066 11.315 11.314 11.315 6.251 0 11.32-5.066 11.32-11.315s-5.069-11.32-11.32-11.32" style="fill:#f9f9fa;fill-opacity:1;fill-rule:nonzero;stroke:none;stroke-width:.193891" transform="translate(126.048 248.811)"/></g><g style="stroke-width:.193891"><path d="M0 0c-7.701 0-13.943-6.242-13.943-13.943 0-7.7 6.242-13.943 13.943-13.943 7.7 0 13.944 6.243 13.944 13.943C13.944-6.242 7.7 0 0 0m-.002-25.311c-6.279 0-11.365 5.091-11.365 11.37 0 6.276 5.089 11.365 11.365 11.365 6.279 0 11.37-5.089 11.37-11.365 0-6.277-5.091-11.37-11.37-11.37" style="fill:#fafafb;fill-opacity:1;fill-rule:nonzero;stroke:none;stroke-width:.193891" transform="translate(126.048 248.76)"/></g><g style="stroke-width:.193891"><path d="M0 0c-7.672 0-13.892-6.219-13.892-13.892 0-7.671 6.22-13.891 13.892-13.891s13.893 6.22 13.893 13.891C13.893-6.219 7.672 0 0 0m-.002-25.31c-6.307 0-11.415 5.114-11.415 11.42 0 6.304 5.112 11.415 11.415 11.415 6.306 0 11.42-5.111 11.42-11.415 0-6.305-5.114-11.42-11.42-11.42" style="fill:#fbfbfc;fill-opacity:1;fill-rule:nonzero;stroke:none;stroke-width:.193891" transform="translate(126.048 248.71)"/></g><g style="stroke-width:.193891"><path d="M0 0c-7.644 0-13.841-6.196-13.841-13.841 0-7.643 6.197-13.84 13.841-13.84 7.644 0 13.842 6.197 13.842 13.84C13.842-6.196 7.644 0 0 0m-.002-25.309c-6.333 0-11.465 5.137-11.465 11.47 0 6.332 5.134 11.466 11.465 11.466 6.334 0 11.471-5.134 11.471-11.466 0-6.332-5.137-11.47-11.471-11.47" style="fill:#fbfcfc;fill-opacity:1;fill-rule:nonzero;stroke:none;stroke-width:.193891" transform="translate(126.048 248.658)"/></g><g style="stroke-width:.193891"><path d="M0 0c-7.616 0-13.79-6.173-13.79-13.79 0-7.614 6.174-13.788 13.79-13.788 7.615 0 13.791 6.174 13.791 13.788C13.791-6.173 7.615 0 0 0m-.002-25.308c-6.361 0-11.515 5.16-11.515 11.52 0 6.36 5.156 11.517 11.515 11.517 6.362 0 11.521-5.157 11.521-11.517 0-6.359-5.159-11.52-11.521-11.52" style="fill:#fcfcfd;fill-opacity:1;fill-rule:nonzero;stroke:none;stroke-width:.193891" transform="translate(126.048 248.607)"/></g><g style="stroke-width:.193891"><path d="M0 0c-7.588 0-13.738-6.149-13.738-13.738 0-7.587 6.15-13.738 13.738-13.738 7.587 0 13.739 6.151 13.739 13.738C13.739-6.149 7.587 0 0 0m-.002-25.307c-6.388 0-11.565 5.182-11.565 11.571 0 6.387 5.178 11.566 11.565 11.566 6.39 0 11.571-5.179 11.571-11.566 0-6.388-5.181-11.571-11.571-11.571" style="fill:#fdfdfe;fill-opacity:1;fill-rule:nonzero;stroke:none;stroke-width:.193891" transform="translate(126.048 248.556)"/></g><g style="stroke-width:.193891"><path d="M0 0c-7.56 0-13.688-6.127-13.688-13.688 0-7.558 6.128-13.686 13.688-13.686 7.559 0 13.688 6.128 13.688 13.686C13.688-6.127 7.559 0 0 0m-.002-25.306c-6.415 0-11.615 5.205-11.615 11.62 0 6.415 5.201 11.617 11.615 11.617 6.417 0 11.621-5.202 11.621-11.617 0-6.415-5.204-11.62-11.621-11.62" style="fill:#fefefe;fill-opacity:1;fill-rule:nonzero;stroke:none;stroke-width:.193891" transform="translate(126.048 248.505)"/></g><g style="stroke-width:.193891"><path d="M0 0c-7.531 0-13.636-6.104-13.636-13.636 0-7.531 6.105-13.635 13.636-13.635 7.53 0 13.637 6.104 13.637 13.635C13.637-6.104 7.53 0 0 0m-.002-25.305c-6.442 0-11.665 5.227-11.665 11.671 0 6.443 5.223 11.666 11.665 11.666 6.445 0 11.671-5.223 11.671-11.666 0-6.443-5.226-11.671-11.671-11.671" style="fill:#fefeff;fill-opacity:1;fill-rule:nonzero;stroke:none;stroke-width:.193891" transform="translate(126.048 248.454)"/></g><g style="stroke-width:.193891"><path d="M0 0c-6.47 0-11.716 5.25-11.716 11.721 0 6.47 5.246 11.717 11.716 11.717 6.473 0 11.722-5.247 11.722-11.717C11.722 5.25 6.473 0 0 0m.002 25.304c-7.503 0-13.585-6.081-13.585-13.585 0-7.502 6.082-13.584 13.585-13.584 7.502 0 13.586 6.082 13.586 13.584 0 7.504-6.084 13.585-13.586 13.585" style="fill:#fff;fill-opacity:1;fill-rule:nonzero;stroke:none;stroke-width:.193891" transform="translate(126.046 223.099)"/></g></g></g><g style="stroke-width:.193891"><path d="M0 0a7.856 7.856 0 0 1 7.404 7.071 15.314 15.314 0 0 0-6.02-1.785A15.46 15.46 0 0 0 0 0" style="fill:#fff265;fill-opacity:1;fill-rule:nonzero;stroke:none;stroke-width:.193891" transform="matrix(1.81946 0 0 -1.81946 45.62 28.601)"/></g><g style="stroke-width:.193891"><path d="M0 0c-.372 0-.742-.027-1.102-.078a15.432 15.432 0 0 0 2.953-9.098c0-.416-.023-.826-.054-1.234 2.164.18 4.202.803 6.02 1.785A7.854 7.854 0 0 1 0 0" style="fill:#f49c00;fill-opacity:1;fill-rule:nonzero;stroke:none;stroke-width:.193891" transform="matrix(1.81946 0 0 -1.81946 44.869 .043)"/></g><g style="stroke-width:.193891"><path d="M0 0c-3.072 0-5.932.9-8.338 2.445a7.85 7.85 0 0 1 8.26-7.671A15.465 15.465 0 0 1 1.306.061 14.835 14.835 0 0 0 0 0" style="fill:#eb83b2;fill-opacity:1;fill-rule:nonzero;stroke:none;stroke-width:.193891" transform="matrix(1.81946 0 0 -1.81946 45.762 19.094)"/></g><g style="stroke-width:.193891"><path d="M0 0c0-.057.003-.113.005-.172a15.379 15.379 0 0 1 8.338-2.445c.441 0 .875.023 1.305.06.032.409.054.819.054 1.235 0 3.4-1.098 6.543-2.952 9.097A7.853 7.853 0 0 1 0 0" style="fill:#e1002b;fill-opacity:1;fill-rule:nonzero;stroke:none;stroke-width:.193891" transform="matrix(1.81946 0 0 -1.81946 30.583 14.332)"/></g><g style="stroke-width:.193891"><path d="M0 0a5.101 5.101 0 0 1-3.31-1.209 26.751 26.751 0 0 0-6.118-3.474c2.028-1.714 3.256-3.943 3.256-6.38 0-1.32-.361-2.577-1.011-3.726A37.07 37.07 0 0 1 3.414-8.992a5.116 5.116 0 0 1 1.74 3.847A5.143 5.143 0 0 1 0 0" style="fill:#eb83b2;fill-opacity:1;fill-rule:nonzero;stroke:none;stroke-width:.193891" transform="matrix(1.81946 0 0 -1.81946 80.195 26.274)"/></g><g style="stroke-width:.193891"><path d="M0 0a26.757 26.757 0 0 0-5.744 3.322 5.148 5.148 0 1 1-6.173-8.217 36.982 36.982 0 0 1 8.918-4.979L-3-9.878c.146-.057.293-.109.441-.163a7.455 7.455 0 0 0-.889 3.499C-3.448-4.028-2.144-1.736 0 0" style="fill:#f49c00;fill-opacity:1;fill-rule:nonzero;stroke:none;stroke-width:.193891" transform="matrix(1.81946 0 0 -1.81946 26.033 34.5)"/></g><g style="stroke-width:.193891"><path d="M0 0a26.575 26.575 0 0 0-9.766-1.932c.194-1.403.293-2.845.293-4.316a31.67 31.67 0 0 0-.555-5.932h.055c4.284.005 8.393.736 12.218 2.074.65 1.149 1.011 2.406 1.011 3.725C3.256-3.943 2.027-1.715 0 0" style="fill:#e1002b;fill-opacity:1;fill-rule:nonzero;stroke:none;stroke-width:.193891" transform="matrix(1.81946 0 0 -1.81946 63.042 34.793)"/></g><g style="stroke-width:.193891"><path d="M0 0c-2.144-1.736-3.448-4.028-3.448-6.542 0-1.233.316-2.413.889-3.499a37.07 37.07 0 0 1 12.872-2.3c.363 1.903.555 3.889.555 5.932 0 1.471-.099 2.913-.293 4.316l-.192-.002A26.51 26.51 0 0 0 0 0" style="fill:#fff265;fill-opacity:1;fill-rule:nonzero;stroke:none;stroke-width:.193891" transform="matrix(1.81946 0 0 -1.81946 26.033 34.5)"/></g></g><g style="stroke-width:.193891"><path d="M0 0h-1.396v-4.375h-.813V0h-1.472v.693H.223z" style="fill:#777576;fill-opacity:1;fill-rule:nonzero;stroke:none;stroke-width:.193891" transform="matrix(1.81946 0 0 -1.81946 156.286 86.502)"/></g><g style="stroke-width:.193891"><path d="M0 0c-1.021 0-1.707-.723-1.707-1.908 0-1.176.686-1.899 1.707-1.899 1.018 0 1.702.723 1.702 1.899C1.702-.768 1.064 0 0 0m-1.836-.039C-1.385.422-.746.699 0 .699c.801 0 1.471-.291 1.924-.791.416-.461.639-1.084.639-1.801 0-.761-.26-1.429-.731-1.892C1.371-4.238.746-4.492 0-4.492c-.715 0-1.313.222-1.76.623-.506.469-.799 1.152-.799 1.947 0 .752.262 1.414.723 1.883" style="fill:#777576;fill-opacity:1;fill-rule:nonzero;stroke:none;stroke-width:.193891" transform="matrix(1.81946 0 0 -1.81946 161.35 86.431)"/></g><g style="stroke-width:.193891"><path d="M0 0c-.337-.346-.845-.547-1.567-.547-.692 0-1.185.176-1.502.486-.377.36-.491.907-.491 1.436V4.6h.799V1.414c0-.353.103-.701.324-.939.192-.207.483-.329.882-.329.449 0 .757.122.949.329.207.216.285.529.285.894V4.6h.805V1.361C.484.82.332.338 0 0" style="fill:#777576;fill-opacity:1;fill-rule:nonzero;stroke:none;stroke-width:.193891" transform="matrix(1.81946 0 0 -1.81946 174.06 93.61)"/></g><g style="stroke-width:.193891"><path d="M0 0h-.461v-1.686h.479c.521 0 .907.399.907.885C.925-.363.656 0 0 0m1.393-4.369C.602-3.063.209-2.371.007-2.314h-.468v-2.055h-.807V.699h1.262c1.269 0 1.753-.638 1.753-1.416 0-.691-.454-1.137-.955-1.34v-.006c.21-.109.747-1.007 1.539-2.306z" style="fill:#777576;fill-opacity:1;fill-rule:nonzero;stroke:none;stroke-width:.193891" transform="matrix(1.81946 0 0 -1.81946 179.349 86.513)"/></g><path d="M151.242 153.178h1.473v9.22h-1.474z" style="fill:#777576;fill-opacity:1;fill-rule:nonzero;stroke:none;stroke-width:.352777" transform="translate(33.51 -67.936)"/><g style="stroke-width:.193891"><path d="M0 0c-.698 0-1.175.23-1.498.438l.339.607C-.907.871-.506.67-.029.67c.415 0 .901.184.901.648 0 .776-1.225.928-1.841 1.614a1.293 1.293 0 0 0-.345.906c0 .738.57 1.353 1.592 1.353.54 0 .94-.138 1.203-.277l-.009-.752c-.346.209-.74.356-1.155.356-.437 0-.801-.188-.801-.586 0-1 2.216-.971 2.216-2.524C1.732.553.979 0 0 0" style="fill:#777576;fill-opacity:1;fill-rule:nonzero;stroke:none;stroke-width:.193891" transform="matrix(1.81946 0 0 -1.81946 190.488 94.605)"/></g><g style="stroke-width:.193891"><path d="M0 0v3.229c0 .185 0 .324.017.539H0c-.069-.184-.207-.383-.281-.516l-1.157-1.807h-.421l-1.247 1.83c-.086.131-.194.278-.292.493h-.016c.023-.223.023-.354.023-.524V0h-.801v5.068h.77l1.47-2.154c.137-.207.231-.353.307-.508h.007c.071.147.155.301.292.524l1.37 2.138h.777V0Z" style="fill:#777576;fill-opacity:1;fill-rule:nonzero;stroke:none;stroke-width:.193891" transform="matrix(1.81946 0 0 -1.81946 202.792 94.463)"/></g><g style="stroke-width:.193891"><path d="M0 0c-1.023 0-1.71-.725-1.71-1.908 0-1.178.687-1.899 1.71-1.899 1.014 0 1.698.721 1.698 1.899C1.698-.77 1.061 0 0 0m-1.838-.037C-1.386.424-.745.701 0 .701c.8 0 1.469-.293 1.922-.795.416-.459.64-1.082.64-1.797 0-.763-.262-1.431-.732-1.892C1.368-4.238.747-4.492 0-4.492c-.714 0-1.314.224-1.761.623-.508.469-.801 1.154-.801 1.945 0 .756.262 1.416.724 1.887" style="fill:#777576;fill-opacity:1;fill-rule:nonzero;stroke:none;stroke-width:.193891" transform="matrix(1.81946 0 0 -1.81946 214.837 86.556)"/></g><g style="stroke-width:.193891"><path d="M0 0h-.461v-1.686h.479c.523 0 .906.403.906.889C.924-.359.653 0 0 0m1.393-4.369c-.792 1.31-1.185 2-1.386 2.055h-.468v-2.055h-.807v5.07h1.262c1.269 0 1.753-.64 1.753-1.416 0-.691-.454-1.139-.954-1.338v-.008c.209-.107.747-1.009 1.54-2.308Z" style="fill:#777576;fill-opacity:1;fill-rule:nonzero;stroke:none;stroke-width:.193891" transform="matrix(1.81946 0 0 -1.81946 223.371 86.641)"/></g><g style="stroke-width:.193891"><path d="M0 0c-1.548 0-2.539 1.086-2.539 2.547 0 1.531 1.1 2.646 2.755 2.646.644 0 1.137-.146 1.467-.285l-.007-.777c-.369.191-.855.375-1.407.375-1.315 0-1.938-.828-1.938-1.885 0-1.137.714-1.935 1.877-1.935.375 0 .668.068.852.166v1.75h.81V.445A4.131 4.131 0 0 0 0 0" style="fill:#777576;fill-opacity:1;fill-rule:nonzero;stroke:none;stroke-width:.193891" transform="matrix(1.81946 0 0 -1.81946 232.92 94.73)"/></g><g style="stroke-width:.193891"><path d="M0 0c-.084.254-.154.461-.186.621h-.005A5.573 5.573 0 0 0-.392.008l-.501-1.362H.471zm1.24-3.324L.732-2.033h-1.877l-.478-1.291h-.801l1.963 5.086H.1l2.008-5.086z" style="fill:#777576;fill-opacity:1;fill-rule:nonzero;stroke:none;stroke-width:.193891" transform="matrix(1.81946 0 0 -1.81946 241.763 88.542)"/></g><g style="stroke-width:.193891"><path d="m0 0-2.383 3.115a7.828 7.828 0 0 0-.508.731h-.016c.016-.168.016-.414.016-.662V0h-.801v5.07h.816l2.293-3c.277-.361.414-.554.531-.759h.016c-.011.205-.016.459-.016.705V5.07h.806V0Z" style="fill:#777576;fill-opacity:1;fill-rule:nonzero;stroke:none;stroke-width:.193891" transform="matrix(1.81946 0 0 -1.81946 253.478 94.59)"/></g><path d="M223.385 153.301h1.472v9.225h-1.472z" style="fill:#777576;fill-opacity:1;fill-rule:nonzero;stroke:none;stroke-width:.352777" transform="translate(33.51 -67.936)"/><g style="stroke-width:.193891"><path d="m0 0 2.546 4.4-2.253-.021-.223.691h3.745L1.309.678l2.569.023V0Z" style="fill:#777576;fill-opacity:1;fill-rule:nonzero;stroke:none;stroke-width:.193891" transform="matrix(1.81946 0 0 -1.81946 259.86 94.59)"/></g><g style="stroke-width:.193891"><path d="M0 0a5.333 5.333 0 0 0-.185.621h-.007A6.812 6.812 0 0 0-.391.008L-.89-1.354H.47zm1.239-3.324-.51 1.291h-1.876l-.477-1.291h-.798l1.961 5.086h.563l2.005-5.086z" style="fill:#777576;fill-opacity:1;fill-rule:nonzero;stroke:none;stroke-width:.193891" transform="matrix(1.81946 0 0 -1.81946 272.132 88.542)"/></g><g style="stroke-width:.193891"><path d="M0 0h-1.392v-4.379h-.818V0h-1.47v.691H.223z" style="fill:#777576;fill-opacity:1;fill-rule:nonzero;stroke:none;stroke-width:.193891" transform="matrix(1.81946 0 0 -1.81946 282.44 86.623)"/></g><path d="M250.395 153.301h1.472v9.225h-1.472z" style="fill:#777576;fill-opacity:1;fill-rule:nonzero;stroke:none;stroke-width:.352777" transform="translate(33.51 -67.936)"/><g style="stroke-width:.193891"><path d="M0 0c-1.023 0-1.71-.725-1.71-1.908 0-1.178.687-1.899 1.71-1.899 1.014 0 1.698.721 1.698 1.899C1.698-.77 1.06 0 0 0m-1.839-.037C-1.386.424-.748.701 0 .701c.8 0 1.469-.293 1.923-.795.415-.459.637-1.082.637-1.797 0-.763-.26-1.431-.731-1.892C1.369-4.238.745-4.492 0-4.492c-.716 0-1.315.224-1.764.623-.507.469-.798 1.154-.798 1.945 0 .756.262 1.416.723 1.887" style="fill:#777576;fill-opacity:1;fill-rule:nonzero;stroke:none;stroke-width:.193891" transform="matrix(1.81946 0 0 -1.81946 291.606 86.556)"/></g><g style="stroke-width:.193891"><path d="m0 0-2.385 3.115a7.201 7.201 0 0 0-.506.731h-.015c.015-.168.015-.414.015-.662V0h-.801v5.07h.815l2.294-3c.276-.361.414-.554.531-.759h.013c-.005.205-.013.459-.013.705V5.07h.808V0Z" style="fill:#777576;fill-opacity:1;fill-rule:nonzero;stroke:none;stroke-width:.193891" transform="matrix(1.81946 0 0 -1.81946 304.55 94.59)"/></g><g style="stroke-width:.193891"><path d="m0 0-1.869 2.238h-.016V0h-.801v5.07h.801V2.854h.016l1.777 2.201h.953l-2.047-2.463L1.016 0Z" style="fill:#777576;fill-opacity:1;fill-rule:nonzero;stroke:none;stroke-width:.193891" transform="matrix(1.81946 0 0 -1.81946 109.971 94.335)"/></g><g style="stroke-width:.193891"><path d="M0 0c-1.023 0-1.709-.723-1.709-1.906 0-1.178.686-1.903 1.709-1.903 1.016 0 1.698.725 1.698 1.903C1.698-.768 1.061 0 0 0m-1.84-.035C-1.385.426-.744.701 0 .701c.801 0 1.469-.291 1.921-.793.417-.461.64-1.084.64-1.799 0-.761-.262-1.431-.731-1.89C1.367-4.236.746-4.492 0-4.492c-.715 0-1.316.224-1.762.625-.508.471-.799 1.154-.799 1.945 0 .756.261 1.416.721 1.887" style="fill:#777576;fill-opacity:1;fill-rule:nonzero;stroke:none;stroke-width:.193891" transform="matrix(1.81946 0 0 -1.81946 117.164 86.304)"/></g><g style="stroke-width:.193891"><path d="M0 0h-.461v-1.688h.479c.521 0 .907.401.907.887C.925-.363.656 0 0 0m1.395-4.371C.602-3.063.21-2.371.008-2.318h-.469v-2.053h-.807v5.07h1.262c1.268 0 1.753-.64 1.753-1.416 0-.693-.454-1.138-.953-1.338v-.008c.207-.107.746-1.007 1.538-2.308Z" style="fill:#777576;fill-opacity:1;fill-rule:nonzero;stroke:none;stroke-width:.193891" transform="matrix(1.81946 0 0 -1.81946 125.696 86.382)"/></g><g style="stroke-width:.193891"><path d="M0 0v5.07h2.705l-.246-.691H.807v-1.44h1.646v-.695H.807V.693h1.906V0Z" style="fill:#777576;fill-opacity:1;fill-rule:nonzero;stroke:none;stroke-width:.193891" transform="matrix(1.81946 0 0 -1.81946 131.382 94.335)"/></g><g style="stroke-width:.193891"><path d="M0 0a5.444 5.444 0 0 0-.183.623H-.19A6.433 6.433 0 0 0-.391.006l-.501-1.36H.469zm1.24-3.324L.732-2.031h-1.877l-.477-1.293h-.8l1.961 5.086H.1l2.007-5.086z" style="fill:#777576;fill-opacity:1;fill-rule:nonzero;stroke:none;stroke-width:.193891" transform="matrix(1.81946 0 0 -1.81946 142.078 88.286)"/></g><g style="stroke-width:.193891"><path d="m0 0-1.869 2.238h-.016V0h-.801v5.07h.801V2.854h.016l1.777 2.201h.953l-2.047-2.463L1.016 0Z" style="fill:#777576;fill-opacity:1;fill-rule:nonzero;stroke:none;stroke-width:.193891" transform="matrix(1.81946 0 0 -1.81946 109.971 94.335)"/></g><g style="stroke-width:.193891"><path d="M0 0c-1.023 0-1.709-.723-1.709-1.906 0-1.178.686-1.903 1.709-1.903 1.016 0 1.698.725 1.698 1.903C1.698-.768 1.061 0 0 0m-1.84-.035C-1.385.426-.744.701 0 .701c.801 0 1.469-.291 1.921-.793.417-.461.64-1.084.64-1.799 0-.761-.262-1.431-.731-1.89C1.367-4.236.746-4.492 0-4.492c-.715 0-1.316.224-1.762.625-.508.471-.799 1.154-.799 1.945 0 .756.261 1.416.721 1.887" style="fill:#777576;fill-opacity:1;fill-rule:nonzero;stroke:none;stroke-width:.193891" transform="matrix(1.81946 0 0 -1.81946 117.164 86.304)"/></g><g style="stroke-width:.193891"><path d="M0 0h-.461v-1.688h.479c.521 0 .907.401.907.887C.925-.363.656 0 0 0m1.395-4.371C.602-3.063.21-2.371.008-2.318h-.469v-2.053h-.807v5.07h1.262c1.268 0 1.753-.64 1.753-1.416 0-.693-.454-1.138-.953-1.338v-.008c.207-.107.746-1.007 1.538-2.308Z" style="fill:#777576;fill-opacity:1;fill-rule:nonzero;stroke:none;stroke-width:.193891" transform="matrix(1.81946 0 0 -1.81946 125.696 86.382)"/></g><g style="stroke-width:.193891"><path d="M0 0v5.07h2.705l-.246-.691H.807v-1.44h1.646v-.695H.807V.693h1.906V0Z" style="fill:#777576;fill-opacity:1;fill-rule:nonzero;stroke:none;stroke-width:.193891" transform="matrix(1.81946 0 0 -1.81946 131.382 94.335)"/></g><g style="stroke-width:.193891"><path d="M0 0a5.444 5.444 0 0 0-.183.623H-.19A6.433 6.433 0 0 0-.391.006l-.501-1.36H.469zm1.24-3.324L.732-2.031h-1.877l-.477-1.293h-.8l1.961 5.086H.1l2.007-5.086z" style="fill:#777576;fill-opacity:1;fill-rule:nonzero;stroke:none;stroke-width:.193891" transform="matrix(1.81946 0 0 -1.81946 142.078 88.286)"/></g><g style="opacity:.75;stroke-width:.606958"><path fill="#954c01" d="m136.84 40.3-5.39 1.52q-1.09.14-.6-1.33 4.26-12.64-3.29-22.89-8.32-11.28-23.58-10.86-.57.02-1.4.84l-1.18-1.61-1.42-2.49q10.37-1.29 18.58 2.94 20.11 10.38 18.28 33.88z" style="stroke:none;stroke-width:1.23355" transform="matrix(.43546 0 0 .43637 -.687 -1.387)"/><path fill="#87000f" d="m99.98 3.48 1.42 2.49-3.39.86q-.46.12-.86.37-1.74 1.09-5.49 2.47-3.63 1.34-6.51 5.05-3.79 4.86-4.3 5.6-2.66 3.86-2.32 8.86.06.94-.19 2.6-.21 1.35.2 2.54.15.44.1.9-.14 1.29.79 2 .33.25.39.65l.54 3.8-8.81-3.87q-.9-11.56 6.09-21.16Q85.79 5.43 99.98 3.48Z" style="stroke:none;stroke-width:1.23355" transform="matrix(.43546 0 0 .43637 -.687 -1.387)"/><path fill="#b10012" d="m101.4 5.97 1.18 1.61 1.03 1.87 1.75 3.41q-1.17.21-5.06 2.02-7.88 3.65-8.11 11.16-.08 2.72.98 5.78c1.28 3.66 3.87 5.8 6.06 8.57q.29.36.74.46 1.43.33 2.31 1.4.34.4.76.69l5.86 3.98q-12.79.58-24.45-3.59l-4.09-1.66-.54-3.8q-.06-.4-.39-.65-.93-.71-.79-2 .05-.46-.1-.9-.41-1.19-.2-2.54.25-1.66.19-2.6-.34-5 2.32-8.86.51-.74 4.3-5.6 2.88-3.71 6.51-5.05 3.75-1.38 5.49-2.47.4-.25.86-.37z" style="stroke:none;stroke-width:1.23355" transform="matrix(.43546 0 0 .43637 -.687 -1.387)"/><path fill="#b75d02" d="m131.45 41.82-4.18 1.62q5.83-11.39 1.59-21.2-1.6-3.69-5.7-7.54-2.07-1.95-4.74-3.33-3.12-1.62-5.41-2.24-4.26-1.16-9.4.32l-1.03-1.87q.83-.82 1.4-.84 15.26-.42 23.58 10.86 7.55 10.25 3.29 22.89-.49 1.47.6 1.33z" style="stroke:none;stroke-width:1.23355" transform="matrix(.43546 0 0 .43637 -.687 -1.387)"/><path fill="#da7001" d="M127.27 43.44q-6.83 2.77-15.23 3.27v-7.99c3.74 1.68 7.16-1.26 9.15-4.03q.54-.76.71-2.11c.25-2.04 1.3-3.73 1.31-5.57q.01-4.92-3.02-8.25-4.9-5.38-13.25-2.74l-1.58-3.16-1.75-3.41q5.14-1.48 9.4-.32 2.29.62 5.41 2.24 2.67 1.38 4.74 3.33 4.1 3.85 5.7 7.54 4.24 9.81-1.59 21.2z" style="stroke:none;stroke-width:1.23355" transform="matrix(.43546 0 0 .43637 -.687 -1.387)"/><path fill="#cc0014" d="m105.36 12.86 1.58 3.16q4.61 11.26 5.1 22.7v7.99q-.11.05-.22.11l-2.92.1-5.86-3.98q-.42-.29-.76-.69-.88-1.07-2.31-1.4-.45-.1-.74-.46c-2.19-2.77-4.78-4.91-6.06-8.57q-1.06-3.06-.98-5.78.23-7.51 8.11-11.16 3.89-1.81 5.06-2.02z" style="stroke:none;stroke-width:1.23355" transform="matrix(.43546 0 0 .43637 -.687 -1.387)"/><path fill="#f47f00" d="M112.04 38.72q-.49-11.44-5.1-22.7 8.35-2.64 13.25 2.74 3.03 3.33 3.02 8.25c-.01 1.84-1.06 3.53-1.31 5.57q-.17 1.35-.71 2.11c-1.99 2.77-5.41 5.71-9.15 4.03z" style="stroke:none;stroke-width:1.23355" transform="matrix(.43546 0 0 .43637 -.687 -1.387)"/><path fill="#853663" d="m80.36 41.67 4.09 1.66q1.59 2.17 3.03 4.22 1.6 2.27 3.48 3.78 6.11 4.9 11.42 7.3 1.41.64 6.9 1.9l-2.85 8.2c-18.7.91-33.55-12.14-34.88-30.93Z" style="stroke:none;stroke-width:1.23355" transform="matrix(.43546 0 0 .43637 -.687 -1.387)"/><path fill="#b8b13f" d="M136.84 40.3c-2.51 15.52-14.49 27.35-30.41 28.43l2.85-8.2q2.13-6.71 2.54-13.71.11-.06.22-.11 8.4-.5 15.23-3.27l4.18-1.62z" style="stroke:none;stroke-width:1.23355" transform="matrix(.43546 0 0 .43637 -.687 -1.387)"/><path fill="#a6447b" d="M84.45 43.33q11.66 4.17 24.45 3.59l2.92-.1q-.41 7-2.54 13.71-5.49-1.26-6.9-1.9-5.31-2.4-11.42-7.3-1.88-1.51-3.48-3.78-1.44-2.05-3.03-4.22z" style="stroke:none;stroke-width:1.23355" transform="matrix(.43546 0 0 .43637 -.687 -1.387)"/><path fill="#954c01" d="M61.36 82.24q.59.85-2.63 1.24l-3.46-1.44q-.9-.37-.28.39 1.2 1.47 3.5 1.41-.52.27-.86 1.06l-1.31 1.25q-3.29-2.67-7.2-4.29-2.89-1.21-5.42-2.7-7.89-4.66-17.02-3.98-5.41.41-8.57 2.9c-5.19 4.1-6.16 12.08-1.75 17.3q2.31 2.73 3.85 4.75 2.21 2.87 4.22 4.33 5.49 3.98 11.83 6.56 5.97 2.43 11.01 5.48l2.22 5.92q.21.56-.35.35l-3.63-1.34.28.92q-17.31-7.09-31.77-17.64-7.3-5.33-9.89-10c-9.06-16.33 7.52-36.84 25.95-30.53q2.87.98 8.95 5.35 10.44 7.5 22.33 12.71z" style="stroke:none;stroke-width:1.23355" transform="matrix(.43546 0 0 .43637 -.687 -1.387)"/><path fill="#853663" d="M180.96 113.18q-4.08-.19-7.73 1.76-6.22 3.33-14.55 5.41-.75.19-.16-.3.93-.76 2.36-1.16 7.3-2.03 14.87-6.01 1.23-.65 5.13-2.16 2.68-1.04 4.76-2.75 2.53-2.08 5.01-4.2 2.78-2.38 4.43-4.75 2.39-3.45 3.61-6.62 2.29-5.99.54-12.96a.45.43 6.5 0 0-.23-.28l-.31-.17q-.38-.21-.5-.63-.73-2.52-2.61-3.94-7.85-5.96-17.1-3.4-2.32.65-5.52 1.26-2.86.55-5.43 1.91-1.31.7-4.29 2.13-2.33 1.13-4.28 3a.82.81 13.4 0 1-.33.2l-11.62 3.78-4.73.85q16.01-5.97 29.78-16.23c19.47-14.5 44.01 7.99 31.35 28.16q-2.42 3.85-7.85 7.78-7.18 5.2-14.6 9.32z" style="stroke:none;stroke-width:1.23355" transform="matrix(.43546 0 0 .43637 -.687 -1.387)"/><path fill="#a6447b" d="m180.96 113.18-1.61.96-.69-.66q-.12-.11-.17.04l-.13.35q-.02.07-.08.09l-19.27 7.12a.95.95 0 0 1-1.24-.64l-.12-.45 1.41-5.45q-.25.07.13-.26.57.91 1.65.53 9.74-3.42 18.13-7.47 6.35-3.06 9.72-6.43 4.38-4.4 6.54-9.96 1.98-5.07-.03-9.84-1.21-2.87-4.25-4.51-8.04-4.32-17.03-.63-2.94 1.2-6.36 3.1-3.18 1.76-6.36 3.06-5.41 2.21-10.62 5.04l-.8-.63-2.44-2.46q-.24-.23-.33-.78l11.62-3.78a.82.81 13.4 0 0 .33-.2q1.95-1.87 4.28-3 2.98-1.43 4.29-2.13 2.57-1.36 5.43-1.91 3.2-.61 5.52-1.26 9.25-2.56 17.1 3.4 1.88 1.42 2.61 3.94.12.42.5.63l.31.17a.45.43 6.5 0 1 .23.28q1.75 6.97-.54 12.96-1.22 3.17-3.61 6.62-1.65 2.37-4.43 4.75-2.48 2.12-5.01 4.2-2.08 1.71-4.76 2.75-3.9 1.51-5.13 2.16-7.57 3.98-14.87 6.01-1.43.4-2.36 1.16-.59.49.16.3 8.33-2.08 14.55-5.41 3.65-1.95 7.73-1.76z" style="stroke:none;stroke-width:1.23355" transform="matrix(.43546 0 0 .43637 -.687 -1.387)"/><path fill="#d05698" d="m159.19 114.28.14-8.49q-1.33-9.94-7.96-17.58l-.79-1.04q5.21-2.83 10.62-5.04 3.18-1.3 6.36-3.06 3.42-1.9 6.36-3.1 8.99-3.69 17.03.63 3.04 1.64 4.25 4.51 2.01 4.77.03 9.84-2.16 5.56-6.54 9.96-3.37 3.37-9.72 6.43-8.39 4.05-18.13 7.47-1.08.38-1.65-.53z" style="stroke:none;stroke-width:1.23355" transform="matrix(.43546 0 0 .43637 -.687 -1.387)"/><path fill="#da7001" d="m56.32 86.15-1.55 2.01-3.66 5.18-.74 1.09-5.79-3.81q-.4-.26-.88-.3-1.81-.13-3.12-1.16c-3.68-2.88-11.45-6.01-15.55-2.44q-2.28 1.99-1.83 5.29.22 1.59 1.72 3.69 1.21 1.68 2.33 3.43.79 1.24 2.23 2.3 1.42 1.04 2.61 2.37.05.06.11 0 .08-.09.18-.18.09-.09.2-.03 3.8 2.03 7.64 4.01c1.95 1 5.32.66 5.56 4.14q.03.53.55.65l.52.14.03.73.43 2.2-.04 1.04q-5.04-3.05-11.01-5.48-6.34-2.58-11.83-6.56-2.01-1.46-4.22-4.33-1.54-2.02-3.85-4.75c-4.41-5.22-3.44-13.2 1.75-17.3q3.16-2.49 8.57-2.9 9.13-.68 17.02 3.98 2.53 1.49 5.42 2.7 3.91 1.62 7.2 4.29z" style="stroke:none;stroke-width:1.23355" transform="matrix(.43546 0 0 .43637 -.687 -1.387)"/><path fill="#b75d02" d="M58.73 83.48q.56-.1-.24.36-2.3.06-3.5-1.41-.62-.76.28-.39z" style="stroke:none;stroke-width:1.23355" transform="matrix(.43546 0 0 .43637 -.687 -1.387)"/><path fill="#b8b13f" d="M61.36 82.24q20.74 8.84 43.56 8.53l.76 2.92.31 3.8q-14.27.48-27.52-4-8.52-2.88-16.46-6.97-1.99-1.03-4.38-1.62.34-.79.86-1.06.8-.46.24-.36 3.22-.39 2.63-1.24z" style="stroke:none;stroke-width:1.23355" transform="matrix(.43546 0 0 .43637 -.687 -1.387)"/><path fill="#87000f" d="M147.01 83.3q.09.55.33.78-4.27.39-6.81 1.96-2.42 1.5-4.74 1.97-3.95.8-4.01.82-5.19 1.56-10.44 2.82-3.28.79-7.79 1.18-3.92.34-7.87.86l-.76-2.92q19.2-.21 37.36-6.62z" style="stroke:none;stroke-width:1.23355" transform="matrix(.43546 0 0 .43637 -.687 -1.387)"/><path fill="#b10012" d="m147.34 84.08 2.44 2.46c-2.49.4-4.25 1.87-6.45 2.48-3.07.83-6.17 2.47-8.69 3.3q-13.66 4.55-28.03 5.95-.22.03-.29.24-.05.14-.14.22-.21-.52-.19-1.24l-.31-3.8q3.95-.52 7.87-.86 4.51-.39 7.79-1.18 5.25-1.26 10.44-2.82.06-.02 4.01-.82 2.32-.47 4.74-1.97 2.54-1.57 6.81-1.96z" style="stroke:none;stroke-width:1.23355" transform="matrix(.43546 0 0 .43637 -.687 -1.387)"/><path fill="#d2ca44" d="M57.63 84.9q2.39.59 4.38 1.62 7.94 4.09 16.46 6.97 13.25 4.48 27.52 4-.02.72.19 1.24.12.53.01.94-9.45.01-12.44-.29-8.57-.86-16.74-3.54c-2.4-.78-4.87-.84-7.28-1.8q-7.43-2.98-14.96-5.88l1.55-2.01z" style="stroke:none;stroke-width:1.23355" transform="matrix(.43546 0 0 .43637 -.687 -1.387)"/><path fill="#f47f00" d="M50.37 94.43q-4.03 8.18-3.68 15.29l.16 2.81-.52-.14q-.52-.12-.55-.65c-.24-3.48-3.61-3.14-5.56-4.14q-3.84-1.98-7.64-4.01-.11-.06-.2.03-.1.09-.18.18-.06.06-.11 0-1.19-1.33-2.61-2.37-1.44-1.06-2.23-2.3-1.12-1.75-2.33-3.43-1.5-2.1-1.72-3.69-.45-3.3 1.83-5.29c4.1-3.57 11.87-.44 15.55 2.44q1.31 1.03 3.12 1.16.48.04.88.3z" style="stroke:none;stroke-width:1.23355" transform="matrix(.43546 0 0 .43637 -.687 -1.387)"/><path fill="#cc0014" d="m149.78 86.54.8.63.79 1.04q-7.98 4.58-11.51 5.38-2.93.67-4.28 1.32-.42.2-.88.19-2.69-.06-4.84 1.54a1.37 1.37 0 0 1-.86.28q-3.1-.07-5.93.96-2.85 1.04-4.63 1.25-3.29.39-6.57 1.01a1.35 1.32-34.7 0 1-.88-.15q-.75-.43-.98.19-.21.56-.77.35-2.36-.87-2.89 1.55l-.16-2.41q.11-.41-.01-.94.09-.08.14-.22.07-.21.29-.24 14.37-1.4 28.03-5.95c2.52-.83 5.62-2.47 8.69-3.3 2.2-.61 3.96-2.08 6.45-2.48z" style="stroke:none;stroke-width:1.23355" transform="matrix(.43546 0 0 .43637 -.687 -1.387)"/><path fill="#eae34a" d="M54.77 88.16q7.53 2.9 14.96 5.88c2.41.96 4.88 1.02 7.28 1.8q8.17 2.68 16.74 3.54 2.99.3 12.44.29l.16 2.41.1 1.79q-9.03.47-18.02-.34-.97-.09-4.31-.77-1.75-.36-4.36-.68-7.61-.94-23.09-6.4c-1.61-.57-3.99-.77-5.56-2.34z" style="stroke:none;stroke-width:1.23355" transform="matrix(.43546 0 0 .43637 -.687 -1.387)"/><path fill="#f00017" d="M151.37 88.21q6.63 7.64 7.96 17.58-1.86 1.16-3.85 1.17-.48.01-.76.39-.76 1.02-1.97.77-.4-.08-.79.04-2.8.89-5.23 2.59a2.09 2.05 20.6 0 1-.75.33q-1.41.29-4.74 1.42-6.19 2.09-12.34 3.96-2.1.63-4.29.73-2.62.11-8.36 1.61-.72.19-2.53.37-1.53.16-2.94.67-.45.17-.92.06l-3.72-.86.31-15.17-.1-1.79q.53-2.42 2.89-1.55.56.21.77-.35.23-.62.98-.19a1.35 1.32-34.7 0 0 .88.15q3.28-.62 6.57-1.01 1.78-.21 4.63-1.25 2.83-1.03 5.93-.96a1.37 1.37 0 0 0 .86-.28q2.15-1.6 4.84-1.54.46.01.88-.19 1.35-.65 4.28-1.32 3.53-.8 11.51-5.38z" style="stroke:none;stroke-width:1.23355" transform="matrix(.43546 0 0 .43637 -.687 -1.387)"/><path fill="#fef94e" d="M51.11 93.34c1.57 1.57 3.95 1.77 5.56 2.34q15.48 5.46 23.09 6.4 2.61.32 4.36.68 3.34.68 4.31.77 8.99.81 18.02.34l-.31 15.17-.15.72q-3.76-.3-7.49-.34-5.4-.05-7.47-.21-22.6-1.7-44.34-9.49-.35-7.11 3.68-15.29z" style="stroke:none;stroke-width:1.23355" transform="matrix(.43546 0 0 .43637 -.687 -1.387)"/><path fill="#cc0014" d="m159.33 105.79-.14 8.49q-.38.33-.13.26-.95.48-1.52 1.27-.29.41-.79.44-1.94.11-3.72.9-8.04 3.57-16.62 5.58c-1.99.47-3.6 2.25-6.47 1.55a1.44 1.4-45.8 0 0-.74.02q-11.31 3.49-23.12 2.45-.24-.02-.42.14l-.37.32.18-2.66.52-4.79.15-.72 3.72.86q.47.11.92-.06 1.41-.51 2.94-.67 1.81-.18 2.53-.37 5.74-1.5 8.36-1.61 2.19-.1 4.29-.73 6.15-1.87 12.34-3.96 3.33-1.13 4.74-1.42a2.09 2.05 20.6 0 0 .75-.33q2.43-1.7 5.23-2.59.39-.12.79-.04 1.21.25 1.97-.77.28-.38.76-.39 1.99-.01 3.85-1.17z" style="stroke:none;stroke-width:1.23355" transform="matrix(.43546 0 0 .43637 -.687 -1.387)"/><path fill="#eae34a" d="m105.99 119.76-.52 4.79q-8.58-.58-17.14-1.04-.14-.01-1.11.11-.7.09-1.2-.41-.34-.35-.83-.42-7.63-1.01-15.26-2.15-3.66-.55-6.95-1.77c-4.63-1.71-9.15-3.9-14.11-4.46q-.66-.07-1.99-1.15l-.03-.73-.16-2.81q21.74 7.79 44.34 9.49 2.07.16 7.47.21 3.73.04 7.49.34z" style="stroke:none;stroke-width:1.23355" transform="matrix(.43546 0 0 .43637 -.687 -1.387)"/><path fill="#d2ca44" d="M46.88 113.26q1.33 1.08 1.99 1.15c4.96.56 9.48 2.75 14.11 4.46q3.29 1.22 6.95 1.77 7.63 1.14 15.26 2.15.49.07.83.42.5.5 1.2.41.97-.12 1.11-.11 8.56.46 17.14 1.04l-.18 2.66q-.02.49-.24.82-6.52-1.01-13.08-1.39c-3.38-.2-6.52-.72-9.8-1.14q-3.14-.4-7.25-1.42-3.24-.81-6.53-1.35-2.18-.35-4.17-1.04-2.05-.71-4.12-1.34c-3.38-1.03-7.22-3.11-11.24-3.84q-.47-.09-.71-.5-.37-.65-.84-.55z" style="stroke:none;stroke-width:1.23355" transform="matrix(.43546 0 0 .43637 -.687 -1.387)"/><path fill="#853663" d="m179.35 114.14-16.75 8.07q-3.03 1.41-6.33 2.73-.38.15-.54 0-.2-.2-.08-.7l.63-1.23 1.37-3.02.12.45a.95.95 0 0 0 1.24.64l19.27-7.12q.06-.02.08-.09l.13-.35q.05-.15.17-.04z" style="stroke:none;stroke-width:1.23355" transform="matrix(.43546 0 0 .43637 -.687 -1.387)"/><path fill="#b10012" d="m159.06 114.54-1.41 5.45-1.37 3.02q-.48-.52-1.01-.24-3.08 1.64-7 2.28-1.04.17-3.26.98-1.73.63-3.52.25-.32-.07 0-.14 2-.44 4.02-.99.58-.15 4.04-.8 2.99-.55 5.67-2.19a.26.26 0 0 0-.18-.48c-2.36.34-5.15 1.49-6.88 1.87q-10.82 2.36-21.66 4.58-10.52 2.16-21.63 1.4l.18-1.5q.22-.33.24-.82l.37-.32q.18-.16.42-.14 11.81 1.04 23.12-2.45a1.44 1.4-45.8 0 1 .74-.02c2.87.7 4.48-1.08 6.47-1.55q8.58-2.01 16.62-5.58 1.78-.79 3.72-.9.5-.03.79-.44.57-.79 1.52-1.27z" style="stroke:none;stroke-width:1.23355" transform="matrix(.43546 0 0 .43637 -.687 -1.387)"/><path fill="#b8b13f" d="M47.31 115.46q.47-.1.84.55.24.41.71.5c4.02.73 7.86 2.81 11.24 3.84q2.07.63 4.12 1.34 1.99.69 4.17 1.04 3.29.54 6.53 1.35 4.11 1.02 7.25 1.42c3.28.42 6.42.94 9.8 1.14q6.56.38 13.08 1.39l-.18 1.5-.83 3.28-6.82.14q-1.03-.04-2.05.75-.41.31-.77-.04l-.25-.26q-.32-.32-.76-.29-2.9.18-5.71-.37-4.85-.95-5.45-1.03-13.96-1.78-27.33-6.19-2.07-.68-4.73-1.95-2.1-1.01-4.66-2.14l3.63 1.34q.56.21.35-.35l-2.22-5.92z" style="stroke:none;stroke-width:1.23355" transform="matrix(.43546 0 0 .43637 -.687 -1.387)"/><path fill="#87000f" d="m156.28 123.01-.63 1.23q-.2.91-.9 1.14-20.32 6.75-44.04 8.77l-7.5-.37q-.13-.2-.22-.35-.16-.25-.04-.37.21-.23 1.09-.25l.83-3.28q11.11.76 21.63-1.4 10.84-2.22 21.66-4.58c1.73-.38 4.52-1.53 6.88-1.87a.26.26 0 0 1 .18.48q-2.68 1.64-5.67 2.19-3.46.65-4.04.8-2.02.55-4.02.99-.32.07 0 .14 1.79.38 3.52-.25 2.22-.81 3.26-.98 3.92-.64 7-2.28.53-.28 1.01.24z" style="stroke:none;stroke-width:1.23355" transform="matrix(.43546 0 0 .43637 -.687 -1.387)"/><path fill="#853663" d="m45.79 122.35-.28-.92q2.56 1.13 4.66 2.14 2.66 1.27 4.73 1.95 13.37 4.41 27.33 6.19.6.08 5.45 1.03 2.81.55 5.71.37.44-.03.76.29l.25.26q.36.35.77.04 1.02-.79 2.05-.75l-.22.27q-.31.38.17.49.64.15 1.05.01.22.28.06.51-.1.13-.38.19-15.95 3.52-23.82 19.29-.06-10.18-5.38-16.41-1.38-1.62-3.55-2-5.63-.98-10.15.79-9.27 3.65-18.05 11.55c-2.35 2.1-2.97 4.92-4.18 7.74q-.19.43-.51.08-.24-.25-.12-1.04 2.86-17.7 13.65-32.07z" style="stroke:none;stroke-width:1.23355" transform="matrix(.43546 0 0 .43637 -.687 -1.387)"/><path fill="#954c01" d="M162.6 122.21q13.08 17.56 14.61 39.22-4.78-9.66-9.63-14.54-1.06-1.06-4.82-3.36-1.42-.87-4.65-3.53c-3.96-3.27-8.41-3.13-14.23-2.96a.87.86-74.2 0 0-.71.4q-4.04 6.2-5.14 13.54a.31.3 17.4 0 0 .18.33q.25.11.21.45-.6 4.44-2.01 8.72-4.69-20.1-25.7-26.33 23.72-2.02 44.04-8.77.7-.23.9-1.14-.12.5.08.7.16.15.54 0 3.3-1.32 6.33-2.73zM104.04 132.81q-.88.02-1.09.25-.12.12.04.37.09.15.22.35l-4.99-.06q-.41.14-1.05-.01-.48-.11-.17-.49l.22-.27z" style="stroke:none;stroke-width:1.23355" transform="matrix(.43546 0 0 .43637 -.687 -1.387)"/><path fill="#a6447b" d="M74.08 153.71q-3.68 9.45-1.62 20.52l-4.3-.23-1.69-.11q.38-7.37-1-13.95-.47-2.25-1.97-5.56-1.22-2.69-2.25-5.48c-1.1-2.99-3.3-3.78-6.18-2.72q-.46.17-.94.12-2.9-.28-4.71 1.13-5.33 4.15-10.34 10.91-1.69 2.26-2.07 4.82-.81 5.46.13 10.95c.37 2.13.29 4.3.45 6.62q.1 1.51 1.06 1.32l-4.48 5.52q-4.85-16.56-2.03-33.15-.12.79.12 1.04.32.35.51-.08c1.21-2.82 1.83-5.64 4.18-7.74q8.78-7.9 18.05-11.55 4.52-1.77 10.15-.79 2.17.38 3.55 2 5.32 6.23 5.38 16.41z" style="stroke:none;stroke-width:1.23355" transform="matrix(.43546 0 0 .43637 -.687 -1.387)"/><path fill="#b75d02" d="M177.21 161.43q.93 12.99-2.78 25.78l-4-4.54q-.24-1.63.28-4.92.8-4.99.62-11.22-.12-4.01-1.55-7.32-1.85-4.3-4.02-6.46-2.93-2.94-5.8-5.97a1.29 1.28 72.8 0 0-.73-.39q-2.05-.33-3.52-1.83-.49-.5-1.18-.38l-5.87 1.05q-.53.1-.76.58-2.38 5.04-3.96 10.37c-1.71 5.78-1.25 11.66-1.03 17.74l-1.88.13-5.25 1.03q1.62-7.48.63-14.6 1.41-4.28 2.01-8.72.04-.34-.21-.45a.31.3 17.4 0 1-.18-.33q1.1-7.34 5.14-13.54a.87.86-74.2 0 1 .71-.4c5.82-.17 10.27-.31 14.23 2.96q3.23 2.66 4.65 3.53 3.76 2.3 4.82 3.36 4.85 4.88 9.63 14.54z" style="stroke:none;stroke-width:1.23355" transform="matrix(.43546 0 0 .43637 -.687 -1.387)"/><path fill="#da7001" d="m170.43 182.67-1.02-.74-3.27-2.41-1.09-.8q.63-6.06.82-12.17.11-3.65-1.12-6.2-2.02-4.22-5.73-7.37-.37-.31-.86-.32l-6.29-.12q-.51-.01-.74.44-2.53 4.83-2.65 7.03-.39 6.86-.67 13.71l-2.23.09-2.67.11c-.22-6.08-.68-11.96 1.03-17.74q1.58-5.33 3.96-10.37.23-.48.76-.58l5.87-1.05q.69-.12 1.18.38 1.47 1.5 3.52 1.83a1.29 1.28 72.8 0 1 .73.39q2.87 3.03 5.8 5.97 2.17 2.16 4.02 6.46 1.43 3.31 1.55 7.32.18 6.23-.62 11.22-.52 3.29-.28 4.92z" style="stroke:none;stroke-width:1.23355" transform="matrix(.43546 0 0 .43637 -.687 -1.387)"/><path fill="#d05698" d="m66.47 173.89-7.36.04q-7.01.3-13.36 3.3l-6.6 4.47q-.19.34-.5.35-.96.19-1.06-1.32c-.16-2.32-.08-4.49-.45-6.62q-.94-5.49-.13-10.95.38-2.56 2.07-4.82 5.01-6.76 10.34-10.91 1.81-1.41 4.71-1.13.48.05.94-.12c2.88-1.06 5.08-.27 6.18 2.72q1.03 2.79 2.25 5.48 1.5 3.31 1.97 5.56 1.38 6.58 1 13.95z" style="stroke:none;stroke-width:1.23355" transform="matrix(.43546 0 0 .43637 -.687 -1.387)"/><path fill="#f47f00" d="m165.05 178.72-4.2-2.13q-5.58-2.2-10.87-2.54l-2.17-.33q.28-6.85.67-13.71.12-2.2 2.65-7.03.23-.45.74-.44l6.29.12q.49.01.86.32 3.71 3.15 5.73 7.37 1.23 2.55 1.12 6.2-.19 6.11-.82 12.17z" style="stroke:none;stroke-width:1.23355" transform="matrix(.43546 0 0 .43637 -.687 -1.387)"/><path fill="#cc0014" d="m66.47 173.89 1.69.11q.7 1.87 1.55 3.54.53 1.04 1.27 3.61.64 2.19 2.42 4.7 2.91 4.11 5.31 6.16c1.15.98 1.83 2.43 3.19 3.21q.41.24.69.62c.81 1.09 2.46 1.61 3.25 2.17q3.73 2.59 7.94 3.52 4.35.97 11.14 1.77.03.08.06.17l1.1 4.6.63 4.12q-2.95.5-4.94-.77-.42-.26-.91-.29-7.47-.45-10.09-1.29-4.19-1.34-11.98-6.4-6.75-4.39-11.59-10.7-1.4-1.83-3.1-5.33-1.34-2.77-2.91-5.45-.95-1.62-2.08-8.03z" style="stroke:none;stroke-width:1.23355" transform="matrix(.43546 0 0 .43637 -.687 -1.387)"/><path fill="#d2ca44" d="M145.58 173.81q-3.85 15.33-15.45 24.99-4.96 4.13-11.28 6.35-6.12 2.16-12.77 2.92l-1.1-4.6q9.49-1.89 12.67-3.05 5.99-2.21 10.69-6.6 4.21-3.95 7.57-8.66 1.57-2.2 2.83-5.41 1.1-2.79 2.29-5.7l1.88-.13z" style="stroke:none;stroke-width:1.23355" transform="matrix(.43546 0 0 .43637 -.687 -1.387)"/><path fill="#eae34a" d="m145.58 173.81 2.23-.09 2.17.33q-3.97 20.75-21.4 32.33-3.58 2.38-7.71 3.27-1.94.42-3.52 1.23c-3.29 1.68-7.03 1.59-10.47 2.28q-.19-.29-.17-.97l-.63-4.12q6.65-.76 12.77-2.92 6.32-2.22 11.28-6.35 11.6-9.66 15.45-24.99z" style="stroke:none;stroke-width:1.23355" transform="matrix(.43546 0 0 .43637 -.687 -1.387)"/><path fill="#f00017" d="M59.11 173.93q1.13 6.41 2.08 8.03 1.57 2.68 2.91 5.45 1.7 3.5 3.1 5.33 4.84 6.31 11.59 10.7 7.79 5.06 11.98 6.4 2.62.84 10.09 1.29.49.03.91.29 1.99 1.27 4.94.77-.02.68.17.97l.13 10.68q-.23.31-.3 1.45-10.16.18-17.21-1.66-5.94-1.55-8.74-3.14-1.78-1.01-3.4-1.11-.49-.03-.89-.33-3.25-2.54-6.74-4.73-2-1.25-3.74-3-1.71-1.72-3.55-3.31-1.85-1.59-2.92-3.18-1.23-1.82-2.35-3.7-.89-1.5-3.2-4.46-1.71-2.2-2.79-4.82-2.96-7.14-5.43-14.62 6.35-3 13.36-3.3z" style="stroke:none;stroke-width:1.23355" transform="matrix(.43546 0 0 .43637 -.687 -1.387)"/><path fill="#b10012" d="m68.16 174 4.3.23q7.32 23.16 31.68 25.03-.23 1.63.78 4.04-6.79-.8-11.14-1.77-4.21-.93-7.94-3.52c-.79-.56-2.44-1.08-3.25-2.17q-.28-.38-.69-.62c-1.36-.78-2.04-2.23-3.19-3.21q-2.4-2.05-5.31-6.16-1.78-2.51-2.42-4.7-.74-2.57-1.27-3.61-.85-1.67-1.55-3.54z" style="stroke:none;stroke-width:1.23355" transform="matrix(.43546 0 0 .43637 -.687 -1.387)"/><path fill="#b8b13f" d="M141.03 174.05q-1.19 2.91-2.29 5.7-1.26 3.21-2.83 5.41-3.36 4.71-7.57 8.66-4.7 4.39-10.69 6.6-3.18 1.16-12.67 3.05-.03-.09-.06-.17-1.01-2.41-.78-4.04 24.11-1.7 31.64-24.18z" style="stroke:none;stroke-width:1.23355" transform="matrix(.43546 0 0 .43637 -.687 -1.387)"/><path fill="#fef94e" d="M149.98 174.05q5.29.34 10.87 2.54-.55 3.39-1.95 6.41c-.64 1.39-.55 3.34-1.37 4.9q-1.65 3.13-2.92 6.44c-1.02 2.67-2.93 4.46-4.47 6.82q-1.98 3.05-3.83 4.76-9.21 8.57-12.84 10.52-12.4 6.64-26.46 7.4l-.13-10.68c3.44-.69 7.18-.6 10.47-2.28q1.58-.81 3.52-1.23 4.13-.89 7.71-3.27 17.43-11.58 21.4-32.33z" style="stroke:none;stroke-width:1.23355" transform="matrix(.43546 0 0 .43637 -.687 -1.387)"/><path fill="#eae34a" d="m160.85 176.59 4.2 2.13 1.09.8q-.74 2.26-1.32 4.55-.55 2.19-1.6 4.44-1.07 2.28-1.88 4.68c-.72 2.16-2.14 3.65-2.85 5.3q-1.36 3.2-2.94 4.98c-1.79 2.01-2.82 4.29-4.7 6.29q-17.99 19.18-44.8 20.01l.66-4.48q.07-1.14.3-1.45 14.06-.76 26.46-7.4 3.63-1.95 12.84-10.52 1.85-1.71 3.83-4.76c1.54-2.36 3.45-4.15 4.47-6.82q1.27-3.31 2.92-6.44c.82-1.56.73-3.51 1.37-4.9q1.4-3.02 1.95-6.41z" style="stroke:none;stroke-width:1.23355" transform="matrix(.43546 0 0 .43637 -.687 -1.387)"/><path fill="#cc0014" d="M45.75 177.23q2.47 7.48 5.43 14.62 1.08 2.62 2.79 4.82 2.31 2.96 3.2 4.46 1.12 1.88 2.35 3.7 1.07 1.59 2.92 3.18 1.84 1.59 3.55 3.31 1.74 1.75 3.74 3 3.49 2.19 6.74 4.73.4.3.89.33 1.62.1 3.4 1.11 2.8 1.59 8.74 3.14 7.05 1.84 17.21 1.66l-.66 4.48-.79 3.08q-2.61.9-5.26.58-2.74-.33-5.48-.52-3.46-.24-5.47-.69-7.78-1.75-14.75-5.78-.09-.05-.35-.13-.3-.09-.34-.36-.06-.39-.44-.51-3.73-1.18-6.8-3.47-.66-.49-3.79-2.54-1.69-1.11-3.58-2.98-15.06-14.91-19.85-34.75Z" style="stroke:none;stroke-width:1.23355" transform="matrix(.43546 0 0 .43637 -.687 -1.387)"/><path fill="#d2ca44" d="m166.14 179.52 3.27 2.41q-1.87 8.6-5.85 16.62-.53 1.09-1.68 2.71-.93 1.31-1.71 2.71-1.18 2.14-2.78 3.82c-1.77 1.85-3.22 4.11-4.9 5.75q-8.09 7.89-15.64 12.05-10.31 5.68-24.37 7.93-.07.01-1.48.07c-2.18.09-3.43 1.18-5.84-.06l.1-.68.79-3.08q26.81-.83 44.8-20.01c1.88-2 2.91-4.28 4.7-6.29q1.58-1.78 2.94-4.98c.71-1.65 2.13-3.14 2.85-5.3q.81-2.4 1.88-4.68 1.05-2.25 1.6-4.44.58-2.29 1.32-4.55z" style="stroke:none;stroke-width:1.23355" transform="matrix(.43546 0 0 .43637 -.687 -1.387)"/><path fill="#b10012" d="M39.15 181.7q4.79 19.84 19.85 34.75 1.89 1.87 3.58 2.98 3.13 2.05 3.79 2.54 3.07 2.29 6.8 3.47.38.12.44.51.04.27.34.36.26.08.35.13 6.97 4.03 14.75 5.78 2.01.45 5.47.69 2.74.19 5.48.52 2.65.32 5.26-.58l-.1.68-1.91 6.01c-27.94.06-52.31-16.36-64.68-40.6q-2.56-5.01-4.4-11.37l4.48-5.52q.31-.01.5-.35z" style="stroke:none;stroke-width:1.23355" transform="matrix(.43546 0 0 .43637 -.687 -1.387)"/><path fill="#b8b13f" d="m169.41 181.93 1.02.74 4 4.54c-9.82 31.36-37.97 52.99-71.18 52.33l1.91-6.01c2.41 1.24 3.66.15 5.84.06q1.41-.06 1.48-.07 14.06-2.25 24.37-7.93 7.55-4.16 15.64-12.05c1.68-1.64 3.13-3.9 4.9-5.75q1.6-1.68 2.78-3.82.78-1.4 1.71-2.71 1.15-1.62 1.68-2.71 3.98-8.02 5.85-16.62z" style="stroke:none;stroke-width:1.23355" transform="matrix(.43546 0 0 .43637 -.687 -1.387)"/></g></svg>