<svg xmlns="http://www.w3.org/2000/svg" xml:space="preserve" width="2069.2544" height="300.00003" viewBox="0 0 2069.2544 300.00003"><path d="M309.77 156.262h7.447v-18.52l13.411 18.52h9.15l-15.266-20.303 15.912-22.776h-9.742l-13.353 20.002h-.112v-20.002h-7.447v43.079M343.914 135.856c.708 2.097 1.72 3.885 3.034 5.368 1.312 1.47 2.831 2.599 4.566 3.356 1.734.762 3.611 1.143 5.636 1.143 2.017 0 3.908-.381 5.655-1.143 1.757-.757 3.294-1.886 4.606-3.356 1.3-1.483 2.313-3.262 3.02-5.332.709-2.08 1.063-4.41 1.063-6.995 0-2.312-.314-4.454-.96-6.448-.64-1.985-1.572-3.728-2.809-5.202-1.246-1.483-2.76-2.64-4.548-3.486-1.792-.842-3.8-1.26-6.027-1.26-2.195 0-4.194.418-5.977 1.26-1.792.847-3.293 2.003-4.517 3.486-1.227 1.474-2.164 3.217-2.823 5.202-.654 1.994-.976 4.136-.976 6.448 0 2.545.35 4.866 1.057 6.959zm6.708-10.01c.21-1.295.578-2.465 1.116-3.513.524-1.049 1.245-1.878 2.141-2.496.906-.614 1.994-.923 3.271-.923 1.309 0 2.411.31 3.316.923.9.618 1.609 1.447 2.129 2.496.51 1.048.878 2.204 1.115 3.477.224 1.277.34 2.626.34 4.068 0 2.626-.59 4.858-1.782 6.686-1.183 1.824-2.89 2.742-5.118 2.742-2.155 0-3.844-.923-5.045-2.769-1.196-1.855-1.797-4.069-1.797-6.659 0-1.402.103-2.742.314-4.032M377.31 144.92h6.309v-7.097h.112c.062.762.3 1.613.708 2.532.42.923.95 1.787 1.626 2.603a8.727 8.727 0 0 0 2.34 2.003c.89.502 1.827.762 2.822.762.955 0 1.69-.09 2.191-.247v-8.348c-.327.211-.775.377-1.34.498a8.53 8.53 0 0 1-1.85.197c-1.367 0-2.442-.448-3.258-1.3-.81-.864-1.402-1.958-1.756-3.27a20.199 20.199 0 0 1-.663-3.926 68.377 68.377 0 0 1-.14-4.476v-11.668h-7.101v31.738M418.793 115.034c-2.635-1.694-5.771-2.532-9.428-2.532-4.503 0-8.007 1.443-10.507 4.306-2.5 2.872-3.755 6.923-3.755 12.143 0 4.853 1.098 8.859 3.289 12.022 2.191 3.163 5.319 4.75 9.387 4.75 2.474 0 4.553-.462 6.229-1.403 1.68-.923 3.01-2.245 3.996-3.952 1-1.716 1.708-3.728 2.129-6.036.417-2.298.636-4.928.636-7.854H401.86c.148-2.478.932-4.423 2.348-5.812 1.416-1.407 3.244-2.093 5.476-2.093 1.6 0 3.136.283 4.606.86a24.561 24.561 0 0 1 4.503 2.349zm-4.785 17.17c-.112 2.214-.632 4.006-1.569 5.381-.94 1.38-2.352 2.062-4.239 2.062-1.917 0-3.4-.672-4.471-2.035-1.071-1.353-1.685-3.15-1.869-5.408h12.148M427.602 143.308c1.376.739 2.94 1.33 4.66 1.76 1.717.435 3.334.655 4.871.655 4.185 0 7.205-1.062 9.056-3.177 1.86-2.124 2.782-5.525 2.782-10.225v-4.07c0-1.563.013-2.898.027-3.978.017-1.102.054-2.424.085-3.988.032-2.178.14-4.548.323-7.102h-6.278c-.062.578-.13 1.17-.183 1.783-.05.632-.085 1.327-.085 2.102-.032.376-.045.667-.045.87h-.103c-.784-1.681-1.963-3.021-3.545-3.984-1.568-.968-3.217-1.452-4.91-1.452-2.586 0-4.83.838-6.722 2.545-1.895 1.694-2.85 3.988-2.85 6.851 0 2.254.422 4.11 1.255 5.592.829 1.483 1.963 2.621 3.419 3.437 1.228.699 2.626 1.187 4.18 1.447 1.56.265 3.213.395 4.983.395h3.925c0 2.522-.484 4.301-1.47 5.332-.972 1.03-2.54 1.546-4.7 1.546-1.496 0-2.966-.305-4.422-.923a15.504 15.504 0 0 1-4.037-2.528zm5.1-23.798c.833-.632 1.917-.937 3.266-.937 2.12 0 3.79.923 4.992 2.77.569.86.95 1.828 1.165 2.917.22 1.088.322 2.285.322 3.584h-3.083c-.958 0-1.877-.049-2.76-.183a8.18 8.18 0 0 1-2.5-.758 4.96 4.96 0 0 1-1.909-1.693c-.497-.735-.748-1.68-.748-2.823 0-1.3.421-2.259 1.255-2.877M482.053 156.262h8.402l14.58-43.08h-8.253l-3.19 9.859h-15.047l-3.253-9.858h-7.716zm4.096-8.595h-.103l-5.377-17.865h10.848l-5.368 17.865M534.407 144.92v-28.704c0-2.298-.228-4.449-.685-6.438-.462-2.003-1.233-3.764-2.308-5.31-1.08-1.537-2.576-2.77-4.463-3.679-1.89-.892-4.22-1.353-6.986-1.353-1.563 0-3.136.17-4.713.497-1.578.327-3.173.883-4.763 1.667l.591 7.026c1.165-.74 2.518-1.376 4.069-1.94 1.541-.551 2.84-.83 3.911-.83 1.878 0 3.388.355 4.517 1.076 1.138.74 1.967 1.694 2.496 2.904a12.57 12.57 0 0 1 1.021 3.768c.13 1.326.211 2.872.211 4.642h-.107c-.708-1.438-1.833-2.648-3.361-3.611-1.524-.968-3.249-1.452-5.166-1.452-1.954 0-3.652.421-5.086 1.272-1.443.838-2.6 2.003-3.49 3.482-.884 1.492-1.551 3.177-1.972 5.09-.43 1.918-.637 3.993-.637 6.21 0 2.017.22 3.993.69 5.92.462 1.931 1.156 3.714 2.102 5.319.936 1.6 2.15 2.872 3.638 3.817 1.492.946 3.213 1.43 5.167 1.43 1.882 0 3.508-.417 4.897-1.246 1.38-.816 2.55-2.11 3.509-3.885h.107v4.329zm-8.652-22.574c1.026 1.833 1.55 4.185 1.55 7.062 0 2.886-.502 5.265-1.497 7.116-.994 1.85-2.49 2.782-4.49 2.782-1.169 0-2.155-.273-2.98-.838-.815-.55-1.469-1.313-1.97-2.285a11.971 11.971 0 0 1-1.09-3.222c-.237-1.17-.344-2.424-.344-3.737 0-1.115.12-2.231.371-3.36.251-1.13.632-2.169 1.143-3.123.524-.946 1.156-1.694 1.922-2.277a4.286 4.286 0 0 1 2.63-.86c2.142 0 3.724.914 4.755 2.742M541.94 144.92h6.308v-7.097h.112c.068.762.3 1.613.708 2.532a10.93 10.93 0 0 0 1.627 2.603 8.746 8.746 0 0 0 2.343 2.003c.888.502 1.82.762 2.819.762.959 0 1.68-.09 2.19-.247v-8.348c-.326.211-.774.377-1.339.498a8.689 8.689 0 0 1-1.864.197c-1.344 0-2.429-.448-3.244-1.3-.82-.864-1.403-1.958-1.757-3.27a20.558 20.558 0 0 1-.667-3.926 68.644 68.644 0 0 1-.135-4.476v-11.668h-7.102v31.738M560.8 135.856c.707 2.097 1.71 3.885 3.024 5.368 1.313 1.47 2.836 2.599 4.57 3.356 1.734.762 3.616 1.143 5.637 1.143 2.016 0 3.903-.381 5.655-1.143 1.756-.757 3.289-1.886 4.588-3.356 1.318-1.483 2.326-3.262 3.043-5.332.699-2.08 1.062-4.41 1.062-6.995 0-2.312-.323-4.454-.964-6.448-.632-1.985-1.577-3.728-2.81-5.202-1.245-1.483-2.76-2.64-4.552-3.486-1.788-.842-3.8-1.26-6.022-1.26-2.2 0-4.19.418-5.982 1.26-1.788.847-3.293 2.003-4.512 3.486-1.223 1.474-2.169 3.217-2.814 5.202-.659 1.994-.99 4.136-.99 6.448 0 2.545.35 4.866 1.066 6.959zm6.698-10.01c.21-1.295.583-2.465 1.116-3.513.528-1.049 1.25-1.878 2.142-2.496.914-.614 1.994-.923 3.275-.923 1.304 0 2.406.31 3.316.923.905.618 1.613 1.447 2.124 2.496a13.575 13.575 0 0 1 1.115 3.477c.225 1.277.341 2.626.341 4.068 0 2.626-.587 4.858-1.783 6.686-1.183 1.824-2.89 2.742-5.113 2.742-2.16 0-3.84-.923-5.05-2.769-1.192-1.855-1.797-4.069-1.797-6.659 0-1.402.103-2.742.314-4.032M592.125 126.361h13.985v6.756h-13.985ZM612.369 156.262h20.639V149.5h-13.196v-10.65h12.564v-6.762h-12.564v-18.905h-7.443v43.079M638.519 158.668h7.102v-7.9h-7.102zm0-13.747h7.102v-31.738h-7.102v31.738M669.396 138.293c-1.21.489-2.28.843-3.199 1.049-.91.201-1.99.305-3.181.305-1.143 0-2.129-.274-2.953-.825-.843-.564-1.255-1.452-1.255-2.68 0-.904.345-1.599 1.058-2.074.712-.47 1.81-.972 3.293-1.497 1.273-.443 2.312-.878 3.105-1.272.793-.385 1.582-.919 2.37-1.59.776-.682 1.39-1.587 1.851-2.707.457-1.138.695-2.518.695-4.172 0-1.747-.314-3.307-.932-4.633-.623-1.34-1.479-2.429-2.559-3.23-1.08-.83-2.312-1.443-3.692-1.851a14.814 14.814 0 0 0-4.302-.614c-2.45 0-5.157.443-8.096 1.349l.43 6.815c2.415-1.407 4.75-2.093 7.021-2.093 1.17 0 2.245.305 3.217.923.973.614 1.47 1.591 1.47 2.953 0 1.183-.394 2.057-1.174 2.613-.78.55-1.976 1.097-3.607 1.63-1.205.417-2.196.807-2.98 1.175a9.518 9.518 0 0 0-2.231 1.51c-.708.631-1.273 1.483-1.716 2.554-.448 1.062-.672 2.388-.672 3.934 0 1.644.29 3.087.855 4.346.565 1.25 1.35 2.294 2.362 3.114a10.232 10.232 0 0 0 3.463 1.81c1.29.395 2.644.588 4.065.588 1.384 0 2.598-.09 3.642-.247 1.053-.156 2.245-.421 3.599-.78l.528-.116-.475-6.287M676.696 159.465h7.11V140.66h.108c.923 1.56 2.137 2.796 3.652 3.702 1.519.905 3.177 1.362 4.996 1.362 3.137 0 5.471-1.138 7.026-3.397 1.55-2.272 2.321-5.292 2.321-9.073v-20.07h-7.102v16.982c0 1.318-.036 2.447-.107 3.392a11.92 11.92 0 0 1-.547 2.756c-.287.878-.748 1.609-1.394 2.155-.64.565-1.505.838-2.625.838-1.206 0-2.24-.34-3.083-1.017a6.834 6.834 0 0 1-1.958-2.63 14.17 14.17 0 0 1-.995-3.392 21.686 21.686 0 0 1-.291-3.527v-15.557h-7.111v46.282M731.173 115.034c-2.62-1.694-5.762-2.532-9.423-2.532-4.494 0-7.998 1.443-10.507 4.306-2.496 2.872-3.75 6.923-3.75 12.143 0 4.853 1.102 8.859 3.284 12.022 2.195 3.163 5.323 4.75 9.392 4.75 2.468 0 4.543-.462 6.223-1.403 1.68-.923 3.02-2.245 4.006-3.952.99-1.716 1.694-3.728 2.124-6.036.421-2.298.632-4.928.632-7.854h-18.905c.148-2.478.928-4.423 2.348-5.812 1.42-1.407 3.244-2.093 5.476-2.093 1.604 0 3.136.283 4.61.86 1.47.574 2.967 1.35 4.49 2.349zm-4.78 17.17c-.104 2.214-.628 4.006-1.56 5.381-.945 1.38-2.357 2.062-4.243 2.062-1.914 0-3.406-.672-4.477-2.035-1.062-1.353-1.68-3.15-1.864-5.408h12.143M739.028 144.92h6.31v-7.097h.102c.068.762.305 1.613.722 2.532.399.923.945 1.787 1.617 2.603a8.778 8.778 0 0 0 2.335 2.003c.892.502 1.837.762 2.823.762.959 0 1.694-.09 2.182-.247v-8.348c-.318.211-.762.377-1.326.498a8.615 8.615 0 0 1-1.86.197c-1.353 0-2.433-.448-3.253-1.3-.811-.864-1.403-1.958-1.757-3.27a20.915 20.915 0 0 1-.667-3.926c-.08-1.3-.13-2.782-.13-4.476v-11.668h-7.098v31.738M759.725 158.668h7.102v-7.9h-7.102zm0-13.747h7.102v-31.738h-7.102v31.738M796.244 115.034c-2.626-1.694-5.762-2.532-9.414-2.532-4.5 0-8.008 1.443-10.512 4.306-2.505 2.872-3.746 6.923-3.746 12.143 0 4.853 1.093 8.859 3.284 12.022 2.196 3.163 5.319 4.75 9.387 4.75 2.47 0 4.544-.462 6.224-1.403 1.68-.923 3.02-2.245 4.002-3.952.999-1.716 1.693-3.728 2.124-6.036.425-2.298.636-4.928.636-7.854h-18.905c.144-2.478.932-4.423 2.348-5.812 1.42-1.407 3.244-2.093 5.476-2.093 1.6 0 3.136.283 4.597.86a24.387 24.387 0 0 1 4.499 2.349zm-4.777 17.17c-.107 2.214-.623 4.006-1.563 5.381-.946 1.38-2.348 2.062-4.24 2.062-1.917 0-3.414-.672-4.476-2.035-1.066-1.353-1.684-3.15-1.864-5.408h12.143M820.19 138.293c-1.21.489-2.272.843-3.191 1.049-.923.201-1.99.305-3.2.305-1.133 0-2.119-.274-2.948-.825-.838-.564-1.254-1.452-1.254-2.68 0-.904.354-1.599 1.062-2.074.708-.47 1.81-.972 3.293-1.497 1.273-.443 2.312-.878 3.114-1.272.793-.385 1.582-.919 2.353-1.59.784-.682 1.402-1.587 1.86-2.707.46-1.138.694-2.518.694-4.172 0-1.747-.314-3.307-.932-4.633-.623-1.34-1.47-2.429-2.559-3.23-1.075-.83-2.312-1.443-3.688-1.851a14.91 14.91 0 0 0-4.306-.614c-2.455 0-5.148.443-8.088 1.349l.422 6.815c2.41-1.407 4.75-2.093 7.021-2.093 1.17 0 2.245.305 3.217.923.977.614 1.47 1.591 1.47 2.953 0 1.183-.394 2.057-1.174 2.613-.78.55-1.98 1.097-3.607 1.63-1.205.417-2.196.807-2.975 1.175a9.25 9.25 0 0 0-2.232 1.51c-.708.631-1.277 1.483-1.72 2.554-.448 1.062-.668 2.388-.668 3.934 0 1.644.287 3.087.851 4.346a8.51 8.51 0 0 0 2.362 3.114 10.316 10.316 0 0 0 3.455 1.81c1.299.395 2.661.588 4.077.588 1.385 0 2.603-.09 3.647-.247 1.044-.156 2.236-.421 3.59-.78l.524-.116-.47-6.287M859.701 127.23c.816 1.112 1.38 2.456 1.716 4.042.332 1.586.534 3.343.61 5.278h6.524c-.21-5.748-1.788-10.66-4.74-14.733l6.658-8.634h-9.15l-2.51 3.827a12.382 12.382 0 0 0-4.579-3.366 13.857 13.857 0 0 0-5.53-1.142c-3.83 0-6.994 1.102-9.503 3.32-2.505 2.218-3.755 5.279-3.755 9.177 0 2.702.592 5 1.774 6.891 1.179 1.891 3.182 3.531 6.023 4.92-.067.09-.197.21-.381.368-1.698 1.89-2.913 3.504-3.661 4.808-.748 1.322-1.116 3.038-1.116 5.17 0 1.564.327 2.953.986 4.19a9.44 9.44 0 0 0 2.64 3.11 11.46 11.46 0 0 0 3.674 1.877c1.344.408 2.68.619 3.992.619a14.17 14.17 0 0 0 3.939-.552 9.929 9.929 0 0 0 3.436-1.76c1.004-.803 1.81-1.81 2.42-3.038.605-1.228.9-2.685.9-4.365 0-2.706-.59-4.87-1.774-6.515-1.192-1.64-2.988-3.253-5.4-4.857zm-12.6 4.907c-1.407-.825-2.523-1.797-3.325-2.9-.824-1.102-1.232-2.432-1.232-3.996 0-1.846.605-3.356 1.81-4.54 1.21-1.196 2.707-1.787 4.504-1.787 1.286 0 2.495.215 3.611.645 1.116.435 2.07 1.076 2.85 1.931zm3.168 9.23c.547.462 1.071.955 1.568 1.497 1.134 1.268 1.708 2.482 1.708 3.638 0 1.416-.4 2.5-1.206 3.253-.788.735-1.76 1.116-2.894 1.116-1.174 0-2.174-.38-3.016-1.156-.833-.762-1.246-1.89-1.246-3.334 0-.95.265-1.823.798-2.652.529-.811 1.26-1.757 2.182-2.823l.592-.641c.457.282.963.65 1.514 1.102M884.48 156.262h20.643V149.5h-13.205v-10.65h12.56v-6.762h-12.56v-18.905h-7.438v43.079M909.734 135.856c.708 2.097 1.725 3.885 3.03 5.368 1.312 1.47 2.835 2.599 4.57 3.356 1.738.762 3.611 1.143 5.64 1.143 2.013 0 3.9-.381 5.656-1.143 1.752-.757 3.284-1.886 4.597-3.356 1.313-1.483 2.317-3.262 3.034-5.332.694-2.08 1.053-4.41 1.053-6.995 0-2.312-.319-4.454-.96-6.448-.631-1.985-1.577-3.728-2.809-5.202a13.294 13.294 0 0 0-4.543-3.486c-1.788-.842-3.805-1.26-6.027-1.26-2.205 0-4.19.418-5.978 1.26-1.792.847-3.302 2.003-4.52 3.486-1.224 1.474-2.17 3.217-2.82 5.202-.649 1.994-.98 4.136-.98 6.448 0 2.545.358 4.866 1.057 6.959zm6.703-10.01c.21-1.295.587-2.465 1.116-3.513.529-1.049 1.25-1.878 2.155-2.496.897-.614 1.99-.923 3.267-.923 1.3 0 2.406.31 3.311.923.905.618 1.613 1.447 2.124 2.496.515 1.048.883 2.204 1.116 3.477.224 1.277.34 2.626.34 4.068 0 2.626-.587 4.858-1.77 6.686-1.196 1.824-2.903 2.742-5.121 2.742-2.164 0-3.845-.923-5.054-2.769-1.201-1.855-1.797-4.069-1.797-6.659 0-1.402.103-2.742.313-4.032M942.247 135.856c.708 2.097 1.72 3.885 3.029 5.368 1.313 1.47 2.836 2.599 4.57 3.356 1.734.762 3.612 1.143 5.633 1.143 2.02 0 3.903-.381 5.659-1.143 1.757-.757 3.28-1.886 4.597-3.356 1.309-1.483 2.321-3.262 3.03-5.332.707-2.08 1.061-4.41 1.061-6.995 0-2.312-.327-4.454-.954-6.448-.645-1.985-1.577-3.728-2.819-5.202-1.24-1.483-2.764-2.64-4.548-3.486-1.783-.842-3.795-1.26-6.026-1.26-2.191 0-4.185.418-5.973 1.26-1.784.847-3.294 2.003-4.526 3.486-1.219 1.474-2.155 3.217-2.81 5.202-.658 1.994-.985 4.136-.985 6.448 0 2.545.354 4.866 1.062 6.959zm6.708-10.01c.21-1.295.578-2.465 1.115-3.513a6.477 6.477 0 0 1 2.142-2.496c.905-.614 1.994-.923 3.267-.923 1.313 0 2.415.31 3.32.923.896.618 1.604 1.447 2.115 2.496.524 1.048.892 2.204 1.13 3.477.223 1.277.34 2.626.34 4.068 0 2.626-.596 4.858-1.775 6.686-1.192 1.824-2.899 2.742-5.13 2.742-2.151 0-3.845-.923-5.041-2.769-1.197-1.855-1.801-4.069-1.801-6.659 0-1.402.103-2.742.318-4.032M993.71 116.768h-.117c-1.027-1.484-2.25-2.563-3.666-3.244-1.42-.686-3.006-1.022-4.74-1.022-2.021 0-3.769.43-5.239 1.326-1.47.878-2.666 2.097-3.589 3.661-.927 1.564-1.595 3.334-2.03 5.341-.416 1.985-.636 4.11-.636 6.38 0 2.255.22 4.37.637 6.341.434 1.972 1.102 3.728 2.03 5.265.922 1.546 2.119 2.742 3.602 3.612 1.47.865 3.226 1.295 5.238 1.295 1.788 0 3.32-.363 4.633-1.085 1.318-.726 2.51-1.841 3.571-3.36h.112v18.187h7.107v-46.282h-6.914zm-12.278 8.858a12.598 12.598 0 0 1 1.021-3.325c.47-1.03 1.103-1.846 1.882-2.464.775-.614 1.72-.923 2.823-.923 1.134 0 2.11.31 2.926.923.816.618 1.47 1.42 1.967 2.429a12.653 12.653 0 0 1 1.067 3.329c.21 1.214.313 2.41.313 3.616 0 1.129-.125 2.312-.367 3.504a13.054 13.054 0 0 1-1.152 3.298c-.515 1.008-1.174 1.81-1.985 2.401-.824.592-1.774.892-2.872.892-1.102 0-2.052-.314-2.827-.923-.78-.627-1.39-1.43-1.837-2.437a13.93 13.93 0 0 1-.96-3.258 22.13 22.13 0 0 1-.286-3.477c0-1.205.099-2.393.287-3.585M1030.147 149.5h-10.633v6.762h28.722V149.5h-10.646v-36.317h-7.443V149.5M1047.636 144.92h6.309v-7.097h.107c.067.762.305 1.613.708 2.532.417.923.946 1.787 1.631 2.603a8.71 8.71 0 0 0 2.335 2.003c.891.502 1.832.762 2.814.762.968 0 1.698-.09 2.186-.247v-8.348c-.322.211-.757.377-1.326.498a8.572 8.572 0 0 1-1.855.197c-1.358 0-2.433-.448-3.249-1.3-.815-.864-1.407-1.958-1.76-3.27a20.204 20.204 0 0 1-.664-3.926c-.099-1.3-.134-2.782-.134-4.476v-11.668h-7.102v31.738M1069.31 143.308c1.366.739 2.917 1.33 4.646 1.76 1.712.435 3.338.655 4.87.655 4.186 0 7.206-1.062 9.066-3.177 1.846-2.124 2.773-5.525 2.773-10.225v-4.07c0-1.563.012-2.898.036-3.978.017-1.102.045-2.424.085-3.988.036-2.178.13-4.548.314-7.102h-6.278c-.072.578-.13 1.17-.184 1.783a27.161 27.161 0 0 0-.076 2.102c-.04.376-.054.667-.054.87h-.107c-.78-1.681-1.954-3.021-3.54-3.984-1.573-.968-3.208-1.452-4.906-1.452-2.581 0-4.83.838-6.726 2.545-1.905 1.694-2.85 3.988-2.85 6.851 0 2.254.421 4.11 1.25 5.592.834 1.483 1.967 2.621 3.415 3.437 1.245.699 2.634 1.187 4.198 1.447 1.55.265 3.204.395 4.987.395h3.912c0 2.522-.484 4.301-1.47 5.332-.972 1.03-2.54 1.546-4.7 1.546-1.492 0-2.966-.305-4.423-.923a15.603 15.603 0 0 1-4.041-2.528zm5.085-23.798c.825-.632 1.923-.937 3.267-.937 2.12 0 3.79.923 4.996 2.77.564.86.959 1.828 1.17 2.917.21 1.088.313 2.285.313 3.584h-3.083c-.945 0-1.877-.049-2.76-.183a8.296 8.296 0 0 1-2.5-.758 4.994 4.994 0 0 1-1.91-1.693c-.496-.735-.743-1.68-.743-2.823 0-1.3.417-2.259 1.25-2.877M1115.977 116.768h-.099c-1.044-1.484-2.267-2.563-3.683-3.244-1.411-.686-3.002-1.022-4.727-1.022-2.03 0-3.782.43-5.252 1.326-1.47.878-2.661 2.097-3.584 3.661-.933 1.564-1.6 3.334-2.021 5.341-.43 1.985-.641 4.11-.641 6.38 0 2.255.21 4.37.64 6.341.422 1.972 1.103 3.728 2.026 5.265.923 1.546 2.12 2.742 3.59 3.612 1.478.865 3.22 1.295 5.25 1.295 1.78 0 3.325-.363 4.63-1.085 1.321-.726 2.517-1.841 3.58-3.36h.099v18.187h7.11v-46.282h-6.918zm-12.273 8.858a12.596 12.596 0 0 1 1.022-3.325c.466-1.03 1.102-1.846 1.877-2.464.776-.614 1.726-.923 2.828-.923 1.138 0 2.106.31 2.921.923.816.618 1.47 1.42 1.967 2.429a12.175 12.175 0 0 1 1.067 3.329c.21 1.214.313 2.41.313 3.616 0 1.129-.107 2.312-.367 3.504a13.399 13.399 0 0 1-1.143 3.298c-.524 1.008-1.178 1.81-1.994 2.401-.815.592-1.774.892-2.863.892-1.111 0-2.048-.314-2.827-.923a6.286 6.286 0 0 1-1.837-2.437 14.373 14.373 0 0 1-.964-3.258 22.1 22.1 0 0 1-.277-3.477c0-1.205.09-2.393.277-3.585M1152.155 115.034c-2.616-1.694-5.762-2.532-9.414-2.532-4.503 0-8.011 1.443-10.512 4.306-2.496 2.872-3.746 6.923-3.746 12.143 0 4.853 1.094 8.859 3.285 12.022 2.19 3.163 5.318 4.75 9.387 4.75 2.469 0 4.539-.462 6.22-1.403 1.68-.923 3.02-2.245 4.005-3.952.986-1.716 1.694-3.728 2.129-6.036.416-2.298.627-4.928.627-7.854h-18.905c.157-2.478.932-4.423 2.353-5.812 1.416-1.407 3.244-2.093 5.484-2.093 1.587 0 3.128.283 4.589.86 1.478.574 2.975 1.35 4.498 2.349zm-4.78 17.17c-.104 2.214-.614 4.006-1.56 5.381-.945 1.38-2.361 2.062-4.239 2.062-1.918 0-3.414-.672-4.48-2.035-1.05-1.353-1.681-3.15-1.865-5.408h12.143M1202.287 113.85a49.131 49.131 0 0 0-4.382-.98 23.123 23.123 0 0 0-4.073-.368c-6.247 0-11.144 1.756-14.702 5.287-1.842 1.81-3.253 4.06-4.23 6.775-.981 2.707-1.465 5.843-1.465 9.414 0 7.309 1.81 12.963 5.435 16.96 3.62 4.002 8.612 6.014 14.961 6.014 1.313 0 2.72-.162 4.23-.475a19.34 19.34 0 0 0 4.176-1.367l-.528-7.205c-1.322.865-2.613 1.456-3.885 1.792a16.971 16.971 0 0 1-4.154.493c-1.882 0-3.589-.399-5.135-1.174a11.448 11.448 0 0 1-3.943-3.293c-1.075-1.42-1.918-3.07-2.496-4.96-.587-1.892-.87-3.953-.87-6.162 0-4.485 1.121-8.16 3.393-11.036 2.28-2.863 5.341-4.306 9.212-4.306 1.488 0 2.998.17 4.53.488 1.515.34 2.72.762 3.608 1.3l.318-7.196M1206.436 135.856c.708 2.097 1.72 3.885 3.02 5.368 1.313 1.47 2.832 2.599 4.566 3.356 1.734.762 3.62 1.143 5.646 1.143 2.016 0 3.898-.381 5.65-1.143 1.757-.757 3.29-1.886 4.593-3.356 1.308-1.483 2.335-3.262 3.03-5.332.716-2.08 1.061-4.41 1.061-6.995 0-2.312-.314-4.454-.94-6.448-.646-1.985-1.592-3.728-2.824-5.202a13.252 13.252 0 0 0-4.543-3.486c-1.797-.842-3.81-1.26-6.027-1.26-2.205 0-4.199.418-5.986 1.26-1.784.847-3.285 2.003-4.517 3.486-1.219 1.474-2.164 3.217-2.805 5.202-.672 1.994-1 4.136-1 6.448 0 2.545.364 4.866 1.076 6.959zm6.694-10.01c.21-1.295.578-2.465 1.116-3.513a6.47 6.47 0 0 1 2.155-2.496c.901-.614 1.994-.923 3.267-.923 1.3 0 2.41.31 3.311.923.905.618 1.613 1.447 2.124 2.496.51 1.048.878 2.204 1.116 3.477.228 1.277.34 2.626.34 4.068 0 2.626-.596 4.858-1.783 6.686-1.183 1.824-2.89 2.742-5.108 2.742-2.164 0-3.854-.923-5.054-2.769-1.206-1.855-1.797-4.069-1.797-6.659 0-1.402.099-2.742.313-4.032M1239.827 144.92h6.305v-7.097h.107c.076.762.314 1.613.713 2.532.416.923.945 1.787 1.622 2.603a8.796 8.796 0 0 0 2.339 2.003c.891.502 1.832.762 2.823.762.963 0 1.68-.09 2.186-.247v-8.348c-.323.211-.77.377-1.335.498a8.5 8.5 0 0 1-1.85.197c-1.354 0-2.443-.448-3.25-1.3-.82-.864-1.406-1.958-1.765-3.27a20.914 20.914 0 0 1-.667-3.926c-.081-1.3-.13-2.782-.13-4.476v-11.668h-7.098v31.738M1260.3 144.92h6.797v-4.503h.121c.838 1.645 1.98 2.93 3.397 3.885 1.42.937 3.127 1.42 5.108 1.42 2.02 0 3.768-.43 5.238-1.294 1.47-.87 2.666-2.066 3.59-3.612.927-1.537 1.594-3.293 2.029-5.265.421-1.971.636-4.086.636-6.34 0-2.272-.215-4.396-.636-6.38-.435-2.008-1.102-3.778-2.03-5.342-.923-1.564-2.133-2.783-3.652-3.66-1.514-.897-3.289-1.327-5.345-1.327-1.64 0-3.101.314-4.374.945-1.281.628-2.504 1.757-3.674 3.406h-.103v-16.615h-7.102zm10.691-6.506c-.81-.591-1.479-1.393-2.003-2.401a13.392 13.392 0 0 1-1.138-3.298 17.08 17.08 0 0 1-.372-3.504c0-1.205.121-2.402.34-3.616.238-1.206.583-2.317 1.067-3.33.484-1.008 1.13-1.81 1.94-2.428.825-.614 1.797-.923 2.935-.923 1.094 0 2.048.31 2.855.923.788.618 1.42 1.434 1.877 2.464.466 1.031.798 2.133.986 3.325.197 1.192.287 2.38.287 3.585 0 1.129-.09 2.299-.287 3.477a12.62 12.62 0 0 1-.986 3.258c-.457 1.008-1.075 1.823-1.837 2.442-.762.613-1.694.918-2.796.918-1.098 0-2.048-.3-2.868-.892M1292.145 135.856c.708 2.097 1.72 3.885 3.034 5.368 1.308 1.47 2.836 2.599 4.566 3.356 1.734.762 3.611 1.143 5.632 1.143 2.02 0 3.912-.381 5.66-1.143 1.756-.757 3.293-1.886 4.597-3.356 1.308-1.483 2.32-3.262 3.029-5.332.708-2.08 1.062-4.41 1.062-6.995 0-2.312-.319-4.454-.96-6.448-.627-1.985-1.572-3.728-2.813-5.202-1.241-1.483-2.76-2.64-4.535-3.486-1.797-.842-3.809-1.26-6.04-1.26-2.191 0-4.185.418-5.973 1.26-1.788.847-3.302 2.003-4.517 3.486-1.227 1.474-2.164 3.217-2.823 5.202-.64 1.994-.98 4.136-.98 6.448 0 2.545.353 4.866 1.061 6.959zm6.708-10.01c.21-1.295.578-2.465 1.102-3.513.538-1.049 1.255-1.878 2.155-2.496.906-.614 1.994-.923 3.267-.923 1.313 0 2.424.31 3.32.923.91.618 1.609 1.447 2.115 2.496.524 1.048.892 2.204 1.116 3.477.237 1.277.345 2.626.345 4.068 0 2.626-.587 4.858-1.766 6.686-1.191 1.824-2.899 2.742-5.13 2.742-2.16 0-3.831-.923-5.04-2.769-1.206-1.855-1.802-4.069-1.802-6.659 0-1.402.107-2.742.318-4.032M1325.554 144.92h6.3v-7.097h.094c.076.762.314 1.613.722 2.532.407.923.958 1.787 1.622 2.603a8.63 8.63 0 0 0 2.348 2.003c.882.502 1.819.762 2.827.762.945 0 1.671-.09 2.169-.247v-8.348c-.314.211-.762.377-1.327.498a8.688 8.688 0 0 1-1.864.197c-1.34 0-2.437-.448-3.244-1.3-.824-.864-1.402-1.958-1.756-3.27a20.927 20.927 0 0 1-.672-3.926 72.354 72.354 0 0 1-.126-4.476v-11.668h-7.093v31.738M1347.201 143.308c1.385.739 2.94 1.33 4.656 1.76 1.716.435 3.338.655 4.866.655 4.198 0 7.214-1.062 9.082-3.177 1.85-2.124 2.783-5.525 2.783-10.225v-4.07c0-1.563 0-2.898.022-3.978.012-1.102.04-2.424.076-3.988.036-2.178.134-4.548.318-7.102h-6.269c-.08.578-.134 1.17-.183 1.783a23.083 23.083 0 0 0-.085 2.102c-.022.376-.05.667-.05.87h-.107c-.784-1.681-1.953-3.021-3.54-3.984-1.572-.968-3.208-1.452-4.915-1.452-2.585 0-4.83.838-6.721 2.545-1.887 1.694-2.846 3.988-2.846 6.851 0 2.254.417 4.11 1.246 5.592.838 1.483 1.972 2.621 3.428 3.437 1.232.699 2.626 1.187 4.185 1.447 1.55.265 3.217.395 4.992.395h3.911c0 2.522-.488 4.301-1.46 5.332-.968 1.03-2.554 1.546-4.71 1.546-1.483 0-2.966-.305-4.418-.923a15.213 15.213 0 0 1-4.037-2.528zm5.104-23.798c.829-.632 1.922-.937 3.257-.937 2.129 0 3.795.923 5.005 2.77.565.86.955 1.828 1.165 2.917.21 1.088.318 2.285.318 3.584h-3.087c-.954 0-1.864-.049-2.756-.183a8.08 8.08 0 0 1-2.495-.758 5.006 5.006 0 0 1-1.914-1.693c-.493-.735-.748-1.68-.748-2.823 0-1.3.417-2.259 1.255-2.877M1377.998 138.885h-5.265v6.08h5.265v6.354l7.115 2.653v-9.007h6.314v-6.08h-6.314v-14.72c0-1.559.238-2.818.735-3.768.493-.963 1.367-1.438 2.612-1.438 1.38 0 2.456.287 3.244.851l.211-6.578c-1.483-.461-3.244-.694-5.27-.694-2.755 0-4.893.923-6.403 2.733-1.492 1.824-2.244 4.333-2.244 7.523v16.09M1396.521 158.668h7.103v-7.9h-7.103zm0-13.747h7.103v-31.738h-7.103v31.738M1410.43 135.856c.712 2.097 1.711 3.885 3.024 5.368 1.313 1.47 2.837 2.599 4.57 3.356 1.744.762 3.617 1.143 5.633 1.143 2.021 0 3.903-.381 5.655-1.143 1.761-.757 3.284-1.886 4.61-3.356 1.305-1.483 2.322-3.262 3.016-5.332.722-2.08 1.071-4.41 1.071-6.995 0-2.312-.322-4.454-.963-6.448-.64-1.985-1.577-3.728-2.81-5.202a13.25 13.25 0 0 0-4.543-3.486c-1.792-.842-3.804-1.26-6.036-1.26-2.195 0-4.185.418-5.973 1.26-1.792.847-3.289 2.003-4.516 3.486-1.224 1.474-2.17 3.217-2.81 5.202-.672 1.994-.986 4.136-.986 6.448 0 2.545.35 4.866 1.058 6.959zm6.703-10.01c.21-1.295.578-2.465 1.116-3.513.533-1.049 1.245-1.878 2.15-2.496.901-.614 1.986-.923 3.258-.923 1.322 0 2.424.31 3.32.923.906.618 1.614 1.447 2.124 2.496a13.576 13.576 0 0 1 1.116 3.477 22.99 22.99 0 0 1 .359 4.068c0 2.626-.605 4.858-1.802 6.686-1.174 1.824-2.885 2.742-5.117 2.742-2.155 0-3.835-.923-5.04-2.769-1.197-1.855-1.802-4.069-1.802-6.659 0-1.402.103-2.742.318-4.032M1443.597 144.92h6.77v-4.328h.104c1.106 1.775 2.392 3.07 3.884 3.885 1.497.829 3.195 1.246 5.113 1.246 3.132 0 5.462-1.138 7.017-3.397 1.532-2.272 2.317-5.292 2.317-9.073v-20.07h-7.116v16.982c0 1.318-.027 2.447-.103 3.392a11.237 11.237 0 0 1-.533 2.756c-.283.878-.744 1.609-1.398 2.155-.646.565-1.51.838-2.626.838-1.219 0-2.24-.34-3.083-1.017a6.747 6.747 0 0 1-1.958-2.63 15.284 15.284 0 0 1-1-3.392 23.293 23.293 0 0 1-.286-3.527v-15.557h-7.102v31.738M384.215 191.647H327.97v23.676c0 .641-.55 1.17-1.214 1.17h-15.781c-.668 0-1.22-.529-1.22-1.17v-21.866c0-3.625 1.193-6.461 3.585-8.536 2.389-2.061 5.368-3.114 8.967-3.114h61.907c.667 0 1.223.52 1.223 1.17v7.5c0 .645-.556 1.17-1.223 1.17zm13.24 72.589h-15.933v22.857c0 .64-.552 1.156-1.22 1.156h-15.776c-.672 0-1.214-.516-1.214-1.156v-76.17c0-.636.542-1.151 1.214-1.151h15.777c.667 0 1.219.515 1.219 1.151v43.348h15.933c.664 0 1.215.524 1.215 1.169v7.63c0 .655-.551 1.166-1.215 1.166zm-83.379-26.007c-2.245 3.02-3.37 6.596-3.37 10.74 0 4.137 1.125 7.69 3.37 10.683 2.245 2.97 4.777 4.467 7.546 4.467 2.89 0 5.43-1.496 7.626-4.467 2.21-2.993 3.312-6.546 3.312-10.682 0-4.145-1.103-7.72-3.312-10.74-2.195-3.02-4.736-4.53-7.626-4.53-2.77 0-5.3 1.51-7.546 4.53zm27.45-6.537c5.525 4.785 8.294 10.543 8.294 17.278a20.6 20.6 0 0 1-2.77 10.409c-1.837 3.244-4.337 5.932-7.482 8.101h12.958c.654 0 1.206.524 1.206 1.156v7.505c0 .646-.552 1.17-1.206 1.17H330.67v11.646c0 .627-.547 1.165-1.215 1.165h-15.781c-.677 0-1.214-.538-1.214-1.165V277.31H290.6c-.667 0-1.205-.524-1.205-1.17v-7.505c0-.632.538-1.156 1.205-1.156h13.089a25.382 25.382 0 0 1-6.13-6.134 21.832 21.832 0 0 1-1.286-1.967c-1.89-3.231-2.836-6.704-2.836-10.41 0-6.734 2.782-12.492 8.36-17.277 5.584-4.786 12.193-7.174 19.824-7.174 7.738 0 14.374 2.388 19.904 7.174M566.306 191.66c-2.294-2.85-5.005-4.27-8.16-4.27-3.145 0-5.847 1.42-8.092 4.27-2.245 2.845-3.374 6.125-3.374 9.831 0 3.71 1.13 7.003 3.374 9.898 2.245 2.886 4.947 4.329 8.093 4.329 3.154 0 5.865-1.443 8.16-4.329 2.293-2.895 3.436-6.188 3.436-9.898 0-3.706-1.143-6.986-3.437-9.831zm12.95 26.84c-5.803 4.62-12.833 6.923-21.11 6.923-8.181 0-15.194-2.303-21.046-6.923-5.838-4.606-8.76-10.279-8.76-17.01 0-6.64 2.922-12.312 8.76-17.013 5.852-4.705 12.865-7.053 21.047-7.053 8.276 0 15.306 2.348 21.109 7.053 5.807 4.7 8.701 10.373 8.701 17.014 0 6.73-2.894 12.403-8.701 17.01zm27.207 21.423h-39v11.126h31.423c.672 0 1.21.533 1.21 1.16v7.51c0 .632-.538 1.16-1.21 1.16h-62.05v26.2c0 .654-.542 1.17-1.21 1.17h-15.777c-.681 0-1.223-.516-1.223-1.17v-25.034c0-3.455 1.12-6.143 3.374-8.088 2.245-1.945 5.126-2.908 8.634-2.908h18.614v-11.126h-39.275c-.667 0-1.227-.524-1.227-1.17v-7.5c0-.637.56-1.161 1.227-1.161h96.49c.668 0 1.219.524 1.219 1.16v7.501c0 .646-.551 1.17-1.219 1.17M617.186 246.389l6.829-5.928c.457-.417 1.312-.722 1.967-.749.932.027 1.864.054 2.81.121h.062l.005.012c.408.036.797.05 1.2.09 6.014.592 12.278 2.205 18.807 4.844 8.401 3.4 13.863 7.653 16.382 12.748 2.612-5 8.132-9.24 16.592-12.681 5.3-2.169 10.396-3.66 15.266-4.458.408-.067.798-.1 1.201-.153.01 0 .01-.01.01-.01h.017a52.078 52.078 0 0 1 6.031-.51c.672-.032 1.631.304 2.124.743l3.406 2.967 3.419 2.966c.439.38.35.726-.126.815a45.782 45.782 0 0 0-7.088.816c-.341.063-.682.117-1.031.197-6.036 1.3-11.946 3.818-17.704 7.613-8.62 5.695-12.95 12.47-12.95 20.32v10.925c0 .654-.542 1.17-1.214 1.17H657.29c-.677 0-1.21-.516-1.21-1.17v-10.924c0-7.85-4.297-14.626-12.887-20.32-6.515-4.307-13.258-7.013-20.217-8.102-.417-.063-.825-.103-1.237-.152l-4.234-.345h-.012c-.66-.04-.803-.422-.314-.843 0 0 0-.005.01-.005zm96.92-17.847h-97.718c-.672 0-1.21-.525-1.21-1.17v-7.505c0-.645.538-1.156 1.21-1.156h39.826v-35.972c0-.65.546-1.165 1.21-1.165H673.2c.672 0 1.214.515 1.214 1.165v35.972h39.691c.672 0 1.214.51 1.214 1.156v7.505c0 .645-.542 1.17-1.214 1.17M1018.385 208.875v-17.47h-38.504v17.47zm27.315 29.878h-96.508c-.676 0-1.21-.52-1.21-1.151v-7.64c0-.645.534-1.165 1.21-1.165h39.15v-9.956h-25.47c-.672 0-1.21-.534-1.21-1.179V187.4c0-3.213 2.734-5.825 6.08-5.825h67.639c.663 0 1.214.515 1.214 1.165v30.272c0 3.204-2.733 5.83-6.08 5.83h-23.968v9.956h39.153c.659 0 1.214.52 1.214 1.165v7.64c0 .632-.555 1.151-1.214 1.151zm-57.73 39.476h18.944v-21.095H987.97zm-31.057-30.926h80.928c.672 0 1.223.524 1.223 1.165v7.51c0 .632-.551 1.156-1.223 1.156h-13.089v21.095h11.87c.681 0 1.219.516 1.219 1.161v7.505c0 .632-.538 1.165-1.22 1.165h-78.503c-.668 0-1.205-.533-1.205-1.165v-7.505c0-.645.537-1.16 1.205-1.16h12.013v-21.096h-13.218c-.672 0-1.215-.524-1.215-1.156v-7.51c0-.64.543-1.165 1.215-1.165M1154.203 228.515h-97.722c-.672 0-1.219-.524-1.219-1.156v-7.501c0-.636.547-1.16 1.219-1.16h20.939v-35.722c0-.65.529-1.17 1.21-1.17h15.777c.672 0 1.21.52 1.21 1.17v35.721h19.45v-35.72c0-.65.543-1.17 1.21-1.17h15.777c.673 0 1.224.52 1.224 1.17v35.72h20.925c.672 0 1.219.525 1.219 1.16v7.502c0 .632-.547 1.156-1.219 1.156zm-60.536 46.524c3.092 3.401 6.99 5.113 11.69 5.113 4.67 0 8.586-1.712 11.736-5.113 3.15-3.414 4.71-7.568 4.71-12.483 0-4.83-1.56-8.976-4.71-12.43-3.15-3.455-7.066-5.176-11.735-5.176-4.7 0-8.599 1.721-11.69 5.176-3.106 3.454-4.656 7.6-4.656 12.43 0 4.915 1.55 9.069 4.655 12.483zm-12.757-31.885c6.748-5.355 14.886-8.021 24.448-8.021 9.62 0 17.797 2.666 24.546 8.02 6.734 5.342 10.122 11.817 10.122 19.403 0 7.586-3.388 14.074-10.122 19.482-6.749 5.382-14.926 8.084-24.546 8.084-9.562 0-17.7-2.702-24.448-8.084-6.734-5.408-10.1-11.896-10.1-19.482 0-7.586 3.366-14.061 10.1-19.402M1220.25 190.885c-2.155-2.76-4.678-4.14-7.55-4.14-2.97 0-5.507 1.38-7.626 4.14-2.115 2.765-3.16 5.86-3.16 9.32 0 3.37 1.045 6.416 3.16 9.186 2.12 2.76 4.655 4.144 7.626 4.144 2.872 0 5.395-1.384 7.55-4.144 2.165-2.77 3.231-5.816 3.231-9.186 0-3.46-1.066-6.555-3.23-9.32zm12.887 25.545c-5.619 4.445-12.43 6.676-20.437 6.676-8.012 0-14.836-2.231-20.495-6.676-5.673-4.436-8.505-9.849-8.505-16.225 0-6.475 2.832-11.95 8.505-16.44 5.66-4.477 12.483-6.721 20.495-6.721 8.007 0 14.818 2.244 20.437 6.72 5.62 4.49 8.429 9.966 8.429 16.44 0 6.377-2.81 11.79-8.429 16.226zm27.884 20.132h-39.149v8.47h26.926c.672 0 1.223.523 1.223 1.169v7.245c0 .64-.551 1.165-1.223 1.165h-57.682v6.986h56.476c.668 0 1.22.515 1.22 1.156v7.375c0 .645-.552 1.183-1.22 1.183h-56.476v7.232h57.682c.672 0 1.223.524 1.223 1.16v7.376c0 .654-.551 1.17-1.223 1.17h-69.82c-3.339 0-6.068-2.617-6.068-5.825v-26.007c0-3.455 1.143-6.21 3.437-8.276 2.29-2.084 5.332-3.11 9.11-3.11h18.21v-8.469h-39.145c-.672 0-1.223-.524-1.223-1.17v-7.491c0-.645.551-1.17 1.223-1.17h96.5c.667 0 1.205.525 1.205 1.17v7.492c0 .645-.538 1.17-1.206 1.17M1367.759 242.773h-48.586v22.381c0 .646-.564 1.174-1.218 1.174h-15.782c-.68 0-1.219-.528-1.219-1.174v-22.381h-29.707c-.668 0-1.21-.525-1.21-1.165v-7.501c0-.636.542-1.165 1.21-1.165h96.512c.663 0 1.21.529 1.21 1.165v7.5c0 .641-.547 1.166-1.21 1.166zm-86.879 35.38h59.062V266.06a82.18 82.18 0 0 0-.47-8.989 32.032 32.032 0 0 0-.408-2.63c-.08-.412-.202-.77-.3-1.152-.224-.999-.516-1.931-.856-2.836-.202-.592.157-1.084.824-1.084h13.353c.654 0 1.515.439 1.891.976 1.04 2.017 2.075 4.024 2.684 6.202 1.004 3.5 1.568 6.838 1.568 10.023v15.665c0 3.2-2.688 5.825-6.022 5.825h-70.81c-.659 0-1.21-.533-1.21-1.165v-7.644c0-.443.291-.905.694-1.098zm47.26-86.238c-2.295-2.926-5.068-4.395-8.281-4.395-3.338 0-6.143 1.47-8.442 4.395-2.294 2.935-3.441 6.296-3.441 10.096 0 3.871 1.147 7.326 3.441 10.346 2.299 3.02 5.104 4.535 8.442 4.535 3.213 0 5.986-1.515 8.28-4.535 2.3-3.02 3.442-6.475 3.442-10.346 0-3.8-1.143-7.16-3.441-10.096zm12.954 27.62c-5.893 4.8-12.981 7.196-21.235 7.196-8.38 0-15.486-2.397-21.324-7.196-5.848-4.763-8.765-10.62-8.765-17.524 0-6.811 2.917-12.614 8.765-17.408 5.838-4.777 12.945-7.179 21.324-7.179 8.254 0 15.342 2.402 21.235 7.179 5.883 4.794 8.84 10.597 8.84 17.408 0 6.905-2.957 12.761-8.84 17.524M1443.78 226.946c-.057.027-.12.059-.183.086-7.68 1.985-12.658 6.618-17.408 12.631-5.695 7.246-8.558 16.006-8.558 26.267v20.652c0 .64-.552 1.151-1.21 1.151h-16.055c-.668 0-1.214-.51-1.214-1.151V265.93c0-10.185-2.828-18.914-8.5-26.204-4.002-5.158-7.784-9.396-14.07-11.735l-3.244-.986c-.641-.157-.762-.636-.26-1.049l7.075-5.96c.51-.43 1.456-.694 2.11-.604 6.197 1.3 10.37 3.387 15.401 7.142 5.843 4.347 9.437 8.984 10.799 13.9 1.434-4.916 5.072-9.576 10.924-13.962 4.889-3.693 9.1-6.162 15.27-7.08.668-.09 1.614.175 2.111.605l7.084 5.96c.453.367.377.774-.072.99zm41.704 36.264h-16.996v23.87c0 .653-.542 1.169-1.214 1.169H1451.5c-.681 0-1.214-.516-1.214-1.17V182.86c0-.631.533-1.169 1.214-1.169h15.773c.672 0 1.214.538 1.214 1.17v70.452h16.996c.672 0 1.21.582 1.21 1.236v7.497c0 .64-.538 1.165-1.21 1.165M819.441 191.66h-56.606v24.703c0 .658-.538 1.178-1.205 1.178h-15.786c-.664 0-1.215-.52-1.215-1.178V193.34c0-3.625 1.215-6.479 3.648-8.54 2.428-2.061 5.435-3.11 9.033-3.11h62.131c.654 0 1.21.538 1.21 1.17v7.63c0 .641-.556 1.17-1.21 1.17M745.714 233.847c5.932 3.961 9.615 8.231 11.054 12.802 1.523-4.57 5.242-8.863 11.135-12.883 3.871-2.634 7.716-4.476 11.524-5.565.395-.116.789-.184 1.183-.287h.027l3.531-.645c.654-.09 1.6.184 2.115.618l3.464 2.913 3.468 2.913c.502.425.39.896-.26 1.04-1.071.237-2.12.514-3.141.855-.403.13-.802.233-1.183.367-5.162 1.927-9.885 5.247-14.124 9.966-5.713 6.336-8.571 14.473-8.571 24.398v16.243c0 .64-.543 1.151-1.21 1.151h-15.912c-.667 0-1.21-.51-1.21-1.151v-16.243c0-9.755-2.836-17.852-8.504-24.273-4.145-4.696-8.769-8.007-13.873-9.96-.38-.149-.78-.26-1.17-.382a30.038 30.038 0 0 0-3.48-.972c-.641-.143-.749-.614-.247-1.026l3.53-2.926 3.536-2.926c.506-.421 1.46-.686 2.124-.591l3.1.64s.104.027.256.054l.74.148c.021.01.035.027.062.036.34.08.726.175 1.089.296l.027-.017c.054.017.112.049.17.067.238.067.462.143.659.206 0 .012 0 .017-.01.027 3.325 1.142 6.69 2.823 10.1 5.108M832.538 266.19h-15.933v20.89c0 .653-.538 1.169-1.206 1.169h-15.781c-.677 0-1.219-.516-1.219-1.17v-74.462c0-.636.542-1.152 1.219-1.152h15.781c.668 0 1.206.516 1.206 1.152v43.603h15.933c.673 0 1.21.524 1.21 1.178v7.618c0 .65-.537 1.174-1.21 1.174M927.617 288.249h-15.772c-.668 0-1.22-.516-1.22-1.17v-56.593c0-.654.552-1.17 1.22-1.17h15.772c.677 0 1.228.516 1.228 1.17v56.593c0 .654-.551 1.17-1.228 1.17M922.755 221.417h-70.783c-.659 0-1.21-.524-1.21-1.17v-7.496c0-.64.551-1.17 1.21-1.17h58.654V182.86c0-.632.55-1.17 1.219-1.17h15.772c.677 0 1.228.538 1.228 1.17v32.737c0 3.203-2.742 5.82-6.09 5.82M858.039 236.549c5.941 3.979 9.63 8.245 11.063 12.82 1.613-4.575 5.341-8.864 11.198-12.874 3.795-2.599 7.559-4.418 11.327-5.538 1.564-.457 3.249-.775 4.87-.981.664-.077 1.623.192 2.13.618l6.926 5.717c.498.422.386.897-.264 1.058l-3.777 1.165c-.457.143-1.313.497-1.914.735-4.557 2.02-8.769 5.117-12.626 9.383-5.7 6.34-8.563 14.473-8.563 24.393v13.537c0 .64-.547 1.151-1.206 1.151H861.15c-.673 0-1.224-.51-1.224-1.151v-13.537c0-9.835-2.823-17.932-8.49-24.335-4.164-4.674-8.806-7.985-13.918-9.979a44.73 44.73 0 0 0-2.581-.829l-2.012-.551c-.659-.157-.762-.614-.251-1.026l7.174-5.75c.52-.407 1.47-.667 2.133-.564 4.49.65 8.836 2.286 12.734 4.49 1.13.645 2.245 1.34 3.325 2.048M489.124 214.499c0 3.2-2.514 5.83-5.874 5.83h-23.695v17.224h39.055c.668 0 1.219.533 1.219 1.178v7.492c0 .645-.551 1.183-1.22 1.183h-13.661c1.254 1.55 2.32 4.042 3.172 7.51.722 2.926 1.12 5.659 1.233 8.218h.012l-.012.371v18.919c0 3.208-2.743 5.834-6.103 5.834H412.68c-.676 0-1.214-.525-1.214-1.179v-7.496c0-.646.538-1.165 1.214-1.165h58.461v-15.284h.005c-.026-2.689-.134-5.355-.385-7.967-.269-2.93-.847-5.53-1.756-7.761h-66.45c-.673 0-1.21-.538-1.21-1.183v-7.492c0-.645.537-1.178 1.21-1.178h38.776v-17.225H412.44c-.659 0-1.21-.515-1.21-1.16v-7.519c0-.632.551-1.17 1.21-1.17h58.47V182.64c0-.65.538-1.16 1.205-1.16h15.795c.681 0 1.215.51 1.215 1.16V214.5" style="fill:#004e4c;fill-opacity:1;fill-rule:nonzero;stroke:none;stroke-width:.448081" transform="matrix(1.33333 0 0 -1.33333 86.997 432.581)"/><path d="M86.137 114.15v.063c-4.046 10.136-4.606 14.034-4.606 27.477v85.87c0 14.357-6.7 28.225-18.345 36.523-11.663 8.303-30.662 12.466-50.78 12.466-23.194 0-40.808-4.606-52.79-13.81-9.821-7.537-15.91-18.21-18.286-31.975a63.512 63.512 0 0 1-.403-2.532c-.022-.358-.085-.712-.12-1.093a34.309 34.309 0 0 1-.212-2.025c-.049-.3-.067-.6-.098-.9a49.267 49.267 0 0 1-.206-3.057V206.16s.018-.435.367-.278a46.737 46.737 0 0 0 5.332 2.765c3.478 1.528 7.138 2.608 10.853 3.392 5.422 1.129 11.408 1.617 17.937 1.46l9.253-.277s.537.094.672.68c.981 3.71 2.343 6.91 4.176 10.347 2.98 5.53 8.16 9.611 13.9 12.053 9.624 4.087 20.983 2.218 30.635 3.688 1.389-.094.945-1.156.945-1.156l-.385-1.954c-.641-3.535-2.133-7.263-3.831-10.328-3.253-5.874-8.581-10.548-14.433-13.787-6.856-3.796-14.693-4.781-22.807-5.606-3.545-.318-7.143-.735-10.763-1.17-15.289-2.311-26.993-7.688-35.05-16.184-8.222-8.662-12.34-20.231-12.34-34.619 0-13.693 4.53-24.676 13.694-33.082 9.123-8.361 21.185-12.564 36.165-12.564 20.83 0 37.885 7.425 51.166 22.252v-3.137c0-10.633 8.626-15.163 16.525-15.517h.175c.175 0 .368-.022.542-.022.202 0 .381.022.574.022h31.903s0 .012.018.012a.802.802 0 0 1 .672.802c0 .054-.022.117-.049.197zM24.53 152.118c-4.333-4.974-11.919-9.06-20.253-9.06-15.15 0-19.922 9.221-19.922 19.868 0 18.765 20.415 28.063 50.351 29.174 0-18.022-2.128-29.936-10.176-39.982" style="fill:#4fbe37;fill-opacity:1;fill-rule:nonzero;stroke:none;stroke-width:.448081" transform="matrix(1.33333 0 0 -1.33333 86.997 432.581)"/><path d="M251.076 269.026a1.854 1.854 0 0 0-1.824-1.573c-.493 0-.927.21-1.259.51l-57.507 44.253-.022-.04c-.659.542-1.465.923-2.375.923-1.76 0-3.163-1.183-3.593-2.747-.054-.192-.211-1.04-.211-1.04V142.126c0-13.667.587-17.565 4.745-27.817.027-.027.004-.094.027-.112 0-.045.036-.126.036-.202 0-.394-.318-.721-.717-.789-.014 0-.018-.022-.018-.022h-44.822c-8.397.377-15.221 6.717-16.225 14.805-.036.233.004 133.192 0 133.766-.694 8.401-7.846 14.415-16.234 14.755 0 .017-.166.017-.166.017l-48.764.027c-.834 0-1.537.654-1.739 1.43l-.139.484v.031l-.004 38.903c0 3.876 3.172 7.035 7.048 7.035h176.76c3.87 0 7.043-3.16 7.043-7.035 0 0 .027-47.273 0-47.873 0 0 0-.291-.04-.502" style="fill:#004e4c;fill-opacity:1;fill-rule:nonzero;stroke:none;stroke-width:.448081" transform="matrix(1.33333 0 0 -1.33333 86.997 432.581)"/></svg>