<svg xmlns="http://www.w3.org/2000/svg" width="672.33679pt" height="180.58401pt" fill-rule="evenodd" viewBox="0 0 672.33679 180.58401"><path d="M543.2 27.417c-.085-.334-.18-.65-.27-.991-.117-.368-.507-.474-.984-.251-.425.181-.824.392-1.263.614-.46.253-.703.692-.636 1.038.09.345.176.662.264.996.126.363.518.445.99.24a36.1 36.1 0 0 1 1.277-.627c.452-.228.704-.668.622-1.019zm2.027 7.508c-.082-.333-.167-.643-.252-.983-.117-.352-.513-.441-.99-.235-.422.2-.844.405-1.277.615-.47.246-.75.669-.674 1.044.096.334.169.638.257.978.112.363.516.444.999.217.443-.199.859-.404 1.298-.615.472-.242.718-.668.639-1.021zm1.925 7.366a15.438 15.438 0 0 0-.237-.966c-.115-.341-.513-.422-.997-.205-.433.209-.858.421-1.295.631-.474.258-.767.645-.706 1.044.09.334.16.621.232.95.12.38.52.444 1.019.216.449-.216.868-.423 1.313-.644.48-.235.75-.646.67-1.026zM612.226.013c-26.684.321-54.814 14.813-59.481 16.798-.912.41-1.503.978-1.284 1.957.082.411.194.804.282 1.19.175.838-.194 1.288-1.032 1.634-.515.194-1.016.381-1.53.587-1.086.404-1.631.192-1.903-.681-.132-.503-.282-.996-.41-1.459-.082-.309-.493-.492-.938-.345-.727.282-1.43.574-2.165.879-.44.235-.7.621-.606 1.007.167.604.322 1.191.486 1.776.11.305.504.486.97.287.53-.217 1.022-.422 1.538-.667 1.019-.363 1.602-.165 1.863.732.179.626.346 1.213.516 1.828.208.931-.141 1.523-1.128 1.957a43.54 43.54 0 0 1-1.541.691c-.443.229-.683.627-.618 1.008.16.575.319 1.146.474 1.732.123.327.504.463.973.264.52-.241 1.019-.469 1.547-.704.996-.412 1.547-.225 1.822.628.17.603.334 1.176.486 1.775.217.897-.13 1.5-1.11 1.997-.53.241-1.034.482-1.544.728-.451.234-.697.638-.633.996.158.58.299 1.118.45 1.692.118.346.49.446.974.23.52-.264 1.019-.517 1.54-.763 1.012-.462 1.57-.304 1.84.528.162.575.306 1.137.467 1.717.208.884-.161 1.505-1.152 2.038-.521.282-1.025.546-1.546.821-.458.258-.721.667-.651 1.02.152.556.287 1.113.416 1.67.123.369.51.41.973.187.533-.287 1.049-.562 1.576-.861 1.014-.516 1.57-.416 1.816.404.153.58.299 1.114.46 1.688.185.849-.2 1.522-1.201 2.139-.524.31-1.034.597-1.573.919-.47.276-.75.692-.668 1.06.129.558.255 1.073.398 1.658.118.388.507.394.973.129.77-.438 1.447-.849 2.19-1.347.44-.292.705-.755.63-1.084a53.735 53.735 0 0 0-.356-1.319c-.167-.82.22-1.459 1.257-2.143-.01.005-.01 0-.01 0 .52-.324 1.018-.633 1.527-.961.72-.422 1.43-.341 1.609.116.085.305.178.599.26.896.285.78 1.067.786 2.11.041 27.832-13.57 77.795-38.732 78.299-14.553.046-12.373-5.65-29.383-27.642-32.517zm-48.161 25.195c.07-.024.14-.065.214-.094.348-.118.644-.005.744.316.026.059.047.124.06.188.086.311-.081.638-.426.779-.08.041-.147.065-.223.095-.354.139-.645.022-.747-.294-.032-.064-.044-.14-.062-.2-.076-.315.088-.621.44-.79zm-1.74-6.691c.058-.019.152-.054.222-.077.343-.106.636.018.73.357.02.088.032.147.038.217.076.305-.112.669-.457.797-.065.018-.147.059-.205.077-.352.116-.651 0-.76-.352a1.099 1.099 0 0 0-.052-.223c-.058-.299.132-.656.484-.796zm-2.45 4.464c.375-.117.674-.005.786.328.04.183.093.375.14.551.082.316-.114.686-.474.826a9.248 9.248 0 0 1-.598.252c-.387.152-.697.029-.815-.299-.046-.187-.105-.38-.152-.567-.061-.318.129-.68.495-.833.202-.093.407-.176.618-.258zm-2.326-6.791c.214-.059.437-.135.654-.205.389-.093.676.007.776.382.04.18.079.375.129.562a.8.8 0 0 1-.516.825c-.217.083-.436.153-.636.223-.395.124-.711 0-.817-.368-.035-.2-.064-.394-.126-.587-.053-.299.179-.68.536-.832zm.8 12.897c.067.322-.132.691-.501.867-.498.229-.978.442-1.471.666-.407.175-.75.069-.864-.27-.114-.432-.237-.848-.354-1.258-.091-.34.14-.703.527-.895.504-.224.96-.422 1.468-.646.395-.146.729-.029.84.3.118.416.24.82.355 1.236zm-4.614-8.045c.52-.187 1.019-.375 1.517-.55.408-.136.733-.019.844.345.114.439.229.867.32 1.294.067.305-.144.703-.507.85-.498.217-.993.398-1.486.603-.42.147-.77.025-.882-.339-.105-.44-.222-.89-.345-1.312-.06-.328.155-.732.539-.891zm-4.412 7.939c-.1-.404-.223-.779-.323-1.159-.193-.868.153-1.459 1.178-1.911.533-.228 1.01-.422 1.53-.633.708-.257 1.412-.024 1.596.574.132.47.279.937.384 1.394.205.809-.161 1.279-.99 1.642-.498.239-.985.439-1.506.673h.006c-1.064.439-1.61.258-1.875-.58zm2.018 7.245c-.1-.386-.214-.75-.31-1.113-.203-.855.158-1.435 1.186-1.956.507-.241.99-.464 1.488-.704.709-.269 1.395-.099 1.6.463.14.446.255.902.398 1.335.176.775-.175 1.254-.981 1.677-.52.264-1.002.51-1.52.756-1.055.509-1.6.357-1.861-.458zm5.364 6.475c-.533.299-1.034.598-1.564.891-1.078.592-1.63.486-1.852-.316-.093-.364-.2-.721-.304-1.084-.188-.826.176-1.442 1.207-2.029a35.94 35.94 0 0 0 1.5-.801c.703-.346 1.415-.2 1.599.327.12.429.246.861.367 1.283.19.721-.156 1.225-.953 1.729zm1.67-5.361c-.398.21-.764.106-.864-.177-.108-.415-.246-.808-.357-1.212-.073-.357.126-.703.51-.919a81.58 81.58 0 0 0 1.479-.733c.38-.176.732-.07.826.205.12.392.24.774.369 1.155.082.357-.13.696-.51.908-.486.251-.958.515-1.453.773zm3.419 5.403c-.495.339-.97.649-1.47.949-.408.269-.768.204-.868-.059-.125-.392-.225-.774-.348-1.154-.088-.37.149-.709.527-.967.507-.287.996-.574 1.494-.886.38-.221.739-.163.832.1.117.375.247.716.358 1.085.088.34-.138.668-.525.932zm.487-11.473c-.203.11-.407.193-.613.305-.37.158-.691.046-.82-.253-.047-.169-.108-.351-.161-.527-.08-.323.149-.666.48-.853.208-.087.402-.175.607-.27.369-.158.69-.047.794.246.064.17.11.346.173.532.076.309-.11.644-.46.82zm1.39 6.41c-.374.204-.725.129-.82-.117-.046-.171-.104-.334-.146-.492-.1-.346.106-.646.478-.863.19-.111.39-.221.606-.333.352-.2.689-.129.797.141.059.146.112.316.164.463.083.334-.111.639-.465.838-.211.129-.408.246-.613.363zm2.585 5.091-.621.451c-.381.258-.715.235-.811.012-.047-.14-.11-.287-.15-.439-.102-.345.117-.644.48-.896.206-.141.414-.299.619-.441.378-.233.67-.298.803.013.055.129.102.275.167.404.099.34-.132.616-.487.896zm.38-10.3c-.075.034-.137.07-.22.105-.35.165-.652.07-.77-.188a.404.404 0 0 0-.058-.181c-.093-.328.085-.615.43-.802a.722.722 0 0 0 .206-.113c.354-.139.659-.046.765.212.023.064.047.117.073.176.09.311-.08.598-.425.791zm2.026 5.309a1.373 1.373 0 0 1-.22.145c-.34.23-.662.176-.762-.041-.012-.052-.053-.104-.058-.146-.115-.333.096-.609.42-.814.075-.053.148-.095.215-.136.358-.192.67-.151.782.066.02.034.042.099.059.146.114.333-.085.568-.436.78zm-20.918 10.652c-.431.217-.885.444-1.328.668-.48.258-.78.633-.72 1.042.088.341.152.604.234.955.106.382.51.429 1.008.199.466-.221.89-.445 1.348-.678.474-.252.764-.651.685-1.043-.08-.346-.14-.617-.231-.967-.11-.346-.493-.411-.996-.176z" style="fill:#f49418;stroke:none"/><path d="M564.027 127.071c-.132-.528-.238-.967-.384-1.477-.167-.58-.612-.603-1.143-.176-.486.399-.943.768-1.423 1.196-.531.463-.81 1.131-.692 1.722.14.539.246.938.369 1.489.176.58.63.574 1.172.14.492-.404.952-.803 1.43-1.201.533-.475.803-1.131.67-1.693zm6.466 25.693a55.605 55.605 0 0 0-.481-1.922c-.176-.674-.685-.873-1.26-.416-.533.416-1.034.826-1.544 1.266a2.173 2.173 0 0 0-.711 2.021c.158.674.292 1.278.445 1.928.193.709.726.867 1.307.457.515-.445 1.048-.855 1.555-1.271.57-.504.85-1.325.689-2.063zm-3.821-15.398c-.175-.633-.662-.704-1.22-.282-.485.422-.965.821-1.478 1.231-.53.486-.806 1.219-.685 1.863.137.604.26 1.09.4 1.682.188.644.675.697 1.23.281.502-.428.992-.844 1.504-1.254.536-.475.806-1.225.665-1.863-.14-.574-.263-1.096-.416-1.658zm7.137 29.103c-.187-.721-.77-1.049-1.368-.592-.551.428-1.072.838-1.632 1.26-.601.504-.873 1.354-.721 2.203.167.756.328 1.483.507 2.233.21.75.774 1.084 1.392.668.559-.411 1.11-.809 1.658-1.248.609-.504.879-1.424.697-2.291-.17-.75-.345-1.5-.533-2.233zM670.366 7.471c-1.97-.656-12.668-3.908-23.994 2.654l.005.042C633.307.364 617.426-.104 612.194.013h.032c21.993 3.134 27.688 20.144 27.642 32.517-.018 3.596-.516 6.796-1.243 9.145-4.482 19.653-31.916 43.612-45.503 54.423-9.498 7.254-12.118 8.936-18.153 13.652-1.301.756-1.886 1.928-1.623 3.164.144.44.276.879.404 1.342.179.774-.313 1.91-1.166 2.526-.61.404-1.186.779-1.804 1.201l.006-.012c-1.26.797-1.946.645-2.31-.527-.204-.668-.371-1.289-.56-1.946-.148-.451-.611-.556-1.127-.234a31.345 31.345 0 0 0-2.455 1.705c-.527.399-.805.955-.673 1.541.228.838.419 1.582.662 2.402.155.504.627.575 1.13.211.61-.439 1.178-.867 1.788-1.3 1.136-.797 1.875-.61 2.25.644.246.885.486 1.717.744 2.619.328 1.348-.047 2.315-1.19 3.246-.61.463-1.19.909-1.804 1.383-.525.434-.791 1.067-.657 1.699a234 234 0 0 1 .715 2.731c.16.557.65.65 1.184.281.598-.48 1.189-.949 1.799-1.418 1.154-.896 1.88-.68 2.326.756.275 1.008.539 1.975.808 3 .387 1.553.015 2.666-1.154 3.686l-1.816 1.494a2.026 2.026 0 0 0-.668 1.892c.278 1.043.539 2.034.803 3.112.187.65.685.797 1.242.386.618-.521 1.224-1.007 1.839-1.529 1.213-.955 1.966-.709 2.458.961.299 1.166.613 2.291.929 3.475.446 1.793.1 3.058-1.107 4.177-.633.545-1.263 1.067-1.91 1.612-.548.492-.8 1.382-.64 2.121.306 1.219.575 2.402.895 3.633.23.75.758.961 1.335.515.65-.556 1.275-1.084 1.943-1.646 1.242-1.049 2.057-.709 2.637 1.213.363 1.347.72 2.666 1.098 4.054.542 2.104.173 3.557-1.098 4.793-.674.604-1.32 1.166-2.004 1.758-.61.539-.83 1.6-.668 2.391.345 1.418.688 2.795 1.054 4.254.264.914.838 1.177 1.459.709a121.93 121.93 0 0 0 2.87-2.549c.57-.61.792-1.74.599-2.514a258.914 258.914 0 0 0-.958-3.475c-.51-2.097-.18-3.521 1.169-4.875a157.52 157.52 0 0 0 1.966-1.875c1.084-1.007 1.869-.931 2.478.891.279.873.566 1.781.865 2.707.779 2.227 1.892 2.08 3.164 1.061 44.549-36.434 80.07-82.383 72.216-125.526l.02.041c-.028-.147-.058-.31-.09-.457-.006-.047-.014-.094-.023-.153-2.183-10.751-1.87-26.463 7.222-31.654 1.438-.75.858-1.296-1.175-1.976zm-80.631 111.262c.076-.082.184-.158.269-.223.428-.328.812-.269 1.01.281.027.088.057.217.098.317.149.492-.041 1.113-.454 1.5l-.261.228c-.437.334-.835.258-1.034-.299-.027-.111-.074-.21-.114-.328-.118-.509.046-1.113.486-1.476zm-2.748-9.469c.096-.064.184-.117.28-.187.44-.282.78-.317.953.216.038.094.053.188.085.276.076.381-.132.931-.556 1.254a3.118 3.118 0 0 0-.288.199c-.436.275-.82.305-.981-.229-.032-.093-.044-.193-.085-.281-.082-.398.132-.932.592-1.248zm-.361 18.58c.258-.211.507-.416.759-.633.45-.369.888-.234 1.093.334.103.323.199.639.319.955a1.746 1.746 0 0 1-.457 1.682c-.266.229-.512.428-.764.662-.454.358-.906.217-1.123-.346-.093-.334-.204-.656-.301-.984-.164-.58.035-1.26.474-1.67zm-3.26-10.846c.258-.181.498-.357.756-.545.465-.31.86-.263 1.03.27.095.264.17.545.253.809.11.468-.082 1.084-.545 1.441-.246.188-.498.387-.765.586-.445.305-.855.246-1.043-.293a17.087 17.087 0 0 0-.258-.838c-.108-.469.1-1.06.572-1.43zm-.551 9.821c.155.556-.053 1.23-.528 1.652-.591.469-1.165.938-1.775 1.424-.507.357-.946.246-1.151-.334-.202-.709-.393-1.412-.607-2.115a1.669 1.669 0 0 1 .566-1.629c.6-.481 1.18-.908 1.802-1.377.462-.346.914-.258 1.083.334.217.65.41 1.347.61 2.045zm-2.045-18.979c.278-.158.536-.31.803-.457.486-.258.87-.293 1.028.229.056.228.138.457.185.685.128.533-.153.908-.63 1.219a6.842 6.842 0 0 0-.788.475c-.47.234-.868.257-1.032-.264-.07-.223-.134-.475-.193-.703-.1-.393.158-.908.627-1.184zm-4.488 7.442a42.089 42.089 0 0 1 1.845-1.161c.49-.316.882-.275 1.067.264.167.563.334 1.16.512 1.752.115.457-.12 1.061-.606 1.412-.598.416-1.19.815-1.8 1.254-.503.293-.92.252-1.106-.293a69.95 69.95 0 0 0-.522-1.84c-.105-.463.123-1.06.61-1.388zm-4.8 13.037c-.163-.604-.316-1.184-.491-1.776-.317-1.359.046-2.314 1.283-3.257.627-.463 1.225-.891 1.85-1.336.968-.645 1.625-.592 1.97.574.217.679.416 1.406.62 2.133.224.937-.245 2.214-1.065 2.906-.598.463-1.193.908-1.805 1.377 0-.006 0-.006.006-.006-1.251.908-1.963.715-2.367-.615zm5.849 13.248c-1.266 1.002-2.016.75-2.48-.785a71.884 71.884 0 0 0-.55-2.051c-.366-1.547-.014-2.643 1.228-3.692.624-.492 1.21-.99 1.837-1.494.984-.75 1.643-.697 2.074.651.24.802.48 1.634.72 2.49.276 1.113-.181 2.549-.998 3.334h.008c-.621.516-1.207 1.019-1.84 1.547zm5.976 12.896h.024c-.67.592-1.275 1.149-1.931 1.752-1.327 1.131-2.13.803-2.663-.996-.211-.779-.42-1.57-.633-2.367-.451-1.816-.1-3.053 1.195-4.231h-.017c.638-.55 1.23-1.101 1.866-1.646 1.04-.879 1.737-.809 2.259.779.28.92.556 1.881.855 2.871.334 1.307-.088 2.953-.955 3.838zm2.88-13.306c-.624.556-1.21 1.072-1.84 1.64-.498.405-.996.205-1.227-.404-.235-.82-.478-1.635-.727-2.461-.164-.68.047-1.418.52-1.875.617-.533 1.197-1.049 1.82-1.57.467-.381.953-.205 1.158.386.237.78.498 1.571.744 2.397.205.662.018 1.418-.448 1.887zm4.737 14.642c-.638.645-1.262 1.266-1.907 1.899-.513.468-1.096.205-1.342-.446-.29-.937-.59-1.898-.882-2.853-.24-.797-.023-1.635.475-2.168.633-.604 1.248-1.184 1.88-1.793.493-.44 1.05-.182 1.296.433.31.903.612 1.799.93 2.743.242.826.06 1.629-.45 2.185zm1.799-12.621c-.246.275-.521.51-.78.768-.462.392-.99.199-1.233-.399-.114-.381-.237-.756-.36-1.148-.217-.709-.041-1.447.407-1.904.258-.252.513-.475.777-.721.445-.41.955-.211 1.183.387.144.357.264.726.405 1.101.222.709.052 1.447-.4 1.916zm1.863-11.01c-.096.071-.19.17-.281.258-.433.375-.891.217-1.12-.346a5.234 5.234 0 0 0-.137-.375c-.187-.644-.026-1.312.396-1.74.093-.088.18-.176.269-.246.43-.381.873-.217 1.102.346.035.117.085.246.126.381a1.73 1.73 0 0 1-.355 1.722zm3.633 25.776c-.275.287-.551.586-.835.884-.504.458-1.095.206-1.362-.41-.152-.427-.322-.855-.483-1.265-.267-.867-.115-1.664.372-2.227.263-.258.533-.551.82-.832.474-.469 1.069-.211 1.336.41.167.41.334.809.486 1.231.305.826.135 1.652-.334 2.209zm1.442-12.522c-.091.1-.2.194-.276.293-.46.422-1.011.205-1.277-.381-.041-.146-.106-.293-.164-.439-.267-.768-.117-1.488.322-1.969.094-.094.19-.181.28-.275.429-.428.968-.217 1.223.369.047.146.105.287.16.433.29.745.165 1.477-.268 1.969zM29.62 125.436a14.662 14.662 0 0 1 4.405 4.963 13.103 13.103 0 0 1 1.63 6.369c0 4.125-1.63 7.652-4.876 10.576-3.24 2.936-7.14 4.395-11.683 4.395-4.489 0-8.367-1.465-11.649-4.401-3.266-2.924-4.91-6.451-4.91-10.57 0-2.268.55-4.395 1.67-6.375a15.385 15.385 0 0 1 4.35-4.957H.153v-6.018h13.553v-7.834H24.39v7.834h13.555v6.018zm-6.798 46.424H56.57v6.023H19.503c-2.118 0-3.873-.633-5.274-1.91-1.397-1.266-2.094-3.006-2.094-5.227l-.012-14.097h10.7zm-8.174-41.625c-1.31 1.822-1.968 4.002-1.968 6.533 0 2.537.659 4.728 1.986 6.574 1.318 1.852 2.79 2.772 4.43 2.772 1.693 0 3.181-.92 4.482-2.766 1.283-1.852 1.928-4.037 1.928-6.58 0-2.531-.645-4.711-1.94-6.533-1.289-1.817-2.789-2.731-4.47-2.731-1.64 0-3.12.914-4.447 2.731zm28.922 30.539-.005-48.481H54.26v15.129l10.693.006v6.1H54.261l.009 27.246zM75.32 112.791h45.63l.005 14.414c0 1.793-.252 3.75-.756 5.86-.504 2.115-1.122 3.644-1.863 4.599h10.298v6.018h-25.18v10.529h17.349l.006 23.772h-10.702l-.01-17.748h-35.01v-6.024h17.667v-10.529H68.039v-6.018h40.945c.537-1.377.882-2.959 1.029-4.752.167-1.798.243-3.615.243-5.466v-8.631l-34.937-.006zM136.066 119.987v-6.018h35.093v6.018h-12.203l.003 1.265c0 6.076 1.679 11.039 5.034 14.895 3.357 3.855 7.204 6.211 11.525 7.055l-5.227 4.435c-3.331-.269-6.72-1.629-10.177-4.084-3.457-2.455-5.637-5.086-6.536-7.887-.847 2.801-3.01 5.42-6.496 7.84-3.48 2.438-6.89 3.809-10.215 4.125l-5.23-4.435c4.324-.838 8.156-3.223 11.487-7.131 3.326-3.908 4.978-8.842 4.978-14.813v-1.265zm46.108 34.576c3.446 2.982 5.154 6.592 5.154 10.81 0 4.231-1.708 7.817-5.136 10.782-3.445 2.947-7.588 4.429-12.443 4.429-4.86 0-9.005-1.482-12.44-4.429-3.433-2.971-5.152-6.557-5.152-10.787 0-4.225 1.719-7.823 5.147-10.805 3.425-2.988 7.576-4.477 12.437-4.477 4.857 0 9 1.489 12.433 4.477zm-17.385 4.435c-1.394 1.875-2.097 4.002-2.097 6.375 0 2.327.703 4.413 2.103 6.258 1.4 1.846 3.047 2.778 4.952 2.778 1.9 0 3.544-.932 4.95-2.778 1.395-1.851 2.092-3.931 2.092-6.258 0-2.373-.697-4.5-2.097-6.375-1.401-1.875-3.053-2.812-4.951-2.812-1.9 0-3.551.937-4.952 2.812zm13.26-46.535 10.776.082-.071 12.117h10.688v5.942l-10.688.076v19.014h-10.7zM228.973 119.993c3.28 3.38 4.928 7.412 4.928 12.111 0 4.752-1.641 8.801-4.913 12.129-3.276 3.322-7.204 4.986-11.798 4.986-4.6 0-8.55-1.664-11.845-4.986-3.302-3.328-4.954-7.377-4.96-12.129 0-4.693 1.653-8.725 4.95-12.111 3.297-3.381 7.249-5.069 11.843-5.069 4.597 0 8.529 1.688 11.795 5.069zm-16.664 4.236c-1.295 2.144-1.94 4.764-1.936 7.875 0 3.17.65 5.824 1.939 7.969 1.292 2.138 2.915 3.205 4.878 3.205 1.95 0 3.557-1.067 4.828-3.205 1.266-2.145 1.9-4.799 1.9-7.969 0-3.111-.634-5.731-1.9-7.875-1.271-2.139-2.89-3.211-4.84-3.211-1.951 0-3.574 1.072-4.87 3.211zm24.375 53.824-.018-65.584h9.9l.006 17.104H251l-.006-17.104h9.903l.015 65.584h-9.897l-.006-42.463h-4.438l.014 42.463zM301.846 118.047c3.62 3.358 5.432 7.406 5.432 12.164 0 4.752-1.811 8.801-5.43 12.159-3.617 3.357-7.93 5.021-12.945 5.021-4.963 0-9.246-1.67-12.832-5.021-3.598-3.358-5.385-7.407-5.385-12.159-.006-4.758 1.787-8.806 5.379-12.164 3.592-3.351 7.869-5.027 12.832-5.027 5.013 0 9.334 1.676 12.949 5.027zm-18.258 4.319c-1.48 2.168-2.215 4.781-2.215 7.845 0 3.059.736 5.678 2.22 7.84 1.478 2.168 3.244 3.246 5.304 3.246 2.12 0 3.923-1.078 5.426-3.246 1.505-2.162 2.26-4.781 2.26-7.84 0-3.064-.76-5.677-2.26-7.845-1.503-2.163-3.305-3.252-5.426-3.252-2.068 0-3.826 1.089-5.31 3.252zm-.703 32.478h10.693l.006 17.109h35.403v6.1H290.25c-2.112 0-3.858-.639-5.267-1.898-1.395-1.278-2.092-3.018-2.092-5.233zm33.097-42.375h10.535l.1 48.469h-10.621zM339.414 114.602h26.692v6.738c0 10.354-2.36 18.492-7.081 24.44-4.73 5.941-10.705 9.427-17.944 10.488l-5.705-4.043c6.759-1.529 11.78-4.693 15.044-9.498 3.276-4.805 4.919-11.672 4.91-20.596v-1.506l-15.914-.005zm31.22 63.451-.016-65.584h10.136l.012 17.818h5.142v-17.818h10.139l.02 65.584h-10.14l-.02-41.742h-5.141l.009 41.742zM416.795 113.418v9.188h12.036v-9.188h10.696l.014 30.182h-25.992c-2.26 0-4.078-.65-5.426-1.939-1.347-1.301-2.021-2.995-2.021-5.11l-.006-23.133zm42.627 64.635h-37.547c-2.217 0-4.013-.65-5.384-1.986-1.366-1.313-2.06-3.03-2.06-5.145l-.003-10.295h32.947v-5.543h-33.656v-5.947h44.35v17.191h-32.942v5.702l34.295.006zm-30.583-40.471-.003-8.959h-12.041l.006 8.959zm29.23-14.425h10.687v6.023h-10.687v15.844h-10.694l-.005-32.549h10.687zM513.994 141.45v5.695h-16.386v9.662l-10.696.006v-9.668h-14.58v-5.701zm-10.216-25.348c3.11 2.643 4.675 5.836 4.675 9.586 0 3.744-1.564 6.926-4.675 9.545-3.114 2.607-6.92 3.914-11.397 3.914-4.494 0-8.305-1.307-11.45-3.914-3.148-2.619-4.72-5.801-4.72-9.545 0-3.75 1.572-6.943 4.709-9.592 3.147-2.637 6.96-3.955 11.45-3.955 4.488 0 8.288 1.318 11.408 3.961zm-8.86 55.84 36.668.006.009 6.099-39.93-.006c-2.105 0-3.872-.627-5.298-1.898-1.433-1.272-2.145-3.012-2.145-5.227v-10.857h10.69zm-6.706-51.797c-1.14 1.476-1.702 3.322-1.702 5.543s.568 4.066 1.702 5.543c1.143 1.476 2.523 2.215 4.169 2.215 1.582 0 2.942-.739 4.072-2.215 1.13-1.477 1.706-3.322 1.7-5.543 0-2.221-.57-4.067-1.705-5.543-1.137-1.483-2.496-2.221-4.078-2.221-1.635 0-3.021.738-4.158 2.221zm41.148-7.682.01 49.899h-10.692v-6.018l-14.414-.006v-5.308l14.414.006-.006-38.573zM11.373 68.524c-.595.826-1.553 1.676-2.877 2.537-1.447.943-2.584 1.353-3.404 1.248-.299-.059-.938 0-1.91.164.047-.387.105-.633.15-.756.052-.076-.033-.135-.262-.158a1.72 1.72 0 0 0 .038-.369c0-.317-.172-.68-.524-1.131 0-.439.129-.897.39-1.371.26-.475.518-.914.764-1.324.182-.393.431-.744.774-1.061.337-.322.665-.633.99-.937.498-1.084.96-1.676 1.386-1.788a.857.857 0 0 1-.08-.375c0-.251.112-.509.34-.791.323-.351.393-.609.223-.744-.475-.386-1.005-.445-1.605-.17-.624.305-1.125.475-1.497.504-1.1.059-1.858.03-2.286-.088C1.315 61.745.65 61.323 0 60.625l2.361-.867c.202.445.82.662 1.87.662.375 0 .984-.129 1.828-.375.75-.222 1.359-.287 1.84-.211.667.112 1.458.498 2.352 1.161.076.503-.076 1.037-.442 1.587-.053.528-.452 1.219-1.202 2.098-.752.879-1.388 1.453-1.91 1.729-.222.632-.436 1.06-.638 1.283-.443.89-.698 1.412-.744 1.588-.024.216-.012.41.04.58l.036.281.146.293c.08.193.176.334.299.41.7-.217 1.512-.744 2.432-1.564.925-.838 1.523-1.618 1.798-2.332a11.96 11.96 0 0 0-.785-.293l-.594-.164.26-.293c.17-.194.422-.387.747-.58.42-.252.97-.375 1.647-.375.073.169.243.375.521.621.2.199.3.369.3.545 0 .685-.256 1.394-.789 2.115zm-4.336-11.86a34.447 34.447 0 0 0-1.084 2.707 7.412 7.412 0 0 0-.937.247c-.276.076-.56-.047-.862-.381.223-.879.349-1.494.372-1.828.103-.727.13-1.342.08-1.87l-.118-.744 2.584.041zm9.727 20.754c-.076.252-.305.58-.674 1.002.047.662-.076 1.248-.375 1.741-.1.556-.152 1.001-.152 1.335a3.016 3.016 0 0 0-.109.293l-.152.411.152 1.705c.047.58.076.943.076 1.084 0 .797-.298 1.839-.905 3.111-.396-1.043-1.031-1.688-1.904-1.91.129-.75.176-1.201.152-1.371-.053-.164-.07-.586-.07-1.254 0-.188.032-.469.105-.844.076-.375.117-.662.117-.855a7 7 0 0 0-.04-.745c-.053-.169-.012-.386.11-.662.17-.427.27-.644.305-.673a1.414 1.414 0 0 0-.04-.499c.4-.773.72-1.365.975-1.787.27-.855 1.128-1.652 2.578-2.367-.079.944-.126 1.699-.15 2.285zm9.594 3.534c-.413.334-.802.949-1.177 1.851s-.85 1.588-1.421 2.057c-.299.246-.674.843-1.125 1.787-.95 1.277-1.77 2.285-2.467 3.035l.035.539c-.15.275-.486.774-1.008 1.5-.246.305-.375.539-.375.703 0 .112.035.194.112.229.073.041.205.064.378.064 1.892-.082 3.589-.486 5.083-1.201l.375.791c-2.168 1.289-4.36 2.01-6.586 2.186-.844.052-1.471.005-1.87-.129-.398-.135-.559-.387-.483-.744.12-.698.498-1.5 1.122-2.415.797-1.171 1.26-2.062 1.383-2.671.322-.498.615-.832.861-.997 1.02-1.136 1.831-2.203 2.429-3.205.95-1.582 1.837-2.9 2.657-3.961.276-.363.416-.82.416-1.371 0-.164-.079-.357-.228-.562-.15-.205-.3-.287-.448-.229-.074-.076-.372-.023-.903.164-.343.141-.682.264-1.005.381-.498.358-.861.651-1.087.873-.796.405-1.409.692-1.83.832-.206.135-.587.235-1.16.287l-.897.124.709-.874c.45-.562 1.101-1.054 1.945-1.494.27.03.586-.111.935-.416.278-.222.545-.457.823-.703.173-.029.732-.217 1.681-.551.674-.216 1.237-.328 1.682-.328.574 0 1.064.235 1.462.709.396.475.598 1.026.598 1.67 0 1.049-.208 1.74-.616 2.069zm-.313-15.92c-2.077.75-3.164 1.23-3.258 1.459a4.163 4.163 0 0 0-.076.662c-.196.029-.451.011-.744-.041a3.143 3.143 0 0 0-.642-.082c-.199.914-.348 1.588-.448 2.039.176.187.287.41.34.662.023.246-.038.457-.19.621-.15.164-.276.428-.373.791 0 .193-.023.375-.076.545a.585.585 0 0 0 .076.498c.217.609.381 1.084.487 1.453-.076 0-1.125.07-3.147.211l.229-.879c-.03-.357-.088-.656-.188-.873-.129-.252-.129-.568 0-.955.2-.973.322-1.693.375-2.162l1.198-4.74c.569-2.268 1.058-3.668 1.456-4.196.077-.246.123-.644.153-1.166.023-.439.108-.797.258-1.072v-.504c0-.58.234-1.101.714-1.541h.188a.387.387 0 0 0 .299-.041c.249-.275.369-.48.369-.627.823.363 1.348.709 1.573 1.043.226.334.123.897-.299 1.711-.199.404-.337 1.002-.413 1.787-.471.463-.797 1.477-.972 3.024-.024.14-.1.322-.223.544a1.422 1.422 0 0 0-.152.792c-.176.187-.346.386-.522.585-.252.27-.328.493-.223.663.1.193.422.146.973-.129.322-.223.66-.422 1.008-.621 2.25-1.137 4.081-1.84 5.499-2.122l.49 1.418c-.598.135-1.847.551-3.74 1.243zM46.216 67.944c-.278.779-.384 1.312-.337 1.623.047.304-.03.726-.223 1.248-.205.527-.413.879-.635 1.06-.226.182-.414.598-.566 1.26-.076.422-.146.838-.223 1.254.05.188.077.369.077.533 0 1.026-.812 1.512-2.432 1.459.422-2.08.759-3.644 1.008-4.693.228-.727.428-1.307.6-1.752-.029.105-.038-.035-.038-.457 0-.246.094-.598.279-1.037.19-.446.29-.78.319-.996.1-.721.111-1.237.038-1.547-.152-.434-.524-.633-1.125-.58-.146.035-.466.345-.955.937-.483.598-.776 1.014-.876 1.225l-.973 1.078a18.72 18.72 0 0 0-1.418 1.752c-.129.469-.184.738-.184.791a10.82 10.82 0 0 1-.267 1.014c-.129.41-.346.796-.653 1.189-.32.387-.618.58-.917.58-.548 0-.826-.404-.826-1.201 0-.387.146-.844.433-1.371a4.324 4.324 0 0 0 .504-1.705l.226-.586c.073-.551.16-.955.26-1.207 0-.188.106-.428.32-.703.214-.282.313-.481.313-.621a.303.303 0 0 0-.073-.17c.325-1.196.472-2.01.448-2.45-.996.604-1.681.956-2.06 1.038-.57.216-.995.392-1.268.544-.205 0-.474.188-.823.581-.803-.581-1.198-1.014-1.198-1.295 0-.135.035-.299.111-.498.398 0 .72-.077.973-.205.879-.504 1.684-.791 2.431-.868a22.737 22.737 0 0 1 1.477-.861c.363-.176.682-.275.955-.305.302.241.486.369.563.369.62.504.96.797 1.01.874.27.333.325.779.15 1.335-.349 1.161-.627 1.911-.824 2.239-.07.14-.137.246-.184.334l.012.041-.012.129c.392-.586.62-.909.668-.961.504-.721.902-1.301 1.195-1.741.328-.339.803-.574 1.43-.714 1.219-.276 2.264-.024 3.137.755.674.61.923 1.155.75 1.659-.199.556-.398 1.09-.597 1.623zm11.373-4.864c0 .059.015.123.038.229.023.1.035.17.035.223 0 .117-.035.24-.114.375-.144.17-.25.334-.296.498-1.427 4.465-2.121 7.218-2.095 8.279l-.6 3.404-1.46.047c-.345-.668-.52-1.248-.52-1.746 0-.088.146-.416.445-1.002-.3-.551-.437-.873-.414-.955l.302-1.324c.229-1.336.358-2.326.41-2.994-.474.246-1.01.486-1.608.697-.668.17-1.333.351-1.98.551-.8.193-1.41.48-1.832.867l-1.385-.088.152-.703c.1-.44.231-.715.407-.832.897-.276 1.556-.51 1.984-.703.846-.276 1.602-.457 2.264-.539.662-.082 1.078-.27 1.254-.545l1.078.463c.106-.17.208-.311.305-.422v-.451c0-.147.012-.299.035-.51.2-.24.352-.381.451-.41.024-.364.065-.733.13-1.114.064-.398.269-.644.62-.755-.047-.088-.047-.2 0-.334.024-.083.076-.206.147-.375l.076-.124c.299-.773.501-1.382.598-1.828l.562.58c.375.422.733.821 1.084 1.207a.813.813 0 0 0-.073.334zm5.985-1.617a4.657 4.657 0 0 1-.45 1.782c-.226.445-.487 1.335-.786 2.654-.246 1.142-.55 1.933-.897 2.373-.152.199-.322.75-.527 1.664l-.486 2.285c-.27 1.307-.42 2.484-.448 3.533a54.572 54.572 0 0 0 0 3.533 2.742 2.742 0 0 1 1.125-.533l-.039.979c-1.002.691-1.734 1.207-2.206 1.57h-1.125c-.548-.861-.82-2.162-.82-3.896 0-.141.05-.282.15-.416l.149-.217c-.176-.27-.26-.451-.26-.528 0-.369.084-.849.26-1.459.249-.96.375-1.464.375-1.494.132-.609.132-1.131 0-1.576-.153-.381-.003-.926.442-1.617.255-.381.355-.902.302-1.541-.026-.516.22-1.02.712-1.488.123-.106.167-.311.129-.598-.035-.299.111-.82.433-1.6.074-.164.18-.468.3-.908.05-.275.225-.644.52-1.084.203-.328.3-.568.3-.703 0-.088-.059-.117-.188-.117.697-.891 1.21-1.471 1.538-1.746.525.099.835.181.938.228.02.03.137.03.33 0h.264zM87.82 72.702c-1.072 1.646-2.191 2.806-3.363 3.492-.852.527-1.64.814-2.355.867-.903.059-1.512.152-1.837.299l-.525.199.073-.457a4.196 4.196 0 0 0 0-.615c-.372-.282-.609-.698-.711-1.248-.097-.58.014-1.172.34-1.787.322-.516.63-1.067.92-1.635.278-.569.837-1.307 1.658-2.215l.45-.498c.153-.838.56-1.307 1.234-1.418.6-.656.876-1.154.823-1.488a.917.917 0 0 0-.222-.504c-.422-.217-.8-.328-1.125-.328-.223 0-.434.046-.633.123-.475.281-.95.41-1.424.41-.85 0-1.506.017-1.98.047-.48.058-1.26-.469-2.359-1.571l2.47-.797c.498-.164.82.1.973.797.1.024.246.03.445.006.205-.006.351-.006.451-.006.451 0 1.01-.093 1.685-.263.873-.241 1.438-.381 1.684-.41.448 0 1.345.679 2.693 2.039a3.43 3.43 0 0 1-.375 1.16c-.126.222-.349.551-.671 1.002-1.099 1.523-1.858 2.531-2.288 3.035a6.863 6.863 0 0 1-.484.457c-.146.105-.284.305-.41.58l-.334.791c-.152.299-.252.58-.305.826 0 .029-.132.211-.407.539-.176.229-.225.428-.15.627.3.475.534.727.71.75 1.699-.721 2.707-1.318 3.029-1.793l1.31-1.91c-.326-.58-.812-.896-1.46-.961l.525-.275c.826-.428 1.459-.739 1.907-.961.252-.059.454-.03.6.082.15.111.223.31.223.615a41.07 41.07 0 0 1-.149 1.125c-.047.275-.26.703-.636 1.272zm-4.467-13.008c-.308.427-.454.709-.431.843.064.358.064.668 0 .926-.076.246-.176.539-.299.867a3.864 3.864 0 0 1-.861.082c-.375 0-.65-.134-.823-.41.222-.586.298-.937.222-1.043-.073-.117-.126-.427-.15-.961-.026-.697.136-1.576.487-2.63.053-.129.076-.411.076-.832l-.038-.54h2.13l.117 2.538c.024.339-.123.72-.43 1.16zm15.325 10.207c-.109.422-.17.72-.194.914l-.937.082a7.252 7.252 0 0 1-.785.088c-.276 1.025-.413 1.523-.413 1.494 0 .164.038.316.114.445.076.117.1.375.076.768-.023.386-.138.521-.34.416-.07.662-.12 1.166-.143 1.494-.03.17.009.434.108.791.147.445.223.732.223.879l-2.801.287.146-.873c.047-.358 0-.721-.146-1.084-.152-.299-.065-.803.258-1.494.1-.223.143-.574.135-1.067-.015-.48.011-.843.087-1.095.352-1.448.704-2.883 1.05-4.325.55-2.191.987-3.445 1.312-3.75.196-.193.348-.58.445-1.16.103-.726.2-1.189.296-1.377a1.792 1.792 0 0 1-.07-.498c0-.468.26-.925.782-1.371l.562.082.153-.17a.577.577 0 0 0 .187-.328c.873.352 1.272.914 1.196 1.658-.05.452-.173.803-.372 1.079-.053.257-.13.544-.226.878l-.15.504-.489.452c-.322 1.47-.586 2.443-.785 2.912.053.193.065.386.041.58-.053.199-.1.369-.155.545-.522.597-.73.978-.63 1.119.07.164.2.205.37.123 2.598-1.301 4.528-2.039 5.8-2.203l.302 1.207c-2.247.838-3.917 1.5-5.007 1.998zM110.848 65.078c0 .581-.211 1.231-.645 1.952.053.228.088.48.112.785 0 .34-.036.615-.109.832-.102.726-.138 1.125-.108 1.213l.146 1.195c-.422.445-.732.779-.943 1.008h-1.225a9.029 9.029 0 0 1-.416-1.582 3.15 3.15 0 0 0-.222-.211c-.053-.024-.077-.129-.077-.293 0-.076.077-.328.223-.744a4.949 4.949 0 0 0 0-.422 2.046 2.046 0 0 1-.032-.41c-.03-.698-.015-1.131.038-1.336 0-.024.082-.252.26-.674.174-.439.285-.768.338-.979a1.969 1.969 0 0 0-.112-.334c-.023 0-.04-.216-.04-.626v-1.418c.527.117.825.169.905.169.07.024.16.024.257 0l1.65-.169zm9.088.077-.153.334c-.1.252-.176.427-.222.545-.352.328-.873 1.031-1.57 2.121-.628.966-1.114 1.57-1.46 1.804a2.388 2.388 0 0 0-.826.979c-.053.111-.21.51-.486 1.201-.176.445-.14.668.111.668.252.029.437.029.563 0 1.095-.387 1.898-.709 2.39-.961l-.82 1.002c-.574.662-1.037 1.025-1.383 1.078l-1.459.246c-.152.035-.41.047-.785.047-.38 0-.75-.152-1.125-.457a7.393 7.393 0 0 1-.038-.668c0-.246.1-.732.302-1.453.568-.469 1.098-1.137 1.573-1.992.92-1.635 1.878-3.065 2.874-4.283l.228-.627c.077-.223.287-.51.633-.868.58-.615.788-1.048.639-1.33l-.182-.298c-.703 0-1.722.275-3.07.791-1.488.615-2.332 1.195-2.54 1.752h-1.263c.076-.862.208-1.354.41-1.5a13.555 13.555 0 0 1 3.176-1.624c1.318-.468 2.452-.703 3.396-.703.55 0 1.072.159 1.57.504.598.41.888.897.864 1.448-.03.527-.474 1.277-1.347 2.244zm14.507-3.639a.981.981 0 0 1-.222.568c-.13.153-.161.416-.109.768a1.065 1.065 0 0 0-.372.832c0 .674-.176 1.389-.524 2.162-.103.363-.19.627-.267.797-.322.691-.536 1.23-.633 1.623-.026-.035-.064.041-.11.205l-.115.293.114.416c-.105.082-.161.27-.17.545-.017.275-.082.486-.21.621-.2.498-.285.885-.256 1.16-.278.311-.375.656-.301 1.043.076.223.11.446.11.662 0 .2-.052.446-.151.739-.094.281-.147.503-.147.644a.67.67 0 0 0 .114.41c-.202.03-.507.199-.917.504-.41.311-.928.457-1.552.457.1-.861.146-1.576.146-2.162v-1.119c0-.252.152-.557.451-.92a2.717 2.717 0 0 1-.035-.451c0-.416.135-.99.41-1.705h-.597c-.176 0-.34.023-.493.082-.794.275-1.95.609-3.474.996-.451.059-.926.117-1.418.182-.507.076-.903.246-1.201.527l-1.644-.082.337-.674c.2-.439.387-.709.56-.826.369-.082.723-.182 1.045-.293l.973-.334c.276-.082.859-.176 1.76-.287.748-.117 1.316-.293 1.724-.545h.706l.934-.41a5.614 5.614 0 0 1 1.313-.375l.375-1.336c.123-.434.237-.879.33-1.324-.445.169-.995.246-1.64.246-.9 0-1.635.088-2.209.257-.773.211-1.183.329-1.236.329a.951.951 0 0 1-.372-.082c-1.172.357-1.86.503-2.06.457l-2.839-.75 2.69-.745c1.772-.509 2.745-.75 2.915-.75.275.082.49.141.638.165.35-.223.686-.346 1.014-.375.299 0 .636.011 1.008.041.123-.053.299-.094.524-.124.22-.029.472-.029.747 0l.82 1.331c.13-.504.241-1.008.34-1.512l.302-1.389c.094-.451.2-.756.3-.926a.715.715 0 0 0-.045-.211.4.4 0 0 1 0-.205c.082-.785.328-1.306.756-1.558.27.07.483.176.636.316l.26-.316c1.096.164 1.609.556 1.533 1.16-.053.416-.238.838-.566 1.248zm-7.347 27.609c-.71.217-1.412.411-2.095.604-.683.17-1.157.264-1.403.264-.296 0-.619-.106-.955-.317-.337-.211-.551-.457-.654-.762-.299-.996-.448-1.57-.448-1.746 0-.052.097-.31.299-.744.173-1.857.375-3.006.597-3.451.053-.252.203-.656.449-1.236.178-.475.275-.903.299-1.289.126-.282.254-.534.377-.791.153-.352.311-.551.484-.575.425-.498.724-.972.896-1.418a.988.988 0 0 1 .472-.246c.211-.052.37-.134.463-.252.398.094.712.364.938.832l.298.709c-.55.364-.885.698-1.008.996-.697 1.852-1.224 3.264-1.576 4.202-.498 1.16-.744 2.004-.744 2.537 0 .357.073.709.223 1.043.176.439.398.662.674.662.597 0 1.224-.194 1.875-.586.1-.141.202-.293.316-.457.111-.17.24-.27.398-.287.396-.287.721-.416.964-.416.478 0 .7.515.674 1.57a3.968 3.968 0 0 1-1.813 1.154zM167.825 72.016c-.1.311-.361.516-.783.621-.026 0-.301-.053-.826-.164-.25.111-.571.158-.97.123a19.186 19.186 0 0 0-1.013-.041l-.07-.246c-2.075.662-3.657 1.09-4.752 1.283-.13.029-.531.199-1.202.504-.474.223-.884.334-1.233.334.076 0-.296.129-1.12.41-2.645.891-4.842 1.705-6.585 2.455-.103.141-.123.264-.076.375l.038.211-2.432.117c0-.609.047-1.037.15-1.283.099-.246.36-.521.788-.838.322-.076.62-.222.896-.41.92-.58 2.279-1.148 4.072-1.705 1.43-.416 2.848-.826 4.269-1.248a26.39 26.39 0 0 1-.108-.709c-.23-.662-.34-1.008-.34-1.037 0-.106.035-.322.11-.645.077-.31.1-.515.077-.603a4.14 4.14 0 0 1-.076-.785c0-1.002.21-1.905.639-2.701.146-.282.633-.393 1.459-.34.82.058 1.26.322 1.309.797-.05.328-.222.779-.521 1.324 0 .281-.03.474-.082.586.053.381.09.668.114.832-.2.334-.287.715-.264 1.16.027.475.077.92.15 1.324 1.97-.574 3.096-.873 3.369-.873.624 0 1.037.117 1.233.346.999-.445 1.825-.674 2.47-.674.252 0 .727.123 1.427.381 0 .551-.041.926-.117 1.119zm-6.285-13.242c-.202.246-.536.527-1.01.867-.47.328-.821.65-1.05.949-.275-.053-.474.03-.6.252-.12.223-.237.445-.334.662-.372.692-.635 1.102-.785 1.242a36.029 36.029 0 0 0-1.122 1.495c-.574.498-1.022 1.125-1.35 1.875-.021.685-.396 1.119-1.114 1.277-.451.088-.858.146-1.201.176l-1.011.158.563-1.324c.348-.885.69-1.442 1.028-1.664.337-.223.692-.61 1.069-1.161l.824-1.371c.12-.222.41-.568.858-1.043.375-.416.639-.791.8-1.148.167-.346.448-.721.844-1.137.325-.304.659-.627 1.01-.955.176-.193.299-.439.375-.744.053-.31.012-.498-.111-.545-.252-.105-1.09.047-2.508.469-1.075.31-1.948.609-2.622.896l.826.85H153.05c-.823.141-1.257.047-1.31-.293-.076-.328.086-.68.487-1.031.62-.451 1.219-.768 1.799-.961 1.86-.639 3.41-1.078 4.635-1.324a7.805 7.805 0 0 1 1.347-.129c.645 0 1.172.129 1.57.375.024.023.299.181.827.451.322.146.457.469.407.955 0 .193-.425.82-1.272 1.881zm2.968 32.971c-1.503 1.007-2.701 1.453-3.603 1.318-.024 0-.545.135-1.571.416 0-.334-.1-.586-.298-.75-.522-.358-.727-.844-.604-1.447.38-1.114.689-1.881.943-2.327.747-1.013 1.345-1.752 1.793-2.197.074-.767.457-1.4 1.155-1.863-.1-.334.029-.768.38-1.33.332-.551.332-.85 0-.903-.404-.058-.84.012-1.312.229-.472.199-.896.311-1.27.311-.625 0-1.484-.293-2.585-.879l-1.644-.827 2.057-.257c.597-.129 1.046 0 1.35.416.197.058.41.088.633.088.428 0 1.028-.129 1.816-.393.786-.264 1.424-.398 1.922-.398.627 0 1.313.222 2.057.668.029.199 0 .468-.076.826-.094.451-.147.756-.147.92 0 .498-.351 1.306-1.06 2.431-.715 1.114-1.307 1.893-1.784 2.303-.32.328-.572.568-.742.709-.404.656-.65 1.225-.75 1.658l-.193.34c-.117.217-.155.428-.105.621.146.275.275.44.372.498.747-.223 1.547-.615 2.393-1.16 1.049-.639 1.676-1.271 1.875-1.875-.258-.17-.562-.264-.94-.293l-.601-.076.528-.463c.325-.334.562-.539.708-.627.604-.328 1.202-.498 1.799-.498.07.193.109.422.109.668 0 .328-.038.715-.11 1.16-.145.967-.98 1.957-2.495 2.983zm-2.67-14.45c-.095.44-.201.815-.295 1.125-.205.575-.31 1.049-.334 1.412a4.677 4.677 0 0 0-.451.164c-.527.305-.864.475-1.011.499l-.49.128c.353-1.886.435-3.011.268-3.363a35.604 35.604 0 0 1-.645-2.713l2.095.539.604 1.049c.252.44.339.826.26 1.16zm4.422-11.478c-.258.053-.671.023-1.24-.123-.251-.053-.45-.229-.6-.539l-.257-.457-.34-.036c-.226-.029-.4-.082-.522-.169-.13-.194-.375-.446-.75-.745-.375-.31-.633-.609-.78-.92-.151-.304-.48-.486-.978-.544-.597-.077-1.013-.223-1.236-.452l.299-.416c.205-.281.483-.427.864-.457.173-.029.296-.146.372-.334l.076-.252c.797.2 1.284.393 1.459.586 2.045 1.993 3.542 3.534 4.486 4.612-.296.14-.583.228-.853.246zM188.057 87.25l-2.473.914c-.97.358-1.804.522-2.507.493-.47 0-1.008-.194-1.606-.58-.173-1.073-.237-1.84-.19-2.28 0-.328.255-.679.753-1.037.005-.387.005-.721 0-.996-.024-.135.035-.428.184-.867.223-.58.358-.908.396-.979.035-.07.17-.14.392-.205.223-.07.334-.187.334-.351 0-.58.018-.926.04-1.037.095-.334.338-.534.707-.586-.017-.217.056-.616.229-1.202.149-.439.346-.802.6-1.072.346-.34.58-.603.709-.797.123-.246-.014-.422-.413-.533-.15-.058-.495.041-1.028.293-.533.246-.932.358-1.178.328-.152 0-.574.059-1.271.17-.926.135-3.076.996-6.475 2.572-.17.082-.3.264-.375.534l-.108.463-1.948-.622c.052-.58.202-.972.45-1.166a38.6 38.6 0 0 1 1.044-.621c.802-.252 1.4-.474 1.799-.668l2.994-1.201c.896-.34 1.62-.586 2.165-.75 2.95-.861 4.728-1.295 5.352-1.295.276 0 .51.035.715.088.545.141.932.463 1.154.961.106.246.05.533-.146.867-.527.809-1.05 1.606-1.57 2.414-.701 1.026-1.15 1.852-1.351 2.491a74.907 74.907 0 0 1-1.157 2.742c-.076.193-.164.697-.258 1.5-.106.826-.065 1.289.105 1.371.446.193 1.606-.076 3.463-.809 1.858-.738 2.907-1.459 3.164-2.185.575.304.967.849 1.196 1.611-.422.697-1.73 1.371-3.891 2.027zm-1.46-23.408a6.468 6.468 0 0 0-.336.434c-.278.58-.551 1.16-.826 1.705-.246.451-.735.832-1.456 1.172a2.807 2.807 0 0 1-1.538.996c-1.573.469-2.394.703-2.464.703-.527 0-1.348-.217-2.473-.656.024-.422.047-.821.059-1.213.006-.387.14-.785.392-1.201.2-.329.288-.68.26-1.043-.022-.364.356-.967 1.126-1.828 1.096-.879 1.98-1.518 2.654-1.916.223.035.437.046.636.046.2 0 .48-.035.844-.111.363-.064.639-.117.84-.117.449 0 1.12.451 2.019 1.336.299.474.452.879.452 1.213 0 .164-.065.322-.188.48zm-2.524.387c-.188-.188-.311-.375-.355-.568l.369-.293a.37.37 0 0 0 .19-.334c0-.135-.046-.299-.152-.493-.052-.088-.108-.129-.184-.129-.126 0-.3.088-.522.252-.375.334-.676.504-.9.504a.866.866 0 0 1-.351-.088 1.058 1.058 0 0 0-.246-.082c-.95.827-1.424 1.313-1.424 1.454.027.222-.035.486-.164.791-.14.304-.31.445-.506.416-.15.14-.241.375-.264.703-.05.363.085.621.413.791.146.088 1.268-.323 3.363-1.207l1.049-1.366c-.02-.064-.132-.175-.316-.351zM213.979 62.952a72.922 72.922 0 0 1-1.717 1.669c-1.025 1.131-1.77 2.01-2.244 2.62l-2.063 2.109c-1.12 1.195-1.658 1.934-1.605 2.209.023.141.047.264.073.375 0 .135-.026.363-.073.662l-.75.832-.035.375c-.03.252-.065.527-.111.838-.326.27-.54.99-.636 2.15l-1.008-.287c-.703-.164-1.05-.509-1.05-1.037 0-.275.209-1.236.63-2.871.3-.469.552-.756.75-.879.376-1.043.713-1.834 1.015-2.367.52-.932.958-1.547 1.306-1.828.944-1.02 1.635-1.834 2.057-2.444.773-.779 1.233-1.212 1.386-1.312.149-.094.252-.176.299-.234.896-.991 1.684-1.682 2.355-2.069l2.77.164zm1.872 11.349c-.472-.082-.773-.223-.897-.416l-.413-.656c-.697-.334-1.21-.598-1.532-.797-.747-.885-1.145-1.383-1.198-1.477-.053-.099-.398-.269-1.07-.515-.66-.252-1.113-.399-1.362-.416.273-.305.449-.498.525-.563.076-.064.272-.158.597-.275a.601.601 0 0 0 .413-.451l.036-.334c.55 0 1.423.41 2.619 1.248 2.144 1.775 3.729 3.158 4.752 4.154-.821.469-1.65.633-2.47.498zm11.042-4.4c-.105.422-.167.72-.193.914l-.938.082a7.062 7.062 0 0 1-.782.088c-.273 1.025-.41 1.523-.41 1.494a.84.84 0 0 0 .11.445c.074.117.098.375.074.768-.02.386-.134.521-.334.416a37.266 37.266 0 0 0-.15 1.494c-.028.17.013.434.109.791.153.445.223.732.223.879l-2.801.287.15-.873c.047-.358 0-.721-.15-1.084-.15-.299-.058-.803.258-1.494.1-.223.146-.574.135-1.067-.018-.48.017-.843.094-1.095.35-1.448.697-2.883 1.048-4.325.545-2.191.985-3.445 1.307-3.75.199-.193.349-.58.45-1.16.1-.726.198-1.189.3-1.377a1.597 1.597 0 0 1-.076-.498c0-.468.26-.925.782-1.371l.565.082.147-.17a.533.533 0 0 0 .187-.334c.876.358 1.275.92 1.199 1.659-.05.445-.17.808-.372 1.084-.053.251-.126.544-.226.873l-.15.503-.486.452c-.328 1.476-.59 2.443-.788 2.918.053.181.062.38.038.574-.052.205-.1.375-.146.551-.53.597-.738.978-.64 1.119.07.164.203.205.373.123 2.596-1.301 4.527-2.039 5.798-2.203l.299 1.207c-2.244.838-3.917 1.5-5.004 1.998zM250.4 64.328c0 .668-.38 1.542-1.16 2.661-.421.023-.75.205-.972.533-.152.228-.314.615-.483 1.166-.3 0-.624.182-.976.545-.422.469-.721.744-.893.826-.402.422-.683.756-.844 1.025-.161.264-.45.504-.865.744-.41.235-.662.44-.761.604-.3.551-.95 1.008-1.946 1.371-.427.17-1.224.387-2.396.668-.13.328-.434.492-.932.492-.427 0-.78-.322-1.054-.99-.323-.861-.607-1.389-.856-1.582a6.33 6.33 0 0 1-.041-.627c0-.527.123-.855.358-.996.237-.141.328-.387.284-.744-.03-.281.096-.651.372-1.125.375-.586.586-.985.633-1.207.474-.194.849-.569 1.125-1.125.099-.188.375-.522.82-.996.375-.381.574-.662.598-.832 0-.077-.085-.118-.258-.118-.2-.029-.501 0-.897.077-.923.164-1.441.252-1.535.252-.873.082-1.517.128-1.945.128-.4.024-1.02-.058-1.872-.257.723-.305 1.83-.996 3.33-2.08 1.77-1.278 2.655-2.174 2.655-2.678 0-.135-.167-.311-.504-.533-.334-.229-.58-.323-.732-.299-.293.029-.844.211-1.641.551-1.151.451-1.673.767-1.576.961.053.087.088.181.117.298-.598.282-1.05.457-1.348.539a18.794 18.794 0 0 1-1.013-.709c0-.908.287-1.511.86-1.822 2.62-.855 4.314-1.289 5.09-1.289.272 0 .647.152 1.122.463.648.158 1.16.252 1.535.281.299.586.45 1.16.45 1.711 0 .551-.614 1.453-1.838 2.696l2.056.216.158.909c.07.609.109.984.109 1.119a42.284 42.284 0 0 1-1.122 2.127c-.45.187-.724.714-.824 1.57-.25.088-.413.193-.483.299l-.416.498a7.88 7.88 0 0 1-.562 1.119l-.375.668c0 .603.152.937.45.996.276.053.587-.07.935-.369.575-.223 1.316-.709 2.212-1.459a98.064 98.064 0 0 1 2.057-1.828c.52-.358.943-.639 1.27-.832.274-.475.546-.85.822-1.125l.972-.949c1.149-1.114 2.01-1.946 2.578-2.502.103.339.153.656.153.96zm-.562 12.674c-.07.258-.3.586-.668.996.047.668-.076 1.248-.375 1.752-.1.551-.152.996-.152 1.33-.023.053-.064.147-.105.288l-.16.421.16 1.706c.04.58.07.937.07 1.072 0 .803-.302 1.845-.9 3.123-.395-1.055-1.034-1.694-1.907-1.916.129-.744.173-1.207.15-1.365-.05-.176-.074-.586-.074-1.254 0-.188.039-.481.115-.85.067-.375.108-.662.108-.85 0-.31-.012-.556-.041-.75-.047-.169-.01-.386.117-.673.176-.405.273-.627.299-.662.023-.106.012-.27-.041-.487a31.69 31.69 0 0 1 .976-1.793c.275-.861 1.133-1.652 2.58-2.367a58.55 58.55 0 0 0-.152 2.279zm9.97 3.95c-.407.334-.8.949-1.175 1.851s-.85 1.588-1.424 2.057c-.298.246-.673.843-1.12 1.787-.948 1.277-1.774 2.285-2.471 3.035l.04.539c-.152.275-.49.774-1.013 1.5-.246.305-.375.539-.375.703 0 .112.04.194.114.229.076.041.197.064.375.064 1.922-.082 3.806-.568 5.649-1.459l.375.803c-2.417 1.447-4.802 2.256-7.146 2.432-.85.052-1.476.005-1.87-.129-.397-.135-.564-.387-.482-.744.12-.698.489-1.5 1.116-2.415.797-1.171 1.26-2.062 1.388-2.671.323-.498.61-.832.856-.997 1.025-1.136 1.83-2.203 2.434-3.205.947-1.582 1.832-2.9 2.658-3.961.275-.363.41-.82.41-1.371 0-.164-.076-.357-.226-.562-.15-.205-.298-.287-.448-.229-.08-.076-.378-.023-.896.164-.352.141-.686.264-1.008.381-.498.358-.862.651-1.093.873-.8.405-1.403.692-1.831.832-.2.135-.583.235-1.16.287l-.897.124.712-.874c.448-.562 1.099-1.054 1.948-1.494.27.03.58-.111.932-.416.273-.222.55-.457.82-.703.176-.029.739-.217 1.688-.551.668-.216 1.233-.328 1.682-.328.57 0 1.06.235 1.459.709.398.475.6 1.026.6 1.67 0 1.049-.208 1.74-.621 2.069zm-.688-15.92c-2.072.75-3.153 1.23-3.258 1.459a4.978 4.978 0 0 0-.076.662c-.194.029-.446.011-.745-.041a3.11 3.11 0 0 0-.635-.082c-.202.914-.355 1.588-.452 2.039.179.187.285.41.337.662a.762.762 0 0 1-.181.621c-.156.164-.281.428-.378.791 0 .193-.027.375-.073.545a.591.591 0 0 0 .073.498c.222.609.39 1.084.483 1.453-.07 0-1.12.07-3.14.211l.225-.879c-.026-.357-.085-.656-.184-.873-.121-.252-.121-.568 0-.955.193-.973.322-1.693.369-2.162l1.198-4.74c.574-2.268 1.064-3.668 1.462-4.196.07-.246.123-.644.146-1.166.03-.439.115-.797.267-1.072v-.504c0-.58.237-1.101.706-1.541h.19a.389.389 0 0 0 .299-.041c.246-.269.372-.475.372-.609.824.363 1.348.703 1.577 1.043.219.328.12.89-.302 1.699-.2.41-.337 1.008-.413 1.787-.475.469-.797 1.471-.973 3.023-.023.147-.1.317-.228.539-.118.229-.17.487-.147.792-.176.193-.346.386-.527.585-.246.27-.317.498-.223.663.1.193.422.146.973-.129a14.93 14.93 0 0 1 1.01-.621c2.248-1.137 4.079-1.84 5.505-2.122l.48 1.418c-.597.135-1.845.551-3.737 1.243zM285.668 69.813c-.105.305-.363.51-.788.621-.026 0-.298-.053-.823-.164-.246.111-.571.152-.967.123a14.291 14.291 0 0 0-1.013-.041L282 70.1c-2.068.668-3.656 1.096-4.752 1.295-.123.029-.521.187-1.195.492-.474.229-.885.334-1.24.334.083 0-.292.141-1.118.416-2.64.891-4.843 1.711-6.583 2.449-.1.147-.13.264-.076.381l.038.211-2.43.123c0-.609.048-1.037.147-1.283.1-.252.367-.522.788-.826.794-.364 1.38-.656 1.755-.873.903-.405 3.164-1.19 6.809-2.321 3.79-1.207 5.965-1.816 6.51-1.816.627 0 1.034.1 1.233.299 1.002-.445 1.825-.668 2.47-.668.249 0 .723.129 1.42.375 0 .557-.034.932-.108 1.125zm-3.591-13.629c-1.073-.047-2.086 0-3.027.17l-1.128.375c-1.523.223-3.205.603-5.05 1.166-.525.217-.935.363-1.234.451a8.061 8.061 0 0 0-.788-.217l-2.13.094.67-1.922h2.137l.893.129a7.613 7.613 0 0 1 1.465-.457 410.38 410.38 0 0 0 6.36-1.307l2.614.041zm-.153 5.648c-.152.498-.398.92-.75 1.272-.345.346-.981.668-1.907.973-.694.222-1.392.439-2.095.662-2.045.75-4.052 1.101-6.017 1.043-.574-.51-.803-.809-.68-.92.023-.024.044-.053.044-.076 0-.112-.062-.217-.19-.334-.252-.311-.408-.61-.487-.92-.1-.276.018-.575.334-.909.153-.533.246-.826.284-.89.038-.071.252-.27.654-.615.199-.106.345-.211.45-.323.446-.814.856-1.289 1.234-1.453.349-.474.572-.738.67-.791.429-.31.675-.527.748-.674l2.323-.164c-.298.645-.914 1.336-1.834 2.086-.1.545-.398 1.037-.896 1.453l-.445.375-.305.334c-.152.159-.275.504-.375 1.037-.152.721.053 1.079.598 1.079.35 0 .75-.041 1.2-.124.147 0 .522-.082 1.12-.251.475-.112.86-.17 1.16-.17.325-.352.604-.569.823-.621.797-.217 1.773-.569 2.92-1.038l1.648-.709zm2.168 31.336c-1.646.797-3.017 1.348-4.113 1.653l-2.543.709c-.328.058-.776.07-1.348.041a70.59 70.59 0 0 0-1.383-.129 2.861 2.861 0 0 0-.638-.662c-.24-.164-.24-.51 0-1.037.225-.528.35-.897.375-1.12.35-.199.574-.591.67-1.207.133-.714.343-1.248.642-1.576.2-.222.422-.603.668-1.16.252-.551.48-.926.68-1.119.598-.551.96-1.096 1.084-1.623.123-.604.029-.967-.3-1.072a1.271 1.271 0 0 0-.45-.082c-.123 0-.211.017-.264.076a1.266 1.266 0 0 1-.858.041c-.3-.053-.618-.317-.973-.78a42.993 42.993 0 0 0 1.31-1.587l2.056-1.788c.827-.72 1.325-1.482 1.495-2.291.052-.187-.094-.287-.446-.287-.375 0-.662.035-.861.088-.973.135-1.737.258-2.282.364a1.158 1.158 0 0 1-.598.375c-.747.281-1.31.486-1.684.632a13.772 13.772 0 0 1-1.084-.832l-.598-.468 2.763-.909c1-.298 1.936-.545 2.809-.703.574-.111 1.42-.064 2.546.158 1.27.252 1.945.627 2.024 1.125.044.393-.07.838-.34 1.33-.275.504-.585.821-.937.967.053.469-.27.908-.976 1.325-.846.503-1.38 1.025-1.608 1.582.205.164.489.222.86.175.376-.035.687.012.939.147.146.51.199.99.146 1.465-.076.468-.17.978-.298 1.535-1.143 1.904-1.981 3.369-2.505 4.365a5.8 5.8 0 0 1-.706.58c-.041.141-.041.252 0 .328 0 .059.006.164.035.334-.448.451-.651.867-.598 1.254.024 0 .065.111.132.352.056.228.103.369.126.398 1.025-.058 2.593-.51 4.71-1.336l-.184-.58c1.943-.527 3.396-.879 4.339-1.043l.299.949zm3.557-1.283-.973.246-.37-1.324.408-.123c.249-.088.49-.188.712-.299l-.076-.539 1.799-.381.334 1.793c-.598.258-1.207.463-1.834.627z" style="fill:#3a71b1;stroke:none"/></svg>