<svg xmlns="http://www.w3.org/2000/svg" width="266.05499pt" height="45.375pt" fill-rule="evenodd" viewBox="0 0 266.05499 45.374999"><path d="M103.27 42.519h-1.179V31.885h1.179v5.526h.027l4.404-5.526h1.397l-3.296 4.008 3.693 6.626h-1.338l-3.165-5.654-1.722 2.091zM115.506 38.652c0 1.995-.818 3.092-2.096 3.092-1.281 0-2.098-1.097-2.098-3.092 0-1.992.817-3.092 2.098-3.092 1.278 0 2.096 1.1 2.096 3.092zm1.07 0c0-2.226-1.056-4.012-3.166-4.012-2.113 0-3.168 1.786-3.168 4.012 0 2.231 1.055 4.014 3.168 4.014 2.11 0 3.166-1.783 3.166-4.014zM118.583 34.788h1.07v1.531h.031c.593-1.056 1.233-1.65 2.511-1.65v1.07c-1.337.031-2.035.907-2.542 2.498v4.282h-1.07zM124.497 37.937c.087-1.423.786-2.377 2.081-2.377 1.159 0 1.843.954 1.843 2.377zm4.398 2.499c-.444.804-1.187 1.308-2.141 1.308-1.278 0-2.287-1.186-2.287-2.882h5.025v-.714c0-2.468-1.341-3.508-2.943-3.508-1.904 0-3.153 1.517-3.153 4.012 0 2.824 1.634 4.014 3.358 4.014 1.756 0 2.47-.922 2.976-1.795zM136.003 40.467c-.623.713-1.604 1.277-2.378 1.277-.595 0-1.277-.474-1.277-1.186 0-1.07 1.204-1.785 3.655-2.216zm-3.567-3.7c.209-.523.789-1.207 1.979-1.207.919 0 1.588.388 1.588 1.413v.417c-3.433.611-4.727 1.457-4.727 3.15 0 1.415 1.011 2.126 2.201 2.126 1.157 0 2.02-.622 2.556-1.219l.118 1.072h1.1c-.103-.401-.177-.818-.177-1.664V36.96c0-1.697-1.368-2.32-2.675-2.32-1.457 0-2.409.741-2.9 1.635zM146.718 32.887v9.632h-1.177v-9.632h-3.179v-1.002h7.537v1.002zM150.466 37.936c.089-1.426.791-2.379 2.085-2.379 1.161 0 1.844.953 1.844 2.379zm4.403 2.5c-.445.803-1.19 1.308-2.14 1.308-1.28 0-2.29-1.186-2.29-2.885h5.027v-.713c0-2.469-1.34-3.509-2.946-3.509-1.903 0-3.153 1.516-3.153 4.014 0 2.825 1.636 4.015 3.362 4.015 1.757 0 2.469-.922 2.975-1.797zM157.965 40.558c.504.727 1.247 1.186 2.213 1.186 1.161 0 1.669-.622 1.669-1.279 0-1.96-4.584-.919-4.494-3.747.045-1.339 1.071-2.097 2.559-2.081 1.009.012 2.127.563 2.648 1.353l-.745.653c-.592-.728-1.161-1.086-1.991-1.086-.91 0-1.4.461-1.4 1.148 0 1.679 4.493.816 4.493 3.702 0 1.504-1.307 2.259-2.707 2.259-1.206 0-2.381-.518-3.094-1.469zM165.312 34.785v-2.543h1.072v2.543h1.784v.923h-1.784v5.503c0 .356.25.533.876.533.359 0 .67-.027.953-.073v.88c-.194.057-.626.115-1.251.115-1.159 0-1.65-.296-1.65-1.276v-5.682h-1.266v-.923zM170.55 31.885v1.278h1.071v-1.278zm0 10.634h1.071v-7.734h-1.071zM175.832 34.785v1.039h.031c.609-.682 1.413-1.187 2.29-1.187 1.145 0 2.231.594 2.231 2.259v5.623h-1.07v-5.591c0-1.029-.491-1.371-1.264-1.371-.805 0-1.726.655-2.218 1.176v5.786h-1.07v-7.734zM188.268 43.337c-.015.76-1.056 1.114-2.336 1.114-2.141 0-2.497-.386-2.497-.964 0-.551.477-1.296 2.157-1.296 1.888 0 2.661.389 2.676 1.146zm.997-8.852c-.58.062-1.206.358-1.666.687-.506-.358-1.085-.535-1.92-.535-1.648 0-2.929 1.071-2.929 2.705 0 .849.329 1.607 1.055 2.159-.596.372-1.038.654-1.038 1.321 0 .463.37.922.966 1.102-.835.431-1.309.802-1.309 1.577 0 1.279 1.158 1.874 3.332 1.874 2.408 0 3.525-.951 3.525-2.082 0-1.518-1.174-2.171-4.835-2.171-.388 0-.641-.209-.641-.564 0-.343.195-.597.61-.716.417.119.747.21 1.37.21 1.561 0 2.825-1.178 2.825-2.71 0-.713-.311-1.309-.534-1.574.268-.135.744-.211 1.189-.211zm-1.666 2.918c0 .922-.623 1.726-1.843 1.726-1.191 0-1.993-.761-1.993-1.787 0-1.011.652-1.785 1.873-1.785 1.309 0 1.963.716 1.963 1.846zM196.644 42.519V31.885h1.176v9.633h5.035v1.001zM208.707 40.467c-.625.713-1.608 1.277-2.381 1.277-.594 0-1.279-.474-1.279-1.186 0-1.07 1.205-1.785 3.66-2.216zm-3.568-3.699c.207-.524.789-1.208 1.972-1.208.926 0 1.596.388 1.596 1.415v.415c-3.438.611-4.728 1.458-4.728 3.15 0 1.415 1.013 2.126 2.201 2.126 1.16 0 2.023-.62 2.556-1.219l.118 1.072h1.101c-.104-.401-.178-.818-.178-1.664V36.96c0-1.697-1.367-2.32-2.678-2.32-1.455 0-2.406.741-2.898 1.635zM213.275 36.633c.584-.641 1.311-1.073 1.949-1.073 1.25 0 2.188.818 2.188 3.153 0 1.961-.846 3.031-2.188 3.031-.681 0-1.187-.297-1.949-1.039zm-1.068-4.748v8.938c0 .567.029 1.132-.059 1.696h.743l.193-.818c.625.58 1.31.965 2.23.965 1.372 0 3.168-.922 3.168-4.014 0-3.002-1.796-4.012-3.109-4.012-.727 0-1.439.372-2.033.861l-.065.031v-3.647zM225.394 38.652c0 1.995-.816 3.092-2.097 3.092-1.278 0-2.094-1.097-2.094-3.092 0-1.992.816-3.092 2.094-3.092 1.281 0 2.097 1.1 2.097 3.092zm1.071 0c0-2.226-1.055-4.012-3.168-4.012-2.11 0-3.164 1.786-3.164 4.012 0 2.231 1.054 4.014 3.164 4.014 2.113 0 3.168-1.783 3.168-4.014zM228.473 34.788h1.072v1.531h.029c.594-1.056 1.235-1.65 2.512-1.65v1.07c-1.338.031-2.039.908-2.541 2.498v4.282h-1.072zM237.848 40.467c-.625.713-1.606 1.277-2.379 1.277-.594 0-1.28-.474-1.28-1.186 0-1.07 1.207-1.785 3.659-2.216zm-3.569-3.699c.209-.524.787-1.208 1.975-1.208.924 0 1.594.388 1.594 1.415v.415c-3.436.611-4.727 1.458-4.727 3.15 0 1.415 1.012 2.126 2.199 2.126 1.16 0 2.024-.62 2.557-1.219l.117 1.072h1.104c-.106-.401-.182-.818-.182-1.664V36.96c0-1.697-1.363-2.32-2.674-2.32-1.457 0-2.41.741-2.9 1.635zM241.877 34.788v-2.542h1.068v2.542h1.785v.924h-1.785v5.499c0 .356.256.533.881.533.356 0 .668-.025.949-.073v.88c-.193.057-.627.115-1.25.115-1.158 0-1.648-.296-1.648-1.276v-5.678h-1.264v-.924zM251.373 38.652c0 1.995-.814 3.092-2.096 3.092-1.279 0-2.095-1.097-2.095-3.092 0-1.992.816-3.092 2.095-3.092 1.282 0 2.096 1.1 2.096 3.092zm1.072 0c0-2.226-1.056-4.012-3.168-4.012-2.113 0-3.166 1.786-3.166 4.012 0 2.231 1.053 4.014 3.166 4.014 2.112 0 3.168-1.783 3.168-4.014zM254.453 34.788h1.072v1.531h.028c.595-1.056 1.234-1.65 2.515-1.65v1.07c-1.339.031-2.041.908-2.543 2.498v4.282h-1.072zM265.307 34.788l-2.721 8.417c-.561 1.723-1.586 2.17-2.6 2.17-.359 0-.564-.063-.769-.092v-.875c.146.015.342.043.578.043.652 0 1.65-.147 2.021-1.843l-2.693-7.82h1.131l2.08 5.902h.033l1.811-5.902zM253.896 18.462h2.672v-3.367c1.096 0 3.994-.163 5.354-.439v-2.178c-1.076.15-2.553.26-3.75.321a4.606 4.606 0 0 0 2.006-3.833c0-2.749-2.254-4.735-4.895-4.735-2.639 0-4.891 1.986-4.891 4.735 0 1.668.835 3.052 2.077 3.882h-3.338v2.341h4.765zm-.74-9.496c0-1.422 1.008-2.357 2.127-2.357 1.123 0 2.131.935 2.131 2.357 0 1.419-1.008 2.352-2.131 2.352-1.119 0-2.127-.933-2.127-2.352zM225.068 26.175h2.713V4.382h-2.713zM170.457 8.646h-3.342c-.536-2.429-2.622-4.085-5.122-4.085-2.908 0-5.262 2.232-5.262 5.327 0 3.094 2.354 5.327 5.262 5.327 2.51 0 4.607-1.669 5.131-4.119h3.333v4.228h2.71V4.382h-2.71zm-8.464 4.123c-1.378 0-2.497-1.142-2.497-2.881 0-1.743 1.119-2.884 2.497-2.884s2.494 1.141 2.494 2.884c0 1.739-1.116 2.881-2.494 2.881zM170.457 18.302h-6.965v-1.67h-2.714v9.294h12.389v-9.294h-2.71zm0 5.174h-6.965V20.66h6.965zM187.959 26.175h2.711V4.382h-2.711zM176.281 7.353h6.444s-.532 6.541-7.3 9.101l1.402 2.393s8.935-3.118 8.935-13.942h-9.481zM234.635 25.926h12.094v-8.662h-12.094zm2.685-6.214h6.729v3.764h-6.729zM143.575 17.649h-2.71v8.277h12.339v-2.45h-9.629zM114.182 4.382h-2.71V20.58h2.71v-9.439h2.401V8.692h-2.401zM152.957 4.382h-2.711V20.58h2.711v-9.439h2.402V8.692h-2.402zM104.804 17.649h-2.713v8.277h12.339v-2.45h-9.626zM192.599 14.763h7.606V16.3h-4.889v2.245h9.977v1.334h-9.977v6.047h12.854v-2.248h-10.141v-1.559h9.977V16.3h-4.887v-1.537h7.604v-2.34h-18.124zM147.871 16.921l1.628-2.089s-4.863-2.801-4.863-8.719V4.545h-2.873v1.568c0 5.918-4.864 8.719-4.864 8.719l1.629 2.089c1.787-1.017 3.596-3.052 4.672-5.026 1.076 1.974 2.885 4.009 4.671 5.026zM219.043 7.32V4.545h-2.873V7.32c0 6.136-5.219 9.465-5.219 9.465l1.586 2.006c2.18-1.53 3.986-3.543 5.07-5.583 1.08 2.04 2.891 4.053 5.071 5.583l1.586-2.007s-5.221-3.328-5.221-9.464zM133.46 4.905h-13.282v2.448h10.247s-.117 3.396-1.259 4.649H117.81v2.339h7.38v3.513h-5.225v2.359h11.141v5.962h2.71v-8.321h-5.71v-3.513h7.864v-2.339h-3.703c.916-1.171 1.157-3.99 1.193-7.097zM109.076 10.768c0-1.135-.401-2.025-1.03-2.762h1.842V5.647h-4.426V3.915h-2.788v1.732h-4.422v2.359h1.84c-.629.737-1.029 1.627-1.029 2.762 0 2.89 2.241 5.009 5.005 5.009 2.765 0 5.008-2.119 5.008-5.009zm-7.286.104c0-1.568 1.019-2.594 2.278-2.594 1.259 0 2.28 1.026 2.28 2.594 0 1.563-1.021 2.592-2.28 2.592s-2.278-1.029-2.278-2.592zM244.049 9.479h-3.207a4.286 4.286 0 0 0-.834-1.473h1.841V5.647h-4.425V3.915h-2.789v1.732h-4.422v2.359h1.84c-.627.737-1.028 1.627-1.028 2.762 0 2.89 2.242 5.009 5.006 5.009 2.377 0 4.365-1.569 4.875-3.848h3.143v4.001h2.68V4.382h-2.68zm-8.02 3.985c-1.256 0-2.279-1.029-2.279-2.592 0-1.568 1.023-2.594 2.279-2.594 1.258 0 2.28 1.026 2.28 2.594 0 1.563-1.022 2.592-2.28 2.592z" style="fill:#00619b;stroke:none"/><path d="M258.977 19.165h4.164v1.894h2.671V4.382h-2.671v12.539h-4.164zM256.568 23.476v-3.901h-2.672v6.351h12.159v-2.45zM201.58 7.35c1.824 2.085 4.756 3.328 6.426 3.724l.812-2.122c-2.467-.61-5.748-2.553-5.748-4.863h-2.984c0 2.31-3.283 4.253-5.75 4.863l.814 2.122c1.668-.396 4.602-1.639 6.43-3.724zM63.808 0v42.537h10.633V0ZM33.173 12.761H20.588L10.634 23.96V0H0v42.537h10.634V30.42l11.91 12.117h14.251L20.419 26.528ZM38.285 31.173c0 7.234 3.931 11.676 12.502 11.676 3.601 0 6-.312 6-.312v-7.016s-1.803.117-2.87.002c-4.35-.471-4.784-2.881-4.784-6.799v-8.519H38.285ZM49.133 20.205H59.55v-7.444H49.133Z" style="fill:#00619b;stroke:none"/><path d="M49.133 0v20.205h-18.72Z" style="fill:#e21c2a;stroke:none"/></svg>