<svg xmlns="http://www.w3.org/2000/svg" xml:space="preserve" width="738.09869" height="366.84668" viewBox="0 0 738.09869 366.84668"><path d="m185.366 131.392-57.4 59.023c-4.808 4.896-4.817 12.738-.02 17.644l48.103 49.187 18.196-17.794-39.39-39.93 48.964-49.677zM93.318 145.098h26.753v107.721H93.318ZM258.569 256.598c-32.133 0-56.42-24.251-56.42-55.698 0-31.191 25.584-55.403 56.683-55.793v-.01h39.729v25.262h-38.757c-15.978.484-30.487 13.32-30.487 30.54 0 17.597 13.183 30.024 29.638 30.024 13.467 0 23.503-7.108 25.76-17.647l-24.892.105V188.12h36.24c6.38 0 14.597 3.006 15.43 14.065 2.437 32.31-20.74 54.413-52.924 54.413M355.654 145.098H328.9v110.827h26.754zM471.154 252.818H371.137v-25.26H403.8v-82.46h26.754v82.46h40.6z" style="fill:#1d398d;fill-opacity:1;fill-rule:nonzero;stroke:none" transform="matrix(1.33333 0 0 -1.33333 0 366.847)"/><path d="M355.654 255.925c0-7.388-5.99-13.377-13.377-13.377-7.388 0-13.377 5.989-13.377 13.377 0 7.389 5.989 13.377 13.377 13.377 7.388 0 13.377-5.988 13.377-13.377" style="fill:#28aae1;fill-opacity:1;fill-rule:nonzero;stroke:none" transform="matrix(1.33333 0 0 -1.33333 0 366.847)"/><path d="M272.453 200.75c0-6.976-5.655-12.63-12.63-12.63-6.975 0-12.631 5.654-12.631 12.63 0 6.976 5.656 12.63 12.63 12.63 6.976 0 12.63-5.654 12.63-12.63" style="fill:#70bf54;fill-opacity:1;fill-rule:nonzero;stroke:none" transform="matrix(1.33333 0 0 -1.33333 0 366.847)"/><path d="M203.819 149.845c5.096-5.096 5.096-13.357 0-18.453s-13.357-5.096-18.453 0-5.096 13.357 0 18.453 13.357 5.096 18.453 0" style="fill:#ee3e96;fill-opacity:1;fill-rule:nonzero;stroke:none" transform="matrix(1.33333 0 0 -1.33333 0 366.847)"/><path d="M483.785 240.188c0-6.976-5.655-12.63-12.631-12.63-6.975 0-12.63 5.654-12.63 12.63 0 6.976 5.655 12.63 12.63 12.63 6.976 0 12.63-5.654 12.63-12.63" style="fill:#f58233;fill-opacity:1;fill-rule:nonzero;stroke:none" transform="matrix(1.33333 0 0 -1.33333 0 366.847)"/><path d="m17.737 16.754-1.495-1.586v-4.112H13.95v13.189h2.292v-6.187l1.268 1.567 3.859 4.62h2.772l-4.901-5.843 5.182-7.346h-2.718zM27.347 15.856c0-1.009.208-1.798.625-2.368.417-.57.997-.857 1.74-.857.742 0 1.32.29 1.734.871.414.58.62 1.427.62 2.544 0 .991-.212 1.776-.638 2.356-.426.58-1.004.87-1.735.87-.719 0-1.289-.286-1.712-.856-.423-.572-.634-1.424-.634-2.56m-2.2.19c0 .96.19 1.826.57 2.596.38.77.914 1.361 1.603 1.776.688.413 1.48.62 2.373.62 1.322 0 2.396-.426 3.22-1.278.825-.85 1.27-1.98 1.336-3.387l.01-.517c0-.966-.186-1.829-.557-2.59a4.118 4.118 0 0 0-1.595-1.766c-.69-.417-1.49-.625-2.396-.625-1.383 0-2.489.46-3.32 1.38-.83.921-1.245 2.15-1.245 3.683zM41.623 18.846c-.29.049-.59.073-.896.073-1.01 0-1.69-.386-2.04-1.16v-6.703h-2.2v9.8h2.102l.054-1.095c.532.852 1.268 1.277 2.21 1.277.314 0 .574-.042.78-.127zM47.266 19.271c-.604 0-1.092-.21-1.463-.634-.372-.423-.608-1.012-.712-1.766h4.195v.163c-.048.737-.245 1.294-.589 1.671-.344.378-.822.566-1.43.566m.262-8.396c-1.396 0-2.527.44-3.393 1.317-.867.88-1.3 2.05-1.3 3.511v.271c0 .98.19 1.853.566 2.622.378.771.908 1.37 1.591 1.798a4.194 4.194 0 0 0 2.282.644c1.335 0 2.365-.426 3.094-1.278.727-.85 1.09-2.055 1.09-3.614v-.888h-6.404c.066-.809.337-1.449.811-1.92.474-.47 1.071-.707 1.79-.707 1.007 0 1.83.41 2.463 1.223l1.187-1.132a3.965 3.965 0 0 0-1.572-1.363c-.656-.323-1.39-.484-2.205-.484M56.976 12.64c.435 0 .844.107 1.228.318.382.21.671.495.864.852v1.848h-1.187c-.814 0-1.427-.142-1.839-.426-.41-.284-.615-.686-.615-1.204 0-.423.141-.76.421-1.011.281-.25.656-.376 1.128-.376m2.418-1.585c-.097.188-.18.492-.253.915a3.431 3.431 0 0 0-2.573-1.096c-.985 0-1.787.28-2.409.842-.622.562-.933 1.256-.933 2.084 0 1.044.388 1.846 1.164 2.404.775.559 1.885.838 3.328.838h1.35v.644c0 .507-.142.913-.425 1.219-.284.304-.716.457-1.296.457-.5 0-.912-.125-1.23-.376-.322-.251-.482-.57-.482-.956h-2.2c0 .538.177 1.04.533 1.508.357.468.841.835 1.454 1.1.614.267 1.297.399 2.052.399 1.148 0 2.063-.288 2.745-.865.682-.576 1.032-1.387 1.05-2.431V13.32c0-.882.124-1.585.372-2.111v-.154zM71.441 17.795h2.754c.815 0 1.437.192 1.866.575.429.384.643.938.643 1.662 0 .713-.217 1.283-.652 1.708-.435.426-1.033.645-1.794.657h-2.817zm0-1.848v-4.891h-2.292v13.189h5.046c1.474 0 2.643-.385 3.51-1.152.867-.768 1.299-1.783 1.299-3.047 0-1.294-.423-2.3-1.272-3.02-.849-.72-2.036-1.08-3.564-1.08zM83.506 11.056h-2.201V24.97h2.201zM89.712 12.64c.434 0 .843.107 1.226.318.384.21.672.495.866.852v1.848h-1.188c-.814 0-1.426-.142-1.838-.426-.41-.284-.617-.686-.617-1.204 0-.423.142-.76.423-1.011.28-.25.655-.376 1.127-.376m2.419-1.585c-.097.188-.181.492-.253.915a3.431 3.431 0 0 0-2.573-1.096c-.985 0-1.787.28-2.41.842-.621.562-.933 1.256-.933 2.084 0 1.044.389 1.846 1.164 2.404.776.559 1.886.838 3.329.838h1.35v.644c0 .507-.143.913-.427 1.219-.282.304-.714.457-1.294.457-.502 0-.913-.125-1.233-.376-.32-.251-.48-.57-.48-.956h-2.2c0 .538.177 1.04.533 1.508.358.468.842.835 1.455 1.1.612.267 1.296.399 2.051.399 1.149 0 2.064-.288 2.745-.865.683-.576 1.033-1.387 1.05-2.431V13.32c0-.882.125-1.585.373-2.111v-.154zM98.724 20.856l.063-1.132c.725.876 1.676 1.314 2.853 1.314 2.042 0 3.08-1.169 3.116-3.506v-6.477h-2.2v6.35c0 .622-.135 1.083-.404 1.382-.269.298-.708.448-1.318.448-.887 0-1.548-.4-1.984-1.205v-6.975h-2.2v9.801zM109.413 20.856l.063-1.132c.725.876 1.676 1.314 2.853 1.314 2.042 0 3.08-1.169 3.116-3.506v-6.477h-2.201v6.35c0 .622-.134 1.083-.403 1.382-.27.298-.708.448-1.318.448-.887 0-1.548-.4-1.984-1.205v-6.975h-2.2v9.801zM120.4 11.056h-2.201v9.801h2.201zm-2.337 12.355c0 .341.106.624.321.849.214.225.521.338.92.338s.706-.113.924-.338c.217-.225.325-.508.325-.849 0-.335-.108-.613-.325-.835-.218-.223-.525-.333-.924-.333s-.706.11-.92.333a1.15 1.15 0 0 0-.321.835M125.21 20.856l.063-1.132c.725.876 1.676 1.314 2.853 1.314 2.042 0 3.08-1.169 3.116-3.506v-6.477h-2.201v6.35c0 .622-.134 1.083-.403 1.382-.27.298-.708.448-1.318.448-.887 0-1.548-.4-1.983-1.205v-6.975h-2.201v9.801zM135.663 15.839c0-.984.2-1.76.602-2.324.402-.565.959-.847 1.67-.847.889 0 1.547.38 1.976 1.142v4.31c-.417.744-1.07 1.115-1.957 1.115-.725 0-1.287-.287-1.69-.86-.401-.574-.601-1.42-.601-2.536m-2.192.189c0 1.523.357 2.738 1.073 3.647.716.909 1.665 1.363 2.848 1.363 1.118 0 1.997-.39 2.636-1.17l.1.989h1.984v-9.502c0-1.287-.4-2.301-1.2-3.043-.801-.744-1.88-1.115-3.238-1.115-.72 0-1.421.15-2.107.449-.685.298-1.206.689-1.562 1.172l1.042 1.323c.676-.803 1.51-1.204 2.5-1.204.73 0 1.307.197 1.73.592.422.396.634.978.634 1.745v.66c-.634-.706-1.48-1.06-2.536-1.06-1.148 0-2.085.456-2.814 1.368-.727.912-1.09 2.174-1.09 3.786M152.537 21.129c0-.508.312-1.145.934-1.911l1.004.688.282.226c.374.332.56.758.56 1.277 0 .345-.13.639-.388.884-.26.244-.59.366-.988.366-.428 0-.77-.144-1.023-.434-.254-.29-.381-.656-.381-1.096m1.214-8.497c.743 0 1.437.248 2.084.743l-2.881 3.397-.28-.2c-.725-.55-1.088-1.177-1.088-1.883 0-.611.196-1.106.589-1.486.392-.381.918-.571 1.576-.571m-4.366 1.984c0 .61.167 1.17.499 1.68.332.51.987 1.116 1.965 1.816-.513.647-.871 1.196-1.074 1.649-.202.453-.302.89-.302 1.313 0 1.034.313 1.85.94 2.45.629.6 1.475.902 2.537.902.96 0 1.747-.282 2.36-.847a2.734 2.734 0 0 0 .919-2.096c0-.55-.138-1.056-.416-1.518-.278-.462-.734-.923-1.368-1.382l-.896-.652 2.545-3.007c.368.725.552 1.53.552 2.419h1.912c0-1.625-.38-2.957-1.142-3.995l1.938-2.292H157.8l-.743.879c-.943-.707-2.066-1.06-3.371-1.06-1.303 0-2.347.346-3.13 1.037-.781.692-1.172 1.593-1.172 2.704M174.875 16.943h-5.417v-4.04h6.33v-1.848h-8.623v13.19h8.562v-1.849h-6.27v-3.64h5.418zM181.034 13.846l2.074 7.01h2.274l-3.397-9.8h-1.912l-3.424 9.8h2.283zM190.426 12.64c.436 0 .844.107 1.228.318.383.21.671.495.865.852v1.848h-1.187c-.815 0-1.428-.142-1.839-.426-.41-.284-.616-.686-.616-1.204 0-.423.141-.76.422-1.011.28-.25.656-.376 1.127-.376m2.42-1.585c-.098.188-.182.492-.255.915-.7-.73-1.558-1.096-2.572-1.096-.985 0-1.787.28-2.409.842-.622.562-.934 1.256-.934 2.084 0 1.044.39 1.846 1.164 2.404.776.559 1.886.838 3.33.838h1.35v.644c0 .507-.143.913-.427 1.219-.284.304-.716.457-1.295.457-.502 0-.912-.125-1.232-.376-.32-.251-.48-.57-.48-.956h-2.202c0 .538.18 1.04.535 1.508.357.468.841.835 1.454 1.1.613.267 1.296.399 2.052.399 1.147 0 2.062-.288 2.744-.865.683-.576 1.032-1.387 1.051-2.431V13.32c0-.882.124-1.585.371-2.111v-.154zM199.739 11.056h-2.202V24.97h2.202zM208.443 12.016c-.646-.761-1.564-1.141-2.754-1.141-1.062 0-1.867.31-2.414.933-.547.622-.82 1.52-.82 2.699v6.35h2.202v-6.322c0-1.245.515-1.867 1.549-1.867 1.068 0 1.79.384 2.165 1.15v7.039h2.2v-9.801h-2.073zM216.623 12.64c.435 0 .844.107 1.227.318.383.21.67.495.865.852v1.848h-1.187c-.815 0-1.427-.142-1.84-.426-.41-.284-.615-.686-.615-1.204 0-.423.14-.76.422-1.011.28-.25.656-.376 1.128-.376m2.418-1.585c-.097.188-.181.492-.254.915-.7-.73-1.558-1.096-2.572-1.096-.985 0-1.787.28-2.41.842-.621.562-.933 1.256-.933 2.084 0 1.044.389 1.846 1.164 2.404.776.559 1.886.838 3.329.838h1.35v.644c0 .507-.142.913-.426 1.219-.283.304-.716.457-1.295.457-.502 0-.912-.125-1.232-.376-.32-.251-.48-.57-.48-.956h-2.201c0 .538.178 1.04.534 1.508.357.468.84.835 1.454 1.1.613.267 1.297.399 2.052.399 1.148 0 2.062-.288 2.744-.865.683-.576 1.033-1.387 1.05-2.431V13.32c0-.882.125-1.585.373-2.111v-.154zM226.35 23.24v-2.384h1.73v-1.63h-1.73v-5.47c0-.375.074-.646.223-.812.147-.166.412-.249.792-.249.254 0 .51.03.77.091v-1.703a5.418 5.418 0 0 0-1.449-.208c-1.69 0-2.537.932-2.537 2.8v5.551h-1.612v1.63h1.612v2.383zM232.473 11.056h-2.201v9.801h2.201zm-2.337 12.355c0 .341.108.624.322.849.214.225.521.338.919.338.399 0 .707-.113.924-.338a1.17 1.17 0 0 0 .326-.849c0-.335-.108-.613-.326-.835-.217-.223-.525-.333-.924-.333-.398 0-.705.11-.919.333-.214.222-.322.5-.322.835M237.03 15.856c0-1.009.208-1.798.625-2.368.416-.57.996-.857 1.739-.857.742 0 1.32.29 1.735.871.413.58.62 1.427.62 2.544 0 .991-.213 1.776-.64 2.356-.425.58-1.003.87-1.733.87-.72 0-1.29-.286-1.712-.856-.423-.572-.634-1.424-.634-2.56m-2.201.19c0 .96.189 1.826.57 2.596.38.77.915 1.361 1.604 1.776.688.413 1.479.62 2.373.62 1.322 0 2.396-.426 3.22-1.278.825-.85 1.27-1.98 1.336-3.387l.009-.517c0-.966-.185-1.829-.557-2.59a4.116 4.116 0 0 0-1.594-1.766c-.692-.417-1.49-.625-2.396-.625-1.384 0-2.49.46-3.32 1.38-.83.921-1.245 2.15-1.245 3.683zM248.216 20.856l.063-1.132c.725.876 1.676 1.314 2.854 1.314 2.041 0 3.08-1.169 3.115-3.506v-6.477h-2.2v6.35c0 .622-.135 1.083-.403 1.382-.27.298-.708.448-1.319.448-.887 0-1.548-.4-1.983-1.205v-6.975h-2.2v9.801zM264.484 11.056h-2.282v13.189h2.282zM269.502 20.856l.062-1.132c.726.876 1.676 1.314 2.854 1.314 2.041 0 3.08-1.169 3.116-3.506v-6.477h-2.2v6.35c0 .622-.135 1.083-.404 1.382-.269.298-.708.448-1.318.448-.887 0-1.548-.4-1.984-1.205v-6.975h-2.2v9.801zM283.642 13.719c0 .393-.162.69-.485.897-.324.206-.859.386-1.608.543-.749.158-1.374.357-1.875.598-1.099.53-1.648 1.302-1.648 2.31 0 .845.355 1.552 1.068 2.12.713.567 1.618.85 2.718.85 1.172 0 2.118-.29 2.84-.868.721-.58 1.082-1.332 1.082-2.256h-2.2c0 .423-.159.775-.472 1.056-.315.28-.73.42-1.25.42-.483 0-.877-.111-1.183-.334a1.06 1.06 0 0 1-.457-.898c0-.337.142-.6.426-.788.283-.186.857-.376 1.721-.565.864-.19 1.542-.417 2.034-.68.492-.262.857-.578 1.096-.946.238-.37.358-.815.358-1.341 0-.882-.366-1.596-1.097-2.142-.73-.547-1.687-.82-2.87-.82-.804 0-1.52.145-2.148.435-.628.29-1.117.688-1.467 1.195a2.827 2.827 0 0 0-.525 1.64h2.137c.031-.52.227-.92.59-1.2.361-.281.841-.421 1.44-.421.58 0 1.02.11 1.322.33.302.22.453.509.453.865M290.852 23.24v-2.384h1.73v-1.63h-1.73v-5.47c0-.375.073-.646.222-.812.147-.166.412-.249.793-.249.253 0 .51.03.77.091v-1.703a5.412 5.412 0 0 0-1.45-.208c-1.69 0-2.536.932-2.536 2.8v5.551h-1.612v1.63h1.612v2.383zM296.975 11.056h-2.201v9.801h2.201zm-2.337 12.355c0 .341.107.624.322.849.213.225.52.338.918.338.399 0 .707-.113.924-.338a1.17 1.17 0 0 0 .326-.849c0-.335-.108-.613-.326-.835-.217-.223-.525-.333-.924-.333-.398 0-.705.11-.918.333-.215.222-.322.5-.322.835M302.5 23.24v-2.384h1.73v-1.63h-1.73v-5.47c0-.375.073-.646.222-.812.147-.166.412-.249.793-.249.253 0 .51.03.77.091v-1.703a5.412 5.412 0 0 0-1.45-.208c-1.69 0-2.536.932-2.536 2.8v5.551h-1.612v1.63h1.612v2.383zM312.22 12.016c-.647-.761-1.565-1.141-2.755-1.141-1.062 0-1.867.31-2.414.933-.547.622-.819 1.52-.819 2.699v6.35h2.201v-6.322c0-1.245.515-1.867 1.55-1.867 1.067 0 1.79.384 2.164 1.15v7.039h2.201v-9.801h-2.074zM319.72 23.24v-2.384h1.73v-1.63h-1.73v-5.47c0-.375.073-.646.221-.812.148-.166.412-.249.793-.249.254 0 .51.03.77.091v-1.703a5.412 5.412 0 0 0-1.45-.208c-1.69 0-2.536.932-2.536 2.8v5.551h-1.612v1.63h1.612v2.383zM327.554 19.271c-.604 0-1.092-.21-1.463-.634-.37-.423-.608-1.012-.71-1.766h4.194v.163c-.049.737-.246 1.294-.589 1.671-.345.378-.822.566-1.432.566m.263-8.396c-1.395 0-2.526.44-3.393 1.317-.866.88-1.3 2.05-1.3 3.511v.271c0 .98.19 1.853.567 2.622.377.771.907 1.37 1.59 1.798a4.2 4.2 0 0 0 2.282.644c1.335 0 2.366-.426 3.094-1.278.727-.85 1.091-2.055 1.091-3.614v-.888h-6.404c.066-.809.336-1.449.811-1.92.473-.47 1.07-.707 1.79-.707 1.007 0 1.83.41 2.463 1.223l1.186-1.132a3.963 3.963 0 0 0-1.57-1.363c-.657-.323-1.392-.484-2.207-.484M340.607 15.856c0-1.009.208-1.798.625-2.368.416-.57.996-.857 1.739-.857.742 0 1.321.29 1.735.871.413.58.62 1.427.62 2.544 0 .991-.213 1.776-.639 2.356-.426.58-1.004.87-1.734.87-.719 0-1.289-.286-1.712-.856-.423-.572-.634-1.424-.634-2.56m-2.201.19c0 .96.189 1.826.57 2.596.381.77.915 1.361 1.604 1.776.688.413 1.479.62 2.373.62 1.322 0 2.396-.426 3.22-1.278.825-.85 1.27-1.98 1.336-3.387l.009-.517c0-.966-.185-1.829-.557-2.59a4.116 4.116 0 0 0-1.594-1.766c-.692-.417-1.49-.625-2.396-.625-1.384 0-2.49.46-3.32 1.38-.83.921-1.245 2.15-1.245 3.683zM350.525 11.056v8.17h-1.494v1.63h1.494v.898c0 1.087.302 1.926.906 2.518.604.592 1.449.888 2.536.888a5.04 5.04 0 0 0 1.233-.164l-.055-1.72a4.288 4.288 0 0 1-.843.072c-1.05 0-1.576-.54-1.576-1.621v-.87h1.993v-1.63h-1.993v-8.171zM364.32 11.056h-2.282v13.189h2.282zM369.338 20.856l.063-1.132c.725.876 1.676 1.314 2.853 1.314 2.042 0 3.08-1.169 3.116-3.506v-6.477h-2.2v6.35c0 .622-.135 1.083-.403 1.382-.27.298-.709.448-1.319.448-.887 0-1.548-.4-1.983-1.205v-6.975h-2.2v9.801zM379.773 15.839c0-.997.191-1.774.575-2.333.383-.56.929-.838 1.635-.838.9 0 1.559.4 1.975 1.205v4.185c-.405.785-1.057 1.177-1.956 1.177-.713 0-1.263-.282-1.649-.846-.387-.565-.58-1.415-.58-2.55m-2.201.189c0 1.51.349 2.723 1.051 3.638.7.915 1.639 1.372 2.817 1.372 1.038 0 1.878-.362 2.518-1.087v5.019h2.201V11.056h-1.992l-.11 1.014c-.658-.796-1.537-1.195-2.636-1.195-1.147 0-2.076.462-2.785 1.386-.71.924-1.064 2.18-1.064 3.767M394.764 12.016c-.646-.761-1.564-1.141-2.754-1.141-1.062 0-1.867.31-2.414.933-.547.622-.819 1.52-.819 2.699v6.35h2.201v-6.322c0-1.245.515-1.867 1.55-1.867 1.067 0 1.79.384 2.164 1.15v7.039h2.201v-9.801h-2.074zM405 13.719c0 .393-.161.69-.484.897-.324.206-.86.386-1.61.543-.747.158-1.372.357-1.874.598-1.098.53-1.648 1.302-1.648 2.31 0 .845.356 1.552 1.069 2.12.712.567 1.618.85 2.717.85 1.172 0 2.118-.29 2.84-.868.72-.58 1.083-1.332 1.083-2.256h-2.201c0 .423-.158.775-.472 1.056-.314.28-.731.42-1.25.42-.483 0-.877-.111-1.182-.334a1.06 1.06 0 0 1-.457-.898c0-.337.142-.6.425-.788.284-.186.857-.376 1.722-.565.863-.19 1.54-.417 2.033-.68.492-.262.857-.578 1.097-.946.238-.37.357-.815.357-1.341 0-.882-.365-1.596-1.096-2.142-.731-.547-1.688-.82-2.872-.82-.802 0-1.518.145-2.146.435-.628.29-1.117.688-1.468 1.195a2.834 2.834 0 0 0-.526 1.64h2.137c.031-.52.227-.92.59-1.2.362-.281.843-.421 1.44-.421.58 0 1.02.11 1.322.33.303.22.453.509.453.865M412.21 23.24v-2.384h1.73v-1.63h-1.73v-5.47c0-.375.074-.646.222-.812.147-.166.412-.249.792-.249.254 0 .51.03.77.091v-1.703a5.425 5.425 0 0 0-1.45-.208c-1.69 0-2.536.932-2.536 2.8v5.551h-1.612v1.63h1.612v2.383zM421.123 18.846c-.29.049-.59.073-.896.073-1.01 0-1.69-.386-2.04-1.16v-6.703h-2.2v9.8h2.102l.054-1.095c.53.852 1.268 1.277 2.21 1.277.314 0 .574-.042.779-.127zM425.226 11.056h-2.201v9.801h2.201zm-2.337 12.355c0 .341.107.624.321.849.214.225.521.338.919.338.399 0 .707-.113.924-.338a1.17 1.17 0 0 0 .326-.849c0-.335-.108-.613-.326-.835-.217-.223-.525-.333-.924-.333-.398 0-.705.11-.919.333-.214.222-.321.5-.321.835M431.43 12.64c.435 0 .844.107 1.228.318.383.21.671.495.865.852v1.848h-1.187c-.815 0-1.428-.142-1.839-.426-.41-.284-.616-.686-.616-1.204 0-.423.141-.76.421-1.011.281-.25.657-.376 1.128-.376m2.42-1.585c-.098.188-.183.492-.255.915-.7-.73-1.558-1.096-2.572-1.096-.985 0-1.788.28-2.41.842-.622.562-.933 1.256-.933 2.084 0 1.044.388 1.846 1.164 2.404.775.559 1.886.838 3.33.838h1.35v.644c0 .507-.144.913-.427 1.219-.284.304-.716.457-1.296.457-.5 0-.91-.125-1.23-.376-.322-.251-.482-.57-.482-.956h-2.2c0 .538.178 1.04.533 1.508.357.468.841.835 1.454 1.1.614.267 1.297.399 2.052.399 1.148 0 2.063-.288 2.745-.865.683-.576 1.032-1.387 1.051-2.431V13.32c0-.882.123-1.585.371-2.111v-.154zM440.742 11.056h-2.201V24.97h2.201zM457.699 22.396h-4.113v-11.34h-2.274v11.34h-4.076v1.85h10.463zM462.834 19.271c-.604 0-1.092-.21-1.463-.634-.372-.423-.609-1.012-.712-1.766h4.195v.163c-.048.737-.245 1.294-.589 1.671-.344.378-.822.566-1.43.566m.263-8.396c-1.397 0-2.528.44-3.394 1.317-.867.88-1.3 2.05-1.3 3.511v.271c0 .98.19 1.853.566 2.622.378.771.907 1.37 1.59 1.798a4.2 4.2 0 0 0 2.283.644c1.334 0 2.365-.426 3.093-1.278.728-.85 1.091-2.055 1.091-3.614v-.888h-6.404c.066-.809.337-1.449.811-1.92.474-.47 1.07-.707 1.79-.707 1.007 0 1.83.41 2.463 1.223l1.186-1.132a3.956 3.956 0 0 0-1.57-1.363c-.657-.323-1.392-.484-2.206-.484M473.133 12.632c.55 0 1.005.16 1.367.48.362.32.556.716.58 1.187h2.074a3.234 3.234 0 0 0-.57-1.708 3.745 3.745 0 0 0-1.45-1.254 4.302 4.302 0 0 0-1.974-.462c-1.37 0-2.459.444-3.26 1.33-.804.889-1.206 2.114-1.206 3.679v.227c0 1.49.4 2.685 1.196 3.583.797.896 1.884 1.344 3.261 1.344 1.166 0 2.115-.34 2.848-1.02.735-.678 1.12-1.571 1.155-2.675h-2.074c-.024.56-.216 1.023-.575 1.386-.359.362-.816.543-1.372.543-.713 0-1.263-.258-1.649-.775-.386-.516-.582-1.3-.588-2.35v-.354c0-1.062.191-1.855.575-2.378.383-.521.937-.783 1.662-.783M481.358 19.788c.718.833 1.627 1.25 2.727 1.25 2.088 0 3.148-1.192 3.178-3.578v-6.404h-2.201v6.323c0 .676-.146 1.154-.438 1.435-.293.281-.724.421-1.291.421-.882 0-1.54-.392-1.975-1.177v-7.002h-2.201V24.97h2.2zM491.9 20.856l.064-1.132c.725.876 1.676 1.314 2.854 1.314 2.04 0 3.08-1.169 3.116-3.506v-6.477h-2.201v6.35c0 .622-.135 1.083-.403 1.382-.27.298-.708.448-1.32.448-.886 0-1.547-.4-1.982-1.205v-6.975h-2.201v9.801zM502.337 15.856c0-1.009.208-1.798.624-2.368.417-.57.997-.857 1.739-.857.743 0 1.322.29 1.736.871.413.58.62 1.427.62 2.544 0 .991-.213 1.776-.64 2.356-.426.58-1.004.87-1.734.87-.719 0-1.289-.286-1.712-.856-.423-.572-.634-1.424-.634-2.56m-2.202.19c0 .96.19 1.826.571 2.596.38.77.916 1.361 1.605 1.776.688.413 1.479.62 2.373.62 1.322 0 2.395-.426 3.219-1.278.826-.85 1.27-1.98 1.337-3.387l.009-.517c0-.966-.185-1.829-.557-2.59a4.116 4.116 0 0 0-1.594-1.766c-.692-.417-1.49-.625-2.397-.625-1.383 0-2.49.46-3.32 1.38-.83.921-1.246 2.15-1.246 3.683zM513.822 11.056h-2.201V24.97h2.201zM518.378 15.856c0-1.009.208-1.798.625-2.368.417-.57.996-.857 1.739-.857.742 0 1.322.29 1.735.871.414.58.62 1.427.62 2.544 0 .991-.212 1.776-.638 2.356-.426.58-1.004.87-1.735.87-.72 0-1.29-.286-1.712-.856-.423-.572-.634-1.424-.634-2.56m-2.201.19c0 .96.19 1.826.57 2.596.38.77.915 1.361 1.604 1.776.688.413 1.479.62 2.373.62 1.323 0 2.396-.426 3.22-1.278.825-.85 1.27-1.98 1.336-3.387l.009-.517c0-.966-.185-1.829-.557-2.59a4.11 4.11 0 0 0-1.594-1.766c-.692-.417-1.49-.625-2.396-.625-1.383 0-2.49.46-3.32 1.38-.83.921-1.245 2.15-1.245 3.683zM529.329 15.839c0-.984.2-1.76.603-2.324.4-.565.958-.847 1.67-.847.888 0 1.546.38 1.975 1.142v4.31c-.416.744-1.068 1.115-1.956 1.115-.725 0-1.288-.287-1.69-.86-.402-.574-.602-1.42-.602-2.536m-2.192.189c0 1.523.358 2.738 1.073 3.647.716.909 1.666 1.363 2.849 1.363 1.118 0 1.996-.39 2.636-1.17l.1.989h1.983v-9.502c0-1.287-.4-2.301-1.2-3.043-.8-.744-1.88-1.115-3.238-1.115-.72 0-1.421.15-2.106.449-.685.298-1.207.689-1.563 1.172l1.042 1.323c.677-.803 1.51-1.204 2.5-1.204.73 0 1.307.197 1.73.592.423.396.634.978.634 1.745v.66c-.634-.706-1.48-1.06-2.536-1.06-1.148 0-2.085.456-2.813 1.368-.727.912-1.091 2.174-1.091 3.786M541.837 14.208l1.993 6.648h2.346L542.283 9.57c-.597-1.648-1.612-2.472-3.044-2.472-.32 0-.672.054-1.06.164v1.711l.418-.028c.554 0 .973.102 1.254.303.28.202.503.542.666 1.019l.317.841-3.442 9.748h2.373zM446 62.685v28.183h-7.192v-5.18h-6.805v-6.49h6.805v-4.842h-6.805v-6.49h6.805v-5.18zM419.202 69.694h-4.943v14.684h4.943zm10.682 14.684v6.49h-26.309v-6.49h3.929V69.694h-3.929v-6.489h26.309v6.489h-3.928v14.684zM433.357 43.786a5.262 5.262 0 0 0-5.255 5.256 5.262 5.262 0 0 0 5.255 5.255 5.262 5.262 0 0 0 5.255-5.255 5.262 5.262 0 0 0-5.255-5.256m0 17.386c-6.689 0-12.13-5.442-12.13-12.13 0-6.69 5.441-12.13 12.13-12.13 6.688 0 12.131 5.44 12.131 12.13 0 6.688-5.443 12.13-12.131 12.13M101.13 62.87v6.49H56.974v-6.49h18.48v-7.298h-10.81v-6.49h21.911v-11.48h7.192v15.945a2.028 2.028 0 0 1-2.026 2.025H82.65v7.298zM93.749 72.898v15.944a2.028 2.028 0 0 1-2.026 2.026H64.645v-6.49h21.912v-11.48zM243.599 54.019h7.193v36.849h-7.193zM232.162 56.919v31.924a2.028 2.028 0 0 1-2.026 2.025h-20.852v-6.49h15.685v-27.46zM337.082 54.019h7.193v36.849h-7.193zM325.644 56.919v31.924a2.027 2.027 0 0 1-2.025 2.025h-20.853v-6.49h15.685v-27.46zM120.226 91.606a3.59 3.59 0 0 1-3.264-2.105l-11.28-24.94 6.526-2.95 8.018 17.81 8.017-17.81 6.526 2.95-11.28 24.94a3.59 3.59 0 0 1-3.263 2.105M124.842 37.602h23.021v6.49H130.01V55.31h-7.192V39.627c0-1.116.908-2.025 2.024-2.025M155.147 90.868h-12.889a2.027 2.027 0 0 1-2.026-2.025V59.687h7.192v24.691h7.723zM21.28 75.603a4.483 4.483 0 0 0 4.477-4.477 4.482 4.482 0 0 0-4.477-4.476 4.481 4.481 0 0 0-4.476 4.476 4.482 4.482 0 0 0 4.476 4.476m0-15.626c6.149 0 11.15 5.002 11.15 11.15 0 3.216-1.392 6.278-3.82 8.398l-.275.24h7.267v6.492H24.877v5.88h-7.193v-5.88H6.959v-6.492h7.267l-.276-.24a11.153 11.153 0 0 1-3.82-8.398c0-6.149 5.002-11.15 11.15-11.15M25.13 37.602h23.02v6.49H30.298V55.31h-7.193V39.627c0-1.116.908-2.025 2.026-2.025M55.434 90.868h-12.89a2.027 2.027 0 0 1-2.025-2.025V59.687h7.192v24.691h7.723zM202.391 64.416v26.452h-7.193V81.59h-7.957V75.1h7.957V64.416ZM171.49 71.583a5.893 5.893 0 0 0-5.885 5.886 5.893 5.893 0 0 0 5.886 5.886 5.893 5.893 0 0 0 5.886-5.886 5.893 5.893 0 0 0-5.886-5.886m0 19.17c-7.325 0-13.284-5.959-13.284-13.284 0-7.325 5.959-13.283 13.284-13.283 7.325 0 13.284 5.958 13.284 13.283 0 7.325-5.96 13.284-13.284 13.284M184.976 49.377h10.222v-5.284h-10.222zm-5.167-11.775h22.582v22.936h-7.193v-4.67h-10.222v4.67h-7.192V39.629c0-1.117.908-2.027 2.025-2.027M261.511 77.34l4.98-5.168 13.231 11.254 13.231-11.254 4.98 5.169-15.9 13.422a3.578 3.578 0 0 1-4.622 0zM267.196 37.602h27.078v6.052h-21.911v2.135h21.91v12.212a2.028 2.028 0 0 1-2.024 2.027h-8.93v3.465h18.48v6.489h-44.155v-6.49h18.482v-3.464H265.17v-6.051h21.912V51.84H265.17V39.629c0-1.117.909-2.026 2.026-2.026M387.233 57.266h7.193v33.603h-7.193zM367.803 80.672a3.868 3.868 0 0 0 3.864-3.864 3.869 3.869 0 0 0-3.864-3.865 3.869 3.869 0 0 0-3.864 3.865 3.868 3.868 0 0 0 3.864 3.864m-13.747.324h4.38l-.08-.19a10.192 10.192 0 0 1-.809-3.998c0-4.21 2.641-8.056 6.57-9.571l.087-.033v-3.096h-11.272v-6.491h29.74v6.49h-11.274v3.095l.088.034c3.931 1.514 6.572 5.36 6.572 9.572 0 1.385-.272 2.73-.809 3.998l-.08.19h4.377v6.49h-10.148v4.65h-7.194v-4.65h-10.148zM394.426 37.602v14.625a2.028 2.028 0 0 1-2.026 2.025h-22.58v-6.49h17.413v-10.16zM475.57 56.704v32.14a2.027 2.027 0 0 1-2.024 2.024h-20.853v-6.49h15.686V56.704zM501.08 90.868h-12.857a2.028 2.028 0 0 1-2.027-2.025V54.037h7.194v30.341h7.69zM533.318 64.679h-28.586v-6.49h6.343v-9.284h7.192v9.284h15.05zM518.852 74.52a4.568 4.568 0 0 0-4.563 4.563 4.568 4.568 0 0 0 4.563 4.563 4.568 4.568 0 0 0 4.562-4.563 4.567 4.567 0 0 0-4.562-4.562m0 16.578c-6.626 0-12.016-5.39-12.016-12.016 0-6.625 5.39-12.014 12.016-12.014 6.625 0 12.015 5.389 12.015 12.014 0 6.626-5.39 12.016-12.015 12.016" style="fill:#1d398d;fill-opacity:1;fill-rule:nonzero;stroke:none" transform="matrix(1.33333 0 0 -1.33333 0 366.847)"/><path d="M523.595 37.602h23.021v6.49h-17.854v8.373h-7.193V39.627c0-1.116.908-2.025 2.026-2.025M546.176 58.188v30.654a2.028 2.028 0 0 1-2.026 2.026h-11.74v-6.49h6.574v-26.19z" style="fill:#1d398d;fill-opacity:1;fill-rule:nonzero;stroke:none" transform="matrix(1.33333 0 0 -1.33333 0 366.847)"/></svg>