<svg xmlns="http://www.w3.org/2000/svg" xml:space="preserve" width="431.70105" height="78.578667" viewBox="0 0 431.70105 78.578667"><defs><linearGradient id="a" x1="0" x2="1" y1="0" y2="0" gradientTransform="matrix(57.37114 0 0 -57.37114 0 29.467)" gradientUnits="userSpaceOnUse" spreadMethod="pad"><stop offset="0" style="stop-opacity:1;stop-color:#56c1ab"/><stop offset="0.16362785" style="stop-opacity:1;stop-color:#56c1ab"/><stop offset="1" style="stop-opacity:1;stop-color:#006bad"/></linearGradient></defs><path d="M67.82 17.271h1.261v-3.785h.032l3.045 3.785h1.403l-2.479-3.089 2.892-4.915h-1.402l-2.262 3.915-1.229-1.5V9.266h-1.26zM78.725 12.247c0 1.272-.588 2.12-1.533 2.12-.936 0-1.523-.848-1.523-2.12 0-1.262.587-2.1 1.523-2.1.945 0 1.533.838 1.533 2.1m-4.349 0c0 2 1.336 3.154 2.816 3.154 1.48 0 2.817-1.154 2.817-3.154 0-1.98-1.338-3.121-2.817-3.121-1.48 0-2.816 1.142-2.816 3.12M81.474 15.248h1.023l.098-1.076h.033c.424.771 1.055 1.228 1.695 1.228.294 0 .49-.043.675-.13l-.228-1.088a1.778 1.778 0 0 1-.598.098c-.489 0-1.077-.337-1.457-1.283v-3.73h-1.24zM89.469 12.79c0 1.034-.468 1.632-1.338 1.632-.75 0-1.414-.577-1.533-1.632zm-4.09-.543c0 1.946 1.327 3.153 2.73 3.153 1.588 0 2.436-1.142 2.436-2.838 0-.239-.021-.489-.054-.63h-3.882c.097-1.142.815-1.828 1.848-1.828.534 0 .99.164 1.425.447l.436-.795a3.63 3.63 0 0 0-2.023-.63c-1.621 0-2.916 1.152-2.916 3.121M95.013 10.812v1.468c-1.773-.218-2.371-.664-2.371-1.338 0-.588.402-.826.936-.826.521 0 .946.25 1.435.696m-3.579.043c0 1.284 1.089 1.947 3.579 2.218-.011.697-.261 1.306-1.143 1.306-.63 0-1.217-.282-1.728-.61l-.467.849c.619.39 1.457.783 2.413.783 1.49 0 2.175-.947 2.175-2.534v-3.6h-1.021l-.11.686H95.1c-.543-.468-1.185-.827-1.903-.827-1.033 0-1.763.674-1.763 1.729M100.589 17.271h1.262V9.267h-1.262zM103.84 15.248h1.023l.097-.826h.033c.555.532 1.164.978 1.98.978 1.272 0 1.837-.848 1.837-2.37V9.267h-1.25v3.61c0 1.033-.305 1.446-1.01 1.446-.557 0-.937-.283-1.469-.815v-4.24h-1.24zM109.993 9.953l.588.805c.532-.424 1.055-.686 1.697-.686.716 0 1.053.348 1.053.806 0 .543-.673.783-1.325 1.033-.794.305-1.708.729-1.708 1.739 0 1 .805 1.75 2.121 1.75.804 0 1.457-.324 1.947-.706l-.588-.773c-.413.306-.837.524-1.338.524-.652 0-.957-.328-.957-.742 0-.51.62-.706 1.273-.944.838-.317 1.761-.686 1.761-1.817 0-1-.793-1.816-2.273-1.816-.826 0-1.674.347-2.251.826M115.8 11.225v3.022h-.87v.936l.925.065.142 1.653h1.054v-1.653h1.555v-1.001h-1.555v-3.033c0-.718.25-1.087.87-1.087.207 0 .467.065.642.14l.229-.923c-.34-.11-.741-.218-1.176-.218-1.348 0-1.815.837-1.815 2.099M119.908 15.248h1.241V9.267h-1.241zm-.173 1.86c0 .446.337.74.795.74.456 0 .804-.294.804-.74 0-.434-.348-.74-.804-.74-.458 0-.795.306-.795.74M123.226 11.225v3.022h-.87v.936l.924.065.141 1.653h1.055v-1.653h1.555v-1.001h-1.555v-3.033c0-.718.25-1.087.87-1.087.206 0 .467.065.642.14l.228-.923c-.338-.11-.74-.218-1.175-.218-1.348 0-1.815.837-1.815 2.099M127.26 11.486v3.763h1.25v-3.611c0-1.032.293-1.434 1-1.434.555 0 .936.26 1.436.89v4.155h1.25V9.268h-1.022l-.098.903h-.033c-.543-.631-1.131-1.044-1.957-1.044-1.272 0-1.826.837-1.826 2.359M134.273 11.225v3.022h-.87v.936l.924.065.141 1.653h1.055v-1.653h1.555v-1.001h-1.555v-3.033c0-.718.25-1.087.87-1.087.206 0 .467.065.642.14l.228-.923c-.338-.11-.74-.218-1.175-.218-1.348 0-1.815.837-1.815 2.099M141.863 12.79c0 1.034-.47 1.632-1.338 1.632-.75 0-1.414-.577-1.534-1.632zm-4.09-.543c0 1.946 1.327 3.153 2.73 3.153 1.587 0 2.436-1.142 2.436-2.838 0-.239-.021-.489-.055-.63h-3.881c.097-1.142.815-1.828 1.848-1.828.533 0 .99.164 1.425.447l.435-.795a3.63 3.63 0 0 0-2.022-.63c-1.621 0-2.915 1.152-2.915 3.121M150.712 12.247c0 1.272-.588 2.12-1.533 2.12-.936 0-1.523-.848-1.523-2.12 0-1.262.587-2.1 1.523-2.1.945 0 1.533.838 1.533 2.1m-4.351 0c0 2 1.338 3.154 2.818 3.154 1.479 0 2.817-1.154 2.817-3.154 0-1.98-1.338-3.121-2.817-3.121-1.48 0-2.818 1.142-2.818 3.12M156.334 16.934a1.644 1.644 0 0 1-.653.152c-.533 0-.795-.348-.795-1.077v-.76h1.208v-1.002h-1.208v-4.98h-1.25v4.98h-.815v.936l.815.065v.75c0 1.23.554 2.077 1.892 2.077.403 0 .784-.086 1.056-.206zM159.735 17.271h1.262V9.267h-1.262zM162.986 15.248h1.023l.098-.826h.033c.554.532 1.163.978 1.978.978 1.273 0 1.838-.848 1.838-2.37V9.267h-1.25v3.61c0 1.033-.305 1.446-1.012 1.446-.555 0-.935-.283-1.467-.815v-4.24h-1.241zM169.967 11.225v3.022h-.871v.936l.925.065.14 1.653h1.056v-1.653h1.555v-1.001h-1.555v-3.033c0-.718.25-1.087.869-1.087.207 0 .468.065.643.14l.228-.923c-.34-.11-.74-.218-1.175-.218-1.348 0-1.815.837-1.815 2.099M177.555 12.79c0 1.034-.469 1.632-1.338 1.632-.75 0-1.414-.577-1.533-1.632zm-4.09-.543c0 1.946 1.327 3.153 2.73 3.153 1.588 0 2.436-1.142 2.436-2.838 0-.239-.02-.489-.055-.63h-3.88c.096-1.142.814-1.828 1.847-1.828.533 0 .99.164 1.425.447l.437-.795a3.634 3.634 0 0 0-2.024-.63c-1.62 0-2.915 1.152-2.915 3.121M180.033 10.67v7.264h1.241v-7.328c0-.337.151-.458.303-.458a.82.82 0 0 1 .207.023l.163-.946a1.99 1.99 0 0 0-.673-.098c-.903 0-1.241.576-1.241 1.544M183.273 10.67v7.264h1.24v-7.328c0-.337.152-.458.304-.458a.82.82 0 0 1 .207.023l.163-.946a1.992 1.992 0 0 0-.674-.098c-.902 0-1.24.576-1.24 1.544M190.179 12.79c0 1.034-.47 1.632-1.338 1.632-.75 0-1.414-.577-1.533-1.632zm-4.09-.543c0 1.946 1.327 3.153 2.73 3.153 1.588 0 2.436-1.142 2.436-2.838 0-.239-.02-.489-.055-.63h-3.881c.097-1.142.815-1.828 1.848-1.828.533 0 .99.164 1.425.447l.436-.795a3.633 3.633 0 0 0-2.023-.63c-1.621 0-2.915 1.152-2.915 3.121M192.232 12.247c0 2 1.382 3.154 2.958 3.154.762 0 1.316-.305 1.751-.685l-.619-.817c-.327.294-.664.469-1.077.469-1 0-1.718-.85-1.718-2.121 0-1.262.684-2.1 1.685-2.1.5 0 .946.24 1.305.546l.512-.828a2.92 2.92 0 0 0-1.938-.74c-1.619 0-2.859 1.143-2.859 3.122M198.354 11.225v3.022h-.87v.936l.924.065.141 1.653h1.056v-1.653h1.554v-1.001h-1.554v-3.033c0-.718.25-1.087.87-1.087.205 0 .466.065.641.14l.228-.923c-.338-.11-.74-.218-1.174-.218-1.349 0-1.816.837-1.816 2.099M202.386 11.486v3.763h1.252v-3.611c0-1.032.293-1.434 1-1.434.555 0 .936.26 1.436.89v4.155h1.25V9.268h-1.022l-.098.903h-.033c-.543-.631-1.131-1.044-1.957-1.044-1.271 0-1.828.837-1.828 2.359M212.433 10.812v1.468c-1.773-.218-2.37-.664-2.37-1.338 0-.588.401-.826.934-.826.522 0 .947.25 1.436.696m-3.578.043c0 1.284 1.088 1.947 3.578 2.218-.012.697-.26 1.306-1.143 1.306-.63 0-1.216-.282-1.728-.61l-.468.849c.62.39 1.457.783 2.414.783 1.49 0 2.175-.947 2.175-2.534v-3.6h-1.02l-.11.686h-.033c-.543-.468-1.186-.827-1.903-.827-1.034 0-1.762.674-1.762 1.729M215.456 10.67v7.264h1.24v-7.328c0-.337.152-.458.304-.458a.82.82 0 0 1 .207.023l.163-.946a1.992 1.992 0 0 0-.674-.098c-.902 0-1.24.576-1.24 1.544M223.6 13.313c1.283 0 1.892.49 1.892 1.544 0 1.056-.664 1.404-1.936 1.404h-1.044v-2.948zm-2.35 3.958h2.425c1.783 0 3.056-.608 3.056-2.414 0-1.751-1.273-2.556-3.013-2.556h-1.206V9.268h-1.262zM228.176 15.248h1.023l.097-1.076h.033c.425.771 1.056 1.228 1.697 1.228.294 0 .489-.043.674-.13l-.228-1.088a1.778 1.778 0 0 1-.598.098c-.49 0-1.077-.337-1.457-1.283v-3.73h-1.241zM236.43 12.247c0 1.272-.589 2.12-1.534 2.12-.936 0-1.522-.848-1.522-2.12 0-1.262.586-2.1 1.523-2.1.945 0 1.533.838 1.533 2.1m-4.35 0c0 2 1.336 3.154 2.816 3.154 1.479 0 2.817-1.154 2.817-3.154 0-1.98-1.338-3.121-2.816-3.121-1.48 0-2.817 1.142-2.817 3.12M243.246 12.334c0 1.25-.401 2.022-1.402 2.022-.468 0-.914-.239-1.424-.729v-2.925c.467-.402.933-.543 1.304-.543.87 0 1.522.772 1.522 2.175m-4.067 2.914h1.023l.097-.653h.033c.52.435 1.175.805 1.837.805 1.523 0 2.37-1.207 2.37-3.044 0-2.056-1.228-3.23-2.576-3.23-.533 0-1.066.24-1.577.673l.034-1.02V6.842h-1.241zM249.694 12.79c0 1.034-.469 1.632-1.338 1.632-.75 0-1.414-.577-1.533-1.632zm-4.088-.543c0 1.946 1.325 3.153 2.728 3.153 1.588 0 2.436-1.142 2.436-2.838 0-.239-.02-.489-.055-.63h-3.88c.096-1.142.814-1.828 1.847-1.828.533 0 .99.164 1.425.447l.436-.795a3.633 3.633 0 0 0-2.023-.63c-1.62 0-2.914 1.152-2.914 3.121M252.17 15.248h1.023l.098-1.076h.033c.424.771 1.055 1.228 1.696 1.228.294 0 .489-.043.675-.13l-.23-1.088a1.77 1.77 0 0 1-.597.098c-.49 0-1.077-.337-1.457-1.283v-3.73h-1.24zM256.815 11.225v3.022h-.87v.936l.924.065.141 1.653h1.055v-1.653h1.555v-1.001h-1.555v-3.033c0-.718.25-1.087.87-1.087.206 0 .467.065.642.14l.228-.923c-.339-.11-.74-.218-1.176-.218-1.347 0-1.814.837-1.814 2.099M263.555 8.909c-.469-1.284-1.1-2.144-2.36-2.144-.303 0-.543.044-.75.122l.24.978c.108-.033.283-.088.435-.088.652 0 1.033.48 1.25 1.12l.12.414-2.371 5.938h1.284l1.109-3.079c.174-.532.357-1.13.544-1.683h.054l.466 1.684.958 3.078h1.217zM271.742 13.313c1.284 0 1.893.49 1.893 1.544 0 1.056-.664 1.404-1.936 1.404h-1.044v-2.948zm-2.349 3.958h2.425c1.783 0 3.056-.608 3.056-2.414 0-1.751-1.273-2.556-3.013-2.556h-1.206V9.268h-1.262zM276.32 15.248h1.021l.098-1.076h.033c.424.771 1.055 1.228 1.696 1.228.294 0 .49-.043.675-.13l-.229-1.088a1.77 1.77 0 0 1-.598.098c-.489 0-1.077-.337-1.457-1.283v-3.73h-1.24zM284.572 12.247c0 1.272-.588 2.12-1.533 2.12-.936 0-1.523-.848-1.523-2.12 0-1.262.587-2.1 1.523-2.1.945 0 1.533.838 1.533 2.1m-4.35 0c0 2 1.337 3.154 2.817 3.154 1.48 0 2.817-1.154 2.817-3.154 0-1.98-1.338-3.121-2.817-3.121-1.48 0-2.818 1.142-2.818 3.12M287.321 15.248h1.023l.097-.837h.033c.512.543 1.11.99 1.85.99.891 0 1.391-.414 1.653-1.098.586.631 1.195 1.097 1.947 1.097 1.25 0 1.836-.848 1.836-2.37V9.267h-1.25v3.61c0 1.033-.326 1.446-1.002 1.446-.413 0-.846-.27-1.347-.815v-4.24h-1.25v3.61c0 1.032-.317 1.445-1 1.445-.403 0-.85-.27-1.349-.815v-4.24h-1.24zM301.49 12.247c0 1.272-.589 2.12-1.534 2.12-.936 0-1.523-.848-1.523-2.12 0-1.262.587-2.1 1.523-2.1.945 0 1.533.838 1.533 2.1m-4.35 0c0 2 1.337 3.154 2.817 3.154 1.48 0 2.817-1.154 2.817-3.154 0-1.98-1.338-3.121-2.817-3.121-1.48 0-2.818 1.142-2.818 3.12M304.185 11.225v3.022h-.87v.936l.925.065.14 1.653h1.056v-1.653h1.554v-1.001h-1.554v-3.033c0-.718.25-1.087.87-1.087.206 0 .466.065.641.14l.23-.923c-.34-.11-.742-.218-1.177-.218-1.347 0-1.815.837-1.815 2.099M308.295 15.248h1.241V9.267h-1.241zm-.173 1.86c0 .446.337.74.793.74.457 0 .806-.294.806-.74 0-.434-.349-.74-.806-.74-.456 0-.793.306-.793.74M315.34 12.247c0 1.272-.587 2.12-1.532 2.12-.936 0-1.523-.848-1.523-2.12 0-1.262.587-2.1 1.523-2.1.945 0 1.533.838 1.533 2.1m-4.35 0c0 2 1.337 3.154 2.817 3.154 1.479 0 2.817-1.154 2.817-3.154 0-1.98-1.338-3.121-2.817-3.121-1.48 0-2.816 1.142-2.816 3.12M318.09 15.248h1.023l.097-.826h.033c.555.532 1.164.978 1.979.978 1.273 0 1.839-.848 1.839-2.37V9.267h-1.251v3.61c0 1.033-.305 1.446-1.011 1.446-.556 0-.936-.283-1.468-.815v-4.24h-1.241z" style="fill:#8c8c8c;fill-opacity:1;fill-rule:nonzero;stroke:none" transform="matrix(1.33333 0 0 -1.33333 0 78.579)"/><path d="M83.704 51.452h5.052v-7.526h3.853v-3.003h-3.853v-9.697h-4.088v17.341l-.964.684zm-9.577-13.534c1.957 0 3.65 1.516 3.65 3.957 0 2.408-1.693 3.954-3.65 3.954-1.956 0-3.648-1.546-3.648-3.954 0-2.441 1.692-3.957 3.648-3.957m-5.956-4.849h4.087v-5.444h16.848V24.62H68.171zm.09 13.149h-2.776v3.003h6.6v2.946h4.087l.058-2.946h6.422v-3.003h-2.627a6.273 6.273 0 0 0 1.81-4.433c0-4.077-3.123-6.932-7.708-6.932-4.612 0-7.677 2.887-7.677 6.932 0 1.724.643 3.271 1.81 4.433M113.65 47.704H96.892v3.005h21.868v-2.32l-1.022-.714V45.83c0-.952-.088-3.33-.409-4.907h3.241V37.89h-10.89V33.9h8.672v-9.338h-4.088v6.335H96.892V33.9h8.701v3.99h-10.83v3.032h18.48c.291 1.367.407 4.045.407 4.818zM126.02 32.742h21.519v-8.18h-4.087v5.294H126.02zm-.903 18.057h22.333v-2.856h-17.225v-1.547h17.08v-2.677h-17.08v-1.576h17.4v-2.856h-21.488v8.656l-1.02.714zm-1.168-13.237h25.809v-2.887h-25.81zM161.983 30.274c2.248 0 3.621 2.795 3.621 7.049 0 4.253-1.373 7.049-3.62 7.049-2.278 0-3.65-2.796-3.65-7.05 0-4.253 1.372-7.048 3.65-7.048m11.415 6.305h-3.708c-.146-5.206-2.219-9.4-7.708-9.4-5.722 0-7.738 4.522-7.738 10.026 0 2.944.643 5.769 2.251 7.673h-3.155v3.005h6.6v3.986h4.087v-3.986h6.48v-3.005h-3.065c1.168-1.37 1.811-3.212 2.102-5.266h3.854v8.806l-1.022.713v2.32h5.11V24.564H173.4zM202.587 48.418l-1.022.713v2.32h5.11V24.564h-4.088zm-8.204-3.184v2.054h-10.92v3.094h14.89v-5.148c0-8.118-3.825-13.83-14.101-17.907l-1.927 3.125c8.202 3.003 12.058 6.664 12.058 14.782M222.605 48.685l-.729.535v1.757h4.904V49.4c0-.655-.116-1.25-.32-1.785l9.81-2.678-1.46-3.212-10.568 3.42c-2.132-1.367-5.666-2.29-10.424-3.42l-1.344 3.272c7.475 1.19 9.664 2.35 10.131 3.688m3.824-10.946v-1.846h8.673v-7.138h-17.314v-1.547h17.43v-2.884H213.7v7.198h17.314v1.487h-17.372v2.884h8.702v1.846h-10.832v2.974h25.81V37.74zM260.96 48.449l-1.021.713v2.29h5.11v-19.93h-4.088zm-16.494-14.488h4.088v-6.336h16.845V24.62h-20.933zm2.715 11.81v1.993h-5.927v3.035h15.765v-3.035h-5.751v-1.696c0-.952-.117-1.875-.38-2.706l7.533-4.552-2.248-3.124-6.744 4.849c-1.432-1.875-3.738-3.509-7.124-5.056l-2.016 3.123c4.116 1.576 6.892 4.046 6.892 7.169M282.76 42.916c3.797 0 6.453.564 6.424 2.05-.028 1.49-2.627 2.025-6.423 2.025-3.736 0-6.335-.535-6.364-2.024-.03-1.487 2.628-2.051 6.364-2.051m0-15.736c3.68 0 7.095.238 7.066 1.815-.03 1.575-3.386 1.783-7.066 1.783-3.62 0-6.978-.208-7.007-1.783-.03-1.577 3.387-1.815 7.007-1.815m0 6.603c7.124 0 11.183-1.31 11.183-4.82 0-3.508-4.06-4.848-11.183-4.848-7.094 0-11.124 1.34-11.124 4.848 0 3.51 4.03 4.82 11.124 4.82m-11.59 16.3h9.576v2.084h4.088v-2.084h9.575v-2.945h-2.335c.643-.624.994-1.367.994-2.26 0-3.242-3.798-4.79-10.308-4.79-6.48 0-10.246 1.548-10.246 4.79 0 .893.35 1.636.99 2.26h-2.334zm-1.284-11.57h25.809v-2.976h-25.81zM313.613 35.062h5.84v13.355l-1.023.714v2.321h5.111v-20.91h-4.088v1.725h-5.84zm-5.516 9.37c2.335 0 4.146.595 4.146 1.903 0 1.31-1.81 1.904-4.146 1.904-2.366 0-4.174-.595-4.174-1.904 0-1.308 1.808-1.903 4.174-1.903m-6.132-12.137h4.087v-4.67h17.723V24.62h-21.81zm6.132 19.01c5.577 0 8.233-2.085 8.233-4.97 0-2.884-2.656-4.966-8.233-4.966-5.606 0-8.262 2.082-8.262 4.966 0 2.885 2.656 4.97 8.262 4.97m2.22-14.517v-4.076h-4.089v4.076h-7.445v3.033h19.21v-3.033z" style="fill:#26314c;fill-opacity:1;fill-rule:nonzero;stroke:none" transform="matrix(1.33333 0 0 -1.33333 0 78.579)"/><path d="M28.686 58.934 0 42.792l11.84-6.662 5.004 2.815-6.838 3.847 18.68 10.511 18.678-10.511L0 16.141 28.686 0 57.37 16.141l-11.839 6.663-5.004-2.815 6.837-3.848-18.678-10.51-18.68 10.51L57.37 42.792Z" style="fill:url(#a);stroke:none" transform="matrix(1.33333 0 0 -1.33333 0 78.579)"/><path d="m47.65 34.937-5.004-2.815 4.718-2.655-18.679-10.51-4.72 2.655-5.003-2.815 9.723-5.471 28.686 16.14zM28.685 39.977l4.721-2.656 5.003 2.815-9.724 5.472L0 29.466l9.722-5.47 5.003 2.815-4.718 2.655z" style="fill:#26314c;fill-opacity:1;fill-rule:nonzero;stroke:none" transform="matrix(1.33333 0 0 -1.33333 0 78.579)"/></svg>