<svg xmlns="http://www.w3.org/2000/svg" xml:space="preserve" width="799.97394" height="800" viewBox="0 0 799.97394 800"><path d="M224.766-86.389c-165.67 0-299.971 134.327-299.971 299.996 0 165.677 134.3 300.004 299.97 300.004 165.697 0 300.01-134.327 300.01-300.004 0-165.67-134.313-299.996-300.01-299.996z" style="color:#000;font-style:normal;font-variant:normal;font-weight:400;font-stretch:normal;font-size:medium;font-family:sans-serif;font-variant-ligatures:normal;font-variant-position:normal;font-variant-caps:normal;font-variant-numeric:normal;font-variant-alternates:normal;font-variant-east-asian:normal;font-feature-settings:normal;text-indent:0;text-decoration:none;text-decoration-line:none;text-decoration-style:solid;text-decoration-color:#000;letter-spacing:normal;word-spacing:normal;text-transform:none;writing-mode:lr-tb;direction:ltr;text-orientation:mixed;dominant-baseline:auto;baseline-shift:baseline;text-anchor:start;clip-rule:nonzero;display:inline;overflow:visible;visibility:visible;opacity:1;color-interpolation:sRGB;vector-effect:none;fill:#d3d2d2;fill-opacity:1;fill-rule:nonzero;stroke:none;stroke-width:1.4051;stroke-linecap:butt;stroke-linejoin:miter;stroke-miterlimit:4;stroke-dasharray:none;stroke-dashoffset:0;stroke-opacity:1;color-rendering:auto;image-rendering:auto;shape-rendering:auto;text-rendering:auto;enable-background:accumulate;stop-color:#000;stop-opacity:1" transform="matrix(1.33333 0 0 -1.33333 100.273 684.815)"/><path d="M224.766-84.984c164.936 0 298.603 133.681 298.603 298.591 0 164.917-133.667 298.6-298.603 298.6-164.91 0-298.567-133.683-298.567-298.6 0-164.91 133.656-298.591 298.567-298.591z" style="color:#000;font-style:normal;font-variant:normal;font-weight:400;font-stretch:normal;font-size:medium;font-family:sans-serif;font-variant-ligatures:normal;font-variant-position:normal;font-variant-caps:normal;font-variant-numeric:normal;font-variant-alternates:normal;font-variant-east-asian:normal;font-feature-settings:normal;text-indent:0;text-decoration:none;text-decoration-line:none;text-decoration-style:solid;text-decoration-color:#000;letter-spacing:normal;word-spacing:normal;text-transform:none;writing-mode:lr-tb;direction:ltr;text-orientation:mixed;dominant-baseline:auto;baseline-shift:baseline;text-anchor:start;clip-rule:nonzero;display:inline;overflow:visible;visibility:visible;opacity:1;color-interpolation:sRGB;vector-effect:none;fill:#fff;fill-opacity:1;fill-rule:nonzero;stroke:none;stroke-width:1.4051;stroke-linecap:butt;stroke-linejoin:miter;stroke-miterlimit:4;stroke-dasharray:none;stroke-dashoffset:0;stroke-opacity:1;color-rendering:auto;image-rendering:auto;shape-rendering:auto;text-rendering:auto;enable-background:accumulate;stop-color:#000;stop-opacity:1" transform="matrix(1.33333 0 0 -1.33333 100.273 684.815)"/><path d="M224.778 503.39c-159.87 0-289.453-129.597-289.453-289.466 0-159.876 129.583-289.486 289.453-289.486 159.896 0 289.493 129.61 289.493 289.486 0 159.87-129.597 289.466-289.493 289.466z" style="fill:none;stroke:#d3d2d2;stroke-width:5.59146;stroke-linecap:butt;stroke-linejoin:miter;stroke-miterlimit:4;stroke-dasharray:none;stroke-opacity:1" transform="matrix(1.33333 0 0 -1.33333 100.273 684.815)"/><path d="M224.791 430.59C105.134 430.59 8.12 333.58 8.12 213.924 8.119 94.28 105.134-2.722 224.79-2.722c119.65 0 216.653 97.002 216.653 216.646 0 119.657-97.002 216.666-216.653 216.666z" style="fill:none;stroke:#d3d2d2;stroke-width:2.63127;stroke-linecap:butt;stroke-linejoin:miter;stroke-miterlimit:4;stroke-dasharray:none;stroke-opacity:1" transform="matrix(1.33333 0 0 -1.33333 100.273 684.815)"/><path d="M-11.556 158.437c0-4.77-3.875-8.65-8.664-8.65-4.763 0-8.637 3.88-8.637 8.65 0 4.789 3.874 8.663 8.637 8.663a8.658 8.658 0 0 0 8.664-8.663M481.044 158.437c0-4.77-3.88-8.65-8.663-8.65-4.763 0-8.637 3.88-8.637 8.65 0 4.789 3.874 8.663 8.637 8.663a8.662 8.662 0 0 0 8.663-8.663" style="fill:#004655;fill-opacity:1;fill-rule:nonzero;stroke:none;stroke-width:.657818" transform="matrix(1.33333 0 0 -1.33333 100.273 684.815)"/><path d="M299.686 304.06c-154.947 0-280.563 125.618-280.563 280.583 0 154.955 125.616 280.572 280.563 280.572 154.982 0 280.582-125.617 280.582-280.572 0-154.965-125.6-280.582-280.582-280.582zm-93.243 201.934h38.891l-34.147 163.71h-38.88l17.523-83.983-64.053 84.193H75.686l130.757-163.902Zm54.327 0h38.845l-10.05 48.276c8.612-17.665 21.226-33.988 36.583-48.276h49.766v.018c1 0 1.762.85 1.762 1.806 0 .132-.008.263-.026.43-.009.035-.025.078-.035.113-.035.07-.07.167-.123.237-.017.043-.043.079-.06.14-.035.106-.098.15-.168.221a.456.456 0 0 1-.06.096c-.106.114-.21.184-.307.263v.018h-.018c-.018 0-.018.018-.018.018-29.908 20.173-52.564 48.607-60.677 80.086-3.553 13.787-3.974 27.023-1.729 39.18a78.936 78.936 0 0 0 12.184 29.821c14.226 21.49 39.057 37.434 71.062 44.477h.01c1.018.237 1.762 1.07 1.744 2.035-.035.991-.832 1.753-1.867 1.885a1.676 1.676 0 0 1-.465.027c-.114 0-.202 0-.316-.027-59.01-.754-102.417-30.057-115.723-72.324-2.07-6.587-3.395-13.473-3.957-20.604l-11.656 55.793h-38.846Z" style="fill:#004655;fill-opacity:1;fill-rule:nonzero;stroke:none;stroke-width:.877091" transform="translate(100.273 -184.638)"/><path d="M369.715 312.557c-.118 0-.224.026-.335.053-3.546.565-7.217 1-10.96 1.236-2.98.211-6.019.33-9.117.33-38.943 0-77.59-16.472-104.679-41.581h37.312v-.014c.75 0 1.322-.638 1.322-1.355 0-.098-.007-.197-.02-.322-.007-.026-.02-.06-.026-.085-.026-.053-.053-.125-.092-.178-.013-.033-.033-.06-.046-.105-.026-.08-.073-.112-.125-.165a.347.347 0 0 0-.046-.072c-.079-.086-.158-.138-.23-.198v-.013h-.014c-.013 0-.013-.013-.013-.013-22.431-15.13-39.423-36.456-45.508-60.065-.21-.83-.394-1.625-.585-2.46-.033-.172-.085-.362-.118-.566-.158-.744-.316-1.487-.454-2.25-.027-.026-.033-.079-.04-.151a72.124 72.124 0 0 1-.743-5.256c.052.17.099.309.151.454a.275.275 0 0 1 .026.098c.178.323.415.494.415.507.408.355.862.381 1.25.335.381-.04.934-.151 1.342-.967 0 0 0-.02.013-.02.112-.177 1.04-2.13 2.059-3.828 3.71-6.21 6.637-9.887 14.728-15.959 2.888-2.15 2.06-4.006 1.908-7.301-.026-.487-.02-.96 0-1.421-.349-7.42 4.546-15.051 14.34-20.636 7.164-4.559 16.288-7.216 26.76-7.216 5.428 0 10.815.723 16.065 2.02 14.682 3.084 29.404 10.557 38.64 23.18.197.257.375.553.579.843 8.301 10.656 10.808 20.51 11.36 27.78.31 3.315.244 6.538-.243 9.604-.954 6.025-3.355 11.531-6.993 16.175l.013.013h-.026a35.454 35.454 0 0 1-2.296 2.678c-2.388 2.493-5.164 4.657-8.288 6.486-4.131 2.875-8.828 5.591-13.913 8.321-.171.092-.349.21-.533.296-11.505 6.434-15.15 15.327-16.03 22.38-.363 3.591-.14 7.433.756 11.386 4.624 20.182 25.016 36.542 45.534 36.542 1.361 0 3.644-.086 5.374-.224.079-.02.52-.033 1.04-.059.026 0 .039-.013.065-.013a.561.561 0 0 1 .21 0c.455.04.836.362.87.816.052.42-.231.828-.659.96" style="fill:#31bbcc;fill-opacity:1;fill-rule:nonzero;stroke:none;stroke-width:.657818" transform="matrix(1.33333 0 0 -1.33333 100.273 684.815)"/><path d="M33.419 72.309c-.428-.408-.875-.671-1.31-.81-.447-.13-.822-.17-1.177-.124-.362.04-.658.138-.908.296-.25.144-.427.315-.546.473-.026.046-.118.171-.243.395-.119.224-.29.5-.5.835-.21.336-.44.71-.69 1.106-.257.414-.52.809-.79 1.203-.303.375-.579.73-.803 1.092-.223.362-.42.658-.598.921a5.934 5.934 0 0 0-.546.908l-1.54 2.204-2.414 3.348-.954 1.382-1.026 1.236-1.598 2.125-.06.717 2.869 4.414.842.066 2.203-3.579c.178-.316.336-.592.48-.816.139-.223.303-.473.494-.756.276-.382.566-.796.875-1.23.309-.434.572-.763.756-1.007l4.033 3.099.94-.053 1.605-5.236-.243-.743-2.697-2.053 1.27-1.94 1.203-1.737 1.52-2.184c.072-.158.178-.362.322-.592.152-.257.23-.526.25-.835a2.046 2.046 0 0 0-.158-.98c-.138-.362-.42-.737-.861-1.145M16.184 44.792c-.224-.237-.54-.473-.94-.737-.198-.125-.974-.427-1.586-.447-.56-.02-.948.23-1.119.276-.328.073-20.024 28.346-20.024 28.346l.48 1.144 1.494 1.145 8.098 6 .829-.297.795-5.242-.27-.698-3.736-2.848c.112-.237.303-.566.58-.993.262-.421.578-.895.933-1.408.25-.408.527-.822.823-1.224.309-.408.585-.796.842-1.164.315-.46.664-.96 1.039-1.493.362-.54.71-1.026 1.033-1.487l1.158-1.67 2.197-3.152 1.42-2.046 3.29-4.5 3.164-4.281c.223-.316.355-.658.375-.994a2.962 2.962 0 0 0-.073-1 2.784 2.784 0 0 0-.348-.664 5.34 5.34 0 0 0-.454-.566M17.447 72.98c-.474-.237-1.007-.388-1.592-.48-.822-.04-1.487.078-1.974.355-.506.29-.894.612-1.164.947a3.422 3.422 0 0 0-.645 1.401c-.17.855-.125 1.54.145 2.033.303.52.651.927 1.053 1.204.454.322 1.013.552 1.657.684.316.112.638.131.967.066.014.013.98-.198.98-.198-.007 0 .987-.447.987-.447.415-.46.763-.908.994-1.322.21-.388.342-.71.374-.96.06-.31.06-.566 0-.777-.105-.684-.328-1.217-.67-1.618a4.586 4.586 0 0 0-.77-.69 1.828 1.828 0 0 0-.342-.198zm4.118-4.079c.894.698 1.598 1.717 2.15 3.06.034.052.12.223.264.46.145.243.263.611.362 1.105.112.5.17 1.105.19 1.835.007.724-.065 1.618-.25 2.651-.46.79-.848 1.414-1.144 1.901-.296.494-.546.862-.743 1.145-.204.296-.382.5-.54.618l-1.611 1.743c-.33.171-.658.342-1 .513-.31.145-.645.31-1.033.46-.375.165-.77.303-1.158.428a8.924 8.924 0 0 1-2.052.007c-.619-.053-1.296-.184-2.013-.355a7.292 7.292 0 0 1-2.151-.94c-.507-.284-.98-.606-1.44-.948a8.94 8.94 0 0 1-1.093-1.04 3.414 3.414 0 0 1-.737-1.282 7.737 7.737 0 0 1-.677-1.29 11.807 11.807 0 0 1-.401-1.38 5.336 5.336 0 0 1-.1-1.665 18.34 18.34 0 0 1 .58-2.408c.177-.651.414-1.302.743-1.96.322-.658.704-1.171 1.145-1.52.098-.144.309-.408.598-.79.31-.367.744-.756 1.31-1.157.565-.395 1.25-.737 2.052-1.02.796-.289 1.743-.4 2.828-.335 1.125.04 2.21.25 3.243.599.902.329 1.79.861 2.678 1.565M39.24 56.074a1.485 1.485 0 0 0-.25-.237 2.893 2.893 0 0 0-.809-.296.812.812 0 0 1-.401-.138.99.99 0 0 0-.467-.158c-.237.04-.447.06-.618.066a2.649 2.649 0 0 0-.665.131 2.425 2.425 0 0 0-.44.336c-.244.19-.389.329-.461.427l-.46.665-.862 1.243-.533.75-4.848-3.296-3.25-2.256a13.895 13.895 0 0 0-1.23-.783 2.832 2.832 0 0 0-1.27-.388c-.67-.06-1.21.079-1.638.44-.184.034-.328.126-.4.277a12.1 12.1 0 0 1-.323.493c-.184.257-.704 1.158-.73 1.474-.033.316-.02.585.046.796.046.164.158.349.296.52.164.177.302.329.427.453.152.132.33.277.527.415l.657.513 4.322 3.013 4.96 3.447 5.861 4.137 5.125 3.671 1.072.836.546-.237 1.033-5.5-.48-.493-3.454-2.348-2.197-1.592.895-1.29.605-.875.395-.75c.085-.19.144-.388.17-.611.04-.178.06-.362.073-.56.007-.203 0-.394-.04-.591-.092-.342-.302-.685-.638-1.033a5.075 5.075 0 0 1-.546-.671M83.663 5.738c-.178-.244-.355-.494-.54-.71a5.449 5.449 0 0 0-.65-.639 2.383 2.383 0 0 0-.942-.362c-.17-.026-.335-.046-.467-.072l-1.434.388-5.558 4.618-1.658 1.368-2.25 1.862c-.046.04-2.578 2.026-2.69 2.164l-.369-.368c-.065-.073-.809-.974-1.144-1.342-.329-.362-.822-.777-1.151-.856-.237-.032-.553-.157-.757-.118l-.763.151-1.118.527-1.138.848c-.165.132-.303.27-.415.408-.256.303-.414.553-.46.724a1.768 1.768 0 0 0-.19.986c.065.5.65 1.33.723 1.415l.237.362 1.19 1.506.132.151-4.388 3.638-2.631 2.184c-.237.138-4.532 3.67-4.532 3.67l.388 2.441 1.217 2.802.874-.059 6.802-5.591 8.118-6.67s15.728-12.868 15.88-13.21c.092-.296.131-.638.125-1-.02-.381-.158-.776-.441-1.216M67.23-8.833c-.861-.19-1.539-.105-2.019.302l-1.276 1.119-.171 1.52.348 1.282 1.895 2.48 1.026 1.237-9.84 8.23L44.397 17.9l-.303.638.092 1.046.487 1.374.605 1.994 1.033.454 3.677-3.349L70.322 3.415 74.348.08l.125-1.098-2.572-3.112-3.02-3.644c-.48-.566-1.026-.921-1.65-1.06M84.564 12.079c-.875-.21-1.546-.118-2.026.283l-1.283 1.125-.158 1.526.362 1.296 1.908 2.493 1.04 1.256L61.77 38.852l-.204 1.684.493 1.395.612 2 1.046.467 3.677-3.342 5.447-4.473 5.782-4.737L82.9 28.42l4.828-4.006 4.02-3.335.13-1.092-2.61-3.164-3.053-3.67c-.474-.573-1.026-.941-1.651-1.073M121.547-14.72a5.715 5.715 0 0 0-1.132-1.25c-.69-.48-1.335-.744-1.914-.75-.586-.02-1.099.04-1.526.197a3.48 3.48 0 0 0-1.303.875c-.612.645-.94 1.263-.967 1.855-.013.612.073 1.158.263 1.605.23.507.592 1.013 1.092 1.487.21.256.48.447.81.585l.96.342 1.085.145c.619-.184 1.158-.395 1.579-.632.395-.217.684-.44.835-.631.224-.237.362-.467.421-.664.277-.658.369-1.244.277-1.783a4.561 4.561 0 0 0-.296-1.013c-.06-.132-.112-.25-.184-.369zm5.762-1.323c.395 1.092.474 2.355.237 3.816 0 .078-.013.25-.013.532-.013.283-.106.678-.283 1.171-.178.467-.454 1.04-.816 1.684-.381.645-.92 1.382-1.651 2.19-.816.422-1.5.77-2.02 1.034-.513.263-.934.46-1.243.598-.335.145-.605.23-.802.244l-2.336.644c-.375-.02-.75-.04-1.15-.098a9.358 9.358 0 0 1-1.132-.132c-.421-.06-.836-.151-1.257-.263a8.484 8.484 0 0 1-1.776-1.079c-.513-.381-1.026-.862-1.565-1.408-.553-.532-.994-1.19-1.362-1.953-.29-.533-.546-1.06-.75-1.612a8.518 8.518 0 0 1-.401-1.467 3.746 3.746 0 0 1 .052-1.533c-.013-.48.027-.973.112-1.467.073-.434.21-.907.388-1.427a5.58 5.58 0 0 1 .803-1.506 22.782 22.782 0 0 1 1.79-1.777c.506-.473 1.058-.907 1.703-1.309.625-.4 1.23-.631 1.796-.703.17-.066.486-.191.967-.356.447-.177 1.039-.27 1.743-.315a9.008 9.008 0 0 1 2.335.21c.849.178 1.73.592 2.638 1.217a11.5 11.5 0 0 1 2.506 2.276c.605.75 1.092 1.69 1.487 2.79M135.052-7.267c-.08-.336-.178-.546-.296-.652a3.303 3.303 0 0 1-.461-.46c-.224-.237-.44-.401-.658-.494-.21-.085-.394-.125-.579-.105-.17.02-.342.053-.506.105-.158.06-.296.1-.408.152l-1.046.46c-.48.237-1.026.487-1.631.737-.625.25-1.244.513-1.869.783a13.93 13.93 0 0 1-1.02.414c-.328.119-.604.224-.841.33-.283.13-.526.236-.73.321l-2.572 1.23-3.73 1.52-1.605.625-1.83.724-2.012.881-.506.342-.191 5.315.829.415L116.034 4l1.645-.717 2.144-1.007 1.67-.73.139.303 1.493 4.184.77.703 4.295-3.519.027-1-1.072-2.993 1.907-.704 3.217-1.453 1.48-.639c.204-.092.408-.217.638-.342.178-.164.349-.315.513-.473.158-.165.29-.421.388-.75.08-.27.08-.592.014-.98a11.834 11.834 0 0 0-.25-1.151M132.203-43.23c-.783-.415-1.447-.52-2.02-.277l-1.532.737-.592 1.408-.026 1.329 1.131 2.914.645 1.48-23.09 10.13-3.874 1.632-.467.532-.204 1.027.092 1.46.026 2.079.869.723 4.453-2.217 6.486-2.756 22.465-9.65.427-1.026-1.612-3.704-1.887-4.341c-.297-.678-.724-1.178-1.29-1.48M148.083-19.338c0-.073-.026-.171-.092-.323-.066-.131-.217-.309-.467-.533-.099-.059-.178-.177-.25-.322a1.029 1.029 0 0 0-.323-.349c-.21-.092-.407-.17-.546-.25a2.453 2.453 0 0 0-.631-.223c-.066-.013-.257.013-.56.059-.308.04-.506.079-.61.132l-.75.315-1.389.612-.862.368-1.677-3.716-1.526-3.506a13.48 13.48 0 0 0-.619-1.27 2.933 2.933 0 0 0-.855-.94c-.533-.389-1.078-.547-1.624-.448-.185-.066-.343-.06-.494.026a6.766 6.766 0 0 1-.533.263c-.283.125-1.006.52-1.21.764-.197.25-.31.48-.382.697-.046.17-.059.355-.02.585.034.224.066.415.113.573.046.203.131.407.223.618l.283.763 2.02 4.657 2.335 5.355 2.717 6.38 2.361 5.625.454 1.23.579.073 3.638-4-.152-.645-1.644-3.67-1.553-3.677 1.46-.632.974-.427.724-.454c.17-.106.322-.264.46-.421a3.42 3.42 0 0 0 .375-.435c.112-.164.204-.328.29-.513.092-.322.098-.73.013-1.17-.092-.461-.237-1-.25-1.171M253.67-30.745c-.277-1.849-1.902-3.434-1.915-3.454-1.934-1.394-4.203-1.124-4.223-1.124-1.993.796-2.842 2.716-2.855 2.736-.21.362-.342.803-.408 1.257-.145 1.013.046 2.157.447 2.907.053.079 1.415 1.914 1.415 1.914.401.382 1.848.777 2.355.888l.085.02.066.053c.329.29 2.033-.323 3.368-1.046 1.085-.83 1.487-2.849 1.625-3.763.026-.21.033-.329.04-.388zm5.512 4.328c-.08.204-1.546 3.69-3.908 4.96-.434.29-2.65 1.684-3.848 1.52-.296.23-.993.447-3.276.053l-.033-.014c-.9-.256-5.38-1.618-6.065-2.697-.052-.046-2.486-2.585-3.177-4.585-.013-.026-1.006-1.98-.553-5.124.033-.23.08-.474.125-.724.073-.21 1.23-4.269 3.086-5.275.15-.165 1.782-1.888 4.69-2.553.309-.237 1.302-.809 3.809-.579.164.046 3.085.842 5.085 2.138.118.086 2.848 1.869 3.914 4.908.105.204 1.144 2.065.611 5.788a18.144 18.144 0 0 1-.46 2.184M279.897-26.581c.026-.138-.06-1.967-.165-2.263-.04-.099-.566-.704-.776-.875-.053-.04-.217-.118-.507-.23-.27-.118-1.394-.316-1.394-.316l-1.507-.204-.927-.118.375-3.131.158-1.816c.072-.46.02-.375.033-.796.02-.401-.323-.895-.514-1.256-.256-.566-.578-.941-1.085-1.132-.131-.151-1.434-.454-1.737-.342-.302.099-.592.138-.743.263-.131.112-.927.823-.98.967a4.912 4.912 0 0 0-.132.592l-.079.474-.322 2.967-.73 5.328-.921 6.335-.835 5.565-.237 1.184.46.342 5.164-1.362.197-.578.461-3.69.579-3.856 1.572.217 1.053.139h.855c.197 0 .401-.04.618-.106.178-.04.349-.085.533-.151.17-.072.96-.783 1.118-1.177.165-.395.395-.83.415-.974M267.207-51.032c-.52-1.072-1.743-1.875-1.802-1.908-.362-.25-1.618-.559-1.954-.52.007.007-.092.014-.092.014-.362.04-1.434.177-2.098.54-.665.335-1.296 1.045-1.382 1.308-.013.007-.06.132-.06.132-.177.401-.604 1.315-.63 2.309-.008.427.111 1.855.73 2.69.611.842 1.644 1.23 1.973 1.349l.086.04.703.21.257.052c.132.04 1.658.138 2.73-.585.612-.408 1.796-1.579 1.901-3.006.053-.83.053-1.803-.362-2.625zm4.763 7.065c-1.092 1.9-2.987 3.27-3.17 3.374-.159.106-1.165.842-2.553 1.046-1.48.204-3.29.132-3.414.119-.007.02-1.27-.158-2.329-.441-.763-.204-1.5-.651-1.927-.79-.244-.124-1.717-.96-2.757-2.071-1.032-1.073-1.618-2.415-1.723-2.632a5.2 5.2 0 0 1-.349-1.585 8.317 8.317 0 0 1-.112-1.066c-.02-.381-.007-.855.014-1.434.013-.572.158-1.204.236-2.059.093-.408.264-1.085.448-1.546.177-.388.316-.67.605-1.184.29-.506.697-1.065 1.21-1.644.237-.257.46-.5.717-.737.217-.23.895-1.046 2.19-1.526 1.62-.619 4.02-.875 5.632-.56 1.44.284 3.388.816 4.769 1.85 1.467 1.085 2.316 2.657 2.546 2.94.427.546.684 1.052.783 1.52.164.716.302 1.427.375 2.137.065.605.111 1.23.111 1.895-.013.322-.27 2.618-1.302 4.394M211.497-36.126a9.296 9.296 0 0 0-.053-.756c-.04-.257-.099-.5-.204-.744-.112-.25-.322-.48-.592-.677-.125-.106-.25-.185-.342-.257l-1.401-.335s-15.459 2.032-15.623 2.085l-.106-.428c-.013-.079-.092-.644-.164-1.065-.079-.415-.25-.915-.493-1.112-.171-.125-.31-.303-.395-.303l-.31-.21-.808-.224-.81-.013-1.328.099c-.21.026-.454.125-.625.17a2.242 2.242 0 0 0-.73.356 2.875 2.875 0 0 0-.81.704c-.164.197-.25.368-.296.52-.065.184-.065.552-.04.723l.06.395.073 1.184.02.184-5.638.77-3.388.46c-.276-.007-5.789.737-5.789.737l-1.006 1.947-.507 2.598.632.586 19.28-2.802s20.15-2.638 20.465-2.829c.243-.178.454-.401.645-.684.197-.27.283-.638.283-1.079M210.997-24.259a3.487 3.487 0 0 0-.349-.349 5.527 5.527 0 0 0-.388-.236 2.161 2.161 0 0 0-.474-.191c-.243-.02-.5-.013-.796.04-.29.058-.467.091-.52.098l-1.591.217c-.415.066-.882.145-1.375.243l-2.474.382-3.243.651.356-.197 2.17-1.31 5.23-3.301c.197-.033.368-.158.513-.395.132-.23.237-.474.316-.757.079-.263.125-.526.178-.796.032-.263.026-.44-.02-.532-.105-.408-.27-.737-.474-.98a2.552 2.552 0 0 0-.631-.58 2.46 2.46 0 0 0-.612-.276c-.197-.052-.31-.085-.375-.079a1.594 1.594 0 0 0-.664.046 5.932 5.932 0 0 0-.75.257 5.489 5.489 0 0 0-.849.362l-2.072 1.348-2.829 1.842-2.23 1.579-2.861 1.908-2.868 2.098-2.579-1.02-2.71-1.039-2.362-.796-4.683-1.414-2.197-.71-1.428-.152-1.125.493a1.723 1.723 0 0 0-.506.599c-.119.25-.21.507-.296.77-.073.315-.138.605-.217.92l.381 1.211 1.224.526 1.532.56 2.217.578 1.914.612 2.21.52 1.073.302-4.717.52-4.117.513-.619.421-.414 1.033-.375 1.388-.395 1.776.651.408 2.967-.474 7.637-1.04 7.098-.973s19.202-2.624 19.34-2.75c.132-.138.257-.276.355-.414.08-.184.171-.375.257-.579l.092-1.532-.526-1.349M191.571-49.315c-.105-.454-.329-1.5-.967-2.21-.743-.81-2.032-1.21-2.092-1.23-.381-.119-1.585-.066-1.861.052l-.099.04c-.296.138-1.217.52-1.723.993-.5.467-.862 1.243-.895 1.5l-.013.131c-.066.395-.197 1.31.033 2.178.092.368.546 1.591 1.309 2.177.763.572 1.77.651 2.092.67l.105.014h.658l.256-.013c.119-.007 1.5-.303 2.27-1.197.427-.494 1.125-1.704.967-2.908-.013-.072-.02-.131-.04-.197zm5.072 2.776c-.513 1.94-1.855 3.624-1.973 3.762-.119.132-.823 1.027-2.02 1.553-1.256.56-2.881.954-3 .98 0 .02-1.17.178-2.203.204-.717.007-1.493-.19-1.908-.204-.23-.053-1.776-.414-2.98-1.118-1.197-.684-2.059-1.704-2.19-1.882a4.295 4.295 0 0 1-.717-1.309 9.312 9.312 0 0 1-.382-.9 35.429 35.429 0 0 1-.349-1.257c-.118-.5-.177-1.105-.315-1.875-.02-.368-.04-1 .02-1.454.052-.395.111-.67.223-1.204.138-.52.362-1.105.671-1.75.138-.276.283-.545.447-.822.145-.263.54-1.144 1.566-1.914 1.29-.934 3.368-1.756 4.888-1.894 1.348-.119 3.216-.139 4.716.4 1.572.593 2.737 1.75 3.006 1.954.52.362.875.744 1.073 1.125.342.586.638 1.178.888 1.783.217.507.407 1.06.565 1.625.08.283.448 2.375-.026 4.197M319.247-12.425c.217-1.861-.934-3.809-.947-3.835-1.52-1.842-3.77-2.177-3.796-2.177-2.131.25-3.44 1.888-3.453 1.9-.31.29-.553.678-.73 1.1-.402.933-.5 2.098-.323 2.927.04.085.875 2.217.875 2.217.31.473 1.579 1.23 2.053 1.473l.078.04.04.065c.243.362 2.052.217 3.52-.138 1.256-.513 2.183-2.368 2.558-3.21.073-.197.112-.296.125-.362zm4.204 5.592c-.132.197-2.44 3.19-5.066 3.795-.486.158-2.98.928-4.11.474-.33.131-1.053.17-3.172-.81l-.04-.006c-.782-.493-4.768-2.98-5.137-4.197-.04-.065-1.736-3.137-1.874-5.25-.014-.032-.467-2.176.796-5.084.072-.217.19-.447.309-.678.112-.19 2.296-3.802 4.354-4.289.178-.125 2.21-1.355 5.178-1.243.361-.158 1.473-.447 3.815.421.164.092 2.776 1.625 4.368 3.388.092.112 2.263 2.533 2.506 5.756.066.23.566 2.29-.914 5.75a18.24 18.24 0 0 1-1.013 1.973M349.684-25.903c.178-.264.35-.625.527-1.06.079-.23.217-1.039.118-1.65-.079-.547-.427-.882-.473-1.033-.158-.303-31.813-13.933-31.813-13.933l-1.032.71-.823 1.684-4.236 9.13.46.764 5.283-.27.631-.414 2.04-4.223c.256.065.618.177 1.092.348.46.191.993.408 1.565.652.454.15.914.342 1.362.552.467.217.901.421 1.315.599.514.223 1.066.454 1.671.71.573.257 1.151.5 1.665.717l1.855.803 3.532 1.52 2.296.98 5.078 2.308 4.815 2.25c.362.151.71.217 1.06.171.342-.06.664-.138.973-.276.204-.132.388-.296.553-.474a5.01 5.01 0 0 0 .486-.565M344.494-14.885l.487-1.579-.204-1.105-.73-.974-1.263-.763-1.552.171-.987 1.316-2.25 5.21-1.52-.645-1.039-.486-1.822-.744-.822-.066-1.276 1.5-1.757 2.474.349.809 3.815 1.552 1.796.816-1.684 3.861-.638-.204-2.125-.96-1.592-.75-.809.086-2.802 3.94.223.809 2.158.776 2.467.98 1.066.58-.48 1.111-1.375 3.144.414.704 4.559-.046.592-.697L336.943 3l2.427-5.71 3.157-7.374 1.967-4.802M407.44 21.36l-.183-1.328s-1.96-1.54-2.29-1.809c-.315-.27-8.762-6.822-8.762-6.822l-.894-.789 4.565-5.841.25-1.349-.224-1.04-.605-.98c-.118-.085-.743-.703-.862-.789-.111-.092-1.006-.302-1.157-.342-.1-.026-.487-.151-.934-.099-.369.046-.796.23-.948.35-.309.269-2.348 2.887-2.513 3.097-.111.139-.263.336-.473.606-.21.263-1.816 2.23-1.967 2.414l-1.125-.816-11.795-9.13-.565.006-3.993 2.842-.06.763 31.378 24.306 1.553-.368 1.46-1.5.145-1.381M396.133 32.938l4.079-5.36.513-1.514-.323-1.473-1.105-1.23-2.085-.31-1.763 1.619-3.296 4.196-4.526 5.96-2.394-1.835-3.197-2.533-2.585-2.138-6.427-4.913-5.302-4.125-4.243-3.42-.81.006-4.064 2.401v.638l29.003 22.82 1.532-.053 1.704-2.164 5.289-6.572M457.244 73.795c.29-.138.619-.348 1.007-.638.19-.144.73-.776.954-1.342.21-.526.092-.967.118-1.138.033-.348-20.175-28.575-20.175-28.575l-1.25.066-1.579 1.026-8.36 5.624v.895l4.676 2.486.75-.02 3.927-2.558c.198.177.448.467.757.868.31.401.645.849 1.013 1.355.303.368.592.763.881 1.19.277.415.553.81.81 1.178.328.46.69.954 1.065 1.48.375.52.724 1.007 1.053 1.46l1.19 1.652 2.237 3.131 1.44 2.02 3.145 4.61 3.131 4.632c.237.316.507.54.816.67.316.152.638.238.967.277.25-.007.493-.046.737-.105.223-.073.467-.145.69-.244" style="fill:#004655;fill-opacity:1;fill-rule:nonzero;stroke:none;stroke-width:.657818" transform="matrix(1.33333 0 0 -1.33333 100.273 684.815)"/><path d="m440.194 71.73.44-1.19-.868-1.586-1.217-1.704-1.9-2.828-1.29-1.691 1.526-1.099 1.756-1.342.29-1.342-.46-1.506c-.113-.105-.803-.967-.915-1.026a1.29 1.29 0 0 1-.336-.197.86.86 0 0 0-.296-.171c-.125-.027-.315-.145-.618-.139-.243 0-.605.125-.678.165-.197.072-.414.17-.664.283-.283.125-.572.27-.868.447l-1.743 1.184-.31.23-2.02-2.888-1.617-2.183-1.888-2.546-.717-.198-1.947.244-2.573.704-.355.907 2.447 2.96 2.355 3.086 1.632 2.177 3.361 4.894 2.131 3.151 1.625 2.19 1.658 2.23 1.125.343 1.79-.454 1.144-1.105M424.511 71.013l.349-1.145c-.013 0 .026-1.21.026-1.21-.072-.54-.217-1.04-.454-1.46l-.717-1.132-.65-.71s-.211-.185-.303-.263c-.48-.218-.941-.356-1.362-.395l-1.171-.026-1.118.21c-.323.06-.665.197-1 .434l-1.013.829-.842 1c-.224.335-.369.645-.434.954l-.033 1.736c0-.033.19.573.19.573l.33.743.289.684.158.342c.236.277.532.526.855.737l.98.546 1.131.388c.408.053.862.02 1.33-.145l1.328-.572s1.316-.895 1.349-.908c.374-.414.644-.822.782-1.21zm-.697 7.644c-.67.217-1.342.394-2.006.5-.58.118-1.204.197-1.869.243a5.995 5.995 0 0 1-1.855-.158c-.684-.131-1.348-.362-2.045-.684a12.597 12.597 0 0 1-1.875-1.151c-.684-.487-1.316-1.164-1.901-2.026-.106-.145-.283-.46-.54-.967a23.344 23.344 0 0 1-.71-1.605 15.308 15.308 0 0 1-.553-1.717c-.144-.58-.184-1-.118-1.27.046-.618.112-1.23.21-1.855.086-.526.191-1.079.342-1.644a8.415 8.415 0 0 1 .553-1.527c.145-.434.382-.888.724-1.341.29-.395.677-.83 1.138-1.316.467-.48 1.046-.934 1.776-1.382a16.783 16.783 0 0 1 1.954-.907c.545-.21 1.157-.395 1.828-.533.658-.145 1.257-.158 1.803-.04a7.98 7.98 0 0 1 2.177.362c.651.204 1.368.526 2.17.98.803.454 1.62 1.158 2.461 2.086a9.535 9.535 0 0 1 1.046 1.624c.27.494.533 1.04.79 1.632.256.585.427 1.177.526 1.77.046.591.072 1.203.085 1.861-.026.54-.099 1.151-.21 1.822-.106.69-.349 1.355-.684 2.02a8.263 8.263 0 0 1-.908 1.697c-.369.467-.895 1.02-1.586 1.65-.69.626-1.592 1.244-2.723 1.876M448.962 79.176l1.25-1.111.408-1.066-.131-1.224-.678-1.348-1.493-.625-1.48.52-8.973 6.413-2.21-3.012-.619-.27-1.611.48-2.993 1.033-.198.868 2.06 2.934.96 1.342-.638.46-3.54 2.54-1.38.927-3.908 2.796-.06.868 3.974 2.395.888-.303 3.059-2.138 5.098-3.71 6.61-4.697 5.605-4.072M-35.06 230.975l-.638-8.006-5.96.46 1.815 22.932 5.967-.467-.651-8.144 25.43-1.973-.539-6.776-25.424 1.974M-37.494 260.655l11.854-2.361 2.19 10.906-11.847 2.369 1.322 6.604 30.852-6.157-1.329-6.605-12.906 2.579-2.197-10.913 12.912-2.579-1.335-6.644-30.852 6.157 1.336 6.644M-8.419 299.111l-3.44-10.452 7.098-2.329 3.835 11.676 5.545-1.822-5.953-18.123-29.904 9.808 5.769 17.538 5.545-1.822-3.644-11.085 6.21-2.039 3.433 10.46 5.506-1.81M4.659 328.358l-6.789 1.388c-1.908.382-4.23.967-6.091 1.427l-.04-.078c1.46-1.244 3.381-2.73 4.783-3.987l5.13-4.624zm1.283-9.17 6.23-5.572-3.198-6.23-23.852 22.465 4.039 7.887 32.226-6.09-3.309-6.474-8.242 1.632-3.894-7.618M34.655 353.131c-.151-1.394-1.079-4.124-3.091-7.15-5.73-8.578-14.354-9.223-21.814-4.25-8.933 5.954-9.874 15.314-4.854 22.827 1.94 2.914 4.032 4.71 5.249 5.341l3.934-4.276c-1.27-.809-2.79-2.078-4.118-4.072-2.98-4.453-2.447-9.808 3.374-13.695 5.243-3.493 10.512-2.75 13.86 2.263 1.132 1.69 1.994 3.835 2.264 5.249l5.196-2.237M38.036 376.708l-6.269 2.947c-1.769.815-3.88 1.94-5.584 2.828l-.053-.072c1.125-1.56 2.631-3.447 3.69-5.006l3.895-5.71zm-.934-9.23 4.717-6.894-4.578-5.315-17.84 27.497 5.801 6.723 29.879-13.538-4.763-5.519-7.618 3.54-5.598-6.494M59.633 387.542c.52.283 1.217.901 1.848 1.467 4.585 4.045 5.197 9.36.184 14.972-4.322 4.9-9.334 5.052-13.663 1.17-1.118-1.006-1.756-1.762-2.091-2.25zm-22.169 14.63c1.572 1.967 3.829 4.302 6.368 6.585 4.23 3.789 7.683 5.446 11.36 5.663 3.928.263 7.967-1.328 11.664-5.473 4.012-4.493 5.236-8.985 4.802-12.82-.514-4.158-3.21-8.335-7.565-12.243-2.612-2.341-4.618-3.821-6.026-4.775l-20.603 23.063M88.695 420.472l-9.005-6.321 4.289-6.118 10.064 7.058 3.355-4.782-15.63-10.96-18.063 25.774 15.11 10.61 3.355-4.782-9.559-6.703 3.75-5.354 9.012 6.321 3.322-4.743M118.415 435.556c-1.855 3.296-4.078 7.302-6.19 11.36l-.118-.059a176.84 176.84 0 0 0 2.657-12.347l2.421-12.57-4.683-2.428-8.414 9.308c-2.585 2.868-5.552 6.38-8.071 9.703l-.08-.04c1.797-3.854 3.915-8.229 5.52-11.814l5.026-10.854-5.546-2.875-12.788 28.82 7.986 4.137 7.433-7.986c2.48-2.763 5.131-5.861 7.42-8.828l.119.06c-.928 3.624-1.934 7.781-2.684 11.334l-1.973 10.755 7.828 4.052 15.932-27.181-5.861-3.04-5.934 10.493M142.103 432.24l-4.262 12.164-15.064 14.42 7.282 2.545 5.394-6.124c1.638-1.856 2.782-3.237 4.17-4.92l.08.025c-.02 2.072.045 4.026.144 6.434l.335 8.137 7.164 2.506-3.217-20.576 4.342-12.38-6.368-2.23M173.264 457.336c1.033-6.078 4.473-9.906 8.933-9.15 4.513.77 6.329 5.723 5.302 11.755-.953 5.579-4.295 9.94-8.9 9.157-4.5-.763-6.361-5.73-5.335-11.762zm21.241 4.033c1.73-10.183-3.085-17.347-11.709-18.814-8.749-1.486-15.05 4.605-16.557 13.446-1.58 9.308 2.88 17.222 11.59 18.702 9.059 1.54 15.222-4.763 16.676-13.334M200.445 477.183l18.235.914.283-5.841-11.46-.566.356-7.19 10.716.533.276-5.789-10.703-.533.619-12.643-6.77-.342-1.552 31.457M238.21 477.663l6.67-.664-1.374-13.847.132-.014c.782 1.138 1.598 2.184 2.368 3.23l7.795 9.736 8.262-.822-11.176-12.354 8.59-19.024-7.86.79-5.94 14.248-2.895-3.04-1.013-10.229-6.67.671 3.112 31.319M270.213 457.593c-1.361-6.02.362-10.854 4.77-11.854 4.453-1 8.018 2.894 9.374 8.86 1.256 5.513-.185 10.815-4.724 11.842-4.453 1.006-8.064-2.882-9.42-8.848zm21.162-4.335c-2.282-10.065-9.472-14.867-17.984-12.953-8.657 1.948-12.157 9.966-10.17 18.715 2.085 9.21 9.229 14.834 17.84 12.894 8.953-2.013 12.242-10.177 10.314-18.656M304.598 450.12l2.5-.908c3.163-1.15 5.643-.164 6.584 2.421.987 2.717-.27 4.717-3.164 5.822-1.54.559-2.467.75-2.954.822zm-1.665 15.012c2.171-.395 5.302-1.237 8.677-2.467 4.17-1.513 6.841-3.23 8.236-5.625 1.158-2.013 1.322-4.407.335-7.124-1.375-3.776-4.854-5.44-7.604-5.48l-.053-.131c1.658-1.546 2.02-3.914 1.737-6.887-.335-3.658-.862-7.835-.737-9.17l-6.499 2.361c-.145 1.046.06 3.658.546 7.605.592 3.953-.25 5.4-2.815 6.387l-1.921.697-4.23-11.623-6.289 2.289 10.617 29.168M339.166 430.438l-9.86 4.875-3.31-6.697 11.006-5.447-2.579-5.236-17.097 8.46 13.94 28.213 16.537-8.183-2.592-5.236-10.446 5.177-2.894-5.861 9.854-4.881-2.559-5.184M358.256 418.907l2.059 6.61c.572 1.856 1.394 4.106 2.04 5.908l-.073.046c-1.395-1.322-3.06-3.079-4.46-4.342l-5.118-4.63zm-9.262-.342-6.19-5.618-5.875 3.809 24.78 21.418 7.447-4.815-9.328-31.417-6.111 3.946 2.454 8.026-7.177 4.65M363.295 399.251l20.36 24.017 6.025-5.111-2.73-12.821c-.79-3.677-1.98-7.815-3.256-11.387l.105-.085c2.348 3.453 4.993 6.782 8.078 10.42l5.92 6.985 4.737-4.019-20.36-24.017-5.42 4.592 2.986 13.4c.822 3.716 1.96 8.078 3.237 11.834l-.132.052a318.119 318.119 0 0 0-8.683-10.643l-6.131-7.236-4.736 4.019M398.705 376.668c.447-2.02 1.526-4.789 3.401-6.98 2.026-2.36 4.125-2.723 5.677-1.387 1.493 1.276 1.414 3.091.105 6.703-1.855 4.96-1.77 9.308 1.704 12.288 4.072 3.5 9.966 2.94 14.558-2.427 2.197-2.56 3.256-4.934 3.775-6.835l-5.348-2.592a13.75 13.75 0 0 1-2.94 5.73c-1.908 2.223-3.894 2.394-5.131 1.328-1.526-1.309-1.099-3.17.243-7.11 1.882-5.349 1.303-9.125-2.065-12.012-4-3.434-9.953-3.454-15.301 2.789-2.23 2.598-3.677 5.795-4.033 7.716l5.355 2.79M432.82 363.157l-4.566 6.61 4.927 3.395 13.051-18.925-4.92-3.395-4.638 6.723-20.99-14.472-3.855 5.592 20.99 14.472M453.462 341.672l-16.05-8.446c-4.796-2.533-6.33-5.546-4.717-8.604 1.65-3.138 4.88-3.645 9.808-1.053l16.037 8.453 3.151-5.966-15.636-8.236c-8.604-4.533-14.867-2.566-18.511 4.341-3.513 6.67-1.69 12.644 7.203 17.327l15.544 8.19 3.17-6.006M443.746 301.144c.072-.592.395-1.46.677-2.25 2.066-5.769 6.77-8.295 13.834-5.71 6.158 2.204 8.15 6.809 6.151 12.269-.52 1.414-.987 2.282-1.316 2.776zm21.787 15.209c1.256-2.19 2.585-5.15 3.763-8.361 1.953-5.328 2.21-9.157 1.052-12.65-1.217-3.75-4.184-6.914-9.4-8.828-5.657-2.072-10.282-1.546-13.69.283-3.663 2.006-6.545 6.059-8.558 11.551-1.203 3.296-1.841 5.71-2.203 7.374l29.036 10.63M478.564 277.417l-30.444-7.914-1.71 6.572 30.45 7.913 1.704-6.571M465.849 248.387l-1.915 10.828-7.354-1.303 2.138-12.09-5.743-1.02-3.328 18.774 30.99 5.48 3.216-18.163-5.743-1.02-2.039 11.486-6.433-1.138 1.92-10.828-5.71-1.006M460.856 240.112c-.855-1.882-1.632-4.743-1.434-7.618.217-3.098 1.684-4.644 3.73-4.493 1.96.138 2.973 1.632 4.071 5.315 1.474 5.085 4.132 8.526 8.697 8.848 5.354.382 9.749-3.578 10.242-10.617.237-3.362-.335-5.894-1.046-7.73l-5.835 1.1a13.629 13.629 0 0 1 1.053 6.347c-.204 2.927-1.697 4.243-3.329 4.125-2.006-.139-2.77-1.888-4.039-5.848-1.677-5.414-4.394-8.098-8.815-8.414-5.262-.368-10.051 3.158-10.63 11.347-.237 3.408.5 6.842 1.362 8.591l5.973-.953" style="fill:#004655;fill-opacity:1;fill-rule:nonzero;stroke:none;stroke-width:.657818" transform="matrix(1.33333 0 0 -1.33333 100.273 684.815)"/></svg>