<svg xmlns="http://www.w3.org/2000/svg" xml:space="preserve" width="371.13922" height="68.588188" viewBox="0 0 371.13922 68.588187"><defs><radialGradient id="a" cx="0" cy="0" r="1" fx="0" fy="0" gradientTransform="matrix(46.143 0 0 -46.143 228.89 217.294)" gradientUnits="userSpaceOnUse" spreadMethod="pad"><stop offset="0" style="stop-opacity:1;stop-color:#f7905b"/><stop offset="0.376404" style="stop-opacity:1;stop-color:#f1471d"/><stop offset="0.66898799" style="stop-opacity:1;stop-color:#d91920"/><stop offset="0.730337" style="stop-opacity:1;stop-color:#d91920"/><stop offset="1" style="stop-opacity:1;stop-color:#b3161c"/></radialGradient><linearGradient id="b" x1="0" x2="1" y1="0" y2="0" gradientTransform="scale(34.0752 -34.0752) rotate(49.821 9.83 4.902)" gradientUnits="userSpaceOnUse" spreadMethod="pad"><stop offset="0" style="stop-opacity:1;stop-color:#fddd04"/><stop offset="1" style="stop-opacity:1;stop-color:#f68712"/></linearGradient></defs><path d="M307.854 175.509c2.654 0 3.639 2.359 3.639 4.697 0 2.285-1.06 4.623-3.64 4.623-2.581 0-3.638-2.338-3.638-4.623 0-2.338.985-4.697 3.639-4.697m0 11.362c4.064 0 6.348-2.747 6.348-6.665 0-3.917-2.246-6.738-6.348-6.738-4.158 0-6.35 2.766-6.35 6.738 0 3.973 2.23 6.665 6.35 6.665M324.943 186.649v-5.235h-5.195v5.235h-2.6v-12.105c.008-.3.084-.517.227-.65.15-.135.394-.2.74-.203h1.633v5.682h5.195v-4.94c.023-.242.096-.424.223-.54.148-.134.392-.198.738-.202h1.641v12.958zM330.899 186.649v-12.284c.029-.21.102-.366.215-.471.15-.135.394-.2.74-.203h1.645v12.958zM297.143 173.888c.246-.13.53-.187.854-.197h2.449l-5.55 6.85 5.329 6.108h-3.194l-4.678-5.57v5.57h-2.598V174.36c.028-.213.1-.372.215-.48.113-.101.28-.165.508-.19h1.875v6.015h.037l4.064-5.246c.23-.26.459-.451.689-.572" style="fill:#5a5758;fill-opacity:1;fill-rule:nonzero;stroke:none" transform="matrix(1.33333 0 0 -1.33333 -274.038 291.035)"/><path d="M224.128 207.335c-1.188-2.364-2.586-4.055-4.343-5.984-2.19-2.406-4.78-4.543-7.149-6.758-4.945-4.626-8.92-9.583-6.25-17.996 3.565-11.23 20.481-12.916 33.621-4.305 6.145 3.441 11.293 10.192 13.189 16.947 1.899 6.766-.011 14.957-3.463 20.898-2.88 4.956-7.222 8.115-12.955 8.139h-.061c-7.076 0-9.652-5.11-12.589-10.941" style="fill:url(#a);stroke:none" transform="matrix(1.33333 0 0 -1.33333 -274.038 291.035)"/><path d="M246.411 197.959c-2.556-3.05-3.656-9.517-2.863-13.293 1.097-5.196 4.422-9.662 9.155-12.089 5.968-3.057 12.326-3.445 17.291.824 6.8 5.856 1.781 12.44-3.592 16.423-2.352 1.749-3.273 4.875-4.817 7.441-.655 1.09-1.425 2.081-2.464 2.82-1.408 1.005-3.093 1.457-4.807 1.457-2.98.001-6.047-1.367-7.903-3.583" style="fill:url(#b);stroke:none" transform="matrix(1.33333 0 0 -1.33333 -274.038 291.035)"/><path d="M253.196 189.24c1.078 3.841.926 8.142-.037 12.23-2.596-.299-5.132-1.58-6.748-3.51-2.557-3.05-3.656-9.518-2.863-13.295a17.956 17.956 0 0 1 3.123-6.955c3.032 3.355 5.377 7.44 6.525 11.53" style="fill:#9f1318;fill-opacity:1;fill-rule:nonzero;stroke:none" transform="matrix(1.33333 0 0 -1.33333 -274.038 291.035)"/><path d="M337.477 186.178h.588v-2.015l1.753 2.015h.78l-1.928-2.165 2.082-2.414h-.858l-1.83 2.243v-2.243h-.587zM343.134 182.098c.946 0 1.352.879 1.352 1.79 0 .932-.447 1.798-1.352 1.79-.906.008-1.353-.858-1.353-1.79 0-.911.406-1.79 1.353-1.79m0 4.158c1.247 0 1.976-1.01 1.976-2.368 0-1.391-.724-2.368-1.976-2.368-1.253 0-1.976.977-1.976 2.368 0 1.358.73 2.368 1.976 2.368M346.498 184.209h.5c.558 0 .888.276.888.716 0 .413-.283.676-.824.676h-.564zm-.588 1.969h1.005c.812 0 1.594-.145 1.594-1.24a1.03 1.03 0 0 0-.847-1.043v-.013c.182-.079.271-.178.4-.46l.777-1.823h-.67l-.63 1.587c-.183.446-.377.446-.688.446h-.353v-2.033h-.588zM349.568 186.178h2.299v-.577h-1.711v-1.34h1.558v-.576h-1.558v-1.51h1.711v-.576h-2.299zM354.396 185.56l-.817-2.27h1.634zm-.288.618h.617l1.735-4.58h-.64l-.419 1.155h-2.01l-.418-1.154h-.617zM358.718 186.178h.588v-1.916h1.965v1.916h.588v-4.58h-.588v2.087h-1.965v-2.086h-.588zM366.129 183.494c0-1.285-.582-1.975-1.594-1.975-1.011 0-1.594.69-1.594 1.975v2.684h.588v-2.598c0-.879.247-1.482 1.006-1.482.758 0 1.005.603 1.005 1.482v2.598h.589zM367.187 186.178h.97l1.289-3.805 1.264 3.805h.97v-4.58h-.588v3.963h-.011l-1.36-3.962h-.576l-1.358 3.962h-.012v-3.962h-.588zM374.32 185.56l-.816-2.27h1.634zm-.287.618h.617l1.734-4.58h-.64l-.418 1.155h-2.011l-.418-1.154h-.617zM376.973 186.178h.8l1.811-3.687h.012v3.687h.588v-4.58h-.753l-1.859 3.767h-.01v-3.766h-.589zM383.412 184.209h.5c.56 0 .888.276.888.716 0 .413-.282.676-.823.676h-.565zm-.588 1.969h1.005c.812 0 1.594-.145 1.594-1.24a1.03 1.03 0 0 0-.846-1.043v-.013c.181-.079.27-.178.4-.46l.776-1.823h-.67l-.63 1.587c-.182.446-.377.446-.688.446h-.353v-2.033h-.588zM386.482 186.178h2.3v-.577h-1.712v-1.34h1.558v-.576h-1.558v-1.51h1.711v-.576h-2.299zM391.587 185.488c-.3.132-.464.19-.77.19-.33 0-.717-.13-.717-.61 0-.879 1.763-.675 1.763-2.184 0-.977-.676-1.365-1.5-1.365-.287 0-.57.092-.84.191l.059.61c.2-.092.553-.223.852-.223.336 0 .806.21.806.747 0 1.024-1.764.742-1.764 2.165 0 .814.577 1.247 1.318 1.247.27 0 .593-.052.875-.164zM394.427 182.098c.947 0 1.353.879 1.353 1.79 0 .932-.447 1.798-1.353 1.79-.905.008-1.352-.858-1.352-1.79 0-.911.406-1.79 1.352-1.79m0 4.158c1.247 0 1.976-1.01 1.976-2.368 0-1.391-.723-2.368-1.976-2.368-1.252 0-1.976.977-1.976 2.368 0 1.358.73 2.368 1.976 2.368M400.432 183.494c0-1.285-.582-1.975-1.594-1.975-1.01 0-1.594.69-1.594 1.975v2.684h.588v-2.598c0-.879.247-1.482 1.006-1.482.76 0 1.006.603 1.006 1.482v2.598h.588zM402.038 184.209h.5c.558 0 .888.276.888.716 0 .413-.283.676-.824.676h-.564zm-.588 1.969h1.006c.81 0 1.593-.145 1.593-1.24a1.03 1.03 0 0 0-.847-1.043v-.013c.182-.079.27-.178.4-.46l.777-1.823h-.671l-.63 1.587c-.182.446-.376.446-.687.446h-.353v-2.033h-.588zM407.913 185.423a1.52 1.52 0 0 1-.847.256c-.947 0-1.576-.761-1.576-1.791 0-1.075.694-1.79 1.547-1.79.294 0 .687.085.893.222l.035-.636c-.311-.144-.693-.164-.935-.164-1.3 0-2.164.93-2.164 2.387 0 1.41.918 2.349 2.17 2.349.318 0 .63-.052.924-.196zM408.7 181.599h2.3v.577h-1.711v1.509h1.558v.577h-1.558v1.339h1.71v.577h-2.298zM414.129 182.176h.617c1.01 0 1.57.545 1.57 1.726 0 1.069-.653 1.699-1.5 1.699h-.687zm-.588 4.002h1.21c1.218 0 2.189-.84 2.189-2.25 0-1.535-.835-2.33-2.188-2.33h-1.211zM417.851 186.178h2.3v-.577h-1.712v-1.34h1.558v-.576h-1.558v-1.51h1.711v-.576h-2.299zM424.455 186.178h-.617l-1.3-4.002h-.012l-1.264 4.002h-.658l1.546-4.58h.735zM425.043 186.178h2.3v-.577h-1.71v-1.34h1.557v-.576h-1.558v-1.51h1.711v-.576h-2.3zM428.278 186.178h.588v-4.002h1.718v-.577h-2.306zM432.99 182.098c.946 0 1.351.879 1.351 1.79 0 .932-.447 1.798-1.352 1.79-.906.008-1.353-.858-1.353-1.79 0-.911.406-1.79 1.353-1.79m0 4.158c1.246 0 1.976-1.01 1.976-2.368 0-1.391-.723-2.368-1.976-2.368-1.253 0-1.977.977-1.977 2.368 0 1.358.73 2.368 1.977 2.368M436.353 184.006h.582c.364 0 .823.203.823.807 0 .578-.541.788-.906.788h-.499zm-.588 2.172h1.076c.841 0 1.54-.328 1.54-1.371 0-1.017-.711-1.378-1.452-1.378h-.576v-1.83h-.588zM439.075 186.178h.97l1.29-3.805 1.263 3.805h.971v-4.58h-.588v3.963h-.012l-1.359-3.962h-.577l-1.358 3.962h-.01v-3.962h-.59zM444.651 186.178h2.299v-.577h-1.711v-1.34h1.558v-.576h-1.558v-1.51h1.711v-.576h-2.299zM447.886 186.178h.799l1.812-3.687h.012v3.687h.588v-4.58h-.753l-1.86 3.767h-.01v-3.766h-.588zM452.954 185.6h-1.276v.578h3.14v-.577h-1.276v-4.002h-.588zM457.042 181.599h.588v4.579h-.588zM458.671 186.178h.8l1.811-3.687h.012v3.687h.588v-4.58h-.753l-1.858 3.767h-.012v-3.766h-.588zM464.787 185.488c-.3.132-.464.19-.77.19-.33 0-.717-.13-.717-.61 0-.879 1.764-.675 1.764-2.184 0-.977-.677-1.365-1.5-1.365-.288 0-.57.092-.84.191l.058.61c.2-.092.553-.223.853-.223.335 0 .805.21.805.747 0 1.024-1.763.742-1.763 2.165 0 .814.576 1.247 1.317 1.247.27 0 .593-.052.876-.164zM466.68 185.6h-1.276v.578h3.14v-.577h-1.276v-4.002h-.588zM469.133 186.178h.588v-4.579h-.588zM471.585 181.599h.588v4.002h1.276v.577h-3.14v-.577h1.276zM477.23 183.494c0-1.285-.581-1.975-1.592-1.975-1.012 0-1.594.69-1.594 1.975v2.684h.588v-2.598c0-.879.247-1.482 1.006-1.482.758 0 1.005.603 1.005 1.482v2.598h.588zM479.102 185.6h-1.276v.578h3.139v-.577h-1.275v-4.002h-.588zM481.584 181.599h2.299v.577h-1.711v1.509h1.558v.577h-1.558v1.339h1.71v.577h-2.298zM337.412 178.177h2.181v-.577H338v-1.34h1.523v-.576H338v-2.086h-.588zM342.152 174.097c.946 0 1.353.879 1.353 1.79 0 .932-.447 1.798-1.353 1.79-.906.008-1.353-.858-1.353-1.79 0-.911.407-1.79 1.353-1.79m0 4.158c1.247 0 1.976-1.01 1.976-2.368 0-1.391-.724-2.368-1.976-2.368s-1.976.977-1.976 2.368c0 1.358.729 2.368 1.976 2.368M345.516 176.209h.5c.559 0 .888.275.888.715 0 .413-.282.676-.823.676h-.565zm-.588 1.968h1.005c.812 0 1.595-.145 1.595-1.241a1.03 1.03 0 0 0-.847-1.042v-.013c.18-.079.27-.178.4-.46l.776-1.823h-.671l-.63 1.588c-.181.445-.376.445-.687.445h-.353v-2.033h-.588zM350.22 178.177h.588v-1.916h1.966v1.916h.588v-4.58h-.588v2.087h-1.965v-2.086h-.588zM354.466 178.177h2.3v-.577h-1.71v-1.34h1.557v-.576h-1.558v-1.51h1.711v-.576h-2.3zM359.295 177.56l-.817-2.27h1.634zm-.288.617h.617l1.734-4.58h-.64l-.418 1.155h-2.01l-.419-1.154h-.617zM361.947 178.177h.589v-4.002h1.717v-.577h-2.306zM365.388 177.6h-1.276v.577h3.14v-.577h-1.276v-4.002h-.588zM367.87 178.177h.588v-1.916h1.964v1.916h.589v-4.58h-.59v2.087h-1.963v-2.086h-.588zM375.098 176.393c.247.13.617.413.617.8 0 .42-.206.564-.488.564-.271 0-.494-.197-.494-.591 0-.307.188-.557.365-.773m.018-2.375c.38 0 .629.275.758.439l-.988 1.292c-.311-.235-.577-.452-.577-.905a.8.8 0 0 1 .807-.826m1.893 2.054c-.053-.742-.236-1.168-.471-1.57l.718-.904h-.735l-.335.446c-.295-.374-.653-.525-1.176-.525-.812 0-1.324.512-1.324 1.279 0 .696.365 1.089.918 1.339-.218.295-.424.604-.424 1.043 0 .734.482 1.075 1.07 1.075.535 0 1.018-.314 1.018-1.036 0-.584-.465-.977-.9-1.194l.835-1.063c.159.283.224.584.253 1.11zM379.09 178.177h.647l.982-3.923h.012l.877 3.923h.835l.887-3.923h.012l.983 3.923h.623l-1.265-4.58h-.758l-.894 4.003h-.012l-.9-4.002h-.788zM385.513 178.177h2.299v-.577H386.1v-1.34h1.558v-.576H386.1v-1.51h1.71v-.576h-2.298zM388.747 173.598h2.305v.577h-1.717v4.002h-.588zM391.658 178.177h2.182v-.577h-1.593v-1.34h1.522v-.576h-1.522v-2.086h-.59zM396.005 177.56l-.817-2.27h1.634zm-.288.617h.617l1.735-4.58h-.641l-.418 1.155H395l-.418-1.154h-.617zM399.216 176.209h.5c.559 0 .888.275.888.715 0 .413-.282.676-.823.676h-.565zm-.588 1.968h1.005c.812 0 1.595-.145 1.595-1.241a1.03 1.03 0 0 0-.847-1.042v-.013c.182-.079.27-.178.4-.46l.776-1.823h-.67l-.63 1.588c-.182.445-.377.445-.688.445h-.353v-2.033h-.588zM402.286 178.177h2.299v-.577h-1.711v-1.34h1.558v-.576h-1.558v-1.51h1.71v-.576h-2.298zM302.994 204.65v-5.68a.736.736 0 0 0-.279-.593.975.975 0 0 0-.643-.231h-.777a.962.962 0 0 0-.655.23.75.75 0 0 0-.267.595v14.563c0 .225.09.42.267.582a.943.943 0 0 0 .655.243h.777a.956.956 0 0 0 .643-.243.751.751 0 0 0 .28-.582v-6.796h2.233a.953.953 0 0 0 .643-.243.747.747 0 0 0 .28-.582v-.438a.74.74 0 0 0-.28-.595.987.987 0 0 0-.643-.23zm.56-11.067a.738.738 0 0 0-.28-.595.981.981 0 0 0-.643-.231h-11.797a.972.972 0 0 0-.655.23.75.75 0 0 0-.267.596v4.684c0 .227.09.42.267.582a.939.939 0 0 0 .655.243h.826a.951.951 0 0 0 .643-.243.744.744 0 0 0 .28-.582v-3.398h10.048c.242 0 .457-.08.642-.242a.748.748 0 0 0 .28-.583zm-13.86 11.796c0-.745.23-1.384.692-1.917.461-.535 1.023-.802 1.686-.802.647 0 1.205.267 1.675.802.47.533.704 1.172.704 1.917a2.82 2.82 0 0 1-.704 1.905c-.47.542-1.028.812-1.675.812-.663 0-1.225-.27-1.686-.812a2.844 2.844 0 0 1-.692-1.905m5.85 7.256a.734.734 0 0 0-.28-.594.978.978 0 0 0-.644-.231h-5.509a.96.96 0 0 0-.655.23.747.747 0 0 0-.267.595v.316c0 .226.09.42.267.583a.94.94 0 0 0 .655.242h5.51a.958.958 0 0 0 .643-.242.749.749 0 0 0 .28-.583zm-9.006-4.37a.963.963 0 0 0-.655.233.746.746 0 0 0-.267.593v.365c0 .226.09.42.267.583a.942.942 0 0 0 .655.242h10.655a.958.958 0 0 0 .644-.242.75.75 0 0 0 .28-.583v-.365a.734.734 0 0 0-.28-.593.979.979 0 0 0-.644-.232h-1.553c.534-.501.914-1.031 1.141-1.59.226-.557.34-1.055.34-1.492 0-.598-.13-1.17-.389-1.711a4.76 4.76 0 0 0-1.068-1.444 5.174 5.174 0 0 0-1.614-1.007 5.305 5.305 0 0 0-2.002-.376 5.21 5.21 0 0 0-1.99.376 5.208 5.208 0 0 0-1.602 1.007 4.76 4.76 0 0 0-1.068 1.444 3.922 3.922 0 0 0-.388 1.71c0 .405.1.895.303 1.47.202.574.587 1.112 1.153 1.613zM310.64 212.83c0 .226.088.42.267.581a.935.935 0 0 0 .655.243h12.693a.892.892 0 0 0 .656-.267.84.84 0 0 0 .267-.607 48.224 48.224 0 0 0-.292-3.203 86.218 86.218 0 0 0-.485-3.47h2.645a.959.959 0 0 0 .644-.244.75.75 0 0 0 .279-.582v-.462a.74.74 0 0 0-.28-.594.983.983 0 0 0-.643-.23h-7.427v-3.568h4.32a.946.946 0 0 0 .644-.244.745.745 0 0 0 .28-.582v-6.31a.738.738 0 0 0-.28-.595.983.983 0 0 0-.643-.23h-.825a.972.972 0 0 0-.656.23.752.752 0 0 0-.266.595v5.072H311.95a.966.966 0 0 0-.656.231.75.75 0 0 0-.267.594v.413c0 .227.089.421.267.582a.934.934 0 0 0 .656.244h4.853v3.567h-7.936a.968.968 0 0 0-.656.231.752.752 0 0 0-.266.594v.462c0 .226.089.42.266.582a.944.944 0 0 0 .656.243h12.79c.146.826.284 1.72.413 2.682.13.962.226 1.881.292 2.755h-10.801a.963.963 0 0 0-.655.23.747.747 0 0 0-.267.595zM336.343 203.994h8.301v3.689h-8.301zm0 5.801h8.301v3.18c0 .226.088.421.266.582a.939.939 0 0 0 .655.243h.826a.95.95 0 0 0 .643-.243.745.745 0 0 0 .279-.582v-10.267a.738.738 0 0 0-.279-.595.983.983 0 0 0-.643-.23h-4.321v-4.32h7.427a.954.954 0 0 0 .644-.243.75.75 0 0 0 .279-.583v-.46a.738.738 0 0 0-.279-.595.983.983 0 0 0-.644-.231h-18.179a.967.967 0 0 0-.655.231.749.749 0 0 0-.267.595v.46a.76.76 0 0 0 .267.583.939.939 0 0 0 .655.243h7.937v4.32h-4.66a.974.974 0 0 0-.656.23.754.754 0 0 0-.266.595v10.267c0 .226.089.421.266.582a.941.941 0 0 0 .656.243h.825a.95.95 0 0 0 .643-.243.746.746 0 0 0 .28-.582zM364.885 205.548a.963.963 0 0 0-.655.23.747.747 0 0 0-.267.595v.437c0 .226.088.421.267.583a.939.939 0 0 0 .655.242h3.397v5.898c0 .226.089.42.268.582a.94.94 0 0 0 .655.244h.777a.95.95 0 0 0 .643-.244.748.748 0 0 0 .28-.582v-13.98a.74.74 0 0 0-.28-.595.983.983 0 0 0-.643-.23h-.777a.972.972 0 0 0-.655.23.75.75 0 0 0-.268.595v5.995zm6.407-11.966a.74.74 0 0 0-.28-.595.983.983 0 0 0-.642-.23h-11.626a.972.972 0 0 0-.655.23.752.752 0 0 0-.266.595v5.486c0 .226.088.42.266.583a.942.942 0 0 0 .655.242h.826a.953.953 0 0 0 .643-.242.75.75 0 0 0 .279-.583v-4.2h9.878c.243 0 .457-.08.643-.242a.744.744 0 0 0 .279-.583zm-16.504 18.907c0 .227.089.421.268.582a.932.932 0 0 0 .655.244h8.154c.29 0 .526-.094.705-.28a.748.748 0 0 0 .218-.643c-.194-1.521-.558-2.884-1.092-4.089a13.294 13.294 0 0 0-1.991-3.216 15.29 15.29 0 0 0-2.73-2.488 20.372 20.372 0 0 0-3.24-1.881 1.604 1.604 0 0 0-.486-.134c-.13-.008-.283.062-.461.207l-.436.34c-.39.291-.551.57-.486.837.065.267.275.474.63.619.955.452 1.846.991 2.67 1.614a14.367 14.367 0 0 1 2.209 2.051 11.875 11.875 0 0 1 1.578 2.378c.42.842.72 1.707.898 2.598h-6.14a.963.963 0 0 0-.655.23.747.747 0 0 0-.268.595zM381.243 207.538h8.301v2.136h-8.301zm-2.864-8.786c0 .227.089.421.267.582a.938.938 0 0 0 .656.243h11.989a.954.954 0 0 0 .644-.243.747.747 0 0 0 .279-.582v-5.461a.741.741 0 0 0-.279-.595.987.987 0 0 0-.644-.23h-.825a.968.968 0 0 0-.655.23.752.752 0 0 0-.267.595v4.175h-10.242a.966.966 0 0 0-.656.23.75.75 0 0 0-.267.595zm2.864 12.984h8.301v1.603c0 .227.089.42.267.582a.935.935 0 0 0 .655.243h.825a.954.954 0 0 0 .644-.243.749.749 0 0 0 .279-.582v-7.087a.74.74 0 0 0-.279-.595.982.982 0 0 0-.644-.23h-4.32v-2.112h7.426a.952.952 0 0 0 .644-.243.747.747 0 0 0 .279-.583v-.461a.736.736 0 0 0-.279-.594.981.981 0 0 0-.644-.231h-18.178a.968.968 0 0 0-.656.231.752.752 0 0 0-.266.594v.461c0 .227.089.421.266.583a.94.94 0 0 0 .656.243h7.936v2.112h-4.66a.967.967 0 0 0-.655.23.75.75 0 0 0-.267.595v7.087c0 .227.089.42.267.582a.939.939 0 0 0 .655.243h.825a.954.954 0 0 0 .644-.243.749.749 0 0 0 .279-.582zM414.883 214.358a.959.959 0 0 0 .644-.243.751.751 0 0 0 .279-.582v-19.902a.738.738 0 0 0-.28-.594.983.983 0 0 0-.643-.231h-.776a.968.968 0 0 0-.656.23.748.748 0 0 0-.267.595v19.903c0 .225.089.42.267.582a.944.944 0 0 0 .656.242zm-5.606-1.433a.953.953 0 0 0 .643-.242.747.747 0 0 0 .279-.582v-.436a.734.734 0 0 0-.28-.595.978.978 0 0 0-.642-.231h-3.082v-2.743c0-.744.12-1.501.364-2.268.242-.77.565-1.51.97-2.221.42-.713.902-1.38 1.444-2.003a10.763 10.763 0 0 1 1.735-1.614c.259-.195.389-.413.389-.656 0-.243-.121-.46-.364-.656l-.437-.34a1.059 1.059 0 0 0-.606-.217.84.84 0 0 0-.608.17c-.372.274-.761.598-1.165.97s-.793.784-1.165 1.238c-.372.437-.72.91-1.043 1.42a7.787 7.787 0 0 0-.777 1.59c-.486-1.279-1.153-2.39-2.002-3.338-.85-.946-1.671-1.719-2.464-2.318a1.131 1.131 0 0 0-.521-.218.646.646 0 0 0-.522.121l-.583.39c-.291.177-.457.395-.497.654-.041.26.085.486.376.68a12.766 12.766 0 0 1 3.47 3.858c.89 1.521 1.336 3.107 1.336 4.757v2.743h-3.301a.964.964 0 0 0-.655.231.745.745 0 0 0-.268.595v.436c0 .227.089.421.268.583a.939.939 0 0 0 .655.242zM437.333 214.358a.959.959 0 0 0 .644-.243.751.751 0 0 0 .279-.582v-13.98a.74.74 0 0 0-.279-.594.983.983 0 0 0-.644-.231h-.776a.968.968 0 0 0-.656.23.75.75 0 0 0-.267.595v13.98c0 .226.089.42.267.583a.944.944 0 0 0 .656.242zm1.311-20.776a.735.735 0 0 0-.28-.595.981.981 0 0 0-.642-.23h-11.626a.973.973 0 0 0-.656.23.752.752 0 0 0-.266.595v5.218c0 .227.089.42.266.582a.936.936 0 0 0 .656.244h.825a.946.946 0 0 0 .643-.244.746.746 0 0 0 .28-.582v-3.932h9.878c.242 0 .457-.08.642-.242a.745.745 0 0 0 .28-.583zm-14.756 14.538c0-.907.278-1.679.837-2.318.558-.639 1.233-.959 2.026-.959.777 0 1.444.32 2.003.96.558.638.837 1.41.837 2.317 0 .437-.077.853-.231 1.25-.154.396-.36.74-.619 1.032a3.143 3.143 0 0 1-.897.704c-.34.178-.704.268-1.093.268-.793 0-1.468-.325-2.026-.971-.559-.648-.837-1.408-.837-2.282m8.445-.026c0-.712-.146-1.386-.437-2.026a5.31 5.31 0 0 0-1.213-1.687 5.63 5.63 0 0 0-1.772-1.153 5.623 5.623 0 0 0-2.184-.425c-.809 0-1.558.142-2.246.425a5.602 5.602 0 0 0-1.783 1.153 5.349 5.349 0 0 0-1.178 1.687 4.95 4.95 0 0 0-.424 2.026c0 .73.141 1.416.424 2.064a5.31 5.31 0 0 0 1.178 1.7 5.79 5.79 0 0 0 1.783 1.164 5.708 5.708 0 0 0 2.246.437c.777 0 1.504-.146 2.184-.437a5.822 5.822 0 0 0 1.772-1.165 5.272 5.272 0 0 0 1.213-1.699 4.978 4.978 0 0 0 .437-2.064M456.361 205.233v-10.897a.737.737 0 0 0-.279-.595.983.983 0 0 0-.644-.231h-.606a.968.968 0 0 0-.656.23.75.75 0 0 0-.266.596v18.858c0 .226.09.42.266.582a.94.94 0 0 0 .656.243h.606a.954.954 0 0 0 .644-.243.75.75 0 0 0 .28-.582v-5.801h2.16v6.14c0 .226.088.42.266.583a.94.94 0 0 0 .655.243h.607a.954.954 0 0 0 .643-.243.748.748 0 0 0 .28-.582V193.63a.735.735 0 0 0-.28-.594.978.978 0 0 0-.643-.231h-.607a.964.964 0 0 0-.655.23.748.748 0 0 0-.267.595v11.602zm-4.976 7.669a.956.956 0 0 0 .644-.242.748.748 0 0 0 .278-.583v-.412a.733.733 0 0 0-.278-.595.981.981 0 0 0-.644-.231h-1.99v-3.18c0-.727.09-1.455.267-2.184.178-.727.428-1.431.753-2.111.323-.695.7-1.352 1.13-1.966.426-.615.892-1.165 1.394-1.65a.731.731 0 0 0 .255-.631.797.797 0 0 0-.328-.583l-.437-.34a.972.972 0 0 0-.668-.231.919.919 0 0 0-.642.28 16.306 16.306 0 0 0-1.542 1.905c-.477.688-.918 1.525-1.322 2.512-.357-1.133-.81-2.096-1.36-2.888a16.168 16.168 0 0 0-1.675-2.063 1.01 1.01 0 0 0-.546-.28.8.8 0 0 0-.57.085l-.558.317c-.29.145-.46.342-.509.593-.049.25.048.49.291.717 1.165 1.213 2.051 2.556 2.657 4.029.607 1.472.91 2.969.91 4.49v3.179h-2.136a.967.967 0 0 0-.655.23.747.747 0 0 0-.266.596v.412c0 .226.088.42.266.583a.942.942 0 0 0 .655.242zM481.458 197.878a.968.968 0 0 0-.655.23.75.75 0 0 0-.268.595v.753h-3.956a.962.962 0 0 0-.655.231.747.747 0 0 0-.267.594v.388a.76.76 0 0 0 .267.583.942.942 0 0 0 .655.242h3.956v12.04c0 .225.089.42.268.581a.94.94 0 0 0 .655.243h.752a.959.959 0 0 0 .644-.243.75.75 0 0 0 .279-.582v-14.83a.742.742 0 0 0-.279-.595.987.987 0 0 0-.644-.23zm2.063-4.27a.737.737 0 0 0-.279-.596.978.978 0 0 0-.643-.23h-11.796a.968.968 0 0 0-.656.23.752.752 0 0 0-.266.595v3.64c0 .227.089.421.266.583a.943.943 0 0 0 .656.242h.801a.953.953 0 0 0 .643-.242.747.747 0 0 0 .279-.583v-2.379h10.073c.243 0 .457-.08.643-.242a.744.744 0 0 0 .279-.583zm-13.64 16.09c0-.679.251-1.274.752-1.784a2.46 2.46 0 0 1 1.82-.765c.696 0 1.299.255 1.809.765.509.51.764 1.105.764 1.784 0 .663-.255 1.254-.764 1.772-.51.517-1.113.776-1.809.776a2.443 2.443 0 0 1-1.82-.776c-.501-.518-.752-1.109-.752-1.772m2.572-4.539c-.744 0-1.435.122-2.075.365a5.576 5.576 0 0 0-1.687.995 4.418 4.418 0 0 0-1.104 1.431c-.267.55-.4 1.133-.4 1.748 0 .6.133 1.17.4 1.711a4.754 4.754 0 0 0 1.104 1.445c.486.42 1.048.755 1.687 1.006a5.63 5.63 0 0 0 2.075.376c.729 0 1.412-.125 2.051-.376a5.735 5.735 0 0 0 1.663-.982 5.052 5.052 0 0 0 1.129-1.457 3.73 3.73 0 0 0 .425-1.723c0-.615-.143-1.198-.425-1.748a4.728 4.728 0 0 0-1.129-1.43 5.258 5.258 0 0 0-1.663-.996 5.719 5.719 0 0 0-2.051-.365m.923-5.678a.737.737 0 0 0-.279-.595.983.983 0 0 0-.644-.23h-.825a.964.964 0 0 0-.655.23.747.747 0 0 0-.267.595v2.596h-3.956a.959.959 0 0 0-.655.231.745.745 0 0 0-.268.594v.39c0 .225.089.42.268.581a.94.94 0 0 0 .655.243h3.883c.485 0 1.044.012 1.675.036.63.025 1.295.061 1.99.11.695.048 1.399.112 2.111.193.712.081 1.4.18 2.064.292a.91.91 0 0 0 .752-.182.791.791 0 0 0 .316-.643v-.389c0-.194-.082-.372-.243-.534a.975.975 0 0 0-.534-.29 35.908 35.908 0 0 0-2.403-.305 59.836 59.836 0 0 0-2.985-.206z" style="fill:#5a5758;fill-opacity:1;fill-rule:nonzero;stroke:none" transform="matrix(1.33333 0 0 -1.33333 -274.038 291.035)"/></svg>