<svg xmlns="http://www.w3.org/2000/svg" xml:space="preserve" width="1241.437" height="200" viewBox="0 0 1241.437 200.00001"><path d="M461.19 118.15v57.647h10.523v-32.965h11.307v-6.482h-11.307v-18.2zM996.951 118.15v41.487c-3.428.929-8.373 1.51-12.906 1.797v-34.221h6.66v-6.483h-43.309v6.483h6.711v34.44h-6.71v6.468h30.453c7.268 0 14.349-1.004 19.101-2.65v31.101h10.522v-51.334h11.285v-6.498h-11.285v-20.59zm-32.578 9.063h9.428v34.44h-9.428zM923.408 118.15v17.985h-15.265v6.463h15.265v33.199h10.485V118.15z" style="fill:#172258;fill-opacity:1;fill-rule:nonzero;stroke:none;stroke-width:5.22976"/><path d="M872.535 119.457v6.484h13.973v4.655c0 8.273-2.258 18.597-18.305 27.18l4.668 5.286c5.94-2.678 14.418-7.574 18.897-14.576 4.427 7.002 12.921 11.898 18.886 14.577l4.649-5.288c-16.027-8.582-18.295-18.906-18.295-27.18v-4.654h14.955v-6.484zM613.984 118.15v44.133h10.489v-22.619h11.29v-6.478h-11.29V118.15zM565.639 120.545v31.236c0 4.681 2.092 6.737 6.568 6.737h30.943v-37.973h-10.474v11.514H576.16v-11.514zm10.521 17.996h16.516v13.502H576.16zM497.762 118.62v6.485h36.754v11.286c0 4.506-.735 9.12-1.873 12.32h-45.635v6.48h28.9v12.416h-18.69v6.46h37.827v22.51h10.512v-28.97h-19.125v-12.416h29.316v-6.48h-14.195c2.301-3.87 3.465-9.908 3.465-14.152v-15.94zM426.463 116.225v9.685h-16.41v6.485H420.4c-5.384 3.165-8.921 8.528-8.921 14.613 0 9.732 9.046 17.6 20.228 17.6 11.17 0 20.225-7.868 20.225-17.6 0-6.085-3.54-11.448-8.924-14.613h10.347v-6.485h-16.404v-9.685zm5.244 19.45c5.36 0 9.707 5.069 9.707 11.333 0 6.248-4.347 11.312-9.707 11.312-5.365 0-9.715-5.064-9.715-11.312 0-6.264 4.35-11.332 9.715-11.332zM669.162 146.87v9.99h-29.125v6.478h68.752v-6.479h-29.127v-9.99z" style="fill:#172258;fill-opacity:1;fill-rule:nonzero;stroke:none;stroke-width:5.22976"/><path d="M314.249 550.594h-7.875v43.235h7.875v-43.235zM282.164 535.012h32.564v4.843h-29.615v13.792h-7.88v-13.59c0-3.511 1.554-5.045 4.93-5.045M-6.732 535.012h32.576v4.843h-29.63v13.792h-7.864v-13.59c0-3.511 1.557-5.045 4.918-5.045" style="fill:#172258;fill-opacity:1;fill-rule:nonzero;stroke:none;stroke-width:3.92232" transform="matrix(1.33333 0 0 -1.33333 437.89 909.922)"/><path d="M727.113 118.816v24.569c0 4.703 2.055 6.746 6.547 6.746h11.928v6.728H716.48v6.479h68.729v-6.479h-29.098v-6.728h18.254v-6.473h-36.773v-5.947h36.773v-6.484h-36.773v-5.928h36.773v-6.483z" style="fill:#172258;fill-opacity:1;fill-rule:nonzero;stroke:none;stroke-width:5.22976"/><path d="M124.093 537.423c-4.48 0-8.11 3.813-8.11 8.515 0 4.688 3.63 8.507 8.11 8.507 4.51 0 8.147-3.819 8.147-8.507 0-4.702-3.637-8.515-8.147-8.515m0 22c-8.802 0-15.963-6.031-15.963-13.485 0-7.463 7.16-13.496 15.963-13.496 8.837 0 16 6.033 16 13.496 0 7.454-7.163 13.485-16 13.485M177.38 537.433c-4.29 0-7.751 3.409-7.751 7.62 0 4.229 3.46 7.642 7.75 7.642 4.312 0 7.79-3.413 7.79-7.642 0-4.211-3.478-7.62-7.79-7.62m0 20.259c-8.633 0-15.65-5.64-15.65-12.639 0-6.965 7.017-12.61 15.65-12.61 8.657 0 15.667 5.645 15.667 12.61 0 6.998-7.01 12.639-15.666 12.639M234.724 537.433c-4.3 0-7.777 3.409-7.777 7.62 0 4.229 3.478 7.642 7.777 7.642 4.304 0 7.77-3.413 7.77-7.642 0-4.211-3.466-7.62-7.77-7.62m0 20.259c-8.66 0-15.67-5.648-15.67-12.639 0-6.965 7.01-12.61 15.67-12.61 8.645 0 15.655 5.645 15.655 12.61 0 6.99-7.01 12.639-15.655 12.639M181.329 591.863v1.968h-7.876v-1.968c0-6.202-5.1-14.485-18.589-17.61l3.13-4.356c4.424.64 14.36 3.942 19.393 10.787 5.039-6.845 14.971-10.147 19.403-10.787l3.122 4.355c-13.477 3.126-18.583 11.41-18.583 17.61M547.215 558.52H495.65v4.873h51.565v-4.872z" style="fill:#172258;fill-opacity:1;fill-rule:nonzero;stroke:none;stroke-width:3.92232" transform="matrix(1.33333 0 0 -1.33333 437.89 909.922)"/><path d="M1127.885 116.225v7.765h-22.115v6.48h12.521c-2.736 2.677-4.38 6.104-4.38 9.835 0 8.55 8.616 15.5 19.224 15.5 10.628 0 19.238-6.95 19.238-15.5 0-3.731-1.644-7.158-4.38-9.834h13.415v-6.48h-23.023v-7.766zm5.25 14.894c5.173 0 9.365 4.117 9.365 9.186 0 5.081-4.192 9.193-9.365 9.193-5.158 0-9.362-4.112-9.362-9.193 0-5.07 4.204-9.186 9.362-9.186z" style="fill:#172258;fill-opacity:1;fill-rule:nonzero;stroke:none;stroke-width:5.22976"/><path d="M521.433 537.433c-3.923 0-7.117 3.043-7.117 6.812 0 3.77 3.194 6.818 7.117 6.818 3.937 0 7.132-3.049 7.132-6.818 0-3.77-3.195-6.812-7.132-6.812m0 18.63c-8.025 0-14.548-5.306-14.548-11.826 0-6.511 6.523-11.793 14.548-11.793 8.044 0 14.563 5.282 14.563 11.793 0 6.52-6.52 11.827-14.563 11.827M286.576 584.495v8.833h-7.89v-8.833c0-6.205-1.691-13.949-13.713-20.386l3.493-3.964c4.453 2.009 10.82 5.68 14.169 10.928 3.346-5.248 9.687-8.919 14.147-10.928l3.522 3.964c-12.025 6.437-13.728 14.18-13.728 20.386M339.934 535.012h32.558v4.843h-29.617v13.792H335v-13.59c0-3.511 1.551-5.045 4.934-5.045" style="fill:#172258;fill-opacity:1;fill-rule:nonzero;stroke:none;stroke-width:3.92232" transform="matrix(1.33333 0 0 -1.33333 437.89 909.922)"/><path d="M1025.484 119.457v6.484h13.96v4.655c0 8.273-2.253 18.597-18.3 27.18l4.669 5.286c5.95-2.678 14.431-7.573 18.874-14.57 4.47 6.997 12.943 11.892 18.893 14.57l4.662-5.287c-16.026-8.582-18.283-18.906-18.283-27.18v-4.654h14.963v-6.484z" style="fill:#172258;fill-opacity:1;fill-rule:nonzero;stroke:none;stroke-width:5.22976"/><path d="M486.722 550.594h-7.86v43.235h7.86v-43.235zM454.63 535.012h32.567v4.843h-29.624v13.792h-7.86v-13.59c0-3.511 1.566-5.045 4.918-5.045" style="fill:#172258;fill-opacity:1;fill-rule:nonzero;stroke:none;stroke-width:3.92232" transform="matrix(1.33333 0 0 -1.33333 437.89 909.922)"/><path d="M1230.309 118.146v33.063c-9.36.784-27.385 1.904-44.045 1.904h-10.102v6.487h10.102c2.468 0 5.072-.039 7.722-.094v11.781h10.51v-12.111c10.156-.409 19.898-1.035 25.813-1.55v6.544h-17.66v6.463h17.66v6.992h10.5v-59.478z" style="fill:#172258;fill-opacity:1;fill-rule:nonzero;stroke:none;stroke-width:5.22976"/><path d="M568.86 535.012h33.8v4.843h-30.842v10.775h-7.89v-10.574c0-3.51 1.573-5.044 4.933-5.044M571.025 574.903c-3.582 0-6.508 3.268-6.508 7.303 0 4.033 2.926 7.308 6.508 7.308 3.57 0 6.489-3.275 6.489-7.308 0-4.035-2.92-7.303-6.49-7.303m0 19.478c-7.928 0-14.367-5.45-14.367-12.175 0-6.715 6.439-12.163 14.368-12.163 7.921 0 14.348 5.448 14.348 12.163 0 6.724-6.427 12.175-14.348 12.175" style="fill:#172258;fill-opacity:1;fill-rule:nonzero;stroke:none;stroke-width:3.92232" transform="matrix(1.33333 0 0 -1.33333 437.89 909.922)"/><path d="M64.271 118.164 25.79 154.06v-35.891H9.865c-6.402 0-9.865 2.218-9.865 7.56v70.844h25.79v-38.601l25.317 29.29c4.607 5.79 10.072 9.31 20.108 9.31H90.64l-38.733-46.106 34.631-32.3ZM233.889 118.168c-6.374 0-9.91 2.22-12.56 7.516l-35.102 70.888h17.75l9.789-19.781h39.527l5.191 10.482c3.09 6.213 7.208 9.3 17.239 9.3h15.25l-38.86-78.405zm-.366 18.697 13.1 26.453h-26.19z" style="fill:#172258;fill-opacity:1;fill-rule:nonzero;stroke:none;stroke-width:5.22976"/><path d="M-194.412 541.719v3.334h-26.805c-11.12 0-15.995 8.676-15.995 19.36 0 10.697 4.876 19.333 15.995 19.333h18.497c4.057 0 8.308 1.174 8.308 6.713v3.355h-28.927c-25.805 0-34.43-13.157-34.43-29.4 0-16.247 8.625-29.402 34.43-29.402h20.62c4.056 0 8.307 1.134 8.307 6.707" style="fill:#172258;fill-opacity:1;fill-rule:nonzero;stroke:none;stroke-width:3.92232" transform="matrix(1.33333 0 0 -1.33333 437.89 909.922)"/><path d="M-112.983 605.198c13.26-18.474 20.768-36.906 27.68-58.168 3.541-10.932 11.708-12.018 19.01-12.018h18.867c-14.68 28.638-38.718 52.723-65.557 70.186" style="fill:#ed1c24;fill-opacity:1;fill-rule:nonzero;stroke:none;stroke-width:3.92232" transform="matrix(1.33333 0 0 -1.33333 437.89 909.922)"/><path d="M-194.34 634.878c-8.89 1.283-12.808 2.848-15.824 6.95-2.007 2.718-3.886 9.147-5.382 16.25a258.475 258.475 0 0 1-66.501 6.719c3.918-15.66 13.104-32.277 21.963-38.764 5.692-4.184 10.87-5.029 25.158-4.127 52.693 3.42 86.968-2.654 121.943-16.708-23.9 15.559-49.441 25.095-81.358 29.68" style="fill:#4472c2;fill-opacity:1;fill-rule:nonzero;stroke:none;stroke-width:3.92232" transform="matrix(1.33333 0 0 -1.33333 437.89 909.922)"/><path d="M-218.694 682.442c0-5.116 1.239-15.31 3.148-24.362 39.538-9.28 75.2-27.65 102.563-52.88-24.716 35.32-61.166 63.674-105.711 77.242" style="fill:#4dbd38;fill-opacity:1;fill-rule:nonzero;stroke:none;stroke-width:3.92232" transform="matrix(1.33333 0 0 -1.33333 437.89 909.922)"/><path d="M-194.34 634.878c31.916-4.585 57.457-14.121 81.357-29.68-27.363 25.233-63.025 43.6-102.563 52.88 1.496-7.103 3.375-13.532 5.382-16.25 3.016-4.102 6.935-5.667 15.823-6.95" style="fill:#172258;fill-opacity:1;fill-rule:nonzero;stroke:none;stroke-width:3.92232" transform="matrix(1.33333 0 0 -1.33333 437.89 909.922)"/></svg>