<svg xmlns="http://www.w3.org/2000/svg" width="338.16568pt" height="75pt" viewBox="0 0 338.16568 74.999999"><path fill="#691f74" d="M78.857 52.151h1.816v4.393h.045c.237-.368.49-.709.728-1.035l2.618-3.358h2.263l-3.452 4.067 3.675 5.484h-2.143l-2.842-4.38-.892 1.02v3.36h-1.816zM97.157 56.827c0 3.202-2.039 5.029-4.806 5.029-2.827 0-4.613-2.054-4.613-4.859 0-2.933 1.936-5.002 4.761-5.002 2.932 0 4.658 2.11 4.658 4.832m-7.483.141c0 1.941 1.025 3.5 2.782 3.5 1.77 0 2.767-1.573 2.767-3.57 0-1.8-.937-3.515-2.767-3.515-1.816 0-2.782 1.616-2.782 3.585M99.477 52.279c.683-.113 1.71-.199 2.768-.199 1.442 0 2.424.228 3.093.766.552.438.864 1.105.864 1.912 0 1.233-.878 2.069-1.815 2.395v.043c.713.254 1.145.92 1.398 1.842.313 1.19.58 2.294.788 2.663h-1.89c-.147-.282-.385-1.064-.669-2.253-.282-1.247-.758-1.644-1.8-1.67h-.922V61.7h-1.815zm1.815 4.222h1.085c1.235 0 2.01-.623 2.01-1.573 0-1.048-.775-1.53-1.964-1.53-.58 0-.953.043-1.13.086zM114.295 57.464h-3.78v2.806h4.226v1.43h-6.056v-9.548h5.833v1.43h-4.003v2.466h3.78zM119.1 58.995l-.864 2.705h-1.89l3.215-9.549h2.336l3.259 9.55h-1.965l-.908-2.706zm2.87-1.317-.788-2.354c-.193-.58-.357-1.231-.506-1.784h-.029c-.149.553-.298 1.218-.476 1.784l-.773 2.354zM138.306 61.418c-.432.212-1.384.44-2.59.44-3.183 0-5.118-1.915-5.118-4.819 0-3.145 2.291-5.043 5.356-5.043 1.205 0 2.07.24 2.44.424l-.4 1.39c-.477-.2-1.132-.37-1.966-.37-2.037 0-3.51 1.219-3.51 3.515 0 2.096 1.294 3.442 3.496 3.442.744 0 1.519-.141 1.994-.354zM140.61 52.279c.684-.113 1.712-.199 2.769-.199 1.442 0 2.424.228 3.094.766.55.438.863 1.105.863 1.912 0 1.233-.879 2.069-1.815 2.395v.043c.713.254 1.146.92 1.398 1.842.313 1.19.58 2.294.788 2.663h-1.89c-.147-.282-.385-1.064-.669-2.253-.282-1.247-.758-1.644-1.8-1.67h-.922V61.7h-1.816zm1.816 4.222h1.085c1.235 0 2.01-.623 2.01-1.573 0-1.048-.775-1.53-1.964-1.53-.58 0-.953.043-1.13.086zM155.428 57.464h-3.779v2.806h4.226v1.43h-6.056v-9.548h5.833v1.43h-4.003v2.466h3.78zM160.233 58.995l-.863 2.705h-1.89l3.215-9.549h2.336l3.259 9.55h-1.965l-.908-2.706zm2.872-1.317-.79-2.354c-.192-.58-.356-1.231-.505-1.784h-.029c-.149.553-.298 1.218-.476 1.784l-.774 2.354zM170.35 53.61h-2.858v-1.459h7.573v1.46h-2.887V61.7h-1.829zM178.814 61.7h-1.83v-9.55h1.83zM183.947 61.7l-3.244-9.55h1.994l1.369 4.337c.386 1.205.713 2.323.981 3.486h.03a35.776 35.776 0 0 1 1.027-3.458l1.458-4.364h1.95l-3.467 9.55zM196.95 57.464h-3.78v2.806h4.226v1.43h-6.056v-9.548h5.832v1.43h-4.002v2.466h3.78zM210.458 61.418c-.432.212-1.384.44-2.59.44-3.183 0-5.118-1.915-5.118-4.819 0-3.145 2.291-5.043 5.357-5.043 1.205 0 2.068.24 2.44.424l-.402 1.39c-.476-.2-1.13-.37-1.965-.37-2.037 0-3.51 1.219-3.51 3.515 0 2.096 1.294 3.442 3.496 3.442.744 0 1.519-.141 1.994-.354zM220.961 56.827c0 3.202-2.038 5.029-4.806 5.029-2.827 0-4.613-2.054-4.613-4.859 0-2.933 1.935-5.002 4.761-5.002 2.932 0 4.658 2.11 4.658 4.832m-7.484.141c0 1.941 1.026 3.5 2.783 3.5 1.77 0 2.767-1.573 2.767-3.57 0-1.8-.937-3.515-2.767-3.515-1.816 0-2.783 1.616-2.783 3.585M222.581 61.7v-9.55h2.083l2.59 4.096a25.914 25.914 0 0 1 1.711 3.202h.03a41.584 41.584 0 0 1-.164-3.967v-3.33h1.696v9.55h-1.89l-2.618-4.209c-.64-1.034-1.31-2.209-1.8-3.286l-.046.014c.075 1.233.09 2.494.09 4.066V61.7zM234.602 53.61h-2.857v-1.459h7.573v1.46h-2.886V61.7h-1.83zM246.147 57.464h-3.779v2.806h4.225v1.43h-6.055v-9.548h5.832v1.43h-4.002v2.466h3.78zM248.244 61.7v-9.55h2.082l2.59 4.096a25.914 25.914 0 0 1 1.712 3.202h.029a41.584 41.584 0 0 1-.164-3.967v-3.33h1.696v9.55h-1.89l-2.618-4.209c-.64-1.034-1.309-2.209-1.8-3.286l-.046.014c.074 1.233.09 2.494.09 4.066V61.7zM260.265 53.61h-2.857v-1.459h7.573v1.46h-2.887V61.7h-1.83zM270.738 58.995l-.863 2.705h-1.89l3.214-9.549h2.336l3.26 9.55h-1.966l-.907-2.706zm2.87-1.317-.788-2.354c-.193-.58-.356-1.231-.506-1.784h-.029c-.149.553-.298 1.218-.476 1.784l-.773 2.354zM286.27 61.262c-.64.226-1.89.538-3.228.538-1.697 0-2.977-.41-3.928-1.275-.893-.808-1.415-2.069-1.399-3.514 0-3.017 2.26-4.959 5.58-4.959 1.234 0 2.202.241 2.662.453l-.401 1.403c-.55-.226-1.22-.41-2.276-.41-2.143 0-3.646 1.204-3.646 3.427 0 2.17 1.399 3.458 3.482 3.458.655 0 1.145-.084 1.383-.198v-2.38h-1.77V56.43h3.54zM293.797 57.464h-3.78v2.806h4.226v1.43h-6.055v-9.548h5.832v1.43h-4.002v2.466h3.779zM295.894 61.7v-9.55h2.082l2.59 4.096a25.914 25.914 0 0 1 1.712 3.202h.029a41.584 41.584 0 0 1-.164-3.967v-3.33h1.696v9.55h-1.889l-2.619-4.209c-.64-1.034-1.309-2.209-1.8-3.286l-.046.014c.075 1.233.09 2.494.09 4.066V61.7zM313.182 61.418c-.432.212-1.384.44-2.59.44-3.183 0-5.118-1.915-5.118-4.819 0-3.145 2.291-5.043 5.356-5.043 1.206 0 2.07.24 2.44.424l-.4 1.39a5.082 5.082 0 0 0-1.964-.37c-2.04 0-3.512 1.219-3.512 3.515 0 2.096 1.294 3.442 3.496 3.442.744 0 1.518-.141 1.994-.354zM317.064 61.7V57.72l-3.17-5.568h2.084l1.205 2.452c.343.708.595 1.246.863 1.898h.029c.253-.609.537-1.204.879-1.898l1.205-2.452h2.068l-3.334 5.525v4.025zM90.155 26.59c0-3.529-3.016-6.401-6.72-6.401-3.707 0-6.72 2.872-6.72 6.4 0 3.53 3.013 6.401 6.72 6.401 3.704 0 6.72-2.871 6.72-6.4m-9.687 0c0-1.558 1.33-2.827 2.966-2.827 1.636 0 2.968 1.269 2.968 2.826 0 1.558-1.332 2.827-2.968 2.827s-2.966-1.269-2.966-2.827M307.943 25.233c3.706 0 6.721-2.728 6.721-6.08 0-3.354-3.015-6.081-6.721-6.081-3.705 0-6.721 2.727-6.721 6.081 0 3.352 3.016 6.08 6.72 6.08m0-8.66c1.572 0 2.853 1.157 2.853 2.58s-1.28 2.58-2.852 2.58c-1.573 0-2.852-1.157-2.852-2.58s1.28-2.58 2.852-2.58M273.411 21.794c0 3.186 3.015 5.776 6.72 5.776 3.707 0 6.722-2.59 6.722-5.776 0-1.499-.673-2.86-1.763-3.888h3.651c.688 0 1.323-.367 1.667-.962l1.278-2.214v-.001h-9.62v-2.45h-3.9v2.45h-9.589v3.177h6.597c-1.09 1.028-1.763 2.39-1.763 3.888m6.72 2.45c-1.571 0-2.85-1.099-2.85-2.45 0-1.352 1.279-2.452 2.85-2.452 1.573 0 2.853 1.1 2.853 2.452 0 1.351-1.28 2.45-2.853 2.45M280.132 33.751c-4.049 0-7.343 2.643-7.343 5.893 0 3.248 3.294 5.892 7.343 5.892 4.048 0 7.342-2.644 7.342-5.892 0-3.25-3.294-5.893-7.342-5.893m0 8.393c-1.719 0-3.116-1.121-3.116-2.5 0-1.38 1.397-2.501 3.116-2.501 1.718 0 3.115 1.122 3.115 2.501 0 1.379-1.397 2.5-3.115 2.5M98.435 13.213H94.52v22.556h3.914V26.585h3.34c.687 0 1.322-.368 1.666-.963l1.46-2.53h-6.466zM82.92 34.692h-3.963v9.43h18.455c.687 0 1.323-.365 1.666-.96l1.462-2.53H82.92ZM130.817 14.84h-19.508v3.493h15.546c0 2.217-.079 3.705-.235 6.296h-19.728v3.493h11.852v4.617h-8.22v3.525h16.395v7.852h3.96V32.74h-8.205v-4.617h10.482c.688 0 1.322-.367 1.666-.963l1.46-2.53h-5.859c.263-4.301.394-6.953.394-9.788M184.963 28.387a96.95 96.95 0 0 1-8.628.381v-3.657h5.614V21.82h-5.614v-3.535h8.018v-3.491h-11.869V32.26c3.552 0 6.668-.07 9.355-.212a1.924 1.924 0 0 0 1.565-.96zM197.653 13.213h-3.898v22.9h3.898z" style="stroke-width:1.12076"/><path fill="#691f74" d="M183.678 25.162h4.024v9.943h3.898V13.858h-3.898v7.977h-4.024zM181.854 34.692h-3.962v9.398h18.231c.687 0 1.323-.366 1.667-.961l1.48-2.564h-17.416zM212.173 26.02c-2.097 1.656-4.679 2.71-7.75 3.161l2.61 3.21c4.905-1.467 8.458-3.784 10.659-6.949.994 1.445 2.535 2.823 4.62 4.136 2.085 1.313 4.181 2.24 6.29 2.78l2.262-3.243c-3.123-.508-5.708-1.563-7.758-3.17-2.049-1.603-3.178-3.576-3.387-5.584h6.115c.688 0 1.323-.367 1.667-.962l1.394-2.413h-9.176v-3.773h-3.962v3.773h-9.211v3.375h9.149c-.253 2.008-1.426 4.004-3.522 5.66M203.652 40.798h26.907c.687 0 1.322-.367 1.666-.963l1.441-2.496h-30.014zM245.21 34.707h-3.961v9.351h18.924c.686 0 1.322-.367 1.666-.963l1.46-2.528H245.21zM261.088 13.213h-3.867v22.835h3.867zM301.806 34.707v9.417h19.46c.686 0 1.321-.367 1.665-.962l1.46-2.53h-18.656v-5.925zM313.21 31.961v3.21h5.865v2.3h3.961V13.212h-3.961v18.749h-5.033zM159.354 27.146l3.82.266c.305-2.913.456-7.15.456-12.71h-19.995v3.491h16.097l-.031 2.003-16.067.593v3.296l15.971-.845c-.094 1.876-.178 3.178-.25 3.906M147.596 34.707h-3.962v9.408h19.034c.687 0 1.322-.367 1.667-.962l1.459-2.53h-18.198z" style="stroke-width:1.12076"/><path fill="#691f74" d="M153.711 24.83h-3.993v3.938h-10.203v3.49h24.877c.687 0 1.322-.366 1.666-.96l1.46-2.53H153.71zM266.062 32.213h26.369c.688 0 1.325-.367 1.668-.963l1.355-2.347h-29.392zM306.813 35.958h3.835v-5.635c1.15-.05 2.298-.11 3.446-.178a1.925 1.925 0 0 0 1.551-.96l1.547-2.678c-5.524.393-11.849.595-18.974.605v3.592c2.284 0 5.15-.073 8.595-.216zM81.454 13.211v2.748h-6.737v3.326h14.977c.687 0 1.322-.368 1.666-.963l1.364-2.363h-7.308v-2.748zM245.242 26.054c1.655 2.526 3.914 4.528 6.775 6.007l2.5-3.16c-2.148-.741-3.92-1.901-5.313-3.484-1.394-1.582-2.091-3.334-2.091-5.255v-2.017h4.24c.686 0 1.32-.368 1.666-.963l1.43-2.48H236.91v3.443h6.242v2.15c0 1.952-.74 3.396-2.202 5.304-1.46 1.91-3.243 2.906-5.36 3.756l2.797 2.911c1.228-.617 5.65-3.681 6.855-6.212M28.276 28.093l13.392-13.391h20.358L28.277 48.457z" style="stroke-width:1.12076"/><path fill="#691f74" d="m28.277 48.457 13.392 13.4h20.358l-33.75-33.765z" style="stroke-width:1.12076"/><path fill="#412249" d="m32.674 52.856-4.397-4.399 10.18-10.181 4.396 4.399z" style="stroke-width:1.12076"/><path fill="#691f74" d="M12.96 51.684v3.383l5.192-3.383zM12.96 33.486v3.382l5.192-3.382zM19.012 28.663a2.476 2.476 0 0 0 .783-1.847c0-.733-.255-1.348-.764-1.848-.51-.499-1.157-.749-1.942-.749-.876 0-1.568.315-2.078.943a2.587 2.587 0 0 0-.596 1.68c0 .715.257 1.323.774 1.827.517.502 1.153.754 1.91.754.753 0 1.39-.254 1.913-.76M16.799 14.706l-.073-.004H12.96v4.009c.098-1.199.426-2.094 1.167-2.84.71-.712 1.568-1.064 2.673-1.164M12.96 61.856h6.43v-1.37h-6.43z" style="stroke-width:1.12076"/><path fill="#691f74" d="M17.341 14.701c.76.05 1.332.206 1.889.53.613.357 1.106.868 1.48 1.534a4.32 4.32 0 0 1 .56 2.148 4.51 4.51 0 0 1-.414 1.887 4.52 4.52 0 0 1-1.177 1.563l-1.004-1.054c.757-.717 1.135-1.523 1.135-2.42 0-.756-.257-1.392-.775-1.91-.517-.518-1.153-.777-1.912-.777-.528 0-.997.115-1.406.344-.409.229-.73.554-.964.973-.234.42-.35.885-.35 1.398 0 .437.081.837.245 1.199.164.362.46.76.891 1.193l-1.065 1.022c-.571-.586-.967-1.137-1.188-1.658a4.094 4.094 0 0 1-.327-1.607v7.612c.104-1.19.446-2.048 1.228-2.796.822-.787 1.798-1.18 2.928-1.18a4.114 4.114 0 0 1 3.598 2.06c.37.64.557 1.33.557 2.07 0 1.12-.406 2.083-1.216 2.889-.812.805-1.8 1.208-2.966 1.208-1.154 0-2.133-.398-2.932-1.193-.749-.744-1.114-1.545-1.193-2.677a.229.229 0 0 0-.003.015v.106c.012.243.007.488 0 .733v4.066h7.914v1.446l-5.208 3.386h5.208v1.507H12.96v2.441h6.43v-1.404h1.484v4.374H19.39v-1.442h-6.43v2.481h7.915v4.32h-1.473v-2.825h-1.432v2.826h-1.448v-2.826H14.44v2.826h-1.48v1.09h7.915v1.444l-5.208 3.387h5.208v1.506H12.96v2.441h6.43v-1.404h1.484v4.303l6.384.001V14.701z" style="stroke-width:1.12076"/></svg>