<svg xmlns="http://www.w3.org/2000/svg" xmlns:xlink="http://www.w3.org/1999/xlink" width="1142.8196pt" height="150pt" viewBox="0 0 1142.8196 150"><defs><linearGradient id="c"><stop offset="0" style="stop-color:#3d468b;stop-opacity:1"/><stop offset="0.24978845" style="stop-color:#3c5795;stop-opacity:1"/><stop offset="0.64150769" style="stop-color:#3c5e9a;stop-opacity:1"/><stop offset="1" style="stop-color:#3b77ac;stop-opacity:1"/></linearGradient><linearGradient id="b"><stop offset="0" style="stop-color:#ea9b45;stop-opacity:1"/><stop offset="0.27560657" style="stop-color:#eb8e40;stop-opacity:1"/><stop offset="0.61528957" style="stop-color:#ed7d3a;stop-opacity:1"/><stop offset="1" style="stop-color:#f06835;stop-opacity:1"/></linearGradient><linearGradient id="a"><stop offset="0" style="stop-color:#349ecb;stop-opacity:1"/><stop offset="0.28280306" style="stop-color:#349ecb;stop-opacity:1"/><stop offset="0.50824118" style="stop-color:#3892c2;stop-opacity:1"/><stop offset="0.82161361" style="stop-color:#3b69a2;stop-opacity:1"/><stop offset="1" style="stop-color:#3c5493;stop-opacity:1"/></linearGradient><linearGradient xlink:href="#a" id="g" x1="295.82043" x2="9.9554653" y1="31.288706" y2="146.48804" gradientUnits="userSpaceOnUse"/><linearGradient xlink:href="#b" id="i" x1="451.397" x2="469.92825" y1="9.4688931" y2="29.219755" gradientUnits="userSpaceOnUse"/><linearGradient xlink:href="#c" id="e" x1="502.92334" x2="599.36871" y1="90.717743" y2="166.14081" gradientUnits="userSpaceOnUse"/><clipPath id="d"><path d="m964.098 664.868-2.419 13.573c1.778 0 3.221 0 3.795-3.232l1.262-7.11h7.229c.977 0 1.645.787 1.477 1.768-.171.985-1.109 1.787-2.089 1.787h-4.391c-.807 0-1.498.578-1.644 1.375l-.291 1.857h4.444l1.099 2.301c.599 1.07 1.313 1.254 2.325 1.254h2.246l-2.008-3.881-.094-.172a6.306 6.306 0 0 0 1.53-.97c.54-.459.996-.994 1.353-1.591a5.756 5.756 0 0 0 .74-1.95 4.723 4.723 0 0 0-.048-1.95 3.967 3.967 0 0 0-.786-1.592 3.882 3.882 0 0 0-1.396-1.072 4.461 4.461 0 0 0-1.874-.395zm-5.541 0-2.443 13.573c1.779 0 3.221 0 3.795-3.232l1.886-10.341zm-10.456.015a6.91 6.91 0 0 0-1.136.094l-.06.01-.207.036a8.214 8.214 0 0 0-3.135 1.299c-.218.143-.43.298-.632.471a8.046 8.046 0 0 0-.508.471c-.435.43-.822.91-1.154 1.429l-.013.02-.119.189-.06.097a7.46 7.46 0 0 0-.737 1.683 8.19 8.19 0 0 0-.296 1.343l-1.1 6.431s.375.003.663-.005c1.512-.035 2.71-.352 3.22-3.227l.74-4.169c.527-1.719 2.165-2.941 3.961-2.941h4.934l-.631 3.555h-5.617c-.802 0-1.489.57-1.641 1.359 0 0-.279 1.771-.297 1.873h6.981l-.631 3.555c1.779 0 3.222 0 3.795-3.232l1.801-10.341zm-18.273 0a3.296 3.296 0 0 0-3.252 2.757l-1.791 10.816c1.778 0 3.305 0 3.878-3.231l.195-1.361h5.257c1.779 0 3.221 0 3.795-3.232h-8.501l.431-2.518h7.906c1.778 0 3.221 0 3.794-3.231z"/></clipPath><clipPath id="f"><path d="M937.673 659.495c-14.287 1.184-27.197 6.081-29.775 11.521-2.572 5.427 4.842 9.993 17.209 11.327h8.14c-12.384-1.33-19.814-5.896-17.24-11.327 2.71-5.716 18.389-10.717 33.084-11.755a41.005 41.005 0 0 0-3.616-.143c-3 0-6.008.234-7.802.377"/></clipPath><clipPath id="h"><path d="M958.621 661.232c-.231 1.165.528 2.111 1.694 2.111s2.299-.946 2.53-2.111c.231-1.167-.527-2.113-1.694-2.113-1.167 0-2.299.946-2.53 2.113"/></clipPath></defs><g clip-path="url(#d)" transform="matrix(6.45856 0 0 6.45856 -5860.43 -4256.952)"><path d="M470.135 41.861c-27.797-.013-61.634.18-102.04.18H143.038v65.244l-1.487 70.62v1.316l77.59-1.316h338.437l15.163-1.003c23.22-.799 38.098-1.736 40.713-2.739 10.598-4.067 11.018-25.464 11.018-71.647V71.314l-.743-19.404.908-7.838.289-2.031H503.172c-9.915-.12-20.84-.174-33.037-.18z" style="fill:url(#e);fill-opacity:1;stroke-width:8.61141" transform="matrix(.11613 0 0 .11613 907.39 659.118)"/></g><path fill="#324381" d="M490.457 49.28c0 10.21 8.557 18.51 19.078 18.51 10.476 0 18.995-8.3 18.995-18.51 0-3.159-1.008-6.35-2.868-9.107h6.388v-9.39h-16.715v-1.945a5.61 5.61 0 0 0-5.6-5.6 5.61 5.61 0 0 0-5.6 5.6v1.944h-17.45v9.39h6.6c-1.834 2.7-2.828 5.878-2.828 9.107m10.702 0c0-4.792 3.758-8.693 8.376-8.693 4.599 0 8.203 3.824 8.203 8.693 0 4.715-3.869 8.7-8.448 8.7-4.482 0-8.131-3.9-8.131-8.7M502.25 72.074v25.292h43.144a4.36 4.36 0 0 0 4.36-4.353v-5.29H513.21V72.074ZM548.443 72.562V53.374h9.668v-9.811h-9.668V28.476a5.245 5.245 0 0 0-5.238-5.238h-.323c-2.88 0-5.231 2.35-5.231 5.238v48.898h5.974a4.82 4.82 0 0 0 4.818-4.812M590.021 70.761h-18.684v9.565h38.021v18.685h6.22a4.822 4.822 0 0 0 4.818-4.818V70.76h-19.092v-9.28h29.09v-9.566h-12.459c1.796-8.17 2.706-16.637 2.706-25.162v-.97h-49.718v9.727H609.1c-.11 5.858-1.22 11.548-2.325 16.405H560.44v9.565h29.58zM704.637 54.54h-33.675v-7.627a5.16 5.16 0 0 0-5.154-5.154h-.982a5.154 5.154 0 0 0-5.147 5.154v7.628h-24.995v9.565h69.953zM691.114 83.618c0-9.875-9.242-17.606-21.042-17.606-11.56 0-20.964 7.9-20.964 17.606 0 9.708 9.404 17.606 20.964 17.606 11.606 0 21.042-7.898 21.042-17.606m-11.199 0c0 4.747-4.417 8.61-9.843 8.61-5.386 0-9.758-3.863-9.758-8.61s4.372-8.615 9.758-8.615c5.426 0 9.843 3.868 9.843 8.615" style="stroke-width:6.45856"/><path fill="#324381" d="m681.011 50.842-.316 1.215h11.302l.162-.769c1.776-8.3 2.635-16.56 2.564-24.542v-.963h-49.55v9.804h38.092c-.116 4.483-.962 10.25-2.254 15.255M716.588 64.81c6.607-3.514 12.71-9.391 15.913-15.249 2.881 5.503 8.384 10.611 15.3 14.19l.653.329 6.891-7.208-1.162-.588c-9.417-4.83-15.533-12.613-16.14-20.447h10.127a3.356 3.356 0 0 0 3.345-3.352v-6.297h-38.402v9.649h13.22c-.632 8.55-6.749 16.288-17.289 21.849l-1.305.678 8.274 6.75zM770.934 83.042c0-9.933-9.217-18.02-20.551-18.02-11.342 0-20.558 8.087-20.558 18.02 0 9.927 9.216 18.013 20.558 18.013 11.334 0 20.55-8.086 20.55-18.013m-11.114 0c0 4.67-4.321 8.616-9.436 8.616-5.116 0-9.443-3.946-9.443-8.616s4.327-8.616 9.443-8.616c5.115 0 9.436 3.947 9.436 8.616" style="stroke-width:6.45856"/><path fill="#324381" d="M748.097 48.78h13.847v17.696h5.98a4.811 4.811 0 0 0 4.812-4.812v-33.19a5.234 5.234 0 0 0-5.231-5.232h-.323a5.24 5.24 0 0 0-5.238 5.232v10.501h-13.847zM791.726 82.648c14.596-8.622 24.206-20.176 28.773-34.463v9.61h14.176v41.129h5.974a4.815 4.815 0 0 0 4.812-4.812V28.474c0-2.887-2.338-5.238-5.225-5.238h-.336c-2.887 0-5.225 2.35-5.225 5.238v19.35h-14.067c1.848-5.91 2.862-12.265 2.978-19.092l.02-.988H787.23v9.81h24.31c-1.744 15.223-11.632 28.58-27.908 37.68l-1.26.697 8.778 7.066zM942.926 66.449l.006-.007c9.468-2.512 18.49-9.222 22.456-16.585 4.14 7.485 12.995 14.06 22.515 16.592l.594.155 6.878-8.106-1.472-.4C981.154 54.584 972.28 46.13 971.557 36.9h15.448a3.357 3.357 0 0 0 3.352-3.352v-6.381h-49.472V36.9h18.31c-.704 9.346-9.352 17.612-22.263 21.197l-1.472.4 6.878 8.106z" style="stroke-width:6.45856"/><path fill="#324381" d="M1000.105 83.686V78.3H971.1V61.753h-11.451V78.3h-29.503v9.81h65.535a4.427 4.427 0 0 0 4.424-4.424M1043.57 48.78h13.847v17.696h5.98a4.815 4.815 0 0 0 4.812-4.812v-33.19a5.24 5.24 0 0 0-5.238-5.232h-.323a5.234 5.234 0 0 0-5.231 5.232v10.501h-13.847zM1066.408 83.042c0-9.933-9.223-18.02-20.557-18.02-11.335 0-20.558 8.087-20.558 18.02 0 9.927 9.223 18.013 20.558 18.013 11.334 0 20.557-8.086 20.557-18.013m-11.121 0c0 4.67-4.328 8.616-9.436 8.616-5.116 0-9.436-3.946-9.436-8.616s4.32-8.616 9.436-8.616c5.108 0 9.436 3.947 9.436 8.616" style="stroke-width:6.45856"/><path fill="#324381" d="M1012.053 64.81c6.607-3.507 12.717-9.391 15.914-15.249 2.887 5.503 8.39 10.611 15.307 14.19l.652.329 6.885-7.208-1.156-.588c-9.417-4.83-15.54-12.613-16.14-20.447h10.12a3.357 3.357 0 0 0 3.352-3.352v-6.297h-38.409v9.649h13.227c-.639 8.544-6.749 16.288-17.29 21.842l-1.31.685 8.286 6.75zM1141.74 87.723h-38.085v-10.23c0-.594-.478-1.079-1.072-1.079h-8.81c-.6 0-1.078.485-1.078 1.079v18.8c0 .595.477 1.08 1.078 1.08h45.14c2.15 0 3.906-1.75 3.906-3.908v-4.67a1.08 1.08 0 0 0-1.078-1.072M1103.581 54.52c10.747 0 19.163-6.834 19.163-15.56 0-8.725-8.416-15.558-19.163-15.558s-19.162 6.833-19.162 15.559c0 8.725 8.415 15.558 19.162 15.558m-8.364-15.397c0-3.817 3.707-6.814 8.448-6.814 4.734 0 8.454 2.997 8.454 6.814 0 3.714-3.79 6.736-8.454 6.736-4.657 0-8.448-3.022-8.448-6.736M1114.573 67.58v6.594c0 .594.484 1.072 1.078 1.072h15.307v4.915h5.877a4.922 4.922 0 0 0 4.915-4.915V28.473a5.234 5.234 0 0 0-5.23-5.231h-.33a5.238 5.238 0 0 0-5.232 5.231v38.028h-15.307a1.08 1.08 0 0 0-1.078 1.079" style="stroke-width:6.45856"/><path fill="#324381" d="m1079.527 65.089 15.953-.155v8.745c0 .587.478 1.072 1.078 1.072h8.726a1.08 1.08 0 0 0 1.078-1.072V64.92h20.086V56.2h-48.006v7.81c0 .593.484 1.078 1.085 1.078M904.096 90.756V59.432h5.347v39.494h5.652a4.822 4.822 0 0 0 4.818-4.818V28.476a5.241 5.241 0 0 0-5.238-5.237 5.24 5.24 0 0 0-5.232 5.237V49.3h-5.347V29.78c0-2.887-2.345-5.231-5.316-5.231a5.238 5.238 0 0 0-5.231 5.231v65.787h5.735a4.815 4.815 0 0 0 4.812-4.812M890.917 74.235v-3.92h-21.888V58.778h18.678V27.746h-29.309v9.649h18.924v11.658h-18.924v31.272h26.429a6.097 6.097 0 0 0 6.09-6.09M502.348 138.384l-8.938-11.438-2.726 3.52v7.918h-4.004V111.64h4.004v12.956l10.146-12.956h4.8l-9.708 12.084 11.025 14.661zM552.383 138.384l-5.406-9.94h-6.175v9.94h-3.997V111.64h10.424c1.162 0 2.254.233 3.242.679a8.164 8.164 0 0 1 2.57 1.847 8.442 8.442 0 0 1 1.673 2.693 8.76 8.76 0 0 1 .594 3.184c0 1.64-.42 3.165-1.233 4.508a8.038 8.038 0 0 1-2.868 2.797l-.536.31 5.845 10.727zm-11.58-13.537h6.232c1.414 0 2.486-.439 3.249-1.33.755-.885 1.123-2.015 1.123-3.475 0-1.453-.368-2.596-1.123-3.468-.763-.898-1.828-1.337-3.25-1.337h-6.232zM559.75 138.384V111.64h15.164v3.669h-11.167v7.472h10.218v3.598h-10.218v8.338h11.567v3.668zM596.384 138.384l-2.01-5.812h-10.552l-1.977 5.812h-3.965l9.836-26.745h2.965l9.675 26.745zm-11.29-9.48h8.04l-4.016-11.368zM609.682 138.384V111.64h16.546v3.669H613.68v7.408h12.251l-1.408 3.597H613.68v12.071zM644.148 138.384l-2.015-5.812h-10.547l-1.976 5.812h-3.972l9.836-26.745h2.964l9.675 26.745zm-11.296-9.48h8.04l-4.017-11.368zM651.67 138.388h3.933v-26.745h-3.934zM675.711 138.384l-5.405-9.94h-6.175v9.94h-3.991V111.64h10.417c1.17 0 2.254.233 3.243.679a8.091 8.091 0 0 1 2.57 1.847 8.514 8.514 0 0 1 1.673 2.693 8.76 8.76 0 0 1 .594 3.184c0 1.647-.413 3.165-1.233 4.508a7.936 7.936 0 0 1-2.868 2.797l-.536.31 5.845 10.727zm-11.58-13.537h6.233c1.414 0 2.486-.439 3.248-1.33.756-.885 1.124-2.015 1.124-3.475 0-1.453-.368-2.59-1.124-3.468-.762-.898-1.827-1.337-3.248-1.337h-6.233zM697.317 138.384v-23.076h-7.312v-3.669h18.627v3.669h-7.285v23.076zM727.428 138.384l-5.406-9.94h-6.167v9.94h-3.998V111.64h10.417c1.163 0 2.254.233 3.243.679a8.164 8.164 0 0 1 2.57 1.847 8.442 8.442 0 0 1 1.673 2.693 8.785 8.785 0 0 1 .594 3.184c0 1.647-.42 3.165-1.234 4.508a8.038 8.038 0 0 1-2.867 2.797l-.536.31 5.845 10.727zm-11.573-13.537h6.226c1.42 0 2.486-.439 3.248-1.33.756-.885 1.124-2.015 1.124-3.475 0-1.453-.368-2.596-1.124-3.468-.762-.898-1.828-1.337-3.248-1.337h-6.226zM752.316 138.384l-2.009-5.812h-10.553l-1.977 5.812h-3.972l9.843-26.745h2.965l9.675 26.745zm-11.29-9.48h8.041l-4.017-11.368zM759.508 138.384V111.64h7.782c1.583 0 3.14.304 4.612.905 1.479.6 2.81 1.485 3.953 2.635 1.143 1.15 2.066 2.564 2.744 4.204.679 1.647 1.02 3.533 1.02 5.613 0 2.073-.341 3.965-1.02 5.625-.678 1.653-1.601 3.068-2.744 4.205a12.219 12.219 0 0 1-3.953 2.635c-1.48.613-3.03.923-4.612.923zm3.998-3.668h3.784c1.221 0 2.351-.226 3.365-.685a7.573 7.573 0 0 0 2.661-1.957c.743-.84 1.33-1.873 1.75-3.061.414-1.182.627-2.538.627-4.017 0-1.486-.213-2.836-.626-4.024-.42-1.182-1.008-2.209-1.75-3.042a7.743 7.743 0 0 0-2.662-1.944c-1.02-.446-2.15-.678-3.365-.678h-3.784zM783.173 138.384V111.64h15.17v3.669h-11.172v7.472h10.21v3.598h-10.21v8.338h11.567v3.668zM832.877 138.384v-19.162l-8.894 15.165-8.893-15.165v19.162h-3.96V111.64h3.514l9.34 16.063 9.403-16.063h3.455v26.745zM841.047 138.384V111.64h15.171v3.669h-11.173v7.472h10.218v3.598h-10.218v8.338h11.567v3.668zM860.166 138.384V111.64h7.783c1.582 0 3.139.304 4.605.905 1.479.6 2.816 1.485 3.96 2.635 1.142 1.15 2.066 2.564 2.744 4.204.678 1.647 1.02 3.533 1.02 5.613 0 2.08-.342 3.972-1.02 5.625-.678 1.653-1.602 3.068-2.745 4.205a12.246 12.246 0 0 1-3.959 2.635 11.94 11.94 0 0 1-4.605.923zm3.992-3.668h3.791c1.214 0 2.351-.226 3.365-.685a7.492 7.492 0 0 0 2.654-1.957c.75-.846 1.337-1.873 1.75-3.061.414-1.182.627-2.532.627-4.017 0-1.486-.213-2.836-.626-4.024-.414-1.182-1.001-2.209-1.75-3.042a7.78 7.78 0 0 0-2.655-1.944c-1.02-.446-2.15-.678-3.365-.678h-3.791zM884.152 138.388h3.933v-26.745h-3.933zM910.15 138.384l-2.016-5.812h-10.547l-1.976 5.812h-3.972l9.836-26.745h2.965l9.681 26.745zm-11.29-9.48h8.04l-4.017-11.368zM921.363 138.384v-23.076h-7.317v-3.669h18.633v3.669h-7.286v23.076zM936.227 138.388h3.927v-26.745h-3.927zM992.231 138.384l-14.629-18.768v18.768h-3.965V111.64h2.596l13.75 17.774V111.64h3.966v26.745zM1021.753 138.384l-2.015-5.812h-10.547l-1.976 5.812h-3.972l9.843-26.745h2.958l9.675 26.745zm-11.296-9.48h8.047l-4.017-11.368zM1053.83 138.384V111.64h15.165v3.669h-11.167v7.472h10.218v3.598h-10.218v8.338h11.567v3.668zM1091.54 138.384l-14.628-18.768v18.768h-3.966V111.64h2.597l13.743 17.774V111.64h3.966v26.745zM1129.537 138.384v-10.876l-9.281-15.869h4.43l6.866 11.871 6.833-11.87h4.43l-9.248 15.868v10.876zM520.233 138.672c-6.768 0-12.277-6.168-12.277-13.743 0-7.583 5.509-13.75 12.277-13.75 6.775 0 12.278 6.167 12.278 13.75 0 7.575-5.503 13.743-12.278 13.743m0-22.947c-4.566 0-8.28 4.127-8.28 9.204 0 5.07 3.714 9.197 8.28 9.197 4.573 0 8.287-4.128 8.287-9.197 0-5.077-3.714-9.204-8.287-9.204M957.062 138.672c-6.768 0-12.277-6.168-12.277-13.743 0-7.583 5.509-13.75 12.277-13.75 6.769 0 12.278 6.167 12.278 13.75 0 7.575-5.51 13.743-12.278 13.743m0-22.947c-4.572 0-8.28 4.127-8.28 9.204 0 5.07 3.708 9.197 8.28 9.197 4.566 0 8.28-4.128 8.28-9.197 0-5.077-3.714-9.204-8.28-9.204M1109.34 138.672c-6.774 0-12.277-6.168-12.277-13.743 0-7.583 5.503-13.75 12.278-13.75 3.63 0 7.027 1.782 9.378 4.895l-2.855 3.19c-1.563-2.228-3.96-3.539-6.523-3.539-4.566 0-8.286 4.127-8.286 9.204 0 5.07 3.72 9.197 8.286 9.197 2.428 0 5.031-1.454 6.665-3.675l2.739 3.293c-2.351 3.14-5.755 4.928-9.404 4.928M1037.809 138.791c-3.475 0-6.808-1.666-9.14-4.572-2.37-2.965-3.461-6.782-3.06-10.76.613-6.052 4.947-11.103 10.32-12 .626-.11 1.26-.162 1.886-.162 3.61 0 6.988 1.763 9.333 4.844l-2.648 3.507c-1.557-2.396-4.005-3.798-6.691-3.798-2.493 0-4.831 1.227-6.42 3.385-1.57 2.137-2.19 4.934-1.699 7.679.633 3.526 3.178 6.38 6.342 7.124l1.693.193c2.822 0 5.535-1.627 7.059-4.243l.607-1.233.187-.543.097-.316.11-.394.187-.795-1.918.013h-5.36v-3.668h11.237c.097.684.136 1.35.136 1.982 0 3.004-.865 5.865-2.5 8.28l-.11.175-.193.297-.73.891-.691.717-.168.168a11.83 11.83 0 0 1-4.463 2.667l-.187.078-.342.084c-.97.271-1.931.4-2.874.4" style="stroke-width:6.45856"/><g clip-path="url(#f)" transform="matrix(6.45856 0 0 6.45856 -5860.43 -4256.952)"><path d="m-44.758-28.038-7.11 136.047V123.511l-1.423 112.915 263.11 17.587-162.12-8.533c-49.305 16.41-161.376 39.459 36.947 8.54 1.162-.182-20.624-2.85-19.473-2.851L47.7 245.48s185.028 40.758 244.763-10.989c-451.379 13.068 202.699-17.996 161.04-134.31L468.57-26.615 96.728-33.727H41.63z" style="fill:url(#g);fill-opacity:1;stroke-width:8.61141" transform="matrix(.11613 0 0 .11613 907.39 659.118)"/></g><g clip-path="url(#h)" transform="matrix(6.45856 0 0 6.45856 -5860.43 -4256.952)"><path d="m488.352-9.607-4.348 3.834c-.106.076-.21.148-.326.235-.37-.34-.75-.588-1.142-.702-.42-.236-.852-.365-1.293-.365-.02 0-.045.008-.065.008-.04-.002-.079-.008-.119-.008-.412 0-.897.084-1.416.207a4.855 4.855 0 0 0-1.377-.207c-.362 0-.74.026-1.133.07-.355-.042-8.023-2.22-8.39-2.22-.447 0-.906.024-1.376.07a23.897 23.897 0 0 0-1.824-.07c-3.885 0-7.764.734-11.465 2.038-14.601 2.368-19.76 17.696-21.622 30.554 24.473 46.473-1.506 5.62-1.576 8.298-.013.495.063.976.174 1.446-.103.602-.604.332-.604.894 0 .12.014.239.031.357-.007.12-.03.246-.03.362 0 .281.063.56.175.834-.104.36-.176.699-.176.994 0 .068.014.135.026.203-.004.053-.026.117-.026.168 0 .394.255.775.693 1.144l-3.695 3.934 32.71-.43h4.473c.325 0 .618-.012.935-.016.22-.002.432-.006.647-.01.917.007 1.687.026 2.723.026l.076-.002.205.002c.15 0 .293-.011.441-.014.208.002.402.014.612.014.596 0 1.185-.022 1.763-.064.823.041 1.673.064 2.543.064 5.128 0 9.57-3.284 11.653-7.996a10.238 10.238 0 0 0 1.263-4.922c0-.07-.005-.136-.006-.205 0-.033.006-.065.006-.098 0-.18-.01-.333-.011-.508 0-.081.011-.16.011-.242 0-.779-.01-1.504-.03-2.185.01-.357.03-.696.03-1.067 0-.368-.006-.68-.008-1.035 0-.103.008-.194.008-.299 0-.751-.013-1.284-.015-1.974.003-.34.015-.648.015-.998v-.303l-.002-.154.002-.116-.002-.142-.002-.5c0-.1.004-.185.004-.285z" style="fill:url(#i);fill-opacity:1;stroke-width:8.61141" transform="matrix(.11613 0 0 .11613 907.39 659.118)"/></g></svg>