<svg xmlns="http://www.w3.org/2000/svg" width="885.44983" height="147.03598" viewBox="0 0 885.44981 147.03598"><defs><clipPath id="a" clipPathUnits="userSpaceOnUse"><path d="M-179.49 243.769H662.4v-595.276h-841.89Z"/></clipPath><clipPath id="b" clipPathUnits="userSpaceOnUse"><path d="M-187.79 318.861H654.1v-595.276h-841.89Z"/></clipPath><clipPath id="c" clipPathUnits="userSpaceOnUse"><path d="M-120.049 288.448h841.89v-595.276h-841.89Z"/></clipPath><clipPath id="d" clipPathUnits="userSpaceOnUse"><path d="M-156.593 288.448h841.89v-595.276h-841.89Z"/></clipPath><clipPath id="e" clipPathUnits="userSpaceOnUse"><path d="M-243.612 260.249h841.89v-595.276h-841.89Z"/></clipPath><clipPath id="f" clipPathUnits="userSpaceOnUse"><path d="M-210.599 277.534h841.89v-595.276h-841.89Z"/></clipPath><clipPath id="g" clipPathUnits="userSpaceOnUse"><path d="M-214.323 292.006h841.89V-303.27h-841.89Z"/></clipPath><clipPath id="h" clipPathUnits="userSpaceOnUse"><path d="M-295.512 261.508h841.89v-595.276h-841.89Z"/></clipPath><clipPath id="i" clipPathUnits="userSpaceOnUse"><path d="M-326.843 305.635h841.89v-595.276h-841.89Z"/></clipPath><clipPath id="j" clipPathUnits="userSpaceOnUse"><path d="M-309.93 280.62h841.89v-595.276h-841.89Z"/></clipPath><clipPath id="k" clipPathUnits="userSpaceOnUse"><path d="M-377.488 269.96h841.89v-595.277h-841.89Z"/></clipPath><clipPath id="l" clipPathUnits="userSpaceOnUse"><path d="M-380.758 284.176h841.89V-311.1h-841.89Z"/></clipPath><clipPath id="m" clipPathUnits="userSpaceOnUse"><path d="M0 595.276h841.89V0H0Z"/></clipPath><clipPath id="n" clipPathUnits="userSpaceOnUse"><path d="M-417.109 292.006h841.89V-303.27h-841.89Z"/></clipPath><clipPath id="o" clipPathUnits="userSpaceOnUse"><path d="M0 595.276h841.89V0H0Z"/></clipPath><clipPath id="p" clipPathUnits="userSpaceOnUse"><path d="M-487.13 271.007h841.89V-324.27h-841.89Z"/></clipPath><clipPath id="q" clipPathUnits="userSpaceOnUse"><path d="M-491.98 275.58h841.89v-595.276h-841.89Z"/></clipPath><clipPath id="r" clipPathUnits="userSpaceOnUse"><path d="M-508.13 267.283h841.89v-595.276h-841.89Z"/></clipPath><clipPath id="s" clipPathUnits="userSpaceOnUse"><path d="M0 595.276h841.89V0H0Z"/></clipPath><clipPath id="t" clipPathUnits="userSpaceOnUse"><path d="M0 595.276h841.89V0H0Z"/></clipPath><clipPath id="u" clipPathUnits="userSpaceOnUse"><path d="M-569.042 280.146h841.89V-315.13h-841.89Z"/></clipPath><clipPath id="v" clipPathUnits="userSpaceOnUse"><path d="M-627.238 282.608h841.89v-595.276h-841.89Z"/></clipPath><clipPath id="w" clipPathUnits="userSpaceOnUse"><path d="M-608.486 298.05h841.89v-595.276h-841.89Z"/></clipPath><clipPath id="x" clipPathUnits="userSpaceOnUse"><path d="M-678.648 305.249h841.89v-595.276h-841.89Z"/></clipPath><clipPath id="y" clipPathUnits="userSpaceOnUse"><path d="M-720.74 303.227h841.89v-595.276h-841.89Z"/></clipPath><clipPath id="z" clipPathUnits="userSpaceOnUse"><path d="M-718.44 272.555h841.89v-595.276h-841.89Z"/></clipPath><clipPath id="A" clipPathUnits="userSpaceOnUse"><path d="M-207.69 320.159H634.2v-595.276h-841.89Z"/></clipPath><clipPath id="B" clipPathUnits="userSpaceOnUse"><path d="M-227.494 333.687h841.89V-261.59h-841.89Z"/></clipPath><clipPath id="C" clipPathUnits="userSpaceOnUse"><path d="M-233.475 324.105h841.89V-271.17h-841.89Z"/></clipPath><clipPath id="D" clipPathUnits="userSpaceOnUse"><path d="M-243.217 335.434h841.89v-595.276h-841.89Z"/></clipPath><clipPath id="E" clipPathUnits="userSpaceOnUse"><path d="M-259.34 330.67h841.89v-595.276h-841.89Z"/></clipPath><clipPath id="F" clipPathUnits="userSpaceOnUse"><path d="M-279.207 323.076h841.89V-272.2h-841.89Z"/></clipPath><clipPath id="G" clipPathUnits="userSpaceOnUse"><path d="M-287.658 320.159h841.89v-595.276h-841.89Z"/></clipPath><clipPath id="H" clipPathUnits="userSpaceOnUse"><path d="M-303.896 320.159h841.89v-595.276h-841.89Z"/></clipPath><clipPath id="I" clipPathUnits="userSpaceOnUse"><path d="M-322.356 326.198h841.89v-595.276h-841.89Z"/></clipPath><clipPath id="J" clipPathUnits="userSpaceOnUse"><path d="M-335.005 335.6h841.89v-595.277h-841.89Z"/></clipPath><clipPath id="K" clipPathUnits="userSpaceOnUse"><path d="M-360.561 323.076h841.89V-272.2h-841.89Z"/></clipPath><clipPath id="L" clipPathUnits="userSpaceOnUse"><path d="M-369.027 321.269h841.89v-595.276h-841.89Z"/></clipPath><clipPath id="M" clipPathUnits="userSpaceOnUse"><path d="M-379.434 330.67h841.89v-595.276h-841.89Z"/></clipPath><clipPath id="N" clipPathUnits="userSpaceOnUse"><path d="M-385.655 324.105h841.89V-271.17h-841.89Z"/></clipPath><clipPath id="O" clipPathUnits="userSpaceOnUse"><path d="M-397.474 321.269h841.89v-595.276h-841.89Z"/></clipPath><clipPath id="P" clipPathUnits="userSpaceOnUse"><path d="M-409.587 324.105h841.89V-271.17h-841.89Z"/></clipPath><clipPath id="Q" clipPathUnits="userSpaceOnUse"><path d="M-417.291 332.21h841.89v-595.275h-841.89Z"/></clipPath><clipPath id="R" clipPathUnits="userSpaceOnUse"><path d="M-433.618 326.198h841.89v-595.276h-841.89Z"/></clipPath><clipPath id="S" clipPathUnits="userSpaceOnUse"><path d="M-445.776 335.946h841.89V-259.33h-841.89Z"/></clipPath><clipPath id="T" clipPathUnits="userSpaceOnUse"><path d="M0 595.276h841.89V0H0Z"/></clipPath><clipPath id="U" clipPathUnits="userSpaceOnUse"><path d="M-469.739 326.198h841.89v-595.276h-841.89Z"/></clipPath><clipPath id="V" clipPathUnits="userSpaceOnUse"><path d="M-477.787 321.269h841.89v-595.276h-841.89Z"/></clipPath><clipPath id="W" clipPathUnits="userSpaceOnUse"><path d="M-481.916 324.105h841.89V-271.17h-841.89Z"/></clipPath><clipPath id="X" clipPathUnits="userSpaceOnUse"><path d="M0 595.276h841.89V0H0Z"/></clipPath><clipPath id="Y" clipPathUnits="userSpaceOnUse"><path d="M-496.887 332.21h841.89v-595.275h-841.89Z"/></clipPath><clipPath id="Z" clipPathUnits="userSpaceOnUse"><path d="M-514.359 324.105h841.89V-271.17h-841.89Z"/></clipPath><clipPath id="aa" clipPathUnits="userSpaceOnUse"><path d="M-522.072 321.269h841.89v-595.276h-841.89Z"/></clipPath><clipPath id="ab" clipPathUnits="userSpaceOnUse"><path d="M0 595.276h841.89V0H0Z"/></clipPath><clipPath id="ac" clipPathUnits="userSpaceOnUse"><path d="M-537.564 333.687h841.89V-261.59h-841.89Z"/></clipPath><clipPath id="ad" clipPathUnits="userSpaceOnUse"><path d="M-545.403 335.946h841.89V-259.33h-841.89Z"/></clipPath><clipPath id="ae" clipPathUnits="userSpaceOnUse"><path d="M-562.028 335.6h841.89v-595.277h-841.89Z"/></clipPath><clipPath id="af" clipPathUnits="userSpaceOnUse"><path d="M-581.466 320.159h841.89v-595.276h-841.89Z"/></clipPath><clipPath id="ag" clipPathUnits="userSpaceOnUse"><path d="M-602.858 330.67h841.89v-595.276h-841.89Z"/></clipPath><clipPath id="ah" clipPathUnits="userSpaceOnUse"><path d="M-608.61 324.105h841.89V-271.17h-841.89Z"/></clipPath><clipPath id="ai" clipPathUnits="userSpaceOnUse"><path d="M-619.406 330.334h841.89v-595.276h-841.89Z"/></clipPath><clipPath id="aj" clipPathUnits="userSpaceOnUse"><path d="M-629.05 335.434h841.89v-595.276h-841.89Z"/></clipPath><clipPath id="ak" clipPathUnits="userSpaceOnUse"><path d="M-642.017 321.269h841.89v-595.276h-841.89Z"/></clipPath><clipPath id="al" clipPathUnits="userSpaceOnUse"><path d="M0 595.276h841.89V0H0Z"/></clipPath><clipPath id="am" clipPathUnits="userSpaceOnUse"><path d="M-653.079 335.946h841.89V-259.33h-841.89Z"/></clipPath><clipPath id="an" clipPathUnits="userSpaceOnUse"><path d="M-669.546 333.38h841.89v-595.277h-841.89Z"/></clipPath><clipPath id="ao" clipPathUnits="userSpaceOnUse"><path d="M0 595.276h841.89V0H0Z"/></clipPath><clipPath id="ap" clipPathUnits="userSpaceOnUse"><path d="M-701.218 333.38h841.89v-595.277h-841.89Z"/></clipPath><clipPath id="aq" clipPathUnits="userSpaceOnUse"><path d="M-709.294 335.434h841.89v-595.276h-841.89Z"/></clipPath><clipPath id="ar" clipPathUnits="userSpaceOnUse"><path d="M-721.465 335.946h841.89V-259.33h-841.89Z"/></clipPath><clipPath id="as" clipPathUnits="userSpaceOnUse"><path d="M-733.368 335.41h841.89v-595.276h-841.89Z"/></clipPath><clipPath id="at" clipPathUnits="userSpaceOnUse"><path d="M-743.013 340.34h841.89v-595.277h-841.89Z"/></clipPath></defs><path d="M0 0c-.057.211-.405 1.269-1.656 1.269h-39.488c-2.226 0-4.423-.588-6.352-1.701l-36.742-21.214a12.74 12.74 0 0 1-6.351-11v-42.426c0-4.538 2.421-8.731 6.351-11l10.02-5.785a2.79 2.79 0 0 1 2.796.005l21.999 12.787a.883.883 0 0 1-.002 1.528l-16.365 9.448v28.325l.482.405 21.139 12.214L-.796-1.933C.288-1.304.058-.212 0 0" clip-path="url(#a)" style="fill:#00479b;fill-opacity:1;fill-rule:nonzero;stroke:none" transform="matrix(1.33333 0 0 -1.33333 120.785 1.692)"/><path d="M0 0v42.425c0 4.538-2.421 8.732-6.352 11.001l-10.019 5.784c-.865.5-1.932.498-2.796-.004l-21.999-12.787a.883.883 0 0 1 .002-1.528l16.366-9.448V7.117l-.485-.406-21.136-12.212-43.374-25.213c-1.083-.629-.854-1.72-.796-1.932s.406-1.27 1.657-1.27h39.487c2.226 0 4.423.589 6.352 1.702l36.742 21.213A12.74 12.74 0 0 1 0 0" clip-path="url(#b)" style="fill:#00a2a2;fill-opacity:1;fill-rule:nonzero;stroke:none" transform="matrix(1.33333 0 0 -1.33333 131.852 101.815)"/><path d="M0 0v-18.49c0-.53.574-.861 1.033-.596l17.239 9.985v20.218L.451.782A.9.9 0 0 1 0 0" clip-path="url(#c)" style="fill:#00a2a2;fill-opacity:1;fill-rule:nonzero;stroke:none" transform="matrix(1.33333 0 0 -1.33333 41.53 61.264)"/><path d="M0 0v-18.49a.69.69 0 0 0-1.033-.596l-17.239 9.985v20.218L-.451.782A.9.9 0 0 0 0 0" clip-path="url(#d)" style="fill:#00479b;fill-opacity:1;fill-rule:nonzero;stroke:none" transform="matrix(1.33333 0 0 -1.33333 90.255 61.264)"/><path d="M0 0h-6.484v-34.134H0v16.751h6.407v6.376H0Z" clip-path="url(#e)" style="fill:#00479b;fill-opacity:1;fill-rule:nonzero;stroke:none" transform="matrix(1.33333 0 0 -1.33333 206.281 23.665)"/><path d="M0 0c0 1.78.665 3.338 1.978 4.63 1.313 1.296 2.901 1.954 4.717 1.954 1.817 0 3.405-.658 4.718-1.954 1.313-1.292 1.978-2.85 1.978-4.63 0-1.783-.665-3.341-1.978-4.634-1.31-1.296-2.898-1.954-4.718-1.954s-3.408.658-4.717 1.954C.665-3.341 0-1.783 0 0m1.722-11.161a12.8 12.8 0 0 1 4.973-.98c1.743 0 3.415.329 4.97.98a14.2 14.2 0 0 1 4.133 2.599 13.3 13.3 0 0 1 2.767 3.878A11 11 0 0 1 19.599 0c0 1.639-.339 3.203-1.011 4.657-.433.866-.95 1.679-1.544 2.418h4.69v5.557H10.238v5.584H3.153v-5.584H-8.948V7.075h5.295a12 12 0 0 1-1.491-2.418A10.56 10.56 0 0 1-6.212 0c0-1.635.349-3.213 1.038-4.684a13.2 13.2 0 0 1 2.77-3.885 14.3 14.3 0 0 1 4.126-2.592" clip-path="url(#f)" style="fill:#00479b;fill-opacity:1;fill-rule:nonzero;stroke:none" transform="matrix(1.33333 0 0 -1.33333 162.264 46.712)"/><path d="M0 0h-6.541v-16.775h37.419v5.772H0Z" clip-path="url(#g)" style="fill:#00479b;fill-opacity:1;fill-rule:nonzero;stroke:none" transform="matrix(1.33333 0 0 -1.33333 167.229 66.008)"/><path d="M0 0h-38.62v-5.775h32.136v-13.116h-35.038v-5.664h18.995v-5.45h-16.641v-5.825h32.684v-12.044H0v17.869h-16.097v5.45H2.901v5.664H0Z" clip-path="url(#h)" style="fill:#00479b;fill-opacity:1;fill-rule:nonzero;stroke:none" transform="matrix(1.33333 0 0 -1.33333 275.481 25.344)"/><path d="M0 0c-1.568 0-2.928.537-4.039 1.598-1.108 1.051-1.669 2.324-1.669 3.781 0 1.454.561 2.727 1.669 3.781 1.111 1.061 2.471 1.598 4.039 1.598s2.924-.537 4.036-1.598c1.111-1.058 1.672-2.33 1.672-3.781 0-1.454-.561-2.726-1.672-3.781C2.924.537 1.568 0 0 0m-22.211 17.766h18.994v-1.844q-.725-.202-1.37-.45c-1.45-.594-2.726-1.383-3.801-2.35a11.5 11.5 0 0 1-2.575-3.499 9.7 9.7 0 0 1-.957-4.244c0-1.494.322-2.921.957-4.244a11.5 11.5 0 0 1 2.579-3.502c1.071-.964 2.34-1.743 3.77-2.32 1.434-.578 2.985-.87 4.614-.87 1.628 0 3.18.292 4.613.87C6.04-4.11 7.31-3.331 8.388-2.364a11.5 11.5 0 0 1 2.575 3.499 9.8 9.8 0 0 1 .957 4.244 9.8 9.8 0 0 1-.957 4.244 11.5 11.5 0 0 1-2.579 3.502 13.3 13.3 0 0 1-3.747 2.347c-.494.199-.964.35-1.424.46v1.834h18.998v5.718h-44.422z" clip-path="url(#i)" style="fill:#00479b;fill-opacity:1;fill-rule:nonzero;stroke:none" transform="matrix(1.33333 0 0 -1.33333 317.256 84.18)"/><path d="m0 0 16.913 11.477L33.631.131 33.826 0l3.723 4.624-14.139 9.317h13.253v5.609h-39.5v-5.609h13.253L-3.485 4.778l-.239-.154L-.151.185Z" clip-path="url(#j)" style="fill:#00479b;fill-opacity:1;fill-rule:nonzero;stroke:none" transform="matrix(1.33333 0 0 -1.33333 294.706 50.827)"/><path d="m0 0 15.731-19.945.154-.195 4.741 3.486.219.157L.201 9.393 0 9.645l-20.731-25.93-.171-.215 5.131-3.636z" clip-path="url(#k)" style="fill:#00479b;fill-opacity:1;fill-rule:nonzero;stroke:none" transform="matrix(1.33333 0 0 -1.33333 384.782 36.612)"/><path d="M0 0h-6.541v-14.673h-18.941v-5.772h44.423v5.772H0Z" clip-path="url(#l)" style="fill:#00479b;fill-opacity:1;fill-rule:nonzero;stroke:none" transform="matrix(1.33333 0 0 -1.33333 389.143 55.568)"/><path d="M413.22 321.261h8.136v-8.737h-8.136zm14.455-3.066h5.121v-16.973h6.266v33.805h-6.266v-11.114h-5.121v10.238h-6.319v-7.283h-8.136v7.283h-6.319v-27.292h20.774z" clip-path="url(#m)" style="fill:#00479b;fill-opacity:1;fill-rule:nonzero;stroke:none" transform="matrix(1.33333 0 0 -1.33333 -118.535 470.368)"/><path d="M0 0h-6.538v-16.775h40.263v5.772H0Z" clip-path="url(#n)" style="fill:#00479b;fill-opacity:1;fill-rule:nonzero;stroke:none" transform="matrix(1.33333 0 0 -1.33333 437.61 66.008)"/><path d="M449.793 335.027h-6.373v-33.805h6.373z" clip-path="url(#o)" style="fill:#00479b;fill-opacity:1;fill-rule:nonzero;stroke:none" transform="matrix(1.33333 0 0 -1.33333 -118.535 470.368)"/><path d="M0 0v5.612h-11.551v5.638h-6.977V5.612h-12.101V0h11.577l-12.101-26.57-.107-.238 5.385-2.347.235-.104 10.654 23.957 10.55-23.722.105-.235L.94-26.912l.238.104L-11.027 0Z" clip-path="url(#p)" style="fill:#00479b;fill-opacity:1;fill-rule:nonzero;stroke:none" transform="matrix(1.33333 0 0 -1.33333 530.973 38.009)"/><path d="M0 0h-8.65v-5.772H0v-27.923h6.484v49.026H0Z" clip-path="url(#q)" style="fill:#00479b;fill-opacity:1;fill-rule:nonzero;stroke:none" transform="matrix(1.33333 0 0 -1.33333 537.437 44.107)"/><path d="M0 0h18.394v-30.824h6.487V5.831H0Z" clip-path="url(#r)" style="fill:#00479b;fill-opacity:1;fill-rule:nonzero;stroke:none" transform="matrix(1.33333 0 0 -1.33333 558.971 33.044)"/><path d="M542.62 286.001h6.484v49.026h-6.484z" clip-path="url(#s)" style="fill:#00479b;fill-opacity:1;fill-rule:nonzero;stroke:none" transform="matrix(1.33333 0 0 -1.33333 -118.535 470.368)"/><path d="M569.472 297.334h23.9v-5.285h-23.9zm23.9 5.61h-23.9v4.16h-6.376v-20.72h36.649v20.72h-6.373z" clip-path="url(#t)" style="fill:#00479b;fill-opacity:1;fill-rule:nonzero;stroke:none" transform="matrix(1.33333 0 0 -1.33333 -118.535 470.368)"/><path d="M0 0a8 8 0 0 0-2.334 1.541 7 7 0 0 0-1.588 2.243 6.6 6.6 0 0 0-.577 2.713c0 .94.194 1.854.577 2.713.39.863.924 1.619 1.588 2.247A8.2 8.2 0 0 0 0 12.998c.88.382 1.82.577 2.797.577.98 0 1.921-.195 2.797-.577a8.2 8.2 0 0 0 2.337-1.541 7.1 7.1 0 0 0 1.585-2.243 6.67 6.67 0 0 0 0-5.43 7 7 0 0 0-1.585-2.243A8.1 8.1 0 0 0 5.594 0 7.06 7.06 0 0 0 0 0m24.219 9.932h-8.36c-.145.49-.333.991-.561 1.491a13.5 13.5 0 0 1-2.905 4.13 13 13 0 0 1-4.328 2.767 14.4 14.4 0 0 1-5.268.975c-1.847 0-3.62-.329-5.268-.975-1.652-.652-3.11-1.583-4.325-2.767a13.4 13.4 0 0 1-2.904-4.13 11.8 11.8 0 0 1-1.065-4.926c0-1.712.359-3.361 1.065-4.895a13.5 13.5 0 0 1 2.901-4.103c1.218-1.186 2.676-2.116 4.328-2.764a14.3 14.3 0 0 1 5.268-.977c1.847 0 3.62.329 5.268.977a13 13 0 0 1 4.332 2.764 13.6 13.6 0 0 1 2.901 4.13c.379.832.665 1.699.849 2.585h8.072V-6.625h6.484v26.523h-6.484z" clip-path="url(#u)" style="fill:#00479b;fill-opacity:1;fill-rule:nonzero;stroke:none" transform="matrix(1.33333 0 0 -1.33333 640.188 50.195)"/><path d="M0 0a8.9 8.9 0 0 0-2.878 1.921 8.8 8.8 0 0 0-1.944 2.763 8.3 8.3 0 0 0-.715 3.398c0 1.195.242 2.34.715 3.398a8.8 8.8 0 0 0 1.948 2.774A8.8 8.8 0 0 0 0 16.164c1.088.46 2.25.693 3.458.693a8.9 8.9 0 0 0 3.462-.693 8.8 8.8 0 0 0 2.875-1.917 8.7 8.7 0 0 0 1.94-2.767 8.2 8.2 0 0 0 .719-3.398 8.2 8.2 0 0 0-.719-3.398 8.8 8.8 0 0 0-1.944-2.77A8.9 8.9 0 0 0 6.917 0 9.01 9.01 0 0 0 0 0m-7.447-2.183c1.407-1.292 3.062-2.34 4.922-3.112 1.864-.776 3.878-1.169 5.983-1.169 2.106 0 4.12.393 5.984 1.169 1.86.772 3.515 1.82 4.922 3.116a14.5 14.5 0 0 1 3.345 4.596 13.4 13.4 0 0 1 1.228 5.665 13.4 13.4 0 0 1-1.228 5.664 14.5 14.5 0 0 1-3.345 4.602c-1.403 1.293-3.059 2.341-4.919 3.115a15.5 15.5 0 0 1-5.987 1.17c-2.105 0-4.119-.395-5.983-1.17s-3.519-1.822-4.922-3.115a14.5 14.5 0 0 1-3.345-4.602 13.4 13.4 0 0 1-1.229-5.664c0-1.995.413-3.902 1.229-5.665a14.6 14.6 0 0 1 3.345-4.6" clip-path="url(#v)" style="fill:#00479b;fill-opacity:1;fill-rule:nonzero;stroke:none" transform="matrix(1.33333 0 0 -1.33333 717.783 53.477)"/><path d="M0 0h9.032v-11.225h6.43V0H28.96v-11.225h6.43V0h9.033v5.718H0Z" clip-path="url(#w)" style="fill:#00479b;fill-opacity:1;fill-rule:nonzero;stroke:none" transform="matrix(1.33333 0 0 -1.33333 692.779 74.067)"/><path d="M0 0a7.7 7.7 0 0 0-2.219 1.451 7.7 7.7 0 0 0-1.538 2.202 6.2 6.2 0 0 0-.578 2.653c0 .943.195 1.836.581 2.659.386.826.9 1.565 1.531 2.189A7.7 7.7 0 0 0 0 12.615a6.7 6.7 0 0 0 2.69.551 6.7 6.7 0 0 0 2.689-.551 7.8 7.8 0 0 0 2.22-1.454 7.7 7.7 0 0 0 1.534-2.199c.386-.82.581-1.713.581-2.656s-.195-1.837-.581-2.653a7.6 7.6 0 0 0-1.531-2.196A7.7 7.7 0 0 0 5.379 0 6.86 6.86 0 0 0 0 0m5.96 22.362h16.698v5.554h-32.849v2.713H22v5.389h-32.191v2.659H22v5.556h-38.621V22.362h16.04V19.32h-18.941v-5.607h11.786a13 13 0 0 1-1.743-2.693 10.7 10.7 0 0 1-1.064-4.714c0-1.672.359-3.277 1.064-4.765a13 13 0 0 1 2.847-3.908A13.6 13.6 0 0 1-2.444-5.02c1.591-.648 3.32-.977 5.134-.977 1.813 0 3.542.329 5.133.977 1.595.652 3.002 1.545 4.188 2.653a12.9 12.9 0 0 1 2.844 3.908 11 11 0 0 1 1.067 4.765c0 1.675-.359 3.263-1.067 4.711-.47.977-1.055 1.88-1.74 2.696h11.786v5.607H5.96Z" clip-path="url(#x)" style="fill:#00479b;fill-opacity:1;fill-rule:nonzero;stroke:none" transform="matrix(1.33333 0 0 -1.33333 786.33 83.665)"/><path d="M0 0v8.32h-6.541V-5.665h38.789V0Z" clip-path="url(#y)" style="fill:#00479b;fill-opacity:1;fill-rule:nonzero;stroke:none" transform="matrix(1.33333 0 0 -1.33333 842.453 80.97)"/><path d="M0 0c0 .94.195 1.833.574 2.656.39.829.907 1.568 1.538 2.199a7.1 7.1 0 0 0 2.246 1.508c.86.368 1.776.554 2.72.554.94 0 1.857-.186 2.72-.554a7.1 7.1 0 0 0 2.246-1.508 7.7 7.7 0 0 0 1.531-2.199A6.2 6.2 0 0 0 14.156 0a6.2 6.2 0 0 0-.581-2.656 7.7 7.7 0 0 0-1.531-2.199 7.2 7.2 0 0 0-2.246-1.501 6.97 6.97 0 0 0-5.44 0 7.2 7.2 0 0 0-2.246 1.501A7.8 7.8 0 0 0 .578-2.656 6.25 6.25 0 0 0 0 0m2.824-21.828h6.537v8.542h17.386v-3.372h-9.854v-5.335h9.854v-3.942h6.484v38.241h-6.484V-7.733h-9.186a13.7 13.7 0 0 1 1.904 2.915A11.16 11.16 0 0 1 20.529 0c0 1.709-.359 3.348-1.061 4.872A13 13 0 0 1 16.56 8.9c-1.225 1.111-2.669 2.011-4.294 2.674a13.6 13.6 0 0 1-5.188 1.006c-1.813 0-3.559-.339-5.188-1.006-1.625-.663-3.069-1.563-4.298-2.678a13 13 0 0 1-2.904-4.024A11.56 11.56 0 0 1-6.376 0c0-1.702.359-3.324 1.067-4.818a13.7 13.7 0 0 1 1.904-2.915h-5.762v-5.553H2.824Z" clip-path="url(#z)" style="fill:#00479b;fill-opacity:1;fill-rule:nonzero;stroke:none" transform="matrix(1.33333 0 0 -1.33333 839.386 40.073)"/><path d="M0 0h2.398v-7.531h.207L9.205 0h3.014l-6.36-7.107 6.383-8.68H9.343L4.271-8.741l-1.873-2.151v-4.895H0Z" clip-path="url(#A)" style="fill:#00479b;fill-opacity:1;fill-rule:nonzero;stroke:none" transform="matrix(1.33333 0 0 -1.33333 158.385 103.545)"/><path d="M0 0q.712.554 1.068 1.503.354.946.354 2.112 0 1.164-.354 2.113Q.713 6.675 0 7.238q-.713.562-1.747.562-1.047 0-1.761-.558-.712-.559-1.075-1.511-.362-.952-.363-2.116 0-1.166.363-2.112Q-4.22.554-3.508 0q.714-.555 1.761-.555Q-.713-.555 0 0m-4.66-1.735Q-5.917-.971-6.603.412q-.686 1.384-.686 3.195 0 1.828.686 3.214.686 1.387 1.943 2.151 1.256.764 2.906.764t2.902-.764 1.935-2.151q.682-1.386.682-3.214 0-1.811-.682-3.195Q2.4-.971 1.148-1.735t-2.902-.763q-1.65 0-2.906.763" clip-path="url(#B)" style="fill:#00479b;fill-opacity:1;fill-rule:nonzero;stroke:none" transform="matrix(1.33333 0 0 -1.33333 184.79 121.583)"/><path d="M0 0h2.25v-1.889h.124q.216.633.659 1.103t1.049.717q.604.245 1.29.245.532 0 .995-.053v-2.221a6 6 0 0 1-.547.093 5 5 0 0 1-.663.047q-.81 0-1.453-.34a2.5 2.5 0 0 1-1.011-.952 2.64 2.64 0 0 1-.366-1.375v-7.216H0Z" clip-path="url(#C)" style="fill:#00479b;fill-opacity:1;fill-rule:nonzero;stroke:none" transform="matrix(1.33333 0 0 -1.33333 192.765 108.807)"/><path d="M0 0a5 5 0 0 0-1.958 2.124q-.682 1.373-.682 3.207 0 1.803.682 3.203.683 1.399 1.923 2.174 1.242.775 2.868.774 1.434 0 2.625-.62 1.191-.621 1.916-1.955.724-1.333.724-3.375v-.825h-9.435v1.742h7.146q0 .902-.366 1.61-.367.71-1.038 1.111-.67.4-1.541.401-.94 0-1.665-.462A3.16 3.16 0 0 1 .078 7.883a3.6 3.6 0 0 1-.405-1.658V4.876q0-1.164.416-1.996t1.172-1.276 1.757-.443q.633 0 1.145.169.513.17.867.462.355.293.556.672h2.358A4 4 0 0 0 7.011.771Q6.341.043 5.307-.354 4.275-.75 3.003-.751 1.276-.751 0 0" clip-path="url(#D)" style="fill:#00479b;fill-opacity:1;fill-rule:nonzero;stroke:none" transform="matrix(1.33333 0 0 -1.33333 205.754 123.912)"/><path d="m0 0-1.608-.111q-1.179-.085-1.827-.544-.647-.458-.648-1.306 0-.555.286-.941a1.74 1.74 0 0 1 .79-.582 3.2 3.2 0 0 1 1.16-.197q.925 0 1.615.371.69.37 1.053.983.362.612.362 1.322l-.008 3.738q0 .671-.274 1.145a1.72 1.72 0 0 1-.813.717q-.54.242-1.326.243-.662 0-1.164-.189a2.2 2.2 0 0 1-.828-.528 1.74 1.74 0 0 1-.443-.787h-2.321q.116.98.736 1.75.621.772 1.677 1.203t2.428.432a6.8 6.8 0 0 0 2.174-.347Q2.054 6.025 2.774 5.1q.722-.926.722-2.513v-7.863H1.229v1.619h-.092a3.2 3.2 0 0 0-.702-.914q-.455-.42-1.164-.693-.71-.274-1.634-.274-1.134 0-2.042.423a3.34 3.34 0 0 0-1.434 1.238q-.525.814-.525 1.946 0 1.828 1.245 2.613 1.244.786 3.179.926.54.038 1.269.077.729.038 1.368.069.416.024.609.023L1.337.081A37 37 0 0 1 0 0" clip-path="url(#E)" style="fill:#00479b;fill-opacity:1;fill-rule:nonzero;stroke:none" transform="matrix(1.33333 0 0 -1.33333 227.25 117.56)"/><path d="M0 0q-.425.52-1.134.79t-1.61.27q-.949 0-1.666-.301-.717-.3-1.105-.833a1.97 1.97 0 0 1-.39-1.194q-.009-1.002.809-1.538.817-.536 2.058-.852l1.535-.401q1.217-.3 2.212-.801A4.64 4.64 0 0 0 2.37-6.267q.667-.906.667-2.232 0-1.348-.693-2.398-.695-1.048-2.013-1.641-1.318-.594-3.145-.594-1.757 0-3.057.563-1.298.563-2.039 1.603-.739 1.04-.816 2.467h2.405q.068-.825.543-1.391a2.9 2.9 0 0 1 1.242-.852 4.9 4.9 0 0 1 1.714-.286q1.002 0 1.797.321.794.32 1.241.898.446.577.447 1.333 0 .656-.374 1.107-.375.45-1.013.739-.64.29-1.604.544l-1.859.501q-1.988.54-3.051 1.561-1.065 1.022-1.065 2.617 0 1.342.737 2.371.735 1.027 2.007 1.599 1.273.57 2.868.57 1.58 0 2.83-.559 1.248-.559 1.95-1.556a4 4 0 0 0 .732-2.256H.5Q.425-.52 0 0" clip-path="url(#F)" style="fill:#00479b;fill-opacity:1;fill-rule:nonzero;stroke:none" transform="matrix(1.33333 0 0 -1.33333 253.74 107.435)"/><path d="m0 0 5.011-12.233h.185L10.199 0h2.921v-15.787h-2.29v11.394h-.146l-4.64-11.371H4.148L-.493-4.371h-.131v-11.416h-2.298V0Z" clip-path="url(#G)" style="fill:#00479b;fill-opacity:1;fill-rule:nonzero;stroke:none" transform="matrix(1.33333 0 0 -1.33333 265.01 103.545)"/><path d="M0 0h9.913v-2.066H2.398v-4.787h6.999v-2.058H2.398v-4.81h7.6v-2.066H0Z" clip-path="url(#H)" style="fill:#00479b;fill-opacity:1;fill-rule:nonzero;stroke:none" transform="matrix(1.33333 0 0 -1.33333 286.66 103.545)"/><path d="M0 0q-.567.412-1.506.412-.657 0-1.172-.204-.517-.205-.813-.571a1.22 1.22 0 0 1-.29-.813q-.008-.531.443-.905.452-.375 1.407-.598l1.896-.431q1.627-.378 2.428-1.169.803-.79.803-2.038 0-1.072-.583-1.9-.582-.83-1.676-1.299-1.095-.471-2.583-.471-1.403 0-2.435.405-1.034.404-1.63 1.184-.599.778-.744 1.888h2.381q.147-.81.752-1.21.606-.401 1.653-.401.757 0 1.318.2.563.201.864.567.3.366.3.852 0 .578-.443.952t-1.384.589l-1.849.409q-1.589.346-2.417 1.18-.83.832-.829 2.065 0 1.041.574 1.851.576.809 1.616 1.256t2.396.447q1.297 0 2.275-.416.98-.417 1.545-1.179.567-.764.675-1.789H.736A1.89 1.89 0 0 1 0 0" clip-path="url(#I)" style="fill:#00479b;fill-opacity:1;fill-rule:nonzero;stroke:none" transform="matrix(1.33333 0 0 -1.33333 311.273 111.598)"/><path d="M0 0q-1.16.57-1.789 1.572-.628 1.003-.628 2.275 0 .925.389 1.673.39.747 1.064 1.364.675.618 1.738 1.349l2.552 1.804q.454.3.748.597.293.297.455.66.16.361.161.816 0 .37-.223.732-.223.363-.625.594-.4.232-.909.232-.532 0-.957-.262a1.9 1.9 0 0 1-.662-.687 1.77 1.77 0 0 1-.239-.886q0-.447.224-.917a5.6 5.6 0 0 1 .558-.922q.335-.45.929-1.167l.339-.417 7.339-8.756H7.842L1.768 6.776l-.539.632A30 30 0 0 0-.043 8.996a6.6 6.6 0 0 0-.763 1.354q-.3.72-.301 1.521 0 1.088.502 1.94a3.45 3.45 0 0 0 1.402 1.325q.901.474 2.089.474 1.172 0 2.066-.462.894-.463 1.377-1.257.481-.794.482-1.726 0-.734-.247-1.357a4.1 4.1 0 0 0-.71-1.165A6.7 6.7 0 0 0 4.713 8.61L1.545 6.276a5 5 0 0 1-.941-.872 3.7 3.7 0 0 1-.531-.836q-.17-.39-.169-.66 0-.677.349-1.256.352-.578.999-.917a3.1 3.1 0 0 1 1.473-.339q1.18 0 2.27.685 1.09.688 1.765 1.928.674 1.241.674 2.829h2.097q0-1.426-.316-2.486-.315-1.06-.77-1.712a6.2 6.2 0 0 0-1.026-1.144 24 24 0 0 0-.532-.493 5.2 5.2 0 0 0-1.9-1.169A6.7 6.7 0 0 0 2.71-.57Q1.16-.57 0 0" clip-path="url(#J)" style="fill:#00479b;fill-opacity:1;fill-rule:nonzero;stroke:none" transform="matrix(1.33333 0 0 -1.33333 328.138 124.133)"/><path d="M0 0q-.425.52-1.134.79t-1.61.27q-.95 0-1.666-.301-.717-.3-1.105-.833a1.97 1.97 0 0 1-.39-1.194q-.009-1.002.809-1.538.817-.536 2.058-.852l1.535-.401A10.6 10.6 0 0 0 .709-4.86a4.6 4.6 0 0 0 1.66-1.407q.669-.906.668-2.232 0-1.348-.694-2.398-.694-1.048-2.012-1.641-1.318-.594-3.146-.594-1.756 0-3.056.563-1.298.563-2.039 1.603-.74 1.04-.816 2.467h2.405q.069-.825.542-1.391.475-.567 1.243-.852a4.9 4.9 0 0 1 1.714-.286q1.002 0 1.796.321.795.32 1.241.898.448.577.448 1.333 0 .656-.374 1.107-.375.45-1.014.739-.64.29-1.603.544l-1.859.501q-1.988.54-3.051 1.561-1.065 1.022-1.065 2.617 0 1.342.736 2.371.736 1.027 2.008 1.599 1.272.57 2.868.57 1.58 0 2.83-.559 1.248-.559 1.95-1.556a4 4 0 0 0 .732-2.256H.5A2.3 2.3 0 0 1 0 0" clip-path="url(#K)" style="fill:#00479b;fill-opacity:1;fill-rule:nonzero;stroke:none" transform="matrix(1.33333 0 0 -1.33333 362.213 107.435)"/><path d="M0 0v-11.193q0-.632.193-.975t.494-.474q.3-.132.732-.131.3 0 1.156.046v-2.004a9.4 9.4 0 0 0-1.441-.1q-.95 0-1.731.354a2.95 2.95 0 0 0-1.257 1.064q-.473.71-.473 1.742V0Zm2.413-4.694h-6.475v1.858h6.475z" clip-path="url(#L)" style="fill:#00479b;fill-opacity:1;fill-rule:nonzero;stroke:none" transform="matrix(1.33333 0 0 -1.33333 373.501 105.025)"/><path d="m0 0-1.608-.111q-1.179-.085-1.827-.544-.647-.458-.648-1.306 0-.555.286-.941a1.74 1.74 0 0 1 .79-.582 3.2 3.2 0 0 1 1.161-.197q.924 0 1.614.371.69.37 1.053.983.361.612.361 1.322l-.007 3.738q0 .671-.274 1.145a1.72 1.72 0 0 1-.813.717q-.54.242-1.326.243-.662 0-1.164-.189a2.2 2.2 0 0 1-.828-.528 1.74 1.74 0 0 1-.443-.787h-2.321q.116.98.736 1.75.621.772 1.677 1.203t2.428.432a6.8 6.8 0 0 0 2.174-.347Q2.054 6.025 2.775 5.1q.72-.926.721-2.513v-7.863H1.229v1.619h-.092a3.2 3.2 0 0 0-.702-.914q-.455-.42-1.164-.693-.71-.274-1.634-.274-1.134 0-2.042.423a3.34 3.34 0 0 0-1.434 1.238q-.526.814-.526 1.946 0 1.828 1.246 2.613 1.244.786 3.179.926.54.038 1.268.077.73.038 1.369.069.416.024.609.023L1.337.081A37 37 0 0 1 0 0" clip-path="url(#M)" style="fill:#00479b;fill-opacity:1;fill-rule:nonzero;stroke:none" transform="matrix(1.33333 0 0 -1.33333 387.377 117.56)"/><path d="M0 0h2.25v-1.889h.124q.216.633.659 1.103a3 3 0 0 0 1.048.717q.605.245 1.291.245a9 9 0 0 0 .994-.053v-2.221a6 6 0 0 1-.546.093 5 5 0 0 1-.663.047 3.1 3.1 0 0 1-1.454-.34 2.5 2.5 0 0 1-1.01-.952 2.64 2.64 0 0 1-.366-1.375v-7.216H0Z" clip-path="url(#N)" style="fill:#00479b;fill-opacity:1;fill-rule:nonzero;stroke:none" transform="matrix(1.33333 0 0 -1.33333 395.671 108.807)"/><path d="M0 0v-11.193q0-.632.193-.975t.494-.474q.3-.132.732-.131.3 0 1.156.046v-2.004a9.4 9.4 0 0 0-1.441-.1q-.95 0-1.731.354a2.95 2.95 0 0 0-1.257 1.064q-.473.71-.473 1.742V0Zm2.413-4.694h-6.475v1.858h6.475z" clip-path="url(#O)" style="fill:#00479b;fill-opacity:1;fill-rule:nonzero;stroke:none" transform="matrix(1.33333 0 0 -1.33333 411.43 105.025)"/><path d="M0 0h2.312v-11.841H.038v2.05h-.124a3.6 3.6 0 0 0-.774-1.14 3.6 3.6 0 0 0-1.199-.779 4.1 4.1 0 0 0-1.565-.285q-1.156 0-2.034.513-.879.513-1.368 1.518-.49 1.006-.49 2.432V0h2.328v-7.247q0-.794.308-1.391.31-.598.848-.921a2.4 2.4 0 0 1 1.249-.324A2.79 2.79 0 0 1-.408-8.541Q0-7.878 0-6.923Z" clip-path="url(#P)" style="fill:#00479b;fill-opacity:1;fill-rule:nonzero;stroke:none" transform="matrix(1.33333 0 0 -1.33333 427.581 108.807)"/><path d="M0 0q.362-.945 1.056-1.465.693-.52 1.664-.52 1.003 0 1.705.539.7.54 1.055 1.484.356.945.355 2.147 0 1.194-.347 2.12-.347.925-1.052 1.45-.705.523-1.716.524-.986 0-1.676-.502-.69-.5-1.048-1.426-.36-.924-.359-2.166Q-.363.944 0 0m-2.645 8.106H-.37v-1.92h.192a1 1 0 0 1 .038.073l.039.073q.309.517.683.921.373.405 1.033.705.658.301 1.607.301 1.433 0 2.567-.728 1.133-.727 1.766-2.109.631-1.38.632-3.261 0-1.872-.628-3.26-.63-1.388-1.754-2.127-1.127-.741-2.56-.741-.972 0-1.645.316-.676.317-1.057.737a5.3 5.3 0 0 0-.706.994l-.015.027h-.138v-6.282h-2.329z" clip-path="url(#Q)" style="fill:#00479b;fill-opacity:1;fill-rule:nonzero;stroke:none" transform="matrix(1.33333 0 0 -1.33333 437.853 119.614)"/><path d="M0 0q-.567.412-1.507.412-.656 0-1.172-.204a1.94 1.94 0 0 1-.813-.571 1.23 1.23 0 0 1-.29-.813q-.007-.531.445-.905.449-.375 1.406-.598l1.896-.431q1.626-.378 2.428-1.169.802-.79.802-2.038 0-1.072-.582-1.9-.581-.83-1.676-1.299-1.095-.471-2.583-.471-1.403 0-2.435.405-1.034.404-1.631 1.184-.599.778-.744 1.888h2.382q.146-.81.751-1.21.605-.401 1.654-.401.756 0 1.318.2.563.201.863.567a1.3 1.3 0 0 1 .301.852q0 .578-.443.952t-1.384.589l-1.85.409q-1.587.346-2.416 1.18-.83.832-.829 2.065 0 1.041.574 1.851.574.809 1.615 1.256t2.397.447q1.296 0 2.275-.416.979-.417 1.545-1.179.566-.764.675-1.789H.736A1.89 1.89 0 0 1 0 0" clip-path="url(#R)" style="fill:#00479b;fill-opacity:1;fill-rule:nonzero;stroke:none" transform="matrix(1.33333 0 0 -1.33333 459.622 111.598)"/><path d="M0 0v2.097h3.777q1.78 0 2.976.674a4.2 4.2 0 0 1 1.785 1.97q.59 1.295.589 3.175 0 1.866-.586 3.154-.585 1.286-1.746 1.953-1.159.667-2.879.667H-.085v2.097h4.148q2.312 0 3.985-.94 1.672-.94 2.559-2.717t.887-4.214q0-2.457-.894-4.239Q9.706 1.896 7.997.949 6.291-.001 3.908 0Zm1.179 0h-2.397v15.787h2.397z" clip-path="url(#S)" style="fill:#00479b;fill-opacity:1;fill-rule:nonzero;stroke:none" transform="matrix(1.33333 0 0 -1.33333 475.833 124.595)"/><path d="M459.225 271.171h2.327V259.33h-2.327zm.45 2.008a1.5 1.5 0 0 0-.539.504q-.205.317-.205.687 0 .377.205.697.204.32.539.502.336.18.729.18.385 0 .724-.18.34-.182.536-.502.197-.32.196-.697a1.27 1.27 0 0 0-.196-.687 1.44 1.44 0 0 0-.536-.504 1.46 1.46 0 0 0-.724-.189q-.393 0-.729.189" clip-path="url(#T)" style="fill:#00479b;fill-opacity:1;fill-rule:nonzero;stroke:none" transform="matrix(1.33333 0 0 -1.33333 -118.535 470.368)"/><path d="M0 0q-.567.412-1.507.412-.656 0-1.172-.204a1.93 1.93 0 0 1-.813-.571 1.23 1.23 0 0 1-.29-.813q-.007-.531.444-.905.45-.375 1.407-.598l1.896-.431q1.627-.378 2.428-1.169.802-.79.802-2.038 0-1.072-.582-1.9-.581-.83-1.676-1.299-1.095-.471-2.583-.471-1.403 0-2.436.405-1.032.404-1.63 1.184-.598.778-.744 1.888h2.382q.146-.81.752-1.21.604-.401 1.653-.401.756 0 1.318.2.563.201.863.567a1.3 1.3 0 0 1 .301.852q0 .578-.443.952t-1.384.589l-1.85.409q-1.587.346-2.416 1.18-.83.832-.829 2.065 0 1.041.574 1.851.574.809 1.615 1.256t2.397.447q1.295 0 2.275-.416.979-.417 1.545-1.179.566-.764.675-1.789H.736A1.89 1.89 0 0 1 0 0" clip-path="url(#U)" style="fill:#00479b;fill-opacity:1;fill-rule:nonzero;stroke:none" transform="matrix(1.33333 0 0 -1.33333 507.783 111.598)"/><path d="M0 0v-11.193q0-.632.193-.975.192-.342.493-.474.3-.132.732-.131.3 0 1.156.046v-2.004a9.4 9.4 0 0 0-1.441-.1 4.15 4.15 0 0 0-1.731.354 2.95 2.95 0 0 0-1.256 1.064q-.474.71-.474 1.742V0Zm2.413-4.694h-6.476v1.858h6.476z" clip-path="url(#V)" style="fill:#00479b;fill-opacity:1;fill-rule:nonzero;stroke:none" transform="matrix(1.33333 0 0 -1.33333 518.514 105.025)"/><path d="M0 0h2.25v-1.889h.124q.216.633.659 1.103t1.049.717q.604.245 1.29.245.534 0 .994-.053v-2.221a6 6 0 0 1-.546.093 5 5 0 0 1-.663.047 3.1 3.1 0 0 1-1.453-.34 2.5 2.5 0 0 1-1.01-.952 2.63 2.63 0 0 1-.367-1.375v-7.216H0Z" clip-path="url(#W)" style="fill:#00479b;fill-opacity:1;fill-rule:nonzero;stroke:none" transform="matrix(1.33333 0 0 -1.33333 524.02 108.807)"/><path d="M489.46 271.171h2.327V259.33h-2.327zm.45 2.008a1.5 1.5 0 0 0-.539.504q-.204.317-.205.687 0 .377.205.697t.539.502q.337.18.729.18.385 0 .725-.18.34-.182.536-.502t.196-.697q0-.37-.196-.687a1.44 1.44 0 0 0-.536-.504 1.47 1.47 0 0 0-.725-.189q-.392 0-.729.189" clip-path="url(#X)" style="fill:#00479b;fill-opacity:1;fill-rule:nonzero;stroke:none" transform="matrix(1.33333 0 0 -1.33333 -118.535 470.368)"/><path d="M0 0q.362-.945 1.06-1.465t1.661-.52q.995 0 1.7.539.706.54 1.06 1.484.355.945.355 2.147 0 1.194-.348 2.12-.346.925-1.051 1.45-.707.523-1.716.524-.978 0-1.673-.502-.693-.5-1.052-1.426-.358-.924-.359-2.166Q-.363.944 0 0m-2.636 12.052h2.327V6.186h.124q.023.046.05.088.027.043.05.089.316.524.686.918.37.393 1.03.685.658.293 1.591.293 1.434 0 2.567-.728 1.133-.727 1.773-2.109.64-1.38.64-3.261 0-1.872-.636-3.26T5.805-3.226q-1.126-.741-2.559-.741-.957 0-1.624.309t-1.051.721a5 5 0 0 0-.694.944q-.015.031-.028.05-.011.019-.034.05h-.178v-1.842h-2.273z" clip-path="url(#Y)" style="fill:#00479b;fill-opacity:1;fill-rule:nonzero;stroke:none" transform="matrix(1.33333 0 0 -1.33333 543.98 119.614)"/><path d="M0 0h2.313v-11.841H.039v2.05h-.123a3.6 3.6 0 0 0-.776-1.14 3.6 3.6 0 0 0-1.199-.779 4.1 4.1 0 0 0-1.565-.285q-1.154 0-2.034.513t-1.368 1.518q-.49 1.006-.49 2.432V0h2.328v-7.247q0-.794.308-1.391.31-.598.848-.921.54-.324 1.249-.324.687 0 1.326.339.64.339 1.049 1.003.407.663.408 1.618Z" clip-path="url(#Z)" style="fill:#00479b;fill-opacity:1;fill-rule:nonzero;stroke:none" transform="matrix(1.33333 0 0 -1.33333 567.277 108.807)"/><path d="M0 0v-11.193q0-.632.193-.975.192-.342.492-.474.302-.132.733-.131.3 0 1.156.046v-2.004a9.4 9.4 0 0 0-1.441-.1 4.15 4.15 0 0 0-1.731.354 2.95 2.95 0 0 0-1.256 1.064q-.474.71-.474 1.742V0Zm2.413-4.694h-6.476v1.858h6.476z" clip-path="url(#aa)" style="fill:#00479b;fill-opacity:1;fill-rule:nonzero;stroke:none" transform="matrix(1.33333 0 0 -1.33333 577.561 105.025)"/><path d="M526.201 271.171h2.327V259.33h-2.327zm.45 2.008a1.5 1.5 0 0 0-.539.504q-.205.317-.205.687 0 .377.205.697.204.32.539.502.336.18.729.18.385 0 .724-.18.34-.182.536-.502t.196-.697q0-.37-.196-.687a1.44 1.44 0 0 0-.536-.504 1.47 1.47 0 0 0-.724-.189q-.393 0-.729.189" clip-path="url(#ab)" style="fill:#00479b;fill-opacity:1;fill-rule:nonzero;stroke:none" transform="matrix(1.33333 0 0 -1.33333 -118.535 470.368)"/><path d="M0 0q.712.554 1.068 1.503.354.946.354 2.112 0 1.164-.354 2.113Q.713 6.675 0 7.238q-.713.562-1.746.562-1.048 0-1.762-.558-.712-.559-1.075-1.511-.362-.952-.362-2.116 0-1.166.362-2.112Q-4.22.554-3.508 0q.714-.555 1.762-.555Q-.713-.555 0 0m-4.66-1.735Q-5.917-.971-6.603.412q-.685 1.384-.685 3.195 0 1.828.685 3.214.686 1.387 1.943 2.151 1.256.764 2.906.764t2.903-.764q1.252-.764 1.934-2.151t.682-3.214q0-1.811-.682-3.195T1.149-1.735t-2.903-.763-2.906.763" clip-path="url(#ac)" style="fill:#00479b;fill-opacity:1;fill-rule:nonzero;stroke:none" transform="matrix(1.33333 0 0 -1.33333 598.217 121.583)"/><path d="M0 0h-2.327v11.841h2.235V9.905h.146q.286.64.768 1.111.482.468 1.167.724.686.255 1.558.255 1.217-.001 2.127-.509T7.081 9.97q.498-1.005.497-2.438V0H5.25v7.246q0 .848-.297 1.468a2.1 2.1 0 0 1-.859.945q-.563.323-1.341.324-.811 0-1.426-.351a2.47 2.47 0 0 1-.972-1.017Q.001 7.947 0 7.023Z" clip-path="url(#ad)" style="fill:#00479b;fill-opacity:1;fill-rule:nonzero;stroke:none" transform="matrix(1.33333 0 0 -1.33333 608.67 124.595)"/><path d="M0 0q-1.16.57-1.788 1.572t-.628 2.275q0 .925.389 1.673.39.747 1.064 1.364.675.618 1.738 1.349l2.552 1.804q.455.3.747.597.294.297.455.66.162.361.162.816 0 .37-.224.732-.223.363-.624.594-.4.232-.909.232-.533 0-.957-.262a1.9 1.9 0 0 1-.662-.687 1.8 1.8 0 0 1-.24-.886q0-.447.224-.917a5.5 5.5 0 0 1 .559-.922q.335-.45.929-1.167l.339-.417 7.338-8.756h-2.62L1.769 6.776q-.262.31-.539.632-.81.956-1.272 1.588a6.6 6.6 0 0 0-.764 1.354q-.3.72-.3 1.521 0 1.088.502 1.94a3.45 3.45 0 0 0 1.402 1.325q.901.474 2.089.474 1.172 0 2.066-.462.894-.463 1.376-1.257a3.27 3.27 0 0 0 .481-1.726q0-.734-.247-1.357a4.1 4.1 0 0 0-.708-1.165A6.7 6.7 0 0 0 4.714 8.61L1.545 6.276a5 5 0 0 1-.94-.872 3.7 3.7 0 0 1-.531-.836q-.17-.39-.17-.66 0-.677.35-1.256.351-.578.999-.917a3.1 3.1 0 0 1 1.473-.339q1.179 0 2.269.685 1.09.688 1.766 1.928.674 1.241.674 2.829h2.097q0-1.426-.316-2.486T8.445 2.64A6.2 6.2 0 0 0 7.42 1.496a24 24 0 0 0-.533-.493A5.2 5.2 0 0 0 4.988-.166 6.7 6.7 0 0 0 2.709-.57Q1.16-.57 0 0" clip-path="url(#ae)" style="fill:#00479b;fill-opacity:1;fill-rule:nonzero;stroke:none" transform="matrix(1.33333 0 0 -1.33333 630.836 124.133)"/><path d="m0 0 5.011-12.233h.185L10.199 0h2.922v-15.787h-2.289v11.394h-.148l-4.64-11.371H4.148L-.493-4.371h-.131v-11.416h-2.297V0Z" clip-path="url(#af)" style="fill:#00479b;fill-opacity:1;fill-rule:nonzero;stroke:none" transform="matrix(1.33333 0 0 -1.33333 656.753 103.545)"/><path d="m0 0-1.607-.111q-1.179-.085-1.827-.544-.647-.458-.647-1.306 0-.555.285-.941t.79-.582a3.2 3.2 0 0 1 1.161-.197q.924 0 1.614.371.69.37 1.052.983.362.612.363 1.322l-.008 3.738q0 .671-.274 1.145a1.73 1.73 0 0 1-.813.717q-.54.242-1.326.243-.663 0-1.164-.189a2.2 2.2 0 0 1-.828-.528 1.74 1.74 0 0 1-.443-.787h-2.321q.116.98.737 1.75.62.772 1.676 1.203t2.428.432a6.8 6.8 0 0 0 2.174-.347Q2.054 6.025 2.776 5.1q.72-.926.72-2.513v-7.863H1.23v1.619h-.093a3.2 3.2 0 0 0-.7-.914 3.6 3.6 0 0 0-1.165-.693q-.71-.274-1.634-.274-1.134 0-2.043.423a3.36 3.36 0 0 0-1.434 1.238q-.524.814-.524 1.946 0 1.828 1.245 2.613 1.245.786 3.18.926.539.038 1.268.077.729.038 1.368.069.416.024.609.023L1.338.081A37 37 0 0 1 0 0" clip-path="url(#ag)" style="fill:#00479b;fill-opacity:1;fill-rule:nonzero;stroke:none" transform="matrix(1.33333 0 0 -1.33333 685.275 117.56)"/><path d="M0 0h2.25v-1.889h.124q.216.633.659 1.103t1.049.717q.604.245 1.29.245.534 0 .995-.053v-2.221a6 6 0 0 1-.547.093 5 5 0 0 1-.663.047 3.1 3.1 0 0 1-1.453-.34 2.5 2.5 0 0 1-1.01-.952 2.63 2.63 0 0 1-.367-1.375v-7.216H0Z" clip-path="url(#ah)" style="fill:#00479b;fill-opacity:1;fill-rule:nonzero;stroke:none" transform="matrix(1.33333 0 0 -1.33333 692.944 108.807)"/><path d="m0 0 1.603 1.634 5.473-7.246H4.232Zm-1.126 1.226h.402L3.97 6.229h2.782L1.38.517h-.371L-1.11-1.604Zm-2.127 8.949h2.327V-5.612h-2.327z" clip-path="url(#ai)" style="fill:#00479b;fill-opacity:1;fill-rule:nonzero;stroke:none" transform="matrix(1.33333 0 0 -1.33333 707.34 117.112)"/><path d="M0 0a5 5 0 0 0-1.958 2.124q-.682 1.373-.682 3.207 0 1.803.682 3.203t1.923 2.174 2.868.774q1.433 0 2.624-.62 1.191-.621 1.916-1.955.724-1.333.724-3.375v-.825h-9.434v1.742h7.145q0 .902-.366 1.61A2.7 2.7 0 0 1 4.405 9.17q-.67.4-1.542.401-.94 0-1.665-.462A3.16 3.16 0 0 1 .077 7.883a3.6 3.6 0 0 1-.405-1.658V4.876q0-1.164.416-1.996T1.26 1.604t1.757-.443q.632 0 1.145.169.513.17.867.462t.556.672h2.358A4 4 0 0 0 7.011.771Q6.34.043 5.308-.354 4.274-.75 3.002-.751 1.275-.751 0 0" clip-path="url(#aj)" style="fill:#00479b;fill-opacity:1;fill-rule:nonzero;stroke:none" transform="matrix(1.33333 0 0 -1.33333 720.2 123.912)"/><path d="M0 0v-11.193q0-.632.193-.975.192-.342.492-.474.302-.132.732-.131.301 0 1.157.046v-2.004a9.4 9.4 0 0 0-1.441-.1 4.15 4.15 0 0 0-1.731.354 2.95 2.95 0 0 0-1.256 1.064q-.474.71-.474 1.742V0Zm2.413-4.694h-6.476v1.858h6.476z" clip-path="url(#ak)" style="fill:#00479b;fill-opacity:1;fill-rule:nonzero;stroke:none" transform="matrix(1.33333 0 0 -1.33333 737.487 105.025)"/><path d="M646.145 271.171h2.327V259.33h-2.327zm.45 2.008a1.5 1.5 0 0 0-.539.504q-.205.317-.205.687 0 .377.205.697.204.32.539.502.337.18.729.18.385 0 .725-.18.34-.182.536-.502t.196-.697q0-.37-.196-.687a1.44 1.44 0 0 0-.536-.504 1.47 1.47 0 0 0-.725-.189q-.392 0-.729.189" clip-path="url(#al)" style="fill:#00479b;fill-opacity:1;fill-rule:nonzero;stroke:none" transform="matrix(1.33333 0 0 -1.33333 -118.535 470.368)"/><path d="M0 0h-2.327v11.841h2.235V9.905h.146q.286.64.768 1.111.482.468 1.167.724.686.255 1.558.255 1.217-.001 2.127-.509T7.081 9.97q.498-1.005.497-2.438V0H5.25v7.246q0 .848-.297 1.468a2.1 2.1 0 0 1-.859.945q-.562.323-1.341.324-.811 0-1.426-.351a2.47 2.47 0 0 1-.972-1.017Q.001 7.947 0 7.023Z" clip-path="url(#am)" style="fill:#00479b;fill-opacity:1;fill-rule:nonzero;stroke:none" transform="matrix(1.33333 0 0 -1.33333 752.237 124.595)"/><path d="M0 0q.69.47 1.053 1.342.361.87.361 2.089 0 1.202-.354 2.108-.356.904-1.052 1.407-.699.5-1.677.501-1.003 0-1.703-.521-.702-.52-1.057-1.429-.354-.91-.354-2.066 0-1.171.363-2.047Q-4.058.508-3.365.02q.694-.49 1.696-.49Q-.691-.47 0 0m-4.271-6.833q-1.129.42-1.788 1.221a3.4 3.4 0 0 0-.759 1.896h2.374q.108-.554.478-.928t.963-.558a4.6 4.6 0 0 1 1.38-.186q1.426 0 2.221.651.793.653.794 2v2.329h-.155l-.031-.054a4.9 4.9 0 0 0-.674-.921q-.373-.398-1.06-.702-.686-.304-1.665-.304-1.418 0-2.54.69-1.122.689-1.769 2.012-.648 1.32-.647 3.164 0 1.842.643 3.192.643 1.348 1.773 2.054 1.128.705 2.563.705.94 0 1.607-.301.667-.3 1.037-.698.37-.396.693-.912.047-.078.093-.163h.154v1.92h2.275V-2.821q0-1.48-.683-2.475-.682-.993-1.889-1.476-1.205-.482-2.763-.482-1.495 0-2.625.421" clip-path="url(#an)" style="fill:#00479b;fill-opacity:1;fill-rule:nonzero;stroke:none" transform="matrix(1.33333 0 0 -1.33333 774.193 121.172)"/><path d="M690.565 263.5h-8.21v2.012h8.21zm-11.171-4.17 5.674 15.787h2.783l5.673-15.787h-2.551l-4.455 12.904h-.124l-4.456-12.904z" clip-path="url(#ao)" style="fill:#00479b;fill-opacity:1;fill-rule:nonzero;stroke:none" transform="matrix(1.33333 0 0 -1.33333 -118.535 470.368)"/><path d="M0 0q.69.47 1.053 1.342.361.87.361 2.089 0 1.202-.354 2.108-.356.904-1.052 1.407-.699.5-1.677.501-1.003 0-1.703-.521-.702-.52-1.057-1.429-.354-.91-.354-2.066 0-1.171.362-2.047Q-4.058.508-3.365.02q.694-.49 1.696-.49Q-.691-.47 0 0m-4.271-6.833q-1.129.42-1.788 1.221a3.4 3.4 0 0 0-.759 1.896h2.374q.108-.554.478-.928t.963-.558a4.6 4.6 0 0 1 1.38-.186q1.426 0 2.221.651.793.653.794 2v2.329h-.155l-.031-.054a4.9 4.9 0 0 0-.674-.921q-.373-.398-1.06-.702-.686-.304-1.665-.304-1.418 0-2.54.69-1.122.689-1.769 2.012-.648 1.32-.647 3.164 0 1.842.643 3.192.644 1.348 1.773 2.054 1.128.705 2.563.705.94 0 1.607-.301.667-.3 1.037-.698.37-.396.693-.912.047-.078.094-.163h.153v1.92h2.274V-2.821q0-1.48-.682-2.475-.682-.993-1.888-1.476-1.207-.482-2.764-.482-1.495 0-2.625.421" clip-path="url(#ap)" style="fill:#00479b;fill-opacity:1;fill-rule:nonzero;stroke:none" transform="matrix(1.33333 0 0 -1.33333 816.423 121.172)"/><path d="M0 0a5 5 0 0 0-1.958 2.124q-.682 1.373-.682 3.207 0 1.803.682 3.203t1.923 2.174 2.868.774q1.433 0 2.624-.62 1.191-.621 1.915-1.955.725-1.333.725-3.375v-.825h-9.435v1.742h7.146q0 .902-.366 1.61-.366.71-1.037 1.111-.67.4-1.542.401-.94 0-1.665-.462A3.16 3.16 0 0 1 .077 7.883a3.6 3.6 0 0 1-.405-1.658V4.876q0-1.164.416-1.996.417-.832 1.171-1.276.756-.443 1.758-.443.632 0 1.145.169.513.17.867.462t.556.672h2.358A4 4 0 0 0 7.011.771Q6.34.043 5.307-.354 4.275-.75 3.002-.751 1.275-.751 0 0" clip-path="url(#aq)" style="fill:#00479b;fill-opacity:1;fill-rule:nonzero;stroke:none" transform="matrix(1.33333 0 0 -1.33333 827.19 123.912)"/><path d="M0 0h-2.327v11.841h2.235V9.905h.146q.286.64.768 1.111.48.468 1.167.724.686.255 1.558.255 1.218-.001 2.126-.509.91-.508 1.408-1.516.497-1.005.497-2.438V0H5.25v7.246q0 .848-.297 1.468a2.1 2.1 0 0 1-.86.945q-.562.323-1.34.324-.811 0-1.427-.351a2.5 2.5 0 0 1-.971-1.017Q.001 7.947 0 7.023Z" clip-path="url(#ar)" style="fill:#00479b;fill-opacity:1;fill-rule:nonzero;stroke:none" transform="matrix(1.33333 0 0 -1.33333 843.418 124.595)"/><path d="M0 0q-1.252.775-1.923 2.162t-.671 3.168q0 1.797.683 3.187.682 1.393 1.931 2.167 1.248.775 2.897.775 1.333 0 2.406-.494a4.2 4.2 0 0 0 1.718-1.403 4.24 4.24 0 0 0 .764-2.089H5.546a2.7 2.7 0 0 1-.463 1.037 2.34 2.34 0 0 1-.882.732q-.543.266-1.252.266-.957 0-1.678-.504-.72-.506-1.12-1.439-.401-.931-.401-2.181 0-1.272.393-2.216T1.26 1.711q.724-.512 1.689-.512.663 0 1.199.242.535.244.893.694t.505 1.084h2.259a4.4 4.4 0 0 0-.752-2.063A4.27 4.27 0 0 0 5.369-.262Q4.313-.775 2.94-.775 1.253-.775 0 0" clip-path="url(#as)" style="fill:#00479b;fill-opacity:1;fill-rule:nonzero;stroke:none" transform="matrix(1.33333 0 0 -1.33333 859.29 123.88)"/><path d="m0 0 .015 1.95q.093 0 .189-.008t.204-.008q.3-.015.648-.015.447 0 .744.081t.581.42q.286.34.548 1.041l.293.771-4.341 12.002h2.491l2.982-9.181h.124l2.999 9.181h2.489L5.088 2.821Q4.57 1.394 3.63.674T1.249-.047Q.447-.047 0 0" clip-path="url(#at)" style="fill:#00479b;fill-opacity:1;fill-rule:nonzero;stroke:none" transform="matrix(1.33333 0 0 -1.33333 872.149 130.452)"/></svg>