<svg xmlns="http://www.w3.org/2000/svg" width="754.67065mm" height="200mm" viewBox="0 0 754.67065 200"><defs><radialGradient id="a" cx="570.104" cy="-337.138" r="70.6922" fx="570.104" fy="-337.138" gradientTransform="matrix(2.83194 0 0 -2.76612 -1797.807 -972.892)" gradientUnits="userSpaceOnUse" spreadMethod="pad"><stop offset="0" style="stop-opacity:1;stop-color:#fff"/><stop offset="0.01123" style="stop-opacity:1;stop-color:#fff"/><stop offset="0.19662" style="stop-opacity:1;stop-color:#f89c0e"/><stop offset="0.33734237" style="stop-opacity:1;stop-color:#f89c0e"/><stop offset="0.57864" style="stop-opacity:1;stop-color:#d51920"/><stop offset="1" style="stop-opacity:1;stop-color:#f1471d"/></radialGradient><radialGradient id="b" cx="568.50702" cy="-331.116" r="68.694298" fx="568.50702" fy="-331.116" gradientTransform="matrix(2.83194 0 0 -2.76612 -1797.807 -972.892)" gradientUnits="userSpaceOnUse" spreadMethod="pad"><stop offset="0" style="stop-opacity:1;stop-color:#fff"/><stop offset="0.05055" style="stop-opacity:1;stop-color:#fff"/><stop offset="0.28651" style="stop-opacity:1;stop-color:#00adef"/><stop offset="0.82022" style="stop-opacity:1;stop-color:#214395"/><stop offset="1" style="stop-opacity:1;stop-color:#233485"/></radialGradient></defs><path d="M-249.06 55.071c2.585 6.032 6.433 11.194 11.143 15.37-7.503-12.432-8.015-27.469-1.558-40.93 10.918-22.78 40.104-30.92 62.936-19.25 8.651 4.413 15.213 11.16 19.55 18.943 1.413 2.56 1.652 5.111 1.891 5.791.335.973 1.75 1.021 1.945-.378-.824-11.68-8.848-25.182-26.822-34.362-23.068-11.775-51.7-3.783-66.912 16.208-6.382 11.848-7.633 25.844-2.173 38.608z" style="fill:url(#a);fill-opacity:1;fill-rule:nonzero;stroke:none;stroke-width:2.91232" transform="translate(309.727 73.182)"/><path d="M-182.128-30.404c12.543 1.524 24.766 6.635 34.954 15.437 7.991 6.906 13.81 15.304 17.434 24.385-2.583-9.06-7.406-17.627-14.533-24.956-5.927-6.095-12.935-10.737-20.543-14.007a75.119 75.119 0 0 0-16.265-2.017c-3.8-.05-4.474.748-1.047 1.158z" style="fill:#1cb6e9;fill-opacity:1;fill-rule:nonzero;stroke:none;stroke-width:2.91232" transform="translate(309.727 73.182)"/><path d="M-110.39 46.915c-4.38 27.234-31.267 44.64-31.267 44.64-20.344 15.693-46.358 20.801-69.591 15.5 1.027.35 2.056.688 3.051 1.012-26.088-4.106-50.06-19.422-63.877-43.758-23.873-42.092-8.3-95.1 34.789-118.427 16.336-8.84 34.259-11.968 51.574-10.517 5.682.475 10.08 2.778 11.444 3.128 1.945.506 3.504-1.635 1.44-3.441-19.96-11.007-50.489-12.702-84.412 5.66-1.917 1.03-3.863 2.007-5.586 3.299-24.163 18.202-40.955 31.754-46.222 68.667-4.79 33.528 17.272 68.368 17.272 68.368 28.006 43.676 86.46 58.795 133.162 33.523 19.55-10.591 34.035-26.646 42.587-45.127.284-.588 3.452-8.535 3.623-9.246 2.167-7.042 3.168-14.342 3.06-21.612a119.18 119.18 0 0 1-1.046 8.33z" style="fill:#1ab5f1;fill-opacity:1;fill-rule:nonzero;stroke:none;stroke-width:2.91232" transform="translate(309.727 73.182)"/><path d="M-125.201-11.434c-.887-1.274-2.04-2.378-3.146-3.507-19.635-20.196-42.285-25.48-59.813-21.945-1.994.83-1.448 2.676.102 2.74 1.095.039 4.915-.65 9.184.22a72.415 72.415 0 0 1 14.058 4.38c7.608 3.271 14.615 7.913 20.543 14.008 7.127 7.329 11.95 15.895 14.533 24.956 6.478 22.673-1.03 48.512-21.66 66.122-15.586 13.324-35.486 19.197-54.407 17.761a71.873 71.873 0 0 1-3.994-.407c.797-.02 1.604-.036 2.424-.06 6.464-.195 13.733-.721 19.84-3.236 7.423-3.08 12.969-6.234 17.806-10.335 10.885-8.484 16.396-23.404 14.482-37.007-2.88-20.5-23.38-35.34-45.556-31.546-15.57 2.662-25.093 10.5-28.904 18.583-.234 1.03.801 1.3 1.32.677.35-.432 1.22-2.179 2.955-3.686 5.278-4.576 11.896-7.955 19.399-9.238 19.777-3.384 38.762 8.561 40.47 26.988 2.029 21.947-18.258 42.447-51.795 37.072-.134-.057-.262-.103-.395-.153-.754-.316-1.147-.387-1.215-.274-7.082-1.985-13.58-5.469-18.947-10.238-4.71-4.175-8.558-9.337-11.143-15.37-5.46-12.764-4.21-26.76 2.173-38.608 5.415-10.06 14.522-18.574 26.404-23.477 9.806-4.064 20.096-5.08 29.63-3.487 2.599.44 2.335-.273-.439-1.038-12.297-3.422-26.137-2.836-39.225 2.574-21.2 8.768-34.556 27.763-35.801 47.683-.074.529.041 6.82.09 7.292 1.167 14.883 7.293 29.297 18.612 40.938 10.005 10.29 22.701 16.996 36.367 20.107 23.233 5.302 49.248.194 69.591-15.5 0 0 26.888-17.406 31.268-44.64.478-2.97.81-5.705 1.047-8.33 2.127-23.069-4.562-33.853-15.859-50.019z" style="fill:url(#b);fill-opacity:1;fill-rule:nonzero;stroke:none;stroke-width:2.91232" transform="translate(309.727 73.182)"/><path d="M-47.65 76.077c-.04-.062-.153-.122-.324-.199-.096-.031-.188-.08-.295-.113-.091-.052-.234-.103-.396-.18a6.415 6.415 0 0 1-.48-.301 3.502 3.502 0 0 1-.575-.492 10.61 10.61 0 0 1-.526-.523 4.544 4.544 0 0 1-.563-.731l-5.753-8.717 3.7-4.454c.299-.37.563-.666.8-.91.244-.239.46-.453.665-.649a5.03 5.03 0 0 1 .722-.455c.285-.142.535-.25.73-.33a.672.672 0 0 0 .282-.198c.058-.08.09-.18.09-.285 0-.142-.049-.239-.135-.296a.752.752 0 0 0-.339-.09h-5.728c-.1 0-.202.045-.281.09-.091.057-.134.154-.134.296 0 .148.033.245.116.319.085.05.2.122.376.198.216.075.438.203.685.364.248.188.418.387.518.663.102.259.105.526.033.828-.089.296-.19.512-.33.648l-6.823 8.134v-7.872c0-.313.024-.64.074-.967.033-.358.128-.637.281-.87.163-.256.333-.45.51-.564.165-.119.375-.21.622-.278.2-.075.353-.162.46-.25a.408.408 0 0 0 .157-.327c0-.134-.058-.25-.156-.302a.736.736 0 0 0-.384-.11h-6.08a.995.995 0 0 0-.388.09c-.108.057-.16.154-.16.296 0 .125.05.245.16.338.108.103.262.19.46.265.257.068.479.16.658.278.173.114.338.308.469.564.153.233.261.512.293.87.05.327.066.654.066.967v12.212c0 .308-.016.632-.066.962-.033.335-.14.637-.293.876-.13.261-.296.443-.47.557-.178.105-.4.205-.656.284a1.72 1.72 0 0 0-.46.256.428.428 0 0 0-.16.353c0 .12.05.227.16.285a.71.71 0 0 0 .386.096h6.081a.685.685 0 0 0 .384-.108.374.374 0 0 0 .156-.296.436.436 0 0 0-.156-.352 2.17 2.17 0 0 0-.46-.234 2.7 2.7 0 0 1-.623-.284c-.177-.114-.347-.296-.51-.557-.153-.24-.25-.54-.281-.876a6.502 6.502 0 0 1-.074-.962v-2.26l2.875-3.36 3.93 6.007c.142.2.302.43.464.75.168.288.205.593.103.885-.103.276-.264.47-.504.558-.238.094-.484.18-.728.265a1.113 1.113 0 0 0-.319.179c-.088.043-.133.142-.133.281 0 .131.057.222.153.276.094.06.207.088.339.088h7.391a.866.866 0 0 0 .339-.068c.085-.03.124-.123.124-.253 0-.131-.024-.248-.066-.305zM-32.337 69.633c0 2.15-.677 3.967-2.03 5.489-1.346 1.507-2.97 2.27-4.858 2.27-1.894 0-3.527-.763-4.883-2.27-1.363-1.522-2.043-3.34-2.043-5.49 0-2.16.68-3.98 2.043-5.488 1.356-1.525 2.989-2.279 4.883-2.279 1.888 0 3.512.754 4.857 2.279 1.354 1.507 2.031 3.327 2.031 5.489m-3.288 0c0-1.945-.352-3.521-1.06-4.756-.711-1.228-1.596-1.848-2.643-1.848-1.075 0-1.928.606-2.573 1.817-.64 1.218-.959 2.805-.959 4.787 0 1.996.33 3.583 1.001 4.786.666 1.215 1.536 1.806 2.6 1.806 1.063 0 1.928-.591 2.616-1.791.683-1.198 1.018-2.793 1.018-4.801zM-18.338 66.317c.066.221.033.358-.126.42-.165.069-.307.007-.444-.182-.455-.787-.967-1.399-1.518-1.845-.546-.43-1.235-.566-2.065-.43-.404.08-.808.262-1.195.566-.38.31-.734.762-1.02 1.334a3.655 3.655 0 0 0-.308.97 5.309 5.309 0 0 0-.117 1.172v4.527c0 .339.016.737.066 1.206.033.47.1.81.205 1.03.108.199.202.344.293.45.108.099.21.173.327.23.156.096.299.165.395.227.097.065.136.182.136.336 0 .128-.04.222-.16.279a.8.8 0 0 1-.371.082h-4.92a.908.908 0 0 1-.385-.082.3.3 0 0 1-.16-.28c0-.153.067-.27.192-.335.116-.074.259-.153.423-.227.125-.057.25-.131.399-.262.145-.11.261-.25.324-.392.114-.222.2-.54.245-.973.05-.441.074-.86.074-1.289v-6.942c0-.358-.008-.651-.033-.887a1.967 1.967 0 0 0-.156-.62 1.631 1.631 0 0 0-.305-.415 2.811 2.811 0 0 0-.361-.245 5.277 5.277 0 0 0-.37-.156c-.134-.038-.205-.14-.205-.299 0-.142.05-.256.142-.302a.894.894 0 0 1 .347-.102l3.669-.549c.082-.009.136 0 .17.031a.489.489 0 0 1 .042.24v2.525c.432-.907.95-1.567 1.584-1.985.628-.416 1.254-.688 1.903-.81.284-.054.6-.072.978-.072.37.006.722.091 1.052.234a.634.634 0 0 1 .217.167c.066.066.108.174.15.322zM-3.054 69.007c0 .165-.05.307-.151.42a.412.412 0 0 1-.333.18h-8.976c0 .828.074 1.505.196 2.04.122.557.293 1.063.526 1.54.381.723.847 1.31 1.41 1.738.558.424 1.303.64 2.224.64.893 0 1.695-.261 2.423-.801a6.158 6.158 0 0 0 1.707-1.915.864.864 0 0 1 .33-.307c.126-.054.234-.054.335.05a.444.444 0 0 1 .193.329.966.966 0 0 1-.066.45c-.199.432-.48.886-.853 1.347-.375.455-.734.822-1.075 1.092-.49.353-1.052.677-1.718.996-.668.327-1.422.466-2.263.466-1.815 0-3.396-.643-4.75-1.957-1.348-1.32-2.02-3.339-2.02-6.063 0-2.07.666-3.822 2.003-5.236 1.337-1.436 2.844-2.15 4.545-2.15 2.002 0 3.558.708 4.653 2.136 1.097 1.416 1.66 3.086 1.66 5.005m-3.196-1.985c.016-.933-.256-1.851-.794-2.73-.543-.876-1.27-1.308-2.181-1.308-1.064 0-1.877.497-2.429 1.499-.555 1.01-.825 2.22-.825 3.663h5.16c.114 0 .255-.021.426-.032a.576.576 0 0 0 .411-.17.705.705 0 0 0 .203-.422c.008-.153.033-.324.033-.5zM13.908 75.21c-.058-.344-.12-.81-.205-1.43-.05-.41-.074-.82-.074-1.204V68.41c0-.978-.075-1.81-.222-2.503a9.407 9.407 0 0 0-.518-1.732c-.586-1.229-1.468-1.945-2.625-2.176-1.175-.239-2.142-.332-2.904-.313a8.675 8.675 0 0 0-2.662.447 7.444 7.444 0 0 0-2.412 1.283c0 .02-.024.062-.085.125a.907.907 0 0 0-.128.256l-.819 3.259a.662.662 0 0 0-.008.336c.008.102.075.162.156.213.117.031.213.02.294-.071a.58.58 0 0 0 .173-.256c.205-.361.418-.785.669-1.251.253-.478.535-.91.87-1.303.34-.475.808-.927 1.405-1.34a3.211 3.211 0 0 1 1.97-.64c1.147 0 2.1.277 2.83.826.74.546 1.104 1.658 1.104 3.287v1.417a5.868 5.868 0 0 0-1.84-.78c-.674-.165-1.271-.253-1.792-.253-.628 0-1.345.094-2.164.276a4.96 4.96 0 0 0-2.233 1.112c-.563.452-1.043 1.01-1.465 1.664-.403.64-.614 1.501-.614 2.577 0 1.689.538 2.801 1.604 3.33 1.081.52 2.202.78 3.368.76a6.987 6.987 0 0 0 3.097-.786c.973-.511 1.664-1.018 2.062-1.524.066.472.13.788.165.964.041.168.108.401.205.7a.61.61 0 0 0 .275.293.971.971 0 0 0 .396.082h2.293c.153 0 .227-.054.21-.14a.626.626 0 0 0-.058-.235 4.204 4.204 0 0 1-.318-1.104m-4.471-.81c-.746.762-1.584 1.14-2.526 1.14-.901 0-1.66-.287-2.252-.87-.615-.594-.882-1.434-.82-2.545.075-1.087.487-1.966 1.25-2.645.773-.7 1.634-1.07 2.559-1.121 1.01-.057 1.783.262 2.355.941.554.669.805 1.47.736 2.358-.116 1.064-.546 1.963-1.302 2.742zM33.173 75.947a2.037 2.037 0 0 0-.46-.234 3.436 3.436 0 0 1-.632-.284 1.868 1.868 0 0 1-.507-.557 2.342 2.342 0 0 1-.284-.876 9.793 9.793 0 0 1-.057-.962V60.822c0-.313.016-.64.057-.967a2.09 2.09 0 0 1 .284-.87c.166-.256.339-.45.507-.564.188-.119.387-.21.632-.278.204-.075.352-.162.46-.25a.375.375 0 0 0 .154-.328c0-.133-.041-.25-.154-.301a.743.743 0 0 0-.381-.11h-6.086a.998.998 0 0 0-.381.09c-.102.057-.16.154-.16.296 0 .125.058.244.16.338.11.103.262.19.455.265.27.068.484.159.665.278.168.114.321.308.48.564.148.233.231.512.276.87.05.327.066.654.066.967v12.212c0 .307-.016.632-.066.962-.04.335-.128.636-.275.876-.16.261-.313.443-.48.557a2.992 2.992 0 0 1-.666.284c-.193.08-.344.165-.455.256a.445.445 0 0 0-.16.353c0 .12.058.227.16.284.11.069.239.097.38.097h6.087a.69.69 0 0 0 .381-.108.341.341 0 0 0 .154-.296c0-.165-.041-.261-.154-.352zM50.528 76.015a3.384 3.384 0 0 1-.432-.25c-.074-.071-.176-.165-.285-.285a1.361 1.361 0 0 1-.262-.438 6.417 6.417 0 0 1-.193-.884 7.626 7.626 0 0 1-.074-1.019v-3.5c0-.419-.025-1.107-.066-2.085-.066-.964-.177-1.744-.376-2.34-.324-1.002-.845-1.801-1.561-2.35-.709-.54-1.653-.782-2.836-.694-.716.06-1.501.296-2.335.734-.839.443-1.51 1.126-2.039 2.09v-2.392a.399.399 0 0 0-.058-.227c-.05-.043-.102-.051-.167-.043l-3.68.549a.942.942 0 0 0-.356.102c-.096.046-.14.16-.14.302 0 .173.075.27.211.313.142.037.25.096.358.153.134.069.25.148.37.233.103.097.2.228.296.416.082.179.134.384.165.62.033.236.033.537.033.887v6.962c0 .418-.016.837-.066 1.269-.033.432-.122.765-.25.984a1.31 1.31 0 0 1-.307.392c-.15.12-.27.2-.396.25a6.217 6.217 0 0 0-.432.228c-.146.065-.205.182-.205.336 0 .13.058.221.157.278.108.06.247.083.39.083h4.942a.672.672 0 0 0 .364-.083.303.303 0 0 0 .154-.278c0-.154-.05-.27-.142-.336-.085-.062-.222-.13-.404-.228a1.595 1.595 0 0 1-.307-.23c-.114-.097-.204-.25-.281-.44-.117-.228-.197-.57-.225-1.039-.033-.469-.05-.867-.05-1.186v-4.59c0-1.16.348-2.179 1.059-3.049.705-.85 1.467-1.291 2.264-1.291.933 0 1.658.37 2.178 1.126.53.745.797 1.948.797 3.59v4.484c0 .31-.033.655-.066 1.019a3.707 3.707 0 0 1-.185.884 1.869 1.869 0 0 1-.26.427 2.515 2.515 0 0 1-.307.295c-.187.12-.324.228-.432.25-.114.052-.16.16-.16.314 0 .13.042.221.14.278a.74.74 0 0 0 .378.083h4.716c.148.015.273 0 .378-.06.116-.045.168-.142.168-.264 0-.165-.066-.287-.189-.35zM64.017 69.76c-.68-.713-1.647-1.202-2.875-1.487l-3.268-.927a4.862 4.862 0 0 1-1.644-.793c-.46-.339-.646-.82-.557-1.436.082-.729.452-1.235 1.106-1.534.637-.273 1.291-.423 1.934-.423.836 0 1.567.239 2.184.722.626.478 1.064.87 1.337 1.183.248.268.484.603.7 1.024.216.39.409.802.602 1.189.025.114.09.205.173.267.097.065.174.08.265.04.066-.04.12-.091.176-.171a.514.514 0 0 0 .066-.264l-.566-3.479a.4.4 0 0 0-.216-.344 8.33 8.33 0 0 0-2.34-.975 9.355 9.355 0 0 0-2.46-.353c-1.24 0-2.455.353-3.607 1.07-1.16.705-1.734 1.837-1.734 3.35 0 .836.159 1.513.454 2.042a4.203 4.203 0 0 0 1.263 1.422c.296.233.62.455 1.021.631.384.194.72.321.999.41l3.833 1.194c.575.165 1.013.401 1.326.728.318.33.426.754.324 1.28-.074.467-.421.93-1.013 1.334-.586.424-1.393.597-2.429.48a6.312 6.312 0 0 1-1.888-.54c-.631-.29-1.217-.722-1.757-1.274-.365-.37-.638-.694-.809-.973-.173-.304-.387-.685-.643-1.146a1.028 1.028 0 0 0-.193-.287c-.074-.08-.165-.091-.258-.075a.349.349 0 0 0-.205.171c-.05.088-.066.216-.05.344l.6 3.373a.83.83 0 0 0 .091.23c.025.04.066.098.122.115.709.46 1.522.779 2.472.978.939.193 1.797.279 2.56.279 1 0 1.828-.086 2.5-.28.668-.198 1.231-.46 1.692-.798.299-.22.643-.612 1.015-1.14.372-.547.583-1.212.62-1.997.083-1.405-.225-2.469-.922-3.16zM76.318 74.809c-.373.776-.831 1.325-1.354 1.672a4.605 4.605 0 0 1-1.707.651 3.861 3.861 0 0 1-1.587-.173c-.557-.176-1.035-.7-1.422-1.547-.25-.523-.4-1.144-.437-1.832-.041-.7-.058-1.581-.058-2.648v-5.836h-1.61c-.199 0-.364-.031-.483-.116-.125-.069-.194-.196-.194-.375 0-.205.091-.379.256-.461.165-.114.333-.205.492-.302a5.92 5.92 0 0 0 1.12-.773 4.972 4.972 0 0 0 1.025-1.178c.407-.574.663-1.095.799-1.561.128-.455.313-1.17.537-2.13.041-.168.11-.307.18-.467.065-.148.173-.241.335-.241.17 0 .284.074.358.227.066.14.094.304.094.48v5.456h2.25c.213 0 .41.059.58.187.17.125.256.325.256.58 0 .257-.085.424-.27.52a1.11 1.11 0 0 1-.566.154h-2.25v8.467c0 .856.128 1.4.366 1.647.256.236.535.356.848.356.358 0 .694-.12.995-.356.305-.248.598-.532.876-.873.239-.262.416-.313.563-.148l.205.245-.199.375zM84.816 76.3a.321.321 0 0 1-.148.284.746.746 0 0 1-.364.09h-5.21a.812.812 0 0 1-.376-.09.345.345 0 0 1-.148-.285c0-.176.066-.284.182-.352.12-.063.273-.123.438-.2.108-.076.24-.147.384-.233a1.2 1.2 0 0 0 .355-.404c.131-.207.216-.517.26-.921.032-.41.065-.768.065-1.08v-7.56a7.86 7.86 0 0 0-.033-.854c-.008-.213-.082-.403-.176-.591a1.321 1.321 0 0 0-.307-.395 1.449 1.449 0 0 0-.358-.245c-.097-.057-.21-.136-.358-.202-.142-.08-.21-.185-.21-.316 0-.139.049-.25.141-.307a.993.993 0 0 1 .353-.102l3.606-.566c.066-.026.125-.012.165.034a.42.42 0 0 1 .066.23v10.873c0 .313.016.671.058 1.08.041.405.12.715.26.922.107.174.235.307.366.404.136.086.253.156.37.233.176.077.307.137.438.2.11.068.177.176.177.352m-1.576-19.584c0 .586-.17 1.103-.535 1.522-.352.432-.768.634-1.246.634-.488 0-.907-.202-1.263-.634-.346-.419-.52-.936-.52-1.522 0-.609.174-1.115.52-1.545.356-.429.774-.64 1.263-.64.478 0 .893.211 1.246.64.364.43.535.936.535 1.545zM95.623 74.809c-.378.776-.836 1.325-1.36 1.672a4.553 4.553 0 0 1-1.694.651c-.506.055-1.018.003-1.593-.173-.557-.176-1.035-.7-1.44-1.547-.243-.523-.38-1.144-.432-1.832-.033-.7-.057-1.581-.057-2.648v-5.836h-1.602c-.199 0-.37-.031-.483-.116-.132-.069-.194-.196-.194-.375 0-.205.085-.379.25-.461.165-.114.33-.205.494-.302.347-.176.717-.43 1.124-.773a5.15 5.15 0 0 0 1.032-1.178c.401-.574.657-1.095.79-1.561.123-.455.32-1.17.536-2.13a4.72 4.72 0 0 1 .181-.467c.066-.148.174-.241.342-.241.165 0 .285.074.344.227.066.14.103.304.103.48v5.456h2.253c.204 0 .4.059.565.187.182.125.267.325.267.58 0 .257-.085.424-.27.52a1.108 1.108 0 0 1-.562.154h-2.253v8.467c0 .856.122 1.4.366 1.647.248.236.541.356.848.356.358 0 .7-.12.99-.356.304-.248.602-.532.881-.873.234-.262.41-.313.553-.148.142.168.216.245.216.245l-.2.375zM112.323 76.3c.016.05.016.139.016.233 0 .096-.057.142-.202.142h-2.363a.956.956 0 0 1-.396-.08c-.11-.045-.204-.153-.273-.295a3.235 3.235 0 0 1-.233-.831 12.473 12.473 0 0 1-.085-1.234c-.632.995-1.349 1.683-2.156 2.079-.825.39-1.582.6-2.264.634-1.24.057-2.19-.205-2.856-.813a5.16 5.16 0 0 1-1.467-2.031c-.247-.603-.392-1.41-.444-2.458a59.387 59.387 0 0 1-.057-2.144V66.26c0-.367-.033-.703-.058-1.004-.05-.313-.14-.569-.287-.782a1.45 1.45 0 0 0-.546-.506 3.274 3.274 0 0 0-.614-.285c-.12-.048-.242-.1-.359-.159-.124-.045-.193-.165-.204-.322-.016-.156.016-.264.122-.35a.746.746 0 0 1 .361-.153l4.238-.617c.092 0 .163.015.214.051.05.037.074.103.074.22v8.11c0 1.645.23 2.847.7 3.593.478.753 1.183 1.129 2.122 1.129.819 0 1.601-.413 2.323-1.217.737-.814 1.107-1.764 1.107-2.856V66.23c0-.276-.033-.577-.066-.941-.042-.376-.137-.657-.282-.876a1.94 1.94 0 0 0-.532-.507 4.05 4.05 0 0 0-.66-.273l-.344-.173a.414.414 0 0 1-.2-.367c0-.154.05-.256.14-.322a.873.873 0 0 1 .353-.13l4.21-.543c.102 0 .17 0 .212.059.05.042.074.11.074.219v8.939c0 1.015.025 1.826.075 2.466.04.526.128.992.224 1.405.09.415.222.784.37 1.114zM123.6 74.809c-.378.776-.833 1.325-1.362 1.672a4.54 4.54 0 0 1-1.704.651 3.842 3.842 0 0 1-1.584-.173c-.551-.176-1.032-.7-1.428-1.547-.244-.523-.386-1.144-.432-1.832-.033-.7-.066-1.581-.066-2.648v-5.836h-1.598c-.193 0-.364-.031-.484-.116-.124-.069-.187-.196-.187-.375 0-.205.09-.379.247-.461.167-.114.332-.205.492-.302a5.53 5.53 0 0 0 1.126-.773 5.35 5.35 0 0 0 1.03-1.178c.392-.574.659-1.095.782-1.561.134-.455.321-1.17.543-2.13.058-.168.114-.307.182-.467.058-.148.176-.241.336-.241.167 0 .29.074.364.227.057.14.09.304.09.48v5.456h2.247c.21 0 .416.059.58.187.168.125.262.325.262.58 0 .257-.094.424-.279.52-.17.106-.37.154-.563.154h-2.247v8.467c0 .856.12 1.4.376 1.647.244.236.52.356.828.356.366 0 .702-.12 1.01-.356.3-.248.596-.532.875-.873.227-.262.412-.313.557-.148.137.168.214.245.214.245s-.074.124-.204.375zM138.904 69.007c0 .165-.05.307-.142.42a.405.405 0 0 1-.33.18h-8.97c0 .828.058 1.505.179 2.04.128.557.305 1.063.537 1.54.37.723.845 1.31 1.406 1.738.572.424 1.308.64 2.23.64.887 0 1.694-.261 2.411-.801a6.046 6.046 0 0 0 1.715-1.915.9.9 0 0 1 .327-.307c.128-.054.236-.054.34.05a.51.51 0 0 1 .197.329c.008.142-.008.284-.074.45a6.692 6.692 0 0 1-.853 1.347c-.37.455-.728.822-1.075 1.092-.484.353-1.052.677-1.718.996-.665.327-1.416.466-2.267.466-1.806 0-3.387-.643-4.74-1.957-1.352-1.32-2.026-3.339-2.026-6.063 0-2.07.672-3.822 2.005-5.236 1.337-1.436 2.853-2.15 4.542-2.15 2.008 0 3.567.708 4.659 2.136 1.095 1.416 1.65 3.086 1.65 5.005m-3.197-1.985c.025-.933-.234-1.851-.785-2.73-.541-.876-1.274-1.308-2.173-1.308-1.07 0-1.88.497-2.438 1.499-.555 1.01-.827 2.22-.827 3.663h5.164c.117 0 .256-.021.424-.032a.57.57 0 0 0 .413-.17.695.695 0 0 0 .204-.422c.008-.153.016-.324.016-.5zM164.979 69.633c0 2.15-.666 3.967-2.014 5.489-1.36 1.507-2.98 2.27-4.87 2.27-1.893 0-3.526-.763-4.891-2.27-1.354-1.522-2.03-3.34-2.03-5.49 0-2.16.676-3.98 2.03-5.488 1.365-1.525 2.998-2.279 4.892-2.279 1.888 0 3.51.754 4.869 2.279 1.348 1.507 2.014 3.327 2.014 5.489m-3.286 0c0-1.945-.35-3.521-1.055-4.756-.71-1.228-1.598-1.848-2.645-1.848-1.075 0-1.936.606-2.576 1.817-.64 1.218-.962 2.805-.962 4.787 0 1.996.336 3.583 1.001 4.786.672 1.215 1.536 1.806 2.611 1.806 1.058 0 1.917-.591 2.597-1.791.685-1.198 1.03-2.793 1.03-4.801zM178.684 58.985a.442.442 0 0 0-.016-.308c-.05-.082-.09-.142-.126-.207-.366-.498-.853-.93-1.467-1.323-.603-.38-1.348-.58-2.213-.58a5.61 5.61 0 0 0-2.19.421c-.653.276-1.228.82-1.746 1.621a4.594 4.594 0 0 0-.773 2.261 38.81 38.81 0 0 0-.083 2.75h-1.977c-.21 0-.39.063-.563.177-.174.128-.262.301-.262.552 0 .256.074.435.242.528.153.103.352.16.583.16h1.976v8.071c0 .313-.033.672-.074 1.081-.033.404-.13.714-.256.921a1.208 1.208 0 0 1-.358.404c-.136.086-.27.157-.382.234-.165.076-.313.136-.438.199-.12.068-.182.176-.182.352 0 .114.05.213.148.285.097.051.222.09.378.09h5.282c.15 0 .279-.039.375-.09a.36.36 0 0 0 .148-.285c0-.176-.074-.284-.187-.352-.12-.063-.268-.123-.433-.2-.116-.076-.24-.147-.372-.233a1.918 1.918 0 0 1-.395-.404c-.117-.207-.194-.517-.234-.921-.041-.41-.066-.768-.066-1.08v-8.072h2.958a.995.995 0 0 0 .608-.188c.177-.102.262-.293.262-.557 0-.256-.085-.424-.27-.521-.18-.1-.378-.15-.6-.15h-2.958v-3.448c0-.824.199-1.47.598-1.905a1.857 1.857 0 0 1 1.45-.668c.638 0 1.126.31 1.48.964.369.643.574 1.595.62 2.866 0 .103.015.208.04.313.025.091.083.157.165.202a.254.254 0 0 0 .25-.11.415.415 0 0 0 .143-.25l.913-2.6zM208.171 66.917c0 2.966-.862 5.44-2.574 7.465-1.712 2-3.85 3.01-6.422 3.01-2.536 0-4.667-1.01-6.399-2.998-1.729-2.003-2.593-4.494-2.593-7.477 0-3.012.864-5.498 2.593-7.489 1.732-1.99 3.863-2.986 6.4-2.986 2.553 0 4.692 1.007 6.404 3.015 1.73 1.996 2.591 4.499 2.591 7.46m-3.415 0c0-2.637-.502-4.835-1.514-6.618-1.018-1.755-2.372-2.634-4.067-2.634-1.655 0-3.02.87-4.038 2.625-1.03 1.755-1.542 3.973-1.542 6.627 0 2.693.498 4.914 1.519 6.646 1.007 1.74 2.363 2.6 4.061 2.6 1.675 0 3.026-.86 4.045-2.588 1.018-1.735 1.536-3.942 1.536-6.658zM222.352 66.317c.058.221.016.358-.148.42-.145.069-.293.007-.419-.182-.46-.787-.972-1.399-1.524-1.845-.552-.43-1.24-.566-2.059-.43-.41.08-.81.262-1.212.566-.38.31-.722.762-1.012 1.334a4.129 4.129 0 0 0-.313.97 5.858 5.858 0 0 0-.114 1.172v4.527c0 .339.016.737.066 1.206.041.47.108.81.205 1.03.108.199.199.344.295.45.103.099.21.173.325.23.165.096.29.165.393.227.102.065.145.182.145.336 0 .128-.041.222-.16.279a.862.862 0 0 1-.377.082h-4.92a.915.915 0 0 1-.388-.082c-.102-.057-.15-.151-.15-.28 0-.153.057-.27.179-.335a4.17 4.17 0 0 1 .44-.227c.111-.057.236-.131.39-.262.148-.11.25-.25.327-.392.102-.222.19-.54.236-.973.05-.441.083-.86.083-1.289v-6.942c0-.358-.016-.651-.042-.887a1.818 1.818 0 0 0-.153-.62 1.642 1.642 0 0 0-.319-.415c-.11-.086-.219-.177-.352-.245a3.906 3.906 0 0 0-.37-.156c-.136-.038-.2-.14-.2-.299 0-.142.042-.256.137-.302a.971.971 0 0 1 .358-.102l3.652-.549c.083-.009.145 0 .182.031.033.063.033.132.033.24v2.525c.44-.907.96-1.567 1.586-1.985.638-.416 1.263-.688 1.906-.81a5.35 5.35 0 0 1 .984-.072c.36.006.71.091 1.04.234a.793.793 0 0 1 .235.167c.066.066.108.174.142.322zM230.386 75.947c-.12-.063-.268-.123-.426-.2-.128-.076-.24-.147-.384-.233a1.65 1.65 0 0 1-.358-.404c-.134-.207-.23-.517-.262-.921a10.81 10.81 0 0 1-.058-1.08V62.234a.42.42 0 0 0-.066-.23c-.033-.045-.09-.06-.16-.034l-3.61.566a1.07 1.07 0 0 0-.35.103c-.098.057-.135.167-.135.307 0 .13.066.236.205.315.14.065.262.145.358.202.134.06.25.148.364.245.097.088.2.219.307.395.097.188.16.378.171.592.016.21.025.5.025.853v7.56c0 .312-.025.67-.058 1.08-.041.404-.134.714-.252.922-.11.173-.228.307-.368.404-.14.085-.264.156-.384.233-.17.077-.312.136-.429.199-.128.068-.19.176-.19.352 0 .114.049.214.141.285.114.051.234.09.37.09h5.222c.154 0 .273-.039.37-.09a.342.342 0 0 0 .16-.285c0-.176-.075-.284-.195-.352M228.46 55.17c-.352-.43-.762-.64-1.245-.64-.496 0-.905.21-1.263.64-.336.43-.515.936-.515 1.544 0 .586.18 1.104.515 1.522.358.432.768.634 1.263.634.484 0 .893-.202 1.245-.634.359-.418.535-.936.535-1.522 0-.608-.176-1.115-.535-1.544zM247.354 62.69c-.148.33-.29.68-.43 1.024-.14.35-.247.828-.31 1.456-.12.993-.176 1.886-.176 2.722V75.224c0 1.755-.179 3.123-.54 4.15-.37 1.015-.83 1.754-1.411 2.278a5.36 5.36 0 0 1-2.327 1.24c-.853.224-1.791.327-2.807.327-.748 0-1.544-.154-2.406-.43a8.408 8.408 0 0 1-2.272-1.188c-.041-.063-.097-.128-.142-.21-.05-.08-.074-.189-.05-.314l.82-3.14a.573.573 0 0 1 .153-.298c.066-.077.153-.103.213-.088a.307.307 0 0 1 .204.176c.05.108.075.222.095.358.161.842.352 1.462.563 1.866.213.401.432.757.649 1.047a2.6 2.6 0 0 0 1.043.807c.435.18.896.279 1.351.279 1.055 0 1.968-.432 2.753-1.302.785-.87 1.175-2.259 1.175-4.153v-1.905c0-.185-.145-.131-.41.193-.276.313-.665.623-1.174.95a5.284 5.284 0 0 1-1.024.515c-.301.088-.893.14-1.77.14-.841 0-1.632-.171-2.377-.507-.728-.322-1.37-.82-1.917-1.445-.512-.608-.921-1.354-1.228-2.227-.307-.876-.45-1.857-.45-2.955 0-1.16.162-2.195.515-3.111.35-.916.8-1.672 1.38-2.292a5.758 5.758 0 0 1 1.85-1.289 5.795 5.795 0 0 1 4.793.148c.808.404 1.445 1.06 1.883 2.002.025-.407.066-.81.16-1.191.09-.37.216-.709.363-.993.083-.125.16-.219.234-.273.074-.057.228-.094.432-.11h2.471c.128 0 .205.017.219.084.016.051-.016.143-.097.327m-3.853 6.664c0-.79-.041-1.422-.11-1.9-.067-.472-.249-.984-.513-1.547a4.32 4.32 0 0 0-1.174-1.462 2.648 2.648 0 0 0-1.755-.626c-.702 0-1.266.21-1.712.603-.444.404-.813.87-1.115 1.434a5.37 5.37 0 0 0-.53 1.598c-.11.617-.162 1.257-.162 1.9 0 .836.05 1.527.134 2.082.066.54.25 1.14.532 1.752.247.517.634 1 1.152 1.428.518.443 1.064.662 1.65.662.787 0 1.41-.193 1.865-.6.467-.372.836-.85 1.115-1.41.205-.387.358-.91.46-1.548.106-.682.163-1.456.163-2.366zM256.284 76.3c0 .113-.05.212-.148.284a.807.807 0 0 1-.37.09h-5.216a.793.793 0 0 1-.375-.09.345.345 0 0 1-.148-.285c0-.176.058-.284.187-.352.126-.063.268-.123.433-.2.108-.076.239-.147.378-.233a1.07 1.07 0 0 0 .353-.404c.14-.207.236-.517.27-.921.033-.41.066-.768.066-1.08v-7.56c0-.353-.025-.643-.033-.854a1.462 1.462 0 0 0-.166-.591 1.84 1.84 0 0 0-.307-.395 1.467 1.467 0 0 0-.37-.245c-.102-.057-.21-.136-.347-.202-.154-.08-.228-.185-.228-.316 0-.139.058-.25.148-.307a.977.977 0 0 1 .356-.102l3.609-.566c.066-.026.114-.012.165.034a.424.424 0 0 1 .058.23v10.873c0 .313.016.671.057 1.08.042.405.128.715.265.922.108.174.239.307.37.404.133.086.25.156.37.233.164.077.306.137.428.2.123.068.191.176.191.352M254.7 56.715a2.31 2.31 0 0 1-.54 1.522c-.342.432-.768.634-1.243.634-.492 0-.913-.202-1.26-.634-.359-.419-.53-.936-.53-1.522 0-.609.171-1.115.53-1.545.347-.429.767-.64 1.26-.64.474 0 .901.211 1.242.64.353.43.541.936.541 1.545zM273.513 76.015a2.636 2.636 0 0 1-.432-.25 3.097 3.097 0 0 1-.284-.285 1.11 1.11 0 0 1-.262-.438 5.068 5.068 0 0 1-.205-.884 9.219 9.219 0 0 1-.066-1.019v-3.5c0-.419-.033-1.107-.074-2.085-.05-.964-.176-1.744-.37-2.34-.33-1.002-.853-1.801-1.556-2.35-.716-.54-1.652-.782-2.84-.694-.735.06-1.514.296-2.344.734-.83.443-1.516 1.126-2.034 2.09v-2.392a.399.399 0 0 0-.057-.227c-.05-.043-.103-.051-.176-.043l-3.675.549a.933.933 0 0 0-.358.102c-.091.046-.134.16-.134.302 0 .173.066.27.205.313a1.5 1.5 0 0 1 .352.153c.14.069.264.148.368.233.108.097.204.228.304.416.089.179.14.384.174.62.016.236.024.537.024.887v6.962c0 .418-.008.837-.057 1.269-.033.432-.12.765-.262.984-.058.142-.165.27-.301.392a1.81 1.81 0 0 1-.388.25 4.687 4.687 0 0 0-.449.228c-.128.065-.193.182-.193.336 0 .13.05.221.165.278.103.06.222.083.382.083h4.937a.71.71 0 0 0 .372-.083c.097-.057.148-.148.148-.278 0-.154-.041-.27-.14-.336a4.215 4.215 0 0 0-.41-.228 1.457 1.457 0 0 1-.312-.23 1.522 1.522 0 0 1-.279-.44c-.114-.228-.19-.57-.222-1.039-.033-.469-.05-.867-.05-1.186v-4.59c0-1.16.364-2.179 1.07-3.049.702-.85 1.467-1.291 2.27-1.291.927 0 1.655.37 2.175 1.126.532.745.782 1.948.782 3.59v4.484c0 .31-.016.655-.058 1.019a4.395 4.395 0 0 1-.181.884c-.089.182-.166.324-.262.427a1.95 1.95 0 0 1-.302.295c-.191.12-.33.228-.438.25-.096.052-.157.16-.157.314 0 .13.05.221.146.278.09.06.227.083.375.083h4.71c.153.015.284 0 .387-.06.11-.045.16-.142.16-.264 0-.165-.059-.287-.182-.35zM292.114 75.947a2.043 2.043 0 0 0-.45-.234 2.959 2.959 0 0 1-.637-.284c-.17-.114-.34-.296-.512-.557a2.111 2.111 0 0 1-.275-.876 6.464 6.464 0 0 1-.066-.962V60.822c0-.313.016-.64.066-.967a1.98 1.98 0 0 1 .275-.87c.171-.256.342-.45.512-.564.18-.119.382-.21.638-.278.199-.075.341-.162.449-.25a.385.385 0 0 0 .165-.328c0-.133-.05-.25-.165-.301a.727.727 0 0 0-.382-.11h-6.08a.902.902 0 0 0-.379.09c-.11.057-.167.154-.167.296 0 .125.058.244.167.338.097.103.25.19.447.265.273.068.49.159.66.278.167.114.335.308.494.564.14.233.234.512.273.87.05.327.066.654.066.967v12.212c0 .307-.016.632-.066.962a2.308 2.308 0 0 1-.273.876c-.16.261-.327.443-.494.557a2.69 2.69 0 0 1-.66.284c-.196.08-.35.165-.447.256a.428.428 0 0 0-.167.353c0 .12.058.227.167.284.097.069.23.097.379.097h6.08a.676.676 0 0 0 .382-.108c.114-.083.165-.182.165-.296 0-.165-.05-.261-.165-.352zM309.667 76.365a.279.279 0 0 1-.17.264c-.111.06-.234.074-.388.06h-4.715c-.148 0-.28-.024-.37-.083-.102-.057-.148-.148-.148-.279 0-.154.05-.262.165-.313.097-.023.233-.13.43-.25.105-.094.218-.187.307-.296.088-.102.173-.244.255-.426.089-.25.148-.54.191-.885.033-.364.058-.708.058-1.018v-4.485c0-1.641-.27-2.844-.782-3.59-.54-.756-1.26-1.125-2.182-1.125-.81 0-1.572.44-2.272 1.29-.71.871-1.07 1.89-1.07 3.05v4.59c0 .318.026.717.059 1.186s.102.81.222 1.038c.082.19.176.344.279.44.114.103.21.18.313.231.17.097.32.165.403.228.103.065.136.182.136.335 0 .131-.05.222-.153.28a.68.68 0 0 1-.364.082h-4.943a.773.773 0 0 1-.381-.083c-.111-.057-.162-.148-.162-.279 0-.153.074-.27.205-.335.122-.075.27-.154.44-.228.114-.051.245-.13.382-.25.142-.122.244-.25.307-.393.131-.219.222-.551.262-.984.04-.432.057-.85.057-1.268v-6.962c0-.35-.016-.652-.033-.888a1.894 1.894 0 0 0-.159-.62 1.51 1.51 0 0 0-.307-.415 2.487 2.487 0 0 0-.364-.233 1.385 1.385 0 0 0-.358-.154c-.142-.043-.2-.14-.2-.312 0-.143.042-.256.132-.302a.925.925 0 0 1 .358-.102l3.674-.55c.083-.008.12 0 .165.044.042.05.066.119.066.227v2.392c.53-.964 1.207-1.647 2.037-2.09.825-.439 1.616-.675 2.344-.734 1.18-.088 2.115.153 2.827.694.716.549 1.24 1.348 1.564 2.349.199.597.321 1.376.364 2.34.066.979.085 1.667.085 2.085v3.501c0 .31.025.654.066 1.018.058.344.11.635.205.885.057.182.153.324.256.438.108.12.199.213.284.284.171.114.313.19.426.25.132.063.2.185.2.35zM322.076 61.584a.457.457 0 0 1-.14.25c-.066.097-.16.12-.256.111a.306.306 0 0 1-.163-.202c-.016-.105-.05-.21-.05-.313-.032-1.27-.243-2.223-.608-2.866-.358-.654-.859-.964-1.473-.964-.583 0-1.064.224-1.459.668-.404.435-.606 1.08-.606 1.905v3.447h2.97c.216 0 .409.052.597.151.177.097.27.265.27.52 0 .265-.089.456-.27.558a.928.928 0 0 1-.598.188h-2.969v8.071c0 .313.033.672.074 1.081.033.404.108.714.23.921.134.174.26.308.402.404.13.086.25.157.366.234.157.076.302.136.424.199.125.068.19.176.19.352a.319.319 0 0 1-.15.285.766.766 0 0 1-.366.09h-5.288a.787.787 0 0 1-.37-.09.342.342 0 0 1-.159-.285c0-.176.066-.284.19-.352.129-.063.27-.123.436-.2.12-.076.238-.147.384-.233.145-.096.259-.23.358-.404.134-.207.219-.517.26-.921.04-.41.057-.768.057-1.08v-8.072h-1.974c-.222 0-.42-.057-.58-.16-.16-.093-.234-.273-.234-.528 0-.25.085-.424.262-.552a.993.993 0 0 1 .552-.176h1.974c0-1.03.033-1.954.088-2.75.058-.811.316-1.574.783-2.262.518-.802 1.086-1.345 1.746-1.621a5.576 5.576 0 0 1 2.187-.42c.865 0 1.607.198 2.216.58.608.392 1.103.824 1.462 1.322.033.065.074.125.11.207a.448.448 0 0 1 .041.308zM338.176 69.633c0 2.15-.683 3.967-2.025 5.489-1.354 1.507-2.975 2.27-4.863 2.27-1.906 0-3.53-.763-4.88-2.27-1.366-1.522-2.043-3.34-2.043-5.49 0-2.16.677-3.98 2.042-5.488 1.351-1.525 2.975-2.279 4.88-2.279 1.89 0 3.51.754 4.864 2.279 1.342 1.507 2.025 3.327 2.025 5.489m-3.288 0c0-1.945-.358-3.521-1.069-4.756-.705-1.228-1.581-1.848-2.634-1.848-1.08 0-1.942.606-2.57 1.817-.644 1.218-.968 2.805-.968 4.787 0 1.996.33 3.583 1.001 4.786.666 1.215 1.53 1.806 2.611 1.806 1.055 0 1.917-.591 2.605-1.791.683-1.198 1.024-2.793 1.024-4.801zM352.174 66.317c.058.221.016.358-.142.42-.153.069-.307.007-.426-.182-.461-.787-.967-1.399-1.522-1.845-.549-.43-1.237-.566-2.056-.43-.41.08-.817.262-1.212.566-.373.31-.722.762-1.024 1.334a4.383 4.383 0 0 0-.307.97 5.894 5.894 0 0 0-.102 1.172v4.527c0 .339.016.737.05 1.206.04.47.113.81.22 1.03.103.199.194.344.285.45.109.099.217.173.325.23.17.096.307.165.398.227.094.065.148.182.148.336a.299.299 0 0 1-.163.279.852.852 0 0 1-.384.082h-4.903a.86.86 0 0 1-.39-.082.3.3 0 0 1-.16-.28c0-.153.059-.27.18-.335.128-.074.268-.153.435-.227.11-.057.248-.131.401-.262.142-.11.245-.25.316-.392.11-.222.185-.54.247-.973.05-.441.066-.86.066-1.289v-6.942c0-.358-.008-.651-.042-.887a1.832 1.832 0 0 0-.153-.62 1.52 1.52 0 0 0-.677-.66 2.346 2.346 0 0 0-.367-.156c-.128-.038-.185-.14-.185-.299 0-.142.033-.256.13-.302a.926.926 0 0 1 .361-.102l3.655-.549c.083-.009.13 0 .16.031a.402.402 0 0 1 .065.24v2.525c.421-.907.95-1.567 1.582-1.985.631-.416 1.257-.688 1.9-.81a5.34 5.34 0 0 1 .972-.072c.37.006.73.091 1.053.234.085.043.159.085.222.167.066.066.12.174.147.322zM375.015 76.328c0 .13-.058.221-.162.278a.71.71 0 0 1-.382.06h-4.664a.847.847 0 0 1-.373-.083c-.11-.062-.15-.145-.15-.27 0-.18.05-.27.153-.322.102-.045.262-.124.438-.244.109-.097.217-.182.308-.31.096-.105.167-.253.233-.441.094-.225.176-.512.205-.87.05-.347.074-.694.074-1.018v-5.99c0-1.126-.216-1.951-.643-2.474-.42-.53-.859-.8-1.334-.8-.52 0-.972.22-1.368.63-.392.403-.68.858-.864 1.359-.12.347-.2.705-.234 1.083-.041.361-.05.76-.05 1.169v5.023c0 .324 0 .67.05 1.018.025.358.097.645.188.87.097.233.194.395.282.484.1.105.19.19.293.267.168.1.307.182.415.244.12.046.171.143.171.322 0 .125-.05.219-.148.282-.096.062-.213.079-.364.07h-4.667a.804.804 0 0 1-.36-.082.317.317 0 0 1-.143-.27c0-.151.058-.256.154-.322.125-.062.248-.145.41-.244.125-.097.233-.182.324-.31.09-.106.177-.253.256-.441.082-.225.142-.512.185-.87.033-.347.058-.694.058-1.019v-5.99c0-1.296-.208-2.155-.632-2.593-.444-.444-.887-.68-1.36-.68-.577 0-1.046.233-1.439.663-.397.43-.682.896-.836 1.382-.12.339-.187.7-.19 1.072-.025.367-.042.76-.042 1.183v4.69c0 .33.016.723.066 1.2.033.467.109.82.217 1.024.09.205.173.353.29.456.103.096.2.179.307.233.171.09.313.17.41.221.083.069.13.166.13.345 0 .125-.05.207-.153.27a.826.826 0 0 1-.359.083h-4.948a.997.997 0 0 1-.387-.083.286.286 0 0 1-.148-.27c0-.18.058-.282.187-.359.134-.077.28-.15.444-.207.12-.055.245-.148.376-.268a.958.958 0 0 0 .313-.387c.128-.227.222-.54.262-.99.04-.431.066-.852.066-1.267v-6.946c0-.355-.008-.66-.033-.896-.033-.227-.075-.438-.163-.614a1.516 1.516 0 0 0-.313-.413 2.746 2.746 0 0 0-.35-.253 2.741 2.741 0 0 0-.358-.145c-.148-.05-.214-.153-.214-.307 0-.156.05-.244.145-.301.085-.057.2-.08.347-.108l3.68-.544c.066 0 .125.024.16.054.049.04.073.103.073.21v1.807a4.13 4.13 0 0 1 1.681-1.704c.72-.387 1.45-.594 2.19-.608.689-.024 1.36.193 2.002.642.644.45 1.059 1.135 1.257 2.07.447-.949.996-1.637 1.67-2.07.665-.432 1.442-.642 2.335-.642.734 0 1.388.21 1.951.628.557.435 1.012 1.123 1.36 2.085.159.432.25.972.279 1.604 0 .651.008 1.251.008 1.78v4.943c0 .324.024.672.082 1.018.05.359.114.646.205.87.074.188.177.336.256.464.102.106.216.21.301.288.16.099.293.182.41.244.124.065.19.182.19.336zM391.041 75.21c-.05-.344-.12-.81-.193-1.43-.041-.41-.074-.82-.074-1.204V68.41c0-.978-.083-1.81-.227-2.503-.16-.705-.319-1.277-.518-1.732-.592-1.229-1.467-1.945-2.633-2.176-1.16-.239-2.128-.332-2.907-.313a8.726 8.726 0 0 0-2.656.447 7.59 7.59 0 0 0-2.412 1.283c0 .02-.033.062-.074.125a.571.571 0 0 0-.14.256l-.819 3.259a.776.776 0 0 0-.016.336.34.34 0 0 0 .16.213c.12.031.222.02.307-.071a.887.887 0 0 0 .167-.256c.2-.361.413-.785.669-1.251.247-.478.53-.91.862-1.303.344-.475.819-.927 1.413-1.34a3.201 3.201 0 0 1 1.965-.64c1.163 0 2.108.277 2.842.826.728.546 1.106 1.658 1.106 3.287v1.417a6.103 6.103 0 0 0-1.857-.78c-.657-.165-1.263-.253-1.792-.253-.62 0-1.337.094-2.167.276-.808.17-1.553.54-2.227 1.112a6.628 6.628 0 0 0-1.448 1.664c-.427.64-.626 1.501-.626 2.577 0 1.689.544 2.801 1.61 3.33 1.058.52 2.19.78 3.362.76a6.964 6.964 0 0 0 3.091-.786c.981-.511 1.67-1.018 2.074-1.524.066.472.12.788.153.964.033.168.114.401.216.7a.635.635 0 0 0 .268.293c.11.051.234.082.387.082h2.304c.153 0 .228-.054.222-.14-.025-.09-.033-.167-.066-.235a4.141 4.141 0 0 1-.325-1.104m-4.462-.81c-.736.762-1.587 1.14-2.517 1.14-.922 0-1.675-.287-2.275-.87-.598-.594-.882-1.434-.797-2.545.058-1.087.484-1.966 1.237-2.645.768-.7 1.625-1.07 2.56-1.121 1.01-.057 1.792.262 2.352.941.563.669.808 1.47.745 2.358-.122 1.064-.552 1.963-1.305 2.742zM402.736 74.809c-.39.776-.836 1.325-1.365 1.672a4.542 4.542 0 0 1-1.7.651 3.856 3.856 0 0 1-1.588-.173c-.557-.176-1.018-.7-1.419-1.547-.26-.523-.404-1.144-.44-1.832-.042-.7-.067-1.581-.067-2.648v-5.836h-1.595c-.205 0-.364-.031-.49-.116-.124-.069-.181-.196-.181-.375 0-.205.074-.379.244-.461.165-.114.333-.205.495-.302.344-.176.711-.43 1.117-.773.41-.342.748-.737 1.039-1.178.387-.574.65-1.095.79-1.561.12-.455.316-1.17.534-2.13.05-.168.095-.307.182-.467.066-.148.177-.241.336-.241.176 0 .293.074.344.227.058.14.103.304.103.48v5.456h2.247c.21 0 .41.059.577.187.176.125.261.325.261.58 0 .257-.09.424-.27.52a1.082 1.082 0 0 1-.568.154h-2.247v8.467c0 .856.122 1.4.372 1.647.256.236.523.356.848.356.352 0 .682-.12.99-.356.307-.248.59-.532.875-.873.242-.262.427-.313.563-.148l.205.245s-.066.124-.193.375zM411.24 76.3a.363.363 0 0 1-.148.284.77.77 0 0 1-.37.09h-5.221a.751.751 0 0 1-.37-.09.345.345 0 0 1-.148-.285c0-.176.066-.284.188-.352.124-.063.267-.123.432-.2.114-.076.233-.147.386-.233a1.23 1.23 0 0 0 .348-.404c.136-.207.221-.517.268-.921.05-.41.066-.768.066-1.08v-7.56c0-.353-.016-.643-.025-.854a2.015 2.015 0 0 0-.177-.591 1.328 1.328 0 0 0-.313-.395 1.287 1.287 0 0 0-.37-.245c-.09-.057-.199-.136-.346-.202-.137-.08-.21-.185-.21-.316 0-.139.049-.25.139-.307.087-.048.21-.082.358-.102l3.61-.566c.073-.026.124-.012.159.034a.361.361 0 0 1 .074.23v10.873c0 .313.016.671.05 1.08.032.405.127.715.261.922.11.174.242.307.358.404.148.086.27.156.379.233.165.077.307.137.432.2.12.068.193.176.193.352m-1.587-19.584c0 .586-.165 1.103-.529 1.522-.364.432-.774.634-1.248.634-.492 0-.916-.202-1.26-.634-.353-.419-.518-.936-.518-1.522 0-.609.165-1.115.518-1.545.344-.429.767-.64 1.26-.64.474 0 .884.211 1.248.64.364.43.53.936.53 1.545zM427.497 69.633c0 2.15-.666 3.967-2.02 5.489-1.354 1.507-2.975 2.27-4.869 2.27-1.9 0-3.527-.763-4.875-2.27-1.37-1.522-2.036-3.34-2.036-5.49 0-2.16.665-3.98 2.036-5.488 1.348-1.525 2.975-2.279 4.875-2.279 1.894 0 3.515.754 4.87 2.279 1.353 1.507 2.019 3.327 2.019 5.489m-3.283 0c0-1.945-.346-3.521-1.069-4.756-.705-1.228-1.576-1.848-2.64-1.848-1.06 0-1.922.606-2.565 1.817-.645 1.218-.966 2.805-.966 4.787 0 1.996.326 3.583.995 4.786.677 1.215 1.541 1.806 2.616 1.806 1.053 0 1.929-.591 2.606-1.791.688-1.198 1.023-2.793 1.023-4.801zM444.93 76.365c0 .122-.04.219-.165.264-.108.06-.227.074-.381.06h-4.712a.7.7 0 0 1-.374-.083c-.096-.057-.147-.148-.147-.279 0-.154.057-.262.153-.313.11-.023.256-.13.444-.25.102-.094.21-.187.318-.296.074-.102.171-.244.234-.426.09-.25.153-.54.19-.885a7.46 7.46 0 0 0 .058-1.018v-4.485c0-1.641-.244-2.844-.77-3.59-.532-.756-1.255-1.125-2.193-1.125-.797 0-1.55.44-2.261 1.29-.703.871-1.061 1.89-1.061 3.05v4.59c0 .318.006.717.05 1.186.032.469.108.81.233 1.038.083.19.168.344.273.44.109.103.205.18.313.231.177.097.307.165.396.228.108.065.145.182.145.335 0 .131-.041.222-.148.28a.738.738 0 0 1-.381.082h-4.934a.719.719 0 0 1-.379-.083.302.302 0 0 1-.165-.279c0-.153.066-.27.2-.335.125-.075.284-.154.446-.228.102-.051.236-.13.378-.25.142-.122.244-.25.319-.393.125-.219.216-.551.244-.984.05-.432.066-.85.066-1.268v-6.962c0-.35-.008-.652-.041-.888a1.832 1.832 0 0 0-.154-.62 1.51 1.51 0 0 0-.307-.415 2.448 2.448 0 0 0-.36-.233c-.1-.057-.211-.117-.35-.154-.15-.043-.214-.14-.214-.312 0-.143.042-.256.13-.302a.99.99 0 0 1 .365-.102l3.68-.55c.058-.008.126 0 .16.044.04.05.057.119.057.227v2.392c.535-.964 1.212-1.647 2.037-2.09.83-.439 1.618-.675 2.338-.734 1.189-.088 2.127.153 2.85.694.699.549 1.234 1.348 1.558 2.349.196.597.318 1.376.358 2.34.058.979.085 1.667.085 2.085v3.501c0 .31.025.654.066 1.018.05.344.12.635.202.885.066.182.154.324.26.438.099.12.202.213.295.284.156.114.296.19.413.25.128.063.196.185.196.35zM-26.228 3.568h10.486c1.948 0 2.933.794 2.933 2.392 0 1.576-.985 2.372-2.933 2.372h-23.46v11.436h15.827c.492 0 .833.11 1.03.324.198.23.298.612.298 1.14v15.174c0 2.392-.387 4.285-1.137 5.685-.756 1.388-1.923 2.082-3.481 2.082h-2.643c-.583 0-.978-.125-1.174-.399-.2-.261-.29-.722-.29-1.356V24.389H-61.71c-.438 0-.776-.056-1.024-.187-.244-.111-.483-.359-.724-.697l-2.355-3.296c-.441-.734-.464-1.257-.075-1.587.393-.308.837-.293 1.326.043.972.54 1.774.856 2.412.952.64.103 1.325.151 2.059.151h12.16V8.332h-21.028c-.595 0-1.035-.065-1.326-.182-.295-.125-.517-.279-.653-.478L-73.29 4.3c-.396-.83-.43-1.462-.117-1.9.321-.432.825-.466 1.513-.079 1.12.592 1.988.941 2.603 1.07.606.116 1.499.178 2.665.178h35.63c.49-2.545.836-5.514 1.067-8.944.218-3.419.304-6.541.256-9.38h-29.098c-.443 0-.887-.063-1.32-.193-.443-.108-.881-.421-1.322-.91l-2.267-2.708c-.295-.381-.364-.847-.19-1.36.167-.505.622-.6 1.356-.255 1.035.438 1.894.71 2.6.805.708.105 1.672.15 2.9.15h34.522c.927.051 1.57.418 1.905 1.104.341.682.45 1.484.296 2.414-.102 2.296-.623 5.404-1.581 9.309-.95 3.916-2.406 7.23-4.357 9.969zM10.213 9.623c-2.048 4.158-4.249 7.628-6.59 10.41-2.349 2.78-4.385 4.732-6.091 5.864-.933.631-1.644.557-2.156-.214-.518-.787-.376-1.72.4-2.792C-.852 18.4 1.89 13.246 3.983 7.42 6.08 1.612 7.29-4.261 7.577-10.176h-6.16c-.53 0-.95-.06-1.243-.165-.293-.128-.614-.416-.953-.848l-1.908-2.719c-.441-.824-.487-1.41-.145-1.752.341-.341.804-.375 1.387-.079.984.492 1.73.774 2.242.842.509.073 1.262.11 2.24.11h20.006c1.658 0 2.497.772 2.497 2.307 0 1.548-.84 2.304-2.497 2.304h-6.525a59.468 59.468 0 0 1-1.652 7.963C14.158.306 13.327 2.712 12.343 5c1.32 1.672 2.554 3.003 3.698 4.036 1.149 1.02 1.948 1.692 2.383 1.982.927.591 1.695.984 2.31 1.211.614.211 1.217.748 1.797 1.573 1.075 1.556 1.996 3.37 2.747 5.418.756 2.062.746 3.504-.033 4.335-.498.537-1.086.836-1.792.881-.705.046-1.706-.344-2.974-1.177-1.713-1.414-3.385-3.217-5.052-5.381-1.672-2.173-3.395-4.926-5.213-8.254m19.36-3.157h-7.696c-.35 0-.603-.028-.774-.108-.17-.068-.404-.278-.702-.623l-2.199-2.784a3.15 3.15 0 0 1-.443-1.246c-.041-.44.082-.807.37-1.097.49-.484 1.126-.45 1.914.108.776.551 1.88.841 3.29.841h6.24v-16.782c0-1.516-.295-2.554-.884-3.114a18.899 18.899 0 0 0-2.12-1.724c-.841-.486-1.131-1.04-.886-1.644.238-.614.597-.89 1.023-.847l8.8 1.461c.683.097 1.072.339 1.175.7.096.37.145.62.145.77v57.69c0 1.51-.305 2.784-.913 3.802-.614 1.03-1.573 1.55-2.893 1.55h-2.13c-.583 0-.953-.14-1.095-.406-.153-.28-.222-.726-.222-1.363V6.467m8.572-29.75 8.652 1.462c.68.097 1.063.33 1.171.689.097.378.137.628.137.773v59.157c0 1.513-.295 2.781-.91 3.81-.608 1.025-1.57 1.542-2.886 1.542h-1.983c-.585 0-.955-.136-1.103-.406-.146-.265-.216-.72-.216-1.357v-58.349c0-1.507-.308-2.548-.922-3.108a24.843 24.843 0 0 0-2.087-1.727c-.837-.489-1.121-1.035-.876-1.65.244-.602.586-.887 1.023-.836zM74.819 9.538h-9.587c-1.03 0-1.741-.103-2.136-.319-.39-.227-.754-.557-1.095-1l-2.054-2.703c-.34-.631-.358-1.205-.033-1.692.316-.486.785-.537 1.428-.14.978.53 1.866.877 2.685 1.025.802.142 2.03.216 3.691.216h17.23c4.977 0 8.486-.075 10.505-.216 2.04-.148 3.908-.467 5.609-.956.984-.247 1.55-.057 1.695.546.148.617-.176 1.177-.95 1.726-1.433.981-3.373 1.8-5.864 2.489-2.497.688-5.919 1.024-10.267 1.024h-2.202v6.24c0 1.513-.318 2.69-.984 3.552-.663.856-1.655 1.28-2.969 1.28h-3.376c-.589 0-.958-.134-1.1-.401-.143-.27-.225-.717-.225-1.36V9.538m5.068-30.85c3.996 0 7.414 1.064 10.224 3.225 2.81 2.145 4.212 4.958 4.212 8.422 0 3.421-1.402 6.222-4.212 8.393C87.302.909 83.884 1.99 79.888 1.99c-3.967 0-7.346-1.07-10.156-3.214-2.804-2.162-4.21-4.96-4.21-8.441 0-3.57 1.406-6.4 4.21-8.498 2.81-2.1 6.189-3.149 10.156-3.149m-9.164 43.765 11.43.878c.837.336 1.258.9 1.258 1.676v8.358c.041 1.61.284 2.765.719 3.442.447.69 1.51 1.026 3.23 1.026h24.042c1.66 0 2.497.672 2.497 1.983 0 1.316-.836 1.973-2.497 1.973H81.278c-1.171 0-2.553-.438-4.146-1.314-1.582-.876-2.384-2.684-2.384-5.423v-6.527c0-1.178-.568-2.022-1.711-2.563-1.144-.537-1.969-.955-2.464-1.248-.779-.381-1.063-.876-.841-1.462.224-.58.545-.856.992-.8m2.859-32.117c0 2.11.66 3.83 1.973 5.17 1.326 1.337 2.77 2.014 4.332 2.014 1.618 0 3.074-.654 4.434-1.98 1.342-1.325 2.01-3.054 2.01-5.204 0-2.145-.668-3.894-2.01-5.24-1.36-1.344-2.816-2.018-4.434-2.018-1.562 0-3.006.674-4.332 2.019-1.314 1.345-1.973 3.094-1.973 5.239m31.076 23.68v-29.983c0-1.516-.486-2.562-1.464-3.148a619.634 619.634 0 0 1-2.565-1.545c-.834-.494-1.172-1.072-1.024-1.757.145-.688.606-.978 1.388-.876l10.557 1.462c.69.1 1.08.332 1.171.7.097.37.154.62.154.767v40.688c0 1.51-.333 2.824-.993 3.919-.662 1.098-1.658 1.646-2.974 1.646h-2.921c-.598 0-.956-.139-1.11-.406-.142-.26-.218-.717-.218-1.354v-5.572H93.087c-.295 0-.551-.03-.74-.116-.193-.069-.415-.28-.653-.623l-1.911-2.551c-.296-.398-.472-.79-.518-1.18-.05-.387.103-.737.447-1.022.474-.497 1.126-.455 1.903.103.779.569 1.882.847 3.299.847zM142.857 3.028c-2.338 3.563-4.925 6.771-7.77 9.601-2.835 2.83-5.497 4.909-7.991 6.231-1.417.729-2.298.68-2.634-.153-.344-.825-.094-1.63.73-2.418 4.69-4.64 8.396-9.8 11.11-15.46 2.704-5.665 4.024-10.022 3.927-13.043-.05-1.277-.665-2.323-1.834-3.157-1.18-.83-2.01-1.302-2.494-1.399-.591-.239-.834-.75-.734-1.536.102-.782.563-1.137 1.39-1.103l12.022 1.4c.632.045 1.07.318 1.314.81.245.489.313 1.02.222 1.6-.245 2.401-.79 4.822-1.644 7.262a46.373 46.373 0 0 1-3.197 7.113l.074.074.083.074c1.362 1.265 2.53 2.196 3.481 2.781.953.592 2.042 1.15 3.262 1.69 1.46.637 2.489 1.001 3.08 1.095.58.096 1.22.44 1.906 1.026 1.413 1.52 2.6 3.305 3.55 5.359.949 2.042 1.091 3.563.403 4.536-.39.731-.984 1.169-1.792 1.277-.807.134-1.874-.128-3.19-.76-1.858-1.026-3.957-2.619-6.266-4.76-2.318-2.16-4.662-4.867-7.005-8.14m-6.812 15.534 11.504.88c.828.34 1.252.91 1.252 1.688v12.235c.041 1.622.29 2.765.728 3.453.44.686 1.516 1.03 3.231 1.03h22.798c1.7 0 2.562.657 2.562 1.968 0 1.322-.861 1.988-2.562 1.988h-28.958c-1.172 0-2.554-.441-4.141-1.317-1.593-.887-2.378-2.69-2.378-5.42V24.65c0-1.174-.58-2.022-1.732-2.565-1.146-.546-1.965-.956-2.449-1.257-.782-.381-1.07-.87-.847-1.462.224-.58.551-.842.992-.805M176.87.676v18.913c0 1.524-.324 2.821-.99 3.925-.654 1.098-1.64 1.652-2.963 1.652h-2.719c-.575 0-.95-.134-1.098-.407-.142-.267-.216-.722-.216-1.353v-39.368c0-1.507-.598-2.605-1.792-3.302a128.135 128.135 0 0 1-2.895-1.675c-.632-.392-.86-.893-.663-1.507.19-.603.517-.888.952-.837l11.075 1.462c.725.097 1.135.33 1.206.689.066.378.103.628.103.773v15.904l7.627-.583c1.365-.1 2.065.833 2.088 2.787.033 1.954-.671 2.927-2.088 2.927zM211.775 9.02c-2.446 4.312-5.052 7.912-7.816 10.822-2.753 2.91-5.239 5.025-7.434 6.345-1.036.631-1.843.668-2.458.11-.614-.565-.429-1.393.546-2.46 4.107-4.684 7.48-10.255 10.12-16.677 2.633-6.422 4.154-12.303 4.55-17.63h-9.54c-.577 0-1.023-.06-1.313-.185-.293-.12-.614-.393-.959-.834l-1.902-2.787c-.439-.839-.472-1.424-.103-1.76.364-.341.814-.375 1.348-.08.979.49 1.738.774 2.276.848.537.071 1.268.114 2.196.114h26.677c1.663 0 2.497.78 2.497 2.343 0 1.559-.834 2.341-2.497 2.341h-9.153a62.825 62.825 0 0 1-1.91 7.727c-.786 2.472-1.679 4.79-2.702 6.94 1.848 2.24 3.259 3.782 4.209 4.61.95.84 2.087 1.638 3.407 2.415 1.567.884 2.577 1.388 3.043 1.513.464.122.967.614 1.502 1.504 1.171 1.601 2.2 3.49 3.114 5.64.901 2.156.964 3.765.185 4.835-.543.694-1.223 1.06-2.048 1.126-.836.074-1.843-.245-3.014-.973-2.34-1.615-4.542-3.73-6.596-6.342-2.047-2.61-4.127-5.785-6.225-9.505m21.18-32.314 10.488 1.462c.68.1 1.072.333 1.17.7.096.37.147.62.147.768V38.57c0 1.508-.33 2.822-.995 3.928-.654 1.106-1.647 1.647-2.97 1.647h-2.85c-.588 0-.952-.137-1.097-.404-.156-.273-.222-.728-.222-1.36v-58.348c0-1.516-.495-2.563-1.476-3.149-.973-.586-1.835-1.103-2.563-1.544-.83-.495-1.174-1.072-1.024-1.758.148-.688.609-.978 1.391-.876zM277.603.312a51.41 51.41 0 0 1-7.258 8.384c-2.781 2.625-5.71 4.653-8.794 6.126-1.126.535-1.917.444-2.383-.296-.464-.734-.182-1.558.848-2.494 4.012-3.615 7.28-7.912 9.817-12.892 2.543-4.989 3.959-9.198 4.26-12.616H265.3c-.597 0-1.03-.06-1.328-.183-.293-.124-.609-.398-.953-.836l-1.908-2.645c-.43-.824-.487-1.41-.146-1.751.35-.348.81-.373 1.4-.086.972.49 1.718.774 2.235.853.506.075 1.257.103 2.23.103h25.943c1.673 0 2.497.762 2.497 2.275s-.824 2.27-2.497 2.27h-9.004c-.16 1.47-.575 3.054-1.246 4.766-.686 1.712-1.564 3.467-2.645 5.279 1.565 1.368 2.785 2.28 3.67 2.742.875.472 1.88.944 3.005 1.436 1.408.534 2.415.85 3.007.916.586.076 1.089.355 1.535.844 1.707 1.752 2.85 3.413 3.402 4.952.563 1.533.6 2.79.12 3.762-.444.794-1.081 1.28-1.906 1.474-.833.193-1.888.023-3.151-.51-1.718-.833-3.612-2.26-5.683-4.285-2.084-2.034-4.163-4.562-6.274-7.588m13.86 16.2c4.445 0 8.557 1.171 12.312 3.514 3.768 2.344 5.648 5.814 5.648 10.404 0 4.596-1.88 8.075-5.648 10.41-3.755 2.349-7.867 3.523-12.312 3.523-4.397 0-8.493-1.174-12.278-3.524-3.789-2.334-5.685-5.813-5.685-10.409 0-4.59 1.896-8.06 5.685-10.404 3.785-2.343 7.88-3.515 12.278-3.515m-9.377 13.92c0 2.889.955 5.21 2.884 6.961 1.934 1.764 4.092 2.64 6.493 2.64 2.295 0 4.428-.876 6.407-2.64 1.986-1.751 2.975-4.072 2.975-6.962 0-2.878-.99-5.19-2.975-6.925-1.98-1.732-4.112-2.603-6.407-2.603-2.4 0-4.56.87-6.493 2.603-1.929 1.735-2.884 4.047-2.884 6.925m21.25-31.586h-10.338c-.287 0-.515-.037-.69-.116-.18-.075-.416-.285-.695-.618l-2.201-2.793a2.792 2.792 0 0 1-.444-1.24c-.05-.438.075-.813.37-1.103.487-.49 1.127-.447 1.906.114.78.563 1.877.847 3.296.847h8.797v-9.903c0-1.516-.49-2.562-1.462-3.148a276.285 276.285 0 0 1-2.565-1.545c-.836-.494-1.178-1.072-1.03-1.757.142-.688.58-.978 1.323-.876l10.551 1.462c.691.1 1.075.332 1.172.7.1.37.15.62.15.767V11.16c0 1.519-.334 2.821-1 3.916-.644 1.106-1.644 1.644-2.958 1.644h-2.861c-.586 0-.95-.122-1.098-.39-.148-.273-.222-.728-.222-1.365zM348.85 30.248v-5.637c0-1.513-.242-2.554-.703-3.117-.46-.557-1.16-1.083-2.082-1.573-.944-.546-1.29-1.1-1.069-1.686.219-.594.634-.85 1.212-.814l9.962 1.11a.9.9 0 0 1 .742.551c.142.319.222.592.222.84v10.326h22.283c2 0 2.995.79 2.995 2.35 0 1.57-.996 2.349-2.995 2.349h-50.644c-1.183 0-1.94-.114-2.281-.33-.347-.216-.689-.575-1.03-1.07l-2.133-3.077c-.387-.825-.37-1.465.05-1.905.415-.438.944-.461 1.573-.069a25.757 25.757 0 0 0 2.852 1.314c.791.293 2.133.438 4.044.438h17.005m-8.068-36.572h23.895v-5.418c0-1.524-.403-2.57-1.211-3.156a108.636 108.636 0 0 1-2.38-1.764c-.834-.478-1.17-.99-.982-1.536.168-.54.54-.83 1.132-.873l10.637 1.46c.671.102 1.064.335 1.16.705.091.358.148.62.148.759V8.485c0 2.196-.671 3.604-2.014 4.21-1.348.614-2.855.921-4.505.921h-27.712c-1.664 0-3.197-.296-4.582-.876-1.39-.591-2.079-2.01-2.079-4.255V-10.28c0-1.524-.415-2.57-1.211-3.15-.814-.587-1.63-1.167-2.458-1.759-.83-.489-1.155-1.004-.958-1.541.196-.535.557-.83 1.112-.882l10.611 1.465c.73.1 1.197.634 1.396 1.618v8.205m23.896 4.332h-23.896v8.566c0 1.081.166 1.843.524 2.275.333.444 1.044.66 2.116.66h18.688c.979 0 1.652-.167 2.028-.514.358-.342.54-1.124.54-2.341zM404.681 9.538h-9.607c-1.024 0-1.737-.103-2.127-.319a3.99 3.99 0 0 1-1.095-1l-2.062-2.703c-.33-.631-.347-1.205-.033-1.692.319-.486.797-.537 1.43-.14.976.53 1.875.877 2.677 1.025.808.142 2.033.216 3.703.216h17.22c4.992 0 8.493-.075 10.526-.216 2.02-.148 3.896-.467 5.594-.956.987-.247 1.556-.057 1.704.546.14.617-.176 1.177-.967 1.726-1.41.981-3.373 1.8-5.859 2.489-2.497.688-5.921 1.024-10.261 1.024h-2.201v6.24c0 1.513-.336 2.69-.993 3.552-.651.856-1.647 1.28-2.96 1.28h-3.385c-.575 0-.938-.134-1.086-.401-.146-.27-.222-.717-.222-1.36V9.538m5.056-30.85c4.005 0 7.412 1.064 10.225 3.225 2.807 2.145 4.212 4.958 4.212 8.422 0 3.421-1.405 6.222-4.212 8.393-2.813 2.181-6.22 3.262-10.225 3.262-3.956 0-7.343-1.07-10.156-3.214-2.807-2.162-4.218-4.96-4.218-8.441 0-3.57 1.411-6.4 4.218-8.498 2.813-2.1 6.2-3.149 10.156-3.149m-9.157 43.765 11.433.878c.828.336 1.252.9 1.252 1.676v8.358c.033 1.61.284 2.765.722 3.442.447.69 1.522 1.026 3.225 1.026h24.041c1.664 0 2.5.672 2.5 1.983 0 1.316-.836 1.973-2.5 1.973h-30.121c-1.166 0-2.56-.438-4.141-1.314-1.599-.876-2.386-2.684-2.386-5.423v-6.527c0-1.178-.573-2.022-1.721-2.563-1.152-.537-1.965-.955-2.452-1.248-.79-.381-1.069-.876-.85-1.462.219-.58.555-.856.998-.8m2.847-32.117c0 2.11.666 3.83 1.988 5.17 1.309 1.337 2.759 2.014 4.323 2.014 1.616 0 3.083-.654 4.431-1.98 1.343-1.325 2.014-3.054 2.014-5.204 0-2.145-.671-3.894-2.014-5.24-1.348-1.344-2.815-2.018-4.43-2.018-1.565 0-3.015.674-4.324 2.019-1.322 1.345-1.988 3.094-1.988 5.239m31.083 23.68v-29.983c0-1.516-.49-2.562-1.462-3.148-.967-.586-1.831-1.104-2.565-1.545-.83-.494-1.183-1.072-1.03-1.757.142-.688.615-.978 1.394-.876l10.557 1.462c.683.1 1.075.332 1.178.7.085.37.142.62.142.767v40.688c0 1.51-.325 2.824-.996 3.919-.648 1.098-1.647 1.646-2.969 1.646h-2.932c-.589 0-.948-.139-1.09-.406-.153-.26-.227-.717-.227-1.354v-5.572h-11.583c-.288 0-.532-.03-.726-.116-.197-.069-.415-.28-.666-.623l-1.905-2.551c-.29-.398-.467-.79-.518-1.18-.04-.387.103-.737.455-1.022.472-.497 1.115-.455 1.894.103.791.569 1.88.847 3.308.847z" style="fill:#231f20;fill-opacity:1;fill-rule:nonzero;stroke:none;stroke-width:2.91232" transform="translate(309.727 73.182)"/></svg>