<svg xmlns="http://www.w3.org/2000/svg" width="961.76959mm" height="300mm" viewBox="0 0 961.76959 300"><path d="M0 0a19.346 19.346 0 0 0-10.722 3.224c.34-.955.526-1.979.526-3.049 0-5.013-4.063-9.078-9.076-9.078A9.078 9.078 0 0 0-28.349.175a9.075 9.075 0 0 0 12.125 8.549l7.674 7.675a19.366 19.366 0 0 1-10.722 3.225c-10.743 0-19.45-8.708-19.45-19.449 0-10.742 8.707-19.451 19.45-19.451C-8.588-19.276.08-10.659.173.002L0 0" style="fill:#ff6640;fill-opacity:1;fill-rule:nonzero;stroke:none" transform="matrix(3.6283 0 0 -3.6283 140.495 141.123)"/><path d="M0 0a19.37 19.37 0 0 0 10.723-3.225 9.064 9.064 0 0 0-.527 3.049c0 5.012 4.064 9.074 9.077 9.074 5.012 0 9.076-4.062 9.076-9.074a9.077 9.077 0 0 0-12.123-8.551L8.551-16.4a19.335 19.335 0 0 1 10.721-3.224c10.744 0 19.451 8.707 19.451 19.448 0 10.742-8.707 19.447-19.451 19.447C8.59 19.271-.078 10.657-.17-.004-.115-.004-.058 0 0 0" style="fill:#91c3e1;fill-opacity:1;fill-rule:nonzero;stroke:none" transform="matrix(3.6283 0 0 -3.6283 70.569 69.92)"/><path d="M0 0h-.959c-.245 0-.264.039-.357.207l-3.399 6.836-1.73-2.232V.244C-6.445.018-6.48 0-6.689 0h-.827c-.207 0-.244.018-.244.244v12.512c0 .224.037.244.244.244h.827c.209 0 .244-.02.244-.244v-5.88l4.34 5.919c.13.168.113.205.357.205h1.07c.17 0 .244-.096.17-.227l-3.325-4.546L.168.224C.242.095.168 0 0 0" style="fill:#565a5c;fill-opacity:1;fill-rule:nonzero;stroke:none" transform="matrix(3.6283 0 0 -3.6283 284.575 285.535)"/><path d="M0 0c-2.518 0-3.551.939-3.551 2.968V7.25c0 2.033 1.033 2.97 3.551 2.97 2.519 0 3.551-.937 3.551-2.97V2.968C3.551.939 2.519 0 0 0m2.236 7.25c0 1.225-.414 1.674-2.236 1.674-1.822 0-2.235-.449-2.235-1.674V2.968c0-1.22.413-1.672 2.235-1.672 1.822 0 2.236.452 2.236 1.672z" style="fill:#565a5c;fill-opacity:1;fill-rule:nonzero;stroke:none" transform="matrix(3.6283 0 0 -3.6283 305.7 286.286)"/><path d="M0 0h-.827c-.207 0-.244.021-.244.246v1.089c0 .994-.394 1.465-1.389 1.465-1.091 0-2.218-.865-2.218-2.745v-5.728c0-.226-.037-.244-.244-.244h-.827c-.206 0-.242.018-.242.244v6.781c0 .957-.377 1.655-.677 2.181-.075.131 0 .17.054.207l.885.469c.076.057.131.072.187-.019.282-.47.452-.865.656-1.39.471.994 1.335 1.558 2.426 1.558 1.501 0 2.705-.825 2.705-2.779V.246C.245.021.207 0 0 0" style="fill:#565a5c;fill-opacity:1;fill-rule:nonzero;stroke:none" transform="matrix(3.6283 0 0 -3.6283 350.958 264.067)"/><path d="M0 0h-5.507v-1.711c0-1.143.302-1.651 1.972-1.651h1.055c.581 0 1.107.147 1.557.508.058.035.095.035.132-.022l.658-.939c.037-.055.055-.076-.019-.133-.639-.469-1.428-.731-2.328-.731h-1.055c-2.215 0-3.306.94-3.306 2.968v4.282c0 2.033 1.034 2.97 3.552 2.97S.262 4.604.262 2.571V.226C.262 0 .223 0 0 0m-1.054 2.571c0 1.225-.414 1.674-2.235 1.674-1.822 0-2.236-.449-2.236-1.674V1.315h4.471z" style="fill:#565a5c;fill-opacity:1;fill-rule:nonzero;stroke:none" transform="matrix(3.6283 0 0 -3.6283 383.34 269.31)"/><path d="M0 0h-1.033c-.168 0-.226.039-.319.189-.207.334-.336.657-.525 1.165C-2.386.283-3.119-.207-4.32-.207c-2.611 0-3.532 1.09-3.532 2.968-.019 1.917.883 3.026 3.532 3.026h2.254v1.256c0 1.148-.395 1.656-1.953 1.656-.583 0-1.504-.133-2.294-.717-.112-.074-.129-.091-.206.024l-.582.822c-.075.113-.112.152.038.265.864.581 1.936.92 3.044.92 1.896 0 3.267-.734 3.267-2.97V2.798c0-.976.414-1.878.848-2.609C.189.039.17 0 0 0m-2.084 4.472h-2.254c-1.522 0-2.201-.396-2.201-1.711 0-1.257.679-1.652 2.219-1.652.938 0 2.236.863 2.236 2.739z" style="fill:#565a5c;fill-opacity:1;fill-rule:nonzero;stroke:none" transform="matrix(3.6283 0 0 -3.6283 420.536 285.535)"/><path d="M0 0c-2.291 0-3.756 1.296-3.756 3.531v6.313c0 2.179 1.465 3.476 3.756 3.476 2.273 0 3.738-1.297 3.738-3.439 0-.131-.037-.227-.169-.227l-.94-.054c-.129 0-.187.037-.205.187C2.311 11.665.828 12.004 0 12.004c-.884 0-2.441-.339-2.441-2.421V3.738C-2.441 1.65-.884 1.316 0 1.316c.828 0 2.293.299 2.405 2.141.019.188.056.245.206.245l.958-.057c.132 0 .169-.093.169-.245C3.684 1.242 2.236 0 0 0" style="fill:#565a5c;fill-opacity:1;fill-rule:nonzero;stroke:none" transform="matrix(3.6283 0 0 -3.6283 459.853 286.286)"/><path d="M0 0c-2.517 0-3.55.939-3.55 2.968V7.25c0 2.033 1.033 2.97 3.55 2.97s3.55-.937 3.55-2.97V2.968C3.55.939 2.517 0 0 0m2.235 7.25c0 1.225-.413 1.674-2.235 1.674-1.823 0-2.237-.449-2.237-1.674V2.968c0-1.22.414-1.672 2.237-1.672 1.822 0 2.235.452 2.235 1.672z" style="fill:#565a5c;fill-opacity:1;fill-rule:nonzero;stroke:none" transform="matrix(3.6283 0 0 -3.6283 495.161 286.286)"/><path d="M0 0h-.808c-.207 0-.244.018-.244.244v6.069c0 1.841-.77 2.386-2.272 2.386-.996 0-2.237-.865-2.237-2.743V.244c0-.226-.037-.244-.245-.244h-.826c-.206 0-.244.018-.244.244v6.858c0 .957-.356 1.652-.659 2.177-.054.134.02.168.076.209l.885.466c.074.059.131.077.187-.015.282-.472.507-.978.657-1.58.619 1.221 1.183 1.654 2.406 1.654 2.159 0 3.569-1.015 3.569-3.7V.244C.245.018.207 0 0 0" style="fill:#565a5c;fill-opacity:1;fill-rule:nonzero;stroke:none" transform="matrix(3.6283 0 0 -3.6283 543.417 285.535)"/><path d="M0 0c-1.617 0-3.232.846-3.683 2.611-.037.114 0 .17.131.207l.808.243c.133.057.207.095.264-.077.32-1.068 1.409-1.651 2.48-1.651 1.315 0 2.197.339 2.197 1.728 0 1.241-1.014 1.448-1.654 1.541-.619.093-1.97.302-2.498.546-1.127.526-1.39 1.354-1.371 2.385C-3.307 9.205-2.143 10.22 0 10.22c1.354 0 2.461-.583 3.213-1.635.074-.092.074-.132-.021-.207l-.731-.638c-.131-.114-.188-.114-.282.019C1.766 8.378 1.032 8.887 0 8.887c-1.222 0-2.011-.302-2.011-1.408 0-1.334.94-1.316 3.064-1.596 1.559-.209 2.441-1.317 2.441-2.841C3.494 1.184 2.291 0 0 0" style="fill:#565a5c;fill-opacity:1;fill-rule:nonzero;stroke:none" transform="matrix(3.6283 0 0 -3.6283 566.583 286.286)"/><path d="M0 0h-1.033c-.168 0-.226.039-.321.189-.224.334-.357.657-.524 1.165C-2.387.283-3.1-.207-4.32-.207c-2.159 0-3.569 1.014-3.569 3.702v6.161c0 .226.035.244.243.244h.807c.209 0 .245-.018.245-.244V3.495c0-1.843.77-2.386 2.274-2.386.994 0 2.233.863 2.233 2.739v5.808c0 .226.039.244.247.244h.826c.205 0 .244-.018.244-.244V2.798c0-.976.413-1.878.866-2.609C.189.039.17 0 0 0" style="fill:#565a5c;fill-opacity:1;fill-rule:nonzero;stroke:none" transform="matrix(3.6283 0 0 -3.6283 615.997 285.535)"/><path d="M0 0h-.826c-.207 0-.247.018-.247.244v6.799c0 1.184-.543 1.637-1.482 1.637-.978 0-2.125-.752-2.125-2.724V.244C-4.68.018-4.717 0-4.922 0h-.826c-.207 0-.248.018-.248.244v6.799c0 1.184-.562 1.637-1.502 1.637-.786 0-2.121-.846-2.121-2.724V.244c0-.226-.038-.244-.245-.244h-.824c-.209 0-.247.018-.247.244v6.764c0 1.051-.356 1.746-.657 2.271-.057.134.019.168.075.209l.882.466c.076.059.133.077.19-.015.281-.472.486-1.017.656-1.617.621 1.352 1.299 1.691 2.291 1.691 1.185 0 2.088-.452 2.632-1.672.415 1.165 1.483 1.672 2.123 1.672 1.972 0 2.987-1.072 2.987-2.97V.244C.244.018.207 0 0 0" style="fill:#565a5c;fill-opacity:1;fill-rule:nonzero;stroke:none" transform="matrix(3.6283 0 0 -3.6283 665.475 285.535)"/><path d="M0 0h-5.506v-1.711c0-1.143.3-1.651 1.972-1.651h1.053c.585 0 1.107.147 1.559.508.055.035.094.035.133-.022l.656-.939c.037-.055.056-.076-.019-.133-.637-.469-1.426-.731-2.329-.731h-1.053c-2.216 0-3.306.94-3.306 2.968v4.282c0 2.033 1.033 2.97 3.552 2.97 2.516 0 3.549-.937 3.549-2.97V.226C.261 0 .223 0 0 0m-1.053 2.571c0 1.225-.414 1.674-2.235 1.674-1.824 0-2.236-.449-2.236-1.674V1.315h4.471z" style="fill:#565a5c;fill-opacity:1;fill-rule:nonzero;stroke:none" transform="matrix(3.6283 0 0 -3.6283 701.184 269.31)"/><path d="M0 0h-.823c-.208 0-.247.021-.247.246v1.089c0 .994-.395 1.465-1.389 1.465-1.088 0-2.217-.865-2.217-2.745v-5.728c0-.226-.037-.244-.244-.244h-.826c-.205 0-.246.018-.246.244v6.781c0 .957-.374 1.655-.676 2.181-.074.131 0 .17.057.207l.883.469c.075.057.134.072.187-.019.285-.47.451-.865.66-1.39.47.994 1.334 1.558 2.422 1.558 1.502 0 2.705-.825 2.705-2.779V.246C.246.021.209 0 0 0" style="fill:#565a5c;fill-opacity:1;fill-rule:nonzero;stroke:none" transform="matrix(3.6283 0 0 -3.6283 733.817 264.067)"/><path d="M0 0h-1.017c-.168 0-.223 0-.281.189l-1.278 4.283h-3.963L-7.8.189C-7.854 0-7.912 0-8.082 0h-1.015c-.091 0-.11 0-.073.131l3.701 12.74c.037.133.057.133.169.133h1.539c.114 0 .132 0 .171-.133L.076.131C.112 0 .094 0 0 0m-4.041 9.902c-.263.939-.396 1.484-.47 2.162-.112-.678-.241-1.223-.508-2.162l-1.163-4.115h3.286z" style="fill:#565a5c;fill-opacity:1;fill-rule:nonzero;stroke:none" transform="matrix(3.6283 0 0 -3.6283 785.173 285.55)"/><path d="M0 0h-5.506v-1.709c0-1.145.301-1.653 1.973-1.653h1.055c.581 0 1.107.149 1.558.508.055.037.092.037.131-.02l.658-.941c.037-.055.055-.074-.019-.133-.639-.467-1.43-.73-2.328-.73h-1.055c-2.217 0-3.305.941-3.305 2.969v4.282c0 2.031 1.03 2.97 3.549 2.97S.264 4.604.264 2.573V.226C.264 0 .227 0 0 0m-1.054 2.573c0 1.224-.411 1.674-2.235 1.674-1.821 0-2.236-.45-2.236-1.674V1.315h4.471z" style="fill:#565a5c;fill-opacity:1;fill-rule:nonzero;stroke:none" transform="matrix(3.6283 0 0 -3.6283 854.572 269.325)"/><path d="M0 0h-.807c-.207 0-.246.02-.246.244v6.07c0 1.84-.769 2.385-2.271 2.385-.997 0-2.235-.864-2.235-2.741V.244C-5.559.02-5.598 0-5.805 0h-.827c-.206 0-.244.02-.244.244v6.86c0 .957-.356 1.654-.657 2.179-.058.132.019.168.074.205l.884.47c.075.057.132.073.186-.017.284-.47.508-.978.66-1.58.62 1.223 1.185 1.654 2.405 1.654 2.16 0 3.569-1.015 3.569-3.701V.244C.245.02.208 0 0 0" style="fill:#565a5c;fill-opacity:1;fill-rule:nonzero;stroke:none" transform="matrix(3.6283 0 0 -3.6283 891.237 285.55)"/><path d="M0 0c-2.519 0-3.553.94-3.553 2.969v4.282c0 2.031 1.034 2.97 3.553 2.97 2.516 0 3.551-.939 3.551-2.97 0-.15-.037-.243-.17-.243l-.939-.058c-.13 0-.205.037-.205.188v.113c0 1.224-.415 1.674-2.237 1.674s-2.238-.45-2.238-1.674V2.969c0-1.222.416-1.674 2.238-1.674s2.237.452 2.219 1.674c0 .243.053.302.203.302l.959-.059c.133 0 .17-.094.17-.243C3.551.94 2.516 0 0 0" style="fill:#565a5c;fill-opacity:1;fill-rule:nonzero;stroke:none" transform="matrix(3.6283 0 0 -3.6283 915.027 286.297)"/><path d="M0 0c-.224-.811-.715-2.933-1.069-3.738C-1.747-5.316-3.308-5.58-4.51-5.58a5.476 5.476 0 0 0-3.043.922c-.151.112-.112.147-.038.26l.583.826c.076.113.096.095.208.02.788-.583 1.71-.713 2.29-.713 1.034 0 1.711.093 2.219 1.033.187.469.356 1.108.884 2.986h-.959c-.205 0-.205 0-.264.189L-5.071 8.08c-.076.225-.039.225.187.225h.94c.168 0 .187 0 .242-.207L-1.332.13.81 8.098c.054.207.074.207.244.207h.938c.228 0 .247 0 .189-.225z" style="fill:#565a5c;fill-opacity:1;fill-rule:nonzero;stroke:none" transform="matrix(3.6283 0 0 -3.6283 952.036 279.753)"/><path d="m0 0-.883.47c-.076.056-.132.073-.189-.017a6.69 6.69 0 0 1-.657-1.468C-2.236.057-3.139.543-4.133.543c-2.162 0-3.57-1.013-3.57-3.697v-2.859c0-2.667 1.408-3.663 3.57-3.681.676 0 1.577.149 2.219.862v-.926c0-1.932-.768-2.397-2.33-2.397-.58 0-1.504.13-2.291.713-.111.075-.133.092-.207-.021l-.582-.826c-.075-.112-.112-.148.037-.26a5.469 5.469 0 0 1 3.043-.922c2.275 0 3.644.995 3.644 3.713v7.297c0 1.033.376 1.731.674 2.256C.131-.073.057-.037 0 0m-1.935-6.107c0-1.294-.563-2.272-2.198-2.272-1.506 0-2.273.545-2.273 2.366v2.859c0 1.84.826 2.404 2.273 2.404.938 0 2.198-.883 2.198-2.765z" style="fill:#565a5c;fill-opacity:1;fill-rule:nonzero;stroke:none" transform="matrix(3.6283 0 0 -3.6283 819.94 251.123)"/><path d="M0 0v-2.605h-6.547c-.774 0-1.149-.328-1.149-1.001 0-.677.436-1.114 1.111-1.114H9.033c.752 0 1.151.397 1.151 1.149 0 .478-.136.966-1.151.966H2.561V0c0 .598-.552 1.002-1.373 1.002C.443 1.002 0 .627 0 0" style="fill:#565a5c;fill-opacity:1;fill-rule:nonzero;stroke:none" transform="matrix(3.6283 0 0 -3.6283 270.026 88.867)"/><path d="M0 0c-.414 0-.965-.1-.965-.965 0-.389.181-.852 1.039-.852h1.34v-5.801c0-1.913 1.086-2.306 2.715-2.306h15.727c.605 0 1.226.137 1.226 1.153 0 .646-.414.963-1.264.963H4.052v6.88c0 .592-.312.928-.855.928Z" style="fill:#565a5c;fill-opacity:1;fill-rule:nonzero;stroke:none" transform="matrix(3.6283 0 0 -3.6283 261.38 166.453)"/><path d="M0 0c0-3.382 2.793-5.931 6.494-5.931 3.813 0 6.684 2.533 6.684 5.892 0 3.438-2.762 5.933-6.572 5.933C2.777 5.894 0 3.415 0 0m2.524 0c0 2.235 1.612 3.737 4.009 3.737 2.387 0 4.119-1.588 4.119-3.774 0-2.189-1.762-3.776-4.191-3.776-2.244 0-3.937 1.64-3.937 3.813" style="fill:#565a5c;fill-opacity:1;fill-rule:nonzero;stroke:none" transform="matrix(3.6283 0 0 -3.6283 250.63 135.276)"/><path d="M0 0c-.467 0-1.002-.111-1.002-.965 0-.656.537-.892 1.039-.892h2.01v-21.197c0-.764.461-1.186 1.3-1.186.873 0 1.336.422 1.336 1.222v8.782h4.391c.709 0 1.188.445 1.188 1.111 0 .674-.447 1.078-1.188 1.078H4.683V-.816c0 .486-.297.816-.742.816Z" style="fill:#565a5c;fill-opacity:1;fill-rule:nonzero;stroke:none" transform="matrix(3.6283 0 0 -3.6283 314.133 84.285)"/><path d="M0 0c-.755 0-1.076-.299-1.076-1.002 0-.734.353-1.076 1.112-1.076h11.976v-5.074H3.531c-.754 0-1.15-.372-1.15-1.078 0-.59.478-1.039 1.111-1.039h17.444v-8.217c0-.803.473-1.264 1.298-1.264.837 0 1.336.471 1.336 1.264v8.513c0 1.091-.296 1.821-1.745 1.821h-7.178v5.074h12.05c.992 0 1.077.551 1.077 1.113 0 .658-.367.965-1.153.965z" style="fill:#565a5c;fill-opacity:1;fill-rule:nonzero;stroke:none" transform="matrix(3.6283 0 0 -3.6283 367.31 136.853)"/><path d="M0 0c-.521 0-.742-.286-.742-.964 0-.601.254-.89.778-.89H1.34v-6.214h-12.494c-.746 0-1.078-.32-1.078-1.041 0-.748.365-1.113 1.113-1.113H15.54c.995 0 1.077.595 1.077 1.152 0 .674-.376 1.002-1.15 1.002H3.977v7.255A.816.816 0 0 1 3.159 0Z" style="fill:#565a5c;fill-opacity:1;fill-rule:nonzero;stroke:none" transform="matrix(3.6283 0 0 -3.6283 532.695 144.191)"/><path d="M0 0h-3.567c-.572 0-1.154-.114-1.154-.965 0-.884.621-1 1.226-1h1.489l-.037-1.117c-.543-5.278-6.787-9.049-10.836-9.935-.28-.054-.483-.205-.59-.43a.936.936 0 0 1-.084-.404c0-.252.08-.504.178-.684.38-.608.806-.758 1.57-.555C-7.314-13.877-2.34-9.942-.629-6.279c1.817-3.678 7.305-7.542 11.168-8.737.99-.303 1.367-.183 1.76.557.148.354.15.705.005.998a1.065 1.065 0 0 1-.683.556C6.564-11.565 1.255-7.707.892-2.931v1.892C.892-.44.552-.043.006 0H.003Z" style="fill:#565a5c;fill-opacity:1;fill-rule:nonzero;stroke:none" transform="matrix(3.6283 0 0 -3.6283 543.346 91.031)"/><path d="M0 0c-.754 0-1.15-.372-1.15-1.076 0-.592.478-1.04 1.111-1.04h17.443v-7.472c0-.804.474-1.265 1.299-1.265.837 0 1.336.474 1.336 1.265v7.768c0 1.091-.296 1.82-1.745 1.82z" style="fill:#565a5c;fill-opacity:1;fill-rule:nonzero;stroke:none" transform="matrix(3.6283 0 0 -3.6283 380.122 91.574)"/><path d="M0 0c-.48 0-.78-.356-.78-.93 0-.5.35-.853.852-.853h1.529v-15.589c0-1.646.848-2.414 2.676-2.414h9.555c1.723 0 2.527.885 2.527 2.784V-.975c0 .676-.291.965-.965.965h-3.199c-.518 0-.853-.364-.853-.928 0-.502.382-.853.929-.853h1.415v-6.51h-9.45v7.224C4.236-.362 3.912 0 3.271 0Zm13.686-17.672H4.237v7.256h9.449z" style="fill:#565a5c;fill-opacity:1;fill-rule:nonzero;stroke:none" transform="matrix(3.6283 0 0 -3.6283 612.574 96.127)"/><path d="M0 0c-.667 0-1.003-.314-1.003-.928 0-.826.794-.89 1.038-.89h2.047v-28.15c0-.959.691-1.302 1.338-1.302.615 0 1.336.353 1.336 1.339v29.15c0 .445-.318.781-.742.781Z" style="fill:#565a5c;fill-opacity:1;fill-rule:nonzero;stroke:none" transform="matrix(3.6283 0 0 -3.6283 689.612 84.285)"/><path d="M0 0c-.467 0-1.002-.111-1.002-.965 0-.656.535-.89 1.039-.89h2.011v-20.774h-7.095c-.734 0-1.078-.307-1.078-.964 0-.665.363-1.002 1.078-1.002h8.431c.499 0 1.337.159 1.337 1.228V-.816c0 .48-.323.816-.783.816Z" style="fill:#565a5c;fill-opacity:1;fill-rule:nonzero;stroke:none" transform="matrix(3.6283 0 0 -3.6283 940.326 84.285)"/><path d="M0 0v-1.508c-3.33-.707-5.243-2.675-5.243-5.409 0-3.779 3.411-5.502 6.582-5.502 3.168 0 6.578 1.723 6.578 5.502 0 2.762-1.926 4.729-5.281 5.411V0c0 .542-.54.89-1.374.89C.164.89 0 .333 0 0m-2.745-6.919c0 2.344 2.05 3.393 4.084 3.393 1.964 0 4.081-1.062 4.081-3.393 0-2.377-2.117-3.462-4.081-3.462-1.968 0-4.084 1.085-4.084 3.462" style="fill:#565a5c;fill-opacity:1;fill-rule:nonzero;stroke:none" transform="matrix(3.6283 0 0 -3.6283 896.077 89.405)"/><path d="M0 0c-.414 0-.963-.101-.963-.968 0-.386.18-.85 1.038-.85h1.341v-4.057c0-1.913 1.084-2.306 2.713-2.306h16.648c.606 0 1.225.137 1.225 1.153 0 .646-.414.964-1.264.964H4.051v5.133c0 .592-.312.931-.855.931Z" style="fill:#565a5c;fill-opacity:1;fill-rule:nonzero;stroke:none" transform="matrix(3.6283 0 0 -3.6283 881.94 172.778)"/><path d="M0 0h-18.818c-.752 0-1.075-.3-1.075-1.001 0-.735.354-1.076 1.112-1.076h8.093v-3.077c0-.804.473-1.264 1.297-1.264.838 0 1.338.475 1.338 1.264v3.077H.074c.994 0 1.076.55 1.076 1.113C1.15-.306.785 0 0 0" style="fill:#565a5c;fill-opacity:1;fill-rule:nonzero;stroke:none" transform="matrix(3.6283 0 0 -3.6283 934.897 143.245)"/><path d="M0 0c-.257 0-1.039 0-1.039-.889 0-.779.372-1.188 1.077-1.188h5.948v-2.271c0-6.369-3.838-11.849-7.403-14.248-.36-.242-.601-.599-.655-.979a1.033 1.033 0 0 1 .233-.839c.359-.518 1.071-.586 1.767-.161 2.766 2.04 6.14 6.192 7.358 10.255 1.265-3.721 3.829-7.223 6.907-9.397.873-.608 1.366-.617 1.877-.031.186.186.301.519.301.849 0 .05-.003.098-.007.147a1.143 1.143 0 0 1-.527.863c-4.605 2.893-7.142 7.756-7.142 13.69v2.122h5.91c.946 0 1.077.536 1.077 1.112 0 .597-.18.965-1.077.965zm16.07-19.748h-.001l.004.005c-.002 0-.002-.005-.002-.005" style="fill:#565a5c;fill-opacity:1;fill-rule:nonzero;stroke:none" transform="matrix(3.6283 0 0 -3.6283 742.654 96.155)"/><path d="M0 0c-.431 0-1-.096-1-.928 0-.656.536-.89 1.038-.89h2.049v-28.137c0-.958.67-1.299 1.298-1.299.615 0 1.334.35 1.334 1.336v15.166h4.687c.697 0 1.15.438 1.15 1.113 0 .641-.438 1.037-1.15 1.037H4.719V-.777A.752.752 0 0 1 3.94 0Z" style="fill:#565a5c;fill-opacity:1;fill-rule:nonzero;stroke:none" transform="matrix(3.6283 0 0 -3.6283 810.214 84.285)"/></svg>