<svg xmlns="http://www.w3.org/2000/svg" xml:space="preserve" width="1398.6439" height="200" viewBox="0 0 1398.6439 200"><path d="M0 0h-8.91v3.406h-3.377v-6.782H0Z" style="fill:#231f20;fill-opacity:1;fill-rule:nonzero;stroke:none" transform="matrix(4.70367 0 0 -4.70367 529.243 17.774)"/><path d="M0 0h-3.377v-16.331H0v6.047h4.486v3.376H0Z" style="fill:#231f20;fill-opacity:1;fill-rule:nonzero;stroke:none" transform="matrix(4.70367 0 0 -4.70367 552.149 17.774)"/><path d="M0 0a2.047 2.047 0 0 0 2.045-2.045A2.048 2.048 0 0 0 0-4.091a2.048 2.048 0 0 0-2.045 2.046C-2.045-.917-1.128 0 0 0m0-7.467a5.428 5.428 0 0 1 5.422 5.422A5.428 5.428 0 0 1 0 3.376a5.428 5.428 0 0 1-5.422-5.421A5.428 5.428 0 0 1 0-7.467" style="fill:#231f20;fill-opacity:1;fill-rule:nonzero;stroke:none" transform="matrix(4.70367 0 0 -4.70367 496.952 55.505)"/><path d="M0 0h-3.377v-7.218h17.543v3.376H0Z" style="fill:#231f20;fill-opacity:1;fill-rule:nonzero;stroke:none" transform="matrix(4.70367 0 0 -4.70367 491.694 96.593)"/><path d="M0 0h-3.377v-7.604h-7.714v-3.376h20.72v3.376H0Z" style="fill:#231f20;fill-opacity:1;fill-rule:nonzero;stroke:none" transform="matrix(4.70367 0 0 -4.70367 734.744 72.72)"/><path d="M0 0h3.376v14.415h-18.147v-3.376H0Z" style="fill:#231f20;fill-opacity:1;fill-rule:nonzero;stroke:none" transform="matrix(4.70367 0 0 -4.70367 758.104 89.627)"/><path d="M0 0h7.386v-1.854H0V-5.23h15.942v-5.251h3.376v8.627h-8.555V0h8.555v3.376H0Z" style="fill:#231f20;fill-opacity:1;fill-rule:nonzero;stroke:none" transform="matrix(4.70367 0 0 -4.70367 578.988 78.068)"/><path d="M0 0h15.942v-4.191h3.376v7.567H0Z" style="fill:#231f20;fill-opacity:1;fill-rule:nonzero;stroke:none" transform="matrix(4.70367 0 0 -4.70367 578.988 37.703)"/><path d="M0 0h-3.377v-7.604H-6.47V0h-3.377v-7.604h-4.22v-3.376H7.05v3.376H0Z" style="fill:#231f20;fill-opacity:1;fill-rule:nonzero;stroke:none" transform="matrix(4.70367 0 0 -4.70367 1153.954 72.718)"/><path d="M0 0h3.377v14.416h-17.431V11.04H0Z" style="fill:#231f20;fill-opacity:1;fill-rule:nonzero;stroke:none" transform="matrix(4.70367 0 0 -4.70367 1165.18 89.627)"/><path d="M0 0h7.386v3.376H-7.385v9.507h-3.377V0h7.386v-5.542h-8.672v-3.376h20.72v3.376H0Z" style="fill:#231f20;fill-opacity:1;fill-rule:nonzero;stroke:none" transform="matrix(4.70367 0 0 -4.70367 938.85 82.42)"/><path d="M410.716 195.774h4.014v-2.345h-4.014zm-8.354 0h4.976v-2.345h-4.168v-3.377h15.728v-5.251h3.377v8.628h-4.169v2.345h4.977v3.375h-20.721z" style="fill:#231f20;fill-opacity:1;fill-rule:nonzero;stroke:none" transform="matrix(4.70367 0 0 -4.70367 -700.679 1007.479)"/><path d="M0 0a2.675 2.675 0 0 0 2.673-2.674A2.676 2.676 0 0 0 0-5.348a2.677 2.677 0 0 0-2.674 2.674A2.676 2.676 0 0 0 0 0m0-8.724a6.057 6.057 0 0 1 6.05 6.05A6.057 6.057 0 0 1 0 3.377a6.058 6.058 0 0 1-6.051-6.051A6.058 6.058 0 0 1 0-8.724" style="fill:#231f20;fill-opacity:1;fill-rule:nonzero;stroke:none" transform="matrix(4.70367 0 0 -4.70367 1240.632 25.645)"/><path d="M0 0a2.676 2.676 0 0 0-2.673 2.673A2.677 2.677 0 0 0 0 5.348c1.475 0 2.674-1.2 2.674-2.675A2.676 2.676 0 0 0 0 0m0 8.724a6.057 6.057 0 0 1-6.05-6.051A6.057 6.057 0 0 1 0-3.377a6.058 6.058 0 0 1 6.051 6.05A6.058 6.058 0 0 1 0 8.724" style="fill:#231f20;fill-opacity:1;fill-rule:nonzero;stroke:none" transform="matrix(4.70367 0 0 -4.70367 832.805 131.209)"/><path d="M0 0h7.864v-1.76H0v-3.376h19.105v3.376h-7.864V0h7.864v3.376H3.377v1.941h15.728v3.376H0Z" style="fill:#231f20;fill-opacity:1;fill-rule:nonzero;stroke:none" transform="matrix(4.70367 0 0 -4.70367 991.896 62.71)"/><path d="M0 0a2.676 2.676 0 0 0-2.674 2.673A2.677 2.677 0 0 0 0 5.348c1.474 0 2.673-1.2 2.673-2.675A2.676 2.676 0 0 0 0 0m0 8.724a6.058 6.058 0 0 1-6.051-6.051A6.058 6.058 0 0 1 0-3.377a6.057 6.057 0 0 1 6.05 6.05A6.057 6.057 0 0 1 0 8.724" style="fill:#231f20;fill-opacity:1;fill-rule:nonzero;stroke:none" transform="matrix(4.70367 0 0 -4.70367 1036.828 131.209)"/><path d="M0 0h3.377v4.89h6.138v3.376H-6.016V4.89H0Z" style="fill:#231f20;fill-opacity:1;fill-rule:nonzero;stroke:none" transform="matrix(4.70367 0 0 -4.70367 1326.972 106.368)"/><path d="M0 0h4.678v-1.584h3.376v21.095H4.678V3.376H0Z" style="fill:#231f20;fill-opacity:1;fill-rule:nonzero;stroke:none" transform="matrix(4.70367 0 0 -4.70367 1357.117 102.762)"/><path d="M0 0v5.251h-3.376v-8.627h21.253V0Z" style="fill:#231f20;fill-opacity:1;fill-rule:nonzero;stroke:none" transform="matrix(4.70367 0 0 -4.70367 1314.556 122.355)"/><path d="M0 0a2.461 2.461 0 0 0 2.457-2.458A2.46 2.46 0 0 0 0-4.915a2.46 2.46 0 0 0-2.457 2.457A2.461 2.461 0 0 0 0 0m0-8.291a5.84 5.84 0 0 1 5.834 5.833A5.841 5.841 0 0 1 0 3.376a5.84 5.84 0 0 1-5.833-5.834A5.84 5.84 0 0 1 0-8.291" style="fill:#231f20;fill-opacity:1;fill-rule:nonzero;stroke:none" transform="matrix(4.70367 0 0 -4.70367 1334.912 25.64)"/><path d="M0 0h1.087v-2.481C1.848-1.76 2.741-.939 3.725 0h1.347L2.578-2.344l2.637-3.108H3.85L1.792-2.97l-.705-.611v-1.871H0Z" style="fill:#231f20;fill-opacity:1;fill-rule:nonzero;stroke:none" transform="matrix(4.70367 0 0 -4.70367 475.81 165.891)"/><path d="M0 0c0-.659.366-1.25 1.053-1.25.71 0 1.04.57 1.04 1.234 0 .661-.337 1.266-1.051 1.266C.33 1.25 0 .669 0 0m3.161.002c0-1.182-.761-2.092-2.143-2.092-1.36 0-2.075.992-2.075 2.09 0 1.103.745 2.089 2.119 2.089 1.414 0 2.099-1.083 2.099-2.087" style="fill:#231f20;fill-opacity:1;fill-rule:nonzero;stroke:none" transform="matrix(4.70367 0 0 -4.70367 505.534 182.216)"/><path d="M0 0c0 .359 0 .719-.007 1.078h1.012c.017-.133.032-.565.032-.824.22.548.707.942 1.472.926V.175C1.654.188 1.037-.23 1.037-1.373v-1.512H0Z" style="fill:#231f20;fill-opacity:1;fill-rule:nonzero;stroke:none" transform="matrix(4.70367 0 0 -4.70367 524.315 177.965)"/><path d="M0 0c-.026.355-.208.877-.959.877-.671 0-.946-.406-.99-.877Zm-1.964-.692c.034-.567.413-1 1.039-1 .493 0 .74.179.898.467H1.01C.791-1.892.235-2.519-.945-2.519c-1.479 0-2.053 1.065-2.053 2.083 0 1.141.727 2.097 2.041 2.097 1.453 0 2.015-1.075 2.015-2.086 0-.09 0-.156-.005-.267z" style="fill:#231f20;fill-opacity:1;fill-rule:nonzero;stroke:none" transform="matrix(4.70367 0 0 -4.70367 552.28 180.2)"/><path d="M0 0c-.096.005-.353.005-.808.005-.686 0-.977-.178-.977-.559 0-.301.223-.549.715-.549.761 0 1.07.41 1.07 1.006zm1.014-.719c0-.474.023-.983.032-1.07H.065c-.029.11-.039.372-.044.49-.201-.365-.632-.598-1.367-.598-1.04 0-1.447.667-1.447 1.287 0 1.032.867 1.319 1.965 1.319H0v.152c0 .356-.146.662-.776.662-.579 0-.711-.245-.768-.515h-1.037c.036.5.366 1.274 1.791 1.274 1.55 0 1.804-.777 1.804-1.437z" style="fill:#231f20;fill-opacity:1;fill-rule:nonzero;stroke:none" transform="matrix(4.70367 0 0 -4.70367 573.143 183.124)"/><path d="M0 0h-2.958v-1.45h3.28l-.13-.927h-4.236v5.452H.158v-.928h-3.116V.928H0Z" style="fill:#231f20;fill-opacity:1;fill-rule:nonzero;stroke:none" transform="matrix(4.70367 0 0 -4.70367 612.54 180.356)"/><path d="M0 0c0 .343 0 .68-.007 1.023h.994c.019-.157.026-.345.03-.508.193.303.552.616 1.167.616.65 0 .987-.309 1.14-.684.198.309.548.684 1.275.684.773 0 1.388-.482 1.388-1.66V-2.94H4.965v2.382c0 .382-.122.847-.672.847-.48 0-.781-.329-.781-1.046V-2.94H2.485v2.396c0 .417-.14.833-.674.833-.553 0-.784-.435-.784-1.066V-2.94H0Z" style="fill:#231f20;fill-opacity:1;fill-rule:nonzero;stroke:none" transform="matrix(4.70367 0 0 -4.70367 617.795 177.708)"/><path d="M0 0c0 .622-.335 1.207-1.023 1.207-.749 0-1.05-.524-1.05-1.236 0-.727.351-1.205 1.035-1.205C-.356-1.234 0-.703 0 0m-2.048-1.551v-2.14h-1.037V.985c0 .324 0 .654-.007.978h1.017a5.28 5.28 0 0 0 .027-.565c.215.353.615.673 1.354.673.986 0 1.761-.86 1.761-2.015 0-1.352-.91-2.164-1.903-2.164-.67 0-1.025.285-1.212.557" style="fill:#231f20;fill-opacity:1;fill-rule:nonzero;stroke:none" transform="matrix(4.70367 0 0 -4.70367 665.5 182.13)"/><path d="M292.344 179.234h1.037v-5.765h-1.037z" style="fill:#231f20;fill-opacity:1;fill-rule:nonzero;stroke:none" transform="matrix(4.70367 0 0 -4.70367 -700.679 1007.479)"/><path d="M0 0c0-.659.366-1.25 1.053-1.25.711 0 1.04.57 1.04 1.234 0 .661-.336 1.266-1.051 1.266C.33 1.25 0 .669 0 0m3.161.002c0-1.182-.762-2.092-2.143-2.092-1.36 0-2.075.992-2.075 2.09 0 1.103.745 2.089 2.119 2.089 1.414 0 2.099-1.083 2.099-2.087" style="fill:#231f20;fill-opacity:1;fill-rule:nonzero;stroke:none" transform="matrix(4.70367 0 0 -4.70367 688.167 182.216)"/><path d="M0 0c.695-1.79 1.022-2.796 1.108-3.097h.018c.111.395.433 1.472 1.007 3.097h1.061L1.87-3.513c-.655-1.746-.867-2.249-2.044-2.249-.158 0-.419.015-.554.044v.898c.166-.018.278-.023.39-.023.511 0 .653.187.896.719L-1.137 0Z" style="fill:#231f20;fill-opacity:1;fill-rule:nonzero;stroke:none" transform="matrix(4.70367 0 0 -4.70367 710.05 172.897)"/><path d="M0 0c0 .343 0 .68-.007 1.023h.994a5.29 5.29 0 0 0 .03-.508c.193.303.552.616 1.167.616.65 0 .987-.309 1.141-.684.197.309.547.684 1.274.684.773 0 1.388-.482 1.388-1.66V-2.94H4.965v2.382c0 .382-.122.847-.672.847-.48 0-.781-.329-.781-1.046V-2.94H2.485v2.396c0 .417-.14.833-.674.833-.553 0-.784-.435-.784-1.066V-2.94H0Z" style="fill:#231f20;fill-opacity:1;fill-rule:nonzero;stroke:none" transform="matrix(4.70367 0 0 -4.70367 727.92 177.708)"/><path d="M0 0c-.026.355-.208.877-.959.877-.671 0-.946-.406-.99-.877Zm-1.964-.692c.034-.567.413-1 1.039-1 .493 0 .741.179.898.467H1.01C.791-1.892.236-2.519-.945-2.519c-1.479 0-2.053 1.065-2.053 2.083 0 1.141.727 2.097 2.041 2.097 1.452 0 2.016-1.075 2.016-2.086 0-.09 0-.156-.006-.267z" style="fill:#231f20;fill-opacity:1;fill-rule:nonzero;stroke:none" transform="matrix(4.70367 0 0 -4.70367 774.082 180.2)"/><path d="M0 0c0 .335 0 .712-.007 1h1.012a7.96 7.96 0 0 0 .032-.582c.17.308.528.69 1.284.69.912 0 1.469-.595 1.469-1.637v-2.434H2.743v2.255c0 .516-.19.952-.776.952-.627 0-.925-.476-.925-1.255v-1.952H0Z" style="fill:#231f20;fill-opacity:1;fill-rule:nonzero;stroke:none" transform="matrix(4.70367 0 0 -4.70367 782.844 177.6)"/><path d="M0 0h.698v1.202H1.74V0h.905v-.809H1.74v-1.826c0-.375.08-.545.459-.545.105 0 .232.003.337.028v-.761a2.398 2.398 0 0 0-.701-.084c-.879 0-1.137.406-1.137 1.182v2.006H0Z" style="fill:#231f20;fill-opacity:1;fill-rule:nonzero;stroke:none" transform="matrix(4.70367 0 0 -4.70367 803.721 172.897)"/><path d="M0 0c-.096.005-.353.005-.808.005-.687 0-.977-.178-.977-.559 0-.301.223-.549.715-.549.761 0 1.07.41 1.07 1.006zm1.014-.719c0-.474.023-.983.032-1.07H.064c-.028.11-.038.372-.043.49-.201-.365-.632-.598-1.367-.598-1.04 0-1.447.667-1.447 1.287 0 1.032.867 1.319 1.965 1.319H0v.152c0 .356-.146.662-.776.662-.579 0-.711-.245-.768-.515h-1.037c.036.5.366 1.274 1.791 1.274 1.549 0 1.804-.777 1.804-1.437z" style="fill:#231f20;fill-opacity:1;fill-rule:nonzero;stroke:none" transform="matrix(4.70367 0 0 -4.70367 842.237 183.124)"/><path d="M0 0c0 .335 0 .712-.007 1h1.012a7.96 7.96 0 0 0 .032-.582c.17.308.528.69 1.284.69.912 0 1.469-.595 1.469-1.637v-2.434H2.743v2.255c0 .516-.19.952-.776.952-.627 0-.925-.476-.925-1.255v-1.952H0Z" style="fill:#231f20;fill-opacity:1;fill-rule:nonzero;stroke:none" transform="matrix(4.70367 0 0 -4.70367 851.769 177.6)"/><path d="M0 0c0-.658.367-1.212 1.043-1.212.705 0 1.036.483 1.036 1.227 0 .74-.266 1.223-1.025 1.223C.343 1.238 0 .637 0 0m3.093 3.794V-.845c0-.373 0-.754.006-1.126h-1.02a6.526 6.526 0 0 0-.029.503c-.201-.314-.484-.612-1.293-.612-1.058 0-1.824.83-1.824 2.056 0 1.327.983 2.124 1.929 2.124.78 0 1.08-.313 1.188-.473v2.167z" style="fill:#231f20;fill-opacity:1;fill-rule:nonzero;stroke:none" transform="matrix(4.70367 0 0 -4.70367 878.238 182.265)"/><path d="M0 0h1.085v-4.522h2.968l-.147-.93H0Z" style="fill:#231f20;fill-opacity:1;fill-rule:nonzero;stroke:none" transform="matrix(4.70367 0 0 -4.70367 908.39 165.891)"/><path d="M0 0c-.096.005-.353.005-.809.005-.685 0-.976-.178-.976-.559 0-.301.223-.549.715-.549.761 0 1.07.41 1.07 1.006zm1.014-.719c0-.474.023-.983.032-1.07H.065c-.029.11-.039.372-.044.49-.201-.365-.632-.598-1.367-.598-1.04 0-1.447.667-1.447 1.287 0 1.032.867 1.319 1.965 1.319H0v.152c0 .356-.146.662-.776.662-.579 0-.711-.245-.768-.515h-1.037c.036.5.366 1.274 1.791 1.274 1.55 0 1.804-.777 1.804-1.437z" style="fill:#231f20;fill-opacity:1;fill-rule:nonzero;stroke:none" transform="matrix(4.70367 0 0 -4.70367 942.592 183.124)"/><path d="M0 0c0 .596-.305 1.196-1.028 1.196-.722 0-1.052-.504-1.052-1.22s.373-1.221 1.044-1.221C-.322-1.245 0-.676 0 0m-3.087 3.754h1.037V1.466c.188.259.551.594 1.294.594 1.03 0 1.823-.843 1.823-2.015 0-1.349-.828-2.164-1.891-2.164-.748 0-1.08.306-1.262.608a9.449 9.449 0 0 0-.018-.5h-.99c.007.551.007.892.007 1.335z" style="fill:#231f20;fill-opacity:1;fill-rule:nonzero;stroke:none" transform="matrix(4.70367 0 0 -4.70367 966.91 182.079)"/><path d="M0 0c0-.659.366-1.25 1.053-1.25.71 0 1.04.57 1.04 1.234 0 .661-.337 1.266-1.051 1.266C.33 1.25 0 .669 0 0m3.161.002c0-1.182-.762-2.092-2.143-2.092-1.36 0-2.075.992-2.075 2.09 0 1.103.745 2.089 2.119 2.089 1.414 0 2.099-1.083 2.099-2.087" style="fill:#231f20;fill-opacity:1;fill-rule:nonzero;stroke:none" transform="matrix(4.70367 0 0 -4.70367 979.696 182.216)"/><path d="M0 0c0 .359 0 .719-.007 1.078h1.011c.018-.133.034-.565.034-.824.219.548.706.942 1.471.926V.175C1.655.188 1.038-.23 1.038-1.373v-1.512H0Z" style="fill:#231f20;fill-opacity:1;fill-rule:nonzero;stroke:none" transform="matrix(4.70367 0 0 -4.70367 998.476 177.965)"/><path d="M0 0h-2.957v-1.45h3.28l-.13-.927h-4.236v5.452H.159v-.928h-3.116V.928H0Z" style="fill:#231f20;fill-opacity:1;fill-rule:nonzero;stroke:none" transform="matrix(4.70367 0 0 -4.70367 1043.05 180.356)"/><path d="M0 0c0-.658.367-1.212 1.043-1.212.705 0 1.037.483 1.037 1.227 0 .74-.267 1.223-1.026 1.223C.343 1.238 0 .637 0 0m3.092 3.794V-.845c0-.373 0-.754.007-1.126H2.08a6.032 6.032 0 0 0-.03.503c-.202-.314-.484-.612-1.293-.612-1.059 0-1.824.83-1.824 2.056 0 1.327.983 2.124 1.929 2.124.78 0 1.08-.313 1.188-.473v2.167z" style="fill:#231f20;fill-opacity:1;fill-rule:nonzero;stroke:none" transform="matrix(4.70367 0 0 -4.70367 1052.219 182.265)"/><path d="M0 0c0-.384-.005-.771.002-1.154h-1.01c-.015.108-.019.321-.024.529-.188-.356-.491-.638-1.291-.638-.789 0-1.405.476-1.405 1.639v2.433h1.037V.561c0-.55.195-.957.747-.957.65 0 .907.4.907 1.385v1.82H0Z" style="fill:#231f20;fill-opacity:1;fill-rule:nonzero;stroke:none" transform="matrix(4.70367 0 0 -4.70367 1089.3 186.107)"/><path d="M0 0c-.162-.739-.767-1.416-1.949-1.416-1.412 0-2.052.958-2.052 2.091 0 1.09.726 2.089 2.057 2.089 1.419 0 1.867-.97 1.923-1.436h-1.037c-.089.264-.307.603-.882.603-.672 0-1.005-.524-1.005-1.246 0-.699.316-1.263 1.001-1.263.486 0 .743.206.906.578z" style="fill:#231f20;fill-opacity:1;fill-rule:nonzero;stroke:none" transform="matrix(4.70367 0 0 -4.70367 1112.018 185.389)"/><path d="M0 0c-.096.005-.354.005-.809.005-.686 0-.976-.178-.976-.559 0-.301.223-.549.714-.549C-.309-1.103 0-.693 0-.097zm1.014-.719c0-.474.023-.983.032-1.07H.064c-.029.11-.038.372-.043.49-.202-.365-.632-.598-1.367-.598-1.04 0-1.447.667-1.447 1.287 0 1.032.867 1.319 1.965 1.319H0v.152c0 .356-.146.662-.776.662-.58 0-.711-.245-.768-.515h-1.037c.036.5.366 1.274 1.79 1.274 1.55 0 1.805-.777 1.805-1.437z" style="fill:#231f20;fill-opacity:1;fill-rule:nonzero;stroke:none" transform="matrix(4.70367 0 0 -4.70367 1127.815 183.124)"/><path d="M0 0h.698v1.202H1.74V0h.906v-.809H1.74v-1.826c0-.375.08-.545.459-.545.105 0 .232.003.337.028v-.761a2.398 2.398 0 0 0-.701-.084c-.878 0-1.137.406-1.137 1.182v2.006H0Z" style="fill:#231f20;fill-opacity:1;fill-rule:nonzero;stroke:none" transform="matrix(4.70367 0 0 -4.70367 1135.656 172.897)"/><path d="M393.793 177.432h1.037v-3.963h-1.037zm0 1.802h1.037v-.967h-1.037z" style="fill:#231f20;fill-opacity:1;fill-rule:nonzero;stroke:none" transform="matrix(4.70367 0 0 -4.70367 -700.679 1007.479)"/><path d="M0 0c0-.659.366-1.25 1.053-1.25.709 0 1.04.57 1.04 1.234 0 .661-.337 1.266-1.052 1.266C.33 1.25 0 .669 0 0m3.16.002c0-1.182-.761-2.092-2.143-2.092-1.36 0-2.074.992-2.074 2.09 0 1.103.745 2.089 2.119 2.089 1.414 0 2.098-1.083 2.098-2.087" style="fill:#231f20;fill-opacity:1;fill-rule:nonzero;stroke:none" transform="matrix(4.70367 0 0 -4.70367 1165.332 182.216)"/><path d="M0 0c0 .335 0 .712-.007 1h1.012a7.96 7.96 0 0 0 .032-.582c.17.308.528.69 1.284.69.912 0 1.469-.595 1.469-1.637v-2.434H2.743v2.255c0 .516-.189.952-.776.952-.627 0-.925-.476-.925-1.255v-1.952H0Z" style="fill:#231f20;fill-opacity:1;fill-rule:nonzero;stroke:none" transform="matrix(4.70367 0 0 -4.70367 1184.082 177.6)"/><path d="M0 0c-.096.005-.353.005-.808.005-.686 0-.977-.178-.977-.559 0-.301.223-.549.715-.549.761 0 1.07.41 1.07 1.006zm1.014-.719c0-.474.023-.983.032-1.07H.065c-.029.11-.039.372-.044.49-.201-.365-.632-.598-1.367-.598-1.04 0-1.447.667-1.447 1.287 0 1.032.867 1.319 1.965 1.319H0v.152c0 .356-.146.662-.776.662-.579 0-.711-.245-.768-.515h-1.037c.036.5.366 1.274 1.791 1.274 1.55 0 1.804-.777 1.804-1.437z" style="fill:#231f20;fill-opacity:1;fill-rule:nonzero;stroke:none" transform="matrix(4.70367 0 0 -4.70367 1219.008 183.124)"/><path d="M410.208 179.234h1.037v-5.765h-1.037zM415.647 173.469h-1.086v5.452h1.086z" style="fill:#231f20;fill-opacity:1;fill-rule:nonzero;stroke:none" transform="matrix(4.70367 0 0 -4.70367 -700.679 1007.479)"/><path d="M0 0c0 .335 0 .712-.007 1h1.012a7.96 7.96 0 0 0 .032-.582c.17.308.528.69 1.284.69.912 0 1.469-.595 1.469-1.637v-2.434H2.743v2.255c0 .516-.19.952-.776.952-.627 0-.925-.476-.925-1.255v-1.952H0Z" style="fill:#231f20;fill-opacity:1;fill-rule:nonzero;stroke:none" transform="matrix(4.70367 0 0 -4.70367 1260.143 177.6)"/><path d="M0 0c.107-.342.4-.555.962-.555.576 0 .752.197.752.437 0 .256-.172.401-.988.514-1.398.2-1.613.736-1.613 1.222 0 .572.419 1.241 1.692 1.241 1.319 0 1.754-.675 1.803-1.214H1.582c-.053.203-.194.471-.819.471-.528 0-.629-.224-.629-.391 0-.206.138-.33.889-.443C2.514 1.053 2.735.538 2.735-.024c0-.72-.518-1.296-1.841-1.296-1.05 0-1.804.466-1.925 1.32z" style="fill:#231f20;fill-opacity:1;fill-rule:nonzero;stroke:none" transform="matrix(4.70367 0 0 -4.70367 1286.387 185.836)"/><path d="M0 0h.698v1.202h1.041V0h.907v-.809h-.907v-1.826c0-.375.081-.545.46-.545.105 0 .232.003.337.028v-.761a2.398 2.398 0 0 0-.701-.084c-.879 0-1.137.406-1.137 1.182v2.006H0Z" style="fill:#231f20;fill-opacity:1;fill-rule:nonzero;stroke:none" transform="matrix(4.70367 0 0 -4.70367 1301.084 172.897)"/><path d="M428.963 177.432H430v-3.963h-1.037zm0 1.802H430v-.967h-1.037z" style="fill:#231f20;fill-opacity:1;fill-rule:nonzero;stroke:none" transform="matrix(4.70367 0 0 -4.70367 -700.679 1007.479)"/><path d="M0 0h.698v1.202H1.74V0h.906v-.809H1.74v-1.826c0-.375.08-.545.459-.545.105 0 .232.003.337.028v-.761a2.398 2.398 0 0 0-.701-.084c-.879 0-1.137.406-1.137 1.182v2.006H0Z" style="fill:#231f20;fill-opacity:1;fill-rule:nonzero;stroke:none" transform="matrix(4.70367 0 0 -4.70367 1324.944 172.897)"/><path d="M0 0c0-.384-.006-.771.002-1.154h-1.01c-.015.108-.019.321-.025.529-.187-.356-.49-.638-1.29-.638-.789 0-1.405.476-1.405 1.639v2.433h1.036V.561c0-.55.196-.957.748-.957.65 0 .907.4.907 1.385v1.82H0Z" style="fill:#231f20;fill-opacity:1;fill-rule:nonzero;stroke:none" transform="matrix(4.70367 0 0 -4.70367 1358.37 186.107)"/><path d="M0 0h.697v1.202h1.042V0h.906v-.809h-.906v-1.826c0-.375.081-.545.46-.545.105 0 .232.003.337.028v-.761a2.398 2.398 0 0 0-.701-.084c-.879 0-1.138.406-1.138 1.182v2.006H0Z" style="fill:#231f20;fill-opacity:1;fill-rule:nonzero;stroke:none" transform="matrix(4.70367 0 0 -4.70367 1361.42 172.897)"/><path d="M0 0c-.026.355-.208.877-.96.877-.67 0-.945-.406-.989-.877Zm-1.964-.692c.034-.567.413-1 1.039-1 .493 0 .74.179.898.467H1.01C.791-1.892.235-2.519-.945-2.519c-1.479 0-2.053 1.065-2.053 2.083 0 1.141.726 2.097 2.041 2.097 1.452 0 2.015-1.075 2.015-2.086 0-.09 0-.156-.005-.267z" style="fill:#231f20;fill-opacity:1;fill-rule:nonzero;stroke:none" transform="matrix(4.70367 0 0 -4.70367 1390.33 180.2)"/><path d="M0 0c-.011-.003-.021-.008-.032-.01a2.618 2.618 0 0 0-1.125.001l-.042.012c-.9.209-1.617.872-1.913 1.735a2.478 2.478 0 0 0-.063.202c-.017.067-.034.132-.046.201a2.495 2.495 0 0 0-.045.449l-.002.013a2.674 2.674 0 0 0 5.348 0l-.001-.014a2.599 2.599 0 0 0-.045-.449c-.013-.07-.031-.138-.048-.206a2.361 2.361 0 0 0-.062-.197A2.666 2.666 0 0 0 0 0m1.414-4.93h-4.015v1.83a5.989 5.989 0 0 1 4.015 0zm3.377 0v4.777a6.06 6.06 0 0 1 .666 2.756 6.058 6.058 0 0 1-6.051 6.05 6.057 6.057 0 0 1-6.05-6.05c0-.955.23-1.905.666-2.755V-4.93h-4.168v-3.377H8.96v3.377z" style="fill:#231f20;fill-opacity:1;fill-rule:nonzero;stroke:none" transform="matrix(4.70367 0 0 -4.70367 835.597 48.7)"/><path d="m0 0 10.555 20.928H2.597L-7.201 1.501a3.552 3.552 0 0 1 .082-3.353L3.907-21.29l.026-.045h8.17l-.026.045z" style="fill:#66cbb0;fill-opacity:1;fill-rule:nonzero;stroke:none" transform="matrix(4.70367 0 0 -4.70367 77.728 99.537)"/><path d="M0 0v42.218h-7.106V-.046H0Z" style="fill:#8864b9;fill-opacity:1;fill-rule:nonzero;stroke:none" transform="matrix(4.70367 0 0 -4.70367 33.424 199.676)"/><path d="M0 0h-11.714v35.181h-7.106V-7.083H0v.046z" style="fill:#d91920;fill-opacity:1;fill-rule:nonzero;stroke:none" transform="matrix(4.70367 0 0 -4.70367 338.272 166.576)"/><path d="M0 0v-.046h7.106v42.264H0Z" style="fill:#2350a4;fill-opacity:1;fill-rule:nonzero;stroke:none" transform="matrix(4.70367 0 0 -4.70367 359.946 199.676)"/><path d="M0 0h-8.234a.828.828 0 0 0-.826.826v8.198c0 .898-.34 1.762-.951 2.419l-2.207 2.374 2.337 3.275c.429.602.66 1.324.66 2.064v8.325c0 .456.371.827.826.827H0v7.106h-8.395a7.932 7.932 0 0 1-1.905-.233c-3.456-.856-6.027-3.982-6.027-7.7v-7.188l-3.36-4.708a3.553 3.553 0 0 1 .291-4.483l3.23-3.475V.826c0-4.025 3.015-7.357 6.903-7.863a7.908 7.908 0 0 1 1.029-.069H0v.069z" style="fill:#ec9013;fill-opacity:1;fill-rule:nonzero;stroke:none" transform="matrix(4.70367 0 0 -4.70367 225.067 166.576)"/></svg>