<svg xmlns="http://www.w3.org/2000/svg" xml:space="preserve" width="825.20032" height="400" viewBox="0 0 825.20032 400"><defs><clipPath id="a" clipPathUnits="userSpaceOnUse"><path d="M0 612h792V0H0Z"/></clipPath><clipPath id="b" clipPathUnits="userSpaceOnUse"><path d="M513.94 364.343c-1.203-9.75-4.551-18.99-9.675-26.719-5.034-7.647-12.044-14.236-20.272-19.06-7.96-4.679-16.988-7.793-26.842-9.26-5.877-.875-12.034-1.15-18.248-.812-.696.041-1.257-.432-1.305-1.104l-.596-8.298c-.03-.39.123-.789.417-1.091.293-.3.697-.475 1.102-.472 2.946.019 5.88.161 8.734.414a94.445 94.445 0 0 1 12.716 1.993c10.679 2.438 20.293 6.631 28.576 12.469 8.467 5.939 15.448 13.688 20.192 22.404 4.739 8.642 7.484 18.689 7.937 29.049.03.71-.527 1.377-1.264 1.505a1.422 1.422 0 0 1-.257.024c-.627 0-1.138-.425-1.215-1.042"/></clipPath><clipPath id="d" clipPathUnits="userSpaceOnUse"><path d="M0 612h792V0H0Z"/></clipPath><clipPath id="e" clipPathUnits="userSpaceOnUse"><path d="M467.193 369.424c-6.237-1.272-11.969-3.189-17.035-5.701-5.585-2.773-10.175-6.196-13.646-10.159-.413-.47 1.361-2.903 1.583-2.721 3.854 3.134 8.852 5.258 14.531 6.807 5.118 1.393 10.723 2.14 16.65 2.228 5.769.068 11.526-.491 16.958-1.653a63.02 63.02 0 0 0 4.717-1.207l3.655 13.394c-2.319.311-6.185.536-8.728.617-.782.023-1.566.034-2.351.034a83.057 83.057 0 0 1-16.334-1.639"/></clipPath><clipPath id="g" clipPathUnits="userSpaceOnUse"><path d="M0 612h792V0H0Z"/></clipPath><linearGradient id="c" x1="0" x2="1" y1="0" y2="0" gradientTransform="matrix(91.02438 8.12838 17.84962 -89.75975 431.36 327.215)" gradientUnits="userSpaceOnUse" spreadMethod="pad"><stop offset="0" style="stop-opacity:1;stop-color:#a6ce38"/><stop offset="1" style="stop-opacity:1;stop-color:#0cb14b"/></linearGradient><linearGradient id="f" x1="0" x2="1" y1="0" y2="0" gradientTransform="matrix(73.14243 3.94038 10.63037 -66.0916 435.432 359.64)" gradientUnits="userSpaceOnUse" spreadMethod="pad"><stop offset="0" style="stop-opacity:1;stop-color:#ffcb04"/><stop offset="1" style="stop-opacity:1;stop-color:#f6881f"/></linearGradient></defs><path d="m0 0-9.524-44.724h21.095L21.092 0Z" style="fill:#002653;fill-opacity:1;fill-rule:nonzero;stroke:none" transform="matrix(2.63459 0 0 -2.63459 133.948 35.802)"/><path d="M0 0h-24.172l-20.397-24.135 6.982.011 5.328-20.6h22.146l-7.865 23.85z" style="fill:#002653;fill-opacity:1;fill-rule:nonzero;stroke:none" transform="matrix(2.63459 0 0 -2.63459 292.4 35.802)"/><path d="M0 0h21.092L11.57-44.724H-9.522Z" style="fill:#002653;fill-opacity:1;fill-rule:nonzero;stroke:none" transform="matrix(2.63459 0 0 -2.63459 299.67 35.802)"/><g clip-path="url(#a)" transform="matrix(2.63459 0 0 -2.63459 -621.743 977.597)"><path d="M0 0h-13.328l-3.453-16.364h13.326zm20.845-.988c0-.985-.12-2.044-.356-3.174l-1.69-8.039c-1.082-4.988-3.837-8.49-8.255-10.511-1.833-.849-3.948-1.366-6.351-1.554h-22.671l-2.678-12.556H-42.25l9.523 44.723h43.766c6.537-.421 9.806-3.384 9.806-8.889" style="fill:#002653;fill-opacity:1;fill-rule:nonzero;stroke:none" transform="translate(409.606 349.572)"/></g><g clip-path="url(#b)" transform="matrix(2.63459 0 0 -2.63459 -621.743 977.597)"><path d="M513.94 364.343c-1.203-9.75-4.551-18.99-9.675-26.719-5.034-7.647-12.044-14.236-20.272-19.06-7.96-4.679-16.988-7.793-26.842-9.26-5.877-.875-12.034-1.15-18.248-.812-.696.041-1.257-.432-1.305-1.104l-.596-8.298c-.03-.39.123-.789.417-1.091.293-.3.697-.475 1.102-.472 2.946.019 5.88.161 8.734.414a94.445 94.445 0 0 1 12.716 1.993c10.679 2.438 20.293 6.631 28.576 12.469 8.467 5.939 15.448 13.688 20.192 22.404 4.739 8.642 7.484 18.689 7.937 29.049.03.71-.527 1.377-1.264 1.505a1.422 1.422 0 0 1-.257.024c-.627 0-1.138-.425-1.215-1.042" style="fill:url(#c);stroke:none"/></g><g clip-path="url(#d)" transform="matrix(2.63459 0 0 -2.63459 -621.743 977.597)"><path d="M0 0c-4.76 1.536-10.25 2.187-15.264 2.957-4.671.719-8.694.746-11.306 2.956-1.094.925-2.077 1.941-2.544 3.48-.182-.469-.856-1.959-1.002-2.452-1.464-4.933-.238-8.785 3.687-11.556 2.216-1.51 5.173-3.049 10.756-4.607 4.322-1.21 6.306-2.42 5.947-3.627-.48-1.611-2.178-2.413-5.107-2.413l-18.571-.06-4.032-15.328 18.322-.024c11.88 0 27.497 3.085 31.402 16.243.232.778.376 1.543.461 2.292.009 2.12-.731 4.137-2.12 5.988C8.232-2.956 3.805-1.226 0 0" style="fill:#002653;fill-opacity:1;fill-rule:nonzero;stroke:none" transform="translate(464.82 343.424)"/></g><g clip-path="url(#e)" transform="matrix(2.63459 0 0 -2.63459 -621.743 977.597)"><path d="M467.193 369.424c-6.237-1.272-11.969-3.189-17.035-5.701-5.585-2.773-10.175-6.196-13.646-10.159-.413-.47 1.361-2.903 1.583-2.721 3.854 3.134 8.852 5.258 14.531 6.807 5.118 1.393 10.723 2.14 16.65 2.228 5.769.068 11.526-.491 16.958-1.653a63.02 63.02 0 0 0 4.717-1.207l3.655 13.394c-2.319.311-6.185.536-8.728.617-.782.023-1.566.034-2.351.034a83.057 83.057 0 0 1-16.334-1.639" style="fill:url(#f);stroke:none"/></g><g clip-path="url(#g)" transform="matrix(2.63459 0 0 -2.63459 -621.743 977.597)"><path d="m0 0 5.97-7.955H3.52l-4.842 6.556-1.536-1.657v-4.899h-1.924v14.02h1.924V-.643l6.144 6.708h2.352z" style="fill:#002653;fill-opacity:1;fill-rule:nonzero;stroke:none" transform="translate(245.1 231.584)"/><path d="M0 0v.991c0 2.256-1.146 3.344-2.839 3.344-1.691 0-2.838-1.088-2.838-3.344V0c0-2.256 1.147-3.344 2.838-3.344C-1.146-3.344 0-2.256 0 0m1.906 1.147V-.156c0-3.072-1.828-4.84-4.745-4.84-2.915 0-4.744 1.768-4.744 4.84v1.303c0 3.091 1.829 4.84 4.744 4.84 2.917 0 4.745-1.769 4.745-4.84" style="fill:#002653;fill-opacity:1;fill-rule:nonzero;stroke:none" transform="translate(259.234 228.473)"/><path d="M0 0a3.314 3.314 0 0 1-1.302.255c-1.4 0-2.605-1.167-2.605-2.84v-6.204h-1.886V1.848h1.826V.155h.021c.621 1.188 1.574 1.887 3.13 1.887.486 0 .954-.078 1.38-.214z" style="fill:#002653;fill-opacity:1;fill-rule:nonzero;stroke:none" transform="translate(269.42 232.418)"/><path d="M0 0v-.272h5.325v.35c0 1.634-1.011 2.683-2.623 2.683C1.127 2.761 0 1.635 0 0m6.902-5.442c-.935-.642-2.179-1.166-4.104-1.166-2.624 0-4.666 1.457-4.666 4.899v1.205c0 3.227 1.945 4.879 4.57 4.879 2.722 0 4.452-1.729 4.452-4.762v-1.421H0v-.078c0-2.003 1.184-3.091 2.875-3.091 1.382 0 2.315.369 3.229.954z" style="fill:#002653;fill-opacity:1;fill-rule:nonzero;stroke:none" transform="translate(273 230.085)"/><path d="M0 0h-2.663c-1.478 0-2.063-.604-2.063-1.614v-.273c0-1.031.837-1.477 1.848-1.477.932 0 1.594.215 2.158.661.507.388.72.855.72 1.652zm-6.573-2.004v.525c0 1.808 1.149 3.074 3.871 3.074H0v.62c0 1.421-.642 2.102-2.198 2.102-1.244 0-2.06-.428-3.052-1.07l-.933 1.399c1.032.72 2.294 1.341 4.006 1.341 2.372 0 4.042-1.245 4.042-3.382v-7.449H.057v1.284H.039c-.195-.387-.584-.719-.993-.951-.563-.311-1.185-.485-2.119-.485-2.138 0-3.5 1.127-3.5 2.992" style="fill:#002653;fill-opacity:1;fill-rule:nonzero;stroke:none" transform="translate(288.631 228.473)"/><path d="M0 0h-1.886v6.611c0 1.791-.738 2.55-2.312 2.55-1.283 0-2.684-.897-2.684-2.567V0h-1.886v10.637h1.827V9.296h.02c.642.991 1.731 1.535 3.188 1.535C-1.671 10.831 0 9.607 0 7.04Z" style="fill:#002653;fill-opacity:1;fill-rule:nonzero;stroke:none" transform="translate(302.103 223.629)"/><path d="M311.845 223.629h-1.925v14.021h1.925z" style="fill:#002653;fill-opacity:1;fill-rule:nonzero;stroke:none"/><path d="M0 0h-1.886v6.611c0 1.791-.738 2.55-2.312 2.55-1.283 0-2.684-.897-2.684-2.567V0h-1.886v10.637h1.827V9.296h.021c.641.991 1.73 1.535 3.187 1.535C-1.67 10.831 0 9.607 0 7.04Z" style="fill:#002653;fill-opacity:1;fill-rule:nonzero;stroke:none" transform="translate(323.723 223.629)"/><path d="M0 0v.154c0 .896-.426 1.187-2.429 1.595-2.353.486-3.654 1.244-3.654 3.112v.234c0 1.475 1.204 2.876 3.966 2.876 1.437 0 2.72-.312 3.772-1.05L.818 5.503c-.701.524-1.73.853-2.8.853-1.574 0-2.216-.544-2.216-1.282v-.175c0-.836.642-1.148 2.294-1.459C.681 2.954 1.907 2.178 1.907.214v-.252c0-1.674-1.574-2.975-4.045-2.975-1.769 0-3.265.504-4.276 1.284l.873 1.475c.954-.642 2.042-1.127 3.325-1.127C-.816-1.381 0-.856 0 0" style="fill:#002653;fill-opacity:1;fill-rule:nonzero;stroke:none" transform="translate(332.121 226.49)"/><path d="M0 0h-1.749v1.614H0v2.683h1.886V1.614h2.8V0h-2.8v-6.045c0-1.304.564-1.517 1.361-1.517.468 0 .915.079 1.4.251l.291-1.516c-.426-.174-1.223-.348-1.982-.348C.933-9.175 0-8.185 0-6.045Z" style="fill:#002653;fill-opacity:1;fill-rule:nonzero;stroke:none" transform="translate(336.943 232.651)"/><path d="M345.788 223.629h-1.886v10.637h1.886zm.06 12.387h-2.003v2.061h2.003z" style="fill:#002653;fill-opacity:1;fill-rule:nonzero;stroke:none"/><path d="M0 0h-1.749v1.614H0v2.683h1.886V1.614h2.8V0h-2.8v-6.045c0-1.304.564-1.517 1.361-1.517.468 0 .915.079 1.4.251l.291-1.516c-.426-.174-1.223-.348-1.982-.348C.933-9.175 0-8.185 0-6.045Z" style="fill:#002653;fill-opacity:1;fill-rule:nonzero;stroke:none" transform="translate(349.543 232.651)"/><path d="M0 0h1.886v-6.609c0-1.789.699-2.548 2.276-2.548 1.283 0 2.642.893 2.642 2.565V0H8.69v-10.637H6.863v1.343h-.02c-.642-.991-1.692-1.535-3.149-1.535C1.634-10.829 0-9.604 0-7.038Z" style="fill:#002653;fill-opacity:1;fill-rule:nonzero;stroke:none" transform="translate(356.289 234.266)"/><path d="M0 0h-1.749v1.614H0v2.683h1.886V1.614h2.801V0H1.886v-6.045c0-1.304.563-1.517 1.361-1.517.467 0 .914.079 1.4.251l.291-1.516c-.426-.174-1.224-.348-1.982-.348C.932-9.175 0-8.185 0-6.045Z" style="fill:#002653;fill-opacity:1;fill-rule:nonzero;stroke:none" transform="translate(368.673 232.651)"/><path d="M0 0v-.272h5.326v.35c0 1.634-1.011 2.683-2.624 2.683C1.127 2.761 0 1.635 0 0m6.902-5.442c-.935-.642-2.179-1.166-4.104-1.166-2.624 0-4.666 1.457-4.666 4.899v1.205c0 3.227 1.946 4.879 4.57 4.879 2.722 0 4.452-1.729 4.452-4.762v-1.421H0v-.078c0-2.003 1.185-3.091 2.876-3.091 1.382 0 2.314.369 3.228.954z" style="fill:#002653;fill-opacity:1;fill-rule:nonzero;stroke:none" transform="translate(376.897 230.085)"/><path d="M0 0v.991c0 2.256-1.146 3.344-2.839 3.344-1.691 0-2.838-1.088-2.838-3.344V0c0-2.256 1.147-3.344 2.838-3.344C-1.146-3.344 0-2.256 0 0m1.907 1.147V-.156c0-3.072-1.829-4.84-4.746-4.84-2.915 0-4.744 1.768-4.744 4.84v1.303c0 3.091 1.829 4.84 4.744 4.84 2.917 0 4.746-1.769 4.746-4.84" style="fill:#002653;fill-opacity:1;fill-rule:nonzero;stroke:none" transform="translate(398.4 228.473)"/><path d="M0 0h-1.749v1.614H0v1.051c0 2.139 1.069 3.129 3.091 3.129.68 0 1.478-.115 1.907-.272l-.294-1.537a5.25 5.25 0 0 1-1.436.195c-.72 0-1.382-.212-1.382-1.592v-.974h2.8V0h-2.8v-9.022H0Z" style="fill:#002653;fill-opacity:1;fill-rule:nonzero;stroke:none" transform="translate(403.533 232.651)"/><path d="M0 0v-5.212h2.759c2.023 0 3.034.818 3.034 2.51v.348C5.793-.759 4.782 0 2.975 0Zm-1.925 1.672h5.016c3.17 0 4.645-1.712 4.645-4.005v-.408c0-2.276-1.592-4.142-4.645-4.142H0v-5.466h-1.925z" style="fill:#002653;fill-opacity:1;fill-rule:nonzero;stroke:none" transform="translate(417.163 235.977)"/><path d="M0 0a3.309 3.309 0 0 1-1.301.255c-1.4 0-2.605-1.167-2.605-2.84v-6.204h-1.887V1.848h1.826V.155h.022c.621 1.188 1.574 1.887 3.131 1.887.484 0 .953-.078 1.378-.214z" style="fill:#002653;fill-opacity:1;fill-rule:nonzero;stroke:none" transform="translate(432.947 232.418)"/><path d="M0 0v.991c0 2.256-1.146 3.344-2.84 3.344-1.691 0-2.837-1.088-2.837-3.344V0c0-2.256 1.146-3.344 2.837-3.344C-1.146-3.344 0-2.256 0 0m1.906 1.147V-.156c0-3.072-1.829-4.84-4.746-4.84-2.915 0-4.744 1.768-4.744 4.84v1.303c0 3.091 1.829 4.84 4.744 4.84 2.917 0 4.746-1.769 4.746-4.84" style="fill:#002653;fill-opacity:1;fill-rule:nonzero;stroke:none" transform="translate(442.243 228.473)"/><path d="M0 0c0 1.107-1.166 2.255-2.798 2.255-1.595 0-2.548-1.188-2.548-3.188v-1.303c0-2.022.971-3.188 2.548-3.188C-1.263-5.424 0-4.396 0-2.741zm.021-5.601C-.563-6.669-1.748-7.076-3.07-7.076c-2.684 0-4.141 1.652-4.141 4.527v1.887c0 2.878 1.73 4.569 4.219 4.569 1.612 0 2.546-.68 2.974-1.302v5.172h1.886V-6.924H.06v1.323z" style="fill:#002653;fill-opacity:1;fill-rule:nonzero;stroke:none" transform="translate(453.322 230.553)"/><path d="M0 0h1.887v-6.609c0-1.789.699-2.548 2.274-2.548 1.284 0 2.643.893 2.643 2.565V0H8.69v-10.637H6.863v1.343h-.019c-.642-.991-1.693-1.535-3.15-1.535C1.635-10.829 0-9.604 0-7.038Z" style="fill:#002653;fill-opacity:1;fill-rule:nonzero;stroke:none" transform="translate(458.068 234.266)"/><path d="m0 0-.894-1.418c-.993.719-1.751.915-2.78.915-1.4 0-2.683-.915-2.683-3.092v-1.342c0-2.294 1.323-3.188 2.72-3.188 1.401 0 2.237.407 2.995.971l.914-1.44c-.739-.621-1.984-1.222-3.927-1.222-2.936 0-4.609 1.807-4.609 4.859v1.342c0 3.053 1.808 4.782 4.59 4.782C-1.925 1.167-.876.663 0 0" style="fill:#002653;fill-opacity:1;fill-rule:nonzero;stroke:none" transform="translate(477.51 233.293)"/><path d="M0 0h-1.749v1.614H0v2.683h1.886V1.614h2.8V0h-2.8v-6.045c0-1.304.563-1.517 1.361-1.517.468 0 .914.079 1.4.251l.291-1.516c-.425-.174-1.223-.348-1.982-.348C.933-9.175 0-8.185 0-6.045Z" style="fill:#002653;fill-opacity:1;fill-rule:nonzero;stroke:none" transform="translate(480.348 232.651)"/><path d="M0 0v.309c0 1.226-.798 1.847-3.074 2.333-2.644.563-4.665 1.381-4.665 3.909v.347c0 1.908 1.574 3.754 4.802 3.754 1.709 0 3.092-.427 4.277-1.225L.425 7.931c-1.029.701-2.06.992-3.343.992-1.751 0-2.896-.894-2.896-2.003v-.312c0-1.283 1.145-1.749 3.226-2.215 3.462-.777 4.53-2.004 4.53-3.947V.095c0-2.566-2.119-3.888-4.995-3.888-1.985 0-3.715.719-4.881 1.651l.971 1.576c1.05-.796 2.761-1.476 3.967-1.476C-1.011-2.042 0-1.11 0 0" style="fill:#002653;fill-opacity:1;fill-rule:nonzero;stroke:none" transform="translate(499.655 227.21)"/><path d="M0 0h-2.663c-1.478 0-2.062-.604-2.062-1.614v-.273c0-1.031.836-1.477 1.847-1.477.934 0 1.595.215 2.159.661.506.388.719.855.719 1.652Zm-6.571-2.004v.525c0 1.808 1.147 3.074 3.87 3.074H0v.62c0 1.421-.642 2.102-2.197 2.102-1.244 0-2.061-.428-3.052-1.07l-.934 1.399c1.032.72 2.294 1.341 4.006 1.341 2.372 0 4.043-1.245 4.043-3.382v-7.449H.058v1.284H.04c-.195-.387-.585-.719-.993-.951-.564-.311-1.185-.485-2.119-.485-2.139 0-3.499 1.127-3.499 2.992" style="fill:#002653;fill-opacity:1;fill-rule:nonzero;stroke:none" transform="translate(510.115 228.473)"/><path d="M0 0h-1.749v1.614H0v1.051c0 2.139 1.07 3.129 3.092 3.129.679 0 1.477-.115 1.906-.272l-.294-1.537a5.25 5.25 0 0 1-1.436.195c-.72 0-1.382-.212-1.382-1.592v-.974h2.801V0H1.886v-9.022H0Z" style="fill:#002653;fill-opacity:1;fill-rule:nonzero;stroke:none" transform="translate(515.559 232.651)"/><path d="M0 0v-.272h5.325v.35c0 1.634-1.01 2.683-2.624 2.683C1.128 2.761 0 1.635 0 0m6.902-5.442c-.935-.642-2.179-1.166-4.104-1.166-2.624 0-4.665 1.457-4.665 4.899v1.205c0 3.227 1.944 4.879 4.568 4.879 2.723 0 4.453-1.729 4.453-4.762v-1.421H0v-.078c0-2.003 1.185-3.091 2.875-3.091 1.383 0 2.315.369 3.229.954z" style="fill:#002653;fill-opacity:1;fill-rule:nonzero;stroke:none" transform="translate(523.492 230.085)"/><path d="M0 0h-1.748v1.614H0v2.683h1.886V1.614h2.801V0H1.886v-6.045c0-1.304.564-1.517 1.362-1.517.467 0 .914.079 1.399.251l.291-1.516c-.425-.174-1.223-.348-1.982-.348C.933-9.175 0-8.185 0-6.045Z" style="fill:#002653;fill-opacity:1;fill-rule:nonzero;stroke:none" transform="translate(533.756 232.651)"/><path d="m0 0 2.801 8.496h1.982L-.737-6.533l-1.712.603 1.382 3.637-3.87 10.789h2.041L-.078 0Z" style="fill:#002653;fill-opacity:1;fill-rule:nonzero;stroke:none" transform="translate(544.428 225.77)"/><path d="M0 0h4.734v-4.269H0V-15.72h-4.891v26.161H0Zm-21.853-5.435v-.93c0-1.321 1.398-2.911 3.999-2.911s3.997 1.59 3.997 2.911v.93c0 1.32-1.396 2.914-3.997 2.914s-3.999-1.594-3.999-2.914m4.309-15.679H.854v-4.194h-23.328v10.053h4.93zM-26.47-6.638v1.476c0 3.492 3.182 6.482 8.616 6.482 5.433 0 8.616-2.99 8.616-6.482v-1.476c0-3.493-3.183-6.48-8.616-6.48-5.434 0-8.616 2.987-8.616 6.48m11.061 13.47h7.801V2.677h-20.648v4.155h7.957v3.918h4.89z" style="fill:#002653;fill-opacity:1;fill-rule:nonzero;stroke:none" transform="translate(264.248 271.515)"/><path d="M0 0h9.666v5.474H-4.308v4.114h22.59c.543 2.406.739 5.045.739 6.869v1.709H0v4.152h23.911v-5.589c0-1.747-.312-4.773-.739-7.141h5.59V5.474H14.556V0h9.742v-12.885h-4.89v8.773H0Z" style="fill:#002653;fill-opacity:1;fill-rule:nonzero;stroke:none" transform="translate(275.228 258.317)"/><path d="M337.71 245.858h-4.657v36.098h4.657zm-11.914 20.068h-4.424v4.268h4.424v11.024h4.657v-33.614h-4.657zM307.088 278.5h16.107v-4.191h-5.55v-4.579c0-2.639.622-3.999 2.211-5.979 1.437-1.824 3.417-3.921 5.086-5.55l-3.222-3.027c-1.474 1.554-3.067 3.222-4.231 4.62-.93 1.086-1.746 2.056-2.018 2.677h-.039c-.232-.621-1.087-1.668-2.056-2.833a77.103 77.103 0 0 0-4.659-5.123l-3.222 3.22c1.593 1.552 3.611 3.727 5.085 5.59 1.671 2.097 2.29 3.492 2.29 6.366v4.618h-5.782zM354.513 271.398h7.143v5.551h-7.143zm-3.493-21.619h14.128v4.618H351.02Zm19.6 31.012v-3.842h-4.152v-5.551h4.386v-3.842h-25.54v3.842h4.387v5.551h-4.153v3.842zm-24.451-22.474h9.471v2.911h-14.091v3.96h33.07v-3.96h-14.088v-2.911H370v-12.459h-23.831z" style="fill:#002653;fill-opacity:1;fill-rule:nonzero;stroke:none"/><path d="M0 0h4.734v-4.27H0v-11.799h-4.891V9.627H0Zm-17.544-21.891H.855v-4.193h-23.329v12.034h4.93zM-23.211-.388v-1.475c0-2.328 1.748-4.462 4.619-4.462 2.872 0 4.62 2.134 4.62 4.462v1.475c0 2.329-1.748 4.464-4.62 4.464-2.871 0-4.619-2.135-4.619-4.464m-4.618-1.824V-.04c0 4.387 3.57 8.347 9.237 8.347 5.668 0 9.238-3.96 9.238-8.347v-2.172c0-4.386-3.57-8.346-9.238-8.346-5.667 0-9.237 3.96-9.237 8.346" style="fill:#002653;fill-opacity:1;fill-rule:nonzero;stroke:none" transform="translate(405.508 272.33)"/><path d="M0 0h-5.784v4.193H0v9.161h4.89v-25.697H0Zm-13.158-18.164h18.63v-4.193h-23.56v12.111h4.93zm-10.209 29.265h18.631V6.909h-6.715V3.882c0-1.902.465-3.028 2.523-4.617 1.631-1.243 3.571-2.563 5.511-3.804l-2.638-3.495a112.727 112.727 0 0 0-4.775 3.3c-1.629 1.203-2.641 2.096-2.794 2.484h-.038c-.156-.465-1.242-1.516-3.027-2.911-1.672-1.32-3.378-2.639-5.32-3.998l-2.872 3.609c2.445 1.67 4.774 3.455 6.406 4.89 1.356 1.206 2.133 2.64 2.133 4.542v3.027h-7.025z" style="fill:#002653;fill-opacity:1;fill-rule:nonzero;stroke:none" transform="translate(437.254 268.603)"/><path d="M0 0h4.773v-4.269H0v-11.917h-4.854v26.783H0Zm-18.67-21.036H.971v-4.192h-24.57v10.984h4.929zm9.781 29.847V3.57c0-2.019-.272-5.629-.854-8.035l-4.736.583c.583 2.679.778 5.28.778 6.908v1.555H-26.82v4.23zm-20.029-16.03h6.211v7.025h4.891v-6.95c4.967.08 8.384.274 11.177.582l.351-4.152c-4.269-.542-10.83-.698-22.63-.698z" style="fill:#002653;fill-opacity:1;fill-rule:nonzero;stroke:none" transform="translate(476.45 271.36)"/><path d="M513.2 245.858h-4.93v36.098h4.93zm-23.016 12.731h3.764c3.533 0 7.531.232 11.14.698l.543-4.113c-3.649-.544-8.112-.738-12.847-.738h-7.452v14.672h11.644v5.9h-11.644v4.152h16.497v-14.051h-11.645z" style="fill:#002653;fill-opacity:1;fill-rule:nonzero;stroke:none"/><path d="M0 0h7.142v21.232h4.89V-6.636h-4.89v2.676H0Zm-10.907 13.975v-.545c0-1.474 1.823-2.639 4.464-2.639 2.64 0 4.464 1.165 4.464 2.639v.545c0 1.473-1.824 2.637-4.464 2.637-2.641 0-4.464-1.164-4.464-2.637M-7.064-10.4h19.677v-4.192h-24.606v9.741h4.929zm-8.461 23.559v1.086c0 3.766 3.958 6.366 9.082 6.366 5.124 0 9.082-2.6 9.082-6.366v-1.086c0-3.765-3.958-6.366-9.082-6.366-5.124 0-9.082 2.601-9.082 6.366m-2.33-7.879c11.876 0 17.739.194 22.824.66l.348-4.076c-2.445-.309-5.589-.505-9.858-.582v-4.735h-4.852v4.656c-2.523-.038-5.318-.038-8.462-.038z" style="fill:#002653;fill-opacity:1;fill-rule:nonzero;stroke:none" transform="translate(536.482 260.724)"/></g></svg>