<svg xmlns="http://www.w3.org/2000/svg" width="499.15323mm" height="200.00002mm" viewBox="0 0 499.15323 200.00002"><path d="M245.643 205.348c13.184 3.266 17.236 11.28 17.236 11.28l9.011-2.601c-7.287-7.741-17.569-10.735-22.92-11.824 2.055-2.298 3.688-4.898 4.535-7.832H240.32s.21 12.247-21.923 18.779l3.235 3.417s14.394-3.326 24.01-11.219m-31.116 18.99h25.884v6.2h-19.867v3.99h39.704v6.14h-39.704v8.527c0 5.443 4.143 5.594 4.143 5.594h45.238v-4.022H230.19v-6.078h39.734v-8.558c0-5.443-4.143-5.594-4.143-5.594h-15.724v-6.199h25.703v-5.02h-61.234zm95.525-8.436c10.402 0 18.838-4.99 18.838-11.128 0-6.109-8.436-11.068-18.838-11.068-10.403 0-18.84 4.96-18.84 11.068 0 6.138 8.407 11.128 18.84 11.128m0-18.446c5.684 0 10.311 3.266 10.311 7.318 0 4.082-4.626 7.378-10.311 7.378-5.716 0-10.342-3.296-10.342-7.378.03-4.052 4.626-7.348 10.342-7.318m-2.873 37.496h9.646v-9.344h19.565v-5.05H288.4v5.05h18.779zm1.119 3.901h-9.646v10.342c0 5.443 4.112 5.594 4.112 5.594h45.237v-4.022h-39.703zm29.271-44.39V208.1h-8.527v4.022h8.527v27.91h6.683s3.75-.175 3.75-5.866v-39.704zm-188.66 5.563h20.471c-.967 7.711-4.959 24.766-21.923 35.017l3.296 7.106s27.608-13.154 32.235-46.114h-34.08zm41.639 56.456h6.713s3.719-.153 3.719-5.836v-55.942h-10.432ZM55.803 194.22H45.37v43.635H12.26v-40.822H2.583v37.586c0 7.56 4.445 7.228 4.445 7.228h5.23v-.022H45.37v14.242h6.714s3.719-.176 3.719-5.866v-31.418h9.072v-3.992h-9.072zm54.914 34.684h21.379v-4.021H90.033v-29.211h-9.646v27.578c0 5.443 4.113 5.624 4.113 5.624h4.142v.022h12.398v16.51H75.216v5.05h61.204v-5.05h-25.703ZM-14.08 201.326c0-5.473-4.113-5.594-4.113-5.594h-47.595v4.022h42.062v17.538h-46.81v4.99h25.673v10.644h-20.925v4.022h42.062v18.869h9.646V238.52c0-5.473-4.113-5.594-4.113-5.594h-16.994v-10.644h25.854v-4.99h-4.747Zm-87.995-3.96h-14.152v-5.111h-10.16v5.11h-14.333v3.992h38.645zm-.303 20.26c0-8.074-8.437-14.667-18.87-14.667-10.401 0-18.808 6.593-18.808 14.666 0 8.104 8.407 14.666 18.809 14.666 10.432 0 18.869-6.562 18.869-14.666m-29.18 0c0-5.352 4.626-9.707 10.31-9.707 5.716 0 10.373 4.355 10.373 9.707 0 5.383-4.657 9.737-10.372 9.737-5.685 0-10.312-4.354-10.312-9.737m46.175-23.042h-10.432v38.434h6.713s3.719-.176 3.719-5.867v-15.996h9.042v-3.991h-9.042zm-36.74 39.704h-9.646v16.208c0 5.473 4.143 5.624 4.143 5.624h42.848v-3.991h-37.345zm0 0" style="fill:#000;fill-opacity:1;fill-rule:nonzero;stroke:none;stroke-width:7.74115" transform="translate(140.72 -56.482)"/><path d="M-112.234 160.685h-27.276l19.897-101.602h27.276zM135.966 59.083 116.07 160.685h27.276l15.694-80.193 35.046-.154c17.358 0 12.338 18.627 12.338 18.627l-12.096 61.718h27.306l13.214-67.523S242.044 59.08 206 59.08zM-37.907 59.083l-49.501 38.343s-7.772 5.2-8.044 15.059c-.272 9.827 9.586 20.713 9.586 20.713l21.258 27.487h38.615l-37.315-48.473s-5.201-5.715.242-10.885c5.443-5.202 53.674-42.244 53.674-42.244zM-16.65 160.685H3.309l44.844-78.288s3.357-5.685 7.772-5.443c4.415.272 6.23 2.873 6.985 8.044.786 5.17 10.644 75.687 10.644 75.687h30.844l-14-83.459s-2.601-20.744-25.13-20.744c-22.557 0-31.901 15.815-36.83 24.373-4.929 8.557-45.086 79.83-45.086 79.83M353.747 77.982l4.687-18.9h-51.86s-56.516-3.628-61.687 58.573c0 0-6.23 42.244 33.958 43.03h62.474l3.114-17.115h-50.287s-20.472 0-20.472-24.1 11.914-41.73 38.101-41.73c26.157 0 41.972.242 41.972.242" style="fill:#0a3087;fill-opacity:1;fill-rule:nonzero;stroke:none;stroke-width:7.74115" transform="translate(140.72 -56.482)"/></svg>