<svg xmlns="http://www.w3.org/2000/svg" xml:space="preserve" width="748.16235" height="143.81532" viewBox="0 0 748.16232 143.81532"><defs><linearGradient id="a" x1="0" x2="1" y1="0" y2="0" gradientTransform="matrix(0 -108.89397 -108.89397 0 196.02 297.86)" gradientUnits="userSpaceOnUse" spreadMethod="pad"><stop offset="0" style="stop-opacity:1;stop-color:#00b9e6"/><stop offset="0.86933613" style="stop-opacity:1;stop-color:#00609d"/><stop offset="0.981863" style="stop-opacity:1;stop-color:#00609d"/><stop offset="1" style="stop-opacity:1;stop-color:#00609d"/></linearGradient><linearGradient id="b" x1="0" x2="1" y1="0" y2="0" gradientTransform="scale(-45.48882 45.48882) rotate(35.613 -11.71 -4.031)" gradientUnits="userSpaceOnUse" spreadMethod="pad"><stop offset="0" style="stop-opacity:1;stop-color:#003d72"/><stop offset="0.0947254" style="stop-opacity:1;stop-color:#003d72"/><stop offset="0.41011629" style="stop-opacity:1;stop-color:#00609d"/><stop offset="0.41468" style="stop-opacity:1;stop-color:#00609d"/><stop offset="0.50802696" style="stop-opacity:1;stop-color:#00609d"/><stop offset="1" style="stop-opacity:1;stop-color:#00b9e6"/></linearGradient><linearGradient id="c" x1="0" x2="1" y1="0" y2="0" gradientTransform="matrix(0 108.89397 108.89397 0 149.479 247.302)" gradientUnits="userSpaceOnUse" spreadMethod="pad"><stop offset="0" style="stop-opacity:1;stop-color:#00b9e6"/><stop offset="0.86933613" style="stop-opacity:1;stop-color:#00609d"/><stop offset="0.981863" style="stop-opacity:1;stop-color:#00609d"/><stop offset="1" style="stop-opacity:1;stop-color:#00609d"/></linearGradient><linearGradient id="d" x1="0" x2="1" y1="0" y2="0" gradientTransform="scale(45.48882 -45.48882) rotate(35.613 10.744 1.8)" gradientUnits="userSpaceOnUse" spreadMethod="pad"><stop offset="0" style="stop-opacity:1;stop-color:#003d72"/><stop offset="0.0947254" style="stop-opacity:1;stop-color:#003d72"/><stop offset="0.41011629" style="stop-opacity:1;stop-color:#00609d"/><stop offset="0.41468" style="stop-opacity:1;stop-color:#00609d"/><stop offset="0.50802696" style="stop-opacity:1;stop-color:#00609d"/><stop offset="1" style="stop-opacity:1;stop-color:#00b9e6"/></linearGradient></defs><path d="M270.736 239.556h-3.518l-7.656-8.743h-.228v8.743h-2.784v-18.324h2.784v5.683l2.151 2.492 5.897-8.175h3.38l-7.429 10.074zM280.86 225.598c-.27-.734-.681-1.316-1.234-1.746-.554-.43-1.23-.645-2.031-.645-.81 0-1.493.215-2.05.645-.558.43-.974 1.012-1.246 1.746-.275.734-.416 1.552-.425 2.455.009.902.15 1.722.425 2.456.272.733.688 1.317 1.246 1.752.557.434 1.24.652 2.05.652.8 0 1.477-.218 2.03-.652.554-.435.965-1.019 1.235-1.752.27-.734.405-1.554.405-2.456 0-.903-.135-1.72-.405-2.455m.1 8.67c-.97.59-2.092.884-3.365.884-1.291 0-2.421-.295-3.392-.885-.971-.59-1.721-1.422-2.251-2.494-.532-1.07-.798-2.315-.798-3.733 0-1.408.266-2.646.798-3.714.53-1.067 1.28-1.896 2.25-2.486.972-.59 2.102-.887 3.393-.887 1.273 0 2.395.297 3.366.887.97.59 1.717 1.42 2.239 2.486.524 1.068.785 2.306.785 3.714 0 1.418-.261 2.663-.785 3.733-.522 1.072-1.268 1.903-2.24 2.494M290.755 234.533a3.323 3.323 0 0 1-1.316-1.76h-.153v2.203h-2.606v-13.744h2.696v8.378c0 .59.142 1.12.43 1.588.287.468.677.837 1.17 1.107.494.27 1.05.405 1.664.405.262 0 .524-.019.785-.057.261-.038.473-.078.632-.12v2.581c-.134.034-.522.06-1.162.077a3.797 3.797 0 0 1-2.14-.658M297.737 229.319c.042.582.174 1.139.44 1.658a3.62 3.62 0 0 0 1.297 1.429c.557.355 1.202.533 1.936.533.676 0 1.275-.157 1.798-.47a3.155 3.155 0 0 0 1.208-1.295 4.03 4.03 0 0 0 .424-1.855zm6.69 5.119c-.921.476-1.936.714-3.042.714-1.266 0-2.376-.296-3.333-.891-.96-.595-1.703-1.436-2.234-2.525-.532-1.088-.797-2.333-.797-3.733 0-1.408.265-2.645.797-3.708.53-1.063 1.29-1.885 2.276-2.467.989-.583 2.149-.874 3.48-.874.989 0 1.88.155 2.678.463.797.307 1.455.74 1.974 1.297.519.556.883 1.21 1.095 1.96h-2.746a2.615 2.615 0 0 0-.652-.758 3.271 3.271 0 0 0-1.006-.531 4.333 4.333 0 0 0-1.33-.216c-.767 0-1.443.17-2.024.512-.582.343-1.037.836-1.366 1.48-.306.6-.455 1.324-.476 2.146h9.764v.949c0 1.577-.278 2.883-.835 3.917-.557 1.033-1.297 1.788-2.222 2.265M317.849 224.649a3.094 3.094 0 0 0-1.227-1.132c-.532-.283-1.152-.424-1.86-.424-.515-.009-.964.063-1.348.214-.385.153-.69.379-.917.677-.23.301-.343.665-.343 1.096.009.658.263 1.164.759 1.518.5.354 1.203.565 2.115.633a39.95 39.95 0 0 0 1.594.101c.404.034.71.057.917.069.172.012.428.028.736.047l.004-1.255c0-.557-.144-1.071-.43-1.544m.247 10.105a8.036 8.036 0 0 1-2.538.398c-1.054 0-1.99-.166-2.81-.499-.817-.333-1.47-.797-1.953-1.392a3.81 3.81 0 0 1-.855-2.031h2.709c.133.531.443.956.93 1.272.484.316 1.114.474 1.89.474.609 0 1.123-.094 1.544-.285.423-.189.737-.468.943-.834.207-.367.31-.812.31-1.335l.004-1.107a98.875 98.875 0 0 1-.775-.021c-.482-.025-.975-.051-1.48-.082-.507-.029-.962-.06-1.367-.094-1.503-.101-2.733-.455-3.696-1.063-.961-.608-1.443-1.625-1.443-3.05 0-.87.203-1.618.608-2.246a3.857 3.857 0 0 1 1.658-1.43c.7-.325 1.494-.492 2.379-.501 1.046.009 1.91.225 2.595.646.683.422 1.177.937 1.48 1.544h.1v-1.886h2.62v9.124c0 1.241-.273 2.217-.822 2.93-.548.713-1.225 1.202-2.031 1.468M333.554 229.218h8.112v2.379h-8.112v5.567h8.719v2.392H330.77v-18.324h11.591v2.392h-8.807zM345.437 221.232h2.695v18.324h-2.695zM353.505 229.319c.042.582.174 1.139.442 1.658.307.599.74 1.075 1.297 1.429.557.355 1.203.533 1.937.533.673 0 1.273-.157 1.795-.47a3.146 3.146 0 0 0 1.21-1.295 4.017 4.017 0 0 0 .424-1.855zm6.694 5.119c-.926.476-1.94.714-3.044.714-1.265 0-2.377-.296-3.336-.891-.957-.595-1.701-1.436-2.232-2.525-.531-1.088-.798-2.333-.798-3.733 0-1.408.267-2.645.798-3.708.53-1.063 1.289-1.885 2.278-2.467.986-.583 2.146-.874 3.48-.874.987 0 1.878.155 2.676.463.797.307 1.455.74 1.973 1.297.52.556.885 1.21 1.096 1.96h-2.746a2.585 2.585 0 0 0-.652-.758 3.295 3.295 0 0 0-1.006-.531 4.328 4.328 0 0 0-1.33-.216c-.767 0-1.441.17-2.024.512-.582.343-1.037.836-1.366 1.48-.306.6-.455 1.324-.477 2.146h9.766v.949c0 1.577-.28 2.883-.836 3.917-.556 1.033-1.297 1.788-2.22 2.265M369.803 232.318c.561.388 1.213.582 1.954.582.541 0 1.02-.106 1.437-.316a2.81 2.81 0 0 0 1.02-.855c.26-.358.442-.756.544-1.195h2.632a4.973 4.973 0 0 1-.893 2.423c-.5.705-1.169 1.247-1.999 1.626-.832.38-1.765.57-2.804.57-1.266 0-2.38-.3-3.346-.899-.967-.599-1.715-1.436-2.247-2.512-.532-1.076-.796-2.31-.796-3.702 0-1.374.26-2.599.777-3.675.52-1.077 1.264-1.914 2.233-2.513.971-.598 2.113-.899 3.43-.899 1.046 0 1.981.2 2.803.596.822.397 1.477.945 1.962 1.645.484.7.778 1.501.88 2.404h-2.632a3.05 3.05 0 0 0-.583-1.266 2.842 2.842 0 0 0-1.039-.803 3.12 3.12 0 0 0-1.379-.272c-.759-.009-1.417.188-1.973.59-.557.4-.99.965-1.297 1.694-.308.73-.462 1.59-.462 2.576 0 .97.156 1.815.468 2.537.311.721.748 1.276 1.31 1.664M385.672 223.46a9.186 9.186 0 0 0-.475-.013c-.328 0-.612.051-.848.152-.237.102-.426.285-.569.55-.144.267-.215.64-.215 1.12v7.556h2.784v2.151h-2.784v3.29h-2.72v-3.29h-2.013v-2.15h2.013v-8.1c0-.802.182-1.478.55-2.025a3.41 3.41 0 0 1 1.467-1.234 4.891 4.891 0 0 1 2.02-.41c.615 0 1.172.037 1.67.112v2.33l-.367-.026c-.169 0-.34-.006-.513-.013M393.094 234.533a3.323 3.323 0 0 1-1.316-1.76h-.15v2.203h-2.609v-13.744h2.696v8.378c0 .59.144 1.12.43 1.588.286.468.677.837 1.171 1.107.493.27 1.048.405 1.664.405.261 0 .522-.019.784-.057a6.06 6.06 0 0 0 .633-.12v2.581c-.136.034-.524.06-1.165.077a3.795 3.795 0 0 1-2.138-.658M400.623 240.075a1.733 1.733 0 0 1-.847.216c-.313 0-.598-.072-.855-.216a1.675 1.675 0 0 1-.614-.582 1.476 1.476 0 0 1-.228-.797c0-.288.075-.55.228-.79a1.725 1.725 0 0 1 1.47-.805c.301 0 .584.074.846.222.261.147.47.341.625.582a1.458 1.458 0 0 1 0 1.588 1.699 1.699 0 0 1-.625.582M398.435 221.232h2.695v13.743h-2.695zM408.286 232.318c.561.388 1.213.582 1.954.582.541 0 1.02-.106 1.437-.316a2.81 2.81 0 0 0 1.02-.855c.26-.358.442-.756.544-1.195h2.632a4.982 4.982 0 0 1-.892 2.423 4.901 4.901 0 0 1-2 1.626c-.832.38-1.765.57-2.804.57-1.266 0-2.38-.3-3.346-.899-.967-.599-1.714-1.436-2.247-2.512-.532-1.076-.797-2.31-.797-3.702 0-1.374.26-2.599.78-3.675.517-1.077 1.262-1.914 2.231-2.513.971-.598 2.113-.899 3.43-.899 1.046 0 1.982.2 2.803.596.823.397 1.477.945 1.962 1.645.484.7.778 1.501.88 2.404h-2.632a3.05 3.05 0 0 0-.583-1.266 2.842 2.842 0 0 0-1.039-.803 3.12 3.12 0 0 0-1.379-.272c-.759-.009-1.417.188-1.973.59-.557.4-.99.965-1.297 1.694-.308.73-.462 1.59-.462 2.576 0 .97.157 1.815.468 2.537.312.721.748 1.276 1.31 1.664M426.11 224.649a3.094 3.094 0 0 0-1.228-1.132c-.532-.283-1.152-.424-1.86-.424-.515-.009-.964.063-1.348.214-.385.153-.69.379-.917.677-.229.301-.343.665-.343 1.096.01.658.262 1.164.76 1.518.5.354 1.202.565 2.114.633a39.95 39.95 0 0 0 1.594.101c.404.034.71.057.917.069.171.012.428.028.736.047l.004-1.255c0-.557-.144-1.071-.43-1.544m.247 10.105a8.036 8.036 0 0 1-2.538.398c-1.054 0-1.99-.166-2.809-.499-.818-.333-1.47-.797-1.954-1.392a3.81 3.81 0 0 1-.855-2.031h2.71c.132.531.442.956.93 1.272.483.316 1.114.474 1.89.474.608 0 1.122-.094 1.543-.285.423-.189.737-.468.943-.834.207-.367.31-.812.31-1.335l.004-1.107a98.875 98.875 0 0 1-.775-.021c-.482-.025-.975-.051-1.48-.082-.507-.029-.962-.06-1.367-.094-1.503-.101-2.733-.455-3.697-1.063-.96-.608-1.442-1.625-1.442-3.05 0-.87.203-1.618.608-2.246a3.857 3.857 0 0 1 1.658-1.43c.7-.325 1.494-.492 2.38-.501 1.045.009 1.91.225 2.593.646.684.422 1.178.937 1.481 1.544h.1v-1.886h2.62v9.124c0 1.241-.273 2.217-.822 2.93-.548.713-1.225 1.202-2.03 1.468M432.487 221.232h2.695v18.324h-2.695zM456.437 229.724c-1 .785-2.264 1.367-3.79 1.747l-1.76.468c-.953.228-1.747.55-2.385.968-.637.417-.956 1.013-.956 1.79 0 .523.153.99.457 1.398.303.41.733.727 1.29.955.558.23 1.202.342 1.937.342.7 0 1.324-.1 1.872-.303.549-.202.985-.505 1.31-.911.325-.405.517-.885.575-1.443h2.696a4.58 4.58 0 0 1-.841 2.613c-.544.772-1.3 1.375-2.266 1.81-.966.435-2.06.652-3.283.652-1.233 0-2.344-.218-3.336-.653-.991-.434-1.766-1.053-2.327-1.853-.561-.802-.842-1.72-.842-2.759-.008-1.24.398-2.254 1.22-3.042.825-.79 2.002-1.395 3.538-1.817l2.177-.569c.734-.195 1.35-.4 1.847-.62.498-.22.89-.508 1.178-.862.286-.354.43-.784.43-1.29 0-.59-.173-1.11-.52-1.557-.345-.447-.826-.793-1.441-1.037-.618-.245-1.314-.367-2.09-.367-.724-.009-1.385.096-1.98.316a3.354 3.354 0 0 0-1.448.993c-.372.443-.582.98-.633 1.613h-2.784c.067-1.104.386-2.058.954-2.859.57-.802 1.354-1.422 2.356-1.86.998-.44 2.182-.659 3.549-.659 1.408 0 2.626.228 3.65.683 1.026.457 1.806 1.091 2.342 1.905.534.815.803 1.74.803 2.778 0 1.501-.5 2.645-1.5 3.43M468.414 224.649a3.094 3.094 0 0 0-1.227-1.132c-.531-.283-1.151-.424-1.86-.424-.515-.009-.964.063-1.348.214a2.107 2.107 0 0 0-.917.677c-.228.301-.341.665-.341 1.096.007.658.26 1.164.758 1.518.498.354 1.203.565 2.114.633.497.042 1.028.076 1.594.101.405.034.71.057.917.069.172.012.429.028.738.047l.003-1.255a2.92 2.92 0 0 0-.431-1.544m.247 10.105a8.039 8.039 0 0 1-2.537.398c-1.054 0-1.991-.166-2.808-.499-.82-.333-1.471-.797-1.956-1.392a3.825 3.825 0 0 1-.855-2.031h2.708c.135.531.445.956.93 1.272.486.316 1.117.474 1.893.474.608 0 1.122-.094 1.543-.285.422-.189.737-.468.943-.834.207-.367.31-.812.31-1.335l.004-1.107a98.875 98.875 0 0 1-.775-.021c-.482-.025-.976-.051-1.482-.082-.505-.029-.961-.06-1.366-.094-1.502-.101-2.733-.455-3.695-1.063-.961-.608-1.443-1.625-1.443-3.05 0-.87.202-1.618.608-2.246a3.849 3.849 0 0 1 1.657-1.43c.7-.325 1.494-.492 2.38-.501 1.046.009 1.91.225 2.595.646.683.422 1.176.937 1.48 1.544h.1v-1.886h2.62v9.124c0 1.241-.274 2.217-.822 2.93-.55.713-1.225 1.202-2.032 1.468M479.79 240.417c-.843 0-1.57-.15-2.184-.455a3.325 3.325 0 0 1-1.422-1.323c-.337-.578-.506-1.268-.506-2.069v-1.594h-2.126v-2.15h2.126v-11.594h2.72v11.593h2.935v2.151h-2.935v1.214c-.007.658.157 1.14.495 1.443.337.304.865.455 1.58.455h.267c.355-.04.65-.075.887-.1v2.251c-.28.052-.576.094-.893.128-.316.032-.63.05-.943.05M485.329 229.319c.042.582.174 1.139.442 1.658.307.599.74 1.075 1.297 1.429.557.355 1.203.533 1.937.533.673 0 1.273-.157 1.795-.47a3.146 3.146 0 0 0 1.21-1.295 4.017 4.017 0 0 0 .424-1.855zm6.694 5.119c-.926.476-1.94.714-3.044.714-1.265 0-2.377-.296-3.335-.891-.957-.595-1.702-1.436-2.233-2.525-.531-1.088-.798-2.333-.798-3.733 0-1.408.267-2.645.798-3.708.53-1.063 1.289-1.885 2.278-2.467.986-.583 2.146-.874 3.48-.874.987 0 1.878.155 2.676.463.797.307 1.455.74 1.973 1.297.52.556.885 1.21 1.096 1.96h-2.746a2.585 2.585 0 0 0-.652-.758 3.295 3.295 0 0 0-1.006-.531 4.328 4.328 0 0 0-1.33-.216c-.767 0-1.441.17-2.024.512-.582.343-1.037.836-1.366 1.48-.306.6-.455 1.324-.477 2.146h9.766v.949c0 1.577-.28 2.883-.836 3.917-.556 1.033-1.297 1.788-2.22 2.265M503.488 223.46a9.245 9.245 0 0 0-.475-.013c-.33 0-.612.051-.85.152a1.19 1.19 0 0 0-.57.55c-.141.267-.213.64-.213 1.12v7.556h2.784v2.151h-2.784v3.29h-2.721v-3.29h-2.012v-2.15h2.012v-8.1c0-.802.184-1.478.55-2.025a3.407 3.407 0 0 1 1.469-1.234 4.88 4.88 0 0 1 2.018-.41c.616 0 1.173.037 1.67.112v2.33l-.366-.026c-.17 0-.341-.006-.512-.013M512.25 224.333h-.151l-3.454 10.643h-2.913l5.05-13.945-.355-.874c-.194-.548-.401-.953-.62-1.215-.22-.261-.444-.423-.676-.487a3.7 3.7 0 0 0-.867-.107 22.86 22.86 0 0 0-1.216.05v-2.277c.237-.017.718-.035 1.444-.051 1.113.009 2.033.289 2.758.84.725.555 1.295 1.388 1.709 2.5l5.669 15.566h-2.911zM532.212 236.462c.831.536 1.778.804 2.84.804.786 0 1.508-.143 2.17-.43a4.331 4.331 0 0 0 1.672-1.265c.451-.558.753-1.219.904-1.987h2.798c-.204 1.291-.655 2.405-1.355 3.347a6.75 6.75 0 0 1-2.657 2.145c-1.072.49-2.257.733-3.557.733-1.586 0-3.002-.379-4.245-1.138-1.245-.759-2.22-1.85-2.93-3.272-.708-1.42-1.062-3.09-1.062-5.005s.351-3.583 1.056-5.004c.705-1.422 1.678-2.512 2.924-3.27 1.243-.76 2.662-1.14 4.257-1.14 1.325 0 2.526.26 3.601.778a7.009 7.009 0 0 1 2.644 2.176 7.262 7.262 0 0 1 1.324 3.196l-2.798.013c-.16-.752-.465-1.399-.917-1.943a4.347 4.347 0 0 0-1.672-1.24 5.638 5.638 0 0 0-2.169-.437c-1.063.01-2.009.28-2.834.816-.827.536-1.479 1.316-1.956 2.341-.476 1.025-.714 2.263-.714 3.714 0 1.444.238 2.682.714 3.714.477 1.034 1.13 1.818 1.962 2.354M554.477 225.598c-.27-.734-.68-1.316-1.233-1.746-.552-.43-1.23-.645-2.03-.645-.812 0-1.495.215-2.05.645-.557.43-.973 1.012-1.248 1.746-.274.734-.416 1.552-.424 2.455.008.902.15 1.722.424 2.456.275.733.691 1.317 1.247 1.752.556.434 1.24.652 2.05.652.8 0 1.48-.218 2.031-.652.552-.435.963-1.019 1.233-1.752.271-.734.406-1.554.406-2.456 0-.903-.135-1.72-.406-2.455m.102 8.67c-.97.59-2.092.884-3.366.884-1.29 0-2.422-.295-3.39-.885-.97-.59-1.722-1.422-2.255-2.494-.53-1.07-.796-2.315-.796-3.733 0-1.408.266-2.646.796-3.714.533-1.067 1.284-1.896 2.254-2.486.97-.59 2.101-.887 3.391-.887 1.274 0 2.396.297 3.366.887.97.59 1.716 1.42 2.24 2.486.522 1.068.785 2.306.785 3.714 0 1.418-.263 2.663-.785 3.733-.524 1.072-1.27 1.903-2.24 2.494M564.374 234.533a3.323 3.323 0 0 1-1.316-1.76h-.152v2.203H560.3v-13.744h2.696v8.378c0 .59.143 1.12.43 1.588.286.468.677.837 1.171 1.107.493.27 1.047.405 1.664.405.261 0 .522-.019.784-.057a6.06 6.06 0 0 0 .633-.12v2.581c-.136.034-.524.06-1.165.077a3.795 3.795 0 0 1-2.138-.658M579.143 225.617c-.27-.73-.68-1.304-1.228-1.72-.548-.418-1.207-.627-1.974-.627-.752 0-1.395.204-1.93.614-.536.41-.945.974-1.227 1.695-.283.721-.43 1.568-.436 2.538.007.961.148 1.801.423 2.518.275.717.678 1.266 1.215 1.645.535.38 1.188.57 1.955.57.776 0 1.437-.2 1.98-.6.545-.402.952-.96 1.222-1.678.27-.717.404-1.536.404-2.455 0-.937-.134-1.77-.404-2.5m.348 8.694c-.874.561-1.863.841-2.968.841-.742 0-1.367-.113-1.873-.34-.506-.229-.903-.499-1.19-.81a6.758 6.758 0 0 1-.797-1.076.989.989 0 0 1-.101-.166h-.227v2.216h-2.62V216.07h2.695v7.29h.152l.05-.078c.237-.42.505-.79.805-1.107.3-.316.708-.595 1.228-.834.518-.24 1.148-.36 1.89-.36 1.115 0 2.106.283 2.975.853.868.57 1.545 1.388 2.03 2.454.485 1.068.728 2.331.728 3.79 0 1.451-.244 2.713-.734 3.785-.49 1.07-1.171 1.887-2.043 2.448M594.05 225.598c-.27-.734-.681-1.316-1.234-1.746-.554-.43-1.23-.645-2.031-.645-.81 0-1.493.215-2.05.645-.557.43-.974 1.012-1.246 1.746-.275.734-.416 1.552-.425 2.455.009.902.15 1.722.425 2.456.272.733.689 1.317 1.246 1.752.557.434 1.24.652 2.05.652.8 0 1.477-.218 2.03-.652.554-.435.965-1.019 1.235-1.752.27-.734.405-1.554.405-2.456 0-.903-.135-1.72-.405-2.455m.1 8.67c-.97.59-2.092.884-3.365.884-1.291 0-2.421-.295-3.392-.885-.971-.59-1.721-1.422-2.251-2.494-.532-1.07-.798-2.315-.798-3.733 0-1.408.266-2.646.798-3.714.53-1.067 1.28-1.896 2.25-2.486.972-.59 2.102-.887 3.393-.887 1.273 0 2.395.297 3.366.887.97.59 1.717 1.42 2.239 2.486.524 1.068.785 2.306.785 3.714 0 1.418-.261 2.663-.785 3.733-.522 1.072-1.268 1.903-2.24 2.494M603.945 234.533a3.323 3.323 0 0 1-1.316-1.76h-.153v2.203h-2.606v-13.744h2.696v8.378c0 .59.142 1.12.43 1.588.287.468.677.837 1.17 1.107a3.41 3.41 0 0 0 1.664.405c.262 0 .524-.019.785-.057.261-.038.473-.078.632-.12v2.581c-.134.034-.522.06-1.163.077a3.796 3.796 0 0 1-2.139-.658M616.84 224.649a3.094 3.094 0 0 0-1.227-1.132c-.532-.283-1.152-.424-1.86-.424-.515-.009-.964.063-1.348.214-.385.153-.69.379-.917.677-.229.301-.343.665-.343 1.096.01.658.262 1.164.76 1.518.498.354 1.202.565 2.113.633.498.042 1.03.076 1.595.101.404.034.71.057.917.069.171.012.428.028.736.047l.004-1.255c0-.557-.144-1.071-.43-1.544m.247 10.105a8.045 8.045 0 0 1-2.538.398c-1.054 0-1.99-.166-2.809-.499-.818-.333-1.47-.797-1.954-1.392a3.794 3.794 0 0 1-.855-2.031h2.708c.134.531.444.956.931 1.272.484.316 1.114.474 1.891.474.608 0 1.122-.094 1.543-.285.422-.189.736-.468.943-.834.207-.367.31-.812.31-1.335l.003-1.107a99.957 99.957 0 0 1-.774-.021c-.482-.025-.975-.051-1.48-.082a51.96 51.96 0 0 1-1.367-.094c-1.503-.101-2.733-.455-3.697-1.063-.96-.608-1.442-1.625-1.442-3.05 0-.87.203-1.618.608-2.246a3.857 3.857 0 0 1 1.658-1.43c.7-.325 1.494-.492 2.38-.501 1.045.009 1.91.225 2.593.646.684.422 1.178.937 1.48 1.544h.101v-1.886h2.62v9.124c0 1.241-.273 2.217-.822 2.93-.548.713-1.225 1.202-2.03 1.468M628.944 223.46a9.12 9.12 0 0 0-.474-.013c-.329 0-.613.051-.847.152-.237.102-.426.285-.57.55-.144.267-.216.64-.216 1.12v7.556h2.785v2.151h-2.785v3.29h-2.72v-3.29h-2.013v-2.15h2.013v-8.1c0-.802.182-1.478.551-2.025a3.396 3.396 0 0 1 1.467-1.234 4.881 4.881 0 0 1 2.02-.41c.615 0 1.171.037 1.67.112v2.33l-.368-.026c-.169 0-.339-.006-.513-.013M634.482 240.075a1.734 1.734 0 0 1-.848.216 1.715 1.715 0 0 1-1.47-.798 1.484 1.484 0 0 1-.226-.797c0-.288.075-.55.227-.79a1.72 1.72 0 0 1 .615-.583c.257-.148.54-.222.854-.222a1.778 1.778 0 0 1 1.474.804c.156.24.234.503.234.791 0 .286-.078.552-.234.797a1.725 1.725 0 0 1-.626.582M632.292 221.232h2.696v13.743h-2.696zM647.35 225.598c-.27-.734-.68-1.316-1.234-1.746-.553-.43-1.229-.645-2.03-.645-.81 0-1.494.215-2.05.645-.557.43-.973 1.012-1.247 1.746-.273.734-.416 1.552-.425 2.455.01.902.152 1.722.425 2.456.274.733.69 1.317 1.247 1.752.556.434 1.24.652 2.05.652.801 0 1.477-.218 2.03-.652.553-.435.964-1.019 1.234-1.752.271-.734.405-1.554.405-2.456 0-.903-.134-1.72-.405-2.455m.102 8.67c-.97.59-2.093.884-3.366.884-1.29 0-2.422-.295-3.392-.885-.97-.59-1.722-1.422-2.252-2.494-.53-1.07-.798-2.315-.798-3.733 0-1.408.267-2.646.798-3.714.53-1.067 1.282-1.896 2.252-2.486.97-.59 2.101-.887 3.392-.887 1.273 0 2.395.297 3.366.887.97.59 1.716 1.42 2.24 2.486.522 1.068.783 2.306.783 3.714 0 1.418-.26 2.663-.784 3.733-.523 1.072-1.269 1.903-2.239 2.494M662.454 234.565c-.696.392-1.517.588-2.462.588-1.004 0-1.848-.213-2.537-.638a3.838 3.838 0 0 1-1.525-1.78h-.177v2.24h-2.582v-13.742h2.696v8.149c0 .717.136 1.335.406 1.855.269.518.645.91 1.125 1.176.48.266 1.033.398 1.658.398.608 0 1.128-.123 1.564-.373.433-.248.764-.611.993-1.088.227-.476.34-1.04.34-1.69v-8.427h2.696v8.744c0 1.106-.192 2.048-.575 2.828-.384.78-.924 1.368-1.62 1.76M294.024 257.385h-29.61v7.31c0 .45-.154.84-.462 1.167a1.498 1.498 0 0 1-1.136.492h-4.485c-.45 0-.86-.165-1.229-.492-.368-.328-.552-.717-.552-1.167v-8.6c0-.328.163-.656.491-.983l4.24-4.239c.326-.246.633-.369.92-.369h31.823c.45 0 .83.154 1.136.461.308.307.461.686.461 1.137v3.563c0 .45-.153.85-.46 1.198a1.46 1.46 0 0 1-1.137.522M299.183 288.348h-4.546v9.154c0 .45-.154.83-.46 1.137-.308.306-.687.46-1.137.46h-4.669c-.41 0-.779-.154-1.106-.46a1.498 1.498 0 0 1-.49-1.137v-33.42c0-.452.152-.84.46-1.168a1.496 1.496 0 0 1 1.136-.49h4.67c.45 0 .828.162 1.136.49.306.328.46.716.46 1.168v17.386h4.546c.451 0 .83.142 1.137.43.307.285.461.654.461 1.105v3.81c0 .45-.154.818-.46 1.105-.308.286-.687.43-1.138.43M263.337 285.891c1.085 1.146 2.528 1.72 4.33 1.72 1.844 0 3.319-.574 4.424-1.72 1.106-1.147 1.659-2.663 1.659-4.547 0-1.842-.553-3.338-1.66-4.484-1.104-1.147-2.58-1.72-4.422-1.72-1.803 0-3.246.573-4.331 1.72-1.086 1.146-1.628 2.642-1.628 4.484 0 1.884.542 3.4 1.628 4.547m-2.703-15.758c2.027-1.127 4.37-1.689 7.034-1.689 2.703 0 5.078.562 7.127 1.69 2.047 1.125 3.613 2.661 4.699 4.606 1.085 1.945 1.629 4.065 1.629 6.36 0 1.514-.277 2.917-.83 4.207-.553 1.29-1.28 2.344-2.181 3.164h3.317c.409 0 .769.154 1.075.461.308.307.46.685.46 1.136v3.687c0 .408-.142.757-.43 1.044-.286.286-.654.43-1.105.43h-10.137v3.257c0 .45-.164.83-.491 1.136a1.65 1.65 0 0 1-1.167.461h-4.608c-.45 0-.83-.154-1.136-.46a1.544 1.544 0 0 1-.461-1.137v-3.257H253.23c-.451 0-.83-.144-1.137-.43a1.381 1.381 0 0 1-.46-1.044v-3.687c0-.409.163-.778.49-1.106.328-.328.697-.49 1.107-.49h4.055c-.902-.82-1.62-1.875-2.15-3.165-.533-1.29-.8-2.693-.8-4.208 0-2.294.543-4.414 1.629-6.359 1.084-1.945 2.642-3.48 4.669-4.607M351.402 281.468h-2.826v10.622c0 .49-.144.86-.43 1.106l-4.3 4.3c-.246.246-.575.369-.984.369h-32.744c-.41 0-.758-.144-1.044-.43-.287-.287-.43-.655-.43-1.106v-3.563c0-.41.143-.768.43-1.075a1.374 1.374 0 0 1 1.044-.461h30.594v-9.762h-34.648c-.41 0-.768-.153-1.075-.461a1.47 1.47 0 0 1-.462-1.075v-3.624c0-.451.154-.83.462-1.137a1.47 1.47 0 0 1 1.075-.46h18.737v-6.33h-14.867c-.41 0-.759-.163-1.045-.49a1.714 1.714 0 0 1-.43-1.167v-3.38c0-.45.143-.828.43-1.136a1.376 1.376 0 0 1 1.045-.461h31.147v-9.583c0-.45.154-.84.46-1.167.308-.327.666-.492 1.075-.492h4.793c.41 0 .767.165 1.075.492.307.328.46.717.46 1.167v9.952c0 .409-.123.737-.368.983l-4.915 4.853c-.287.287-.594.43-.92.43h-10.076v6.329h18.737c.408 0 .768.153 1.075.46.307.307.461.686.461 1.137v3.624c0 .409-.154.769-.46 1.075a1.473 1.473 0 0 1-1.076.46M402.577 257.385h-31.579v8.294c0 .45-.153.84-.461 1.167a1.497 1.497 0 0 1-1.136.492h-4.485c-.451 0-.86-.165-1.228-.492-.369-.328-.553-.717-.553-1.167v-9.584c0-.328.163-.656.491-.983l4.239-4.239c.328-.246.635-.369.922-.369h33.79c.45 0 .829.154 1.136.461.308.307.461.686.461 1.137v3.563c0 .45-.153.85-.461 1.198a1.46 1.46 0 0 1-1.136.522M364.363 271.147l8.662 14.499 8.663-14.5c.327-.573.798-.86 1.412-.86.37 0 .655.082.86.246l3.502 2.15c.532.286.8.737.8 1.352 0 .41-.084.716-.247.921L377.88 290.99h7.986c.45 0 .83.153 1.137.46.307.307.46.686.46 1.137v3.563c0 .45-.153.85-.46 1.198a1.463 1.463 0 0 1-1.137.522h-25.74c-.452 0-.84-.175-1.168-.522a1.694 1.694 0 0 1-.49-1.198v-3.563c0-.45.161-.83.49-1.137.327-.307.716-.46 1.167-.46h8.048l-10.26-16.219c-.205-.328-.306-.636-.306-.922 0-.45.286-.9.86-1.35l3.562-1.967c.328-.164.615-.246.86-.246.655 0 1.147.287 1.475.86M389.674 281.468h5.652v-16.464c0-.452.163-.83.491-1.137.328-.307.737-.461 1.23-.461h4.545c.451 0 .83.164 1.137.492.307.327.461.696.461 1.106v32.437c0 .45-.154.839-.46 1.167a1.499 1.499 0 0 1-1.138.492h-4.546c-.492 0-.9-.165-1.229-.492a1.594 1.594 0 0 1-.49-1.167v-9.216h-5.653c-.41 0-.778-.175-1.106-.522a1.695 1.695 0 0 1-.49-1.198v-3.38c0-.45.162-.838.49-1.166.328-.328.696-.491 1.106-.491M453.258 299.1h-4.485c-.41 0-.789-.166-1.137-.493-.348-.328-.52-.716-.52-1.167v-45.338c0-.409.161-.778.49-1.106a1.595 1.595 0 0 1 1.167-.492h4.485c.45 0 .85.166 1.198.493.347.327.522.696.522 1.105v45.338c0 .41-.175.788-.522 1.136-.349.348-.748.523-1.198.523M433.108 297.496a1.25 1.25 0 0 1-.921.369H413.51c-.45 0-.85-.165-1.198-.492a1.617 1.617 0 0 1-.522-1.228v-3.502c0-.492.164-.891.492-1.198.327-.307.737-.461 1.228-.461h16.772v-6.696c0-1.393-.164-2.53-.492-3.41-.328-.881-.86-1.69-1.597-2.426-1.68-1.72-4.526-4.424-8.54-8.11-4.013-3.686-6.88-6.287-8.6-7.802-.41-.287-.614-.717-.614-1.29 0-.451.143-.82.43-1.106l2.826-3.01c.327-.37.757-.553 1.29-.553.409 0 .737.122.983.369a260.315 260.315 0 0 1 19.229 17.754c1.023 1.106 1.76 2.232 2.21 3.379.452 1.146.697 2.703.739 4.669v9.092c0 .328-.123.614-.37.86zM522.86 271.147l8.663 14.499 8.663-14.5c.327-.573.798-.86 1.412-.86.369 0 .655.082.86.246l3.502 2.15c.532.286.799.737.799 1.352 0 .41-.083.716-.246.921l-10.136 16.035h7.986c.45 0 .829.153 1.137.46.307.307.46.686.46 1.137v3.563c0 .45-.153.85-.46 1.198a1.463 1.463 0 0 1-1.137.522h-25.741c-.451 0-.84-.175-1.167-.522-.328-.349-.491-.748-.491-1.198v-3.563c0-.45.163-.83.49-1.137.328-.307.717-.46 1.168-.46h8.048l-10.26-16.219c-.205-.328-.306-.636-.306-.922 0-.45.286-.9.86-1.35l3.562-1.967c.328-.164.615-.246.86-.246.655 0 1.147.287 1.475.86M548.172 281.468h5.652v-16.464c0-.452.163-.83.492-1.137.327-.307.736-.461 1.228-.461h4.546c.45 0 .83.164 1.137.492.307.327.46.696.46 1.106v32.437c0 .45-.154.839-.46 1.167a1.499 1.499 0 0 1-1.137.492h-4.546c-.492 0-.901-.165-1.228-.492a1.59 1.59 0 0 1-.492-1.167v-9.216h-5.652c-.41 0-.778-.175-1.106-.522a1.695 1.695 0 0 1-.491-1.198v-3.38c0-.45.163-.838.49-1.166.328-.328.696-.491 1.106-.491M561.074 257.385h-31.579v8.294c0 .45-.153.84-.46 1.167a1.497 1.497 0 0 1-1.137.492h-4.485c-.45 0-.86-.165-1.228-.492-.369-.328-.553-.717-.553-1.167v-9.584c0-.328.163-.656.491-.983l4.24-4.239c.327-.246.634-.369.921-.369h33.79c.45 0 .83.154 1.136.461.308.307.461.686.461 1.137v3.563c0 .45-.153.85-.46 1.198a1.46 1.46 0 0 1-1.137.522M471.38 285.092c0 2.171.623 3.921 1.873 5.253 1.25 1.33 2.919 1.996 5.007 1.996 2.048 0 3.717-.666 5.007-1.996 1.29-1.332 1.936-3.082 1.936-5.253 0-2.253-.636-4.045-1.905-5.375-1.27-1.332-2.95-1.997-5.038-1.997s-3.757.665-5.007 1.997c-1.25 1.33-1.873 3.122-1.873 5.375m12.9-12.963c1.844.696 3.44 1.7 4.793 3.01a13.318 13.318 0 0 1 2.979 4.485c.676 1.68 1.014 3.502 1.014 5.468 0 1.883-.35 3.676-1.044 5.375a13.449 13.449 0 0 1-2.95 4.454c-2.702 2.785-6.307 4.178-10.812 4.178-4.423 0-8.027-1.393-10.812-4.178a13.418 13.418 0 0 1-2.95-4.454 14.029 14.029 0 0 1-1.044-5.375c0-1.966.339-3.789 1.014-5.468a13.32 13.32 0 0 1 2.98-4.485c2.826-2.703 6.429-4.054 10.812-4.054 2.17 0 4.178.348 6.02 1.044M510.452 288.348h-4.485v9.092c0 .451-.164.84-.491 1.167a1.597 1.597 0 0 1-1.168.492H499.7c-.451 0-.83-.164-1.137-.492a1.646 1.646 0 0 1-.46-1.167v-32.436c0-.452.153-.83.46-1.137a1.547 1.547 0 0 1 1.137-.46h4.607c.45 0 .839.153 1.168.46.327.307.49.685.49 1.137v16.464h4.486c.45 0 .839.153 1.168.46.327.307.49.686.49 1.137v3.624a1.6 1.6 0 0 1-.49 1.168 1.601 1.601 0 0 1-1.168.491M505.354 257.385h-29.611v8.294c0 .45-.154.84-.461 1.167a1.498 1.498 0 0 1-1.136.492h-4.485c-.451 0-.86-.165-1.23-.492-.367-.328-.551-.717-.551-1.167v-9.584c0-.328.163-.656.49-.983l4.24-4.239c.327-.246.634-.369.92-.369h31.824c.45 0 .829.154 1.136.461.308.307.46.686.46 1.137v3.563c0 .45-.152.85-.46 1.198a1.46 1.46 0 0 1-1.136.522M574.28 291.23h30.595v-8.227c0-.45.143-.819.43-1.105.286-.287.676-.43 1.167-.43h4.669c.45 0 .83.143 1.137.43.307.286.46.655.46 1.105v9.087c0 .491-.143.86-.43 1.106l-4.3 4.301c-.246.245-.574.368-.983.368H574.28c-.41 0-.76-.144-1.045-.43-.287-.287-.43-.656-.43-1.106v-3.563c0-.41.143-.768.43-1.075a1.376 1.376 0 0 1 1.045-.461" style="fill:#414142;fill-opacity:1;fill-rule:nonzero;stroke:none" transform="matrix(1.33333 0 0 -1.33333 -145.982 431.908)"/><path d="M615.503 279.194H593.94v5.898c0 .45-.154.818-.461 1.106-.308.285-.686.43-1.137.43h-4.668c-.492 0-.882-.145-1.168-.43-.287-.288-.43-.656-.43-1.106v-5.898h-15.85c-.451 0-.82-.144-1.106-.43-.286-.287-.43-.656-.43-1.106v-3.624c0-.452.144-.83.43-1.137.287-.307.655-.461 1.106-.461h45.277c.45 0 .829.163 1.137.49.307.329.46.698.46 1.108v3.624c0 .409-.153.768-.46 1.075a1.548 1.548 0 0 1-1.137.46M604.568 257.816c-.738-.533-1.781-.8-3.133-.8h-17.08c-1.35 0-2.395.267-3.132.8-.737.532-1.106 1.31-1.106 2.335 0 .94.369 1.678 1.106 2.21.737.532 1.782.8 3.133.8h17.079c1.352 0 2.395-.268 3.133-.8.737-.532 1.106-1.27 1.106-2.21 0-1.025-.37-1.803-1.106-2.335m5.99 9.215c-1.987 1.679-4.68 2.519-8.08 2.519h-19.166c-3.4 0-6.093-.84-8.08-2.52-1.986-1.68-2.98-3.992-2.98-6.941 0-2.99.994-5.334 2.98-7.034 1.987-1.7 4.68-2.55 8.08-2.55h19.167c3.399 0 6.092.85 8.079 2.55 1.986 1.7 2.979 4.044 2.979 7.034 0 2.949-.993 5.262-2.98 6.942M641.734 296.268c-.082.45-.276.829-.583 1.136a1.544 1.544 0 0 1-1.137.46h-4.485c-.451 0-.83-.152-1.136-.46a2.091 2.091 0 0 1-.584-1.136l-11.488-37.352c-.082-.451-.021-.851.184-1.198.204-.348.512-.605.922-.768l4.116-1.167c.409-.123.808-.072 1.198.153.389.225.623.542.706.953l8.355 27.952 8.416-28.014c.164-.41.45-.717.86-.922.41-.205.82-.245 1.229-.122l4.055 1.167c.738.286 1.106.778 1.106 1.474 0 .205-.021.369-.062.492zM670.147 281.56a1.547 1.547 0 0 1-1.137.461h-4.36v15.481c0 .45-.155.83-.462 1.137-.308.306-.687.46-1.137.46h-4.607c-.45 0-.84-.164-1.168-.492-.328-.328-.49-.696-.49-1.105v-45.339c0-.45.162-.839.49-1.167a1.597 1.597 0 0 1 1.168-.492h4.607c.45 0 .83.165 1.137.492.307.328.461.717.461 1.167v22.547h4.361c.41 0 .778.163 1.106.492.328.327.492.715.492 1.166v4.055c0 .451-.154.83-.46 1.137" style="fill:#414142;fill-opacity:1;fill-rule:nonzero;stroke:none" transform="matrix(1.33333 0 0 -1.33333 -145.982 431.908)"/><path d="M206.491 297.86c4.369-.193 5.418-.847 5.932-1.954.677-1.457-.542-2.968-1.286-3.945l-16.852-20.097-36.965-44.092c-1.211-1.528-1.626-3.053-1.007-4.468.566-1.297 1.844-2.071 3.417-2.071h20.318c2.95 0 5.672 1.344 7.677 3.509l44.074 52.59c4.011 4.333 5.253 9.564 3.319 13.989-1.789 4.093-6.445 6.538-11.608 6.539z" style="fill:url(#a);stroke:none" transform="matrix(1.33333 0 0 -1.33333 -145.982 431.908)"/><path d="M186.081 297.86c-2.893 0-5.026-1.418-5.876-3.639l-5.723-16.612c-.359-1.151-.47-2.337.167-3.36.636-1.022 1.592-1.634 2.94-1.634h17.327l16.221 19.346c.744.977 1.963 2.488 1.286 3.945-.514 1.107-1.563 1.761-5.932 1.954z" style="fill:url(#b);stroke:none" transform="matrix(1.33333 0 0 -1.33333 -145.982 431.908)"/><path d="M165.452 323.931c-2.951 0-5.673-1.346-7.677-3.51L113.7 267.83c-4.01-4.333-5.252-9.563-3.319-13.989 1.789-4.093 6.445-6.538 11.609-6.539h17.02c-4.371.193-5.419.848-5.933 1.955-.678 1.457.541 2.967 1.285 3.945l16.852 20.096 36.965 44.093c1.211 1.528 1.627 3.052 1.008 4.469-.567 1.296-1.845 2.071-3.418 2.071z" style="fill:url(#c);stroke:none" transform="matrix(1.33333 0 0 -1.33333 -145.982 431.908)"/><path d="m150.583 272.547-16.221-19.345c-.744-.978-1.963-2.488-1.285-3.945.514-1.107 1.562-1.762 5.933-1.955h20.408c2.893 0 5.026 1.418 5.876 3.64l5.723 16.612c.359 1.151.47 2.336-.166 3.36-.637 1.022-1.593 1.633-2.941 1.633z" style="fill:url(#d);stroke:none" transform="matrix(1.33333 0 0 -1.33333 -145.982 431.908)"/></svg>