<svg xmlns="http://www.w3.org/2000/svg" xml:space="preserve" width="1022.2132" height="200" viewBox="0 0 1022.2132 200"><defs><linearGradient id="b" x1="0" x2="1" y1="0" y2="0" gradientTransform="matrix(16.16852 -59.43625 -115.15773 -31.32475 257.26 329.922)" gradientUnits="userSpaceOnUse" spreadMethod="pad"><stop offset="0" style="stop-opacity:1;stop-color:#fff"/><stop offset="0.00561798" style="stop-opacity:1;stop-color:#fff"/><stop offset="0.02029137" style="stop-opacity:1;stop-color:#1abbef"/><stop offset="0.0786517" style="stop-opacity:1;stop-color:#1abbef"/><stop offset="0.30809338" style="stop-opacity:1;stop-color:#00004f"/><stop offset="1" style="stop-opacity:1;stop-color:#00004f"/></linearGradient><linearGradient id="d" x1="0" x2="1" y1="0" y2="0" gradientTransform="matrix(23.52858 48.3483 99.91054 -48.62695 222.242 256.446)" gradientUnits="userSpaceOnUse" spreadMethod="pad"><stop offset="0" style="stop-opacity:1;stop-color:#fff"/><stop offset="0.03989842" style="stop-opacity:1;stop-color:#1abbef"/><stop offset="0.151685" style="stop-opacity:1;stop-color:#1abbef"/><stop offset="0.37320146" style="stop-opacity:1;stop-color:#00004f"/><stop offset="1" style="stop-opacity:1;stop-color:#00004f"/></linearGradient><linearGradient id="e" x1="0" x2="1" y1="0" y2="0" gradientTransform="scale(25.12939 -25.12939) rotate(60.659 14.616 3.405)" gradientUnits="userSpaceOnUse" spreadMethod="pad"><stop offset="0" style="stop-opacity:1;stop-color:#63c6f2"/><stop offset="0.6862476" style="stop-opacity:1;stop-color:#00004f"/><stop offset="1" style="stop-opacity:1;stop-color:#00004f"/></linearGradient><clipPath id="a" clipPathUnits="userSpaceOnUse"><path d="M301.538 333.255c-6.049 8.376-30.099 1.436-53.713-15.502-6.04-4.328-11.614-8.99-16.247-13.529l1.94-1.174a102.14 102.14 0 0 0 6.131 4.873c16.404 12.015 33.243 17.135 37.617 11.438 4.299-5.606-5.113-21.872-21.033-33.767l-1.194-.917c-.105-.085-.211-.175-.318-.254-9.691-7.747-19.73-12.981-27.176-14.738l1.171-1.108c8.704 1.023 20.451 5.727 32.753 13.345l.25.153a146.71 146.71 0 0 1 7.986 5.348c23.623 16.935 37.875 37.455 31.833 45.832"/></clipPath><clipPath id="c" clipPathUnits="userSpaceOnUse"><path d="M203.392 281.782c18.279-19.334 46.055-34.979 62.576-35.343 3.094-.071 3.009 1.158 1.029 1.583-13.821 2.956-35.884 14.061-49.234 32.797-7.875 11.054-9.421 21.731 2.04 21.309 11.774-.438 27.412-11.666 34.684-17.899l1.186.912c-20.131 20.469-37.428 26.073-48.429 28.618l-.2.054c-2.111.574-2.764.715-4.615.909-16.419 1.717-18.085-12.791.963-32.94"/></clipPath></defs><g clip-path="url(#a)" transform="matrix(2.21308 0 0 -2.21308 -419.62 745.383)"><path d="m212.586 253.938-16.166 59.435 121.684 33.1 16.165-59.437z" style="fill:url(#b);stroke:none"/></g><g clip-path="url(#c)" transform="matrix(2.21308 0 0 -2.21308 -419.62 745.383)"><path d="m298.543 279.11-23.525-48.345-105.549 51.367 23.526 48.345z" style="fill:url(#d);stroke:none"/></g><path d="M274.219 254.629c-6.049-3.398-13.707-1.252-17.106 4.797-3.4 6.053-1.253 13.707 4.794 17.109 6.051 3.397 13.71 1.251 17.11-4.798 3.4-6.047 1.252-13.707-4.798-17.108" style="fill:url(#e);stroke:none" transform="matrix(2.21308 0 0 -2.21308 -419.62 745.383)"/><path d="M627.186 276.658h-6.848v-9.054h-13.763v-6.051h35.691v6.051h-15.08zm17.455-17.754h6.864v49.657h-6.864zm-20.76 41.112c4.068 0 7.364-3.321 7.364-7.412 0-4.09-3.296-7.411-7.364-7.411s-7.361 3.321-7.361 7.411c0 4.091 3.293 7.412 7.361 7.412m-13.498-7.233c0-7.256 5.994-13.137 13.392-13.137s13.396 5.881 13.396 13.137c0 2.561-.753 4.949-2.048 6.974h4.715v6h-12.485v6.352h-7.078v-6.352h-12.408v-6h4.561a12.901 12.901 0 0 1-2.045-6.974m-56.613 15.74h-6.854v-32.252h6.854zm-32.403-42.58v11.03l-6.721.019v-12.265c0-3.995 2.008-5.393 6.089-5.393h33.884l-.012 6.609zm-79.428 36.93a.024.024 0 0 0-.009-.008V286.51l6.508-.002v16.078h5.906v5.961h-7.409c-4.636 0-4.976-2.554-4.996-5.674M313.721 265.98v11.03l-6.723.021v-12.875c0-3.424 2.401-4.783 6.086-4.783h33.493l-.012 6.607zm4.618 33.457c3.7 0 6.705-3.104 6.705-6.937 0-3.826-3.005-6.93-6.705-6.93-3.706 0-6.712 3.104-6.712 6.93 0 3.833 3.006 6.937 6.712 6.937m-.024-20.005c7.155 0 12.955 5.884 12.955 13.148 0 2.516-.697 4.868-1.904 6.865h3.509v6.067h-11.079v5.063h-6.77v-5.063h-11.452v-6.067h3.688a13.217 13.217 0 0 1-1.904-6.865c0-7.83 5.567-13.148 12.957-13.148m21.157 23.428c-.008-.005-.008-.006-.016-.008v-26.446l6.509-.004v26.173h5.909v5.959h-7.414c-4.633 0-4.974-2.554-4.988-5.674m58.853 2c0 1.967-1.635 3.566-3.653 3.566h-34.464v-5.996h31.346v-9.201h-34.365v-5.948h18.759v-9.783h-17.349v-6.178h34.623v-12.023h6.248v14.564c0 1.969-.851 3.563-3.658 3.563h-13.313v9.857h19.137v5.948h-3.311zm16.274-5.923h12.408v-6.19h-12.408zm15.452-11.777c2.02 0 3.656 1.594 3.656 3.557v17.813h-6.7v-4.009H414.54v4.009h-6.556v-17.813c0-1.963 1.634-3.557 3.649-3.557zm14.915-17.851c2.017 0 3.653 1.589 3.653 3.558l-.027 11.071h-38.708v-5.258h32.147v-3.869l-29.636.021c-1.378 0-2.504-1.088-2.504-2.426v-8.83c0-2.945 1.767-4.174 5.471-4.174h33.028v5.75h-31.884v4.157zm43.616-6.403c-5.125 0-8.756 3.037-8.756 7.92 0 4.893 3.631 7.621 8.756 7.621 5.134 0 8.707-2.728 8.707-7.621 0-4.883-3.573-7.92-8.707-7.92m-9.632 26.381h-12.024v13.086h12.024zm9.697-4.844c-.751 0-2.272-.017-3.771-.388.631.154.539 1.41.539 2.091v18.547c0 1.966-1.631 3.559-3.649 3.559h-17.885c-2.022 0-3.655-1.593-3.655-3.559v-17.947c0-1.963 1.633-3.558 3.655-3.558h17.666c-4.96-2.096-8.655-6.366-8.655-12.202 0-8.48 7.056-14.599 15.755-14.599 8.7 0 15.753 6.119 15.753 14.599 0 7.262-5.921 13.457-15.753 13.457M500 308.439h-9.989v-5.963h7.518v-5.205h-7.518v-5.964h7.518v-8.592l6.948.027v21.459c0 3.769-1.413 4.238-4.477 4.238m27.428-19.001s4.482-6.813 14.764-6.813v6.516s-11.646-.905-11.187 12.449v.389h9.145v6.513h-26.042v-6.513h9.59c.726-14.122-7.58-12.725-10.371-12.838l.038-6.516c7.733 0 11.462 2.252 14.063 6.813m54.655-27.108c-5.319 0-9.627 4.522-9.627 10.106 0 5.578 4.308 10.103 9.627 10.103 5.315 0 9.626-4.525 9.626-10.103 0-5.584-4.311-10.106-9.626-10.106m-.046 38.949c3.852 0 6.969-2.906 6.969-6.49 0-3.582-3.117-6.494-6.969-6.494-3.843 0-6.963 2.912-6.963 6.494 0 3.584 3.12 6.49 6.963 6.49m12.756-6.443c0 2.243-.847 4.727-2.171 6.503h10.008v5.684h-16.819v4.657h-7.304v-4.657h-16.82v-5.684h9.772c-1.411-1.776-2.086-4.26-2.086-6.503 0-2.256.939-4.994 2.174-6.453H560.24v-5.901h9.549a15.764 15.764 0 0 1-3.612-10.064c0-8.77 7.123-15.873 15.906-15.873 8.786 0 15.905 7.103 15.905 15.873 0 3.818-1.352 7.322-3.611 10.064h9.702v5.901h-11.635c1.238 1.381 2.349 4.197 2.349 6.453" style="fill:#111f77;fill-opacity:1;fill-rule:nonzero;stroke:none" transform="matrix(2.21308 0 0 -2.21308 -419.62 745.383)"/></svg>