<svg xmlns="http://www.w3.org/2000/svg" xml:space="preserve" width="1273.1429" height="200" viewBox="0 0 1273.1429 200"><defs><linearGradient id="a" x1="0" x2="1" y1="0" y2="0" gradientTransform="scale(142.59787 -142.59787) rotate(-39.588 -.7 -2.8)" gradientUnits="userSpaceOnUse" spreadMethod="pad"><stop offset="0" style="stop-opacity:1;stop-color:#000032"/><stop offset="0.713483" style="stop-opacity:1;stop-color:#006fff"/><stop offset="1" style="stop-opacity:1;stop-color:#00a9ff"/></linearGradient><linearGradient id="b" x1="0" x2="1" y1="0" y2="0" gradientTransform="scale(171.00043 -171.00043) rotate(-39.588 -1.93 -5.592)" gradientUnits="userSpaceOnUse" spreadMethod="pad"><stop offset="0" style="stop-opacity:1;stop-color:#000032"/><stop offset="0.713483" style="stop-opacity:1;stop-color:#006fff"/><stop offset="1" style="stop-opacity:1;stop-color:#00a9ff"/></linearGradient></defs><path d="M319.91 242.3c-3.752-.377-7.925-1.712-12.324-3.857a63.655 63.655 0 0 1-4.846-2.626c-13.012.994-28.264-3.847-40.96-13.796-21.373-16.758-29.287-43.228-19.951-62.608-4.088 2.009-7.794 4.756-10.933 8.261-15.553 17.406-8.246 49.933 12.68 68.86a97.52 97.52 0 0 1-5.007-2.626c-19.455-11.023-32.868-27.46-37.533-43.615-2.983-10.34-2.406-20.57 2.49-29.208.467-.823.98-1.617 1.517-2.395 13.73-19.947 48.256-22.353 78.96-4.952a95.082 95.082 0 0 1 3.937 2.376c11.736 7.402 20.992 16.798 27.103 26.767-8.537-23.664-25.958-39.659-34.013-45.243 12.113.397 24.984 4.932 36.153 13.69 21.288 16.683 29.217 42.998 20.062 62.357 1.914 10.677.246 20.545-4.725 25.014-2.717 2.446-6.303 3.707-10.466 3.707-.698 0-1.416-.036-2.144-.106m-4.606-10.46c-2.666 1.797-5.338 2.711-7.12 3.163a7.65 7.65 0 0 1-.669.17c-.09.016-.19.031-.286.051-.281.055-.512.096-.698.13-.597.096-1.2.187-1.803.262a52.544 52.544 0 0 0 4.058 2.024c7.237 3.219 13.168 3.53 16.537.2 1.527-1.506 2.41-3.655 2.727-6.307.462-2.903.984-12.213-3.746-23.87 1.491 13.655-3.757 20.63-9 24.176" style="fill:url(#a);stroke:none;stroke-width:5.02193" transform="matrix(1.90899 0 0 -1.90899 -380.296 462.75)"/><path d="M370.572 210.203c-3.837-12.64-19.706-55.573-61.504-68.364 45.77-.853 90.56 37.936 109.72 81.978z" style="fill:#a6a6a6;fill-opacity:1;fill-rule:nonzero;stroke:none;stroke-width:5.02193" transform="matrix(1.90899 0 0 -1.90899 -380.296 462.75)"/><path d="M485.887 206.162v-4.485h-6.774v-16.432h-5.123v34.843h5.123v-13.926zm-27.37-18.838v-10.24h21.339v-4.429h-26.51v14.67zm1.573 20.726c-1.26 1.336-2.712 2.004-4.344 2.004-1.642 0-3.089-.668-4.354-2.004-1.26-1.33-1.894-2.888-1.894-4.665 0-1.743.633-3.275 1.894-4.59 1.265-1.316 2.712-1.97 4.354-1.97 1.632 0 3.083.654 4.344 1.97 1.26 1.315 1.893 2.847 1.893 4.59 0 1.777-.633 3.334-1.893 4.665m9.471 7.93v-4.274H462.2c1.386-.954 2.531-2.18 3.44-3.656.909-1.476 1.36-3.099 1.36-4.876 0-2.988-1.089-5.55-3.278-7.689-2.19-2.13-4.852-3.199-7.975-3.199-3.134 0-5.786 1.07-7.955 3.2-2.17 2.138-3.254 4.7-3.254 7.688 0 1.777.457 3.4 1.36 4.876.905 1.476 2.02 2.702 3.335 3.656h-7.412v4.274h11.204v5.388h5.6v-5.388zM518.908 207.305c.336 2.772.472 4.997.401 6.669h-21.232v4.48h26.676c.07-2.592-.09-5.635-.482-9.12-.392-3.486-.889-6.444-1.492-8.86h10.506v-4.268h-18.832v-7.789h10.672v-16.592h-5.178v12.268h-22.353v4.324h11.365v7.79h-18.993v4.268h27.636c.532 1.778.97 4.053 1.306 6.83M565.13 209.55v4.535h6.508v5.921h5.178v-40.763h-5.178v17.718h-6.508v4.48h6.508v8.11zm-7.603 1.572c-1.331 1.512-2.993 2.27-4.987 2.27-1.994 0-3.656-.758-4.987-2.27-1.336-1.511-2.004-3.364-2.004-5.574 0-2.17.668-4.018 2.004-5.55 1.33-1.53 2.993-2.29 4.987-2.29 1.994 0 3.656.76 4.987 2.29 1.336 1.532 2.003 3.38 2.003 5.55 0 2.21-.667 4.063-2.003 5.574m-13.575 3.255c2.38 2.44 5.248 3.656 8.588 3.656 3.38 0 6.262-1.216 8.643-3.656 2.385-2.436 3.575-5.379 3.575-8.829 0-3.45-1.19-6.393-3.575-8.829-2.38-2.44-5.263-3.655-8.643-3.655-3.34 0-6.207 1.215-8.588 3.655-2.385 2.436-3.575 5.379-3.575 8.829 0 3.45 1.19 6.393 3.575 8.829M619.65 220.072h5.123V190.94h-5.123v16.116h-9.019v4.429h9.02zm-2.937-43.776c1.245 1.226 1.873 2.712 1.873 4.455 0 1.778-.598 3.28-1.788 4.504-1.195 1.23-2.682 1.849-4.46 1.849-1.737 0-3.234-.618-4.479-1.849-1.245-1.225-1.868-2.726-1.868-4.504 0-1.743.597-3.23 1.788-4.455 1.195-1.225 2.661-1.838 4.404-1.838 1.778 0 3.29.613 4.53 1.838m3.686-3.118c-2.205-2.1-4.892-3.15-8.06-3.15-3.13 0-5.806 1.05-8.03 3.15-2.225 2.094-3.33 4.625-3.33 7.573 0 2.988 1.105 5.534 3.33 7.633 2.224 2.094 4.9 3.144 8.03 3.144 3.168 0 5.855-1.05 8.06-3.144 2.204-2.1 3.304-4.645 3.304-7.633 0-2.948-1.1-5.48-3.304-7.573m-9.602 21.554c-1 .497-1.994 1.11-2.993 1.838a27.754 27.754 0 0 0-2.828 2.375 24.513 24.513 0 0 0-2.395 2.772 15.789 15.789 0 0 0-1.713 2.828c-.426-.995-1.03-2.024-1.812-3.094a23.74 23.74 0 0 0-2.722-3.093 27.495 27.495 0 0 0-3.17-2.722 31.385 31.385 0 0 0-3.339-2.135l-3.304 3.36a39.942 39.942 0 0 1 5.092 3.736 18.917 18.917 0 0 1 3.761 4.43 17.224 17.224 0 0 1 2.024 4.67c.467 1.688.698 3.566.698 5.63v3.676h5.55v-4.053c0-1.918.21-3.716.637-5.388a15.636 15.636 0 0 1 1.974-4.59 16.447 16.447 0 0 1 3.204-3.762 22.407 22.407 0 0 1 4.374-2.958zM667.66 220.072h5.122v-29.026h-5.122v13.715h-9.441v4.429h9.441zm-2.933-43.776c1.246 1.226 1.868 2.712 1.868 4.455 0 1.778-.597 3.28-1.787 4.504-1.196 1.23-2.682 1.849-4.455 1.849-1.747 0-3.239-.618-4.484-1.849-1.246-1.225-1.869-2.726-1.869-4.504 0-1.743.598-3.23 1.788-4.455s2.662-1.838 4.404-1.838c1.778 0 3.29.613 4.535 1.838m3.676-3.118c-2.2-2.1-4.886-3.15-8.05-3.15-3.133 0-5.81 1.05-8.035 3.15-2.22 2.094-3.334 4.625-3.334 7.573 0 2.988 1.114 5.534 3.334 7.633 2.225 2.094 4.902 3.144 8.035 3.144 3.164 0 5.85-1.05 8.05-3.144 2.21-2.1 3.315-4.645 3.315-7.633 0-2.948-1.105-5.48-3.315-7.573m-31.527 40.436v4.324h22.568v-4.324h-8.532v-2.024c0-1.637.271-3.148.824-4.534a12.953 12.953 0 0 1 2.32-3.792c.964-1.1 2.074-2.1 3.334-2.988a29.558 29.558 0 0 1 4.083-2.4l-2.722-3.571c-.959.422-1.948.95-2.963 1.572a27.578 27.578 0 0 0-2.963 2.109 37.668 37.668 0 0 0-2.53 2.45 13.335 13.335 0 0 0-1.95 2.617c-.391-.854-.933-1.732-1.626-2.641a22.864 22.864 0 0 0-2.32-2.587 30.275 30.275 0 0 0-3.069-2.586 28.332 28.332 0 0 0-3.174-2.054l-3.36 3.41a23.452 23.452 0 0 1 4.078 2.697 19.091 19.091 0 0 1 3.496 3.706 16.898 16.898 0 0 1 2.214 4.002c.553 1.427.829 2.918.829 4.485v2.13zM716.67 219.938h5.178v-28.595h-5.177v12.585h-5.494v-12.585h-4.806v28.058h4.806v-10.828h5.494zm-21.664-31.106h26.576v-16.698h-5.178v12.43h-21.398zm-11.254 23.317v4.374h6.83v4.906h5.228v-4.906h7.045v-4.374h-7.096v-.106c0-1.536.156-2.937.477-4.218.322-1.28.799-2.47 1.442-3.576a16.03 16.03 0 0 1 2.56-3.143c1.03-1 2.276-2.014 3.732-3.044l-2.611-3.204c-.678.392-1.401.884-2.16 1.472a26.253 26.253 0 0 0-2.214 1.893 21.023 21.023 0 0 0-2.11 2.32c-.622.799-1.11 1.537-1.466 2.215-.321-.678-.768-1.421-1.336-2.24a22.819 22.819 0 0 0-1.918-2.4 22.704 22.704 0 0 0-2.511-2.456c-.889-.748-1.738-1.371-2.556-1.868l-3.31 2.827a29.133 29.133 0 0 1 3.922 3.31 19.716 19.716 0 0 1 2.908 3.73 15.48 15.48 0 0 1 1.547 3.817c.351 1.371.532 2.853.532 4.455v.216zM763.668 220.072h5.122v-34.837h-5.122v13.178h-7.523v4.424h7.523v6.935h-7.573v4.435h7.573zm-15.633-32.707V177.07h21.875v-4.43h-27.048v14.725zm-.186 24.547c-1.266 1.421-2.838 2.13-4.72 2.13-1.849 0-3.416-.709-4.696-2.13-1.281-1.426-1.924-3.19-1.924-5.283 0-2.064.643-3.817 1.924-5.258 1.28-1.442 2.847-2.16 4.695-2.16 1.883 0 3.455.719 4.72 2.16 1.266 1.441 1.894 3.194 1.894 5.258 0 2.094-.628 3.857-1.893 5.283m-13.072 3.249c2.33 2.35 5.117 3.525 8.351 3.525 3.27 0 6.062-1.175 8.377-3.525 2.315-2.345 3.47-5.193 3.47-8.532 0-3.345-1.155-6.192-3.47-8.538-2.315-2.35-5.108-3.52-8.377-3.52-3.234 0-6.021 1.17-8.351 3.52-2.33 2.346-3.496 5.193-3.496 8.538 0 3.34 1.165 6.187 3.496 8.532M806.972 205.926c.392 3.184.553 5.63.483 7.337h-21.183v4.48h26.626c.066-2.632-.135-5.931-.617-9.898-.477-3.963-1.04-7.353-1.678-10.165h10.19v-4.319h-18.195v-15.256h-5.494v15.256h-18.516v4.32h26.998c.533 2.314.995 5.061 1.386 8.245M849.769 188.102v4.058h10.029v27.846h5.122v-36.173h-5.122v4.269zm-6.348-3.254v-7.79h21.82v-4.429h-26.998v12.219zm1.868 20.62c1.206 1.19 1.808 2.621 1.808 4.293 0 1.673-.602 3.109-1.808 4.3-1.215 1.19-2.651 1.782-4.324 1.782-1.637 0-3.068-.593-4.293-1.783-1.226-1.19-1.843-2.626-1.843-4.299 0-1.672.617-3.103 1.843-4.293 1.225-1.19 2.656-1.783 4.293-1.783 1.673 0 3.109.592 4.324 1.783m3.651 11.5c2.19-1.994 3.28-4.41 3.28-7.257 0-2.807-1.09-5.223-3.28-7.231-2.184-2.01-4.846-3.014-7.975-3.014-3.128 0-5.78 1.005-7.95 3.014-2.169 2.008-3.254 4.424-3.254 7.231 0 2.848 1.085 5.263 3.255 7.257 2.17 1.989 4.82 2.988 7.95 2.988 3.128 0 5.79-1 7.974-2.988m-12.193-23.05-10.717-.056v4.113h8.854c3.59 0 7.628.13 12.108.397 4.484.266 7.97.542 10.46.828v-4.002c-1.461-.211-3.47-.417-6.031-.613a318.865 318.865 0 0 0-7.95-.507v-6.724h-5.283v6.563zM444.85 147.546v18.114h2.219v-9.014l8.447 9.014h2.897l-7.055-7.291 7.296-10.823h-2.802l-6.011 9.175-2.772-2.822v-6.353zM465.525 159.025c-1.064 0-1.958-.432-2.681-1.28-.723-.854-1.085-2.075-1.085-3.662 0-1.587.362-2.812 1.085-3.67.723-.864 1.617-1.296 2.681-1.296 1.025 0 1.904.432 2.627 1.295.723.859 1.085 2.084 1.085 3.671 0 1.587-.362 2.808-1.085 3.661-.723.849-1.602 1.28-2.627 1.28m0-11.816c-1.903 0-3.35.668-4.354 1.999-1.004 1.336-1.501 2.958-1.501 4.876 0 1.934.497 3.56 1.501 4.877 1.005 1.315 2.451 1.973 4.354 1.973 1.899 0 3.35-.658 4.354-1.973 1-1.316 1.502-2.943 1.502-4.877 0-1.918-.502-3.54-1.502-4.876-1.004-1.33-2.455-1.999-4.354-1.999M473.87 147.54v13.147h1.858v-2.772h.05c.492 1.034 1.08 1.802 1.778 2.315.698.512 1.587.753 2.667.718v-2.245c-1.602 0-2.737-.472-3.4-1.416-.658-.94-.99-2.24-.99-3.892v-5.856zM486.724 159.025c-1.01 0-1.813-.362-2.406-1.085-.593-.723-.929-1.602-1.02-2.626h6.956c-.07 1.044-.427 1.928-1.075 2.641-.643.713-1.461 1.07-2.455 1.07m.336-9.908c.824 0 1.502.216 2.044.642.537.422.894 1.06 1.07 1.894h1.958c-.276-1.432-.864-2.526-1.763-3.295-.898-.763-2.018-1.15-3.36-1.15-1.933 0-3.369.653-4.313 1.964-.94 1.306-1.436 2.958-1.492 4.962 0 1.953.533 3.575 1.597 4.866 1.065 1.285 2.416 1.933 4.053 1.933 2.144 0 3.606-.854 4.39-2.55.783-1.698 1.15-3.35 1.1-4.953h-9.045c-.016-1.134.276-2.134.873-3.003.603-.873 1.567-1.31 2.888-1.31M498.408 149.118c1.286 0 2.215.347 2.782 1.045.568.698.849 1.34.849 1.933v2.225c-.367-.312-.884-.507-1.552-.588-.673-.08-1.34-.18-2.004-.301a4.376 4.376 0 0 1-1.697-.693c-.487-.342-.733-.904-.733-1.687 0-.693.24-1.196.718-1.492.482-.296 1.024-.442 1.637-.442m6.247 0a1.505 1.505 0 0 1 .628.13v-1.677a2.062 2.062 0 0 0-.603-.27 3.19 3.19 0 0 0-.813-.091c-.522 0-.93.165-1.225.497-.297.331-.447.844-.447 1.542-.553-.698-1.196-1.21-1.919-1.542a5.543 5.543 0 0 0-2.34-.497c-1.095 0-2.034.286-2.807.864-.779.572-1.165 1.511-1.165 2.822 0 1.496.421 2.49 1.265 2.978.849.487 1.773.844 2.787 1.075 1.095.205 2.05.376 2.863.507.808.13 1.21.607 1.21 1.421 0 .944-.286 1.537-.859 1.778a4.611 4.611 0 0 1-1.828.371c-.858 0-1.556-.165-2.104-.497-.552-.331-.854-.99-.904-1.963h-1.958c.05 1.607.577 2.732 1.577 3.384 1.004.653 2.17.985 3.49.985 1.1 0 2.134-.211 3.103-.628.965-.422 1.447-1.406 1.447-2.953v-6.744c0-.508.025-.884.08-1.125.05-.246.226-.367.522-.367M507.606 147.524v13.148h1.883v-2.095h.025c.437.824.984 1.417 1.647 1.793.663.372 1.421.563 2.275.563 1.582 0 2.672-.447 3.27-1.351.587-.894.883-2.04.883-3.435v-8.623h-1.983v8.889c0 .778-.216 1.411-.643 1.888-.427.482-1.025.723-1.788.723-1.22 0-2.124-.391-2.707-1.165-.582-.773-.874-1.747-.874-2.912v-7.423zM547.94 165.663l-4.444-18.114h-2.3l-3.816 15.211h-.076l-3.816-15.211h-2.3l-4.289 18.114h2.25l3.264-15.056h.08l3.686 15.056h2.431l3.686-15.056h.025l3.4 15.056zM555.26 159.025c-1.064 0-1.958-.432-2.681-1.28-.724-.854-1.085-2.075-1.085-3.662 0-1.587.361-2.812 1.085-3.67.723-.864 1.617-1.296 2.681-1.296 1.03 0 1.904.432 2.627 1.295.723.859 1.085 2.084 1.085 3.671 0 1.587-.362 2.808-1.085 3.661-.723.849-1.597 1.28-2.627 1.28m0-11.816c-1.898 0-3.35.668-4.354 1.999-1 1.336-1.501 2.958-1.501 4.876 0 1.934.502 3.56 1.501 4.877 1.005 1.315 2.456 1.973 4.354 1.973 1.899 0 3.35-.658 4.354-1.973 1-1.316 1.502-2.943 1.502-4.877 0-1.918-.502-3.54-1.502-4.876-1.004-1.33-2.455-1.999-4.354-1.999M563.674 147.524v13.148h1.878v-1.939h.03c.452.733 1.01 1.286 1.672 1.652a4.563 4.563 0 0 0 2.225.548 4.29 4.29 0 0 0 2.034-.497c.627-.332 1.054-.9 1.28-1.703.402.683.95 1.22 1.637 1.612a4.344 4.344 0 0 0 2.18.588c1.205 0 2.164-.302 2.893-.89.718-.592 1.084-1.566 1.084-2.927v-9.592H578.6v8.623c0 .823-.146 1.506-.432 2.054-.286.547-.924.823-1.924.823-.939 0-1.692-.3-2.26-.888-.567-.593-.848-1.407-.848-2.436v-8.176h-2.014v8.623c0 .854-.15 1.547-.457 2.079-.306.532-.894.798-1.763.798-1.165 0-1.998-.426-2.496-1.28-.497-.854-.743-1.537-.743-2.044v-8.176zM588.771 159.025c-1.014 0-1.813-.362-2.405-1.085-.593-.723-.934-1.602-1.02-2.626h6.956c-.076 1.044-.432 1.928-1.075 2.641-.648.713-1.467 1.07-2.456 1.07m.337-9.908c.818 0 1.501.216 2.044.642.537.422.893 1.06 1.07 1.894h1.958c-.281-1.432-.864-2.526-1.763-3.295-.899-.763-2.019-1.15-3.36-1.15-1.933 0-3.37.653-4.313 1.964-.94 1.306-1.437 2.958-1.492 4.962 0 1.953.532 3.575 1.597 4.866 1.065 1.285 2.41 1.933 4.053 1.933 2.144 0 3.605-.854 4.389-2.55.783-1.698 1.15-3.35 1.1-4.953h-9.045c-.02-1.134.271-2.134.874-3.003.603-.873 1.567-1.31 2.888-1.31M596.662 147.524v13.148h1.883v-2.095h.025c.432.824.984 1.417 1.647 1.793.658.372 1.416.563 2.275.563 1.587 0 2.672-.447 3.264-1.351.593-.894.89-2.04.89-3.435v-8.623h-1.985v8.889c0 .778-.215 1.411-.642 1.888-.427.482-1.025.723-1.793.723-1.215 0-2.12-.391-2.702-1.165-.582-.773-.874-1.747-.874-2.912v-7.423zM610.795 165.66h1.592v-6.563h-1.592zM620.766 147.21c-1.34 0-2.51.332-3.505 1.005-.994.668-1.522 1.813-1.592 3.41h1.959c.055-.94.411-1.592 1.074-1.959a4.488 4.488 0 0 1 2.195-.547c.608 0 1.245.12 1.908.366.663.241.995.774.995 1.592 0 .839-.407 1.391-1.22 1.662-.81.267-1.718.518-2.728.744-.974.26-1.873.632-2.691 1.125-.819.487-1.23 1.35-1.23 2.586 0 1.32.486 2.28 1.466 2.862.974.583 1.973.874 3.003.874 1.34 0 2.48-.281 3.425-.849.939-.567 1.446-1.642 1.516-3.224h-1.958c-.076.834-.392 1.402-.96 1.708a3.802 3.802 0 0 1-1.842.462c-.593 0-1.16-.11-1.713-.332-.547-.216-.824-.657-.824-1.315 0-.769.427-1.28 1.286-1.532.854-.251 1.733-.502 2.637-.743a10.198 10.198 0 0 0 2.721-1.095c.819-.492 1.226-1.371 1.226-2.647 0-1.566-.548-2.651-1.647-3.249a7.158 7.158 0 0 0-3.5-.904M638.171 163.622v-14.036h3.686c.769 0 1.889.352 3.375 1.055 1.482.708 2.22 2.737 2.22 6.081 0 2.145-.417 3.827-1.256 5.057-.833 1.23-2.265 1.843-4.283 1.843zm-2.22-16.075v18.114h5.726c2.56 0 4.534-.708 5.915-2.119 1.387-1.411 2.08-3.57 2.08-6.478 0-3.054-.638-5.399-1.919-7.046-1.28-1.647-3.31-2.47-6.076-2.47zM657.148 159.025c-1.01 0-1.813-.362-2.4-1.085-.598-.723-.94-1.602-1.025-2.626h6.956c-.07 1.044-.427 1.928-1.075 2.641-.643.713-1.461 1.07-2.456 1.07m.342-9.908c.818 0 1.496.216 2.039.642.542.422.893 1.06 1.07 1.894h1.963c-.281-1.432-.869-2.526-1.768-3.295-.899-.763-2.014-1.15-3.355-1.15-1.938 0-3.374.653-4.313 1.964-.944 1.306-1.437 2.958-1.492 4.962 0 1.953.532 3.575 1.597 4.866 1.06 1.285 2.41 1.933 4.048 1.933 2.144 0 3.61-.854 4.389-2.55.788-1.698 1.15-3.35 1.1-4.953h-9.045c-.02-1.134.276-2.134.88-3.003.597-.873 1.56-1.31 2.887-1.31M674.87 160.692l-4.39-13.147h-2.144l-4.495 13.147h2.22l3.4-10.953h.055l3.29 10.953zM681.772 159.025c-1.014 0-1.813-.362-2.405-1.085-.593-.723-.934-1.602-1.02-2.626h6.956c-.07 1.044-.427 1.928-1.075 2.641-.643.713-1.461 1.07-2.456 1.07m.337-9.908c.818 0 1.501.216 2.039.642.542.422.899 1.06 1.074 1.894h1.959c-.276-1.432-.864-2.526-1.763-3.295-.899-.763-2.019-1.15-3.36-1.15-1.933 0-3.37.653-4.313 1.964-.94 1.306-1.437 2.958-1.487 4.962 0 1.953.527 3.575 1.592 4.866 1.065 1.285 2.416 1.933 4.053 1.933 2.144 0 3.606-.854 4.389-2.55.788-1.698 1.15-3.35 1.1-4.953h-9.045c-.015-1.134.276-2.134.874-3.003.603-.873 1.567-1.31 2.888-1.31M689.8 165.66h1.983v-18.114H689.8zM700.146 159.025c-1.06 0-1.954-.432-2.677-1.28-.728-.854-1.084-2.075-1.084-3.662 0-1.587.356-2.812 1.084-3.67.723-.864 1.617-1.296 2.677-1.296 1.03 0 1.903.432 2.626 1.295.724.859 1.085 2.084 1.085 3.671 0 1.587-.361 2.808-1.085 3.661-.723.849-1.597 1.28-2.626 1.28m0-11.816c-1.898 0-3.35.668-4.349 1.999-1.004 1.336-1.502 2.958-1.502 4.876 0 1.934.498 3.56 1.502 4.877 1 1.315 2.45 1.973 4.349 1.973 1.898 0 3.35-.658 4.354-1.973 1-1.316 1.502-2.943 1.502-4.877 0-1.918-.503-3.54-1.502-4.876-1.004-1.33-2.456-1.999-4.354-1.999M714.302 149.118c1.396 0 2.355.522 2.887 1.567.533 1.05.799 2.225.799 3.53 0 1.236-.311 2.346-.93 3.33-.617.99-1.571 1.481-2.862 1.481-1.305 0-2.244-.512-2.807-1.526-.567-1.025-.854-2.155-.854-3.39 0-1.29.302-2.446.89-3.465.592-1.015 1.551-1.527 2.877-1.527m-5.67-6.584v18.135h1.984v-1.803h.055c.326.733.844 1.26 1.537 1.582.698.326 1.476.487 2.33.487 1.848 0 3.229-.683 4.143-2.044.914-1.356 1.37-2.968 1.37-4.836 0-1.843-.451-3.45-1.355-4.806-.909-1.361-2.28-2.04-4.103-2.04-.648 0-1.35.151-2.11.458-.757.306-1.36.838-1.812 1.607h-.055v-6.74zM722.625 147.524v13.148h1.878v-1.939h.03c.452.733 1.01 1.286 1.672 1.652a4.557 4.557 0 0 0 2.22.548c.733 0 1.411-.166 2.039-.497.628-.332 1.054-.9 1.28-1.703.402.683.95 1.22 1.638 1.612a4.344 4.344 0 0 0 2.18.588c1.204 0 2.164-.302 2.887-.89.723-.592 1.09-1.566 1.09-2.927v-9.592h-1.99v8.623c0 .823-.145 1.506-.431 2.054-.286.547-.93.823-1.924.823-.939 0-1.692-.3-2.26-.888-.567-.593-.848-1.407-.848-2.436v-8.176h-2.014v8.623c0 .854-.15 1.547-.457 2.079-.306.532-.894.798-1.763.798-1.17 0-2.003-.426-2.495-1.28-.498-.854-.749-1.537-.749-2.044v-8.176zM747.72 159.025c-1.01 0-1.814-.362-2.406-1.085-.593-.723-.93-1.602-1.02-2.626h6.956c-.07 1.044-.427 1.928-1.075 2.641-.643.713-1.461 1.07-2.456 1.07m.337-9.908c.823 0 1.501.216 2.044.642.537.422.893 1.06 1.07 1.894h1.963c-.281-1.432-.869-2.526-1.768-3.295-.899-.763-2.014-1.15-3.355-1.15-1.938 0-3.374.653-4.318 1.964-.94 1.306-1.437 2.958-1.487 4.962 0 1.953.527 3.575 1.592 4.866 1.065 1.285 2.416 1.933 4.053 1.933 2.144 0 3.606-.854 4.389-2.55.788-1.698 1.15-3.35 1.1-4.953h-9.045c-.015-1.134.276-2.134.88-3.003.597-.873 1.56-1.31 2.882-1.31M755.613 147.524v13.148h1.883v-2.095h.025c.432.824.984 1.417 1.642 1.793.663.372 1.421.563 2.275.563 1.587 0 2.677-.447 3.27-1.351.592-.894.888-2.04.888-3.435v-8.623h-1.988v8.889c0 .778-.211 1.411-.638 1.888-.427.482-1.025.723-1.793.723-1.22 0-2.12-.391-2.702-1.165-.582-.773-.874-1.747-.874-2.912v-7.423zM771.534 164.564v-3.892h2.406v-1.908h-2.406v-8.156c0-.487.096-.808.286-.954.196-.15.593-.221 1.2-.221h.92v-1.908h-1.492c-1.03 0-1.768.17-2.22.517-.457.351-.682 1.135-.682 2.355v8.367h-2.065v1.908h2.065v3.892zM783.991 165.66h2.22v-18.114h-2.22zM789.724 147.524v13.148h1.878v-2.095h.03c.432.824.985 1.417 1.643 1.793.662.372 1.42.563 2.275.563 1.586 0 2.676-.447 3.264-1.351.597-.894.894-2.04.894-3.435v-8.623h-1.989v8.889c0 .778-.216 1.411-.638 1.888-.427.482-1.024.723-1.793.723-1.22 0-2.119-.391-2.706-1.165-.583-.773-.874-1.747-.874-2.912v-7.423zM807.24 147.21c-1.341 0-2.511.332-3.5 1.005-.995.668-1.527 1.813-1.598 3.41h1.959c.055-.94.412-1.592 1.075-1.959a4.502 4.502 0 0 1 2.194-.547c.608 0 1.246.12 1.908.366.663.241.995.774.995 1.592 0 .839-.407 1.391-1.22 1.662-.809.267-1.713.518-2.727.744-.98.26-1.874.632-2.692 1.125-.819.487-1.23 1.35-1.23 2.586 0 1.32.487 2.28 1.466 2.862.974.583 1.973.874 3.003.874 1.34 0 2.48-.281 3.425-.849.94-.567 1.446-1.642 1.517-3.224h-1.964c-.07.834-.387 1.402-.95 1.708a3.83 3.83 0 0 1-1.842.462c-.593 0-1.165-.11-1.718-.332-.542-.216-.818-.657-.818-1.315 0-.769.422-1.28 1.28-1.532.854-.251 1.733-.502 2.637-.743a10.032 10.032 0 0 0 2.717-1.095c.823-.492 1.23-1.371 1.23-2.647 0-1.566-.542-2.651-1.647-3.249a7.144 7.144 0 0 0-3.5-.904M817.514 164.564v-3.892h2.405v-1.908h-2.405v-8.156c0-.487.095-.808.286-.954.191-.15.593-.221 1.2-.221h.92v-1.908h-1.492c-1.03 0-1.768.17-2.22.517-.457.351-.683 1.135-.683 2.355v8.367h-2.069v1.908h2.07v3.892zM822.374 160.699h1.988v-13.153h-1.988zm1.988 2.35h-1.988v2.611h1.988zM830.267 164.564v-3.892h2.406v-1.908h-2.406v-8.156c0-.487.1-.808.291-.954.186-.15.588-.221 1.2-.221h.915v-1.908h-1.492c-1.024 0-1.768.17-2.22.517-.452.351-.678 1.135-.678 2.355v8.367h-2.064v1.908h2.064v3.892zM844.98 160.692v-13.147h-1.883v2.089h-.025c-.417-.819-.96-1.421-1.623-1.818-.657-.392-1.426-.588-2.3-.588-1.586 0-2.676.452-3.264 1.351-.592.894-.889 2.05-.889 3.46v8.653h1.984v-8.909c0-.808.226-1.451.668-1.928.442-.477 1.04-.718 1.788-.718 1.205 0 2.099.391 2.681 1.18.583.783.874 1.768.874 2.953v7.422zM850.919 164.564v-3.892h2.405v-1.908h-2.405v-8.156c0-.487.095-.808.286-.954.19-.15.593-.221 1.2-.221h.92v-1.908h-1.492c-1.025 0-1.768.17-2.225.517-.447.351-.678 1.135-.678 2.355v8.367h-2.064v1.908h2.064v3.892zM860.51 159.025c-1.015 0-1.814-.362-2.406-1.085-.593-.723-.93-1.602-1.02-2.626h6.956c-.07 1.044-.427 1.928-1.075 2.641-.643.713-1.461 1.07-2.456 1.07m.337-9.908c.818 0 1.501.216 2.044.642.537.422.894 1.06 1.07 1.894h1.958c-.276-1.432-.869-2.526-1.763-3.295-.899-.763-2.014-1.15-3.36-1.15-1.933 0-3.37.653-4.313 1.964-.94 1.306-1.437 2.958-1.487 4.962 0 1.953.527 3.575 1.592 4.866 1.065 1.285 2.416 1.933 4.053 1.933 2.144 0 3.606-.854 4.389-2.55.788-1.698 1.15-3.35 1.1-4.953h-9.045c-.015-1.134.276-2.134.874-3.003.603-.873 1.567-1.31 2.888-1.31" style="fill:#000;fill-opacity:1;fill-rule:nonzero;stroke:none;stroke-width:5.02193" transform="matrix(1.90899 0 0 -1.90899 -380.296 462.75)"/><path d="M639.643 534.1c-4.498-.445-9.496-2.047-14.778-4.612a76.277 76.277 0 0 1-5.81-3.155c-15.604 1.192-33.892-4.613-49.116-16.543-25.635-20.095-35.12-51.837-23.925-75.075-4.902 2.408-9.346 5.702-13.11 9.906-18.644 20.872-9.894 59.882 15.206 82.579-2.012-.994-4.011-2.03-5.998-3.156-23.335-13.224-39.414-32.922-45.014-52.306-3.577-12.4-2.879-24.654 2.98-35.012a43.843 43.843 0 0 1 1.82-2.879c16.463-23.919 57.864-26.803 94.688-5.937 1.614.915 3.18 1.873 4.722 2.842 14.073 8.889 25.171 20.144 32.494 32.103-10.231-28.381-31.121-47.555-40.775-54.252 14.525.476 29.948 5.914 43.34 16.41 25.527 20.011 35.036 51.566 24.07 74.78 2.288 12.804.29 24.63-5.673 30.002-3.245 2.92-7.533 4.438-12.52 4.438-.848 0-1.715-.042-2.6-.132m-5.523-12.544c-3.197 2.168-6.407 3.258-8.539 3.8-.27.084-.524.15-.795.205-.12.018-.229.03-.35.054-.336.072-.62.114-.836.157-.723.126-1.44.222-2.168.313a63.231 63.231 0 0 0 4.872 2.433c8.671 3.854 15.79 4.239 19.83.24 1.83-1.8 2.884-4.384 3.264-7.563.566-3.487 1.192-14.645-4.48-28.616 1.776 16.373-4.505 24.738-10.798 28.977" style="fill:url(#b);stroke:none;stroke-width:6.02195" transform="matrix(2.02056 0 0 -2.02056 -875.9 566.84)"/><path d="M700.393 495.619c-4.6-15.157-23.636-66.639-73.75-81.97 54.883-1.025 108.593 45.477 131.567 98.295z" style="fill:#a6a6a6;fill-opacity:1;fill-rule:nonzero;stroke:none;stroke-width:6.02195" transform="matrix(2.02056 0 0 -2.02056 -875.9 566.84)"/><path d="M494.383 376.844v-2.86h-4.324v-10.478h-3.264v22.22h3.264v-8.882zm-17.452-12.013v-6.534h13.604v-2.825h-16.91v9.359zm1 13.212c-.801.855-1.734 1.282-2.77 1.282-1.042 0-1.975-.427-2.776-1.282-.807-.843-1.205-1.831-1.205-2.975 0-1.108.398-2.084 1.205-2.92.8-.844 1.734-1.26 2.776-1.26 1.036 0 1.969.416 2.77 1.26.8.836 1.21 1.812 1.21 2.92 0 1.144-.41 2.132-1.21 2.975m6.046 5.058v-2.722h-4.703a7.669 7.669 0 0 0 2.192-2.336c.578-.94.873-1.975.873-3.102 0-1.909-.705-3.54-2.096-4.907-1.397-1.361-3.089-2.036-5.082-2.036-1.993 0-3.692.675-5.07 2.036-1.386 1.366-2.078 2.998-2.078 4.907 0 1.127.295 2.162.873 3.102a8.153 8.153 0 0 0 2.12 2.336h-4.728v2.722h7.149v3.433h3.57V383.1zM515.436 377.574c.211 1.764.301 3.185.26 4.245h-13.55v2.86h17.018c.042-1.662-.06-3.595-.313-5.81-.253-2.229-.566-4.108-.952-5.655h6.703v-2.722h-12.008v-4.962h6.805v-10.587h-3.306v7.829h-14.254v2.758h7.244v4.962H496.98v2.722h17.62c.343 1.138.62 2.583.837 4.36M544.91 378.997v2.89h4.15v3.776h3.294v-25.985h-3.294v11.297h-4.15v2.86h4.15v5.162zm-4.847 1.011c-.855.958-1.915 1.446-3.186 1.446-1.27 0-2.33-.488-3.173-1.446-.855-.963-1.283-2.15-1.283-3.559 0-1.379.428-2.565 1.283-3.535.843-.975 1.903-1.469 3.173-1.469 1.271 0 2.33.494 3.186 1.47.85.969 1.27 2.155 1.27 3.534 0 1.41-.42 2.596-1.27 3.56m-8.66 2.07c1.524 1.554 3.349 2.325 5.474 2.325 2.15 0 3.999-.77 5.517-2.324 1.517-1.554 2.276-3.433 2.276-5.63 0-2.199-.759-4.078-2.276-5.625-1.518-1.554-3.367-2.33-5.517-2.33-2.125 0-3.95.776-5.474 2.33-1.523 1.547-2.276 3.426-2.276 5.624 0 2.198.753 4.077 2.276 5.63M579.672 385.712h3.264v-18.571h-3.264v10.267h-5.75v2.824h5.75zm-1.872-27.918c.794.783 1.192 1.735 1.192 2.843 0 1.132-.385 2.095-1.138 2.866-.765.79-1.704 1.18-2.843 1.18-1.108 0-2.06-.39-2.86-1.18-.789-.77-1.186-1.734-1.186-2.866 0-1.108.379-2.06 1.138-2.843.759-.782 1.692-1.168 2.812-1.168 1.126 0 2.096.386 2.885 1.168m2.348-1.993c-1.403-1.33-3.113-2-5.137-2-1.993 0-3.703.67-5.118 2-1.415 1.343-2.132 2.951-2.132 4.836 0 1.903.717 3.529 2.132 4.872 1.415 1.33 3.125 1.999 5.118 1.999 2.024 0 3.734-.669 5.137-2 1.41-1.342 2.108-2.968 2.108-4.871 0-1.885-.699-3.493-2.108-4.836m-6.118 13.748c-.638.32-1.277.71-1.915 1.18-.632.458-1.235.964-1.8 1.506a17.45 17.45 0 0 0-1.53 1.777c-.458.608-.813 1.21-1.09 1.794-.271-.632-.657-1.289-1.156-1.969a14.887 14.887 0 0 0-1.735-1.97 17.256 17.256 0 0 0-2.023-1.74 19.613 19.613 0 0 0-2.126-1.36l-2.114 2.15a25.153 25.153 0 0 1 3.252 2.372 12.547 12.547 0 0 1 2.403 2.824c.56.91.994 1.91 1.289 2.981.289 1.078.445 2.276.445 3.59v2.348h3.541v-2.59c0-1.222.127-2.366.398-3.432a9.846 9.846 0 0 1 1.27-2.933c.542-.88 1.223-1.68 2.036-2.39a14.341 14.341 0 0 1 2.788-1.891zM610.282 385.712h3.27v-18.511h-3.27v8.75h-6.016v2.824h6.016zm-1.873-27.918c.801.783 1.199 1.735 1.199 2.843 0 1.132-.386 2.095-1.145 2.866-.758.79-1.71 1.18-2.836 1.18-1.114 0-2.066-.39-2.86-1.18-.795-.77-1.187-1.734-1.187-2.866 0-1.108.374-2.06 1.138-2.843.753-.782 1.693-1.168 2.8-1.168 1.139 0 2.108.386 2.891 1.168m2.355-1.993c-1.41-1.33-3.114-2-5.137-2-1.993 0-3.71.67-5.119 2-1.42 1.343-2.131 2.951-2.131 4.836 0 1.903.71 3.529 2.131 4.872 1.41 1.33 3.126 1.999 5.119 1.999 2.023 0 3.728-.669 5.137-2 1.397-1.342 2.107-2.968 2.107-4.871 0-1.885-.71-3.493-2.107-4.836m-20.108 25.792v2.752h14.393v-2.752h-5.444v-1.288c0-1.048.175-2.012.524-2.897a8.33 8.33 0 0 1 1.487-2.409 11.54 11.54 0 0 1 2.12-1.909 18.754 18.754 0 0 1 2.608-1.53l-1.74-2.282c-.615.271-1.235.603-1.886 1-.644.403-1.282.85-1.89 1.349-.567.5-1.109 1.018-1.614 1.56a8.705 8.705 0 0 0-1.247 1.668c-.247-.542-.596-1.102-1.036-1.68a14.103 14.103 0 0 0-1.481-1.644 19.183 19.183 0 0 0-1.951-1.663 19.985 19.985 0 0 0-2.024-1.306l-2.143 2.18a15.026 15.026 0 0 1 2.601 1.716c.85.692 1.59 1.481 2.222 2.36.596.801 1.066 1.65 1.415 2.554.35.91.53 1.86.53 2.86v1.361zM641.532 385.63h3.306v-18.24h-3.306v8.033h-3.498v-8.033h-3.066v17.891h3.066v-6.895h3.498zm-13.808-19.842h16.946v-10.64h-3.3v7.924h-13.646zm-7.172 14.868v2.794h4.348v3.126h3.33v-3.126h4.492v-2.794H628.2v-.066c0-.976.102-1.867.307-2.686a8.721 8.721 0 0 1 .921-2.282 9.818 9.818 0 0 1 1.632-2.005c.65-.639 1.451-1.283 2.379-1.94l-1.668-2.04c-.428.246-.886.56-1.38.932-.487.38-.957.783-1.408 1.205-.5.482-.946.975-1.343 1.481-.398.512-.71.982-.94 1.415a9.402 9.402 0 0 0-.843-1.427 14.534 14.534 0 0 0-1.228-1.53c-.5-.571-1.03-1.09-1.596-1.565-.572-.476-1.12-.88-1.638-1.198l-2.102 1.812a17.973 17.973 0 0 1 2.493 2.108c.741.747 1.355 1.541 1.855 2.379a9.96 9.96 0 0 1 .988 2.432c.229.874.343 1.819.343 2.843v.132zM671.501 385.712h3.27v-22.215h-3.27v8.4h-4.8v2.831h4.8v4.414h-4.83v2.83h4.83zm-9.96-20.854v-6.57h13.947v-2.818h-17.253v9.388zm-.12 15.645c-.814.91-1.813 1.361-3.012 1.361-1.186 0-2.18-.451-2.999-1.36-.812-.91-1.222-2.024-1.222-3.367 0-1.319.41-2.433 1.222-3.348.82-.922 1.813-1.38 3-1.38 1.198 0 2.197.458 3.01 1.38.801.915 1.199 2.03 1.199 3.348 0 1.343-.398 2.457-1.199 3.366m-8.34 2.078c1.481 1.5 3.258 2.252 5.33 2.252 2.083 0 3.865-.753 5.34-2.252 1.47-1.5 2.21-3.312 2.21-5.444 0-2.126-.74-3.95-2.21-5.444-1.475-1.493-3.257-2.246-5.34-2.246-2.072 0-3.849.753-5.33 2.246-1.481 1.494-2.228 3.318-2.228 5.444 0 2.132.747 3.944 2.228 5.444M699.117 376.691c.247 2.03.356 3.59.307 4.68h-13.5v2.86h16.969c.048-1.68-.084-3.788-.391-6.317-.302-2.53-.663-4.685-1.066-6.48h6.491v-2.752H696.33v-9.725h-3.505v9.725h-11.809v2.752h17.223c.337 1.476.632 3.222.88 5.257M726.404 365.33v2.583h6.402v17.753h3.264v-23.064h-3.264v2.728zm-4.046-2.084v-4.962h13.916v-2.824h-17.222v7.786zm1.186 13.152c.77.765 1.156 1.674 1.156 2.74 0 1.072-.385 1.975-1.156 2.74-.77.759-1.686 1.144-2.752 1.144-1.042 0-1.957-.385-2.74-1.144-.777-.765-1.174-1.668-1.174-2.74 0-1.066.397-1.975 1.174-2.74.783-.759 1.698-1.144 2.74-1.144 1.066 0 1.981.385 2.752 1.144m2.33 7.329c1.404-1.265 2.096-2.806 2.096-4.625 0-1.789-.692-3.33-2.095-4.613-1.392-1.277-3.09-1.915-5.083-1.915-2 0-3.685.638-5.064 1.915-1.392 1.283-2.078 2.824-2.078 4.613 0 1.819.686 3.36 2.078 4.625 1.379 1.276 3.065 1.909 5.064 1.909 1.993 0 3.691-.633 5.083-1.91m-7.775-14.693-6.835-.036v2.626h5.649c2.294 0 4.866.084 7.72.253 2.86.168 5.083.349 6.666.524v-2.548c-.927-.132-2.21-.265-3.836-.391-1.638-.133-3.33-.241-5.07-.32v-4.293h-3.372v4.185zM468.213 339.466v11.55h1.41v-5.75l5.39 5.75h1.848l-4.499-4.649 4.65-6.9h-1.783l-3.836 5.852-1.77-1.806v-4.047zM481.398 346.782c-.68 0-1.247-.271-1.71-.813-.464-.554-.687-1.32-.687-2.33 0-1.013.223-1.795.687-2.35.463-.547 1.03-.824 1.71-.824.65 0 1.21.277 1.668.825.464.554.698 1.336.698 2.348 0 1.012-.234 1.777-.698 2.33-.458.543-1.018.814-1.668.814m0-7.528c-1.21 0-2.138.422-2.776 1.27-.639.85-.964 1.886-.964 3.114 0 1.229.325 2.27.964 3.101.638.843 1.565 1.259 2.776 1.259 1.21 0 2.132-.416 2.776-1.259.632-.83.951-1.872.951-3.1 0-1.23-.319-2.265-.951-3.114-.644-.85-1.566-1.27-2.776-1.27M486.714 339.466v8.377h1.186v-1.765h.036c.307.657.68 1.144 1.132 1.482.446.319 1.012.475 1.705.451v-1.433c-1.024 0-1.753-.301-2.18-.903-.416-.596-.627-1.421-.627-2.481v-3.728zM494.912 346.782c-.65 0-1.15-.223-1.53-.687-.379-.464-.602-1.018-.656-1.68h4.432c-.042.668-.27 1.228-.68 1.686-.416.458-.933.68-1.566.68m.211-6.316c.53 0 .964.144 1.307.415.343.265.572.668.68 1.204h1.247c-.175-.915-.548-1.607-1.114-2.101-.578-.488-1.295-.729-2.144-.729-1.235 0-2.15.41-2.752 1.247-.596.837-.915 1.89-.952 3.161 0 1.247.344 2.282 1.018 3.108.675.825 1.536 1.228 2.584 1.228 1.36 0 2.3-.542 2.794-1.626.506-1.078.734-2.132.71-3.155h-5.775c-.012-.723.175-1.361.56-1.915.38-.554.994-.837 1.837-.837M502.357 340.466c.825 0 1.421.223 1.777.668.36.452.542.855.542 1.235v1.415c-.23-.199-.56-.331-.988-.38a17.447 17.447 0 0 1-1.27-.186 2.885 2.885 0 0 1-1.09-.44c-.314-.217-.464-.572-.464-1.078 0-.445.15-.765.457-.951.308-.187.65-.283 1.036-.283m3.987 0c.06 0 .12.012.186.024.06.006.139.024.211.06v-1.066a.95.95 0 0 0-.38-.168 1.676 1.676 0 0 0-.517-.06c-.337 0-.596.096-.783.312-.187.217-.283.536-.283.982a3.37 3.37 0 0 0-1.222-.982 3.48 3.48 0 0 0-1.494-.313c-.698 0-1.3.175-1.788.548-.5.368-.747.964-.747 1.8 0 .958.265 1.585.807 1.898a6.077 6.077 0 0 0 1.776.68c.705.133 1.307.247 1.825.331.518.085.777.386.777.904 0 .602-.18.975-.548 1.138a2.98 2.98 0 0 1-1.175.229c-.535 0-.987-.109-1.336-.32-.35-.21-.542-.62-.579-1.246h-1.246c.036 1.024.367 1.74 1.012 2.156.632.421 1.379.626 2.222.626a4.85 4.85 0 0 0 1.975-.403c.614-.26.927-.886.927-1.88v-4.299c0-.325.018-.566.049-.716.03-.157.144-.235.33-.235M508.226 339.454v8.383h1.199V346.5h.024c.27.524.626.903 1.047 1.138.422.24.904.361 1.446.361 1.011 0 1.704-.283 2.083-.861.38-.566.572-1.295.572-2.192v-5.492h-1.264v5.655c0 .505-.145.909-.416 1.216-.27.301-.644.458-1.138.458-.777 0-1.355-.247-1.728-.741-.368-.494-.554-1.12-.554-1.86v-4.728zM533.949 351.016l-2.836-11.55h-1.47l-2.433 9.7h-.048l-2.433-9.7h-1.463l-2.734 11.55h1.433l2.084-9.6h.042l2.355 9.6h1.553l2.349-9.6h.012l2.174 9.6zM538.618 346.782c-.68 0-1.252-.271-1.716-.813-.458-.554-.686-1.32-.686-2.33 0-1.013.228-1.795.686-2.35.464-.547 1.036-.824 1.716-.824.645 0 1.21.277 1.668.825.464.554.699 1.336.699 2.348 0 1.012-.235 1.777-.699 2.33-.457.543-1.023.814-1.668.814m0-7.528c-1.21 0-2.137.422-2.776 1.27-.644.85-.963 1.886-.963 3.114 0 1.229.319 2.27.963 3.101.639.843 1.566 1.259 2.776 1.259 1.205 0 2.132-.416 2.77-1.259.639-.83.958-1.872.958-3.1 0-1.23-.32-2.265-.958-3.114-.638-.85-1.565-1.27-2.77-1.27M543.981 339.454v8.383h1.199v-1.235h.012c.295.464.65.813 1.072 1.048.421.235.891.35 1.415.35.464 0 .903-.103 1.3-.314.404-.21.67-.578.814-1.084.259.434.602.77 1.047 1.024.434.247.898.373 1.385.373.771 0 1.392-.187 1.85-.566.457-.38.692-1.006.692-1.86v-6.119h-1.27v5.492c0 .53-.091.964-.278 1.313-.18.343-.59.524-1.222.524-.603 0-1.084-.187-1.44-.566-.367-.374-.542-.892-.542-1.554v-5.209h-1.282v5.492c0 .548-.103.988-.295 1.33-.199.338-.566.507-1.126.507-.741 0-1.271-.271-1.59-.813-.32-.554-.476-.976-.476-1.307v-5.209zM559.983 346.782c-.644 0-1.156-.223-1.536-.687a2.907 2.907 0 0 1-.644-1.68h4.432c-.048.668-.277 1.228-.686 1.686-.416.458-.94.68-1.566.68m.217-6.316c.518 0 .951.144 1.295.415.349.265.578.668.686 1.204h1.253c-.181-.915-.554-1.607-1.127-2.101-.578-.488-1.288-.729-2.143-.729-1.235 0-2.15.41-2.752 1.247-.597.837-.916 1.89-.952 3.161 0 1.247.343 2.282 1.024 3.108.668.825 1.536 1.228 2.583 1.228 1.367 0 2.295-.542 2.795-1.626.505-1.078.74-2.132.704-3.155h-5.763c-.012-.723.169-1.361.548-1.915.391-.554 1-.837 1.849-.837M565.011 339.454v8.383h1.199V346.5h.018c.277.524.632.903 1.054 1.138.421.24.903.361 1.445.361 1.012 0 1.704-.283 2.084-.861.379-.566.566-1.295.566-2.192v-5.492h-1.259v5.655c0 .505-.145.909-.416 1.216-.27.301-.65.458-1.138.458-.776 0-1.355-.247-1.728-.741-.367-.494-.554-1.12-.554-1.86v-4.728zM574.028 351.016h1.018v-4.186h-1.018zM580.384 339.254c-.862 0-1.602.21-2.235.632-.638.44-.975 1.157-1.017 2.18h1.252c.036-.602.26-1.011.68-1.246a2.858 2.858 0 0 1 1.404-.355c.385 0 .8.078 1.216.234.416.157.633.494.633 1.012 0 .542-.265.897-.777 1.066-.512.169-1.096.331-1.74.476a6.503 6.503 0 0 0-1.723.716c-.518.307-.777.861-.777 1.65 0 .843.307 1.452.934 1.819.62.38 1.264.56 1.915.56.86 0 1.59-.18 2.186-.542.602-.355.921-1.042.963-2.053h-1.246c-.042.53-.247.897-.609 1.09a2.474 2.474 0 0 1-1.174.289c-.38 0-.747-.073-1.096-.205-.35-.145-.524-.422-.524-.843 0-.494.277-.813.82-.976.541-.162 1.101-.319 1.68-.47a6.318 6.318 0 0 0 1.734-.704c.524-.307.783-.873.783-1.686 0-1-.356-1.692-1.048-2.072a4.57 4.57 0 0 0-2.234-.572M591.487 349.716v-8.949h2.348c.488 0 1.205.223 2.144.675.946.446 1.421 1.74 1.421 3.878 0 1.367-.27 2.439-.794 3.222-.542.783-1.452 1.174-2.74 1.174zm-1.421-10.25v11.55h3.655c1.632 0 2.89-.445 3.77-1.354.891-.891 1.325-2.27 1.325-4.125 0-1.951-.41-3.45-1.223-4.493-.813-1.053-2.108-1.577-3.872-1.577zM603.578 346.782c-.639 0-1.15-.223-1.53-.687a2.948 2.948 0 0 1-.644-1.68h4.432c-.048.668-.271 1.228-.68 1.686-.416.458-.946.68-1.578.68m.223-6.316c.517 0 .951.144 1.3.415.344.265.572.668.68 1.204h1.253c-.174-.915-.554-1.607-1.126-2.101-.572-.488-1.282-.729-2.144-.729-1.234 0-2.15.41-2.752 1.247-.596.837-.915 1.89-.945 3.161 0 1.247.337 2.282 1.018 3.108.674.825 1.541 1.228 2.583 1.228 1.367 0 2.294-.542 2.794-1.626.5-1.078.74-2.132.705-3.155h-5.763c-.012-.723.174-1.361.548-1.915.391-.554 1-.837 1.849-.837M614.88 347.846l-2.8-8.382h-1.36l-2.873 8.382h1.42l2.169-6.98h.036l2.09 6.98zM619.28 346.782c-.639 0-1.15-.223-1.53-.687a2.907 2.907 0 0 1-.645-1.68h4.433c-.049.668-.277 1.228-.68 1.686-.422.458-.946.68-1.579.68m.223-6.316c.518 0 .952.144 1.295.415.35.265.578.668.686 1.204h1.253c-.18-.915-.554-1.607-1.126-2.101-.578-.488-1.289-.729-2.144-.729-1.234 0-2.15.41-2.752 1.247-.596.837-.915 1.89-.951 3.161 0 1.247.343 2.282 1.023 3.108.669.825 1.536 1.228 2.584 1.228 1.367 0 2.294-.542 2.794-1.626.5-1.078.74-2.132.704-3.155h-5.763c-.012-.723.17-1.361.548-1.915.392-.554 1-.837 1.85-.837M624.408 351.016h1.258v-11.55h-1.258zM631 346.782c-.675 0-1.247-.271-1.71-.813-.458-.554-.687-1.32-.687-2.33 0-1.013.229-1.795.687-2.35.463-.547 1.035-.824 1.71-.824.65 0 1.216.277 1.674.825.458.554.699 1.336.699 2.348 0 1.012-.241 1.777-.699 2.33-.458.543-1.024.814-1.674.814m0-7.528c-1.21 0-2.132.422-2.776 1.27-.639.85-.958 1.886-.958 3.114 0 1.229.32 2.27.958 3.101.644.843 1.565 1.259 2.776 1.259 1.21 0 2.132-.416 2.776-1.259.638-.83.958-1.872.958-3.1 0-1.23-.32-2.265-.958-3.114-.644-.85-1.566-1.27-2.776-1.27M640.027 340.466c.891 0 1.505.337 1.843 1 .33.668.511 1.415.511 2.252 0 .788-.204 1.499-.596 2.125-.391.627-1.005.94-1.83.94-.831 0-1.422-.32-1.789-.976-.361-.65-.536-1.367-.536-2.156 0-.819.187-1.56.56-2.21.38-.644.988-.975 1.837-.975m-3.62-4.198v11.569h1.265v-1.15h.036c.211.457.542.8.982.999.446.21.945.313 1.487.313 1.18 0 2.06-.427 2.638-1.3.59-.862.88-1.891.88-3.084 0-1.174-.29-2.198-.868-3.065-.578-.861-1.445-1.295-2.614-1.295-.415 0-.86.09-1.342.29-.488.192-.874.535-1.163 1.03h-.036v-4.307zM645.332 339.454v8.383h1.198v-1.235h.018c.29.464.644.813 1.066 1.048.421.235.891.35 1.415.35.464 0 .903-.103 1.3-.314.398-.21.67-.578.82-1.084.253.434.602.77 1.042 1.024.44.247.903.373 1.39.373.771 0 1.386-.187 1.843-.566.458-.38.693-1.006.693-1.86v-6.119h-1.27v5.492c0 .53-.091.964-.272 1.313-.186.343-.59.524-1.222.524-.602 0-1.084-.187-1.445-.566-.362-.374-.542-.892-.542-1.554v-5.209h-1.283v5.492c0 .548-.097.988-.295 1.33-.187.338-.566.507-1.12.507-.747 0-1.277-.271-1.596-.813-.32-.554-.47-.976-.47-1.307v-5.209zM661.333 346.782c-.638 0-1.156-.223-1.536-.687-.373-.464-.59-1.018-.644-1.68h4.432c-.048.668-.27 1.228-.68 1.686-.416.458-.94.68-1.572.68m.217-6.316c.524 0 .951.144 1.307.415.343.265.566.668.68 1.204h1.247c-.175-.915-.548-1.607-1.126-2.101-.567-.488-1.283-.729-2.144-.729-1.235 0-2.15.41-2.746 1.247-.602.837-.922 1.89-.946 3.161 0 1.247.331 2.282 1.012 3.108.68.825 1.542 1.228 2.59 1.228 1.36 0 2.294-.542 2.794-1.626.493-1.078.734-2.132.698-3.155h-5.763c-.012-.723.175-1.361.554-1.915.386-.554 1-.837 1.843-.837M666.367 339.454v8.383h1.198V346.5h.018c.277.524.627.903 1.048 1.138.422.24.903.361 1.445.361 1.012 0 1.71-.283 2.096-.861.373-.566.566-1.295.566-2.192v-5.492h-1.27v5.655c0 .505-.139.909-.41 1.216-.277.301-.65.458-1.144.458-.777 0-1.355-.247-1.716-.741-.38-.494-.567-1.12-.567-1.86v-4.728zM676.523 350.322v-2.487h1.53v-1.217h-1.53v-5.203c0-.313.06-.511.175-.608.133-.096.38-.144.77-.144h.585v-1.21h-.951c-.657 0-1.133.108-1.416.33-.289.223-.433.723-.433 1.5v5.335h-1.319v1.217h1.319v2.487zM684.465 351.016h1.415v-11.55h-1.415zM688.12 339.454v8.383h1.198V346.5h.012c.283.524.633.903 1.054 1.138.416.24.903.361 1.451.361 1.006 0 1.705-.283 2.084-.861.373-.566.566-1.295.566-2.192v-5.492h-1.265v5.655c0 .505-.138.909-.409 1.216-.277.301-.656.458-1.144.458-.777 0-1.35-.247-1.722-.741-.38-.494-.567-1.12-.567-1.86v-4.728zM699.282 339.254c-.849 0-1.602.21-2.228.632-.632.44-.97 1.157-1.018 2.18h1.253c.03-.602.265-1.011.68-1.246a2.841 2.841 0 0 1 1.404-.355c.385 0 .788.078 1.216.234.421.157.632.494.632 1.012 0 .542-.259.897-.777 1.066-.517.169-1.09.331-1.74.476a6.302 6.302 0 0 0-1.716.716c-.524.307-.789.861-.789 1.65 0 .843.32 1.452.945 1.819.615.38 1.259.56 1.91.56.854 0 1.583-.18 2.18-.542.602-.355.933-1.042.969-2.053h-1.253c-.042.53-.247.897-.602 1.09a2.463 2.463 0 0 1-1.18.289c-.38 0-.74-.073-1.09-.205-.35-.145-.524-.422-.524-.843 0-.494.27-.813.819-.976.542-.162 1.102-.319 1.686-.47a6.28 6.28 0 0 0 1.728-.704c.518-.307.79-.873.79-1.686 0-1-.356-1.692-1.06-2.072a4.52 4.52 0 0 0-2.235-.572M705.839 350.322v-2.487h1.535v-1.217h-1.535v-5.203c0-.313.06-.511.18-.608.121-.096.38-.144.765-.144h.59v-1.21h-.951c-.662 0-1.132.108-1.421.33-.283.223-.428.723-.428 1.5v5.335h-1.325v1.217h1.325v2.487zM708.938 347.854h1.27v-8.389h-1.27zm1.27 1.493h-1.27v1.669h1.27zM713.972 350.322v-2.487h1.53v-1.217h-1.53v-5.203c0-.313.06-.511.18-.608.127-.096.38-.144.772-.144h.578v-1.21h-.946c-.656 0-1.132.108-1.42.33-.29.223-.434.723-.434 1.5v5.335h-1.313v1.217h1.313v2.487zM723.352 347.846v-8.382h-1.204v1.33h-.012c-.271-.517-.615-.903-1.036-1.15-.422-.253-.904-.38-1.47-.38-1.005 0-1.704.284-2.083.862-.374.56-.566 1.3-.566 2.204v5.516h1.27v-5.678c0-.512.145-.928.428-1.235.283-.295.656-.452 1.138-.452.765 0 1.337.247 1.704.747.38.506.566 1.132.566 1.885v4.733zM727.14 350.322v-2.487h1.535v-1.217h-1.536v-5.203c0-.313.06-.511.18-.608.121-.096.38-.144.766-.144h.59v-1.21h-.952c-.662 0-1.132.108-1.42.33-.284.223-.428.723-.428 1.5v5.335h-1.32v1.217h1.32v2.487zM733.25 346.782c-.645 0-1.15-.223-1.53-.687a2.948 2.948 0 0 1-.644-1.68h4.432c-.048.668-.277 1.228-.687 1.686-.41.458-.94.68-1.571.68m.222-6.316c.518 0 .952.144 1.295.415.35.265.578.668.687 1.204h1.252c-.18-.915-.554-1.607-1.126-2.101-.578-.488-1.283-.729-2.144-.729-1.234 0-2.15.41-2.752 1.247-.596.837-.915 1.89-.951 3.161 0 1.247.343 2.282 1.024 3.108.674.825 1.541 1.228 2.583 1.228 1.367 0 2.294-.542 2.794-1.626.5-1.078.74-2.132.705-3.155h-5.763c-.012-.723.168-1.361.548-1.915.391-.554 1-.837 1.848-.837" style="fill:#000;fill-opacity:1;fill-rule:nonzero;stroke:none;stroke-width:6.02195" transform="matrix(2.02056 0 0 -2.02056 -875.9 566.84)"/></svg>