<svg xmlns="http://www.w3.org/2000/svg" xml:space="preserve" width="1088.142" height="200" viewBox="0 0 1088.142 200"><defs><linearGradient id="b" x1="0" x2="1" y1="0" y2="0" gradientTransform="matrix(0 -32.29242 32.29243 0 205.485 519.823)" gradientUnits="userSpaceOnUse" spreadMethod="pad"><stop offset="0" style="stop-opacity:1;stop-color:#8ec1e5"/><stop offset="1" style="stop-opacity:1;stop-color:#003269"/></linearGradient><clipPath id="a" clipPathUnits="userSpaceOnUse"><path d="m176.037 517.841.086.095c4.81 7.197 12.96 11.93 22.209 11.93 14.789 0 26.781-12.113 26.781-27.05 0-14.945-11.992-27.054-26.781-27.054-9.166 0-17.25 4.643-22.081 11.735 5.351-9.703 15.605-16.264 27.38-16.264 17.305 0 31.33 14.163 31.33 31.639 0 17.419-13.942 31.557-31.175 31.641h-.31c-11.866-.058-22.171-6.792-27.439-16.672m.043-30.089.171-.255-.157.29z"/></clipPath></defs><g clip-path="url(#a)" transform="matrix(3.16056 0 0 -3.16056 -474.19 1689.358)"><path d="m176.037 517.841.086.095c4.81 7.197 12.96 11.93 22.209 11.93 14.789 0 26.781-12.113 26.781-27.05 0-14.945-11.992-27.054-26.781-27.054-9.166 0-17.25 4.643-22.081 11.735 5.351-9.703 15.605-16.264 27.38-16.264 17.305 0 31.33 14.163 31.33 31.639 0 17.419-13.942 31.557-31.175 31.641h-.31c-11.866-.058-22.171-6.792-27.439-16.672m.043-30.089.171-.255-.157.29z" style="fill:url(#b);stroke:none"/></g><path d="m0 0 5.521-11.276c.851-.876 1.923-1.295 1.923-1.295 1.051-.628.085-.719.085-.719H6.506v-.011l-5.125-.005-.005.016H.402s-.962.091.088.719c0 0 .345.311.165.75l-.05.097a.694.694 0 0 1-.091.14l.056-.058-3.911 7.97c-.374.744-.813.027-.813.027l-2.124-2.538s-.31-.536-.31-1.073v-4.195c.219-.921 1.006-1.145 1.006-1.145 1.053-.623.089-.717.089-.717h-7.626s-.961.094.096.717c0 0 .779.224 1.007 1.145V6.485c-.228.925-1.007 1.143-1.007 1.143-1.057.628-.096.72-.096.72h7.626s.964-.092-.089-.72c0 0-.787-.218-1.006-1.143V-.439s.052-.522.596-.018l6.003 7.19-.101-.114c.449.565-.022.986-.022.986-1.054.627-.089.718-.089.718h1.653l-.014-.02 3.062.018v.002h1.664s.96-.091-.088-.718c0 0-1.045-.406-1.886-1.256L.018 1.354S-.473.949 0 0" style="fill:#003269;fill-opacity:1;fill-rule:nonzero;stroke:none" transform="matrix(3.16056 0 0 -3.16056 42.728 91.947)"/><path d="M0 0s-.788.224-1.009 1.145v17.936A1.555 1.555 0 0 0 0 20.224c1.054.628.088.719.088.719H-7.042s-.797.064-1.096-.832l-4.061-11.903c-.3-.869-.684-.004-.684-.004l-3.771 12.046c-.226.693-.95.688-.95.688l-2.417.005h-4.188s-.972-.091.083-.719c0 0 .785-.218 1.011-1.143V1.145C-23.341.224-24.126 0-24.126 0c-1.055-.624-.083-.717-.083-.717H-18.922s.964.093-.092.717c0 0-.784.224-1.007 1.145v13.157c0 .656.38.006.38.006l4.485-14.345s.156-.68.872-.68h1.865c.625 0 .758.696.758.696l.344 1.033 4.533 13.29s.347.632.347 0V1.145A1.582 1.582 0 0 0-7.452 0c-1.051-.624-.077-.717-.077-.717H.088S1.054-.624 0 0" style="fill:#003269;fill-opacity:1;fill-rule:nonzero;stroke:none" transform="matrix(3.16056 0 0 -3.16056 148.165 131.757)"/><path d="M0 0s-.785.224-1.007 1.145v17.936A1.556 1.556 0 0 0 0 20.224c1.055.628.09.719.09.719H-7.531s-.967-.091.094-.719c0 0 .773-.218 1.007-1.143V1.145C-6.664.224-7.437 0-7.437 0c-1.061-.624-.094-.717-.094-.717H.09S1.055-.624 0 0" style="fill:#003269;fill-opacity:1;fill-rule:nonzero;stroke:none" transform="matrix(3.16056 0 0 -3.16056 181.033 131.757)"/><path d="M0 0v11.181c.304.55.726.586.726.586h2.33c.963 0 .701.962.701.962-.076.429-.667.329-.667.329H.833c-.408.082-.679.603-.833 1.032v4.729l-.032.451c-.036.447-.465.497-.465.497h-4.184c-.535-.199-.037-.467-.037-.467.906-.238 1.357-1.504 1.528-2.198V0s-.094-.619.55-.619h2.166S.126-.823 0 0" style="fill:#231916;fill-opacity:1;fill-rule:nonzero;stroke:none" transform="matrix(3.16056 0 0 -3.16056 396.417 75.907)"/><path d="M0 0h-12.077c-.572.264-1.119.887-1.119 2.291v7.371a.795.795 0 0 1-.795.798h-1.59a.585.585 0 0 1-.19-.027h-2.163c-.636-.279 0-.618 0-.618 1.031-.294 1.431-1.484 1.554-2.004V1.344s-.501-3.438 4.085-3.04H0c.331 0 .606.27.606.601v.493A.607.607 0 0 1 0 0" style="fill:#231916;fill-opacity:1;fill-rule:nonzero;stroke:none" transform="matrix(3.16056 0 0 -3.16056 394.04 99.432)"/><path d="M0 0c-2.22 0-4.017 2.132-4.017 4.758C-4.017 7.377-2.22 9.52 0 9.52c2.219 0 4.015-2.143 4.015-4.762C4.015 2.132 2.219 0 0 0m6.088 8.884-.057.017c-.036.475.198.773.425.948l-.006.018h1.049s.739-.264.739.67c0 0-.067.661-.602.661H2.588s-.965 0-.965.965v.827s.202.615-.607.615h-3.607s-.931-.548-.331-.814c0 0 .661 0 .734-.729 0 0 .391-.731-.734-.731h-4.716s-.532-.133-.532-.533c0 0-.195-.863.467-.931h1.097c.226-.161.476-.45.46-.91v-.006c-.907-.772-2.094-2.923-2.094-4.193 0-3.477 3.655-6.293 8.167-6.293 4.517 0 8.177 2.816 8.177 6.293 0 1.584-.766 3.028-2.016 4.126" style="fill:#231916;fill-opacity:1;fill-rule:nonzero;stroke:none" transform="matrix(3.16056 0 0 -3.16056 354.23 56.59)"/><path d="M0 0h-.989l.185.052c-.596 0-.821.234-.895.471v8.194a.795.795 0 0 1-.679.785c-.021.007-.051.007-.076.007-.014.002-.025.006-.045.006h-18.272a.6.6 0 0 1-.599-.599v-.449c0-.329.266-.598.599-.598h14.674c.417-.095.617-.322.662-.778V1.646C-5.441 1.306-5.579.208-6.925 0h-15.993a.604.604 0 0 1-.604-.595v-.898c0-.33.276-.596.604-.596h9.056c.299-.23.653-.609.707-1.195v-1.993s.242-.678-1.151-1.201h-6.422a.595.595 0 0 1-.595-.593v-.399a.6.6 0 0 1 .595-.598h14.743c.629-.38.735-.846.752-1.045v-9.065a.8.8 0 0 1 .798-.8h1.789c.442 0 .799.358.799.8v11.107a.59.59 0 0 1-.599.593h-6.078s-1.194.057-1.243 1.099v2.142s-.193.652.834 1.148H0c.325 0 .595.266.595.596v.898C.595-.268.325 0 0 0" style="fill:#231916;fill-opacity:1;fill-rule:nonzero;stroke:none" transform="matrix(3.16056 0 0 -3.16056 486.474 45.44)"/><path d="M0 0h-2.776s-.437-.199-.073-.465c0 0 .453-.364.46-.947V-8.95c-.21-.428-.428-.419-.428-.419h-.329a.971.971 0 0 0-.66.411v8.157c0 .442-.36.801-.803.801h-3.153c-.561-.233 0-.599 0-.599.396-.262.732-.399.764-.813v-26.683c0-.441.364-.791.799-.791h1.59c.443 0 .803.35.803.791v15.902c.064.571.559.571.559.571h.498c.377-.089.36-.401.36-.401v-16.072c0-.441.361-.791.798-.791H0c.437 0 .799.35.799.791V-.801A.803.803 0 0 1 0 0" style="fill:#231916;fill-opacity:1;fill-rule:nonzero;stroke:none" transform="matrix(3.16056 0 0 -3.16056 568.815 13.217)"/><path d="M0 0h-2.777s-.437-.199-.067-.465c0 0 .447-.364.455-.947V-8.95c-.202-.428-.423-.419-.423-.419h-.337c-.315.04-.529.236-.663.411v8.157A.798.798 0 0 1-4.604 0h-3.159c-.561-.233 0-.599 0-.599.392-.262.736-.399.763-.813v-26.683c0-.441.361-.791.803-.791h1.593a.79.79 0 0 1 .792.791v15.902c.072.571.561.571.561.571h.505c.371-.089.357-.401.357-.401v-16.072c0-.441.36-.791.799-.791H0c.441 0 .799.35.799.791V-.801A.8.8 0 0 1 0 0" style="fill:#231916;fill-opacity:1;fill-rule:nonzero;stroke:none" transform="matrix(3.16056 0 0 -3.16056 908.942 13.217)"/><path d="M0 0c-1.776 0-3.21 3.333-3.21 7.438 0 4.109 1.434 7.434 3.21 7.434 1.78 0 3.219-3.325 3.219-7.434C3.219 3.333 1.78 0 0 0m2.086 16.599c-2.676 1.101-4.684-.494-4.684-.494l.016-.001c-2.241-1.524-3.793-4.832-3.793-8.666 0-5.28 2.939-9.563 6.578-9.563 3.623 0 6.57 4.283 6.57 9.563 0 4.321-1.972 7.979-4.687 9.161" style="fill:#231916;fill-opacity:1;fill-rule:nonzero;stroke:none" transform="matrix(3.16056 0 0 -3.16056 521.719 80.412)"/><path d="M0 0c-2.172 0-3.935 2.494-3.935 5.579 0 3.08 1.763 5.575 3.935 5.575 2.168 0 3.936-2.495 3.936-5.575C3.936 2.494 2.168 0 0 0m.051 12.95c-4.13 0-7.473-3.211-7.473-7.173 0-3.964 3.343-7.175 7.473-7.175 4.123 0 7.465 3.211 7.465 7.175 0 3.962-3.342 7.173-7.465 7.173" style="fill:#231916;fill-opacity:1;fill-rule:nonzero;stroke:none" transform="matrix(3.16056 0 0 -3.16056 610.041 53.933)"/><path d="M0 0c-3.128 0-5.671 2.457-5.671 5.48 0 3.024 2.543 5.478 5.671 5.478 3.144 0 5.687-2.454 5.687-5.478C5.687 2.457 3.144 0 0 0m.108 12.195c-5.254 0-9.507-3.094-9.507-6.913 0-3.826 4.253-6.919 9.507-6.919 5.245 0 9.502 3.093 9.502 6.919 0 3.819-4.257 6.913-9.502 6.913" style="fill:#231916;fill-opacity:1;fill-rule:nonzero;stroke:none" transform="matrix(3.16056 0 0 -3.16056 625.285 101.165)"/><path d="M0 0h3.533c.223 0 .398.177.398.397v.845c0 .22-.175.399-.398.399H0c-.034 0-.066-.012-.102-.018v3.403c0 .335-.27.603-.601.603h-3.684s-.498-.199-.2-.547c0 0 1.099-.549 1.194-1.3V-9.413c0-.33.269-.6.6-.6h2.09c.331 0 .601.27.601.6v5.303c.036-.011.068-.027.102-.027h3.533c.223 0 .398.177.398.404v.84a.398.398 0 0 1-.398.402H0c-.034 0-.066-.013-.102-.019V.018C-.066.009-.034 0 0 0" style="fill:#231916;fill-opacity:1;fill-rule:nonzero;stroke:none" transform="matrix(3.16056 0 0 -3.16056 654.283 30.795)"/><path d="M0 0h-23.512a.4.4 0 0 1-.399-.398v-.799c0-.219.182-.393.399-.393h9.681a.76.76 0 0 1-.055-.248v-11.359c0-.329.268-.601.602-.601h2.473a.6.6 0 0 1 .6.601v11.359c0 .081-.02.168-.06.248H0c.214 0 .404.174.404.393v.799C.404-.177.214 0 0 0" style="fill:#231916;fill-opacity:1;fill-rule:nonzero;stroke:none" transform="matrix(3.16056 0 0 -3.16056 745.053 61.706)"/><path d="M0 0h-4.245s-1.33-.268-.268-1.198c0 0 2.257-1.462.936-3.449 0 0-2.925-6.108-8.633-6.909 0 0-1.467-.928 0-1.596 0 0 5.839.267 11.018 5.18 0 0 3.852-4.111 10.756-5.313 0 0 1.2.801-.126 1.463 0 0-7.709 3.049-8.37 7.573L.801-1.327S1.465-.268 0 0" style="fill:#231916;fill-opacity:1;fill-rule:nonzero;stroke:none" transform="matrix(3.16056 0 0 -3.16056 711.87 12.584)"/><path d="M0 0h-3.854s-.875-.266.314-1.059c0 0 1.198-.799.666-4.916 0 0-.397-3.586-6.111-6.509 0 0-.536-1.33.129-1.464 0 0 2.923-.264 8.237 5.716 0 0 1.726-3.984 7.044-5.314 0 0 1.527-.402.662.861 0 0-5.316 2.585-6.047 7.241 0 0-.264 3.784-.199 4.385 0 0 .17.995-.841 1.059" style="fill:#231916;fill-opacity:1;fill-rule:nonzero;stroke:none" transform="matrix(3.16056 0 0 -3.16056 779.32 13.432)"/><path d="M0 0h-3.715a.294.294 0 0 1-.126-.027v5.408a.794.794 0 0 1-.795.794H-8.289s-.539-.064.122-.733c0 0 .956-.715 1.396-1.582v-17.275c0-.442.356-.795.797-.795h1.338a.79.79 0 0 1 .795.795v11.78a.328.328 0 0 1 .126-.029H0c.219 0 .401.182.401.4v.866A.402.402 0 0 1 0 0" style="fill:#231916;fill-opacity:1;fill-rule:nonzero;stroke:none" transform="matrix(3.16056 0 0 -3.16056 835.296 32.95)"/><path d="M0 0h-11.976l.039.022c-.878.091-1.209.663-1.334 1.004v9.756c0 .444-.352.79-.798.79h-3.316s-.465-.194-.068-.594c0 0 .993-.798 1.061-1.26V.201a1.693 1.693 0 0 1 1.653-2.045c.082 0 .161.011.246.025a.457.457 0 0 1 .219-.043H0c.333 0 .601.266.601.596v.665A.602.602 0 0 1 0 0" style="fill:#231916;fill-opacity:1;fill-rule:nonzero;stroke:none" transform="matrix(3.16056 0 0 -3.16056 821.407 99.764)"/><path d="M0 0h-11.979l.031.029c-.87.092-1.207.662-1.329 1.003v8.635c0 .441-.351.8-.801.8h-3.76s-.469-.204-.063-.603c0 0 .991-.796 1.055-1.258V.205a1.468 1.468 0 0 1-.043-.345c0-.938.76-1.696 1.696-1.696.084 0 .162.009.238.026a.68.68 0 0 1 .225-.043H0c.33 0 .593.262.593.592v.669A.59.59 0 0 1 0 0" style="fill:#231916;fill-opacity:1;fill-rule:nonzero;stroke:none" transform="matrix(3.16056 0 0 -3.16056 1085.051 99.813)"/><path d="M0 0a.594.594 0 0 1-.59.593h-10.562A.6.6 0 0 1-11.753 0v-.699c0-.333.268-.6.601-.6h7.574c1.207-17.141-8.875-19.125-8.875-19.125-.695-.693.497-1 .497-1C-.764-18.343.049-5.93-.033-1.412v.046z" style="fill:#231916;fill-opacity:1;fill-rule:nonzero;stroke:none" transform="matrix(3.16056 0 0 -3.16056 879.689 18.038)"/><path d="M0 0h-3.72a.354.354 0 0 1-.127-.027v4.71a.793.793 0 0 1-.789.798h-3.657s-.544-.063.124-.729c0 0 .574-.414 1.025-1.391V-7.534c0-.333.268-.601.594-.601h1.991c.334 0 .6.268.6.601v5.877H0c.219 0 .399.176.399.396v.866C.399-.175.219 0 0 0" style="fill:#231916;fill-opacity:1;fill-rule:nonzero;stroke:none" transform="matrix(3.16056 0 0 -3.16056 1010.583 30.438)"/><path d="M0 0v-4.25h-6.249c-.463.076-1.111.434-1.393 1.743V0Zm3.124 6.173h-4.51s-.473-.332.129-.796c0 0 .772-.392 1.257-1.221V1.727h-7.642v3.65c0 .44-.352.796-.792.796h-4.507s-.47-.332.128-.796c0 0 .769-.392 1.256-1.221v-7.627s.072-2.38 1.677-2.617c.06-.009.12-.022.187-.022.789-.029.911-.02.798 0H.479a.765.765 0 0 1 .317-.066h2.328c.437 0 .794.357.794.794V5.377c0 .44-.357.796-.794.796" style="fill:#231916;fill-opacity:1;fill-rule:nonzero;stroke:none" transform="matrix(3.16056 0 0 -3.16056 965.431 35.674)"/><path d="M0 0h-12.746c-.583 0-.744.536-.781.819v4.35c.173.236.445.274.445.274h10.073c.052-.008.102-.015.162-.015h2.521c.449 0 .803.362.803.807v5.296a.797.797 0 0 1-.803.801h-.399a.35.35 0 0 1-.074.007h-17.199a.591.591 0 0 1-.595-.597v-.784c0-.331.265-.602.595-.602h13.613s.668-.132.736-.729l.005.006V7.856c-.129-.199-.415-.421-.996-.421h-13.358a.595.595 0 0 1-.595-.596v-.796c0-.273.179-.504.433-.572.152-.175.443-.53.492-.827l.018.007V.906l-.079-.045s-.325-2.387 3.927-2.387H0c.334 0 .6.261.6.594v.333A.598.598 0 0 1 0 0" style="fill:#231916;fill-opacity:1;fill-rule:nonzero;stroke:none" transform="matrix(3.16056 0 0 -3.16056 999.228 100.32)"/><path d="m0 0 .021.378c-.037.451-.52.565-.52.565h-4.188c-.528-.197-.034-.466-.034-.466.903-.24 1.353-1.501 1.529-2.199v-9.941c-.118-.244-.361-.398-.516-.466H-21.4a.4.4 0 0 1-.405-.402v-1.291c0-.225.178-.398.405-.398h8.543c.189-.134.402-.327.515-.603v-5.775a.8.8 0 0 1 .804-.795h1.685c.444 0 .805.357.805.795v5.718c.156.277.47.526.648.66h4.745c.152-.055.354-.164.463-.369v-.592a.726.726 0 0 0-.288-.236h-3.077a.6.6 0 0 1-.605-.601v-.593a.6.6 0 0 1 .605-.599h3.096a.856.856 0 0 0 .269-.32v-3.353s-.101-.629.55-.629h2.163s.598-.197.479.629z" style="fill:#231916;fill-opacity:1;fill-rule:nonzero;stroke:none" transform="matrix(3.16056 0 0 -3.16056 1088.076 15.288)"/><path d="M0 0c-2.161 0-3.91 1.872-3.91 4.183 0 2.313 1.749 4.183 3.91 4.183 2.164 0 3.912-1.87 3.912-4.183C3.912 1.872 2.164 0 0 0m.048 10.236c-4.436 0-8.046-2.662-8.046-5.954s3.61-5.957 8.046-5.957c4.441 0 8.045 2.665 8.045 5.957S4.489 10.236.048 10.236" style="fill:#231916;fill-opacity:1;fill-rule:nonzero;stroke:none" transform="matrix(3.16056 0 0 -3.16056 1046.164 44.808)"/><path d="M0 0h4.594v-.418C3.537-.527 3.173-.597 1.928-2.125L-1.404-6.25l4.085-5.476c1.141-1.578 1.753-2.413 2.76-2.369v-.42H.09v.42c.926.04 1.226.068 1.226.549 0 .678-1.686 2.937-2.281 3.676l-1.859 2.308-.453-.463v-4.097c0-1.535.211-1.889 1.58-1.973v-.42h-4.948v.42c1.367.084 1.578.413 1.578 2.213v9.49c0 1.708-.386 1.865-1.578 1.974V0h4.977v-.418c-1.367-.109-1.609-.351-1.609-1.974v-4.49C.683-2.44 1.194-1.847 1.194-1.099c0 .59-.333.639-1.194.681z" style="fill:#231916;fill-opacity:1;fill-rule:nonzero;stroke:none" transform="matrix(3.16056 0 0 -3.16056 357.598 141)"/><path d="M0 0c3.174 0 5.727 2.873 5.727 7.534 0 5.036-2.848 7.576-5.727 7.576-2.875 0-5.725-2.54-5.725-7.576C-5.725 2.873-3.171 0 0 0m0 .795c-1.943 0-3.732 1.946-3.732 6.76 0 4.997 1.946 6.766 3.732 6.766 1.793 0 3.74-1.769 3.74-6.766C3.74 2.741 1.951.795 0 .795" style="fill:#231916;fill-opacity:1;fill-rule:nonzero;stroke:none" transform="matrix(3.16056 0 0 -3.16056 390.556 187.826)"/><path d="M0 0c-.848 1.242-1.344 3.492-1.344 3.492-.498 1.592-1.484 2.212-1.484 2.212 1.04.339 2.499 1.153 2.499 3.502 0 3.372-2.893 3.841-4.452 3.841h-4.83v-.418c1.232-.155 1.49-.351 1.49-1.974V1.159c0-1.639-.065-2.099-1.49-2.207v-.42h4.848v.42c-1.387.084-1.561.5-1.561 1.97v4.31l.97.045s.822.252 1.716-1.64c0 0 .251-.353.3-.9 0 0 .914-4.029 2.149-4.205h2.825v.42C.916-1.008.494-.61.109-.02m-6.433 11.46c0 .638.154.793 1.079.793.713 0 3.007-.073 3.007-2.988 0-3.132-2.622-3.176-4.086-3.196z" style="fill:#231916;fill-opacity:1;fill-rule:nonzero;stroke:none" transform="matrix(3.16056 0 0 -3.16056 441.915 182.235)"/><path d="M0 0h-7.201v.423c.859.084 1.166.288 1.166 1.973v9.73c0 1.731-.323 1.865-1.166 1.974v.418h7.078l.043-3.13h-.336C-.623 13.343-.975 13.7-2.445 13.7H-4.24c-.281 0-.44 0-.44-.75V8.074h2.044c1.179 0 1.314.521 1.461 2.083h.304V5.064h-.304c-.168 1.757-.36 2.067-1.461 2.089l-2.044.043V1.748c0-.9 0-.922 1.977-.922 1.657 0 2.339.656 2.932 2.878H.6Z" style="fill:#231916;fill-opacity:1;fill-rule:nonzero;stroke:none" transform="matrix(3.16056 0 0 -3.16056 473.619 186.884)"/><path d="M0 0h-7.195v.423c.849.084 1.155.288 1.155 1.973v9.73c0 1.731-.319 1.865-1.155 1.974v.418h7.073l.042-3.13h-.341c-.21 1.955-.558 2.312-2.027 2.312h-1.793c-.28 0-.439 0-.439-.75V8.074h2.038c1.185 0 1.323.521 1.462 2.083h.306V5.064h-.306c-.156 1.757-.351 2.067-1.462 2.089l-2.038.043V1.748c0-.9 0-.922 1.977-.922 1.656 0 2.34.656 2.93 2.878h.379z" style="fill:#231916;fill-opacity:1;fill-rule:nonzero;stroke:none" transform="matrix(3.16056 0 0 -3.16056 791.817 186.884)"/><path d="M0 0h-7.203v.423c.852.084 1.159.288 1.159 1.973v9.73c0 1.731-.319 1.865-1.159 1.974v.418h7.082l.041-3.13h-.342c-.2 1.955-.56 2.312-2.035 2.312h-1.79c-.279 0-.437 0-.437-.75V8.074h2.043c1.186 0 1.315.521 1.457 2.083h.302V5.064h-.302c-.154 1.757-.349 2.067-1.457 2.089l-2.043.043V1.748c0-.9 0-.922 1.983-.922 1.654 0 2.336.656 2.927 2.878h.372z" style="fill:#231916;fill-opacity:1;fill-rule:nonzero;stroke:none" transform="matrix(3.16056 0 0 -3.16056 1082.767 186.884)"/><path d="M0 0c-.746.068-.979.308-1.518 1.907l-4.187 12.459h-.335L-9.541 3.588c-.318-.963-.842-2.559-1.227-3.106-.303-.414-.59-.46-.862-.482v-.419h3.337V0c-.36 0-1.148 0-1.148.916 0 .247.055.551.136.832l.778 2.562h4.404l.692-2.103c.1-.3.313-1.028.313-1.378 0-.807-.55-.829-1.175-.829v-.419H0Zm-8.242 5.206 1.926 6.046 1.959-6.046z" style="fill:#231916;fill-opacity:1;fill-rule:nonzero;stroke:none" transform="matrix(3.16056 0 0 -3.16056 512.922 185.548)"/><path d="M0 0c-.739.068-.98.308-1.516 1.907l-4.188 12.459h-.341L-9.537 3.588c-.318-.963-.841-2.559-1.229-3.106-.306-.414-.586-.46-.857-.482v-.419h3.327V0c-.344 0-1.142 0-1.142.916 0 .247.047.551.136.832l.771 2.562h4.41l.687-2.103c.104-.3.322-1.028.322-1.378C-3.112.022-3.668 0-4.288 0v-.419H0Zm-8.246 5.206 1.937 6.046 1.951-6.046z" style="fill:#231916;fill-opacity:1;fill-rule:nonzero;stroke:none" transform="matrix(3.16056 0 0 -3.16056 611.159 185.548)"/><path d="M0 0c-1.063-.109-1.47-.243-1.47-1.974v-9.73c0-1.685.395-1.889 1.47-1.973v-.42h-4.715v.42c1.308.084 1.538.413 1.538 2.213v9.841h-.037l-4.275-12.474h-.228l-4.186 11.971h-.035v-8.748c0-2.254.352-2.735 1.578-2.803v-.42h-3.953v.42c1.281.11 1.636.438 1.636 2.803v8.9c0 1.708-.355 1.883-1.604 1.974v.418h3.333l3.881-11.066L-3.349.418H0Z" style="fill:#231916;fill-opacity:1;fill-rule:nonzero;stroke:none" transform="matrix(3.16056 0 0 -3.16056 574.556 142.32)"/><path d="M0 0c-1.061-.109-1.461-.243-1.461-1.974v-9.73c0-1.685.387-1.889 1.461-1.973v-.42h-4.709v.42c1.309.084 1.527.413 1.527 2.213v9.841h-.038l-4.262-12.474h-.233l-4.188 11.971h-.033v-8.748c0-2.254.35-2.735 1.579-2.803v-.42h-3.956v.42c1.277.11 1.629.438 1.629 2.803v8.9c0 1.708-.352 1.883-1.593 1.974v.418h3.329l3.88-11.066L-3.348.418H0Z" style="fill:#231916;fill-opacity:1;fill-rule:nonzero;stroke:none" transform="matrix(3.16056 0 0 -3.16056 763.106 142.32)"/><path d="M0 0c-.711.04-1.139.438-1.521 1.029l-3.612 5.543c.891.217 3.175.744 3.175 3.682 0 3.372-2.893 3.841-4.45 3.841h-4.838v-.418c1.231-.155 1.495-.351 1.495-1.974V2.207C-9.751.568-9.816.108-11.246 0v-.419h4.859V0c-1.4.084-1.578.5-1.578 1.97v4.31l.973.046 4.17-6.745H0Zm-7.965 12.488c0 .638.156.793 1.088.793.711 0 3.004-.073 3.004-2.988 0-3.131-2.621-3.175-4.092-3.195z" style="fill:#231916;fill-opacity:1;fill-rule:nonzero;stroke:none" transform="matrix(3.16056 0 0 -3.16056 647.16 185.548)"/><path d="M0 0c1.487.04 1.689.414 1.689 1.974v9.73c0 1.622-.236 1.882-1.689 1.973v.418h5.206v-.418c-1.287-.069-1.722-.222-1.722-1.973v-9.73C3.484.264 3.907.04 5.206 0v-.419H0Z" style="fill:#231916;fill-opacity:1;fill-rule:nonzero;stroke:none" transform="matrix(3.16056 0 0 -3.16056 644.87 185.548)"/><path d="M0 0h-5.12v.419c1.597.085 1.652.589 1.652 2.214v10.964h-.953c-1.932 0-2.404-.418-2.796-2.808h-.418l.109 3.726h9.898l.107-3.726h-.421c-.371 2.41-.865 2.808-2.798 2.808h-.947V2.393C-1.687.902-1.476.488 0 .419Z" style="fill:#231916;fill-opacity:1;fill-rule:nonzero;stroke:none" transform="matrix(3.16056 0 0 -3.16056 688.633 186.874)"/><path d="M0 0c1.487.04 1.695.414 1.695 1.974v9.73c0 1.622-.24 1.882-1.695 1.973v.418h5.202v-.418c-1.28-.069-1.712-.222-1.712-1.973v-9.73C3.49.264 3.904.04 5.202 0v-.419H0Z" style="fill:#231916;fill-opacity:1;fill-rule:nonzero;stroke:none" transform="matrix(3.16056 0 0 -3.16056 698.432 185.548)"/><path d="M0 0c1.493.04 1.699.414 1.699 1.974v9.73c0 1.622-.247 1.882-1.699 1.973v.418h5.209v-.418c-1.283-.069-1.72-.222-1.72-1.973v-9.73c0-1.71.42-1.934 1.72-1.974v-.419H0Z" style="fill:#231916;fill-opacity:1;fill-rule:nonzero;stroke:none" transform="matrix(3.16056 0 0 -3.16056 811.33 185.548)"/><path d="M0 0c-1.101-.155-1.67-.243-1.67-2.81v-11.535h-.293L-9.678-2.326h-.03v-8.548c0-2.254.365-2.735 1.647-2.803v-.42h-4.117v.42c1.329.11 1.699.438 1.699 2.803v9.667C-11.195-.109-11.477 0-12.178 0v.418h2.998l6.709-10.543h.033v7.315c0 2.522-.488 2.701-1.68 2.81v.418H0Z" style="fill:#231916;fill-opacity:1;fill-rule:nonzero;stroke:none" transform="matrix(3.16056 0 0 -3.16056 869.213 142.32)"/><path d="m0 0-.383 3.064h.395C.332 2.037 1.213-.813 3.508-.813c1.358 0 2.041 1.251 2.041 2.432 0 1.248-.276 1.992-2.775 3.877C1.213 6.654.111 7.617.111 9.79c0 2.493 1.555 3.715 3.086 3.715 1.021 0 2.047-.454 2.367-.739l.909-.814.412-3.109h-.424c-.289 1.795-1.379 3.768-3.16 3.768-.851 0-1.721-.681-1.721-2.033 0-3.288 5.679-3.726 5.679-8.215 0-1.861-1.155-3.971-3.583-3.971-1.291 0-2.209.468-2.641.749 0 0-.844.668-1.035.859" style="fill:#231916;fill-opacity:1;fill-rule:nonzero;stroke:none" transform="matrix(3.16056 0 0 -3.16056 872.688 182.744)"/><path d="M0 0h-5.121v.419c1.602.085 1.649.589 1.649 2.214v10.964h-.946c-1.936 0-2.404-.418-2.791-2.808h-.423l.102 3.726h9.904l.107-3.726H2.06c-.367 2.41-.866 2.808-2.788 2.808h-.951V2.393C-1.679.902-1.469.488 0 .419z" style="fill:#231916;fill-opacity:1;fill-rule:nonzero;stroke:none" transform="matrix(3.16056 0 0 -3.16056 920.872 186.874)"/><path d="M0 0c1.494.04 1.701.414 1.701 1.974v9.73c0 1.622-.248 1.882-1.701 1.973v.418h5.207v-.418c-1.281-.069-1.725-.222-1.725-1.973v-9.73C3.482.264 3.909.04 5.207 0v-.419H0Z" style="fill:#231916;fill-opacity:1;fill-rule:nonzero;stroke:none" transform="matrix(3.16056 0 0 -3.16056 930.671 185.548)"/><path d="M0 0h-5.123v.419c1.596.085 1.647.589 1.647 2.214v10.964h-.95c-1.924 0-2.403-.418-2.789-2.808h-.422l.104 3.726h9.904l.102-3.726h-.419c-.367 2.41-.861 2.808-2.787 2.808h-.953V2.393C-1.686.902-1.479.488 0 .419Z" style="fill:#231916;fill-opacity:1;fill-rule:nonzero;stroke:none" transform="matrix(3.16056 0 0 -3.16056 974.45 186.874)"/><path d="M0 0c-1.353-.179-1.65-.507-1.65-2.808v-5.716c0-1.747 0-5.874-4.534-5.874-4.352 0-4.352 4.275-4.352 5.592v6.832c0 1.623-.242 1.865-1.573 1.974v.418h4.954V0c-1.379-.133-1.59-.415-1.59-1.974v-7.01c0-1.399 0-4.448 3.047-4.448 1.37 0 2.366.706 2.88 1.735.225.482.402 1.203.402 2.976v5.913c0 2.345-.423 2.717-1.655 2.808v.418H0Z" style="fill:#231916;fill-opacity:1;fill-rule:nonzero;stroke:none" transform="matrix(3.16056 0 0 -3.16056 1022.281 142.32)"/><path d="M0 0h-5.12v.419c1.598.085 1.646.589 1.646 2.214v10.964h-.949c-1.93 0-2.402-.418-2.792-2.808h-.42l.109 3.726h9.902l.102-3.726h-.42c-.37 2.41-.857 2.808-2.79 2.808h-.952V2.393C-1.684.902-1.472.488 0 .419Z" style="fill:#231916;fill-opacity:1;fill-rule:nonzero;stroke:none" transform="matrix(3.16056 0 0 -3.16056 1047.856 186.874)"/><path d="M0 0h-3.967v2.045c0 .33-.268.595-.592.595h-4.306s-.595.014-.32-.46c0 0 .371-.101.471-.249 0 0 .485-.422.628-.924V0h-3.618a.626.626 0 0 1-.622-.625c0-.341.283-.619.622-.619H0A.622.622 0 1 1 0 0" style="fill:#231916;fill-opacity:1;fill-rule:nonzero;stroke:none" transform="matrix(3.16056 0 0 -3.16056 540.602 21.392)"/></svg>