<svg xmlns="http://www.w3.org/2000/svg" xml:space="preserve" width="1121.2644" height="400" viewBox="0 0 1121.2644 400.00002"><defs><radialGradient id="b" cx="0" cy="0" r="1" fx="0" fy="0" gradientTransform="matrix(26.46243 0 0 31.98199 213.765 -534.16)" gradientUnits="userSpaceOnUse" spreadMethod="pad"><stop offset="0" style="stop-opacity:1;stop-color:#f0f8de"/><stop offset="0.5" style="stop-opacity:1;stop-color:#badd16"/><stop offset="1" style="stop-opacity:1;stop-color:#00a650"/></radialGradient><radialGradient id="d" cx="0" cy="0" r="1" fx="0" fy="0" gradientTransform="matrix(34.91284 0 0 31.65549 213.766 -534.16)" gradientUnits="userSpaceOnUse" spreadMethod="pad"><stop offset="0" style="stop-opacity:1;stop-color:#f0f8de"/><stop offset="0.5" style="stop-opacity:1;stop-color:#badd16"/><stop offset="1" style="stop-opacity:1;stop-color:#00a650"/></radialGradient><radialGradient id="f" cx="0" cy="0" r="1" fx="0" fy="0" gradientTransform="translate(213.761 -534.155) scale(31.7451)" gradientUnits="userSpaceOnUse" spreadMethod="pad"><stop offset="0" style="stop-opacity:1;stop-color:#f0f8de"/><stop offset="0.5" style="stop-opacity:1;stop-color:#badd16"/><stop offset="1" style="stop-opacity:1;stop-color:#00a650"/></radialGradient><clipPath id="a" clipPathUnits="userSpaceOnUse"><path d="M196.155-530.34c1.072-1.69 4.459 1.524 5.782-.196 1.328-1.715-1.777-7.416-.283-9.38 1.495-1.971 20.6-11.492.91-7.153-2.515.557.264-2.812 2.543-6.883 2.31-4.138-.502-2.704-.502-2.704-.139.033-.255.073-.383.108-6.494 3.088-11.09 10.721-11.09 19.659 0 4.129.988 7.987 2.687 11.24-.515-2.192-.609-3.213.336-4.691z"/></clipPath><clipPath id="c" clipPathUnits="userSpaceOnUse"><path d="M241.134-551.95s-3.774-1.247-7.989-1.076c0 0-2.679.248-4.108-.959 0 0-5.827-5.305-11.4-5.053-1.41.058-2.789.47-4.06 1.407 0 0-5.743 3.932-7.15 6.908 0 0 11.887-.422 14.47.851 0 0 4.406 2.977.418 4.674 0 0-9.47.834-12.281 2.428 0 0-4.283 2.945-1.943 5.072 0 0 11.631-3.722 9.926-.516 0 0-1.263 6.357.024 7.206 0 0 .732 1.373 2.238-.32 0 0 2.155-3.256 3.804-5.49 0 0 3.536-3.678 4.467-.374 0 0 .633 1.03-1.351 6.544 0 0-3.35 6.013-2.41 5.907 0 0 6.794.031 11.069-3.818 2.097-1.893 3.587-4.725 3.345-8.982 0 0-.358-4.039-1.647-7.12 0 0-1.045-1.93.93-3.293 0 0 3.267-1.918 4.006-2.193 0 0 1.266-.735-.358-1.803z"/></clipPath><clipPath id="e" clipPathUnits="userSpaceOnUse"><path d="M223.623-523.185s-2.199-.55-2.317 1.357c0 0 1.361 4.956-3.144 5.382 0 0-1.515.377-.945 1.052 7.283-.643 13.554-4.81 17.085-10.783-.28.135-.584.32-.94.57-2.513 1.786-6.624 2.358-9.74 2.422z"/></clipPath></defs><path d="M161.535 412.963v40.651h7.643v-12.671h8.953v-5.13h-8.953v-22.85h-7.643zm-18.7-9.347h28.304v-5.06h-30.45c-1.567 0-2.868.523-3.93 1.572-1.054 1.067-1.594 2.545-1.594 4.466v11.808h7.67v-12.786zm-6.789 34.924c-1.19-1.558-1.783-3.382-1.783-5.453 0-2.08.593-3.917 1.783-5.488 1.19-1.558 2.634-2.363 4.315-2.363 1.735 0 3.16.805 4.311 2.363 1.155 1.571 1.722 3.408 1.722 5.488 0 2.071-.567 3.895-1.722 5.453-1.15 1.558-2.576 2.35-4.31 2.35-1.682 0-3.125-.792-4.316-2.35zm12.751 4.036c1.257-.974 2.363-2.31 3.32-4.036.947-1.735 1.424-3.545 1.424-5.453 0-3.496-1.31-6.488-3.925-8.927-2.62-2.456-5.714-3.669-9.255-3.669-3.505 0-6.594 1.213-9.25 3.67-2.655 2.438-3.983 5.43-3.983 8.926 0 1.908.47 3.718 1.412 5.453.96 1.726 2.089 3.062 3.386 4.036H125.1v5.059h11.366v6.616h7.66v-6.616h11.366v-5.059h-6.696zM231.507 432.37v-5.059h-21.103v-8.842h14.54v-19.983h-7.653v14.933h-29.405v5.05h14.866v8.842h-20.779v5.06h34.344c.39 1.088.673 2.225.841 3.416.168 1.182.257 2.399.257 3.669v8.626h-29.21v5.138h36.88v-13.574c0-1.04-.2-2.27-.562-3.664-.372-1.417-.766-2.62-1.195-3.612h8.179zM287.99 432.37v-5.059h-21.103v-8.842h14.525v-19.983h-7.656v14.933H244.35v5.05h14.866v8.842h-20.77v5.06h34.348c.376 1.088.664 2.225.837 3.416.177 1.182.256 2.399.256 3.669v8.626h-29.215v5.138h36.867v-13.574c0-1.04-.177-2.27-.544-3.664-.363-1.417-.761-2.62-1.186-3.612h8.179zM342.177 453.534v-55.048h-7.082v55.048h7.082zm-19.073-18.504h-7.338v5.068h7.338v13.436h7.14v-55.048h-7.14v36.544zm-4.93-17.646c-2.435.642-4.728 1.912-6.887 3.824-2.16 1.894-3.683 4.2-4.532 6.887-1.01-2.656-2.576-4.93-4.683-6.856-2.115-1.925-4.408-3.213-6.887-3.855l-4.027 3.497c3.558.867 6.4 3.129 8.529 6.793 2.16 3.652 3.217 8.077 3.217 13.269v5.78h-7.834v5.059h22.577v-5.059h-7.201v-5.78c0-4.86 1.018-9.06 3.045-12.65 2.044-3.597 4.904-6.093 8.639-7.474l-3.957-3.435zM386.71 427.174v11.171h-21.156v-11.17h21.155zm-6.684-15.437h20.005v-5.077h-47.71v5.077h20.049v10.378h-8.896c-1.594 0-2.921.505-3.957 1.563-1.044 1.044-1.567 2.5-1.567 4.337v24.732h7.604v-9.352h21.155v9.352h7.675v-30.632h-14.358v-10.378zM446.104 438.345v15.19h7.674v-40.639h-7.674v20.31h-9.533v5.139h9.533zm-19.527-34.73h29.467v-5.129h-31.627c-1.549 0-2.868.549-3.92 1.584-1.054 1.058-1.594 2.554-1.594 4.448v12.672h7.674v-13.574zm7.975 33.389c-1.469-3.222-3.284-5.895-5.443-8.015-2.443-2.32-5.108-4.125-8.02-5.378-2.921-1.274-5.833-1.88-8.728-1.88l-5.072 3.416c3.08.248 5.949.903 8.613 1.97 2.664 1.075 4.868 2.491 6.648 4.217 2.035 1.943 3.54 4.112 4.514 6.489.974 2.38 1.47 5.138 1.47 8.24v.66h-17.412v5.059h25.652v-4.484c0-3.642-.743-7.063-2.222-10.294zM476.722 444.9c-1.363-1.682-2.045-3.753-2.045-6.236 0-2.421.673-4.493 2.01-6.232 1.336-1.73 3.027-2.602 5.062-2.602 2.027 0 3.718.872 5.064 2.602 1.327 1.74 2.027 3.81 2.027 6.232 0 2.483-.682 4.554-1.983 6.236-1.337 1.69-3.036 2.536-5.108 2.536-1.982 0-3.673-.846-5.027-2.536zm15.49 3.616c2.948-2.714 4.382-5.958 4.382-9.782 0-3.81-1.434-7.072-4.382-9.767-2.903-2.718-6.4-4.081-10.463-4.081-4.018 0-7.506 1.363-10.453 4.08-2.94 2.696-4.409 5.958-4.409 9.768 0 3.824 1.47 7.068 4.409 9.782 2.947 2.69 6.435 4.04 10.453 4.04 4.063 0 7.56-1.35 10.463-4.04zm.761-30.556c2.045 0 3.966.141 5.745.451 1.788.31 3.249.61 4.31.916v34.207h7.604v-55.048h-7.603v16.69c-1.762-.74-3.505-1.315-5.223-1.695-1.7-.399-3.47-.585-5.275-.585h-26.82v5.064h27.262zM541.144 411.737h9.471v9.993h-9.471v-9.993zm17.146 0h11.162v-5.077h-47.71v5.077h11.754v9.993h-.982c-1.603 0-2.868.47-3.798 1.426-.938.951-1.398 2.363-1.398 4.217v11.884h28.953v8.378h-29.467v5.112h37.133v-18.545H534.92v-7.342h30.052v-5.13h-6.683v-9.993zM600.556 417.384c-2.434.642-4.727 1.912-6.886 3.824-2.16 1.894-3.683 4.2-4.55 6.887-.991-2.656-2.55-4.93-4.665-6.856-2.133-1.925-4.417-3.213-6.887-3.855l-4.027 3.497c3.55.867 6.409 3.129 8.533 6.793 2.16 3.652 3.222 8.077 3.222 13.269v5.78h-7.86v5.059h22.59v-5.059h-7.206v-5.78c0-4.86 1.018-9.06 3.054-12.631 2.036-3.563 4.895-6.068 8.568-7.493v32.715h7.134v-14.928h5.913v14.928h7.082v-55.048h-7.082v35.057h-5.913v-35.057h-7.134v22.2l-3.886-3.302zM650.072 403.616h28.945v-5.13H647.94c-1.522 0-2.815.549-3.895 1.584-1.088 1.058-1.62 2.554-1.62 4.448v12.866h7.648v-13.768zm14.03 20.509c-1.903-.474-3.7-.717-5.39-.717h-17.925c-1.638 0-2.974.522-3.983 1.558-1.01 1.057-1.54 2.487-1.54 4.355v22.46h25.917v-5.058h-18.243v-18.181h16.296c1.682 0 3.487.146 5.426.447 1.912.314 3.514.65 4.753 1.049v23.496h7.666v-11.626h8.966v-5.121h-8.966v-23.89h-7.666v13.126c-1.637-.796-3.408-1.425-5.31-1.898zM124.933 502.272h32.29V641.29h-32.29v-139.02z" style="fill:#403c3d;fill-opacity:1;fill-rule:nonzero;stroke:none;stroke-width:4.53204" transform="matrix(1.33333 0 0 -1.33333 206.537 931.315)"/><path d="M213.888 502.272h42.005l-10.688 10.352-68.074 65.812v-8.688l75.248 71.543H210.033l-1.788-1.784-61.298-62.27-4.098-4.219 4.027-4.226 62.661-64.67 1.815-1.85h2.536z" style="fill:#403c3d;fill-opacity:1;fill-rule:nonzero;stroke:none;stroke-width:4.53204" transform="matrix(1.33333 0 0 -1.33333 206.537 931.315)"/><path d="M339.291 544.069c-4.638-10.17-14.24-15.127-29.297-15.127-13.48 0-22.492 3.695-27.52 11.259-4.505 6.776-6.806 17.561-6.806 32.003 0 12.162 1.602 21.59 4.78 28.046 4.939 10.14 14.614 15.048 29.794 15.048 13.19-.106 22.092-4.13 27.164-12.25 4.027-6.312 5.983-16.991 5.983-31.742 0-12.207-1.363-21.36-4.098-27.237zm26.334 74.969c-10.684 16.247-29.282 24.457-55.197 24.457-11.861-.146-22.111-1.92-30.644-5.267-8.72-3.42-16.234-8.754-22.315-15.791-4.869-5.731-8.746-13.202-11.463-22.297-2.59-8.803-3.952-18.314-3.952-28.317 0-9.697 1.296-19.172 3.761-28.09 2.603-9.4 6.113-16.668 10.618-22.21 11.073-13.755 28.529-20.752 52.083-20.752 20.4 0 36.892 5.48 49.178 16.35 12.817 11.59 19.314 29.989 19.314 54.702 0 19.841-3.86 35.726-11.383 47.215zM419.036 580.418v7.267c0 6.692.947 11.902 2.77 15.482 1.69 3.27 4.408 5.714 8.268 7.524 2.23 1.005 7.249 2.261 18.19 2.399h45.196v28.201h-43.594c-15.827 0-27.741-1.744-36.442-5.395-9.144-3.806-16.279-10.454-21.191-19.753a46.557 46.557 0 0 1-4.364-13.109c-.77-4.364-1.124-10.285-1.124-18.137v-82.626h32.29v62.006l-6.027-6.04h80.452v28.205h-80.452l6.028-6.024zM548.597 641.291h-32.308v-139.02h32.308v139.02zM652.427 580.803l6.019 6.033H591.12l6.055-6.033v60.488H564.84v-139.02h32.335v62.36l-6.055-6.005h67.326l-6.02 6.005v-62.36h32.265v139.02h-32.264v-60.488z" style="fill:#403c3d;fill-opacity:1;fill-rule:nonzero;stroke:none;stroke-width:4.53204" transform="matrix(1.33333 0 0 -1.33333 206.537 931.315)"/><path d="M136.745 489.556h2.444v-9.117h.084c.487.735 1.018 1.416 1.478 2.027l5.79 7.09h3.044l-6.895-8.037 7.404-10.883h-2.863l-6.232 9.307-1.81-2.071v-7.236h-2.443v18.92zM157.454 472.19c2.377 0 4.112 2.23 4.112 5.297 0 2.306-1.133 5.222-4.077 5.222-2.885 0-4.111-2.735-4.111-5.275 0-3.005 1.673-5.245 4.023-5.245h.053zm-.102-1.855c-3.598 0-6.502 2.717-6.502 6.993 0 4.536 3.014 7.214 6.728 7.214 3.916 0 6.603-2.842 6.603-6.971 0-5.023-3.54-7.236-6.78-7.236h-.049zM167.293 479.974c0 1.638-.046 2.996-.111 4.249h2.15l.09-2.655h.07c.606 1.836 2.16 2.974 3.78 2.974.292 0 .46-.018.712-.076v-2.31c-.292.014-.553.032-.872.032-1.77 0-3.014-1.292-3.284-3.129a5.871 5.871 0 0 1-.115-1.177v-7.245h-2.465l.046 9.338zM184.854 478.766c0 1.558-.668 4.036-3.408 4.036-2.491 0-3.598-2.275-3.748-4.036h7.156zm-7.21-1.73c.089-3.355 2.187-4.74 4.665-4.74 1.718 0 2.85.323 3.753.685l.434-1.743c-.894-.394-2.38-.863-4.55-.863-4.169 0-6.691 2.77-6.691 6.85 0 4.112 2.478 7.352 6.44 7.352 4.412 0 5.55-3.895 5.55-6.382 0-.527-.024-.934-.107-1.2l-9.493.041zM197.481 477.571c-2.744.08-5.789-.407-5.789-3.054 0-1.628 1.076-2.368 2.328-2.368 1.757 0 2.96 1.116 3.302 2.28.106.27.16.54.16.805v2.337zm2.399-3.678c0-1.168.062-2.301.195-3.257h-2.284l-.204 1.721h-.018c-.77-1.053-2.23-2.022-4.164-2.022-2.775 0-4.165 1.943-4.165 3.894 0 3.307 2.912 5.086 8.126 5.064v.256c0 1.146-.297 3.178-3.067 3.173-1.28 0-2.607-.358-3.545-1.022l-.593 1.682c1.16.677 2.814 1.16 4.554 1.16 4.13 0 5.165-2.842 5.165-5.56v-5.089zM209.856 489.556h10.135v-2.022h-7.657v-6.29h7.121v-2.04h-7.12v-8.568h-2.48v18.92zM228.183 472.19c2.381 0 4.147 2.23 4.147 5.297 0 2.306-1.155 5.222-4.054 5.222-2.886 0-4.165-2.735-4.165-5.275 0-3.005 1.625-5.245 4.072-5.245zm-.018-1.855c-3.74 0-6.524 2.717-6.524 6.993 0 4.536 2.966 7.214 6.723 7.214 3.908 0 6.493-2.842 6.493-6.971 0-5.023-3.435-7.236-6.674-7.236h-.018zM249.378 474.367c0-1.425.049-2.656.115-3.731h-2.195l-.137 2.252h-.115c-.553-1.128-2.036-2.553-4.484-2.553-2.102 0-4.664 1.217-4.664 5.975v7.913h2.491v-7.47c0-2.594.775-4.356 3.059-4.356 1.61 0 2.74 1.15 3.19 2.28.151.345.275.778.275 1.252v8.294h2.465v-9.856zM253.459 480.558c0 1.43-.053 2.554-.124 3.665h2.204l.133-2.195h.097c.62 1.239 2.196 2.514 4.408 2.514 1.939 0 4.869-1.138 4.869-5.798v-8.108h-2.487v7.829c0 2.217-.841 4.063-3.125 4.063-1.593 0-2.877-1.146-3.293-2.554-.16-.283-.221-.752-.221-1.128v-8.21h-2.46v9.922zM278.297 478.717c0 .319-.071.717-.16 1.032-.318 1.57-1.672 2.876-3.531 2.876-2.558 0-4.08-2.27-4.08-5.249 0-2.757 1.398-5.058 4.035-5.058 1.647 0 3.134 1.155 3.577 2.978.088.328.159.655.159 1.062v2.36zm2.443 11.853v-16.411c0-1.217.053-2.567.132-3.523h-2.221l-.08 2.363h-.097c-.78-1.491-2.346-2.664-4.594-2.664-3.275 0-5.869 2.766-5.869 6.926 0 4.55 2.86 7.28 6.099 7.28 2.098 0 3.54-.969 4.116-2.048h.07v8.077h2.443zM292.043 477.571c-2.762.08-5.78-.407-5.78-3.054 0-1.628 1.045-2.368 2.284-2.368 1.823 0 2.956 1.116 3.337 2.28.115.27.159.54.159.805v2.337zm2.381-3.678c0-1.168.053-2.301.16-3.257h-2.178l-.24 1.721h-.07c-.76-1.053-2.186-2.022-4.178-2.022-2.761 0-4.133 1.943-4.133 3.894 0 3.307 2.885 5.086 8.179 5.064v.256c0 1.146-.319 3.178-3.098 3.173-1.284 0-2.603-.358-3.568-1.022l-.557 1.682c1.124.677 2.78 1.16 4.47 1.16 4.187 0 5.213-2.842 5.213-5.56v-5.089zM301.187 487.498v-3.275h3.594v-1.859h-3.594v-7.329c0-1.673.513-2.638 1.903-2.638.673 0 1.089.07 1.443.16l.097-1.868c-.451-.19-1.24-.354-2.186-.354-1.151 0-2.08.403-2.656 1.04-.681.766-.938 1.987-.938 3.572v7.418h-2.098v1.858h2.098v2.501l2.337.775zM307.534 470.636v13.587h2.478v-13.587h-2.478zm1.203 16.088c-.956 0-1.557.748-1.557 1.61 0 .877.646 1.58 1.655 1.58.947 0 1.505-.703 1.505-1.58 0-.862-.558-1.61-1.55-1.61h-.052zM319.713 472.19c2.337 0 4.16 2.23 4.16 5.297 0 2.306-1.168 5.222-4.071 5.222-2.895 0-4.178-2.735-4.178-5.275 0-3.005 1.69-5.245 4.09-5.245zm-.106-1.855c-3.611 0-6.461 2.717-6.461 6.993 0 4.536 2.965 7.214 6.727 7.214 3.912 0 6.557-2.842 6.557-6.971 0-5.023-3.539-7.236-6.76-7.236h-.063zM329.537 480.558c0 1.43-.062 2.554-.106 3.665h2.195l.106-2.195h.053c.655 1.239 2.24 2.514 4.505 2.514 1.877 0 4.824-1.138 4.824-5.798v-8.108h-2.496v7.829c0 2.217-.814 4.063-3.142 4.063-1.594 0-2.877-1.146-3.31-2.554-.134-.283-.178-.752-.178-1.128v-8.21h-2.452v9.922zM351.276 470.636v11.728h-1.894v1.859h1.894v.66c0 1.903.425 3.655 1.611 4.735.859.899 2.116 1.235 3.258 1.235.867 0 1.61-.186 2.115-.35l-.345-1.942c-.363.194-.859.327-1.585.327-2.08 0-2.61-1.845-2.61-3.934v-.73h3.265v-1.86h-3.24v-11.728h-2.469zM364.518 472.19c2.355 0 4.125 2.23 4.125 5.297 0 2.306-1.15 5.222-4.036 5.222-2.93 0-4.205-2.735-4.205-5.275 0-3.005 1.673-5.245 4.09-5.245h.027zm-.08-1.855c-3.646 0-6.523 2.717-6.523 6.993 0 4.536 3.036 7.214 6.736 7.214 3.86 0 6.506-2.842 6.506-6.971 0-5.023-3.479-7.236-6.718-7.236zM374.335 479.974c0 1.638-.053 2.996-.124 4.249h2.16l.15-2.655h.062c.602 1.836 2.134 2.974 3.762 2.974.257 0 .443-.018.646-.076v-2.31c-.274.014-.522.032-.814.032-1.77 0-2.992-1.292-3.355-3.129-.07-.34-.07-.743-.07-1.177v-7.245h-2.47l.053 9.338zM391.95 489.556v-18.92h-2.497v18.92h2.496zM396.119 480.558c0 1.43 0 2.554-.116 3.665h2.187l.141-2.195h.07c.656 1.239 2.223 2.514 4.453 2.514 1.894 0 4.869-1.138 4.869-5.798v-8.108h-2.576v7.829c0 2.217-.726 4.063-3.072 4.063-1.61 0-2.859-1.146-3.355-2.554a5.375 5.375 0 0 1-.115-1.128v-8.21h-2.487v9.922zM414.574 487.498v-3.275h3.541v-1.859h-3.54v-7.329c0-1.673.45-2.638 1.832-2.638.672 0 1.088.07 1.451.16l.062-1.868c-.424-.19-1.15-.354-2.168-.354-1.142 0-2.054.403-2.647 1.04-.7.766-.965 1.987-.965 3.572v7.418h-2.107v1.858h2.107v2.501l2.434.775zM429.277 478.766c.045 1.558-.602 4.036-3.328 4.036-2.54 0-3.585-2.275-3.807-4.036h7.135zm-7.17-1.73c.07-3.355 2.151-4.74 4.612-4.74 1.761 0 2.85.323 3.753.685l.451-1.743c-.876-.394-2.354-.863-4.532-.863-4.142 0-6.674 2.77-6.674 6.85 0 4.112 2.46 7.352 6.382 7.352 4.417 0 5.603-3.895 5.603-6.382 0-.527-.07-.934-.07-1.2l-9.525.041zM434.774 479.974c0 1.638 0 2.996-.115 4.249h2.15l.133-2.655h.053c.655 1.836 2.17 2.974 3.824 2.974.266 0 .408-.018.655-.076v-2.31c-.248.014-.478.032-.858.032-1.726 0-2.966-1.292-3.31-3.129-.054-.34-.054-.743-.054-1.177v-7.245h-2.478v9.338zM444.033 480.558c0 1.43-.018 2.554-.116 3.665h2.222l.133-2.195h.027c.664 1.239 2.248 2.514 4.506 2.514 1.894 0 4.824-1.138 4.824-5.798v-8.108h-2.479v7.829c0 2.217-.876 4.063-3.177 4.063-1.55 0-2.842-1.146-3.258-2.554-.168-.283-.212-.752-.212-1.128v-8.21h-2.47v9.922zM466.746 477.571c-2.647.08-5.727-.407-5.727-3.054 0-1.628 1.089-2.368 2.328-2.368 1.761 0 2.93 1.116 3.328 2.28.045.27.07.54.07.805v2.337zm2.372-3.678c0-1.168.097-2.301.283-3.257h-2.213l-.238 1.721h-.115c-.708-1.053-2.178-2.022-4.099-2.022-2.78 0-4.187 1.943-4.187 3.894 0 3.307 2.922 5.086 8.126 5.064v.256c0 1.146-.239 3.178-3.054 3.173-1.283 0-2.602-.358-3.54-1.022l-.576 1.682c1.107.677 2.762 1.16 4.497 1.16 4.16 0 5.116-2.842 5.116-5.56v-5.089zM476.031 487.498v-3.275h3.488v-1.859h-3.488v-7.329c0-1.673.452-2.638 1.868-2.638.602 0 1.018.07 1.38.16l.09-1.868c-.452-.19-1.222-.354-2.134-.354-1.16 0-2.062.403-2.744 1.04-.61.766-.903 1.987-.903 3.572v7.418H471.5v1.858h2.09v2.501l2.442.775zM482.325 470.636v13.587h2.46v-13.587h-2.46zm1.16 16.088c-.904 0-1.523.748-1.523 1.61 0 .877.62 1.58 1.61 1.58.948 0 1.541-.703 1.541-1.58 0-.862-.593-1.61-1.584-1.61h-.046zM494.496 472.19c2.345 0 4.116 2.23 4.116 5.297 0 2.306-1.142 5.222-4.063 5.222-2.895 0-4.116-2.735-4.116-5.275 0-3.005 1.637-5.245 4.01-5.245h.053zm-.115-1.855c-3.612 0-6.489 2.717-6.489 6.993 0 4.536 3.036 7.214 6.736 7.214 3.904 0 6.56-2.842 6.56-6.971 0-5.023-3.559-7.236-6.745-7.236h-.062zM504.286 480.558c0 1.43-.053 2.554-.15 3.665h2.177l.195-2.195h.053c.672 1.239 2.239 2.514 4.46 2.514 1.877 0 4.834-1.138 4.834-5.798v-8.108h-2.479v7.829c0 2.217-.823 4.063-3.16 4.063-1.575 0-2.868-1.146-3.293-2.554-.115-.283-.177-.752-.177-1.128v-8.21h-2.46v9.922zM526.981 477.571c-2.646.08-5.7-.407-5.7-3.054 0-1.628 1.062-2.368 2.284-2.368 1.761 0 2.92 1.116 3.337 2.28.08.27.08.54.08.805v2.337zm2.4-3.678c0-1.168.07-2.301.23-3.257h-2.196l-.203 1.721h-.15c-.762-1.053-2.231-2.022-4.134-2.022-2.736 0-4.125 1.943-4.125 3.894 0 3.307 2.903 5.086 8.143 5.064v.256c0 1.146-.292 3.178-3.08 3.173-1.275 0-2.585-.358-3.54-1.022l-.62 1.682c1.115.677 2.797 1.16 4.478 1.16 4.25 0 5.196-2.842 5.196-5.56v-5.089zM533.363 490.57h2.47v-19.934h-2.47v19.934zM548.42 489.556v-7.913h9.108v7.913h2.47v-18.92h-2.47v8.878h-9.108v-8.878h-2.434v18.92h2.434zM572.77 478.766c.046 1.558-.583 4.036-3.345 4.036-2.54 0-3.603-2.275-3.762-4.036h7.108zm-7.151-1.73c.062-3.355 2.168-4.74 4.611-4.74 1.77 0 2.904.323 3.762.685l.478-1.743c-.885-.394-2.398-.863-4.576-.863-4.169 0-6.683 2.77-6.683 6.85 0 4.112 2.47 7.352 6.409 7.352 4.417 0 5.55-3.895 5.55-6.382 0-.527 0-.934-.046-1.2l-9.507.041zM585.402 477.571c-2.62.08-5.771-.407-5.771-3.054 0-1.628 1.115-2.368 2.354-2.368 1.744 0 2.921 1.116 3.329 2.28.088.27.088.54.088.805v2.337zm2.426-3.678c0-1.168.045-2.301.23-3.257h-2.249l-.238 1.721h-.098c-.726-1.053-2.195-2.022-4.116-2.022-2.744 0-4.098 1.943-4.098 3.894 0 3.307 2.823 5.086 8.108 5.064v.256c0 1.146-.301 3.178-3.107 3.173-1.222 0-2.629-.358-3.55-1.022l-.548 1.682c1.106.677 2.78 1.16 4.479 1.16 4.195 0 5.187-2.842 5.187-5.56v-5.089zM591.793 490.57h2.47v-19.934h-2.47v19.934zM601.344 487.498v-3.275h3.514v-1.859h-3.514v-7.329c0-1.673.46-2.638 1.815-2.638.699 0 1.088.07 1.425.16l.115-1.868c-.451-.19-1.24-.354-2.195-.354-1.16 0-2.063.403-2.63 1.04-.68.766-.99 1.987-.99 3.572v7.418h-2.063v1.858h2.062v2.501l2.461.775zM607.69 490.57h2.444v-8.48h.053c.336.712.991 1.354 1.717 1.735.77.442 1.602.717 2.558.717 1.815 0 4.736-1.138 4.736-5.798v-8.108h-2.479v7.802c0 2.244-.805 4.055-3.116 4.055-1.593 0-2.859-1.111-3.328-2.474-.141-.328-.141-.704-.141-1.173v-8.21h-2.443v19.934zM632.944 471.145c-.664-.328-2.177-.81-3.965-.81-4.08 0-6.727 2.766-6.727 6.957 0 4.196 2.806 7.25 7.267 7.25 1.451 0 2.761-.372 3.425-.73l-.593-1.877c-.522.3-1.522.655-2.832.655-3.143 0-4.807-2.346-4.807-5.156 0-3.173 2.045-5.116 4.736-5.116 1.38 0 2.337.363 3.063.663l.433-1.836zM642.947 477.571c-2.709.08-5.727-.407-5.727-3.054 0-1.628 1.062-2.368 2.266-2.368 1.832 0 2.956 1.116 3.372 2.28.089.27.089.54.089.805v2.337zm2.443-3.678c0-1.168.053-2.301.186-3.257h-2.222l-.248 1.721h-.062c-.708-1.053-2.178-2.022-4.17-2.022-2.743 0-4.142 1.943-4.142 3.894 0 3.307 2.921 5.086 8.126 5.064v.256c0 1.146-.274 3.178-3.063 3.173-1.239 0-2.576-.358-3.532-1.022l-.61 1.682c1.16.677 2.788 1.16 4.558 1.16 4.143 0 5.178-2.842 5.178-5.56v-5.089zM649.338 479.974c0 1.638 0 2.996-.116 4.249h2.222l.062-2.655h.115c.558 1.836 2.133 2.974 3.78 2.974.248 0 .425-.018.637-.076v-2.31c-.274.014-.566.032-.858.032-1.726 0-3.001-1.292-3.311-3.129-.045-.34-.045-.743-.045-1.177v-7.245h-2.488v9.338zM666.997 478.766c0 1.558-.682 4.036-3.444 4.036-2.558 0-3.62-2.275-3.824-4.036h7.268zm-7.268-1.73c.045-3.355 2.151-4.74 4.612-4.74 1.841 0 2.842.323 3.806.685l.416-1.743c-.858-.394-2.363-.863-4.505-.863-4.222 0-6.683 2.77-6.683 6.85 0 4.112 2.399 7.352 6.364 7.352 4.435 0 5.612-3.895 5.612-6.382 0-.527 0-.934-.115-1.2l-9.507.041z" style="fill:#231f20;fill-opacity:1;fill-rule:nonzero;stroke:none;stroke-width:4.53204" transform="matrix(1.33333 0 0 -1.33333 206.537 931.315)"/><path d="M-59.39 447.259v1.133l-1.132-1.133h1.133z" style="fill:#2857af;fill-opacity:1;fill-rule:nonzero;stroke:none;stroke-width:4.53204" transform="matrix(1.33333 0 0 -1.33333 206.537 931.315)"/><path d="m-60.522 447.259 1.133 1.133h-1.133v-1.133z" style="fill:#2857af;fill-opacity:1;fill-rule:nonzero;stroke:none;stroke-width:4.53204" transform="matrix(1.33333 0 0 -1.33333 206.537 931.315)"/><path d="M18.439 658.981s47.405-29.228 47.038-109.034c0 0 1.92 77.677-64.44 120.293l17.402-11.259z" style="fill:#0fab4b;fill-opacity:1;fill-rule:nonzero;stroke:none;stroke-width:4.53204" transform="matrix(1.33333 0 0 -1.33333 206.537 931.315)"/><path d="M40.834 641.225s12.241 9.135 6.975 19.712c0 0-4.656-.588-6.975-19.712zM36.82 649.368s11.701 14.132 2.593 24.97c0 0-5.214-1.978-2.594-24.97zM29.238 656.255s10.887 21.73-4.116 33.003c0 0-6.187-4.12 4.116-33.003z" style="fill:#0fab4b;fill-opacity:1;fill-rule:nonzero;stroke:none;stroke-width:4.53204" transform="matrix(1.33333 0 0 -1.33333 206.537 931.315)"/><path d="M16.261 662.19S32 688.249 3.683 698.486c0 0-10.29-5.612 12.578-36.296zM35.55 635.1s-10.455-15.102-23.343-9.206c0 0 .492 5.603 23.342 9.205zM29.238 639.79s-13.127-12.816-24.643-4.646c0 0 1.522 5.421 24.643 4.647zM23.325 647.757s-17.942-15.034-29.737-1.93c0 0 2.908 7.011 29.737 1.93z" style="fill:#0fab4b;fill-opacity:1;fill-rule:nonzero;stroke:none;stroke-width:4.53204" transform="matrix(1.33333 0 0 -1.33333 206.537 931.315)"/><path d="M13.81 657.547s-22.838-20.129-37.939 5.89c0 0 3.63 11.123 37.938-5.89zM2.267 670.072s-2.558 35.07-37.646 17.066c0 0-6.263-13.915 37.646-17.066z" style="fill:#0fab4b;fill-opacity:1;fill-rule:nonzero;stroke:none;stroke-width:4.53204" transform="matrix(1.33333 0 0 -1.33333 206.537 931.315)"/><g clip-path="url(#a)" transform="translate(-1167.045 3447.706) scale(6.04272)"><path d="M196.155-530.34c1.072-1.69 4.459 1.524 5.782-.196 1.328-1.715-1.777-7.416-.283-9.38 1.495-1.971 20.6-11.492.91-7.153-2.515.557.264-2.812 2.543-6.883 2.31-4.138-.502-2.704-.502-2.704-.139.033-.255.073-.383.108-6.494 3.088-11.09 10.721-11.09 19.659 0 4.129.988 7.987 2.687 11.24-.515-2.192-.609-3.213.336-4.691z" style="fill:url(#b);stroke:none"/></g><g clip-path="url(#c)" transform="translate(-1167.045 3447.706) scale(6.04272)"><path d="M241.134-551.95s-3.774-1.247-7.989-1.076c0 0-2.679.248-4.108-.959 0 0-5.827-5.305-11.4-5.053-1.41.058-2.789.47-4.06 1.407 0 0-5.743 3.932-7.15 6.908 0 0 11.887-.422 14.47.851 0 0 4.406 2.977.418 4.674 0 0-9.47.834-12.281 2.428 0 0-4.283 2.945-1.943 5.072 0 0 11.631-3.722 9.926-.516 0 0-1.263 6.357.024 7.206 0 0 .732 1.373 2.238-.32 0 0 2.155-3.256 3.804-5.49 0 0 3.536-3.678 4.467-.374 0 0 .633 1.03-1.351 6.544 0 0-3.35 6.013-2.41 5.907 0 0 6.794.031 11.069-3.818 2.097-1.893 3.587-4.725 3.345-8.982 0 0-.358-4.039-1.647-7.12 0 0-1.045-1.93.93-3.293 0 0 3.267-1.918 4.006-2.193 0 0 1.266-.735-.358-1.803z" style="fill:url(#d);stroke:none"/></g><g clip-path="url(#e)" transform="translate(-1167.045 3447.706) scale(6.04272)"><path d="M223.623-523.185s-2.199-.55-2.317 1.357c0 0 1.361 4.956-3.144 5.382 0 0-1.515.377-.945 1.052 7.283-.643 13.554-4.81 17.085-10.783-.28.135-.584.32-.94.57-2.513 1.786-6.624 2.358-9.74 2.422z" style="fill:url(#f);stroke:none"/></g><path d="M-37.756 497.81v-23.554H-64.62v-26.829H-89.338v26.829h-26.821v24.74h26.82v26.82h24.718v-26.82h26.866v-1.186zm-21.757 6.307v26.803h-34.92v-26.803h-26.825v-34.95h26.825v-26.848h34.92v26.847h26.86v34.951h-26.86z" style="fill:#2857af;fill-opacity:1;fill-rule:nonzero;stroke:none;stroke-width:4.53204" transform="matrix(1.33333 0 0 -1.33333 206.537 931.315)"/><path d="M-86.949 497.81v-1.168h-26.838v-20.023h26.839v-26.847h19.942v26.847h26.874v20.023H-67.006v26.825h-19.943V497.81z" style="fill:#2857af;fill-opacity:1;fill-rule:nonzero;stroke:none;stroke-width:4.53204" transform="matrix(1.33333 0 0 -1.33333 206.537 931.315)"/></svg>