<svg xmlns="http://www.w3.org/2000/svg" xml:space="preserve" width="1214.2515" height="300" viewBox="0 0 1214.2515 299.99999"><path d="m235.426 430.002 11.842-12.83h7.38l-12.968 14.052 12.19 13.21h-7.034l-11.41-12.365v18.225h-6.062v-30.647c-3.506.951-7.04 1.764-10.596 2.433-12.764 2.403-25.875 2.968-39.067 1.707l2.166-2.937c12.268 1.007 24.45.396 36.32-1.839 21.296-4.006 41.809-13.285 59.72-26.927H283c-14.392 11.575-30.574 20.317-47.574 25.767z" style="fill:#009ae1;fill-opacity:1;fill-rule:nonzero;stroke:none" transform="matrix(5.15217 0 0 -5.15217 -925.849 2320.083)"/><path d="M263.771 444.434h-6.061v-27.262h6.061zM283.486 432.83l-4.43 1.6c-1.73.648-3.017 1.244-3.017 2.863a1.95 1.95 0 0 0 1.951 1.951h11.3v5.19h-12.062c-4.197 0-7.599-3.079-7.599-7.277 0-4.816 3.531-6.886 7.441-8.246l4.43-1.6c1.728-.65 3.017-1.26 3.017-2.916 0-1.077-.912-2.034-2.078-2.034h-12.758v-5.189h13.647a7.599 7.599 0 0 1 7.597 7.6c0 5.022-3.53 6.696-7.439 8.057M303.918 425.045v14.199h6.23v5.19h-6.23v5.878h-6.148v-5.878h-3.995v-5.19h3.995V424.78a7.606 7.606 0 0 1 7.607-7.608v-.001h5.432v5.114h-4.133a2.76 2.76 0 0 0-2.758 2.759M330.137 423.244c-1.588-1.192-3.111-1.368-4.86-1.368-2.995 0-5.085 1.215-5.085 4.145v8.904c0 2.92 1.363 4.394 4.468 4.394h5.477zm-6.186 21.19c-6.054 0-9.822-3.526-9.822-9.247v-9.59c0-5.817 4.692-8.822 10.039-8.822 2.58 0 5.063.784 6.772 2.282l.658-1.884h4.525v27.261z" style="fill:#009ae1;fill-opacity:1;fill-rule:nonzero;stroke:none" transform="matrix(5.15217 0 0 -5.15217 -925.849 2320.083)"/><path d="M320.078 399.56v1.49h-1.868c.351.315.486 1.05.486 1.705v2.898h-9.568v-1.49h7.958v-1.705c0-.642-.138-1.407-.795-1.407h-8.473v-1.491h5.324v-2.422h-4.014v-1.49h7.886v-3.563h1.61v5.053h-3.87v2.422zM297.582 396.99h-1.609v-4.086c0-.444.368-.819.804-.819h8.37v1.49h-7.565zM305.001 402.706v3.191h-1.608v-9.507h1.608v4.825h1.746v1.491zM295.98 401.583c0 1.143.825 2.068 1.844 2.068 1.018 0 1.844-.925 1.844-2.068 0-1.142-.826-2.067-1.844-2.067-1.019 0-1.844.925-1.844 2.067m5.346 0c0 .848-.3 1.624-.802 2.23h1.35v1.491h-3.187v1.187h-1.727v-1.187h-3.184v-1.491h1.349a3.502 3.502 0 1 1 6.202-2.23M324.01 399.915h8.71v1.451h-7.905v.772h7.758v1.377h-7.758v.74h7.83v1.45h-9.44v-4.985c0-.436.37-.805.806-.805M321.796 397.529h12.26v1.49h-12.26zM323.097 395.17h7.9v-3.085h1.61v4.576h-9.51zM375.215 403.09v1.49h-1.746v1.318h-1.61v-4.873c0-.672-.748-.815-1.376-.815h-6.035v1.316h5.093v4.044h-6.775v-1.446h5.166v-1.226h-5.093v-3.313c0-.445.368-.82.805-.82h6.547c.682 0 1.37.157 1.669.498v-1.065h1.609v2.329h1.746v1.49h-1.746v1.074zM364.002 396.005h7.857v-3.92h1.61v5.41h-9.467zM353.057 393.575v3.563h-1.61v-4.234c0-.444.37-.819.806-.819h8.368v1.49zM355.957 401.51h2.91v-5.12h1.609v9.508h-1.609v-2.896h-2.91z" style="fill:#727272;fill-opacity:1;fill-rule:nonzero;stroke:none" transform="matrix(5.15217 0 0 -5.15217 -925.849 2320.083)"/><path d="M352.863 400.673c.733-1.112 1.95-2.003 3.28-2.395l.057-.017.782 1.266-.097.028c-1.454.426-3.188 1.484-3.188 4.112v.412h2.633v1.49h-6.934v-1.49h2.633v-.412c0-2.628-1.733-3.686-3.188-4.112l-.097-.028.782-1.266.057.017c1.33.392 2.547 1.283 3.28 2.395M406.786 396.39h1.61v1.93h4.364v1.49h-9.029v-1.49h3.055zM407.813 393.575v2.227h-1.609v-2.898c0-.444.37-.819.804-.819h8.37v1.49z" style="fill:#727272;fill-opacity:1;fill-rule:nonzero;stroke:none" transform="matrix(5.15217 0 0 -5.15217 -925.849 2320.083)"/><path d="M410.568 396.315h3.056v-1.113h1.61v10.694h-1.61v-8.09h-3.056zM407.926 404.45c.928 0 1.654-.604 1.654-1.377s-.726-1.378-1.654-1.378c-.928 0-1.654.605-1.654 1.378 0 .773.726 1.377 1.654 1.377m0-4.2c1.815 0 3.293 1.266 3.293 2.823s-1.478 2.823-3.293 2.823c-1.815 0-3.293-1.266-3.293-2.823s1.478-2.824 3.293-2.824M393.51 394.59h7.567v3.854h-9.25v-1.447h7.643v-1.033h-7.568v-3.076c0-.436.368-.803.803-.803h8.447v1.445h-7.642zM401.077 403.298v2.598h-1.607v-6.75h1.607v2.692h1.746v1.46zM395.761 400.997h-3.735v1.687h3.735zm1.608-.656v5.332h-1.608v-1.559h-3.736v1.559h-1.609v-5.332c0-.436.368-.804.805-.804h5.344c.436 0 .804.368.804.804M386.451 405.897v-3.934h-1.198v3.933h-1.566v-13.812h1.566v8.387h1.198v-8.387h1.565v13.812zM377.059 404.11h3.668c-.154-2.95-1.05-5.759-4.653-7.518l.956-1.168c4.065 2.238 5.32 5.294 5.524 10.174h-5.495zM339.56 397.542c-1.081 0-1.957 1.328-1.957 2.965 0 1.638.876 2.965 1.957 2.965 1.08 0 1.957-1.327 1.957-2.965 0-1.637-.877-2.965-1.957-2.965m5.694 8.354v-4.66h-2.155c-.128.919-.49 1.74-1.011 2.368h1.542v1.489h-3.207v1.396h-1.727v-1.396h-3.207v-1.489h1.543c-.66-.791-1.067-1.885-1.067-3.097 0-2.407 1.61-4.36 3.595-4.36 1.77 0 3.237 1.555 3.535 3.598h2.159v-7.66h1.61v13.811z" style="fill:#727272;fill-opacity:1;fill-rule:nonzero;stroke:none" transform="matrix(5.15217 0 0 -5.15217 -925.849 2320.083)"/></svg>