<svg xmlns="http://www.w3.org/2000/svg" xml:space="preserve" width="1052.7439" height="200" viewBox="0 0 1052.7439 200"><path d="M-182.479 386.955c5.47 0 9.899 4.282 9.899 9.567 0 5.283-4.43 9.566-9.899 9.566-5.466 0-9.898-4.283-9.898-9.566 0-5.285 4.432-9.567 9.898-9.567" style="fill:#e60013;fill-opacity:1;fill-rule:nonzero;stroke:none;stroke-width:2.29391" transform="matrix(1.33333 0 0 -1.33333 376.149 583.948)"/><path d="M-191.018 334.91c-.773-.672-2.195-1.174-4.276-1.511v-2.737h28.201v2.737c-2.12.413-3.562.97-4.333 1.677-.773.706-1.158 2.307-1.158 4.805v43.456h-22.71v-2.794c2.388-.41 3.99-1.032 4.797-1.872.807-.835 1.213-2.41 1.213-4.716V340.33c0-2.606-.578-4.412-1.734-5.419" style="fill:#1d2088;fill-opacity:1;fill-rule:nonzero;stroke:none;stroke-width:2.29391" transform="matrix(1.33333 0 0 -1.33333 376.149 583.948)"/><path d="m-145.617 317.596-.179 65.799-22.822-.057v-2.794c2.468-.335 4.131-.92 4.998-1.76.867-.837 1.301-2.447 1.301-4.83v-57.475c0-2.42-.461-4.065-1.388-4.943-.92-.874-2.658-1.443-5.198-1.705v-2.736h32.36v2.346c-3.122.186-5.344.838-6.675 1.955-1.326 1.117-2.129 3.184-2.397 6.2" style="fill:#1d2088;fill-opacity:1;fill-rule:nonzero;stroke:none;stroke-width:2.29391" transform="matrix(1.33333 0 0 -1.33333 376.149 583.948)"/><path d="M-65.319 397.854c0 3.39-1.624 6.116-4.881 8.183-3.258 2.066-7.235 3.1-11.933 3.1-8.825 0-14.874-3.204-18.147-9.606-1.734-3.427-2.597-7.804-2.597-13.123v-.764c-9.44 19.236-37.28 33.183-70.182 33.183-29.835 0-55.502-11.471-67.065-27.956v17.097h-22.191v-2.794c2.195-.484 3.7-1.099 4.507-1.842.805-.746 1.214-2.328 1.214-4.746V340.33c0-2.537-.432-4.2-1.301-5.003-.865-.801-2.342-1.443-4.42-1.927v-2.737h28.2v2.737c-2.699.337-4.374.931-5.027 1.789-.656.856-.982 2.57-.982 5.14v11.395c7.973-11.397 22.657-20.414 40.836-24.894v13.44c-23.253 5.255-39.937 19.551-39.937 36.368 0 21.273 26.694 38.521 59.628 38.521 32.932 0 59.63-17.248 59.63-38.521 0-10.839-10.49-21.522-21.64-28.523v-21.26c17.853 6.733 32.227 20.132 38.73 33.746v-20.668c0-2.723-.534-4.505-1.592-5.363-1.062-.858-2.805-1.379-5.23-1.563v-2.74h32.88v2.74c-4.041.26-6.651.838-7.83 1.73-1.175.895-1.762 3.317-1.762 7.258v35.136h10.283v5.03H-86.41v14.8c0 3.575.52 5.903 1.56 6.983 1.039 1.079 2.523 1.62 4.452 1.62.803 0 1.555-.133 2.255-.392.69-.262 1.035-.858 1.035-1.787 0-.3-.432-1.147-1.299-2.542-.867-1.397-1.3-2.73-1.3-3.991 0-1.677.676-3.115 2.025-4.306 1.344-1.188 2.962-1.785 4.856-1.785 2.269 0 4.093.652 5.458 1.955 1.367 1.303 2.05 3.016 2.05 5.138m-37.583-20.597h-7.882v5.026h7.882z" style="fill:#1d2088;fill-opacity:1;fill-rule:nonzero;stroke:none;stroke-width:2.29391" transform="matrix(1.33333 0 0 -1.33333 376.149 583.948)"/><path d="M-31.06 392.923v-3.973h-13.68v-7.564h3.252c-1.334-2.022-2.094-4.344-2.094-6.815 0-7.822 7.599-14.16 16.983-14.16 9.378 0 16.983 6.338 16.983 14.16 0 2.47-.761 4.793-2.095 6.815h3.25v7.564h-13.483v3.973zm4.461-12.083c4.244 0 7.68-2.764 7.68-6.168 0-3.409-3.436-6.17-7.68-6.17s-7.681 2.761-7.681 6.17c0 3.404 3.437 6.168 7.681 6.168z" style="fill:#1d2088;fill-opacity:1;fill-rule:nonzero;stroke:none;stroke-width:2.29392" transform="matrix(1.33333 0 0 -1.33333 376.149 583.948)"/><path d="M-3.806 389.727v-43.842h9.184v24.61H10.6v7.966H5.38v11.266zM5.31 329.85v8.029h-35.39v11.141h-9.113v-15.842s0-2.42 3.101-3.328zM47.896 349.272v11.192h19.457v26.58s.214 3.633-3.638 4.154H18.757v-8.09H57.95v-14.363H18.796v-8.281h19.37v-10.882h-19.41v-8.316h39.245v-11.64h9.458v15.9s-1.104 1.785-3.85 3.746zM98.351 356.145V339.45H79.112v-8.141h48.443v8.14H108.13v16.696zM98.19 373.246v8.194H80.086v8.276h46.496v-8.276h-18.106v-8.16s0-6.785 8.749-6.888h9.357v-7.515h-9.458s-13.89.42-13.89 6.889l.204-.032c0-6.472-13.89-6.887-13.89-6.887h-9.462v7.513h9.36c8.744.103 8.744 6.886 8.744 6.886M175.323 329.787l-.018 63.18h-8.795v-13.432h-8.637v-7.916h8.637v-41.832zM186.19 329.787l-.032 63.18h-8.54v-63.18z" style="fill:#1d2088;fill-opacity:1;fill-rule:nonzero;stroke:none;stroke-width:2.29391" transform="matrix(1.33333 0 0 -1.33333 376.149 583.948)"/><path d="M164.14 356.12v8.382c-10.16 0-10.256 7.756-10.256 7.756V391.35h-9.3v-19.092s-.096-7.756-10.251-7.756v-8.382s10.63-1.041 14.901 4.998c4.271-6.04 14.906-4.998 14.906-4.998M206.557 371.898v11.221h-10.34v8.233h29.749v-8.233h-9.937V371.932s.488-7.726 8.545-7.827h1.392v-7.473h-1.491s-13.273.412-13.273 6.85l.186-.03c0-6.437-12.3-6.853-12.3-6.853h-2.872v7.474h2.78c8.05.103 7.561 7.825 7.561 7.825" style="fill:#1d2088;fill-opacity:1;fill-rule:nonzero;stroke:none;stroke-width:2.29391" transform="matrix(1.33333 0 0 -1.33333 376.149 583.948)"/><path d="m680.85 59.887-.022 84.343h11.516V88.488h3.293v55.74h11.45l-.036-84.341h-11.414v18.08h-3.293v-18.08Z" style="fill:#1d2088;fill-opacity:1;fill-rule:nonzero;stroke:none;stroke-width:3.05855"/><path d="M308.403 391.48v-32.771h-9.265v14.112h-8.604v7.73h8.604v10.929zM271.457 343.73c0 7.719 7.372 13.979 16.47 13.979 9.098 0 16.468-6.26 16.468-13.98 0-7.716-7.37-13.976-16.468-13.976-9.098 0-16.47 6.26-16.47 13.977m16.47-6.086c4.365 0 7.896 2.725 7.896 6.086 0 3.363-3.53 6.088-7.896 6.088-4.363 0-7.9-2.725-7.9-6.088 0-3.36 3.537-6.086 7.9-6.086M268.363 374.051v9.089h-10.096v8.24h29.583v-8.24h-10.066v-11.78 2.723s.665-6.36 8.678-6.46h1.388v-7.044h-1.482s-13.385.39-13.385 6.458l.186-.028c0-6.067-12.053-6.46-12.053-6.46h-2.849v7.045h2.758c8.005.099 7.338 6.457 7.338 6.457M428.852 360.388v26.721s.1 4.045-4.689 4.249h-43.837v-8.27l39.228.02V368.26H380.41v-7.976h19.122V329.83h10.008v30.558z" style="fill:#1d2088;fill-opacity:1;fill-rule:nonzero;stroke:none;stroke-width:2.29391" transform="matrix(1.33333 0 0 -1.33333 376.149 583.948)"/><path d="M457.229 391.46c-9.683 0-17.535-6.414-17.535-14.33 0-3.315 1.38-6.365 3.691-8.793h-4.504v-7.962h14.28v-11.346h9.026v11.452h15.968v-2.588h-8.735v-6.932h8.834v-6.206h9.396v46.542h-9.396v-22.96h-7.184c2.31 2.428 3.691 5.478 3.691 8.792 0 7.917-7.852 14.33-17.532 14.33zm0-7.502c4.879 0 8.836-3.014 8.836-6.726 0-3.716-3.957-6.73-8.836-6.73-4.88 0-8.836 3.014-8.836 6.73 0 3.712 3.957 6.726 8.836 6.726zm-14.529-34.99v-13.723s.298-4.549 3.769-5.38h41.18v8.066h-35.13v11.023z" style="fill:#1d2088;fill-opacity:1;fill-rule:nonzero;stroke:none;stroke-width:2.29392" transform="matrix(1.33333 0 0 -1.33333 376.149 583.948)"/><path d="M323.258 348.542v-14.218s.172-3.404 2.936-4.537h42.43v8.037h-35.617v10.718zM358.972 391.31v-6.078h-8.898v-7.315h8.72v-5.047h-8.72v-6.994h8.988v-19.274h9.563v44.709zM318.558 376.003c0 8.494 6.847 15.38 15.298 15.38 8.446 0 15.296-6.886 15.296-15.38 0-8.49-6.85-15.379-15.296-15.379-8.45 0-15.298 6.889-15.298 15.379m15.298-6.699c4.051 0 7.331 3 7.331 6.699 0 3.702-3.28 6.7-7.33 6.7-4.057 0-7.341-2.998-7.341-6.7 0-3.698 3.284-6.699 7.34-6.699" style="fill:#1d2088;fill-opacity:1;fill-rule:nonzero;stroke:none;stroke-width:2.29391" transform="matrix(1.33333 0 0 -1.33333 376.149 583.948)"/></svg>