<svg xmlns="http://www.w3.org/2000/svg" xml:space="preserve" width="601.84558" height="100" viewBox="0 0 601.84559 100"><defs><clipPath id="a" clipPathUnits="userSpaceOnUse"><path d="M0 70.866h141.732V0H0Z"/></clipPath></defs><g clip-path="url(#a)" transform="matrix(5.4043 0 0 -5.4043 -82.526 243.836)"><path d="M0 0c2.067-1.572 5.855-.067 8.461 3.359 2.606 3.427 3.043 7.479.977 9.051-2.068 1.572-5.856.068-8.462-3.359C-1.63 5.625-2.067 1.572 0 0" style="fill:#f29200;fill-opacity:1;fill-rule:nonzero;stroke:none" transform="translate(26.676 29.69)"/><path d="M0 0v-1.146h1.548v-5.752h1.39v5.752h1.549V0Z" style="fill:#231916;fill-opacity:1;fill-rule:nonzero;stroke:none" transform="translate(42.172 38.93)"/><path d="M0 0v1.061h-2.312v2.016h2.063v1.06h-2.063v1.7h2.239v1.061h-3.63V0Z" style="fill:#231916;fill-opacity:1;fill-rule:nonzero;stroke:none" transform="translate(41.117 32.032)"/><path d="M0 0h-.617v1.92H0c.444 0 .711-.248.711-.906C.711.574.553 0 0 0m2.092-1.892c0 1.243-.901 1.319-1.207 1.357v.02c.904.153 1.235.812 1.235 1.691 0 1.175-.608 1.805-1.557 1.805h-2.571v-6.898h1.391v2.857h.36c1.069 0 .996-.698.996-1.519 0-.449-.038-.917.146-1.338h1.364c-.129.287-.157 1.586-.157 2.025" style="fill:#231916;fill-opacity:1;fill-rule:nonzero;stroke:none" transform="translate(23.203 35.95)"/><path d="m0 0-1.632-2.952h-.019V0h-1.391v-6.897h1.391v3.536h.019l1.594-3.536h1.567L-.333-3.095 1.529 0Z" style="fill:#231916;fill-opacity:1;fill-rule:nonzero;stroke:none" transform="translate(18.313 38.93)"/><path d="M29.219 38.93h-1.392v-6.898h1.392z" style="fill:#231916;fill-opacity:1;fill-rule:nonzero;stroke:none"/><path d="M0 0h1.632l1.759 6.898H2.018L.856 1.882H.838L-.194 6.898H-1.64Z" style="fill:#231916;fill-opacity:1;fill-rule:nonzero;stroke:none" transform="translate(32.524 32.032)"/><path d="M0 0v-4.325h.182v-.023H3.08v1.345H1.523V0Z" style="fill:#231916;fill-opacity:1;fill-rule:nonzero;stroke:none" transform="translate(123.541 37.6)"/><path d="M0 0v-.852h-1.487v-1.253H0v-.591h-1.487v-1.249H0v-3.366h1.525V0Z" style="fill:#231916;fill-opacity:1;fill-rule:nonzero;stroke:none" transform="translate(98.885 44.751)"/><path d="M0 0v-.852h-1.488v-1.253H0v-.591h-1.488v-1.249H0v-3.201h1.525V0Z" style="fill:#231916;fill-opacity:1;fill-rule:nonzero;stroke:none" transform="translate(108.356 44.751)"/><path d="M0 0H-3.336v-1.346h2.217v-2.725H.405V0Z" style="fill:#231916;fill-opacity:1;fill-rule:nonzero;stroke:none" transform="translate(98.457 37.37)"/><path d="M0 0h-.004v.379h-4.131V-.964h2.608v-.459h-2.608V-4.424h4.131v1.342h-2.582v.317h2.582v.611H0Z" style="fill:#231916;fill-opacity:1;fill-rule:nonzero;stroke:none" transform="translate(96.872 44.357)"/><path d="M0 0v1.342h-1.905v3.477h-3.504V3.476h1.978V1.342h-2.43V0h2.43v-3.662l1.67-.006v-2.959H-.24v4.332h-1.665V0Z" style="fill:#231916;fill-opacity:1;fill-rule:nonzero;stroke:none" transform="translate(66.644 39.933)"/><path d="M73.841 37.664h1.524v7.088h-1.524zM113.962 33.301h1.523v6.084h-1.523z" style="fill:#231916;fill-opacity:1;fill-rule:nonzero;stroke:none"/><path d="m0 0-1.924 2.224h1.552v1.343h-5.173V2.224h1.611L-5.857 0l1.169-.95 1.759 2.031 1.76-2.031z" style="fill:#231916;fill-opacity:1;fill-rule:nonzero;stroke:none" transform="translate(73.14 41.184)"/><path d="M0 0v-1.343h2.359v-2.989h1.526V0Z" style="fill:#231916;fill-opacity:1;fill-rule:nonzero;stroke:none" transform="translate(69.932 37.638)"/><path d="M0 0h-1.749l.018 2.833v.006h-1.522V-1.33H0Z" style="fill:#231916;fill-opacity:1;fill-rule:nonzero;stroke:none" transform="translate(58.477 34.637)"/><path d="M0 0h-1.545l.019 2.926v.043h-1.523V-1.33H0Z" style="fill:#231916;fill-opacity:1;fill-rule:nonzero;stroke:none" transform="translate(109.883 34.637)"/><path d="M0 0v2.943h-1.524v-1.39h-2.743v1.391h-1.524V1.553h-3.003V.21h1.579a2.293 2.293 0 0 1-.217-.971c0-1.305 1.087-2.364 2.429-2.364 1.338 0 2.424 1.059 2.424 2.364 0 .345-.079.676-.216.971h1.271v-4.518H0v2.965h1.74V0Zm-5.003-1.672a.923.923 0 0 0-.936.911c0 .499.419.903.936.903.512 0 .93-.404.93-.903a.92.92 0 0 0-.93-.911" style="fill:#231916;fill-opacity:1;fill-rule:nonzero;stroke:none" transform="translate(58.25 41.808)"/><path d="M92.07 39.701h-6.816v-1.345h6.816ZM118.293 40.303h-7.237v-1.338h7.237z" style="fill:#231916;fill-opacity:1;fill-rule:nonzero;stroke:none"/><path d="M0 0v3.013h-1.526V-1.342h4.599V0Z" style="fill:#231916;fill-opacity:1;fill-rule:nonzero;stroke:none" transform="translate(88.066 41.738)"/><path d="M0 0h-3.648v1.335H1.342v-4.122H0Z" style="fill:#231916;fill-opacity:1;fill-rule:nonzero;stroke:none" transform="translate(115.51 43.348)"/><path d="M0 0c.568 0 1.027.449 1.027 1.001 0 .551-.459 1.002-1.027 1.002-.571 0-1.033-.451-1.033-1.002C-1.033.449-.571 0 0 0m-2.523 1.001c0 1.353 1.129 2.45 2.523 2.45 1.391 0 2.518-1.097 2.518-2.45C2.518-.353 1.391-1.45 0-1.45c-1.394 0-2.523 1.097-2.523 2.451" style="fill:#231916;fill-opacity:1;fill-rule:nonzero;stroke:none" transform="translate(88.808 34.459)"/><path d="M0 0c.567 0 1.027.448 1.027 1 0 .551-.46 1.002-1.027 1.002-.572 0-1.034-.451-1.034-1.002 0-.552.462-1 1.034-1m-2.523 1c0 1.354 1.129 2.451 2.523 2.451 1.392 0 2.518-1.097 2.518-2.451S1.392-1.451 0-1.451C-1.394-1.451-2.523-.354-2.523 1" style="fill:#231916;fill-opacity:1;fill-rule:nonzero;stroke:none" transform="translate(103.982 41.248)"/><path d="M0 0h-5.18v-1.345h1.72v-1.582h1.525v1.582H0Z" style="fill:#231916;fill-opacity:1;fill-rule:nonzero;stroke:none" transform="translate(124.427 40.342)"/><path d="M0 0a.93.93 0 0 0-.942.92c0 .503.421.914.942.914.521 0 .943-.411.943-.914A.932.932 0 0 0 0 0m3.313 2.764V1.165H2.294C2.168 2.289 1.189 3.162 0 3.162c-1.273 0-2.312-1.005-2.312-2.242 0-1.242 1.039-2.249 2.312-2.249.864 0 1.617.466 2.014 1.151h1.299v-4.116h1.524v7.058z" style="fill:#231916;fill-opacity:1;fill-rule:nonzero;stroke:none" transform="translate(121.752 41.957)"/><path d="M79.63 35.601h1.503v-.951H79.63Zm1.503 2.037v-.693H79.63v.693h-1.524v-4.332h4.551v4.332z" style="fill:#231916;fill-opacity:1;fill-rule:nonzero;stroke:none"/><path d="M0 0c-.569 0-1.03.45-1.03 1.003 0 .553.461 1 1.03 1 .567 0 1.03-.447 1.03-1C1.03.45.567 0 0 0m3.789 3.505V1.743H2.4c-.321.993-1.272 1.709-2.4 1.709-1.391 0-2.521-1.097-2.521-2.449 0-1.355 1.13-2.452 2.521-2.452 1.177 0 2.164.789 2.44 1.849h1.349v-3.984h1.524v7.089z" style="fill:#231916;fill-opacity:1;fill-rule:nonzero;stroke:none" transform="translate(78.868 41.246)"/><path d="M0 0h.35v-1.22L1.242 0h.432L.875-1.07l.854-1.611h-.437L.636-1.399l-.286-.38v-.902H0Z" style="fill:#231916;fill-opacity:1;fill-rule:nonzero;stroke:none" transform="translate(49.45 30.066)"/><path d="M0 0a.619.619 0 0 0-.311.077.687.687 0 0 0-.229.211.99.99 0 0 0-.143.324 1.619 1.619 0 0 0-.049.413c0 .148.016.284.049.41a.98.98 0 0 0 .143.322.629.629 0 0 0 .54.29.625.625 0 0 0 .539-.29c.064-.09.111-.197.145-.322.031-.126.048-.262.048-.41C.732.875.715.737.684.612A1.014 1.014 0 0 0 .539.288.678.678 0 0 0 .31.077.615.615 0 0 0 0 0m0 .339c.071 0 .133.017.185.058.052.04.095.093.129.159a.843.843 0 0 1 .075.219c.014.081.024.165.024.25 0 .082-.01.165-.024.248a.783.783 0 0 1-.075.219.45.45 0 0 1-.129.155.29.29 0 0 1-.185.062.29.29 0 0 1-.185-.062.43.43 0 0 1-.129-.155.752.752 0 0 1-.075-.219 1.398 1.398 0 0 1-.024-.248c0-.085.009-.169.024-.25A.808.808 0 0 1-.314.556.444.444 0 0 1-.185.397.288.288 0 0 1 0 .339" style="fill:#231916;fill-opacity:1;fill-rule:nonzero;stroke:none" transform="translate(51.984 27.333)"/><path d="M0 0h.301v-.375h.005a.513.513 0 0 0 .054.152.623.623 0 0 0 .227.239.346.346 0 0 0 .22.032L.85.042v-.414c-.022.006-.045.009-.068.013a.337.337 0 0 1-.07.006.283.283 0 0 1-.153-.044.387.387 0 0 1-.124-.127.695.695 0 0 1-.084-.208 1.17 1.17 0 0 1-.032-.287v-.923H0Z" style="fill:#231916;fill-opacity:1;fill-rule:nonzero;stroke:none" transform="translate(52.977 29.327)"/><path d="M0 0c0-.075.008-.148.024-.218a.6.6 0 0 1 .072-.184.36.36 0 0 1 .12-.125.301.301 0 0 1 .174-.048c.093 0 .169.026.225.081.057.054.1.134.128.242h.304a1.024 1.024 0 0 0-.088-.282.727.727 0 0 0-.148-.208.599.599 0 0 0-.421-.172.583.583 0 0 0-.303.076.665.665 0 0 0-.223.21.97.97 0 0 0-.137.323 1.718 1.718 0 0 0-.046.413c0 .138.015.268.048.394.034.123.08.231.141.325a.724.724 0 0 0 .22.224.53.53 0 0 0 .292.083.514.514 0 0 0 .307-.097.762.762 0 0 0 .226-.253 1.21 1.21 0 0 0 .13-.362c.027-.136.034-.277.022-.422Zm.747.281a.903.903 0 0 1-.034.196.61.61 0 0 1-.072.163.392.392 0 0 1-.113.113.266.266 0 0 1-.146.043.304.304 0 0 1-.153-.04.363.363 0 0 1-.118-.11.575.575 0 0 1-.079-.163A.718.718 0 0 1 0 .281Z" style="fill:#231916;fill-opacity:1;fill-rule:nonzero;stroke:none" transform="translate(54.157 28.246)"/><path d="M0 0c0-.053.005-.091.016-.113.009-.022.03-.033.06-.033h.033c.013 0 .029.002.045.006v-.296A.588.588 0 0 0 .056-.47C.038-.474.019-.479 0-.481a.49.49 0 0 0-.047-.003.248.248 0 0 0-.163.051c-.043.037-.071.097-.085.185a.554.554 0 0 0-.233-.181.707.707 0 0 0-.269-.055.527.527 0 0 0-.188.035.46.46 0 0 0-.267.282.683.683 0 0 0-.041.25c0 .12.016.218.049.293a.481.481 0 0 0 .129.177.554.554 0 0 0 .179.092c.067.018.134.033.201.042.058.015.113.026.166.033A.567.567 0 0 1-.43.752.205.205 0 0 1-.336.82C-.312.852-.3.898-.3.962c0 .055-.011.1-.029.135a.22.22 0 0 1-.074.08.26.26 0 0 1-.097.038.513.513 0 0 1-.1.01.328.328 0 0 1-.222-.076C-.879 1.1-.912 1.021-.92.916h-.319c.005.125.028.23.067.313a.553.553 0 0 0 .15.198c.06.051.129.085.205.105a.95.95 0 0 0 .237.03.75.75 0 0 0 .21-.03.49.49 0 0 0 .319-.272A.604.604 0 0 0 0 .999Zm-.319.541A.339.339 0 0 0-.5.463 2.245 2.245 0 0 1-.712.425.956.956 0 0 1-.811.393.284.284 0 0 1-.895.336.237.237 0 0 1-.952.242a.42.42 0 0 1-.021-.14c0-.047.01-.088.031-.122a.268.268 0 0 1 .074-.076.29.29 0 0 1 .096-.039.404.404 0 0 1 .209.007.343.343 0 0 1 .206.178.37.37 0 0 1 .038.171z" style="fill:#231916;fill-opacity:1;fill-rule:nonzero;stroke:none" transform="translate(56.676 27.817)"/><path d="M0 0h.956c.22 0 .386-.062.496-.19.11-.128.165-.307.165-.535a.99.99 0 0 0-.042-.317.784.784 0 0 0-.097-.203.41.41 0 0 0-.112-.11.377.377 0 0 0-.08-.044v-.009a.291.291 0 0 0 .098-.037.31.31 0 0 0 .095-.096.543.543 0 0 0 .076-.171c.019-.07.029-.158.029-.263 0-.158.009-.301.027-.429a.675.675 0 0 1 .082-.277h-.375a.553.553 0 0 0-.047.192c-.004.07-.007.136-.007.203 0 .122-.005.227-.016.317a.673.673 0 0 1-.062.221.284.284 0 0 1-.122.129.415.415 0 0 1-.198.042H.35v-1.104H0Zm.35-1.22h.575c.113 0 .198.035.255.107.058.071.088.178.088.321 0 .085-.01.155-.029.209a.314.314 0 0 1-.077.126.253.253 0 0 1-.113.06.549.549 0 0 1-.129.014H.35Z" style="fill:#231916;fill-opacity:1;fill-rule:nonzero;stroke:none" transform="translate(57.834 30.066)"/><path d="M0 0c0-.075.007-.148.024-.218a.6.6 0 0 1 .072-.184.367.367 0 0 1 .119-.125.307.307 0 0 1 .175-.048c.093 0 .169.026.225.081.057.054.1.134.128.242h.304a1.024 1.024 0 0 0-.088-.282.746.746 0 0 0-.148-.208.599.599 0 0 0-.421-.172.583.583 0 0 0-.303.076.668.668 0 0 0-.224.21.99.99 0 0 0-.136.323 1.67 1.67 0 0 0-.046.413c0 .138.015.268.048.394.033.123.08.231.14.325a.738.738 0 0 0 .221.224.53.53 0 0 0 .292.083.514.514 0 0 0 .307-.097.762.762 0 0 0 .226-.253A1.411 1.411 0 0 0 1.065 0Zm.747.281a.903.903 0 0 1-.034.196.61.61 0 0 1-.072.163.392.392 0 0 1-.113.113.266.266 0 0 1-.146.043.304.304 0 0 1-.153-.04.363.363 0 0 1-.118-.11.55.55 0 0 1-.079-.163A.718.718 0 0 1 0 .281Z" style="fill:#231916;fill-opacity:1;fill-rule:nonzero;stroke:none" transform="translate(60.007 28.246)"/><path d="M0 0c.01-.125.045-.213.107-.263a.333.333 0 0 1 .221-.076.574.574 0 0 1 .21.046.209.209 0 0 1 .083.076.228.228 0 0 1 .029.135.208.208 0 0 1-.045.134.293.293 0 0 1-.107.085.796.796 0 0 1-.15.054l-.171.05C.117.259.06.278.004.304a.51.51 0 0 0-.148.102.456.456 0 0 0-.106.162.682.682 0 0 0-.039.246c0 .107.019.194.058.266.039.07.087.13.145.173a.59.59 0 0 0 .197.091.754.754 0 0 0 .42-.005.518.518 0 0 0 .323-.289.766.766 0 0 0 .068-.276H.589C.573.877.54.945.484.98a.346.346 0 0 1-.189.052.657.657 0 0 1-.081-.006.291.291 0 0 1-.086-.029.18.18 0 0 1-.068-.06.171.171 0 0 1-.029-.104.19.19 0 0 1 .04-.127.331.331 0 0 1 .107-.082.968.968 0 0 1 .15-.053 6.14 6.14 0 0 0 .174-.05C.56.504.617.483.673.458A.493.493 0 0 0 .93.196a.633.633 0 0 0 .04-.241.656.656 0 0 0-.059-.294.552.552 0 0 0-.153-.195.638.638 0 0 0-.208-.109.79.79 0 0 0-.481.007.55.55 0 0 0-.337.337A.865.865 0 0 0-.319 0Z" style="fill:#231916;fill-opacity:1;fill-rule:nonzero;stroke:none" transform="translate(61.552 28.009)"/><path d="M0 0c0-.075.007-.148.024-.218a.6.6 0 0 1 .072-.184.358.358 0 0 1 .119-.125.303.303 0 0 1 .174-.048c.094 0 .17.026.226.081.057.054.1.134.127.242h.304a.991.991 0 0 0-.087-.282.767.767 0 0 0-.148-.208.61.61 0 0 0-.724-.096.678.678 0 0 0-.224.21.968.968 0 0 0-.136.323 1.718 1.718 0 0 0-.046.413c0 .138.015.268.048.394.033.123.079.231.141.325a.724.724 0 0 0 .22.224.527.527 0 0 0 .291.083.514.514 0 0 0 .307-.097.741.741 0 0 0 .226-.253c.06-.104.104-.226.13-.362A1.48 1.48 0 0 0 1.066 0Zm.746.281a.967.967 0 0 1-.033.196A.58.58 0 0 1 .64.64a.39.39 0 0 1-.112.113.267.267 0 0 1-.147.043.303.303 0 0 1-.152-.04.363.363 0 0 1-.118-.11.527.527 0 0 1-.079-.163A.718.718 0 0 1 0 .281Z" style="fill:#231916;fill-opacity:1;fill-rule:nonzero;stroke:none" transform="translate(63.01 28.246)"/><path d="M0 0a.3.3 0 0 1 .015-.113c.01-.022.031-.033.061-.033h.033c.013 0 .029.002.045.006v-.296L.111-.452A.505.505 0 0 0 .056-.47C.037-.474.019-.479 0-.481a.471.471 0 0 0-.047-.003.248.248 0 0 0-.163.051c-.043.037-.072.097-.085.185a.548.548 0 0 0-.233-.181.703.703 0 0 0-.269-.055.523.523 0 0 0-.188.035.447.447 0 0 0-.157.105.498.498 0 0 0-.11.177.683.683 0 0 0-.041.25c0 .12.017.218.049.293a.481.481 0 0 0 .129.177.539.539 0 0 0 .18.092c.066.018.133.033.2.042.058.015.113.026.165.033a.554.554 0 0 1 .14.032c.04.015.071.037.095.068A.24.24 0 0 1-.3.962c0 .055-.011.1-.03.135a.21.21 0 0 1-.073.08.253.253 0 0 1-.097.038.513.513 0 0 1-.1.01.33.33 0 0 1-.222-.076c-.057-.049-.09-.128-.097-.233h-.32c.006.125.028.23.067.313a.553.553 0 0 0 .15.198c.061.051.13.085.206.105.076.02.156.03.236.03.07 0 .141-.01.21-.03a.534.534 0 0 0 .186-.097.48.48 0 0 0 .133-.175A.604.604 0 0 0 0 .999Zm-.319.541A.336.336 0 0 0-.5.463 2.17 2.17 0 0 1-.711.425a.975.975 0 0 1-.1-.032.297.297 0 0 1-.084-.057.262.262 0 0 1-.057-.094.42.42 0 0 1-.021-.14c0-.047.01-.088.031-.122a.282.282 0 0 1 .074-.076.308.308 0 0 1 .096-.039.404.404 0 0 1 .209.007.334.334 0 0 1 .116.064.37.37 0 0 1 .091.114.382.382 0 0 1 .037.171z" style="fill:#231916;fill-opacity:1;fill-rule:nonzero;stroke:none" transform="translate(65.529 27.817)"/><path d="M0 0h.3v-.375h.006a.486.486 0 0 0 .054.152.623.623 0 0 0 .227.239.356.356 0 0 0 .22.032L.85.042v-.414c-.022.006-.046.009-.069.013a.322.322 0 0 1-.069.006.28.28 0 0 1-.152-.044.38.38 0 0 1-.125-.127.695.695 0 0 1-.083-.208 1.167 1.167 0 0 1-.033-.287v-.923H0Z" style="fill:#231916;fill-opacity:1;fill-rule:nonzero;stroke:none" transform="translate(65.868 29.327)"/><path d="M0 0a.453.453 0 0 1-.107.271.298.298 0 0 1-.224.093.355.355 0 0 1-.132-.029A.318.318 0 0 1-.592.23.658.658 0 0 1-.69.016a1.35 1.35 0 0 1-.039-.358c0-.079.007-.16.021-.241a.819.819 0 0 1 .067-.213.438.438 0 0 1 .12-.152.27.27 0 0 1 .176-.06c.093 0 .17.039.232.117.06.078.098.186.113.327h.319C.29-.816.218-1.01.104-1.145a.558.558 0 0 0-.449-.2.574.574 0 0 0-.301.078.671.671 0 0 0-.22.208.991.991 0 0 0-.136.32 1.608 1.608 0 0 0-.046.397c0 .145.014.281.044.409.03.128.074.239.134.332.06.094.135.167.224.222.088.054.193.08.312.08A.654.654 0 0 0-.095.658.55.55 0 0 0 .108.529.664.664 0 0 0 .252.312.915.915 0 0 0 .319 0Z" style="fill:#231916;fill-opacity:1;fill-rule:nonzero;stroke:none" transform="translate(67.778 28.678)"/><path d="M0 0h.319v-.995h.006a.56.56 0 0 0 .175.22.42.42 0 0 0 .26.088.465.465 0 0 0 .376-.165c.091-.11.137-.275.137-.496v-1.333h-.32v1.221c-.003.152-.027.263-.073.332-.045.068-.114.103-.21.103a.283.283 0 0 1-.145-.039.337.337 0 0 1-.11-.109.615.615 0 0 1-.071-.164.786.786 0 0 1-.025-.199v-1.145H0Z" style="fill:#231916;fill-opacity:1;fill-rule:nonzero;stroke:none" transform="translate(68.353 30.066)"/><path d="M70.776 27.385h.35v2.682h-.35z" style="fill:#231916;fill-opacity:1;fill-rule:nonzero;stroke:none"/><path d="M0 0h.302v-.285l.007-.008A.655.655 0 0 0 .5-.04a.413.413 0 0 0 .261.093.463.463 0 0 0 .375-.166c.092-.111.137-.276.137-.496v-1.333H.954v1.221C.95-.568.925-.458.881-.39.836-.32.767-.285.67-.285a.272.272 0 0 1-.145-.04.35.35 0 0 1-.11-.11.581.581 0 0 1-.071-.163.79.79 0 0 1-.025-.198v-1.146H0Z" style="fill:#231916;fill-opacity:1;fill-rule:nonzero;stroke:none" transform="translate(71.505 29.327)"/><path d="M0 0c.009-.125.046-.213.107-.263a.337.337 0 0 1 .221-.076.584.584 0 0 1 .211.046.206.206 0 0 1 .082.076.22.22 0 0 1 .029.135.203.203 0 0 1-.045.134.293.293 0 0 1-.107.085.796.796 0 0 1-.15.054 10.91 10.91 0 0 0-.17.05 1.226 1.226 0 0 0-.173.063.468.468 0 0 0-.254.264.682.682 0 0 0-.039.246c0 .107.018.194.058.266.039.07.086.13.144.173a.6.6 0 0 0 .197.091.755.755 0 0 0 .421-.005.527.527 0 0 0 .322-.289.787.787 0 0 0 .069-.276H.589C.574.877.54.945.484.98a.34.34 0 0 1-.188.052.631.631 0 0 1-.081-.006.297.297 0 0 1-.087-.029.176.176 0 0 1-.067-.06.165.165 0 0 1-.03-.104C.031.78.044.738.072.706A.311.311 0 0 1 .179.624.954.954 0 0 1 .328.571C.385.556.442.539.502.521A1.31 1.31 0 0 0 .674.458.495.495 0 0 0 .931.196a.653.653 0 0 0 .04-.241.67.67 0 0 0-.059-.294.575.575 0 0 0-.361-.304.802.802 0 0 0-.483.007.572.572 0 0 0-.336.337.866.866 0 0 0-.05.299Z" style="fill:#231916;fill-opacity:1;fill-rule:nonzero;stroke:none" transform="translate(73.35 28.009)"/><path d="M0 0h.241v.582h.321V0H.85v-.32H.562v-1.036c0-.045 0-.083.002-.117a.28.28 0 0 1 .02-.083.106.106 0 0 1 .047-.049.175.175 0 0 1 .084-.018l.067.002a.274.274 0 0 1 .068.014v-.331c-.036-.005-.071-.009-.104-.016a.708.708 0 0 0-.308.025.275.275 0 0 0-.12.094.372.372 0 0 0-.058.155 1.482 1.482 0 0 0-.019.215V-.32H0Z" style="fill:#231916;fill-opacity:1;fill-rule:nonzero;stroke:none" transform="translate(74.413 29.327)"/><path d="M75.495 29.662h.319v.404h-.319zm0-2.277h.319v1.942h-.319z" style="fill:#231916;fill-opacity:1;fill-rule:nonzero;stroke:none"/><path d="M0 0h.24v.582h.321V0H.85v-.32H.561v-1.036c0-.045.001-.083.004-.117a.253.253 0 0 1 .019-.083.121.121 0 0 1 .046-.049.185.185 0 0 1 .085-.018l.067.002a.274.274 0 0 1 .068.014v-.331c-.037-.005-.071-.009-.104-.016a.708.708 0 0 0-.308.025.275.275 0 0 0-.12.094.359.359 0 0 0-.058.155 1.346 1.346 0 0 0-.02.215V-.32H0Z" style="fill:#231916;fill-opacity:1;fill-rule:nonzero;stroke:none" transform="translate(76.012 29.327)"/><path d="M0 0h-.313v.271h-.006A.54.54 0 0 0-.495.037a.386.386 0 0 0-.236-.089c-.191 0-.331.064-.415.189-.084.128-.127.317-.127.573v1.232h.319V.752c0-.17.025-.291.073-.36A.231.231 0 0 1-.676.287c.068 0 .124.013.169.041a.334.334 0 0 1 .109.109.513.513 0 0 1 .06.168c.012.065.019.135.019.211v1.126H0Z" style="fill:#231916;fill-opacity:1;fill-rule:nonzero;stroke:none" transform="translate(78.358 27.385)"/><path d="M0 0h.241v.582h.321V0H.85v-.32H.562v-1.036c0-.045 0-.083.002-.117a.316.316 0 0 1 .02-.083.111.111 0 0 1 .047-.049.175.175 0 0 1 .084-.018l.067.002a.274.274 0 0 1 .068.014v-.331c-.036-.005-.071-.009-.104-.016a.708.708 0 0 0-.307.025.273.273 0 0 0-.121.094.372.372 0 0 0-.058.155 1.482 1.482 0 0 0-.019.215V-.32H0Z" style="fill:#231916;fill-opacity:1;fill-rule:nonzero;stroke:none" transform="translate(78.544 29.327)"/><path d="M0 0c0-.075.008-.148.024-.218a.6.6 0 0 1 .072-.184.36.36 0 0 1 .12-.125.299.299 0 0 1 .174-.048c.093 0 .17.026.225.081a.48.48 0 0 1 .128.242h.304A1.024 1.024 0 0 0 .96-.534a.79.79 0 0 0-.148-.208.613.613 0 0 0-.725-.096.687.687 0 0 0-.224.21.968.968 0 0 0-.135.323 1.668 1.668 0 0 0-.047.413c0 .138.015.268.048.394.034.123.08.231.14.325a.741.741 0 0 0 .222.224.527.527 0 0 0 .291.083.516.516 0 0 0 .307-.097.762.762 0 0 0 .226-.253A1.411 1.411 0 0 0 1.065 0Zm.746.281a.846.846 0 0 1-.033.196.61.61 0 0 1-.072.163.405.405 0 0 1-.113.113.263.263 0 0 1-.146.043.304.304 0 0 1-.153-.04.374.374 0 0 1-.118-.11.55.55 0 0 1-.079-.163A.756.756 0 0 1 0 .281Z" style="fill:#231916;fill-opacity:1;fill-rule:nonzero;stroke:none" transform="translate(79.867 28.246)"/><path d="M0 0h.237v.161c0 .124.012.223.034.3A.483.483 0 0 0 .36.637c.038.041.08.068.128.082A.716.716 0 0 0 .863.714V.379a.483.483 0 0 1-.148.023A.16.16 0 0 1 .604.36C.573.333.558.279.558.199V0h.271v-.32H.558v-1.622H.237V-.32H0Z" style="fill:#231916;fill-opacity:1;fill-rule:nonzero;stroke:none" transform="translate(81.803 29.327)"/><path d="M0 0a.615.615 0 0 0-.31.077.69.69 0 0 0-.23.211c-.062.091-.11.198-.143.324a1.666 1.666 0 0 0-.048.413c0 .148.016.284.048.41.033.125.081.232.143.322a.625.625 0 0 0 .54.29.626.626 0 0 0 .54-.29.98.98 0 0 0 .144-.322c.032-.126.048-.262.048-.41C.732.875.716.737.684.612A.991.991 0 0 0 .54.288.687.687 0 0 0 .311.077.616.616 0 0 0 0 0m0 .339a.29.29 0 0 1 .186.058C.238.437.28.49.315.556a.881.881 0 0 1 .074.219c.015.081.024.165.024.25 0 .082-.009.165-.024.248a.816.816 0 0 1-.074.219.461.461 0 0 1-.129.155.294.294 0 0 1-.186.062.293.293 0 0 1-.185-.062.437.437 0 0 1-.128-.155.725.725 0 0 1-.076-.219 1.496 1.496 0 0 1-.023-.248c0-.085.009-.169.023-.25A.776.776 0 0 1-.313.556.452.452 0 0 1-.185.397.29.29 0 0 1 0 .339" style="fill:#231916;fill-opacity:1;fill-rule:nonzero;stroke:none" transform="translate(83.487 27.333)"/><path d="M0 0h.3v-.375h.006a.484.484 0 0 0 .053.152.657.657 0 0 0 .099.137.513.513 0 0 0 .128.102.324.324 0 0 0 .143.037.34.34 0 0 0 .077-.005A2.27 2.27 0 0 1 .849.042v-.414c-.022.006-.045.009-.068.013a.328.328 0 0 1-.069.006.283.283 0 0 1-.153-.044.387.387 0 0 1-.124-.127.67.67 0 0 1-.084-.208 1.167 1.167 0 0 1-.033-.287v-.923H0Z" style="fill:#231916;fill-opacity:1;fill-rule:nonzero;stroke:none" transform="translate(84.48 29.327)"/><path d="M0 0h.364l.502-2.122h.006L1.386 0h.355l-.684-2.681H.666Z" style="fill:#231916;fill-opacity:1;fill-rule:nonzero;stroke:none" transform="translate(86.054 30.066)"/><path d="M0 0a.621.621 0 0 0-.311.077.697.697 0 0 0-.229.211c-.062.091-.11.198-.143.324a1.666 1.666 0 0 0-.048.413c0 .148.016.284.048.41.033.125.081.232.143.322a.632.632 0 0 0 .54.29.625.625 0 0 0 .539-.29c.064-.09.111-.197.145-.322.031-.126.048-.262.048-.41C.732.875.715.737.684.612A1.014 1.014 0 0 0 .539.288.678.678 0 0 0 .31.077.615.615 0 0 0 0 0m0 .339c.071 0 .134.017.185.058.052.04.095.093.129.159a.843.843 0 0 1 .075.219c.014.081.024.165.024.25 0 .082-.01.165-.024.248a.783.783 0 0 1-.075.219.45.45 0 0 1-.129.155.289.289 0 0 1-.185.062.29.29 0 0 1-.185-.062.427.427 0 0 1-.128-.155.725.725 0 0 1-.076-.219 1.396 1.396 0 0 1 0-.498.776.776 0 0 1 .076-.219.441.441 0 0 1 .128-.159A.288.288 0 0 1 0 .339" style="fill:#231916;fill-opacity:1;fill-rule:nonzero;stroke:none" transform="translate(88.454 27.333)"/><path d="M0 0a.46.46 0 0 1-.108.271.295.295 0 0 1-.224.093.354.354 0 0 1-.131-.029A.305.305 0 0 1-.592.23.638.638 0 0 1-.69.016a1.309 1.309 0 0 1-.039-.358c0-.079.006-.16.02-.241a.859.859 0 0 1 .068-.213.427.427 0 0 1 .12-.152.268.268 0 0 1 .176-.06c.093 0 .169.039.232.117.06.078.097.186.113.327h.319C.289-.816.218-1.01.104-1.145a.558.558 0 0 0-.449-.2.572.572 0 0 0-.301.078.671.671 0 0 0-.22.208.992.992 0 0 0-.137.32 1.786 1.786 0 0 0-.001.806.985.985 0 0 0 .135.332.676.676 0 0 0 .223.222c.088.054.192.08.311.08a.66.66 0 0 0 .24-.043.546.546 0 0 0 .202-.129.682.682 0 0 0 .145-.217A.94.94 0 0 0 .319 0Z" style="fill:#231916;fill-opacity:1;fill-rule:nonzero;stroke:none" transform="translate(90.426 28.678)"/><path d="M0 0c0-.053.006-.091.016-.113.009-.022.03-.033.06-.033h.032c.014 0 .029.002.045.006v-.296A.269.269 0 0 0 .11-.452.427.427 0 0 0 .056-.47C.037-.474.019-.479 0-.481a.471.471 0 0 0-.048-.003.244.244 0 0 0-.162.051c-.043.037-.072.097-.085.185a.554.554 0 0 0-.233-.181.707.707 0 0 0-.269-.055.527.527 0 0 0-.188.035.45.45 0 0 0-.158.105.51.51 0 0 0-.109.177.704.704 0 0 0-.041.25c0 .12.017.218.049.293a.46.46 0 0 0 .308.269c.067.018.133.033.201.042.058.015.113.026.165.033a.546.546 0 0 1 .139.032c.04.015.073.037.095.068.024.032.035.078.035.142 0 .055-.01.1-.028.135a.22.22 0 0 1-.074.08.268.268 0 0 1-.096.038.526.526 0 0 1-.102.01.328.328 0 0 1-.221-.076C-.88 1.1-.912 1.021-.92.916h-.319c.006.125.027.23.067.313a.553.553 0 0 0 .15.198.51.51 0 0 0 .206.105c.077.02.156.03.236.03.07 0 .141-.01.21-.03a.53.53 0 0 0 .185-.097.481.481 0 0 0 .134-.175A.604.604 0 0 0 0 .999Zm-.319.541a.34.34 0 0 0-.18-.078 1.163 1.163 0 0 1-.313-.07.307.307 0 0 1-.083-.057.237.237 0 0 1-.057-.094.397.397 0 0 1-.021-.14c0-.047.01-.088.031-.122a.268.268 0 0 1 .074-.076.29.29 0 0 1 .096-.039.41.41 0 0 1 .209.007.334.334 0 0 1 .116.064.37.37 0 0 1 .091.114.37.37 0 0 1 .037.171z" style="fill:#231916;fill-opacity:1;fill-rule:nonzero;stroke:none" transform="translate(92.215 27.817)"/><path d="M0 0h.241v.582h.321V0H.85v-.32H.562v-1.036c0-.045 0-.083.002-.117a.28.28 0 0 1 .02-.083.117.117 0 0 1 .047-.049.18.18 0 0 1 .085-.018l.066.002a.265.265 0 0 1 .068.014v-.331c-.036-.005-.071-.009-.104-.016a.708.708 0 0 0-.307.025.273.273 0 0 0-.121.094.372.372 0 0 0-.058.155 1.482 1.482 0 0 0-.019.215V-.32H0Z" style="fill:#231916;fill-opacity:1;fill-rule:nonzero;stroke:none" transform="translate(92.408 29.327)"/><path d="M93.49 29.662h.32v.404h-.32zm0-2.277h.32v1.942h-.32z" style="fill:#231916;fill-opacity:1;fill-rule:nonzero;stroke:none"/><path d="M0 0a.615.615 0 0 0-.31.077.69.69 0 0 0-.23.211 1.033 1.033 0 0 0-.142.324 1.619 1.619 0 0 0-.049.413c0 .148.016.284.049.41.033.125.08.232.142.322a.625.625 0 0 0 .54.29.626.626 0 0 0 .54-.29c.064-.09.11-.197.144-.322.032-.126.048-.262.048-.41C.732.875.716.737.684.612A1.013 1.013 0 0 0 .54.288.678.678 0 0 0 .311.077.616.616 0 0 0 0 0m0 .339c.072 0 .134.017.186.058.052.04.095.093.129.159a.881.881 0 0 1 .074.219c.015.081.024.165.024.25 0 .082-.009.165-.024.248a.816.816 0 0 1-.074.219.45.45 0 0 1-.129.155.292.292 0 0 1-.186.062.29.29 0 0 1-.185-.062.437.437 0 0 1-.128-.155.724.724 0 0 1-.075-.219 1.398 1.398 0 0 1-.024-.248c0-.085.009-.169.024-.25A.775.775 0 0 1-.313.556.452.452 0 0 1-.185.397.288.288 0 0 1 0 .339" style="fill:#231916;fill-opacity:1;fill-rule:nonzero;stroke:none" transform="translate(94.816 27.333)"/><path d="M0 0h.303v-.285l.005-.008a.675.675 0 0 0 .191.253.418.418 0 0 0 .262.093.464.464 0 0 0 .375-.166c.091-.111.137-.276.137-.496v-1.333h-.32v1.221C.95-.568.926-.458.881-.39.835-.32.766-.285.67-.285a.278.278 0 0 1-.146-.04.337.337 0 0 1-.109-.11.581.581 0 0 1-.071-.163.79.79 0 0 1-.025-.198v-1.146H0Z" style="fill:#231916;fill-opacity:1;fill-rule:nonzero;stroke:none" transform="translate(95.81 29.327)"/><path d="M0 0c0-.053.006-.091.016-.113.009-.022.031-.033.06-.033h.033c.013 0 .029.002.045.006v-.296a.373.373 0 0 0-.043-.016.505.505 0 0 0-.055-.018C.038-.474.02-.479 0-.481a.471.471 0 0 0-.047-.003.248.248 0 0 0-.163.051c-.043.037-.071.097-.085.185a.548.548 0 0 0-.233-.181.703.703 0 0 0-.269-.055.521.521 0 0 0-.187.035.455.455 0 0 0-.268.282.704.704 0 0 0-.041.25c0 .12.017.218.05.293a.458.458 0 0 0 .128.177.554.554 0 0 0 .179.092c.067.018.134.033.201.042.058.015.114.026.167.033a.55.55 0 0 1 .137.032c.04.015.073.037.095.068.024.032.036.078.036.142 0 .055-.011.1-.028.135a.24.24 0 0 1-.171.118.516.516 0 0 1-.101.01.33.33 0 0 1-.222-.076C-.879 1.1-.912 1.021-.92.916h-.319c.006.125.027.23.067.313.039.082.09.148.15.198a.51.51 0 0 0 .206.105c.077.02.156.03.236.03.071 0 .142-.01.211-.03A.504.504 0 0 0-.05 1.26.62.62 0 0 0 0 .999Zm-.319.541a.336.336 0 0 0-.18-.078A2.21 2.21 0 0 1-.712.425 1.04 1.04 0 0 1-.811.393.25.25 0 0 1-.952.242a.42.42 0 0 1-.021-.14.22.22 0 0 1 .032-.122.265.265 0 0 1 .073-.076.29.29 0 0 1 .096-.039.41.41 0 0 1 .209.007.347.347 0 0 1 .207.178.37.37 0 0 1 .037.171z" style="fill:#231916;fill-opacity:1;fill-rule:nonzero;stroke:none" transform="translate(98.628 27.817)"/><path d="M98.976 27.385h.32v2.682h-.32z" style="fill:#231916;fill-opacity:1;fill-rule:nonzero;stroke:none"/><path d="M0 0h1.441v-.405H.35v-.702h1.009v-.383H.35v-.785h1.11v-.406H0Z" style="fill:#231916;fill-opacity:1;fill-rule:nonzero;stroke:none" transform="translate(100.457 30.066)"/><path d="M0 0h-.303v.264h-.005A.448.448 0 0 0-.496.021a.543.543 0 0 0-.559.008.648.648 0 0 0-.213.219 1.182 1.182 0 0 0-.127.329 1.958 1.958 0 0 0 .013.862c.035.127.082.233.141.316a.58.58 0 0 0 .203.182.494.494 0 0 0 .368.041.512.512 0 0 0 .253-.151.498.498 0 0 0 .092-.137h.006v.992H0Zm-1.116.951c0-.083.009-.164.023-.244A.868.868 0 0 1-1.02.493.446.446 0 0 1-.895.342a.298.298 0 0 1 .18-.055c.071 0 .132.019.184.059.052.04.094.092.126.158a.797.797 0 0 1 .073.221c.016.08.024.164.024.249 0 .214-.036.382-.109.504-.071.119-.17.179-.293.179a.297.297 0 0 1-.188-.061.481.481 0 0 1-.126-.163.769.769 0 0 1-.071-.226 1.658 1.658 0 0 1-.021-.256" style="fill:#231916;fill-opacity:1;fill-rule:nonzero;stroke:none" transform="translate(103.538 27.385)"/><path d="M0 0h-.313v.271h-.006A.54.54 0 0 0-.495.037a.386.386 0 0 0-.236-.089c-.191 0-.33.064-.415.189-.084.128-.127.317-.127.573v1.232h.32V.752c0-.17.024-.291.073-.36A.23.23 0 0 1-.675.287c.067 0 .123.013.168.041a.337.337 0 0 1 .11.109.513.513 0 0 1 .059.168c.013.065.019.135.019.211v1.126H0Z" style="fill:#231916;fill-opacity:1;fill-rule:nonzero;stroke:none" transform="translate(105.153 27.385)"/><path d="M0 0a.46.46 0 0 1-.108.271.296.296 0 0 1-.224.093.355.355 0 0 1-.132-.029A.318.318 0 0 1-.593.23.659.659 0 0 1-.69.016a1.309 1.309 0 0 1-.039-.358c0-.079.006-.16.02-.241a.783.783 0 0 1 .068-.213.427.427 0 0 1 .12-.152.266.266 0 0 1 .176-.06c.093 0 .169.039.232.117A.657.657 0 0 1 0-.564h.318c-.029-.252-.1-.446-.214-.581a.558.558 0 0 0-.449-.2.572.572 0 0 0-.301.078.661.661 0 0 0-.22.208.97.97 0 0 0-.137.32 1.608 1.608 0 0 0-.046.397c0 .145.014.281.044.409.03.128.074.239.135.332a.688.688 0 0 0 .224.222.58.58 0 0 0 .311.08.65.65 0 0 0 .239-.043.55.55 0 0 0 .203-.129.682.682 0 0 0 .145-.217A.916.916 0 0 0 .318 0Z" style="fill:#231916;fill-opacity:1;fill-rule:nonzero;stroke:none" transform="translate(106.464 28.678)"/><path d="M0 0c0-.053.006-.091.017-.113.009-.022.029-.033.059-.033h.033c.014 0 .029.002.045.006v-.296a.313.313 0 0 0-.043-.016.57.57 0 0 0-.054-.018C.038-.474.02-.479 0-.481a.455.455 0 0 0-.048-.003.247.247 0 0 0-.162.051c-.043.037-.071.097-.085.185a.545.545 0 0 0-.232-.181.707.707 0 0 0-.269-.055.527.527 0 0 0-.188.035.442.442 0 0 0-.158.105.513.513 0 0 0-.11.177.705.705 0 0 0-.04.25c0 .12.016.218.049.293a.46.46 0 0 0 .308.269c.066.018.133.033.201.042.058.015.113.026.165.033A.546.546 0 0 1-.43.752c.04.015.072.037.095.068.024.032.035.078.035.142 0 .055-.01.1-.029.135a.218.218 0 0 1-.073.08.266.266 0 0 1-.097.038.513.513 0 0 1-.1.01.328.328 0 0 1-.222-.076C-.879 1.1-.912 1.021-.919.916h-.32c.006.125.028.23.067.313.039.082.09.148.151.198a.51.51 0 0 0 .206.105c.076.02.155.03.236.03.07 0 .141-.01.21-.03a.53.53 0 0 0 .185-.097.481.481 0 0 0 .134-.175A.62.62 0 0 0 0 .999Zm-.318.541A.339.339 0 0 0-.499.463 2.325 2.325 0 0 1-.712.425 1.265 1.265 0 0 1-.811.393.297.297 0 0 1-.895.336.248.248 0 0 1-.951.242a.397.397 0 0 1-.021-.14.22.22 0 0 1 .031-.122.253.253 0 0 1 .169-.115.412.412 0 0 1 .21.007c.04.012.079.034.116.064.036.03.066.068.091.114a.382.382 0 0 1 .037.171z" style="fill:#231916;fill-opacity:1;fill-rule:nonzero;stroke:none" transform="translate(108.252 27.817)"/><path d="M0 0h.241v.582h.321V0H.85v-.32H.562v-1.036c0-.045 0-.083.002-.117a.28.28 0 0 1 .02-.083.106.106 0 0 1 .047-.049.176.176 0 0 1 .085-.018l.066.002a.265.265 0 0 1 .068.014v-.331c-.036-.005-.072-.009-.104-.016a.708.708 0 0 0-.307.025.275.275 0 0 0-.122.094.385.385 0 0 0-.057.155 1.353 1.353 0 0 0-.019.215V-.32H0Z" style="fill:#231916;fill-opacity:1;fill-rule:nonzero;stroke:none" transform="translate(108.446 29.327)"/><path d="M109.528 29.662h.32v.404h-.32zm0-2.277h.32v1.942h-.32z" style="fill:#231916;fill-opacity:1;fill-rule:nonzero;stroke:none"/><path d="M0 0a.621.621 0 0 0-.311.077.684.684 0 0 0-.228.211c-.063.091-.11.198-.144.324a1.666 1.666 0 0 0-.048.413c0 .148.016.284.048.41.034.125.081.232.144.322a.632.632 0 0 0 .539.29.629.629 0 0 0 .54-.29c.064-.09.11-.197.144-.322.032-.126.048-.262.048-.41C.732.875.716.737.684.612A1.013 1.013 0 0 0 .54.288.697.697 0 0 0 .311.077.619.619 0 0 0 0 0m0 .339c.072 0 .134.017.186.058.052.04.094.093.129.159a.842.842 0 0 1 .074.219c.015.081.024.165.024.25 0 .082-.009.165-.024.248a.783.783 0 0 1-.074.219.461.461 0 0 1-.129.155.292.292 0 0 1-.186.062.293.293 0 0 1-.185-.062.437.437 0 0 1-.128-.155.752.752 0 0 1-.075-.219 1.398 1.398 0 0 1-.024-.248c0-.085.009-.169.024-.25A.808.808 0 0 1-.313.556.452.452 0 0 1-.185.397.29.29 0 0 1 0 .339" style="fill:#231916;fill-opacity:1;fill-rule:nonzero;stroke:none" transform="translate(110.855 27.333)"/><path d="M0 0h.302v-.285l.006-.008a.665.665 0 0 0 .191.253.415.415 0 0 0 .261.093.465.465 0 0 0 .376-.166c.091-.111.137-.276.137-.496v-1.333H.954v1.221C.949-.568.926-.458.881-.39.835-.32.766-.285.67-.285a.278.278 0 0 1-.146-.04.35.35 0 0 1-.11-.11.58.58 0 0 1-.07-.163.746.746 0 0 1-.026-.198v-1.146H0Z" style="fill:#231916;fill-opacity:1;fill-rule:nonzero;stroke:none" transform="translate(111.848 29.327)"/><path d="M0 0a.797.797 0 0 0-.249-.269.588.588 0 0 0-.313-.083.576.576 0 0 0-.453.209.742.742 0 0 0-.131.25 1.13 1.13 0 0 0-.045.336.84.84 0 0 0 .142.472c.043.064.093.12.148.171.054.05.111.095.17.135l-.077.133a1.084 1.084 0 0 0-.109.288.844.844 0 0 0 .021.427.665.665 0 0 0 .105.202.48.48 0 0 0 .157.129.45.45 0 0 0 .537-.115.633.633 0 0 0 .111-.201.848.848 0 0 0 .042-.281c0-.08-.01-.155-.03-.221a.776.776 0 0 0-.194-.338.86.86 0 0 0-.139-.12L.005.619a2.093 2.093 0 0 1 .062.362h.281A2.573 2.573 0 0 0 .296.635 1.467 1.467 0 0 0 .19.323L.574-.3H.183Zm-.563.94C-.593.915-.627.89-.661.863A.461.461 0 0 1-.762.77.532.532 0 0 1-.84.635.533.533 0 0 1-.872.437c0-.146.03-.257.091-.335A.279.279 0 0 1-.55-.016a.352.352 0 0 1 .254.111.438.438 0 0 1 .072.096l.053.094zm.128 1.186a.187.187 0 0 1-.152-.08.353.353 0 0 1-.061-.217c0-.045.006-.087.018-.125a.739.739 0 0 1 .045-.113 3.957 3.957 0 0 1 .119-.209 1.413 1.413 0 0 1 .163.179.497.497 0 0 1 .074.256c0 .089-.02.162-.057.22-.037.061-.087.089-.149.089" style="fill:#231916;fill-opacity:1;fill-rule:nonzero;stroke:none" transform="translate(115.339 27.686)"/><path d="M0 0h1.62v-.405H.983v-2.276h-.35v2.276H0Z" style="fill:#231916;fill-opacity:1;fill-rule:nonzero;stroke:none" transform="translate(116.666 30.066)"/><path d="M0 0h.301v-.375h.006a.484.484 0 0 0 .053.152.657.657 0 0 0 .099.137.513.513 0 0 0 .128.102.324.324 0 0 0 .143.037.34.34 0 0 0 .077-.005L.85.042v-.414c-.022.006-.045.009-.068.013a.328.328 0 0 1-.069.006.283.283 0 0 1-.153-.044.377.377 0 0 1-.124-.127.67.67 0 0 1-.084-.208 1.121 1.121 0 0 1-.033-.287v-.923H0Z" style="fill:#231916;fill-opacity:1;fill-rule:nonzero;stroke:none" transform="translate(118.21 29.327)"/><path d="M0 0c0-.053.005-.091.016-.113.009-.022.03-.033.06-.033h.033c.013 0 .029.002.045.006v-.296A.683.683 0 0 0 .057-.47C.037-.474.019-.479 0-.481a.473.473 0 0 0-.049-.003.246.246 0 0 0-.161.051c-.043.037-.071.097-.085.185a.548.548 0 0 0-.233-.181.707.707 0 0 0-.269-.055.527.527 0 0 0-.188.035.45.45 0 0 0-.158.105.51.51 0 0 0-.109.177.683.683 0 0 0-.041.25c0 .12.017.218.05.293a.44.44 0 0 0 .129.177.53.53 0 0 0 .178.092c.067.018.133.033.201.042.058.015.113.026.165.033a.565.565 0 0 1 .14.032.208.208 0 0 1 .095.068c.023.032.034.078.034.142 0 .055-.01.1-.029.135a.216.216 0 0 1-.072.08.278.278 0 0 1-.098.038.513.513 0 0 1-.1.01.328.328 0 0 1-.222-.076C-.879 1.1-.913 1.021-.92.916h-.32c.006.125.028.23.068.313a.553.553 0 0 0 .15.198.51.51 0 0 0 .206.105c.077.02.156.03.236.03.07 0 .141-.01.21-.03a.534.534 0 0 0 .186-.097.48.48 0 0 0 .133-.175A.604.604 0 0 0 0 .999Zm-.319.541A.339.339 0 0 0-.5.463a1.163 1.163 0 0 1-.312-.07.25.25 0 0 1-.14-.151.397.397 0 0 1-.021-.14c0-.047.01-.088.031-.122a.268.268 0 0 1 .074-.076.29.29 0 0 1 .096-.039.404.404 0 0 1 .209.007.347.347 0 0 1 .207.178.37.37 0 0 1 .037.171z" style="fill:#231916;fill-opacity:1;fill-rule:nonzero;stroke:none" transform="translate(120.406 27.817)"/><path d="M120.754 29.662h.32v.404h-.32zm0-2.277h.32v1.942h-.32z" style="fill:#231916;fill-opacity:1;fill-rule:nonzero;stroke:none"/><path d="M0 0h.302v-.285l.006-.008a.665.665 0 0 0 .191.253.415.415 0 0 0 .261.093.461.461 0 0 0 .375-.166c.092-.111.137-.276.137-.496v-1.333H.953v1.221C.949-.568.925-.458.88-.39c-.045.07-.114.105-.21.105a.278.278 0 0 1-.146-.04.35.35 0 0 1-.11-.11.611.611 0 0 1-.07-.163.746.746 0 0 1-.025-.198v-1.146H0Z" style="fill:#231916;fill-opacity:1;fill-rule:nonzero;stroke:none" transform="translate(121.416 29.327)"/><path d="M123.027 29.662h.32v.404h-.32zm0-2.277h.32v1.942h-.32z" style="fill:#231916;fill-opacity:1;fill-rule:nonzero;stroke:none"/><path d="M0 0h.303v-.285l.006-.008A.665.665 0 0 0 .5-.04a.415.415 0 0 0 .261.093.466.466 0 0 0 .376-.166c.091-.111.136-.276.136-.496v-1.333h-.32v1.221C.95-.568.926-.458.881-.39.836-.32.767-.285.67-.285a.275.275 0 0 1-.145-.04.35.35 0 0 1-.11-.11.58.58 0 0 1-.07-.163.746.746 0 0 1-.026-.198v-1.146H0Z" style="fill:#231916;fill-opacity:1;fill-rule:nonzero;stroke:none" transform="translate(123.69 29.327)"/><path d="M0 0c0-.294-.062-.512-.185-.656C-.306-.8-.482-.872-.713-.872a.85.85 0 0 0-.22.03.567.567 0 0 0-.355.289.698.698 0 0 0-.072.285h.32a.418.418 0 0 1 .047-.146.285.285 0 0 1 .08-.088.286.286 0 0 1 .102-.042.747.747 0 0 1 .119-.009c.128 0 .222.043.282.128a.64.64 0 0 1 .091.368v.296h-.007a.6.6 0 0 0-.183-.251.407.407 0 0 0-.252-.091.53.53 0 0 0-.295.082.633.633 0 0 0-.203.222 1.098 1.098 0 0 0-.116.324 2.061 2.061 0 0 0-.036.394c0 .131.015.255.045.373.03.117.073.221.129.309a.656.656 0 0 0 .207.212.492.492 0 0 0 .528.002.483.483 0 0 0 .176-.242h.007v.267H0Zm-.71.236c.071 0 .132.02.182.059.049.038.089.09.119.153a.795.795 0 0 1 .068.218c.014.08.022.164.022.245 0 .083-.008.164-.024.241a.786.786 0 0 1-.068.207.363.363 0 0 1-.121.143.3.3 0 0 1-.178.053.276.276 0 0 1-.18-.061.447.447 0 0 1-.118-.156.834.834 0 0 1-.063-.218 1.52 1.52 0 0 1-.02-.242c0-.081.008-.159.022-.234A.797.797 0 0 1-1 .439.409.409 0 0 1-.882.293.268.268 0 0 1-.71.236" style="fill:#231916;fill-opacity:1;fill-rule:nonzero;stroke:none" transform="translate(126.635 27.487)"/></g></svg>