<svg xmlns="http://www.w3.org/2000/svg" xml:space="preserve" width="1030.4855" height="100" viewBox="0 0 1030.4855 99.999998"><defs><clipPath id="a" clipPathUnits="userSpaceOnUse"><path d="M0 151.984h725.57V0H0Z"/></clipPath><clipPath id="b" clipPathUnits="userSpaceOnUse"><path d="M163.307 57.965c.002 0 .002 0 .005.004-.003-.004-.003-.004-.005-.004m-.38-.213s.138.07.38.213c-.123-.069-.251-.143-.38-.213"/></clipPath><clipPath id="c" clipPathUnits="userSpaceOnUse"><path d="M162.927 60.115h.437v-.244h-.437z"/></clipPath><clipPath id="d" clipPathUnits="userSpaceOnUse"><path d="m163.356 60.172.04-.297-.461-.061-.04.297z"/></clipPath><clipPath id="f" clipPathUnits="userSpaceOnUse"><path d="M0 151.984h725.57V0H0Z"/></clipPath><clipPath id="g" clipPathUnits="userSpaceOnUse"><path d="M156.559 103.829c-6.104-.032-12.906-2.085-19.508-6.798 0 0 16.337 8.36 28.646-1.066 12.309-9.42 3.346-24.461-2.735-30.008-6.08-5.544-14.79-13.234-32.185-12.99-15.6.222-22.518 5.545-22.518 5.545s9.956-11.192 30.269-10.307c19.29.848 29.049 14.233 29.049 14.233s-6.154-5.479-11.165-7.515c0 0 20.302 12.934 21.289 29.647.658 11.085-8.673 19.194-20.837 19.259z"/></clipPath><clipPath id="i" clipPathUnits="userSpaceOnUse"><path d="M0 151.984h725.57V0H0Z"/></clipPath><clipPath id="j" clipPathUnits="userSpaceOnUse"><path d="M163.307 57.965c.002 0 .002 0 .005.004-.003-.004-.003-.004-.005-.004m-.38-.213s.138.07.38.213c-.123-.069-.251-.143-.38-.213"/></clipPath><clipPath id="k" clipPathUnits="userSpaceOnUse"><path d="M162.927 60.115h.437v-.244h-.437z"/></clipPath><clipPath id="l" clipPathUnits="userSpaceOnUse"><path d="m163.356 60.172.04-.297-.461-.061-.04.297z"/></clipPath><clipPath id="n" clipPathUnits="userSpaceOnUse"><path d="M163.307 57.965c.002 0 .002 0 .005.004-.003-.004-.003-.004-.005-.004m-.38-.213s.138.07.38.213c-.123-.069-.251-.143-.38-.213"/></clipPath><clipPath id="o" clipPathUnits="userSpaceOnUse"><path d="M162.927 60.115h.437v-.244h-.437z"/></clipPath><clipPath id="p" clipPathUnits="userSpaceOnUse"><path d="m163.356 60.172.04-.297-.461-.061-.04.297z"/></clipPath><clipPath id="r" clipPathUnits="userSpaceOnUse"><path d="M0 151.984h725.57V0H0Z"/></clipPath><linearGradient id="e" x1="0" x2="1" y1="0" y2="0" gradientTransform="scale(47.06296) rotate(-82.4 2.704 -1.065)" gradientUnits="userSpaceOnUse" spreadMethod="pad"><stop offset="0" style="stop-opacity:1;stop-color:#00b5ed"/><stop offset="0.337082" style="stop-opacity:1;stop-color:#00b5ed"/><stop offset="1" style="stop-opacity:1;stop-color:#2d419a"/></linearGradient><linearGradient id="h" x1="0" x2="1" y1="0" y2="0" gradientTransform="rotate(-5.2 923.738 -1291.064) scale(74.1363)" gradientUnits="userSpaceOnUse" spreadMethod="pad"><stop offset="0" style="stop-opacity:1;stop-color:#00aeef"/><stop offset="0.146072" style="stop-opacity:1;stop-color:#00aeef"/><stop offset="0.713486" style="stop-opacity:1;stop-color:#2f84c6"/><stop offset="1" style="stop-opacity:1;stop-color:#2d419a"/></linearGradient><linearGradient id="m" x1="0" x2="1" y1="0" y2="0" gradientTransform="scale(47.06296) rotate(-82.4 2.704 -1.065)" gradientUnits="userSpaceOnUse" spreadMethod="pad"><stop offset="0" style="stop-opacity:1;stop-color:#00b5ed"/><stop offset="0.337082" style="stop-opacity:1;stop-color:#00b5ed"/><stop offset="1" style="stop-opacity:1;stop-color:#2d419a"/></linearGradient><linearGradient id="q" x1="0" x2="1" y1="0" y2="0" gradientTransform="scale(47.06296) rotate(-82.4 2.704 -1.065)" gradientUnits="userSpaceOnUse" spreadMethod="pad"><stop offset="0" style="stop-opacity:1;stop-color:#00b5ed"/><stop offset="0.337082" style="stop-opacity:1;stop-color:#00b5ed"/><stop offset="1" style="stop-opacity:1;stop-color:#2d419a"/></linearGradient></defs><g clip-path="url(#a)" transform="matrix(1.79618 0 0 -1.79618 -136.382 186.495)"><path d="M0 0c-2.249-4.09-6.309-12.807-6.309-12.807h-8.05s6.52 13.879 8.535 16.588c2.02 2.709 2.601 2.856 6.864 7.123 1.982 1.987 9.97 9.162 9.97 9.162l8.9-.003S5.156 5.84 3.866 4.701C3.569 4.447.979 1.793 0 0" style="fill:#0073bd;fill-opacity:1;fill-rule:nonzero;stroke:none" transform="translate(126.314 72.438)"/><path d="M0 0c-.897 1.625-3.905 1.625-6.715-.006-2.812-1.623-4.361-4.244-3.466-5.871.896-1.613 3.906-1.613 6.712.01C-.655-4.238.896-1.617 0 0" style="fill:#00a1e4;fill-opacity:1;fill-rule:nonzero;stroke:none" transform="translate(200.786 96.14)"/></g><g clip-path="url(#b)" transform="matrix(1.33333 0 0 -1.33333 -101.24 138.439)"><g clip-path="url(#c)"><g clip-path="url(#d)"><path d="m163.356 60.172.04-.297-.461-.061-.04.297z" style="fill:url(#e);stroke:none"/></g></g></g><g clip-path="url(#f)" transform="matrix(1.79618 0 0 -1.79618 -136.382 186.495)"><path d="M0 0h-11.064l-6.177-5.996h12.514c2.897 0 5.435-.611 4.314-3.131-1.101-2.475-3.465-3.842-7.513-3.842h-10.346c-6.163 0-9.824-1.244-11.615-4.508-1.041-1.89-3.083-5.511-4.11-7.578a865.15 865.15 0 0 1-3.729-7.701h7.636l6.57 12.799h13.971c10.517 0 14.317 7.842 15.403 10.008C6.98-7.699 8.599 0 0 0" style="fill:#0073bd;fill-opacity:1;fill-rule:nonzero;stroke:none" transform="translate(163.39 91.178)"/><path d="M0 0s-7.42-6.146-12.495-5.189c-5.074.96-2.091 4.865-1.877 5.291l9.727 17.785s.745 1.713-.478 2.031c-1.235.318-5.455-.803-5.455-.803s8.66 4.78 12.72 3.797c3.306-.805.206-5.826.206-5.826L-7.046-.486S-8.81-4.49 0 0" style="fill:#a7a9ac;fill-opacity:1;fill-rule:nonzero;stroke:none" transform="translate(192.563 63.773)"/><path d="M0 0h-8.314l7.605-13.139 5.343 5.076z" style="fill:#a7a9ac;fill-opacity:1;fill-rule:nonzero;stroke:none" transform="translate(118.632 91.152)"/></g><g clip-path="url(#g)" transform="matrix(1.79618 0 0 -1.79618 -136.382 186.495)"><path d="M156.559 103.829c-6.104-.032-12.906-2.085-19.508-6.798 0 0 16.337 8.36 28.646-1.066 12.309-9.42 3.346-24.461-2.735-30.008-6.08-5.544-14.79-13.234-32.185-12.99-15.6.222-22.518 5.545-22.518 5.545s9.956-11.192 30.269-10.307c19.29.848 29.049 14.233 29.049 14.233s-6.154-5.479-11.165-7.515c0 0 20.302 12.934 21.289 29.647.658 11.085-8.673 19.194-20.837 19.259z" style="fill:url(#h);stroke:none"/></g><g clip-path="url(#i)" transform="matrix(1.79618 0 0 -1.79618 -136.382 186.495)"><path d="M0 0c-1.226 2.223-2.559 4.947-6.093 4.947-4.582 0-6.379-5.256-7.075-6.808-1.038-2.293-11.559-25.916-11.559-25.916h8.371L-6.075-3.561S6.658-26.152 7.537-27.818l3.469 7.552S2.04-3.697 0 0" style="fill:#a7a9ac;fill-opacity:1;fill-rule:nonzero;stroke:none" transform="translate(100.656 86.2)"/></g><g clip-path="url(#j)" transform="matrix(1.33333 0 0 -1.33333 -101.24 138.439)"><g clip-path="url(#k)"><g clip-path="url(#l)"><path d="m163.356 60.172.04-.297-.461-.061-.04.297z" style="fill:url(#m);stroke:none"/></g></g></g><g clip-path="url(#n)" transform="matrix(1.33333 0 0 -1.33333 -101.24 138.439)"><g clip-path="url(#o)"><g clip-path="url(#p)"><path d="m163.356 60.172.04-.297-.461-.061-.04.297z" style="fill:url(#q);stroke:none"/></g></g></g><g clip-path="url(#r)" transform="matrix(1.79618 0 0 -1.79618 -136.382 186.495)"><path d="M0 0v-1.572h-4.028A9.26 9.26 0 0 0-2.12-4.365a8.382 8.382 0 0 0 .772-3.518c0-3.178-1.085-5.773-3.235-7.785-2.061-1.969-4.521-2.945-7.403-2.945-2.867 0-5.335.976-7.4 2.945-2.2 2.045-3.298 4.645-3.298 7.785 0 1.227.217 2.385.635 3.473.416.996 1.019 1.935 1.83 2.838h-3.933v4.861h9.406v3.897h1.599s3.875-.305 3.875-3.897h5.842S0 3.264 0 0m-21.279-21.381h5.078v-9.174h27.608v-4.974h-29.699c-1.01 0-1.742.271-2.213.814-.525.572-.774 1.516-.774 2.799zm5.33 17.678c-1.094-1.162-1.65-2.539-1.65-4.18 0-1.609.556-2.98 1.65-4.142 1.096-1.151 2.397-1.723 3.904-1.723 1.439 0 2.743.572 3.912 1.723 1.212 1.201 1.829 2.578 1.829 4.142 0 1.641-.617 3.018-1.829 4.18-1.133 1.09-2.443 1.629-3.912 1.629-1.507 0-2.808-.539-3.904-1.629M16.217-.861H11.11v-21.67H6.023V4.951h6.749s3.445.104 3.445-5.812" style="fill:#231f20;fill-opacity:1;fill-rule:nonzero;stroke:none" transform="translate(239.413 90.531)"/><path d="M0 0h-16.319v-7.932h-4.973V0h-15.886v5.033H-4.12S0 5.211 0 0m-1.801 15.736V3.471h-5.078v10.328H-35.82v4.972h30.506s3.513.159 3.513-3.035m0-25.924v-11.74h-5.078v10.489H-35.82v4.959h29.887s4.132.164 4.132-3.708" style="fill:#231f20;fill-opacity:1;fill-rule:nonzero;stroke:none" transform="translate(296.639 76.65)"/><path d="M0 0v-1.316h-8.016c.217-2.018.891-3.623 2.034-4.811C-4.584-7.533-2.521-8.408.211-8.715v-5.295c-2.07.065-4.008.547-5.793 1.434-2.154 1.072-3.861 2.592-5.057 4.572-1.248-2.014-3.033-3.574-5.365-4.658-1.879-.865-3.771-1.322-5.682-1.348v5.295c2.834.35 4.922 1.227 6.282 2.645 1.123 1.179 1.771 2.759 1.947 4.754h-8.006V3.6h8.145v3.896h2.547s2.794.139 2.794-3.896h4.502S0 3.797 0 0m7.178-16.068c2.525-2.411 3.795-5.452 3.795-9.127 0-3.68-1.27-6.725-3.795-9.116-2.403-2.252-5.207-3.371-8.444-3.371-3.226 0-6.019 1.119-8.355 3.371-2.504 2.391-3.76 5.436-3.76 9.116 0 3.675 1.256 6.716 3.76 9.127 2.336 2.23 5.129 3.353 8.355 3.353 3.237 0 6.041-1.123 8.444-3.353m-13.096-3.909c-1.436-1.439-2.158-3.179-2.158-5.224 0-2.01.722-3.735 2.158-5.17 1.377-1.41 2.973-2.113 4.75-2.113 1.809 0 3.412.703 4.787 2.113 1.438 1.435 2.149 3.16 2.149 5.17 0 2.045-.711 3.785-2.149 5.224-1.375 1.342-2.978 2.024-4.787 2.024-1.777 0-3.373-.682-4.75-2.024M12.6 2.014v-16.059H7.512V-.068H1.641v5.316h7.49S12.6 5.037 12.6 2.014" style="fill:#231f20;fill-opacity:1;fill-rule:nonzero;stroke:none" transform="translate(326.52 90.217)"/><path d="M0 0v-9.027h15.842v-5.03h-36.594v5.03h15.836V3.139h1.645S0 3.238 0 0m.447 22.482c.311-3.834 1.537-6.664 3.789-8.949 2.328-2.377 5.598-3.812 9.784-4.295v-5.47c-3.413.328-6.508 1.293-9.317 2.927-3.264 1.86-5.66 4.366-7.191 7.504-1.576-3.168-3.985-5.691-7.287-7.551-2.786-1.566-5.897-2.531-9.289-2.88v5.433c4.179.512 7.457 1.969 9.824 4.379 2.619 2.652 3.926 6.338 3.926 11.061h2.111c3.58.082 3.65-2.159 3.65-2.159" style="fill:#231f20;fill-opacity:1;fill-rule:nonzero;stroke:none" transform="translate(368.861 71.01)"/><path d="M0 0h5.094v-15.672h14.924v-4.984H3.047c-1.078 0-1.844.265-2.305.783-.496.57-.742 1.535-.742 2.889Z" style="fill:#231f20;fill-opacity:1;fill-rule:nonzero;stroke:none" transform="translate(393.705 95.482)"/><path d="M0 0h5.084v-9.898h27.621v-4.979H3.043c-1.012 0-1.76.272-2.268.822-.517.582-.775 1.53-.775 2.852Z" style="fill:#231f20;fill-opacity:1;fill-rule:nonzero;stroke:none" transform="translate(395.383 69.879)"/><path d="M0 0v-23.76h-5.1v13.549h-6.955v4.924H-5.1v3.844h-6.964v5.172h8.095S0 4.168 0 0" style="fill:#231f20;fill-opacity:1;fill-rule:nonzero;stroke:none" transform="translate(427.785 91.72)"/><path d="M0 0v-23.76h-5.074v13.549h-6.987v4.924h6.987v3.844h-6.989v5.172h8.124S0 4.168 0 0" style="fill:#231f20;fill-opacity:1;fill-rule:nonzero;stroke:none" transform="translate(560.945 91.72)"/><path d="M0 0v-1.484h-8.311c.118-2.434.741-4.375 1.905-5.817 1.402-1.726 3.617-2.791 6.621-3.17v-5.252c-2.313.129-4.393.666-6.276 1.592-2.123 1.07-3.742 2.572-4.89 4.526-1.207-1.899-3-3.418-5.367-4.563-1.959-.939-3.934-1.455-5.891-1.555v5.209c3.027.375 5.229 1.426 6.623 3.16 1.119 1.422 1.748 3.368 1.863 5.87h-8.218v4.918H-3.42S0 3.57 0 0m6.688-17.859c2.535-2.403 3.81-5.442 3.81-9.127 0-3.678-1.275-6.721-3.81-9.123-2.401-2.243-5.213-3.35-8.432-3.35-3.235 0-6.014 1.107-8.346 3.35-2.521 2.402-3.76 5.445-3.76 9.123 0 3.685 1.239 6.724 3.76 9.127 2.332 2.244 5.111 3.367 8.346 3.367 3.219 0 6.031-1.123 8.432-3.367m-13.077-3.905c-1.443-1.437-2.158-3.177-2.158-5.222 0-2.016.715-3.733 2.158-5.18 1.366-1.395 2.961-2.113 4.743-2.113 1.818 0 3.402.718 4.787 2.113 1.441 1.447 2.164 3.164 2.164 5.18 0 2.045-.723 3.785-2.164 5.222-1.385 1.352-2.969 2.008-4.787 2.008-1.782 0-3.377-.656-4.743-2.008M12.117-.295v-15.531H7.045v14.26H1.191v5.033H8.43s3.687.103 3.687-3.762" style="fill:#231f20;fill-opacity:1;fill-rule:nonzero;stroke:none" transform="translate(460.008 92.016)"/><path d="M0 0v-1.176h-6.182c.284-2.498 1.039-4.422 2.276-5.777C-2.85-8.074-1.498-8.814.182-9.168v-5.623c-1.584.1-3.1.551-4.506 1.352-1.883 1.031-3.391 2.566-4.526 4.611-1.168-2.045-2.742-3.58-4.656-4.611-1.453-.801-2.935-1.252-4.43-1.352v5.727c1.672.289 3.03.99 4.073 2.111 1.23 1.355 1.972 3.279 2.238 5.777h-6.182v4.912h6.457v3.901h1.395s3.678.177 3.678-3.1v-.801h2.718S0 4.02 0 0m16.625-22.523v-12.809h-5.08v11.982H-15.76v4.969h28.151s4.234.322 4.234-4.142m-.049 24.082v-16.465h-4.805V.291H7.854v-15.197H3.16V5.402h9.533s3.883.477 3.883-3.843" style="fill:#231f20;fill-opacity:1;fill-rule:nonzero;stroke:none" transform="translate(499.773 90.08)"/><path d="M0 0h5.074v-9.184h27.629v-4.972H3.004c-1.025 0-1.77.267-2.231.828C.256-12.752 0-11.826 0-10.535Z" style="fill:#231f20;fill-opacity:1;fill-rule:nonzero;stroke:none" transform="translate(528.338 69.137)"/><path d="M0 0c-2.236 2.08-4.834 3.131-7.82 3.131-3.047 0-5.701-1.051-7.922-3.131-2.369-2.205-3.557-5.045-3.557-8.498 0-3.449 1.188-6.248 3.557-8.422 2.195-2.084 4.847-3.133 7.922-3.133 2.986 0 5.584 1.049 7.82 3.133 2.371 2.205 3.545 5.016 3.545 8.422C3.545-5.045 2.371-2.205 0 0m-3.662-13.027c-1.238-1.223-2.625-1.83-4.166-1.83-1.647 0-3.092.607-4.367 1.83-1.309 1.248-1.961 2.756-1.961 4.529 0 1.816.652 3.357 1.961 4.605 1.275 1.215 2.72 1.83 4.367 1.83 1.541 0 2.928-.615 4.166-1.83 1.301-1.277 1.957-2.818 1.957-4.605 0-1.773-.656-3.281-1.957-4.529" style="fill:#231f20;fill-opacity:1;fill-rule:nonzero;stroke:none" transform="translate(544.053 94.078)"/><path d="M0 0v-1.619h-16.666v-17.067h-5.02v17.067h-15.5v5.025H-3.07S0 3.635 0 0m-1.801 18.328V2.355h-5.084v14.911h-28.959v4.912h30.063s3.98.383 3.98-3.85" style="fill:#231f20;fill-opacity:1;fill-rule:nonzero;stroke:none" transform="translate(606.873 73.244)"/><path d="M0 0v-1.547h-9.885v-9.48h-5.035v9.48h-11.908v4.901h22.963S0 3.428 0 0m-7.152 17.816c2.158-1.994 3.244-4.5 3.244-7.562 0-2.897-1.123-5.27-3.338-7.135C-9.285 1.424-11.582.566-14.221.566c-2.799 0-5.224.858-7.246 2.553-2.263 1.865-3.404 4.238-3.404 7.135 0 3.084 1.107 5.609 3.307 7.562 2.029 1.836 4.498 2.754 7.343 2.754 2.711 0 5.071-.918 7.069-2.754M-23.857-6.383h4.964v-10.478H8.814v-4.969h-29.63c-1.014 0-1.774.271-2.258.828-.516.576-.783 1.523-.783 2.836zm5.447 20.737c-1.061-1.159-1.594-2.514-1.594-4.094 0-1.516.533-2.86 1.594-4.053 1.123-1.191 2.461-1.787 3.992-1.787 1.453 0 2.73.596 3.83 1.787C-9.494 7.4-8.926 8.744-8.926 10.26c0 1.58-.568 2.935-1.662 4.094-1.1 1.169-2.377 1.744-3.83 1.744-1.531 0-2.869-.575-3.992-1.744M-5.023-7.893h8.486v26.497H4.5s4.047.39 4.047-3.481v-28.35h-13.57z" style="fill:#231f20;fill-opacity:1;fill-rule:nonzero;stroke:none" transform="translate(640.826 76.81)"/></g></svg>