<svg xmlns="http://www.w3.org/2000/svg" xml:space="preserve" width="1031.6605" height="200" viewBox="0 0 1031.6605 200"><defs><clipPath id="a" clipPathUnits="userSpaceOnUse"><path d="M132.718 459.707c-4.211 0-7.536-2.039-7.536-6.257 0-2.807 1.241-5.078 4.279-6.456 1.801-.837 13.299-5.633 13.299-5.633 2.045-.812 1.523-3.301-.89-3.301h-15.509c-.45 0-.815-.418-.815-.939v-1.99c0-.516.365-.94.815-.94h18.078c4.23 0 7.55 2.066 7.55 6.279 0 2.801-1.24 5.079-4.27 6.454-1.815.834-13.295 5.637-13.295 5.637-2.062.816-1.555 3.305.877 3.305h15.509c.44 0 .815.413.815.927v1.989c0 .531-.375.925-.815.925z"/></clipPath><clipPath id="c" clipPathUnits="userSpaceOnUse"><path d="M94.201 459.72c-.438 0-.818-.407-.818-.923v-2.004c0-.508.38-.924.818-.924h10.795v-20.788c0-.507.39-.94.837-.94h6.699c.45 0 .826.433.826.94v20.788h10.797c.439 0 .815.416.815.924v2.004c0 .516-.376.923-.815.923z"/></clipPath><clipPath id="e" clipPathUnits="userSpaceOnUse"><path d="M0 841.89h595.276V0H0Z"/></clipPath><linearGradient id="b" x1="0" x2="1" y1="0" y2="0" gradientTransform="scale(33.8961 -33.8961) rotate(37.138 21.944 -1.323)" gradientUnits="userSpaceOnUse" spreadMethod="pad"><stop offset="0" style="stop-opacity:1;stop-color:#33bdf2"/><stop offset="0.37851141" style="stop-opacity:1;stop-color:#33bdf2"/><stop offset="1" style="stop-opacity:1;stop-color:#297ecb"/></linearGradient><linearGradient id="d" x1="0" x2="1" y1="0" y2="0" gradientTransform="scale(28.59733 -28.59733) rotate(45.69 20.983 -4.048)" gradientUnits="userSpaceOnUse" spreadMethod="pad"><stop offset="0" style="stop-opacity:1;stop-color:#fbc707"/><stop offset="0.005618" style="stop-opacity:1;stop-color:#fbc707"/><stop offset="1" style="stop-opacity:1;stop-color:#f47216"/></linearGradient></defs><g clip-path="url(#a)" transform="matrix(4.8547 0 0 -4.8547 -415.3 2269.914)"><path d="M132.718 459.707c-4.211 0-7.536-2.039-7.536-6.257 0-2.807 1.241-5.078 4.279-6.456 1.801-.837 13.299-5.633 13.299-5.633 2.045-.812 1.523-3.301-.89-3.301h-15.509c-.45 0-.815-.418-.815-.939v-1.99c0-.516.365-.94.815-.94h18.078c4.23 0 7.55 2.066 7.55 6.279 0 2.801-1.24 5.079-4.27 6.454-1.815.834-13.295 5.637-13.295 5.637-2.062.816-1.555 3.305.877 3.305h15.509c.44 0 .815.413.815.927v1.989c0 .531-.375.925-.815.925z" style="fill:url(#b);stroke:none"/></g><g clip-path="url(#c)" transform="matrix(4.8547 0 0 -4.8547 -415.3 2269.914)"><path d="M94.201 459.72c-.438 0-.818-.407-.818-.923v-2.004c0-.508.38-.924.818-.924h10.795v-20.788c0-.507.39-.94.837-.94h6.699c.45 0 .826.433.826.94v20.788h10.797c.439 0 .815.416.815.924v2.004c0 .516-.376.923-.815.923z" style="fill:url(#d);stroke:none"/></g><g clip-path="url(#e)" transform="matrix(4.8547 0 0 -4.8547 -415.3 2269.914)"><path d="M0 0h.922v-2.568h.019L2.844 0h.934L1.732-2.651l2.272-3.162H2.902L.941-2.988H.922v-2.825H0Z" style="fill:#7b7979;fill-opacity:1;fill-rule:nonzero;stroke:none" transform="translate(161.916 439.971)"/><path d="M0 0c1.178 0 1.777.742 1.777 2.096 0 1.359-.599 2.1-1.777 2.1-1.183 0-1.771-.741-1.771-2.1C-1.771.742-1.183 0 0 0m-.843 2.096c0 .736.093 1.745.843 1.745.755 0 .85-1.009.85-1.745C.85 1.366.755.353 0 .353c-.75 0-.843 1.013-.843 1.743" style="fill:#7b7979;fill-opacity:1;fill-rule:nonzero;stroke:none" transform="translate(167.786 434.067)"/><path d="M0 0h.851v1.836c0 1.081.499 1.359 1.316 1.385v.884c-.733-.061-1.028-.573-1.299-1.11H.851v1.017H0Z" style="fill:#7b7979;fill-opacity:1;fill-rule:nonzero;stroke:none" transform="translate(170.436 434.158)"/><path d="M0 0a1.742 1.742 0 0 0-.768-.171c-1.203 0-1.557 1.316-1.557 2.107H.077c0 .777-.245 1.644-1.54 1.644-1.267 0-1.714-.81-1.714-1.92 0-1.616.896-2.276 2.007-2.276.502 0 .818.084 1.17.226zm-2.299 2.326c.018.227.143.898.801.898.629 0 .741-.587.741-.898z" style="fill:#7b7979;fill-opacity:1;fill-rule:nonzero;stroke:none" transform="translate(176.041 434.683)"/><path d="M0 0c0-.683-.533-.97-.827-.97-.277 0-.488.237-.488.599 0 .74.961.817 1.315.841zm0-1.41h.852v2.587c0 .785-.111 1.518-1.415 1.518-1.266 0-1.5-.633-1.543-1.232h.896c.031.474.123.876.647.876C0 2.339 0 1.616 0 1.177V.824C-.533.797-2.24.74-2.24-.497c0-.559.463-1.004 1.095-1.004.638 0 .995.412 1.129.648H0Z" style="fill:#7b7979;fill-opacity:1;fill-rule:nonzero;stroke:none" transform="translate(178.955 435.568)"/><path d="M0 0h.927v5.259h1.407v.554h-3.743v-.554H0Z" style="fill:#7b7979;fill-opacity:1;fill-rule:nonzero;stroke:none" transform="translate(183.992 434.158)"/><path d="M0 0h.852v1.836c0 1.081.498 1.359 1.312 1.385v.884c-.731-.061-1.024-.573-1.295-1.11H.852v1.017H0Z" style="fill:#7b7979;fill-opacity:1;fill-rule:nonzero;stroke:none" transform="translate(186.713 434.158)"/><path d="M0 0h.849v2.587c0 .785-.111 1.518-1.414 1.518-1.263 0-1.5-.633-1.542-1.232h.891c.035.474.129.876.651.876C0 3.749 0 3.026 0 2.587v-.353C-.532 2.207-2.243 2.15-2.243.913c0-.559.466-1.004 1.096-1.004.642 0 .991.412 1.129.648H0Zm0 1.41C0 .727-.532.44-.828.44c-.277 0-.488.237-.488.598 0 .741.96.817 1.316.842z" style="fill:#7b7979;fill-opacity:1;fill-rule:nonzero;stroke:none" transform="translate(191.417 434.158)"/><path d="M0 0h.852v-.95h.017c.134.291.52 1.043 1.405 1.043.709 0 1.011-.589 1.011-1.17v-2.935h-.848v2.51c0 .51-.078.962-.506.962C1.086-.54.852-1.856.852-2.35v-1.662H0Z" style="fill:#7b7979;fill-opacity:1;fill-rule:nonzero;stroke:none" transform="translate(193.41 438.17)"/><path d="M0 0c-.286.192-.607.395-1.01.395-.269 0-.575-.12-.575-.421 0-.725 1.838-.794 1.838-2.073 0-.86-.675-1.213-1.524-1.213-.516 0-.868.109-1.072.176v.789c.247-.17.642-.426 1.115-.426.485 0 .689.256.689.508 0 .706-1.81.846-1.81 1.996 0 .605.402 1.153 1.408 1.153.429 0 .799-.119.941-.161z" style="fill:#7b7979;fill-opacity:1;fill-rule:nonzero;stroke:none" transform="translate(199.873 437.379)"/><path d="M0 0c.665 0 .805.911.805 1.606 0 .665-.124 1.56-.805 1.56-.699 0-.802-.895-.802-1.56C-.802.911-.735 0 0 0m-1.686 3.614h.848v-.659h.02c.119.27.395.751 1.036.751 1.162 0 1.514-.942 1.514-2.1C1.732.406 1.286-.49.218-.49c-.674 0-.917.428-1.036.649h-.02V-2.2h-.848z" style="fill:#7b7979;fill-opacity:1;fill-rule:nonzero;stroke:none" transform="translate(202.555 434.557)"/><path d="M0 0c1.185 0 1.779.742 1.779 2.096 0 1.359-.594 2.1-1.779 2.1-1.174 0-1.764-.741-1.764-2.1C-1.764.742-1.174 0 0 0m-.84 2.096c0 .736.094 1.745.84 1.745.763 0 .852-1.009.852-1.745C.852 1.366.763.353 0 .353c-.746 0-.84 1.013-.84 1.743" style="fill:#7b7979;fill-opacity:1;fill-rule:nonzero;stroke:none" transform="translate(206.634 434.067)"/><path d="M0 0h.85v1.836c0 1.081.499 1.359 1.312 1.385v.884c-.733-.061-1.027-.573-1.296-1.11H.85v1.017H0Z" style="fill:#7b7979;fill-opacity:1;fill-rule:nonzero;stroke:none" transform="translate(209.292 434.158)"/><path d="M0 0a2.582 2.582 0 0 0-.592-.06c-.794 0-1.259.244-1.259 1.02v2.645h-.637v.439h.637v.943l.85.513V4.044H.095v-.439h-1.096V1.297c0-.589.06-.876.606-.876.138 0 .277.015.395.065z" style="fill:#7b7979;fill-opacity:1;fill-rule:nonzero;stroke:none" transform="translate(214.275 434.127)"/><path d="M0 0h.85v2.587c0 .785-.109 1.518-1.415 1.518-1.263 0-1.498-.633-1.544-1.232h.894c.034.474.125.876.65.876C0 3.749 0 3.026 0 2.587v-.353C-.533 2.207-2.241 2.15-2.241.913c0-.559.463-1.004 1.092-1.004.641 0 .998.412 1.128.648H0Zm0 1.41C0 .727-.533.44-.826.44c-.275 0-.488.237-.488.598 0 .741.959.817 1.314.842z" style="fill:#7b7979;fill-opacity:1;fill-rule:nonzero;stroke:none" transform="translate(217.024 434.158)"/><path d="M0 0a1.02 1.02 0 0 0-.394-.066c-.551 0-.607.288-.607.876v2.308H.095v.439h-1.096v1.456l-.849-.512v-.944h-.644v-.439h.644V.474c0-.777.461-1.02 1.262-1.02.194 0 .42.016.588.06z" style="fill:#7b7979;fill-opacity:1;fill-rule:nonzero;stroke:none" transform="translate(221.124 434.613)"/><path d="M221.899 439.971h.917v-.84h-.917zm.033-1.8h.853v-4.012h-.853z" style="fill:#7b7979;fill-opacity:1;fill-rule:nonzero;stroke:none"/><path d="M0 0c1.177 0 1.771.742 1.771 2.096 0 1.359-.594 2.1-1.771 2.1-1.182 0-1.769-.741-1.769-2.1C-1.769.742-1.182 0 0 0m-.848 2.096c0 .736.095 1.745.848 1.745.755 0 .845-1.009.845-1.745C.845 1.366.755.353 0 .353c-.753 0-.848 1.013-.848 1.743" style="fill:#7b7979;fill-opacity:1;fill-rule:nonzero;stroke:none" transform="translate(225.481 434.067)"/><path d="M0 0h.853v-.95h.018c.136.291.522 1.043 1.403 1.043.708 0 1.013-.589 1.013-1.17v-2.935h-.849v2.51c0 .51-.079.962-.51.962C1.091-.54.853-1.856.853-2.35v-1.662H0Z" style="fill:#7b7979;fill-opacity:1;fill-rule:nonzero;stroke:none" transform="translate(228.13 438.17)"/><path d="M0 0c-.214.118-.81.396-1.442.396-.511 0-.875-.294-.875-.736 0-1.219 2.734-1.185 2.734-3.005 0-1.222-.941-1.702-2.111-1.702-.657 0-1.297.15-1.473.217v.904c.259-.15.931-.515 1.616-.515.606 0 1.046.254 1.046.845 0 1.328-2.735 1.243-2.735 3.055 0 .945.696 1.492 1.898 1.492C-.801.951-.228.841 0 .799z" style="fill:#7b7979;fill-opacity:1;fill-rule:nonzero;stroke:none" transform="translate(237.794 439.114)"/><path d="M0 0c0-.683-.527-.97-.824-.97-.279 0-.49.237-.49.599 0 .74.961.817 1.314.841zm0-1.41h.85v2.587c0 .785-.108 1.518-1.414 1.518-1.26 0-1.497-.633-1.541-1.232h.892c.036.474.126.876.649.876C0 2.339 0 1.616 0 1.177V.824C-.527.797-2.241.74-2.241-.497c0-.559.466-1.004 1.095-1.004.645 0 .992.412 1.131.648H0Z" style="fill:#7b7979;fill-opacity:1;fill-rule:nonzero;stroke:none" transform="translate(240.95 435.568)"/><path d="M0 0h-.697v.439H0v.377c0 .743.179 1.518 1.524 1.518.347 0 .649-.053.851-.094v-.58c-.177.076-.405.184-.749.184-.693 0-.775-.497-.775-.928V.439h1.136V0H.851v-3.573H0Z" style="fill:#7b7979;fill-opacity:1;fill-rule:nonzero;stroke:none" transform="translate(243.241 437.731)"/><path d="M0 0c.018.228.149.899.803.899.631 0 .743-.587.743-.899Zm2.3-2.326c-.25-.12-.5-.17-.762-.17-1.207 0-1.561 1.315-1.561 2.107h2.4c0 .776-.245 1.643-1.541 1.643C-.428 1.254-.87.444-.87-.665c0-1.617.888-2.277 2-2.277.509 0 .82.084 1.17.227z" style="fill:#7b7979;fill-opacity:1;fill-rule:nonzero;stroke:none" transform="translate(246.43 437.009)"/><path d="M0 0a1.023 1.023 0 0 0-.397-.066c-.546 0-.604.288-.604.876v2.308H.093v.439h-1.094v1.456l-.852-.512v-.944h-.641v-.439h.641V.474c0-.777.463-1.02 1.263-1.02.193 0 .422.016.59.06z" style="fill:#7b7979;fill-opacity:1;fill-rule:nonzero;stroke:none" transform="translate(251.773 434.613)"/><path d="M0 0h.68l2.064 5.814h-.803L1 2.95H.983L-.066 5.814h-.885L.587 1.761Z" style="fill:#7b7979;fill-opacity:1;fill-rule:nonzero;stroke:none" transform="translate(252.895 432.357)"/><path d="M0 0h.819l.529 1.728h2.004L3.886 0h.959L2.899 5.813H1.94Zm2.348 4.981h.019l.819-2.699H1.524Z" style="fill:#7b7979;fill-opacity:1;fill-rule:nonzero;stroke:none" transform="translate(257.914 434.158)"/><path d="M0 0h.858v4.012H.009V2.351C.009 1.855-.229.539-1.07.539c-.426 0-.504.459-.504.963v2.51h-.851V1.081c0-.584.3-1.172 1.01-1.172C-.531-.091-.154.66-.02.956H0Z" style="fill:#7b7979;fill-opacity:1;fill-rule:nonzero;stroke:none" transform="translate(265.798 434.158)"/><path d="M0 0a1.04 1.04 0 0 0-.397-.066c-.546 0-.605.288-.605.876v2.308H.094v.439h-1.096v1.456l-.851-.512v-.944h-.639v-.439h.639V.474c0-.777.463-1.02 1.261-1.02.195 0 .423.016.592.06z" style="fill:#7b7979;fill-opacity:1;fill-rule:nonzero;stroke:none" transform="translate(269.925 434.613)"/><path d="M0 0h.853v-2.751h.014c.134.291.522 1.043 1.408 1.043.705 0 1.008-.589 1.008-1.17v-2.935h-.85v2.51c0 .51-.073.962-.506.962-.842 0-1.074-1.316-1.074-1.81v-1.662H0Z" style="fill:#7b7979;fill-opacity:1;fill-rule:nonzero;stroke:none" transform="translate(270.692 439.971)"/><path d="M0 0c1.177 0 1.777.742 1.777 2.096 0 1.359-.6 2.1-1.777 2.1-1.18 0-1.767-.741-1.767-2.1C-1.767.742-1.18 0 0 0m-.842 2.096c0 .736.092 1.745.842 1.745.759 0 .851-1.009.851-1.745C.851 1.366.759.353 0 .353c-.75 0-.842 1.013-.842 1.743" style="fill:#7b7979;fill-opacity:1;fill-rule:nonzero;stroke:none" transform="translate(276.62 434.067)"/><path d="M0 0h.851v-1.018h.013c.273.538.564 1.05 1.298 1.111v-.885C1.344-.818.851-1.095.851-2.176v-1.836H0Z" style="fill:#7b7979;fill-opacity:1;fill-rule:nonzero;stroke:none" transform="translate(279.276 438.17)"/><path d="M282.193 434.158h.855v4.012h-.855zm-.032 4.974h.917v.84h-.917z" style="fill:#7b7979;fill-opacity:1;fill-rule:nonzero;stroke:none"/><path d="M0 0a2.594 2.594 0 0 0-.586-.06c-.803 0-1.268.244-1.268 1.02v2.645h-.636v.439h.636v.943L-1 5.5V4.044H.095v-.439H-1V1.297c0-.589.056-.876.603-.876.138 0 .278.015.397.065z" style="fill:#7b7979;fill-opacity:1;fill-rule:nonzero;stroke:none" transform="translate(286.365 434.127)"/><path d="m0 0-1.543 4.053h.882L.394 1.189h.013l.948 2.864h.801L.088-1.761h-.682z" style="fill:#7b7979;fill-opacity:1;fill-rule:nonzero;stroke:none" transform="translate(288.077 434.118)"/><path d="M0 0h-2.453v-7.826h-2.159V0h-2.455v-7.826h-2.212v-1.373H5.964v1.373H0Zm2.065 4.933H-8.172v1.372H4.52V-6.45H2.065Z" style="fill:#7b7979;fill-opacity:1;fill-rule:nonzero;stroke:none" transform="translate(202.711 452.897)"/><path d="M0 0v4.472h-2.454L-2.457.214s-.07-1.076 1.357-1.42c.634-.154 2.241-.417 4.857-.417 2.691 0 5.359.507 5.359.507V.261C8.887.177 6.254-.243 3.643-.243 1.264-.243.333-.083 0 0m11.287 11.262V9.89H9.034V3.011H6.581V6.68c-1-.15-2.743-.368-4.498-.368-2.608 0-4.215.256-4.851.416a.375.375 0 0 1-.039.01l-.022.006.001.003c-.81.226-1.301.711-1.301 1.404v6.264h8.206v-1.374h-5.751l.001-5.104c.33-.083 1.263-.244 3.643-.244 1.783 0 3.58.197 4.611.349v6.86h2.453v-3.64z" style="fill:#7b7979;fill-opacity:1;fill-rule:nonzero;stroke:none" transform="translate(281.198 444.786)"/><path d="M0 0c1.194 0 2.157 1.483 2.157 3.307 0 1.824-.963 3.306-2.157 3.306-1.189 0-2.155-1.482-2.155-3.306S-1.189 0 0 0m0-1.373c-2.545 0-4.608 2.094-4.608 4.68 0 2.585 2.063 4.679 4.608 4.679 2.544 0 4.611-2.094 4.611-4.679 0-2.586-2.067-4.68-4.611-4.68m.279-5.543v4.472h-2.456v-4.258s-.071-1.077 1.356-1.42c.635-.154 2.241-.417 4.858-.417 2.689 0 5.357.507 5.357.507v1.377c-.229-.084-2.864-.505-5.471-.505-2.379 0-3.313.161-3.644.244M9.313 4.408h2.376V3.035H9.313v-6.94H6.861V7.986h2.452z" style="fill:#7b7979;fill-opacity:1;fill-rule:nonzero;stroke:none" transform="translate(231.637 451.702)"/><path d="M0 0h6.459v-1.373H-8.936V0h6.487v.693c-1.985.07-3.259.248-3.831.372-1.625.357-1.544 1.415-1.544 1.415v4.496l13.17-.003v-1.37H-5.372V4.592H5.346V3.221H-5.372v-.936c.721-.088 1.783-.252 4.491-.252 2.968 0 5.968.414 6.227.501V1.172S2.791.746 0 .676zm-1.239-8.246c-1.941 0-3.516 1.109-3.516 2.475 0 1.365 1.575 2.473 3.516 2.473 1.943 0 3.518-1.108 3.518-2.473 0-1.366-1.575-2.475-3.518-2.475m0 6.321c-3.401 0-6.158-1.724-6.158-3.851 0-2.124 2.757-3.848 6.158-3.848 3.399 0 6.155 1.724 6.155 3.848 0 2.127-2.756 3.851-6.155 3.851" style="fill:#7b7979;fill-opacity:1;fill-rule:nonzero;stroke:none" transform="translate(219.072 452.228)"/><path d="M0 0c0 1.37-1.577 2.476-3.52 2.476-1.939 0-3.515-1.106-3.515-2.476 0-1.365 1.576-2.473 3.515-2.473C-1.577-2.473 0-1.365 0 0m2.639-.002c0-2.127-2.757-3.847-6.159-3.847-3.399 0-6.156 1.72-6.156 3.847s2.757 3.85 6.156 3.85c3.402 0 6.159-1.723 6.159-3.85m-.248 6.236h1.783V4.858h-15.396v1.376h5.211V8.93h2.452V6.234H-.06v5.128h-9.717v1.373H2.391Z" style="fill:#7b7979;fill-opacity:1;fill-rule:nonzero;stroke:none" transform="translate(271.173 446.468)"/><path d="M0 0c.941-1.375 2.603-2.534 3.862-3.272l1 1.202C2.638-.582 1.318 1.138 1.318 3.687v.393h3.024v1.373h-8.683V4.08h3.024v-.393c0-2.549-1.322-4.269-3.543-5.757l.999-1.202C-2.6-2.534-.943-1.375 0 0m.212-8.965v4.472H-2.24l-.003-4.258s-.069-1.076 1.357-1.419c.633-.154 2.238-.417 4.858-.417 2.689 0 5.358.507 5.358.507v1.376c-.23-.084-2.865-.504-5.474-.504-2.378 0-3.31.161-3.644.243M6.794.981H4.455V2.36h2.339v3.578h2.454V-5.953H6.794Z" style="fill:#7b7979;fill-opacity:1;fill-rule:nonzero;stroke:none" transform="translate(248.716 453.75)"/><path d="M0 0c0 1.437.902 2.604 2.02 2.604 1.117 0 2.022-1.167 2.022-2.604 0-1.438-.905-2.606-2.022-2.606C.902-2.606 0-1.438 0 0m6.34-.142c0 1.071-.485 2.042-1.263 2.746h1.304v1.425H3.405v1.318H.665V4.029h-3.004V2.604h1.302C-1.814 1.9-2.298.929-2.298-.142c0-2.148 1.934-3.889 4.318-3.889 2.385 0 4.32 1.741 4.32 3.889M2.333-9.601v4.472H-.123v-4.258s-.072-1.076 1.355-1.42c.636-.153 2.242-.416 4.858-.416 2.69 0 5.358.507 5.358.507v1.376c-.229-.084-2.864-.504-5.472-.504-2.378 0-3.312.16-3.643.243m9.033 11.325h2.377V.351h-2.377V-6.59H8.914V5.302h2.452z" style="fill:#7b7979;fill-opacity:1;fill-rule:nonzero;stroke:none" transform="translate(162.052 454.387)"/><path d="M0 0h-6.61v-2.029h5.023v-6.636H-4.12v5.212h-10.054v1.424h5.024V0h-6.604v1.419h11.5v5.13h-9.717v1.366h12.168V1.419H0Z" style="fill:#7b7979;fill-opacity:1;fill-rule:nonzero;stroke:none" transform="translate(191.549 451.287)"/></g></svg>