<svg xmlns="http://www.w3.org/2000/svg" width="1224.0616mm" height="200mm" viewBox="0 0 1224.0616 200"><defs><clipPath id="a" clipPathUnits="userSpaceOnUse"><path d="M0 595h842V0H0Z"/></clipPath></defs><g clip-path="url(#a)" transform="matrix(4.43918 0 0 -4.43918 -647.77 1686.381)"><path d="m0 0-.008.117c0 2-1.621 3.621-3.621 3.621l-21.598.002V.086h20.45v-2.971h-21.959v-3.656h12.211a2.402 2.402 0 0 1-.51-1.473c0-.576.209-1.097.545-1.513h-10.735v-3.655h20.448v-5.257H0v5.173l-.008.116c0 2-1.621 3.623-3.621 3.623h-7.086c.334.416.543.937.543 1.513 0 .557-.197 1.065-.51 1.473H1.531v3.656H0Z" style="fill:#254aa5;fill-opacity:1;fill-rule:nonzero;stroke:none" transform="translate(288.977 371.11)"/><path d="m0 0 5.316 8.865L10.602.008h4.779l-5.285 8.857h4.763v3.655H-4.25V8.865H.541L-4.779 0Z" style="fill:#254aa5;fill-opacity:1;fill-rule:nonzero;stroke:none" transform="translate(300.082 362.343)"/><path d="M0 0h-4.777v-6.258A2.424 2.424 0 0 1-6.83-5.117a2.43 2.43 0 0 1-2.43-2.432 2.429 2.429 0 0 1 2.43-2.43c.867 0 1.621.459 2.053 1.139v-10.41h-15.955v3.982h-4.776l.006-4.015c0-2 1.621-3.621 3.623-3.621H.002Z" style="fill:#254aa5;fill-opacity:1;fill-rule:nonzero;stroke:none" transform="translate(322.984 375.585)"/><path d="M0 0a2.423 2.423 0 0 1-2.055-1.139v4.666h-4.777v-19.25h-15.959V-12.234h-4.775v-3.407l.003-.115c0-2 1.624-3.621 3.625-3.621h21.879l.004 15.658A2.428 2.428 0 0 1 0-4.861 2.432 2.432 0 0 1 0 0" style="fill:#254aa5;fill-opacity:1;fill-rule:nonzero;stroke:none" transform="translate(257.137 372.058)"/><path d="M0 0a2.07 2.07 0 1 0 0 4.14A2.07 2.07 0 0 0 0 0m-5.85 2.07A5.849 5.849 0 0 1 0-3.779 5.85 5.85 0 0 1 5.852 2.07a5.83 5.83 0 0 1-1.411 3.805h5.112v3.666H1.262a2.302 2.302 0 0 1 1.049 1.932A2.308 2.308 0 1 1-1.26 9.541h-8.289V5.875h5.11A5.83 5.83 0 0 1-5.85 2.07" style="fill:#254aa5;fill-opacity:1;fill-rule:nonzero;stroke:none" transform="translate(237.48 363.597)"/><path d="M0 0a2.308 2.308 0 0 1-1.93 1.049 2.308 2.308 0 0 1 0-4.617c.809 0 1.516.416 1.93 1.047v-3.122a2.3 2.3 0 0 1-1.93 1.051 2.31 2.31 0 0 1 0-4.619c.809 0 1.516.416 1.93 1.047v-3.367h-20.703v-3.657H0v-4.66h4.777V3.068H0Z" style="fill:#254aa5;fill-opacity:1;fill-rule:nonzero;stroke:none" transform="translate(350.67 372.517)"/><path d="M0 0v3.377h-12.514v1.191H-.006L.02 9.127c0 1.865-1.545 3.377-3.409 3.377l-13.902-.002V9.127h12.516V7.939h-12.526l.026-4.562A3.376 3.376 0 0 1-13.9 0Z" style="fill:#254aa5;fill-opacity:1;fill-rule:nonzero;stroke:none" transform="translate(345.621 362.353)"/><path d="M388.115 375.585h-4.777v-22.916h4.777z" style="fill:#254aa5;fill-opacity:1;fill-rule:nonzero;stroke:none"/><path d="m0 0-.008 13.52-.008.248a3.375 3.375 0 0 1-3.375 3.377l-.24-.002h-13.662v-3.375h12.516V.035Z" style="fill:#254aa5;fill-opacity:1;fill-rule:nonzero;stroke:none" transform="translate(378.09 357.712)"/><path d="M0 0h-28.268v-3.662h11.791a2.408 2.408 0 0 1-.089-.641c0-.23.043-.449.105-.662h-10.254v-2.664h20.391v-.935h-20.401l.018-3.407.008-.195c0-1.473 1.511-2.666 3.377-2.666h21.777v2.666h-20.391v.939h20.383l-.008 3.598c0 1.475-1.511 2.666-3.377 2.666l-6.871-.002c.061.213.104.432.104.662 0 .223-.031.438-.088.641H0Z" style="fill:#254aa5;fill-opacity:1;fill-rule:nonzero;stroke:none" transform="translate(421.662 367.45)"/><path d="M0 0h9.021l3.008-3.084h5.621l-6.267 6.461H-2.354l-6.279-6.461h5.625z" style="fill:#254aa5;fill-opacity:1;fill-rule:nonzero;stroke:none" transform="translate(403.018 371.437)"/><path d="M0 0a22.408 22.408 0 0 1-12.871-4.053A22.41 22.41 0 0 1-25.742 0C-38.184 0-48.27-10.084-48.27-22.527c0-12.442 10.086-22.526 22.528-22.526A22.41 22.41 0 0 1-12.871-41 22.408 22.408 0 0 1 0-45.053c12.441 0 22.527 10.084 22.527 22.526C22.527-10.084 12.441 0 0 0" style="fill:#fff;fill-opacity:1;fill-rule:nonzero;stroke:none" transform="translate(194.191 379.886)"/><path d="m0 0-33.879-26.182a22.426 22.426 0 0 1 12.65-3.888c12.44 0 22.526 10.086 22.526 22.527C1.297-4.898.838-2.359 0 0" style="fill:#ed1c24;fill-opacity:1;fill-rule:nonzero;stroke:none" transform="translate(215.422 364.903)"/><path d="m0 0 5.754 3.738 13.685 8.887a22.39 22.39 0 0 1-3.564.775L5.057 4.707 0 .646l-9.422-6.345-22.545-15.182a22.742 22.742 0 0 1 1.66-2.308L-9.598-7.344z" style="fill:#ed1c24;fill-opacity:1;fill-rule:nonzero;stroke:none" transform="translate(181.32 366.286)"/><path d="M0 0a21.789 21.789 0 0 1-1.262 2.582l-23.912-18.209-8.527-6.492-3.332-2.104-10.848-6.845c.432-.026.869-.041 1.309-.041 1.39 0 2.75.129 4.074.371l6.289 5.701 2.508 2.271 7.826 5.287z" style="fill:#ed1c24;fill-opacity:1;fill-rule:nonzero;stroke:none" transform="translate(215.022 365.942)"/><path d="m0 0 9.422 6.344 22.545 15.174a22.394 22.394 0 0 1-1.658 2.308L9.598 7.986 0 .646l-5.76-3.74-13.681-8.892c1.15-.35 2.341-.61 3.564-.774l10.818 8.696z" style="fill:#ed1c24;fill-opacity:1;fill-rule:nonzero;stroke:none" transform="translate(181.32 347.794)"/><path d="m0 0 7.633 5.029 15.926 10.498c-.936.504-1.911.946-2.918 1.317L7.063 6.186 0 .639l-9.604-6.438-20.105-13.471a22.223 22.223 0 0 1 2.041-2.019L-9.457-7.277z" style="fill:#ed1c24;fill-opacity:1;fill-rule:nonzero;stroke:none" transform="translate(181.32 361.667)"/><path d="m0 0 8.943 5.951L26.93 17.92a22.69 22.69 0 0 1-2.446 1.705L8.557 7.277 0 .646l-8.943-5.955-17.985-11.972a22.082 22.082 0 0 1 2.446-1.705L-8.557-6.637z" style="fill:#ed1c24;fill-opacity:1;fill-rule:nonzero;stroke:none" transform="translate(181.32 357.04)"/><path d="m0 0 9.604 6.434L29.709 19.9a22.384 22.384 0 0 1-2.041 2.022L9.457 7.918 0 .646l-7.635-5.035-15.926-10.504a22.39 22.39 0 0 1 2.922-1.318L-7.064-5.549z" style="fill:#ed1c24;fill-opacity:1;fill-rule:nonzero;stroke:none" transform="translate(181.32 352.42)"/><path d="M0 0c-12.441 0-22.527-10.086-22.527-22.525 0-2.647.459-5.188 1.297-7.547L12.645-3.885A22.415 22.415 0 0 1 0 0" style="fill:#ed1c24;fill-opacity:1;fill-rule:nonzero;stroke:none" transform="translate(168.45 379.886)"/><path d="m0 0 3.326 2.096L14.17 8.934a22.303 22.303 0 0 1-5.35-.327L2.508 2.902 0 .637-7.824-4.65l-25.879-17.489a22.68 22.68 0 0 1 1.264-2.582L-8.523-6.496z" style="fill:#ed1c24;fill-opacity:1;fill-rule:nonzero;stroke:none" transform="translate(181.32 370.913)"/><path d="m0 0 7.143-.002v4.93l-7.432.002c-3.781 0-6.859-3.076-6.859-6.858 0-3.783 3.078-6.857 6.859-6.857l7.432-.004v4.928L0-3.859A1.93 1.93 0 0 0 0 0" style="fill:#ed1c24;fill-opacity:1;fill-rule:nonzero;stroke:none" transform="translate(192.602 359.269)"/><path d="M0 0a6.865 6.865 0 0 1-6.859-6.857 6.864 6.864 0 0 1 6.857-6.858l7.432-.004V-.002z" style="fill:#ed1c24;fill-opacity:1;fill-rule:nonzero;stroke:none" transform="translate(166.223 364.198)"/><path d="M0 0a5.791 5.791 0 0 0-5.785 5.785A5.792 5.792 0 0 0 0 11.57l6.361-.002V8.783l-6.07.002a3.01 3.01 0 0 1-2.418-1.228l-.279-.379s8.316-.002 8.767-.004V4.391l-8.767.002.277-.379a3.008 3.008 0 0 1 2.42-1.233l6.07-.002V-.002L0 0" style="fill:#fff;fill-opacity:1;fill-rule:nonzero;stroke:none" transform="translate(166.22 351.556)"/><path d="M0 0c-.094 0-.129.016-.148.033a.521.521 0 0 0 .105.082l2.252 1.514L4.748 0Zm3.635 6.771-1.471-.988-1.539.988ZM10.086.703a6.61 6.61 0 0 1 .123 1.225l-.002.115s-.031-.035-.035-.037c.027.224.037.473.037.758v1.582H6.734V2.852l-1.384.89 1.035.696c1.097.736 1.709 1.777 1.709 2.835 0 .247-.031.495-.102.739-.39 1.418-1.707 2.232-3.609 2.232H.141c-1.659 0-2.996-.875-3.493-2.285a3.075 3.075 0 0 1-.158-.982c0-.848.334-1.887 1.492-2.633l1.045-.672c-.271-.186-.59-.399-.59-.399l-.21-.146C-2.986 2.33-3.645 1.234-3.645.045c0-.248.03-.5.088-.756C-3.178-2.363-1.748-3.473 0-3.473h5.547c1.383 0 2.242.506 2.871 1.119.639-.408 2.34-1.5 2.34-1.5L12.633-.93 10.086.703" style="fill:#ed1c24;fill-opacity:1;fill-rule:nonzero;stroke:none" transform="translate(176.27 353.954)"/><path d="m0 0-2.697-1.811h.004c-.483-.312-.69-.734-.588-1.187.095-.414.472-.898 1.217-.898h5.546c.565 0 .916.093 1.379.625l.184.207L.131.088zm-2.271 5.02c-.614 0-.893-.395-.893-.762 0-.324.178-.608.498-.797l-.008.002L.113 1.678l2.955 1.984c.461.309.616.553.553.867-.047.225-.269.491-.748.491Zm-2.305-8.315c-.319 1.383.703 2.293 1.342 2.711l.211.145L-1.09.871l-2.412 1.551a1.99 1.99 0 0 0-.902 2.357c.34.967 1.291 1.569 2.48 1.569h4.242c1.405 0 2.321-.514 2.577-1.448.236-.849-.202-1.744-1.172-2.396L1.332.895l4.332-2.778.078 1.039V.451h1.33C7.07.113 7.07-.807 7.07-.807c.002-.013.002-.041.002-.082 0-.23-.021-.853-.228-1.545l-.053-.171 2.297-1.471c-.164-.258-.553-.863-.719-1.119L6.16-3.781l-.133-.166c-.634-.789-1.281-1.278-2.545-1.278h-5.546c-1.237 0-2.247.776-2.512 1.93" style="fill:#fff;fill-opacity:1;fill-rule:nonzero;stroke:none" transform="translate(178.334 356.778)"/><path d="M0 0a5.79 5.79 0 0 0-5.785 5.785A5.79 5.79 0 0 0 0 11.57l6.359-.002V8.783l-6.07.002a3.006 3.006 0 0 1-3.002-3.002A3.006 3.006 0 0 1 .289 2.781l6.07-.002V-.002L0 0" style="fill:#fff;fill-opacity:1;fill-rule:nonzero;stroke:none" transform="translate(192.313 351.556)"/><path d="M0 0h1.538v1.959H0a4.382 4.382 0 0 1-4.399-4.381v-.016A4.41 4.41 0 0 1 0-6.842h1.538v1.977H0c-.984 0-1.843.594-2.225 1.452h3.763v1.967h-3.763A2.457 2.457 0 0 0 0 0" style="fill:#254aa5;fill-opacity:1;fill-rule:nonzero;stroke:none" transform="translate(238.902 345.598)"/><path d="M0 0a2.937 2.937 0 0 1-2.756 1.875h-3.375V-.084h3.359a1 1 0 0 0 .994-.997c0-.55-.448-.98-.994-.98h-3.359v-4.865h1.995v2.903h1.447A2.951 2.951 0 0 1 0-2.145c.132.333.198.695.198 1.064C.198-.699.132-.338 0 0" style="fill:#254aa5;fill-opacity:1;fill-rule:nonzero;stroke:none" transform="translate(246.96 345.682)"/><path d="M0 0a2.436 2.436 0 0 0-2.434 2.443A2.425 2.425 0 0 0 0 4.865h1.553v1.959H0a4.365 4.365 0 0 1-3.783-2.178v2.178h-1.959v-8.801h1.959v2.19c.76-1.295 2.175-2.19 3.783-2.19h1.553V0H0" style="fill:#254aa5;fill-opacity:1;fill-rule:nonzero;stroke:none" transform="translate(233.677 340.732)"/><path d="M0 0h1.553v1.959H0a4.383 4.383 0 0 1-4.4-4.381v-.016A4.41 4.41 0 0 1 0-6.842h1.553v1.977H0c-.987 0-1.845.594-2.207 1.452h3.778v1.967h-3.778A2.424 2.424 0 0 0 0 0" style="fill:#254aa5;fill-opacity:1;fill-rule:nonzero;stroke:none" transform="translate(268.313 345.598)"/><path d="M0 0h1.548v1.959H0a4.382 4.382 0 0 1-4.399-4.381v-.016A4.41 4.41 0 0 1 0-6.842h1.548v1.977H0c-.991 0-1.853.594-2.224 1.452h3.787v1.967h-3.771A2.415 2.415 0 0 0 0 0" style="fill:#254aa5;fill-opacity:1;fill-rule:nonzero;stroke:none" transform="translate(298.565 345.598)"/><path d="M0 0h1.535v1.959H0c-2.439 0-4.41-1.943-4.41-4.381v-.016A4.408 4.408 0 0 1 0-6.842h1.535v1.977H0a2.427 2.427 0 0 0-2.241 1.452H1.55v1.967h-3.791A2.458 2.458 0 0 0 0 0" style="fill:#254aa5;fill-opacity:1;fill-rule:nonzero;stroke:none" transform="translate(304.853 345.598)"/><path d="M0 0c1.228-.032 2.252-.727 2.683-1.726.115-.304.198-.634.198-.966 0-.345-.083-.678-.198-.998-.431-1.011-1.49-1.721-2.748-1.721h-3.384v2.008H.083c.43 0 .755.298.755.711 0 .397-.359.662-.755.662l-.728.015c-1.233.033-2.257.728-2.687 1.718-.117.314-.2.647-.2.981 0 .344.083.678.2.996.43.992 1.504 1.71 2.754 1.71h3.376V1.431H-.71a.733.733 0 0 1-.755-.747c0-.403.342-.667.755-.667L0 0" style="fill:#254aa5;fill-opacity:1;fill-rule:nonzero;stroke:none" transform="translate(368.978 344.167)"/><path d="M285.181 338.756h1.96v8.801h-1.96z" style="fill:#254aa5;fill-opacity:1;fill-rule:nonzero;stroke:none"/><path d="M0 0a2.432 2.432 0 1 0 0 4.865h1.538v1.959H0a4.387 4.387 0 0 1-4.402-4.396A4.4 4.4 0 0 1 0-1.977h1.538V0H0" style="fill:#254aa5;fill-opacity:1;fill-rule:nonzero;stroke:none" transform="translate(348.48 340.732)"/><path d="M0 0a2.432 2.432 0 0 0-2.423 2.428A2.428 2.428 0 0 0 0 4.865h1.561v1.959H0a4.384 4.384 0 0 1-4.385-4.396C-4.385 0-2.423-1.977 0-1.977h1.561V0H0" style="fill:#254aa5;fill-opacity:1;fill-rule:nonzero;stroke:none" transform="translate(395.519 340.732)"/><path d="M0 0a2.626 2.626 0 0 0-2.639 2.614A2.63 2.63 0 0 0 0 5.235 2.618 2.618 0 0 0 0 0m0 7.195a4.583 4.583 0 0 1-4.609-4.581A4.598 4.598 0 0 1 0-1.982c2.522 0 4.581 2.062 4.581 4.596A4.582 4.582 0 0 1 0 7.195" style="fill:#254aa5;fill-opacity:1;fill-rule:nonzero;stroke:none" transform="translate(353.933 340.546)"/><path d="M0 0c-1.366 0-2.457 1.091-2.457 2.428A2.435 2.435 0 0 0 0 4.865h1.54v1.959H0a4.389 4.389 0 0 1-4.416-4.396A4.402 4.402 0 0 1 0-1.977h1.54V0H0" style="fill:#254aa5;fill-opacity:1;fill-rule:nonzero;stroke:none" transform="translate(251.427 340.732)"/><path d="M0 0c-1.454 0-2.638 1.177-2.638 2.614 0 1.441 1.184 2.621 2.638 2.621A2.618 2.618 0 0 0 0 0m-.082 7.195a4.581 4.581 0 0 1-4.594-4.581A4.596 4.596 0 0 1-.082-1.982c2.521 0 4.581 2.062 4.581 4.596A4.582 4.582 0 0 1-.082 7.195" style="fill:#254aa5;fill-opacity:1;fill-rule:nonzero;stroke:none" transform="translate(256.945 340.546)"/><path d="M0 0c0 .382-.082.743-.199 1.081a2.943 2.943 0 0 1-2.748 1.875h-3.384V.997h3.368c.545 0 .999-.451.999-.997 0-.533-.454-.979-.999-.979h-3.368v-4.866h1.969v2.903h1.399c.545 0 .999-.449.999-.998v-1.905H0v1.79c0 .384-.082.748-.199 1.077-.15.366-.348.67-.613.957.265.281.463.596.613.958C-.082-.73 0-.369 0 0" style="fill:#254aa5;fill-opacity:1;fill-rule:nonzero;stroke:none" transform="translate(313.094 344.6)"/><path d="M0 0v-3.226A12.666 12.666 0 0 1-2.354-.049c-.019.017-.055.032-.072.049h-1.935v-8.801h1.969v5.877A11.888 11.888 0 0 0-.223-7.509c.049-.217.095-.429.125-.649.05-.197.098-.643.098-.643h1.969V0H0" style="fill:#254aa5;fill-opacity:1;fill-rule:nonzero;stroke:none" transform="translate(291.882 347.557)"/><path d="M0 0v-3.226A13.904 13.904 0 0 1-2.357-.049.227.227 0 0 0-2.424 0h-1.937v-8.801h1.971v5.877A12.258 12.258 0 0 0-.23-7.509c.048-.217.098-.429.13-.649.034-.197.1-.643.1-.643h1.961V0H0" style="fill:#254aa5;fill-opacity:1;fill-rule:nonzero;stroke:none" transform="translate(363.19 347.557)"/><path d="M313.473 338.756h1.979v8.801h-1.979z" style="fill:#254aa5;fill-opacity:1;fill-rule:nonzero;stroke:none"/><path d="M0 0v-1.967h1.604v-1.452H.084a2.431 2.431 0 1 0 0 4.865H1.62v1.959H.084c-2.425 0-4.419-1.959-4.419-4.396 0-2.428 1.994-4.405 4.419-4.405H3.58V0H0" style="fill:#254aa5;fill-opacity:1;fill-rule:nonzero;stroke:none" transform="translate(326.783 344.151)"/><path d="M0 0v-1.967h1.591v-1.452H.066A2.443 2.443 0 0 0-2.373-.991 2.438 2.438 0 0 0 .066 1.446h1.541v1.959H.066A4.386 4.386 0 0 1-4.333-.991 4.399 4.399 0 0 1 .066-5.396h3.503V0H0" style="fill:#254aa5;fill-opacity:1;fill-rule:nonzero;stroke:none" transform="translate(281.232 344.151)"/><path d="M0 0v-3.226A13.226 13.226 0 0 1-2.375-.049L-2.423 0h-1.944v-8.801h1.961v5.877A11.913 11.913 0 0 0-.231-7.509c.049-.217.097-.429.131-.649.035-.197.1-.643.1-.643h1.97V0H0" style="fill:#254aa5;fill-opacity:1;fill-rule:nonzero;stroke:none" transform="translate(320.182 347.557)"/><path d="M0 0v-3.226C-.611-2.046-1.423-.983-2.348-.049A.204.204 0 0 0-2.407 0h-1.96v-8.801h1.99v5.877A12.114 12.114 0 0 0-.23-7.509c.047-.217.098-.429.131-.649.033-.197.099-.643.099-.643h1.977V0H0" style="fill:#254aa5;fill-opacity:1;fill-rule:nonzero;stroke:none" transform="translate(274.607 347.557)"/><path d="M0 0v-1.959h1.878v-6.842h1.961v6.842h1.862V0Z" style="fill:#254aa5;fill-opacity:1;fill-rule:nonzero;stroke:none" transform="translate(372.156 347.557)"/><path d="M0 0v-1.959h1.855v-6.842h1.966v6.842h1.863V0Z" style="fill:#254aa5;fill-opacity:1;fill-rule:nonzero;stroke:none" transform="translate(397.463 347.557)"/><path d="M403.527 338.756h1.959v8.801h-1.959z" style="fill:#254aa5;fill-opacity:1;fill-rule:nonzero;stroke:none"/><path d="M0 0c-1.438 0-2.632 1.177-2.632 2.614A2.646 2.646 0 0 0 0 5.253a2.631 2.631 0 0 0 2.623-2.639A2.623 2.623 0 0 0 0 0m0 7.195a4.585 4.585 0 0 1-4.592-4.581A4.6 4.6 0 0 1 0-1.982a4.587 4.587 0 0 1 4.584 4.596A4.572 4.572 0 0 1 0 7.195" style="fill:#254aa5;fill-opacity:1;fill-rule:nonzero;stroke:none" transform="translate(410.393 340.546)"/><path d="M0 0h-1.969v-6.082A2.97 2.97 0 0 1-.101-8.753a3.323 3.323 0 0 1 1.07-.196c.379 0 .744.08 1.057.196 1.095.43 1.887 1.492 1.887 2.738V0h-1.97v-5.998a.97.97 0 0 0-.974-.981.966.966 0 0 0-.969.981V0" style="fill:#254aa5;fill-opacity:1;fill-rule:nonzero;stroke:none" transform="translate(386.905 347.557)"/><path d="M0 0c0 .365-.08.727-.19 1.064a2.945 2.945 0 0 1-2.755 1.875h-3.376V.98h3.36C-2.416.98-1.96.529-1.96 0c0-.55-.456-.996-1.001-.996h-3.36v-4.865h1.97v2.902h1.39c.545 0 1.001-.448 1.001-.998v-1.904H0v1.79c0 .399-.08.748-.19 1.077a2.93 2.93 0 0 1-.613.956c.265.281.463.597.613.958C-.08-.747 0-.386 0 0" style="fill:#254aa5;fill-opacity:1;fill-rule:nonzero;stroke:none" transform="translate(384.558 344.617)"/><path d="M0 0v-3.226A12.679 12.679 0 0 1-2.351-.049c-.015.017-.032.032-.049.049h-1.961v-8.801h1.995v5.877A12.061 12.061 0 0 0-.215-7.509c.05-.217.1-.429.132-.649.034-.197.1-.643.1-.643h1.978V0H0" style="fill:#254aa5;fill-opacity:1;fill-rule:nonzero;stroke:none" transform="translate(419.634 347.557)"/><path d="m0 0 2.024-1.404h-3.44c-.23 0-.297.116-.297.181-.017.052-.017.068.115.168 0 0 1.331.874 1.598 1.055m.016 2.315c-.25.165-1.398.976-1.482 1.043-.066.035-.032.103.017.087h3.017c.05 0 .083-.052.034-.087-.067-.035-.975-.644-1.586-1.043M4.559-.842c.098.481.082.941.082.941v.013c.016.08.016 1.092.016 1.092H2.901V.309L1.7 1.12l1.053.698a1.962 1.962 0 0 1 .959 2.092c-.15.728-.695 1.514-1.994 1.494h-3.052c-.875.02-1.68-.534-1.943-1.313-.133-.364-.314-1.293.655-2.257l.114-.1s.547-.381.812-.562l-.712-.481c-.804-.45-1.216-1.385-1.018-2.35.198-1.044 1-1.737 2.01-1.737h3.387c.732 0 1.26.249 1.741.81l1.226-.862.928 1.692z" style="fill:#254aa5;fill-opacity:1;fill-rule:nonzero;stroke:none" transform="translate(336.406 342.152)"/></g></svg>