<svg xmlns="http://www.w3.org/2000/svg" xml:space="preserve" width="2744.0916" height="300" viewBox="0 0 2744.0916 299.99999"><defs><clipPath id="a" clipPathUnits="userSpaceOnUse"><path d="M0 841.89h595.28V0H0Z"/></clipPath><clipPath id="b" clipPathUnits="userSpaceOnUse"><path d="m292.996 602.784-3.777-7.463-4.747 9.443h-5.786l7.518-14.794v-3.019c.042-2.995 2.531-4.594 4.312-4.594h1.125v7.704l7.494 14.703-2.248.004c-2.009 0-3.207-.613-3.891-1.984"/></clipPath><clipPath id="c" clipPathUnits="userSpaceOnUse"><path d="M0 841.89h595.28V0H0Z"/></clipPath><clipPath id="d" clipPathUnits="userSpaceOnUse"><path d="m100.424 641.889-4.832-9.544-6.073 12.077h-7.401l9.616-18.922v-3.861c.057-3.833 3.239-5.877 5.514-5.877h1.441v9.855l9.588 18.806-2.879.006c-2.568 0-4.102-.783-4.974-2.54"/></clipPath></defs><g clip-path="url(#a)" transform="matrix(12.00413 0 0 -12.00413 -3100.31 7264.297)"><path d="M0 0v9.36h2.169V6.44h2.168V5.264H2.169V0Zm-5.86 5.897c-.271-.353-.404-.77-.404-1.26 0-.491.133-.913.404-1.271.267-.355.569-.536.899-.536.342 0 .643.181.906.536.264.358.395.78.395 1.271 0 .49-.131.907-.395 1.26-.263.351-.564.531-.906.531-.33 0-.632-.18-.899-.531m1.649-8.038h6.843v-1.162h-7.516c-.429 0-.782.125-1.065.371-.281.243-.424.581-.424 1.009V.796h2.162zm1.385 8.965c.373-.258.67-.576.892-.957.218-.382.329-.795.329-1.23 0-.797-.329-1.476-.988-2.043-.657-.564-1.446-.847-2.368-.847-.913 0-1.699.283-2.362.847-.66.567-.995 1.246-.995 2.043 0 .435.113.848.337 1.23.223.381.52.699.883.957h-1.701v1.162h2.746v1.512h2.169V7.986h2.747V6.824Z" style="fill:#231f20;fill-opacity:1;fill-rule:nonzero;stroke:none" transform="translate(366.437 595.5)"/><path d="M0 0h9.245v-2.784c0-.349-.047-.724-.15-1.13-.102-.407-.229-.703-.376-.891h2.084v-1.159H5.697v-2.031h3.514v-4.59H7.045v3.425H-.05v1.165h3.578v2.031h-5.007v1.159h8.3c.108.269.18.571.207.919.033.347.047.701.047 1.057v1.667H0Z" style="fill:#231f20;fill-opacity:1;fill-rule:nonzero;stroke:none" transform="translate(372.219 604.769)"/><path d="M0 0v-7.49h-2.164v2.919h-2.461v1.176h2.461V0Zm-4.984-9.061a1.866 1.866 0 0 1-.424-1.183c0-.439.144-.832.424-1.178.284-.347.609-.52.986-.52.373 0 .705.173.99.52.278.346.422.739.422 1.178 0 .435-.144.828-.422 1.183-.285.354-.617.527-.99.527-.377 0-.702-.173-.986-.527m3.499.856c.692-.564 1.037-1.243 1.037-2.039 0-.808-.345-1.491-1.037-2.051-.693-.559-1.523-.838-2.513-.838-.973 0-1.805.279-2.495.838-.695.56-1.036 1.243-1.036 2.051 0 .796.341 1.475 1.036 2.039.69.565 1.522.851 2.495.851.99 0 1.82-.286 2.513-.851M-11.014-1.3h2.506V.213h2.165V-1.3h2.525v-1.163h-2.491c.118-1.018.498-1.857 1.143-2.514.64-.658 1.368-1.056 2.178-1.201l-1.055-.871c-.676.051-1.365.313-2.064.784-.704.475-1.144.986-1.325 1.527-.174-.541-.613-1.048-1.316-1.515-.708-.47-1.398-.736-2.07-.796l-1.065.871c.817.145 1.545.543 2.193 1.201.65.657 1.026 1.496 1.134 2.514h-2.458z" style="fill:#231f20;fill-opacity:1;fill-rule:nonzero;stroke:none" transform="translate(395.288 604.83)"/><path d="M0 0v-1.576c0-1.243.533-2.278 1.59-3.097 1.064-.822 2.111-1.253 3.15-1.291l-.968-.888c-.905 0-1.879.253-2.905.758-1.037.505-1.689 1.099-1.955 1.78-.258-.69-.903-1.29-1.937-1.788-1.036-.502-2.008-.75-2.93-.75l-.963.888c1.038.038 2.088.469 3.147 1.291 1.059.819 1.587 1.854 1.587 3.097V0Zm0-7.02v-2.539l4.914-.015v-1.161H-7.078v1.161l4.913.015v2.539z" style="fill:#231f20;fill-opacity:1;fill-rule:nonzero;stroke:none" transform="translate(403.974 604.8)"/><path d="M0 0v-9.357h-2.165v4.617h-3.611v1.163h3.611v1.113h-3.611V-1.3h3.611V0Zm-6.637-11.485h7.12v-1.175h-7.78c-.424 0-.784.122-1.073.366-.29.244-.433.581-.433 1.01v2.949h2.166zm-1.798 5.688h5.196v-1.159h-5.869c-.42 0-.774.124-1.061.376a1.246 1.246 0 0 0-.436.985v5.459h2.17z" style="fill:#231f20;fill-opacity:1;fill-rule:nonzero;stroke:none" transform="translate(421.065 604.844)"/><path d="M0 0a1.549 1.549 0 0 1-.326-.962c0-.354.111-.68.326-.974.225-.289.483-.433.784-.433.298 0 .553.144.767.433.219.294.32.62.32.974 0 .358-.101.681-.32.962-.214.286-.469.431-.767.431C.483.431.225.286 0 0m7.977-10.231H.189c-.462 0-.831.125-1.109.371-.28.242-.414.567-.414.975v1.423H5.55v.567h-7v1.117h9.169v-2.754H.83v-.578h7.147ZM7.719 2.432V-.275h2.166v-1.177H7.719v-3.747H5.55v.566c-.3-.132-.671-.25-1.118-.342a6.375 6.375 0 0 0-1.387-.149h-6.309v1.101h2.956v.784a3.255 3.255 0 0 0-1.489.87c-.386.407-.588.875-.588 1.407 0 .274.059.528.172.764.11.233.272.447.477.644h-1.385v1.082h2.813v1.138h2.163V1.528h2.831V.446H3.287c.201-.197.356-.411.471-.644.113-.236.169-.49.169-.764 0-.532-.19-1-.576-1.407-.384-.408-.882-.7-1.496-.87v-.784h1.272c.52 0 .992.033 1.402.094.413.059.753.139 1.021.232v6.129z" style="fill:#231f20;fill-opacity:1;fill-rule:nonzero;stroke:none" transform="translate(425.985 602.428)"/><path d="M0 0a1.74 1.74 0 0 1-.4-1.12c0-.427.134-.809.4-1.131.268-.327.584-.491.944-.491.369 0 .683.164.953.491.265.322.403.704.403 1.131 0 .414-.138.792-.403 1.12-.27.336-.584.499-.953.499C.584.499.268.336 0 0m3.434.839C4.121.307 4.463-.346 4.463-1.12s-.342-1.434-1.029-1.973c-.682-.544-1.51-.811-2.49-.811-.971 0-1.804.267-2.495.811-.689.539-1.033 1.199-1.033 1.973S-2.24.307-1.551.839c.691.537 1.524.807 2.495.807.98 0 1.808-.27 2.49-.807m3.663 1.358H-5.186v1.175h5.053v1.273H-2.15c-.451 0-.811.126-1.084.376-.272.249-.414.578-.414.985v3.165h9.3V7.993h-7.128V5.821h7.273V4.645H2.039V3.372h5.058z" style="fill:#231f20;fill-opacity:1;fill-rule:nonzero;stroke:none" transform="translate(440.944 595.583)"/><path d="M460.231 595.487h-2.174v9.357h2.174zm-6.701-2.128h7.164v-1.175h-7.832c-.433 0-.789.122-1.072.366-.286.244-.428.581-.428 1.01v2.858h2.168zm-4.286 11.073h7.116v-1.16h-2.474v-.752c0-1.172.34-2.131 1.021-2.882.68-.751 1.455-1.2 2.332-1.353l-1.054-.873c-.677.05-1.368.317-2.065.79-.702.473-1.144.982-1.326 1.52-.168-.538-.609-1.046-1.316-1.514-.707-.47-1.395-.732-2.071-.796l-1.063.873c.889.153 1.671.611 2.344 1.368.674.761 1.016 1.715 1.016 2.867v.752h-2.46z" style="fill:#231f20;fill-opacity:1;fill-rule:nonzero;stroke:none"/><path d="M0 0c-.271-.318-.405-.649-.405-1.008 0-.367.134-.705.405-1.013.266-.303.573-.454.93-.454.351 0 .662.151.929.454.268.308.405.646.405 1.013 0 .359-.137.69-.405 1.008-.267.316-.578.475-.929.475C.573.475.266.316 0 0m-.025 7.071c-.273-.302-.413-.637-.413-1.014 0-.369.14-.701.413-1.003.27-.3.588-.45.955-.45.364 0 .68.15.955.45.269.302.406.634.406 1.003 0 .377-.137.712-.406 1.014-.275.304-.591.454-.955.454-.367 0-.685-.15-.955-.454M3.352.811c.666-.49.998-1.097.998-1.819s-.332-1.333-.998-1.831c-.664-.493-1.473-.736-2.422-.736-.943 0-1.748.243-2.414.736-.674.498-1.008 1.109-1.008 1.831S-2.158.321-1.484.811c.666.492 1.471.736 2.414.736.949 0 1.758-.244 2.422-.736M2.018 9.954V8.613h3.9V7.538H3.66c.211-.194.382-.418.506-.672a1.85 1.85 0 0 0 .184-.809c0-.684-.329-1.259-.987-1.731-.661-.468-1.468-.701-2.433-.701-.965 0-1.776.233-2.43.701-.661.472-.992 1.047-.992 1.731 0 .284.062.555.186.809s.293.478.505.672h-2.25v1.075h3.888v1.341Zm5.124-7.921H-5.285v1.101H7.142Z" style="fill:#231f20;fill-opacity:1;fill-rule:nonzero;stroke:none" transform="translate(466.974 595.196)"/><path d="M0 0v-9.632h-2.17v1.16h-2.921v1.027h2.921V0Zm-8.343-1.48c-.229-.289-.345-.643-.345-1.072 0-.428.116-.785.345-1.071.226-.287.509-.427.842-.427.323 0 .596.14.826.427.232.286.347.643.347 1.071 0 .429-.115.783-.347 1.072-.23.285-.503.427-.826.427-.333 0-.616-.142-.842-.427m1.355-10.005H.449v-1.175h-8.095c-.426 0-.785.122-1.079.366-.285.244-.43.581-.43 1.01v2.095h2.167zm1.8 10.781c.635-.507.95-1.125.95-1.848 0-.724-.315-1.341-.95-1.843-.632-.505-1.403-.759-2.313-.759-.911 0-1.685.254-2.319.759-.637.502-.957 1.119-.957 1.843 0 .723.32 1.341.957 1.848.634.512 1.408.765 2.319.765.91 0 1.681-.253 2.313-.765m2.071-4.891v-1.098h-3.326v-1.869h-2.166v1.869h-2.95v1.098z" style="fill:#231f20;fill-opacity:1;fill-rule:nonzero;stroke:none" transform="translate(486.417 604.844)"/><path d="M0 0c0 .421-.105.759-.323 1.016-.223.257-.514.385-.885.385s-.658-.128-.871-.385C-2.292.759-2.396.421-2.396 0c0-.426.104-.765.311-1.022.211-.261.5-.388.863-.388.368 0 .662.127.887.388C-.11-.765 0-.426 0 0m1.271-2.408c0-.924-.271-1.549-.814-1.873-.547-.326-1.093-.493-1.634-.493-.713 0-1.281.195-1.697.576-.408.384-.631.823-.666 1.314h1.279c.013-.184.126-.347.336-.482.211-.139.464-.207.756-.207.326 0 .6.086.819.257.224.172.333.433.333.782v.497a2.12 2.12 0 0 0-.666-.443 2.06 2.06 0 0 0-.812-.161c-.676 0-1.213.252-1.613.744-.395.498-.597 1.129-.597 1.897 0 .756.219 1.375.657 1.859.437.483.95.722 1.553.722.293 0 .56-.04.812-.121.248-.083.469-.218.666-.399v.37h1.288z" style="fill:#9c9a9b;fill-opacity:1;fill-rule:nonzero;stroke:none" transform="translate(461.705 584.936)"/><path d="M0 0h1.866v-3.006L3.926 0h1.887L3.68-2.648l2.314-4.565H4.065L2.568-3.888l-.702-.871v-2.454H0Z" style="fill:#9c9a9b;fill-opacity:1;fill-rule:nonzero;stroke:none" transform="translate(359.896 589.253)"/><path d="M0 0c0 .681-.056 1.138-.166 1.381-.105.241-.297.359-.571.359a.589.589 0 0 1-.569-.344C-1.421 1.169-1.481.703-1.481 0c0-.654.052-1.11.152-1.362.098-.252.298-.382.592-.382.285 0 .479.13.582.38C-.054-1.11 0-.658 0 0m1.812.002c0-1.854-.848-2.783-2.549-2.783s-2.549.929-2.549 2.783c0 1.849.848 2.772 2.549 2.772S1.812 1.851 1.812.002" style="fill:#9c9a9b;fill-opacity:1;fill-rule:nonzero;stroke:none" transform="translate(369.637 584.71)"/><path d="M0 0h1.543v-1.288c.279.905.773 1.357 1.49 1.357.085 0 .18-.012.297-.026v-1.454a3.118 3.118 0 0 1-.297.022c-.853 0-1.282-.548-1.282-1.649v-2.301H0Z" style="fill:#9c9a9b;fill-opacity:1;fill-rule:nonzero;stroke:none" transform="translate(372.726 587.38)"/><path d="M0 0c.003.063.008.108.008.146 0 .69-.278 1.03-.821 1.03-.537 0-.806-.395-.811-1.176Zm1.652-.863h-3.288v-.294c0-.478.075-.797.232-.957a.77.77 0 0 1 .595-.245c.536 0 .839.302.905.908l1.556-.084C1.374-2.774.545-3.396-.84-3.396c-.849 0-1.499.25-1.941.736-.444.49-.666 1.145-.666 1.966 0 .924.24 1.632.705 2.123.472.486 1.106.73 1.892.73.714 0 1.305-.217 1.784-.648.482-.432.718-1.221.718-2.374" style="fill:#9c9a9b;fill-opacity:1;fill-rule:nonzero;stroke:none" transform="translate(380.063 585.326)"/><path d="M0 0c-.508-.052-.874-.146-1.09-.286-.218-.145-.323-.385-.323-.722 0-.449.191-.673.582-.673.211 0 .399.101.573.302.173.201.258.572.258 1.117Zm-1.351 1.096-1.664.136c.079.532.346.946.807 1.235.459.29 1.031.433 1.729.433.592 0 1.066-.096 1.421-.289.356-.193.579-.412.674-.67.092-.251.14-.644.14-1.174v-2.132c0-.661.034-1.054.106-1.185H.235c-.062.148-.087.417-.087.823-.39-.621-.961-.934-1.719-.934-.492 0-.887.127-1.192.375-.308.25-.461.611-.461 1.083 0 .599.232 1.059.696 1.384C-2.065.51-1.222.7 0 .767v.199c0 .356-.039.605-.124.739-.084.14-.252.206-.494.206-.445 0-.69-.272-.733-.815" style="fill:#9c9a9b;fill-opacity:1;fill-rule:nonzero;stroke:none" transform="translate(386.03 584.59)"/><path d="M0 0h2.055l1.198-2.627L4.534 0h1.82L3.997-4.162v-3.051H2.131v3.051z" style="fill:#9c9a9b;fill-opacity:1;fill-rule:nonzero;stroke:none" transform="translate(390.948 589.253)"/><path d="M0 0c0 .681-.055 1.138-.16 1.381-.113.241-.306.359-.576.359-.266 0-.453-.113-.569-.344-.119-.227-.174-.693-.174-1.396 0-.654.05-1.11.149-1.362.1-.252.3-.382.594-.382.283 0 .478.13.582.38C-.053-1.11 0-.658 0 0m1.811.002c0-1.854-.852-2.783-2.547-2.783-1.698 0-2.55.929-2.55 2.783 0 1.849.852 2.772 2.55 2.772 1.695 0 2.547-.923 2.547-2.772" style="fill:#9c9a9b;fill-opacity:1;fill-rule:nonzero;stroke:none" transform="translate(400.374 584.71)"/><path d="M0 0h1.75v-3.428c0-.346.039-.577.113-.691.071-.121.237-.174.485-.174.228 0 .4.043.521.141a.604.604 0 0 1 .212.394c.026.165.035.512.035 1.031V0h1.758v-5.339h-1.65v.733c-.249-.365-.497-.594-.745-.693a2.337 2.337 0 0 0-.874-.151c-.449 0-.796.082-1.037.242a1.062 1.062 0 0 0-.464.602C.031-4.366 0-3.987 0-3.47Z" style="fill:#9c9a9b;fill-opacity:1;fill-rule:nonzero;stroke:none" transform="translate(403.38 587.38)"/><path d="m0 0 1.706.048V-1.64h1.152v-1.173H1.706v-1.959c0-.362.01-.598.028-.709a.391.391 0 0 1 .184-.269c.107-.068.284-.107.532-.107.132 0 .299.002.5.01v-1.132a5.978 5.978 0 0 0-1.071-.111c-.531 0-.94.089-1.218.259-.284.173-.461.39-.543.653C.04-5.919 0-5.504 0-4.937v2.124h-.694v1.173H0Z" style="fill:#9c9a9b;fill-opacity:1;fill-rule:nonzero;stroke:none" transform="translate(410.054 589.019)"/><path d="M0 0h1.75v-2.438c.316.449.829.675 1.54.675.426 0 .766-.086 1.008-.253.246-.169.404-.381.47-.644.065-.256.097-.634.097-1.127v-3.426h-1.75v3.431c0 .348-.04.582-.112.695-.08.114-.237.174-.477.174-.236 0-.423-.056-.565-.168-.14-.105-.211-.355-.211-.741v-3.391H0Z" style="fill:#9c9a9b;fill-opacity:1;fill-rule:nonzero;stroke:none" transform="translate(413.951 589.253)"/><path d="M0 0h1.906l.891-4.984L3.91 0h1.711l1.043-5.015L7.705 0h1.57L7.453-7.248H5.779L4.647-2.232 3.492-7.248H1.84Z" style="fill:#9c9a9b;fill-opacity:1;fill-rule:nonzero;stroke:none" transform="translate(422.19 589.253)"/><path d="M0 0c0 .681-.053 1.138-.16 1.381-.111.241-.305.359-.574.359-.269 0-.455-.113-.572-.344C-1.42 1.169-1.479.703-1.479 0c0-.654.047-1.11.147-1.362.102-.252.299-.382.598-.382.287 0 .476.13.579.38C-.053-1.11 0-.658 0 0m1.811.002c0-1.854-.85-2.783-2.545-2.783-1.704 0-2.555.929-2.555 2.783 0 1.849.851 2.772 2.555 2.772 1.695 0 2.545-.923 2.545-2.772" style="fill:#9c9a9b;fill-opacity:1;fill-rule:nonzero;stroke:none" transform="translate(435.144 584.71)"/><path d="M0 0h1.545v-1.288c.274.905.774 1.357 1.486 1.357.084 0 .185-.012.297-.026v-1.454a3.045 3.045 0 0 1-.291.022c-.853 0-1.281-.548-1.281-1.649v-2.301H0Z" style="fill:#9c9a9b;fill-opacity:1;fill-rule:nonzero;stroke:none" transform="translate(438.233 587.38)"/><path d="M0 0h1.75v-3.931l1.767 2.057h1.592l-1.586-1.79 1.741-3.549H3.371l-.978 2.477-.643-.746v-1.731H0Z" style="fill:#9c9a9b;fill-opacity:1;fill-rule:nonzero;stroke:none" transform="translate(442.47 589.253)"/><path d="m0 0-.861 2.953L-1.685 0Zm-1.624 4.483H.252l2.426-7.212H.773L.344-1.238h-2.389l-.416-1.491h-1.717z" style="fill:#9c9a9b;fill-opacity:1;fill-rule:nonzero;stroke:none" transform="translate(454.49 584.77)"/><path d="M0 0c.006.063.006.108.006.146 0 .69-.277 1.03-.819 1.03-.535 0-.802-.395-.814-1.176zm1.652-.863h-3.289v-.294c0-.478.076-.797.229-.957a.786.786 0 0 1 .599-.245c.536 0 .835.302.901.908l1.56-.084C1.374-2.774.545-3.396-.836-3.396c-.855 0-1.503.25-1.946.736-.444.49-.662 1.145-.662 1.966 0 .924.233 1.632.706 2.123.467.486 1.099.73 1.89.73.711 0 1.307-.217 1.786-.648.476-.432.714-1.221.714-2.374" style="fill:#9c9a9b;fill-opacity:1;fill-rule:nonzero;stroke:none" transform="translate(467.444 585.326)"/><path d="M0 0h1.658v-.728c.293.556.817.833 1.574.833.409 0 .75-.08 1.018-.236.266-.157.438-.353.508-.597.08-.247.117-.613.117-1.111v-3.5H3.119v3.5c0 .359-.053.581-.158.665-.11.088-.258.127-.44.127-.312 0-.521-.082-.618-.243-.1-.168-.152-.472-.152-.919v-3.13H0Z" style="fill:#9c9a9b;fill-opacity:1;fill-rule:nonzero;stroke:none" transform="translate(470.378 587.38)"/><path d="m0 0-1.627-.053c-.024.33-.088.575-.19.743-.1.169-.265.25-.502.25-.591 0-.88-.525-.88-1.574 0-.608.072-1.037.217-1.279a.69.69 0 0 1 .636-.363c.436 0 .676.328.719.984L0-1.379C-.145-2.78-.963-3.484-2.46-3.484c-.805 0-1.421.234-1.85.697-.43.466-.644 1.153-.644 2.069 0 .906.224 1.6.671 2.077.453.475 1.084.712 1.892.712C-.925 2.071-.128 1.382 0 0" style="fill:#9c9a9b;fill-opacity:1;fill-rule:nonzero;stroke:none" transform="translate(481.394 585.414)"/><path d="M0 0h1.753l.843-3.253L3.411 0h1.51L3.03-5.42c-.179-.516-.335-.879-.465-1.084a1.45 1.45 0 0 0-.578-.516c-.256-.134-.581-.201-.981-.201-.248 0-.495.025-.745.083v1.171c.172-.021.337-.027.487-.027.344 0 .575.044.702.14.127.092.248.3.356.619z" style="fill:#9c9a9b;fill-opacity:1;fill-rule:nonzero;stroke:none" transform="translate(481.781 587.38)"/><path d="m0 0 2.229 10.476L4.332 0Zm6.118 15.283h-4c-1.781 0-3.687-.385-4.317-3.246L-6.503-7.124h5.128l.914 4.391h5.385s.14-.487.437-1.415c.83-2.608 2.467-3.177 4.03-3.239l1.8.004z" style="fill:#ed114c;fill-opacity:1;fill-rule:nonzero;stroke:none" transform="translate(335.723 589.477)"/><path d="M0 0h8.144l4.823 22.411h-1.438c-1.783 0-3.689-.387-4.314-3.245L4.163 4.544 1.137 22.407h-5.49L-7.667 4.485l-3.103 17.922h-5.572l3.701-19.166C-12.011.386-10.104 0-8.323 0h4.43l2.07 9.851z" style="fill:#ed114c;fill-opacity:1;fill-rule:nonzero;stroke:none" transform="translate(317.166 582.357)"/><path d="M0 0c-.576 0-3.525-.099-5.09-2.057l-6.029-7.437V0h-5.446v-18.555c-.011-.771.145-1.863.958-2.687.76-.772 1.941-1.163 3.506-1.163h.982v6.304l3.097 3.781 4.901-10.084H2.66l-7.35 14.32L1.931 0Z" style="fill:#ed114c;fill-opacity:1;fill-rule:nonzero;stroke:none" transform="translate(274.836 604.762)"/></g><g clip-path="url(#b)" transform="matrix(12.00413 0 0 -12.00413 -3100.31 7264.297)"><path d="M0 0a9.736 9.736 0 0 0-8.381-10.929 9.735 9.735 0 0 0-10.927 8.378 9.737 9.737 0 0 0 8.377 10.93C-5.598 9.082-.703 5.332 0 0" style="fill:#51bbed;fill-opacity:1;fill-rule:nonzero;stroke:none" transform="translate(292.224 600.268)"/><path d="M0 0a8.957 8.957 0 0 0-7.708-10.05c-4.904-.649-9.404 2.8-10.047 7.702-.652 4.906 2.799 9.407 7.703 10.057C-5.15 8.354-.647 4.905 0 0" style="fill:#fab41d;fill-opacity:1;fill-rule:nonzero;stroke:none" transform="translate(295.365 588.645)"/><path d="M0 0c.647-4.903-2.801-9.401-7.71-10.051-4.901-.649-9.399 2.8-10.047 7.704a8.953 8.953 0 0 0 7.703 10.053A8.958 8.958 0 0 0 0 0" style="fill:#fab41d;fill-opacity:1;fill-rule:nonzero;stroke:none" transform="translate(300.293 578.337)"/><path d="M0 0a8.955 8.955 0 0 0-7.708-10.048A8.956 8.956 0 1 0 0 0" style="fill:#fab41d;fill-opacity:1;fill-rule:nonzero;stroke:none" transform="translate(311.96 610.535)"/><path d="M0 0c.634-4.799-2.746-9.201-7.547-9.837a8.763 8.763 0 0 0-9.84 7.542c-.634 4.802 2.744 9.205 7.543 9.844C-5.041 8.181-.639 4.802 0 0" style="fill:#1574c4;fill-opacity:1;fill-rule:nonzero;stroke:none" transform="translate(284.695 605.915)"/><path d="M0 0c.771-5.839-3.337-11.196-9.174-11.965-5.84-.772-11.194 3.334-11.965 9.172-.772 5.839 3.335 11.197 9.172 11.966C-6.13 9.943-.771 5.838 0 0" style="fill:#ef2b93;fill-opacity:1;fill-rule:nonzero;stroke:none" transform="translate(310.21 599.465)"/><path d="M0 0a9.7 9.7 0 0 1 6.41 3.675 10.65 10.65 0 0 0-1.069 2.99 8.945 8.945 0 0 1-3.87.35 8.946 8.946 0 0 1-7.288-5.971A9.665 9.665 0 0 1 0 0" style="fill:#0a8137;fill-opacity:1;fill-rule:nonzero;stroke:none" transform="translate(283.843 589.34)"/><path d="M0 0a8.95 8.95 0 0 1-7.506-6.694 8.856 8.856 0 0 1 4.924-.754A8.946 8.946 0 0 1 4.925-.755 8.905 8.905 0 0 1 0 0" style="fill:#f46a25;fill-opacity:1;fill-rule:nonzero;stroke:none" transform="translate(290.24 586.043)"/><path d="M0 0c4.801.636 8.181 5.038 7.547 9.837a8.762 8.762 0 0 1-.835 2.729 9.716 9.716 0 0 1-2.567.003c-5.333-.705-9.083-5.597-8.377-10.929.055-.425.138-.834.245-1.237A8.692 8.692 0 0 1 0 0" style="fill:#1e59ae;fill-opacity:1;fill-rule:nonzero;stroke:none" transform="translate(277.148 596.078)"/><path d="M0 0a9.79 9.79 0 0 1 .111-.668 8.913 8.913 0 0 0 2.238-1.068 9.707 9.707 0 0 1 .802 5.332 9.707 9.707 0 0 1-1.37 3.841A10.647 10.647 0 0 1 0 0" style="fill:#1e59ae;fill-opacity:1;fill-rule:nonzero;stroke:none" transform="translate(289.072 596.672)"/><path d="M0 0a9.882 9.882 0 0 0-1.168-1.922 10.697 10.697 0 0 1 5.141-4.724c-.011.119-.013.236-.029.355A8.924 8.924 0 0 1 0 0" style="fill:#ed114c;fill-opacity:1;fill-rule:nonzero;stroke:none" transform="translate(291.42 594.936)"/><path d="M0 0c.46.593.853 1.238 1.168 1.922A8.906 8.906 0 0 1-1.069 2.99 10.65 10.65 0 0 1 0 0" style="fill:#5b1947;fill-opacity:1;fill-rule:nonzero;stroke:none" transform="translate(290.253 593.014)"/><path d="M0 0a8.894 8.894 0 0 1 4.932 2.335C2.958 6.299-1.372 8.766-6.009 8.151a10.633 10.633 0 0 1-3.884-1.305C-8.866 2.405-4.613-.612 0 0" style="fill:#ed114c;fill-opacity:1;fill-rule:nonzero;stroke:none" transform="translate(304.253 600.487)"/></g><g clip-path="url(#c)" transform="matrix(5.1416 0 0 -5.1416 -1774.148 3188.39)"><path d="m0 0 2.854 13.398L5.546 0Zm7.828 19.548H2.709c-2.277 0-4.713-.493-5.52-4.152l-5.503-24.51h6.556L-.59-3.498h6.891s.18-.621.559-1.806c1.065-3.338 3.156-4.066 5.157-4.145l2.299.005z" style="fill:#ed114c;fill-opacity:1;fill-rule:nonzero;stroke:none" transform="translate(155.072 624.87)"/><path d="M0 0h10.417l6.17 28.667h-1.84c-2.279 0-4.719-.495-5.52-4.151L5.325 5.815 1.456 28.661h-7.02L-9.808 5.738l-3.964 22.923H-20.9l4.733-24.515C-15.364.496-12.924 0-10.646 0h5.668l2.647 12.601z" style="fill:#ed114c;fill-opacity:1;fill-rule:nonzero;stroke:none" transform="translate(131.337 615.762)"/><path d="M0 0c-.732 0-4.508-.128-6.508-2.633l-7.713-9.513V0h-6.967v-23.735c-.015-.988.185-2.384 1.222-3.438.978-.987 2.486-1.488 4.489-1.488h1.256v8.066l3.961 4.835 6.269-12.901h7.397L-6.002-10.34 2.473 0Z" style="fill:#ed114c;fill-opacity:1;fill-rule:nonzero;stroke:none" transform="translate(77.191 644.423)"/></g><g clip-path="url(#d)" transform="matrix(5.1416 0 0 -5.1416 -1774.148 3188.39)"><path d="M0 0c.901-6.824-3.897-13.079-10.72-13.98-6.82-.901-13.076 3.895-13.974 10.717-.905 6.82 3.89 13.079 10.713 13.979C-7.162 11.616-.899 6.819 0 0" style="fill:#51bbed;fill-opacity:1;fill-rule:nonzero;stroke:none" transform="translate(99.435 638.673)"/><path d="M0 0c.826-6.272-3.586-12.026-9.86-12.854-6.272-.831-12.028 3.582-12.853 9.853-.831 6.273 3.58 12.029 9.854 12.863C-6.586 10.687-.832 6.276 0 0" style="fill:#fab41d;fill-opacity:1;fill-rule:nonzero;stroke:none" transform="translate(103.453 623.805)"/><path d="M0 0c.83-6.271-3.582-12.024-9.86-12.855-6.269-.833-12.023 3.582-12.856 9.853-.825 6.275 3.584 12.028 9.859 12.86C-6.586 10.686-.828 6.275 0 0" style="fill:#fab41d;fill-opacity:1;fill-rule:nonzero;stroke:none" transform="translate(109.754 610.62)"/><path d="M0 0c.825-6.273-3.585-12.025-9.856-12.854-6.276-.829-12.032 3.582-12.86 9.854-.829 6.273 3.583 12.03 9.86 12.861C-6.583 10.687-.827 6.276 0 0" style="fill:#fab41d;fill-opacity:1;fill-rule:nonzero;stroke:none" transform="translate(124.679 651.805)"/><path d="M0 0c.814-6.139-3.508-11.773-9.649-12.584-6.14-.813-11.777 3.507-12.587 9.647-.809 6.142 3.507 11.776 9.649 12.589C-6.442 10.463-.816 6.141 0 0" style="fill:#1574c4;fill-opacity:1;fill-rule:nonzero;stroke:none" transform="translate(89.8 645.896)"/><path d="M0 0c.984-7.468-4.271-14.321-11.731-15.306-7.475-.986-14.324 4.268-15.309 11.733-.987 7.469 4.267 14.323 11.731 15.308C-7.841 12.721-.985 7.467 0 0" style="fill:#ef2b93;fill-opacity:1;fill-rule:nonzero;stroke:none" transform="translate(122.442 637.644)"/><path d="M0 0a12.41 12.41 0 0 1 8.198 4.699A13.636 13.636 0 0 0 6.83 8.527a11.435 11.435 0 0 1-4.951.447c-4.449-.591-7.952-3.665-9.323-7.639A12.383 12.383 0 0 1 0 0" style="fill:#0a8137;fill-opacity:1;fill-rule:nonzero;stroke:none" transform="translate(88.715 624.693)"/><path d="M0 0c-4.789-.635-8.49-4.145-9.604-8.564a11.354 11.354 0 0 1 6.3-.963c4.796.632 8.494 4.143 9.605 8.56A11.379 11.379 0 0 1 0 0" style="fill:#f46a25;fill-opacity:1;fill-rule:nonzero;stroke:none" transform="translate(96.897 620.478)"/><path d="M0 0c6.142.812 10.464 6.446 9.649 12.584a11.111 11.111 0 0 1-1.065 3.491c-1.067.14-2.166.151-3.282.002-6.823-.9-11.617-7.159-10.713-13.978.066-.544.176-1.069.311-1.584C-3.51-.03-1.78-.234 0 0" style="fill:#1e59ae;fill-opacity:1;fill-rule:nonzero;stroke:none" transform="translate(80.151 633.312)"/><path d="M0 0c.036-.287.087-.573.143-.852a11.42 11.42 0 0 0 2.859-1.367 12.38 12.38 0 0 1 1.03 6.821 12.43 12.43 0 0 1-1.755 4.912A13.623 13.623 0 0 1 0 0" style="fill:#1e59ae;fill-opacity:1;fill-rule:nonzero;stroke:none" transform="translate(95.402 634.072)"/><path d="M0 0a12.468 12.468 0 0 0-1.491-2.461A13.665 13.665 0 0 1 5.086-8.5c-.016.149-.018.301-.037.452C4.595-4.625 2.671-1.767 0 0" style="fill:#ed114c;fill-opacity:1;fill-rule:nonzero;stroke:none" transform="translate(98.404 631.853)"/><path d="M0 0c.589.76 1.092 1.586 1.491 2.461a11.42 11.42 0 0 1-2.859 1.367A13.605 13.605 0 0 1 0 0" style="fill:#5b1947;fill-opacity:1;fill-rule:nonzero;stroke:none" transform="translate(96.913 629.392)"/><path d="M0 0a11.391 11.391 0 0 1 6.311 2.988c-2.532 5.069-8.067 8.224-13.999 7.441a13.585 13.585 0 0 1-4.967-1.672C-11.345 3.077-5.902-.782 0 0" style="fill:#ed114c;fill-opacity:1;fill-rule:nonzero;stroke:none" transform="translate(114.822 638.95)"/></g><path d="M0 0v8.353h1.936V5.749h1.93V4.697h-1.93V0Zm-5.231 5.261a1.809 1.809 0 0 1-.361-1.124c0-.438.123-.812.361-1.131.239-.318.506-.48.798-.48.312 0 .576.162.812.48.236.319.35.693.35 1.131 0 .437-.114.809-.35 1.124-.236.314-.5.476-.812.476-.292 0-.559-.162-.798-.476m1.475-7.171h6.105v-1.038H-4.36c-.379 0-.697.113-.951.33-.253.216-.377.517-.377.903V.712h1.932zm1.233 8.002c.332-.23.598-.517.794-.856.195-.34.291-.708.291-1.099 0-.715-.291-1.316-.875-1.822-.591-.504-1.294-.755-2.12-.755-.81 0-1.518.251-2.108.755-.587.506-.883 1.107-.883 1.822 0 .391.101.759.301 1.099.199.339.463.626.788.856h-1.523v1.036h2.457v1.348h1.932V7.128h2.452V6.092Z" style="fill:#231f20;fill-opacity:1;fill-rule:nonzero;stroke:none" transform="matrix(5.1416 0 0 -5.1416 -1450.84 103.154)"/><path d="M0 0h8.256v-2.484c0-.31-.046-.647-.14-1.007-.086-.368-.204-.629-.331-.796h1.862v-1.035H5.09v-1.815h3.14v-4.097H6.29v3.057H-.037v1.04h3.193v1.815h-4.471v1.035H6.09c.096.24.16.507.185.819.032.308.047.629.047.945v1.488H0Z" style="fill:#231f20;fill-opacity:1;fill-rule:nonzero;stroke:none" transform="matrix(5.1416 0 0 -5.1416 -1424.328 60.62)"/><path d="M0 0v-6.686h-1.936v2.603h-2.191v1.052h2.191V0Zm-4.45-8.087a1.672 1.672 0 0 1 0-2.113c.255-.311.547-.462.882-.462.339 0 .629.151.882.462a1.662 1.662 0 0 1 0 2.113c-.253.314-.543.47-.882.47-.335 0-.627-.156-.882-.47m3.128.761c.616-.503.922-1.112.922-1.82 0-.719-.306-1.329-.922-1.832-.619-.496-1.366-.751-2.246-.751-.87 0-1.61.255-2.227.751-.615.503-.926 1.113-.926 1.832 0 .708.311 1.317.926 1.82.617.505 1.357.76 2.227.76.88 0 1.627-.255 2.246-.76m-8.511 6.163h2.237v1.35h1.938v-1.35h2.252v-1.036h-2.222c.1-.908.44-1.662 1.013-2.244.572-.588 1.229-.945 1.951-1.074l-.949-.776c-.6.045-1.213.279-1.838.699-.627.426-1.02.879-1.182 1.36-.156-.481-.548-.934-1.18-1.351-.634-.418-1.242-.654-1.845-.708l-.946.776c.725.129 1.379.486 1.956 1.074.578.582.919 1.336 1.007 2.244h-2.192z" style="fill:#231f20;fill-opacity:1;fill-rule:nonzero;stroke:none" transform="matrix(5.1416 0 0 -5.1416 -1318.443 60.33)"/><path d="M0 0v-1.407c0-1.107.469-2.031 1.418-2.762.945-.733 1.882-1.119 2.805-1.15l-.856-.797c-.812 0-1.68.226-2.599.678-.92.449-1.505.98-1.745 1.589-.23-.618-.806-1.151-1.725-1.596-.922-.451-1.794-.671-2.618-.671l-.856.797c.925.031 1.867.417 2.805 1.15.948.731 1.422 1.655 1.422 2.762V0Zm0-6.264v-2.269l4.381-.013v-1.036H-6.322v1.036l4.387.013v2.269z" style="fill:#231f20;fill-opacity:1;fill-rule:nonzero;stroke:none" transform="matrix(5.1416 0 0 -5.1416 -1278.566 60.48)"/><path d="M0 0v-8.354h-1.934v4.123h-3.22v1.042h3.22v.988h-3.22v1.041h3.22V0Zm-5.93-10.249H.428v-1.052h-6.941c-.38 0-.701.113-.962.326-.26.218-.383.52-.383.906v2.632h1.928zm-1.598 5.075h4.633v-1.034h-5.234c-.377 0-.691.111-.95.337-.259.223-.386.514-.386.877v4.871h1.937z" style="fill:#231f20;fill-opacity:1;fill-rule:nonzero;stroke:none" transform="matrix(5.1416 0 0 -5.1416 -1200.136 60.279)"/><path d="M0 0a1.358 1.358 0 0 1-.295-.856c0-.32.098-.606.295-.868.193-.261.426-.391.696-.391.268 0 .492.13.685.391.192.262.289.548.289.868 0 .316-.097.604-.289.856C1.188.258.964.382.696.382.426.382.193.258 0 0m7.117-9.131H.166c-.412 0-.739.113-.989.33-.248.216-.372.51-.372.869v1.271h6.148v.506h-6.252v.999h8.192v-2.457H.742v-.521h6.375ZM6.893 2.17V-.242h1.929v-1.054H6.893v-3.348h-1.94v.512a5.03 5.03 0 0 0-1-.307 5.647 5.647 0 0 0-1.238-.133h-5.633v.981h2.637v.7a2.939 2.939 0 0 0-1.324.776c-.348.365-.523.781-.523 1.259 0 .244.048.47.151.68.1.21.241.403.422.573h-1.23v.964h2.504V2.38h1.936V1.361h2.529V.397H2.933c.18-.17.317-.363.422-.573.1-.21.143-.436.143-.68 0-.478-.164-.894-.508-1.259-.344-.363-.789-.623-1.335-.776v-.7h1.133c.472 0 .886.027 1.255.084.365.058.665.124.91.205V2.17Z" style="fill:#231f20;fill-opacity:1;fill-rule:nonzero;stroke:none" transform="matrix(5.1416 0 0 -5.1416 -1177.551 71.366)"/><path d="M0 0c-.24-.3-.357-.635-.357-1.006 0-.377.117-.715.357-1.009.24-.292.521-.437.844-.437.326 0 .611.145.851.437.237.294.351.632.351 1.009 0 .371-.114.706-.351 1.006-.24.293-.525.44-.851.44C.521.44.24.293 0 0m3.072.748c.606-.477.909-1.061.909-1.754 0-.688-.303-1.277-.909-1.757-.619-.484-1.356-.725-2.228-.725-.867 0-1.61.241-2.224.725-.615.48-.927 1.069-.927 1.757 0 .693.312 1.277.927 1.754.614.478 1.357.715 2.224.715.872 0 1.609-.237 2.228-.715M6.333 1.96h-10.96v1.044h4.512v1.141h-1.804c-.402 0-.727.108-.97.331-.242.227-.365.518-.365.883v2.825h8.301V7.133h-6.365V5.192h6.489V4.145H1.82V3.004h4.513z" style="fill:#231f20;fill-opacity:1;fill-rule:nonzero;stroke:none" transform="matrix(5.1416 0 0 -5.1416 -1108.913 102.762)"/><path d="M146.596 600.039h-1.936v8.354h1.936zm-5.979-1.895h6.399v-1.052h-6.996c-.386 0-.708.113-.96.326-.249.218-.381.52-.381.905v2.55h1.938zm-3.826 9.881h6.349v-1.034h-2.206v-.674c0-1.042.303-1.903.912-2.573.603-.667 1.3-1.072 2.084-1.205l-.947-.781c-.6.049-1.215.284-1.841.706-.629.423-1.02.877-1.183 1.356-.152-.479-.542-.932-1.177-1.349-.632-.419-1.247-.655-1.85-.713l-.94.781c.791.133 1.487.546 2.086 1.221.601.677.907 1.534.907 2.557v.674h-2.194z" style="fill:#231f20;fill-opacity:1;fill-rule:nonzero;stroke:none" transform="matrix(5.1416 0 0 -5.1416 -1774.148 3188.39)"/><path d="M0 0c-.241-.284-.361-.576-.361-.898 0-.327.12-.629.361-.904.238-.267.515-.405.83-.405.315 0 .594.138.834.405.232.275.358.577.358.904 0 .322-.126.614-.358.898-.24.288-.519.426-.834.426C.515.426.238.288 0 0m-.018 6.313a1.29 1.29 0 0 1-.369-.907c0-.327.121-.623.369-.89.243-.272.522-.407.848-.407.326 0 .607.135.854.407.244.267.364.563.364.89 0 .341-.12.639-.364.907-.247.272-.528.405-.854.405-.326 0-.605-.133-.848-.405M2.993.726c.595-.438.894-.981.894-1.624 0-.644-.299-1.187-.894-1.631-.597-.444-1.314-.659-2.163-.659-.838 0-1.562.215-2.157.659-.598.444-.896.987-.896 1.631 0 .643.298 1.186.896 1.624.595.438 1.319.654 2.157.654.849 0 1.566-.216 2.163-.654M1.802 8.887V7.691h3.485v-.96H3.271c.186-.173.334-.371.445-.599.114-.229.171-.471.171-.726 0-.61-.299-1.121-.887-1.54-.586-.42-1.307-.628-2.17-.628-.861 0-1.582.208-2.17.628-.592.419-.883.93-.883 1.54 0 .255.061.497.168.726.106.228.257.426.45.599h-2.008v.96h3.472v1.196Zm4.57-7.074H-4.717V2.8H6.372Z" style="fill:#231f20;fill-opacity:1;fill-rule:nonzero;stroke:none" transform="matrix(5.1416 0 0 -5.1416 -989.471 104.565)"/><path d="M0 0v-8.596h-1.939v1.035h-2.602v.914h2.602V0Zm-7.447-1.318c-.203-.261-.307-.578-.307-.958 0-.381.104-.698.307-.959a.924.924 0 0 1 .754-.378c.287 0 .527.123.732.378.213.261.316.578.316.959 0 .38-.103.697-.316.958-.205.252-.445.38-.732.38a.934.934 0 0 1-.754-.38m1.211-8.931H.401v-1.052h-7.222c-.384 0-.707.113-.961.326-.257.218-.39.52-.39.906v1.87h1.936zm1.607 9.624c.565-.455.846-1.003.846-1.651 0-.646-.281-1.198-.846-1.647-.566-.45-1.251-.675-2.064-.675-.81 0-1.502.225-2.071.675-.566.449-.853 1.001-.853 1.647 0 .648.287 1.196.853 1.651.569.451 1.261.68 2.071.68.813 0 1.498-.229 2.064-.68m1.852-4.369v-.982h-2.971v-1.666h-1.937v1.666h-2.637v.982z" style="fill:#231f20;fill-opacity:1;fill-rule:nonzero;stroke:none" transform="matrix(5.1416 0 0 -5.1416 -900.236 60.279)"/><path d="M0 0c0 .375-.096.676-.291.902-.191.234-.455.348-.785.348s-.586-.114-.776-.348C-2.047.676-2.138.375-2.138 0c0-.38.091-.681.283-.911.189-.235.445-.345.771-.345.325 0 .586.11.789.345C-.096-.681 0-.38 0 0m1.141-2.152c0-.822-.248-1.376-.732-1.669-.485-.291-.972-.441-1.458-.441-.635 0-1.145.175-1.512.518-.368.342-.564.729-.597 1.173h1.146c.002-.166.11-.313.291-.433a1.22 1.22 0 0 1 .684-.183c.289 0 .528.077.732.229.193.153.291.387.291.694v.45a1.795 1.795 0 0 0-.595-.397 1.79 1.79 0 0 0-.722-.143c-.607 0-1.081.223-1.439.662-.355.442-.531 1.006-.531 1.692 0 .676.191 1.227.584 1.664.388.429.85.645 1.386.645.261 0 .501-.041.722-.118.222-.068.423-.19.595-.353v.333h1.155z" style="fill:#9c9a9b;fill-opacity:1;fill-rule:nonzero;stroke:none" transform="matrix(5.1416 0 0 -5.1416 -1013.653 153.069)"/><path d="M0 0h1.668v-2.686L3.506 0h1.682L3.291-2.37l2.062-4.072H3.632L2.3-3.473l-.632-.781v-2.188H0Z" style="fill:#9c9a9b;fill-opacity:1;fill-rule:nonzero;stroke:none" transform="matrix(5.1416 0 0 -5.1416 -1480.88 133.236)"/><path d="M0 0c0 .606-.049 1.018-.144 1.23-.097.219-.269.323-.508.323a.53.53 0 0 1-.513-.307C-1.267 1.043-1.319.627-1.319 0c0-.583.043-.991.132-1.215.088-.226.268-.341.535-.341.247 0 .427.115.516.338C-.049-.991 0-.588 0 0m1.618.003c0-1.656-.756-2.483-2.27-2.483-1.524 0-2.279.827-2.279 2.483 0 1.648.755 2.471 2.279 2.471 1.514 0 2.27-.823 2.27-2.471" style="fill:#9c9a9b;fill-opacity:1;fill-rule:nonzero;stroke:none" transform="matrix(5.1416 0 0 -5.1416 -1436.163 154.103)"/><path d="M0 0h1.378v-1.151c.244.808.685 1.214 1.32 1.214.077 0 .17-.013.269-.025v-1.296a2.219 2.219 0 0 1-.261.019c-.766 0-1.143-.491-1.143-1.47v-2.057H0Z" style="fill:#9c9a9b;fill-opacity:1;fill-rule:nonzero;stroke:none" transform="matrix(5.1416 0 0 -5.1416 -1421.973 141.857)"/><path d="M0 0c.005.059.005.097.005.133 0 .616-.24.92-.729.92-.48 0-.717-.355-.724-1.053zm1.479-.767h-2.933v-.265c0-.425.062-.71.205-.853a.684.684 0 0 1 .531-.219c.479 0 .746.269.805.811l1.392-.072C1.232-2.476.488-3.028-.743-3.028c-.766 0-1.34.22-1.736.655-.401.438-.597 1.021-.597 1.755 0 .826.218 1.458.63 1.894.425.434.982.65 1.686.65.636 0 1.171-.191 1.595-.573.426-.386.644-1.094.644-2.12" style="fill:#9c9a9b;fill-opacity:1;fill-rule:nonzero;stroke:none" transform="matrix(5.1416 0 0 -5.1416 -1388.322 151.286)"/><path d="M0 0c-.455-.046-.785-.13-.976-.254-.192-.13-.288-.346-.288-.644 0-.4.166-.603.518-.603.189 0 .357.093.514.272.154.181.232.508.232.998Zm-1.212.977-1.479.123c.068.475.306.848.715 1.101.411.259.927.389 1.548.389.526 0 .947-.089 1.268-.258.315-.171.514-.37.599-.599.082-.221.126-.573.126-1.048v-1.903c0-.587.029-.937.092-1.057H.204c-.052.136-.073.374-.073.735-.348-.552-.86-.832-1.54-.832-.435 0-.792.112-1.058.331-.277.225-.412.549-.412.973 0 .531.205.938.617 1.232C-1.848.453-1.098.63 0 .685v.179c0 .318-.038.541-.113.657-.076.127-.226.188-.439.188-.403 0-.616-.248-.66-.732" style="fill:#9c9a9b;fill-opacity:1;fill-rule:nonzero;stroke:none" transform="matrix(5.1416 0 0 -5.1416 -1360.912 154.66)"/><path d="M0 0h1.832l1.067-2.346L4.047 0H5.67L3.572-3.72v-2.722h-1.67v2.722z" style="fill:#9c9a9b;fill-opacity:1;fill-rule:nonzero;stroke:none" transform="matrix(5.1416 0 0 -5.1416 -1338.357 133.236)"/><path d="M0 0c0 .606-.043 1.018-.145 1.23-.099.219-.264.323-.51.323-.236 0-.408-.102-.507-.307C-1.266 1.043-1.32.627-1.32 0c0-.583.049-.991.137-1.215.093-.226.261-.341.528-.341.253 0 .428.115.516.338C-.041-.991 0-.588 0 0m1.615.003c0-1.656-.752-2.483-2.27-2.483-1.52 0-2.279.827-2.279 2.483 0 1.648.759 2.471 2.279 2.471 1.518 0 2.27-.823 2.27-2.471" style="fill:#9c9a9b;fill-opacity:1;fill-rule:nonzero;stroke:none" transform="matrix(5.1416 0 0 -5.1416 -1295.115 154.103)"/><path d="M0 0h1.564v-3.058c0-.312.036-.513.101-.619.067-.107.205-.154.435-.154.205 0 .353.043.459.124a.507.507 0 0 1 .191.355c.027.149.033.456.033.921V0H4.35v-4.766H2.884v.656c-.228-.326-.447-.532-.665-.619a2.193 2.193 0 0 0-.783-.133c-.401 0-.709.073-.925.216a.902.902 0 0 0-.413.536C.03-3.896 0-3.559 0-3.097Z" style="fill:#9c9a9b;fill-opacity:1;fill-rule:nonzero;stroke:none" transform="matrix(5.1416 0 0 -5.1416 -1281.317 141.857)"/><path d="m0 0 1.518.042v-1.505H2.55v-1.046H1.518v-1.748c0-.324.011-.537.025-.635a.4.4 0 0 1 .166-.24c.092-.062.254-.097.477-.097.114 0 .268.004.447.012v-1.012a5.247 5.247 0 0 0-.957-.096c-.477 0-.838.078-1.092.233-.244.153-.406.344-.482.581C.033-5.28 0-4.911 0-4.407v1.898h-.619v1.046H0Z" style="fill:#9c9a9b;fill-opacity:1;fill-rule:nonzero;stroke:none" transform="matrix(5.1416 0 0 -5.1416 -1250.669 134.335)"/><path d="M0 0h1.563v-2.18c.283.403.742.603 1.376.603.381 0 .678-.076.899-.224a.958.958 0 0 0 .422-.576c.058-.23.084-.564.084-1.009v-3.056H2.783v3.064c0 .311-.033.519-.102.618-.07.105-.21.156-.422.156-.214 0-.38-.049-.503-.147-.127-.097-.193-.32-.193-.665v-3.026H0Z" style="fill:#9c9a9b;fill-opacity:1;fill-rule:nonzero;stroke:none" transform="matrix(5.1416 0 0 -5.1416 -1232.804 133.236)"/><path d="M0 0h1.7l.801-4.456L3.493 0h1.522l.939-4.478L6.879 0H8.28L6.653-6.474H5.159l-1.008 4.48-1.028-4.48H1.646Z" style="fill:#9c9a9b;fill-opacity:1;fill-rule:nonzero;stroke:none" transform="matrix(5.1416 0 0 -5.1416 -1194.99 133.236)"/><path d="M0 0c0 .606-.049 1.018-.146 1.23-.097.219-.263.323-.509.323-.237 0-.41-.102-.509-.307-.107-.203-.154-.619-.154-1.246 0-.583.041-.991.129-1.215.091-.226.269-.341.534-.341.257 0 .423.115.52.338C-.047-.991 0-.588 0 0m1.616.003C1.616-1.653.86-2.48-.655-2.48c-1.523 0-2.277.827-2.277 2.483 0 1.648.754 2.471 2.277 2.471 1.515 0 2.271-.823 2.271-2.471" style="fill:#9c9a9b;fill-opacity:1;fill-rule:nonzero;stroke:none" transform="matrix(5.1416 0 0 -5.1416 -1135.535 154.103)"/><path d="M0 0h1.377v-1.151C1.631-.343 2.07.063 2.706.063c.079 0 .167-.013.267-.025v-1.296a2.251 2.251 0 0 1-.256.019c-.764 0-1.151-.491-1.151-1.47v-2.057H0Z" style="fill:#9c9a9b;fill-opacity:1;fill-rule:nonzero;stroke:none" transform="matrix(5.1416 0 0 -5.1416 -1121.366 141.857)"/><path d="M0 0h1.564v-3.513l1.574 1.836h1.421L3.146-3.274l1.555-3.168h-1.69l-.878 2.211-.569-.665v-1.546H0Z" style="fill:#9c9a9b;fill-opacity:1;fill-rule:nonzero;stroke:none" transform="matrix(5.1416 0 0 -5.1416 -1101.914 133.236)"/><path d="m0 0-.765 2.639L-1.501 0Zm-1.448 4.008H.234l2.158-6.443H.69L.312-1.104h-2.131l-.377-1.331h-1.523z" style="fill:#9c9a9b;fill-opacity:1;fill-rule:nonzero;stroke:none" transform="matrix(5.1416 0 0 -5.1416 -1046.777 153.842)"/><path d="M0 0c.003.059.003.097.003.133 0 .616-.242.92-.725.92-.482 0-.72-.355-.728-1.053zm1.477-.767h-2.938v-.265c0-.425.072-.71.206-.853a.702.702 0 0 1 .538-.219c.475 0 .742.269.801.811l1.393-.072C1.234-2.476.49-3.028-.742-3.028c-.762 0-1.348.22-1.735.655-.4.438-.597 1.021-.597 1.755 0 .826.207 1.458.633 1.894.42.434.98.65 1.683.65.637 0 1.168-.191 1.593-.573.429-.386.642-1.094.642-2.12" style="fill:#9c9a9b;fill-opacity:1;fill-rule:nonzero;stroke:none" transform="matrix(5.1416 0 0 -5.1416 -987.312 151.286)"/><path d="M0 0h1.48v-.648c.263.494.728.74 1.406.74.361 0 .665-.069.905-.208.24-.142.395-.317.461-.532.058-.219.096-.547.096-.993v-3.125h-1.56v3.125c0 .323-.05.519-.147.595a.631.631 0 0 1-.388.113c-.284 0-.464-.076-.556-.218-.085-.15-.133-.418-.133-.817v-2.798H0Z" style="fill:#9c9a9b;fill-opacity:1;fill-rule:nonzero;stroke:none" transform="matrix(5.1416 0 0 -5.1416 -973.836 141.857)"/><path d="m0 0-1.451-.046c-.026.29-.081.513-.165.662-.091.15-.241.224-.452.224-.524 0-.785-.47-.785-1.405 0-.541.065-.921.184-1.14a.635.635 0 0 1 .575-.324c.389 0 .605.29.643.878L0-1.226c-.127-1.255-.859-1.881-2.191-1.881-.724 0-1.273.209-1.651.619-.385.416-.577 1.032-.577 1.848 0 .811.201 1.426.603 1.853.398.425.963.634 1.683.634C-.822 1.847-.114 1.238 0 0" style="fill:#9c9a9b;fill-opacity:1;fill-rule:nonzero;stroke:none" transform="matrix(5.1416 0 0 -5.1416 -923.293 150.88)"/><path d="M0 0h1.57l.75-2.901L3.047 0h1.346L2.706-4.836c-.159-.464-.3-.786-.413-.969-.113-.188-.293-.339-.522-.461-.228-.123-.517-.179-.871-.179-.218 0-.441.022-.668.078v1.043c.157-.018.305-.023.438-.023.306 0 .514.036.629.124.108.079.221.267.316.55z" style="fill:#9c9a9b;fill-opacity:1;fill-rule:nonzero;stroke:none" transform="matrix(5.1416 0 0 -5.1416 -921.516 141.857)"/></svg>