<svg xmlns="http://www.w3.org/2000/svg" xml:space="preserve" width="512.81555" height="99.999992" viewBox="0 0 512.81555 99.999992"><defs><clipPath id="a" clipPathUnits="userSpaceOnUse"><path d="M14.175 800.665h572.64V14.425H14.175Z"/></clipPath></defs><path d="M0 0h6.011v-6.012Z" style="fill:#05256f;fill-opacity:1;fill-rule:nonzero;stroke:none" transform="matrix(3.3145 0 0 -3.3145 62.175 0)"/><path d="M0 0h-5.926a2.758 2.758 0 0 0-2.758 2.758v.001a2.758 2.758 0 0 0 2.757 2.757h8.081l4.264 4.263H-5.926a7.022 7.022 0 0 1 0-14.044H0A2.757 2.757 0 1 0 0-9.78h-15.044l-4.265-4.265H0A7.023 7.023 0 0 1 0 0" style="fill:#05256f;fill-opacity:1;fill-rule:nonzero;stroke:none" transform="matrix(3.3145 0 0 -3.3145 131.962 52.34)"/><path d="M0 0h7.433l4.265 4.264H.001a7.023 7.023 0 0 1-7.022-7.023v-16.802h4.264v9.781h10.19l4.265 4.264H-2.757v2.759A2.757 2.757 0 0 0 0 0" style="fill:#05256f;fill-opacity:1;fill-rule:nonzero;stroke:none" transform="matrix(3.3145 0 0 -3.3145 23.271 34.058)"/><path d="M0 0v-19.56l4.264 4.265v19.56z" style="fill:#30a8e1;fill-opacity:1;fill-rule:nonzero;stroke:none" transform="matrix(3.3145 0 0 -3.3145 67.677 35.168)"/><path d="M0 0h2.147v1.404H0v3.793h-1.648V-5.575H0Z" style="fill:#05256f;fill-opacity:1;fill-rule:nonzero;stroke:none" transform="matrix(3.3145 0 0 -3.3145 228.62 38.379)"/><path d="M0 0v-5.263h10.06v1.405H1.665V0Z" style="fill:#05256f;fill-opacity:1;fill-rule:nonzero;stroke:none" transform="matrix(3.3145 0 0 -3.3145 195.276 53.34)"/><path d="M0 0c.08.273.203.516.367.719.162.203.371.366.618.487.248.119.546.181.885.181.361 0 .673-.062.926-.182s.461-.283.618-.485c.158-.204.276-.446.351-.718a3.47 3.47 0 0 0 .113-.897c0-.319-.039-.62-.113-.896a2.15 2.15 0 0 0-.351-.728 1.65 1.65 0 0 0-.618-.493c-.253-.12-.564-.18-.926-.18-.34 0-.638.06-.885.18a1.733 1.733 0 0 0-.618.494A2.138 2.138 0 0 0 0-1.782a3.3 3.3 0 0 0-.121.903c0 .308.041.604.121.879m.416-4.306c.44-.172.93-.258 1.454-.258a4.05 4.05 0 0 1 1.463.258c.447.171.836.419 1.156.736.319.315.572.703.751 1.152.179.448.27.961.27 1.523 0 .498-.077.954-.228 1.358a3.327 3.327 0 0 1-.53.939h1.435v1.421H2.719v1.391H1.038V2.823H-2.43V1.402h1.434a3.35 3.35 0 0 1-.529-.939 3.872 3.872 0 0 1-.228-1.358c0-.551.091-1.061.27-1.514.178-.454.431-.845.751-1.161a3.31 3.31 0 0 1 1.148-.736" style="fill:#05256f;fill-opacity:1;fill-rule:nonzero;stroke:none" transform="matrix(3.3145 0 0 -3.3145 197.114 33.925)"/><path d="M0 0h6.258v1.404H4.282v5.363h-9.84V5.379h8.159V1.404h-9.953V0h5.687v-1.979h-3.893v-1.389h8.274v-4.561h1.649v5.95H0Z" style="fill:#05256f;fill-opacity:1;fill-rule:nonzero;stroke:none" transform="matrix(3.3145 0 0 -3.3145 261.479 45.26)"/><path d="M0 0c-.39.439-.711.921-.955 1.43a6.64 6.64 0 0 0-.53 1.625 9.534 9.534 0 0 0-.164 1.785v1.104h2.796v1.421h-7.191V5.944h2.779V4.808c0-1.302-.253-2.51-.753-3.591C-4.516.14-5.351-.76-6.499-1.457l-.073-.045.936-1.108.053.03c.311.176.634.406.96.686A7.64 7.64 0 0 1-2.905.228c.191.35.351.717.475 1.091.136-.374.307-.736.513-1.078.243-.404.508-.781.791-1.121.282-.34.574-.641.866-.898.295-.259.58-.463.848-.607l.056-.03.859 1.159-.065.043A6.952 6.952 0 0 0 0 0" style="fill:#05256f;fill-opacity:1;fill-rule:nonzero;stroke:none" transform="matrix(3.3145 0 0 -3.3145 305.479 47.352)"/><path d="M0 0h-1.104v4.594h-1.649v-14.843h1.649v8.845H0v-8.943h1.648V4.594H0Z" style="fill:#05256f;fill-opacity:1;fill-rule:nonzero;stroke:none" transform="matrix(3.3145 0 0 -3.3145 322.06 36.379)"/><path d="M0 0c.851.329 1.648.78 2.372 1.344a5.463 5.463 0 0 1 1.569 1.884 5.07 5.07 0 0 1 .702-.954c.299-.318.619-.601.952-.842A6.292 6.292 0 0 1 6.622.82a5.12 5.12 0 0 1 1.03-.365l.051-.012.772 1.239-.093.026c-.445.129-.89.313-1.323.55a4.993 4.993 0 0 0-1.163.87 4.38 4.38 0 0 0-.837 1.183 3.385 3.385 0 0 0-.323 1.496v.483h3.303v1.421H-.248V6.29h3.319v-.549c0-.554-.095-1.067-.283-1.525a4.192 4.192 0 0 0-.795-1.245A6.077 6.077 0 0 0 .777 1.97a9.722 9.722 0 0 0-1.541-.787l-.083-.035.793-1.169z" style="fill:#05256f;fill-opacity:1;fill-rule:nonzero;stroke:none" transform="matrix(3.3145 0 0 -3.3145 334.96 48.498)"/><path d="M0 0c-.43-.395-1.021-.595-1.759-.595-.737 0-1.328.2-1.759.595-.428.392-.645.96-.645 1.687 0 .716.217 1.276.645 1.663.43.388 1.022.586 1.759.586.738 0 1.329-.198 1.759-.586.428-.387.645-.947.645-1.663C.645.96.428.392 0 0m1.965 3.229a3.366 3.366 0 0 1-.861 1.169 3.79 3.79 0 0 1-1.288.726 4.922 4.922 0 0 1-1.575.249 4.922 4.922 0 0 1-1.575-.249 3.79 3.79 0 0 1-1.288-.726 3.363 3.363 0 0 1-.86-1.169 3.77 3.77 0 0 1-.312-1.558c0-.586.105-1.113.312-1.567.207-.455.496-.845.86-1.162a3.787 3.787 0 0 1 1.288-.724 4.895 4.895 0 0 1 1.575-.25 4.89 4.89 0 0 1 1.575.25c.492.165.925.409 1.288.724.364.317.654.707.861 1.162.207.455.312.981.312 1.567a3.77 3.77 0 0 1-.312 1.558" style="fill:#05256f;fill-opacity:1;fill-rule:nonzero;stroke:none" transform="matrix(3.3145 0 0 -3.3145 365.643 66.65)"/><path d="M0 0h2.194v-3.678h1.648v8.385H2.194V1.421H0Z" style="fill:#05256f;fill-opacity:1;fill-rule:nonzero;stroke:none" transform="matrix(3.3145 0 0 -3.3145 361.603 36.754)"/><path d="M0 0c.851.329 1.648.78 2.371 1.344a5.466 5.466 0 0 1 1.57 1.884 5.07 5.07 0 0 1 .702-.954c.299-.318.619-.601.951-.842A6.343 6.343 0 0 1 6.622.82a5.1 5.1 0 0 1 1.03-.365l.051-.012.772 1.239-.093.026c-.445.129-.89.313-1.323.55a4.998 4.998 0 0 0-1.164.87 4.398 4.398 0 0 0-.836 1.183 3.371 3.371 0 0 0-.323 1.496v.483h3.303v1.421H-.248V6.29h3.319v-.549c0-.554-.095-1.067-.283-1.525a4.176 4.176 0 0 0-.796-1.245A6.042 6.042 0 0 0 .777 1.97a9.722 9.722 0 0 0-1.541-.787l-.083-.035.793-1.169z" style="fill:#05256f;fill-opacity:1;fill-rule:nonzero;stroke:none" transform="matrix(3.3145 0 0 -3.3145 382.968 48.498)"/><path d="M0 0c-.43-.395-1.022-.595-1.759-.595-.737 0-1.329.2-1.759.595-.428.392-.645.96-.645 1.687 0 .716.217 1.276.645 1.663.43.388 1.022.586 1.759.586.737 0 1.329-.198 1.759-.586.428-.387.645-.947.645-1.663C.645.96.428.392 0 0m1.104 4.398a3.79 3.79 0 0 1-1.288.726 4.922 4.922 0 0 1-1.575.249 4.917 4.917 0 0 1-1.575-.249 3.79 3.79 0 0 1-1.288-.726 3.366 3.366 0 0 1-.861-1.169 3.77 3.77 0 0 1-.312-1.558c0-.586.106-1.113.312-1.567.207-.455.497-.845.861-1.162a3.787 3.787 0 0 1 1.288-.724 4.89 4.89 0 0 1 1.575-.25c.555 0 1.086.084 1.575.25.492.165.925.409 1.288.724.364.317.653.707.861 1.162.206.455.312.981.312 1.567a3.77 3.77 0 0 1-.312 1.558 3.378 3.378 0 0 1-.861 1.169" style="fill:#05256f;fill-opacity:1;fill-rule:nonzero;stroke:none" transform="matrix(3.3145 0 0 -3.3145 413.651 66.65)"/><path d="M0 0h-2.194v-1.421H0v-3.678h1.648v8.385H0Z" style="fill:#05256f;fill-opacity:1;fill-rule:nonzero;stroke:none" transform="matrix(3.3145 0 0 -3.3145 416.883 32.045)"/><path d="M607.453 327.116h15.418v-6.264h-15.418zm23.793-16.178H617.23v6.466h9.78v20.028h-4.14v-6.905h-15.417v6.905h-4.139v-20.028h9.78v-6.466h-14.18v-3.493h32.332z" style="fill:#05256f;fill-opacity:1;fill-rule:nonzero;stroke:none;stroke-width:2.48588" transform="matrix(1.33333 0 0 -1.33333 -371.867 472.581)"/><path d="M0 0h1.665v2.894h5.051V1.829H3.831V.408h2.885V-.948h1.648v12.357H6.716V4.298H-3.975V2.894H0Z" style="fill:#05256f;fill-opacity:1;fill-rule:nonzero;stroke:none" transform="matrix(3.3145 0 0 -3.3145 485.091 58.968)"/><path d="M0 0v-4.854h10.857v1.404H1.665V0Z" style="fill:#05256f;fill-opacity:1;fill-rule:nonzero;stroke:none" transform="matrix(3.3145 0 0 -3.3145 476.828 54.693)"/><path d="M0 0c.079.202.201.383.362.537.163.156.37.28.618.368.25.09.55.135.893.135.68 0 1.187-.168 1.507-.5.321-.334.483-.729.483-1.176 0-.23-.04-.452-.119-.661-.078-.206-.2-.39-.362-.545a1.7 1.7 0 0 0-.618-.368 2.643 2.643 0 0 0-.891-.135 2.65 2.65 0 0 0-.893.135 1.717 1.717 0 0 0-.618.368A1.51 1.51 0 0 0 0-1.305a1.794 1.794 0 0 0-.119.653c0 .229.04.449.119.652m-.769-2.914A3.31 3.31 0 0 1 .38-3.558a4.708 4.708 0 0 1 1.493-.224 4.71 4.71 0 0 1 1.492.224c.448.15.834.367 1.148.644.315.278.56.614.728.998.169.384.254.809.254 1.264 0 .455-.085.88-.254 1.263a2.77 2.77 0 0 1-.729.991 3.48 3.48 0 0 1-1.146.643 4.58 4.58 0 0 1-1.493.233 4.573 4.573 0 0 1-1.494-.233 3.495 3.495 0 0 1-1.147-.643 2.786 2.786 0 0 1-.729-.991A3.124 3.124 0 0 1-1.75-.652c0-.455.085-.88.253-1.264.169-.385.414-.72.728-.998" style="fill:#05256f;fill-opacity:1;fill-rule:nonzero;stroke:none" transform="matrix(3.3145 0 0 -3.3145 481.48 29.798)"/><path d="m0 0-.688-.786v-.982h-.61v4.046h.61V.089l1.93 2.189h.734L.406.469 2.15-1.768h-.778Z" style="fill:#05256f;fill-opacity:1;fill-rule:nonzero;stroke:none" transform="matrix(3.3145 0 0 -3.3145 199.578 92.89)"/><path d="M0 0c0 .529-.344.909-.824.909S-1.647.529-1.647 0c0-.523.343-.91.823-.91.48 0 .824.387.824.91m.587 0C.587-.856 0-1.47-.824-1.47c-.823 0-1.41.614-1.41 1.47 0 .857.587 1.469 1.41 1.469C0 1.469.587.857.587 0" style="fill:#05256f;fill-opacity:1;fill-rule:nonzero;stroke:none" transform="matrix(3.3145 0 0 -3.3145 215.755 94.114)"/><path d="M0 0v-.583C-.423-.6-.745-.767-.982-1.094v-1.761h-.587V-.06h.587v-.38C-.74-.161-.407 0 0 0" style="fill:#05256f;fill-opacity:1;fill-rule:nonzero;stroke:none" transform="matrix(3.3145 0 0 -3.3145 226.087 89.285)"/><path d="M0 0h1.49c-.034.458-.316.701-.728.701C.321.701.068.393 0 0m2.071-.429H-.011c.056-.423.31-.744.807-.744.259 0 .457.084.564.263h.643c-.169-.506-.638-.804-1.213-.804-.835 0-1.399.637-1.399 1.47 0 .827.558 1.469 1.365 1.469.88 0 1.428-.707 1.315-1.654" style="fill:#05256f;fill-opacity:1;fill-rule:nonzero;stroke:none" transform="matrix(3.3145 0 0 -3.3145 230.307 93.305)"/><path d="M0 0v1.012a.868.868 0 0 1-.767.403c-.486 0-.841-.409-.841-.909s.355-.91.841-.91c.293 0 .57.106.767.404m.582 1.903V-.893H0v.22a1.326 1.326 0 0 0-.852-.291c-.745 0-1.343.654-1.343 1.47 0 .815.598 1.469 1.343 1.469.339 0 .626-.107.852-.291v.219z" style="fill:#05256f;fill-opacity:1;fill-rule:nonzero;stroke:none" transform="matrix(3.3145 0 0 -3.3145 247.212 95.79)"/><path d="M0 0v-1.267h1.857v-.588H0v-1.601h-.609V.59h2.714V0Z" style="fill:#05256f;fill-opacity:1;fill-rule:nonzero;stroke:none" transform="matrix(3.3145 0 0 -3.3145 259.73 87.294)"/><path d="M482.71 280.374h-1.445v6.95h1.444zm-1.656 9.509c0 .549.407.947.924.947a.926.926 0 0 0 .928-.947.929.929 0 0 0-.928-.948c-.517 0-.924.403-.924.948" style="fill:#05256f;fill-opacity:1;fill-rule:nonzero;stroke:none;stroke-width:2.48588" transform="matrix(1.33333 0 0 -1.33333 -371.867 472.581)"/><path d="M0 0c.344 0 .582.119.582.339 0 .167-.13.286-.356.327l-.587.107c-.407.072-.785.287-.785.792 0 .54.446.873 1.106.873.514 0 1.106-.184 1.163-.915H.582c-.029.303-.283.422-.622.422-.338 0-.524-.132-.524-.327 0-.148.102-.291.412-.345l.496-.083c.401-.078.796-.262.796-.803 0-.589-.491-.893-1.157-.893-.626 0-1.163.262-1.23 1l.542-.006C-.643.143-.4 0 0 0" style="fill:#05256f;fill-opacity:1;fill-rule:nonzero;stroke:none" transform="matrix(3.3145 0 0 -3.3145 279.06 97.309)"/><path d="M0 0h.599C.502-.643-.028-1.089-.694-1.089c-.796 0-1.399.637-1.399 1.47 0 .827.603 1.469 1.399 1.469.666 0 1.196-.447 1.293-1.088H0c-.073.315-.338.528-.694.528-.491 0-.813-.403-.813-.909s.322-.91.813-.91c.356 0 .621.214.694.529" style="fill:#05256f;fill-opacity:1;fill-rule:nonzero;stroke:none" transform="matrix(3.3145 0 0 -3.3145 292.517 95.376)"/><path d="M0 0v1.012a.868.868 0 0 1-.767.403c-.485 0-.841-.409-.841-.909s.356-.91.841-.91c.293 0 .57.106.767.404m.581 1.903V-.893H0v.22a1.328 1.328 0 0 0-.852-.291c-.745 0-1.343.654-1.343 1.47 0 .815.598 1.469 1.343 1.469.338 0 .626-.107.852-.291v.219z" style="fill:#05256f;fill-opacity:1;fill-rule:nonzero;stroke:none" transform="matrix(3.3145 0 0 -3.3145 304.46 95.79)"/><path d="M512.878 280.374h-1.457v10.503h1.457zM520.818 280.374h-1.514v10.058h1.514z" style="fill:#05256f;fill-opacity:1;fill-rule:nonzero;stroke:none;stroke-width:2.48588" transform="matrix(1.33333 0 0 -1.33333 -371.867 472.581)"/><path d="M0 0v-1.56h-.587v1.524c0 .512-.26.784-.688.784-.254 0-.531-.147-.74-.421V-1.56h-.587v2.796h.587v-.25c.232.208.519.322.858.322C-.468 1.308 0 .808 0 0" style="fill:#05256f;fill-opacity:1;fill-rule:nonzero;stroke:none" transform="matrix(3.3145 0 0 -3.3145 335.112 93.58)"/><path d="M0 0h1.049v-.518H0v-2.278h-.582v2.278h-.75V0h.75v.375c0 .696.457 1.125 1.084 1.125.175 0 .35-.03.559-.09L.976.887a1.394 1.394 0 0 1-.407.077C.225.964 0 .738 0 .375Z" style="fill:#05256f;fill-opacity:1;fill-rule:nonzero;stroke:none" transform="matrix(3.3145 0 0 -3.3145 341.73 89.482)"/><path d="M0 0c0 .529-.344.909-.824.909S-1.647.529-1.647 0c0-.523.343-.91.823-.91.48 0 .824.387.824.91m.587 0C.587-.856 0-1.47-.824-1.47c-.823 0-1.41.614-1.41 1.47 0 .857.587 1.469 1.41 1.469C0 1.469.587.857.587 0" style="fill:#05256f;fill-opacity:1;fill-rule:nonzero;stroke:none" transform="matrix(3.3145 0 0 -3.3145 354.553 94.114)"/><path d="M0 0v-.583C-.423-.6-.745-.767-.982-1.094v-1.761h-.587V-.06h.587v-.38C-.74-.161-.407 0 0 0" style="fill:#05256f;fill-opacity:1;fill-rule:nonzero;stroke:none" transform="matrix(3.3145 0 0 -3.3145 364.885 89.285)"/><path d="M0 0v-1.601h-.581V0c0 .494-.249.707-.627.707-.259 0-.507-.101-.705-.38.017-.089.022-.19.022-.291v-1.637h-.581V.036c0 .494-.248.671-.592.671-.277 0-.525-.118-.717-.397v-1.911h-.587v2.796h.587V.957c.198.19.434.31.784.31.379 0 .683-.137.881-.405.26.268.559.405.948.405C-.474 1.267 0 .826 0 0" style="fill:#05256f;fill-opacity:1;fill-rule:nonzero;stroke:none" transform="matrix(3.3145 0 0 -3.3145 382.09 93.444)"/><path d="M0 0v1.012a.868.868 0 0 1-.767.403c-.486 0-.841-.409-.841-.909s.355-.91.841-.91c.293 0 .57.106.767.404m.581 1.903V-.893H0v.22a1.328 1.328 0 0 0-.852-.291c-.745 0-1.343.654-1.343 1.47 0 .815.598 1.469 1.343 1.469.338 0 .626-.107.852-.291v.219z" style="fill:#05256f;fill-opacity:1;fill-rule:nonzero;stroke:none" transform="matrix(3.3145 0 0 -3.3145 392.39 95.79)"/><path d="M0 0a1.593 1.593 0 0 0-.604-.113c-.677 0-1.039.428-1.039 1.148v1.201h-.626v.518h.626v1.029h.588V2.754h.982v-.518h-.982V1.035c0-.404.192-.577.518-.577.159 0 .317.048.453.107z" style="fill:#05256f;fill-opacity:1;fill-rule:nonzero;stroke:none" transform="matrix(3.3145 0 0 -3.3145 404.339 98.61)"/><path d="M585.819 280.374h-1.447v6.95h1.447zm-1.656 9.509c0 .549.405.947.925.947a.923.923 0 0 0 .925-.947.927.927 0 0 0-.925-.948c-.52 0-.925.403-.925.948" style="fill:#05256f;fill-opacity:1;fill-rule:nonzero;stroke:none;stroke-width:2.48588" transform="matrix(1.33333 0 0 -1.33333 -371.867 472.581)"/><path d="M0 0c0 .529-.344.909-.824.909S-1.648.529-1.648 0c0-.523.344-.91.824-.91S0-.523 0 0m.587 0C.587-.856 0-1.47-.824-1.47c-.824 0-1.41.614-1.41 1.47 0 .857.586 1.469 1.41 1.469S.587.857.587 0" style="fill:#05256f;fill-opacity:1;fill-rule:nonzero;stroke:none" transform="matrix(3.3145 0 0 -3.3145 419.903 94.114)"/><path d="M0 0v-1.56h-.587v1.524c0 .512-.26.784-.688.784-.255 0-.531-.147-.74-.421V-1.56h-.587v2.796h.587v-.25c.231.208.519.322.858.322C-.469 1.308 0 .808 0 0" style="fill:#05256f;fill-opacity:1;fill-rule:nonzero;stroke:none" transform="matrix(3.3145 0 0 -3.3145 433.658 93.58)"/><path d="M0 0h-.599c-.067.429-.343.69-.902.69-.491 0-.813-.219-.813-.613 0-.321.226-.487.638-.57l.536-.112c.717-.15 1.129-.471 1.129-1.096 0-.755-.588-1.243-1.468-1.243-.937 0-1.563.517-1.636 1.386h.604c.073-.511.457-.815 1.066-.815.503 0 .813.22.813.595 0 .244-.152.465-.604.548l-.671.136c-.718.143-1.051.529-1.051 1.124 0 .738.565 1.214 1.417 1.214C-.835 1.244-.09.935 0 0" style="fill:#05256f;fill-opacity:1;fill-rule:nonzero;stroke:none" transform="matrix(3.3145 0 0 -3.3145 451.805 89.227)"/><path d="M0 0h1.49c-.034.458-.316.701-.728.701C.321.701.068.393 0 0m2.071-.429H-.011c.056-.423.31-.744.807-.744.259 0 .457.084.564.263h.643c-.169-.506-.637-.804-1.213-.804-.835 0-1.399.637-1.399 1.47 0 .827.558 1.469 1.365 1.469.88 0 1.428-.707 1.315-1.654" style="fill:#05256f;fill-opacity:1;fill-rule:nonzero;stroke:none" transform="matrix(3.3145 0 0 -3.3145 456.805 93.305)"/><path d="M0 0v-.583C-.423-.6-.745-.767-.982-1.094v-1.761h-.587V-.06h.587v-.38C-.74-.161-.407 0 0 0" style="fill:#05256f;fill-opacity:1;fill-rule:nonzero;stroke:none" transform="matrix(3.3145 0 0 -3.3145 472.089 89.285)"/><path d="m0 0-1.236-2.796h-.514L-2.985 0h.62l.875-2.005L-.621 0Z" style="fill:#05256f;fill-opacity:1;fill-rule:nonzero;stroke:none" transform="matrix(3.3145 0 0 -3.3145 484.219 89.482)"/><path d="M645.651 280.374h-1.447v6.95h1.447zm-1.658 9.509c0 .549.408.947.927.947a.926.926 0 0 0 .928-.947.929.929 0 1 0-1.855 0" style="fill:#05256f;fill-opacity:1;fill-rule:nonzero;stroke:none;stroke-width:2.48588" transform="matrix(1.33333 0 0 -1.33333 -371.867 472.581)"/><path d="M0 0h.599C.502-.643-.028-1.089-.694-1.089c-.796 0-1.399.637-1.399 1.47 0 .827.603 1.469 1.399 1.469.666 0 1.196-.447 1.293-1.088H0c-.073.315-.339.528-.694.528-.491 0-.813-.403-.813-.909s.322-.91.813-.91c.355 0 .621.214.694.529" style="fill:#05256f;fill-opacity:1;fill-rule:nonzero;stroke:none" transform="matrix(3.3145 0 0 -3.3145 499.212 95.376)"/><path d="M0 0h1.49c-.034.458-.316.701-.728.701C.322.701.068.393 0 0m2.072-.429H-.011c.056-.423.31-.744.807-.744.259 0 .457.084.564.263h.644c-.17-.506-.638-.804-1.213-.804-.836 0-1.4.637-1.4 1.47 0 .827.558 1.469 1.366 1.469.88 0 1.428-.707 1.315-1.654" style="fill:#05256f;fill-opacity:1;fill-rule:nonzero;stroke:none" transform="matrix(3.3145 0 0 -3.3145 505.9 93.305)"/></svg>