<svg xmlns="http://www.w3.org/2000/svg" xml:space="preserve" width="946.82452" height="500" viewBox="0 0 946.82452 499.99999"><path d="m0 0 15.132 21.389h7.108L28.771 0H22.78l-1.106 3.773H9.346L6.798 0Zm18.071 16.411L12.57 8.369h7.761z" style="fill:#233b74;fill-opacity:1;fill-rule:evenodd;stroke:none" transform="matrix(9.10258 0 0 -9.10258 2162.273 328.54)"/><path d="m0 0 4.376 21.389h14.521c5.785 0 6.504-3.173 5.654-7.331l-.381-1.859c-.649-3.173-1.861-6.839-6.173-6.839H7.134L6.037 0Zm9.409 16.478-1.229-6h8.276c1.421 0 2.14 1.04 2.398 2.299l.289 1.403c.29 1.422-.137 2.298-2.015 2.298z" style="fill:#233b74;fill-opacity:1;fill-rule:evenodd;stroke:none" transform="matrix(9.10258 0 0 -9.10258 1961.22 328.54)"/><path d="m0 0 7.297-9.893h7.414L5.788.137Z" style="fill:#233b74;fill-opacity:1;fill-rule:evenodd;stroke:none" transform="matrix(9.10258 0 0 -9.10258 2020.927 238.49)"/><path d="M0 0h6.088l4.376 21.389H4.376Z" style="fill:#233b74;fill-opacity:1;fill-rule:evenodd;stroke:none" transform="matrix(9.10258 0 0 -9.10258 1478.336 328.54)"/><path d="m0 0 7.127-10.722h7.819L7.305.219l10.748 10.449H10.59Z" style="fill:#233b74;fill-opacity:1;fill-rule:evenodd;stroke:none" transform="matrix(9.10258 0 0 -9.10258 1553.712 230.946)"/><path d="M0 0s1.669 11.274 14.755 11.128c12.602 0 13.606 10.261 13.606 10.261h-7.433s-.63-7.659-6.173-10.261C8.074 8.238 7.597 0 7.597 0Z" style="fill:#50ade5;fill-opacity:1;fill-rule:evenodd;stroke:none" transform="matrix(9.10258 0 0 -9.10258 1697.593 328.54)"/><path d="m0 0 2.986 12.574C.355 10.261-3.046 9.828-4.822 9.828L-7.109 0Z" style="fill:#50ade5;fill-opacity:1;fill-rule:evenodd;stroke:none" transform="matrix(9.10258 0 0 -9.10258 1906.47 328.54)"/><path d="m0 0-2.975-11.994C-.348-9.827 2.897-9.105 5.002-8.96L7.109 0Z" style="fill:#50ade5;fill-opacity:1;fill-rule:evenodd;stroke:none" transform="matrix(9.10258 0 0 -9.10258 1748.355 133.842)"/><path d="m0 0 15.132 21.389h7.108L28.771 0H22.78l-1.106 3.773H9.346L6.798 0Zm18.071 16.411L12.57 8.369h7.761z" style="fill:#233b74;fill-opacity:1;fill-rule:evenodd;stroke:none" transform="matrix(9.10258 0 0 -9.10258 684.847 194.7)"/><path d="m0 0 4.376 21.389h14.521c5.785 0 6.504-3.173 5.654-7.331l-.381-1.859c-.649-3.173-1.861-6.839-6.173-6.839H7.134L6.037 0Zm9.409 16.478-1.229-6h8.276c1.421 0 2.14 1.04 2.398 2.299l.289 1.403c.29 1.422-.137 2.298-2.015 2.298z" style="fill:#233b74;fill-opacity:1;fill-rule:evenodd;stroke:none" transform="matrix(9.10258 0 0 -9.10258 483.795 194.7)"/><path d="m0 0 7.297-9.893h7.415L5.788.137Z" style="fill:#233b74;fill-opacity:1;fill-rule:evenodd;stroke:none" transform="matrix(9.10258 0 0 -9.10258 543.5 104.65)"/><path d="M0 0h6.088l4.376 21.389H4.376Z" style="fill:#233b74;fill-opacity:1;fill-rule:evenodd;stroke:none" transform="matrix(9.10258 0 0 -9.10258 .91 194.7)"/><path d="m0 0 7.127-10.722h7.819L7.305.219l10.748 10.449H10.59Z" style="fill:#233b74;fill-opacity:1;fill-rule:evenodd;stroke:none" transform="matrix(9.10258 0 0 -9.10258 76.287 97.106)"/><path d="M0 0s1.669 11.274 14.755 11.128c12.602 0 13.606 10.261 13.606 10.261h-7.433s-.63-7.659-6.173-10.261C8.074 8.238 7.597 0 7.597 0Z" style="fill:#50ade5;fill-opacity:1;fill-rule:evenodd;stroke:none" transform="matrix(9.10258 0 0 -9.10258 220.168 194.7)"/><path d="m0 0 2.986 12.574C.355 10.261-3.046 9.828-4.822 9.828L-7.109 0Z" style="fill:#50ade5;fill-opacity:1;fill-rule:evenodd;stroke:none" transform="matrix(9.10258 0 0 -9.10258 429.044 194.7)"/><path d="m0 0-2.975-11.994C-.348-9.827 2.897-9.105 5.002-8.96L7.109 0Z" style="fill:#50ade5;fill-opacity:1;fill-rule:evenodd;stroke:none" transform="matrix(9.10258 0 0 -9.10258 270.93 .002)"/><path d="M0 0v3.577h-7.275v1.27h3.509v1.861h-4.78v1.255h8.047c.363.469.438 1.467.438 1.724v1.634c0 .348-.181.454-.605.454h-6.337V13H.106c.907 0 1.769-.091 1.769-1.452V9.687a3.17 3.17 0 0 0-.529-1.724h2.359V6.708h-5.49V4.847h2.919c.605 0 .862-.166.862-.74V.923c0-.5-.257-.923-.892-.923Z" style="fill:#231f20;fill-opacity:1;fill-rule:nonzero;stroke:none" transform="matrix(9.10258 0 0 -9.10258 202.738 404.996)"/><path d="M0 0h2.208v-1.225H0v-3.63c0-.499-.272-.923-.907-.923h-1.089v9.771H0Z" style="fill:#231f20;fill-opacity:1;fill-rule:nonzero;stroke:none" transform="matrix(9.10258 0 0 -9.10258 100.467 320.121)"/><path d="M0 0c0-.439.151-.575.423-.575h6.776V-1.8H-.378c-.847 0-1.619.378-1.619 1.618v2.174H0Z" style="fill:#231f20;fill-opacity:1;fill-rule:nonzero;stroke:none" transform="matrix(9.10258 0 0 -9.10258 37.413 387.742)"/><path d="M152.094-56.545h-54.52v8.055h54.52z" style="fill:#231f20;fill-opacity:1;fill-rule:nonzero;stroke:none;stroke-width:6.82693" transform="matrix(1.33333 0 0 -1.33333 -130.099 232.201)"/><path d="M0 0v1.664h1.679V0" style="fill:#231f20;fill-opacity:1;fill-rule:nonzero;stroke:none" transform="matrix(9.10258 0 0 -9.10258 28.704 296.854)"/><path d="M0 0v6.708h-1.134V.923c0-.5-.227-.923-.862-.923h-.852v13.151h1.714V7.933H0v5.218h1.876V.923c0-.5-.227-.923-.863-.923Z" style="fill:#231f20;fill-opacity:1;fill-rule:nonzero;stroke:none" transform="matrix(9.10258 0 0 -9.10258 342.636 404.996)"/><path d="M0 0c-.89 0-1.612.648-1.612 1.447S-.89 2.894 0 2.894c.89 0 1.612-.648 1.612-1.447S.89 0 0 0m0 4.475c-1.863 0-3.374-1.356-3.374-3.028S-1.863-1.581 0-1.581c1.863 0 3.374 1.356 3.374 3.028S1.863 4.475 0 4.475" style="fill:#231f20;fill-opacity:1;fill-rule:nonzero;stroke:none" transform="matrix(9.10258 0 0 -9.10258 36.346 351.258)"/><path d="M0 0v-1.21h-12.266V0" style="fill:#231f20;fill-opacity:1;fill-rule:nonzero;stroke:none" transform="matrix(9.10258 0 0 -9.10258 600.938 377.589)"/><path d="M0 0v3.304h2.027V0" style="fill:#231f20;fill-opacity:1;fill-rule:nonzero;stroke:none" transform="matrix(9.10258 0 0 -9.10258 535.887 377.589)"/><path d="M0 0c-.89 0-1.612.648-1.612 1.447S-.89 2.894 0 2.894c.89 0 1.612-.648 1.612-1.447S.89 0 0 0m0 4.475c-1.863 0-3.374-1.356-3.374-3.028S-1.863-1.581 0-1.581c1.863 0 3.374 1.356 3.374 3.028S1.863 4.475 0 4.475" style="fill:#231f20;fill-opacity:1;fill-rule:nonzero;stroke:none" transform="matrix(9.10258 0 0 -9.10258 280.89 351.258)"/><path d="M0 0v1.648h-1.679V0H-4.5v-1.195h7.321V0Z" style="fill:#231f20;fill-opacity:1;fill-rule:nonzero;stroke:none" transform="matrix(9.10258 0 0 -9.10258 288.53 296.716)"/><path d="M0 0v1.225h-2.208v1.473h-1.997v-7.712h1.089c.635 0 .908.424.908.923v1.435H0v1.225h-2.208V0Z" style="fill:#231f20;fill-opacity:1;fill-rule:nonzero;stroke:none" transform="matrix(9.10258 0 0 -9.10258 487.45 308.47)"/><path d="M0 0c-1.087 0-1.968.616-1.968 1.375 0 .76.881 1.376 1.968 1.376s1.968-.616 1.968-1.376C1.968.616 1.087 0 0 0m0 4.403c-2.059 0-3.729-1.355-3.729-3.028 0-1.672 1.67-3.027 3.729-3.027S3.729-.297 3.729 1.375c0 1.673-1.67 3.028-3.729 3.028" style="fill:#231f20;fill-opacity:1;fill-rule:nonzero;stroke:none" transform="matrix(9.10258 0 0 -9.10258 427.355 392.066)"/><path d="M0 0c-.89 0-1.612.677-1.612 1.513 0 .835.722 1.512 1.612 1.512.89 0 1.612-.677 1.612-1.512C1.612.677.89 0 0 0m0 4.677c-1.863 0-3.374-1.416-3.374-3.164 0-1.748 1.511-3.165 3.374-3.165 1.863 0 3.374 1.417 3.374 3.165S1.863 4.677 0 4.677" style="fill:#231f20;fill-opacity:1;fill-rule:nonzero;stroke:none" transform="matrix(9.10258 0 0 -9.10258 403.78 328.85)"/><path d="M0 0s-.121.3-.121.895v1.48h-2.132V.895C-2.253.3-2.374 0-2.374 0c-.477-1.456-2.212-2.627-4.19-3.031l.272-.665c.136-.469.439-.469.787-.409 1.39.242 3.409 1.117 4.318 2.431.909-1.314 2.928-2.189 4.318-2.431.348-.06.65-.06.787.409l.272.665C2.212-2.627.477-1.456 0 0" style="fill:#231f20;fill-opacity:1;fill-rule:nonzero;stroke:none" transform="matrix(9.10258 0 0 -9.10258 555.916 313.921)"/><path d="M475.124-43.636h62.569v-8.363h-62.57z" style="fill:#231f20;fill-opacity:1;fill-rule:nonzero;stroke:none;stroke-width:6.82693" transform="matrix(1.33333 0 0 -1.33333 -130.099 232.201)"/><path d="M0 0h2.208v-1.225H0v-5.791c0-.499-.242-.922-.877-.922h-1.12V5.213H0Z" style="fill:#231f20;fill-opacity:1;fill-rule:nonzero;stroke:none" transform="matrix(9.10258 0 0 -9.10258 701.44 332.737)"/><path d="M0 0h1.997v-6.988c0-.498-.258-.922-.893-.922H0Z" style="fill:#231f20;fill-opacity:1;fill-rule:nonzero;stroke:none" transform="matrix(9.10258 0 0 -9.10258 809.995 283.776)"/><path d="M694.023-57.371h-53.49v8.055h53.49z" style="fill:#231f20;fill-opacity:1;fill-rule:nonzero;stroke:none;stroke-width:6.82693" transform="matrix(1.33333 0 0 -1.33333 -130.099 232.201)"/><path d="M0 0v1.664h1.679V0" style="fill:#231f20;fill-opacity:1;fill-rule:nonzero;stroke:none" transform="matrix(9.10258 0 0 -9.10258 751.277 297.955)"/><path d="M0 0h1.407v1.195H-1.998v1.648h-1.679V1.195h-3.401V0h1.512z" style="fill:#231f20;fill-opacity:1;fill-rule:nonzero;stroke:none" transform="matrix(9.10258 0 0 -9.10258 908.41 313.375)"/><path d="M0 0v2.092l-1.981-.015V0Z" style="fill:#231f20;fill-opacity:1;fill-rule:nonzero;stroke:none" transform="matrix(9.10258 0 0 -9.10258 892.165 371.519)"/><path d="M801.028-111.352h-72.843v8.363h72.843z" style="fill:#231f20;fill-opacity:1;fill-rule:nonzero;stroke:none;stroke-width:6.82693" transform="matrix(1.33333 0 0 -1.33333 -130.099 232.201)"/><path d="M0 0v-13.151h1.119c.636 0 .893.726.893 1.225V0Z" style="fill:#231f20;fill-opacity:1;fill-rule:nonzero;stroke:none" transform="matrix(9.10258 0 0 -9.10258 928.51 285.29)"/><path d="M707.164-78.228h-14.486v-8.26h14.486zM707.164-62.014h-14.486v-8.26h14.486z" style="fill:#231f20;fill-opacity:1;fill-rule:nonzero;stroke:none;stroke-width:6.82693" transform="matrix(1.33333 0 0 -1.33333 -130.099 232.201)"/><path d="M0 0c-.833 0-1.508.606-1.508 1.353S-.833 2.706 0 2.706 1.508 2.1 1.508 1.353.833 0 0 0m0 4.184c-1.742 0-3.155-1.267-3.155-2.831S-1.742-1.478 0-1.478c1.742 0 3.155 1.267 3.155 2.831S1.742 4.184 0 4.184" style="fill:#231f20;fill-opacity:1;fill-rule:nonzero;stroke:none" transform="matrix(9.10258 0 0 -9.10258 759.08 341.538)"/><path d="M0 0c-.833 0-1.508.606-1.508 1.353S-.833 2.706 0 2.706 1.508 2.1 1.508 1.353.833 0 0 0m0 4.184c-1.742 0-3.155-1.267-3.155-2.831S-1.742-1.478 0-1.478c1.742 0 3.155 1.267 3.155 2.831S1.742 4.184 0 4.184" style="fill:#231f20;fill-opacity:1;fill-rule:nonzero;stroke:none" transform="matrix(9.10258 0 0 -9.10258 882.596 343.89)"/><path d="M0 0c0-.287-.151-.333-.287-.333h-4.265c-.227 0-.257.182-.257.363v.968H0Zm-6.806-.689c0-.48.389-.869.869-.869H.348c1.104 0 1.633.424 1.633 1.452v3.494H0V2.223h-4.809v1.165h-1.997z" style="fill:#231f20;fill-opacity:1;fill-rule:nonzero;stroke:none" transform="matrix(9.10258 0 0 -9.10258 809.444 389.76)"/><path d="m0 0 .058-1.647C.14-6.926 3.204-7.335 3.204-7.335l-.439-.727c-.317-.514-.741-.393-.998-.317C.693-8.031-.366-6.973-.91-5.687c-.544-1.286-1.603-2.344-2.677-2.692-.257-.076-.68-.197-.998.317l-.439.727s3.064.409 3.146 5.688L-1.82 0Z" style="fill:#231f20;fill-opacity:1;fill-rule:nonzero;stroke:none" transform="matrix(9.10258 0 0 -9.10258 646.806 289.97)"/><path d="M0 0v1.543h.715v-3.384c0-.178-.082-.33-.309-.33H0v1.732h-1.44v-1.402c0-.178-.081-.33-.309-.33h-.406v3.714h.715V0Z" style="fill:#231f20;fill-opacity:1;fill-rule:nonzero;stroke:none" transform="matrix(9.10258 0 0 -9.10258 157.554 468.366)"/><path d="M0 0c.227 0 .314-.162.379-.33l.52-1.397L1.624 0h.72L.931-3.145C.715-3.633.439-3.8.114-3.8c-.136 0-.385.037-.542.14v.434c.45-.163.645-.104.85.395l.141.34L-.469 0Z" style="fill:#231f20;fill-opacity:1;fill-rule:nonzero;stroke:none" transform="matrix(9.10258 0 0 -9.10258 171 465.41)"/><path d="M0 0a.617.617 0 0 1-.493.222c-.389 0-.568-.395-.568-.888s.173-.888.568-.888c.212 0 .39.098.493.282zm-.493-1.998c-.817-.043-1.277.525-1.277 1.332S-1.332.671-.493.671A.884.884 0 0 0 0 .503v1.43h.704v-3.85H0v.141a.727.727 0 0 0-.493-.222" style="fill:#231f20;fill-opacity:1;fill-rule:nonzero;stroke:none" transform="matrix(9.10258 0 0 -9.10258 208.102 470.682)"/><path d="M0 0v2.496h.715v-.249c.092.092.232.216.4.281.141.054.504.13.736-.07v-.449c-.314.135-.498.146-.709.086a1.278 1.278 0 0 1-.427-.244V.385C.715.179.601 0 .374 0Z" style="fill:#231f20;fill-opacity:1;fill-rule:nonzero;stroke:none" transform="matrix(9.10258 0 0 -9.10258 218.003 488.128)"/><path d="M0 0c.444 0 .661.438.661.888 0 .449-.217.893-.655.893-.45 0-.666-.444-.666-.893C-.66.438-.444 0 0 0m1.37.888C1.37.119.839-.444 0-.444c-.839 0-1.375.563-1.375 1.332 0 .769.536 1.337 1.375 1.337S1.37 1.657 1.37.888" style="fill:#231f20;fill-opacity:1;fill-rule:nonzero;stroke:none" transform="matrix(9.10258 0 0 -9.10258 246.861 484.825)"/><path d="M0 0v2.496h.715v-.249c.092.092.232.216.4.281.141.054.504.13.737-.07v-.449c-.314.135-.498.146-.71.086a1.278 1.278 0 0 1-.427-.244V.385C.715.179.601 0 .374 0Z" style="fill:#231f20;fill-opacity:1;fill-rule:nonzero;stroke:none" transform="matrix(9.10258 0 0 -9.10258 289.575 488.128)"/><path d="M0 0v-1.304c.098-.136.244-.212.455-.212.395 0 .595.395.595.888S.845.293.482.26C.276.244.152.157 0 0m-.715-3.064V.617H0V.482c.162.13.314.206.482.222.812.081 1.277-.525 1.277-1.332S1.294-1.96.455-1.96A.815.815 0 0 0 0-1.819v-.914c0-.179-.087-.331-.314-.331z" style="fill:#231f20;fill-opacity:1;fill-rule:nonzero;stroke:none" transform="matrix(9.10258 0 0 -9.10258 337.761 471.03)"/><path d="M0 0v1.77c0 .287-.189.379-.406.379a1.197 1.197 0 0 1-.65-.205V.385c0-.206-.113-.385-.341-.385h-.362v3.849h.703V2.387c.201.13.553.201.737.201.568 0 1.034-.277 1.034-.791V.385C.715.179.601 0 .374 0Z" style="fill:#231f20;fill-opacity:1;fill-rule:nonzero;stroke:none" transform="matrix(9.10258 0 0 -9.10258 372.547 488.128)"/><path d="M0 0c.227 0 .314-.162.379-.33l.52-1.397L1.624 0h.72L.931-3.145C.715-3.633.439-3.8.114-3.8c-.136 0-.385.037-.542.14v.434c.45-.163.645-.104.85.395l.141.34L-.469 0Z" style="fill:#231f20;fill-opacity:1;fill-rule:nonzero;stroke:none" transform="matrix(9.10258 0 0 -9.10258 384.517 465.41)"/><path d="M0 0c.133.15.312.225.557.226C.681.226.792.22.888.207c.078-.011.142-.026.204-.043V-1.07a.745.745 0 0 0-.214-.37c-.1-.09-.239-.138-.431-.138-.25.001-.406.074-.499.211-.097.145-.151.36-.15.648 0 .334.071.571.202.719m1.654.609c-.132.045-.28.082-.443.109a3.542 3.542 0 0 1-.584.041C.151.76-.222.633-.474.37-.725.108-.847-.263-.847-.729c.001-.469.091-.82.29-1.048.198-.226.504-.335.898-.334.198 0 .369.028.514.086.102.04.179.097.242.161v-.072c0-.127-.011-.234-.033-.321a.41.41 0 0 0-.111-.199.522.522 0 0 0-.227-.116 1.525 1.525 0 0 0-.755.012 1.849 1.849 0 0 0-.32.117l-.075.035-.147-.555.052-.025c.108-.05.235-.089.38-.117.148-.028.337-.041.569-.041.403 0 .719.087.94.271.223.186.332.469.331.828v2.64z" style="fill:#231f20;fill-opacity:1;fill-rule:nonzero;stroke:none" transform="matrix(9.10258 0 0 -9.10258 269.298 470.754)"/><path d="M0 0v3.714h.715V2.176l1.31 1.532.812.006-1.402-1.586L2.918 0h-.79L1.002 1.635.715 1.31V.33C.715.152.628 0 .401 0Z" style="fill:#231f20;fill-opacity:1;fill-rule:nonzero;stroke:none" transform="matrix(9.10258 0 0 -9.10258 5.882 488.128)"/><path d="M0 0c.444 0 .661.438.661.888 0 .449-.217.893-.656.893-.449 0-.665-.444-.665-.893C-.66.438-.444 0 0 0m1.37.888C1.37.119.839-.444 0-.444c-.839 0-1.375.563-1.375 1.332 0 .769.536 1.337 1.375 1.337S1.37 1.657 1.37.888" style="fill:#231f20;fill-opacity:1;fill-rule:nonzero;stroke:none" transform="matrix(9.10258 0 0 -9.10258 43.87 484.825)"/><path d="M0 0v2.496h.715v-.249c.092.092.232.216.4.281.141.054.504.13.737-.07v-.449c-.314.135-.498.146-.71.086a1.278 1.278 0 0 1-.427-.244V.385C.715.179.601 0 .374 0Z" style="fill:#231f20;fill-opacity:1;fill-rule:nonzero;stroke:none" transform="matrix(9.10258 0 0 -9.10258 58.994 488.128)"/><path d="M0 0h1.115C1.061.373.872.639.563.639.249.639.06.368 0 0m1.592-.85v-.439a1.702 1.702 0 0 0-.91-.292c-.958 0-1.413.633-1.413 1.326 0 .693.455 1.343 1.294 1.343S1.83.438 1.83-.255c0-.043-.006-.14-.011-.184H-.005c.043-.433.254-.698.687-.698.271 0 .547.103.91.287" style="fill:#231f20;fill-opacity:1;fill-rule:nonzero;stroke:none" transform="matrix(9.10258 0 0 -9.10258 83.037 474.476)"/><path d="M0 0v.585A1.785 1.785 0 0 0-.536.412C-.774.368-.915.233-.92.081c-.006-.276.178-.368.368-.341A.986.986 0 0 1 0 0m0-.389c-.195-.223-.471-.309-.774-.326-.374-.021-.872.206-.872.731 0 .607.612.742 1.11.818.238.038.433.087.536.179v.021c0 .32-.06.488-.417.488-.281 0-.666-.174-.926-.38v.482c.201.168.596.331.926.331.72 0 1.099-.309 1.099-.894V-.633H0Z" style="fill:#231f20;fill-opacity:1;fill-rule:nonzero;stroke:none" transform="matrix(9.10258 0 0 -9.10258 116.05 482.365)"/><path d="M0 0v.594A1.885 1.885 0 0 0-.545.418C-.787.374-.93.237-.936.083c-.005-.281.182-.374.375-.347.231.033.44.138.561.264m0-.396c-.198-.226-.479-.314-.787-.33-.38-.022-.886.209-.886.743 0 .616.622.754 1.128.831.242.038.44.088.545.181v.022c0 .325-.061.496-.424.496-.286 0-.677-.177-.941-.386v.49c.204.171.606.336.941.336.732 0 1.117-.314 1.117-.908V-.644H0Z" style="fill:#231f20;fill-opacity:1;fill-rule:nonzero;stroke:none" transform="matrix(9.10258 0 0 -9.10258 430.456 482.248)"/><path d="M0 0v1.8c0 .291-.193.395-.413.385-.247-.011-.418-.088-.622-.243V.391C-1.035.182-1.15 0-1.381 0h-.38v2.537h.726v-.165c.265.181.529.242.71.258.578.055 1.051-.28 1.051-.803V.391C.726.182.611 0 .38 0Z" style="fill:#231f20;fill-opacity:1;fill-rule:nonzero;stroke:none" transform="matrix(9.10258 0 0 -9.10258 456.448 488.107)"/><path d="M0 0a.63.63 0 0 1-.501.226c-.396 0-.578-.402-.578-.903s.177-.902.578-.902c.215 0 .396.099.501.286zm-.501-2.031c-.831-.044-1.298.534-1.298 1.354 0 .82.445 1.359 1.298 1.359A.903.903 0 0 0 0 .512v1.452h.715v-3.912H0v.143a.74.74 0 0 0-.501-.226" style="fill:#231f20;fill-opacity:1;fill-rule:nonzero;stroke:none" transform="matrix(9.10258 0 0 -9.10258 481.787 470.375)"/><path d="M0 0c.506 0 .71.33.71.787 0 .462-.231.737-.71.737h-.484V0Zm-1.211-1.81v3.774H0c.979 0 1.464-.462 1.464-1.172 0-.473-.292-.853-.622-.979.209-.121.346-.319.44-.639l.314-.984H.869l-.28.858c-.061.198-.171.517-.408.517h-.665v-1.04c0-.181-.083-.335-.314-.335z" style="fill:#231f20;fill-opacity:1;fill-rule:nonzero;stroke:none" transform="matrix(9.10258 0 0 -9.10258 516.852 471.626)"/><path d="M0 0h1.134C1.079.379.886.649.572.649.253.649.061.374 0 0m1.618-.864v-.446a1.732 1.732 0 0 0-.925-.297c-.974 0-1.436.644-1.436 1.348 0 .704.462 1.365 1.315 1.365S1.86.445 1.86-.259c0-.044-.006-.143-.011-.187H-.005c.043-.44.258-.71.698-.71.276 0 .556.105.925.292" style="fill:#231f20;fill-opacity:1;fill-rule:nonzero;stroke:none" transform="matrix(9.10258 0 0 -9.10258 539.436 474.23)"/><path d="M0 0v-.545c-.259.22-.506.391-.842.391-.325 0-.396-.088-.396-.242 0-.193.242-.286.517-.418.435-.21.903-.391.903-.875 0-.457-.391-.732-1.123-.732-.259 0-.754.11-1.024.407v.556c.292-.352.672-.517 1.03-.517.214 0 .374.11.374.275 0 .291-.463.478-.672.567-.473.203-.732.401-.732.753 0 .523.54.672 1.084.672C-.528.292-.242.198 0 0" style="fill:#231f20;fill-opacity:1;fill-rule:nonzero;stroke:none" transform="matrix(9.10258 0 0 -9.10258 576.047 466.82)"/><path d="M0 0h1.134C1.079.379.886.649.572.649.253.649.061.374 0 0m1.618-.864v-.446a1.732 1.732 0 0 0-.925-.297c-.974 0-1.436.644-1.436 1.348 0 .704.462 1.365 1.315 1.365S1.86.445 1.86-.259c0-.044-.006-.143-.011-.187H-.005c.044-.44.258-.71.698-.71.276 0 .556.105.925.292" style="fill:#231f20;fill-opacity:1;fill-rule:nonzero;stroke:none" transform="matrix(9.10258 0 0 -9.10258 586.26 474.23)"/><path d="M0 0v.594A1.885 1.885 0 0 0-.545.418C-.787.374-.93.237-.935.083c-.006-.281.181-.374.374-.347.231.033.44.138.561.264m0-.396c-.198-.226-.479-.314-.787-.33-.38-.022-.886.209-.886.743 0 .616.622.754 1.128.831.242.038.44.088.545.181v.022c0 .325-.061.496-.424.496-.286 0-.677-.177-.941-.386v.49c.204.171.606.336.941.336.732 0 1.117-.314 1.117-.908V-.644H0Z" style="fill:#231f20;fill-opacity:1;fill-rule:nonzero;stroke:none" transform="matrix(9.10258 0 0 -9.10258 619.816 482.248)"/><path d="M0 0v2.537h.726v-.253c.094.093.237.22.407.286.143.055.512.132.749-.072v-.456c-.319.137-.506.148-.721.088a1.323 1.323 0 0 1-.435-.248V.391C.726.182.611 0 .379 0Z" style="fill:#231f20;fill-opacity:1;fill-rule:nonzero;stroke:none" transform="matrix(9.10258 0 0 -9.10258 629.679 488.107)"/><path d="M0 0a1.783 1.783 0 0 0-.787-.204c-.858 0-1.425.49-1.425 1.348 0 .859.561 1.365 1.425 1.365.215 0 .545-.055.765-.17v-.551c-.182.176-.484.265-.759.265-.441 0-.71-.353-.71-.897 0-.562.253-.903.704-.903.275 0 .589.104.787.236z" style="fill:#231f20;fill-opacity:1;fill-rule:nonzero;stroke:none" transform="matrix(9.10258 0 0 -9.10258 666.427 487.005)"/><path d="M0 0v3.912h.715V2.427c.204.132.562.203.749.203.578 0 1.051-.28 1.051-.803V.391C2.515.182 2.399 0 2.168 0h-.38v1.8c0 .291-.192.385-.412.385a1.207 1.207 0 0 1-.661-.21V.391C.715.182.6 0 .369 0Z" style="fill:#231f20;fill-opacity:1;fill-rule:nonzero;stroke:none" transform="matrix(9.10258 0 0 -9.10258 669.225 488.107)"/><path d="M0 0h.884l-.44 1.464zm.081 2.322h.501c.22 0 .253-.071.313-.269l1.15-3.506h-.721L1.022-.445H-.139l-.198-.672c-.056-.171-.143-.336-.375-.336h-.459z" style="fill:#231f20;fill-opacity:1;fill-rule:nonzero;stroke:none" transform="matrix(9.10258 0 0 -9.10258 718.712 474.884)"/><path d="M0 0v-.545c-.258.22-.506.391-.842.391-.325 0-.396-.088-.396-.242 0-.193.242-.286.517-.418.435-.21.903-.391.903-.875 0-.457-.391-.732-1.123-.732-.259 0-.754.11-1.023.407v.556c.291-.352.671-.517 1.028-.517.215 0 .375.11.375.275 0 .291-.462.478-.672.567-.473.203-.731.401-.731.753 0 .523.539.672 1.084.672C-.528.292-.242.198 0 0" style="fill:#231f20;fill-opacity:1;fill-rule:nonzero;stroke:none" transform="matrix(9.10258 0 0 -9.10258 756.907 466.82)"/><path d="M0 0v-.545c-.258.22-.506.391-.842.391-.325 0-.396-.088-.396-.242 0-.193.242-.286.517-.418.435-.21.903-.391.903-.875 0-.457-.391-.732-1.123-.732-.259 0-.754.11-1.023.407v.556c.291-.352.671-.517 1.029-.517.214 0 .374.11.374.275 0 .291-.462.478-.672.567-.473.203-.731.401-.731.753 0 .523.539.672 1.084.672C-.528.292-.242.198 0 0" style="fill:#231f20;fill-opacity:1;fill-rule:nonzero;stroke:none" transform="matrix(9.10258 0 0 -9.10258 778.24 466.82)"/><path d="M0 0c.451 0 .671.445.671.902s-.22.908-.665.908c-.457 0-.677-.451-.677-.908S-.451 0 0 0m1.392.902C1.392.121.853-.452 0-.452c-.853 0-1.398.573-1.398 1.354 0 .782.545 1.36 1.398 1.36.853 0 1.392-.578 1.392-1.36" style="fill:#231f20;fill-opacity:1;fill-rule:nonzero;stroke:none" transform="matrix(9.10258 0 0 -9.10258 794.415 484.75)"/><path d="M0 0a1.783 1.783 0 0 0-.787-.204c-.858 0-1.425.49-1.425 1.348 0 .859.561 1.365 1.425 1.365.215 0 .545-.055.765-.17v-.551c-.182.176-.484.265-.76.265-.44 0-.709-.353-.709-.897 0-.562.253-.903.704-.903.275 0 .589.104.787.236z" style="fill:#231f20;fill-opacity:1;fill-rule:nonzero;stroke:none" transform="matrix(9.10258 0 0 -9.10258 829.023 487.005)"/><path d="M0 0a.43.43 0 1 0-.001-.86A.43.43 0 0 0 0 0m-.352-3.912v2.536h.726v-2.145c0-.21-.115-.391-.347-.391z" style="fill:#231f20;fill-opacity:1;fill-rule:nonzero;stroke:none" transform="matrix(9.10258 0 0 -9.10258 835.528 452.494)"/><path d="M0 0v.594A1.885 1.885 0 0 0-.545.418C-.787.374-.93.237-.936.083c-.005-.281.182-.374.375-.347.231.033.44.138.561.264m0-.396c-.198-.226-.479-.314-.787-.33-.38-.022-.886.209-.886.743 0 .616.622.754 1.128.831.242.038.44.088.545.181v.022c0 .325-.061.496-.424.496-.286 0-.677-.177-.941-.386v.49c.204.171.606.336.941.336.732 0 1.117-.314 1.117-.908V-.644H0Z" style="fill:#231f20;fill-opacity:1;fill-rule:nonzero;stroke:none" transform="matrix(9.10258 0 0 -9.10258 857.015 482.248)"/><path d="M0 0h-.435v.446H0v1.139h.726V.446h.611V0H.726v-1.227c0-.418.05-.506.617-.363v-.44a1.062 1.062 0 0 0-.529-.144c-.473 0-.814.045-.814.941Z" style="fill:#231f20;fill-opacity:1;fill-rule:nonzero;stroke:none" transform="matrix(9.10258 0 0 -9.10258 869.933 469.074)"/><path d="M0 0a.43.43 0 1 0-.001-.86A.43.43 0 0 0 0 0m-.352-3.912v2.536h.726v-2.145c0-.21-.115-.391-.347-.391z" style="fill:#231f20;fill-opacity:1;fill-rule:nonzero;stroke:none" transform="matrix(9.10258 0 0 -9.10258 889.164 452.494)"/><path d="M0 0c.451 0 .671.445.671.902s-.22.908-.665.908c-.457 0-.677-.451-.677-.908S-.451 0 0 0m1.392.902C1.392.121.853-.452 0-.452c-.853 0-1.398.573-1.398 1.354 0 .782.545 1.36 1.398 1.36.853 0 1.392-.578 1.392-1.36" style="fill:#231f20;fill-opacity:1;fill-rule:nonzero;stroke:none" transform="matrix(9.10258 0 0 -9.10258 908.545 484.75)"/><path d="M0 0v1.8c0 .291-.192.395-.413.385-.247-.011-.418-.088-.621-.243V.391C-1.034.182-1.15 0-1.381 0h-.38v2.537h.727v-.165c.264.181.528.242.709.258.578.055 1.051-.28 1.051-.803V.391C.726.182.611 0 .38 0Z" style="fill:#231f20;fill-opacity:1;fill-rule:nonzero;stroke:none" transform="matrix(9.10258 0 0 -9.10258 940.046 488.107)"/><path d="M0 0v.585A1.785 1.785 0 0 0-.536.412C-.774.368-.915.233-.92.081c-.006-.276.178-.368.368-.341A.986.986 0 0 1 0 0m0-.389c-.195-.223-.471-.309-.774-.326-.374-.021-.872.206-.872.731 0 .607.612.742 1.11.818.238.038.433.087.536.179v.021c0 .32-.06.488-.417.488-.281 0-.666-.174-.926-.38v.482c.201.168.596.331.926.331.72 0 1.099-.309 1.099-.894V-.633H0Z" style="fill:#231f20;fill-opacity:1;fill-rule:nonzero;stroke:none" transform="matrix(9.10258 0 0 -9.10258 321.554 482.365)"/><path d="M0 0v3.889h-7.91V5.27h3.815v2.023h-5.196v1.365h8.748c.395.51.477 1.595.477 1.875v1.776c0 .378-.197.493-.658.493h-6.89v1.332H.115c.987 0 1.924-.099 1.924-1.579v-2.022c0-.658-.214-1.332-.576-1.875h2.566V7.293h-5.97V5.27h3.174c.658 0 .937-.18.937-.805V1.003C2.17.46 1.891 0 1.2 0Z" style="fill:#231f20;fill-opacity:1;fill-rule:nonzero;stroke:none" transform="matrix(9.10258 0 0 -9.10258 2731.815 263.72)"/><path d="M0 0h2.401v-1.332H0v-3.946c0-.543-.296-1.004-.986-1.004H-2.17V4.341H0Z" style="fill:#231f20;fill-opacity:1;fill-rule:nonzero;stroke:none" transform="matrix(9.10258 0 0 -9.10258 2620.621 171.44)"/><path d="M0 0c0-.477.164-.625.46-.625h7.367v-1.332H-.411c-.921 0-1.76.411-1.76 1.759v2.363H0Z" style="fill:#231f20;fill-opacity:1;fill-rule:nonzero;stroke:none" transform="matrix(9.10258 0 0 -9.10258 2552.067 244.961)"/><path d="M2040.39 55.785h-59.279v8.759h59.278z" style="fill:#231f20;fill-opacity:1;fill-rule:nonzero;stroke:none;stroke-width:6.82693" transform="matrix(1.33333 0 0 -1.33333 -130.099 232.201)"/><path d="M0 0v1.809h1.825V0" style="fill:#231f20;fill-opacity:1;fill-rule:nonzero;stroke:none" transform="matrix(9.10258 0 0 -9.10258 2542.597 146.142)"/><path d="M0 0v7.293h-1.233v-6.29C-1.233.46-1.48 0-2.17 0h-.927v14.298h1.864V8.625H0v5.673h2.039V1.003C2.039.46 1.793 0 1.102 0Z" style="fill:#231f20;fill-opacity:1;fill-rule:nonzero;stroke:none" transform="matrix(9.10258 0 0 -9.10258 2883.92 263.72)"/><path d="M0 0c-.968 0-1.753.704-1.753 1.573S-.968 3.147 0 3.147c.968 0 1.753-.705 1.753-1.574C1.753.704.968 0 0 0m0 4.865c-2.026 0-3.668-1.474-3.668-3.292 0-1.818 1.642-3.292 3.668-3.292 2.026 0 3.668 1.474 3.668 3.292 0 1.818-1.642 3.292-3.668 3.292" style="fill:#231f20;fill-opacity:1;fill-rule:nonzero;stroke:none" transform="matrix(9.10258 0 0 -9.10258 2550.905 205.294)"/><path d="M0 0v-1.315h-13.336V0" style="fill:#231f20;fill-opacity:1;fill-rule:nonzero;stroke:none" transform="matrix(9.10258 0 0 -9.10258 3164.758 233.92)"/><path d="M0 0v3.592h2.204V0" style="fill:#231f20;fill-opacity:1;fill-rule:nonzero;stroke:none" transform="matrix(9.10258 0 0 -9.10258 3094.032 233.92)"/><path d="M0 0c-.968 0-1.753.704-1.753 1.573S-.968 3.147 0 3.147c.968 0 1.753-.705 1.753-1.574C1.753.704.968 0 0 0m0 4.865c-2.026 0-3.668-1.474-3.668-3.292 0-1.818 1.642-3.292 3.668-3.292 2.026 0 3.668 1.474 3.668 3.292 0 1.818-1.642 3.292-3.668 3.292" style="fill:#231f20;fill-opacity:1;fill-rule:nonzero;stroke:none" transform="matrix(9.10258 0 0 -9.10258 2816.786 205.294)"/><path d="M0 0v1.792h-1.825V0H-4.892v-1.299h7.959V0Z" style="fill:#231f20;fill-opacity:1;fill-rule:nonzero;stroke:none" transform="matrix(9.10258 0 0 -9.10258 2825.094 145.992)"/><path d="M0 0v1.332h-2.401v1.601h-2.17v-8.385h1.183c.691 0 .987.461.987 1.004v1.56H0v1.332h-2.401V0Z" style="fill:#231f20;fill-opacity:1;fill-rule:nonzero;stroke:none" transform="matrix(9.10258 0 0 -9.10258 3041.369 158.773)"/><path d="M0 0c-1.181 0-2.139.67-2.139 1.495 0 .826.958 1.496 2.139 1.496 1.181 0 2.139-.67 2.139-1.496C2.139.67 1.181 0 0 0m0 4.787c-2.239 0-4.054-1.473-4.054-3.292 0-1.818 1.815-3.292 4.054-3.292 2.239 0 4.054 1.474 4.054 3.292 0 1.819-1.815 3.292-4.054 3.292" style="fill:#231f20;fill-opacity:1;fill-rule:nonzero;stroke:none" transform="matrix(9.10258 0 0 -9.10258 2976.03 249.663)"/><path d="M0 0c-.968 0-1.753.736-1.753 1.645 0 .908.785 1.644 1.753 1.644.968 0 1.753-.736 1.753-1.644C1.753.736.968 0 0 0m0 5.086c-2.026 0-3.668-1.541-3.668-3.441 0-1.901 1.642-3.442 3.668-3.442 2.026 0 3.668 1.541 3.668 3.442 0 1.9-1.642 3.441-3.668 3.441" style="fill:#231f20;fill-opacity:1;fill-rule:nonzero;stroke:none" transform="matrix(9.10258 0 0 -9.10258 2950.397 180.93)"/><path d="M0 0s-.131.327-.131.973v1.609H-2.45V.973C-2.45.327-2.581 0-2.581 0-3.1-1.584-4.986-2.856-7.136-3.295l.295-.724c.148-.509.477-.509.856-.444 1.511.263 3.706 1.215 4.694 2.643.989-1.428 3.184-2.38 4.695-2.643.379-.065.707-.065.856.444l.295.724C2.405-2.856.519-1.584 0 0" style="fill:#231f20;fill-opacity:1;fill-rule:nonzero;stroke:none" transform="matrix(9.10258 0 0 -9.10258 3115.81 164.7)"/><path d="M2391.608 69.821h68.03v-9.093h-68.03z" style="fill:#231f20;fill-opacity:1;fill-rule:nonzero;stroke:none;stroke-width:6.82693" transform="matrix(1.33333 0 0 -1.33333 -130.099 232.201)"/><path d="M0 0h2.401v-1.332H0v-6.296c0-.543-.263-1.003-.954-1.003h-1.217V5.667H0Z" style="fill:#231f20;fill-opacity:1;fill-rule:nonzero;stroke:none" transform="matrix(9.10258 0 0 -9.10258 3274.03 185.156)"/><path d="M0 0h2.171v-7.597c0-.543-.28-1.003-.97-1.003H0Z" style="fill:#231f20;fill-opacity:1;fill-rule:nonzero;stroke:none" transform="matrix(9.10258 0 0 -9.10258 3392.055 131.924)"/><path d="M2629.602 54.89h-58.152v8.76h58.152z" style="fill:#231f20;fill-opacity:1;fill-rule:nonzero;stroke:none;stroke-width:6.82693" transform="matrix(1.33333 0 0 -1.33333 -130.099 232.201)"/><path d="M0 0v1.809h1.825V0" style="fill:#231f20;fill-opacity:1;fill-rule:nonzero;stroke:none" transform="matrix(9.10258 0 0 -9.10258 3328.214 147.339)"/><path d="M0 0h1.529v1.299h-3.701v1.792h-1.825V1.299h-3.699V0h1.645z" style="fill:#231f20;fill-opacity:1;fill-rule:nonzero;stroke:none" transform="matrix(9.10258 0 0 -9.10258 3499.058 164.105)"/><path d="M0 0v2.275l-2.154-.017V0Z" style="fill:#231f20;fill-opacity:1;fill-rule:nonzero;stroke:none" transform="matrix(9.10258 0 0 -9.10258 3481.395 227.322)"/><path d="M2745.946-3.807h-79.2v9.093h79.2z" style="fill:#231f20;fill-opacity:1;fill-rule:nonzero;stroke:none;stroke-width:6.82693" transform="matrix(1.33333 0 0 -1.33333 -130.099 232.201)"/><path d="M0 0v-14.298h1.217c.691 0 .97.789.97 1.332V0Z" style="fill:#231f20;fill-opacity:1;fill-rule:nonzero;stroke:none" transform="matrix(9.10258 0 0 -9.10258 3520.912 133.57)"/><path d="M2643.89 32.212h-15.75v-8.978h15.75zM2643.89 49.839h-15.75v-8.984h15.75z" style="fill:#231f20;fill-opacity:1;fill-rule:nonzero;stroke:none;stroke-width:6.82693" transform="matrix(1.33333 0 0 -1.33333 -130.099 232.201)"/><path d="M0 0c-.905 0-1.639.659-1.639 1.471 0 .813.734 1.471 1.639 1.471s1.639-.658 1.639-1.471C1.639.659.905 0 0 0m0 4.55c-1.894 0-3.43-1.379-3.43-3.079 0-1.7 1.536-3.078 3.43-3.078 1.894 0 3.43 1.378 3.43 3.078S1.894 4.55 0 4.55" style="fill:#231f20;fill-opacity:1;fill-rule:nonzero;stroke:none" transform="matrix(9.10258 0 0 -9.10258 3336.699 194.725)"/><path d="M0 0c-.905 0-1.639.659-1.639 1.471 0 .813.734 1.471 1.639 1.471s1.639-.658 1.639-1.471C1.639.659.905 0 0 0m0 4.55c-1.894 0-3.43-1.379-3.43-3.079 0-1.7 1.536-3.078 3.43-3.078 1.894 0 3.43 1.378 3.43 3.078S1.894 4.55 0 4.55" style="fill:#231f20;fill-opacity:1;fill-rule:nonzero;stroke:none" transform="matrix(9.10258 0 0 -9.10258 3470.991 197.284)"/><path d="M0 0c0-.312-.164-.362-.312-.362H-4.95c-.246 0-.279.197-.279.395v1.052H0Zm-7.4-.749c0-.522.423-.945.945-.945H.378c1.201 0 1.776.461 1.776 1.579v3.798H0V2.417h-5.229v1.266H-7.4Z" style="fill:#231f20;fill-opacity:1;fill-rule:nonzero;stroke:none" transform="matrix(9.10258 0 0 -9.10258 3391.456 247.154)"/><path d="m0 0 .063-1.791c.089-5.74 3.42-6.184 3.42-6.184l-.477-.79c-.345-.559-.805-.427-1.085-.345-1.168.378-2.319 1.529-2.91 2.927C-1.581-7.581-2.732-8.732-3.9-9.11c-.279-.082-.74-.214-1.085.345l-.477.79s3.331.444 3.42 6.184L-1.979 0Z" style="fill:#231f20;fill-opacity:1;fill-rule:nonzero;stroke:none" transform="matrix(9.10258 0 0 -9.10258 3214.629 138.658)"/><path d="M0 0v1.678h.777v-3.68c0-.195-.088-.359-.335-.359H0v1.884h-1.567v-1.525c0-.195-.088-.359-.335-.359h-.442v4.039h.777V0Z" style="fill:#231f20;fill-opacity:1;fill-rule:nonzero;stroke:none" transform="matrix(9.10258 0 0 -9.10258 2683.035 305.842)"/><path d="M0 0c.247 0 .342-.177.412-.359l.566-1.519L1.767 0h.783L1.013-3.421c-.236-.53-.536-.713-.889-.713-.148 0-.418.041-.589.153v.471c.489-.176.701-.112.924.43l.153.371L-.51 0Z" style="fill:#231f20;fill-opacity:1;fill-rule:nonzero;stroke:none" transform="matrix(9.10258 0 0 -9.10258 2697.66 302.627)"/><path d="M0 0a.672.672 0 0 1-.536.241c-.424 0-.618-.43-.618-.966 0-.535.188-.965.618-.965A.59.59 0 0 1 0-1.384zm-.536-2.173c-.889-.047-1.39.571-1.39 1.448 0 .878.477 1.455 1.39 1.455A.97.97 0 0 0 0 .548v1.554h.766v-4.187H0v.154a.785.785 0 0 0-.536-.242" style="fill:#231f20;fill-opacity:1;fill-rule:nonzero;stroke:none" transform="matrix(9.10258 0 0 -9.10258 2738.018 308.362)"/><path d="M0 0v2.715h.777v-.271c.1.1.253.235.436.306.153.059.548.141.801-.077v-.488c-.342.147-.542.159-.772.094-.147-.041-.3-.136-.465-.265V.418C.777.194.654 0 .406 0Z" style="fill:#231f20;fill-opacity:1;fill-rule:nonzero;stroke:none" transform="matrix(9.10258 0 0 -9.10258 2748.787 327.338)"/><path d="M0 0c.483 0 .719.477.719.965 0 .489-.236.972-.713.972-.489 0-.724-.483-.724-.972C-.718.477-.483 0 0 0m1.49.965C1.49.13.913-.483 0-.483S-1.496.13-1.496.965c0 .837.583 1.455 1.496 1.455S1.49 1.802 1.49.965" style="fill:#231f20;fill-opacity:1;fill-rule:nonzero;stroke:none" transform="matrix(9.10258 0 0 -9.10258 2780.177 323.745)"/><path d="M0 0v2.715h.777v-.271c.1.1.253.235.436.306.153.059.548.141.801-.077v-.488c-.342.147-.542.159-.771.094-.148-.041-.301-.136-.466-.265V.418C.777.194.654 0 .406 0Z" style="fill:#231f20;fill-opacity:1;fill-rule:nonzero;stroke:none" transform="matrix(9.10258 0 0 -9.10258 2826.639 327.338)"/><path d="M0 0v-1.419c.106-.148.265-.23.495-.23.43 0 .647.43.647.966S.919.318.524.283C.3.265.165.171 0 0m-.777-3.333V.671H0V.524c.177.141.342.224.524.242.883.088 1.39-.572 1.39-1.449 0-.877-.507-1.449-1.419-1.449A.873.873 0 0 0 0-1.978v-.995c0-.195-.094-.36-.342-.36z" style="fill:#231f20;fill-opacity:1;fill-rule:nonzero;stroke:none" transform="matrix(9.10258 0 0 -9.10258 2879.052 308.74)"/><path d="M0 0v1.926c0 .312-.206.412-.442.412a1.295 1.295 0 0 1-.706-.224V.418c0-.224-.124-.418-.371-.418h-.395v4.187h.766v-1.59c.218.141.6.218.801.218.618 0 1.124-.301 1.124-.86V.418C.777.194.654 0 .406 0Z" style="fill:#231f20;fill-opacity:1;fill-rule:nonzero;stroke:none" transform="matrix(9.10258 0 0 -9.10258 2916.89 327.338)"/><path d="M0 0c.247 0 .342-.177.412-.359l.566-1.519L1.767 0h.783L1.013-3.421c-.236-.53-.536-.713-.889-.713-.148 0-.418.041-.589.153v.471c.489-.176.701-.112.924.43l.153.371L-.51 0Z" style="fill:#231f20;fill-opacity:1;fill-rule:nonzero;stroke:none" transform="matrix(9.10258 0 0 -9.10258 2929.911 302.627)"/><path d="M0 0c.145.164.339.245.606.246.135 0 .255-.007.36-.021.084-.011.154-.029.222-.047v-1.342a.814.814 0 0 0-.233-.402c-.108-.098-.26-.15-.468-.151-.273.002-.442.081-.543.23-.106.158-.164.392-.164.705 0 .364.078.621.22.782m1.799.663a3.092 3.092 0 0 1-.482.118C1.138.811.926.826.682.826.164.826-.241.688-.515.402-.789.117-.921-.286-.921-.793c0-.511.099-.892.315-1.14.215-.246.548-.364.977-.363.215 0 .402.03.559.093a.738.738 0 0 1 .263.175v-.077c0-.139-.012-.255-.036-.35a.422.422 0 0 0-.121-.216.565.565 0 0 0-.246-.127 1.685 1.685 0 0 0-1.01.074 2.53 2.53 0 0 0-.16.067l-.082.038-.16-.604.058-.027c.117-.055.255-.097.413-.127a3.47 3.47 0 0 1 .618-.045c.439 0 .783.094 1.024.295.242.202.36.51.359.901V.645z" style="fill:#231f20;fill-opacity:1;fill-rule:nonzero;stroke:none" transform="matrix(9.10258 0 0 -9.10258 2804.582 308.44)"/><path d="M0 0v4.04h.777V2.367l1.425 1.667.884.006L1.56 2.314 3.174 0h-.86L1.089 1.778l-.312-.353V.359C.777.165.683 0 .436 0Z" style="fill:#231f20;fill-opacity:1;fill-rule:nonzero;stroke:none" transform="matrix(9.10258 0 0 -9.10258 2518.055 327.338)"/><path d="M0 0c.483 0 .719.477.719.965 0 .489-.236.972-.713.972-.489 0-.724-.483-.724-.972C-.718.477-.483 0 0 0m1.49.965C1.49.13.913-.483 0-.483S-1.496.13-1.496.965c0 .837.583 1.455 1.496 1.455S1.49 1.802 1.49.965" style="fill:#231f20;fill-opacity:1;fill-rule:nonzero;stroke:none" transform="matrix(9.10258 0 0 -9.10258 2559.377 323.745)"/><path d="M0 0v2.715h.777v-.271c.101.1.254.235.436.306.153.059.548.141.801-.077v-.488c-.342.147-.542.159-.771.094-.148-.041-.301-.136-.466-.265V.418C.777.194.654 0 .406 0Z" style="fill:#231f20;fill-opacity:1;fill-rule:nonzero;stroke:none" transform="matrix(9.10258 0 0 -9.10258 2575.826 327.338)"/><path d="M0 0h1.213C1.154.406.948.695.612.695.271.695.065.4 0 0m1.731-.925v-.477a1.847 1.847 0 0 0-.989-.318C-.3-1.72-.795-1.031-.795-.277c0 .754.495 1.461 1.407 1.461.913 0 1.378-.707 1.378-1.461a2.68 2.68 0 0 0-.011-.2H-.006c.047-.471.277-.76.748-.76.294 0 .595.112.989.312" style="fill:#231f20;fill-opacity:1;fill-rule:nonzero;stroke:none" transform="matrix(9.10258 0 0 -9.10258 2601.98 312.489)"/><path d="M0 0v.636A1.995 1.995 0 0 0-.583.448C-.842.401-.995.253-1.001.088c-.006-.3.194-.4.4-.37.248.035.471.147.601.282m0-.424C-.212-.665-.512-.76-.842-.777c-.406-.024-.948.224-.948.795 0 .659.665.807 1.207.889.259.041.471.094.583.194v.024c0 .347-.065.53-.454.53-.306 0-.724-.189-1.006-.412v.524c.217.182.647.359 1.006.359.784 0 1.196-.336 1.196-.971V-.689H0Z" style="fill:#231f20;fill-opacity:1;fill-rule:nonzero;stroke:none" transform="matrix(9.10258 0 0 -9.10258 2637.89 321.069)"/><path d="M0 0v.646A2.045 2.045 0 0 0-.593.455C-.856.407-1.012.258-1.018.09c-.006-.305.198-.407.407-.377.252.035.479.15.611.287m0-.431C-.216-.676-.521-.772-.856-.79c-.413-.024-.964.228-.964.808 0 .671.677.82 1.227.904.264.042.479.096.593.198v.023c0 .354-.066.539-.461.539-.311 0-.736-.192-1.023-.419v.533c.221.186.658.365 1.023.365.796 0 1.215-.341 1.215-.987V-.7H0Z" style="fill:#231f20;fill-opacity:1;fill-rule:nonzero;stroke:none" transform="matrix(9.10258 0 0 -9.10258 2979.881 320.942)"/><path d="M0 0v1.957c0 .317-.209.431-.449.419-.269-.012-.455-.095-.676-.263V.425c0-.227-.126-.425-.377-.425h-.413v2.759h.79V2.58c.287.197.574.263.772.281.628.06 1.143-.305 1.143-.874V.425C.79.198.664 0 .413 0Z" style="fill:#231f20;fill-opacity:1;fill-rule:nonzero;stroke:none" transform="matrix(9.10258 0 0 -9.10258 3008.152 327.315)"/><path d="M0 0a.684.684 0 0 1-.545.245c-.431 0-.628-.437-.628-.981 0-.545.191-.982.628-.982A.6.6 0 0 1 0-1.407zm-.545-2.209c-.903-.048-1.412.581-1.412 1.473 0 .891.485 1.478 1.412 1.478A.984.984 0 0 0 0 .557v1.58h.778v-4.256H0v.156a.8.8 0 0 0-.545-.246" style="fill:#231f20;fill-opacity:1;fill-rule:nonzero;stroke:none" transform="matrix(9.10258 0 0 -9.10258 3035.715 308.027)"/><path d="M0 0c.551 0 .772.359.772.856 0 .502-.251.802-.772.802h-.527V0Zm-1.317-1.969v4.106H0c1.065 0 1.592-.503 1.592-1.275 0-.515-.317-.928-.676-1.066.227-.131.377-.347.479-.694l.341-1.071h-.79l-.306.933C.574-.82.455-.473.197-.473h-.724v-1.131c0-.198-.09-.365-.341-.365z" style="fill:#231f20;fill-opacity:1;fill-rule:nonzero;stroke:none" transform="matrix(9.10258 0 0 -9.10258 3073.857 309.39)"/><path d="M0 0h1.233c-.06.413-.269.706-.61.706C.275.706.066.407 0 0m1.76-.94v-.485a1.886 1.886 0 0 0-1.006-.323c-1.059 0-1.562.7-1.562 1.466 0 .767.503 1.485 1.431 1.485.927 0 1.4-.718 1.4-1.485 0-.047-.006-.155-.012-.203H-.006c.048-.479.281-.772.76-.772.3 0 .605.114 1.006.317" style="fill:#231f20;fill-opacity:1;fill-rule:nonzero;stroke:none" transform="matrix(9.10258 0 0 -9.10258 3098.423 312.221)"/><path d="M0 0v-.592c-.281.239-.551.424-.916.424-.353 0-.431-.095-.431-.263 0-.209.264-.311.563-.455.473-.227.982-.425.982-.952 0-.496-.425-.796-1.221-.796-.282 0-.821.12-1.114.443v.605c.317-.383.73-.563 1.119-.563.234 0 .407.12.407.3 0 .317-.502.52-.73.616-.515.221-.796.437-.796.82 0 .569.587.73 1.179.73C-.575.317-.263.215 0 0" style="fill:#231f20;fill-opacity:1;fill-rule:nonzero;stroke:none" transform="matrix(9.10258 0 0 -9.10258 3138.245 304.16)"/><path d="M0 0h1.233c-.06.413-.269.706-.61.706C.275.706.066.407 0 0m1.76-.94v-.485a1.886 1.886 0 0 0-1.006-.323c-1.059 0-1.562.7-1.562 1.466 0 .767.503 1.485 1.431 1.485.927 0 1.4-.718 1.4-1.485 0-.047-.006-.155-.012-.203H-.006c.048-.479.281-.772.76-.772.3 0 .605.114 1.006.317" style="fill:#231f20;fill-opacity:1;fill-rule:nonzero;stroke:none" transform="matrix(9.10258 0 0 -9.10258 3149.353 312.221)"/><path d="M0 0v.646A2.045 2.045 0 0 0-.593.455C-.856.407-1.011.258-1.018.09c-.005-.305.198-.407.407-.377.252.035.479.15.611.287m0-.431C-.215-.676-.521-.772-.856-.79c-.413-.024-.964.228-.964.808 0 .671.677.82 1.227.904.264.042.479.096.593.198v.023c0 .354-.066.539-.461.539-.311 0-.736-.192-1.023-.419v.533c.221.186.658.365 1.023.365.796 0 1.215-.341 1.215-.987V-.7H0Z" style="fill:#231f20;fill-opacity:1;fill-rule:nonzero;stroke:none" transform="matrix(9.10258 0 0 -9.10258 3185.855 320.942)"/><path d="M0 0v2.759h.79v-.275c.102.102.257.239.443.311.155.06.557.144.814-.078v-.496c-.347.149-.551.161-.784.095a1.417 1.417 0 0 1-.473-.269V.425C.79.198.664 0 .413 0Z" style="fill:#231f20;fill-opacity:1;fill-rule:nonzero;stroke:none" transform="matrix(9.10258 0 0 -9.10258 3196.583 327.315)"/><path d="M0 0a1.934 1.934 0 0 0-.856-.222c-.934 0-1.55.533-1.55 1.467s.61 1.484 1.55 1.484c.234 0 .592-.06.832-.185v-.599c-.197.192-.527.288-.826.288-.479 0-.772-.384-.772-.976 0-.611.275-.981.766-.981.299 0 .64.113.856.256z" style="fill:#231f20;fill-opacity:1;fill-rule:nonzero;stroke:none" transform="matrix(9.10258 0 0 -9.10258 3236.555 326.116)"/><path d="M0 0v4.256h.778V2.64c.222.143.611.221.814.221.629 0 1.143-.305 1.143-.874V.425C2.735.198 2.61 0 2.359 0h-.414v1.957c0 .317-.209.419-.449.419a1.32 1.32 0 0 1-.718-.227V.425C.778.198.652 0 .401 0Z" style="fill:#231f20;fill-opacity:1;fill-rule:nonzero;stroke:none" transform="matrix(9.10258 0 0 -9.10258 3239.599 327.315)"/><path d="M0 0h.962L.483 1.592Zm.088 2.526h.545c.239 0 .275-.078.341-.293L2.225-1.58h-.784l-.33 1.095H-.152l-.215-.73c-.06-.186-.156-.365-.407-.365h-.499z" style="fill:#231f20;fill-opacity:1;fill-rule:nonzero;stroke:none" transform="matrix(9.10258 0 0 -9.10258 3293.428 312.933)"/><path d="M0 0v-.592c-.281.239-.551.424-.916.424-.353 0-.431-.095-.431-.263 0-.209.264-.311.563-.455.473-.227.982-.425.982-.952 0-.496-.425-.796-1.221-.796-.282 0-.82.12-1.114.443v.605c.317-.383.731-.563 1.119-.563.234 0 .408.12.408.3 0 .317-.503.52-.731.616-.514.221-.796.437-.796.82 0 .569.587.73 1.179.73C-.575.317-.263.215 0 0" style="fill:#231f20;fill-opacity:1;fill-rule:nonzero;stroke:none" transform="matrix(9.10258 0 0 -9.10258 3334.973 304.16)"/><path d="M0 0v-.592c-.281.239-.551.424-.916.424-.353 0-.431-.095-.431-.263 0-.209.264-.311.563-.455.473-.227.981-.425.981-.952 0-.496-.424-.796-1.22-.796-.282 0-.821.12-1.114.443v.605c.317-.383.73-.563 1.119-.563.234 0 .407.12.407.3 0 .317-.502.52-.73.616-.515.221-.796.437-.796.82 0 .569.587.73 1.179.73C-.575.317-.263.215 0 0" style="fill:#231f20;fill-opacity:1;fill-rule:nonzero;stroke:none" transform="matrix(9.10258 0 0 -9.10258 3358.179 304.16)"/><path d="M0 0c.491 0 .73.485.73.981 0 .497-.239.988-.724.988-.497 0-.736-.491-.736-.988C-.73.485-.491 0 0 0m1.514.981C1.514.132.928-.491 0-.491S-1.52.132-1.52.981c0 .851.592 1.479 1.52 1.479S1.514 1.832 1.514.981" style="fill:#231f20;fill-opacity:1;fill-rule:nonzero;stroke:none" transform="matrix(9.10258 0 0 -9.10258 3375.773 323.663)"/><path d="M0 0a1.937 1.937 0 0 0-.856-.222c-.934 0-1.55.533-1.55 1.467s.61 1.484 1.55 1.484c.233 0 .592-.06.832-.185v-.599c-.197.192-.527.288-.826.288-.479 0-.772-.384-.772-.976 0-.611.275-.981.766-.981.299 0 .64.113.856.256z" style="fill:#231f20;fill-opacity:1;fill-rule:nonzero;stroke:none" transform="matrix(9.10258 0 0 -9.10258 3413.416 326.116)"/><path d="M0 0c.257 0 .467-.21.467-.467A.468.468 0 0 0 0-.934a.468.468 0 0 0-.467.467C-.467-.21-.257 0 0 0m-.383-4.256v2.76h.79V-3.83c0-.228-.126-.426-.377-.426z" style="fill:#231f20;fill-opacity:1;fill-rule:nonzero;stroke:none" transform="matrix(9.10258 0 0 -9.10258 3420.493 288.577)"/><path d="M0 0v.646A2.045 2.045 0 0 0-.593.455C-.856.407-1.011.258-1.018.09c-.005-.305.198-.407.407-.377.252.035.479.15.611.287m0-.431C-.216-.676-.521-.772-.856-.79c-.413-.024-.964.228-.964.808 0 .671.677.82 1.227.904.264.042.479.096.593.198v.023c0 .354-.066.539-.461.539-.311 0-.736-.192-1.023-.419v.533c.221.186.658.365 1.023.365.796 0 1.215-.341 1.215-.987V-.7H0Z" style="fill:#231f20;fill-opacity:1;fill-rule:nonzero;stroke:none" transform="matrix(9.10258 0 0 -9.10258 3443.864 320.942)"/><path d="M0 0h-.473v.485H0v1.239h.79V.485h.665V0H.79v-1.335c0-.455.054-.55.67-.395v-.479a1.158 1.158 0 0 0-.574-.155C.371-2.364 0-2.316 0-1.341Z" style="fill:#231f20;fill-opacity:1;fill-rule:nonzero;stroke:none" transform="matrix(9.10258 0 0 -9.10258 3457.917 306.612)"/><path d="M0 0c.257 0 .467-.21.467-.467A.468.468 0 0 0 0-.934a.468.468 0 0 0-.467.467C-.467-.21-.257 0 0 0m-.383-4.256v2.76h.79V-3.83c0-.228-.126-.426-.377-.426z" style="fill:#231f20;fill-opacity:1;fill-rule:nonzero;stroke:none" transform="matrix(9.10258 0 0 -9.10258 3478.836 288.577)"/><path d="M0 0c.491 0 .73.485.73.981 0 .497-.239.988-.724.988-.497 0-.736-.491-.736-.988C-.73.485-.491 0 0 0m1.514.981C1.514.132.928-.491 0-.491S-1.52.132-1.52.981c0 .851.592 1.479 1.52 1.479S1.514 1.832 1.514.981" style="fill:#231f20;fill-opacity:1;fill-rule:nonzero;stroke:none" transform="matrix(9.10258 0 0 -9.10258 3499.917 323.663)"/><path d="M0 0v1.957c0 .317-.209.431-.449.419-.269-.012-.455-.095-.676-.263V.425c0-.227-.126-.425-.377-.425h-.413v2.759h.79V2.58c.287.197.574.263.772.281.628.06 1.143-.305 1.143-.874V.425C.79.198.664 0 .413 0Z" style="fill:#231f20;fill-opacity:1;fill-rule:nonzero;stroke:none" transform="matrix(9.10258 0 0 -9.10258 3534.181 327.315)"/><path d="M0 0v.636A1.995 1.995 0 0 0-.583.448C-.842.401-.995.253-1.001.088c-.006-.3.194-.4.4-.37.248.035.471.147.601.282m0-.424C-.212-.665-.512-.76-.842-.777c-.406-.024-.948.224-.948.795 0 .659.665.807 1.207.889.259.041.471.094.583.194v.024c0 .347-.065.53-.453.53-.307 0-.725-.189-1.007-.412v.524c.217.182.647.359 1.007.359.783 0 1.195-.336 1.195-.971V-.689H0Z" style="fill:#231f20;fill-opacity:1;fill-rule:nonzero;stroke:none" transform="matrix(9.10258 0 0 -9.10258 2861.424 321.069)"/></svg>