<svg xmlns="http://www.w3.org/2000/svg" xmlns:xlink="http://www.w3.org/1999/xlink" width="759.19275pt" height="150pt" viewBox="0 0 759.19276 150"><defs><linearGradient id="a"><stop offset="0" style="stop-color:#0055a7;stop-opacity:1"/><stop offset="0.21361077" style="stop-color:#0b82c6;stop-opacity:1"/><stop offset="0.36409268" style="stop-color:#51afe2;stop-opacity:1"/><stop offset="0.50969672" style="stop-color:#b8bf9b;stop-opacity:1"/><stop offset="0.58260483" style="stop-color:#e7b53e;stop-opacity:1"/><stop offset="0.63588381" style="stop-color:#eeb12d;stop-opacity:.99607843"/><stop offset="0.74760234" style="stop-color:#ee9828;stop-opacity:1"/><stop offset="1" style="stop-color:#ea5226;stop-opacity:1"/></linearGradient><linearGradient xlink:href="#a" id="c" x1="141.01088" x2="142.25877" y1="11.230983" y2="269.54303" gradientUnits="userSpaceOnUse"/><clipPath id="b"><path d="M188.656 642.852a2.197 2.197 0 0 0-2.196 2.197v6.219h-6.219a2.196 2.196 0 0 0-2.197 2.196v4.497h9.881c.163-.165.341-.327.531-.486 1.044-.876 2.257-1.255 3.601-1.129 1.403.132 2.811.794 4.059 1.615l.116.077-.61.627-3.259 3.348.25.158c.583.371 1.196.561 1.819.561 2.067 0 3.672-2.04 4.184-2.774l.596.614c.474.484.948.965 1.418 1.451.56.58 1.124 1.155 1.688 1.729.48.486.942.992 1.428 1.47.196.192.397.375.579.58.211.235.43.497.456.825.025.322-.196.667-.452.851-.124.088-.355.129-.501.145a1.06 1.06 0 0 1-.502-.066c-.271-.103-.499-.293-.704-.494-.28-.279-.567-.551-.845-.829-.368-.366-.74-.725-1.108-1.089-.327-.326-.658-.647-.988-.973-.158-.158-.32-.314-.48-.474l-.011-.011-.337.343c.131.128.259.259.391.387.306.295.604.599.907.897.346.339.689.684 1.036 1.025.257.253.512.508.768.763.384.379.863.903.856 1.477a.795.795 0 0 1-.342.66c-.273.193-.605.302-.938.221-.333-.081-.627-.319-.888-.532-.181-.149-.35-.316-.523-.475-.296-.273-3.069-2.871-3.069-2.871l-.326.351 3.697 3.46c.191.177.381.397.437.659.111.528-.215 1.115-.696 1.332a1.459 1.459 0 0 1-.413.119 2.894 2.894 0 0 1-.412.01 1.813 1.813 0 0 0-.463-.789 1.796 1.796 0 0 0-1.255-.531l-.246.02a1.744 1.744 0 0 0-.488-1.607 1.799 1.799 0 0 0-1.255-.532c-.093 0-.182.009-.273.025.028-.133.042-.271.036-.412a1.777 1.777 0 0 0-.531-1.178 1.795 1.795 0 0 0-1.253-.531c-.103 0-.202.01-.298.027.049-.263.03-.541-.051-.806a1.876 1.876 0 0 0-.45-.744 1.806 1.806 0 0 0-1.255-.531c-.417 0-.804.156-1.085.44l-1.718 1.734c-.176-.167-1.057-1.194-1.173-1.358h-9.536v4.586c0 1.213.984 2.197 2.197 2.197h6.219v6.22c0 1.212.984 2.196 2.196 2.196h15.864a2.196 2.196 0 0 0 2.196-2.196v-6.22h6.22a2.197 2.197 0 0 0 2.196-2.197l-.014-4.127c.007-.135.014-.271.014-.408v-.051h-9.668c-.093.152-.511.758-.624.91 0 0-5.027-5.295-6.163-6.318l-.142-.142-.007.011-.13.214-.024.036a2.339 2.339 0 0 1-.111.17c-.418.605-1.952 2.63-3.831 2.63-.442 0-.88-.112-1.305-.335l3.206-3.294.3-.307c.003-.004.065-.071.175-.174l.187-.17.01-.01c.666-.579 2.161-1.664 4.05-1.664 1.356 0 2.68.559 3.94 1.659v.005h10.137v-.038c0-.141-.007-.282-.016-.421l.016-4.038a2.196 2.196 0 0 0-2.196-2.196h-6.22v-6.219a2.196 2.196 0 0 0-2.196-2.197zm.641 25.117a1.3 1.3 0 0 1-.391-.859l.018-.257.076-.244.121-.207 1.688-1.697c.194-.194.459-.3.747-.3.307 0 .613.121.853.335l.061.055c.122.121.214.259.279.404.128.288.178.704.002.986-.09.143-1.834 1.933-1.99 2.026l-.021.013a1.075 1.075 0 0 1-.53.136c-.332 0-.666-.142-.913-.391m2.052 2.054a1.316 1.316 0 0 1-.391-.861c-.009-.22.044-.428.149-.604l.022-.038.128-.158.027-.026.171-.172 1.408-1.406.193-.15c.162-.097.352-.151.554-.151.332 0 .665.144.913.391.238.237.376.543.391.862.011.236-.05.457-.171.641l-1.926 1.913a1.083 1.083 0 0 1-.554.149c-.333 0-.665-.141-.914-.39m2.023 2.097c-.429-.43-.508-1.064-.218-1.504l1.925-1.911c.163-.097.352-.151.552-.151.332 0 .668.144.915.391.426.427.507 1.058.224 1.498l-1.962 1.936a1.084 1.084 0 0 1-.522.131c-.332 0-.665-.142-.914-.39m1.988 2.118c-.425-.426-.506-1.058-.222-1.497l1.96-1.936c.157-.086.335-.132.522-.132.333 0 .666.143.915.391.197.197.325.443.371.703l.017.158c.017.309-.09.592-.297.799l-1.603 1.604a1.048 1.048 0 0 1-.748.301c-.332 0-.664-.142-.915-.391"/></clipPath></defs><g fill="#fff"><path d="M153.264 85.924v-.029c-7.165-6.255-14.695-9.434-22.4-9.434-10.743 0-19.25 6.17-23.026 9.463l-.069.057-1.063.966c-.626.586-.973.967-.995.99l-1.7 1.746-18.233 18.727c2.423 1.273 4.902 1.91 7.41 1.91 10.686 0 19.426-11.516 21.792-14.956.398-.58.626-.944.637-.967l.131-.205.745-1.217.04-.062.802.807c6.454 5.818 35.048 35.924 35.048 35.924.648-.858 3.02-4.305 3.548-5.175h54.98V85.924h-57.613z" style="stroke-width:5.68685" transform="matrix(.71121 0 0 .71121 0 0)"/><path d="m60.892 132.196 9.776-9.855c1.61-1.621 3.81-2.508 6.176-2.508 2.61 0 5.209 1.109 7.13 3.02.496.506.94 1.052 1.315 1.62.551.825.96 1.7 1.245 2.61a9.611 9.611 0 0 1 .296 4.584 9.714 9.714 0 0 1 1.689-.153c2.61 0 5.203 1.097 7.125 3.02 1.837 1.825 2.906 4.208 3.02 6.698a9.154 9.154 0 0 1-.205 2.343 8.885 8.885 0 0 1 1.564-.136c2.61 0 5.21 1.097 7.126 3.02 2.542 2.542 3.48 6.039 2.786 9.138l1.394-.113c2.61 0 5.209 1.097 7.131 3.02a10.334 10.334 0 0 1 2.644 4.486c.836.04 1.615.017 2.332-.057.79-.08 1.632-.358 2.349-.682 2.746-1.234 4.595-4.572 3.958-7.575-.313-1.49-1.4-2.735-2.485-3.742l-21.025-19.676 1.866-1.997s15.763 14.775 17.447 16.327c.984.91 1.939 1.854 2.98 2.702 1.478 1.211 3.145 2.564 5.038 3.025 1.894.46 3.782-.16 5.34-1.257 1.274-.91 1.905-2.19 1.934-3.753.045-3.264-2.679-6.244-4.857-8.4-1.461-1.444-2.906-2.9-4.367-4.339-1.974-1.939-3.919-3.895-5.898-5.829-1.723-1.694-3.417-3.423-5.158-5.106-.75-.728-1.478-1.468-2.212-2.196l1.905-1.95.069.068c.904.904 1.825 1.792 2.735 2.69 1.865 1.848 3.748 3.68 5.613 5.533 2.087 2.07 4.208 4.118 6.295 6.193 1.592 1.581 3.219 3.134 4.811 4.715 1.16 1.143 2.468 2.223 4.004 2.81.91.346 1.882.488 2.855.374.836-.09 2.144-.324 2.843-.819 1.462-1.052 2.713-3.008 2.57-4.845-.136-1.865-1.393-3.355-2.587-4.691-1.03-1.166-2.184-2.213-3.293-3.299-2.77-2.718-5.397-5.59-8.12-8.36-3.214-3.264-6.421-6.534-9.606-9.832-2.672-2.764-5.368-5.5-8.052-8.252-1.132-1.16-2.27-2.331-3.401-3.491-2.9 4.174-12.039 15.775-23.8 15.775-3.537 0-7.023-1.08-10.338-3.19l-1.422-.899 18.54-19.045 3.468-3.56-.66-.438c-7.102-4.669-15.098-8.434-23.077-9.184-7.654-.717-14.547 1.439-20.484 6.42a44.7 44.7 0 0 0-3.02 2.764H.009v38.551h54.219c.66.939 5.67 6.773 6.665 7.723" style="stroke-width:5.68685" transform="matrix(.71121 0 0 .71121 0 0)"/><path d="M83.64 132.69c.995-1.597.716-3.969-.018-5.607a7.693 7.693 0 0 0-1.58-2.297l-.348-.313c-1.37-1.211-3.11-1.905-4.85-1.905-1.638 0-3.15.603-4.248 1.706l-9.589 9.65-.705 1.178-.426 1.388-.103 1.461c.08 1.803.87 3.543 2.218 4.885 1.41 1.416 3.304 2.23 5.192 2.23a6.084 6.084 0 0 0 3.014-.78l.131-.074c.876-.523 10.8-10.702 11.311-11.521M116.528 160.436c-1.41-1.41-3.304-2.223-5.198-2.223a6.12 6.12 0 0 0-2.969.75l-11.146 11.01c-1.62 2.497-1.166 6.09 1.263 8.519 1.416 1.41 3.31 2.218 5.197 2.218 1.638 0 3.15-.609 4.248-1.706l9.122-9.128c1.177-1.171 1.78-2.786 1.7-4.549l-.108-.893a7.523 7.523 0 0 0-2.11-3.998M105.22 148.39c-1.41-1.41-3.31-2.229-5.197-2.229a6.058 6.058 0 0 0-3.145.865L85.93 157.887c-1.655 2.503-1.206 6.114 1.24 8.553 1.41 1.416 3.303 2.218 5.191 2.218a6.16 6.16 0 0 0 2.969-.739l11.158-11.015c1.62-2.497 1.16-6.085-1.269-8.514M95.935 141.36c-.085-1.809-.87-3.549-2.218-4.891-1.416-1.41-3.31-2.23-5.198-2.23a6.138 6.138 0 0 0-3.139.854l-1.109.859-8.001 7.995-.973.978-.148.148-.727.899-.137.216c-.597.995-.893 2.178-.836 3.435.085 1.808.87 3.548 2.218 4.89 1.416 1.422 3.31 2.224 5.198 2.224a6.154 6.154 0 0 0 3.145-.847l10.952-10.874c.689-1.052 1.035-2.314.973-3.656" style="stroke-width:5.68685" transform="matrix(.71121 0 0 .71121 0 0)"/></g><g clip-path="url(#b)" transform="matrix(4.04454 0 0 4.04454 -720.107 -2600.043)"><path d="M-96.421-65.112V18.298l-7.487 76.215v45.495h3.761c1.431 5.477 3.311 8.03 5.717 8.181 2.572.163 4.249.375 5.076.7-.827.93-2.505 1.924-5.076 3.124-1.089.508-2.075 1.563-2.967 3.16h-6.511v85.303l36.188 44.37v45.496l247.641-9.983H323.99l57.403-16.461v-18.955l-36.189-46.269V147.685h-6.511c-.892-1.598-1.878-2.652-2.967-3.16a41.664 41.664 0 0 1-2.016-1.012 75.75 75.75 0 0 1 2.016-.85c2.287-.922 4.123-4.201 5.547-10.144h3.931l7.488-133.715V-72.6L151.22-75.095z" style="fill:url(#c);fill-opacity:1;stroke-width:7.58247" transform="matrix(.13188 0 0 .13188 178.044 642.852)"/></g><path d="M328.63 71.723h-9.753v24.22h-8.923V43.29h8.923v20.495h9.752zm-8.428 44.392h-45.956v-23.56h9.088v15.78h36.868zm-30.334-47.537c0-2.69-.916-4.998-2.73-6.898-1.82-1.905-3.998-2.855-6.528-2.855-2.588 0-4.811.95-6.654 2.855-1.848 1.9-2.775 4.208-2.775 6.898 0 2.707.887 5.005 2.65 6.904 1.763 1.905 3.941 2.855 6.528 2.855 2.537 0 4.755-.95 6.654-2.855 1.905-1.9 2.855-4.197 2.855-6.904m-13.722-17.686V43.29h9.337v7.603h16.868v7.524h-7.445a19.232 19.232 0 0 1 2.81 4.748 14.08 14.08 0 0 1 1.075 5.414c0 2.485-.478 4.8-1.445 6.95-.967 2.15-2.246 4.02-3.844 5.618-1.655 1.598-3.583 2.85-5.784 3.76-2.206.915-4.578 1.37-7.108 1.37-2.588 0-4.988-.455-7.194-1.37-2.207-.91-4.135-2.162-5.79-3.76a17.374 17.374 0 0 1-3.878-5.618c-.938-2.15-1.404-4.465-1.404-6.95 0-1.87.324-3.673.989-5.414a15.458 15.458 0 0 1 2.889-4.748h-7.683v-7.524zM391.201 45.85c0 4.463-.244 8.899-.739 13.306-.5 4.413-1.245 8.764-2.23 13.063h12.808v7.683h-29.345v11.323h19.262v26.54h-9.173V98.913h-38.352v-7.688h18.84V79.902h-29.839v-7.683h46.542c.66-2.98 1.245-6.022 1.774-9.133.523-3.11.785-6.239.785-9.383H343.01v-7.854zM470.308 117.678H461.3v-74.39h9.008zM442.21 65.609c0-2.974-1.035-5.556-3.1-7.728-2.07-2.178-4.674-3.27-7.814-3.27-3.201 0-5.8 1.092-7.813 3.27-2.013 2.172-3.02 4.754-3.02 7.728 0 3.031 1.024 5.59 3.06 7.689 2.041 2.093 4.634 3.139 7.773 3.139 3.14 0 5.744-1.035 7.814-3.105 2.065-2.064 3.1-4.64 3.1-7.723m8.837 0c0 2.588-.512 5.016-1.524 7.268a19.144 19.144 0 0 1-4.18 5.954c-1.763 1.655-3.839 2.969-6.233 3.93-2.4.96-5.004 1.439-7.814 1.439-2.866 0-5.499-.478-7.893-1.44-2.4-.96-4.481-2.274-6.244-3.929a18.077 18.077 0 0 1-4.089-5.954c-.961-2.252-1.444-4.68-1.444-7.268 0-2.53.483-4.959 1.444-7.273a17.911 17.911 0 0 1 4.089-6.04c1.763-1.706 3.844-3.065 6.244-4.089 2.394-1.017 5.027-1.524 7.893-1.524 2.81 0 5.414.507 7.814 1.524 2.394 1.024 4.47 2.383 6.233 4.09 1.769 1.711 3.156 3.719 4.18 6.039a17.98 17.98 0 0 1 1.524 7.273m6.449 33.803c-1.928.335-4.038.654-6.318.95-2.292.307-4.652.568-7.07.784-2.427.222-4.85.404-7.278.54-2.423.137-4.737.211-6.938.211l-21.741.33v-7.854l22.48-.25c2.15 0 4.43-.051 6.824-.165 2.4-.108 4.783-.278 7.149-.5 2.371-.216 4.669-.45 6.898-.7a79.872 79.872 0 0 0 5.994-.864zM523.213 87.43H510.81v11.572h12.403zm17.93 0h-9.007v11.572h17.686v7.763h-68.6v-7.763h20.665V87.43h-9.258V63.374h37.522v-8.678h-37.522v-7.853h46.78v24.305h-37.522v8.263h39.257zM604.546 59.246h-28.434v7.938h28.434zm11.897 56.868H567.02V94.203h9.093v14.137h40.331zM613.8 74.617h-46.78V44.37h9.093v7.433h28.434v-7.433h9.253zM624.217 88.5h-27.445v12.238h-9.423V88.499h-31.738v-7.683h68.606zM693.565 86.274h-8.599V66.597h-7.603v16.037h-8.434V44.612h8.434v13.887h7.603V43.287h8.599zm-12.727 16.366c0-1.274-.296-2.496-.876-3.685a10.489 10.489 0 0 0-2.27-3.093c-.937-.882-2.052-1.587-3.349-2.11a10.565 10.565 0 0 0-4.003-.78c-1.439 0-2.798.257-4.095.78-1.296.523-2.41 1.228-3.35 2.11a9.984 9.984 0 0 0-2.229 3.093 8.645 8.645 0 0 0-.83 3.685c0 1.32.279 2.57.83 3.76a10.009 10.009 0 0 0 2.23 3.099c.938.875 2.053 1.57 3.35 2.064 1.296.495 2.655.745 4.094.745 1.376 0 2.712-.25 4.003-.745a10.165 10.165 0 0 0 3.35-2.064 10.514 10.514 0 0 0 2.269-3.1c.58-1.188.876-2.44.876-3.759m9.258 0c0 2.366-.529 4.601-1.575 6.694a17.769 17.769 0 0 1-4.214 5.46c-1.82 1.597-3.924 2.831-6.324 3.713-2.4.881-4.942 1.325-7.643 1.325-2.758 0-5.334-.444-7.729-1.325-2.4-.882-4.475-2.116-6.244-3.714-1.814-1.547-3.236-3.367-4.254-5.46a15.046 15.046 0 0 1-1.535-6.693c0-2.314.512-4.52 1.535-6.614 1.018-2.092 2.44-3.912 4.254-5.453 1.769-1.598 3.845-2.855 6.244-3.765 2.395-.904 4.97-1.365 7.729-1.365 2.701 0 5.243.46 7.643 1.365 2.4.91 4.504 2.167 6.324 3.765a17.679 17.679 0 0 1 4.214 5.453 14.61 14.61 0 0 1 1.575 6.614m-26.95-48.855h-10.913v.335c0 4.788 1.257 9.19 3.765 13.182 2.502 3.992 5.823 7.234 9.957 9.708l-5.374 5.624c-2.644-1.598-5.152-3.634-7.518-6.12-2.371-2.473-4.055-4.958-5.044-7.432-.938 2.753-2.673 5.533-5.21 8.343-2.53 2.81-5.26 5.13-8.177 6.943l-6.449-5.203c4.96-3.145 8.718-6.779 11.277-10.913 2.565-4.134 3.845-8.82 3.845-14.052v-.415h-11.238V46.18h31.079zM763.162 55.107h-19.01c0 2.758.619 5.346 1.853 7.769 1.245 2.428 2.912 4.634 5.004 6.613 2.093 2.048 4.55 3.816 7.36 5.335 2.809 1.512 5.84 2.712 9.093 3.6l-5.54 6.522a35.363 35.363 0 0 1-7.608-2.849 39.182 39.182 0 0 1-6.614-4.254 34.996 34.996 0 0 1-5.25-5.209c-1.506-1.87-2.678-3.776-3.508-5.704-.773 1.871-1.9 3.73-3.384 5.58-1.49 1.847-3.258 3.57-5.294 5.168-1.985 1.598-4.186 3.043-6.614 4.334a32.717 32.717 0 0 1-7.603 2.934l-5.54-6.523a44.263 44.263 0 0 0 8.969-3.554c2.786-1.49 5.22-3.258 7.313-5.294 2.099-1.985 3.765-4.197 4.999-6.654a17.836 17.836 0 0 0 1.945-7.814h-18.517V47.26h47.946zm-29.02 43.727V82.143h9.594v16.69h29.259v7.934h-68.606v-7.933zM841.19 84.946h-8.923v-17.85H818.3v-7.94h13.967V43.29h8.923zm-11.072 17.692c0-1.268-.29-2.49-.876-3.68a10.514 10.514 0 0 0-2.27-3.099c-.938-.875-2.052-1.58-3.349-2.104a10.49 10.49 0 0 0-4.01-.785c-1.432 0-2.791.256-4.088.785-1.29.523-2.411 1.229-3.35 2.104a10.008 10.008 0 0 0-2.229 3.1 8.632 8.632 0 0 0-.824 3.679c0 1.325.273 2.57.824 3.759a10.008 10.008 0 0 0 2.23 3.1c.938.88 2.058 1.575 3.35 2.07 1.296.494 2.655.744 4.088.744 1.376 0 2.718-.25 4.01-.745 1.296-.494 2.41-1.188 3.349-2.07a10.514 10.514 0 0 0 2.269-3.099 8.37 8.37 0 0 0 .876-3.759m9.258 0c0 2.366-.523 4.6-1.576 6.693a17.702 17.702 0 0 1-4.213 5.46c-1.815 1.598-3.924 2.832-6.324 3.713-2.394.887-4.942 1.331-7.65 1.331-2.752 0-5.322-.444-7.722-1.33-2.4-.882-4.475-2.116-6.244-3.714a16.691 16.691 0 0 1-4.254-5.46c-1.023-2.092-1.53-4.327-1.53-6.693 0-2.315.507-4.521 1.53-6.614 1.018-2.093 2.44-3.907 4.254-5.453 1.769-1.598 3.844-2.855 6.244-3.765 2.4-.904 4.97-1.36 7.723-1.36 2.707 0 5.255.456 7.649 1.36 2.4.91 4.51 2.167 6.324 3.765a17.746 17.746 0 0 1 4.213 5.453 14.537 14.537 0 0 1 1.576 6.614m-19.597-48.606h-13.637c0 2.32.443 4.573 1.32 6.78a24.543 24.543 0 0 0 3.644 6.204c1.485 1.927 3.248 3.702 5.29 5.328a35.964 35.964 0 0 0 6.613 4.174l-5.545 5.784c-3.799-1.928-7.091-4.271-9.872-7.023-2.78-2.759-4.783-5.647-5.994-8.684-1.49 3.31-3.793 6.494-6.904 9.548-3.116 3.06-6.324 5.47-9.628 7.24l-6.693-5.46c5.232-2.758 9.503-6.153 12.807-10.208 3.31-4.049 5.044-8.61 5.209-13.683h-13.387v-7.768h36.777zM898.386 104.456c0-2.371-1.018-4.384-3.054-6.034-2.041-1.655-4.52-2.48-7.444-2.48-2.917 0-5.385.825-7.393 2.48-2.013 1.65-3.02 3.663-3.02 6.034 0 2.428 1.007 4.447 3.02 6.074 2.008 1.626 4.476 2.44 7.393 2.44 2.923 0 5.403-.814 7.444-2.44 2.036-1.627 3.054-3.646 3.054-6.074m13.392-51.33h-18.596c1.155 3.14 3.845 5.91 8.059 8.31 4.214 2.393 9.218 4.145 15.002 5.242l-5.454 6.535c-5.454-1.16-10.236-2.992-14.342-5.5-4.1-2.502-7.04-5.22-8.804-8.143-1.82 2.923-4.754 5.641-8.808 8.143-4.038 2.508-8.764 4.34-14.172 5.5l-5.454-6.535c5.676-1.097 10.623-2.849 14.837-5.243 4.22-2.4 6.927-5.17 8.144-8.308h-18.101v-7.604h47.69zm10.004 31.66h-29.094v4.623c4.464.83 8.172 2.621 11.117 5.374 2.946 2.758 4.42 5.982 4.42 9.673 0 2.207-.535 4.26-1.61 6.159-1.075 1.9-2.52 3.543-4.34 4.913-1.876 1.44-4.037 2.542-6.488 3.31-2.457.774-5.084 1.16-7.899 1.16-2.81 0-5.437-.386-7.888-1.16-2.45-.768-4.617-1.87-6.488-3.31-1.82-1.37-3.253-3.014-4.3-4.913-1.046-1.9-1.57-3.952-1.57-6.159 0-3.69 1.45-6.904 4.334-9.628 2.895-2.73 6.58-4.504 11.044-5.334v-4.709h-29.845v-7.694h68.607zM992.536 117.68h-8.599V77.011h-7.433v37.278h-8.598V44.45h8.598v24.214h7.433V43.29h8.599zm-30.334-61.413h-10.828v5.374c0 6.119 1.03 11.897 3.1 17.356 2.064 5.454 5.664 10.22 10.782 14.303l-5.863 5.453c-1.433-.995-2.827-2.195-4.174-3.594a38.913 38.913 0 0 1-3.68-4.424 38.007 38.007 0 0 1-2.894-4.749c-.825-1.626-1.405-3.184-1.735-4.674-.443 1.49-1.103 3.076-1.985 4.748-.875 1.69-1.927 3.35-3.144 5.005a36.68 36.68 0 0 1-3.964 4.754 40.495 40.495 0 0 1-4.544 4.01l-6.455-5.29c5.847-4.794 9.884-9.895 12.113-15.297 2.235-5.397 3.35-11.266 3.35-17.601v-5.374h-11.237v-7.854h31.158zM1065.193 98.753h-8.923v-4.96h-16.537v-6.858h16.537V43.29h8.923zm-27.94-40.417c0-2.15-.92-3.998-2.763-5.544-1.854-1.542-4.095-2.31-6.739-2.31-2.65 0-4.89.768-6.739 2.31-1.848 1.546-2.77 3.395-2.77 5.544 0 2.15.922 3.981 2.77 5.494 1.848 1.518 4.089 2.275 6.739 2.275 2.644 0 4.885-.757 6.739-2.275 1.842-1.513 2.764-3.344 2.764-5.494m29.014 57.779h-48.6V96.939h9.088v11.402h39.512zm-20.25-57.95c0 2.093-.484 4.038-1.445 5.835-.967 1.786-2.275 3.344-3.924 4.664-1.655 1.325-3.6 2.36-5.835 3.105-2.23.739-4.612 1.109-7.148 1.109-2.594 0-5.005-.37-7.228-1.11-2.24-.744-4.175-1.78-5.835-3.104-1.65-1.32-2.946-2.878-3.878-4.664-.939-1.797-1.41-3.742-1.41-5.834 0-2.036.471-3.953 1.41-5.738.932-1.797 2.229-3.356 3.878-4.675 1.66-1.32 3.594-2.371 5.835-3.145 2.223-.767 4.634-1.154 7.228-1.154 2.536 0 4.919.387 7.148 1.154 2.235.774 4.18 1.826 5.835 3.145 1.649 1.32 2.957 2.878 3.924 4.675a11.938 11.938 0 0 1 1.444 5.738m6.858 23.066c-2.968.551-6.363.99-10.162 1.319-3.804.33-8.212.58-13.227.745v10.003h-9.008v-9.918l-17.197.16v-7.103l24.135-.25c4.958 0 9.622-.177 13.966-.535 4.362-.358 8.19-.785 11.494-1.28zM257.338 139.849h3.02v9.264l8.99-9.264h4.016l-9.896 9.963 10.686 11.107h-4.407l-9.39-10.322v10.322h-3.019zM283.873 158.987c3.315 0 4.8-3.02 4.8-5.767 0-2.928-1.786-5.766-4.8-5.766-3.048 0-4.834 2.838-4.834 5.766 0 2.747 1.479 5.767 4.834 5.767m0-13.825c4.674 0 7.814 3.378 7.814 8.058 0 4.408-3.196 8.059-7.814 8.059-4.646 0-7.848-3.651-7.848-8.059 0-4.68 3.14-8.058 7.848-8.058M295.491 145.525h2.661v2.383h.057c.751-1.598 2.383-2.741 4.015-2.741.842 0 1.268.085 1.871.21v2.53l-1.57-.272c-2.536 0-4.196 2.417-4.196 6.278v7.006h-2.838zM317.194 151.74c0-2.355-1.387-4.288-3.833-4.288-2.775 0-3.924 2.297-4.134 4.287zm1.843 8.547c-1.086.386-2.326.995-4.857.995-5.465 0-7.973-3.321-7.973-8.331 0-4.561 2.867-7.786 7.217-7.786 5.13 0 6.79 3.737 6.79 8.69h-10.987c0 3.042 2.389 5.13 5.067 5.13 1.877 0 4.05-.967 4.743-1.536zM333.16 153.583c-.596 0-1.205-.062-1.808-.062-1.54 0-5.345.238-5.345 2.962 0 1.627 1.575 2.503 2.872 2.503 2.803 0 4.282-1.746 4.282-4.044zm-8.416-6.972c1.422-.847 3.105-1.444 5.067-1.444 4.413 0 6.187 2.166 6.187 6.363v6.37c0 1.745.063 2.564.126 3.02h-2.656v-1.997h-.063c-.665.938-2.178 2.36-4.771 2.36-3.321 0-5.641-1.45-5.641-4.8 0-3.867 4.225-5.072 7.154-5.072 1.114 0 1.899 0 3.014.057 0-2.656-.967-4.015-3.8-4.015-1.603 0-3.32.603-4.469 1.57zM349.494 139.849h4.982l6.608 17.504 6.488-17.504h4.988v21.07h-3.026v-18.232h-.057l-6.972 18.232h-2.957l-6.978-18.232h-.062v18.232h-3.014zM387.647 151.74c0-2.355-1.388-4.288-3.833-4.288-2.775 0-3.924 2.297-4.134 4.287zm1.837 8.547c-1.08.386-2.32.995-4.851.995-5.465 0-7.979-3.321-7.979-8.331 0-4.561 2.872-7.786 7.217-7.786 5.135 0 6.79 3.737 6.79 8.69H379.68c0 3.042 2.383 5.13 5.067 5.13 1.87 0 4.043-.967 4.737-1.536zM400.714 158.987c3.202 0 4.527-3.174 4.527-5.738 0-2.866-1.479-5.795-4.555-5.795-3.082 0-4.288 2.894-4.225 5.71-.063 2.41 1.205 5.823 4.253 5.823m4.646-.245h-.056c-.751 1.149-2.508 2.537-5.25 2.537-4.651 0-6.608-4.135-6.608-8.332 0-4.134 2.173-7.785 6.637-7.785 2.684 0 4.225 1.058 5.101 2.474h.057v-9.36h2.843v22.644h-2.724zM413.28 145.527h2.838v15.394h-2.837zm3.015-3.447h-3.196v-3.196h3.196zM431.081 148.118c-1.08-.45-2.172-.665-3.076-.665-3.173 0-4.953 2.837-4.953 5.766 0 2.747 1.484 5.767 5.135 5.767.96 0 2.172-.302 3.042-.876l.21 2.536c-1.176.54-2.53.631-3.554.631-4.651 0-7.847-3.65-7.847-8.058 0-4.68 3.133-8.058 7.847-8.058 1.15 0 2.622.267 3.441.603zM443.849 153.583c-.603 0-1.206-.062-1.808-.062-1.542 0-5.346.238-5.346 2.962 0 1.627 1.575 2.503 2.866 2.503 2.81 0 4.288-1.746 4.288-4.044zm-8.417-6.972c1.417-.847 3.106-1.444 5.067-1.444 4.413 0 6.188 2.166 6.188 6.363v6.37c0 1.745.062 2.564.125 3.02h-2.656v-1.997h-.062c-.666.938-2.179 2.36-4.772 2.36-3.32 0-5.641-1.45-5.641-4.8 0-3.867 4.225-5.072 7.154-5.072 1.115 0 1.9 0 3.014.057 0-2.656-.967-4.015-3.805-4.015-1.598 0-3.315.603-4.464 1.57zM451.854 138.276h2.838v22.64h-2.838zM471.378 158.259h3.173c5.192 0 8.058-2.502 8.058-7.939 0-4.92-3.35-7.82-7.7-7.82h-3.531zm-3.014-18.409h6.216c6.244 0 11.231 3.862 11.231 10.35 0 7.064-4.293 10.72-11.231 10.72h-6.216zM490.428 145.527h2.838v15.394h-2.838zm3.02-3.447h-3.202v-3.196h3.202zM497.308 157.898c1.114.723 2.718 1.086 3.531 1.086 1.303 0 2.9-.54 2.9-2.2 0-2.804-6.67-2.565-6.67-6.881 0-3.202 2.383-4.738 5.43-4.738 1.326 0 2.418.268 3.532.598l-.244 2.479c-.631-.398-2.32-.79-2.986-.79-1.45 0-2.718.608-2.718 1.87 0 3.145 6.67 2.241 6.67 7.16 0 3.287-2.627 4.8-5.368 4.8-1.45 0-2.934-.154-4.225-.847zM517.59 147.452c-3.077 0-4.556 2.935-4.556 5.8 0 2.565 1.33 5.733 4.527 5.733 3.048 0 4.316-3.406 4.254-5.823.062-2.775-1.143-5.71-4.226-5.71m-7.393-1.928h2.719v2.173h.057c.75-1.143 2.507-2.531 5.22-2.531 4.476 0 6.642 3.645 6.642 7.785 0 4.226-1.956 8.332-6.608 8.332-2.718 0-4.26-1.064-5.13-2.48h-.062v8.45h-2.838zM542.253 160.92h-2.747v-2.452h-.057c-.853 1.752-2.9 2.81-5.044 2.81-3.987 0-5.767-2.474-5.767-6.614v-9.14h2.838v7.968c0 3.589.785 5.346 3.264 5.494 3.225 0 4.675-2.6 4.675-6.341v-7.12h2.838zM555.265 147.813h-4.078v8.422c0 1.786 1.086 2.752 2.383 2.752.876 0 1.513-.273 1.934-.546v2.417c-.632.177-1.513.421-2.417.421-2.923 0-4.738-1.387-4.738-4.47v-8.996h-3.469v-2.286h3.47v-3.566l2.837-.904v4.47h4.078zM568.787 151.74c0-2.355-1.387-4.288-3.838-4.288-2.775 0-3.918 2.297-4.129 4.287zm1.837 8.547c-1.086.386-2.32.995-4.856.995-5.465 0-7.973-3.321-7.973-8.331 0-4.561 2.866-7.786 7.216-7.786 5.13 0 6.79 3.737 6.79 8.69h-10.98c0 3.042 2.382 5.13 5.066 5.13 1.871 0 4.043-.967 4.737-1.536zM584.299 139.849h4.982l6.608 17.504 6.494-17.504h4.982v21.07h-3.026v-18.232h-.05l-6.979 18.232h-2.957l-6.972-18.232h-.062v18.232h-3.02zM622.452 151.74c0-2.355-1.388-4.288-3.833-4.288-2.775 0-3.924 2.297-4.134 4.287zm1.843 8.547c-1.087.386-2.326.995-4.857.995-5.465 0-7.973-3.321-7.973-8.331 0-4.561 2.866-7.786 7.217-7.786 5.13 0 6.79 3.737 6.79 8.69h-10.987c0 3.042 2.388 5.13 5.067 5.13 1.87 0 4.049-.967 4.743-1.536zM635.525 158.987c3.196 0 4.527-3.174 4.527-5.738 0-2.866-1.479-5.795-4.561-5.795-3.077 0-4.282 2.894-4.226 5.71-.056 2.41 1.212 5.823 4.26 5.823m4.646-.245h-.057c-.756 1.149-2.508 2.537-5.254 2.537-4.652 0-6.609-4.135-6.609-8.332 0-4.134 2.173-7.785 6.643-7.785 2.684 0 4.225 1.058 5.095 2.474h.063v-9.36h2.837v22.644h-2.718zM648.085 145.527h2.838v15.394h-2.838zm3.014-3.447h-3.196v-3.196h3.196zM665.253 153.583c-.597 0-1.206-.062-1.809-.062-1.54 0-5.345.238-5.345 2.962 0 1.627 1.575 2.503 2.872 2.503 2.803 0 4.282-1.746 4.282-4.044zm-8.417-6.972c1.416-.847 3.105-1.444 5.067-1.444 4.413 0 6.188 2.166 6.188 6.363v6.37c0 1.745.062 2.564.125 3.02h-2.656v-1.997h-.063c-.665.938-2.172 2.36-4.77 2.36-3.322 0-5.642-1.45-5.642-4.8 0-3.867 4.225-5.072 7.154-5.072 1.114 0 1.9 0 3.014.057 0-2.656-.967-4.015-3.799-4.015-1.598 0-3.321.603-4.47 1.57zM681.075 147.813h-4.078v8.422c0 1.786 1.092 2.752 2.383 2.752.876 0 1.513-.273 1.934-.546v2.417c-.632.177-1.513.421-2.417.421-2.923 0-4.737-1.387-4.737-4.47v-8.996h-3.47v-2.286h3.47v-3.566l2.837-.904v4.47h4.078zM684.998 145.527h2.838v15.394h-2.838zm3.02-3.447h-3.196v-3.196h3.196zM699.852 158.987c3.315 0 4.794-3.02 4.794-5.767 0-2.928-1.78-5.766-4.794-5.766-3.054 0-4.84 2.838-4.84 5.766 0 2.747 1.484 5.767 4.84 5.767m0-13.825c4.674 0 7.813 3.378 7.813 8.058 0 4.408-3.196 8.059-7.813 8.059-4.652 0-7.854-3.651-7.854-8.059 0-4.68 3.14-8.058 7.854-8.058M711.47 145.525h2.747v2.445h.057c.853-1.751 2.9-2.803 5.044-2.803 3.98 0 5.766 2.468 5.766 6.602v9.15h-2.837v-7.967c0-3.594-.785-5.346-3.265-5.5-3.224 0-4.674 2.6-4.674 6.342v7.125h-2.838zM747.451 153.583c-.603 0-1.211-.062-1.808-.062-1.547 0-5.352.238-5.352 2.962 0 1.627 1.576 2.503 2.872 2.503 2.804 0 4.288-1.746 4.288-4.044zm-8.422-6.972c1.422-.847 3.105-1.444 5.067-1.444 4.413 0 6.187 2.166 6.187 6.363v6.37c0 1.745.063 2.564.125 3.02h-2.655v-1.997h-.063c-.66.938-2.172 2.36-4.771 2.36-3.321 0-5.642-1.45-5.642-4.8 0-3.867 4.226-5.072 7.154-5.072 1.115 0 1.9 0 3.02.057 0-2.656-.967-4.015-3.804-4.015-1.598 0-3.321.603-4.47 1.57zM755.088 145.525h2.74v2.445h.063c.848-1.751 2.9-2.803 5.044-2.803 3.981 0 5.767 2.468 5.767 6.602v9.15h-2.838v-7.967c0-3.594-.785-5.346-3.264-5.5-3.23 0-4.675 2.6-4.675 6.342v7.125h-2.837zM779.779 158.987c3.196 0 4.526-3.174 4.526-5.738 0-2.866-1.478-5.795-4.56-5.795-3.077 0-4.288 2.894-4.226 5.71-.062 2.41 1.212 5.823 4.26 5.823m4.646-.245h-.057c-.756 1.149-2.508 2.537-5.255 2.537-4.652 0-6.608-4.135-6.608-8.332 0-4.134 2.173-7.785 6.637-7.785 2.684 0 4.225 1.058 5.1 2.474h.063v-9.36h2.838v22.644h-2.718zM808.785 142.687l-4.197 10.441h8.388zm-1.479-2.838h3.168l8.906 21.07h-3.293l-2.144-5.317h-10.316l-2.15 5.317h-3.167zM822.158 145.525h2.655v2.383h.063c.75-1.598 2.377-2.741 4.015-2.741.842 0 1.262.085 1.87.21v2.53c-.517-.21-1.091-.272-1.574-.272-2.531 0-4.192 2.417-4.192 6.278v7.006h-2.837zM841.296 147.452c-3.083 0-4.561 2.935-4.561 5.8 0 2.565 1.33 5.733 4.527 5.733 3.048 0 4.316-3.406 4.253-5.823.063-2.775-1.143-5.71-4.22-5.71m-7.398-9.173h2.838v9.355h.062c.87-1.416 2.412-2.468 5.096-2.468 4.475 0 6.642 3.645 6.642 7.785 0 4.226-1.956 8.332-6.608 8.332-2.747 0-4.498-1.388-5.249-2.542h-.063v2.178h-2.718zM852.703 145.527h2.838v15.394h-2.838zm3.02-3.447h-3.196v-3.196h3.196zM868.913 147.813h-4.077v8.422c0 1.786 1.092 2.752 2.383 2.752.875 0 1.512-.273 1.933-.546v2.417c-.631.177-1.507.421-2.411.421-2.929 0-4.743-1.387-4.743-4.47v-8.996h-3.469v-2.286h3.469v-3.566l2.838-.904v4.47h4.077zM872.473 145.525h2.656v2.383h.063c.75-1.598 2.382-2.741 4.014-2.741.842 0 1.263.085 1.871.21v2.53l-1.575-.272c-2.53 0-4.191 2.417-4.191 6.278v7.006h-2.838zM893.366 153.583c-.603 0-1.212-.062-1.815-.062-1.54 0-5.345.238-5.345 2.962 0 1.627 1.575 2.503 2.866 2.503 2.81 0 4.294-1.746 4.294-4.044zm-8.423-6.972c1.416-.847 3.105-1.444 5.067-1.444 4.408 0 6.188 2.166 6.188 6.363v6.37c0 1.745.062 2.564.125 3.02h-2.656v-1.997h-.063c-.665.938-2.178 2.36-4.77 2.36-3.322 0-5.642-1.45-5.642-4.8 0-3.867 4.225-5.072 7.154-5.072 1.114 0 1.9 0 3.02.057 0-2.656-.973-4.015-3.805-4.015-1.604 0-3.327.603-4.47 1.57zM909.177 147.813h-4.078v8.422c0 1.786 1.092 2.752 2.389 2.752.875 0 1.512-.273 1.933-.546v2.417c-.631.177-1.512.421-2.417.421-2.923 0-4.737-1.387-4.737-4.47v-8.996h-3.469v-2.286h3.47v-3.566l2.831-.904v4.47h4.078zM913.103 145.527h2.833v15.394h-2.833zm3.026-3.447h-3.196v-3.196h3.196zM927.954 158.987c3.32 0 4.8-3.02 4.8-5.767 0-2.928-1.786-5.766-4.8-5.766-3.049 0-4.834 2.838-4.834 5.766 0 2.747 1.484 5.767 4.834 5.767m0-13.825c4.674 0 7.819 3.378 7.819 8.058 0 4.408-3.202 8.059-7.82 8.059-4.646 0-7.847-3.651-7.847-8.059 0-4.68 3.139-8.058 7.848-8.058M939.571 145.525h2.747v2.445h.063c.847-1.751 2.9-2.803 5.044-2.803 3.98 0 5.766 2.468 5.766 6.602v9.15h-2.837v-7.967c0-3.594-.785-5.346-3.265-5.5-3.23 0-4.68 2.6-4.68 6.342v7.125h-2.838zM974.83 142.687l-4.196 10.441h8.388zm-1.483-2.838h3.173l8.9 21.07h-3.287l-2.144-5.317h-10.322l-2.138 5.317h-3.173zM998.978 153.4c0-3.196-1.479-5.948-4.499-5.948-2.866 0-4.287 3.11-4.287 5.738 0 2.9 1.632 5.43 4.287 5.43 2.662 0 4.499-2.348 4.499-5.22m2.838 6.853c0 4.674-2.417 7.364-7.94 7.364-1.631 0-3.047-.21-5.521-1.058l.301-2.621c2.173.99 3.47 1.387 5.55 1.387 2.992 0 4.772-2.024 4.772-5.283v-1.512h-.063c-1.205 1.603-3.196 2.388-5.163 2.388-4.402 0-6.574-3.594-6.574-7.58 0-3.953 2.229-8.173 6.88-8.173 2.713 0 4.226.996 5.068 2.65h.062v-2.291h2.627zM1016.605 151.74c0-2.355-1.388-4.288-3.833-4.288-2.775 0-3.924 2.297-4.135 4.287zm1.842 8.547c-1.086.386-2.326.995-4.856.995-5.465 0-7.979-3.321-7.979-8.331 0-4.561 2.872-7.786 7.222-7.786 5.13 0 6.785 3.737 6.785 8.69h-10.982c0 3.042 2.389 5.13 5.067 5.13 1.871 0 4.044-.967 4.743-1.536zM1023.43 145.525h2.741v2.445h.063c.848-1.751 2.9-2.803 5.044-2.803 3.981 0 5.767 2.468 5.767 6.602v9.15h-2.838v-7.967c0-3.594-.785-5.346-3.264-5.5-3.23 0-4.68 2.6-4.68 6.342v7.125h-2.832zM1051.648 148.118c-1.08-.45-2.173-.665-3.077-.665-3.173 0-4.953 2.837-4.953 5.766 0 2.747 1.484 5.767 5.135 5.767.967 0 2.172-.302 3.043-.876l.216 2.536c-1.178.54-2.537.631-3.56.631-4.652 0-7.848-3.65-7.848-8.058 0-4.68 3.133-8.058 7.848-8.058 1.148 0 2.621.267 3.44.603zM1054.125 165.084l1.325.239c2.536 0 3.384-3.497 3.384-3.804l-.546-1.627-5.22-14.365h3.104l4.14 12.733h.063l4.226-12.733h2.866l-5.67 15.724c-1.064 2.957-2.178 6.364-5.92 6.364-.904 0-1.416-.12-1.934-.21z" style="stroke-width:5.68685" transform="matrix(.71121 0 0 .71121 0 0)"/></svg>