<svg xmlns="http://www.w3.org/2000/svg" xml:space="preserve" width="1546.7032" height="200" viewBox="0 0 1546.7032 200"><path d="M142.558 293.538v34.074h-379.14v-34.074h-21.066v53.797h421.26v-53.797z" style="fill:#575e61;fill-opacity:1;fill-rule:nonzero;stroke:none;stroke-width:10.6575" transform="matrix(1.33333 0 0 -1.33333 343.53 463.113)"/><path d="M-176.78 199.65h-39.872v110.904h39.872zM-126.886 199.65h-39.861v110.904h39.861zM-76.992 199.65h-39.861v110.904h39.861zM-27.087 199.65h-39.861v110.904h39.861zM22.828 199.65h-39.871v110.904h39.871ZM72.723 199.65H32.872v110.904h39.85z" style="fill:#97782c;fill-opacity:1;fill-rule:nonzero;stroke:none;stroke-width:10.6575" transform="matrix(1.33333 0 0 -1.33333 343.53 463.113)"/><path d="M122.627 200.18H82.766v32.51h39.861z" style="fill:#2a70b5;fill-opacity:1;fill-rule:nonzero;stroke:none;stroke-width:10.6575" transform="matrix(1.33333 0 0 -1.33333 343.53 463.113)"/><path d="M122.627 278.087H82.766v32.488h39.861z" style="fill:#ec772a;fill-opacity:1;fill-rule:nonzero;stroke:none;stroke-width:10.6575" transform="matrix(1.33333 0 0 -1.33333 343.53 463.113)"/><path d="M122.627 238.762H82.766v32.503h39.861z" style="fill:#5da339;fill-opacity:1;fill-rule:nonzero;stroke:none;stroke-width:10.6575" transform="matrix(1.33333 0 0 -1.33333 343.53 463.113)"/><path d="M202.808 220.065v-10.148l6.338 10.148h5.516l-7.119-10.304 7.91-11.943h-5.89l-6.755 11.615v-11.615h-4.58v22.247zM237.549 209.053c0-5.027-1.738-8.8-4.965-10.563-1.342-.739-2.602-1.026-4.454-1.026-3.362 0-5.537.932-7.234 3.138-1.696 2.18-2.57 4.99-2.57 8.259 0 4.803 1.831 8.649 5.037 10.402 1.311.708 2.945 1.093 4.61 1.093 5.923 0 9.576-4.32 9.576-11.303m-13.104 5.896c-.77-1.446-1.113-3.398-1.113-6.088 0-3.836.645-6.24 1.977-7.202.708-.51 1.613-.766 2.665-.766 3.101 0 4.423 2.363 4.423 8.035 0 2.274-.198 3.903-.583 5.152-.354 1.13-1.54 2.815-3.913 2.815-1.5 0-2.8-.765-3.456-1.946zM252.37 220.065c3.933 0 6.535-2.628 6.535-6.531 0-3.325-2.217-6.083-4.975-6.151.459-.343.646-.536.937-.926 1.28-1.593 5.35-8.639 5.35-8.639h-5.287a118.708 118.708 0 0 0-2.082 3.648c-2.206 3.997-2.872 5.09-3.684 5.438a1.924 1.924 0 0 1-.697.198v-9.283h-4.403v22.246h8.306m-3.903-9.6h1.509c1.915 0 2.747.192 3.362.738.541.51.853 1.306.853 2.237 0 1.374-.55 2.342-1.592 2.727-.52.188-1.447.312-2.53.312h-1.602v-6.015zM279.075 220.065l-.583-3.648h-7.618v-5.152h6.37v-3.653h-6.308v-5.953h8.43v-3.84h-12.978v22.246h12.687zM295.998 220.127l7.015-22.309h-4.798l-1.572 5.277h-6.525l-1.572-5.277h-4.673l7.296 22.31h4.83m-.448-13.317s-.73 2.341-1.208 4.485c-.229 1.03-.906 3.94-.906 3.94s-.635-2.628-1.05-4.294c-.407-1.602-.697-2.654-1.187-4.131h4.35zM326.19 220.065v-18.536h7.973l-.801-3.71h-11.74v22.246zM352.095 220.065l-.583-3.648h-7.618v-5.152h6.37v-3.653h-6.307v-5.953h8.42v-3.84h-12.969v22.246h12.687zM372.744 215.074c-1.436 1.176-2.956 1.728-4.652 1.728-1.301 0-2.425-.385-3.195-1.124-1.499-1.436-1.894-3.84-1.894-7.171 0-3.174.552-5.22 1.665-6.333.832-.807 2.06-1.244 3.497-1.244.989 0 1.79.156 2.529.536v5.063H367.3l-.572 3.648h8.607v-10.631c-2.28-1.348-4.767-1.983-7.4-1.983-3.32 0-5.797 1.088-7.577 3.393-1.644 2.077-2.383 4.45-2.383 7.775 0 4.71 1.54 8.04 4.652 10.121 1.634 1.093 3.3 1.572 5.402 1.572 2.706 0 5.12-.869 7.077-2.571l-2.363-2.779zM387.638 220.065v-22.247h-4.684v22.247zM408.057 215.298c-2.019 1.218-3.528 1.696-5.183 1.696-1.831 0-3.112-1.056-3.112-2.56 0-1.155.604-1.728 2.467-2.243l2.685-.733c3.643-.994 5.641-3.336 5.641-6.625 0-4.516-3.653-7.498-9.19-7.498-2.529 0-5.35.744-7.587 2.019l1.665 3.492c2.071-1.093 3.872-1.796 6.11-1.796 2.56 0 3.913 1.062 3.913 3.045 0 1.436-.937 2.33-2.925 2.882l-2.456.667c-2.217.608-3.59 1.472-4.392 2.82-.603.994-.926 2.144-.926 3.393 0 4.064 3.268 6.88 7.972 6.88 2.727 0 5.475-.822 7.421-2.228l-2.102-3.21zM422.056 220.065v-18.536h7.962l-.802-3.71h-11.75v22.246h4.59zM445.93 220.127l7.016-22.309h-4.809l-1.56 5.277h-6.537l-1.571-5.277h-4.673l7.295 22.31h4.84m-.448-13.317s-.738 2.341-1.218 4.485c-.229 1.03-.895 3.94-.895 3.94s-.646-2.628-1.061-4.294c-.417-1.602-.697-2.654-1.187-4.131h4.361zM470.295 220.065l-.729-3.71h-5.318v-18.537H459.7v18.536h-5.443v3.71h16.038zM480.838 220.065v-22.247h-4.683v22.247zM506.826 209.053c0-5.027-1.728-8.8-4.964-10.563-1.333-.739-2.592-1.026-4.444-1.026-3.362 0-5.537.932-7.234 3.138-1.696 2.18-2.57 4.99-2.57 8.259 0 4.803 1.831 8.649 5.026 10.402 1.322.708 2.956 1.093 4.621 1.093 5.922 0 9.565-4.32 9.565-11.303m-13.093 5.896c-.76-1.446-1.124-3.398-1.124-6.088 0-3.836.645-6.24 1.999-7.202.697-.51 1.592-.766 2.653-.766 3.102 0 4.413 2.363 4.413 8.035 0 2.274-.187 3.903-.572 5.152-.343 1.13-1.54 2.815-3.903 2.815-1.509 0-2.82-.765-3.466-1.946zM518.327 220.065l4.246-8.899c1.124-2.368 1.988-4.71 2.435-6.302a108.123 108.123 0 0 0-.343 6.104l-.106 9.097h4.267v-22.247h-4.684l-3.809 8.514c-1.249 2.784-2.581 5.922-2.997 7.296.146-1.822.177-4.445.218-6.308l.125-9.502h-4.32v22.247h4.965zM558.667 220.065c3.934 0 6.525-2.628 6.525-6.531 0-3.325-2.206-6.083-4.964-6.151.458-.343.646-.536.937-.926 1.28-1.593 5.339-8.639 5.339-8.639h-5.277c-.864 1.473-1.228 2.077-2.092 3.648-2.196 3.997-2.872 5.09-3.674 5.438-.229.107-.406.166-.707.198v-9.283h-4.382v22.246h8.295m-3.913-9.6h1.509c1.915 0 2.758.192 3.361.738.542.51.865 1.306.865 2.237 0 1.374-.542 2.342-1.603 2.727-.51.188-1.447.312-2.53.312h-1.602v-6.015zM585.362 220.065l-.572-3.648h-7.629v-5.152h6.38v-3.653h-6.307v-5.953h8.42v-3.84h-12.968v22.246h12.676zM604.897 215.298c-2.019 1.218-3.528 1.696-5.193 1.696-1.821 0-3.101-1.056-3.101-2.56 0-1.155.603-1.728 2.466-2.243l2.685-.733c3.653-.994 5.63-3.336 5.63-6.625 0-4.516-3.642-7.498-9.179-7.498-2.54 0-5.35.744-7.597 2.019l1.675 3.492c2.082-1.093 3.872-1.796 6.11-1.796 2.56 0 3.903 1.062 3.903 3.045 0 1.436-.927 2.33-2.915 2.882l-2.456.667c-2.217.608-3.59 1.472-4.392 2.82-.614.994-.915 2.144-.915 3.393 0 4.064 3.257 6.88 7.962 6.88 2.716 0 5.474-.822 7.43-2.228l-2.112-3.21zM626.983 220.065l-.573-3.648h-7.618v-5.152h6.37v-3.653h-6.308v-5.953h8.42v-3.84h-12.968v22.246h12.677zM643.916 220.127l7.015-22.309h-4.798l-1.572 5.277h-6.546l-1.551-5.277h-4.684l7.307 22.31h4.829m-.448-13.317s-.729 2.341-1.218 4.485c-.218 1.03-.884 3.94-.884 3.94s-.646-2.628-1.072-4.294a58.926 58.926 0 0 0-1.176-4.131zM664.544 220.065c3.934 0 6.525-2.628 6.525-6.531 0-3.325-2.206-6.083-4.964-6.151.458-.343.646-.536.926-.926 1.28-1.593 5.35-8.639 5.35-8.639h-5.288a145.368 145.368 0 0 0-2.081 3.648c-2.207 3.997-2.873 5.09-3.674 5.438a2.11 2.11 0 0 1-.708.198v-9.283h-4.381v22.246h8.295m-3.914-9.6h1.51c1.914 0 2.747.192 3.361.738.542.51.864 1.306.864 2.237 0 1.374-.552 2.342-1.613 2.727-.5.188-1.436.312-2.529.312h-1.592v-6.015zM690.47 215.75c-1.125.833-2.3 1.244-3.56 1.244-1.499 0-2.966-.743-3.778-1.92-.854-1.275-1.25-3.138-1.25-5.734 0-3.045.26-4.73.938-5.959.895-1.629 2.362-2.487 4.288-2.487 1.311 0 2.498.38 3.809 1.436l2.05-2.82c-1.77-1.432-3.653-2.082-6.182-2.082-3.07 0-5.443.999-7.265 3.075-1.79 2.02-2.695 4.705-2.695 7.973 0 2.789.478 4.995 1.51 6.916 1.727 3.242 4.922 5.157 8.512 5.157 2.217 0 4.424-.708 5.641-1.76l-2.019-3.038zM703.208 220.065v-8.644h6.411v8.644h4.538v-22.247h-4.538v9.919h-6.41v-9.919h-4.455v22.247zM740.384 220.065v-22.247h-4.683v22.247zM753.602 220.065l4.257-8.899c1.124-2.368 1.988-4.71 2.435-6.302-.155 1.723-.323 4.57-.354 6.104l-.096 9.097h4.257v-22.247h-4.673l-3.81 8.514c-1.259 2.784-2.59 5.922-3.007 7.296.156-1.822.188-4.445.219-6.308l.124-9.502h-4.319v22.247h4.965zM784.97 215.298c-2.008 1.218-3.517 1.696-5.182 1.696-1.832 0-3.102-1.056-3.102-2.56 0-1.155.604-1.728 2.457-2.243l2.695-.733c3.643-.994 5.63-3.336 5.63-6.625 0-4.516-3.642-7.498-9.19-7.498-2.528 0-5.338.744-7.587 2.019l1.666 3.492c2.081-1.093 3.871-1.796 6.12-1.796 2.56 0 3.902 1.062 3.902 3.045 0 1.436-.926 2.33-2.914 2.882l-2.456.667c-2.207.608-3.59 1.472-4.392 2.82-.603.994-.926 2.144-.926 3.393 0 4.064 3.268 6.88 7.972 6.88 2.716 0 5.474-.822 7.431-2.228l-2.123-3.21zM807.993 220.065l-.739-3.71h-5.308v-18.537h-4.548v18.536h-5.443v3.71h16.038zM818.536 220.065v-22.247h-4.684v22.247zM840.652 220.065l-.739-3.71h-5.308v-18.537h-4.548v18.536h-5.454v3.71h16.05zM850.706 220.065v-14.628c0-1.38.124-2.18.375-2.654.52-.995 1.571-1.535 3.05-1.535 1.956 0 3.205.951 3.392 2.586.064.484.064.801.064 1.988v14.243h4.548v-14.982c0-2.113-.032-2.524-.354-3.492-.583-1.759-2.748-4.189-7.556-4.189-3.393 0-5.89 1.025-7.13 2.971-.738 1.156-.977 2.05-.977 4.2v15.492h4.59zM884.125 220.065l-.739-3.71h-5.308v-18.537h-4.548v18.536h-5.433v3.71h16.028zM902.088 220.065l-.572-3.648h-7.629v-5.152h6.38v-3.653h-6.317v-5.953h8.43v-3.84h-12.968v22.246h12.676zM182.836 323.402v9.721h24.468v6.12c0 2.081-.332 5.256-1.061 6.994h15.497v-13.114h24.447v-9.72H233.75c3.382-3.815 5.464-8.728 5.464-13.983 0-12.339-11.48-22.502-24.697-22.502-13.208 0-24.677 10.163-24.677 22.502 0 5.255 2.071 10.168 5.474 13.982h-12.478m24.801-77.651c-1.852 0-3.486 1.639-3.486 3.377v18.567c0 4.71-.76 8.425-1.749 10.273h15.622v-22.502h52.215v-9.715h-62.602m6.88 76.553c-6.328 0-11.126-5.667-11.126-12.884 0-7.208 4.798-12.88 11.126-12.88 6.452 0 11.136 5.672 11.136 12.88 0 7.217-4.684 12.884-11.136 12.884m54.63-13.415v-22.72c0-4.595-.324-8.638-.875-11.48h-13.01v60.625c0 4.803-.748 8.42-1.748 10.376h15.633v-27.08h14.196v-9.721h-14.196zM357.664 317.179v15.507h-56.046v9.731h69.919V319.48c0-4.044-.75-8.524-1.738-12.01h14.852v-9.732h-41.059v-16.71h26.862v-24.364c0-4.584-.332-8.628-.873-11.47h-13.01v26.109h-54.952v9.726h27.986v16.709h-41.069v9.731h68.254c.55 2.946.874 6.541.874 9.71zM436.689 327.446v4.262c0 4.693-.75 8.409-1.842 10.381h15.6v-17.703h18.37v10.928c0 4.803-.78 8.42-1.759 10.376h15.622v-43.15c0-4.584-.312-8.623-.864-11.47h-13v23.605h-18.369v-19.998H401.98c-1.759 0-3.393 1.64-3.393 3.398v33.195c0 4.694-.76 8.41-1.863 10.273h15.632v-14.097h24.333m-24.333-9.29v-13.862h24.333v13.863h-24.333m56.014-43.14v.65c0 4.71-.749 8.415-1.852 10.382h15.622v-40.855h-63.237c-1.749 0-3.393 1.644-3.393 3.387v26.66c0 4.699-.76 8.398-1.853 10.261h15.601v-10.485h39.112m-39.112-9.294V254.81h39.112v10.913zM530.587 315.872c0-16.818 8.295-30.041 20.524-35.495l-7.431-6.343c-7.848 2.617-16.715 11.037-20.087 18.239-3.393-7.202-12.24-15.622-20.097-18.24l-7.442 6.344c12.25 5.454 20.545 18.677 20.545 35.495v13.54h-14.862v9.722h43.712v-9.721h-14.862v-13.54m37.353-70.68h-12.125v59.647h-15.518v9.71h15.518v20.764c0 4.803-.666 8.42-1.655 10.376h14.654v-89.027c0-4.584-.323-8.628-.874-11.47m19.546 0H575.37v90.12c0 4.804-.666 8.42-1.634 10.377h14.613v-89.027c0-4.584-.313-8.628-.865-11.47zM676.908 330.62v4.694c0 4.803-.781 8.42-1.759 10.376h15.622V286.17c0-4.595-.332-8.638-.874-11.48h-12.989v27.414h-21.2c-4.912-7.207-13.447-12.12-23.053-12.12-15.08 0-27.414 11.907-27.414 26.43 0 14.634 12.333 26.545 27.414 26.545 9.742 0 18.349-4.907 23.272-12.338h20.981m-44.253 2.722c-7.64 0-13.655-7.421-13.655-16.928 0-9.503 6.016-16.82 13.655-16.82 7.774 0 13.665 7.317 13.665 16.82 0 9.507-5.89 16.928-13.665 16.928m-3.382-87.591c-1.863 0-3.487 1.639-3.487 3.377v20.753c0 4.699-.77 8.415-1.759 10.277h15.622v-24.692h52.205v-9.715h-62.581m47.635 66.083v9.065h-17.162c.343-1.42.458-2.955.458-4.485 0-1.52-.114-3.06-.458-4.58zM776.582 313.916v17.682h-56.597v9.726h70.47v-26.211c0-7.104-1.321-14.31-2.955-19.13h15.497v-9.71h-41.058v-30.697c0-4.039-.333-7.983-.76-10.382H747.95v41.08h-41.08v9.71h67.859c1.082 4.818 1.852 11.36 1.852 17.932zM813.654 292.372v9.627h50.904c6.234 0 12.344.541 16.06 1.311v-8.633c-3.83-1.207-9.95-2.305-18.34-2.305h-11.697v-14.404h-13.999v14.404h-22.928m32.233 13.337c-12.78 0-23.053 9.185-23.053 20.53 0 11.365 10.272 20.544 23.053 20.544 12.77 0 23.053-9.18 23.053-20.545 0-11.344-10.283-20.529-23.053-20.529m-6.349-59.958c-1.863 0-3.486 1.639-3.486 3.377v14.201c0 4.7-.771 8.425-1.76 10.273h15.633v-18.136h52.194v-9.715h-62.58m6.348 91.416c-5.256 0-9.523-5.022-9.523-10.929 0-5.89 4.267-10.917 9.523-10.917 5.245 0 9.492 5.027 9.492 10.917 0 5.907-4.247 10.929-9.492 10.929m54.286-65.751h-12.999v6.23h-21.096v9.61h21.096v48.058c0 4.803-.76 8.42-1.759 10.376h15.632v-62.805c0-4.59-.322-8.628-.873-11.469z" style="fill:#97782c;fill-opacity:1;fill-rule:nonzero;stroke:none;stroke-width:10.6575" transform="matrix(1.33333 0 0 -1.33333 343.53 463.113)"/></svg>