<svg xmlns="http://www.w3.org/2000/svg" xml:space="preserve" width="1044.8762" height="200" viewBox="0 0 1044.8762 200"><path d="M220.082 595.878h-1.576v7.539h1.576v-3.066l2.877 3.066h2.037l-3.077-3.087 3.256-4.452h-2.028l-2.33 3.307-.735-.756zM225.339 599.647c0-3.528 2.623-3.957 3.619-3.957s3.619.429 3.619 3.957-2.623 3.958-3.62 3.958c-.995 0-3.618-.43-3.618-3.958m1.575 0c0 2.103 1.195 2.624 2.044 2.624s2.044-.521 2.044-2.624c0-2.101-1.195-2.625-2.044-2.625-.85 0-2.044.524-2.044 2.625M233.846 595.879h1.538v2.945h1.624c1.163 0 1.226-.398 1.226-1.423 0-.775.064-1.162.17-1.522h1.742v.203c-.336.126-.336.399-.336 1.496 0 1.404-.336 1.634-.956 1.909.742.25 1.162.968 1.162 1.802 0 .655-.368 2.128-2.37 2.128h-3.8zm1.538 4.216v2.027h1.957c.922 0 1.1-.59 1.1-.991 0-.75-.398-1.036-1.215-1.036zM246.967 602.086h-4.001v-1.594h3.676v-1.333h-3.676v-1.95h4.18v-1.331h-5.718v7.539h5.539zM250.018 597.434h2.783l.484-1.556h1.712l-2.657 7.539h-1.818l-2.688-7.54h1.659zm1.387 4.28h.02l.935-2.985h-1.922zM261.735 595.878h-1.575v6.208h-2.28v1.33h6.134v-1.33h-2.279zM264.964 595.879h1.538v2.945h1.624c1.164 0 1.227-.398 1.227-1.423 0-.775.062-1.162.167-1.522h1.744v.203c-.336.126-.336.399-.336 1.496 0 1.404-.336 1.634-.956 1.909.742.25 1.162.968 1.162 1.802 0 .655-.367 2.128-2.371 2.128h-3.8zm1.538 4.216v2.027h1.957c.922 0 1.099-.59 1.099-.991 0-.75-.397-1.036-1.213-1.036zM274.13 597.434h2.784l.483-1.556h1.712l-2.657 7.539h-1.817l-2.688-7.54h1.66zm1.387 4.28h.021l.934-2.985h-1.92zM284.723 603.417h1.462v-7.539h-1.568l-3.081 5.376h-.021v-5.376h-1.462v7.54h1.653l2.995-5.252h.022zM288.834 598.2c.01-.42.22-1.216 1.587-1.216.741 0 1.566.178 1.566.974 0 .59-.564.745-1.354.933l-.813.19c-1.22.283-2.39.554-2.39 2.212 0 .84.448 2.311 2.897 2.311 2.32 0 2.94-1.504 2.951-2.426h-1.516c-.042.335-.169 1.132-1.55 1.132-.603 0-1.32-.22-1.32-.902 0-.587.485-.713.801-.786l1.836-.452c1.027-.25 1.973-.67 1.973-2.022 0-2.259-2.308-2.458-2.967-2.458-2.743 0-3.217 1.576-3.217 2.51zM296.29 598.596h1.8c2.022 0 2.401 1.719 2.401 2.406 0 1.486-.884 2.416-2.339 2.416h-3.437v-7.54h1.575zm0 1.296v2.23h1.244c.973 0 1.381-.306 1.381-1.045 0-.34 0-1.185-1.172-1.185zM301.382 599.647c0-3.528 2.624-3.957 3.62-3.957s3.619.429 3.619 3.957-2.623 3.958-3.62 3.958c-.995 0-3.62-.43-3.62-3.958m1.576 0c0 2.103 1.195 2.624 2.045 2.624.849 0 2.043-.521 2.043-2.624 0-2.101-1.194-2.625-2.043-2.625-.85 0-2.045.524-2.045 2.625M309.728 595.879h1.537v2.945h1.625c1.163 0 1.226-.398 1.226-1.423 0-.775.062-1.162.167-1.522h1.743v.203c-.335.126-.335.399-.335 1.496 0 1.404-.336 1.634-.956 1.909.742.25 1.162.968 1.162 1.802 0 .655-.368 2.128-2.37 2.128h-3.799zm1.537 4.216v2.027h1.957c.922 0 1.101-.59 1.101-.991 0-.75-.399-1.036-1.215-1.036zM320.498 595.878h-1.575v6.208h-2.28v1.33h6.135v-1.33h-2.28zM328.09 595.878h-1.575v7.539h1.575zM334.16 603.417h1.462v-7.539h-1.567l-3.08 5.376h-.022v-5.376h-1.463v7.54h1.652l2.997-5.252h.021zM338.272 598.2c.01-.42.219-1.216 1.587-1.216.74 0 1.567.178 1.567.974 0 .59-.564.745-1.355.933l-.813.19c-1.221.283-2.392.554-2.392 2.212 0 .84.449 2.311 2.899 2.311 2.319 0 2.94-1.504 2.95-2.426H341.2c-.042.335-.168 1.132-1.551 1.132-.602 0-1.32-.22-1.32-.902 0-.587.485-.713.803-.786l1.834-.452c1.028-.25 1.975-.67 1.975-2.022 0-2.259-2.31-2.458-2.967-2.458-2.744 0-3.217 1.576-3.217 2.51zM347.34 595.878h-1.575v6.208h-2.279v1.33h6.133v-1.33h-2.279zM352.013 595.878h-1.576v7.539h1.576zM356.676 595.878h-1.575v6.208h-2.28v1.33h6.134v-1.33h-2.279zM365.94 598.52c0-1.981-1.198-2.83-3.103-2.83-.693 0-1.725.169-2.398.913-.41.46-.568 1.068-.59 1.823v4.99h1.61v-4.885c0-1.05.61-1.51 1.347-1.51 1.084 0 1.526.525 1.526 1.437v4.959h1.609zM370.674 595.878H369.1v6.208h-2.279v1.33h6.134v-1.33h-2.28zM379.442 602.086h-4.002v-1.594h3.677v-1.333h-3.677v-1.95h4.18v-1.331h-5.718v7.539h5.54z" style="fill:#231f20;fill-opacity:1;fill-rule:evenodd;stroke:none" transform="matrix(3.90914 0 0 -3.90914 -439.114 2493.333)"/><path d="M123.489 609.257h4.16l-3.608-4.295 7.255 4.294h4.881l-8.831-4.995-1.834-8.283h-4.986l1.401 5.294-1.901-1.089-3.534-4.205h-4.162z" style="fill:#656263;fill-opacity:1;fill-rule:evenodd;stroke:none" transform="matrix(3.90914 0 0 -3.90914 -439.114 2493.333)"/><path d="M142.027 609.602c-3.94 0-8.909-2.7-12.415-6.874-3.8-4.524-3.3-7.096.678-7.096 3.748 0 8.788 2.535 12.588 7.06 2.95 3.51 3.674 6.91-.85 6.91m-2.753-3.234c1.875.054.963-1.867-.558-3.677-1.847-2.199-3.917-3.825-5.71-3.825-1.986 0-.693 2.125.735 3.825 1.413 1.681 3.652 3.677 5.533 3.677M148.047 609.254h11.632l-2.935-3.493h-3.736l-8.22-9.783h-4.16l8.219 9.783h-3.736zM149.598 595.978l11.156 13.278h4.06l-11.157-13.278z" style="fill:#656263;fill-opacity:1;fill-rule:evenodd;stroke:none" transform="matrix(3.90914 0 0 -3.90914 -439.114 2493.333)"/><path d="M175.637 596h-6.46c5.583 6.592 12.356 14.902 12.356 14.902h6.326zM197.46 596H191c5.585 6.592 12.357 14.902 12.357 14.902h6.327z" style="fill:#231f20;fill-opacity:1;fill-rule:evenodd;stroke:none" transform="matrix(3.90914 0 0 -3.90914 -439.114 2493.333)"/><path d="M178.966 586.659c12.97 15.947 19.886 24.244 19.886 24.244h-6.325s-6.946-8.31-20.02-24.244z" style="fill:#1c63b7;fill-opacity:1;fill-rule:evenodd;stroke:none" transform="matrix(3.90914 0 0 -3.90914 -439.114 2493.333)"/><path d="M196.371 637.82c-3.913-4.761-12.587-15.287-13.55-16.253-1.248-1.251-1.764-1.58-3.46-2.104-1.482-.458-3.306-2.547-4.124-3.413-.642-.68-16.883-20.046-16.883-20.046h6.326s16.158 19.35 16.8 20.046c.764.829 1.951 1.69 3.816 2.29 1.437.46 3.268 2.272 4.017 3.154.58.684 9.427 11.486 13.391 16.327z" style="fill:#ed1639;fill-opacity:1;fill-rule:evenodd;stroke:none" transform="matrix(3.90914 0 0 -3.90914 -439.114 2493.333)"/><path d="M179.044 629.767c-2.484-3.023-6.104-7.396-6.906-8.2-1.248-1.25-1.763-1.579-3.46-2.105-1.481-.458-3.307-2.547-4.123-3.412-.643-.679-2.703-2.952-2.703-2.952h6.325s1.978 2.257 2.62 2.952c.764.828 1.95 1.69 3.816 2.29 1.436.46 3.268 2.272 4.017 3.154.488.574 4.212 5.147 6.756 8.273zM200.41 629.767c-2.484-3.023-6.102-7.396-6.906-8.2-1.248-1.25-1.763-1.579-3.46-2.105-1.481-.458-3.305-2.547-4.123-3.412-.641-.679-2.522-2.96-2.522-2.96h6.325s1.798 2.265 2.439 2.96c.764.828 1.95 1.69 3.817 2.29 1.435.46 3.267 2.272 4.017 3.154.487.574 4.212 5.147 6.756 8.273z" style="fill:#231f20;fill-opacity:1;fill-rule:evenodd;stroke:none" transform="matrix(3.90914 0 0 -3.90914 -439.114 2493.333)"/><path d="M266.342 627.974v-3.158h15.214c1.162 0 .865-.98.865-2.294v-9.488c0-.452.233-1.547-.994-1.547h-1.777v6.433h-3.599v-6.433h-2.978v6.433h-3.645v-6.433h-3.599v-3.157h16.61c3.527 0 3.47 2.601 3.47 3.996v12.14c0 1.312-.845 3.508-3.224 3.508zM317.03 625.276c.637.613 1.402.92 2.299.92.895 0 1.66-.307 2.298-.92.636-.636.955-1.414.955-2.334 0-.871-.32-1.626-.955-2.263-.66-.66-1.426-.99-2.298-.99-.897 0-1.662.33-2.3.99-.636.66-.954 1.415-.954 2.263 0 .92.318 1.698.955 2.334m2.299-8.644c1.732 0 3.208.619 4.428 1.856 1.238 1.237 1.856 2.723 1.856 4.454 0 1.733-.618 3.209-1.856 4.43-1.22 1.219-2.696 1.83-4.428 1.83-1.75 0-3.235-.611-4.455-1.83-1.22-1.221-1.83-2.697-1.83-4.43 0-1.731.61-3.217 1.83-4.454 1.22-1.237 2.705-1.856 4.455-1.856M356.474 624.957c0 3.363-3.348 3.017-4.169 3.017H336.98v-3.159h13.704c2.452 0 2.352.052 2.352-2.057v-4.892h-16.684v-3.24h8.604v-6.377h3.446v6.377h8.072v2.152zM258.486 627.858h-15.325V624.7h13.704c2.452 0 2.352.054 2.352-2.055v-1.163h-16.684v-3.24h8.604v-2.481h-7.976v-3.158h13.704c2.452 0 2.352.053 2.352-2.056v-2.198l3.438-.03v4.426c0 3.363-3.348 3.016-4.169 3.016h-3.903v2.48h8.072V624.843c0 3.364-3.348 3.016-4.169 3.016M364.57 625.315c.682.655 1.502.984 2.461.984.959 0 1.779-.329 2.462-.984.682-.682 1.022-1.516 1.022-2.5 0-.934-.34-1.741-1.022-2.424-.706-.707-1.528-1.06-2.462-1.06-.959 0-1.779.353-2.461 1.06-.682.707-1.021 1.515-1.021 2.424 0 .984.339 1.818 1.021 2.5m7.942-6.181c.745 1.079 1.118 2.306 1.118 3.681 0 1.819-.649 3.369-1.948 4.65-1.281 1.281-2.833 1.922-4.651 1.922-1.838 0-3.396-.641-4.678-1.922-1.281-1.281-1.921-2.831-1.921-4.65 0-1.375.369-2.602 1.102-3.681h-1.87V616.1h5.836v-3.038h3.322v3.038h5.816v3.034z" style="fill:#254aa5;fill-opacity:1;fill-rule:evenodd;stroke:none" transform="matrix(3.90914 0 0 -3.90914 -439.114 2493.333)"/><path d="M377.09 627.987h-3.412v-3.016h.44l2.065.005V613.294c0-.68.224-1.545-.97-1.545H363.98c-1.034 0-.84.834-.84 1.415v1.594h-3.447v-3.334c0-.657.152-2.833 2.695-2.833H376.153c2.545.139 3.432 1.958 3.432 3.158V625.105c0 .86-.15 2.882-2.496 2.882M228.543 618.643c-.682-.656-1.502-.985-2.46-.985-.96 0-1.78.33-2.463.985-.682.683-1.023 1.515-1.023 2.5 0 .934.341 1.741 1.023 2.424.707.707 1.527 1.06 2.462 1.06.96 0 1.78-.353 2.461-1.06.682-.707 1.022-1.516 1.022-2.425 0-.984-.34-1.816-1.022-2.499m-7.943 6.18c-.743-1.078-1.117-2.305-1.117-3.68 0-1.819.65-3.369 1.948-4.65 1.281-1.28 2.831-1.922 4.651-1.922 1.837 0 3.396.641 4.676 1.922 1.282 1.281 1.922 2.831 1.922 4.65 0 1.375-.368 2.602-1.1 3.68h1.868v3.035h-5.835v1.555h-3.322v-1.555h-5.816v-3.036z" style="fill:#254aa5;fill-opacity:1;fill-rule:evenodd;stroke:none" transform="matrix(3.90914 0 0 -3.90914 -439.114 2493.333)"/><path d="M238.39 611.266c0-1.199-.88-2.808-3.424-2.947H221.2c-2.542 0-2.694 2.177-2.694 2.833v3.333h3.446v-1.593c0-.58-.192-1.416.84-1.416H234.025s.956.037.956.972v12.636c0 .86.15 2.882 2.496 2.882h3.41v-3.016h-.438l-2.064.004V613.02zM303.417 612.98a3.834 3.834 0 0 0-3.834-3.833 3.833 3.833 0 0 0-3.835 3.833c0 .693.2 1.331.523 1.891h6.623c.323-.56.523-1.198.523-1.891m6.568 4.721h-8.443v1.203h8.052v2.572H293.44v1.025h16.154v1.921H293.44v1.067h16.154v2.485H292.2c-2.788 0-2.551-1.787-2.551-2.442v-3.964c0-.738-.155-2.664 2.469-2.664h5.64v-1.203h-8.478v-2.83h3.47a7.075 7.075 0 1 1 13.664 0h3.57zM333.598 624.628c0 3.528-2.738 3.1-3.404 3.1-.667 0 0-.009 0-.009h-3.599v-2.953h3.607v-2.8h-3.607v-2.993h3.607V613.132c0-.323.31-1.384-.982-1.384h-10.843c-1.55 0-1.44.672-1.44 1.254v3.445h-3.446v-5.024c0-.086.003-.202.014-.333.07-.862.474-2.5 2.68-2.5H330.9c2.206 0 2.612 1.638 2.68 2.5.011.132.014.247.014.333v4.418h.005z" style="fill:#254aa5;fill-opacity:1;fill-rule:evenodd;stroke:none" transform="matrix(3.90914 0 0 -3.90914 -439.114 2493.333)"/></svg>