<svg xmlns="http://www.w3.org/2000/svg" width="1028.255" height="180.667" viewBox="0 0 272.059 47.801"><defs><clipPath id="a"><path d="M232.39 493.004h21.008v54.625h-21.007zm0 0"/></clipPath><clipPath id="c"><path d="M231.04 473.066c0 6.664 5.32 12.09 11.855 12.09 6.542 0 11.867-5.426 11.867-12.09 0-6.668-5.325-12.09-11.867-12.09-6.536 0-11.856 5.422-11.856 12.09"/></clipPath><clipPath id="e"><path d="M161 460h62v90h-62zm0 0"/></clipPath><clipPath id="f"><path d="M161.617 485.855c-.347 16.672 11.547 22.399 22.723 26.47 10.789 3.917 16.637 7.023 16.637 12.183 0 5.394-4.993 8.476-13.692 8.476-11.976 0-20.851-6.152-21.23-6.422l-.883-.632a.924.924 0 0 0-.45-.118.94.94 0 0 0-.937.915v14.609l.664.437c.461.313 11.555 7.598 27.211 7.598 22.496 0 30.48-15.363 30.48-28.52 0-11.171-5.902-19.203-18.042-24.539-2.368-1.042-4.832-1.957-7.239-2.851l-.16-.063c-7.379-2.726-14.351-5.293-14.09-9.964.16-2.993 2.75-6.188 9.543-6.188 13.836 0 23.137 5.961 23.203 6l.98.656c.102.032.208.047.321.047.48 0 .883-.37.926-.84v-14.265l-.613-.442c-.434-.304-10.723-7.476-25.278-7.476-11.879 0-29.695 6.637-30.074 24.93"/></clipPath><clipPath id="h"><path d="M98.035 476.941a23.08 23.08 0 0 0-.812 2.383c0 .012-.004.016-.008.028l.004-.004c-.551 1.98-.875 4.144-.922 6.488-.008.324 0 .644 0 .965h.008c.117 15.933 11.761 21.535 22.718 25.523 10.79 3.918 16.637 7.024 16.637 12.184 0 5.394-4.988 8.476-13.687 8.476-11.98 0-20.852-6.152-21.235-6.422l-.879-.632a.948.948 0 0 0-.449-.118c-.504 0-.937.41-.941.914v14.61l.664.437c.465.313 11.558 7.598 27.21 7.598 22.497 0 30.481-15.363 30.481-28.52 0-11.171-5.902-19.203-18.039-24.539-2.37-1.043-4.84-1.957-7.234-2.851l-.168-.063c-7.38-2.726-14.348-5.293-14.09-9.965.16-2.992 2.754-6.187 9.543-6.187 13.836 0 23.14 5.96 23.2 6l.984.656c.097.031.203.047.32.047.48 0 .883-.371.926-.84v-14.265l-.614-.442c-.43-.304-10.722-7.476-25.273-7.476-.55 0-1.121.02-1.695.047l.046-.04c63.688-33.605 127.81-24.234 173.848.27l.004.004a42.92 42.92 0 0 0-5.015-.281c-11.88 0-29.696 6.636-30.079 24.93-.343 16.671 11.551 22.398 22.73 26.468 10.786 3.918 16.634 7.024 16.634 12.184 0 5.394-4.989 8.476-13.688 8.476-11.98 0-20.855-6.152-21.234-6.422l-.89-.64a.926.926 0 0 0-.434-.11c-.508 0-.946.41-.946.926v14.598l.664.437c.465.313 11.555 7.598 27.211 7.598 22.496 0 30.477-15.363 30.477-28.52 0-11.171-5.903-19.203-18.04-24.539-2.366-1.043-4.835-1.957-7.234-2.851l-.168-.063c-7.37-2.726-14.343-5.293-14.086-9.964.165-2.993 2.754-6.188 9.543-6.188 13.836 0 23.141 5.961 23.204 6l.96.645c.106.039.22.058.344.058.473 0 .871-.36.926-.828v-10.656c0-.238-1.375-6.38-11.25-16.781-27.707-29.196-65.61-41.543-100.027-41.543-50.832 0-99.426 34.32-110.149 62.8m167.625 49.797v-.008zm0 0"/></clipPath><linearGradient id="b" x1=".61" x2=".713" y1="0" y2="0" gradientTransform="translate(108.03 520.317) scale(203.88005)" gradientUnits="userSpaceOnUse"><stop offset="0" stop-color="#008b9f"/><stop offset=".016" stop-color="#008b9f"/><stop offset=".031" stop-color="#008b9f"/><stop offset=".047" stop-color="#008b9e"/><stop offset=".063" stop-color="#008c9e"/><stop offset=".078" stop-color="#008c9e"/><stop offset=".094" stop-color="#008c9d"/><stop offset=".109" stop-color="#008c9c"/><stop offset=".125" stop-color="#008c9c"/><stop offset=".141" stop-color="#008c9b"/><stop offset=".156" stop-color="#008d9b"/><stop offset=".172" stop-color="#008d9b"/><stop offset=".188" stop-color="#008d9a"/><stop offset=".203" stop-color="#008d9a"/><stop offset=".219" stop-color="#008d9a"/><stop offset=".234" stop-color="#008e99"/><stop offset=".25" stop-color="#008e99"/><stop offset=".266" stop-color="#008e98"/><stop offset=".281" stop-color="#008e98"/><stop offset=".297" stop-color="#008e98"/><stop offset=".313" stop-color="#008f97"/><stop offset=".328" stop-color="#008f97"/><stop offset=".344" stop-color="#008f96"/><stop offset=".359" stop-color="#008f96"/><stop offset=".375" stop-color="#008f96"/><stop offset=".391" stop-color="#009095"/><stop offset=".406" stop-color="#009095"/><stop offset=".422" stop-color="#009095"/><stop offset=".438" stop-color="#009094"/><stop offset=".453" stop-color="#009094"/><stop offset=".469" stop-color="#009193"/><stop offset=".484" stop-color="#009193"/><stop offset=".5" stop-color="#009193"/><stop offset=".516" stop-color="#009192"/><stop offset=".531" stop-color="#009191"/><stop offset=".547" stop-color="#009191"/><stop offset=".563" stop-color="#009291"/><stop offset=".578" stop-color="#009290"/><stop offset=".594" stop-color="#009290"/><stop offset=".609" stop-color="#009290"/><stop offset=".625" stop-color="#00938f"/><stop offset=".641" stop-color="#00938f"/><stop offset=".656" stop-color="#00938e"/><stop offset=".672" stop-color="#00938e"/><stop offset=".688" stop-color="#00938e"/><stop offset=".703" stop-color="#00938d"/><stop offset=".719" stop-color="#00938c"/><stop offset=".734" stop-color="#00948c"/><stop offset=".75" stop-color="#00948c"/><stop offset=".766" stop-color="#00948b"/><stop offset=".781" stop-color="#00958b"/><stop offset=".797" stop-color="#00958b"/><stop offset=".813" stop-color="#00958a"/><stop offset=".828" stop-color="#009589"/><stop offset=".844" stop-color="#009589"/><stop offset=".859" stop-color="#009589"/><stop offset=".875" stop-color="#009588"/><stop offset=".891" stop-color="#009688"/><stop offset=".906" stop-color="#009687"/><stop offset=".922" stop-color="#009687"/><stop offset=".938" stop-color="#009686"/><stop offset=".953" stop-color="#009786"/><stop offset=".969" stop-color="#009785"/><stop offset=".984" stop-color="#009785"/><stop offset="1" stop-color="#009785"/></linearGradient><linearGradient id="d" x1=".603" x2=".72" y1="0" y2="0" gradientTransform="translate(108.02 473.065) scale(203.89798)" gradientUnits="userSpaceOnUse"><stop offset="0" stop-color="#008aa1"/><stop offset=".016" stop-color="#008aa1"/><stop offset=".031" stop-color="#008aa0"/><stop offset=".047" stop-color="#008aa0"/><stop offset=".063" stop-color="#008b9f"/><stop offset=".078" stop-color="#008b9f"/><stop offset=".094" stop-color="#008b9e"/><stop offset=".109" stop-color="#008b9e"/><stop offset=".125" stop-color="#008c9e"/><stop offset=".141" stop-color="#008c9d"/><stop offset=".156" stop-color="#008c9c"/><stop offset=".172" stop-color="#008c9c"/><stop offset=".188" stop-color="#008c9b"/><stop offset=".203" stop-color="#008d9b"/><stop offset=".219" stop-color="#008d9a"/><stop offset=".234" stop-color="#008d9a"/><stop offset=".25" stop-color="#008d9a"/><stop offset=".266" stop-color="#008e99"/><stop offset=".281" stop-color="#008e99"/><stop offset=".297" stop-color="#008e98"/><stop offset=".313" stop-color="#008e98"/><stop offset=".328" stop-color="#008e97"/><stop offset=".344" stop-color="#008f97"/><stop offset=".359" stop-color="#008f97"/><stop offset=".375" stop-color="#008f96"/><stop offset=".391" stop-color="#008f96"/><stop offset=".406" stop-color="#009095"/><stop offset=".422" stop-color="#009095"/><stop offset=".438" stop-color="#009094"/><stop offset=".453" stop-color="#009094"/><stop offset=".469" stop-color="#009194"/><stop offset=".484" stop-color="#009193"/><stop offset=".5" stop-color="#009193"/><stop offset=".516" stop-color="#009192"/><stop offset=".531" stop-color="#009191"/><stop offset=".547" stop-color="#009191"/><stop offset=".563" stop-color="#009290"/><stop offset=".578" stop-color="#009290"/><stop offset=".594" stop-color="#009290"/><stop offset=".609" stop-color="#00938f"/><stop offset=".625" stop-color="#00938f"/><stop offset=".641" stop-color="#00938e"/><stop offset=".656" stop-color="#00938e"/><stop offset=".672" stop-color="#00938e"/><stop offset=".688" stop-color="#00938d"/><stop offset=".703" stop-color="#00948c"/><stop offset=".719" stop-color="#00948c"/><stop offset=".734" stop-color="#00948b"/><stop offset=".75" stop-color="#00958b"/><stop offset=".766" stop-color="#00958a"/><stop offset=".781" stop-color="#00958a"/><stop offset=".797" stop-color="#00958a"/><stop offset=".813" stop-color="#009589"/><stop offset=".828" stop-color="#009588"/><stop offset=".844" stop-color="#009588"/><stop offset=".859" stop-color="#009687"/><stop offset=".875" stop-color="#009687"/><stop offset=".891" stop-color="#009686"/><stop offset=".906" stop-color="#009786"/><stop offset=".922" stop-color="#009785"/><stop offset=".938" stop-color="#009785"/><stop offset=".953" stop-color="#009884"/><stop offset=".969" stop-color="#009884"/><stop offset=".984" stop-color="#009884"/><stop offset="1" stop-color="#009883"/></linearGradient><linearGradient id="g" x1=".261" x2=".56" y1="0" y2="0" gradientTransform="translate(108.034 505.148) scale(203.87648)" gradientUnits="userSpaceOnUse"><stop offset="0" stop-color="#0060a8"/><stop offset=".016" stop-color="#0060a8"/><stop offset=".031" stop-color="#0060a8"/><stop offset=".047" stop-color="#0061a8"/><stop offset=".063" stop-color="#0061a8"/><stop offset=".078" stop-color="#0062a8"/><stop offset=".094" stop-color="#0062a9"/><stop offset=".109" stop-color="#0063a8"/><stop offset=".117" stop-color="#0063a9"/><stop offset=".125" stop-color="#0063a8"/><stop offset=".133" stop-color="#0064a9"/><stop offset=".141" stop-color="#0064a9"/><stop offset=".148" stop-color="#0064a9"/><stop offset=".156" stop-color="#0064a9"/><stop offset=".164" stop-color="#0065a9"/><stop offset=".172" stop-color="#0065a9"/><stop offset=".18" stop-color="#0065a9"/><stop offset=".188" stop-color="#0065a9"/><stop offset=".195" stop-color="#06a"/><stop offset=".203" stop-color="#0066a9"/><stop offset=".211" stop-color="#06a"/><stop offset=".219" stop-color="#06a"/><stop offset=".227" stop-color="#0067aa"/><stop offset=".234" stop-color="#0068aa"/><stop offset=".242" stop-color="#0068aa"/><stop offset=".25" stop-color="#0068aa"/><stop offset=".258" stop-color="#0068aa"/><stop offset=".266" stop-color="#0069aa"/><stop offset=".273" stop-color="#0069aa"/><stop offset=".281" stop-color="#0069aa"/><stop offset=".289" stop-color="#0069aa"/><stop offset=".297" stop-color="#006aaa"/><stop offset=".305" stop-color="#006aaa"/><stop offset=".313" stop-color="#006aab"/><stop offset=".32" stop-color="#006baa"/><stop offset=".328" stop-color="#006baa"/><stop offset=".336" stop-color="#006bab"/><stop offset=".344" stop-color="#006baa"/><stop offset=".352" stop-color="#006cab"/><stop offset=".359" stop-color="#006cab"/><stop offset=".367" stop-color="#006cab"/><stop offset=".375" stop-color="#006dab"/><stop offset=".383" stop-color="#006dab"/><stop offset=".391" stop-color="#006dab"/><stop offset=".398" stop-color="#006dab"/><stop offset=".406" stop-color="#006eab"/><stop offset=".414" stop-color="#006eab"/><stop offset=".422" stop-color="#006eab"/><stop offset=".43" stop-color="#006fac"/><stop offset=".438" stop-color="#006fab"/><stop offset=".445" stop-color="#006fab"/><stop offset=".453" stop-color="#006fab"/><stop offset=".461" stop-color="#0070ab"/><stop offset=".469" stop-color="#0070ac"/><stop offset=".477" stop-color="#0070ab"/><stop offset=".484" stop-color="#0070ac"/><stop offset=".492" stop-color="#0070ac"/><stop offset=".5" stop-color="#0071ab"/><stop offset=".508" stop-color="#0071ac"/><stop offset=".516" stop-color="#0071ac"/><stop offset=".523" stop-color="#0072ac"/><stop offset=".531" stop-color="#0072ac"/><stop offset=".539" stop-color="#0072ac"/><stop offset=".547" stop-color="#0073ac"/><stop offset=".555" stop-color="#0073ac"/><stop offset=".563" stop-color="#0073ac"/><stop offset=".57" stop-color="#0074ac"/><stop offset=".578" stop-color="#0074ac"/><stop offset=".586" stop-color="#0074ac"/><stop offset=".594" stop-color="#0075ac"/><stop offset=".602" stop-color="#0075ac"/><stop offset=".609" stop-color="#0075ac"/><stop offset=".617" stop-color="#0075ac"/><stop offset=".625" stop-color="#0076ac"/><stop offset=".633" stop-color="#0076ac"/><stop offset=".641" stop-color="#0076ac"/><stop offset=".648" stop-color="#0077ac"/><stop offset=".656" stop-color="#0077ad"/><stop offset=".664" stop-color="#0077ac"/><stop offset=".672" stop-color="#0078ad"/><stop offset=".68" stop-color="#0078ad"/><stop offset=".688" stop-color="#0078ac"/><stop offset=".695" stop-color="#0078ad"/><stop offset=".703" stop-color="#0079ad"/><stop offset=".711" stop-color="#0079ad"/><stop offset=".719" stop-color="#0079ad"/><stop offset=".727" stop-color="#007aad"/><stop offset=".734" stop-color="#007aad"/><stop offset=".742" stop-color="#007aad"/><stop offset=".75" stop-color="#007bad"/><stop offset=".758" stop-color="#007bad"/><stop offset=".766" stop-color="#007bad"/><stop offset=".773" stop-color="#007cad"/><stop offset=".781" stop-color="#007cad"/><stop offset=".789" stop-color="#007cad"/><stop offset=".797" stop-color="#007dad"/><stop offset=".805" stop-color="#007dad"/><stop offset=".813" stop-color="#007dad"/><stop offset=".82" stop-color="#007dad"/><stop offset=".828" stop-color="#007ead"/><stop offset=".836" stop-color="#007ead"/><stop offset=".844" stop-color="#007ead"/><stop offset=".852" stop-color="#007fad"/><stop offset=".859" stop-color="#007fad"/><stop offset=".867" stop-color="#007fad"/><stop offset=".875" stop-color="#0080ad"/><stop offset=".883" stop-color="#0080ad"/><stop offset=".891" stop-color="#0080ad"/><stop offset=".898" stop-color="#0081ad"/><stop offset=".906" stop-color="#0081ad"/><stop offset=".914" stop-color="#0081ad"/><stop offset=".922" stop-color="#0081ad"/><stop offset=".93" stop-color="#0082ad"/><stop offset=".938" stop-color="#0082ad"/><stop offset=".945" stop-color="#0082ad"/><stop offset=".953" stop-color="#0083ad"/><stop offset=".961" stop-color="#0083ad"/><stop offset=".969" stop-color="#0083ac"/><stop offset=".973" stop-color="#0084ad"/><stop offset=".977" stop-color="#0084ac"/><stop offset=".98" stop-color="#0084ac"/><stop offset=".984" stop-color="#0084ac"/><stop offset=".988" stop-color="#0084ab"/><stop offset=".992" stop-color="#0084ab"/><stop offset=".996" stop-color="#0084ab"/><stop offset="1" stop-color="#0084aa"/></linearGradient><linearGradient id="i" x1="-.058" x2="1.059" y1="0" y2="0" gradientTransform="translate(108.033 481.756) scale(203.88228)" gradientUnits="userSpaceOnUse"><stop offset="0" stop-color="#004ea2"/><stop offset=".063" stop-color="#004ea2"/><stop offset=".078" stop-color="#004ea2"/><stop offset=".086" stop-color="#004fa2"/><stop offset=".094" stop-color="#004fa2"/><stop offset=".102" stop-color="#004fa3"/><stop offset=".109" stop-color="#0050a3"/><stop offset=".117" stop-color="#0050a3"/><stop offset=".125" stop-color="#0050a3"/><stop offset=".133" stop-color="#0051a3"/><stop offset=".141" stop-color="#0051a3"/><stop offset=".148" stop-color="#0052a4"/><stop offset=".152" stop-color="#0053a4"/><stop offset=".156" stop-color="#0053a4"/><stop offset=".16" stop-color="#0053a4"/><stop offset=".164" stop-color="#0053a4"/><stop offset=".168" stop-color="#0054a4"/><stop offset=".172" stop-color="#0054a4"/><stop offset=".176" stop-color="#0054a4"/><stop offset=".18" stop-color="#0055a5"/><stop offset=".184" stop-color="#0055a4"/><stop offset=".188" stop-color="#0055a4"/><stop offset=".191" stop-color="#0056a5"/><stop offset=".195" stop-color="#0056a5"/><stop offset=".199" stop-color="#0056a5"/><stop offset=".203" stop-color="#0057a5"/><stop offset=".207" stop-color="#0057a5"/><stop offset=".211" stop-color="#0058a5"/><stop offset=".215" stop-color="#0058a5"/><stop offset=".219" stop-color="#0058a5"/><stop offset=".223" stop-color="#0059a5"/><stop offset=".227" stop-color="#0059a6"/><stop offset=".23" stop-color="#005aa6"/><stop offset=".234" stop-color="#005aa6"/><stop offset=".238" stop-color="#005aa6"/><stop offset=".242" stop-color="#005ba6"/><stop offset=".246" stop-color="#005ba7"/><stop offset=".25" stop-color="#005ba6"/><stop offset=".254" stop-color="#005ca7"/><stop offset=".258" stop-color="#005ca7"/><stop offset=".262" stop-color="#005da7"/><stop offset=".266" stop-color="#005ea7"/><stop offset=".27" stop-color="#005ea7"/><stop offset=".273" stop-color="#005ea7"/><stop offset=".277" stop-color="#005fa8"/><stop offset=".281" stop-color="#005fa8"/><stop offset=".285" stop-color="#0060a8"/><stop offset=".289" stop-color="#0060a8"/><stop offset=".293" stop-color="#0061a8"/><stop offset=".297" stop-color="#0061a8"/><stop offset=".301" stop-color="#0061a8"/><stop offset=".305" stop-color="#0062a8"/><stop offset=".309" stop-color="#0062a9"/><stop offset=".313" stop-color="#0063a8"/><stop offset=".316" stop-color="#0063a9"/><stop offset=".32" stop-color="#0064a9"/><stop offset=".324" stop-color="#0064a9"/><stop offset=".328" stop-color="#0065a9"/><stop offset=".332" stop-color="#0065a9"/><stop offset=".336" stop-color="#06a"/><stop offset=".34" stop-color="#06a"/><stop offset=".344" stop-color="#0067aa"/><stop offset=".348" stop-color="#0068aa"/><stop offset=".352" stop-color="#0068aa"/><stop offset=".355" stop-color="#0069aa"/><stop offset=".359" stop-color="#0069aa"/><stop offset=".363" stop-color="#006aaa"/><stop offset=".367" stop-color="#006aab"/><stop offset=".371" stop-color="#006baa"/><stop offset=".375" stop-color="#006bab"/><stop offset=".379" stop-color="#006cab"/><stop offset=".383" stop-color="#006cab"/><stop offset=".387" stop-color="#006dab"/><stop offset=".391" stop-color="#006dab"/><stop offset=".395" stop-color="#006eab"/><stop offset=".398" stop-color="#006eab"/><stop offset=".402" stop-color="#006fab"/><stop offset=".406" stop-color="#0070ab"/><stop offset=".41" stop-color="#0070ac"/><stop offset=".414" stop-color="#0070ac"/><stop offset=".418" stop-color="#0071ab"/><stop offset=".422" stop-color="#0071ac"/><stop offset=".426" stop-color="#0072ac"/><stop offset=".43" stop-color="#0073ac"/><stop offset=".434" stop-color="#0073ac"/><stop offset=".438" stop-color="#0074ac"/><stop offset=".441" stop-color="#0074ac"/><stop offset=".445" stop-color="#0075ac"/><stop offset=".449" stop-color="#0075ac"/><stop offset=".453" stop-color="#0076ac"/><stop offset=".457" stop-color="#0077ac"/><stop offset=".461" stop-color="#0077ad"/><stop offset=".465" stop-color="#0078ad"/><stop offset=".469" stop-color="#0078ad"/><stop offset=".473" stop-color="#0079ad"/><stop offset=".477" stop-color="#0079ad"/><stop offset=".48" stop-color="#007aad"/><stop offset=".484" stop-color="#007bad"/><stop offset=".488" stop-color="#007bad"/><stop offset=".492" stop-color="#007cad"/><stop offset=".496" stop-color="#007cad"/><stop offset=".5" stop-color="#007dad"/><stop offset=".504" stop-color="#007dad"/><stop offset=".508" stop-color="#007ead"/><stop offset=".512" stop-color="#007fad"/><stop offset=".516" stop-color="#007fad"/><stop offset=".52" stop-color="#0080ad"/><stop offset=".523" stop-color="#0080ad"/><stop offset=".527" stop-color="#0081ad"/><stop offset=".531" stop-color="#0081ad"/><stop offset=".535" stop-color="#0082ad"/><stop offset=".539" stop-color="#0083ad"/><stop offset=".543" stop-color="#0083ac"/><stop offset=".547" stop-color="#0084ac"/><stop offset=".551" stop-color="#0084ab"/><stop offset=".555" stop-color="#0085aa"/><stop offset=".559" stop-color="#0085a9"/><stop offset=".563" stop-color="#0086a8"/><stop offset=".566" stop-color="#0086a7"/><stop offset=".57" stop-color="#0087a6"/><stop offset=".574" stop-color="#0088a5"/><stop offset=".578" stop-color="#0088a5"/><stop offset=".582" stop-color="#0088a3"/><stop offset=".586" stop-color="#0089a2"/><stop offset=".59" stop-color="#008aa1"/><stop offset=".594" stop-color="#008aa0"/><stop offset=".598" stop-color="#008b9f"/><stop offset=".602" stop-color="#008b9e"/><stop offset=".605" stop-color="#008c9d"/><stop offset=".609" stop-color="#008c9c"/><stop offset=".613" stop-color="#008d9b"/><stop offset=".617" stop-color="#008d9a"/><stop offset=".621" stop-color="#008e99"/><stop offset=".625" stop-color="#008e97"/><stop offset=".629" stop-color="#008f96"/><stop offset=".633" stop-color="#009095"/><stop offset=".637" stop-color="#009094"/><stop offset=".641" stop-color="#009193"/><stop offset=".645" stop-color="#009192"/><stop offset=".648" stop-color="#009291"/><stop offset=".652" stop-color="#009290"/><stop offset=".656" stop-color="#00938f"/><stop offset=".66" stop-color="#00938e"/><stop offset=".664" stop-color="#00948c"/><stop offset=".668" stop-color="#00948b"/><stop offset=".672" stop-color="#00958a"/><stop offset=".676" stop-color="#009589"/><stop offset=".68" stop-color="#009688"/><stop offset=".684" stop-color="#009686"/><stop offset=".688" stop-color="#009785"/><stop offset=".691" stop-color="#009884"/><stop offset=".695" stop-color="#009883"/><stop offset=".699" stop-color="#009982"/><stop offset=".703" stop-color="#009981"/><stop offset=".707" stop-color="#009a7f"/><stop offset=".711" stop-color="#009b7e"/><stop offset=".715" stop-color="#009b7d"/><stop offset=".719" stop-color="#009b7c"/><stop offset=".723" stop-color="#009c7b"/><stop offset=".727" stop-color="#009d79"/><stop offset=".73" stop-color="#009d78"/><stop offset=".734" stop-color="#009e77"/><stop offset=".738" stop-color="#009e75"/><stop offset=".742" stop-color="#009f74"/><stop offset=".746" stop-color="#0aa073"/><stop offset=".75" stop-color="#12a071"/><stop offset=".754" stop-color="#17a170"/><stop offset=".758" stop-color="#1da170"/><stop offset=".762" stop-color="#21a26e"/><stop offset=".766" stop-color="#24a36d"/><stop offset=".77" stop-color="#28a36c"/><stop offset=".773" stop-color="#2ca36a"/><stop offset=".777" stop-color="#2ea469"/><stop offset=".781" stop-color="#31a568"/><stop offset=".785" stop-color="#34a566"/><stop offset=".789" stop-color="#37a665"/><stop offset=".793" stop-color="#39a664"/><stop offset=".797" stop-color="#3ba762"/><stop offset=".801" stop-color="#3da761"/><stop offset=".805" stop-color="#3fa860"/><stop offset=".809" stop-color="#3fa85e"/><stop offset=".813" stop-color="#41a95e"/><stop offset=".816" stop-color="#43aa5c"/><stop offset=".82" stop-color="#45aa5b"/><stop offset=".824" stop-color="#47ab59"/><stop offset=".828" stop-color="#49ab58"/><stop offset=".832" stop-color="#4bac57"/><stop offset=".836" stop-color="#4cac56"/><stop offset=".84" stop-color="#4ead54"/><stop offset=".844" stop-color="#50ad52"/><stop offset=".848" stop-color="#51ae51"/><stop offset=".852" stop-color="#53af50"/><stop offset=".855" stop-color="#55af4e"/><stop offset=".859" stop-color="#56b04d"/><stop offset=".863" stop-color="#58b04b"/><stop offset=".867" stop-color="#58b14a"/><stop offset=".871" stop-color="#59b149"/><stop offset=".875" stop-color="#5bb247"/><stop offset=".879" stop-color="#5cb246"/><stop offset=".883" stop-color="#5eb345"/><stop offset=".887" stop-color="#60b343"/><stop offset=".891" stop-color="#61b442"/><stop offset=".895" stop-color="#61b440"/><stop offset=".898" stop-color="#62b53e"/><stop offset=".902" stop-color="#64b53d"/><stop offset=".906" stop-color="#65b63b"/><stop offset=".91" stop-color="#67b739"/><stop offset=".914" stop-color="#67b637"/><stop offset=".918" stop-color="#68b736"/><stop offset=".922" stop-color="#6ab835"/><stop offset=".926" stop-color="#6bb833"/><stop offset=".93" stop-color="#6bb832"/><stop offset=".934" stop-color="#6cb930"/><stop offset=".938" stop-color="#6db92e"/><stop offset=".941" stop-color="#6db92e"/><stop offset=".945" stop-color="#6fba2c"/><stop offset=".953" stop-color="#6fba2c"/><stop offset=".969" stop-color="#6fba2c"/><stop offset="1" stop-color="#6fba2c"/></linearGradient></defs><g clip-path="url(#a)" transform="translate(-33.97 -146.1) scale(.35278)"><path fill="url(#b)" d="M232.39 493.004v54.625h21.008v-54.625zm0 0"/></g><g clip-path="url(#c)" transform="translate(-33.97 -146.1) scale(.35278)"><path fill="url(#d)" d="M231.04 460.977v24.18h23.722v-24.18zm0 0"/></g><g clip-path="url(#e)" transform="translate(-33.97 -146.1) scale(.35278)"><g clip-path="url(#f)"><path fill="url(#g)" d="M161.27 460.926v88.445h60.87v-88.445zm0 0"/></g></g><g clip-path="url(#h)" transform="translate(-33.97 -146.1) scale(.35278)"><path fill="url(#i)" d="M96.29 414.14v135.231h227.722v-135.23zm0 0"/></g><path fill="#575757" d="M258.328 38.278v-5.785h3.123v3.588h10.608v2.197zm10.311-4.684v-2.617h-4.166v-2.018h4.166v-1.912l-.161.102c-.337.217-.834.624-3.65.624h-3.377v3.34h-3.124v-3.34H252.9v-2.192h12.502c1.804 0 2.697-.466 3.151-.746l.086-.05V16.59h2.921v14.89c0 1.097-.868 2.03-1.973 2.113zM156.82 20.475c-1.127 0-2.042 1.095-2.042 2.442 0 1.342.915 2.438 2.041 2.438 1.132 0 2.053-1.096 2.053-2.438 0-1.347-.921-2.442-2.053-2.442m8.01 17.804v-6.931l-.089.041c-.424.201-1.174.33-1.73.387-.62.06-1.461.091-2.5.091h-11.004v-2.194h5.886V27.34l-.046-.013c-2.059-.61-3.444-2.384-3.444-4.412 0-1.03.359-2.01 1.037-2.83l.082-.098h-2.542v-2.081h4.899V15.79h2.9v2.115h4.853v2.08h-2.503l.081.1c.678.824 1.037 1.801 1.037 2.829 0 2.016-1.373 3.783-3.418 4.403l-.044.012v2.344h3.153c.77 0 1.422-.053 1.93-.161.446-.09 1.118-.23 1.431-.408l.03-.018V16.59h2.874v19.58c0 1.161-.958 2.11-2.14 2.11zm-22.215.001V16.59h2.9v7.245h3.01v2.196h-3.01V36.17c0 1.162-.958 2.11-2.138 2.11zm-2.991-7.56c-3.21-1.336-4.873-3.593-5.303-4.252l-.052-.08-.053.08c-.457.697-2.188 3.065-5.307 4.254l-.046.018-1.529-1.85.09-.037c.218-.09 5.326-2.27 5.326-7.543v-4.605h3.037v4.605c0 4.988 5.268 7.52 5.32 7.545l.084.037-1.518 1.85zm-17.051-1.387h-3.861V26.56h8.172v-2.24h-3.095a15.81 15.81 0 0 0 .278-3.03v-4.7h-12.802v2.284h10.07l-.021 2.885c0 1.01-.042 1.863-.128 2.56h-12.652v2.241h7.34v2.773h-5.014v2.304h10.348v6.64h.938a1.984 1.984 0 0 0 1.984-1.984v-5.402c0-.86-.697-1.558-1.557-1.558m-28.221 1.41H91.23v7.535h13.732v-2.472H94.35zm10.362-8.118V16.59h-2.873v17.004h.734c1.181 0 2.139-.948 2.139-2.11v-6.663h3.012v-2.196zm-13.235.945c0-1.45 1.049-2.628 2.339-2.628s2.338 1.178 2.338 2.628c0 1.448-1.048 2.627-2.338 2.627s-2.339-1.179-2.339-2.627m7.45 0c0-1.418-.642-2.693-1.66-3.584h2.874v-2.081h-4.854V15.79H92.39v2.115h-4.9v2.08h2.875c-1.017.892-1.66 2.167-1.66 3.585 0 2.689 2.294 4.875 5.112 4.875 2.82 0 5.11-2.186 5.11-4.875m76.815 2.183h9.116v-3.397h-9.116zm-5.352 7.669v-2.194h8.614v-3.281h-6.161V16.59h2.9v3.57h9.115v-3.57h2.9v9.248c0 1.163-.96 2.109-2.138 2.109h-3.712v3.28h8.595v2.195zm31.734-5.542c-3.11-1.456-4.498-3.686-4.841-4.241l-.053-.086-.054.086c-.418.656-1.937 3.074-4.838 4.243l-.048.015-1.476-1.663.1-.035c.06-.018 4.55-1.607 4.65-6.978l.002-.458h-3.73V16.59h10.84v2.173h-3.794l.003.458c.1 5.137 4.48 6.95 4.54 6.974l.086.036-1.338 1.672zm3.512.764V16.59h2.9v4.092h3.012v2.196h-3.012v3.658c0 1.164-.96 2.108-2.14 2.108zm-2.786 2.132c-1.4 0-2.537 1.18-2.537 2.628 0 1.45 1.137 2.628 2.537 2.628 1.399 0 2.537-1.179 2.537-2.628s-1.138-2.628-2.537-2.628m0 7.503c-3.058 0-5.547-2.187-5.547-4.875s2.489-4.874 5.547-4.874 5.545 2.186 5.545 4.874c0 2.688-2.487 4.875-5.545 4.875m24.847-9.635v-5.84h-3.602v-2.216h3.602V16.59h2.923v10.023l-.008.033c-.058 1.124-.998 1.998-2.135 1.998zm10.506-2.891h9.11v-3.397h-9.11zm-5.353 7.912V31.47h8.611v-3.522h-6.158V16.59h2.9v3.57h9.11v-3.57h2.9v9.248c0 1.163-.96 2.109-2.139 2.109h-3.71v3.522h8.598v2.196zm-8.175-2.889c-1.403 0-2.544 1.18-2.544 2.628 0 1.45 1.141 2.628 2.544 2.628 1.395 0 2.533-1.179 2.533-2.628s-1.138-2.628-2.533-2.628m0 7.503c-3.062 0-5.55-2.187-5.55-4.875s2.488-4.874 5.55-4.874c3.06 0 5.541 2.186 5.541 4.874 0 2.688-2.482 4.875-5.54 4.875"/><path fill="#575757" d="M223.327 27.88c-3.11-1.456-4.496-3.421-4.84-3.98l-.052-.083-.055.084c-.417.658-1.934 2.812-4.84 3.98l-.042.016-1.479-1.663.1-.035c.062-.018 4.551-1.607 4.65-6.978l.002-.458h-3.73V16.59h10.842v2.173h-3.797l.004.458c.102 5.137 4.482 6.95 4.541 6.974l.086.036-1.339 1.672zm36.563-9.854c-1.122 0-2.037 1.036-2.037 2.308 0 1.274.915 2.31 2.037 2.31 1.12 0 2.03-1.036 2.03-2.31 0-1.272-.91-2.308-2.03-2.308m0 6.856c-2.803 0-5.081-2.042-5.081-4.548 0-2.505 2.278-4.544 5.08-4.544 2.8 0 5.079 2.04 5.079 4.544 0 2.506-2.28 4.548-5.078 4.548M121.562 43.026a6.046 6.046 0 0 0-.546-.179 2.174 2.174 0 0 0-.501-.052c-.116 0-.234.012-.346.036-.116.025-.22.063-.316.121a.624.624 0 0 0-.228.227.72.72 0 0 0-.082.352c0 .201.076.37.232.49.151.122.394.264.725.42.227.105.414.2.562.283.145.084.288.192.422.319.133.128.243.28.328.464.078.182.122.395.122.64 0 .285-.052.531-.156.738a1.296 1.296 0 0 1-.435.513 1.924 1.924 0 0 1-.64.293 3.15 3.15 0 0 1-.8.092c-.178 0-.356-.019-.535-.059a4.594 4.594 0 0 1-.606-.17l.08-.728c.17.067.358.127.569.183.21.057.405.084.584.084a1.367 1.367 0 0 0 .732-.214.811.811 0 0 0 .26-.285.774.774 0 0 0 .102-.398.721.721 0 0 0-.085-.358 1.062 1.062 0 0 0-.234-.286c-.133-.106-.374-.242-.725-.4-.218-.108-.397-.2-.535-.275a2.428 2.428 0 0 1-.4-.285 1.285 1.285 0 0 1-.301-.419 1.392 1.392 0 0 1-.112-.575c0-.47.167-.84.503-1.1.334-.264.762-.393 1.282-.393a3.9 3.9 0 0 1 .598.05c.207.028.404.078.59.148zm2.122 2.726c.073.26.182.49.334.69.149.205.342.362.576.477.235.115.506.175.813.175.31 0 .58-.06.813-.175.236-.115.427-.275.58-.482.15-.201.262-.433.332-.686.073-.254.108-.522.108-.809 0-.281-.038-.55-.115-.808a2.149 2.149 0 0 0-.347-.689c-.153-.2-.347-.36-.576-.475a1.766 1.766 0 0 0-.795-.175c-.296 0-.561.06-.791.175a1.638 1.638 0 0 0-.579.475 2.146 2.146 0 0 0-.346.69 2.846 2.846 0 0 0-.116.807c0 .287.035.555.11.81m-.777-1.936c.122-.35.298-.65.531-.903a2.42 2.42 0 0 1 .849-.595c.332-.14.707-.213 1.119-.213.415 0 .788.073 1.122.213.337.14.621.34.853.595.228.253.406.553.522.903.12.347.183.724.183 1.126 0 .422-.063.805-.183 1.152a2.561 2.561 0 0 1-.522.898 2.317 2.317 0 0 1-.848.588c-.33.136-.707.203-1.127.203-.418 0-.794-.067-1.127-.203a2.326 2.326 0 0 1-.844-.588 2.616 2.616 0 0 1-.528-.898 3.502 3.502 0 0 1-.179-1.152c0-.402.06-.779.18-1.126m10.151-.712a2.255 2.255 0 0 0-1.15-.309c-.313 0-.602.055-.868.161a1.883 1.883 0 0 0-.68.447c-.19.193-.332.421-.435.689a2.38 2.38 0 0 0-.152.85c0 .317.054.606.16.874.106.263.256.492.448.683.197.189.419.338.674.44.256.102.526.155.814.155.207 0 .429-.024.659-.077a1.89 1.89 0 0 0 .553-.191l.046.762a2.22 2.22 0 0 1-.609.157 5.6 5.6 0 0 1-.656.038 3.48 3.48 0 0 1-1.199-.2 2.628 2.628 0 0 1-.928-.577 2.475 2.475 0 0 1-.598-.908 3.199 3.199 0 0 1-.21-1.177c0-.413.072-.796.218-1.145.14-.346.347-.646.61-.897.268-.248.58-.44.944-.573.356-.134.75-.201 1.17-.201.473 0 .89.078 1.251.238zm1.026-.906h.796v5.492h-.796zm4.365.739-1.105 2.723h2.215zm-.391-.739h.84l2.349 5.493h-.868l-.565-1.385h-2.726l-.565 1.385h-.838zm3.984 0h.8v4.8h2.328v.692h-3.128zm8.736.828a5.766 5.766 0 0 0-.544-.179 2.182 2.182 0 0 0-.501-.052c-.117 0-.235.012-.349.036a1 1 0 0 0-.313.121.564.564 0 0 0-.227.227.664.664 0 0 0-.086.352.6.6 0 0 0 .23.49c.158.122.396.264.725.42.233.105.42.2.565.283.146.084.287.192.422.319.137.128.244.28.327.464.082.182.124.395.124.64a1.6 1.6 0 0 1-.156.738c-.102.215-.25.383-.433.513a2 2 0 0 1-.643.293 3.154 3.154 0 0 1-.8.092c-.176 0-.355-.019-.534-.059a4.466 4.466 0 0 1-.605-.17l.08-.728c.17.067.36.127.568.183.209.057.406.084.584.084.122 0 .246-.016.377-.052.124-.035.246-.088.355-.162a.815.815 0 0 0 .362-.683.721.721 0 0 0-.085-.358 1.03 1.03 0 0 0-.233-.286c-.134-.106-.375-.242-.727-.4-.219-.108-.395-.2-.533-.275a2.216 2.216 0 0 1-.4-.285 1.265 1.265 0 0 1-.301-.419 1.349 1.349 0 0 1-.113-.575c0-.47.168-.84.501-1.1.338-.264.764-.393 1.285-.393.19 0 .391.018.6.05a2.7 2.7 0 0 1 .589.148zm1.497-.828h3.115v.693h-2.317v1.604h2.11v.695h-2.11v1.808h2.317v.692h-3.115zm8.231.906a2.224 2.224 0 0 0-1.146-.309 2.31 2.31 0 0 0-.867.161 1.905 1.905 0 0 0-.685.447 1.989 1.989 0 0 0-.431.689 2.38 2.38 0 0 0-.153.85c0 .317.053.606.161.874.103.263.254.492.448.683.196.189.419.338.676.44.254.102.524.155.813.155.207 0 .426-.024.66-.077.233-.05.417-.114.55-.191l.046.762a2.27 2.27 0 0 1-.608.157 5.57 5.57 0 0 1-.657.038c-.438 0-.834-.067-1.195-.2a2.652 2.652 0 0 1-.934-.577 2.524 2.524 0 0 1-.597-.908 3.227 3.227 0 0 1-.208-1.177c0-.413.07-.796.214-1.145a2.56 2.56 0 0 1 .616-.897c.264-.248.58-.44.938-.573a3.375 3.375 0 0 1 1.175-.201c.472 0 .89.078 1.25.238zm5.358 2.313c0 .762-.189 1.35-.562 1.757-.374.406-.908.61-1.599.61-.69 0-1.223-.204-1.597-.61-.373-.406-.56-.995-.56-1.757v-3.219h.794v3.115c0 .569.108 1.007.316 1.316.21.31.558.464 1.047.464.49 0 .84-.154 1.052-.464.208-.309.311-.747.311-1.316v-3.115h.798zm2.174-.86h.679c.374 0 .67-.077.884-.227a.742.742 0 0 0 .319-.63.69.69 0 0 0-.288-.592c-.192-.142-.465-.217-.829-.217h-.764zm-.796-2.359h1.362c.32 0 .602.02.848.055.242.038.462.107.663.21.197.102.356.253.477.455.114.198.171.453.171.767 0 .325-.106.601-.32.826a1.445 1.445 0 0 1-.828.425v.016a.865.865 0 0 1 .3.186c.078.074.159.197.244.366l1.052 2.186h-.908l-.85-1.905c-.116-.24-.235-.391-.363-.445-.125-.062-.317-.088-.572-.088h-.48v2.438h-.796zm4.916 0h.797v5.492h-.796zm3.323.693h-1.726v-.693h4.254v.693h-1.731v4.8h-.797zm4.88 2.503-2.177-3.196h.934l1.655 2.463 1.62-2.463h.93l-2.167 3.196v2.297h-.795zm5.974-3.196h.8v5.492h-.8zm2.209 0h1.086l2.453 4.42h.015v-4.42h.798v5.492h-1.019l-2.522-4.515h-.01v4.515h-.801zm5.714 0h2.956v.693h-2.162v1.604h2.069v.695h-2.069v2.5h-.795zm4.697 3.554c.073.26.183.49.336.69.152.205.343.362.578.477.232.115.505.175.811.175.31 0 .58-.06.815-.175a1.56 1.56 0 0 0 .577-.482c.149-.201.263-.433.336-.686a3.011 3.011 0 0 0-.008-1.617 2.071 2.071 0 0 0-.349-.689c-.155-.2-.347-.36-.577-.475a1.744 1.744 0 0 0-.794-.175c-.3 0-.562.06-.792.175a1.629 1.629 0 0 0-.576.475c-.155.203-.27.433-.347.69a2.797 2.797 0 0 0-.115.807c0 .287.032.555.105.81m-.773-1.936c.122-.35.299-.65.53-.903a2.43 2.43 0 0 1 .85-.595 2.84 2.84 0 0 1 1.118-.213c.416 0 .788.073 1.126.213.332.14.615.34.848.595.232.253.406.553.525.903.12.347.18.724.18 1.126 0 .422-.06.805-.18 1.152a2.546 2.546 0 0 1-.525.898 2.322 2.322 0 0 1-.847.588 2.945 2.945 0 0 1-1.127.203 2.94 2.94 0 0 1-1.127-.203 2.28 2.28 0 0 1-.843-.588 2.594 2.594 0 0 1-.528-.898 3.583 3.583 0 0 1-.178-1.152c0-.402.06-.779.178-1.126m7.058.741h.677c.379 0 .67-.077.882-.227a.736.736 0 0 0 .322-.63.701.701 0 0 0-.29-.592c-.188-.142-.466-.217-.823-.217h-.768zm-.795-2.359h1.36c.32 0 .6.02.845.055.247.038.466.107.667.21.197.102.357.253.474.455.116.198.175.453.175.767 0 .325-.109.601-.325.826-.214.226-.49.369-.826.425v.016a.859.859 0 0 1 .3.186c.078.074.158.197.243.366l1.052 2.186h-.909l-.851-1.905c-.109-.24-.232-.391-.356-.445-.13-.062-.32-.088-.577-.088h-.477v2.438h-.795zm4.923 0h1.315l1.745 4.564 1.711-4.564h1.314v5.492h-.794v-4.752h-.02l-1.836 4.752h-.784l-1.839-4.752h-.016v4.752h-.795zm9.665.739-1.107 2.723h2.215zm-.391-.739h.837l2.353 5.493h-.868l-.568-1.385h-2.726l-.564 1.385h-.837zm4.511.693h-1.726v-.693h4.255v.693h-1.73v4.8h-.799zm3.324-.693h.797v5.492h-.797zm2.881 3.554c.07.26.185.49.334.69.15.205.345.362.577.477.233.115.506.175.812.175.31 0 .58-.06.816-.175.233-.115.424-.275.579-.482.151-.201.26-.433.335-.686.071-.254.104-.522.104-.809 0-.281-.038-.55-.114-.808a2.097 2.097 0 0 0-.349-.689c-.153-.2-.343-.36-.576-.475a1.745 1.745 0 0 0-.795-.175 1.663 1.663 0 0 0-1.368.65 2.08 2.08 0 0 0-.349.69 2.845 2.845 0 0 0-.113.807c0 .287.036.555.108.81m-.776-1.936a2.458 2.458 0 0 1 1.38-1.498 2.84 2.84 0 0 1 1.118-.213c.415 0 .792.073 1.126.213.332.14.617.34.847.595.233.253.41.553.53.903.115.347.177.724.177 1.126 0 .422-.062.805-.177 1.152-.12.343-.297.644-.53.898-.23.255-.514.451-.842.588a2.967 2.967 0 0 1-1.13.203c-.417 0-.796-.067-1.125-.203a2.32 2.32 0 0 1-.845-.588 2.62 2.62 0 0 1-.53-.898 3.583 3.583 0 0 1-.176-1.152c0-.402.06-.779.177-1.126m6.305-1.618h1.081l2.453 4.42h.018v-4.42h.796v5.492h-1.022l-2.512-4.515h-.021v4.515h-.794zm10.5.828a5.897 5.897 0 0 0-.542-.179 2.169 2.169 0 0 0-.503-.052c-.118 0-.23.012-.347.036a1.026 1.026 0 0 0-.313.121.601.601 0 0 0-.229.227.677.677 0 0 0-.084.352c0 .201.075.37.23.49.156.122.396.264.727.42.227.105.417.2.565.283.142.084.286.192.419.319.135.128.244.28.329.464.08.182.123.395.123.64 0 .285-.054.531-.155.738a1.292 1.292 0 0 1-.438.513 1.917 1.917 0 0 1-.64.293 3.17 3.17 0 0 1-.8.092c-.176 0-.357-.019-.532-.059a4.729 4.729 0 0 1-.608-.17l.08-.728c.168.067.359.127.57.183.21.057.405.084.588.084.118 0 .244-.016.373-.052.126-.035.247-.088.353-.162a.8.8 0 0 0 .364-.684.735.735 0 0 0-.083-.357 1.21 1.21 0 0 0-.234-.286c-.134-.106-.378-.242-.726-.4a15.52 15.52 0 0 1-.535-.275 2.371 2.371 0 0 1-.4-.285 1.374 1.374 0 0 1-.303-.419 1.393 1.393 0 0 1-.109-.575c0-.47.166-.84.5-1.1.334-.264.763-.393 1.282-.393.193 0 .394.018.6.05.206.028.405.078.588.148zm1.496-.828h3.118v.693h-2.318v1.604h2.112v.695h-2.112v1.808h2.318v.692h-3.118zm5.144 2.359h.674c.38 0 .674-.077.888-.227a.751.751 0 0 0 .317-.63.706.706 0 0 0-.287-.592c-.19-.142-.466-.217-.83-.217h-.763zm-.799-2.359h1.363c.321 0 .601.02.845.055.245.038.464.107.667.21.197.102.354.253.471.455.117.198.177.453.177.767 0 .325-.108.601-.324.826-.214.226-.49.369-.824.425v.016a.859.859 0 0 1 .297.186c.079.074.16.197.244.366l1.053 2.186h-.908l-.853-1.905c-.114-.24-.23-.391-.362-.445-.126-.062-.316-.088-.57-.088h-.478v2.438h-.798zm7.203 5.492h-.995l-2.096-5.492h.893l1.71 4.799h.02l1.761-4.799h.835zm2.887-5.492h.795v5.492h-.795zm6.054.906a2.233 2.233 0 0 0-1.145-.309 2.36 2.36 0 0 0-.872.161 1.936 1.936 0 0 0-1.11 1.136 2.322 2.322 0 0 0-.154.85c0 .317.054.606.158.874.108.263.255.492.452.683.192.189.42.338.67.44a2.2 2.2 0 0 0 .815.155c.208 0 .428-.024.661-.077.234-.05.416-.114.551-.191l.047.762c-.185.078-.39.13-.609.157a5.616 5.616 0 0 1-.66.038c-.433 0-.831-.067-1.193-.2a2.683 2.683 0 0 1-.933-.577 2.524 2.524 0 0 1-.597-.908 3.227 3.227 0 0 1-.207-1.177c0-.413.073-.796.217-1.145a2.57 2.57 0 0 1 .613-.897 2.72 2.72 0 0 1 .941-.573c.36-.134.752-.201 1.169-.201.474 0 .893.078 1.254.238zm1.069-.906h3.116v.693h-2.318v1.604h2.11v.695h-2.11v1.808h2.318v.692h-3.116zm-177.215.006h.79v2.42l2.348-2.42h1.048l-2.585 2.602 2.79 2.902h-1.15l-2.452-2.697v2.697h-.79zm5.444 3.563c.07.258.182.488.331.69.15.203.34.362.572.478.231.115.499.173.803.173.305 0 .574-.058.805-.173.232-.116.422-.277.572-.481.15-.206.26-.436.33-.69.072-.256.107-.526.107-.808a2.87 2.87 0 0 0-.115-.813 2.126 2.126 0 0 0-.343-.69 1.62 1.62 0 0 0-.57-.476 1.716 1.716 0 0 0-.786-.174c-.293 0-.555.058-.784.174a1.626 1.626 0 0 0-.572.477 2.151 2.151 0 0 0-.341.689 3.021 3.021 0 0 0-.008 1.625m-.765-1.944a2.54 2.54 0 0 1 .523-.906c.232-.255.511-.454.84-.596a2.76 2.76 0 0 1 1.107-.212c.411 0 .782.07 1.112.212.331.142.612.34.84.596.228.255.402.556.52.906.12.349.178.727.178 1.132 0 .42-.059.803-.177 1.15a2.582 2.582 0 0 1-.521.903c-.228.255-.507.45-.835.588a2.91 2.91 0 0 1-1.117.204c-.414 0-.786-.069-1.114-.204a2.304 2.304 0 0 1-.836-.588 2.56 2.56 0 0 1-.52-.903 3.543 3.543 0 0 1-.178-1.15c0-.405.059-.783.178-1.132m6.862.745h.67c.373 0 .665-.078.875-.232a.742.742 0 0 0 .316-.627.71.71 0 0 0-.284-.595c-.19-.145-.463-.217-.82-.217h-.757zm-.788-2.365h1.348c.315 0 .594.02.836.055.241.037.46.106.657.21.198.101.353.253.47.453.115.2.173.457.173.773 0 .325-.106.6-.319.827a1.426 1.426 0 0 1-.816.425v.016c.12.048.22.11.295.186.076.075.157.198.242.366l1.04 2.193h-.899l-.843-1.909c-.111-.241-.23-.391-.355-.45-.127-.057-.316-.086-.568-.086h-.473v2.445h-.788zm4.784 0h3.083v.694h-2.293v1.608h2.088v.694h-2.088v1.813h2.293v.695h-3.083zm6.355.741-1.096 2.727h2.193zm-.386-.741h.828l2.325 5.502h-.859l-.56-1.387h-2.696l-.56 1.387h-.828zm0 0"/></svg>