<svg xmlns="http://www.w3.org/2000/svg" width="1154.4124" height="400" fill="none" viewBox="0 0 1154.4124 400"><path fill="#0082cb" d="M197.655 299.983 131.77 400 65.884 299.983l65.885-100.02ZM197.655 299.983 263.545 400l65.809-100.017-65.81-100.02Z"/><path fill="#0082cb" d="m131.773 199.958 65.889 100.02 65.883-100.02L197.662 99.94ZM65.886 299.976 0 399.92h131.772zM329.36 299.976l-65.815 99.944h131.698z"/><path fill="#00a0d8" d="M197.655 299.983 131.77 400 65.884 299.983l65.885-100.02ZM197.655 299.983 263.545 400l65.809-100.017-65.81-100.02Z"/><path fill="#62b9e3" d="m131.773 199.958 65.889 100.02 65.883-100.02L197.662 99.94Z"/><path fill="#0082cb" d="M65.886 299.976 0 399.92h131.772zM329.36 299.976l-65.815 99.944h131.698z"/><path fill="#62b9e3" d="M395.243 99.944 329.433 0l-65.888 99.944Z"/><path fill="#00a0d8" d="m263.545 100.024 65.889 99.944 65.81-99.944z"/><path fill="#000" d="M620.185 241.454h-30.339l-54.584 63.953h-16.357v-63.953h-23.2V397.84h23.2v-69.53h16.357l59.716 69.53h30.413l-69.526-81.056ZM1007.102 241.454h-23.2V397.84h23.2zM1116.338 334.11c19.256-6.692 31.902-23.796 31.902-44.617 0-27.812-21.342-48.039-50.794-48.039h-59.114V397.84h23.2v-60.606h29.816l36.215 60.606h26.85zm-54.732-69.677h35.619c16.363 0 27.735 10.262 27.735 24.985 0 14.65-11.446 24.838-27.735 24.838h-35.619zM934.302 241.454l-55.397 117.272-55.403-117.272H805.28V397.84h23.575v-91.02l43.502 91.02h13.09l43.5-91.02v91.02h23.502V241.454Z"/><path fill="#000" d="M701.84 239.375c-44.32 0-80.314 35.917-80.314 80.312 0 44.393 35.92 80.313 80.314 80.313 44.32 0 80.314-35.92 80.314-80.313 0-44.395-35.994-80.312-80.314-80.312zm0 138.982c-32.425 0-58.67-26.246-58.67-58.67 0-32.422 26.245-58.672 58.67-58.672 32.418 0 58.67 26.25 58.67 58.672 0 32.424-26.252 58.67-58.67 58.67z"/><path fill="#101820" d="M637.662 143.738c0 1.636-.148 3.42-.376 5.354-.221 1.934-.59 4.016-1.04 6.247l6.172.743c.222-.966.45-1.933.597-3.048.222-1.116.37-2.232.443-3.421.154-1.19.228-2.38.302-3.495.074-1.19.074-2.231.074-3.272v-7.064h-28.782v5.428h22.536v2.528zM652.91 172.962c-1.562-.892-3.495-1.635-5.722-2.156-2.234-.52-4.763-.818-7.514-.818-2.825 0-5.354.298-7.582.818-2.234.52-4.166 1.264-5.803 2.156-1.563.893-2.824 2.008-3.643 3.272a7.661 7.661 0 0 0-1.261 4.24v2.007c0 1.487.443 2.9 1.261 4.239.819 1.264 2.08 2.38 3.643 3.272 1.563.892 3.496 1.636 5.803 2.156 2.228.52 4.757.818 7.582.818 2.824 0 5.28-.297 7.514-.818 2.227-.52 4.16-1.264 5.723-2.156 1.563-.893 2.824-2.008 3.643-3.272.818-1.265 1.268-2.678 1.268-4.239v-2.008c0-1.487-.45-2.9-1.268-4.239-.819-1.264-2.08-2.305-3.643-3.272zm-1.187 9.221c0 .67-.295 1.339-.818 2.008-.523.67-1.342 1.339-2.382 1.934s-2.301 1.041-3.79 1.413c-1.49.372-3.2.52-5.207.52-1.932 0-3.643-.148-5.206-.52-1.483-.372-2.75-.818-3.79-1.413-1.04-.595-1.785-1.19-2.382-1.934-.517-.67-.819-1.338-.819-2.008v-1.264c0-.67.302-1.264.819-2.008.523-.669 1.341-1.338 2.381-1.933 1.04-.595 2.308-1.04 3.791-1.413 1.49-.372 3.2-.52 5.206-.52 1.932 0 3.643.148 5.206.52 1.49.372 2.751.818 3.791 1.413 1.04.595 1.785 1.19 2.382 1.933.523.67.818 1.339.818 2.008zM657.815 133.1h-6.246v35.323h6.246V153.85h8.253v-5.43h-8.253z"/><path fill="#101820" d="M648.443 160.7h-19.108v-12.046h-6.252V160.7h-11.821v5.428h37.181zM757.465 143.738c0 1.636-.154 3.42-.376 5.354-.221 1.934-.597 4.016-1.04 6.247l6.173.743c.221-.966.443-1.933.596-3.048.222-1.116.37-2.232.444-3.421.147-1.19.221-2.38.295-3.495.08-1.19.08-2.231.08-3.272v-7.064h-28.782v5.428h22.536v2.528zM772.628 172.962c-1.557-.892-3.496-1.635-5.723-2.156-2.234-.52-4.763-.818-7.514-.818-2.825 0-5.354.298-7.582.818-2.234.52-4.166 1.264-5.803 2.156-1.563.893-2.824 2.008-3.643 3.272a7.661 7.661 0 0 0-1.261 4.24v2.007c0 1.487.443 2.9 1.261 4.239.819 1.338 2.08 2.38 3.643 3.272 1.563.892 3.496 1.636 5.803 2.156 2.228.52 4.757.818 7.582.818 2.83 0 5.28-.297 7.514-.818 2.227-.52 4.166-1.264 5.723-2.156 1.563-.893 2.83-2.008 3.643-3.272.892-1.265 1.267-2.678 1.267-4.239v-2.008c0-1.487-.449-2.9-1.267-4.239-.813-1.264-2.006-2.305-3.643-3.272zm-1.114 9.221c0 .67-.296 1.339-.819 2.008-.517.67-1.335 1.339-2.381 1.934-1.04.595-2.302 1.041-3.79 1.413-1.49.372-3.195.52-5.207.52-1.932 0-3.643-.148-5.206-.52-1.483-.372-2.751-.818-3.791-1.413-1.04-.595-1.785-1.19-2.382-1.934-.516-.67-.812-1.338-.812-2.008v-1.264c0-.67.296-1.264.812-2.008.524-.669 1.342-1.338 2.382-1.933s2.308-1.04 3.79-1.413c1.49-.372 3.2-.52 5.207-.52 1.932 0 3.643.148 5.206.52 1.49.372 2.75.818 3.79 1.413 1.047.595 1.785 1.19 2.382 1.933.523.67.819 1.339.819 2.008zM777.625 133.1h-6.247v35.323h6.247V153.85h8.178v-5.43h-8.178z"/><path fill="#101820" d="M768.24 160.7h-19.108l-.074-12.046h-6.172V160.7h-11.901v5.428h37.255zM541.218 133.1h-6.172v42.462h6.172V155.93h8.333v-5.428h-8.333zM511.772 174.832h-6.252v16.137h37.335v-5.429h-31.083zM512.585 170.586c2.301 0 4.24-.298 5.944-.893 1.711-.595 3.126-1.412 4.24-2.454 1.12-1.04 2.013-2.157 2.603-3.42a9.203 9.203 0 0 0 .893-3.941v-1.934a9.207 9.207 0 0 0-.893-3.942c-.59-1.264-1.409-2.453-2.603-3.42-1.114-1.041-2.529-1.859-4.24-2.454-1.704-.595-3.717-.892-5.944-.892-2.308 0-4.24.297-5.951.892-1.71.595-3.12 1.413-4.24 2.38a10.523 10.523 0 0 0-2.603 3.42 9.38 9.38 0 0 0-.893 4.016v1.934c0 1.338.302 2.676.893 3.94.597 1.264 1.415 2.455 2.603 3.421 1.12 1.042 2.53 1.86 4.24 2.454 1.637.595 3.643.893 5.95.893zm-7.736-11.08v-1.265c0-.743.148-1.487.443-2.23.302-.745.819-1.413 1.416-1.934a6.222 6.222 0 0 1 2.381-1.339c.966-.371 2.08-.52 3.422-.52 1.335 0 2.449.149 3.421.52a9.048 9.048 0 0 1 2.376 1.339c.67.595 1.114 1.19 1.415 1.933.295.744.443 1.488.443 2.231v1.264c0 .744-.148 1.488-.443 2.232-.301.743-.818 1.413-1.415 1.933a6.205 6.205 0 0 1-2.376 1.339c-.972.371-2.086.52-3.347.52-1.268 0-2.382-.149-3.348-.52-.966-.373-1.785-.819-2.382-1.34a5.624 5.624 0 0 1-1.409-1.932c-.45-.744-.597-1.488-.597-2.232zM529.323 139.574h-13.686v-6.99h-6.172v6.99H495.71v5.355h33.612zM597.514 149.473a61.69 61.69 0 0 0 .295-6.023v-7.957h-38.517v5.354h32.197v2.38a61.42 61.42 0 0 1-.295 6.172 61.065 61.065 0 0 1-1.114 6.915h-37.778v5.355h23.501v10.188h-16.585v5.353h33.016v15.17h6.246v-20.523h-16.357v-10.188h23.87v-5.355h-9.371c.375-2.305.67-4.61.892-6.84zM695.89 154.599c-1.115-1.041-2.53-1.86-4.093-2.529-1.563-.595-3.348-.892-5.28-.892-1.932 0-3.717.297-5.28.892-1.557.595-2.972 1.413-4.086 2.529-1.12 1.04-2.013 2.23-2.603 3.643-.597 1.339-.893 2.826-.893 4.314v3.048c0 1.488.296 2.975.893 4.314.59 1.338 1.483 2.528 2.603 3.643 1.114 1.041 2.529 1.86 4.086 2.528 1.563.595 3.348.893 5.28.893 1.932 0 3.717-.298 5.28-.893 1.563-.594 2.978-1.412 4.092-2.528 1.114-1.041 2.006-2.23 2.603-3.643.591-1.339.893-2.826.893-4.314v-3.048c0-1.488-.302-2.975-.893-4.314-.597-1.412-1.489-2.603-2.603-3.643zm-2.08 10.634c0 .743-.155 1.487-.45 2.305-.295.743-.818 1.487-1.415 2.082-.591.67-1.41 1.115-2.302 1.562-.892.371-1.932.595-3.126.595-1.188 0-2.228-.224-3.12-.595a7.049 7.049 0 0 1-2.308-1.562 9.187 9.187 0 0 1-1.409-2.082 5.987 5.987 0 0 1-.45-2.305v-2.38c0-.744.148-1.487.45-2.305.295-.744.812-1.488 1.41-2.083.596-.669 1.34-1.115 2.307-1.561.892-.372 1.932-.595 3.12-.595 1.194 0 2.234.223 3.126.595a6.967 6.967 0 0 1 2.302 1.561 9.221 9.221 0 0 1 1.415 2.083c.295.743.45 1.487.45 2.305zM689.354 134.748h-6.172v8.18h-11.754v5.28h28.929v-5.28h-11.003zM716.566 154.815h-6.32V133.1h-6.098v58.524h6.098v-31.381h6.32v31.38h6.172v-58.523h-6.172zM831.39 173.338h-24.018v-7.436h-6.246v25.73h36.51v-25.73h-6.245zm0 12.939h-24.018v-7.66h24.019zM831.378 145.82h-11.895a12.94 12.94 0 0 0-1.341-3.942c-.665-1.264-1.637-2.38-2.825-3.42-1.188-.968-2.677-1.785-4.314-2.38-1.71-.595-3.643-.893-5.797-.893-2.381 0-4.535.372-6.32 1.041-1.79.744-3.348 1.636-4.541 2.826-1.188 1.19-2.08 2.454-2.751 3.941-.59 1.488-.892 2.9-.892 4.388v2.38c0 1.487.301 2.974.892 4.387.597 1.487 1.49 2.752 2.75 3.941 1.194 1.19 2.751 2.083 4.542 2.826 1.785.743 3.939 1.041 6.32 1.041 2.228 0 4.16-.298 5.87-.892 1.712-.595 3.2-1.413 4.389-2.454 1.193-1.041 2.16-2.156 2.824-3.496.671-1.338 1.12-2.676 1.268-4.015h11.895v11.898h6.246v-29.968h-6.246v12.79zm-17.772 3.643c0 .893-.221 1.785-.597 2.603-.369.818-.966 1.636-1.63 2.305-.745.67-1.637 1.264-2.677 1.636-1.047.447-2.234.67-3.65.67-1.335 0-2.523-.223-3.643-.67-1.04-.446-1.932-.966-2.677-1.636a6.26 6.26 0 0 1-1.63-2.305c-.376-.818-.597-1.71-.597-2.603v-1.785c0-.892.221-1.784.597-2.602a6.662 6.662 0 0 1 1.63-2.231c.745-.67 1.637-1.19 2.677-1.636 1.046-.447 2.234-.67 3.643-.67 1.342 0 2.53.223 3.65.67 1.04.446 1.932.966 2.676 1.636a6.662 6.662 0 0 1 1.631 2.23c.376.819.597 1.71.597 2.603zM884.326 172.371c-1.637-.967-3.57-1.636-5.803-2.156-2.228-.446-4.61-.744-7.212-.744-2.603 0-4.985.223-7.213.744-2.233.52-4.166 1.19-5.803 2.156-1.637.967-2.972 2.083-3.864 3.347-.966 1.338-1.416 2.825-1.416 4.536v2.305c0 1.71.45 3.198 1.416 4.536.892 1.339 2.227 2.455 3.864 3.347a20.452 20.452 0 0 0 5.803 2.082c2.228.52 4.61.744 7.213.744 2.603 0 4.984-.224 7.212-.744 2.234-.52 4.166-1.19 5.803-2.082 1.63-.892 2.972-2.008 3.865-3.347.892-1.338 1.415-2.825 1.415-4.536v-2.305c0-1.71-.45-3.198-1.415-4.536-.893-1.264-2.234-2.38-3.865-3.347zm-.966 9.816c0 .819-.302 1.636-.972 2.38-.665.744-1.483 1.338-2.603 1.859-1.04.52-2.376.967-3.791 1.264-1.483.298-3.046.447-4.757.447-1.71 0-3.274-.15-4.763-.447-1.483-.297-2.75-.744-3.79-1.264a10.195 10.195 0 0 1-2.604-1.86c-.67-.743-.966-1.487-.966-2.379V180.7c0-.818.295-1.562.966-2.305.67-.744 1.49-1.339 2.603-1.933a17.495 17.495 0 0 1 3.79-1.265c1.49-.297 3.053-.446 4.764-.446 1.71 0 3.274.149 4.757.446 1.49.298 2.75.744 3.79 1.265 1.047.52 1.94 1.19 2.604 1.933.67.743.972 1.487.972 2.305zM883.81 142.92c0 1.71-.08 3.718-.302 5.874a65.243 65.243 0 0 1-1.114 6.916l6.246.67c.222-1.117.523-2.38.67-3.645.222-1.264.37-2.528.518-3.792.147-1.19.227-2.38.301-3.496.074-1.04.074-1.933.074-2.602v-7.436h-38.67v5.353h32.276z"/><path fill="#101820" d="M871.243 148.57h-6.32v11.452h-20.45v5.354h53.687v-5.354h-26.917zM948.572 148.345v-15.244h-6.246v41.792h6.246v-21.119h8.253v-5.429zM919.126 171.55h-6.32v19.41h37.33v-5.429h-31.01zM937.643 159.951h-26.4v-17.624h20.899V136.9H905.07v28.481h32.572z"/></svg>