<svg xmlns="http://www.w3.org/2000/svg" width="792.27875pt" height="225pt" fill-rule="evenodd" viewBox="0 0 792.27875 225"><path d="M635.695 474.745h-3.958l1.995-5.598zm2.387 3.373-3.887-10.595h-.949l-3.903 10.595h1.205l.852-2.396h4.625l.849 2.396zM640.334 471.35c.63-.603 1.551-.697 2.141-.697.696 0 1.485.215 2.007.741l-.794.807c-.401-.404-.683-.538-1.411-.538-1.136 0-1.607.85-1.607 1.961v4.494h-1.074l-.004-4.567c0-1.241.4-1.848.742-2.201zM648.2 478.209c-1.849 0-3.245-1.25-3.245-3.75 0-2.497 1.396-3.751 3.245-3.751 1.01 0 1.648.275 2.411 1.089l-.731.679c-.552-.609-.982-.813-1.68-.813-.715 0-1.315.281-1.698.831-.343.477-.476 1.041-.476 1.965 0 .925.133 1.489.476 1.97.383.546.983.829 1.698.829.698 0 1.128-.225 1.68-.829l.731.699c-.763.814-1.401 1.081-2.411 1.081zM657.338 478.118v-4.515c0-1.287-.686-1.94-1.788-1.94-1.104 0-1.833.673-1.833 1.94v4.515h-1.069v-10.595h1.069v4.075c.535-.609 1.241-.89 2.057-.89 1.651 0 2.639 1.06 2.639 2.708v4.702zM660.953 468.718v-1.206h1.209v1.206zm.064 9.4v-7.317h1.068v7.317zM667.232 478.118h-.954l-2.674-7.317h1.158l1.997 5.881 2.007-5.881h1.164zM675.825 473.936h-3.873c.031-.594.062-.811.223-1.217.284-.67.933-1.104 1.713-1.104.772 0 1.427.434 1.704 1.104.172.406.203.623.233 1.217zm1.071.809v-.487c0-2.176-1.12-3.55-3.008-3.55-1.863 0-3.005 1.387-3.005 3.751 0 2.593 1.261 3.75 3.196 3.75 1.253 0 1.938-.386 2.681-1.13l-.731-.637c-.576.573-1.069.833-1.922.833-1.39 0-2.155-.922-2.155-2.53zM598.227 468.535v3.905h4.642v1.011h-4.642v4.669h-1.131v-10.595h6.581v1.01zM606.685 468.721v-1.207h-1.206v1.207zm-.079 9.399v-7.315h-1.07v7.315zM609.591 478.162v-10.637h1.077v10.637zM623.128 478.12v-4.503c0-1.297-.703-1.952-1.806-1.952-1.067 0-1.83.671-1.83 1.83v4.625h-1.069v-4.503c0-1.297-.698-1.952-1.8-1.952-1.104 0-1.828.671-1.828 1.952v4.503h-1.075v-7.315h1.075v.795c.52-.587 1.249-.89 2.066-.89 1.012 0 1.803.416 2.247 1.222.566-.806 1.385-1.222 2.413-1.222.787 0 1.439.253 1.887.688.524.51.787 1.186.787 2.037v4.685zM559.998 474.461c0 .822-.041 1.731-.585 2.265a1.867 1.867 0 0 1-1.339.533c-.517 0-.98-.192-1.324-.533-.529-.534-.591-1.443-.591-2.265 0-.82.062-1.727.591-2.258a1.841 1.841 0 0 1 1.324-.538c.525 0 1 .193 1.339.538.544.531.585 1.438.585 2.258zm1.07 0c0-1.132-.146-2.156-.889-2.915-.508-.511-1.208-.836-2.105-.836-.886 0-1.589.325-2.092.836-.747.759-.896 1.783-.896 2.915 0 1.128.149 2.156.896 2.921.503.499 1.206.827 2.092.827.897 0 1.597-.328 2.105-.827.743-.765.889-1.793.889-2.921zM573.656 473.939h-3.865c.021-.595.053-.812.219-1.219.282-.668.938-1.104 1.713-1.104.773 0 1.429.436 1.711 1.104.166.407.193.624.222 1.219zm1.073.808v-.487c0-2.175-1.116-3.55-3.006-3.55-1.862 0-3.003 1.388-3.003 3.751 0 2.591 1.261 3.748 3.2 3.748 1.249 0 1.936-.384 2.674-1.128l-.727-.639c-.587.578-1.073.834-1.923.834-1.397 0-2.153-.923-2.153-2.529zM581.156 475.532c0 .614-.111 1.027-.369 1.267-.466.448-1.016.493-1.639.493-1.16 0-1.682-.406-1.682-1.256 0-.844.538-1.289 1.636-1.289h2.054zm1.075 2.588v-4.972c0-1.59-.969-2.438-2.936-2.438-1.189 0-1.935.238-2.585 1.091l.725.665c.437-.608.911-.835 1.847-.835 1.342 0 1.874.539 1.874 1.609v.699h-2.198c-1.638 0-2.53.834-2.53 2.116 0 .582.188 1.128.548 1.489.459.476 1.054.665 2.068.665.98 0 1.518-.189 2.112-.787v.698zM589.523 478.12v-4.503c0-1.297-.703-1.952-1.801-1.952-1.101 0-1.82.671-1.82 1.952v4.503h-1.065v-7.315h1.065v.795c.526-.587 1.238-.89 2.058-.89.787 0 1.429.238 1.876.688.521.51.759 1.186.759 2.037v4.685zM564.085 471.353c.635-.605 1.554-.698 2.148-.698.701 0 1.485.215 2.005.743l-.794.805c-.399-.402-.687-.538-1.414-.538-1.134 0-1.607.85-1.607 1.961v4.494h-1.067l-.012-4.568c0-1.239.409-1.847.741-2.199zM547.131 467.525h-1.138v10.595h1.138zM552.815 478.12h1.334l-4.098-5.845 3.628-4.75h-1.385l-3.609 4.755z" style="fill:#5c5d5e;stroke:none" transform="matrix(4.01406 0 0 4.01406 -1927.338 -1803.552)"/><path d="m530.815 467.4-50.637 6.013v7.548h50.637z" style="fill:#ef802d;stroke:none" transform="matrix(4.01406 0 0 4.01406 -1927.338 -1803.552)"/><path d="m480.178 462.87 50.637-6.01v-7.551h-50.637z" style="fill:#dc3940;stroke:none" transform="matrix(4.01406 0 0 4.01406 -1927.338 -1803.552)"/><path d="M494.744 504.364h-14.597v-14.595h14.597z" style="fill:#7e8081;stroke:none" transform="matrix(4.01406 0 0 4.01406 -1927.338 -1803.552)"/><path d="M677.229 487.904h-1.857v8.069h-3.105v1.787h4.962zM655.7 501.192v-2.617h-1.844v2.617h-4.189v-2.617h-1.844v2.617h-3.258v1.786h14.342v-1.786zM555.688 487.941v9.345h1.897v-7.75h2.941v-1.595zM543.827 489.825v-2.687h1.899v1.084h5.888v1.603zM546.063 505.06v-4.615h1.893v3.007h10.396v1.602zM664.491 504.43v-4.608h1.889v3.012h11.143v1.59zM657.304 493.051v-4.967l-11.391.01v1.586h9.496v1.735h-9.754l.016 4.901 12.621-.004v-1.592h-10.73v-1.669zM669.749 495.363v3.736h-1.889v-2.138h-5.226v-1.598zM579.089 500.071v5.291h-1.895v-3.701h-12.927v-1.59zM583.274 491.377c0 2.11 1.825 3.829 4.073 3.829 2.24 0 4.062-1.719 4.062-3.829 0-2.113-1.822-3.833-4.062-3.833-2.248 0-4.073 1.72-4.073 3.833zm1.897-.004c0-1.224.978-2.221 2.176-2.221 1.199 0 2.172.997 2.172 2.221 0 1.224-.973 2.22-2.172 2.22-1.198 0-2.176-.996-2.176-2.22zM663.538 490.352c0 2.031 1.758 3.678 3.908 3.678 2.158 0 3.914-1.647 3.914-3.678 0-2.033-1.756-3.68-3.914-3.68-2.15 0-3.908 1.647-3.908 3.68zm1.826-.007c0-1.169.938-2.127 2.082-2.127 1.156 0 2.092.958 2.092 2.127 0 1.176-.936 2.13-2.092 2.13-1.144 0-2.082-.954-2.082-2.13zM543.64 493.942c0 2.031 1.756 3.681 3.904 3.681 2.162 0 3.908-1.65 3.908-3.681 0-2.019-1.746-3.676-3.908-3.676-2.148 0-3.904 1.657-3.904 3.676zm1.824 0c0-1.17.937-2.128 2.08-2.128 1.158 0 2.092.958 2.092 2.128 0 1.174-.934 2.135-2.092 2.135-1.143 0-2.08-.961-2.08-2.135zM591.356 501.051c0 2.287 1.979 4.158 4.415 4.158 2.427 0 4.417-1.871 4.417-4.158 0-2.289-1.99-4.153-4.417-4.153-2.436 0-4.415 1.864-4.415 4.153zm1.911 0c0-1.474 1.127-2.655 2.504-2.655 1.38 0 2.505 1.181 2.505 2.655 0 1.463-1.125 2.654-2.505 2.654-1.377 0-2.504-1.191-2.504-2.654zM610.271 501.051c0 2.287 1.978 4.158 4.406 4.158 2.433 0 4.416-1.871 4.416-4.158 0-2.289-1.983-4.153-4.416-4.153-2.428 0-4.406 1.864-4.406 4.153zm1.912 0c0-1.474 1.119-2.655 2.494-2.655 1.383 0 2.51 1.181 2.51 2.655 0 1.463-1.127 2.654-2.51 2.654-1.375 0-2.494-1.191-2.494-2.654zM616.087 487.915v7.931h1.89v-6.333h2.694v-1.598zM637.284 487.915v16.991h1.893v-15.393h2.246v-1.598zM576.688 494.187v-6.101h-10.994v1.594h9.118v4.509H563.88v1.615h6.377v2.998h1.902v-2.998h7.584v-1.617zM598.866 487.935h-5.879v1.578h3.983l-.012 3.341h-3.971v1.605l3.971.004v1.375h1.908zM609.03 490.61l3.354 3.909h2.373l-5.746-6.857-5.711 6.857h2.381zM634.134 488.153v1.601h-3.381l4.516 7.191h-2.161l-3.3-5.158-3.307 5.158h-2.16l4.519-7.191h-3.386v-1.601z" style="fill:#5c5d5e;stroke:none" transform="matrix(4.01406 0 0 4.01406 -1927.338 -1803.552)"/></svg>