<svg xmlns="http://www.w3.org/2000/svg" xml:space="preserve" width="1869.821" height="200" viewBox="0 0 1869.8211 200"><defs><clipPath id="a" clipPathUnits="userSpaceOnUse"><path d="M0 283.46h850.39V0H0Z"/></clipPath></defs><path d="M0 0v10.498h-54.896V0h13.761l-15.29-25.488h13.732l15.29 25.472 15.172-25.431H1.505L-13.678 0Z" style="fill:#004098;fill-opacity:1;fill-rule:nonzero;stroke:none" transform="matrix(2.3247 0 0 -2.3247 1150.463 54.625)"/><g clip-path="url(#a)" transform="matrix(2.3247 0 0 -2.3247 -53.713 428.07)"><path d="M0 0c-2.562 0-4.682-1.431-5.9-3.467v18.123h-13.729v-65.847H-5.9v40.693c1.218-2.036 3.338-3.477 5.9-3.477A6.987 6.987 0 0 1 0 0" style="fill:#004098;fill-opacity:1;fill-rule:nonzero;stroke:none" transform="translate(543.53 158.581)"/><path d="m0 0 15.276 25.478L30.45.041h13.727L28.991 25.493h13.684v10.498h-54.886V25.493H1.542L-13.729 0Z" style="fill:#004098;fill-opacity:1;fill-rule:nonzero;stroke:none" transform="translate(292.821 135.175)"/><path d="M0 0v55.319h-13.727V37.145c-1.221 2.036-3.362 3.466-5.921 3.466-3.838 0-6.968-3.128-6.968-6.984 0-3.852 3.13-6.99 6.968-6.99 2.559 0 4.7 1.436 5.921 3.472V0h-45.846V11.441h-13.73V.231l.03-.323c0-5.749 4.659-10.416 10.408-10.416h49.138v-.02H0v.02h.009V0Z" style="fill:#004098;fill-opacity:1;fill-rule:nonzero;stroke:none" transform="translate(358.622 117.918)"/><path d="M0 0c-2.539 0-4.667-1.42-5.887-3.461v13.6H-19.62v-55.32h-45.856V-35.16h-13.726v-9.779l.012-.339c0-5.743 4.659-10.406 10.414-10.406h62.869v9.781h.02v35.416c1.22-2.041 3.348-3.472 5.887-3.472 3.86 0 6.994 3.128 6.994 6.984C6.994-3.128 3.86 0 0 0" style="fill:#004098;fill-opacity:1;fill-rule:nonzero;stroke:none" transform="translate(263.726 163.073)"/><path d="M0 0a5.938 5.938 0 0 0 5.943-5.954A5.939 5.939 0 0 0 0-11.898c-3.286 0-5.957 2.662-5.957 5.944A5.952 5.952 0 0 0 0 0m-16.814-5.954c0-9.277 7.528-16.8 16.814-16.8 9.277 0 16.801 7.523 16.801 16.8 0 4.21-1.583 7.99-4.143 10.938h14.785v10.534H3.422c1.894 1.17 3.203 3.159 3.203 5.549A6.622 6.622 0 0 1 0 27.698a6.63 6.63 0 0 1-6.635-6.631c0-2.39 1.327-4.379 3.204-5.549h-24.017V4.984h14.77c-2.545-2.948-4.136-6.728-4.136-10.938" style="fill:#004098;fill-opacity:1;fill-rule:nonzero;stroke:none" transform="translate(207.262 150.658)"/><path d="M0 0v-9.021c-1.164 1.883-3.167 3.216-5.549 3.216a6.632 6.632 0 0 1-6.631-6.626c0-3.667 2.967-6.641 6.631-6.641 2.382 0 4.385 1.328 5.549 3.21v-9.369c-1.164 1.887-3.167 3.21-5.549 3.21a6.631 6.631 0 0 1-6.631-6.636 6.635 6.635 0 0 1 6.631-6.636c2.382 0 4.385 1.328 5.549 3.216v-9.877h-59.48v-10.503H0v-13.391h13.738V0Z" style="fill:#004098;fill-opacity:1;fill-rule:nonzero;stroke:none" transform="translate(624.86 173.237)"/><path d="M0 0H39.246v9.698H3.292v3.426h35.939v2.272h.015v9.784l-.015.329-.02.713c0 5.359-4.342 9.702-9.7 9.702l-.688-.01-4.807.01h-34.445v-9.702h35.96v-3.411h-35.95v-2.277h-.01v-9.79l.021-.338.023-.708C-10.385 4.344-6.028 0-.685 0Z" style="fill:#004098;fill-opacity:1;fill-rule:nonzero;stroke:none" transform="translate(571.1 135.216)"/><path d="M0 0a6.725 6.725 0 0 0-6.731 6.723c0 3.703 3.011 6.724 6.731 6.724 3.702 0 6.712-3.021 6.712-6.724C6.712 3.01 3.702 0 0 0m51.082 20.718H37.359V-16.16c-1.218 2.036-3.359 3.473-5.898 3.473-.834 0-1.616-.17-2.364-.431v8.451H15.044c2.373 3.124 3.855 6.944 3.9 11.154-.023 2.488-.451 4.764-1.231 6.872-.748 2.016-1.858 3.836-3.202 5.462-.496.575-.92 1.175-1.482 1.713C9.382 24.083 5.1 25.852.218 25.852c-5.095 0-9.492-1.769-13.193-5.318-.91-.857-1.68-1.78-2.387-2.728-.082-.123-.199-.221-.281-.344a18.33 18.33 0 0 1-1.846-3.344c-.043-.097-.062-.215-.105-.318-.438-1.107-.807-2.251-1.028-3.456-.008-.067-.008-.128-.022-.179a22.441 22.441 0 0 1-.325-3.642c.039-4.215 1.525-8.056 3.904-11.19h-14.051v-10.507H-.763c-.093-.109-.134-.242-.209-.349a7.26 7.26 0 0 1-.909-1.569c0-.016-.013-.036-.021-.052-.32-.774-.547-1.595-.547-2.492 0-3.903 3.18-7.067 7.076-7.067a7.072 7.072 0 0 1 7.064 7.067c0 .82-.192 1.579-.453 2.307-.07.196-.168.38-.257.57-.17.353-.364.687-.601 1.015-.121.185-.189.406-.323.57h16.111c-1.034-1.226-1.678-2.775-1.678-4.503a6.97 6.97 0 0 1 6.971-6.98c2.539 0 4.68 1.436 5.898 3.472v-11.421H-8.477v11.446h-13.718v-11.215l.026-.323c0-5.749 4.659-10.411 10.405-10.411H37.359v-.02h13.723v.02h.023v10.503h-.023z" style="fill:#004098;fill-opacity:1;fill-rule:nonzero;stroke:none" transform="translate(401.463 152.519)"/><path d="M0 0v-9.021c-1.175 1.883-3.172 3.216-5.555 3.216a6.63 6.63 0 0 1-6.623-6.626c0-3.667 2.965-6.641 6.623-6.641 2.383 0 4.38 1.328 5.555 3.21v-9.369c-1.175 1.887-3.172 3.21-5.555 3.21-3.658 0-6.623-2.969-6.623-6.636 0-3.661 2.965-6.636 6.623-6.636 2.383 0 4.38 1.328 5.555 3.216V-55.319H-45.848V-43.878h-13.723v-11.21l.021-.323c0-5.749 4.664-10.416 10.41-10.416H-.011v-.021h13.724V0Z" style="fill:#004098;fill-opacity:1;fill-rule:nonzero;stroke:none" transform="translate(716.151 173.237)"/><path d="M0 0c4.026 0 7.282-3.267 7.282-7.298 0-4.02-3.256-7.292-7.282-7.292a7.292 7.292 0 0 0-7.292 7.292A7.29 7.29 0 0 0 0 0m-14.431-21.975c.579-.565 1.234-1.046 1.852-1.528.5-.385 1-.8 1.525-1.119.5-.328 1.036-.589 1.575-.861.625-.323 1.223-.656 1.869-.923.594-.236 1.228-.389 1.848-.58.642-.179 1.26-.41 1.926-.517.773-.144 1.569-.19 2.367-.251.533-.041 1.038-.123 1.572-.123 2.782 0 5.446.569 7.872 1.589.094.041.203.103.293.154 1.038.451 1.994.979 2.927 1.594.439.273.857.631 1.28.959.641.494 1.3.975 1.862 1.535.189.178.351.374.528.533 3.472 3.651 5.641 8.549 5.705 13.974a22.321 22.321 0 0 1-1.348 7.457c-.822 2.179-2.016 4.159-3.483 5.918-.531.621-.987 1.267-1.593 1.851-3.968 3.852-8.607 5.774-13.91 5.774-5.523 0-10.298-1.922-14.318-5.774-.984-.923-1.813-1.923-2.587-2.959-.082-.128-.203-.236-.298-.364A20.891 20.891 0 0 1-18.975.738c-.046-.113-.061-.241-.112-.348-.475-1.205-.872-2.452-1.123-3.765-.008-.056-.008-.123-.02-.184a25.391 25.391 0 0 1-.35-3.954 20.503 20.503 0 0 1 5.801-14.093c.128-.133.235-.262.348-.369" style="fill:#004098;fill-opacity:1;fill-rule:nonzero;stroke:none" transform="translate(677.16 159.776)"/><path d="M0 0c2.282 1.18 3.877 3.145 3.877 5.493 0 3.666-3.661 6.636-8.192 6.636-4.516 0-8.18-2.97-8.18-6.636 0-2.348 1.6-4.313 3.877-5.493h-11.377c2.269 1.18 3.864 3.145 3.864 5.493 0 3.666-3.659 6.636-8.175 6.636-4.525 0-8.192-2.97-8.192-6.636 0-2.348 1.605-4.313 3.888-5.493H-55.452v-10.549H25.78V0Z" style="fill:#004098;fill-opacity:1;fill-rule:nonzero;stroke:none" transform="translate(801.655 117.939)"/><path d="m0 0 6.736-.015h55.322v10.497H3.308V16.38H61.86v.052h.198v16.164l-.013.328c0 5.749-4.669 10.41-10.408 10.41h-62.058V32.842l58.753-.005V26.939h-58.55v-.061h-.203V10.729l.028-.329C-10.393 4.646-5.736 0 0 0" style="fill:#004098;fill-opacity:1;fill-rule:nonzero;stroke:none" transform="translate(760.998 131.38)"/><path d="m0 0-64.695-49.996a42.817 42.817 0 0 1 24.155-7.426c23.758 0 43.016 19.26 43.016 43.017C2.476-9.352 1.603-4.505 0 0" style="fill:#e60013;fill-opacity:1;fill-rule:nonzero;stroke:none" transform="translate(155.82 155.53)"/><path d="m0 0 10.991 7.141 26.135 16.972a42.504 42.504 0 0 1-6.809 1.477L9.659 8.992 0 1.236l-17.992-12.118-43.05-28.989a44.34 44.34 0 0 1 3.169-4.407l39.548 30.257z" style="fill:#e60013;fill-opacity:1;fill-rule:nonzero;stroke:none" transform="translate(90.7 158.166)"/><path d="M0 0a43.127 43.127 0 0 1-2.417 4.931l-45.665-34.77-16.283-12.398-6.363-4.018-20.712-13.072a40.493 40.493 0 0 1 2.496-.077c2.655 0 5.256.246 7.781.708l12.011 10.884 4.787 4.336 14.948 10.098z" style="fill:#e60013;fill-opacity:1;fill-rule:nonzero;stroke:none" transform="translate(155.065 157.512)"/><path d="m0 0 6.35 4.003 20.712 13.059a47.36 47.36 0 0 1-2.481.074c-2.638 0-5.227-.24-7.733-.697L4.786 5.546 0 1.218-14.938-8.875l-49.418-33.4a42.644 42.644 0 0 1 2.412-4.928l45.669 34.8z" style="fill:#e60013;fill-opacity:1;fill-rule:nonzero;stroke:none" transform="translate(90.7 167.004)"/><path d="m0 0 17.994 12.115L61.045 41.09a42.764 42.764 0 0 1-3.164 4.408L18.333 15.251 0 1.235l-10.994-7.146-26.128-16.977a43.119 43.119 0 0 1 6.802-1.477L-9.658-7.76Z" style="fill:#e60013;fill-opacity:1;fill-rule:nonzero;stroke:none" transform="translate(90.7 122.857)"/><path d="m0 0 14.579 9.608 30.408 20.044a42.216 42.216 0 0 1-5.571 2.513L13.49 11.811 0 1.221-18.34-11.07l-38.388-25.725a42.579 42.579 0 0 1 3.892-3.86l34.775 26.76z" style="fill:#e60013;fill-opacity:1;fill-rule:nonzero;stroke:none" transform="translate(90.7 149.347)"/><path d="m0 0 17.083 11.364 34.341 22.857a42.727 42.727 0 0 1-4.667 3.252L16.339 13.898 0 1.231l-17.077-11.37-34.342-22.862a43.937 43.937 0 0 1 4.673-3.262l30.406 23.591z" style="fill:#e60013;fill-opacity:1;fill-rule:nonzero;stroke:none" transform="translate(90.7 140.514)"/><path d="m0 0 18.341 12.287L56.734 38a42.695 42.695 0 0 1-3.892 3.859L18.061 15.118 0 1.235l-14.581-9.62-30.41-20.057a43.335 43.335 0 0 1 5.578-2.518l25.922 20.364z" style="fill:#e60013;fill-opacity:1;fill-rule:nonzero;stroke:none" transform="translate(90.7 131.693)"/><path d="M0 0c-23.757 0-43.015-19.259-43.015-43.016 0-5.057.874-9.905 2.477-14.413L24.148-7.418A42.813 42.813 0 0 1 0 0" style="fill:#e60013;fill-opacity:1;fill-rule:nonzero;stroke:none" transform="translate(66.12 184.14)"/><path d="M0 0v4.625h-6.266v-21.146H0v4.625c1.836-2.799 4.928-4.635 8.441-4.635l8.399.005v5.723H8.875l.014-.01c-2.576 0-4.665 2.174-4.665 4.851 0 2.682 2.089 4.857 4.665 4.857l.706.01h7.245v5.723l-8.399.005C4.928 4.633 1.836 2.795 0 0" style="fill:#fff;fill-opacity:1;fill-rule:nonzero;stroke:none" transform="translate(60.359 145.27)"/><path d="M0 0v-.721h-7.245l-.706-.01c-2.576 0-4.665-2.174-4.665-4.856 0-2.677 2.089-4.852 4.665-4.852l-.013.011H0v-5.724l-8.399-.005c-3.513 0-6.605 1.836-8.441 4.636v-4.626h-6.265V5h6.265V.375c1.836 2.794 4.928 4.633 8.441 4.633L0 5.002Zm-8.399 6.146c-2.73 0-5.326-1.013-7.342-2.808v2.803H-24.2V-17.285h8.459v2.8a11.012 11.012 0 0 1 7.342-2.81H1.103V-9.29h-9.285c-1.859.128-3.335 1.741-3.335 3.703 0 2.046 1.599 3.715 3.566 3.715h.016l.698.01h8.34v8.008H0Z" style="fill:#e60013;fill-opacity:1;fill-rule:nonzero;stroke:none" transform="translate(77.199 144.896)"/><path d="M0 0c-2.065 3.131-6.745 6.493-10.335 8.718l-.246.146h-6.263v-21.143l6.263-.011V2.285c4.027-3.29 7.27-5.924 9.709-11.473.217-.492.773-2.599.877-3.102 0-.005.364-.008.919-.008 1.736 0 5.344.019 5.344.019V8.864H0Z" style="fill:#fff;fill-opacity:1;fill-rule:nonzero;stroke:none" transform="translate(97.74 141.034)"/><path d="M0 0v-.092S-3.608-.11-5.344-.11c-.555 0-.919.003-.919.007C-6.367.4-6.923 2.508-7.14 3c-2.439 5.549-5.682 8.183-9.709 11.472V-.103l-6.263.011v21.144h6.263l.246-.146c3.59-2.226 8.27-5.588 10.335-8.718v8.864H0Zm-6.268 22.195h-1.096v-6.941c-2.663 2.716-6.375 5.208-8.673 6.631l-.03.021-.031.015a1.582 1.582 0 0 0-.175.108l-.011.005-.261.161h-7.662V-1.23h1.092l6.263-.011h1.1v13.354c3.122-2.613 5.65-5.11 7.617-9.585.159-.364.691-2.353.802-2.877h.002c.092-.413.415-.881 1.113-.897.042 0 .113 0 .202-.005h.672c1.718 0 5.308.021 5.346.021l1.09.004v23.421H0Z" style="fill:#e60013;fill-opacity:1;fill-rule:nonzero;stroke:none" transform="translate(104.007 128.847)"/><path d="m0 0-.399-.721a10.846 10.846 0 0 1-1.137-4.821v-10.61h6.259v5.934h15.038v5.72H5.36C5.342-2.569 6.697-.731 9.11-.731l10.651.01v5.723l-11.099.006C4.998 5.008 1.795 3.002 0 0" style="fill:#fff;fill-opacity:1;fill-rule:nonzero;stroke:none" transform="translate(109.23 144.896)"/><path d="m0 0-10.65-.01c-2.413 0-3.768-1.839-3.75-3.767H0v-5.721h-15.038v-5.933h-6.259v10.61A10.863 10.863 0 0 0-20.16 0l.399.721c1.795 3.002 4.998 5.008 8.662 5.008L0 5.723Zm0 6.867h-11.099c-3.93 0-7.516-2.072-9.595-5.544l-.011-.018-.008-.018-.395-.718-.013-.02-.012-.026a11.85 11.85 0 0 1-1.205-4.203h-.054V-16.57h8.453v5.926H1.097v8.008h-14.176c.12.269.277.508.467.713.483.505 1.155.772 1.962.772L0-1.141h1.097v8.008Z" style="fill:#e60013;fill-opacity:1;fill-rule:nonzero;stroke:none" transform="translate(128.991 144.175)"/></g></svg>