<svg xmlns="http://www.w3.org/2000/svg" xml:space="preserve" width="1427.1265" height="300" viewBox="0 0 1427.1264 300"><path d="M125.474 369.689c-6.375 0-11.56-5.194-11.56-11.58 0-6.351 5.185-11.559 11.56-11.559 6.401 0 11.562 5.208 11.562 11.56 0 6.385-5.16 11.579-11.562 11.579m0-39.647c-15.487 0-28.082 12.59-28.082 28.068 0 15.498 12.595 28.084 28.082 28.084 15.49 0 28.108-12.586 28.108-28.084 0-15.479-12.619-28.068-28.108-28.068" style="fill:#e9861c;fill-opacity:1;fill-rule:nonzero;stroke:none;stroke-width:2.75226" transform="matrix(1.33333 0 0 -1.33333 429 514.925)"/><path d="M0 0a4.615 4.615 0 0 0-4.615 4.614v40.637a4.615 4.615 0 0 0 9.23 0V4.614A4.615 4.615 0 0 0 0 0" style="fill:#58595b;fill-opacity:1;fill-rule:nonzero;stroke:none" transform="matrix(3.66968 0 0 -3.66968 16.936 286.229)"/><path d="M127.322 171.522c-7.012 0-12.701 5.684-12.701 12.7v111.843c0 7.015 5.689 12.699 12.701 12.699 7.013 0 12.702-5.684 12.702-12.7V184.222c0-7.015-5.689-12.699-12.702-12.699" style="fill:#58595b;fill-opacity:1;fill-rule:nonzero;stroke:none;stroke-width:2.75226" transform="matrix(1.33333 0 0 -1.33333 429 514.925)"/><path d="M-28.841 172.861c-7.013 0-12.702 5.684-12.702 12.7v110.502c0 4.874 2.786 9.322 7.178 11.439 1.613.778 39.94 18.902 87.844 8.567 34.582-7.461 39.75-31.518 39.75-45.197 0-21.322-16.992-38.67-37.89-38.67H9.512c-7.013 0-12.702 5.684-12.702 12.7 0 7.023 5.689 12.707 12.702 12.707h45.827c6.647 0 12.487 6.198 12.487 13.263 0 7.962-2.339 16.618-19.706 20.358-28.114 6.058-52.606.047-64.26-3.861V185.56c0-7.015-5.688-12.699-12.701-12.699" style="fill:#f78c1e;fill-opacity:1;fill-rule:nonzero;stroke:none;stroke-width:2.75226" transform="matrix(1.33333 0 0 -1.33333 429 514.925)"/><path d="M0 0a4.615 4.615 0 0 0-2.527 8.48l30.64 19.999a4.614 4.614 0 0 0 6.387-1.345 4.613 4.613 0 0 0-1.339-6.386l-30.64-20A4.617 4.617 0 0 0 0 0" style="fill:#58595b;fill-opacity:1;fill-rule:nonzero;stroke:none" transform="matrix(3.66968 0 0 -3.66968 18.821 210.496)"/><path d="M-199.15 171.522c-18.416 0-35.94 5.213-51.039 15.074l-64.4 42.03c-5.87 3.834-7.525 11.7-3.688 17.576 3.829 5.884 11.692 7.52 17.582 3.693l64.4-42.026c10.954-7.165 23.68-10.943 36.78-10.943 10.187 0 18.182 7.987 18.182 17.815v81.324c0 7.015 5.692 12.699 12.702 12.699 7.013 0 12.702-5.684 12.702-12.7v-81.323c0-23.832-19.393-43.219-43.222-43.219" style="fill:#58595b;fill-opacity:1;fill-rule:nonzero;stroke:none;stroke-width:2.75226" transform="matrix(1.33333 0 0 -1.33333 429 514.925)"/><path d="M-168.622 283.359c-4.448 0-8.775 2.342-11.097 6.514-3.424 6.127-1.222 13.864 4.904 17.282 2.224 1.241 55.147 30.126 109.614 3.107 6.286-3.107 8.857-10.728 5.739-17.017-3.108-6.28-10.731-8.87-17.018-5.736-42.635 21.118-85.534-2.303-85.964-2.54a12.653 12.653 0 0 0-6.178-1.61" style="fill:#58595b;fill-opacity:1;fill-rule:nonzero;stroke:none;stroke-width:2.75226" transform="matrix(1.33333 0 0 -1.33333 429 514.925)"/><path d="M-76.909 231.85c-2.54 0-5.102.76-7.334 2.336-17.108 12.138-42.396-.754-42.636-.875-6.228-3.231-13.885-.831-17.127 5.353-3.25 6.193-.9 13.838 5.276 17.116 1.588.843 39.223 20.35 69.173-.864 5.722-4.048 7.078-11.978 3.024-17.7a12.687 12.687 0 0 0-10.376-5.367" style="fill:#f78c1e;fill-opacity:1;fill-rule:nonzero;stroke:none;stroke-width:2.75226" transform="matrix(1.33333 0 0 -1.33333 429 514.925)"/><path d="M0 0h1.22v-4.816h.023L4.561 0h1.448L3.428-3.688l2.853-5.663H4.833L2.635-4.777 1.22-6.503v-2.848H0Z" style="fill:#585458;fill-opacity:1;fill-rule:nonzero;stroke:none" transform="matrix(3.66968 0 0 -3.66968 723.918 265.397)"/><path d="M0 0c0-.921.031-1.545.089-1.87.052-.327.156-.59.316-.791.128-.193.298-.349.508-.47.207-.14.454-.212.742-.212.292 0 .545.072.76.212.203.121.365.277.485.47.16.201.27.464.328.791.054.325.083.949.083 1.87 0 .921-.029 1.549-.083 1.882a1.723 1.723 0 0 1-.328.779c-.12.191-.282.353-.485.483a1.595 1.595 0 0 1-.76.199 1.511 1.511 0 0 1-.742-.199c-.21-.13-.38-.292-.508-.483-.16-.201-.264-.46-.316-.779C.031 1.549 0 .921 0 0m-1.22 0c0 1.087.028 1.816.083 2.186.06.366.149.666.271.892.196.431.508.814.94 1.151.423.341.951.515 1.585.524.641-.009 1.173-.185 1.601-.526.424-.337.728-.724.917-1.155.136-.228.23-.524.282-.892.048-.368.072-1.095.072-2.18 0-1.068-.024-1.794-.072-2.168-.052-.376-.146-.678-.282-.904a2.915 2.915 0 0 0-.917-1.142c-.428-.341-.96-.522-1.601-.541-.634.019-1.162.2-1.585.541-.432.328-.744.709-.94 1.142-.058.14-.113.276-.16.403-.044.133-.081.3-.111.501-.055.374-.083 1.1-.083 2.168" style="fill:#585458;fill-opacity:1;fill-rule:nonzero;stroke:none" transform="matrix(3.66968 0 0 -3.66968 753.37 282.55)"/><path d="M0 0h1.849c.458.008.802.164 1.03.464.225.278.339.621.339 1.03-.007.489-.144.842-.405 1.06-.207.193-.506.29-.896.29H0Zm-1.22 4.099h3.148c.671 0 1.218-.203 1.643-.614.51-.467.777-1.132.797-1.995C4.355.22 3.836-.645 2.813-1.103L4.68-5.252H3.229L1.561-1.255H0v-3.997h-1.22z" style="fill:#585458;fill-opacity:1;fill-rule:nonzero;stroke:none" transform="matrix(3.66968 0 0 -3.66968 780.53 280.44)"/><path d="M0 0h5.146v-1.331H1.22v-2.678h3.352v-1.255H1.22v-2.754h3.926v-1.333H0Z" style="fill:#585458;fill-opacity:1;fill-rule:nonzero;stroke:none" transform="matrix(3.66968 0 0 -3.66968 802.207 265.397)"/><path d="m0 0-1.168 4.091h-.021L-2.356 0Zm.346-1.255h-3.054l-.62-2.092h-1.293l2.929 9.351h1.023l2.928-9.351H.971Z" style="fill:#585458;fill-opacity:1;fill-rule:nonzero;stroke:none" transform="matrix(3.66968 0 0 -3.66968 839.931 287.43)"/><path d="M0 0h1.149l3.649-6.647h.023V0h1.22v-9.351H4.884L1.241-2.704h-.02v-6.647H0Z" style="fill:#585458;fill-opacity:1;fill-rule:nonzero;stroke:none" transform="matrix(3.66968 0 0 -3.66968 852.202 265.397)"/><path d="M0 0h5.146v-1.331H1.22v-2.768h3.352v-1.256H1.22v-3.996H0Z" style="fill:#585458;fill-opacity:1;fill-rule:nonzero;stroke:none" transform="matrix(3.66968 0 0 -3.66968 891.815 265.397)"/><path d="M0 0c0-.921.03-1.545.089-1.87.053-.327.156-.59.316-.791.128-.193.298-.349.509-.47.206-.14.453-.212.742-.212.292 0 .543.072.758.212.204.121.366.277.486.47.16.201.27.464.328.791.055.325.083.949.083 1.87 0 .921-.028 1.549-.083 1.882a1.723 1.723 0 0 1-.328.779c-.12.191-.282.353-.486.483a1.587 1.587 0 0 1-.758.199 1.505 1.505 0 0 1-.742-.199 1.637 1.637 0 0 1-.509-.483c-.16-.201-.263-.46-.316-.779C.03 1.549 0 .921 0 0m-1.22 0c0 1.087.028 1.816.082 2.186.061.366.149.666.271.892.197.431.509.814.941 1.151.423.341.951.515 1.585.524.641-.009 1.174-.185 1.601-.526.423-.337.729-.724.917-1.155.135-.228.23-.524.283-.892.046-.368.071-1.095.071-2.18 0-1.068-.025-1.794-.071-2.168-.053-.376-.148-.678-.283-.904-.188-.433-.494-.814-.917-1.142-.427-.341-.96-.522-1.601-.541-.634.019-1.162.2-1.585.541a2.985 2.985 0 0 0-.941 1.142c-.057.14-.111.276-.159.403a3.17 3.17 0 0 0-.112.501c-.054.374-.082 1.1-.082 2.168" style="fill:#585458;fill-opacity:1;fill-rule:nonzero;stroke:none" transform="matrix(3.66968 0 0 -3.66968 918.314 282.55)"/><path d="M0 0c0-.921.03-1.545.088-1.87.053-.327.157-.59.316-.791.128-.193.298-.349.509-.47a1.29 1.29 0 0 1 .742-.212c.292 0 .544.072.759.212.203.121.364.277.486.47.16.201.269.464.327.791.055.325.083.949.083 1.87 0 .921-.028 1.549-.083 1.882-.058.319-.167.578-.327.779a1.578 1.578 0 0 1-.486.483 1.591 1.591 0 0 1-.759.199 1.508 1.508 0 0 1-.742-.199 1.637 1.637 0 0 1-.509-.483c-.159-.201-.263-.46-.316-.779C.03 1.549 0 .921 0 0m-1.221 0c0 1.087.029 1.816.083 2.186.06.366.149.666.271.892.197.431.508.814.94 1.151.423.341.95.515 1.585.524.641-.009 1.174-.185 1.602-.526.423-.337.728-.724.916-1.155.136-.228.23-.524.283-.892.047-.368.071-1.095.071-2.18 0-1.068-.024-1.794-.071-2.168-.053-.376-.147-.678-.283-.904-.188-.433-.493-.814-.916-1.142-.428-.341-.961-.522-1.602-.541-.635.019-1.162.2-1.585.541a2.982 2.982 0 0 0-.94 1.142c-.058.14-.113.276-.16.403a3.18 3.18 0 0 0-.111.501c-.054.374-.083 1.1-.083 2.168" style="fill:#585458;fill-opacity:1;fill-rule:nonzero;stroke:none" transform="matrix(3.66968 0 0 -3.66968 944.465 282.55)"/><path d="M0 0h1.46c.686 0 1.184.273 1.494.816.136.203.223.458.261.766.031.304.048.873.048 1.708 0 .815-.017 1.399-.048 1.748-.046.354-.151.639-.318.857-.338.545-.818.808-1.437.791H0Zm-1.221 8.018h2.819c1.091-.009 1.91-.535 2.454-1.576.197-.352.319-.719.371-1.104.04-.386.061-1.05.061-1.995 0-1.005-.032-1.705-.095-2.104a2.7 2.7 0 0 0-.131-.538 6.068 6.068 0 0 0-.229-.483 3.044 3.044 0 0 0-.983-1.089c-.415-.308-.926-.462-1.53-.462h-2.737z" style="fill:#585458;fill-opacity:1;fill-rule:nonzero;stroke:none" transform="matrix(3.66968 0 0 -3.66968 971.628 294.819)"/><path d="M0 0h1.809c.455.01.798.173 1.025.491.218.308.328.651.328 1.03 0 .314-.045.579-.134.793a1.138 1.138 0 0 1-.388.458c-.25.185-.542.273-.873.265H0Zm-1.221 4.368h2.922c.316 0 .623-.032.916-.1.297-.091.595-.274.897-.553.255-.21.461-.51.619-.898.164-.376.247-.82.247-1.333 0-.693-.209-1.324-.629-1.893-.434-.598-1.064-.906-1.892-.925H0v-3.649h-1.221z" style="fill:#585458;fill-opacity:1;fill-rule:nonzero;stroke:none" transform="matrix(3.66968 0 0 -3.66968 1008.916 281.427)"/><path d="M0 0h1.85c.458.008.802.164 1.03.464.226.278.338.621.338 1.03-.007.489-.143.842-.405 1.06-.206.193-.505.29-.895.29H0Zm-1.22 4.099h3.149c.671 0 1.218-.203 1.642-.614.51-.467.778-1.132.798-1.995C4.356.22 3.837-.645 2.813-1.103L4.68-5.252H3.23L1.561-1.255H0v-3.997h-1.22z" style="fill:#585458;fill-opacity:1;fill-rule:nonzero;stroke:none" transform="matrix(3.66968 0 0 -3.66968 1034.331 280.44)"/><path d="M0 0c0-.921.03-1.545.088-1.87.053-.327.157-.59.316-.791.128-.193.297-.349.509-.47.206-.14.453-.212.742-.212.292 0 .544.072.759.212.203.121.365.277.486.47.159.201.269.464.327.791.055.325.082.949.082 1.87 0 .921-.027 1.549-.082 1.882a1.734 1.734 0 0 1-.327.779 1.567 1.567 0 0 1-.486.483 1.591 1.591 0 0 1-.759.199 1.505 1.505 0 0 1-.742-.199 1.626 1.626 0 0 1-.509-.483c-.159-.201-.263-.46-.316-.779C.03 1.549 0 .921 0 0m-1.221 0c0 1.087.028 1.816.083 2.186.06.366.149.666.271.892.195.431.508.814.94 1.151.423.341.95.515 1.585.524.641-.009 1.174-.185 1.601-.526.424-.337.729-.724.917-1.155.136-.228.229-.524.283-.892.047-.368.071-1.095.071-2.18 0-1.068-.024-1.794-.071-2.168-.054-.376-.147-.678-.283-.904-.188-.433-.493-.814-.917-1.142-.427-.341-.96-.522-1.601-.541-.635.019-1.162.2-1.585.541-.432.328-.745.709-.94 1.142-.058.14-.113.276-.16.403-.044.133-.081.3-.111.501-.055.374-.083 1.1-.083 2.168" style="fill:#585458;fill-opacity:1;fill-rule:nonzero;stroke:none" transform="matrix(3.66968 0 0 -3.66968 1059.475 282.55)"/><path d="M0 0h1.149l2.31-6.096L5.727 0h1.152v-9.351h-1.22v5.833h-.027L3.945-8.009H2.929L1.242-3.518h-.021v-5.833H0Z" style="fill:#585458;fill-opacity:1;fill-rule:nonzero;stroke:none" transform="matrix(3.66968 0 0 -3.66968 1082.158 265.397)"/><path d="M0 0c0-.921.03-1.545.089-1.87.052-.327.156-.59.316-.791.128-.193.298-.349.509-.47.206-.14.453-.212.742-.212.291 0 .543.072.758.212.203.121.366.277.486.47.16.201.27.464.327.791.056.325.083.949.083 1.87 0 .921-.027 1.549-.083 1.882a1.712 1.712 0 0 1-.327.779c-.12.191-.283.353-.486.483a1.59 1.59 0 0 1-.758.199 1.505 1.505 0 0 1-.742-.199 1.637 1.637 0 0 1-.509-.483c-.16-.201-.264-.46-.316-.779C.03 1.549 0 .921 0 0m-1.22 0c0 1.087.028 1.816.082 2.186.061.366.149.666.271.892.197.431.509.814.941 1.151.423.341.951.515 1.585.524.641-.009 1.174-.185 1.601-.526.423-.337.729-.724.917-1.155.135-.228.23-.524.282-.892.047-.368.072-1.095.072-2.18 0-1.068-.025-1.794-.072-2.168-.052-.376-.147-.678-.282-.904-.188-.433-.494-.814-.917-1.142-.427-.341-.96-.522-1.601-.541-.634.019-1.162.2-1.585.541a2.985 2.985 0 0 0-.941 1.142c-.057.14-.113.276-.159.403-.044.133-.082.3-.112.501-.054.374-.082 1.1-.082 2.168" style="fill:#585458;fill-opacity:1;fill-rule:nonzero;stroke:none" transform="matrix(3.66968 0 0 -3.66968 1118.121 282.55)"/><path d="M0 0h-2.208v1.255h5.637V0H1.22v-8.096H0Z" style="fill:#585458;fill-opacity:1;fill-rule:nonzero;stroke:none" transform="matrix(3.66968 0 0 -3.66968 1145.051 270.004)"/><path d="M549.351 187.146h3.36V161.41h-3.36z" style="fill:#585458;fill-opacity:1;fill-rule:nonzero;stroke:none;stroke-width:2.75226" transform="matrix(1.33333 0 0 -1.33333 429 514.925)"/><path d="M0 0c0-.921.03-1.545.088-1.87.053-.327.157-.59.317-.791.128-.193.297-.349.508-.47.207-.14.454-.212.742-.212.292 0 .544.072.759.212.203.121.366.277.486.47.16.201.269.464.327.791.055.325.084.949.084 1.87 0 .921-.029 1.549-.084 1.882-.058.319-.167.578-.327.779-.12.191-.283.353-.486.483a1.591 1.591 0 0 1-.759.199 1.511 1.511 0 0 1-.742-.199 1.634 1.634 0 0 1-.508-.483c-.16-.201-.264-.46-.317-.779C.03 1.549 0 .921 0 0m-1.221 0c0 1.087.029 1.816.083 2.186.06.366.149.666.271.892.197.431.509.814.94 1.151.424.341.952.515 1.586.524.64-.009 1.173-.185 1.601-.526a3.04 3.04 0 0 0 .917-1.155c.135-.228.23-.524.282-.892.047-.368.071-1.095.071-2.18 0-1.068-.024-1.794-.071-2.168-.052-.376-.147-.678-.282-.904a2.924 2.924 0 0 0-.917-1.142c-.428-.341-.961-.522-1.601-.541-.634.019-1.162.2-1.586.541a2.99 2.99 0 0 0-.94 1.142c-.058.14-.113.276-.16.403a3.18 3.18 0 0 0-.111.501c-.054.374-.083 1.1-.083 2.168" style="fill:#585458;fill-opacity:1;fill-rule:nonzero;stroke:none" transform="matrix(3.66968 0 0 -3.66968 1175.996 282.55)"/><path d="M0 0h1.148l3.65-6.647h.023V0h1.22v-9.351H4.884L1.24-2.704h-.02v-6.647H0Z" style="fill:#585458;fill-opacity:1;fill-rule:nonzero;stroke:none" transform="matrix(3.66968 0 0 -3.66968 1198.676 265.397)"/><path d="M606.962 187.146h3.36V161.41h-3.36z" style="fill:#585458;fill-opacity:1;fill-rule:nonzero;stroke:none;stroke-width:2.75226" transform="matrix(1.33333 0 0 -1.33333 429 514.925)"/><path d="M0 0h1.148l3.65-6.647h.022V0h1.221v-9.351H4.884L1.24-2.704h-.02v-6.647H0Z" style="fill:#585458;fill-opacity:1;fill-rule:nonzero;stroke:none" transform="matrix(3.66968 0 0 -3.66968 1249.344 265.397)"/><path d="M0 0a3.238 3.238 0 0 1 2.289-.933C3.337-.914 3.868-.481 3.883.37c.007.698-.343 1.118-1.052 1.257-.324.054-.679.109-1.067.175-.693.134-1.218.429-1.579.892-.374.474-.56 1.054-.56 1.734 0 .816.233 1.475.703 1.977.451.497 1.094.75 1.925.758 1.002-.025 1.872-.347 2.613-.966l-.68-1.165a3.358 3.358 0 0 1-1.996.721c-.377 0-.69-.109-.942-.329-.262-.226-.395-.565-.403-1.015 0-.267.091-.513.272-.731.18-.222.468-.376.868-.462.22-.042.522-.093.905-.148.755-.119 1.315-.434 1.676-.943.356-.5.535-1.083.535-1.747-.04-1.788-.983-2.696-2.827-2.722-1.192 0-2.218.427-3.075 1.278z" style="fill:#585458;fill-opacity:1;fill-rule:nonzero;stroke:none" transform="matrix(3.66968 0 0 -3.66968 1279.044 291.395)"/><path d="M0 0h-2.208v1.255h5.637V0H1.221v-8.096H0Z" style="fill:#585458;fill-opacity:1;fill-rule:nonzero;stroke:none" transform="matrix(3.66968 0 0 -3.66968 1308.3 270.004)"/><path d="M671.783 187.146h3.36V161.41h-3.36z" style="fill:#585458;fill-opacity:1;fill-rule:nonzero;stroke:none;stroke-width:2.75226" transform="matrix(1.33333 0 0 -1.33333 429 514.925)"/><path d="M0 0h-2.209v1.255h5.638V0H1.22v-8.096H0Z" style="fill:#585458;fill-opacity:1;fill-rule:nonzero;stroke:none" transform="matrix(3.66968 0 0 -3.66968 1340.794 270.004)"/><path d="M0 0h1.22v-6.033c.008-.639.166-1.124.476-1.457a1.463 1.463 0 0 1 1.168-.528c.474 0 .868.175 1.179.528.301.333.457.818.465 1.457V0h1.218v-6.183c-.015-.984-.288-1.763-.823-2.34-.538-.596-1.219-.898-2.039-.906a2.666 2.666 0 0 0-2.024.904C.287-7.948.007-7.169 0-6.187Z" style="fill:#585458;fill-opacity:1;fill-rule:nonzero;stroke:none" transform="matrix(3.66968 0 0 -3.66968 1356.668 265.397)"/><path d="M0 0h-2.21v1.255h5.639V0H1.22v-8.096H0Z" style="fill:#585458;fill-opacity:1;fill-rule:nonzero;stroke:none" transform="matrix(3.66968 0 0 -3.66968 1389.244 270.004)"/><path d="M0 0h5.148v-1.331H1.221v-2.678h3.352v-1.255H1.221v-2.754h3.927v-1.333H0Z" style="fill:#585458;fill-opacity:1;fill-rule:nonzero;stroke:none" transform="matrix(3.66968 0 0 -3.66968 1405.66 265.397)"/><path d="M0 0v4.142h5.054V0h8.365v-4.441H-8.755V0Z" style="fill:#231f20;fill-opacity:1;fill-rule:nonzero;stroke:none" transform="matrix(3.66968 0 0 -3.66968 735.486 108.572)"/><path d="M0 0c-.738-1.006-2.381-3.412-3.833-5.009a32.87 32.87 0 0 0-4.835-4.355l-3.311 3.616A29.246 29.246 0 0 1-7.84-2.112a30.263 30.263 0 0 1 3.462 4.399A24.203 24.203 0 0 1-1.96 7.123c.609 1.67.944 3.333 1.002 4.988l5.032-.032c.001-2.573-.647-4.904-1.635-7.374 0 0-1.003-2.747-2.439-4.705" style="fill:#231f20;fill-opacity:1;fill-rule:nonzero;stroke:none" transform="matrix(3.66968 0 0 -3.66968 895.468 137.818)"/><path d="M639.33 246.9h-96.15v12.21h96.15z" style="fill:#231f20;fill-opacity:1;fill-rule:nonzero;stroke:none;stroke-width:2.75226" transform="matrix(1.33333 0 0 -1.33333 429 514.925)"/><path d="M0 0h-10.912v4.357h24.394V0h-8.43v-4.443H0Z" style="fill:#231f20;fill-opacity:1;fill-rule:nonzero;stroke:none" transform="matrix(3.66968 0 0 -3.66968 1343.042 185.434)"/><path d="M0 0a4.68 4.68 0 1 0 0 9.363 4.68 4.68 0 0 0 4.681-4.681A4.68 4.68 0 0 0 0 0m0 13.975a9.086 9.086 0 0 1-9.087-9.087A9.086 9.086 0 0 1 0-4.198a9.087 9.087 0 1 1 0 18.173" style="fill:#231f20;fill-opacity:1;fill-rule:nonzero;stroke:none" transform="matrix(3.66968 0 0 -3.66968 744.043 170.637)"/><path d="M0 0c-2.793 0-5.058 2.095-5.058 4.682 0 2.586 2.265 4.682 5.058 4.682 2.794 0 5.056-2.096 5.056-4.682C5.056 2.095 2.794 0 0 0m0 13.975c-5.421 0-9.817-4.067-9.817-9.087 0-5.019 4.396-9.086 9.817-9.086S9.817-.131 9.817 4.888c0 5.02-4.396 9.087-9.817 9.087" style="fill:#231f20;fill-opacity:1;fill-rule:nonzero;stroke:none" transform="matrix(3.66968 0 0 -3.66968 1217.343 234.443)"/><path d="M0 0c-2.793 0-5.058 2.095-5.058 4.682 0 2.586 2.265 4.681 5.058 4.681 2.794 0 5.056-2.095 5.056-4.681C5.056 2.095 2.794 0 0 0m0 13.975c-5.421 0-9.817-4.067-9.817-9.087 0-5.019 4.396-9.086 9.817-9.086S9.817-.131 9.817 4.888c0 5.02-4.396 9.087-9.817 9.087" style="fill:#231f20;fill-opacity:1;fill-rule:nonzero;stroke:none" transform="matrix(3.66968 0 0 -3.66968 1217.343 148.657)"/><path d="M0 0a4.682 4.682 0 1 0 0 9.363A4.682 4.682 0 0 0 0 0m0 13.975A9.087 9.087 0 1 1 0-4.198a9.087 9.087 0 1 1 0 18.173" style="fill:#231f20;fill-opacity:1;fill-rule:nonzero;stroke:none" transform="matrix(3.66968 0 0 -3.66968 1345.367 144.002)"/><path d="m0 0-10.159 10.039 3.355 3.396L3.355 3.396Z" style="fill:#231f20;fill-opacity:1;fill-rule:nonzero;stroke:none" transform="matrix(3.66968 0 0 -3.66968 928.49 167.038)"/><path d="m0 0-9.722 9.609 3.354 3.396 9.723-9.609z" style="fill:#231f20;fill-opacity:1;fill-rule:nonzero;stroke:none" transform="matrix(3.66968 0 0 -3.66968 1071.97 179.104)"/><path d="M292.789 285.592v23.903c-.072 6.36-8.488 6.669-8.488 6.669h-5.532v-72.896h14.02v30.217h14.507v12.107z" style="fill:#231f20;fill-opacity:1;fill-rule:nonzero;stroke:none;stroke-width:2.75226" transform="matrix(1.33333 0 0 -1.33333 429 514.925)"/><path d="M0 0h-2.024v-21.606h5.097v19.324C2.924-.112 0 0 0 0" style="fill:#231f20;fill-opacity:1;fill-rule:nonzero;stroke:none" transform="matrix(3.66968 0 0 -3.66968 971.045 93.373)"/><path d="M0 0h-2.01v-26.458h5.097v24.007C3.087-.112 0 0 0 0" style="fill:#231f20;fill-opacity:1;fill-rule:nonzero;stroke:none" transform="matrix(3.66968 0 0 -3.66968 1119.72 93.373)"/><path d="M0 0h-2.018v-9.628h-4.074v-4.31h4.074v-14.155H3.08v25.726C3.004-.112 0 0 0 0" style="fill:#231f20;fill-opacity:1;fill-rule:nonzero;stroke:none" transform="matrix(3.66968 0 0 -3.66968 1415.824 93.373)"/><path d="M0 0c-.58 1.478-3.049 1.541-3.049 1.541h-14.022v-4.399h10.932c.465 0 .785-.072.959-.217.174-.145.145-.48-.088-1.001-.406-.931-1.009-1.946-1.807-3.05-.799-1.106-1.764-2.245-2.897-3.418a43.313 43.313 0 0 0-3.855-3.529 44.184 44.184 0 0 0-4.682-3.333l2.744-3.835a47.16 47.16 0 0 1 5.031 3.683 43.038 43.038 0 0 1 4.378 4.203l2.918 3.571a24.318 24.318 0 0 1 1.829 2.855v-.012C.131-4.022.299-2.825.299-2.825.674-1.029 0 0 0 0" style="fill:#231f20;fill-opacity:1;fill-rule:nonzero;stroke:none" transform="matrix(3.66968 0 0 -3.66968 1074.248 102.71)"/><path d="M0 0h-20.476c-.609 0-1.089.051-1.437.152-.349.103-.618.276-.806.521-.191.248-.313.562-.371.938a9.583 9.583 0 0 0-.087 1.396v3.964h-5.096V-.416s-.316-3.988 3.072-3.988h5.108l-.009.005H0Z" style="fill:#231f20;fill-opacity:1;fill-rule:nonzero;stroke:none" transform="matrix(3.66968 0 0 -3.66968 826.011 223.335)"/><path d="M0 0h-20.476c-.609 0-1.089.051-1.437.152-.349.103-.618.276-.806.521-.191.248-.313.562-.371.938a9.583 9.583 0 0 0-.087 1.396v6.001h-5.096V-.416s-.316-3.988 3.072-3.988h5.108l-.009.005H0Z" style="fill:#231f20;fill-opacity:1;fill-rule:nonzero;stroke:none" transform="matrix(3.66968 0 0 -3.66968 1131.048 223.335)"/><path d="M0 0h-22.153c-.608 0-1.087.051-1.436.152-.348.103-.617.276-.806.521-.19.248-.314.562-.37.938a9.413 9.413 0 0 0-.089 1.396v3.964h-5.095V-.416s-.316-3.988 3.072-3.988h5.108l-.008.005H0Z" style="fill:#231f20;fill-opacity:1;fill-rule:nonzero;stroke:none" transform="matrix(3.66968 0 0 -3.66968 1427.126 223.335)"/><path d="M0 0h20.476c.608 0 1.088-.051 1.436-.152.349-.103.618-.276.807-.522.189-.247.313-.561.369-.937.059-.379.089-.845.089-1.396v-6.555h5.096V.416s.316 3.988-3.073 3.988h-5.107l.008-.005H0Z" style="fill:#231f20;fill-opacity:1;fill-rule:nonzero;stroke:none" transform="matrix(3.66968 0 0 -3.66968 878.513 204.403)"/><path d="M0 0h14.834v-4.441h-28.643V0h8.755z" style="fill:#231f20;fill-opacity:1;fill-rule:nonzero;stroke:none" transform="matrix(3.66968 0 0 -3.66968 1215.462 98.237)"/><path d="M584.302 320.573h13.91v-10.31h-13.91z" style="fill:#231f20;fill-opacity:1;fill-rule:nonzero;stroke:none;stroke-width:2.75226" transform="matrix(1.33333 0 0 -1.33333 429 514.925)"/></svg>