<svg xmlns="http://www.w3.org/2000/svg" width="1148.9178mm" height="300mm" viewBox="0 0 1148.9178 300"><path d="M133.393 174.352c2.446 0 4.994-1.346 6.47-3.433 2.228-3.137 2.76-7.884-1.327-10.88-4.333-3.197-8.308-6.33-12.846-10.143-4.137-3.573-5.835-7.386-5.835-13.162v-3.676h18.737v-14.865H90.458c-3.913 0-6.442 2.931-6.442 7.489 0 4.408 2.592 7.376 6.442 7.376h12.541v3.259c0 5.772-1.694 9.591-5.856 13.18-3.997 3.355-8.046 6.598-11.38 9.096-3.358 2.62-3.834 6.813-1.205 10.454 1.483 2.078 4.025 3.424 6.47 3.424 1.46 0 2.884-.477 4.112-1.365 2.103-1.523 5.915-4.476 10.33-8.208 2.803-2.333 4.585-3.984 5.71-5.423 1.202 1.72 3.149 3.61 6.227 6.158a204.745 204.745 0 0 0 11.877 9.352 6.91 6.91 0 0 0 4.11 1.367M98.52 211.76l.028-10.404v-13.884c0-4.414 3.42-7.38 8.526-7.38 5.034 0 8.424 2.966 8.424 7.38v8.779c0 .346.028.53.056.62h.043c.078 0 .259.018.552.018h52.458v14.872z" style="fill:#2e3192;fill-opacity:1;fill-rule:nonzero;stroke:none;stroke-width:3.11511" transform="translate(376.706 -50.573)"/><path d="M151.424 186.867v-36.886h-13.149V135.11h13.149v-14.526c0-4.342 3.467-7.38 8.42-7.38 4.903 0 8.327 3.038 8.327 7.38v66.283zM-4.219 211.76l.193-10.603v-13.058c0-4.502 3.483-7.517 8.676-7.517 5.062 0 8.582 3.087 8.582 7.517v7.859c0 .358.037.551.056.645.01-.006.022-.006.047-.006.084 0 .261.025.557.025h49.213v15.139zM45.358 186.867v-66.146c0-4.43 3.523-7.517 8.573-7.517 4.99 0 8.473 3.087 8.473 7.517v17.233h13.33v15.239h-13.33v33.674zM9.037 161.858c-5.006 0-9.074-3.822-9.074-8.501 0-4.688 4.068-8.504 9.074-8.504 5 0 9.074 3.816 9.074 8.504 0 4.679-4.074 8.501-9.074 8.501m27.13-39.898H17.903v-3.43c0-4.42-3.523-7.513-8.58-7.513-5.055 0-8.581 3.093-8.581 7.513v3.43h-14.884c-3.922 0-6.564 3.015-6.564 7.51 0 4.502 2.642 7.523 6.564 7.523h8.56c-4.85 3.95-7.94 9.813-7.94 16.364 0 11.86 10.114 21.513 22.56 21.513 12.444 0 22.568-9.654 22.568-21.513 0-6.551-3.093-12.414-7.947-16.364h12.508zM585.059 122.81c-6.417 10.822-9.629 23.251-9.629 37.79v3.8c0 14.532 3.212 26.967 9.629 37.786 1.548 2.61.726 5.317-1.86 6.613-2.592 1.306-5.489.81-7.666-1.9-8.8-11.224-13.454-25.964-13.454-43v-2.801c0-17.046 4.654-31.774 13.454-43.001 2.177-2.71 5.074-3.209 7.666-1.903 2.586 1.305 3.408 4.006 1.86 6.616M644.577 209.032v-28.49h35.743V165.89H597.1c-3.82 0-6.386 2.94-6.386 7.33 0 4.367 2.567 7.32 6.386 7.32h30.768v28.491ZM664.68 162.743c2.869 0 5.588-1.865 6.93-4.738 1.044-2.186 1.234-4.582.487-6.572-.602-1.623-1.77-2.832-3.352-3.514-6.676-2.888-11.697-5.227-17.915-8.34-5.897-2.996-7.37-5.255-7.595-8.51h27.226v-14.647h-64.498c-3.822 0-6.389 2.944-6.389 7.32 0 4.386 2.567 7.327 6.39 7.327h20.282c-.219 3.255-1.708 5.52-7.61 8.514-6.2 3.109-11.23 5.448-17.913 8.342-1.554.688-2.679 1.881-3.27 3.46-.726 1.938-.577 4.272.417 6.418 1.364 2.82 4.071 4.623 6.922 4.623.916 0 1.822-.178 2.685-.545 7.034-3.11 12.108-5.386 18.532-8.645 4.224-2.118 6.962-3.965 8.604-5.9 1.604 2.056 4.389 3.978 8.875 6.218 6.414 3.258 11.719 5.632 18.488 8.626a6.856 6.856 0 0 0 2.704.563M696.123 118.098c8.793 11.227 13.45 25.955 13.45 43v2.801c0 17.037-4.657 31.774-13.45 43.001-2.165 2.71-5.069 3.205-7.657 1.9-2.595-1.296-3.42-4.003-1.866-6.613 6.41-10.819 9.62-23.257 9.62-37.79v-3.79c0-14.545-3.21-26.977-9.62-37.796-1.555-2.61-.73-5.311 1.866-6.617 2.588-1.305 5.492-.806 7.657 1.904M280.408 183.877c-1.788 0-3.641-.67-5.068-1.826-2.838-2.102-4.426-6.463-1.66-10.332a200.894 200.894 0 0 0 7.286-10.779c4.003-6.364 4.803-11.768 4.803-18.425v-22.127h15.788v22.127c0 6.95 1.056 10.747 2.648 14.298a51.549 51.549 0 0 0 2.51 5.14c.094.152.178.28.25.402.077-.125.162-.268.255-.433a49.947 49.947 0 0 0 2.498-5.081c1.595-3.58 2.654-7.377 2.654-14.326v-22.127h15.782v22.127c0 6.657.81 12.061 4.806 18.425a199.826 199.826 0 0 0 6.975 10.358c2.364 3.243 1.617 7.713-1.72 10.177-1.373 1.11-3.227 1.776-5.015 1.776-2.2 0-4.115-.988-5.402-2.782a264.376 264.376 0 0 1-5.629-8.233 35.253 35.253 0 0 1-2.068-3.657c-.707 1.43-1.62 3.077-2.75 4.943-1.754 2.776-3.222 4.891-5.078 7.308-1.994 2.483-3.981 3.006-5.308 3.006s-3.318-.523-5.284-2.987c-1.887-2.436-3.348-4.551-5.083-7.299-1.119-1.844-2.025-3.482-2.73-4.9a31.835 31.835 0 0 1-2.105 3.782 216.89 216.89 0 0 1-5.953 8.654c-1.277 1.794-3.196 2.79-5.402 2.79M344.688 211.76v-89.733c0-4.187 3.277-6.915 7.95-6.915 4.675 0 7.946 2.728 7.946 6.915v89.734zM391.125 136.064c-3.903 0-7.893 2.072-7.893 17.417 0 15.335 3.99 17.398 7.893 17.398 3.897 0 7.875-2.063 7.875-17.398 0-15.345-3.978-17.417-7.875-17.417m27.753 75.697V160.79h-4.847c-1.676 16.631-9.38 25.051-22.906 25.051-15.435 0-23.276-10.902-23.276-32.36 0-21.484 7.841-32.38 23.276-32.38 13.526 0 21.23 8.435 22.906 25.05h4.847v-24.123c0-4.068 3.224-6.918 7.847-6.918 3.729 0 7.731 2.168 7.731 6.919v89.733zM438.682 211.76v-89.733c0-4.062 3.225-6.915 7.841-6.915 4.617 0 7.844 2.853 7.844 6.915v89.734zM468.227 197.97c-3.828 0-6.392-2.94-6.392-7.32 0-4.507 2.51-7.423 6.392-7.423h86.996v14.744zM476.712 171.082c-2.626 0-5.215-1.554-6.75-4.05-1.24-2.065-1.664-4.654-1.091-6.772.442-1.648 1.433-2.931 2.853-3.726 5.159-2.894 11.345-6.432 18.03-10.712 6.483-4.187 9.128-8.841 9.128-16.025v-14.27h16.933v14.27c0 7.184 2.655 11.838 9.128 16.034 6.685 4.27 12.868 7.81 18.03 10.707 1.39.775 2.367 2.021 2.807 3.622.56 2.044.171 4.586-1.019 6.632-1.486 2.458-4.059 3.978-6.747 3.978a7.03 7.03 0 0 1-3.35-.834c-7.335-4.081-13.185-7.555-18.431-10.947-4.031-2.623-7.037-5.252-8.8-7.675-1.751 2.56-4.791 5.27-8.981 7.987-5.234 3.395-11.087 6.872-18.41 10.937-1.075.557-2.181.844-3.33.844M230.512 165.962v-17.354h-8.38v-14.445h8.38v-12.136c0-4.069 3.224-6.916 7.84-6.916 3.736 0 7.742 2.171 7.742 6.916v43.935zM213.38 197.159c.083 0 .264.028.55.028h33.843c.349 0 .539-.044.626-.06-.015-.05.019-.24.019-.585v-10.869a2.65 2.65 0 0 0-.056-.626c-.004 0-.022.004-.04.004-.085 0-.256-.021-.549-.021H213.93c-.355 0-.535.03-.626.059.016.047-.018.236-.018.585v10.869c0 .346.034.536.056.626.006-.01.021-.01.037-.01m-16.47 14.473v-30.715c0-7.433 2.714-10.327 10.299-10.327l57.823.025v22.124l-.178 18.893zM249.355 166.482v-44.455c0-4.069 3.22-6.916 7.837-6.916 4.614 0 7.838 2.847 7.838 6.916v44.455z" style="fill:#2e3192;fill-opacity:1;fill-rule:nonzero;stroke:none;stroke-width:3.11511" transform="translate(376.706 -50.573)"/><path d="M203.285 132.788c-3.959 0-7.18 3.542-7.18 7.906 0 4.374 3.221 7.919 7.18 7.919 3.953 0 7.171-3.545 7.171-7.919 0-4.364-3.218-7.906-7.17-7.906m0 32.75c-12.723 0-23.074-11.14-23.074-24.844 0-13.688 10.351-24.83 23.073-24.83 12.716 0 23.064 11.142 23.064 24.83 0 13.703-10.348 24.843-23.064 24.843" style="fill:#2e3192;fill-opacity:1;fill-rule:nonzero;stroke:none;stroke-width:3.11511" transform="translate(376.706 -50.573)"/><path d="M-6.952 229.308h6.486v17.815h.127l9.47-17.815h6.486L6.779 244.93l10.489 23.4h-6.866L3.03 251.014l-3.495 5.641v11.675h-6.486ZM20.128 229.308h19.327v5.261h-12.84v11.454H37.8v5.265H26.614v11.45h12.84v5.592H20.129ZM50.134 247.834h3.115c1.315 0 2.33-.165 3.05-.492.723-.33 1.252-.776 1.592-1.346.34-.564.539-1.25.604-2.053.063-.804.094-1.7.094-2.685 0-.913-.031-1.785-.094-2.605-.065-.822-.255-1.532-.573-2.14-.318-.6-.816-1.074-1.492-1.423-.68-.346-1.654-.52-2.925-.52h-3.37Zm-6.485-18.526h9.728c1.779 0 3.349.2 4.704.601 1.355.405 2.586 1.116 3.688 2.14 1.1 1.022 1.863 2.222 2.287 3.59.423 1.37.635 3.223.635 5.563 0 1.72-.115 3.19-.349 4.41a8.527 8.527 0 0 1-1.492 3.427c-.89 1.28-2.078 2.274-3.56 2.988-1.486.71-3.433 1.065-5.847 1.065h-3.309v15.24H43.65zM90.123 259.616a7.817 7.817 0 0 1-.795 3.452 9.007 9.007 0 0 1-2.193 2.878c-.934.825-2.025 1.483-3.274 1.975-1.252.492-2.598.738-4.037.738-1.23 0-2.48-.146-3.75-.436a9.697 9.697 0 0 1-3.433-1.508c-1.019-.713-1.857-1.654-2.511-2.822-.657-1.171-.988-2.65-.988-4.442v-21.482c0-1.277.256-2.467.764-3.564a8.388 8.388 0 0 1 2.161-2.85c.932-.804 2.044-1.433 3.337-1.89 1.293-.459 2.722-.686 4.292-.686 1.483 0 2.86.227 4.131.685 1.274.458 2.374 1.097 3.308 1.92a8.803 8.803 0 0 1 2.193 2.959c.53 1.149.795 2.404.795 3.753v2.193h-6.486v-1.863c0-1.096-.358-2.05-1.08-2.85-.72-.804-1.696-1.205-2.923-1.205-1.614 0-2.682.43-3.212 1.286-.53.86-.794 1.947-.794 3.262v19.949c0 1.134.287 2.084.86 2.85.57.766 1.598 1.15 3.08 1.15.424 0 .882-.06 1.368-.19.486-.128.932-.34 1.333-.63.405-.293.733-.694.988-1.205.252-.511.38-1.153.38-1.92v-1.915h6.486zM101.5 259.123c0 1.355.436 2.349 1.302 2.988.87.638 1.897.959 3.084.959s2.215-.32 3.084-.96c.87-.638 1.302-1.632 1.302-2.987v-20.606c0-1.352-.433-2.35-1.302-2.988-.87-.638-1.897-.96-3.084-.96s-2.215.322-3.084.96c-.866.639-1.302 1.636-1.302 2.988zm-6.486-20.606c0-1.57.321-2.96.957-4.165.635-1.209 1.47-2.203 2.51-2.988a11.302 11.302 0 0 1 3.496-1.781 13.1 13.1 0 0 1 3.909-.605c1.315 0 2.617.203 3.913.605 1.29.401 2.454.996 3.495 1.781a8.856 8.856 0 0 1 2.51 2.988c.636 1.205.95 2.595.95 4.165v20.606c0 1.61-.314 3.006-.95 4.193a8.938 8.938 0 0 1-2.51 2.96 11.303 11.303 0 0 1-3.495 1.781 13.136 13.136 0 0 1-3.913.605 13.1 13.1 0 0 1-3.91-.605 11.234 11.234 0 0 1-3.495-1.782 8.902 8.902 0 0 1-2.51-2.959c-.636-1.187-.957-2.582-.957-4.193zM134.303 229.308h6.23l8.33 20.662h.124l8.265-20.662h6.295v39.022h-6.485V244.6h-.125l-6.423 16.771h-3.243l-6.358-16.771h-.124v23.73h-6.486zM175.18 252.163h6.357v-3.18c0-1.057-.286-1.851-.856-2.384-.573-.53-1.349-.794-2.32-.794-.98 0-1.752.265-2.325.794-.57.533-.856 1.327-.856 2.383zm0 4.383v3.785c0 .875.286 1.55.856 2.024.573.477 1.346.714 2.324.714 1.227 0 2.044-.309 2.449-.932.401-.62.644-1.24.728-1.862h6.483a8.161 8.161 0 0 1-.667 3.29 7.209 7.209 0 0 1-1.937 2.628c-.848.77-1.866 1.37-3.05 1.81-1.19.44-2.523.657-4.006.657-1.994 0-3.71-.364-5.152-1.096-1.44-.73-2.542-1.701-3.302-2.903-.47-.732-.785-1.57-.957-2.524-.171-.95-.252-1.99-.252-3.124v-9.152c0-1.134.081-2.175.252-3.125.172-.95.486-1.788.957-2.52.76-1.205 1.863-2.174 3.302-2.903 1.442-.732 3.158-1.097 5.152-1.097 1.483 0 2.829.218 4.034.658 1.209.439 2.224 1.05 3.053 1.834a8.074 8.074 0 0 1 1.906 2.77 8.674 8.674 0 0 1 .667 3.395v7.673zM192.79 232.103h6.483v8.442h4.006v4.383h-4.006v15.404c0 .654.071 1.168.22 1.533.15.364.384.638.702.819.318.187.732.296 1.24.33.507.038 1.124.053 1.844.053v5.265h-2.67c-1.486 0-2.723-.203-3.72-.602-.996-.401-1.79-.912-2.382-1.538a5.747 5.747 0 0 1-1.303-2.106 6.824 6.824 0 0 1-.414-2.277v-16.881h-3.243v-4.383h3.243zM211.67 252.163h6.357v-3.18c0-1.057-.286-1.851-.856-2.384-.574-.53-1.35-.794-2.321-.794-.978 0-1.75.265-2.324.794-.57.533-.857 1.327-.857 2.383zm0 4.383v3.785c0 .875.286 1.55.856 2.024.573.477 1.346.714 2.324.714 1.227 0 2.043-.309 2.448-.932.402-.62.645-1.24.73-1.862h6.482a8.161 8.161 0 0 1-.667 3.29 7.209 7.209 0 0 1-1.938 2.628c-.847.77-1.865 1.37-3.05 1.81-1.19.44-2.522.657-4.005.657-1.994 0-3.71-.364-5.153-1.096-1.439-.73-2.542-1.701-3.302-2.903-.47-.732-.785-1.57-.956-2.524-.171-.95-.252-1.99-.252-3.124v-9.152c0-1.134.08-2.175.252-3.125.171-.95.486-1.788.956-2.52.76-1.205 1.863-2.174 3.302-2.903 1.443-.732 3.16-1.097 5.153-1.097 1.483 0 2.828.218 4.034.658 1.208.439 2.224 1.05 3.053 1.834a8.074 8.074 0 0 1 1.906 2.77 8.674 8.674 0 0 1 .667 3.395v7.673zM229.28 240.545h6.483v2.956c1.314-1.022 2.607-1.825 3.878-2.408 1.271-.585 2.838-.875 4.704-.875v5.916a6.032 6.032 0 0 0-1.969-.33c-.679 0-1.411.102-2.193.301a6.404 6.404 0 0 0-2.162 1.016 5.619 5.619 0 0 0-1.623 1.863c-.423.766-.635 1.72-.635 2.85v16.498h-6.483z" style="fill:#918f90;fill-opacity:1;fill-rule:nonzero;stroke:none;stroke-width:3.11511" transform="translate(376.706 -50.573)"/><path d="M246.952 240.545h6.483v27.786h-6.483zm0-11.236h6.483v5.591h-6.483z" style="fill:#918f90;fill-opacity:1;fill-rule:nonzero;stroke:none;stroke-width:3.11512" transform="translate(376.706 -50.573)"/><path d="M258.776 240.545h6.483v2.682h.127a8.696 8.696 0 0 1 2.449-2.162c.953-.567 2.168-.847 3.654-.847.807 0 1.61.118 2.414.355.807.237 1.53.63 2.165 1.178.636.545 1.143 1.252 1.523 2.108.384.86.574 1.91.574 3.153v21.32h-6.483v-19.24c0-1.02-.277-1.825-.829-2.41-.551-.586-1.336-.879-2.351-.879-1.228 0-2.078.33-2.542.988-.468.66-.701 1.607-.701 2.85v18.69h-6.483zM289.988 259.78c0 .879.221 1.645.67 2.302.442.657 1.28.988 2.51.988.929 0 1.704-.28 2.321-.85.614-.565.922-1.287.922-2.166v-10.797c0-1.021-.299-1.853-.894-2.495-.592-.639-1.377-.956-2.349-.956-1.102 0-1.91.346-2.417 1.043-.508.692-.763 1.605-.763 2.738zm0 11.785c.044.657.349 1.277.922 1.865.57.583 1.408.876 2.514.876 1.056 0 1.82-.284 2.286-.847.465-.57.701-1.29.701-2.169v-5.48h-.127a7.496 7.496 0 0 1-2.577 2.11c-.996.492-2.152.741-3.464.741-2.67 0-4.557-.878-5.657-2.632-.38-.62-.657-1.386-.828-2.299-.172-.913-.253-2.14-.253-3.676v-10.579c0-2.006.063-3.489.187-4.436.131-.95.405-1.716.829-2.305.551-.729 1.258-1.33 2.13-1.807.87-.473 2.088-.71 3.658-.71.8 0 1.492.072 2.065.218.57.147 1.087.346 1.558.602.464.255.887.557 1.27.903.38.349.783.723 1.21 1.124v-2.52h6.482v31.186c0 .95-.18 1.91-.54 2.878-.36.966-.943 1.844-1.75 2.63-.807.784-1.822 1.426-3.05 1.918-1.23.492-2.694.738-4.386.738-.978 0-1.993-.137-3.052-.41a9.089 9.089 0 0 1-2.957-1.368c-.91-.639-1.694-1.493-2.351-2.552-.658-1.056-1.094-2.392-1.303-4zM327.686 240.6c0 .84.233 1.744.7 2.71a18.446 18.446 0 0 0 1.78 2.934c.382-.33.806-.704 1.27-1.124a9.5 9.5 0 0 0 1.271-1.396c.383-.51.701-1.071.957-1.673.252-.604.38-1.252.38-1.946 0-.695-.278-1.334-.829-1.916-.548-.586-1.311-.879-2.287-.879-.971 0-1.756.34-2.351 1.016-.592.673-.891 1.43-.891 2.274m-2.287 18.743c0 1.352.455 2.511 1.365 3.48.912.969 2.068 1.455 3.464 1.455.978 0 1.91-.265 2.8-.795.888-.53 1.567-1.053 2.034-1.563l-6.23-8.551a13.902 13.902 0 0 0-2.448 2.713c-.658.969-.985 2.056-.985 3.261m12.267 6.028c-1.27 1.097-2.594 1.919-3.971 2.467-1.38.549-2.938.823-4.673.823-1.27 0-2.48-.218-3.623-.658-1.146-.439-2.143-1.05-2.987-1.838a8.38 8.38 0 0 1-2.003-2.85c-.49-1.112-.732-2.346-.732-3.7 0-2.153.592-4.035 1.778-5.642 1.187-1.61 2.67-3.106 4.452-4.495a23.09 23.09 0 0 1-2.829-4.302 10.289 10.289 0 0 1-1.112-4.685c0-1.025.19-2.003.574-2.935a6.745 6.745 0 0 1 1.65-2.41c.72-.677 1.63-1.216 2.736-1.62 1.1-.4 2.392-.602 3.875-.602 1.398 0 2.629.193 3.688.577 1.056.386 1.95.897 2.67 1.535a6.489 6.489 0 0 1 1.65 2.25c.384.856.577 1.76.577 2.71 0 1.828-.66 3.573-1.972 5.233-1.314 1.666-2.863 3.19-4.641 4.576.806 1.062 1.729 2.34 2.766 3.838a79.528 79.528 0 0 0 3.212 4.33l3.495-4.11 4.003 2.409-4.832 5.373 4.894 6.685h-6.483zM383.438 259.616a7.817 7.817 0 0 1-.794 3.452 9.052 9.052 0 0 1-2.193 2.878c-.935.825-2.025 1.483-3.277 1.975-1.25.492-2.595.738-4.037.738a16.81 16.81 0 0 1-3.748-.436 9.697 9.697 0 0 1-3.433-1.508c-1.015-.713-1.856-1.654-2.51-2.822-.66-1.171-.985-2.65-.985-4.442v-21.482c0-1.277.252-2.467.76-3.564a8.388 8.388 0 0 1 2.162-2.85c.931-.804 2.044-1.433 3.336-1.89 1.293-.459 2.723-.686 4.293-.686 1.483 0 2.86.227 4.13.685 1.275.458 2.374 1.097 3.309 1.92a8.845 8.845 0 0 1 2.193 2.959c.53 1.149.794 2.404.794 3.753v2.193h-6.485v-1.863c0-1.096-.359-2.05-1.081-2.85-.72-.804-1.695-1.205-2.922-1.205-1.614 0-2.686.43-3.212 1.286-.53.86-.794 1.947-.794 3.262v19.949c0 1.134.283 2.084.856 2.85s1.601 1.15 3.084 1.15c.424 0 .882-.06 1.368-.19.486-.128.931-.34 1.333-.63.402-.293.732-.694.988-1.205.255-.511.38-1.153.38-1.92v-1.915h6.485zM407.72 268.331h-6.482v-2.685h-.128a8.738 8.738 0 0 1-2.445 2.165c-.957.567-2.175.847-3.658.847a8.483 8.483 0 0 1-2.414-.355 5.761 5.761 0 0 1-2.165-1.177c-.635-.548-1.143-1.252-1.523-2.11-.383-.859-.573-1.909-.573-3.152v-21.32h6.482v19.236c0 1.025.277 1.829.829 2.412.551.585 1.336.878 2.352.878 1.227 0 2.078-.33 2.542-.988.467-.657.7-1.604.7-2.85v-18.687h6.483zM424.823 248.327c-.044-.95-.393-1.66-1.05-2.14-.657-.474-1.408-.71-2.259-.71-1.015 0-1.8.283-2.348.847-.552.57-.829 1.218-.829 1.946 0 .511.15 1.016.445 1.508.296.495 1.06.944 2.29 1.343l3.816 1.314c2.414.807 4.075 1.904 4.987 3.29a8.121 8.121 0 0 1 1.368 4.551 7.403 7.403 0 0 1-.732 3.262 8.67 8.67 0 0 1-2 2.654c-.85.77-1.866 1.373-3.053 1.81-1.187.439-2.48.657-3.878.657-1.271 0-2.48-.18-3.623-.545-1.143-.368-2.153-.897-3.022-1.592a8.142 8.142 0 0 1-2.127-2.601c-.552-1.044-.85-2.259-.891-3.645h6.102c.125.766.433 1.48.922 2.134.49.657 1.346.99 2.573.99.932 0 1.773-.264 2.514-.797.739-.53 1.112-1.268 1.112-2.218 0-.77-.236-1.427-.7-1.975-.465-.545-1.315-1.022-2.542-1.423l-3.116-.988c-2.034-.657-3.632-1.635-4.797-2.934-1.168-1.296-1.75-2.873-1.75-4.738 0-1.169.255-2.259.763-3.262a7.901 7.901 0 0 1 2.065-2.576c.87-.714 1.875-1.268 3.022-1.67 1.143-.402 2.373-.604 3.688-.604 1.308 0 2.53.212 3.65.632 1.125.418 2.088.985 2.895 1.698a7.668 7.668 0 0 1 1.906 2.576c.467 1.003.701 2.075.701 3.206zM435.44 232.103h6.482v8.442h4.006v4.383h-4.006v15.404c0 .654.072 1.168.221 1.533.15.364.383.638.701.819.318.187.732.296 1.24.33.508.038 1.124.053 1.844.053v5.265h-2.67c-1.485 0-2.722-.203-3.719-.602-.997-.401-1.791-.912-2.383-1.538a5.747 5.747 0 0 1-1.302-2.106 6.824 6.824 0 0 1-.414-2.277v-16.881h-3.243v-4.383h3.243zM454.319 259.89c0 1.062.287 1.856.857 2.386.573.53 1.345.794 2.323.794.972 0 1.748-.265 2.321-.794.57-.53.857-1.324.857-2.386v-10.906c0-1.06-.287-1.854-.857-2.387-.573-.53-1.349-.79-2.32-.79-.979 0-1.751.26-2.324.79-.57.533-.857 1.327-.857 2.387zm-6.483-10.031c0-1.13.081-2.171.253-3.125.171-.947.486-1.788.956-2.517.76-1.208 1.863-2.174 3.302-2.906 1.442-.729 3.159-1.093 5.152-1.093 1.991 0 3.707.364 5.15 1.093 1.439.732 2.542 1.698 3.302 2.906.47.73.785 1.57.956 2.517.168.954.252 1.994.252 3.125v9.155c0 1.134-.084 2.175-.252 3.125-.171.95-.486 1.79-.956 2.52-.76 1.205-1.863 2.174-3.302 2.906-1.443.73-3.159 1.094-5.15 1.094-1.993 0-3.71-.365-5.152-1.094-1.44-.732-2.542-1.7-3.302-2.906-.47-.73-.785-1.57-.956-2.52-.172-.95-.253-1.99-.253-3.125zM471.93 240.545h6.482v2.682h.128a8.696 8.696 0 0 1 2.448-2.162c.953-.567 2.168-.847 3.654-.847 1.399 0 2.564.29 3.499.875.93.583 1.694 1.221 2.286 1.916a13.23 13.23 0 0 1 2.673-1.972c.972-.548 2.33-.82 4.068-.82.8 0 1.63.12 2.477.356.85.237 1.61.63 2.29 1.178.678.545 1.227 1.252 1.653 2.108.424.86.636 1.91.636 3.153v21.32h-6.486v-19.24c0-1.02-.277-1.825-.825-2.41-.552-.586-1.334-.879-2.352-.879-1.23 0-2.078.33-2.545.988-.464.66-.698 1.607-.698 2.85v18.69h-6.483v-19.238c0-1.022-.277-1.826-.828-2.411-.552-.586-1.337-.879-2.352-.879-1.227 0-2.078.33-2.542.988-.467.66-.7 1.607-.7 2.85v18.69h-6.483zM515.474 252.163h6.358v-3.18c0-1.057-.287-1.851-.857-2.384-.573-.53-1.349-.794-2.32-.794-.979 0-1.751.265-2.324.794-.57.533-.857 1.327-.857 2.383zm0 4.383v3.785c0 .875.287 1.55.857 2.024.573.477 1.345.714 2.324.714 1.227 0 2.043-.309 2.448-.932.402-.62.645-1.24.729-1.862h6.482a8.161 8.161 0 0 1-.666 3.29 7.209 7.209 0 0 1-1.938 2.628c-.847.77-1.866 1.37-3.05 1.81-1.19.44-2.523.657-4.005.657-1.994 0-3.71-.364-5.153-1.096-1.439-.73-2.542-1.701-3.302-2.903-.47-.732-.785-1.57-.956-2.524-.172-.95-.253-1.99-.253-3.124v-9.152c0-1.134.081-2.175.253-3.125.171-.95.486-1.788.956-2.52.76-1.205 1.863-2.174 3.302-2.903 1.442-.732 3.159-1.097 5.153-1.097 1.482 0 2.828.218 4.034.658 1.208.439 2.224 1.05 3.052 1.834a8.074 8.074 0 0 1 1.907 2.77 8.675 8.675 0 0 1 .666 3.395v7.673zM533.085 240.545h6.482v2.956c1.315-1.022 2.607-1.825 3.878-2.408 1.271-.585 2.838-.875 4.704-.875v5.916a6.032 6.032 0 0 0-1.968-.33c-.68 0-1.412.102-2.194.301a6.404 6.404 0 0 0-2.161 1.016 5.619 5.619 0 0 0-1.623 1.863c-.424.766-.636 1.72-.636 2.85v16.498h-6.482zM583.94 240.545h-6.483v-1.262c0-1.277-.35-2.383-1.05-3.317-.7-.932-1.878-1.396-3.53-1.396-.887 0-1.62.147-2.192.44-.57.29-1.016.666-1.337 1.12a4.372 4.372 0 0 0-.663 1.593 9.063 9.063 0 0 0-.193 1.887c0 .77.034 1.418.096 1.947.062.53.224.988.477 1.371.255.383.626.723 1.112 1.016.486.292 1.152.582 2.003.875l4.956 1.698c1.442.476 2.607 1.034 3.498 1.672.891.64 1.576 1.39 2.069 2.25.486.856.813 1.844.984 2.956.168 1.115.252 2.386.252 3.813 0 1.641-.19 3.168-.573 4.573-.38 1.41-1.006 2.613-1.872 3.62-.87 1.006-2.028 1.8-3.464 2.382-1.442.586-3.202.876-5.28.876-1.567 0-3.028-.237-4.386-.71-1.358-.474-2.523-1.122-3.495-1.947a9.152 9.152 0 0 1-2.321-2.935 7.994 7.994 0 0 1-.86-3.67v-2.08h6.486v1.75c0 1.025.352 1.947 1.046 2.77.701.822 1.879 1.23 3.53 1.23 1.103 0 1.962-.134 2.576-.408.614-.274 1.081-.657 1.399-1.152.318-.493.52-1.103.604-1.835.084-.732.128-1.536.128-2.411 0-1.022-.044-1.863-.128-2.52-.084-.658-.265-1.187-.542-1.592-.274-.402-.657-.73-1.143-.988-.486-.255-1.134-.526-1.938-.819l-4.641-1.645c-2.798-.987-4.673-2.293-5.626-3.919-.956-1.626-1.43-3.663-1.43-6.111 0-1.461.23-2.85.698-4.165.467-1.315 1.156-2.446 2.068-3.399.91-.95 2.066-1.707 3.464-2.274 1.396-.567 3.028-.85 4.894-.85 1.61 0 3.084.255 4.417.766 1.337.514 2.48 1.19 3.436 2.031.95.838 1.682 1.779 2.19 2.822a7.19 7.19 0 0 1 .763 3.206zM594.3 252.163h6.359v-3.18c0-1.057-.287-1.851-.857-2.384-.573-.53-1.349-.794-2.32-.794-.979 0-1.751.265-2.325.794-.57.533-.856 1.327-.856 2.383zm0 4.383v3.785c0 .875.287 1.55.857 2.024.574.477 1.346.714 2.324.714 1.228 0 2.044-.309 2.449-.932.402-.62.645-1.24.729-1.862h6.482a8.161 8.161 0 0 1-.666 3.29 7.209 7.209 0 0 1-1.938 2.628c-.847.77-1.866 1.37-3.05 1.81-1.19.44-2.523.657-4.006.657-1.993 0-3.71-.364-5.152-1.096-1.44-.73-2.542-1.701-3.302-2.903-.47-.732-.785-1.57-.956-2.524-.172-.95-.253-1.99-.253-3.124v-9.152c0-1.134.081-2.175.253-3.125.17-.95.485-1.788.956-2.52.76-1.205 1.863-2.174 3.302-2.903 1.442-.732 3.159-1.097 5.152-1.097 1.483 0 2.829.218 4.034.658 1.209.439 2.225 1.05 3.053 1.834a8.074 8.074 0 0 1 1.907 2.77 8.674 8.674 0 0 1 .666 3.395v7.673zM611.911 240.545h6.483v2.956c1.314-1.022 2.607-1.825 3.878-2.408 1.271-.585 2.838-.875 4.704-.875v5.916a6.032 6.032 0 0 0-1.969-.33c-.679 0-1.41.102-2.193.301a6.404 6.404 0 0 0-2.162 1.016 5.619 5.619 0 0 0-1.623 1.863c-.423.766-.635 1.72-.635 2.85v16.498h-6.483z" style="fill:#918f90;fill-opacity:1;fill-rule:nonzero;stroke:none;stroke-width:3.11511" transform="translate(376.706 -50.573)"/><path d="M640.963 268.331h-5.719l-8.392-27.786h6.866l4.323 17.756h.128l4.32-17.756h6.867z" style="fill:#918f90;fill-opacity:1;fill-rule:nonzero;stroke:none;stroke-width:3.11511" transform="translate(376.706 -50.573)"/><path d="M651.96 240.545h6.482v27.786h-6.483zm0-11.236h6.482v5.591h-6.483z" style="fill:#918f90;fill-opacity:1;fill-rule:nonzero;stroke:none;stroke-width:3.11512" transform="translate(376.706 -50.573)"/><path d="M670.651 260.33c0 .876.287 1.552.857 2.025.573.477 1.346.714 2.32.714 1.228 0 2.044-.309 2.45-.932.401-.62.644-1.24.728-1.862h6.486a8.111 8.111 0 0 1-.67 3.29 7.2 7.2 0 0 1-1.938 2.628c-.847.77-1.862 1.37-3.05 1.81-1.186.44-2.523.657-4.005.657-1.994 0-3.71-.364-5.15-1.096-1.442-.73-2.542-1.701-3.305-2.903-.467-.732-.785-1.57-.953-2.524-.171-.95-.255-1.99-.255-3.124v-9.152c0-1.134.084-2.175.255-3.125.168-.95.486-1.788.953-2.52.763-1.209 1.863-2.174 3.305-2.903 1.44-.732 3.156-1.097 5.15-1.097 1.482 0 2.828.218 4.034.658 1.212.439 2.227 1.05 3.056 1.834a7.972 7.972 0 0 1 1.903 2.823c.449 1.096.67 2.283.67 3.563h-6.486c0-1.133-.287-1.962-.857-2.495-.573-.53-1.345-.794-2.32-.794-.975 0-1.748.265-2.321.794-.57.533-.857 1.327-.857 2.383zM693.217 252.163h6.358v-3.18c0-1.057-.286-1.851-.856-2.384-.573-.53-1.35-.794-2.321-.794-.978 0-1.75.265-2.324.794-.57.533-.857 1.327-.857 2.383zm0 4.383v3.785c0 .875.287 1.55.857 2.024.573.477 1.346.714 2.324.714 1.227 0 2.043-.309 2.448-.932.402-.62.645-1.24.73-1.862h6.482a8.161 8.161 0 0 1-.667 3.29 7.209 7.209 0 0 1-1.937 2.628c-.848.77-1.866 1.37-3.05 1.81-1.19.44-2.523.657-4.006.657-1.994 0-3.71-.364-5.152-1.096-1.44-.73-2.542-1.701-3.302-2.903-.47-.732-.785-1.57-.957-2.524-.171-.95-.252-1.99-.252-3.124v-9.152c0-1.134.08-2.175.252-3.125.172-.95.486-1.788.957-2.52.76-1.205 1.862-2.174 3.302-2.903 1.442-.732 3.158-1.097 5.152-1.097 1.483 0 2.828.218 4.034.658 1.209.439 2.224 1.05 3.053 1.834a8.074 8.074 0 0 1 1.906 2.77 8.674 8.674 0 0 1 .667 3.395v7.673z" style="fill:#918f90;fill-opacity:1;fill-rule:nonzero;stroke:none;stroke-width:3.11511" transform="translate(376.706 -50.573)"/><path d="M-318.36 195.358c-.028-.433-.066-.857-.085-1.29.02.433.057.857.085 1.29M-238.983 110.702h-.006c-38.44 0-70.52 27.276-77.937 63.527 7.417-36.25 39.496-63.527 77.943-63.527M-232.709 110.943a.127.127 0 0 0 .04.006c-.015 0-.027-.004-.04-.006M-235.838 110.763c.05 0 .097.006.147.006-.05 0-.097-.006-.147-.006M-311.945 221.991c-.174-.395-.352-.794-.514-1.196.166.402.34.8.514 1.196M-314.594 215.019c-.137-.418-.287-.835-.418-1.255.131.42.28.837.418 1.255M-315.957 210.425c-.131-.508-.246-1.028-.368-1.539.122.511.237 1.031.368 1.54M-106.906 122.159c.153.09.296.193.442.277-.146-.084-.29-.187-.442-.277M-114.224 118.253c.337.153.673.315 1.006.473-.333-.158-.67-.32-1.006-.473M-129.263 112.954c.424.109.848.196 1.271.305-.423-.11-.847-.196-1.27-.305M-310.509 225.118c-.187-.377-.364-.769-.542-1.152.178.386.355.775.542 1.152M-133.194 112.108c.582.112 1.168.22 1.747.34-.58-.119-1.165-.228-1.747-.34M-160.397 268.86c-.246-.037-.483-.083-.726-.124.243.04.48.087.726.125M-308.554 228.854c-.212-.377-.42-.76-.63-1.143.21.383.418.766.63 1.143M-238.99 269.822h.005-.025zM-157.302 269.284c-.454-.053-.912-.122-1.373-.178.46.056.919.125 1.373.178M-100.71 126.33c.2.143.393.292.592.442-.199-.15-.392-.3-.591-.443M-228.949 269.183c-.564.065-1.128.13-1.695.19.567-.06 1.131-.125 1.695-.19M-163.481 268.32c-.047-.013-.097-.022-.144-.032.047.01.097.019.144.031M-225.779 268.715c-.47.078-.944.15-1.417.221.473-.072.947-.143 1.417-.221M-232.228 269.527c-.68.06-1.361.1-2.044.14.683-.04 1.365-.078 2.044-.14M-257.694 267.59c-.457-.11-.925-.213-1.386-.331.461.118.929.221 1.386.33M-297.265 244.4c-.336-.362-.673-.733-1.01-1.1.337.367.674.738 1.01 1.1M-304.826 234.926c-.05-.077-.11-.155-.165-.233.056.078.115.155.165.233M-291.94 249.622c-.296-.264-.589-.52-.882-.797.293.277.586.533.882.797M-295.014 246.736c-.287-.284-.567-.58-.847-.866.28.286.56.585.847.866M-269.63 263.698c-.289-.118-.575-.249-.865-.377.29.128.576.259.866.377M-282.785 256.674c-.423-.28-.844-.57-1.268-.85.424.28.845.57 1.268.85M-279.99 258.448c-.356-.209-.708-.443-1.06-.657.352.214.704.448 1.06.657M-82.442 145.273l.496.722c-.165-.249-.334-.486-.496-.722M-84.548 142.34c.187.256.373.505.56.76-.187-.255-.373-.504-.56-.76M-148.053 269.816c-2.81 0-5.58-.156-8.312-.445 2.73.292 5.502.451 8.312.451 29.811 0 55.782-16.41 69.407-40.686-13.625 24.273-39.596 40.68-69.407 40.68M-234.272 269.667c-.436.028-.866.065-1.302.078.436-.013.866-.05 1.302-.078M-224.588 268.517l.031-.028c-.408.084-.81.156-1.221.224.396-.065.794-.118 1.19-.196M-227.197 268.937c-.585.084-1.168.174-1.75.246.582-.072 1.165-.162 1.75-.246M-238.976 269.822c.025 0 .057-.004.085-.004-.032 0-.06.004-.094.004zM-230.645 269.372c-.526.056-1.053.112-1.582.156.53-.044 1.056-.1 1.582-.156M-243.595 269.685c.069.01.147.01.215.016-.068-.006-.137-.019-.206-.019z" style="fill:#4dc4ce;fill-opacity:1;fill-rule:nonzero;stroke:none;stroke-width:3.11511" transform="translate(376.706 -50.573)"/><path d="m-193.516 240.366 27.65-18.679 91.381-61.728c-.071-.181-.137-.365-.212-.542-.065-.15-.133-.296-.193-.45a88.502 88.502 0 0 0-1.183-2.61c-.134-.277-.259-.554-.393-.834a75.73 75.73 0 0 0-1.785-3.452c-.227-.414-.473-.81-.707-1.224l-84.435 64.299-30.123 22.936-11.784 7.427-38.285 24.173c.069 0 .137.012.206.018.27.01.548.022.819.035 1.18.05 2.361.084 3.551.087h.025c.034 0 .062-.004.093-.004a91.689 91.689 0 0 0 3.315-.072c.44-.015.87-.053 1.305-.08a50.51 50.51 0 0 0 2.044-.14c.53-.041 1.056-.1 1.582-.15.567-.063 1.134-.125 1.695-.193.585-.069 1.168-.162 1.754-.247.473-.074.947-.143 1.417-.22.411-.072.813-.144 1.221-.228l22.183-20.099zM-158.675 269.107c-.573-.087-1.156-.156-1.723-.246.567.09 1.15.159 1.723.246M-156.365 269.372c-.311-.031-.626-.053-.937-.087.311.034.626.062.937.087M-192.75 256.087a79.185 79.185 0 0 0 29.127 12.202c-10.604-2.122-20.435-6.364-29.074-12.243z" style="fill:#4dc4ce;fill-opacity:1;fill-rule:nonzero;stroke:none;stroke-width:3.11511" transform="translate(376.706 -50.573)"/><path d="M-68.495 190.214c0-1.262-.04-2.514-.097-3.76-.019-.443-.056-.879-.087-1.324-.053-.807-.11-1.617-.18-2.427a98.876 98.876 0 0 0-.442-3.698 92.007 92.007 0 0 0-.253-1.66c-.11-.666-.234-1.33-.352-1.987-.11-.564-.215-1.131-.337-1.692-.134-.648-.29-1.286-.442-1.928-.134-.551-.256-1.112-.402-1.66a77.917 77.917 0 0 0-1.458-4.863c-.174-.533-.349-1.068-.536-1.595l-119.617 92.428c8.639 5.878 18.47 10.121 29.074 12.24.046.01.096.018.143.03.779.153 1.57.287 2.358.418.243.04.48.087.726.125.567.09 1.15.159 1.723.246.457.056.915.124 1.373.177.309.04.623.056.935.088 2.732.29 5.504.445 8.311.445 29.815 0 55.782-16.407 69.41-40.68a79.21 79.21 0 0 0 10.15-38.876zM-313.966 216.914l.01-.006c-.221-.626-.427-1.256-.639-1.888.212.632.408 1.265.63 1.894M-194.322 124.428a79.1 79.1 0 0 0-38.347-13.479c14.14 1.122 27.22 5.966 38.306 13.51zM-238.976 110.702h-.006a80.722 80.722 0 0 1 .007 0M-316.324 208.886c-.165-.682-.33-1.358-.476-2.044.146.686.308 1.362.476 2.044M-315.011 213.762" style="fill:#4dc4ce;fill-opacity:1;fill-rule:nonzero;stroke:none;stroke-width:3.11511" transform="translate(376.706 -50.573)"/><path d="M-232.668 110.949c-.015 0-.028-.004-.04-.006-.994-.069-1.985-.131-2.981-.175-.05 0-.1-.01-.15-.01a95.596 95.596 0 0 0-3.143-.056c-38.45 0-70.526 27.276-77.943 63.52a79.723 79.723 0 0 0-1.617 16.034c0 1.277.034 2.548.097 3.812.019.43.056.857.084 1.29.05.823.112 1.651.187 2.474.05.514.109 1.024.165 1.532a80.979 80.979 0 0 0 .526 3.8c.11.68.234 1.365.368 2.041.097.548.202 1.087.315 1.635.146.689.311 1.365.476 2.044.122.514.234 1.034.368 1.542.293 1.121.607 2.227.944 3.336.13.424.28.838.417 1.256.212.632.414 1.261.639 1.89l119.595-92.45c-11.087-7.544-24.167-12.388-38.307-13.51M-298.444 243.112c.056.066.116.122.168.19a2.375 2.375 0 0 0-.165-.196zM-110.304 120.212a75.296 75.296 0 0 0-.003 0zM-291.245 250.25l.013-.013c-.234-.206-.474-.408-.707-.614.23.206.46.42.694.626M-120.606 115.564l-.004.004c1.053.386 2.09.8 3.121 1.23a79.048 79.048 0 0 0-3.118-1.233M-116.434 117.249" style="fill:#4dc4ce;fill-opacity:1;fill-rule:nonzero;stroke:none;stroke-width:3.11511" transform="translate(376.706 -50.573)"/><path d="m-193.516 175.055 26.961-17.763 56.247-37.079a70.959 70.959 0 0 0-2.91-1.486c-.333-.162-.67-.327-1.006-.473a64.017 64.017 0 0 0-2.209-1.006c-.355-.153-.697-.302-1.056-.449a69.854 69.854 0 0 0-3.121-1.233l-47.96 37.642-24.946 19.591-33.917 22.725-71.006 47.583c.06.062.112.128.165.193.337.365.67.739 1.01 1.1.46.495.931.984 1.401 1.467.284.29.564.586.848.87.72.71 1.451 1.41 2.196 2.09.29.277.586.532.878.794.234.209.477.408.71.617l64.309-49.478zM-279.986 258.454c0-.006 0-.006-.004-.006.004 0 .004 0 .004.006M-281.05 257.79c-.583-.37-1.16-.735-1.736-1.115.573.38 1.153.745 1.735 1.116M-284.052 255.822c-.526-.364-1.046-.741-1.567-1.109.52.371 1.04.745 1.567 1.11M-98.403 128.1c-.564-.448-1.137-.89-1.714-1.33.577.44 1.137.89 1.704 1.336zM-288.627 252.427c.358.29.726.564 1.09.844-.364-.28-.723-.557-1.08-.85zM-107.033 122.08l-.004.01c.044.025.088.047.131.068-.043-.021-.084-.05-.127-.077M-103.201 124.556" style="fill:#4dc4ce;fill-opacity:1;fill-rule:nonzero;stroke:none;stroke-width:3.11511" transform="translate(376.706 -50.573)"/><path d="m-193.516 191.394 31.578-21.015 63.523-42.271c-.564-.446-1.128-.898-1.7-1.337-.2-.15-.396-.299-.596-.442a78.147 78.147 0 0 0-3.292-2.312 70.248 70.248 0 0 0-2.461-1.582c-.147-.087-.29-.184-.443-.277-.04-.022-.087-.044-.127-.069l-56.262 43.6-30.22 23.419-31.584 21.042-63.517 42.272c.355.296.717.567 1.078.847a93.41 93.41 0 0 0 1.919 1.443c.52.367 1.043.744 1.57 1.112.42.28.841.57 1.265.85.576.38 1.152.745 1.735 1.115.355.218.704.449 1.059.658.006 0 .006 0 .006.006l56.24-43.621zM-92.712 133.135c.265.255.542.504.807.766-.265-.262-.542-.51-.807-.766M-266.426 264.976l.006-.01a89.12 89.12 0 0 1-3.208-1.268c1.059.443 2.127.876 3.202 1.278M-88.573 137.421c-.11-.128-.23-.243-.343-.368.112.125.218.259.324.377zM-95.778 130.281l-.019.019c.178.156.355.305.536.464-.18-.153-.34-.33-.517-.483" style="fill:#4dc4ce;fill-opacity:1;fill-rule:nonzero;stroke:none;stroke-width:3.11511" transform="translate(376.706 -50.573)"/><path d="m-193.516 207.709 33.914-22.728 71.012-47.552c-.109-.118-.215-.252-.324-.377a89.087 89.087 0 0 0-2.99-3.15c-.265-.261-.542-.51-.807-.76a70.62 70.62 0 0 0-2.551-2.376c-.178-.16-.359-.312-.536-.468l-64.32 49.446-33.398 25.681-26.958 17.794-56.252 37.098c.065.03.133.062.199.1a71.6 71.6 0 0 0 2.713 1.385c.318.16.636.309.956.452.78.374 1.567.732 2.365 1.072.286.124.576.258.863.374 1.059.439 2.13.869 3.211 1.267l47.948-37.664zM-134.948 111.797c.585.094 1.168.203 1.754.312-.586-.109-1.169-.218-1.754-.312M-131.448 112.449c.732.162 1.46.324 2.187.504-.726-.171-1.452-.346-2.187-.504M-137.438 111.414l-.016.01c.206.028.408.056.61.081-.199-.025-.395-.065-.594-.09M-124.864 114.14a73.486 73.486 0 0 0-3.127-.882c1.05.271 2.087.57 3.124.885zM-306.426 232.487c.467.744.947 1.48 1.433 2.205-.486-.726-.95-1.47-1.418-2.221zM-300.57 240.64l.006-.007a84.892 84.892 0 0 1-1.982-2.523c.642.85 1.3 1.701 1.975 2.53M-302.97 237.536" style="fill:#4dc4ce;fill-opacity:1;fill-rule:nonzero;stroke:none;stroke-width:3.11511" transform="translate(376.706 -50.573)"/><path d="m-193.516 158.737 20.326-13.205 48.322-31.388a75.959 75.959 0 0 0-3.122-.887c-.423-.106-.85-.194-1.274-.303a71.696 71.696 0 0 0-2.183-.504c-.58-.116-1.166-.23-1.748-.343-.583-.106-1.168-.215-1.754-.308a48.755 48.755 0 0 0-1.894-.293 41.164 41.164 0 0 0-.61-.081l-38.204 30.674-17.859 14.358-33.275 22.416-79.62 53.599c.468.75.932 1.492 1.418 2.22.06.078.115.156.168.234a77.447 77.447 0 0 0 1.857 2.61c.14.188.277.38.424.57a76.718 76.718 0 0 0 1.98 2.527l73.137-55.953zM-143.46 110.845c-.016-.004-.034-.004-.053-.004.019 0 .031.004.053.004M-308.089 229.703l.016-.013c-.159-.28-.327-.554-.48-.834.153.28.305.567.464.847M-162.357 111.995l-.013.016c.175-.034.352-.069.533-.097-.172.028-.35.047-.52.081M-312.55 220.595c.031.065.059.13.09.2-.031-.07-.053-.14-.084-.21zM-155.904 111.101c.309-.031.617-.065.926-.087-.309.021-.617.056-.926.087M-152.404 110.83c.302-.012.595-.037.9-.053-.305.016-.598.04-.9.053" style="fill:#4dc4ce;fill-opacity:1;fill-rule:nonzero;stroke:none;stroke-width:3.11511" transform="translate(376.706 -50.573)"/><path d="m-193.516 142.398 11.744-7.408 38.31-24.145c-.02 0-.032-.004-.05-.004-.37-.025-.742-.043-1.115-.05a73.39 73.39 0 0 0-3.427-.09c-1.156 0-2.305.031-3.452.078-.302.012-.595.037-.897.05-.863.053-1.72.103-2.576.184-.308.024-.617.056-.925.087a85.23 85.23 0 0 0-2.536.29c-.293.037-.58.077-.875.124-.844.118-1.685.252-2.523.399-.178.031-.355.062-.533.096l-22.301 20.124-8.844 8.012-27.634 18.672-91.394 61.77c.031.065.053.143.084.208.165.402.34.8.514 1.196.29.667.586 1.334.897 1.981.178.377.352.77.54 1.147.43.875.868 1.735 1.326 2.592.209.383.418.766.63 1.143.155.283.32.557.482.835l84.435-64.346zM-249.596 269.116l.02-.015c-.213-.025-.424-.05-.636-.084.205.034.41.068.616.1M-80.618 148.044a69.682 69.682 0 0 0-1.327-2.046c.452.672.888 1.358 1.32 2.05zM-255.588 268.076c-.707-.153-1.408-.32-2.106-.486.698.165 1.399.34 2.106.486M-262.185 266.381c1.025.315 2.062.602 3.106.876a88.032 88.032 0 0 1-3.103-.879z" style="fill:#4dc4ce;fill-opacity:1;fill-rule:nonzero;stroke:none;stroke-width:3.11511" transform="translate(376.706 -50.573)"/><path d="m-193.516 224.048 33.288-22.41 79.603-53.586a72.35 72.35 0 0 0-1.32-2.056c-.165-.243-.334-.486-.496-.723a93.44 93.44 0 0 0-1.545-2.171c-.19-.256-.377-.502-.564-.76a80.92 80.92 0 0 0-1.925-2.446l-73.136 55.944-33.905 25.934-20.332 13.202-48.334 31.403c1.028.308 2.062.604 3.103.878.46.119.925.222 1.386.334.698.165 1.398.333 2.106.486a75.05 75.05 0 0 0 1.704.33c.607.118 1.214.227 1.825.327.614.106 1.23.193 1.847.283.212.025.424.06.633.084l38.206-30.693zM-225.721 225.48a3.332 3.332 0 0 1-3.333-3.33v-19.8l-4.405 10.552a3.342 3.342 0 0 1-3.075 2.043h-5.358a3.333 3.333 0 0 1-3.08-2.059l-4.296-10.386v19.65a3.332 3.332 0 0 1-3.333 3.33h-10.713a3.332 3.332 0 0 1-3.333-3.33v-59.062a3.333 3.333 0 0 1 3.333-3.333h10.292c1.324 0 2.52.782 3.053 1.997l10.794 24.543 10.719-24.54c.53-1.215 1.726-2 3.053-2h10.395a3.333 3.333 0 0 1 3.333 3.333v59.062a3.332 3.332 0 0 1-3.333 3.33z" style="fill:#4dc4ce;fill-opacity:1;fill-rule:nonzero;stroke:none;stroke-width:3.11511" transform="translate(376.706 -50.573)"/><path d="M-187.219 225.93c-2.255 0-4.576-.252-6.89-.753-2.49-.539-4.776-1.486-6.792-2.807-2.093-1.38-3.837-3.215-5.167-5.448-1.39-2.32-2.1-5.212-2.1-8.58v-33.271c0-2.49.542-4.844 1.604-6.994 1.053-2.134 2.551-3.99 4.458-5.532 1.84-1.49 4.043-2.667 6.545-3.499 2.458-.813 5.193-1.23 8.133-1.23 2.8 0 5.452.42 7.878 1.234 2.474.838 4.667 2.04 6.508 3.56a17.163 17.163 0 0 1 4.489 5.685c1.093 2.237 1.65 4.688 1.65 7.283v3.396a3.33 3.33 0 0 1-3.332 3.33h-10.698a3.332 3.332 0 0 1-3.333-3.33v-2.888c0-.838-.262-1.489-.857-2.112-.342-.358-.965-.835-2.414-.835-1.794 0-2.439.393-2.504.492-.511.77-.767 1.854-.767 3.221v30.893c0 1.314.396 1.965.692 2.336.15.19.85.527 2.476.527.43 0 .916-.066 1.446-.2.43-.103.797-.268 1.137-.501.205-.134.386-.359.557-.667.081-.165.234-.576.234-1.411v-2.975a3.338 3.338 0 0 1 3.333-3.33h10.698a3.336 3.336 0 0 1 3.333 3.33v3.741c0 2.396-.57 4.707-1.686 6.875-1.071 2.087-2.566 3.928-4.445 5.492-1.832 1.511-3.972 2.73-6.37 3.614-2.424.9-5.053 1.355-7.816 1.355M-142.966 225.93c-3.024 0-5.896-.423-8.547-1.255-2.682-.847-5.047-2.037-7.025-3.538-2.034-1.542-3.679-3.418-4.881-5.567a14.785 14.785 0 0 1-1.904-7.314v-3.228a3.329 3.329 0 0 1 3.337-3.33h11.149a3.33 3.33 0 0 1 3.333 3.33v2.717c0 .486.1 1.159.897 2.003.243.255 1.093.86 3.641.86 1.91 0 2.82-.25 3.19-.4.306-.124.723-.33.932-.625.224-.312.37-.754.445-1.33.125-.975.19-2.09.19-3.309 0-1.423-.065-2.582-.187-3.43-.087-.62-.243-.862-.286-.928-.175-.224-.499-.41-.742-.526-.697-.33-1.688-.701-2.94-1.115l-7.956-2.536c-5.614-1.785-9.361-4.209-11.455-7.43-1.99-3.055-3-6.847-3-11.276 0-2.67.483-5.255 1.434-7.673a17.828 17.828 0 0 1 4.37-6.476c1.903-1.776 4.286-3.196 7.102-4.221 2.754-1.003 5.975-1.517 9.56-1.517 3.128 0 6.05.458 8.686 1.37 2.641.913 4.959 2.156 6.887 3.683 1.984 1.576 3.542 3.392 4.63 5.386 1.14 2.106 1.716 4.314 1.716 6.56v4.237a3.334 3.334 0 0 1-3.33 3.339h-11.156a3.334 3.334 0 0 1-3.333-3.34v-1.946c0-1.203-.33-2.156-1.03-2.997-.518-.623-1.764-.969-3.505-.969-1.293 0-2.013.203-2.383.377-.486.224-.842.477-1.05.748-.25.333-.427.713-.542 1.183a9.908 9.908 0 0 0-.24 2.172c0 1.034.047 1.9.137 2.567.053.383.165.538.206.595.062.08.267.314.81.607.439.237 1.302.626 2.84 1.109l8.526 2.626c2.782.832 5.031 1.804 6.838 2.978 1.935 1.246 3.467 2.76 4.564 4.492 1.074 1.707 1.8 3.663 2.165 5.81.32 1.919.483 4.1.483 6.451 0 2.866-.38 5.573-1.125 8.056-.807 2.676-2.156 5.009-4.01 6.943-1.853 1.922-4.28 3.446-7.223 4.517-2.832 1.037-6.27 1.56-10.218 1.56" style="fill:#4dc4ce;fill-opacity:1;fill-rule:nonzero;stroke:none;stroke-width:3.11511" transform="translate(376.706 -50.573)"/><path d="M-263.314 163.087h10.292l13.754 31.273h.212l13.65-31.273h10.398v59.063h-10.713v-35.914h-.208l-10.604 25.378h-5.361l-10.498-25.378h-.212v35.914h-10.71zM-170.236 208.594c0 1.87-.44 3.65-1.312 5.352-.872 1.694-2.08 3.174-3.616 4.448-1.536 1.274-3.34 2.3-5.399 3.06-2.062.765-4.28 1.146-6.657 1.146-2.028 0-4.09-.228-6.187-.68-2.096-.454-3.984-1.227-5.663-2.336-1.679-1.1-3.056-2.557-4.137-4.373-1.087-1.807-1.626-4.1-1.626-6.872v-33.27c0-1.975.418-3.819 1.256-5.517.838-1.697 2.028-3.164 3.57-4.417 1.535-1.243 3.367-2.218 5.5-2.922 2.128-.713 4.493-1.059 7.078-1.059 2.446 0 4.72.346 6.813 1.06 2.097.703 3.916 1.694 5.452 2.965a13.816 13.816 0 0 1 3.616 4.582c.872 1.788 1.312 3.726 1.312 5.816v3.396h-10.698v-2.888c0-1.692-.592-3.165-1.775-4.408-1.193-1.25-2.8-1.87-4.826-1.87-2.66 0-4.423.668-5.292 1.991-.879 1.334-1.315 3.016-1.315 5.06v30.892c0 1.747.474 3.22 1.418 4.414.944 1.18 2.635 1.782 5.084 1.782.7 0 1.451-.097 2.255-.302a6.699 6.699 0 0 0 2.2-.975c.666-.455 1.205-1.075 1.622-1.87.424-.794.63-1.778.63-2.968v-2.975h10.697zM-123.72 179.052h-11.155v-1.947c0-1.978-.601-3.694-1.804-5.127-1.202-1.449-3.224-2.171-6.065-2.171-1.532 0-2.788.224-3.772.682-.988.452-1.754 1.034-2.3 1.747-.544.695-.927 1.514-1.145 2.452-.222.928-.33 1.906-.33 2.931 0 1.184.055 2.19.164 3.006.11.829.384 1.527.823 2.125.436.595 1.071 1.118 1.91 1.573.837.449 1.984.9 3.445 1.355l8.526 2.63c2.476.74 4.485 1.597 6.012 2.591 1.533.987 2.716 2.146 3.557 3.483.835 1.327 1.402 2.853 1.695 4.579.29 1.723.44 3.688.44 5.894 0 2.557-.334 4.915-.991 7.102-.651 2.171-1.73 4.034-3.225 5.589-1.495 1.56-3.476 2.788-5.956 3.691-2.476.906-5.504 1.361-9.074 1.361-2.698 0-5.211-.367-7.545-1.106-2.336-.732-4.336-1.74-6.015-3.009-1.673-1.274-3.003-2.79-3.99-4.538a11.514 11.514 0 0 1-1.474-5.689v-3.227h11.152v2.716c0 1.586.601 3.016 1.804 4.293 1.202 1.265 3.224 1.907 6.068 1.907 1.894 0 3.37-.219 4.427-.642 1.056-.427 1.86-1.016 2.404-1.782.549-.76.895-1.71 1.038-2.841.15-1.134.221-2.38.221-3.732 0-1.585-.072-2.888-.221-3.91-.143-1.018-.455-1.834-.928-2.45-.477-.63-1.131-1.141-1.966-1.537-.841-.398-1.95-.819-3.333-1.274l-7.981-2.545c-4.816-1.526-8.034-3.554-9.676-6.068-1.641-2.517-2.46-5.673-2.46-9.464 0-2.264.398-4.417 1.202-6.451a14.227 14.227 0 0 1 3.554-5.258c1.564-1.474 3.551-2.648 5.96-3.524 2.404-.872 5.208-1.317 8.416-1.317 2.767 0 5.302.398 7.595 1.19 2.296.791 4.265 1.84 5.906 3.15 1.636 1.295 2.9 2.743 3.773 4.357.875 1.614 1.314 3.268 1.314 4.969z" style="fill:#fff;fill-opacity:1;fill-rule:nonzero;stroke:none;stroke-width:3.11511" transform="translate(376.706 -50.573)"/></svg>