<svg xmlns="http://www.w3.org/2000/svg" xml:space="preserve" width="852.0979" height="294.8486" viewBox="0 0 852.09792 294.84862"><path d="M307.613 140.708a359.271 359.271 0 0 0-9.211 5.529 581.9 581.9 0 0 1 21.136-5.53zm69.054 0-34.587 50.544-11.075 16.697v-47.805a358.1 358.1 0 0 0-33.846 20.197v112.3h33.846v-49.554l13.111-15.993 37.294 65.547h40.236l-52.934-87.24 50.232-64.693zm53.161 0h34.582V292.64h-34.582zm99.03 87.186h33.477l-9.44-32.177c-1.195-4.201-2.58-9.381-4.155-15.532a2356.167 2356.167 0 0 1-3.484-13.727c-1.195 3.904-2.47 8.778-3.816 14.63-1.8 7.5-3 12.376-3.599 14.629zm38.523 25.752h-43.473l-10.813 38.995h-35.59l46.404-151.933h45.048l47.077 151.933h-36.943zm57.252 31.757 7.144-28.078c5.243 2.633 11.117 4.822 17.635 6.57 6.52 1.754 13.296 2.627 20.34 2.627 7.782 0 13.738-1.46 17.865-4.387 4.116-2.925 6.173-6.937 6.173-12.036 0-4.65-1.908-8.553-5.725-11.702-3.816-3.15-10.37-6.375-19.659-9.675-13.188-4.644-23.225-10.421-30.11-17.324-7.64-7.645-11.456-16.796-11.456-27.448 0-13.197 5.173-24.073 15.53-32.626 10.354-8.547 24.312-12.824 41.867-12.824 8.404 0 15.612.644 21.613 1.92a86.34 86.34 0 0 1 17.118 5.518l-7.667 27.775c-5.267-2.564-10.6-4.413-16.004-5.552-5.413-1.133-10.68-1.703-15.784-1.703-7.22 0-12.704 1.352-16.463 4.047-3.756 2.703-5.63 6.227-5.63 10.572 0 4.493 2.178 8.317 6.538 11.467 3.61 2.552 10.83 5.846 21.67 9.893 13.532 4.948 23.5 11.058 29.892 18.324 6.39 7.272 9.586 16.226 9.586 26.866 0 13.498-4.965 24.516-14.886 33.058-10.991 9.445-26.488 14.164-46.491 14.164a103.75 103.75 0 0 1-24.03-2.811c-7.898-1.875-14.255-4.081-19.067-6.633zm151.316 7.238V169.4h-40.836v-28.693h116.985V169.4h-41.57v123.24h-34.58z" style="fill:#2350a9;fill-opacity:1;fill-rule:nonzero;stroke:none;stroke-width:5.88605"/><path d="M475.799 98.062c-93.165 10.847-195.436 23.895-260.366 62.178l41.732 30.476c38.133-38.018 107.695-68.57 218.634-92.654" style="fill:#2350a9;fill-opacity:1;fill-rule:evenodd;stroke:none;stroke-width:5.88605"/><path d="M739.298 66.752C490.316 52.63 200.922 81.933 0 0l198.353 144.864c139.178-62.466 366.53-69.186 480.124-76.152" style="fill:#4dbd38;fill-opacity:1;fill-rule:evenodd;stroke:none;stroke-width:5.88605"/><path d="M648.946 30.103c14.694.39 12.123 1.649 26.798 2.034 5.685 5.116 10.14 8.68 15.82 13.796 67.89-.53 30.28-.805 98.171-1.333 36.035-.277 42.84-2.053 61.947 23.405L666.294 69.12c-4.765-12.92-6.713-26.096-17.346-39.017" style="fill:#4dbd38;fill-opacity:1;fill-rule:evenodd;stroke:none;stroke-width:5.88605"/></svg>