<svg xmlns="http://www.w3.org/2000/svg" width="855.19452mm" height="100mm" viewBox="0 0 855.19452 100"><defs><clipPath id="a" clipPathUnits="userSpaceOnUse"><path d="M0 157.493h1031.811V0H0Z"/></clipPath></defs><g clip-path="url(#a)" transform="matrix(.86455 0 0 -.86455 -18.676 117.155)"><path d="M0 0c-9.716.052-17.594 7.863-17.594 17.581 0 9.72 8.468 17.411 18.133 18.441 14.023 1.499 19.293-7.61 19.293-17.779C19.832 7.62 11.061-.053 0 0m2.614 72.145c-25.428-3.706-47.179-17.79-52.97-41.698-.123-1.186-.644-4.276 1.791-5.45 1.395-.657 3.896.034 7.041 2.63 10.751 8.91 9.99 2.89 9.99-10.645 0-13.528-2.498-14.77-9.551-9.869-3.062 2.138-6.021 4.618-7.979 4.353-1.614-.212-2.104-2.713-1.67-5.278 5.255-24.644 27.222-40.845 53.348-43.153 34.389-3.04 54.553 24.424 54.553 54.546 0 30.14-17.042 60.037-54.553 54.564" style="fill:#005db9;fill-opacity:1;fill-rule:nonzero;stroke:none" transform="translate(172.18 61.015)"/><path d="M0 0c0 8.221-36.583 9.371-54.708 5.001C-72.762.629-80.102-7.898-81.875-21.423c-.801-6.077-1.75-13.698-1.75-13.698-1.739-4.633-14.687-3.775-14.687-11.794 0-6.12 12.948-5.968 14.687-11.569 0 0 .767-6.329 1.75-16.305 1.303-13.231 7.134-21.385 23.416-25.158 18.094-4.213 51.971-3.602 51.971 2.121 0 10.458-50.333 23.781-52.199 36.895-.763 5.456 3.249 8.476 11.071 8.476 9.436 0 27.322-18.399 33.456 6.164 6.911 27.58-25.238 3.229-33.456 3.229-6.354 0-10.74 2.864-10.74 7.746C-58.356-22.184 0-11.874 0 0" style="fill:#005db9;fill-opacity:1;fill-rule:nonzero;stroke:none" transform="translate(334.504 126.925)"/><path d="M0 0v-3.787c0-12.568-5.504-20.218-12.082-20.218-6.583 0-8.88 6-8.613 12.836.26 6.829-.267 12.021-5.53 12.021-6.304 0-10.615-6.479-17.626-14.753-5.782-6.825-12.366-12.018-16.843-12.018-4.473 0-6.587 3.815-6.587 12.293 0 8.469-.78 11.751-5.519 11.751-4.738 0-9.211-4.555-14.741-11.668-5.524-7.095-8.947-12.293-14.734-12.293-4.588 0-9.738 2.528-11.682 7.936-1.594-11.727-1.403-22.068-1.018-27.915.568-8.72 3.026-14.353 8.818-14.353 5.782 0 9.21 5.196 14.73 12.295 5.522 7.115 10.002 11.667 14.739 11.667 4.731 0 5.523-3.284 5.523-11.753 0-8.47 2.104-12.3 6.586-12.3 4.475 0 11.047 5.201 16.839 12.034 7.001 8.267 11.317 14.751 17.626 14.751 5.262 0 5.791-5.194 5.523-12.028-.261-6.834 0-12.837 6.581-12.837 6.587 0 13.928 10.277 15.951 22.67C-.565-26.652.097-12.474 0 0" style="fill:#002f87;fill-opacity:1;fill-rule:nonzero;stroke:none" transform="translate(450.546 88.487)"/><path d="M0 0c5.787 0 9.21 5.198 14.735 12.293 5.53 7.113 10.002 11.668 14.74 11.668 4.74 0 5.52-3.282 5.52-11.752 0-8.477 2.113-12.292 6.586-12.292 4.478 0 11.062 5.193 16.844 12.018 7.011 8.273 11.322 14.752 17.626 14.752 5.262 0 5.789-5.191 5.53-12.02-.268-6.836 2.03-12.836 8.612-12.836 6.578 0 12.082 7.649 12.082 20.218v3.787c-.05 6.946-.332 13.372-.844 18.069-.976 8.971-1.656 22.925-13.87 24.738C68.209 71.511 57.162 42.875 41.79 42.19c-10.981-.482-7.813 19.512-22.192 17.91-4.946-.543-12.197-4.104-18.793-14.725-7.274-11.703-10.834-25.31-12.487-37.439C-9.737 2.528-4.588 0 0 0" style="fill:#005db9;fill-opacity:1;fill-rule:nonzero;stroke:none" transform="translate(348.27 62.651)"/><path d="M0 0c-.284 3.823-2.751 7.471-7.15 10.51l-8.766 5.056C-25.252 20.65-39.379 28.322-39.379 34.7c0 8.727 12.646 19.55 25.18 26.411 7.562 4.13 11.979 9.484 12.468 15.066.024.313.039.647.039.965 0 4.066-2.195 7.944-6.271 11.013-4.539 3.437-11.311 4.69-17.669 3.254-6.558-1.476-11.695-5.517-14.1-11.056-7.451-17.228-13.335-23.734-24.676-33.939.15 6.85 3.061 13.794 5.685 19.941 1.543 3.621 2.879 6.743 3.427 9.365.483 2.323.731 4.344.731 6.116 0 3.287-.848 5.699-2.564 7.537-2.656 2.827-7.231 4.088-14.852 4.088-11.638 0-22.243-8.484-22.243-17.806l.938-22.769.771-18.219-.842-40.544c0-10.126 11.699-11.308 20.521-11.308 9.543 0 15.906 4.029 17.457 11.052.159.709.229 1.454.229 2.207 0 3.395-1.454 7.212-3.106 11.494-1.539 4.021-3.281 8.567-3.952 13.337 0 0 .019.534.019.602.028-.068.695-.058 2.479-.85 9.256-4.1 17.45-11.704 23.069-21.407 4.628-7.994 10.995-12.927 17.907-13.89 4.919-.686 9.825.758 13.44 3.976C-1.815-7.575.02-4.142.02-.685.02-.461.02-.233 0 0" style="fill:#005db9;fill-opacity:1;fill-rule:nonzero;stroke:none" transform="translate(115.826 42.049)"/><path d="M0 0c-2.935 0-5.336-2.39-5.336-5.333 0-2.944 2.401-5.349 5.336-5.349a5.354 5.354 0 0 1 5.346 5.349C5.346-2.39 2.952 0 0 0" style="fill:#005db9;fill-opacity:1;fill-rule:nonzero;stroke:none" transform="translate(91.302 86.845)"/><path d="M0 0c2.562 5.155 3.848 11.251 3.848 18.151v3.147a4.858 4.858 0 0 1-4.785 4.62H-33.911c-2.115-.128-3.794-1.835-3.833-3.966v-2.861a4.067 4.067 0 0 1 3.833-3.989h23.209v-.225c0-3.751-.724-7.372-2.138-10.74a31.565 31.565 0 0 0-5.9-9.116c-2.795-3.071-6.225-5.698-10.168-7.759-3.98-2.057-8.358-3.478-13.035-4.197-.894-.239-1.128-.729-1.2-.997l.08-1.051 5.646-7.319.648.083c3.811.534 8.235 1.854 13.193 3.935 4.998 2.075 9.69 5.185 13.99 9.186C-5.775-9.53-2.56-5.119 0 0m202.949-51.237h-6.057v.003h-33.379c-.244.083-.357.524-.357.524v16.846h-.012c0 2.697-2.173 4.91-4.878 4.914h-3.5c-2.693-.004-4.895-2.217-4.895-4.914v-19.219c0-3.031.693-5.226 2.085-6.697 1.427-1.503 3.56-2.261 6.39-2.261h44.603c2.119.132 3.785 1.834 3.822 3.968v2.859c-.037 2.155-1.703 3.85-3.822 3.977M118.952-8.52h-2.626v.021H84.254V4.315c0 2.719-2.207 4.932-4.928 4.949h-3.537a4.953 4.953 0 0 1-4.923-4.949V-.283h-.005v-8.216h-22.27v-.021h-4.788a3.895 3.895 0 0 1-3.739-3.757v-3.27a3.899 3.899 0 0 1 3.739-3.768h75.149a3.924 3.924 0 0 1 3.752 3.768v3.27a3.92 3.92 0 0 1-3.752 3.757m94.316 14.157h-8.087v19.38c-.033 2.668-2.17 4.788-4.805 4.863h-3.45a4.92 4.92 0 0 1-4.808-4.863V-8.275c-1.221-.776-2.631-1.435-4.386-1.96-1.949-.567-4.612-.85-7.934-.85h-31.119l-.571.234-.219.797v22.091h26.747c2.121.135 3.787 1.842 3.824 3.975v2.876c-.037 2.141-1.703 3.843-3.824 3.971H139.71a4.921 4.921 0 0 1-4.889-4.926V-8.665c0-4.433 1.006-7.768 2.984-9.906 2.031-2.202 5.081-3.307 9.035-3.307h29.285c4.505 0 8.074.211 10.595.661 2.026.34 3.724 1.193 5.398 2.06v-7.369h13.063v21.372h8.087a3.897 3.897 0 0 1 3.755 3.75v3.286a3.918 3.918 0 0 1-3.755 3.755M-99.097-5.51c-1.141-1.556-2.633-2.302-4.574-2.302-1.88 0-3.395.782-4.597 2.409-1.277 1.715-1.89 3.718-1.89 5.939 0 2.229.635 4.252 1.895 6.003 1.197 1.638 2.712 2.435 4.592 2.435 1.93 0 3.427-.808 4.568-2.449 1.197-1.815 1.825-3.878 1.825-6.183 0-2.23-.618-4.202-1.819-5.852m47.968 11.643h-8.218v19.121c-.155 2.557-2.208 4.578-4.806 4.626h-3.449c-2.582-.048-4.636-2.069-4.793-4.626v-43.221c-1.14-.683-2.459-1.257-4.125-1.648-1.883-.42-4.392-.643-7.446-.643h-12.871v3.609c3.457 1.232 6.435 3.251 8.758 6.183 2.49 3.173 3.759 6.863 3.759 11.002 0 1.873-.274 3.675-.813 5.354 0 0-.888 1.893-1.57 3.29h5.204c2.023.125 3.622 1.752 3.662 3.796v2.715a3.846 3.846 0 0 1-3.662 3.797h-1.99v.005h-13.348v6.561c0 2.548-2.149 4.761-4.789 4.815h-3.893c-2.646-.054-4.792-2.267-4.792-4.815v-6.561h-16.233v-.005h-.87a3.828 3.828 0 0 1-3.652-3.797v-2.715c.033-2.044 1.623-3.671 3.652-3.796h6.766c-.644-1.37-1.523-3.268-1.523-3.268-.577-1.699-.856-3.503-.856-5.376 0-4.084 1.214-7.727 3.649-10.822 2.239-2.909 5.138-4.954 8.533-6.254v-3.718h-19.106c-2.106-.153-3.755-1.815-3.775-3.946v-2.836c.02-2.132 1.669-3.81 3.775-3.943h42.328l10.093.467c2.004.235 3.589.935 5.135 1.643V-36.297c.157-2.559 2.211-4.585 4.793-4.63h3.449c2.598.045 4.651 2.071 4.806 4.63V-4.65h8.218a3.905 3.905 0 0 1 3.76 3.744V2.38a3.912 3.912 0 0 1-3.76 3.753m-92.826 12.348h-8.307V25c-.067 2.664-1.93 4.853-4.618 4.853l-3.516.027a4.918 4.918 0 0 1-4.927-4.82v-44.796a4.93 4.93 0 0 1 4.927-4.819l3.516.043c2.688 0 4.551 2.185 4.618 4.851v10.932h8.307a3.722 3.722 0 0 1 3.576 3.597v3.114a3.71 3.71 0 0 1-3.576 3.582h-3.836v.011h-4.471v6.603h8.307c1.954.098 3.507 1.631 3.576 3.591v3.129a3.708 3.708 0 0 1-3.576 3.583m81.838-69.718h-6.153v.003h-33.372c-.247.083-.364.524-.364.524v11.26h-.007a4.911 4.911 0 0 1-4.889 4.914h-3.491a4.91 4.91 0 0 1-4.876-4.914v-13.633c0-3.031.663-5.226 2.068-6.697 1.425-1.503 3.575-2.261 6.383-2.261h44.701c2.125.132 3.802 1.834 3.838 3.968v2.859c-.036 2.155-1.713 3.85-3.838 3.977M-207.251-4.426c-2.05 2.442-3.093 5.42-3.093 8.826 0 3.452 1.043 6.432 3.093 8.86 1.998 2.372 4.264 3.527 6.869 3.527 2.703 0 4.993-1.155 7.004-3.527 2.057-2.465 3.062-5.361 3.062-8.86 0-3.406-1.028-6.384-3.071-8.826-2.007-2.402-4.292-3.592-6.995-3.592-2.605 0-4.871 1.19-6.869 3.592m23.374-7.496c4.463 4.482 6.723 9.954 6.723 16.322 0 6.345-2.26 11.826-6.723 16.316-4.497 4.492-10.047 6.789-16.505 6.789-6.369 0-11.889-2.297-16.363-6.789-4.487-4.49-6.764-9.971-6.764-16.316 0-6.347 2.277-11.84 6.764-16.322 4.474-4.511 9.991-6.786 16.363-6.786 6.458 0 12.008 2.275 16.505 6.786m11.997-38.272c-1.903-2.168-4.133-3.218-6.868-3.218-2.688 0-4.933 1.05-6.821 3.218-1.917 2.191-2.895 5.013-2.895 8.392 0 3.395.978 6.229 2.895 8.413 1.888 2.154 4.133 3.208 6.821 3.208 2.735 0 4.965-1.054 6.868-3.208 1.933-2.184 2.891-5.018 2.891-8.413 0-3.379-.958-6.201-2.891-8.392m-6.868 30.699c-6.279 0-11.728-2.202-16.187-6.576-4.44-4.334-6.695-9.638-6.695-15.731 0-6.091 2.255-11.385 6.695-15.718 4.454-4.378 9.908-6.598 16.187-6.598 6.316 0 11.781 2.22 16.231 6.598 4.433 4.346 6.688 9.627 6.688 15.718 0 6.093-2.255 11.397-6.688 15.731-4.45 4.374-9.915 6.576-16.231 6.576M27.409 29.88h-3.508a4.901 4.901 0 0 1-4.769-4.648v-9.715h-4.237V15.1l-.082.417H8.354a3.843 3.843 0 0 1-3.659-3.77V9.02a3.872 3.872 0 0 1 3.659-3.798H19.132v-6.599h-4.237v-.444l-.082.437H8.354a3.877 3.877 0 0 1-3.659-3.784v-2.729a3.88 3.88 0 0 1 3.659-3.796H19.132V-20.284a4.882 4.882 0 0 1 4.769-4.64h3.508c2.588.058 4.626 2.092 4.779 4.64v45.516a4.92 4.92 0 0 1-4.779 4.648m-309.52-46.503c-1.381-1.972-2.973-2.958-4.836-2.958-1.858 0-3.436 1.01-4.821 3.041h-.004c-1.464 2.186-2.208 4.841-2.208 7.875 0 3.037.744 5.659 2.208 7.749 1.383 1.997 3.001 2.987 4.944 2.987 1.78 0 3.336-1 4.717-3.038 1.455-2.135 2.208-4.793 2.208-7.891 0-3.036-.753-5.645-2.208-7.765m43.558 46.503h-2.592c-2.502-.048-4.471-1.963-4.738-4.411.018-1.64.018-3.467.018-5.538V-.873h-5.038l.017 25.836c0 2.701-2.233 4.869-4.92 4.917h-2.449a4.914 4.914 0 0 1-4.835-4.917V13.065h-17.211v9.156a4.881 4.881 0 0 1-4.686 4.686h-4.119a4.87 4.87 0 0 1-4.684-4.686v-9.156h-13.825a3.872 3.872 0 0 1-3.698-3.724V6.078a3.888 3.888 0 0 1 3.698-3.731h3.467c-.791-1.353-1.594-2.732-2.098-4.331-.674-2.115-1.005-4.356-1.005-6.681 0-5.873 1.959-10.973 5.844-15.198 3.914-4.266 8.741-6.418 14.347-6.418 5.622 0 10.439 2.152 14.371 6.418 3.89 4.225 5.842 9.325 5.842 15.198 0 2.305-.317 4.566-.948 6.671-.479 1.605-1.277 2.981-2.068 4.341h6.773V-64.933c0-2.699 2.161-4.867 4.835-4.923h2.449c2.687.056 4.92 2.224 4.92 4.923l-.017 11.798v41.442h5.038v-48.2c0-2.07 0-3.899-.018-5.554.267-2.43 2.236-4.353 4.738-4.409h2.592c2.561.056 4.606 2.07 4.779 4.61V25.26c-.173 2.562-2.218 4.572-4.779 4.62m326.51-80.879c-1.858-2.084-4.022-3.097-6.58-3.097-2.426 0-4.522 1.013-6.415 3.107-1.94 2.17-2.891 4.695-2.891 7.803 0 3.055.971 5.661 2.891 7.803 1.893 2.086 3.989 3.104 6.415 3.104 2.558 0 4.722-1.018 6.587-3.084 1.873-2.15 2.829-4.768 2.829-7.823 0-3.108-.939-5.658-2.836-7.813m-6.58 29.724c-6.169 0-11.476-2.179-15.833-6.496-4.327-4.26-6.529-9.462-6.529-15.415 0-5.955 2.202-11.141 6.529-15.395 4.357-4.255 9.664-6.422 15.833-6.422 6.224 0 11.595 2.167 15.954 6.422 4.328 4.254 6.522 9.44 6.522 15.395 0 5.953-2.194 11.155-6.522 15.415-4.359 4.317-9.73 6.496-15.954 6.496M11.241-50.189c-1.934-2.173-4.209-3.223-6.906-3.223-2.647 0-4.845 1.05-6.735 3.218-1.92 2.191-2.88 5.013-2.88 8.392 0 3.395.96 6.229 2.88 8.413 1.89 2.154 4.088 3.208 6.735 3.208 2.697 0 4.972-1.054 6.906-3.208 1.934-2.184 2.928-5.018 2.928-8.413 0-3.379-.994-6.201-2.928-8.387M4.335-19.495c-6.306 0-11.762-2.202-16.227-6.576-4.429-4.334-6.675-9.638-6.675-15.731 0-6.091 2.246-11.385 6.675-15.718 4.465-4.378 9.921-6.598 16.227-6.598 6.369 0 11.859 2.22 16.316 6.598 4.43 4.346 6.683 9.627 6.683 15.718 0 6.093-2.253 11.397-6.683 15.731-4.474 4.374-9.947 6.576-16.316 6.576" style="fill:#004a98;fill-opacity:1;fill-rule:nonzero;stroke:none" transform="translate(793.762 89.698)"/><path d="M0 0v-19.378a4.912 4.912 0 0 1 4.808-4.856h3.45a4.92 4.92 0 0 1 4.805 4.856V13.92" style="fill:#004a98;fill-opacity:1;fill-rule:nonzero;stroke:none" transform="translate(985.88 76.616)"/><path d="M0 0c1.179 1.993 1.972 4.083 2.343 6.271 0 0 .669 4.182.669 7.019v12.724c-.151 2.564-2.211 4.573-4.793 4.619H-50.96v.016h-6.775c-2.117-.146-3.799-1.843-3.823-3.982v-2.863c.024-2.143 1.706-3.841 3.823-3.976h46.909s.721-.078.738-.078c-.017-.011-.017-.04-.017-.108 0-.245.06-.752.06-.752v-4.515l-.316-7.142c-.217-2.25-1.09-4.684-2.582-7.233-.517-.992.036-1.418.892-1.418h10.14C-1.291-1.418-.474-.766 0 0" style="fill:#004a98;fill-opacity:1;fill-rule:nonzero;stroke:none" transform="translate(904.57 85.477)"/></g></svg>