<svg xmlns="http://www.w3.org/2000/svg" xml:space="preserve" width="546.99548" height="200" viewBox="0 0 546.99546 200"><defs><linearGradient id="b" x1="0" x2="1" y1="0" y2="0" gradientTransform="matrix(52.44189 0 0 -52.44189 363.328 305.851)" gradientUnits="userSpaceOnUse" spreadMethod="pad"><stop offset="0" style="stop-opacity:1;stop-color:#2ca2e2"/><stop offset="0.83299319" style="stop-opacity:1;stop-color:#2744a0"/><stop offset="1" style="stop-opacity:1;stop-color:#2744a0"/></linearGradient><linearGradient id="d" x1="0" x2="1" y1="0" y2="0" gradientTransform="scale(128.328 -128.328) rotate(38.089 4.494 .605)" gradientUnits="userSpaceOnUse" spreadMethod="pad"><stop offset="0" style="stop-opacity:1;stop-color:#1b64b8"/><stop offset="0.83299319" style="stop-opacity:1;stop-color:#25378c"/><stop offset="1" style="stop-opacity:1;stop-color:#25378c"/></linearGradient><linearGradient id="e" x1="0" x2="1" y1="0" y2="0" gradientTransform="scale(128.328 -128.328) rotate(38.089 3.739 .345)" gradientUnits="userSpaceOnUse" spreadMethod="pad"><stop offset="0" style="stop-opacity:1;stop-color:#1b64b8"/><stop offset="0.83299319" style="stop-opacity:1;stop-color:#25378c"/><stop offset="1" style="stop-opacity:1;stop-color:#25378c"/></linearGradient><linearGradient id="f" x1="0" x2="1" y1="0" y2="0" gradientTransform="scale(128.328 -128.328) rotate(38.089 4.192 .501)" gradientUnits="userSpaceOnUse" spreadMethod="pad"><stop offset="0" style="stop-opacity:1;stop-color:#1b64b8"/><stop offset="0.83299319" style="stop-opacity:1;stop-color:#25378c"/><stop offset="1" style="stop-opacity:1;stop-color:#25378c"/></linearGradient><linearGradient id="g" x1="0" x2="1" y1="0" y2="0" gradientTransform="scale(128.328 -128.328) rotate(38.089 4.494 .605)" gradientUnits="userSpaceOnUse" spreadMethod="pad"><stop offset="0" style="stop-opacity:1;stop-color:#1b64b8"/><stop offset="0.83299319" style="stop-opacity:1;stop-color:#25378c"/><stop offset="1" style="stop-opacity:1;stop-color:#25378c"/></linearGradient><linearGradient id="h" x1="0" x2="1" y1="0" y2="0" gradientTransform="scale(128.328 -128.328) rotate(38.089 4.037 .448)" gradientUnits="userSpaceOnUse" spreadMethod="pad"><stop offset="0" style="stop-opacity:1;stop-color:#1b64b8"/><stop offset="0.83299319" style="stop-opacity:1;stop-color:#25378c"/><stop offset="1" style="stop-opacity:1;stop-color:#25378c"/></linearGradient><linearGradient id="i" x1="0" x2="1" y1="0" y2="0" gradientTransform="scale(128.328 -128.328) rotate(38.089 4.04 .448)" gradientUnits="userSpaceOnUse" spreadMethod="pad"><stop offset="0" style="stop-opacity:1;stop-color:#1b64b8"/><stop offset="0.83299319" style="stop-opacity:1;stop-color:#25378c"/><stop offset="1" style="stop-opacity:1;stop-color:#25378c"/></linearGradient><clipPath id="a" clipPathUnits="userSpaceOnUse"><path d="M0 540h779.811V0H0Z"/></clipPath><clipPath id="c" clipPathUnits="userSpaceOnUse"><path d="M0 540h779.811V0H0Z"/></clipPath></defs><path d="M262.865 224.73c-9.096-5.547-15.568-28.505-22.437-30.844a77.85 77.85 0 0 1 3.846-.097h.009c3.482 0 6.903.255 10.262.705 6.662 2.4 14.517 3.412 21.02 7.377 4.455 1.43 5.512 4.108 12.56 7.016 3.598 1.803 5.77 5.507 8.532 6.426.42.14.818.25 1.227.375a78.843 78.843 0 0 1 1.899 1.937c-4.323-.247-11.23 15.628-15.498 14.528-7.32-1.896-14.067-2.92-21.42-7.423" style="fill:#00adef;fill-opacity:1;fill-rule:nonzero;stroke:none" transform="matrix(1.30531 0 0 -1.30531 -218.86 452.956)"/><path d="M284.197 256.08c-7.871-1.745-.151-4.276-8.217-9.058-10.93-6.457-23.653-9.29-31.386-11.34-7.74-2.037-15.69-8.17-22.283-6.512l-7.956-12.471c-12.625-10.783-5.68 15.089-8.756-12.42a76.324 76.324 0 0 1 7.302-3.765c4.01-.23 29.659-1.64 33.725-1.212 13.882 1.483 19.393 4.482 32.548 12.93 6.544 4.11-1.15 4.064 3.891 6.504 5.036 2.45 3.034-1.313 7.026-.308 4.733 1.181 16.537 14.64 20.342 14.247.156-.015.32-.045.479-.064.167.295.343.584.506.881-2.28 9.13-17.88 7.759 7.015 17.604.047.181.088.363.133.544-14.038 25.138-27.225 6.01-34.37 4.44" style="fill:#00adef;fill-opacity:1;fill-rule:nonzero;stroke:none" transform="matrix(1.30531 0 0 -1.30531 -218.86 452.956)"/><g clip-path="url(#a)" transform="matrix(1.30531 0 0 -1.30531 -218.86 452.956)"><path d="M0 0a67.68 67.68 0 0 0-.206-4.557l-.077-.889h13.278l-.078.89c-.109 1.247-.165 2.775-.165 4.542v48.531c0 1.796.056 3.368.165 4.671l.075.887H-.277l.07-.883c.109-1.372.178-2.95.207-4.688.028-1.757.042-3.305.042-4.644V4.768C.042 3.373.028 1.784 0 0" style="fill:#1c25a5;fill-opacity:1;fill-rule:nonzero;stroke:none" transform="translate(403.883 245.106)"/><path d="M0 0a85.09 85.09 0 0 0-.249-4.61l-.077-.889h13.212l-.096.904c-.109 1.033-.179 2.307-.205 3.789a202.375 202.375 0 0 0-.042 3.843v42.364c0 1.003.013 2.269.042 3.803a48.25 48.25 0 0 0 .206 3.917l.09.9H-4.207l-.193-.546c-.683-1.934-2.236-6.511-4.617-13.601a5796.318 5796.318 0 0 1-8.8-26.461l-13.83 40.608h-17.344l.087-.898c.22-2.264.346-4.091.374-5.431.027-1.365.042-2.66.042-3.885V4.715c0-1.318-.027-2.86-.084-4.715a86.03 86.03 0 0 0-.248-4.61l-.077-.889h13.211l-.096.904c-.109 1.024-.178 2.298-.205 3.789a202.375 202.375 0 0 0-.042 3.843v27.37l12.27-35.906h11.74L.084 29.904V4.715C.084 3.408.056 1.822 0 0" style="fill:#1c25a5;fill-opacity:1;fill-rule:nonzero;stroke:none" transform="translate(476.615 245.16)"/><path d="M0 0a19.519 19.519 0 0 1-4.095 5.142 30.649 30.649 0 0 1-5.517 3.621 174.95 174.95 0 0 1-5.659 2.787 90.416 90.416 0 0 0-3.409 1.622 19.12 19.12 0 0 0-3.1 1.92c-.929.619-1.695 1.319-2.279 2.082-.535.698-.796 1.44-.796 2.27 0 .993.258 1.801.787 2.469a6.425 6.425 0 0 0 2.183 1.739c.877.413 1.877.715 2.973.898 1.13.188 2.214.283 3.221.283 1.873 0 3.761-.258 5.613-.768 1.903-.524 4.183-1.266 6.776-2.204l.92-.332L-.42 33.001l-.667.222a46.5 46.5 0 0 1-7.899 1.879c-2.688.396-5.057.596-7.041.596-2.91 0-5.693-.362-8.272-1.078-2.601-.723-4.89-1.796-6.806-3.189a15.838 15.838 0 0 1-4.643-5.306c-1.15-2.125-1.734-4.627-1.734-7.436 0-2.255.5-4.307 1.485-6.099a17.397 17.397 0 0 1 3.728-4.654 25.792 25.792 0 0 1 4.981-3.594 82.22 82.22 0 0 1 5.187-2.658c.17-.087.392-.162.674-.232.091-.023.13-.051.13-.042l.09-.089.116-.058a408.54 408.54 0 0 1 3.74-1.849 22.592 22.592 0 0 0 3.254-1.925c.937-.729 1.713-1.53 2.306-2.38.55-.79.818-1.666.818-2.677 0-1.327-.328-2.449-.975-3.335a7.5 7.5 0 0 0-2.613-2.232 13.56 13.56 0 0 0-3.601-1.266 18.837 18.837 0 0 0-3.737-.402c-.945 0-2.004.121-3.145.359a37.258 37.258 0 0 0-3.611.956c-1.258.328-2.483.69-3.639 1.076a83.604 83.604 0 0 0-3.074 1.08l-.961.36-1.574-11.508.651-.212a94.316 94.316 0 0 1 7.362-2.073c2.51-.6 4.861-.903 6.984-.903 3.176 0 6.271.331 9.197.984 2.966.661 5.613 1.759 7.855 3.255a16.441 16.441 0 0 1 5.472 5.78c1.351 2.381 2.036 5.269 2.036 8.584C1.654-4.367 1.098-1.99 0 0" style="fill:#1c25a5;fill-opacity:1;fill-rule:nonzero;stroke:none" transform="translate(535.195 264.406)"/><path d="M0 0a74.629 74.629 0 0 0-4.149-.249 114.15 114.15 0 0 0-3.997-.083h-29.529c-1.175 0-2.534.028-4.04.083A74.515 74.515 0 0 0-45.821 0l-.894.082v-11.701l.9.09c1.096.11 2.392.193 3.85.248 1.511.057 2.777.084 3.87.084h8.829v-38.442c0-1.394-.014-2.956-.042-4.684a74.746 74.746 0 0 0-.207-4.646l-.07-.884h13.428l-.065.879c-.166 2.277-.265 4.097-.292 5.41a192.381 192.381 0 0 0-.041 3.925v38.442h8.744a107 107 0 0 0 3.913-.084 63.493 63.493 0 0 0 3.892-.248l.9-.09V.082Z" style="fill:#1c25a5;fill-opacity:1;fill-rule:nonzero;stroke:none" transform="translate(585.827 299.513)"/></g><path d="M372.588 306.795c-7.177-10.493-12.059-20.047-7.48-30.591 1.765 17.534 25.427 26.969 37.984 27.649 2.533 16.023 7.614 23.792 12.677 31.646-5.026-2.033-27.948-11.917-43.181-28.704" style="fill:url(#b);stroke:none" transform="matrix(1.30531 0 0 -1.30531 -218.86 452.956)"/><g clip-path="url(#c)" transform="matrix(1.30531 0 0 -1.30531 -218.86 452.956)"><path d="M0 0h-2.63l-.002 10.013h-1.869L-4.5-.001h-2.607l-.003 20.489 2.607.001.002-8.099h1.869l-.001 8.099h2.63zm-11.263 8.397c0 2.584-.576 3.877-1.731 3.877-1.138 0-1.707-1.301-1.707-3.901.001-2.552.57-3.83 1.708-3.83 1.155 0 1.731 1.284 1.73 3.854m2.47 0c0-4.2-1.407-6.299-4.222-6.3-2.785 0-4.177 2.099-4.178 6.299 0 4.23 1.392 6.346 4.176 6.347 2.815 0 4.223-2.116 4.224-6.346m-.255 8.055-8.376-.001-.001 2.375h3.046v2.123l2.469.001v-2.123h2.862z" style="fill:#1c25a5;fill-opacity:1;fill-rule:nonzero;stroke:none" transform="translate(365.404 210)"/><path d="M0 0h-2.538v-3.322l-2.722-.001-.002 11.86 2.723.001V6.254l2.538.001V4.154h-2.538l.001-2.077L0 2.078Zm-4.89-7.591c-.001 1.415-1.517 2.122-4.547 2.121-3.046 0-4.569-.707-4.568-2.122 0-1.416 1.523-2.124 4.568-2.123 3.031 0 4.547.709 4.547 2.124m-6.833 8.905c.462.492.692 1.155.692 1.985 0 .831-.234 1.492-.704 1.985-.469.491-1.111.737-1.926.737-.816 0-1.458-.251-1.927-.75-.469-.499-.704-1.157-.704-1.972.001-.831.235-1.494.705-1.985.468-.493 1.111-.739 1.926-.739.831 0 1.477.246 1.938.739m9.416-8.929c.001-2.922-2.375-4.384-7.129-4.384-4.769-.001-7.154 1.46-7.154 4.382 0 2.954 2.384 4.432 7.153 4.433 4.754 0 7.13-1.477 7.13-4.431M-9.946 6.863c.954-.869 1.43-2.057 1.431-3.563 0-1.509-.476-2.704-1.43-3.59-.955-.884-2.193-1.327-3.715-1.327-1.523 0-2.758.439-3.704 1.316-.946.876-1.42 2.076-1.42 3.599 0 1.492.476 2.677 1.43 3.553.954.877 2.185 1.315 3.692 1.316 1.523 0 2.761-.434 3.716-1.304" style="fill:#1c25a5;fill-opacity:1;fill-rule:nonzero;stroke:none" transform="translate(387.485 222.001)"/><path d="M0 0c1.215-1.377 2.938-2.195 5.169-2.457l-.992-2.216c-1.446.309-2.854.896-4.223 1.766-1.37.869-2.461 1.894-3.277 3.079-.708-1.137-1.769-2.168-3.184-3.092a13.44 13.44 0 0 0-4.084-1.755l-.924 2.263c1.493.107 2.977.715 4.453 1.823 1.631 1.216 2.447 2.53 2.446 3.946v.345l2.793.001v-.3C-1.823 2.51-1.215 1.377 0 0m5.816-9.402-7.661-.001.001-6.83-2.723-.001-.001 6.831-7.615-.001v2.4l17.999.002z" style="fill:#1c25a5;fill-opacity:1;fill-rule:nonzero;stroke:none" transform="translate(401.423 226.261)"/><path d="M0 0h-2.492l.001-6.484h-2.746l-.002 14.42 2.746.001v-5.56H0Zm-2.052-12.345-11.492-.001c-1.8-.001-2.7.691-2.7 2.075l-.001 5.122 2.723.001.001-4.823 11.469.002zm-8.356 14.328C-9.5.66-8.261-.262-6.692-.786L-7.915-3.07c-2.245 1.031-3.946 2.539-5.1 4.522-1.2-2.523-2.822-4.292-4.868-5.308l-1.454 1.962c1.6.676 2.822 1.785 3.669 3.322.768 1.4 1.153 3.023 1.152 4.869v1.154l2.792.001.001-1.016c0-1.691.439-3.177 1.315-4.453" style="fill:#1c25a5;fill-opacity:1;fill-rule:nonzero;stroke:none" transform="translate(428.49 222.56)"/><path d="M0 0h-2.7l.001-10.084h-2.722l-.001 2.168c-1.107-.416-2.515-.624-4.222-.624l-9.6-.001v2.4h3.254l-.001 6.992 2.538.001.001-6.993 1.5-.022c.862-.015 1.292.476 1.292 1.476l-.002 11.746-7.568-.001v2.377l10.268.001.001-8.098c.001-3.847-.191-6.339-.576-7.478h1.569c1.031 0 1.546.446 1.546 1.339l-.002 15.23h2.723l.001-8.052H0Z" style="fill:#1c25a5;fill-opacity:1;fill-rule:nonzero;stroke:none" transform="translate(449.027 220.095)"/><path d="M0 0h-2.492v-4.684h-2.7l-.001 12.136 2.7.001V2.377H0Zm-11.33-.843c.415.469.623 1.089.623 1.858-.001.768-.212 1.383-.635 1.846-.424.461-1.012.691-1.766.691s-1.338-.235-1.754-.704c-.415-.468-.622-1.081-.622-1.833 0-.77.211-1.39.635-1.858.423-.47 1.011-.704 1.765-.704.753 0 1.338.234 1.754.704m8.839-12.171H-5.19l-.001 4.937-11.838-.001v2.377l14.537.002zM-17.238 3.944h-1.57v2.238l4.385.001v1.891l2.722.001.001-1.892 4.43.001V3.945h-1.684c.6-.784.9-1.761.9-2.929 0-1.478-.472-2.663-1.419-3.555-.945-.893-2.157-1.339-3.634-1.339-1.492 0-2.7.446-3.623 1.338-.923.892-1.385 2.077-1.385 3.554 0 1.138.292 2.115.877 2.93" style="fill:#1c25a5;fill-opacity:1;fill-rule:nonzero;stroke:none" transform="translate(469.565 223.027)"/><path d="M0 0h-2.792l-.003 20.513h2.792zm-6.764 16.913c.001-3.046-.814-5.876-2.444-8.492-1.57-2.493-3.715-4.516-6.438-6.07l-1.662 2.192c2.431 1.124 4.33 2.838 5.699 5.147 1.323 2.23 1.976 4.714 1.961 7.453l-6.877-.001v2.377l9.761.001z" style="fill:#1c25a5;fill-opacity:1;fill-rule:nonzero;stroke:none" transform="translate(488.166 210.017)"/><path d="M0 0c1.4-.769 2.746-1.184 4.038-1.245L3.185-3.23c-1.246.2-2.577.653-3.992 1.361-1.57.783-2.655 1.638-3.255 2.56-.63-.969-1.738-1.838-3.322-2.608-1.37-.661-2.723-1.092-4.061-1.292l-.832 2.099c1.693 0 3.266.481 4.719 1.443 1.454.962 2.181 1.888 2.181 2.781v.323h2.769v-.346C-2.485 1.936-1.615.908 0 0m5.008-6.483-7.638-.001.001-1.432 6.207.001.001-5.168-12.485-.002.001-1.384 12.714.001.001-2.007-13.338-.002c-.585 0-1.077.16-1.477.484-.4.323-.6.769-.6 1.339l-.001 3.369 12.438.002v1.36l-12.438-.002v2.008l6.253.001v1.432l-7.638-.001v2.215l17.999.002z" style="fill:#1c25a5;fill-opacity:1;fill-rule:nonzero;stroke:none" transform="translate(504.8 226.725)"/><path d="M0 0h-2.792l-.002 14.259h2.792zm.347-6.023-11.815-.001c-1.799 0-2.7.691-2.7 2.076v5.4h2.722l.001-5.101 11.792.002zM-8.158 7.222c.869-1.293 1.965-2.154 3.289-2.585l-1.154-2.215c-.923.4-1.846 1.038-2.77 1.914-.892.83-1.607 1.701-2.146 2.607-.43-.984-1.077-1.934-1.937-2.849-.862-.916-1.77-1.604-2.724-2.066l-1.315 2.122c1.384.494 2.492 1.439 3.323 2.839a8.197 8.197 0 0 1 1.176 4.293l-3.761-.001-.001 2.353 10.431.001v-2.352l-3.715-.001c0-1.415.434-2.769 1.304-4.06" style="fill:#1c25a5;fill-opacity:1;fill-rule:nonzero;stroke:none" transform="translate(529.146 216.252)"/><path d="M0 0c0 1.047-1.639 1.569-4.915 1.569-3.309-.001-4.962-.523-4.962-1.57 0-1.046 1.646-1.568 4.938-1.568C-1.646-1.568 0-1.046 0 0m.186-11.607c-.001 1.169-1.685 1.754-5.054 1.753-3.4 0-5.1-.593-5.1-1.777.001-1.138 1.701-1.707 5.101-1.707 3.369.001 5.053.578 5.053 1.731M.024-8.375c1.923-.539 2.885-1.615 2.885-3.232 0-1.615-.961-2.692-2.884-3.231-1.015-.276-2.647-.415-4.892-.416-2.247 0-3.885.139-4.915.415-1.939.539-2.908 1.615-2.908 3.23-.001 1.617.969 2.693 2.907 3.232 1.03.292 2.668.439 4.915.439 2.23.001 3.861-.146 4.892-.437M-11.769 2.006h-1.616v1.938l7.085.001v1.592l2.838.001V3.945l6.992.001V2.008H1.915c.492-.492.738-1.162.738-2.008.001-1.537-.961-2.56-2.884-3.069-1.015-.261-2.584-.392-4.707-.393-2.123 0-3.685.131-4.684.392-1.924.508-2.885 1.531-2.885 3.068 0 .816.245 1.486.738 2.008m15.9-8.788-17.999-.003v2.145l17.999.003z" style="fill:#1c25a5;fill-opacity:1;fill-rule:nonzero;stroke:none" transform="translate(546.706 225.23)"/><path d="M0 0c0 .661-.431 1.139-1.293 1.43-.585.2-1.284.301-2.1.301-2.246-.001-3.369-.578-3.369-1.732.001-1.124 1.123-1.684 3.37-1.683C-1.131-1.684 0-1.124 0 0m7.455-16.313-13.084-.002c-1.462 0-2.192.676-2.193 2.03v4.568l2.723.001.001-4.361 12.553.002zM.438 3.022C1.776 2.391 2.446 1.385 2.446 0c0-2.415-1.946-3.623-5.838-3.623-3.892-.001-5.839 1.207-5.839 3.622 0 1.384.669 2.391 2.007 3.022.985.462 2.262.693 3.831.693s2.846-.23 3.831-.692M7.155-11.26H4.57v1.107l-3.415-.001-.001 2.078 3.416.001-.001 2.514c-1.642-1.2-3.805-1.8-6.492-1.801.001-1.415-.176-2.499-.528-3.253l-2.532.577c.291.506.438 1.407.438 2.699l-5.538-.001-.001 2.4 9.346.001c.923 0 1.93.177 3.022.53 1.385.46 2.147 1.036 2.285 1.727l-.001 6.65 2.585.001z" style="fill:#1c25a5;fill-opacity:1;fill-rule:nonzero;stroke:none" transform="translate(562.997 226.548)"/><path d="M0 0c-4.579 10.544-.456 22.086 6.722 32.579C2.978 28.453-.29 23.906-2.72 18.962v6.982c0 1.858.057 3.483.171 4.83l.074.887h-13.653l.07-.883a77.69 77.69 0 0 0 .214-4.847c.029-1.816.043-3.415.043-4.798v-45.129c0-1.442-.014-3.085-.043-4.929a69.095 69.095 0 0 0-.213-4.71l-.077-.889h13.662l-.078.89c-.113 1.288-.17 2.868-.17 4.696v11.327c.373-.74.762-1.464 1.165-2.169 3.725-6.528 8.582-11.535 12.283-14.775h31.673C30.402-30.535 9-20.722 0 0" style="fill:#1c25a5;fill-opacity:1;fill-rule:nonzero;stroke:none" transform="translate(365.867 274.215)"/><path d="M0 0c-5.524 1.013-10.916 1.618-16.561 1.285A66.23 66.23 0 0 1-27.449-.293c-20.788-4.771-35.656-19.175-53.432-29.793-5.154-3.079-10.661-5.893-16.606-7.511-5.933-1.613-12.233-1.914-18.136-.701-4.958.996-9.85 2.517-14.338 4.937-2.235 1.215-4.385 2.617-6.342 4.271-1.366 1.12-2.614 2.378-3.822 3.68-.395.342-.754.704-1.086 1.081a76.092 76.092 0 0 1 2.481-9.184c4.652-4.877 11.558-9.068 21.78-11.274 7.588-1.637 16.285-.356 24.463 2.078-2.086-.944-3.193-1.609-3.193-1.609-13.418-6.479-24.267-8.919-32.677-9.411a76.963 76.963 0 0 1 8.035-9.493c10.676 2.497 19.604 7.893 19.604 7.893C-72.474-38.2-55.304-38.122-48.392-37.545c2.073.172 1.213.294.267.422-14.496 1.958-26.355.176-34.606-2.104 8.115 3.355 14.826 7.216 18.04 9.329 26.485 17.397 54.071 26.59 74.763 12.836a77.42 77.42 0 0 1 .415 7.984c0 1.953-.098 3.882-.241 5.799C6.664-1.459.976-.179 0 0" style="fill:#fff;fill-opacity:1;fill-rule:nonzero;stroke:none" transform="translate(310.402 279.478)"/></g><path d="M167.668 270.4c0-5.223.528-10.323 1.523-15.252.332-.376.691-.738 1.085-1.081 1.208-1.301 2.456-2.559 3.824-3.68 1.956-1.653 4.106-3.055 6.341-4.27 4.488-2.42 9.38-3.942 14.338-4.938 5.903-1.212 12.203-.911 18.137.701 5.944 1.619 11.451 4.433 16.605 7.511 17.776 10.619 32.644 25.023 53.432 29.793 3.58.822 7.22 1.361 10.888 1.578 5.645.334 11.037-.272 16.561-1.284.976-.179 6.663-1.46 10.245-3.28-2.967 39.599-36.011 70.811-76.368 70.811-42.311 0-76.611-34.299-76.611-76.609" style="fill:url(#d);stroke:none" transform="matrix(1.30531 0 0 -1.30531 -218.86 452.956)"/><path d="M182.045 225.749c8.409.491 19.259 2.932 32.676 9.411 0 0 1.108.664 3.194 1.608-8.178-2.433-16.875-3.715-24.463-2.077-10.222 2.206-17.128 6.396-21.78 11.274a76.343 76.343 0 0 1 10.373-20.216" style="fill:url(#e);stroke:none" transform="matrix(1.30531 0 0 -1.30531 -218.86 452.956)"/><path d="M245.711 249.58c-3.214-2.114-9.925-5.974-18.04-9.329 8.25 2.279 20.11 4.062 34.606 2.104.946-.128 1.806-.251-.267-.422-6.912-.578-24.082-.656-52.326-17.784 0 0-8.928-5.396-19.604-7.893a76.885 76.885 0 0 1 15.518-11.977c2.802.104 5.648.422 8.588 1.026 10.454 2.153 23.481 8.254 37.158 17.052a89.363 89.363 0 0 0 9.808 5.49c-3.276-1.061-6.501-1.895-9.617-2.465-10.088-1.827-19.409-1.051-28.163 1.314-.932.253-1.419.43-1.146.635.166.133.715.116 1.391-.047 6.592-1.658 13.091-1.762 20.832.276 7.733 2.048 17.844 6.768 28.775 13.225 8.066 4.782 16.012 8.038 23.882 9.783 7.144 1.571 14.297 1.921 21.46 1.072a76.33 76.33 0 0 1 1.908 10.776c-6.951 4.62-14.681 6.651-22.885 6.651-16.218 0-34.29-7.934-51.878-19.487" style="fill:url(#f);stroke:none" transform="matrix(1.30531 0 0 -1.30531 -218.86 452.956)"/><path d="M316.723 251.178c-2.656 0-5.75-.531-9.277-1.592-2.984-.899-6.442-2.302-10.361-4.174-3.917-1.877-8.49-4.336-13.719-7.373a122.487 122.487 0 0 0-11.216-5.874c3.427 1.051 6.886 1.869 10.382 2.402 9.282 1.415 18.907 1.057 28.886-1.075a76.15 76.15 0 0 1 7.015 17.604c-.557.046-1.106.083-1.636.083l-.074-.001" style="fill:url(#g);stroke:none" transform="matrix(1.30531 0 0 -1.30531 -218.86 452.956)"/><path d="M296.657 215.313c-2.761-.92-5.949-2.301-9.548-4.105-3.595-1.81-7.788-4.149-12.56-7.015-6.502-3.966-13.342-7.298-20.004-9.699 16.775 2.249 31.827 9.914 43.339 21.194-.409-.125-.806-.234-1.227-.375" style="fill:url(#h);stroke:none" transform="matrix(1.30531 0 0 -1.30531 -218.86 452.956)"/><path d="M297.633 231.483c-3.991-1.006-8.516-2.755-13.552-5.204-5.042-2.44-10.837-5.73-17.381-9.841-13.156-8.448-27.805-14.203-41.687-15.686-4.067-.428-8.101-.469-12.113-.238a76.15 76.15 0 0 1 27.528-6.627c6.869 2.338 15.372 6.584 24.468 12.131 7.353 4.503 14.68 7.703 22.001 9.599a66.678 66.678 0 0 0 12.886 2.008 76.922 76.922 0 0 1 11.128 14.986c-.157.019-.323.049-.479.064-.94.097-1.908.145-2.904.145-3.035 0-6.331-.448-9.895-1.337" style="fill:url(#i);stroke:none" transform="matrix(1.30531 0 0 -1.30531 -218.86 452.956)"/><path d="M225.107 322.332a3.258 3.258 0 1 0-6.476.723 3.258 3.258 0 0 0 6.476-.723M205.038 257.768a3.694 3.694 0 1 0-7.342.82 3.694 3.694 0 0 0 7.343-.82M261.123 331.386a2.932 2.932 0 1 0-5.827.652 2.932 2.932 0 0 0 5.827-.652M240.428 332.292a2.932 2.932 0 1 0-5.828.652 2.932 2.932 0 0 0 5.828-.652M212.202 302.27a3.694 3.694 0 1 0-7.342.82 3.694 3.694 0 0 0 7.342-.82M181.727 269.84a3.694 3.694 0 1 0-7.342.82 3.694 3.694 0 0 0 7.342-.82M222.69 272.814a4.106 4.106 0 1 0-8.16.913 4.106 4.106 0 0 0 8.16-.913" style="fill:#fff;fill-opacity:1;fill-rule:nonzero;stroke:none" transform="matrix(1.30531 0 0 -1.30531 -218.86 452.956)"/></svg>